<?xml version="1.0" encoding="iso-8859-1"?>
<!-- Generator: Adobe Illustrator 19.0.0, SVG Export Plug-In . SVG Version: 6.00 Build 0)  -->
<svg version="1.1" id="Layer_1" xmlns="http://www.w3.org/2000/svg" xmlns:xlink="http://www.w3.org/1999/xlink" x="0px" y="0px"
	 viewBox="0 0 512 512" style="enable-background:new 0 0 512 512;" xml:space="preserve">
<path style="fill:#999999;" d="M464.696,425.739c0,4.611-3.736,8.348-8.348,8.348H55.652c-4.61,0-8.348-3.736-8.348-8.348
	c0-4.611,3.738-8.348,8.348-8.348h400.696C460.959,417.391,464.696,421.128,464.696,425.739z"/>
<path style="fill:#AF773A;" d="M378.435,434.087h-244.87L244.87,200.348v-22.261h22.261v22.261L378.435,434.087z"/>
<path style="fill:#996531;" d="M267.13,178.087v22.261l111.304,233.739H256v-256H267.13z"/>
<path style="fill:#FEAF50;" d="M478.609,222.609H33.391C14.949,222.609,0,207.659,0,189.217l0,0
	c0-18.442,14.949-33.391,33.391-33.391h445.217c18.442,0,33.391,14.949,33.391,33.391l0,0
	C512,207.659,497.051,222.609,478.609,222.609z"/>
<path style="fill:#AF773A;" d="M175.304,188.939c0,4.611-3.738,8.348-8.348,8.348H55.652c-4.61,0-8.348-3.736-8.348-8.348
	s3.738-8.348,8.348-8.348h111.304C171.567,180.591,175.304,184.328,175.304,188.939z M440.209,180.591H333.913
	c-4.611,0-8.348,3.736-8.348,8.348s3.736,8.348,8.348,8.348h106.296c4.611,0,8.348-3.736,8.348-8.348
	S444.82,180.591,440.209,180.591z"/>
<path style="fill:#6583B7;" d="M133.565,189.217c-30.736,0-55.652-24.917-55.652-55.652s24.917-55.652,55.652-55.652
	s55.652,24.917,55.652,55.652S164.301,189.217,133.565,189.217z"/>
<path style="fill:#819AD1;" d="M138.017,155.826c-18.442,0-33.391-14.949-33.391-33.391s14.949-33.391,33.391-33.391
	s33.391,14.949,33.391,33.391S156.459,155.826,138.017,155.826z"/>
<path style="fill:#FE5A3A;" d="M406.817,189.217c-30.736,0-55.652-24.917-55.652-55.652s24.917-55.652,55.652-55.652
	s55.652,24.917,55.652,55.652S437.553,189.217,406.817,189.217z"/>
<path style="fill:#FE7D49;" d="M411.826,155.826c-18.442,0-33.391-14.949-33.391-33.391s14.949-33.391,33.391-33.391
	s33.391,14.949,33.391,33.391S430.268,155.826,411.826,155.826z"/>
<g>
</g>
<g>
</g>
<g>
</g>
<g>
</g>
<g>
</g>
<g>
</g>
<g>
</g>
<g>
</g>
<g>
</g>
<g>
</g>
<g>
</g>
<g>
</g>
<g>
</g>
<g>
</g>
<g>
</g>
</svg>
