<?xml version="1.0" encoding="iso-8859-1"?>
<!-- Generator: Adobe Illustrator 19.0.0, SVG Export Plug-In . SVG Version: 6.00 Build 0)  -->
<svg version="1.1" id="Layer_1" xmlns="http://www.w3.org/2000/svg" xmlns:xlink="http://www.w3.org/1999/xlink" x="0px" y="0px"
	 viewBox="0 0 512 512" style="enable-background:new 0 0 512 512;" xml:space="preserve">
<path style="fill:#AF773A;" d="M374.568,424.421H137.432l107.789-226.358v-21.558h21.558v21.558L374.568,424.421z"/>
<path style="fill:#996531;" d="M266.779,176.505v21.558l107.789,226.358H256V176.505H266.779z"/>
<path style="fill:#FEAF50;" d="M471.579,219.621H40.421c-17.86,0-32.337-14.477-32.337-32.337l0,0
	c0-17.86,14.477-32.337,32.337-32.337h431.158c17.86,0,32.337,14.477,32.337,32.337l0,0
	C503.916,205.144,489.439,219.621,471.579,219.621z"/>
<path style="fill:#6583B7;" d="M137.432,187.284c-29.765,0-53.895-24.13-53.895-53.895s24.13-53.895,53.895-53.895
	s53.895,24.13,53.895,53.895S167.197,187.284,137.432,187.284z"/>
<path style="fill:#819AD1;" d="M141.743,154.947c-17.86,0-32.337-14.477-32.337-32.337s14.477-32.337,32.337-32.337
	s32.337,14.477,32.337,32.337S159.603,154.947,141.743,154.947z"/>
<path style="fill:#FE5A3A;" d="M402.055,187.284c-29.765,0-53.895-24.13-53.895-53.895s24.13-53.895,53.895-53.895
	s53.895,24.13,53.895,53.895S431.82,187.284,402.055,187.284z"/>
<path style="fill:#FE7D49;" d="M406.905,154.947c-17.86,0-32.337-14.477-32.337-32.337s14.477-32.337,32.337-32.337
	s32.337,14.477,32.337,32.337S424.765,154.947,406.905,154.947z"/>
<path d="M458.105,428.461c0,4.466-3.618,8.084-8.084,8.084h-75.273c-0.058,0.001-0.115,0.002-0.175,0.002
	c-0.058,0-0.116-0.001-0.175-0.002H137.601c-0.115,0.002-0.233,0.002-0.349,0H61.979c-4.465,0-8.084-3.618-8.084-8.084
	s3.62-8.084,8.084-8.084h70.349l79.93-167.854c1.92-4.031,6.74-5.746,10.775-3.823c4.031,1.92,5.743,6.743,3.823,10.775
	l-76.62,160.903h211.53l-76.621-160.903c-1.92-4.031-0.207-8.855,3.823-10.775c4.03-1.917,8.856-0.208,10.775,3.823l79.93,167.854
	h70.348C454.487,420.377,458.105,423.996,458.105,428.461z M512,191.325c0,22.289-18.132,40.421-40.421,40.421H40.421
	C18.132,231.746,0,213.614,0,191.325s18.132-40.42,40.421-40.42h36.506c-0.966-4.341-1.475-8.847-1.475-13.474
	c0-34.176,27.803-61.979,61.979-61.979s61.979,27.803,61.979,61.979c0,4.626-0.509,9.134-1.475,13.474H341.55
	c-0.966-4.34-1.475-8.847-1.475-13.474c0-34.176,27.803-61.979,61.979-61.979s61.979,27.803,61.979,61.979
	c0,4.626-0.51,9.134-1.475,13.474h9.02C493.868,150.905,512,169.038,512,191.325z M356.244,137.432
	c0,25.259,20.55,45.811,45.811,45.811s45.811-20.55,45.811-45.811s-20.55-45.811-45.811-45.811S356.244,112.171,356.244,137.432z
	 M91.621,137.432c0,25.259,20.55,45.811,45.811,45.811s45.811-20.55,45.811-45.811s-20.55-45.811-45.811-45.811
	S91.621,112.171,91.621,137.432z M495.832,191.325c0-13.372-10.88-24.253-24.253-24.253h-15.105
	c-4.014,7.339-9.47,13.783-15.983,18.947c1.235,1.419,1.984,3.275,1.984,5.305c0,4.466-3.618,8.084-8.084,8.084H331.453
	c-4.466,0-8.084-3.618-8.084-8.084c0-4.466,3.618-8.084,8.084-8.084h28.898c-5.082-4.631-9.393-10.091-12.716-16.168H191.851
	c-4.014,7.339-9.47,13.783-15.984,18.947c1.236,1.419,1.984,3.275,1.984,5.305c0,4.466-3.62,8.084-8.084,8.084H61.978
	c-4.465,0-8.084-3.618-8.084-8.084c0-4.466,3.62-8.084,8.084-8.084h33.748c-5.082-4.631-9.392-10.091-12.715-16.168h-42.59
	c-13.373,0-24.253,10.88-24.253,24.253c0,13.372,10.879,24.253,24.253,24.253h431.158
	C484.951,215.578,495.832,204.699,495.832,191.325z"/>
<g>
</g>
<g>
</g>
<g>
</g>
<g>
</g>
<g>
</g>
<g>
</g>
<g>
</g>
<g>
</g>
<g>
</g>
<g>
</g>
<g>
</g>
<g>
</g>
<g>
</g>
<g>
</g>
<g>
</g>
</svg>
