<?xml version="1.0" encoding="iso-8859-1"?>
<!-- Generator: Adobe Illustrator 19.0.0, SVG Export Plug-In . SVG Version: 6.00 Build 0)  -->
<svg version="1.1" id="Capa_1" xmlns="http://www.w3.org/2000/svg" xmlns:xlink="http://www.w3.org/1999/xlink" x="0px" y="0px"
	 viewBox="0 0 512 512" style="enable-background:new 0 0 512 512;" xml:space="preserve">
<path style="fill:#A78966;" d="M408.703,193.024v299.577c0,5.219-4.227,9.446-9.446,9.446H112.743c-5.219,0-9.446-4.227-9.446-9.446
	V193.024H408.703z"/>
<path style="fill:#D9CCBC;" d="M496.975,154.473H15.024c-13.084,0-17.911-16.175-6.759-22.603L221.119,9.253
	c20.767-11.957,47.739-12.712,69.763,0L503.735,131.87C514.887,138.299,510.061,154.473,496.975,154.473z"/>
<path style="fill:#5F4D37;" d="M314.911,340.208v128.291H197.089V340.208c0-26.913,21.818-48.731,48.731-48.731h20.36
	C293.093,291.477,314.911,313.295,314.911,340.208z"/>
<rect x="391.405" y="227.933" style="fill:#B39A7C;" width="31.006" height="201.764"/>
<rect x="103.3" y="193.021" style="fill:#957856;" width="305.406" height="45.816"/>
<path style="fill:#D9CCBC;" d="M442.561,225.115v20.619c0,7.121-5.819,12.95-12.94,12.95h-45.423c-7.121,0-12.95-5.829-12.95-12.95
	v-20.619c0-7.121,5.829-12.94,12.95-12.94h45.423C436.742,212.175,442.561,217.994,442.561,225.115z"/>
<rect x="89.585" y="227.933" style="fill:#B39A7C;" width="31.006" height="201.764"/>
<path style="fill:#D9CCBC;" d="M140.752,225.115v20.619c0,7.121-5.829,12.95-12.95,12.95H82.379c-7.121,0-12.94-5.829-12.94-12.95
	v-20.619c0-7.121,5.819-12.94,12.94-12.94h45.423C134.923,212.175,140.752,217.994,140.752,225.115z"/>
<path style="fill:#B39A7C;" d="M470.032,183.381v16.753c0,6.718-7.266,12.165-16.226,12.165H58.194
	c-8.961,0-16.226-5.447-16.226-12.165v-16.753L470.032,183.381L470.032,183.381z"/>
<path style="fill:#C0AB91;" d="M493.535,154.473v16.805c0,6.687-6.801,12.103-15.193,12.103H33.658
	c-8.392,0-15.193-5.416-15.193-12.103v-16.805H493.535z"/>
<path style="fill:#EBE5DD;" d="M496.975,154.473H49.285c-1.86-5.395-0.227-11.844,6.046-15.462L285.445,6.442
	c5.804,2.617,3.752,2.092,218.29,125.428C514.887,138.299,510.061,154.473,496.975,154.473z"/>
<path style="fill:#C0AB91;" d="M470.032,183.381v16.753c0,6.718-7.266,12.165-16.226,12.165H95.401
	c-8.961,0-16.226-5.447-16.226-12.165v-16.753L470.032,183.381L470.032,183.381z"/>
<path style="fill:#D9CCBC;" d="M493.535,154.473v16.805c0,6.687-6.801,12.103-15.193,12.103H70.865
	c-8.392,0-15.193-5.416-15.193-12.103v-16.805H493.535z"/>
<path style="fill:#554431;" d="M314.911,340.208v128.291H256V291.477h10.18C293.093,291.477,314.911,313.295,314.911,340.208z"/>
<path style="fill:#B39A7C;" d="M470.032,466.329v16.753H41.967v-16.753c0-6.718,7.266-12.165,16.226-12.165h395.612
	C462.767,454.164,470.032,459.611,470.032,466.329z"/>
<path style="fill:#806749;" d="M493.535,495.185v7.276c0,5.261-4.268,9.529-9.539,9.529L64.178,512H28.005
	c-5.271,0-9.539-4.279-9.539-9.539v-7.276c0-6.687,6.801-12.103,15.193-12.103h444.684
	C486.734,483.082,493.535,488.498,493.535,495.185z"/>
<path style="fill:#C0AB91;" d="M470.032,466.329v16.753H78.14v-16.753c0-6.718,7.266-12.165,16.226-12.165h359.439
	C462.767,454.164,470.032,459.611,470.032,466.329z"/>
<path style="fill:#957856;" d="M493.535,495.185v7.276c0,5.261-4.268,9.529-9.539,9.529L64.178,512h-0.041
	c-5.25-0.021-9.498-4.289-9.498-9.539v-7.276c0-6.687,6.801-12.103,15.193-12.103h408.51
	C486.734,483.082,493.535,488.498,493.535,495.185z"/>
<g>
	<path style="fill:#D9CCBC;" d="M442.561,420.626v20.619c0,7.121-5.819,12.94-12.94,12.94h-45.423c-7.121,0-12.95-5.819-12.95-12.94
		v-20.619c0-7.121,5.829-12.95,12.95-12.95h45.423C436.742,407.676,442.561,413.505,442.561,420.626z"/>
	<path style="fill:#D9CCBC;" d="M140.752,420.626v20.619c0,7.121-5.829,12.94-12.95,12.94H82.379c-7.121,0-12.94-5.819-12.94-12.94
		v-20.619c0-7.121,5.819-12.95,12.94-12.95h45.423C134.923,407.676,140.752,413.505,140.752,420.626z"/>
</g>
<g>
	<path style="fill:#EBE5DD;" d="M442.561,225.115v8.764h-35.109c-7.121,0-12.95-5.829-12.95-12.94v-8.764h35.119
		C436.742,212.175,442.561,217.994,442.561,225.115z"/>
	<path style="fill:#EBE5DD;" d="M140.752,225.115v8.764h-35.119c-7.121,0-12.94-5.829-12.94-12.94v-8.764h35.109
		C134.923,212.175,140.752,217.994,140.752,225.115z"/>
	<path style="fill:#EBE5DD;" d="M442.561,420.626v8.764h-35.109c-7.121,0-12.95-5.829-12.95-12.95v-8.764h35.119
		C436.742,407.676,442.561,413.505,442.561,420.626z"/>
	<path style="fill:#EBE5DD;" d="M140.752,420.626v8.764h-35.119c-7.121,0-12.94-5.829-12.94-12.95v-8.764h35.109
		C134.923,407.676,140.752,413.505,140.752,420.626z"/>
</g>
<path style="fill:#FFA733;" d="M262.963,69.739l0.016-0.047l-3.748-1.377c-7.633-2.805-9.569-3.927-9.569-7.689
	c0-2.799,1.135-3.804,2.245-4.417c1.399-0.775,3.524-1.201,5.986-1.201c4.243,0,6.467,1.143,8.255,2.063
	c1.3,0.669,2.645,1.361,4.359,1.361c4.86,0,7.448-4.744,7.448-8.168c0-5.056-4.942-8.513-13.989-9.851v-1.598
	c0-4.392-3.573-7.965-7.965-7.965c-4.391,0-7.964,3.573-7.964,7.965v2.6c-8.922,2.917-13.99,10.015-13.99,19.751
	c0,14.601,10.764,18.645,18.624,21.598c7.83,2.942,11.292,4.502,11.292,10.66c0,3.263-0.89,7.601-8.592,7.601
	c-5.628,0-7.693-2.226-9.518-4.194c-1.286-1.386-3.046-3.285-5.889-3.285c-4.315,0-7.539,4.313-7.539,8.168
	c0,5.827,6.7,11.579,15.611,13.689v1.63c0,4.392,3.573,7.965,7.964,7.965c4.392,0,7.965-3.573,7.965-7.965v-1.819
	c9.955-2.781,15.61-10.81,15.61-22.331C279.576,78.533,271.38,73.165,262.963,69.739z"/>
<g>
</g>
<g>
</g>
<g>
</g>
<g>
</g>
<g>
</g>
<g>
</g>
<g>
</g>
<g>
</g>
<g>
</g>
<g>
</g>
<g>
</g>
<g>
</g>
<g>
</g>
<g>
</g>
<g>
</g>
</svg>
