<?xml version="1.0" encoding="iso-8859-1"?>
<!-- Generator: Adobe Illustrator 19.0.0, SVG Export Plug-In . SVG Version: 6.00 Build 0)  -->
<svg version="1.1" id="Capa_1" xmlns="http://www.w3.org/2000/svg" xmlns:xlink="http://www.w3.org/1999/xlink" x="0px" y="0px"
	 viewBox="0 0 512 512" style="enable-background:new 0 0 512 512;" xml:space="preserve">
<path style="fill:#A78966;" d="M404.219,194.877v290.78c0,5.066-4.103,9.169-9.169,9.169h-278.1c-5.066,0-9.169-4.103-9.169-9.169
	v-290.78H404.219z"/>
<path style="fill:#D9CCBC;" d="M489.9,157.458H22.1c-12.7,0-17.385-15.7-6.561-21.939L222.143,16.502
	c20.157-11.606,46.338-12.339,67.714,0l206.604,119.017C507.285,141.759,502.6,157.458,489.9,157.458z"/>
<path style="fill:#5F4D37;" d="M313.181,337.739v124.524H198.819V337.739c0-26.123,21.177-47.3,47.3-47.3h19.763
	C292.004,290.439,313.181,311.616,313.181,337.739z"/>
<rect x="387.426" y="228.764" style="fill:#B39A7C;" width="30.095" height="195.84"/>
<rect x="107.781" y="194.877" style="fill:#957856;" width="296.438" height="44.471"/>
<path style="fill:#D9CCBC;" d="M437.083,226.025v20.013c0,6.912-5.648,12.57-12.56,12.57h-44.09c-6.912,0-12.57-5.658-12.57-12.57
	v-20.013c0-6.912,5.658-12.56,12.57-12.56h44.09C431.435,213.465,437.083,219.113,437.083,226.025z"/>
<rect x="94.479" y="228.764" style="fill:#B39A7C;" width="30.095" height="195.84"/>
<path style="fill:#D9CCBC;" d="M144.136,226.025v20.013c0,6.912-5.658,12.57-12.57,12.57h-44.09c-6.912,0-12.56-5.658-12.56-12.57
	v-20.013c0-6.912,5.648-12.56,12.56-12.56h44.09C138.478,213.465,144.136,219.113,144.136,226.025z"/>
<path style="fill:#B39A7C;" d="M463.747,185.517v16.261c0,6.521-7.052,11.807-15.75,11.807H64.002
	c-8.698,0-15.75-5.287-15.75-11.807v-16.261H463.747z"/>
<path style="fill:#C0AB91;" d="M486.559,157.458v16.312c0,6.491-6.601,11.747-14.747,11.747H40.187
	c-8.146,0-14.747-5.257-14.747-11.747v-16.312H486.559z"/>
<path style="fill:#EBE5DD;" d="M489.9,157.458H55.355c-1.806-5.237-0.221-11.496,5.869-15.007L284.58,13.774
	c5.634,2.54,3.642,2.03,211.88,121.745C507.285,141.759,502.6,157.458,489.9,157.458z"/>
<path style="fill:#C0AB91;" d="M463.747,185.517v16.261c0,6.521-7.052,11.807-15.75,11.807H100.117
	c-8.698,0-15.75-5.287-15.75-11.807v-16.261H463.747z"/>
<path style="fill:#D9CCBC;" d="M486.559,157.458v16.312c0,6.491-6.601,11.747-14.747,11.747H76.301
	c-8.146,0-14.747-5.257-14.747-11.747v-16.312H486.559z"/>
<path style="fill:#554431;" d="M313.181,337.739v124.524H256V290.439h9.881C292.004,290.439,313.181,311.616,313.181,337.739z"/>
<path style="fill:#B39A7C;" d="M463.747,460.156v16.261H48.253v-16.261c0-6.521,7.052-11.807,15.75-11.807h383.995
	C456.695,448.349,463.747,453.635,463.747,460.156z"/>
<path style="fill:#806749;" d="M486.559,488.165v7.062c0,5.106-4.143,9.249-9.259,9.249l-407.489,0.01H34.7
	c-5.116,0-9.259-4.153-9.259-9.259v-7.062c0-6.491,6.601-11.747,14.747-11.747h431.626
	C479.959,476.417,486.559,481.674,486.559,488.165z"/>
<path style="fill:#C0AB91;" d="M463.747,460.156v16.261H83.364v-16.261c0-6.521,7.052-11.807,15.75-11.807h348.884
	C456.695,448.349,463.747,453.635,463.747,460.156z"/>
<path style="fill:#957856;" d="M486.559,488.165v7.062c0,5.106-4.143,9.249-9.259,9.249l-407.489,0.01h-0.04
	c-5.096-0.02-9.219-4.163-9.219-9.259v-7.062c0-6.491,6.601-11.747,14.747-11.747h396.515
	C479.959,476.417,486.559,481.674,486.559,488.165z"/>
<g>
	<path style="fill:#D9CCBC;" d="M437.083,415.796v20.013c0,6.912-5.648,12.56-12.56,12.56h-44.09c-6.912,0-12.57-5.648-12.57-12.56
		v-20.013c0-6.912,5.658-12.57,12.57-12.57h44.09C431.435,403.226,437.083,408.884,437.083,415.796z"/>
	<path style="fill:#D9CCBC;" d="M144.136,415.796v20.013c0,6.912-5.658,12.56-12.57,12.56h-44.09c-6.912,0-12.56-5.648-12.56-12.56
		v-20.013c0-6.912,5.648-12.57,12.56-12.57h44.09C138.478,403.226,144.136,408.884,144.136,415.796z"/>
</g>
<g>
	<path style="fill:#EBE5DD;" d="M437.083,226.025v8.507h-34.078c-6.912,0-12.57-5.658-12.57-12.56v-8.507h34.088
		C431.435,213.465,437.083,219.113,437.083,226.025z"/>
	<path style="fill:#EBE5DD;" d="M144.136,226.025v8.507h-34.088c-6.912,0-12.56-5.658-12.56-12.56v-8.507h34.078
		C138.478,213.465,144.136,219.113,144.136,226.025z"/>
	<path style="fill:#EBE5DD;" d="M437.083,415.796v8.507h-34.078c-6.912,0-12.57-5.658-12.57-12.57v-8.507h34.088
		C431.435,403.226,437.083,408.884,437.083,415.796z"/>
	<path style="fill:#EBE5DD;" d="M144.136,415.796v8.507h-34.088c-6.912,0-12.56-5.658-12.56-12.57v-8.507h34.078
		C138.478,403.226,144.136,408.884,144.136,415.796z"/>
</g>
<path d="M256,128.85c4.263,0,7.731-3.468,7.731-7.731v-1.766c9.663-2.7,15.152-10.492,15.152-21.676
	c0-13.929-7.955-19.139-16.125-22.465l0.015-0.045c-8.093-3.223-12.926-3.743-12.926-8.8c0-2.717,1.102-3.693,2.179-4.288
	c1.358-0.752,3.421-1.166,5.81-1.166c7.138,0,8.361,3.324,12.244,3.324c4.717,0,7.229-4.605,7.229-7.928
	c0-4.908-4.797-8.263-13.578-9.561v-1.551c0-4.263-3.468-7.731-7.731-7.731c-4.262,0-7.73,3.468-7.73,7.731v2.524
	c-8.66,2.831-13.579,9.721-13.579,19.171c0,14.172,10.448,18.097,18.077,20.963c7.6,2.856,10.961,4.37,10.961,10.347
	c0,3.167-0.864,7.377-8.339,7.377c-5.462,0-7.467-2.161-9.238-4.071c-1.248-1.345-2.956-3.188-5.716-3.188
	c-4.188,0-7.317,4.186-7.317,7.928c0,5.656,6.504,11.239,15.153,13.287v1.582C248.27,125.382,251.737,128.85,256,128.85z"/>
<path d="M500.223,128.998l-30.426-17.515c-3.591-2.077-8.196-0.843-10.272,2.759c-2.077,3.601-0.833,8.206,2.769,10.283
	c30.307,18.126,32.673,17.221,32.673,20.956c0,1.796-1.344,4.454-5.056,4.454c-21.87,0-448.944,0-467.82,0
	c-4.932,0-6.993-5.49-2.799-7.895L225.905,23.023c9.049-5.217,19.462-7.975,30.095-7.975s21.047,2.759,30.095,7.975l150.115,86.474
	c3.601,2.077,8.206,0.843,10.272-2.769c2.077-3.591,0.843-8.196-2.759-10.273L293.609,9.982C282.273,3.451,269.272,0,256,0
	c-13.272,0-26.273,3.451-37.609,9.982L11.777,128.998c-6.129,3.541-9.791,9.701-9.791,16.482c0,8.477,5.879,17.204,15.93,19.11
	v9.179c0,10.634,9.992,19.271,22.27,19.271h0.541v8.737c0,10.842,10.221,19.334,23.271,19.334h4.036
	c-1.086,4.168-0.462,5.999-0.641,25.057c0,10.904,8.728,19.803,19.562,20.063v129.47c-10.834,0.261-19.562,9.159-19.562,20.063
	c0.181,19.147-0.444,20.896,0.642,25.059h-4.033c-13.051,0-23.274,8.487-23.274,19.331v8.738h-0.542
	c-12.279,0-22.27,8.637-22.27,19.271v16.312c0,4.163,3.371,7.524,7.524,7.524h461.119c4.153,0,7.524-3.361,7.524-7.524v-16.312
	c0-10.634-9.992-19.271-22.27-19.271h-0.542v-8.738c0-10.844-10.222-19.331-23.274-19.331h-4.033
	c1.087-4.168,0.462-6.002,0.642-25.059c0-10.905-8.728-19.803-19.562-20.063v-129.47c10.834-0.261,19.562-9.159,19.562-20.063
	c-0.18-19.109,0.444-20.893-0.641-25.057h4.036c13.049,0,23.271-8.493,23.271-19.334v-8.737h0.541
	c12.279,0,22.27-8.637,22.27-19.271v-9.179c10.052-1.906,15.93-10.634,15.93-19.11C510.014,138.699,506.352,132.539,500.223,128.998
	z M82.441,246.169v-20.013c0-2.731,2.294-5.03,5.013-5.044h44.137c2.728,0.013,5.023,2.313,5.023,5.044v20.013
	c0,2.548-2.016,4.725-4.514,5.006c-0.36,0.042-44.785,0.042-45.143,0C84.457,250.904,82.441,248.717,82.441,246.169z
	 M117.05,266.252v129.43h-15.048v-129.43H117.05z M82.441,415.766c0-2.548,2.016-4.735,4.514-5.006
	c0.483-0.057-0.165-0.02,15.048-0.03c10.359,0,19.192,0,29.564,0c2.702,0,5.046,2.282,5.046,5.036v20.013
	c0,2.739-2.307,5.046-5.046,5.046h-44.09c-2.729,0-5.036-2.307-5.036-5.046V415.766z M471.813,483.941
	c4.063,0,7.223,2.267,7.223,4.223v8.788H32.964v-8.788c0-1.956,3.16-4.223,7.223-4.223h8.066h415.495H471.813z M447.997,455.872
	c4.946,0,8.226,2.578,8.226,4.284v8.738c-20.832,0-386.601,0-400.447,0v-8.738c0-1.705,3.28-4.284,8.226-4.284
	C100.611,455.872,401.243,455.872,447.997,455.872z M206.343,440.825V337.739c0-21.939,17.846-39.776,39.776-39.776h2.357v142.862
	L206.343,440.825L206.343,440.825z M429.559,415.766v20.013c0,2.739-2.307,5.046-5.036,5.046h-44.09
	c-2.739,0-5.046-2.307-5.046-5.046v-20.013c0-2.756,2.346-5.036,5.046-5.036c10.373,0,19.205,0,29.564,0
	c15.216,0.01,14.566-0.027,15.048,0.03C427.543,411.031,429.559,413.217,429.559,415.766z M394.95,395.682v-129.43h15.048v129.43
	H394.95z M429.559,246.169c0,2.738-2.321,5.036-5.036,5.036c-47.442,0-44.257,0.013-44.621-0.03
	c-2.498-0.281-4.514-2.458-4.514-5.006v-20.013c0-2.731,2.294-5.03,5.023-5.044h44.137c2.718,0.013,5.013,2.313,5.013,5.044v20.013
	H429.559z M456.224,201.777c0,1.706-3.28,4.287-8.223,4.287c-0.101,0-23.306-0.002-23.478-0.002
	c-23.691,0-196.954,0.002-215.351,0.002c-4.156,0-7.524,3.368-7.524,7.524s3.368,7.524,7.524,7.524h151.809
	c-0.421,1.614-0.641,3.298-0.641,5.044v20.013c0,10.894,8.728,19.793,19.562,20.064v129.47
	c-10.834,0.271-19.562,9.169-19.562,20.063v20.013c0,1.746,0.221,3.431,0.642,5.046h-40.277v-37.89c0-4.153-3.371-7.524-7.524-7.524
	c-4.163,0-7.524,3.371-7.524,7.524v37.89h-42.133V297.963h2.357c21.929,0,39.776,17.836,39.776,39.776v35.101
	c0,4.153,3.361,7.524,7.524,7.524c4.153,0,7.524-3.371,7.524-7.524v-35.101c0-30.236-24.598-54.823-54.823-54.823h-19.763
	c-30.226,0-54.823,24.588-54.823,54.823v103.086h-40.277c1.087-4.168,0.462-6.002,0.642-25.059c0-10.894-8.728-19.793-19.562-20.063
	v-129.47c10.834-0.271,19.562-9.169,19.562-20.063v-20.013c0-1.745-0.221-3.429-0.641-5.044h28.059c4.156,0,7.524-3.368,7.524-7.524
	s-3.368-7.524-7.524-7.524c-8.855,0-84.016,0-91.657,0H63.998c-4.944,0-8.223-2.58-8.223-4.287v-8.733h400.449V201.777z
	 M479.036,173.77c0,1.956-3.16,4.223-7.223,4.223H40.187c-4.063,0-7.223-2.267-7.223-4.223v-8.788c22.061,0,424.476,0,446.071,0
	L479.036,173.77L479.036,173.77z"/>
<g>
</g>
<g>
</g>
<g>
</g>
<g>
</g>
<g>
</g>
<g>
</g>
<g>
</g>
<g>
</g>
<g>
</g>
<g>
</g>
<g>
</g>
<g>
</g>
<g>
</g>
<g>
</g>
<g>
</g>
</svg>
