<?xml version="1.0" encoding="iso-8859-1"?>
<!-- Generator: Adobe Illustrator 19.0.0, SVG Export Plug-In . SVG Version: 6.00 Build 0)  -->
<svg version="1.1" id="Layer_1" xmlns="http://www.w3.org/2000/svg" xmlns:xlink="http://www.w3.org/1999/xlink" x="0px" y="0px"
	 viewBox="0 0 512 512" style="enable-background:new 0 0 512 512;" xml:space="preserve">
<path style="fill:#848484;" d="M471.579,472.975H40.421V147.032h431.158V472.975z"/>
<path style="fill:#999999;" d="M439.242,129.067v334.967h-64.674V129.067H439.242z M72.758,464.034h64.674V129.067H72.758V464.034z
	 M223.663,464.034h64.674V129.067h-64.674V464.034z"/>
<path style="fill:#DBDBDB;" d="M439.242,268.81v204.165h-64.674V268.81H439.242z M223.663,472.975h64.674V268.81h-64.674V472.975z
	 M72.758,472.975h64.674V268.81H72.758V472.975z"/>
<path style="fill:#C1C1C1;" d="M503.916,471.579L503.916,471.579c0,17.86-14.477,32.337-32.337,32.337H40.421
	c-17.86,0-32.337-14.477-32.337-32.337l0,0c0-17.86,14.477-32.337,32.337-32.337h431.158
	C489.439,439.242,503.916,453.719,503.916,471.579z M28.702,162.8h454.595c11.387,0,20.618-9.231,20.618-20.619
	c0-7.814-4.417-14.957-11.408-18.447L265.21,10.255c-5.799-2.895-12.621-2.895-18.419,0L19.493,123.735
	c-6.991,3.49-11.408,10.632-11.408,18.447C8.084,153.569,17.315,162.8,28.702,162.8z"/>
<path style="fill:#FE9D5E;" d="M336.842,150.164c0,44.647-36.195,80.842-80.842,80.842s-80.842-36.195-80.842-80.842
	S211.353,69.321,256,69.321S336.842,105.516,336.842,150.164z"/>
<path style="fill:#FFFFFF;" d="M113.179,301.014v112.355c0,4.465-3.618,8.084-8.084,8.084c-4.466,0-8.084-3.62-8.084-8.084V301.014
	c0-4.465,3.618-8.084,8.084-8.084C109.56,292.93,113.179,296.549,113.179,301.014z M256,292.93c-4.466,0-8.084,3.62-8.084,8.084
	v112.355c0,4.465,3.618,8.084,8.084,8.084s8.084-3.62,8.084-8.084V301.014C264.084,296.549,260.466,292.93,256,292.93z
	 M406.905,292.93c-4.466,0-8.084,3.62-8.084,8.084v112.355c0,4.465,3.618,8.084,8.084,8.084s8.084-3.62,8.084-8.084V301.014
	C414.989,296.549,411.371,292.93,406.905,292.93z"/>
<path d="M295.074,168.118c0,16.091-13.091,29.182-29.181,29.182h-32.798c-4.466,0-8.084-3.62-8.084-8.084v-42.194V111.09
	c0-4.465,3.618-8.084,8.084-8.084h26.947c14.364,0,26.049,11.687,26.049,26.051c0,5.373-1.636,10.373-4.436,14.525
	C289.719,148.778,295.074,157.832,295.074,168.118z M241.179,138.936h18.863c5.449,0,9.881-4.432,9.881-9.881
	c0-5.449-4.432-9.881-9.881-9.881h-18.863V138.936z M278.905,168.118c0-7.174-5.838-13.012-13.012-13.012h-5.851h-18.863v26.025
	h24.714C273.067,181.13,278.905,175.293,278.905,168.118z M512,471.578C512,493.866,493.868,512,471.579,512H40.421
	C18.132,512,0,493.866,0,471.578c0-22.289,18.132-40.422,40.421-40.422h24.253V189.215c0-4.465,3.618-8.084,8.084-8.084
	c4.466,0,8.084,3.62,8.084,8.084v241.941h48.505V189.215c0-4.465,3.618-8.084,8.084-8.084c4.466,0,8.084,3.62,8.084,8.084v241.941
	h70.063V255.992c0-4.465,3.618-8.084,8.084-8.084s8.084,3.62,8.084,8.084v175.163h48.505V255.992c0-4.465,3.618-8.084,8.084-8.084
	s8.084,3.62,8.084,8.084v175.163h70.063V189.215c0-4.465,3.618-8.084,8.084-8.084c4.466,0,8.084,3.62,8.084,8.084v241.941h48.505
	V189.215c0-4.465,3.618-8.084,8.084-8.084c4.466,0,8.084,3.62,8.084,8.084v241.941h24.253C493.868,431.156,512,449.288,512,471.578z
	 M495.832,471.578c0-13.373-10.88-24.254-24.253-24.254H40.421c-13.372,0-24.253,10.88-24.253,24.254
	c0,13.373,10.88,24.254,24.253,24.254h431.158C484.951,495.831,495.832,484.951,495.832,471.578z M0,142.17
	c0-10.95,6.086-20.79,15.882-25.681L243.178,3.006c8.028-4.008,17.614-4.009,25.642,0l227.297,113.483
	c9.797,4.889,15.882,14.729,15.882,25.68c0,15.828-12.875,28.703-28.703,28.703H342.463C333.1,209.943,297.899,239.08,256,239.08
	s-77.1-29.138-86.463-68.208H28.703C12.875,170.873,0,157.998,0,142.17z M328.758,150.153c0-40.12-32.639-72.76-72.758-72.76
	s-72.758,32.64-72.758,72.76s32.639,72.76,72.758,72.76S328.758,190.272,328.758,150.153z M16.168,142.17
	c0,6.911,5.623,12.535,12.535,12.535h138.486c-0.077-1.508-0.115-3.026-0.115-4.552c0-49.036,39.893-88.93,88.926-88.93
	s88.926,39.893,88.926,88.93c0,1.526-0.039,3.044-0.115,4.552h138.486c6.911,0,12.535-5.622,12.535-12.535
	c0-4.782-2.657-9.079-6.935-11.214L261.597,17.473c-3.505-1.749-7.691-1.749-11.196,0L23.104,130.956
	C18.825,133.091,16.168,137.388,16.168,142.17z"/>
<g>
</g>
<g>
</g>
<g>
</g>
<g>
</g>
<g>
</g>
<g>
</g>
<g>
</g>
<g>
</g>
<g>
</g>
<g>
</g>
<g>
</g>
<g>
</g>
<g>
</g>
<g>
</g>
<g>
</g>
</svg>
