<?xml version="1.0" encoding="iso-8859-1"?>
<!-- Generator: Adobe Illustrator 19.0.0, SVG Export Plug-In . SVG Version: 6.00 Build 0)  -->
<svg version="1.1" id="Layer_1" xmlns="http://www.w3.org/2000/svg" xmlns:xlink="http://www.w3.org/1999/xlink" x="0px" y="0px"
	 viewBox="0 0 512.001 512.001" style="enable-background:new 0 0 512.001 512.001;" xml:space="preserve">
<path style="fill:#848484;" d="M478.609,480.051H33.392V143.48h445.217V480.051z"/>
<path style="fill:#999999;" d="M445.218,124.929v345.889h-66.783V124.929H445.218z M66.783,470.818h66.783V124.929H66.783V470.818z
	 M222.609,470.818h66.783V124.929h-66.783V470.818z"/>
<path style="fill:#DBDBDB;" d="M445.218,269.228v210.823h-66.783V269.228H445.218z M222.609,480.051h66.783V269.228h-66.783V480.051
	z M66.783,480.051h66.783V269.228H66.783V480.051z"/>
<path style="fill:#C1C1C1;" d="M512,478.609L512,478.609c0,18.442-14.949,33.391-33.391,33.391H33.392
	C14.95,512.001,0,497.051,0,478.609l0,0c0-18.442,14.949-33.391,33.391-33.391h445.217C497.051,445.218,512,460.167,512,478.609z
	 M21.291,159.761h469.418c11.758,0,21.29-9.532,21.29-21.291c0-8.068-4.561-15.445-11.78-19.049L265.51,2.242
	c-5.988-2.99-13.033-2.99-19.02,0l-234.71,117.18C4.562,123.026,0,130.401,0,138.471C0,150.229,9.532,159.761,21.291,159.761z"/>
<path style="fill:#FE9D5E;" d="M339.479,146.713c0,46.103-37.375,83.478-83.478,83.478s-83.478-37.375-83.478-83.478
	S209.897,63.235,256,63.235S339.479,100.61,339.479,146.713z"/>
<path style="fill:#FE5A3A;" d="M282.493,139.926c2.891-4.287,4.58-9.449,4.58-14.997c0-14.832-12.066-26.899-26.899-26.899h-27.826
	c-4.61,0-8.348,3.738-8.348,8.348v37.101v43.569c0,4.61,3.738,8.348,8.348,8.348h33.868c16.614,0,30.132-13.518,30.132-30.132
	C296.348,154.642,290.819,145.294,282.493,139.926z M240.696,114.725h19.478c5.625,0,10.203,4.577,10.203,10.203
	c0,5.625-4.577,10.203-10.203,10.203h-19.478V114.725z M266.216,178.7h-25.52v-26.873h19.478h6.042
	c7.408,0,13.437,6.028,13.437,13.437C279.652,172.671,273.624,178.7,266.216,178.7z"/>
<g>
</g>
<g>
</g>
<g>
</g>
<g>
</g>
<g>
</g>
<g>
</g>
<g>
</g>
<g>
</g>
<g>
</g>
<g>
</g>
<g>
</g>
<g>
</g>
<g>
</g>
<g>
</g>
<g>
</g>
</svg>
