<svg id="Capa_1" enable-background="new 0 0 497 497" height="512" viewBox="0 0 497 497" width="512" xmlns="http://www.w3.org/2000/svg"><g><path d="m329.014 388.011-282.096-1.011c-5.523 0-10-4.477-10-10l-2.404-364.989c0-5.523 4.477-10 10-10l1.5-2.011h283c5.523 0 10 4.477 10 10v371c0 5.523-4.477 7.011-10 7.011z" fill="#f8f7f7"/><path d="m339.014 377v4c0 5.523-4.477 10-10 10h-287c-5.523 0-10-4.477-10-10v-371c0-5.523 4.477-10 10-10h4v365c0 6.627 5.373 12 12 12z" fill="#e8e8e8"/><g><g><path d="m269.605 236.942h-173.089c-4.143 0-7.5-3.358-7.5-7.5s3.357-7.5 7.5-7.5h173.09c4.143 0 7.5 3.358 7.5 7.5s-3.358 7.5-7.501 7.5z" fill="#e8e8e8"/></g><g><path d="m256.514 47.5h-106c-4.143 0-7.5-3.358-7.5-7.5s3.357-7.5 7.5-7.5h106c4.143 0 7.5 3.358 7.5 7.5s-3.358 7.5-7.5 7.5z" fill="#e8e8e8"/></g><g><path d="m255.014 72.5h-30c-4.143 0-7.5-3.358-7.5-7.5s3.357-7.5 7.5-7.5h30c4.143 0 7.5 3.358 7.5 7.5s-3.358 7.5-7.5 7.5z" fill="#e8e8e8"/></g><g><path d="m195.014 72.5h-43c-4.143 0-7.5-3.358-7.5-7.5s3.357-7.5 7.5-7.5h43c4.143 0 7.5 3.358 7.5 7.5s-3.358 7.5-7.5 7.5z" fill="#e8e8e8"/></g><g><path d="m304.014 47.5h-19c-4.143 0-7.5-3.358-7.5-7.5s3.357-7.5 7.5-7.5h19c4.143 0 7.5 3.358 7.5 7.5s-3.358 7.5-7.5 7.5z" fill="#e8e8e8"/></g><g><path d="m180.014 107.5h-29.5c-4.143 0-7.5-3.358-7.5-7.5s3.357-7.5 7.5-7.5h29.5c4.143 0 7.5 3.358 7.5 7.5s-3.358 7.5-7.5 7.5z" fill="#e8e8e8"/></g><g><path d="m255.014 132.5h-103c-4.143 0-7.5-3.358-7.5-7.5s3.357-7.5 7.5-7.5h103c4.143 0 7.5 3.358 7.5 7.5s-3.358 7.5-7.5 7.5z" fill="#e8e8e8"/></g><g><path d="m304.014 107.5h-19c-4.143 0-7.5-3.358-7.5-7.5s3.357-7.5 7.5-7.5h19c4.143 0 7.5 3.358 7.5 7.5s-3.358 7.5-7.5 7.5z" fill="#e8e8e8"/></g><g><path d="m304.014 167.5h-19c-4.143 0-7.5-3.358-7.5-7.5s3.357-7.5 7.5-7.5h19c4.143 0 7.5 3.358 7.5 7.5s-3.358 7.5-7.5 7.5z" fill="#e8e8e8"/></g><g><path d="m256.514 167.5h-106c-4.143 0-7.5-3.358-7.5-7.5s3.357-7.5 7.5-7.5h106c4.143 0 7.5 3.358 7.5 7.5s-3.358 7.5-7.5 7.5z" fill="#e8e8e8"/></g><g><path d="m195.014 192.5h-43c-4.143 0-7.5-3.358-7.5-7.5s3.357-7.5 7.5-7.5h43c4.143 0 7.5 3.358 7.5 7.5s-3.358 7.5-7.5 7.5z" fill="#e8e8e8"/></g></g><g><g><path d="m56.541 58h-34.055c-4.143 0-7.5-3.358-7.5-7.5s3.357-7.5 7.5-7.5h34.055c4.143 0 7.5 3.358 7.5 7.5s-3.357 7.5-7.5 7.5z" fill="#d8d8d8"/></g><g><path d="m56.541 88h-34.055c-4.143 0-7.5-3.358-7.5-7.5s3.357-7.5 7.5-7.5h34.055c4.143 0 7.5 3.358 7.5 7.5s-3.357 7.5-7.5 7.5z" fill="#d8d8d8"/></g><g><path d="m56.541 118h-34.055c-4.143 0-7.5-3.358-7.5-7.5s3.357-7.5 7.5-7.5h34.055c4.143 0 7.5 3.358 7.5 7.5s-3.357 7.5-7.5 7.5z" fill="#d8d8d8"/></g><g><path d="m56.541 148h-34.055c-4.143 0-7.5-3.358-7.5-7.5s3.357-7.5 7.5-7.5h34.055c4.143 0 7.5 3.358 7.5 7.5s-3.357 7.5-7.5 7.5z" fill="#d8d8d8"/></g><g><path d="m56.541 258h-34.055c-4.143 0-7.5-3.358-7.5-7.5s3.357-7.5 7.5-7.5h34.055c4.143 0 7.5 3.358 7.5 7.5s-3.357 7.5-7.5 7.5z" fill="#d8d8d8"/></g><g><path d="m56.541 288h-34.055c-4.143 0-7.5-3.358-7.5-7.5s3.357-7.5 7.5-7.5h34.055c4.143 0 7.5 3.358 7.5 7.5s-3.357 7.5-7.5 7.5z" fill="#d8d8d8"/></g><g><path d="m56.541 318h-34.055c-4.143 0-7.5-3.358-7.5-7.5s3.357-7.5 7.5-7.5h34.055c4.143 0 7.5 3.358 7.5 7.5s-3.357 7.5-7.5 7.5z" fill="#d8d8d8"/></g><g><path d="m56.541 348h-34.055c-4.143 0-7.5-3.358-7.5-7.5s3.357-7.5 7.5-7.5h34.055c4.143 0 7.5 3.358 7.5 7.5s-3.357 7.5-7.5 7.5z" fill="#d8d8d8"/></g></g><path d="m472.022 497h-205.017c-5.518 0-9.991-4.473-9.991-9.991v-289.018c0-5.518 4.473-9.991 9.991-9.991h205.017c5.518 0 9.991 4.473 9.991 9.991v289.017c.001 5.519-4.473 9.992-9.991 9.992z" fill="#857e87"/><path d="m471.131 495.67-199.787-2.213c-5.518 0-9.991-4.473-9.991-9.991l-3.158-284.711c0-5.518 4.473-9.991 9.991-9.991l2.828-.764h201.009c5.518 0 9.991 4.473 9.991 9.991v285.009l-.892 2.679c0 5.518-4.473 9.991-9.991 9.991z" fill="#857e87"/><path d="m482.014 483v4.01c0 5.517-4.473 9.99-9.99 9.99h-205.02c-5.517 0-9.99-4.473-9.99-9.99v-289.02c0-5.517 4.473-9.99 9.99-9.99h4.01v282c0 7.18 5.82 13 13 13z" fill="#6f6571"/><path d="m448.014 275h-157c-2.209 0-4-1.791-4-4v-49c0-2.209 1.791-4 4-4h157c2.209 0 4 1.791 4 4v49c0 2.209-1.791 4-4 4z" fill="#afefa5"/><g fill="#6f6571"><path d="m318.014 337h-27c-2.209 0-4-1.791-4-4v-27c0-2.209 1.791-4 4-4h27c2.209 0 4 1.791 4 4v27c0 2.209-1.791 4-4 4z"/><path d="m383.014 337h-27c-2.209 0-4-1.791-4-4v-27c0-2.209 1.791-4 4-4h27c2.209 0 4 1.791 4 4v27c0 2.209-1.791 4-4 4z"/><path d="m318.014 402h-27c-2.209 0-4-1.791-4-4v-27c0-2.209 1.791-4 4-4h27c2.209 0 4 1.791 4 4v27c0 2.209-1.791 4-4 4z"/><path d="m383.014 402h-27c-2.209 0-4-1.791-4-4v-27c0-2.209 1.791-4 4-4h27c2.209 0 4 1.791 4 4v27c0 2.209-1.791 4-4 4z"/><path d="m318.014 467h-27c-2.209 0-4-1.791-4-4v-27c0-2.209 1.791-4 4-4h27c2.209 0 4 1.791 4 4v27c0 2.209-1.791 4-4 4z"/><path d="m383.014 467h-27c-2.209 0-4-1.791-4-4v-27c0-2.209 1.791-4 4-4h27c2.209 0 4 1.791 4 4v27c0 2.209-1.791 4-4 4z"/><path d="m448.014 467h-27c-2.209 0-4-1.791-4-4v-27c0-2.209 1.791-4 4-4h27c2.209 0 4 1.791 4 4v27c0 2.209-1.791 4-4 4z"/></g><path d="m448.014 402h-27c-2.209 0-4-1.791-4-4v-92c0-2.209 1.791-4 4-4h27c2.209 0 4 1.791 4 4v92c0 2.209-1.791 4-4 4z" fill="#ffe07d"/><g><path d="m422.014 253.5h-31c-4.143 0-7.5-3.358-7.5-7.5s3.357-7.5 7.5-7.5h31c4.143 0 7.5 3.358 7.5 7.5s-3.358 7.5-7.5 7.5z" fill="#8ce1a4"/></g><g fill="#afefa5"><path d="m94.514 60.5h5v5c0 4.142 3.357 7.5 7.5 7.5s7.5-3.358 7.5-7.5v-5h5c4.143 0 7.5-3.358 7.5-7.5s-3.357-7.5-7.5-7.5h-5v-5c0-4.142-3.357-7.5-7.5-7.5s-7.5 3.358-7.5 7.5v5h-5c-4.143 0-7.5 3.358-7.5 7.5s3.357 7.5 7.5 7.5z"/><path d="m119.514 105.5h-5v-5c0-4.142-3.357-7.5-7.5-7.5s-7.5 3.358-7.5 7.5v5h-5c-4.143 0-7.5 3.358-7.5 7.5s3.357 7.5 7.5 7.5h5v5c0 4.142 3.357 7.5 7.5 7.5s7.5-3.358 7.5-7.5v-5h5c4.143 0 7.5-3.358 7.5-7.5s-3.358-7.5-7.5-7.5z"/></g><g><path d="m117.014 180.5h-20c-4.143 0-7.5-3.358-7.5-7.5s3.357-7.5 7.5-7.5h20c4.143 0 7.5 3.358 7.5 7.5s-3.358 7.5-7.5 7.5z" fill="#ff8086"/></g><g fill="#afefa5"><path d="m129.014 299.5h-17c-4.143 0-7.5 3.358-7.5 7.5s3.357 7.5 7.5 7.5h17c4.143 0 7.5-3.358 7.5-7.5s-3.358-7.5-7.5-7.5z"/><path d="m179.853 297.502c-1.755-.62-3.333-1.089-4.725-1.503-3.668-1.091-4.996-1.54-6.166-2.933-.198-.236-.536-1.229-.251-2.639.149-.733.687-2.537 2.467-3.447 2.565-1.313 5.656 1.143 5.999 1.426 3.192 2.638 7.92 2.189 10.56-1.005 2.638-3.193 2.188-7.92-1.005-10.559-1.95-1.611-4.357-3.051-7.037-4.018v-1.162c0-4.142-3.357-7.5-7.5-7.5s-7.5 3.358-7.5 7.5v1.805c-.114.056-.229.098-.343.156-5.345 2.732-9.114 7.77-10.341 13.824-1.139 5.618.155 11.323 3.463 15.263 4.125 4.914 8.828 6.313 13.378 7.666 1.281.381 2.607.776 4.007 1.27 2.579.911 3.675 2.638 3.256 5.135-.331 1.966-2.026 5.301-6.286 5.329-4.593.036-5.688-.138-9.031-2.323-3.468-2.267-8.116-1.292-10.381 2.176-2.266 3.468-1.292 8.115 2.176 10.381 3.803 2.485 6.814 3.719 10.103 4.3v1.415c0 4.142 3.357 7.5 7.5 7.5s7.5-3.358 7.5-7.5v-2.464c6.797-2.691 11.939-8.752 13.212-16.33 1.625-9.685-3.621-18.431-13.055-21.763z"/></g></g></svg>