<?xml version="1.0" encoding="iso-8859-1"?>
<!-- Generator: Adobe Illustrator 19.0.0, SVG Export Plug-In . SVG Version: 6.00 Build 0)  -->
<svg version="1.1" id="Capa_1" xmlns="http://www.w3.org/2000/svg" xmlns:xlink="http://www.w3.org/1999/xlink" x="0px" y="0px"
	 viewBox="0 0 512 512" style="enable-background:new 0 0 512 512;" xml:space="preserve">
<path style="fill:#EE8700;" d="M93.191,387.259v76.758c0,6.512-1.786,12.673-4.876,18.151
	c-7.585,13.465-23.027,22.777-39.021,22.777h-0.542c-22.516,0-40.927-18.422-40.927-40.927v-45.102
	c0-16.536,12.683-30.121,28.867-31.536c0.923-0.08,1.846-0.12,2.789-0.12H93.191z"/>
<path style="fill:#FFA733;" d="M93.191,387.259v76.758c0,6.512-1.786,12.673-4.876,18.151c-3.863,1.104-7.876,1.706-11.93,1.706
	h-0.542c-22.516,0-40.927-18.422-40.927-40.928v-45.102c0-3.662,0.622-7.184,1.776-10.465c0.923-0.08,1.846-0.12,2.789-0.12H93.191z
	"/>
<path style="fill:#FFC477;" d="M407.587,26.085v432.694c0,25.497-20.668,46.165-46.165,46.165H49.223l2.559-0.08
	c21.372-1.284,38.449-19.164,38.449-40.837l-0.05-76.768V51.674c0-24.644,19.978-44.622,44.622-44.622h253.76
	C399.069,7.052,407.587,15.57,407.587,26.085z"/>
<path style="fill:#FFDAAA;" d="M407.587,26.085v432.694c0,25.496-20.659,46.165-46.155,46.165H77.819l2.559-0.08
	c21.372-1.284,38.439-19.164,38.439-40.837l-0.05-76.768V26.085c0-10.515,8.529-19.034,19.034-19.034h250.762
	C399.069,7.052,407.587,15.57,407.587,26.085z"/>
<path style="fill:#FFB655;" d="M448.617,47.969v34.054c0,4.646-0.742,9.131-2.117,13.315c-2.107,6.442-5.709,12.201-10.385,16.887
	c-7.726,7.726-18.402,12.502-30.191,12.502v0.01h-190.4c-23.589,0-42.703-19.124-42.703-42.703V47.969
	c0-20.81-13.044-38.259-33.222-40.737L136.9,7.051h269.024v0.03c0.401-0.01,0.813-0.03,1.224-0.03h0.562
	C430.205,7.052,448.617,25.463,448.617,47.969z"/>
<path style="fill:#FFC477;" d="M448.617,47.96v34.064c0,4.074-0.572,8.027-1.646,11.76H214.114c-6.461,0-11.847-5.167-11.865-11.627
	c0-0.041,0-0.081,0-0.122V47.97c0-20.81-13.044-38.259-33.222-40.737l-2.699-0.181H407.71
	C430.208,7.052,448.617,25.46,448.617,47.96z"/>
<path style="fill:#1E81CE;" d="M504.475,292.882v155.693c0,30.382-24.623,55.015-55.015,55.015H306.5
	c-30.382,0-55.015-24.633-55.015-55.015V292.882c0-30.382,24.633-55.005,55.015-55.005h142.96
	C479.852,237.877,504.475,262.5,504.475,292.882z"/>
<path style="fill:#3D9AE2;" d="M504.475,292.882v134.121c0,30.382-24.623,55.015-55.015,55.015H306.5
	c-30.382,0-55.015-24.633-55.015-55.015V292.882c0-30.382,24.633-55.005,55.015-55.005h142.96
	C479.852,237.877,504.475,262.5,504.475,292.882z"/>
<g>
	<path style="fill:#1A6FB0;" d="M331.464,373.593v25.716c0,4.545-3.682,8.228-8.228,8.228h-25.716c-4.535,0-8.228-3.682-8.228-8.228
		v-25.716c0-4.535,3.692-8.228,8.228-8.228h25.716C327.781,365.365,331.464,369.058,331.464,373.593z"/>
	<path style="fill:#1A6FB0;" d="M399.061,437.528v25.706c0,4.545-3.682,8.228-8.218,8.228h-25.716c-4.545,0-8.228-3.682-8.228-8.228
		v-25.706c0-4.545,3.682-8.228,8.228-8.228h25.716C395.378,429.3,399.061,432.982,399.061,437.528z"/>
	<path style="fill:#1A6FB0;" d="M331.464,437.528v25.706c0,4.545-3.682,8.228-8.228,8.228h-25.716c-4.535,0-8.228-3.682-8.228-8.228
		v-25.706c0-4.545,3.692-8.228,8.228-8.228h25.716C327.781,429.3,331.464,432.982,331.464,437.528z"/>
</g>
<path style="fill:#C70024;" d="M466.668,377.526v79.908c0,7.746-6.281,14.027-14.027,14.027h-14.107
	c-7.746,0-14.027-6.281-14.027-14.027V444.25c0,0,0-0.06,0-0.191v-66.463c0-6.753,5.468-12.231,12.221-12.231h17.72
	C461.179,365.365,466.628,370.803,466.668,377.526z"/>
<path style="fill:#96C8EF;" d="M466.668,287.734v27.533c0,9.803-7.937,17.74-17.74,17.74H307.031c-9.793,0-17.74-7.937-17.74-17.74
	v-27.533c0-9.803,7.947-17.74,17.74-17.74h141.897C458.731,269.995,466.668,277.931,466.668,287.734z"/>
<path style="fill:#D1E7F8;" d="M466.668,287.734v27.533c0,9.803-7.937,17.74-17.74,17.74H335.126c-9.793,0-17.74-7.937-17.74-17.74
	v-27.533c0-9.803,7.947-17.74,17.74-17.74h113.802C458.731,269.995,466.668,277.931,466.668,287.734z"/>
<path style="fill:#1A6FB0;" d="M399.061,373.593v25.716c0,4.545-3.682,8.228-8.218,8.228h-25.716c-4.545,0-8.228-3.682-8.228-8.228
	v-25.716c0-4.535,3.682-8.228,8.228-8.228h25.716C395.378,365.365,399.061,369.058,399.061,373.593z"/>
<g>
	<path style="fill:#1E81CE;" d="M331.464,373.593v12.331c0,4.545-3.682,8.228-8.228,8.228h-25.716c-4.535,0-8.228-3.682-8.228-8.228
		v-12.331c0-4.535,3.692-8.228,8.228-8.228h25.716C327.781,365.365,331.464,369.058,331.464,373.593z"/>
	<path style="fill:#1E81CE;" d="M399.061,437.528v12.331c0,4.545-3.682,8.228-8.218,8.228h-25.716c-4.545,0-8.228-3.682-8.228-8.228
		v-12.331c0-4.545,3.682-8.228,8.228-8.228h25.716C395.378,429.3,399.061,432.982,399.061,437.528z"/>
	<path style="fill:#1E81CE;" d="M331.464,437.528v12.331c0,4.545-3.682,8.228-8.228,8.228h-25.716c-4.535,0-8.228-3.682-8.228-8.228
		v-12.331c0-4.545,3.692-8.228,8.228-8.228h25.716C327.781,429.3,331.464,432.982,331.464,437.528z"/>
</g>
<path style="fill:#FF0C38;" d="M466.668,377.526v66.534c0,7.746-6.281,14.027-14.027,14.027h-14.107
	c-7.746,0-14.027-6.281-14.027-14.027v-66.463c0-6.753,5.468-12.231,12.221-12.231h17.72
	C461.179,365.365,466.628,370.803,466.668,377.526z"/>
<path style="fill:#1E81CE;" d="M399.061,373.593v12.331c0,4.545-3.682,8.228-8.218,8.228h-25.716c-4.545,0-8.228-3.682-8.228-8.228
	v-12.331c0-4.535,3.682-8.228,8.228-8.228h25.716C395.378,365.365,399.061,369.058,399.061,373.593z"/>
<path d="M130.487,171.511h45.483c4.157,0,7.525-3.369,7.525-7.525s-3.368-7.525-7.525-7.525h-45.483
	c-4.157,0-7.525,3.369-7.525,7.525S126.33,171.511,130.487,171.511z"/>
<path d="M206.071,171.511h164.553c4.157,0,7.525-3.369,7.525-7.525s-3.368-7.525-7.525-7.525H206.071
	c-4.157,0-7.525,3.369-7.525,7.525S201.914,171.511,206.071,171.511z"/>
<path d="M130.487,222.681h45.483c4.157,0,7.525-3.369,7.525-7.525s-3.368-7.525-7.525-7.525h-45.483
	c-4.157,0-7.525,3.369-7.525,7.525S126.33,222.681,130.487,222.681z"/>
<path d="M206.071,222.681h164.553c4.157,0,7.525-3.369,7.525-7.525s-3.368-7.525-7.525-7.525H206.071
	c-4.157,0-7.525,3.369-7.525,7.525S201.914,222.681,206.071,222.681z"/>
<path d="M175.971,258.797h-45.483c-4.154,0-7.525,3.371-7.525,7.525s3.371,7.525,7.525,7.525h45.483
	c4.154,0,7.525-3.371,7.525-7.525S180.125,258.797,175.971,258.797z"/>
<path d="M130.487,325.359h85.283c4.157,0,7.525-3.369,7.525-7.525c0-4.156-3.368-7.525-7.525-7.525h-85.283
	c-4.157,0-7.525,3.369-7.525,7.525C122.962,321.989,126.33,325.359,130.487,325.359z"/>
<path d="M215.771,412.315h-85.283c-4.157,0-7.525,3.369-7.525,7.525c0,4.156,3.368,7.525,7.525,7.525h85.283
	c4.157,0,7.525-3.369,7.525-7.525C223.296,415.684,219.927,412.315,215.771,412.315z"/>
<path d="M215.772,361.811h-85.285c-4.157,0-7.525,3.369-7.525,7.525c0,4.156,3.368,7.525,7.525,7.525h85.285
	c4.157,0,7.525-3.369,7.525-7.525C223.297,365.181,219.928,361.811,215.772,361.811z"/>
<path d="M449.46,230.352h-34.646v-97.538c23.399-4.274,41.188-24.813,41.188-49.416V49.334c0-26.381-21.331-48.453-48.714-48.453
	H132.405c-27.603,0-50.048,22.455-50.048,50.048V378.38H39.179C17.576,378.38,0,395.955,0,417.557v45.102
	c0,26.658,21.837,49.382,50.65,48.407c0.691,0.076,391.223,0.049,398.81,0.048c34.486,0,62.54-28.054,62.54-62.54V292.881
	C512,258.406,483.946,230.352,449.46,230.352z M407.559,15.951c18.531,0,33.392,15.085,33.392,33.382v34.064
	c0,16.275-11.107,30.001-26.138,33.994c-2.88,0.773-5.91,1.184-9.04,1.184c-9.541,0-182.264,0-190.4,0
	c-19.395,0-35.178-15.783-35.178-35.178V49.334c0-12.843-5.047-24.653-13.365-33.392C166.935,15.941,407.661,15.971,407.559,15.951z
	 M48.449,496.058c-18.416,0-33.398-14.982-33.398-33.398v-45.102c0-13.304,10.823-24.127,24.128-24.127h43.183
	c0,0.024,0,0.044,0,0.064c0,0.01,0,0.023,0,0.033c0,0.012,0,0.021,0,0.036c0,0.018,0,0.036,0,0.05c0,0.002,0,0.006,0,0.008
	c0.001,1.377,0.005,11.5,0.032,69.037C82.394,480.386,68.309,496.058,48.449,496.058z M84.072,496.064
	c8.37-8.786,13.385-20.667,13.385-33.402c-0.004-31.827-0.049-404.763-0.05-411.733c0-19.295,15.693-34.998,34.998-34.998
	c1.618,0,32.74,3.216,32.74,33.402v34.064c0,27.693,22.536,50.229,50.229,50.229h184.389v96.725H306.5
	c-21.914,0-41.239,11.328-52.406,28.446h-48.021c-4.154,0-7.525,3.371-7.525,7.525s3.371,7.525,7.525,7.525h40.857
	c-1.926,6-2.97,12.402-2.97,19.034v155.693c0,18.984,8.499,36.011,21.894,47.49L84.072,496.064L84.072,496.064z M496.949,448.575
	c0,26.188-21.302,47.49-47.49,47.49h-51.102H306.5c-26.178,0-47.49-21.302-47.49-47.49V292.882c0-13.002,5.32-25.248,14.469-34.085
	c8.549-8.288,20.198-13.395,33.021-13.395c51.057,0,93.495,0,142.96,0c26.188,0,47.49,21.302,47.49,47.48L496.949,448.575
	L496.949,448.575z"/>
<path d="M399.763,360.629c-6.615-4.601-11.227-2.043-34.636-2.789c-8.689,0-15.753,7.074-15.753,15.753v25.716
	c0,8.679,7.064,15.753,15.753,15.753h25.716c3.311,0,6.381-1.023,8.92-2.789c4.114-2.84,6.823-7.596,6.823-12.964v-25.716
	C406.586,368.225,403.877,363.469,399.763,360.629z M391.535,399.309c0,0.381-0.311,0.702-0.692,0.702h-25.716
	c-0.381,0-0.702-0.321-0.702-0.702v-25.716c0-0.381,0.321-0.702,0.702-0.702h25.716c0.381,0,0.692,0.321,0.692,0.702V399.309z"/>
<path d="M448.928,262.47c-13.992,0-109.068,0-141.897,0c-8.8,0-16.566,4.525-21.091,11.378c-2.629,3.983-4.164,8.759-4.164,13.887
	v27.533c0,13.937,11.328,25.265,25.255,25.265c17.138,0,124.629,0,141.897,0c13.937,0,25.265-11.328,25.265-25.265v-27.533
	C474.193,273.798,462.865,262.47,448.928,262.47z M459.142,315.267c0,5.639-4.575,10.214-10.214,10.214
	c-17.268,0-124.759,0-141.897,0c-5.629,0-10.204-4.575-10.204-10.214v-27.533c0-5.629,4.575-10.214,10.204-10.214
	c47.622,0,94.773,0,141.897,0c5.639,0,10.214,4.585,10.214,10.214L459.142,315.267L459.142,315.267z"/>
<path d="M323.236,357.84h-25.716c-8.679,0-15.743,7.074-15.743,15.753v25.716c0,8.679,7.064,15.753,15.743,15.753h25.716
	c8.679,0,15.753-7.074,15.753-15.753v-25.716C338.989,364.914,331.915,357.84,323.236,357.84z M323.938,399.309
	c0,0.381-0.321,0.702-0.702,0.702h-25.716c-0.381,0-0.692-0.321-0.692-0.702v-25.716c0-0.381,0.311-0.702,0.692-0.702h25.716
	c0.381,0,0.702,0.321,0.702,0.702V399.309z"/>
<path d="M399.763,424.554c-2.539-1.756-5.609-2.779-8.92-2.779h-25.716c-8.689,0-15.753,7.064-15.753,15.753v25.706
	c0,8.689,7.064,15.753,15.753,15.753h25.716c0.833,0,1.646-0.06,2.448-0.191c7.515-1.174,13.295-7.706,13.295-15.562v-25.706
	C406.586,432.15,403.877,427.394,399.763,424.554z M391.535,463.234c0,0.391-0.311,0.702-0.692,0.702h-25.716
	c-0.381,0-0.702-0.311-0.702-0.702v-25.706c0-0.391,0.321-0.702,0.702-0.702h25.716c0.381,0,0.692,0.311,0.692,0.702V463.234z"/>
<path d="M323.236,421.775h-25.716c-8.679,0-15.743,7.064-15.743,15.753v25.706c0,8.689,7.064,15.753,15.743,15.753h25.716
	c8.679,0,15.753-7.064,15.753-15.753v-25.706C338.989,428.838,331.915,421.775,323.236,421.775z M323.938,463.234
	c0,0.391-0.321,0.702-0.702,0.702h-25.716c-0.381,0-0.692-0.311-0.692-0.702v-25.706c0-0.391,0.311-0.702,0.692-0.702h25.716
	c0.381,0,0.702,0.311,0.702,0.702V463.234z"/>
<path d="M454.447,357.84h-17.72c-10.887,0-19.746,8.86-19.746,19.756v79.838c0,11.89,9.673,21.552,21.552,21.552h14.107
	c11.88,0,21.552-9.662,21.552-21.552v-79.838C474.193,366.7,465.333,357.84,454.447,357.84z M459.142,457.434
	c0,3.582-2.92,6.502-6.502,6.502h-14.107c-3.582,0-6.502-2.92-6.502-6.502v-79.838c0-2.599,2.107-4.706,4.696-4.706h17.72
	c2.589,0,4.696,2.107,4.696,4.706L459.142,457.434L459.142,457.434z"/>
<g>
</g>
<g>
</g>
<g>
</g>
<g>
</g>
<g>
</g>
<g>
</g>
<g>
</g>
<g>
</g>
<g>
</g>
<g>
</g>
<g>
</g>
<g>
</g>
<g>
</g>
<g>
</g>
<g>
</g>
</svg>
