<svg id="Capa_1" enable-background="new 0 0 512 512" height="512" viewBox="0 0 512 512" width="512" xmlns="http://www.w3.org/2000/svg"><g><g><path d="m338.5 395.511-282.096-1.011c-5.523 0-10-4.477-10-10l-2.404-364.989c0-5.523 4.477-10 10-10l1.5-2.011h283c5.523 0 10 4.477 10 10v371c0 5.523-4.477 7.011-10 7.011z" fill="#f8f7f7"/><path d="m348.5 384.5v4c0 5.523-4.477 10-10 10h-287c-5.523 0-10-4.477-10-10v-371c0-5.523 4.477-10 10-10h4v365c0 6.627 5.373 12 12 12z" fill="#e8e8e8"/><path d="m481.509 504.5h-205.018c-5.518 0-9.991-4.473-9.991-9.991v-289.018c0-5.518 4.473-9.991 9.991-9.991h205.017c5.518 0 9.991 4.473 9.991 9.991v289.017c.001 5.519-4.472 9.992-9.99 9.992z" fill="#857e87"/><path d="m480.617 503.17-199.787-2.213c-5.518 0-9.991-4.473-9.991-9.991l-3.158-284.711c0-5.518 4.473-9.991 9.991-9.991l2.828-.764h201.009c5.518 0 9.991 4.473 9.991 9.991v285.009l-.892 2.679c0 5.518-4.473 9.991-9.991 9.991z" fill="#857e87"/><path d="m491.5 490.5v4.01c0 5.517-4.473 9.99-9.99 9.99h-205.02c-5.517 0-9.99-4.473-9.99-9.99v-289.02c0-5.517 4.473-9.99 9.99-9.99h4.01v282c0 7.18 5.82 13 13 13z" fill="#6f6571"/><path d="m457.5 282.5h-157c-2.209 0-4-1.791-4-4v-49c0-2.209 1.791-4 4-4h157c2.209 0 4 1.791 4 4v49c0 2.209-1.791 4-4 4z" fill="#afefa5"/><g fill="#6f6571"><path d="m327.5 344.5h-27c-2.209 0-4-1.791-4-4v-27c0-2.209 1.791-4 4-4h27c2.209 0 4 1.791 4 4v27c0 2.209-1.791 4-4 4z"/><path d="m392.5 344.5h-27c-2.209 0-4-1.791-4-4v-27c0-2.209 1.791-4 4-4h27c2.209 0 4 1.791 4 4v27c0 2.209-1.791 4-4 4z"/><path d="m327.5 409.5h-27c-2.209 0-4-1.791-4-4v-27c0-2.209 1.791-4 4-4h27c2.209 0 4 1.791 4 4v27c0 2.209-1.791 4-4 4z"/><path d="m392.5 409.5h-27c-2.209 0-4-1.791-4-4v-27c0-2.209 1.791-4 4-4h27c2.209 0 4 1.791 4 4v27c0 2.209-1.791 4-4 4z"/><path d="m327.5 474.5h-27c-2.209 0-4-1.791-4-4v-27c0-2.209 1.791-4 4-4h27c2.209 0 4 1.791 4 4v27c0 2.209-1.791 4-4 4z"/><path d="m392.5 474.5h-27c-2.209 0-4-1.791-4-4v-27c0-2.209 1.791-4 4-4h27c2.209 0 4 1.791 4 4v27c0 2.209-1.791 4-4 4z"/><path d="m457.5 474.5h-27c-2.209 0-4-1.791-4-4v-27c0-2.209 1.791-4 4-4h27c2.209 0 4 1.791 4 4v27c0 2.209-1.791 4-4 4z"/></g><path d="m457.5 409.5h-27c-2.209 0-4-1.791-4-4v-92c0-2.209 1.791-4 4-4h27c2.209 0 4 1.791 4 4v92c0 2.209-1.791 4-4 4z" fill="#ffe07d"/></g><g><path d="m20.5 140.5c-4.143 0-7.5 3.358-7.5 7.5s3.357 7.5 7.5 7.5h13.5v26.5c0 4.142 3.357 7.5 7.5 7.5s7.5-3.358 7.5-7.5v-26.5h12.5c4.143 0 7.5-3.358 7.5-7.5s-3.357-7.5-7.5-7.5h-12.5v-15h12.5c4.143 0 7.5-3.358 7.5-7.5s-3.357-7.5-7.5-7.5h-12.5v-15h12.5c4.143 0 7.5-3.358 7.5-7.5s-3.357-7.5-7.5-7.5h-12.5v-15h12.5c4.143 0 7.5-3.358 7.5-7.5s-3.357-7.5-7.5-7.5h-12.5v-33c0-1.378 1.121-2.5 2.5-2.5h123.25c4.143 0 7.5-3.358 7.5-7.5s-3.357-7.5-7.5-7.5h-123.25c-9.649 0-17.5 7.851-17.5 17.5v33h-13.5c-4.143 0-7.5 3.358-7.5 7.5s3.357 7.5 7.5 7.5h13.5v15h-13.5c-4.143 0-7.5 3.358-7.5 7.5s3.357 7.5 7.5 7.5h13.5v15h-13.5c-4.143 0-7.5 3.358-7.5 7.5s3.357 7.5 7.5 7.5h13.5v15z"/><path d="m491.5 325.075c4.143 0 7.5-3.358 7.5-7.5v-112.084c0-9.645-7.847-17.491-17.491-17.491h-125.509v-170.5c0-9.649-7.851-17.5-17.5-17.5h-128.75c-4.143 0-7.5 3.358-7.5 7.5s3.357 7.5 7.5 7.5h128.75c1.379 0 2.5 1.122 2.5 2.5v170.5h-64.509c-9.645 0-17.491 7.847-17.491 17.491v23.951h-152.998c-4.143 0-7.5 3.358-7.5 7.5s3.357 7.5 7.5 7.5h152.998v146.558h-207.5c-1.379 0-2.5-1.122-2.5-2.5v-33h12.5c4.143 0 7.5-3.358 7.5-7.5s-3.357-7.5-7.5-7.5h-12.5v-15h12.5c4.143 0 7.5-3.358 7.5-7.5s-3.357-7.5-7.5-7.5h-12.5v-15h12.5c4.143 0 7.5-3.358 7.5-7.5s-3.357-7.5-7.5-7.5h-12.5v-15h12.5c4.143 0 7.5-3.358 7.5-7.5s-3.357-7.5-7.5-7.5h-12.5v-33.5c0-4.142-3.357-7.5-7.5-7.5s-7.5 3.358-7.5 7.5v33.5h-13.5c-4.143 0-7.5 3.358-7.5 7.5s3.357 7.5 7.5 7.5h13.5v15h-13.5c-4.143 0-7.5 3.358-7.5 7.5s3.357 7.5 7.5 7.5h13.5v15h-13.5c-4.143 0-7.5 3.358-7.5 7.5s3.357 7.5 7.5 7.5h13.5v15h-13.5c-4.143 0-7.5 3.358-7.5 7.5s3.357 7.5 7.5 7.5h13.5v33c0 9.649 7.851 17.5 17.5 17.5h207.5v88.509c0 9.645 7.847 17.491 17.491 17.491h205.018c9.645 0 17.491-7.847 17.491-17.491v-141.934c0-4.142-3.357-7.5-7.5-7.5s-7.5 3.358-7.5 7.5v141.934c0 1.374-1.117 2.491-2.491 2.491h-205.018c-1.374 0-2.491-1.118-2.491-2.491v-289.018c0-1.374 1.117-2.491 2.491-2.491h205.018c1.374 0 2.491 1.118 2.491 2.491v112.084c0 4.142 3.357 7.5 7.5 7.5z"/><path d="m469 225.5c0-4.142-3.357-7.5-7.5-7.5h-55.287c-4.143 0-7.5 3.358-7.5 7.5s3.357 7.5 7.5 7.5h47.787v42h-150v-42h67.213c4.143 0 7.5-3.358 7.5-7.5s-3.357-7.5-7.5-7.5h-74.713c-4.143 0-7.5 3.358-7.5 7.5v57c0 4.142 3.357 7.5 7.5 7.5h165c4.143 0 7.5-3.358 7.5-7.5z"/><path d="m339 309.5c0-4.142-3.357-7.5-7.5-7.5h-35c-4.143 0-7.5 3.358-7.5 7.5v35c0 4.142 3.357 7.5 7.5 7.5h35c4.143 0 7.5-3.358 7.5-7.5zm-15 27.5h-20v-20h20z"/><path d="m404 309.5c0-4.142-3.357-7.5-7.5-7.5h-35c-4.143 0-7.5 3.358-7.5 7.5v35c0 4.142 3.357 7.5 7.5 7.5h35c4.143 0 7.5-3.358 7.5-7.5zm-15 27.5h-20v-20h20z"/><path d="m339 374.5c0-4.142-3.357-7.5-7.5-7.5h-35c-4.143 0-7.5 3.358-7.5 7.5v35c0 4.142 3.357 7.5 7.5 7.5h35c4.143 0 7.5-3.358 7.5-7.5zm-15 27.5h-20v-20h20z"/><path d="m404 374.5c0-4.142-3.357-7.5-7.5-7.5h-35c-4.143 0-7.5 3.358-7.5 7.5v35c0 4.142 3.357 7.5 7.5 7.5h35c4.143 0 7.5-3.358 7.5-7.5zm-15 27.5h-20v-20h20z"/><path d="m331.5 432h-35c-4.143 0-7.5 3.358-7.5 7.5v35c0 4.142 3.357 7.5 7.5 7.5h35c4.143 0 7.5-3.358 7.5-7.5v-35c0-4.142-3.357-7.5-7.5-7.5zm-7.5 35h-20v-20h20z"/><path d="m396.5 432h-35c-4.143 0-7.5 3.358-7.5 7.5v35c0 4.142 3.357 7.5 7.5 7.5h35c4.143 0 7.5-3.358 7.5-7.5v-35c0-4.142-3.357-7.5-7.5-7.5zm-7.5 35h-20v-20h20z"/><path d="m461.5 432h-35c-4.143 0-7.5 3.358-7.5 7.5v35c0 4.142 3.357 7.5 7.5 7.5h35c4.143 0 7.5-3.358 7.5-7.5v-35c0-4.142-3.357-7.5-7.5-7.5zm-7.5 35h-20v-20h20z"/><path d="m469 309.5c0-4.142-3.357-7.5-7.5-7.5h-35c-4.143 0-7.5 3.358-7.5 7.5v100c0 4.142 3.357 7.5 7.5 7.5h35c4.143 0 7.5-3.358 7.5-7.5zm-15 92.5h-20v-85h20z"/><path d="m431.5 261c4.143 0 7.5-3.358 7.5-7.5s-3.357-7.5-7.5-7.5h-31c-4.143 0-7.5 3.358-7.5 7.5s3.357 7.5 7.5 7.5z"/><path d="m129 53h-5v-5c0-4.142-3.357-7.5-7.5-7.5s-7.5 3.358-7.5 7.5v5h-5c-4.143 0-7.5 3.358-7.5 7.5s3.357 7.5 7.5 7.5h5v5c0 4.142 3.357 7.5 7.5 7.5s7.5-3.358 7.5-7.5v-5h5c4.143 0 7.5-3.358 7.5-7.5s-3.357-7.5-7.5-7.5z"/><path d="m136.5 120.5c0-4.142-3.357-7.5-7.5-7.5h-5v-5c0-4.142-3.357-7.5-7.5-7.5s-7.5 3.358-7.5 7.5v5h-5c-4.143 0-7.5 3.358-7.5 7.5s3.357 7.5 7.5 7.5h5v5c0 4.142 3.357 7.5 7.5 7.5s7.5-3.358 7.5-7.5v-5h5c4.143 0 7.5-3.358 7.5-7.5z"/><path d="m106.5 173c-4.143 0-7.5 3.358-7.5 7.5s3.357 7.5 7.5 7.5h20c4.143 0 7.5-3.358 7.5-7.5s-3.357-7.5-7.5-7.5z"/><path d="m266 40h-106c-4.143 0-7.5 3.358-7.5 7.5s3.357 7.5 7.5 7.5h106c4.143 0 7.5-3.358 7.5-7.5s-3.357-7.5-7.5-7.5z"/><path d="m264.5 80c4.143 0 7.5-3.358 7.5-7.5s-3.357-7.5-7.5-7.5h-30c-4.143 0-7.5 3.358-7.5 7.5s3.357 7.5 7.5 7.5z"/><path d="m204.5 65h-43c-4.143 0-7.5 3.358-7.5 7.5s3.357 7.5 7.5 7.5h43c4.143 0 7.5-3.358 7.5-7.5s-3.357-7.5-7.5-7.5z"/><path d="m294.5 55h19c4.143 0 7.5-3.358 7.5-7.5s-3.357-7.5-7.5-7.5h-19c-4.143 0-7.5 3.358-7.5 7.5s3.357 7.5 7.5 7.5z"/><path d="m160 115h29.5c4.143 0 7.5-3.358 7.5-7.5s-3.357-7.5-7.5-7.5h-29.5c-4.143 0-7.5 3.358-7.5 7.5s3.357 7.5 7.5 7.5z"/><path d="m154 132.5c0 4.142 3.357 7.5 7.5 7.5h103c4.143 0 7.5-3.358 7.5-7.5s-3.357-7.5-7.5-7.5h-103c-4.143 0-7.5 3.358-7.5 7.5z"/><path d="m294.5 115h19c4.143 0 7.5-3.358 7.5-7.5s-3.357-7.5-7.5-7.5h-19c-4.143 0-7.5 3.358-7.5 7.5s3.357 7.5 7.5 7.5z"/><path d="m294.5 175h19c4.143 0 7.5-3.358 7.5-7.5s-3.357-7.5-7.5-7.5h-19c-4.143 0-7.5 3.358-7.5 7.5s3.357 7.5 7.5 7.5z"/><path d="m273.5 167.5c0-4.142-3.357-7.5-7.5-7.5h-106c-4.143 0-7.5 3.358-7.5 7.5s3.357 7.5 7.5 7.5h106c4.143 0 7.5-3.358 7.5-7.5z"/><path d="m161.5 185c-4.143 0-7.5 3.358-7.5 7.5s3.357 7.5 7.5 7.5h43c4.143 0 7.5-3.358 7.5-7.5s-3.357-7.5-7.5-7.5z"/><path d="m138.5 322c4.143 0 7.5-3.358 7.5-7.5s-3.357-7.5-7.5-7.5h-17c-4.143 0-7.5 3.358-7.5 7.5s3.357 7.5 7.5 7.5z"/><path d="m181.314 330.073c-4.191 0-5.688-.601-9.031-2.785-3.468-2.267-8.116-1.292-10.381 2.176-2.266 3.468-1.292 8.115 2.176 10.381 3.803 2.485 6.814 3.719 10.103 4.3v1.415c0 4.142 3.357 7.5 7.5 7.5s7.5-3.358 7.5-7.5v-2.464c6.797-2.691 11.939-8.752 13.212-16.33 1.627-9.686-3.619-18.432-13.054-21.764-1.755-.62-3.333-1.089-4.725-1.503-3.668-1.091-4.996-1.54-6.166-2.933-.747-1.047-.606-4.482 2.216-6.086 2.565-1.313 5.656 1.143 5.999 1.426 3.192 2.638 7.92 2.189 10.56-1.005 2.638-3.193 2.188-7.92-1.005-10.559-1.95-1.611-4.357-3.051-7.037-4.018v-1.162c0-4.142-3.357-7.5-7.5-7.5s-7.5 3.358-7.5 7.5v1.805c-4.596 2.125-9.398 7.622-10.684 13.98-1.139 5.618.155 11.323 3.463 15.263 4.79 5.412 10.313 6.754 17.385 8.936 2.579.911 3.564 2.622 3.256 5.135-.318 2.593-2.027 5.764-6.287 5.792z"/></g></g></svg>