<?xml version="1.0" encoding="iso-8859-1"?>
<!-- Generator: Adobe Illustrator 19.0.0, SVG Export Plug-In . SVG Version: 6.00 Build 0)  -->
<svg version="1.1" id="Layer_1" xmlns="http://www.w3.org/2000/svg" xmlns:xlink="http://www.w3.org/1999/xlink" x="0px" y="0px"
	 viewBox="0 0 512 512" style="enable-background:new 0 0 512 512;" xml:space="preserve">
<path style="fill:#C1C1C1;" d="M200.348,0h267.13C492.066,0,512,19.933,512,44.522v422.957C512,492.066,492.066,512,467.478,512
	h-267.13c-24.588,0-44.522-19.933-44.522-44.522V44.522C155.826,19.933,175.76,0,200.348,0z"/>
<path style="fill:#6583B7;" d="M445.217,77.913v155.826c0,6.147-4.983,11.13-11.13,11.13H233.739c-6.147,0-11.13-4.983-11.13-11.13
	V77.913c0-6.147,4.983-11.13,11.13-11.13h200.348C440.234,66.783,445.217,71.766,445.217,77.913z"/>
<path style="fill:#819AD1;" d="M445.217,77.913v77.913H222.609V77.913c0-6.147,4.983-11.13,11.13-11.13h200.348
	C440.234,66.783,445.217,71.766,445.217,77.913z"/>
<path style="fill:#FE5A3A;" d="M261.565,456.348h-33.391c-6.147,0-11.13-4.983-11.13-11.13v-11.13c0-6.147,4.983-11.13,11.13-11.13
	h33.391c6.147,0,11.13,4.983,11.13,11.13v11.13C272.696,451.365,267.713,456.348,261.565,456.348z"/>
<path style="fill:#FEE66B;" d="M350.609,456.348h-33.391c-6.147,0-11.13-4.983-11.13-11.13v-11.13c0-6.147,4.983-11.13,11.13-11.13
	h33.391c6.147,0,11.13,4.983,11.13,11.13v11.13C361.739,451.365,356.756,456.348,350.609,456.348z"/>
<path style="fill:#81BC82;" d="M439.652,456.348h-33.391c-6.147,0-11.13-4.983-11.13-11.13v-11.13c0-6.147,4.983-11.13,11.13-11.13
	h33.391c6.147,0,11.13,4.983,11.13,11.13v11.13C450.783,451.365,445.799,456.348,439.652,456.348z"/>
<path style="fill:#848484;" d="M272.696,367.304v11.13c0,6.147-4.983,11.13-11.13,11.13h-33.391c-6.147,0-11.13-4.983-11.13-11.13
	v-11.13c0-6.147,4.983-11.13,11.13-11.13h33.391C267.713,356.174,272.696,361.157,272.696,367.304z M350.609,356.174h-33.391
	c-6.147,0-11.13,4.983-11.13,11.13v11.13c0,6.147,4.983,11.13,11.13,11.13h33.391c6.147,0,11.13-4.983,11.13-11.13v-11.13
	C361.739,361.157,356.756,356.174,350.609,356.174z M439.652,356.174h-33.391c-6.147,0-11.13,4.983-11.13,11.13v11.13
	c0,6.147,4.983,11.13,11.13,11.13h33.391c6.147,0,11.13-4.983,11.13-11.13v-11.13C450.783,361.157,445.799,356.174,439.652,356.174z
	 M261.565,289.391h-33.391c-6.147,0-11.13,4.983-11.13,11.13v11.13c0,6.147,4.983,11.13,11.13,11.13h33.391
	c6.147,0,11.13-4.983,11.13-11.13v-11.13C272.696,294.374,267.713,289.391,261.565,289.391z M350.609,289.391h-33.391
	c-6.147,0-11.13,4.983-11.13,11.13v11.13c0,6.147,4.983,11.13,11.13,11.13h33.391c6.147,0,11.13-4.983,11.13-11.13v-11.13
	C361.739,294.374,356.756,289.391,350.609,289.391z M439.652,289.391h-33.391c-6.147,0-11.13,4.983-11.13,11.13v11.13
	c0,6.147,4.983,11.13,11.13,11.13h33.391c6.147,0,11.13-4.983,11.13-11.13v-11.13C450.783,294.374,445.799,289.391,439.652,289.391z
	"/>
<path style="fill:#FE5A3A;" d="M367.304,30.609v183.652c0,16.905-13.704,30.609-30.609,30.609H30.609
	C13.704,244.87,0,231.166,0,214.261V30.609C0,13.704,13.704,0,30.609,0h306.087C353.601,0,367.304,13.704,367.304,30.609z"/>
<path style="fill:#FE7D49;" d="M367.304,30.609v56.626H0V30.609C0,13.704,13.704,0,30.609,0h306.087
	C353.601,0,367.304,13.704,367.304,30.609z"/>
<path style="fill:#A62C18;" d="M92.522,177.53c0,4.61-3.738,8.348-8.348,8.348H53.565c-4.61,0-8.348-3.738-8.348-8.348
	s3.738-8.348,8.348-8.348h30.609C88.784,169.183,92.522,172.92,92.522,177.53z M160.696,169.183h-30.609
	c-4.61,0-8.348,3.738-8.348,8.348s3.738,8.348,8.348,8.348h30.609c4.61,0,8.348-3.738,8.348-8.348S165.306,169.183,160.696,169.183z
	 M237.217,169.183h-30.609c-4.61,0-8.348,3.738-8.348,8.348s3.738,8.348,8.348,8.348h30.609c4.61,0,8.348-3.738,8.348-8.348
	S241.828,169.183,237.217,169.183z M313.739,169.183H283.13c-4.61,0-8.348,3.738-8.348,8.348s3.738,8.348,8.348,8.348h30.609
	c4.61,0,8.348-3.738,8.348-8.348S318.349,169.183,313.739,169.183z"/>
<path style="fill:#FED76E;" d="M137.913,62.513v49.444c0,4.981-4.037,9.018-9.017,9.018H62.582c-4.98,0-9.017-4.037-9.017-9.018
	V62.513c0-4.981,4.037-9.018,9.017-9.018h66.313C133.876,53.496,137.913,57.532,137.913,62.513z"/>
<path style="fill:#FEAF50;" d="M137.913,78.887v16.696h-25.304c-4.61,0-8.348-3.738-8.348-8.348s3.738-8.348,8.348-8.348H137.913z
	 M78.869,78.887H53.565v16.696h25.304c4.61,0,8.348-3.738,8.348-8.348S83.479,78.887,78.869,78.887z"/>
<path style="fill:#D4E8FF;" d="M255.304,87.235c0,4.61-3.738,8.348-8.348,8.348h-1.113c-4.61,0-8.348-3.738-8.348-8.348
	s3.738-8.348,8.348-8.348h1.113C251.567,78.887,255.304,82.625,255.304,87.235z M273.402,60.753
	c-3.988-2.31-9.097-0.951-11.409,3.039c-2.311,3.989-0.951,9.097,3.039,11.409C269.33,77.69,272,82.302,272,87.236
	s-2.669,9.545-6.968,12.035c-3.989,2.312-5.349,7.42-3.039,11.409c1.548,2.671,4.351,4.165,7.231,4.165
	c1.42,0,2.859-0.363,4.177-1.126c9.433-5.465,15.293-15.613,15.293-26.482S282.835,66.218,273.402,60.753z M295.659,41.46
	c-3.988-2.307-9.096-0.947-11.406,3.044c-2.31,3.99-0.947,9.097,3.044,11.406c11.16,6.459,18.094,18.462,18.094,31.325
	s-6.933,24.866-18.094,31.325c-3.99,2.31-5.354,7.416-3.044,11.406c1.547,2.675,4.351,4.168,7.233,4.168
	c1.419,0,2.857-0.363,4.174-1.124c16.302-9.433,26.428-26.973,26.428-45.775S311.96,50.893,295.659,41.46z"/>
<g>
</g>
<g>
</g>
<g>
</g>
<g>
</g>
<g>
</g>
<g>
</g>
<g>
</g>
<g>
</g>
<g>
</g>
<g>
</g>
<g>
</g>
<g>
</g>
<g>
</g>
<g>
</g>
<g>
</g>
</svg>
