<?xml version="1.0" encoding="iso-8859-1"?>
<!-- Generator: Adobe Illustrator 19.0.0, SVG Export Plug-In . SVG Version: 6.00 Build 0)  -->
<svg version="1.1" id="Layer_1" xmlns="http://www.w3.org/2000/svg" xmlns:xlink="http://www.w3.org/1999/xlink" x="0px" y="0px"
	 viewBox="0 0 512 512" style="enable-background:new 0 0 512 512;" xml:space="preserve">
<path style="fill:#C1C1C1;" d="M202.105,8.084H460.8c23.812,0,43.116,19.304,43.116,43.116v409.6
	c0,23.812-19.304,43.116-43.116,43.116H202.105c-23.812,0-43.116-19.304-43.116-43.116V51.2
	C158.989,27.388,178.293,8.084,202.105,8.084z"/>
<path style="fill:#6583B7;" d="M439.242,83.537v150.905c0,5.953-4.826,10.779-10.779,10.779H234.442
	c-5.953,0-10.779-4.826-10.779-10.779V83.537c0-5.953,4.826-10.779,10.779-10.779h194.021
	C434.416,72.758,439.242,77.584,439.242,83.537z"/>
<path style="fill:#819AD1;" d="M439.242,83.537v75.453H223.663V83.537c0-5.953,4.826-10.779,10.779-10.779h194.021
	C434.416,72.758,439.242,77.584,439.242,83.537z"/>
<path style="fill:#FE5A3A;" d="M261.389,450.021h-32.337c-5.953,0-10.779-4.826-10.779-10.779v-10.779
	c0-5.953,4.826-10.779,10.779-10.779h32.337c5.953,0,10.779,4.826,10.779,10.779v10.779
	C272.168,445.195,267.343,450.021,261.389,450.021z"/>
<path style="fill:#FEE66B;" d="M347.621,450.021h-32.337c-5.953,0-10.779-4.826-10.779-10.779v-10.779
	c0-5.953,4.826-10.779,10.779-10.779h32.337c5.953,0,10.779,4.826,10.779,10.779v10.779
	C358.4,445.195,353.574,450.021,347.621,450.021z"/>
<path style="fill:#81BC82;" d="M433.853,450.021h-32.337c-5.953,0-10.779-4.826-10.779-10.779v-10.779
	c0-5.953,4.826-10.779,10.779-10.779h32.337c5.953,0,10.779,4.826,10.779,10.779v10.779
	C444.632,445.195,439.806,450.021,433.853,450.021z"/>
<path style="fill:#848484;" d="M272.168,363.789v10.779c0,5.953-4.826,10.779-10.779,10.779h-32.337
	c-5.953,0-10.779-4.826-10.779-10.779v-10.779c0-5.953,4.826-10.779,10.779-10.779h32.337
	C267.343,353.01,272.168,357.836,272.168,363.789z M347.621,353.01h-32.337c-5.953,0-10.779,4.826-10.779,10.779v10.779
	c0,5.953,4.826,10.779,10.779,10.779h32.337c5.953,0,10.779-4.826,10.779-10.779v-10.779
	C358.4,357.836,353.574,353.01,347.621,353.01z M433.853,353.01h-32.337c-5.953,0-10.779,4.826-10.779,10.779v10.779
	c0,5.953,4.826,10.779,10.779,10.779h32.337c5.953,0,10.779-4.826,10.779-10.779v-10.779
	C444.632,357.836,439.806,353.01,433.853,353.01z M261.389,288.337h-32.337c-5.953,0-10.779,4.826-10.779,10.779v10.779
	c0,5.953,4.826,10.779,10.779,10.779h32.337c5.953,0,10.779-4.826,10.779-10.779v-10.779
	C272.168,293.163,267.343,288.337,261.389,288.337z M347.621,288.337h-32.337c-5.953,0-10.779,4.826-10.779,10.779v10.779
	c0,5.953,4.826,10.779,10.779,10.779h32.337c5.953,0,10.779-4.826,10.779-10.779v-10.779
	C358.4,293.163,353.574,288.337,347.621,288.337z M433.853,288.337h-32.337c-5.953,0-10.779,4.826-10.779,10.779v10.779
	c0,5.953,4.826,10.779,10.779,10.779h32.337c5.953,0,10.779-4.826,10.779-10.779v-10.779
	C444.632,293.163,439.806,288.337,433.853,288.337z"/>
<path style="fill:#FE5A3A;" d="M363.789,37.726v177.853c0,16.371-13.271,29.642-29.642,29.642H37.726
	c-16.371,0-29.642-13.271-29.642-29.642V37.726c0-16.371,13.271-29.642,29.642-29.642h296.421
	C350.518,8.084,363.789,21.355,363.789,37.726z"/>
<path style="fill:#FE7D49;" d="M363.789,37.726v54.838H8.084V37.726c0-16.371,13.271-29.642,29.642-29.642h296.421
	C350.518,8.084,363.789,21.355,363.789,37.726z"/>
<path style="fill:#FED76E;" d="M141.642,68.623v47.882c0,4.824-3.91,8.733-8.732,8.733H68.69c-4.822,0-8.732-3.91-8.732-8.733
	V68.623c0-4.824,3.91-8.733,8.732-8.733h64.219C137.732,59.891,141.642,63.8,141.642,68.623z"/>
<path d="M512,51.2v409.6c0,28.231-22.969,51.2-51.2,51.2H202.105c-28.231,0-51.2-22.969-51.2-51.2V277.558
	c0-4.466,3.62-8.084,8.084-8.084c4.465,0,8.084,3.618,8.084,8.084V460.8c0,19.317,15.716,35.032,35.032,35.032H460.8
	c19.316,0,35.032-15.715,35.032-35.032V51.2c0-19.317-15.716-35.032-35.032-35.032h-71.68c-4.465,0-8.084-3.618-8.084-8.084
	S384.654,0,389.12,0h71.68C489.031,0,512,22.969,512,51.2z M280.253,428.463v10.779c0,10.401-8.463,18.863-18.863,18.863h-32.337
	c-10.401,0-18.863-8.463-18.863-18.863v-10.779c0-10.401,8.463-18.863,18.863-18.863h32.337
	C271.79,409.6,280.253,418.063,280.253,428.463z M264.084,428.463c0-1.486-1.209-2.695-2.695-2.695h-32.337
	c-1.485,0-2.695,1.208-2.695,2.695v10.779c0,1.486,1.209,2.695,2.695,2.695h32.337c1.485,0,2.695-1.208,2.695-2.695V428.463z
	 M366.484,428.463v10.779c0,10.401-8.463,18.863-18.863,18.863h-32.337c-10.401,0-18.863-8.463-18.863-18.863v-10.779
	c0-10.401,8.463-18.863,18.863-18.863h32.337C358.022,409.6,366.484,418.063,366.484,428.463z M350.316,428.463
	c0-1.486-1.209-2.695-2.695-2.695h-32.337c-1.485,0-2.695,1.208-2.695,2.695v10.779c0,1.486,1.209,2.695,2.695,2.695h32.337
	c1.485,0,2.695-1.208,2.695-2.695V428.463z M452.716,428.463v10.779c0,10.401-8.463,18.863-18.863,18.863h-32.337
	c-10.401,0-18.863-8.463-18.863-18.863v-10.779c0-10.401,8.463-18.863,18.863-18.863h32.337
	C444.253,409.6,452.716,418.063,452.716,428.463z M436.547,428.463c0-1.486-1.209-2.695-2.695-2.695h-32.337
	c-1.485,0-2.695,1.208-2.695,2.695v10.779c0,1.486,1.209,2.695,2.695,2.695h32.337c1.485,0,2.695-1.208,2.695-2.695V428.463z
	 M280.253,374.568c0,10.401-8.463,18.863-18.863,18.863h-32.337c-10.401,0-18.863-8.463-18.863-18.863v-10.779
	c0-10.401,8.463-18.863,18.863-18.863h32.337c10.401,0,18.863,8.463,18.863,18.863V374.568z M264.084,363.789
	c0-1.486-1.209-2.695-2.695-2.695h-32.337c-1.485,0-2.695,1.208-2.695,2.695v10.779c0,1.486,1.209,2.695,2.695,2.695h32.337
	c1.485,0,2.695-1.208,2.695-2.695V363.789z M366.484,374.568c0,10.401-8.463,18.863-18.863,18.863h-32.337
	c-10.401,0-18.863-8.463-18.863-18.863v-10.779c0-10.401,8.463-18.863,18.863-18.863h32.337c10.401,0,18.863,8.463,18.863,18.863
	V374.568z M350.316,363.789c0-1.486-1.209-2.695-2.695-2.695h-32.337c-1.485,0-2.695,1.208-2.695,2.695v10.779
	c0,1.486,1.209,2.695,2.695,2.695h32.337c1.485,0,2.695-1.208,2.695-2.695V363.789z M452.716,374.568
	c0,10.401-8.463,18.863-18.863,18.863h-32.337c-10.401,0-18.863-8.463-18.863-18.863v-10.779c0-10.401,8.463-18.863,18.863-18.863
	h32.337c10.401,0,18.863,8.463,18.863,18.863V374.568z M436.547,363.789c0-1.486-1.209-2.695-2.695-2.695h-32.337
	c-1.485,0-2.695,1.208-2.695,2.695v10.779c0,1.486,1.209,2.695,2.695,2.695h32.337c1.485,0,2.695-1.208,2.695-2.695V363.789z
	 M280.253,309.895c0,10.401-8.463,18.863-18.863,18.863h-32.337c-10.401,0-18.863-8.463-18.863-18.863v-10.779
	c0-10.401,8.463-18.863,18.863-18.863h32.337c10.401,0,18.863,8.463,18.863,18.863V309.895z M264.084,299.116
	c0-1.486-1.209-2.695-2.695-2.695h-32.337c-1.485,0-2.695,1.208-2.695,2.695v10.779c0,1.486,1.209,2.695,2.695,2.695h32.337
	c1.485,0,2.695-1.208,2.695-2.695V299.116z M366.484,309.895c0,10.401-8.463,18.863-18.863,18.863h-32.337
	c-10.401,0-18.863-8.463-18.863-18.863v-10.779c0-10.401,8.463-18.863,18.863-18.863h32.337c10.401,0,18.863,8.463,18.863,18.863
	V309.895z M350.316,299.116c0-1.486-1.209-2.695-2.695-2.695h-32.337c-1.485,0-2.695,1.208-2.695,2.695v10.779
	c0,1.486,1.209,2.695,2.695,2.695h32.337c1.485,0,2.695-1.208,2.695-2.695V299.116z M452.716,309.895
	c0,10.401-8.463,18.863-18.863,18.863h-32.337c-10.401,0-18.863-8.463-18.863-18.863v-10.779c0-10.401,8.463-18.863,18.863-18.863
	h32.337c10.401,0,18.863,8.463,18.863,18.863V309.895z M436.547,299.116c0-1.486-1.209-2.695-2.695-2.695h-32.337
	c-1.485,0-2.695,1.208-2.695,2.695v10.779c0,1.486,1.209,2.695,2.695,2.695h32.337c1.485,0,2.695-1.208,2.695-2.695V299.116z
	 M428.463,237.137H389.12c-4.465,0-8.084,3.618-8.084,8.084c0,4.466,3.62,8.084,8.084,8.084h39.343
	c10.401,0,18.863-8.463,18.863-18.863V83.537c0-10.401-8.463-18.863-18.863-18.863h-34.493c-4.465,0-8.084,3.618-8.084,8.084
	c0,4.466,3.62,8.084,8.084,8.084h34.493c1.485,0,2.695,1.208,2.695,2.695v150.905C431.158,235.929,429.948,237.137,428.463,237.137z
	 M334.147,253.305H37.726C16.924,253.305,0,236.381,0,215.579V37.726C0,16.924,16.924,0,37.726,0h296.421
	c20.802,0,37.726,16.924,37.726,37.726v177.853C371.874,236.381,354.95,253.305,334.147,253.305z M37.726,237.137h296.421
	c11.887,0,21.558-9.671,21.558-21.558V37.726c0-11.887-9.671-21.558-21.558-21.558H37.726c-11.887,0-21.558,9.671-21.558,21.558
	v177.853C16.168,227.466,25.839,237.137,37.726,237.137z M89.6,171.924H59.958c-4.465,0-8.084,3.618-8.084,8.084
	c0,4.466,3.62,8.084,8.084,8.084H89.6c4.465,0,8.084-3.618,8.084-8.084C97.684,175.543,94.065,171.924,89.6,171.924z
	 M163.705,171.924h-29.642c-4.465,0-8.084,3.618-8.084,8.084c0,4.466,3.62,8.084,8.084,8.084h29.642
	c4.465,0,8.084-3.618,8.084-8.084C171.789,175.543,168.17,171.924,163.705,171.924z M237.811,171.924h-29.642
	c-4.465,0-8.084,3.618-8.084,8.084c0,4.466,3.62,8.084,8.084,8.084h29.642c4.465,0,8.084-3.618,8.084-8.084
	C245.895,175.543,242.275,171.924,237.811,171.924z M311.916,171.924h-29.642c-4.465,0-8.084,3.618-8.084,8.084
	c0,4.466,3.62,8.084,8.084,8.084h29.642c4.465,0,8.084-3.618,8.084-8.084C320,175.543,316.38,171.924,311.916,171.924z
	 M247.242,84.48h-1.078c-4.465,0-8.084,3.618-8.084,8.084c0,4.466,3.62,8.084,8.084,8.084h1.078c4.465,0,8.084-3.618,8.084-8.084
	C255.326,88.098,251.707,84.48,247.242,84.48z M287.663,92.564c0-10.527-5.675-20.353-14.81-25.645
	c-3.862-2.24-8.81-0.921-11.048,2.942c-2.238,3.863-0.921,8.81,2.943,11.047c4.162,2.411,6.748,6.878,6.748,11.655
	s-2.585,9.244-6.748,11.655c-3.863,2.238-5.18,7.184-2.943,11.047c1.499,2.587,4.214,4.032,7.003,4.032
	c1.375,0,2.769-0.351,4.045-1.091C281.988,112.917,287.663,103.091,287.663,92.564z M294.406,48.234
	c-3.862-2.236-8.809-0.917-11.046,2.947c-2.237,3.864-0.917,8.811,2.948,11.046c10.808,6.255,17.522,17.879,17.522,30.337
	c0,12.457-6.714,24.081-17.523,30.337c-3.864,2.237-5.184,7.182-2.947,11.046c1.499,2.589,4.213,4.036,7.004,4.036
	c1.374,0,2.767-0.35,4.042-1.089c15.787-9.137,25.592-26.123,25.592-44.331C320,74.355,310.193,57.37,294.406,48.234z
	 M51.874,116.505V68.623c0-9.273,7.544-16.817,16.817-16.817h64.219c9.273,0,16.817,7.544,16.817,16.817v47.882
	c0,9.273-7.544,16.817-16.817,16.817H68.691C59.418,133.323,51.874,125.777,51.874,116.505z M68.042,68.623V84.48h16.421
	c4.465,0,8.084,3.618,8.084,8.084c0,4.466-3.62,8.084-8.084,8.084H68.042v15.857c0,0.358,0.291,0.649,0.649,0.649h64.219
	c0.358,0,0.649-0.291,0.649-0.649v-15.857h-16.421c-4.465,0-8.084-3.618-8.084-8.084c0-4.466,3.62-8.084,8.084-8.084h16.421V68.623
	c0-0.358-0.291-0.649-0.649-0.649H68.691C68.333,67.975,68.042,68.265,68.042,68.623z"/>
<g>
</g>
<g>
</g>
<g>
</g>
<g>
</g>
<g>
</g>
<g>
</g>
<g>
</g>
<g>
</g>
<g>
</g>
<g>
</g>
<g>
</g>
<g>
</g>
<g>
</g>
<g>
</g>
<g>
</g>
</svg>
