<svg height="512pt" viewBox="0 0 512 512" width="512pt" xmlns="http://www.w3.org/2000/svg"><path d="m328.710938 94.421875h40.394531v40.394531h-40.394531zm0 0" fill="#495959"/><path d="m328.710938 94.421875v12.117187h17.167968c5.574219 0 10.097656 4.523438 10.097656 10.101563v18.175781h13.128907v-40.394531zm0 0" fill="#3f4a4a"/><path d="m256 374.152344h227.21875l-38.503906-222.582032c-1.675782-9.679687-10.078125-16.753906-19.902344-16.753906h-337.625c-9.824219 0-18.226562 7.074219-19.902344 16.753906l-38.503906 222.582032zm0 0" fill="#bce8f1"/><path d="m444.714844 151.570312c-1.675782-9.679687-10.078125-16.753906-19.902344-16.753906h-21.207031c9.824219 0 18.226562 7.074219 19.902343 16.753906l33.3125 192.585938c1.070313 6.171875-3.683593 11.820312-9.949218 11.820312h-190.871094s-217.957031 0-224.074219 0l-3.144531 18.175782h454.4375zm0 0" fill="#93dcfc"/><path d="m7.574219 374.152344h496.851562v100.988281h-496.851562zm0 0" fill="#495959"/><path d="m348.90625 475.140625-29.285156-29.285156h-128.253906l-29.285157 29.285156zm0 0" fill="#3f4a4a"/><path d="m484.230469 374.152344h20.195312v100.988281h-20.195312zm0 0" fill="#3f4a4a"/><path d="m462.011719 424.648438c0 11.152343-9.042969 20.195312-20.195313 20.195312-11.15625 0-20.199218-9.042969-20.199218-20.195312 0-11.15625 9.042968-20.199219 20.199218-20.199219 11.152344 0 20.195313 9.042969 20.195313 20.199219zm0 0" fill="#ffcd50"/><path d="m421.617188 475.140625h40.394531v29.285156h-40.394531zm0 0" fill="#3f4a4a"/><path d="m49.988281 475.140625h40.394531v29.285156h-40.394531zm0 0" fill="#3f4a4a"/><path d="m403.441406 222.675781h-135.324218c-5.578126 0-10.097657-4.523437-10.097657-10.101562v-36.351563c0-5.578125 4.519531-10.101562 10.097657-10.101562h135.324218c5.574219 0 10.097656 4.523437 10.097656 10.101562v36.351563c0 5.578125-4.523437 10.101562-10.097656 10.101562zm0 0" fill="#6dc54a"/><path d="m403.441406 166.121094h-19.1875c5.574219 0 10.097656 4.523437 10.097656 10.101562v36.351563c0 5.578125-4.519531 10.101562-10.097656 10.101562h19.1875c5.574219 0 10.097656-4.523437 10.097656-10.101562v-36.351563c0-5.578125-4.523437-10.101562-10.097656-10.101562zm0 0" fill="#5db33a"/><path d="m190.359375 101.492188-18.179687-18.179688-18.175782 18.179688-18.179687-18.179688-18.175781 18.179688-14.136719-14.140626v135.324219h100.984375v-135.324219zm0 0" fill="#ddf5ff"/><path d="m190.359375 101.492188v121.183593h14.136719v-135.324219zm0 0" fill="#c1e9f4"/><g fill="#ffcd50"><path d="m258.019531 248.929688h30.296875v30.296874h-30.296875zm0 0"/><path d="m320.632812 248.929688h30.292969v30.296874h-30.292969zm0 0"/><path d="m383.242188 248.929688h30.296874v30.296874h-30.296874zm0 0"/><path d="m258.019531 309.523438h30.296875v30.296874h-30.296875zm0 0"/><path d="m320.632812 309.523438h30.292969v30.296874h-30.292969zm0 0"/><path d="m383.242188 309.523438h30.296874v30.296874h-30.296874zm0 0"/></g><path d="m431.714844 94.421875h-165.617188c-5.574218 0-10.097656-4.519531-10.097656-10.097656v-66.652344c0-5.574219 4.519531-10.097656 10.097656-10.097656h165.617188c5.578125 0 10.101562 4.519531 10.101562 10.097656v66.652344c0 5.578125-4.523437 10.097656-10.101562 10.097656zm0 0" fill="#6dc54a"/><path d="m431.714844 7.574219h-7.066406v59.582031c0 5.578125-4.523438 10.097656-10.101563 10.097656h-158.546875v7.070313c0 5.578125 4.519531 10.097656 10.097656 10.097656h165.617188c5.578125 0 10.101562-4.519531 10.101562-10.097656v-66.652344c0-5.578125-4.523437-10.097656-10.101562-10.097656zm0 0" fill="#5db33a"/><path d="m504.425781 366.578125h-14.828125l-22.238281-128.535156c-.714844-4.121094-4.632813-6.882813-8.753906-6.171875-4.121094.710937-6.886719 4.632812-6.171875 8.753906l21.789062 125.957031h-323.722656c-4.183594 0-7.574219 3.390625-7.574219 7.574219s3.390625 7.574219 7.574219 7.574219h346.351562v85.835937h-144.804687l-27.070313-27.066406c-1.421874-1.421875-3.347656-2.21875-5.355468-2.21875h-128.253906c-2.007813 0-3.933594.796875-5.355469 2.21875l-27.066407 27.066406h-143.796874v-85.835937h99.976562c4.183594 0 7.574219-3.390625 7.574219-7.574219s-3.390625-7.574219-7.574219-7.574219h-77.347656l36.972656-213.71875c1.050781-6.070312 6.28125-10.472656 12.441406-10.472656h8.746094v72.710937h-1.515625c-4.183594 0-7.574219 3.390626-7.574219 7.574219 0 4.183594 3.390625 7.574219 7.574219 7.574219h119.164063c4.183593 0 7.574218-3.390625 7.574218-7.574219 0-4.183593-3.390625-7.574219-7.574218-7.574219h-1.515626v-72.710937h212.738282c6.160156 0 11.390625 4.40625 12.441406 10.46875l9.027344 52.171875c.636718 3.6875 3.835937 6.285156 7.453125 6.285156.429687 0 .863281-.035156 1.300781-.113281 4.121094-.710937 6.886719-4.632813 6.171875-8.753906l-9.023437-52.171875c-2.3125-13.347656-13.820313-23.035156-27.367188-23.035156h-48.132812v-25.246094h55.039062c9.746094 0 17.671875-7.929688 17.671875-17.671875v-66.652344c0-9.742187-7.929687-17.671875-17.675781-17.671875h-99.46875c-4.183594 0-7.574219 3.390625-7.574219 7.574219 0 4.183593 3.390625 7.574219 7.574219 7.574219h99.46875c1.394531 0 2.527344 1.132812 2.527344 2.523437v66.652344c0 1.390625-1.132813 2.523437-2.527344 2.523437h-165.617188c-1.390625 0-2.523437-1.132812-2.523437-2.523437v-66.652344c0-1.390625 1.132812-2.523437 2.523437-2.523437h30.832032c4.183593 0 7.574218-3.390626 7.574218-7.574219 0-4.183594-3.390625-7.574219-7.574218-7.574219h-30.832032c-9.742187 0-17.671875 7.929688-17.671875 17.671875v66.652344c0 9.746093 7.929688 17.671875 17.671875 17.671875h55.039063v25.246094h-109.066407v-39.886719c0-3.066407-1.84375-5.828125-4.675781-7-2.828125-1.171875-6.085937-.523438-8.253906 1.640625l-8.78125 8.785156-12.824219-12.820312c-2.957031-2.960938-7.75-2.960938-10.710937 0l-12.820313 12.820312-12.820312-12.824219c-2.960938-2.957031-7.753906-2.957031-10.714844 0l-12.820312 12.824219-8.78125-8.785156c-2.167969-2.167969-5.425782-2.8125-8.253907-1.640625-2.832031 1.171875-4.675781 3.933593-4.675781 6.996093v39.890626h-8.746094c-13.546875 0-25.054687 9.6875-27.367187 23.035156l-37.421875 216.300781h-14.828125c-4.183594 0-7.574219 3.394531-7.574219 7.574219v100.988281c0 4.183594 3.390625 7.574219 7.574219 7.574219h34.839843v21.710937c0 4.183594 3.390626 7.574219 7.574219 7.574219h40.394531c4.183594 0 7.574219-3.390625 7.574219-7.574219v-21.710937h316.085938v21.710937c0 4.183594 3.390625 7.574219 7.574219 7.574219h40.394531c4.183593 0 7.574219-3.390625 7.574219-7.574219v-21.710937h34.839843c4.183594 0 7.574219-3.390625 7.574219-7.574219v-100.988281c0-4.179688-3.390625-7.574219-7.574219-7.574219zm-168.140625-264.582031h25.246094v25.246094h-25.246094zm-225.199218 3.640625 1.207031 1.210937c2.960937 2.957032 7.753906 2.957032 10.710937 0l12.824219-12.824218 12.820313 12.824218c2.960937 2.957032 7.753906 2.957032 10.710937 0l12.824219-12.824218 12.820312 12.824218c2.960938 2.957032 7.753906 2.957032 10.714844 0l1.207031-1.210937v109.464843h-85.839843zm83.421874 347.792969h121.976563l14.136719 14.136718h-150.253906zm-111.699218 43.421874h-25.246094v-14.136718h25.246094zm371.628906 0h-25.246094v-14.136718h25.246094zm0 0"/><path d="m441.816406 452.417969c15.3125 0 27.769532-12.457031 27.769532-27.769531s-12.457032-27.773438-27.769532-27.773438-27.773437 12.460938-27.773437 27.773438 12.460937 27.769531 27.773437 27.769531zm0-40.394531c6.960938 0 12.621094 5.664062 12.621094 12.625 0 6.957031-5.664062 12.621093-12.621094 12.621093-6.960937 0-12.625-5.664062-12.625-12.621093 0-6.960938 5.664063-12.625 12.625-12.625zm0 0"/><path d="m421.113281 176.222656c0-9.746094-7.929687-17.675781-17.675781-17.675781h-135.320312c-9.746094 0-17.671876 7.929687-17.671876 17.675781v36.351563c0 9.746093 7.925782 17.675781 17.671876 17.675781h135.324218c9.742188 0 17.671875-7.929688 17.671875-17.675781zm-15.148437 36.351563c0 1.394531-1.132813 2.527343-2.523438 2.527343h-135.324218c-1.390626 0-2.523438-1.132812-2.523438-2.527343v-36.351563c0-1.394531 1.132812-2.527344 2.523438-2.527344h135.324218c1.390625 0 2.523438 1.132813 2.523438 2.527344zm0 0"/><path d="m127.746094 142.390625h52.515625c4.183593 0 7.574219-3.390625 7.574219-7.574219s-3.390626-7.574218-7.574219-7.574218h-52.515625c-4.179688 0-7.570313 3.390624-7.570313 7.574218s3.386719 7.574219 7.570313 7.574219zm0 0"/><path d="m127.746094 171.675781h52.515625c4.183593 0 7.574219-3.390625 7.574219-7.574219 0-4.179687-3.390626-7.574218-7.574219-7.574218h-52.515625c-4.179688 0-7.570313 3.394531-7.570313 7.574218 0 4.183594 3.386719 7.574219 7.570313 7.574219zm0 0"/><path d="m127.746094 200.964844h52.515625c4.183593 0 7.574219-3.394532 7.574219-7.574219 0-4.183594-3.390626-7.574219-7.574219-7.574219h-52.515625c-4.179688 0-7.570313 3.390625-7.570313 7.574219 0 4.179687 3.386719 7.574219 7.570313 7.574219zm0 0"/><path d="m295.890625 248.929688c0-4.183594-3.390625-7.574219-7.574219-7.574219h-30.296875c-4.183593 0-7.574219 3.390625-7.574219 7.574219v30.296874c0 4.183594 3.390626 7.574219 7.574219 7.574219h30.296875c4.183594 0 7.574219-3.390625 7.574219-7.574219zm-15.148437 22.722656h-15.148438v-15.148438h15.148438zm0 0"/><path d="m358.5 248.929688c0-4.183594-3.390625-7.574219-7.574219-7.574219h-30.292969c-4.183593 0-7.574218 3.390625-7.574218 7.574219v30.296874c0 4.183594 3.390625 7.574219 7.574218 7.574219h30.292969c4.183594 0 7.574219-3.390625 7.574219-7.574219zm-15.148438 22.722656h-15.148437v-15.148438h15.148437zm0 0"/><path d="m421.113281 248.929688c0-4.183594-3.390625-7.574219-7.574219-7.574219h-30.296874c-4.183594 0-7.574219 3.390625-7.574219 7.574219v30.296874c0 4.183594 3.390625 7.574219 7.574219 7.574219h30.296874c4.183594 0 7.574219-3.390625 7.574219-7.574219zm-15.148437 22.722656h-15.148438v-15.148438h15.148438zm0 0"/><path d="m288.316406 301.949219h-30.296875c-4.183593 0-7.574219 3.390625-7.574219 7.574219v30.296874c0 4.183594 3.390626 7.574219 7.574219 7.574219h30.296875c4.183594 0 7.574219-3.390625 7.574219-7.574219v-30.296874c0-4.183594-3.390625-7.574219-7.574219-7.574219zm-7.574218 30.296875h-15.148438v-15.148438h15.148438zm0 0"/><path d="m350.925781 301.949219h-30.292969c-4.183593 0-7.574218 3.390625-7.574218 7.574219v30.296874c0 4.183594 3.390625 7.574219 7.574218 7.574219h30.292969c4.183594 0 7.574219-3.390625 7.574219-7.574219v-30.296874c0-4.183594-3.390625-7.574219-7.574219-7.574219zm-7.574219 30.296875h-15.148437v-15.148438h15.148437zm0 0"/><path d="m413.539062 301.949219h-30.296874c-4.183594 0-7.574219 3.390625-7.574219 7.574219v30.296874c0 4.183594 3.390625 7.574219 7.574219 7.574219h30.296874c4.183594 0 7.574219-3.390625 7.574219-7.574219v-30.296874c0-4.183594-3.390625-7.574219-7.574219-7.574219zm-7.574218 30.296875h-15.148438v-15.148438h15.148438zm0 0"/></svg>