<?xml version="1.0" encoding="iso-8859-1"?>
<!-- Generator: Adobe Illustrator 19.0.0, SVG Export Plug-In . SVG Version: 6.00 Build 0)  -->
<svg version="1.1" id="Layer_1" xmlns="http://www.w3.org/2000/svg" xmlns:xlink="http://www.w3.org/1999/xlink" x="0px" y="0px"
	 viewBox="0 0 512 512" style="enable-background:new 0 0 512 512;" xml:space="preserve">
<path style="fill:#ACE5AC;" d="M489.739,367.304H22.261C9.966,367.304,0,357.338,0,345.043V166.957
	c0-12.295,9.966-22.261,22.261-22.261h467.478c12.295,0,22.261,9.966,22.261,22.261v178.087
	C512,357.338,502.034,367.304,489.739,367.304z"/>
<path style="fill:#699E69;" d="M467.478,333.913H44.522c-6.147,0-11.13-4.983-11.13-11.13V189.217c0-6.147,4.983-11.13,11.13-11.13
	h422.957c6.147,0,11.13,4.983,11.13,11.13v133.565C478.609,328.93,473.626,333.913,467.478,333.913z"/>
<path style="fill:#FEBD4B;" d="M317.217,389.565H194.783c-6.147,0-11.13-4.983-11.13-11.13v-244.87c0-6.147,4.983-11.13,11.13-11.13
	h122.435c6.147,0,11.13,4.983,11.13,11.13v244.87C328.348,384.582,323.365,389.565,317.217,389.565z"/>
<path style="fill:#C1C1C1;" d="M289.391,389.565h-66.783v-267.13h66.783V389.565z"/>
<path style="fill:#81BC82;" d="M133.565,256c0,15.368-12.458,27.826-27.826,27.826S77.913,271.368,77.913,256
	s12.458-27.826,27.826-27.826S133.565,240.632,133.565,256z M406.261,228.174c-15.368,0-27.826,12.458-27.826,27.826
	s12.458,27.826,27.826,27.826s27.826-12.458,27.826-27.826S421.629,228.174,406.261,228.174z"/>
<g>
</g>
<g>
</g>
<g>
</g>
<g>
</g>
<g>
</g>
<g>
</g>
<g>
</g>
<g>
</g>
<g>
</g>
<g>
</g>
<g>
</g>
<g>
</g>
<g>
</g>
<g>
</g>
<g>
</g>
</svg>
