<?xml version="1.0" encoding="iso-8859-1"?>
<!-- Generator: Adobe Illustrator 19.0.0, SVG Export Plug-In . SVG Version: 6.00 Build 0)  -->
<svg version="1.1" id="Capa_1" xmlns="http://www.w3.org/2000/svg" xmlns:xlink="http://www.w3.org/1999/xlink" x="0px" y="0px"
	 viewBox="0 0 512 512" style="enable-background:new 0 0 512 512;" xml:space="preserve">
<path style="fill:#5EAC24;" d="M485.77,293.688L93.264,419.396c-13.847,4.431-28.678-3.202-33.109-17.049L8.966,242.602
	c-4.428-13.827,3.17-28.613,16.96-33.085l1.776-0.569L418.511,83.786c13.856-4.442,28.675,3.182,33.117,17.038l13.829,43.161
	l37.349,116.585c0.227,0.708,0.425,1.421,0.581,2.13C506.452,275.907,498.917,289.472,485.77,293.688z"/>
<path style="fill:#4E901E;" d="M439.884,161.323l18.212,56.842c1.771,5.525-0.595,11.52-5.635,14.412
	c-10.885,6.233-18.609,16.532-21.776,28.264c-1.123,4.109-1.681,8.394-1.628,12.748c0.065,5.311-3.468,10.002-8.534,11.625
	L141.44,374.581c-5.056,1.62-10.668-0.141-13.701-4.501c-9.564-13.767-26.013-21.473-42.88-19.775
	c-5.782,0.575-11.182-2.932-12.952-8.458l-18.212-56.842c-1.774-5.534,0.583-11.527,5.625-14.409
	c4.344-2.49,8.187-5.622,11.432-9.238c7.746-8.616,12.124-19.966,11.969-31.784c-0.065-5.311,3.478-10.005,8.534-11.625
	l279.083-89.367c5.066-1.623,10.668,0.141,13.701,4.501c9.567,13.776,26.022,21.47,42.883,19.785
	C432.7,152.284,438.11,155.788,439.884,161.323z"/>
<path style="fill:#7ED63E;" d="M472.761,362.454L66.02,428.976c-14.349,2.343-27.894-7.391-30.237-21.74L8.684,241.694
	c-2.343-14.329,7.35-27.833,21.649-30.226l1.84-0.302l404.982-66.23c14.359-2.353,27.894,7.371,30.247,21.73l7.32,44.726
	l19.769,120.815c0.121,0.734,0.211,1.468,0.261,2.192C495.838,347.914,486.386,360.222,472.761,362.454z"/>
<path style="fill:#5EAC24;" d="M446.873,224.775l9.641,58.904c0.937,5.726-2.287,11.307-7.696,13.426
	c-11.684,4.561-20.841,13.61-25.702,24.748c-1.715,3.897-2.9,8.055-3.488,12.37c-0.718,5.263-4.904,9.382-10.154,10.241
	l-289.203,47.283c-5.24,0.858-10.53-1.71-12.889-6.47c-7.432-15.025-22.566-25.07-39.5-25.876
	c-5.803-0.283-10.628-4.547-11.565-10.273l-9.641-58.905c-0.939-5.736,2.275-11.315,7.686-13.424
	c4.664-1.823,8.926-4.355,12.668-7.453c8.93-7.382,14.932-17.962,16.52-29.674c0.718-5.263,4.914-9.384,10.154-10.241
	l289.203-47.283c5.25-0.859,10.53,1.71,12.889,6.47c7.433,15.035,22.576,25.069,39.502,25.886
	C441.1,214.777,445.934,219.039,446.873,224.775z"/>
<path style="fill:#7ED63E;" d="M473.448,234.707v167.744c0,0.744-0.03,1.478-0.101,2.202c-1.106,13.514-12.428,24.133-26.234,24.133
	H33.877c-14.54,0-26.335-11.795-26.335-26.335V234.707c0-14.52,11.745-26.285,26.245-26.335h413.327
	C461.663,208.372,473.448,220.157,473.448,234.707z"/>
<path style="fill:#A4E276;" d="M473.448,234.707v167.744c0,0.744-0.03,1.478-0.101,2.202H60.021
	c-14.54,0-26.335-11.795-26.335-26.335V210.574c0-0.744,0.03-1.478,0.101-2.202h413.327
	C461.663,208.372,473.448,220.157,473.448,234.707z"/>
<path style="fill:#5EAC24;" d="M443.804,288.734v59.689c0,5.802-4.082,10.789-9.764,12.006
	c-12.268,2.614-22.765,10.065-29.362,20.272c-2.323,3.57-4.163,7.481-5.44,11.644c-1.559,5.078-6.355,8.467-11.674,8.467H93.425
	c-5.309,0-10.116-3.389-11.674-8.467c-4.907-16.028-18.22-28.386-34.802-31.916c-5.681-1.217-9.754-6.204-9.754-12.006v-59.689
	c0-5.812,4.072-10.799,9.754-12.006c4.897-1.046,9.512-2.856,13.705-5.309c10.005-5.842,17.637-15.314,21.096-26.617
	c1.559-5.078,6.365-8.467,11.674-8.467h294.14c5.319,0,10.116,3.389,11.674,8.467c4.907,16.038,18.23,28.386,34.802,31.926
	C439.722,277.935,443.804,282.922,443.804,288.734z"/>
<path style="fill:#6DC82A;" d="M443.804,288.734v59.689c0,5.802-4.082,10.789-9.764,12.006
	c-12.268,2.614-22.765,10.065-29.362,20.272H116.884c-5.309,0-10.116-3.389-11.664-8.467c-4.907-16.028-18.23-28.386-34.812-31.916
	c-5.681-1.217-9.754-6.204-9.754-12.006v-56.893c10.005-5.842,17.637-15.314,21.096-26.617c1.559-5.078,6.365-8.467,11.674-8.467
	h294.14c5.319,0,10.116,3.389,11.674,8.467c4.907,16.038,18.23,28.386,34.802,31.926
	C439.722,277.935,443.804,282.922,443.804,288.734z"/>
<g>
	<circle style="fill:#47821C;" cx="240.495" cy="318.575" r="56.234"/>
	<circle style="fill:#47821C;" cx="124.496" cy="318.575" r="14.148"/>
	<circle style="fill:#47821C;" cx="350.842" cy="318.575" r="14.148"/>
</g>
<path d="M435.617,270.169c-13.843-2.95-25.019-13.202-29.168-26.752c-2.488-8.126-10.251-13.801-18.881-13.801H93.424
	c-8.63,0-16.393,5.675-18.881,13.801c-4.148,13.552-15.324,23.802-29.168,26.752c-9.112,1.943-15.726,10.095-15.726,19.383v59.686
	c0,9.288,6.613,17.44,15.726,19.383c13.843,2.95,25.019,13.202,29.168,26.752c2.488,8.126,10.251,13.801,18.881,13.801h294.145
	c8.63,0,16.393-5.675,18.881-13.801c4.148-13.552,15.324-23.802,29.168-26.752c9.112-1.943,15.726-10.095,15.726-19.383v-59.686
	C451.343,280.264,444.729,272.112,435.617,270.169z M436.26,349.238c0,2.251-1.558,4.156-3.787,4.631
	c-19.197,4.092-34.695,18.304-40.446,37.09c-0.565,1.844-2.398,3.132-4.459,3.132H93.424c-2.06,0-3.894-1.288-4.459-3.132
	c-5.751-18.786-21.248-32.998-40.446-37.09c-2.229-0.475-3.787-2.379-3.787-4.631v-59.686c0-2.251,1.558-4.156,3.787-4.631
	c19.197-4.092,34.695-18.304,40.446-37.09c0.565-1.844,2.398-3.132,4.459-3.132h294.145c2.06,0,3.894,1.288,4.459,3.132
	c5.751,18.786,21.248,32.998,40.446,37.09c2.229,0.475,3.787,2.379,3.787,4.631L436.26,349.238L436.26,349.238z"/>
<circle cx="46.081" cy="241.118" r="9.746"/>
<circle cx="434.915" cy="241.118" r="9.746"/>
<circle cx="46.081" cy="397.68" r="9.746"/>
<circle cx="434.915" cy="397.68" r="9.746"/>
<path d="M295.934,287.838c-2.059-3.622-6.665-4.887-10.284-2.827c-3.621,2.059-4.886,6.663-2.827,10.284
	c15.935,28.017,0.913,64.224-31.562,71.586c-26.001,5.894-52.19-9.985-58.252-36.722c-9.492-41.871,35.339-73.699,71.551-53.095
	c3.619,2.059,8.224,0.794,10.285-2.826c2.059-3.621,0.794-8.225-2.826-10.285c-48.209-27.425-105.91,15.754-93.72,69.541
	c11.912,52.54,79.398,67.063,112.245,25.43c11.464-14.53,16.58-34.075,12.149-53.629C301.3,299.146,299.025,293.273,295.934,287.838
	z"/>
<path d="M240.497,366.554c3.831,0,6.948-3.117,6.948-6.947v-2.831c10.22-2.47,16.05-10.424,16.05-22.001
	c0-15.569-10.277-20.37-17.314-23.055l0.005-0.012c-7.477-2.982-13.449-3.854-13.449-10.101c0-5.443,4.26-7.019,9.704-7.019
	c7.798,0,9.388,3.52,12.97,3.52c4.186,0,6.415-4.156,6.415-7.156c0-6.155-8.493-8.298-14.383-9.044v-2.727
	c0-3.831-3.117-6.948-6.948-6.948s-6.947,3.117-6.947,6.948v3.591c-9.288,2.665-14.383,9.511-14.383,19.391
	c0,14.152,10.17,17.973,18.342,21.044c7.743,2.909,12.416,4.665,12.416,12.124c0,6.094-3.296,9.057-10.076,9.057
	c-10.719,0-10.309-7.689-15.842-7.689c-3.665,0-6.509,3.847-6.509,7.156c0,4.959,5.977,11.059,16.051,13.079v2.673
	C233.548,363.437,236.666,366.554,240.497,366.554z"/>
<path d="M124.491,297.706c-11.96,0-21.688,9.73-21.688,21.688s9.73,21.688,21.688,21.688s21.688-9.73,21.688-21.688
	S136.45,297.706,124.491,297.706z M124.491,326.001c-3.643,0-6.605-2.963-6.605-6.605c0-3.642,2.963-6.605,6.605-6.605
	c3.642,0,6.605,2.963,6.605,6.605C131.096,323.037,128.133,326.001,124.491,326.001z"/>
<path d="M350.843,297.706c-11.959,0-21.688,9.73-21.688,21.688s9.73,21.688,21.688,21.688c11.96,0,21.688-9.73,21.688-21.688
	S362.802,297.706,350.843,297.706z M350.843,326.001c-3.642,0-6.605-2.963-6.605-6.605c0-3.642,2.963-6.605,6.605-6.605
	c3.643,0,6.605,2.963,6.605,6.605C357.449,323.037,354.485,326.001,350.843,326.001z"/>
<path d="M496.421,296.87c12.726-8.119,18.756-23.925,13.91-38.923L458.789,98.322c-5.743-17.768-24.878-27.558-42.65-21.829
	L24.427,202.989c-0.025,0.008-0.048,0.019-0.073,0.028C10.297,207.144,0,220.151,0,235.524v167.74
	c0,18.682,15.199,33.881,33.88,33.881h413.232c18.682,0,33.881-15.199,33.881-33.881v-34.461
	c14.501-5.711,23.448-20.75,20.941-36.738L496.421,296.87z M459.658,168.224l6.186,39.087c-12.111-8.068-19.294-5.047-47.909-5.669
	c-6.215-3.891-11.174-9.362-14.375-15.953c-3.714-7.655-12.275-12.062-20.798-10.713L212.51,201.641h-83.279
	c327.473-50.678,310.777-50.184,318.152-48.185C453.653,155.697,458.546,161.198,459.658,168.224z M395.782,201.641h-85.798
	l75.122-11.766c2.031-0.325,4.042,0.666,4.885,2.401C391.612,195.612,393.552,198.745,395.782,201.641z M300.353,159.13
	c76.712-24.68,72.409-23.604,73.869-23.604c1.469,0,2.867,0.667,3.689,1.847c2.123,3.043,4.53,5.833,7.185,8.345L300.353,159.13z
	 M426.527,89.937c7.94,0,15.34,5.073,17.909,13.021l12.23,37.877c-6.467-2.989-13.638-4.286-20.874-3.139l-28.816,4.561
	c-6.747-2.873-12.501-7.5-16.693-13.509c-4.865-6.98-14.006-9.995-22.216-7.33L204.08,174.368l-82.258,13.019
	C439.01,85.306,420.934,89.937,426.527,89.937z M465.909,363.178v40.087c0,10.365-8.432,18.798-18.798,18.798H33.88
	c-10.365,0-18.797-8.432-18.797-18.798V235.524c0-9.911,7.989-18.798,18.797-18.798h413.232c10.365,0,18.798,8.432,18.798,18.798
	V363.178z M480.992,351.366v-53.777c0.112,0.152,0.221,0.305,0.344,0.448l5.695,36.365
	C488.063,340.976,485.607,347.262,480.992,351.366z M486.41,232.951l9.568,29.632c1.868,5.781,0.819,11.776-2.357,16.41
	L486.41,232.951z"/>
<circle cx="431.316" cy="179.006" r="9.746"/>
<circle cx="416.655" cy="117.809" r="9.746"/>
<g>
</g>
<g>
</g>
<g>
</g>
<g>
</g>
<g>
</g>
<g>
</g>
<g>
</g>
<g>
</g>
<g>
</g>
<g>
</g>
<g>
</g>
<g>
</g>
<g>
</g>
<g>
</g>
<g>
</g>
</svg>
