<?xml version="1.0" encoding="iso-8859-1"?>
<!-- Generator: Adobe Illustrator 19.0.0, SVG Export Plug-In . SVG Version: 6.00 Build 0)  -->
<svg version="1.1" id="Capa_1" xmlns="http://www.w3.org/2000/svg" xmlns:xlink="http://www.w3.org/1999/xlink" x="0px" y="0px"
	 viewBox="0 0 512 512" style="enable-background:new 0 0 512 512;" xml:space="preserve">
<path style="fill:#5EAC24;" d="M493.13,294.941L88.393,424.566c-14.279,4.569-29.572-3.301-34.141-17.58L1.47,242.265
	c-4.566-14.258,3.269-29.504,17.489-34.116l1.831-0.587L423.777,78.5c14.288-4.581,29.568,3.281,34.149,17.569l14.26,44.506
	l38.513,120.218c0.234,0.73,0.439,1.465,0.599,2.196C514.458,276.606,506.687,290.594,493.13,294.941z"/>
<circle style="fill:#47821C;" cx="421.841" cy="113.682" r="10.049"/>
<path style="fill:#4E901E;" d="M445.814,158.451l18.78,58.613c1.826,5.698-0.614,11.879-5.811,14.861
	c-11.224,6.428-19.188,17.047-22.454,29.144c-1.158,4.237-1.734,8.656-1.679,13.145c0.067,5.477-3.576,10.314-8.8,11.987
	l-287.78,92.152c-5.213,1.67-11-0.145-14.128-4.641c-9.862-14.196-26.824-22.142-44.216-20.391
	c-5.962,0.593-11.53-3.024-13.356-8.721l-18.78-58.613c-1.829-5.707,0.601-11.887,5.8-14.858c4.479-2.567,8.442-5.797,11.788-9.526
	c7.987-8.885,12.502-20.588,12.342-32.774c-0.067-5.477,3.587-10.317,8.8-11.987l287.78-92.152c5.224-1.674,11,0.145,14.128,4.641
	c9.865,14.205,26.833,22.139,44.219,20.401C438.408,149.131,443.986,152.744,445.814,158.451z"/>
<path style="fill:#7ED63E;" d="M479.717,365.852L60.301,434.446c-14.796,2.416-28.763-7.621-31.179-22.417l-27.944-170.7
	c-2.416-14.775,7.58-28.701,22.324-31.168l1.897-0.311l417.601-68.294c14.807-2.426,28.763,7.6,31.189,22.407l7.548,46.12
	l20.385,124.58c0.124,0.757,0.218,1.514,0.27,2.26C503.513,350.858,493.767,363.55,479.717,365.852z"/>
<circle style="fill:#4E901E;" cx="435.901" cy="176.071" r="10.049"/>
<path style="fill:#5EAC24;" d="M453.022,223.881l9.942,60.741c0.966,5.904-2.358,11.66-7.936,13.844
	c-12.048,4.703-21.49,14.034-26.502,25.519c-1.769,4.019-2.99,8.306-3.597,12.756c-0.74,5.427-5.057,9.674-10.47,10.561
	l-298.215,48.757c-5.403,0.884-10.858-1.764-13.291-6.671c-7.664-15.493-23.269-25.851-40.73-26.682
	c-5.984-0.291-10.959-4.689-11.925-10.593l-9.942-60.741c-0.968-5.914,2.345-11.668,7.926-13.842
	c4.809-1.88,9.204-4.491,13.063-7.685c9.208-7.612,15.398-18.522,17.035-30.599c0.74-5.427,5.067-9.676,10.47-10.561l298.215-48.757
	c5.414-0.885,10.858,1.764,13.291,6.671c7.665,15.503,23.28,25.85,40.732,26.692C447.069,213.571,452.054,217.967,453.022,223.881z"
	/>
<path style="fill:#7ED63E;" d="M480.424,234.123v172.971c0,0.767-0.031,1.524-0.104,2.271
	c-1.141,13.936-12.816,24.885-27.052,24.885H27.156C12.163,434.25,0,422.087,0,407.094V234.123
	c0-14.972,12.111-27.104,27.062-27.156h426.206C468.272,206.968,480.424,219.12,480.424,234.123z"/>
<path style="fill:#A4E276;" d="M480.424,234.123v172.971c0,0.767-0.031,1.524-0.104,2.271H54.114
	c-14.993,0-27.156-12.163-27.156-27.156V209.238c0-0.767,0.031-1.524,0.104-2.271h426.206
	C468.272,206.968,480.424,219.12,480.424,234.123z"/>
<g>
	<circle style="fill:#4E901E;" cx="39.743" cy="239.89" r="10.049"/>
	<circle style="fill:#4E901E;" cx="440.691" cy="239.89" r="10.049"/>
	<circle style="fill:#4E901E;" cx="39.743" cy="401.331" r="10.049"/>
	<circle style="fill:#4E901E;" cx="440.691" cy="401.331" r="10.049"/>
</g>
<path style="fill:#5EAC24;" d="M449.857,289.834v61.549c0,5.983-4.21,11.126-10.068,12.38c-12.65,2.696-23.475,10.379-30.277,20.903
	c-2.395,3.681-4.293,7.714-5.609,12.007c-1.607,5.236-6.553,8.73-12.038,8.73H88.559c-5.475,0-10.431-3.494-12.038-8.73
	c-5.06-16.528-18.788-29.271-35.886-32.91c-5.858-1.255-10.058-6.398-10.058-12.38v-61.549c0-5.993,4.199-11.136,10.058-12.38
	c5.05-1.078,9.809-2.945,14.133-5.475c10.317-6.024,18.187-15.792,21.754-27.446c1.607-5.236,6.563-8.73,12.038-8.73h303.306
	c5.485,0,10.431,3.494,12.038,8.73c5.06,16.538,18.798,29.271,35.886,32.921C445.647,278.698,449.857,283.841,449.857,289.834z"/>
<path style="fill:#6DC82A;" d="M449.857,289.834v61.549c0,5.983-4.21,11.126-10.068,12.38c-12.65,2.696-23.475,10.379-30.277,20.903
	H112.749c-5.475,0-10.431-3.494-12.028-8.73c-5.06-16.528-18.798-29.271-35.896-32.91c-5.858-1.255-10.058-6.398-10.058-12.38
	v-58.666c10.317-6.024,18.187-15.792,21.754-27.446c1.607-5.236,6.563-8.73,12.038-8.73h303.306c5.485,0,10.431,3.494,12.038,8.73
	c5.06,16.538,18.798,29.271,35.886,32.921C445.647,278.698,449.857,283.841,449.857,289.834z"/>
<circle style="fill:#47821C;" cx="240.212" cy="320.611" r="57.986"/>
<path style="fill:#6DC82A;" d="M246.076,312.694l0.005-0.012l-2.882-1.06c-8.137-2.99-10.986-4.473-10.986-9.356
	c0-2.812,0.966-4.657,3.04-5.804c2.139-1.184,4.97-1.433,6.967-1.433c4.811,0,7.321,1.292,9.339,2.33
	c1.299,0.669,2.528,1.3,4.036,1.3c4.316,0,6.615-4.285,6.615-7.379c0-6.347-8.757-8.556-14.831-9.326v-2.812
	c0-3.951-3.214-7.165-7.165-7.165c-3.95,0-7.165,3.214-7.165,7.165v3.703c-9.578,2.748-14.831,9.808-14.831,19.995
	c0,14.593,10.487,18.533,18.914,21.7c7.984,3,12.803,4.81,12.803,12.502c0,6.283-3.399,9.339-10.389,9.339
	c-6.525,0-9.022-2.691-11.029-4.855c-1.337-1.441-2.851-3.074-5.307-3.074c-3.779,0-6.712,3.967-6.712,7.379
	c0,5.114,6.163,11.404,16.552,13.487v2.756c0,3.949,3.214,7.164,7.165,7.164c3.95,0,7.165-3.214,7.165-7.164v-2.919
	c10.538-2.547,16.551-10.749,16.551-22.687C263.929,320.414,253.333,315.462,246.076,312.694z"/>
<g>
	<circle style="fill:#47821C;" cx="120.599" cy="320.611" r="14.589"/>
	<circle style="fill:#47821C;" cx="353.998" cy="320.611" r="14.589"/>
</g>
<g>
</g>
<g>
</g>
<g>
</g>
<g>
</g>
<g>
</g>
<g>
</g>
<g>
</g>
<g>
</g>
<g>
</g>
<g>
</g>
<g>
</g>
<g>
</g>
<g>
</g>
<g>
</g>
<g>
</g>
</svg>
