<?xml version="1.0" encoding="iso-8859-1"?>
<!-- Generator: Adobe Illustrator 19.0.0, SVG Export Plug-In . SVG Version: 6.00 Build 0)  -->
<svg version="1.1" id="Layer_1" xmlns="http://www.w3.org/2000/svg" xmlns:xlink="http://www.w3.org/1999/xlink" x="0px" y="0px"
	 viewBox="0 0 512 512" style="enable-background:new 0 0 512 512;" xml:space="preserve">
<path style="fill:#ACE5AC;" d="M482.358,363.789H29.642c-11.906,0-21.558-9.651-21.558-21.558V169.768
	c0-11.906,9.651-21.558,21.558-21.558h452.716c11.906,0,21.558,9.651,21.558,21.558v172.463
	C503.916,354.138,494.264,363.789,482.358,363.789z"/>
<path style="fill:#699E69;" d="M460.8,331.453H51.2c-5.953,0-10.779-4.826-10.779-10.779V191.326
	c0-5.953,4.826-10.779,10.779-10.779h409.6c5.953,0,10.779,4.826,10.779,10.779v129.347
	C471.579,326.627,466.753,331.453,460.8,331.453z"/>
<path style="fill:#FEBD4B;" d="M315.284,385.347H196.716c-5.953,0-10.779-4.826-10.779-10.779V137.432
	c0-5.953,4.826-10.779,10.779-10.779h118.568c5.953,0,10.779,4.826,10.779,10.779v237.137
	C326.063,380.522,321.237,385.347,315.284,385.347z"/>
<path style="fill:#C1C1C1;" d="M288.337,385.347h-64.674V126.653h64.674V385.347z"/>
<path style="fill:#81BC82;" d="M137.432,256c0,14.882-12.065,26.947-26.947,26.947S83.537,270.882,83.537,256
	s12.065-26.947,26.947-26.947S137.432,241.117,137.432,256z M401.516,229.053c-14.883,0-26.947,12.065-26.947,26.947
	s12.065,26.947,26.947,26.947s26.947-12.065,26.947-26.947S416.398,229.053,401.516,229.053z"/>
<path d="M75.453,256c0,19.317,15.715,35.032,35.032,35.032s35.032-15.715,35.032-35.032s-15.715-35.032-35.032-35.032
	S75.453,236.683,75.453,256z M129.347,256c0,10.401-8.463,18.863-18.863,18.863S91.621,266.401,91.621,256
	c0-10.401,8.463-18.863,18.863-18.863S129.347,245.599,129.347,256z M32.337,320.674V191.326c0-10.401,8.463-18.863,18.863-18.863
	h107.789c4.466,0,8.084,3.618,8.084,8.084c0,4.466-3.618,8.084-8.084,8.084H51.2c-1.486,0-2.695,1.208-2.695,2.695v129.347
	c0,1.486,1.208,2.695,2.695,2.695h107.789c4.466,0,8.084,3.618,8.084,8.084c0,4.466-3.618,8.084-8.084,8.084H51.2
	C40.799,339.537,32.337,331.074,32.337,320.674z M436.547,256c0-19.317-15.715-35.032-35.032-35.032
	c-19.317,0-35.032,15.715-35.032,35.032s15.715,35.032,35.032,35.032C420.833,291.032,436.547,275.317,436.547,256z M382.653,256
	c0-10.401,8.463-18.863,18.863-18.863c10.401,0,18.863,8.463,18.863,18.863c0,10.401-8.463,18.863-18.863,18.863
	C391.115,274.863,382.653,266.401,382.653,256z M482.358,140.126H334.147v-2.695c0-10.401-8.463-18.863-18.863-18.863H196.716
	c-10.401,0-18.863,8.463-18.863,18.863v2.695H29.642C13.298,140.126,0,153.424,0,169.768v172.463
	c0,16.344,13.298,29.642,29.642,29.642h148.211v2.695c0,10.401,8.463,18.863,18.863,18.863h118.568
	c10.401,0,18.863-8.463,18.863-18.863v-2.695h148.211c16.344,0,29.642-13.298,29.642-29.642V169.768
	C512,153.424,498.702,140.126,482.358,140.126z M177.853,355.705H29.642c-7.43,0-13.474-6.044-13.474-13.474V169.768
	c0-7.43,6.044-13.474,13.474-13.474h148.211V355.705z M317.979,374.568c0,1.486-1.208,2.695-2.695,2.695h-18.863V202.105
	c0-4.466-3.618-8.084-8.084-8.084s-8.084,3.618-8.084,8.084v175.158h-48.505v-56.589c0-4.466-3.618-8.084-8.084-8.084
	s-8.084,3.618-8.084,8.084v56.589h-18.863c-1.486,0-2.695-1.208-2.695-2.695V137.432c0-1.486,1.208-2.695,2.695-2.695h18.863v153.6
	c0,4.466,3.618,8.084,8.084,8.084s8.084-3.618,8.084-8.084v-153.6h48.505v35.032c0,4.466,3.618,8.084,8.084,8.084
	s8.084-3.618,8.084-8.084v-35.032h18.863c1.486,0,2.695,1.208,2.695,2.695V374.568z M495.832,342.232
	c0,7.43-6.044,13.474-13.474,13.474H334.147V156.295h148.211c7.43,0,13.474,6.044,13.474,13.474V342.232z M479.663,191.326v129.347
	c0,10.401-8.463,18.863-18.863,18.863H355.166c-4.466,0-8.084-3.618-8.084-8.084c0-4.466,3.618-8.084,8.084-8.084H460.8
	c1.486,0,2.695-1.208,2.695-2.695V191.326c0-1.486-1.208-2.695-2.695-2.695H353.01c-4.466,0-8.084-3.618-8.084-8.084
	c0-4.466,3.618-8.084,8.084-8.084H460.8C471.201,172.463,479.663,180.926,479.663,191.326z"/>
<g>
</g>
<g>
</g>
<g>
</g>
<g>
</g>
<g>
</g>
<g>
</g>
<g>
</g>
<g>
</g>
<g>
</g>
<g>
</g>
<g>
</g>
<g>
</g>
<g>
</g>
<g>
</g>
<g>
</g>
</svg>
