<?xml version="1.0" encoding="iso-8859-1"?>
<!-- Generator: Adobe Illustrator 21.0.0, SVG Export Plug-In . SVG Version: 6.00 Build 0)  -->
<svg version="1.1" id="Capa_1" xmlns="http://www.w3.org/2000/svg" xmlns:xlink="http://www.w3.org/1999/xlink" x="0px" y="0px"
	 viewBox="0 0 512 512" style="enable-background:new 0 0 512 512;" xml:space="preserve">
<rect x="354.73" y="62.2" style="fill:#F3E8D7;" width="28.318" height="153.35"/>
<path style="fill:#33D8DD;" d="M451.465,100.489H286.318c-5.169,0-9.359-4.19-9.359-9.359V43.076c0-5.169,4.19-9.359,9.359-9.359
	h165.147c5.169,0,9.359,4.19,9.359,9.359v48.055C460.824,96.299,456.634,100.489,451.465,100.489z"/>
<path style="fill:#25B9C0;" d="M451.465,33.718h-45.641v66.772h45.641c5.169,0,9.359-4.19,9.359-9.359V43.076
	C460.824,37.907,456.634,33.718,451.465,33.718z"/>
<path style="fill:#EFEFEF;" d="M444.661,160.909H67.339c-6.602,0-12.116,5.034-12.715,11.609L33.208,414.163h445.584
	l-21.416-241.645C456.777,165.942,451.263,160.909,444.661,160.909z"/>
<path style="fill:#E2E2E2;" d="M457.376,172.518c-0.599-6.575-6.113-11.609-12.715-11.609h-44.106l22.294,253.254h55.944
	L457.376,172.518z"/>
<path style="fill:#0D6E9A;" d="M492.338,402.971H19.662c-6.717,0-12.162,5.445-12.162,12.162v50.988
	c0,6.717,5.445,12.162,12.162,12.162h472.676c6.717,0,12.162-5.445,12.162-12.162v-50.988
	C504.5,408.416,499.055,402.971,492.338,402.971z"/>
<path style="fill:#09627A;" d="M492.338,402.971H449.5v75.312h42.838c6.717,0,12.162-5.445,12.162-12.162v-50.988
	C504.5,408.416,499.055,402.971,492.338,402.971z"/>
<path style="fill:#A0E557;" d="M414.231,242.135H252.074c-2.234,0-4.044-1.811-4.044-4.044v-45.093c0-2.234,1.811-4.044,4.044-4.044
	h162.157c2.234,0,4.044,1.811,4.044,4.044v45.093C418.276,240.324,416.465,242.135,414.231,242.135z"/>
<path style="fill:#93CC4A;" d="M414.231,188.953h-50.956v53.182h50.956c2.234,0,4.044-1.811,4.044-4.044v-45.093
	C418.276,190.763,416.465,188.953,414.231,188.953z"/>
<g>
	<path style="fill:#FFFFFF;" d="M280.705,306.723h-29.063c-1.995,0-3.612-1.617-3.612-3.612v-29.063
		c0-1.995,1.617-3.612,3.612-3.612h29.063c1.995,0,3.612,1.617,3.612,3.612v29.063C284.317,305.105,282.699,306.723,280.705,306.723
		z"/>
	<path style="fill:#FFFFFF;" d="M347.684,306.723h-29.063c-1.995,0-3.612-1.617-3.612-3.612v-29.063
		c0-1.995,1.617-3.612,3.612-3.612h29.063c1.995,0,3.612,1.617,3.612,3.612v29.063C351.296,305.105,349.679,306.723,347.684,306.723
		z"/>
	<path style="fill:#FFFFFF;" d="M414.664,306.723h-29.063c-1.995,0-3.612-1.617-3.612-3.612v-29.063
		c0-1.995,1.617-3.612,3.612-3.612h29.063c1.995,0,3.612,1.617,3.612,3.612v29.063C418.276,305.105,416.658,306.723,414.664,306.723
		z"/>
	<path style="fill:#FFFFFF;" d="M280.705,368.094h-29.063c-1.995,0-3.612-1.617-3.612-3.612v-29.063
		c0-1.995,1.617-3.612,3.612-3.612h29.063c1.995,0,3.612,1.617,3.612,3.612v29.063C284.317,366.477,282.699,368.094,280.705,368.094
		z"/>
	<path style="fill:#FFFFFF;" d="M347.684,368.094h-29.063c-1.995,0-3.612-1.617-3.612-3.612v-29.063
		c0-1.995,1.617-3.612,3.612-3.612h29.063c1.995,0,3.612,1.617,3.612,3.612v29.063C351.296,366.477,349.679,368.094,347.684,368.094
		z"/>
	<path style="fill:#FFFFFF;" d="M414.664,368.094h-29.063c-1.995,0-3.612-1.617-3.612-3.612v-29.063
		c0-1.995,1.617-3.612,3.612-3.612h29.063c1.995,0,3.612,1.617,3.612,3.612v29.063C418.276,366.477,416.658,368.094,414.664,368.094
		z"/>
</g>
<path style="fill:#606060;" d="M348.042,445.322H163.958c-6.235,0-11.29,5.055-11.29,11.29v21.67h206.665v-21.67
	C359.332,450.377,354.278,445.322,348.042,445.322z"/>
<path style="fill:#FCB038;" d="M185.228,72.931l-9.406-2.868c-1.025-0.312-2.119-0.312-3.144,0l-9.396,2.867
	c-1.025,0.313-2.119,0.313-3.144,0l-9.399-2.867c-1.025-0.313-2.12-0.313-3.144,0l-9.396,2.866c-1.025,0.313-2.12,0.313-3.144,0
	l-9.392-2.866c-1.025-0.313-2.12-0.313-3.145,0l-9.396,2.866c-1.025,0.313-2.119,0.313-3.144,0l-9.515-2.903
	c-0.723-0.221-1.453,0.32-1.453,1.076v135.889h100.337V71.103c0-0.756-0.73-1.296-1.453-1.076l-9.525,2.904
	C187.346,73.243,186.252,73.243,185.228,72.931z"/>
<path style="fill:#FD8F31;" d="M197.895,70.027l-9.525,2.904c-1.024,0.312-2.118,0.312-3.142,0l-9.406-2.868
	c-1.025-0.312-2.119-0.312-3.144,0l-9.396,2.866c-1.025,0.313-2.119,0.313-3.144,0l-9.399-2.867c-1.025-0.313-2.12-0.313-3.144,0
	l-3.247,0.991v135.938h55V71.103C199.347,70.347,198.617,69.806,197.895,70.027z"/>
<path d="M147.348,172.717c-11.345-0.281-19.878-6.376-19.878-11.627c0-2.625,2.344-6.563,5.251-6.563
	c3.563,0,6.376,6.095,14.627,7.032V142.9c-8.532-3.188-18.19-6.845-18.19-18.847c0-11.908,8.814-17.065,18.19-18.284v-2.626
	c0-1.219,1.407-2.344,3.188-2.344c1.594,0,3.188,1.125,3.188,2.344v2.438c6.095,0.188,16.034,1.969,16.034,7.407
	c0,2.156-1.5,6.47-4.97,6.47c-2.625,0-4.782-3-11.064-3.469v16.502c8.345,3.095,17.721,7.313,17.721,20.066
	c0,11.533-7.22,18.19-17.721,19.878v2.906c0,1.22-1.594,2.345-3.188,2.345c-1.781,0-3.188-1.125-3.188-2.345L147.348,172.717
	L147.348,172.717z M148.099,130.429v-14.158c-4.688,0.75-7.501,3-7.501,6.563C140.597,126.959,143.785,128.741,148.099,130.429z
	 M152.974,145.149v16.315c4.126-0.844,7.033-3.281,7.033-7.688C160.007,149.182,157.006,146.932,152.974,145.149z"/>
<path d="M86.851,214.492L86.851,214.492h124.656l0,0c4.142,0,7.5-3.357,7.5-7.5s-3.358-7.5-7.5-7.5h-4.659V71.103
	c0-2.72-1.304-5.31-3.489-6.929c-2.186-1.62-5.044-2.113-7.651-1.321l-8.908,2.716l-8.789-2.679c-2.46-0.75-5.06-0.75-7.52,0
	l-8.78,2.679l-8.783-2.679c-2.459-0.75-5.059-0.75-7.521,0l-8.779,2.679l-8.776-2.679c-2.46-0.75-5.06-0.75-7.521,0l-8.779,2.679
	l-8.896-2.714c-2.603-0.794-5.462-0.304-7.649,1.316c-2.188,1.619-3.494,4.21-3.494,6.932v128.39h-4.66c-4.142,0-7.5,3.357-7.5,7.5
	S82.709,214.492,86.851,214.492z M106.511,79.713l1.28,0.391c2.46,0.75,5.059,0.75,7.52,0l8.779-2.679l8.777,2.679
	c2.461,0.751,5.061,0.751,7.521,0l8.779-2.679l8.784,2.679c2.46,0.75,5.06,0.75,7.52,0l8.78-2.679l8.788,2.68
	c2.46,0.75,5.061,0.75,7.519,0l1.29-0.394v119.781h-85.337C106.511,199.492,106.511,79.713,106.511,79.713z"/>
<path d="M436.639,59.604h-86.038c-4.142,0-7.5,3.357-7.5,7.5s3.358,7.5,7.5,7.5h86.038c4.142,0,7.5-3.357,7.5-7.5
	S440.781,59.604,436.639,59.604z"/>
<path d="M315.704,59.604h-14.56c-4.142,0-7.5,3.357-7.5,7.5s3.358,7.5,7.5,7.5h14.56c4.142,0,7.5-3.357,7.5-7.5
	S319.846,59.604,315.704,59.604z"/>
<path d="M492.338,395.471h-7.673l-19.819-223.634c-0.958-10.506-9.636-18.429-20.185-18.429h-54.11v-45.419h60.915
	c9.296,0,16.858-7.563,16.858-16.858V43.076c0-9.296-7.563-16.858-16.858-16.858H286.318c-9.296,0-16.858,7.563-16.858,16.858
	v48.055c0,9.296,7.563,16.858,16.858,16.858h60.915v45.419H234.75c-4.142,0-7.5,3.357-7.5,7.5s3.358,7.5,7.5,7.5h119.982h28.318
	h61.61c2.742,0,4.997,2.06,5.245,4.771l19.701,222.291H42.394l19.699-222.272c0.197-2.166,1.735-4.014,3.826-4.597
	c3.99-1.112,6.323-5.248,5.211-9.238c-1.112-3.988-5.247-6.319-9.238-5.211c-8.055,2.245-13.977,9.352-14.738,17.703L27.336,395.471
	h-7.673C8.82,395.471,0,404.291,0,415.133v50.987c0,10.842,8.82,19.662,19.662,19.662l0,0h472.676l0,0
	c10.842,0,19.662-8.82,19.662-19.662v-50.987C512,404.291,503.18,395.471,492.338,395.471z M375.551,153.408h-13.318v-45.419h13.318
	V153.408z M354.732,92.989h-68.415c-1.025,0-1.858-0.834-1.858-1.858V43.076c0-1.024,0.833-1.858,1.858-1.858h165.147
	c1.025,0,1.858,0.834,1.858,1.858v48.055c0,1.024-0.833,1.858-1.858,1.858h-68.415H354.732z M351.833,470.782H160.167v-14.17
	c0-2.09,1.7-3.79,3.791-3.79h184.084c2.09,0,3.791,1.7,3.791,3.79L351.833,470.782L351.833,470.782z M497,466.12
	c0,2.57-2.091,4.662-4.662,4.662H366.833v-14.17c0-10.361-8.429-18.79-18.791-18.79H163.958c-10.361,0-18.791,8.429-18.791,18.79
	v14.17H19.662c-2.571,0-4.662-2.092-4.662-4.662v-50.987c0-2.57,2.091-4.662,4.662-4.662l0,0h472.676l0,0
	c2.571,0,4.662,2.092,4.662,4.662L497,466.12L497,466.12z"/>
<path d="M425.775,192.997c0-6.365-5.179-11.544-11.544-11.544H252.074c-6.366,0-11.544,5.179-11.544,11.544v45.093
	c0,6.366,5.179,11.545,11.544,11.545h162.157c6.365,0,11.544-5.179,11.544-11.545L425.775,192.997L425.775,192.997z
	 M410.775,234.635H255.53v-38.182h155.246v38.182H410.775z"/>
<path d="M240.53,303.11c0,6.127,4.985,11.112,11.112,11.112h29.063c6.127,0,11.112-4.985,11.112-11.112v-29.063
	c0-6.127-4.985-11.112-11.112-11.112h-29.063c-6.127,0-11.112,4.985-11.112,11.112L240.53,303.11L240.53,303.11z M255.53,277.936
	h21.287v21.287H255.53V277.936z"/>
<path d="M358.796,274.048c0-6.127-4.985-11.112-11.112-11.112h-29.063c-6.127,0-11.112,4.985-11.112,11.112v29.063
	c0,6.127,4.985,11.112,11.112,11.112h29.063c6.127,0,11.112-4.985,11.112-11.112V274.048z M343.796,299.223h-21.287v-21.287h21.287
	V299.223z"/>
<path d="M425.775,274.048c0-6.127-4.985-11.112-11.112-11.112H385.6c-6.127,0-11.112,4.985-11.112,11.112v29.063
	c0,6.127,4.985,11.112,11.112,11.112h29.063c6.127,0,11.112-4.985,11.112-11.112V274.048z M410.775,299.223h-21.287v-21.287h21.287
	V299.223z"/>
<path d="M240.53,364.482c0,6.127,4.985,11.111,11.112,11.111h29.063c6.127,0,11.112-4.984,11.112-11.111v-29.063
	c0-6.127-4.985-11.111-11.112-11.111h-29.063c-6.127,0-11.112,4.984-11.112,11.111L240.53,364.482L240.53,364.482z M255.53,339.308
	h21.287v21.286H255.53V339.308z"/>
<path d="M347.684,324.308h-29.063c-6.127,0-11.112,4.984-11.112,11.111v29.063c0,6.127,4.985,11.111,11.112,11.111h29.063
	c6.127,0,11.112-4.984,11.112-11.111v-29.063C358.796,329.292,353.811,324.308,347.684,324.308z M343.796,360.594h-21.287v-21.286
	h21.287V360.594z"/>
<path d="M414.664,324.308h-29.063c-6.127,0-11.112,4.984-11.112,11.111v29.063c0,6.127,4.985,11.111,11.112,11.111h29.063
	c6.127,0,11.112-4.984,11.112-11.111v-29.063C425.775,329.292,420.791,324.308,414.664,324.308z M410.775,360.594h-21.287v-21.286
	h21.287V360.594z"/>
<g>
</g>
<g>
</g>
<g>
</g>
<g>
</g>
<g>
</g>
<g>
</g>
<g>
</g>
<g>
</g>
<g>
</g>
<g>
</g>
<g>
</g>
<g>
</g>
<g>
</g>
<g>
</g>
<g>
</g>
</svg>
