<?xml version="1.0" encoding="iso-8859-1"?>
<!-- Generator: Adobe Illustrator 21.0.0, SVG Export Plug-In . SVG Version: 6.00 Build 0)  -->
<svg version="1.1" id="Capa_1" xmlns="http://www.w3.org/2000/svg" xmlns:xlink="http://www.w3.org/1999/xlink" x="0px" y="0px"
	 viewBox="0 0 512 512" style="enable-background:new 0 0 512 512;" xml:space="preserve">
<rect x="357.71" y="56.35" style="fill:#F3E8D7;" width="29.17" height="157.98"/>
<path style="fill:#33D8DD;" d="M457.365,95.796H287.233c-5.325,0-9.641-4.316-9.641-9.641V36.65c0-5.325,4.316-9.641,9.641-9.641
	h170.132c5.325,0,9.641,4.316,9.641,9.641v49.505C467.006,91.479,462.689,95.796,457.365,95.796z"/>
<path style="fill:#25B9C0;" d="M457.365,27.009h-47.019v68.787h47.019c5.325,0,9.641-4.317,9.641-9.641V36.65
	C467.006,31.325,462.689,27.009,457.365,27.009z"/>
<path style="fill:#EFEFEF;" d="M450.355,158.039H61.645c-6.802,0-12.481,5.186-13.099,11.959L26.484,418.936h459.032
	l-22.062-248.938C462.836,163.224,457.156,158.039,450.355,158.039z"/>
<path style="fill:#E2E2E2;" d="M463.454,169.998c-0.617-6.774-6.297-11.959-13.099-11.959h-45.438l22.967,260.898h57.632
	L463.454,169.998z"/>
<path style="fill:#0D6E9A;" d="M499.471,407.406H12.529c-6.92,0-12.529,5.61-12.529,12.529v52.527
	c0,6.92,5.609,12.529,12.529,12.529h486.942c6.92,0,12.529-5.609,12.529-12.529v-52.527
	C512,413.016,506.391,407.406,499.471,407.406z"/>
<path style="fill:#09627A;" d="M499.471,407.406H455.34v77.585h44.131c6.92,0,12.529-5.609,12.529-12.529v-52.527
	C512,413.016,506.391,407.406,499.471,407.406z"/>
<path style="fill:#464C50;" d="M210.164,213.239H81.746c-4.267,0-7.726-3.459-7.726-7.726s3.459-7.726,7.726-7.726h128.418
	c4.267,0,7.726,3.459,7.726,7.726S214.431,213.239,210.164,213.239z"/>
<path style="fill:#A0E557;" d="M419.007,241.716H251.956c-2.301,0-4.166-1.865-4.166-4.166v-46.454c0-2.301,1.865-4.166,4.166-4.166
	h167.051c2.301,0,4.166,1.865,4.166,4.166v46.454C423.173,239.851,421.308,241.716,419.007,241.716z"/>
<path style="fill:#93CC4A;" d="M419.007,186.929h-52.494v54.787h52.494c2.301,0,4.166-1.865,4.166-4.166v-46.454
	C423.173,188.795,421.308,186.929,419.007,186.929z"/>
<g>
	<path style="fill:#FFFFFF;" d="M281.45,308.254h-29.94c-2.055,0-3.721-1.666-3.721-3.721v-29.94c0-2.055,1.666-3.721,3.721-3.721
		h29.94c2.055,0,3.721,1.666,3.721,3.721v29.94C285.171,306.588,283.505,308.254,281.45,308.254z"/>
	<path style="fill:#FFFFFF;" d="M350.451,308.254h-29.94c-2.055,0-3.721-1.666-3.721-3.721v-29.94c0-2.055,1.666-3.721,3.721-3.721
		h29.94c2.055,0,3.721,1.666,3.721,3.721v29.94C354.172,306.588,352.506,308.254,350.451,308.254z"/>
	<path style="fill:#FFFFFF;" d="M419.452,308.254h-29.94c-2.055,0-3.721-1.666-3.721-3.721v-29.94c0-2.055,1.666-3.721,3.721-3.721
		h29.94c2.055,0,3.721,1.666,3.721,3.721v29.94C423.173,306.588,421.507,308.254,419.452,308.254z"/>
	<path style="fill:#FFFFFF;" d="M281.45,371.477h-29.94c-2.055,0-3.721-1.666-3.721-3.721v-29.94c0-2.055,1.666-3.721,3.721-3.721
		h29.94c2.055,0,3.721,1.666,3.721,3.721v29.94C285.171,369.811,283.505,371.477,281.45,371.477z"/>
	<path style="fill:#FFFFFF;" d="M350.451,371.477h-29.94c-2.055,0-3.721-1.666-3.721-3.721v-29.94c0-2.055,1.666-3.721,3.721-3.721
		h29.94c2.055,0,3.721,1.666,3.721,3.721v29.94C354.172,369.811,352.506,371.477,350.451,371.477z"/>
	<path style="fill:#FFFFFF;" d="M419.452,371.477h-29.94c-2.055,0-3.721-1.666-3.721-3.721v-29.94c0-2.055,1.666-3.721,3.721-3.721
		h29.94c2.055,0,3.721,1.666,3.721,3.721v29.94C423.173,369.811,421.507,371.477,419.452,371.477z"/>
</g>
<path style="fill:#464C50;" d="M350.82,451.036H161.18c-6.424,0-11.631,5.207-11.631,11.631v22.324h212.902v-22.324
	C362.451,456.243,357.244,451.036,350.82,451.036z"/>
<path style="fill:#FCB038;" d="M183.092,67.405l-9.69-2.954c-1.056-0.322-2.183-0.322-3.239,0l-9.679,2.953
	c-1.056,0.322-2.183,0.322-3.239,0l-9.683-2.953c-1.056-0.322-2.183-0.322-3.239,0l-9.679,2.953c-1.056,0.322-2.184,0.322-3.239,0
	l-9.675-2.953c-1.056-0.322-2.184-0.322-3.24,0l-9.679,2.953c-1.056,0.322-2.183,0.322-3.239,0l-9.802-2.99
	c-0.745-0.227-1.497,0.33-1.497,1.108v147.717h103.365V65.522c0-0.778-0.752-1.335-1.497-1.108l-9.812,2.991
	C185.274,67.727,184.147,67.727,183.092,67.405z"/>
<path style="fill:#FD8F31;" d="M196.141,64.414l-9.812,2.991c-1.055,0.321-2.182,0.321-3.237,0l-9.69-2.954
	c-1.056-0.322-2.183-0.322-3.239,0.001l-9.679,2.953c-1.056,0.322-2.183,0.322-3.239,0l-9.683-2.953
	c-1.056-0.322-2.183-0.322-3.239,0l-3.345,1.021V213.24h56.66V65.522C197.638,64.744,196.886,64.187,196.141,64.414z"/>
<path style="fill:#F3E8D7;" d="M144.069,170.203c-11.688-0.29-20.478-6.568-20.478-11.978c0-2.704,2.415-6.762,5.409-6.762
	c3.671,0,6.568,6.279,15.068,7.244v-19.222c-8.79-3.285-18.739-7.051-18.739-19.415c0-12.268,9.08-17.58,18.739-18.836v-2.705
	c0-1.256,1.449-2.414,3.284-2.414c1.642,0,3.285,1.159,3.285,2.414v2.512c6.279,0.193,16.518,2.028,16.518,7.631
	c0,2.221-1.546,6.665-5.12,6.665c-2.705,0-4.926-3.091-11.398-3.573v17c8.597,3.188,18.256,7.534,18.256,20.672
	c0,11.881-7.438,18.739-18.256,20.478v2.994c0,1.257-1.642,2.415-3.285,2.415c-1.835,0-3.284-1.159-3.284-2.415L144.069,170.203
	L144.069,170.203z M144.842,126.639v-14.586c-4.83,0.773-7.728,3.091-7.728,6.762C137.114,123.064,140.398,124.9,144.842,126.639z
	 M149.865,141.804v16.808c4.251-0.869,7.245-3.38,7.245-7.921C157.11,145.958,154.019,143.64,149.865,141.804z"/>
<path style="fill:#EFEFEF;" d="M442.091,53.676H317.506h-15c-4.267,0-7.726,3.459-7.726,7.726s3.459,7.726,7.726,7.726h15h124.585
	c4.267,0,7.726-3.459,7.726-7.726S446.358,53.676,442.091,53.676z"/>
<g>
</g>
<g>
</g>
<g>
</g>
<g>
</g>
<g>
</g>
<g>
</g>
<g>
</g>
<g>
</g>
<g>
</g>
<g>
</g>
<g>
</g>
<g>
</g>
<g>
</g>
<g>
</g>
<g>
</g>
</svg>
