<svg height="512pt" viewBox="0 0 512 512" width="512pt" xmlns="http://www.w3.org/2000/svg"><path d="m330.925781 89.496094h41.628907v41.625h-41.628907zm0 0" fill="#495959"/><path d="m330.925781 89.496094v12.488281h17.691407c5.75 0 10.40625 4.660156 10.40625 10.40625v18.730469h13.53125v-41.625zm0 0" fill="#3f4a4a"/><path d="m256 377.757812h234.144531l-39.679687-229.371093c-1.726563-9.976563-10.382813-17.265625-20.507813-17.265625h-347.914062c-10.125 0-18.785157 7.289062-20.507813 17.265625l-39.679687 229.371093zm0 0" fill="#bce8f1"/><path d="m450.464844 148.386719c-1.726563-9.976563-10.382813-17.265625-20.507813-17.265625h-21.851562c10.125 0 18.78125 7.289062 20.507812 17.265625l34.332031 198.457031c1.101563 6.363281-3.796874 12.183594-10.253906 12.183594h-196.691406s-224.601562 0-230.90625 0l-3.238281 18.730468h468.289062zm0 0" fill="#93dcfc"/><path d="m501.59375 481.820312h-491.1875c-5.746094 0-10.40625-4.65625-10.40625-10.40625v-83.25c0-5.75 4.660156-10.40625 10.40625-10.40625h491.1875c5.746094 0 10.40625 4.65625 10.40625 10.40625v83.25c0 5.75-4.660156 10.40625-10.40625 10.40625zm0 0" fill="#495959"/><path d="m351.738281 481.820312-27.128906-27.128906c-1.953125-1.953125-4.597656-3.050781-7.359375-3.050781h-123.542969c-2.757812 0-5.40625 1.097656-7.355469 3.050781l-27.132812 27.128906zm0 0" fill="#3f4a4a"/><path d="m491.1875 377.757812v104.0625h10.40625c5.746094 0 10.40625-4.65625 10.40625-10.40625v-83.25c0-5.75-4.660156-10.40625-10.40625-10.40625zm0 0" fill="#3f4a4a"/><path d="m468.292969 429.789062c0 11.496094-9.320313 20.8125-20.8125 20.8125-11.496094 0-20.8125-9.316406-20.8125-20.8125 0-11.496093 9.316406-20.8125 20.8125-20.8125 11.492187 0 20.8125 9.316407 20.8125 20.8125zm0 0" fill="#ffcd50"/><path d="m447.21875 408.976562c-1.019531 0-2.011719.097657-2.992188.238282 10.074219 1.453125 17.820313 10.097656 17.820313 20.574218 0 10.476563-7.746094 19.121094-17.820313 20.574219.980469.140625 1.972657.238281 2.992188.238281 11.496094 0 20.8125-9.316406 20.8125-20.8125 0-11.496093-9.316406-20.8125-20.8125-20.8125zm0 0" fill="#fcbc2b"/><path d="m457.886719 512h-20.8125c-5.75 0-10.40625-4.660156-10.40625-10.40625v-19.773438h41.625v19.773438c0 5.746094-4.660157 10.40625-10.40625 10.40625zm0 0" fill="#3f4a4a"/><path d="m74.925781 512h-20.8125c-5.746093 0-10.40625-4.660156-10.40625-10.40625v-19.773438h41.625v19.773438c0 5.746094-4.65625 10.40625-10.40625 10.40625zm0 0" fill="#3f4a4a"/><path d="m407.933594 221.660156h-139.445313c-5.746093 0-10.40625-4.660156-10.40625-10.40625v-37.464844c0-5.746093 4.660157-10.40625 10.40625-10.40625h139.445313c5.75 0 10.40625 4.660157 10.40625 10.40625v37.464844c0 5.746094-4.65625 10.40625-10.40625 10.40625zm0 0" fill="#6dc54a"/><path d="m407.933594 163.382812h-19.769532c5.746094 0 10.40625 4.660157 10.40625 10.40625v37.464844c0 5.746094-4.660156 10.40625-10.40625 10.40625h19.769532c5.75 0 10.40625-4.660156 10.40625-10.40625v-37.464844c0-5.746093-4.65625-10.40625-10.40625-10.40625zm0 0" fill="#5db33a"/><path d="m188.359375 96.78125-15.789063-15.789062c-1.625-1.625-4.261718-1.625-5.886718 0l-15.789063 15.789062-15.789062-15.789062c-1.625-1.625-4.261719-1.625-5.886719 0l-15.789062 15.789062-7.460938-7.464844c-2.621094-2.621094-7.105469-.765625-7.105469 2.945313v129.398437h104.0625v-129.398437c0-3.710938-4.484375-5.566407-7.105469-2.945313zm0 0" fill="#ddf5ff"/><path d="m188.359375 96.78125v124.878906h14.566406v-129.398437c0-3.710938-4.484375-5.566407-7.105469-2.945313zm0 0" fill="#c1e9f4"/><path d="m212.292969 229.464844h-122.796875c-4.3125 0-7.804688-3.496094-7.804688-7.804688 0-4.3125 3.492188-7.804687 7.804688-7.804687h122.796875c4.3125 0 7.804687 3.492187 7.804687 7.804687 0 4.308594-3.492187 7.804688-7.804687 7.804688zm0 0" fill="#93dcfc"/><g fill="#ffcd50"><path d="m278.894531 279.933594h-10.40625c-5.746093 0-10.40625-4.65625-10.40625-10.40625v-10.40625c0-5.746094 4.660157-10.40625 10.40625-10.40625h10.40625c5.746094 0 10.40625 4.660156 10.40625 10.40625v10.40625c0 5.75-4.660156 10.40625-10.40625 10.40625zm0 0"/><path d="m343.414062 279.933594h-10.40625c-5.746093 0-10.40625-4.65625-10.40625-10.40625v-10.40625c0-5.746094 4.660157-10.40625 10.40625-10.40625h10.40625c5.75 0 10.40625 4.660156 10.40625 10.40625v10.40625c0 5.75-4.65625 10.40625-10.40625 10.40625zm0 0"/><path d="m407.933594 279.933594h-10.40625c-5.746094 0-10.40625-4.65625-10.40625-10.40625v-10.40625c0-5.746094 4.660156-10.40625 10.40625-10.40625h10.40625c5.75 0 10.40625 4.660156 10.40625 10.40625v10.40625c0 5.75-4.65625 10.40625-10.40625 10.40625zm0 0"/><path d="m278.894531 342.375h-10.40625c-5.746093 0-10.40625-4.660156-10.40625-10.40625v-10.40625c0-5.75 4.660157-10.40625 10.40625-10.40625h10.40625c5.746094 0 10.40625 4.65625 10.40625 10.40625v10.40625c0 5.746094-4.660156 10.40625-10.40625 10.40625zm0 0"/><path d="m343.414062 342.375h-10.40625c-5.746093 0-10.40625-4.660156-10.40625-10.40625v-10.40625c0-5.75 4.660157-10.40625 10.40625-10.40625h10.40625c5.75 0 10.40625 4.65625 10.40625 10.40625v10.40625c0 5.746094-4.65625 10.40625-10.40625 10.40625zm0 0"/><path d="m407.933594 342.375h-10.40625c-5.746094 0-10.40625-4.660156-10.40625-10.40625v-10.40625c0-5.75 4.660156-10.40625 10.40625-10.40625h10.40625c5.75 0 10.40625 4.65625 10.40625 10.40625v10.40625c0 5.746094-4.65625 10.40625-10.40625 10.40625zm0 0"/></g><path d="m437.074219 89.496094h-170.667969c-5.746094 0-10.40625-4.660156-10.40625-10.40625v-68.683594c0-5.746094 4.660156-10.40625 10.40625-10.40625h170.667969c5.746093 0 10.40625 4.660156 10.40625 10.40625v68.683594c0 5.746094-4.660157 10.40625-10.40625 10.40625zm0 0" fill="#6dc54a"/><path d="m437.074219 0h-7.285157v61.398438c0 5.746093-4.660156 10.40625-10.40625 10.40625h-163.382812v7.285156c0 5.746094 4.660156 10.40625 10.40625 10.40625h170.667969c5.746093 0 10.40625-4.660156 10.40625-10.40625v-68.683594c0-5.746094-4.660157-10.40625-10.40625-10.40625zm0 0" fill="#5db33a"/><path d="m177.953125 138.925781h-54.117187c-4.308594 0-7.804688-3.492187-7.804688-7.804687 0-4.308594 3.496094-7.804688 7.804688-7.804688h54.117187c4.308594 0 7.804687 3.496094 7.804687 7.804688 0 4.3125-3.496093 7.804687-7.804687 7.804687zm0 0" fill="#495959"/><path d="m177.953125 169.105469h-54.117187c-4.308594 0-7.804688-3.496094-7.804688-7.804688 0-4.308593 3.496094-7.804687 7.804688-7.804687h54.117187c4.308594 0 7.804687 3.496094 7.804687 7.804687 0 4.308594-3.496093 7.804688-7.804687 7.804688zm0 0" fill="#495959"/><path d="m177.953125 199.285156h-54.117187c-4.308594 0-7.804688-3.496094-7.804688-7.804687 0-4.3125 3.496094-7.804688 7.804688-7.804688h54.117187c4.308594 0 7.804687 3.492188 7.804687 7.804688 0 4.308593-3.496093 7.804687-7.804687 7.804687zm0 0" fill="#495959"/></svg>