<?xml version="1.0" encoding="iso-8859-1"?>
<!-- Generator: Adobe Illustrator 19.0.0, SVG Export Plug-In . SVG Version: 6.00 Build 0)  -->
<svg version="1.1" id="Capa_1" xmlns="http://www.w3.org/2000/svg" xmlns:xlink="http://www.w3.org/1999/xlink" x="0px" y="0px"
	 viewBox="0 0 512 512" style="enable-background:new 0 0 512 512;" xml:space="preserve">
<path style="fill:#6DC82A;" d="M477.863,121.202c0,14.278-11.577,25.855-25.855,25.855H237.636v-51.71h214.372
	c11.467,0,21.196,7.47,24.57,17.812C477.411,115.689,477.863,118.39,477.863,121.202z"/>
<path style="fill:#FFC477;" d="M503.507,231.721v176.578c0,6.818-1.426,13.304-4.006,19.168
	c-7.38,16.838-24.198,28.596-43.758,28.596H56.259c-26.377,0-47.764-21.387-47.764-47.764V231.721
	c0-20.523,12.943-38.025,31.117-44.772c5.181-1.938,10.794-2.992,16.648-2.992h399.484
	C482.121,183.957,503.507,205.344,503.507,231.721z"/>
<path style="fill:#FFDAAA;" d="M503.507,231.721v176.578c0,6.818-1.426,13.304-4.006,19.168c-5.181,1.938-10.794,2.992-16.648,2.992
	H83.369c-26.377,0-47.764-21.387-47.764-47.764V206.117c0-6.818,1.426-13.304,4.006-19.168c5.181-1.938,10.794-2.992,16.648-2.992
	h399.484C482.121,183.957,503.507,205.344,503.507,231.721z"/>
<path style="fill:#4E901E;" d="M263.24,95.427v51.55c0,6.838-5.543,12.38-12.38,12.38H45.686c-2.58,0-5.101-0.251-7.531-0.743
	c-17.471-3.494-30.625-18.917-30.625-37.412c0-2.771,0.291-5.462,0.853-8.063c1.566-7.3,5.231-13.826,10.322-18.917
	c5.211-5.221,11.929-8.926,19.449-10.432c2.43-0.492,4.95-0.743,7.531-0.743H250.86C257.698,83.047,263.24,88.589,263.24,95.427z"/>
<path style="fill:#91DC5A;" d="M476.578,113.159c-3.374,10.342-13.103,17.812-24.57,17.812H237.636V95.347h214.372
	C463.475,95.347,473.204,102.817,476.578,113.159z"/>
<path style="fill:#5EAC24;" d="M263.24,95.427v35.464c0,6.838-5.543,12.38-12.38,12.38H45.686c-2.58,0-5.101-0.251-7.531-0.743
	c-14.87-2.972-26.618-14.589-29.771-29.39c1.566-7.3,5.231-13.826,10.322-18.917c5.211-5.221,11.929-8.926,19.449-10.432
	c2.43-0.492,4.95-0.743,7.531-0.743H250.86C257.698,83.047,263.24,88.589,263.24,95.427z"/>
<path d="M455.743,176.426H56.259c-30.484,0-55.295,24.801-55.295,55.295v176.578c0,30.484,24.811,55.295,55.295,55.295h399.484
	c30.484,0,55.295-24.811,55.295-55.295V231.721C511.038,201.227,486.227,176.426,455.743,176.426z M495.977,408.299
	c0,22.18-18.053,40.234-40.234,40.234H56.259c-22.18,0-40.234-18.053-40.234-40.234V231.721c0-22.18,18.053-40.234,40.234-40.234
	h399.484c22.18,0,40.234,18.053,40.234,40.234V408.299z"/>
<path d="M472.06,239.674H307.39c-4.157,0-7.531,3.374-7.531,7.531c0,4.167,3.374,7.531,7.531,7.531h164.67
	c4.167,0,7.531-3.364,7.531-7.531C479.59,243.047,476.227,239.674,472.06,239.674z"/>
<path d="M152.56,254.735h124.707c4.167,0,7.531-3.364,7.531-7.531c0-4.157-3.364-7.531-7.531-7.531H152.56
	c-4.167,0-7.531,3.374-7.531,7.531C145.03,251.371,148.393,254.735,152.56,254.735z"/>
<path d="M472.06,287.87h-36.348c-4.167,0-7.531,3.374-7.531,7.531c0,4.167,3.364,7.531,7.531,7.531h36.348
	c4.167,0,7.531-3.364,7.531-7.531C479.59,291.243,476.227,287.87,472.06,287.87z"/>
<path d="M152.56,302.931h253.029c4.157,0,7.531-3.364,7.531-7.531c0-4.157-3.374-7.531-7.531-7.531H152.56
	c-4.167,0-7.531,3.374-7.531,7.531C145.03,299.567,148.393,302.931,152.56,302.931z"/>
<path d="M472.06,336.066H256.182c-4.157,0-7.531,3.374-7.531,7.531c0,4.167,3.374,7.531,7.531,7.531H472.06
	c4.167,0,7.531-3.364,7.531-7.531C479.59,339.439,476.227,336.066,472.06,336.066z"/>
<path d="M226.059,336.066H152.56c-4.167,0-7.531,3.374-7.531,7.531c0,4.167,3.364,7.531,7.531,7.531h73.499
	c4.167,0,7.531-3.364,7.531-7.531C233.59,339.439,230.226,336.066,226.059,336.066z"/>
<path d="M86.404,288.153l0.001-0.003c-10.423-4.049-19.14-5.982-19.14-16.075c0-9.302,7.141-12.407,16.36-12.407
	c11.878,0,14.689,5.18,19.083,5.18c4.737,0,7.357-4.995,7.357-8.447c0-8.475-15.222-10.846-21.162-11.448v-5.87
	c0-4.488-3.651-8.14-8.14-8.14s-8.14,3.652-8.14,8.14v6.884c-13.666,3.336-21.161,12.836-21.161,26.928
	c0,35.771,45.253,22.135,45.253,48.797c0,12.733-9.193,15.406-16.906,15.406c-16.631,0-16.647-11.313-23.308-11.313
	c-4.152,0-7.494,4.622-7.494,8.447c0,6.8,9.404,15.184,23.616,17.505v5.669c0,4.488,3.651,8.14,8.14,8.14s8.14-3.651,8.14-8.14
	v-5.84c15.038-2.945,23.615-14.029,23.615-30.693C112.519,299.016,98.549,292.681,86.404,288.153z"/>
<path d="M45.67,166.887c0.006,0,0.012,0.001,0.018,0.001c0.003,0,0.006,0,0.01,0H250.86c8.284,0,15.403-5.091,18.395-12.3h182.753
	c15.814,0,29.108-11.065,32.532-25.855h19.929c4.16,0,7.531-3.372,7.531-7.531s-3.371-7.531-7.531-7.531H484.54l0,0
	c-3.424-14.79-16.718-25.855-32.532-25.855H269.255c-2.992-7.209-10.111-12.3-18.395-12.3H53.974
	c2.149-6.969,8.648-12.049,16.313-12.049h151.786c4.16,0,7.531-3.372,7.531-7.531s-3.371-7.531-7.531-7.531H70.288
	c-16.207,0-29.642,12.063-31.815,27.682c-0.002,0-0.004,0.001-0.006,0.001C16.688,79.563,0,98.469,0,121.202
	C0,146.389,20.484,166.879,45.67,166.887z M443.388,102.877h8.62c10.095,0,18.313,8.213,18.323,18.305c0,0.004,0-0.014,0,0.039
	c-0.011,10.092-8.229,18.304-18.323,18.304h-8.62V102.877z M270.771,102.877h157.556v36.649H270.771V102.877z M242.657,90.577h8.203
	c2.671,0,4.85,2.179,4.85,4.85c0,14.965,0,36.527,0,51.55c0,2.671-2.179,4.85-4.85,4.85h-8.203V90.577z M53.218,90.577h174.377
	v61.249H53.218V90.577z M38.155,91.511c0.001,0,0.001,0,0.002,0v59.382c-0.001,0-0.001,0-0.002,0
	c-13.254-3.364-23.094-15.403-23.094-29.691C15.061,106.914,24.901,94.875,38.155,91.511z"/>
<path d="M205.002,128.23H75.807c-4.16,0-7.531,3.372-7.531,7.531c0,4.159,3.371,7.531,7.531,7.531h129.194
	c4.16,0,7.531-3.372,7.531-7.531C212.532,131.602,209.162,128.23,205.002,128.23z"/>
<path d="M444.56,408.349c-6.638,6.297-17.78,4.38-22.353-3.905l-8.317-15.074c-7.668-13.899-24.767-19.837-38.92-13.518
	c-9.419,4.203-11.986,10.156-26.728,25.53c-2.797,3.078-2.571,7.84,0.507,10.637c3.076,2.797,7.839,2.572,10.638-0.506
	c15.85-16.899,16.627-19.635,21.72-21.906c7.065-3.157,15.677-0.063,19.597,7.04l8.317,15.074
	c9.324,16.902,32.085,20.658,45.902,7.56c3.018-2.862,3.146-7.628,0.283-10.646C452.344,405.614,447.577,405.488,444.56,408.349z"/>
<path d="M460.081,385.057h-5.415c-4.16,0-7.531,3.372-7.531,7.531c0,4.159,3.371,7.531,7.531,7.531h5.415
	c4.16,0,7.531-3.372,7.531-7.531C467.612,388.428,464.241,385.057,460.081,385.057z"/>
<g>
</g>
<g>
</g>
<g>
</g>
<g>
</g>
<g>
</g>
<g>
</g>
<g>
</g>
<g>
</g>
<g>
</g>
<g>
</g>
<g>
</g>
<g>
</g>
<g>
</g>
<g>
</g>
<g>
</g>
</svg>
