<?xml version="1.0" encoding="iso-8859-1"?>
<!-- Generator: Adobe Illustrator 19.0.0, SVG Export Plug-In . SVG Version: 6.00 Build 0)  -->
<svg version="1.1" id="Capa_1" xmlns="http://www.w3.org/2000/svg" xmlns:xlink="http://www.w3.org/1999/xlink" x="0px" y="0px"
	 viewBox="0 0 511.998 511.998" style="enable-background:new 0 0 511.998 511.998;" xml:space="preserve">
<path style="fill:#CC7400;" d="M344.907,438.122c0,36.584-59.979,66.238-133.969,66.238c-49.624,0-92.948-13.34-116.102-33.169
	c-11.367-9.734-17.866-21.031-17.866-33.069l0.01-71.206h267.917L344.907,438.122z"/>
<path style="fill:#FFC477;" d="M344.907,366.676c0,0.16,0,0.32-0.01,0.481c-0.521,36.364-60.299,65.757-133.959,65.757
	S77.5,403.521,76.98,367.157c-0.01-0.16-0.01-0.32-0.01-0.481c0-36.584,59.979-66.238,133.969-66.238
	S344.907,330.092,344.907,366.676z"/>
<path style="fill:#FFA733;" d="M344.897,366.917c0.01,0.08,0,0.16,0,0.24c-0.521,36.364-60.299,65.757-133.959,65.757
	S77.5,403.521,76.98,367.157c0-0.08-0.01-0.16,0-0.24H344.897z"/>
<path style="fill:#CC7400;" d="M321.272,366.386c0,24.336-40.961,44.466-94.24,47.811c-5.128,0.32-10.365,0.491-15.693,0.491
	c-60.71,0-109.933-21.622-109.933-48.302s49.223-48.302,109.933-48.302c5.328,0,10.566,0.17,15.693,0.491
	C280.311,321.92,321.272,342.05,321.272,366.386z"/>
<path style="fill:#EE8700;" d="M321.272,366.386c0,24.336-40.961,44.466-94.24,47.811c-53.279-3.345-94.24-23.475-94.24-47.811
	c0-24.336,40.961-44.466,94.24-47.811C280.311,321.92,321.272,342.05,321.272,366.386z"/>
<path style="fill:#AA6100;" d="M210.938,472.984c-44.71,0-84.304-10.829-108.64-27.471c-4.693-3.21-7.462-8.561-7.462-14.246
	v-31.511c-11.207-9.604-17.686-20.731-17.856-32.598l-0.006,40.078c-0.001-0.04-0.004-0.079-0.004-0.119
	c0.093,32.267-0.189,31.464,0.264,35.117c4.6,37.067,68.023,62.127,133.704,62.127c73.99,0,133.969-29.654,133.969-66.238v-31.006
	C344.506,443.53,284.678,472.984,210.938,472.984z"/>
<path style="fill:#CC7400;" d="M428.622,347.496c0,36.584-59.979,66.238-133.969,66.238c-49.624,0-92.948-13.34-116.102-33.169
	c-11.367-9.734-17.866-21.031-17.866-33.069l0.01-71.206h267.917L428.622,347.496z"/>
<path style="fill:#FFC477;" d="M428.622,276.05c0,0.16,0,0.32-0.01,0.481c-0.521,36.364-60.299,65.757-133.959,65.757
	s-133.438-29.394-133.959-65.757c-0.01-0.16-0.01-0.32-0.01-0.481c0-36.584,59.979-66.238,133.969-66.238
	S428.622,239.466,428.622,276.05z"/>
<path style="fill:#FFA733;" d="M428.612,276.29c0.01,0.08,0,0.16,0,0.24c-0.521,36.364-60.299,65.757-133.959,65.757
	s-133.438-29.394-133.959-65.757c0-0.08-0.01-0.16,0-0.24H428.612z"/>
<path style="fill:#CC7400;" d="M404.987,275.76c0,24.336-40.961,44.466-94.24,47.811c-5.128,0.32-10.365,0.491-15.693,0.491
	c-60.71,0-109.933-21.622-109.933-48.302s49.223-48.302,109.933-48.302c5.328,0,10.566,0.17,15.693,0.491
	C364.026,231.294,404.987,251.424,404.987,275.76z"/>
<path style="fill:#EE8700;" d="M404.987,275.76c0,24.336-40.961,44.466-94.24,47.811c-53.279-3.345-94.24-23.475-94.24-47.811
	s40.961-44.466,94.24-47.811C364.026,231.294,404.987,251.424,404.987,275.76z"/>
<path style="fill:#AA6100;" d="M294.653,382.358c-44.71,0-84.304-10.829-108.64-27.471c-4.693-3.21-7.462-8.561-7.462-14.246V309.13
	c-11.207-9.604-17.686-20.731-17.856-32.598l-0.006,40.078c-0.001-0.04-0.004-0.079-0.004-0.119
	c0.093,32.267-0.189,31.464,0.264,35.117c4.6,37.067,68.023,62.127,133.704,62.127c73.99,0,133.969-29.654,133.969-66.238v-31.006
	C428.221,352.904,368.393,382.358,294.653,382.358z"/>
<path style="fill:#CC7400;" d="M375.542,255.359c0,36.584-59.979,66.238-133.969,66.238c-49.624,0-92.948-13.34-116.102-33.169
	c-11.367-9.734-17.866-21.031-17.866-33.069l0.01-71.206h267.917L375.542,255.359z"/>
<path style="fill:#FFC477;" d="M375.542,183.914c0,0.16,0,0.32-0.01,0.481c-0.521,36.364-60.299,65.757-133.959,65.757
	s-133.438-29.394-133.959-65.757c-0.01-0.16-0.01-0.32-0.01-0.481c0-36.584,59.979-66.238,133.969-66.238
	S375.542,147.329,375.542,183.914z"/>
<path style="fill:#FFA733;" d="M375.532,184.154c0.01,0.08,0,0.16,0,0.24c-0.521,36.364-60.299,65.757-133.959,65.757
	s-133.438-29.394-133.959-65.757c0-0.08-0.01-0.16,0-0.24H375.532z"/>
<path style="fill:#CC7400;" d="M351.907,183.623c0,24.336-40.961,44.466-94.24,47.811c-5.128,0.32-10.365,0.491-15.693,0.491
	c-60.71,0-109.933-21.622-109.933-48.302s49.223-48.302,109.933-48.302c5.328,0,10.566,0.17,15.693,0.491
	C310.947,139.157,351.907,159.287,351.907,183.623z"/>
<path style="fill:#EE8700;" d="M351.907,183.623c0,24.336-40.961,44.466-94.24,47.811c-53.279-3.345-94.24-23.475-94.24-47.811
	s40.961-44.466,94.24-47.811C310.947,139.157,351.907,159.287,351.907,183.623z"/>
<path style="fill:#AA6100;" d="M241.574,290.221c-44.71,0-84.304-10.829-108.64-27.471c-4.693-3.21-7.462-8.561-7.462-14.246
	v-31.511c-11.207-9.604-17.686-20.731-17.856-32.598l-0.006,40.078c-0.001-0.04-0.004-0.079-0.004-0.119
	c0.093,32.267-0.189,31.464,0.264,35.117c4.6,37.067,68.023,62.127,133.704,62.127c73.99,0,133.969-29.654,133.969-66.238v-31.006
	C375.142,260.767,315.313,290.221,241.574,290.221z"/>
<path style="fill:#CC7400;" d="M433.628,145.196c0,36.584-59.979,66.238-133.969,66.238c-49.624,0-92.948-13.34-116.102-33.169
	c-11.367-9.734-17.866-21.031-17.866-33.069l0.01-71.206h267.917L433.628,145.196z"/>
<path style="fill:#FFC477;" d="M433.628,73.75c0,0.16,0,0.32-0.01,0.481c-0.521,36.364-60.299,65.757-133.959,65.757
	s-133.438-29.394-133.959-65.757c-0.01-0.16-0.01-0.32-0.01-0.481c0-36.584,59.979-66.238,133.969-66.238
	S433.628,37.166,433.628,73.75z"/>
<path style="fill:#FFA733;" d="M433.618,73.991c0.01,0.08,0,0.16,0,0.24c-0.521,36.364-60.299,65.757-133.959,65.757
	s-133.438-29.394-133.959-65.757c0-0.08-0.01-0.16,0-0.24C165.701,73.991,433.618,73.991,433.618,73.991z"/>
<path style="fill:#CC7400;" d="M409.993,73.46c0,24.336-40.961,44.466-94.24,47.811c-5.128,0.32-10.365,0.491-15.693,0.491
	c-60.71,0-109.933-21.622-109.933-48.302S239.35,25.158,300.06,25.158c5.328,0,10.566,0.17,15.693,0.491
	C369.033,28.994,409.993,49.124,409.993,73.46z"/>
<path style="fill:#EE8700;" d="M409.993,73.46c0,24.336-40.961,44.466-94.24,47.811c-53.279-3.345-94.24-23.475-94.24-47.811
	s40.961-44.466,94.24-47.811C369.033,28.994,409.993,49.124,409.993,73.46z"/>
<path style="fill:#AA6100;" d="M299.66,180.058c-44.71,0-84.304-10.829-108.64-27.471c-4.693-3.21-7.462-8.561-7.462-14.246V106.83
	c-11.207-9.604-17.686-20.731-17.856-32.598l-0.006,40.078c-0.001-0.04-0.004-0.079-0.004-0.119
	c0.093,32.267-0.189,31.464,0.264,35.117c4.6,37.067,68.023,62.127,133.704,62.127c73.99,0,133.969-29.654,133.969-66.238v-31.006
	C433.228,150.604,373.399,180.058,299.66,180.058z"/>
<path d="M441.14,145.196c-0.012-14.083,0.055-68.133-0.076-69.098c1.168-20.415-12.485-36.635-29.589-48.031
	c-3.452-2.299-8.116-1.366-10.415,2.086c-2.3,3.452-1.366,8.116,2.086,10.415c37.3,24.853,26.693,55.06-13.913,74.181
	c-0.211,0.088-0.416,0.187-0.616,0.292c-13.786,6.405-30.642,11.385-49.299,14.354c-0.003-0.001-0.005-0.002-0.008-0.004
	c-14.487,2.307-30.239,3.434-46.861,2.989c-4.144-0.11-7.598,3.16-7.71,7.306c-0.112,4.147,3.16,7.598,7.306,7.71
	c0.035,0.001,0.071,0,0.106,0.001v56.413c-2.013-0.121-14.575-0.247-31.203-2.823v-56.217c4.692,0.681,8.244-2.408,8.805-6.324
	c0.588-4.107-2.264-7.912-6.37-8.501c-8.32-1.192-16.274-2.797-23.772-4.748c0.034,0,0.068-0.002,0.103-0.003
	c-53.787-13.762-91.362-49.438-46.987-82.209c3.337-2.464,4.045-7.167,1.58-10.504c-2.465-3.337-7.167-4.044-10.504-1.58
	c-14.3,10.56-25.621,25.073-25.621,42.847v50.785c-34.551,13.32-56.564,34.762-56.564,59.368v71.456
	c0,18.928,13.019,35.973,34.742,48.892c-39.649,12.929-65.507,35.873-65.507,62.553v71.446c0,41.351,62.142,73.749,141.48,73.749
	c79.328,0,141.48-32.398,141.48-73.749v-24.396c48.582-11.547,81.561-36.925,81.561-67.049c-0.012-15.019,0.054-67.9-0.07-69.072
	c1.462-28.075-24.678-48.21-50.725-59.408v-13.75C419.127,191.254,441.14,169.813,441.14,145.196z M399.633,126.397
	c10.689-5.514,19.654-11.934,26.484-19.045v37.844c0,13.199-9.953,25.546-26.484,35.48V126.397z M307.172,147.403
	c19.808-0.516,31.105-2.723,31.205-2.735v56.32c-9.955,1.542-20.42,2.514-31.205,2.824V147.403z M214.714,133.089
	c9.465,3.642,19.922,6.691,31.209,9.042v56.014c-0.001,0-0.002,0-0.003-0.001c-11.407-2.564-21.923-5.909-31.206-9.875
	L214.714,133.089L214.714,133.089z M173.202,135.291c0-3.96,0-23.983,0-27.941c3.127,3.258,6.713,6.374,10.714,9.332
	c-0.003,0.001-0.006,0.001-0.008,0.002c4.812,3.551,10.343,6.91,15.783,9.724c0,16.325,0,37.855,0,54.27
	C168.213,161.765,173.639,143.651,173.202,135.291z M158.18,140.81v4.387c0,54.745,104.283,86.407,192.716,68.932
	c-5.469,4.128-11.882,7.796-18.157,10.746c-0.01,0-0.01,0-0.02,0.01c-0.518,0.166-35.149,17.746-89.623,17.746
	c-55.489,0-88.416-17.276-89.593-17.736c-22.674-10.676-36.865-25.227-36.865-40.991C116.639,167.089,132.813,151.646,158.18,140.81
	z M369.553,217.513c0,9.803,0,34.937,0,37.846c0,13.189-9.954,25.537-26.487,35.482v-54.28
	C352.758,231.548,362.112,225.254,369.553,217.513z M328.044,243.261v55.172l-0.002,0.001c-9.283,3.966-19.806,7.31-31.211,9.874
	v-55.973C314.225,248.718,324.083,244.596,328.044,243.261z M281.808,254.958v56.193c-29.529,3.635-24.361,2.231-31.203,2.825
	v-56.414C282.233,255.817,274.333,255.598,281.808,254.958z M208.945,334.717c9.513,3.675,19.988,6.729,31.213,9.072v55.963
	c-11.406-2.564-21.931-5.909-31.213-9.874V334.717z M204.379,311.152v-56.193c9.964,1.432,20.409,2.313,31.204,2.604v56.414
	C224.798,313.666,214.332,312.694,204.379,311.152z M167.444,318.002c5.508,1.793,11.277,3.385,17.286,4.767
	c0,0.102,7.542,1.616,9.194,1.923c0,21.181,0,45.46,0,57.585c-16.524-9.935-26.479-22.283-26.479-35.473L167.444,318.002
	L167.444,318.002z M159.612,299.044c-0.019-0.008-1.453-0.602-1.472-0.611v-55.172c9.903,3.86,20.996,6.947,31.216,9.063
	c0,6.063,0,49.99,0,55.973C179.425,306.078,169.078,302.988,159.612,299.044z M116.639,255.359v-37.846
	c6.83,7.111,15.793,13.53,26.479,19.038v54.28C126.583,280.897,116.639,268.549,116.639,255.359z M112.357,473.73
	c-16.532-9.934-26.484-22.281-26.484-35.48v-37.836c6.829,7.11,15.79,13.528,26.484,19.035V473.73z M158.593,491.199
	c-0.001,0-0.001,0-0.001,0c-11.408-2.564-21.924-5.909-31.207-9.875c-0.002-0.001-0.003-0.001-0.005-0.002v-55.162
	c0.002,0.001,0.003,0.001,0.005,0.002c9.514,3.675,19.98,6.73,31.206,9.063c0,0,0.001,0,0.002,0V491.199z M204.818,496.867
	c-10.785-0.31-21.25-1.282-31.203-2.824V437.86c9.964,1.432,20.408,2.313,31.203,2.604V496.867z M212.329,425.53
	c-0.012,0-0.023,0.002-0.035,0.002c-34.227-0.005-65.801-6.723-88.827-17.396c-0.005-0.002-0.012-0.005-0.016-0.007
	c-0.254-0.138-0.521-0.258-0.793-0.367c-22.618-10.685-36.787-25.21-36.787-40.958c0-21.852,27.28-41.371,66.549-51.456v31.457
	c0,36.694,48.923,66.328,115.371,72.548c-16.845,3.944-35.692,6.176-55.428,6.179C212.352,425.531,212.341,425.53,212.329,425.53z
	 M255.18,402.597v-56.183c29.625,3.36,24.275,2.049,31.203,2.605v56.404c-2.014-0.121-14.57-0.247-31.2-2.824
	C255.183,402.598,255.182,402.597,255.18,402.597z M251.045,494.043c-9.954,1.542-20.418,2.514-31.203,2.824h-0.001v-56.404l0,0
	c10.795-0.29,21.24-1.172,31.203-2.603v56.182H251.045z M297.28,481.322c-0.001,0.001-0.002,0.001-0.004,0.002
	c-9.284,3.966-19.799,7.311-31.206,9.875c-0.001,0-0.002,0-0.003,0.001v-55.973c0.001,0,0.002,0,0.003-0.001
	c11.227-2.333,21.692-5.388,31.206-9.063c0.001,0,0.002-0.001,0.004-0.001V481.322z M338.788,438.251
	c0,13.199-9.954,25.546-26.485,35.481v-53.769c9.153-0.591,18.005-1.632,26.485-3.065V438.251z M301.406,405.422v-56.404
	c16.391-0.437,26.581-2.092,31.203-2.604v56.183C332.052,402.65,319.718,404.849,301.406,405.422z M378.845,389.88
	c-9.862,4.22-20.452,7.453-31.213,9.874v-55.973c11.226-2.333,21.7-5.388,31.213-9.062V389.88z M420.349,346.805
	c0,13.19-9.945,25.538-26.479,35.473c-0.001,0-0.001,0.001-0.002,0.001v-54.28c1.123-0.682,15.244-7.341,26.481-19.039
	L420.349,346.805L420.349,346.805z M383.624,316.29c-0.485,0-32.87,17.782-89.678,17.796c-0.114-0.002-0.102,0-0.103,0
	c-17.639-0.003-34.577-1.785-49.997-4.976c78.967-0.21,140.729-32.528,140.729-73.749v-20.48
	C432.637,258.057,432.17,293.341,383.624,316.29z M353.4,198.145c0-10.667,0-44.37,0-55.967c1.626-0.339,3.682-0.785,5.458-1.198
	c-0.002-0.002-0.004-0.003-0.007-0.005c9.175-2.15,17.8-4.79,25.759-7.862v55.154c-0.002,0.001-0.003,0.001-0.005,0.002
	c-0.01,0.01-0.02,0.01-0.03,0.02C384.015,188.493,372.009,193.983,353.4,198.145z"/>
<path d="M217.402,29.545c45.089-18.354,111.858-19.79,160.449-1.588c3.883,1.456,8.213-0.514,9.668-4.4
	c1.455-3.885-0.515-8.213-4.4-9.668C330.967-5.648,260.266-4.123,211.738,15.63c-3.842,1.564-5.689,5.947-4.125,9.789
	C209.177,29.261,213.557,31.107,217.402,29.545z"/>
<path d="M311.758,112.988v-3.065c20.49-2.223,32.218-10.175,32.218-21.882c0-27.878-61.742-19.644-61.742-32.638
	c0-4.837,7.381-7.491,21.342-7.651c15.8-0.193,19.921,3.267,26.039,3.215c7.191-0.08,11.016-4.036,11.016-6.87
	c0-5.889-15.473-7.812-28.873-8.362c-0.213-2.234,0.689-4.073-1.452-6.169c-5.695-5.612-22.744-3.455-22.744,3.455v3.786
	c-18.628,2.664-28.873,9.524-28.873,19.369c0,25.053,61.742,15.666,61.742,32.528c0,7.842-12.008,9.524-22.073,9.554
	c-13.71,0.07-19.108-2.824-23.084-4.927c-2.404-1.272-4.897-2.594-8.643-2.594h-0.08c-5.759,0.03-11.207,3.295-11.207,6.72
	c0,5.658,13.78,11.046,32.218,12.639v2.914C287.562,121.605,311.758,121.577,311.758,112.988z"/>
<g>
</g>
<g>
</g>
<g>
</g>
<g>
</g>
<g>
</g>
<g>
</g>
<g>
</g>
<g>
</g>
<g>
</g>
<g>
</g>
<g>
</g>
<g>
</g>
<g>
</g>
<g>
</g>
<g>
</g>
</svg>
