<?xml version="1.0" encoding="iso-8859-1"?>
<!-- Generator: Adobe Illustrator 19.0.0, SVG Export Plug-In . SVG Version: 6.00 Build 0)  -->
<svg version="1.1" id="Layer_1" xmlns="http://www.w3.org/2000/svg" xmlns:xlink="http://www.w3.org/1999/xlink" x="0px" y="0px"
	 viewBox="0 0 512 512" style="enable-background:new 0 0 512 512;" xml:space="preserve">
<path style="fill:#C1C1C1;" d="M320.495,228.868c14.984,87.86-44.093,171.233-131.954,186.218S17.308,370.993,2.323,283.132
	S46.416,111.899,134.277,96.914S305.511,141.008,320.495,228.868z"/>
<path style="fill:#999999;" d="M275.042,236.62c10.704,62.758-31.495,122.31-94.253,133.013S58.479,338.138,47.775,275.38
	s31.495-122.31,94.253-133.013S264.339,173.862,275.042,236.62z"/>
<path style="fill:#5B5B5B;" d="M221.314,312.793c-1.626,1.608-3.749,2.412-5.869,2.412c-2.153,0-4.303-0.827-5.936-2.479
	l-108.07-109.289c-3.242-3.278-3.212-8.563,0.067-11.804s8.563-3.211,11.804,0.067l108.07,109.289
	C224.621,304.267,224.591,309.551,221.314,312.793z M114.466,260.472c-3.242-3.278-8.525-3.309-11.804-0.067
	c-3.278,3.242-3.308,8.527-0.067,11.804l43.809,44.304c1.633,1.651,3.783,2.479,5.936,2.479c2.12,0,4.242-0.804,5.869-2.412
	c3.278-3.242,3.308-8.527,0.067-11.804L114.466,260.472z"/>
<path style="fill:#FED76E;" d="M512,256.001c0,89.129-72.254,161.383-161.383,161.383S189.234,345.13,189.234,256.001
	S261.488,94.617,350.617,94.617S512,166.87,512,256.001z"/>
<path style="fill:#FEAF50;" d="M465.891,256.001c0,63.664-51.609,115.273-115.273,115.273s-115.273-51.61-115.273-115.273
	s51.609-115.273,115.273-115.273S465.891,192.337,465.891,256.001z"/>
<path style="fill:#AF773A;" d="M365.987,247.653h-7.023v-44.784h22.392c4.61,0,8.347-3.737,8.347-8.347
	c0-4.61-3.737-8.347-8.347-8.347h-22.392v-7.023c0-4.61-3.737-8.347-8.347-8.347c-4.61,0-8.347,3.737-8.347,8.347v7.023h-7.023
	c-21.553,0-39.087,17.534-39.087,39.087s17.534,39.087,39.087,39.087h7.023v44.784h-22.392c-4.61,0-8.347,3.737-8.347,8.347
	s3.737,8.347,8.347,8.347h22.392v7.023c0,4.61,3.737,8.347,8.347,8.347c4.61,0,8.347-3.737,8.347-8.347v-7.023h7.023
	c21.553,0,39.087-17.534,39.087-39.087S387.54,247.653,365.987,247.653z M335.248,247.653c-12.347,0-22.392-10.045-22.392-22.392
	c0-12.348,10.045-22.392,22.392-22.392h7.023v44.784H335.248z M365.987,309.133h-7.023v-44.784h7.023
	c12.347,0,22.392,10.045,22.392,22.392C388.38,299.088,378.335,309.133,365.987,309.133z"/>
<g>
</g>
<g>
</g>
<g>
</g>
<g>
</g>
<g>
</g>
<g>
</g>
<g>
</g>
<g>
</g>
<g>
</g>
<g>
</g>
<g>
</g>
<g>
</g>
<g>
</g>
<g>
</g>
<g>
</g>
</svg>
