<?xml version="1.0" encoding="iso-8859-1"?>
<!-- Generator: Adobe Illustrator 19.0.0, SVG Export Plug-In . SVG Version: 6.00 Build 0)  -->
<svg version="1.1" id="Layer_1" xmlns="http://www.w3.org/2000/svg" xmlns:xlink="http://www.w3.org/1999/xlink" x="0px" y="0px"
	 viewBox="0 0 512 512" style="enable-background:new 0 0 512 512;" xml:space="preserve">
<path style="fill:#C1C1C1;" d="M318.462,229.723c14.512,85.09-42.703,165.834-127.794,180.347
	c-85.09,14.513-165.834-42.703-180.346-127.793S53.025,116.443,138.116,101.93S303.949,144.633,318.462,229.723z"/>
<path style="fill:#999999;" d="M274.442,237.231c10.366,60.779-30.502,118.453-91.282,128.819
	c-60.779,10.366-118.453-30.502-128.819-91.281s30.502-118.453,91.282-128.819C206.402,135.584,264.076,176.452,274.442,237.231z"/>
<path style="fill:#FED76E;" d="M503.929,256c0,86.319-69.976,156.295-156.295,156.295S191.339,342.319,191.339,256
	S261.315,99.705,347.634,99.705S503.929,169.681,503.929,256z"/>
<path style="fill:#FEAF50;" d="M459.273,256c0,61.657-49.983,111.639-111.639,111.639S235.994,317.657,235.994,256
	s49.983-111.639,111.639-111.639S459.273,194.343,459.273,256z"/>
<path d="M200.548,361.961c1.131,4.32-1.454,8.737-5.773,9.868c-9.871,2.583-20.098,3.893-30.396,3.893
	c-66.016,0-119.723-53.707-119.723-119.723s53.707-119.723,119.723-119.723c12.472,0,24.767,1.911,36.541,5.682
	c4.252,1.361,6.596,5.911,5.234,10.165c-1.361,4.252-5.912,6.601-10.165,5.233c-10.179-3.257-20.814-4.911-31.611-4.911
	c-57.1,0-103.554,46.455-103.554,103.554s46.455,103.554,103.554,103.554c8.916,0,17.765-1.133,26.302-3.367
	C194.997,355.06,199.418,357.642,200.548,361.961z M108.963,249.377c-3.657,2.561-4.547,7.602-1.985,11.259l34.61,49.429
	c1.573,2.246,4.081,3.448,6.629,3.448c1.602,0,3.219-0.474,4.63-1.463c3.657-2.561,4.547-7.602,1.985-11.259l-34.61-49.429
	C117.661,247.707,112.62,246.816,108.963,249.377z M512,256c0,90.639-73.74,164.379-164.379,164.379
	c-33.87,0-65.378-10.3-91.563-27.927c-27.138,18.286-58.71,27.927-91.679,27.927C73.74,420.379,0,346.639,0,256
	S73.74,91.621,164.379,91.621c32.902,0,64.516,9.67,91.658,27.942c26.189-17.637,57.705-27.942,91.584-27.942
	C438.26,91.621,512,165.361,512,256z M242.29,382.093c-22.601-18.912-40.059-43.771-49.946-72.15
	c-0.178-0.206-0.354-0.416-0.513-0.643L115.067,199.67c-2.561-3.657-1.672-8.698,1.985-11.259c3.656-2.56,8.699-1.673,11.259,1.985
	l55.502,79.265c-0.373-4.507-0.572-9.061-0.572-13.662c0-50.589,22.977-95.906,59.036-126.083
	c-23.374-14.486-50.125-22.127-77.898-22.127c-81.724,0-148.211,66.488-148.211,148.211s66.487,148.211,148.211,148.211
	C192.207,404.211,218.923,396.587,242.29,382.093z M495.832,256c0-81.723-66.488-148.211-148.211-148.211
	S199.411,174.277,199.411,256s66.488,148.211,148.211,148.211S495.832,337.723,495.832,256z M467.344,256
	c0,66.016-53.707,119.723-119.723,119.723S227.898,322.016,227.898,256s53.707-119.723,119.723-119.723S467.344,189.984,467.344,256
	z M451.175,256c0-57.1-46.455-103.554-103.554-103.554S244.067,198.901,244.067,256s46.455,103.554,103.554,103.554
	S451.175,313.1,451.175,256z M400.361,285.77c0,20.873-16.981,37.855-37.855,37.855h-6.802v6.802c0,4.466-3.618,8.084-8.084,8.084
	s-8.084-3.618-8.084-8.084v-6.802h-21.686c-4.466,0-8.084-3.618-8.084-8.084s3.618-8.084,8.084-8.084h21.686v-43.372h-6.802
	c-20.873,0-37.855-16.981-37.855-37.855s16.981-37.855,37.855-37.855h6.802v-6.802c0-4.466,3.618-8.084,8.084-8.084
	s8.084,3.618,8.084,8.084v6.802h21.686c4.466,0,8.084,3.618,8.084,8.084c0,4.466-3.618,8.084-8.084,8.084h-21.686v43.372h6.802
	C383.38,247.916,400.361,264.897,400.361,285.77z M339.537,247.916v-43.372h-6.802c-11.958,0-21.686,9.728-21.686,21.686
	s9.729,21.686,21.686,21.686H339.537z M384.193,285.77c0-11.958-9.728-21.686-21.686-21.686h-6.802v43.372h6.802
	C374.464,307.457,384.193,297.729,384.193,285.77z"/>
<g>
</g>
<g>
</g>
<g>
</g>
<g>
</g>
<g>
</g>
<g>
</g>
<g>
</g>
<g>
</g>
<g>
</g>
<g>
</g>
<g>
</g>
<g>
</g>
<g>
</g>
<g>
</g>
<g>
</g>
</svg>
