<?xml version="1.0" encoding="iso-8859-1"?>
<!-- Generator: Adobe Illustrator 19.0.0, SVG Export Plug-In . SVG Version: 6.00 Build 0)  -->
<svg version="1.1" id="Capa_1" xmlns="http://www.w3.org/2000/svg" xmlns:xlink="http://www.w3.org/1999/xlink" x="0px" y="0px"
	 viewBox="0 0 512.001 512.001" style="enable-background:new 0 0 512.001 512.001;" xml:space="preserve">
<path style="fill:#CC7400;" d="M348.343,443.742c0,37.7-61.808,68.258-138.054,68.258c-51.137,0-95.782-13.747-119.643-34.181
	c-11.713-10.031-18.411-21.673-18.411-34.077l0.01-73.377h276.087L348.343,443.742z"/>
<path style="fill:#FFC477;" d="M348.343,370.117c0,0.165,0,0.33-0.01,0.495c-0.537,37.473-62.138,67.763-138.044,67.763
	s-137.507-30.29-138.044-67.763c-0.01-0.165-0.01-0.33-0.01-0.495c0-37.7,61.808-68.258,138.054-68.258
	S348.343,332.417,348.343,370.117z"/>
<path style="fill:#FFA733;" d="M348.332,370.365c0.01,0.083,0,0.165,0,0.248c-0.537,37.473-62.138,67.763-138.044,67.763
	s-137.507-30.29-138.044-67.763c0-0.083-0.01-0.165,0-0.248H348.332z"/>
<path style="fill:#CC7400;" d="M323.987,369.818c0,25.078-42.21,45.822-97.114,49.269c-5.284,0.33-10.681,0.506-16.172,0.506
	c-62.561,0-113.285-22.281-113.285-49.775s50.724-49.775,113.285-49.775c5.49,0,10.888,0.175,16.172,0.506
	C281.777,323.996,323.987,344.74,323.987,369.818z"/>
<path style="fill:#EE8700;" d="M323.987,369.818c0,25.078-42.21,45.822-97.114,49.269c-54.904-3.447-97.114-24.191-97.114-49.269
	c0-25.078,42.21-45.822,97.114-49.269C281.777,323.996,323.987,344.74,323.987,369.818z"/>
<path style="fill:#AA6100;" d="M210.289,479.667c-46.074,0-86.875-11.159-111.953-28.308c-4.836-3.308-7.69-8.822-7.69-14.681
	v-32.472c-11.548-9.897-18.226-21.363-18.401-33.592l-0.006,41.301c-0.001-0.041-0.004-0.082-0.004-0.123
	c0.096,33.251-0.195,32.423,0.272,36.188c4.74,38.197,70.097,64.022,137.782,64.022c76.246,0,138.054-30.558,138.054-68.258v-31.952
	C347.93,449.315,286.277,479.667,210.289,479.667z"/>
<g>
	<path style="fill:#884D00;" d="M122.752,422.905v73.625c-5.542-2.25-10.712-4.706-15.48-7.348v-73.625
		C112.04,418.199,117.21,420.655,122.752,422.905z"/>
	<path style="fill:#884D00;" d="M170.391,435.475V509.1c-5.305-0.784-10.475-1.724-15.48-2.817v-73.625
		C159.915,433.752,165.086,434.691,170.391,435.475z"/>
	<path style="fill:#884D00;" d="M218.029,438.262v73.625c-2.559,0.083-5.139,0.113-7.74,0.113s-5.181-0.031-7.74-0.113v-73.625
		c2.559,0.083,5.139,0.114,7.74,0.114C212.889,438.375,215.469,438.344,218.029,438.262z"/>
	<path style="fill:#884D00;" d="M265.667,432.658v73.625c-5.005,1.094-10.176,2.033-15.48,2.817v-73.625
		C255.491,434.691,260.662,433.752,265.667,432.658z"/>
	<path style="fill:#884D00;" d="M313.305,415.557v73.625c-4.768,2.642-9.938,5.098-15.48,7.348v-73.625
		C303.357,420.655,308.537,418.199,313.305,415.557z"/>
</g>
<path style="fill:#CC7400;" d="M434.611,350.352c0,37.7-61.808,68.258-138.054,68.258c-51.137,0-95.782-13.747-119.643-34.181
	c-11.713-10.031-18.411-21.673-18.411-34.077l0.01-73.377H434.6L434.611,350.352z"/>
<path style="fill:#FFC477;" d="M434.611,276.727c0,0.165,0,0.33-0.01,0.495c-0.537,37.473-62.138,67.763-138.044,67.763
	s-137.507-30.29-138.044-67.763c-0.01-0.165-0.01-0.33-0.01-0.495c0-37.7,61.808-68.258,138.054-68.258
	S434.611,239.027,434.611,276.727z"/>
<path style="fill:#FFA733;" d="M434.6,276.975c0.01,0.083,0,0.165,0,0.248c-0.537,37.473-62.138,67.763-138.044,67.763
	s-137.507-30.29-138.044-67.763c0-0.083-0.01-0.165,0-0.248H434.6z"/>
<path style="fill:#CC7400;" d="M410.255,276.428c0,25.078-42.21,45.822-97.114,49.269c-5.284,0.33-10.681,0.506-16.172,0.506
	c-62.561,0-113.285-22.281-113.285-49.775c0-27.493,50.724-49.775,113.285-49.775c5.49,0,10.888,0.175,16.172,0.506
	C368.045,230.606,410.255,251.35,410.255,276.428z"/>
<path style="fill:#EE8700;" d="M410.255,276.428c0,25.078-42.21,45.822-97.114,49.269c-54.904-3.447-97.114-24.191-97.114-49.269
	s42.21-45.822,97.114-49.269C368.045,230.606,410.255,251.35,410.255,276.428z"/>
<path style="fill:#AA6100;" d="M296.557,386.277c-46.074,0-86.875-11.159-111.953-28.308c-4.836-3.308-7.69-8.822-7.69-14.681
	v-32.473c-11.548-9.897-18.226-21.363-18.401-33.592l-0.006,41.301c-0.001-0.041-0.004-0.082-0.004-0.123
	c0.096,33.251-0.195,32.423,0.272,36.188c4.74,38.197,70.097,64.022,137.782,64.022c76.246,0,138.054-30.558,138.054-68.258V318.4
	C434.198,355.925,372.545,386.277,296.557,386.277z"/>
<g>
	<path style="fill:#884D00;" d="M209.02,329.515v73.625c-5.542-2.25-10.712-4.706-15.48-7.348v-73.625
		C198.308,324.809,203.478,327.265,209.02,329.515z"/>
	<path style="fill:#884D00;" d="M256.658,342.085v73.625c-5.305-0.784-10.475-1.724-15.48-2.817v-73.625
		C246.183,340.362,251.354,341.301,256.658,342.085z"/>
	<path style="fill:#884D00;" d="M304.297,344.872v73.625c-2.559,0.083-5.139,0.114-7.74,0.114c-2.601,0-5.181-0.031-7.74-0.114
		v-73.625c2.559,0.083,5.139,0.114,7.74,0.114C299.157,344.985,301.737,344.954,304.297,344.872z"/>
	<path style="fill:#884D00;" d="M351.935,339.268v73.625c-5.005,1.094-10.176,2.033-15.48,2.817v-73.625
		C341.759,341.301,346.93,340.362,351.935,339.268z"/>
	<path style="fill:#884D00;" d="M399.573,322.167v73.625c-4.768,2.642-9.938,5.098-15.48,7.348v-73.625
		C389.625,327.265,394.805,324.809,399.573,322.167z"/>
</g>
<path style="fill:#CC7400;" d="M379.912,255.406c0,37.7-61.808,68.258-138.054,68.258c-51.137,0-95.782-13.747-119.643-34.181
	c-11.713-10.031-18.411-21.673-18.411-34.077l0.01-73.377h276.087L379.912,255.406z"/>
<path style="fill:#FFC477;" d="M379.912,181.781c0,0.165,0,0.33-0.01,0.495c-0.537,37.473-62.138,67.763-138.044,67.763
	s-137.507-30.29-138.044-67.763c-0.01-0.165-0.01-0.33-0.01-0.495c0-37.7,61.808-68.258,138.054-68.258
	S379.912,144.081,379.912,181.781z"/>
<path style="fill:#FFA733;" d="M379.902,182.029c0.01,0.083,0,0.165,0,0.248c-0.537,37.473-62.138,67.763-138.044,67.763
	s-137.507-30.29-138.044-67.763c0-0.083-0.01-0.165,0-0.248H379.902z"/>
<path style="fill:#CC7400;" d="M355.556,181.482c0,25.078-42.21,45.822-97.114,49.269c-5.284,0.33-10.681,0.506-16.172,0.506
	c-62.561,0-113.285-22.281-113.285-49.775s50.724-49.775,113.285-49.775c5.49,0,10.888,0.175,16.172,0.506
	C313.347,135.66,355.556,156.403,355.556,181.482z"/>
<path style="fill:#EE8700;" d="M355.556,181.482c0,25.078-42.21,45.822-97.114,49.269c-54.904-3.447-97.114-24.191-97.114-49.269
	s42.21-45.822,97.114-49.269C313.347,135.66,355.556,156.403,355.556,181.482z"/>
<path style="fill:#AA6100;" d="M241.858,291.33c-46.074,0-86.875-11.159-111.953-28.308c-4.836-3.308-7.69-8.822-7.69-14.681
	v-32.473c-11.548-9.897-18.226-21.363-18.401-33.592l-0.006,41.301c-0.001-0.041-0.004-0.082-0.004-0.123
	c0.096,33.251-0.195,32.423,0.272,36.188c4.74,38.197,70.097,64.022,137.782,64.022c76.246,0,138.054-30.558,138.054-68.258v-31.952
	C379.499,260.978,317.846,291.33,241.858,291.33z"/>
<g>
	<path style="fill:#884D00;" d="M154.322,234.569v73.625c-5.542-2.25-10.712-4.706-15.48-7.348v-73.625
		C143.609,229.863,148.78,232.319,154.322,234.569z"/>
	<path style="fill:#884D00;" d="M201.96,247.139v73.625c-5.305-0.784-10.475-1.724-15.48-2.817v-73.625
		C191.485,245.416,196.656,246.355,201.96,247.139z"/>
	<path style="fill:#884D00;" d="M249.598,249.925v73.625c-2.559,0.083-5.139,0.113-7.74,0.113s-5.181-0.031-7.74-0.113v-73.625
		c2.559,0.083,5.139,0.114,7.74,0.114C244.459,250.039,247.039,250.008,249.598,249.925z"/>
	<path style="fill:#884D00;" d="M297.237,244.322v73.625c-5.005,1.094-10.176,2.033-15.48,2.817v-73.625
		C287.061,246.355,292.231,245.416,297.237,244.322z"/>
	<path style="fill:#884D00;" d="M344.875,227.221v73.625c-4.768,2.642-9.938,5.098-15.48,7.348v-73.625
		C334.926,232.319,340.107,229.863,344.875,227.221z"/>
</g>
<path style="fill:#CC7400;" d="M439.77,141.883c0,37.7-61.808,68.258-138.054,68.258c-51.137,0-95.782-13.747-119.643-34.181
	c-11.713-10.031-18.411-21.673-18.411-34.077l0.01-73.377h276.087L439.77,141.883z"/>
<path style="fill:#FFC477;" d="M439.77,68.258c0,0.165,0,0.33-0.01,0.495c-0.537,37.473-62.138,67.763-138.044,67.763
	s-137.507-30.29-138.044-67.763c-0.01-0.165-0.01-0.33-0.01-0.495C163.662,30.558,225.47,0,301.716,0S439.77,30.558,439.77,68.258z"
	/>
<path style="fill:#FFA733;" d="M439.759,68.506c0.01,0.083,0,0.165,0,0.248c-0.537,37.473-62.138,67.763-138.044,67.763
	s-137.507-30.29-138.044-67.763c0-0.083-0.01-0.165,0-0.248H439.759z"/>
<path style="fill:#CC7400;" d="M415.414,67.959c0,25.078-42.21,45.822-97.114,49.269c-5.284,0.33-10.681,0.506-16.172,0.506
	c-62.561,0-113.285-22.281-113.285-49.775s50.724-49.775,113.285-49.775c5.49,0,10.888,0.175,16.172,0.506
	C373.204,22.137,415.414,42.881,415.414,67.959z"/>
<path style="fill:#EE8700;" d="M415.414,67.959c0,25.078-42.21,45.822-97.114,49.269c-54.904-3.447-97.114-24.191-97.114-49.269
	s42.21-45.822,97.114-49.269C373.204,22.137,415.414,42.881,415.414,67.959z"/>
<path style="fill:#884D00;" d="M310.301,59.382l-0.466-0.086c-1.671-0.308-3.307-0.594-4.892-0.874
	c-11.833-2.085-21.179-3.731-21.179-9.071c0-4.988,7.604-7.713,21.99-7.885c10.151-0.123,15.699,1.224,19.747,2.206
	c2.612,0.634,4.669,1.127,7.082,1.107c7.409-0.084,11.355-4.162,11.355-7.075c0-6.076-15.945-8.052-29.752-8.624v-3.121
	c0-1.154-0.517-2.274-1.495-3.236c-2.14-2.108-6.348-3.354-10.988-3.305c-6.983,0.106-12.452,3.122-12.452,6.867v3.904
	c-19.196,2.741-29.752,9.814-29.752,19.96c0,14.173,19.134,17.627,36.016,20.675c14.198,2.564,27.608,4.985,27.608,12.844
	c0,8.077-12.371,9.811-22.749,9.844c-14.122,0.066-19.694-2.914-23.785-5.08c-2.48-1.312-5.043-2.668-8.909-2.668
	c-0.025,0-0.051,0-0.075,0c-5.939,0.027-11.555,3.391-11.555,6.924c0,5.831,14.207,11.375,33.202,13.019v3.008
	c0,3.753,5.476,6.694,12.468,6.694c6.991,0,12.467-2.95,12.467-6.714v-3.162c21.115-2.293,33.201-10.486,33.201-22.551
	C347.386,67.395,329.139,62.741,310.301,59.382z"/>
<path style="fill:#AA6100;" d="M301.716,177.808c-46.074,0-86.875-11.159-111.953-28.308c-4.836-3.308-7.69-8.822-7.69-14.681
	v-32.473c-11.548-9.897-18.226-21.363-18.401-33.592l-0.006,41.301c-0.001-0.041-0.004-0.082-0.004-0.123
	c0.096,33.251-0.195,32.423,0.272,36.188c4.74,38.197,70.097,64.022,137.782,64.022c76.246,0,138.054-30.558,138.054-68.258v-31.951
	C439.357,147.456,377.704,177.808,301.716,177.808z"/>
<g>
	<path style="fill:#884D00;" d="M214.179,121.046v73.625c-5.542-2.25-10.712-4.706-15.48-7.348v-73.625
		C203.467,116.34,208.637,118.796,214.179,121.046z"/>
	<path style="fill:#884D00;" d="M261.818,133.616v73.625c-5.305-0.784-10.475-1.723-15.48-2.817v-73.625
		C251.343,131.893,256.513,132.832,261.818,133.616z"/>
	<path style="fill:#884D00;" d="M309.456,136.403v73.625c-2.559,0.083-5.139,0.114-7.74,0.114c-2.601,0-5.181-0.031-7.74-0.114
		v-73.625c2.559,0.083,5.139,0.114,7.74,0.114S306.896,136.485,309.456,136.403z"/>
	<path style="fill:#884D00;" d="M357.094,130.799v73.625c-5.005,1.094-10.176,2.033-15.48,2.817v-73.625
		C346.918,132.832,352.089,131.893,357.094,130.799z"/>
	<path style="fill:#884D00;" d="M404.732,113.698v73.625c-4.768,2.642-9.938,5.098-15.48,7.348v-73.625
		C394.784,118.796,399.964,116.34,404.732,113.698z"/>
</g>
<g>
</g>
<g>
</g>
<g>
</g>
<g>
</g>
<g>
</g>
<g>
</g>
<g>
</g>
<g>
</g>
<g>
</g>
<g>
</g>
<g>
</g>
<g>
</g>
<g>
</g>
<g>
</g>
<g>
</g>
</svg>
