<?xml version="1.0" encoding="iso-8859-1"?>
<!-- Generator: Adobe Illustrator 19.0.0, SVG Export Plug-In . SVG Version: 6.00 Build 0)  -->
<svg version="1.1" id="Layer_1" xmlns="http://www.w3.org/2000/svg" xmlns:xlink="http://www.w3.org/1999/xlink" x="0px" y="0px"
	 viewBox="0 0 512 512" style="enable-background:new 0 0 512 512;" xml:space="preserve">
<path style="fill:#A62C18;" d="M467.537,346.167h-345.6c-20.092,0-36.379-16.287-36.379-36.379V91.514
	c0-20.092,16.287-36.379,36.379-36.379h345.6c20.092,0,36.379,16.287,36.379,36.379v218.274
	C503.916,329.88,487.629,346.167,467.537,346.167z"/>
<path style="fill:#848484;" d="M503.916,195.262H85.558v-78.36h418.358V195.262z"/>
<path style="fill:#FE5A3A;" d="M390.063,456.865h-345.6c-20.092,0-36.379-16.287-36.379-36.379V202.212
	c0-20.092,16.287-36.379,36.379-36.379h345.6c20.092,0,36.379,16.287,36.379,36.379v218.274
	C426.442,440.577,410.155,456.865,390.063,456.865z"/>
<path style="fill:#FE7D49;" d="M426.442,202.212v68.503H8.084v-68.503c0-20.092,16.287-36.379,36.379-36.379h345.6
	C410.155,165.833,426.442,182.12,426.442,202.212z"/>
<path style="fill:#FEAF50;" d="M158.246,313.83H73.502c-6.364,0-11.523-5.159-11.523-11.523v-63.185
	c0-6.364,5.159-11.523,11.523-11.523h84.743c6.364,0,11.523,5.159,11.523,11.523v63.185
	C169.768,308.671,164.61,313.83,158.246,313.83z"/>
<path style="fill:#FED76E;" d="M169.768,239.122v31.593H61.979v-31.593c0-6.364,5.159-11.523,11.523-11.523h84.743
	C164.61,227.599,169.768,232.758,169.768,239.122z"/>
<path style="fill:#FEE66B;" d="M137.432,270.714c0,8.929-7.239,16.168-16.168,16.168h-10.779c-8.929,0-16.168-7.239-16.168-16.168
	c0-8.929,7.239-16.168,16.168-16.168h10.779C130.192,254.546,137.432,261.785,137.432,270.714z"/>
<path d="M467.537,45.811h-345.6c-24.517,0-44.463,20.048-44.463,44.688v46.933c0,4.466,3.618,8.084,8.084,8.084
	s8.084-3.618,8.084-8.084v-13.306h402.189v62.675H460.8c-4.466,0-8.084,3.618-8.084,8.084c0,4.466,3.618,8.084,8.084,8.084h35.032
	v107.15c0,15.725-12.692,28.519-28.295,28.519h-11.048c-4.466,0-8.084,3.618-8.084,8.084s3.618,8.084,8.084,8.084h11.048
	c24.517,0,44.463-20.047,44.463-44.687V90.499C512,65.858,492.054,45.811,467.537,45.811z M93.642,107.958V90.499
	c0-15.726,12.692-28.52,28.295-28.52h345.6c15.603,0,28.295,12.794,28.295,28.52v17.459H93.642z M389.951,157.192H44.575
	C19.997,157.192,0,177.188,0,201.767v219.847c0,24.578,19.997,44.575,44.575,44.575H389.95c24.579,0,44.575-19.997,44.575-44.575
	V201.767C434.526,177.188,414.529,157.192,389.951,157.192z M418.358,421.614c0,15.664-12.743,28.407-28.407,28.407H44.575
	c-15.664,0-28.407-12.743-28.407-28.407V201.767c0-15.663,12.743-28.407,28.407-28.407H389.95c15.664,0,28.407,12.743,28.407,28.407
	v219.847H418.358z M73.538,322.271h84.672c10.832,0,19.644-8.812,19.644-19.642v-63.648c0-10.832-8.812-19.644-19.644-19.644H73.538
	c-10.832,0-19.644,8.812-19.644,19.644v63.648C53.895,313.46,62.707,322.271,73.538,322.271z M158.209,306.103H73.538
	c-1.915,0-3.475-1.558-3.475-3.474v-23.74h17.54c3.325,9.463,12.346,16.269,22.931,16.269h10.68
	c10.585,0,19.606-6.805,22.931-16.269h17.54v23.74C161.684,304.545,160.126,306.103,158.209,306.103z M129.347,270.856
	c0,4.485-3.649,8.134-8.134,8.134h-10.68c-4.485,0-8.134-3.649-8.134-8.234c0-4.485,3.649-8.135,8.134-8.135h10.68
	c4.485,0,8.134,3.65,8.134,8.135V270.856z M73.538,235.507h84.672c1.915,0,3.475,1.559,3.475,3.475v23.738h-17.54
	c-3.325-9.463-12.346-16.269-22.931-16.269h-10.68c-10.567,0-19.576,6.782-22.915,16.269H70.063v-23.738
	C70.063,237.067,71.622,235.507,73.538,235.507z M113.179,390.106c0,4.466-3.618,8.084-8.084,8.084H61.979
	c-4.466,0-8.084-3.618-8.084-8.084s3.618-8.084,8.084-8.084h43.116C109.56,382.022,113.179,385.641,113.179,390.106z
	 M203.003,390.106c0,4.466-3.618,8.084-8.084,8.084h-43.116c-4.466,0-8.084-3.618-8.084-8.084s3.618-8.084,8.084-8.084h43.116
	C199.385,382.022,203.003,385.641,203.003,390.106z M292.828,390.106c0,4.466-3.618,8.084-8.084,8.084h-43.116
	c-4.466,0-8.084-3.618-8.084-8.084s3.618-8.084,8.084-8.084h43.116C289.21,382.022,292.828,385.641,292.828,390.106z
	 M382.653,390.106c0,4.466-3.618,8.084-8.084,8.084h-43.116c-4.466,0-8.084-3.618-8.084-8.084s3.618-8.084,8.084-8.084h43.116
	C379.034,382.022,382.653,385.641,382.653,390.106z M319.057,270.805c0,4.466-3.618,8.084-8.084,8.084h-1.078
	c-4.466,0-8.084-3.618-8.084-8.084c0-4.466,3.618-8.084,8.084-8.084h1.078C315.438,262.721,319.057,266.34,319.057,270.805z
	 M335.225,270.805c0-4.833-2.592-9.349-6.766-11.781c-3.857-2.248-5.161-7.198-2.912-11.056c2.249-3.858,7.198-5.16,11.056-2.912
	c9.122,5.318,14.791,15.186,14.791,25.75c0,10.566-5.669,20.433-14.792,25.751c-1.281,0.746-2.682,1.101-4.065,1.101
	c-2.782,0-5.49-1.437-6.991-4.014c-2.248-3.858-0.944-8.807,2.912-11.056C332.633,280.155,335.225,275.64,335.225,270.805z
	 M383.73,270.805c0,18.294-9.799,35.365-25.574,44.55c-1.281,0.745-2.68,1.099-4.062,1.099c-2.783,0-5.492-1.438-6.993-4.017
	c-2.246-3.859-0.94-8.807,2.918-11.055c10.821-6.3,17.543-18.017,17.543-30.578s-6.721-24.276-17.541-30.577
	c-3.859-2.246-5.165-7.196-2.919-11.054c2.246-3.859,7.196-5.167,11.054-2.919C373.93,235.441,383.73,252.511,383.73,270.805z"/>
<g>
</g>
<g>
</g>
<g>
</g>
<g>
</g>
<g>
</g>
<g>
</g>
<g>
</g>
<g>
</g>
<g>
</g>
<g>
</g>
<g>
</g>
<g>
</g>
<g>
</g>
<g>
</g>
<g>
</g>
</svg>
