<?xml version="1.0" encoding="iso-8859-1"?>
<!-- Generator: Adobe Illustrator 19.0.0, SVG Export Plug-In . SVG Version: 6.00 Build 0)  -->
<svg version="1.1" id="Layer_1" xmlns="http://www.w3.org/2000/svg" xmlns:xlink="http://www.w3.org/1999/xlink" x="0px" y="0px"
	 viewBox="0 0 512 512" style="enable-background:new 0 0 512 512;" xml:space="preserve">
<path style="fill:#FE7D49;" d="M512,122.435v267.13c0,24.588-19.933,44.522-44.522,44.522H44.522
	C19.933,434.087,0,414.153,0,389.565v-267.13c0-24.588,19.933-44.522,44.522-44.522h422.957C492.066,77.913,512,97.847,512,122.435z
	"/>
<path style="fill:#FE5A3A;" d="M512,178.087v211.478c0,24.588-19.933,44.522-44.522,44.522H44.522
	C19.933,434.087,0,414.153,0,389.565V178.087H512z"/>
<path style="fill:#FED76E;" d="M155.058,222.609H67.551c-6.571,0-11.898-5.327-11.898-11.898v-65.247
	c0-6.571,5.327-11.898,11.898-11.898h87.506c6.571,0,11.898,5.327,11.898,11.898v65.245
	C166.957,217.282,161.629,222.609,155.058,222.609z"/>
<path style="fill:#FEAF50;" d="M166.957,178.087v32.623c0,6.571-5.327,11.898-11.898,11.898H67.551
	c-6.571,0-11.898-5.327-11.898-11.898v-32.623H166.957z"/>
<path style="fill:#A62C18;" d="M130.783,345.043c0,4.61-3.738,8.348-8.348,8.348H55.652c-4.61,0-8.348-3.738-8.348-8.348
	s3.738-8.348,8.348-8.348h66.783C127.045,336.696,130.783,340.433,130.783,345.043z M233.739,336.696h-66.783
	c-4.61,0-8.348,3.738-8.348,8.348s3.738,8.348,8.348,8.348h66.783c4.61,0,8.348-3.738,8.348-8.348S238.349,336.696,233.739,336.696z
	 M345.043,336.696h-66.783c-4.61,0-8.348,3.738-8.348,8.348s3.738,8.348,8.348,8.348h66.783c4.61,0,8.348-3.738,8.348-8.348
	S349.654,336.696,345.043,336.696z M456.348,336.696h-66.783c-4.61,0-8.348,3.738-8.348,8.348s3.738,8.348,8.348,8.348h66.783
	c4.61,0,8.348-3.738,8.348-8.348S460.958,336.696,456.348,336.696z"/>
<path style="fill:#FEE66B;" d="M116.87,194.783h-11.13c-9.22,0-16.696-7.475-16.696-16.696l0,0c0-9.22,7.475-16.696,16.696-16.696
	h11.13c9.22,0,16.696,7.475,16.696,16.696l0,0C133.565,187.307,126.09,194.783,116.87,194.783z"/>
<path style="fill:#D4E8FF;" d="M399.026,178.087c0,4.61-3.738,8.348-8.348,8.348h-1.113c-4.61,0-8.348-3.738-8.348-8.348
	c0-4.61,3.738-8.348,8.348-8.348h1.113C395.288,169.739,399.026,173.477,399.026,178.087z M417.124,151.605
	c-3.987-2.31-9.097-0.951-11.409,3.039c-2.311,3.989-0.951,9.097,3.039,11.409c4.297,2.49,6.968,7.101,6.968,12.035
	c0,4.934-2.669,9.545-6.968,12.035c-3.989,2.312-5.349,7.42-3.039,11.409c1.548,2.671,4.351,4.165,7.231,4.165
	c1.42,0,2.859-0.363,4.177-1.126c9.433-5.465,15.293-15.613,15.293-26.482S426.557,157.07,417.124,151.605z M439.381,132.312
	c-3.988-2.307-9.096-0.947-11.406,3.044c-2.31,3.99-0.947,9.097,3.044,11.406c11.162,6.458,18.095,18.461,18.095,31.324
	s-6.933,24.867-18.094,31.326c-3.99,2.31-5.354,7.416-3.044,11.406c1.547,2.675,4.351,4.168,7.233,4.168
	c1.419,0,2.857-0.363,4.174-1.124c16.301-9.434,26.427-26.973,26.427-45.776S455.682,141.745,439.381,132.312z"/>
<g>
</g>
<g>
</g>
<g>
</g>
<g>
</g>
<g>
</g>
<g>
</g>
<g>
</g>
<g>
</g>
<g>
</g>
<g>
</g>
<g>
</g>
<g>
</g>
<g>
</g>
<g>
</g>
<g>
</g>
</svg>
