<?xml version="1.0" encoding="iso-8859-1"?>
<!-- Generator: Adobe Illustrator 19.0.0, SVG Export Plug-In . SVG Version: 6.00 Build 0)  -->
<svg version="1.1" id="Layer_1" xmlns="http://www.w3.org/2000/svg" xmlns:xlink="http://www.w3.org/1999/xlink" x="0px" y="0px"
	 viewBox="0 0 512 512" style="enable-background:new 0 0 512 512;" xml:space="preserve">
<path style="fill:#A62C18;" d="M474.435,349.107h-356.87C96.818,349.107,80,332.289,80,311.542V86.151
	c0-20.747,16.818-37.565,37.565-37.565h356.87c20.747,0,37.565,16.818,37.565,37.565v225.391
	C512,332.289,495.182,349.107,474.435,349.107z"/>
<path style="fill:#848484;" d="M512,193.281H80v-80.915h432V193.281z"/>
<path style="fill:#FE5A3A;" d="M394.435,463.415H37.565C16.818,463.415,0,446.596,0,425.849V200.458
	c0-20.747,16.818-37.565,37.565-37.565h356.87c20.747,0,37.565,16.818,37.565,37.565v225.391
	C432,446.595,415.182,463.415,394.435,463.415z"/>
<path style="fill:#FE7D49;" d="M432,200.458v70.737H0v-70.737c0-20.747,16.818-37.565,37.565-37.565h356.87
	C415.182,162.893,432,179.711,432,200.458z"/>
<path style="fill:#FEAF50;" d="M155.058,315.716H67.551c-6.571,0-11.898-5.327-11.898-11.898v-65.245
	c0-6.571,5.327-11.898,11.898-11.898h87.506c6.571,0,11.898,5.327,11.898,11.898v65.245
	C166.957,310.389,161.629,315.716,155.058,315.716z"/>
<path style="fill:#FED76E;" d="M166.957,238.572v32.623H55.652v-32.623c0-6.571,5.327-11.898,11.898-11.898h87.506
	C161.629,226.672,166.957,232.001,166.957,238.572z"/>
<path style="fill:#FEE66B;" d="M133.565,271.194c0,9.22-7.475,16.696-16.696,16.696h-11.13c-9.22,0-16.696-7.475-16.696-16.696
	c0-9.22,7.475-16.696,16.696-16.696h11.13C126.09,254.498,133.565,261.974,133.565,271.194z"/>
<path style="fill:#A62C18;" d="M108.522,393.629c0,4.61-3.738,8.348-8.348,8.348H55.652c-4.61,0-8.348-3.738-8.348-8.348
	c0-4.61,3.738-8.348,8.348-8.348h44.522C104.784,385.281,108.522,389.019,108.522,393.629z M192.927,385.281h-44.522
	c-4.61,0-8.348,3.738-8.348,8.348c0,4.61,3.738,8.348,8.348,8.348h44.522c4.61,0,8.348-3.738,8.348-8.348
	C201.275,389.019,197.538,385.281,192.927,385.281z M285.682,385.281H241.16c-4.61,0-8.348,3.738-8.348,8.348
	c0,4.61,3.738,8.348,8.348,8.348h44.522c4.61,0,8.348-3.738,8.348-8.348C294.029,389.019,290.292,385.281,285.682,385.281z
	 M378.435,385.281h-44.522c-4.61,0-8.348,3.738-8.348,8.348c0,4.61,3.738,8.348,8.348,8.348h44.522c4.61,0,8.348-3.738,8.348-8.348
	C386.783,389.019,383.045,385.281,378.435,385.281z"/>
<path style="fill:#D4E8FF;" d="M321.113,271.194c0,4.61-3.738,8.348-8.348,8.348h-1.113c-4.61,0-8.348-3.738-8.348-8.348
	s3.738-8.348,8.348-8.348h1.113C317.375,262.846,321.113,266.584,321.113,271.194z M339.21,244.713
	c-3.989-2.31-9.096-0.951-11.408,3.039c-2.311,3.989-0.951,9.097,3.039,11.408c4.297,2.489,6.967,7.101,6.967,12.035
	s-2.669,9.545-6.967,12.035c-3.989,2.311-5.35,7.418-3.039,11.408c1.548,2.672,4.35,4.165,7.231,4.165
	c1.42,0,2.859-0.363,4.176-1.126c9.434-5.465,15.294-15.612,15.294-26.482C354.504,260.324,348.644,250.178,339.21,244.713z
	 M361.468,225.419c-3.988-2.308-9.096-0.947-11.406,3.044c-2.31,3.99-0.947,9.097,3.044,11.406
	c11.16,6.459,18.094,18.462,18.094,31.326s-6.933,24.866-18.094,31.326c-3.99,2.31-5.354,7.416-3.044,11.406
	c1.547,2.675,4.351,4.168,7.233,4.168c1.419,0,2.857-0.363,4.174-1.124c16.302-9.433,26.428-26.974,26.428-45.775
	S377.769,234.852,361.468,225.419z"/>
<g>
</g>
<g>
</g>
<g>
</g>
<g>
</g>
<g>
</g>
<g>
</g>
<g>
</g>
<g>
</g>
<g>
</g>
<g>
</g>
<g>
</g>
<g>
</g>
<g>
</g>
<g>
</g>
<g>
</g>
</svg>
