<?xml version="1.0" encoding="iso-8859-1"?>
<!-- Generator: Adobe Illustrator 19.0.0, SVG Export Plug-In . SVG Version: 6.00 Build 0)  -->
<svg version="1.1" id="Capa_1" xmlns="http://www.w3.org/2000/svg" xmlns:xlink="http://www.w3.org/1999/xlink" x="0px" y="0px"
	 viewBox="0 0 512.001 512.001" style="enable-background:new 0 0 512.001 512.001;" xml:space="preserve">
<path style="fill:#CC7400;" d="M267.28,255.918h-22.721c-29.017,1.246-55.837-9.147-75.958-27.039
	c-5.552-4.918-10.591-10.415-15.016-16.394c-4.492-6.055-8.371-12.601-11.519-19.563c-2.382-5.246-4.361-10.722-5.881-16.394
	c-1.694-6.295-2.831-12.83-3.344-19.552c-0.11-1.268-0.186-2.547-0.241-3.826c-0.186-4.241-0.11-8.438,0.196-12.569
	c0.481-6.7,1.596-13.235,3.279-19.553c1.487-5.662,3.432-11.137,5.793-16.394c3.104-6.929,6.929-13.486,11.388-19.552
	c4.361-5.956,9.333-11.454,14.82-16.394c17.913-16.153,41.334-26.383,67.302-27.498h29.935l1.573,172.331l0.131,14.23
	L267.28,255.918z"/>
<g>
	<path style="fill:#AA6100;" d="M199.968,68.69h-31.892c-5.487,4.94-10.459,10.438-14.82,16.394h31.902
		C189.519,79.128,194.481,73.63,199.968,68.69z"/>
	<path style="fill:#AA6100;" d="M173.77,104.636h-31.903c-2.361,5.257-4.306,10.732-5.793,16.394h31.892
		C169.464,115.369,171.409,109.893,173.77,104.636z"/>
	<path style="fill:#AA6100;" d="M164.742,156.965c-0.11-1.268-0.186-2.535-0.241-3.814c-0.186-4.241-0.11-8.438,0.196-12.558
		c-0.066-0.011-0.143-0.011-0.208-0.011h-31.694c-0.306,4.131-0.382,8.328-0.196,12.569c0.055,1.279,0.131,2.557,0.241,3.826h31.651
		C164.578,156.977,164.655,156.977,164.742,156.965z"/>
	<path style="fill:#AA6100;" d="M168.086,176.528h-31.903c1.52,5.672,3.497,11.147,5.881,16.394h31.902
		C171.573,187.676,169.606,182.2,168.086,176.528z"/>
	<path style="fill:#AA6100;" d="M185.486,212.485h-31.903c4.426,5.979,9.464,11.476,15.016,16.394h31.892
		C194.939,223.961,189.912,218.464,185.486,212.485z"/>
</g>
<path style="fill:#FFC477;" d="M379.24,152.44c-1.934,55.531-46.351,101.062-102.79,103.478
	c-59.291,2.535-109.412-43.476-111.948-102.767c-0.011-0.241-0.022-0.47-0.022-0.711c-2.143-58.996,43.738-108.724,102.789-111.248
	c59.291-2.535,109.412,43.476,111.948,102.778C379.338,146.823,379.348,149.642,379.24,152.44z"/>
<path style="fill:#CC7400;" d="M289.642,226.978c-1.312,0.295-2.612,0.558-3.924,0.787c-41.957,7.388-82.756-19.432-92.286-61.433
	c-9.815-43.313,17.334-86.373,60.646-96.198c10.777-2.437,21.542-2.601,31.782-0.787c30.908,5.486,57.04,28.896,64.416,61.433
	C360.102,174.091,332.953,217.163,289.642,226.978z"/>
<path style="fill:#EE8700;" d="M289.642,226.978c-1.312,0.295-2.612,0.558-3.924,0.787c-30.897-5.487-57.04-28.908-64.416-61.433
	c-9.815-43.313,17.334-86.373,60.646-96.198c1.301-0.295,2.612-0.558,3.912-0.787c30.908,5.486,57.04,28.896,64.416,61.433
	C360.102,174.091,332.953,217.163,289.642,226.978z"/>
<path style="fill:#884D00;" d="M277.342,138.751l0.001-0.003l-2.044-0.751c-10.881-3.998-16.559-6.477-16.559-14.873
	c0-4.649,1.72-7.861,5.26-9.819c3.345-1.851,7.634-2.24,10.641-2.24c7.162,0,11.04,1.996,13.876,3.455
	c1.715,0.882,3.069,1.58,4.672,1.58c4.605,0,7.151-4.856,7.151-8.211c0-8.238-14.795-10.542-20.568-11.127v-5.705
	c0-4.363-3.549-7.912-7.912-7.912s-7.912,3.55-7.912,7.912v6.691c-13.283,3.242-20.568,12.476-20.568,26.172
	c0,18.835,13.237,23.809,24.917,28.198c11.069,4.158,19.066,7.164,19.066,19.231c0,12.376-8.935,14.974-16.431,14.974
	c-9.93,0-13.886-4.265-16.776-7.379c-1.724-1.86-3.354-3.617-5.877-3.617c-4.035,0-7.285,4.492-7.285,8.21
	c0,6.609,9.14,14.758,22.954,17.015v5.51c0,4.363,3.549,7.912,7.912,7.912s7.912-3.549,7.912-7.912v-5.676
	c14.617-2.862,22.952-13.636,22.952-29.831C302.723,149.309,289.146,143.152,277.342,138.751z"/>
<path style="fill:#FFA733;" d="M379.24,152.44c-1.934,55.531-46.351,101.062-102.79,103.478
	c-59.291,2.535-109.412-43.476-111.948-102.767c-0.011-0.241-0.022-0.47-0.022-0.711h27.039c0.229,4.602,0.864,9.246,1.912,13.891
	c9.825,43.313,52.897,70.471,96.21,60.646c36.033-8.164,60.876-39.334,62.547-74.537h27.051V152.44z"/>
<path style="fill:#CC7400;" d="M134.782,470.808H112.06c-29.017,1.246-55.837-9.147-75.958-27.039
	c-5.552-4.918-10.591-10.415-15.016-16.394c-4.492-6.055-8.371-12.601-11.519-19.563c-2.382-5.246-4.361-10.722-5.881-16.394
	c-1.694-6.295-2.831-12.83-3.344-19.552c-0.11-1.268-0.186-2.547-0.241-3.826c-0.186-4.241-0.11-8.438,0.196-12.569
	c0.481-6.7,1.596-13.235,3.279-19.553c1.487-5.662,3.432-11.137,5.793-16.394c3.104-6.929,6.929-13.486,11.388-19.552
	c4.361-5.956,9.333-11.454,14.82-16.394c17.913-16.153,41.334-26.383,67.302-27.498h29.935l1.573,172.331l0.131,14.23
	L134.782,470.808z"/>
<g>
	<path style="fill:#AA6100;" d="M67.469,283.58H35.578c-5.487,4.94-10.459,10.438-14.82,16.394H52.66
		C57.02,294.017,61.982,288.52,67.469,283.58z"/>
	<path style="fill:#AA6100;" d="M41.271,319.526H9.37c-2.361,5.257-4.306,10.732-5.793,16.394h31.892
		C36.965,330.258,38.911,324.783,41.271,319.526z"/>
	<path style="fill:#AA6100;" d="M32.244,371.855c-0.11-1.268-0.186-2.535-0.241-3.814c-0.186-4.241-0.11-8.438,0.196-12.558
		c-0.066-0.011-0.143-0.011-0.208-0.011H0.298c-0.306,4.131-0.382,8.328-0.196,12.569c0.055,1.279,0.131,2.557,0.241,3.826h31.651
		C32.08,371.867,32.157,371.867,32.244,371.855z"/>
	<path style="fill:#AA6100;" d="M35.588,391.418H3.686c1.52,5.672,3.497,11.147,5.881,16.394h31.902
		C39.075,402.566,37.108,397.09,35.588,391.418z"/>
	<path style="fill:#AA6100;" d="M52.988,427.375H21.085c4.426,5.979,9.464,11.476,15.016,16.394h31.892
		C62.441,438.851,57.414,433.354,52.988,427.375z"/>
</g>
<path style="fill:#FFC477;" d="M246.741,367.33c-1.934,55.531-46.351,101.062-102.79,103.478
	C84.661,473.343,34.54,427.332,32.003,368.041c-0.011-0.241-0.022-0.47-0.022-0.711C29.839,308.335,75.72,258.606,134.77,256.082
	c59.291-2.535,109.412,43.476,111.948,102.778C246.839,361.713,246.85,364.532,246.741,367.33z"/>
<path style="fill:#CC7400;" d="M157.144,441.868c-1.312,0.296-2.612,0.558-3.924,0.787c-41.957,7.388-82.756-19.432-92.286-61.433
	c-9.815-43.313,17.334-86.373,60.646-96.198c10.777-2.437,21.542-2.601,31.782-0.787c30.908,5.486,57.04,28.896,64.416,61.433
	C227.604,388.981,200.455,432.053,157.144,441.868z"/>
<path style="fill:#EE8700;" d="M157.144,441.868c-1.312,0.296-2.612,0.558-3.924,0.787c-30.897-5.487-57.04-28.908-64.416-61.433
	c-9.815-43.313,17.334-86.373,60.646-96.198c1.301-0.295,2.612-0.558,3.912-0.787c30.908,5.486,57.04,28.896,64.416,61.433
	C227.604,388.981,200.455,432.053,157.144,441.868z"/>
<path style="fill:#FFA733;" d="M246.741,367.33c-1.934,55.531-46.351,101.062-102.79,103.478
	C84.661,473.343,34.54,427.332,32.003,368.041c-0.011-0.241-0.022-0.47-0.022-0.711H59.02c0.229,4.602,0.864,9.246,1.912,13.891
	c9.825,43.313,52.897,70.471,96.21,60.646c36.033-8.164,60.876-39.334,62.547-74.537h27.051V367.33z"/>
<path style="fill:#CC7400;" d="M399.967,470.808h-22.722c-29.017,1.246-55.837-9.147-75.958-27.039
	c-5.552-4.918-10.591-10.415-15.016-16.394c-4.492-6.055-8.371-12.601-11.519-19.563c-2.382-5.246-4.361-10.722-5.88-16.394
	c-1.694-6.295-2.831-12.83-3.344-19.552c-0.109-1.268-0.186-2.547-0.241-3.826c-0.186-4.241-0.109-8.438,0.196-12.569
	c0.481-6.7,1.596-13.235,3.279-19.553c1.487-5.662,3.432-11.137,5.793-16.394c3.103-6.929,6.929-13.486,11.388-19.552
	c4.361-5.956,9.333-11.454,14.82-16.394c17.913-16.153,41.334-26.383,67.302-27.498H398l1.573,172.331l0.131,14.23L399.967,470.808z
	"/>
<g>
	<path style="fill:#AA6100;" d="M332.654,283.58h-31.892c-5.487,4.94-10.459,10.438-14.82,16.394h31.902
		C322.206,294.017,327.167,288.52,332.654,283.58z"/>
	<path style="fill:#AA6100;" d="M306.457,319.526h-31.903c-2.361,5.257-4.306,10.732-5.793,16.394h31.892
		C302.15,330.258,304.095,324.783,306.457,319.526z"/>
	<path style="fill:#AA6100;" d="M297.428,371.855c-0.109-1.268-0.186-2.535-0.241-3.814c-0.186-4.241-0.109-8.438,0.196-12.558
		c-0.066-0.011-0.143-0.011-0.208-0.011h-31.693c-0.306,4.131-0.382,8.328-0.196,12.569c0.055,1.279,0.131,2.557,0.241,3.826h31.651
		C297.265,371.867,297.342,371.867,297.428,371.855z"/>
	<path style="fill:#AA6100;" d="M300.774,391.418h-31.903c1.52,5.672,3.497,11.147,5.88,16.394h31.902
		C304.259,402.566,302.292,397.09,300.774,391.418z"/>
	<path style="fill:#AA6100;" d="M318.173,427.375H286.27c4.426,5.979,9.464,11.476,15.016,16.394h31.892
		C327.627,438.851,322.598,433.354,318.173,427.375z"/>
</g>
<path style="fill:#FFC477;" d="M511.926,367.33c-1.934,55.531-46.351,101.062-102.79,103.478
	c-59.291,2.535-109.412-43.476-111.948-102.767c-0.011-0.241-0.022-0.47-0.022-0.711c-2.143-58.996,43.738-108.724,102.789-111.248
	c59.291-2.535,109.412,43.476,111.948,102.778C512.024,361.713,512.034,364.532,511.926,367.33z"/>
<path style="fill:#CC7400;" d="M422.328,441.868c-1.312,0.296-2.612,0.558-3.924,0.787c-41.957,7.388-82.756-19.432-92.286-61.433
	c-9.815-43.313,17.334-86.373,60.646-96.198c10.777-2.437,21.542-2.601,31.782-0.787c30.908,5.486,57.04,28.896,64.416,61.433
	C492.788,388.981,465.64,432.053,422.328,441.868z"/>
<path style="fill:#EE8700;" d="M422.328,441.868c-1.312,0.296-2.612,0.558-3.924,0.787c-30.897-5.487-57.04-28.908-64.416-61.433
	c-9.815-43.313,17.334-86.373,60.646-96.198c1.301-0.295,2.612-0.558,3.912-0.787c30.908,5.486,57.04,28.896,64.416,61.433
	C492.788,388.981,465.64,432.053,422.328,441.868z"/>
<path style="fill:#FFA733;" d="M511.926,367.33c-1.934,55.531-46.351,101.062-102.79,103.478
	c-59.291,2.535-109.412-43.476-111.948-102.767c-0.011-0.241-0.022-0.47-0.022-0.711h27.039c0.229,4.602,0.864,9.246,1.912,13.891
	c9.825,43.313,52.897,70.471,96.21,60.646c36.033-8.164,60.876-39.334,62.547-74.537h27.051V367.33z"/>
<g>
	<path style="fill:#884D00;" d="M170.839,309.913c-2.554,0-4.056,1.202-5.257,3.605l-24.634,47.614l-24.783-47.614
		c-1.352-2.403-2.704-3.605-5.258-3.605c-4.206,0-10.064,2.704-10.064,6.609c0,0.601,0.151,1.351,0.601,2.253l26.995,48.643h-8.777
		c-4.28,0-7.748,3.469-7.748,7.748s3.468,7.748,7.748,7.748h13.325v7.921h-13.325c-4.28,0-7.748,3.469-7.748,7.748
		s3.468,7.748,7.748,7.748h13.325v8.122c0,3.455,3.904,5.257,7.96,5.257c3.905,0,7.96-1.803,7.96-5.257v-8.122h13.025
		c4.28,0,7.748-3.469,7.748-7.748s-3.468-7.748-7.748-7.748h-13.025v-7.921h13.025c4.28,0,7.748-3.469,7.748-7.748
		s-3.468-7.748-7.748-7.748h-8.627l26.995-48.643c0.451-0.902,0.451-1.652,0.451-2.253
		C180.753,312.617,175.045,309.913,170.839,309.913z"/>
	<path style="fill:#884D00;" d="M439.91,385.096c-4.501,0-7.762,1.398-8.072,5.433c-0.622,6.831-2.019,17.542-17.853,17.542
		c-12.264,0-18.94-6.365-18.94-20.027v-0.03h22.359c4.28,0,7.748-3.469,7.748-7.748c0-4.279-3.468-7.748-7.748-7.748h-22.359
		v-14.123h22.359c4.28,0,7.748-3.469,7.748-7.748s-3.468-7.748-7.748-7.748h-22.359v-0.03c0-13.662,6.676-20.027,18.629-20.027
		c15.992,0,17.853,11.177,18.164,16.612c0.155,3.725,3.259,5.433,8.228,5.433c5.589,0,8.228-1.553,8.228-8.539
		c0-16.456-13.971-28.099-35.24-28.099c-18.785,0-34.464,9.47-34.464,34.62v0.03h-15.854c-4.28,0-7.748,3.469-7.748,7.748
		s3.468,7.748,7.748,7.748h15.854v14.123h-15.854c-4.28,0-7.748,3.469-7.748,7.748c0,4.279,3.468,7.748,7.748,7.748h15.854v0.03
		c0,25.15,15.524,34.62,34.309,34.62c21.269,0,35.396-11.954,35.396-29.032C448.293,386.803,445.654,385.096,439.91,385.096z"/>
</g>
<g>
</g>
<g>
</g>
<g>
</g>
<g>
</g>
<g>
</g>
<g>
</g>
<g>
</g>
<g>
</g>
<g>
</g>
<g>
</g>
<g>
</g>
<g>
</g>
<g>
</g>
<g>
</g>
<g>
</g>
</svg>
