<?xml version="1.0" encoding="iso-8859-1"?>
<!-- Generator: Adobe Illustrator 19.0.0, SVG Export Plug-In . SVG Version: 6.00 Build 0)  -->
<svg version="1.1" id="Capa_1" xmlns="http://www.w3.org/2000/svg" xmlns:xlink="http://www.w3.org/1999/xlink" x="0px" y="0px"
	 viewBox="0 0 512 512" style="enable-background:new 0 0 512 512;" xml:space="preserve">
<path style="fill:#CC7400;" d="M138.476,360.078h-22.044c-28.151,1.209-54.171-8.875-73.691-26.232
	c-5.386-4.771-10.275-10.104-14.569-15.905c-4.358-5.874-8.122-12.225-11.176-18.979c-2.312-5.09-4.231-10.401-5.704-15.905
	c-1.643-6.107-2.746-12.448-3.245-18.968c-0.106-1.231-0.18-2.47-0.233-3.711c-0.18-4.114-0.106-8.185,0.191-12.194
	c0.467-6.5,1.548-12.84,3.181-18.969c1.442-5.493,3.329-10.805,5.62-15.905c3.011-6.722,6.722-13.084,11.048-18.968
	c4.231-5.778,9.055-11.112,14.378-15.905c17.379-15.671,40.101-25.595,65.294-26.678h29.042l1.527,167.189l0.127,13.805
	L138.476,360.078z"/>
<path style="fill:#FFC477;" d="M247.095,259.688c-1.877,53.874-44.967,98.046-99.722,100.39
	c-57.521,2.46-106.147-42.179-108.608-99.701c-0.011-0.233-0.021-0.456-0.021-0.689c-2.078-57.236,42.433-105.479,99.722-107.928
	c57.521-2.46,106.147,42.179,108.608,99.711C247.19,254.238,247.2,256.974,247.095,259.688z"/>
<path style="fill:#CC7400;" d="M160.17,332.001c-1.273,0.287-2.534,0.541-3.806,0.764c-40.705,7.167-80.286-18.852-89.532-59.6
	c-9.521-42.02,16.817-83.796,58.836-93.328c10.454-2.364,20.898-2.523,30.833-0.764c29.986,5.322,55.337,28.035,62.495,59.6
	C228.528,280.692,202.19,322.479,160.17,332.001z"/>
<path style="fill:#EE8700;" d="M160.17,332.001c-1.273,0.287-2.534,0.541-3.806,0.764c-29.975-5.322-55.337-28.046-62.495-59.6
	c-9.521-42.02,16.817-83.796,58.836-93.328c1.262-0.287,2.534-0.541,3.796-0.764c29.986,5.322,55.337,28.035,62.495,59.6
	C228.528,280.692,202.19,322.479,160.17,332.001z"/>
<path style="fill:#FFA733;" d="M247.095,259.688c-1.877,53.874-44.967,98.046-99.722,100.39
	c-57.521,2.46-106.147-42.179-108.608-99.701c-0.011-0.233-0.021-0.456-0.021-0.689h26.232c0.222,4.464,0.838,8.97,1.856,13.477
	c9.532,42.02,51.319,68.368,93.338,58.836c34.958-7.921,59.059-38.16,60.682-72.313H247.095z"/>
<path style="fill:#CC7400;" d="M395.793,360.078H373.75c-28.151,1.209-54.171-8.875-73.691-26.232
	c-5.386-4.771-10.275-10.104-14.569-15.905c-4.358-5.874-8.122-12.225-11.176-18.979c-2.312-5.09-4.231-10.401-5.704-15.905
	c-1.643-6.107-2.746-12.448-3.245-18.968c-0.106-1.231-0.18-2.47-0.233-3.711c-0.18-4.114-0.106-8.185,0.191-12.194
	c0.467-6.5,1.548-12.84,3.181-18.969c1.442-5.493,3.329-10.805,5.62-15.905c3.011-6.722,6.722-13.084,11.048-18.968
	c4.231-5.778,9.055-11.112,14.378-15.905c17.379-15.671,40.101-25.595,65.294-26.678h29.042l1.527,167.189l0.127,13.805
	L395.793,360.078z"/>
<path style="fill:#FFC477;" d="M504.411,259.688c-1.877,53.874-44.967,98.046-99.722,100.39
	c-57.521,2.46-106.147-42.179-108.608-99.701c-0.011-0.233-0.021-0.456-0.021-0.689c-2.078-57.236,42.433-105.479,99.722-107.928
	c57.521-2.46,106.147,42.179,108.608,99.711C504.506,254.238,504.517,256.974,504.411,259.688z"/>
<path style="fill:#CC7400;" d="M417.488,332.001c-1.273,0.287-2.534,0.541-3.806,0.764c-40.705,7.167-80.286-18.852-89.532-59.6
	c-9.521-42.02,16.817-83.796,58.836-93.328c10.454-2.364,20.898-2.523,30.833-0.764c29.986,5.322,55.337,28.035,62.495,59.6
	C485.846,280.692,459.508,322.479,417.488,332.001z"/>
<path style="fill:#EE8700;" d="M417.488,332.001c-1.273,0.287-2.534,0.541-3.806,0.764c-29.975-5.322-55.337-28.046-62.495-59.6
	c-9.521-42.02,16.817-83.796,58.836-93.328c1.262-0.287,2.534-0.541,3.796-0.764c29.986,5.322,55.337,28.035,62.495,59.6
	C485.846,280.692,459.508,322.479,417.488,332.001z"/>
<path style="fill:#FFA733;" d="M504.411,259.688c-1.877,53.874-44.967,98.046-99.722,100.39
	c-57.521,2.46-106.147-42.179-108.608-99.701c-0.011-0.233-0.021-0.456-0.021-0.689h26.232c0.222,4.464,0.838,8.97,1.856,13.477
	c9.532,42.02,51.319,68.368,93.338,58.836c34.958-7.921,59.059-38.16,60.682-72.313H504.411z"/>
<path style="fill:#91DC5A;" d="M403.837,80.037l-21.514,16.718c-55.75-70.289-157.844-82.699-228.839-27.525
	c-20.391,15.843-36.009,35.542-46.63,57.269c-1.837,3.759-5.253,6.502-9.346,7.373l-0.411,0.087
	c-10.948,2.329-19.805-8.96-14.913-19.027c12.394-25.506,30.677-48.629,54.584-67.206C219.642-16.675,338.852-2.118,403.837,80.037z
	"/>
<path style="fill:#5EAC24;" d="M430.931,130.923c0.2,3.237-2.926,5.662-6.013,4.67l-24.863-7.967l-32.89-10.542
	c-3.538-1.132-4.349-5.772-1.423-8.047l31.687-24.622l22.388-17.397c2.926-2.275,7.215-0.341,7.436,3.367L430.931,130.923z"/>
<path style="fill:#6DC82A;" d="M400.055,127.626l-32.89-10.542c-3.538-1.132-4.349-5.772-1.423-8.047l31.687-24.622L400.055,127.626
	z"/>
<path style="fill:#91DC5A;" d="M108.163,431.966l21.515-16.717c55.75,70.288,157.843,82.698,228.839,27.524
	c20.391-15.843,36.009-35.542,46.63-57.269c1.837-3.759,5.253-6.502,9.346-7.373l0.411-0.087
	c10.948-2.329,19.805,8.96,14.913,19.027c-12.394,25.506-30.677,48.629-54.584,67.206
	C292.358,528.678,173.149,514.121,108.163,431.966z"/>
<path style="fill:#5EAC24;" d="M146.507,403.302l-30.495,23.7l-23.58,18.319c-2.926,2.275-7.215,0.331-7.436-3.367l-3.678-60.539
	c-0.2-3.237,2.926-5.662,6.013-4.68l26.135,8.378l31.617,10.142C148.622,396.387,149.433,401.017,146.507,403.302z"/>
<path style="fill:#6DC82A;" d="M146.507,403.302l-30.495,23.7l-2.545-41.889l31.617,10.142
	C148.622,396.387,149.433,401.017,146.507,403.302z"/>
<path d="M147.526,367.627c61.59-2.634,109.556-54.884,106.923-116.473c-2.641-61.749-55.211-109.939-117.224-106.881
	c-0.829-0.091,1-0.029-29.878-0.048c-0.107,0-0.214,0.002-0.321,0.007C45.437,146.864-2.529,199.114,0.103,260.704
	C2.68,320.98,52.31,367.732,111.686,367.731C111.786,367.731,146.976,367.65,147.526,367.627z M138.617,159.249
	c53.292-2.304,98.533,39.236,100.813,92.546c2.279,53.309-39.237,98.534-92.546,100.813c-53.31,2.272-98.534-39.237-100.813-92.547
	C43.792,206.752,85.309,161.528,138.617,159.249z M76.79,165.708c-5.369,3.938-10.371,8.342-14.948,13.148H53.35
	C60.453,173.456,68.324,169.002,76.79,165.708z M37.599,193.888h12.204c-4.161,6.216-7.713,12.863-10.575,19.855H24.732
	C28.207,206.599,32.539,199.935,37.599,193.888z M18.915,228.775h15.381c-1.612,6.427-2.667,13.064-3.106,19.854H15.31
	C15.822,241.802,17.043,235.157,18.915,228.775z M15.349,263.661H31.22c0.47,6.812,1.553,13.447,3.183,19.855H19.009
	C17.116,277.106,15.888,270.46,15.349,263.661z M37.885,318.402c-5.179-6.102-9.537-12.766-13.015-19.854h14.523
	c2.899,7.011,6.487,13.657,10.679,19.854H37.885z M53.845,333.433h8.408c4.523,4.691,9.447,8.985,14.714,12.829
	C68.766,343.097,60.993,338.799,53.845,333.433z"/>
<path d="M69.868,211.128c-39.599,64.411,18.178,144.923,91.798,128.235c70.395-15.958,90.011-106.472,34.114-150.572
	c-30.61-24.15-73.129-24.345-103.76-1.775c-3.341,2.463-4.055,7.167-1.592,10.509c2.463,3.341,7.168,4.056,10.509,1.591
	c39.863-29.371,99.034-9.744,110.588,41.22c10.151,44.792-23.877,86.128-68.845,86.128c-55.605,0-88.561-61.02-60.006-107.464
	c2.174-3.537,1.069-8.165-2.466-10.339C76.671,206.488,72.042,207.592,69.868,211.128z"/>
<path d="M141.851,292.576c-9.636,0-13.477-4.139-16.28-7.16c-1.674-1.805-3.254-3.51-5.704-3.51c-3.916,0-7.069,4.359-7.069,7.968
	c0,6.414,8.87,14.322,22.275,16.512v5.347c0,4.234,3.444,7.677,7.678,7.677s7.678-3.444,7.678-7.677v-5.508
	c14.185-2.777,22.274-13.233,22.274-28.95c0-20.615-13.177-26.59-24.631-30.861l0.001-0.003l-1.983-0.73
	c-10.559-3.88-16.07-6.285-16.07-14.434c0-4.512,1.67-7.628,5.104-9.529c3.246-1.797,7.408-2.174,10.327-2.174
	c6.95,0,10.714,1.937,13.466,3.353c1.665,0.857,2.978,1.533,4.534,1.533c4.468,0,6.94-4.712,6.94-7.968
	c0-7.995-14.357-10.23-19.96-10.798v-5.537c0-4.234-3.444-7.678-7.678-7.678s-7.678,3.444-7.678,7.678v6.493
	c-12.89,3.146-19.96,12.107-19.96,25.398c0,33.741,42.684,20.878,42.684,46.027C157.797,290.054,149.126,292.576,141.851,292.576z"
	/>
<path d="M511.896,251.154c-2.642-61.792-54.975-109.958-117.226-106.882c-0.825-0.091,0.946-0.029-29.876-0.048
	c-0.107,0-0.214,0.002-0.321,0.007c-61.59,2.634-109.556,54.884-106.923,116.473c2.564,59.974,52.171,107.028,111.639,107.026
	c2.708,0-9.811,0.044,26.489-0.096C461.187,370.235,514.677,316.206,511.896,251.154z M333.98,165.812
	c-5.244,3.87-10.183,8.228-14.761,13.045h-8.421C317.827,173.51,325.611,169.096,333.98,165.812z M295.047,193.888h12.124
	c-4.208,6.28-7.737,12.929-10.562,19.855h-14.43C285.655,206.599,289.987,199.935,295.047,193.888z M276.362,228.775h15.338
	c-1.609,6.471-2.64,13.109-3.069,19.854h-15.874C273.268,241.802,274.491,235.157,276.362,228.775z M272.796,263.661h15.871
	c0.47,6.812,1.553,13.447,3.183,19.855h-15.362C274.597,277.155,273.342,270.514,272.796,263.661z M295.4,318.402
	c-5.107-6.024-9.492-12.685-13.022-19.854h14.461c2.899,7.011,6.487,13.657,10.679,19.854H295.4z M311.376,333.433h8.323
	c4.473,4.641,9.34,8.892,14.543,12.704C326.03,342.938,318.346,338.647,311.376,333.433z M400.148,352.698
	c-51.469-0.003-94.409-40.729-96.629-92.636c-3.65-85.34,98.407-133.905,162.12-75.419c19.04,17.48,30.135,41.329,31.239,67.153
	C499.222,306.637,455.285,352.698,400.148,352.698z"/>
<path d="M478.355,249.597c-4.164-0.055-7.565,3.254-7.625,7.405c-0.738,50.313-53.19,84.267-99.708,63.128
	c-34.868-15.846-51.375-57.398-35.024-93.377c25.907-57.009,107.575-54.019,129.947,3.673c1.501,3.869,5.855,5.792,9.725,4.29
	c3.87-1.501,5.791-5.854,4.29-9.725c-8.131-20.97-23.888-37.643-44.366-46.949c-56.82-25.819-120.965,16.154-120.965,77.84
	c0,33.49,19.695,64.081,50.176,77.933c43.582,19.804,94.03-0.129,113.281-42.491c4.92-10.827,7.502-22.3,7.675-34.102
	C485.821,253.072,482.506,249.658,478.355,249.597z"/>
<path d="M409.144,216.238c15.512,0,17.318,10.842,17.619,16.113c0.15,3.614,3.162,5.27,7.981,5.27c5.422,0,7.981-1.506,7.981-8.283
	c0-15.962-13.552-27.256-34.183-27.256c-18.222,0-33.43,9.186-33.43,33.581v0.029h-15.379c-4.151,0-7.516,3.365-7.516,7.516
	c0,4.151,3.365,7.516,7.516,7.516h15.379v13.699h-15.379c-4.151,0-7.516,3.365-7.516,7.516s3.365,7.516,7.516,7.516h15.379
	c0.173,0.387-2.341,33.61,33.28,33.61c20.631,0,34.334-11.596,34.334-28.161c0-6.626-2.559-8.283-8.131-8.283
	c-4.366,0-7.529,1.356-7.83,5.27c-0.603,6.626-1.958,17.016-17.318,17.016c-11.896,0-18.372-6.174-18.372-19.426v-0.029h21.689
	c4.151,0,7.516-3.365,7.516-7.516c0-4.151-3.365-7.516-7.516-7.516h-21.689v-13.699h21.689c4.151,0,7.516-3.365,7.516-7.516
	c0-4.151-3.365-7.516-7.516-7.516h-21.689v-0.029C391.073,222.412,397.549,216.238,409.144,216.238z"/>
<path d="M113.605,129.801c48.913-100.054,184.936-117.637,257.969-34.2l-10.191,7.919c-2.981,2.317-4.691,5.802-4.691,9.564
	c0,5.304,3.388,9.955,8.431,11.572c61.844,19.621,58.102,19.1,61.464,19.1c6.917,0,12.525-5.834,12.102-12.873
	c-0.521-8.578-3.132-51.545-3.678-60.534c-0.592-9.725-11.877-14.81-19.558-8.845l-10.458,8.127
	C311.112-40.499,136.932-14.924,75.424,111.648c-3.526,7.256-2.626,15.712,2.35,22.07
	C87.448,146.077,106.772,143.784,113.605,129.801z M420.34,76.744l3.088,50.82l-48.483-15.545L420.34,76.744z M88.945,118.218
	C146.48-0.18,307.591-20.566,393.116,78.85l-9.654,7.502C302.608-7.131,153.38,14.214,100.101,123.199
	c-1.522,3.115-4.43,3.347-4.568,3.409c-3.277,0.699-5.233-1.275-5.922-2.155C88.926,123.577,87.488,121.215,88.945,118.218z"/>
<path d="M398.394,382.203c-48.911,100.053-184.935,117.639-257.969,34.2l10.191-7.919c2.981-2.317,4.691-5.802,4.691-9.564
	c0-5.304-3.388-9.955-8.431-11.572l-57.742-18.514c-8.121-2.612-16.336,3.764-15.824,12.288c0.521,8.578,3.132,51.545,3.678,60.534
	c0.39,6.395,5.718,11.403,12.131,11.403c6.491,0,8.994-4.428,17.885-10.687c93.146,109.265,267.513,85.691,329.571-42.016
	c3.526-7.256,2.626-15.712-2.35-22.07C424.548,365.92,405.212,368.254,398.394,382.203z M91.66,435.26l-3.088-50.82l48.483,15.545
	L91.66,435.26z M423.055,393.787c-57.65,118.634-218.792,138.614-304.172,39.367l9.653-7.502
	c80.855,93.48,230.084,72.143,283.361-36.847c1.53-3.13,4.422-3.343,4.569-3.409c3.27-0.701,5.232,1.274,5.922,2.155
	C423.073,388.427,424.512,390.789,423.055,393.787z"/>
<g>
</g>
<g>
</g>
<g>
</g>
<g>
</g>
<g>
</g>
<g>
</g>
<g>
</g>
<g>
</g>
<g>
</g>
<g>
</g>
<g>
</g>
<g>
</g>
<g>
</g>
<g>
</g>
<g>
</g>
</svg>
