<?xml version="1.0" encoding="iso-8859-1"?>
<!-- Generator: Adobe Illustrator 19.0.0, SVG Export Plug-In . SVG Version: 6.00 Build 0)  -->
<svg version="1.1" id="Capa_1" xmlns="http://www.w3.org/2000/svg" xmlns:xlink="http://www.w3.org/1999/xlink" x="0px" y="0px"
	 viewBox="0 0 512 512" style="enable-background:new 0 0 512 512;" xml:space="preserve">
<path style="fill:#CC7400;" d="M134.815,363.226h-22.711c-29.003,1.245-55.811-9.143-75.922-27.026
	c-5.549-4.916-10.586-10.41-15.01-16.386c-4.49-6.052-8.368-12.595-11.514-19.554c-2.382-5.244-4.359-10.716-5.877-16.386
	c-1.693-6.292-2.829-12.825-3.343-19.543c-0.109-1.267-0.186-2.545-0.241-3.823c-0.186-4.238-0.109-8.433,0.197-12.563
	c0.481-6.697,1.595-13.229,3.277-19.544c1.486-5.659,3.43-11.132,5.79-16.386c3.103-6.926,6.926-13.48,11.383-19.542
	c4.359-5.953,9.329-11.448,14.813-16.386c17.905-16.146,41.315-26.37,67.27-27.485h29.921l1.573,172.25l0.131,14.223
	L134.815,363.226z"/>
<g>
	<path style="fill:#AA6100;" d="M67.534,176.087H35.658c-5.483,4.937-10.455,10.432-14.813,16.386h31.888
		C57.091,186.52,62.05,181.024,67.534,176.087z"/>
	<path style="fill:#AA6100;" d="M41.349,212.015H9.462c-2.359,5.254-4.304,10.727-5.79,16.386h31.876
		C37.045,222.744,38.99,217.271,41.349,212.015z"/>
	<path style="fill:#AA6100;" d="M32.326,264.32c-0.109-1.267-0.186-2.535-0.241-3.813c-0.186-4.238-0.109-8.433,0.197-12.552
		c-0.066-0.011-0.142-0.011-0.208-0.011H0.395c-0.306,4.129-0.382,8.324-0.197,12.563c0.055,1.278,0.131,2.556,0.241,3.823h31.636
		C32.162,264.331,32.238,264.331,32.326,264.32z"/>
	<path style="fill:#AA6100;" d="M35.668,283.874H3.782c1.519,5.669,3.496,11.142,5.877,16.386h31.888
		C39.154,295.016,37.187,289.544,35.668,283.874z"/>
	<path style="fill:#AA6100;" d="M53.06,319.814H21.173c4.424,5.976,9.46,11.471,15.01,16.386h31.876
		C62.509,331.285,57.484,325.79,53.06,319.814z"/>
</g>
<path style="fill:#FFC477;" d="M246.721,259.798c-1.934,55.505-46.329,101.014-102.741,103.429
	C84.718,365.761,34.619,319.77,32.086,260.508c-0.011-0.241-0.022-0.47-0.022-0.71c-2.141-58.968,43.718-108.672,102.741-111.195
	c59.262-2.535,109.361,43.455,111.895,102.729C246.82,254.182,246.83,257.001,246.721,259.798z"/>
<path style="fill:#CC7400;" d="M157.166,334.299c-1.311,0.295-2.611,0.558-3.921,0.787c-41.938,7.384-82.717-19.423-92.242-61.404
	c-9.809-43.292,17.326-86.333,60.617-96.153c10.771-2.436,21.531-2.6,31.767-0.787c30.893,5.483,57.013,28.883,64.387,61.404
	C227.593,281.438,200.458,324.49,157.166,334.299z"/>
<path style="fill:#EE8700;" d="M157.166,334.299c-1.311,0.295-2.611,0.558-3.921,0.787c-30.882-5.483-57.013-28.895-64.387-61.404
	c-9.809-43.292,17.326-86.333,60.617-96.153c1.3-0.295,2.611-0.558,3.911-0.787c30.893,5.483,57.013,28.883,64.387,61.404
	C227.593,281.438,200.458,324.49,157.166,334.299z"/>
<path style="fill:#884D00;" d="M144.872,246.115l0.001-0.003l-2.043-0.751c-10.876-3.997-16.551-6.474-16.551-14.865
	c0-4.646,1.72-7.857,5.257-9.815c3.343-1.851,7.63-2.239,10.636-2.239c7.158,0,11.035,1.995,13.869,3.454
	c1.714,0.883,3.068,1.579,4.67,1.579c4.602,0,7.148-4.853,7.148-8.207c0-8.234-14.788-10.536-20.558-11.122v-5.702
	c0-4.36-3.548-7.909-7.909-7.909s-7.909,3.548-7.909,7.909v6.687c-13.276,3.241-20.558,12.47-20.558,26.16
	c0,18.826,13.231,23.798,24.905,28.185c11.064,4.157,19.057,7.16,19.057,19.221c0,12.37-8.931,14.967-16.423,14.967
	c-9.925,0-13.88-4.262-16.768-7.375c-1.724-1.858-3.351-3.616-5.875-3.616c-4.034,0-7.281,4.489-7.281,8.206
	c0,6.606,9.136,14.751,22.942,17.007v5.507c0,4.36,3.548,7.908,7.909,7.908c4.361,0,7.909-3.548,7.909-7.908v-5.673
	c14.609-2.861,22.941-13.63,22.941-29.818C170.242,256.667,156.67,250.514,144.872,246.115z"/>
<path style="fill:#FFA733;" d="M246.721,259.798c-1.934,55.505-46.329,101.014-102.741,103.429
	C84.718,365.761,34.619,319.77,32.086,260.508c-0.011-0.241-0.022-0.47-0.022-0.71H59.09c0.229,4.599,0.863,9.242,1.912,13.885
	c9.821,43.292,52.872,70.438,96.164,60.617c36.016-8.161,60.847-39.315,62.519-74.502H246.721z"/>
<path style="fill:#CC7400;" d="M399.922,363.226h-22.711c-29.003,1.245-55.811-9.143-75.922-27.026
	c-5.549-4.916-10.586-10.41-15.01-16.386c-4.49-6.052-8.368-12.595-11.514-19.554c-2.382-5.244-4.359-10.716-5.877-16.386
	c-1.693-6.292-2.829-12.825-3.343-19.543c-0.109-1.267-0.186-2.545-0.241-3.823c-0.186-4.238-0.109-8.433,0.196-12.563
	c0.481-6.697,1.595-13.229,3.277-19.544c1.486-5.659,3.43-11.132,5.79-16.386c3.103-6.926,6.926-13.48,11.383-19.542
	c4.359-5.953,9.329-11.448,14.813-16.386c17.905-16.146,41.315-26.37,67.27-27.485h29.921l1.573,172.25l0.131,14.223
	L399.922,363.226z"/>
<g>
	<path style="fill:#AA6100;" d="M332.641,176.087h-31.876c-5.483,4.937-10.455,10.432-14.813,16.386h31.888
		C322.198,186.52,327.157,181.024,332.641,176.087z"/>
	<path style="fill:#AA6100;" d="M306.456,212.015h-31.888c-2.359,5.254-4.304,10.727-5.79,16.386h31.876
		C302.151,222.744,304.096,217.271,306.456,212.015z"/>
	<path style="fill:#AA6100;" d="M297.432,264.32c-0.109-1.267-0.186-2.535-0.241-3.813c-0.186-4.238-0.109-8.433,0.197-12.552
		c-0.066-0.011-0.142-0.011-0.208-0.011h-31.68c-0.306,4.129-0.382,8.324-0.196,12.563c0.055,1.278,0.131,2.556,0.241,3.823h31.636
		C297.269,264.331,297.345,264.331,297.432,264.32z"/>
	<path style="fill:#AA6100;" d="M300.775,283.874h-31.888c1.519,5.669,3.496,11.142,5.877,16.386h31.888
		C304.26,295.016,302.294,289.544,300.775,283.874z"/>
	<path style="fill:#AA6100;" d="M318.166,319.814h-31.888c4.424,5.976,9.46,11.471,15.01,16.386h31.876
		C327.615,331.285,322.59,325.79,318.166,319.814z"/>
</g>
<path style="fill:#FFC477;" d="M511.827,259.798c-1.934,55.505-46.329,101.014-102.741,103.429
	c-59.262,2.535-109.361-43.455-111.895-102.719c-0.011-0.241-0.022-0.47-0.022-0.71c-2.141-58.968,43.718-108.672,102.741-111.195
	c59.262-2.535,109.361,43.455,111.895,102.729C511.925,254.182,511.937,257.001,511.827,259.798z"/>
<path style="fill:#CC7400;" d="M422.272,334.299c-1.311,0.295-2.611,0.558-3.921,0.787c-41.938,7.384-82.717-19.423-92.242-61.404
	c-9.809-43.292,17.326-86.333,60.617-96.153c10.771-2.436,21.531-2.6,31.767-0.787c30.893,5.483,57.013,28.883,64.387,61.404
	C492.7,281.438,465.565,324.49,422.272,334.299z"/>
<path style="fill:#EE8700;" d="M422.272,334.299c-1.311,0.295-2.611,0.558-3.921,0.787c-30.882-5.483-57.013-28.895-64.387-61.404
	c-9.809-43.292,17.326-86.333,60.617-96.153c1.3-0.295,2.611-0.558,3.911-0.787c30.893,5.483,57.013,28.883,64.387,61.404
	C492.7,281.438,465.565,324.49,422.272,334.299z"/>
<path style="fill:#FFA733;" d="M511.827,259.798c-1.934,55.505-46.329,101.014-102.741,103.429
	c-59.262,2.535-109.361-43.455-111.895-102.719c-0.011-0.241-0.022-0.47-0.022-0.71h27.026c0.229,4.599,0.863,9.242,1.912,13.885
	c9.821,43.292,52.872,70.438,96.164,60.617c36.016-8.161,60.847-39.315,62.519-74.502H511.827z"/>
<path style="fill:#884D00;" d="M439.897,277.245c-4.498,0-7.757,1.397-8.067,5.43c-0.622,6.827-2.017,17.531-17.842,17.531
	c-12.256,0-18.928-6.361-18.928-20.014v-0.03h22.346c4.276,0,7.743-3.467,7.743-7.743s-3.467-7.743-7.743-7.743H395.06v-14.114
	h22.346c4.276,0,7.743-3.467,7.743-7.743c0-4.276-3.467-7.743-7.743-7.743H395.06v-0.03c0-13.653,6.672-20.014,18.617-20.014
	c15.982,0,17.842,11.17,18.153,16.601c0.155,3.723,3.257,5.43,8.223,5.43c5.586,0,8.223-1.552,8.223-8.533
	c0-16.445-13.962-28.081-35.217-28.081c-18.773,0-34.442,9.464-34.442,34.598v0.03h-15.844c-4.276,0-7.743,3.467-7.743,7.743
	c0,4.276,3.467,7.743,7.743,7.743h15.844v14.114h-15.844c-4.276,0-7.743,3.467-7.743,7.743s3.467,7.743,7.743,7.743h15.844v0.03
	c0,25.134,15.514,34.598,34.287,34.598c21.255,0,35.373-11.947,35.373-29.013C448.274,278.952,445.637,277.245,439.897,277.245z"/>
<path style="fill:#91DC5A;" d="M408.208,74.709l-22.166,17.224C328.605,19.516,223.421,6.731,150.277,63.575
	c-21.009,16.322-37.1,36.618-48.042,59.002c-1.893,3.873-5.412,6.699-9.629,7.596l-0.423,0.09
	c-11.28,2.399-20.405-9.231-15.364-19.603c12.77-26.278,31.606-50.101,56.236-69.24C218.438-24.931,341.256-9.934,408.208,74.709z"
	/>
<path style="fill:#5EAC24;" d="M436.123,127.134c0.207,3.335-3.015,5.833-6.195,4.811l-25.615-8.208l-33.885-10.862
	c-3.645-1.167-4.481-5.947-1.466-8.291l32.646-25.368l23.065-17.924c3.015-2.344,7.434-0.351,7.661,3.469L436.123,127.134z"/>
<path style="fill:#6DC82A;" d="M404.313,123.738l-33.885-10.862c-3.645-1.167-4.481-5.947-1.466-8.291l32.646-25.368
	L404.313,123.738z"/>
<path style="fill:#91DC5A;" d="M103.584,437.291l22.166-17.224c57.438,72.416,162.621,85.201,235.766,28.358
	c21.009-16.322,37.1-36.618,48.042-59.002c1.893-3.873,5.412-6.699,9.629-7.596l0.423-0.09c11.28-2.399,20.405,9.231,15.364,19.603
	c-12.77,26.278-31.606,50.101-56.236,69.24C293.355,536.931,170.537,521.933,103.584,437.291z"/>
<path style="fill:#5EAC24;" d="M143.089,407.758l-31.418,24.418l-24.294,18.873c-3.015,2.344-7.434,0.341-7.661-3.469l-3.789-62.371
	c-0.206-3.335,3.015-5.833,6.195-4.822l26.927,8.631l32.574,10.449C145.267,400.634,146.104,405.404,143.089,407.758z"/>
<path style="fill:#6DC82A;" d="M143.089,407.758l-31.418,24.418l-2.622-43.157l32.574,10.449
	C145.267,400.634,146.104,405.404,143.089,407.758z"/>
<g>
</g>
<g>
</g>
<g>
</g>
<g>
</g>
<g>
</g>
<g>
</g>
<g>
</g>
<g>
</g>
<g>
</g>
<g>
</g>
<g>
</g>
<g>
</g>
<g>
</g>
<g>
</g>
<g>
</g>
</svg>
