<?xml version="1.0" encoding="iso-8859-1"?>
<!-- Generator: Adobe Illustrator 21.0.0, SVG Export Plug-In . SVG Version: 6.00 Build 0)  -->
<svg version="1.1" id="Capa_1" xmlns="http://www.w3.org/2000/svg" xmlns:xlink="http://www.w3.org/1999/xlink" x="0px" y="0px"
	 viewBox="0 0 512 512" style="enable-background:new 0 0 512 512;" xml:space="preserve">
<path style="fill:#33D8DD;" d="M104.676,169l-79.371,75.734c-3.418,3.261-3.597,8.658-0.402,12.138l224.709,244.82
	c3.436,3.744,9.341,3.744,12.777,0l224.709-244.82c3.194-3.48,3.016-8.877-0.402-12.138L407.325,169
	c-1.613-1.539-3.757-2.398-5.987-2.398H110.662C108.433,166.602,106.289,167.461,104.676,169z"/>
<path style="fill:#25B9C0;" d="M486.696,244.734L407.325,169c-1.613-1.539-3.757-2.398-5.987-2.398h-55.172
	c0.554,0,1.088,0.213,1.489,0.596l85.883,81.947c0.85,0.811,0.894,2.153,0.1,3.018L256,504.5c2.335,0,4.671-0.936,6.389-2.808
	l224.709-244.82C490.292,253.392,490.113,247.995,486.696,244.734z"/>
<g>
	<path style="fill:#51F4F4;" d="M177.051,250.606l77.646,253.785c0.865,0.131,1.743,0.131,2.608,0l77.646-253.785L177.051,250.606
		L177.051,250.606z"/>
	<path style="fill:#51F4F4;" d="M177.051,250.606l-69.405-83.454c-1.095,0.407-2.109,1.027-2.969,1.848L54.25,217.116
		l-28.945,27.619c-1.679,1.602-2.571,3.719-2.671,5.872h154.417V250.606z"/>
</g>
<polygon style="fill:#48E5E1;" points="256.015,166.602 256,166.618 255.986,166.602 177.051,250.606 334.95,250.606 "/>
<path style="fill:#51F4F4;" d="M404.355,167.152l-69.405,83.454h154.417c-0.1-2.152-0.993-4.27-2.671-5.872l-17.122-16.337
	l-62.251-59.398C406.463,168.178,405.449,167.558,404.355,167.152z"/>
<path style="fill:#25B9C0;" d="M486.696,244.734L407.325,169c-1.613-1.539-3.757-2.398-5.987-2.398h-55.172
	c0.554,0,1.088,0.213,1.489,0.596l85.883,81.947c0.85,0.811,0.894,2.153,0.1,3.018L256,504.5c2.335,0,4.671-0.936,6.389-2.808
	l224.709-244.82C490.292,253.392,490.113,247.995,486.696,244.734z"/>
<path style="fill:#48E5E1;" d="M407.323,168.999c-0.212-0.202-0.433-0.391-0.662-0.569c-0.03-0.023-0.062-0.043-0.093-0.066
	c-0.206-0.155-0.416-0.304-0.634-0.439c-0.014-0.009-0.028-0.016-0.042-0.024c-0.488-0.299-1.002-0.55-1.537-0.749c0,0,0,0-0.001,0
	l-25.108,30.191l54.291,51.803c0.417,0.398,0.638,0.925,0.663,1.46h55.167c0-0.001,0-0.001,0-0.002
	c-0.038-0.806-0.186-1.606-0.446-2.377c-0.004-0.012-0.009-0.023-0.013-0.035c-0.083-0.244-0.176-0.485-0.282-0.723
	c-0.016-0.036-0.036-0.07-0.053-0.106c-0.098-0.212-0.201-0.422-0.316-0.627c-0.041-0.072-0.09-0.141-0.133-0.212
	c-0.1-0.166-0.199-0.332-0.311-0.492c-0.082-0.117-0.176-0.228-0.265-0.342c-0.085-0.109-0.164-0.222-0.255-0.328
	c-0.187-0.217-0.385-0.427-0.597-0.629l-27.523-26.262L407.323,168.999z"/>
<path d="M236.565,34.436h11.936V46.37c0,4.143,3.357,7.5,7.5,7.5c4.143,0,7.5-3.357,7.5-7.5V34.436h11.936
	c4.143,0,7.5-3.357,7.5-7.5s-3.357-7.5-7.5-7.5h-11.936V7.5c0-4.143-3.357-7.5-7.5-7.5c-4.143,0-7.5,3.357-7.5,7.5v11.936h-11.936
	c-4.143,0-7.5,3.357-7.5,7.5S232.422,34.436,236.565,34.436z"/>
<path d="M419.491,113.986h11.936v11.936c0,4.143,3.357,7.5,7.5,7.5s7.5-3.357,7.5-7.5v-11.936h11.935c4.143,0,7.5-3.357,7.5-7.5
	s-3.357-7.5-7.5-7.5h-11.935V87.051c0-4.143-3.357-7.5-7.5-7.5s-7.5,3.357-7.5,7.5v11.936h-11.936c-4.143,0-7.5,3.357-7.5,7.5
	S415.349,113.986,419.491,113.986z"/>
<path d="M53.639,113.986h11.935v11.936c0,4.143,3.357,7.5,7.5,7.5s7.5-3.357,7.5-7.5v-11.936H92.51c4.143,0,7.5-3.357,7.5-7.5
	s-3.357-7.5-7.5-7.5H80.573V87.051c0-4.143-3.357-7.5-7.5-7.5s-7.5,3.357-7.5,7.5v11.936H53.639c-4.143,0-7.5,3.357-7.5,7.5
	S49.496,113.986,53.639,113.986z"/>
<path d="M496.744,249.283c-0.39-3.684-2.014-7.25-4.871-9.975l-79.372-75.735c-3.022-2.884-6.987-4.472-11.163-4.472H110.662
	c-1.94,0-3.83,0.357-5.606,1.013c-0.009,0.003-0.017,0.004-0.026,0.007c-0.006,0.002-0.012,0.006-0.019,0.008
	c-0.501,0.187-0.992,0.397-1.473,0.633c-0.011,0.006-0.023,0.01-0.034,0.015c-0.451,0.223-0.892,0.468-1.322,0.734
	c-0.04,0.024-0.082,0.045-0.121,0.07c-0.393,0.247-0.773,0.517-1.146,0.799c-0.063,0.048-0.13,0.089-0.192,0.137
	c-0.423,0.33-0.832,0.68-1.225,1.055L75.311,186.65c-2.997,2.859-3.107,7.606-0.248,10.604s7.607,3.108,10.604,0.248l20.889-19.932
	l54.502,65.534H37.876l22.496-21.465c2.996-2.86,3.106-7.607,0.247-10.604c-2.858-2.995-7.605-3.105-10.604-0.247l-29.887,28.519
	c-0.389,0.372-0.756,0.761-1.104,1.165c-0.049,0.057-0.09,0.118-0.138,0.176c-2.257,2.697-3.579,6.043-3.746,9.607
	c-0.016,0.347,0,0.69,0.032,1.032c0.062,3.83,1.443,7.648,4.205,10.657l224.71,244.821c2.46,2.68,5.761,4.418,9.311,5.001
	c0.06,0.01,0.116,0.031,0.176,0.04c0.088,0.013,0.176,0.018,0.263,0.03c0.276,0.038,0.552,0.071,0.831,0.094
	c0.2,0.017,0.401,0.022,0.601,0.032c0.244,0.011,0.486,0.038,0.731,0.038c0.245,0,0.487-0.027,0.731-0.038
	c0.2-0.009,0.401-0.015,0.601-0.032c0.279-0.023,0.555-0.057,0.831-0.094c0.088-0.012,0.176-0.017,0.263-0.03
	c0.06-0.009,0.116-0.029,0.176-0.04c3.55-0.583,6.851-2.322,9.312-5.002l224.709-244.82c2.738-2.983,4.119-6.761,4.203-10.558
	c0.027-0.256,0.041-0.517,0.041-0.78C496.867,250.153,496.821,249.713,496.744,249.283z M405.444,177.572l68.681,65.534H350.942
	L405.444,177.572z M388.819,174.102l-54.213,65.187l-61.253-65.187H388.819z M317.611,243.105H194.39L256,177.539L317.611,243.105z
	 M123.181,174.102h115.466l-61.253,65.187L123.181,174.102z M36.215,258.105h135.288l67.643,221.093L36.215,258.105z
	 M272.855,479.199l19.322-63.155c1.212-3.961-1.017-8.154-4.978-9.366c-3.959-1.207-8.154,1.017-9.366,4.978L256,483.017
	l-68.812-224.911h137.623l-36.686,119.907c-1.212,3.961,1.017,8.154,4.978,9.366c3.96,1.211,8.154-1.016,9.366-4.978l38.028-124.296
	h135.288L272.855,479.199z"/>
<g>
</g>
<g>
</g>
<g>
</g>
<g>
</g>
<g>
</g>
<g>
</g>
<g>
</g>
<g>
</g>
<g>
</g>
<g>
</g>
<g>
</g>
<g>
</g>
<g>
</g>
<g>
</g>
<g>
</g>
</svg>
