<?xml version="1.0" encoding="iso-8859-1"?>
<!-- Generator: Adobe Illustrator 19.0.0, SVG Export Plug-In . SVG Version: 6.00 Build 0)  -->
<svg version="1.1" id="Capa_1" xmlns="http://www.w3.org/2000/svg" xmlns:xlink="http://www.w3.org/1999/xlink" x="0px" y="0px"
	 viewBox="0 0 512 512" style="enable-background:new 0 0 512 512;" xml:space="preserve">
<path style="fill:#EE8700;" d="M396.693,255.117c0.227,34.296-12.017,68.747-37.04,96.009
	c-52.553,57.246-141.558,61.052-198.805,8.499c-30.439-27.942-45.776-66.199-45.539-104.508
	c0.186-33.729,12.429-67.489,37.04-94.297c52.553-57.246,141.558-61.052,198.805-8.499
	C381.138,179.851,396.466,217.386,396.693,255.117z"/>
<g>
	<path style="fill:#91DC5A;" d="M65.674,256.462c0,65.769,32.678,123.908,82.68,159.064c8.812,6.196,9.281,19.069,0.817,25.731
		l-0.238,0.188c-5.528,4.351-13.277,4.64-19.034,0.596C71.524,401.046,33.37,333.206,33.37,256.462
		c0-124.482,100.389-225.537,224.623-226.601v32.314C151.591,63.229,65.674,149.811,65.674,256.462z"/>
	<path style="fill:#91DC5A;" d="M446.327,255.485c0-65.769-32.678-123.908-82.68-159.064c-8.812-6.196-9.281-19.069-0.817-25.731
		l0.238-0.188c5.528-4.351,13.277-4.64,19.034-0.596c58.375,40.996,96.529,108.836,96.529,185.579
		c0,124.482-100.389,225.537-224.623,226.601v-32.314C360.41,448.718,446.327,362.135,446.327,255.485z"/>
</g>
<path style="fill:#CC7400;" d="M396.693,255.117c0.227,34.296-12.017,68.747-37.04,96.009
	c-52.553,57.246-141.558,61.052-198.805,8.499c-30.439-27.942-45.776-66.199-45.539-104.508L396.693,255.117L396.693,255.117z"/>
<path style="fill:#FFA733;" d="M279.281,358.656c-0.908,0.206-1.815,0.402-2.723,0.578c-55.782,11.14-110.594-24.178-123.24-79.98
	c-12.862-56.71,22.692-113.111,79.402-125.963c14.946-3.394,29.871-3.414,43.982-0.578c39.433,7.932,72.512,38.216,81.981,79.98
	C371.546,289.403,335.991,345.804,279.281,358.656z"/>
<path style="fill:#FFC477;" d="M279.281,358.656c-0.908,0.206-1.815,0.402-2.723,0.578c-39.433-7.932-72.512-38.216-81.981-79.98
	c-12.862-56.71,22.692-113.111,79.402-125.963c0.908-0.206,1.815-0.402,2.723-0.578c39.433,7.932,72.512,38.216,81.981,79.98
	C371.546,289.403,335.991,345.804,279.281,358.656z"/>
<path style="fill:#884D00;" d="M259.875,243.872L259.875,243.872c-12.789-4.699-22.89-8.411-22.89-21.202
	c0-14.57,12.322-17.629,22.659-17.629c9.823,0,15.349,2.844,19.007,4.726c2.026,1.043,3.626,1.866,5.279,1.866
	c5.009,0,7.523-5.713,7.523-8.912c0-8.127-15.43-12.05-26.932-12.893v-9.147c0-4.698-3.823-8.521-8.521-8.521
	s-8.521,3.823-8.521,8.521v10.227c-17.386,3.726-26.932,15.317-26.932,32.803c0,23.39,16.698,29.664,31.435,35.2
	c14.035,5.274,26.156,9.829,26.156,26.902c0,14.03-8.075,21.445-23.353,21.445c-13.807,0-19.301-5.923-23.315-10.251
	c-2.15-2.318-3.847-4.148-6.348-4.148c-4.146,0-7.699,4.901-7.699,8.912c0,7.128,11.383,18.155,30.055,20.693v8.799
	c0,4.698,3.823,8.521,8.521,8.521s8.521-3.823,8.521-8.521v-8.97c19.132-3.121,30.055-16.704,30.055-37.523
	C294.575,256.622,275.335,249.553,259.875,243.872z M259.163,245.808L259.163,245.808L259.163,245.808L259.163,245.808z"/>
<path style="fill:#5EAC24;" d="M325.558,50.619L302.009,66.73l-0.732,0.505l-35.09,23.992c-3.631,2.486-8.571-0.113-8.571-4.518
	V5.492c0-4.404,4.941-7.014,8.571-4.528l59.371,40.609C328.735,43.749,328.735,48.443,325.558,50.619z"/>
<path style="fill:#6DC82A;" d="M301.277,67.236l-35.09,23.992c-3.631,2.486-8.571-0.113-8.571-4.518V37.365L301.277,67.236z"/>
<path style="fill:#5EAC24;" d="M186.419,470.426l23.548,16.112l0.732,0.505l35.09,23.992c3.631,2.486,8.571-0.113,8.571-4.518
	v-81.218c0-4.404-4.941-7.014-8.571-4.528l-59.371,40.609C183.242,463.556,183.242,468.249,186.419,470.426z"/>
<path style="fill:#6DC82A;" d="M210.7,487.042l35.09,23.992c3.631,2.486,8.571-0.113,8.571-4.518v-49.345L210.7,487.042z"/>
<g>
</g>
<g>
</g>
<g>
</g>
<g>
</g>
<g>
</g>
<g>
</g>
<g>
</g>
<g>
</g>
<g>
</g>
<g>
</g>
<g>
</g>
<g>
</g>
<g>
</g>
<g>
</g>
<g>
</g>
</svg>
