<?xml version="1.0" encoding="iso-8859-1"?>
<!-- Generator: Adobe Illustrator 21.0.0, SVG Export Plug-In . SVG Version: 6.00 Build 0)  -->
<svg version="1.1" id="Capa_1" xmlns="http://www.w3.org/2000/svg" xmlns:xlink="http://www.w3.org/1999/xlink" x="0px" y="0px"
	 viewBox="0 0 512 512" style="enable-background:new 0 0 512 512;" xml:space="preserve">
<path style="fill:#5CC45C;" d="M441.558,419.759H7.673c-4.238,0-7.673-3.435-7.673-7.673V156.43c0-4.238,3.435-7.673,7.673-7.673
	h433.885c4.238,0,7.673,3.435,7.673,7.673v255.656C449.23,416.323,445.795,419.759,441.558,419.759z"/>
<path style="fill:#4EAD4E;" d="M441.558,148.757H7.673c-4.238,0-7.673,3.435-7.673,7.673v249.033h449.23V156.43
	C449.23,152.193,445.795,148.757,441.558,148.757z"/>
<path style="fill:#5CC45C;" d="M471.914,392.529H38.029c-4.238,0-7.673-3.435-7.673-7.673V129.201c0-4.238,3.435-7.673,7.673-7.673
	h433.885c4.238,0,7.673,3.435,7.673,7.673v255.656C479.586,389.094,476.151,392.529,471.914,392.529z"/>
<path style="fill:#4EAD4E;" d="M471.914,121.528H38.029c-4.238,0-7.673,3.435-7.673,7.673v247.876h449.23V129.201
	C479.587,124.963,476.151,121.528,471.914,121.528z"/>
<path style="fill:#5CC45C;" d="M504.327,363.243H70.442c-4.238,0-7.673-3.435-7.673-7.673V99.914c0-4.238,3.435-7.673,7.673-7.673
	h433.885c4.238,0,7.673,3.435,7.673,7.673V355.57C512,359.807,508.565,363.243,504.327,363.243z"/>
<path style="fill:#4EAD4E;" d="M504.327,92.241H456.51v271.001h47.817c4.238,0,7.673-3.435,7.673-7.673V99.914
	C512,95.677,508.565,92.241,504.327,92.241z"/>
<path style="fill:#A0E557;" d="M121.805,335.4c-1.621-16.449-14.744-29.572-31.193-31.193c-0.93-0.092-1.63-0.89-1.63-1.824v-149.28
	c0-0.934,0.7-1.733,1.63-1.824c16.449-1.621,29.572-14.744,31.193-31.193c0.092-0.93,0.89-1.63,1.824-1.63h327.51
	c0.934,0,1.733,0.7,1.824,1.63c1.621,16.449,14.744,29.572,31.193,31.193c0.93,0.092,1.63,0.89,1.63,1.824v149.28
	c0,0.934-0.7,1.733-1.63,1.824c-16.449,1.621-29.572,14.744-31.193,31.193c-0.092,0.93-0.89,1.63-1.824,1.63H309.054h-14.251H273.17
	H123.63C122.695,337.03,121.897,336.33,121.805,335.4z"/>
<path style="fill:#93CC4A;" d="M484.158,151.277c-16.449-1.621-29.572-14.744-31.193-31.193c-0.092-0.93-0.89-1.63-1.824-1.63
	h-22.012V337.03h22.012c0.934,0,1.733-0.7,1.824-1.63c1.621-16.449,14.744-29.572,31.193-31.193c0.93-0.092,1.63-0.89,1.63-1.825
	v-149.28C485.787,152.168,485.088,151.369,484.158,151.277z"/>
<circle style="fill:#F3E8D7;" cx="287.38" cy="227.74" r="74.14"/>
<path style="fill:#DDD1C3;" d="M287.385,153.605c-10.036,0-19.6,2.005-28.33,5.618c26.886,11.129,45.807,37.61,45.807,68.519
	s-18.92,57.389-45.807,68.519c8.73,3.613,18.294,5.618,28.33,5.618c40.945,0,74.137-33.192,74.137-74.137
	S328.329,153.605,287.385,153.605z"/>
<path style="fill:#4EAD4E;" d="M285.435,265.145c-14.655-0.237-24.582-8.155-24.582-13.946c0-2.837,2.482-6.737,5.436-6.737
	c3.9,0,7.091,8.273,19.146,9.218v-27.773c-10.636-3.782-22.455-8.037-22.455-23.164c0-14.891,11.227-20.8,22.455-21.982v-3.427
	c0-1.418,1.418-2.718,3.428-2.718c1.773,0,3.545,1.3,3.545,2.718v3.191c8.037,0.236,19.382,2.718,19.382,8.509
	c0,2.245-1.655,6.736-5.2,6.736c-2.836,0-5.909-3.782-14.182-4.373v23.991c10.282,3.782,21.509,8.982,21.509,25.055
	c0,14.537-8.746,22.573-21.509,24.346v4.018c0,1.418-1.773,2.718-3.545,2.718c-2.009,0-3.428-1.3-3.428-2.718L285.435,265.145
	L285.435,265.145z M286.144,213.143v-21.509c-6.619,0.827-11.346,3.782-11.346,9.927C274.798,208.298,279.88,210.78,286.144,213.143
	z M291.698,228.508v24.937c6.382-1.182,10.4-4.964,10.4-11.7C302.099,234.298,297.49,230.989,291.698,228.508z"/>
<g>
</g>
<g>
</g>
<g>
</g>
<g>
</g>
<g>
</g>
<g>
</g>
<g>
</g>
<g>
</g>
<g>
</g>
<g>
</g>
<g>
</g>
<g>
</g>
<g>
</g>
<g>
</g>
<g>
</g>
</svg>
