<?xml version="1.0" encoding="iso-8859-1"?>
<!-- Generator: Adobe Illustrator 19.0.0, SVG Export Plug-In . SVG Version: 6.00 Build 0)  -->
<svg version="1.1" id="Capa_1" xmlns="http://www.w3.org/2000/svg" xmlns:xlink="http://www.w3.org/1999/xlink" x="0px" y="0px"
	 viewBox="0 0 512 512" style="enable-background:new 0 0 512 512;" xml:space="preserve">
<path style="fill:#EE8700;" d="M392.578,255.17c0.22,33.293-11.665,66.737-35.957,93.201
	c-51.016,55.572-137.419,59.267-192.991,8.251c-29.548-27.125-44.438-64.264-44.208-101.452
	c0.18-32.743,12.066-65.515,35.957-91.539c51.016-55.572,137.419-59.267,192.991-8.251
	C377.478,182.104,392.357,218.542,392.578,255.17z"/>
<g>
	<path style="fill:#91DC5A;" d="M71.238,256.475c0,63.846,31.722,120.285,80.263,154.413c8.554,6.015,9.01,18.511,0.793,24.979
		l-0.231,0.182c-5.366,4.224-12.889,4.504-18.477,0.579c-56.668-39.797-93.706-105.654-93.706-180.153
		c0-120.842,97.454-218.942,218.055-219.975v31.368C154.643,68.891,71.238,152.942,71.238,256.475z"/>
	<path style="fill:#91DC5A;" d="M440.76,255.526c0-63.846-31.722-120.285-80.263-154.413c-8.554-6.015-9.01-18.511-0.793-24.979
		l0.231-0.182c5.366-4.224,12.889-4.504,18.477-0.579c56.668,39.797,93.706,105.654,93.706,180.153
		c0,120.842-97.454,218.942-218.055,219.975v-31.369C357.356,443.109,440.76,359.058,440.76,255.526z"/>
</g>
<path style="fill:#CC7400;" d="M392.578,255.17c0.22,33.293-11.665,66.737-35.957,93.201
	c-51.016,55.572-137.419,59.267-192.991,8.251c-29.548-27.125-44.438-64.264-44.208-101.452L392.578,255.17L392.578,255.17z"/>
<path style="fill:#FFA733;" d="M278.599,355.681c-0.881,0.2-1.762,0.391-2.643,0.561c-54.151,10.814-107.36-23.471-119.636-77.641
	c-12.486-55.052,22.029-109.803,77.08-122.279c14.509-3.294,28.998-3.314,42.696-0.561c38.28,7.7,70.392,37.098,79.584,77.641
	C368.166,288.453,333.651,343.204,278.599,355.681z"/>
<path style="fill:#FFC477;" d="M278.599,355.681c-0.881,0.2-1.762,0.391-2.643,0.561c-38.28-7.7-70.392-37.098-79.584-77.641
	c-12.486-55.052,22.029-109.803,77.08-122.279c0.881-0.2,1.762-0.391,2.643-0.561c38.28,7.7,70.392,37.098,79.584,77.641
	C368.166,288.453,333.651,343.204,278.599,355.681z"/>
<path style="fill:#5EAC24;" d="M323.523,56.651l-22.86,15.64l-0.711,0.491l-34.064,23.29c-3.525,2.413-8.321-0.11-8.321-4.386
	V12.844c0-4.276,4.796-6.809,8.321-4.396l57.635,39.421C326.607,49.982,326.607,54.538,323.523,56.651z"/>
<path style="fill:#6DC82A;" d="M299.952,72.782l-34.064,23.29c-3.525,2.413-8.321-0.11-8.321-4.386V43.784L299.952,72.782z"/>
<path style="fill:#5EAC24;" d="M188.453,464.182l22.86,15.64l0.711,0.491l34.064,23.29c3.525,2.413,8.321-0.11,8.321-4.386v-78.843
	c0-4.276-4.796-6.809-8.321-4.396L188.453,455.4C185.369,457.513,185.369,462.069,188.453,464.182z"/>
<path style="fill:#6DC82A;" d="M212.023,480.313l34.064,23.29c3.525,2.413,8.321-0.11,8.321-4.386v-47.902L212.023,480.313z"/>
<path d="M241.623,112.616c-73.556,7.352-129.726,69.311-129.726,143.348c0,78.641,63.642,144.139,144.066,144.139
	c40.268,0,78.974-17.004,106.19-46.652c79.889-87.027,26.191-226.751-88.916-240.527c-4.122-0.493-7.856,2.446-8.349,6.565
	c-0.493,4.118,2.446,7.856,6.565,8.349c102.673,12.287,151.443,137.234,79.637,215.458c-48.169,52.47-129.842,56.029-182.384,7.797
	c-26.558-24.381-41.789-59.053-41.789-95.126c0-66.208,50.213-121.809,116.199-128.402c4.127-0.413,7.138-4.092,6.726-8.219
	C249.429,115.215,245.743,112.199,241.623,112.616z"/>
<path d="M162.387,270.356c-0.632-4.098-4.466-6.91-8.567-6.276c-4.099,0.633-6.909,4.468-6.276,8.567
	c4.288,27.791,19.035,52.566,40.444,69.457c48.466,38.239,117.289,28.587,154.117-18.093
	c38.239-48.466,28.587-117.289-18.093-154.117c-66.848-52.741-164.822-12.305-176.662,70.61c-0.586,4.106,2.267,7.909,6.373,8.496
	c4.098,0.581,7.909-2.267,8.496-6.373c6.559-45.926,46.33-81.353,93.874-81.353c53.693,0,94.631,43.457,94.631,94.818
	c0,53.693-43.457,94.631-94.818,94.631C208.901,350.725,169.569,316.875,162.387,270.356z"/>
<path d="M254.82,305.786c-13.403,0-18.736-5.749-22.633-9.951c-2.087-2.25-3.735-4.026-6.162-4.026
	c-4.025,0-7.474,4.757-7.474,8.651c0,6.92,11.05,17.624,29.176,20.088v8.542c0,4.561,3.711,8.272,8.272,8.272
	c4.561,0,8.272-3.711,8.272-8.272v-8.707c18.572-3.03,29.176-16.215,29.176-36.425c0-47.613-55.907-32.104-55.907-60.287
	c0-14.144,11.962-17.113,21.997-17.113c14.694,0,19.11,6.399,23.576,6.399c4.862,0,7.304-5.546,7.304-8.651
	c0-7.889-14.979-11.697-26.144-12.516v-8.88c0-4.561-3.711-8.272-8.272-8.272c-4.561,0-8.272,3.711-8.272,8.272v9.928
	c-16.878,3.617-26.144,14.869-26.144,31.843c0,22.706,16.21,28.797,30.516,34.171c13.625,5.12,25.391,9.541,25.391,26.115
	C277.491,298.586,269.651,305.786,254.82,305.786z"/>
<path d="M155.819,404.745c-48.26-33.931-77.071-89.359-77.071-148.27c0-96.339,76.342-175.921,171.687-180.851v16.058
	c0,7.077,5.761,12.836,12.844,12.836c2.575,0,5.074-0.778,7.225-2.249l57.631-39.42c3.498-2.392,5.585-6.35,5.585-10.588
	s-2.088-8.196-5.585-10.587c-7.19-4.918-50.435-34.498-57.636-39.423c-8.503-5.81-20.065,0.309-20.065,10.59v16.348
	C129.144,34.109,32.369,133.855,32.369,256.475c0,74.042,36.224,143.686,96.899,186.298c15.51,10.892,36.931-1.021,36.427-19.671
	C165.496,415.708,161.896,409.017,155.819,404.745z M265.454,16.996l51.555,35.264l-51.555,35.264V16.996z M137.901,430.482
	C81.225,390.68,47.389,325.63,47.389,256.475c0-113.622,90.402-207.296,203.035-212.267V60.57
	c-103.817,4.888-186.696,90.5-186.696,195.905c0,63.794,31.198,123.815,83.453,160.556c2.155,1.515,3.43,3.876,3.501,6.477
	C150.86,430.072,143.194,434.2,137.901,430.482z"/>
<path d="M382.73,69.227c-3.855-2.708-8.393-4.138-13.123-4.138c-8.417,0-13.519,4.58-14.545,5.144
	c-12.142,9.556-11.573,28.1,1.118,37.023c48.26,33.931,77.072,89.359,77.072,148.27c0,96.339-76.342,175.921-171.687,180.851
	v-16.058c0-7.077-5.762-12.836-12.844-12.836c-6.915,0-4.924,1.572-64.856,41.669c-7.46,5.102-7.425,16.098,0,21.175
	c7.19,4.918,50.435,34.498,57.636,39.423c8.503,5.81,20.065-0.309,20.065-10.59v-16.35c53.153-2.187,103.799-22.867,143.328-58.707
	c3.073-2.786,3.305-7.535,0.52-10.608c-2.786-3.073-7.534-3.305-10.608-0.52c-36.76,33.33-83.816,52.635-133.229,54.815v-16.361
	c49.173-2.315,95.062-22.7,129.907-57.875c86.372-87.19,71.624-229.479-26.665-298.586c-2.227-1.565-3.505-4.006-3.505-6.698
	c0-4.35,3.202-6.316,3.267-6.416c2.704-2.129,6.59-2.392,9.516-0.334c102.179,71.758,120.689,215.474,40.813,310.573
	c-2.667,3.176-2.255,7.913,0.92,10.581c3.175,2.667,7.912,2.255,10.581-0.92c34.318-40.859,53.217-92.79,53.217-146.226
	C479.629,181.484,443.405,111.84,382.73,69.227z M246.544,495.004l-51.555-35.264l51.555-35.264V495.004z"/>
<g>
</g>
<g>
</g>
<g>
</g>
<g>
</g>
<g>
</g>
<g>
</g>
<g>
</g>
<g>
</g>
<g>
</g>
<g>
</g>
<g>
</g>
<g>
</g>
<g>
</g>
<g>
</g>
<g>
</g>
</svg>
