<?xml version="1.0" encoding="iso-8859-1"?>
<!-- Generator: Adobe Illustrator 21.0.0, SVG Export Plug-In . SVG Version: 6.00 Build 0)  -->
<svg version="1.1" id="Capa_1" xmlns="http://www.w3.org/2000/svg" xmlns:xlink="http://www.w3.org/1999/xlink" x="0px" y="0px"
	 viewBox="0 0 512 512" style="enable-background:new 0 0 512 512;" xml:space="preserve">
<circle style="fill:#FCB038;" cx="141.76" cy="134.24" r="126.83"/>
<path style="fill:#FD8F31;" d="M141.763,7.41c-9.327,0-18.415,1.016-27.169,2.927c56.988,12.439,99.659,63.183,99.659,123.901
	s-42.671,111.461-99.659,123.901c8.754,1.911,17.842,2.927,27.169,2.927c70.045,0,126.828-56.783,126.828-126.828
	S211.808,7.41,141.763,7.41z"/>
<circle style="fill:#FFE285;" cx="141.76" cy="134.24" r="93.17"/>
<path style="fill:#EFCD6F;" d="M141.763,41.07c-9.452,0-18.573,1.412-27.169,4.029c38.201,11.629,65.999,47.135,65.999,89.139
	c0,42.003-27.798,77.51-65.999,89.139c8.596,2.617,17.717,4.029,27.169,4.029c51.455,0,93.168-41.713,93.168-93.168
	S193.218,41.07,141.763,41.07z"/>
<path d="M138.259,186.827c-18.991-0.307-31.855-10.568-31.855-18.072c0-3.676,3.216-8.729,7.045-8.729
	c5.054,0,9.188,10.721,24.811,11.946v-35.991c-13.784-4.901-29.099-10.415-29.099-30.018c0-19.297,14.549-26.955,29.099-28.486
	v-4.441c0-1.838,1.838-3.522,4.441-3.522c2.297,0,4.595,1.685,4.595,3.522v4.135c10.414,0.306,25.117,3.522,25.117,11.027
	c0,2.91-2.145,8.729-6.739,8.729c-3.676,0-7.657-4.901-18.378-5.667v31.09c13.324,4.901,27.873,11.64,27.873,32.469
	c0,18.837-11.333,29.252-27.873,31.549v5.207c0,1.838-2.298,3.522-4.595,3.522c-2.604,0-4.441-1.685-4.441-3.522v-4.748H138.259z
	 M139.178,119.44V91.567c-8.576,1.072-14.703,4.9-14.703,12.865C124.475,113.161,131.061,116.377,139.178,119.44z M146.376,139.35
	v32.315c8.271-1.532,13.478-6.433,13.478-15.162C159.854,146.854,153.88,142.566,146.376,139.35z"/>
<circle style="fill:#FCB038;" cx="370.24" cy="377.76" r="126.83"/>
<path style="fill:#FD8F31;" d="M370.237,250.935c-9.327,0-18.416,1.016-27.169,2.927c56.987,12.44,99.659,63.183,99.659,123.901
	s-42.671,111.461-99.659,123.901c8.754,1.911,17.842,2.927,27.169,2.927c70.045,0,126.828-56.783,126.828-126.828
	S440.282,250.935,370.237,250.935z"/>
<circle style="fill:#FFE285;" cx="370.24" cy="377.76" r="93.17"/>
<path style="fill:#EFCD6F;" d="M370.237,284.594c-9.49,0-18.648,1.423-27.275,4.061c38.147,11.662,65.893,47.143,65.893,89.107
	s-27.746,77.445-65.893,89.107c8.627,2.637,17.784,4.061,27.275,4.061c51.455,0,93.168-41.713,93.168-93.168
	S421.692,284.594,370.237,284.594z"/>
<path id="SVGCleanerId_0" d="M341.526,335.632c0-3.106,3.105-4.727,6.347-4.727h24.577c14.449,0,27.278,4.321,27.278,23.362
	c0,11.208-4.457,18.771-11.479,21.876c8.372,3.241,13.909,8.778,13.909,22.552v2.566c0,20.931-11.749,28.358-26.873,28.358h-27.413
	c-3.916,0-6.347-2.161-6.347-4.591v-89.396H341.526z M355.705,370.472h16.07c9.183,0,13.639-4.727,13.639-13.909
	c0-9.048-5.401-12.964-13.909-12.964h-15.8L355.705,370.472L355.705,370.472z M372.585,416.926c9.588,0,15.26-5.131,15.26-16.745
	v-2.161c0-11.883-5.672-16.205-15.26-16.205h-16.88v35.11h16.88V416.926z"/>
<g>
	<path id="SVGCleanerId_0_1_" d="M341.526,335.632c0-3.106,3.105-4.727,6.347-4.727h24.577c14.449,0,27.278,4.321,27.278,23.362
		c0,11.208-4.457,18.771-11.479,21.876c8.372,3.241,13.909,8.778,13.909,22.552v2.566c0,20.931-11.749,28.358-26.873,28.358h-27.413
		c-3.916,0-6.347-2.161-6.347-4.591v-89.396H341.526z M355.705,370.472h16.07c9.183,0,13.639-4.727,13.639-13.909
		c0-9.048-5.401-12.964-13.909-12.964h-15.8L355.705,370.472L355.705,370.472z M372.585,416.926c9.588,0,15.26-5.131,15.26-16.745
		v-2.161c0-11.883-5.672-16.205-15.26-16.205h-16.88v35.11h16.88V416.926z"/>
</g>
<path d="M223.383,464.462c-0.008-0.098-0.021-0.195-0.032-0.292c-0.015-0.129-0.032-0.257-0.054-0.385
	c-0.019-0.11-0.042-0.219-0.066-0.327c-0.025-0.112-0.051-0.224-0.082-0.336c-0.031-0.115-0.065-0.23-0.101-0.343
	c-0.033-0.102-0.069-0.204-0.107-0.306c-0.043-0.116-0.087-0.23-0.136-0.344c-0.016-0.037-0.028-0.075-0.044-0.112L202.99,417.87
	c-1.672-3.736-6.058-5.406-9.791-3.734c-3.735,1.673-5.407,6.056-3.734,9.791l14.245,31.809
	c-39.494-7.233-75.565-26.573-102.67-55.29c-30.195-31.992-48.199-74.538-50.695-119.8c-0.226-4.086-3.716-7.218-7.806-6.991
	c-4.086,0.225-7.216,3.721-6.99,7.807c2.688,48.752,22.119,94.62,54.714,129.155c28.189,29.867,65.327,50.334,106.068,58.774
	l-23.801,16.082c-3.39,2.291-4.282,6.897-1.991,10.288c1.433,2.12,3.769,3.263,6.147,3.263c1.427,0,2.87-0.412,4.142-1.271
	l39.32-26.568c0.045-0.03,0.085-0.065,0.129-0.096c0.089-0.063,0.175-0.128,0.261-0.194c0.092-0.072,0.183-0.145,0.271-0.22
	c0.077-0.065,0.151-0.133,0.226-0.201c0.089-0.082,0.175-0.166,0.26-0.252c0.069-0.07,0.136-0.143,0.202-0.216
	c0.08-0.088,0.157-0.178,0.232-0.27c0.066-0.08,0.129-0.161,0.191-0.244c0.067-0.089,0.131-0.179,0.194-0.271
	s0.124-0.185,0.183-0.281c0.054-0.087,0.105-0.174,0.154-0.263c0.059-0.104,0.116-0.208,0.169-0.316
	c0.043-0.086,0.083-0.174,0.123-0.262c0.05-0.111,0.1-0.223,0.145-0.337c0.037-0.093,0.069-0.188,0.102-0.282
	c0.038-0.11,0.077-0.22,0.11-0.332c0.034-0.115,0.062-0.231,0.09-0.347c0.023-0.095,0.049-0.189,0.069-0.286
	c0.034-0.169,0.06-0.339,0.082-0.51c0.006-0.044,0.016-0.086,0.021-0.13c0-0.005,0-0.01,0.001-0.015
	c0.026-0.236,0.041-0.474,0.044-0.713c0.001-0.063-0.004-0.125-0.004-0.188C223.4,464.795,223.396,464.629,223.383,464.462z"/>
<path d="M283.005,43.97c0.011,0.104,0.028,0.207,0.043,0.31c0.018,0.122,0.037,0.243,0.061,0.364
	c0.023,0.115,0.05,0.228,0.078,0.341c0.026,0.106,0.055,0.211,0.086,0.316c0.036,0.12,0.074,0.238,0.116,0.355
	c0.034,0.096,0.071,0.191,0.109,0.286c0.048,0.12,0.097,0.238,0.151,0.355c0.016,0.035,0.028,0.07,0.045,0.105L304.646,90
	c1.275,2.654,3.924,4.202,6.683,4.202c1.077,0,2.17-0.236,3.205-0.733c3.689-1.772,5.241-6.199,3.469-9.888l-15.098-31.414
	c39.674,6.167,76.254,24.528,104.122,52.505c31.045,31.168,50.188,73.213,53.903,118.391c0.318,3.872,3.559,6.803,7.376,6.803
	c0.204,0,0.409-0.008,0.616-0.026c4.079-0.335,7.114-3.913,6.778-7.992c-4-48.662-24.66-93.99-58.173-127.635
	c-28.983-29.098-66.66-48.557-107.612-55.896L333.274,21.6c3.328-2.382,4.095-7.01,1.713-10.338
	c-2.38-3.328-7.008-4.095-10.338-1.714l-38.47,27.531c-0.02,0.014-0.038,0.028-0.058,0.041l-0.062,0.045
	c-0.048,0.035-0.092,0.074-0.139,0.109c-0.127,0.096-0.254,0.191-0.375,0.295c-0.049,0.042-0.093,0.088-0.141,0.131
	c-0.384,0.347-0.73,0.734-1.035,1.155c-0.048,0.067-0.1,0.132-0.146,0.2c-0.075,0.111-0.142,0.227-0.21,0.342
	c-0.047,0.078-0.096,0.156-0.139,0.236c-0.062,0.114-0.119,0.232-0.175,0.349c-0.042,0.087-0.084,0.174-0.122,0.263
	c-0.05,0.115-0.095,0.232-0.139,0.35c-0.037,0.1-0.072,0.2-0.105,0.301c-0.036,0.11-0.07,0.221-0.101,0.334
	c-0.034,0.123-0.062,0.248-0.09,0.373c-0.021,0.095-0.043,0.19-0.06,0.286c-0.032,0.181-0.056,0.363-0.075,0.546
	c-0.004,0.041-0.013,0.081-0.017,0.123c0,0.007,0,0.013-0.001,0.019c-0.02,0.234-0.028,0.469-0.025,0.705
	c0.001,0.072,0.008,0.143,0.011,0.215C282.98,43.656,282.989,43.813,283.005,43.97z"/>
<path d="M141.763,268.475c74.019,0,134.237-60.219,134.237-134.237C276.001,60.219,215.782,0,141.763,0S7.526,60.219,7.526,134.238
	S67.744,268.475,141.763,268.475z M141.763,14.82c65.847,0,119.418,53.571,119.418,119.418S207.61,253.656,141.763,253.656
	S22.345,200.085,22.345,134.238C22.345,68.39,75.916,14.82,141.763,14.82z"/>
<path d="M48.987,122.848c0.498,0.101,0.994,0.15,1.483,0.15c3.45,0,6.54-2.424,7.254-5.936c8.076-39.74,43.419-68.582,84.04-68.582
	c40.511,0,75.835,28.749,83.993,68.36c0.826,4.009,4.752,6.585,8.752,5.762c4.009-0.825,6.589-4.744,5.763-8.752
	c-9.57-46.465-50.999-80.19-98.508-80.19c-47.638,0-89.09,33.834-98.562,80.451C42.386,118.121,44.976,122.033,48.987,122.848z"/>
<path d="M76.59,210.845c18.153,15.458,41.299,23.97,65.174,23.97c49.099,0,90.781-35.065,99.111-83.376
	c0.696-4.033-2.01-7.866-6.043-8.561c-4.042-0.693-7.866,2.011-8.561,6.043c-7.102,41.183-42.642,71.075-84.508,71.075
	c-41.92,0-77.468-29.936-84.526-71.183c-0.69-4.033-4.52-6.743-8.553-6.054c-4.034,0.69-6.744,4.52-6.054,8.554
	C46.585,174.423,58.645,195.565,76.59,210.845z"/>
<path d="M370.237,243.525C296.218,243.525,236,303.744,236,377.763S296.218,512,370.237,512s134.237-60.219,134.237-134.237
	C504.474,303.743,444.256,243.525,370.237,243.525z M370.237,497.18c-65.847,0-119.418-53.571-119.418-119.418
	c0-65.848,53.571-119.418,119.418-119.418s119.418,53.571,119.418,119.418C489.655,443.61,436.084,497.18,370.237,497.18z"/>
<path d="M277.159,369.219c4.034,0.696,7.864-2.018,8.555-6.052c7.065-41.234,42.612-71.162,84.522-71.162
	s77.457,29.928,84.522,71.162c0.618,3.61,3.752,6.16,7.295,6.159c0.416,0,0.836-0.035,1.26-0.108
	c4.034-0.691,6.743-4.521,6.052-8.555c-8.289-48.371-49.979-83.479-99.13-83.479s-90.841,35.108-99.13,83.479
	C270.416,364.697,273.126,368.528,277.159,369.219z"/>
<path d="M463.006,389.216c-4.009-0.823-7.923,1.77-8.741,5.78c-8.097,39.706-43.436,68.524-84.028,68.524
	c-40.631,0-75.976-28.852-84.043-68.602c-0.814-4.01-4.72-6.602-8.736-5.788c-4.01,0.814-6.601,4.725-5.788,8.735
	c9.464,46.63,50.917,80.474,98.567,80.474c47.605,0,89.05-33.806,98.549-80.383C469.604,393.947,467.016,390.034,463.006,389.216z"
	/>
<g>
</g>
<g>
</g>
<g>
</g>
<g>
</g>
<g>
</g>
<g>
</g>
<g>
</g>
<g>
</g>
<g>
</g>
<g>
</g>
<g>
</g>
<g>
</g>
<g>
</g>
<g>
</g>
<g>
</g>
</svg>
