<?xml version="1.0" encoding="iso-8859-1"?>
<!-- Generator: Adobe Illustrator 19.0.0, SVG Export Plug-In . SVG Version: 6.00 Build 0)  -->
<svg version="1.1" id="Layer_1" xmlns="http://www.w3.org/2000/svg" xmlns:xlink="http://www.w3.org/1999/xlink" x="0px" y="0px"
	 viewBox="0 0 511.999 511.999" style="enable-background:new 0 0 511.999 511.999;" xml:space="preserve">
<path style="fill:#81BC82;" d="M363.789,61.978H148.21c-47.625,0-86.232,38.607-86.232,86.232v215.579
	c0,47.625,38.607,86.232,86.232,86.232h215.579c47.625,0,86.232-38.607,86.232-86.232V148.21
	C450.02,100.585,411.413,61.978,363.789,61.978z M374.568,342.231c0,17.86-14.477,32.337-32.337,32.337H169.768
	c-17.86,0-32.337-14.477-32.337-32.337V169.768c0-17.86,14.477-32.337,32.337-32.337h172.463c17.86,0,32.337,14.477,32.337,32.337
	V342.231z"/>
<path style="fill:#FE7D49;" d="M450.02,148.21v107.789h-75.453v-86.232c0-17.86-14.477-32.337-32.337-32.337H169.768
	c-17.86,0-32.337,14.477-32.337,32.337v86.232H61.978V148.21c0-47.625,38.607-86.232,86.232-86.232h215.579
	C411.413,61.978,450.02,100.585,450.02,148.21z"/>
<path style="fill:#699E69;" d="M450.02,288.336h-75.453v-64.674h75.453V288.336z"/>
<path style="fill:#81BC82;" d="M481.507,255.999H337.898c-19.924,0-29.902-24.089-15.814-38.177l71.805-71.805
	c8.733-8.733,22.893-8.733,31.627,0l71.805,71.805C511.409,231.911,501.43,255.999,481.507,255.999z"/>
<path style="fill:#FE5A3A;" d="M137.431,288.336H61.978v-64.674h75.453V288.336z"/>
<path style="fill:#FE7D49;" d="M189.915,294.176l-71.805,71.805c-8.733,8.733-22.893,8.733-31.627,0l-71.805-71.805
	c-14.088-14.088-4.11-38.177,15.814-38.177h143.609C194.025,255.999,204.003,280.088,189.915,294.176z"/>
<path d="M503.005,212.105l-44.927-44.933V148.21c0-52.006-42.304-94.316-94.304-94.316H148.224c-52,0-94.304,42.31-94.304,94.316
	v99.705H30.521c-12.548,0-23.326,7.202-28.127,18.796c-4.801,11.594-2.272,24.309,6.599,33.182l44.927,44.933v18.962
	c0,52.006,42.304,94.316,94.304,94.316h215.551c52,0,94.304-42.31,94.304-94.316v-99.705h23.399
	c12.548,0,23.326-7.203,28.127-18.796C514.405,233.693,511.877,220.98,503.005,212.105z M17.33,272.899
	c2.286-5.519,7.217-8.815,13.191-8.815h53.576c4.465,0,8.083-3.618,8.083-8.084c0-4.466-3.618-8.084-8.083-8.084h-14.01V148.21
	c0-43.091,35.052-78.147,78.138-78.147h215.551c43.085,0,78.138,35.056,78.138,78.147v2.795L431.21,140.3
	c-11.87-11.869-31.182-11.871-43.054,0l-10.347,10.348c-6.924-12.794-20.522-21.301-35.589-21.301H169.778
	c-22.285,0-40.416,18.132-40.416,40.421v78.147H116.61c-4.465,0-8.083,3.618-8.083,8.084c0,4.466,3.618,8.084,8.083,8.084h57.502
	c5.973,0,10.904,3.295,13.19,8.815c2.286,5.52,1.13,11.337-3.095,15.562l-71.795,71.804c-5.566,5.568-14.625,5.568-20.191,0
	l-71.796-71.805C16.2,284.235,15.043,278.419,17.33,272.899z M309.76,245.288c4.802,11.593,15.58,18.795,28.127,18.795h28.583
	v78.147c0,13.372-10.878,24.253-24.249,24.253H169.778c-10.81,0-20.286-7.321-23.26-17.464l49.121-49.127
	c8.871-8.873,11.4-21.587,6.598-33.181c-4.802-11.594-15.579-18.796-28.126-18.796h-28.583v-78.147
	c0-13.372,10.878-24.253,24.249-24.253H342.22c10.776,0,20.29,7.247,23.271,17.453l-49.132,49.138
	C307.487,220.981,304.959,233.695,309.76,245.288z M494.669,239.1c-2.286,5.519-7.217,8.815-13.191,8.815h-49.804
	c-4.465,0-8.083,3.618-8.083,8.084c0,4.466,3.618,8.084,8.083,8.084h10.239v99.705c0,43.091-35.052,78.147-78.138,78.147H148.224
	c-43.085,0-78.138-35.056-78.138-78.147v-2.795l10.702,10.705c5.936,5.936,13.73,8.903,21.527,8.903
	c7.794-0.001,15.593-2.969,21.528-8.903l10.359-10.36c6.915,12.739,20.475,21.313,35.577,21.313H342.22
	c22.285,0,40.416-18.132,40.416-40.421v-78.147h12.395c4.465,0,8.083-3.618,8.083-8.084c0-4.466-3.618-8.084-8.083-8.084h-57.143
	c-5.973,0-10.904-3.295-13.19-8.815s-1.13-11.337,3.095-15.562l71.795-71.805c5.567-5.566,14.626-5.566,20.191,0l71.796,71.805
	C495.798,227.764,496.955,233.58,494.669,239.1z"/>
<g>
</g>
<g>
</g>
<g>
</g>
<g>
</g>
<g>
</g>
<g>
</g>
<g>
</g>
<g>
</g>
<g>
</g>
<g>
</g>
<g>
</g>
<g>
</g>
<g>
</g>
<g>
</g>
<g>
</g>
</svg>
