<?xml version="1.0" encoding="iso-8859-1"?>
<!-- Generator: Adobe Illustrator 21.0.0, SVG Export Plug-In . SVG Version: 6.00 Build 0)  -->
<svg version="1.1" id="Capa_1" xmlns="http://www.w3.org/2000/svg" xmlns:xlink="http://www.w3.org/1999/xlink" x="0px" y="0px"
	 viewBox="0 0 512 512" style="enable-background:new 0 0 512 512;" xml:space="preserve">
<circle style="fill:#FCB038;" cx="138.36" cy="130.61" r="130.61"/>
<path style="fill:#FD8F31;" d="M138.358,0c-9.605,0-18.964,1.046-27.979,3.014c58.686,12.81,102.629,65.066,102.629,127.594
	s-43.943,114.784-102.629,127.594c9.015,1.968,18.374,3.014,27.979,3.014c72.133,0,130.608-58.475,130.608-130.608
	S210.491,0,138.358,0z"/>
<circle style="fill:#FFE285;" cx="138.36" cy="130.61" r="95.94"/>
<path style="fill:#EFCD6F;" d="M138.358,34.663c-9.734,0-19.127,1.454-27.979,4.149c39.34,11.976,67.966,48.54,67.966,91.796
	c0,43.255-28.626,79.82-67.966,91.796c8.853,2.695,18.246,4.149,27.979,4.149c52.989,0,95.945-42.956,95.945-95.945
	C234.303,77.619,191.347,34.663,138.358,34.663z"/>
<path style="fill:#FD8F31;" d="M134.747,184.764c-19.558-0.315-32.805-10.882-32.805-18.61c0-3.785,3.312-8.99,7.255-8.99
	c5.204,0,9.463,11.04,25.55,12.302v-37.064c-14.195-5.047-29.966-10.724-29.966-30.912c0-19.872,14.983-27.758,29.966-29.335v-4.573
	c0-1.893,1.892-3.628,4.573-3.628c2.366,0,4.731,1.735,4.731,3.628v4.258c10.725,0.315,25.865,3.628,25.865,11.356
	c0,2.997-2.208,8.99-6.939,8.99c-3.786,0-7.886-5.047-18.926-5.835v32.016c13.721,5.047,28.704,11.986,28.704,33.435
	c0,19.399-11.671,30.124-28.704,32.49v5.362c0,1.892-2.366,3.627-4.731,3.627c-2.682,0-4.573-1.735-4.573-3.627L134.747,184.764
	L134.747,184.764z M135.693,115.37V86.665c-8.832,1.104-15.141,5.047-15.141,13.248C120.552,108.904,127.334,112.215,135.693,115.37
	z M143.105,135.873v33.278c8.517-1.577,13.879-6.624,13.879-15.614C156.985,143.601,150.834,139.185,143.105,135.873z"/>
<circle style="fill:#FCB038;" cx="373.64" cy="381.39" r="130.61"/>
<path style="fill:#FD8F31;" d="M373.642,250.783c-9.605,0-18.964,1.046-27.979,3.014c58.686,12.81,102.629,65.066,102.629,127.594
	s-43.943,114.784-102.629,127.594c9.015,1.968,18.374,3.014,27.979,3.014c72.133,0,130.608-58.475,130.608-130.608
	S445.775,250.783,373.642,250.783z"/>
<circle style="fill:#FFE285;" cx="373.64" cy="381.39" r="95.94"/>
<path style="fill:#EFCD6F;" d="M373.642,285.447c-9.773,0-19.204,1.466-28.088,4.182c39.284,12.01,67.857,48.548,67.857,91.764
	s-28.573,79.754-67.857,91.764c8.884,2.716,18.314,4.182,28.088,4.182c52.989,0,95.945-42.956,95.945-95.945
	S426.631,285.447,373.642,285.447z"/>
<path style="fill:#FD8F31;" d="M344.073,338.013c0-3.198,3.198-4.867,6.536-4.867h25.307c14.879,0,28.089,4.45,28.089,24.056
	c0,11.542-4.589,19.329-11.82,22.527c8.621,3.337,14.322,9.039,14.322,23.222v2.642c0,21.553-12.098,29.201-27.672,29.201h-28.228
	c-4.033,0-6.536-2.225-6.536-4.728v-92.053H344.073z M358.674,373.889h16.547c9.456,0,14.045-4.867,14.045-14.322
	c0-9.317-5.562-13.349-14.322-13.349h-16.27L358.674,373.889L358.674,373.889z M376.055,421.724c9.873,0,15.713-5.284,15.713-17.243
	v-2.225c0-12.237-5.84-16.687-15.713-16.687h-17.382v36.154h17.382V421.724z"/>
<g>
	<path style="fill:#0D6E9A;" d="M222.43,471.19c-0.002-0.172-0.006-0.343-0.02-0.515c-0.008-0.101-0.022-0.2-0.033-0.301
		c-0.016-0.133-0.033-0.265-0.056-0.397c-0.019-0.113-0.043-0.225-0.068-0.337c-0.025-0.116-0.053-0.231-0.084-0.346
		c-0.032-0.119-0.067-0.236-0.104-0.353c-0.034-0.105-0.071-0.21-0.11-0.315c-0.044-0.119-0.09-0.237-0.14-0.354
		c-0.016-0.038-0.028-0.077-0.046-0.115l-20.36-45.463c-1.722-3.847-6.239-5.568-10.083-3.845
		c-3.846,1.722-5.568,6.237-3.845,10.083l14.67,32.757c-40.671-7.449-77.818-27.365-105.73-56.938
		c-31.095-32.946-49.635-76.76-52.206-123.371c-0.232-4.208-3.826-7.433-8.039-7.199c-4.208,0.232-7.431,3.832-7.198,8.04
		c2.768,50.205,22.779,97.441,56.345,133.005c29.03,30.758,67.275,51.835,109.229,60.526l-24.511,16.561
		c-3.491,2.359-4.41,7.103-2.051,10.595c1.475,2.183,3.881,3.36,6.33,3.36c1.469,0,2.956-0.424,4.265-1.309l40.492-27.36
		c0.046-0.031,0.087-0.067,0.133-0.099c0.091-0.065,0.181-0.131,0.269-0.2c0.095-0.074,0.188-0.149,0.279-0.226
		c0.079-0.067,0.156-0.137,0.232-0.207c0.091-0.085,0.181-0.171,0.267-0.259c0.071-0.073,0.14-0.147,0.209-0.222
		c0.082-0.091,0.162-0.183,0.239-0.278c0.068-0.082,0.133-0.166,0.197-0.251c0.069-0.092,0.135-0.184,0.2-0.279
		s0.128-0.191,0.189-0.289c0.055-0.089,0.108-0.18,0.159-0.271c0.06-0.107,0.119-0.215,0.174-0.325
		c0.045-0.089,0.086-0.179,0.127-0.27c0.052-0.114,0.103-0.229,0.149-0.347c0.038-0.096,0.071-0.193,0.105-0.291
		c0.039-0.113,0.079-0.226,0.114-0.342c0.035-0.118,0.063-0.238,0.093-0.357c0.024-0.098,0.05-0.195,0.071-0.295
		c0.035-0.174,0.061-0.349,0.085-0.526c0.006-0.045,0.016-0.088,0.021-0.134c0-0.005,0-0.01,0.001-0.015
		c0.027-0.243,0.042-0.488,0.046-0.734C222.436,471.319,222.431,471.255,222.43,471.19z"/>
	<path style="fill:#0D6E9A;" d="M482.249,220.831c-4.119-50.113-25.395-96.792-59.907-131.439
		c-29.847-29.965-68.647-50.004-110.82-57.563l24.056-17.215c3.427-2.453,4.217-7.219,1.764-10.646
		c-2.451-3.427-7.217-4.217-10.646-1.765l-39.617,28.352c-0.02,0.014-0.039,0.029-0.059,0.043l-0.064,0.046
		c-0.05,0.036-0.094,0.076-0.143,0.113c-0.131,0.098-0.262,0.197-0.386,0.303c-0.05,0.043-0.096,0.09-0.145,0.135
		c-0.395,0.357-0.751,0.755-1.065,1.19c-0.05,0.069-0.103,0.136-0.151,0.206c-0.077,0.114-0.146,0.233-0.216,0.352
		c-0.048,0.081-0.098,0.16-0.143,0.243c-0.064,0.117-0.122,0.238-0.18,0.36c-0.043,0.09-0.086,0.179-0.126,0.27
		c-0.051,0.118-0.098,0.239-0.143,0.36c-0.039,0.103-0.075,0.206-0.108,0.31c-0.037,0.114-0.072,0.228-0.104,0.344
		c-0.035,0.127-0.064,0.255-0.093,0.384c-0.021,0.098-0.045,0.195-0.062,0.295c-0.033,0.186-0.057,0.374-0.077,0.562
		c-0.004,0.043-0.014,0.084-0.017,0.127c-0.001,0.007,0,0.013-0.001,0.02c-0.02,0.241-0.028,0.483-0.026,0.726
		c0.001,0.075,0.008,0.147,0.011,0.221c0.006,0.162,0.015,0.323,0.032,0.485c0.011,0.107,0.028,0.213,0.044,0.319
		c0.018,0.125,0.038,0.25,0.063,0.375c0.024,0.118,0.052,0.235,0.081,0.351c0.027,0.109,0.056,0.217,0.088,0.326
		c0.037,0.123,0.076,0.245,0.119,0.366c0.035,0.099,0.073,0.197,0.112,0.295c0.049,0.123,0.1,0.245,0.156,0.365
		c0.016,0.036,0.029,0.072,0.046,0.108L306.1,85.053c1.314,2.733,4.041,4.328,6.883,4.328c1.109,0,2.235-0.243,3.301-0.755
		c3.798-1.825,5.397-6.384,3.572-10.183l-15.548-32.35c40.857,6.35,78.527,25.259,107.226,54.07
		c31.97,32.097,51.684,75.395,55.509,121.92c0.328,3.987,3.665,7.006,7.596,7.006c0.21,0,0.421-0.008,0.634-0.026
		C479.47,228.716,482.595,225.032,482.249,220.831z"/>
</g>
<g>
</g>
<g>
</g>
<g>
</g>
<g>
</g>
<g>
</g>
<g>
</g>
<g>
</g>
<g>
</g>
<g>
</g>
<g>
</g>
<g>
</g>
<g>
</g>
<g>
</g>
<g>
</g>
<g>
</g>
</svg>
