<?xml version="1.0" encoding="iso-8859-1"?>
<!-- Generator: Adobe Illustrator 21.0.0, SVG Export Plug-In . SVG Version: 6.00 Build 0)  -->
<svg version="1.1" id="Capa_1" xmlns="http://www.w3.org/2000/svg" xmlns:xlink="http://www.w3.org/1999/xlink" x="0px" y="0px"
	 viewBox="0 0 512 512" style="enable-background:new 0 0 512 512;" xml:space="preserve">
<ellipse transform="matrix(0.7071 -0.7071 0.7071 0.7071 -59.9579 248.2664)" style="fill:#FCB038;" cx="269.705" cy="196.509" rx="122.639" ry="122.639"/>
<path style="fill:#FD8F31;" d="M356.438,109.79c-31.201-31.201-75.029-42.069-115.034-32.619
	c21.405,5.056,41.717,15.924,58.412,32.619c47.896,47.896,47.896,125.55,0,173.446c-16.695,16.695-37.007,27.563-58.412,32.619
	c40.005,9.45,83.833-1.418,115.034-32.619C404.333,235.34,404.333,157.686,356.438,109.79z"/>
<ellipse transform="matrix(0.7071 -0.7071 0.7071 0.7071 -59.9579 248.2664)" style="fill:#FFE285;" cx="269.705" cy="196.509" rx="93.819" ry="93.819"/>
<path style="fill:#EFCD6F;" d="M336.057,130.171c-25.613-25.613-62.344-33.296-94.653-23.1c13.909,4.39,27.004,12.073,38.031,23.1
	c36.64,36.64,36.64,96.044,0,132.684c-11.027,11.027-24.122,18.71-38.031,23.1c32.309,10.196,69.04,2.513,94.653-23.1
	C372.696,226.215,372.696,166.811,336.057,130.171z"/>
<path style="fill:#FD8F31;" d="M266.406,248.12c-18.984-0.306-31.844-10.564-31.844-18.066c0-3.674,3.215-8.727,7.043-8.727
	c5.052,0,9.186,10.717,24.802,11.942v-35.978c-13.778-4.899-29.088-10.411-29.088-30.007c0-19.29,14.544-26.945,29.088-28.476v-4.44
	c0-1.837,1.837-3.521,4.44-3.521c2.296,0,4.593,1.684,4.593,3.521v4.134c10.411,0.306,25.108,3.521,25.108,11.023
	c0,2.909-2.143,8.727-6.736,8.727c-3.674,0-7.655-4.899-18.371-5.665v31.079c13.32,4.899,27.864,11.636,27.864,32.457
	c0,18.831-11.329,29.242-27.864,31.538v5.205c0,1.837-2.297,3.521-4.593,3.521c-2.603,0-4.44-1.684-4.44-3.521v-4.746H266.406z
	 M267.325,180.757v-27.864c-8.574,1.072-14.697,4.899-14.697,12.86C252.628,174.48,259.211,177.695,267.325,180.757z
	 M274.521,200.66v32.304c8.268-1.531,13.473-6.43,13.473-15.156C287.994,208.161,282.023,203.875,274.521,200.66z"/>
<path style="fill:#FCD7C3;" d="M474.015,269.661l-103.153,69.035l-30.742-1.725l-1.203-12.1
	c-1.791-18.012-15.66-32.468-33.582-35.004l-82.368-9.484c-19.001-2.689-37.295-9.056-53.859-18.745l0,0
	c-22.615-13.229-48.342-20.201-74.542-20.201H35.177v135.557l156.955,59.436c5.932,1.675,12.162,2.176,18.25,1.214
	c0.036-0.006,0.073-0.012,0.109-0.017l158.016-22.777c12.173-1.944,23.617-7.071,33.17-14.862l102.128-91.853
	c9.166-8.139,10.865-21.817,3.969-31.951l0,0C500.23,265.095,485.147,262.182,474.015,269.661z"/>
<path style="fill:#FFCDAC;" d="M507.775,276.184c-1.526-2.243-3.365-4.146-5.414-5.701l-100.684,72.883
	c-9.553,7.791-20.997,12.919-33.17,14.862l-158.016,22.777c-0.036,0.006-0.073,0.012-0.109,0.017
	c-6.088,0.962-12.318,0.461-18.25-1.214L35.177,320.371v56.622l156.955,59.436c5.932,1.675,12.162,2.176,18.25,1.214
	c0.036-0.006,0.073-0.012,0.109-0.017l158.016-22.777c12.173-1.944,23.617-7.071,33.17-14.862l102.128-91.853
	C512.971,299.995,514.67,286.318,507.775,276.184L507.775,276.184z"/>
<path style="fill:#464C50;" d="M54.118,423.038H8.307c-4.588,0-8.307-3.719-8.307-8.307V218.535c0-4.588,3.719-8.307,8.307-8.307
	h45.81c4.588,0,8.307,3.719,8.307,8.307V414.73C62.425,419.319,58.705,423.038,54.118,423.038z"/>
<path style="fill:#33393A;" d="M0,414.73c0,4.588,3.719,8.307,8.307,8.307h45.81c4.588,0,8.307-3.719,8.307-8.307v-48.315H0V414.73z
	"/>
<path style="fill:#FFCDAC;" d="M186.007,338.753c-0.133-0.006-0.266-0.014-0.398-0.026c-4.709-0.426-8.97-2.661-11.997-6.292
	c-3.028-3.631-4.461-8.223-4.035-12.931c0.384-4.247,4.145-7.378,8.385-6.994c4.247,0.385,7.378,4.139,6.994,8.386
	c-0.07,0.77,0.241,1.322,0.514,1.65c0.257,0.309,0.705,0.686,1.399,0.787c0,0,153.414,9.379,153.25,13.64
	C339.959,341.132,186.007,338.753,186.007,338.753z"/>
<g>
</g>
<g>
</g>
<g>
</g>
<g>
</g>
<g>
</g>
<g>
</g>
<g>
</g>
<g>
</g>
<g>
</g>
<g>
</g>
<g>
</g>
<g>
</g>
<g>
</g>
<g>
</g>
<g>
</g>
</svg>
