<?xml version="1.0" encoding="iso-8859-1"?>
<!-- Generator: Adobe Illustrator 21.0.0, SVG Export Plug-In . SVG Version: 6.00 Build 0)  -->
<svg version="1.1" id="Capa_1" xmlns="http://www.w3.org/2000/svg" xmlns:xlink="http://www.w3.org/1999/xlink" x="0px" y="0px"
	 viewBox="0 0 512 512" style="enable-background:new 0 0 512 512;" xml:space="preserve">
<ellipse transform="matrix(0.7071 -0.7071 0.7071 0.7071 -61.3064 248.5049)" style="fill:#FCB038;" cx="269.319" cy="198.256" rx="119.059" ry="119.059"/>
<path style="fill:#FD8F31;" d="M353.513,114.062c-30.289-30.289-72.836-40.839-111.671-31.666
	c20.78,4.909,40.498,15.459,56.704,31.666c46.496,46.496,46.496,121.88,0,168.375c-16.207,16.207-35.925,26.757-56.704,31.666
	c38.835,9.174,81.382-1.377,111.671-31.666C400.008,235.942,400.008,160.558,353.513,114.062z"/>
<ellipse transform="matrix(0.7071 -0.7071 0.7071 0.7071 -61.3064 248.5049)" style="fill:#FFE285;" cx="269.319" cy="198.256" rx="91.079" ry="91.079"/>
<path style="fill:#EFCD6F;" d="M333.727,133.848c-24.864-24.864-60.522-32.323-91.886-22.424
	c13.503,4.261,26.215,11.72,36.919,22.424c35.569,35.569,35.569,93.237,0,128.805c-10.704,10.704-23.416,18.163-36.919,22.424
	c31.364,9.898,67.022,2.44,91.886-22.424C369.296,227.084,369.296,169.416,333.727,133.848z"/>
<path d="M266.113,248.348c-18.429-0.297-30.913-10.255-30.913-17.537c0-3.567,3.121-8.471,6.836-8.471
	c4.904,0,8.917,10.403,24.077,11.592v-34.926c-13.376-4.756-28.238-10.106-28.238-29.13c0-18.726,14.119-26.157,28.238-27.643v-4.31
	c0-1.784,1.783-3.418,4.31-3.418c2.229,0,4.459,1.635,4.459,3.418v4.013c10.106,0.297,24.374,3.418,24.374,10.701
	c0,2.824-2.081,8.471-6.539,8.471c-3.567,0-7.431-4.756-17.834-5.499v30.17c12.93,4.756,27.049,11.295,27.049,31.508
	c0,18.28-10.998,28.386-27.049,30.616v5.053c0,1.783-2.229,3.418-4.459,3.418c-2.526,0-4.31-1.635-4.31-3.418L266.113,248.348
	L266.113,248.348z M267.004,182.955v-27.049c-8.323,1.041-14.268,4.756-14.268,12.484
	C252.737,176.861,259.127,179.982,267.004,182.955z M273.99,202.275v31.359c8.025-1.486,13.078-6.242,13.078-14.713
	C287.068,209.558,281.272,205.396,273.99,202.275z"/>
<path style="fill:#FCD7C3;" d="M467.652,269.261l-100.138,67.017l-29.843-1.675l-1.168-11.747
	c-1.739-17.486-15.202-31.519-32.601-33.981l-79.96-9.206c-18.445-2.61-36.205-8.791-52.285-18.197l0,0
	c-21.953-12.842-46.929-19.611-72.363-19.611h-57.65v131.594l152.366,57.699c5.758,1.626,11.806,2.113,17.716,1.179
	c0.035-0.006,0.071-0.011,0.106-0.017l153.397-22.112c11.818-1.887,22.926-6.864,32.2-14.428l99.143-89.168
	c8.898-7.901,10.547-21.179,3.853-31.016l0,0C493.101,264.827,478.459,261.999,467.652,269.261z"/>
<path style="fill:#FFCDAC;" d="M500.425,275.591c-1.482-2.178-3.267-4.025-5.255-5.535l-97.74,70.753
	c-9.274,7.564-20.383,12.541-32.2,14.428l-153.397,22.112c-0.035,0.006-0.071,0.011-0.106,0.017
	c-5.91,0.934-11.958,0.447-17.716-1.179L41.644,318.488v54.967l152.366,57.699c5.758,1.626,11.806,2.113,17.716,1.179
	c0.035-0.006,0.071-0.011,0.106-0.017l153.397-22.112c11.818-1.887,22.926-6.864,32.2-14.428l99.143-89.168
	C505.47,298.707,507.12,285.429,500.425,275.591L500.425,275.591z"/>
<path style="fill:#464C50;" d="M60.031,418.153H15.56c-4.454,0-8.064-3.61-8.064-8.064V219.628c0-4.454,3.61-8.064,8.064-8.064
	h44.471c4.454,0,8.064,3.61,8.064,8.064v190.461C68.095,414.542,64.484,418.153,60.031,418.153z"/>
<path style="fill:#33393A;" d="M7.495,410.089c0,4.454,3.61,8.064,8.064,8.064H60.03c4.454,0,8.064-3.61,8.064-8.064v-46.902h-60.6
	L7.495,410.089L7.495,410.089z"/>
<path d="M506.622,271.374c-9.612-14.126-28.969-17.866-43.139-8.343l-98.053,65.621l-20.935-1.175l-0.533-5.364
	c-1.677-16.857-12.361-30.955-27.321-37.384c8.172-4.469,15.711-10.103,22.386-16.778c18.619-18.618,28.872-43.372,28.872-69.702
	s-10.254-51.085-28.872-69.703c-38.434-38.434-100.97-38.434-139.405,0c-37.531,37.531-38.392,98.034-2.624,136.645
	c-7.433-2.745-14.635-6.142-21.556-10.191c-23.079-13.501-49.41-20.636-76.148-20.636H75.59v-14.738
	c0-8.579-6.98-15.559-15.559-15.559H15.559C6.98,204.069,0,211.049,0,219.628v190.461c0,8.58,6.98,15.56,15.559,15.56h44.472
	c8.579,0,15.559-6.98,15.559-15.56v-15.764l115.765,43.839c0.203,0.077,0.409,0.144,0.618,0.203
	c4.565,1.289,9.126,1.936,13.645,1.936c2.456,0,4.899-0.191,7.321-0.574c0.003,0,0.01-0.001,0.019-0.003l153.34-22.103
	c0.038-0.005,0.075-0.011,0.112-0.017c13.106-2.092,25.47-7.632,35.756-16.021c0.094-0.076,0.185-0.155,0.275-0.236l99.107-89.136
	C513.227,301.843,515.409,284.287,506.622,271.374z M60.599,410.089c0,0.314-0.255,0.569-0.569,0.569H15.559
	c-0.313,0-0.569-0.255-0.569-0.569V219.628c0-0.313,0.255-0.569,0.569-0.569h44.472c0.313,0,0.569,0.255,0.569,0.569L60.599,410.089
	L60.599,410.089z M210.222,139.148c32.589-32.589,85.616-32.589,118.205,0c15.787,15.787,24.481,36.777,24.481,59.103
	s-8.694,43.316-24.481,59.102c-10.993,10.993-24.743,18.657-39.833,22.216l-8.603-0.991l-47.96-5.522
	c-8.078-4.026-15.41-9.305-21.809-15.703C177.633,224.764,177.633,171.737,210.222,139.148z M491.56,301.035l-99.004,89.043
	c-8.199,6.647-18.032,11.041-28.454,12.714l-153.339,22.103c-0.034,0.005-0.174,0.027-0.207,0.032
	c-4.589,0.724-9.368,0.42-14.21-0.905L75.59,378.295V249.357h23.704c24.08,0,47.794,6.427,68.578,18.585
	c17.003,9.947,35.514,16.389,55.019,19.15c0.064,0.009,0.128,0.018,0.193,0.025l19.119,2.201l45.949,5.29c0.002,0,0.004,0,0.007,0
	l14.785,1.702c13.975,2.02,24.702,13.228,26.1,27.288l0.316,3.183l-140.459-5.419c-0.674-0.098-1.109-0.464-1.359-0.764
	c-0.265-0.318-0.567-0.854-0.499-1.602c0.373-4.122-2.667-7.767-6.79-8.141c-4.117-0.373-7.767,2.667-8.14,6.79
	c-0.414,4.57,0.977,9.029,3.917,12.553c2.939,3.525,7.076,5.694,11.647,6.108c0.128,0.011,0.257,0.02,0.386,0.025l149.234,5.758
	l29.797,1.672c1.621,0.093,3.236-0.349,4.589-1.255l100.149-67.024c7.361-4.947,17.407-3.005,22.396,4.326
	C498.789,286.509,497.657,295.621,491.56,301.035z"/>
<path d="M155.233,233.179c4.027-0.957,6.517-4.997,5.56-9.025c-9.034-38.021,2.048-77.195,29.645-104.791
	c21.072-21.072,49.088-32.676,78.888-32.676s57.816,11.605,78.888,32.676c20.745,20.745,32.347,48.323,32.67,77.653
	c0.322,29.284-10.621,57.064-30.812,78.22c-2.858,2.995-2.747,7.739,0.247,10.598c1.452,1.385,3.314,2.073,5.174,2.073
	c1.977,0,3.951-0.777,5.423-2.32c22.907-24.003,35.322-55.516,34.957-88.735c-0.366-33.272-13.527-64.557-37.06-88.089
	c-23.903-23.903-55.684-37.067-89.488-37.067s-65.585,13.164-89.488,37.067c-31.303,31.303-43.875,75.735-33.63,118.857
	C147.165,231.647,151.204,234.139,155.233,233.179z"/>
<g>
</g>
<g>
</g>
<g>
</g>
<g>
</g>
<g>
</g>
<g>
</g>
<g>
</g>
<g>
</g>
<g>
</g>
<g>
</g>
<g>
</g>
<g>
</g>
<g>
</g>
<g>
</g>
<g>
</g>
</svg>
