<?xml version="1.0" encoding="iso-8859-1"?>
<!-- Generator: Adobe Illustrator 19.0.0, SVG Export Plug-In . SVG Version: 6.00 Build 0)  -->
<svg version="1.1" id="Layer_1" xmlns="http://www.w3.org/2000/svg" xmlns:xlink="http://www.w3.org/1999/xlink" x="0px" y="0px"
	 viewBox="0 0 512 512" style="enable-background:new 0 0 512 512;" xml:space="preserve">
<path style="fill:#FEBD4B;" d="M503.291,397.122l-30.989-125.303C470.003,262.522,461.74,256,452.26,256h-92.947
	c13.433-0.01,23.285-12.773,20.027-25.949l-30.989-125.303c-2.299-9.297-10.562-15.819-20.042-15.819H183.703
	c-9.48,0-17.743,6.522-20.042,15.819l-30.989,125.303c-3.258,13.176,6.594,25.939,20.027,25.949H59.743
	c-9.48,0-17.743,6.522-20.042,15.819L8.71,397.122c-3.26,13.18,6.602,25.949,20.042,25.949h206.584
	c11.681,0,20.653-9.645,20.664-20.822c0.011,11.178,8.983,20.822,20.664,20.822h206.584
	C496.689,423.071,506.551,410.304,503.291,397.122z M287.611,271.819l-30.989,125.303c-0.399,1.61-0.598,3.214-0.622,4.79
	c-0.024-1.576-0.223-3.18-0.622-4.79l-30.989-125.303c-2.298-9.293-10.557-15.814-20.031-15.818h103.286
	C298.168,256.005,289.91,262.525,287.611,271.819z"/>
<path style="fill:#FEE66B;" d="M121.265,256h57.487l-35.929,167.071H83.539L121.265,256z M369.177,256l-37.726,167.071h59.283
	L426.664,256L369.177,256L369.177,256z M207.501,256h59.283l35.929-167.071h-57.487L207.501,256z"/>
<path d="M511.134,395.181l-30.989-125.303c-3.198-12.93-14.667-21.962-27.89-21.962h-67.163c2.991-6.085,3.765-13.043,2.092-19.806
	l-30.989-125.303c-3.198-12.93-14.667-21.962-27.89-21.962h-82.921c-0.111-0.002-0.221-0.002-0.331,0h-61.35
	c-13.223,0-24.692,9.032-27.89,21.962L124.824,228.11c-1.672,6.763-0.898,13.721,2.092,19.806h-5.493
	c-0.111-0.002-0.222-0.002-0.331,0H59.746c-13.223,0-24.692,9.032-27.89,21.962L0.867,395.181
	c-2.168,8.765-0.226,17.858,5.326,24.95c5.484,7.006,13.708,11.025,22.564,11.025h113.91c0.11,0.002,0.221,0.002,0.331,0h92.339
	c7.885,0,15.269-3.185,20.664-8.828c5.395,5.643,12.779,8.828,20.664,8.828h113.91c0.055,0.001,0.111,0.002,0.165,0.002
	c0.055,0,0.111-0.001,0.165-0.002h92.339c8.856,0,17.08-4.018,22.564-11.025C511.36,413.04,513.3,403.946,511.134,395.181z
	 M140.521,231.992l30.989-125.303c1.409-5.697,6.423-9.676,12.194-9.676h51.445l-19.372,87.171c-0.969,4.359,1.78,8.677,6.137,9.645
	c4.362,0.97,8.676-1.78,9.645-6.137l20.151-90.679h76.595c5.771,0,10.785,3.978,12.194,9.676l30.989,125.303
	c0.966,3.905,0.106,7.952-2.361,11.102c-2.399,3.064-5.983,4.822-9.833,4.822h-82.433l19.371-87.171
	c0.968-4.359-1.78-8.677-6.137-9.645c-4.361-0.969-8.676,1.78-9.645,6.137l-20.15,90.679H152.716c-3.85,0-7.434-1.758-9.833-4.822
	C140.417,239.944,139.556,235.897,140.521,231.992z M247.91,402.672c-0.094,2.698-1.033,5.311-2.74,7.492
	c-2.399,3.064-5.983,4.822-9.833,4.822h-82.433l19.371-87.171c0.968-4.359-1.78-8.677-6.137-9.645
	c-4.361-0.972-8.677,1.78-9.645,6.137l-20.15,90.679H28.757c-3.85,0-7.434-1.758-9.833-4.822c-2.466-3.151-3.326-7.197-2.361-11.102
	l30.989-125.303c1.409-5.697,6.423-9.676,12.194-9.676h51.445l-19.371,87.171c-0.968,4.359,1.78,8.677,6.137,9.645
	c4.361,0.974,8.676-1.779,9.645-6.137l20.15-90.679h76.595c5.771,0,10.785,3.978,12.194,9.676l30.989,125.303
	c0.224,0.906,0.35,1.819,0.38,2.729C247.906,402.086,247.906,402.38,247.91,402.672z M232.238,269.878
	c-0.503-2.035-1.212-3.973-2.099-5.794h36.487c0.111,0.002,0.222,0.002,0.331,0h14.904c-0.887,1.822-1.595,3.759-2.099,5.794
	l-23.762,96.085L232.238,269.878z M493.077,410.166c-2.399,3.064-5.983,4.822-9.833,4.822h-82.433l19.371-87.171
	c0.968-4.359-1.78-8.677-6.137-9.645c-4.361-0.972-8.676,1.78-9.645,6.137l-20.15,90.679H276.665c-3.85,0-7.434-1.758-9.833-4.822
	c-1.708-2.182-2.646-4.794-2.74-7.491c0.004-0.293,0.004-0.587,0-0.882c0.03-0.909,0.156-1.822,0.38-2.728l30.988-125.303
	c1.409-5.697,6.423-9.676,12.194-9.676h51.445l-19.371,87.171c-0.968,4.359,1.78,8.677,6.137,9.645
	c4.362,0.974,8.678-1.779,9.645-6.137l20.15-90.679h76.595c5.771,0,10.785,3.978,12.194,9.676l30.989,125.303
	C496.403,402.969,495.543,407.015,493.077,410.166z"/>
<g>
</g>
<g>
</g>
<g>
</g>
<g>
</g>
<g>
</g>
<g>
</g>
<g>
</g>
<g>
</g>
<g>
</g>
<g>
</g>
<g>
</g>
<g>
</g>
<g>
</g>
<g>
</g>
<g>
</g>
</svg>
