<?xml version="1.0" encoding="iso-8859-1"?>
<!-- Generator: Adobe Illustrator 21.0.0, SVG Export Plug-In . SVG Version: 6.00 Build 0)  -->
<svg version="1.1" id="Capa_1" xmlns="http://www.w3.org/2000/svg" xmlns:xlink="http://www.w3.org/1999/xlink" x="0px" y="0px"
	 viewBox="0 0 512.001 512.001" style="enable-background:new 0 0 512.001 512.001;" xml:space="preserve">
<path style="fill:#F3E8D7;" d="M304.018,0H41.089C32.84,0,26.153,6.687,26.153,14.936v482.128c0,8.249,6.687,14.936,14.936,14.936
	h357.615c8.249,0,14.936-6.687,14.936-14.936V109.621L304.018,0z"/>
<path style="fill:#DDD1C3;" d="M330.199,26.182v96.139c0,7.446,6.036,13.482,13.482,13.482h13.297v361.262
	c0,8.249-6.687,14.936-14.936,14.936h56.66c8.249,0,14.936-6.687,14.936-14.936V135.802V109.62L330.199,26.182z"/>
<path style="fill:#D6C4AB;" d="M304.018,96.139V0l109.621,109.621H317.5C310.053,109.621,304.018,103.584,304.018,96.139z"/>
<g>
	<path style="fill:#606060;" d="M311.113,346.072H75.438c-4.267,0-7.726-3.459-7.726-7.726s3.459-7.726,7.726-7.726h235.676
		c4.268,0,7.726,3.459,7.726,7.726S315.382,346.072,311.113,346.072z"/>
	<path style="fill:#606060;" d="M270.936,394.005H75.438c-4.267,0-7.726-3.459-7.726-7.726s3.459-7.726,7.726-7.726h195.499
		c4.268,0,7.726,3.459,7.726,7.726S275.203,394.005,270.936,394.005z"/>
	<path style="fill:#606060;" d="M230.618,441.939H75.438c-4.267,0-7.726-3.459-7.726-7.726s3.459-7.726,7.726-7.726h155.179
		c4.267,0,7.726,3.459,7.726,7.726C238.344,438.48,234.885,441.939,230.618,441.939z"/>
</g>
<circle style="fill:#FC4E51;" cx="393.798" cy="419.95" r="92.05"/>
<path style="fill:#EA3942;" d="M393.801,327.911c-9.886,0-19.405,1.565-28.33,4.449c36.971,11.949,63.714,46.646,63.714,87.595
	s-26.743,75.646-63.714,87.595c8.925,2.885,18.444,4.449,28.33,4.449c50.835,0,92.044-41.21,92.044-92.045
	S444.635,327.911,393.801,327.911z"/>
<g>
	<path style="fill:#FFFFFF;" d="M384.652,461.008c-1.86,0-3.666-0.672-5.078-1.903l-39.652-34.58
		c-3.215-2.804-3.549-7.685-0.744-10.901c2.804-3.216,7.685-3.549,10.901-0.744l33.705,29.395l52.75-63.107
		c2.737-3.274,7.61-3.709,10.883-0.973c3.275,2.736,3.71,7.609,0.974,10.883l-57.81,69.161c-1.333,1.594-3.251,2.584-5.321,2.747
		C385.057,461,384.854,461.008,384.652,461.008z"/>
	<path style="fill:#FFFFFF;" d="M83.641,162.244c-4.53,0-8.203,3.673-8.203,8.203v90.33c0,4.53,3.672,8.203,8.203,8.203h202.748
		V162.244H83.641z"/>
	<path style="fill:#FFFFFF;" d="M356.15,162.244h-54.308V268.98h54.308c4.53,0,8.203-3.673,8.203-8.203v-90.33
		C364.353,165.916,360.681,162.244,356.15,162.244z"/>
</g>
<path style="fill:#E2E2E2;" d="M356.15,162.244h-48.457V268.98h48.457c4.53,0,8.203-3.673,8.203-8.203v-90.33
	C364.353,165.916,360.681,162.244,356.15,162.244z"/>
<path style="fill:#4EAD4E;" d="M105.036,116.383c-13.259-0.328-23.231-7.451-23.231-13.588c0-3.068,2.739-7.671,6.136-7.671
	c4.164,0,7.452,7.123,17.095,8.219V81.537c-9.972-3.726-21.259-8-21.259-22.026c0-13.917,10.3-19.943,21.259-21.368v-3.068
	c0-1.425,1.643-2.739,3.725-2.739c1.863,0,3.726,1.315,3.726,2.739v2.849c7.123,0.219,18.738,2.301,18.738,8.657
	c0,2.52-1.753,7.561-5.807,7.561c-3.068,0-5.589-3.507-12.931-4.054v19.286c9.753,3.616,20.711,8.547,20.711,23.45
	c0,13.478-8.438,21.258-20.711,23.231v3.397c0,1.425-1.863,2.739-3.726,2.739c-2.082,0-3.725-1.315-3.725-2.739L105.036,116.383
	L105.036,116.383z M105.913,66.963V50.416c-5.479,0.877-8.767,3.507-8.767,7.671C97.148,62.908,100.872,64.99,105.913,66.963z
	 M111.611,84.167v19.067c4.822-0.986,8.219-3.836,8.219-8.985C119.831,88.879,116.324,86.249,111.611,84.167z"/>
<g>
	<path style="fill:#606060;" d="M255.999,58.571h-76.577c-4.267,0-7.726-3.459-7.726-7.726s3.459-7.726,7.726-7.726h76.577
		c4.268,0,7.726,3.459,7.726,7.726S260.267,58.571,255.999,58.571z"/>
	<path style="fill:#606060;" d="M255.999,106.505h-76.577c-4.267,0-7.726-3.459-7.726-7.726s3.459-7.726,7.726-7.726h76.577
		c4.268,0,7.726,3.459,7.726,7.726S260.267,106.505,255.999,106.505z"/>
</g>
<g>
</g>
<g>
</g>
<g>
</g>
<g>
</g>
<g>
</g>
<g>
</g>
<g>
</g>
<g>
</g>
<g>
</g>
<g>
</g>
<g>
</g>
<g>
</g>
<g>
</g>
<g>
</g>
<g>
</g>
</svg>
