<?xml version="1.0" encoding="iso-8859-1"?>
<!-- Generator: Adobe Illustrator 19.0.0, SVG Export Plug-In . SVG Version: 6.00 Build 0)  -->
<svg version="1.1" id="Capa_1" xmlns="http://www.w3.org/2000/svg" xmlns:xlink="http://www.w3.org/1999/xlink" x="0px" y="0px"
	 viewBox="0 0 512 512" style="enable-background:new 0 0 512 512;" xml:space="preserve">
<g>
	<path style="fill:#FFDAAA;" d="M76.092,53.965v450.481h275.843c23.567,0,42.671-19.105,42.671-42.671V125.644l-0.05-77.03
		c0-21.724,17.098-39.652,38.509-40.972H122.416C96.832,7.641,76.092,28.381,76.092,53.965z"/>
	<path style="fill:#FFDAAA;" d="M433.132,7.636c-0.022,0.001-0.044,0.004-0.066,0.006h0.066V7.636z"/>
</g>
<path style="fill:#FF9811;" d="M477.239,48.62v318.585c0,17.549-14.217,31.766-31.756,31.766h-50.916V48.62
	c0-22.583,18.476-41.059,41.059-41.059h0.554c15.374,0,28.836,8.558,35.874,21.144C475.356,34.615,477.239,41.411,477.239,48.62z"/>
<path style="fill:#FFA733;" d="M477.239,48.62v318.585c0,17.549-14.217,31.766-31.756,31.766h-14.408V69.764
	c0-22.553,18.435-41.009,40.979-41.059C475.356,34.615,477.239,41.411,477.239,48.62z"/>
<g>
	<path style="fill:#FFC477;" d="M362.841,48.61l0.05,77.034v336.135c0,23.56-19.1,42.67-42.67,42.67h31.716
		c23.56,0,42.67-19.11,42.67-42.67V125.644l-0.05-77.034c0-21.718,17.096-39.649,38.512-40.968h-31.716
		C379.937,8.961,362.841,26.893,362.841,48.61z"/>
	<path style="fill:#FFC477;" d="M433.065,7.641h0.066V7.636C433.109,7.637,433.088,7.64,433.065,7.641z"/>
	<path style="fill:#FFC477;" d="M401.417,7.636c-0.022,0.001-0.044,0.004-0.066,0.006h0.066V7.636z"/>
</g>
<path style="fill:#FFB655;" d="M347.567,504.116v0.322H77.613v-0.04c-0.201,0.01-0.403,0.01-0.614,0.02h-0.161
	c-0.151,0.01-0.302,0.01-0.453,0.01H75.82c-21.516,0-39.307-16.784-40.928-37.908c-0.05-0.685-0.091-1.389-0.111-2.084
	c-0.01-0.352-0.01-0.705-0.01-1.057V303.382l-0.01-22.604c0-9.293,10.33-14.881,18.113-9.787l21.607,21.083
	c3.886,2.557,8.921,2.557,12.817,0l33.306-21.808c3.886-2.547,8.921-2.547,12.817,0l33.306,21.818c3.896,2.547,8.921,2.547,12.817,0
	l33.306-21.818c3.896-2.547,8.931-2.547,12.817,0l33.316,21.818c3.886,2.547,8.921,2.547,12.817,0l21.617-21.093
	c7.773-5.095,18.103,0.483,18.103,9.787V463.38c0,8.447,2.588,16.321,7.008,22.875C325.034,495.88,335.515,502.646,347.567,504.116z
	"/>
<path style="fill:#FFC477;" d="M297.049,495.259c-7.005-8.437-10.839-19.058-10.839-30.024V328.282c0-4.762-5.683-7.23-9.162-3.978
	c-4.068,2.547-9.323,2.547-13.381,0l-34.797-21.818c-4.058-2.547-9.313-2.547-13.381,0l-34.786,21.818
	c-4.068,2.547-9.313,2.547-13.381,0l-34.786-21.818c-4.068-2.547-9.323-2.547-13.381,0l-34.786,21.808
	c-4.068,2.557-9.323,2.557-13.381,0l-22.563-21.083c-4.491-2.819-9.807-2.366-13.653,0.171V463.38c0,0.352,0,0.705,0.01,1.057
	c0.02,0.695,0.06,1.4,0.111,2.084c1.681,20.872,19.835,37.505,41.945,37.898h0.161c0.201,0.01,0.413,0.01,0.614,0.01h0.614
	c0.433,0,0.866-0.02,1.289-0.03v0.04H268.52h17.69h18.458L297.049,495.259z"/>
<path d="M436.18,0.01c-6.237-0.021-7.497-0.001-313.763-0.01C92.705,0,68.541,24.174,68.541,53.876v221.858
	c-10.833-10.509-10.489-10.38-11.528-11.055c-12.76-8.371-29.803,0.805-29.803,16.099l0.01,103.342c0,4.178,3.373,7.551,7.551,7.551
	c4.168,0,7.551-3.373,7.551-7.551l-0.01-103.342c0-2.567,2.175-4.168,4.188-4.168c0.594,0,1.188,0.141,1.752,0.423
	c1.531,1.493-6.537-6.38,20.952,20.449c4.337,4.213,14.43,6.028,22.231,0.916l33.306-21.808c1.349-0.886,3.182-0.886,4.541,0
	c31.223,19.43,34.174,24.95,43.858,24.95c3.756,0,7.4-1.087,10.542-3.141l33.306-21.808c1.349-0.886,3.192-0.886,4.541,0
	c31.35,19.505,34.197,24.95,43.858,24.95c5.064,0,9.743-2.166,11.689-4.058l20.962-20.449c2.62-1.31,5.93,0.609,5.93,3.745V463.38
	c0,12.888,5.075,24.738,13.421,33.508c-149.178,0-145.794-0.01-241.572-0.01c-18.574,0-33.498-15.122-33.498-33.498v-49.053
	c0-4.168-3.383-7.551-7.551-7.551c-4.178,0-7.551,3.383-7.551,7.551v49.053C27.22,489.851,48.614,512,76.092,512h275.845
	c27.688,0,50.221-22.533,50.221-50.221v-55.256h43.324c21.677,0,39.307-17.64,39.307-39.317V48.62
	C484.79,21.818,462.982,0.01,436.18,0.01z M390.375,30.873L390.375,30.873c-5.052,12.841-2.807,21.837-3.36,33.152
	c0,3.355,0.033,328.627,0.04,397.753c0,19.362-15.757,35.119-35.119,35.119c-14.009,0-32.863-11.722-32.863-33.518V280.778
	c0-10.622-8.649-19.271-19.281-19.271c-5.006,0-9.703,2.187-11.649,4.078l-20.952,20.449c-1.289,0.614-2.87,0.513-4.068-0.272
	c-31.346-19.51-34.23-24.96-43.858-24.96c-9.651,0-12.545,5.471-43.858,24.96c-1.349,0.886-3.192,0.886-4.541,0
	c-31.279-19.472-34.21-24.96-43.858-24.96c-9.621,0-12.544,5.469-43.365,24.648V53.876c0-21.375,17.398-38.774,38.774-38.774h278.01
	C396.259,19.476,392.739,24.889,390.375,30.873z M469.687,367.206c0,13.351-10.854,24.215-24.205,24.215h-43.324
	c0-0.11-0.096-343.92,0.131-346.223c0.876-8.7,4.712-13.686,4.712-13.995c17.285-28.216,62.686-16.983,62.686,17.418V367.206z"/>
<path d="M112.51,205.154c0,4.168,3.373,7.551,7.551,7.551h36.458c4.168,0,7.551-3.383,7.551-7.551s-3.383-7.551-7.551-7.551h-36.458
	C115.883,197.603,112.51,200.986,112.51,205.154z"/>
<path d="M186.724,212.706h165.122c4.168,0,7.551-3.383,7.551-7.551s-3.383-7.551-7.551-7.551H186.724
	c-4.178,0-7.551,3.383-7.551,7.551S182.546,212.706,186.724,212.706z"/>
<path d="M186.724,246.938h165.122c4.168,0,7.551-3.383,7.551-7.551c0-4.178-3.383-7.551-7.551-7.551H186.724
	c-4.178,0-7.551,3.373-7.551,7.551C179.173,243.555,182.546,246.938,186.724,246.938z"/>
<path d="M156.519,231.836h-36.458c-4.178,0-7.551,3.373-7.551,7.551c0,4.168,3.373,7.551,7.551,7.551h36.458
	c4.168,0,7.551-3.383,7.551-7.551C164.07,235.209,160.687,231.836,156.519,231.836z"/>
<path d="M232.456,143.933c-16.676,0-16.692-11.344-23.372-11.344c-4.163,0-7.515,4.635-7.515,8.471
	c0,6.818,9.43,15.225,23.681,17.553v5.685c0,4.501,3.661,8.162,8.162,8.162s8.162-3.661,8.162-8.162v-5.856
	c15.079-2.953,23.68-14.068,23.68-30.777c0-21.916-14.008-28.268-26.186-32.809l0.001-0.003
	c-10.452-4.061-19.192-5.999-19.192-16.12c0-9.327,7.161-12.442,16.404-12.442c11.911,0,14.729,5.194,19.135,5.194
	c4.75,0,7.377-5.009,7.377-8.471c0-8.499-15.264-10.876-21.22-11.479V45.65c0-4.501-3.661-8.162-8.162-8.162
	c-4.502,0-8.162,3.662-8.162,8.162v6.902c-13.703,3.345-21.22,12.871-21.22,27.002c0,35.87,45.377,22.196,45.377,48.932
	C249.407,141.253,240.189,143.933,232.456,143.933z"/>
<g>
</g>
<g>
</g>
<g>
</g>
<g>
</g>
<g>
</g>
<g>
</g>
<g>
</g>
<g>
</g>
<g>
</g>
<g>
</g>
<g>
</g>
<g>
</g>
<g>
</g>
<g>
</g>
<g>
</g>
</svg>
