<?xml version="1.0" encoding="iso-8859-1"?>
<!-- Generator: Adobe Illustrator 21.0.0, SVG Export Plug-In . SVG Version: 6.00 Build 0)  -->
<svg version="1.1" id="Capa_1" xmlns="http://www.w3.org/2000/svg" xmlns:xlink="http://www.w3.org/1999/xlink" x="0px" y="0px"
	 viewBox="0 0 512 512" style="enable-background:new 0 0 512 512;" xml:space="preserve">
<path style="fill:#F3E8D7;" d="M302.612,7.5H47.386c-8.007,0-14.498,6.491-14.498,14.498v468.003
	c0,8.007,6.491,14.498,14.498,14.498h347.137c8.007,0,14.498-6.491,14.498-14.498V113.909L302.612,7.5z"/>
<path style="fill:#DDD1C3;" d="M328.027,32.915v93.322c0,7.228,5.859,13.087,13.087,13.087h12.907v350.678
	c0,8.007-6.491,14.498-14.498,14.498h55c8.007,0,14.498-6.491,14.498-14.498V139.324v-25.415L328.027,32.915z"/>
<path style="fill:#D6C4AB;" d="M302.612,100.822V7.5l106.409,106.409h-93.322C308.472,113.909,302.612,108.05,302.612,100.822z"/>
<circle style="fill:#FC4E51;" cx="389.76" cy="415.15" r="89.35"/>
<path style="fill:#EA3942;" d="M389.765,325.804c-9.596,0-18.836,1.519-27.5,4.319c35.888,11.599,61.848,45.279,61.848,85.029
	s-25.96,73.43-61.848,85.029c8.664,2.8,17.904,4.319,27.5,4.319c49.345,0,89.348-40.002,89.348-89.348
	S439.11,325.804,389.765,325.804z"/>
<path style="fill:#FFFFFF;" d="M88.692,268.599h264.526c4.398,0,7.962-3.565,7.962-7.962v-87.684c0-4.398-3.565-7.962-7.962-7.962
	H88.692c-4.398,0-7.962,3.565-7.962,7.962v87.684C80.729,265.034,84.294,268.599,88.692,268.599z"/>
<path style="fill:#E2E2E2;" d="M353.217,164.991H306.18V268.6h47.038c4.398,0,7.963-3.565,7.963-7.962v-87.684
	C361.18,168.555,357.615,164.991,353.217,164.991z"/>
<path d="M109.461,120.473c-12.871-0.319-22.55-7.233-22.55-13.189c0-2.979,2.659-7.446,5.957-7.446
	c4.042,0,7.233,6.914,16.594,7.978V86.648c-9.68-3.617-20.636-7.765-20.636-21.38c0-13.509,9.999-19.359,20.636-20.742v-2.979
	c0-1.383,1.595-2.659,3.616-2.659c1.809,0,3.617,1.276,3.617,2.659v2.766c6.914,0.213,18.189,2.234,18.189,8.403
	c0,2.446-1.702,7.339-5.637,7.339c-2.979,0-5.425-3.404-12.552-3.936V74.84c9.467,3.51,20.104,8.297,20.104,22.763
	c0,13.083-8.19,20.635-20.104,22.55v3.297c0,1.383-1.808,2.659-3.617,2.659c-2.021,0-3.616-1.276-3.616-2.659L109.461,120.473
	L109.461,120.473z M110.312,72.501V56.439c-5.319,0.851-8.51,3.404-8.51,7.446C101.802,68.565,105.419,70.586,110.312,72.501z
	 M115.843,89.201v18.508c4.681-0.958,7.978-3.723,7.978-8.722C123.821,93.775,120.417,91.222,115.843,89.201z"/>
<path d="M317,335.933c0-4.142-3.357-7.5-7.5-7.5H80.729c-4.142,0-7.5,3.358-7.5,7.5s3.358,7.5,7.5,7.5H309.5
	C313.643,343.433,317,340.075,317,335.933z"/>
<path d="M278,382.462c0-4.142-3.357-7.5-7.5-7.5H80.729c-4.142,0-7.5,3.358-7.5,7.5s3.358,7.5,7.5,7.5H270.5
	C274.643,389.962,278,386.604,278,382.462z"/>
<path d="M80.729,421.492c-4.142,0-7.5,3.358-7.5,7.5s3.358,7.5,7.5,7.5h150.633c4.142,0,7.5-3.358,7.5-7.5s-3.358-7.5-7.5-7.5
	H80.729z"/>
<path d="M441.81,374.613c-3.178-2.656-7.907-2.234-10.565,0.944l-51.204,61.259l-32.718-28.533
	c-3.122-2.723-7.86-2.399-10.582,0.723c-2.723,3.122-2.398,7.86,0.723,10.582l38.49,33.567c1.371,1.196,3.124,1.848,4.93,1.848
	c0.195,0,0.393-0.008,0.59-0.023c2.01-0.158,3.871-1.12,5.165-2.667l56.116-67.135C445.412,381.999,444.989,377.269,441.81,374.613z
	"/>
<path d="M181.666,64.355H256c4.143,0,7.5-3.358,7.5-7.5s-3.357-7.5-7.5-7.5h-74.334c-4.142,0-7.5,3.358-7.5,7.5
	S177.524,64.355,181.666,64.355z"/>
<path d="M181.666,110.885H256c4.143,0,7.5-3.358,7.5-7.5s-3.357-7.5-7.5-7.5h-74.334c-4.142,0-7.5,3.358-7.5,7.5
	S177.524,110.885,181.666,110.885z"/>
<path d="M389.764,318.304c-53.403,0-96.848,43.446-96.848,96.848S336.362,512,389.764,512h4.759c1.385,0,2.79-0.146,4.185-0.417
	c49.225-4.529,87.904-46.045,87.904-96.431C486.612,361.75,443.167,318.304,389.764,318.304z M395.465,496.779
	c-0.622,0.043-1.246,0.094-1.864,0.123c-1.272,0.059-2.55,0.097-3.836,0.097c-45.131,0-81.848-36.717-81.848-81.848
	s36.717-81.848,81.848-81.848s81.848,36.716,81.848,81.848C471.612,458.365,437.944,493.84,395.465,496.779z"/>
<path d="M368.68,260.637v-87.684c0-8.526-6.937-15.462-15.463-15.462H88.692c-8.526,0-15.462,6.937-15.462,15.462v87.684
	c0,8.526,6.937,15.462,15.462,15.462h264.526C361.744,276.099,368.68,269.163,368.68,260.637z M285.5,261.099H88.692
	c-0.255,0-0.462-0.208-0.462-0.462v-87.684c0-0.255,0.208-0.462,0.462-0.462H285.5V261.099z M300.5,172.491h52.717
	c0.255,0,0.463,0.208,0.463,0.462v87.684c0,0.255-0.208,0.462-0.463,0.462H300.5V172.491z"/>
<path d="M320.25,497H47.386c-3.859,0-6.998-3.139-6.998-6.998V21.999c0-3.859,3.139-6.999,6.998-6.999h247.727v85.822
	c0,11.352,9.235,20.587,20.587,20.587h85.822v172.274c0,4.142,3.357,7.5,7.5,7.5s7.5-3.358,7.5-7.5V113.909
	c0-0.085-0.01-0.169-0.012-0.253c-0.003-0.084-0.007-0.168-0.012-0.252c-0.022-0.32-0.057-0.638-0.118-0.951
	c-0.001-0.003-0.001-0.006-0.001-0.009c-0.063-0.318-0.154-0.628-0.257-0.933c-0.026-0.078-0.054-0.155-0.083-0.232
	c-0.109-0.29-0.23-0.574-0.374-0.849c-0.008-0.015-0.013-0.03-0.021-0.044c-0.153-0.287-0.33-0.56-0.519-0.826
	c-0.048-0.067-0.096-0.132-0.146-0.198c-0.201-0.264-0.414-0.52-0.651-0.757L307.916,2.197c-0.237-0.237-0.492-0.449-0.756-0.65
	c-0.067-0.051-0.134-0.101-0.202-0.15c-0.264-0.188-0.536-0.365-0.821-0.516c-0.019-0.01-0.04-0.018-0.059-0.028
	c-0.269-0.14-0.548-0.26-0.832-0.366c-0.08-0.03-0.16-0.059-0.241-0.086c-0.303-0.102-0.61-0.192-0.924-0.255
	c-0.012-0.002-0.025-0.003-0.037-0.005c-0.303-0.059-0.61-0.093-0.92-0.114c-0.089-0.006-0.177-0.01-0.266-0.013
	C302.776,0.009,302.695,0,302.613,0H47.386c-12.13,0-21.998,9.869-21.998,21.999v468.003c0,12.13,9.868,21.998,21.998,21.998H320.25
	c4.143,0,7.5-3.358,7.5-7.5C327.75,500.358,324.393,497,320.25,497z M310.113,25.607L310.113,25.607l80.802,80.803H315.7
	c-3.081,0-5.587-2.506-5.587-5.587V25.607z"/>
<g>
</g>
<g>
</g>
<g>
</g>
<g>
</g>
<g>
</g>
<g>
</g>
<g>
</g>
<g>
</g>
<g>
</g>
<g>
</g>
<g>
</g>
<g>
</g>
<g>
</g>
<g>
</g>
<g>
</g>
</svg>
