<svg height="512pt" viewBox="-67 0 512 512.001" width="512pt" xmlns="http://www.w3.org/2000/svg"><path d="m80.125 7.558594v460.597656h217.703125c0 20.039062 16.242187 36.285156 36.28125 36.285156s36.28125-16.246094 36.28125-36.285156v-460.597656zm0 0" fill="#ffda88"/><path d="m350.238281 7.558594v460.132812c0 8.671875-6.652343 16.144532-15.316406 16.574219-9.257813.457031-16.9375-6.945313-16.9375-16.109375 0-11.132812-9.023437-20.15625-20.15625-20.15625h-217.703125v20.15625h217.703125c0 19.804688 15.863281 35.902344 35.574219 36.277344 20.339844.390625 36.992187-16.648438 36.992187-36.992188v-459.882812zm0 0" fill="#ffcd69"/><path d="m297.828125 468.15625c0 20.039062 16.242187 36.285156 36.28125 36.285156h-290.265625c-20.039062 0-36.285156-16.246094-36.285156-36.285156zm0 0" fill="#ff7c48"/><path d="m297.828125 468.15625h-22.175781c0 5.226562 1.105468 10.195312 3.097656 14.683594 1.773438 4-1.144531 8.5-5.519531 8.5h-229.386719c-15.417969 0-28.582031-9.621094-33.835938-23.183594h-2.449218c0 20.039062 16.246094 36.285156 36.28125 36.285156h290.269531c-20.039063 0-36.28125-16.246094-36.28125-36.285156zm0 0" fill="#d86b3e"/><path d="m370.394531 0h-290.269531c-4.171875 0-7.558594 3.382812-7.558594 7.558594v38.742187c0 4.171875 3.386719 7.558594 7.558594 7.558594 4.175781 0 7.558594-3.386719 7.558594-7.558594v-31.183593h275.152344v333.648437c0 4.175781 3.382812 7.558594 7.558593 7.558594s7.558594-3.382813 7.558594-7.558594v-341.207031c0-4.175782-3.382813-7.558594-7.558594-7.558594zm0 0"/><path d="m370.394531 376.566406c-4.175781 0-7.558593 3.382813-7.558593 7.558594v84.03125c0 15.839844-12.886719 28.726562-28.726563 28.726562-15.835937 0-28.722656-12.886718-28.722656-28.726562 0-4.175781-3.382813-7.558594-7.558594-7.558594h-147.695313c-4.175781 0-7.558593 3.382813-7.558593 7.558594s3.382812 7.558594 7.558593 7.558594h140.789063c1.394531 8.007812 4.972656 15.273437 10.09375 21.167968h-257.171875c-13.222656 0-24.390625-8.984374-27.71875-21.167968h98.898438c4.175781 0 7.558593-3.382813 7.558593-7.558594s-3.382812-7.558594-7.558593-7.558594h-27.339844v-379.023437c0-4.175781-3.382813-7.558594-7.558594-7.558594s-7.558594 3.382813-7.558594 7.558594v379.023437h-65.007812c-4.175782 0-7.558594 3.386719-7.558594 7.558594 0 24.175781 19.667969 43.84375 43.84375 43.84375h290.269531c24.171875 0 43.839844-19.667969 43.839844-43.84375v-84.027344c0-4.179687-3.382813-7.5625-7.558594-7.5625zm0 0"/><path d="m303.875 60.472656h-157.230469c-4.175781 0-7.558593 3.382813-7.558593 7.558594s3.382812 7.558594 7.558593 7.558594h157.230469c4.171875 0 7.558594-3.382813 7.558594-7.558594s-3.382813-7.558594-7.558594-7.558594zm0 0"/><path d="m115.90625 127.496094c0 4.175781 3.382812 7.558594 7.558594 7.558594h126.992187c4.175781 0 7.558594-3.382813 7.558594-7.558594 0-4.175782-3.382813-7.558594-7.558594-7.558594h-126.992187c-4.175782 0-7.558594 3.382812-7.558594 7.558594zm0 0"/><path d="m327.054688 119.9375h-46.359376c-4.175781 0-7.5625 3.382812-7.5625 7.558594 0 4.175781 3.386719 7.558594 7.5625 7.558594h46.359376c4.175781 0 7.558593-3.382813 7.558593-7.558594 0-4.175782-3.382812-7.558594-7.558593-7.558594zm0 0"/><path d="m123.464844 195.527344h126.992187c4.175781 0 7.558594-3.382813 7.558594-7.558594s-3.382813-7.558594-7.558594-7.558594h-126.992187c-4.175782 0-7.558594 3.382813-7.558594 7.558594s3.382812 7.558594 7.558594 7.558594zm0 0"/><path d="m327.054688 180.410156h-46.359376c-4.175781 0-7.5625 3.382813-7.5625 7.558594s3.386719 7.558594 7.5625 7.558594h46.359376c4.175781 0 7.558593-3.382813 7.558593-7.558594s-3.382812-7.558594-7.558593-7.558594zm0 0"/><path d="m123.464844 256h126.992187c4.175781 0 7.558594-3.382812 7.558594-7.558594 0-4.175781-3.382813-7.558594-7.558594-7.558594h-126.992187c-4.175782 0-7.558594 3.382813-7.558594 7.558594 0 4.175782 3.382812 7.558594 7.558594 7.558594zm0 0"/><path d="m327.054688 240.882812h-46.359376c-4.175781 0-7.5625 3.382813-7.5625 7.558594 0 4.175782 3.386719 7.558594 7.5625 7.558594h46.359376c4.175781 0 7.558593-3.382812 7.558593-7.558594 0-4.175781-3.382812-7.558594-7.558593-7.558594zm0 0"/><path d="m215.179688 327.558594h20.160156c6.945312 0 12.597656 5.652344 12.597656 12.597656 0 4.175781 3.382812 7.558594 7.558594 7.558594 4.175781 0 7.558594-3.382813 7.558594-7.558594 0-15.28125-12.433594-27.714844-27.714844-27.714844h-2.519532v-6.550781c0-4.175781-3.386718-7.5625-7.5625-7.5625-4.171874 0-7.558593 3.386719-7.558593 7.5625v6.550781h-2.519531c-15.28125 0-27.714844 12.433594-27.714844 27.714844 0 15.285156 12.433594 27.71875 27.714844 27.71875h20.160156c6.945312 0 12.597656 5.652344 12.597656 12.597656 0 6.945313-5.652344 12.597656-12.597656 12.597656h-20.160156c-6.945313 0-12.597657-5.652343-12.597657-12.597656 0-4.175781-3.382812-7.558594-7.558593-7.558594-4.175782 0-7.558594 3.382813-7.558594 7.558594 0 15.28125 12.433594 27.714844 27.714844 27.714844h2.523437v6.550781c0 4.175781 3.382813 7.5625 7.558594 7.5625 4.171875 0 7.558593-3.386719 7.558593-7.5625v-6.550781h2.519532c15.28125 0 27.714844-12.433594 27.714844-27.714844 0-15.285156-12.433594-27.71875-27.714844-27.71875h-20.160156c-6.945313 0-12.597657-5.652344-12.597657-12.597656s5.652344-12.597656 12.597657-12.597656zm0 0"/></svg>