<?xml version="1.0" encoding="iso-8859-1"?>
<!-- Generator: Adobe Illustrator 19.0.0, SVG Export Plug-In . SVG Version: 6.00 Build 0)  -->
<svg version="1.1" id="Capa_1" xmlns="http://www.w3.org/2000/svg" xmlns:xlink="http://www.w3.org/1999/xlink" x="0px" y="0px"
	 viewBox="0 0 512 512" style="enable-background:new 0 0 512 512;" xml:space="preserve">
<g>
	<path style="fill:#EE8700;" d="M112.144,183.494c-0.103,0.021-0.217,0.052-0.32,0.072c-36.604,8.122-72.908-14.86-81.216-51.464
		C22.29,95.395,45.303,58.884,82.01,50.566c10.186-2.312,20.35-2.208,29.906-0.072c24.891,5.573,45.613,24.943,51.629,51.464
		C171.864,138.676,148.851,175.176,112.144,183.494z"/>
	<path style="fill:#EE8700;" d="M429.99,183.494c-0.103,0.021-0.217,0.052-0.32,0.072c-36.604,8.122-72.908-14.86-81.216-51.464
		c-8.318-36.707,14.695-73.218,51.402-81.536c10.186-2.312,20.35-2.208,29.906-0.072c24.891,5.573,45.613,24.943,51.629,51.464
		C489.71,138.676,466.697,175.176,429.99,183.494z"/>
	<path style="fill:#EE8700;" d="M271.067,134.641c-0.103,0.021-0.217,0.052-0.32,0.062c-36.604,8.122-72.908-14.86-81.216-51.464
		c-8.318-36.707,14.695-73.208,51.402-81.536c10.186-2.312,20.35-2.208,29.896-0.062c24.891,5.562,45.613,24.932,51.64,51.464
		C330.787,89.812,307.774,126.323,271.067,134.641z"/>
</g>
<g>
	<path style="fill:#FFA733;" d="M112.144,183.494c-0.103,0.021-0.217,0.052-0.32,0.072c-24.891-5.573-45.613-24.943-51.629-51.464
		c-8.328-36.707,14.685-73.218,51.402-81.536c0.103-0.021,0.217-0.052,0.32-0.072c24.891,5.573,45.613,24.943,51.629,51.464
		C171.864,138.676,148.851,175.176,112.144,183.494z"/>
	<path style="fill:#FFA733;" d="M429.99,183.494c-0.103,0.021-0.217,0.052-0.32,0.072c-24.891-5.573-45.613-24.943-51.629-51.464
		c-8.328-36.707,14.685-73.218,51.402-81.536c0.103-0.021,0.217-0.052,0.32-0.072c24.891,5.573,45.613,24.943,51.629,51.464
		C489.71,138.676,466.697,175.176,429.99,183.494z"/>
	<path style="fill:#FFA733;" d="M271.067,134.641c-0.103,0.021-0.217,0.052-0.32,0.062c-24.881-5.562-45.613-24.943-51.629-51.464
		c-8.328-36.707,14.685-73.208,51.402-81.536c0.103-0.021,0.206-0.052,0.31-0.062c24.891,5.562,45.613,24.932,51.64,51.464
		C330.787,89.812,307.774,126.323,271.067,134.641z"/>
</g>
<path style="fill:#AA6100;" d="M356.792,427.523c0,41.578-37.027,78.398-87.851,83.796C264.72,511.773,260.396,512,256,512
	c-68.554,0-117.066-56.283-95.684-110.998l40.226-102.949L167.86,181.151c-4.149-12.951,8.173-25.221,21.042-20.856
	c1.62,0.557,3.375,1.053,5.315,1.476c2.25,0.495,4.778,0.877,7.719,1.084c1.682,0.134,3.509,0.196,5.5,0.196
	c3.911,0,7.182-0.258,10.041-0.691c14.871-2.25,18.152-9.236,38.513-9.236c20.412,0,23.663,7.017,38.616,9.246
	c2.828,0.433,6.078,0.681,9.948,0.681c1.62,0,3.127-0.041,4.541-0.124c6.027-0.351,10.361-1.393,14.117-2.673
	c12.838-4.386,25.159,7.864,21.062,20.804l-30.464,119.739l38.183,100.978C355.255,410.403,356.792,419.061,356.792,427.523z"/>
<path style="fill:#CC7400;" d="M356.792,427.523c0,41.578-37.027,78.398-87.851,83.796c-61.598-6.491-102.846-59.09-82.826-110.317
	l40.226-102.949l-32.682-116.901c-1.321-4.138-0.97-11.465,0.557-19.38c3.422,0.753,7.702,1.28,13.219,1.28
	c3.911,0,7.182-0.258,10.041-0.691c14.871-2.25,18.152-9.236,38.513-9.236c20.412,0,23.663,7.017,38.616,9.246
	c4.593,0.704,10.092,0.814,14.489,0.557c6.027-0.351,10.361-1.393,14.117-2.673c12.838-4.386,25.159,7.864,21.062,20.804
	l-30.464,119.739l38.183,100.978C355.255,410.403,356.792,419.061,356.792,427.523z"/>
<path style="fill:#663A00;" d="M334.873,296.66c0,5.965-2.446,11.383-6.367,15.314c-3.932,3.921-9.35,6.367-15.314,6.367H198.808
	c-11.919,0-21.682-9.762-21.682-21.682c0-5.965,2.446-11.383,6.367-15.314c2.9-2.889,6.605-4.984,10.753-5.882
	c1.342-0.289,2.724-0.454,4.148-0.475c0.134-0.01,0.279-0.01,0.413-0.01h114.383c10.144,0,18.73,7.069,21.052,16.522
	c0.186,0.743,0.33,1.507,0.433,2.281C334.811,294.719,334.873,295.689,334.873,296.66z"/>
<g>
	<path style="fill:#884D00;" d="M334.677,293.78c-1.465,0.32-2.993,0.485-4.561,0.485H215.733c-10.939,0-20.072-8.225-21.486-18.802
		c1.342-0.289,2.724-0.454,4.149-0.475c0.134-0.01,0.279-0.01,0.413-0.01h114.383c10.144,0,18.73,7.069,21.052,16.522
		C334.43,292.243,334.574,293.006,334.677,293.78z"/>
	<path style="fill:#884D00;" d="M229.31,208.411c-1.064-4.14-5.284-6.635-9.422-5.571c-4.14,1.064-6.635,5.283-5.571,9.422
		l9.501,36.982c0.898,3.494,4.042,5.816,7.491,5.816c0.638,0,1.286-0.079,1.932-0.246c4.14-1.064,6.635-5.283,5.571-9.422
		L229.31,208.411z"/>
	<path style="fill:#884D00;" d="M216.032,187.849c-0.64,0.165-1.29,0.248-1.93,0.248c-3.447,0-6.594-2.322-7.492-5.82l-4.437-17.306
		c-0.186-0.712-0.258-1.424-0.237-2.116c1.682,0.134,3.509,0.196,5.5,0.196c3.911,0,7.182-0.258,10.041-0.691l4.128,16.068
		C222.667,182.565,220.18,186.786,216.032,187.849z"/>
	<path style="fill:#884D00;" d="M289.287,213.835c-4.138-1.063-8.359,1.43-9.422,5.571l-6.676,25.987
		c-1.064,4.14,1.43,8.359,5.571,9.422c0.646,0.166,1.293,0.246,1.932,0.246c3.448,0,6.593-2.322,7.491-5.816l6.676-25.987
		C295.922,219.118,293.427,214.899,289.287,213.835z"/>
	<path style="fill:#884D00;" d="M309.239,167.282l-6.677,25.985c-0.898,3.498-4.045,5.82-7.492,5.82c-0.64,0-1.29-0.083-1.93-0.248
		c-4.138-1.063-6.636-5.284-5.573-9.422l6.677-25.985c0.093-0.372,0.217-0.722,0.361-1.063c2.828,0.433,6.078,0.681,9.948,0.681
		c1.62,0,3.127-0.041,4.541-0.124C309.538,164.289,309.621,165.785,309.239,167.282z"/>
	<path style="fill:#884D00;" d="M100.654,106.468l-0.002-0.001c-7.906-2.906-9.296-3.975-9.296-7.153c0-1.617,0-4.983,7.659-4.983
		c4.161,0,6.346,1.124,8.1,2.027c1.348,0.693,2.875,1.48,4.819,1.48c5.479,0,8.397-5.305,8.397-9.136
		c0-6.236-6.907-9.524-14.327-10.764v-0.96c0-4.922-4.005-8.928-8.928-8.928s-8.928,4.005-8.928,8.928v2.108
		c-9.169,3.189-14.327,10.561-14.327,20.783c0,15.487,11.311,19.736,19.572,22.839c8.196,3.08,11.064,4.652,11.064,10.197
		c0,3.643-0.972,7.013-8.029,7.013c-5.427,0-7.334-2.057-9.18-4.047c-1.415-1.524-3.352-3.613-6.599-3.613
		c-4.86,0-8.49,4.823-8.49,9.136c0,6.275,6.824,12.255,15.987,14.616v1.073c0,4.922,4.005,8.928,8.928,8.928
		s8.928-4.005,8.928-8.928v-1.285c10.104-3.079,15.988-11.547,15.988-23.447C121.993,114.309,109.151,109.591,100.654,106.468z"/>
	<path style="fill:#884D00;" d="M418.5,106.468l-0.002-0.001c-7.906-2.906-9.296-3.975-9.296-7.153c0-1.617,0-4.983,7.659-4.983
		c4.161,0,6.346,1.124,8.1,2.027c1.348,0.693,2.875,1.48,4.819,1.48c5.479,0,8.397-5.305,8.397-9.136
		c0-6.236-6.907-9.524-14.327-10.764v-0.96c0-4.922-4.005-8.928-8.928-8.928c-4.922,0-8.928,4.005-8.928,8.928v2.108
		c-9.169,3.189-14.327,10.561-14.327,20.783c0,15.487,11.311,19.736,19.572,22.839c8.196,3.08,11.064,4.652,11.064,10.197
		c0,3.643-0.972,7.013-8.029,7.013c-5.427,0-7.334-2.057-9.18-4.047c-1.415-1.524-3.352-3.613-6.599-3.613
		c-4.86,0-8.49,4.823-8.49,9.136c0,6.275,6.824,12.255,15.987,14.616v1.073c0,4.922,4.005,8.928,8.928,8.928
		c4.922,0,8.928-4.005,8.928-8.928v-1.285c10.104-3.079,15.988-11.547,15.988-23.447C439.839,114.309,426.997,109.591,418.5,106.468
		z"/>
	<path style="fill:#884D00;" d="M259.577,57.611l-0.002-0.001c-7.906-2.906-9.296-3.975-9.296-7.153c0-1.617,0-4.983,7.659-4.983
		c4.161,0,6.346,1.124,8.1,2.027c1.348,0.693,2.875,1.48,4.819,1.48c5.479,0,8.397-5.305,8.397-9.136
		c0-6.236-6.907-9.524-14.327-10.764v-0.96c0-4.922-4.005-8.928-8.928-8.928c-4.923,0-8.928,4.005-8.928,8.928v2.108
		c-9.169,3.189-14.327,10.561-14.327,20.783c0,15.487,11.311,19.736,19.572,22.839c8.196,3.08,11.064,4.652,11.064,10.197
		c0,3.643-0.972,7.013-8.029,7.013c-5.427,0-7.334-2.057-9.18-4.047c-1.415-1.524-3.352-3.613-6.599-3.613
		c-4.86,0-8.49,4.823-8.49,9.136c0,6.275,6.824,12.255,15.987,14.616v1.073c0,4.922,4.005,8.928,8.928,8.928
		s8.928-4.005,8.928-8.928v-1.285c10.104-3.079,15.988-11.547,15.988-23.447C280.916,65.451,268.074,60.732,259.577,57.611z"/>
	<circle style="fill:#884D00;" cx="256" cy="415.171" r="64.095"/>
</g>
<path style="fill:#FFA733;" d="M260.153,405.804l-0.916-0.337c-7.794-2.864-11.24-4.345-11.24-9.44c0-2.834,0.924-4.609,2.995-5.754
	c2.169-1.2,5.061-1.453,7.105-1.453c4.94,0,7.627,1.383,9.589,2.393c1.395,0.718,2.714,1.397,4.375,1.397
	c4.672,0,7.255-4.762,7.255-8.052c0-7.006-9.984-9.312-15.485-10.049v-2.623c0-4.317-3.512-7.828-7.827-7.828
	c-4.317,0-7.828,3.512-7.828,7.828v3.603c-10.007,2.957-15.485,10.394-15.485,21.138c0,15.476,11.074,19.638,19.973,22.982
	c8.875,3.334,13.141,5.268,13.141,12.725c0,6.414-3.336,9.401-10.498,9.401c-6.66,0-9.103-2.633-11.258-4.957
	c-1.444-1.557-3.08-3.322-5.797-3.322c-4.143,0-7.356,4.329-7.356,8.052c0,6.11,7.573,12.27,17.281,14.357v2.601
	c0,4.317,3.512,7.829,7.828,7.829c4.316,0,7.827-3.512,7.827-7.829v-2.774c11.016-2.768,17.28-11.389,17.28-23.958
	C281.109,413.547,267.99,408.7,260.153,405.804z"/>
<g>
</g>
<g>
</g>
<g>
</g>
<g>
</g>
<g>
</g>
<g>
</g>
<g>
</g>
<g>
</g>
<g>
</g>
<g>
</g>
<g>
</g>
<g>
</g>
<g>
</g>
<g>
</g>
<g>
</g>
</svg>
