<?xml version="1.0" encoding="iso-8859-1"?>
<!-- Generator: Adobe Illustrator 19.0.0, SVG Export Plug-In . SVG Version: 6.00 Build 0)  -->
<svg version="1.1" id="Capa_1" xmlns="http://www.w3.org/2000/svg" xmlns:xlink="http://www.w3.org/1999/xlink" x="0px" y="0px"
	 viewBox="0 0 512.001 512.001" style="enable-background:new 0 0 512.001 512.001;" xml:space="preserve">
<g>
	<path style="fill:#EE8700;" d="M116.274,185.521c-0.1,0.02-0.21,0.05-0.311,0.07c-35.54,7.885-70.789-14.428-78.855-49.968
		c-8.076-35.64,14.268-71.089,49.908-79.165c9.889-2.244,19.759-2.144,29.037-0.07c24.167,5.411,44.287,24.217,50.128,49.968
		C174.258,142.005,151.914,177.445,116.274,185.521z"/>
	<path style="fill:#EE8700;" d="M424.879,185.521c-0.1,0.02-0.21,0.05-0.311,0.07c-35.54,7.885-70.789-14.428-78.855-49.968
		c-8.076-35.64,14.268-71.089,49.908-79.165c9.889-2.244,19.759-2.144,29.037-0.07c24.167,5.411,44.287,24.217,50.128,49.968
		C482.863,142.005,460.519,177.445,424.879,185.521z"/>
	<path style="fill:#EE8700;" d="M270.576,138.088c-0.1,0.02-0.21,0.05-0.311,0.06c-35.54,7.885-70.789-14.428-78.855-49.968
		c-8.076-35.64,14.268-71.079,49.908-79.165c9.889-2.244,19.759-2.144,29.027-0.06c24.167,5.401,44.287,24.207,50.138,49.968
		C328.56,94.562,306.216,130.012,270.576,138.088z"/>
</g>
<g>
	<path style="fill:#FFA733;" d="M116.274,185.521c-0.1,0.02-0.21,0.05-0.311,0.07c-24.167-5.411-44.287-24.217-50.128-49.968
		c-8.086-35.64,14.258-71.089,49.908-79.165c0.1-0.02,0.21-0.05,0.311-0.07c24.167,5.411,44.287,24.217,50.128,49.968
		C174.258,142.005,151.914,177.445,116.274,185.521z"/>
	<path style="fill:#FFA733;" d="M424.879,185.521c-0.1,0.02-0.21,0.05-0.311,0.07c-24.167-5.411-44.287-24.217-50.128-49.968
		c-8.086-35.64,14.258-71.089,49.908-79.165c0.1-0.02,0.21-0.05,0.311-0.07c24.167,5.411,44.287,24.217,50.128,49.968
		C482.863,142.005,460.519,177.445,424.879,185.521z"/>
	<path style="fill:#FFA733;" d="M270.576,138.088c-0.1,0.02-0.21,0.05-0.311,0.06c-24.157-5.401-44.287-24.217-50.128-49.968
		c-8.086-35.64,14.258-71.079,49.908-79.165c0.1-0.02,0.2-0.05,0.301-0.06c24.167,5.401,44.287,24.207,50.138,49.968
		C328.56,94.562,306.216,130.012,270.576,138.088z"/>
</g>
<path style="fill:#AA6100;" d="M353.81,422.455c0,40.369-35.951,76.119-85.297,81.36c-4.098,0.441-8.296,0.661-12.565,0.661
	c-66.561,0-113.663-54.647-92.902-107.771l39.057-99.956L170.37,183.246c-4.028-12.575,7.936-24.488,20.43-20.25
	c1.573,0.541,3.276,1.022,5.16,1.433c2.184,0.481,4.639,0.852,7.495,1.052c1.633,0.13,3.407,0.19,5.34,0.19
	c3.797,0,6.974-0.25,9.749-0.671c14.438-2.184,17.625-8.968,37.393-8.968c19.819,0,22.975,6.813,37.494,8.978
	c2.745,0.421,5.902,0.661,9.659,0.661c1.573,0,3.036-0.04,4.409-0.12c5.851-0.341,10.06-1.353,13.707-2.595
	c12.464-4.258,24.428,7.635,20.45,20.2l-29.578,116.258l37.073,98.042C352.317,405.833,353.81,414.239,353.81,422.455z"/>
<path style="fill:#CC7400;" d="M353.81,422.455c0,40.369-35.951,76.119-85.297,81.36c-59.807-6.302-99.856-57.373-80.418-107.11
	l39.057-99.956l-31.732-113.503c-1.283-4.018-0.942-11.132,0.541-18.817c3.323,0.731,7.478,1.242,12.835,1.242
	c3.797,0,6.974-0.25,9.749-0.671c14.438-2.184,17.625-8.968,37.393-8.968c19.819,0,22.975,6.813,37.494,8.978
	c4.46,0.683,9.798,0.791,14.068,0.541c5.851-0.341,10.06-1.353,13.707-2.595c12.464-4.258,24.428,7.635,20.45,20.2l-29.578,116.258
	l37.073,98.042C352.317,405.833,353.81,414.239,353.81,422.455z"/>
<path style="fill:#663A00;" d="M332.528,295.396c0,5.791-2.375,11.052-6.182,14.869c-3.818,3.807-9.078,6.182-14.869,6.182H200.419
	c-11.573,0-21.051-9.479-21.051-21.051c0-5.791,2.375-11.052,6.182-14.869c2.816-2.805,6.413-4.839,10.44-5.711
	c1.303-0.281,2.645-0.441,4.028-0.461c0.13-0.01,0.271-0.01,0.401-0.01h111.058c9.849,0,18.186,6.863,20.44,16.041
	c0.18,0.721,0.321,1.463,0.421,2.214C332.468,293.513,332.528,294.454,332.528,295.396z"/>
<g>
	<path style="fill:#884D00;" d="M332.338,292.601c-1.423,0.311-2.906,0.471-4.429,0.471H216.851
		c-10.621,0-19.488-7.986-20.861-18.256c1.303-0.281,2.645-0.441,4.028-0.461c0.13-0.01,0.271-0.01,0.401-0.01h111.058
		c9.849,0,18.186,6.863,20.44,16.041C332.097,291.108,332.237,291.849,332.338,292.601z"/>
	<circle style="fill:#884D00;" cx="255.952" cy="410.465" r="62.232"/>
</g>
<path d="M255.948,460.098c4.19,0,7.6-3.41,7.6-7.601v-2.693c10.696-2.687,16.778-11.058,16.778-23.262
	c0-14.974-8.376-20.752-21.237-25.503c-7.568-2.78-10.913-4.218-10.913-9.166c0-5.473,4.312-6.998,9.805-6.998
	c8.026,0,9.701,3.68,13.558,3.68c4.536,0,7.044-4.623,7.044-7.819c0-6.802-9.694-9.042-15.034-9.757v-2.547
	c0-4.191-3.41-7.601-7.6-7.601c-4.191,0-7.601,3.41-7.601,7.601v3.498c-9.716,2.871-15.034,10.092-15.034,20.523
	c0,15.026,10.752,19.067,19.392,22.314c8.617,3.237,12.759,5.115,12.759,12.355c0,6.227-3.239,9.128-10.193,9.128
	c-11.205,0-10.448-8.038-16.558-8.038c-4.023,0-7.142,4.203-7.142,7.819c0,5.933,7.352,11.913,16.779,13.939v2.525
	C248.347,456.689,251.757,460.098,255.948,460.098z"/>
<path d="M327.528,319.013c7.545-5.14,12.515-13.807,12.515-23.616c0-11.903-7.314-22.123-17.685-26.402l26.462-83.574
	c5.851-18.411-11.611-35.868-30.039-29.578c-3.357,1.142-7.835,2.315-15.691,2.315c-21.437,0-21.928-9.639-47.152-9.639
	c-13.256,0-20.25,2.856-26.412,5.381c-5.591,2.284-10.42,4.258-20.731,4.258c-14.049,0-15.223-3.547-23.185-3.547
	c-15.815,0-27.34,15.464-22.404,30.921l26.692,83.323c-10.561,4.188-18.045,14.508-18.045,26.542c0,10.14,5.31,19.057,13.286,24.117
	l-29.097,74.456c-9.549,24.448-6.342,51.19,8.807,73.374c40.585,59.439,141.072,59.514,181.927,0.401
	c15.19-21.983,18.616-48.565,9.398-72.943L327.528,319.013z M177.083,178.236c0-5.432,5.38-10.103,11.312-8.126
	c5.26,1.784,10.531,2.735,16.723,2.996l2.876,11.232c0.872,3.397,3.928,5.651,7.274,5.651c4.904,0,8.508-4.626,7.284-9.388
	l-2.134-8.286c15.551-2.563,17.529-8.767,35.52-8.767c10.32,0,15.15,1.974,20.741,4.258c4.058,1.663,8.467,3.467,14.789,4.509
	l-4.87,18.957c-1.032,4.018,1.393,8.116,5.411,9.148c0.621,0.16,1.252,0.24,1.874,0.24c3.347,0,6.403-2.254,7.274-5.651
	l5.631-21.903c6.242-0.26,11.553-1.232,16.843-3.046c0.932-0.311,1.864-0.471,2.785-0.471c5.256,0,9.97,5.48,8.076,11.292
	l-27.203,85.949H205.038C176.19,176.337,177.083,180.711,177.083,178.236z M194.497,283.222c1.794-0.872,3.797-1.363,5.922-1.363
	c16.703,0,98.468,0,111.058,0c2.274,0,4.429,0.561,6.312,1.563c4.298,2.274,7.224,6.793,7.224,11.974
	c0,3.286-1.172,6.302-3.146,8.657c-4.904,5.897-11.591,4.743-12.294,4.88c-15.871,0-93.636,0-109.154,0
	c-3.737,0-7.134-1.523-9.589-3.988c-2.445-2.455-3.948-5.831-3.948-9.549C186.882,290.056,189.988,285.427,194.497,283.222z
	 M334.412,459.207c-8.166,11.813-19.588,21.252-33.065,27.744c-40.934,19.691-97.809,10.413-124.083-28.085
	c-12.484-18.286-15.05-39.387-7.224-59.427l29.508-75.498c0.133,0.009,112.195,0.079,113.753-0.05l28.816,76.229
	C349.672,420.091,346.936,441.082,334.412,459.207z"/>
<path d="M224.696,249.356c0.882,3.397,3.928,5.651,7.274,5.651c4.911,0,8.508-4.627,7.284-9.388l-9.218-35.91
	c-1.032-4.018-5.13-6.433-9.148-5.401c-4.028,1.032-6.443,5.13-5.411,9.148L224.696,249.356z"/>
<path d="M279.925,255.007c3.347,0,6.403-2.254,7.274-5.651l6.473-25.229c1.042-4.018-1.383-8.116-5.401-9.148
	c-4.018-1.032-8.116,1.393-9.148,5.411l-6.483,25.229C271.419,250.373,275.008,255.007,279.925,255.007z"/>
<path d="M316.075,392.686c-4.093,0.686-6.854,4.561-6.168,8.654c0.502,2.993,0.757,6.063,0.757,9.125
	c0,30.17-24.546,54.716-54.716,54.716s-54.716-24.546-54.716-54.716c0-51.897,66.468-74.881,98.276-33.118
	c2.515,3.301,7.23,3.941,10.532,1.425c3.301-2.515,3.94-7.229,1.425-10.532c-13.32-17.49-33.556-27.521-55.515-27.521
	c-38.457,0-69.746,31.288-69.746,69.746s31.288,69.746,69.746,69.746c42.838,0,75.957-38.584,68.782-81.358
	C324.043,394.761,320.169,391.993,316.075,392.686z"/>
<path d="M163.977,160.281c7.515-11.903,11.382-25.4,11.382-39.137c0-5.471-0.611-10.982-1.854-16.442
	C159.092,41.077,74.208,26.304,39.313,81.697c-10.501,16.643-13.887,36.391-9.529,55.589
	C44.297,201.322,129.137,215.586,163.977,160.281z M114.611,178.196c-31.596,7.169-63.014-12.613-70.168-44.237
	C32.91,83.128,88.985,43.683,132.927,71.367C176.989,99.143,165.28,166.704,114.611,178.196z"/>
<path d="M105.116,110.734c-7.676-2.822-9.026-3.86-9.026-6.946c0-1.57,0-4.837,7.437-4.837c7.139,0,8.279,3.405,12.544,3.405
	c8.366,0,15.384-15.787-5.757-19.322v-0.932c0-4.779-3.889-8.668-8.668-8.668c-4.779,0-8.668,3.889-8.668,8.668v2.047
	c-8.902,3.096-13.91,10.254-13.91,20.179c0,15.036,10.983,19.163,19.003,22.175c7.958,2.991,10.742,4.517,10.742,9.9
	c0,3.537-0.944,6.809-7.795,6.809c-9.613,0-8.604-7.437-15.321-7.437c-4.718,0-8.243,4.683-8.243,8.87
	c0,6.093,6.626,11.898,15.522,14.191v1.042c0,4.779,3.889,8.668,8.668,8.668c4.779,0,8.668-3.889,8.668-8.668v-1.247
	c9.81-2.99,15.523-11.211,15.523-22.766C125.837,120.806,117.208,115.177,105.116,110.734z"/>
<path d="M393.958,49.123c-39.707,9.015-64.589,48.436-55.569,88.163c14.589,64.371,99.58,77.94,134.193,22.995
	C507.365,105.185,457.969,34.621,393.958,49.123z M423.216,178.196c-31.596,7.169-63.014-12.613-70.168-44.237
	c-11.6-51.124,44.633-90.22,88.483-62.593C485.605,99.149,473.866,166.708,423.216,178.196z"/>
<path d="M413.721,110.734c-7.676-2.822-9.026-3.86-9.026-6.946c0-1.57,0-4.837,7.437-4.837c7.139,0,8.279,3.405,12.544,3.405
	c8.366,0,15.384-15.787-5.757-19.322v-0.932c0-4.779-3.889-8.668-8.668-8.668s-8.668,3.889-8.668,8.668v2.047
	c-8.902,3.096-13.91,10.254-13.91,20.179c0,15.036,10.983,19.163,19.003,22.175c7.958,2.991,10.742,4.517,10.742,9.9
	c0,3.537-0.944,6.809-7.795,6.809c-9.613,0-8.604-7.437-15.321-7.437c-4.718,0-8.243,4.683-8.243,8.87
	c0,6.093,6.626,11.898,15.522,14.191v1.042c0,4.779,3.889,8.668,8.668,8.668s8.668-3.889,8.668-8.668v-1.247
	c9.81-2.99,15.523-11.211,15.523-22.766C434.442,120.806,425.813,115.177,413.721,110.734z"/>
<path d="M318.28,112.848c10.501-16.653,13.887-36.391,9.529-55.589c-14.484-63.945-99.408-78.19-134.193-23.005
	c-10.501,16.653-13.887,36.391-9.529,55.589C198.537,153.592,283.448,168.14,318.28,112.848z M206.33,42.27
	C234.147-1.909,301.663,9.811,313.15,60.586c7.158,31.551-12.554,62.989-44.237,70.178C218.475,142.174,178.301,86.732,206.33,42.27
	z"/>
<path d="M255.321,95.774c-9.615,0-8.601-7.437-15.321-7.437c-4.718,0-8.243,4.683-8.243,8.87c0,6.093,6.626,11.898,15.522,14.191
	v1.042c0,4.779,3.889,8.668,8.668,8.668c4.779,0,8.668-3.889,8.668-8.668v-1.247c9.81-2.99,15.523-11.211,15.523-22.766
	c0-15.059-8.629-20.689-20.721-25.131c-7.676-2.821-9.026-3.86-9.026-6.945c0-1.57,0-4.837,7.437-4.837
	c7.139,0,8.279,3.405,12.544,3.405c8.366,0,15.384-15.787-5.757-19.322v-0.932c0-4.779-3.889-8.668-8.668-8.668
	c-4.779,0-8.668,3.889-8.668,8.668v2.047c-8.902,3.096-13.91,10.254-13.91,20.179c0,15.036,10.983,19.163,19.003,22.175
	c7.958,2.991,10.742,4.517,10.742,9.899C263.115,92.501,262.171,95.774,255.321,95.774z"/>
<g>
</g>
<g>
</g>
<g>
</g>
<g>
</g>
<g>
</g>
<g>
</g>
<g>
</g>
<g>
</g>
<g>
</g>
<g>
</g>
<g>
</g>
<g>
</g>
<g>
</g>
<g>
</g>
<g>
</g>
</svg>
