<?xml version="1.0" encoding="iso-8859-1"?>
<!-- Generator: Adobe Illustrator 19.0.0, SVG Export Plug-In . SVG Version: 6.00 Build 0)  -->
<svg version="1.1" id="Capa_1" xmlns="http://www.w3.org/2000/svg" xmlns:xlink="http://www.w3.org/1999/xlink" x="0px" y="0px"
	 viewBox="0 0 511.999 511.999" style="enable-background:new 0 0 511.999 511.999;" xml:space="preserve">
<g>
	<path style="fill:#CC7400;" d="M187.071,176.985c-1.214-28.248-21.043-51.288-47.153-57.79c-5.642-1.401-11.572-2.032-17.672-1.777
		l0,0H97.871c-55.264,2.395-81.025,71.23-38.704,108.787c11.66,10.366,27.214,16.397,44.033,15.674h19.046v-0.02
		c1.738,0.07,3.49,0.087,5.259,0.011c4.255-0.181,8.389-0.793,12.373-1.776c26.622-6.583,46.23-30.195,47.204-58.192
		C187.151,180.277,187.141,178.641,187.071,176.985z"/>
	<path style="fill:#CC7400;" d="M473.563,175.982c-1.214-28.248-21.043-51.288-47.153-57.79c-5.642-1.401-11.572-2.032-17.672-1.777
		l0,0h-24.374c-55.264,2.395-81.025,71.23-38.704,108.787c11.66,10.366,27.214,16.397,44.033,15.674h19.046v-0.02
		c1.738,0.07,3.49,0.087,5.259,0.011c4.255-0.181,8.389-0.793,12.373-1.776c26.622-6.583,46.23-30.195,47.204-58.192
		C473.643,179.273,473.633,177.638,473.563,175.982z"/>
</g>
<path style="fill:#663A00;" d="M406.229,286.362v45.759H134.337c-15.775,0-28.679-12.905-28.679-28.669v-5.459
	c0-15.775,12.905-28.679,28.679-28.679H389.18C398.592,269.313,406.229,276.95,406.229,286.362z"/>
<path style="fill:#AA6100;" d="M406.289,330.415l-0.063,157.941c0,8.904-7.213,16.117-16.117,16.117H136.246
	c-16.894,0-30.592-13.69-30.592-30.584V304.911h0.056c0.849,14.16,12.696,25.473,27.058,25.473l50.927,0.031h222.593V330.415z"/>
<g>
	<rect x="105.655" y="435.759" style="fill:#884D00;" width="300.571" height="35.613"/>
	<rect x="105.655" y="366.649" style="fill:#884D00;" width="300.571" height="35.613"/>
	<path style="fill:#884D00;" d="M131.457,330.354v173.743c-14.619-2.299-25.804-14.939-25.804-30.205V304.913h0.06
		C106.534,318.64,117.685,329.688,131.457,330.354z"/>
</g>
<g>
	<rect x="105.655" y="435.759" style="fill:#663A00;" width="25.804" height="35.616"/>
	<rect x="105.655" y="366.649" style="fill:#663A00;" width="25.804" height="35.616"/>
</g>
<path style="fill:#CC7400;" d="M329.564,67.105c-1.214-28.248-21.043-51.288-47.153-57.79c-5.642-1.401-11.572-2.032-17.672-1.777
	l0,0h-24.374C185.1,9.932,159.34,78.767,201.66,116.324c11.66,10.366,27.214,16.397,44.033,15.674h19.046v-0.02
	c1.738,0.07,3.49,0.087,5.259,0.011c4.255-0.181,8.389-0.793,12.373-1.776c26.622-6.583,46.23-30.195,47.204-58.192
	C329.645,70.396,329.635,68.76,329.564,67.105z"/>
<g>
	<path style="fill:#EE8700;" d="M187.081,181.902c-0.973,27.997-20.581,51.609-47.204,58.192
		c-26.1-6.492-45.939-29.542-47.153-57.78c0-0.14-0.01-0.271-0.01-0.411c-1.094-29.944,19.166-55.773,47.204-62.707
		c26.11,6.503,45.939,29.542,47.153,57.79C187.141,178.641,187.151,180.277,187.081,181.902z"/>
	<path style="fill:#EE8700;" d="M473.573,180.899c-0.973,27.997-20.581,51.609-47.204,58.192
		c-26.1-6.493-45.939-29.542-47.153-57.78c0-0.14-0.01-0.271-0.01-0.411c-1.094-29.944,19.166-55.773,47.204-62.707
		c26.11,6.503,45.939,29.542,47.153,57.79C473.633,177.638,473.643,179.273,473.573,180.899z"/>
	<path style="fill:#EE8700;" d="M329.574,72.022c-0.973,27.997-20.581,51.609-47.204,58.192c-26.1-6.493-45.939-29.542-47.153-57.78
		c0-0.14-0.01-0.271-0.01-0.411c-1.094-29.944,19.166-55.773,47.204-62.707c26.11,6.503,45.939,29.542,47.153,57.79
		C329.635,68.76,329.645,70.396,329.574,72.022z"/>
</g>
<path d="M183.411,322.731c0.025,0,0.049,0,0.072,0C183.462,322.731,183.437,322.731,183.411,322.731z"/>
<path d="M183.534,322.731c0.025,0,0.047,0,0.063,0C183.58,322.731,183.559,322.731,183.534,322.731z"/>
<path d="M183.221,322.731c-0.02,0-0.039,0-0.055,0C183.183,322.731,183.204,322.731,183.221,322.731z"/>
<path d="M183.268,322.731c0.009,0,0.018,0,0.026,0c0.023,0,0.047,0,0.074,0c0.016,0,0.028,0,0.042,0
	C183.364,322.731,183.315,322.731,183.268,322.731z"/>
<path d="M389.3,261.663H134.318c-19.275,0-37.767,15.103-36.148,42.12c-0.119,0.882-0.077-11.497-0.077,170.09
	c0,21.023,17.107,38.126,38.134,38.126h254.002c13.041,0,23.651-10.61,23.651-23.651c0-103.734-0.001-95.432,0.004-202.101
	C413.884,272.691,402.855,261.663,389.3,261.663z M398.828,463.83H248.52c-4.156,0-7.526,3.369-7.526,7.526s3.37,7.526,7.526,7.526
	h150.308v9.466c0,4.742-3.857,8.599-8.599,8.599H136.227c-11.006,0-20.232-7.743-22.528-18.065h104.717
	c4.156,0,7.526-3.369,7.526-7.526s-3.37-7.526-7.526-7.526H113.144v-20.581h285.683v20.581H398.828z M398.828,428.198H113.144
	v-18.46h285.683v18.46H398.828z M398.828,359.051H293.557c-4.157,0-7.526,3.369-7.526,7.526c0,4.157,3.369,7.526,7.526,7.526
	h105.271v20.581H113.144v-20.581h150.308c4.157,0,7.526-3.369,7.526-7.526c0-4.157-3.369-7.526-7.526-7.526H113.144v-27.329
	c10.807,7.437,21.219,5.897,22.693,6.091h262.99L398.828,359.051L398.828,359.051z M398.832,292.319H130.571
	c-4.156,0-7.526,3.369-7.526,7.526s3.37,7.526,7.526,7.526h268.261v15.36H183.641h-0.005c-0.107,0-0.194,0-0.267,0
	c-0.022,0-0.048,0-0.074,0c-0.012,0-0.025,0-0.035,0c0.003,0,0.006,0,0.009,0c-0.016,0-0.03,0-0.047,0c0.006,0,0.012,0,0.019,0
	c-0.038,0-0.066,0-0.09,0c0.005,0,0.011,0,0.016,0c-1.999,0.001-11.47,0.007-48.847,0.03c-11.672,0-21.168-9.496-21.168-21.168
	v-3.711c0-11.672,9.496-21.168,21.168-21.168H389.3c5.255,0,9.532,4.277,9.532,9.532L398.832,292.319L398.832,292.319z"/>
<path d="M255.988,258.542c4.157,0,7.526-3.369,7.526-7.526v-70.449l16.949,13.036c1.367,1.053,2.981,1.561,4.582,1.561
	c2.257,0,4.49-1.01,5.971-2.938c2.534-3.294,1.918-8.019-1.377-10.554l-29.06-22.352c-0.045-0.035-0.094-0.063-0.141-0.097
	c-0.099-0.073-0.202-0.142-0.304-0.21c-0.108-0.072-0.217-0.141-0.328-0.208c-0.097-0.057-0.197-0.11-0.296-0.164
	c-0.123-0.066-0.248-0.129-0.373-0.188c-0.088-0.041-0.178-0.077-0.268-0.114c-0.141-0.058-0.28-0.114-0.422-0.164
	c-0.082-0.028-0.166-0.052-0.249-0.078c-0.15-0.046-0.299-0.09-0.451-0.126c-0.085-0.021-0.172-0.036-0.258-0.054
	c-0.148-0.03-0.294-0.058-0.443-0.079c-0.101-0.014-0.203-0.023-0.305-0.033c-0.132-0.013-0.264-0.026-0.396-0.032
	c-0.125-0.006-0.25-0.005-0.375-0.005c-0.108,0-0.217,0-0.325,0.004c-0.15,0.007-0.298,0.021-0.447,0.037
	c-0.085,0.009-0.171,0.016-0.255,0.028c-0.165,0.023-0.327,0.054-0.491,0.088c-0.07,0.014-0.14,0.027-0.211,0.044
	c-0.166,0.039-0.33,0.087-0.494,0.138c-0.068,0.021-0.137,0.041-0.206,0.065c-0.156,0.053-0.309,0.114-0.462,0.179
	c-0.076,0.032-0.154,0.063-0.229,0.097c-0.138,0.063-0.274,0.133-0.409,0.207c-0.087,0.047-0.175,0.093-0.261,0.144
	c-0.121,0.071-0.241,0.149-0.359,0.228c-0.092,0.061-0.184,0.123-0.274,0.19c-0.05,0.037-0.103,0.067-0.153,0.105l-29.059,22.352
	c-3.294,2.534-3.911,7.259-1.377,10.555c1.482,1.927,3.714,2.937,5.971,2.937c1.602,0,3.216-0.509,4.583-1.561l16.948-13.036v70.449
	C248.462,255.173,251.832,258.542,255.988,258.542z"/>
<path d="M242.171,136.608c0.16,0,30.34-0.057,30.481-0.063c26.301-1.125,49.887-17.54,60.087-41.821
	c1.61-3.831-0.192-8.244-4.024-9.853c-3.83-1.608-8.244,0.193-9.854,4.024c-8.194,19.507-27.552,32.662-49.171,32.662
	c-29.594,0-53.209-23.869-53.209-53.3c0-28.587,22.393-51.938,50.984-53.16c28.504-1.222,52.525,19.834,55.268,47.983
	c0.403,4.136,4.087,7.159,8.22,6.76c4.137-0.403,7.164-4.084,6.76-8.22c-1.646-16.879-9.483-32.467-22.067-43.893
	C302.39,5.693,285.035-0.653,267.099,0.053c-0.12,0-27.339-0.001-27.453-0.001c-0.107,0-0.215,0.002-0.321,0.007
	c-37.716,1.612-66.938,33.439-65.326,71.161C175.573,108.044,205.896,136.61,242.171,136.608z M189.725,77.078h12.281
	c0.561,4.386,1.531,8.634,2.872,12.709h-11.376C191.724,85.752,190.453,81.49,189.725,77.078z M222.581,117.805
	c-6.977-2.774-13.441-7.025-19.062-12.965c5.07-0.007,7.603,0.02,8.437-0.017C214.961,109.585,218.531,113.946,222.581,117.805z
	 M222.584,18.79c-4.943,4.705-9.159,10.153-12.508,16.151h-9.329C206.7,27.557,214.178,22.121,222.584,18.79z M192.204,49.993h11.7
	c-1.071,3.884-1.814,7.903-2.186,12.033h-12.36C189.84,57.895,190.789,53.86,192.204,49.993z"/>
<path d="M271.743,107.446c4.205,0,7.626-3.421,7.626-7.626v-0.771c8.182-2.63,12.982-9.676,12.982-19.313
	c0-14.822-10.672-18.802-16.406-20.94l-1.169-0.431c-6.628-2.435-7.302-3.208-7.302-5.455c0-1.892,0.696-2.435,1.349-2.797
	c2.036-1.126,6.676-1.44,10.911,0.738c1.129,0.58,2.408,1.237,4.073,1.237c4.304,0,7.196-4.031,7.196-7.796
	c0-4.589-4.103-7.751-11.633-9.046v-0.474c0-4.205-3.422-7.626-7.626-7.626c-4.205,0-7.626,3.421-7.626,7.626v1.447
	c-7.43,2.695-11.633,8.823-11.633,17.139c0,12.835,9.325,16.34,16.136,18.899c6.495,2.44,8.74,3.508,8.74,7.926
	c0,2.762-0.744,5.317-6.142,5.317c-7.868,0-6.925-6.219-12.812-6.219c-4.161,0-7.272,4.115-7.272,7.795
	c0,5.214,5.422,10.162,12.983,12.168v0.571C264.117,104.025,267.538,107.446,271.743,107.446z"/>
<path d="M98.681,246.991c0.116,0,2.09,0,27.485,0c19.282,0,37.328-7.888,50.389-22.115c12.338-13.441,18.704-30.881,17.925-49.109
	c-1.599-37.41-33.116-66.826-70.881-65.331c-0.01,0-0.02-0.001-0.029-0.001c-28.168,0.002-27.468-0.006-27.743,0.007
	C35.3,113.029,7.891,188.006,52.553,229.003c12.704,11.663,28.981,17.99,46.122,17.989
	C98.678,246.991,98.681,246.991,98.681,246.991z M79.282,129.098c-4.799,4.558-9.018,9.745-12.66,16.225H57.25
	C63.367,137.735,70.974,132.352,79.282,129.098z M48.707,160.376h11.709c-1.085,3.917-1.82,7.938-2.19,12.033H45.862
	C46.343,168.277,47.292,164.242,48.707,160.376z M50.004,200.17c-1.777-4.035-3.048-8.297-3.776-12.709h12.281
	c0.557,4.355,1.524,8.604,2.878,12.709H50.004z M60.021,215.222c5.933-0.009,7.665,0.022,8.48-0.019
	c3.005,4.734,6.615,9.123,10.788,13.07C72.237,225.501,65.696,221.22,60.021,215.222z M126.292,125.429
	c13.362,0,26.054,4.933,35.959,14.026c10.478,9.619,16.583,22.744,17.192,36.955c1.257,29.406-21.522,54.222-50.93,55.479
	c-14.22,0.616-27.809-4.356-38.288-13.975C54.711,185.313,77.738,125.429,126.292,125.429z"/>
<path d="M135.872,210.202v-0.771c8.182-2.63,12.982-9.676,12.982-19.313c0-14.822-10.672-18.802-16.406-20.94l-1.169-0.431
	c-6.628-2.435-7.302-3.208-7.302-5.455c0-1.892,0.696-2.435,1.349-2.797c1.018-0.563,2.613-0.873,4.494-0.873
	c5.858,0,6.794,2.848,10.49,2.848c7.423,0,13.294-13.793-4.437-16.842v-0.474c0-4.205-3.422-7.626-7.626-7.626
	c-4.205,0-7.626,3.421-7.626,7.626v1.447c-7.43,2.695-11.633,8.823-11.633,17.139c0,12.835,9.325,16.34,16.136,18.899
	c6.495,2.44,8.74,3.508,8.74,7.926c0,2.762-0.744,5.317-6.142,5.317c-4.242,0-5.734-1.61-7.18-3.167
	c-1.127-1.215-2.832-3.052-5.633-3.052c-4.161,0-7.272,4.115-7.272,7.795c0,5.214,5.422,10.162,12.983,12.168v0.571
	c0,4.205,3.422,7.626,7.626,7.626C132.45,217.829,135.872,214.408,135.872,210.202z"/>
<path d="M481.475,175.766c-0.779-18.228-8.61-35.062-22.051-47.4c-13.37-12.275-30.713-18.648-48.828-17.931
	c-0.01,0-0.019-0.001-0.029-0.001h-27.423c-0.106,0-0.215,0.002-0.321,0.007c-18.228,0.779-35.061,8.611-47.4,22.051
	s-18.705,30.881-17.924,49.109c0.779,18.228,8.611,35.062,22.051,47.4c12.704,11.663,28.982,17.99,46.122,17.989
	c33.458,0,30.083-0.047,30.481-0.063c18.228-0.779,35.061-8.611,47.4-22.051S482.254,193.994,481.475,175.766z M346.509,142.67
	c5.589-6.089,12.368-10.688,19.85-13.602c-5.011,4.74-9.305,10.216-12.7,16.256h-9.415
	C344.971,144.421,345.718,143.531,346.509,142.67z M335.702,160.376h11.733c-1.085,3.888-1.828,7.911-2.206,12.033h-12.373
	C333.338,168.277,334.288,164.242,335.702,160.376z M336.999,200.17c-1.777-4.035-3.048-8.297-3.776-12.709h12.284
	c0.565,4.386,1.546,8.634,2.899,12.709H336.999z M349.726,217.913c-0.943-0.866-1.838-1.77-2.71-2.691h8.102
	c0.141,0,0.28-0.013,0.419-0.021c3.053,4.805,6.681,9.199,10.791,13.083C360.28,225.917,354.655,222.439,349.726,217.913z
	 M452.462,214.697c-32.006,34.865-90.421,13.341-92.435-33.739c-1.254-29.337,21.594-54.225,50.93-55.479
	c14.209-0.616,27.808,4.356,38.288,13.975c10.478,9.619,16.583,22.744,17.192,36.955S462.081,204.219,452.462,214.697z"/>
<path d="M419.443,169.18l-1.169-0.431c-6.628-2.435-7.302-3.208-7.302-5.455c0-1.892,0.696-2.435,1.349-2.797
	c1.018-0.563,2.613-0.873,4.494-0.873c5.858,0,6.795,2.848,10.49,2.848c4.304,0,7.196-4.031,7.196-7.796
	c0-4.589-4.103-7.751-11.633-9.046v-0.474c0-4.205-3.422-7.626-7.626-7.626s-7.626,3.421-7.626,7.626v1.447
	c-7.43,2.695-11.633,8.823-11.633,17.139c0,12.835,9.325,16.34,16.136,18.899c6.495,2.44,8.74,3.508,8.74,7.926
	c0,2.762-0.744,5.317-6.142,5.317c-4.242,0-5.734-1.61-7.18-3.167c-1.127-1.215-2.832-3.052-5.633-3.052
	c-4.161,0-7.272,4.115-7.272,7.795c0,5.214,5.422,10.162,12.983,12.168v0.571c0,4.205,3.422,7.626,7.626,7.626
	s7.626-3.421,7.626-7.626v-0.771c8.182-2.63,12.982-9.676,12.982-19.313C435.849,175.297,425.177,171.318,419.443,169.18z"/>
<g>
</g>
<g>
</g>
<g>
</g>
<g>
</g>
<g>
</g>
<g>
</g>
<g>
</g>
<g>
</g>
<g>
</g>
<g>
</g>
<g>
</g>
<g>
</g>
<g>
</g>
<g>
</g>
<g>
</g>
</svg>
