<?xml version="1.0" encoding="iso-8859-1"?>
<!-- Generator: Adobe Illustrator 19.0.0, SVG Export Plug-In . SVG Version: 6.00 Build 0)  -->
<svg version="1.1" id="Capa_1" xmlns="http://www.w3.org/2000/svg" xmlns:xlink="http://www.w3.org/1999/xlink" x="0px" y="0px"
	 viewBox="0 0 512 512" style="enable-background:new 0 0 512 512;" xml:space="preserve">
<path style="fill:#4E901E;" d="M381.378,354.173H130.622c-8.827,0-15.983-7.156-15.983-15.983V236.404
	c0-8.827,7.156-15.983,15.983-15.983h250.756c8.827,0,15.983,7.156,15.983,15.983v101.788
	C397.362,347.018,390.205,354.173,381.378,354.173z"/>
<path style="fill:#5EAC24;" d="M381.378,322.877H130.622c-8.827,0-15.983-7.156-15.983-15.983V205.107
	c0-8.827,7.156-15.983,15.983-15.983h250.756c8.827,0,15.983,7.156,15.983,15.983v101.788
	C397.362,315.721,390.205,322.877,381.378,322.877z"/>
<g>
	<path style="fill:#91DC5A;" d="M71.234,256.474c0,63.848,31.723,120.288,80.265,154.418c8.554,6.015,9.01,18.512,0.793,24.979
		l-0.231,0.182c-5.366,4.224-12.889,4.504-18.478,0.579c-56.669-39.798-93.709-105.657-93.709-180.158
		c0-120.846,97.457-218.949,218.061-219.981v31.37C154.641,68.885,71.234,152.938,71.234,256.474z"/>
	<path style="fill:#91DC5A;" d="M440.767,255.525c0-63.848-31.723-120.288-80.265-154.418c-8.554-6.015-9.01-18.512-0.793-24.979
		l0.231-0.182c5.366-4.224,12.889-4.504,18.478-0.579c56.669,39.798,93.709,105.657,93.709,180.158
		c0,120.846-97.457,218.949-218.061,219.981v-31.37C357.359,443.114,440.767,359.06,440.767,255.525z"/>
</g>
<path style="fill:#5EAC24;" d="M323.525,56.644l-22.86,15.641l-0.711,0.491l-34.065,23.291c-3.525,2.413-8.321-0.11-8.321-4.386
	V12.836c0-4.276,4.796-6.809,8.321-4.396l57.637,39.423C326.61,49.975,326.61,54.531,323.525,56.644z"/>
<path style="fill:#6DC82A;" d="M299.954,72.776l-34.065,23.291c-3.525,2.413-8.321-0.11-8.321-4.386V43.777L299.954,72.776z"/>
<path style="fill:#5EAC24;" d="M188.452,464.187l22.86,15.641l0.711,0.491l34.065,23.291c3.525,2.413,8.321-0.11,8.321-4.386
	v-78.845c0-4.276-4.796-6.809-8.321-4.396l-57.637,39.423C185.368,457.518,185.368,462.074,188.452,464.187z"/>
<path style="fill:#6DC82A;" d="M212.024,480.318l34.065,23.291c3.525,2.413,8.321-0.11,8.321-4.386V451.32L212.024,480.318z"/>
<path style="fill:#7ED63E;" d="M381.378,291.58H130.622c-8.827,0-15.983-7.156-15.983-15.983V173.81
	c0-8.827,7.156-15.983,15.983-15.983h250.756c8.827,0,15.983,7.156,15.983,15.983v101.788
	C397.362,284.424,390.205,291.58,381.378,291.58z"/>
<path style="fill:#5EAC24;" d="M345.246,174.8H166.755c-3.223,0-6.138,2.056-7.081,5.138c-2.978,9.727-11.06,17.226-21.121,19.371
	c-3.447,0.735-5.921,3.761-5.921,7.286v36.218c0,3.525,2.473,6.551,5.921,7.286c10.061,2.145,18.143,9.643,21.121,19.371
	c0.943,3.082,3.858,5.138,7.081,5.138h178.492c3.223,0,6.138-2.056,7.081-5.138c2.978-9.727,11.06-17.226,21.121-19.371
	c3.447-0.735,5.921-3.761,5.921-7.286v-36.218c0-3.525-2.473-6.551-5.921-7.286c-10.061-2.145-18.143-9.643-21.121-19.371
	C351.385,176.856,348.47,174.8,345.246,174.8z"/>
<rect x="214.536" y="157.83" style="fill:#FFC477;" width="82.93" height="133.748"/>
<rect x="214.536" y="291.578" style="fill:#FF9811;" width="82.93" height="62.593"/>
<rect x="228.715" y="157.83" style="fill:#FFDAAA;" width="68.752" height="133.748"/>
<rect x="228.715" y="291.578" style="fill:#FFA733;" width="68.752" height="62.593"/>
<path d="M207.025,330.389v16.272h-12.897c-4.146,0-7.51,3.364-7.51,7.51c0,4.156,3.364,7.51,7.51,7.51c44.782,0,151.543,0,187.249,0
	c12.957,0,23.491-10.534,23.491-23.491c0-54.599,0-109.467,0-164.379c0-12.957-10.534-23.491-23.491-23.491h-83.912
	c-20.03,0-146.411,0-166.842,0c-12.957,0-23.491,10.534-23.491,23.491c0,17.951,0,146.983,0,164.379
	c0,12.957,10.534,23.491,23.491,23.491h33.465c4.146,0,7.51-3.354,7.51-7.51c0-4.146-3.364-7.51-7.51-7.51h-33.465
	c-4.676,0-8.471-3.795-8.471-8.471v-9.393C129.268,331.594,127.794,329.848,207.025,330.389z M304.976,282.114h40.274
	c6.619,0,12.346-4.196,14.259-10.444c2.203-7.21,8.151-12.657,15.511-14.229c6.869-1.462,11.866-7.62,11.866-14.629v-36.218
	c0-7.009-4.997-13.168-11.866-14.629c-1.552-0.33-3.064-0.841-4.486-1.512c-3.755-1.772-8.231-0.17-10.003,3.585
	c-1.772,3.745-0.17,8.221,3.585,9.993c2.473,1.172,5.087,2.053,7.75,2.563l0.02,36.158c-12.637,2.694-22.84,12.016-26.686,24.342
	h-40.224v-84.783c23.728,0,16.516,0,40.284,0c3.888,1.564,8.241-0.326,9.783-4.156c1.552-3.845-0.31-8.221-4.156-9.773
	c-1.802-0.721-3.695-1.091-5.638-1.091h-40.274v-1.953h76.402c4.676,0,8.471,3.795,8.471,8.471c0,12.825,0,91.401,0,101.786
	c0,4.676-3.795,8.471-8.471,8.471h-76.402L304.976,282.114L304.976,282.114z M304.976,299.087
	c79.062-0.539,77.724,1.219,84.873-1.592v9.403c0,4.666-3.795,8.471-8.471,8.471h-76.402
	C304.976,310.908,304.976,301.311,304.976,299.087z M304.976,330.389c79.062-0.539,77.724,1.219,84.873-1.592v9.393
	c0,4.676-3.795,8.471-8.471,8.471h-76.402L304.976,330.389L304.976,330.389z M222.045,165.339h67.91c0,12.977,0,105.989,0,118.728
	h-67.91C222.045,271.328,222.045,178.325,222.045,165.339z M222.045,299.087h67.91c0,21.568,0,25.288,0,47.573h-67.91
	C222.045,324.35,222.045,320.643,222.045,299.087z M122.152,214.504v-31.302v-9.393c0-4.676,3.795-8.471,8.471-8.471h76.402v1.953
	h-40.013c-4.156,0-7.51,3.364-7.51,7.51c0,4.146,3.354,7.51,7.51,7.51h40.013v84.783h-40.224
	c-3.845-12.326-14.059-21.649-26.666-24.282l-0.02-36.158c3.995-0.851,7.79-2.373,11.275-4.526
	c3.535-2.173,4.626-6.799,2.453-10.334c-2.183-3.525-6.809-4.626-10.334-2.443c-2.023,1.242-4.216,2.123-6.519,2.613
	c-6.879,1.462-11.876,7.62-11.876,14.629v36.218c0,7.009,4.997,13.168,11.866,14.629c7.36,1.572,13.308,7.019,15.511,14.229
	c1.913,6.248,7.64,10.444,14.259,10.444h40.274v1.953h-76.402c-4.676,0-8.471-3.795-8.471-8.471
	C122.152,275.596,122.152,214.504,122.152,214.504z M122.152,297.495c7.115,2.798,5.642,1.052,84.873,1.592
	c0,2.224,0,11.828,0,16.282h-76.402c-4.676,0-8.471-3.805-8.471-8.471C122.152,306.897,122.152,297.495,122.152,297.495z"/>
<circle cx="138.024" cy="177.206" r="5.914"/>
<circle cx="373.979" cy="177.206" r="5.914"/>
<circle cx="138.024" cy="272.202" r="5.914"/>
<circle cx="373.979" cy="272.202" r="5.914"/>
<path d="M275.557,192.595h-39.112c-4.156,0-7.51,3.364-7.51,7.51c0,4.156,3.354,7.51,7.51,7.51h39.112c4.156,0,7.51-3.354,7.51-7.51
	C283.067,195.96,279.712,192.595,275.557,192.595z"/>
<path d="M275.557,230.155h-39.112c-4.156,0-7.51,3.364-7.51,7.51s3.354,7.51,7.51,7.51h39.112c4.156,0,7.51-3.364,7.51-7.51
	S279.712,230.155,275.557,230.155z"/>
<path d="M155.818,404.748c-48.261-33.931-77.075-89.36-77.075-148.274c0-96.341,76.345-175.925,171.692-180.855v16.057
	c0,4.772,2.621,9.119,6.843,11.345c4.209,2.222,9.28,1.942,13.227-0.758l57.632-39.423c3.498-2.392,5.585-6.348,5.586-10.585
	c0-4.237-2.088-8.196-5.585-10.589L270.505,2.245c-3.938-2.693-9.007-2.984-13.228-0.759c-4.221,2.227-6.842,6.574-6.842,11.346
	V29.18C129.141,34.101,32.365,133.85,32.365,256.473c0,74.045,36.225,143.691,96.901,186.304c8.247,5.791,19.528,5.403,27.443-0.826
	l0.227-0.179c5.764-4.536,8.956-11.339,8.759-18.665C165.495,415.713,161.896,409.02,155.818,404.748z M265.455,16.988
	l51.556,35.266l-51.556,35.267V16.988z M147.416,430.152c-2.775,2.185-6.689,2.322-9.517,0.334
	c-56.678-39.804-90.515-104.855-90.515-174.012c0-113.625,90.404-207.302,203.041-212.272v16.363
	c-103.82,4.887-186.702,90.501-186.702,195.909c0,63.798,31.199,123.821,83.456,160.561c2.154,1.516,3.431,3.877,3.501,6.479
	C150.8,427.939,147.497,430.051,147.416,430.152z"/>
<path d="M382.734,69.222c-8.212-5.768-19.496-5.429-27.443,0.826l-0.227,0.179c-5.764,4.536-8.956,11.339-8.759,18.665
	c0.199,7.395,3.799,14.087,9.876,18.36c48.261,33.931,77.075,89.36,77.075,148.274c0,96.341-76.345,175.925-171.692,180.855v-16.057
	c0-4.772-2.621-9.119-6.843-11.345c-4.221-2.229-9.289-1.938-13.227,0.758l-57.632,39.423c-7.443,5.09-7.441,16.083-0.001,21.174
	l57.633,39.422c3.944,2.699,9.015,2.981,13.228,0.759c4.221-2.227,6.842-6.574,6.842-11.346v-16.349
	c121.295-4.921,218.07-104.669,218.07-227.293C479.636,181.48,443.411,111.834,382.734,69.222z M246.546,495.011l-51.556-35.266
	l51.556-35.267V495.011z M261.575,467.798v-16.363c49.174-2.315,95.065-22.7,129.911-57.876
	c86.38-87.197,71.62-229.494-26.666-298.594c-2.154-1.516-3.431-3.877-3.501-6.479c-0.119-4.426,3.184-6.539,3.265-6.639
	c2.775-2.185,6.69-2.322,9.517-0.334c56.677,39.804,90.515,104.855,90.515,174.012C464.616,369.15,374.212,462.828,261.575,467.798z
	"/>
<g>
</g>
<g>
</g>
<g>
</g>
<g>
</g>
<g>
</g>
<g>
</g>
<g>
</g>
<g>
</g>
<g>
</g>
<g>
</g>
<g>
</g>
<g>
</g>
<g>
</g>
<g>
</g>
<g>
</g>
</svg>
