<?xml version="1.0" encoding="iso-8859-1"?>
<!-- Generator: Adobe Illustrator 19.0.0, SVG Export Plug-In . SVG Version: 6.00 Build 0)  -->
<svg version="1.1" id="Capa_1" xmlns="http://www.w3.org/2000/svg" xmlns:xlink="http://www.w3.org/1999/xlink" x="0px" y="0px"
	 viewBox="0 0 512 512" style="enable-background:new 0 0 512 512;" xml:space="preserve">
<path style="fill:#CC7400;" d="M504.995,362.955v2.252c0,19.295-15.792,35.076-35.086,35.076H202.477
	c-19.295,0-35.076-15.782-35.076-35.076v-2.252c0-15.802,10.588-29.252,25.019-33.605c3.192-0.961,6.565-1.481,10.058-1.481h267.432
	C489.204,327.869,504.995,343.661,504.995,362.955z"/>
<path style="fill:#EE8700;" d="M504.995,362.955v1.821c-3.192,0.961-6.575,1.481-10.068,1.481H227.496
	c-19.295,0-35.076-15.782-35.076-35.076v-1.831c3.192-0.961,6.565-1.481,10.058-1.481h267.432
	C489.204,327.869,504.995,343.661,504.995,362.955z"/>
<path style="fill:#CC7400;" d="M504.995,434.509v2.252c0,19.295-15.792,35.076-35.086,35.076H202.477
	c-19.295,0-35.076-15.782-35.076-35.076v-2.252c0-15.802,10.588-29.252,25.019-33.605c3.192-0.961,6.565-1.481,10.058-1.481h267.432
	C489.204,399.423,504.995,415.215,504.995,434.509z"/>
<path style="fill:#EE8700;" d="M504.995,434.509v1.821c-3.192,0.961-6.575,1.481-10.068,1.481H227.496
	c-19.295,0-35.076-15.782-35.076-35.076v-1.831c3.192-0.961,6.565-1.481,10.058-1.481h267.432
	C489.204,399.423,504.995,415.215,504.995,434.509z"/>
<path style="fill:#CC7400;" d="M504.995,291.401v2.252c0,19.295-15.792,35.076-35.086,35.076H202.477
	c-19.295,0-35.076-15.782-35.076-35.076v-2.252c0-15.802,10.588-29.252,25.019-33.605c3.192-0.961,6.565-1.481,10.058-1.481h267.432
	C489.204,256.316,504.995,272.107,504.995,291.401z"/>
<path style="fill:#FF9811;" d="M504.995,291.401v1.821c-3.192,0.961-6.575,1.481-10.068,1.481H227.496
	c-19.295,0-35.076-15.782-35.076-35.076v-1.831c3.192-0.961,6.565-1.481,10.058-1.481h267.432
	C489.204,256.316,504.995,272.107,504.995,291.401z"/>
<path style="fill:#EE8700;" d="M504.995,220.097v2.252c0,19.295-15.792,35.076-35.086,35.076H202.477
	c-19.295,0-35.076-15.782-35.076-35.076v-2.252c0-15.802,10.588-29.252,25.019-33.605c3.192-0.961,6.565-1.481,10.058-1.481h267.432
	C489.204,185.012,504.995,200.804,504.995,220.097z"/>
<path style="fill:#FF9811;" d="M504.995,220.097v1.821c-3.192,0.961-6.575,1.481-10.068,1.481H227.496
	c-19.295,0-35.076-15.782-35.076-35.076v-1.831c3.192-0.961,6.565-1.481,10.058-1.481h267.432
	C489.204,185.012,504.995,200.804,504.995,220.097z"/>
<path style="fill:#EE8700;" d="M479.475,149.294v2.252c0,19.295-15.792,35.076-35.086,35.076H176.957
	c-19.295,0-35.076-15.782-35.076-35.076v-2.252c0-15.802,10.588-29.252,25.019-33.605c3.192-0.961,6.565-1.481,10.058-1.481h267.432
	C463.683,114.207,479.475,129.999,479.475,149.294z"/>
<path style="fill:#FF9811;" d="M479.475,149.294v1.821c-3.192,0.961-6.575,1.481-10.068,1.481H201.976
	c-19.295,0-35.076-15.782-35.076-35.076v-1.831c3.192-0.961,6.565-1.481,10.058-1.481h267.432
	C463.683,114.207,479.475,129.999,479.475,149.294z"/>
<path style="fill:#EE8700;" d="M457.459,77.74v2.252c0,19.295-15.792,35.076-35.086,35.076H154.941
	c-19.295,0-35.076-15.782-35.076-35.076V77.74c0-15.802,10.588-29.252,25.019-33.605c3.192-0.961,6.565-1.481,10.058-1.481h267.432
	C441.667,42.653,457.459,58.445,457.459,77.74z"/>
<path style="fill:#FF9811;" d="M457.459,77.74v1.821c-3.192,0.961-6.575,1.481-10.068,1.481H179.959
	c-19.295,0-35.076-15.782-35.076-35.076v-1.831c3.192-0.961,6.565-1.481,10.058-1.481h267.432
	C441.667,42.653,457.459,58.445,457.459,77.74z"/>
<path style="fill:#CC7400;" d="M177.367,473.208h-28.642c-38.089,1.631-73.175-12.63-98.845-36.908
	c-87.518-82.712-31.165-228.613,87.276-233.706h37.718l0.34,37.468l0.14,15.011l1.531,166.215l0.14,15.011L177.367,473.208z"/>
<path style="fill:#FFC477;" d="M318.494,342.56c-2.332,70.083-58.344,127.606-129.578,130.648
	C114.19,476.41,51.022,418.417,47.82,343.69c-0.02-0.38-0.03-0.751-0.04-1.131c-2.562-74.246,55.222-136.793,129.568-139.966
	c74.736-3.202,137.904,54.791,141.096,129.528C318.594,335.624,318.604,339.107,318.494,342.56z"/>
<path style="fill:#FFA733;" d="M318.494,342.56c-2.332,70.083-58.344,127.606-129.578,130.648
	C114.19,476.41,51.022,418.417,47.82,343.69c-0.02-0.38-0.03-0.751-0.04-1.131L318.494,342.56L318.494,342.56z"/>
<path style="fill:#CC7400;" d="M205.539,436.741c-2.502,0.57-5.004,1.041-7.496,1.401c-51.969,7.786-101.947-25.749-113.746-77.839
	c-12.379-54.581,21.846-108.862,76.428-121.241c12.7-2.872,25.379-3.232,37.518-1.401c40.06,6.045,74.236,35.937,83.723,77.839
	C294.346,370.08,260.13,424.361,205.539,436.741z"/>
<path style="fill:#EE8700;" d="M205.539,436.741c-2.502,0.57-5.004,1.041-7.496,1.401c-40.06-6.055-74.236-35.947-83.723-77.839
	c-12.379-54.581,21.846-108.862,76.428-121.241c2.502-0.57,4.994-1.041,7.496-1.401c40.06,6.045,74.236,35.937,83.723,77.839
	C294.346,370.08,260.13,424.361,205.539,436.741z"/>
<path d="M250.603,252.482c-47.28-37.305-115.76-29.136-152.885,17.944c-16.684,21.141-24.868,47.788-23.268,73.736
	c0.24,4.133,3.803,7.296,7.936,7.045c4.133-0.24,7.296-3.793,7.045-7.926c-3.019-54.902,40.155-99.245,93.791-99.245
	c44.073,0,81.672,30.073,91.429,73.115c11.406,50.158-19.327,100.605-70.773,112.265c-6.855,1.561-13.87,2.352-20.836,2.352
	c-39.109,0-74.456-24.659-87.946-61.356c-1.431-3.893-5.744-5.884-9.637-4.453c-3.893,1.431-5.884,5.744-4.453,9.637
	c18.455,50.196,71.98,80.753,126.195,68.462C297.167,423.683,321.43,308.343,250.603,252.482z"/>
<path d="M181.961,388.254c-13.71,0-19.395-6.135-23.157-10.188c-1.911-2.052-3.413-3.673-5.384-3.673
	c-3.403,0-6.435,4.243-6.435,7.586c0,6.605,10.988,16.913,28.932,19.054v9.337c0,3.983,3.242,7.215,7.215,7.215
	c3.983,0,7.215-3.232,7.215-7.215v-9.477c18.404-2.662,28.932-15.472,28.932-35.277c0-26.4-17.403-32.795-32.755-38.439
	c-12.67-4.654-22.677-8.336-22.677-21.336c0-6.855,2.702-11.829,8.046-14.781c4.734-2.622,10.628-3.172,14.751-3.172
	c9.687,0,15.141,2.812,18.744,4.664c1.901,0.981,3.272,1.681,4.623,1.681c4.113,0,6.265-4.934,6.265-7.586
	c0-7.305-15.512-10.858-25.93-11.489v-9.727c0-3.983-3.232-7.215-7.215-7.215c-3.973,0-7.215,3.232-7.215,7.215v10.648
	c-12.019,2.362-25.92,9.667-25.92,30.773c0,21.826,15.051,27.481,29.612,32.955c13.86,5.204,25.819,9.697,25.819,26.81
	C205.429,380.568,197.092,388.254,181.961,388.254z"/>
<path d="M512,221.088v-2.252c0-21.309-15.748-39.013-36.211-42.103c20.814-23.261,10.944-64.306-21.969-72.061
	c23.974-26.258,7.458-73.527-31.447-73.527H154.945c-23.483,0-42.588,19.105-42.588,42.588v2.252
	c0,20.122,14.033,37.018,32.823,41.445c-22.238,24.355-10.111,67.751,25.08,73.05c-1.301,1.454-2.516,2.986-3.61,4.608
	c-8.781,1.534-76.102-11.477-129.007,46.145c-25.819,28.131-39.14,64.629-37.508,102.777
	c3.373,79.029,70.641,140.182,148.752,136.703c53.62,0.022,319.253,0.13,319.391,0.13c24.108,0,43.723-19.615,43.723-43.713
	c0-15.041-7.636-28.321-19.224-36.187c25.606-17.403,25.634-54.995,0-72.395C504.364,320.673,512,307.393,512,292.352
	c0-14.871-7.466-28.031-18.844-35.927C504.514,248.769,512,235.789,512,221.088z M408.58,46.157h13.792
	c15.205,0,27.577,12.371,27.577,27.577v2.252c0,14.78-11.688,26.877-26.306,27.544H408.58V46.157z M415.251,118.573v57.373h-40.03
	v-57.373H415.251z M353.538,46.157h40.03v57.373h-40.03V46.157z M326.07,336.065h4.451v57.353h-15.65
	C322.674,374.755,326.423,354.434,326.07,336.065z M325.109,321.023c-2.328-19.798-8.906-39.401-19.837-57.343h25.249v57.343
	H325.109z M294.778,248.639c-0.981-1.201-2.873-3.5-4.285-5.104v-52.269h40.028v57.373H294.778z M209.434,175.947v-57.373h40.692
	v57.373H209.434z M219.779,191.265v8.456c-10.422-2.752-21.066-4.311-31.694-4.694c5.273-3.089,9.989-3.709,15.373-3.763H219.779z
	 M234.791,191.265h40.691v37.488c-12.419-10.544-26.214-18.575-40.691-24.163L234.791,191.265L234.791,191.265z M265.138,175.947
	v-57.373h40.03v57.373H265.138z M320.179,175.947v-57.373h40.03v57.373H320.179z M298.497,46.157h40.03v57.373h-40.03V46.157z
	 M243.455,46.157h40.03v57.373h-40.03V46.157z M187.752,46.157h40.692v57.373h-40.692V46.157z M127.368,75.986v-2.252
	c0-15.205,12.37-27.577,27.577-27.577h17.796v57.405h-17.796C139.739,103.561,127.368,91.191,127.368,75.986z M149.05,148.369
	v-2.252c0-14.78,11.688-26.878,26.306-27.545h19.066v57.373h-17.796C161.42,175.947,149.05,163.576,149.05,148.369z M60.499,240.062
	c15.141-12.82,32.885-21.826,52.039-26.47c-12.527,7.144-23.876,16.078-33.645,26.47l0,0H60.499
	C60.498,240.062,60.499,240.062,60.499,240.062z M26.234,285.366c4.884-10.838,11.329-21.026,19.224-30.292h21.116
	c-6.665,9.367-12.179,19.525-16.402,30.292c0,0.001-0.001,0.002-0.001,0.004H26.233C26.233,285.368,26.233,285.367,26.234,285.366z
	 M20.578,300.381h24.619c-2.713,10.009-4.305,20.175-4.833,30.295H15.205C15.766,320.311,17.577,310.156,20.578,300.381z
	 M15.255,345.692c0-0.001,0-0.003,0-0.004h25.129c0,0.001,0,0.003,0,0.004c0.54,10.278,2.192,20.424,4.924,30.292H20.799
	C17.787,366.346,15.886,356.199,15.255,345.692z M45.998,421.289c-7.826-9.067-14.401-19.245-19.455-30.293v-0.001h23.838v0.001
	c6.838,17.019,16.609,30.19,16.674,30.294H45.999L45.998,421.289z M61.271,436.301h18.154c9.687,10.237,20.755,18.913,32.883,25.818
	C93.324,457.426,75.932,448.48,61.271,436.301z M260.26,449.48c2.542,3.272,7.255,3.873,10.538,1.331
	c1.591-1.231,3.152-2.502,4.684-3.803v18.824h-29.522c2.173-2.174,2.872-5.554,1.491-8.496c-1.771-3.753-6.235-5.364-9.988-3.603
	C144.299,497.56,36.804,417.228,57.647,313.037c13.29-67.381,76.928-112.004,144.869-101.587
	c58.004,8.907,100.326,54.721,107.491,109.573h-0.06c0.112,0.112,1.043,8.167,1.101,15.011c0.01,0.01,0.01,0.02,0,0.03
	c0.518,16.834-3.836,37-9.047,49.147c0,0.01-0.01,0.02-0.01,0.03c-1.008,2.59-2.875,6.742-3.583,8.156c0,0.01-0.01,0.01-0.01,0.02
	s-0.01,0.02-0.01,0.03c-2.845,5.826-5.371,10.172-8.526,14.981c0,0.103-10.293,16.567-28.271,30.523
	C258.319,441.494,257.718,446.208,260.26,449.48z M330.523,465.832h-40.03v-33.555c5.938-6.677,12.139-15.249,16.963-23.818h23.067
	V465.832z M385.561,465.832h-40.028v-57.373h40.028V465.832z M385.561,393.418h-40.03v-57.353h40.03V393.418z M385.561,321.023
	h-40.03V263.68h40.03V321.023z M385.561,248.639h-40.03v-57.373h40.03V248.639z M440.603,465.832h-40.03v-57.373h40.03V465.832z
	 M440.603,393.418h-40.03v-57.353h40.03V393.418z M440.603,321.023h-40.03V263.68h40.03V321.023z M440.603,248.639h-40.03v-57.373
	h40.03V248.639z M430.262,175.947v-57.405h13.792c15.205,0,27.578,12.371,27.578,27.577v2.252c0,15.205-12.371,27.577-27.578,27.577
	H430.262z M496.988,437.131c0,15.822-12.88,28.702-28.712,28.702h-12.662v-57.373c13.956,0,13.007,0.007,13.492-0.01
	C484.559,408.88,496.988,421.579,496.988,437.131z M496.988,364.746c0,15.61-12.633,28.672-28.712,28.672h-12.662v-57.353
	c13.956,0,13.007,0.007,13.492-0.01C484.559,336.495,496.988,349.195,496.988,364.746z M496.988,292.352
	c0,15.591-12.591,28.672-28.712,28.672h-12.662V263.68h13.762h0.03C484.719,264.271,496.988,276.91,496.988,292.352z
	 M496.988,221.088c0,15.121-12.229,27.431-27.311,27.571c-0.47-0.01-0.931-0.02-1.401-0.02h-12.662v-57.373h13.792
	c15.201,0,27.581,12.369,27.581,27.571V221.088z"/>
<g>
</g>
<g>
</g>
<g>
</g>
<g>
</g>
<g>
</g>
<g>
</g>
<g>
</g>
<g>
</g>
<g>
</g>
<g>
</g>
<g>
</g>
<g>
</g>
<g>
</g>
<g>
</g>
<g>
</g>
</svg>
