<?xml version="1.0" encoding="iso-8859-1"?>
<!-- Generator: Adobe Illustrator 19.0.0, SVG Export Plug-In . SVG Version: 6.00 Build 0)  -->
<svg version="1.1" id="Layer_1" xmlns="http://www.w3.org/2000/svg" xmlns:xlink="http://www.w3.org/1999/xlink" x="0px" y="0px"
	 viewBox="0 0 512 512" style="enable-background:new 0 0 512 512;" xml:space="preserve">
<path style="fill:#FEBD4B;" d="M253.844,51.2h154.139c11.906,0,21.558,9.651,21.558,21.558v150.905
	c0,11.906-9.651,21.558-21.558,21.558H251.681h-65.736H29.642c-11.906,0-21.558-9.651-21.558-21.558V72.758
	c0-11.906,9.651-21.558,21.558-21.558H184.83H253.844z"/>
<path style="fill:#FEF184;" d="M315.823,148.211c0,53.578-43.433,97.011-97.011,97.011s-97.011-43.433-97.011-97.011
	S165.235,51.2,218.813,51.2S315.823,94.633,315.823,148.211z"/>
<path style="fill:#81BC82;" d="M482.358,126.653v150.905c0,11.906-9.651,21.558-21.558,21.558H304.498h-65.736H82.459
	c-11.906,0-21.558-9.651-21.558-21.558V126.653c0-11.906,9.651-21.558,21.558-21.558h155.188h69.014H460.8
	C472.706,105.095,482.358,114.746,482.358,126.653z"/>
<path style="fill:#ACE5AC;" d="M368.483,202.308c0,53.491-43.363,96.853-96.853,96.853s-96.853-43.363-96.853-96.853
	s43.363-96.854,96.853-96.854S368.483,148.816,368.483,202.308z"/>
<path style="fill:#FED76E;" d="M503.916,353.01c0,62.507-50.672,113.179-113.179,113.179S277.558,415.518,277.558,353.01
	s50.672-113.179,113.179-113.179S503.916,290.503,503.916,353.01z"/>
<path style="fill:#FEAF50;" d="M471.579,353.01c0,44.647-36.195,80.842-80.842,80.842s-80.842-36.195-80.842-80.842
	s36.195-80.842,80.842-80.842S471.579,308.363,471.579,353.01z"/>
<path d="M271.629,261.389c4.465,0,8.084-3.62,8.084-8.084v-2.695h2.695c16.345,0,29.642-13.297,29.642-29.642
	s-13.297-29.642-29.642-29.642h-2.695v-26.947h13.474c4.465,0,8.084-3.62,8.084-8.084c0-4.465-3.62-8.084-8.084-8.084h-13.474
	v-2.695c0-4.465-3.62-8.084-8.084-8.084s-8.084,3.62-8.084,8.084v2.695h-2.695c-16.345,0-29.642,13.297-29.642,29.642
	s13.297,29.642,29.642,29.642h2.695v26.947h-13.474c-4.465,0-8.084,3.62-8.084,8.084c0,4.465,3.62,8.084,8.084,8.084h13.474v2.695
	C263.545,257.77,267.165,261.389,271.629,261.389z M279.714,207.495h2.695c7.43,0,13.474,6.044,13.474,13.474
	s-6.044,13.474-13.474,13.474h-2.695V207.495z M260.851,191.326c-7.43,0-13.474-6.044-13.474-13.474
	c0-7.43,6.044-13.474,13.474-13.474h2.695v26.947H260.851z M350.722,351.185c-1.578,1.578-3.648,2.368-5.716,2.368
	s-4.138-0.789-5.716-2.368c-3.157-3.157-3.157-8.276,0-11.432l15.244-15.244c3.157-3.157,8.276-3.157,11.432,0
	c3.157,3.157,3.157,8.276,0,11.432L350.722,351.185z M438.434,191.326c4.465,0,8.084,3.62,8.084,8.084
	c0,4.465-3.62,8.084-8.084,8.084h-31.798c-4.465,0-8.084-3.62-8.084-8.084c0-4.465,3.62-8.084,8.084-8.084H438.434z
	 M144.707,199.411c0,4.465-3.62,8.084-8.084,8.084h-31.798c-4.465,0-8.084-3.62-8.084-8.084c0-4.465,3.62-8.084,8.084-8.084h31.798
	C141.088,191.326,144.707,194.946,144.707,199.411z M430.751,321.733l-68.597,68.597c-1.578,1.578-3.648,2.368-5.716,2.368
	s-4.138-0.789-5.716-2.368c-3.157-3.157-3.157-8.276,0-11.432l68.597-68.597c3.157-3.157,8.276-3.157,11.432,0
	C433.909,313.458,433.909,318.577,430.751,321.733z M476.482,264.57c-22.903-22.904-53.356-35.518-85.745-35.518
	s-62.842,12.614-85.745,35.518c-7.228,7.228-13.429,15.21-18.535,23.766h-14.826c-49.035,0-88.926-39.892-88.926-88.926
	s39.892-88.926,88.926-88.926s88.926,39.892,88.926,88.926c0,3.249-0.177,6.519-0.525,9.72c-0.483,4.439,2.724,8.428,7.163,8.911
	c4.446,0.477,8.428-2.724,8.911-7.163c0.411-3.78,0.62-7.638,0.62-11.469c0-37.401-19.642-70.296-49.149-88.926H460.8
	c7.43,0,13.474,6.044,13.474,13.474v113.179c0,4.465,3.62,8.084,8.084,8.084s8.084-3.62,8.084-8.084V123.958
	c0-16.345-13.297-29.642-29.642-29.642H310.598c-8.746-15.664-21.104-28.509-35.726-37.726h133.111
	c7.43,0,13.474,6.044,13.474,13.474c0,4.465,3.62,8.084,8.084,8.084c4.465,0,8.084-3.62,8.084-8.084
	c0-16.345-13.297-29.642-29.642-29.642H29.642C13.297,40.421,0,53.718,0,70.063v150.905c0,16.345,13.297,29.642,29.642,29.642
	c4.465,0,8.084-3.62,8.084-8.084c0-4.465-3.62-8.084-8.084-8.084c-7.43,0-13.474-6.044-13.474-13.474V70.063
	c0-7.43,6.044-13.474,13.474-13.474h132.98c-14.573,9.208-26.863,22.049-35.596,37.726H82.459
	c-16.345,0-29.642,13.297-29.642,29.642v150.905c0,16.345,13.297,29.642,29.642,29.642h195.936
	c-5.851,14.352-8.922,29.845-8.922,45.811c0,32.391,12.614,62.842,35.518,85.745c22.903,22.904,53.356,35.518,85.745,35.518
	s62.842-12.614,85.745-35.518C499.386,413.158,512,382.706,512,350.316S499.386,287.473,476.482,264.57z M218.813,56.589
	c29.237,0,56.177,14.213,72.718,37.726H146.077C162.584,70.765,189.395,56.589,218.813,56.589z M82.459,288.337
	c-7.43,0-13.474-6.044-13.474-13.474V123.958c0-7.43,6.044-13.474,13.474-13.474h133.225c-29.506,18.63-49.149,51.526-49.149,88.926
	s19.642,70.296,49.149,88.926H82.459z M465.05,424.629c-19.851,19.851-46.242,30.781-74.313,30.781
	c-28.072,0-54.463-10.932-74.313-30.781c-19.85-19.849-30.781-46.242-30.781-74.313c0-28.072,10.932-54.463,30.781-74.313
	c19.849-19.85,46.242-30.781,74.313-30.781c28.072,0,54.463,10.932,74.313,30.781c19.85,19.849,30.781,46.242,30.781,74.313
	C495.832,378.387,484.9,404.779,465.05,424.629z M453.617,287.436c-34.673-34.673-91.089-34.672-125.761,0
	c-34.673,34.673-34.673,91.089,0,125.761c17.336,17.336,40.108,26.004,62.88,26.004s45.544-8.668,62.88-26.004
	C488.29,378.523,488.29,322.108,453.617,287.436z M442.185,401.764c-28.367,28.368-74.527,28.368-102.896,0
	c-28.368-28.368-28.368-74.528,0-102.896c14.184-14.184,32.816-21.276,51.448-21.276s37.264,7.093,51.448,21.276
	C470.553,327.236,470.553,373.396,442.185,401.764z M442.184,366.428l-15.244,15.244c-1.578,1.578-3.648,2.368-5.716,2.368
	s-4.138-0.789-5.716-2.368c-3.157-3.157-3.157-8.276,0-11.432l15.244-15.244c3.157-3.157,8.276-3.157,11.432,0
	C445.342,358.152,445.342,363.271,442.184,366.428z"/>
<g>
</g>
<g>
</g>
<g>
</g>
<g>
</g>
<g>
</g>
<g>
</g>
<g>
</g>
<g>
</g>
<g>
</g>
<g>
</g>
<g>
</g>
<g>
</g>
<g>
</g>
<g>
</g>
<g>
</g>
</svg>
