<?xml version="1.0" encoding="iso-8859-1"?>
<!-- Generator: Adobe Illustrator 19.0.0, SVG Export Plug-In . SVG Version: 6.00 Build 0)  -->
<svg version="1.1" id="Capa_1" xmlns="http://www.w3.org/2000/svg" xmlns:xlink="http://www.w3.org/1999/xlink" x="0px" y="0px"
	 viewBox="0 0 512 512" style="enable-background:new 0 0 512 512;" xml:space="preserve">
<path style="fill:#4E901E;" d="M370.359,59.872l-24.18,69.18L292.788,281.8c-2.737,7.819-11.28,11.934-19.089,9.207l-90.09-31.496
	c-7.819-2.727-11.934-11.27-9.207-19.089l77.582-221.928c2.727-7.819,11.28-11.934,19.089-9.207l75.106,26.253l14.983,5.243
	C368.971,43.51,373.096,52.053,370.359,59.872z"/>
<path style="fill:#47821C;" d="M346.179,35.541v93.511L292.788,281.8c-2.737,7.819-11.28,11.934-19.089,9.207l-90.09-31.496
	c-7.819-2.727-11.934-11.27-9.207-19.089l77.582-221.928c2.727-7.819,11.28-11.934,19.089-9.207L346.179,35.541z"/>
<path style="fill:#7ED63E;" d="M318.648,22.53v235.11c0,8.271-6.712,14.983-14.983,14.983h-95.433
	c-8.271,0-14.983-6.712-14.983-14.983V22.53c0-3.582,1.258-6.873,3.361-9.449c2.747-3.381,6.933-5.534,11.622-5.534h95.433
	C311.937,7.547,318.648,14.259,318.648,22.53z"/>
<circle style="fill:#4E901E;" cx="255.95" cy="150.153" r="42.104"/>
<path style="fill:#AA6100;" d="M372.151,427.546c0,37.382-41.629,70.538-99.106,76.083c-5.555,0.543-11.26,0.825-17.096,0.825
	c-79.031,0-134.968-51.248-110.315-101.068l47.213-95.433l-38.59-104.751c-4.78-11.793,9.429-22.963,24.271-18.998
	c2.898,0.775,6.098,1.459,9.992,1.912c3.24,0.382,6.953,0.604,11.371,0.604h0.402c6.219-0.02,11.039-0.493,15.094-1.208
	c13.967-2.455,18.907-7.829,40.492-7.829c21.644,0,26.555,5.404,40.612,7.849c4.065,0.714,8.895,1.177,15.114,1.187h0.262
	c9.801,0,16.16-1.107,21.504-2.546c14.802-3.995,29.01,7.165,24.291,18.938l-36.96,105.063l45.915,95.916
	C370.38,411.949,372.151,419.838,372.151,427.546z"/>
<path style="fill:#CC7400;" d="M372.151,427.546c0,37.382-41.629,70.538-99.106,76.083c-69.743-6.742-116.031-54.106-93.199-100.243
	l47.213-95.433l-38.59-104.751c-1.338-3.301-1.187-9.69,0.05-17.086c3.24,0.382,6.953,0.604,11.371,0.604h0.402
	c6.219-0.02,11.039-0.493,15.094-1.208c13.967-2.455,18.907-7.829,40.492-7.829c21.644,0,26.555,5.404,40.612,7.849
	c4.065,0.714,8.895,1.177,15.114,1.187h0.262c9.801,0,16.16-1.107,21.504-2.546c14.802-3.995,29.01,7.165,24.291,18.938
	l-36.96,105.063l45.915,95.916C370.38,411.949,372.151,419.838,372.151,427.546z"/>
<path style="fill:#663A00;" d="M346.884,308.375c0,5.424-2.224,10.364-5.796,13.947c-3.582,3.572-8.523,5.796-13.947,5.796H184.757
	c-10.857,0-19.743-8.885-19.743-19.743c0-5.424,2.224-10.364,5.796-13.947c3.582-3.572,8.523-5.796,13.947-5.796h142.384
	c9.318,0,17.177,6.541,19.219,15.255C346.703,305.326,346.884,306.836,346.884,308.375z"/>
<g>
	<path style="fill:#884D00;" d="M346.36,303.887H204.972c-9.318,0-17.177-6.541-19.219-15.255h141.388
		C336.459,288.633,344.318,295.173,346.36,303.887z"/>
	<circle style="fill:#884D00;" cx="255.95" cy="416.286" r="58.36"/>
</g>
<path style="fill:#6DC82A;" d="M318.648,52.697v20.105c-16.352,6.42-35.812,21.031-42.494,31.596
	c-2.747,4.347-10.173,4.739-11.743-0.161c-13.846-43.359-49.206-72.39-70.367-86.497c0.564-1.711,1.449-3.29,2.566-4.659
	c1.61-1.982,3.713-3.542,6.128-4.498C235.844,19.38,290.644,38.147,318.648,52.697z"/>
<path style="fill:#4E901E;" d="M318.648,22.53v40.2l-0.316,0.027c-12.991,0.664-35.708,16.143-42.258,26.508
	c-2.093,3.311-7.748,3.612-8.946-0.121c-15.476-48.481-66.302-73.432-66.302-73.432l-4.247-2.593c0.01-0.01,0.022-0.027,0.032-0.036
	c2.747-3.381,6.933-5.534,11.622-5.534h95.433C311.937,7.547,318.648,14.259,318.648,22.53z"/>
<path style="fill:#5EAC24;" d="M318.648,62.73l-0.316,0.027c-12.991,0.664-35.708,16.143-42.258,26.508
	c-2.093,3.311-7.748,3.612-8.946-0.121c-15.476-48.481-66.302-73.432-66.302-73.432l-4.247-2.593
	C198.34,13.652,310.93,48.26,318.648,62.73z"/>
<path d="M248.661,398.856c0-5.136,4.049-6.563,9.196-6.563c7.351,0,9.218,3.451,12.714,3.451c4.253,0,6.606-4.336,6.606-7.333
	c0-6.38-9.091-8.48-14.1-9.151v-2.388c0-3.93-3.198-7.128-7.127-7.128c-3.93,0-7.128,3.198-7.128,7.128v3.28
	c-9.112,2.693-14.1,9.465-14.1,19.248c0,14.093,10.084,17.881,18.186,20.926c8.081,3.036,11.965,4.797,11.965,11.587
	c0,5.84-3.038,8.56-9.559,8.56c-10.508,0-9.799-7.538-15.529-7.538c-3.772,0-6.699,3.941-6.699,7.333
	c0,5.564,6.895,11.172,15.736,13.073v2.368c0,3.93,3.198,7.128,7.128,7.128c3.93,0,7.127-3.198,7.127-7.128v-2.526
	c10.03-2.52,15.735-10.37,15.735-21.815C278.812,403.815,248.661,410.955,248.661,398.856z"/>
<path d="M373.429,400.84l-32.894-68.707c21.316-12.03,17.184-43.846-6.37-50.131c31.534-79.926,31.958-76.849,31.958-83.529
	c0-13.75-14.006-23.597-28.306-22.61l39.666-113.505c4.096-11.668-2.001-24.572-13.836-28.698l-37.553-13.132
	C325.088,9.046,315.418,0,303.665,0h-95.433c-12.427,0-22.53,10.113-22.53,22.53v155.546c-5.402-0.949-7.652-2.234-13.343-2.234
	c-18.088,0-31.142,15.193-25.096,30.188l30.781,75.891c-11.813,2.999-20.578,13.725-20.578,26.454
	c0,10.525,5.997,19.692,14.762,24.23l-33.367,67.429c-9.841,19.894-8.714,41.397,3.18,60.546
	C161.432,491.815,206.15,512,255.949,512C338.899,512,400.175,456.685,373.429,400.84z M326.195,36.557l32.472,11.35
	c3.891,1.352,5.922,5.595,4.568,9.469l-37.04,105.978V36.557z M303.665,15.094c4.105,0,7.436,3.341,7.436,7.436
	c0,8.022,0,25.712,0,33.911c-13.504,3.663-30.308,15.064-38.65,25.066c-10.61-27.743-33.403-50.652-58.705-66.412
	C231.304,15.094,286.649,15.094,303.665,15.094z M200.796,24.985c25.546,14.619,50.14,38.174,59.147,66.453
	c1.358,4.256,5.031,7.265,9.6,7.849c4.977,0.645,10.213-1.72,12.91-5.987c4.206-6.641,18.002-16.774,28.648-21.01v106.874
	c-5.776-0.04-10.203-0.483-13.927-1.187c24.567-36.505-7.473-86.318-52.204-76.254c-34.638,7.852-49.413,47.62-30.228,76.223
	c-4.529,0.864-9.45,1.218-13.947,1.218L200.796,24.985L200.796,24.985z M281.337,173.498c-15.398-4.505-35.338-4.54-50.816-0.03
	c-18.388-19.917-7.357-51.314,17.79-57.024C280.998,109.02,304.314,148.501,281.337,173.498z M160.868,198.503
	c0-4.39,7.344-9.246,15.708-7.004c6.75,1.823,14.868,2.959,25.75,2.737l10.244,32.16c1.026,3.21,3.995,5.263,7.195,5.263
	c5.061,0,8.746-4.951,7.195-9.841l-9.268-29.061c14.239-2.716,18.37-7.527,38.187-7.527c19.671,0,23.921,4.812,38.258,7.547
	l-3.351,10.304c-1.598,4.879,2.059,9.891,7.175,9.891c3.18,0,6.138-2.023,7.175-5.212l4.407-13.514
	c19.193,0.376,24.601-3.351,30.016-3.351c6.311,0,13.113,4.332,11.099,9.408c-0.158,0.393-32.313,80.613-32.381,80.782
	c-24.553,0-98.69,0-124.282,0C193.395,279.616,160.868,199.866,160.868,198.503z M183.841,296.22
	c0.605-0.06,143.643-0.081,144.608,0.03c6.108,0.654,10.888,5.846,10.888,12.125c0,4.186-2.123,7.879-5.343,10.083
	c-1.952,1.328-4.317,2.113-6.853,2.113H184.757c-2.113,0-4.105-0.543-5.836-1.489c-3.783-2.073-6.359-6.098-6.359-10.707
	C172.561,301.966,177.542,296.683,183.841,296.22z M255.949,496.906c-71.814,0-125.872-45.117-103.553-90.17l35.158-71.071h137.947
	l34.313,71.685C381.357,452.404,327.223,496.906,255.949,496.906z"/>
<path d="M227.13,272.07c2.273,7.108,12.469,6.946,14.46-0.282c0.845-3.004-0.469-5.068-0.845-6.712l-4.619-14.5
	c-1.268-3.975-5.514-6.168-9.489-4.9c-3.965,1.268-6.158,5.514-4.9,9.489C228.11,275.114,224.963,265.279,227.13,272.07z"/>
<path d="M255.949,350.386c-36.346,0-65.909,29.564-65.909,65.909c0,36.336,29.564,65.899,65.909,65.899s65.909-29.564,65.909-65.899
	C321.858,379.95,292.295,350.386,255.949,350.386z M255.949,467.101c-28.024,0-50.816-22.792-50.816-50.806
	c0-28.024,22.792-50.816,50.816-50.816c28.014,0,50.816,22.792,50.816,50.816C306.764,444.31,283.963,467.101,255.949,467.101z"/>
<path d="M277.07,277.071c3.18,0,6.138-2.023,7.175-5.212c8.281-25.424,10.726-32.924,11.346-34.83
	c0.001-0.002,0.006-0.017,0.017-0.053c-0.004,0.013-0.009,0.027-0.013,0.04c0.008-0.023,0.024-0.073,0.043-0.134
	c0,0.001,0,0.001-0.001,0.002c0-0.001,0.001-0.002,0.001-0.003v0.001c0.005-0.017,0.011-0.034,0.016-0.05
	c-0.002,0.007-0.004,0.013-0.007,0.02c0.023-0.072,0.056-0.172,0.098-0.299c-0.003,0.009-0.006,0.019-0.009,0.029
	c0.009-0.027,0.016-0.048,0.022-0.066c0-0.001,0.001-0.002,0.001-0.002l0,0c0.001-0.004,0.003-0.008,0.004-0.012
	c0.004-0.013,0.007-0.02,0.009-0.028c0.001-0.004,0.003-0.01,0.004-0.013l0,0l0,0c1.298-3.955-0.875-8.221-4.83-9.509
	c-3.965-1.288-8.231,0.875-9.519,4.84c-0.002,0.005-0.003,0.009-0.005,0.014c-0.004,0.011-0.007,0.021-0.01,0.032
	c-0.003,0.008-0.005,0.016-0.008,0.024c0.001-0.002,0.001-0.004,0.002-0.006c-0.024,0.074-0.071,0.218-0.126,0.385
	c0.033-0.101,0.06-0.184,0.08-0.249c-0.041,0.128-0.076,0.235-0.111,0.34c0.003-0.01,0.006-0.02,0.01-0.03
	c-0.012,0.037-0.027,0.083-0.04,0.125c-0.001,0.004-0.003,0.008-0.004,0.012l0,0c0,0.001-0.001,0.003-0.001,0.004
	c-0.01,0.032-0.02,0.061-0.03,0.092c-0.009,0.027-0.018,0.056-0.027,0.085c-0.009,0.027-0.016,0.05-0.024,0.075
	c0.005-0.016,0.011-0.032,0.016-0.048c-0.014,0.044-0.029,0.089-0.044,0.137c0.008-0.023,0.015-0.046,0.023-0.07
	c-0.017,0.053-0.033,0.102-0.047,0.146c-0.001,0.002-0.002,0.005-0.002,0.007c-0.018,0.056-0.034,0.106-0.048,0.148
	c-0.001,0.002-0.001,0.004-0.002,0.007c-0.008,0.024-0.016,0.05-0.025,0.076c-0.004,0.012-0.009,0.028-0.013,0.039
	c0.002-0.005,0.004-0.012,0.005-0.017c-0.003,0.008-0.006,0.017-0.008,0.025c0.001-0.002,0.002-0.006,0.003-0.008
	c-0.004,0.011-0.006,0.019-0.009,0.028c0.002-0.006,0.004-0.011,0.006-0.019c-0.954,2.93-3.759,11.541-11.091,34.045
	C268.305,272.037,271.925,277.071,277.07,277.071z"/>
<path d="M266.262,134.513c-10.62,0-14.68,6.615-16.554,10.946l-0.063-0.028l-1.426,3.88c-2.05,5.577-2.6,5.825-4.194,5.825
	c-1.379,0-1.75-0.464-2.014-0.94c-0.867-1.568-1.143-5.295,0.612-8.706c0.501-0.973,1.069-2.077,1.069-3.545
	c0-6.456-11.897-11.512-14.602,3.331h-0.102c-3.678,0-6.67,2.993-6.67,6.67s2.993,6.67,6.67,6.67h0.956
	c2.325,6.152,7.516,9.644,14.453,9.644c10.882,0,13.958-8.186,15.993-13.603c2.047-5.449,2.789-7.02,6.245-7.02
	c2.506,0,4.059,0.794,4.059,4.743c0,6.256-5.155,5.63-5.155,10.622c0,3.649,3.595,6.376,6.811,6.376
	c3.824,0,8.431-3.689,10.361-10.762h0.199c3.678,0,6.671-2.993,6.671-6.67s-2.994-6.67-6.671-6.67h-0.381
	C280.245,138.412,274.4,134.513,266.262,134.513z"/>
<g>
</g>
<g>
</g>
<g>
</g>
<g>
</g>
<g>
</g>
<g>
</g>
<g>
</g>
<g>
</g>
<g>
</g>
<g>
</g>
<g>
</g>
<g>
</g>
<g>
</g>
<g>
</g>
<g>
</g>
</svg>
