<?xml version="1.0" encoding="iso-8859-1"?>
<!-- Generator: Adobe Illustrator 19.0.0, SVG Export Plug-In . SVG Version: 6.00 Build 0)  -->
<svg version="1.1" id="Layer_1" xmlns="http://www.w3.org/2000/svg" xmlns:xlink="http://www.w3.org/1999/xlink" x="0px" y="0px"
	 viewBox="0 0 512 512" style="enable-background:new 0 0 512 512;" xml:space="preserve">
<path style="fill:#517A51;" d="M300.005,215.201h126.253c13.124,0,23.763,10.639,23.763,23.763v166.343
	c0,13.124-10.639,23.763-23.763,23.763h-96.301h-72.461H85.203c-13.124,0-23.763-10.639-23.763-23.763V238.964
	c0-13.124,10.639-23.763,23.763-23.763h171.063H300.005z"/>
<path style="fill:#81BC82;" d="M278.447,284.105h169.907c13.124,0,23.763,10.639,23.763,23.763v166.343
	c0,13.124-10.639,23.763-23.763,23.763H276.062H203.6H31.309c-13.124,0.001-23.763-10.639-23.763-23.762V307.868
	c0-13.124,10.639-23.763,23.763-23.763h171.063H278.447z"/>
<path style="fill:#ACE5AC;" d="M347.082,391.04c0,59.232-48.018,107.251-107.251,107.251S132.581,450.272,132.581,391.04
	s48.018-107.251,107.251-107.251S347.082,331.807,347.082,391.04z"/>
<path style="fill:#FE5A3A;" d="M504.455,44.463v345.6c0,20.092-16.287,36.379-36.379,36.379H249.802
	c-20.092,0-36.379-16.287-36.379-36.379v-345.6c0-20.092,16.287-36.379,36.379-36.379h218.274
	C488.168,8.084,504.455,24.371,504.455,44.463z"/>
<path style="fill:#FE7D49;" d="M318.306,426.442h-68.503c-20.092,0-36.379-16.287-36.379-36.379v-345.6
	c0-20.092,16.287-36.379,36.379-36.379h68.503V426.442z"/>
<path style="fill:#FEAF50;" d="M361.421,276.281v84.743c0,6.364-5.159,11.523-11.523,11.523h-63.185
	c-6.364,0-11.523-5.159-11.523-11.523v-84.743c0-6.364,5.159-11.523,11.523-11.523h63.185
	C356.261,264.758,361.421,269.917,361.421,276.281z"/>
<path style="fill:#FED76E;" d="M318.306,372.547h-31.593c-6.364,0-11.523-5.159-11.523-11.523v-84.743
	c0-6.364,5.159-11.523,11.523-11.523h31.593V372.547z"/>
<path style="fill:#FEE66B;" d="M334.474,313.263v10.779c0,8.929-7.239,16.168-16.168,16.168l0,0
	c-8.929,0-16.168-7.239-16.168-16.168v-10.779c0-8.929,7.239-16.168,16.168-16.168l0,0
	C327.235,297.095,334.474,304.334,334.474,313.263z"/>
<path d="M273.915,79.175c9.117-15.807,26.074-25.627,44.255-25.627c18.179,0,35.137,9.82,44.256,25.627
	c2.23,3.867,0.904,8.811-2.964,11.042c-1.272,0.734-2.661,1.082-4.031,1.082c-2.795,0-5.512-1.451-7.011-4.046
	c-6.239-10.817-17.831-17.537-30.249-17.537s-24.009,6.72-30.249,17.537c-2.231,3.869-7.176,5.193-11.042,2.964
	C273.011,87.986,271.684,83.042,273.915,79.175z M61.863,267.058c4.466,0,8.084-3.618,8.084-8.084v-17.056
	c0-8.66,7.011-15.706,15.627-15.706h95.177c4.466,0,8.084-3.618,8.084-8.084c0-4.466-3.618-8.084-8.084-8.084H85.574
	c-17.533,0-31.796,14.299-31.796,31.874v17.056C53.778,263.439,57.397,267.058,61.863,267.058z M310.086,126.378v1.08
	c0,4.466,3.618,8.084,8.084,8.084c4.466,0,8.084-3.618,8.084-8.084v-1.08c0-4.466-3.618-8.084-8.084-8.084
	C313.704,118.294,310.086,121.913,310.086,126.378z M56.397,402.251h34.974c4.466,0,8.084-3.618,8.084-8.084
	s-3.618-8.084-8.084-8.084H56.397c-4.466,0-8.084,3.618-8.084,8.084S51.932,402.251,56.397,402.251z M329.779,108.838
	c1.498,2.593,4.215,4.043,7.008,4.043c1.371,0,2.763-0.349,4.035-1.084c3.868-2.232,5.191-7.177,2.959-11.043
	c-5.283-9.149-15.097-14.833-25.612-14.833s-20.327,5.683-25.611,14.833c-2.232,3.866-0.909,8.811,2.959,11.043
	c3.864,2.23,8.81,0.908,11.043-2.959c2.403-4.162,6.851-6.749,11.609-6.749C322.926,102.09,327.376,104.675,329.779,108.838z
	 M436.48,324.403c-4.466,0-8.084,3.618-8.084,8.084v43.165c0,4.466,3.618,8.084,8.084,8.084s8.084-3.618,8.084-8.084v-43.165
	C444.565,328.022,440.946,324.403,436.48,324.403z M369.277,279.251v84.89c0,10.805-8.79,19.596-19.596,19.596h-63.023
	c-10.804,0-19.595-8.79-19.595-19.596v-84.89c0-10.804,8.79-19.595,19.595-19.595h63.023
	C360.487,259.657,369.277,268.448,369.277,279.251z M310.086,275.826h-23.427c-1.89,0-3.427,1.537-3.427,3.427v84.89
	c0,1.89,1.537,3.428,3.427,3.428h23.427v-17.593c-9.398-3.335-16.133-12.301-16.133-22.811v-10.933
	c0-10.517,6.742-19.488,16.133-22.818V275.826z M326.219,316.231c0-4.428-3.603-8.031-8.031-8.031h-0.035
	c-4.428,0-8.031,3.603-8.031,8.031v10.933c0,4.428,3.603,8.031,8.031,8.031c4.464,0,8.066-3.603,8.066-8.031V316.231z
	 M353.109,279.251c0-1.89-1.538-3.427-3.428-3.427h-23.427v17.587c9.391,3.33,16.134,12.301,16.134,22.818v10.933
	c0,10.517-6.743,19.488-16.134,22.818v17.587h23.427c1.89,0,3.428-1.538,3.428-3.428V279.251z M512,47.118v346.151
	c0,24.495-19.928,44.423-44.423,44.423H249.855c-24.495,0-44.423-19.928-44.423-44.423v-92.055
	c-38.51,14.215-64.597,51.036-64.597,92.893c0,54.606,44.425,99.032,99.032,99.032c31.134,0,59.841-14.211,78.76-38.989
	c2.71-3.546,7.781-4.231,11.332-1.519c3.548,2.71,4.229,7.783,1.519,11.332c-9.113,11.933-20.175,21.758-32.584,29.175h149.045
	c8.617,0,15.627-7.045,15.627-15.706v-19.725c0-4.466,3.618-8.084,8.084-8.084s8.084,3.618,8.084,8.084v19.724
	c0,17.576-14.263,31.874-31.796,31.874H31.796C14.263,509.305,0,495.006,0,477.431V310.901c0-17.576,14.263-31.874,31.796-31.874
	h173.636V47.118c0-24.495,19.928-44.423,44.423-44.423h217.722C492.072,2.695,512,22.623,512,47.118z M180.689,295.194H31.796
	c-8.617,0-15.627,7.045-15.627,15.706V477.43c0,8.661,7.011,15.706,15.627,15.706h149.266
	c-33.742-20.112-56.394-56.976-56.394-99.032C124.666,352.718,146.594,315.566,180.689,295.194z M495.832,47.118
	c0-15.58-12.675-28.255-28.255-28.255H249.855c-15.58,0-28.255,12.675-28.255,28.255v243.023c0.001,0.08,0.001,0.16,0,0.24v102.887
	c0,15.58,12.675,28.255,28.255,28.255h217.722c15.58,0,28.255-12.675,28.255-28.255V47.118z M436.48,54.627
	c-4.466,0-8.084,3.618-8.084,8.084v43.165c0,4.466,3.618,8.084,8.084,8.084s8.084-3.618,8.084-8.084V62.711
	C444.565,58.245,440.946,54.627,436.48,54.627z M436.48,234.478c-4.466,0-8.084,3.618-8.084,8.084v43.164
	c0,4.466,3.618,8.084,8.084,8.084s8.084-3.618,8.084-8.084v-43.164C444.565,238.097,440.946,234.478,436.48,234.478z
	 M436.48,144.552c-4.466,0-8.084,3.618-8.084,8.084v43.164c0,4.466,3.618,8.084,8.084,8.084s8.084-3.618,8.084-8.084v-43.164
	C444.565,148.172,440.946,144.552,436.48,144.552z"/>
<g>
</g>
<g>
</g>
<g>
</g>
<g>
</g>
<g>
</g>
<g>
</g>
<g>
</g>
<g>
</g>
<g>
</g>
<g>
</g>
<g>
</g>
<g>
</g>
<g>
</g>
<g>
</g>
<g>
</g>
</svg>
