<?xml version="1.0" encoding="iso-8859-1"?>
<!-- Generator: Adobe Illustrator 19.0.0, SVG Export Plug-In . SVG Version: 6.00 Build 0)  -->
<svg version="1.1" id="Capa_1" xmlns="http://www.w3.org/2000/svg" xmlns:xlink="http://www.w3.org/1999/xlink" x="0px" y="0px"
	 viewBox="0 0 512 512" style="enable-background:new 0 0 512 512;" xml:space="preserve">
<path style="fill:#FF5023;" d="M171.541,203.975l-85.697,43.168c0,0-0.846-19.102-3.715-40.764
	c-1.311-9.856-3.034-20.237-5.284-29.598c-4.974-20.661,15.604-38.535,35.356-30.671c12.312,4.902,24.881,12.116,35.862,22.735
	C157.403,177.876,165.607,189.362,171.541,203.975z"/>
<path style="fill:#FF3501;" d="M171.541,203.975l-85.697,43.168c0,0-0.846-19.102-3.715-40.764
	c14.242-21.693,38.339-36.326,65.934-37.534C157.403,177.876,165.607,189.362,171.541,203.975z"/>
<g>
	<path style="fill:#FF6243;" d="M149.261,398.455v85.47c0,4.706-1.176,9.154-3.271,13.065c-4.696,8.854-14.035,14.923-24.727,14.923
		c-15.387,0-27.988-12.59-27.988-27.988v-85.47c0-12.89,10.547-23.447,23.447-23.447h9.092
		C138.703,375.008,149.261,385.565,149.261,398.455z"/>
	<path style="fill:#FF6243;" d="M364.937,398.455v85.47c0,15.397-12.601,27.988-27.988,27.988c-9.845,0-18.545-5.139-23.529-12.879
		c-2.828-4.365-4.469-9.556-4.469-15.108v-85.47c0-12.89,10.557-23.447,23.447-23.447h9.092
		C354.391,375.008,364.937,385.565,364.937,398.455z"/>
</g>
<g>
	<path style="fill:#FF5023;" d="M149.261,398.455v85.47c0,4.706-1.176,9.154-3.271,13.065c-20.124-6.254-38.07-15.841-52.714-28.597
		v-69.938c0-12.89,10.547-23.447,23.447-23.447h9.092C138.703,375.008,149.261,385.565,149.261,398.455z"/>
	<path style="fill:#FF5023;" d="M364.937,398.455v76.543c-14.768,10.857-32.24,18.906-51.517,24.035
		c-2.828-4.365-4.469-9.556-4.469-15.108v-85.47c0-12.89,10.557-23.447,23.447-23.447h9.092
		C354.391,375.008,364.937,385.565,364.937,398.455z"/>
</g>
<path style="fill:#FF3501;" d="M494.414,325.56c-7.276,0-14.078-4.55-16.604-11.81c-0.806-2.314-3.255-9.356-15.252-14.263
	c-5.244-2.146-11.04-3.233-17.23-3.233h-70.466c-9.71,0-17.581-7.871-17.581-17.581s7.871-17.581,17.581-17.581h70.466
	c10.778,0,21.054,1.969,30.544,5.85c17.455,7.141,29.609,19.332,35.148,35.257c3.19,9.17-1.658,19.191-10.829,22.381
	C498.279,325.244,496.33,325.56,494.414,325.56z"/>
<path style="fill:#FF5023;" d="M17.785,288.102C6.852,292.625,0,301.575,0,311.334v22.303c0,10.408,7.784,19.83,19.836,24.01
	l59.913,29.991V262.47L17.785,288.102z"/>
<path style="fill:#FF7956;" d="M413.854,338.021c0,18.555-3.333,35.253-9.422,50.01c-7.792,18.865-20.093,34.572-35.717,46.945
	c-27.843,22.074-66.264,33.571-108.525,33.571h-53.891c-84.52,0-153.664-46.006-153.664-130.527
	c0-38.679,14.489-74.149,38.308-101.239c2.198-2.508,4.479-4.933,6.832-7.286c27.843-27.854,66.264-45.14,108.525-45.14h53.891
	C344.71,184.357,413.854,253.511,413.854,338.021z"/>
<path style="fill:#FF9478;" d="M413.854,338.021c0,18.555-3.333,35.253-9.422,50.01c-3.736,3.849-7.74,7.461-11.981,10.826
	c-27.843,22.074-66.264,33.571-108.525,33.571h-53.891c-84.52,0-153.664-46.006-153.664-130.527
	c0-23.241,5.232-45.315,14.572-65.119c2.198-2.508,4.479-4.933,6.832-7.286c27.843-27.854,66.264-45.14,108.525-45.14h53.891
	C344.71,184.357,413.854,253.511,413.854,338.021z"/>
<ellipse style="fill:#FF3501;" cx="141.559" cy="288.433" rx="14.695" ry="14.669"/>
<path style="fill:#FF5023;" d="M306.207,247.567c0,6.811-5.573,12.384-12.384,12.384H172.739c-6.811,0-12.384-5.573-12.384-12.384
	c0-1.641,0.32-3.21,0.918-4.644c1.837-4.53,6.295-7.74,11.465-7.74h121.084c5.17,0,9.629,3.21,11.465,7.74
	C305.887,244.357,306.207,245.926,306.207,247.567z"/>
<path style="fill:#FF6243;" d="M305.288,242.923c-1.837,4.53-6.295,7.74-11.465,7.74H172.739c-5.17,0-9.629-3.21-11.465-7.74
	c1.837-4.53,6.295-7.74,11.465-7.74h121.084C298.993,235.183,303.451,238.392,305.288,242.923z"/>
<circle style="fill:none;stroke:#000000;stroke-width:15;stroke-linecap:round;stroke-linejoin:round;stroke-miterlimit:10;stroke-dasharray:305,30;" cx="249.64" cy="83.065" r="62.209"/>
<path style="fill:#CC7400;" d="M246.277,166.069h-17.555c-22.419,0.963-43.142-7.068-58.688-20.891
	c-4.29-3.8-8.183-8.048-11.603-12.667c-3.471-4.678-6.469-9.736-8.9-15.115c-1.841-4.054-3.369-8.284-4.543-12.667
	c-1.309-4.864-2.187-9.913-2.584-15.106c-0.085-0.979-0.143-1.968-0.186-2.956c-0.143-3.277-0.085-6.519,0.152-9.711
	c0.372-5.176,1.233-10.226,2.534-15.106c1.149-4.374,2.651-8.605,4.476-12.667c2.398-5.354,5.354-10.42,8.799-15.106
	c3.369-4.602,7.212-8.849,11.45-12.667c13.84-12.48,31.936-20.384,51.999-21.246h23.129l1.216,133.148l0.101,10.994L246.277,166.069
	z"/>
<g>
	<path style="fill:#AA6100;" d="M194.268,21.411h-24.64c-4.239,3.816-8.081,8.064-11.45,12.667h24.648
		C186.196,29.476,190.03,25.228,194.268,21.411z"/>
	<path style="fill:#AA6100;" d="M174.028,49.184h-24.648c-1.824,4.062-3.327,8.292-4.476,12.667h24.64
		C170.7,57.476,172.204,53.246,174.028,49.184z"/>
	<path style="fill:#AA6100;" d="M167.053,89.615c-0.085-0.979-0.143-1.959-0.186-2.947c-0.143-3.277-0.085-6.519,0.152-9.703
		c-0.051-0.008-0.109-0.008-0.161-0.008H142.37c-0.236,3.192-0.295,6.434-0.152,9.711c0.042,0.988,0.101,1.976,0.186,2.956h24.454
		C166.926,89.624,166.985,89.624,167.053,89.615z"/>
	<path style="fill:#AA6100;" d="M169.636,104.73h-24.648c1.173,4.383,2.702,8.613,4.543,12.667h24.648
		C172.331,113.343,170.811,109.113,169.636,104.73z"/>
	<path style="fill:#AA6100;" d="M183.08,132.511h-24.648c3.42,4.619,7.313,8.867,11.603,12.667h24.64
		C190.384,141.378,186.499,137.131,183.08,132.511z"/>
</g>
<path style="fill:#FFC477;" d="M332.778,86.119c-1.494,42.905-35.812,78.084-79.417,79.95c-45.809,1.959-84.535-33.59-86.494-79.401
	c-0.008-0.186-0.017-0.363-0.017-0.549c-1.656-45.582,33.793-84.002,79.416-85.954c45.809-1.959,84.535,33.59,86.494,79.409
	C332.855,81.778,332.863,83.957,332.778,86.119z"/>
<path style="fill:#CC7400;" d="M263.553,143.709c-1.013,0.228-2.019,0.43-3.031,0.608c-32.417,5.708-63.939-15.013-71.303-47.465
	c-7.583-33.465,13.392-66.734,46.857-74.325c8.326-1.883,16.643-2.009,24.555-0.608c23.88,4.238,44.07,22.326,49.77,47.465
	C317.993,102.847,297.018,136.125,263.553,143.709z"/>
<path style="fill:#EE8700;" d="M263.553,143.709c-1.013,0.228-2.019,0.43-3.031,0.608c-23.872-4.239-44.07-22.334-49.77-47.465
	c-7.583-33.465,13.392-66.734,46.857-74.325c1.005-0.228,2.019-0.43,3.023-0.608c23.88,4.238,44.07,22.326,49.77,47.465
	C317.993,102.847,297.018,136.125,263.553,143.709z"/>
<path style="fill:#884D00;" d="M254.051,75.542l0.001-0.002l-1.579-0.581c-8.407-3.09-12.794-5.004-12.794-11.491
	c0-3.591,1.329-6.073,4.064-7.586c2.584-1.43,5.898-1.731,8.222-1.731c5.534,0,8.529,1.542,10.721,2.67
	c1.325,0.682,2.372,1.221,3.609,1.221c3.557,0,5.525-3.751,5.525-6.344c0-6.365-11.431-8.145-15.892-8.597v-4.408
	c0-3.37-2.742-6.113-6.113-6.113c-3.372,0-6.113,2.742-6.113,6.113v5.169c-10.262,2.505-15.892,9.639-15.892,20.221
	c0,14.552,10.228,18.395,19.252,21.786c8.552,3.214,14.731,5.535,14.731,14.858c0,9.562-6.904,11.569-12.696,11.569
	c-7.672,0-10.73-3.295-12.962-5.701c-1.332-1.437-2.591-2.795-4.541-2.795c-3.118,0-5.628,3.471-5.628,6.344
	c0,5.106,7.062,11.403,17.735,13.146v4.257c0,3.37,2.742,6.113,6.113,6.113c3.372,0,6.113-2.742,6.113-6.113v-4.385
	c11.293-2.212,17.734-10.536,17.734-23.049C273.661,83.699,263.169,78.943,254.051,75.542z"/>
<path style="fill:#FFA733;" d="M332.778,86.119c-1.494,42.905-35.812,78.084-79.417,79.95c-45.809,1.959-84.535-33.59-86.494-79.401
	c-0.008-0.186-0.017-0.363-0.017-0.549h20.891c0.178,3.555,0.667,7.143,1.478,10.733c7.591,33.465,40.87,54.448,74.334,46.857
	c27.84-6.308,47.034-30.39,48.326-57.589C311.879,86.119,332.778,86.119,332.778,86.119z"/>
<g>
</g>
<g>
</g>
<g>
</g>
<g>
</g>
<g>
</g>
<g>
</g>
<g>
</g>
<g>
</g>
<g>
</g>
<g>
</g>
<g>
</g>
<g>
</g>
<g>
</g>
<g>
</g>
<g>
</g>
</svg>
