<?xml version="1.0" encoding="iso-8859-1"?>
<!-- Generator: Adobe Illustrator 19.0.0, SVG Export Plug-In . SVG Version: 6.00 Build 0)  -->
<svg version="1.1" id="Layer_1" xmlns="http://www.w3.org/2000/svg" xmlns:xlink="http://www.w3.org/1999/xlink" x="0px" y="0px"
	 viewBox="0 0 512 512" style="enable-background:new 0 0 512 512;" xml:space="preserve">
<path style="fill:#FED76E;" d="M379.713,121.263c0,62.507-50.672,113.179-113.179,113.179S153.355,183.77,153.355,121.263
	S204.027,8.084,266.534,8.084S379.713,58.756,379.713,121.263z"/>
<path style="fill:#FEAF50;" d="M347.376,121.263c0,44.647-36.195,80.842-80.842,80.842s-80.842-36.195-80.842-80.842
	s36.195-80.842,80.842-80.842S347.376,76.616,347.376,121.263z"/>
<path style="fill:#FE9D5E;" d="M147.965,482.358c0,11.906,9.651,21.558,21.558,21.558h32.337c11.906,0,21.558-9.651,21.558-21.558
	v-32.337l-75.453-9.917V482.358z M309.65,450.021v32.337c0,11.906,9.651,21.558,21.558,21.558h32.337
	c11.906,0,21.558-9.651,21.558-21.558v-42.253L309.65,450.021z"/>
<path style="fill:#FE7D49;" d="M433.614,245.221c16.915,22.519,26.941,50.509,26.941,80.842l0,0
	c0,74.414-60.323,134.737-134.737,134.737H207.25c-74.414,0-134.737-60.323-134.737-134.737l0,0
	c0-30.333,10.027-58.323,26.942-80.842H85.816c-15.364,0-23.059-18.576-12.195-29.442l55.375-55.375
	c6.736-6.735,17.655-6.735,24.39,0l32.598,32.598c6.928-1.098,14.03-1.676,21.267-1.676h118.568c7.237,0,14.338,0.578,21.267,1.676
	l32.597-32.598c6.735-6.735,17.655-6.735,24.39,0l55.375,55.375c10.864,10.864,3.17,29.442-12.195,29.442H433.614z"/>
<path style="fill:#FE9D5E;" d="M451.551,277.558c-19.473,50.444-68.42,86.232-125.733,86.232H207.25
	c-57.313,0-106.259-35.787-125.733-86.232c19.473-50.444,68.42-86.232,125.733-86.232h118.568
	C383.131,191.326,432.078,227.113,451.551,277.558z"/>
<path style="fill:#FEDEB1;" d="M320.429,369.179L320.429,369.179c0,20.836-16.891,37.726-37.726,37.726h-32.337
	c-20.836,0-37.726-16.891-37.726-37.726l0,0c0-20.836,16.891-37.726,37.726-37.726h32.337
	C303.538,331.453,320.429,348.343,320.429,369.179z"/>
<path d="M148.537,121.263C148.537,54.398,202.73,0,269.343,0s120.805,54.398,120.805,121.263c0,4.465-3.618,8.084-8.084,8.084
	c-4.466,0-8.084-3.62-8.084-8.084c0-57.95-46.94-105.095-104.637-105.095c-57.698,0-104.638,47.145-104.638,105.095
	c0,4.465-3.618,8.084-8.084,8.084C152.155,129.347,148.537,125.728,148.537,121.263z M336.805,166.142
	c3.954,2.08,8.84,0.563,10.92-3.387c6.684-12.695,10.217-27.043,10.217-41.492c0-49.035-39.745-88.926-88.599-88.926
	c-48.855,0-88.6,39.892-88.6,88.926c0,14.446,3.532,28.794,10.217,41.492c1.448,2.75,4.254,4.32,7.162,4.32
	c1.269,0,2.557-0.3,3.758-0.932c3.952-2.079,5.468-6.969,3.389-10.919c-5.466-10.384-8.356-22.128-8.356-33.96
	c0-40.119,32.493-72.758,72.431-72.758s72.43,32.639,72.43,72.758c0,11.834-2.89,23.578-8.356,33.959
	C331.338,159.173,332.854,164.062,336.805,166.142z M293.464,142.821c0-7.43-6.005-13.474-13.386-13.474h-2.651v13.833
	c0,4.465-3.618,8.084-8.084,8.084c-4.466,0-8.084-3.62-8.084-8.084v-13.833h-2.652c-16.297,0-29.555-13.297-29.555-29.642
	s13.258-29.642,29.555-29.642h2.652v-2.695c0-4.465,3.618-8.084,8.084-8.084c4.466,0,8.084,3.62,8.084,8.084v2.695h13.386
	c4.466,0,8.084,3.62,8.084,8.084s-3.618,8.084-8.084,8.084h-13.386v26.947h2.651c16.297,0,29.555,13.297,29.555,29.642
	s-13.258,29.642-29.555,29.642h-32.206c-4.466,0-8.084-3.62-8.084-8.084c0-4.465,3.618-8.084,8.084-8.084h32.206
	C287.459,156.295,293.464,150.251,293.464,142.821z M261.259,113.179V86.232h-2.652c-7.381,0-13.386,6.044-13.386,13.474
	c0,7.43,6.005,13.474,13.386,13.474H261.259z M450.772,253.241c12.628,21.267,19.891,46.075,19.891,72.55v0.545
	c0,54.235-30.449,101.489-75.148,125.577v30.445c0,16.345-13.258,29.642-29.555,29.642h-32.206
	c-16.297,0-29.555-13.297-29.555-29.642v-13.474h-69.715v13.474c0,16.345-13.258,29.642-29.555,29.642h-32.206
	c-16.297,0-29.555-13.297-29.555-29.642v-30.445c-10.537-5.678-20.281-12.646-29.021-20.687
	c-5.408,15.324-19.991,26.335-37.095,26.335c-21.694,0-39.342-17.706-39.342-39.469c0-10.385,3.988-20.191,11.23-27.611
	c3.116-3.196,8.235-3.258,11.431-0.139c3.196,3.118,3.257,8.237,0.139,11.432c-4.276,4.382-6.631,10.177-6.631,16.318
	c0,12.849,10.396,23.301,23.174,23.301c12.778,0,23.175-10.452,23.175-23.301c0-0.494,0.051-0.974,0.136-1.443
	c-20.2-24.605-32.342-56.067-32.342-90.311v-0.545c0-26.466,7.259-51.264,19.875-72.525c-9.918-0.404-18.374-6.274-22.226-15.55
	c-4.01-9.653-1.923-20.244,5.446-27.642l55.149-55.375c4.773-4.791,11.12-7.431,17.873-7.431c6.754,0,13.102,2.639,17.875,7.43
	l29.674,29.795c6.18-0.821,12.482-1.253,18.883-1.253h117.544c6.178,0,12.266,0.397,18.24,1.163l29.584-29.705
	c4.774-4.791,11.121-7.431,17.875-7.431c0,0,0,0,0.001,0c6.753,0,13.1,2.639,17.873,7.431l55.15,55.375
	c7.367,7.397,9.454,17.988,5.444,27.64C468.522,246.769,460.381,252.59,450.772,253.241z M99.028,237.137
	c18.547-23.287,44.216-40.655,73.684-48.782l-22.154-22.245c-1.716-1.722-3.995-2.672-6.418-2.672c-2.422,0-4.701,0.949-6.417,2.672
	l-55.15,55.375c-4.018,4.033-2.523,8.695-1.969,10.029c0.548,1.319,2.771,5.623,8.386,5.623H99.028z M218.316,468.884h-7.747
	c-18.05,0-35.325-3.38-51.232-9.529v23.002c0,7.43,6.005,13.474,13.386,13.474h32.206c7.381,0,13.386-6.044,13.386-13.474
	L218.316,468.884L218.316,468.884z M379.347,459.356c-15.908,6.148-33.182,9.529-51.232,9.529h-7.747v13.474
	c0,7.43,6.005,13.474,13.386,13.474h32.206c7.381,0,13.386-6.044,13.386-13.474V459.356z M454.495,325.79
	c0-69.686-56.694-126.38-126.38-126.38H210.571c-69.686,0-126.38,56.694-126.38,126.38v0.545c0,69.686,56.694,126.38,126.38,126.38
	h117.544c69.686,0,126.38-56.694,126.38-126.38V325.79z M455.382,221.485l-55.152-55.376c-1.716-1.722-3.995-2.672-6.417-2.672
	c-2.423,0-4.702,0.949-6.419,2.672l-21.998,22.088c29.708,8.058,55.592,25.5,74.26,48.939h9.308c5.615,0,7.838-4.304,8.386-5.623
	C457.904,230.18,459.398,225.518,455.382,221.485z M331.104,369.102v0.153c0,25.218-20.517,45.734-45.735,45.734h-32.053
	c-25.218,0-45.734-20.517-45.734-45.734v-0.153c0-25.218,20.516-45.734,45.734-45.734h32.053
	C310.587,323.368,331.104,343.885,331.104,369.102z M314.936,369.102c0-16.303-13.263-29.566-29.567-29.566h-32.053
	c-16.302,0-29.566,13.263-29.566,29.566v0.153c0,16.303,13.264,29.566,29.566,29.566h32.053c16.303,0,29.567-13.263,29.567-29.566
	V369.102z M256.191,361.095h-1.072c-4.466,0-8.084,3.62-8.084,8.084s3.618,8.084,8.084,8.084h1.072c4.466,0,8.084-3.62,8.084-8.084
	S260.657,361.095,256.191,361.095z M283.567,361.095h-1.074c-4.466,0-8.084,3.62-8.084,8.084s3.618,8.084,8.084,8.084h1.074
	c4.466,0,8.084-3.62,8.084-8.084S288.032,361.095,283.567,361.095z M237.136,274.863h1.074c4.466,0,8.084-3.62,8.084-8.084
	s-3.618-8.084-8.084-8.084h-1.074c-4.466,0-8.084,3.62-8.084,8.084S232.672,274.863,237.136,274.863z M300.476,274.863h1.073
	c4.466,0,8.084-3.62,8.084-8.084s-3.618-8.084-8.084-8.084h-1.073c-4.466,0-8.084,3.62-8.084,8.084S296.01,274.863,300.476,274.863z
	"/>
<g>
</g>
<g>
</g>
<g>
</g>
<g>
</g>
<g>
</g>
<g>
</g>
<g>
</g>
<g>
</g>
<g>
</g>
<g>
</g>
<g>
</g>
<g>
</g>
<g>
</g>
<g>
</g>
<g>
</g>
</svg>
