<?xml version="1.0" encoding="iso-8859-1"?>
<!-- Generator: Adobe Illustrator 21.0.0, SVG Export Plug-In . SVG Version: 6.00 Build 0)  -->
<svg version="1.1" id="Capa_1" xmlns="http://www.w3.org/2000/svg" xmlns:xlink="http://www.w3.org/1999/xlink" x="0px" y="0px"
	 viewBox="0 0 512 512" style="enable-background:new 0 0 512 512;" xml:space="preserve">
<path style="fill:#EF50AB;" d="M241.219,147.654c-36.239,0-70.109,8.138-98.947,22.258c-16.013-28.517-50.942-41.709-82.356-29.602
	l0,0l27.164,70.486c-12.752,14.09-22.591,29.993-28.796,47.141l-46.659,24.799c-3.158,1.679-4.76,5.299-3.879,8.765l11.668,45.869
	c0.59,2.479,2.742,4.275,5.287,4.412l33.582,1.807c10.083,27.868,29.754,47.437,55.952,66.283l0.715,54.835
	c0.091,6.948,5.749,12.532,12.697,12.532h28.81c5.996,0,11.175-4.194,12.421-10.06l5.925-27.895
	c20.68,6.184,43.054,9.569,66.414,9.569c19.691,0,38.684-2.402,56.55-6.86l5.622,25.302c1.291,5.81,6.444,9.944,12.396,9.944h28.801
	c6.991,0,12.666-5.65,12.698-12.641l0.215-47.582c45.136-27.998,74.216-66.884,74.216-116.253
	C431.718,216.203,346.429,147.654,241.219,147.654z"/>
<path style="fill:#DD3CA7;" d="M279.611,150.765c-6.2-1.02-12.511-1.797-18.915-2.32c-3.202-0.261-6.427-0.459-9.674-0.591
	s-6.515-0.199-9.803-0.199c-2.319,0-4.629,0.035-6.928,0.102c-0.265,0.008-0.527,0.025-0.792,0.033
	c-2.057,0.067-4.108,0.151-6.147,0.27c-0.079,0.005-0.157,0.012-0.236,0.017c-4.513,0.268-8.984,0.66-13.405,1.174l0,0
	c92.171,10.718,162.986,74.464,162.986,151.513c0,49.369-33.792,113.232-78.928,141.23l5.622,25.302
	c1.291,5.81,6.444,9.944,12.396,9.944h28.801c1.311,0,2.575-0.199,3.765-0.568c1.586-0.492,3.04-1.286,4.293-2.316
	c0.626-0.515,1.203-1.089,1.72-1.713c0.776-0.936,1.421-1.986,1.905-3.12c0.323-0.756,0.575-1.55,0.746-2.374
	c0.172-0.823,0.264-1.676,0.268-2.55l0.215-47.582c9.874-6.125,18.979-12.77,27.179-19.933c2.343-2.046,4.612-4.135,6.804-6.266
	c25.21-24.503,40.233-54.571,40.233-90.055C431.718,226.773,366.418,165.042,279.611,150.765z"/>
<circle style="fill:#EFEFEF;" cx="105.56" cy="260.661" r="16.584"/>
<circle style="fill:#FCB038;" cx="256" cy="115.291" r="80.53"/>
<path style="fill:#FD8F31;" d="M256.002,34.763c-9.663,0-18.926,1.706-27.51,4.826c30.928,11.242,53.02,40.891,53.02,75.704
	s-22.092,64.462-53.02,75.704c8.584,3.12,17.848,4.826,27.51,4.826c44.475,0,80.53-36.054,80.53-80.53
	S300.477,34.763,256.002,34.763z"/>
<path d="M253.233,155.157c-14.006-0.347-24.54-7.871-24.54-14.354c0-3.241,2.894-8.103,6.482-8.103
	c4.398,0,7.871,7.524,18.058,8.681v-23.035c-10.534-3.936-22.456-8.45-22.456-23.266c0-14.701,10.881-21.067,22.456-22.572v-3.241
	c0-1.505,1.736-2.894,3.936-2.894c1.968,0,3.936,1.389,3.936,2.894v3.009c7.524,0.231,19.794,2.431,19.794,9.145
	c0,2.663-1.853,7.987-6.135,7.987c-3.241,0-5.903-3.704-13.659-4.283v20.373c10.302,3.82,21.877,9.029,21.877,24.771
	c0,14.238-8.912,22.457-21.877,24.54v3.588c0,1.504-1.968,2.894-3.936,2.894c-2.199,0-3.936-1.389-3.936-2.894L253.233,155.157
	L253.233,155.157z M254.159,102.953V85.474c-5.788,0.926-9.26,3.704-9.26,8.103C244.899,98.669,248.835,100.869,254.159,102.953z
	 M260.179,121.126v20.141c5.093-1.042,8.682-4.051,8.682-9.492C268.86,126.103,265.156,123.325,260.179,121.126z"/>
<path d="M509.27,286.341c-3.196-2.635-7.925-2.183-10.562,1.015c-5.401,6.549-13.957,9.158-22.887,6.978
	c-0.079-0.019-0.159-0.039-0.239-0.06c1.41-1.046,2.688-2.175,3.832-3.384c5.367-5.669,7.676-13.052,6.675-21.349
	c-1.151-9.547-6.383-16.813-14.355-19.936c-7.926-3.103-17.285-1.513-23.84,4.054c-6.512,5.531-9.139,13.881-7.208,22.908
	c0.925,4.322,2.479,8.379,4.571,12.077c-2.339,0.23-4.569,0.357-6.587,0.418c-1.975-21.92-9.448-43.414-21.946-62.773
	c-14.114-21.861-34.622-41.091-59.307-55.612c-3.571-2.099-8.17-0.91-10.271,2.663c-2.1,3.572-0.909,8.17,2.663,10.271
	c22.678,13.34,41.458,30.913,54.308,50.818c12.274,19.012,18.964,39.436,19.952,60.784c-0.044,0.258-0.077,0.521-0.095,0.788
	c-0.051,0.778,0.019,1.535,0.193,2.255c0.017,0.836,0.045,1.67,0.045,2.509c0,54.584-38.429,89.879-70.668,109.877
	c-2.196,1.362-3.536,3.758-3.548,6.342l-0.215,47.582c-0.013,2.852-2.344,5.172-5.195,5.172h-28.801
	c-2.454,0-4.54-1.673-5.072-4.068l-5.622-25.302c-0.439-1.975-1.657-3.689-3.378-4.754c-1.721-1.064-3.801-1.387-5.762-0.898
	c-17.649,4.404-36.064,6.637-54.734,6.637c-22.109,0-43.731-3.113-64.264-9.254c-2.009-0.6-4.176-0.334-5.978,0.736
	c-1.802,1.069-3.075,2.844-3.511,4.894l-5.925,27.895c-0.507,2.385-2.644,4.116-5.082,4.116h-28.81c-2.828,0-5.158-2.3-5.195-5.127
	l-0.715-54.835c-0.031-2.38-1.189-4.603-3.121-5.993c-28.973-20.841-44.906-39.606-53.277-62.745
	c-1.025-2.833-3.644-4.777-6.652-4.939l-32.297-1.737l-11.372-44.708c-0.029-0.115,0.023-0.234,0.128-0.29l46.659-24.8
	c1.642-0.872,2.901-2.324,3.534-4.072c5.795-16.019,14.981-31.045,27.303-44.66c1.9-2.1,2.456-5.09,1.438-7.733l-24.293-63.04
	c25.487-6.233,52.852,5.211,65.942,28.525c1.948,3.469,6.266,4.814,9.842,3.065c3.277-1.605,6.669-3.149,10.083-4.589
	c3.818-1.611,5.607-6.011,3.996-9.829c-1.61-3.817-6.01-5.607-9.829-3.996c-1.582,0.667-3.159,1.355-4.725,2.061
	c-8.705-12.545-21.151-22.177-35.655-27.469c-16.885-6.161-35.433-5.991-52.223,0.481c-3.866,1.49-5.793,5.832-4.302,9.699
	l25.529,66.244c-11.43,13.356-20.223,27.923-26.192,43.394L8.104,276.111c-6.231,3.312-9.368,10.401-7.628,17.239l11.656,45.826
	c1.374,5.638,6.368,9.786,12.167,10.098l28.739,1.546c11.857,28.801,33.391,47.962,53.746,62.91l0.666,51.074
	c0.144,10.993,9.205,19.937,20.199,19.937h28.81c9.48,0,17.79-6.73,19.76-16.004l4.264-20.074
	c19.565,5.107,39.958,7.692,60.736,7.692c17.268,0,34.343-1.796,50.868-5.344l3.98,17.911c2.07,9.314,10.18,15.818,19.72,15.818
	h28.801c11.089,0,20.151-9.021,20.201-20.11l0.196-43.471c47.459-30.586,73.017-70.948,74.179-117.1
	c2.861-0.08,6.275-0.281,9.919-0.719c2.863-0.344,5.571-0.796,8.119-1.353c4.416,3.191,9.502,5.566,15.061,6.922
	c3.319,0.81,6.613,1.207,9.833,1.207c10.999,0,21.11-4.631,28.189-13.214C512.922,293.706,512.468,288.977,509.27,286.341z
	 M468.527,280.564c-1.841,1.948-4.452,3.471-7.46,4.656c-2.619-3.111-4.684-7.017-5.706-11.793
	c-0.772-3.606-0.016-6.409,2.248-8.331c1.564-1.329,3.683-2.047,5.744-2.047c1.007,0,2.001,0.172,2.909,0.528
	c3.465,1.357,4.593,4.969,4.93,7.76C471.66,275.213,470.813,278.145,468.527,280.564z"/>
<path d="M206.891,188.319h-13.579c-4.144,0-7.503,3.359-7.503,7.503c0,4.144,3.359,7.503,7.503,7.503h125.38
	c4.144,0,7.503-3.359,7.503-7.503c0-4.144-3.359-7.503-7.503-7.503h-13.58c23.462-15.829,38.922-42.656,38.922-73.027
	c0-48.541-39.491-88.032-88.032-88.032s-88.032,39.491-88.032,88.032C167.969,145.663,183.429,172.49,206.891,188.319z
	 M256.002,42.265c40.267,0,73.027,32.76,73.027,73.027s-32.76,73.027-73.027,73.027s-73.027-32.76-73.027-73.027
	S215.735,42.265,256.002,42.265z"/>
<path d="M105.555,236.573c-13.282,0-24.088,10.805-24.088,24.087c0,13.282,10.806,24.087,24.088,24.087s24.087-10.806,24.087-24.087
	C129.642,247.378,118.837,236.573,105.555,236.573z M105.555,269.742c-5.008,0-9.082-4.074-9.082-9.082s4.074-9.081,9.082-9.081
	s9.081,4.074,9.081,9.081C114.636,265.668,110.562,269.742,105.555,269.742z"/>
<g>
</g>
<g>
</g>
<g>
</g>
<g>
</g>
<g>
</g>
<g>
</g>
<g>
</g>
<g>
</g>
<g>
</g>
<g>
</g>
<g>
</g>
<g>
</g>
<g>
</g>
<g>
</g>
<g>
</g>
</svg>
