<?xml version="1.0" encoding="iso-8859-1"?>
<!-- Generator: Adobe Illustrator 19.0.0, SVG Export Plug-In . SVG Version: 6.00 Build 0)  -->
<svg version="1.1" id="Layer_1" xmlns="http://www.w3.org/2000/svg" xmlns:xlink="http://www.w3.org/1999/xlink" x="0px" y="0px"
	 viewBox="0 0 512 512" style="enable-background:new 0 0 512 512;" xml:space="preserve">
<path style="fill:#FE9D5E;" d="M122.181,420.594c0,22.473-18.283,40.756-40.756,40.756s-40.756-18.283-40.756-40.756
	c0-10.731,4.135-20.861,11.645-28.523c3.227-3.294,8.513-3.346,11.805-0.12c3.292,3.227,3.347,8.511,0.12,11.805
	c-4.432,4.523-6.874,10.504-6.874,16.838c0,13.267,10.793,24.061,24.061,24.061s24.061-10.793,24.061-24.061
	c0-4.61,3.738-8.348,8.348-8.348S122.181,415.983,122.181,420.594z M144.442,489.739c0,12.295,9.966,22.261,22.261,22.261h33.391
	c12.295,0,22.261-9.966,22.261-22.261v-33.391l-77.913-10.24V489.739z M311.398,456.348v33.391c0,12.295,9.966,22.261,22.261,22.261
	h33.391c12.295,0,22.261-9.966,22.261-22.261v-43.631L311.398,456.348z"/>
<path style="fill:#FE7D49;" d="M439.405,244.87c17.467,23.254,27.819,52.156,27.819,83.478l0,0c0,76.84-62.29,139.13-139.13,139.13
	H205.659c-76.84,0-139.13-62.29-139.13-139.13l0,0c0-31.322,10.354-60.225,27.821-83.478H80.266
	c-15.865,0-23.811-19.182-12.593-30.402l57.18-57.18c6.955-6.954,18.231-6.954,25.185,0l33.661,33.661
	c7.154-1.134,14.487-1.731,21.96-1.731h122.435c7.473,0,14.806,0.597,21.96,1.731l33.66-33.661c6.954-6.954,18.231-6.954,25.185,0
	l57.18,57.18c11.219,11.219,3.275,30.402-12.592,30.402H439.405z"/>
<path style="fill:#FED76E;" d="M383.746,116.87c0,64.545-52.324,116.87-116.87,116.87s-116.87-52.324-116.87-116.87
	S202.331,0,266.877,0S383.746,52.324,383.746,116.87z"/>
<path style="fill:#FEAF50;" d="M350.355,116.87c0,46.103-37.375,83.478-83.478,83.478s-83.478-37.375-83.478-83.478
	s37.375-83.478,83.478-83.478S350.355,70.766,350.355,116.87z"/>
<path style="fill:#AF773A;" d="M278.007,108.522h-2.783V80.696h13.913c4.61,0,8.348-3.738,8.348-8.348S293.748,64,289.138,64
	h-13.913v-2.783c0-4.61-3.738-8.348-8.348-8.348s-8.348,3.738-8.348,8.348V64h-2.783c-16.878,0-30.609,13.731-30.609,30.609
	s13.73,30.609,30.609,30.609h2.783v27.826h-13.913c-4.61,0-8.348,3.738-8.348,8.348s3.738,8.348,8.348,8.348h13.913v2.783
	c0,4.61,3.738,8.348,8.348,8.348s8.348-3.738,8.348-8.348v-2.783h2.783c16.878,0,30.609-13.73,30.609-30.609
	S294.885,108.522,278.007,108.522z M258.529,108.522h-2.783c-7.672,0-13.913-6.241-13.913-13.913s6.241-13.913,13.913-13.913h2.783
	V108.522z M278.007,153.043h-2.783v-27.826h2.783c7.672,0,13.913,6.241,13.913,13.913S285.679,153.043,278.007,153.043z"/>
<path style="fill:#FE9D5E;" d="M457.927,278.261c-20.108,52.089-70.652,89.043-129.833,89.043H205.659
	c-59.182,0-109.724-36.954-129.833-89.043c20.108-52.089,70.652-89.043,129.833-89.043h122.435
	C387.276,189.217,437.819,226.172,457.927,278.261z"/>
<path style="fill:#FEDEB1;" d="M322.529,372.87L322.529,372.87c0,21.515-17.441,38.957-38.957,38.957h-33.391
	c-21.515,0-38.957-17.441-38.957-38.957l0,0c0-21.515,17.441-38.957,38.957-38.957h33.391
	C305.087,333.913,322.529,351.354,322.529,372.87z"/>
<path style="fill:#FEAF98;" d="M261.59,372.87c0,4.61-3.738,8.348-8.348,8.348h-1.113c-4.61,0-8.348-3.738-8.348-8.348
	c0-4.61,3.738-8.348,8.348-8.348h1.113C257.852,364.522,261.59,368.259,261.59,372.87z M281.625,364.522h-1.113
	c-4.61,0-8.348,3.738-8.348,8.348c0,4.61,3.738,8.348,8.348,8.348h1.113c4.61,0,8.348-3.738,8.348-8.348
	C289.972,368.259,286.235,364.522,281.625,364.522z"/>
<path style="fill:#996531;" d="M242.946,267.13c0,4.61-3.738,8.348-8.348,8.348h-1.113c-4.61,0-8.348-3.738-8.348-8.348
	s3.738-8.348,8.348-8.348h1.113C239.209,258.783,242.946,262.52,242.946,267.13z M300.268,258.783h-1.113
	c-4.61,0-8.348,3.738-8.348,8.348s3.738,8.348,8.348,8.348h1.113c4.61,0,8.348-3.738,8.348-8.348S304.878,258.783,300.268,258.783z"
	/>
<g>
</g>
<g>
</g>
<g>
</g>
<g>
</g>
<g>
</g>
<g>
</g>
<g>
</g>
<g>
</g>
<g>
</g>
<g>
</g>
<g>
</g>
<g>
</g>
<g>
</g>
<g>
</g>
<g>
</g>
</svg>
