<?xml version="1.0" encoding="iso-8859-1"?>
<!-- Generator: Adobe Illustrator 21.0.0, SVG Export Plug-In . SVG Version: 6.00 Build 0)  -->
<svg version="1.1" id="Capa_1" xmlns="http://www.w3.org/2000/svg" xmlns:xlink="http://www.w3.org/1999/xlink" x="0px" y="0px"
	 viewBox="0 0 512 512" style="enable-background:new 0 0 512 512;" xml:space="preserve">
<path style="fill:#EF50AB;" d="M241.219,146.808c-36.239,0-70.109,8.138-98.947,22.258c-16.013-28.517-50.942-41.709-82.356-29.602
	l0,0L87.08,209.95c-12.752,14.09-22.591,29.993-28.796,47.141L11.626,281.89c-3.158,1.679-4.76,5.299-3.878,8.765l11.668,45.869
	c0.59,2.479,2.742,4.275,5.287,4.412l33.582,1.807c10.083,27.868,29.754,47.437,55.952,66.283l0.715,54.835
	c0.091,6.948,5.749,12.532,12.697,12.532h28.81c5.996,0,11.175-4.194,12.421-10.06l5.925-27.895
	c20.68,6.184,43.054,9.569,66.414,9.569c19.691,0,38.684-2.402,56.55-6.86l5.622,25.302c1.291,5.81,6.444,9.944,12.396,9.944h28.801
	c6.991,0,12.666-5.65,12.698-12.641l0.215-47.582c45.136-27.998,74.216-66.884,74.216-116.253
	C431.718,215.357,346.429,146.808,241.219,146.808z"/>
<path style="fill:#DD3CA7;" d="M241.219,146.808c-2.327,0-4.644,0.035-6.951,0.103c-0.27,0.008-0.537,0.025-0.806,0.034
	c-2.064,0.067-4.122,0.152-6.168,0.272c-0.081,0.005-0.16,0.012-0.241,0.017c-4.532,0.271-9.022,0.666-13.462,1.185l0,0
	c92.105,10.764,162.851,74.486,162.851,151.498c0,49.369-33.537,113.232-78.673,141.23l5.622,25.302
	c1.291,5.81,6.444,9.944,12.396,9.944h28.801c6.991,0,12.666-5.65,12.698-12.641l0.215-47.582
	c45.136-27.998,74.216-66.884,74.216-116.253C431.718,215.357,346.429,146.808,241.219,146.808z"/>
<path style="fill:#A0E557;" d="M316.832,196.437V40.475c0-2.688-2.179-4.866-4.866-4.866H191.222c-2.688,0-4.866,2.179-4.866,4.866
	v155.962H316.832z"/>
<path style="fill:#93CC4A;" d="M311.965,35.609h-50.154v160.829h55.02V40.475C316.832,37.787,314.653,35.609,311.965,35.609z"/>
<circle style="fill:#F3E8D7;" cx="251.59" cy="134.971" r="30.595"/>
<g>
	<path style="fill:#5CC45C;" d="M186.356,40.475v29.776c19.133,0,34.643-15.51,34.643-34.643h-29.776
		C188.535,35.609,186.356,37.787,186.356,40.475z"/>
	<path style="fill:#5CC45C;" d="M311.965,35.609h-29.777c0,19.133,15.51,34.643,34.643,34.643V40.475
		C316.832,37.787,314.653,35.609,311.965,35.609z"/>
</g>
<circle style="fill:#EFEFEF;" cx="105.56" cy="259.811" r="16.584"/>
<path d="M509.27,285.495c-3.196-2.635-7.925-2.182-10.562,1.015c-5.401,6.549-13.957,9.158-22.887,6.978
	c-0.079-0.019-0.159-0.039-0.239-0.06c1.41-1.046,2.688-2.175,3.832-3.384c5.367-5.669,7.676-13.052,6.675-21.349
	c-1.151-9.547-6.383-16.813-14.355-19.936c-7.926-3.104-17.285-1.513-23.84,4.054c-6.512,5.531-9.139,13.881-7.208,22.908
	c0.925,4.322,2.479,8.379,4.571,12.077c-2.337,0.23-4.564,0.356-6.581,0.418c-4.388-49.059-36.181-93.898-86.96-121.617
	c-3.641-1.987-8.196-0.646-10.181,2.99c-1.985,3.637-0.647,8.195,2.99,10.181c47.973,26.188,77.344,68.717,79.54,114.611
	c-0.043,0.254-0.074,0.511-0.091,0.774c-0.051,0.775,0.018,1.529,0.19,2.246c0.018,0.839,0.049,1.677,0.049,2.518
	c0,54.583-38.43,89.879-70.669,109.877c-2.196,1.362-3.536,3.758-3.548,6.342l-0.215,47.582c-0.013,2.852-2.344,5.172-5.195,5.172
	h-28.801c-2.454,0-4.54-1.673-5.072-4.068l-5.622-25.302c-0.439-1.975-1.657-3.689-3.378-4.754
	c-1.721-1.065-3.801-1.388-5.762-0.898c-17.649,4.404-36.064,6.637-54.734,6.637c-22.109,0-43.731-3.113-64.264-9.254
	c-2.011-0.6-4.175-0.334-5.979,0.736c-1.802,1.069-3.075,2.844-3.51,4.894l-5.925,27.895c-0.507,2.385-2.645,4.116-5.083,4.116
	h-28.809c-2.828,0-5.158-2.3-5.195-5.128l-0.716-54.835c-0.03-2.379-1.189-4.603-3.12-5.992
	c-28.973-20.841-44.906-39.605-53.277-62.745c-1.025-2.833-3.644-4.777-6.652-4.939l-32.297-1.737l-11.372-44.709
	c-0.029-0.114,0.023-0.233,0.128-0.289l46.659-24.8c1.642-0.873,2.901-2.324,3.535-4.073c5.794-16.017,14.98-31.043,27.303-44.659
	c1.9-2.1,2.457-5.09,1.438-7.733l-24.294-63.036c25.487-6.231,52.852,5.21,65.942,28.524c1.949,3.47,6.265,4.815,9.842,3.066
	c3.618-1.771,7.367-3.464,11.143-5.032c3.828-1.589,5.641-5.98,4.052-9.807c-1.588-3.827-5.982-5.639-9.806-4.052
	c-1.966,0.816-3.924,1.664-5.863,2.538c-8.705-12.545-21.151-22.177-35.655-27.469c-16.886-6.161-35.433-5.992-52.224,0.481
	c-1.856,0.716-3.353,2.139-4.16,3.958s-0.859,3.884-0.143,5.741l25.53,66.244c-11.431,13.357-20.224,27.924-26.191,43.394
	l-44.15,23.46c-6.232,3.312-9.368,10.402-7.628,17.239l11.656,45.824c1.375,5.639,6.369,9.789,12.167,10.1l28.739,1.546
	c11.858,28.801,33.391,47.963,53.745,62.91l0.667,51.073c0.142,10.994,9.204,19.938,20.199,19.938h28.809
	c9.481,0,17.792-6.731,19.76-16.004l4.264-20.074c19.565,5.107,39.958,7.692,60.736,7.692c17.268,0,34.343-1.796,50.868-5.344
	l3.98,17.911c2.07,9.313,10.18,15.818,19.72,15.818h28.801c11.089,0,20.151-9.021,20.201-20.11l0.196-43.471
	c47.46-30.586,73.018-70.948,74.18-117.1c2.861-0.08,6.274-0.282,9.918-0.72c2.863-0.344,5.571-0.796,8.119-1.353
	c4.416,3.191,9.502,5.566,15.061,6.922c3.319,0.81,6.613,1.207,9.833,1.207c10.999,0,21.11-4.631,28.189-13.214
	C512.922,292.86,512.468,288.131,509.27,285.495z M468.527,279.718c-1.841,1.948-4.452,3.471-7.46,4.656
	c-2.619-3.111-4.684-7.017-5.706-11.793c-0.772-3.606-0.016-6.409,2.248-8.331c1.564-1.329,3.683-2.047,5.744-2.047
	c1.007,0,2.001,0.172,2.909,0.528c3.465,1.357,4.593,4.969,4.93,7.76C471.66,274.367,470.813,277.299,468.527,279.718z"/>
<path d="M171.299,203.94L171.299,203.94h160.59l0,0c4.144,0,7.503-3.359,7.503-7.503s-3.359-7.503-7.503-7.503h-7.556l0.001-148.46
	c0-0.007,0,0.007,0,0l0,0c0-6.82-5.549-12.369-12.37-12.369l0,0H191.222l0,0c-6.82,0-12.369,5.548-12.369,12.369l0,0v148.46h-7.555
	c-4.144,0-7.503,3.359-7.503,7.503S167.155,203.94,171.299,203.94z M309.328,43.112v18.582c-8.944-2.576-16.006-9.638-18.582-18.582
	H309.328z M193.859,43.112h18.582c-2.576,8.945-9.637,16.006-18.582,18.583V43.112z M193.859,77.072
	c17.233-3.111,30.849-16.727,33.96-33.96h47.549c3.111,17.233,16.727,30.849,33.96,33.96v111.863H193.859V77.072z"/>
<path d="M105.555,235.727c-13.281,0-24.087,10.805-24.087,24.087s10.806,24.087,24.087,24.087s24.087-10.806,24.087-24.087
	S118.836,235.727,105.555,235.727z M105.555,268.896c-5.008,0-9.081-4.074-9.081-9.082s4.074-9.081,9.081-9.081
	c5.008,0,9.081,4.074,9.081,9.081C114.636,264.822,110.563,268.896,105.555,268.896z"/>
<path d="M251.594,96.874c-21.008,0-38.098,17.09-38.098,38.098c0,21.007,17.09,38.098,38.098,38.098
	c21.007,0,38.097-17.09,38.097-38.098C289.691,113.964,272.601,96.874,251.594,96.874z M251.594,158.063
	c-12.733,0-23.092-10.359-23.092-23.092s10.359-23.092,23.092-23.092c12.732,0,23.091,10.359,23.091,23.092
	S264.326,158.063,251.594,158.063z"/>
<g>
</g>
<g>
</g>
<g>
</g>
<g>
</g>
<g>
</g>
<g>
</g>
<g>
</g>
<g>
</g>
<g>
</g>
<g>
</g>
<g>
</g>
<g>
</g>
<g>
</g>
<g>
</g>
<g>
</g>
</svg>
