<?xml version="1.0" encoding="iso-8859-1"?>
<!-- Generator: Adobe Illustrator 19.0.0, SVG Export Plug-In . SVG Version: 6.00 Build 0)  -->
<svg version="1.1" id="Capa_1" xmlns="http://www.w3.org/2000/svg" xmlns:xlink="http://www.w3.org/1999/xlink" x="0px" y="0px"
	 viewBox="0 0 512 512" style="enable-background:new 0 0 512 512;" xml:space="preserve">
<path style="fill:#FF5023;" d="M174.019,205.579l-83.183,41.902c0,0-0.821-18.542-3.606-39.568
	c-1.272-9.566-2.945-19.644-5.129-28.729c-4.828-20.054,15.146-37.404,34.319-29.771c11.951,4.758,24.151,11.76,34.81,22.068
	C160.295,180.246,168.259,191.395,174.019,205.579z"/>
<path style="fill:#FF3501;" d="M174.019,205.579l-83.183,41.902c0,0-0.821-18.542-3.606-39.568
	c13.824-21.056,37.214-35.261,64-36.433C160.295,180.246,168.259,191.395,174.019,205.579z"/>
<g>
	<path style="fill:#FF6243;" d="M152.392,394.354v82.962c0,4.568-1.142,8.885-3.175,12.682
		c-4.558,8.595-13.623,14.485-24.001,14.485c-14.936,0-27.167-12.221-27.167-27.167v-82.962c0-12.511,10.238-22.759,22.759-22.759
		h8.825C142.144,371.595,152.392,381.842,152.392,394.354z"/>
	<path style="fill:#FF6243;" d="M361.741,394.354v82.962c0,14.946-12.231,27.167-27.167,27.167c-9.556,0-18.001-4.989-22.839-12.501
		c-2.745-4.237-4.337-9.276-4.337-14.665v-82.962c0-12.511,10.248-22.759,22.759-22.759h8.825
		C351.503,371.595,361.741,381.842,361.741,394.354z"/>
</g>
<g>
	<path style="fill:#FF5023;" d="M152.392,394.354v82.962c0,4.568-1.142,8.885-3.175,12.682
		c-19.534-6.07-36.953-15.376-51.168-27.758v-67.887c0-12.511,10.238-22.759,22.759-22.759h8.825
		C142.144,371.595,152.392,381.842,152.392,394.354z"/>
	<path style="fill:#FF5023;" d="M361.741,394.354v74.298c-14.335,10.538-31.294,18.352-50.006,23.33
		c-2.745-4.237-4.337-9.276-4.337-14.665v-82.962c0-12.511,10.248-22.759,22.759-22.759h8.825
		C351.503,371.595,361.741,381.842,361.741,394.354z"/>
</g>
<path style="fill:#FF3501;" d="M487.419,323.597c-7.062,0-13.665-4.417-16.117-11.464c-0.782-2.246-3.159-9.082-14.804-13.845
	c-5.09-2.083-10.716-3.138-16.725-3.138h-68.398c-9.425,0-17.065-7.64-17.065-17.065s7.64-17.065,17.065-17.065h68.398
	c10.462,0,20.436,1.911,29.648,5.679c16.943,6.932,28.74,18.765,34.117,34.223c3.096,8.901-1.61,18.628-10.511,21.724
	C491.17,323.291,489.278,323.597,487.419,323.597z"/>
<path style="fill:#FF5023;" d="M24.774,287.238c-10.612,4.391-17.264,13.078-17.264,22.55v21.649
	c0,10.102,7.556,19.248,19.254,23.306l58.155,29.111V262.357L24.774,287.238z"/>
<path style="fill:#FF7956;" d="M409.223,335.693c0,18.011-3.236,34.219-9.146,48.543c-7.563,18.311-19.503,33.558-34.67,45.568
	c-27.026,21.427-64.32,32.586-105.341,32.586h-52.31c-82.041,0-149.156-44.657-149.156-126.698
	c0-37.544,14.064-71.974,37.184-98.269c2.134-2.434,4.347-4.788,6.631-7.072c27.026-27.036,64.32-43.815,105.341-43.815h52.31
	C342.107,186.537,409.223,253.661,409.223,335.693z"/>
<path style="fill:#FF9478;" d="M409.223,335.693c0,18.011-3.236,34.219-9.146,48.543c-3.626,3.736-7.513,7.242-11.63,10.508
	c-27.026,21.427-64.32,32.586-105.341,32.586h-52.31c-82.041,0-149.156-44.657-149.156-126.698c0-22.559,5.079-43.986,14.144-63.209
	c2.134-2.434,4.347-4.788,6.631-7.072c27.026-27.036,64.32-43.815,105.341-43.815h52.31
	C342.107,186.537,409.223,253.661,409.223,335.693z"/>
<path style="fill:#FF5023;" d="M304.733,247.892c0,6.611-5.409,12.021-12.021,12.021H175.181c-6.611,0-12.021-5.409-12.021-12.021
	c0-1.593,0.311-3.115,0.892-4.508c1.783-4.398,6.111-7.513,11.129-7.513h117.532c5.019,0,9.346,3.115,11.129,7.513
	C304.423,244.776,304.733,246.3,304.733,247.892z"/>
<path style="fill:#FF6243;" d="M303.842,243.385c-1.783,4.398-6.111,7.513-11.129,7.513H175.181c-5.019,0-9.346-3.115-11.129-7.513
	c1.783-4.398,6.111-7.513,11.129-7.513h117.532C297.731,235.872,302.059,238.987,303.842,243.385z"/>
<circle style="fill:none;stroke:#000000;stroke-width:15;stroke-linecap:round;stroke-linejoin:round;stroke-miterlimit:10;stroke-dasharray:305,30;" cx="249.829" cy="88.211" r="60.384"/>
<path style="fill:#CC7400;" d="M246.56,168.785h-17.04c-21.761,0.935-41.876-6.861-56.966-20.278
	c-4.164-3.688-7.943-7.811-11.262-12.295c-3.369-4.541-6.279-9.45-8.639-14.671c-1.787-3.935-3.271-8.041-4.41-12.295
	c-1.27-4.721-2.123-9.623-2.508-14.663c-0.082-0.951-0.139-1.91-0.18-2.869c-0.139-3.18-0.082-6.328,0.147-9.426
	c0.361-5.025,1.197-9.926,2.459-14.663c1.115-4.245,2.573-8.352,4.344-12.295c2.328-5.197,5.197-10.114,8.541-14.663
	c3.271-4.467,7-8.59,11.114-12.295c13.434-12.115,30.999-19.786,50.474-20.622h22.451l1.18,129.242l0.098,10.671L246.56,168.785z"/>
<path style="fill:#FFC477;" d="M330.525,91.181c-1.451,41.646-34.762,75.793-77.087,77.604
	c-44.465,1.901-82.055-32.605-83.956-77.071c-0.008-0.18-0.016-0.353-0.016-0.533c-1.608-44.245,32.801-81.539,77.086-83.432
	c44.465-1.901,82.055,32.605,83.956,77.079C330.599,86.968,330.608,89.083,330.525,91.181z"/>
<path style="fill:#CC7400;" d="M263.331,147.081c-0.984,0.221-1.959,0.418-2.942,0.59c-31.466,5.541-62.064-14.573-69.211-46.072
	c-7.361-32.483,12.999-64.776,45.482-72.145c8.082-1.828,16.155-1.95,23.835-0.59c23.18,4.114,42.777,21.671,48.31,46.072
	C316.174,107.418,295.813,139.721,263.331,147.081z"/>
<path style="fill:#EE8700;" d="M263.331,147.081c-0.984,0.221-1.959,0.418-2.942,0.59c-23.172-4.115-42.777-21.679-48.31-46.072
	c-7.361-32.483,12.999-64.776,45.482-72.145c0.976-0.221,1.959-0.418,2.934-0.59c23.18,4.114,42.777,21.671,48.31,46.072
	C316.174,107.418,295.813,139.721,263.331,147.081z"/>
<path style="fill:#FFA733;" d="M330.525,91.181c-1.451,41.646-34.762,75.793-77.087,77.604
	c-44.465,1.901-82.055-32.605-83.956-77.071c-0.008-0.18-0.016-0.353-0.016-0.533h20.278c0.172,3.451,0.647,6.934,1.434,10.418
	c7.369,32.483,39.671,52.851,72.153,45.482c27.023-6.123,45.654-29.499,46.909-55.9C310.24,91.181,330.525,91.181,330.525,91.181z"
	/>
<ellipse cx="144.919" cy="287.554" rx="14.263" ry="14.238"/>
<path d="M510.637,298.449c-6.111-17.55-19.373-30.933-38.376-38.706c-23.561-9.635-40.578-5.067-79.036-6.241
	c-27.337-43.986-75.84-73.707-130.985-74.468c-4.157-0.09-7.563,3.266-7.623,7.413c-0.05,4.147,3.266,7.563,7.413,7.613
	c143.874,1.984,202.233,207.182,52.881,252.894c-36.2,11.059-60.428,7.137-107.154,7.924c-117.666,0-171.543-93.808-126.497-182.874
	c2.635-5.219,5.59-10.258,8.835-15.086c21.235-31.633,53.634-52.563,88.412-59.823c21.203-4.479,35.029-2.603,53.572-3.045
	c4.157,0,7.513-3.366,7.513-7.513c0-4.147-3.356-7.513-7.513-7.513c-17.936,0.543-35.489-1.861-61.235,4.398
	c-7.503-11.359-17.049-21.006-28.519-28.809c-3.436-2.334-8.104-1.442-10.438,1.983c-2.334,3.436-1.442,8.104,1.983,10.438
	c8.525,5.8,15.807,12.792,21.787,20.906c-21.737,7.693-41.702,20.245-58.551,37.104c-0.1,0.1-0.19,0.19-0.29,0.29
	c-3.287-36.574-7.934-46.237-7.934-52.23c0-10.796,10.096-19.607,20.996-17.771c4.087,0.691,7.964-2.074,8.655-6.161
	c0.691-4.087-2.064-7.964-6.161-8.655c-1.773-0.301-3.586-0.451-5.379-0.451c-17.961,0-33.137,15.126-33.137,33.037
	c0,9.206,6.821,25.272,9.056,68.177c-4.598,6.02-8.715,12.331-12.351,18.882l-48.664,20.135C8.394,285.888,0,297.187,0,309.789
	v21.647c0,13.203,9.326,25.023,23.821,30.232l33.828,16.929v0.01c6.411,19.604,17.47,36.773,32.886,50.927v47.782
	c0,19.123,15.557,34.68,34.68,34.68c19.133,0,34.69-15.557,34.69-34.68v-12.762c34.307,8.03,58.201,4.451,100.162,5.349
	c13.764,0,27.117-1.242,39.818-3.646v11.059c0,19.123,15.557,34.68,34.69,34.68c19.123,0,34.68-15.557,34.68-34.68v-40.99
	c40.552-30.038,54.919-83.239,43.935-133.659c22.905,0.544,30.542-1.493,40.459,2.574c8.515,3.486,9.997,7.753,10.558,9.366
	c4.496,12.909,18.624,19.567,31.284,15.136C508.293,325.285,515.084,311.251,510.637,298.449z M52.991,359.474
	c-24.296-12.138-22.822-11.486-23.761-11.83c-8.635-2.995-14.204-9.356-14.204-16.208v-21.647c0-6.411,4.838-12.391,12.622-15.607
	l33.558-13.884C51.267,306.455,48.894,334.66,52.991,359.474z M144.879,477.316c0,10.839-8.825,19.654-19.664,19.654
	s-19.654-8.815-19.654-19.654v-35.892c11.63,7.904,24.883,14.275,39.317,18.953V477.316z M354.228,477.316
	c0,10.839-8.825,19.654-19.654,19.654c-10.839,0-19.664-8.815-19.664-19.654v-14.535c14.254-3.897,27.487-9.376,39.318-16.298
	V477.316z M487.417,316.079c-4.057,0-7.683-2.574-9.016-6.411c-5.255-15.061-22.859-22.028-38.626-22.028h-30.653
	c-2.134-6.571-4.698-12.952-7.653-19.113c31.463,0.955,45.792-2.791,65.102,5.129c14.896,6.09,25.223,16.368,29.871,29.731
	C498.595,309.571,493.995,316.079,487.417,316.079z"/>
<path d="M292.717,252.402h-2.98c-4.15,0-7.513,3.364-7.513,7.513c0,4.149,3.363,7.513,7.513,7.513h2.98
	c10.771,0,19.534-8.763,19.534-19.534c0-10.77-8.763-19.534-19.534-19.534H175.179c-10.77,0-19.534,8.763-19.534,19.534
	c0,10.771,8.763,19.534,19.534,19.534h84.506c4.15,0,7.513-3.364,7.513-7.513c0-4.149-3.363-7.513-7.513-7.513h-84.506
	c-2.443,0-4.508-2.065-4.508-4.508c0-2.443,2.065-4.508,4.508-4.508h117.538c2.443,0,4.508,2.065,4.508,4.508
	C297.224,250.338,295.161,252.402,292.717,252.402z"/>
<path d="M225.783,176.429c0.101,0,27.708-0.078,27.81-0.083c77.799-3.327,113.967-99.8,55.888-153.118
	c-17.206-15.795-39.77-24.271-63.86-23.12c-0.603-0.057-23.413-0.033-23.515-0.029c-23.541,1.007-45.282,11.12-61.216,28.478
	C109.2,84.862,149.265,176.431,225.783,176.429z M153.103,95.894h8.85c0.351,4.061,0.986,8.055,1.872,11.972h-8.46
	C154.289,103.973,153.528,99.974,153.103,95.894z M161.929,80.868h-8.879c0.402-4.069,1.149-8.068,2.212-11.972h8.475
	C162.862,72.821,162.259,76.818,161.929,80.868z M161.394,122.891h7.292c4.339,10.165,10.589,19.486,18.571,27.5
	C176.151,143.461,167.339,133.924,161.394,122.891z M252.95,161.335c-64.539,2.766-101.278-74.429-57.041-122.617
	c27.326-29.767,73.609-31.778,103.41-4.421C347.237,78.285,317.654,158.568,252.95,161.335z M171.958,38.718
	c4.582-4.991,9.752-9.241,15.352-12.724c-0.834,0.84-1.665,1.685-2.47,2.562c-6.95,7.569-12.429,16.123-16.319,25.313h-7.3
	C164.111,48.453,167.697,43.36,171.958,38.718z"/>
<path d="M196.536,46.124c-23.662,29.992-17.689,72.583,11.201,95.375c29.988,23.661,72.582,17.691,95.376-11.198
	c24.154-30.615,17.584-74.934-13.834-97.351c-3.38-2.409-8.07-1.624-10.48,1.753c-2.409,3.378-1.625,8.069,1.752,10.479
	c13.949,9.952,22.163,26.025,22.163,43.086c0,29.983-24.271,52.834-52.945,52.834c-29.978,0-52.836-24.271-52.836-52.945
	c0-24.831,16.942-46.013,41.2-51.511c5.97-1.354,12.137-1.67,18.156-0.928c4.113,0.502,7.867-2.419,8.374-6.537
	c0.508-4.118-2.419-7.868-6.537-8.375C234.504,17.895,211.105,27.658,196.536,46.124z"/>
<path d="M255.766,45.029c0-3.277-2.665-5.942-5.942-5.942c-3.278,0-5.942,2.666-5.942,5.942v5.025
	c-9.975,2.434-15.447,9.369-15.447,19.655c0,26.11,33.032,16.157,33.032,35.618c0,9.294-6.711,11.245-12.34,11.245
	c-7.458,0-10.429-3.202-12.599-5.541c-1.295-1.396-2.518-2.717-4.414-2.717c-3.031,0-5.47,3.373-5.47,6.166
	c0,4.964,6.865,11.083,17.238,12.778v4.138c0,3.277,2.665,5.941,5.942,5.941c3.278,0,5.942-2.666,5.942-5.941v-4.262
	c10.977-2.15,17.238-10.241,17.238-22.403c0-15.953-10.198-20.577-19.062-23.882l0.001-0.002
	c-7.509-2.917-13.971-4.297-13.971-11.734c0-6.79,5.213-9.057,11.942-9.057c8.67,0,10.721,3.78,13.929,3.78
	c3.458,0,5.37-3.646,5.37-6.167c0-6.187-11.111-7.917-15.447-8.356L255.766,45.029L255.766,45.029z"/>
<g>
</g>
<g>
</g>
<g>
</g>
<g>
</g>
<g>
</g>
<g>
</g>
<g>
</g>
<g>
</g>
<g>
</g>
<g>
</g>
<g>
</g>
<g>
</g>
<g>
</g>
<g>
</g>
<g>
</g>
</svg>
