<?xml version="1.0" encoding="iso-8859-1"?>
<!-- Generator: Adobe Illustrator 21.0.0, SVG Export Plug-In . SVG Version: 6.00 Build 0)  -->
<svg version="1.1" id="Capa_1" xmlns="http://www.w3.org/2000/svg" xmlns:xlink="http://www.w3.org/1999/xlink" x="0px" y="0px"
	 viewBox="0 0 512.001 512.001" style="enable-background:new 0 0 512.001 512.001;" xml:space="preserve">
<g>
	<path style="fill:#EF50AB;" d="M481.651,310.921c-3.268,0-6.611-0.402-9.979-1.224c-5.642-1.377-10.804-3.787-15.285-7.025
		c-2.586,0.566-5.334,1.024-8.24,1.373c-9.841,1.183-20.066,0.667-20.41,0.644c-4.196-0.275-7.375-3.899-7.101-8.096
		c0.275-4.194,3.915-7.378,8.088-7.101c2.784,0.176,9.904,0.19,15.541-0.364c-2.123-3.753-3.7-7.87-4.639-12.256
		c-1.96-9.162,0.706-17.636,7.315-23.249c6.653-5.65,16.151-7.264,24.195-4.115c8.09,3.169,13.401,10.544,14.569,20.233
		c1.015,8.421-1.328,15.913-6.775,21.667c-1.162,1.227-2.459,2.372-3.889,3.434c0.081,0.021,0.163,0.041,0.243,0.06
		c9.063,2.212,17.746-0.435,23.228-7.082c2.676-3.245,7.476-3.704,10.719-1.03c3.245,2.675,3.706,7.475,1.03,10.719
		C503.075,306.222,492.814,310.921,481.651,310.921z M462.629,263.153c-2.092,0-4.242,0.729-5.83,2.077
		c-2.297,1.951-3.065,4.796-2.281,8.455c1.037,4.847,3.133,8.811,5.791,11.968c3.053-1.202,5.703-2.748,7.571-4.725
		c2.32-2.455,3.18-5.431,2.705-9.364c-0.341-2.833-1.486-6.498-5.003-7.876C464.659,263.327,463.651,263.153,462.629,263.153z"/>
	<path style="fill:#EF50AB;" d="M237.19,146.041c-36.778,0-71.152,8.259-100.42,22.589c-16.251-28.942-51.7-42.329-83.582-30.042
		l0,0l27.569,71.534c-12.942,14.3-22.928,30.44-29.224,47.843L4.18,283.133c-3.205,1.704-4.831,5.378-3.936,8.896l11.841,46.552
		c0.599,2.516,2.783,4.338,5.366,4.477l34.082,1.833c10.233,28.283,30.196,48.143,56.784,67.269l0.726,55.65
		c0.092,7.051,5.834,12.719,12.886,12.719h29.239c6.085,0,11.341-4.257,12.606-10.209l6.013-28.31
		c20.987,6.276,43.695,9.711,67.402,9.711c19.984,0,39.259-2.438,57.392-6.962l5.706,25.678c1.31,5.896,6.54,10.092,12.58,10.092
		h29.23c7.095,0,12.855-5.734,12.887-12.829l0.218-48.29c45.807-28.415,75.32-67.879,75.32-117.983
		C430.523,215.61,343.965,146.041,237.19,146.041z"/>
</g>
<path style="fill:#DD3CA7;" d="M276.153,149.198c-6.293-1.035-12.697-1.824-19.196-2.355c-3.25-0.265-6.523-0.466-9.818-0.6
	s-6.612-0.202-9.949-0.202c-2.354,0-4.698,0.035-7.031,0.103c-0.269,0.008-0.535,0.025-0.804,0.034
	c-2.087,0.068-4.169,0.153-6.239,0.274c-0.08,0.005-0.159,0.012-0.239,0.017c-4.58,0.272-9.117,0.67-13.604,1.192l0,0
	c93.542,10.877,165.411,75.572,165.411,153.768c0,50.104-34.295,114.917-80.103,143.332l5.706,25.678
	c1.31,5.896,6.54,10.092,12.58,10.092h29.23c1.33,0,2.613-0.202,3.821-0.576c1.61-0.499,3.085-1.305,4.356-2.35
	c0.636-0.523,1.221-1.105,1.746-1.738c0.788-0.95,1.442-2.015,1.934-3.167c0.328-0.768,0.583-1.574,0.757-2.409
	c0.174-0.836,0.268-1.701,0.272-2.588l0.218-48.29c10.02-6.216,19.261-12.96,27.584-20.229c2.378-2.077,4.681-4.196,6.906-6.359
	c25.585-24.867,40.831-55.383,40.831-91.395C430.523,226.338,364.252,163.687,276.153,149.198z"/>
<circle style="fill:#F3E8D7;" cx="99.51" cy="260.73" r="16.831"/>
<circle style="fill:#FCB038;" cx="252.19" cy="113.2" r="81.73"/>
<path style="fill:#FD8F31;" d="M252.193,31.47c-9.806,0-19.207,1.731-27.919,4.898c31.388,11.409,53.809,41.499,53.809,76.83
	s-22.421,65.421-53.809,76.83c8.712,3.167,18.113,4.898,27.919,4.898c45.137,0,81.728-36.591,81.728-81.728
	S297.33,31.47,252.193,31.47z"/>
<path style="fill:#FFE285;" d="M249.383,153.656c-14.215-0.352-24.904-7.988-24.904-14.567c0-3.289,2.937-8.223,6.578-8.223
	c4.464,0,7.988,7.636,18.326,8.811V116.3c-10.69-3.994-22.79-8.576-22.79-23.612c0-14.919,11.042-21.38,22.79-22.907v-3.289
	c0-1.527,1.762-2.937,3.994-2.937c1.997,0,3.994,1.41,3.994,2.937v3.054c7.636,0.235,20.088,2.467,20.088,9.281
	c0,2.702-1.88,8.106-6.226,8.106c-3.289,0-5.99-3.759-13.862-4.347v20.675c10.455,3.877,22.203,9.163,22.203,25.139
	c0,14.449-9.046,22.79-22.203,24.904v3.642c0,1.527-1.997,2.937-3.994,2.937c-2.232,0-3.994-1.409-3.994-2.937L249.383,153.656
	L249.383,153.656z M250.323,100.676V82.938c-5.873,0.94-9.398,3.759-9.398,8.223C240.925,96.329,244.919,98.562,250.323,100.676z
	 M256.431,119.119v20.44c5.169-1.057,8.811-4.112,8.811-9.633C265.242,124.171,261.483,121.351,256.431,119.119z"/>
<path style="fill:#DD3CA7;" d="M315.816,202.54H188.57c-4.205,0-7.614-3.409-7.614-7.614s3.409-7.614,7.614-7.614h127.245
	c4.206,0,7.614,3.409,7.614,7.614S320.021,202.54,315.816,202.54z"/>
<g>
</g>
<g>
</g>
<g>
</g>
<g>
</g>
<g>
</g>
<g>
</g>
<g>
</g>
<g>
</g>
<g>
</g>
<g>
</g>
<g>
</g>
<g>
</g>
<g>
</g>
<g>
</g>
<g>
</g>
</svg>
