<?xml version="1.0" encoding="iso-8859-1"?>
<!-- Generator: Adobe Illustrator 19.0.0, SVG Export Plug-In . SVG Version: 6.00 Build 0)  -->
<svg version="1.1" id="Capa_1" xmlns="http://www.w3.org/2000/svg" xmlns:xlink="http://www.w3.org/1999/xlink" x="0px" y="0px"
	 viewBox="0 0 512 512" style="enable-background:new 0 0 512 512;" xml:space="preserve">
<path style="fill:#1D1D1F;" d="M383.425,124.68v312.093c0,28.776-23.545,52.322-52.322,52.322H180.897
	c-28.776,0-52.322-23.545-52.322-52.322V124.68c0-28.776,23.545-52.322,52.322-52.322h150.206
	C359.88,72.359,383.425,95.904,383.425,124.68z"/>
<path style="fill:#3E3D42;" d="M383.425,124.68v312.093c0,28.776-23.545,52.322-52.322,52.322H200.841
	c-28.776,0-52.322-23.545-52.322-52.322V124.68c0-28.776,23.545-52.322,52.322-52.322h130.262
	C359.88,72.359,383.425,95.904,383.425,124.68z"/>
<path style="fill:#5AAAE7;" d="M320.61,450.011v57.119c0,2.693-2.177,4.87-4.88,4.87H196.27c-2.703,0-4.88-2.177-4.88-4.87v-57.119
	c0-12.412,10.06-22.472,22.472-22.472h84.276c12.103,0,21.967,9.565,22.452,21.544C320.6,449.392,320.61,449.701,320.61,450.011z"/>
<path style="fill:#78B9EB;" d="M320.61,450.011v57.119c0,2.693-2.177,4.87-4.88,4.87H210.643v-40.662
	c0-12.412,10.07-22.482,22.482-22.482h84.265c1.083,0,2.156,0.072,3.199,0.227C320.6,449.392,320.61,449.701,320.61,450.011z"/>
<path style="fill:#C6C5CA;" d="M327.533,10.442v61.917H184.467V10.442C184.467,4.674,189.141,0,194.898,0h122.204
	C322.859,0,327.533,4.674,327.533,10.442z"/>
<path style="fill:#E0E0E2;" d="M327.533,10.442v61.917H200.975V10.442C200.975,4.674,205.649,0,211.407,0h105.696
	C322.859,0,327.533,4.674,327.533,10.442z"/>
<g>
	<path style="fill:#898890;" d="M289.275,31.366h13.929c4.275,0,7.738-3.464,7.738-7.738s-3.464-7.738-7.738-7.738h-13.929
		c-4.275,0-7.738,3.464-7.738,7.738S285,31.366,289.275,31.366z"/>
	<path style="fill:#898890;" d="M208.796,31.366h49.525c4.275,0,7.738-3.464,7.738-7.738s-3.464-7.738-7.738-7.738h-49.525
		c-4.275,0-7.738,3.464-7.738,7.738S204.521,31.366,208.796,31.366z"/>
	<path style="fill:#898890;" d="M303.204,41.34h-49.525c-4.275,0-7.738,3.464-7.738,7.738s3.464,7.738,7.738,7.738h49.525
		c4.275,0,7.738-3.464,7.738-7.738S307.479,41.34,303.204,41.34z"/>
	<path style="fill:#898890;" d="M222.725,41.34h-13.929c-4.275,0-7.738,3.464-7.738,7.738s3.464,7.738,7.738,7.738h13.929
		c4.275,0,7.738-3.464,7.738-7.738S227,41.34,222.725,41.34z"/>
</g>
<path style="fill:#78B9EB;" d="M338.8,135.72v43.097c0,15.477-12.546,28.013-28.023,28.013H201.223
	c-15.477,0-28.023-12.536-28.023-28.013V135.72c0-15.466,12.546-28.013,28.023-28.013h109.554
	C326.254,107.707,338.8,120.254,338.8,135.72z"/>
<path style="fill:#96C8EF;" d="M338.8,135.72v43.097c0,15.477-12.546,28.013-28.023,28.013h-89.61
	c-15.477,0-28.013-12.536-28.013-28.013V135.72c0-15.466,12.536-28.013,28.013-28.013h89.61
	C326.254,107.707,338.8,120.254,338.8,135.72z"/>
<g>
	<path style="fill:#CC7400;" d="M212.531,246.306v14.517c0,5.51-4.509,10.019-10.029,10.019h-10.7
		c-5.51,0-10.019-4.509-10.019-10.019v-14.517c0-5.51,4.509-10.029,10.019-10.029h10.7
		C208.022,236.278,212.531,240.797,212.531,246.306z"/>
	<path style="fill:#CC7400;" d="M330.216,246.306v14.517c0,5.51-4.509,10.019-10.019,10.019h-10.7
		c-5.52,0-10.029-4.509-10.029-10.019v-14.517c0-5.51,4.509-10.029,10.029-10.029h10.7
		C325.707,236.278,330.216,240.797,330.216,246.306z"/>
	<path style="fill:#CC7400;" d="M271.374,246.306v14.517c0,5.51-4.509,10.019-10.029,10.019h-10.689
		c-5.52,0-10.029-4.509-10.029-10.019v-14.517c0-5.51,4.509-10.029,10.029-10.029h10.689
		C266.865,236.278,271.374,240.797,271.374,246.306z"/>
	<path style="fill:#CC7400;" d="M212.531,310.432v14.507c0,5.52-4.509,10.029-10.029,10.029h-10.7
		c-5.51,0-10.019-4.509-10.019-10.029v-14.507c0-5.52,4.509-10.029,10.019-10.029h10.7
		C208.022,300.403,212.531,304.911,212.531,310.432z"/>
	<path style="fill:#CC7400;" d="M330.216,310.432v14.507c0,5.52-4.509,10.029-10.019,10.029h-10.7
		c-5.52,0-10.029-4.509-10.029-10.029v-14.507c0-5.52,4.509-10.029,10.029-10.029h10.7
		C325.707,300.403,330.216,304.911,330.216,310.432z"/>
	<path style="fill:#CC7400;" d="M271.374,310.432v14.507c0,5.52-4.509,10.029-10.029,10.029h-10.689
		c-5.52,0-10.029-4.509-10.029-10.029v-14.507c0-5.52,4.509-10.029,10.029-10.029h10.689
		C266.865,300.403,271.374,304.911,271.374,310.432z"/>
	<path style="fill:#CC7400;" d="M212.531,374.546v14.517c0,5.51-4.509,10.029-10.029,10.029h-10.7
		c-5.51,0-10.019-4.519-10.019-10.029v-14.517c0-5.51,4.509-10.019,10.019-10.019h10.7
		C208.022,364.528,212.531,369.037,212.531,374.546z"/>
	<path style="fill:#CC7400;" d="M330.216,374.546v14.517c0,5.51-4.509,10.029-10.019,10.029h-10.7
		c-5.52,0-10.029-4.519-10.029-10.029v-14.517c0-5.51,4.509-10.019,10.029-10.019h10.7
		C325.707,364.528,330.216,369.037,330.216,374.546z"/>
	<path style="fill:#CC7400;" d="M271.374,374.546v14.517c0,5.51-4.509,10.029-10.029,10.029h-10.689
		c-5.52,0-10.029-4.519-10.029-10.029v-14.517c0-5.51,4.509-10.019,10.029-10.019h10.689
		C266.865,364.528,271.374,369.037,271.374,374.546z"/>
</g>
<g>
	<path style="fill:#EE8700;" d="M212.531,246.306v4.88c0,5.52-4.509,10.029-10.029,10.029h-10.7c-5.51,0-10.019-4.509-10.019-10.029
		v-4.88c0-5.51,4.509-10.029,10.019-10.029h10.7C208.022,236.278,212.531,240.797,212.531,246.306z"/>
	<path style="fill:#EE8700;" d="M330.216,246.306v4.88c0,5.52-4.509,10.029-10.019,10.029h-10.7c-5.52,0-10.029-4.509-10.029-10.029
		v-4.88c0-5.51,4.509-10.029,10.029-10.029h10.7C325.707,236.278,330.216,240.797,330.216,246.306z"/>
	<path style="fill:#EE8700;" d="M271.374,246.306v4.88c0,5.52-4.509,10.029-10.029,10.029h-10.689
		c-5.52,0-10.029-4.509-10.029-10.029v-4.88c0-5.51,4.509-10.029,10.029-10.029h10.689
		C266.865,236.278,271.374,240.797,271.374,246.306z"/>
	<path style="fill:#EE8700;" d="M212.531,310.432v4.88c0,5.51-4.509,10.029-10.029,10.029h-10.7c-5.51,0-10.019-4.519-10.019-10.029
		v-4.88c0-5.52,4.509-10.029,10.019-10.029h10.7C208.022,300.403,212.531,304.911,212.531,310.432z"/>
	<path style="fill:#EE8700;" d="M330.216,310.432v4.88c0,5.51-4.509,10.029-10.019,10.029h-10.7c-5.52,0-10.029-4.519-10.029-10.029
		v-4.88c0-5.52,4.509-10.029,10.029-10.029h10.7C325.707,300.403,330.216,304.911,330.216,310.432z"/>
	<path style="fill:#EE8700;" d="M271.374,310.432v4.88c0,5.51-4.509,10.029-10.029,10.029h-10.689
		c-5.52,0-10.029-4.519-10.029-10.029v-4.88c0-5.52,4.509-10.029,10.029-10.029h10.689
		C266.865,300.403,271.374,304.911,271.374,310.432z"/>
	<path style="fill:#EE8700;" d="M212.531,374.546v4.891c0,5.51-4.509,10.019-10.029,10.019h-10.7
		c-5.51,0-10.019-4.509-10.019-10.019v-4.891c0-5.51,4.509-10.019,10.019-10.019h10.7
		C208.022,364.528,212.531,369.037,212.531,374.546z"/>
	<path style="fill:#EE8700;" d="M330.216,374.546v4.891c0,5.51-4.509,10.019-10.019,10.019h-10.7
		c-5.52,0-10.029-4.509-10.029-10.019v-4.891c0-5.51,4.509-10.019,10.029-10.019h10.7
		C325.707,364.528,330.216,369.037,330.216,374.546z"/>
	<path style="fill:#EE8700;" d="M271.374,374.546v4.891c0,5.51-4.509,10.019-10.029,10.019h-10.689
		c-5.52,0-10.029-4.509-10.029-10.019v-4.891c0-5.51,4.509-10.019,10.029-10.019h10.689
		C266.865,364.528,271.374,369.037,271.374,374.546z"/>
</g>
<path style="fill:#FF5023;" d="M286.429,486.621h-10.346c-5.018,0-9.123-4.105-9.123-9.123v-15.459c0-5.018,4.105-9.123,9.123-9.123
	h10.346c5.018,0,9.123,4.105,9.123,9.123v15.459C295.551,482.517,291.447,486.621,286.429,486.621z"/>
<g>
	<path style="fill:#FFA733;" d="M135.488,221.998l-6.913-3.859v192.85c19.521-7.264,32.491-25.918,32.491-46.771V265.57
		C161.066,247.483,151.285,230.819,135.488,221.998z"/>
	<path style="fill:#FFA733;" d="M376.512,221.998c-15.797,8.822-25.578,25.485-25.578,43.572v98.648
		c0,20.852,12.969,39.507,32.491,46.771v-192.85L376.512,221.998z"/>
</g>
<g>
	<path style="fill:#3D9AE2;" d="M259.704,150l-0.916-0.335c-5.061-1.86-5.061-2.247-5.061-3.281c0-0.969,0.231-1.097,0.496-1.244
		c0.636-0.352,1.738-0.553,3.024-0.553c2.337,0,3.472,0.583,4.574,1.149c0.959,0.494,2.152,1.108,3.745,1.108
		c4.079,0,6.818-3.771,6.818-7.294c0-2.436-1.287-6.474-9.246-8.103c-0.283-3.691-3.377-6.606-7.139-6.606
		c-3.948,0-7.16,3.212-7.16,7.16v0.382c-5.902,2.425-9.224,7.526-9.224,14.356c0,10.946,8.132,14.003,13.518,16.029
		c5.454,2.048,6.209,2.686,6.209,5.242c0,1.759-0.278,3.106-3.759,3.106c-2.877,0-3.76-0.95-4.877-2.155
		c-0.964-1.039-2.575-2.777-5.283-2.777c-4.054,0-6.879,3.844-6.879,7.294c0,4.435,4.26,8.624,10.304,10.488
		c0.201,3.769,3.332,6.773,7.15,6.773c3.887,0,7.06-3.113,7.159-6.975c6.503-2.413,10.296-8.244,10.296-16.109
		C273.454,155.134,264.18,151.673,259.704,150z"/>
	<path style="fill:#3D9AE2;" d="M218.177,151.54l0.075-0.151l-4.697-1.723c-5.061-1.86-5.061-2.247-5.061-3.281
		c0-0.97,0.23-1.097,0.495-1.244c0.636-0.352,1.739-0.553,3.025-0.553c2.338,0,3.473,0.584,4.579,1.152
		c0.957,0.493,2.148,1.105,3.739,1.105c4.079,0,6.818-3.771,6.818-7.294c0-2.436-1.287-6.474-9.247-8.103
		c-0.283-3.691-3.376-6.606-7.138-6.606c-3.948,0-7.16,3.212-7.16,7.16v0.382c-5.902,2.425-9.224,7.526-9.224,14.356
		c0,10.947,8.134,14.004,13.518,16.029c5.454,2.048,6.209,2.687,6.209,5.242c0,1.759-0.278,3.106-3.759,3.106
		c-2.877,0-3.76-0.95-4.877-2.155c-0.964-1.039-2.575-2.777-5.284-2.777c-4.054,0-6.878,3.844-6.878,7.294
		c0,4.435,4.26,8.624,10.304,10.488c0.201,3.768,3.332,6.773,7.15,6.773c3.887,0,7.059-3.113,7.157-6.975
		c6.505-2.412,10.296-8.243,10.296-16.109C228.221,158.025,222.739,153.755,218.177,151.54z"/>
	<path style="fill:#3D9AE2;" d="M304.937,150l-0.916-0.335c-5.061-1.86-5.061-2.247-5.061-3.281c0-0.969,0.231-1.097,0.496-1.244
		c0.636-0.352,1.738-0.553,3.024-0.553c2.337,0,3.472,0.583,4.574,1.149c0.958,0.494,2.152,1.108,3.745,1.108
		c4.079,0,6.818-3.771,6.818-7.294c0-2.436-1.287-6.474-9.246-8.103c-0.283-3.691-3.377-6.606-7.139-6.606
		c-3.948,0-7.16,3.212-7.16,7.16v0.382c-5.902,2.425-9.224,7.526-9.224,14.356c0,10.946,8.132,14.003,13.518,16.029
		c5.454,2.048,6.209,2.686,6.209,5.242c0,1.759-0.278,3.106-3.759,3.106c-2.877,0-3.76-0.95-4.877-2.155
		c-0.964-1.039-2.575-2.777-5.283-2.777c-4.054,0-6.879,3.844-6.879,7.294c0,4.435,4.26,8.624,10.304,10.488
		c0.201,3.769,3.332,6.773,7.15,6.773c3.887,0,7.06-3.113,7.158-6.975c6.503-2.413,10.296-8.244,10.296-16.109
		C318.687,155.134,309.413,151.673,304.937,150z"/>
</g>
<g>
</g>
<g>
</g>
<g>
</g>
<g>
</g>
<g>
</g>
<g>
</g>
<g>
</g>
<g>
</g>
<g>
</g>
<g>
</g>
<g>
</g>
<g>
</g>
<g>
</g>
<g>
</g>
<g>
</g>
</svg>
