<svg height="512pt" viewBox="-118 0 512 512" width="512pt" xmlns="http://www.w3.org/2000/svg"><path d="m245.59375 160.261719h16.648438c8.046874 0 14.570312 6.519531 14.570312 14.566406v210.210937c0 8.046876-6.523438 14.570313-14.570312 14.570313h-16.648438zm0 0" fill="#495959"/><path d="m262.242188 160.261719v222.699219h-16.648438v16.648437h16.648438c8.046874 0 14.570312-6.523437 14.570312-14.570313v-210.210937c0-8.046875-6.523438-14.566406-14.570312-14.566406zm0 0" fill="#3f4a4a"/><path d="m208.085938 512h-170.578126c-9.753906 0-18.199218-6.773438-20.316406-16.296875l-15.210937-68.441406c-1.316407-5.929688-1.980469-11.984375-1.980469-18.058594v-273.917969c0-22.988281 18.636719-41.625 41.625-41.625h162.34375c22.988281 0 41.625 18.636719 41.625 41.625v273.917969c0 6.074219-.664062 12.132813-1.984375 18.0625l-15.207031 68.4375c-2.117188 9.523437-10.5625 16.296875-20.316406 16.296875zm0 0" fill="#bce8f1"/><path d="m203.96875 93.660156h-14.570312v41.625h14.570312v-13.242187c0-2.910157 2.910156-4.921875 5.632812-3.902344 9.472657 3.546875 16.21875 12.675781 16.21875 23.386719v282.246094c0 6.074218-.664062 12.128906-1.980468 18.058593l-15.210938 68.441407c-.128906.585937-.285156 1.160156-.460937 1.722656 9.71875-.035156 18.125-6.796875 20.234375-16.292969l15.207031-68.4375c1.320313-5.929687 1.984375-11.988281 1.984375-18.0625v-273.917969c0-22.988281-18.636719-41.625-41.625-41.625zm0 0" fill="#93dcfc"/><path d="m182.246094 474.855469c-3.230469-7.753907-10.808594-12.804688-19.210938-12.804688h-80.476562c-8.402344 0-15.980469 5.050781-19.214844 12.804688l-15.476562 37.144531h149.855468zm0 0" fill="#495959"/><path d="m182.246094 474.855469c-3.230469-7.753907-10.808594-12.804688-19.210938-12.804688h-20.8125c8.402344 0 15.980469 5.050781 19.210938 12.804688l15.476562 37.144531h20.8125zm0 0" fill="#3f4a4a"/><g fill="#ffcd50"><path d="m62.4375 418.339844h-22.890625c-2.300781 0-4.164063-1.863282-4.164063-4.160156v-22.894532c0-2.300781 1.863282-4.164062 4.164063-4.164062h22.890625c2.300781 0 4.164062 1.863281 4.164062 4.164062v22.894532c0 2.296874-1.863281 4.160156-4.164062 4.160156zm0 0"/><path d="m134.242188 418.339844h-22.894532c-2.296875 0-4.160156-1.863282-4.160156-4.160156v-22.894532c0-2.300781 1.863281-4.164062 4.160156-4.164062h22.894532c2.300781 0 4.164062 1.863281 4.164062 4.164062v22.894532c0 2.296874-1.863281 4.160156-4.164062 4.160156zm0 0"/><path d="m206.046875 418.339844h-22.894531c-2.296875 0-4.160156-1.863282-4.160156-4.160156v-22.894532c0-2.300781 1.863281-4.164062 4.160156-4.164062h22.894531c2.300781 0 4.164063 1.863281 4.164063 4.164062v22.894532c0 2.296874-1.863282 4.160156-4.164063 4.160156zm0 0"/><path d="m62.4375 355.902344h-22.890625c-2.300781 0-4.164063-1.863282-4.164063-4.164063v-22.894531c0-2.296875 1.863282-4.160156 4.164063-4.160156h22.890625c2.300781 0 4.164062 1.863281 4.164062 4.160156v22.894531c0 2.300781-1.863281 4.164063-4.164062 4.164063zm0 0"/><path d="m134.242188 355.902344h-22.894532c-2.296875 0-4.160156-1.863282-4.160156-4.164063v-22.894531c0-2.296875 1.863281-4.160156 4.160156-4.160156h22.894532c2.300781 0 4.164062 1.863281 4.164062 4.160156v22.894531c0 2.300781-1.863281 4.164063-4.164062 4.164063zm0 0"/><path d="m206.046875 355.902344h-22.894531c-2.296875 0-4.160156-1.863282-4.160156-4.164063v-22.894531c0-2.296875 1.863281-4.160156 4.160156-4.160156h22.894531c2.300781 0 4.164063 1.863281 4.164063 4.160156v22.894531c0 2.300781-1.863282 4.164063-4.164063 4.164063zm0 0"/><path d="m62.4375 293.464844h-22.890625c-2.300781 0-4.164063-1.867188-4.164063-4.164063v-22.894531c0-2.300781 1.863282-4.164062 4.164063-4.164062h22.890625c2.300781 0 4.164062 1.863281 4.164062 4.164062v22.894531c0 2.300781-1.863281 4.164063-4.164062 4.164063zm0 0"/><path d="m134.242188 293.464844h-22.894532c-2.296875 0-4.160156-1.867188-4.160156-4.164063v-22.894531c0-2.300781 1.863281-4.164062 4.160156-4.164062h22.894532c2.300781 0 4.164062 1.863281 4.164062 4.164062v22.894531c0 2.300781-1.863281 4.164063-4.164062 4.164063zm0 0"/><path d="m206.046875 293.464844h-22.894531c-2.296875 0-4.160156-1.867188-4.160156-4.164063v-22.894531c0-2.300781 1.863281-4.164062 4.160156-4.164062h22.894531c2.300781 0 4.164063 1.863281 4.164063 4.164062v22.894531c0 2.300781-1.863282 4.164063-4.164063 4.164063zm0 0"/></g><path d="m199.804688 233.105469h-154.015626c-5.75 0-10.40625-4.660157-10.40625-10.40625v-45.789063c0-5.746094 4.65625-10.40625 10.40625-10.40625h154.015626c5.746093 0 10.40625 4.65625 10.40625 10.40625v45.789063c0 5.746093-4.660157 10.40625-10.40625 10.40625zm0 0" fill="#6dc54a"/><path d="m191.480469 166.503906v66.601563h8.324219c5.746093 0 10.40625-4.660157 10.40625-10.40625v-45.789063c0-5.746094-4.660157-10.40625-10.40625-10.40625zm0 0" fill="#5db33a"/><path d="m189.398438 20.8125c0-11.746094 9.730468-21.21875 21.570312-20.796875 11.277344.398437 20.054688 10.011719 20.054688 21.296875v14.070312c0 5.746094-4.660157 10.40625-10.40625 10.40625h-31.21875zm0 0" fill="#93dcfc"/><path d="m77.007812 0h133.203126c-11.496094 0-20.8125 9.316406-20.8125 20.8125v114.472656h-133.203126v-114.472656c0-11.496094 9.316407-20.8125 20.8125-20.8125zm0 0" fill="#ddf5ff"/><path d="m193.558594 0c-11.492188 0-20.8125 9.316406-20.8125 20.8125v114.472656h16.652344v-114.472656c0-11.496094 9.316406-20.8125 20.8125-20.8125zm0 0" fill="#c1e9f4"/><path d="m210.210938 143.089844h-174.828126c-4.3125 0-7.804687-3.496094-7.804687-7.804688 0-4.3125 3.492187-7.804687 7.804687-7.804687h174.828126c4.3125 0 7.804687 3.492187 7.804687 7.804687 0 4.308594-3.492187 7.804688-7.804687 7.804688zm0 0" fill="#93dcfc"/><path d="m154.015625 52.554688h-62.4375c-4.3125 0-7.804687-3.496094-7.804687-7.808594 0-4.308594 3.492187-7.804688 7.804687-7.804688h62.4375c4.3125 0 7.804687 3.496094 7.804687 7.804688 0 4.3125-3.492187 7.808594-7.804687 7.808594zm0 0" fill="#495959"/><path d="m154.015625 82.730469h-62.4375c-4.3125 0-7.804687-3.492188-7.804687-7.804688 0-4.308593 3.492187-7.804687 7.804687-7.804687h62.4375c4.3125 0 7.804687 3.496094 7.804687 7.804687 0 4.3125-3.492187 7.804688-7.804687 7.804688zm0 0" fill="#495959"/><path d="m154.015625 112.910156h-62.4375c-4.3125 0-7.804687-3.492187-7.804687-7.804687 0-4.308594 3.492187-7.804688 7.804687-7.804688h62.4375c4.3125 0 7.804687 3.496094 7.804687 7.804688 0 4.308593-3.492187 7.804687-7.804687 7.804687zm0 0" fill="#495959"/></svg>