<?xml version="1.0" encoding="iso-8859-1"?>
<!-- Generator: Adobe Illustrator 21.0.0, SVG Export Plug-In . SVG Version: 6.00 Build 0)  -->
<svg version="1.1" id="Capa_1" xmlns="http://www.w3.org/2000/svg" xmlns:xlink="http://www.w3.org/1999/xlink" x="0px" y="0px"
	 viewBox="0 0 512.001 512.001" style="enable-background:new 0 0 512.001 512.001;" xml:space="preserve">
<path style="fill:#5CC45C;" d="M436.122,414.962H14.948c-4.113,0-7.448-3.335-7.448-7.448V159.348c0-4.113,3.335-7.448,7.448-7.448
	h421.174c4.113,0,7.448,3.335,7.448,7.448v248.166C443.569,411.627,440.235,414.962,436.122,414.962z"/>
<path style="fill:#4EAD4E;" d="M436.122,151.9H14.948c-4.113,0-7.448,3.335-7.448,7.448v241.737h436.069V159.348
	C443.569,155.235,440.235,151.9,436.122,151.9z"/>
<path style="fill:#5CC45C;" d="M465.588,388.53H44.415c-4.113,0-7.448-3.335-7.448-7.448V132.917c0-4.113,3.335-7.448,7.448-7.448
	h421.174c4.113,0,7.448,3.335,7.448,7.448v248.166C473.036,385.196,469.702,388.53,465.588,388.53z"/>
<path style="fill:#4EAD4E;" d="M465.588,125.469H44.415c-4.113,0-7.448,3.334-7.448,7.448v240.614h436.069V132.917
	C473.036,128.803,469.702,125.469,465.588,125.469z"/>
<path style="fill:#5CC45C;" d="M497.052,360.102H75.878c-4.113,0-7.448-3.335-7.448-7.448V104.488c0-4.113,3.335-7.448,7.448-7.448
	h421.174c4.113,0,7.448,3.335,7.448,7.448v248.166C504.5,356.767,501.165,360.102,497.052,360.102z"/>
<path style="fill:#4EAD4E;" d="M497.052,97.04h-46.416v263.062h46.416c4.113,0,7.448-3.335,7.448-7.448V104.488
	C504.5,100.375,501.165,97.04,497.052,97.04z"/>
<path style="fill:#A0E557;" d="M125.737,333.075c-1.574-15.967-14.312-28.706-30.28-30.28c-0.903-0.089-1.582-0.864-1.582-1.771
	V156.118c0-0.907,0.679-1.682,1.582-1.771c15.967-1.574,28.706-14.312,30.28-30.28c0.089-0.903,0.864-1.582,1.771-1.582h317.915
	c0.907,0,1.682,0.679,1.771,1.582c1.574,15.967,14.312,28.706,30.28,30.28c0.903,0.089,1.582,0.864,1.582,1.771v144.907
	c0,0.907-0.679,1.682-1.582,1.771c-15.967,1.574-28.706,14.312-30.28,30.28c-0.089,0.903-0.864,1.582-1.771,1.582H127.508
	C126.601,334.657,125.826,333.978,125.737,333.075z"/>
<path style="fill:#93CC4A;" d="M477.473,154.346c-15.967-1.573-28.706-14.312-30.28-30.28c-0.089-0.903-0.864-1.582-1.771-1.582
	h-21.367v212.172h21.367c0.907,0,1.682-0.679,1.771-1.582c1.574-15.967,14.312-28.706,30.28-30.28
	c0.903-0.089,1.582-0.864,1.582-1.771V156.117C479.055,155.21,478.376,154.435,477.473,154.346z"/>
<circle style="fill:#F3E8D7;" cx="286.46" cy="228.571" r="71.965"/>
<path style="fill:#DDD1C3;" d="M286.465,156.606c-9.742,0-19.026,1.946-27.5,5.453c26.099,10.803,44.465,36.508,44.465,66.511
	s-18.366,55.708-44.465,66.511c8.474,3.508,17.758,5.453,27.5,5.453c39.745,0,71.965-32.22,71.965-71.965
	C358.43,188.826,326.21,156.606,286.465,156.606z"/>
<path d="M264.376,264.095c-2.865,0-5.196-1.466-5.196-4.332c0-1.779,0.895-3.414,2.393-4.374c2.726-1.747,6.555-4.599,9.32-8.264
	c3.454-4.577,4.375-9.204,2.738-13.751c-0.393-1.092-1.44-1.826-2.604-1.826h-6.648c-2.807,0-5.091-2.284-5.091-5.091
	s2.284-5.091,5.091-5.091h3.627c0.828,0,1.607-0.366,2.135-1.004c0.526-0.636,0.74-1.465,0.585-2.275
	c-0.898-4.714-2.287-16.525,4.199-24.363c4.146-5.011,10.876-7.551,20.001-7.551c2.597,0,6.577,0.497,9.557,0.907
	c1.471,0.203,2.755,0.978,3.617,2.183c0.857,1.199,1.174,2.655,0.893,4.101c-0.484,2.49-2.683,4.298-5.23,4.298l0,0
	c-0.318,0-0.64-0.029-0.957-0.085c-2.323-0.416-5.689-0.914-7.731-0.914c-5.766,0-9.872,1.65-12.206,4.905
	c-2.787,3.886-2.824,9.916-0.112,17.922c0.381,1.123,1.434,1.878,2.621,1.878h13.147c2.883,0,5.228,2.345,5.228,5.228
	s-2.345,5.228-5.228,5.228h-10.109c-0.783,0-1.533,0.333-2.058,0.915c-0.523,0.579-0.777,1.355-0.698,2.13
	c0.254,2.477,0.283,9.264-2.242,13.413c-0.525,0.863-0.543,1.617-0.048,2.499c0.497,0.884,1.399,1.412,2.413,1.412h21.437
	c3.6,0,6.528,2.64,6.528,6.24c0,3.6-2.929,5.664-6.528,5.664h-42.844V264.095z"/>
<path d="M497.052,89.54H75.878c-8.242,0-14.948,6.706-14.948,14.948v13.481H44.415c-8.242,0-14.948,6.706-14.948,14.948V144.4
	H14.948C6.706,144.4,0,151.105,0,159.348v248.166c0,8.243,6.706,14.948,14.948,14.948h421.174c8.242,0,14.948-6.706,14.948-14.948
	v-11.483h14.519c8.242,0,14.948-6.706,14.948-14.948v-13.481h16.516c8.242,0,14.948-6.706,14.948-14.948V104.488
	C512,96.246,505.294,89.54,497.052,89.54z M15,407.514L14.948,159.4h14.519v221.683c0,8.242,6.706,14.948,14.948,14.948H436.09
	l0.032,11.432L15,407.514z M44.467,381.083l-0.052-248.114h16.516v219.685c0,8.242,6.706,14.948,14.948,14.948h389.676l0.034,13.429
	l-21.965,0.003c-0.018,0-0.036-0.003-0.054-0.003c-0.018,0-0.036,0.003-0.054,0.003L44.467,381.083 M75.931,352.654L75.879,104.54
	L497,104.488l0.056,248.114l-23.961,0.003c-0.02,0-0.039-0.003-0.059-0.003s-0.039,0.003-0.059,0.003L75.931,352.654"/>
<path d="M269.017,327.157H132.354c-3.529-15.346-15.631-27.449-30.978-30.979V160.963c15.346-3.53,27.448-15.632,30.978-30.979
	h136.664c4.142,0,7.5-3.358,7.5-7.5s-3.358-7.5-7.5-7.5h-141.51c-4.796,0-8.767,3.588-9.235,8.347
	c-1.224,12.422-11.128,22.327-23.55,23.551c-4.759,0.468-8.347,4.438-8.347,9.235v144.907c0,4.796,3.588,8.767,8.347,9.235
	c12.422,1.224,22.327,11.128,23.551,23.55c0.468,4.759,4.438,8.348,9.235,8.348h141.509c4.142,0,7.5-3.358,7.5-7.5
	S273.159,327.157,269.017,327.157z"/>
<path d="M478.209,146.883c-12.423-1.224-22.327-11.129-23.552-23.555c-0.471-4.756-4.441-8.343-9.235-8.343H303.914
	c-4.142,0-7.5,3.358-7.5,7.5s3.358,7.5,7.5,7.5h136.664c3.53,15.346,15.631,27.448,30.978,30.978v135.216
	c-15.347,3.53-27.45,15.633-30.979,30.979H303.914c-4.142,0-7.5,3.358-7.5,7.5s3.358,7.5,7.5,7.5h141.509
	c4.794,0,8.764-3.587,9.235-8.347c1.224-12.422,11.128-22.327,23.55-23.551c4.759-0.468,8.347-4.438,8.347-9.235V156.118
	C486.555,151.321,482.967,147.351,478.209,146.883z"/>
<path d="M365.93,228.571c0-43.817-35.648-79.465-79.465-79.465S207,184.754,207,228.571s35.648,79.465,79.465,79.465
	S365.93,272.388,365.93,228.571z M286.465,293.036c-35.546,0-64.465-28.919-64.465-64.465s28.919-64.465,64.465-64.465
	s64.465,28.919,64.465,64.465S322.011,293.036,286.465,293.036z"/>
<g>
</g>
<g>
</g>
<g>
</g>
<g>
</g>
<g>
</g>
<g>
</g>
<g>
</g>
<g>
</g>
<g>
</g>
<g>
</g>
<g>
</g>
<g>
</g>
<g>
</g>
<g>
</g>
<g>
</g>
</svg>
