<?xml version="1.0" encoding="iso-8859-1"?>
<!-- Generator: Adobe Illustrator 21.0.0, SVG Export Plug-In . SVG Version: 6.00 Build 0)  -->
<svg version="1.1" id="Capa_1" xmlns="http://www.w3.org/2000/svg" xmlns:xlink="http://www.w3.org/1999/xlink" x="0px" y="0px"
	 viewBox="0 0 512 512" style="enable-background:new 0 0 512 512;" xml:space="preserve">
<path style="fill:#5CC45C;" d="M441.558,419.759H7.673c-4.238,0-7.673-3.435-7.673-7.673V156.43c0-4.238,3.435-7.673,7.673-7.673
	h433.885c4.238,0,7.673,3.435,7.673,7.673v255.656C449.23,416.323,445.795,419.759,441.558,419.759z"/>
<path style="fill:#4EAD4E;" d="M441.558,148.757H7.673c-4.238,0-7.673,3.435-7.673,7.673v249.033h449.23V156.43
	C449.23,152.193,445.795,148.757,441.558,148.757z"/>
<path style="fill:#5CC45C;" d="M471.914,392.529H38.029c-4.238,0-7.673-3.435-7.673-7.673V129.201c0-4.238,3.435-7.673,7.673-7.673
	h433.885c4.238,0,7.673,3.435,7.673,7.673v255.656C479.586,389.094,476.151,392.529,471.914,392.529z"/>
<path style="fill:#4EAD4E;" d="M471.914,121.528H38.029c-4.238,0-7.673,3.435-7.673,7.673v247.876h449.23V129.201
	C479.587,124.963,476.151,121.528,471.914,121.528z"/>
<path style="fill:#5CC45C;" d="M504.327,363.243H70.442c-4.238,0-7.673-3.435-7.673-7.673V99.914c0-4.238,3.435-7.673,7.673-7.673
	h433.885c4.238,0,7.673,3.435,7.673,7.673V355.57C512,359.807,508.565,363.243,504.327,363.243z"/>
<path style="fill:#4EAD4E;" d="M504.327,92.241H456.51v271.001h47.817c4.238,0,7.673-3.435,7.673-7.673V99.914
	C512,95.677,508.565,92.241,504.327,92.241z"/>
<path style="fill:#A0E557;" d="M121.805,335.4c-1.621-16.449-14.744-29.572-31.193-31.193c-0.93-0.092-1.63-0.89-1.63-1.824v-149.28
	c0-0.934,0.7-1.733,1.63-1.824c16.449-1.621,29.572-14.744,31.193-31.193c0.092-0.93,0.89-1.63,1.824-1.63h327.51
	c0.934,0,1.733,0.7,1.824,1.63c1.621,16.449,14.744,29.572,31.193,31.193c0.93,0.092,1.63,0.89,1.63,1.824v149.28
	c0,0.934-0.7,1.733-1.63,1.824c-16.449,1.621-29.572,14.744-31.193,31.193c-0.092,0.93-0.89,1.63-1.824,1.63H123.63
	C122.695,337.03,121.897,336.33,121.805,335.4z"/>
<path style="fill:#93CC4A;" d="M484.158,151.277c-16.449-1.621-29.572-14.744-31.193-31.193c-0.092-0.93-0.89-1.63-1.824-1.63
	h-22.012V337.03h22.012c0.934,0,1.733-0.7,1.824-1.63c1.621-16.449,14.744-29.572,31.193-31.193c0.93-0.092,1.63-0.89,1.63-1.825
	v-149.28C485.787,152.168,485.088,151.369,484.158,151.277z"/>
<circle style="fill:#F3E8D7;" cx="287.38" cy="227.74" r="74.14"/>
<path style="fill:#DDD1C3;" d="M287.385,153.605c-10.036,0-19.6,2.005-28.33,5.618c26.886,11.129,45.807,37.61,45.807,68.519
	s-18.92,57.389-45.807,68.519c8.73,3.613,18.294,5.618,28.33,5.618c40.945,0,74.137-33.192,74.137-74.137
	S328.329,153.605,287.385,153.605z"/>
<path style="fill:#4EAD4E;" d="M264.629,264.339c-2.952,0-5.353-1.511-5.353-4.462c0-1.833,0.922-3.517,2.465-4.506
	c2.808-1.8,6.753-4.738,9.601-8.513c3.558-4.715,4.507-9.482,2.821-14.166c-0.405-1.125-1.483-1.881-2.683-1.881h-6.848
	c-2.892,0-5.244-2.353-5.244-5.244c0-2.892,2.353-5.244,5.244-5.244h3.737c0.853,0,1.655-0.377,2.199-1.035
	c0.542-0.655,0.762-1.509,0.603-2.344c-0.925-4.856-2.356-17.023,4.326-25.098c4.271-5.162,11.204-7.779,20.605-7.779
	c2.675,0,6.776,0.512,9.846,0.935c1.515,0.209,2.839,1.007,3.727,2.249c0.883,1.235,1.21,2.735,0.92,4.225
	c-0.499,2.565-2.764,4.427-5.387,4.427l0,0c-0.328,0-0.66-0.03-0.986-0.088c-2.393-0.428-5.861-0.942-7.964-0.942
	c-5.94,0-10.17,1.7-12.575,5.053c-2.871,4.004-2.909,10.215-0.115,18.462c0.392,1.157,1.478,1.935,2.701,1.935h13.544
	c2.97,0,5.385,2.416,5.385,5.385s-2.416,5.385-5.385,5.385h-10.414c-0.806,0-1.579,0.343-2.12,0.942
	c-0.539,0.597-0.8,1.396-0.719,2.194c0.262,2.552,0.292,9.544-2.31,13.818c-0.541,0.889-0.56,1.666-0.049,2.574
	c0.512,0.911,1.441,1.455,2.486,1.455h22.084c3.709,0,6.725,2.72,6.725,6.429c0,3.709-3.017,5.835-6.725,5.835L264.629,264.339
	L264.629,264.339z"/>
<g>
</g>
<g>
</g>
<g>
</g>
<g>
</g>
<g>
</g>
<g>
</g>
<g>
</g>
<g>
</g>
<g>
</g>
<g>
</g>
<g>
</g>
<g>
</g>
<g>
</g>
<g>
</g>
<g>
</g>
</svg>
