<?xml version="1.0" encoding="iso-8859-1"?>
<!-- Generator: Adobe Illustrator 19.0.0, SVG Export Plug-In . SVG Version: 6.00 Build 0)  -->
<svg version="1.1" id="Capa_1" xmlns="http://www.w3.org/2000/svg" xmlns:xlink="http://www.w3.org/1999/xlink" x="0px" y="0px"
	 viewBox="0 0 512 512" style="enable-background:new 0 0 512 512;" xml:space="preserve">
<g>
	<path style="fill:#3E3D42;" d="M438.096,356.08v111.513c0,6.841-5.539,12.39-12.38,12.39h-43.231c-6.841,0-12.39-5.55-12.39-12.39
		V356.08H438.096z"/>
	<path style="fill:#3E3D42;" d="M141.905,356.08v111.513c0,6.841-5.55,12.39-12.39,12.39H86.284c-6.841,0-12.38-5.55-12.38-12.39
		V356.08H141.905z"/>
</g>
<g>
	<rect x="73.904" y="356.08" style="fill:#2D2D30;" width="68.001" height="94.749"/>
	<rect x="370.095" y="356.08" style="fill:#2D2D30;" width="68.001" height="94.749"/>
</g>
<path style="fill:#3E3D42;" d="M512,77.601v302.906c0,25.176-20.408,45.584-45.584,45.584H45.584
	C20.408,426.091,0,405.683,0,380.507V77.601c0-25.176,20.408-45.584,45.584-45.584h420.832C491.592,32.017,512,52.424,512,77.601z"
	/>
<path style="fill:#57565C;" d="M512,77.601v302.906c0,25.176-20.408,45.584-45.584,45.584H73.79
	c-25.176,0-45.584-20.408-45.584-45.584V77.601c0-25.176,20.408-45.584,45.584-45.584h392.626C491.592,32.017,512,52.424,512,77.601
	z"/>
<path style="fill:#ACABB1;" d="M472.611,95.02v268.068c0,11.557-9.371,20.928-20.928,20.928H60.317
	c-11.557,0-20.928-9.371-20.928-20.928V95.02c0-11.557,9.371-20.928,20.928-20.928h391.367
	C463.241,74.092,472.611,83.463,472.611,95.02z"/>
<path style="fill:#C6C5CA;" d="M472.611,95.02v239.955c0,11.557-9.371,20.928-20.928,20.928H87.326
	c-11.557,0-20.928-9.371-20.928-20.928V74.092h385.286C463.241,74.092,472.611,83.463,472.611,95.02z"/>
<g>
	<path style="fill:#1D1D1F;" d="M492.353,276.98v42.169c0,6.768-5.487,12.255-12.255,12.255h-16.097
		c-6.768,0-12.255-5.487-12.255-12.255V276.98c0-6.768,5.487-12.255,12.255-12.255h16.097
		C486.865,264.725,492.353,270.212,492.353,276.98z"/>
	<path style="fill:#1D1D1F;" d="M492.353,138.959v42.169c0,6.768-5.487,12.255-12.255,12.255h-16.097
		c-6.768,0-12.255-5.487-12.255-12.255v-42.169c0-6.768,5.487-12.255,12.255-12.255h16.097
		C486.865,126.704,492.353,132.191,492.353,138.959z"/>
</g>
<g>
	<path style="fill:#2D2D30;" d="M492.353,276.98v33.079h-7.007c-6.768,0-12.255-5.487-12.255-12.255v-33.079h7.007
		C486.865,264.725,492.353,270.212,492.353,276.98z"/>
	<path style="fill:#2D2D30;" d="M492.353,138.959v33.079h-7.007c-6.768,0-12.255-5.487-12.255-12.255v-33.079h7.007
		C486.865,126.704,492.353,132.191,492.353,138.959z"/>
</g>
<path style="fill:#898890;" d="M139.708,156.128c-40.274,0-72.926,32.652-72.926,72.926s32.652,72.926,72.926,72.926
	c40.284,0,72.936-32.652,72.936-72.926S179.992,156.128,139.708,156.128z"/>
<path style="fill:#787680;" d="M185.729,242.798c-5.904,19.824-24.281,34.276-46.021,34.276s-40.107-14.452-46.011-34.276
	c-1.302-4.352-1.999-8.965-1.999-13.744c0-4.779,0.698-9.392,1.999-13.744c5.904-19.824,24.27-34.276,46.011-34.276
	s40.117,14.452,46.021,34.276c1.301,4.352,1.999,8.965,1.999,13.744C187.728,233.833,187.031,238.445,185.729,242.798z"/>
<path style="fill:#57565C;" d="M187.73,229.056c0,4.781-0.698,9.39-2.001,13.745H93.697c-1.304-4.355-2.001-8.964-2.001-13.745
	s0.698-9.39,2.001-13.745h92.032C187.033,219.665,187.73,224.275,187.73,229.056z"/>
<path style="fill:#787680;" d="M422.884,167.092v123.924c0,15.493-12.557,28.05-28.04,28.05H267.682
	c-15.493,0-28.05-12.557-28.05-28.05V167.092c0-15.493,12.557-28.05,28.05-28.05h127.162
	C410.327,139.042,422.884,151.599,422.884,167.092z"/>
<path style="fill:#898890;" d="M440.063,167.092v123.924c0,15.493-21.49,28.05-38.659,28.05H296.19
	c-17.18,0-31.104-12.557-31.104-28.05V167.092c0-15.493,13.924-28.05,31.104-28.05h105.215
	C418.573,139.042,440.063,151.599,440.063,167.092z"/>
<g>
	<path style="fill:#C6C5CA;" d="M294.618,168.893v12.234c0,4.644-3.8,8.444-8.455,8.444h-9.017c-4.644,0-8.444-3.8-8.444-8.444
		v-12.234c0-4.654,3.8-8.455,8.444-8.455h9.017C290.818,160.439,294.618,164.239,294.618,168.893z"/>
	<path style="fill:#C6C5CA;" d="M393.824,168.893v12.234c0,4.644-3.811,8.444-8.455,8.444h-9.017c-4.644,0-8.455-3.8-8.455-8.444
		v-12.234c0-4.654,3.811-8.455,8.455-8.455h9.017C390.013,160.439,393.824,164.239,393.824,168.893z"/>
	<path style="fill:#C6C5CA;" d="M344.221,168.893v12.234c0,4.644-3.8,8.444-8.455,8.444h-9.017c-4.644,0-8.444-3.8-8.444-8.444
		v-12.234c0-4.654,3.8-8.455,8.444-8.455h9.017C340.421,160.439,344.221,164.239,344.221,168.893z"/>
	<path style="fill:#C6C5CA;" d="M294.618,222.942v12.224c0,4.654-3.8,8.455-8.455,8.455h-9.017c-4.644,0-8.444-3.8-8.444-8.455
		v-12.224c0-4.654,3.8-8.455,8.444-8.455h9.017C290.818,214.487,294.618,218.288,294.618,222.942z"/>
	<path style="fill:#C6C5CA;" d="M393.824,222.942v12.224c0,4.654-3.811,8.455-8.455,8.455h-9.017c-4.644,0-8.455-3.8-8.455-8.455
		v-12.224c0-4.654,3.811-8.455,8.455-8.455h9.017C390.013,214.487,393.824,218.288,393.824,222.942z"/>
	<path style="fill:#C6C5CA;" d="M344.221,222.942v12.224c0,4.654-3.8,8.455-8.455,8.455h-9.017c-4.644,0-8.444-3.8-8.444-8.455
		v-12.224c0-4.654,3.8-8.455,8.444-8.455h9.017C340.421,214.487,344.221,218.288,344.221,222.942z"/>
	<path style="fill:#C6C5CA;" d="M294.618,276.98v12.234c0,4.654-3.8,8.455-8.455,8.455h-9.017c-4.644,0-8.444-3.8-8.444-8.455
		V276.98c0-4.644,3.8-8.444,8.444-8.444h9.017C290.818,268.536,294.618,272.336,294.618,276.98z"/>
	<path style="fill:#C6C5CA;" d="M393.824,276.98v12.234c0,4.654-3.811,8.455-8.455,8.455h-9.017c-4.644,0-8.455-3.8-8.455-8.455
		V276.98c0-4.644,3.811-8.444,8.455-8.444h9.017C390.013,268.536,393.824,272.336,393.824,276.98z"/>
	<path style="fill:#C6C5CA;" d="M344.221,276.98v12.234c0,4.654-3.8,8.455-8.455,8.455h-9.017c-4.644,0-8.444-3.8-8.444-8.455
		V276.98c0-4.644,3.8-8.444,8.444-8.444h9.017C340.421,268.536,344.221,272.336,344.221,276.98z"/>
</g>
<g>
	<path style="fill:#E0E0E2;" d="M294.618,168.893v5.466c0,4.644-3.8,8.444-8.455,8.444h-9.017c-4.644,0-8.444-3.8-8.444-8.444
		v-5.466c0-4.654,3.8-8.455,8.444-8.455h9.017C290.818,160.439,294.618,164.239,294.618,168.893z"/>
	<path style="fill:#E0E0E2;" d="M393.824,168.893v5.466c0,4.644-3.811,8.444-8.455,8.444h-9.017c-4.644,0-8.455-3.8-8.455-8.444
		v-5.466c0-4.654,3.811-8.455,8.455-8.455h9.017C390.013,160.439,393.824,164.239,393.824,168.893z"/>
	<path style="fill:#E0E0E2;" d="M344.221,168.893v5.466c0,4.644-3.8,8.444-8.455,8.444h-9.017c-4.644,0-8.444-3.8-8.444-8.444
		v-5.466c0-4.654,3.8-8.455,8.444-8.455h9.017C340.421,160.439,344.221,164.239,344.221,168.893z"/>
	<path style="fill:#E0E0E2;" d="M294.618,222.942v5.456c0,4.654-3.8,8.455-8.455,8.455h-9.017c-4.644,0-8.444-3.8-8.444-8.455
		v-5.456c0-4.654,3.8-8.455,8.444-8.455h9.017C290.818,214.487,294.618,218.288,294.618,222.942z"/>
	<path style="fill:#E0E0E2;" d="M393.824,222.942v5.456c0,4.654-3.811,8.455-8.455,8.455h-9.017c-4.644,0-8.455-3.8-8.455-8.455
		v-5.456c0-4.654,3.811-8.455,8.455-8.455h9.017C390.013,214.487,393.824,218.288,393.824,222.942z"/>
	<path style="fill:#E0E0E2;" d="M344.221,222.942v5.456c0,4.654-3.8,8.455-8.455,8.455h-9.017c-4.644,0-8.444-3.8-8.444-8.455
		v-5.456c0-4.654,3.8-8.455,8.444-8.455h9.017C340.421,214.487,344.221,218.288,344.221,222.942z"/>
	<path style="fill:#E0E0E2;" d="M294.618,276.98v5.466c0,4.654-3.8,8.455-8.455,8.455h-9.017c-4.644,0-8.444-3.8-8.444-8.455v-5.466
		c0-4.644,3.8-8.444,8.444-8.444h9.017C290.818,268.536,294.618,272.336,294.618,276.98z"/>
	<path style="fill:#E0E0E2;" d="M393.824,276.98v5.466c0,4.654-3.811,8.455-8.455,8.455h-9.017c-4.644,0-8.455-3.8-8.455-8.455
		v-5.466c0-4.644,3.811-8.444,8.455-8.444h9.017C390.013,268.536,393.824,272.336,393.824,276.98z"/>
	<path style="fill:#E0E0E2;" d="M344.221,276.98v5.466c0,4.654-3.8,8.455-8.455,8.455h-9.017c-4.644,0-8.444-3.8-8.444-8.455v-5.466
		c0-4.644,3.8-8.444,8.444-8.444h9.017C340.421,268.536,344.221,272.336,344.221,276.98z"/>
</g>
<g>
</g>
<g>
</g>
<g>
</g>
<g>
</g>
<g>
</g>
<g>
</g>
<g>
</g>
<g>
</g>
<g>
</g>
<g>
</g>
<g>
</g>
<g>
</g>
<g>
</g>
<g>
</g>
<g>
</g>
</svg>
