<?xml version="1.0" encoding="iso-8859-1"?>
<!-- Generator: Adobe Illustrator 19.0.0, SVG Export Plug-In . SVG Version: 6.00 Build 0)  -->
<svg version="1.1" id="Capa_1" xmlns="http://www.w3.org/2000/svg" xmlns:xlink="http://www.w3.org/1999/xlink" x="0px" y="0px"
	 viewBox="0 0 512 512" style="enable-background:new 0 0 512 512;" xml:space="preserve">
<path style="fill:#EEBF00;" d="M278.985,64.252c-13.976-9.092-32.002-9.092-45.977,0C232.861,64.347,1.3,215.104,1.15,215.203
	l-0.292,0.208v284.093C0.858,506.36,6.454,512,13.376,512h485.239c6.861,0,12.528-5.621,12.528-12.497V215.4
	C462.735,183.884,633.091,294.794,278.985,64.252z"/>
<path style="fill:#FFDE55;" d="M511.145,215.402v284.104c0,6.877-5.667,12.492-12.533,12.492H13.378
	c-6.928,0-12.523-5.636-12.523-12.492V215.412c19.916,12.947,219.784,142.9,230.146,149.632c15.201,9.886,34.797,9.886,50.008,0
	C290.823,358.664,506.026,218.732,511.145,215.402z"/>
<path style="fill:#FFEB99;" d="M508.143,507.574c-0.375,0.448-0.781,0.865-1.218,1.249c-1.093,0.968-2.333,1.75-3.697,2.29
	c-1.614,0.542-3.259,0.885-4.613,0.885H13.376c-0.417,0-0.854-0.021-1.302-0.073c-0.23-0.021-0.458-0.052-0.677-0.083
	c-0.166-0.021-0.323-0.052-0.489-0.084c-2.395-0.489-4.551-1.656-6.248-3.301c-0.23-0.218-0.448-0.448-0.656-0.688l3.155-2.551
	l197.23-157.469c2.721,1.768-9.856-6.407,26.608,17.298c15.204,9.883,34.803,9.883,50.008,0
	c36.821-23.933,24.12-15.679,26.868-17.465l198.094,158.157L508.143,507.574z"/>
<path style="fill:#5EAC24;" d="M466.452,172.374c-63.711,47.567-128.423,95.854-247.56,184.791
	c-3.422-2.211-143.629-93.377-162.413-105.601h-0.01c-4.113-2.67-15.829-10.28-24.26-15.77L341.462,4.966
	c11.054-8.252,26.69-5.987,34.942,5.067c101.974,136.596,95.498,127.841,96.294,129.136
	C479.471,149.996,477.004,164.455,466.452,172.374z"/>
<circle style="fill:#47821C;" cx="350.307" cy="36.132" r="9.237"/>
<path style="fill:#4E901E;" d="M417.767,127.867c-10.652,12.124-13.654,29.162-8.335,43.98c1.698,4.835-0.083,10.069-4.074,13.05
	c-14.586,10.886-125.753,93.848-146.706,109.489c0,0.01-0.01,0.01-0.01,0.01c-76.036,56.744,54.775-40.896-63.462,47.361
	c-14.203-9.242-110.103-71.591-110.182-71.641c3.826-9.813,4.064-20.837,0.434-30.96c-1.696-4.736,0.031-10.041,4.064-13.05
	c97.062-72.438,82.126-61.29,83.719-62.479L312.094,59.969c4.043-3.009,9.607-3.164,13.671-0.186
	c12.916,9.466,30.001,11.181,44.538,4.509c4.995-2.306,10.92-0.827,14.219,3.588c1.964,2.63-9.446-12.653,33.846,45.334
	C421.655,117.619,421.386,123.72,417.767,127.867z"/>
<path style="fill:#7ED63E;" d="M475.996,238.018c-121.182,65.166-71.059,38.213-240.766,129.467
	c-3.172-1.624-174.859-113.387-178.752-115.921h-0.01c-0.474-0.308-20.783-13.498-21.188-13.774
	C303.046,93.82,192.606,153.2,377.024,54.033c12.15-6.535,27.279-1.996,33.815,10.155c81.026,150.665,75.724,140.738,76.222,141.907
	C492.382,218.282,487.057,232.189,475.996,238.018z"/>
<circle style="fill:#4E901E;" cx="381.174" cy="86.16" r="9.237"/>
<path style="fill:#5EAC24;" d="M434.385,186.83c-12.631,10.769-17.723,27.187-14.715,42.263c0.972,4.943-1.51,9.927-5.946,12.316
	l-117.958,63.42h-0.01c-3.658,1.967,13.249-7.125-35.769,19.234c0,0,0,0-0.01,0c-2.9,1.558,14.008-7.53-50.36,27.072
	c-19.482-12.56-121.975-79.304-122.167-79.428c2.862-7.81,3.388-16.176,1.841-23.753c-0.982-4.943,1.51-9.927,5.946-12.316
	l104.722-56.306l139.922-75.23c4.436-2.389,9.958-1.706,13.547,1.83c11.435,11.328,28.168,15.451,43.38,11.023
	c5.284-1.541,10.93,0.786,13.547,5.636c34.264,63.728,25.242,46.948,26.793,49.833C439.752,177.265,438.583,183.263,434.385,186.83z
	"/>
<path style="fill:#A4E276;" d="M437.477,124.041c-3.557-10.351-13.236-16.856-23.608-16.856c-5.054,0-8.556,1.567-9.193,1.737
	c-5.561,1.913-370.031,127.235-371.143,127.74c1.36,0.874,10.219,6.645,22.936,14.901h0.01
	c15.494,10.082,174.764,113.648,174.884,113.708c14.843,9.491,34.297,9.741,49.646-0.228
	c5.727-3.72,191.128-124.274,195.618-127.192C456.963,180.681,458.096,183.972,437.477,124.041z"/>
<circle style="fill:#4E901E;" cx="404.658" cy="140.925" r="9.237"/>
<path style="fill:#5EAC24;" d="M445.967,235.101c-21.761-63.292-16.848-49.001-18.396-53.504c-1.799-5.201-6.99-8.417-12.461-7.745
	c-16.091,1.939-31.75-5.122-41.032-17.89c-2.957-4.074-8.304-5.625-13.071-3.992L97.366,242.65c-3.847,1.313-6.711,4.519-7.58,8.355
	c-0.836,3.499,0.864,9.606-3.195,20.144c1.149,0.765,130.089,84.564,140.894,91.61c8.087-2.782,120.175-41.334,121.102-41.653
	c110.897-72.114,49.587-32.238,72.934-47.413c3.112-10.139,9.92-19.119,19.399-24.818
	C445.636,246.032,447.756,240.303,445.967,235.101z"/>
<circle style="fill:#47821C;" cx="254.54" cy="271.023" r="53.297"/>
<path style="fill:#6DC82A;" d="M257.267,262.395l0.001-0.012c-7.722-0.373-13.252,0.666-15.168-4.908
	c-1.678-4.879,1.656-7.605,6.535-9.283c6.989-2.404,9.499,0.262,12.711-0.843c3.752-1.291,4.469-5.703,3.544-8.392
	c-1.898-5.517-10.17-4.82-15.68-3.672l-0.841-2.445c-1.181-3.434-4.936-5.267-8.369-4.086c-3.434,1.181-5.267,4.936-4.086,8.369
	l1.106,3.218c-7.503,5.251-9.96,12.959-6.915,21.814c4.363,12.684,14.656,12.975,22.928,13.207
	c7.836,0.22,12.566,0.354,14.866,7.039c1.879,5.462-0.162,9.133-6.239,11.224c-9.608,3.304-11.61-3.714-16.57-2.008
	c-3.285,1.13-4.647,5.455-3.628,8.421c1.528,4.446,8.766,8.07,18.419,6.774l0.824,2.396c1.181,3.433,4.936,5.267,8.369,4.086
	c3.433-1.181,5.267-4.936,4.086-8.369l-0.873-2.537c8.399-5.364,11.173-14.292,7.605-24.667
	C275.093,263.767,264.403,262.631,257.267,262.395z"/>
<g>
	<path style="fill:#47821C;" d="M158.264,317.745c-6.763-4.395-13.743-8.935-20.847-13.547c2.591-13.355,21.363-14.733,25.821-1.779
		C165.223,308.211,163.031,314.416,158.264,317.745z"/>
	<circle style="fill:#47821C;" cx="353.44" cy="237.012" r="13.409"/>
</g>
<path style="fill:#FFDE55;" d="M421.521,273.693c-0.248,0.786-0.476,1.592-0.672,2.399l-6.453,2.223
	C416.785,276.765,419.163,275.224,421.521,273.693z"/>
<path id="SVGCleanerId_0" style="fill:#EEBF00;" d="M501.683,209.239c0.021,0.01,0.041,0.021,0.052,0.031h-0.01
	C501.714,209.26,501.693,209.249,501.683,209.239z"/>
<path id="SVGCleanerId_1" style="fill:#EEBF00;" d="M501.735,209.27c0.052,0.031,0.103,0.062,0.155,0.103
	c-0.01-0.01-0.021-0.021-0.041-0.021c-0.021-0.021-0.031-0.031-0.041-0.031C501.776,209.301,501.755,209.28,501.735,209.27z"/>
<path id="SVGCleanerId_2" style="fill:#EEBF00;" d="M501.983,209.425c0.01,0.01,0.031,0.021,0.041,0.031
	c-0.01,0-0.021-0.01-0.041-0.021V209.425z"/>
<path id="SVGCleanerId_3" style="fill:#EEBF00;" d="M502.107,209.508c0.041,0.031,0.093,0.062,0.134,0.093c0,0,0,0-0.01,0
	C502.179,209.56,502.138,209.539,502.107,209.508z"/>
<path id="SVGCleanerId_4" style="fill:#EEBF00;" d="M502.242,209.601c0.083,0.052,0.155,0.093,0.228,0.145
	c-0.062-0.041-0.124-0.072-0.176-0.103C502.273,209.622,502.252,209.611,502.242,209.601z"/>
<path id="SVGCleanerId_5" style="fill:#EEBF00;" d="M508.622,213.748c0.062,0.041,0.134,0.093,0.196,0.134
	c-0.052-0.021-0.093-0.052-0.134-0.083C508.663,213.779,508.642,213.768,508.622,213.748z"/>
<path style="fill:#FFD422;" d="M511.145,480.976v18.531c0,6.877-5.667,12.492-12.533,12.492H13.378
	c-6.928,0-12.523-5.636-12.523-12.492V215.412c4.105,2.668,15.873,10.32,32.057,20.847v232.224c0,6.856,5.594,12.492,12.523,12.492
	H511.145z"/>
<g>
	<path id="SVGCleanerId_0_1_" style="fill:#EEBF00;" d="M501.683,209.239c0.021,0.01,0.041,0.021,0.052,0.031h-0.01
		C501.714,209.26,501.693,209.249,501.683,209.239z"/>
</g>
<g>
	<path id="SVGCleanerId_1_1_" style="fill:#EEBF00;" d="M501.735,209.27c0.052,0.031,0.103,0.062,0.155,0.103
		c-0.01-0.01-0.021-0.021-0.041-0.021c-0.021-0.021-0.031-0.031-0.041-0.031C501.776,209.301,501.755,209.28,501.735,209.27z"/>
</g>
<g>
	<path id="SVGCleanerId_2_1_" style="fill:#EEBF00;" d="M501.983,209.425c0.01,0.01,0.031,0.021,0.041,0.031
		c-0.01,0-0.021-0.01-0.041-0.021V209.425z"/>
</g>
<g>
	<path id="SVGCleanerId_3_1_" style="fill:#EEBF00;" d="M502.107,209.508c0.041,0.031,0.093,0.062,0.134,0.093c0,0,0,0-0.01,0
		C502.179,209.56,502.138,209.539,502.107,209.508z"/>
</g>
<g>
	<path id="SVGCleanerId_4_1_" style="fill:#EEBF00;" d="M502.242,209.601c0.083,0.052,0.155,0.093,0.228,0.145
		c-0.062-0.041-0.124-0.072-0.176-0.103C502.273,209.622,502.252,209.611,502.242,209.601z"/>
</g>
<g>
	<path id="SVGCleanerId_5_1_" style="fill:#EEBF00;" d="M508.622,213.748c0.062,0.041,0.134,0.093,0.196,0.134
		c-0.052-0.021-0.093-0.052-0.134-0.083C508.663,213.779,508.642,213.768,508.622,213.748z"/>
</g>
<path style="fill:#FFEB99;" d="M505.964,505.742l-31.023-24.766H45.435c-2.172,0-4.219-0.558-5.998-1.52L7.163,505.225l-3.164,2.544
	c1.226,1.342,2.625,2.423,4.333,3.164c0.207,0.093,0.424,0.186,0.641,0.259c0.273,0.182,2.37,0.807,4.405,0.807h485.234
	c0.176,0,0.341,0,0.517-0.021c0.155-0.01,0.31-0.01,0.465-0.031c1.086-0.103,2.285-0.383,3.485-0.776
	c0.103-0.041,0.217-0.083,0.331-0.134c0.041-0.021,0.083-0.031,0.134-0.052c0.155-0.072,0.321-0.145,0.476-0.227
	c0.155-0.072,0.3-0.145,0.445-0.217c1.189-0.631,2.265-1.448,3.185-2.42c0.176-0.176,0.331-0.362,0.496-0.548L505.964,505.742z"/>
<path style="fill:#FFDE55;" d="M508.146,507.572c-2.296,2.689-5.698,4.426-9.534,4.426H13.378c-2.192,0-4.198-0.662-4.405-0.807
	c-1.458-0.486-3.34-1.634-4.974-3.423c26.71-21.343,33.628-26.866,35.107-28.044v-0.01c0.01-0.01,0.093-0.072,0.155-0.114
	c0.01-0.021,0.031-0.031,0.041-0.041c0.01-0.01,0.031-0.021,0.062-0.041l0.041-0.041c0.01,0,0.021-0.01,0.031-0.021
	c1.779,0.962,3.826,1.52,5.998,1.52h429.507C481.438,486.18,457.985,467.393,508.146,507.572z"/>
<g>
</g>
<g>
</g>
<g>
</g>
<g>
</g>
<g>
</g>
<g>
</g>
<g>
</g>
<g>
</g>
<g>
</g>
<g>
</g>
<g>
</g>
<g>
</g>
<g>
</g>
<g>
</g>
<g>
</g>
</svg>
