<?xml version="1.0" encoding="iso-8859-1"?>
<!-- Generator: Adobe Illustrator 19.0.0, SVG Export Plug-In . SVG Version: 6.00 Build 0)  -->
<svg version="1.1" id="Capa_1" xmlns="http://www.w3.org/2000/svg" xmlns:xlink="http://www.w3.org/1999/xlink" x="0px" y="0px"
	 viewBox="0 0 512.001 512.001" style="enable-background:new 0 0 512.001 512.001;" xml:space="preserve">
<path style="fill:#663A00;" d="M436.062,250.643v54.832H110.242c-18.895,0-34.362-15.466-34.362-34.362v-6.537
	c0-18.906,15.466-34.372,34.362-34.372h305.391C426.915,230.204,436.062,239.35,436.062,250.643z"/>
<g>
	<path style="fill:#AA6100;" d="M436.062,263.311v15.539H105.757c-4.289,0-7.769-3.47-7.769-7.769c0-4.289,3.481-7.769,7.769-7.769
		H436.062L436.062,263.311z"/>
	<path style="fill:#AA6100;" d="M436.13,303.423l-0.076,189.265c0,10.669-8.644,19.313-19.313,19.313H112.533
		c-20.243,0-36.658-16.406-36.658-36.649V272.862h0.068c1.017,16.967,15.214,30.525,32.423,30.525l61.027,0.036H436.13z"/>
</g>
<path style="fill:#5EAC24;" d="M336.002,263.311H139.083L78.067,72.794c-3.781-11.789,2.704-24.396,14.493-28.177l36.724-11.768
	l99.2-31.772c0.601-0.197,1.202-0.363,1.803-0.497c10.577-2.455,21.413,3.077,25.65,13.053c0.269,0.622,0.508,1.274,0.725,1.937
	l3.356,10.484l8.08,25.214l4.009,12.545l40.691,127.046l10.432,32.559l2.59,8.111l5.563,17.362L336.002,263.311z"/>
<circle style="fill:#47821C;" cx="107.105" cy="74.388" r="8.287"/>
<path style="fill:#4E901E;" d="M311.005,263.311H164.059l-0.445-1.388l-47.435-148.148c-1.378-4.309,0.124-9.075,3.833-11.654
	c6.651-4.62,11.633-11.126,14.441-18.512c2.134-5.625,3.015-11.768,2.393-17.973c-0.497-4.921,2.486-9.52,7.189-11.033
	l41.945-13.436l6.423-2.051c4.703-1.512,9.8,0.508,12.255,4.786c0.663,1.15,1.367,2.258,2.124,3.325
	c0.912,1.264,1.885,2.476,2.942,3.615c3.025,3.325,6.578,6.102,10.494,8.205c2.683,1.45,5.542,2.59,8.495,3.387
	c3.491,0.953,7.138,1.43,10.846,1.388c0.725-0.01,1.44,0.062,2.134,0.207c3.605,0.736,6.588,3.439,7.759,7.055l17.714,55.298v0.01
	l4.413,13.799l11.675,36.434l8.982,28.074l3.968,12.379l3.367,10.484c0,0.01,0,0.01,0,0.01l4.568,14.285l5.894,18.419
	L311.005,263.311z"/>
<path style="fill:#7ED63E;" d="M353.871,263.311h-190.03l-0.228-1.388L134.452,83.609l-4.361-26.675
	c-1.999-12.224,6.278-23.733,18.491-25.743l38.06-6.226l69.293-11.333l33.491-5.48c0.632-0.104,1.253-0.186,1.865-0.228
	c11.302-0.912,21.62,6.847,23.764,18.129c0.041,0.197,0.073,0.383,0.104,0.58l8.381,51.258l7.842,47.922l17.113,104.628
	l3.263,19.952L353.871,263.311z"/>
<circle style="fill:#4E901E;" cx="158.569" cy="62.788" r="8.287"/>
<path style="fill:#5EAC24;" d="M329.745,263.311H187.947l-3.18-19.486l-23.008-140.741c-0.736-4.465,1.45-8.961,5.501-10.97
	c7.583-3.74,13.664-9.789,17.507-17.093c2.652-5.024,4.237-10.639,4.517-16.513c0.228-4.931,3.864-9.044,8.743-9.852l8.754-1.43
	l41.365-6.765c4.869-0.798,9.613,1.937,11.416,6.547c0.57,1.471,1.233,2.89,1.968,4.258c2.631,4.921,6.267,9.178,10.577,12.545
	c2.611,2.03,5.47,3.74,8.515,5.066c3.315,1.461,6.847,2.466,10.525,2.963c4.475,0.611,7.977,4.175,8.712,8.64l19.393,118.645
	l3.978,24.292l1.906,11.675L329.745,263.311z"/>
<path style="fill:#7ED63E;" d="M372.29,48.46v214.851H184.767V48.46c0-2.548,0.425-5.004,1.212-7.293
	c3.025-8.795,11.364-15.114,21.185-15.114h142.73c0.632,0,1.253,0.021,1.865,0.083C363.257,27.08,372.29,36.713,372.29,48.46z"/>
<path style="fill:#A4E276;" d="M351.758,26.136v237.175H184.767V48.46c0-2.548,0.425-5.004,1.212-7.293
	c3.025-8.795,11.364-15.114,21.185-15.114h142.73C350.525,26.054,351.147,26.074,351.758,26.136z"/>
<g>
	<circle style="fill:#4E901E;" cx="211.92" cy="58.839" r="8.287"/>
	<circle style="fill:#4E901E;" cx="345.129" cy="58.839" r="8.287"/>
</g>
<path style="fill:#5EAC24;" d="M348.495,99.127v164.184H208.552V99.127c0-4.527,2.89-8.609,7.21-9.935
	c12.172-3.729,21.848-13.156,25.929-25.163c0.497-1.45,0.912-2.932,1.233-4.454c1.026-4.827,5.262-8.308,10.214-8.308h50.781
	c4.941,0,9.178,3.481,10.214,8.308c1.481,6.951,4.786,13.239,9.406,18.315c2.3,2.548,4.941,4.796,7.842,6.671
	c3.035,1.979,6.371,3.543,9.914,4.631C345.615,90.52,348.495,94.601,348.495,99.127z"/>
<path style="fill:#6DC82A;" d="M331.381,84.563v178.749h-122.83V99.127c0-4.527,2.89-8.609,7.21-9.935
	c12.172-3.729,21.848-13.156,25.929-25.163c0.497-1.45,0.912-2.932,1.233-4.454c1.026-4.827,5.262-8.308,10.214-8.308h50.781
	c4.941,0,9.178,3.481,10.214,8.308c1.481,6.951,4.786,13.239,9.406,18.315C325.839,80.44,328.481,82.688,331.381,84.563z"/>
<path style="fill:#47821C;" d="M325.819,231.529c-0.176,1.202-0.414,2.393-0.684,3.564c-2.279,9.769-7.583,18.595-15.104,25.183
	c-1.222,1.077-2.507,2.082-3.854,3.035H250.9c-9.303-6.578-16.316-16.492-19.03-28.478c-5.843-25.774,10.307-51.403,36.081-57.245
	c5.159-1.171,10.307-1.461,15.301-0.963c11.292,1.119,21.754,6.257,29.545,14.234c2.434,2.486,4.6,5.262,6.454,8.267
	c2.704,4.372,4.734,9.261,5.936,14.544C326.554,219.72,326.72,225.748,325.819,231.529z"/>
<path style="fill:#6DC82A;" d="M271.998,219.415l-0.01-0.004l-0.874,2.378c-2.468,6.715-3.691,9.064-7.72,9.064
	c-2.32,0-3.842-0.797-4.789-2.509c-0.977-1.765-1.182-4.1-1.182-5.748c0-3.97,1.066-6.042,1.923-7.705
	c0.552-1.072,1.073-2.085,1.073-3.33c0-3.562-3.537-5.458-6.089-5.458c-5.237,0-7.06,7.226-7.695,12.237h-2.32
	c-3.259,0-5.911,2.652-5.911,5.911s2.652,5.911,5.911,5.911h3.055c2.267,7.902,8.093,12.237,16.498,12.237
	c12.041,0,15.292-8.653,17.905-15.606c2.475-6.587,3.969-10.563,10.315-10.563c5.185,0,7.705,2.804,7.705,8.572
	c0,5.384-2.22,7.444-4.006,9.1c-1.189,1.102-2.536,2.353-2.536,4.379c0,3.118,3.273,5.538,6.089,5.538
	c4.219,0,9.409-5.085,11.128-13.657h2.274c3.259,0,5.911-2.652,5.911-5.911s-2.652-5.911-5.911-5.911h-2.409
	c-2.101-8.696-8.87-13.657-18.719-13.657C278.368,204.684,274.282,213.427,271.998,219.415z"/>
<circle style="fill:#47821C;" cx="278.53" cy="130.361" r="12.036"/>
<g>
	<rect x="75.871" y="429.661" style="fill:#884D00;" width="360.181" height="42.68"/>
	<rect x="75.871" y="346.849" style="fill:#884D00;" width="360.181" height="42.68"/>
</g>
<path style="fill:#AA6100;" d="M106.793,303.35v208.2c-17.518-2.756-30.922-17.901-30.922-36.195V272.863h0.073
	C76.927,289.313,90.291,302.552,106.793,303.35z"/>
<path style="fill:#884D00;" d="M106.793,303.35v208.2c-17.518-2.756-30.922-17.901-30.922-36.195V272.863h0.073
	C76.927,289.313,90.291,302.552,106.793,303.35z"/>
<g>
	<rect x="75.871" y="429.661" style="fill:#663A00;" width="30.922" height="42.68"/>
	<rect x="75.871" y="346.849" style="fill:#663A00;" width="30.922" height="42.68"/>
</g>
<g>
</g>
<g>
</g>
<g>
</g>
<g>
</g>
<g>
</g>
<g>
</g>
<g>
</g>
<g>
</g>
<g>
</g>
<g>
</g>
<g>
</g>
<g>
</g>
<g>
</g>
<g>
</g>
<g>
</g>
</svg>
