<?xml version="1.0" encoding="iso-8859-1"?>
<!-- Generator: Adobe Illustrator 21.0.0, SVG Export Plug-In . SVG Version: 6.00 Build 0)  -->
<svg version="1.1" id="Capa_1" xmlns="http://www.w3.org/2000/svg" xmlns:xlink="http://www.w3.org/1999/xlink" x="0px" y="0px"
	 viewBox="0 0 512 512" style="enable-background:new 0 0 512 512;" xml:space="preserve">
<path style="fill:#5CC45C;" d="M487.114,227.875L127.753,394.972c-4.676,2.174-10.229,0.146-12.403-4.53L17.671,180.373
	c-2.174-4.676-0.146-10.229,4.53-12.403L381.562,0.873c4.676-2.174,10.229-0.146,12.403,4.53l97.679,210.069
	C493.818,220.147,491.79,225.7,487.114,227.875z"/>
<path style="fill:#4EAD4E;" d="M491.643,215.471L393.965,5.403c-2.174-4.676-7.727-6.704-12.403-4.53L338.51,20.892l105.552,227.002
	l43.052-20.018C491.79,225.7,493.818,220.147,491.643,215.471z"/>
<path style="fill:#A0E557;" d="M157.893,352.592c-7.765-13.147-23.869-19.028-38.278-13.979c-0.815,0.285-1.712-0.111-2.076-0.893
	L59.395,212.676c-0.364-0.783-0.089-1.724,0.655-2.163c13.147-7.765,19.028-23.869,13.979-38.278
	c-0.285-0.815,0.111-1.712,0.893-2.076L349.258,42.597c0.783-0.364,1.724-0.089,2.163,0.655
	c7.765,13.147,23.869,19.028,38.279,13.979c0.815-0.285,1.712,0.111,2.076,0.893l58.143,125.043
	c0.364,0.783,0.089,1.724-0.655,2.163c-13.147,7.765-19.028,23.869-13.979,38.278c0.285,0.815-0.111,1.712-0.893,2.076
	L160.056,353.247C159.273,353.611,158.332,353.336,157.893,352.592z"/>
<path style="fill:#93CC4A;" d="M449.919,183.168L391.776,58.125c-0.364-0.783-1.261-1.179-2.076-0.894
	c-14.41,5.049-30.514-0.832-38.279-13.979c-0.439-0.743-1.38-1.019-2.163-0.655l-52.014,24.186
	c9.774,11.034,25.767,15.152,39.957,9.421l65.828,141.57c-11.877,6.284-18.837,18.524-18.913,31.288l50.275-23.377
	c0.783-0.364,1.179-1.261,0.893-2.076c-5.049-14.41,0.832-30.514,13.979-38.278C450.008,184.892,450.283,183.951,449.919,183.168z"
	/>
<ellipse transform="matrix(0.9068 -0.4216 0.4216 0.9068 -59.7073 125.813)" style="fill:#F3E8D7;" cx="254.661" cy="197.929" rx="68.481" ry="68.481"/>
<circle style="fill:#FCB038;" cx="122.06" cy="148.16" r="84.37"/>
<path style="fill:#FD8F31;" d="M122.061,63.794c-9.925,0-19.442,1.728-28.287,4.875c32.679,11.63,56.08,42.822,56.08,79.492
	s-23.402,67.862-56.08,79.492c8.844,3.148,18.362,4.875,28.287,4.875c46.595,0,84.367-37.772,84.367-84.367
	S168.655,63.794,122.061,63.794z"/>
<path style="fill:#FFE285;" d="M120.433,187.841c-15.757-0.254-26.43-8.768-26.43-14.994c0-3.05,2.668-7.243,5.845-7.243
	c4.193,0,7.624,8.895,20.585,9.911v-29.861c-11.436-4.066-24.143-8.641-24.143-24.906c0-16.011,12.072-22.364,24.143-23.635v-3.685
	c0-1.525,1.525-2.923,3.685-2.923c1.906,0,3.812,1.398,3.812,2.923v3.431c8.641,0.254,20.839,2.923,20.839,9.149
	c0,2.414-1.779,7.243-5.591,7.243c-3.05,0-6.353-4.066-15.248-4.702v25.795c11.055,4.066,23.127,9.657,23.127,26.939
	c0,15.63-9.403,24.27-23.127,26.176v4.32c0,1.525-1.906,2.923-3.812,2.923c-2.16,0-3.685-1.398-3.685-2.923V187.841z
	 M121.195,131.93v-23.127c-7.116,0.889-12.199,4.066-12.199,10.674C108.997,126.72,114.461,129.389,121.195,131.93z
	 M127.168,148.449v26.812c6.862-1.271,11.182-5.337,11.182-12.58C138.35,154.676,133.394,151.118,127.168,148.449z"/>
<path style="fill:#917267;" d="M470.081,512H25.863c-12.978,0-23.499-10.521-23.499-23.499v-296.96
	c0-12.978,10.521-23.499,23.499-23.499h444.218c12.978,0,23.499,10.521,23.499,23.499v296.96
	C493.579,501.479,483.059,512,470.081,512z"/>
<path style="fill:#82655D;" d="M470.081,168.043h-31.906V512h31.906c12.978,0,23.499-10.521,23.499-23.499v-296.96
	C493.579,178.563,483.059,168.043,470.081,168.043z"/>
<path style="fill:#765147;" d="M498.021,390.011H405.69c-27.609,0-49.99-22.381-49.99-49.99l0,0c0-27.609,22.381-49.99,49.99-49.99
	h92.331c6.415,0,11.615,5.2,11.615,11.615v76.751C509.636,384.811,504.436,390.011,498.021,390.011z"/>
<circle style="fill:#F3E8D7;" cx="406.05" cy="340.02" r="22.473"/>
<rect x="2.364" y="204.25" style="fill:#765147;" width="491.21" height="15.429"/>
<rect x="438.18" y="204.25" style="fill:#68463E;" width="55.41" height="15.429"/>
<rect x="2.364" y="460.37" style="fill:#765147;" width="491.21" height="15.429"/>
<g>
	<path style="fill:#68463E;" d="M498.021,290.031h-59.847v99.98h59.847c6.415,0,11.615-5.2,11.615-11.615v-76.751
		C509.636,295.231,504.436,290.031,498.021,290.031z"/>
	<rect x="438.18" y="460.37" style="fill:#68463E;" width="55.41" height="15.429"/>
</g>
<g>
</g>
<g>
</g>
<g>
</g>
<g>
</g>
<g>
</g>
<g>
</g>
<g>
</g>
<g>
</g>
<g>
</g>
<g>
</g>
<g>
</g>
<g>
</g>
<g>
</g>
<g>
</g>
<g>
</g>
</svg>
