<?xml version="1.0" encoding="iso-8859-1"?>
<!-- Generator: Adobe Illustrator 19.0.0, SVG Export Plug-In . SVG Version: 6.00 Build 0)  -->
<svg version="1.1" id="Capa_1" xmlns="http://www.w3.org/2000/svg" xmlns:xlink="http://www.w3.org/1999/xlink" x="0px" y="0px"
	 viewBox="0 0 512 512" style="enable-background:new 0 0 512 512;" xml:space="preserve">
<path style="fill:#663A00;" d="M430.596,251.089v53.157H114.725c-18.318,0-33.313-14.994-33.313-33.313v-6.337
	c0-18.328,14.994-33.323,33.313-33.323h296.067C421.727,231.274,430.596,240.142,430.596,251.089z"/>
<g>
	<path style="fill:#AA6100;" d="M430.596,263.371v15.064h-320.22c-4.158,0-7.532-3.364-7.532-7.532c0-4.158,3.374-7.532,7.532-7.532
		H430.596z"/>
	<path style="fill:#AA6100;" d="M430.662,302.259l-0.073,183.486c0,10.343-8.38,18.723-18.723,18.723H116.943
		c-19.625,0-35.539-15.905-35.539-35.53V272.631h0.066c0.986,16.449,14.749,29.593,31.434,29.593l59.164,0.035H430.662z"/>
</g>
<path style="fill:#5EAC24;" d="M333.59,263.371H142.683L83.53,78.671c-3.666-11.429,2.621-23.651,14.05-27.317l35.602-11.409
	l96.172-30.802c0.582-0.191,1.165-0.352,1.747-0.482c10.254-2.38,20.759,2.983,24.866,12.654c0.261,0.603,0.492,1.235,0.703,1.878
	l3.254,10.163l7.834,24.445l3.887,12.162l39.449,123.167l10.113,31.565l2.511,7.864l5.393,16.832L333.59,263.371z"/>
<path style="fill:#4E901E;" d="M309.356,263.371h-142.46l-0.432-1.346l-45.987-143.625c-1.336-4.178,0.121-8.798,3.716-11.298
	c6.448-4.479,11.278-10.786,14-17.947c2.069-5.453,2.923-11.409,2.32-17.425c-0.482-4.77,2.41-9.229,6.97-10.696l40.664-13.026
	l6.227-1.989c4.559-1.466,9.501,0.492,11.881,4.64c0.643,1.115,1.326,2.189,2.059,3.224c0.884,1.225,1.828,2.4,2.852,3.505
	c2.933,3.224,6.377,5.915,10.174,7.954c2.601,1.406,5.373,2.511,8.235,3.284c3.384,0.924,6.92,1.386,10.515,1.346
	c0.703-0.01,1.396,0.06,2.069,0.201c3.495,0.713,6.387,3.334,7.522,6.839l17.173,53.609v0.01l4.278,13.377l11.318,35.321
	l8.707,27.216l3.846,12.001l3.264,10.163c0,0.01,0,0.01,0,0.01l4.429,13.849l5.714,17.856L309.356,263.371z"/>
<path style="fill:#7ED63E;" d="M350.914,263.371H166.686l-0.221-1.346l-28.271-172.87l-4.228-25.861
	c-1.938-11.851,6.086-23.008,17.927-24.957l36.898-6.036l67.177-10.987l32.469-5.313c0.613-0.1,1.215-0.181,1.808-0.221
	c10.957-0.884,20.96,6.638,23.039,17.575c0.04,0.191,0.07,0.372,0.1,0.562l8.125,49.693l7.603,46.459l16.591,101.434l3.164,19.343
	L350.914,263.371z"/>
<path style="fill:#5EAC24;" d="M327.524,263.371H190.056l-3.083-18.891l-22.305-136.444c-0.713-4.329,1.406-8.687,5.333-10.636
	c7.351-3.626,13.247-9.491,16.973-16.571c2.571-4.871,4.108-10.314,4.379-16.009c0.221-4.78,3.746-8.768,8.476-9.551l8.486-1.386
	l40.102-6.558c4.72-0.773,9.32,1.878,11.067,6.347c0.552,1.426,1.195,2.802,1.908,4.128c2.551,4.77,6.076,8.898,10.254,12.162
	c2.531,1.968,5.303,3.626,8.255,4.911c3.214,1.416,6.638,2.39,10.204,2.872c4.339,0.593,7.733,4.047,8.446,8.376l18.8,115.022
	l3.857,23.551l1.848,11.318L327.524,263.371z"/>
<path style="fill:#7ED63E;" d="M368.771,55.08v208.291H186.973V55.08c0-2.471,0.412-4.851,1.175-7.07
	c2.933-8.526,11.017-14.653,20.538-14.653h138.372c0.613,0,1.215,0.02,1.808,0.08C360.013,34.351,368.771,43.691,368.771,55.08z"/>
<path style="fill:#A4E276;" d="M348.866,33.437v229.934H186.973V55.08c0-2.471,0.412-4.851,1.175-7.07
	c2.933-8.526,11.017-14.653,20.538-14.653h138.372C347.67,33.357,348.273,33.377,348.866,33.437z"/>
<path style="fill:#5EAC24;" d="M345.702,104.2v159.171H210.031V104.2c0-4.389,2.802-8.346,6.99-9.631
	c11.8-3.615,21.181-12.755,25.138-24.394c0.482-1.406,0.884-2.842,1.195-4.318c0.994-4.68,5.102-8.054,9.902-8.054h49.231
	c4.79,0,8.898,3.374,9.902,8.054c1.436,6.739,4.64,12.835,9.119,17.756c2.23,2.471,4.79,4.65,7.603,6.468
	c2.943,1.918,6.176,3.435,9.611,4.489C342.91,95.854,345.702,99.811,345.702,104.2z"/>
<path style="fill:#6DC82A;" d="M329.111,90.08v173.292h-119.08V104.2c0-4.389,2.802-8.346,6.99-9.631
	c11.8-3.615,21.181-12.755,25.138-24.394c0.482-1.406,0.884-2.842,1.195-4.318c0.994-4.68,5.102-8.054,9.902-8.054h49.231
	c4.79,0,8.898,3.374,9.902,8.054c1.436,6.739,4.64,12.835,9.119,17.756C323.738,86.083,326.299,88.262,329.111,90.08z"/>
<path style="fill:#47821C;" d="M323.718,232.559c-0.171,1.165-0.402,2.32-0.663,3.455c-2.209,9.471-7.351,18.027-14.643,24.414
	c-1.185,1.044-2.43,2.019-3.736,2.943h-53.589c-9.019-6.377-15.818-15.988-18.449-27.608c-5.664-24.987,9.993-49.833,34.98-55.497
	c5.001-1.135,9.993-1.416,14.833-0.934c10.947,1.085,21.09,6.066,28.643,13.799c2.36,2.41,4.459,5.102,6.257,8.014
	c2.621,4.238,4.59,8.978,5.755,14.1C324.432,221.11,324.592,226.955,323.718,232.559z"/>
<g>
	<rect x="81.408" y="424.647" style="fill:#884D00;" width="349.184" height="41.377"/>
	<rect x="81.408" y="344.354" style="fill:#884D00;" width="349.184" height="41.377"/>
</g>
<path style="fill:#AA6100;" d="M111.379,302.187v201.844c-16.983-2.671-29.978-17.354-29.978-35.09v-196.31h0.07
	C82.425,288.579,95.381,301.414,111.379,302.187z"/>
<path style="fill:#884D00;" d="M111.379,302.187v201.844c-16.983-2.671-29.978-17.354-29.978-35.09v-196.31h0.07
	C82.425,288.579,95.381,301.414,111.379,302.187z"/>
<g>
	<rect x="81.398" y="424.637" style="fill:#663A00;" width="29.978" height="41.377"/>
	<rect x="81.398" y="344.354" style="fill:#663A00;" width="29.978" height="41.377"/>
</g>
<circle cx="213.373" cy="64.787" r="8.029"/>
<circle cx="342.355" cy="64.787" r="8.029"/>
<path d="M258.67,134.048c0,10.585,8.607,19.192,19.192,19.192c10.575,0,19.192-8.607,19.192-19.192
	c0-10.575-8.617-19.182-19.192-19.182C267.276,114.866,258.67,123.473,258.67,134.048z M277.862,129.93
	c2.27,0,4.128,1.848,4.128,4.118c0,2.28-1.858,4.128-4.128,4.128c-2.27,0-4.128-1.848-4.128-4.128
	C273.734,131.778,275.592,129.93,277.862,129.93z"/>
<circle cx="162.204" cy="67.75" r="8.029"/>
<circle cx="111.788" cy="79.832" r="8.029"/>
<path d="M171.905,294.653c0.003,0,0.007,0,0.011,0c0.012,0,0.026,0,0.035,0C171.937,294.653,171.922,294.653,171.905,294.653z"/>
<polygon points="171.608,294.654 171.61,294.654 171.611,294.654 "/>
<path d="M438.129,251.089c0-15.075-12.262-27.347-27.337-27.347h-34.598V54.749c0-16.129-13.116-29.245-29.235-29.245h-27.498
	c-5.162-12.021-17.866-19.343-31.364-17.224l-28.181,4.409C252.755,2.274,239.288-2.617,226.834,1.4L95.322,43.862
	C79.996,48.813,71.55,65.324,76.491,80.659l46.208,143.082h-7.974c-22.516,0-40.845,18.328-40.845,40.855
	c0.005,0.877-0.008-15.869-0.008,204.341c0,23.745,19.322,43.062,43.072,43.062h294.922c14.477,0,26.255-11.778,26.255-26.256
	C438.12,153.091,438.121,441.176,438.129,251.089z M300.74,25.503h-25.308C286.953,24.471,293.515,20.486,300.74,25.503z
	 M240.221,15.772l-17.274,2.702C228.433,17.379,233.119,13.471,240.221,15.772z M194.595,80.519v-25.77
	c0-7.823,6.357-14.181,14.171-14.181c12.928,0,120.436,0,138.191,0c7.813,0,14.171,6.357,14.171,14.181c0,40.871,0,157.4,0,201.091
	h-7.984c0-47.818,0-104.374,0-152.041c0-7.693-5.062-14.613-12.293-16.822c-10.716-3.274-18.811-12.112-21.14-23.029
	c-1.727-8.125-8.988-14.01-17.264-14.01h-10.746c-4.158,0-7.532,3.364-7.532,7.532c0,4.158,3.374,7.532,7.532,7.532h10.746
	c1.205,0,2.27,0.874,2.531,2.079c3.465,16.27,15.516,29.416,31.465,34.307c0.964,0.291,1.637,1.286,1.637,2.41
	c0,47.694,0,104.233,0,152.041h-16.059c28.102-40.234-8.025-94.316-56.07-83.407c-38.279,8.661-53.652,52.817-32.238,83.407h-16.069
	c0-18.845,0-134.195,0-152.041c0-1.125,0.673-2.119,1.647-2.41c15.938-4.891,27.99-18.037,31.465-34.317
	c0.261-1.225,1.296-2.069,2.521-2.069h8.295c4.158,0,7.532-3.374,7.532-7.532c0-4.168-3.374-7.532-7.532-7.532h-8.295
	c-8.275,0-15.536,5.885-17.254,14c-2.34,10.927-10.435,19.765-21.14,23.039c-7.241,2.209-12.303,9.129-12.303,16.822
	c0,17.954,0,132.989,0,152.041h-7.984C194.595,227.451,194.595,100.956,194.595,80.519z M254.431,207.382
	c-5.072,0-6.839,7-7.452,11.851c-0.555,0.148-6.626-1.109-7.834,4.509h-0.06c0.512-17.706,12.785-32.68,30.199-36.617
	c23.854-5.412,46.561,12.084,47.363,36.617h-0.07c-0.552-2.571-2.842-4.509-5.584-4.509h-2.34
	c-2.029-8.416-8.587-13.217-18.118-13.217c-12.825,0-16.782,8.466-19.001,14.261h-0.01c-2.783,7.585-3.776,11.077-8.316,11.077
	c-4.498,0-5.785-3.531-5.785-7.994c0-6.39,2.902-7.737,2.902-10.686C260.327,209.22,256.902,207.382,254.431,207.382z
	 M244.73,230.681h2.963c4.04,14.161,21.944,15.336,29.024,5.604c5.861-7.885,4.496-19.092,14.271-19.092
	c4.76,0,7.242,2.533,7.432,7.281c0.599,9.873-7.218,10.15-6.287,14.331c0.237,4.255,7.427,8.875,13.397,0
	c1.436-2.129,2.611-4.861,3.254-8.125h2.209c2.882,0,5.283-2.149,5.664-4.931c-0.204,11.472-5.601,22.718-15.295,30.089h-46.991
	c-9.744-7.397-15.076-18.671-15.295-30.039C239.477,228.552,241.868,230.681,244.73,230.681z M142.372,55
	c1.727-4.921,5.996-8.486,11.148-9.3l29.426-4.66c-5.177,9.245-2.895,18.094-3.415,37.38c-3.053,4.75-7.311,8.547-12.403,11.017
	c-6.819,3.304-10.746,10.927-9.551,18.519l21.954,147.883h-6.859C139.663,45.273,141.255,59.35,142.372,55z M179.531,99.61v51.159
	l-7.07-45.153c-0.171-1.105,0.341-2.189,1.255-2.631C175.745,102.001,177.683,100.866,179.531,99.61z M141.88,159.105l-14.05-43.476
	c-0.341-1.065,0-2.219,0.834-2.792c1.848-1.296,3.595-2.712,5.212-4.248L141.88,159.105z M90.831,76.04
	c-2.4-7.442,1.697-15.446,9.119-17.846l28.522-9.209c-4.351,11.891-0.374,18.304,2.099,38.676
	c-2.28,5.182-5.895,9.581-10.535,12.815c-6.217,4.339-8.908,12.483-6.538,19.795c44.53,137.783,39.613,122.725,43.687,135.57H148.9
	C128.868,193.802,111.069,138.699,90.831,76.04z M423.056,458.484H332.25c-4.161,0-7.532,3.371-7.532,7.532
	c0,4.161,3.371,7.532,7.532,7.532h90.806v12.196c0,6.171-5.02,11.192-11.191,11.192H116.943c-13.871,0-25.415-10.136-27.621-23.387
	h212.8c4.161,0,7.532-3.371,7.532-7.532s-3.371-7.532-7.532-7.532H88.936v-26.309h334.12V458.484z M423.056,417.111H88.936v-23.848
	h334.12V417.111z M423.056,336.825H209.871c-4.161,0-7.532,3.371-7.532,7.532s3.371,7.532,7.532,7.532h213.185v26.309H88.936
	v-26.309h90.806c4.161,0,7.532-3.371,7.532-7.532s-3.371-7.532-7.532-7.532H88.936v-35.316c13.868,10.814,27.62,7.698,32.137,8.241
	h301.984L423.056,336.825L423.056,336.825z M171.717,294.654c0.014,0,0.029,0,0.044,0
	C171.745,294.654,171.733,294.653,171.717,294.654z M423.064,294.653H172.01h-0.019c-0.028,0-0.05,0-0.074,0
	c-0.008,0-0.015,0-0.024,0c0.005,0,0.009,0,0.013,0c-0.029,0-0.055,0-0.08,0c0.006,0,0.012,0,0.018,0c-0.058,0-0.136,0-0.233,0
	c-0.01,0-0.01,0-0.003,0c-1.925,0.001-12.091,0.007-56.883,0.032c-14.211,0-25.78-11.559-25.78-25.78v-4.308
	c0-14.221,11.57-25.79,25.78-25.79h12.835l5.506,17.037h-22.689c-4.161,0-7.532,3.371-7.532,7.532c0,4.161,3.371,7.532,7.532,7.532
	h312.688v23.746H423.064z M423.064,255.844h-46.871v-17.037h34.598c6.769,0,12.272,5.514,12.272,12.283V255.844z"/>
<g>
</g>
<g>
</g>
<g>
</g>
<g>
</g>
<g>
</g>
<g>
</g>
<g>
</g>
<g>
</g>
<g>
</g>
<g>
</g>
<g>
</g>
<g>
</g>
<g>
</g>
<g>
</g>
<g>
</g>
</svg>
