<?xml version="1.0" encoding="iso-8859-1"?>
<!-- Generator: Adobe Illustrator 21.0.0, SVG Export Plug-In . SVG Version: 6.00 Build 0)  -->
<svg version="1.1" id="Capa_1" xmlns="http://www.w3.org/2000/svg" xmlns:xlink="http://www.w3.org/1999/xlink" x="0px" y="0px"
	 viewBox="0 0 512 512" style="enable-background:new 0 0 512 512;" xml:space="preserve">
<path style="fill:#5CC45C;" d="M480.349,228.701L131.505,390.908c-4.539,2.111-9.93,0.142-12.04-4.397L24.645,182.59
	c-2.111-4.539-0.142-9.93,4.397-12.04L377.886,8.343c4.539-2.111,9.93-0.142,12.04,4.397l94.82,203.921
	C486.856,221.2,484.888,226.591,480.349,228.701z"/>
<path style="fill:#4EAD4E;" d="M484.746,216.661L389.926,12.74c-2.111-4.539-7.501-6.508-12.04-4.397l-41.792,19.433
	l102.463,220.358l41.792-19.433C484.888,226.591,486.856,221.2,484.746,216.661z"/>
<path style="fill:#A0E557;" d="M160.763,349.769c-7.537-12.762-23.17-18.471-37.158-13.57c-0.791,0.277-1.662-0.107-2.015-0.867
	L65.148,213.947c-0.353-0.76-0.086-1.674,0.635-2.1c12.762-7.537,18.471-23.17,13.57-37.158c-0.277-0.791,0.107-1.662,0.867-2.015
	L346.528,48.846c0.76-0.353,1.674-0.086,2.1,0.635c7.537,12.762,23.17,18.471,37.158,13.57c0.791-0.277,1.662,0.107,2.015,0.867
	l56.441,121.384c0.353,0.76,0.086,1.674-0.635,2.1c-12.762,7.537-18.471,23.17-13.57,37.158c0.277,0.791-0.107,1.662-0.867,2.015
	L162.863,350.404C162.103,350.758,161.189,350.49,160.763,349.769z"/>
<path style="fill:#93CC4A;" d="M444.242,185.303L387.801,63.919c-0.353-0.76-1.224-1.145-2.015-0.867
	c-13.988,4.901-29.621-0.808-37.158-13.57c-0.426-0.722-1.34-0.989-2.1-0.636l-50.492,23.478
	c9.488,10.711,25.012,14.709,38.788,9.146l63.901,137.427c-11.529,6.1-18.285,17.982-18.359,30.372l48.804-22.693
	c0.76-0.353,1.144-1.224,0.867-2.015c-4.901-13.988,0.808-29.621,13.57-37.158C444.329,186.977,444.596,186.063,444.242,185.303z"/>
<ellipse transform="matrix(0.9068 -0.4216 0.4216 0.9068 -60.4221 125.989)" style="fill:#F3E8D7;" cx="254.701" cy="199.633" rx="66.481" ry="66.481"/>
<circle style="fill:#FCB038;" cx="125.979" cy="151.32" r="81.898"/>
<path style="fill:#FD8F31;" d="M125.98,69.423c-9.634,0-18.873,1.677-27.459,4.733c31.722,11.29,54.439,41.568,54.439,77.165
	s-22.717,65.875-54.439,77.165c8.585,3.055,17.825,4.733,27.459,4.733c45.231,0,81.898-36.667,81.898-81.898
	S171.211,69.423,125.98,69.423z"/>
<path d="M124.398,189.838c-15.295-0.247-25.657-8.511-25.657-14.556c0-2.96,2.591-7.031,5.674-7.031
	c4.071,0,7.401,8.635,19.983,9.622v-28.988c-11.102-3.947-23.437-8.388-23.437-24.177c0-15.542,11.718-21.71,23.437-22.943v-3.578
	c0-1.48,1.48-2.837,3.577-2.837c1.851,0,3.701,1.357,3.701,2.837v3.331c8.388,0.247,20.23,2.837,20.23,8.881
	c0,2.344-1.727,7.031-5.428,7.031c-2.96,0-6.167-3.947-14.802-4.564v25.041c10.732,3.947,22.45,9.375,22.45,26.15
	c0,15.172-9.128,23.56-22.45,25.411v4.194c0,1.48-1.85,2.837-3.701,2.837c-2.097,0-3.577-1.357-3.577-2.837V189.838z
	 M125.139,135.563v-22.45c-6.908,0.863-11.842,3.947-11.842,10.362C113.297,130.506,118.601,133.096,125.139,135.563z
	 M130.937,151.599v26.027c6.661-1.233,10.854-5.181,10.854-12.212C141.791,157.643,136.98,154.189,130.937,151.599z"/>
<path style="fill:#917267;" d="M463.814,504.51H32.597c-12.598,0-22.811-10.213-22.811-22.811V193.431
	c0-12.598,10.213-22.811,22.811-22.811h431.217c12.598,0,22.811,10.213,22.811,22.811V481.7
	C486.625,494.298,476.412,504.51,463.814,504.51z"/>
<path style="fill:#82655D;" d="M463.814,170.62h-30.972V504.51h30.972c12.598,0,22.811-10.213,22.811-22.811V193.431
	C486.625,180.833,476.412,170.62,463.814,170.62z"/>
<path style="fill:#765147;" d="M490.937,386.092h-89.629c-26.801,0-48.527-21.726-48.527-48.527l0,0
	c0-26.801,21.726-48.527,48.527-48.527h89.629c6.227,0,11.275,5.048,11.275,11.275v74.505
	C502.212,381.045,497.164,386.092,490.937,386.092z"/>
<circle style="fill:#F3E8D7;" cx="401.649" cy="337.57" r="21.816"/>
<path style="fill:#68463E;" d="M490.937,289.039h-58.095v97.054h58.095c6.227,0,11.275-5.048,11.275-11.275v-74.505
	C502.212,294.087,497.164,289.039,490.937,289.039z"/>
<path d="M490.937,281.549h-89.629c-30.887,0-56.016,25.128-56.016,56.016s25.128,56.016,56.016,56.016h89.629
	c10.346,0,18.763-8.417,18.763-18.763v-74.505C509.701,289.967,501.283,281.549,490.937,281.549z M494.723,374.818
	c0,2.088-1.698,3.786-3.786,3.786h-89.629c-22.629,0-41.038-18.409-41.038-41.038s18.409-41.038,41.038-41.038h89.629
	c2.088,0,3.786,1.698,3.786,3.786V374.818z"/>
<path d="M401.654,308.26c-16.158,0-29.304,13.146-29.304,29.304s13.146,29.304,29.304,29.304c16.158,0,29.304-13.146,29.304-29.304
	S417.813,308.26,401.654,308.26z M401.654,351.892c-7.9,0-14.327-6.427-14.327-14.327s6.427-14.327,14.327-14.327
	s14.327,6.427,14.327,14.327S409.554,351.892,401.654,351.892z"/>
<path d="M486.625,413.5c-4.136,0-7.489,3.353-7.489,7.489v33.402H17.275V220.74h461.861v33.454c0,4.136,3.353,7.489,7.489,7.489
	s7.489-3.353,7.489-7.489V193.43c0-15.194-11.243-27.809-25.846-29.97L396.717,9.583c-1.864-4.009-5.178-7.052-9.331-8.569
	c-4.152-1.517-8.648-1.326-12.657,0.539L188.945,87.938c-16.169-16.063-38.427-26.004-62.965-26.004
	c-49.288,0-89.386,40.099-89.386,89.386c0,3.94,0.274,7.888,0.798,11.811h-4.794c-16.707,0-30.299,13.592-30.299,30.3V481.7
	c0,16.707,13.592,30.3,30.299,30.3h431.217c16.707,0,30.3-13.592,30.3-30.3v-60.711C494.114,416.853,490.761,413.5,486.625,413.5z
	 M381.043,15.133c0.49-0.227,0.925-0.153,1.204-0.051c0.279,0.102,0.661,0.326,0.888,0.815l68.462,147.234h-9.405L394.593,60.765
	c-1.99-4.284-6.843-6.339-11.283-4.78c-10.633,3.726-22.505-0.612-28.233-10.311c-2.394-4.054-7.427-5.609-11.706-3.618
	l-76.342,35.497c-3.75,1.744-5.377,6.198-3.633,9.948c1.744,3.751,6.199,5.377,9.948,3.633l71.881-33.424
	c8.999,11.291,23.701,16.659,37.859,13.826l42.59,91.594H318.998c-8.743-15.454-22.59-27.15-39.464-33.172
	c-18.407-6.569-38.304-5.649-56.027,2.593c-3.198,1.487-6.259,3.198-9.185,5.101c-0.907-5.885-2.389-11.583-4.388-17.034
	l31.808-14.79c3.75-1.744,5.377-6.198,3.633-9.948c-1.744-3.751-6.197-5.376-9.948-3.633l-31.82,14.796
	c-0.09-0.158-0.182-0.314-0.273-0.471c-1.344-2.32-2.781-4.59-4.336-6.791L381.043,15.133z M301.047,163.131h-86.468
	c0.025-0.186,0.042-0.372,0.065-0.557c0.07-0.551,0.133-1.103,0.193-1.655c0.042-0.385,0.084-0.769,0.121-1.154
	c0.055-0.577,0.101-1.154,0.144-1.731c0.027-0.362,0.058-0.723,0.081-1.084c0.025-0.401,0.044-0.801,0.064-1.202
	c4.34-3.902,9.231-7.129,14.575-9.615c14.133-6.572,30.001-7.306,44.677-2.068C285.12,147.856,294.245,154.459,301.047,163.131z
	 M125.98,76.912c29.444,0,54.946,17.192,67.002,42.064c0.161,0.333,0.307,0.673,0.463,1.008c0.324,0.695,0.646,1.39,0.949,2.096
	c0.228,0.533,0.439,1.074,0.654,1.612c0.208,0.519,0.42,1.036,0.616,1.561c0.233,0.622,0.45,1.251,0.666,1.88
	c0.157,0.454,0.315,0.907,0.463,1.365c0.215,0.666,0.415,1.336,0.611,2.008c0.128,0.437,0.255,0.875,0.374,1.315
	c0.185,0.682,0.359,1.367,0.525,2.055c0.108,0.45,0.213,0.901,0.313,1.354c0.15,0.677,0.292,1.356,0.423,2.037
	c0.094,0.49,0.18,0.984,0.264,1.477c0.111,0.649,0.22,1.299,0.314,1.952c0.081,0.562,0.148,1.128,0.216,1.694
	c0.072,0.595,0.147,1.189,0.204,1.786c0.067,0.697,0.113,1.401,0.16,2.104c0.032,0.478,0.075,0.955,0.098,1.435
	c0.057,1.195,0.091,2.396,0.091,3.605c0,0.281-0.014,0.562-0.017,0.842c-0.002,0.058-0.01,0.115-0.011,0.174
	c-0.028,2.072-0.142,4.139-0.34,6.195c-0.006,0.061-0.012,0.122-0.018,0.183c-0.118,1.199-0.269,2.394-0.445,3.584
	c-0.023,0.154-0.041,0.308-0.065,0.461c-0.019,0.124-0.043,0.247-0.062,0.371H52.519c-0.63-3.916-0.948-7.87-0.948-11.811
	C51.571,110.291,84.951,76.912,125.98,76.912z M32.597,178.109C32.606,178.109,32.588,178.109,32.597,178.109
	C32.609,178.109,32.585,178.109,32.597,178.109h430.741h0.476c8.449,0,15.322,6.874,15.322,15.322v12.332H17.275v-12.332
	C17.275,184.982,24.149,178.109,32.597,178.109 M479.136,481.7c0,8.449-6.874,15.322-15.322,15.322H32.597
	c-8.448,0-15.322-6.874-15.322-15.322v-12.332h461.861V481.7z"/>
<g>
</g>
<g>
</g>
<g>
</g>
<g>
</g>
<g>
</g>
<g>
</g>
<g>
</g>
<g>
</g>
<g>
</g>
<g>
</g>
<g>
</g>
<g>
</g>
<g>
</g>
<g>
</g>
<g>
</g>
</svg>
