<?xml version="1.0" encoding="iso-8859-1"?>
<!-- Generator: Adobe Illustrator 21.0.0, SVG Export Plug-In . SVG Version: 6.00 Build 0)  -->
<svg version="1.1" id="Capa_1" xmlns="http://www.w3.org/2000/svg" xmlns:xlink="http://www.w3.org/1999/xlink" x="0px" y="0px"
	 viewBox="0 0 512 512" style="enable-background:new 0 0 512 512;" xml:space="preserve">
<path style="fill:#5CC45C;" d="M441.558,419.759H7.673c-4.238,0-7.673-3.435-7.673-7.673V156.43c0-4.238,3.435-7.673,7.673-7.673
	h433.885c4.238,0,7.673,3.435,7.673,7.673v255.656C449.23,416.323,445.795,419.759,441.558,419.759z"/>
<path style="fill:#4EAD4E;" d="M441.558,148.757H7.673c-4.238,0-7.673,3.435-7.673,7.673v249.033h449.23V156.43
	C449.23,152.193,445.795,148.757,441.558,148.757z"/>
<path style="fill:#5CC45C;" d="M471.914,392.529H38.029c-4.238,0-7.673-3.435-7.673-7.673V129.201c0-4.238,3.435-7.673,7.673-7.673
	h433.885c4.238,0,7.673,3.435,7.673,7.673v255.656C479.586,389.094,476.151,392.529,471.914,392.529z"/>
<path style="fill:#4EAD4E;" d="M471.914,121.528H38.029c-4.238,0-7.673,3.435-7.673,7.673v247.876h449.23V129.201
	C479.587,124.963,476.151,121.528,471.914,121.528z"/>
<path style="fill:#5CC45C;" d="M504.327,363.243H70.442c-4.238,0-7.673-3.435-7.673-7.673V99.914c0-4.238,3.435-7.673,7.673-7.673
	h433.885c4.238,0,7.673,3.435,7.673,7.673V355.57C512,359.807,508.565,363.243,504.327,363.243z"/>
<path style="fill:#4EAD4E;" d="M504.327,92.241H456.51v271.001h47.817c4.238,0,7.673-3.435,7.673-7.673V99.914
	C512,95.677,508.565,92.241,504.327,92.241z"/>
<path style="fill:#A0E557;" d="M121.805,335.4c-1.621-16.449-14.744-29.572-31.193-31.193c-0.93-0.092-1.63-0.89-1.63-1.824v-149.28
	c0-0.934,0.7-1.733,1.63-1.824c16.449-1.621,29.572-14.744,31.193-31.193c0.092-0.93,0.89-1.63,1.824-1.63h327.51
	c0.934,0,1.733,0.7,1.824,1.63c1.621,16.449,14.744,29.572,31.193,31.193c0.93,0.092,1.63,0.89,1.63,1.824v149.28
	c0,0.934-0.7,1.733-1.63,1.824c-16.449,1.621-29.572,14.744-31.193,31.193c-0.092,0.93-0.89,1.63-1.824,1.63H123.63
	C122.695,337.03,121.897,336.33,121.805,335.4z"/>
<path style="fill:#93CC4A;" d="M484.158,151.277c-16.449-1.621-29.572-14.744-31.193-31.193c-0.092-0.93-0.89-1.63-1.824-1.63
	h-22.012V337.03h22.012c0.934,0,1.733-0.7,1.824-1.63c1.621-16.449,14.744-29.572,31.193-31.193c0.93-0.092,1.63-0.89,1.63-1.825
	v-149.28C485.787,152.168,485.088,151.369,484.158,151.277z"/>
<circle style="fill:#F3E8D7;" cx="287.38" cy="227.74" r="74.14"/>
<path style="fill:#DDD1C3;" d="M287.385,153.605c-10.036,0-19.6,2.005-28.33,5.618c26.886,11.129,45.807,37.61,45.807,68.519
	s-18.92,57.389-45.807,68.519c8.73,3.613,18.294,5.618,28.33,5.618c40.945,0,74.137-33.192,74.137-74.137
	S328.329,153.605,287.385,153.605z"/>
<path style="fill:#4EAD4E;" d="M283.039,263.594v-14.136c0-0.557-0.451-1.008-1.008-1.008h-15.45c-2.686,0-4.864-2.178-4.864-4.864
	l0,0c0-2.686,2.178-4.864,4.864-4.864h15.45c0.557,0,1.008-0.451,1.008-1.008v-4.702c0-0.557-0.451-1.008-1.008-1.008H266.58
	c-2.686,0-4.864-2.178-4.864-4.864l0,0c0-2.686,2.178-4.864,4.864-4.864h15.451c0.557,0,1.008-0.451,1.008-1.008v-0.504
	c0-0.189-0.053-0.373-0.153-0.533l-17.548-28.152c-2.244-3.601,0.344-8.265,4.587-8.265l0,0c1.866,0,3.6,0.962,4.587,2.546
	l13.418,21.525c0.395,0.633,1.316,0.633,1.711,0l13.418-21.525c0.987-1.584,2.721-2.546,4.587-2.546l0,0
	c4.243,0,6.832,4.664,4.587,8.265l-17.548,28.152c-0.1,0.16-0.153,0.345-0.153,0.533v0.504c0,0.557,0.451,1.008,1.008,1.008h15.451
	c2.686,0,4.864,2.178,4.864,4.864l0,0c0,2.686-2.178,4.864-4.864,4.864H295.54c-0.557,0-1.008,0.451-1.008,1.008v4.702
	c0,0.557,0.451,1.008,1.008,1.008h15.45c2.686,0,4.864,2.178,4.864,4.864l0,0c0,2.686-2.178,4.864-4.864,4.864h-15.45
	c-0.557,0-1.008,0.451-1.008,1.008v14.136c0,3.174-2.573,5.747-5.747,5.747l0,0C285.612,269.34,283.039,266.767,283.039,263.594z"/>
<g>
</g>
<g>
</g>
<g>
</g>
<g>
</g>
<g>
</g>
<g>
</g>
<g>
</g>
<g>
</g>
<g>
</g>
<g>
</g>
<g>
</g>
<g>
</g>
<g>
</g>
<g>
</g>
<g>
</g>
</svg>
