<svg id="Capa_1" enable-background="new 0 0 511.984 511.984" height="512" viewBox="0 0 511.984 511.984" width="512" xmlns="http://www.w3.org/2000/svg"><g><path d="m483.244 183.501-117.267 13.31-50.804-50.804 13.31-117.267c.4-5.292 2.62-10.472 6.667-14.518 8.981-8.981 23.542-8.981 32.523 0s8.981 23.542 0 32.523-8.981 23.542 0 32.523 23.542 8.981 32.523 0 23.542-8.981 32.523 0 8.981 23.542 0 32.523-8.981 23.542 0 32.523 23.542 8.981 32.523 0 23.542-8.981 32.523 0 8.981 23.542 0 32.523c-4.049 4.044-9.229 6.264-14.521 6.664z" fill="#fcc16d"/><path d="m497.758 176.835c-4.04 4.05-9.22 6.27-14.51 6.67l-117.269 13.31-18.6-18.6 109.679-12.45c5.29-.4 10.47-2.62 14.52-6.67 5.75-5.75 7.82-13.8 6.2-21.2 7.05-1.16 14.54.98 19.98 6.42 8.99 8.98 8.99 23.54 0 32.52z" fill="#fcb44d"/><path d="m28.755 328.468 117.267-13.31 50.804 50.804-13.31 117.267c-.4 5.292-2.62 10.472-6.667 14.518-8.981 8.981-23.542 8.981-32.523 0s-8.981-23.542 0-32.523 8.981-23.542 0-32.523-23.542-8.981-32.523 0-23.542 8.981-32.523 0-8.981-23.542 0-32.523 8.981-23.542 0-32.523-23.542-8.981-32.523 0-23.542 8.981-32.523 0-8.981-23.542 0-32.523c4.049-4.044 9.229-6.264 14.521-6.664z" fill="#fcc16d"/><path d="m196.83 365.964-13.31 117.269c-.4 5.29-2.62 10.47-6.67 14.51-8.98 8.99-23.54 8.99-32.52 0-1.69-1.69-3.06-3.58-4.11-5.59 2.02-1.06 3.91-2.44 5.6-4.13 4.05-4.05 6.27-9.23 6.67-14.52l15.24-136.639z" fill="#fcb44d"/><g><circle cx="256" cy="255.986" fill="#3ad1e0" r="153.837"/><path d="m409.841 255.986c0 84.96-68.88 153.84-153.84 153.84-9.42 0-18.63-.85-27.58-2.46 71.81-13 126.26-75.84 126.26-151.38s-54.45-138.38-126.26-151.38c8.95-1.61 18.16-2.46 27.58-2.46 84.959 0 153.84 68.88 153.84 153.84z" fill="#22c7db"/><path d="m409.841 255.986c0 33.18-10.5 63.91-28.37 89.03-9.75 1.63-19.66 2.47-29.65 2.47-66.56 0-102.39-31.04-128.56-53.71-21.8-18.89-33.81-29.29-63.08-29.29-20.72 0-40.06 7.62-55.07 21.59-1.94-9.73-2.95-19.79-2.95-30.09 0-33.18 10.5-63.91 28.37-89.03 9.75-1.63 19.66-2.47 29.65-2.47 66.56 0 102.39 31.04 128.56 53.71 21.8 18.89 33.81 29.29 63.08 29.29 20.72 0 40.06-7.62 55.07-21.59 1.94 9.73 2.95 19.79 2.95 30.09z" fill="#fcc16d"/><path d="m409.841 255.986c0 33.18-10.5 63.91-28.37 89.03-9.75 1.63-19.66 2.47-29.65 2.47-9.27 0-17.94-.6-26.07-1.7 18.21-25.27 28.93-56.28 28.93-89.8 0-2.87-.08-5.71-.25-8.54 19.73-.61 38.08-8.17 52.46-21.55 1.94 9.73 2.95 19.79 2.95 30.09z" fill="#fcb44d"/></g><path d="m503.066 139.009c-5.76-5.761-13.419-8.934-21.564-8.934-8.146 0-15.805 3.173-21.565 8.933-6.042 6.043-15.873 6.042-21.915.001-6.042-6.043-6.042-15.875 0-21.917 11.89-11.891 11.89-31.238 0-43.128-5.76-5.761-13.419-8.934-21.565-8.934s-15.805 3.173-21.563 8.933c-6.045 6.043-15.875 6.041-21.916 0-6.043-6.042-6.043-15.874 0-21.916 11.89-11.891 11.89-31.238-.001-43.13-11.891-11.891-31.238-11.889-43.129 0-5.117 5.118-8.25 11.898-8.83 19.106l-8.714 76.768c-17.539-6.551-36.509-10.142-56.304-10.142-88.961 0-161.337 72.375-161.337 161.337 0 19.751 3.562 38.733 10.093 56.308l-76.718 8.708c-7.208.58-13.989 3.712-19.106 8.83-5.759 5.759-8.932 13.418-8.932 21.564s3.172 15.805 8.933 21.565c11.891 11.889 31.238 11.89 43.129-.001 2.927-2.927 6.819-4.539 10.958-4.539s8.031 1.612 10.958 4.54c2.927 2.927 4.539 6.818 4.539 10.957 0 4.14-1.612 8.031-4.539 10.958-5.76 5.76-8.933 13.419-8.933 21.564 0 8.146 3.172 15.806 8.933 21.565 11.891 11.889 31.238 11.889 43.129 0 6.042-6.043 15.875-6.043 21.916 0 2.927 2.927 4.539 6.818 4.539 10.957 0 4.14-1.612 8.031-4.539 10.958-5.76 5.761-8.932 13.419-8.932 21.564 0 8.146 3.172 15.805 8.932 21.564 5.76 5.761 13.418 8.934 21.564 8.934s15.805-3.173 21.565-8.934c5.118-5.118 8.25-11.898 8.83-19.106l8.706-76.703c12.014 4.454 24.731 7.539 37.982 9.039 4.113.473 7.83-2.493 8.296-6.608.466-4.116-2.493-7.83-6.609-8.296-62.758-7.103-112.409-53.212-125.991-112.561 13.229-11.005 29.396-16.828 46.815-16.828 26.479 0 36.41 8.604 58.172 27.462 27.057 23.438 64.113 55.538 133.468 55.538 4.19 0 8.402-.152 12.612-.438-23.502 25.877-56.297 43.298-93.675 47.038-4.121.413-7.128 4.088-6.716 8.21.387 3.867 3.647 6.754 7.454 6.754.25 0 .502-.013.756-.038 39.59-3.962 76.203-22.416 103.097-51.963 27.077-29.749 41.989-68.305 41.989-108.563 0-19.796-3.592-38.766-10.144-56.305l7.885-.895c4.116-.468 7.073-4.183 6.606-8.298-.467-4.117-4.192-7.058-8.298-6.606l-12.388 1.406c-4.143-8.462-9.007-16.508-14.508-24.062l16.938-9.992c3.567-2.104 4.754-6.703 2.649-10.271s-6.702-4.751-10.271-2.649l-18.799 11.089c-4.846-5.496-10.054-10.666-15.597-15.46l6.704-14.274c1.761-3.749.148-8.216-3.601-9.978-3.75-1.757-8.216-.149-9.978 3.601l-5.232 11.141c-7.129-5.071-14.69-9.571-22.609-13.448l9.239-81.401c.011-.094.02-.188.026-.281.278-3.688 1.874-7.162 4.492-9.779 6.041-6.042 15.874-6.043 21.915-.001 6.042 6.043 6.042 15.875 0 21.916-11.891 11.892-11.891 31.239 0 43.131 11.891 11.889 31.237 11.89 43.13-.001 2.927-2.927 6.818-4.539 10.957-4.539 4.14 0 8.031 1.612 10.958 4.54 2.927 2.927 4.539 6.817 4.539 10.957s-1.612 8.03-4.539 10.958c-11.89 11.891-11.89 31.238 0 43.13 11.892 11.893 31.24 11.891 43.13 0 2.927-2.928 6.818-4.54 10.958-4.54 4.139 0 8.03 1.612 10.957 4.54 6.042 6.041 6.042 15.873 0 21.915-2.617 2.618-6.091 4.213-9.78 4.492-.094.007-.188.016-.28.026l-36.433 4.135c-4.116.467-7.073 4.183-6.606 8.298.435 3.829 3.679 6.655 7.442 6.655.282 0 .568-.017.855-.049l36.303-4.12c7.209-.581 13.989-3.714 19.106-8.831 11.892-11.889 11.892-31.236.002-43.126zm-357.273 234.911-11.503 14.823c-2.54 3.272-1.945 7.983 1.328 10.523 1.367 1.061 2.986 1.574 4.592 1.574 2.238 0 4.453-.997 5.931-2.902l11.086-14.287c8.675 6.718 18.07 12.573 28.064 17.436l-9.227 81.295c-.011.094-.02.188-.026.281-.279 3.688-1.874 7.162-4.491 9.78-2.927 2.927-6.819 4.539-10.958 4.539s-8.031-1.612-10.958-4.54c-2.927-2.927-4.539-6.818-4.539-10.958 0-4.139 1.612-8.03 4.539-10.957 5.76-5.76 8.933-13.419 8.933-21.565s-3.172-15.805-8.933-21.564c-11.89-11.89-31.237-11.89-43.129 0-6.042 6.043-15.874 6.043-21.916 0-2.927-2.927-4.539-6.818-4.539-10.958 0-4.139 1.612-8.03 4.539-10.958 5.76-5.76 8.933-13.419 8.933-21.564s-3.172-15.805-8.933-21.563c-5.76-5.761-13.418-8.934-21.564-8.934s-15.805 3.173-21.564 8.933c-6.042 6.042-15.873 6.043-21.916.001-2.929-2.928-4.542-6.82-4.542-10.959s1.612-8.03 4.54-10.958c2.617-2.617 6.09-4.213 9.779-4.491.094-.007.188-.016.281-.026l81.32-9.23c4.145 8.51 9.018 16.606 14.543 24.208l-12.977 6.201c-3.737 1.786-5.32 6.264-3.534 10.001 1.287 2.694 3.973 4.269 6.772 4.269 1.083 0 2.185-.236 3.228-.734l16.15-7.717c3.387 3.831 6.953 7.505 10.691 11.001zm252.832-150.754c-13.228 11-29.389 16.82-46.804 16.82-26.48 0-36.411-8.604-58.17-27.459-12.1-10.48-27.157-23.524-46.451-34.136-3.628-1.997-8.189-.673-10.186 2.957-1.996 3.629-.672 8.189 2.958 10.186 17.901 9.847 31.692 21.792 43.858 32.33 22.397 19.408 35.916 31.122 67.991 31.122 18.085 0 35.055-5.231 49.618-15.179.587 5.314.899 10.71.899 16.179 0 30.365-9.156 58.638-24.976 82.084-8.46 1.269-17.049 1.916-25.54 1.916-63.761 0-98.374-29.983-123.648-51.878-22.398-19.408-35.917-31.122-67.992-31.122-18.087 0-35.06 5.233-49.624 15.182-.585-5.319-.893-10.717-.893-16.182 0-30.42 9.334-58.699 25.283-82.132 8.352-1.238 16.841-1.868 25.234-1.868 18.07 0 35.172 2.442 50.83 7.26.735.227 1.478.334 2.208.334 3.206 0 6.174-2.072 7.166-5.297 1.218-3.959-1.004-8.155-4.963-9.373-17.088-5.258-35.674-7.924-55.241-7.924-4.063 0-8.146.143-12.228.412 26.779-29.323 65.301-47.749 108.047-47.749 69.41 0 127.686 48.575 142.624 113.517z"/></g></svg>