<svg id="Capa_1" enable-background="new 0 0 512 512" height="512" viewBox="0 0 512 512" width="512" xmlns="http://www.w3.org/2000/svg"><g><circle cx="256.277" cy="256" fill="#ba7c65" r="248.5"/><path d="m504.777 256c0 137.24-111.26 248.5-248.5 248.5-9.43 0-18.73-.52-27.88-1.55 124.11-13.86 220.61-119.14 220.61-246.95s-96.5-233.09-220.61-246.95c9.15-1.03 18.45-1.55 27.88-1.55 137.24 0 248.5 111.26 248.5 248.5z" fill="#a96a53"/><path d="m153.11 188.531 45.314-25.834c4.145-2.363 9.382-1.469 12.508 2.136l24.332 28.059c2.992 3.45 3.266 8.489.667 12.244l-17.504 25.284c-1.868 2.698-4.94 4.308-8.222 4.308h-38.388c-3.788 0-7.25-2.14-8.944-5.528l-13.754-27.509c-2.376-4.751-.623-10.529 3.991-13.16z" fill="#865240"/><path d="m235.927 205.14-17.5 25.28c-1.87 2.7-4.94 4.31-8.22 4.31h-23.48c.4-.4.76-.84 1.09-1.31l17.5-25.28c2.6-3.76 2.33-8.8-.66-12.25l-21.33-24.59 15.1-8.6c4.14-2.37 9.38-1.47 12.5 2.13l24.34 28.06c2.99 3.45 3.26 8.49.66 12.25z" fill="#7b4b39"/><path d="m87.22 30.448 34.81-19.845c3.329-1.898 7.45-1.726 10.61.441l35.032 24.033c4.568 3.134 5.718 9.384 2.565 13.938l-16.595 23.97c-1.868 2.698-4.94 4.308-8.222 4.308h-39.167c-3.788 0-7.25-2.14-8.944-5.528l-14.081-28.157c-2.375-4.751-.622-10.529 3.992-13.16z" fill="#865240"/><path d="m170.237 49.02-16.6 23.97c-1.86 2.69-4.94 4.3-8.22 4.3h-21.21l15.42-22.27c3.15-4.56 2-10.81-2.57-13.94l-31.08-21.33 16.05-9.15c3.33-1.89 7.45-1.72 10.61.44l35.03 24.04c4.57 3.13 5.72 9.38 2.57 13.94z" fill="#7b4b39"/><path d="m393.158 62.392 59.181 9.06c7.305 1.118 10.915 9.501 6.709 15.577l-18.481 26.695c-1.868 2.698-4.94 4.308-8.222 4.308h-33.288c-4.74 0-8.83-3.328-9.792-7.97l-7.412-35.755c-1.416-6.827 4.413-12.97 11.305-11.915z" fill="#865240"/><path d="m459.047 87.03-18.48 26.69c-1.87 2.7-4.94 4.31-8.22 4.31h-33.29c-.55 0-1.09-.04-1.62-.13 3.11-.6 5.9-2.38 7.73-5.04l22.51-32.51c2.75-3.97 2.76-8.76.8-12.55l23.86 3.65c7.31 1.12 10.92 9.5 6.71 15.58z" fill="#7b4b39"/><path d="m413.237 263.659-3.85 38.019c-.413 4.083-3.279 7.498-7.228 8.615l-47.839 13.531c-5.215 1.475-10.656-1.473-12.269-6.648l-13.942-44.744c-1.199-3.849.03-8.043 3.119-10.635l33.112-27.79c3.36-2.82 8.165-3.121 11.851-.743l32.519 20.985c3.157 2.037 4.905 5.672 4.527 9.41z" fill="#865240"/><path d="m413.237 263.66-3.85 38.02c-.41 4.08-3.28 7.5-7.23 8.61l-28.26 7.99c2.71-1.58 4.56-4.38 4.88-7.6l3.85-38.02c.38-3.74-1.37-7.37-4.53-9.41l-27.47-17.73 13.71-11.51c3.36-2.82 8.17-3.12 11.85-.75l32.52 20.99c3.16 2.04 4.91 5.67 4.53 9.41z" fill="#7b4b39"/><path d="m126.523 381.057-30.766-3.116c-4.083-.413-7.498-3.279-8.615-7.228l-10.96-38.751c-1.475-5.215 1.473-10.656 6.648-12.269l36.134-11.259c3.849-1.199 8.043.03 10.635 3.119l22.543 26.86c2.82 3.36 3.121 8.165.743 11.851l-16.95 26.267c-2.04 3.156-5.674 4.904-9.412 4.526z" fill="#865240"/><path d="m152.887 350.26-16.95 26.27c-2.04 3.16-5.68 4.91-9.41 4.53l-20.82-2.11 16.57-25.69c2.37-3.68 2.07-8.49-.75-11.85l-22.47-26.78 19.91-6.2c3.85-1.2 8.04.03 10.63 3.12l22.54 26.86c2.82 3.36 3.12 8.17.75 11.85z" fill="#7b4b39"/><path d="m438.808 429.179-3.116 30.766c-.413 4.083-3.279 7.498-7.228 8.615l-38.751 10.96c-5.215 1.475-10.656-1.473-12.269-6.648l-11.259-36.134c-1.199-3.849.03-8.043 3.119-10.635l26.86-22.543c3.36-2.82 8.165-3.121 11.851-.743l26.267 16.95c3.156 2.039 4.905 5.674 4.526 9.412z" fill="#865240"/><path d="m438.807 429.18-3.11 30.77c-.42 4.08-3.28 7.49-7.23 8.61l-23.46 6.63c1.71-1.6 2.83-3.8 3.08-6.24l3.11-30.77c.38-3.74-1.37-7.37-4.53-9.41l-22.92-14.79 12.42-10.42c3.36-2.82 8.16-3.12 11.85-.74l26.26 16.95c3.159 2.04 4.909 5.67 4.53 9.41z" fill="#7b4b39"/><g><path d="m504.711 264.938c-4.107-.259-7.703 2.862-7.973 6.996-3.396 52.034-24.022 102.19-58.174 141.685-.073-.049-.143-.103-.217-.151l-26.267-16.95c-6.49-4.187-14.824-3.664-20.739 1.299l-26.859 22.543c-5.422 4.551-7.563 11.856-5.457 18.611l9.461 30.363c-34.372 18.108-73.089 27.666-112.209 27.666-59.987 0-117.474-22.18-161.869-62.452-3.068-2.782-7.811-2.553-10.594.516-2.783 3.067-2.552 7.811.516 10.594 47.16 42.781 108.225 66.342 171.947 66.342 41.417 0 82.418-10.089 118.852-29.21 3.171 2.933 7.358 4.625 11.783 4.625 1.597 0 3.225-.22 4.844-.678l38.752-10.96c6.954-1.968 11.918-7.885 12.647-15.076l3.115-30.766c.088-.873.107-1.74.068-2.598.304-.248.598-.513.868-.815 37.897-42.411 60.805-96.966 64.502-153.612.269-4.133-2.863-7.702-6.997-7.972zm-73.365 163.485-3.115 30.766c-.104 1.028-.813 1.874-1.807 2.155l-38.752 10.96c-1.317.371-2.661-.358-3.067-1.662l-11.259-36.135c-.301-.965.005-2.008.779-2.657l26.859-22.543c.465-.39 1.033-.588 1.605-.588.469 0 .94.133 1.358.402l26.266 16.95c.795.512 1.229 1.413 1.133 2.352z"/><path d="m15.277 256c0-67.507 28.242-131.645 77.741-177.259 3.272 3.803 8.046 6.053 13.235 6.053h39.167c5.742 0 11.12-2.818 14.389-7.539l16.595-23.97c2.668-3.855 3.671-8.518 2.823-13.128-.762-4.142-2.944-7.782-6.18-10.404 26.576-9.795 54.517-14.753 83.23-14.753 47.379 0 93.696 14.047 132.906 39.957-3.859.55-7.483 2.376-10.233 5.275-3.943 4.156-5.604 9.986-4.44 15.598l7.411 35.755c1.676 8.081 8.883 13.947 17.136 13.947h33.288c5.74 0 11.119-2.817 14.39-7.539l3.49-5.042c27.416 37.094 43.467 80.828 46.507 126.975.261 3.966 3.559 7.007 7.476 7.007.166 0 .333-.005.501-.017 4.133-.271 7.263-3.843 6.99-7.977-3.341-50.728-21.48-98.713-52.484-138.974l6-8.667c3.458-4.994 4.088-11.306 1.686-16.884s-7.421-9.458-13.425-10.377l-33.904-5.19c-45.764-37.949-103.739-58.847-163.295-58.847-33.995 0-66.975 6.566-98.079 19.484l-21.315-14.624c-5.493-3.768-12.78-4.071-18.567-.772l-34.81 19.845s0 0-.001 0c-8.072 4.604-11.14 14.719-6.984 23.029l9.114 18.229c-54.299 48.591-85.358 117.846-85.358 190.809 0 60.431 21.47 119.101 60.454 165.201 1.484 1.755 3.6 2.657 5.731 2.657 1.71 0 3.431-.582 4.839-1.773 3.163-2.674 3.559-7.406.884-10.569-36.698-43.397-56.908-98.627-56.908-155.516zm437.844-175.653c.205.476.446 1.421-.241 2.413l-18.479 26.693c-.467.675-1.236 1.078-2.057 1.078h-33.288c-1.179 0-2.209-.839-2.448-1.993l-7.411-35.754c-.23-1.114.299-1.874.635-2.229.293-.31.889-.782 1.783-.782.13 0 .266.01.408.032l59.182 9.06c1.191.182 1.712 1.007 1.916 1.482zm-362.186-43.383 34.81-19.846c.827-.47 1.868-.427 2.652.111l35.031 24.033c.745.512.974 1.228 1.044 1.609s.111 1.132-.403 1.875l-16.595 23.97c-.467.675-1.235 1.077-2.056 1.077h-39.167c-.953 0-1.81-.529-2.236-1.382l-14.08-28.159c-.592-1.186-.154-2.631 1-3.288z"/><path d="m240.929 187.979-24.332-28.058c-5.452-6.286-14.657-7.86-21.889-3.739l-9.907 5.648c-3.598 2.052-4.852 6.632-2.801 10.23 2.052 3.598 6.632 4.851 10.23 2.801l9.905-5.648c1.033-.588 2.349-.365 3.128.535l24.332 28.058c.749.863.817 2.122.167 3.061l-17.504 25.284c-.467.675-1.235 1.077-2.055 1.077h-38.388c-.953 0-1.81-.529-2.236-1.383l-13.754-27.509c-.593-1.187-.155-2.632.998-3.289l6.744-3.845c3.599-2.052 4.853-6.632 2.801-10.23s-6.632-4.852-10.23-2.801l-6.745 3.845c-8.072 4.603-11.141 14.718-6.985 23.029l13.754 27.509c2.983 5.967 8.981 9.674 15.652 9.674h38.388c5.742 0 11.121-2.818 14.388-7.539l17.504-25.283c4.554-6.575 4.074-15.385-1.165-21.427z"/><path d="m356.361 331.04 47.838-13.531c6.956-1.966 11.922-7.884 12.649-15.075l3.851-38.019c.666-6.574-2.369-12.885-7.923-16.468l-32.519-20.985c-6.487-4.187-14.822-3.665-20.739 1.299l-33.112 27.791c-5.42 4.55-7.563 11.854-5.457 18.611l13.942 44.744c2.343 7.518 9.156 12.31 16.628 12.31 1.595 0 3.223-.219 4.842-.677zm-7.15-16.096-13.942-44.743c-.301-.966.006-2.01.779-2.659l33.111-27.79c.465-.391 1.034-.589 1.607-.589.469 0 .939.133 1.357.402l32.519 20.985c.794.512 1.228 1.413 1.132 2.353l-3.851 38.02c-.104 1.026-.813 1.871-1.807 2.152l-47.839 13.531c-1.316.373-2.66-.359-3.066-1.662z"/><path d="m95.001 385.403 30.766 3.115c.601.061 1.199.091 1.793.091 5.911 0 11.418-2.967 14.675-8.013l16.95-26.268c4.187-6.488 3.665-14.822-1.3-20.738l-22.542-26.859c-4.549-5.421-11.854-7.563-18.611-5.457l-36.134 11.259c-9.125 2.843-14.235 12.273-11.634 21.47l10.96 38.752c1.967 6.954 7.884 11.919 15.077 12.648zm-9.941-58.549 36.135-11.259c.246-.077.498-.114.747-.114.725 0 1.427.317 1.911.894l22.542 26.859c.709.845.784 2.036.186 2.963l-16.95 26.267c-.512.793-1.41 1.229-2.352 1.132 0 0 0 0-.001 0l-30.765-3.115c-1.028-.104-1.874-.813-2.155-1.807l-10.96-38.752c-.372-1.315.358-2.662 1.662-3.068z"/><path d="m319.506 387.679h13.244c4.143 0 7.5-3.357 7.5-7.5s-3.357-7.5-7.5-7.5h-13.244c-4.143 0-7.5 3.357-7.5 7.5s3.357 7.5 7.5 7.5z"/><path d="m191.384 334.359v13.243c0 4.143 3.358 7.5 7.5 7.5s7.5-3.357 7.5-7.5v-13.243c0-4.143-3.358-7.5-7.5-7.5s-7.5 3.358-7.5 7.5z"/><path d="m323.8 158.633c0-4.143-3.357-7.5-7.5-7.5h-13.244c-4.143 0-7.5 3.357-7.5 7.5s3.357 7.5 7.5 7.5h13.244c4.143 0 7.5-3.358 7.5-7.5z"/><path d="m78.993 259.248c-4.142 0-7.5 3.357-7.5 7.5s3.358 7.5 7.5 7.5h13.244c4.142 0 7.5-3.357 7.5-7.5s-3.358-7.5-7.5-7.5z"/><path d="m272.012 68.237c-2.93-2.928-7.678-2.928-10.607 0l-9.365 9.365c-2.929 2.93-2.929 7.678 0 10.607 1.464 1.464 3.384 2.196 5.303 2.196s3.839-.732 5.304-2.196l9.365-9.365c2.929-2.929 2.929-7.677 0-10.607z"/><path d="m451.236 289.75c-4.143 0-7.5 3.357-7.5 7.5s3.357 7.5 7.5 7.5h.127c4.143 0 7.5-3.357 7.5-7.5s-3.357-7.5-7.5-7.5z"/><path d="m263.84 266.748c0-4.143-3.357-7.5-7.5-7.5h-.127c-4.142 0-7.5 3.357-7.5 7.5s3.358 7.5 7.5 7.5h.127c4.143 0 7.5-3.357 7.5-7.5z"/><path d="m230.567 415.856c-.02 0-.039 0-.059 0-4.115 0-7.467 3.32-7.499 7.442-.032 4.143 3.3 7.525 7.442 7.558l.127.001h.059c4.115 0 7.467-3.32 7.499-7.442.032-4.143-3.3-7.525-7.442-7.558z"/><path d="m182.668 90.406c4.142 0 7.5-3.357 7.5-7.5s-3.358-7.5-7.5-7.5h-.127c-4.142 0-7.5 3.357-7.5 7.5s3.358 7.5 7.5 7.5z"/><path d="m354.865 145.536h.059c4.115 0 7.468-3.32 7.499-7.442.031-4.143-3.301-7.525-7.442-7.558l-.128-.001c-.021 0-.039 0-.059 0-4.115 0-7.468 3.32-7.499 7.442-.031 4.143 3.301 7.525 7.442 7.558z"/><path d="m251.92 457.536h.127c4.142 0 7.5-3.357 7.5-7.5s-3.358-7.5-7.5-7.5h-.127c-4.142 0-7.5 3.357-7.5 7.5s3.358 7.5 7.5 7.5z"/><path d="m112.399 151.133c-4.142 0-7.5 3.357-7.5 7.5s3.358 7.5 7.5 7.5h.127c4.142 0 7.5-3.357 7.5-7.5s-3.358-7.5-7.5-7.5z"/></g></g></svg>