<svg id="Capa_1" enable-background="new 0 0 512.009 512.009" height="512" viewBox="0 0 512.009 512.009" width="512" xmlns="http://www.w3.org/2000/svg"><g><path d="m12.823 499.184c-7.098-7.098-7.098-18.605 0-25.702l263.261-263.261c7.098-7.097 18.605-7.097 25.702 0 7.097 7.097 7.097 18.605 0 25.702l-263.261 263.261c-7.097 7.098-18.604 7.098-25.702 0z" fill="#f3eae6"/><path d="m307.11 223.068c0 4.66-1.77 9.31-5.32 12.86l-31.44 31.44c-4.72-3.75-9.26-7.79-13.59-12.12-4.35-4.35-8.39-8.89-12.11-13.6l31.43-31.43c7.1-7.09 18.61-7.09 25.71 0 3.55 3.549 5.32 8.199 5.32 12.85z" fill="#e0d3ce"/><g><circle cx="367.664" cy="144.344" fill="#83d167" r="136.836"/><path d="m464.42 241.098c-32.65 32.65-77.7 45.35-119.99 38.1 26.93-4.61 52.74-17.31 73.53-38.1 53.44-53.43 53.44-140.07 0-193.51-20.79-20.79-46.6-33.49-73.53-38.1 42.29-7.25 87.34 5.45 119.99 38.1 53.44 53.439 53.44 140.079 0 193.51z" fill="#54c032"/><path d="m392.742 9.875c-28.76 19.239-58.64 43.742-87.442 72.544-28.625 28.625-52.993 58.299-72.182 86.896-7.903-42.792 4.689-88.627 37.79-121.728 33.151-33.151 79.078-45.736 121.926-37.748.028.1 0 .114-.092.036z" fill="#fcb44d"/><path d="m378.28 19.937c-10.87-4.98-22.25-8.47-33.85-10.45.11-.02.22-.04.34-.06 15.91-2.69 32.19-2.55 48.06.41.03.1 0 .12-.09.04-4.79 3.211-9.62 6.56-14.46 10.06z" fill="#fb9927"/><path d="m390.947 167.626c-33.562 33.562-68.075 63.322-102.07 88.62-6.307-4.448-12.322-9.499-17.969-15.146-5.64-5.64-10.691-11.656-15.139-17.962 25.298-33.995 55.05-68.515 88.613-102.077 33.562-33.562 68.089-63.322 102.077-88.612 6.307 4.448 12.322 9.499 17.962 15.139 5.647 5.647 10.698 11.663 15.146 17.969-25.291 33.987-55.058 68.507-88.62 102.069z" fill="#fcb44d"/><path d="m451.22 101.598c-5.94-18.11-15.76-35.23-29.47-50.05 8.25-6.62 16.5-12.99 24.71-19.1 6.3 4.45 12.32 9.5 17.96 15.14 5.65 5.65 10.7 11.66 15.15 17.97-8.91 11.969-18.37 23.999-28.35 36.04z" fill="#fb9927"/><path d="m502.134 119.267c-19.239 28.76-43.742 58.64-72.544 87.442-28.625 28.625-58.299 52.993-86.896 72.182 42.792 7.903 88.627-4.689 121.728-37.79 33.151-33.151 45.736-79.078 37.748-121.926-.1-.029-.114 0-.036.092z" fill="#fcb44d"/><path d="m464.42 241.098c-32.65 32.65-77.68 45.35-119.97 38.1 26.92-4.62 52.73-17.32 73.51-38.1 16.93-16.93 28.5-37.19 34.69-58.68 18.99-21.08 35.6-42.41 49.48-63.15-.07-.09-.06-.12.04-.09 7.99 42.849-4.6 88.769-37.75 121.92z" fill="#fb9927"/><path d="m481.266 55.298c-2.56-3.258-7.275-3.823-10.531-1.264-3.257 2.559-3.823 7.274-1.264 10.531.249.317.489.64.735.959-24.947 33.059-53.375 65.611-84.562 96.798-31.177 31.177-63.738 59.615-96.811 84.574-4.405-3.4-8.624-7.099-12.623-11.099-4.012-4.012-7.702-8.234-11.083-12.626 24.983-33.105 53.416-65.666 84.559-96.808 31.158-31.158 63.709-59.581 96.801-84.553.305.235.618.455.922.693 3.258 2.558 7.973 1.991 10.531-1.267s1.991-7.973-1.267-10.531c-25.209-19.793-56.819-30.693-89.005-30.693-32.186.001-63.795 10.902-89.005 30.695-3.258 2.558-3.826 7.272-1.268 10.53 1.479 1.885 3.681 2.869 5.904 2.869 1.621 0 3.253-.523 4.626-1.602 24.784-19.458 54.758-28.635 84.442-27.552-24.698 17.927-48.979 38.771-72.369 62.161-23.136 23.135-43.791 47.156-61.599 71.594-1.013-29.516 8.026-59.411 27.461-84.145 2.559-3.257 1.993-7.972-1.264-10.531-3.256-2.558-7.972-1.994-10.531 1.264-39.648 50.458-40.547 120.152-4.992 171.33l-241.553 241.553c-4.849 4.849-7.52 11.297-7.52 18.155 0 6.857 2.671 13.305 7.52 18.154 5.005 5.005 11.58 7.508 18.154 7.508s13.149-2.502 18.154-7.508l142.122-142.121c2.929-2.929 2.929-7.678 0-10.606-2.929-2.929-7.678-2.929-10.606 0l-142.122 142.121c-4.162 4.162-10.934 4.162-15.096 0-2.016-2.016-3.126-4.697-3.126-7.548s1.11-5.532 3.126-7.548l240.208-240.208c2.311 2.678 4.731 5.291 7.268 7.828 2.531 2.531 5.141 4.956 7.822 7.274l-74.753 74.753c-2.929 2.929-2.929 7.678 0 10.606 1.464 1.465 3.384 2.197 5.303 2.197s3.839-.732 5.303-2.197l76.085-76.084c23.985 16.718 52.449 25.726 82.301 25.726 38.554 0 74.8-15.014 102.061-42.275 51.623-51.622 56.585-133.78 11.542-191.107zm-170.663 32.424c27.054-27.054 55.292-50.599 83.947-70.015 13.484 2.879 26.612 7.943 38.846 15.204-32.248 24.637-63.941 52.47-94.317 82.846-30.353 30.352-58.189 62.045-82.832 94.295-7.237-12.265-12.298-25.5-15.156-39.129 19.327-28.406 42.705-56.394 69.512-83.201zm85.647 85.207c30.397-30.397 58.231-62.084 82.842-94.294 7.258 12.268 12.298 25.426 15.141 38.925-19.405 28.622-42.928 56.827-69.947 83.845-26.818 26.818-54.819 50.206-83.239 69.54-13.818-2.876-27-7.987-39.111-15.157 32.227-24.624 63.925-52.469 94.314-82.859zm62.868 62.869c-24.428 24.428-56.907 37.882-91.455 37.882-1.454 0-2.902-.033-4.349-.08 24.432-17.805 48.448-38.457 71.578-61.587 23.333-23.333 44.135-47.557 62.036-72.198 1.189 34.76-11.592 69.765-37.81 95.983z"/></g></g></svg>