<svg id="Capa_1" enable-background="new 0 0 511.987 511.987" height="512" viewBox="0 0 511.987 511.987" width="512" xmlns="http://www.w3.org/2000/svg"><g><g><path d="m468.92 261.748c5.134-13.678 7.895-28.075 7.895-42.947 0-89.351-98.865-161.784-220.821-161.784s-220.822 72.433-220.822 161.784c0 14.873 2.761 29.27 7.895 42.947z" fill="#ba7c65"/><path d="m476.813 218.799c0 14.87-2.76 29.27-7.89 42.95h-45.62c5.14-13.68 7.9-28.08 7.9-42.95 0-83.71-86.78-152.57-198.02-160.92 7.5-.57 15.11-.86 22.81-.86 121.96 0 220.82 72.43 220.82 161.78z" fill="#a96a53"/><path d="m9.581 242.402 93.69 206.003c3.733 8.208 11.919 13.478 20.936 13.478l263.571.001c9.018 0 17.203-5.27 20.936-13.478l93.69-206.004c6.832-15.022-3.91-32.336-20.412-32.515-.119-.001-.239-.002-.359-.002-11.969 0-22.614 6.503-28.206 16.169-5.591 9.665-16.236 16.167-28.205 16.167-11.968 0-22.614-6.503-28.205-16.167-5.591-9.665-16.237-16.169-28.206-16.169s-22.614 6.503-28.205 16.169c-5.591 9.665-16.236 16.167-28.205 16.167-11.968 0-22.614-6.503-28.205-16.167-5.591-9.665-16.237-16.169-28.205-16.169s-22.614 6.503-28.205 16.169c-5.591 9.665-16.236 16.167-28.205 16.167s-22.614-6.503-28.205-16.167c-5.591-9.665-16.237-16.169-28.205-16.169s-22.614 6.503-28.205 16.169c-5.591 9.665-16.236 16.167-28.205 16.167s-22.614-6.503-28.205-16.167c-5.591-9.665-16.237-16.169-28.205-16.169-.12 0-.239.001-.359.002-16.5.179-27.242 17.493-20.411 32.515z" fill="#fcc16d"/><path d="m502.403 242.399-93.69 206.01c-3.73 8.21-11.92 13.48-20.93 13.48h-42.72c43.9-91.77 104.65-229.42 108.37-235.84 5.59-9.66 16.23-16.16 28.2-16.16h.36c16.5.18 27.24 17.49 20.41 32.51z" fill="#fcb44d"/><g fill="#fb9927"><path d="m453.433 226.058-80.97 235.83h-33.28l57.84-235.83c5.59 9.66 16.23 16.16 28.2 16.16s22.61-6.5 28.21-16.16z"/><path d="m340.613 226.058-34.71 235.83h-33.27l11.57-235.83c5.59 9.66 16.23 16.16 28.2 16.16s22.61-6.5 28.21-16.16z"/><path d="m239.353 461.888h-33.27l-34.71-235.83c5.6 9.66 16.24 16.16 28.21 16.16s22.61-6.5 28.2-16.16z"/><path d="m172.803 461.888h-33.28l-80.97-235.83c5.6 9.66 16.24 16.16 28.21 16.16s22.61-6.5 28.2-16.16z"/></g></g><g><path d="m314.635 119.857 67.081 10.269c3.653.559 5.458 4.75 3.354 7.788l-22.086 31.902c-.934 1.349-2.47 2.154-4.111 2.154h-36.253c-2.37 0-4.415-1.664-4.896-3.985l-8.742-42.171c-.707-3.413 2.207-6.485 5.653-5.957z" fill="#865240"/><path d="m385.073 137.919-22.09 31.9c-.93 1.35-2.47 2.15-4.11 2.15h-31.59c1.89 0 3.66-.93 4.74-2.48l25.46-36.79c1.38-1.99 1.31-4.41.2-6.25l24.03 3.68c3.65.56 5.46 4.75 3.36 7.79z" fill="#7b4b39"/></g><g><path d="m303.076 84.522-31.222 17.8c-1.46.832-3.267.757-4.653-.194l-31.32-21.487c-2.003-1.374-2.508-4.116-1.125-6.113l15.603-22.537c.819-1.183 2.167-1.889 3.606-1.889h33.827c1.661 0 3.18.939 3.923 2.424l13.112 26.224c1.041 2.084.273 4.619-1.751 5.772z" fill="#865240"/><path d="m303.073 84.519-31.22 17.8c-1.46.84-3.27.76-4.65-.19l-15.4-10.57 23.2-13.23c2.02-1.15 2.79-3.69 1.75-5.77l-11.23-22.46h22.27c1.66 0 3.18.94 3.92 2.43l13.11 26.22c1.05 2.09.28 4.62-1.75 5.77z" fill="#7b4b39"/></g><g><path d="m114.166 140.409 41.463-23.638c1.858-1.059 4.205-.658 5.606.957l23.037 26.565c1.341 1.546 1.464 3.805.299 5.488l-16.528 23.874c-.837 1.209-2.215 1.931-3.685 1.931h-34.571c-1.698 0-3.25-.959-4.009-2.478l-13.4-26.801c-1.066-2.129-.28-4.719 1.788-5.898z" fill="#fee7c9"/><path d="m184.573 149.779-16.53 23.88c-.84 1.21-2.21 1.93-3.68 1.93h-25.72c1.47 0 2.84-.72 3.68-1.93l16.53-23.88c1.16-1.68 1.04-3.94-.3-5.49l-16.94-19.53 14.02-7.99c1.85-1.06 4.2-.66 5.6.96l23.04 26.56c1.34 1.55 1.46 3.81.3 5.49z" fill="#ffd597"/><g><path d="m225.604 183.086h.104.036c4.125 0 7.479-3.334 7.499-7.465.02-4.142-3.322-7.516-7.465-7.535h-.104c-.012 0-.023 0-.036 0-4.125 0-7.479 3.334-7.499 7.465-.019 4.142 3.323 7.515 7.465 7.535z"/><path d="m95.246 176.566c-.012 0-.023 0-.036 0-4.125 0-7.479 3.334-7.499 7.465-.02 4.142 3.322 7.516 7.465 7.535h.104.036c4.125 0 7.479-3.334 7.499-7.465.02-4.142-3.322-7.516-7.465-7.535z"/><path d="m220.026 113.398c4.125 0 7.479-3.334 7.499-7.465.02-4.142-3.322-7.516-7.465-7.535h-.104c-.012 0-.023 0-.036 0-4.125 0-7.479 3.334-7.499 7.465-.02 4.142 3.322 7.516 7.465 7.535h.104z"/><path d="m241.492 143.957c-.012 0-.023 0-.036 0-4.125 0-7.479 3.334-7.499 7.465-.02 4.142 3.322 7.516 7.465 7.535h.104.036c4.125 0 7.479-3.334 7.499-7.465.02-4.142-3.322-7.516-7.465-7.535z"/><path d="m286.711 175.542c-.012 0-.023 0-.036 0-4.125 0-7.479 3.334-7.499 7.465-.02 4.142 3.322 7.516 7.465 7.535h.104.036c4.125 0 7.479-3.334 7.499-7.465.02-4.142-3.322-7.516-7.465-7.535z"/><path d="m417.172 183.043c0 4.142 3.357 7.5 7.5 7.5h.104c4.143 0 7.5-3.358 7.5-7.5s-3.357-7.5-7.5-7.5h-.104c-4.143 0-7.5 3.358-7.5 7.5z"/><path d="m340.665 107.781c4.143 0 7.5-3.358 7.5-7.5s-3.357-7.5-7.5-7.5h-.104c-4.143 0-7.5 3.358-7.5 7.5s3.357 7.5 7.5 7.5z"/><path d="m507.18 216.398c-5.298-8.328-14.18-13.477-23.922-13.961-3.583-27.665-16.369-54.389-37.128-77.49-2.767-3.081-7.51-3.336-10.591-.566-3.081 2.769-3.334 7.511-.565 10.591 18.78 20.9 30.281 44.933 33.422 69.665-8.927 3.113-16.626 9.306-21.459 17.66-4.433 7.663-12.753 12.423-21.713 12.423s-17.279-4.76-21.712-12.423c-7.105-12.283-20.4-19.913-34.698-19.913-14.297 0-27.592 7.63-34.697 19.913-4.434 7.663-12.753 12.423-21.713 12.423s-17.279-4.76-21.713-12.423c-7.105-12.283-20.4-19.913-34.697-19.913s-27.592 7.63-34.696 19.913c-4.435 7.663-12.754 12.423-21.714 12.423s-17.279-4.76-21.713-12.423c-7.105-12.283-20.4-19.913-34.697-19.913-14.298 0-27.593 7.63-34.698 19.913-4.433 7.663-12.752 12.423-21.712 12.423s-17.28-4.76-21.713-12.423c-4.837-8.359-12.543-14.556-21.478-17.667 9.213-72.961 88.467-130.989 188.311-139.129l-3.294 4.758c-1.812 2.618-2.492 5.784-1.916 8.916.575 3.131 2.339 5.849 4.965 7.651l31.319 21.487c2.008 1.377 4.367 2.073 6.731 2.073 2.03 0 4.064-.513 5.88-1.548l31.223-17.8c5.481-3.125 7.565-9.995 4.744-15.641l-3.083-6.166c39.531 7.226 75.051 22.42 103.313 44.286 1.366 1.057 2.981 1.569 4.585 1.569 2.241 0 4.459-1.001 5.937-2.911 2.535-3.276 1.934-7.986-1.342-10.521-32.767-25.352-74.5-42.265-120.766-48.971l-1.756-3.511c-2.027-4.052-6.101-6.569-10.631-6.569h-33.827c-3.899 0-7.553 1.914-9.772 5.12l-1.443 2.084c-112.337 4.755-203.344 69.83-214.025 152.63-9.746.488-18.623 5.636-23.92 13.961-5.583 8.777-6.35 19.659-2.052 29.108l60.293 132.572c1.715 3.77 6.159 5.438 9.932 3.722 3.771-1.715 5.438-6.162 3.723-9.932l-60.293-132.571c-2.19-4.816-1.796-10.366 1.054-14.848 2.82-4.432 7.416-7.006 12.622-7.063l.267-.001c8.881 0 17.128 4.681 21.591 12.226.067.366.152.731.277 1.093l76.798 223.68h-4.809c-6.062 0-11.6-3.565-14.109-9.083l-19.726-43.371c-1.715-3.77-6.162-5.438-9.933-3.722-3.77 1.715-5.437 6.162-3.722 9.932l19.726 43.371c4.938 10.858 15.836 17.874 27.764 17.874h263.57c11.928 0 22.825-7.016 27.764-17.873l93.69-206.005c4.297-9.451 3.53-20.333-2.053-29.109zm-251.584-158.796h30.271l10.933 21.865-26.966 15.373-27.132-18.613zm169.627 192.119c4.444 0 8.79-.739 12.885-2.124l-70.998 206.787h-18.364l52.197-212.818c6.871 5.195 15.381 8.155 24.28 8.155zm-56.41-32.336c7.999 0 15.478 3.8 20.146 10.065l-55.659 226.935h-18.712l33.12-225.023c.031-.208.046-.414.06-.62 4.567-7.033 12.512-11.357 21.045-11.357zm-56.41 32.336c6.255 0 12.318-1.461 17.755-4.132l-30.731 208.795h-18.916l10.349-210.939c6.337 4.015 13.788 6.276 21.543 6.276zm-112.82 0c7.755 0 15.206-2.261 21.544-6.276l2.332 47.545c.197 4.012 3.512 7.132 7.485 7.132.124 0 .248-.003.373-.009 4.138-.203 7.327-3.722 7.124-7.859l-3.05-62.174c4.627-6.64 12.339-10.696 20.602-10.696s15.974 4.055 20.602 10.696l-11.102 226.303h-18.998l-6.438-131.245c-.203-4.137-3.717-7.327-7.858-7.124-4.138.203-7.327 3.722-7.124 7.859l6.402 130.509h-18.916l-30.731-208.795c5.435 2.673 11.498 4.134 17.753 4.134zm-56.41-32.336c8.533 0 16.478 4.324 21.046 11.355.013.206.029.413.06.621l33.12 225.023h-18.713l-55.659-226.935c4.668-6.264 12.147-10.064 20.146-10.064zm-69.295 30.212c4.094 1.385 8.441 2.124 12.884 2.124 8.899 0 17.409-2.959 24.281-8.155l52.197 212.818h-18.364zm421.7-8.3-93.69 206.004c-2.51 5.518-8.048 9.083-14.109 9.083h-4.809l76.88-223.918c.107-.312.185-.627.25-.942 4.474-7.493 12.689-12.139 21.536-12.139l.277.001c5.195.057 9.792 2.631 12.611 7.063 2.85 4.481 3.244 10.032 1.054 14.848z"/><path d="m304.809 116.196c-2.816 2.969-4.002 7.134-3.171 11.141l8.741 42.169c1.195 5.774 6.344 9.964 12.24 9.964h36.253c4.1 0 7.941-2.012 10.277-5.385l22.087-31.903c2.469-3.567 2.918-8.076 1.202-12.06-1.717-3.984-5.301-6.754-9.589-7.411l-67.081-10.269c-4.043-.619-8.141.784-10.959 3.754zm71.818 20.738-19.063 27.536h-32.908l-7.599-36.655z"/><path d="m151.915 110.255-41.464 23.638s-.001 0-.001.001c-5.525 3.151-7.626 10.077-4.781 15.768l13.401 26.803c2.043 4.084 6.15 6.622 10.717 6.622h34.571c3.93 0 7.612-1.929 9.852-5.162l16.529-23.875c3.115-4.501 2.787-10.534-.8-14.67l-23.037-26.565c-3.733-4.305-10.036-5.381-14.987-2.56zm10.862 57.831h-31.126l-11.288-22.577 36.829-20.997 19.881 22.925z"/></g></g></g></svg>