<svg id="Capa_1" enable-background="new 0 0 512 512" height="512" viewBox="0 0 512 512" width="512" xmlns="http://www.w3.org/2000/svg"><g><g><g><g><path d="m96.684 193.467h293.632v27.533h-293.632z" fill="#ffd15b"/></g><g><path d="m338 193.467h52.316v27.533h-52.316z" fill="#ffc344"/></g><g><path d="m96.684 453v46.5c0 2.761 2.239 5 5 5h45.659c1.928 0 3.685-1.109 4.514-2.85l4.811-10.1c2.488-5.223 7.757-8.55 13.542-8.55h146.579c5.785 0 11.055 3.327 13.542 8.55l4.811 10.1c.829 1.741 2.586 2.85 4.514 2.85h45.659c2.761 0 5-2.239 5-5v-46.5z" fill="#ffd15b"/></g><g><g><path d="m359 453v46.5c0 2.761-2.239 5-5 5h31.316c2.761 0 5-2.239 5-5v-46.5z" fill="#ffc344"/></g></g><g><circle cx="243.5" cy="27.075" fill="#ffd15b" r="19.575"/></g></g></g><g><path d="m194.561 382v30h230.939c5.523 0 10-4.477 10-10v-10c0-5.523-4.477-10-10-10z" fill="#ffd15b"/></g><g><path d="m425.5 382h-41.561c5.523 0 10 4.477 10 10v10c0 5.523-4.477 10-10 10h41.561c5.523 0 10-4.477 10-10v-10c0-5.523-4.477-10-10-10z" fill="#ffc344"/></g><g><g><path d="m360.547 279.517h18.566c-.338-1.666-.518-3.39-.518-5.157 0-14.24 11.544-25.783 25.783-25.783s25.783 11.544 25.783 25.783c0 13.927-11.051 25.246-24.858 25.737-8.902 30.563-37.102 52.903-70.539 52.903h-47.699c0-40.583 32.899-73.483 73.482-73.483z" fill="#60b7ff"/></g></g><g><path d="m370.398 297.075c-3.982-1.16-8.14 1.126-9.299 5.104-2.627 9.021-11.029 15.322-20.433 15.322-4.143 0-7.5 3.358-7.5 7.5s3.357 7.5 7.5 7.5c16.029 0 30.354-10.744 34.835-26.127 1.159-3.978-1.126-8.141-5.103-9.299z"/><path d="m449.5 266.861h-12.7c-3.412-14.751-16.648-25.784-32.421-25.784-2.246 0-4.44.227-6.562.653v-20.73-27.533c0-35.251-11.58-68.443-33.487-95.986-2.579-3.241-7.297-3.779-10.539-1.201-3.241 2.579-3.779 7.296-1.201 10.539 2.753 3.461 5.302 7.032 7.691 10.682h-24.927c-4.446-11.546-9.935-22.307-16.402-32.008-4.089-6.133-8.471-11.69-13.095-16.666 8.073 4.061 15.801 8.935 23.094 14.607 3.27 2.542 7.98 1.954 10.524-1.316 2.543-3.27 1.954-7.982-1.315-10.525-21.086-16.4-45.425-26.82-71.38-30.711 2.408-4.045 3.797-8.766 3.797-13.806-.002-14.93-12.147-27.076-27.077-27.076s-27.075 12.146-27.075 27.076c0 5.049 1.393 9.778 3.81 13.828-74.092 11.252-131.051 75.38-131.051 152.563v27.533 43.5h-26.684c-4.143 0-7.5 3.358-7.5 7.5v35c0 4.142 3.357 7.5 7.5 7.5s7.5-3.358 7.5-7.5v-27.5h19.184v95h-19.184v-32.5c0-4.142-3.357-7.5-7.5-7.5s-7.5 3.358-7.5 7.5v40c0 4.142 3.357 7.5 7.5 7.5h26.684v63.5 46.5c0 6.893 5.607 12.5 12.5 12.5h45.66c4.794 0 9.224-2.797 11.285-7.125l4.81-10.1c1.237-2.597 3.896-4.275 6.772-4.275h90.789c4.143 0 7.5-3.358 7.5-7.5s-3.357-7.5-7.5-7.5h-90.789c-8.629 0-16.603 5.034-20.314 12.825l-4.132 8.675h-41.581v-36.5h278.633v36.5h-41.581l-4.133-8.676c-3.711-7.791-11.685-12.824-20.313-12.824h-20.79c-4.143 0-7.5 3.358-7.5 7.5s3.357 7.5 7.5 7.5h20.789c2.877 0 5.535 1.678 6.771 4.275l4.811 10.1c2.062 4.329 6.491 7.125 11.285 7.125h45.66c6.893 0 12.5-5.607 12.5-12.5v-46.5-33.5h27.684c9.649 0 17.5-7.851 17.5-17.5v-10c0-9.649-7.851-17.5-17.5-17.5h-27.684v-44.287c5.559-6.873 10.046-14.691 13.132-23.242 12.896-2.55 22.979-12.433 25.871-25.111h12.681c4.143 0 7.5-3.358 7.5-7.5s-3.357-7.499-7.5-7.499zm-80.681-134.361c8.126 16.611 12.822 34.656 13.802 53.467h-33.868c-.603-18.646-3.448-36.699-8.342-53.467zm-35.07 53.467h-33.872c-.307-18.667-1.758-36.729-4.251-53.467h29.096c5.281 16.568 8.38 34.657 9.027 53.467zm-27.279-92.155c4.845 7.268 9.076 15.219 12.691 23.688h-26.132c-2.142-10.873-4.748-21.035-7.809-30.219-3.198-9.594-6.762-17.801-10.646-24.588 11.762 6.694 22.616 17.201 31.896 31.119zm-21.595 92.155h-33.875v-53.467h29.451c2.589 16.606 4.107 34.683 4.424 53.467zm-13.886-93.943c2.597 7.791 4.855 16.339 6.756 25.476h-26.745v-60.388c7.059 5.361 14.266 17.741 19.989 34.912zm-27.489-77.024c6.658 0 12.075 5.417 12.075 12.076 0 6.658-5.417 12.075-12.075 12.075s-12.075-5.417-12.075-12.075c0-6.659 5.417-12.076 12.075-12.076zm-7.5 42.112v60.388h-26.745c1.901-9.138 4.159-17.686 6.756-25.476 5.723-17.171 12.93-29.551 19.989-34.912zm0 75.388v53.467h-33.875c.317-18.783 1.835-36.86 4.424-53.467zm-23.573-69.807c-3.884 6.787-7.448 14.994-10.646 24.588-3.061 9.184-5.667 19.347-7.809 30.219h-26.132c3.615-8.469 7.845-16.419 12.691-23.688 9.279-13.918 20.133-24.425 31.896-31.119zm-21.053 69.807c-2.493 16.738-3.944 34.8-4.251 53.467h-33.872c.647-18.809 3.746-36.898 9.027-53.467zm-10.374-63.516c-4.571 4.936-8.904 10.44-12.95 16.509-6.468 9.701-11.956 20.462-16.402 32.008h-24.878c13.435-20.576 32.162-37.392 54.23-48.517zm-62.744 63.516h28.333c-4.894 16.768-7.739 34.821-8.342 53.467h-33.864c1.018-19.087 5.904-37.163 13.873-53.467zm-14.072 68.467h278.633v12.533h-278.633zm278.632 27.533v20.527c-6.61 5.635-10.997 13.805-11.639 22.991h-10.631c-3.964 0-7.857.3-11.67.852v-44.37zm-48.939 0v48.051c-13.2 4.619-24.847 12.558-33.938 22.821v-27.372-43.5zm-48.939 131.69v14.31h-82.877v-95h82.877v44.54c-3.459 8.999-5.374 18.758-5.374 28.96 0 3.403 2.269 6.272 5.374 7.19zm-82.876-95.69v-36h33.938v36zm48.938 0v-36h33.938v36zm-112.877 181h-33.939v-56h33.939zm0-71h-33.939v-95h33.939zm0-110h-33.939v-36h33.939zm48.939 147.5v33.5h-33.938v-56h33.938zm0-37.5h-33.938v-95h33.938zm0-110h-33.938v-36h33.938zm48.938 181h-33.938v-26h33.938zm48.938 0h-33.938v-26h33.938zm48.939 0h-33.938v-26h33.938zm48.939 0h-33.939v-26h33.939zm42.684-56c1.379 0 2.5 1.122 2.5 2.5v10c0 1.378-1.121 2.5-2.5 2.5h-223.438v-15h90.377 48.938 48.939zm-125.562-15v-14h8.062v14zm23.062 0v-14h10.877v14zm26 0v-15.295c12.361-2.237 23.912-7.324 33.816-14.642v29.937zm56.037-81.898c-3.233.115-6.029 2.291-6.935 5.397-8.146 27.968-34.192 47.5-63.339 47.5h-39.775c3.735-32.864 31.712-58.482 65.559-58.482h18.566c2.25 0 4.382-1.011 5.807-2.753 1.424-1.742 1.991-4.032 1.544-6.237-.244-1.205-.368-2.438-.368-3.667 0-10.082 8.202-18.284 18.283-18.284s18.283 8.202 18.283 18.284c0 9.878-7.742 17.89-17.625 18.242z"/><circle cx="407.5" cy="272" r="7.5"/></g></g></svg>