<svg id="Capa_1" enable-background="new 0 0 512 512" height="512" viewBox="0 0 512 512" width="512" xmlns="http://www.w3.org/2000/svg"><g><g><path d="m508.792 309.928c-1.387 10.783-3.447 21.47-6.185 31.928-11.534 44.048-51.741 74.812-97.776 74.812h-34.318c.042.721.07 1.446.07 2.177 0 20.328-16.537 36.865-36.865 36.865h-155.435c-20.328 0-36.865-16.537-36.865-36.865 0-.731.027-1.456.07-2.177h-34.302c-46.32 0-86.685-31.35-98.16-76.236-2.571-10.057-4.512-20.288-5.835-30.622-2.09 13.168-3.191 26.665-3.191 40.42 0 22.121 2.808 43.584 8.086 64.055 11.636 45.13 52.493 76.565 99.099 76.565h297.646c46.246 0 87.126-30.897 98.841-75.635 5.048-19.275 7.903-39.437 8.284-60.204.282-15.358-.82-30.421-3.164-45.083z" fill="#fae2c0"/></g><g><g><path d="m508.792 309.928c-1.387 10.783-3.447 21.47-6.185 31.928-7.304 27.896-26.117 50.449-50.618 63.249-.742 3.392-1.526 6.769-2.401 10.11-11.715 44.738-52.595 75.635-98.841 75.635h54.084c46.246 0 87.126-30.897 98.841-75.635 5.048-19.275 7.903-39.437 8.284-60.204.282-15.358-.82-30.421-3.164-45.083z" fill="#fed2a4"/></g></g><g><path d="m242.369 21.506c-135.048 7.085-242.369 118.831-242.369 255.643 0 21.941 2.763 43.235 7.958 63.556 11.591 45.339 52.43 77.064 99.227 77.064h34.26c.573-19.831 16.871-35.789 36.838-35.789h155.435c19.967 0 36.265 15.958 36.838 35.789h34.276c46.246 0 87.126-30.897 98.841-75.635 4.145-15.829 6.812-32.256 7.844-49.125 9.305-152.104-116.969-279.487-269.148-271.503z" fill="#fdb4ba"/></g><g><g><path d="m242.369 21.506c-4.237.222-8.446.548-12.625.974 133.9 13.62 238.237 131.778 229.748 270.53-1.032 16.869-3.699 33.296-7.844 49.125-10.195 38.936-42.486 67.378-81.175 74.103.036.509.068 1.018.082 1.532h34.276c46.246 0 87.126-30.897 98.841-75.635 4.145-15.829 6.812-32.256 7.844-49.125 9.306-152.105-116.968-279.488-269.147-271.504z" fill="#fe99a0"/></g></g><g><path d="m116.335 345.307c-17.938 0-33.604-12.354-37.553-29.852-2.953-13.082-4.46-26.541-4.46-40.167 0-100.177 81.5-181.677 181.677-181.677s181.677 81.5 181.677 181.677c0 13.626-1.507 27.085-4.46 40.167-3.949 17.498-19.614 29.852-37.553 29.852z" fill="#ffe177"/></g><g><path d="m256 93.611c-9.162 0-18.166.689-26.968 2.004 40.556 6.061 76.769 25.581 103.948 53.847h3.913c11.064 0 21.15 6.336 25.954 16.302l22.193 46.047c4.572 9.487 3.604 20.712-2.525 29.276l-1.599 2.235c1.292 7.248 2.152 14.642 2.554 22.157 11.136 13.28 17.872 30.355 17.872 48.938v15.251c0 5.276-.543 10.431-1.574 15.414 16.179-1.719 29.805-13.478 33.45-29.627 2.952-13.083 4.46-26.541 4.46-40.167 0-100.177-81.5-181.677-181.678-181.677z" fill="#ffd15b"/></g><path d="m371.843 254.23-12.954 18.1c-5.203 7.272-13.648 11.613-22.591 11.613h-53.08c-8.943 0-17.387-4.341-22.59-11.613l-22.79-31.842c-.577-.806-1.092-1.643-1.574-2.494h-29.9c-8.888 25.426-32.891 42.491-59.836 42.491-3.45 0-6.929-.287-10.338-.854l-.683-.113-.347.599c-9.719 16.786-27.015 28.357-46.311 30.999-.044-.021-.084-.044-.128-.065-.049 1.118-.086 2.239-.086 3.368v15.251c0 1.364.04 2.719.111 4.066 7.073 7.211 16.928 11.573 27.587 11.573h279.33c1.383 0 2.751-.082 4.103-.226 1.031-4.982 1.574-10.138 1.574-15.414v-15.251c.002-24.379-11.579-46.169-29.497-60.188z" fill="#f2fbff"/><g><path d="m371.843 254.23-12.954 18.1c-2.295 3.208-5.223 5.843-8.544 7.789 5.233 10.331 8.204 21.981 8.204 34.298v15.251c0 5.276-.543 10.431-1.574 15.414-1.352.144-2.72.226-4.103.226h42.794c1.383 0 2.751-.082 4.103-.226 1.031-4.982 1.574-10.138 1.574-15.414v-15.251c-.001-24.378-11.583-46.168-29.5-60.187z" fill="#dff6fd"/></g><g><path d="m207.425 237.994h-42.365c-41.271 0-75.15 33.161-76.365 74.151 19.505-2.578 37.203-14.033 47.331-31.528 30.513 5.074 61.047-12.485 71.399-42.623z" fill="#fe9738"/></g><g><g><g><path d="m245.015 192.314 12.58-26.103c4.603-9.549 14.426-15.719 25.026-15.719h7.053c-5.322-6.258-11.175-11.923-17.308-16.739-11.339-8.776-23.642-14.587-31.391-9.783-8.035 4.309-9.155 17.869-7.224 32.077 1.729 12.087 5.593 24.622 11.264 36.267z" fill="#fe9738"/></g><g><path d="m265.983 156.071c4.732-3.538 10.555-5.579 16.639-5.579h7.053c-5.322-6.258-11.175-11.923-17.308-16.739-11.339-8.776-23.642-14.587-31.391-9.783-2.987 1.602-5.015 4.486-6.29 8.204 5.217 2.014 10.802 5.502 16.172 9.659 5.305 4.165 10.4 8.968 15.125 14.238z" fill="#fe860a"/></g><g><path d="m336.894 150.492c10.601 0 20.424 6.17 25.026 15.719l12.58 26.103c5.671-11.645 9.535-24.18 11.264-36.267 1.931-14.208.811-27.768-7.224-32.077-7.749-4.804-20.053 1.006-31.391 9.783-6.133 4.816-11.986 10.481-17.308 16.739z" fill="#fe9738"/></g><g><path d="m364.378 156.047c-.514 3.594-1.236 7.228-2.119 10.866l12.242 25.401c5.671-11.645 9.535-24.18 11.264-36.267 1.931-14.208.811-27.768-7.224-32.077-4.945-3.066-11.747-1.805-18.968 1.788 5.815 5.565 6.521 17.663 4.805 30.289z" fill="#fe860a"/></g></g><g><path d="m336.894 149.462h-54.272c-11.064 0-21.15 6.336-25.954 16.302l-22.193 46.048c-4.572 9.487-3.604 20.712 2.525 29.276l22.789 31.842c5.41 7.559 14.134 12.043 23.429 12.043h53.079c9.295 0 18.019-4.484 23.429-12.043l22.789-31.842c6.129-8.564 7.097-19.789 2.525-29.276l-22.193-46.048c-4.802-9.967-14.889-16.302-25.953-16.302z" fill="#fff"/></g><g><path d="m385.041 211.811-22.193-46.048c-4.804-9.967-14.89-16.302-25.954-16.302h-31.97c11.064 0 21.15 6.336 25.954 16.302l22.193 46.048c4.572 9.487 3.604 20.712-2.525 29.276l-22.789 31.843c-5.41 7.559-14.134 12.043-23.429 12.043h31.97c9.295 0 18.019-4.484 23.429-12.043l22.789-31.843c6.129-8.563 7.097-19.789 2.525-29.276z" fill="#f2fbff"/></g><path d="m327.456 250.488-10.347-8.278v-2.1c0-.204-.015-.405-.031-.605l-3.41 3.623c-1.049 1.114-2.529 1.754-4.06 1.754s-3.011-.64-4.06-1.755l-3.41-3.623c-.016.2-.031.401-.031.606v2.152l-10.115 8.28c-3.205 2.624-3.677 7.349-1.053 10.555 2.624 3.204 7.35 3.674 10.555 1.053l8.167-6.686 8.422 6.738c1.383 1.106 3.037 1.644 4.681 1.644 2.2 0 4.38-.963 5.861-2.814 2.59-3.236 2.065-7.956-1.169-10.544z" fill="#7a6d79"/><path d="m309.609 245.882c-1.813 0-3.546-.749-4.788-2.069l-7.945-8.442c-2.28-2.42-2.902-5.96-1.582-9.016 1.319-3.056 4.323-5.031 7.652-5.031h13.327c3.328 0 6.331 1.974 7.651 5.029 1.32 3.056.699 6.596-1.582 9.018l-7.945 8.442c-1.242 1.321-2.974 2.069-4.788 2.069z" fill="#685e68"/><g><g><g><path d="m399.726 213.656h-26.926c-4.143 0-7.5-3.357-7.5-7.5s3.357-7.5 7.5-7.5h26.926c4.143 0 7.5 3.357 7.5 7.5s-3.358 7.5-7.5 7.5z" fill="#b5adb6"/></g><g><path d="m403.63 238.521h-30.83c-4.143 0-7.5-3.357-7.5-7.5s3.357-7.5 7.5-7.5h30.83c4.143 0 7.5 3.357 7.5 7.5s-3.358 7.5-7.5 7.5z" fill="#b5adb6"/></g></g><g><g><path d="m247.277 213.656h-27.885c-4.143 0-7.5-3.357-7.5-7.5s3.357-7.5 7.5-7.5h27.885c4.143 0 7.5 3.357 7.5 7.5s-3.357 7.5-7.5 7.5z" fill="#b5adb6"/></g><g><path d="m247.277 238.521h-31.392c-4.143 0-7.5-3.357-7.5-7.5s3.357-7.5 7.5-7.5h31.392c4.143 0 7.5 3.357 7.5 7.5s-3.357 7.5-7.5 7.5z" fill="#b5adb6"/></g></g></g><g><g><path d="m278.928 219.802c-4.143 0-7.5-3.357-7.5-7.5v-11.011c0-4.143 3.357-7.5 7.5-7.5s7.5 3.357 7.5 7.5v11.011c0 4.142-3.358 7.5-7.5 7.5z" fill="#685e68"/></g><g><path d="m340.588 219.802c-4.143 0-7.5-3.357-7.5-7.5v-11.011c0-4.143 3.357-7.5 7.5-7.5s7.5 3.357 7.5 7.5v11.011c0 4.142-3.358 7.5-7.5 7.5z" fill="#685e68"/></g></g></g><g><g><path d="m333.718 456.741h-155.435c-20.842 0-37.895-17.053-37.895-37.895 0-20.842 17.053-37.895 37.895-37.895h155.435c20.842 0 37.895 17.053 37.895 37.895 0 20.842-17.053 37.895-37.895 37.895z" fill="#ffd15b"/></g><g><path d="m333.718 380.95h-53.802c20.843 0 37.895 17.053 37.895 37.895 0 20.842-17.053 37.895-37.895 37.895h53.802c20.842 0 37.895-17.053 37.895-37.895 0-20.842-17.053-37.895-37.895-37.895z" fill="#ffc344"/></g><g><path d="m326.652 426.346h-141.304c-4.143 0-7.5-3.357-7.5-7.5s3.357-7.5 7.5-7.5h141.305c4.143 0 7.5 3.357 7.5 7.5s-3.358 7.5-7.501 7.5z" fill="#fff"/></g></g></g></svg>