<svg id="Capa_1" enable-background="new 0 0 512 512" height="512" viewBox="0 0 512 512" width="512" xmlns="http://www.w3.org/2000/svg"><g><g><path d="m417.773 237.443-2.206-2.206c-6.656-6.656-17.448-6.656-24.104 0s-6.656 17.448 0 24.104l2.206 2.206c21.327 21.327 21.327 56.027 0 77.354l-34.281 34.281 2.004 4.864c4.898 11.886 6.287 24.672 4.381 36.958l51.999-51.999c34.619-34.618 34.619-90.945.001-125.562z" fill="#fae2c0"/></g><g><g><path d="m128.423 103.328 15.797-32.778c6.631-13.758 20.784-22.647 36.056-22.647h16.21c-9.115-11.975-19.648-22.72-30.824-31.495-16.158-12.506-33.69-20.786-44.732-13.94-11.449 6.14-13.045 25.464-10.294 45.71 2.636 18.431 8.755 37.594 17.787 55.15z" fill="#f6a96c"/></g><g><g><path d="m165.662 16.409c-16.158-12.506-33.69-20.786-44.732-13.94-3.34 1.791-5.836 4.711-7.636 8.441 9.472 1.605 20.494 7.918 30.944 16.006 8.438 6.625 16.507 14.376 23.879 22.928 3.884-1.252 7.975-1.94 12.159-1.94h16.21c-9.114-11.976-19.648-22.72-30.824-31.495z" fill="#ea9b58"/></g></g><g><path d="m257.614 47.903c15.272 0 29.425 8.89 36.056 22.647l15.797 32.777c9.032-17.556 15.151-36.719 17.786-55.15 2.752-20.246 1.156-39.569-10.294-45.71-11.042-6.846-28.575 1.434-44.732 13.94-11.176 8.775-21.709 19.52-30.824 31.495h16.211z" fill="#f6a96c"/></g><g><path d="m316.96 2.469c-6.327-3.923-14.787-2.873-23.897 1.086 9.877 7.1 11.178 25.444 8.572 44.623-1.247 8.717-3.282 17.598-6.026 26.395l13.858 28.755c9.032-17.556 15.151-36.719 17.786-55.15 2.752-20.246 1.157-39.569-10.293-45.709z" fill="#ea9b58"/></g></g><g><g><g><path d="m362.346 377.653-54.566-132.412h-177.67l-54.565 132.412c-9.688 23.51-5.906 50.42 9.887 70.349l23.33 29.439c-6.526 3.887-10.901 11.002-10.901 19.151v10.256c0 2.845 2.306 5.151 5.151 5.151h231.868c2.845 0 5.151-2.306 5.151-5.151v-10.256c0-8.149-4.375-15.264-10.901-19.151l23.33-29.439c15.792-19.928 19.574-46.839 9.886-70.349z" fill="#fae2c0"/></g><path d="m362.346 377.653-54.566-132.412h-44.616l54.565 132.412c9.688 23.51 5.906 50.42-9.887 70.349l-21.742 27.437c8.899 2.927 15.336 11.274 15.336 21.154v15.407h33.443c2.845 0 5.151-2.306 5.151-5.151v-10.257c0-8.149-4.375-15.264-10.901-19.151l23.33-29.439c15.793-19.928 19.575-46.839 9.887-70.349z" fill="#fed2a4"/><g><path d="m139.963 211.948h157.965l24.697-34.508c8.734-12.203 10.114-28.2 3.598-41.719l-31.625-65.618c-6.845-14.202-21.218-23.231-36.984-23.231h-77.338c-15.766 0-30.139 9.028-36.984 23.231l-31.625 65.618c-6.515 13.519-5.136 29.515 3.598 41.719z" fill="#fae2c0"/></g></g><g><path d="m326.223 135.721-31.625-65.618c-6.845-14.202-21.218-23.231-36.984-23.231h-3.142v17.13c1.371 1.91 2.607 3.937 3.65 6.101l31.625 65.618c6.515 13.519 5.136 29.515-3.598 41.719l-23.96 33.478h36.476l23.96-33.478c8.733-12.203 10.113-28.2 3.598-41.719z" fill="#fed2a4"/></g></g><path d="m191.342 80.128c4.142 0 7.5-3.358 7.5-7.5v-25.755h-15v25.755c0 4.142 3.358 7.5 7.5 7.5z" fill="#ffbd86"/><path d="m246.972 80.128c4.142 0 7.5-3.358 7.5-7.5v-25.755h-15v25.755c0 4.142 3.358 7.5 7.5 7.5z" fill="#ffbd86"/><g><path d="m154.661 380.009v94.673c-10.359 1.925-18.208 10.994-18.208 21.911v15.407h64.225v-131.991c0-12.707-10.301-23.009-23.009-23.009-12.706 0-23.008 10.301-23.008 23.009z" fill="#fed2a4"/><path d="m177.67 357c-3.721 0-7.233.889-10.343 2.457 7.511 3.788 12.666 11.565 12.666 20.552v131.991h20.687v-131.991c-.001-12.708-10.302-23.009-23.01-23.009z" fill="#ffbd86"/><path d="m283.229 474.682v-94.673c0-12.707-10.301-23.009-23.009-23.009-12.707 0-23.009 10.301-23.009 23.009v131.991h64.225v-15.407c.001-10.917-7.848-19.986-18.207-21.911z" fill="#fed2a4"/><path d="m283.229 474.682v-94.673c0-12.708-10.301-23.009-23.009-23.009-3.673 0-7.142.865-10.222 2.395 7.577 3.765 12.787 11.579 12.787 20.614v94.673c10.359 1.925 18.207 10.994 18.207 21.911v15.407h20.444v-15.407c.001-10.917-7.848-19.986-18.207-21.911z" fill="#ffbd86"/></g><g><path d="m308.512 246.271h-179.133c-5.69 0-10.302-4.612-10.302-10.302v-14.75c0-5.69 4.612-10.302 10.302-10.302h179.133c5.69 0 10.302 4.612 10.302 10.302v14.75c-.001 5.69-4.613 10.302-10.302 10.302z" fill="#0593fc"/></g><g><path d="m308.512 210.918h-53.579c5.69 0 10.302 4.612 10.302 10.302v14.75c0 5.69-4.612 10.302-10.302 10.302h53.579c5.689 0 10.302-4.612 10.302-10.302v-14.75c-.001-5.69-4.613-10.302-10.302-10.302z" fill="#0182fc"/></g><g><circle cx="218.945" cy="262.981" fill="#ffd15b" r="25.985"/></g><g><path d="m218.945 236.997c-3.83 0-7.463.835-10.737 2.323 8.992 4.087 15.248 13.14 15.248 23.661s-6.256 19.574-15.248 23.661c3.274 1.488 6.906 2.323 10.737 2.323 14.351 0 25.985-11.634 25.985-25.985 0-14.35-11.634-25.983-25.985-25.983z" fill="#ffc344"/></g><path d="m218.945 80.128c4.142 0 7.5-3.358 7.5-7.5v-25.755h-15v25.755c0 4.142 3.358 7.5 7.5 7.5z" fill="#ffbd86"/><path d="m242.386 168.29-15.94-12.754v-6.533l-3.718 3.951c-.977 1.039-2.355 1.634-3.782 1.634-1.426 0-2.804-.596-3.782-1.634l-3.718-3.951v6.584l-15.583 12.756c-3.205 2.624-3.676 7.349-1.052 10.555 2.624 3.205 7.349 3.676 10.554 1.052l13.634-11.161 14.016 11.214c1.383 1.107 3.038 1.645 4.681 1.645 2.2 0 4.38-.963 5.861-2.815 2.587-3.236 2.063-7.956-1.171-10.543z" fill="#7a6d79"/><g><g><path d="m189.257 125.017c-3.537 0-6.685-2.513-7.362-6.115-.259-1.375-1.515-3.616-4.203-5.409-1.993-1.33-6.283-3.36-12.629-2.018-4.057.854-8.033-1.734-8.89-5.786-.857-4.053 1.734-8.033 5.786-8.89 8.685-1.837 17.228-.34 24.056 4.214 5.652 3.77 9.523 9.279 10.621 15.116.766 4.071-1.914 7.991-5.984 8.757-.469.089-.935.131-1.395.131z" fill="#7a6d79"/></g><g><path d="m248.633 125.017c-.459 0-.926-.042-1.394-.131-4.071-.765-6.75-4.686-5.985-8.756 1.097-5.836 4.968-11.346 10.62-15.116 6.828-4.555 15.371-6.05 24.057-4.215 4.052.857 6.643 4.837 5.786 8.89-.857 4.052-4.836 6.639-8.89 5.786-6.343-1.341-10.636.688-12.629 2.018-2.688 1.793-3.944 4.035-4.203 5.409-.677 3.602-3.825 6.115-7.362 6.115z" fill="#7a6d79"/></g></g><g><g><g><path d="m356.171 132.151h-50.61c-4.142 0-7.5-3.358-7.5-7.5s3.358-7.5 7.5-7.5h50.61c4.142 0 7.5 3.358 7.5 7.5s-3.358 7.5-7.5 7.5z" fill="#ffbd86"/></g><g><path d="m362.127 162.791h-56.566c-4.142 0-7.5-3.358-7.5-7.5s3.358-7.5 7.5-7.5h56.566c4.142 0 7.5 3.358 7.5 7.5s-3.358 7.5-7.5 7.5z" fill="#ffbd86"/></g></g><g><g><path d="m132.329 132.151h-51.216c-4.142 0-7.5-3.358-7.5-7.5s3.358-7.5 7.5-7.5h51.216c4.142 0 7.5 3.358 7.5 7.5s-3.358 7.5-7.5 7.5z" fill="#ffbd86"/></g><g><path d="m132.329 162.791h-56.565c-4.142 0-7.5-3.358-7.5-7.5s3.358-7.5 7.5-7.5h56.565c4.142 0 7.5 3.358 7.5 7.5s-3.358 7.5-7.5 7.5z" fill="#ffbd86"/></g></g></g><path d="m218.945 155.587c-1.707 0-3.34-.705-4.51-1.949l-10.664-11.331c-2.341-2.486-2.978-6.12-1.624-9.256 1.355-3.136 4.437-5.162 7.854-5.162h17.888c3.416 0 6.499 2.026 7.853 5.162 1.355 3.136.718 6.769-1.623 9.256l-10.664 11.331c-1.17 1.244-2.802 1.949-4.51 1.949z" fill="#685e68"/></g></svg>