<svg id="Capa_1" enable-background="new 0 0 512 512" height="512" viewBox="0 0 512 512" width="512" xmlns="http://www.w3.org/2000/svg"><g><g><g><circle cx="47.857" cy="126.091" fill="#ffe177" r="14.97"/></g><g><path d="m47.857 111.121c-2.7 0-5.226.725-7.413 1.975 4.51 2.579 7.557 7.427 7.557 12.994 0 5.568-3.046 10.416-7.557 12.995 2.187 1.25 4.713 1.975 7.413 1.975 8.268 0 14.97-6.702 14.97-14.97-.001-8.267-6.703-14.969-14.97-14.969z" fill="#ffd15b"/></g></g><g><path d="m87.112 37.438h40v170.661h-40z" fill="#e2dee2"/></g><g><path d="m107 37.438h20.112v170.661h-20.112z" fill="#cbc4cc"/></g><g><path d="m175.08 38.438h-135.936c-5.523 0-10-4.477-10-10v-10.938c0-5.523 4.477-10 10-10h135.936c5.523 0 10 4.477 10 10v10.938c0 5.523-4.477 10-10 10z" fill="#f6a96c"/></g><g><path d="m175.08 7.5h-40.08c5.523 0 10 4.477 10 10v10.938c0 5.523-4.477 10-10 10h40.08c5.523 0 10-4.477 10-10v-10.938c0-5.523-4.477-10-10-10z" fill="#ea9b58"/></g><g><g><path d="m398.651 208.099v-134.712c0-5.523-4.477-10-10-10h-157.643c-5.523 0-10 4.477-10 10v134.711h177.643z" fill="#ffe177"/></g><g><path d="m388.651 63.387h-31.008c5.523 0 10 4.477 10 10v134.711h31.008v-134.711c0-5.522-4.477-10-10-10z" fill="#ffd15b"/></g><g><circle cx="309.829" cy="135.243" fill="#bb5d4c" r="40"/></g><g><path d="m309.829 95.243c-5.464 0-10.67 1.099-15.415 3.082 14.438 6.036 24.585 20.29 24.585 36.918s-10.147 30.882-24.585 36.918c4.744 1.983 9.951 3.082 15.415 3.082 22.091 0 40-17.909 40-40s-17.908-40-40-40z" fill="#a44f3e"/></g></g><g><path d="m122.915 237.036h40v124.753h-40z" fill="#e2dee2"/></g><g><path d="m142 237.036h20.915v124.753h-20.915z" fill="#cbc4cc"/></g><g><g><path d="m344.969 237.036h40v121.759h-40z" fill="#e2dee2"/></g><g><path d="m364 237.036h20.968v121.759h-20.968z" fill="#cbc4cc"/></g><g><path d="m344.969 387.733h40v116.767h-40z" fill="#e2dee2"/></g><g><path d="m364 387.733h20.968v116.767h-20.968z" fill="#cbc4cc"/></g></g><g><g><path d="m255.831 237.036h30.439v67.867h-30.439z" fill="#e2dee2"/></g><g><path d="m270 237.036h16.27v67.867h-16.27z" fill="#cbc4cc"/></g><g><path d="m255.831 440.627h30.439v63.873h-30.439z" fill="#e2dee2"/></g><g><path d="m270 441.626h16.27v62.874h-16.27z" fill="#cbc4cc"/></g></g><g><path d="m250.841 303.904h40.419v137.723h-40.419z" fill="#ffe177"/></g><g><path d="m270.419 303.904h20.841v137.723h-20.841z" fill="#ffd15b"/></g><g><path d="m214.771 504.5h-143.711v-133.711c0-5.523 4.477-10 10-10h123.711c5.523 0 10 4.477 10 10z" fill="#ffe177"/></g><g><path d="m204.771 360.789h-31.06c5.523 0 10 4.477 10 10v133.711h31.06v-133.711c0-5.523-4.477-10-10-10z" fill="#ffd15b"/></g><g><path d="m414.599 238.036h-344.517c-5.523 0-10-4.477-10-10v-10.938c0-5.523 4.477-10 10-10h344.517c5.523 0 10 4.477 10 10v10.938c0 5.523-4.478 10-10 10z" fill="#f6a96c"/></g><g><path d="m414.599 207.098h-41.599c5.523 0 10 4.477 10 10v10.938c0 5.523-4.477 10-10 10h41.598c5.523 0 10-4.477 10-10v-10.938c.001-5.523-4.477-10-9.999-10z" fill="#ea9b58"/></g><g><path d="m473.48 388.733h-134.689c-5.523 0-10-4.477-10-10v-10.938c0-5.523 4.477-10 10-10h134.689c5.523 0 10 4.477 10 10v10.938c0 5.523-4.477 10-10 10z" fill="#f6a96c"/></g><g><path d="m473.48 357.795h-41.791c5.523 0 10 4.477 10 10v10.938c0 5.523-4.477 10-10 10h41.791c5.523 0 10-4.477 10-10v-10.938c0-5.523-4.477-10-10-10z" fill="#ea9b58"/></g><g><circle cx="142.915" cy="432.645" fill="#bb5d4c" r="37.5"/></g><g><path d="m142.915 395.145c-5.416 0-10.558 1.157-15.208 3.223 13.131 5.834 22.293 18.982 22.293 34.277s-9.162 28.442-22.292 34.277c4.649 2.066 9.792 3.223 15.208 3.223 20.711 0 37.5-16.789 37.5-37.5s-16.79-37.5-37.501-37.5z" fill="#a44f3e"/></g><g><path d="m309.829 182.743c26.191 0 47.5-21.309 47.5-47.5s-21.309-47.5-47.5-47.5-47.5 21.309-47.5 47.5 21.309 47.5 47.5 47.5zm0-80c17.921 0 32.5 14.579 32.5 32.5s-14.579 32.5-32.5 32.5-32.5-14.579-32.5-32.5 14.579-32.5 32.5-32.5z"/><path d="m473.48 350.295h-36.48c-4.143 0-7.5 3.357-7.5 7.5s3.357 7.5 7.5 7.5h36.479c1.379 0 2.5 1.121 2.5 2.5v10.938c0 1.379-1.121 2.5-2.5 2.5h-134.688c-1.379 0-2.5-1.121-2.5-2.5v-10.938c0-1.379 1.121-2.5 2.5-2.5h63.209c4.143 0 7.5-3.357 7.5-7.5s-3.357-7.5-7.5-7.5h-9.531v-104.759h22.13c9.649 0 17.5-7.851 17.5-17.5v-10.938c0-9.649-7.851-17.5-17.5-17.5h-8.448v-126.21c0-9.649-7.851-17.5-17.5-17.5h-103.151c-4.143 0-7.5 3.357-7.5 7.5s3.357 7.5 7.5 7.5h103.15c1.379 0 2.5 1.121 2.5 2.5v126.211h-162.642v-126.211c0-1.379 1.122-2.5 2.5-2.5h19.492c4.142 0 7.5-3.357 7.5-7.5s-3.358-7.5-7.5-7.5h-19.492c-9.649 0-17.5 7.851-17.5 17.5v126.211h-78.896v-153.661h40.468c9.649 0 17.5-7.851 17.5-17.5v-10.938c0-9.649-7.851-17.5-17.5-17.5h-135.936c-9.649 0-17.5 7.851-17.5 17.5v10.938c0 9.649 7.851 17.5 17.5 17.5h1.212v58.975c-8.713 3.095-14.97 11.418-14.97 21.178 0 12.39 10.08 22.47 22.47 22.47s22.47-10.08 22.47-22.47c0-9.76-6.257-18.083-14.97-21.178v-58.975h24.256v153.661h-9.531c-9.649 0-17.5 7.851-17.5 17.5v10.938c0 9.649 7.851 17.5 17.5 17.5h45.333v107.753h-34.354c-9.649 0-17.5 7.851-17.5 17.5v52.21c0 4.143 3.358 7.5 7.5 7.5s7.5-3.357 7.5-7.5v-52.211c0-1.379 1.122-2.5 2.5-2.5h123.711c1.378 0 2.5 1.121 2.5 2.5v126.211h-128.711v-39c0-4.143-3.358-7.5-7.5-7.5s-7.5 3.357-7.5 7.5v39h-35.04c-4.142 0-7.5 3.357-7.5 7.5s3.358 7.5 7.5 7.5h399.197c4.143 0 7.5-3.357 7.5-7.5s-3.357-7.5-7.5-7.5h-35.248v-100.768h81.011c9.649 0 17.5-7.851 17.5-17.5v-10.938c0-9.648-7.851-17.499-17.5-17.499zm-96.011 0h-25v-104.759h25zm-329.612-216.734c-4.119 0-7.47-3.351-7.47-7.47s3.351-7.47 7.47-7.47 7.47 3.351 7.47 7.47-3.352 7.47-7.47 7.47zm-8.713-102.623c-1.378 0-2.5-1.121-2.5-2.5v-10.938c0-1.379 1.122-2.5 2.5-2.5h135.936c1.378 0 2.5 1.121 2.5 2.5v10.938c0 1.379-1.122 2.5-2.5 2.5zm80.469 15v153.661h-25v-153.661zm-49.531 184.598c-1.378 0-2.5-1.121-2.5-2.5v-10.938c0-1.379 1.122-2.5 2.5-2.5h344.517c1.379 0 2.5 1.121 2.5 2.5v10.938c0 1.379-1.121 2.5-2.5 2.5zm213.016 80.867-24.757 24.451v-24.451zm-19.767-15v-50.867h15.438v50.867zm-107.916 56.886h-25v-107.753h25zm92.916-56.886h-2.23c-4.142 0-7.5 3.357-7.5 7.5 0 3.167 1.965 5.869 4.74 6.969v123.786c-2.775 1.1-4.74 3.802-4.74 6.969 0 4.143 3.358 7.5 7.5 7.5h2.23v47.873h-26.061v-126.211c0-9.649-7.851-17.5-17.5-17.5h-34.355v-107.753h77.916zm30.439 200.597h-15.438v-47.873h15.438zm4.99-62.873h-25.419v-3.339l25.419-25.104zm0-49.526-25.419 25.105v-15.844l25.419-25.104zm0-36.925-25.419 25.105v-15.844l25.419-25.104zm53.709 149.324h-43.699v-47.873h2.23c4.143 0 7.5-3.357 7.5-7.5 0-3.167-1.965-5.869-4.74-6.969v-123.786c2.775-1.1 4.74-3.802 4.74-6.969 0-4.143-3.357-7.5-7.5-7.5h-2.23v-50.867h43.699v104.826c-9.032.68-16.178 8.23-16.178 17.433v10.938c0 9.203 7.146 16.753 16.178 17.433zm40 0h-25v-100.768h25z"/><path d="m187.915 432.645c0-24.813-20.187-45-45-45s-45 20.187-45 45 20.187 45 45 45 45-20.187 45-45zm-75 0c0-16.542 13.458-30 30-30s30 13.458 30 30-13.458 30-30 30-30-13.458-30-30z"/></g></g></svg>