<svg id="Capa_1" enable-background="new 0 0 512 512" height="512" viewBox="0 0 512 512" width="512" xmlns="http://www.w3.org/2000/svg"><g><g><path d="m501.384 308.349c-1.347 10.467-3.346 20.84-6.004 30.993-11.196 42.758-50.225 72.62-94.911 72.62h-33.313c.041.7.068 1.404.068 2.113 0 19.732-16.053 35.785-35.785 35.785h-150.88c-19.732 0-35.785-16.053-35.785-35.785 0-.71.027-1.414.068-2.113h-33.297c-44.963 0-84.145-30.431-95.284-74.002-2.496-9.762-4.38-19.694-5.664-29.725-2.028 12.782-3.097 25.883-3.097 39.236 0 21.472 2.726 42.307 7.849 62.178 11.295 43.807 50.955 74.321 96.195 74.321h288.924c44.891 0 84.573-29.992 95.945-73.419 4.9-18.71 7.672-38.281 8.041-58.44.274-14.908-.795-29.53-3.07-43.762z" fill="#fae2c0"/></g><g><g><path d="m501.384 308.349c-1.347 10.467-3.346 20.84-6.004 30.993-7.09 27.078-25.351 48.971-49.135 61.396-.72 3.293-1.481 6.571-2.33 9.814-11.372 43.427-51.054 73.419-95.945 73.419h52.499c44.891 0 84.573-29.992 95.945-73.419 4.9-18.71 7.672-38.281 8.041-58.44.273-14.909-.796-29.531-3.071-43.763z" fill="#fed2a4"/></g></g><g><path d="m242.767 28.379c-131.09 6.877-235.267 115.349-235.267 248.152 0 21.298 2.682 41.968 7.725 61.693 11.252 44.011 50.894 74.806 96.32 74.806h33.255c.556-19.25 16.376-34.74 35.758-34.74h150.88c19.382 0 35.202 15.491 35.759 34.74h33.272c44.891 0 84.573-29.992 95.945-73.419 4.023-15.365 6.612-31.31 7.614-47.685 9.033-147.647-113.541-271.297-261.261-263.547z" fill="#fdb4ba"/></g><g><g><path d="m242.767 28.379c-4.112.216-8.198.532-12.255.945 129.976 13.221 231.256 127.917 223.016 262.603-1.002 16.375-3.591 32.32-7.614 47.685-9.897 37.795-41.241 65.404-78.797 71.931.035.494.066.989.08 1.487h33.272c44.891 0 84.573-29.992 95.945-73.419 4.023-15.365 6.612-31.31 7.614-47.685 9.033-147.647-113.541-271.297-261.261-263.547z" fill="#fe99a0"/></g></g><g><path d="m120.426 342.692c-17.413 0-32.619-11.992-36.452-28.978-2.866-12.699-4.329-25.763-4.329-38.99 0-97.242 79.112-176.354 176.354-176.354s176.354 79.112 176.354 176.354c0 13.227-1.463 26.291-4.329 38.99-3.833 16.985-19.04 28.978-36.452 28.978z" fill="#ffe177"/></g><path d="m255.999 98.371c-8.894 0-17.634.668-26.177 1.945 39.368 5.884 74.519 24.832 100.902 52.269h3.799c10.74 0 20.531 6.15 25.193 15.825l21.542 44.698c4.438 9.209 3.498 20.105-2.451 28.418l-1.552 2.169c1.254 7.037 2.09 14.218 2.48 21.515 10.81 12.888 17.347 29.46 17.347 47.497v14.804c0 5.121-.527 10.126-1.528 14.962 15.705-1.668 28.932-13.083 32.47-28.759 2.866-12.699 4.329-25.763 4.329-38.99 0-97.242-79.112-176.353-176.354-176.353z" fill="#ffd15b"/><g><path d="m368.447 254.283-12.575 17.569c-5.051 7.059-13.248 11.272-21.929 11.272h-51.524c-8.681 0-16.878-4.214-21.929-11.272l-22.122-30.909c-.56-.783-1.06-1.595-1.528-2.421h-69.117c-40.801 0-74.184 33.383-74.184 74.184v14.804c0 1.324.039 2.64.108 3.947 6.865 7 16.433 11.234 26.779 11.234h271.145c1.343 0 2.67-.08 3.983-.219 1.001-4.836 1.528-9.841 1.528-14.962v-14.804c0-23.663-11.242-44.815-28.635-58.423z" fill="#f2fbff"/></g><g><path d="m334.522 152.585h-52.682c-10.74 0-20.531 6.15-25.193 15.825l-21.542 44.698c-4.438 9.209-3.498 20.106 2.451 28.418l22.122 30.909c5.251 7.337 13.72 11.69 22.742 11.69h51.524c9.023 0 17.491-4.353 22.742-11.69l22.122-30.909c5.949-8.313 6.889-19.21 2.451-28.418l-21.542-44.698c-4.664-9.675-14.455-15.825-25.195-15.825z" fill="#fff"/></g><g><path d="m368.447 254.283-12.575 17.569c-5.051 7.059-13.248 11.272-21.929 11.272h-51.524c-8.681 0-16.878-4.214-21.929-11.272l-22.122-30.909c-.56-.783-1.06-1.595-1.528-2.421h-69.117c-40.801 0-74.184 33.383-74.184 74.184v14.804c0 1.324.039 2.64.108 3.947 6.865 7 16.433 11.234 26.779 11.234h271.145c1.343 0 2.67-.08 3.983-.219 1.001-4.836 1.528-9.841 1.528-14.962v-14.804c0-23.663-11.242-44.815-28.635-58.423z" fill="#f2fbff"/></g><g><path d="m208.847 238.523h-41.124c-40.061 0-72.948 32.189-74.128 71.978 18.934-2.502 36.113-13.622 45.944-30.604 29.62 4.925 59.259-12.119 69.308-41.374z" fill="#fe9738"/></g><g><path d="m368.447 254.283-12.575 17.57c-2.228 3.114-5.07 5.672-8.294 7.561 5.08 10.029 7.964 21.337 7.964 33.293v14.804c0 5.121-.527 10.126-1.528 14.962-1.312.139-2.64.219-3.983.219h41.54c1.343 0 2.67-.08 3.983-.219 1.001-4.836 1.528-9.841 1.528-14.962v-14.804c0-23.664-11.242-44.816-28.635-58.424z" fill="#dff6fd"/></g><g><g><g><path d="m245.336 194.182 12.212-25.338c4.468-9.269 14.003-15.259 24.293-15.259h6.846c-5.166-6.074-10.847-11.574-16.801-16.248-11.006-8.519-22.949-14.159-30.471-9.496-7.799 4.183-8.886 17.346-7.012 31.137 1.677 11.732 5.428 23.9 10.933 35.204z" fill="#fe9738"/></g><g><path d="m265.689 159c4.593-3.434 10.245-5.415 16.152-5.415h6.846c-5.166-6.074-10.847-11.574-16.801-16.248-11.006-8.519-22.949-14.159-30.471-9.496-2.9 1.555-4.868 4.355-6.105 7.964 5.064 1.955 10.486 5.341 15.699 9.376 5.148 4.042 10.094 8.704 14.68 13.819z" fill="#fe860a"/></g><g><path d="m334.523 153.585c10.29 0 19.825 5.989 24.293 15.259l12.212 25.338c5.505-11.304 9.256-23.472 10.934-35.204 1.874-13.791.787-26.954-7.012-31.137-7.522-4.663-19.465.977-30.472 9.496-5.954 4.674-11.635 10.174-16.801 16.248z" fill="#fe9738"/></g><g><path d="m361.201 158.978c-.499 3.489-1.2 7.016-2.057 10.548l11.883 24.657c5.505-11.304 9.256-23.472 10.934-35.204 1.874-13.791.787-26.954-7.012-31.137-4.801-2.976-11.403-1.752-18.412 1.735 5.644 5.401 6.33 17.145 4.664 29.401z" fill="#fe860a"/></g></g><g><path d="m334.522 152.585h-52.682c-10.74 0-20.531 6.15-25.193 15.825l-21.542 44.698c-4.438 9.209-3.498 20.106 2.451 28.418l22.122 30.909c5.251 7.337 13.72 11.69 22.742 11.69h51.524c9.023 0 17.491-4.353 22.742-11.69l22.122-30.909c5.949-8.313 6.889-19.21 2.451-28.418l-21.542-44.698c-4.664-9.675-14.455-15.825-25.195-15.825z" fill="#fff"/></g><g><path d="m381.258 213.108-21.542-44.698c-4.663-9.675-14.454-15.825-25.193-15.825h-31.034c10.74 0 20.531 6.15 25.193 15.825l21.542 44.698c4.438 9.209 3.499 20.105-2.451 28.418l-22.121 30.909c-5.251 7.337-13.72 11.69-22.742 11.69h31.034c9.023 0 17.491-4.353 22.742-11.69l22.121-30.909c5.95-8.313 6.889-19.209 2.451-28.418z" fill="#f2fbff"/></g></g><g><g><path d="m331.439 450.86h-150.881c-20.232 0-36.785-16.553-36.785-36.785 0-20.232 16.553-36.785 36.785-36.785h150.881c20.232 0 36.785 16.553 36.785 36.785 0 20.232-16.553 36.785-36.785 36.785z" fill="#ffe177"/></g><g><path d="m331.439 377.29h-52.226c20.232 0 36.785 16.553 36.785 36.785 0 20.232-16.553 36.785-36.785 36.785h52.226c20.232 0 36.785-16.553 36.785-36.785 0-20.231-16.553-36.785-36.785-36.785z" fill="#ffd15b"/></g></g><g><path d="m378.7 121.344c-4.502-2.711-11.483-4.233-21.711-.17-30.047-19.836-64.87-30.303-100.991-30.303-41.139 0-80.051 13.337-112.551 38.575-3.039 2.36-4.072 6.636-2.094 9.937 2.364 3.946 7.551 4.829 11.062 2.09 29.892-23.291 65.711-35.602 103.583-35.602 30.605 0 60.195 8.179 86.261 23.752l-2.413 1.815c-5.14 4.034-10.062 8.618-14.671 13.647h-33.989c-4.61-5.03-9.537-9.618-14.711-13.679-20.03-15.506-32.139-14.08-38.813-10.062-6.815 3.771-14.103 13.544-10.685 38.695 1.571 10.982 4.858 22.276 9.527 32.891l-3.464 7.188h-12.576c-4.143 0-7.5 3.357-7.5 7.5s3.357 7.5 7.5 7.5h5.851c-.891 2.992-1.354 6.063-1.438 9.136h-7.817c-3.896 0-7.096 2.97-7.463 6.769h-41.874c-38.586 0-70.986 26.902-79.486 62.93-.723-6.372-1.092-12.796-1.092-19.229 0-40.388 14.552-79.503 40.973-110.138 2.705-3.137 2.355-7.873-.781-10.578-3.138-2.704-7.873-2.356-10.578.781-28.769 33.357-44.614 75.951-44.614 119.935 0 13.699 1.519 27.373 4.513 40.641 4.629 20.506 22.627 34.827 43.768 34.827h271.145c21.142 0 39.14-14.321 43.768-34.827 2.995-13.271 4.514-26.945 4.514-40.641 0-46.833-17.595-91.252-49.603-125.463.275-17.294-5.805-24.739-11.55-27.917zm-7.703 12.871c.134.083.27.161.407.235 2.933 1.572 5.036 9.454 3.132 23.466-.771 5.393-2.022 10.878-3.693 16.306l-4.371-9.069c-4.318-8.959-12.241-15.574-21.508-18.459 1.353-1.185 2.719-2.338 4.104-3.426 11.226-8.689 19.102-10.802 21.929-9.053zm-129.163 23.753c-1.911-14.063.192-21.944 3.125-23.517.139-.074.275-.152.408-.235 2.833-1.753 10.707.367 21.888 9.021 1.402 1.1 2.779 2.264 4.143 3.458-9.266 2.885-17.189 9.5-21.506 18.459l-4.371 9.07c-1.671-5.419-2.92-10.891-3.687-16.256zm.027 58.395.6-1.245h5.071c4.143 0 7.5-3.357 7.5-7.5 0-3.441-2.319-6.333-5.478-7.216l13.849-28.735c3.391-7.035 10.628-11.581 18.438-11.581h52.682c7.81 0 15.047 4.546 18.438 11.58l13.922 28.886c-2.914 1.029-5.006 3.8-5.006 7.066 0 4.143 3.357 7.5 7.5 7.5h4.526l.6 1.245c1.211 2.514 1.874 5.197 2.005 7.891h-7.131c-4.143 0-7.5 3.357-7.5 7.5s3.357 7.5 7.5 7.5h1.835l-20.625 28.817c-3.833 5.356-10.055 8.555-16.643 8.555h-51.524c-6.588 0-12.81-3.198-16.644-8.556l-20.624-28.816h2.38c4.143 0 7.5-3.357 7.5-7.5 0-4.142-3.357-7.5-7.5-7.5h-7.676c.131-2.694.794-5.377 2.005-7.891zm-74.137 29.66h29.474c-11.308 19.419-33.518 30.286-56.427 26.475-3.082-.511-6.157.938-7.721 3.641-6.841 11.815-18.022 20.619-30.941 24.752 5.597-31.15 32.879-54.868 65.615-54.868zm-66.677 82.011c-.001-.173-.007-.353-.007-.523v-10.762c17.142-3.951 32.388-14.305 42.288-28.802 30.182 2.843 58.634-14.056 70.645-41.925h17.579l22.027 30.776c6.644 9.284 17.426 14.826 28.842 14.826h51.524c11.416 0 22.198-5.542 28.841-14.825l7.656-10.697c12.246 12.446 19.142 29.038 19.142 46.604v14.804c0 2.568-.166 5.134-.462 7.682h-268.696c-7.269 0-14.093-2.679-19.379-7.158zm323.806-53.31c0 12.587-1.395 25.149-4.146 37.339-2.031 9.005-8.233 16.345-16.285 20.196.095-1.581.16-3.164.16-4.748v-14.804c0-22.421-9.14-43.54-25.299-58.959l5.623-7.857c1.5-2.096 2.739-4.326 3.733-6.638h10.664c4.143 0 7.5-3.357 7.5-7.5 0-4.142-3.357-7.5-7.5-7.5h-7.799c-.086-3.074-.575-6.143-1.468-9.136h5.477c4.143 0 7.5-3.357 7.5-7.5s-3.357-7.5-7.5-7.5h-12.189l-3.456-7.17c3.381-7.685 6.031-15.731 7.834-23.772l.001.001c24.059 29.908 37.15 66.834 37.15 105.548z"/><path d="m278.254 221.084c4.143 0 7.5-3.357 7.5-7.5v-10.688c0-4.143-3.357-7.5-7.5-7.5-4.142 0-7.5 3.357-7.5 7.5v10.688c0 4.142 3.358 7.5 7.5 7.5z"/><path d="m338.108 221.084c4.143 0 7.5-3.357 7.5-7.5v-10.688c0-4.143-3.357-7.5-7.5-7.5s-7.5 3.357-7.5 7.5v10.688c0 4.142 3.358 7.5 7.5 7.5z"/><path d="m179.917 414.075c0 4.143 3.357 7.5 7.5 7.5h137.164c4.143 0 7.5-3.357 7.5-7.5s-3.357-7.5-7.5-7.5h-137.164c-4.143 0-7.5 3.357-7.5 7.5z"/><path d="m509.517 312.161c.916-6.563 1.59-13.164 1.994-19.777 2.269-37.083-3.361-73.33-16.734-107.734-12.847-33.049-32.117-62.675-57.276-88.053-25.158-25.377-54.613-44.904-87.547-58.036-34.284-13.672-70.477-19.619-107.578-17.669-135.911 7.129-242.373 119.419-242.373 255.638 0 11.92.826 23.799 2.457 35.537-1.628 11.741-2.46 23.645-2.46 35.404 0 21.685 2.721 43.235 8.087 64.05 12.137 47.073 54.68 79.949 103.457 79.949h203.548c4.143 0 7.5-3.357 7.5-7.5s-3.357-7.5-7.5-7.5h-203.548c-41.934 0-78.505-28.248-88.932-68.693-3.997-15.503-6.428-31.444-7.271-47.541 17.581 36.328 54.611 60.292 96.205 60.292h25.203c3.134 21.371 21.583 37.832 43.81 37.832h150.881c22.227 0 40.676-16.461 43.81-37.832h25.218c41.63 0 78.73-23.873 96.165-59.978-.875 16.292-3.369 32.436-7.473 48.103-10.455 39.93-46.926 67.818-88.689 67.818h-50.377c-4.143 0-7.5 3.357-7.5 7.5s3.357 7.5 7.5 7.5h50.377c48.581 0 91.018-32.494 103.2-79.018 5.124-19.562 7.911-39.817 8.286-60.203.242-13.325-.584-26.805-2.44-40.089zm-20.362 25.55c-10.455 39.93-46.925 67.817-88.688 67.817h-25.578c-3.995-20.342-21.954-35.738-43.449-35.738h-105.441c-4.143 0-7.5 3.357-7.5 7.5s3.357 7.5 7.5 7.5h105.441c16.147 0 29.285 13.138 29.285 29.285s-13.138 29.285-29.285 29.285h-150.881c-16.147 0-29.285-13.138-29.285-29.285s13.138-29.285 29.285-29.285h10.44c4.143 0 7.5-3.357 7.5-7.5s-3.357-7.5-7.5-7.5h-10.44c-21.495 0-39.455 15.396-43.449 35.738h-25.563c-42.022 0-78.641-28.441-89.052-69.162-4.971-19.442-7.491-39.575-7.491-59.836 0-128.238 100.219-233.948 228.157-240.66 34.921-1.823 68.982 3.761 101.238 16.623 31.01 12.366 58.751 30.757 82.451 54.664 23.701 23.908 41.852 51.809 53.948 82.928 12.582 32.369 17.879 66.478 15.743 101.383-.957 15.62-3.441 31.178-7.386 46.243z"/><path d="m300.301 262.14 7.79-6.377 8.036 6.43c1.383 1.106 3.037 1.644 4.681 1.644 2.2 0 4.38-.963 5.861-2.814 2.588-3.234 2.063-7.954-1.171-10.542l-9.402-7.523 6.198-6.586c2.587-2.747 3.292-6.76 1.796-10.224-1.496-3.465-4.901-5.703-8.675-5.703h-14.757c-3.772 0-7.177 2.237-8.673 5.701-1.497 3.463-.793 7.475 1.792 10.224l6.233 6.623-9.212 7.54c-3.205 2.624-3.677 7.349-1.053 10.555 2.624 3.204 7.35 3.673 10.556 1.052z"/></g></g></svg>