<svg id="Capa_1" enable-background="new 0 0 512 512" height="512" viewBox="0 0 512 512" width="512" xmlns="http://www.w3.org/2000/svg"><g><path d="m40.965 102.929c2.303-.994 4.837-1.549 7.5-1.549s5.197.556 7.5 1.549v-72.525h-15z" fill="#cbc4cc"/><g><circle cx="48.465" cy="120.38" fill="#ffe177" r="20"/></g><g><path d="m48.465 100.38c-3.607 0-6.982.968-9.904 2.639 6.026 3.446 10.096 9.922 10.096 17.361s-4.07 13.915-10.096 17.361c2.922 1.671 6.297 2.639 9.904 2.639 11.046 0 20-8.954 20-20 0-11.045-8.954-20-20-20z" fill="#ffd15b"/></g><g><path d="m88.313 30.389h40.604v173.236h-40.604z" fill="#e2dee2"/></g><g><path d="m108.502 30.389h20.416v173.236h-20.416z" fill="#cbc4cc"/></g><g><path d="m177.609 31.405h-137.988c-5.606 0-10.151-4.545-10.151-10.151v-11.103c.001-5.606 4.545-10.151 10.151-10.151h137.988c5.606 0 10.151 4.545 10.151 10.151v11.103c0 5.606-4.545 10.151-10.151 10.151z" fill="#f6a96c"/></g><g><path d="m177.609 0h-40.685c5.606 0 10.151 4.545 10.151 10.151v11.103c0 5.606-4.545 10.151-10.151 10.151h40.685c5.606 0 10.151-4.545 10.151-10.151v-11.103c0-5.606-4.545-10.151-10.151-10.151z" fill="#ea9b58"/></g><g><g><path d="m404.553 203.626v-136.744c0-5.606-4.545-10.151-10.151-10.151h-160.021c-5.606 0-10.151 4.545-10.151 10.151v136.744z" fill="#ffe177"/></g><g><path d="m394.402 56.731h-31.476c5.606 0 10.151 4.545 10.151 10.151v136.744h31.476v-136.744c0-5.606-4.545-10.151-10.151-10.151z" fill="#ffd15b"/></g><g><circle cx="314.392" cy="129.671" fill="#bb5d4c" r="40.604"/></g><g><path d="m314.391 89.067c-5.546 0-10.831 1.115-15.647 3.129 14.656 6.127 24.956 20.596 24.956 37.475 0 16.878-10.3 31.348-24.956 37.475 4.816 2.013 10.101 3.129 15.647 3.129 22.425 0 40.604-18.179 40.604-40.604s-18.179-40.604-40.604-40.604z" fill="#a44f3e"/></g><g><path d="m314.392 177.774c-26.524 0-48.104-21.579-48.104-48.104s21.579-48.104 48.104-48.104 48.104 21.579 48.104 48.104-21.58 48.104-48.104 48.104zm0-81.207c-18.253 0-33.104 14.851-33.104 33.104s14.851 33.104 33.104 33.104 33.104-14.851 33.104-33.104-14.851-33.104-33.104-33.104z" fill="#fff0ad"/></g></g><g><path d="m124.657 233h40.604v126.636h-40.604z" fill="#e2dee2"/></g><g><path d="m144.03 233h21.231v126.636h-21.231z" fill="#cbc4cc"/></g><g><g><path d="m350.061 233h40.604v123.596h-40.604z" fill="#e2dee2"/></g><g><path d="m369.38 233h21.285v123.596h-21.285z" fill="#cbc4cc"/></g><path d="m350.061 385.971h40.604v112.029h-40.604z" fill="#e2dee2"/><path d="m369.38 385.971h21.285v112.029h-21.285z" fill="#cbc4cc"/></g><g><path d="m259.578 233h30.898v61.377h-30.898z" fill="#e2dee2"/><path d="m273.961 233h16.515v61.377h-16.515z" fill="#cbc4cc"/><path d="m259.578 447.178h30.898v50.822h-30.898z" fill="#e2dee2"/><path d="m273.961 447.178h16.515v50.822h-16.515z" fill="#cbc4cc"/></g><path d="m255.027 434.178h40c.174 0 .344.013.514.026v-126.853c-.17.013-.341.026-.514.026h-40c-.174 0-.344-.013-.514-.026v126.853c.17-.014.341-.026.514-.026z" fill="#ffe177"/><path d="m295.027 434.178c.174 0 .344.013.514.026v-126.853c-.17.013-.341.026-.514.026h-20.641v126.801z" fill="#ffd15b"/><g fill="#ffc344"><path d="m254.513 362.188 41.029-40.626v-14.211c-.17.013-.341.026-.514.026h-6.478l-34.036 33.702v21.109z"/><path d="m254.513 399.62 41.029-40.643v-21.114l-41.029 40.643z"/><path d="m254.513 434.204c.17-.013.341-.026.514-.026h2.435l38.079-37.728v-21.115l-41.029 40.65v18.219z"/><g><path d="m247.527 440.678c0 4.142 3.358 7.5 7.5 7.5h40c4.142 0 7.5-3.358 7.5-7.5 0-4.142-3.358-7.5-7.5-7.5h-40c-4.142 0-7.5 3.358-7.5 7.5z"/><path d="m247.527 300.877c0 4.142 3.358 7.5 7.5 7.5h40c4.142 0 7.5-3.358 7.5-7.5 0-4.142-3.358-7.5-7.5-7.5h-40c-4.142 0-7.5 3.358-7.5 7.5z"/></g></g><path d="m217.898 498v-129.229c0-5.606-4.545-10.151-10.151-10.151h-125.577c-5.606 0-10.151 4.545-10.151 10.151v129.229z" fill="#ffe177"/><path d="m186.37 368.771v129.229h31.528v-129.229c0-5.606-4.545-10.151-10.151-10.151h-31.528c5.606 0 10.151 4.545 10.151 10.151z" fill="#ffd15b"/><g><path d="m420.742 234.015h-349.716c-5.606 0-10.151-4.545-10.151-10.151v-11.103c0-5.606 4.545-10.151 10.151-10.151h349.716c5.606 0 10.151 4.545 10.151 10.151v11.103c0 5.606-4.545 10.151-10.151 10.151z" fill="#f6a96c"/></g><g><path d="m420.742 202.61h-42.226c5.606 0 10.151 4.545 10.151 10.151v11.103c0 5.606-4.545 10.151-10.151 10.151h42.226c5.606 0 10.151-4.545 10.151-10.151v-11.103c0-5.606-4.545-10.151-10.151-10.151z" fill="#ea9b58"/></g><g><path d="m480.512 386.986h-136.722c-5.606 0-10.151-4.545-10.151-10.151v-11.103c0-5.606 4.545-10.151 10.151-10.151h136.721c5.606 0 10.151 4.545 10.151 10.151v11.103c.001 5.606-4.544 10.151-10.15 10.151z" fill="#f6a96c"/></g><g><path d="m480.512 355.581h-42.422c5.606 0 10.151 4.545 10.151 10.151v11.103c0 5.606-4.545 10.151-10.151 10.151h42.422c5.606 0 10.151-4.545 10.151-10.151v-11.103c0-5.606-4.545-10.151-10.151-10.151z" fill="#ea9b58"/></g><g><circle cx="144.959" cy="431.56" fill="#bb5d4c" r="38.066"/></g><g><path d="m144.959 393.494c-5.497 0-10.717 1.175-15.437 3.272 13.329 5.923 22.629 19.268 22.629 34.794s-9.3 28.872-22.629 34.794c4.72 2.097 9.94 3.272 15.437 3.272 21.023 0 38.066-17.043 38.066-38.066-.001-21.023-17.043-38.066-38.066-38.066z" fill="#a44f3e"/></g><g><path d="m144.958 477.126c-25.125 0-45.566-20.44-45.566-45.565s20.441-45.566 45.566-45.566 45.566 20.441 45.566 45.566-20.441 45.565-45.566 45.565zm0-76.132c-16.854 0-30.566 13.712-30.566 30.566s13.712 30.565 30.566 30.565 30.566-13.712 30.566-30.565c0-16.854-13.712-30.566-30.566-30.566z" fill="#fff0ad"/></g><g><path d="m434.059 512h-405.222c-4.142 0-7.5-3.357-7.5-7.5s3.358-7.5 7.5-7.5h405.221c4.143 0 7.5 3.357 7.5 7.5s-3.357 7.5-7.499 7.5z" fill="#f6a96c"/></g></g></svg>