<svg id="Capa_1" enable-background="new 0 0 512 512" height="512" viewBox="0 0 512 512" width="512" xmlns="http://www.w3.org/2000/svg"><g><g><path d="m412.807 237.987-2.141-2.141c-6.461-6.461-16.937-6.461-23.398 0s-6.461 16.937 0 23.398l2.141 2.141c20.702 20.702 20.702 54.386 0 75.088l-33.277 33.277 1.946 4.721c4.755 11.537 6.103 23.949 4.253 35.875l50.476-50.476c33.603-33.604 33.603-88.28 0-121.883z" fill="#fae2c0"/></g><g><g><path d="m131.934 107.801 15.334-31.817c6.437-13.354 20.175-21.984 35-21.984h15.735c-8.847-11.624-19.072-22.054-29.921-30.572-15.684-12.14-32.703-20.177-43.422-13.532-11.114 5.96-12.663 24.718-9.992 44.37 2.559 17.892 8.498 36.493 17.266 53.535z" fill="#f6a96c"/></g><g><g><path d="m168.082 23.428c-15.684-12.14-32.703-20.177-43.422-13.532-3.242 1.739-5.665 4.573-7.412 8.194 9.195 1.558 19.894 7.686 30.037 15.537 8.191 6.431 16.024 13.954 23.179 22.256 3.77-1.215 7.742-1.883 11.803-1.883h15.735c-8.846-11.624-19.071-22.054-29.92-30.572z" fill="#ea9b58"/></g></g><g><path d="m257.34 54c14.825 0 28.563 8.629 35 21.984l15.334 31.817c8.768-17.042 14.707-35.643 17.265-53.534 2.671-19.653 1.122-38.41-9.992-44.37-10.719-6.645-27.738 1.392-43.422 13.532-10.848 8.517-21.073 18.947-29.92 30.571z" fill="#f6a96c"/></g><g><path d="m314.947 9.896c-6.142-3.808-14.354-2.789-23.196 1.054 9.588 6.892 10.851 24.698 8.32 43.316-1.21 8.462-3.185 17.082-5.85 25.622l13.452 27.912c8.768-17.042 14.707-35.643 17.265-53.534 2.672-19.652 1.123-38.409-9.991-44.37z" fill="#ea9b58"/></g></g><g><g><g><path d="m359.003 374.089-52.967-128.533h-172.465l-52.967 128.533c-9.404 22.821-5.733 48.943 9.597 68.288l22.646 28.577c-6.335 3.773-10.582 10.68-10.582 18.59v9.956c0 2.761 2.239 5 5 5h225.076c2.761 0 5-2.239 5-5v-9.956c0-7.91-4.247-14.817-10.582-18.59l22.646-28.577c15.331-19.345 19.003-45.467 9.598-68.288z" fill="#fae2c0"/></g><g><path d="m143.135 213.238h153.337l23.973-33.497c8.478-11.846 9.817-27.374 3.493-40.496l-30.698-63.695c-6.644-13.786-20.596-22.55-35.9-22.55h-75.072c-15.304 0-29.256 8.764-35.901 22.55l-30.698 63.695c-6.325 13.123-4.985 28.65 3.493 40.496z" fill="#fae2c0"/></g></g><g><g><path d="m359.003 374.089-52.555-127.533h-35.407l52.555 127.533c9.404 22.821 5.733 48.943-9.597 68.288l-16.755 21.143c-2.884 3.639-3.017 8.845-.1 12.456 2.996 3.709 4.79 8.426 4.79 13.568v9.956c0 2.761-2.239 5-5 5h35.407c2.761 0 5-2.239 5-5v-9.956c0-7.91-4.247-14.817-10.582-18.59l22.646-28.577c15.331-19.345 19.003-45.467 9.598-68.288z" fill="#fed2a4"/></g><g><path d="m257.833 75.55 30.698 63.695c6.325 13.123 4.985 28.65-3.493 40.496l-23.258 32.497h35.407l23.258-32.497c8.478-11.846 9.817-27.374 3.493-40.496l-30.698-63.695c-6.644-13.786-20.596-22.55-35.9-22.55h-35.407c15.303 0 29.256 8.764 35.9 22.55z" fill="#fed2a4"/></g></g></g><g><path d="m306.746 246.556h-173.885c-5.523 0-10-4.477-10-10v-14.318c0-5.523 4.477-10 10-10h173.885c5.523 0 10 4.477 10 10v14.318c0 5.523-4.477 10-10 10z" fill="#0593fc"/></g><g><path d="m306.746 212.239h-52.01c5.523 0 10 4.477 10 10v14.318c0 5.523-4.477 10-10 10h52.01c5.523 0 10-4.477 10-10v-14.318c0-5.523-4.477-10-10-10z" fill="#0182fc"/></g><g><circle cx="219.804" cy="262.777" fill="#ffd15b" r="25.223"/></g><g><path d="m219.804 237.554c-3.718 0-7.244.811-10.422 2.255 8.728 3.967 14.801 12.755 14.801 22.968s-6.073 19.001-14.801 22.968c3.178 1.444 6.704 2.255 10.422 2.255 13.93 0 25.223-11.293 25.223-25.223 0-13.931-11.293-25.223-25.223-25.223z" fill="#ffc344"/></g><g><path d="m437.515 310.684c-4.042-.909-8.055 1.627-8.965 5.667-3.268 14.5-10.545 27.714-21.046 38.215l-36.414 36.414c-.806-6.7-2.513-13.344-5.152-19.749l-.199-.483 28.974-28.974c23.626-23.626 23.626-62.069 0-85.694l-2.141-2.141c-3.526-3.526-3.526-9.265 0-12.791 3.527-3.526 9.266-3.526 12.792 0l2.141 2.141c11.246 11.246 18.732 25.454 21.649 41.086.759 4.071 4.675 6.759 8.749 5.997 4.072-.76 6.757-4.677 5.997-8.749-3.475-18.621-12.392-35.545-25.788-48.941l-2.141-2.141c-9.375-9.375-24.629-9.375-34.005 0-9.374 9.375-9.374 24.629 0 34.004l2.141 2.141c17.777 17.777 17.777 46.704 0 64.481l-24.558 24.558-43.109-104.612c4.702-3.141 7.808-8.492 7.808-14.559v-14.318c0-8.062-5.487-14.849-12.918-16.871l15.216-21.261c3.997-5.585 6.636-11.859 7.924-18.366h24.322c4.142 0 7.5-3.358 7.5-7.5s-3.358-7.5-7.5-7.5h-23.769c-.623-5.04-2.049-10.021-4.323-14.742h22.31c4.142 0 7.5-3.358 7.5-7.5s-3.358-7.5-7.5-7.5h-29.539l-6.879-14.273c7.862-16.398 13.298-34.092 15.779-51.449 3.672-27.015-1.055-44.945-13.671-51.877-12.313-7.461-30.203-2.591-51.805 14.13-10.179 7.991-19.62 17.399-28.127 27.971h-37.928c-8.507-10.571-17.951-19.981-28.167-28.003-21.56-16.685-39.452-21.556-51.764-14.095-12.616 6.932-17.344 24.862-13.665 51.929 2.476 17.311 7.911 35.002 15.772 51.398l-6.879 14.273h-30.127c-4.142 0-7.5 3.358-7.5 7.5s3.358 7.5 7.5 7.5h22.899c-2.274 4.72-3.7 9.701-4.323 14.742h-23.769c-4.142 0-7.5 3.358-7.5 7.5s3.358 7.5 7.5 7.5h24.322c1.288 6.507 3.927 12.781 7.924 18.366l15.216 21.261c-7.43 2.021-12.918 8.809-12.918 16.871v14.318c0 6.066 3.105 11.418 7.808 14.559l-21.629 52.486c-1.579 3.83.247 8.213 4.077 9.792.935.386 1.902.568 2.854.568 2.948 0 5.744-1.75 6.937-4.645l22.772-55.26h50.089c-.769 2.778-1.189 5.701-1.189 8.721 0 18.043 14.68 32.723 32.724 32.723 18.043 0 32.723-14.68 32.723-32.723 0-3.02-.42-5.942-1.189-8.721h50.09l50.642 122.891c8.36 20.288 5.088 43.575-8.541 60.772l-19.055 24.045c-1.116-.351-2.261-.644-3.436-.862-4.073-.756-7.987 1.931-8.744 6.003s1.931 7.987 6.003 8.744c6.689 1.243 11.544 7.087 11.544 13.895v7.454h-22.463v-7.456c0-11.854-7.143-22.289-17.674-26.79v-98.607c0-4.142-3.358-7.5-7.5-7.5s-7.5 3.358-7.5 7.5v104.128c0 3.614 2.577 6.713 6.13 7.374 6.689 1.243 11.544 7.087 11.544 13.895v7.456h-47.344v-132.853c0-4.142-3.358-7.5-7.5-7.5s-7.5 3.358-7.5 7.5v132.853h-20.461v-132.853c0-4.142-3.358-7.5-7.5-7.5s-7.5 3.358-7.5 7.5v132.853h-47.344v-7.456c0-6.808 4.855-12.652 11.544-13.895 3.553-.66 6.13-3.76 6.13-7.374v-104.128c0-4.142-3.358-7.5-7.5-7.5s-7.5 3.358-7.5 7.5v98.607c-10.531 4.501-17.674 14.937-17.674 26.79v7.456h-22.463v-7.456c0-6.808 4.855-12.652 11.544-13.895 4.073-.757 6.76-4.671 6.003-8.744s-4.675-6.764-8.744-6.003c-1.175.218-2.32.511-3.436.862l-19.054-24.045c-13.628-17.197-16.901-40.484-8.541-60.772l14.501-35.19c1.579-3.83-.247-8.213-4.077-9.792-3.829-1.579-8.213.247-9.792 4.077l-14.502 35.19c-10.428 25.306-6.346 54.352 10.654 75.803l18.094 22.833c-4.781 5.223-7.652 12.164-7.652 19.675v9.956c0 6.893 5.607 12.5 12.5 12.5h225.076c6.893 0 12.5-5.607 12.5-12.5v-9.956c0-7.512-2.871-14.452-7.652-19.675l18.095-22.833c8.035-10.139 13.18-21.976 15.275-34.311l47.551-47.551c12.511-12.51 21.181-28.252 25.073-45.524.912-4.041-1.626-8.055-5.667-8.965zm-161.398-281.325c15.359-11.889 28.723-16.907 34.879-13.088.133.083.269.161.407.235 6.382 3.423 8.721 17.504 6.112 36.699-1.701 11.899-4.951 24.008-9.523 35.678l-7.995-16.589c-7.661-15.894-23.809-26.291-41.388-26.77 5.557-5.945 11.467-11.422 17.508-16.165zm-154.017 23.898c-2.616-19.246-.276-33.328 6.105-36.751.138-.074.274-.152.407-.235 6.158-3.816 19.52 1.2 34.838 13.056 6.067 4.763 11.987 10.248 17.548 16.195-17.58.48-33.727 10.876-41.387 26.77l-7.996 16.591c-4.57-11.665-7.818-23.762-9.515-35.626zm97.704 227.243c-9.773 0-17.724-7.951-17.724-17.723 0-9.773 7.951-17.724 17.724-17.724 9.772 0 17.723 7.951 17.723 17.724 0 9.772-7.951 17.723-17.723 17.723zm89.442-43.944c0 1.378-1.122 2.5-2.5 2.5h-64.436c-5.87-5.573-13.793-9.003-22.507-9.003s-16.637 3.43-22.507 9.003h-64.435c-1.378 0-2.5-1.122-2.5-2.5v-14.318c0-1.378 1.122-2.5 2.5-2.5h34.875c4.142 0 7.5-3.358 7.5-7.5s-3.358-7.5-7.5-7.5h-21.461l-21.014-29.361c-2.13-2.976-3.701-6.237-4.709-9.636h15.173c4.142 0 7.5-3.358 7.5-7.5s-3.358-7.5-7.5-7.5h-15.983c.514-2.816 1.406-5.588 2.684-8.239l3.134-6.502h10.166c4.142 0 7.5-3.358 7.5-7.5s-3.358-7.5-7.5-7.5h-2.937l20.335-42.193c5.359-11.121 16.799-18.306 29.144-18.306h3.242v17.499c0 4.142 3.358 7.5 7.5 7.5s7.5-3.358 7.5-7.5v-17.5h11.794v17.5c0 4.142 3.358 7.5 7.5 7.5s7.5-3.358 7.5-7.5v-17.5h12.206v17.5c0 4.142 3.358 7.5 7.5 7.5s7.5-3.358 7.5-7.5v-17.5h2.83c12.345 0 23.785 7.186 29.145 18.306l20.335 42.193h-2.937c-4.142 0-7.5 3.358-7.5 7.5s3.358 7.5 7.5 7.5h10.166l3.134 6.502c1.278 2.651 2.169 5.423 2.683 8.239h-15.984c-4.142 0-7.5 3.358-7.5 7.5s3.358 7.5 7.5 7.5h15.173c-1.008 3.399-2.579 6.66-4.709 9.636l-21.014 29.362h-90.596c-4.142 0-7.5 3.358-7.5 7.5s3.358 7.5 7.5 7.5h104.01c1.378 0 2.5 1.122 2.5 2.5z"/><path d="m198.365 120.186c-1.077-5.723-4.869-11.123-10.404-14.814-6.678-4.455-15.031-5.917-23.518-4.123-4.053.857-6.643 4.837-5.786 8.89s4.839 6.641 8.89 5.786c6.081-1.286 10.186.655 12.091 1.926 2.553 1.703 3.743 3.817 3.986 5.109.678 3.602 3.826 6.115 7.362 6.115.459 0 .926-.042 1.395-.131 4.07-.766 6.75-4.687 5.984-8.758z"/><path d="m247.228 128.943c.469.088.935.131 1.395.131 3.537 0 6.685-2.513 7.362-6.115.243-1.292 1.433-3.406 3.986-5.108 1.906-1.271 6.014-3.211 12.092-1.926 4.056.856 8.032-1.734 8.89-5.786.857-4.053-1.734-8.033-5.786-8.89-8.489-1.795-16.842-.331-23.519 4.124-5.536 3.692-9.327 9.092-10.403 14.814-.767 4.07 1.912 7.991 5.983 8.756z"/><path d="m206.76 182.347 13.098-10.722 13.466 10.774c1.383 1.106 3.038 1.644 4.681 1.644 2.2 0 4.38-.964 5.861-2.815 2.587-3.234 2.063-7.954-1.171-10.542l-16.096-12.878 11.203-11.903c2.812-2.988 3.577-7.353 1.95-11.119-1.628-3.767-5.331-6.2-9.434-6.2h-21.028c-4.104 0-7.807 2.434-9.434 6.201s-.862 8.131 1.951 11.119l11.223 11.925-15.77 12.909c-3.206 2.624-3.677 7.349-1.053 10.554 2.623 3.206 7.348 3.676 10.553 1.053z"/></g></g></svg>