<svg id="Capa_1" enable-background="new 0 0 512 512" height="512" viewBox="0 0 512 512" width="512" xmlns="http://www.w3.org/2000/svg"><g><g><g><g><path d="m339.81 313.958c-21.392-5.985-45.3-.58-62.126 16.245s-22.231 40.735-16.245 62.126c21.391 5.985 45.3.58 62.126-16.245s22.23-40.734 16.245-62.126z" fill="#bbec6c"/></g><g><path d="m339.81 313.958c-5.826-1.63-11.84-2.409-17.845-2.348.491 16.875-5.688 33.906-18.568 46.786-12.243 12.243-28.236 18.432-44.281 18.594.151 5.169.919 10.324 2.323 15.34 21.391 5.985 45.3.58 62.126-16.245 16.825-16.826 22.23-40.735 16.245-62.127z" fill="#a2e62e"/></g></g><g><g><path d="m458.056 276.967h-49.533c-3.627 19.843 2.215 41.075 17.558 56.418 16.826 16.826 40.735 22.231 62.126 16.246 5.985-21.392.58-45.301-16.245-62.126-4.238-4.238-8.924-7.749-13.906-10.538z" fill="#bbec6c"/></g><g><path d="m458.056 276.967h-49.532c-.119.656-.229 1.314-.329 1.974 15.681.422 31.233 6.606 43.201 18.574 14.835 14.835 20.786 35.177 17.886 54.444 6.364.172 12.749-.601 18.925-2.329 5.985-21.392.58-45.301-16.245-62.126-4.238-4.237-8.924-7.748-13.906-10.537z" fill="#a2e62e"/></g></g><g fill="#d88a55"><path d="m233.95 244.281h-98.401l8.263 8.263c6.25 6.25 6.25 16.384 0 22.634l-2.789 2.789h87.455l-2.789-2.789c-6.25-6.25-6.25-16.384 0-22.634z"/><path d="m50.004 244.281h-32.504c-5.523 0-10 4.477-10 10v13.686c0 5.523 4.477 10 10 10h32.504z"/><path d="m494.5 244.281h-215.282l-19.579 19.579 14.107 14.106h35.569l52.619 52.619c3.905 3.905 10.237 3.905 14.142 0l9.677-9.677c3.905-3.905 3.905-10.237 0-14.142l-28.799-28.799h137.546c5.523 0 10-4.477 10-10v-13.686c0-5.522-4.477-10-10-10z"/></g><g><g><path d="m494.5 244.282h-40.5c5.523 0 10 4.477 10 10v13.686c0 5.523-4.477 10-10 10h40.5c5.523 0 10-4.477 10-10v-13.686c0-5.523-4.477-10-10-10z" fill="#c57a44"/></g></g><path d="m306.733 244.281v-154.415h-130.367c-68.387 0-124.078 54.328-126.286 122.179l-.076-.045v158.022c0 44.519 35.548 81.459 80.065 81.891 44.953.436 81.662-36.005 81.662-80.859v-12.339c0-31.305-25.469-56.773-56.773-56.773-28.323 0-51.413 22.835-51.826 51.062-.13 8.889 6.982 16.704 15.873 16.773 9.088.07 16.441-7.435 16.121-16.578-.288-8.23 4.566-15.882 12.473-18.181 16.784-4.879 32.123 7.651 32.123 23.696v11.519c0 26.751-21.163 49.158-47.91 49.666-27.369.52-49.799-21.593-49.799-48.845v-41.054c0-7.146 1.129-14.177 3.26-20.871.295.35.598.696.927 1.026 6.25 6.25 16.384 6.25 22.634 0l34.977-34.977c6.25-6.25 6.25-16.384 0-22.634l-8.263-8.263h98.401l-8.263 8.263c-6.25 6.25-6.25 16.384 0 22.634l34.977 34.977c6.25 6.25 16.384 6.25 22.634 0s6.25-16.384 0-22.634l-23.66-23.66 19.579-19.579h27.517z" fill="#a2e62e"/><g><path d="m354.152 60.084h-23.419c-13.807 0-25 11.193-25 25v159.198h110.869c17.191 0 31.127-13.936 31.127-31.127v-11.642h4.266c5.523 0 10-4.477 10-10v-23.585c.001-59.561-48.282-107.844-107.843-107.844z" fill="#bbec6c"/></g><g><path d="m354.152 60.084h-23.419c-2.073 0-4.086.257-6.012.733 53.64 6.225 95.279 51.801 95.279 107.11v23.585c0 5.523-4.477 10-10 10h-4.266v11.642c0 17.191-13.936 31.127-31.127 31.127h41.996c17.191 0 31.127-13.936 31.127-31.127v-11.642h4.266c5.523 0 10-4.477 10-10v-23.585c0-59.56-48.283-107.843-107.844-107.843z" fill="#a2e62e"/></g></g><g><g><circle cx="380.501" cy="139.5" fill="#fff" r="35.501"/></g><g><path d="m380.501 103.998c-3.656 0-7.182.554-10.5 1.58 14.481 4.477 25.001 17.97 25.001 33.922s-10.521 29.444-25.001 33.922c3.318 1.026 6.844 1.58 10.5 1.58 19.607 0 35.501-15.895 35.501-35.501s-15.894-35.503-35.501-35.503z" fill="#f2fbff"/></g></g><g><path d="m494.5 236.782h-47.375c5.074-6.536 8.105-14.731 8.105-23.627v-4.442c8.109-1.521 14.266-8.656 14.266-17.2v-23.585c0-63.601-51.743-115.343-115.344-115.343h-23.419c-17.005 0-30.991 13.13-32.378 29.782h-121.99c-73.812 0-133.862 60.05-133.862 133.862v20.554h-25.003c-9.649 0-17.5 7.851-17.5 17.5v13.686c0 9.649 7.851 17.5 17.5 17.5h25.004v37.531c0 4.142 3.358 7.5 7.5 7.5s7.5-3.358 7.5-7.5v-106.772c0-17.599 3.849-34.314 10.742-49.354v11.717c0 4.142 3.358 7.5 7.5 7.5s7.5-3.358 7.5-7.5v-36.146c6.995-8.81 15.209-16.612 24.389-23.141v36.696c0 4.142 3.358 7.5 7.5 7.5s7.5-3.358 7.5-7.5v-45.778c7.688-3.913 15.855-7.013 24.389-9.188v40.966c0 4.142 3.358 7.5 7.5 7.5s7.5-3.358 7.5-7.5v-43.766c4.703-.568 9.489-.868 14.343-.868h10.046v44.634c0 4.142 3.358 7.5 7.5 7.5s7.5-3.358 7.5-7.5v-44.634h24.387v44.634c0 4.142 3.358 7.5 7.5 7.5s7.5-3.358 7.5-7.5v-44.634h24.389v44.634c0 4.142 3.357 7.5 7.5 7.5s7.5-3.358 7.5-7.5v-44.634h18.044v72.634c0 4.142 3.357 7.5 7.5 7.5s7.5-3.358 7.5-7.5v-84.917c0-9.649 7.851-17.5 17.5-17.5h23.419c55.33 0 100.344 45.014 100.344 100.343v23.585c0 1.378-1.121 2.5-2.5 2.5h-106.996c-4.143 0-7.5 3.358-7.5 7.5s3.357 7.5 7.5 7.5h95.23v4.142c0 13.028-10.6 23.627-23.628 23.627h-103.369v-31.78c0-4.142-3.357-7.5-7.5-7.5s-7.5 3.358-7.5 7.5v31.782h-2.457c.6-2.46-.053-5.164-1.974-7.085-2.929-2.929-7.677-2.93-10.607 0l-28.861 28.861c-1.407 1.406-2.197 3.314-2.197 5.303s.79 3.897 2.197 5.303l23.66 23.66c1.606 1.606 2.491 3.742 2.491 6.014s-.885 4.407-2.491 6.014c-3.315 3.314-8.711 3.316-12.026 0l-34.977-34.977c-3.316-3.316-3.316-8.711 0-12.027l17.544-17.544c2.929-2.929 2.929-7.678 0-10.606-2.929-2.929-7.678-2.929-10.606 0l-7.085 7.085h-92.188l-7.085-7.085c-2.929-2.929-7.678-2.929-10.606 0-2.929 2.929-2.929 7.678 0 10.606l17.544 17.544c3.316 3.316 3.316 8.711 0 12.027l-34.977 34.977c-3.316 3.315-8.711 3.315-12.027 0-1.606-1.606-2.491-3.742-2.491-6.014s.885-4.407 2.491-6.014l23.66-23.66c2.929-2.929 2.929-7.678 0-10.606l-28.861-28.861c-2.929-2.929-7.678-2.929-10.606 0-2.929 2.929-2.929 7.678 0 10.606l23.558 23.558-18.357 18.357c-4.439 4.439-6.884 10.342-6.884 16.62 0 4.144 1.071 8.121 3.072 11.625-1.701 6.4-2.572 12.954-2.572 19.537v41.053c0 15.234 6.003 29.515 16.905 40.211 10.897 10.692 25.291 16.442 40.537 16.132 30.475-.579 55.268-26.222 55.268-57.164v-11.519c0-10.088-4.831-19.738-12.924-25.813-8.21-6.164-18.705-8.018-28.792-5.085-10.942 3.181-18.293 13.726-17.876 25.645.083 2.348-.771 4.564-2.402 6.242-1.634 1.678-3.847 2.599-6.165 2.574-2.119-.016-4.162-.921-5.753-2.549-1.737-1.777-2.713-4.188-2.678-6.615.352-24.081 20.237-43.671 44.327-43.671 27.169 0 49.273 22.104 49.273 49.272v12.339c0 19.696-7.731 38.2-21.769 52.103-14.035 13.899-32.576 21.478-52.32 21.257-40.053-.389-72.638-33.761-72.638-74.392v-12.02c0-4.142-3.358-7.5-7.5-7.5s-7.5 3.358-7.5 7.5v12.021c0 48.822 39.249 88.922 87.493 89.391.294.003.586.004.88.004 23.41 0 45.449-9.073 62.141-25.603 16.904-16.741 26.214-39.03 26.214-62.76v-12.339c0-35.44-28.833-64.272-64.273-64.272-9.201 0-17.94 2.143-25.748 5.944l14.918-14.918h81.242l29.99 29.991c4.439 4.439 10.341 6.884 16.621 6.884 1.138 0 2.264-.083 3.371-.241-1.013.902-2.006 1.833-2.973 2.799-18.12 18.121-25.08 44.732-18.164 69.451.706 2.523 2.678 4.496 5.202 5.202 6.318 1.768 12.758 2.628 19.15 2.628 18.615 0 36.811-7.305 50.299-20.793 14.026-14.025 21.349-33.136 20.74-52.52l7.021 7.022c3.306 3.305 7.7 5.125 12.375 5.125s9.069-1.82 12.375-5.125l9.677-9.677c6.823-6.823 6.823-17.925 0-24.749l-15.996-15.996h25.015c-.637 14.832 3.34 29.475 11.575 41.991 2.276 3.46 6.928 4.419 10.389 2.143 3.46-2.277 4.419-6.928 2.143-10.388-6.319-9.602-9.471-20.797-9.176-32.176l31.52 31.52c1.465 1.464 3.385 2.197 5.304 2.197s3.839-.732 5.304-2.197c2.929-2.929 2.929-7.678 0-10.606l-22.483-22.483h22.969c3.247 2.12 6.281 4.583 9.038 7.34 13.275 13.274 18.956 32.329 15.33 50.603-11.555 2.293-23.597.912-34.336-4.008-3.767-1.726-8.218-.071-9.942 3.695-1.726 3.766-.071 8.217 3.694 9.942 9.344 4.28 19.458 6.448 29.618 6.448 6.446 0 12.912-.874 19.206-2.634 2.523-.706 4.496-2.678 5.202-5.202 6.512-23.273.718-48.222-15.106-66.184h14.173c9.649 0 17.5-7.851 17.5-17.5v-13.686c0-9.652-7.851-17.502-17.5-17.502zm-451.996 33.685h-25.004c-1.378 0-2.5-1.122-2.5-2.5v-13.686c0-1.378 1.122-2.5 2.5-2.5h25.004zm76.443 106.809c6.454.068 12.519-2.477 17.031-7.114 4.51-4.636 6.87-10.754 6.643-17.227-.177-5.048 2.731-9.455 7.072-10.716 5.594-1.625 11.134-.675 15.6 2.678 4.404 3.306 6.929 8.342 6.929 13.817v11.519c0 22.826-18.192 41.742-40.553 42.167-11.183.207-21.747-3.994-29.746-11.842-8.003-7.853-12.41-18.331-12.41-29.505v-41.053c0-2.955.224-5.904.655-8.831 2.341.768 4.814 1.173 7.349 1.173 2.832 0 5.586-.502 8.165-1.455-6.183 9.202-9.876 20.197-10.049 32.007-.094 6.394 2.44 12.707 6.952 17.321 4.407 4.506 10.217 7.014 16.362 7.061zm95.494-106.809h-59.383c.617-2.119.941-4.338.941-6.606 0-4.323-1.159-8.467-3.331-12.079h64.162c-2.171 3.612-3.331 7.756-3.331 12.079.001 2.269.325 4.487.942 6.606zm103.82 100.314c-13.274 13.274-32.331 18.955-50.603 15.329-3.627-18.274 2.055-37.329 15.329-50.603 10.966-10.966 25.878-16.73 41.034-16.367l-31.509 31.51c-2.929 2.929-2.929 7.678 0 10.606 1.465 1.464 3.385 2.197 5.304 2.197s3.839-.732 5.304-2.197l31.509-31.51c.364 15.158-5.402 30.069-16.368 41.035zm-26.949-85.314h14.896l18.693 18.693c-11.348-.356-22.602 2-32.797 6.836 2.202-3.631 3.381-7.804 3.381-12.159 0-4.848-1.464-9.47-4.173-13.37zm205.688-17.5c0 1.378-1.121 2.5-2.5 2.5h-137.547c-3.033 0-5.769 1.827-6.929 4.63-1.161 2.802-.52 6.028 1.625 8.173l28.799 28.799c.976.975.976 2.561 0 3.536l-9.677 9.677c-.975.975-2.561.975-3.535 0l-52.618-52.619c-1.407-1.407-3.314-2.197-5.304-2.197h-32.464l-6.607-6.606 12.08-12.079h212.177c1.379 0 2.5 1.122 2.5 2.5z"/><path d="m380.502 182.501c23.711 0 43.001-19.291 43.001-43.001s-19.29-43.001-43.001-43.001-43.002 19.29-43.002 43.001 19.291 43.001 43.002 43.001zm0-71.002c15.439 0 28.001 12.562 28.001 28.001s-12.562 28.001-28.001 28.001c-15.44 0-28.002-12.562-28.002-28.001s12.562-28.001 28.002-28.001z"/><path d="m380.502 154.417c8.225 0 14.916-6.691 14.916-14.917s-6.691-14.917-14.916-14.917c-8.226 0-14.917 6.692-14.917 14.917s6.691 14.917 14.917 14.917zm-.002-15c.051.003.082.034.085.082-.003.051-.033.082-.081.085-.051-.002-.082-.033-.086-.083.004-.051.034-.082.082-.084z"/></g></g></svg>