<svg id="Capa_1" enable-background="new 0 0 512 512" height="512" viewBox="0 0 512 512" width="512" xmlns="http://www.w3.org/2000/svg"><g><path d="m308.265 244.928v-160.076h-134.302c-71.894 0-130.176 58.282-130.176 130.176v28.901l2.213 1h262.265z" fill="#a2e62e"/><path d="m308.265 244.928v-160.076h-134.302c-71.894 0-130.176 58.282-130.176 130.176v28.901l2.213 1h262.265z" fill="#a2e62e"/><path d="m415.76 244.928 5.69-1c17.71 0 32.067-14.357 32.067-32.067v-11.994h4.395c5.69 0 10.302-4.612 10.302-10.302v-24.297c0-61.358-49.74-111.098-111.098-111.098h-24.126c-14.224 0-25.755 11.531-25.755 25.755v165.003z" fill="#bbec6c"/><g fill="#a2e62e"><path d="m410.253 207.368v4.494c0 17.71-14.357 32.067-32.067 32.067h43.263c17.71 0 32.067-14.357 32.067-32.067v-4.494z"/><path d="m357.115 54.17h-24.126c-2.136 0-4.209.265-6.194.755 29.261 3.396 55.054 18.161 72.849 39.762 16.737 6.256 28.688 22.405 28.688 41.297 0 6.477-1.416 12.626-3.937 18.171.363 3.656.554 7.362.554 11.114v24.297c0 .973-.144 1.91-.396 2.802h43.263c.252-.892.396-1.829.396-2.802v-24.297c.001-61.358-49.739-111.099-111.097-111.099z"/></g><g><path d="m347.687 192.368c-4.143 0-7.5 3.358-7.5 7.5s3.357 7.5 7.5 7.5h105.83v-7.5h4.395c4.717 0 8.684-3.174 9.906-7.5z" fill="#97d729"/></g><g><g><circle cx="384.259" cy="135.984" fill="#fff" r="36.573"/></g><g><path d="m384.259 99.411c-3.766 0-7.398.571-10.817 1.628 14.918 4.612 25.756 18.513 25.756 34.945s-10.838 30.333-25.756 34.945c3.419 1.057 7.051 1.628 10.817 1.628 20.199 0 36.573-16.374 36.573-36.573s-16.374-36.573-36.573-36.573z" fill="#f2fbff"/></g><g><path d="m384.259 180.057c-24.302 0-44.072-19.771-44.072-44.073s19.771-44.073 44.072-44.073 44.073 19.771 44.073 44.073-19.771 44.073-44.073 44.073zm0-73.146c-16.03 0-29.072 13.042-29.072 29.073s13.042 29.073 29.072 29.073c16.031 0 29.073-13.042 29.073-29.073s-13.042-29.073-29.073-29.073z" fill="#97d729"/></g></g><path d="m384.259 151.125c-8.349 0-15.141-6.792-15.141-15.141s6.792-15.141 15.141-15.141 15.141 6.792 15.141 15.141-6.793 15.141-15.141 15.141zm0-15.282c-.077 0-.141.063-.141.141 0 .155.281.155.281 0 0-.078-.063-.141-.14-.141z" fill="#7a6d79"/><g><g><path d="m342.339 315.707c-22.037-6.166-46.668-.598-64.001 16.736-17.334 17.334-22.902 41.964-16.736 64.001 22.037 6.166 46.668.598 64.001-16.736s22.902-41.963 16.736-64.001z" fill="#bbec6c"/></g><g><path d="m304.381 364.273c-1.426 1.425-3.283 2.151-5.15 2.189-11.698 9.306-25.836 14.036-40.021 14.179.155 5.325.947 10.635 2.393 15.803 22.037 6.166 46.668.598 64.001-16.736 15.058-15.058 21.232-35.623 18.552-55.211z" fill="#a2e62e"/></g><path d="m340.573 306.866-46.8 46.8c-2.929 2.929-2.929 7.678 0 10.606 1.465 1.464 3.385 2.197 5.304 2.197s3.839-.732 5.304-2.197l46.799-46.8z" fill="#97d729"/></g><g><g><path d="m464.154 277.6h-51.028c-3.736 20.442 2.281 42.315 18.088 58.12 17.334 17.334 41.964 22.902 64.001 16.736 6.166-22.037.598-46.668-16.736-64.001-4.365-4.365-9.193-7.982-14.325-10.855z" fill="#bbec6c"/></g><path d="m478.479 288.455c-4.365-4.365-9.193-7.982-14.326-10.855l-33.158.03 8.46 8.46c6.446 3.108 12.49 7.33 17.838 12.678 15.283 15.283 21.414 36.238 18.426 56.087 6.556.177 13.134-.619 19.496-2.399 6.166-22.037.598-46.667-16.736-64.001z" fill="#a2e62e"/><path d="m430.996 277.63h-21.214l42.655 42.655c1.465 1.464 3.385 2.197 5.304 2.197s3.839-.732 5.304-2.197c2.929-2.929 2.929-7.678 0-10.606z" fill="#97d729"/></g><path d="m501.698 243.928h-491.396c-5.69 0-10.302 4.612-10.302 10.302v14.099c0 5.69 4.612 10.302 10.302 10.302h300.621l54.207 54.207c4.023 4.023 10.546 4.023 14.569 0l9.969-9.969c4.023-4.023 4.023-10.546 0-14.569l-29.668-29.67h141.699c5.69 0 10.302-4.612 10.302-10.302v-14.098c-.001-5.69-4.613-10.302-10.303-10.302z" fill="#d88a55"/><g><g><path d="m501.698 243.928h-41.722c5.69 0 10.302 4.612 10.302 10.302v14.099c0 5.689-4.612 10.302-10.302 10.302h41.722c5.69 0 10.302-4.612 10.302-10.302v-14.099c0-5.69-4.612-10.302-10.302-10.302z" fill="#c57a44"/></g></g><path d="m151.908 303.328c-29.178 0-52.965 23.525-53.39 52.604-.134 9.158 7.193 17.208 16.352 17.279 9.362.072 16.937-7.66 16.607-17.079-.297-8.478 4.704-16.361 12.85-18.729 17.29-5.026 33.093 7.882 33.093 24.412v11.867c0 27.559-21.802 50.641-49.356 51.165-28.195.535-51.302-22.244-51.302-50.32v-42.292c0-7.769 1.282-15.411 3.721-22.646-4.723-6.12-4.111-14.997 1.63-20.737l24.752-24.752-13.335-13.335c-2.234-2.235-3.675-4.949-4.267-7.835h-45.476v130.535c0 45.863 36.621 83.917 82.482 84.363 46.309.449 84.126-37.092 84.126-83.3v-12.712c0-32.251-26.237-58.488-58.487-58.488z" fill="#a2e62e"/><g><g><path d="m104.48 223.324c-14.689 0-22.045 17.759-11.658 28.146l12.628 12.628-24.045 24.045c-6.277 6.277-6.855 16.503-.88 23.069 6.38 7.01 17.242 7.203 23.867.577l36.033-36.032c6.439-6.439 6.439-16.878 0-23.317l-24.287-24.287c-3.091-3.092-7.285-4.829-11.658-4.829z" fill="#97d729"/></g></g><g fill="#97d729"><path d="m259.748 262.816 11.346-11.346c10.387-10.387 3.03-28.146-11.658-28.146-4.373 0-8.566 1.737-11.658 4.829l-23.004 23.005c-6.439 6.439-6.439 16.878 0 23.317l35.703 35.703c6.278 6.277 16.503 6.855 23.069.88 7.01-6.38 7.203-17.242.577-23.867z"/><g><path d="m192.038 146.06c4.142 0 7.5-3.358 7.5-7.5v-53.708h-15v53.708c0 4.142 3.358 7.5 7.5 7.5z"/><path d="m151.46 146.06c4.142 0 7.5-3.358 7.5-7.5v-52.843c-5.095.585-10.101 1.46-15 2.615v50.227c0 4.143 3.358 7.501 7.5 7.501z"/><path d="m110.883 160.482c4.142 0 7.5-3.358 7.5-7.5v-55.694c-5.198 2.458-10.208 5.247-15 8.345v47.348c0 4.143 3.358 7.501 7.5 7.501z"/><path d="m232.615 146.06c4.142 0 7.5-3.358 7.5-7.5v-53.708h-15v53.708c0 4.142 3.358 7.5 7.5 7.5z"/><path d="m265.692 84.852v53.708c0 4.142 3.357 7.5 7.5 7.5s7.5-3.358 7.5-7.5v-53.708z"/><path d="m70.306 183.754c4.142 0 7.5-3.358 7.5-7.5v-48.97c-5.61 6.145-10.639 12.829-15 19.966v29.005c0 4.141 3.358 7.499 7.5 7.499z"/></g></g></g></svg>