<svg id="Capa_1" enable-background="new 0 0 512 512" height="512" viewBox="0 0 512 512" width="512" xmlns="http://www.w3.org/2000/svg"><g><g><path d="m418.721 359.351c-5.846 6.808-12.197 13.22-19.049 19.148l-.838.725 18.851 18.85c1.683 1.683 2.851 3.686 3.523 5.813 5.631 2.437 12.417 1.367 17.019-3.235 6.018-6.018 6.018-15.776 0-21.794z" fill="#918291"/></g><g><path d="m114.454 335.857c-15.025-17.742-24.091-40.692-24.091-65.762 0-26.009 9.755-49.737 25.801-67.733 2.053-2.302.102-5.902-2.949-5.447-22.036 3.286-41.756 13.644-56.808 28.675-3.803-1.149-7.949-1.508-12.255-.85-12.25 1.872-21.843 11.997-23.092 24.326-.645 6.37.889 12.351 3.941 17.296-14.017 1.272-25.001 13.05-25.001 27.399 0 11.629 7.216 21.565 17.412 25.595-3.332 4.552-5.303 10.162-5.303 16.235 0 15.199 12.321 27.52 27.52 27.52.369 0 .736-.013 1.101-.028 0 .009-.001.019-.001.028 0 15.199 12.321 27.52 27.52 27.52 4.495 0 8.734-1.084 12.481-2.995 14.209 7.53 30.409 11.802 47.61 11.802 4.717 0 9.357-.328 13.903-.949-16.732-15.78-27.321-37.984-27.789-62.632z" fill="#f3f0f3"/></g><g><path d="m114.454 335.857c-15.025-17.742-24.091-40.692-24.091-65.762 0-26.008 9.754-49.736 25.801-67.732 2.049-2.298.107-5.903-2.938-5.448-12.523 1.868-24.296 6.022-34.892 12.016-12.818 17.03-20.421 38.207-20.421 61.164 0 25.07 9.066 48.02 24.091 65.762.459 24.172 10.655 45.987 26.828 61.703 6.315 1.227 12.835 1.877 19.508 1.877 4.717 0 9.357-.328 13.903-.949-16.732-15.779-27.321-37.983-27.789-62.631z" fill="#e2dee2"/></g><g><path d="m373.819 157.585.245 1.089 1.065-.331c11.859-3.684 24.391-5.552 37.249-5.552 10.995 0 21.574 1.376 31.458 3.911 5.028-6.505 8.958-14.596 10.4-24.598 5.626-39.038-69.098-79.719-84.64 11.09 1.575 4.219 3.003 8.978 4.223 14.391z" fill="#918291"/></g><g><g><path d="m397.481 92.398c15.135 7.362 26.387 23.668 24.076 39.705-1.168 8.108-3.988 14.941-7.687 20.711 10.458.119 20.531 1.468 29.966 3.888 5.028-6.505 8.958-14.596 10.4-24.598 3.857-26.762-30.044-54.287-56.755-39.706z" fill="#7a6d79"/></g></g><g><path d="m412.379 151.76c-13.29 0-25.963 1.997-37.555 5.598-18.021-79.933-84.939-39.061-83.078-3.021 1.152 22.315 16.788 35.076 29.939 41.91-4.403 7.366-7.309 15.361-8.419 23.761h-85.734c-63.044 0-114.151 51.107-114.151 114.151 0 49.427 40.068 89.494 89.494 89.494h121.856c6.365 0 11.826-3.859 14.177-9.365 12.743-4.255 24.869-9.856 36.185-16.675l21.525 21.525c6.018 6.018 15.776 6.018 21.794 0 6.018-6.018 6.018-15.776 0-21.794l-18.067-18.067c25.188-21.793 44.348-50.367 54.63-82.889 33.709-12.174 57.025-38.346 57.025-68.674 0-41.948-44.602-75.954-99.621-75.954z" fill="#cbc4cc"/></g><g><path d="m412.379 151.76c-13.29 0-25.963 1.997-37.555 5.598-18.021-79.933-84.939-39.061-83.078-3.021 1.152 22.315 16.788 35.076 29.939 41.91-4.403 7.366-7.309 15.361-8.419 23.761h-85.734c-63.044 0-114.151 51.107-114.151 114.151 0 49.427 40.068 89.494 89.494 89.494h121.856c6.365 0 11.826-3.859 14.177-9.365 12.743-4.255 24.869-9.856 36.185-16.675l21.525 21.525c6.018 6.018 15.776 6.018 21.794 0 6.018-6.018 6.018-15.776 0-21.794l-18.067-18.067c25.188-21.793 44.348-50.367 54.63-82.889 33.709-12.174 57.025-38.346 57.025-68.674 0-41.948-44.602-75.954-99.621-75.954z" fill="#cbc4cc"/></g><g><path d="m421.53 152.082c28.583 13.351 47.656 37.382 47.656 64.812 0 28.811-14.944 47.774-45.339 60.037-3.043 1.228-5.33 3.809-6.13 6.992-14.641 58.243-54.569 87.502-96.294 108.91h2.877c8.624 0 15.989 7.056 15.841 15.678-.035 2.059-.477 4.018-1.244 5.804 12.838-4.285 25.029-9.975 36.417-16.86l-.22.16 21.525 21.525c6.018 6.018 15.776 6.018 21.794 0 6.018-6.018 6.018-15.776 0-21.794l-18.067-18.067-.103.075c25.236-21.802 44.437-50.4 54.733-82.963 33.708-12.177 57.024-38.349 57.024-68.677 0-39.595-39.741-72.108-90.47-75.632z" fill="#b5adb6"/></g><g><path d="m402.286 248.044h-11.332c-4.142 0-7.5-3.358-7.5-7.5s3.358-7.5 7.5-7.5h11.332c4.142 0 7.5 3.358 7.5 7.5s-3.358 7.5-7.5 7.5z" fill="#7a6d79"/></g><g><path d="m403.544 277.919c-1.919 0-3.839-.732-5.303-2.197-2.929-2.929-2.929-7.678 0-10.606l8.013-8.013c2.929-2.929 7.678-2.929 10.606 0 2.929 2.929 2.929 7.678 0 10.606l-8.013 8.013c-1.464 1.465-3.383 2.197-5.303 2.197z" fill="#7a6d79"/></g><g><path d="m354.202 190.528c-8.377-55.357-36.955-63.403-58.715-52.989-2.629 5.398-4.032 11.157-3.741 16.799 1.745 33.779 36.679 45.675 45.939 48.241 1.393.386 2.876.168 4.102-.599l10.053-6.288c1.747-1.093 2.67-3.127 2.362-5.164z" fill="#f3f0f3"/></g><g><path d="m354.202 190.528c-8.377-55.357-36.955-63.403-58.715-52.989-1.326 2.723-2.338 5.539-2.98 8.385 18.872-1.793 38.792 12.056 45.557 56.719 1.281.254 2.608.036 3.724-.662l10.053-6.288c1.746-1.094 2.669-3.128 2.361-5.165z" fill="#e2dee2"/></g><g><path d="m340.143 408.243c0-8.511-6.9-15.411-15.411-15.411h-20.915v-18.527c0-32.324-26.204-58.528-58.528-58.528h-130.427c-.969 5.985-1.481 12.123-1.481 18.382 0 49.425 40.065 89.492 89.49 89.494h121.861c8.511.001 15.411-6.899 15.411-15.41z" fill="#b5adb6"/></g><g><path d="m324.732 392.832h-20.915v-18.527c0-32.324-26.204-58.528-58.528-58.528h-31.143c32.324 0 58.528 26.204 58.528 58.528v49.349h52.058c8.511 0 15.411-6.9 15.411-15.411s-6.9-15.411-15.411-15.411z" fill="#a79ba7"/></g><g><path d="m427.104 216.516c-4.142 0-7.5-3.358-7.5-7.5v-11.022c0-4.142 3.358-7.5 7.5-7.5s7.5 3.358 7.5 7.5v11.022c0 4.142-3.357 7.5-7.5 7.5z" fill="#7a6d79"/></g><g><path d="m481.766 231.462c0 7.568 6.192 13.76 13.76 13.76h13.799c1.74-5.622 2.675-11.481 2.675-17.508 0-3.394-.297-6.735-.862-10.012h-15.611c-7.569 0-13.761 6.192-13.761 13.76z" fill="#7a6d79"/></g></g></svg>