<svg id="Capa_1" enable-background="new 0 0 512 512" height="512" viewBox="0 0 512 512" width="512" xmlns="http://www.w3.org/2000/svg"><g><g><path d="m413.953 356.317c-5.675 6.608-11.84 12.832-18.491 18.587l-.813.704 18.298 18.298c1.634 1.634 2.767 3.578 3.42 5.643 5.466 2.366 12.053 1.327 16.521-3.141 5.842-5.842 5.842-15.314 0-21.156z" fill="#918291"/></g><g><path d="m118.601 333.511c-14.585-17.222-23.385-39.499-23.385-63.835 0-28.361 11.949-53.929 31.083-71.953-24.968 1.44-47.434 12.165-64.044 28.752-2.45-.74-5.047-1.143-7.739-1.143-14.753 0-26.713 11.96-26.713 26.713 0 5.138 1.453 9.934 3.967 14.007-13.608 1.234-24.27 12.668-24.27 26.597 0 11.288 7.005 20.933 16.902 24.845-3.234 4.418-5.148 9.864-5.148 15.759 0 14.753 11.96 26.713 26.713 26.713.359 0 .714-.013 1.069-.027 0 .009-.001.018-.001.027 0 14.753 11.96 26.713 26.713 26.713 4.363 0 8.478-1.053 12.115-2.908 13.792 7.31 29.519 11.456 46.215 11.456 4.579 0 9.083-.318 13.496-.921-16.24-15.316-26.519-36.869-26.973-60.795z" fill="#f3f0f3"/></g><g><path d="m118.601 333.511c-14.585-17.222-23.385-39.499-23.385-63.835 0-28.361 11.949-53.929 31.083-71.953-15.483.893-30.001 5.363-42.76 12.581-12.443 16.531-19.823 37.088-19.823 59.372 0 24.336 8.8 46.613 23.385 63.835.445 23.463 10.343 44.64 26.042 59.895 6.13 1.191 12.459 1.822 18.937 1.822 4.579 0 9.083-.318 13.496-.921-16.242-15.317-26.521-36.87-26.975-60.796z" fill="#e2dee2"/></g><g><path d="m370.367 160.461.238 1.057 1.034-.321c11.511-3.576 23.676-5.389 36.158-5.389 10.673 0 20.942 1.336 30.536 3.797 4.881-6.315 8.696-14.169 10.095-23.878 5.461-37.894-67.074-77.383-82.16 10.765 1.529 4.095 2.915 8.715 4.099 13.969z" fill="#918291"/></g><g><g><path d="m393.336 97.185c14.692 7.146 25.614 22.974 23.371 38.542-1.134 7.87-3.871 14.503-7.461 20.104 10.152.116 19.93 1.425 29.088 3.774 4.881-6.315 8.696-14.169 10.095-23.878 3.743-25.977-29.164-52.697-55.093-38.542z" fill="#7a6d79"/></g></g><g><path d="m407.798 154.808c-12.9 0-25.202 1.939-36.455 5.434-17.493-77.591-82.451-37.917-80.644-2.932 1.119 21.661 16.296 34.049 29.061 40.683-4.274 7.15-7.095 14.911-8.173 23.065h-83.222c-61.197 0-110.806 49.61-110.806 110.806 0 47.978 38.894 86.873 86.872 86.873h118.286c6.178 0 11.479-3.746 13.762-9.09 12.37-4.13 24.141-9.567 35.124-16.186l20.895 20.895c5.842 5.842 15.314 5.842 21.156 0 5.842-5.842 5.842-15.314 0-21.156l-17.538-17.538c24.45-21.154 43.048-48.891 53.029-80.46 32.721-11.819 55.354-37.224 55.354-66.663.001-40.722-43.294-73.731-96.701-73.731z" fill="#cbc4cc"/></g><g><path d="m407.798 154.808c-12.9 0-25.202 1.939-36.455 5.434-17.493-77.591-82.451-37.917-80.644-2.932 1.119 21.661 16.296 34.049 29.061 40.683-4.274 7.15-7.095 14.911-8.173 23.065h-83.222c-61.197 0-110.806 49.61-110.806 110.806 0 47.978 38.894 86.873 86.872 86.873h118.286c6.178 0 11.479-3.746 13.762-9.09 12.37-4.13 24.141-9.567 35.124-16.186l20.895 20.895c5.842 5.842 15.314 5.842 21.156 0 5.842-5.842 5.842-15.314 0-21.156l-17.538-17.538c24.45-21.154 43.048-48.891 53.029-80.46 32.721-11.819 55.354-37.224 55.354-66.663.001-40.722-43.294-73.731-96.701-73.731z" fill="#cbc4cc"/></g><g><path d="m416.681 155.12c27.746 12.96 46.26 36.287 46.26 62.913 0 27.967-14.506 46.374-44.011 58.278-2.954 1.192-5.174 3.698-5.951 6.787-14.212 56.537-52.97 84.939-93.473 105.719h2.792c8.371 0 15.52 6.849 15.377 15.219-.034 1.999-.463 3.9-1.208 5.634 12.462-4.159 24.296-9.683 35.35-16.366l-.214.155 20.895 20.895c5.842 5.842 15.314 5.842 21.156 0 5.842-5.842 5.842-15.314 0-21.156l-17.538-17.538-.1.073c24.497-21.163 43.135-48.924 53.129-80.533 32.721-11.819 55.354-37.224 55.354-66.663.001-38.436-38.576-69.997-87.818-73.417z" fill="#b5adb6"/></g><g><path d="m351.325 192.439c-8.131-53.735-35.872-61.545-56.995-51.437-2.552 5.24-3.914 10.83-3.631 16.307 1.693 32.789 35.604 44.337 44.593 46.828 1.352.375 2.792.163 3.982-.581l9.759-6.104c1.695-1.061 2.591-3.035 2.292-5.013z" fill="#f3f0f3"/></g><g><path d="m351.325 192.439c-8.131-53.735-35.872-61.545-56.995-51.437-1.288 2.644-2.27 5.377-2.893 8.139 18.319-1.741 37.655 11.702 44.222 55.057 1.243.246 2.532.035 3.615-.643l9.759-6.104c1.695-1.06 2.591-3.034 2.292-5.012z" fill="#e2dee2"/></g><g><path d="m475.152 232.175c0 7.346 6.01 13.357 13.357 13.357h13.395c1.689-5.457 2.597-11.144 2.597-16.995 0-3.295-.288-6.538-.837-9.719h-15.154c-7.347 0-13.358 6.01-13.358 13.357z" fill="#7a6d79"/></g><g><path d="m207 411.236h-2.568c-43.766 0-79.373-35.606-79.373-79.373 0-56.963 46.343-103.306 103.306-103.306h16.635c4.142 0 7.5-3.358 7.5-7.5s-3.358-7.5-7.5-7.5h-16.635c-57.763 0-105.981 41.613-116.271 96.434-4.327-8.778-7.234-18.221-8.552-27.999-.553-4.104-4.328-6.982-8.434-6.431-4.105.553-6.984 4.329-6.431 8.434 2.504 18.582 9.907 36.135 21.438 50.946.634 19.671 7.315 37.837 18.243 52.701-13.605-.558-27.009-4.152-38.981-10.497-2.16-1.145-4.744-1.165-6.92-.054-2.717 1.386-5.647 2.089-8.707 2.089-10.568 0-19.17-8.577-19.213-19.135 0-.036.001-.071.001-.106 0-2.041-.832-3.994-2.303-5.408-1.472-1.414-3.456-2.165-5.495-2.086-.256.01-.513.021-.771.021-10.594 0-19.213-8.619-19.213-19.213 0-4.105 1.279-8.023 3.7-11.329 1.373-1.875 1.798-4.28 1.154-6.512-.645-2.232-2.288-4.039-4.449-4.894-7.389-2.919-12.161-9.933-12.161-17.869 0-10.002 7.5-18.225 17.447-19.128 2.587-.235 4.868-1.792 6.03-4.115s1.039-5.083-.326-7.293c-1.864-3.02-2.849-6.501-2.849-10.068 0-10.594 8.619-19.213 19.213-19.213 1.89 0 3.764.276 5.57.822 2.642.797 5.513.079 7.468-1.873 11.085-11.069 24.681-19.011 39.466-23.232-7.979 11.329-13.665 24.124-16.729 37.806-.905 4.042 1.638 8.052 5.68 8.958s8.052-1.638 8.958-5.68c3.987-17.805 13.155-33.868 26.512-46.452 2.295-2.162 2.993-5.529 1.746-8.425-1.248-2.897-4.193-4.718-7.321-4.521-24.573 1.418-47.811 11.334-65.893 28.033-1.801-.29-3.625-.437-5.458-.437-18.865 0-34.213 15.348-34.213 34.213 0 2.998.392 5.962 1.155 8.824-12.717 5.044-21.456 17.377-21.456 31.781 0 11.258 5.392 21.475 14.232 27.792-1.634 4.035-2.479 8.362-2.479 12.812 0 16.921 12.348 31.013 28.506 33.737 3.249 15.508 17.03 27.19 33.489 27.19 4.041 0 8.078-.729 11.864-2.126 14.393 6.992 30.379 10.674 46.467 10.674 3.201 0 6.421-.147 9.612-.433 16.688 14.881 38.674 23.941 62.74 23.941h2.569c4.142 0 7.5-3.358 7.5-7.5s-3.358-7.5-7.5-7.5z"/><path d="m398 233.491h-11c-4.142 0-7.5 3.358-7.5 7.5s3.358 7.5 7.5 7.5h11c4.142 0 7.5-3.358 7.5-7.5s-3.358-7.5-7.5-7.5z"/><path d="m393.918 264.687c-2.929 2.929-2.929 7.678 0 10.606 1.464 1.464 3.384 2.197 5.303 2.197s3.839-.732 5.303-2.197l7.778-7.778c2.929-2.929 2.929-7.678 0-10.606-2.929-2.929-7.678-2.929-10.606 0z"/><path d="m429.592 210.386v-10.7c0-4.142-3.358-7.5-7.5-7.5s-7.5 3.358-7.5 7.5v10.7c0 4.142 3.358 7.5 7.5 7.5s7.5-3.358 7.5-7.5z"/><path d="m480.724 170.438c-8.937-6.814-19.206-12.21-30.333-16.083 2.719-5.476 4.565-11.343 5.461-17.558 3.231-22.424-15.986-46.483-40.32-50.477-12.532-2.057-24.714 1.64-34.305 10.408-7.274 6.651-13.012 16.024-17.166 27.955-1.925-2.484-3.988-4.717-6.193-6.677-8.879-7.889-19.681-11.219-31.239-9.63-23.888 3.285-44.583 26.793-43.42 49.321.918 17.777 10.059 32.579 26.556 43.173-1.909 4.126-3.382 8.365-4.41 12.688h-25.355c-4.142 0-7.5 3.358-7.5 7.5s3.358 7.5 7.5 7.5h31.587c3.762 0 6.942-2.788 7.436-6.517.641-4.853 2.02-9.612 4.079-14.222 4.353 1.812 8.016 2.945 10.186 3.546 1.091.302 2.21.451 3.325.451 2.326 0 4.634-.648 6.638-1.901l9.758-6.104c4.229-2.645 6.479-7.548 5.731-12.493-3.066-20.265-10.918-46.645-30.91-57.234-4.602-2.438-9.529-3.854-14.611-4.257 4.649-3.429 9.99-5.84 15.453-6.591 16.658-2.288 29.217 11.437 35.354 38.656.46 2.042 1.752 3.798 3.564 4.845 1.811 1.046 3.979 1.288 5.977.668 10.886-3.382 22.403-5.097 34.229-5.097 41.167 0 75.903 20.814 86.139 49.01h-5.427c-11.5 0-20.857 9.356-20.857 20.857s9.356 20.856 20.857 20.856h2.047c-8.177 15.064-23.69 27.794-43.958 35.115-2.197.794-3.899 2.566-4.603 4.793-9.427 29.817-26.989 56.46-50.786 77.049-1.575 1.363-2.513 3.32-2.588 5.401s.719 4.101 2.192 5.574l17.538 17.538c2.908 2.908 2.908 7.641 0 10.549-1.409 1.409-3.282 2.185-5.275 2.185-1.992 0-3.865-.776-5.274-2.185l-20.895-20.895c-2.438-2.438-6.222-2.899-9.174-1.121-7.372 4.443-15.131 8.315-23.157 11.596-2.333-9.912-11.245-17.315-21.858-17.315h-12.802v-10.484c0-35.462-28.851-64.313-64.313-64.313h-29.738c-4.142 0-7.5 3.358-7.5 7.5s3.358 7.5 7.5 7.5h29.738c27.191 0 49.313 22.122 49.313 49.313v17.984c0 4.142 3.358 7.5 7.5 7.5h20.302c4.113 0 7.46 3.346 7.46 7.459s-3.347 7.459-7.46 7.459h-80.717c-4.142 0-7.5 3.358-7.5 7.5s3.358 7.5 7.5 7.5h80.718c7.973 0 14.984-4.18 18.971-10.459 9.936-3.498 19.556-7.828 28.691-12.935l16.815 16.816c4.242 4.242 9.882 6.579 15.881 6.579s11.639-2.336 15.882-6.579c3.274-3.274 5.322-7.317 6.148-11.552 4.857-.599 9.466-2.774 13.085-6.394 4.242-4.242 6.579-9.882 6.579-15.881s-2.336-11.639-6.579-15.881l-13.398-13.398c13.229-16.618 23.531-35.405 30.366-55.609 34.657-13.766 56.841-41.86 56.841-72.404 0-22.087-11.107-42.721-31.276-58.098zm-159.914-23.1c7.847 4.157 18.11 15.283 22.851 44.628l-7.419 4.641c-2.859-.849-7.6-2.473-12.806-5.155-.032-.016-.064-.028-.096-.044-.041-.022-.079-.049-.12-.071-15.855-8.24-24.276-19.818-25.029-34.415-.174-3.36.48-6.817 1.772-10.182 5.086-1.961 12.985-3.566 20.847.598zm120.195-12.681c-.806 5.593-2.624 10.81-5.396 15.577-8.953-1.914-18.284-2.926-27.812-2.926-10.632 0-21.058 1.234-31.096 3.675-.713-2.447-1.49-4.786-2.32-7.034 6.059-30.292 20.103-45.878 38.721-42.827 16.439 2.697 29.999 18.995 27.903 33.535zm-13.42 245.898c1.409 1.409 2.185 3.282 2.185 5.275 0 1.992-.776 3.865-2.186 5.274-1.279 1.28-2.934 2.015-4.668 2.149-1.021-1.927-2.338-3.738-3.958-5.358l-11.961-11.961c2.743-2.589 5.401-5.255 7.972-7.995zm60.924-142.524c-3.229 0-5.857-2.627-5.857-5.856s2.627-5.857 5.857-5.857h8.436c.033.737.055 1.476.055 2.219 0 3.201-.324 6.372-.946 9.495h-7.545z"/></g></g></svg>