<svg id="Capa_1" enable-background="new 0 0 512 512" height="512" viewBox="0 0 512 512" width="512" xmlns="http://www.w3.org/2000/svg"><g><g><g><path d="m156.599 88.348c-4.833-14.872.421-31.04 13.072-40.232l32.102-23.323c3.651-2.653 7.461-5.003 11.394-7.073l-11.752-9.51c-9.781-7.915-22.924-10.296-34.86-6.315l-24.253 8.089c-15.054 5.021-25.207 19.11-25.207 34.978v52.103c0 7.671 8.37 12.409 14.947 8.46l25.22-15.141z" fill="#f6a96c"/></g><g><path d="m369.699 9.983-24.253-8.089c-11.936-3.981-25.079-1.6-34.86 6.315l-11.752 9.51c3.932 2.069 7.742 4.42 11.394 7.073l32.102 23.323c12.651 9.192 17.905 25.36 13.072 40.232l-.661 2.035 25.22 15.141c6.577 3.949 14.947-.789 14.947-8.46v-52.101c-.002-15.869-10.155-29.958-25.209-34.979z" fill="#f6a96c"/></g><g><path d="m369.699 9.983-24.253-8.089c-7.372-2.459-15.201-2.484-22.417-.284.317.096.637.179.952.284l24.253 8.089c15.054 5.021 25.207 19.11 25.207 34.978v52.103c0 1.467-.31 2.824-.851 4.036l7.369 4.424c6.577 3.949 14.947-.789 14.947-8.46v-52.102c0-15.869-10.153-29.958-25.207-34.979z" fill="#ea9b58"/></g></g><g fill="#d88a55"><path d="m342.934 47.282-32.102-23.323c-10.489-7.621-22.172-12.783-34.28-15.514v74.323c0 12.136 3.542 23.6 10.245 33.151 4.451 6.343 6.804 13.779 6.804 21.505v22.209c0 8.558-2.846 16.644-8.23 23.383l-1.298 1.624h41.123l31.184-95.974c4.956-15.25-.472-31.958-13.446-41.384z"/><path d="m227.926 184.641-1.298-1.624c-5.384-6.739-8.23-14.825-8.23-23.383v-22.209c0-7.726 2.353-15.162 6.804-21.505 6.703-9.551 10.245-21.015 10.245-33.151v-74.324c-12.108 2.731-23.791 7.894-34.28 15.514l-32.102 23.323c-12.973 9.426-18.402 26.133-13.447 41.384l31.184 95.974h41.124z"/></g><path d="m342.934 47.282-32.102-23.323c-10.201-7.411-21.529-12.499-33.28-15.282v14.481c.379.267.761.528 1.137.801l32.102 23.323c12.973 9.426 18.402 26.133 13.447 41.384l-31.194 96.004h32.143l31.194-96.004c4.955-15.25-.473-31.958-13.447-41.384z" fill="#c57a44"/><g><path d="m285.308 184.671c5.783-6.754 9.294-15.503 9.294-25.037v-22.209c0-8.194-2.587-15.813-6.986-22.08-6.677-9.515-10.063-20.952-10.063-32.576v-74.106c-14.163-3.359-28.942-3.359-43.106 0v74.105c0 11.624-3.386 23.061-10.063 32.576-4.398 6.267-6.986 13.886-6.986 22.08v22.209c0 9.534 3.511 18.283 9.294 25.037h58.616z" fill="#fae2c0"/></g><g><path d="m287.616 115.345c-6.677-9.515-10.063-20.952-10.063-32.576v-74.106c-6.95-1.648-14.048-2.483-21.149-2.513v76.618c0 11.624 3.386 23.061 10.063 32.576 4.398 6.267 6.986 13.886 6.986 22.08v22.209c0 9.534-3.511 18.283-9.294 25.037h21.149c5.783-6.754 9.294-15.503 9.294-25.037v-22.209c0-8.194-2.588-15.812-6.986-22.079z" fill="#fed2a4"/></g><path d="m261.044 149.612c-1.24 1.525-3.078 2.4-5.044 2.4s-3.804-.875-5.044-2.4l-2.456-3.022v38.05h15v-38.05z" fill="#7a6d79"/><g><path d="m163.657 377.435c7.432 0 14.508 2.808 19.927 7.906l1.685 1.585v-23.896c0-12.699 10.332-23.03 23.03-23.03 12.699 0 23.031 10.332 23.031 23.03v148.97h49.34v-148.97c0-12.699 10.332-23.03 23.031-23.03s23.03 10.332 23.03 23.03v23.896l1.686-1.586c5.418-5.098 12.495-7.906 19.926-7.906 3.796 0 7.501.72 10.945 2.076v-105.454c0-22.849-15.759-42.008-36.999-47.225h-132.578c-21.24 5.217-36.999 24.376-36.999 47.225v105.455c3.444-1.356 7.149-2.076 10.945-2.076z" fill="#d88a55"/></g><path d="m327.082 274.056v83.436c.42 1.779.649 3.631.649 5.538v21.582c5.385-5.068 12.633-8.178 20.612-8.178 3.875 0 7.556.717 10.945 2.002v-104.38c0-22.849-15.759-42.008-36.999-47.225h-32.206c21.24 5.217 36.999 24.376 36.999 47.225z" fill="#c57a44"/><g><path d="m326.052 227.861h-140.104c-5.69 0-10.302-4.612-10.302-10.302v-23.617c0-5.69 4.612-10.302 10.302-10.302h140.105c5.69 0 10.302 4.612 10.302 10.302v23.617c-.001 5.69-4.613 10.302-10.303 10.302z" fill="#fe646f"/></g><g><path d="m326.052 183.64h-41.207c5.689 0 10.302 4.612 10.302 10.302v23.617c0 5.69-4.612 10.302-10.302 10.302h41.207c5.69 0 10.302-4.612 10.302-10.302v-23.617c0-5.689-4.612-10.302-10.302-10.302z" fill="#fd4755"/></g><g><circle cx="256" cy="242.447" fill="#ffd15b" r="26.782"/></g><g><path d="m256 215.666c-3.85 0-7.507.819-10.815 2.281 9.402 4.157 15.966 13.559 15.966 24.5s-6.564 20.344-15.966 24.5c3.308 1.463 6.965 2.281 10.815 2.281 14.791 0 26.782-11.99 26.782-26.782 0-14.79-11.991-26.78-26.782-26.78z" fill="#ffc344"/></g><g><g><path d="m166.283 495.908c0-10.716 7.643-19.913 18.174-21.87l.842-.157v-88.254c-5.473-5.665-13.143-9.193-21.642-9.193-19.01 0-33.499 17.021-30.465 35.787l9.833 60.803h-16.642c-10.819 2.011-19.016 11.482-19.016 22.883v10.941c0 2.845 2.306 5.151 5.151 5.151h53.765z" fill="#c57a44"/></g><g><path d="m385.617 473.025h-16.642l9.833-60.803c3.035-18.766-11.455-35.787-30.465-35.787-8.499 0-16.169 3.528-21.642 9.193v88.254l.842.157c10.53 1.957 18.174 11.154 18.174 21.87v16.091h53.765c2.845 0 5.151-2.306 5.151-5.151v-10.941c0-11.401-8.197-20.872-19.016-22.883z" fill="#d88a55"/></g></g><g><g><path d="m210.524 100.01c-4.142 0-7.5-3.358-7.5-7.5v-11.554c0-4.142 3.358-7.5 7.5-7.5s7.5 3.358 7.5 7.5v11.554c0 4.142-3.358 7.5-7.5 7.5z" fill="#685e68"/></g><g><path d="m301.476 100.01c-4.142 0-7.5-3.358-7.5-7.5v-11.554c0-4.142 3.358-7.5 7.5-7.5s7.5 3.358 7.5 7.5v11.554c0 4.142-3.358 7.5-7.5 7.5z" fill="#685e68"/></g></g><g><path d="m184.269 473.025c-10.819 2.011-19.016 11.482-19.016 22.884v16.091h67.077v-148.97c0-13.272-10.759-24.03-24.03-24.03-13.272 0-24.03 10.759-24.03 24.03v109.995z" fill="#f6a96c"/><path d="m208.299 339c-3.634 0-7.077.811-10.165 2.255 8.189 3.83 13.866 12.138 13.866 21.775v148.97h20.33v-148.97c0-13.271-10.759-24.03-24.031-24.03z" fill="#ea9b58"/><path d="m327.731 473.025v-109.995c0-13.272-10.759-24.03-24.03-24.03-13.272 0-24.03 10.759-24.03 24.03v148.97h67.077v-16.091c-.001-11.402-8.198-20.873-19.017-22.884z" fill="#f6a96c"/><path d="m327.731 473.025v-109.995c0-13.272-10.759-24.03-24.03-24.03-3.715 0-7.233.844-10.373 2.349 8.078 3.872 13.657 12.125 13.657 21.681v109.995c10.818 2.011 19.015 11.482 19.015 22.884v16.091h20.747v-16.091c0-11.402-8.197-20.873-19.016-22.884z" fill="#ea9b58"/></g><path d="m256 153.013c-2.258 0-4.395-1.017-5.82-2.77l-10.992-13.523c-2.755-3.389-3.3-7.943-1.424-11.887s5.755-6.394 10.123-6.394h16.227c4.367 0 8.246 2.45 10.123 6.394 1.876 3.944 1.331 8.499-1.424 11.888l-10.992 13.523c-1.425 1.752-3.563 2.769-5.821 2.769z" fill="#685e68"/></g></svg>