<svg id="Capa_1" enable-background="new 0 0 497 497" height="512" viewBox="0 0 497 497" width="512" xmlns="http://www.w3.org/2000/svg"><g><circle cx="372.792" cy="163.887" fill="#c38c66" r="34.456"/><path d="m158.664 160.18c0-19.029-15.426-34.456-34.456-34.456-6.153 0-11.928 1.613-16.928 4.438 0 0-5.224 6.988-8.078 10.787-4.328 5.76-8.255 11.471-8.255 19.231 0 19.029 14.232 34.456 33.261 34.456s34.456-15.427 34.456-34.456z" fill="#d19a6e"/><path d="m158.66 160.182c0 19.03-15.42 34.45-34.45 34.45s-34.46-15.42-34.46-34.45c0-12.88 7.06-24.1 17.53-30.02 5.13 12.59 17.49 21.47 31.93 21.47 6.15 0 11.92-1.61 16.92-4.43 1.63 4.01 2.53 8.39 2.53 12.98z" fill="#c38c66"/><path d="m204.029 147.78c0-19.029-15.426-34.456-34.456-34.456-7.496 0-14.434 2.394-20.089 6.459 0 0-3.8 4.828-5.771 7.293-4.711 5.893-6.809 12.572-6.809 20.703 0 19.029 13.639 34.456 32.669 34.456s34.456-15.426 34.456-34.455z" fill="#d19a6e"/><path d="m204.03 147.782c0 19.03-15.43 34.45-34.46 34.45s-34.45-15.42-34.45-34.45c0-11.54 5.664-21.759 14.364-27.999 2.42 16.65 16.756 29.448 34.086 29.448 7.49 0 14.43-2.39 20.09-6.46.25 1.641.37 3.311.37 5.011z" fill="#c38c66"/><path d="m358.223 156.268c0-.621 1.377-2.716 1.377-2.716-.961-18.169-15.998-32.606-34.407-32.606-3.263 0-6.421.454-9.412 1.301 0 0-3.535 3.237-5.601 4.318-10.997 5.755-19.443 15.564-19.443 28.836 0 19.029 15.426 34.456 34.456 34.456 19.03.001 33.03-14.56 33.03-33.589z" fill="#d19a6e"/><path d="m359.65 155.402c0 19.03-15.43 34.46-34.46 34.46s-34.45-15.43-34.45-34.46c0-15.77 10.582-29.054 25.042-33.154.97 18.18 15.998 32.614 34.408 32.614 3.26 0 6.42-.45 9.41-1.31.03.61.05 1.23.05 1.85z" fill="#c38c66"/><circle cx="253.542" cy="125.724" fill="#c38c66" r="34.456"/><path d="m255.583 150.452c0-19.029-15.426-34.456-34.456-34.456-5.146 0-10.029 1.128-14.415 3.151 0 0-4.68 3.297-6.915 5.12-7.743 6.318-11.319 15.411-11.319 26.184 0 19.029 13.619 34.456 32.649 34.456s34.456-15.426 34.456-34.455z" fill="#d19a6e"/><path d="m255.58 150.452c0 19.03-15.42 34.46-34.45 34.46s-34.46-15.43-34.46-34.46c0-13.88 8.213-25.844 20.043-31.304.88 18.25 15.957 32.764 34.417 32.764 5.14 0 10.02-1.13 14.41-3.15.03.56.04 1.12.04 1.69z" fill="#c38c66"/><path d="m313.777 151.076c0-.234.836-1.092.831-1.325-.373-18.706-15.653-33.755-34.449-33.755-5.16 0-10.054 1.134-14.449 3.167 0 0-4.75 4.195-7.232 6.381-7.167 6.314-11.596 14.605-11.596 24.908 0 19.029 14.247 34.456 33.276 34.456s33.619-33.832 33.619-33.832z" fill="#d19a6e"/><path d="m314.61 150.452c0 19.03-15.42 34.46-34.45 34.46s-34.46-15.43-34.46-34.46c0-13.87 8.201-25.829 20.011-31.289.38 18.7 15.659 33.749 34.449 33.749 5.16 0 10.05-1.13 14.44-3.16.01.23.01.47.01.7z" fill="#c38c66"/><path d="m27.372 366.822 34.298-186.384c1.409-7.26 5.515-12.524 12.234-14.745 1.925-.636 6.026-1.805 6.026-1.805.063-.001.126-.001.189-.001h336.26c9.577 0 17.81 6.789 19.634 16.191l33.13 170.793.527 16.016z" fill="#7bb1ff"/><path d="m472.25 366.892-448-.07 36.24-186.74c1.81-9.35 9.94-16.104 19.44-16.194l-33.739 173.84c-1.318 6.789 3.882 13.095 10.797 13.096l412.155.048z" fill="#62a5f4"/><g><g><path d="m292.831 219.652c0-11.051-6.655-24.583-14.864-24.583-.249 0-.496.012-.742.037 0 0-2.005.807-3.109 1.44-6.165 3.537-9.681 14.017-9.681 23.106 0 11.051 5.322 14.043 13.532 14.043 6.559 0 11.676-1.574 13.649-8.335.321-1.1 1.115-3.452 1.115-3.452.067-.719.1-1.471.1-2.256z" fill="#ffe07d"/><path d="m292.732 221.908c-.86 9.39-7.136 13.18-14.766 13.18-8.21 0-14.86-4.39-14.86-15.44 0-10.72 6.26-23.772 14.12-24.542-1.35 3.71-2.12 7.772-2.12 11.542 0 11.05 6.65 15.44 14.86 15.44.95 0 1.866-.06 2.766-.18z" fill="#ffd064"/></g><g><path d="m334.499 264.441c0-11.051-6.655-24.583-14.864-24.583-.249 0-.496.012-.742.037 0 0-2.005.807-3.109 1.44-6.165 3.537-9.681 14.017-9.681 23.106 0 11.051 5.322 14.043 13.532 14.043 6.559 0 11.676-1.574 13.649-8.335.321-1.1 1.115-3.452 1.115-3.452.066-.719.1-1.47.1-2.256z" fill="#ffe07d"/><path d="m334.4 266.697c-.86 9.39-7.136 13.18-14.766 13.18-8.21 0-14.86-4.39-14.86-15.44 0-10.72 6.26-23.772 14.12-24.542-1.35 3.71-2.12 7.772-2.12 11.542 0 11.05 6.65 15.44 14.86 15.44.949.001 1.866-.06 2.766-.18z" fill="#ffd064"/></g><g><path d="m192.227 264.441c0-11.051-6.655-24.583-14.864-24.583-.249 0-.496.012-.742.037 0 0-2.005.807-3.109 1.44-6.165 3.537-9.681 14.017-9.681 23.106 0 11.051 5.322 14.043 13.532 14.043 6.559 0 11.676-1.574 13.649-8.335.321-1.1 1.115-3.452 1.115-3.452.066-.719.1-1.47.1-2.256z" fill="#ffe07d"/><path d="m192.127 266.697c-.86 9.39-7.136 13.18-14.766 13.18-8.21 0-14.86-4.39-14.86-15.44 0-10.72 6.26-23.772 14.12-24.542-1.35 3.71-2.12 7.772-2.12 11.542 0 11.05 6.65 15.44 14.86 15.44.95.001 1.867-.06 2.766-.18z" fill="#ffd064"/></g><g><path d="m233.895 219.652c0-11.051-6.655-24.583-14.864-24.583-.249 0-.496.012-.742.037 0 0-2.005.807-3.109 1.44-6.165 3.537-9.681 14.017-9.681 23.106 0 11.051 5.322 14.043 13.532 14.043 6.559 0 11.676-1.574 13.649-8.335.321-1.1 1.116-3.452 1.116-3.452.066-.719.099-1.471.099-2.256z" fill="#ffe07d"/><path d="m233.796 221.908c-.86 9.39-7.136 13.18-14.766 13.18-8.21 0-14.86-4.39-14.86-15.44 0-10.72 6.26-23.772 14.12-24.542-1.35 3.71-2.12 7.772-2.12 11.542 0 11.05 6.65 15.44 14.86 15.44.95 0 1.866-.06 2.766-.18z" fill="#ffd064"/></g><path d="m274.999 269.533-.002-.009c-1.125-4.499-5.167-7.656-9.805-7.656h-24.562l-6.293.594c-4.59 0-8.603 3.092-9.773 7.53-2.641 10.017-7.883 18.968-15.489 26-3.955 3.656-5.941 6.966-6.235 12.344l-.281 2.645c0 12.894 9.678 21.026 18.091 21.096 8.353.069 47.758-.099 56.298-.17 6.941-.058 18.22-13.568 18.22-13.568.505-1.907.783-3.952.783-6.107v-1.763c0-5.496-2.183-10.767-6.07-14.654-7.251-7.249-12.395-16.334-14.882-26.282z" fill="#ffe07d"/><path d="m231.828 318.375c-11.503-.008-17.752-13.987-9.646-22.148.251-.253.51-.496.778-.729l7.37-6.81c2.79-2.58 4.79-5.91 5.76-9.59l4.54-17.23h-7.273c-4.612 0-8.549 3.167-9.732 7.624-1.32 4.975-3.332 9.713-5.965 14.076-2.64 4.39-5.9 8.41-9.7 11.93-1.98 1.83-3.56 4.01-4.69 6.4-1.12 2.39-1.79 5-1.94 7.69l-.28 2.64c0 12.9 9.68 21.03 18.09 21.1 2.35.018 53.171.05 59.29 0 6.94-.06 14.367-5.988 16.737-14.988-12.039.04-40.766.052-63.339.035z" fill="#ffd064"/></g><circle cx="401.956" cy="351.28" fill="#d19a6e" r="34.456"/><path d="m436.408 350.8c.263 18.899-14.751 34.499-33.676 34.923-19.025.426-34.797-14.644-35.223-33.669-.311-13.867 7.609-25.997 19.294-31.73l.007.29c.426 19.025 16.198 34.096 35.223 33.669 5.158-.116 10.031-1.355 14.375-3.483z" fill="#c38c66"/><circle cx="349.5" cy="356.932" fill="#d19a6e" r="34.456"/><path d="m383.96 356.932c0 19.03-15.43 34.46-34.46 34.46s-34.46-15.43-34.46-34.46c0-13.98 8.33-26.02 20.3-31.43 2.24 16.87 16.68 29.89 34.16 29.89 5.05 0 9.84-1.09 14.16-3.03.2 1.5.3 3.02.3 4.57z" fill="#c38c66"/><path d="m486.138 404.778-475.021-.426c-5.523 0-10-4.477-10-10l-.106-17.466c0-5.523 4.477-10 10-10l3.989-1.15h472c5.523 0 10 4.477 10 10v14.996l-.862 4.047c0 5.522-4.477 9.999-10 9.999z" fill="#7bb1ff"/><path d="m497 390.732v5c0 5.53-4.48 10-10 10h-477c-5.52 0-10-4.47-10-10v-20c0-5.523 4.477-10 10-10l5 .004v11.996c0 7.18 5.82 13 13 13z" fill="#62a5f4"/></g></svg>