<svg id="Capa_1" enable-background="new 0 0 512 512" height="512" viewBox="0 0 512 512" width="512" xmlns="http://www.w3.org/2000/svg"><g><g><circle cx="380.292" cy="171.385" fill="#c38c66" r="34.456"/><path d="m166.164 167.678c0-19.029-15.426-34.456-34.456-34.456-6.153 0-11.928 1.613-16.928 4.438 0 0-5.224 6.988-8.078 10.787-4.328 5.76-8.255 11.471-8.255 19.231 0 19.029 14.232 34.456 33.261 34.456s34.456-15.427 34.456-34.456z" fill="#d19a6e"/><path d="m166.16 167.68c0 19.03-15.42 34.45-34.45 34.45s-34.46-15.42-34.46-34.45c0-12.88 7.06-24.1 17.53-30.02 5.13 12.59 17.49 21.47 31.93 21.47 6.15 0 11.92-1.61 16.92-4.43 1.63 4.01 2.53 8.39 2.53 12.98z" fill="#c38c66"/><path d="m211.529 155.278c0-19.029-15.426-34.456-34.456-34.456-7.496 0-14.434 2.394-20.089 6.459 0 0-3.8 4.828-5.771 7.293-4.711 5.893-6.809 12.572-6.809 20.703 0 19.029 13.639 34.456 32.669 34.456s34.456-15.426 34.456-34.455z" fill="#d19a6e"/><path d="m211.53 155.28c0 19.03-15.43 34.45-34.46 34.45s-34.45-15.42-34.45-34.45c0-11.54 5.664-21.759 14.364-27.999 2.42 16.65 16.756 29.448 34.086 29.448 7.49 0 14.43-2.39 20.09-6.46.25 1.641.37 3.311.37 5.011z" fill="#c38c66"/><path d="m365.723 163.766c0-.621 1.377-2.716 1.377-2.716-.961-18.169-15.998-32.606-34.407-32.606-3.263 0-6.421.454-9.412 1.301 0 0-3.535 3.237-5.601 4.318-10.997 5.755-19.443 15.564-19.443 28.836 0 19.029 15.426 34.456 34.456 34.456 19.03.001 33.03-14.56 33.03-33.589z" fill="#d19a6e"/><path d="m367.15 162.9c0 19.03-15.43 34.46-34.46 34.46s-34.45-15.43-34.45-34.46c0-15.77 10.582-29.054 25.042-33.154.97 18.18 15.998 32.614 34.408 32.614 3.26 0 6.42-.45 9.41-1.31.03.61.05 1.23.05 1.85z" fill="#c38c66"/><circle cx="261.042" cy="133.222" fill="#c38c66" r="34.456"/><path d="m263.083 157.95c0-19.029-15.426-34.456-34.456-34.456-5.146 0-10.029 1.128-14.415 3.151 0 0-4.68 3.297-6.915 5.12-7.743 6.318-11.319 15.411-11.319 26.184 0 19.029 13.619 34.456 32.649 34.456s34.456-15.425 34.456-34.455z" fill="#d19a6e"/><path d="m263.08 157.95c0 19.03-15.42 34.46-34.45 34.46s-34.46-15.43-34.46-34.46c0-13.88 8.213-25.844 20.043-31.304.88 18.25 15.957 32.764 34.417 32.764 5.14 0 10.02-1.13 14.41-3.15.03.56.04 1.12.04 1.69z" fill="#c38c66"/><path d="m321.277 158.574c0-.234.836-1.092.831-1.325-.373-18.706-15.653-33.755-34.449-33.755-5.16 0-10.054 1.134-14.449 3.167 0 0-4.75 4.195-7.232 6.381-7.167 6.314-11.596 14.605-11.596 24.908 0 19.029 14.247 34.456 33.276 34.456s33.619-33.832 33.619-33.832z" fill="#d19a6e"/><path d="m322.11 157.95c0 19.03-15.42 34.46-34.45 34.46s-34.46-15.43-34.46-34.46c0-13.87 8.201-25.829 20.011-31.289.38 18.7 15.659 33.749 34.449 33.749 5.16 0 10.05-1.13 14.44-3.16.01.23.01.47.01.7z" fill="#c38c66"/><path d="m34.872 374.32 34.298-186.384c1.409-7.26 5.515-12.524 12.234-14.745 1.925-.636 6.026-1.805 6.026-1.805.063-.001.126-.001.189-.001h336.26c9.577 0 17.81 6.789 19.634 16.191l33.13 170.793.527 16.016z" fill="#7bb1ff"/><path d="m479.75 374.39-448-.07 36.24-186.74c1.81-9.35 9.94-16.104 19.44-16.194l-33.739 173.84c-1.318 6.789 3.882 13.095 10.797 13.096l412.155.048z" fill="#62a5f4"/><g><g><path d="m300.331 227.15c0-11.051-6.655-24.583-14.864-24.583-.249 0-.496.012-.742.037 0 0-2.005.807-3.109 1.44-6.165 3.537-9.681 14.017-9.681 23.106 0 11.051 5.322 14.043 13.532 14.043 6.559 0 11.676-1.574 13.649-8.335.321-1.1 1.115-3.452 1.115-3.452.067-.719.1-1.471.1-2.256z" fill="#ffe07d"/><path d="m300.232 229.406c-.86 9.39-7.136 13.18-14.766 13.18-8.21 0-14.86-4.39-14.86-15.44 0-10.72 6.26-23.772 14.12-24.542-1.35 3.71-2.12 7.772-2.12 11.542 0 11.05 6.65 15.44 14.86 15.44.95 0 1.866-.06 2.766-.18z" fill="#ffd064"/></g><g><path d="m341.999 271.939c0-11.051-6.655-24.583-14.864-24.583-.249 0-.496.012-.742.037 0 0-2.005.807-3.109 1.44-6.165 3.537-9.681 14.017-9.681 23.106 0 11.051 5.322 14.043 13.532 14.043 6.559 0 11.676-1.574 13.649-8.335.321-1.1 1.115-3.452 1.115-3.452.066-.718.1-1.47.1-2.256z" fill="#ffe07d"/><path d="m341.9 274.196c-.86 9.39-7.136 13.18-14.766 13.18-8.21 0-14.86-4.39-14.86-15.44 0-10.72 6.26-23.772 14.12-24.542-1.35 3.71-2.12 7.772-2.12 11.542 0 11.05 6.65 15.44 14.86 15.44.949 0 1.866-.06 2.766-.18z" fill="#ffd064"/></g><g><path d="m199.727 271.939c0-11.051-6.655-24.583-14.864-24.583-.249 0-.496.012-.742.037 0 0-2.005.807-3.109 1.44-6.165 3.537-9.681 14.017-9.681 23.106 0 11.051 5.322 14.043 13.532 14.043 6.559 0 11.676-1.574 13.649-8.335.321-1.1 1.115-3.452 1.115-3.452.066-.718.1-1.47.1-2.256z" fill="#ffe07d"/><path d="m199.627 274.196c-.86 9.39-7.136 13.18-14.766 13.18-8.21 0-14.86-4.39-14.86-15.44 0-10.72 6.26-23.772 14.12-24.542-1.35 3.71-2.12 7.772-2.12 11.542 0 11.05 6.65 15.44 14.86 15.44.95 0 1.867-.06 2.766-.18z" fill="#ffd064"/></g><g><path d="m241.395 227.15c0-11.051-6.655-24.583-14.864-24.583-.249 0-.496.012-.742.037 0 0-2.005.807-3.109 1.44-6.165 3.537-9.681 14.017-9.681 23.106 0 11.051 5.322 14.043 13.532 14.043 6.559 0 11.676-1.574 13.649-8.335.321-1.1 1.116-3.452 1.116-3.452.066-.719.099-1.471.099-2.256z" fill="#ffe07d"/><path d="m241.296 229.406c-.86 9.39-7.136 13.18-14.766 13.18-8.21 0-14.86-4.39-14.86-15.44 0-10.72 6.26-23.772 14.12-24.542-1.35 3.71-2.12 7.772-2.12 11.542 0 11.05 6.65 15.44 14.86 15.44.95 0 1.866-.06 2.766-.18z" fill="#ffd064"/></g><path d="m282.499 277.031-.002-.009c-1.125-4.499-5.167-7.656-9.805-7.656h-24.562l-6.293.594c-4.59 0-8.603 3.092-9.773 7.53-2.641 10.017-7.883 18.968-15.489 26-3.955 3.656-5.941 6.966-6.235 12.344l-.281 2.645c0 12.894 9.678 21.026 18.091 21.096 8.353.069 47.758-.099 56.298-.17 6.941-.058 18.22-13.568 18.22-13.568.505-1.907.783-3.952.783-6.107v-1.763c0-5.496-2.183-10.767-6.07-14.654-7.251-7.249-12.395-16.334-14.882-26.282z" fill="#ffe07d"/><path d="m239.328 325.873c-11.503-.008-17.752-13.987-9.646-22.148.251-.253.51-.496.778-.729l7.37-6.81c2.79-2.58 4.79-5.91 5.76-9.59l4.54-17.23h-7.273c-4.612 0-8.549 3.167-9.732 7.624-1.32 4.975-3.332 9.713-5.965 14.076-2.64 4.39-5.9 8.41-9.7 11.93-1.98 1.83-3.56 4.01-4.69 6.4-1.12 2.39-1.79 5-1.94 7.69l-.28 2.64c0 12.9 9.68 21.03 18.09 21.1 2.35.018 53.171.05 59.29 0 6.94-.06 14.367-5.988 16.737-14.988-12.039.04-40.766.052-63.339.035z" fill="#ffd064"/></g><circle cx="409.456" cy="358.778" fill="#d19a6e" r="34.456"/><path d="m443.908 358.298c.263 18.899-14.751 34.499-33.676 34.923-19.025.426-34.797-14.644-35.223-33.669-.311-13.867 7.609-25.997 19.294-31.73l.007.29c.426 19.025 16.198 34.096 35.223 33.669 5.158-.116 10.031-1.355 14.375-3.483z" fill="#c38c66"/><circle cx="357" cy="364.43" fill="#d19a6e" r="34.456"/><path d="m391.46 364.43c0 19.03-15.43 34.46-34.46 34.46s-34.46-15.43-34.46-34.46c0-13.98 8.33-26.02 20.3-31.43 2.24 16.87 16.68 29.89 34.16 29.89 5.05 0 9.84-1.09 14.16-3.03.2 1.5.3 3.02.3 4.57z" fill="#c38c66"/><path d="m493.638 412.277-475.021-.426c-5.523 0-10-4.477-10-10l-.106-17.466c0-5.523 4.477-10 10-10l3.989-1.152h472c5.523 0 10 4.477 10 10v14.996l-.862 4.047c0 5.523-4.477 10.001-10 10.001z" fill="#7bb1ff"/><path d="m504.5 398.23v5c0 5.53-4.48 10-10 10h-477c-5.52 0-10-4.47-10-10v-20c0-5.523 4.477-10 10-10l5 .004v11.996c0 7.18 5.82 13 13 13z" fill="#62a5f4"/></g><g><path d="m61.814 219.378c4.065.794 8.002-1.867 8.791-5.934l4.742-24.439c1.138-5.863 6.299-10.119 12.271-10.119h336.262c5.974 0 11.134 4.256 12.271 10.12l9.833 50.69c.694 3.584 3.835 6.073 7.354 6.072.473 0 .954-.045 1.437-.139 4.065-.788 6.723-4.725 5.934-8.79l-9.832-50.69c-2.502-12.9-13.855-22.264-26.997-22.264h-2.321c-3.569-19.531-20.801-34.456-41.267-34.456-6.208 0-12.267 1.359-17.808 3.961-7.608-7.68-18.152-12.446-29.79-12.446-6.545 0-12.909 1.509-18.684 4.389-4.081-3.303-8.786-5.863-13.915-7.457-6.244-15.835-21.802-26.609-39.052-26.609-16.929 0-31.856 9.945-38.461 25.169-6.625.961-12.749 3.477-17.998 7.163-7.575-6.594-17.279-10.276-27.51-10.276-12.71 0-24.11 5.689-31.811 14.646-4.34-1.486-8.878-2.246-13.555-2.246-21.855 0-39.852 16.801-41.776 38.164h-2.313c-13.14 0-24.494 9.362-26.996 22.262l-4.742 24.439c-.789 4.065 1.867 8.001 5.933 8.79zm139.858-61.428c0-14.863 12.093-26.956 26.956-26.956 8.149 0 15.679 3.598 20.771 9.772-2.367 5.249-3.695 11.062-3.695 17.184 0 2.001.142 3.981.419 5.936h-43.789c-.436-1.934-.662-3.918-.662-5.936zm85.987-26.956c14.863 0 26.956 12.093 26.956 26.956 0 2.018-.226 4.001-.661 5.936h-52.591c-.434-1.934-.661-3.917-.661-5.936.001-14.863 12.094-26.956 26.957-26.956zm92.633 13.436c12.196 0 22.603 8.249 25.878 19.456h-31.55c.008-.329.029-.656.029-.985 0-5.993-1.272-11.691-3.545-16.853 2.923-1.059 6.023-1.618 9.188-1.618zm-20.643 18.47c0 .329-.017.657-.029.985h-30.424c.277-1.954.419-3.935.419-5.936 0-7.491-1.983-14.523-5.437-20.617 2.724-.906 5.588-1.389 8.515-1.389 14.864.001 26.956 12.094 26.956 26.957zm-98.607-56.633c8.303 0 15.987 3.89 21.012 10.113-9.255 1.242-17.565 5.504-23.894 11.77-5.256-5.232-11.762-8.96-18.924-10.812 4.96-6.841 12.956-11.071 21.806-11.071zm-83.969 22.055c6.24 0 12.171 2.137 16.922 5.978-4.616 6.739-7.323 14.883-7.323 23.65 0 2 .142 3.981.419 5.936h-35.563c-.93-2.753-1.41-5.632-1.41-8.607-.001-14.864 12.092-26.957 26.955-26.957zm-45.365 12.4c1.976 0 3.911.214 5.796.626-1.54 4.362-2.387 9.048-2.387 13.93 0 2.894.32 5.781.912 8.607h-31.004c1.849-13.073 13.107-23.163 26.683-23.163z"/><path d="m349.5 271.927c0-15.175-9.185-32.083-22.364-32.083s-22.363 16.908-22.363 32.083c0 13.933 8.778 22.936 22.363 22.936 13.586-.001 22.364-9.004 22.364-22.936zm-29.728 0c0-9.12 5.347-16.98 7.362-17.083 2.018.1 7.365 7.957 7.365 17.083 0 5.711-2.064 7.936-7.364 7.936-5.298-.001-7.363-2.225-7.363-7.936z"/><path d="m184.864 239.844c-13.18 0-22.364 16.908-22.364 32.083 0 13.933 8.778 22.936 22.364 22.936 13.585 0 22.363-9.003 22.363-22.936.001-15.175-9.184-32.083-22.363-32.083zm0 40.018c-5.3 0-7.364-2.225-7.364-7.936 0-9.126 5.348-16.983 7.363-17.083 2.018.103 7.364 7.963 7.364 17.083.001 5.712-2.064 7.936-7.363 7.936z"/><path d="m307.832 227.137c0-15.175-9.185-32.082-22.363-32.082-13.18 0-22.364 16.907-22.364 32.082 0 13.933 8.778 22.936 22.364 22.936 13.585-.001 22.363-9.004 22.363-22.936zm-29.728 0c0-9.121 5.348-16.98 7.363-17.082 2.018.102 7.364 7.961 7.364 17.082 0 5.711-2.064 7.936-7.363 7.936-5.299-.001-7.364-2.225-7.364-7.936z"/><path d="m226.531 250.072c13.586 0 22.364-9.003 22.364-22.936 0-15.175-9.185-32.082-22.364-32.082s-22.363 16.907-22.363 32.082c0 13.933 8.778 22.936 22.363 22.936zm-.001-40.017c2.018.102 7.365 7.961 7.365 17.082 0 5.711-2.064 7.936-7.364 7.936-5.299 0-7.363-2.225-7.363-7.936 0-9.121 5.347-16.981 7.362-17.082z"/><path d="m226.578 348.313c4.316.035 17.027.054 29.73.054 12.701 0 25.395-.019 29.685-.054 12.053-.1 24.957-11.613 24.957-28.595.477-6.977-2.563-16.153-8.267-21.72-6.289-6.29-10.752-14.174-12.908-22.799-.008-.031-.016-.062-.024-.095-1.991-7.808-8.993-13.252-17.06-13.252h-31.771c-7.988 0-14.989 5.395-17.024 13.118-2.281 8.652-6.96 16.435-13.531 22.509-5.55 4.881-9.225 13.908-9.314 22.237-.001 16.981 13.199 28.496 25.527 28.597zm-10.289-30.448c.136-2.601 1.144-6.075 4.258-9.37 8.67-8.014 14.843-18.283 17.853-29.7.302-1.143 1.338-1.941 2.521-1.941h31.771c1.198 0 2.238.812 2.528 1.974.007.028.015.058.022.087 2.822 11.232 8.642 21.498 16.834 29.691 1.997 1.991 4.216 6.421 3.874 11.113 0 8.248-5.971 13.562-10.081 13.595-8.271.07-50.849.07-59.167 0-4.339.245-11.95-6.784-10.413-15.449z"/><path d="m326.348 405.733h-308.848c-1.379 0-2.5-1.121-2.5-2.5v-20c0-1.379 1.121-2.5 2.5-2.5h121.032c4.143 0 7.5-3.357 7.5-7.5s-3.357-7.5-7.5-7.5h-97.477l22.885-117.941c.789-4.066-1.867-8.002-5.934-8.791-4.069-.79-8.002 1.867-8.791 5.934l-23.439 120.798h-8.276c-9.649 0-17.5 7.851-17.5 17.5v20c0 9.649 7.851 17.5 17.5 17.5h308.848c4.143 0 7.5-3.357 7.5-7.5s-3.358-7.5-7.5-7.5z"/><path d="m494.5 365.733h-8.789l-18.335-94.521c-.787-4.067-4.731-6.728-8.79-5.935-4.066.788-6.724 4.725-5.935 8.79l17.781 91.666h-19.602c.38-2.282.581-4.603.581-6.955 0-23.135-18.821-41.956-41.955-41.956-11.258 0-21.929 4.523-29.736 12.363-6.553-4.239-14.351-6.712-22.72-6.712-22.95-.095-42.857 19.62-41.917 43.26h-141.551c-4.143 0-7.5 3.357-7.5 7.5s3.357 7.5 7.5 7.5h320.968c1.379 0 2.5 1.121 2.5 2.5v20c0 1.379-1.121 2.5-2.5 2.5h-133.152c-4.143 0-7.5 3.357-7.5 7.5s3.357 7.5 7.5 7.5h133.152c9.649 0 17.5-7.851 17.5-17.5v-20c0-9.649-7.851-17.5-17.5-17.5zm-58.089-6.955c0 2.377-.304 4.704-.904 6.955h-36.591c.435-8.381-2.785-19.155-8.233-26.287 4.987-4.838 11.698-7.624 18.772-7.624 14.864 0 26.956 12.093 26.956 26.956zm-106.367 5.652c0-14.863 12.093-26.956 26.956-26.956 14.803-.075 27.7 12.911 26.917 28.26h-53.834c-.021-.435-.039-.869-.039-1.304z"/></g></g></svg>