<svg id="Capa_1" enable-background="new 0 0 512 512" height="512" viewBox="0 0 512 512" width="512" xmlns="http://www.w3.org/2000/svg"><g><g><g><path d="m159.511 93.26c-4.691-14.437.408-30.131 12.689-39.054l31.162-22.64c3.544-2.575 7.243-4.857 11.06-6.865l-11.408-9.232c-9.495-7.683-22.252-9.994-33.839-6.13l-23.543 7.852c-14.613 4.874-24.468 18.55-24.468 33.954v50.577c0 7.446 8.125 12.045 14.509 8.212l24.481-14.698z" fill="#f6a96c"/></g><g><path d="m366.368 17.191-23.543-7.852c-11.587-3.864-24.344-1.553-33.839 6.13l-11.408 9.232c3.817 2.008 7.516 4.29 11.06 6.865l31.162 22.64c12.281 8.923 17.38 24.617 12.689 39.054l-.642 1.976 24.481 14.698c6.384 3.833 14.509-.766 14.509-8.212v-50.578c-.001-15.403-9.856-29.08-24.469-33.953z" fill="#f6a96c"/></g><g><path d="m366.368 17.191-23.543-7.852c-7.156-2.387-14.756-2.411-21.76-.276.308.094.618.174.924.276l23.543 7.852c14.612 4.873 24.468 18.55 24.468 33.953v50.577c0 1.424-.301 2.741-.826 3.917l7.154 4.295c6.384 3.833 14.509-.766 14.509-8.212v-50.577c-.001-15.403-9.856-29.08-24.469-33.953z" fill="#ea9b58"/></g></g><g><path d="m340.388 53.397-31.162-22.64c-31.738-23.059-74.714-23.059-106.452 0l-31.162 22.64c-12.593 9.15-17.863 25.368-13.053 40.172l30.28 93.191h134.321l30.28-93.191c4.81-14.804-.459-31.022-13.052-40.172z" fill="#d88a55"/></g><path d="m340.388 53.397-31.162-22.64c-9.901-7.194-20.899-12.122-32.305-14.823v14.045c.368.259.738.512 1.103.777l31.162 22.64c12.593 9.15 17.863 25.368 13.053 40.172l-30.28 93.191h31.201l30.28-93.191c4.81-14.803-.459-31.021-13.052-40.171z" fill="#c57a44"/><g><path d="m284.45 186.76c5.613-6.556 9.021-15.049 9.021-24.303v-21.559c0-7.954-2.512-15.349-6.781-21.433-6.482-9.236-9.768-20.338-9.768-31.622v-71.934c-13.749-3.26-28.094-3.26-41.843 0v71.934c0 11.284-3.287 22.386-9.768 31.622-4.269 6.084-6.781 13.479-6.781 21.433v21.559c0 9.255 3.408 17.748 9.021 24.304h56.899z" fill="#fae2c0"/></g><g><path d="m286.69 119.465c-6.482-9.236-9.768-20.338-9.768-31.622v-71.934c-6.746-1.6-13.636-2.41-20.529-2.44v74.374c0 11.284 3.287 22.386 9.768 31.622 4.269 6.084 6.781 13.479 6.781 21.433v21.559c0 9.255-3.408 17.748-9.021 24.303h20.529c5.613-6.556 9.021-15.049 9.021-24.303v-21.559c0-7.954-2.512-15.349-6.781-21.433z" fill="#fed2a4"/></g><path d="m320.347 227.686h-43.234c3.07 4.268 4.883 9.5 4.883 15.159 0 14.358-11.639 25.997-25.997 25.997s-25.997-11.639-25.997-25.997c0-5.659 1.814-10.891 4.883-15.159h-43.234c-20.617 5.064-35.915 23.662-35.915 45.842v101.322c3.29-1.247 6.863-1.943 10.624-1.943 8.25 0 15.695 3.425 21.008 8.924v85.668l-.817.152c-10.222 1.899-17.641 10.828-17.641 21.229v15.62h174.177v-15.62c0-10.402-7.419-19.33-17.641-21.229l-.817-.152v-85.669c5.312-5.499 12.758-8.924 21.008-8.924 3.761 0 7.335.696 10.624 1.943v-101.322c.001-22.179-15.297-40.777-35.914-45.841z" fill="#d88a55"/><g><path d="m325 381.465c5.286-5.282 12.575-8.559 20.638-8.559 3.761 0 7.335.696 10.624 1.943v-101.322c0-22.18-15.298-40.777-35.915-45.842h-31.262c20.617 5.065 35.915 23.663 35.915 45.842z" fill="#c57a44"/></g><path d="m324 185.76h-136c-5.523 0-10 4.477-10 10v22.925c0 5.523 4.477 10 10 10h46.202c4.637-7.124 12.665-11.838 21.798-11.838 9.134 0 17.161 4.714 21.798 11.838h46.202c5.523 0 10-4.477 10-10v-22.925c0-5.522-4.477-10-10-10z" fill="#fe646f"/><g><path d="m324 185.76h-40c5.523 0 10 4.477 10 10v22.925c0 5.523-4.477 10-10 10h40c5.523 0 10-4.477 10-10v-22.925c0-5.522-4.477-10-10-10z" fill="#fd4755"/></g><g><circle cx="256" cy="242.844" fill="#ffd15b" r="25.997"/></g><g><path d="m256 216.847c-3.737 0-7.287.795-10.498 2.214 9.127 4.035 15.498 13.162 15.498 23.783s-6.372 19.748-15.498 23.783c3.212 1.42 6.761 2.214 10.498 2.214 14.358 0 25.997-11.639 25.997-25.997 0-14.357-11.639-25.997-25.997-25.997z" fill="#ffc344"/></g><g><g><path d="m168.912 488.88c0-10.402 7.419-19.33 17.641-21.229l.817-.152v-85.669c-5.312-5.499-12.758-8.924-21.008-8.924-18.453 0-32.518 16.523-29.572 34.739l9.545 59.022h-16.154c-10.502 1.952-18.459 11.146-18.459 22.213v10.62c0 2.761 2.239 5 5 5h52.19z" fill="#c57a44"/></g><g><path d="m381.819 466.667h-16.154l9.545-59.022c2.946-18.216-11.119-34.739-29.572-34.739-8.25 0-15.695 3.425-21.008 8.924v85.668l.817.152c10.222 1.899 17.641 10.828 17.641 21.229v15.62h52.19c2.761 0 5-2.239 5-5v-10.62c0-11.066-7.957-20.26-18.459-22.212z" fill="#c57a44"/></g></g><g><path d="m211.856 104.8c4.142 0 7.5-3.358 7.5-7.5v-11.216c0-4.142-3.358-7.5-7.5-7.5s-7.5 3.358-7.5 7.5v11.216c0 4.142 3.358 7.5 7.5 7.5z"/><path d="m300.144 104.8c4.142 0 7.5-3.358 7.5-7.5v-11.216c0-4.142-3.358-7.5-7.5-7.5s-7.5 3.358-7.5 7.5v11.216c0 4.142 3.357 7.5 7.5 7.5z"/><path d="m383.189 459.293c-.452-.084-.911-.126-1.37-.126h-7.344l2.19-13.542c.661-4.089-2.118-7.94-6.207-8.601-4.087-.658-7.94 2.118-8.601 6.207l-3.597 22.24c-.351 2.17.268 4.385 1.693 6.059s3.513 2.639 5.711 2.639h15.394c6.828 1.56 11.72 7.651 11.72 14.713v8.118h-41.19v-8.12c0-12.32-7.469-23.157-18.458-27.758v-76.717c3.645-2.582 7.983-3.999 12.508-3.999 6.593 0 12.826 2.879 17.1 7.9s6.122 11.633 5.069 18.14l-.361 2.23c-.662 4.089 2.117 7.94 6.206 8.602.406.065.809.097 1.208.097 3.614 0 6.798-2.62 7.395-6.303l.361-2.231c1.755-10.856-1.326-21.885-8.455-30.259-2.963-3.481-6.496-6.334-10.397-8.492v-96.564c0-18.836-9.565-35.899-24.796-45.818 1.597-2.639 2.534-5.72 2.534-9.024v-22.924c0-6.36-3.421-11.921-8.509-14.986l23.951-73.713 15.526 9.321c2.737 1.644 5.759 2.467 8.785 2.467 2.883 0 5.771-.748 8.418-2.246 5.426-3.071 8.666-8.628 8.666-14.863v-50.575c0-18.66-11.894-35.165-29.595-41.068l-23.543-7.852c-14.085-4.697-29.386-1.926-40.93 7.415l-6.794 5.499c-26.289-12.321-56.659-12.32-82.948 0l-6.794-5.498c-11.543-9.34-26.844-12.112-40.93-7.414l-23.543 7.852c-17.702 5.904-29.595 22.408-29.595 41.068v50.576c0 6.235 3.24 11.792 8.666 14.863 2.648 1.499 5.534 2.247 8.418 2.246 3.026 0 6.048-.824 8.785-2.467l15.526-9.322 23.95 73.712c-5.088 3.064-8.509 8.626-8.509 14.986v22.925c0 3.303.937 6.385 2.534 9.024-15.231 9.92-24.796 26.982-24.796 45.818v28.472c0 4.142 3.358 7.5 7.5 7.5s7.5-3.358 7.5-7.5v-28.473c0-16.806 10.489-31.667 26.215-37.342h33.717c-.436 2.153-.667 4.379-.667 6.659 0 18.47 15.027 33.497 33.497 33.497s33.497-15.027 33.497-33.497c0-2.279-.231-4.506-.667-6.659h33.717c15.725 5.675 26.215 20.536 26.215 37.342v92.023c-1.035-.086-2.076-.144-3.125-.144-4.319 0-8.54.76-12.508 2.199v-20.809c0-4.142-3.358-7.5-7.5-7.5s-7.5 3.358-7.5 7.5v119.871c0 3.614 2.577 6.713 6.129 7.374 7.144 1.328 12.329 7.569 12.329 14.839v8.12h-50.112v-150.204c0-4.142-3.358-7.5-7.5-7.5s-7.5 3.358-7.5 7.5v150.204h-30.953v-150.204c0-4.142-3.358-7.5-7.5-7.5s-7.5 3.358-7.5 7.5v150.204h-50.112v-8.12c0-7.271 5.185-13.512 12.329-14.839 3.553-.66 6.129-3.76 6.129-7.374v-119.871c0-4.142-3.358-7.5-7.5-7.5s-7.5 3.358-7.5 7.5v20.819c-3.968-1.442-8.187-2.209-12.508-2.209-1.049 0-2.089.057-3.125.144v-28.55c0-4.142-3.358-7.5-7.5-7.5s-7.5 3.358-7.5 7.5v33.091c-3.901 2.158-7.434 5.011-10.397 8.492-7.129 8.374-10.21 19.403-8.455 30.259l8.138 50.325h-7.344c-.459 0-.918.042-1.37.126-14.248 2.647-24.589 15.09-24.589 29.586v10.62c0 6.893 5.607 12.5 12.5 12.5h278.557c6.893 0 12.5-5.607 12.5-12.5v-10.62c0-14.495-10.34-26.938-24.589-29.586zm-69.485-437.974c7.543-6.104 17.544-7.915 26.748-4.846l23.543 7.852c11.569 3.858 19.341 14.644 19.341 26.839v50.576c0 1.002-.574 1.537-1.055 1.809-.481.273-1.234.489-2.094-.027l-18.626-11.182c3.972-16.925-2.496-34.643-16.764-45.01l-31.162-22.64c-.726-.527-1.464-1.028-2.201-1.533zm-29.283 4.628c7.139 2.61 14.008 6.236 20.396 10.877l31.161 22.64c9.996 7.263 14.146 20.037 10.328 31.787l-28.271 87.009h-19.978c1.906-5.033 2.912-10.393 2.912-15.803v-21.559c0-9.25-2.815-18.151-8.142-25.741-5.5-7.838-8.408-17.283-8.408-27.314v-61.896zm-133.981 66.393-18.628 11.184c-.858.516-1.612.3-2.094.027-.481-.272-1.055-.807-1.055-1.809v-50.577c0-12.195 7.772-22.98 19.341-26.839l23.543-7.852c9.204-3.068 19.205-1.259 26.748 4.845l2.27 1.837c-.736.505-1.474 1.005-2.2 1.532l-31.161 22.642c-14.269 10.366-20.737 28.086-16.764 45.01zm15.253-1.089c-3.818-11.75.333-24.524 10.328-31.787l31.162-22.64c6.389-4.641 13.257-8.267 20.396-10.877v11.053c0 4.142 3.358 7.5 7.5 7.5s7.5-3.358 7.5-7.5v-14.981c8.888-1.461 17.955-1.461 26.843 0v65.824c0 13.131 3.849 25.556 11.129 35.93 3.546 5.053 5.42 10.975 5.42 17.125v21.559c0 5.658-1.563 11.059-4.549 15.803h-17.922v-26.847l8.99-11.059c2.728-3.356 3.269-7.867 1.41-11.772s-5.7-6.332-10.024-6.332h-15.751c-4.325 0-8.166 2.426-10.024 6.332s-1.318 8.416 1.41 11.772l8.99 11.06v26.847h-17.921c-2.986-4.744-4.549-10.146-4.549-15.804v-21.559c0-6.15 1.874-12.072 5.42-17.125 7.281-10.375 11.129-22.799 11.129-35.93v-15.843c0-4.142-3.358-7.5-7.5-7.5s-7.5 3.358-7.5 7.5v15.843c0 10.031-2.907 19.476-8.408 27.314-5.326 7.59-8.142 16.491-8.142 25.741v21.559c0 5.411 1.006 10.771 2.912 15.804h-19.978zm90.307 170.09c-10.199 0-18.497-8.298-18.497-18.497s8.298-18.497 18.497-18.497 18.497 8.297 18.497 18.497-8.298 18.497-18.497 18.497zm70.5-42.655c0 1.378-1.122 2.5-2.5 2.5h-42.477c-6.149-7.235-15.306-11.838-25.523-11.838s-19.374 4.603-25.523 11.838h-42.477c-1.378 0-2.5-1.122-2.5-2.5v-22.926c0-1.378 1.122-2.5 2.5-2.5h136c1.378 0 2.5 1.122 2.5 2.5zm-166.088 270.194v8.12h-41.19v-8.12c0-7.062 4.892-13.153 11.72-14.713h15.394c2.198 0 4.286-.964 5.711-2.638s2.044-3.889 1.693-6.059l-9.545-59.022c-1.053-6.508.795-13.121 5.069-18.141s10.506-7.9 17.1-7.9c4.525 0 8.863 1.417 12.508 3.999v76.717c-10.991 4.6-18.46 15.437-18.46 27.757z"/></g></g></svg>