<svg id="Capa_1" enable-background="new 0 0 497 497" height="512" viewBox="0 0 497 497" width="512" xmlns="http://www.w3.org/2000/svg"><g><path d="m410.185 454.25h-318.685l-3.685-.989c-5.697 0-10.315-4.618-10.315-10.315l1-23.697h338.339l3.661 15v9.685c0 5.698-4.618 10.316-10.315 10.316z" fill="#e8e8e8"/><path d="m420.5 419.25v15h-316c-7.18 0-13 5.82-13 13v7h-4.69c-5.694 0-10.31-4.616-10.31-10.31v-24.69l172-7.383z" fill="#d8d8d8"/><path d="m56.84 86.746c-33.009 42.173-52.184 95.28-52.184 152.981 0 70.584 28.028 129.552 75.303 174.782l338.532 2.89c5.268-5.04 16.916-13.941 16.916-13.941 38.347-43.721 61.593-101.011 61.593-163.73 0-57.825-19.759-111.035-52.896-153.251l-194.37-8.848z" fill="#f8f7f7"/><path d="m435.586 403.254c-4.86 5.56-9.756 10.896-15.086 15.996h-344c-47.28-45.23-76.5-108.94-76.5-179.52 0-57.7 19.68-110.81 52.68-152.98l12.086-9.122 7.964 9.112-12.09 16c-29.23 39.93-44.64 87.13-44.64 136.99 0 32.29 6.49 63.53 19.29 92.87 10.337 23.677 24.363 45.208 41.797 64.182 3.789 4.123 9.136 6.468 14.736 6.468z" fill="#e8e8e8"/><path d="m463.5 241.5c0 48.4-16.65 87.77-40.92 120.23-3.08 4.12-6.62 7.76-10.55 10.91h-.01c-13.9-7.71-32.48-10.65-56.02-15.39-47.75-9.62-89.2 2.71-107.15 9.13-32.08-18.17-79.77-35.02-128.85-20.13-18.53 5.62-33.58 9.35-45.29 18.12-.57-.67 2.32-4.767 1.79-5.457-23.54-30.9-37.826-69.913-37.826-117.413 0-33.52 3.588-62.936 17.284-91.211.668-1.38 2.086-2.25 3.618-2.244 5.094.02 12.072-1.149 12.072-1.149 17.848 3.359 24.217 12.797 49.511 12.854 31.84 0 31.84-14 63.67-14s31.83 14 63.66 14c31.84 0 31.84-14 63.67-14s31.83 14 63.67 14c30.412.041 33.352-13.834 62.676-14.018 1.536-.01 2.958.861 3.628 2.244 13.696 28.274 21.367 60.007 21.367 93.524z" fill="#bde4ff"/><g><g fill="#afefa5"><path d="m171.5 335.058c3.248-4.362 7-10.673 7-20.805 0-11.953-5.222-18.589-8.677-22.979-2.553-3.244-3.323-4.223-3.323-7.519 0-3.297.771-4.277 3.323-7.521 3.455-4.391 8.677-11.027 8.677-22.981s-5.222-18.589-8.676-22.98c-2.554-3.245-3.324-4.224-3.324-7.522 0-4.729-2.627-8.845-6.501-10.969 0 0-3.825-1.011-5.999-1.011-6.903 0-11.248 5.076-11.248 11.979 0 11.954 5.67 18.664 9.125 23.055 2.553 3.245 3.323 4.224 3.323 7.521 0 3.298-.771 4.277-3.324 7.522-3.454 4.391-9.743 10.918-9.743 22.872 0 11.953 6.412 18.802 9.867 23.192 2.553 3.244 3.323 4.223 3.323 7.52 0 3.295-.771 4.274-3.323 7.518-2.5 3.177-6.596 7.799-8.298 14.491l-3.743 12.267 24.881-2.676z"/><path d="m232 349.25.011-.141c.392-5.221-.505-10.406-2.132-15.382-.27-.826-.378-1.736-.378-2.972 0-3.297.771-4.277 3.323-7.521 3.455-4.391 8.677-11.027 8.677-22.981s-5.222-18.589-8.676-22.98c-2.554-3.245-3.324-4.224-3.324-7.522 0-4.716-2.612-8.823-6.469-10.951 0 0-4.375-1.17-6.878-1.005-6.762.446-10.784 5.91-10.662 12.686.207 11.496 5.964 18.081 9.348 22.382 2.553 3.245 3.323 4.224 3.323 7.521 0 3.298-.771 4.277-3.324 7.522-3.454 4.391-8.532 11.06-8.532 23.013 0 4.086.61 7.551 1.552 10.518l2.009 11.972 20.807 4.624z"/><path d="m91.849 350.931c0-3.296-.771-8.275-3.323-11.52-3.455-4.391-8.732-10.704-8.732-22.657 0-11.954 5.63-19.011 9.084-23.402 2.554-3.245 3.324-4.224 3.324-7.522 0-3.297-.771-4.277-3.323-7.521-3.455-4.391-9.416-10.606-9.416-22.56 0-6.903 4.633-11.704 11.537-11.704 2.157 0 5.958.713 5.958.713 3.897 2.117 6.542 6.245 6.542 10.991 0 3.298.771 4.277 3.324 7.522 3.454 4.391 8.676 11.027 8.676 22.98 0 11.954-5.222 18.59-8.677 22.981-2.553 3.245-3.323 4.224-3.323 7.521 0 3.296.771 4.275 3.323 7.519 2.903 3.69 7.054 8.965 8.306 17.648l1.05 10.495-25.541 7.817z"/></g><path d="m162.18 306.73c2.55 3.25 3.32 4.23 3.32 7.52 0 3.3-.77 4.28-3.32 7.52-2.5 3.18-5.93 7.53-7.63 14.22l-2.32 11.4-12.27 1.32 2.59-12.72c1.7-6.69 5.13-11.04 7.63-14.22 2.55-3.24 3.32-4.22 3.32-7.52 0-3.29-.77-4.27-3.32-7.52-3.46-4.39-8.68-11.02-8.68-22.98 0-11.95 5.22-18.58 8.68-22.98 2.55-3.24 3.32-4.22 3.32-7.52 0-3.29-.77-4.27-3.32-7.52-3.46-4.39-8.68-11.03-8.68-22.98 0-6.9 5.6-12.5 12.5-12.5 2.17 0 4.22.56 6 1.53-3.87 2.13-6.5 6.24-6.5 10.97 0 11.95 5.22 18.59 8.68 22.98 2.55 3.25 3.32 4.23 3.32 7.52 0 3.3-.77 4.28-3.32 7.52-3.46 4.4-8.68 11.03-8.68 22.98 0 11.96 5.22 18.59 8.68 22.98z" fill="#8ce1a4"/><path d="m209.87 353.41-3.82-12.14c-.94-2.96-1.55-6.43-1.55-10.52 0-11.95 5.22-18.58 8.68-22.98 2.55-3.24 3.32-4.22 3.32-7.52 0-3.29-.77-4.27-3.32-7.52-3.39-4.3-8.47-10.75-8.67-22.25-.13-6.78 4.88-12.76 11.64-13.2 2.5-.16 4.86.41 6.88 1.52-4.01 2.28-6.61 6.77-6.52 11.68.2 11.5 5.28 17.95 8.67 22.25 2.55 3.25 3.32 4.23 3.32 7.52 0 3.3-.77 4.28-3.32 7.52-3.46 4.4-8.68 11.03-8.68 22.98 0 4.09.61 7.56 1.55 10.52l3.82 12.14z" fill="#8ce1a4"/><path d="m102.58 356.58-11.94 3.65-.14-8.98c0-3.29-.77-8.27-3.32-11.52-3.46-4.39-8.68-11.02-8.68-22.98 0-11.95 5.22-18.58 8.68-22.98 2.55-3.24 3.32-4.22 3.32-7.52 0-3.29-.77-4.27-3.32-7.52-3.46-4.39-8.68-11.03-8.68-22.98 0-6.9 5.6-12.5 12.5-12.5 2.17 0 4.22.56 6 1.53-3.87 2.13-6.5 6.24-6.5 10.97 0 11.95 5.22 18.59 8.68 22.98 2.55 3.25 3.32 4.23 3.32 7.52 0 3.3-.77 4.28-3.32 7.52-3.46 4.4-8.68 11.03-8.68 22.98 0 11.96 5.22 18.59 8.68 22.98 2.55 3.25 3.32 8.23 3.32 11.52z" fill="#8ce1a4"/></g><path d="m283.48 385.82-161.796-1.806c-17.8 0-32.386-6.667-43.706-20.257 3.817-2.859 9.254-7.844 9.254-7.844 9.37-5.674 20.279-10.874 32.769-14.662 49.08-14.89 96.77 1.96 128.85 20.13 16.039 9.079 28.179 18.489 34.629 24.439z" fill="#d19a6e"/><path d="m410.041 372.64c-10.53 8.44-21.751 11.374-35.541 11.374h-89.991c-6.45-5.95-16.272-13.599-32.312-22.679 5.349-1.913 18.504-6.531 18.504-6.531 21.361-5.243 51.778-9.307 85.299-2.554 21.692 4.368 39.172 11.453 52.659 18.571 0 0 .291 1.214 1.382 1.819z" fill="#d19a6e"/><path d="m87.23 355.91c-4.54 2.75-8.71 5.6-12.52 8.46-.57-.67-1.11-1.35-1.64-2.04-23.54-30.9-39.57-73.33-39.57-120.83 0-33.508 7.667-65.233 21.354-93.5.676-1.397 2.108-2.268 3.66-2.242 4.09.069 9.057.414 13.134 1.138-3.49 7.76-6.349 14.234-6.349 14.234-11.15 25.31-16.8 52.3-16.8 80.37 0 41.16 12.96 80.84 36.47 111.7.593.694-.379-.337 2.261 2.71z" fill="#99dbff"/><g fill="#c38c66"><path d="m283.48 385.82h-162.78c-17.8 0-34.67-7.86-45.99-21.45 3.81-2.86 7.98-5.71 12.52-8.46 8.45 9.49 20.57 14.91 33.47 14.91h143.42l22.591 7.937z"/><path d="m412.02 372.64c-10.53 8.44-23.73 13.18-37.52 13.18h-65.94l-23.996-2.687-20.444-12.313h144.54c1.15.61 2.27 1.22 3.36 1.82z"/><path d="m308.56 385.82-14.418-2.315-10.662 2.315c-6.45-5.95-18.59-15.36-34.63-24.44 5.35-1.91 12.781-4.346 21.851-6.576 9.32 6.11 17.909 12.616 24.309 18.516z"/></g><path d="m295.01 373.32c-.89-.82-1.82-1.65-2.8-2.5h-28.09c5.739 3.934 12.44 8.739 19.36 15h25.08z" fill="#b57f5f"/><g fill="#99dbff"><circle cx="223" cy="202.25" r="18"/><circle cx="412" cy="202.25" r="14"/><circle cx="84" cy="197.25" r="13"/></g><g><path d="m419 256.526v-.033c0-5.855-6.154-9.67-11.398-7.066l-28.371 14.117-13.502 8.957-.826 18.816 14.417 9.553 28.265 14.196c5.245 2.62 11.414-1.195 11.414-7.058 0-10.117-5.165-19.492-13.622-24.91-.605-.387-.605-1.275 0-1.662 8.458-5.419 13.623-14.794 13.623-24.91z" fill="#ff8086"/><path d="m388 282.25c0 6.69-3 13.019-8.68 18.619l-14.42-7.239.83-23.37 13.502-6.717c5.739 5.63 8.768 11.987 8.768 18.707z" fill="#e5646e"/><path d="m377 282.25c0 1.307-.233 2.593-.674 3.852 0 0-1.221 2.116-1.937 3.202-7.931 12.026-34.082 19.737-54.617 19.737-24.45 0-42.803-11.286-42.803-26.791 0-6.259 7.223-16.709 7.223-16.709 8.066-6.896 21-11.366 35.58-11.366 24.45.001 57.228 12.57 57.228 28.075z" fill="#ff8086"/><g fill="#e5646e"><path d="m376.32 286.1c-4.78 13.69-34.16 24.22-56.55 24.22-24.45 0-44.27-12.56-44.27-28.07 0-6.25 3.23-12.03 8.69-16.71-1.1 2.45-1.69 5.04-1.69 7.71 0 15.51 19.82 28.07 44.27 28.07 17.15 0 38.39-6.18 49.55-15.22z"/><path d="m305.52 274.75h-.01c-4.142 0-7.495 3.358-7.495 7.5s3.363 7.5 7.505 7.5c4.143 0 7.5-3.358 7.5-7.5s-3.358-7.5-7.5-7.5z"/></g></g><path d="m452.575 85.325-406.575-1.091c-12.15 0-20.372-7.334-20.372-19.484 0-10.309 15.032-21.348 15.032-21.348 1.71-.426 3.499-.652 5.34-.652h408c12.15 0 22 9.85 22 22 0 2.081-.289 4.095-.829 6.003 0 0-12.527 14.572-22.596 14.572z" fill="#f8f7f7"/><path d="m475.171 70.753c-1.03 3.66-2.991 6.937-5.611 9.557-3.98 3.98-9.48 6.44-15.56 6.44h-408c-12.15 0-22-9.85-22-22 0-6.07 2.46-11.57 6.44-15.56 2.77-2.77 6.291-4.808 10.221-5.788-.43 1.71-.661 3.508-.661 5.348 0 12.15 9.85 22 22 22z" fill="#e8e8e8"/></g></svg>