<svg id="Capa_1" enable-background="new 0 0 512 512" height="512" viewBox="0 0 512 512" width="512" xmlns="http://www.w3.org/2000/svg"><g><g><path d="m417.685 461.75h-318.685l-3.685-.989c-5.697 0-10.315-4.618-10.315-10.315l1-23.697h338.339l3.661 15v9.685c0 5.698-4.618 10.316-10.315 10.316z" fill="#e8e8e8"/><path d="m428 426.75v15h-316c-7.18 0-13 5.82-13 13v7h-4.69c-5.694 0-10.31-4.616-10.31-10.31v-24.69l172-7.383z" fill="#d8d8d8"/><path d="m64.34 94.246c-33.009 42.173-52.184 95.28-52.184 152.981 0 70.584 28.028 129.552 75.303 174.782l338.532 2.89c5.268-5.04 16.916-13.941 16.916-13.941 38.348-43.721 61.593-101.012 61.593-163.73 0-57.825-19.759-111.035-52.896-153.251l-194.37-8.848z" fill="#f8f7f7"/><path d="m443.086 410.754c-4.86 5.56-9.756 10.896-15.086 15.996h-344c-47.28-45.23-76.5-108.94-76.5-179.52 0-57.7 19.68-110.81 52.68-152.98l12.086-9.122 7.964 9.112-12.09 16c-29.23 39.93-44.64 87.13-44.64 136.99 0 32.29 6.49 63.53 19.29 92.87 10.337 23.677 24.363 45.208 41.797 64.182 3.789 4.123 9.136 6.468 14.736 6.468z" fill="#e8e8e8"/><path d="m471 249c0 48.4-16.65 87.77-40.92 120.23-3.08 4.12-6.62 7.76-10.55 10.91h-.01c-13.9-7.71-32.48-10.65-56.02-15.39-47.75-9.62-89.2 2.71-107.15 9.13-32.08-18.17-79.77-35.02-128.85-20.13-18.53 5.62-33.58 9.35-45.29 18.12-.57-.67 2.32-4.767 1.79-5.457-23.54-30.9-37.826-69.913-37.826-117.413 0-33.52 3.588-62.936 17.284-91.211.668-1.38 2.086-2.25 3.618-2.244 5.094.02 12.072-1.149 12.072-1.149 17.848 3.359 24.217 12.797 49.511 12.854 31.84 0 31.84-14 63.67-14s31.83 14 63.66 14c31.84 0 31.84-14 63.67-14s31.83 14 63.67 14c30.412.041 33.352-13.834 62.676-14.018 1.536-.01 2.958.861 3.628 2.244 13.696 28.274 21.367 60.007 21.367 93.524z" fill="#bde4ff"/><g><g fill="#afefa5"><path d="m179 342.558c3.248-4.362 7-10.673 7-20.805 0-11.953-5.222-18.589-8.677-22.979-2.553-3.244-3.323-4.223-3.323-7.519 0-3.297.771-4.277 3.323-7.521 3.455-4.391 8.677-11.027 8.677-22.981s-5.222-18.589-8.676-22.98c-2.554-3.245-3.324-4.224-3.324-7.522 0-4.729-2.627-8.845-6.501-10.969 0 0-3.825-1.011-5.999-1.011-6.903 0-11.248 5.076-11.248 11.979 0 11.954 5.67 18.664 9.125 23.055 2.553 3.245 3.323 4.224 3.323 7.521 0 3.298-.771 4.277-3.324 7.522-3.454 4.391-9.743 10.918-9.743 22.872 0 11.953 6.412 18.802 9.867 23.192 2.553 3.244 3.323 4.223 3.323 7.52 0 3.295-.771 4.274-3.323 7.518-2.5 3.177-6.596 7.799-8.298 14.491l-3.743 12.267 24.881-2.676z"/><path d="m239.5 356.75.011-.141c.392-5.221-.505-10.406-2.132-15.382-.27-.826-.378-1.736-.378-2.972 0-3.297.771-4.277 3.323-7.521 3.455-4.391 8.677-11.027 8.677-22.981s-5.222-18.589-8.676-22.98c-2.554-3.245-3.324-4.224-3.324-7.522 0-4.716-2.612-8.823-6.469-10.951 0 0-4.375-1.17-6.878-1.005-6.762.446-10.784 5.91-10.662 12.686.207 11.496 5.964 18.081 9.348 22.382 2.553 3.245 3.323 4.224 3.323 7.521 0 3.298-.771 4.277-3.324 7.522-3.454 4.391-8.532 11.06-8.532 23.013 0 4.086.61 7.551 1.552 10.518l2.009 11.972 20.807 4.624z"/><path d="m99.349 358.431c0-3.296-.771-8.275-3.323-11.52-3.455-4.391-8.732-10.704-8.732-22.657 0-11.954 5.63-19.011 9.084-23.402 2.554-3.245 3.324-4.224 3.324-7.522 0-3.297-.771-4.277-3.323-7.521-3.455-4.391-9.416-10.606-9.416-22.56 0-6.903 4.633-11.704 11.537-11.704 2.157 0 5.958.713 5.958.713 3.897 2.117 6.542 6.245 6.542 10.991 0 3.298.771 4.277 3.324 7.522 3.454 4.391 8.676 11.027 8.676 22.98 0 11.954-5.222 18.59-8.677 22.981-2.553 3.245-3.323 4.224-3.323 7.521 0 3.296.771 4.275 3.323 7.519 2.903 3.69 7.054 8.965 8.306 17.648l1.05 10.495-25.541 7.817z"/></g><path d="m169.68 314.23c2.55 3.25 3.32 4.23 3.32 7.52 0 3.3-.77 4.28-3.32 7.52-2.5 3.18-5.93 7.53-7.63 14.22l-2.32 11.4-12.27 1.32 2.59-12.72c1.7-6.69 5.13-11.04 7.63-14.22 2.55-3.24 3.32-4.22 3.32-7.52 0-3.29-.77-4.27-3.32-7.52-3.46-4.39-8.68-11.02-8.68-22.98 0-11.95 5.22-18.58 8.68-22.98 2.55-3.24 3.32-4.22 3.32-7.52 0-3.29-.77-4.27-3.32-7.52-3.46-4.39-8.68-11.03-8.68-22.98 0-6.9 5.6-12.5 12.5-12.5 2.17 0 4.22.56 6 1.53-3.87 2.13-6.5 6.24-6.5 10.97 0 11.95 5.22 18.59 8.68 22.98 2.55 3.25 3.32 4.23 3.32 7.52 0 3.3-.77 4.28-3.32 7.52-3.46 4.4-8.68 11.03-8.68 22.98 0 11.96 5.22 18.59 8.68 22.98z" fill="#8ce1a4"/><path d="m217.37 360.91-3.82-12.14c-.94-2.96-1.55-6.43-1.55-10.52 0-11.95 5.22-18.58 8.68-22.98 2.55-3.24 3.32-4.22 3.32-7.52 0-3.29-.77-4.27-3.32-7.52-3.39-4.3-8.47-10.75-8.67-22.25-.13-6.78 4.88-12.76 11.64-13.2 2.5-.16 4.86.41 6.88 1.52-4.01 2.28-6.61 6.77-6.52 11.68.2 11.5 5.28 17.95 8.67 22.25 2.55 3.25 3.32 4.23 3.32 7.52 0 3.3-.77 4.28-3.32 7.52-3.46 4.4-8.68 11.03-8.68 22.98 0 4.09.61 7.56 1.55 10.52l3.82 12.14z" fill="#8ce1a4"/><path d="m110.08 364.08-11.94 3.65-.14-8.98c0-3.29-.77-8.27-3.32-11.52-3.46-4.39-8.68-11.02-8.68-22.98 0-11.95 5.22-18.58 8.68-22.98 2.55-3.24 3.32-4.22 3.32-7.52 0-3.29-.77-4.27-3.32-7.52-3.46-4.39-8.68-11.03-8.68-22.98 0-6.9 5.6-12.5 12.5-12.5 2.17 0 4.22.56 6 1.53-3.87 2.13-6.5 6.24-6.5 10.97 0 11.95 5.22 18.59 8.68 22.98 2.55 3.25 3.32 4.23 3.32 7.52 0 3.3-.77 4.28-3.32 7.52-3.46 4.4-8.68 11.03-8.68 22.98 0 11.96 5.22 18.59 8.68 22.98 2.55 3.25 3.32 8.23 3.32 11.52z" fill="#8ce1a4"/></g><path d="m290.98 393.32-161.796-1.806c-17.8 0-32.386-6.667-43.706-20.257 3.817-2.859 9.254-7.844 9.254-7.844 9.37-5.674 20.279-10.874 32.769-14.662 49.08-14.89 96.77 1.96 128.85 20.13 16.039 9.079 28.179 18.489 34.629 24.439z" fill="#d19a6e"/><path d="m417.541 380.14c-10.53 8.44-21.751 11.374-35.541 11.374h-89.991c-6.45-5.95-16.272-13.599-32.312-22.679 5.349-1.913 18.504-6.531 18.504-6.531 21.361-5.243 51.778-9.307 85.299-2.554 21.692 4.368 39.172 11.453 52.659 18.571 0 0 .291 1.214 1.382 1.819z" fill="#d19a6e"/><path d="m94.73 363.41c-4.54 2.75-8.71 5.6-12.52 8.46-.57-.67-1.11-1.35-1.64-2.04-23.54-30.9-39.57-73.33-39.57-120.83 0-33.508 7.667-65.233 21.354-93.5.676-1.397 2.108-2.268 3.66-2.242 4.09.069 9.057.414 13.134 1.138-3.49 7.76-6.349 14.234-6.349 14.234-11.149 25.31-16.799 52.3-16.799 80.37 0 41.16 12.96 80.84 36.47 111.7.592.694-.38-.337 2.26 2.71z" fill="#99dbff"/><g fill="#c38c66"><path d="m290.98 393.32h-162.78c-17.8 0-34.67-7.86-45.99-21.45 3.81-2.86 7.98-5.71 12.52-8.46 8.45 9.49 20.57 14.91 33.47 14.91h143.42l22.591 7.937z"/><path d="m419.52 380.14c-10.53 8.44-23.73 13.18-37.52 13.18h-65.94l-23.996-2.687-20.444-12.313h144.54c1.15.61 2.27 1.22 3.36 1.82z"/><path d="m316.06 393.32-14.418-2.315-10.662 2.315c-6.45-5.95-18.59-15.36-34.63-24.44 5.35-1.91 12.781-4.346 21.851-6.576 9.32 6.11 17.909 12.616 24.309 18.516z"/></g><path d="m302.51 380.82c-.89-.82-1.82-1.65-2.8-2.5h-28.09c5.739 3.934 12.44 8.739 19.36 15h25.08z" fill="#b57f5f"/><g fill="#99dbff"><circle cx="230.5" cy="209.75" r="18"/><circle cx="419.5" cy="209.75" r="14"/><circle cx="91.5" cy="204.75" r="13"/></g><g><path d="m426.5 264.026v-.033c0-5.855-6.154-9.67-11.398-7.066l-28.371 14.117-13.502 8.956-.826 18.816 14.417 9.553 28.265 14.196c5.245 2.62 11.414-1.195 11.414-7.058 0-10.117-5.165-19.492-13.622-24.91-.605-.387-.605-1.275 0-1.662 8.458-5.418 13.623-14.793 13.623-24.909z" fill="#ff8086"/><path d="m395.5 289.75c0 6.69-3 13.019-8.68 18.619l-14.42-7.239.83-23.37 13.502-6.717c5.739 5.63 8.768 11.987 8.768 18.707z" fill="#e5646e"/><path d="m384.5 289.75c0 1.307-.233 2.593-.674 3.852 0 0-1.221 2.116-1.937 3.202-7.931 12.026-34.082 19.737-54.617 19.737-24.45 0-42.803-11.286-42.803-26.791 0-6.259 7.223-16.709 7.223-16.709 8.066-6.896 21-11.366 35.58-11.366 24.45.001 57.228 12.57 57.228 28.075z" fill="#ff8086"/><path d="m383.82 293.6c-4.78 13.69-34.16 24.22-56.55 24.22-24.45 0-44.27-12.56-44.27-28.07 0-6.25 3.23-12.03 8.69-16.71-1.1 2.45-1.69 5.04-1.69 7.71 0 15.51 19.82 28.07 44.27 28.07 17.15 0 38.39-6.18 49.55-15.22z" fill="#e5646e"/></g><path d="m460.075 92.825-406.575-1.091c-12.15 0-20.372-7.334-20.372-19.484 0-10.309 15.032-21.348 15.032-21.348 1.709-.426 3.498-.652 5.339-.652h408c12.15 0 22 9.85 22 22 0 2.081-.289 4.095-.829 6.003.001 0-12.526 14.572-22.595 14.572z" fill="#f8f7f7"/><path d="m482.671 78.253c-1.03 3.66-2.991 6.937-5.611 9.557-3.98 3.98-9.48 6.44-15.56 6.44h-408c-12.15 0-22-9.85-22-22 0-6.07 2.46-11.57 6.44-15.56 2.77-2.77 6.291-4.808 10.221-5.788-.43 1.71-.661 3.508-.661 5.348 0 12.15 9.85 22 22 22z" fill="#e8e8e8"/></g><g><path d="m511.934 241.363c-.095-4.141-3.54-7.438-7.668-7.328-4.142.094-7.422 3.527-7.328 7.668.042 1.836.062 3.677.062 5.524 0 65.501-25.558 126.47-72.036 172.022h-337.928c-46.478-45.551-72.036-106.52-72.036-172.021 0-53.135 16.896-103.355 48.883-145.478h384.245c23.665 31.202 39.455 67.931 45.729 106.456.6 3.68 3.781 6.295 7.394 6.295.4 0 .807-.032 1.214-.099 4.089-.666 6.863-4.52 6.197-8.608-6.094-37.426-20.643-73.251-42.305-104.451 13.962-2.323 24.643-14.481 24.643-29.093 0-16.267-13.233-29.5-29.5-29.5h-282.606c-4.143 0-7.5 3.358-7.5 7.5s3.357 7.5 7.5 7.5h282.606c7.995 0 14.5 6.505 14.5 14.5s-6.505 14.5-14.5 14.5h-408c-7.995 0-14.5-6.505-14.5-14.5s6.505-14.5 14.5-14.5h90.394c4.143 0 7.5-3.358 7.5-7.5s-3.357-7.5-7.5-7.5h-90.394c-16.267 0-29.5 13.233-29.5 29.5 0 13.684 9.365 25.218 22.022 28.537-30.147 43.028-46.022 93.366-46.022 146.441 0 35.577 7.113 69.982 21.144 102.259 13.151 30.256 31.777 57.286 55.356 80.412v21.536c0 9.823 7.991 17.815 17.814 17.815h323.37c9.823 0 17.815-7.992 17.815-17.815v-21.536c23.58-23.127 42.206-50.157 55.356-80.412 14.032-32.278 21.145-66.682 21.145-102.259 0-1.96-.022-3.916-.066-5.865zm-94.249 212.887h-323.371c-1.552 0-2.814-1.263-2.814-2.815v-17.185h329v17.185c0 1.552-1.263 2.815-2.815 2.815z"/><path d="m229.5 393.319c0 4.142 3.357 7.5 7.5 7.5h144.998c15.269 0 30.038-5.268 41.848-14.566.256-.181.5-.379.734-.593 4.277-3.465 8.155-7.462 11.504-11.941 28.146-37.635 42.416-79.598 42.416-124.722 0-34.813-7.82-68.154-23.244-99.095-1.269-2.546-3.868-4.154-6.712-4.154-15.825-.481-29.04 4.05-36.398 7.636-7.767 3.416-14.475 6.365-28.815 6.365s-21.049-2.95-28.815-6.365c-8.138-3.579-17.36-7.635-34.854-7.635-17.493 0-26.716 4.056-34.854 7.635-7.767 3.416-14.474 6.365-28.814 6.365s-21.047-2.95-28.812-6.365c-8.137-3.579-17.359-7.635-34.853-7.635-17.492 0-26.714 4.056-34.851 7.635-7.766 3.416-14.473 6.365-28.812 6.365-14.34 0-21.048-2.95-28.813-6.365-7.403-3.504-19.555-7.989-36.396-7.636-2.844 0-5.443 1.609-6.712 4.154-15.425 30.942-23.245 64.283-23.245 99.097 0 46.055 14.599 90.58 41.107 125.372 12.617 16.562 32.65 26.449 53.59 26.449h73.803c4.143 0 7.5-3.358 7.5-7.5s-3.357-7.5-7.5-7.5h-73.803c-12.731 0-25.012-4.708-34.453-12.899 11.29-7.467 23.342-13.174 35.934-16.994 58.963-17.886 113.826 10.615 140.151 29.893h-32.829c-4.143-.001-7.5 3.357-7.5 7.499zm-128.93-50.723c-3.15-4.003-7.07-8.985-7.07-18.341 0-9.355 3.919-14.337 7.07-18.343 2.861-3.637 4.93-6.265 4.93-12.16 0-5.894-2.067-8.522-4.93-12.16-3.15-4.004-7.07-8.986-7.07-18.343 0-2.757 2.243-5 5-5s5 2.243 5 5c0 5.895 2.068 8.522 4.932 12.162 3.149 4.003 7.068 8.986 7.068 18.341 0 9.356-3.92 14.339-7.071 18.344-2.861 3.637-4.929 6.265-4.929 12.159 0 5.893 2.067 8.52 4.93 12.157 1.879 2.388 4.088 5.206 5.529 9.128-3.294 1.299-6.55 2.714-9.761 4.249-.734-2.426-1.867-4.956-3.628-7.193zm61.844-7.196c2.642-3.496 5.925-6.724 6.086-13.647 0-5.893-2.067-8.521-4.93-12.158-3.15-4.003-7.07-8.985-7.07-18.341 0-9.355 3.919-14.337 7.07-18.343 2.861-3.637 4.93-6.265 4.93-12.16 0-5.894-2.067-8.522-4.93-12.16-3.15-4.004-7.07-8.986-7.07-18.343 0-2.757 2.243-5 5-5s5 2.243 5 5c0 5.895 2.068 8.523 4.932 12.162 3.149 4.003 7.068 8.986 7.068 18.341 0 9.356-3.92 14.339-7.071 18.343-2.861 3.637-4.929 6.265-4.929 12.159 0 5.893 2.067 8.52 4.93 12.157 3.149 4.003 7.07 8.985 7.07 18.341 0 6.11-1.687 10.369-3.719 13.685-4.143-.172-8.268-.191-12.367-.036zm57.086 2.855c0-9.355 3.919-14.337 7.07-18.343 2.861-3.637 4.93-6.265 4.93-12.16 0-5.894-2.067-8.522-4.93-12.16-3.075-3.909-6.903-8.773-7.064-17.748-.053-2.906 2.029-5.411 4.641-5.583 1.409-.097 2.748.381 3.769 1.337 1.022.957 1.585 2.253 1.585 3.651 0 5.895 2.068 8.523 4.932 12.162 3.149 4.003 7.068 8.986 7.068 18.341 0 9.356-3.92 14.339-7.071 18.343-2.861 3.637-4.929 6.265-4.929 12.159 0 2.079.23 3.713.75 5.304.469 1.433.839 2.834 1.13 4.205-3.786-1.484-7.576-2.835-11.367-4.056-.333-1.72-.514-3.517-.514-5.452zm54.712 32.345c13.657-3.831 27.668-6.136 41.813-6.866 3.48-.18 6.517-2.619 7.141-6.048.906-4.98-3.007-9.195-7.75-8.94-19.734 1.002-39.223 4.85-57.956 11.424-3.313-1.862-6.776-3.694-10.371-5.466.064-4.95-.766-10.153-2.486-15.504-.027-.194-.081-.061-.102-.943-.001-.415.134-.822.38-1.156.355-.484.865-1.132 1.336-1.73 3.846-4.888 10.282-13.068 10.282-27.618 0-14.547-6.435-22.728-10.282-27.619-.676-.859-1.435-1.822-1.696-2.251.07-4.471-1.76-10.75-6.354-15.233-4.021-3.766-9.481-5.718-15.007-5.355-10.657.703-18.85 9.848-18.652 20.821.253 14.016 6.525 21.989 10.274 26.754.471.599.982 1.248 1.337 1.732.245.334.38.73.379 1.145v.036c-.002.406-.138.795-.378 1.123-.355.484-.868 1.135-1.341 1.737-3.708 4.326-10.76 14.696-10.258 28.812-4.603-1.044-9.197-1.89-13.778-2.541 1.602-4.096 2.757-9.088 2.757-15.158 0-14.55-6.437-22.73-10.283-27.618-.471-.599-.983-1.248-1.338-1.732-.245-.333-.379-.728-.378-1.141 0-.012 0-.025 0-.038.002-.405.138-.793.377-1.119.355-.484.867-1.135 1.339-1.735 3.846-4.888 10.282-13.068 10.282-27.618 0-14.547-6.435-22.728-10.282-27.619-.676-.859-1.435-1.822-1.696-2.251.309-8.59-6.112-17.939-15.159-20.056-13.126-3.113-24.862 6.811-24.862 19.423 0 14.55 6.437 22.73 10.282 27.618.471.6.983 1.25 1.339 1.734.245.333.379.728.378 1.141v.04c-.003.405-.138.793-.377 1.119-.355.484-.868 1.136-1.342 1.738-3.845 4.887-10.279 13.067-10.279 27.615 0 14.55 6.437 22.729 10.283 27.618.471.599.983 1.248 1.338 1.732.245.333.379.728.378 1.141v.035c-.002.405-.138.793-.377 1.119-.355.484-.866 1.133-1.338 1.733-2.222 2.823-5.36 6.814-7.589 12.581-5.406.877-10.751 2.05-16.019 3.53-2.258-6.352-5.673-10.704-7.959-13.609-.471-.598-.982-1.248-1.337-1.731-.245-.334-.379-.729-.378-1.143 0-.012 0-.023 0-.035.002-.405.138-.794.378-1.121.355-.484.867-1.134 1.338-1.734 3.846-4.888 10.282-13.068 10.282-27.618 0-14.547-6.435-22.728-10.282-27.619-.676-.859-1.435-1.822-1.696-2.251.394-10.563-8.785-20.639-20.021-20.632-11.028 0-20 8.972-20 20 0 14.55 6.437 22.73 10.282 27.619.471.599.983 1.249 1.338 1.733.245.334.379.729.378 1.143v.037c-.002.406-.138.794-.378 1.121-.355.484-.868 1.135-1.341 1.737-3.845 4.887-10.279 13.067-10.279 27.615 0 14.55 6.437 22.729 10.282 27.617.814 1.035 1.439 3.163 1.642 5.394-2.241 1.366-4.457 2.789-6.645 4.276-22.78-31.626-35.281-71.393-35.281-112.546 0-30.899 6.602-60.546 19.63-88.199 12.231.4 18.505 3.159 25.683 6.315 8.137 3.579 17.359 7.635 34.853 7.635 17.492 0 26.714-4.056 34.851-7.635 7.766-3.416 14.473-6.365 28.812-6.365 14.34 0 21.048 2.95 28.813 6.365 8.137 3.579 17.359 7.635 34.852 7.635s26.716-4.056 34.854-7.635c7.767-3.416 14.474-6.365 28.814-6.365s21.049 2.95 28.815 6.365c8.138 3.579 17.36 7.635 34.854 7.635s26.717-4.056 34.854-7.635c7.178-3.156 13.451-5.916 25.686-6.315 13.028 27.653 19.63 57.3 19.63 88.199 0 42.403-12.897 80.261-39.428 115.738-1.702 2.276-3.589 4.381-5.613 6.328-16.49-8.557-34.45-14.834-53.478-18.667-4.167-.839-8.414-1.553-12.63-2.123-3.807-.514-7.571 1.751-8.54 5.468-1.16 4.452 1.842 8.77 6.257 9.36 3.988.533 8.009 1.205 11.951 2 14.88 2.997 29.037 7.597 42.249 13.704-6.903 3.239-14.499 5.012-22.27 5.012h-88.784c-4.137-4.072-10.67-9.48-19.003-15.219z"/><path d="m230.5 184.25c-14.061 0-25.5 11.439-25.5 25.5s11.439 25.5 25.5 25.5 25.5-11.439 25.5-25.5-11.439-25.5-25.5-25.5zm0 36c-5.79 0-10.5-4.71-10.5-10.5s4.71-10.5 10.5-10.5 10.5 4.71 10.5 10.5-4.71 10.5-10.5 10.5z"/><path d="m419.5 231.25c11.855 0 21.5-9.645 21.5-21.5s-9.645-21.5-21.5-21.5-21.5 9.645-21.5 21.5 9.645 21.5 21.5 21.5zm0-28c3.584 0 6.5 2.916 6.5 6.5s-2.916 6.5-6.5 6.5-6.5-2.916-6.5-6.5 2.916-6.5 6.5-6.5z"/><path d="m91.5 184.25c-11.304 0-20.5 9.196-20.5 20.5s9.196 20.5 20.5 20.5 20.5-9.196 20.5-20.5-9.196-20.5-20.5-20.5zm0 26c-3.033 0-5.5-2.467-5.5-5.5s2.467-5.5 5.5-5.5 5.5 2.467 5.5 5.5-2.467 5.5-5.5 5.5z"/><path d="m376.77 311.811 34.965 17.464c2.188 1.093 4.541 1.636 6.886 1.636 2.804 0 5.596-.775 8.083-2.313 4.569-2.825 7.297-7.718 7.297-13.09 0-9.717-3.828-18.92-10.396-25.741 6.567-6.823 10.396-16.033 10.396-25.774 0-5.364-2.722-10.253-7.28-13.08-4.559-2.825-10.146-3.089-14.953-.704l-35.086 17.422c-2.554-1.617-5.394-3.148-8.539-4.568-12.324-5.565-27.603-8.888-40.87-8.888-29.03 0-51.771 15.626-51.771 35.575s22.741 35.575 51.771 35.575c13.268 0 28.546-3.322 40.87-8.888 3.181-1.437 6.049-2.988 8.627-4.626zm41.668-48.167c.087-.042.192-.096.378.018.184.114.184.234.184.364 0 7.938-4.291 15.302-11.197 19.216-2.351 1.332-3.803 3.824-3.803 6.525s1.452 5.193 3.803 6.525c6.906 3.914 11.197 11.277 11.197 19.216 0 .097 0 .217-.185.332-.185.113-.293.061-.378.017l-29.948-14.958c2.312-3.543 3.511-7.29 3.511-11.148 0-3.881-1.217-7.65-3.557-11.212zm-127.938 26.106c0-9.731 15.102-20.575 36.771-20.575 23.534 0 49.729 12.264 49.729 20.575s-26.194 20.575-49.729 20.575c-21.669 0-36.771-10.844-36.771-20.575z"/><path d="m313.02 282.25h-.01c-4.142 0-7.495 3.358-7.495 7.5s3.363 7.5 7.505 7.5c4.143 0 7.5-3.358 7.5-7.5s-3.358-7.5-7.5-7.5z"/></g></g></svg>