<svg id="Capa_1" enable-background="new 0 0 512 512" height="512" viewBox="0 0 512 512" width="512" xmlns="http://www.w3.org/2000/svg"><g><path d="m251.401 10.778c-3.35-2.437-8.04-1.696-10.478 1.653l-47.631 65.476h18.549l41.211-56.651c2.439-3.35 1.699-8.041-1.651-10.478z" fill="#ffe177"/><g><g fill="#f2fbff"><path d="m12.204 125.916h218.459v58.509h-218.459z"/><path d="m223.346 443.674c.2-.205.409-.396.611-.598h-211.753v49.279c0 5.69 4.612 10.302 10.302 10.302h143.407z"/></g><g><path d="m189.099 125.916h41.565v58.509h-41.565z" fill="#dff6fd"/><g><path d="m222.533 443.077h-33.434v34.335z" fill="#dff6fd"/></g></g><g><path d="m12.204 183.425h218.459v201.849h-218.459z" fill="#c8effe"/></g><g><path d="m189.099 183.425h41.565v201.849h-41.565z" fill="#99e6fc"/></g><g><path d="m82.601 384.274h148.063v59.802h-148.063z" fill="#0593fc"/></g><path d="m223.346 443.674c2.288-2.349 4.739-4.475 7.318-6.388v-53.011h-41.565v59.802h33.855z" fill="#0182fc"/><g><path d="m12.204 384.274h71.396v59.802h-71.396z" fill="#ffe177"/></g><g><path d="m53.054 384.274h30.546v59.802h-30.546z" fill="#ffd15b"/></g><g><path d="m232.566 126.945h-222.264c-5.69 0-10.302-4.612-10.302-10.302v-29.434c0-5.69 4.612-10.302 10.302-10.302h222.265c5.69 0 10.302 4.612 10.302 10.302v29.435c-.001 5.689-4.613 10.301-10.303 10.301z" fill="#ffe177"/></g><g><path d="m232.566 76.907h-32.451v18.23c0 5.69-4.612 10.302-10.302 10.302h-189.813v11.205c0 5.69 4.612 10.302 10.302 10.302h222.265c5.69 0 10.302-4.612 10.302-10.302v-29.435c-.001-5.69-4.613-10.302-10.303-10.302z" fill="#ffd15b"/></g><g><g><path d="m188.959 282.499-53.145-53.145c-2.254-2.254-5.908-2.254-8.162 0l-41.646 41.646c-2.115 2.115-5.497 2.264-7.789.341l-20.31-17.03c-2.253-1.89-5.688-.287-5.688 2.653v59.231c0 2.941 3.434 4.543 5.688 2.653l20.31-17.03c2.292-1.922 5.674-1.774 7.789.341l41.646 41.646c2.254 2.254 5.908 2.254 8.162 0l53.145-53.145c2.254-2.253 2.254-5.907 0-8.161z" fill="#ffe177"/></g><g><path d="m147.492 241.032c-7.532 13.481-11.839 29.008-11.839 45.548s4.307 32.066 11.839 45.548l41.467-41.467c2.254-2.254 2.254-5.908 0-8.162z" fill="#fff0ad"/></g><g><path d="m157.258 294.27c-4.143 0-7.5-3.357-7.5-7.5v-3.843c0-4.143 3.357-7.5 7.5-7.5s7.5 3.357 7.5 7.5v3.843c0 4.143-3.358 7.5-7.5 7.5z" fill="#685e68"/></g></g><g><g><path d="m489.886 159.683v-33.465c0-18.131-14.698-32.828-32.828-32.828h-142.895c-18.131 0-32.828 14.698-32.828 32.828v33.465z" fill="#0593fc"/></g><g><path d="m457.058 93.39h-42.848c18.131 0 32.828 14.698 32.828 32.828v33.464h42.848v-33.464c0-18.13-14.698-32.828-32.828-32.828z" fill="#0182fc"/></g><path d="m496.547 158.653h-221.874c-8.534 0-15.453 6.918-15.453 15.453v251.917c2.28-.26 4.587-.408 6.919-.408 16.256 0 31.453 6.414 42.793 18.06l57.432 58.983h130.183c8.534 0 15.453-6.918 15.453-15.453v-313.099c0-8.534-6.918-15.453-15.453-15.453z" fill="#fe646f"/><g><path d="m496.547 158.653h-42.753c8.534 0 15.453 6.918 15.453 15.453v313.099c0 8.534-6.918 15.453-15.453 15.453h42.753c8.534 0 15.453-6.919 15.453-15.453v-313.099c0-8.534-6.918-15.453-15.453-15.453z" fill="#fd4755"/></g><g><g><path d="m347.151 331.05c-.598-1.083-.598-2.377 0-3.46 2.023-3.661 4.371-7.074 6.986-10.224-9.799-10.754-23.911-17.506-39.607-17.506-.87 0-1.735.021-2.595.063-3.245.157-5.219 3.674-3.619 6.501 3.611 6.38 6.693 13.655 9.12 21.619.253.829.253 1.724 0 2.553-2.426 7.964-5.508 15.239-9.12 21.619-1.6 2.828.374 6.344 3.619 6.502.86.042 1.725.063 2.595.063 15.696 0 29.808-6.752 39.607-17.506-2.615-3.15-4.963-6.563-6.986-10.224z" fill="#fff0ad"/></g><g><path d="m404.65 292.749c25.096 0 46.932 13.902 58.265 34.418.741 1.342.741 2.965 0 4.307-11.333 20.515-33.169 34.418-58.265 34.418s-46.932-13.902-58.265-34.418c-.741-1.342-.741-2.965 0-4.307 11.333-20.516 33.169-34.418 58.265-34.418z" fill="#ffe177"/></g><g><path d="m462.915 327.167c.741 1.342.741 2.965 0 4.307-8.84 16.002-24.071 27.98-42.254 32.476-7.395-9.586-11.81-21.586-11.81-34.629s4.416-25.043 11.81-34.629c18.183 4.495 33.413 16.472 42.254 32.475z" fill="#fff0ad"/></g><g><path d="m431.781 336.82c-4.143 0-7.5-3.357-7.5-7.5v-6.095c0-4.143 3.357-7.5 7.5-7.5s7.5 3.357 7.5 7.5v6.095c0 4.142-3.357 7.5-7.5 7.5z" fill="#685e68"/></g></g><g><path d="m426.128 254.423h-81.036c-15.87 0-28.854-12.984-28.854-28.854 0-15.87 12.984-28.854 28.854-28.854h81.036c15.87 0 28.854 12.984 28.854 28.854 0 15.87-12.984 28.854-28.854 28.854z" fill="#fff"/></g><g><path d="m426.128 196.716h-32.093c15.869 0 28.854 12.984 28.854 28.854 0 15.869-12.984 28.854-28.854 28.854h32.093c15.87 0 28.854-12.984 28.854-28.854 0-15.87-12.984-28.854-28.854-28.854z" fill="#f2fbff"/></g><g><g><g><path d="m466.998 422.225h-84.194c-4.143 0-7.5-3.357-7.5-7.5s3.357-7.5 7.5-7.5h84.194c4.143 0 7.5 3.357 7.5 7.5s-3.357 7.5-7.5 7.5z" fill="#ffd15b"/></g><g><path d="m466.998 456.46h-84.194c-4.143 0-7.5-3.357-7.5-7.5s3.357-7.5 7.5-7.5h84.194c4.143 0 7.5 3.357 7.5 7.5s-3.357 7.5-7.5 7.5z" fill="#ffd15b"/></g></g><path d="m308.933 443.674 11.31 11.616c2.837 1.108 5.921 1.723 9.15 1.723 13.901 0 25.17-11.269 25.17-25.17s-11.269-25.17-25.17-25.17-25.17 11.269-25.17 25.17c0 3.134.578 6.132 1.624 8.9 1.054.941 2.09 1.909 3.086 2.931z" fill="#ffe177"/><path d="m333.125 431.843c0 9.823-5.636 18.315-13.842 22.462l.954.979c2.839 1.111 5.924 1.729 9.156 1.729 13.901 0 25.17-11.269 25.17-25.17s-11.269-25.17-25.17-25.17c-3.834 0-7.467.861-10.719 2.395 8.54 4.025 14.451 12.708 14.451 22.775z" fill="#ffd15b"/></g><g><path d="m433.495 134.23h-95.77c-4.143 0-7.5-3.357-7.5-7.5s3.357-7.5 7.5-7.5h95.77c4.143 0 7.5 3.357 7.5 7.5s-3.357 7.5-7.5 7.5z" fill="#60b7ff"/></g></g><g><path d="m222.629 442.977-58.112 59.68h203.244l-58.112-59.68c-23.84-24.483-63.179-24.483-87.02 0z" fill="#d88a55"/></g><g><path d="m309.65 442.977c-17.391-17.861-43.026-22.676-64.88-14.478 8.104 3.04 15.692 7.855 22.141 14.478l58.112 59.68h42.739z" fill="#c57a44"/></g><g><g><path d="m296.528 473.323h-2.456c-4.143 0-7.5-3.357-7.5-7.5s3.357-7.5 7.5-7.5h2.456c4.143 0 7.5 3.357 7.5 7.5s-3.357 7.5-7.5 7.5z" fill="#ea9b58"/></g><g><path d="m263.991 463.501h-2.456c-4.143 0-7.5-3.357-7.5-7.5s3.357-7.5 7.5-7.5h2.456c4.143 0 7.5 3.357 7.5 7.5s-3.357 7.5-7.5 7.5z" fill="#ea9b58"/></g><g><path d="m238.207 483.145h-2.456c-4.143 0-7.5-3.357-7.5-7.5s3.357-7.5 7.5-7.5h2.456c4.143 0 7.5 3.357 7.5 7.5s-3.357 7.5-7.5 7.5z" fill="#ea9b58"/></g></g><g><circle cx="181.103" cy="190.178" fill="#a2e62e" r="25.17"/></g><g><path d="m181.103 165.008c-3.845 0-7.487.866-10.747 2.407 8.525 4.032 14.423 12.707 14.423 22.763s-5.899 18.731-14.423 22.763c3.26 1.542 6.902 2.407 10.747 2.407 13.901 0 25.17-11.269 25.17-25.17s-11.269-25.17-25.17-25.17z" fill="#97d729"/></g></g></g></svg>