<svg id="Capa_1" enable-background="new 0 0 512 512" height="512" viewBox="0 0 512 512" width="512" xmlns="http://www.w3.org/2000/svg"><g><g><path d="m22.177 144.397h467.646v274.287h-467.646z" fill="#dff6fd"/></g><g><g><path d="m446.646 417.685h43.177v1h-43.177z" fill="#c8effe"/></g><g><path d="m446.646 144.397h43.177v26.306h-43.177z" fill="#c8effe"/></g></g><path d="m176 170.703v28.234h-90v-28.234h-63.823v246.982h467.646v-246.982z" fill="#60b7ff"/><g><g><path d="m446.646 170.703v206.391c8.414-3.828 17.756-5.972 27.605-5.972 5.363 0 10.576.636 15.572 1.83v-202.25h-43.177z" fill="#26a6fe"/></g></g><g><path d="m499.5 417.685h-487c-2.761 0-5 2.239-5 5v21.379c0 2.761 2.239 5 5 5h487c2.761 0 5-2.239 5-5v-21.379c0-2.762-2.239-5-5-5z" fill="#918291"/></g><g><path d="m499.5 145.398h-487c-2.761 0-5-2.239-5-5v-38.785c0-2.761 2.239-5 5-5h487c2.761 0 5 2.239 5 5v38.785c0 2.761-2.239 5-5 5z" fill="#918291"/></g><g><path d="m68.739 371.123c-18.112 0-34.529 7.219-46.562 18.921v28.64h110.518c-8.264-27.509-33.754-47.561-63.956-47.561z" fill="#a2e62e"/></g><g><path d="m68.739 371.123c-5.69 0-11.212.714-16.485 2.055 22.735 5.757 40.818 23.167 47.53 45.507h32.911c-8.264-27.51-33.754-47.562-63.956-47.562z" fill="#97d729"/></g><g><path d="m174.01 365.975c-32.058 0-58.823 22.586-65.295 52.71h130.59c-6.472-30.124-33.237-52.71-65.295-52.71z" fill="#a2e62e"/></g><g><path d="m174.01 365.975c-5.395 0-10.637.649-15.662 1.856 24.83 5.967 44.25 25.801 49.634 50.853h31.323c-6.472-30.123-33.237-52.709-65.295-52.709z" fill="#97d729"/></g><g><path d="m489.823 417.685v-44.732c-4.996-1.194-10.209-1.83-15.572-1.83-29.835 0-55.077 19.567-63.652 46.562z" fill="#a2e62e"/></g><g><path d="m489.823 417.685v-44.732c-4.996-1.194-10.209-1.83-15.572-1.83-9.848 0-19.191 2.144-27.605 5.971v40.591z" fill="#97d729"/></g><g><g><path d="m176 97.613v-24.677c0-5.523-4.477-10-10-10h-70c-5.523 0-10 4.477-10 10v24.677z" fill="#cbc4cc"/></g><g><path d="m86 144.397h90v54.539h-90z" fill="#cbc4cc"/></g></g><g><g><path d="m146 72.936v24.677h30v-24.677c0-5.523-4.477-10-10-10h-30c5.523 0 10 4.477 10 10z" fill="#b5adb6"/></g><g><path d="m146 144.397h30v54.539h-30z" fill="#b5adb6"/></g></g><g><g><path d="m115 144.397h32v54.539h-32z" fill="#c8effe"/></g><g><path d="m115 233.937v43c0 2.761 2.239 5 5 5h22c2.761 0 5-2.239 5-5v-43z" fill="#c8effe"/></g></g><g><g><path d="m131 144.397h16v54.539h-16z" fill="#99e6fc"/></g><g><path d="m131 233.937v43c0 2.761-2.239 5-5 5h16c2.761 0 5-2.239 5-5v-43z" fill="#99e6fc"/></g></g><g><path d="m499.5 417.685h-487c-2.761 0-5 2.239-5 5v21.379c0 2.761 2.239 5 5 5h487c2.761 0 5-2.239 5-5v-21.379c0-2.762-2.239-5-5-5z" fill="#918291"/></g><g><path d="m499.5 417.685h-50.5c2.761 0 5 2.239 5 5v21.379c0 2.761-2.239 5-5 5h50.5c2.761 0 5-2.239 5-5v-21.379c0-2.762-2.239-5-5-5z" fill="#7a6d79"/></g><g><path d="m499.5 145.398h-487c-2.761 0-5-2.239-5-5v-38.785c0-2.761 2.239-5 5-5h487c2.761 0 5 2.239 5 5v38.785c0 2.761-2.239 5-5 5z" fill="#918291"/></g><g><path d="m499.5 96.613h-45.5v23.172c0 2.761-2.239 5-5 5h-441.5v15.613c0 2.761 2.239 5 5 5h487c2.761 0 5-2.239 5-5v-38.785c0-2.761-2.239-5-5-5z" fill="#7a6d79"/></g><g><path d="m176 234.936h-90c-2.761 0-5-2.239-5-5v-27c0-2.761 2.239-5 5-5h90c2.761 0 5 2.239 5 5v27c0 2.762-2.239 5-5 5z" fill="#918291"/></g><g><path d="m176 197.936h-30c2.761 0 5 2.239 5 5v27c0 2.761-2.239 5-5 5h30c2.761 0 5-2.239 5-5v-27c0-2.761-2.239-5-5-5z" fill="#7a6d79"/></g><g><g><g><path d="m318.69 348.757c-8.856 4.134-18.572 6.404-28.654 6.404-3.029 0-6.024-.205-8.974-.604 1.614 5.202 4.473 10.101 8.592 14.219 12.641 12.641 32.612 13.486 46.232 2.534 1.583-1.273 1.717-3.64.281-5.076z" fill="#fff0ad"/></g><g><path d="m397.104 298.93c0-14.318 6.476-27.122 16.658-35.647 1.85-1.549 1.595-4.498-.546-5.611-6.414-3.336-13.704-5.22-21.435-5.216-17.924.01-33.603 10.442-41.333 25.469 3.862 6.375 6.889 13.424 8.869 21.005-1.988 7.615-5.034 14.692-8.921 21.09 7.687 15.064 23.34 25.385 41.412 25.385 7.712 0 14.984-1.88 21.385-5.204 2.15-1.116 2.421-4.071.563-5.627-10.178-8.526-16.652-21.328-16.652-35.644z" fill="#ffe177"/></g><g><path d="m397.104 298.93c0-14.318 6.476-27.122 16.658-35.647 1.85-1.549 1.595-4.498-.546-5.611-6.414-3.336-13.704-5.22-21.435-5.216-3.579.002-7.064.433-10.419 1.22 3.818.887 7.461 2.232 10.854 3.996 2.14 1.113 2.395 4.063.546 5.611-10.182 8.525-16.658 21.329-16.658 35.647 0 14.316 6.474 27.119 16.654 35.643 1.857 1.555 1.586 4.51-.563 5.627-3.404 1.768-7.059 3.112-10.891 3.997 3.378.781 6.891 1.207 10.506 1.207 7.712 0 14.984-1.88 21.385-5.204 2.15-1.116 2.421-4.071.563-5.627-10.18-8.525-16.654-21.327-16.654-35.643z" fill="#ffd15b"/></g><g><path d="m290.036 242.698c14.969 0 29.129 5.006 40.867 13.689v-41.473c0-2.609-2.814-4.248-5.083-2.96l-67.525 38.31v.383c9.665-5.106 20.472-7.949 31.741-7.949z" fill="#fff0ad"/></g><g><path d="m290.036 241.698c-33.562 0-61.812 24.24-70.314 57.231 8.502 32.991 36.752 57.231 70.314 57.231s61.812-24.24 70.314-57.231c-8.501-32.99-36.751-57.231-70.314-57.231z" fill="#ffe177"/></g><g><path d="m219.722 298.93c4.71 18.276 15.487 33.856 29.863 44.128 7.822-5.589 14.578-12.749 19.872-21.061 9.034-14.184 9.034-31.951 0-46.135-5.293-8.311-12.05-15.472-19.872-21.061-14.376 10.273-25.153 25.853-29.863 44.129z" fill="#fff0ad"/></g><g><path d="m290.036 241.698c-5.382 0-10.626.631-15.675 1.814 26.015 6.095 46.826 27.034 54.286 54.096.238.862.238 1.781 0 2.644-7.46 27.062-28.271 48.001-54.286 54.096 5.05 1.183 10.293 1.814 15.675 1.814 33.562 0 61.812-24.24 70.314-57.231-8.501-32.993-36.751-57.233-70.314-57.233z" fill="#ffd15b"/></g></g></g><g><path d="m497.322 152.897h2.178c6.893 0 12.5-5.607 12.5-12.5v-38.784c0-6.893-5.607-12.5-12.5-12.5h-316v-16.176c0-9.649-7.851-17.5-17.5-17.5h-70c-9.649 0-17.5 7.851-17.5 17.5v16.177h-7.5c-4.143 0-7.5 3.357-7.5 7.5s3.357 7.5 7.5 7.5h426v33.784h-7.178-467.644-7.178v-33.784h21c4.143 0 7.5-3.357 7.5-7.5s-3.357-7.5-7.5-7.5h-23.5c-6.893 0-12.5 5.607-12.5 12.5v38.784c0 6.893 5.607 12.5 12.5 12.5h2.178v17.806 239.481h-2.178c-6.893 0-12.5 5.607-12.5 12.5v21.379c0 6.893 5.607 12.5 12.5 12.5h61.5c4.143 0 7.5-3.357 7.5-7.5s-3.357-7.5-7.5-7.5h-59v-16.379h482v16.379h-388c-4.143 0-7.5 3.357-7.5 7.5s3.357 7.5 7.5 7.5h390.5c6.893 0 12.5-5.607 12.5-12.5v-21.379c0-6.893-5.607-12.5-12.5-12.5h-2.178v-239.482zm-328.822-63.784h-75v-16.176c0-1.379 1.121-2.5 2.5-2.5h70c1.379 0 2.5 1.121 2.5 2.5zm-14 63.784h14v37.539h-14zm-32 0h17v37.539h-17zm-29 0h14v37.539h-14zm-5 52.54h85v22h-85zm51 37v32h-17v-32zm-109.822-89.54h48.822v10.306h-48.822zm73.569 257.288h-73.569v-16.856c10.825-9.503 24.577-14.705 39.062-14.705 15.438 0 30.151 6.026 41.162 16.673-2.752 4.697-4.989 9.693-6.655 14.888zm15.918 0c8.981-22.019 30.353-36.71 54.845-36.71 24.493 0 45.864 14.691 54.846 36.71zm363.157 0h-60.482c10.117-19.225 30.058-31.562 52.411-31.562 2.705 0 5.401.206 8.071.57zm0-246.982h-80.822c-4.143 0-7.5 3.357-7.5 7.5s3.357 7.5 7.5 7.5h80.822v185.865c-2.677-.292-5.372-.445-8.071-.445-1.258 0-2.506.042-3.751.104v-32.866c0-4.143-3.357-7.5-7.5-7.5s-7.5 3.357-7.5 7.5v35.146c-3.43.887-6.769 2.015-10 3.365v-9.436c0-4.143-3.357-7.5-7.5-7.5s-7.5 3.357-7.5 7.5v17.867c-11.047 8.043-19.863 19.146-25.166 32.381h-160.554c-4.41-13.78-12.859-26.156-24.21-35.303-13.131-10.58-29.665-16.407-46.56-16.407-1.172 0-2.342.035-3.51.09v-27.704c0-4.143-3.357-7.5-7.5-7.5s-7.5 3.357-7.5 7.5v29.971c-4.112 1.06-8.129 2.466-12 4.208v-51.104c0-4.143-3.357-7.5-7.5-7.5s-7.5 3.357-7.5 7.5v60.137c-.349.271-.705.531-1.049.808-3.111 2.507-5.998 5.261-8.649 8.215-.753-.689-1.524-1.354-2.302-2.01v-50.226c0-4.143-3.357-7.5-7.5-7.5s-7.5 3.357-7.5 7.5v40.414c-5.992-2.957-12.372-5.108-18.983-6.36l9.745-9.745c2.929-2.93 2.929-7.678 0-10.607-2.93-2.928-7.678-2.928-10.607 0l-5.416 5.416v-7.127l16.023-16.023c2.929-2.93 2.929-7.678 0-10.607-2.93-2.928-7.678-2.928-10.607 0l-5.416 5.416v-7.128l16.023-16.023c2.929-2.93 2.929-7.678 0-10.607-2.93-2.928-7.678-2.928-10.607 0l-5.416 5.416v-11.246c0-4.143-3.357-7.5-7.5-7.5s-7.5 3.357-7.5 7.5v11.246l-5.416-5.416c-2.93-2.928-7.678-2.928-10.607 0-2.929 2.93-2.929 7.678 0 10.607l16.023 16.023v7.128l-5.416-5.416c-2.93-2.928-7.678-2.928-10.607 0-2.929 2.93-2.929 7.678 0 10.607l16.023 16.023v7.127l-5.416-5.416c-2.93-2.928-7.678-2.928-10.607 0-2.929 2.93-2.929 7.678 0 10.607l9.74 9.74c-8.977 1.685-17.529 5-25.278 9.811v-196.516h48.822v14.757c-3.029 2.283-5 5.899-5 9.976v27c0 6.893 5.607 12.5 12.5 12.5h21.5v34.5c0 6.893 5.607 12.5 12.5 12.5h22c6.893 0 12.5-5.607 12.5-12.5v-34.5h21.5c6.893 0 12.5-5.607 12.5-12.5v-27c0-4.077-1.971-7.693-5-9.976v-14.757h183c4.143 0 7.5-3.357 7.5-7.5s-3.357-7.5-7.5-7.5h-183v-10.306h298.822z"/><path d="m350.933 263.881c-3.756-4.615-7.96-8.784-12.529-12.441v-36.527c0-3.865-2.075-7.476-5.415-9.421-3.342-1.946-7.506-1.971-10.869-.062l-60.451 34.297c-23.565 9.482-42.283 30.458-49.209 57.33-.316 1.229-.316 2.516 0 3.744 8.287 32.151 33.451 55.868 63.607 61.545 2.055 4.342 4.828 8.276 8.285 11.733 8.213 8.214 19.007 12.39 29.846 12.39 9.299 0 18.633-3.076 26.391-9.314 2.413-1.94 3.894-4.827 4.062-7.92.167-3.089-.99-6.114-3.177-8.304l-9.725-9.725c7.156-4.622 13.617-10.402 19.118-17.142 10.137 11.817 25.006 18.841 40.944 18.841 8.634 0 17.225-2.092 24.84-6.049 3.224-1.673 5.385-4.831 5.78-8.446.399-3.646-1.043-7.23-3.856-9.586-8.877-7.436-13.969-18.331-13.969-29.894 0-11.564 5.093-22.461 13.974-29.896 2.814-2.356 4.257-5.94 3.858-9.587-.395-3.607-2.547-6.759-5.76-8.43-7.626-3.965-16.224-6.061-24.865-6.061-.011 0-.022 0-.033 0-15.841.009-30.679 7.065-40.847 18.925zm-27.53-41.933v20.002c-7.176-3.49-14.875-5.891-22.892-7.014zm-73.802 111.576c-10.24-8.673-18.111-20.607-22.108-34.594 3.997-13.987 11.868-25.921 22.108-34.594 5.207 4.418 9.751 9.624 13.53 15.556 7.479 11.743 7.479 26.333 0 38.076-3.778 5.932-8.322 11.138-13.53 15.556zm45.367 29.958c7.9-.517 15.548-2.263 22.756-5.084l9.645 9.644c-10.432 5.816-23.674 4.16-32.401-4.56zm-4.932-14.821c-9.726 0-19.079-2.346-27.524-6.584 5.02-4.727 9.472-10.087 13.271-16.051 10.645-16.714 10.645-37.479 0-54.193-3.799-5.964-8.251-11.324-13.271-16.051 8.445-4.238 17.798-6.584 27.524-6.584 28.688 0 54.148 20.354 62.543 49.731-8.394 29.379-33.855 49.732-62.543 49.732zm77.577-51.603c-1.838-7.131-4.514-13.843-7.882-20.04 7.283-10.6 19.219-17.054 32.055-17.061h.025c4.296 0 8.457.677 12.43 2.018-9.37 9.96-14.638 23.111-14.638 36.956 0 13.843 5.269 26.995 14.637 36.956-3.973 1.342-8.134 2.019-12.432 2.019-12.941 0-24.905-6.418-32.133-16.963 3.395-6.225 6.09-12.97 7.938-20.14.317-1.23.317-2.517 0-3.745z"/><path d="m250.354 285.129c-4.143 0-7.5 3.357-7.5 7.5v2.269c0 4.143 3.357 7.5 7.5 7.5s7.5-3.357 7.5-7.5v-2.269c0-4.143-3.358-7.5-7.5-7.5z"/><circle cx="213.3" cy="232.939" r="7.5"/><circle cx="213.3" cy="262.939" r="7.5"/><circle cx="213.3" cy="202.943" r="7.5"/></g></g></svg>