<svg id="Capa_1" enable-background="new 0 0 512 512" height="512" viewBox="0 0 512 512" width="512" xmlns="http://www.w3.org/2000/svg"><g><g><path d="m15.12 141.029h481.76v28.1h-481.76z" fill="#dff6fd"/></g><g><g><path d="m452.4 422.565h44.48v1.03h-44.48z" fill="#c8effe"/></g><g><path d="m452.4 141.029h44.48v27.1h-44.48z" fill="#c8effe"/></g></g><g><path d="m15.12 168.129h481.76v254.436h-481.76z" fill="#60b7ff"/></g><g fill="#99e6fc"><circle cx="212.01" cy="201.34" r="7.5"/><circle cx="212.01" cy="232.24" r="7.5"/><circle cx="212.01" cy="263.149" r="7.5"/></g><path d="m55.588 316.182v7.984l-5.968-5.968c-2.928-2.928-7.677-2.929-10.606.001-2.929 2.929-2.929 7.678.001 10.606l16.573 16.572v7.985l-5.968-5.968c-2.928-2.928-7.677-2.929-10.606.001-2.929 2.929-2.929 7.678.001 10.606l16.573 16.572v.022c0 .482.05.953.137 1.41 2.431-.262 4.886-.41 7.363-.41 2.479 0 4.934.143 7.364.404.086-.455.136-.923.136-1.404v-.021l16.573-16.573c2.929-2.93 2.929-7.678 0-10.607-2.93-2.928-7.678-2.928-10.607 0l-5.966 5.966v-7.982l16.573-16.573c2.929-2.93 2.929-7.678 0-10.607-2.93-2.928-7.678-2.928-10.607 0l-5.966 5.966v-7.984l16.573-16.574c2.929-2.929 2.929-7.678-.001-10.606-2.928-2.928-7.677-2.929-10.606.001l-5.966 5.966v-12.133c0-4.143-3.357-7.5-7.5-7.5s-7.5 3.357-7.5 7.5v12.133l-5.967-5.967c-2.93-2.928-7.678-2.928-10.607 0-2.929 2.93-2.929 7.678 0 10.607z" fill="#a2e62e"/><g><g><path d="m452.4 168.129v212.62c8.668-3.944 18.292-6.152 28.438-6.152 5.525 0 10.895.656 16.042 1.885v-208.353z" fill="#26a6fe"/></g></g><g><path d="m506.849 422.565h-501.698c-2.845 0-5.151 2.306-5.151 5.151v22.024c0 2.845 2.306 5.151 5.151 5.151h501.698c2.845 0 5.151-2.306 5.151-5.151v-22.024c0-2.845-2.306-5.151-5.151-5.151z" fill="#918291"/></g><g><path d="m506.849 142.06h-501.698c-2.845 0-5.151-2.306-5.151-5.151v-39.955c0-2.845 2.306-5.151 5.151-5.151h501.698c2.845 0 5.151 2.306 5.151 5.151v39.955c0 2.845-2.306 5.151-5.151 5.151z" fill="#918291"/></g><path d="m103.902 389.267c2.918 2.206 5.643 4.655 8.161 7.297v-63.444c0-4.143-3.357-7.5-7.5-7.5s-7.5 3.357-7.5 7.5v51.592c2.353 1.37 4.636 2.889 6.839 4.555z" fill="#bbec6c"/><path d="m139.878 378.238v-62.553c0-4.143-3.357-7.5-7.5-7.5s-7.5 3.357-7.5 7.5v73.341c4.483-4.249 9.533-7.88 15-10.788z" fill="#bbec6c"/><path d="m167.693 370.418v-37.298c0-4.143-3.357-7.5-7.5-7.5s-7.5 3.357-7.5 7.5v39.892c4.827-1.414 9.851-2.299 15-2.594z" fill="#bbec6c"/><g><path d="m476.747 375.732v-42.612c0-4.143-3.357-7.5-7.5-7.5s-7.5 3.357-7.5 7.5v45.196c4.818-1.402 9.842-2.278 15-2.584z" fill="#bbec6c"/></g><g><path d="m450.993 382.474v-19.401c0-4.143-3.357-7.5-7.5-7.5s-7.5 3.357-7.5 7.5v29.411c4.523-3.988 9.566-7.356 15-10.01z" fill="#bbec6c"/></g><g><path d="m63.088 374.597c-18.658 0-35.571 7.436-47.967 19.492v29.505h113.853c-8.514-28.339-34.773-48.997-65.886-48.997z" fill="#a2e62e"/></g><g><path d="m63.088 374.597c-5.862 0-11.551.736-16.982 2.117 23.422 5.931 42.05 23.867 48.964 46.881h33.904c-8.514-28.34-34.773-48.998-65.886-48.998z" fill="#97d729"/></g><g><path d="m171.536 369.294c-33.025 0-60.599 23.268-67.266 54.301h134.532c-6.668-31.033-34.241-54.301-67.266-54.301z" fill="#a2e62e"/></g><g><path d="m171.536 369.294c-5.558 0-10.959.668-16.135 1.912 25.579 6.148 45.586 26.58 51.132 52.388h32.269c-6.668-31.032-34.241-54.3-67.266-54.3z" fill="#97d729"/></g><g><path d="m496.88 422.565v-46.082c-5.147-1.23-10.517-1.885-16.042-1.885-30.736 0-56.74 20.157-65.573 47.967z" fill="#a2e62e"/></g><g><path d="m496.88 422.565v-46.082c-5.147-1.23-10.517-1.885-16.042-1.885-10.146 0-19.77 2.209-28.438 6.151v41.816z" fill="#97d729"/></g><g><g><path d="m173.586 92.833v-25.422c0-5.69-4.612-10.302-10.302-10.302h-72.113c-5.69 0-10.302 4.612-10.302 10.302v25.422z" fill="#cbc4cc"/></g><g><path d="m80.869 141.029h92.716v56.185h-92.716z" fill="#cbc4cc"/></g></g><g><g><path d="m142.68 67.411v25.422h30.905v-25.422c0-5.69-4.612-10.302-10.302-10.302h-30.905c5.69 0 10.302 4.613 10.302 10.302z" fill="#b5adb6"/></g><g><path d="m142.68 141.029h30.905v56.185h-30.905z" fill="#b5adb6"/></g></g><g><g><path d="m110.744 141.029h32.966v56.185h-32.966z" fill="#c8effe"/></g><g><path d="m110.744 233.271v44.298c0 2.845 2.306 5.151 5.151 5.151h22.664c2.845 0 5.151-2.306 5.151-5.151v-44.298z" fill="#c8effe"/></g></g><g><g><path d="m127.227 141.029h16.483v56.185h-16.483z" fill="#99e6fc"/></g><g><path d="m127.227 233.271v44.298c0 2.845-2.306 5.151-5.151 5.151h16.483c2.845 0 5.151-2.306 5.151-5.151v-44.298z" fill="#99e6fc"/></g></g><g><path d="m506.849 422.565h-501.698c-2.845 0-5.151 2.306-5.151 5.151v22.024c0 2.845 2.306 5.151 5.151 5.151h501.698c2.845 0 5.151-2.306 5.151-5.151v-22.024c0-2.845-2.306-5.151-5.151-5.151z" fill="#918291"/></g><g><path d="m506.849 422.565h-52.024c2.845 0 5.151 2.306 5.151 5.151v22.024c0 2.845-2.306 5.151-5.151 5.151h52.024c2.845 0 5.151-2.306 5.151-5.151v-22.024c0-2.845-2.306-5.151-5.151-5.151z" fill="#7a6d79"/></g><g><path d="m506.849 142.06h-501.698c-2.845 0-5.151-2.306-5.151-5.151v-39.955c0-2.845 2.306-5.151 5.151-5.151h501.698c2.845 0 5.151 2.306 5.151 5.151v39.955c0 2.845-2.306 5.151-5.151 5.151z" fill="#918291"/></g><g><path d="m506.849 91.803h-46.873v23.871c0 2.845-2.306 5.151-5.151 5.151h-454.825v16.084c0 2.845 2.306 5.151 5.151 5.151h501.698c2.845 0 5.151-2.306 5.151-5.151v-39.956c0-2.844-2.306-5.15-5.151-5.15z" fill="#7a6d79"/></g><g><path d="m173.586 234.301h-92.717c-2.845 0-5.151-2.306-5.151-5.151v-27.815c0-2.845 2.306-5.151 5.151-5.151h92.716c2.845 0 5.151 2.306 5.151 5.151v27.815c0 2.844-2.306 5.151-5.15 5.151z" fill="#918291"/></g><g><path d="m173.586 196.184h-30.906c2.845 0 5.151 2.306 5.151 5.151v27.815c0 2.845-2.306 5.151-5.151 5.151h30.905c2.845 0 5.151-2.306 5.151-5.151v-27.815c0-2.845-2.306-5.151-5.15-5.151z" fill="#7a6d79"/></g><g><g><g><path d="m320.582 351.557c-9.123 4.259-19.132 6.597-29.519 6.597-3.12 0-6.206-.212-9.244-.622 1.663 5.359 4.608 10.405 8.851 14.649 12.562 12.562 32.151 13.816 46.115 3.761 2.494-1.796 2.766-5.415.593-7.589z" fill="#fff0ad"/></g><g><path d="m401.362 300.225c0-14.75 6.672-27.941 17.161-36.723 1.906-1.595 1.643-4.634-.562-5.781-6.608-3.436-14.117-5.378-22.081-5.373-18.465.011-34.617 10.757-42.58 26.238 3.978 6.568 7.097 13.829 9.136 21.639-2.048 7.845-5.186 15.136-9.19 21.726 7.919 15.518 24.045 26.151 42.662 26.151 7.944 0 15.436-1.936 22.03-5.361 2.215-1.15 2.494-4.194.58-5.797-10.486-8.782-17.156-21.97-17.156-36.719z" fill="#ffe177"/></g><g><path d="m401.362 300.225c0-14.75 6.672-27.941 17.161-36.723 1.906-1.595 1.643-4.634-.562-5.781-6.608-3.436-14.117-5.378-22.081-5.373-3.687.002-7.277.446-10.734 1.256 3.933.914 7.686 2.299 11.181 4.117 2.205 1.147 2.468 4.185.562 5.781-10.489 8.782-17.161 21.973-17.161 36.723 0 14.748 6.67 27.937 17.156 36.719 1.913 1.602 1.634 4.646-.58 5.797-3.506 1.821-7.272 3.206-11.219 4.118 3.479.805 7.099 1.243 10.823 1.243 7.944 0 15.436-1.936 22.03-5.361 2.215-1.15 2.494-4.194.58-5.797-10.486-8.782-17.156-21.97-17.156-36.719z" fill="#ffd15b"/></g><g><path d="m291.063 242.297c15.421 0 30.008 5.157 42.101 14.102v-40.159c0-3.832-4.134-6.24-7.467-4.349l-67.332 38.2v.394c9.956-5.26 21.089-8.188 32.698-8.188z" fill="#fff0ad"/></g><g><path d="m291.064 241.267c-34.575 0-63.678 24.972-72.437 58.959 8.759 33.987 37.861 58.959 72.437 58.959 34.575 0 63.678-24.972 72.436-58.959-8.759-33.988-37.861-58.959-72.436-58.959z" fill="#ffe177"/></g><g><path d="m218.627 300.225c4.852 18.827 15.954 34.878 30.764 45.46 8.058-5.758 15.018-13.134 20.472-21.696 9.307-14.612 9.307-32.915 0-47.527-5.453-8.562-12.414-15.939-20.472-21.696-14.81 10.581-25.912 26.632-30.764 45.459z" fill="#fff0ad"/></g><g><path d="m291.064 241.267c-5.545 0-10.946.65-16.148 1.868 26.801 6.279 48.24 27.85 55.925 55.729.245.888.245 1.835 0 2.723-7.685 27.879-29.124 49.45-55.925 55.729 5.202 1.219 10.604 1.868 16.148 1.868 34.575 0 63.678-24.972 72.437-58.959-8.76-33.987-37.862-58.958-72.437-58.958z" fill="#ffd15b"/></g><g><path d="m250.184 303.572c-4.143 0-7.5-3.357-7.5-7.5v-2.338c0-4.143 3.357-7.5 7.5-7.5s7.5 3.357 7.5 7.5v2.338c0 4.143-3.358 7.5-7.5 7.5z" fill="#685e68"/></g></g></g></g></svg>