<svg id="Capa_1" enable-background="new 0 0 512 512" height="512" viewBox="0 0 512 512" width="512" xmlns="http://www.w3.org/2000/svg"><g><path d="m373.385 208.677c-10.2 10.252-24.311 16.608-39.88 16.608h-35.669l.784 1.47c3.694 6.932 5.646 14.767 5.646 22.657v5.546c-7.899 4.585-12.781 13.029-12.781 22.18 0 5.854 2.013 11.539 5.684 16.086-8.742 14.253-24.45 23.077-41.168 23.077s-32.426-8.823-41.168-23.076c3.67-4.548 5.684-10.231 5.684-16.087 0-9.152-4.882-17.595-12.781-22.18v-5.546c0-7.889 1.953-15.724 5.646-22.657l.784-1.47h-35.669c-15.57 0-29.681-6.357-39.88-16.608-39.392 37.27-64.408 92.932-64.408 155.132 0 .487.002.973.005 1.459.442 70.247 57.741 126.866 127.989 126.866h107.599c70.248 0 127.547-56.619 127.989-126.866.003-.486.005-.972.005-1.459-.003-62.2-25.02-117.861-64.411-155.132z" fill="#fae2c0"/><path d="m374.08 209.334c-7.6 7.645-17.33 13.16-28.194 15.579 30.465 36.328 49.121 85.175 49.121 138.896 0 .487-.001.973-.005 1.459-.391 62.162-45.308 113.644-104.319 124.673-.07.741-.186 1.473-.355 2.193h19.47c70.248 0 127.547-56.619 127.989-126.866.003-.486.005-.972.005-1.459.001-61.834-24.72-117.209-63.712-154.475z" fill="#fed2a4"/><path d="m328.676 418.399c-1.739-6.489-.86-13.243 2.475-19.018l14.899-25.806c4.458-7.721 12.807-12.517 21.789-12.517.069 0 .137.006.206.007-2.439-22.46-10.154-43.1-21.725-60.323h-29.202c-6.905 0-13.445-3.017-17.943-8.278l-.935-1.094-.734 1.237c-8.66 14.597-24.564 23.664-41.506 23.664-16.941 0-32.845-9.067-41.505-23.664l-.734-1.237-.935 1.094c-4.497 5.261-11.038 8.278-17.943 8.278h-29.202c-11.571 17.223-19.286 37.863-21.725 60.323.069-.001.137-.007.206-.007 8.982 0 17.332 4.796 21.789 12.517l14.899 25.806c3.334 5.775 4.213 12.529 2.475 19.018-1.163 4.34-3.419 8.178-6.501 11.255 7.491 3.448 15.818 5.367 24.538 5.367h109.278c8.72 0 17.047-1.919 24.538-5.367-3.083-3.076-5.339-6.915-6.502-11.255z" fill="#fff"/><path d="m328.676 418.399c-1.739-6.489-.86-13.243 2.475-19.018l14.899-25.806c4.458-7.721 12.807-12.517 21.789-12.517.069 0 .137.006.206.007-2.439-22.46-10.154-43.1-21.725-60.323h-29.202c-6.905 0-13.445-3.017-17.943-8.278l-.935-1.094-.734 1.237c-1.623 2.735-3.5 5.275-5.59 7.599 14.392 21.174 22.952 47.57 22.952 76.214 0 .302-.001.604-.003.906-.005.819-.023 1.635-.053 2.448-1.14 30.984-27.178 55.246-58.182 55.246h54.01c8.72 0 17.047-1.919 24.538-5.367-3.083-3.075-5.339-6.914-6.502-11.254z" fill="#f2fbff"/><g><g><path d="m172.172 434.498c-12.419 7.17-28.447 2.876-35.617-9.544l-14.899-25.806c-7.17-12.419-2.876-28.447 9.544-35.617 12.419-7.17 28.447-2.876 35.617 9.544l14.899 25.806c7.17 12.419 2.875 28.447-9.544 35.617z" fill="#fdb4ba"/></g><g><path d="m181.716 398.881-14.899-25.806c-7.17-12.419-23.198-16.714-35.617-9.543-3.242 1.872-5.924 4.35-7.999 7.207 9.059-.03 17.91 4.642 22.741 13.009l14.899 25.806c5.299 9.177 4.33 20.322-1.545 28.41 4.388-.014 8.824-1.126 12.876-3.465 12.419-7.171 16.714-23.199 9.544-35.618z" fill="#fe99a0"/></g><g><path d="m339.828 434.498c-12.419-7.17-16.714-23.198-9.544-35.617l14.899-25.806c7.17-12.419 23.198-16.714 35.617-9.544 12.419 7.17 16.714 23.198 9.544 35.617l-14.899 25.806c-7.171 12.42-23.198 16.714-35.617 9.544z" fill="#fdb4ba"/></g><g><path d="m380.8 363.532c-4.295-2.48-9.021-3.586-13.663-3.462 6.107 8.114 7.176 19.455 1.8 28.767l-14.899 25.806c-4.691 8.125-13.172 12.77-21.954 13.005 2.038 2.708 4.636 5.056 7.744 6.85 12.419 7.17 28.447 2.876 35.617-9.543l14.899-25.806c7.17-12.419 2.875-28.447-9.544-35.617z" fill="#fe99a0"/></g></g><g><ellipse cx="256" cy="488.41" fill="#fed2a4" rx="34.765" ry="23.59"/></g><g><path d="m256 464.819c-4.601 0-8.989.612-13.008 1.714 12.754 3.495 21.757 11.97 21.757 21.877s-9.003 18.381-21.757 21.877c4.019 1.101 8.407 1.713 13.008 1.713 19.2 0 34.765-10.562 34.765-23.59 0-13.029-15.565-23.591-34.765-23.591z" fill="#ffbd86"/></g><g><g><g><path d="m159.103 87.576 11.936-25.223c7.692-15.96 22.493-27.323 39.476-30.997-5.726-6.345-11.889-12.132-18.299-17.165-13.974-10.816-29.137-17.976-38.687-12.056-9.902 5.311-11.282 22.022-8.902 39.532 2.19 15.317 7.161 31.218 14.476 45.909z" fill="#fdb4ba"/></g><g><g><path d="m170.677 24.997c6.176 4.849 12.118 10.404 17.666 16.478 6.552-4.879 14.11-8.374 22.172-10.118-5.726-6.345-11.889-12.132-18.299-17.165-13.974-10.817-29.137-17.977-38.687-12.057-3.503 1.879-5.935 5.189-7.516 9.451 7.697 1.884 16.389 7.006 24.664 13.411z" fill="#fe99a0"/></g></g><g><path d="m340.942 62.36 12.14 24.838c7.213-14.586 12.12-30.346 14.291-45.531 2.38-17.51 1-34.222-8.902-39.532-9.55-5.92-24.713 1.24-38.687 12.056-6.412 5.034-12.575 10.823-18.303 17.169 16.976 3.679 31.769 15.041 39.461 31z" fill="#fdb4ba"/></g><g><path d="m358.471 2.135c-5.27-3.267-12.251-2.545-19.797.571 9.028 5.857 10.242 22.035 7.942 38.961-1.044 7.299-2.726 14.731-4.986 22.102l11.452 23.43c7.213-14.586 12.12-30.346 14.291-45.531 2.38-17.511 1-34.223-8.902-39.533z" fill="#fe99a0"/></g></g><g><path d="m374.935 129.562-33.065-67.649c-9.684-20.092-30.017-32.864-52.321-32.864h-67.119c-22.304 0-42.638 12.772-52.321 32.864l-31.085 65.689c-10.954 10.45-17.814 25.157-17.814 41.398 0 31.507 25.779 57.286 57.286 57.286h155.009c31.507 0 57.286-25.779 57.286-57.286-.001-15.25-6.051-29.146-15.856-39.438z" fill="#fff3de"/></g><g><path d="m374.935 129.562-33.065-67.649c-9.683-20.092-30.017-32.864-52.321-32.864h-32.099c22.304 0 42.638 12.772 52.321 32.864l33.066 67.649c9.804 10.292 15.855 24.188 15.855 39.438 0 31.507-25.779 57.286-57.286 57.286h32.099c31.507 0 57.286-25.779 57.286-57.286-.001-15.25-6.051-29.146-15.856-39.438z" fill="#fae2c0"/></g><path d="m298.179 223.947c-3.124.848-6.405 1.309-9.793 1.309-12.806 0-24.589-6.451-31.519-17.256l-.867-1.352-.867 1.352c-6.93 10.805-18.713 17.256-31.519 17.256-3.388 0-6.669-.461-9.793-1.308-4.497 7.432-7.086 16.146-7.086 25.466v6.13c7.617 4.189 12.781 12.289 12.781 21.596 0 6.107-2.227 11.69-5.907 15.994 8.583 14.466 24.351 24.169 42.391 24.169 18.041 0 33.808-9.702 42.392-24.169-3.68-4.304-5.907-9.888-5.907-15.994 0-9.308 5.164-17.407 12.781-21.596v-6.13c0-9.321-2.59-18.035-7.087-25.467z" fill="#d88a55"/><path d="m292.485 277.14c0-9.308 5.164-17.407 12.781-21.596v-6.13c0-9.32-2.59-18.034-7.086-25.466-3.124.848-6.405 1.309-9.793 1.309-4.187 0-8.26-.702-12.095-2.008 4.765 7.58 7.523 16.549 7.523 26.165v18.624c0 23.523-16.491 43.183-38.54 48.081 3.454.767 7.04 1.185 10.725 1.185 18.041 0 33.808-9.702 42.392-24.169-3.68-4.305-5.907-9.888-5.907-15.995z" fill="#c57a44"/><g><path d="m256.867 208-.867-1.352-.867 1.352c-3.129 4.879-7.254 8.859-12.01 11.769v95.822c4.106 1.109 8.42 1.711 12.877 1.711 4.457 0 8.771-.602 12.877-1.711v-95.822c-4.755-2.91-8.881-6.89-12.01-11.769z" fill="#bb5d4c"/></g><g><path d="m288.386 149.369h-64.772c-21.24 0-38.459 17.219-38.459 38.459s17.218 38.459 38.459 38.459c13.604 0 25.549-7.07 32.386-17.729 6.837 10.66 18.782 17.729 32.386 17.729 21.24 0 38.459-17.219 38.459-38.459s-17.219-38.459-38.459-38.459z" fill="#fff"/></g><g><path d="m288.386 149.369h-14.228c.794 1.679 1.36 3.481 1.663 5.376 11.283 6.703 18.85 19.006 18.85 33.082 0 15.491-9.164 28.835-22.363 34.927 4.893 2.259 10.334 3.531 16.078 3.531 21.24 0 38.459-17.219 38.459-38.459s-17.219-38.457-38.459-38.457z" fill="#f2fbff"/></g><g><circle cx="256" cy="157.945" fill="#fdb4ba" r="20.1"/></g><g><path d="m256 137.844c-3.248 0-6.305.788-9.02 2.156 6.566 3.307 11.08 10.091 11.08 17.945s-4.514 14.637-11.08 17.945c2.715 1.368 5.772 2.156 9.02 2.156 11.101 0 20.1-8.999 20.1-20.1 0-11.102-8.999-20.102-20.1-20.102z" fill="#fe99a0"/></g><g><g><path d="m213.12 125.282c-4.142 0-7.5-3.358-7.5-7.5v-15.029c0-4.142 3.358-7.5 7.5-7.5s7.5 3.358 7.5 7.5v15.029c0 4.142-3.358 7.5-7.5 7.5z" fill="#7a6d79"/></g><g><path d="m298.88 125.282c-4.142 0-7.5-3.358-7.5-7.5v-15.029c0-4.142 3.358-7.5 7.5-7.5s7.5 3.358 7.5 7.5v15.029c0 4.142-3.358 7.5-7.5 7.5z" fill="#7a6d79"/></g></g><g><g><path d="m367.303 113.947c-13.343 5.648-22.705 18.862-22.705 34.263 0 20.539 16.65 37.189 37.189 37.189 2.311 0 4.569-.221 6.763-.625 1.448-5.018 2.24-10.307 2.24-15.774 0-15.249-6.051-29.146-15.855-39.438z" fill="#fed2a4"/></g><g><path d="m167.402 148.21c0-15.148-9.062-28.172-22.056-33.97l-6.323 13.361c-10.953 10.451-17.813 25.158-17.813 41.399 0 5.468.793 10.757 2.24 15.775 2.194.403 4.452.625 6.763.625 20.539-.001 37.189-16.651 37.189-37.19z" fill="#fed2a4"/></g></g></g><g><g><path d="m194.883 309.272h-44.925c-4.142 0-7.5-3.358-7.5-7.5s3.358-7.5 7.5-7.5h44.925c9.447 0 17.133-7.686 17.133-17.133s-7.686-17.133-17.133-17.133h-44.925c-4.142 0-7.5-3.358-7.5-7.5s3.358-7.5 7.5-7.5h44.925c17.718 0 32.133 14.415 32.133 32.133s-14.415 32.133-32.133 32.133z" fill="#fed2a4"/></g><g><path d="m362.042 309.272h-44.925c-17.718 0-32.133-14.415-32.133-32.133s14.415-32.133 32.133-32.133h44.925c4.142 0 7.5 3.358 7.5 7.5s-3.358 7.5-7.5 7.5h-44.925c-9.447 0-17.133 7.686-17.133 17.133s7.686 17.133 17.133 17.133h44.925c4.142 0 7.5 3.358 7.5 7.5s-3.357 7.5-7.5 7.5z" fill="#fed2a4"/></g></g></g></svg>