<svg id="Capa_1" enable-background="new 0 0 512 512" height="512" viewBox="0 0 512 512" width="512" xmlns="http://www.w3.org/2000/svg"><g><path d="m369.615 210.044c-9.896 9.946-23.586 16.113-38.691 16.113h-33.55c3.907 6.929 6.139 14.928 6.139 23.45v5.951c-7.394 4.067-12.407 11.929-12.407 20.964 0 5.928 2.162 11.348 5.734 15.526-8.332 14.042-23.637 23.461-41.15 23.461-17.512 0-32.818-9.418-41.15-23.461 3.572-4.178 5.734-9.598 5.734-15.526 0-9.035-5.012-16.897-12.407-20.964v-5.951c0-8.522 2.232-16.521 6.139-23.45h-33.55c-15.105 0-28.795-6.167-38.691-16.113-38.25 36.178-62.542 90.218-62.542 150.608 0 .472.002.945.004 1.416.429 68.189 56.049 123.149 124.24 123.149h18.9c-.275-1.178-.423-2.385-.423-3.616 0-12.647 15.109-22.899 33.746-22.899s33.746 10.252 33.746 22.899c0 1.231-.147 2.438-.423 3.616h18.9c68.19 0 123.81-54.96 124.24-123.149.003-.472.004-.944.004-1.416 0-60.39-24.292-114.43-62.542-150.608z" fill="#fae2c0"/><path d="m370.311 210.701c-7.377 7.421-16.823 12.775-27.368 15.123 29.572 35.264 47.682 82.68 47.682 134.827 0 .472-.001.945-.004 1.416-.037 5.886-.495 11.67-1.327 17.331.614 5.224-.379 10.677-3.196 15.556l-.245.425c-12.812 44.725-50.179 79.052-96.495 87.708-.068.719-.181 1.43-.344 2.129h18.9c68.19 0 123.81-54.96 124.24-123.149.003-.472.004-.944.004-1.416-.001-60.023-23.998-113.776-61.847-149.95z" fill="#fed2a4"/><path d="m327.798 394.695 14.463-25.05c4.69-8.123 13.283-12.658 22.078-12.628-2.483-21.425-9.911-41.116-20.976-57.586h-28.346c-6.703 0-13.051-2.929-17.417-8.035l-.908-1.062-.712 1.201c-8.407 14.169-23.845 22.971-40.29 22.971s-31.883-8.802-40.29-22.971l-.712-1.201-.908 1.062c-4.366 5.106-10.714 8.035-17.417 8.035h-28.346c-11.065 16.469-18.493 36.161-20.976 57.586 8.795-.03 17.388 4.505 22.078 12.628l14.463 25.05c5.766 9.988 3.888 22.375-3.78 30.29 7.019 3.075 14.757 4.791 22.849 4.791h106.077c8.093 0 15.83-1.716 22.85-4.791-7.668-7.914-9.547-20.302-3.78-30.29z" fill="#fff"/><path d="m327.798 394.695 14.463-25.05c4.69-8.123 13.283-12.658 22.078-12.628-2.483-21.425-9.911-41.116-20.976-57.586h-28.346c-6.703 0-13.051-2.929-17.417-8.035l-.908-1.062-.712 1.201c-1.575 2.655-3.397 5.121-5.426 7.376 13.97 20.554 22.279 46.176 22.279 73.981 0 .293-.001.586-.003.879-.005.795-.022 1.587-.051 2.376-1.106 30.076-26.382 53.627-56.478 53.628h52.428c8.093 0 15.83-1.716 22.85-4.791-7.669-7.913-9.548-20.301-3.781-30.289z" fill="#f2fbff"/><g><g><path d="m174.318 429.269c-12.055 6.96-27.613 2.791-34.574-9.264l-14.463-25.05c-6.96-12.055-2.791-27.613 9.264-34.574 12.055-6.96 27.613-2.791 34.574 9.264l14.463 25.05c6.96 12.056 2.791 27.614-9.264 34.574z" fill="#fdb4ba"/></g><g><path d="m183.582 394.695-14.463-25.05c-6.96-12.055-22.518-16.224-34.573-9.264-3.147 1.817-5.75 4.223-7.765 6.996 8.794-.029 17.386 4.506 22.075 12.628l14.463 25.05c5.143 8.909 4.204 19.727-1.499 27.578 4.259-.014 8.565-1.093 12.499-3.364 12.054-6.96 16.223-22.518 9.263-34.574z" fill="#fe99a0"/></g><g><path d="m337.062 429.269c-12.055-6.96-16.224-22.518-9.264-34.574l14.463-25.05c6.96-12.055 22.518-16.224 34.574-9.264 12.055 6.96 16.224 22.518 9.264 34.574l-14.463 25.05c-6.961 12.055-22.519 16.224-34.574 9.264z" fill="#fdb4ba"/></g><g><path d="m376.834 360.381c-4.169-2.407-8.756-3.481-13.263-3.36 5.928 7.877 6.966 18.885 1.747 27.924l-14.463 25.05c-4.553 7.887-12.786 12.396-21.311 12.624 1.978 2.628 4.5 4.908 7.517 6.65 12.055 6.96 27.613 2.791 34.574-9.264l14.463-25.05c6.96-12.055 2.791-27.614-9.264-34.574z" fill="#fe99a0"/></g></g><g><ellipse cx="255.69" cy="481.601" fill="#fed2a4" rx="33.746" ry="22.899"/></g><g><path d="m255.69 458.702c-4.466 0-8.725.594-12.627 1.664 12.38 3.393 21.119 11.619 21.119 21.236s-8.739 17.843-21.119 21.236c3.901 1.069 8.161 1.664 12.627 1.664 18.638 0 33.746-10.252 33.746-22.899s-15.109-22.901-33.746-22.901z" fill="#ffbd86"/></g><g><g><g><path d="m161.632 92.511 11.586-24.484c7.467-15.492 21.834-26.523 38.319-30.089-5.559-6.159-11.541-11.777-17.763-16.663-13.565-10.499-28.283-17.45-37.554-11.703-9.612 5.155-10.952 21.377-8.642 38.374 2.127 14.868 6.953 30.304 14.054 44.565z" fill="#fdb4ba"/></g><g><g><path d="m172.867 31.765c5.995 4.707 11.763 10.099 17.148 15.995 6.36-4.736 13.696-8.129 21.523-9.822-5.559-6.159-11.541-11.777-17.763-16.663-13.565-10.499-28.283-17.45-37.554-11.703-3.4 1.824-5.761 5.037-7.295 9.174 7.471 1.829 15.908 6.801 23.941 13.019z" fill="#fe99a0"/></g></g><g><path d="m338.143 68.033 11.785 24.111c7.002-14.159 11.765-29.457 13.873-44.198 2.31-16.997.97-33.219-8.642-38.374-9.27-5.747-23.989 1.204-37.553 11.703-6.224 4.887-12.207 10.506-17.767 16.666 16.478 3.571 30.838 14.601 38.304 30.092z" fill="#fdb4ba"/></g><g><path d="m355.159 9.572c-5.116-3.171-11.892-2.471-19.217.554 8.763 5.685 9.942 21.39 7.709 37.82-1.013 7.086-2.646 14.299-4.84 21.454l11.116 22.743c7.002-14.159 11.765-29.457 13.873-44.198 2.311-16.995.971-33.218-8.641-38.373z" fill="#fe99a0"/></g></g><g><path d="m371.141 133.266-32.097-65.667c-9.4-19.504-29.138-31.902-50.789-31.902h-65.152c-21.65 0-41.389 12.398-50.788 31.902l-30.174 63.764c-10.632 10.144-17.291 24.42-17.291 40.185 0 30.584 25.023 55.608 55.607 55.608h150.468c30.584 0 55.607-25.023 55.607-55.608-.001-14.802-5.874-28.291-15.391-38.282z" fill="#fff3de"/></g><g><g><path d="m371.141 133.266-32.097-65.667c-8.945-18.56-27.254-30.676-47.662-31.806.75 1.182 1.515 2.561 2.308 4.207l46.292 93.266c9.517 9.991 15.39 23.48 15.39 38.282 0 30.584-25.023 55.608-55.607 55.608h31.159c30.584 0 55.607-25.023 55.607-55.608 0-14.802-5.873-28.291-15.39-38.282z" fill="#fae2c0"/></g></g><path d="m291.106 276.52c0-9.035 5.012-16.897 12.407-20.964v-5.951c0-9.047-2.514-17.506-6.879-24.72-3.032.823-6.217 1.27-9.506 1.27-12.431 0-23.869-6.262-30.596-16.75l-.842-1.312-.842 1.312c-6.727 10.488-18.165 16.75-30.596 16.75-3.289 0-6.474-.447-9.506-1.27-4.365 7.214-6.879 15.673-6.879 24.72v5.951c7.394 4.067 12.407 11.929 12.407 20.964 0 5.928-2.162 11.348-5.734 15.526 8.332 14.042 23.637 23.461 41.15 23.461 17.512 0 32.818-9.418 41.15-23.461-3.573-4.178-5.734-9.598-5.734-15.526z" fill="#d88a55"/><g><path d="m256.532 209.406-.842-1.312-.842 1.312c-3.038 4.736-7.042 8.6-11.658 11.425v93.015c3.986 1.077 8.174 1.661 12.5 1.661 4.326 0 8.514-.584 12.5-1.661v-93.015c-4.616-2.825-8.621-6.689-11.658-11.425z" fill="#bb5d4c"/></g><path d="m291.106 276.52c0-9.035 5.012-16.897 12.407-20.964v-5.951c0-9.047-2.514-17.506-6.879-24.72-3.032.823-6.217 1.27-9.506 1.27-4.065 0-8.018-.681-11.74-1.949 4.625 7.358 7.303 16.064 7.303 25.399v18.078c0 22.834-16.008 41.918-37.411 46.672 3.353.745 6.834 1.15 10.411 1.15 17.512 0 32.818-9.418 41.15-23.461-3.574-4.176-5.735-9.596-5.735-15.524z" fill="#c57a44"/><g><path d="m287.127 152.493h-62.875c-20.618 0-37.332 16.714-37.332 37.332s16.714 37.332 37.332 37.332c13.205 0 24.8-6.863 31.437-17.21 6.637 10.347 18.232 17.21 31.437 17.21 20.618 0 37.332-16.714 37.332-37.332s-16.713-37.332-37.331-37.332z" fill="#fff"/></g><g><path d="m287.127 152.493h-13.811c.771 1.63 1.32 3.379 1.615 5.219 10.953 6.506 18.297 18.449 18.297 32.113 0 15.038-8.896 27.99-21.708 33.904 4.749 2.193 10.031 3.428 15.607 3.428 20.618 0 37.332-16.714 37.332-37.332s-16.714-37.332-37.332-37.332z" fill="#f2fbff"/></g><g><circle cx="255.69" cy="160.817" fill="#fdb4ba" r="19.511"/></g><g><path d="m255.69 141.306c-3.152 0-6.12.765-8.756 2.093 6.374 3.211 10.756 9.795 10.756 17.419 0 7.623-4.382 14.208-10.756 17.419 2.636 1.328 5.603 2.093 8.756 2.093 10.776 0 19.511-8.736 19.511-19.511 0-10.777-8.735-19.513-19.511-19.513z" fill="#fe99a0"/></g><g><g><path d="m363.732 118.109c-12.952 5.482-22.04 18.309-22.04 33.259 0 19.937 16.162 36.1 36.1 36.1 2.243 0 4.435-.215 6.565-.607 1.406-4.871 2.175-10.005 2.175-15.312 0-14.803-5.873-28.292-15.39-38.282z" fill="#fed2a4"/></g><g><path d="m169.688 151.368c0-14.704-8.796-27.346-21.41-32.974l-6.138 12.97c-10.632 10.144-17.291 24.42-17.291 40.185 0 5.308.769 10.441 2.175 15.312 2.13.391 4.321.606 6.564.606 19.937.001 36.1-16.162 36.1-36.099z" fill="#fed2a4"/></g></g></g><g><g><path d="m196.363 252.609h-24.584c13.206 0 23.911 10.705 23.911 23.911 0 13.206-10.705 23.911-23.911 23.911h24.584c13.206 0 23.911-10.705 23.911-23.911 0-13.205-10.705-23.911-23.911-23.911z" fill="#fed2a4"/></g></g><g><path d="m380.613 210.383c8.395-10.717 13.418-24.196 13.418-38.834 0-15.808-5.902-30.883-16.645-42.584l-18.588-38.029c6.138-13.481 10.421-27.904 12.434-41.981 3.235-23.803-1.025-39.66-12.322-45.881-11.036-6.672-26.899-2.434-45.937 12.301-5.19 4.075-10.221 8.637-15.004 13.586-3.19-.498-6.435-.763-9.714-.763h-15.065c-4.142 0-7.5 3.358-7.5 7.5s3.358 7.5 7.5 7.5h15.065c18.651 0 35.935 10.856 44.05 27.695l21.529 44.047c-12.132 7.964-19.643 21.549-19.643 36.428 0 22.447 17.053 40.98 38.882 43.34-8.196 14.858-24.015 24.948-42.15 24.948h-10.37c7.089-7.928 11.406-18.383 11.406-29.832 0-24.72-20.111-44.832-44.832-44.832h-9.567c-4.913-6.771-12.884-11.187-21.87-11.187-8.987 0-16.957 4.415-21.87 11.187h-9.567c-24.72 0-44.832 20.111-44.832 44.832 0 11.449 4.317 21.904 11.405 29.832h-10.37c-18.135 0-33.954-10.09-42.15-24.948 21.83-2.36 38.882-20.893 38.882-43.34 0-14.591-7.321-28.056-19.144-36.079l21.026-44.433c8.098-16.802 25.381-27.658 44.032-27.658h15.087c4.142 0 7.5-3.358 7.5-7.5s-3.358-7.5-7.5-7.5h-15.087c-3.273 0-6.512.264-9.696.76-4.784-4.948-9.819-9.514-15.042-13.615-18.995-14.704-34.86-18.942-45.894-12.27-11.297 6.222-15.558 22.079-12.314 45.933 2.027 14.179 6.376 28.744 12.62 42.349l-16.838 35.581c-11.999 11.956-18.589 27.742-18.589 44.612 0 14.636 5.022 28.113 13.415 38.83-33.893 34.857-54.565 81.81-58.4 133.062-.309 4.13 2.789 7.729 6.919 8.039.19.014.379.021.567.021 3.888 0 7.176-3.001 7.471-6.941 3.565-47.641 22.683-91.226 54.019-123.543 10.762 8.528 24.349 13.639 39.115 13.639h22.012c-.987 3.502-1.641 7.098-1.921 10.74-1.37-.183-2.765-.287-4.184-.287h-43.609c-4.142 0-7.5 3.358-7.5 7.5s3.358 7.5 7.5 7.5h43.609c9.049 0 16.411 7.362 16.411 16.411s-7.362 16.411-16.411 16.411h-43.609c-4.142 0-7.5 3.358-7.5 7.5s3.358 7.5 7.5 7.5h1.548c-6.801 13.076-11.522 27.414-13.889 42.275-3.298.695-6.544 1.906-9.618 3.68-15.667 9.045-21.055 29.151-12.009 44.819l14.463 25.05c6.07 10.514 17.121 16.398 28.469 16.398 5.562 0 11.196-1.414 16.35-4.389 1.133-.654 2.212-1.376 3.245-2.148 6.861 2.417 14.015 3.66 21.339 3.66h106.077c7.324 0 14.477-1.243 21.339-3.66 1.033.771 2.112 1.493 3.245 2.148 5.154 2.976 10.786 4.389 16.35 4.389 11.347 0 22.399-5.885 28.469-16.398l14.463-25.05c9.045-15.668 3.658-35.773-12.009-44.819-3.074-1.775-6.319-2.986-9.618-3.681-2.367-14.861-7.088-29.198-13.889-42.274h1.548c4.142 0 7.5-3.358 7.5-7.5s-3.358-7.5-7.5-7.5h-43.609c-9.049 0-16.411-7.362-16.411-16.411s7.362-16.411 16.411-16.411h43.609c4.142 0 7.5-3.358 7.5-7.5s-3.358-7.5-7.5-7.5h-43.609c-1.419 0-2.814.104-4.184.287-.28-3.642-.933-7.238-1.92-10.74h22.012c14.764 0 28.349-5.11 39.111-13.636 34.788 35.93 54.623 86.398 54.623 139.631l-.004 1.369c-.401 63.795-52.771 115.696-116.74 115.696h-11.309c-2.516-15.146-19.576-26.515-40.914-26.515s-38.398 11.369-40.914 26.515h-11.309c-28.225 0-55.477-10.198-76.738-28.716-21.083-18.362-34.866-43.601-38.81-71.067-.589-4.099-4.38-6.941-8.49-6.357-4.1.589-6.946 4.39-6.357 8.49 4.456 31.023 20.013 59.522 43.806 80.245 23.992 20.896 54.744 32.405 86.59 32.405h13.735c5.902 11.392 20.708 19.285 38.485 19.285s32.583-7.893 38.488-19.284h13.735c34.989 0 67.948-13.557 92.808-38.174 24.886-24.644 38.712-57.468 38.932-92.428l.004-1.462c0-57.215-21.443-111.543-59.044-150.269zm-225.602-163.449c-2.171-15.969-.305-28.041 4.754-30.754.138-.074.273-.152.407-.235 4.878-3.023 16.267 1.395 28.97 11.228 2.654 2.084 5.258 4.327 7.81 6.684-13.491 6.092-24.792 16.788-31.418 30.535l-4.044 8.546c-3.04-8.602-5.248-17.398-6.479-26.004zm-7.693 89.856c.665-.635 1.208-1.387 1.602-2.218l2.586-5.464c6.641 5.354 10.683 13.493 10.683 22.26 0 15.77-12.83 28.6-28.6 28.6-.162 0-.326-.009-.489-.011-.484-2.732-.751-5.538-.751-8.407 0-13.206 5.315-25.55 14.969-34.76zm108.372 12.016c6.623 0 12.011 5.388 12.011 12.011s-5.388 12.012-12.011 12.012-12.011-5.389-12.011-12.012 5.388-12.011 12.011-12.011zm-98.629 275.717c-4.614-1.237-8.457-4.173-10.822-8.269l-14.463-25.05c-4.91-8.505-1.985-19.418 6.519-24.329 8.504-4.91 19.418-1.986 24.329 6.519l14.462 25.05c2.365 4.096 2.986 8.892 1.75 13.506s-4.173 8.458-8.268 10.822l3.75 6.495-3.75-6.495c-4.095 2.366-8.892 2.988-13.507 1.751zm222.542-33.318-14.463 25.05c-2.365 4.096-6.208 7.032-10.822 8.269-4.613 1.237-9.41.616-13.506-1.75l-3.75 6.495 3.75-6.495c-4.095-2.365-7.032-6.208-8.268-10.822s-.615-9.411 1.75-13.506l14.462-25.05c3.295-5.707 9.293-8.901 15.454-8.901 3.02 0 6.078.768 8.875 2.382 8.503 4.91 11.428 15.823 6.518 24.328zm-64.587-83.273h24.871c7.833 12.857 13.274 27.416 15.946 42.657-8.172 2.151-15.519 7.427-20.068 15.306l-14.462 25.05c-4.368 7.565-5.521 16.404-3.248 24.889.478 1.783 1.102 3.499 1.849 5.146-3.647.854-7.381 1.296-11.175 1.296h-106.077c-3.794 0-7.527-.443-11.175-1.297.746-1.647 1.371-3.363 1.849-5.146 2.273-8.484 1.12-17.324-3.249-24.889l-14.462-25.05c-4.549-7.879-11.896-13.155-20.069-15.305 2.673-15.24 8.113-29.8 15.946-42.658h24.871c6.18 0 11.943-1.801 16.808-4.895 10.422 12.484 26.038 19.971 42.519 19.971s32.097-7.486 42.519-19.971c4.864 3.095 10.628 4.896 16.807 4.896zm-99.623-56.379-.025-1.947c0-5.276 1.041-10.496 3.037-15.344 1.916.251 3.865.394 5.848.394 3.919 0 7.755-.513 11.438-1.48v69.48c-4.642-2.657-8.765-6.227-12.066-10.541-.002-.003-.004-.007-.006-.01 2.639-4.597 4.157-9.916 4.157-15.585-.002-10.17-4.864-19.223-12.383-24.967zm52.797 1.413c4.142 0 7.5-3.358 7.5-7.5v-12.29c3.682.966 7.518 1.48 11.438 1.48 1.983 0 3.932-.143 5.848-.394 1.996 4.847 3.037 10.067 3.037 15.344l-.001 1.927c-7.533 5.743-12.406 14.805-12.406 24.987 0 5.672 1.519 10.992 4.159 15.59-.003.002-.006.003-.009.005-3.301 4.314-7.424 7.884-12.066 10.541v-22.19c0-4.142-3.358-7.5-7.5-7.5s-7.5 3.358-7.5 7.5v27.217c-1.649.209-3.318.324-5 .324s-3.351-.115-5-.324v-81.636c1.761-1.289 3.433-2.709 5-4.256 1.567 1.547 3.239 2.968 5 4.256v19.419c0 4.142 3.358 7.5 7.5 7.5zm18.937-33.31c-10.206 0-19.599-5.144-25.125-13.759-1.379-2.15-3.758-3.451-6.313-3.451s-4.934 1.3-6.313 3.451c-5.526 8.616-14.918 13.759-25.125 13.759-16.449 0-29.832-13.383-29.832-29.832s13.382-29.832 29.832-29.832h4.447c-.008.275-.021.548-.021.825 0 14.895 12.117 27.012 27.011 27.012s27.011-12.117 27.011-27.012c0-.277-.013-.55-.021-.825h4.447c16.449 0 29.832 13.382 29.832 29.832s-13.38 29.832-29.83 29.832zm27.293-185.794c2.547-2.353 5.141-4.589 7.776-6.657 12.744-9.865 24.133-14.283 29.011-11.26.133.083.269.161.407.235 5.059 2.713 6.925 14.785 4.762 30.703-1.229 8.591-3.425 17.353-6.443 25.916l-4.133-8.457c-6.608-13.71-17.898-24.391-31.38-30.48zm63.372 146.105c-15.77 0-28.6-12.83-28.6-28.6 0-9.098 4.289-17.451 11.315-22.777l3.895 7.969c.337.69.778 1.324 1.308 1.879 8.59 9.018 13.321 20.776 13.321 33.11 0 2.869-.267 5.675-.751 8.407-.162.004-.326.012-.488.012zm-122.102 317.033c-12.414 0-26.246-6.324-26.246-15.399s13.832-15.399 26.246-15.399 26.246 6.324 26.246 15.399-13.832 15.399-26.246 15.399z"/><path d="m206.565 107.242v14.589c0 4.142 3.358 7.5 7.5 7.5s7.5-3.358 7.5-7.5v-14.589c0-4.142-3.358-7.5-7.5-7.5s-7.5 3.358-7.5 7.5z"/><path d="m304.814 121.832v-14.589c0-4.142-3.358-7.5-7.5-7.5s-7.5 3.358-7.5 7.5v14.589c0 4.142 3.358 7.5 7.5 7.5s7.5-3.358 7.5-7.5z"/></g></g></svg>