<svg id="Capa_1" enable-background="new 0 0 507.851 507.851" height="512" viewBox="0 0 507.851 507.851" width="512" xmlns="http://www.w3.org/2000/svg"><g><g><path d="m292.689 391.309v24.472c0 10.057 8.229 18.286 18.286 18.286s18.286-8.229 18.286-18.286v-33.225c-12.053 3.444-24.255 6.371-36.572 8.753z" fill="#fed2a4"/></g><g><path d="m122.632 399.147v16.634c0 10.057 8.229 18.286 18.286 18.286s18.286-8.229 18.286-18.286v-16.634z" fill="#fed2a4"/></g><path d="m494.076 287.025h-13.224c-6.145 0-11.288-4.362-12.501-10.152-15.272-3.067-29.425-10.636-40.594-21.806l-34.193-34.193c-3.363-3.364-7.134-6.223-11.185-8.557l-24.787 22.68c-4.664-2.791-9.662-4.263-14.5-4.263-3.75 0-7.268.874-10.457 2.597-6.237 3.372-10.443 9.581-11.84 17.483-1.381 7.814.154 16.365 4.323 24.078 2.227 4.121 5.078 7.744 8.484 10.783l-4.324 6.606c-19.317 29.512-51.908 47.131-87.18 47.131h-204.856c-2.083 9.097-6.674 17.513-13.378 24.218l-18.253 18.254c-6.751 6.751-1.969 18.293 7.578 18.293h37.201c4.552 0 8.241 3.69 8.241 8.241v6.895c0 9.16 7.413 17.809 16.533 18.67 10.836 1.024 20.039-7.567 20.039-18.203v-7.362c0-4.552 3.69-8.241 8.241-8.241h107.583c3.066 0 6.129-.041 9.19-.114 4.641-.111 8.472 3.595 8.472 8.237v7.013c0 9.16 7.413 17.809 16.533 18.67 10.836 1.024 20.039-7.567 20.039-18.203v-11.846c0-4.088 2.995-7.566 7.042-8.147 35.917-5.156 71.124-14.829 104.762-28.867l47.951-20.011c8.126-3.391 16.844-5.137 25.65-5.137h16.063c9.387 0 16.996-7.609 16.996-16.996v-8.349c10.282 0 18.617-8.335 18.617-18.617 0-4.348-1.448-8.349-3.864-11.584-1.375.508-2.853.799-4.402.799z" fill="#fae2c0"/><g><path d="m494.076 288.025h-13.224c-2.843 0-5.492-.873-7.693-2.365 1.431 2.992 2.24 6.313 2.24 9.74 0 11.357-9.207 20.564-20.564 20.564v9.222c0 7.454-4.355 13.874-10.649 16.905 2.149-.21 4.311-.318 6.478-.318h16.063c9.387 0 16.996-7.609 16.996-16.996v-8.349c10.282 0 18.617-8.335 18.617-18.617 0-3.977-1.199-7.672-3.251-10.75-1.557.615-3.244.964-5.013.964z" fill="#fed2a4"/></g><g><path d="m326.025 274.404c-8.392-15.526-5.213-33.509 7.101-40.165 7.508-4.058 16.672-2.945 24.589 2.043l58.422-53.457c3.112-2.848 1.613-8.028-2.539-8.773l-37.404-6.714 9.451-33.203c1.018-3.575-2.012-7.002-5.685-6.428l-42.11 6.57-2.897-41.547c-.274-3.936-4.726-6.079-7.974-3.84l-34.29 23.639-20.637-36.176c-1.955-3.427-6.895-3.427-8.85 0l-20.637 36.176-28.831-30.152c-2.61-2.73-7.179-1.77-8.47 1.78l-12.906 35.491-27.838-23.553c-2.868-2.427-7.287-1.02-8.224 2.618l-9.292 36.07-34.29-23.639c-3.248-2.239-7.699-.096-7.974 3.84l-2.898 41.548-42.3-6.6c-3.624-.565-6.641 2.769-5.715 6.319l10.29 39.47-46.229 6.902c-3.857.576-5.663 5.094-3.266 8.17l26.333 33.797-38.939 29.533c-2.917 2.212-2.618 6.687.567 8.492l31.058 17.601-29.728 31.645c-3.055 3.252-.749 8.583 3.713 8.583h234.472c35.497 0 68.601-17.897 88.041-47.597l4.816-7.358c-3.456-2.94-6.54-6.661-8.93-11.085z" fill="#bb5d4c"/></g><g><g><path d="m376.193 167.339 9.451-33.203c1.018-3.575-2.012-7.002-5.685-6.429l-42.11 6.57-2.897-41.547c-.274-3.936-4.726-6.079-7.974-3.84l-34.29 23.639-20.637-36.176c-1.955-3.427-6.895-3.427-8.85 0l-15.058 26.395c35.594 26.513 58.308 66.765 58.308 111.839 0 53.968-32.561 101.022-80.809 125.856h16.457c35.497 0 68.601-17.897 88.041-47.597l4.816-7.358c-3.456-2.941-6.54-6.662-8.931-11.085-8.392-15.526-5.213-33.509 7.101-40.165 7.508-4.058 16.672-2.945 24.589 2.043l58.422-53.457c3.112-2.848 1.613-8.028-2.539-8.773z" fill="#a44f3e"/></g></g><g><path d="m406.378 299.943c-4.143 0-7.5-3.358-7.5-7.5v-14.629c0-4.142 3.357-7.5 7.5-7.5s7.5 3.358 7.5 7.5v14.629c0 4.142-3.357 7.5-7.5 7.5z" fill="#7a6d79"/></g><g><path d="m494.076 288.025h-13.224c-7.576 0-13.775-6.199-13.775-13.775 0-7.576 6.199-13.775 13.775-13.775h13.224c7.576 0 13.775 6.199 13.775 13.775 0 7.577-6.199 13.775-13.775 13.775z" fill="#7a6d79"/></g><g><path d="m494.076 260.476h-13.224c-.498 0-.986.037-1.469.091 6.861.769 12.242 6.625 12.242 13.683s-5.381 12.914-12.242 13.683c.483.055.972.091 1.469.091h13.224c7.576 0 13.775-6.199 13.775-13.775s-6.199-13.773-13.775-13.773z" fill="#685e68"/></g><g><path d="m339.615 296.368c-1.305 0-2.627-.34-3.829-1.056-6.737-4.01-12.395-10.007-16.359-17.341-10.345-19.141-5.799-41.718 10.133-50.33 13.617-7.361 31.212-2.517 42.786 11.777 2.606 3.219 2.109 7.942-1.109 10.549-3.221 2.606-7.942 2.109-10.549-1.109-6.85-8.46-16.941-11.834-23.995-8.021-8.51 4.6-10.373 18.338-4.07 30.001 2.678 4.952 6.425 8.958 10.836 11.584 3.56 2.119 4.728 6.722 2.608 10.281-1.403 2.357-3.895 3.665-6.452 3.665z" fill="#fed2a4"/></g><path d="m498.632 308.929h-50.514c-4.143 0-7.5 3.358-7.5 7.5s3.357 7.5 7.5 7.5h35.607v-7.5c6.107-.001 11.512-2.956 14.907-7.5z" fill="#ffbd86"/><g fill="#d88a55"><path d="m128.182 240.264c1.919 0 3.839-.732 5.303-2.197 2.93-2.929 2.93-7.677.001-10.606l-17.239-17.24c-2.929-2.929-7.677-2.929-10.607 0-2.929 2.929-2.929 7.677 0 10.606l17.239 17.24c1.464 1.465 3.383 2.197 5.303 2.197z"/><path d="m177.99 240.264c1.919 0 3.839-.732 5.304-2.197 2.929-2.929 2.929-7.678-.001-10.606l-17.24-17.24c-2.928-2.929-7.677-2.929-10.606 0s-2.929 7.678.001 10.606l17.24 17.24c1.463 1.465 3.383 2.197 5.302 2.197z"/><path d="m227.798 240.264c1.919 0 3.839-.732 5.304-2.197 2.929-2.929 2.929-7.678-.001-10.606l-17.24-17.24c-2.928-2.929-7.677-2.929-10.606 0s-2.929 7.678.001 10.606l17.24 17.24c1.463 1.465 3.383 2.197 5.302 2.197z"/><path d="m265.668 210.221c-2.928-2.929-7.677-2.929-10.606 0s-2.929 7.678.001 10.606l17.24 17.24c1.464 1.464 3.384 2.197 5.303 2.197s3.839-.732 5.304-2.197c2.929-2.929 2.929-7.678-.001-10.606z"/><path d="m77.082 270.753c-2.929-2.929-7.678-2.93-10.606 0-2.93 2.929-2.93 7.677-.001 10.606l17.239 17.24c1.465 1.465 3.384 2.197 5.304 2.197 1.919 0 3.839-.732 5.303-2.197 2.93-2.929 2.93-7.677.001-10.606z"/><path d="m126.89 270.753c-2.93-2.929-7.678-2.929-10.607 0s-2.929 7.678 0 10.606l17.24 17.24c1.465 1.464 3.385 2.197 5.304 2.197s3.839-.732 5.304-2.197c2.929-2.929 2.929-7.678 0-10.606z"/><path d="m176.697 270.753c-2.93-2.929-7.678-2.929-10.607 0s-2.929 7.678 0 10.606l17.24 17.24c1.465 1.464 3.385 2.197 5.304 2.197s3.839-.732 5.304-2.197c2.929-2.929 2.929-7.678 0-10.606z"/><path d="m226.505 270.753c-2.93-2.929-7.678-2.929-10.607 0s-2.929 7.678 0 10.606l17.24 17.24c1.465 1.464 3.385 2.197 5.304 2.197s3.839-.732 5.304-2.197c2.929-2.929 2.929-7.678 0-10.606z"/><path d="m175.344 186.357c1.919 0 3.839-.732 5.303-2.197 2.93-2.929 2.93-7.677.001-10.606l-17.239-17.24c-2.93-2.929-7.678-2.929-10.607 0s-2.929 7.677 0 10.606l17.239 17.24c1.464 1.465 3.383 2.197 5.303 2.197z"/><path d="m225.151 186.357c1.919 0 3.839-.732 5.304-2.197 2.929-2.929 2.929-7.677 0-10.606l-17.239-17.24c-2.929-2.929-7.678-2.929-10.606 0-2.93 2.929-2.93 7.677-.001 10.606l17.239 17.24c1.465 1.465 3.383 2.197 5.303 2.197z"/><path d="m274.959 186.357c1.919 0 3.839-.732 5.303-2.197 2.93-2.929 2.93-7.677.001-10.606l-17.239-17.24c-2.929-2.929-7.677-2.929-10.607 0-2.929 2.929-2.929 7.677 0 10.606l17.239 17.24c1.464 1.465 3.383 2.197 5.303 2.197z"/><path d="m330.07 173.554-17.24-17.24c-2.928-2.929-7.677-2.929-10.606 0s-2.929 7.678.001 10.606l17.24 17.24c1.464 1.464 3.384 2.197 5.303 2.197s3.839-.732 5.304-2.197c2.928-2.929 2.928-7.678-.002-10.606z"/></g></g></svg>