<svg id="Capa_1" enable-background="new 0 0 512 512" height="512" viewBox="0 0 512 512" width="512" xmlns="http://www.w3.org/2000/svg"><g><g><path d="m66.687 410.889.801 1.068.801-1.068c4.04-5.396 10.2-8.491 16.9-8.491 6.699 0 12.859 3.095 16.9 8.491l.801 1.068.801-1.068c4.04-5.396 10.2-8.491 16.899-8.491 11.649 0 21.127 9.477 21.127 21.126 0 2.335-.41 4.685-1.22 6.983l-.469 1.332h9.27c1.874 0 3.503 1.205 4.053 2.998l1.984 6.482h1.956v-97.068c0-57.229 46.56-103.788 103.788-103.788s103.788 46.559 103.788 103.788v92.727h92.217v-231.95l-192.235-147.145c-1.075-.824-2.415-1.277-3.77-1.277s-2.694.453-3.77 1.277l-192.234 147.145v203.947c.568.601 1.106 1.24 1.612 1.914z" fill="#fff3de"/></g><g><g><g><path d="m66.662 410.907.825 1.101.825-1.101c4.036-5.388 10.187-8.479 16.876-8.479s12.84 3.091 16.876 8.479l.825 1.101.825-1.101c1.539-2.055 3.388-3.773 5.455-5.116v-234.515l-44.094 33.752v203.993c.559.593 1.089 1.222 1.587 1.886z" fill="#0593fc"/></g></g><g><path d="m457.084 436.979v-231.951l-44.094-33.752v265.703z" fill="#0593fc"/></g><g><path d="m457.084 436.979v-231.951l-24.923-19.077v251.028z" fill="#0182fc"/></g><g><path d="m364.837 435.979v55.987l1.03 1.03h86.066c2.845 0 5.15-2.306 5.15-5.151v-51.866z" fill="#fe646f"/></g><g><g><path d="m432.161 435.979v51.866c0 2.845-2.306 5.15-5.15 5.151h24.923c2.845 0 5.15-2.306 5.15-5.151v-51.866z" fill="#fd4755"/></g></g></g><g><path d="m261.079 239.464c-57.78 0-104.788 47.008-104.788 104.788v148.744h209.576v-148.744c0-57.78-47.008-104.788-104.788-104.788z" fill="#ffd15b"/></g><g><path d="m261.079 272.007c-39.735 0-72.245 32.51-72.245 72.245v148.744h144.49v-148.744c.001-39.735-32.51-72.245-72.245-72.245z" fill="#d88a55"/></g><g><path d="m261.079 272.007c-7.491 0-14.724 1.158-21.532 3.299 29.304 9.218 50.713 36.702 50.713 68.946v148.744h43.064v-148.744c0-39.735-32.51-72.245-72.245-72.245z" fill="#c57a44"/></g><g><g><path d="m141.076 431.87c1.051-2.577 1.641-5.391 1.641-8.345 0-12.22-9.906-22.126-22.126-22.126-7.25 0-13.665 3.503-17.701 8.891-4.036-5.388-10.451-8.891-17.701-8.891s-13.665 3.503-17.701 8.891c-4.036-5.388-10.451-8.891-17.701-8.891-12.22 0-22.126 9.906-22.126 22.126 0 2.955.59 5.769 1.641 8.345z" fill="#fed2a4"/></g><g><path d="m120.59 401.399c-5.234 0-10.028 1.832-13.811 4.875 5.045 4.055 8.277 10.274 8.277 17.251 0 2.955-.59 5.769-1.641 8.345h27.66c1.051-2.577 1.641-5.391 1.641-8.345.001-12.22-9.906-22.126-22.126-22.126z" fill="#ffbd86"/></g><g><path d="m15.974 434.552-15.743 51.679c-1.025 3.366 1.493 6.765 5.011 6.765h159.882c3.521 0 6.04-3.405 5.009-6.772l-15.826-51.679c-.674-2.201-2.706-3.704-5.009-3.704h-128.313c-2.305-.001-4.34 1.506-5.011 3.711z" fill="#fe646f"/></g><g><path d="m170.132 486.224-15.826-51.679c-.674-2.201-2.706-3.704-5.009-3.704h-43.138c2.302 0 4.335 1.503 5.009 3.704l15.826 51.679c1.031 3.367-1.487 6.772-5.009 6.772h43.138c3.522 0 6.04-3.405 5.009-6.772z" fill="#fd4755"/></g></g><g><path d="m307.176 208.63h-92.194c-15.912 0-28.811-12.899-28.811-28.811 0-15.912 12.899-28.811 28.811-28.811h92.194c15.912 0 28.811 12.899 28.811 28.811 0 15.912-12.899 28.811-28.811 28.811z" fill="#0593fc"/></g><g><path d="m307.176 151.009h-42.9c15.912 0 28.81 12.899 28.81 28.81 0 15.911-12.899 28.81-28.81 28.81h42.9c15.912 0 28.811-12.899 28.811-28.81 0-15.911-12.899-28.81-28.811-28.81z" fill="#0182fc"/></g><g><path d="m307.177 216.13h-92.194c-20.021 0-36.311-16.289-36.311-36.311s16.289-36.311 36.311-36.311h92.194c20.021 0 36.311 16.289 36.311 36.311s-16.29 36.311-36.311 36.311zm-92.195-57.621c-11.751 0-21.311 9.56-21.311 21.311s9.56 21.311 21.311 21.311h92.194c11.751 0 21.311-9.56 21.311-21.311s-9.56-21.311-21.311-21.311z" fill="#26a6fe"/></g><g><path d="m302.985 187.319h-82.765c-4.143 0-7.5-3.358-7.5-7.5s3.357-7.5 7.5-7.5h82.765c4.143 0 7.5 3.358 7.5 7.5s-3.357 7.5-7.5 7.5z" fill="#fff"/></g><g><g><path d="m257.936 58.701-225.684 172.748c-2.268 1.736-5.514 1.305-7.25-.963l-13.777-17.999c-1.736-2.268-1.305-5.514.963-7.25l238.859-182.835c2.905-2.223 6.374-3.398 10.033-3.398s7.128 1.175 10.033 3.399l238.859 182.833c2.268 1.736 2.699 4.982.963 7.25l-13.777 17.999c-1.736 2.268-4.982 2.699-7.25.963l-225.685-172.747c-1.855-1.42-4.432-1.42-6.287 0z" fill="#fe646f"/></g></g><g><g><path d="m509.971 205.236-238.859-182.833c-2.904-2.224-6.374-3.399-10.032-3.399-3.659 0-7.128 1.175-10.033 3.398l-4.496 3.441 229.052 175.327c2.268 1.736 2.699 4.982.963 7.25l-6.186 8.082 19.527 14.947c2.268 1.736 5.514 1.305 7.25-.963l13.777-17.999c1.737-2.269 1.306-5.515-.963-7.251z" fill="#fd4755"/></g></g></g></svg>