<svg id="Capa_1" enable-background="new 0 0 512 512" height="512" viewBox="0 0 512 512" width="512" xmlns="http://www.w3.org/2000/svg"><g><path d="m264.595 63.687c-1.044-.8-2.344-1.24-3.659-1.24s-2.615.44-3.659 1.24l-186.603 142.834v219.197h81.743c2.235 0 4.208 1.459 4.862 3.596l15.363 50.165c1.001 3.268-1.444 6.574-4.862 6.574h278.42c2.761 0 5-2.239 5-5v-274.532z" fill="#fff3de"/><g><g><g><path d="m72.214 406.369.801 1.068.801-1.068c3.918-5.23 9.889-8.23 16.382-8.23s12.464 3 16.382 8.23l.801 1.068.801-1.068c1.494-1.995 3.288-3.663 5.295-4.966v-227.645l-42.802 32.763v198.017c.541.576 1.056 1.186 1.539 1.831z" fill="#0593fc"/></g></g><g><path d="m408.395 173.758v312.295h37.803c2.761 0 5-2.239 5-5v-274.532z" fill="#0593fc"/></g><g><path d="m427.005 188.003v293.05c0 2.761-2.239 5-5 5h24.193c2.761 0 5-2.239 5-5v-274.532z" fill="#0182fc"/></g><g><path d="m361.654 430.706v54.346l1 1h83.545c2.761 0 4.999-2.239 4.999-5v-50.346z" fill="#fe646f"/></g><g><g><path d="m427.005 430.706v50.346c0 2.761-2.238 5-4.999 5h24.193c2.761 0 4.999-2.239 4.999-5v-50.346z" fill="#fd4755"/></g></g></g><g><path d="m260.936 239.949c-56.087 0-101.718 45.631-101.718 101.718v144.386h203.436v-144.386c0-56.087-45.631-101.718-101.718-101.718z" fill="#ffd15b"/></g><g><path d="m260.936 271.538c-38.571 0-70.129 31.558-70.129 70.129v144.386h140.257v-144.386c0-38.571-31.557-70.129-70.128-70.129z" fill="#d88a55"/></g><g><path d="m260.936 271.538c-7.271 0-14.292 1.124-20.901 3.203 28.446 8.948 49.228 35.626 49.228 66.926v144.386h41.802v-144.386c-.001-38.571-31.558-70.129-70.129-70.129z" fill="#c57a44"/></g><g><g><path d="m144.435 426.718c1.02-2.501 1.593-5.233 1.593-8.101 0-11.862-9.616-21.478-21.478-21.478-7.037 0-13.265 3.4-17.182 8.63-3.917-5.23-10.145-8.63-17.183-8.63s-13.265 3.4-17.182 8.63c-3.917-5.23-10.145-8.63-17.183-8.63-11.862 0-21.478 9.616-21.478 21.478 0 2.868.573 5.6 1.593 8.101z" fill="#fed2a4"/></g><g><path d="m22.998 429.321-15.281 50.165c-.995 3.267 1.449 6.567 4.864 6.567h155.198c3.418 0 5.863-3.305 4.862-6.574l-15.362-50.165c-.654-2.137-2.627-3.596-4.862-3.596h-124.554c-2.238 0-4.213 1.463-4.865 3.603z" fill="#fe646f"/></g><g><path d="m172.641 479.479-15.363-50.165c-.654-2.137-2.627-3.596-4.862-3.596h-41.874c2.235 0 4.208 1.459 4.862 3.596l15.362 50.165c1.001 3.268-1.444 6.574-4.862 6.574h41.874c3.419 0 5.863-3.306 4.863-6.574z" fill="#fd4755"/></g></g><g><path d="m305.682 210.018h-89.493c-15.445 0-27.966-12.521-27.966-27.966 0-15.445 12.521-27.966 27.966-27.966h89.493c15.445 0 27.966 12.521 27.966 27.966.001 15.445-12.52 27.966-27.966 27.966z" fill="#0593fc"/></g><g><path d="m305.682 154.085h-41.643c15.445 0 27.966 12.521 27.966 27.966 0 15.445-12.521 27.966-27.966 27.966h41.643c15.446 0 27.967-12.521 27.967-27.966 0-15.445-12.521-27.966-27.967-27.966z" fill="#0182fc"/></g><g><g><path d="m257.884 64.481-219.072 167.687c-2.202 1.685-5.353 1.267-7.038-.935l-13.373-17.472c-1.685-2.202-1.267-5.353.935-7.038l231.861-177.477c2.819-2.158 6.187-3.299 9.739-3.299s6.919 1.141 9.739 3.299l231.862 177.477c2.202 1.685 2.62 4.836.935 7.038l-13.373 17.472c-1.685 2.202-4.836 2.62-7.038.935l-219.074-167.687c-1.8-1.378-4.302-1.378-6.103 0z" fill="#fe646f"/></g></g><g><g><path d="m502.536 206.723-231.862-177.476c-2.819-2.159-6.187-3.299-9.739-3.299s-6.919 1.141-9.739 3.299l-4.364 3.34 222.341 170.19c2.202 1.685 2.62 4.836.935 7.038l-6.005 7.845 18.955 14.509c2.202 1.685 5.353 1.267 7.038-.935l13.373-17.472c1.687-2.202 1.269-5.353-.933-7.039z" fill="#fd4755"/></g></g><g><path d="m305.682 146.584h-89.492c-19.557 0-35.467 15.91-35.467 35.467 0 19.556 15.91 35.466 35.467 35.466h89.492c19.557 0 35.467-15.91 35.467-35.466s-15.91-35.467-35.467-35.467zm0 55.934h-89.492c-11.285 0-20.467-9.181-20.467-20.466 0-11.286 9.182-20.467 20.467-20.467h89.492c11.285 0 20.467 9.181 20.467 20.467 0 11.284-9.182 20.466-20.467 20.466z"/><path d="m301.615 174.551h-80.34c-4.143 0-7.5 3.358-7.5 7.5s3.357 7.5 7.5 7.5h80.34c4.143 0 7.5-3.358 7.5-7.5s-3.358-7.5-7.5-7.5z"/><path d="m507.095 200.768-231.861-177.476c-4.14-3.169-9.083-4.844-14.298-4.844-5.214 0-10.158 1.675-14.297 4.843l-66.863 51.18c-3.289 2.518-3.915 7.225-1.397 10.514s7.225 3.916 10.515 1.397l66.863-51.18c1.521-1.164 3.264-1.754 5.18-1.754s3.658.59 5.18 1.755l229.893 175.969-10.358 13.534-217.106-166.181c-4.48-3.43-10.74-3.43-15.221 0l-217.103 166.181-10.358-13.534 135.234-103.515c3.289-2.518 3.915-7.225 1.397-10.514-2.519-3.289-7.224-3.915-10.515-1.397l-137.204 105.023c-5.481 4.197-6.526 12.071-2.331 17.551l13.373 17.472c2.033 2.656 4.979 4.361 8.294 4.802.56.074 1.119.111 1.675.111 2.733 0 5.377-.891 7.584-2.58l19.803-15.158v167.622c-2.367-.616-4.83-.949-7.353-.949-15.858 0-28.775 12.806-28.969 28.62-5.142.404-9.501 3.868-11.027 8.875 0 0-.001.001-.001.001l-15.283 50.165c-1.156 3.797-.437 7.968 1.927 11.158 2.362 3.19 6.143 5.094 10.112 5.094h433.62c6.893-.001 12.499-5.609 12.499-12.5v-50.347-207.74l19.803 15.158c2.655 2.033 5.948 2.908 9.259 2.469 3.315-.441 6.261-2.146 8.294-4.802l13.372-17.471c4.195-5.481 3.151-13.355-2.332-17.552zm-451.275 203.871c4.427 0 8.502 2.051 11.18 5.626 1.416 1.891 3.64 3.004 6.003 3.004 2.362 0 4.587-1.113 6.003-3.003 2.679-3.576 6.753-5.627 11.18-5.627s8.501 2.051 11.18 5.627c1.417 1.891 3.641 3.003 6.003 3.003 2.363 0 4.587-1.113 6.003-3.004 2.678-3.575 6.753-5.626 11.18-5.626 7.573 0 13.76 6.056 13.972 13.579h-96.676c.212-7.524 6.399-13.579 13.972-13.579zm-39.979 73.914 13.811-45.335h120.978l13.883 45.335zm307.724 0h-125.258v-136.886c0-34.534 28.096-62.629 62.629-62.629s62.629 28.095 62.629 62.629zm39.089-80.053c-4.143 0-7.5 3.358-7.5 7.5v72.553h-16.589v-136.886c0-42.805-34.824-77.629-77.629-77.629s-77.629 34.824-77.629 77.629v136.886h-3.165l-13.424-44.068v-92.818c0-51.952 42.266-94.218 94.218-94.218s94.218 42.266 94.218 94.218v29.333c0 4.142 3.357 7.5 7.5 7.5s7.5-3.358 7.5-7.5v-29.333c0-60.223-48.995-109.218-109.218-109.218s-109.218 48.995-109.218 109.218v66.892c-4.096-11.035-14.725-18.92-27.168-18.92-1.208 0-2.397.096-3.574.24v-125.879c0-4.142-3.357-7.5-7.5-7.5s-7.5 3.358-7.5 7.5v130.331c-4.628-3.03-10.06-4.692-15.791-4.692-4.236 0-8.304.919-12.012 2.611v-180.766l27.803-21.281v38.797c0 4.142 3.357 7.5 7.5 7.5s7.5-3.358 7.5-7.5v-50.279l139.96-107.131 139.96 107.132v244.485h-30.742v-17.207c0-4.142-3.358-7.5-7.5-7.5zm81.045 80.053h-73.545v-40.347h73.545zm0-55.347h-27.803v-233.003l27.803 21.281z"/></g></g></svg>