<svg id="Capa_1" enable-background="new 0 0 512 512" height="512" viewBox="0 0 512 512" width="512" xmlns="http://www.w3.org/2000/svg"><g><g><g><g><path d="m163.191 105.379c3.695-18.408 14.134-35.197 29.96-46.696 7.106-5.163 14.673-9.453 22.574-12.874-3.403-3.195-6.897-6.215-10.464-9.016-15.412-11.929-32.136-19.827-42.669-13.297-10.921 5.857-12.443 24.289-9.819 43.601 1.813 12.676 5.357 25.714 10.418 38.282z" fill="#fdb4ba"/></g><g><path d="m195.653 56.939c6.373-4.388 13.089-8.106 20.072-11.129-3.403-3.195-6.897-6.215-10.464-9.016-15.412-11.929-32.136-19.827-42.669-13.297-3.309 1.775-5.75 4.709-7.479 8.467 8.985 1.592 19.406 7.577 29.291 15.227 3.841 3.015 7.601 6.277 11.249 9.748z" fill="#fe99a0"/></g><g><path d="m331.778 58.683c15.919 11.566 26.388 28.485 30.025 47.02 5.131-12.667 8.722-25.82 10.55-38.605 2.625-19.312 1.103-37.744-9.819-43.601-10.533-6.53-27.257 1.368-42.669 13.297-3.589 2.818-7.104 5.858-10.527 9.075 7.852 3.41 15.374 7.68 22.44 12.814z" fill="#fdb4ba"/></g><g><path d="m351.884 67.097c-.493 3.445-1.12 6.917-1.864 10.399 5.802 8.524 9.805 18.124 11.783 28.206 5.131-12.667 8.722-25.82 10.55-38.605 2.625-19.312 1.103-37.744-9.819-43.601-5.472-3.392-12.617-2.884-20.378.053 10.837 5.912 12.345 24.291 9.728 43.548z" fill="#fe99a0"/></g></g><g><g><path d="m419.715 267.249-2.096-2.096c-6.326-6.326-16.583-6.326-22.908 0s-6.325 16.583 0 22.908l2.096 2.096c20.269 20.269 20.269 53.249 0 73.518l-25.732 25.732v24.238c0 9.214-1.645 18.05-4.654 26.233l53.295-53.295c32.9-32.9 32.9-86.433-.001-119.334z" fill="#918291"/></g><g><g><path d="m419.715 267.249-2.096-2.096c-6.326-6.326-16.583-6.326-22.908 0-2.372 2.372-3.854 5.296-4.447 8.359 5.725-2.068 12.376-.826 16.965 3.763l2.096 2.096c29.471 29.471 32.522 75.485 9.196 108.408l1.195-1.195c32.9-32.901 32.9-86.434-.001-119.335z" fill="#7a6d79"/></g></g><g><g><path d="m362.319 137.479c6.779-29.907-4.782-61.318-29.953-79.605-41.681-30.283-98.121-30.283-139.802 0-25.171 18.288-36.732 49.699-29.953 79.605-8.256 8.778-13.34 20.568-13.34 33.496 0 23.692 17.049 43.589 39.483 48.046l2.425 7.464h142.573l2.425-7.464c22.434-4.457 39.483-24.354 39.483-48.046-.001-12.927-5.085-24.718-13.341-33.496z" fill="#918291"/></g><g><path d="m362.319 137.479c6.779-29.907-4.782-61.318-29.953-79.605-25.279-18.366-55.984-25.572-85.536-21.661 19.174 2.538 37.864 9.744 54.266 21.661 23.912 17.374 35.542 46.591 30.833 75.11-.454 2.747.2 5.564 1.926 7.749 6.587 8.342 10.535 18.851 10.535 30.242 0 23.692-17.049 43.589-39.483 48.046l-2.425 7.464h31.27l2.426-7.464c22.434-4.457 39.482-24.354 39.482-48.046-.001-12.927-5.085-24.718-13.341-33.496z" fill="#7a6d79"/></g><g><path d="m372.075 337.089c0-32.245-19.184-59.992-46.751-72.504h-125.719c-10.906 4.95-20.492 12.292-28.105 21.347 11.654 1.779 20.656 11.908 20.656 24.039 0 4.848-1.443 9.373-3.914 13.177 31.548 13.119 53.733 44.232 53.733 80.53 0 48.148-39.03 87.18-87.178 87.183h204.178v-17.076c0-4.556-1.235-8.82-3.385-12.481 10.316-13.127 16.486-29.666 16.486-47.656v-76.559z" fill="#918291"/></g><g><g><path d="m325.324 264.585h-31.075c27.567 12.512 46.751 40.259 46.751 72.504v76.556c0 6.314-.775 12.444-2.205 18.318v17.536c7.158 1.33 13.233 5.74 16.794 11.803 10.316-13.127 16.486-29.666 16.486-47.656v-76.556c0-32.246-19.184-59.993-46.751-72.505z" fill="#7a6d79"/></g></g><g><path d="m336.805 265.585h-148.68c-6.038 0-10.932-4.895-10.932-10.932v-18.317c0-6.038 4.895-10.932 10.932-10.932h148.68c6.038 0 10.932 4.895 10.932 10.932v18.317c0 6.038-4.895 10.932-10.932 10.932z" fill="#0593fc"/></g><g><path d="m336.805 225.403h-41.737c6.038 0 10.932 4.895 10.932 10.932v18.317c0 6.038-4.895 10.932-10.932 10.932h41.737c6.038 0 10.932-4.895 10.932-10.932v-18.317c0-6.037-4.895-10.932-10.932-10.932z" fill="#0182fc"/></g><g><circle cx="262.465" cy="281.064" fill="#ffe177" r="28.421"/></g><g><path d="m262.465 252.643c-3.688 0-7.209.71-10.443 1.989 10.527 4.163 17.978 14.424 17.978 26.432s-7.451 22.269-17.978 26.432c3.234 1.279 6.754 1.989 10.443 1.989 15.696 0 28.421-12.724 28.421-28.421-.001-15.696-12.725-28.421-28.421-28.421z" fill="#ffd15b"/></g></g><g><g><circle cx="154.792" cy="403.677" fill="#fdb4ba" r="87.183"/></g></g><path d="m188.242 323.147c-4.344 6.689-11.876 11.139-20.402 11.139h-2.257c20.912 15.924 34.417 41.076 34.417 69.391 0 40.913-28.185 75.238-66.195 84.633 6.723 1.662 13.751 2.549 20.987 2.549 48.15 0 87.183-39.033 87.183-87.183 0-36.297-22.185-67.41-53.733-80.529z" fill="#fe99a0"/><g><path d="m67.61 403.677c0 12.68 2.729 24.716 7.597 35.585h159.172c4.867-10.869 7.597-22.905 7.597-35.585s-2.729-24.716-7.597-35.585h-159.173c-4.867 10.869-7.596 22.905-7.596 35.585z" fill="#ffe177"/></g><g><path d="m200 403.677c0 12.677-2.711 24.719-7.577 35.585h41.979c4.865-10.866 7.573-22.909 7.573-35.585s-2.708-24.718-7.573-35.585h-41.979c4.866 10.866 7.577 22.908 7.577 35.585z" fill="#ffd15b"/></g><g><path d="m167.84 334.286h-26.096c-13.374 0-24.316-10.942-24.316-24.316 0-13.374 10.942-24.316 24.316-24.316h26.096c13.374 0 24.316 10.942 24.316 24.316 0 13.374-10.942 24.316-24.316 24.316z" fill="#918291"/></g><g><path d="m167.84 285.654h-26.095c-.854 0-1.698.046-2.53.133 12.195 1.276 21.785 11.663 21.785 24.183s-9.589 22.907-21.786 24.183c.832.087 1.676.133 2.53.133h26.095c13.374 0 24.316-10.942 24.316-24.316s-10.941-24.316-24.315-24.316z" fill="#7a6d79"/></g></g></g><g><path d="m249.729 187.076 12.789-10.47 13.15 10.522c1.383 1.106 3.037 1.644 4.681 1.644 2.2 0 4.38-.963 5.861-2.814 2.588-3.234 2.063-7.954-1.171-10.542l-15.075-12.062v-1.176l10.281-10.923c2.799-2.974 3.561-7.317 1.94-11.066s-5.306-6.172-9.39-6.172h-20.664c-4.084 0-7.77 2.423-9.39 6.172s-.858 8.093 1.941 11.067l10.28 10.922v1.227l-14.737 12.064c-3.205 2.624-3.677 7.35-1.053 10.555 2.628 3.206 7.351 3.673 10.557 1.052z"/><path d="m201.86 121.553c6.319-1.339 10.596.685 12.58 2.009 2.677 1.785 3.927 4.016 4.184 5.383.678 3.603 3.826 6.114 7.362 6.114.46 0 .927-.042 1.396-.13 4.07-.767 6.75-4.687 5.984-8.758-1.097-5.825-4.96-11.325-10.602-15.088-6.813-4.545-15.338-6.038-24.008-4.206-4.053.857-6.643 4.837-5.786 8.89s4.839 6.638 8.89 5.786z"/><path d="m296.901 134.929c.469.088.936.13 1.396.13 3.536 0 6.685-2.513 7.362-6.114.257-1.367 1.507-3.598 4.184-5.383 1.983-1.324 6.26-3.348 12.58-2.009 4.049.853 8.032-1.733 8.89-5.786.856-4.053-1.733-8.032-5.786-8.89-8.666-1.832-17.192-.339-24.008 4.206-5.642 3.763-9.505 9.263-10.602 15.088-.766 4.071 1.914 7.991 5.984 8.758z"/><path d="m504.5 483.359h-138.025v-9.576c0-4.087-.775-8.018-2.186-11.648 4.346-6.2 7.805-12.851 10.319-19.837l26.971-26.971c2.929-2.93 2.929-7.678 0-10.607-2.93-2.928-7.678-2.928-10.607 0l-11.449 11.449c.024-.84.052-1.679.052-2.523v-22.132l22.536-22.535c23.192-23.193 23.192-60.931 0-84.124l-2.097-2.096c-3.392-3.393-3.392-8.911 0-12.302 1.643-1.644 3.827-2.549 6.15-2.549s4.508.905 6.152 2.55l2.095 2.095c14.286 14.285 22.264 33.309 22.463 53.565.2 20.228-7.364 39.382-21.301 53.938-2.865 2.991-2.762 7.739.23 10.604 2.99 2.863 7.738 2.763 10.604-.23 16.661-17.4 25.705-40.292 25.467-64.458-.239-24.208-9.777-46.946-26.857-64.026l-2.095-2.094c-4.476-4.477-10.427-6.942-16.758-6.942-6.33 0-12.281 2.466-16.758 6.941-9.239 9.24-9.239 24.274 0 33.516l2.097 2.097c17.345 17.344 17.345 45.565.001 62.91l-11.93 11.929v-33.212c0-26.723-11.907-51.201-32.005-67.505 4.635-3.351 7.668-8.788 7.668-14.932v-18.316c0-5.386-2.336-10.224-6.031-13.597 18.441-8.059 31.475-25.557 33.627-45.829h16.209c4.143 0 7.5-3.357 7.5-7.5s-3.357-7.5-7.5-7.5h-16.626c-.803-4.926-2.25-9.706-4.313-14.227h15.258c4.143 0 7.5-3.357 7.5-7.5s-3.357-7.5-7.5-7.5h-22.529c1.39-9.45 1.15-18.912-.573-28.032 4.565-12.049 7.777-24.315 9.526-36.545 3.615-26.604-1.053-44.268-13.499-51.108-12.148-7.358-29.78-2.569-51.053 13.896-2.187 1.718-4.391 3.561-6.588 5.487-29.636-11.678-62.578-11.695-92.224-.053-2.181-1.91-4.374-3.742-6.569-5.466-21.231-16.434-38.864-21.224-51.012-13.864-12.447 6.842-17.115 24.506-13.492 51.16 1.724 12.052 4.892 24.198 9.389 36.144-1.783 9.228-2.048 18.81-.641 28.381h-23.108c-4.143 0-7.5 3.357-7.5 7.5s3.357 7.5 7.5 7.5h15.837c-2.062 4.52-3.51 9.3-4.313 14.227h-16.626c-4.143 0-7.5 3.357-7.5 7.5s3.357 7.5 7.5 7.5h16.209c2.152 20.272 15.186 37.77 33.627 45.829-3.695 3.373-6.031 8.211-6.031 13.597v18.316c0 6.166 3.054 11.621 7.718 14.969-3.208 2.618-6.238 5.466-9.07 8.545-.167-.003-.332-.013-.5-.013h-26.096c-17.544 0-31.816 14.272-31.816 31.815 0 3.325.515 6.531 1.465 9.546-31.391 16.159-51.283 48.394-51.283 84.161 0 33.405 17.39 62.824 43.591 79.683h-96.2c-4.143 0-7.5 3.357-7.5 7.5s3.357 7.5 7.5 7.5h497c4.143 0 7.5-3.357 7.5-7.5s-3.357-7.501-7.5-7.501zm-180.044-440.635c15.048-11.648 28.124-16.575 34.127-12.854.133.082.269.16.406.234 6.222 3.337 8.495 17.124 5.939 35.931-.708 4.954-1.694 9.929-2.929 14.899-5.938-11.287-14.462-21.308-25.225-29.128-4.262-3.096-8.667-5.89-13.182-8.393.288-.229.577-.464.864-.689zm-164.251 23.363c-2.563-18.857-.29-32.646 5.932-35.982.138-.074.273-.152.406-.234 6.003-3.724 19.079 1.207 34.087 12.821.271.213.545.447.817.664-4.554 2.518-8.996 5.33-13.292 8.451-10.683 7.761-19.159 17.691-25.091 28.874-1.204-4.878-2.166-9.751-2.859-14.594zm-2.998 110.823h22.637c4.143 0 7.5-3.357 7.5-7.5s-3.357-7.5-7.5-7.5h-22.055c1.146-5.076 3.248-9.895 6.216-14.227h15.838c4.143 0 7.5-3.357 7.5-7.5s-3.357-7.5-7.5-7.5h-10.547c-4.706-26.25 5.937-52.948 27.675-68.742 39.174-28.461 91.812-28.461 130.986 0 21.738 15.794 32.38 42.492 27.675 68.742h-10.547c-4.143 0-7.5 3.357-7.5 7.5s3.357 7.5 7.5 7.5h15.838c2.968 4.332 5.071 9.151 6.216 14.227h-22.055c-4.143 0-7.5 3.357-7.5 7.5s3.357 7.5 7.5 7.5h22.637c-2.493 17.139-15.604 31.297-33.008 34.754-2.663.529-4.832 2.456-5.671 5.038l-.39 1.201h-77.152c-4.143 0-7.5 3.357-7.5 7.5s3.357 7.5 7.5 7.5h85.305c1.893 0 3.433 1.54 3.433 3.433v18.316c0 1.893-1.54 3.433-3.433 3.433h-46.78c-6.594-7.896-16.492-12.941-27.56-12.941s-20.966 5.046-27.56 12.941h-46.78c-1.893 0-3.433-1.54-3.433-3.433v-18.316c0-1.893 1.54-3.433 3.433-3.433h28.375c4.143 0 7.5-3.357 7.5-7.5s-3.357-7.5-7.5-7.5h-20.224l-.39-1.201c-.839-2.582-3.008-4.509-5.671-5.038-17.404-3.457-30.516-17.614-33.008-34.754zm105.258 115.59c-4.143 0-7.5 3.357-7.5 7.5v.572c-5.505-2.124-9.883-6.502-12.007-12.007h39.015c-2.124 5.505-6.502 9.883-12.007 12.007v-.572c-.001-4.142-3.359-7.5-7.501-7.5zm-19.507-18.935c3.024-7.837 10.617-13.421 19.507-13.421s16.483 5.584 19.507 13.421zm-101.214 19.589h26.096c9.272 0 16.816 7.543 16.816 16.815s-7.544 16.816-16.816 16.816h-26.096c-9.272 0-16.816-7.544-16.816-16.816s7.544-16.815 16.816-16.815zm-22.56 39.226c5.767 5.805 13.75 9.406 22.561 9.406h26.096c8.81 0 16.793-3.601 22.561-9.406 13.083 6.526 23.843 16.351 31.46 28.212h-74.862c-4.143 0-7.5 3.357-7.5 7.5s3.357 7.5 7.5 7.5h82.387c2.453 6.538 4.061 13.448 4.728 20.585h-158.646c.667-7.137 2.274-14.047 4.728-20.585h31.803c4.143 0 7.5-3.357 7.5-7.5s-3.357-7.5-7.5-7.5h-24.276c7.617-11.861 18.376-21.686 31.46-28.212zm110.165 99.382h-149.114c-2.458-6.503-4.088-13.405-4.762-20.585h158.638c-.674 7.179-2.304 14.082-4.762 20.585zm-141.534 15h133.954c-14.198 21.995-38.906 36.598-66.977 36.598s-52.779-14.603-66.977-36.598zm250.98-86.17c-4.143 0-7.5 3.357-7.5 7.5v81.407c0 3.613 2.577 6.714 6.13 7.374 8.141 1.513 14.05 8.625 14.05 16.91v9.576h-50.251v-115.267c0-4.143-3.357-7.5-7.5-7.5s-7.5 3.357-7.5 7.5v115.268h-80.34c26.202-16.859 43.591-46.278 43.591-79.683 0-35.766-19.892-68.002-51.283-84.161.95-3.015 1.465-6.221 1.465-9.546 0-11.325-5.953-21.28-14.889-26.92 4.396-3.894 9.227-7.238 14.476-9.965h28.205c-.585 2.568-.905 5.237-.905 7.979 0 19.807 16.114 35.921 35.921 35.921s35.921-16.114 35.921-35.921c0-2.743-.319-5.411-.905-7.979h28.206c24.032 12.474 38.887 36.843 38.887 64.004v76.557c0 12.653-3.339 24.729-9.691 35.412-2.549-2.128-5.432-3.884-8.589-5.152v-75.813c.001-4.144-3.356-7.501-7.499-7.501z"/></g></g></svg>