<svg id="Capa_1" enable-background="new 0 0 512 512" height="512" viewBox="0 0 512 512" width="512" xmlns="http://www.w3.org/2000/svg"><g><g><g><g><path d="m163.191 101.628c3.695-18.408 14.134-35.197 29.96-46.696 7.106-5.163 14.673-9.453 22.574-12.874-3.403-3.195-6.897-6.215-10.464-9.016-15.412-11.929-32.136-19.827-42.669-13.297-10.921 5.857-12.443 24.289-9.819 43.602 1.813 12.676 5.357 25.714 10.418 38.281z" fill="#fdb4ba"/></g><g><path d="m195.653 53.188c6.373-4.388 13.089-8.106 20.072-11.129-3.403-3.195-6.897-6.215-10.464-9.016-15.412-11.929-32.136-19.827-42.669-13.297-3.309 1.775-5.75 4.709-7.479 8.467 8.985 1.592 19.406 7.577 29.291 15.227 3.841 3.016 7.601 6.278 11.249 9.748z" fill="#fe99a0"/></g><g><path d="m331.778 54.933c15.919 11.566 26.388 28.485 30.025 47.02 5.131-12.667 8.722-25.82 10.55-38.605 2.625-19.312 1.103-37.744-9.819-43.602-10.533-6.53-27.257 1.368-42.669 13.297-3.589 2.818-7.104 5.858-10.527 9.075 7.852 3.411 15.374 7.681 22.44 12.815z" fill="#fdb4ba"/></g><g><path d="m351.884 63.347c-.493 3.445-1.12 6.917-1.864 10.399 5.802 8.524 9.805 18.124 11.783 28.206 5.131-12.667 8.722-25.82 10.55-38.605 2.625-19.312 1.103-37.744-9.819-43.602-5.472-3.392-12.617-2.884-20.378.053 10.837 5.913 12.345 24.292 9.728 43.549z" fill="#fe99a0"/></g></g><g><g><path d="m419.715 263.499-2.096-2.096c-6.326-6.326-16.583-6.326-22.908 0s-6.325 16.583 0 22.908l2.096 2.096c20.269 20.269 20.269 53.249 0 73.518l-25.732 25.732v24.238c0 9.214-1.645 18.05-4.654 26.233l53.295-53.295c32.9-32.9 32.9-86.433-.001-119.334z" fill="#918291"/></g><g><g><path d="m419.715 263.499-2.096-2.096c-6.326-6.326-16.583-6.326-22.908 0-2.372 2.372-3.854 5.296-4.447 8.359 5.725-2.068 12.376-.826 16.965 3.763l2.096 2.096c29.471 29.471 32.522 75.485 9.196 108.408l1.195-1.195c32.9-32.901 32.9-86.434-.001-119.335z" fill="#7a6d79"/></g></g><g><g><path d="m362.319 133.729c6.779-29.907-4.782-61.318-29.953-79.605-41.681-30.283-98.121-30.283-139.802 0-25.171 18.288-36.732 49.699-29.953 79.605-8.256 8.778-13.34 20.568-13.34 33.496 0 23.692 17.049 43.589 39.483 48.046l2.425 7.464h142.573l2.425-7.464c22.434-4.457 39.483-24.354 39.483-48.046-.001-12.928-5.085-24.718-13.341-33.496z" fill="#918291"/></g><g><path d="m362.319 133.729c6.779-29.906-4.782-61.317-29.953-79.605-25.279-18.366-55.984-25.572-85.536-21.661 19.174 2.538 37.864 9.744 54.266 21.661 23.912 17.374 35.542 46.591 30.833 75.11-.454 2.747.2 5.564 1.926 7.749 6.587 8.342 10.535 18.851 10.535 30.242 0 23.692-17.049 43.589-39.483 48.046l-2.425 7.464h31.27l2.426-7.464c22.434-4.457 39.482-24.354 39.482-48.046-.001-12.928-5.085-24.718-13.341-33.496z" fill="#7a6d79"/></g><path d="m325.324 260.835h-125.719c-11.271 5.116-21.138 12.781-28.868 22.256 11.493 1.432 20.419 11.254 20.419 23.129 0 4.489-1.3 8.861-3.76 12.644l-.655 1.007 1.109.462c32.271 13.419 53.124 44.662 53.124 79.595 0 34.016-20.098 64.935-51.2 78.769v1.914h104.948v-114.611c0-11.875 9.661-21.536 21.536-21.536s21.536 9.661 21.536 21.536v80.58l.817.152c7.092 1.318 12.947 5.723 16.301 11.666 10.727-13.254 17.161-30.123 17.161-48.504v-76.556c.002-32.245-19.182-59.991-46.749-72.503z" fill="#918291"/><g><path d="m325.324 260.835h-41.075c27.567 12.512 46.751 40.258 46.751 72.504v15.623c4.772 4.132 7.795 10.23 7.795 17.038v79.749c7.158 1.33 13.233 5.74 16.794 11.803 10.316-13.127 16.486-29.666 16.486-47.657v-76.556c0-32.246-19.184-59.992-46.751-72.504z" fill="#7a6d79"/></g><g><path d="m336.805 261.835h-148.68c-6.038 0-10.932-4.895-10.932-10.932v-18.317c0-6.038 4.895-10.932 10.932-10.932h148.68c6.038 0 10.932 4.895 10.932 10.932v18.317c0 6.038-4.895 10.932-10.932 10.932z" fill="#0593fc"/></g><g><path d="m336.805 221.653h-41.737c6.038 0 10.932 4.895 10.932 10.932v18.317c0 6.038-4.895 10.932-10.932 10.932h41.737c6.038 0 10.932-4.895 10.932-10.932v-18.317c0-6.037-4.895-10.932-10.932-10.932z" fill="#0182fc"/></g><g><circle cx="262.465" cy="277.314" fill="#ffe177" r="28.421"/></g><g><path d="m262.465 248.893c-3.688 0-7.209.71-10.443 1.989 10.527 4.163 17.978 14.424 17.978 26.432 0 4.646-1.126 9.024-3.103 12.895 1.857 1.365 3.068 3.559 3.068 6.041v8.477c12.056-3.291 20.921-14.314 20.921-27.413-.001-15.696-12.725-28.421-28.421-28.421z" fill="#ffd15b"/></g><path d="m234.044 277.314c0 2.597.355 5.11 1.008 7.5h54.826c.652-2.39 1.008-4.903 1.008-7.5s-.355-5.11-1.008-7.5h-54.826c-.653 2.39-1.008 4.903-1.008 7.5z" fill="#ffc344"/><g><path d="m262.465 288.75c-4.143 0-7.5 3.357-7.5 7.5v8.477c2.39.652 4.903 1.008 7.5 1.008s5.11-.355 7.5-1.008v-8.477c0-4.143-3.358-7.5-7.5-7.5z" fill="#ffc344"/></g><path d="m358.975 480.609v-10.577c0-12.099-8.699-22.15-20.18-24.284v-79.748c0-12.446-10.09-22.536-22.536-22.536s-22.536 10.09-22.536 22.536v114.609z" fill="#7a6d79"/><path d="m317.82 366v79.749c11.481 2.134 20.18 12.185 20.18 24.284v10.577h20.975v-10.577c0-12.099-8.699-22.15-20.18-24.284v-79.749c0-12.446-10.09-22.536-22.536-22.536-3.788 0-7.354.939-10.487 2.59 7.163 3.774 12.048 11.287 12.048 19.946z" fill="#685e68"/><g><path d="m285.04 171.666-15.075-12.062v-4.15c0-.446-.046-.88-.121-1.304l-3.46 3.676c-1.012 1.076-2.44 1.693-3.919 1.693s-2.907-.617-3.919-1.693l-3.46-3.676c-.074.424-.121.858-.121 1.304v4.202l-14.737 12.064c-3.205 2.624-3.677 7.35-1.053 10.555 2.625 3.206 7.349 3.674 10.555 1.053l12.789-10.47 13.15 10.522c1.383 1.106 3.037 1.644 4.681 1.644 2.2 0 4.38-.963 5.861-2.814 2.588-3.236 2.063-7.956-1.171-10.544z" fill="#7a6d79"/><g><g><path d="m225.986 131.309c-3.536 0-6.685-2.512-7.362-6.114-.257-1.367-1.507-3.598-4.184-5.383-1.984-1.324-6.261-3.348-12.58-2.009-4.052.853-8.033-1.733-8.89-5.786s1.733-8.032 5.786-8.89c8.67-1.832 17.194-.339 24.008 4.206 5.642 3.763 9.505 9.263 10.602 15.088.766 4.071-1.914 7.991-5.984 8.758-.469.088-.936.13-1.396.13z" fill="#685e68"/></g><g><path d="m298.297 131.309c-.46 0-.927-.042-1.396-.13-4.07-.767-6.75-4.687-5.984-8.758 1.097-5.825 4.96-11.325 10.602-15.088 6.815-4.545 15.342-6.038 24.008-4.206 4.053.857 6.643 4.837 5.786 8.89s-4.841 6.639-8.89 5.786c-6.32-1.339-10.597.685-12.58 2.009-2.677 1.785-3.927 4.016-4.184 5.383-.678 3.601-3.826 6.114-7.362 6.114z" fill="#685e68"/></g></g><g><g><g><path d="m393.361 143.934h-48.275c-4.143 0-7.5-3.357-7.5-7.5s3.357-7.5 7.5-7.5h48.275c4.143 0 7.5 3.357 7.5 7.5s-3.357 7.5-7.5 7.5z" fill="#685e68"/></g><g><path d="m399.043 173.16h-53.957c-4.143 0-7.5-3.357-7.5-7.5s3.357-7.5 7.5-7.5h53.957c4.143 0 7.5 3.357 7.5 7.5s-3.357 7.5-7.5 7.5z" fill="#685e68"/></g></g><g><g><path d="m179.844 143.934h-48.854c-4.143 0-7.5-3.357-7.5-7.5s3.357-7.5 7.5-7.5h48.854c4.143 0 7.5 3.357 7.5 7.5s-3.358 7.5-7.5 7.5z" fill="#685e68"/></g><g><path d="m179.844 173.16h-53.957c-4.143 0-7.5-3.357-7.5-7.5s3.357-7.5 7.5-7.5h53.957c4.143 0 7.5 3.357 7.5 7.5s-3.358 7.5-7.5 7.5z" fill="#685e68"/></g></g></g></g></g><path d="m187.315 319.018c-4.174 6.33-11.343 10.518-19.476 10.518h-26.096c-8.132 0-15.302-4.188-19.476-10.518-32.038 12.892-54.657 44.257-54.657 80.909 0 36.441 22.361 67.655 54.108 80.683h66.15c31.747-13.028 54.108-44.242 54.108-80.683-.001-36.653-22.621-68.017-54.661-80.909z" fill="#fdb4ba"/><path d="m187.315 319.018c-4.174 6.33-11.343 10.518-19.476 10.518h-3.61c21.679 15.859 35.771 41.472 35.771 70.39 0 36.457-22.388 67.666-54.157 80.683h42.024c31.747-13.028 54.108-44.242 54.108-80.683 0-36.652-22.62-68.016-54.66-80.908z" fill="#fe99a0"/><g><path d="m67.61 399.927c0 12.68 2.729 24.716 7.597 35.585h159.172c4.867-10.869 7.597-22.905 7.597-35.585s-2.729-24.716-7.597-35.585h-159.173c-4.867 10.869-7.596 22.904-7.596 35.585z" fill="#ffe177"/></g><g><path d="m200 399.926c0 12.677-2.711 24.719-7.577 35.585h41.979c4.865-10.866 7.573-22.909 7.573-35.585s-2.708-24.718-7.573-35.585h-41.979c4.866 10.867 7.577 22.909 7.577 35.585z" fill="#ffd15b"/></g><g><path d="m167.84 330.536h-26.096c-13.374 0-24.316-10.942-24.316-24.316 0-13.374 10.942-24.316 24.316-24.316h26.096c13.374 0 24.316 10.942 24.316 24.316 0 13.374-10.942 24.316-24.316 24.316z" fill="#918291"/></g><g><path d="m167.84 281.904h-26.095c-.854 0-1.698.046-2.53.133 12.195 1.276 21.785 11.663 21.785 24.183s-9.589 22.907-21.786 24.183c.832.087 1.676.133 2.53.133h26.095c13.374 0 24.316-10.942 24.316-24.316s-10.941-24.316-24.315-24.316z" fill="#7a6d79"/></g><path d="m241.975 399.927c0-2.527-.113-5.028-.325-7.5h-173.715c-.212 2.472-.325 4.972-.325 7.5 0 2.527.113 5.028.325 7.5h173.715c.212-2.472.325-4.973.325-7.5z" fill="#ffc344"/></g></g><g><path d="m504.5 494.609h-497c-4.143 0-7.5-3.357-7.5-7.5s3.357-7.5 7.5-7.5h497c4.143 0 7.5 3.357 7.5 7.5s-3.357 7.5-7.5 7.5z" fill="#99e6fc"/></g><path d="m262.465 160.519c-1.76 0-3.442-.726-4.648-2.008l-10.485-11.14c-2.383-2.532-3.031-6.228-1.652-9.419s4.516-5.253 7.991-5.253h17.587c3.476 0 6.612 2.062 7.991 5.253s.731 6.888-1.651 9.418l-10.486 11.14c-1.205 1.283-2.887 2.009-4.647 2.009z" fill="#685e68"/></g></svg>