<svg id="Capa_1" enable-background="new 0 0 512 512" height="512" viewBox="0 0 512 512" width="512" xmlns="http://www.w3.org/2000/svg"><g><g><g><path d="m222.004 361.545v100.508c0 13.798 7.505 25.923 18.632 32.51.988.585 2.215.585 3.203 0 11.126-6.587 18.631-18.712 18.631-32.51v-100.508z" fill="#a2e62e"/></g></g><g><g><path d="m291.315 361.545v100.508c0 13.798 7.505 25.923 18.632 32.51.988.585 2.215.585 3.203 0 11.126-6.587 18.631-18.712 18.631-32.51v-100.508z" fill="#a2e62e"/></g></g><g><g><path d="m256.609 361.545v117.506c0 13.798 7.505 25.923 18.631 32.51.988.585 2.215.585 3.203 0 11.126-6.587 18.631-18.712 18.631-32.51v-117.506z" fill="#bbec6c"/></g></g><g><g><path d="m296.208 136.234c7.509 0 14.668 1.523 21.188 4.272v-71.552c0-37.925-31.03-68.954-68.954-68.954-37.925 0-68.954 31.029-68.954 68.954v67.28z" fill="#ffe177"/></g><g><path d="m248.442 0c-5.604 0-11.051.693-16.275 1.97 30.135 7.366 52.679 34.662 52.679 66.984v67.28h11.363c7.509 0 14.668 1.523 21.188 4.272v-71.552c-.001-37.925-31.031-68.954-68.955-68.954z" fill="#ffd15b"/></g><path d="m307.865 323.06c-9.595-14.67-14.762-31.807-14.762-49.746v-136.314l-1.03-1.796h-112.585c-51.635 51.635-53.117 134.427-4.454 187.856z" fill="#bbec6c"/><path d="m307.865 323.06c-9.595-14.67-14.762-31.807-14.762-49.746v-136.314l-1.03-1.796h-28.329v138.11c0 17.939 5.167 35.075 14.762 49.746z" fill="#a2e62e"/><g><g><path d="m205.826 78.888c-4.143 0-7.5-3.357-7.5-7.5v-8.653c0-4.143 3.357-7.5 7.5-7.5s7.5 3.357 7.5 7.5v8.653c0 4.142-3.357 7.5-7.5 7.5z" fill="#7a6d79"/></g><g><path d="m268.959 78.888c-4.143 0-7.5-3.357-7.5-7.5v-8.653c0-4.143 3.357-7.5 7.5-7.5s7.5 3.357 7.5 7.5v8.653c0 4.142-3.357 7.5-7.5 7.5z" fill="#7a6d79"/></g></g><g><path d="m253.087 88.642-13.509-13.509c-1.207-1.207-3.164-1.207-4.371 0l-13.509 13.509c-1.095 1.095-1.211 2.833-.269 4.063l13.509 17.658c1.237 1.617 3.672 1.617 4.909 0l13.509-17.658c.941-1.23.826-2.968-.269-4.063z" fill="#fe9738"/></g><g fill="#d88a55"><path d="m107.068 322.06h303.456v40.515h-303.456z"/><path d="m461.3 322.06h-22.012v40.515h22.012c5.689 0 10.302-4.612 10.302-10.302v-19.911c0-5.69-4.612-10.302-10.302-10.302z"/><path d="m78.305 322.06h-27.605c-5.689 0-10.302 4.612-10.302 10.302v19.911c0 5.69 4.612 10.302 10.302 10.302h27.605z"/></g><g fill="#c57a44"><path d="m107.068 344.399h303.456v18.176h-303.456z"/><path d="m461.3 322.06h-22.012v40.515h22.012c5.689 0 10.302-4.612 10.302-10.302v-19.911c0-5.69-4.612-10.302-10.302-10.302z"/><path d="m78.305 344.399h-37.907v7.874c0 5.689 4.612 10.302 10.302 10.302h27.605z"/></g><g><g><path d="m435.138 372.601h-20.462c-2.845 0-5.151-2.306-5.151-5.151v-50.265c0-2.845 2.306-5.151 5.151-5.151h20.462c2.845 0 5.151 2.306 5.151 5.151v50.265c0 2.845-2.307 5.151-5.151 5.151z" fill="#ffe177"/></g><g><path d="m435.138 312.034h-14.309c2.845 0 5.151 2.306 5.151 5.151v50.265c0 2.845-2.306 5.151-5.151 5.151h14.309c2.845 0 5.151-2.306 5.151-5.151v-50.265c-.001-2.844-2.307-5.151-5.151-5.151z" fill="#ffd15b"/></g><g><path d="m102.918 372.601h-20.463c-2.845 0-5.151-2.306-5.151-5.151v-50.265c0-2.845 2.306-5.151 5.151-5.151h20.462c2.845 0 5.151 2.306 5.151 5.151v50.265c0 2.845-2.306 5.151-5.15 5.151z" fill="#ffe177"/></g><g><path d="m102.918 312.034h-14.309c2.845 0 5.151 2.306 5.151 5.151v50.265c0 2.845-2.306 5.151-5.151 5.151h14.309c2.845 0 5.151-2.306 5.151-5.151v-50.265c-.001-2.844-2.307-5.151-5.151-5.151z" fill="#ffd15b"/></g></g><g fill="#fe9738"><path d="m219.108 309.778h-8.989c-5.103 0-9.239 4.136-9.239 9.239 0-5.103-4.137-9.239-9.24-9.239h-8.989c-5.103 0-9.239 4.136-9.239 9.239 0-5.103-4.137-9.239-9.239-9.239h-8.989c-5.103 0-9.24 4.136-9.24 9.239v9.048c0 5.103 4.137 9.239 9.24 9.239h8.989c5.103 0 9.239-4.137 9.239-9.239 0 5.103 4.137 9.239 9.239 9.239h8.989c5.103 0 9.24-4.137 9.24-9.239 0 5.103 4.136 9.239 9.239 9.239h8.989c5.103 0 9.239-4.137 9.239-9.239v-9.048c.001-5.102-4.136-9.239-9.239-9.239z"/><path d="m298.765 309.778h-8.989c-5.103 0-9.24 4.136-9.24 9.239 0-5.103-4.136-9.239-9.239-9.239h-8.989c-5.103 0-9.239 4.136-9.239 9.239v9.048c0 5.103 4.137 9.239 9.239 9.239h8.989c5.103 0 9.239-4.137 9.239-9.239 0 5.103 4.137 9.239 9.24 9.239h8.989c5.103 0 9.24-4.137 9.24-9.239v-9.048c-.001-5.102-4.137-9.239-9.24-9.239z"/></g><g><path d="m292.072 135.204v138.11c0 24.45 9.713 47.899 27.001 65.187l27.587 27.587c1.947 1.947 5.276.568 5.276-2.185v-172.97c0-30.778-24.951-55.729-55.729-55.729z" fill="#fff0ad"/></g><g><path d="m296.208 135.204h-4.136v2.514c22.672 7.064 39.131 28.217 39.131 53.215v159.698l15.458 15.458c1.947 1.947 5.276.568 5.276-2.185v-172.971c0-30.778-24.951-55.729-55.729-55.729z" fill="#ffe177"/></g><g><path d="m296.208 135.204h-4.136v62.922c0 24.45 9.713 47.899 27.001 65.187l32.863 32.863v-105.243c.001-30.778-24.95-55.729-55.728-55.729z" fill="#ffe177"/></g><g><path d="m296.208 135.204h-4.136v2.514c22.672 7.064 39.131 28.217 39.131 53.215v84.511l20.734 20.734v-105.245c0-30.778-24.951-55.729-55.729-55.729z" fill="#ffd15b"/></g><g><g><g><path d="m174.952 213.341c-6.251 0-12.503-2.38-17.263-7.139-2.929-2.93-2.929-7.678 0-10.607 2.93-2.928 7.678-2.928 10.607 0 3.671 3.673 9.643 3.671 13.312 0 2.93-2.928 7.678-2.928 10.607 0 2.929 2.93 2.929 7.678 0 10.607-4.759 4.759-11.011 7.139-17.263 7.139z" fill="#97d729"/></g><g><path d="m218.513 213.341c-6.252 0-12.504-2.38-17.264-7.139-2.929-2.93-2.929-7.678 0-10.607 2.93-2.928 7.678-2.928 10.607 0 3.67 3.672 9.642 3.673 13.312 0 2.93-2.928 7.678-2.928 10.607 0 2.929 2.93 2.929 7.678 0 10.607-4.759 4.759-11.011 7.139-17.262 7.139z" fill="#97d729"/></g><g><path d="m262.073 213.341c-6.252 0-12.504-2.38-17.264-7.139-2.929-2.93-2.929-7.678 0-10.607 2.93-2.928 7.678-2.928 10.607 0 3.67 3.672 9.642 3.673 13.312 0 2.93-2.928 7.678-2.928 10.607 0 2.929 2.93 2.929 7.678 0 10.607-4.759 4.759-11.011 7.139-17.262 7.139z" fill="#97d729"/></g></g><g><g><path d="m196.732 247.839c-6.252 0-12.503-2.38-17.263-7.139-2.929-2.93-2.929-7.678 0-10.607 2.93-2.928 7.678-2.928 10.607 0 3.67 3.67 9.641 3.67 13.311 0 2.93-2.928 7.678-2.928 10.607 0 2.929 2.93 2.929 7.678 0 10.607-4.759 4.759-11.01 7.139-17.262 7.139z" fill="#97d729"/></g><g><path d="m240.292 247.839c-6.251 0-12.503-2.38-17.263-7.139-2.929-2.93-2.929-7.678 0-10.607 2.93-2.928 7.678-2.928 10.607 0 3.671 3.673 9.643 3.671 13.312 0 2.93-2.928 7.678-2.928 10.607 0 2.929 2.93 2.929 7.678 0 10.607-4.759 4.759-11.011 7.139-17.263 7.139z" fill="#97d729"/></g></g></g></g><g><path d="m288.451 113.094c-8.396 0-15.227-6.831-15.227-15.227s6.831-15.227 15.227-15.227 15.226 6.831 15.226 15.227-6.83 15.227-15.226 15.227zm0-15.453c-.125 0-.227.102-.227.227.001.249.452.251.452 0 .001-.126-.101-.227-.225-.227z" fill="#fff0ad"/></g><path d="m179.488 110.965c2.268 1.344 4.904 2.129 7.726 2.129 8.396 0 15.227-6.831 15.227-15.227s-6.831-15.227-15.227-15.227c-2.822 0-5.458.786-7.726 2.129zm7.726-13.324c.125 0 .227.102.227.227 0 .25-.453.25-.453 0-.001-.126.101-.227.226-.227z" fill="#fff0ad"/></g></svg>