<svg id="Capa_1" enable-background="new 0 0 512 512" height="512" viewBox="0 0 512 512" width="512" xmlns="http://www.w3.org/2000/svg"><g><g><g><g><path d="m249.972 365.413v82.387c0 2.062-.204 4.075-.584 6.025 16.077-1.673 28.612-15.263 28.612-31.784v-56.628z" fill="#60b7ff"/></g></g><g><path d="m235.287 365.413-.297.326c-3.682 4.033-7.623 7.938-11.716 11.607l-.332.298v94.896c0 2.431-.29 4.794-.822 7.065 16.191-1.563 28.851-15.204 28.851-31.806v-82.387h-15.684z" fill="#26a6fe"/></g><g><g><path d="m157.039 331.616-39.081-39.081c-1.953-1.953-5.118-1.953-7.071 0l-10.607 10.607c-1.953 1.953-1.953 5.118 0 7.071l25.055 25.055h-47.21c-5.523 0-10 4.477-10 10v11.145c0 5.523 4.477 10 10 10h78.914z" fill="#d88a55"/></g><g><path d="m433.875 335.268h-48.381l18.013-18.013c1.953-1.953 1.953-5.118 0-7.071l-10.607-10.606c-1.953-1.953-5.119-1.953-7.071 0l-35.69 35.69h-71.872c-7.99 3.364-16.4 5.773-25.068 7.081l-.451.068-.244.386c-5.317 8.396-11.425 16.3-18.177 23.611h67.325l35.052 35.052c1.953 1.953 5.118 1.953 7.071 0l10.606-10.607c1.953-1.953 1.953-5.118 0-7.071l-17.374-17.374h96.868c5.523 0 10-4.477 10-10v-11.145c0-5.524-4.477-10.001-10-10.001z" fill="#d88a55"/></g></g><g><g><path d="m433.875 335.268h-31.125c5.522 0 10 4.477 10 10v11.145c0 5.523-4.478 10-10 10h31.125c5.523 0 10-4.477 10-10v-11.145c0-5.523-4.477-10-10-10z" fill="#c57a44"/></g></g><g><path d="m199.544 395.079-7.56 4.648v104.773c17.65 0 31.959-14.308 31.959-31.959v-95.805c-7.534 6.836-15.696 12.992-24.399 18.343z" fill="#60b7ff"/></g><g><g><path d="m384.719 99.675h-41.693v46.605c.998.064 2 .108 3.014.108 25.319 0 45.872-20.363 46.2-45.605-2.423-.731-4.952-1.108-7.521-1.108z" fill="#ffd15b"/></g><g><path d="m343.026 100.675h41.693c4.915 0 9.721 1.449 13.817 4.165l12.169 8.07c1.994 1.322 4.658-.107 4.658-2.5v-9.735c0-30.795-24.964-55.76-55.76-55.76h-16.577z" fill="#ffe177"/></g><g><path d="m359.603 44.916h-16.577v.142c29.027 1.948 51.974 26.096 51.974 55.617v2.224c1.223.552 2.408 1.194 3.536 1.941l12.169 8.07c1.994 1.323 4.658-.107 4.658-2.5v-9.735c-.001-30.795-24.965-55.759-55.76-55.759z" fill="#ffd15b"/></g><g><path d="m319.03 7.5h-4.898c-58.95 0-106.739 47.789-106.739 106.739v56.86c19.901-14.499 44.329-23.141 70.731-23.353v106.775c0 28.125-7.255 55.967-20.979 80.517-1.614 2.887-3.321 5.717-5.103 8.496 51.968-7.185 91.988-51.775 91.988-105.719v-205.315c0-13.807-11.193-25-25-25z" fill="#fe646f"/></g><g><path d="m319.03 7.5h-4.898c-6.026 0-11.932.507-17.685 1.467 9.65 3.464 16.553 12.691 16.553 23.533v205.314c0 39.461-21.416 73.914-53.258 92.384-.839 1.626-1.702 3.241-2.596 4.84-1.614 2.887-3.321 5.717-5.103 8.496 51.968-7.185 91.988-51.775 91.988-105.719v-205.315c-.001-13.807-11.194-25-25.001-25z" fill="#fd4755"/></g><g><path d="m344.03 159.792v-114.876h-20.927c-31.722 0-57.438 25.716-57.438 57.438s25.716 57.438 57.438 57.438z" fill="#fff"/></g><g><path d="m313 45.82v113.068c3.282.583 6.654.904 10.103.904h20.927v-114.876h-20.927c-3.449 0-6.821.321-10.103.904z" fill="#f2fbff"/></g><g><g><path d="m200.068 395.931c49.127-30.204 79.057-83.741 79.057-141.41v-107.78c-67.978 0-123.085 55.107-123.085 123.085v153.174z" fill="#0182fc"/></g><g><path d="m242.013 263.124c-1.669-.002-3 1.326-3 2.994.002 4.41-.708 8.896-2.212 13.303-3.462 10.148-10.496 18.065-19.219 22.83v81.287c11.797-9.549 22.111-20.603 30.771-32.773v-88.145c-2.08.325-4.197.506-6.34.504z" fill="#0593fc"/></g><g><path d="m156.04 351.399v71.601l30.771-18.919v-69.38c-7.056 9.569-18.149 15.979-30.771 16.698z" fill="#0593fc"/></g><path d="m242.013 206.52c-1.669-.002-3 1.326-3 2.994.002 4.41-.708 8.896-2.212 13.303-5.844 17.128-21.859 27.903-39.002 27.885-1.652-.002-2.972 1.317-2.971 2.97v.031c0 21.937-17.16 39.86-38.789 41.093v56.604c21.628-1.232 38.789-19.156 38.789-41.093 0-.01 0-.021 0-.031-.002-1.652 1.318-2.972 2.971-2.97 17.143.019 33.159-10.757 39.002-27.885 1.504-4.407 2.214-8.892 2.212-13.303-.001-1.669 1.331-2.996 3-2.994 15.771.015 30.282-9.098 37.112-23.347v-36.431-20.173c-6.83 14.249-21.341 23.362-37.112 23.347z" fill="#ffe177"/><g><path d="m279.125 146.742c-67.978 0-123.085 55.107-123.085 123.085v24.968c21.628-1.232 38.789-19.156 38.789-41.093 0-.011 0-.021 0-.032-.002-1.652 1.319-2.971 2.971-2.97 17.143.019 33.159-10.757 39.002-27.885 1.504-4.407 2.214-8.892 2.212-13.303-.001-1.669 1.331-2.996 3-2.994 15.771.015 30.283-9.098 37.112-23.347v-36.429z" fill="#fd4755"/></g></g></g></g><g><path d="m317.125 101.242c4.143 0 7.5-3.358 7.5-7.5v-10.012c0-4.142-3.357-7.5-7.5-7.5s-7.5 3.358-7.5 7.5v10.011c0 4.143 3.357 7.501 7.5 7.501z"/><path d="m433.875 327.768h-30.275l5.209-5.208c2.361-2.361 3.662-5.5 3.662-8.84 0-3.339-1.301-6.478-3.661-8.838l-10.606-10.607c-2.361-2.36-5.5-3.66-8.839-3.66s-6.479 1.3-8.839 3.661l-33.493 33.493h-39.371c5.744-4.492 11.098-9.532 15.94-15.111 18.011-20.752 27.93-47.332 27.93-74.843v-84.211c22.646-2.272 41.066-18.44 46.535-40.075l8.494 5.633c1.755 1.165 3.775 1.752 5.803 1.752 1.702 0 3.408-.415 4.966-1.25 3.414-1.832 5.535-5.377 5.535-9.252v-9.735c0-34.881-28.378-63.259-63.26-63.259h-8.072v-4.918c0-17.92-14.579-32.5-32.5-32.5h-4.897c-30.283 0-58.814 11.729-80.339 33.027-21.506 21.28-33.539 49.651-33.884 79.888-.047 4.142 3.272 7.538 7.415 7.585h.087c4.103 0 7.451-3.302 7.497-7.415.299-26.265 10.753-50.91 29.436-69.396 18.694-18.5 43.478-28.689 69.785-28.689h4.897c9.649 0 17.5 7.851 17.5 17.5v4.916h-13.427c-35.808 0-64.938 29.131-64.938 64.938 0 13.843 4.373 26.67 11.788 37.214-19.903 1.389-38.59 7.255-55.06 16.599v-8.167c0-4.142-3.357-7.5-7.5-7.5s-7.5 3.358-7.5 7.5v18.1c-31.195 23.885-51.354 61.493-51.354 103.726v42.684l-25.278-25.278c-2.36-2.361-5.5-3.662-8.839-3.662s-6.478 1.3-8.84 3.661l-10.606 10.607c-4.872 4.874-4.872 12.803 0 17.677l12.252 12.251h-29.103c-9.649 0-17.5 7.851-17.5 17.5v11.145c0 9.649 7.851 17.5 17.5 17.5h70.415v49.089c0 2.717 1.469 5.221 3.84 6.546 1.139.637 2.4.954 3.66.954 1.363 0 2.726-.372 3.928-1.111l24.517-15.073v25.684c0 4.142 3.357 7.5 7.5 7.5s7.5-3.358 7.5-7.5v-34.906l4.511-2.773c4.281-2.632 8.425-5.466 12.447-8.455v78.676c0 10.872-7.129 20.109-16.958 23.283v-20.825c0-4.142-3.357-7.5-7.5-7.5s-7.5 3.358-7.5 7.5v29.5c0 4.142 3.357 7.5 7.5 7.5 17.056 0 31.616-10.88 37.113-26.063 13.019-3.437 23.278-13.334 27.404-25.857 16.844-4.636 28.999-20.167 28.999-38.039v-48.128h13.045l32.854 32.854c2.36 2.361 5.5 3.662 8.839 3.662s6.479-1.3 8.838-3.661l10.608-10.607c4.872-4.874 4.872-12.803 0-17.677l-4.571-4.571h10.886c4.143 0 7.5-3.358 7.5-7.5s-3.357-7.5-7.5-7.5h-28.993c-3.033 0-5.769 1.827-6.929 4.63-1.161 2.803-.52 6.028 1.625 8.173l15.606 15.606-7.071 7.071-33.283-33.284c-1.407-1.407-3.314-2.197-5.304-2.197h-49.994c2.147-2.848 4.218-5.755 6.188-8.734 8.459-1.54 16.667-4.05 24.494-7.411h67.799c1.989 0 3.896-.79 5.304-2.197l33.922-33.922 7.07 7.071-16.244 16.245c-2.145 2.145-2.786 5.371-1.625 8.173 1.16 2.803 3.896 4.63 6.929 4.63h48.381c1.379 0 2.5 1.122 2.5 2.5v11.145c0 1.378-1.121 2.5-2.5 2.5h-32.875c-4.143 0-7.5 3.358-7.5 7.5s3.357 7.5 7.5 7.5h32.875c9.649 0 17.5-7.851 17.5-17.5v-11.145c0-9.649-7.851-17.499-17.5-17.499zm-82.345-275.352h8.072c26.61 0 48.26 21.649 48.26 48.259v1.352l-5.182-3.436c-5.341-3.543-11.552-5.416-17.962-5.416h-33.188zm0 55.759h32.383c-3.3 15.904-16.21 28.056-32.383 30.326zm-202.991 250.738h-70.414c-1.379 0-2.5-1.122-2.5-2.5v-11.145c0-1.378 1.121-2.5 2.5-2.5h47.21c3.033 0 5.769-1.827 6.929-4.63 1.161-2.803.52-6.028-1.625-8.173l-23.287-23.287 7.07-7.071 34.117 34.117zm109.933 15h12.028v48.128c0 8.833-4.797 16.722-12.028 21.017zm64.632-321.497h13.427v99.875h-13.427c-27.536 0-49.938-22.402-49.938-49.938-.001-27.535 22.401-49.937 49.938-49.937zm-159.564 217.411c0-61.213 47.835-111.465 108.085-115.344v26.852c-5.822 10.79-17.247 17.685-29.574 17.685-.014 0-.03 0-.041 0-2.81 0-5.447 1.09-7.427 3.069-1.981 1.98-3.071 4.619-3.069 7.429.002 3.691-.607 7.351-1.811 10.877-4.655 13.646-17.455 22.806-31.857 22.806-.017 0-.034-.001-.051 0-2.801 0-5.431 1.087-7.405 3.062-1.978 1.978-3.064 4.611-3.062 7.44 0 15.075-9.962 27.943-23.788 32.175zm15.771 130.062-15.771 9.696v-51.642c5.688-1.173 11.01-3.317 15.771-6.278zm30.771-20.013c-4.468 3.459-9.114 6.697-13.942 9.666l-1.829 1.125v-53.619c4.319-6.556 7.096-14.209 7.825-22.431 2.709-.239 5.363-.709 7.946-1.38zm15-13.201v-60.21c6.537-4.418 11.99-10.42 15.771-17.577v59.457c-4.783 6.506-10.063 12.631-15.771 18.33zm18.39 81.125c0 8.855-4.793 16.738-12.029 21.025v-87.465c2.577-2.409 5.087-4.888 7.514-7.447h4.515zm-1.418-192.176c-.015 0-.031 0-.045 0-2.809 0-5.445 1.089-7.425 3.067-1.981 1.98-3.072 4.62-3.07 7.43.002 3.691-.607 7.351-1.811 10.877-4.655 13.646-17.454 22.806-31.86 22.806-.016 0-.034 0-.047 0-2.803 0-5.433 1.088-7.407 3.063-1.978 1.978-3.063 4.611-3.061 7.438 0 15.075-9.962 27.943-23.788 32.175v-41.13c20.849-4.296 36.693-21.883 38.596-43.339 19.038-1.678 35.502-14.419 41.765-32.775 1.268-3.716 2.078-7.538 2.423-11.409 9.285-.832 18.049-4.358 25.302-9.919v34.029c-5.823 10.792-17.248 17.687-29.572 17.687zm13.8 67.799v-54.832c5.661-1.693 10.963-4.406 15.64-7.964-.846 21.758-6.187 43.196-15.64 62.796zm12.456 8.634c11.99-24.017 18.315-50.648 18.315-77.536v-98.52c10.404 7.109 22.954 11.291 36.479 11.291h13.427v70.522c0 23.898-8.615 46.987-24.259 65.011-11.83 13.63-27.074 23.674-43.962 29.232z"/></g></g></svg>