<svg id="Capa_1" enable-background="new 0 0 512 512" height="512" viewBox="0 0 512 512" width="512" xmlns="http://www.w3.org/2000/svg"><g><g><g><g><path d="m154.052 333.898-40.26-40.26c-2.012-2.012-5.273-2.012-7.284 0l-10.927 10.927c-2.012 2.012-2.012 5.273 0 7.284l25.811 25.811h-48.635c-5.689 0-10.302 4.612-10.302 10.302v11.481c0 5.69 4.612 10.302 10.302 10.302h81.296v-35.847z" fill="#d88a55"/></g><g><path d="m439.243 337.66h-49.842l18.556-18.556c2.012-2.012 2.012-5.273 0-7.284l-10.927-10.927c-2.012-2.012-5.273-2.012-7.284 0l-36.766 36.767h-74.041c-8.231 3.466-16.895 5.947-25.825 7.295l-.465.07-.252.397c-5.478 8.649-11.77 16.792-18.726 24.323h69.357l36.109 36.11c2.012 2.012 5.273 2.012 7.284 0l10.927-10.927c2.012-2.012 2.012-5.273 0-7.284l-17.898-17.898h99.792c5.689 0 10.302-4.612 10.302-10.302v-11.481c.001-5.69-4.611-10.303-10.301-10.303z" fill="#d88a55"/></g></g><g><g><path d="m439.243 337.66h-32.064c5.689 0 10.302 4.612 10.302 10.302v11.481c0 5.69-4.613 10.302-10.302 10.302h32.064c5.689 0 10.302-4.612 10.302-10.302v-11.481c0-5.689-4.612-10.302-10.302-10.302z" fill="#c57a44"/></g></g><g><g><g><path d="m249.79 368.867v84.873c0 2.124-.21 4.198-.602 6.207 16.563-1.723 29.476-15.724 29.476-32.743v-58.337z" fill="#60b7ff"/></g></g><g><path d="m234.662 368.867-.306.336c-3.793 4.155-7.853 8.178-12.069 11.958l-.342.307v97.761c0 2.504-.298 4.939-.847 7.278 16.68-1.61 29.721-15.663 29.721-32.766v-84.873h-16.157z" fill="#26a6fe"/></g><path d="m197.84 399.428s-7.788 4.788-7.788 4.788v104.781c0 1.79 1.557 3.166 3.338 2.987 16.615-1.673 29.585-15.7 29.585-32.756v-98.696c-7.761 7.041-16.169 13.383-25.135 18.896z" fill="#60b7ff"/></g><g><path d="m325.129 155.888c-32.076 0-58.172-26.096-58.172-58.172s26.096-58.171 58.172-58.171h21.558v-13.791c0-14.223-11.531-25.754-25.754-25.754h-5.045c-60.729 0-109.96 49.231-109.96 109.96v58.576c20.501-14.936 45.667-23.839 72.866-24.058v109.998c0 28.974-7.474 57.656-21.613 82.947-1.663 2.974-3.421 5.89-5.257 8.752 53.536-7.402 94.764-53.337 94.764-108.91v-81.377z" fill="#fe646f"/><g><path d="m314.72 25.754v14.742c3.38-.614 6.854-.951 10.409-.951h21.558v-13.791c0-14.223-11.531-25.754-25.754-25.754h-5.045c-6.208 0-12.292.523-18.219 1.511 9.94 3.569 17.051 13.074 17.051 24.243z" fill="#fd4755"/><g><path d="m388.604 94.957h-42.952v48.011c1.028.066 2.061.112 3.105.112 26.083 0 47.256-20.978 47.594-46.981-2.495-.754-5.101-1.142-7.747-1.142z" fill="#ffd15b"/></g><g><path d="m345.652 95.988h42.951c5.063 0 10.014 1.493 14.234 4.291l12.536 8.314c2.054 1.362 4.799-.111 4.799-2.576v-10.029c0-31.725-25.718-57.443-57.443-57.443h-17.078v57.443z" fill="#ffe177"/></g><g><path d="m362.73 38.545h-17.078v.147c29.904 2.007 53.543 26.883 53.543 57.296v2.291c1.26.568 2.481 1.23 3.642 2l12.536 8.314c2.054 1.362 4.799-.111 4.799-2.576v-10.029c0-31.725-25.718-57.443-57.442-57.443z" fill="#ffd15b"/></g><path d="m325.129 155.888c-3.554 0-7.029-.338-10.409-.951v82.328c0 40.652-22.062 76.145-54.865 95.172-.864 1.675-1.754 3.339-2.675 4.986-1.663 2.974-3.421 5.89-5.257 8.752 53.536-7.402 94.764-53.337 94.764-108.91v-81.377z" fill="#fd4755"/></g><g><path d="m346.687 156.888v-118.343h-21.559c-32.679 0-59.171 26.492-59.171 59.171s26.492 59.171 59.171 59.171h21.559z" fill="#fff"/></g><g><path d="m314.72 39.476v116.48c3.381.6 6.855.931 10.408.931h21.559v-118.342h-21.559c-3.553 0-7.027.331-10.408.931z" fill="#f2fbff"/></g><g><path d="m318.97 96.344c-4.143 0-7.5-3.358-7.5-7.5v-10.313c0-4.142 3.357-7.5 7.5-7.5s7.5 3.358 7.5 7.5v10.313c0 4.142-3.358 7.5-7.5 7.5z" fill="#7a6d79"/></g><g><g><path d="m278.823 239.059c-6.88 14.149-21.452 23.28-37.19 23.28-.001 0 0 0-.001 0-1.143 0-2.17.423-2.938 1.19-.77.769-1.193 1.797-1.192 2.895.002 4.544-.747 9.046-2.226 13.381-5.724 16.776-21.471 28.048-39.186 28.048-1.141 0-2.162.421-2.926 1.186-.764.764-1.183 1.785-1.182 2.875 0 21.608-16.589 39.531-37.96 41.292h-1v65.89c0 3.911 4.287 6.308 7.619 4.259l37.738-23.202c50.61-31.115 81.443-86.268 81.443-145.677v-15.418h-.999z" fill="#0182fc"/></g><g><path d="m241.633 262.339c-.001 0 0 0 0 0-1.144 0-2.171.423-2.939 1.19-.77.769-1.193 1.797-1.192 2.895.002 4.544-.747 9.046-2.226 13.381-3.365 9.863-10.196 17.819-18.853 22.705v84.877c12.153-9.837 22.779-21.225 31.7-33.762v-91.825c-2.131.344-4.297.539-6.49.539z" fill="#0593fc"/></g><g><path d="m154.022 353.207h-1v65.89c0 3.911 4.287 6.308 7.619 4.259l24.081-14.806v-73.207c-6.832 9.961-17.907 16.809-30.7 17.864z" fill="#0593fc"/></g><path d="m279.193 179.975-.271.568c-6.839 14.266-21.476 23.483-37.291 23.483-1.142 0-2.169.423-2.938 1.191-.77.768-1.193 1.796-1.192 2.894.002 4.544-.747 9.046-2.226 13.381-5.724 16.777-21.472 28.049-39.188 28.049-1.139 0-2.159.421-2.923 1.186-.763.764-1.183 1.785-1.182 2.875 0 21.944-17.108 40.087-38.96 41.362v59.315c22.281-1.27 39.959-19.734 39.959-42.333 0-.011 0-.022 0-.032-.002-1.702 1.358-3.061 3.061-3.059 17.661.02 34.159-11.081 40.179-28.726 1.549-4.54 2.281-9.161 2.279-13.704-.001-1.719 1.371-3.086 3.09-3.085 16.247.016 31.196-9.373 38.232-24.051v-37.531-21.781h-.629z" fill="#ffe177"/><g><path d="m279.823 143.444c-70.03 0-126.8 56.77-126.8 126.8v25.722c22.281-1.27 39.959-19.734 39.959-42.333 0-.011 0-.022 0-.033-.002-1.702 1.358-3.061 3.06-3.059 17.661.019 34.159-11.081 40.179-28.726 1.549-4.54 2.281-9.161 2.279-13.704-.001-1.719 1.371-3.086 3.09-3.085 16.247.016 31.196-9.373 38.232-24.051v-37.531z" fill="#fd4755"/></g></g></g></g></g></svg>