<svg id="Capa_1" enable-background="new 0 0 512 512" height="512" viewBox="0 0 512 512" width="512" xmlns="http://www.w3.org/2000/svg"><g><g><path d="m10.757 101.465v309.069h244.726v-73.399h-6.61c-2.272 0-4.121-1.849-4.121-4.121v-19.164c0-2.272 1.849-4.121 4.121-4.121h6.61v-101.27h-6.61c-2.272 0-4.121-1.849-4.121-4.121v-19.165c0-2.272 1.849-4.121 4.121-4.121h9.305v-79.588h-247.421z" fill="#fe646f"/></g><g><path d="m248.873 181.053h9.305v-79.588h-32.053v309.069h29.359v-73.399h-6.61c-2.272 0-4.121-1.849-4.121-4.121v-19.164c0-2.272 1.849-4.121 4.121-4.121h6.61v-101.27h-6.61c-2.272 0-4.121-1.849-4.121-4.121v-19.165c0-2.272 1.848-4.12 4.12-4.12z" fill="#fd4755"/></g><g><path d="m196.295 324.274h-123.655c-12.777 0-23.136 10.358-23.136 23.136 0 12.777 10.358 23.136 23.136 23.136h123.655c12.777 0 23.136-10.358 23.136-23.136 0-12.778-10.358-23.136-23.136-23.136z" fill="#ffe177"/></g><g><path d="m196.295 324.274h-42.808c12.777 0 23.136 10.358 23.136 23.136 0 12.777-10.358 23.136-23.136 23.136h42.808c12.777 0 23.136-10.358 23.136-23.136 0-12.778-10.358-23.136-23.136-23.136z" fill="#ffd15b"/></g><g><g><path d="m263.785 70.111h-258.634c-2.845 0-5.151 2.306-5.151 5.151v22.083c0 2.845 2.306 5.151 5.151 5.151h258.634c2.845 0 5.151-2.306 5.151-5.151v-22.083c0-2.845-2.307-5.151-5.151-5.151z" fill="#e2dee2"/></g><g><g><path d="m263.785 70.111h-42.811c2.845 0 5.151 2.306 5.151 5.151v22.083c0 2.845-2.306 5.151-5.151 5.151h42.811c2.845 0 5.151-2.306 5.151-5.151v-22.083c0-2.845-2.307-5.151-5.151-5.151z" fill="#cbc4cc"/></g></g><path d="m255.453 409.504h-250.302c-2.845 0-5.151 2.306-5.151 5.151v22.083c0 2.845 2.306 5.151 5.151 5.151h250.302z" fill="#e2dee2"/><path d="m220.974 441.889h34.479v-32.385h-34.479c2.845 0 5.151 2.306 5.151 5.151v22.083c0 2.845-2.306 5.151-5.151 5.151z" fill="#cbc4cc"/></g><g><g><g><g><path d="m74.874 201.826 10.548-21.887c4.322-8.968 13.547-14.763 23.502-14.763h10.973c-6.081-8.051-13.135-15.272-20.626-21.153-10.673-8.261-22.254-13.73-29.548-9.208-7.563 4.056-8.617 16.82-6.799 30.194 1.76 12.31 5.874 25.114 11.95 36.817z" fill="#fed2a4"/></g><g><g><path d="m99.272 144.023c-10.673-8.261-22.254-13.73-29.548-9.208-2.945 1.579-4.892 4.49-6.078 8.232 5.178 1.823 10.79 5.276 16.172 9.442 5.847 4.591 11.421 10.006 16.481 15.987 3.808-2.114 8.141-3.3 12.627-3.3h10.973c-6.082-8.05-13.136-15.271-20.627-21.153z" fill="#ffbd86"/></g></g><g><path d="m160.011 165.177c9.955 0 19.18 5.795 23.502 14.763l10.548 21.887c6.077-11.702 10.19-24.506 11.951-36.817 1.818-13.374.764-26.138-6.799-30.194-7.294-4.522-18.875.947-29.548 9.208-7.491 5.882-14.545 13.103-20.626 21.153z" fill="#fed2a4"/></g><g><path d="m199.212 134.815c-4.758-2.95-11.34-1.646-18.305 1.908 5.249 5.341 5.858 16.58 4.267 28.286-.615 4.298-1.533 8.655-2.704 13.005.37.626.724 1.264 1.042 1.925l10.548 21.887c6.077-11.702 10.19-24.506 11.951-36.817 1.819-13.374.764-26.138-6.799-30.194z" fill="#ffbd86"/></g></g><g><path d="m160.011 164.146h-51.086c-10.414 0-19.909 5.964-24.43 15.345l-20.89 43.344c-4.304 8.93-3.392 19.496 2.377 27.558l21.451 29.973c5.092 7.115 13.304 11.336 22.053 11.336h49.963c8.749 0 16.961-4.221 22.053-11.336l21.451-29.973c5.769-8.061 6.681-18.628 2.377-27.558l-20.89-43.344c-4.521-9.381-14.015-15.345-24.429-15.345z" fill="#fff3de"/></g><path d="m151.542 245.644-9.574-7.661v-1.766c0-.544-.061-1.074-.171-1.585l-2.595 2.757c-1.223 1.3-2.948 2.045-4.733 2.045s-3.51-.746-4.733-2.045l-2.595-2.758c-.11.511-.171 1.041-.171 1.585v1.817l-9.36 7.662c-3.205 2.624-3.676 7.349-1.052 10.554 2.623 3.205 7.349 3.677 10.554 1.052l7.412-6.067 7.649 6.12c1.383 1.107 3.038 1.645 4.681 1.645 2.2 0 4.38-.963 5.861-2.815 2.585-3.233 2.061-7.953-1.173-10.54z" fill="#7a6d79"/><g><path d="m205.331 222.836-20.89-43.344c-4.522-9.382-14.016-15.345-24.43-15.345h-32.374c10.414 0 19.909 5.964 24.43 15.345l20.89 43.344c4.304 8.93 3.392 19.496-2.377 27.558l-21.451 29.973c-5.092 7.115-13.304 11.336-22.053 11.336h32.374c8.749 0 16.961-4.221 22.053-11.336l21.451-29.973c5.769-8.062 6.681-18.628 2.377-27.558z" fill="#ffe5c2"/></g><g><g><g><path d="m218.252 229.66h-26.57c-4.142 0-7.5-3.358-7.5-7.5s3.358-7.5 7.5-7.5h26.57c4.142 0 7.5 3.358 7.5 7.5s-3.357 7.5-7.5 7.5z" fill="#ffbd86"/></g><g><path d="m218.252 255.157h-26.57c-4.142 0-7.5-3.358-7.5-7.5s3.358-7.5 7.5-7.5h26.57c4.142 0 7.5 3.358 7.5 7.5s-3.357 7.5-7.5 7.5z" fill="#ffbd86"/></g></g><g><g><path d="m77.253 229.66h-27.552c-4.142 0-7.5-3.358-7.5-7.5s3.358-7.5 7.5-7.5h27.552c4.142 0 7.5 3.358 7.5 7.5s-3.358 7.5-7.5 7.5z" fill="#ffbd86"/></g><g><path d="m77.253 255.157h-27.552c-4.142 0-7.5-3.358-7.5-7.5s3.358-7.5 7.5-7.5h27.552c4.142 0 7.5 3.358 7.5 7.5s-3.358 7.5-7.5 7.5z" fill="#ffbd86"/></g></g></g></g><g><g><path d="m105.001 237.336c-4.142 0-7.5-3.358-7.5-7.5v-9.43c0-4.142 3.358-7.5 7.5-7.5s7.5 3.358 7.5 7.5v9.43c0 4.142-3.358 7.5-7.5 7.5z" fill="#7a6d79"/></g><g><path d="m163.935 237.336c-4.142 0-7.5-3.358-7.5-7.5v-9.43c0-4.142 3.358-7.5 7.5-7.5s7.5 3.358 7.5 7.5v9.43c0 4.142-3.358 7.5-7.5 7.5z" fill="#7a6d79"/></g></g></g><g><g><path d="m442.459 97.22c-24.327 0-41.458 23.898-33.647 46.936l12.509 36.896h42.277l12.509-36.896c7.811-23.038-9.32-46.936-33.648-46.936zm0 50.006c-7.112 0-12.877-5.765-12.877-12.877s5.765-12.877 12.877-12.877 12.877 5.765 12.877 12.877c.001 7.112-5.764 12.877-12.877 12.877z" fill="#e2dee2"/><path d="m442.459 97.22c-5.298 0-10.254 1.135-14.686 3.146 9.324 4.231 16.321 12.349 19.295 21.969 4.833 1.856 8.269 6.527 8.269 12.013 0 5.936-4.021 10.92-9.484 12.411l-11.627 34.294h29.373l12.509-36.896c7.81-23.039-9.321-46.937-33.649-46.937z" fill="#cbc4cc"/></g><g><path d="m254.453 208.459h246.816v101.27h-246.816z" fill="#ffe177"/></g><g><path d="m469.247 208.459h32.021v101.27h-32.021z" fill="#ffd15b"/></g><g><g><path d="m254.453 337.135v104.754h236.514c5.69 0 10.302-4.612 10.302-10.302v-94.452z" fill="#ffe177"/></g><g><path d="m469.247 337.135v94.452c0 5.69-4.612 10.302-10.302 10.302h32.021c5.69 0 10.302-4.612 10.302-10.302v-94.452z" fill="#ffd15b"/></g><g><path d="m254.453 208.459h48.203v101.27h-48.203z" fill="#fe9738"/></g><g><path d="m281.539 208.459h21.117v101.27h-21.117z" fill="#fe860a"/></g><g><g><path d="m506.849 180.023h-257.976c-2.845 0-5.151 2.306-5.151 5.151v19.165c0 2.845 2.306 5.151 5.151 5.151h257.976c2.845 0 5.151-2.306 5.151-5.151v-19.165c0-2.845-2.306-5.151-5.151-5.151z" fill="#f2fbff"/></g></g><g><path d="m506.849 180.023h-42.753c2.845 0 5.151 2.306 5.151 5.151v19.165c0 2.845-2.306 5.151-5.151 5.151h42.753c2.845 0 5.151-2.306 5.151-5.151v-19.165c0-2.845-2.306-5.151-5.151-5.151z" fill="#dff6fd"/></g><g><path d="m254.453 337.135h48.203v104.754h-48.203z" fill="#fe9738"/></g><g><path d="m281.539 337.135h21.117v104.754h-21.117z" fill="#fe860a"/></g><g><g><path d="m506.849 308.699h-257.976c-2.845 0-5.151 2.306-5.151 5.151v19.165c0 2.845 2.306 5.151 5.151 5.151h257.976c2.845 0 5.151-2.306 5.151-5.151v-19.165c0-2.845-2.306-5.151-5.151-5.151z" fill="#f2fbff"/></g></g><g><path d="m506.849 308.698h-42.753c2.845 0 5.151 2.306 5.151 5.151v19.165c0 2.845-2.306 5.151-5.151 5.151h42.753c2.845 0 5.151-2.306 5.151-5.151v-19.165c0-2.844-2.306-5.151-5.151-5.151z" fill="#dff6fd"/></g></g><g><path d="m458.631 242.324c-9.201.909-17.746 4.041-25.104 8.843-1.841 1.201-4.211 1.143-5.976-.168-12.245-9.097-27.398-14.494-43.824-14.494-19.403 0-37.045 7.512-50.197 19.778-2.182 2.035-2.182 5.506 0 7.542 13.152 12.266 30.794 19.778 50.197 19.778 16.427 0 31.58-5.398 43.824-14.494 1.765-1.311 4.134-1.369 5.976-.168 7.358 4.801 15.903 7.934 25.104 8.843 2.998.296 5.577-2.121 5.577-5.134v-25.191c-.001-3.014-2.579-5.431-5.577-5.135z" fill="#0593fc"/></g><g><path d="m458.631 368.243c-9.201.909-17.746 4.041-25.104 8.843-1.841 1.201-4.211 1.143-5.976-.168-12.245-9.097-27.398-14.494-43.824-14.494-19.403 0-37.045 7.512-50.197 19.778-2.182 2.035-2.182 5.506 0 7.542 13.152 12.266 30.794 19.778 50.197 19.778 16.427 0 31.58-5.398 43.824-14.494 1.765-1.311 4.134-1.369 5.976-.168 7.358 4.801 15.903 7.934 25.104 8.843 2.998.296 5.577-2.121 5.577-5.134v-25.191c-.001-3.014-2.579-5.431-5.577-5.135z" fill="#0593fc"/></g></g><path d="m134.468 240.435c-2.068 0-4.044-.854-5.461-2.36l-8.531-9.064c-2.57-2.731-3.269-6.719-1.782-10.16s4.871-5.665 8.619-5.665h14.31c3.749 0 7.132 2.224 8.62 5.665 1.487 3.441.788 7.429-1.781 10.159l-8.532 9.065c-1.418 1.506-3.394 2.36-5.462 2.36z" fill="#685e68"/></g></svg>