<svg id="Capa_1" enable-background="new 0 0 512 512" height="512" viewBox="0 0 512 512" width="512" xmlns="http://www.w3.org/2000/svg"><g><g><path d="m210.446 237.064h113.336c20.006-9.121 33.92-29.281 33.92-52.703v-85.032c0-50.03-40.557-90.588-90.588-90.588-50.03 0-90.588 40.557-90.588 90.588v85.032c.001 23.422 13.915 43.582 33.92 52.703z" fill="#bb5d4c"/></g><path d="m267.115 8.742c-9.134 0-17.95 1.357-26.263 3.872 33.46 10.121 58.729 39.076 63.498 74.531h13.801c8.385 0 15.183 6.798 15.183 15.183v56.144c0 27.19-16.393 50.54-39.83 60.738-.672.89-1.375 1.754-2.096 2.603v15.251h32.375c20.006-9.121 33.92-29.281 33.92-52.703v-85.032c-.001-50.03-40.558-90.587-90.588-90.587z" fill="#a44f3e"/><g><path d="m389.478 282.425-4.379.001c-10.548 0-19.099-8.551-19.099-19.099v-21.209c-7.349-3.859-15.71-6.054-24.587-6.054h-148.597c-28.905 0-52.386 23.154-52.948 51.925h17.596c1.011 0 2.015.041 3.013.115 4.68-5.316 9.757-10.154 15.058-14.317 10.753-8.323 22.421-13.833 29.77-9.277 7.62 4.086 8.682 16.946 6.85 30.42-.223 1.561-.492 3.131-.79 4.704h130.642c5.523 0 10 4.477 10 10v39.383c16.964 12.976 27.964 33.404 27.964 56.285 0 34.919-25.607 64.131-58.966 69.831h73.383v-186.094c0-1.509-.078-2.999-.202-4.477-1.774-.279-3.39-1.034-4.708-2.137z" fill="#dff6fd"/><path d="m394.186 284.563c-1.774-.28-3.39-1.034-4.708-2.138 0 0 0 0 .001.001h-4.38c-10.548 0-19.099-8.551-19.099-19.099v-21.209c-7.349-3.859-15.71-6.054-24.587-6.054h-41.841c29.257 0 52.975 23.718 52.975 52.975v60.403c16.655 12.995 27.424 33.225 27.424 55.861 0 22.636-10.768 42.864-27.424 55.853v13.978h41.841v-186.095c0-1.509-.078-2.999-.202-4.476z" fill="#c8effe"/><g><g><path d="m106.483 146.235h21.949v-138.735h-11.104c-9.081 0-16.443 7.362-16.443 16.443v123.771c1.656-.937 3.564-1.479 5.598-1.479z" fill="#918291"/></g><g><path d="m132.804 145.235h-26.321c-6.855 0-12.411 5.557-12.411 12.411v64.873h37.083v-21.419h1.65c5.358 0 9.702-4.344 9.702-9.702v-36.46c-.001-5.359-4.344-9.703-9.703-9.703z" fill="#ffcebf"/></g><g><path d="m132.804 145.235h-20.506c5.358 0 9.702 4.344 9.702 9.702v36.46c0 5.358-4.344 9.702-9.702 9.702-.911 0-1.649.738-1.649 1.649v19.77h20.507v-21.418h1.65c5.358 0 9.702-4.344 9.702-9.702v-36.46c-.002-5.359-4.345-9.703-9.704-9.703z" fill="#ffb09e"/></g><g><path d="m104.003 274.578c5.222 4.1 10.243 8.875 14.92 14.187l.329.373.496-.037c1.006-.074 1.995-.112 2.939-.112h19.519v-62.172c0-2.926-2.372-5.298-5.298-5.298h-43.895c-2.926 0-5.298 2.372-5.298 5.298v38.304c5.794 1.975 11.76 5.951 16.288 9.457z" fill="#dff6fd"/></g><g><path d="m121.491 226.817v62.195c.404-.013.805-.023 1.196-.023h19.519v-62.172c0-2.926-2.372-5.298-5.298-5.298h-20.715c2.926.001 5.298 2.373 5.298 5.298z" fill="#c8effe"/></g></g><g><g><path d="m201.266 327.401-.202.431 3.67 7.615h104.382c16.16 0 31.043 5.531 42.891 14.778v-40.591c0-5.523-4.477-10-10-10h-131.665c-1.787 9.331-4.881 18.839-9.076 27.767z" fill="#0593fc"/></g></g><g><path d="m342.008 299.634h-41.064c5.523 0 10 4.477 10 10v25.852c15.452.401 29.665 5.842 41.064 14.739v-40.591c0-5.523-4.477-10-10-10z" fill="#0182fc"/></g><g><path d="m267.114 223.691c-8.585 0-16.779-1.683-24.293-4.711v25.644c0 13.417 10.876 24.293 24.293 24.293 13.417 0 24.293-10.876 24.293-24.293v-25.644c-7.513 3.028-15.708 4.711-24.293 4.711z" fill="#ffb09e"/></g><g><g><path d="m267.587 223.68v20.945c0 9.088-4.993 17.005-12.383 21.171 3.52 1.985 7.581 3.122 11.91 3.122 13.417 0 24.293-10.876 24.293-24.293v-25.645c-7.375 2.972-15.408 4.639-23.82 4.7z" fill="#f89580"/></g></g><g><g><g><path d="m201.896 158.472v-37.088h-8.731c-15.062 0-27.272 12.21-27.272 27.272 0 15.062 12.21 27.272 27.272 27.272h11.123c-1.548-5.559-2.392-11.409-2.392-17.456z" fill="#f89580"/></g><g><path d="m341.064 121.384h-8.731v37.088c0 6.047-.845 11.896-2.392 17.457h11.122c15.062 0 27.272-12.21 27.272-27.272.001-15.062-12.209-27.273-27.271-27.273z" fill="#f89580"/></g></g><g><path d="m283.405 91.978-4.198 6.85c-1.84 3.003-5.109 4.833-8.63 4.833h-54.497c-8.385 0-15.183 6.798-15.183 15.183v39.628c0 36.572 29.647 66.219 66.219 66.219 36.572 0 66.219-29.647 66.219-66.219v-56.144c0-8.385-6.798-15.183-15.183-15.183h-26.115c-3.524 0-6.792 1.83-8.632 4.833z" fill="#ffcebf"/></g><g><path d="m318.15 87.145h-13.957c.515 1.526.807 3.155.807 4.855v76.781c0 23.2-11.94 43.601-30.002 55.427 32.853-3.9 58.335-31.834 58.335-65.736v-56.144c0-8.385-6.797-15.183-15.183-15.183z" fill="#ffb09e"/></g></g></g><g><g><path d="m386 274.986v-36.46c0-5.358 4.344-9.702 9.702-9.702h25.298v-42.443h-55v76.946c0 10.548 8.551 19.099 19.099 19.099h4.38c-2.125-1.78-3.479-4.451-3.479-7.44z" fill="#918291"/><g><g><path d="m401 186.381h20v42.443h-20z" fill="#7a6d79"/></g></g></g><g><g><path d="m395.702 284.688h1.65v15.737h37.083v-59.19c0-6.855-5.557-12.411-12.411-12.411h-26.321c-5.358 0-9.702 4.344-9.702 9.702v36.46c-.001 5.358 4.343 9.702 9.701 9.702z" fill="#ffcebf"/></g><g><path d="m413.434 241.235v59.19h21v-59.19c0-6.855-5.557-12.411-12.411-12.411h-21c6.855-.001 12.411 5.556 12.411 12.411z" fill="#ffb09e"/></g><g><path d="m413.546 445.925c15.047 0 27.245-12.198 27.245-27.245v-113.957c0-2.926-2.372-5.298-5.298-5.298h-43.896c-2.926 0-5.298 2.372-5.298 5.298v113.957c.002 15.047 12.2 27.245 27.247 27.245z" fill="#dff6fd"/></g><g><path d="m435.494 299.425h-20.792c2.926 0 5.298 2.372 5.298 5.298v113.957c0 11.365-6.961 21.101-16.85 25.187 3.204 1.324 6.714 2.058 10.396 2.058 15.047 0 27.245-12.198 27.245-27.245v-113.957c.001-2.926-2.371-5.298-5.297-5.298z" fill="#c8effe"/></g></g></g><g><path d="m309.116 334.447h-104.864l2.896 6.01c6.288 13.048 4.958 28.47-3.471 40.248l-13.053 18.239c-7.42 10.367-19.461 16.557-32.209 16.557h-36.678c-.978 0-1.95-.049-2.918-.121v29.4h-26.398c-15.05 0-27.25 12.2-27.25 27.25 0 1.245.562 2.347 1.433 3.104h254.401c33.359-5.7 58.966-34.911 58.966-69.831 0-38.971-31.884-70.856-70.855-70.856z" fill="#fff3de"/><g><path d="m309.116 334.447h-61.076c-.825 2.949-1.187 6.092-.984 9.348.867 13.9 12.149 25.225 26.045 26.142 6.85.452 13.213-1.563 18.293-5.242 3.501-2.536 8.475-1.344 10.499 2.476 5.94 11.207 18.051 18.639 31.809 17.759 14.393-.921 26.364-11.138 30.091-24.561-13.022-15.803-32.724-25.922-54.677-25.922z" fill="#fe9738"/></g><g><g><g><path d="m87.006 311.401c6.247-12.962 19.244-21.539 33.518-22.333-4.911-5.699-10.286-10.866-15.908-15.281-10.753-8.323-22.421-13.833-29.77-9.277-7.62 4.086-8.682 16.946-6.85 30.42 1.623 11.352 5.232 23.122 10.526 34.076z" fill="#fed2a4"/></g><g><path d="m205.305 264.51c-7.349-4.556-19.017.954-29.77 9.277-5.622 4.414-10.997 9.581-15.908 15.281 14.274.794 27.271 9.371 33.518 22.333l8.484 17.604c5.293-10.953 8.902-22.723 10.526-34.076 1.831-13.473.769-26.333-6.85-30.419z" fill="#ffbd86"/></g></g><g><path d="m157.464 287.989h-34.778c-15.594 0-29.811 8.93-36.581 22.978l-14.003 29.056c-6.444 13.371-5.08 29.194 3.559 41.264l13.053 18.239c7.625 10.654 19.921 16.974 33.022 16.974h36.678c13.101 0 25.398-6.321 33.022-16.974l13.053-18.239c8.639-12.071 10.003-27.893 3.559-41.264l-14.003-29.056c-6.77-14.048-20.986-22.978-36.581-22.978z" fill="#ffe5c2"/></g><g><path d="m208.049 340.022-14.003-29.056c-6.77-14.048-20.987-22.978-36.581-22.978h-31.075c15.594 0 29.811 8.93 36.581 22.978l14.003 29.056c6.444 13.372 5.08 29.194-3.559 41.264l-13.053 18.239c-7.625 10.654-19.921 16.974-33.022 16.974h31.074c13.101 0 25.398-6.321 33.022-16.974l13.053-18.239c8.64-12.07 10.005-27.892 3.56-41.264z" fill="#fed2a4"/></g></g></g><g><path d="m483.765 504.5h-455.53c-2.761 0-5-2.239-5-5v-20.367c0-2.761 2.239-5 5-5h455.529c2.761 0 5 2.239 5 5v20.367c.001 2.761-2.238 5-4.999 5z" fill="#ffe177"/></g><g><path d="m483.765 474.133h-54.765c2.761 0 5 2.239 5 5v20.367c0 2.761-2.239 5-5 5h54.765c2.761 0 5-2.239 5-5v-20.367c0-2.761-2.239-5-5-5z" fill="#ffd15b"/></g><g><path d="m243.465 136.942v-8.91c0-4.142-3.358-7.5-7.5-7.5s-7.5 3.358-7.5 7.5v8.91c0 4.142 3.358 7.5 7.5 7.5s7.5-3.358 7.5-7.5z"/><path d="m298.264 120.532c-4.142 0-7.5 3.358-7.5 7.5v8.91c0 4.142 3.358 7.5 7.5 7.5s7.5-3.358 7.5-7.5v-8.91c0-4.142-3.358-7.5-7.5-7.5z"/><path d="m261.811 164.314c1.464 1.465 3.384 2.197 5.303 2.197s3.839-.732 5.303-2.197c2.929-2.929 2.929-7.677 0-10.606l-5.717-5.718 6.142-7.266c2.674-3.164 2.277-7.896-.886-10.57-3.166-2.675-7.896-2.277-10.57.886l-10.595 12.534c-2.517 2.978-2.333 7.388.425 10.145z"/><path d="m284.948 175.751c-4.869 4.869-11.343 7.551-18.229 7.551s-13.36-2.682-18.229-7.551c-2.929-2.929-7.678-2.929-10.606 0-2.929 2.929-2.929 7.678 0 10.606 7.702 7.702 17.943 11.944 28.835 11.944 10.893 0 21.134-4.242 28.835-11.944 2.929-2.929 2.929-7.678 0-10.606-2.929-2.929-7.678-2.928-10.606 0z"/><path d="m132.627 383.684 7.502-6.142 7.742 6.195c1.383 1.106 3.038 1.644 4.681 1.644 2.2 0 4.38-.964 5.861-2.815 2.587-3.234 2.063-7.954-1.171-10.542l-9.04-7.233 5.93-6.3c2.573-2.734 3.272-6.728 1.783-10.175-1.489-3.446-4.878-5.673-8.632-5.673h-14.417c-3.754 0-7.143 2.227-8.632 5.673-1.489 3.447-.79 7.44 1.784 10.175l5.963 6.335-8.857 7.251c-3.205 2.624-3.676 7.349-1.052 10.554s7.349 3.677 10.555 1.053z"/><path d="m108.554 326.067c-4.142 0-7.5 3.358-7.5 7.5v9.016c0 4.142 3.358 7.5 7.5 7.5s7.5-3.358 7.5-7.5v-9.016c0-4.142-3.358-7.5-7.5-7.5z"/><path d="m171.597 350.083c4.142 0 7.5-3.358 7.5-7.5v-9.016c0-4.142-3.358-7.5-7.5-7.5s-7.5 3.358-7.5 7.5v9.016c0 4.143 3.358 7.5 7.5 7.5z"/><path d="m483.765 466.633h-81.877v-15.226c3.646 1.303 7.57 2.018 11.658 2.018 19.159 0 34.746-15.586 34.746-34.745v-113.957c0-4.707-2.562-8.818-6.357-11.04v-52.447c0-8.71-5.63-16.113-13.435-18.809v-54.927c0-4.142-3.358-7.5-7.5-7.5s-7.5 3.358-7.5 7.5v11.38h-3.333v-11.38c0-4.142-3.358-7.5-7.5-7.5s-7.5 3.358-7.5 7.5v11.38h-3.333v-11.38c0-4.142-3.358-7.5-7.5-7.5s-7.5 3.358-7.5 7.5v11.38h-3.334v-11.38c0-1.407-.395-2.719-1.069-3.845 2.181-4.544 3.406-9.631 3.406-14.999 0-9.804-4.085-18.667-10.634-24.994v-24.333c0-54.085-44.002-98.087-98.088-98.087-54.085 0-98.087 44.002-98.087 98.087v24.333c-6.549 6.327-10.634 15.19-10.634 24.994s4.085 18.667 10.634 24.994v10.711c0 16.897 6.402 32.65 17.482 44.527-14.227 1.461-27.138 7.82-36.803 17.646v-19.717c0-6.463-4.82-11.808-11.051-12.664v-6.577c6.614-2.399 11.352-8.745 11.352-16.178v-36.46c0-8.416-6.079-15.427-14.074-16.904v-17.084h15.809c4.142 0 7.5-3.358 7.5-7.5s-3.358-7.5-7.5-7.5h-15.809v-11.487h15.809c4.142 0 7.5-3.358 7.5-7.5s-3.358-7.5-7.5-7.5h-15.809v-11.488h15.809c4.142 0 7.5-3.358 7.5-7.5s-3.358-7.5-7.5-7.5h-15.809v-11.487h15.809c4.142 0 7.5-3.358 7.5-7.5s-3.358-7.5-7.5-7.5h-15.809v-11.488h15.809c4.142 0 7.5-3.358 7.5-7.5s-3.358-7.5-7.5-7.5h-34.413c-13.202 0-23.943 10.741-23.943 23.943v36.057c0 4.142 3.358 7.5 7.5 7.5s7.5-3.358 7.5-7.5v-36.057c0-4.931 4.012-8.943 8.943-8.943h3.604v122.735h-12.547v-42.735c0-4.142-3.358-7.5-7.5-7.5s-7.5 3.358-7.5 7.5v47.688c-4.166 3.652-6.813 8.997-6.813 14.959v58.129c-3.796 2.223-6.357 6.334-6.357 11.041v28.583c-3.783.133-6.789 1.21-9.12 2.613-6.706 3.71-13.876 13.312-10.524 37.979 1.513 10.582 4.662 21.478 9.129 31.738l-4.355 9.037c-1.897 3.937-3.221 8.053-3.986 12.234h-7.032c-4.142 0-7.5 3.358-7.5 7.5s3.358 7.5 7.5 7.5h6.687c.358 2.688.941 5.345 1.751 7.947h-8.438c-4.142 0-7.5 3.358-7.5 7.5s3.358 7.5 7.5 7.5h16.161l12.126 16.943c6.953 9.715 17.252 16.391 28.704 18.943v14.445h-18.899c-17.326 0-31.729 12.747-34.329 29.354h-29.857c-6.893 0-12.5 5.607-12.5 12.5v20.367c0 6.893 5.607 12.5 12.5 12.5h455.529c6.893 0 12.5-5.607 12.5-12.5v-20.367c.001-6.892-5.607-12.5-12.499-12.5zm-125.95 0c10.798-8.591 19.283-19.966 24.362-33.032 1.264 2.644 2.85 5.107 4.711 7.332v25.7zm75.477-159.708v111.755c0 10.888-8.858 19.745-19.746 19.745s-19.745-8.857-19.745-19.745v-63.68c0-4.142-3.358-7.5-7.5-7.5s-7.5 3.358-7.5 7.5v14.519c-4.788-9.278-11.372-17.485-19.293-24.155v-35.729c0-9.649-7.851-17.5-17.5-17.5h-2.631v-48.57h2.036c5.948 0 11.674 1.137 17.087 3.347v16.416c0 14.667 11.932 26.599 26.599 26.599h2.1c.844.482 1.728.903 2.653 1.238v.895c-6.231.856-11.051 6.201-11.051 12.664v15.276c0 4.142 3.358 7.5 7.5 7.5s7.5-3.358 7.5-7.5v-13.075zm-92.459-148.453v-29.588h.23c10.902 0 19.772 8.87 19.772 19.772s-8.87 19.772-19.772 19.772h-.911c.443-3.257.681-6.579.681-9.956zm17.667 72.587c-3.522-1.038-7.133-1.776-10.788-2.162 4.349-4.661 7.986-9.912 10.788-15.603zm-22.027-47.63h4.591c3.162 0 6.224-.432 9.138-1.227v2.16c0 18.546-9.991 35.326-26.189 44.203h-25.105v-3.591c17.363-8.336 30.971-23.278 37.565-41.545zm-10.64-24.957c0 32.378-26.341 58.719-58.719 58.719-32.377 0-58.719-26.341-58.719-58.719v-39.628c0-4.236 3.447-7.683 7.683-7.683h54.498c6.086 0 11.844-3.224 15.025-8.414l4.198-6.85c.473-.772 1.33-1.251 2.235-1.251h26.115c4.237 0 7.684 3.447 7.684 7.683zm-41.925 71.767v14.386c0 9.26-7.534 16.793-16.793 16.793s-16.793-7.533-16.793-16.793v-14.386c5.398 1.263 11.015 1.953 16.793 1.953 5.777-.001 11.394-.69 16.793-1.953zm-16.794 46.178c17.531 0 31.793-14.262 31.793-31.793v-1.061h25.469v48.57h-104.348c2.045-20.9-4.076-29.849-10.177-33.65v-14.92h25.47v1.061c0 17.531 14.262 31.793 31.793 31.793zm-65.761-5.533c.133.083.269.161.407.235 2.721 1.459 4.809 9.217 2.971 22.749-.711 4.972-1.849 10.028-3.35 15.044l-.579-1.201c-5.301-10.999-14.604-19.404-25.64-23.803 1.632-1.465 3.286-2.872 4.964-4.189 10.84-8.391 18.604-10.462 21.227-8.835zm16.047 36.25h124.608c1.378 0 2.5 1.122 2.5 2.5v25.796c-10.639-5.411-22.66-8.483-35.392-8.483h-98.341c2.754-6.438 4.986-13.114 6.625-19.813zm91.716 34.813c18.182 0 34.587 7.71 46.152 20.018-3.888 8.792-12.335 14.858-22.044 15.479-10.222.659-19.918-4.758-24.704-13.787-1.989-3.753-5.509-6.458-9.657-7.421-4.126-.96-8.452-.089-11.868 2.384-3.905 2.828-8.536 4.157-13.4 3.833-10.057-.664-18.426-9.064-19.053-19.125-.029-.461-.03-.921-.029-1.381zm112.907-105.624c2.708 0 4.912 2.203 4.912 4.912v50.69h-22.083v-7.237c0-4.142-3.358-7.5-7.5-7.5h-1.65c-1.214 0-2.202-.988-2.202-2.202v-36.46c0-1.214.988-2.203 2.202-2.203zm-48.523-42.443h40v27.443h-17.798c-9.485 0-17.202 7.717-17.202 17.203v34.327c-3.017-2.096-5-5.582-5-9.527zm-189.473-94.551c0-45.814 37.273-83.087 83.087-83.087 45.815 0 83.088 37.273 83.088 83.087v15.782c-2.914-.795-5.976-1.227-9.138-1.227h-.23v-11.556c0-12.507-10.176-22.683-22.684-22.683h-26.115c-6.087 0-11.845 3.224-15.025 8.414l-4.198 6.85c-.473.772-1.33 1.252-2.236 1.252h-54.498c-10.803 0-19.861 7.594-22.13 17.723h-.784c-3.162 0-6.224.432-9.138 1.227v-15.782zm-10.634 49.328c0-10.902 8.87-19.772 19.772-19.772h.231v29.588c0 3.377.238 6.699.68 9.957h-.911c-10.903-.001-19.772-8.871-19.772-19.773zm10.634 33.545c2.914.795 5.975 1.227 9.138 1.227h4.591c6.594 18.267 20.201 33.21 37.565 41.545v3.59h-25.105c-16.199-8.876-26.189-25.656-26.189-44.203zm8.789 61.362h2.036v12.2c-6.249 1.068-14.13 4.525-23.948 12.125-4.76 3.737-9.337 7.969-13.651 12.601h-7.546v-5.938c6.223-18.578 23.409-30.988 43.109-30.988zm-91.244-85.917c0-2.708 2.203-4.912 4.911-4.912h26.321c1.214 0 2.202.988 2.202 2.203v36.46c0 1.214-.988 2.202-2.202 2.202h-1.649c-4.142 0-7.5 3.358-7.5 7.5v12.919h-22.083zm33.134 71.373v51.47h-11.808c-4.314-4.632-8.898-8.869-13.692-12.633-5.191-4.018-9.837-6.867-13.991-8.824v-30.013zm-56.315 42.099c.138-.074.274-.152.407-.235 2.624-1.626 10.386.443 21.186 8.802 1.696 1.331 3.362 2.748 5.004 4.222-11.036 4.399-20.339 12.804-25.639 23.802l-.58 1.203c-1.499-5.007-2.635-10.049-3.342-14.993-1.845-13.584.242-21.341 2.964-22.801zm16.422 124.042-7.927-11.075c1.008-1.277 1.614-2.885 1.614-4.638 0-4.142-3.358-7.5-7.5-7.5h-2.162c-1.22-2.546-2.1-5.215-2.634-7.947h4.796c4.142 0 7.5-3.358 7.5-7.5s-3.358-7.501-7.5-7.501h-4.26c.528-1.947 1.223-3.864 2.118-5.721l14.003-29.056c5.485-11.38 17.192-18.734 29.825-18.734h34.778c12.633 0 24.34 7.354 29.825 18.734l14.003 29.056c.895 1.857 1.591 3.774 2.118 5.721h-4.41c-4.142 0-7.5 3.358-7.5 7.5s3.358 7.5 7.5 7.5h4.947c-.534 2.732-1.414 5.401-2.634 7.947h-2.313c-4.142 0-7.5 3.358-7.5 7.5 0 1.799.635 3.449 1.69 4.741l-7.853 10.972c-6.202 8.666-16.267 13.84-26.923 13.84h-36.678c-10.656 0-20.721-5.174-26.923-13.839zm386.452 101.839h-450.53v-15.367h106.265c4.142 0 7.5-3.358 7.5-7.5s-3.358-7.5-7.5-7.5h-63.561c2.356-8.272 9.964-14.354 18.982-14.354h99.278c4.142 0 7.5-3.358 7.5-7.5s-3.358-7.5-7.5-7.5h-65.38v-13.279h32.096c15.484 0 30.109-7.518 39.122-20.11l12.126-16.943h15.784c4.142 0 7.5-3.358 7.5-7.5s-3.358-7.5-7.5-7.5h-8.064c.808-2.602 1.397-5.259 1.753-7.947h6.311c4.142 0 7.5-3.358 7.5-7.5s-3.358-7.5-7.5-7.5h-6.694c-.436-2.378-1.033-4.738-1.834-7.053h22.589c-.002.77.015 1.542.064 2.314 1.105 17.734 15.308 31.989 33.036 33.159 8.141.534 16.227-1.735 22.839-6.403 7.188 13.26 21.124 21.481 36.115 21.48.869 0 1.745-.028 2.621-.083 12.502-.8 23.673-7.294 30.695-17.164 4.842 8.948 7.595 19.184 7.595 30.052 0 29.442-20.188 54.255-47.448 61.331h-51.787c.78-4.69 4.855-8.281 9.764-8.281h26.116c29.252 0 53.05-23.798 53.05-53.05 0-4.142-3.358-7.5-7.5-7.5s-7.5 3.358-7.5 7.5c0 20.981-17.069 38.05-38.05 38.05h-26.118c-13.187 0-24.008 10.303-24.85 23.281h-86.15c-4.142 0-7.5 3.358-7.5 7.5s3.358 7.5 7.5 7.5h309.265z"/></g></g></svg>