<svg id="Capa_1" enable-background="new 0 0 512 512" height="512" viewBox="0 0 512 512" width="512" xmlns="http://www.w3.org/2000/svg"><g><path d="m69.271 243.533h125.532l3.307-1c.677-2.157 1.042-4.451 1.042-6.831 0-12.59-10.206-22.796-22.796-22.796-5.614 0-10.75 2.033-14.722 5.398-3.972-3.365-9.109-5.398-14.722-5.398s-10.75 2.033-14.722 5.398c-3.972-3.365-9.109-5.398-14.722-5.398-5.614 0-10.75 2.033-14.722 5.398-3.972-3.365-9.109-5.398-14.722-5.398-12.59 0-22.796 10.206-22.796 22.796 0 2.38.366 4.674 1.042 6.831z" fill="#d88a55"/><g><g><path d="m60.868 351.342h391.428v39.43h-391.428z" fill="#e2dee2"/></g><g><path d="m60.868 390.772h391.428v-39.43h-36.117v16.689c0 2.845-2.306 5.151-5.151 5.151h-350.16z" fill="#cbc4cc"/></g><g><path d="m15.127 351.342v69.189c0 2.845 2.306 5.151 5.151 5.151h36.469c2.845 0 5.151-2.306 5.151-5.151v-69.189z" fill="#fae2c0"/></g><g><path d="m39.045 351.342v69.189c0 2.845-2.306 5.151-5.151 5.151h22.854c2.845 0 5.151-2.306 5.151-5.151v-69.189z" fill="#fed2a4"/></g><g><path d="m451.266 351.342v69.189c0 2.845 2.306 5.151 5.151 5.151h36.469c2.845 0 5.151-2.306 5.151-5.151v-69.189z" fill="#fae2c0"/></g><g><path d="m476.459 351.342v69.189c0 2.845-2.306 5.151-5.151 5.151h21.578c2.845 0 5.151-2.306 5.151-5.151v-69.189z" fill="#fed2a4"/></g><g><g><g><path d="m176.357 212.906c-5.614 0-10.75 2.033-14.722 5.398-3.972-3.365-9.109-5.398-14.722-5.398-2.366 0-4.638.38-6.783 1.05 9.241 2.909 15.944 11.544 15.944 21.746 0 2.38-.366 4.674-1.043 6.831h43.08c.677-2.157 1.042-4.451 1.042-6.831 0-12.59-10.206-22.796-22.796-22.796z" fill="#c57a44"/></g></g><g><path d="m232.582 306.857-18.729-60.692c-.666-2.159-2.662-3.632-4.922-3.632h-154.108c-2.273 0-4.278 1.49-4.933 3.667l-18.251 60.658h200.943z" fill="#e2dee2"/></g><g><path d="m213.853 246.165c-.666-2.159-2.662-3.632-4.922-3.632h-39.366c2.26 0 4.256 1.473 4.922 3.632l18.729 60.692h39.366z" fill="#cbc4cc"/></g><g><path d="m480.361 306.857-18.252-60.657c-.655-2.177-2.659-3.667-4.933-3.667h-154.107c-2.26 0-4.256 1.473-4.922 3.632l-18.729 60.692z" fill="#e2dee2"/></g><g><path d="m461.631 246.165c-.666-2.159-2.662-3.632-4.922-3.632h-39.366c2.26 0 4.256 1.473 4.922 3.632l18.729 60.692h39.366z" fill="#cbc4cc"/></g><g><g><g><path d="m342.14 162.82-13.098 22.687c-7.032 12.18 1.758 27.404 15.822 27.404 14.064 0 22.854-15.224 15.822-27.404l-13.098-22.687c-1.212-2.096-4.238-2.096-5.448 0z" fill="#60b7ff"/></g><g><path d="m360.685 185.507-13.098-22.687c-1.21-2.096-4.236-2.096-5.447 0l-6.044 10.468 7.055 12.219c5.407 9.366 1.453 20.525-7.055 25.184 2.556 1.4 5.518 2.22 8.767 2.22 14.064 0 22.853-15.224 15.822-27.404z" fill="#26a6fe"/></g><g><path d="m412.192 162.82-13.098 22.687c-7.032 12.18 1.758 27.404 15.822 27.404 14.064 0 22.854-15.224 15.822-27.404l-13.098-22.687c-1.212-2.096-4.238-2.096-5.448 0z" fill="#60b7ff"/></g><g><path d="m430.737 185.507-13.098-22.687c-1.21-2.096-4.236-2.096-5.447 0l-6.044 10.468 7.055 12.219c5.407 9.366 1.453 20.525-7.055 25.184 2.556 1.4 5.518 2.22 8.767 2.22 14.064 0 22.854-15.224 15.822-27.404z" fill="#26a6fe"/></g></g><g><path d="m377.166 87.891-13.098 22.687c-7.032 12.18 1.758 27.404 15.822 27.404 14.064 0 22.854-15.224 15.822-27.404l-13.098-22.687c-1.212-2.097-4.238-2.097-5.448 0z" fill="#60b7ff"/></g><g><path d="m395.711 110.578-13.098-22.687c-1.21-2.096-4.236-2.096-5.447 0l-6.044 10.468 7.055 12.219c5.407 9.366 1.453 20.525-7.055 25.184 2.556 1.4 5.518 2.22 8.767 2.22 14.064 0 22.854-15.224 15.822-27.404z" fill="#26a6fe"/></g></g><g><path d="m165.671 282.325h-66.962c-4.143 0-7.5-3.358-7.5-7.5s3.357-7.5 7.5-7.5h66.962c4.143 0 7.5 3.358 7.5 7.5s-3.358 7.5-7.5 7.5z" fill="#a79ba7"/></g><g><path d="m413.291 282.325h-66.962c-4.143 0-7.5-3.358-7.5-7.5s3.357-7.5 7.5-7.5h66.962c4.143 0 7.5 3.358 7.5 7.5s-3.357 7.5-7.5 7.5z" fill="#a79ba7"/></g></g><g><path d="m501.698 352.372h-491.396c-5.69 0-10.302-4.612-10.302-10.301v-25.942c0-5.69 4.612-10.302 10.302-10.302h491.396c5.69 0 10.302 4.612 10.302 10.302v25.942c0 5.689-4.612 10.301-10.302 10.301z" fill="#fe646f"/></g><g><path d="m501.698 305.827h-41.722v14.72c0 5.69-4.612 10.302-10.302 10.302h-449.674v11.222c0 5.69 4.612 10.302 10.302 10.302h491.396c5.69 0 10.302-4.612 10.302-10.302v-25.942c0-5.69-4.612-10.302-10.302-10.302z" fill="#fd4755"/></g></g></g></svg>