<svg id="Capa_1" enable-background="new 0 0 512 512" height="512" viewBox="0 0 512 512" width="512" xmlns="http://www.w3.org/2000/svg"><g><g><path d="m17.942 105.993v300.015h237.556v-71.249h-6.417c-2.206 0-4-1.794-4-4v-18.604c0-2.206 1.794-4 4-4h6.417v-98.303h-6.417c-2.206 0-4-1.794-4-4v-18.604c0-2.206 1.794-4 4-4h9.032v-77.256h-240.171z" fill="#fe646f"/></g><g><path d="m249.082 183.249h9.032v-77.256h-31.114v300.015h28.499v-71.249h-6.417c-2.206 0-4-1.794-4-4v-18.604c0-2.206 1.794-4 4-4h6.417v-98.303h-6.417c-2.206 0-4-1.794-4-4v-18.604c0-2.205 1.794-3.999 4-3.999z" fill="#fd4755"/></g><g><path d="m198.045 322.274h-120.033c-12.403 0-22.458 10.055-22.458 22.458 0 12.403 10.055 22.458 22.458 22.458h120.033c12.403 0 22.458-10.055 22.458-22.458-.001-12.404-10.055-22.458-22.458-22.458z" fill="#ffe177"/></g><g><path d="m198.045 322.274h-41.555c12.403 0 22.458 10.055 22.458 22.458 0 12.403-10.055 22.458-22.458 22.458h41.554c12.403 0 22.458-10.055 22.458-22.458 0-12.404-10.054-22.458-22.457-22.458z" fill="#ffd15b"/></g><g><g><path d="m263.557 75.557h-251.057c-2.761 0-5 2.239-5 5v21.436c0 2.761 2.239 5 5 5h251.057c2.761 0 5-2.239 5-5v-21.436c0-2.762-2.239-5-5-5z" fill="#e2dee2"/></g><g><g><path d="m263.557 75.557h-41.557c2.761 0 5 2.239 5 5v21.436c0 2.761-2.239 5-5 5h41.557c2.761 0 5-2.239 5-5v-21.436c0-2.762-2.239-5-5-5z" fill="#cbc4cc"/></g></g><g><path d="m263.557 405.007h-251.057c-2.761 0-5 2.239-5 5v21.436c0 2.761 2.239 5 5 5h251.057c2.761 0 5-2.239 5-5v-21.436c0-2.761-2.239-5-5-5z" fill="#e2dee2"/></g><g><g><path d="m263.557 405.007h-41.557c2.761 0 5 2.239 5 5v21.436c0 2.761-2.239 5-5 5h41.557c2.761 0 5-2.239 5-5v-21.436c0-2.761-2.239-5-5-5z" fill="#cbc4cc"/></g></g></g><g><g><g><path d="m80.181 203.413 10.239-21.245c4.195-8.705 13.15-14.33 22.813-14.33h10.652c-5.903-7.815-12.75-14.824-20.022-20.534-10.36-8.019-21.602-13.328-28.683-8.939-7.341 3.937-8.365 16.328-6.6 29.309 1.709 11.95 5.702 24.379 11.601 35.739z" fill="#fed2a4"/></g><g><g><path d="m103.863 147.304c-10.36-8.019-21.602-13.328-28.683-8.939-2.859 1.533-4.749 4.359-5.9 7.991 5.026 1.769 10.474 5.122 15.698 9.165 5.676 4.457 11.086 9.713 15.998 15.519 3.696-2.052 7.902-3.203 12.257-3.203h10.652c-5.903-7.815-12.75-14.824-20.022-20.533z" fill="#ffbd86"/></g></g><g><path d="m162.823 167.837c9.663 0 18.618 5.625 22.813 14.33l10.239 21.245c5.899-11.359 9.892-23.789 11.6-35.738 1.764-12.982.741-25.372-6.6-29.309-7.08-4.389-18.322.92-28.683 8.939-7.272 5.709-14.119 12.719-20.022 20.534h10.653z" fill="#fed2a4"/></g><g><path d="m200.876 138.365c-4.619-2.863-11.008-1.598-17.768 1.852 5.095 5.185 5.687 16.094 4.142 27.457-.597 4.172-1.488 8.401-2.625 12.624.36.607.703 1.227 1.012 1.869l10.239 21.245c5.899-11.359 9.892-23.789 11.6-35.738 1.765-12.981.742-25.372-6.6-29.309z" fill="#ffbd86"/></g></g><g><path d="m162.823 166.838h-49.589c-10.109 0-19.325 5.789-23.714 14.896l-20.278 42.074c-4.178 8.668-3.293 18.925 2.307 26.75l20.823 29.095c4.943 6.906 12.914 11.004 21.407 11.004h48.499c8.493 0 16.464-4.097 21.407-11.004l20.823-29.095c5.6-7.825 6.485-18.082 2.307-26.75l-20.278-42.074c-4.389-9.108-13.605-14.896-23.714-14.896z" fill="#fff3de"/></g><g><path d="m206.815 223.807-20.278-42.074c-4.389-9.107-13.605-14.896-23.714-14.896h-31.426c10.109 0 19.325 5.789 23.714 14.896l20.278 42.074c4.178 8.668 3.293 18.925-2.307 26.75l-20.823 29.095c-4.943 6.906-12.914 11.004-21.407 11.004h31.426c8.493 0 16.464-4.097 21.407-11.004l20.823-29.095c5.6-7.824 6.485-18.081 2.307-26.75z" fill="#ffe5c2"/></g></g><g><g><g><path d="m416.478 183.249h41.038l12.143-35.815c7.582-22.364-9.047-45.561-32.662-45.561-23.614 0-40.244 23.197-32.662 45.561z" fill="#e2dee2"/></g><g><path d="m436.997 101.872c-5.143 0-9.953 1.102-14.256 3.054 15.453 7.012 24.337 25.014 18.406 42.507l-12.143 35.815h28.512l12.143-35.815c7.582-22.364-9.048-45.561-32.662-45.561z" fill="#cbc4cc"/></g><circle cx="436.997" cy="137.913" r="12.5"/></g><g><path d="m254.499 209.852h239.585v98.303h-239.585z" fill="#ffe177"/></g><g><path d="m463 209.852h31.083v98.303h-31.083z" fill="#ffd15b"/></g><g><g><path d="m254.499 334.758v101.685h229.585c5.523 0 10-4.477 10-10v-91.685z" fill="#ffe177"/></g><g><path d="m463 334.758v91.685c0 5.523-4.477 10-10 10h31.083c5.523 0 10-4.477 10-10v-91.685z" fill="#ffd15b"/></g><g><path d="m254.499 209.852h46.791v98.303h-46.791z" fill="#fe9738"/></g><g><path d="m280.791 209.852h20.499v98.303h-20.499z" fill="#fe860a"/></g><g><g><path d="m499.5 182.248h-250.418c-2.761 0-5 2.239-5 5v18.604c0 2.761 2.239 5 5 5h250.418c2.761 0 5-2.239 5-5v-18.604c0-2.761-2.239-5-5-5z" fill="#f2fbff"/></g></g><g><path d="m499.5 182.248h-41.5c2.761 0 5 2.239 5 5v18.604c0 2.761-2.239 5-5 5h41.5c2.761 0 5-2.239 5-5v-18.604c0-2.761-2.239-5-5-5z" fill="#dff6fd"/></g><g><path d="m254.499 334.758h46.791v101.685h-46.791z" fill="#fe9738"/></g><g><path d="m280.791 334.758h20.499v101.685h-20.499z" fill="#fe860a"/></g><g><g><path d="m499.5 307.155h-250.418c-2.761 0-5 2.239-5 5v18.604c0 2.761 2.239 5 5 5h250.418c2.761 0 5-2.239 5-5v-18.604c0-2.762-2.239-5-5-5z" fill="#f2fbff"/></g></g><g><path d="m499.5 307.155h-41.5c2.761 0 5 2.239 5 5v18.604c0 2.761-2.239 5-5 5h41.5c2.761 0 5-2.239 5-5v-18.604c0-2.762-2.239-5-5-5z" fill="#dff6fd"/></g></g><g><path d="m452.694 242.724c-8.932.882-17.226 3.923-24.369 8.584-1.787 1.166-4.087 1.11-5.801-.163-11.886-8.83-26.595-14.07-42.541-14.07-18.835 0-35.96 7.292-48.727 19.199-2.118 1.976-2.118 5.345 0 7.321 12.767 11.906 29.892 19.199 48.727 19.199 15.946 0 30.654-5.24 42.541-14.07 1.713-1.273 4.013-1.329 5.801-.163 7.143 4.661 15.437 7.701 24.369 8.584 2.91.287 5.413-2.059 5.413-4.984v-24.453c.001-2.925-2.503-5.271-5.413-4.984z" fill="#0593fc"/></g><g><path d="m452.694 364.954c-8.932.882-17.226 3.923-24.369 8.584-1.787 1.166-4.087 1.11-5.801-.163-11.886-8.83-26.595-14.07-42.541-14.07-18.835 0-35.96 7.292-48.727 19.199-2.118 1.976-2.118 5.345 0 7.321 12.767 11.906 29.892 19.199 48.727 19.199 15.946 0 30.654-5.24 42.541-14.07 1.713-1.273 4.013-1.329 5.801-.163 7.143 4.661 15.437 7.701 24.369 8.584 2.91.287 5.413-2.059 5.413-4.984v-24.453c.001-2.925-2.503-5.271-5.413-4.984z" fill="#0593fc"/></g></g><g><path d="m78.012 374.689h120.032c16.519 0 29.958-13.439 29.958-29.958s-13.439-29.958-29.958-29.958h-44.044c-4.142 0-7.5 3.358-7.5 7.5s3.358 7.5 7.5 7.5h44.044c8.248 0 14.958 6.71 14.958 14.958s-6.71 14.958-14.958 14.958h-120.032c-8.248 0-14.958-6.71-14.958-14.958s6.71-14.958 14.958-14.958h40.988c4.142 0 7.5-3.358 7.5-7.5s-3.358-7.5-7.5-7.5h-40.988c-16.519 0-29.958 13.439-29.958 29.958s13.439 29.958 29.958 29.958z"/><path d="m131.024 254.249 7.058-5.777 7.287 5.83c1.383 1.107 3.038 1.645 4.681 1.645 2.2 0 4.38-.963 5.861-2.815 2.588-3.234 2.064-7.954-1.17-10.542l-8.478-6.783 5.51-5.855c2.554-2.714 3.249-6.679 1.77-10.099-1.479-3.421-4.842-5.631-8.568-5.631h-13.891c-3.727 0-7.09 2.21-8.569 5.632-1.478 3.421-.783 7.386 1.772 10.1l5.543 5.89-8.306 6.799c-3.206 2.624-3.677 7.349-1.053 10.554 2.623 3.204 7.349 3.675 10.553 1.052z"/><path d="m48.245 247.901c0 4.142 3.358 7.5 7.5 7.5h10.047l20.481 28.617c6.336 8.853 16.619 14.139 27.506 14.139h48.499c10.887 0 21.17-5.286 27.506-14.139l20.481-28.617h9.093c4.142 0 7.5-3.358 7.5-7.5s-3.358-7.5-7.5-7.5h-2.828c.497-3.22.513-6.504.068-9.749h2.76c4.142 0 7.5-3.358 7.5-7.5s-3.358-7.5-7.5-7.5h-8.148l-6.437-13.355c5.018-10.746 8.513-22.272 10.134-33.612 3.243-23.864-3.746-33.197-10.281-36.816-6.401-3.851-17.979-5.236-37.066 9.537-6.572 5.16-12.692 11.181-18.233 17.933h-22.6c-5.542-6.752-11.667-12.777-18.274-17.965-19.046-14.741-30.622-13.354-37.025-9.504-6.535 3.619-13.524 12.952-10.273 36.868 1.615 11.294 5.11 22.815 10.127 33.561l-6.437 13.355h-9.101c-4.142 0-7.5 3.358-7.5 7.5s3.358 7.5 7.5 7.5h3.713c-.444 3.245-.429 6.529.068 9.749h-3.781c-4.141-.002-7.499 3.356-7.499 7.498zm148.679-103.162c.133.083.27.162.408.236 2.541 1.362 4.474 8.731 2.721 21.638-.824 5.765-2.223 11.604-4.117 17.344l-2.641-5.48c-4.676-9.702-13.784-16.521-24.169-18.519 2.49-2.419 5.057-4.68 7.659-6.723 10.34-8.005 17.688-10.014 20.139-8.496zm-120.912 21.926c-1.761-12.958.172-20.327 2.713-21.689.138-.074.274-.153.408-.236 2.447-1.519 9.798.49 20.099 8.463 2.622 2.058 5.201 4.329 7.699 6.756-10.384 1.998-19.491 8.817-24.168 18.519l-2.642 5.481c-1.893-5.734-3.289-11.559-4.109-17.294zm-1.315 63.987h7.793c4.142 0 7.5-3.358 7.5-7.5s-3.358-7.5-7.5-7.5h-.992l14.778-30.662c3.119-6.471 9.775-10.652 16.958-10.652h49.59c7.183 0 13.839 4.181 16.958 10.652l14.778 30.662h-.992c-4.142 0-7.5 3.358-7.5 7.5s3.358 7.5 7.5 7.5h7.793c.81 3.22.744 6.584-.159 9.749h-7.634c-4.142 0-7.5 3.358-7.5 7.5 0 3.586 2.518 6.579 5.881 7.32l-14.362 20.067c-3.526 4.927-9.249 7.869-15.308 7.869h-48.499c-6.059 0-11.782-2.942-15.308-7.869l-14.362-20.067c3.363-.741 5.881-3.734 5.881-7.32 0-4.142-3.358-7.5-7.5-7.5h-7.634c-.904-3.165-.97-6.529-.16-9.749z"/><path d="m109.425 238.103c4.142 0 7.5-3.358 7.5-7.5v-9.153c0-4.142-3.358-7.5-7.5-7.5s-7.5 3.358-7.5 7.5v9.153c0 4.142 3.358 7.5 7.5 7.5z"/><path d="m166.632 238.103c4.142 0 7.5-3.358 7.5-7.5v-9.153c0-4.142-3.358-7.5-7.5-7.5s-7.5 3.358-7.5 7.5v9.153c0 4.142 3.358 7.5 7.5 7.5z"/><path d="m512 205.852v-18.604c0-6.893-5.607-12.5-12.5-12.5h-31.183l8.444-24.907c4.4-12.978 2.346-26.808-5.639-37.945-7.983-11.137-20.422-17.525-34.125-17.525s-26.142 6.387-34.125 17.524c-7.984 11.137-10.04 24.968-5.64 37.945l8.444 24.907h-140.062v-60.44c5.915-.986 10.442-6.125 10.442-12.316v-21.434c0-6.893-5.607-12.5-12.5-12.5h-177.556c-4.142 0-7.5 3.358-7.5 7.5s3.358 7.5 7.5 7.5h175.057v16.436h-246.057v-16.436h36c4.142 0 7.5-3.358 7.5-7.5s-3.358-7.5-7.5-7.5h-38.5c-6.893 0-12.5 5.607-12.5 12.5v21.436c0 6.19 4.528 11.33 10.442 12.316v283.383c-5.914.985-10.442 6.125-10.442 12.315v21.436c0 6.893 5.607 12.5 12.5 12.5h402.5c4.143 0 7.5-3.358 7.5-7.5s-3.357-7.5-7.5-7.5h-106.211v-85.685h177.794v83.185c0 1.378-1.121 2.5-2.5 2.5h-34.083c-4.143 0-7.5 3.358-7.5 7.5s3.357 7.5 7.5 7.5h34.083c9.649 0 17.5-7.851 17.5-17.5v-83.373c5.902-.996 10.417-6.13 10.417-12.312v-18.604c0-6.181-4.515-11.315-10.417-12.312v-81.679c5.902-.995 10.417-6.129 10.417-12.311zm-100.562-60.827c-2.827-8.341-1.506-17.231 3.625-24.389 5.132-7.159 13.127-11.264 21.935-11.264s16.803 4.105 21.935 11.264c5.131 7.158 6.452 16.048 3.624 24.389l-10.077 29.723h-30.963zm-164.439 283.918h-231.999v-16.436h231.999zm3.615-254.194h-1.533c-6.893 0-12.5 5.607-12.5 12.5v18.604c0 6.181 4.515 11.315 10.417 12.312v81.679c-5.902.996-10.417 6.13-10.417 12.312v18.604c0 6.181 4.515 11.315 10.417 12.312v54.437h-221.556v-283.016h225.172zm43.175 254.194h-31.791v-85.685h31.791zm203.211-100.685h-245.418v-13.604h245.418zm-10.417-109.906v81.303h-177.794v-81.303zm-192.794 81.303h-31.791v-81.303h31.791zm203.211-96.303h-245.418v-13.604h245.418z"/><path d="m326.143 269.08c14.668 13.68 33.789 21.214 53.842 21.214 16.501 0 32.247-5.028 45.651-14.559 7.972 4.896 17.036 7.957 26.321 8.874 3.464.342 6.939-.808 9.53-3.156 2.618-2.372 4.12-5.759 4.12-9.291v-24.453c0-3.532-1.501-6.918-4.119-9.291-2.591-2.348-6.063-3.5-9.53-3.157h-.001c-9.285.917-18.349 3.978-26.321 8.874-13.403-9.53-29.15-14.559-45.651-14.559-20.053 0-39.174 7.534-53.841 21.213-2.526 2.355-3.976 5.688-3.976 9.146s1.449 6.791 3.975 9.145zm53.841-24.504c13.817 0 26.981 4.354 38.067 12.589 4.202 3.122 9.978 3.292 14.371.425 5.496-3.585 11.731-5.992 18.185-7.034v18.758c-6.452-1.042-12.688-3.448-18.184-7.034-4.396-2.868-10.171-2.696-14.371.424-11.087 8.236-24.251 12.59-38.068 12.59-15.327 0-29.982-5.434-41.57-15.359 11.587-9.924 26.243-15.359 41.57-15.359z"/><path d="m461.487 403.682c2.618-2.372 4.12-5.759 4.12-9.291v-24.453c0-3.532-1.501-6.918-4.119-9.291-2.591-2.348-6.063-3.5-9.53-3.157h-.001c-9.285.917-18.349 3.978-26.321 8.874-13.403-9.53-29.15-14.559-45.651-14.559-20.053 0-39.174 7.534-53.841 21.213-2.526 2.355-3.976 5.688-3.976 9.146s1.449 6.791 3.975 9.145c14.668 13.68 33.789 21.214 53.842 21.214 16.501 0 32.247-5.028 45.651-14.559 7.972 4.896 17.036 7.957 26.321 8.874 3.464.343 6.939-.807 9.53-3.156zm-10.88-12.139c-6.452-1.042-12.688-3.448-18.184-7.034-4.396-2.868-10.171-2.697-14.371.424-11.087 8.236-24.251 12.59-38.068 12.59-15.327 0-29.982-5.434-41.57-15.359 11.587-9.924 26.243-15.359 41.57-15.359 13.817 0 26.981 4.354 38.067 12.589 4.202 3.123 9.978 3.292 14.371.425 5.496-3.585 11.731-5.992 18.185-7.034z"/></g></g></svg>