<svg id="Capa_1" enable-background="new 0 0 512 512" height="512" viewBox="0 0 512 512" width="512" xmlns="http://www.w3.org/2000/svg"><g><g><path d="m490.907 104.705h-187.847l18.549 40.811v248.028l1.358-.455c2.912-.977 5.952-1.473 9.034-1.473 6.714 0 13.235 2.39 18.36 6.731l.666.564.666-.564c5.124-4.341 11.645-6.731 18.36-6.731 15.676 0 28.429 12.753 28.429 28.429 0 2.846-.448 5.712-1.33 8.519l-.421 1.339h12.728c4.093 0 7.653 2.627 8.86 6.538l3.642 11.8h68.945c8.534 0 15.453-6.918 15.453-15.453v-312.63c.001-8.535-6.917-15.453-15.452-15.453z" fill="#60b7ff"/></g><path d="m315.126 146.292 7.514-1-30.019-66.042-10.9-1h-234.121l-11.941 1-30.019 66.042 7.791 1z" fill="#fff0ad"/><g><path d="m292.621 79.25h-46.036l30.019 66.042h46.036z" fill="#ffe177"/></g><g><path d="m490.907 104.705h-43.159c8.534 0 15.453 6.918 15.453 15.453v312.63c0 8.534-6.919 15.453-15.453 15.453h43.159c8.534 0 15.453-6.918 15.453-15.453v-312.63c0-8.535-6.918-15.453-15.453-15.453z" fill="#26a6fe"/></g><g><path d="m292.621 79.25v-44.542c0-19.169-15.539-34.708-34.708-34.708h-187.546c-19.169 0-34.708 15.539-34.708 34.708v44.542z" fill="#ffe177"/></g><g><path d="m246.585 34.708v44.542h46.036v-44.542c0-19.169-15.539-34.708-34.708-34.708h-43.385c19.169 0 32.057 15.539 32.057 34.708z" fill="#ffd15b"/></g><g><path d="m321.61 314.865h184.75v42.092h-184.75z" fill="#bbec6c"/></g><g><path d="m463.201 314.865h43.159v42.092h-43.159z" fill="#a2e62e"/></g><g><g><g><path d="m443.612 229.954c-4.21-1.787-7.384-5.309-9.095-9.55-3.449-8.545-11.818-14.575-21.598-14.575s-18.149 6.03-21.598 14.575c-1.712 4.241-4.886 7.763-9.095 9.55-8.67 3.68-14.65 12.461-14.167 22.58.567 11.887 10.249 21.561 22.136 22.12 4.875.229 9.439-1.042 13.27-3.391 5.839-3.58 13.069-3.58 18.908 0 3.832 2.349 8.395 3.62 13.27 3.391 11.888-.559 21.569-10.233 22.136-22.12.484-10.12-5.496-18.901-14.167-22.58z" fill="#fff"/></g><g><g><path d="m443.612 229.954c-4.21-1.787-7.384-5.309-9.096-9.55-3.449-8.545-11.818-14.575-21.598-14.575-6.38 0-12.148 2.577-16.353 6.732 2.241 2.215 4.046 4.871 5.245 7.842 1.712 4.241 4.886 7.763 9.095 9.55 8.67 3.68 14.65 12.461 14.167 22.58-.313 6.571-3.421 12.457-8.138 16.51 1.885.434 3.722 1.168 5.438 2.219 3.832 2.349 8.395 3.62 13.271 3.391 11.887-.559 21.569-10.233 22.136-22.12.484-10.119-5.496-18.9-14.167-22.579z" fill="#f2fbff"/></g></g><g><g><g><ellipse cx="361.274" cy="197.867" fill="#fff" rx="12.667" ry="15.936"/></g><g><ellipse cx="464.563" cy="197.867" fill="#fff" rx="12.667" ry="15.936"/></g></g><g><g><ellipse cx="393.35" cy="172.008" fill="#fff" rx="12.667" ry="15.936"/></g><g><ellipse cx="432.487" cy="172.008" fill="#fff" rx="12.667" ry="15.936"/></g></g></g></g></g><g><path d="m119.928 145.292v1c-.534 27.756-23.279 50.17-51.16 50.17h-63.128v290.002c0 8.534 6.918 15.453 15.453 15.453h166.532c-.02-.961.098-1.934.386-2.89l18.813-62.525c1.187-3.948 4.755-6.6 8.878-6.6h13.518l-.422-1.34c-.883-2.805-1.331-5.672-1.331-8.519 0-15.676 12.754-28.429 28.43-28.429 6.714 0 13.235 2.39 18.36 6.731l.666.564.666-.564c5.125-4.341 11.646-6.731 18.36-6.731s13.235 2.39 18.36 6.731l.666.564.666-.564c2.674-2.266 5.734-3.985 8.998-5.125v-247.928z" fill="#ffe177"/></g><g><path d="m293.95 391.615c6.714 0 13.235 2.39 18.36 6.731l.666.564.666-.564c2.674-2.266 5.734-3.985 8.998-5.125v-247.929h-46.036v252.27c4.959-3.829 11.06-5.947 17.346-5.947z" fill="#ffd15b"/></g><g><path d="m120.938 145.292h-115.298v52.17h63.127c28.813 0 52.171-23.357 52.171-52.17z" fill="#fe646f"/></g><g><path d="m85.937 145.292c0 28.813-23.357 52.17-52.17 52.17h35c28.813 0 52.17-23.357 52.17-52.17z" fill="#fd4755"/></g><g><path d="m206.824 436.502c1.187-3.948 4.756-6.6 8.878-6.6h13.518l-.422-1.34c-.883-2.805-1.331-5.672-1.331-8.519 0-5.363 1.494-10.382 4.086-14.668h-168.436c-5.69 0-10.302 4.612-10.302 10.302v23.179c0 5.69 4.612 10.302 10.302 10.302h139.898z" fill="#0593fc"/></g><g><path d="m182.988 449.159h20.028l3.808-12.657c1.187-3.948 4.756-6.6 8.878-6.6h13.518l-.422-1.34c-.883-2.805-1.331-5.672-1.331-8.519 0-5.363 1.494-10.382 4.086-14.668h-48.566c5.69 0 10.302 4.612 10.302 10.302v23.179c0 5.691-4.612 10.303-10.301 10.303z" fill="#0182fc"/></g><g><g><g><path d="m244.826 240.809-25.478-12.306c-8.998-4.346-19.761-2.524-26.826 4.542-3.273 3.273-5.429 7.369-6.355 11.736 10.586 2.731 20.606 7.429 29.64 13.993 15.396 11.185 22.4 30.277 18.188 48.544l3.909.99c14.843 3.758 29.255-7.461 29.255-22.772v-9.14c-.001-15.164-8.678-28.991-22.333-35.587z" fill="#ea9b58"/></g><g><path d="m112.474 258.775c9.034-6.564 19.054-11.262 29.64-13.993-.927-4.367-3.082-8.463-6.356-11.736-7.066-7.066-17.828-8.888-26.826-4.542l-25.478 12.306c-13.655 6.595-22.332 20.423-22.332 35.587v9.14c0 15.311 14.413 26.529 29.255 22.772l3.91-.99c-4.212-18.268 2.792-37.359 18.187-48.544z" fill="#ea9b58"/></g></g><g><path d="m111.868 257.941c-16.839 12.234-23.885 33.919-17.453 53.715l12.936 39.813c4.192 12.901 16.214 21.636 29.78 21.636h54.018c13.565 0 25.588-8.735 29.78-21.636l12.936-39.813c6.432-19.795-.614-41.481-17.453-53.715-31.169-22.645-73.375-22.645-104.544 0z" fill="#d88a55"/></g><g><path d="m216.412 257.941c-20.244-14.708-45.143-19.852-68.651-15.454 12.686 2.373 24.968 7.517 35.892 15.454 16.839 12.234 23.885 33.919 17.453 53.715l-12.936 39.813c-4.192 12.901-16.214 21.636-29.78 21.636h32.759c13.565 0 25.588-8.735 29.78-21.636l12.936-39.813c6.432-19.795-.614-41.481-17.453-53.715z" fill="#c57a44"/></g><path d="m167.244 341.003c-.763.938-1.895 1.477-3.104 1.477s-2.341-.539-3.104-1.477l-4.396-5.409v37.511h15v-37.51z" fill="#7a6d79"/><g><g><path d="m134.218 307.751c-4.143 0-7.5-3.358-7.5-7.5v-8.559c0-4.142 3.357-7.5 7.5-7.5s7.5 3.358 7.5 7.5v8.559c0 4.143-3.358 7.5-7.5 7.5z" fill="#7a6d79"/></g><g><path d="m194.062 307.751c-4.143 0-7.5-3.358-7.5-7.5v-8.559c0-4.142 3.357-7.5 7.5-7.5s7.5 3.358 7.5 7.5v8.559c0 4.143-3.357 7.5-7.5 7.5z" fill="#7a6d79"/></g></g><g><circle cx="266.193" cy="201.4" fill="#fff" r="20.604"/></g><g><path d="m266.193 180.797c-3.318 0-6.441.803-9.217 2.196 6.746 3.385 11.386 10.346 11.386 18.408s-4.641 15.023-11.386 18.408c2.776 1.393 5.9 2.196 9.217 2.196 11.379 0 20.604-9.225 20.604-20.604s-9.225-20.604-20.604-20.604z" fill="#f2fbff"/></g></g><g><path d="m202.772 52.502h-77.264c-7.112 0-12.877-5.765-12.877-12.877 0-7.112 5.765-12.877 12.877-12.877h77.264c7.112 0 12.877 5.765 12.877 12.877 0 7.112-5.765 12.877-12.877 12.877z" fill="#fff"/></g><g><g><path d="m397.818 429.902c1.095-3.083 1.696-6.4 1.696-9.858 0-16.27-13.19-29.46-29.46-29.46-7.255 0-13.893 2.627-19.026 6.976-5.133-4.348-11.771-6.976-19.026-6.976s-13.893 2.627-19.026 6.976c-5.134-4.348-11.771-6.976-19.026-6.976s-13.893 2.627-19.026 6.976c-5.134-4.348-11.771-6.976-19.026-6.976-16.27 0-29.46 13.19-29.46 29.46 0 3.458.601 6.775 1.696 9.858z" fill="#d88a55"/></g><g><path d="m367.265 420.044c0 3.46-.609 6.775-1.706 9.858h32.259c1.095-3.083 1.696-6.4 1.696-9.858 0-16.27-13.19-29.46-29.46-29.46-5.954 0-11.49 1.772-16.122 4.81 8.027 5.263 13.333 14.334 13.333 24.65z" fill="#c57a44"/></g><g><path d="m438.599 498.66-19.295-62.524c-1.333-4.318-5.324-7.264-9.844-7.264h-193.758c-4.546 0-8.555 2.98-9.865 7.334l-18.813 62.524c-1.989 6.612 2.961 13.27 9.865 13.27h231.866c6.935 0 11.889-6.713 9.844-13.34z" fill="#fe646f"/></g><g><path d="m438.599 498.66-19.295-62.524c-1.333-4.318-5.324-7.264-9.844-7.264h-42.96c4.52 0 8.511 2.946 9.844 7.264l19.295 62.524c2.045 6.626-2.909 13.34-9.844 13.34h42.96c6.935 0 11.889-6.713 9.844-13.34z" fill="#fd4755"/></g><g><path d="m356.244 478.104h-86.537c-4.143 0-7.5-3.358-7.5-7.5s3.357-7.5 7.5-7.5h86.537c4.143 0 7.5 3.358 7.5 7.5s-3.357 7.5-7.5 7.5z" fill="#fff"/></g></g><g><g><circle cx="74.064" cy="39.625" fill="#fff" r="12.877"/></g><g><circle cx="254.346" cy="39.625" fill="#fff" r="12.877"/></g></g><g><path d="m168.02 341.634 12.487-15.363c2.656-3.267.331-8.154-3.88-8.154h-24.974c-4.211 0-6.536 4.886-3.88 8.154l12.487 15.363c2.001 2.462 5.759 2.462 7.76 0z" fill="#685e68"/></g></g></svg>