<svg id="Capa_1" enable-background="new 0 0 512 512" height="512" viewBox="0 0 512 512" width="512" xmlns="http://www.w3.org/2000/svg"><g><g><path d="m209.769 240.588h115.021c20.303-9.257 34.424-29.716 34.424-53.486v-86.296c0-50.774-41.16-91.934-91.934-91.934-50.774 0-91.934 41.16-91.934 91.934v86.296c-.001 23.77 14.12 44.229 34.423 53.486z" fill="#bb5d4c"/></g><path d="m305.068 88.441h14.006c8.51 0 15.409 6.899 15.409 15.409v56.979c0 27.594-16.637 51.292-40.422 61.641-.683.903-1.395 1.783-2.127 2.645v14.46h34.961c19.167-9.68 32.319-29.532 32.319-52.471v-86.296c0-50.774-41.16-91.934-91.934-91.934-9.27 0-18.217 1.378-26.654 3.93 33.957 10.268 59.602 39.654 64.442 75.637z" fill="#a44f3e"/><g><g><path d="m342.682 239.573h-150.805c-29.675 0-53.734 24.043-53.761 53.712h17.884c15.338 0 29.552 8.928 36.211 22.745l14.212 29.488c6.382 13.242 5.032 28.893-3.523 40.846l-13.247 18.51c-7.53 10.521-19.75 16.803-32.688 16.803h-18.85v60.52h258.331v-188.861c-.001-29.692-24.071-53.763-53.764-53.763z" fill="#dff6fd"/></g><g><path d="m342.682 239.573h-2.178v18.179c8.381 9.481 13.477 21.934 13.477 35.584v188.861h42.463v-188.861c.001-29.692-24.069-53.763-53.762-53.763z" fill="#c8effe"/></g><path d="m325.505 239.573h15v65.515h-15z" fill="#0593fc"/><g><path d="m150.191 41.993c4.142 0 7.5-3.358 7.5-7.5s-3.358-7.5-7.5-7.5h-23.656v-11.882h23.656c4.142 0 7.5-3.358 7.5-7.5s-3.358-7.5-7.5-7.5l-34.924-.111c-9.216 0-16.687 7.471-16.687 16.687v133.205c1.681-.95 3.617-1.498 5.682-1.498h22.275v-25.757h23.656c4.142 0 7.5-3.358 7.5-7.5s-3.358-7.5-7.5-7.5h-23.656v-11.882h23.656c4.142 0 7.5-3.358 7.5-7.5s-3.358-7.5-7.5-7.5h-23.656v-11.881h23.656c4.142 0 7.5-3.358 7.5-7.5s-3.358-7.5-7.5-7.5h-23.656v-11.881z" fill="#918291"/><g><path d="m130.973 147.395h-26.712c-6.956 0-12.596 5.639-12.596 12.596v65.838h37.634v-21.739h1.674c5.438 0 9.846-4.408 9.846-9.847v-37.002c0-5.438-4.408-9.846-9.846-9.846z" fill="#ffcebf"/></g><g><path d="m130.973 147.395h-20.811c5.438 0 9.847 4.408 9.847 9.847v37.002c0 5.438-4.408 9.847-9.847 9.847-.925 0-1.674.749-1.674 1.674v20.064h20.811v-21.739h1.674c5.438 0 9.846-4.408 9.846-9.846v-37.002c0-5.439-4.408-9.847-9.846-9.847z" fill="#ffb09e"/></g><g><path d="m101.744 278.66c5.299 4.161 10.395 9.006 15.142 14.397l.334.379.503-.037c1.021-.075 2.024-.113 2.983-.113h19.809v-63.096c0-2.969-2.407-5.376-5.376-5.376h-44.549c-2.969 0-5.376 2.407-5.376 5.376v38.874c5.879 2.002 11.934 6.038 16.53 9.596z" fill="#dff6fd"/></g><g><path d="m119.491 230.189v63.12c.41-.013.817-.024 1.213-.024h19.809v-63.096c0-2.969-2.407-5.376-5.376-5.376h-21.023c2.97 0 5.377 2.407 5.377 5.376z" fill="#c8effe"/></g></g><path d="m198.259 267.774c2.202 0 4.141.511 5.765 1.518 2.295 1.232 3.911 3.295 5.03 5.825v-35.544h-15v28.73c1.435-.335 2.846-.529 4.205-.529z" fill="#0593fc"/><g><g><path d="m200.452 332.269-.205.437 3.725 7.728h105.934c16.4 0 31.505 5.613 43.529 14.998v-41.195c0-5.605-4.544-10.149-10.149-10.149h-133.623c-1.814 9.471-4.953 19.12-9.211 28.181z" fill="#0593fc"/></g></g><g><path d="m343.286 304.089h-41.674c5.605 0 10.149 4.544 10.149 10.149v26.236c15.682.407 30.106 5.929 41.674 14.958v-41.195c0-5.605-4.544-10.148-10.149-10.148z" fill="#0182fc"/></g><g><path d="m267.279 227.017c-8.712 0-17.029-1.708-24.654-4.781v26.026c0 13.616 11.038 24.654 24.654 24.654 13.616 0 24.654-11.038 24.654-24.654v-26.026c-7.625 3.072-15.941 4.781-24.654 4.781z" fill="#ffb09e"/></g><g><g><path d="m267.759 227.005v21.256c0 9.223-5.068 17.257-12.567 21.486 3.572 2.014 7.694 3.169 12.088 3.169 13.616 0 24.654-11.038 24.654-24.654v-26.026c-7.485 3.016-15.638 4.707-24.175 4.769z" fill="#f89580"/></g></g><g><g><g><path d="m201.091 160.828v-37.639h-8.861c-15.286 0-27.678 12.392-27.678 27.678 0 15.286 12.392 27.678 27.678 27.678h11.288c-1.57-5.644-2.427-11.58-2.427-17.717z" fill="#ffb09e"/></g><g><path d="m342.329 123.189h-8.86v37.639c0 6.137-.857 12.073-2.427 17.716h11.288c15.286 0 27.678-12.392 27.678-27.678-.002-15.285-12.393-27.677-27.679-27.677z" fill="#f89580"/></g></g><g><path d="m283.812 93.345-4.261 6.952c-1.868 3.047-5.185 4.905-8.759 4.905h-55.308c-8.51 0-15.409 6.899-15.409 15.409v40.217c0 37.115 30.088 67.203 67.203 67.203 37.115 0 67.203-30.088 67.203-67.203v-56.978c0-8.51-6.899-15.409-15.409-15.409h-26.503c-3.572 0-6.889 1.857-8.757 4.904z" fill="#ffcebf"/></g><g><path d="m319.074 88.441h-14.165c.523 1.549.819 3.202.819 4.927v77.923c0 23.545-12.118 44.249-30.448 56.251 33.341-3.958 59.202-32.307 59.202-66.713v-56.979c.001-8.511-6.898-15.409-15.408-15.409z" fill="#ffb09e"/></g><g><g><path d="m235.667 146.478c-4.142 0-7.5-3.358-7.5-7.5v-9.042c0-4.142 3.358-7.5 7.5-7.5s7.5 3.358 7.5 7.5v9.042c0 4.142-3.357 7.5-7.5 7.5z" fill="#f89580"/></g><g><path d="m298.892 146.478c-4.142 0-7.5-3.358-7.5-7.5v-9.042c0-4.142 3.358-7.5 7.5-7.5s7.5 3.358 7.5 7.5v9.042c0 4.142-3.358 7.5-7.5 7.5z" fill="#f89580"/></g></g><g><path d="m267.28 168.875c-1.919 0-3.839-.732-5.303-2.197l-10.753-10.752c-2.757-2.757-2.942-7.167-.424-10.145l10.753-12.72c2.674-3.163 7.407-3.56 10.569-.886 3.164 2.674 3.56 7.406.886 10.569l-6.3 7.453 5.875 5.875c2.929 2.929 2.929 7.677 0 10.606-1.464 1.465-3.384 2.197-5.303 2.197z" fill="#f89580"/></g><g><path d="m266.878 201.12c-10.57 0-21.14-4.023-29.186-12.07-2.929-2.929-2.929-7.678 0-10.606 2.929-2.929 7.678-2.929 10.606 0 10.245 10.244 26.914 10.245 37.159 0 2.929-2.929 7.678-2.929 10.606 0 2.929 2.929 2.929 7.678 0 10.606-8.045 8.047-18.615 12.07-29.185 12.07z" fill="#f89580"/></g></g></g><g><g><g fill="#cbc4cc"><path d="m390.606 187.333v-17.343c0-4.142-3.358-7.5-7.5-7.5s-7.5 3.358-7.5 7.5v17.343z"/><path d="m409.212 187.333v-17.343c0-4.142-3.358-7.5-7.5-7.5s-7.5 3.358-7.5 7.5v17.343z"/><path d="m372 187.333v-17.343c0-4.142-3.358-7.5-7.5-7.5s-7.5 3.358-7.5 7.5v17.343z"/><path d="m427.818 187.333v-17.343c0-4.142-3.358-7.5-7.5-7.5s-7.5 3.358-7.5 7.5v17.343z"/></g><path d="m389.238 309.253c0-2.413 1.963-4.376 4.376-4.376h6.839v-16.957h-2.674c-4.878 0-8.847-3.969-8.847-8.847v-37.002c0-4.878 3.969-8.847 8.847-8.847h26.712c1.156 0 2.272.175 3.327.492v-47.384h-70.818v99.075c0 13.583 11.01 24.593 24.592 24.593h7.646z" fill="#918291"/><path d="m424.491 233.225c1.156 0 2.272.175 3.327.492v-47.384h-25.752v46.892z" fill="#7a6d79"/></g><g><g><path d="m397.779 288.92h1.674v15.971h37.634v-60.07c0-6.957-5.639-12.596-12.596-12.596h-26.712c-5.438 0-9.847 4.408-9.847 9.847v37.002c.001 5.438 4.409 9.846 9.847 9.846z" fill="#ffcebf"/></g><g><path d="m415.775 244.821v60.07h21.312v-60.07c0-6.957-5.639-12.596-12.596-12.596h-21.312c6.957 0 12.596 5.64 12.596 12.596z" fill="#ffb09e"/></g><g><path d="m415.888 452.555c15.271 0 27.65-12.38 27.65-27.65v-115.652c0-2.969-2.407-5.376-5.376-5.376h-44.548c-2.969 0-5.376 2.407-5.376 5.376v115.651c0 15.271 12.379 27.651 27.65 27.651z" fill="#dff6fd"/></g><g><path d="m438.162 303.877h-21.101c2.969 0 5.376 2.407 5.376 5.376v115.651c0 11.534-7.064 21.414-17.1 25.561 3.252 1.344 6.813 2.089 10.55 2.089 15.271 0 27.65-12.38 27.65-27.65v-115.651c.002-2.969-2.405-5.376-5.375-5.376z" fill="#c8effe"/></g></g></g><g><path d="m309.906 339.419h-106.423l2.939 6.099c6.382 13.242 5.032 28.893-3.523 40.846l-13.247 18.51c-7.53 10.521-19.75 16.803-32.688 16.803h-37.224c-.993 0-1.979-.049-2.961-.122v29.837h-26.79c-15.273 0-27.655 12.382-27.655 27.655 0 1.263.571 2.382 1.455 3.15h258.183c33.855-5.784 59.843-35.43 59.843-70.869-.001-39.55-32.359-71.909-71.909-71.909z" fill="#fff3de"/><g><path d="m309.906 339.419h-61.984c-.837 2.993-1.204 6.182-.998 9.487.88 14.106 12.329 25.6 26.432 26.531 6.952.459 13.41-1.586 18.565-5.32 3.553-2.574 8.601-1.364 10.655 2.513 6.029 11.373 18.319 18.916 32.282 18.023 14.607-.934 26.756-11.304 30.539-24.926-13.217-16.039-33.212-26.308-55.491-26.308z" fill="#fe9738"/></g><path d="m363.633 411.328c0-4.142-3.358-7.5-7.5-7.5s-7.5 3.358-7.5 7.5c0 21.354-17.373 38.727-38.727 38.727h-26.504c-13.877 0-25.168 11.291-25.168 25.168v5.959c0 .345.031.682.077 1.015h14.847c.045-.333.077-.67.077-1.015v-5.959c0-5.607 4.562-10.168 10.168-10.168h26.504c29.624 0 53.726-24.102 53.726-53.727z" fill="#fed2a4"/><g><g><g><path d="m84.494 316.03c6.34-13.155 19.53-21.859 34.016-22.665-4.984-5.784-10.439-11.028-16.145-15.508-10.913-8.447-22.754-14.039-30.212-9.415-7.733 4.147-8.811 17.198-6.952 30.872 1.647 11.521 5.31 23.466 10.682 34.582z" fill="#fed2a4"/></g><g><path d="m204.551 268.442c-7.458-4.623-19.299.969-30.212 9.415-5.706 4.48-11.161 9.724-16.145 15.508 14.486.806 27.676 9.511 34.016 22.665l8.611 17.866c5.372-11.116 9.035-23.061 10.682-34.582 1.859-13.674.781-26.725-6.952-30.872z" fill="#ffbd86"/></g></g><g><path d="m156 292.27h-35.295c-15.826 0-30.254 9.063-37.125 23.319l-14.212 29.488c-6.54 13.57-5.155 29.628 3.612 41.878l13.247 18.51c7.738 10.812 20.217 17.227 33.513 17.227h37.224c13.296 0 25.775-6.415 33.513-17.227l13.247-18.51c8.767-12.25 10.152-28.308 3.612-41.878l-14.212-29.488c-6.87-14.256-21.298-23.319-37.124-23.319z" fill="#ffe5c2"/></g><g><path d="m207.336 345.077-14.212-29.488c-6.871-14.257-21.299-23.319-37.125-23.319h-31.536c15.826 0 30.254 9.063 37.125 23.319l14.212 29.488c6.54 13.57 5.155 29.628-3.612 41.878l-13.247 18.51c-7.738 10.812-20.217 17.227-33.513 17.227h31.536c13.296 0 25.775-6.415 33.513-17.227l13.247-18.51c8.768-12.25 10.153-28.307 3.612-41.878z" fill="#fed2a4"/></g><path d="m155.705 380.539-10.012-8.011c.103-.496.159-1.01.159-1.537v-1.603l-2.767 2.939c-1.224 1.3-2.949 2.045-4.733 2.045s-3.51-.746-4.733-2.045l-2.767-2.939v1.603c0 .541.06 1.068.169 1.577l-9.801 8.023c-3.205 2.624-3.676 7.349-1.052 10.554s7.348 3.676 10.554 1.052l7.684-6.29 7.928 6.343c1.383 1.107 3.037 1.645 4.681 1.645 2.2 0 4.38-.963 5.861-2.815 2.587-3.234 2.063-7.954-1.171-10.541z" fill="#7a6d79"/><g><g><g><path d="m224.991 369.3h-26.838c-4.142 0-7.5-3.358-7.5-7.5s3.358-7.5 7.5-7.5h26.838c4.142 0 7.5 3.358 7.5 7.5s-3.358 7.5-7.5 7.5z" fill="#ffbd86"/></g><g><path d="m224.991 392.588h-26.838c-4.142 0-7.5-3.358-7.5-7.5s3.358-7.5 7.5-7.5h26.838c4.142 0 7.5 3.358 7.5 7.5s-3.358 7.5-7.5 7.5z" fill="#ffbd86"/></g></g><g><g><path d="m78.398 369.3h-27.068c-4.142 0-7.5-3.358-7.5-7.5s3.358-7.5 7.5-7.5h27.069c4.142 0 7.5 3.358 7.5 7.5s-3.358 7.5-7.501 7.5z" fill="#ffbd86"/></g><g><path d="m78.398 392.588h-27.068c-4.142 0-7.5-3.358-7.5-7.5s3.358-7.5 7.5-7.5h27.069c4.142 0 7.5 3.358 7.5 7.5s-3.358 7.5-7.501 7.5z" fill="#ffbd86"/></g></g></g><g><g><path d="m106.362 355.176c-4.142 0-7.5-3.358-7.5-7.5v-9.15c0-4.142 3.358-7.5 7.5-7.5s7.5 3.358 7.5 7.5v9.15c0 4.142-3.358 7.5-7.5 7.5z" fill="#685e68"/></g><g><path d="m170.342 355.176c-4.142 0-7.5-3.358-7.5-7.5v-9.15c0-4.142 3.358-7.5 7.5-7.5s7.5 3.358 7.5 7.5v9.15c0 4.142-3.358 7.5-7.5 7.5z" fill="#685e68"/></g></g></g></g><g><path d="m487.151 512h-462.302c-2.802 0-5.074-2.272-5.074-5.074v-20.669c0-2.802 2.272-5.074 5.074-5.074h462.301c2.802 0 5.074 2.272 5.074 5.074v20.669c.001 2.802-2.271 5.074-5.073 5.074z" fill="#ffe177"/></g><g><path d="m487.151 481.182h-55.579c2.802 0 5.074 2.272 5.074 5.074v20.669c0 2.802-2.272 5.074-5.074 5.074h55.579c2.802 0 5.074-2.272 5.074-5.074v-20.669c0-2.802-2.272-5.074-5.074-5.074z" fill="#ffd15b"/></g><path d="m138.352 375.373c-2.068 0-4.044-.854-5.461-2.36l-8.723-9.268c-2.582-2.745-3.283-6.75-1.79-10.207 1.494-3.456 4.893-5.689 8.658-5.689h14.631c3.766 0 7.165 2.234 8.658 5.69 1.494 3.457.792 7.463-1.79 10.206l-8.723 9.268c-1.416 1.506-3.392 2.36-5.46 2.36z" fill="#685e68"/></g></svg>