<svg id="Capa_1" enable-background="new 0 0 512 512" height="512" viewBox="0 0 512 512" width="512" xmlns="http://www.w3.org/2000/svg"><g><g><path d="m281.157 302.329v-25.207c0-5.523-4.477-10-10-10h-30.314c-5.523 0-10 4.477-10 10v25.207z" fill="#ffd15b"/></g><g><path d="m271.157 267.121h-20.843c5.523 0 10 4.477 10 10v25.207h20.843v-25.207c0-5.522-4.477-10-10-10z" fill="#ffc344"/></g><g><path d="m365.602 334.922c9.426-6.796 15.568-17.864 15.568-30.372 0-20.671-16.757-37.428-37.428-37.428-19.585 0-35.646 15.045-37.281 34.207h-100.922c-1.635-19.162-17.696-34.207-37.281-34.207-20.671 0-37.428 16.757-37.428 37.428 0 12.508 6.142 23.576 15.568 30.372-9.426 6.796-15.568 17.864-15.568 30.372 0 20.671 16.757 37.428 37.428 37.428 19.585 0 35.646-15.045 37.281-34.207h100.922c1.635 19.162 17.696 34.207 37.281 34.207 20.671 0 37.428-16.757 37.428-37.428 0-12.508-6.142-23.576-15.568-30.372z" fill="#e2dee2"/></g><g><g><path d="m365.602 334.922c10.008-7.216 16.314-19.246 15.497-32.704-1.148-18.928-16.677-34.198-35.62-35.057-6.204-.281-12.092.953-17.329 3.358 12.891 5.911 21.85 18.921 21.85 34.031 0 10.484-4.315 19.955-11.261 26.748-2.047 2.002-2.047 5.246 0 7.248 6.946 6.793 11.261 16.264 11.261 26.748 0 15.11-8.959 28.12-21.85 34.031 5.237 2.405 11.124 3.639 17.327 3.358 18.943-.858 34.473-16.128 35.622-35.055.818-13.459-5.488-25.49-15.497-32.706z" fill="#cbc4cc"/></g></g><g><g><path d="m489.5 135.661h-36.313v74.857h36.313c8.284 0 15-6.716 15-15v-44.857c0-8.284-6.716-15-15-15z" fill="#d88a55"/></g><g><path d="m58.813 135.661h-36.313c-8.284 0-15 6.716-15 15v44.857c0 8.284 6.716 15 15 15h36.313z" fill="#d88a55"/></g><g><path d="m94.855 135.661h89.742v74.857h-89.742z" fill="#d88a55"/></g><g><path d="m213.276 138.957h85.447v68.267h-85.447z" fill="#d88a55"/></g><g><path d="m327.402 135.661h89.742v74.857h-89.742z" fill="#d88a55"/></g><g><g><path d="m94.855 189.857h89.742v20.661h-89.742z" fill="#c57a44"/></g></g><g><g><path d="m327.402 189.857h89.742v20.661h-89.742z" fill="#c57a44"/></g></g><g><g><path d="m7.5 189.857v5.661c0 8.284 6.716 15 15 15h36.313v-20.661z" fill="#c57a44"/></g></g><g><path d="m489.5 135.661h-5.5v39.195c0 8.284-6.716 15-15 15h-15.813v20.661h36.313c8.284 0 15-6.716 15-15v-44.857c0-8.283-6.716-14.999-15-14.999z" fill="#c57a44"/></g></g><g><g><path d="m313.063 236.902h-114.126c-8.471 0-15.34-6.868-15.34-15.34v-96.946c0-8.471 6.868-15.34 15.34-15.34h114.126c8.471 0 15.34 6.868 15.34 15.34v96.946c-.001 8.472-6.869 15.34-15.34 15.34zm-98.786-30.679h83.447v-66.267h-83.447z" fill="#ffd15b"/></g></g><g><g><path d="m313.063 109.277h-41.598c8.471 0 15.339 6.868 15.339 15.34v15.339h10.919v66.267h-10.919v15.34c0 8.471-6.868 15.339-15.339 15.339h41.598c8.471 0 15.339-6.868 15.339-15.339v-96.946c0-8.472-6.868-15.34-15.339-15.34z" fill="#ffc344"/></g></g><g><g><path d="m444.186 221.563h-18.042c-5.523 0-10-4.477-10-10v-76.946c0-5.523 4.477-10 10-10h18.042c5.523 0 10 4.477 10 10v76.946c0 5.522-4.477 10-10 10z" fill="#ffd15b"/></g><g><path d="m444.186 190h-18.042c-5.523 0-10-4.477-10-10v31.563c0 5.523 4.477 10 10 10h18.042c5.523 0 10-4.477 10-10v-31.563c0 5.523-4.477 10-10 10z" fill="#ffc344"/></g><g><path d="m85.856 221.563h-18.042c-5.523 0-10-4.477-10-10v-76.946c0-5.523 4.477-10 10-10h18.042c5.523 0 10 4.477 10 10v76.946c0 5.522-4.478 10-10 10z" fill="#ffd15b"/></g><g><path d="m85.856 190h-18.042c-5.523 0-10-4.477-10-10v31.563c0 5.523 4.477 10 10 10h18.042c5.523 0 10-4.477 10-10v-31.563c0 5.523-4.478 10-10 10z" fill="#ffc344"/></g></g><g><path d="m489.5 128.162h-29.063c-2.576-6.461-8.882-11.044-16.251-11.044h-18.042c-7.368 0-13.675 4.584-16.251 11.044h-73.991v-3.545c0-12.594-10.246-22.839-22.84-22.839h-114.125c-12.594 0-22.839 10.246-22.839 22.839v3.544h-27.098c-4.142 0-7.5 3.358-7.5 7.5s3.358 7.5 7.5 7.5h27.098v59.857h-72.742v-59.857h10.644c4.142 0 7.5-3.358 7.5-7.5s-3.358-7.5-7.5-7.5h-11.894c-2.576-6.461-8.883-11.044-16.251-11.044h-18.042c-7.368 0-13.675 4.584-16.251 11.045h-29.062c-12.407 0-22.5 10.093-22.5 22.5v44.856c0 12.407 10.093 22.5 22.5 22.5h29.063c2.576 6.461 8.883 11.044 16.251 11.044h18.042c7.368 0 13.675-4.584 16.251-11.044h73.991v3.544c0 12.594 10.246 22.839 22.839 22.839h49.563v15.22h-7.657c-9.649 0-17.5 7.851-17.5 17.5v16.707h-11.466c-4.867-19.653-22.842-34.208-43.62-34.208-24.773 0-44.928 20.155-44.928 44.929 0 11.314 4.315 22.154 11.843 30.372-7.528 8.218-11.843 19.058-11.843 30.372 0 24.774 20.155 44.929 44.928 44.929 20.777 0 38.752-14.554 43.62-34.207h40.123c4.142 0 7.5-3.358 7.5-7.5s-3.358-7.5-7.5-7.5h-46.461c-3.895 0-7.142 2.981-7.473 6.862-1.309 15.333-14.402 27.345-29.809 27.345-16.502 0-29.928-13.426-29.928-29.929 0-9.585 4.656-18.666 12.454-24.289 1.955-1.41 3.114-3.673 3.114-6.083s-1.159-4.674-3.114-6.083c-7.798-5.623-12.454-14.703-12.454-24.289 0-16.503 13.426-29.929 29.928-29.929 15.407 0 28.5 12.011 29.809 27.345.331 3.881 3.578 6.862 7.473 6.862h100.922c3.895 0 7.142-2.981 7.473-6.862 1.309-15.334 14.401-27.345 29.809-27.345 16.502 0 29.928 13.426 29.928 29.929 0 9.586-4.655 18.666-12.454 24.289-1.955 1.41-3.113 3.673-3.113 6.083s1.158 4.674 3.113 6.083c7.799 5.623 12.454 14.703 12.454 24.289 0 16.503-13.426 29.929-29.928 29.929-15.407 0-28.5-12.011-29.809-27.345-.331-3.881-3.578-6.862-7.473-6.862h-19.461c-4.143 0-7.5 3.358-7.5 7.5s3.357 7.5 7.5 7.5h13.123c4.866 19.653 22.842 34.207 43.619 34.207 24.773 0 44.928-20.155 44.928-44.929 0-11.314-4.314-22.155-11.843-30.372 7.528-8.217 11.843-19.058 11.843-30.372 0-24.774-20.154-44.929-44.928-44.929-20.777 0-38.753 14.554-43.619 34.208h-11.466v-16.707c0-9.649-7.851-17.5-17.5-17.5h-7.657v-15.22h49.562c12.594 0 22.84-10.246 22.84-22.839v-3.544h73.991c2.576 6.461 8.882 11.044 16.251 11.044h18.042c7.368 0 13.675-4.584 16.251-11.044h29.063c12.406 0 22.5-10.093 22.5-22.5v-44.856c0-12.407-10.094-22.5-22.5-22.5zm-474.5 67.356v-44.856c0-4.136 3.364-7.5 7.5-7.5h27.813v59.856h-27.813c-4.136 0-7.5-3.364-7.5-7.5zm73.355 16.045c0 1.378-1.122 2.5-2.5 2.5h-18.042c-1.378 0-2.5-1.122-2.5-2.5v-76.946c0-1.378 1.122-2.5 2.5-2.5h18.042c1.378 0 2.5 1.122 2.5 2.5zm182.802 63.059c1.379 0 2.5 1.122 2.5 2.5v16.707h-35.314v-16.707c0-1.378 1.122-2.5 2.5-2.5zm49.745-53.06c0 4.323-3.517 7.839-7.84 7.839h-114.125c-4.323 0-7.839-3.517-7.839-7.839v-96.946c0-4.323 3.517-7.839 7.839-7.839h114.125c4.323 0 7.84 3.517 7.84 7.839zm15-78.4h72.742v59.856h-72.742zm161.098 52.356c0 4.136-3.364 7.5-7.5 7.5h-27.813v-21.018c0-4.142-3.357-7.5-7.5-7.5s-7.5 3.358-7.5 7.5v29.563c0 1.378-1.121 2.5-2.5 2.5h-18.042c-1.379 0-2.5-1.122-2.5-2.5v-76.945c0-1.378 1.121-2.5 2.5-2.5h18.042c1.379 0 2.5 1.122 2.5 2.5v12.382c0 4.142 3.357 7.5 7.5 7.5s7.5-3.358 7.5-7.5v-3.838h27.813c4.136 0 7.5 3.364 7.5 7.5z"/><path d="m297.724 132.457h-83.447c-4.142 0-7.5 3.358-7.5 7.5v25.742c-3.559.585-6.276 3.667-6.276 7.392s2.718 6.806 6.276 7.392v25.742c0 4.142 3.358 7.5 7.5 7.5h83.447c4.143 0 7.5-3.358 7.5-7.5v-66.267c0-4.144-3.358-7.501-7.5-7.501zm-7.5 66.266h-68.447v-18.133h15.223c4.142 0 7.5-3.358 7.5-7.5s-3.358-7.5-7.5-7.5h-15.224v-18.133h68.447v51.266z"/><path d="m315.5 334.922c0-4.142-3.357-7.5-7.5-7.5h-104c-4.142 0-7.5 3.358-7.5 7.5s3.358 7.5 7.5 7.5h104c4.143 0 7.5-3.358 7.5-7.5z"/><circle cx="147.01" cy="173.09" r="7.5"/><circle cx="364.99" cy="173.09" r="7.5"/></g></g></svg>