<svg id="Capa_1" enable-background="new 0 0 512 512" height="512" viewBox="0 0 512 512" width="512" xmlns="http://www.w3.org/2000/svg"><g><g><path d="m484.025 109.137h-182.343l18.006 39.615v240.761l1.318-.442c2.827-.949 5.777-1.43 8.77-1.43 6.518 0 12.848 2.32 17.822 6.534l.646.547.646-.547c4.974-4.214 11.304-6.534 17.822-6.534 15.217 0 27.596 12.379 27.596 27.596 0 2.763-.435 5.545-1.291 8.27l-.408 1.3h12.355c3.973 0 7.429 2.55 8.601 6.346l3.535 11.455h66.925c8.284 0 15-6.716 15-15v-303.471c0-8.284-6.715-15-15-15z" fill="#60b7ff"/></g><g><path d="m484.025 109.137h-41.895c8.284 0 15 6.716 15 15v303.471c0 8.284-6.716 15-15 15h41.895c8.284 0 15-6.716 15-15v-303.471c0-8.284-6.715-15-15-15z" fill="#26a6fe"/></g><g><path d="m291.548 85.428v-44.237c0-18.607-15.084-33.691-33.691-33.691h-182.052c-18.607 0-33.691 15.084-33.691 33.691v44.237z" fill="#ffe177"/></g><g><path d="m249.434 41.191v43.237h42.114v-43.237c0-18.607-15.084-33.691-33.691-33.691h-42.114c18.607 0 33.691 15.084 33.691 33.691z" fill="#ffd15b"/></g><g><path d="m319.688 313.141h179.338v40.859h-179.338z" fill="#bbec6c"/></g><g><path d="m457.131 313.141h41.895v40.859h-41.895z" fill="#a2e62e"/></g><g><g><g><path d="m438.116 230.717c-4.086-1.734-7.167-5.154-8.829-9.27-3.348-8.294-11.472-14.148-20.965-14.148s-17.618 5.853-20.965 14.148c-1.661 4.117-4.742 7.536-8.829 9.27-8.416 3.572-14.221 12.095-13.752 21.918.551 11.539 9.949 20.93 21.488 21.472 4.732.223 9.162-1.011 12.882-3.291 5.668-3.475 12.686-3.475 18.354 0 3.719 2.28 8.149 3.514 12.882 3.291 11.539-.543 20.937-9.933 21.488-21.472.467-9.823-5.338-18.347-13.754-21.918z" fill="#fff"/></g><g><g><path d="m438.116 230.717c-4.087-1.734-7.167-5.154-8.829-9.27-3.348-8.294-11.471-14.148-20.965-14.148-6.193 0-11.792 2.501-15.874 6.535 2.176 2.15 3.927 4.729 5.091 7.612 1.662 4.117 4.742 7.536 8.829 9.27 8.416 3.572 14.221 12.095 13.752 21.918-.304 6.379-3.321 12.092-7.9 16.026 1.83.421 3.613 1.134 5.279 2.154 3.719 2.28 8.149 3.514 12.882 3.291 11.539-.543 20.937-9.933 21.488-21.472.468-9.821-5.337-18.345-13.753-21.916z" fill="#f2fbff"/></g></g><g><g><g><ellipse cx="358.19" cy="199.57" fill="#fff" rx="12.296" ry="15.469"/></g><g><ellipse cx="458.453" cy="199.57" fill="#fff" rx="12.296" ry="15.469"/></g></g><g><g><ellipse cx="389.326" cy="174.469" fill="#fff" rx="12.296" ry="15.469"/></g><g><ellipse cx="427.317" cy="174.469" fill="#fff" rx="12.296" ry="15.469"/></g></g></g></g></g><g><path d="m190.003 491.907 18.262-60.693c1.152-3.832 4.616-6.407 8.618-6.407h13.122l-.409-1.3c-.857-2.723-1.292-5.505-1.292-8.269 0-15.217 12.38-27.596 27.597-27.596 6.518 0 12.848 2.32 17.822 6.534l.646.547.646-.547c4.975-4.214 11.305-6.534 17.822-6.534s12.848 2.32 17.822 6.534l.646.547.646-.547c2.596-2.199 5.566-3.868 8.735-4.975v-240.666h-307.711v331.177c0 8.284 6.716 15 15 15h161.654c-.02-.933.095-1.877.374-2.805z" fill="#ffe177"/></g><g><path d="m292.838 387.642c6.518 0 12.848 2.32 17.822 6.534l.646.547.646-.547c2.596-2.199 5.566-3.868 8.735-4.975v-240.666h-44.687v244.879c4.814-3.716 10.737-5.772 16.838-5.772z" fill="#ffd15b"/></g><g><path d="m124.895 148.535h-111.92v50.642h61.278c27.968 0 50.642-22.673 50.642-50.642z" fill="#fe646f"/></g><g><path d="m90.92 148.535c0 27.969-22.673 50.642-50.642 50.642h33.975c27.969 0 50.642-22.673 50.642-50.642z" fill="#fd4755"/></g><g><path d="m208.265 431.214c1.152-3.832 4.616-6.407 8.618-6.407h13.122l-.409-1.3c-.857-2.723-1.292-5.505-1.292-8.269 0-5.206 1.45-10.078 3.966-14.238h-163.502c-5.523 0-10 4.477-10 10v22.5c0 5.523 4.477 10 10 10h135.8z" fill="#0593fc"/></g><g><path d="m185.127 443.5h19.441l3.697-12.286c1.152-3.832 4.616-6.407 8.618-6.407h13.122l-.409-1.3c-.857-2.723-1.292-5.505-1.292-8.269 0-5.206 1.45-10.078 3.966-14.238h-47.143c5.523 0 10 4.477 10 10v22.5c0 5.523-4.478 10-10 10z" fill="#0182fc"/></g><g><g><g><path d="m245.153 241.255-24.731-11.945c-8.734-4.219-19.182-2.45-26.041 4.409-3.177 3.177-5.27 7.153-6.169 11.392 10.276 2.651 20.002 7.212 28.771 13.583 14.945 10.858 21.743 29.39 17.655 47.122l3.795.961c14.408 3.648 28.398-7.242 28.398-22.105v-8.872c0-14.721-8.423-28.143-21.678-34.545z" fill="#ea9b58"/></g><g><path d="m116.679 258.694c8.769-6.371 18.496-10.932 28.772-13.583-.9-4.239-2.992-8.215-6.169-11.392-6.859-6.859-17.306-8.628-26.041-4.409l-24.731 11.945c-13.255 6.402-21.678 19.824-21.678 34.545v8.872c0 14.862 13.99 25.752 28.398 22.105l3.795-.961c-4.089-17.733 2.71-36.265 17.654-47.122z" fill="#ea9b58"/></g></g><g><path d="m116.091 257.885c-16.345 11.876-23.185 32.926-16.942 52.141l12.557 38.647c4.069 12.523 15.739 21.002 28.907 21.002h52.436c13.168 0 24.838-8.479 28.907-21.002l12.557-38.647c6.243-19.215-.596-40.265-16.942-52.141-30.255-21.983-71.224-21.983-101.48 0z" fill="#d88a55"/></g><g><path d="m217.572 257.885c-19.651-14.278-43.821-19.271-66.64-15.002 12.314 2.304 24.236 7.297 34.841 15.002 16.345 11.876 23.185 32.926 16.942 52.141l-12.557 38.647c-4.069 12.523-15.739 21.002-28.907 21.002h31.799c13.168 0 24.838-8.479 28.907-21.002l12.557-38.647c6.243-19.216-.597-40.266-16.942-52.141z" fill="#c57a44"/></g><g><path d="m166.831 343.759 15.422-18.973c2.765-3.401.344-8.488-4.039-8.488h-22.765c-4.383 0-6.804 5.087-4.039 8.488z" fill="#7a6d79"/></g><g><circle cx="265.895" cy="203" fill="#fff" r="20"/></g><g><path d="m265.895 183c-3.22 0-6.252.779-8.947 2.132 6.547 3.285 11.052 10.043 11.052 17.868s-4.505 14.583-11.053 17.868c2.695 1.352 5.727 2.132 8.947 2.132 11.046 0 20-8.954 20-20s-8.954-20-19.999-20z" fill="#f2fbff"/></g></g><g><path d="m291.548 84.428h-249.434l-29.139 64.107h307.713z" fill="#fff0ad"/></g><g><path d="m291.548 84.428h-44.687l29.139 64.107h44.688z" fill="#ffe177"/></g><path d="m204.331 58.464h-75c-6.904 0-12.5-5.596-12.5-12.5 0-6.904 5.596-12.5 12.5-12.5h75c6.904 0 12.5 5.596 12.5 12.5 0 6.904-5.596 12.5-12.5 12.5z" fill="#fff"/><g><g><path d="m393.663 424.807c1.063-2.993 1.646-6.212 1.646-9.569 0-15.793-12.803-28.597-28.597-28.597-7.042 0-13.486 2.55-18.469 6.771-4.983-4.221-11.427-6.771-18.469-6.771s-13.486 2.55-18.469 6.771c-4.983-4.221-11.427-6.771-18.469-6.771s-13.486 2.55-18.469 6.771c-4.983-4.221-11.427-6.771-18.469-6.771-15.793 0-28.597 12.803-28.597 28.597 0 3.357.583 6.577 1.646 9.569z" fill="#d88a55"/></g><g><path d="m364.005 415.238c0 3.359-.591 6.576-1.656 9.569h31.313c1.062-2.993 1.646-6.212 1.646-9.569 0-15.793-12.803-28.597-28.597-28.597-5.779 0-11.154 1.72-15.65 4.669 7.794 5.109 12.944 13.915 12.944 23.928z" fill="#c57a44"/></g><g><path d="m433.25 491.551-18.729-60.693c-1.294-4.192-5.168-7.051-9.555-7.051h-188.083c-4.413 0-8.304 2.893-9.576 7.119l-18.262 60.693c-1.931 6.418 2.874 12.881 9.576 12.881h225.073c6.732 0 11.541-6.517 9.556-12.949z" fill="#fe646f"/></g><g><path d="m433.25 491.551-18.729-60.693c-1.294-4.192-5.168-7.051-9.555-7.051h-41.701c4.387 0 8.262 2.859 9.555 7.051l18.729 60.693c1.985 6.432-2.824 12.949-9.555 12.949h41.701c6.731 0 11.54-6.517 9.555-12.949z" fill="#fd4755"/></g></g><g><circle cx="79.395" cy="45.964" fill="#fff" r="12.5"/><g><circle cx="254.395" cy="45.964" fill="#fff" r="12.5"/></g></g><g><path d="m484.025 101.637h-176.415l-8.561-18.834v-41.612c0-22.713-18.479-41.191-41.192-41.191h-182.052c-22.713 0-41.19 18.478-41.19 41.191v41.612l-28.469 62.629c-.005.011-.006.023-.01.034-.422.938-.662 1.975-.662 3.069v331.177c0 12.407 10.094 22.5 22.5 22.5h39.526c4.143 0 7.5-3.358 7.5-7.5s-3.357-7.5-7.5-7.5h-39.525c-4.136 0-7.5-3.365-7.5-7.5v-273.035h53.778c29.517 0 53.949-22.115 57.642-50.642h181.293v227.158c-.635.329-1.265.67-1.881 1.036-5.555-3.309-11.939-5.088-18.469-5.088s-12.914 1.78-18.469 5.088c-5.555-3.309-11.939-5.088-18.469-5.088-11.747 0-22.198 5.643-28.794 14.358h-158.337c-9.649 0-17.5 7.851-17.5 17.5v22.5c0 9.649 7.851 17.5 17.5 17.5h124.666l-10.896 36.212h-80.039c-4.143 0-7.5 3.358-7.5 7.5s3.357 7.5 7.5 7.5h80.407c.468.946 1.024 1.86 1.67 2.729 3.335 4.486 8.454 7.059 14.044 7.059h225.073c5.614 0 10.747-2.591 14.081-7.108 3.334-4.518 4.297-10.186 2.642-15.551l-12.107-39.232h55.716c12.406 0 22.5-10.093 22.5-22.5v-303.471c-.001-12.407-10.094-22.5-22.501-22.5zm-409.772 90.04h-53.778v-35.642h96.254c-3.562 20.224-21.247 35.642-42.476 35.642zm-49.631-50.642 22.321-49.107h159.057c4.143 0 7.5-3.358 7.5-7.5s-3.357-7.5-7.5-7.5h-156.386v-35.737c0-14.442 11.749-26.191 26.191-26.191h182.053c14.442 0 26.191 11.749 26.191 26.191v35.737h-43.049c-4.143 0-7.5 3.358-7.5 7.5s3.357 7.5 7.5 7.5h45.72l22.32 49.107zm231.278 253.107c4.981 0 9.819 1.773 13.621 4.994 2.799 2.369 6.896 2.369 9.695 0 3.802-3.221 8.64-4.994 13.621-4.994s9.819 1.773 13.621 4.994c2.799 2.369 6.896 2.369 9.695 0 3.802-3.221 8.64-4.994 13.621-4.994s9.819 1.773 13.621 4.994c2.799 2.369 6.898 2.37 9.695 0 3.802-3.22 8.639-4.994 13.621-4.994 11.633 0 21.097 9.464 21.097 21.096 0 .357-.009.714-.026 1.069h-152.952c-.018-.355-.026-.712-.026-1.069 0-11.633 9.464-21.096 21.096-21.096zm-187.131 41.858c-1.379 0-2.5-1.122-2.5-2.5v-22.5c0-1.378 1.121-2.5 2.5-2.5h151.675c-.414 2.184-.64 4.435-.64 6.738 0 .357.022.713.033 1.069h-2.954c-7.781 0-14.516 5.006-16.758 12.458l-2.177 7.235zm356.937 59.984c-.28.379-.914 1.016-2.012 1.016h-225.073c-1.094 0-1.727-.632-2.006-1.008-.28-.377-.703-1.165-.389-2.212l18.262-60.693c.32-1.064 1.283-1.78 2.395-1.78h188.082c1.104 0 2.063.708 2.389 1.763l18.729 60.693c.324 1.049-.098 1.842-.377 2.221zm65.819-68.376c0 4.136-3.364 7.5-7.5 7.5h-60.345l-1.994-6.461c-2.278-7.38-8.998-12.339-16.722-12.339h-2.188c.011-.357.033-.712.033-1.069 0-19.903-16.193-36.096-36.097-36.096-6.529 0-12.915 1.78-18.469 5.088-5.556-3.308-11.939-5.088-18.469-5.088-.531 0-1.059.031-1.588.054v-17.697h163.338v66.108zm0-121.967h-44.025c-4.143 0-7.5 3.358-7.5 7.5s3.357 7.5 7.5 7.5h44.025v25.859h-163.337v-25.859h84.312c4.143 0 7.5-3.358 7.5-7.5s-3.357-7.5-7.5-7.5h-84.312v-157.106c0-1.096-.24-2.133-.663-3.071-.004-.011-.004-.022-.009-.032l-13.088-28.794h169.598c4.136 0 7.5 3.364 7.5 7.5v181.503z"/><path d="m441.046 223.813c-2.113-.897-3.819-2.734-4.804-5.174-4.62-11.445-15.579-18.84-27.921-18.84-12.341 0-23.3 7.396-27.919 18.839-.985 2.44-2.692 4.278-4.805 5.174-11.554 4.903-18.914 16.629-18.314 29.18.731 15.32 13.306 27.886 28.628 28.607.482.022.963.034 1.442.034 5.566 0 10.971-1.518 15.711-4.423 3.245-1.989 7.272-1.987 10.514 0 5.148 3.157 11.076 4.672 17.154 4.39 15.321-.721 27.896-13.287 28.627-28.607.6-12.551-6.76-24.277-18.313-29.18zm3.331 28.464c-.367 7.679-6.67 13.977-14.349 14.338-3.055.142-6.034-.615-8.609-2.194-8.08-4.953-18.116-4.953-26.194 0-2.576 1.579-5.562 2.335-8.609 2.194-7.68-.361-13.982-6.66-14.35-14.338-.301-6.306 3.393-12.196 9.192-14.657 5.803-2.463 10.367-7.21 12.854-13.367 2.318-5.744 7.817-9.455 14.01-9.455s11.692 3.711 14.011 9.454c2.484 6.157 7.05 10.904 12.854 13.368 5.797 2.462 9.491 8.352 9.19 14.657z"/><path d="m458.453 176.602c-4.658 0-8.943 1.881-12.328 5.017.637-2.252.987-4.654.987-7.15 0-12.665-8.88-22.969-19.795-22.969-8.985 0-16.586 6.984-18.996 16.518-2.409-9.534-10.011-16.518-18.996-16.518-10.915 0-19.796 10.304-19.796 22.969 0 2.496.35 4.897.987 7.149-3.385-3.135-7.669-5.016-12.327-5.016-10.915 0-19.796 10.304-19.796 22.969s8.881 22.969 19.796 22.969 19.796-10.304 19.796-22.969c0-2.496-.35-4.897-.987-7.149 3.385 3.135 7.669 5.016 12.327 5.016 8.985 0 16.586-6.984 18.996-16.518 2.409 9.534 10.011 16.518 18.996 16.518 4.658 0 8.942-1.881 12.327-5.017-.637 2.252-.987 4.654-.987 7.15 0 12.665 8.881 22.969 19.796 22.969s19.795-10.304 19.795-22.969-8.88-22.969-19.795-22.969zm-100.263 30.937c-2.264 0-4.796-3.408-4.796-7.969s2.532-7.969 4.796-7.969 4.796 3.408 4.796 7.969-2.532 7.969-4.796 7.969zm31.136-25.101c-2.264 0-4.796-3.408-4.796-7.969s2.532-7.969 4.796-7.969 4.796 3.408 4.796 7.969-2.532 7.969-4.796 7.969zm37.991 0c-2.264 0-4.796-3.408-4.796-7.969s2.532-7.969 4.796-7.969 4.795 3.408 4.795 7.969-2.531 7.969-4.795 7.969zm31.136 25.101c-2.264 0-4.796-3.408-4.796-7.969s2.532-7.969 4.796-7.969 4.795 3.408 4.795 7.969-2.531 7.969-4.795 7.969z"/><path d="m248.415 234.501-24.731-11.945c-11.594-5.6-25.501-3.246-34.604 5.858-2.075 2.075-3.817 4.443-5.204 7.008-11.266-2.089-22.821-2.089-34.087 0-1.387-2.565-3.128-4.933-5.203-7.008-9.105-9.105-23.015-11.459-34.605-5.859l-24.731 11.945c-15.744 7.604-25.917 23.814-25.917 41.298v8.872c0 9.414 4.261 18.129 11.689 23.912 5.401 4.204 11.894 6.404 18.544 6.404 1.081 0 2.166-.07 3.251-.187l11.758 36.189c5.089 15.662 19.572 26.184 36.04 26.184h52.436c16.469 0 30.952-10.523 36.04-26.184l11.759-36.189c1.085.117 2.17.187 3.251.187 6.648 0 13.143-2.2 18.543-6.404 7.429-5.782 11.689-14.498 11.689-23.912v-8.872c-.002-17.482-10.175-33.693-25.918-41.297zm-158.882 65.463c-3.334-.015-6.589-1.108-9.298-3.218-3.752-2.92-5.903-7.321-5.903-12.075v-8.872c0-11.766 6.846-22.674 17.44-27.792l24.731-11.945c5.854-2.827 12.878-1.639 17.476 2.96.188.188.367.385.545.583-7.993 2.943-15.684 7.011-22.841 12.211-15.557 11.303-23.672 29.617-22.15 48.148zm77.298 31.904-6.56-8.07h13.119zm60.55-24.16-12.558 38.647c-3.074 9.462-11.824 15.819-21.774 15.819h-18.718v-15.752l13.742-16.907c3.122-3.841 3.74-9.003 1.613-13.473s-6.522-7.246-11.473-7.246h-22.766c-4.949 0-9.346 2.776-11.473 7.246-2.126 4.469-1.508 9.631 1.613 13.472l13.742 16.907v15.752h-18.718c-9.949 0-18.699-6.357-21.774-15.819l-12.557-38.647c-5.255-16.175.458-33.76 14.217-43.756 8.011-5.82 16.82-9.947 25.962-12.402.214-.036.428-.076.642-.131.219-.056.431-.126.641-.2 12.532-3.14 25.647-3.14 38.179.001.208.073.418.142.636.198.215.055.429.096.644.132 9.142 2.456 17.95 6.582 25.96 12.402 13.762 9.998 19.475 27.582 14.22 43.757zm31.95-23.037c0 4.754-2.151 9.155-5.903 12.076-2.709 2.109-5.963 3.203-9.297 3.217 1.522-18.53-6.594-36.845-22.151-48.147-7.156-5.2-14.848-9.268-22.84-12.211.178-.198.357-.395.546-.584 4.598-4.598 11.62-5.786 17.475-2.958l24.731 11.945c10.594 5.117 17.439 16.026 17.439 27.792z"/><path d="m137.786 283.147c-4.143 0-7.5 3.358-7.5 7.5v8.308c0 4.142 3.357 7.5 7.5 7.5s7.5-3.358 7.5-7.5v-8.308c0-4.142-3.357-7.5-7.5-7.5z"/><path d="m195.877 283.147c-4.143 0-7.5 3.358-7.5 7.5v8.308c0 4.142 3.357 7.5 7.5 7.5s7.5-3.358 7.5-7.5v-8.308c0-4.142-3.357-7.5-7.5-7.5z"/><path d="m293.395 203c0-15.164-12.337-27.5-27.5-27.5s-27.5 12.336-27.5 27.5 12.337 27.5 27.5 27.5 27.5-12.336 27.5-27.5zm-40 0c0-6.893 5.607-12.5 12.5-12.5s12.5 5.607 12.5 12.5-5.607 12.5-12.5 12.5-12.5-5.607-12.5-12.5z"/><path d="m204.331 25.964h-75c-11.028 0-20 8.972-20 20s8.972 20 20 20h75c11.028 0 20-8.972 20-20s-8.972-20-20-20zm0 25h-75c-2.757 0-5-2.243-5-5s2.243-5 5-5h75c2.757 0 5 2.243 5 5s-2.243 5-5 5z"/><path d="m353.307 456.817h-84.001c-4.143 0-7.5 3.358-7.5 7.5s3.357 7.5 7.5 7.5h84.001c4.143 0 7.5-3.358 7.5-7.5s-3.358-7.5-7.5-7.5z"/><path d="m79.395 25.964c-11.028 0-20 8.972-20 20s8.972 20 20 20 20-8.972 20-20-8.972-20-20-20zm0 25c-2.757 0-5-2.243-5-5s2.243-5 5-5 5 2.243 5 5-2.244 5-5 5z"/><path d="m254.395 65.964c11.028 0 20-8.972 20-20s-8.972-20-20-20-20 8.972-20 20 8.971 20 20 20zm0-25c2.757 0 5 2.243 5 5s-2.243 5-5 5-5-2.243-5-5 2.243-5 5-5z"/></g></g></svg>