<svg id="Capa_1" enable-background="new 0 0 512 512" height="512" viewBox="0 0 512 512" width="512" xmlns="http://www.w3.org/2000/svg"><g><g><path d="m66.585 350.075h379.96v38.275h-379.96z" fill="#e2dee2"/></g><g><path d="m66.585 388.35h379.96v-38.275h-35.059v16.2c0 2.761-2.239 5-5 5h-339.901z" fill="#cbc4cc"/></g><g><path d="m22.184 350.075v67.162c0 2.761 2.239 5 5 5h35.401c2.761 0 5-2.239 5-5v-67.162z" fill="#fae2c0"/></g><g><path d="m45.401 350.075v67.162c0 2.761-2.239 5-5 5h22.184c2.761 0 5-2.239 5-5v-67.162z" fill="#fed2a4"/></g><g><path d="m445.545 350.075v67.162c0 2.761 2.239 5 5 5h35.401c2.761 0 5-2.239 5-5v-67.162z" fill="#fae2c0"/></g><g><path d="m470 350.075v67.162c0 2.761-2.239 5-5 5h20.945c2.761 0 5-2.239 5-5v-67.162z" fill="#fed2a4"/></g><g><g><path d="m199.806 244.454c.657-2.094 1.012-4.321 1.012-6.631 0-12.221-9.907-22.128-22.128-22.128-5.449 0-10.435 1.973-14.291 5.24-3.856-3.266-8.842-5.24-14.291-5.24s-10.435 1.973-14.291 5.24c-3.856-3.266-8.842-5.24-14.291-5.24s-10.435 1.973-14.291 5.24c-3.856-3.266-8.842-5.24-14.291-5.24-12.221 0-22.128 9.907-22.128 22.128 0 2.31.355 4.537 1.012 6.631z" fill="#d88a55"/></g><g><g><path d="m178.69 215.695c-5.449 0-10.435 1.973-14.291 5.24-3.856-3.266-8.842-5.24-14.291-5.24-2.297 0-4.503.369-6.585 1.019 8.97 2.824 15.477 11.206 15.477 21.109 0 2.31-.355 4.537-1.012 6.631h41.818c.657-2.094 1.012-4.321 1.012-6.631 0-12.221-9.907-22.128-22.128-22.128z" fill="#c57a44"/></g></g><g><path d="m233.269 306.893-18.181-58.914c-.647-2.096-2.584-3.526-4.778-3.526h-149.593c-2.207 0-4.152 1.446-4.788 3.559l-17.716 58.88h195.056z" fill="#e2dee2"/></g><g><path d="m215.088 247.979c-.647-2.096-2.584-3.526-4.778-3.526h-38.213c2.193 0 4.131 1.43 4.778 3.526l18.181 58.914h38.213z" fill="#cbc4cc"/></g><g><path d="m473.787 306.893-17.716-58.88c-.636-2.113-2.582-3.559-4.788-3.559h-149.593c-2.193 0-4.131 1.43-4.778 3.526l-18.181 58.914h195.056z" fill="#e2dee2"/></g><g><path d="m455.607 247.979c-.647-2.096-2.584-3.526-4.778-3.526h-38.213c2.193 0 4.131 1.43 4.778 3.526l18.181 58.914h38.213z" fill="#cbc4cc"/></g><g><g><g><path d="m342.259 162.497-15.358 26.601c-6.826 11.823 1.706 26.601 15.358 26.601 13.652 0 22.184-14.778 15.358-26.601z" fill="#60b7ff"/></g><g><path d="m357.618 189.099-15.358-26.601-8.51 14.74 6.848 11.861c5.249 9.092 1.411 19.924-6.848 24.446 2.481 1.359 5.356 2.155 8.51 2.155 13.651 0 22.184-14.779 15.358-26.601z" fill="#26a6fe"/></g><g><path d="m410.259 162.497-15.358 26.601c-6.826 11.823 1.706 26.601 15.358 26.601 13.652 0 22.184-14.778 15.358-26.601z" fill="#60b7ff"/></g><g><path d="m425.618 189.099-15.358-26.601-8.51 14.74 6.848 11.861c5.249 9.092 1.411 19.924-6.848 24.446 2.481 1.359 5.356 2.155 8.51 2.155 13.651 0 22.184-14.779 15.358-26.601z" fill="#26a6fe"/></g></g><g><path d="m376.259 89.763-15.358 26.601c-6.826 11.823 1.706 26.601 15.358 26.601 13.652 0 22.184-14.778 15.358-26.601z" fill="#60b7ff"/></g><g><path d="m391.618 116.365-15.358-26.602-8.51 14.74 6.848 11.861c5.249 9.092 1.411 19.924-6.848 24.446 2.481 1.359 5.356 2.155 8.51 2.155 13.651.001 22.184-14.778 15.358-26.6z" fill="#26a6fe"/></g></g></g><g><path d="m494.5 351.075h-477c-5.523 0-10-4.477-10-10v-25.182c0-5.523 4.477-10 10-10h477c5.523 0 10 4.477 10 10v25.182c0 5.523-4.477 10-10 10z" fill="#fe646f"/></g><g><path d="m494.5 305.893h-40.5v14.288c0 5.523-4.477 10-10 10h-436.5v10.893c0 5.523 4.477 10 10 10h477c5.523 0 10-4.477 10-10v-25.182c0-5.521-4.477-9.999-10-9.999z" fill="#fd4755"/></g><g><path d="m342.26 223.2c9.122 0 17.291-4.716 21.853-12.617s4.562-17.333.001-25.234l-15.358-26.601c-1.34-2.32-3.815-3.75-6.495-3.75s-5.155 1.43-6.495 3.75l-15.358 26.601c-4.562 7.9-4.562 17.333 0 25.234 4.559 7.9 12.729 12.617 21.852 12.617zm-8.864-30.351 8.863-15.351 8.863 15.351c1.85 3.205 1.85 7.03-.001 10.235-1.85 3.204-5.163 5.117-8.862 5.117-3.7 0-7.014-1.913-8.863-5.117s-1.849-7.031 0-10.235z"/><path d="m388.406 210.583c4.561 7.9 12.73 12.617 21.854 12.617 9.122 0 17.291-4.716 21.853-12.617s4.562-17.333.001-25.234l-15.358-26.601c-1.34-2.32-3.815-3.75-6.495-3.75s-5.155 1.43-6.495 3.75l-15.358 26.601c-4.563 7.9-4.563 17.333-.002 25.234zm12.99-17.734 8.863-15.351 8.863 15.351c1.85 3.205 1.85 7.03-.001 10.235-1.85 3.204-5.163 5.117-8.862 5.117-3.7 0-7.014-1.913-8.863-5.117s-1.849-7.031 0-10.235z"/><path d="m376.26 150.466c9.122 0 17.291-4.716 21.853-12.617s4.562-17.333.001-25.234l-15.358-26.602c-1.34-2.32-3.815-3.75-6.495-3.75s-5.155 1.43-6.495 3.75l-15.358 26.602c-4.562 7.9-4.562 17.333 0 25.234 4.559 7.9 12.729 12.617 21.852 12.617zm-8.864-30.351 8.863-15.352 8.863 15.351c1.85 3.205 1.85 7.03-.001 10.235-1.85 3.204-5.163 5.117-8.862 5.117-3.7 0-7.014-1.913-8.863-5.117s-1.849-7.03 0-10.234z"/><path d="m168.317 268.3h-65c-4.143 0-7.5 3.358-7.5 7.5s3.357 7.5 7.5 7.5h65c4.143 0 7.5-3.358 7.5-7.5s-3.357-7.5-7.5-7.5z"/><path d="m336.183 275.8c0 4.142 3.357 7.5 7.5 7.5h65c4.143 0 7.5-3.358 7.5-7.5s-3.357-7.5-7.5-7.5h-65c-4.143 0-7.5 3.358-7.5 7.5z"/><path d="m494.5 298.394h-15.438l-15.809-52.541c-1.601-5.323-6.411-8.899-11.97-8.899h-40.283c-4.143 0-7.5 3.358-7.5 7.5s3.357 7.5 7.5 7.5h38.425l13.973 46.44h-174.195l14.332-46.44h72.465c4.143 0 7.5-3.358 7.5-7.5s-3.357-7.5-7.5-7.5h-74.311c-5.518 0-10.318 3.542-11.944 8.814l-16.24 52.625h-35.01l-16.24-52.625c-1.626-5.273-6.427-8.815-11.944-8.815h-2.014c-.463-15.935-13.561-28.759-29.606-28.759-5.023 0-9.94 1.283-14.291 3.679-4.352-2.396-9.269-3.679-14.291-3.679-5.023 0-9.94 1.283-14.291 3.679-4.352-2.396-9.269-3.679-14.291-3.679-5.023 0-9.94 1.283-14.291 3.679-4.352-2.396-9.269-3.679-14.291-3.679-16.045 0-29.143 12.823-29.606 28.759h-2.622c-5.559 0-10.369 3.576-11.97 8.898l-15.809 52.542h-15.438c-9.649 0-17.5 7.851-17.5 17.5v25.182c0 8.689 6.372 15.898 14.684 17.252v11.719c0 4.142 3.357 7.5 7.5 7.5s7.5-3.358 7.5-7.5v-11.471h30.401v56.162h-30.401v-9.691c0-4.142-3.357-7.5-7.5-7.5s-7.5 3.358-7.5 7.5v12.191c0 6.893 5.607 12.5 12.5 12.5h35.401c6.893 0 12.5-5.607 12.5-12.5v-21.386h362.96v21.386c0 6.893 5.607 12.5 12.5 12.5h35.4c6.893 0 12.5-5.607 12.5-12.5v-59.127c7.753-1.796 13.555-8.744 13.555-17.035v-25.182c0-9.649-7.851-17.499-17.5-17.499zm-431.925-46.44h35.425c4.143 0 7.5-3.358 7.5-7.5s-3.357-7.5-7.5-7.5h-19.64c.454-7.661 6.812-13.759 14.584-13.759 3.454 0 6.808 1.229 9.443 3.462 2.797 2.37 6.897 2.37 9.696 0 2.635-2.232 5.988-3.462 9.442-3.462s6.808 1.229 9.443 3.462c2.797 2.37 6.897 2.37 9.696 0 2.635-2.232 5.988-3.462 9.442-3.462s6.808 1.229 9.443 3.462c2.797 2.37 6.897 2.37 9.696 0 2.635-2.232 5.988-3.462 9.442-3.462 7.772 0 14.13 6.098 14.584 13.759h-60.271c-4.143 0-7.5 3.358-7.5 7.5s3.357 7.5 7.5 7.5h75.465l14.332 46.44h-174.194zm-47.575 63.94c0-1.378 1.121-2.5 2.5-2.5h477c1.379 0 2.5 1.122 2.5 2.5v25.182c0 1.378-1.121 2.5-2.5 2.5h-477c-1.379 0-2.5-1.122-2.5-2.5zm60.085 64.957v-22.275h362.96v22.275zm377.96 33.886v-56.162h30.4v56.162z"/></g></g></svg>