<svg id="Capa_1" enable-background="new 0 0 512 512" height="512" viewBox="0 0 512 512" width="512" xmlns="http://www.w3.org/2000/svg"><g><g><path d="m159.373 111.207v-78.46c0-6.618-5.365-11.983-11.983-11.983h-51.526c-6.618 0-11.983 5.365-11.983 11.983v78.46z" fill="#918291"/></g><g><path d="m147.39 20.764h-32.146c6.618 0 11.983 5.365 11.983 11.983v78.46h32.146v-78.46c0-6.618-5.365-11.983-11.983-11.983z" fill="#7a6d79"/></g><g><path d="m121.627 86.981c-4.142 0-7.5-3.357-7.5-7.5v-19.172c0-4.143 3.358-7.5 7.5-7.5s7.5 3.357 7.5 7.5v19.172c0 4.142-3.358 7.5-7.5 7.5z" fill="#685e68"/></g><g><path d="m147.39 20.764h-51.526c-6.618 0-11.983 5.365-11.983 11.983v27.561h75.493v-27.561c-.001-6.618-5.366-11.983-11.984-11.983z" fill="#7a6d79"/></g><g><path d="m159.373 60.308v-27.561c0-6.617-5.364-11.982-11.982-11.983h-32.146c6.617.001 11.982 5.365 11.982 11.983v27.561z" fill="#685e68"/></g><g fill="#bb5d4c"><path d="m243.254 201.05v-15.951c0-41.378-33.543-74.921-74.921-74.921h-93.412c-41.378-.001-74.921 33.543-74.921 74.92v15.951h243.254z"/><path d="m0 435.114v38.147c0 9.927 8.047 17.974 17.974 17.974h207.306c9.927 0 17.974-8.047 17.974-17.974v-38.147z"/></g><g fill="#a44f3e"><path d="m189.301 185.099v15.951h53.953v-15.951c0-41.378-33.543-74.921-74.921-74.921h-53.953c41.378 0 74.921 33.543 74.921 74.921z"/><path d="m189.301 435.114v38.147c0 9.927-8.048 17.974-17.975 17.974h53.953c9.927 0 17.974-8.048 17.974-17.974v-38.147z"/></g><path d="m242.224 257.929c-3.952.791-7.977 1.192-11.979 1.192-15.943 0-31.008-6.127-42.422-17.253-11.144-10.863-17.622-25.324-18.309-40.818l-1.036-1h-168.478v179.505l1.07.835c3.262-.529 6.536-.798 9.747-.798 31.474 0 57.873 24.301 60.566 55.522l1.08 1h170.791v-177.376z" fill="#f2fbff"/><g><path d="m189.301 200.05h53.953v236.064h-53.953z" fill="#dff6fd"/></g><g><g><g><path d="m157.33 329.126c-4.897-2.078-8.589-6.175-10.58-11.108-4.012-9.939-13.746-16.953-25.123-16.953s-21.111 7.014-25.123 16.953c-1.991 4.933-5.683 9.03-10.58 11.108-10.085 4.28-17.041 14.494-16.479 26.265.66 13.827 11.921 25.08 25.749 25.73 5.671.267 10.979-1.212 15.436-3.944 6.792-4.164 15.202-4.164 21.994 0 4.457 2.732 9.765 4.211 15.436 3.944 13.827-.65 25.089-11.903 25.749-25.73.562-11.771-6.394-21.985-16.479-26.265z" fill="#f6a96c"/></g><g><path d="m157.33 329.126c-4.897-2.078-8.589-6.176-10.58-11.108-4.012-9.939-13.746-16.953-25.123-16.953-8.737 0-16.494 4.146-21.446 10.567 11.348.027 21.054 7.03 25.058 16.95 1.991 4.933 5.683 9.03 10.58 11.108 10.085 4.28 17.041 14.494 16.479 26.265-.271 5.68-2.334 10.923-5.626 15.178.461.001.921.009 1.387-.013 13.827-.65 25.089-11.903 25.749-25.73.563-11.77-6.393-21.984-16.478-26.264z" fill="#ea9b58"/></g><g><g><g><ellipse cx="61.555" cy="291.804" fill="#f6a96c" rx="14.734" ry="18.536"/></g><g><ellipse cx="181.699" cy="291.804" fill="#f6a96c" rx="14.734" ry="18.536"/></g><g><path d="m181.699 273.268c-2.745 0-5.306.962-7.507 2.607 4.322 3.231 7.227 9.146 7.227 15.929s-2.905 12.698-7.227 15.929c2.201 1.645 4.761 2.607 7.507 2.607 8.137 0 14.734-8.299 14.734-18.536 0-10.238-6.597-18.536-14.734-18.536z" fill="#ea9b58"/></g></g><g><g><ellipse cx="98.865" cy="261.724" fill="#f6a96c" rx="14.734" ry="18.536"/></g><g><ellipse cx="144.389" cy="261.724" fill="#f6a96c" rx="14.734" ry="18.536"/></g><g><path d="m144.389 243.188c-2.745 0-5.306.962-7.507 2.607 4.322 3.231 7.227 9.146 7.227 15.929s-2.905 12.698-7.227 15.929c2.201 1.645 4.761 2.607 7.507 2.607 8.137 0 14.734-8.299 14.734-18.536s-6.596-18.536-14.734-18.536z" fill="#ea9b58"/></g><g><path d="m98.865 243.188c-2.745 0-5.306.962-7.507 2.607 4.322 3.231 7.227 9.146 7.227 15.929s-2.905 12.698-7.227 15.929c2.201 1.645 4.761 2.607 7.507 2.607 8.137 0 14.734-8.299 14.734-18.536s-6.597-18.536-14.734-18.536z" fill="#ea9b58"/></g><g><path d="m61.555 273.268c-2.745 0-5.306.962-7.507 2.607 4.322 3.231 7.227 9.146 7.227 15.929s-2.905 12.698-7.227 15.929c2.201 1.645 4.761 2.607 7.507 2.607 8.137 0 14.734-8.299 14.734-18.536 0-10.238-6.597-18.536-14.734-18.536z" fill="#ea9b58"/></g></g></g></g></g><g><path d="m428.119 111.207v-78.46c0-6.618-5.365-11.983-11.983-11.983h-51.526c-6.618 0-11.983 5.365-11.983 11.983v78.46z" fill="#918291"/></g><g><path d="m416.136 20.764h-32.015c6.618 0 11.983 5.365 11.983 11.983v78.46h32.015v-78.46c0-6.618-5.365-11.983-11.983-11.983z" fill="#7a6d79"/></g><g><path d="m390.373 86.981c-4.143 0-7.5-3.357-7.5-7.5v-19.172c0-4.143 3.357-7.5 7.5-7.5s7.5 3.357 7.5 7.5v19.172c0 4.142-3.357 7.5-7.5 7.5z" fill="#685e68"/></g><g><path d="m416.136 20.764h-51.526c-6.618 0-11.983 5.365-11.983 11.983v27.561h75.493v-27.561c-.001-6.618-5.366-11.983-11.984-11.983z" fill="#7a6d79"/></g><g><path d="m428.119 60.308v-27.561c0-6.617-5.364-11.982-11.982-11.983h-32.146c6.617.001 11.982 5.365 11.982 11.983v27.561z" fill="#685e68"/></g><g fill="#bb5d4c"><path d="m512 201.05v-15.951c0-41.378-33.543-74.921-74.921-74.921h-93.412c-41.378 0-74.921 33.543-74.921 74.921v15.951z"/><path d="m268.746 435.114v38.147c0 9.927 8.047 17.974 17.974 17.974h207.305c9.927 0 17.974-8.047 17.974-17.974v-38.147z"/></g><g fill="#a44f3e"><path d="m458.047 185.099v15.951h53.953v-15.951c0-41.378-33.543-74.921-74.921-74.921h-53.953c41.378 0 74.921 33.543 74.921 74.921z"/><path d="m458.047 435.114v38.147c0 9.927-8.048 17.974-17.975 17.974h53.953c9.927 0 17.974-8.048 17.974-17.974v-38.147z"/></g><g><path d="m268.746 200.05h243.254v236.064h-243.254z" fill="#f2fbff"/></g><g><path d="m458.047 200.05h53.953v236.064h-53.953z" fill="#dff6fd"/></g><g><g><g><path d="m460.609 265.324-20.55-9.925c-7.258-3.505-15.938-2.035-21.637 3.663-3.051 3.051-4.906 6.986-5.407 11.123 6.7 2.266 13.064 5.54 18.913 9.79 12.003 8.721 17.653 23.432 14.86 37.706l8.236 2.085c11.972 3.031 23.596-6.018 23.596-18.367v-7.372c.001-12.23-6.997-23.383-18.011-28.703z" fill="#f6a96c"/></g><g><path d="m348.818 279.976c5.849-4.25 12.213-7.524 18.913-9.79-.501-4.137-2.356-8.072-5.407-11.123-5.699-5.699-14.38-7.169-21.637-3.663l-20.55 9.925c-11.014 5.32-18.013 16.472-18.013 28.704v7.372c0 12.349 11.625 21.398 23.596 18.367l8.236-2.085c-2.791-14.275 2.859-28.986 14.862-37.707z" fill="#ea9b58"/></g></g><g><path d="m348.212 279.143c-13.582 9.868-19.265 27.359-14.077 43.325l10.434 32.112c3.381 10.406 13.078 17.451 24.019 17.451h43.57c10.941 0 20.638-7.045 24.019-17.451l10.434-32.112c5.188-15.966-.495-33.457-14.077-43.325-25.14-18.266-59.182-18.266-84.322 0z" fill="#f6a96c"/></g><g><path d="m432.534 279.143c-17.123-12.44-38.374-16.399-58.13-11.893 9.25 2.11 18.175 6.068 26.192 11.893 13.582 9.868 19.265 27.358 14.077 43.325l-10.434 32.112c-1.292 3.977-3.512 7.457-6.366 10.247v7.204h14.285c10.941 0 20.638-7.045 24.019-17.451l10.434-32.112c5.188-15.967-.496-33.458-14.077-43.325z" fill="#ea9b58"/></g><path d="m395.417 350.923c-1.24 1.525-3.079 2.4-5.044 2.4s-3.804-.875-5.045-2.4l-2.455-3.021v24.128h15v-24.129z" fill="#7a6d79"/><g><g><path d="m366.238 320.769c-4.143 0-7.5-3.357-7.5-7.5v-6.903c0-4.143 3.357-7.5 7.5-7.5s7.5 3.357 7.5 7.5v6.903c0 4.142-3.357 7.5-7.5 7.5z" fill="#685e68"/></g><g><path d="m414.508 320.769c-4.143 0-7.5-3.357-7.5-7.5v-6.903c0-4.143 3.357-7.5 7.5-7.5s7.5 3.357 7.5 7.5v6.903c0 4.142-3.358 7.5-7.5 7.5z" fill="#685e68"/></g></g></g><g><circle cx="390.373" cy="200.81" fill="#ffe177" r="37.147"/></g><g><path d="m390.373 163.663c-5.793 0-11.276 1.327-16.162 3.692 12.419 6.011 20.985 18.732 20.985 33.455s-8.566 27.444-20.985 33.455c4.887 2.365 10.369 3.693 16.162 3.693 20.516 0 37.147-16.632 37.147-37.147s-16.631-37.148-37.147-37.148z" fill="#ffd15b"/></g><g><path d="m325.555 406.792h-24.724c-1.707 0-3.091-1.384-3.091-3.091v-24.724c0-1.707 1.384-3.091 3.091-3.091h24.724c1.707 0 3.091 1.384 3.091 3.091v24.724c0 1.708-1.384 3.091-3.091 3.091z" fill="#60b7ff"/></g><g><path d="m325.555 375.887h-14.955c1.707 0 3.091 1.384 3.091 3.091v24.724c0 1.707-1.384 3.091-3.091 3.091h14.955c1.707 0 3.091-1.384 3.091-3.091v-24.724c0-1.707-1.384-3.091-3.091-3.091z" fill="#26a6fe"/></g><g><path d="m486.761 414.292h-33.996c-4.143 0-7.5-3.357-7.5-7.5s3.357-7.5 7.5-7.5h33.996c4.143 0 7.5 3.357 7.5 7.5s-3.358 7.5-7.5 7.5z" fill="#99e6fc"/></g><g><path d="m486.761 391.707h-33.996c-4.143 0-7.5-3.357-7.5-7.5s3.357-7.5 7.5-7.5h33.996c4.143 0 7.5 3.357 7.5 7.5s-3.358 7.5-7.5 7.5z" fill="#99e6fc"/></g><g><path d="m10.817 378.592c-3.692 0-7.303.342-10.817.963v56.56h72.463c-2.204-32.135-28.952-57.523-61.646-57.523z" fill="#60b7ff"/></g><g><path d="m230.245 260.121c4.464 0 8.813-.484 13.009-1.383v-58.688h-74.776c.924 33.33 28.214 60.071 61.767 60.071z" fill="#60b7ff"/></g><path d="m390.373 354.323c-2.258 0-4.396-1.018-5.82-2.77l-8.688-10.689c-2.563-3.153-3.071-7.392-1.325-11.062 1.747-3.67 5.356-5.95 9.421-5.95h12.826c4.064 0 7.674 2.28 9.421 5.95 1.746 3.67 1.238 7.908-1.326 11.062l-8.688 10.688c-1.425 1.754-3.563 2.771-5.821 2.771z" fill="#685e68"/></g></svg>