<svg id="Capa_1" enable-background="new 0 0 512 512" height="512" viewBox="0 0 512 512" width="512" xmlns="http://www.w3.org/2000/svg"><g><path d="m248.5 235.326h15v33.131h-15z" fill="#ffe177"/><g><path d="m281.916 303.727v-25.968c0-5.689-4.612-10.302-10.302-10.302h-31.229c-5.69 0-10.302 4.612-10.302 10.302v25.968z" fill="#ffd15b"/></g><g><path d="m271.614 267.457h-21.472c5.689 0 10.302 4.612 10.302 10.302v25.968h21.472v-25.968c0-5.69-4.612-10.302-10.302-10.302z" fill="#ffc344"/></g><g><path d="m368.91 337.304c9.71-7.002 16.038-18.403 16.038-31.289 0-21.295-17.263-38.558-38.558-38.558-20.176 0-36.722 15.499-38.406 35.24h-103.968c-1.684-19.74-18.23-35.24-38.406-35.24-21.295 0-38.558 17.263-38.558 38.558 0 12.886 6.327 24.287 16.038 31.289-9.711 7.002-16.038 18.403-16.038 31.289 0 21.295 17.263 38.558 38.558 38.558 20.176 0 36.722-15.499 38.406-35.24h103.967c1.684 19.74 18.23 35.24 38.406 35.24 21.295 0 38.558-17.263 38.558-38.558.001-12.886-6.326-24.288-16.037-31.289z" fill="#e2dee2"/></g><g><g><path d="m368.91 337.304c10.31-7.434 16.806-19.827 15.965-33.691-1.183-19.499-17.181-35.23-36.695-36.115-6.392-.29-12.457.982-17.852 3.46 13.28 6.09 22.51 19.492 22.51 35.058 0 10.8-4.445 20.557-11.601 27.555-2.109 2.062-2.109 5.405 0 7.467 7.156 6.998 11.601 16.755 11.601 27.555 0 15.566-9.229 28.968-22.51 35.058 5.395 2.477 11.459 3.749 17.85 3.46 19.515-.884 35.513-16.614 36.697-36.113.842-13.866-5.654-26.26-15.965-33.694z" fill="#cbc4cc"/></g></g><g><g><path d="m496.547 132.029h-37.409v77.116h37.409c8.534 0 15.453-6.918 15.453-15.453v-46.211c0-8.533-6.918-15.452-15.453-15.452z" fill="#d88a55"/></g><g><path d="m52.862 132.029h-37.409c-8.535 0-15.453 6.919-15.453 15.453v46.211c0 8.534 6.918 15.453 15.453 15.453h37.409z" fill="#d88a55"/></g><g><path d="m89.992 132.029h92.451v77.116h-92.451z" fill="#d88a55"/></g><g><path d="m211.987 135.424h88.026v70.327h-88.026z" fill="#d88a55"/></g><g><path d="m329.557 132.029h92.451v77.116h-92.451z" fill="#d88a55"/></g><g><g><path d="m89.992 187.86h92.451v21.285h-92.451z" fill="#c57a44"/></g></g><g><g><path d="m329.557 187.86h92.451v21.285h-92.451z" fill="#c57a44"/></g></g><g><g><path d="m0 187.86v5.832c0 8.534 6.918 15.453 15.453 15.453h37.409v-21.285z" fill="#c57a44"/></g></g><g><path d="m496.547 132.029h-5.666v40.378c0 8.534-6.918 15.453-15.453 15.453h-16.291v21.285h37.409c8.534 0 15.453-6.918 15.453-15.453v-46.211c.001-8.533-6.917-15.452-15.452-15.452z" fill="#c57a44"/></g></g><g><g><path d="m314.785 236.326h-117.57c-8.727 0-15.802-7.075-15.802-15.802v-99.872c0-8.727 7.075-15.802 15.802-15.802h117.57c8.727 0 15.802 7.075 15.802 15.802v99.872c.001 8.726-7.075 15.802-15.802 15.802zm-101.768-31.605h85.965v-68.267h-85.965z" fill="#ffd15b"/></g></g><g><g><path d="m314.785 104.849h-42.853c8.727 0 15.802 7.075 15.802 15.802v15.802h11.248v68.267h-11.248v15.803c0 8.727-7.075 15.802-15.802 15.802h42.853c8.727 0 15.802-7.075 15.802-15.802v-99.872c.001-8.727-7.075-15.802-15.802-15.802z" fill="#ffc344"/></g></g><g><g><path d="m449.866 220.523h-18.586c-5.69 0-10.302-4.612-10.302-10.302v-79.268c0-5.69 4.612-10.302 10.302-10.302h18.586c5.69 0 10.302 4.612 10.302 10.302v79.268c0 5.69-4.612 10.302-10.302 10.302z" fill="#ffd15b"/></g><g><path d="m449.866 188.008h-18.586c-5.69 0-10.302-4.612-10.302-10.302v32.515c0 5.69 4.612 10.302 10.302 10.302h18.586c5.69 0 10.302-4.612 10.302-10.302v-32.515c0 5.69-4.612 10.302-10.302 10.302z" fill="#ffc344"/></g><g><path d="m80.72 220.523h-18.586c-5.69 0-10.302-4.612-10.302-10.302v-79.268c0-5.69 4.612-10.302 10.302-10.302h18.586c5.69 0 10.302 4.612 10.302 10.302v79.268c0 5.69-4.612 10.302-10.302 10.302z" fill="#ffd15b"/></g><g><path d="m80.72 188.008h-18.586c-5.69 0-10.302-4.612-10.302-10.302v32.515c0 5.69 4.612 10.302 10.302 10.302h18.586c5.69 0 10.302-4.612 10.302-10.302v-32.515c0 5.69-4.612 10.302-10.302 10.302z" fill="#ffc344"/></g></g><g><path d="m236.427 178.087h-29.875c-4.142 0-7.5-3.358-7.5-7.5s3.358-7.5 7.5-7.5h29.875c4.142 0 7.5 3.358 7.5 7.5s-3.358 7.5-7.5 7.5z" fill="#fff0ad"/></g><g><path d="m309.569 344.804h-107.138c-4.142 0-7.5-3.358-7.5-7.5s3.358-7.5 7.5-7.5h107.139c4.143 0 7.5 3.358 7.5 7.5s-3.358 7.5-7.501 7.5z" fill="#a79ba7"/></g><g fill="#a44f3e"><circle cx="143.72" cy="170.59" r="7.5"/><circle cx="368.28" cy="170.59" r="7.5"/></g></g></svg>