<svg id="Capa_1" enable-background="new 0 0 512 512" height="512" viewBox="0 0 512 512" width="512" xmlns="http://www.w3.org/2000/svg"><g><g><path d="m466.298 292.968h-45.867c-1.896 8.171-4.768 16.098-8.615 23.716l-.439.87.859.461c7.843 4.211 13.745 10.975 16.942 18.943h69.534c3.197 0 5.788-2.592 5.788-5.788 0-21.099-17.104-38.202-38.202-38.202z" fill="#ea9b58"/></g><g><path d="m466.298 292.968h-31.377c21.098 0 38.202 17.104 38.202 38.202 0 3.197-2.591 5.788-5.788 5.788h31.377c3.197 0 5.788-2.592 5.788-5.788 0-21.099-17.104-38.202-38.202-38.202z" fill="#d88a55"/></g><g><g><path d="m126.659 245.248c17.521 0 33.757 10.198 41.364 25.981l13.347 27.693h120.501c16.505 0 32.424 5.016 46.035 14.506l.258.18h46.502c6.357 0 12.345 1.605 17.584 4.428 7.616-14.738 11.921-31.464 11.921-49.198v-67.878c-5.177 14.52-18.841 24.206-34.337 24.206h-64.636c-15.848 0-29.785-10.127-34.682-25.198l-6.947-21.38h-97.535c-44.878 0-83.316 27.552-99.338 66.661h39.963z" fill="#ea9b58"/></g></g><g><g><path d="m394.666 312.609c6.526 0 12.669 1.64 18.043 4.525 7.329-14.517 11.462-30.923 11.462-48.295v-67.878c-5.177 14.52-18.841 24.206-34.337 24.206h-2.799v43.672c0 15.591-3.328 30.403-9.307 43.77z" fill="#d88a55"/></g></g><g><path d="m394.666 312.609h-47.839c15.401 10.341 27.056 25.834 32.502 43.99h47.751c3.197 0 5.788-2.592 5.788-5.788 0-21.099-17.103-38.202-38.202-38.202z" fill="#d88a55"/></g><g><path d="m394.666 312.609h-31.827c21.098 0 38.202 17.104 38.202 38.202 0 3.197-2.591 5.788-5.788 5.788h31.827c3.197 0 5.788-2.592 5.788-5.788 0-21.099-17.103-38.202-38.202-38.202z" fill="#c57a44"/></g><g><g><path d="m301.871 297.923h-120.983l3.314 6.876c7.29 15.126 5.748 33.004-4.024 46.658l-15.081 21.072c-8.602 12.019-22.56 19.194-37.339 19.194h-42.378c-1.13 0-2.252-.056-3.37-.139v33.811h-30.499c-17.388 0-31.483 14.095-31.483 31.483 0 2.635 2.136 4.77 4.77 4.77h277.073c45.025 0 81.863-36.838 81.863-81.863 0-45.023-36.838-81.862-81.863-81.862z" fill="#fae2c0"/></g><g><path d="m301.871 297.923h-70.565c-.953 3.407-1.371 7.038-1.137 10.8 1.001 16.059 14.036 29.144 30.091 30.203 7.914.522 15.266-1.806 21.135-6.057 4.045-2.93 9.791-1.552 12.13 2.86 6.863 12.948 20.855 21.534 36.751 20.518 16.629-1.064 30.46-12.869 34.766-28.377-15.045-18.256-37.808-29.947-63.171-29.947z" fill="#bb5d4c"/></g><g><g><g><path d="m45.115 271.23c7.224-14.989 22.23-24.933 38.727-25.898-5.636-6.521-11.799-12.433-18.241-17.492-12.423-9.616-25.904-15.982-34.394-10.719-8.803 4.721-10.03 19.579-7.915 35.146 1.867 13.054 6.005 26.588 12.074 39.192z" fill="#fdb4ba"/></g><g><path d="m61.695 252.57c6.563-4.213 14.18-6.773 22.147-7.239-5.636-6.521-11.799-12.433-18.241-17.492-12.423-9.616-25.904-15.982-34.394-10.719-4.294 2.303-6.782 7.022-7.962 13.055 7.993-.082 18.004 5.33 27.41 12.611 3.794 2.981 7.489 6.262 11.04 9.784z" fill="#fe99a0"/></g><g><path d="m181.932 217.121c-8.49-5.263-21.971 1.103-34.394 10.719-6.443 5.058-12.605 10.971-18.241 17.492 16.497.965 31.503 10.91 38.727 25.898l9.75 20.229c6.069-12.605 10.207-26.138 12.074-39.193 2.114-15.566.887-30.424-7.916-35.145z" fill="#fdb4ba"/></g><g><path d="m181.932 217.121c-5.028-3.117-11.805-2.155-19.077 1.144 7.218 5.669 8.145 19.526 6.177 34.001-.713 4.984-1.77 10.038-3.126 15.083.763 1.252 1.473 2.544 2.117 3.88l9.75 20.229c6.069-12.605 10.207-26.138 12.074-39.193 2.115-15.565.888-30.423-7.915-35.144z" fill="#fe99a0"/></g></g><g><path d="m126.659 244.248h-40.181c-18.017 0-34.442 10.317-42.264 26.547l-16.179 33.57c-7.446 15.449-5.869 33.729 4.112 47.675l15.081 21.072c8.809 12.309 23.016 19.612 38.152 19.612h42.377c15.136 0 29.343-7.303 38.152-19.612l15.081-21.072c9.981-13.946 11.558-32.226 4.112-47.675l-16.179-33.57c-7.821-16.23-24.247-26.547-42.264-26.547z" fill="#fae2c0"/></g><g><path d="m185.103 304.365-16.179-33.57c-7.822-16.23-24.248-26.547-42.264-26.547h-33.756c18.017 0 34.442 10.317 42.264 26.547l16.179 33.57c7.446 15.449 5.869 33.729-4.112 47.675l-15.081 21.072c-8.809 12.309-23.016 19.612-38.152 19.612h33.755c15.136 0 29.343-7.303 38.152-19.612l15.081-21.072c9.982-13.946 11.558-32.226 4.113-47.675z" fill="#fed2a4"/></g></g></g><g><g><g><path d="m454.062 67.866-30.486-14.724c-10.767-5.2-23.645-3.02-32.099 5.435-3.519 3.519-5.957 7.835-7.223 12.464 11.065 3.12 21.541 8.194 31.046 15.099 19.58 14.226 29.131 37.906 25.466 61.224l5.013 1.269c17.76 4.496 35.006-8.927 35.006-27.248v-10.937c-.002-18.145-10.384-34.69-26.723-42.582z" fill="#918291"/></g><g><path d="m454.062 67.866-30.486-14.724c-10.767-5.2-23.645-3.02-32.099 5.435-.119.119-.227.247-.344.367 4.929-.429 9.993.433 14.66 2.687l30.486 14.724c16.338 7.893 26.721 24.438 26.721 42.583v10.937c0 7.695-3.05 14.518-7.894 19.52 14.017-1.204 25.678-12.947 25.678-28.01v-10.937c-.001-18.145-10.383-34.69-26.722-42.582z" fill="#7a6d79"/></g><g><path d="m299.733 86.14c9.504-6.905 19.981-11.979 31.046-15.099-1.266-4.629-3.704-8.945-7.223-12.464-8.455-8.455-21.333-10.635-32.1-5.435l-30.486 14.724c-16.339 7.892-26.722 24.437-26.722 42.583v10.937c0 18.32 17.245 31.744 35.006 27.248l5.013-1.269c-3.664-23.318 5.887-46.999 25.466-61.225z" fill="#918291"/></g><g><path d="m323.556 58.577c-4.783-4.783-10.983-7.554-17.415-8.121 1.575 1.637 2.925 3.435 4.04 5.35 1.881 3.231.408 7.363-3.118 8.606-8.882 3.132-17.322 7.56-25.109 13.218-18.217 13.236-27.753 34.657-26.04 56.354.225 2.85-1.667 5.437-4.438 6.139-3.167.802-6.315 1.024-9.354.76 6.69 6.923 16.821 10.361 27.133 7.75l5.013-1.269c-3.664-23.317 5.887-46.998 25.466-61.224 9.504-6.905 19.981-11.979 31.046-15.099-1.267-4.629-3.705-8.945-7.224-12.464z" fill="#7a6d79"/></g></g><g><path d="m299.146 85.332c-22.639 16.448-32.112 45.603-23.464 72.216l13.884 42.729c5.016 15.437 19.401 25.889 35.633 25.889h64.636c16.232 0 30.617-10.452 35.633-25.889l13.884-42.729c8.647-26.613-.826-55.768-23.464-72.216-34.807-25.288-81.937-25.288-116.742 0z" fill="#d88a55"/></g><g><path d="m415.886 85.332c-21.88-15.897-48.63-21.792-74.128-17.702 15.062 2.416 29.688 8.312 42.612 17.702 22.639 16.448 32.112 45.603 23.464 72.216l-13.884 42.729c-5.016 15.437-19.402 25.889-35.633 25.889h31.516c16.232 0 30.617-10.452 35.633-25.889l13.884-42.729c8.648-26.614-.825-55.768-23.464-72.216z" fill="#c57a44"/></g><g><path d="m357.516 194.221 19.01-23.388c3.408-4.193.424-10.463-4.979-10.463h-28.062c-5.403 0-8.387 6.27-4.979 10.463z" fill="#7a6d79"/></g></g><g><path d="m466.299 285.467h-35.814c.788-5.459 1.186-11.007 1.186-16.629v-63.678c.331-.843.646-1.696.929-2.566l13.884-42.729c.353-1.086.671-2.177.971-3.27 1.769.266 3.54.414 5.303.414 7.813 0 15.444-2.586 21.791-7.525 8.729-6.795 13.735-17.036 13.735-28.099v-10.937c0-20.887-12.152-40.252-30.96-49.336l-30.485-14.725c-13.627-6.578-29.968-3.812-40.665 6.885-2.362 2.362-4.368 5.067-5.981 7.994-14.941-3.258-30.409-3.258-45.35 0-1.612-2.926-3.619-5.631-5.982-7.994-10.698-10.697-27.039-13.464-40.664-6.885l-30.486 14.725c-18.808 9.084-30.96 28.449-30.96 49.336v10.937c0 11.062 5.006 21.304 13.736 28.099 6.347 4.94 13.977 7.525 21.791 7.525 1.763 0 3.534-.148 5.303-.414.3 1.093.618 2.183.971 3.27l3.647 11.224h-24.199c-4.142 0-7.5 3.357-7.5 7.5s3.358 7.5 7.5 7.5h29.069l5.363 16.506c6.038 18.585 23.225 31.072 42.766 31.072h64.636c9.943 0 19.272-3.238 26.837-8.862v44.034c0 13.433-2.607 26.371-7.739 38.563-4.492-1.48-9.285-2.292-14.266-2.292h-43.772c-14.084-9.277-30.933-14.686-49.022-14.686h-115.163l-.117-.243c5.233-11.901 8.922-24.565 10.686-36.904 3-22.075-1.009-36.815-11.596-42.652-10.353-6.25-25.121-2.351-42.776 11.316-5.581 4.38-10.947 9.354-15.994 14.812-.085 0-.169-.005-.254-.005h-27.502c17.572-31.104 50.53-50.66 86.879-50.66h26.965c4.142 0 7.5-3.357 7.5-7.5s-3.358-7.5-7.5-7.5h-26.965c-43.593 0-82.95 24.449-102.423 62.918-4.277-4.388-8.764-8.441-13.421-12.096-17.617-13.635-32.386-17.536-42.735-11.285-10.587 5.837-14.596 20.577-11.589 42.704 1.757 12.291 5.446 24.951 10.679 36.852l-5.267 10.929c-2.291 4.753-3.838 9.736-4.67 14.794h-9.109c-4.142 0-7.5 3.357-7.5 7.5s3.358 7.5 7.5 7.5h8.734c.446 3.907 1.318 7.767 2.605 11.512h-11.339c-4.142 0-7.5 3.357-7.5 7.5s3.358 7.5 7.5 7.5h19.271l14.358 20.062c8.049 11.246 20.062 18.893 33.381 21.622v18.797h-22.999c-21.496 0-38.983 17.488-38.983 38.983 0 6.766 5.504 12.271 12.27 12.271h30.202c4.142 0 7.5-3.357 7.5-7.5s-3.358-7.5-7.5-7.5h-27.318c1.359-11.944 11.527-21.254 23.829-21.254h114.701c4.142 0 7.5-3.357 7.5-7.5s-3.358-7.5-7.5-7.5h-76.702v-17.672h38.248c17.515 0 34.058-8.504 44.251-22.747l14.358-20.062h18.835c4.142 0 7.5-3.357 7.5-7.5s-3.358-7.5-7.5-7.5h-10.903c1.287-3.745 2.159-7.604 2.605-11.512h8.298c4.142 0 7.5-3.357 7.5-7.5s-3.358-7.5-7.5-7.5h-8.672c-.584-3.548-1.524-7.059-2.823-10.479h28.943c-.04 1.252-.043 2.508.035 3.768 1.241 19.905 17.184 35.907 37.083 37.22 9.286.618 18.534-2.038 26.028-7.466.061-.044.246-.176.571-.101.168.039.396.14.533.398 8.037 15.165 23.865 24.585 40.901 24.585.981 0 1.967-.031 2.954-.095 14.72-.941 27.805-8.887 35.629-20.859 6.253 10.886 9.849 23.483 9.849 36.912 0 41.004-33.358 74.363-74.362 74.363h-42.787v-1.623c0-6.955 5.658-12.614 12.613-12.614h30.174c33.153 0 60.126-26.973 60.126-60.126 0-4.143-3.357-7.5-7.5-7.5s-7.5 3.357-7.5 7.5c0 24.883-20.243 45.126-45.126 45.126h-30.174c-15.226 0-27.614 12.388-27.614 27.614v1.623h-77.872-33.211-43c-4.142 0-7.5 3.357-7.5 7.5s3.358 7.5 7.5 7.5h43 33.212 135.659c49.274 0 89.362-40.088 89.362-89.363 0-5.351-.474-10.593-1.38-15.688h37.227c7.327 0 13.288-5.961 13.288-13.288 0-2.157-.161-4.276-.451-6.354h.083c4.143 0 7.5-3.357 7.5-7.5s-3.357-7.5-7.5-7.5h-4.944c-3.131-5.899-7.514-11.034-12.796-15.048 1.98-4.558 3.639-9.211 4.997-13.943h39.042c16.354 0 29.763 12.854 30.654 28.99h-21.953c-4.143 0-7.5 3.357-7.5 7.5s3.357 7.5 7.5 7.5h23.712c7.327 0 13.288-5.961 13.288-13.288 0-25.199-20.501-45.701-45.701-45.701zm-431.549-61.736c.138-.074.274-.152.408-.235 3.22-1.994 11.925-.505 25.811 10.244 2.466 1.936 4.883 4.017 7.249 6.209-13.252 4.76-24.485 14.569-30.761 27.59l-1.951 4.048c-2.193-6.766-3.825-13.623-4.784-20.33-2.37-17.451.688-25.735 4.028-27.526zm143.298 118.683h-3.401c-4.142 0-7.5 3.357-7.5 7.5 0 2.115.879 4.022 2.287 5.385l-9.624 13.447c-7.384 10.317-19.366 16.478-32.053 16.478h-42.377c-12.687 0-24.669-6.16-32.053-16.478l-9.694-13.544c1.348-1.356 2.182-3.224 2.182-5.288 0-4.143-3.358-7.5-7.5-7.5h-3.227c-1.837-3.656-3.088-7.538-3.717-11.512h6.944c4.142 0 7.5-3.357 7.5-7.5s-3.358-7.5-7.5-7.5h-6.415c.65-2.825 1.6-5.605 2.89-8.282l16.179-33.569c6.53-13.548 20.467-22.303 35.508-22.303h40.181c15.041 0 28.979 8.755 35.508 22.303l16.179 33.569c1.29 2.677 2.24 5.457 2.89 8.282h-6.589c-4.142 0-7.5 3.357-7.5 7.5s3.358 7.5 7.5 7.5h7.118c-.628 3.975-1.879 7.856-3.716 11.512zm4.374-91.209c-.963 6.738-2.598 13.608-4.792 20.381l-1.95-4.047c-6.276-13.021-17.51-22.829-30.762-27.591 2.358-2.186 4.763-4.257 7.21-6.178 13.927-10.779 22.632-12.27 25.851-10.275.134.083.27.161.408.235 3.341 1.792 6.399 10.076 4.035 27.475zm147.376 97.559c-12.274.765-23.902-5.71-29.646-16.547-2.141-4.037-5.929-6.947-10.392-7.984-4.441-1.029-9.092-.096-12.765 2.563-4.735 3.429-10.353 5.036-16.241 4.647-12.193-.805-22.339-10.989-23.1-23.186-.059-.949-.045-1.894.002-2.835h64.214c21.608 0 41.086 9.271 54.685 24.036-4.514 10.943-14.837 18.544-26.757 19.306zm66.982-284.884c6.19-6.192 15.648-7.796 23.534-3.984l30.486 14.725c13.658 6.597 22.483 20.66 22.483 35.828v10.937c0 6.402-2.897 12.329-7.949 16.262-4.436 3.454-9.957 4.916-15.437 4.159 1.45-24.135-9.327-47.811-29.603-62.542-7.885-5.729-16.344-10.239-25.129-13.562.503-.639 1.041-1.249 1.615-1.823zm-131.645 77.926c-5.481.757-11.001-.706-15.437-4.159-5.052-3.933-7.949-9.859-7.949-16.262v-10.937c0-15.168 8.825-29.231 22.483-35.828l30.486-14.725c7.883-3.809 17.341-2.208 23.534 3.983.574.574 1.112 1.184 1.614 1.823-8.785 3.323-17.244 7.833-25.13 13.562-20.274 14.733-31.052 38.408-29.601 62.543zm160.186 207.293h-39.517c-3.956-10.786-9.939-20.602-17.479-28.99h26.34c16.356 0 29.765 12.854 30.656 28.99zm-6.987-151.14c-4.024 12.386-15.478 20.707-28.5 20.707h-24.817v-21.781l17.33-21.321c3.419-4.207 4.097-9.861 1.767-14.757-2.329-4.896-7.145-7.937-12.566-7.937h-28.062c-5.421 0-10.236 3.041-12.565 7.936-2.33 4.895-1.653 10.55 1.766 14.758l17.331 21.321v21.781h-24.818c-13.022 0-24.476-8.321-28.5-20.707l-13.884-42.729c-7.667-23.596.668-49.248 20.739-63.831 32.277-23.445 75.649-23.447 107.925 0 20.071 14.583 28.406 40.235 20.739 63.831zm-60.817-15.629-11.754-14.46h23.507z"/><path d="m125.675 342.248-11.43-9.145 7.714-8.197c2.655-2.82 3.378-6.939 1.842-10.495s-5.031-5.854-8.904-5.854h-16.656c-3.873 0-7.368 2.298-8.904 5.854s-.813 7.675 1.841 10.493l7.744 8.229-11.199 9.168c-3.205 2.624-3.676 7.35-1.052 10.555 2.624 3.206 7.349 3.676 10.554 1.053l9.397-7.693 9.681 7.746c1.383 1.106 3.038 1.644 4.681 1.644 2.2 0 4.38-.963 5.861-2.814 2.588-3.236 2.064-7.956-1.17-10.544z"/><path d="m70.151 289.407c-4.142 0-7.5 3.357-7.5 7.5v10.417c0 4.143 3.358 7.5 7.5 7.5s7.5-3.357 7.5-7.5v-10.417c0-4.143-3.358-7.5-7.5-7.5z"/><path d="m142.987 289.407c-4.142 0-7.5 3.357-7.5 7.5v10.417c0 4.143 3.358 7.5 7.5 7.5s7.5-3.357 7.5-7.5v-10.417c0-4.143-3.358-7.5-7.5-7.5z"/><path d="m321.713 121.25c-4.143 0-7.5 3.357-7.5 7.5v10.241c0 4.143 3.357 7.5 7.5 7.5s7.5-3.357 7.5-7.5v-10.241c0-4.142-3.358-7.5-7.5-7.5z"/><path d="m393.32 121.25c-4.143 0-7.5 3.357-7.5 7.5v10.241c0 4.143 3.357 7.5 7.5 7.5s7.5-3.357 7.5-7.5v-10.241c0-4.142-3.357-7.5-7.5-7.5z"/></g></g></svg>