<svg id="Capa_1" enable-background="new 0 0 512 512" height="512" viewBox="0 0 512 512" width="512" xmlns="http://www.w3.org/2000/svg"><g><g><path d="m473.222 293.529h-46.559c-1.925 8.295-4.84 16.341-8.745 24.074l-.446.883.872.468c7.962 4.275 13.952 11.141 17.197 19.228h70.583c3.245 0 5.875-2.631 5.875-5.875.001-21.416-17.361-38.778-38.777-38.778z" fill="#ea9b58"/></g><g><path d="m473.222 293.529h-31.85c21.417 0 38.778 17.362 38.778 38.778 0 3.245-2.631 5.875-5.875 5.875h31.85c3.245 0 5.875-2.631 5.875-5.875 0-21.416-17.362-38.778-38.778-38.778z" fill="#d88a55"/></g><g><g><path d="m128.457 245.09c17.785 0 34.267 10.352 41.988 26.374l13.549 28.111h122.319c16.754 0 32.913 5.091 46.73 14.725l.262.182h47.204c6.453 0 12.531 1.63 17.849 4.495 7.731-14.96 12.101-31.939 12.101-49.94v-68.902c-5.255 14.739-19.125 24.571-34.855 24.571h-65.611c-16.087 0-30.235-10.28-35.205-25.579l-7.052-21.703h-99.007c-45.556 0-84.573 27.968-100.837 67.667h40.565z" fill="#ea9b58"/></g></g><g><g><path d="m400.509 313.467c6.625 0 12.86 1.665 18.315 4.594 7.44-14.736 11.635-31.389 11.635-49.024v-68.902c-5.255 14.739-19.125 24.571-34.855 24.571h-2.841v44.331c0 15.826-3.379 30.862-9.448 44.431h17.194z" fill="#d88a55"/></g></g><g><path d="m400.509 313.467h-48.561c15.634 10.497 27.465 26.224 32.992 44.654h48.472c3.245 0 5.876-2.631 5.876-5.876-.001-21.417-17.362-38.778-38.779-38.778z" fill="#d88a55"/></g><g><path d="m400.509 313.467h-32.307c21.417 0 38.778 17.362 38.778 38.778 0 3.245-2.631 5.876-5.876 5.876h32.307c3.245 0 5.876-2.631 5.876-5.876 0-21.417-17.361-38.778-38.778-38.778z" fill="#c57a44"/></g><g><g><path d="m306.313 298.56h-122.809l3.364 6.98c7.4 15.354 5.835 33.502-4.085 47.362l-15.309 21.39c-8.731 12.2-22.9 19.484-37.903 19.484h-43.015c-1.147 0-2.286-.057-3.421-.141v34.321h-30.96c-17.65 0-31.958 14.308-31.958 31.958 0 2.674 2.168 4.842 4.842 4.842h281.254c45.704 0 83.098-37.394 83.098-83.098 0-45.704-37.394-83.098-83.098-83.098z" fill="#fae2c0"/></g><g><path d="m306.313 298.56h-71.63c-.967 3.459-1.392 7.144-1.154 10.963 1.017 16.301 14.248 29.584 30.545 30.659 8.034.53 15.496-1.833 21.454-6.148 4.106-2.974 9.939-1.576 12.313 2.904 6.967 13.143 21.17 21.859 37.305 20.827 16.88-1.08 30.92-13.063 35.291-28.805-15.272-18.533-38.378-30.4-64.124-30.4z" fill="#bb5d4c"/></g><path d="m367.233 381.658c0-4.143-3.357-7.5-7.5-7.5s-7.5 3.357-7.5 7.5c0 25.32-20.6 45.92-45.921 45.92h-30.628c-15.394 0-27.918 12.524-27.918 27.918v9.26h15v-9.26c0-7.123 5.795-12.918 12.918-12.918h30.628c33.592 0 60.921-27.328 60.921-60.92z" fill="#fed2a4"/><g><g><g><path d="m45.682 271.463c7.333-15.215 22.565-25.31 39.311-26.289-5.721-6.619-11.977-12.621-18.516-17.756-12.611-9.761-26.295-16.223-34.913-10.88-8.936 4.792-10.182 19.875-8.034 35.676 1.895 13.251 6.096 26.989 12.256 39.784z" fill="#fdb4ba"/></g><g><path d="m62.512 252.522c6.662-4.276 14.394-6.875 22.481-7.348-5.721-6.619-11.977-12.621-18.516-17.756-12.611-9.761-26.295-16.223-34.913-10.88-4.359 2.338-6.884 7.128-8.082 13.252 8.114-.084 18.275 5.411 27.823 12.801 3.852 3.025 7.603 6.356 11.207 9.931z" fill="#fe99a0"/></g><g><path d="m184.564 216.538c-8.618-5.343-22.303 1.119-34.913 10.88-6.54 5.135-12.795 11.137-18.516 17.756 16.746.98 31.978 11.074 39.311 26.289l9.897 20.535c6.161-12.795 10.361-26.532 12.256-39.784 2.147-15.801.901-30.884-8.035-35.676z" fill="#fdb4ba"/></g><g><path d="m184.564 216.538c-5.103-3.164-11.983-2.187-19.365 1.162 7.327 5.754 8.268 19.821 6.271 34.515-.723 5.06-1.796 10.189-3.173 15.311.774 1.271 1.495 2.583 2.148 3.938l9.897 20.535c6.161-12.795 10.361-26.532 12.256-39.784 2.148-15.802.902-30.885-8.034-35.677z" fill="#fe99a0"/></g></g><g><path d="m128.458 244.074h-40.788c-18.289 0-34.962 10.473-42.902 26.948l-16.423 34.076c-7.558 15.682-5.958 34.238 4.174 48.394l15.309 21.39c8.942 12.495 23.363 19.907 38.728 19.907h43.016c15.365 0 29.786-7.413 38.728-19.907l15.309-21.39c10.132-14.156 11.732-32.712 4.174-48.394l-16.423-34.076c-7.94-16.475-24.614-26.948-42.902-26.948z" fill="#fae2c0"/></g><path d="m127.388 343.642-11.824-9.46v-1.226l-2.767 2.94c-1.223 1.3-2.949 2.045-4.733 2.045s-3.51-.745-4.733-2.045l-2.767-2.939v1.277l-11.558 9.461c-3.206 2.624-3.677 7.35-1.053 10.555 2.625 3.204 7.349 3.675 10.554 1.053l9.611-7.867 9.899 7.92c1.383 1.106 3.038 1.644 4.681 1.644 2.2 0 4.38-.963 5.861-2.814 2.587-3.237 2.063-7.956-1.171-10.544z" fill="#7a6d79"/><g><path d="m187.783 305.098-16.423-34.076c-7.94-16.475-24.613-26.948-42.902-26.948h-34.265c18.289 0 34.962 10.473 42.902 26.948l16.423 34.076c7.558 15.682 5.958 34.238-4.174 48.395l-15.309 21.39c-8.942 12.495-23.363 19.908-38.728 19.908h34.265c15.365 0 29.786-7.413 38.728-19.908l15.309-21.39c10.131-14.156 11.732-32.713 4.174-48.395z" fill="#fed2a4"/></g><g><g><g><path d="m208.185 331.923h-31.015c-4.142 0-7.5-3.357-7.5-7.5s3.358-7.5 7.5-7.5h31.015c4.142 0 7.5 3.357 7.5 7.5s-3.358 7.5-7.5 7.5z" fill="#ffbd86"/></g><g><path d="m208.185 358.835h-31.015c-4.142 0-7.5-3.357-7.5-7.5s3.358-7.5 7.5-7.5h31.015c4.142 0 7.5 3.357 7.5 7.5s-3.358 7.5-7.5 7.5z" fill="#ffbd86"/></g></g><g><g><path d="m38.781 331.923h-31.281c-4.142 0-7.5-3.357-7.5-7.5s3.358-7.5 7.5-7.5h31.281c4.142 0 7.5 3.357 7.5 7.5s-3.358 7.5-7.5 7.5z" fill="#ffbd86"/></g><g><path d="m38.781 358.835h-31.281c-4.142 0-7.5-3.357-7.5-7.5s3.358-7.5 7.5-7.5h31.281c4.142 0 7.5 3.357 7.5 7.5s-3.358 7.5-7.5 7.5z" fill="#ffbd86"/></g></g></g><g><g><path d="m71.096 315.602c-4.142 0-7.5-3.357-7.5-7.5v-10.573c0-4.143 3.358-7.5 7.5-7.5s7.5 3.357 7.5 7.5v10.573c0 4.142-3.358 7.5-7.5 7.5z" fill="#685e68"/></g><g><path d="m145.032 315.602c-4.142 0-7.5-3.357-7.5-7.5v-10.573c0-4.143 3.358-7.5 7.5-7.5s7.5 3.357 7.5 7.5v10.573c0 4.142-3.358 7.5-7.5 7.5z" fill="#685e68"/></g></g></g></g><g><g><g><path d="m460.8 65.031-30.946-14.947c-10.929-5.279-24.002-3.065-32.584 5.517-3.573 3.572-6.047 7.953-7.332 12.652 11.232 3.167 21.866 8.318 31.514 15.327 19.875 14.441 29.57 38.479 25.851 62.148l5.088 1.288c18.028 4.564 35.534-9.062 35.534-27.659v-11.102c.001-18.418-10.539-35.213-27.125-43.224z" fill="#918291"/></g><g><path d="m460.8 65.031-30.946-14.947c-10.929-5.279-24.002-3.065-32.584 5.517-.121.121-.231.25-.349.373 5.003-.436 10.143.439 14.881 2.728l30.946 14.947c16.586 8.011 27.125 24.806 27.125 43.225v11.102c0 7.811-3.096 14.737-8.014 19.815 14.229-1.222 26.065-13.142 26.065-28.433v-11.102c.002-18.419-10.538-35.214-27.124-43.225z" fill="#7a6d79"/></g><g><path d="m304.143 83.58c9.648-7.009 20.282-12.16 31.514-15.327-1.285-4.699-3.759-9.08-7.332-12.652-8.582-8.582-21.655-10.796-32.584-5.517l-30.946 14.947c-16.586 8.011-27.125 24.806-27.125 43.225v11.102c0 18.597 17.506 32.223 35.534 27.659l5.088-1.288c-3.719-23.67 5.976-47.708 25.851-62.149z" fill="#918291"/></g><g><path d="m328.326 55.601c-4.856-4.856-11.149-7.668-17.678-8.243 1.599 1.661 2.97 3.487 4.101 5.43 1.909 3.28.414 7.474-3.165 8.736-9.016 3.179-17.583 7.674-25.488 13.417-18.492 13.436-28.172 35.18-26.433 57.205.228 2.893-1.692 5.519-4.505 6.231-3.214.814-6.41 1.04-9.495.772 6.791 7.027 17.075 10.517 27.543 7.867l5.088-1.288c-3.72-23.669 5.976-47.707 25.851-62.148 9.648-7.009 20.282-12.16 31.514-15.327-1.286-4.699-3.761-9.079-7.333-12.652z" fill="#7a6d79"/></g></g><g><path d="m303.547 82.76c-22.98 16.696-32.596 46.291-23.819 73.306l14.093 43.374c5.092 15.67 19.694 26.28 36.171 26.28h65.611c16.477 0 31.079-10.609 36.171-26.28l14.093-43.374c8.778-27.015-.838-56.61-23.819-73.306-35.329-25.669-83.17-25.669-118.501 0z" fill="#d88a55"/></g><g><path d="m422.049 82.76c-22.211-16.137-49.364-22.121-75.247-17.97 15.289 2.453 30.135 8.437 43.255 17.97 22.98 16.696 32.596 46.291 23.818 73.306l-14.093 43.374c-5.092 15.67-19.694 26.28-36.171 26.28h31.991c16.477 0 31.079-10.609 36.171-26.28l14.093-43.374c8.779-27.015-.836-56.61-23.817-73.306z" fill="#c57a44"/></g><path d="m368.229 188.524c-1.335 1.643-3.314 2.585-5.432 2.585-2.116 0-4.097-.942-5.432-2.585l-2.068-2.545v39.74h15v-39.74z" fill="#7a6d79"/><g><g><path d="m326.454 144.73c-4.143 0-7.5-3.357-7.5-7.5v-10.396c0-4.143 3.357-7.5 7.5-7.5s7.5 3.357 7.5 7.5v10.396c0 4.142-3.357 7.5-7.5 7.5z" fill="#685e68"/></g><g><path d="m399.143 144.73c-4.143 0-7.5-3.357-7.5-7.5v-10.396c0-4.143 3.357-7.5 7.5-7.5s7.5 3.357 7.5 7.5v10.396c0 4.142-3.358 7.5-7.5 7.5z" fill="#685e68"/></g></g></g><g><path d="m369.006 189.155 16.809-20.68c4.249-5.228.529-13.046-6.208-13.046h-33.618c-6.737 0-10.457 7.818-6.208 13.046l16.809 20.68c3.202 3.939 9.215 3.939 12.416 0z" fill="#685e68"/></g><path d="m108.064 338.94c-2.068 0-4.044-.854-5.461-2.359l-10.08-10.71c-2.664-2.831-3.388-6.964-1.847-10.531s5.048-5.872 8.934-5.872h16.908c3.886 0 7.393 2.305 8.934 5.872 1.542 3.567.817 7.7-1.846 10.53l-10.081 10.711c-1.417 1.506-3.393 2.359-5.461 2.359z" fill="#685e68"/></g></svg>