<svg id="Capa_1" enable-background="new 0 0 512 512" height="512" viewBox="0 0 512 512" width="512" xmlns="http://www.w3.org/2000/svg"><g><g><path d="m74.913 172.31c-.178.039-.357.077-.534.13-15.799 4.696-32.813 1.263-45.518-9.194-7.839-6.451-12.697-15.57-13.678-25.676-.981-10.105 2.032-19.988 8.483-27.828 4.907-5.962 11.842-9.656 19.527-10.402 7.69-.748 15.202 1.545 21.165 6.452 4.46 3.671 7.224 8.858 7.782 14.608.559 5.75-1.156 11.372-4.827 15.832-2.632 3.198-2.173 7.925 1.025 10.558s7.924 2.172 10.557-1.024c6.217-7.554 9.12-17.077 8.174-26.814-.945-9.738-5.626-18.524-13.18-24.741-9.056-7.453-20.471-10.934-32.146-9.8-11.674 1.133-22.207 6.745-29.66 15.801-8.998 10.933-13.2 24.716-11.831 38.809 1.368 14.094 8.143 26.812 19.076 35.809 11.203 9.221 24.974 14.241 39.086 14.639 4.927-6.249 10.458-11.994 16.499-17.159z" fill="#ffb09e"/><g><path d="m305.634 358.525h-7.528l26.884 68.379c1.203 3.06 4.157 5.073 7.445 5.073h24.386c4.418 0 8-3.582 8-8v-84.204c-16.756 11.808-37.175 18.752-59.187 18.752z" fill="#ffb09e"/></g><path d="m364.822 404.919v-65.146c-6.518 4.593-13.595 8.438-21.099 11.437v53.709z" fill="#f89580"/><g><path d="m178.105 405.919v-47.394h-66.776l18.634 47.394z" fill="#ffb09e"/></g><g><path d="m157.005 358.525h21.099v47.394h-21.099z" fill="#f89580"/></g><g><path d="m400.996 293.811h-53.836c-27.232 0-51.495-16.284-61.812-41.485l-12.934-31.588c-7.796-19.039-6.283-41.031 4.047-58.828l.625-1.077-1.181-.396c-8.397-2.812-15.831-7.414-22.096-13.679-1.403-1.403-2.701-2.881-3.935-4.398h-96.62c-67.229 0-121.729 54.5-121.729 121.729v141.828h51.4l9.649-33.051c2.578-7.946 9.981-13.328 18.335-13.328h86.586c8.409 0 15.226 6.817 15.226 15.226v31.152h51.4l9.649-33.051c2.578-7.946 9.981-13.328 18.335-13.328h13.529c43.935 0 81.507-27.242 96.748-65.755-.461.013-.922.029-1.386.029z" fill="#ffcebf"/></g><g><g><path d="m264.121 405.919 9.649-33.051c2.578-7.946 9.981-13.328 18.335-13.328h-20.822c-8.354 0-15.757 5.381-18.335 13.328l-9.649 33.051z" fill="#ffb09e"/></g></g><g><path d="m82.925 405.919 9.649-33.051c2.578-7.946 9.981-13.328 18.335-13.328h-20.822c-8.354 0-15.757 5.381-18.335 13.328l-9.649 33.051z" fill="#ffb09e"/></g><g><g><g><path d="m280.813 155.325 27.575-36.726c4.157-5.536 9.374-10.107 15.245-13.531-2.02-2.974-4.34-5.806-6.977-8.442-21.726-21.726-56.423-22.554-79.152-2.507-4.081 18.626 1.103 38.875 15.587 53.358 6.807 6.807 14.889 11.562 23.476 14.266 1.285-2.207 2.696-4.353 4.246-6.418z" fill="#fdb4ba"/></g><g><path d="m316.656 96.625c-21.726-21.726-56.423-22.554-79.152-2.507-1.343 6.13-1.662 12.434-.996 18.653 21.897-11.728 49.741-8.373 68.214 10.099.088.088.169.181.257.269l3.41-4.541c4.157-5.536 9.374-10.107 15.245-13.531-2.021-2.973-4.341-5.805-6.978-8.442z" fill="#fe99a0"/></g><g><path d="m510.652 94.119c-22.729-20.047-57.426-19.22-79.152 2.507-2.636 2.637-4.956 5.468-6.977 8.442 5.871 3.424 11.088 7.995 15.244 13.531l27.575 36.726c1.551 2.065 2.961 4.212 4.246 6.419 8.587-2.705 16.668-7.459 23.476-14.266 14.485-14.485 19.669-34.733 15.588-53.359z" fill="#fdb4ba"/></g><g><g><path d="m424.714 104.801c-.062.09-.129.177-.191.267.246.144.484.301.728.449z" fill="#fe99a0"/></g><g><path d="m510.652 94.119c-5.854-5.163-12.504-8.93-19.52-11.324.62 15.567-4.992 31.333-16.877 43.218-5.701 5.701-12.301 9.941-19.337 12.764l12.424 16.547c1.551 2.065 2.961 4.212 4.246 6.419 8.587-2.705 16.668-7.459 23.476-14.266 14.485-14.484 19.669-34.732 15.588-53.358z" fill="#fe99a0"/></g></g></g><g><path d="m468.155 154.715-27.575-36.725c-9.933-13.229-25.512-21.013-42.055-21.013h-48.893c-16.543 0-32.122 7.784-42.055 21.013l-27.575 36.725c-14.335 19.091-17.573 44.314-8.528 66.408l12.933 31.587c10.43 25.474 35.226 42.116 62.753 42.116h53.837c27.527 0 52.323-16.641 62.753-42.116l12.933-31.587c9.045-22.094 5.806-47.317-8.528-66.408z" fill="#ffdfcf"/></g><g><path d="m468.155 154.715-27.575-36.725c-9.933-13.229-25.512-21.013-42.055-21.013h-32.045c16.543 0 32.122 7.784 42.055 21.013l27.575 36.725c14.335 19.091 17.574 44.314 8.528 66.408l-12.933 31.587c-10.43 25.474-35.226 42.116-62.753 42.116h32.045c27.527 0 52.323-16.641 62.753-42.116l12.933-31.587c9.045-22.094 5.806-47.317-8.528-66.408z" fill="#ffcebf"/></g><g><g><path d="m391.055 264.533h-33.953c-17.291 0-31.438-14.147-31.438-31.438 0-17.291 14.147-31.438 31.438-31.438h33.953c17.291 0 31.438 14.147 31.438 31.438 0 17.291-14.147 31.438-31.438 31.438z" fill="#fdb4ba"/></g><path d="m391.055 201.656h-31.797c12.971 0 24.173 7.961 28.961 19.239.698-.214 1.438-.331 2.207-.331 4.143 0 7.5 3.357 7.5 7.5v6.287c0 4.143-3.357 7.5-7.5 7.5-.329 0-.65-.028-.968-.069-3.794 13.099-15.921 22.751-30.2 22.751h31.797c17.291 0 31.438-14.147 31.438-31.438s-14.147-31.439-31.438-31.439z" fill="#fe99a0"/><g><g><path d="m357.73 241.852c-4.143 0-7.5-3.357-7.5-7.5v-6.287c0-4.143 3.357-7.5 7.5-7.5s7.5 3.357 7.5 7.5v6.287c0 4.142-3.357 7.5-7.5 7.5z" fill="#fe646f"/></g><g><path d="m390.426 241.852c-4.143 0-7.5-3.357-7.5-7.5v-6.287c0-4.143 3.357-7.5 7.5-7.5s7.5 3.357 7.5 7.5v6.287c0 4.142-3.358 7.5-7.5 7.5z" fill="#fe646f"/></g></g></g><g><path d="m338.262 181.091c-4.143 0-7.5-3.357-7.5-7.5v-10.164c0-4.143 3.357-7.5 7.5-7.5s7.5 3.357 7.5 7.5v10.164c0 4.142-3.358 7.5-7.5 7.5z" fill="#7a6d79"/></g><g><path d="m409.333 181.091c-4.143 0-7.5-3.357-7.5-7.5v-10.164c0-4.143 3.357-7.5 7.5-7.5s7.5 3.357 7.5 7.5v10.164c0 4.142-3.357 7.5-7.5 7.5z" fill="#7a6d79"/></g></g></g><path d="m316.346 404.919 8.644 21.985c1.203 3.061 4.157 5.073 7.445 5.073h24.386c4.418 0 8-3.582 8-8v-19.058z" fill="#918291"/><path d="m343.722 431.977h13.099c4.418 0 8-3.582 8-8v-19.058h-21.099z" fill="#7a6d79"/><g><path d="m178.105 404.919v19.058c0 4.418-3.582 8-8 8h-24.446c-3.288 0-6.242-2.012-7.445-5.073l-8.644-21.985z" fill="#918291"/></g><path d="m157.005 404.919v27.058h13.099c4.418 0 8-3.582 8-8v-19.058z" fill="#7a6d79"/><g><g><path d="m83.217 404.919h-51.692v19.399c0 4.418 3.582 8 8 8h29.695c3.555 0 6.683-2.346 7.679-5.758z" fill="#918291"/></g><path d="m76.899 426.56 6.318-21.641h-20.822l-7.999 27.399h14.824c3.554 0 6.683-2.346 7.679-5.758z" fill="#7a6d79"/><g><path d="m212.722 404.919v19.399c0 4.418 3.582 8 8 8h29.694c3.555 0 6.683-2.346 7.679-5.758l6.318-21.641z" fill="#918291"/></g><path d="m258.096 426.56 1.697-5.811 4.621-15.83h-20.822l-7.999 27.399h14.823c3.555 0 6.683-2.346 7.68-5.758z" fill="#7a6d79"/></g></g></svg>