<svg id="Capa_1" enable-background="new 0 0 512 512" height="512" viewBox="0 0 512 512" width="512" xmlns="http://www.w3.org/2000/svg"><g><path d="m380.061 385.592c-16.906-2.189-33.617-13.208-43.798-30.842-13.43-23.262-11.225-50.616 3.794-66.905l-12.462-26.559c-8.846 18.237-27.528 30.156-48.089 30.156h-47.011c-20.561 0-39.244-11.919-48.089-30.156l-44.47 94.775c-12.716 27.101-10.833 58.799 5.004 84.204l24.989 40.086c-.861 2.449-1.342 5.077-1.342 7.822v11.327c0 2.761 2.239 5 5 5h164.83c2.761 0 5-2.239 5-5v-11.327c0-2.744-.482-5.373-1.342-7.822l24.989-40.086c10.318-16.556 14.707-35.785 12.997-54.673z" fill="#fae2c0"/><path d="m380.061 385.592c-16.906-2.189-33.617-13.208-43.798-30.842-13.43-23.262-11.225-50.616 3.794-66.905l-12.462-26.559c-6.267 12.921-17.475 22.664-30.788 27.25l31.684 67.526c12.542 26.729 10.871 57.927-4.37 83.151v25.742c8.373 1.556 15.185 7.523 17.952 15.397l24.989-40.086c10.32-16.557 14.709-35.786 12.999-54.674z" fill="#fed2a4"/><g><g><path d="m372.065 356.062-32.008-68.216c-15.02 16.288-17.225 43.642-3.794 66.905 10.181 17.634 26.892 28.654 43.798 30.842-.914-10.095-3.567-20.092-7.996-29.531z" fill="#d88a55"/></g><g><path d="m131.939 385.592c16.906-2.189 33.617-13.208 43.798-30.842 13.43-23.262 11.225-50.616-3.794-66.905l-32.008 68.216c-4.429 9.44-7.082 19.437-7.996 29.531z" fill="#d88a55"/></g></g><g><g><g><path d="m213.828 139.676c4.318-3.661 9.071-6.713 14.117-9.117l-65.975-114.274c-7.605-13.172-27.383-11.112-31.865 3.422-9.423 30.559-6.589 64.805 10.662 94.684 11.824 20.479 28.81 36.118 48.367 46.224z" fill="#fae2c0"/></g><g><path d="m203.396 147.21-61.909-107.23c-3.258-5.643-8.75-8.482-14.317-8.751-5.563 27.463-1.515 56.988 13.596 83.162 11.632 20.148 28.266 35.598 47.424 45.712z" fill="#fdb4ba"/></g><g><path d="m381.895 19.708c-4.482-14.535-24.26-16.595-31.865-3.422l-65.975 114.273c5.046 2.404 9.799 5.456 14.117 9.117l24.695 20.941c19.556-10.106 36.543-25.745 48.367-46.224 17.25-29.88 20.085-64.126 10.661-94.685z" fill="#fff3de"/></g><g><path d="m384.83 31.23c-5.567.269-11.059 3.108-14.317 8.751l-61.909 107.23 15.205 12.894c19.158-10.114 35.792-25.564 47.424-45.712 15.112-26.175 19.16-55.7 13.597-83.163z" fill="#fdb4ba"/></g></g><g><path d="m213.181 138.913-28.117 23.842c-17.355 14.717-23.727 38.675-15.975 60.069l12.221 33.728c7.807 21.545 28.269 35.895 51.185 35.895h47.011c22.916 0 43.378-14.35 51.185-35.895l12.221-33.728c7.752-21.394 1.38-45.352-15.975-60.069l-28.117-23.842c-24.704-20.947-60.936-20.947-85.639 0z" fill="#fff3de"/></g><g><path d="m326.936 162.755-28.117-23.843c-18.083-15.334-42.34-19.428-63.734-12.313 7.832 2.605 15.284 6.699 21.904 12.313l28.117 23.843c17.355 14.717 23.727 38.675 15.975 60.069l-12.221 33.728c-7.807 21.545-28.269 35.895-51.185 35.895h41.83c22.916 0 43.378-14.35 51.185-35.895l12.221-33.728c7.752-21.394 1.381-45.352-15.975-60.069z" fill="#ffe5c2"/></g></g><g><path d="m377.913 350.867c-1.759-3.75-6.226-5.363-9.976-3.604s-5.364 6.226-3.604 9.976l.943 2.009c2.488 5.303 4.363 10.784 5.642 16.35-11.326-4.248-21.436-12.952-28.16-24.598-9.093-15.75-10.263-33.967-3.855-47.959l10.563 22.512c1.276 2.72 3.976 4.316 6.794 4.316 1.067 0 2.151-.229 3.181-.712 3.75-1.759 5.363-6.226 3.604-9.976l-26.629-56.753c.125-.292.256-.58.377-.874h25.423c4.142 0 7.5-3.358 7.5-7.5s-3.358-7.5-7.5-7.5h-19.926l4.965-13.703h14.959c4.142 0 7.5-3.358 7.5-7.5s-3.358-7.5-7.5-7.5h-10.067c4.498-20.151-1.42-41.493-15.735-56.447 16.978-10.867 31.148-25.649 41.316-43.262 17.552-30.399 21.683-67.083 11.334-100.644-2.949-9.565-10.985-16.206-20.972-17.332-10.09-1.135-19.494 3.603-24.555 12.369l-62.142 107.633c-16.385-6.046-34.402-6.046-50.786 0l-62.142-107.633c-5.061-8.766-14.473-13.502-24.556-12.369-9.986 1.126-18.022 7.767-20.972 17.332-10.349 33.562-6.218 70.245 11.334 100.644 10.169 17.613 24.338 32.395 41.316 43.262-14.315 14.954-20.233 36.296-15.735 56.447h-10.629c-4.142 0-7.5 3.358-7.5 7.5s3.358 7.5 7.5 7.5h15.521l4.965 13.703h-20.486c-4.142 0-7.5 3.358-7.5 7.5s3.358 7.5 7.5 7.5h25.985c.121.294.251.583.377.874l-42.44 90.447c-9.92 21.141-11.772 45.137-5.215 67.567.957 3.273 3.949 5.397 7.195 5.397.697 0 1.405-.098 2.108-.303 3.976-1.162 6.256-5.328 5.094-9.303-2.332-7.978-3.388-16.19-3.219-24.357 17.473-4.205 33.282-16.329 43.124-33.376 13.768-23.847 12.968-52.566-1.48-71.774l4.231-9.016c11.564 13.791 28.874 22.237 47.511 22.237h47.011c18.637 0 35.947-8.447 47.511-22.237l4.231 9.016c-14.448 19.208-15.247 47.927-1.48 71.774 9.851 17.062 25.679 29.193 43.171 33.388.329 15.422-3.782 30.839-12.242 44.41l-18.739 30.06c-2.908-2.957-6.4-5.358-10.338-6.973v-42.604c0-4.142-3.358-7.5-7.5-7.5s-7.5 3.358-7.5 7.5v48.173c0 3.614 2.577 6.713 6.129 7.374 7.628 1.418 13.165 8.082 13.165 15.845v8.827h-53.059v-80.219c0-4.142-3.358-7.5-7.5-7.5s-7.5 3.358-7.5 7.5v80.219h-23.712v-80.219c0-4.142-3.358-7.5-7.5-7.5s-7.5 3.358-7.5 7.5v80.219h-53.059v-8.827c0-7.763 5.537-14.427 13.165-15.845 3.553-.66 6.129-3.76 6.129-7.374v-48.173c0-4.142-3.358-7.5-7.5-7.5s-7.5 3.358-7.5 7.5v42.604c-3.937 1.615-7.429 4.016-10.338 6.972l-12.886-20.672c-2.192-3.516-6.817-4.59-10.333-2.397-3.515 2.191-4.588 6.817-2.397 10.333l17.388 27.893c-.471 2.153-.729 4.38-.729 6.659v11.327c0 6.893 5.607 12.5 12.5 12.5h164.83c6.893 0 12.5-5.607 12.5-12.5v-11.327c0-2.279-.258-4.506-.729-6.658l23.24-37.282c17.253-27.678 19.283-61.831 5.429-91.356zm.944-309.5c2.87 23.833-1.984 48.258-14.119 69.275-9.682 16.77-23.468 30.637-40.048 40.376l-6.461-5.479 58.779-101.808c.554-.96 1.185-1.732 1.849-2.364zm-22.332-21.332c2.063-3.574 5.766-5.43 9.885-4.963 4.026.454 7.136 3.013 8.318 6.846.39 1.266.749 2.539 1.092 3.814-4.889 2.092-9.046 5.723-11.803 10.499l-57.417 99.448-2.932-2.486c-2.805-2.379-5.745-4.503-8.781-6.399zm-209.263 90.607c-12.134-21.017-16.989-45.442-14.119-69.275.664.632 1.295 1.404 1.849 2.364l23.753 41.142c1.389 2.406 3.91 3.751 6.502 3.751 1.272 0 2.562-.324 3.743-1.006 3.587-2.071 4.816-6.658 2.745-10.245l-23.753-41.142c-2.757-4.775-6.914-8.407-11.803-10.499.344-1.275.702-2.548 1.092-3.814 1.182-3.833 4.292-6.392 8.318-6.846 4.127-.463 7.822 1.391 9.885 4.963l61.637 106.759c-3.036 1.896-5.976 4.02-8.781 6.399l-2.932 2.486-16.149-27.97c-2.071-3.587-6.658-4.817-10.245-2.745-3.587 2.071-4.816 6.658-2.745 10.245l17.511 30.33-6.461 5.479c-16.58-9.739-30.365-23.606-40.047-40.376zm21.981 240.358c-6.717 11.635-16.814 20.332-28.127 24.585 1.276-5.591 3.138-11.071 5.609-16.337l26.373-56.207c6.408 13.992 5.238 32.209-3.855 47.959zm157.093-104.446h-11.038c-4.142 0-7.5 3.358-7.5 7.5s3.358 7.5 7.5 7.5h4.8c-8.294 14.258-23.723 23.393-40.592 23.393h-47.011c-16.869 0-32.298-9.135-40.592-23.393h4.8c4.142 0 7.5-3.358 7.5-7.5s-3.358-7.5-7.5-7.5h-11.038l-4.965-13.703h16.003c4.142 0 7.5-3.358 7.5-7.5s-3.358-7.5-7.5-7.5h-21.356c-5.348-17.739.328-37.301 14.567-49.376l28.117-23.842c22-18.655 53.937-18.655 75.937 0l28.117 23.842c14.239 12.074 19.915 31.637 14.567 49.376h-21.356c-4.142 0-7.5 3.358-7.5 7.5s3.358 7.5 7.5 7.5h16.003z"/><path d="m274.291 232.127c3.205-2.624 3.676-7.349 1.052-10.554-2.623-3.205-7.349-3.676-10.554-1.052l-8.688 7.112-8.956-7.165c-3.234-2.589-7.955-2.064-10.542 1.17-2.588 3.234-2.064 7.954 1.17 10.542l10.88 8.706v5.665h-4.956c-4.142 0-7.5 3.358-7.5 7.5s3.358 7.5 7.5 7.5h24.603c4.142 0 7.5-3.358 7.5-7.5s-3.358-7.5-7.5-7.5h-4.646v-5.716z"/><path d="m223.197 185.5c-4.142 0-7.5 3.358-7.5 7.5v10.734c0 4.142 3.358 7.5 7.5 7.5s7.5-3.358 7.5-7.5v-10.734c0-4.142-3.358-7.5-7.5-7.5z"/><path d="m288.803 185.5c-4.142 0-7.5 3.358-7.5 7.5v10.734c0 4.142 3.358 7.5 7.5 7.5s7.5-3.358 7.5-7.5v-10.734c0-4.142-3.358-7.5-7.5-7.5z"/></g></g></svg>