<svg id="Capa_1" enable-background="new 0 0 512 512" height="512" viewBox="0 0 512 512" width="512" xmlns="http://www.w3.org/2000/svg"><g><g><path d="m225.392 358.627c0-27.399 9.813-53.978 27.632-74.838 6.044-7.076 12.893-13.329 20.335-18.702v-197.063c0-4.199-4.862-6.528-8.134-3.896l-19.892 15.998c-1.989 1.6-4.864 1.444-6.669-.361l-18.644-18.644c-1.953-1.953-5.119-1.953-7.071 0l-18.281 18.281c-1.953 1.953-5.119 1.953-7.071 0l-18.281-18.281c-1.953-1.953-5.119-1.953-7.071 0l-18.281 18.281c-1.953 1.953-5.118 1.953-7.071 0l-18.281-18.281c-1.953-1.953-5.119-1.953-7.071 0l-18.28 18.281c-1.953 1.953-5.119 1.953-7.071 0l-18.281-18.281c-1.953-1.953-5.118-1.953-7.071 0l-18.644 18.644c-1.805 1.805-4.68 1.961-6.669.361l-19.891-15.998c-3.272-2.632-8.134-.303-8.134 3.896v399.12c0 2.761 2.239 5 5 5h212.892z" fill="#f6a96c"/></g><g><path d="m253.023 283.789c6.044-7.076 12.893-13.329 20.335-18.702v-197.063c0-4.199-4.862-6.528-8.134-3.896l-19.892 15.998c-.975.784-2.163 1.141-3.333 1.094v217.858c3.237-5.36 6.915-10.478 11.024-15.289z" fill="#ea9b58"/></g><g><path d="m225.392 422.96h-217.892v55.634c0 8.284 6.716 15 15 15h202.892z" fill="#d88a55"/></g><g><path d="m98.928 324.002h83.002c9.665 0 17.5-7.835 17.5-17.5 0-9.665-7.835-17.5-17.5-17.5h-83.002c-9.665 0-17.5 7.835-17.5 17.5 0 9.665 7.835 17.5 17.5 17.5z" fill="#bb5d4c"/></g><g><path d="m181.93 289.002h-41.43c9.665 0 17.5 7.835 17.5 17.5 0 9.665-7.835 17.5-17.5 17.5h41.43c9.665 0 17.5-7.835 17.5-17.5 0-9.665-7.835-17.5-17.5-17.5z" fill="#a44f3e"/></g><g><g><path d="m407.535 243.87c-9.684-1.633-16.829-9.92-16.829-19.742v-111.917c0-12.177 3.185-24.1 8.973-34.814 3.404-6.301 5.167-13.618 4.711-21.383-1.168-19.904-17.203-36.128-37.093-37.506-23.389-1.62-42.867 16.873-42.867 39.917 0 6.984 1.792 13.547 4.939 19.259 5.822 10.569 8.817 22.461 8.817 34.528v111.917c0 9.821-7.145 18.108-16.829 19.742-54.963 9.268-96.965 57.198-96.965 114.756v134.967h265.108c8.284 0 15-6.716 15-15v-119.967c0-57.559-42.001-105.488-96.965-114.757z" fill="#60b7ff"/></g><g><path d="m473.238 493.593h-217.584v-134.966c0-47.01 38.109-85.119 85.119-85.119h47.346c47.01 0 85.119 38.109 85.119 85.119z" fill="#0593fc"/></g><g><path d="m388.119 273.508h-35.654c47.01 0 85.119 38.109 85.119 85.119v134.966h35.654v-134.966c0-47.01-38.109-85.119-85.119-85.119z" fill="#0182fc"/></g><g><circle cx="364.446" cy="58.425" fill="#fff" r="13"/></g></g><g><g><g><path d="m208.524 154.124-19.923-9.623c-7.036-3.399-15.453-1.974-20.978 3.552-2.958 2.958-4.757 6.774-5.242 10.785 6.495 2.197 12.665 5.372 18.336 9.491 11.637 8.455 17.115 22.717 14.407 36.556l7.986 2.022c11.607 2.938 22.877-5.834 22.877-17.807v-7.147c.001-11.859-6.785-22.672-17.463-27.829z" fill="#bb5d4c"/></g><g><path d="m100.142 168.33c5.67-4.12 11.84-7.295 18.336-9.491-.486-4.011-2.284-7.827-5.242-10.785-5.525-5.525-13.942-6.95-20.978-3.552l-19.923 9.623c-10.678 5.157-17.464 15.97-17.464 27.829v7.147c0 11.973 11.271 20.746 22.877 17.807l7.987-2.022c-2.708-13.839 2.769-28.102 14.407-36.556z" fill="#bb5d4c"/></g></g><g><path d="m99.553 167.521c-13.168 9.567-18.678 26.525-13.648 42.004l10.116 31.133c3.278 10.089 12.679 16.919 23.287 16.919h42.241c10.608 0 20.009-6.831 23.287-16.919l10.116-31.133c5.03-15.48-.48-32.437-13.648-42.004-24.373-17.709-57.377-17.709-81.751 0z" fill="#fff"/></g><g><path d="m181.305 167.521c-16.615-12.072-37.24-15.906-56.408-11.52 8.951 2.048 17.585 5.883 25.344 11.52 13.168 9.567 18.677 26.525 13.648 42.004l-10.116 31.133c-3.278 10.089-12.679 16.919-23.287 16.919h31.064c10.608 0 20.009-6.831 23.287-16.919l10.116-31.133c5.029-15.479-.48-32.437-13.648-42.004z" fill="#fff3de"/></g></g><g><path d="m181.93 281.502h-83.001c-13.785 0-25 11.215-25 25s11.215 25 25 25h83.001c13.785 0 25-11.215 25-25s-11.215-25-25-25zm0 35h-83.001c-5.514 0-10-4.486-10-10s4.486-10 10-10h83.001c5.514 0 10 4.486 10 10s-4.487 10-10 10z"/><path d="m482.331 278.268c-18.914-22.143-45.034-36.985-73.548-41.793-6.129-1.034-10.577-6.227-10.577-12.347v-39.127c0-4.143-3.357-7.5-7.5-7.5s-7.5 3.357-7.5 7.5v39.127c0 13.468 9.707 24.881 23.082 27.138 25.05 4.224 48.006 17.273 64.638 36.744 16.814 19.685 26.074 44.763 26.074 70.617v119.967c0 4.136-3.364 7.5-7.5 7.5h-8.762v-127.466c0-51.07-41.549-92.619-92.619-92.619h-47.347c-51.069 0-92.618 41.549-92.618 92.619v33.374c0 4.143 3.357 7.5 7.5 7.5s7.5-3.357 7.5-7.5v-33.374c0-42.8 34.819-77.619 77.618-77.619h47.347c42.8 0 77.619 34.819 77.619 77.619v127.466h-202.584v-59.092c0-4.143-3.357-7.5-7.5-7.5s-7.5 3.357-7.5 7.5v59.092h-16.263v-127.467c0-25.854 9.26-50.932 26.073-70.616 16.633-19.471 39.589-32.521 64.64-36.744 13.374-2.256 23.081-13.669 23.081-27.138v-111.917c0-13.38-3.37-26.57-9.748-38.146-2.621-4.758-4.007-10.166-4.007-15.64 0-9.113 3.672-17.559 10.339-23.779 6.66-6.215 15.372-9.291 24.509-8.655 16.221 1.123 29.172 14.22 30.125 30.463.356 6.082-.965 12.092-3.822 17.379-6.46 11.955-9.875 25.227-9.875 38.379v37.79c0 4.143 3.357 7.5 7.5 7.5s7.5-3.357 7.5-7.5v-37.79c0-10.671 2.791-21.476 8.072-31.248 4.183-7.742 6.119-16.521 5.6-25.388-1.394-23.754-20.337-42.906-44.062-44.55-13.34-.927-26.046 3.569-35.779 12.653-9.6 8.957-15.105 21.622-15.105 34.746 0 7.998 2.029 15.909 5.869 22.878 5.159 9.364 7.886 20.053 7.886 30.908v111.917c0 6.12-4.448 11.312-10.576 12.347-13.831 2.332-27.095 7.031-39.251 13.773v-182.225c0-4.856-2.721-9.177-7.101-11.274-4.379-2.097-9.45-1.51-13.233 1.533l-18.144 14.593-17.057-17.058c-2.361-2.36-5.501-3.661-8.84-3.661-3.34 0-6.479 1.301-8.838 3.661l-16.514 16.513-16.512-16.511c-2.361-2.362-5.5-3.663-8.84-3.663s-6.479 1.301-8.838 3.661l-16.513 16.513-16.513-16.513c-2.361-2.36-5.501-3.661-8.84-3.661-3.34 0-6.479 1.301-8.838 3.661l-16.513 16.513-16.512-16.511c-2.361-2.362-5.5-3.663-8.84-3.663-3.339 0-6.479 1.301-8.84 3.661l-17.056 17.058-18.144-14.593c-3.783-3.043-8.854-3.632-13.234-1.532-4.379 2.097-7.1 6.417-7.1 11.273v410.569c0 12.406 10.094 22.5 22.5 22.5h467c12.406 0 22.5-10.094 22.5-22.5v-119.966c0-29.422-10.536-57.961-29.669-80.359zm-265.439 137.192h-121.392c-4.143 0-7.5 3.357-7.5 7.5s3.357 7.5 7.5 7.5h121.392v55.634h-194.392c-4.136 0-7.5-3.364-7.5-7.5v-48.134h45.5c4.143 0 7.5-3.357 7.5-7.5s-3.357-7.5-7.5-7.5h-45.5v-342.217l15.824 12.727c4.981 4.009 12.15 3.622 16.674-.9l16.875-16.876 16.513 16.513c2.361 2.36 5.501 3.661 8.84 3.661 3.34 0 6.479-1.301 8.838-3.661l16.514-16.513 16.512 16.511c2.361 2.362 5.5 3.663 8.84 3.663 3.339 0 6.479-1.301 8.839-3.661l16.514-16.513 16.512 16.511c2.361 2.362 5.5 3.663 8.84 3.663s6.479-1.301 8.838-3.661l16.514-16.513 16.876 16.876c4.523 4.521 11.69 4.91 16.673.901l15.825-12.728v186.796c-7.017 5.339-13.498 11.439-19.299 18.229-19.132 22.397-29.668 50.936-29.668 80.358v56.834z"/><path d="m285.043 372.296v85.033c0 4.143 3.357 7.5 7.5 7.5s7.5-3.357 7.5-7.5v-85.033c0-4.143-3.357-7.5-7.5-7.5s-7.5 3.358-7.5 7.5z"/><path d="m320.994 372.296v85.033c0 4.143 3.357 7.5 7.5 7.5s7.5-3.357 7.5-7.5v-85.033c0-4.143-3.357-7.5-7.5-7.5s-7.5 3.358-7.5 7.5z"/><path d="m356.946 372.296v85.033c0 4.143 3.357 7.5 7.5 7.5s7.5-3.357 7.5-7.5v-85.033c0-4.143-3.357-7.5-7.5-7.5s-7.5 3.358-7.5 7.5z"/><path d="m392.897 372.296v85.033c0 4.143 3.357 7.5 7.5 7.5s7.5-3.357 7.5-7.5v-85.033c0-4.143-3.357-7.5-7.5-7.5s-7.5 3.358-7.5 7.5z"/><path d="m428.849 457.33c0 4.143 3.357 7.5 7.5 7.5s7.5-3.357 7.5-7.5v-85.033c0-4.143-3.357-7.5-7.5-7.5s-7.5 3.357-7.5 7.5z"/><path d="m425.511 324.781h-122.13c-4.143 0-7.5 3.357-7.5 7.5s3.357 7.5 7.5 7.5h122.13c4.143 0 7.5-3.357 7.5-7.5s-3.358-7.5-7.5-7.5z"/><path d="m364.446 37.925c-11.304 0-20.5 9.196-20.5 20.5s9.196 20.5 20.5 20.5 20.5-9.196 20.5-20.5-9.196-20.5-20.5-20.5zm0 26c-3.033 0-5.5-2.467-5.5-5.5s2.467-5.5 5.5-5.5 5.5 2.467 5.5 5.5-2.467 5.5-5.5 5.5z"/><path d="m211.786 147.37-19.924-9.622c-9.897-4.779-21.771-2.77-29.542 5.001-1.781 1.78-3.268 3.786-4.442 5.96-11.478-2.679-23.421-2.679-34.899 0-1.174-2.173-2.66-4.179-4.441-5.959-7.773-7.771-19.646-9.781-29.543-5.002l-19.925 9.623c-13.183 6.368-21.701 19.942-21.701 34.582v7.147c0 8.036 3.637 15.477 9.979 20.413 4.611 3.589 10.154 5.468 15.833 5.468 2.113 0 4.245-.262 6.354-.791l9.353 28.785c4.294 13.22 16.52 22.103 30.42 22.103h42.241c13.9 0 26.126-8.883 30.42-22.103l9.353-28.785c2.109.529 4.24.791 6.354.791 5.678 0 11.222-1.879 15.833-5.468 6.342-4.937 9.979-12.377 9.979-20.413v-7.147c0-14.64-8.518-28.214-21.702-34.583zm-135.208 52.098-.67.17c-3.274.827-6.681.114-9.346-1.961-2.664-2.074-4.192-5.2-4.192-8.576v-7.147c0-8.922 5.191-17.194 13.226-21.075l19.924-9.622c4.157-2.01 9.147-1.165 12.412 2.102.126.126.243.259.362.39-4.559 2.101-8.965 4.667-13.148 7.707-12.373 8.985-19.096 23.3-18.568 38.012zm111.242 7.74-10.116 31.133c-2.281 7.021-8.772 11.737-16.154 11.737h-13.621v-13.378c0-.283-.019-.561-.049-.836l6.792-8.356c2.543-3.126 3.047-7.329 1.316-10.968-1.731-3.64-5.311-5.9-9.341-5.9h-12.435c-4.029 0-7.608 2.261-9.34 5.899-1.731 3.638-1.229 7.841 1.312 10.967l6.793 8.358c-.031.275-.049.553-.049.836v13.378h-13.62c-7.382 0-13.873-4.717-16.154-11.737l-10.116-31.133c-4.038-12.429.353-25.938 10.924-33.619 10.906-7.924 23.687-11.886 36.467-11.886 12.781 0 25.562 3.962 36.468 11.886 10.571 7.68 14.961 21.19 10.923 33.619zm30.668-18.108c0 3.376-1.528 6.502-4.192 8.576-2.666 2.074-6.072 2.786-9.344 1.961l-.672-.17c.528-14.711-6.195-29.026-18.567-38.013-4.183-3.039-8.589-5.606-13.148-7.707.119-.131.236-.264.362-.39 3.264-3.267 8.254-4.112 12.412-2.102l19.923 9.621c8.035 3.882 13.227 12.154 13.227 21.076v7.148z"/><path d="m117.03 186.414c-4.143 0-7.5 3.357-7.5 7.5v6.693c0 4.143 3.357 7.5 7.5 7.5s7.5-3.357 7.5-7.5v-6.693c0-4.143-3.357-7.5-7.5-7.5z"/><path d="m163.828 186.414c-4.143 0-7.5 3.357-7.5 7.5v6.693c0 4.143 3.357 7.5 7.5 7.5s7.5-3.357 7.5-7.5v-6.693c0-4.143-3.357-7.5-7.5-7.5z"/></g></g></svg>