<svg id="Capa_1" enable-background="new 0 0 512 512" height="512" viewBox="0 0 512 512" width="512" xmlns="http://www.w3.org/2000/svg"><g><g><g><g><path d="m411.449 474.598-26.116-26.437c-.575-.582-.888-1.353-.883-2.17v-87.043c.066-10.92-4.709-21.168-13.667-27.412l-37.657-26.259c1.001 5.451 1.537 11.01 1.571 16.643.041 6.695-.644 13.308-1.98 19.778l20.846 14.536c.828.577.786 1.523.779 2.531v87.043c-.054 8.862 3.346 17.213 9.573 23.515l26.113 26.435c2.945 2.981 6.827 4.475 10.712 4.475 3.821 0 7.645-1.446 10.578-4.344 5.914-5.844 5.973-15.376.131-21.291z" fill="#685e68"/></g><g><path d="m354.342 366.229h30.108v66.962h-30.108z" fill="#814ba2"/></g></g><g><path d="m175.843 322.89c-.034-5.568.419-11.071 1.332-16.474l-36.023 25.12c-8.958 6.245-13.733 16.492-13.667 27.412v87.043c.005.818-.308 1.588-.883 2.17l-26.116 26.437c-5.842 5.915-5.784 15.447.131 21.29 2.933 2.898 6.757 4.344 10.578 4.344 3.884 0 7.766-1.494 10.712-4.475l26.113-26.435c6.227-6.302 9.628-14.654 9.573-23.515v-87.043c-.007-1.008-.049-1.954.779-2.531l19.664-13.712c-1.397-6.415-2.153-12.978-2.193-19.631z" fill="#685e68"/></g><g><path d="m127.485 366.229h30.108v66.962h-30.108z" fill="#814ba2"/></g></g><g><g><g><path d="m133.612 261.409c-8.094.056-15.871 3.062-21.899 8.462l-72.009 64.502c-.555.497-1.272.795-2.02.8h-22.735c-8.314.058-15.007 6.984-14.949 15.298.058 8.283 6.794 14.816 15.065 14.809h22.828c8.096-.056 15.874-3.082 21.9-8.482l72.008-64.501c.556-.498 1.273-.775 2.02-.781h47.237c3.677-10.76 9.226-20.824 16.406-30.107z" fill="#685e68"/></g><g><path d="m195.858 261.409h-62.246c-8.094.056-15.871 3.062-21.899 8.462l-72.009 64.501c-.555.497-1.272.795-2.02.8h-22.735c-8.314.059-15.007 6.985-14.949 15.299.058 8.283 6.794 14.817 15.066 14.809h22.828c8.096-.056 15.874-3.082 21.9-8.482l72.008-64.501c.556-.498 1.274-.775 2.021-.781h46.029c3.598-10.772 9.032-20.894 16.006-30.107z" fill="#685e68"/></g><g><path d="m133.612 261.409c-8.094.056-15.871 3.062-21.899 8.462l-53.621 48.03 21.342 21.304 52.368-46.908c.556-.498 1.273-.775 2.02-.781l-.027-30.108z" fill="#814ba2"/></g></g><g><g><path d="m497.024 334.767h-22.734c-.748-.004-1.466-.28-2.022-.776l-72.124-64.374c-6.037-5.389-13.82-8.381-21.914-8.423h-65.156c7.162 9.233 12.695 19.383 16.375 30.108h48.623c.747.004 1.465.28 2.022.777l72.122 64.373c6.035 5.389 13.819 8.381 21.915 8.423h22.828c8.272-.007 14.995-6.573 15.039-14.856.045-8.315-6.66-15.209-14.974-15.252z" fill="#685e68"/></g><g><path d="m378.231 261.193c8.094.042 15.876 3.034 21.914 8.423l53.706 47.935-21.304 21.342-52.451-46.815c-.557-.497-1.275-.773-2.022-.777l-.027-30.108z" fill="#814ba2"/></g></g></g><g><g><path d="m320.038 210.744 31.128.001c12.05 0 23.614-4.424 32.59-12.475l43.506-36.766c6.034-5.099 13.667-7.893 21.61-7.832h31.063c8.314.05 15.013 7.021 14.962 15.336-.051 8.283-6.78 14.773-15.052 14.772h-31.157c-.007 0-.013 0-.019 0-.722 0-1.423.256-1.976.723l-43.008 36.337c-14.489 12.919-33.112 20.014-52.517 20.014l-54.187-.002c10.939-6.779 19.263-17.545 23.057-30.108z" fill="#685e68"/></g><g><path d="m427.262 161.503-43.506 36.766 19.929 22.57 43.008-36.337z" fill="#814ba2"/></g></g><g><path d="m240.309 121.138 28.002-.001c5.927 0 11.629.986 16.966 2.778 7.4-12.237 7.089-27.969-1.523-40.074-4.618-6.491-13.624-8.01-20.113-3.39-6.49 4.617-8.008 13.622-3.39 20.113 2.178 3.061 1.842 7.223-.799 9.897-2.998 3.035-7.908 3.065-10.945.066-2.705-2.672-3.066-6.861-.86-9.962 4.619-6.489 3.102-15.494-3.388-20.113-6.488-4.618-15.495-3.102-20.113 3.388-8.719 12.252-8.961 28.095-1.362 40.366 5.551-1.976 11.455-3.031 17.525-3.068z" fill="#685e68"/></g><g><path d="m189.801 211.521-31.128.001c-12.05 0-23.614-4.424-32.59-12.475l-43.506-36.767c-6.034-5.099-13.666-7.893-21.61-7.832h-31.063c-8.314.05-15.013 7.021-14.962 15.336.051 8.283 6.78 14.773 15.052 14.772h31.157.019c.722 0 1.423.256 1.976.723l43.008 36.337c14.489 12.919 33.112 20.014 52.517 20.014l54.187-.002c-10.939-6.778-19.263-17.544-23.057-30.107z" fill="#685e68"/></g><g><path d="m82.577 162.28-19.431 22.999 43.008 36.337 19.929-22.57z" fill="#814ba2"/></g><g><g><path d="m437.604 27.781c-5.671-6.082-15.195-6.414-21.277-.746l-54.194 50.525c-10.479 9.77-16.44 23.59-16.353 37.918l.167 27.408c.072 11.747-9.426 21.362-21.172 21.434l-4.176.026c.584 3.093.914 6.275.934 9.529l.126 20.574 3.3-.02c28.347-.173 51.269-23.377 51.096-51.726l-.168-27.408c-.036-5.937 2.434-11.664 6.776-15.712l54.194-50.524c6.083-5.671 6.417-15.197.747-21.278z" fill="#685e68"/></g><g><path d="m382.664 99.582-20.531-22.022c-10.479 9.77-16.44 23.59-16.353 37.918l.167 27.408c.072 11.747-9.426 21.362-21.172 21.434l-4.176.026c.584 3.093.914 6.275.934 9.529l.126 20.574 3.3-.02c28.347-.173 51.269-23.377 51.096-51.726l-.168-27.408c-.035-5.937 2.435-11.665 6.777-15.713z" fill="#814ba2"/></g><g><path d="m345.947 142.887c.072 11.747-9.426 21.362-21.172 21.434l-4.176.026c.584 3.093.914 6.275.934 9.529l.126 20.574 3.3-.02c28.347-.173 51.269-23.377 51.096-51.726h-30.11z" fill="#685e68"/></g><g><path d="m293.026 61.653c7.208 10.775 9.183 24.069 5.419 36.474l-8.358 27.538c9.875 4.461 18.171 11.843 23.756 21.047l12.203-40.208c6.286-20.71 2.988-42.903-9.046-60.891l-18.358-27.442c-4.428-6.62-13.386-8.395-20.006-3.968-6.621 4.429-8.397 13.386-3.968 20.007z" fill="#685e68"/></g><g><path d="m317 45.613-23.974 16.039c7.208 10.775 9.183 24.069 5.419 36.474l-8.358 27.538c9.875 4.461 18.171 11.843 23.756 21.047l12.203-40.208c6.286-20.709 2.988-42.902-9.046-60.89z" fill="#814ba2"/></g><g><path d="m194.627 147.639c5.438-9.324 13.626-16.853 23.454-21.47l-8.714-27.497c-3.915-12.358-2.104-25.676 4.972-36.538l18.021-27.664c4.348-6.674 2.462-15.609-4.212-19.957-6.674-4.349-15.609-2.462-19.957 4.212l-18.021 27.664c-11.813 18.134-14.838 40.366-8.3 60.996z" fill="#685e68"/></g><g><path d="m209.367 98.672c-3.915-12.358-2.104-25.676 4.972-36.538l-24.169-15.745c-11.813 18.134-14.838 40.366-8.3 60.996l12.757 40.253c5.438-9.324 13.626-16.853 23.454-21.47z" fill="#814ba2"/></g><g><path d="m185.172 195.219 2.356-.014-.126-20.51c-.02-3.278.274-6.484.825-9.603l-3.24.02c-.044 0-.087 0-.131 0-11.687 0-21.23-9.471-21.301-21.173l-.168-27.408c-.087-14.328-6.217-28.075-16.815-37.717l-54.808-49.858c-6.149-5.595-15.671-5.145-21.266 1.006s-5.144 15.672 1.006 21.266l54.808 49.858c4.392 3.995 6.931 9.691 6.967 15.628l.168 27.408c.084 13.733 5.511 26.61 15.281 36.261 9.693 9.576 22.51 14.837 36.122 14.837.107 0 .214 0 .322-.001z" fill="#685e68"/></g><g><path d="m188.228 165.092-3.371.02c-11.687 0-21.23-9.471-21.301-21.173l-.168-27.408c-.087-14.328-6.217-28.075-16.815-37.717l-20.261 22.272c4.392 3.995 6.931 9.691 6.967 15.628l.168 27.408c.084 13.733 5.511 26.61 15.281 36.261 9.693 9.576 22.51 14.837 36.122 14.837l2.679-.015-.126-20.51c-.02-3.278.274-6.484.825-9.603z" fill="#814ba2"/></g><g><path d="m187.529 195.205-.126-20.51c-.02-3.278.274-6.484.825-9.603l-3.371.02c-11.625 0-21.12-9.373-21.291-20.989h-30.119c.084 13.733 5.511 26.61 15.281 36.261 9.693 9.576 22.51 14.837 36.122 14.837z" fill="#685e68"/></g></g><g><path d="m295.531 241.813c-8.028 4.79-17.198 7.383-26.771 7.441l-28 .001c-9.642.001-18.697-2.605-26.517-7.13-24.505 20.622-39.623 49.225-39.431 80.772.259 42.377 28.059 79.123 68.948 98.155 7.699 3.583 16.57 3.529 24.225-.148 40.653-19.531 68.001-56.614 67.742-98.991-.192-31.453-15.57-59.792-40.196-80.1z" fill="#7a6d79"/></g><g fill="#814ba2"><path d="m248.474 249.255h-7.714c-3.641 0-7.2-.37-10.641-1.074-10.595 19.922-16.942 45.98-16.768 74.48.255 41.65 14.36 77.926 35.122 97.341v-170.747z"/><path d="m279.614 248.07c-3.531.755-7.162 1.162-10.854 1.184h-7.286v172.291c.238-.19.475-.39.709-.605 21.123-19.411 35.264-56.414 35.005-98.791-.174-28.409-6.797-54.312-17.574-74.079z"/></g><path d="m247.474 422.463c4.886 1.488 10.064 1.625 15 .411v-173.62l-15 .001z" fill="#554e56"/><g><path d="m268.766 250.284h-27.666c-29.968.183-54.411-23.962-54.594-53.93v-21.652c-.183-29.968 23.83-54.411 53.798-54.594h27.667c29.968-.183 54.543 23.793 54.726 53.761v21.652c.183 29.968-23.963 54.58-53.931 54.763z" fill="#918291"/></g><g><path d="m240.761 219.38c-12.797 0-23.272-10.414-23.35-23.215v-21.653c-.037-6.238 2.223-12.119 6.608-16.557 4.384-4.439 10.235-6.904 16.475-6.942h27.816c12.797 0 23.404 10.244 23.483 23.045v21.652c.037 6.24-2.356 12.12-6.74 16.559-4.384 4.438-10.235 7.073-16.474 7.112h-27.818z" fill="#685e68"/></g><g><path d="m268.309 151.013h-27.816c-.084.001-.166.012-.25.014 12.55.288 22.858 10.414 22.935 23.031v21.652c.037 6.24-2.356 12.12-6.74 16.559-4.299 4.352-10.009 6.964-16.11 7.1.145.003.288.012.433.012h27.817c6.238-.038 12.09-2.674 16.474-7.112 4.384-4.439 6.778-10.319 6.74-16.559v-21.652c-.079-12.801-10.686-23.045-23.483-23.045z" fill="#554e56"/></g></g></svg>