<svg id="Capa_1" enable-background="new 0 0 512 512" height="512" viewBox="0 0 512 512" width="512" xmlns="http://www.w3.org/2000/svg"><g><g><g><g><path d="m406.894 468.197-25.351-25.662c-.558-.565-.862-1.313-.857-2.107v-84.493c.064-10.6-4.571-20.547-13.267-26.609l-36.554-25.49c.972 5.292 1.492 10.688 1.525 16.155.04 6.499-.625 12.918-1.922 19.199l20.235 14.11c.804.56.763 1.478.756 2.456v84.493c-.052 8.602 3.248 16.709 9.293 22.827l25.348 25.661c2.859 2.894 6.627 4.344 10.398 4.344 3.709 0 7.421-1.404 10.268-4.217 5.743-5.673 5.8-14.926.128-20.667z" fill="#685e68"/></g><g><path d="m351.461 363.003h29.226v65h-29.226z" fill="#814ba2"/></g></g><g><path d="m178.191 320.934c-.033-5.405.407-10.747 1.293-15.992l-34.968 24.384c-8.696 6.062-13.331 16.009-13.267 26.609v84.493c.005.794-.299 1.542-.857 2.107l-25.351 25.662c-5.671 5.742-5.614 14.994.127 20.666 2.847 2.813 6.559 4.217 10.268 4.217 3.77 0 7.539-1.45 10.398-4.344l25.348-25.661c6.045-6.118 9.345-14.225 9.293-22.827v-84.493c-.007-.978-.048-1.897.756-2.456l19.088-13.31c-1.355-6.226-2.089-12.597-2.128-19.055z" fill="#685e68"/></g><g><path d="m131.25 363.003h29.226v65h-29.226z" fill="#814ba2"/></g></g><g><g><g><path d="m197.62 261.254h-60.422c-7.856.055-15.406 2.972-21.257 8.214l-69.9 62.612c-.539.483-1.235.771-1.961.777h-22.068c-8.071.056-14.567 6.78-14.511 14.85.057 8.04 6.595 14.382 14.624 14.375h22.16c7.858-.055 15.409-2.992 21.258-8.234l69.899-62.611c.54-.484 1.236-.753 1.961-.758h44.68c3.492-10.457 8.767-20.282 15.537-29.225z" fill="#685e68"/></g><g><path d="m137.198 261.254c-7.856.054-15.406 2.972-21.257 8.214l-52.05 46.623 20.717 20.68 50.834-45.534c.54-.484 1.236-.753 1.961-.758l-.026-29.225z" fill="#814ba2"/></g></g><g><path d="m489.962 332.462h-22.068c-.726-.004-1.423-.272-1.962-.754l-70.01-62.488c-5.86-5.231-13.415-8.136-21.271-8.176h-62.037c6.85 8.923 12.204 18.748 15.761 29.226h46.123c.725.004 1.422.272 1.963.755l70.009 62.487c5.859 5.231 13.414 8.136 21.273 8.176h22.16c8.03-.007 14.556-6.38 14.599-14.421.04-8.07-6.469-14.763-14.54-14.805z" fill="#685e68"/><g><path d="m374.65 261.044c7.856.041 15.411 2.945 21.272 8.176l52.132 46.531-20.68 20.717-50.914-45.444c-.541-.483-1.237-.751-1.963-.755l-.026-29.225z" fill="#814ba2"/></g></g></g><g><g><path d="m318.162 212.073h30.216c11.697 0 22.923-4.294 31.635-12.11l42.231-35.689c5.858-4.95 13.266-7.661 20.977-7.602h30.153c8.071.049 14.573 6.816 14.524 14.886-.05 8.04-6.582 14.34-14.611 14.339h-30.244c-.007 0-.012 0-.018 0-.701 0-1.381.249-1.918.702l-41.748 35.272c-14.064 12.541-32.141 19.427-50.979 19.427l-52.599-.001c10.618-6.579 18.698-17.029 22.381-29.224z" fill="#685e68"/></g><g><path d="m422.244 164.275-42.231 35.689 19.346 21.909 41.747-35.273z" fill="#814ba2"/></g></g><g><path d="m240.769 125.092 27.182-.001c5.753 0 11.288.957 16.468 2.697 7.184-11.878 6.881-27.149-1.479-38.9-4.482-6.301-13.225-7.775-19.523-3.291-6.3 4.482-7.773 13.223-3.291 19.523 2.114 2.972 1.788 7.012-.775 9.607-2.91 2.946-7.677 2.976-10.624.064-2.626-2.594-2.977-6.66-.835-9.67 4.483-6.299 3.011-15.041-3.289-19.523-6.298-4.483-15.041-3.011-19.523 3.289-8.464 11.893-8.699 27.271-1.322 39.183 5.388-1.917 11.118-2.941 17.011-2.978z" fill="#685e68"/></g><g><path d="m191.741 212.827h-30.216c-11.697 0-22.923-4.294-31.635-12.11l-42.231-35.689c-5.858-4.95-13.266-7.661-20.977-7.602h-30.153c-8.071.049-14.573 6.816-14.524 14.886.05 8.04 6.582 14.34 14.611 14.339h30.244.018c.701 0 1.381.249 1.918.702l41.748 35.272c14.064 12.541 32.141 19.427 50.979 19.427l52.599-.001c-10.619-6.578-18.698-17.029-22.381-29.224z" fill="#685e68"/></g><g><path d="m87.659 165.029-18.863 22.325 41.748 35.273 19.345-21.909z" fill="#814ba2"/></g><g><g><path d="m432.284 34.471c-5.505-5.904-14.75-6.226-20.654-.724l-52.607 49.045c-10.172 9.484-15.958 22.899-15.874 36.807l.163 26.605c.07 11.403-9.149 20.736-20.552 20.806l-4.053.025c.567 3.003.887 6.091.907 9.25l.123 19.971 3.203-.02c27.517-.168 49.767-22.692 49.599-50.21l-.163-26.605c-.035-5.763 2.362-11.322 6.577-15.252l52.606-49.044c5.904-5.505 6.228-14.751.725-20.654z" fill="#685e68"/></g><g><path d="m378.953 104.168-19.93-21.377c-10.172 9.484-15.958 22.899-15.874 36.807l.163 26.605c.07 11.403-9.149 20.736-20.552 20.806l-4.053.025c.567 3.003.887 6.091.907 9.25l.123 19.971 3.203-.02c27.517-.168 49.767-22.692 49.599-50.21l-.163-26.605c-.035-5.763 2.362-11.322 6.577-15.252z" fill="#814ba2"/></g><g><path d="m343.312 146.204c.07 11.403-9.149 20.736-20.552 20.806l-4.053.025c.567 3.003.887 6.091.907 9.25l.123 19.971 3.203-.02c27.517-.168 49.767-22.692 49.599-50.21h-29.228z" fill="#685e68"/></g><g><path d="m291.941 67.35c6.997 10.459 8.914 23.364 5.26 35.406l-8.113 26.731c9.586 4.331 17.638 11.497 23.06 20.431l11.846-39.03c6.102-20.103 2.9-41.646-8.781-59.107l-17.82-26.638c-4.298-6.426-12.994-8.149-19.42-3.851-6.427 4.299-8.151 12.994-3.852 19.421z" fill="#685e68"/></g><g><path d="m315.213 51.781-23.272 15.569c6.997 10.459 8.914 23.364 5.26 35.406l-8.113 26.731c9.586 4.331 17.638 11.497 23.06 20.431l11.846-39.03c6.102-20.103 2.901-41.647-8.781-59.107z" fill="#814ba2"/></g><g><path d="m196.425 150.817c5.279-9.051 13.227-16.359 22.767-20.841l-8.459-26.691c-3.801-11.996-2.042-24.924 4.826-35.468l17.493-26.854c4.221-6.479 2.39-15.152-4.089-19.372-6.479-4.221-15.151-2.39-19.372 4.089l-17.493 26.854c-11.467 17.603-14.403 39.183-8.057 59.209z" fill="#685e68"/></g><g><path d="m210.734 103.285c-3.801-11.996-2.042-24.924 4.826-35.468l-23.461-15.283c-11.467 17.603-14.403 39.183-8.057 59.209l12.383 39.074c5.279-9.051 13.227-16.359 22.767-20.841z" fill="#814ba2"/></g><g><path d="m187.248 197.004 2.287-.014-.122-19.909c-.019-3.182.266-6.294.801-9.322l-3.145.019c-.043 0-.085 0-.127 0-11.344 0-20.608-9.194-20.677-20.553l-.163-26.605c-.085-13.908-6.035-27.253-16.323-36.612l-53.203-48.396c-5.969-5.431-15.212-4.994-20.643.976s-4.994 15.213.976 20.643l53.202 48.397c4.263 3.878 6.728 9.407 6.763 15.17l.163 26.605c.082 13.33 5.35 25.83 14.833 35.199 9.409 9.295 21.85 14.402 35.064 14.402.104.001.209.001.314 0z" fill="#685e68"/></g><g><path d="m190.214 167.759-3.272.019c-11.344 0-20.608-9.194-20.677-20.553l-.163-26.605c-.085-13.908-6.035-27.253-16.323-36.612l-19.667 21.62c4.263 3.878 6.728 9.407 6.763 15.17l.163 26.605c.082 13.33 5.35 25.83 14.833 35.199 9.409 9.295 21.85 14.402 35.064 14.402l2.6-.015-.122-19.909c-.02-3.181.266-6.293.801-9.321z" fill="#814ba2"/></g><g><path d="m189.535 196.99-.122-19.909c-.019-3.182.266-6.294.801-9.322l-3.272.019c-11.284 0-20.501-9.099-20.667-20.374h-29.237c.082 13.33 5.35 25.83 14.833 35.199 9.409 9.295 21.85 14.402 35.064 14.402z" fill="#685e68"/></g></g><g><path d="m294.373 242.232c-7.792 4.649-16.694 7.166-25.987 7.223l-27.18.001c-9.359.001-18.149-2.528-25.74-6.921-23.787 20.018-38.463 47.783-38.275 78.405.252 41.135 27.237 76.805 66.928 95.279 7.473 3.479 16.085 3.426 23.515-.144 39.461-18.958 66.009-54.955 65.757-96.091-.186-30.53-15.113-58.039-39.018-77.752z" fill="#918291"/></g><g><path d="m268.386 249.455-27.18.001c-3.535 0-6.989-.359-10.329-1.042-10.285 19.338-16.445 44.633-16.276 72.298.252 41.135 14.416 76.883 35.149 95.474 3.904 3.5 8.39 3.473 12.251-.075 20.504-18.842 34.231-54.761 33.979-95.896-.169-27.577-6.598-52.721-17.059-71.909-3.427.733-6.951 1.127-10.535 1.149z" fill="#814ba2"/></g><g><path d="m268.392 250.455h-26.856c-29.09.178-52.817-23.26-52.994-52.35v-21.018c-.178-29.09 23.132-52.817 52.222-52.994h26.856c29.09-.178 52.945 23.096 53.123 52.186v21.018c.177 29.089-23.261 52.98-52.351 53.158z" fill="#918291"/></g><g><path d="m241.207 220.456c-12.422 0-22.59-10.109-22.666-22.535v-21.019c-.036-6.055 2.158-11.764 6.414-16.072 4.256-4.309 9.936-6.702 15.992-6.739h27.001c12.422 0 22.719 9.944 22.795 22.37v21.018c.036 6.057-2.287 11.765-6.543 16.074-4.256 4.308-9.936 6.866-15.991 6.903z" fill="#685e68"/></g><g><path d="m267.948 154.092h-27.001c-.082 0-.161.012-.242.013 12.182.28 22.188 10.109 22.263 22.356v21.018c.036 6.057-2.287 11.765-6.543 16.074-4.173 4.224-9.716 6.76-15.638 6.892.14.003.28.011.421.011h27.002c6.056-.037 11.735-2.595 15.991-6.903 4.256-4.309 6.579-10.017 6.543-16.074v-21.018c-.077-12.425-10.374-22.369-22.796-22.369z" fill="#554e56"/></g><g><path d="m298.243 197.479v-21.063c-.101-16.445-13.691-29.824-30.295-29.824h-27.047c-8.061.049-15.618 3.234-21.282 8.968-5.58 5.649-8.627 13.245-8.578 21.343v21.065c.102 16.536 13.634 29.989 30.166 29.989h27.048c7.954-.049 15.512-3.292 21.281-9.133 5.663-5.734 8.755-13.33 8.707-21.345zm-15 .045c.024 4.054-1.531 7.875-4.379 10.758-2.953 2.99-6.754 4.65-10.655 4.674h-27.002c-8.312 0-15.115-6.765-15.166-15.035v-21.064c-.025-4.197 1.444-7.916 4.25-10.756 2.848-2.883 6.648-4.484 10.656-4.509h27.001c8.384 0 15.245 6.691 15.295 14.87z"/><path d="m489.962 324.962h-20.327l-33.329-29.749c-3.091-2.758-7.831-2.489-10.59.601-2.758 3.09-2.489 7.831.602 10.589l10.825 9.663-10.066 10.084-45.084-40.239-.015-16.18c3.279 1.046 6.337 2.753 8.949 5.084l9.276 8.28c3.088 2.759 7.831 2.489 10.589-.601 2.759-3.09 2.49-7.831-.601-10.59l-9.276-8.28c-7.227-6.451-16.541-10.031-26.266-10.081h-.179c-.002 0-.005 0-.007 0h-58.201c-1.324-1.611-2.708-3.19-4.137-4.746l36.255.001c20.634 0 40.478-7.549 55.892-21.26l40.409-34.141h28.605.001c12.117 0 22.036-9.776 22.11-21.793.036-5.894-2.214-11.477-6.336-15.722-4.167-4.291-9.723-6.674-15.688-6.71h-30.095c-9.436-.049-18.637 3.257-25.875 9.374l-42.397 35.834c-7.327 6.573-16.784 10.192-26.628 10.192h-20.543c.042-.364.075-.73.11-1.096 29.32-2.705 52.276-27.517 52.094-57.497l-.163-26.605c-.022-3.673 1.505-7.216 4.191-9.721l52.606-49.044c4.32-4.028 6.813-9.497 7.021-15.4.207-5.903-1.897-11.534-5.926-15.854-8.313-8.917-22.334-9.408-31.254-1.095l-52.606 49.045c-11.701 10.909-18.356 26.341-18.259 42.339l.163 26.605c.038 6.304-4.38 11.609-10.293 12.936-1.224-4.019-2.866-7.856-4.864-11.47l10.516-34.65c6.757-22.262 3.212-46.119-9.725-65.455l-17.819-26.637c-3.192-4.773-8.054-8.018-13.687-9.135-5.636-1.119-11.364.026-16.137 3.219s-8.018 8.054-9.135 13.687.026 11.364 3.22 16.138l17.82 26.638c3.403 5.087 5.329 10.879 5.719 16.811-.729-1.293-1.504-2.565-2.376-3.79-3.329-4.68-8.282-7.783-13.945-8.738-5.658-.954-11.359.353-16.037 3.683-1.985 1.412-3.687 3.116-5.061 5.043-1.373-1.926-3.073-3.629-5.057-5.041-4.68-3.33-10.373-4.64-16.038-3.685-5.664.954-10.616 4.057-13.945 8.735-.977 1.372-1.841 2.8-2.639 4.254.318-5.937 2.173-11.753 5.514-16.882l17.493-26.853c3.135-4.812 4.208-10.557 3.021-16.176-1.186-5.619-4.489-10.44-9.3-13.574-4.812-3.135-10.558-4.207-16.177-3.022-5.618 1.186-10.439 4.489-13.574 9.301l-17.491 26.854c-12.698 19.493-15.95 43.392-8.922 65.569l11.008 34.736c-1.853 3.524-3.341 7.223-4.455 11.046-5.539-1.534-9.646-6.6-9.682-12.611l-.163-26.605c-.097-15.998-6.94-31.348-18.775-42.114l-53.202-48.397c-9.019-8.206-23.033-7.542-31.238 1.477-3.975 4.37-6.011 10.025-5.731 15.925s2.839 11.338 7.208 15.313l11.884 10.81c3.064 2.787 7.809 2.562 10.595-.502 2.787-3.064 2.562-7.807-.501-10.595l-11.886-10.809c-1.405-1.278-2.229-3.028-2.318-4.926s.564-3.717 1.844-5.123c2.64-2.901 7.148-3.115 10.049-.476l47.654 43.35-9.573 10.524-9.878-8.985c-3.064-2.788-7.809-2.563-10.595.501-2.787 3.064-2.563 7.808.501 10.595l15.426 14.032c2.717 2.471 4.287 5.995 4.31 9.668l.163 26.605c.095 15.333 6.154 29.713 17.062 40.488 9.486 9.372 21.676 15.048 34.785 16.3.039.365.095.726.14 1.089h-20c-9.844 0-19.3-3.62-26.626-10.192-.056-.049-.111-.098-.168-.146l-42.231-35.688c-7.162-6.053-16.232-9.375-25.519-9.375-.099 0-.199 0-.299.001h-30.198c-5.921.036-11.476 2.419-15.643 6.71-4.122 4.245-6.372 9.828-6.337 15.722.074 12.018 9.994 21.793 22.111 21.793h28.605l40.409 34.141c15.415 13.711 35.26 21.261 55.892 21.261l36.024-.001c-1.236 1.381-2.442 2.778-3.597 4.201h-56.803c-9.686.067-18.994 3.665-26.209 10.128l-68.63 61.474h-20.345c-12.193.087-22.044 10.136-21.96 22.406.087 12.037 10.004 21.822 22.105 21.822h.021 22.211c9.676-.067 18.984-3.671 26.21-10.147l68.61-61.455h33.016c-.255 1.132-.489 2.269-.705 3.409l-31.24 21.784c-10.553 7.356-16.559 19.314-16.478 32.762v82.652l-24.044 24.339c-8.568 8.675-8.481 22.704.192 31.271 4.165 4.115 9.684 6.382 15.539 6.382 5.958 0 11.546-2.334 15.734-6.573l25.347-25.66c7.452-7.543 11.521-17.538 11.458-28.098v-82.508l7.081-4.938c9.986 29.594 33.404 55.092 65.895 70.216 4.703 2.188 9.737 3.282 14.772 3.282 5.175 0 10.35-1.156 15.156-3.465 32.212-15.475 55.274-41.158 64.947-70.765l8.132 5.67v82.462c-.064 10.605 4.004 20.6 11.457 28.143l25.348 25.661c4.188 4.238 9.774 6.572 15.733 6.572 5.855 0 11.374-2.266 15.539-6.381 8.674-8.569 8.76-22.597.192-31.272l-24.044-24.339v-82.606c.082-13.492-5.924-25.45-16.477-32.807l-32.859-22.913c-.169-.833-.351-1.663-.541-2.491h34.442l68.721 61.336c7.224 6.451 16.539 10.032 26.268 10.082h22.167c12.117-.011 22.028-9.827 22.092-21.882.065-12.256-9.804-22.279-22.036-22.343zm-73.219-285.729c2.871-2.675 7.38-2.516 10.056.352 1.295 1.39 1.972 3.201 1.905 5.099-.066 1.899-.869 3.659-2.259 4.955l-47.121 43.93-9.701-10.405zm-57.622 54.661 9.934 10.655c-2.729 4.449-4.211 9.619-4.178 14.918l.117 19.059h-14.227l-.116-18.973c-.058-9.286 2.977-18.307 8.47-25.659zm-9.246 59.632h14.54c-3.119 18.151-17.813 32.414-36.227 34.835l-.074-12.128c-.005-.755-.039-1.503-.071-2.25 10.613-2.073 19.097-10.113 21.832-20.457zm-289.337 194.737c-4.501 4.033-10.291 6.277-16.253 6.319h-22.165c-.002 0-.005 0-.007 0-3.961 0-7.084-3.042-7.111-6.927-.027-3.997 3.142-7.271 7.012-7.298h22.123c2.541-.019 4.995-.974 6.91-2.69l12.566-11.256 10.084 10.066zm24.349-21.811-10.084-10.066 46.143-41.332c2.612-2.34 5.672-4.054 8.945-5.105l.009 16.184zm53.864 44.051h14.226v50h-14.226zm14.226 69.791c.04 6.599-2.491 12.818-7.129 17.511l-25.347 25.66c-1.348 1.364-3.146 2.115-5.063 2.115-1.883 0-3.657-.729-4.997-2.053-2.791-2.756-2.818-7.269-.062-10.059l25.348-25.66c1.968-1.99 3.041-4.627 3.024-7.38v-4.925h14.227v4.791zm3.968-93.147c-3.849 2.682-3.976 6.766-3.97 8.356h-14.216c.062-8.32 3.705-15.603 10.048-20.026l20.884-14.563c0 .024-.001.048 0 .072.034 5.494.525 10.927 1.436 16.272zm244.613 126.32c2.756 2.791 2.729 7.303-.062 10.06-1.34 1.323-3.115 2.052-4.998 2.052-1.918 0-3.715-.751-5.062-2.114l-25.349-25.661c-4.637-4.693-7.169-10.912-7.128-17.555v-4.746h14.226v4.888c-.014 2.797 1.061 5.431 3.021 7.415zm-28.372-52.964h-14.226v-50h14.226zm-32.295-100.533 22.239 15.508c6.333 4.415 9.973 11.681 10.046 20.025h-14.215c.006-1.581-.117-5.671-3.969-8.355l-15.374-10.72c.867-5.41 1.305-10.906 1.273-16.458zm102.33-155.797h30.106c1.865.011 3.631.778 4.973 2.16 1.365 1.405 2.109 3.245 2.098 5.18-.023 3.861-3.147 6.886-7.111 6.886h-29.292l-10.411-12.322c3.026-1.252 6.292-1.921 9.637-1.904zm-21.865 10.672 9.18 10.866-30.414 25.696-9.414-10.662zm-72.978 44.728c11.004 0 21.655-3.288 30.671-9.37l9.47 10.725c-11.668 8.335-25.663 12.872-40.139 12.872l-32.208-.001c3.249-4.33 5.927-9.109 7.93-14.226zm-31.561-110.864-7.418 24.442c-3.345-3.178-7.056-5.975-11.059-8.324l6.038-19.894c3.573-11.776 2.615-24.246-2.516-35.196l10.906-7.296c7.246 14.257 8.762 30.742 4.049 46.268zm-36.462-72.167c-.966-1.443-1.311-3.176-.974-4.879.338-1.703 1.318-3.172 2.762-4.138 1.442-.965 3.177-1.31 4.879-.973 1.703.337 3.172 1.317 4.138 2.761l13.65 20.404-10.805 7.229zm-15.231 59.382c.288-1.712 1.227-3.209 2.643-4.217 1.414-1.006 3.136-1.401 4.847-1.113 1.712.289 3.209 1.227 4.216 2.642 5.147 7.235 6.484 16.451 3.868 24.713-4.098-.885-8.348-1.357-12.704-1.357-.123 0-.251 0-.374.001h-.414c2.67-4.922 2.422-11.056-.968-15.82-1.007-1.415-1.403-3.137-1.114-4.849zm-33.933-2.689c1.006-1.414 2.503-2.352 4.215-2.64 1.716-.287 3.436.107 4.849 1.114 1.415 1.006 2.353 2.504 2.641 4.216.289 1.712-.106 3.434-1.114 4.849-3.404 4.785-3.648 10.901-.973 15.819h-.089c-4.554.028-9.021.575-13.349 1.582-2.717-8.305-1.401-17.605 3.82-24.94zm-32.258 40.67-7.741-24.428c-4.902-15.467-3.588-31.969 3.483-46.315l10.995 7.163c-4.997 11.012-5.802 23.494-2.086 35.225l6.268 19.778c-3.918 2.396-7.576 5.272-10.919 8.577zm16.943-104.131c.948-1.455 2.405-2.454 4.104-2.813 1.698-.36 3.435-.034 4.89.914s2.453 2.405 2.812 4.104c.358 1.699.034 3.435-.914 4.89l-13.4 20.57-10.892-7.096zm-57.157 110.13h-14.227l-.117-19.151c-.032-5.299-1.577-10.449-4.36-14.865l9.803-10.776c5.583 7.285 8.727 16.268 8.783 25.555zm-13.457 15h14.614c2.87 9.902 11.043 17.587 21.21 19.754-.027.808-.049 1.616-.044 2.429v12.006c-8.998-1.246-17.328-5.333-23.901-11.826-6.237-6.161-10.316-13.92-11.879-22.363zm-35.483 57.258-30.414-25.697 9.181-10.867 30.648 25.9zm-80.275-39.894c-.012-1.936.733-3.776 2.098-5.181 1.342-1.381 3.107-2.148 4.927-2.16h30.211c3.306-.024 6.559.647 9.582 1.9l-10.414 12.325h-29.292c-3.964.001-7.088-3.024-7.112-6.884zm91.88 49.414 9.47-10.725c9.015 6.082 19.666 9.371 30.67 9.371h23.881c2.047 5.069 4.79 9.85 8.183 14.226l-32.066.001c-14.474-.001-28.469-4.538-40.138-12.873zm55.402 61.297h-31.89l-.013-14.225h38.739c-2.648 4.607-4.927 9.359-6.836 14.225zm70.718 119.959c-12.308-15.128-21.125-37.781-24.169-62.84-.499-4.112-4.248-7.035-8.35-6.541-4.112.5-7.04 4.238-6.541 8.35 2.464 20.282 8.241 38.87 16.567 54.18-25.164-18.977-40.144-46.204-40.321-75.193-.155-25.468 10.829-49.638 31.042-68.565 1.355.635 2.74 1.203 4.138 1.733-6.607 15.274-10.812 32.836-12.231 51.369-.315 4.13 2.776 7.734 6.906 8.05 4.133.319 7.734-2.775 8.051-6.906 1.368-17.886 5.531-34.695 12.098-48.973h.001c2.135.228 4.29.354 6.465.354.125 0 .251 0 .376-.001h5.968zm-6.014-159.983c-12.065.044-23.438-4.556-32.022-13.035-8.584-8.48-13.352-19.795-13.426-31.815v-21.063c-.074-12.079 4.535-23.454 12.979-32.032 8.445-8.579 19.734-13.343 31.742-13.417h26.901c.094 0 .188-.001.281-.001 24.781 0 45.017 20.009 45.168 44.732l.128 21.019c.152 24.991-19.976 45.448-44.873 45.613h-26.878zm21.014 161.828v-146.828h5.889.046c2.271-.014 4.508-.166 6.713-.426.005 0 .01.004.015.003.011-.001.022-.002.032-.003 8.451 17.9 13.142 39.945 13.281 62.731.208 33.923-9.606 65.395-25.976 84.523zm23.911-9.012c10.995-20.859 17.237-47.586 17.066-75.603-.146-23.819-4.909-47.019-13.509-66.365 1.42-.559 2.818-1.162 4.183-1.823 20.353 18.66 31.581 42.649 31.736 68.051.178 29.019-14.498 56.453-39.476 75.74zm47.227-113.001c-1.937-4.872-4.256-9.621-6.934-14.225h40.269l.013 14.225zm156.259 71.418h-22.121c-6.028-.031-11.822-2.258-16.317-6.272l-13.178-11.762 10.066-10.084 12.587 11.235c1.905 1.7 4.361 2.644 6.957 2.658h22.029c3.923.021 7.097 3.28 7.076 7.265-.021 3.899-3.142 6.957-7.099 6.96z"/></g></g></svg>