<svg id="Capa_1" enable-background="new 0 0 512 512" height="512" viewBox="0 0 512 512" width="512" xmlns="http://www.w3.org/2000/svg"><g><g><g><path d="m114.471 384.726c0 6.447-5.079 11.693-11.451 11.993.164.007.323.029.489.029h38.727c6.639 0 12.021-5.382 12.021-12.021v-41.53h-39.787v41.529z" fill="#97d729"/></g><g><path d="m347.527 343.195h-39.765l9.962 38.52c1.927 7.453-3.549 14.706-11.159 15.003.186.009.37.028.558.028h38.727c7.861 0 13.607-7.421 11.638-15.031z" fill="#97d729"/></g></g><g><path d="m511.959 176.484c-1.096-28.844-24.684-52.298-53.533-53.239-22.783-.744-42.611 12.267-51.815 31.361l-51.615 97.09c.642 4.07 1.139 8.177 1.468 12.316.21 2.631-.539 5.255-2.111 7.387l-.922 1.251 1.512.361c6.728 1.607 11.428 7.557 11.428 14.471v2.965c0 8.212-6.681 14.894-14.893 14.894h-301.902l-47.927 31.21c-3.014 1.963-1.624 6.644 1.973 6.644h58.424l-9.962 38.52c-1.968 7.611 3.777 15.031 11.638 15.031h38.727c6.639 0 12.021-5.382 12.021-12.021v-41.53h140.867v41.53c0 6.639 5.382 12.021 12.021 12.021h38.727c7.861 0 13.607-7.421 11.638-15.031l-9.962-38.52h43.396c27.102 0 51.927-15.157 64.31-39.263l33.528-65.269c1.448-2.819 4.352-4.591 7.522-4.59h.051c31.332.001 56.591-25.992 55.391-57.589z" fill="#bbec6c"/></g><g><g><g><path d="m90.261 366.57c0 6.639-5.382 12.021-12.021 12.021h-25.348l-.808 3.124c-1.968 7.611 3.777 15.031 11.638 15.031h38.727c6.639 0 12.021-5.382 12.021-12.021v-41.53h-13.907c-5.69 0-10.302 4.612-10.302 10.302z" fill="#a2e62e"/></g></g><g><path d="m511.959 176.484c-.857-22.561-15.475-41.822-35.608-49.595 6.761 8.809 10.952 19.675 11.399 31.439 1.2 31.597-24.059 57.589-55.388 57.589h-.051c-3.171 0-6.075 1.773-7.524 4.594l-33.526 65.265c-12.384 24.107-37.209 39.263-64.31 39.263h-30.091c-6.737 0-11.66 6.359-9.974 12.881l6.631 25.639c1.968 7.611-3.777 15.031-11.638 15.031h-26.539v6.134c0 6.639 5.382 12.021 12.021 12.021h38.727c7.861 0 13.607-7.421 11.638-15.031l-9.962-38.52h43.396c27.101 0 51.927-15.157 64.311-39.263l33.526-65.265c1.449-2.82 4.353-4.594 7.524-4.594h.051c31.328.002 56.587-25.991 55.387-57.588z" fill="#a2e62e"/></g></g><g><path d="m469.825 178.928c-4.143 0-7.5-3.358-7.5-7.5v-12.063c0-4.142 3.357-7.5 7.5-7.5s7.5 3.358 7.5 7.5v12.063c0 4.142-3.357 7.5-7.5 7.5z" fill="#7a6d79"/></g><g><g><path d="m41.179 272.59h310.299c1.023 0 2.022.104 2.987.301 2.105-2.359 3.299-5.536 3.026-8.96-6.621-83.214-76.247-148.678-161.163-148.678s-154.542 65.464-161.163 148.678c-.272 3.424.921 6.601 3.026 8.96.966-.197 1.965-.301 2.988-.301z" fill="#d88a55"/></g><g><path d="m314.639 263.931c.261 3.282-.83 6.333-2.774 8.659h39.613c1.023 0 2.022.104 2.987.301 2.105-2.359 3.299-5.536 3.026-8.96-6.621-83.214-76.247-148.678-161.163-148.678-7.265 0-14.415.49-21.426 1.419 74.939 9.924 133.682 71.165 139.737 147.259z" fill="#c57a44"/></g><path d="m259.306 191.149 17.667-54.372c-4.378-2.525-8.884-4.852-13.508-6.966l-17.459 53.732h-99.356l-17.459-53.732c-4.625 2.114-9.131 4.442-13.509 6.966l17.667 54.373-24.032 81.44h15.639l21.851-74.047h99.042l21.851 74.047h15.639z" fill="#ea9b58"/><g><path d="m25.255 287.483v2.966c0 8.795 7.129 15.924 15.924 15.924h310.299c8.795 0 15.924-7.129 15.924-15.924v-2.966c0-8.795-7.129-15.924-15.924-15.924h-310.3c-8.794 0-15.923 7.13-15.923 15.924z" fill="#ffd15b"/></g><g><path d="m351.478 271.559h-54.615c8.795 0 15.924 7.129 15.924 15.924v2.966c0 8.794-7.129 15.924-15.924 15.924h54.615c8.795 0 15.924-7.129 15.924-15.924v-2.966c-.001-8.794-7.13-15.924-15.924-15.924z" fill="#ffc344"/></g></g></g></svg>