<svg id="Capa_1" enable-background="new 0 0 512 512" height="512" viewBox="0 0 512 512" width="512" xmlns="http://www.w3.org/2000/svg"><g><g><g><g><path d="m366.951 152.365v-22.846c0-5.606-4.545-10.151-10.151-10.151h-24.616c-5.606 0-10.151 4.545-10.151 10.151v22.846z" fill="#c8effe"/></g></g><path d="m351.992 152.349v-144.849c0-4.142-3.357-7.5-7.5-7.5s-7.5 3.358-7.5 7.5v144.849z" fill="#cbc4cc"/><g><path d="m309.32 289.061h70.345v106.306h-70.345z" fill="#dff6fd"/></g><g><g><path d="m369.514 151.349h-50.044c-5.606 0-10.151 4.545-10.151 10.151v95.681h70.346v-95.681c0-5.606-4.545-10.151-10.151-10.151z" fill="#bbec6c"/></g></g><g><path d="m369.514 151.349h-27.942c5.606 0 10.151 4.545 10.151 10.151v95.681h27.942v-95.681c0-5.606-4.545-10.151-10.151-10.151z" fill="#a2e62e"/></g><g><g><path d="m332.676 289.046h23.632v106.321h-23.632z" fill="#99e6fc"/></g><g><path d="m332.676 424.161h23.632v54.946h-23.632z" fill="#dff6fd"/></g></g><g><path d="m309.32 257.181h70.346v32.88h-70.346z" fill="#918291"/></g><g><path d="m351.723 257.181h27.942v32.88h-27.942z" fill="#7a6d79"/></g><g><path d="m391.03 394.352h-93.075c-2.803 0-5.075 2.272-5.075 5.075v20.674c0 2.803 2.272 5.075 5.075 5.075h93.075c2.803 0 5.075-2.272 5.075-5.075v-20.674c0-2.803-2.272-5.075-5.075-5.075z" fill="#c8effe"/></g><g><path d="m391.03 394.352h-41.955c2.803 0 5.075 2.272 5.075 5.075v20.674c0 2.803-2.272 5.075-5.075 5.075h41.955c2.803 0 5.075-2.272 5.075-5.075v-20.674c0-2.803-2.272-5.075-5.075-5.075z" fill="#99e6fc"/></g><g><path d="m382.784 478.093h-76.583c-2.803 0-5.075 2.272-5.075 5.075v23.756c0 2.803 2.272 5.075 5.075 5.075h76.583c2.803 0 5.075-2.272 5.075-5.075v-23.756c0-2.803-2.272-5.075-5.075-5.075z" fill="#c8effe"/></g><g><path d="m382.784 478.093h-31.929c2.803 0 5.075 2.272 5.075 5.075v23.756c0 2.803-2.272 5.075-5.075 5.075h31.929c2.803 0 5.075-2.272 5.075-5.075v-23.756c0-2.803-2.272-5.075-5.075-5.075z" fill="#99e6fc"/></g><g fill="#97d729"><path d="m379.665 172.058h-23.49c-4.143 0-7.5 3.358-7.5 7.5s3.357 7.5 7.5 7.5h23.49z"/><path d="m379.665 198.406h-23.49c-4.143 0-7.5 3.358-7.5 7.5s3.357 7.5 7.5 7.5h23.49z"/><path d="m379.665 224.754h-23.49c-4.143 0-7.5 3.358-7.5 7.5s3.357 7.5 7.5 7.5h23.49z"/></g></g><g><g><g><g><path d="m152.356 274.438h74.369v34.482h-74.369z" fill="#dff6fd"/></g><g><path d="m201.185 275.453h25.539v32.452h-25.539z" fill="#c8effe"/></g><g><path d="m251.691 512h-124.302c-6.348 0-11.494-5.146-11.494-11.494v-163.867c0-15.87 12.865-28.735 28.735-28.735h89.82c15.87 0 28.735 12.865 28.735 28.735v163.867c0 6.348-5.146 11.494-11.494 11.494z" fill="#c8effe"/></g><g><path d="m234.45 307.904h-42.611c15.87 0 28.735 12.865 28.735 28.735v163.867c0 6.348-5.146 11.494-11.494 11.494h42.611c6.348 0 11.494-5.146 11.494-11.494v-163.867c0-15.87-12.865-28.735-28.735-28.735z" fill="#99e6fc"/></g><g><path d="m115.895 465.813v34.693c0 6.348 5.146 11.494 11.494 11.494h124.302c6.348 0 11.494-5.146 11.494-11.494v-34.693z" fill="#f2fbff"/></g><g><path d="m263.185 500.506v-34.693h-42.611v34.693c0 6.348-5.146 11.494-11.494 11.494h42.611c6.348 0 11.494-5.146 11.494-11.494z" fill="#dff6fd"/></g><g><path d="m233.863 224.222h-88.646c-5.641 0-10.214 4.573-10.214 10.214v30.803c0 5.641 4.573 10.214 10.214 10.214h88.646c5.641 0 10.214-4.573 10.214-10.214v-30.803c0-5.641-4.573-10.214-10.214-10.214z" fill="#e2dee2"/></g><g><path d="m233.863 224.222h-21.512v19.7c0 5.641-4.573 10.214-10.214 10.214h-67.134v11.103c0 5.641 4.573 10.214 10.214 10.214h88.646c5.641 0 10.214-4.573 10.214-10.214v-30.803c0-5.641-4.573-10.214-10.214-10.214z" fill="#cbc4cc"/></g></g></g><g><g><g><g><path d="m211.594 400.178c-3.025-1.284-5.305-3.815-6.535-6.862-2.478-6.14-8.492-10.472-15.519-10.472s-13.041 4.333-15.519 10.472c-1.23 3.047-3.51 5.578-6.535 6.862-6.23 2.644-10.527 8.953-10.18 16.224.408 8.541 7.364 15.492 15.906 15.894 3.503.165 6.782-.749 9.535-2.436 4.196-2.572 9.39-2.572 13.586 0 2.753 1.688 6.032 2.601 9.535 2.436 8.542-.402 15.498-7.353 15.906-15.894.347-7.271-3.95-13.58-10.18-16.224z" fill="#0593fc"/></g></g></g><g><path d="m211.594 400.178c-3.025-1.284-5.306-3.815-6.535-6.862-2.478-6.14-8.491-10.472-15.519-10.472-6.74 0-12.539 3.991-15.189 9.734 5.063 1.38 9.174 5.068 11.114 9.874 1.23 3.047 3.51 5.578 6.535 6.862 6.23 2.644 10.527 8.953 10.18 16.224-.105 2.195-.648 4.282-1.534 6.183 1.653.451 3.406.661 5.221.576 8.542-.402 15.498-7.353 15.906-15.894.348-7.272-3.949-13.581-10.179-16.225z" fill="#0182fc"/></g><g><g><ellipse cx="189.54" cy="351.336" fill="#0593fc" rx="11.166" ry="12.553"/></g></g><g><g><g><ellipse cx="153.839" cy="368.936" fill="#0593fc" rx="11.166" ry="12.554"/></g></g><g><g><ellipse cx="225.24" cy="368.936" fill="#0593fc" rx="11.166" ry="12.553"/></g></g></g></g><g><path d="m213.902 479.01h-48.724c-7.288 0-13.196-5.908-13.196-13.196 0-7.288 5.908-13.196 13.196-13.196h48.724c7.288 0 13.196 5.908 13.196 13.196 0 7.287-5.908 13.196-13.196 13.196z" fill="#0593fc"/></g><g><path d="m213.902 452.617h-30.989c7.288 0 13.196 5.908 13.196 13.196s-5.908 13.196-13.196 13.196h30.989c7.288 0 13.196-5.908 13.196-13.196s-5.908-13.196-13.196-13.196z" fill="#0182fc"/></g></g><g><g><g><path d="m156.733 151.278-11.21 19.416c-6.087 10.543 1.522 23.722 13.696 23.722 12.174 0 19.783-13.179 13.696-23.722l-11.21-19.416c-1.104-1.914-3.867-1.914-4.972 0z" fill="#bbec6c"/></g><g><path d="m217.374 151.278-11.21 19.416c-6.087 10.543 1.522 23.722 13.696 23.722 12.174 0 19.783-13.179 13.696-23.722l-11.21-19.416c-1.105-1.914-3.867-1.914-4.972 0z" fill="#bbec6c"/></g></g><g><path d="m187.053 86.416-11.21 19.416c-6.087 10.543 1.522 23.722 13.696 23.722 12.174 0 19.783-13.179 13.696-23.722l-11.21-19.416c-1.104-1.914-3.867-1.914-4.972 0z" fill="#bbec6c"/></g></g></g></svg>