<svg id="Capa_1" enable-background="new 0 0 512 512" height="512" viewBox="0 0 512 512" width="512" xmlns="http://www.w3.org/2000/svg"><g><g><g><g><path d="m365.302 150.211v-22.506c0-5.523-4.477-10-10-10h-24.25c-5.523 0-10 4.477-10 10v22.506z" fill="#c8effe"/></g></g><g><path d="m377.827 389.601v-230.39c0-5.523-4.477-10-10-10h-49.3c-5.523 0-10 4.477-10 10v230.39z" fill="#dff6fd"/></g><g><g><path d="m367.827 149.211h-49.3c-5.523 0-10 4.477-10 10v94.259h69.3v-94.259c0-5.523-4.477-10-10-10z" fill="#bbec6c"/></g></g><g><path d="m367.827 149.211h-27.527c5.523 0 10 4.477 10 10v94.259h27.527v-94.259c0-5.523-4.477-10-10-10z" fill="#a2e62e"/></g><g><g><path d="m331.536 284.86h23.281v104.74h-23.281z" fill="#99e6fc"/></g><g><path d="m331.536 417.967h23.281v54.129h-23.281z" fill="#dff6fd"/></g></g><g><path d="m308.527 253.469h69.3v32.391h-69.3z" fill="#918291"/></g><g><path d="m350.3 253.469h27.527v32.391h-27.527z" fill="#7a6d79"/></g><g><path d="m389.022 388.601h-91.691c-2.761 0-5 2.239-5 5v20.367c0 2.761 2.239 5 5 5h91.691c2.761 0 5-2.239 5-5v-20.367c0-2.762-2.238-5-5-5z" fill="#c8effe"/></g><g><path d="m389.022 388.601h-41.331c2.761 0 5 2.239 5 5v20.367c0 2.761-2.239 5-5 5h41.331c2.761 0 5-2.239 5-5v-20.367c0-2.762-2.238-5-5-5z" fill="#99e6fc"/></g><g><path d="m380.899 471.097h-75.445c-2.761 0-5 2.239-5 5v23.403c0 2.761 2.239 5 5 5h75.445c2.761 0 5-2.239 5-5v-23.403c0-2.762-2.239-5-5-5z" fill="#c8effe"/></g><g><path d="m380.899 471.097h-31.455c2.761 0 5 2.239 5 5v23.403c0 2.761-2.239 5-5 5h31.455c2.761 0 5-2.239 5-5v-23.403c0-2.762-2.238-5-5-5z" fill="#99e6fc"/></g></g><g><g><g><g><path d="m153.896 270.469h73.263v33.969h-73.263z" fill="#dff6fd"/></g><g><path d="m202 271.469h25.159v31.969h-25.159z" fill="#c8effe"/></g><g><path d="m251.755 504.5h-122.454c-6.254 0-11.323-5.069-11.323-11.323v-161.431c0-15.634 12.674-28.308 28.308-28.308h88.485c15.634 0 28.308 12.674 28.308 28.308v161.431c-.001 6.254-5.071 11.323-11.324 11.323z" fill="#c8effe"/></g><g><path d="m234.77 303.438h-41.978c15.634 0 28.308 12.674 28.308 28.308v161.431c0 6.254-5.07 11.323-11.323 11.323h41.978c6.253 0 11.323-5.07 11.323-11.323v-161.431c0-15.634-12.674-28.308-28.308-28.308z" fill="#99e6fc"/></g><g><path d="m117.978 459v34.177c0 6.254 5.07 11.323 11.323 11.323h122.454c6.253 0 11.323-5.07 11.323-11.323v-34.177z" fill="#f2fbff"/></g><g><path d="m263.078 493.177v-34.177h-41.978v34.177c0 6.254-5.07 11.323-11.323 11.323h41.978c6.253 0 11.323-5.07 11.323-11.323z" fill="#dff6fd"/></g><g><path d="m234.192 221h-87.328c-5.557 0-10.062 4.505-10.062 10.062v30.345c0 5.557 4.505 10.062 10.062 10.062h87.328c5.557 0 10.062-4.505 10.062-10.062v-30.345c0-5.557-4.505-10.062-10.062-10.062z" fill="#e2dee2"/></g><g><path d="m234.192 221h-21.192v19.407c0 5.557-4.505 10.062-10.062 10.062h-66.136v10.938c0 5.557 4.505 10.062 10.062 10.062h87.328c5.557 0 10.062-4.505 10.062-10.062v-30.345c0-5.557-4.505-10.062-10.062-10.062z" fill="#cbc4cc"/></g></g></g><g><g><g><g><path d="m212.254 394.34c-2.98-1.265-5.227-3.758-6.438-6.76-2.441-6.048-8.365-10.317-15.288-10.317s-12.847 4.268-15.288 10.317c-1.212 3.002-3.458 5.495-6.438 6.76-6.137 2.605-10.37 8.82-10.028 15.983.402 8.414 7.255 15.262 15.669 15.658 3.451.162 6.681-.737 9.393-2.4 4.133-2.534 9.251-2.534 13.384 0 2.712 1.663 5.943 2.562 9.393 2.4 8.415-.396 15.268-7.244 15.669-15.658.342-7.163-3.89-13.378-10.028-15.983z" fill="#0593fc"/></g></g></g><g><path d="m212.254 394.34c-2.98-1.265-5.227-3.758-6.438-6.76-2.441-6.048-8.365-10.317-15.288-10.317-6.64 0-12.352 3.932-14.963 9.589 4.988 1.359 9.038 4.992 10.949 9.727 1.212 3.002 3.458 5.495 6.438 6.76 6.137 2.605 10.37 8.82 10.028 15.983-.103 2.163-.639 4.218-1.511 6.091 1.628.445 3.355.651 5.144.567 8.415-.396 15.268-7.244 15.669-15.658.343-7.162-3.89-13.377-10.028-15.982z" fill="#0182fc"/></g><g><g><ellipse cx="190.528" cy="346.225" fill="#0593fc" rx="11" ry="12.367"/></g></g><g><g><g><ellipse cx="155.358" cy="363.563" fill="#0593fc" rx="11" ry="12.367"/></g></g><g><g><ellipse cx="225.698" cy="363.563" fill="#0593fc" rx="11" ry="12.367"/></g></g></g></g><g><path d="m214.528 472h-48c-7.18 0-13-5.82-13-13 0-7.18 5.82-13 13-13h48c7.18 0 13 5.82 13 13 0 7.18-5.82 13-13 13z" fill="#0593fc"/></g><g><path d="m214.528 446h-30.528c7.18 0 13 5.82 13 13s-5.82 13-13 13h30.528c7.18 0 13-5.82 13-13s-5.82-13-13-13z" fill="#0182fc"/></g></g><g><g><g><path d="m160.658 144.898-13.492 23.369c-5.997 10.386 1.499 23.369 13.492 23.369 11.993 0 19.489-12.983 13.492-23.369z" fill="#bbec6c"/></g><g><path d="m220.397 144.898-13.492 23.369c-5.997 10.386 1.499 23.369 13.492 23.369 11.993 0 19.489-12.983 13.492-23.369z" fill="#bbec6c"/></g></g><g><path d="m190.528 81-13.492 23.369c-5.997 10.386 1.499 23.369 13.492 23.369 11.993 0 19.489-12.983 13.492-23.369z" fill="#bbec6c"/></g></g><g><path d="m389.022 381.101h-3.696v-28.101c0-4.142-3.357-7.5-7.5-7.5s-7.5 3.358-7.5 7.5v28.101h-8.009v-87.74h8.009v24.639c0 4.142 3.357 7.5 7.5 7.5s7.5-3.358 7.5-7.5v-158.789c0-7.92-5.293-14.619-12.524-16.769v-14.737c0-9.649-7.851-17.5-17.5-17.5h-4.625v-102.705c0-4.142-3.357-7.5-7.5-7.5s-7.5 3.358-7.5 7.5v102.705h-4.625c-9.649 0-17.5 7.851-17.5 17.5v14.737c-7.232 2.15-12.524 8.849-12.524 16.769v221.89h-3.696c-6.893 0-12.5 5.607-12.5 12.5v20.367c0 6.893 5.607 12.5 12.5 12.5h26.705v37.129h-18.582c-6.893 0-12.5 5.607-12.5 12.5v23.403c0 6.893 5.607 12.5 12.5 12.5h75.445c6.893 0 12.5-5.607 12.5-12.5v-23.403c0-6.893-5.607-12.5-12.5-12.5h-18.582v-37.129h26.705c6.893 0 12.5-5.607 12.5-12.5v-20.367c-.001-6.893-5.608-12.5-12.501-12.5zm-49.986 0v-87.74h8.281v87.74zm11.641-255.896h4.625c1.379 0 2.5 1.122 2.5 2.5v14.006h-7.125zm-22.125 2.5c0-1.378 1.121-2.5 2.5-2.5h4.625v16.506h-7.125zm-12.525 31.506c0-1.378 1.121-2.5 2.5-2.5h49.299c1.379 0 2.5 1.122 2.5 2.5v10.289h-15.641c-4.143 0-7.5 3.358-7.5 7.5s3.357 7.5 7.5 7.5h15.641v10.957h-15.641c-4.143 0-7.5 3.358-7.5 7.5s3.357 7.5 7.5 7.5h15.641v10.957h-15.641c-4.143 0-7.5 3.358-7.5 7.5s3.357 7.5 7.5 7.5h15.641v9.556h-54.299zm0 101.758h54.299v17.391h-54.299zm0 32.391h8.009v87.74h-8.009zm62.372 203.64h-70.445v-18.403h70.445zm-31.082-33.403h-8.281v-37.129h8.281zm39.205-52.13h-86.691v-15.367h86.691z"/><path d="m215.184 387.436c-1.026-.436-1.905-1.406-2.412-2.663-3.681-9.118-12.411-15.01-22.243-15.01s-18.563 5.892-22.244 15.011c-.507 1.256-1.387 2.227-2.412 2.662-9.204 3.906-15.067 13.247-14.59 23.245.582 12.207 10.601 22.218 22.809 22.792.384.018.766.027 1.148.027 4.433 0 8.737-1.209 12.518-3.525 1.734-1.063 3.808-1.063 5.544.001 4.104 2.516 8.827 3.724 13.665 3.498 12.207-.574 22.226-10.586 22.808-22.792.476-9.999-5.387-19.34-14.591-23.246zm-8.922 31.054c-1.824.085-3.592-.365-5.121-1.302-6.546-4.014-14.68-4.014-21.224-.001-1.53.938-3.298 1.392-5.122 1.303-4.565-.215-8.312-3.959-8.53-8.524-.179-3.753 2.018-7.258 5.468-8.722 4.732-2.009 8.447-5.865 10.462-10.856 1.379-3.417 4.65-5.624 8.334-5.624s6.954 2.208 8.333 5.623c2.015 4.993 5.729 8.849 10.462 10.857h.001c3.449 1.463 5.646 4.968 5.467 8.721-.219 4.566-3.966 8.31-8.53 8.525z"/><path d="m190.528 326.358c-10.201 0-18.5 8.912-18.5 19.867s8.299 19.867 18.5 19.867 18.5-8.912 18.5-19.867-8.299-19.867-18.5-19.867zm0 24.733c-1.864 0-3.5-2.274-3.5-4.867s1.636-4.867 3.5-4.867 3.5 2.274 3.5 4.867-1.635 4.867-3.5 4.867z"/><path d="m155.357 343.696c-10.201 0-18.5 8.912-18.5 19.867s8.299 19.867 18.5 19.867 18.5-8.912 18.5-19.867-8.298-19.867-18.5-19.867zm0 24.734c-1.864 0-3.5-2.274-3.5-4.867s1.636-4.867 3.5-4.867 3.5 2.274 3.5 4.867-1.635 4.867-3.5 4.867z"/><path d="m244.198 363.563c0-10.955-8.299-19.867-18.5-19.867s-18.5 8.912-18.5 19.867 8.299 19.867 18.5 19.867 18.5-8.912 18.5-19.867zm-18.5 4.867c-1.864 0-3.5-2.274-3.5-4.867s1.636-4.867 3.5-4.867 3.5 2.274 3.5 4.867-1.636 4.867-3.5 4.867z"/><path d="m234.771 295.938h-.111v-16.993c9.466-.251 17.095-8.013 17.095-17.538v-30.345c0-9.684-7.879-17.562-17.562-17.562h-41.193c-4.143 0-7.5 3.358-7.5 7.5s3.357 7.5 7.5 7.5h41.191c1.413 0 2.562 1.149 2.562 2.562v30.345c0 1.413-1.149 2.562-2.562 2.562h-87.327c-1.413 0-2.562-1.149-2.562-2.562v-30.345c0-1.413 1.149-2.562 2.562-2.562h11.136c4.143 0 7.5-3.358 7.5-7.5s-3.357-7.5-7.5-7.5h-11.136c-9.684 0-17.562 7.878-17.562 17.562v30.345c0 9.526 7.629 17.287 17.095 17.538v16.993h-.111c-19.744 0-35.808 16.063-35.808 35.808v55.254c0 4.142 3.357 7.5 7.5 7.5s7.5-3.358 7.5-7.5v-55.254c0-11.473 9.334-20.808 20.808-20.808h88.485c11.474 0 20.808 9.334 20.808 20.808v119.754h-21.99c-3.002-7.601-10.405-13-19.06-13h-48.001c-8.654 0-16.057 5.399-19.059 13h-21.991v-29.5c0-4.142-3.357-7.5-7.5-7.5s-7.5 3.358-7.5 7.5v71.177c0 10.379 8.444 18.823 18.823 18.823h122.454c10.379 0 18.823-8.444 18.823-18.823v-161.431c0-19.745-16.063-35.808-35.807-35.808zm-73.375-16.969h58.263v16.969h-58.263zm5.131 174.531h48.001c3.033 0 5.5 2.467 5.5 5.5s-2.467 5.5-5.5 5.5h-48.001c-3.032 0-5.499-2.467-5.499-5.5s2.467-5.5 5.499-5.5zm89.051 39.677c0 1.844-1.313 3.388-3.054 3.745-.249.051-.506.078-.77.078h-122.453c-.264 0-.521-.027-.77-.078-1.741-.357-3.054-1.901-3.054-3.745v-26.677h21.991c3.002 7.601 10.405 13 19.059 13h48.001c8.655 0 16.057-5.399 19.06-13h21.99z"/><path d="m160.658 199.137c8.344 0 15.816-4.314 19.988-11.541 4.171-7.226 4.171-15.854-.001-23.079l-13.492-23.37c-1.34-2.32-3.815-3.75-6.495-3.75s-5.155 1.43-6.495 3.75l-13.492 23.37c-4.172 7.226-4.172 15.854 0 23.08s11.643 11.54 19.987 11.54zm-6.997-27.12 6.997-12.12 6.997 12.12c2.105 3.646.701 6.864 0 8.079s-2.787 4.04-6.997 4.04-6.295-2.825-6.997-4.04c-.701-1.214-2.104-4.433 0-8.079z"/><path d="m200.41 187.597c4.172 7.226 11.644 11.54 19.987 11.54s15.815-4.314 19.987-11.54 4.172-15.854 0-23.08l-13.492-23.37c-1.34-2.32-3.815-3.75-6.495-3.75s-5.155 1.43-6.495 3.75l-13.493 23.37c-4.172 7.226-4.172 15.854.001 23.08zm12.989-15.58 6.998-12.12 6.997 12.12c2.104 3.646.701 6.865 0 8.08-.702 1.214-2.787 4.04-6.997 4.04s-6.296-2.825-6.997-4.04c-.702-1.215-2.105-4.434-.001-8.08z"/><path d="m190.527 135.239c8.344 0 15.816-4.314 19.988-11.54s4.172-15.854 0-23.08l-13.493-23.37c-1.34-2.321-3.815-3.75-6.495-3.75s-5.155 1.43-6.495 3.75l-13.492 23.37c-4.172 7.226-4.172 15.854 0 23.08s11.644 11.54 19.987 11.54zm-6.997-27.119 6.997-12.12 6.998 12.12c2.104 3.646.701 6.865 0 8.08-.701 1.214-2.787 4.04-6.998 4.04-4.21 0-6.296-2.825-6.997-4.04s-2.104-4.434 0-8.08z"/></g></g></svg>