<svg id="Capa_1" enable-background="new 0 0 512 512" height="512" viewBox="0 0 512 512" width="512" xmlns="http://www.w3.org/2000/svg"><g><g><path d="m392.484 253.169h-48.838l-50.452 67.132c-1.2 1.597-3.596 1.597-4.797 0l-20.7-27.544c-3.126 1.408-6.587 2.198-10.23 2.198-2.077 0-4.168-.263-6.215-.781l-4.822-1.221-.17 1.083c-.484 3.073-1.215 6.128-2.174 9.079l-12.896 39.692c-2.319 7.138-7.026 13.381-13.254 17.581l-2.712 1.829h5.787c5.104 0 9.255 4.152 9.255 9.256v15.896c0 5.104-4.152 9.255-9.255 9.255h-9.165l1.699 1.706c11.143 11.188 17.627 26.033 18.257 41.801l.038.96h8.119c7.339 0 13.31 5.97 13.31 13.309v2.237h146.731v-23.32h57.484v-115.15c0-35.897-29.101-64.998-65-64.998z" fill="#60b7ff"/></g><g><path d="m392.484 253.169h-31.341c35.899 0 65 29.101 65 65v114.15h31.341v-114.15c0-35.899-29.101-65-65-65z" fill="#26a6fe"/></g><g><g><path d="m327.808 253.169c-5.523 0-10-4.477-10-10v-13.21c-3.65.811-7.437 1.252-11.328 1.252h-31.369c-1.206 0-2.399-.057-3.585-.139 6.919 7.758 10.997 17.918 10.997 28.602v10.159c0 6.792-2.658 13.146-7.486 17.89-2.17 2.133-4.656 3.822-7.34 5.033l20.701 27.545c1.2 1.597 3.596 1.597 4.797 0l50.452-67.132z" fill="#f89580"/></g></g><g><path d="m210.251 124.387h12.639v-18.428c0-8.753 7.122-15.875 15.875-15.875h104.062c8.753 0 15.874 7.122 15.874 15.875v18.428h12.64c4.965 0 9.64 1.268 13.718 3.497v-41.852c0-43.372-35.16-78.532-78.532-78.532h-31.462c-43.372 0-78.532 35.16-78.532 78.532v41.852c4.078-2.228 8.753-3.497 13.718-3.497z" fill="#fe9738"/></g><g><g><path d="m306.527 7.5h-31.462c-3.493 0-6.926.252-10.298.694 38.501 5.046 68.233 37.959 68.233 77.838v4.052h9.827c8.753 0 15.874 7.122 15.874 15.875v18.428h12.64c4.965 0 9.64 1.268 13.718 3.497v-41.852c0-43.372-35.16-78.532-78.532-78.532z" fill="#fe860a"/></g></g><g><g><path d="m222.89 178.99v-55.603h-12.639c-16.405 0-29.704 13.299-29.704 29.704 0 16.405 13.299 29.704 29.704 29.704h12.793c-.091-1.258-.154-2.524-.154-3.805z" fill="#f89580"/></g><g><path d="m371.341 123.387h-12.639v55.603c0 1.281-.062 2.548-.154 3.806h12.793c16.405 0 29.704-13.299 29.704-29.704 0-16.406-13.299-29.705-29.704-29.705z" fill="#f89580"/></g></g><g><path d="m342.827 89.084h-104.062c-9.32 0-16.875 7.555-16.875 16.875v73.031c0 10.464 3.032 20.215 8.248 28.444l28.128 13.586c5.557 2.684 10.371 6.517 14.214 11.125.872.042 1.749.066 2.631.066h31.369c29.393 0 53.221-23.828 53.221-53.221v-73.031c.001-9.32-7.555-16.875-16.874-16.875z" fill="#ffcebf"/></g><g><path d="m342.827 89.084h-31.702c9.32 0 16.875 7.555 16.875 16.875v73.031c0 29.338-23.738 53.127-53.055 53.217.056 0 .111.004.166.004h31.369c29.393 0 53.221-23.828 53.221-53.221v-73.031c.001-9.32-7.555-16.875-16.874-16.875z" fill="#ffb09e"/></g><g><path d="m258.701 220.119-28.318-13.677c-10.001-4.831-21.964-2.805-29.817 5.048-3.286 3.286-5.558 7.32-6.729 11.646 10.27 2.896 19.994 7.606 28.816 14.016 18.164 13.197 27.026 35.164 23.629 56.796l4.725 1.196c16.497 4.177 32.517-8.293 32.517-25.311v-10.159c0-16.855-9.645-32.224-24.823-39.555z" fill="#fae2c0"/></g><g><path d="m213.212 396.625h-88.385c-11.525 11.062-18.903 26.399-19.586 43.467l.151 1h9.594c7.339 0 13.309 5.971 13.309 13.31v35.789c0 7.339-5.97 13.31-13.309 13.31h-.151l.151 1h117.878v-61.82c.001-18.105-7.547-34.437-19.652-46.056z" fill="#fae2c0"/></g><path d="m205.406 490.191v-35.789c0-7.903 6.406-14.309 14.309-14.309h13.083c-.682-17.068-8.061-32.405-19.586-43.467h-31.174c12.107 11.617 19.653 27.95 19.653 46.054v61.82h18.024c-7.903 0-14.309-6.406-14.309-14.309z" fill="#fed2a4"/><g><path d="m221.01 361.218h-4.331c-5.18 3.164-11.241 4.947-17.638 4.947h-60.041c-6.398 0-12.458-1.783-17.638-4.947h-4.331c-5.664 0-10.256 4.592-10.256 10.256v15.896c0 5.664 4.592 10.256 10.256 10.256h103.98c5.664 0 10.256-4.592 10.256-10.256v-15.896c-.002-5.665-4.593-10.256-10.257-10.256z" fill="#fe646f"/></g><g><path d="m221.01 361.218h-4.331c-5.18 3.164-11.241 4.947-17.638 4.947h-.533c.941 1.55 1.493 3.363 1.493 5.308v15.896c0 5.664-4.592 10.256-10.256 10.256h31.265c5.664 0 10.256-4.592 10.256-10.256v-15.896c-.001-5.664-4.592-10.255-10.256-10.255z" fill="#fd4755"/></g><g><g><path d="m115.387 237.152c8.822-6.409 18.546-11.12 28.816-14.016-1.17-4.326-3.442-8.359-6.729-11.646-7.854-7.854-19.816-9.879-29.818-5.048l-28.318 13.677c-15.178 7.331-24.822 22.7-24.822 39.555v10.159c0 17.018 16.019 29.487 32.517 25.311l4.725-1.196c-3.397-21.632 5.465-43.599 23.629-56.796z" fill="#fae2c0"/></g><g><path d="m113.184 234.196c8.822-6.409 18.546-11.12 28.816-14.016-1.17-4.326-3.442-8.359-6.729-11.646-7.854-7.854-19.816-9.879-29.818-5.048l-28.318 13.677c-15.178 7.331-24.822 22.7-24.822 39.555v10.159c0 17.018 16.019 29.487 32.517 25.311l4.725-1.196c-3.397-21.631 5.465-43.599 23.629-56.796z" fill="#fae2c0"/></g><g><path d="m114.799 236.343c-21.029 15.279-29.829 42.361-21.796 67.082l12.897 39.692c4.659 14.34 18.022 24.048 33.1 24.048h60.041c15.078 0 28.441-9.709 33.1-24.048l12.897-39.692c8.032-24.721-.767-51.803-21.796-67.082-32.333-23.49-76.112-23.49-108.443 0z" fill="#fae2c0"/></g><g><path d="m223.24 236.343c-20.581-14.953-45.799-20.371-69.752-16.287 13.675 2.332 26.94 7.75 38.69 16.287 21.029 15.279 29.829 42.361 21.796 67.082l-12.897 39.692c-4.659 14.34-18.022 24.048-33.1 24.048h31.062c15.078 0 28.441-9.709 33.1-24.048l12.897-39.692c8.033-24.721-.766-51.803-21.796-67.082z" fill="#fed2a4"/></g><g><path d="m169.02 337.491 17.658-21.725c3.166-3.895.394-9.719-4.625-9.719h-26.067c-5.019 0-7.791 5.824-4.625 9.719z" fill="#7a6d79"/></g></g><g><circle cx="169.02" cy="409.635" fill="#ffe177" r="22.05"/></g><g><path d="m169.02 387.585c-3.795 0-7.367.96-10.485 2.648 6.887 3.73 11.565 11.019 11.565 19.401s-4.678 15.672-11.565 19.401c3.118 1.689 6.69 2.648 10.485 2.648 12.178 0 22.05-9.872 22.05-22.05s-9.873-22.048-22.05-22.048z" fill="#ffd15b"/></g><g><path d="m114.987 504.5h-20.243c-7.903 0-14.309-6.406-14.309-14.309v-35.789c0-7.903 6.407-14.309 14.309-14.309h20.242c7.903 0 14.309 6.407 14.309 14.309v35.789c.001 7.903-6.405 14.309-14.308 14.309z" fill="#ffcebf"/></g><g><path d="m114.987 440.092h-20.243c-.033 0-.064.005-.096.005 7.858.052 14.213 6.434 14.213 14.304v35.789c0 7.87-6.355 14.252-14.213 14.304.032 0 .064.005.096.005h20.242c7.903 0 14.309-6.406 14.309-14.309v-35.789c.001-7.902-6.405-14.309-14.308-14.309z" fill="#ffb09e"/></g><g><path d="m399 432.319v23.32h-144.733v-1.237c0-7.903-6.406-14.309-14.309-14.309h-20.242c-7.903 0-14.309 6.407-14.309 14.309v35.789c0 7.903 6.407 14.309 14.309 14.309h210.007c15.332 0 27.762-12.429 27.762-27.762v-44.419z" fill="#ffcebf"/></g><g><g><path d="m426.143 432.319v44.419c0 15.333-12.429 27.762-27.762 27.762h31.341c15.333 0 27.762-12.429 27.762-27.762v-44.419z" fill="#ffb09e"/></g></g><g><path d="m364.378 321.256h-15v18.122h-18.122v15h18.122v18.122h15v-18.122h18.122v-15h-18.122z"/><path d="m258.383 148.401c4.143 0 7.5-3.358 7.5-7.5v-9.271c0-4.142-3.357-7.5-7.5-7.5-4.142 0-7.5 3.358-7.5 7.5v9.271c0 4.142 3.358 7.5 7.5 7.5z"/><path d="m323.209 148.401c4.143 0 7.5-3.358 7.5-7.5v-9.271c0-4.142-3.357-7.5-7.5-7.5s-7.5 3.358-7.5 7.5v9.271c0 4.142 3.357 7.5 7.5 7.5z"/><path d="m285.492 169.169c1.465 1.465 3.384 2.197 5.304 2.197 1.919 0 3.839-.732 5.303-2.197 2.93-2.929 2.93-7.677.001-10.606l-6.147-6.147 6.571-7.775c2.674-3.164 2.277-7.896-.886-10.57-3.165-2.674-7.896-2.277-10.569.886l-11.025 13.043c-2.518 2.978-2.333 7.388.424 10.145z"/><path d="m260.593 192.107c8.214 8.213 19.003 12.32 29.792 12.32 10.788 0 21.577-4.107 29.791-12.32 2.929-2.929 2.929-7.678 0-10.606-2.93-2.929-7.678-2.929-10.607 0-10.578 10.58-27.79 10.578-38.368 0-2.93-2.929-7.678-2.929-10.607 0-2.93 2.928-2.93 7.677-.001 10.606z"/><path d="m143.261 286.188v-9.513c0-4.142-3.358-7.5-7.5-7.5s-7.5 3.358-7.5 7.5v9.513c0 4.142 3.358 7.5 7.5 7.5s7.5-3.357 7.5-7.5z"/><path d="m202.278 293.688c4.142 0 7.5-3.358 7.5-7.5v-9.513c0-4.142-3.358-7.5-7.5-7.5s-7.5 3.358-7.5 7.5v9.513c0 4.143 3.358 7.5 7.5 7.5z"/><path d="m392.484 245.669h-64.677c-1.378 0-2.499-1.122-2.499-2.5v-6.461c20.802-6.803 36.685-24.55 40.821-46.412h5.212c20.515 0 37.204-16.69 37.204-37.205 0-12.632-6.333-23.807-15.986-30.535v-36.524c0-47.438-38.594-86.032-86.032-86.032h-31.463c-18.784 0-36.633 5.949-51.618 17.205-3.312 2.487-3.98 7.189-1.492 10.501 2.487 3.312 7.188 3.98 10.501 1.492 12.367-9.288 27.101-14.198 42.609-14.198h31.463c39.167 0 71.031 31.865 71.031 71.032v30.385c-2.023-.342-4.099-.53-6.218-.53h-4.14v-9.928c0-13.44-10.935-24.375-24.374-24.375h-104.061c-13.44 0-24.375 10.935-24.375 24.375v9.928h-4.139c-2.119 0-4.195.188-6.218.53v-30.385c0-11.455 2.661-22.409 7.908-32.559 1.902-3.679.462-8.205-3.218-10.106-3.679-1.902-8.205-.461-10.106 3.218-6.359 12.3-9.584 25.573-9.584 39.448v36.524c-9.653 6.728-15.986 17.903-15.986 30.535 0 20.515 16.69 37.205 37.205 37.205h5.225c.394 2.072.895 4.12 1.501 6.138-8.01.493-15.783 3.819-21.716 9.753-2.135 2.135-3.961 4.569-5.45 7.197-13.706-2.932-27.878-2.932-41.584 0-1.489-2.628-3.315-5.062-5.451-7.197-10.097-10.098-25.523-12.71-38.382-6.499l-28.318 13.678c-17.654 8.526-29.061 26.704-29.061 46.309v10.159c0 10.441 4.726 20.108 12.965 26.521 5.991 4.663 13.192 7.104 20.567 7.103 1.507 0 3.021-.111 4.534-.317.245.869.507 1.736.788 2.601l2.693 8.29c1.279 3.939 5.51 6.097 9.45 4.815 3.939-1.28 6.096-5.511 4.815-9.45l-2.693-8.291c-7.05-21.698.614-45.286 19.071-58.696 29.795-21.646 69.831-21.646 99.625 0 18.458 13.411 26.122 36.999 19.072 58.697l-12.896 39.691c-3.667 11.285-14.102 18.866-25.967 18.866h-22.52v-19.511l15.979-19.658c3.307-4.069 3.962-9.539 1.708-14.273-2.253-4.734-6.91-7.676-12.154-7.676h-26.067c-5.244 0-9.901 2.941-12.154 7.676s-1.598 10.205 1.709 14.273l15.978 19.657v19.511h-22.521c-11.156 0-21.374-6.983-25.427-17.376-1.505-3.859-5.851-5.768-9.712-4.262-3.859 1.505-5.767 5.853-4.262 9.712 1.475 3.783 3.442 7.252 5.804 10.357-3.745 3.254-6.127 8.036-6.127 13.376v15.896c0 7.083 4.179 13.193 10.193 16.041-5.791 8.768-9.57 18.712-11.054 29.182h-3.667c-12.026 0-21.81 9.784-21.81 21.81v35.789c0 12.026 9.784 21.81 21.81 21.81h334.978c19.443 0 35.262-15.818 35.262-35.262v-158.568c-.002-39.977-32.525-72.5-72.502-72.5zm-25.283-114.782h4.14c12.243 0 22.204 9.961 22.204 22.205s-9.961 22.205-22.204 22.205h-4.14zm-152.811 44.409h-4.139c-12.244 0-22.205-9.961-22.205-22.205s9.961-22.205 22.205-22.205h4.139zm-103.999 54.979c-18.843 13.69-28.924 35.631-27.746 58.053-4.787.533-9.577-.795-13.451-3.81-4.562-3.551-7.179-8.904-7.179-14.685v-10.159c0-13.887 8.08-26.762 20.584-32.802l28.318-13.678c7.121-3.439 15.661-1.992 21.253 3.599.347.347.674.712.992 1.086-7.953 3.078-15.616 7.198-22.771 12.396zm217.417 30.394h.819l-37.831 50.339-11.673-15.531c7.576-6.4 11.901-15.664 11.901-25.643v-10.159c0-6.958-1.443-13.733-4.086-19.964h19.543c1.287 0 2.561-.054 3.828-.133v3.592c0 9.648 7.849 17.499 17.499 17.499zm-98.418-154.71c0-5.169 4.206-9.375 9.375-9.375h104.062c5.169 0 9.374 4.206 9.374 9.375v73.03c0 25.211-20.51 45.721-45.721 45.721h-29.234c-4.287-4.638-9.44-8.523-15.283-11.345l-27.378-13.224c-3.402-6.507-5.195-13.772-5.195-21.153zm-1.742 124.316c-7.155-5.198-14.818-9.318-22.772-12.395.318-.374.646-.74.993-1.087 5.59-5.592 14.132-7.039 21.252-3.599l28.318 13.678c12.504 6.04 20.584 18.915 20.584 32.802v10.159c0 5.781-2.616 11.134-7.179 14.685-3.874 3.015-8.662 4.344-13.45 3.811 1.179-22.423-8.903-44.364-27.746-58.054zm-68.425 83.272h19.594l-9.797 12.053zm-44.949 57.926c0-1.52 1.236-2.755 2.756-2.755h.251c6.4 3.818 13.847 5.947 21.718 5.947h60.041c7.838 0 15.27-2.142 21.662-5.947h.308c1.52 0 2.755 1.236 2.755 2.755v15.896c0 1.52-1.236 2.756-2.755 2.756h-29.824c-5.419-6.15-13.345-10.041-22.167-10.041s-16.748 3.891-22.167 10.041h-29.822c-1.52 0-2.756-1.236-2.756-2.756zm69.295 38.162c0 8.023-6.527 14.55-14.55 14.55s-14.55-6.527-14.55-14.55 6.527-14.55 14.55-14.55 14.55 6.527 14.55 14.55zm-61.773 80.555c0 3.755-3.055 6.81-6.809 6.81h-20.242c-3.755 0-6.81-3.055-6.81-6.81v-35.789c0-3.755 3.055-6.81 6.81-6.81h20.242c3.754 0 6.809 3.055 6.809 6.81zm77.205 6.81h-63.299c.707-2.144 1.094-4.432 1.094-6.81v-35.789c0-12.026-9.784-21.81-21.809-21.81h-1.387c1.842-10.198 6.462-19.686 13.427-27.467h12.786c-.226 1.471-.344 2.976-.344 4.509 0 16.294 13.256 29.55 29.55 29.55s29.55-13.256 29.55-29.55c0-1.533-.118-3.039-.344-4.509h12.787c6.965 7.781 11.585 17.269 13.426 27.467h-4.723c-12.025 0-21.809 9.784-21.809 21.809v35.789c0 2.379.388 4.667 1.095 6.811zm250.983-72.181h-43.484v-57.819c0-4.142-3.357-7.5-7.5-7.5s-7.5 3.358-7.5 7.5v81.139h-26.5c-4.143 0-7.5 3.358-7.5 7.5s3.357 7.5 7.5 7.5h34c4.143 0 7.5-3.358 7.5-7.5v-15.82h43.484v36.919c0 11.173-9.09 20.262-20.262 20.262h-210.007c-3.754 0-6.809-3.055-6.809-6.81v-35.789c0-3.754 3.055-6.809 6.809-6.809h20.242c3.755 0 6.81 3.055 6.81 6.809v1.237c0 4.142 3.358 7.5 7.5 7.5h75.733c4.143 0 7.5-3.358 7.5-7.5s-3.357-7.5-7.5-7.5h-69.149c-2.697-8.983-11.043-15.546-20.893-15.546h-.331c-1.484-10.47-5.263-20.414-11.054-29.182 6.013-2.847 10.192-8.957 10.192-16.041v-15.896c0-5.344-2.384-10.128-6.133-13.382 2.854-3.736 5.125-7.989 6.641-12.657l12.896-39.691c.281-.865.544-1.732.788-2.602 1.513.206 3.026.317 4.533.317 2.746 0 5.467-.339 8.112-1.005l16.799 22.353c1.973 2.625 5.111 4.192 8.395 4.192s6.422-1.567 8.395-4.192l48.2-64.138h45.094c31.706 0 57.5 25.794 57.5 57.5v106.651z"/></g></g></svg>