<svg id="Capa_1" enable-background="new 0 0 512 512" height="512" viewBox="0 0 512 512" width="512" xmlns="http://www.w3.org/2000/svg"><g><g><g><path d="m283.324 259.785v10.466c0 14.271-11.579 25.88-25.812 25.88-2.14 0-4.294-.271-6.403-.804l-4.968-1.258-.176 1.116c-.498 3.166-1.252 6.313-2.24 9.353l-13.286 40.89c-2.389 7.353-7.238 13.785-13.654 18.112l-2.794 1.884h5.962c5.258 0 9.535 4.278 9.535 9.535v16.376c0 5.258-4.277 9.535-9.535 9.535h-9.441l1.75 1.757c11.48 11.526 18.159 26.819 18.808 43.063l.039.989h8.364c7.56 0 13.711 6.15 13.711 13.711v2.305h151.161v-24.024h59.219v-118.626c0-36.982-29.98-66.962-66.962-66.962h-113.811c.343 2.202.533 4.439.533 6.702z" fill="#60b7ff"/></g></g><g><path d="m396.604 253.083h-32.287c36.982 0 66.962 29.98 66.962 66.962v117.595h32.287v-117.595c-.001-36.982-29.981-66.962-66.962-66.962z" fill="#26a6fe"/></g><g><g><path d="m329.975 253.083c-5.689 0-10.302-4.612-10.302-10.302v-13.608c-3.76.835-7.662 1.289-11.67 1.289h-32.316c-1.243 0-2.471-.058-3.693-.143 7.128 7.992 11.329 18.459 11.329 29.466v10.466c0 6.997-2.738 13.543-7.712 18.43-2.236 2.197-4.796 3.937-7.562 5.185l21.326 28.376c1.236 1.645 3.705 1.645 4.941 0l51.974-69.158h-16.315z" fill="#f89580"/></g></g><g><path d="m208.871 120.415h13.02v-18.984c0-9.018 7.337-16.354 16.354-16.354h107.203c9.017 0 16.353 7.337 16.353 16.354v18.984h13.021c5.115 0 9.931 1.307 14.132 3.602v-43.115c0-44.681-36.221-80.902-80.902-80.902h-32.412c-44.681 0-80.902 36.221-80.902 80.902v43.115c4.202-2.295 9.017-3.602 14.133-3.602z" fill="#fe9738"/></g><g><g><path d="m308.052 0h-32.412c-3.599 0-7.135.259-10.609.715 39.664 5.199 70.293 39.105 70.293 80.187v4.175h10.124c9.017 0 16.353 7.337 16.353 16.354v18.984h13.021c5.115 0 9.931 1.307 14.132 3.602v-43.115c0-44.681-36.221-80.902-80.902-80.902z" fill="#fe860a"/></g></g><g><g><path d="m221.891 176.665v-57.281h-13.02c-16.9 0-30.601 13.701-30.601 30.601 0 16.9 13.701 30.601 30.601 30.601h13.179c-.095-1.296-.159-2.601-.159-3.921z" fill="#ffb09e"/></g><g><path d="m374.822 119.385h-13.021v57.281c0 1.32-.064 2.624-.158 3.921h13.179c16.9 0 30.601-13.7 30.601-30.601 0-16.901-13.701-30.601-30.601-30.601z" fill="#f89580"/></g></g><g><path d="m345.447 84.047h-107.202c-9.601 0-17.384 7.783-17.384 17.384v75.235c0 10.78 3.124 20.825 8.497 29.303l28.977 13.996c5.725 2.765 10.684 6.714 14.643 11.461.898.044 1.802.068 2.711.068h32.315c30.28 0 54.828-24.547 54.828-54.827v-75.237c-.001-9.6-7.784-17.383-17.385-17.383z" fill="#ffcebf"/></g><path d="m345.447 84.047h-26.517c9.601 0 17.384 7.783 17.384 17.384v75.235c0 30.28-24.547 54.827-54.828 54.827h26.517c30.28 0 54.828-24.547 54.828-54.827v-75.236c0-9.6-7.783-17.383-17.384-17.383z" fill="#ffb09e"/><g><path d="m258.783 219.036-29.173-14.09c-10.303-4.976-22.627-2.89-30.717 5.201-3.386 3.386-5.726 7.541-6.932 11.998 10.58 2.983 20.597 7.836 29.685 14.439 18.712 13.595 27.842 36.226 24.342 58.51l4.868 1.232c16.995 4.303 33.498-8.543 33.498-26.075v-10.466c0-17.364-9.935-33.197-25.571-40.749z" fill="#fae2c0"/></g><g><path d="m211.921 400.87h-91.052c-11.873 11.396-19.474 27.196-20.177 44.779l.156 1.03h9.884c7.56 0 13.711 6.151 13.711 13.711v36.869c0 7.56-6.15 13.711-13.711 13.711h-.156l.156 1.03h121.436v-63.686c-.001-18.651-7.777-35.475-20.247-47.444z" fill="#fae2c0"/></g><g><path d="m211.921 400.87h-32.115c12.472 11.967 20.246 28.793 20.246 47.444v63.686h32.115v-63.686c0-18.651-7.776-35.475-20.246-47.444z" fill="#fed2a4"/></g><g><path d="m219.954 364.393h-4.462c-5.337 3.26-11.58 5.097-18.171 5.097h-61.853c-6.591 0-12.834-1.837-18.171-5.097h-4.462c-5.835 0-10.565 4.73-10.565 10.565v16.376c0 5.835 4.73 10.565 10.565 10.565h107.118c5.835 0 10.565-4.73 10.565-10.565v-16.376c.001-5.834-4.729-10.565-10.564-10.565z" fill="#fe646f"/></g><g><path d="m219.954 364.393h-4.462c-5.337 3.26-11.58 5.097-18.171 5.097h-.549c.969 1.597 1.538 3.464 1.538 5.469v16.376c0 5.835-4.73 10.565-10.565 10.565h32.209c5.835 0 10.565-4.73 10.565-10.565v-16.376c0-5.835-4.73-10.566-10.565-10.566z" fill="#fd4755"/></g><path d="m384.092 342.121h-16.669v-16.669c0-1.104-.896-2-2-2h-11c-1.104 0-2 .896-2 2v16.669h-16.669c-1.104 0-2 .896-2 2v11c0 1.104.896 2 2 2h16.669v16.669c0 1.104.896 2 2 2h11c1.104 0 2-.896 2-2v-16.669h16.669c1.104 0 2-.896 2-2v-11c0-1.105-.896-2-2-2z" fill="#fff"/><g fill="#f89580"><path d="m265.955 137.427v-9.551c0-4.142-3.357-7.5-7.5-7.5-4.142 0-7.5 3.358-7.5 7.5v9.551c0 4.142 3.358 7.5 7.5 7.5 4.143 0 7.5-3.358 7.5-7.5z"/><path d="m325.237 120.376c-4.143 0-7.5 3.358-7.5 7.5v9.551c0 4.142 3.357 7.5 7.5 7.5s7.5-3.358 7.5-7.5v-9.551c0-4.142-3.357-7.5-7.5-7.5z"/><path d="m286.542 166.389c1.465 1.464 3.385 2.197 5.304 2.197s3.839-.732 5.304-2.197c2.929-2.929 2.929-7.678 0-10.606l-6.48-6.48 6.904-8.168c2.674-3.164 2.277-7.896-.886-10.57-3.166-2.674-7.896-2.277-10.569.886l-11.357 13.437c-2.518 2.978-2.333 7.388.424 10.145z"/><path d="m311.347 179.412c-10.985 10.984-28.861 10.986-39.849 0-2.928-2.93-7.677-2.929-10.606 0s-2.929 7.678.001 10.606c8.417 8.417 19.474 12.625 30.529 12.625 11.057 0 22.113-4.208 30.53-12.625 2.93-2.929 2.93-7.677.001-10.606s-7.678-2.929-10.606 0z"/></g><g><g><path d="m111.143 236.583c9.088-6.603 19.106-11.455 29.686-14.439-1.206-4.456-3.546-8.612-6.932-11.997-8.091-8.091-20.414-10.177-30.717-5.201l-29.173 14.09c-15.636 7.552-25.571 23.385-25.571 40.749v10.466c0 17.532 16.503 30.377 33.498 26.075l4.868-1.232c-3.501-22.285 5.629-44.916 24.341-58.511z" fill="#fff3de"/></g><g><path d="m110.537 235.75c-21.664 15.74-30.729 43.639-22.454 69.107l13.286 40.89c4.8 14.773 18.566 24.774 34.099 24.774h61.853c15.533 0 29.299-10.002 34.099-24.774l13.286-40.89c8.275-25.467-.79-53.367-22.454-69.107-33.307-24.199-78.408-24.199-111.715 0z" fill="#fae2c0"/></g><path d="m222.252 235.75c-21.202-15.404-47.181-20.986-71.857-16.779 14.088 2.402 27.753 7.984 39.857 16.778 21.664 15.74 30.729 43.639 22.454 69.107l-13.286 40.89c-3.892 11.979-13.681 20.82-25.526 23.735v1.039h23.427c15.533 0 29.299-10.002 34.099-24.774l13.286-40.89c8.275-25.467-.79-53.366-22.454-69.106z" fill="#fed2a4"/><path d="m170.274 333.591c-.954 1.173-2.368 1.847-3.88 1.847s-2.926-.673-3.88-1.847l-3.62-4.454v41.383h15v-41.383z" fill="#7a6d79"/><g><path d="m171.05 334.222 13.721-16.88c3.187-3.921.397-9.784-4.656-9.784h-27.442c-5.053 0-7.843 5.864-4.656 9.784l13.721 16.88c2.402 2.954 6.911 2.954 9.312 0z" fill="#685e68"/></g><g><g><path d="m132.132 294.6c-4.142 0-7.5-3.358-7.5-7.5v-9.8c0-4.142 3.358-7.5 7.5-7.5s7.5 3.358 7.5 7.5v9.8c0 4.142-3.358 7.5-7.5 7.5z" fill="#7a6d79"/></g><g><path d="m200.657 294.6c-4.142 0-7.5-3.358-7.5-7.5v-9.8c0-4.142 3.358-7.5 7.5-7.5s7.5 3.358 7.5 7.5v9.8c0 4.142-3.358 7.5-7.5 7.5z" fill="#7a6d79"/></g></g></g><g><circle cx="166.395" cy="414.272" fill="#ffe177" r="22.715"/></g><path d="m166.395 391.556c-2.647 0-5.184.463-7.546 1.295 8.826 3.117 15.151 11.528 15.151 21.42s-6.326 18.304-15.151 21.42c2.362.832 4.899 1.295 7.546 1.295 12.545 0 22.715-10.17 22.715-22.715s-10.17-22.715-22.715-22.715z" fill="#ffd15b"/><g><path d="m110.731 512h-20.853c-8.141 0-14.741-6.6-14.741-14.741v-36.869c0-8.141 6.6-14.741 14.741-14.741h20.853c8.141 0 14.741 6.6 14.741 14.741v36.869c0 8.141-6.6 14.741-14.741 14.741z" fill="#ffcebf"/></g><g><path d="m110.731 445.648h-20.853c-.034 0-.066.005-.099.005 8.095.054 14.642 6.628 14.642 14.736v36.869c0 8.108-6.547 14.682-14.642 14.736.033 0 .066.005.099.005h20.853c8.141 0 14.741-6.6 14.741-14.741v-36.868c0-8.142-6.6-14.742-14.741-14.742z" fill="#ffb09e"/></g><g><path d="m403.316 437.64v24.024h-149.101v-1.275c0-8.141-6.6-14.741-14.741-14.741h-20.854c-8.141 0-14.741 6.6-14.741 14.741v36.869c0 8.141 6.6 14.741 14.741 14.741h216.345c15.795 0 28.6-12.805 28.6-28.6v-45.76h-60.249z" fill="#ffb09e"/></g><g><g><path d="m431.278 437.64v45.76c0 15.795-12.805 28.6-28.6 28.6h32.287c15.795 0 28.6-12.805 28.6-28.6v-45.76z" fill="#f89580"/></g></g></g></svg>