<?xml version="1.0" encoding="UTF-8" standalone="no"?>
<!-- Created with Inkscape (http://www.inkscape.org/) -->

<svg
   version="1.1"
   id="svg3000"
   xml:space="preserve"
   width="682.66669"
   height="682.66669"
   viewBox="0 0 682.66669 682.66669"
   xmlns="http://www.w3.org/2000/svg"
   xmlns:svg="http://www.w3.org/2000/svg"><defs
     id="defs3004"><clipPath
       clipPathUnits="userSpaceOnUse"
       id="clipPath3018"><path
         d="M 0,512 H 512 V 0 H 0 Z"
         id="path3016" /></clipPath></defs><g
     id="g3006"
     transform="matrix(1.3333333,0,0,-1.3333333,0,682.66667)"><path
       d="M 326.347,202.014 H 165.776 v 115.208 h 160.571 z"
       style="fill:#8ac9fe;fill-opacity:1;fill-rule:nonzero;stroke:none"
       id="path3008" /><path
       d="m 305.707,202.014 h 20.64 v 115.208 h -20.64 z"
       style="fill:#60b8fe;fill-opacity:1;fill-rule:nonzero;stroke:none"
       id="path3010" /><g
       id="g3012"><g
         id="g3014"
         clip-path="url(#clipPath3018)"><g
           id="g3020"
           transform="translate(384.6699,143.8501)"><path
             d="m 0,0 c 0,-50.33 -27.56,-94.21 -68.41,-117.39 -19.62,-11.14 -42.31,-17.5 -66.48,-17.5 -74.5,0 -134.89,60.39 -134.89,134.89 0,74.5 60.39,134.89 134.89,134.89 20.56,0 40.04,-4.6 57.47,-12.82 C -31.66,100.49 0,53.94 0,0"
             style="fill:#eaf6ff;fill-opacity:1;fill-rule:nonzero;stroke:none"
             id="path3022" /></g><g
           id="g3024"
           transform="translate(384.6699,143.8501)"><path
             d="m 0,0 c 0,-50.33 -27.56,-94.21 -68.41,-117.39 -27.78,19.14 -46.22,51.02 -46.59,87.08 -0.26,24.7 7.85,47.5 21.67,65.73 5.15,6.8 7.13,15.55 5.21,23.86 -1.39,5.99 -2.13,12.23 -2.13,18.64 0,16.24 4.71,31.39 12.83,44.15 C -31.66,100.49 0,53.94 0,0"
             style="fill:#c8effe;fill-opacity:1;fill-rule:nonzero;stroke:none"
             id="path3026" /></g><g
           id="g3028"
           transform="translate(306.1499,143.8501)"><path
             d="m 0,0 c 0,-23.21 -14.03,-43.14 -34.07,-51.78 -6.84,-2.96 -14.38,-4.59 -22.3,-4.59 -31.13,0 -56.37,25.24 -56.37,56.37 0,31.13 25.24,56.37 56.37,56.37 17.01,0 32.27,-7.54 42.6,-19.46 C -5.19,27.02 0,14.12 0,0"
             style="fill:#cb97e7;fill-opacity:1;fill-rule:nonzero;stroke:none"
             id="path3030" /></g><g
           id="g3032"
           transform="translate(306.1499,143.8501)"><path
             d="m 0,0 c 0,-23.21 -14.03,-43.14 -34.07,-51.78 -1.51,6.94 -2.33,14.12 -2.41,21.47 -0.26,24.7 7.85,47.5 21.67,65.73 0.37,0.49 0.72,0.98 1.04,1.49 C -5.19,27.02 0,14.12 0,0"
             style="fill:#bd80e1;fill-opacity:1;fill-rule:nonzero;stroke:none"
             id="path3034" /></g><g
           id="g3036"
           transform="translate(477.7446,203.6802)"><path
             d="m 0,0 c 1.516,6.747 2.203,13.806 1.946,21.068 -1.502,42.427 -35.605,77.105 -78.004,79.253 -47.421,2.403 -86.624,-35.336 -86.624,-82.231 0,-6.413 0.736,-12.653 2.125,-18.643 1.927,-8.304 -0.062,-17.057 -5.21,-23.853 -13.816,-18.238 -21.927,-41.035 -21.672,-65.739 0.607,-58.83 49.292,-106.52 108.123,-105.968 58.679,0.551 106.078,48.289 106.078,107.099 0,24.189 -8.02,46.503 -21.546,64.432 C -0.083,-17.556 -1.929,-8.586 0,0"
             style="fill:#fea713;fill-opacity:1;fill-rule:nonzero;stroke:none"
             id="path3038" /></g><g
           id="g3040"
           transform="translate(482.9609,179.0986)"><path
             d="m 0,0 c -5.3,7.026 -7.145,15.995 -5.216,24.582 1.515,6.746 2.203,13.806 1.945,21.068 -1.501,42.427 -35.604,77.105 -78.003,79.253 -4.994,0.253 -9.895,0.055 -14.671,-0.546 39.586,-4.933 70.604,-38.294 72.035,-78.707 0.257,-7.262 -0.431,-14.322 -1.946,-21.068 C -27.785,15.995 -25.94,7.026 -20.64,0 -7.115,-17.929 0.906,-40.243 0.906,-64.433 c 0,-55.66 -42.461,-101.396 -96.758,-106.602 3.724,-0.36 7.5,-0.532 11.319,-0.496 58.68,0.55 106.079,48.289 106.079,107.098 C 21.546,-40.243 13.525,-17.929 0,0"
             style="fill:#fd9a01;fill-opacity:1;fill-rule:nonzero;stroke:none"
             id="path3042" /></g><g
           id="g3044"
           transform="translate(146.8296,365.5791)"><path
             d="m 0,0 -127.885,35.453 c -8.313,2.305 -13.184,10.913 -10.88,19.226 l 0.032,0.115 c 2.305,8.314 10.913,13.185 19.226,10.88 L 8.378,30.221 C 16.691,27.917 21.562,19.309 19.258,10.995 L 19.226,10.88 C 16.921,2.566 8.313,-2.305 0,0"
             style="fill:#fece85;fill-opacity:1;fill-rule:nonzero;stroke:none"
             id="path3046" /></g><g
           id="g3048"
           transform="translate(155.2075,395.8003)"><path
             d="m 0,0 -127.885,35.453 c -6.66,1.847 -13.502,-0.92 -17.148,-6.367 3.567,2.19 7.99,2.963 12.34,1.757 L -20.64,0 c 8.314,-2.305 13.185,-10.913 10.88,-19.226 l -0.032,-0.115 c -1.03,-3.717 -3.326,-6.739 -6.287,-8.745 l 7.701,-2.135 c 8.314,-2.305 16.921,2.566 19.226,10.88 l 0.032,0.115 C 13.185,-10.913 8.313,-2.305 0,0"
             style="fill:#fec165;fill-opacity:1;fill-rule:nonzero;stroke:none"
             id="path3050" /></g><path
           d="M 415.02,181.42 H 379.788 V 422.754 H 415.02 Z"
           style="fill:#7a8d98;fill-opacity:1;fill-rule:nonzero;stroke:none"
           id="path3052" /><path
           d="m 394.379,181.42 h 20.64 v 241.334 h -20.64 z"
           style="fill:#667580;fill-opacity:1;fill-rule:nonzero;stroke:none"
           id="path3054" /><g
           id="g3056"
           transform="translate(418.0747,504.4375)"><path
             d="m 0,0 h -41.343 c -6.074,0 -10.998,-4.924 -10.998,-10.999 v -45.402 l 14.053,-25.283 h 35.233 l 14.054,25.283 v 45.402 C 10.999,-4.924 6.074,0 0,0"
             style="fill:#fea713;fill-opacity:1;fill-rule:nonzero;stroke:none"
             id="path3058" /></g><g
           id="g3060"
           transform="translate(418.0747,504.4375)"><path
             d="m 0,0 h -20.64 c 6.074,0 10.998,-4.924 10.998,-10.998 v -45.403 l -14.053,-25.283 h 20.64 l 14.054,25.283 v 45.403 C 10.999,-4.924 6.074,0 0,0"
             style="fill:#fd9a01;fill-opacity:1;fill-rule:nonzero;stroke:none"
             id="path3062" /></g><g
           id="g3064"
           transform="translate(433.7461,157.7554)"><path
             d="m 0,0 c 0,-20.072 -16.271,-36.343 -36.343,-36.343 -20.072,0 -36.343,16.271 -36.343,36.343 0,20.071 16.271,36.342 36.343,36.342 C -16.271,36.342 0,20.071 0,0"
             style="fill:#ffe5c2;fill-opacity:1;fill-rule:nonzero;stroke:none"
             id="path3066" /></g><g
           id="g3068"
           transform="translate(397.4033,194.0977)"><path
             d="m 0,0 c -3.586,0 -7.048,-0.527 -10.32,-1.495 15.043,-4.449 26.023,-18.362 26.023,-34.848 0,-16.485 -10.98,-30.398 -26.023,-34.846 3.272,-0.968 6.734,-1.496 10.32,-1.496 20.071,0 36.343,16.271 36.343,36.342 C 36.343,-16.271 20.071,0 0,0"
             style="fill:#fed2a4;fill-opacity:1;fill-rule:nonzero;stroke:none"
             id="path3070" /></g><g
           id="g3072"
           transform="translate(295.5122,16.9116)"><path
             d="m 0,0 c -14.279,-5.146 -29.677,-7.952 -45.732,-7.952 -74.5,0 -134.89,60.39 -134.89,134.89 0,42.74 19.88,80.84 50.89,105.55 23.05,18.36 52.24,29.341 84,29.341 27,0 52.15,-7.931 73.24,-21.6"
             style="fill:none;stroke:#000000;stroke-width:15;stroke-linecap:round;stroke-linejoin:round;stroke-miterlimit:10;stroke-dasharray:none;stroke-opacity:1"
             id="path3074" /></g><g
           id="g3076"
           transform="translate(380.1782,125.7456)"><path
             d="m 0,0 c -11.383,6.138 -19.118,18.17 -19.118,32.01 0,20.071 16.271,36.342 36.343,36.342 20.071,0 36.343,-16.271 36.343,-36.342 0,-13.989 -7.903,-26.131 -19.487,-32.206"
             style="fill:none;stroke:#000000;stroke-width:15;stroke-linecap:round;stroke-linejoin:round;stroke-miterlimit:10;stroke-dasharray:none;stroke-opacity:1"
             id="path3078" /></g><g
           id="g3080"
           transform="translate(415.02,302.21)"><path
             d="m 0,0 c 36.01,-7.89 63.33,-39.58 64.67,-77.46 0.26,-7.26 -0.43,-14.32 -1.95,-21.07 -1.92,-8.59 -0.08,-17.56 5.22,-24.58 13.53,-17.93 21.55,-40.24 21.55,-64.43 0,-58.81 -47.4,-106.55 -106.08,-107.1 -58.83,-0.55 -107.52,47.14 -108.12,105.97 -0.26,24.7 7.85,47.5 21.67,65.73 5.15,6.8 7.13,15.55 5.21,23.86 -1.39,5.99 -2.13,12.23 -2.13,18.64 0,39.42 27.72,72.38 64.73,80.45"
             style="fill:none;stroke:#000000;stroke-width:15;stroke-linecap:round;stroke-linejoin:round;stroke-miterlimit:10;stroke-dasharray:none;stroke-opacity:1"
             id="path3082" /></g><g
           id="g3084"
           transform="translate(290.73,105.1201)"><path
             d="m 0,0 c -10.27,-10.86 -24.82,-17.64 -40.95,-17.64 -31.13,0 -56.37,25.24 -56.37,56.37 0,31.13 25.24,56.37 56.37,56.37 23.98,0 44.47,-14.98 52.61,-36.1"
             style="fill:none;stroke:#000000;stroke-width:15;stroke-linecap:round;stroke-linejoin:round;stroke-miterlimit:10;stroke-dasharray:none;stroke-opacity:1"
             id="path3086" /></g><g
           id="g3088"
           transform="translate(165.7798,249.3999)"><path
             d="M 0,0 V 67.82 H 160.57 V 13.99"
             style="fill:none;stroke:#000000;stroke-width:15;stroke-linecap:round;stroke-linejoin:round;stroke-miterlimit:10;stroke-dasharray:none;stroke-opacity:1"
             id="path3090" /></g><g
           id="g3092"
           transform="translate(149.3184,53.8447)"><path
             d="M 0,0 -26.167,-44.884"
             style="fill:none;stroke:#000000;stroke-width:15;stroke-linecap:round;stroke-linejoin:round;stroke-miterlimit:10;stroke-dasharray:none;stroke-opacity:1"
             id="path3094" /></g><g
           id="g3096"
           transform="translate(83.98,301.1177)"><path
             d="M 0,0 V -291.497"
             style="fill:none;stroke:#000000;stroke-width:15;stroke-linecap:round;stroke-linejoin:round;stroke-miterlimit:10;stroke-dasharray:none;stroke-opacity:1"
             id="path3098" /></g><g
           id="g3100"
           transform="translate(83.98,382.2549)"><path
             d="M 0,0 V -46.148"
             style="fill:none;stroke:#000000;stroke-width:15;stroke-linecap:round;stroke-linejoin:round;stroke-miterlimit:10;stroke-dasharray:none;stroke-opacity:1"
             id="path3102" /></g><g
           id="g3104"
           transform="translate(341.3115,317.2222)"><path
             d="M 0,0 H -189.871"
             style="fill:none;stroke:#000000;stroke-width:15;stroke-linecap:round;stroke-linejoin:round;stroke-miterlimit:10;stroke-dasharray:none;stroke-opacity:1"
             id="path3106" /></g><g
           id="g3108"
           transform="translate(146.8296,365.5791)"><path
             d="m 0,0 -127.885,35.453 c -8.313,2.305 -13.184,10.913 -10.88,19.226 l 0.032,0.115 c 2.305,8.314 10.913,13.185 19.226,10.88 L 8.378,30.221 C 16.691,27.917 21.562,19.309 19.258,10.995 L 19.226,10.88 C 16.921,2.566 8.313,-2.305 0,0 Z"
             style="fill:none;stroke:#000000;stroke-width:15;stroke-linecap:round;stroke-linejoin:round;stroke-miterlimit:10;stroke-dasharray:none;stroke-opacity:1"
             id="path3110" /></g><g
           id="g3112"
           transform="translate(415.02,189.5498)"><path
             d="M 0,0 V 112.66 233.2 H -35.23 V 112.67 0"
             style="fill:none;stroke:#000000;stroke-width:15;stroke-linecap:round;stroke-linejoin:round;stroke-miterlimit:10;stroke-dasharray:none;stroke-opacity:1"
             id="path3114" /></g><g
           id="g3116"
           transform="translate(418.0747,504.4375)"><path
             d="m 0,0 h -41.343 c -6.074,0 -10.998,-4.924 -10.998,-10.999 v -45.402 l 14.053,-25.283 h 35.233 l 14.054,25.283 v 45.402 C 10.999,-4.924 6.074,0 0,0 Z"
             style="fill:none;stroke:#000000;stroke-width:15;stroke-linecap:round;stroke-linejoin:round;stroke-miterlimit:10;stroke-dasharray:none;stroke-opacity:1"
             id="path3118" /></g><g
           id="g3120"
           transform="translate(364.0405,72.0122)"><path
             d="M 0,0 H 65.69"
             style="fill:none;stroke:#000000;stroke-width:15;stroke-linecap:round;stroke-linejoin:round;stroke-miterlimit:10;stroke-dasharray:none;stroke-opacity:1"
             id="path3122" /></g><g
           id="g3124"
           transform="translate(216.3501,274.5601)"><path
             d="M 0,0 V 42.66"
             style="fill:none;stroke:#000000;stroke-width:15;stroke-linecap:round;stroke-linejoin:round;stroke-miterlimit:10;stroke-dasharray:none;stroke-opacity:1"
             id="path3126" /></g><g
           id="g3128"
           transform="translate(274.5898,276.4702)"><path
             d="M 0,0 V 40.75"
             style="fill:none;stroke:#000000;stroke-width:15;stroke-linecap:round;stroke-linejoin:round;stroke-miterlimit:10;stroke-dasharray:none;stroke-opacity:1"
             id="path3130" /></g><g
           id="g3132"
           transform="translate(415.02,379.4106)"><path
             d="M 0,0 H -35.23"
             style="fill:none;stroke:#000000;stroke-width:15;stroke-linecap:round;stroke-linejoin:round;stroke-miterlimit:10;stroke-dasharray:none;stroke-opacity:1"
             id="path3134" /></g><g
           id="g3136"
           transform="translate(415.02,341.3008)"><path
             d="M 0,0 H -35.23"
             style="fill:none;stroke:#000000;stroke-width:15;stroke-linecap:round;stroke-linejoin:round;stroke-miterlimit:10;stroke-dasharray:none;stroke-opacity:1"
             id="path3138" /></g><g
           id="g3140"
           transform="translate(415.02,303.1909)"><path
             d="M 0,0 H -35.23"
             style="fill:none;stroke:#000000;stroke-width:15;stroke-linecap:round;stroke-linejoin:round;stroke-miterlimit:10;stroke-dasharray:none;stroke-opacity:1"
             id="path3142" /></g><g
           id="g3144"
           transform="translate(415.02,265.0908)"><path
             d="M 0,0 H -35.23"
             style="fill:none;stroke:#000000;stroke-width:15;stroke-linecap:round;stroke-linejoin:round;stroke-miterlimit:10;stroke-dasharray:none;stroke-opacity:1"
             id="path3146" /></g><g
           id="g3148"
           transform="translate(415.02,226.981)"><path
             d="M 0,0 H -35.23"
             style="fill:none;stroke:#000000;stroke-width:15;stroke-linecap:round;stroke-linejoin:round;stroke-miterlimit:10;stroke-dasharray:none;stroke-opacity:1"
             id="path3150" /></g></g></g></g></svg>
