<svg id="Capa_1" enable-background="new 0 0 497.014 497.014" height="512" viewBox="0 0 497.014 497.014" width="512" xmlns="http://www.w3.org/2000/svg"><g><path d="m410.582.07h-41.343c-6.074 0-10.998 4.924-10.998 10.998v39.971c0 3.562.908 7.066 2.639 10.18l11.414 20.535 17.616 11.004 17.616-11.004 11.414-20.535c1.731-3.114 2.639-6.617 2.639-10.18v-39.971c.001-6.074-4.923-10.998-10.997-10.998z" fill="#fea613"/><path d="m410.582.07h-20.64c6.074 0 10.998 4.924 10.998 10.998v39.971c0 3.562-.908 7.066-2.639 10.18l-11.414 20.534 8.94 7.308 11.7-7.308 11.414-20.534c1.731-3.114 2.639-6.617 2.639-10.18v-39.971c0-6.074-4.924-10.998-10.998-10.998z" fill="#fe9901"/><g><path d="m115.652 495.547c-1.283 0-2.583-.329-3.771-1.021-3.579-2.086-4.788-6.678-2.702-10.257l32.481-51.199c2.086-3.579 6.679-4.788 10.257-2.702 3.579 2.086 4.788 6.678 2.702 10.257l-32.481 51.199c-1.393 2.389-3.906 3.723-6.486 3.723z" fill="#7a8c98"/></g><path d="m76.487 103.502c-4.142 0-7.5 3.358-7.5 7.5v376.384c0 4.142 3.358 7.5 7.5 7.5s7.5-3.358 7.5-7.5v-376.384c0-4.142-3.358-7.5-7.5-7.5z" fill="#7a8c98"/><path d="m158.282 187.285h160.572v115.209h-160.572z" fill="#8ac9fe"/><path d="m298.214 187.285h20.64v115.208h-20.64z" fill="#60b7ff"/><g><g><path d="m208.857 243.641c-4.142 0-7.5-3.358-7.5-7.5v-42.66c0-4.142 3.358-7.5 7.5-7.5s7.5 3.358 7.5 7.5v42.66c0 4.142-3.358 7.5-7.5 7.5z" fill="#60b7ff"/></g><g><path d="m267.097 241.731c-4.142 0-7.5-3.358-7.5-7.5v-40.75c0-4.142 3.358-7.5 7.5-7.5s7.5 3.358 7.5 7.5v40.75c0 4.142-3.358 7.5-7.5 7.5z" fill="#60b7ff"/></g></g><path d="m377.177 360.657c0 50.33-27.56 94.21-68.41 117.39-19.62 11.14-42.31 17.5-66.48 17.5-74.5 0-134.89-60.39-134.89-134.89s60.39-134.89 134.89-134.89c20.56 0 40.04 4.6 57.47 12.82 45.76 21.58 77.42 68.13 77.42 122.07z" fill="#eaf6ff"/><path d="m377.177 360.657c0 50.33-27.56 94.21-68.41 117.39-27.78-19.14-46.22-51.02-46.59-87.08-.26-24.7 7.85-47.5 21.67-65.73 5.15-6.8 7.13-15.55 5.21-23.86-1.39-5.99-2.13-12.23-2.13-18.64 0-16.24 4.71-31.39 12.83-44.15 45.76 21.58 77.42 68.13 77.42 122.07z" fill="#c8effe"/><path d="m298.657 360.657c0 23.21-14.03 43.14-34.07 51.78-6.84 2.96-14.38 4.59-22.3 4.59-31.13 0-56.37-25.24-56.37-56.37s25.24-56.37 56.37-56.37c17.01 0 32.27 7.54 42.6 19.46 8.58 9.89 13.77 22.79 13.77 36.91z" fill="#cb97e7"/><path d="m298.657 360.657c0 23.21-14.03 43.14-34.07 51.78-1.51-6.94-2.33-14.12-2.41-21.47-.26-24.7 7.85-47.5 21.67-65.73.37-.49.72-.98 1.04-1.49 8.58 9.89 13.77 22.79 13.77 36.91z" fill="#bd80e1"/><path d="m470.252 300.827c1.516-6.747 2.203-13.806 1.946-21.068-1.502-42.427-35.605-77.105-78.004-79.253-47.421-2.402-86.624 35.336-86.624 82.231 0 6.413.736 12.653 2.125 18.643 1.926 8.304-.062 17.058-5.21 23.853-13.816 18.238-21.928 41.035-21.673 65.739.607 58.83 49.292 106.52 108.123 105.968 58.68-.55 106.078-48.289 106.078-107.099 0-24.189-8.021-46.503-21.546-64.433-5.299-7.026-7.144-15.995-5.215-24.581z" fill="#fea613"/><path d="m475.468 325.408c-5.3-7.026-7.145-15.995-5.216-24.581 1.515-6.747 2.203-13.806 1.946-21.068-1.502-42.427-35.605-77.105-78.004-79.253-4.994-.253-9.895-.056-14.671.546 39.585 4.933 70.604 38.293 72.035 78.707.257 7.262-.43 14.322-1.946 21.068-1.929 8.587-.084 17.556 5.216 24.581 13.525 17.929 21.546 40.244 21.546 64.433 0 55.661-42.461 101.396-96.757 106.602 3.724.361 7.499.533 11.319.497 58.68-.55 106.078-48.289 106.078-107.099 0-24.189-8.021-46.504-21.546-64.433z" fill="#fe9901"/><path d="m139.336 138.928-127.884-35.453c-8.314-2.305-13.185-10.913-10.88-19.227l.032-.115c2.305-8.314 10.913-13.185 19.226-10.88l127.885 35.453c8.314 2.305 13.185 10.913 10.88 19.226l-.032.115c-2.305 8.314-10.913 13.186-19.227 10.881z" fill="#fece85"/><path d="m147.715 108.707-127.885-35.454c-6.661-1.847-13.502.921-17.148 6.367 3.566-2.189 7.989-2.963 12.34-1.757l112.053 30.843c8.314 2.305 13.185 10.913 10.88 19.226l-.032.115c-1.03 3.717-3.326 6.738-6.287 8.745l7.701 2.135c8.314 2.305 16.921-2.566 19.226-10.88l.032-.115c2.304-8.313-2.567-16.921-10.88-19.225z" fill="#fec165"/><path d="m407.527 117.597-3.29 7.5 3.29 7.5v23.11l-3.28 7.5 3.28 7.5v23.11l-3.8 7.5 3.8 7.5v23.1l-3.71 7.5 3.71 7.5v23.11l-3.71 7.5 3.71 7.5v38.06h-35.23v-38.06l4.31-7.5-4.31-7.5v-23.11l5.43-6.43-5.43-8.57v-23.1l3.63-7.24-3.63-7.76v-23.11l3.84-7-3.84-8v-23.11l3.93-8.31-3.93-6.69v-35.84h35.23z" fill="#7a8c98"/><path d="m407.527 117.597-3.29 7.5 3.29 7.5v23.11l-3.28 7.5 3.28 7.5v23.11l-3.8 7.5 3.8 7.5v23.1l-3.71 7.5 3.71 7.5v23.11l-3.71 7.5 3.71 7.5v38.06h-20.64v-241.33h20.64z" fill="#667580"/><circle cx="389.91" cy="346.752" fill="#ffe5c2" r="36.343"/><path d="m389.91 310.409c-3.586 0-7.048.528-10.32 1.496 15.043 4.449 26.023 18.362 26.023 34.847s-10.98 30.399-26.023 34.847c3.272.968 6.734 1.496 10.32 1.496 20.072 0 36.343-16.271 36.343-36.343s-16.271-36.343-36.343-36.343z" fill="#fed2a4"/><g><path d="m333.818 194.785h-189.871c-4.142 0-7.5-3.358-7.5-7.5s3.358-7.5 7.5-7.5h189.871c4.142 0 7.5 3.358 7.5 7.5s-3.357 7.5-7.5 7.5z" fill="#bd80e1"/></g><g><path d="m422.237 439.995h-65.69c-4.142 0-7.5-3.358-7.5-7.5s3.358-7.5 7.5-7.5h65.69c4.142 0 7.5 3.358 7.5 7.5s-3.358 7.5-7.5 7.5z" fill="#fe9901"/></g><g><g><path d="m372.297 117.597h35.23v15h-35.23z" fill="#eaf6ff"/></g><g><path d="m372.297 155.707h35.23v15h-35.23z" fill="#eaf6ff"/></g><g><path d="m372.297 193.817h35.23v15h-35.23z" fill="#eaf6ff"/></g><g><path d="m372.297 231.917h35.23v15h-35.23z" fill="#eaf6ff"/></g><g><path d="m372.297 270.027h35.23v15h-35.23z" fill="#eaf6ff"/></g><g fill="#c8effe"><path d="m386.887 117.597h20.64v15h-20.64z"/><path d="m386.887 155.707h20.64v15h-20.64z"/><path d="m386.887 193.817h20.64v15h-20.64z"/><path d="m386.887 231.917h20.64v15h-20.64z"/><path d="m386.887 270.027h20.64v15h-20.64z"/></g></g></g></svg>