<svg id="Capa_1" enable-background="new 0 0 511 511" height="512" viewBox="0 0 511 511" width="512" xmlns="http://www.w3.org/2000/svg"><g id="Outline_47_"><g><g><path d="m274.5 103.5c0-8.836-7.164-16-16-16s-16 7.164-16 16c0 21.795 4.752 41.985 11.751 62.763 8.84-7.855 17.65-15.744 26.07-23.961-3.635-13.094-5.821-25.745-5.821-38.802z" fill="#67d1b1"/><path d="m298.453 192.9c-7.303-18.495-13.764-34.867-18.131-50.599-8.42 8.217-17.23 16.106-26.07 23.961 4.187 12.43 9.179 25.071 14.439 38.391 20.408 51.684 45.809 116.007 45.809 223.847 0 25.42-10.935 40-30 40-15.412 0-32-10.327-32-33 0-8.836-7.164-16-16-16s-16 7.164-16 16c0 42.219 32.974 65 64 65 30.861 0 62-22.263 62-72 0-113.93-26.641-181.393-48.047-235.6z" fill="#02b27d"/><path d="m352.967 36.422c-7.839-15.505-24.241-25.922-40.815-25.922-16.357 0-33.712 8.554-46.425 22.881-10.596 11.942-23.227 33.801-23.227 70.119 0 8.836 7.164 16 16 16s16-7.164 16-16c0-26.276 8.246-41.084 15.164-48.881 7.937-8.945 17.075-12.119 22.489-12.119 3.893 0 9.512 2.93 12.257 8.36 4.1 8.109.977 19.883-8.794 33.154-5.742 7.8-19.269 19.528-34.93 33.108-22.501 19.51-50.505 43.792-72.997 71.633-27.716 34.307-41.189 66.606-41.189 98.745 0 50.764 25.906 79.509 47.639 94.684 25.814 18.024 56.394 24.447 76.404 24.447 8.836 0 16-7.164 16-16s-7.164-16-16-16c-14.451 0-38.334-4.893-58.084-18.684-22.534-15.734-33.959-38.763-33.959-68.447 0-24.527 11.147-50.25 34.08-78.636 20.708-25.633 47.522-48.883 69.068-67.565 17.812-15.444 31.88-27.643 39.736-38.313 23.335-31.694 17.273-55.308 11.583-66.564z" fill="#67d1b1"/><g><path d="m202.974 194.755c-24.527 32.085-36.474 62.487-36.474 92.745 0 50.764 25.906 79.509 47.639 94.684 25.814 18.024 56.394 24.447 76.404 24.447 5.589 0 10.502-2.87 13.363-7.212-19.937-.79-48.27-7.496-72.429-24.365-21.733-15.175-47.639-43.919-47.639-94.684 0-32.139 13.473-64.438 41.188-98.745 1.068-1.323 2.16-2.629 3.252-3.935-7.665 6.287-15.566 12.205-24.778 16.811-.173.086-.352.168-.526.254z" fill="#34c297"/></g><path d="m377.628 245.172c-16.171-19.135-38.806-29.672-63.737-29.672-21.842 0-42.035 7.087-56.859 19.955-16.855 14.631-25.764 35.394-25.764 60.045 0 8.836 7.164 16 16 16s16-7.164 16-16c0-35.429 27.271-48 50.623-48 34.979 0 53.609 32.522 53.609 56 0 44.54-28.769 71.13-76.957 71.13-8.836 0-16 7.164-16 16s7.164 16 16 16c66.188 0 108.957-40.481 108.957-103.13 0-20.621-7.972-41.88-21.872-58.328z" fill="#67d1b1"/></g><g fill="#f79235"><g><ellipse cx="399.5" cy="183.5" rx="24" ry="16"/><ellipse cx="479.5" cy="151.5" rx="24" ry="16"/></g><g><ellipse cx="31.5" cy="455.5" rx="24" ry="16"/><ellipse cx="111.5" cy="423.5" rx="24" ry="16"/></g><g><ellipse cx="63.5" cy="167.5" rx="24" ry="16"/><ellipse cx="143.5" cy="135.5" rx="24" ry="16"/></g></g></g><g><path d="m170.989 254.589c.811.28 1.636.413 2.448.413 3.11 0 6.017-1.95 7.089-5.055 6.344-18.376 17.138-36.853 32.999-56.484 10.603-13.126 23.612-26.845 39.766-41.935.013-.012.025-.023.038-.035 9.313-8.684 18.677-16.897 27.423-24.491 1.108-.967 2.203-1.917 3.287-2.856l1.566-1.359c15.989-13.865 29.798-25.839 36.056-34.33 11.531-15.662 14.885-30.215 9.441-40.985-3.72-7.344-11.513-12.472-18.952-12.472-7.305 0-18.522 3.847-28.104 14.646-7.776 8.778-17.046 25.247-17.046 53.854 0 4.925.294 9.812.873 14.822-4.91 4.277-9.992 8.746-15.141 13.383-1.82-9.751-2.731-19.07-2.731-28.205 0-33.974 11.604-54.176 21.341-65.144 11.304-12.746 26.56-20.356 40.808-20.356 13.816 0 27.531 8.763 34.126 21.802 4.912 9.72 10.022 30.277-10.938 58.743-7.324 9.955-21.036 21.849-38.395 36.908l-2.142 1.859c-4.872 4.23-9.909 8.604-15.12 13.222-.022.02-.045.039-.067.059-10.048 8.92-18.2 16.499-25.641 23.837-.007.006-.013.013-.019.019-.038.037-.077.075-.115.113-10.64 10.503-19.503 20.181-27.095 29.585-24.052 29.781-35.744 57.046-35.744 83.353 0 32.271 12.504 57.37 37.167 74.6 21.174 14.784 46.834 20.03 62.374 20.03 8.05 0 15.766-.715 22.94-2.126.009-.002.019-.003.028-.005.002 0 .005-.001.007-.001 13.192-2.61 24.622-7.576 33.973-14.76.098-.075.193-.152.286-.231 17.812-13.831 27.225-35.09 27.225-61.507 0-28.01-21.233-60.156-55.503-63.247-.015-.001-.031-.002-.047-.003-.047-.004-.094-.007-.141-.01-1.725-.157-3.544-.24-5.419-.24-10.933 0-21.418 2.412-30.321 6.976-.122.063-.241.127-.358.196-17.7 9.264-27.441 26.41-27.441 48.329 0 4.687-3.813 8.5-8.5 8.5s-8.5-3.813-8.5-8.5c0-22.409 8.015-41.212 23.183-54.382 4.999-4.35 10.771-8.019 17.152-10.902 8.824-3.982 18.492-6.342 28.766-7.014 1.926-.134 3.951-.202 6.019-.202 22.686 0 43.289 9.593 58.011 27.011 5.562 6.582 10.106 13.991 13.509 22.023 1.615 3.814 6.017 5.597 9.831 3.98 3.814-1.616 5.596-6.017 3.98-9.831-3.991-9.421-9.328-18.12-15.864-25.855-17.621-20.848-42.292-32.329-69.467-32.329-.492 0-.972.018-1.46.024-2.265-5.867-4.542-11.645-7.005-17.882-4.366-11.044-8.519-21.556-12.077-31.661 3.851-3.384 7.617-6.654 11.289-9.842l2.136-1.855c18.064-15.67 32.333-28.047 40.646-39.347 25.716-34.927 18.71-61.605 12.243-74.402-9.086-17.965-28.18-30.035-47.512-30.035-18.472 0-37.922 9.497-52.028 25.4-11.461 12.91-25.122 36.417-25.122 75.1 0 12.891 1.617 26.036 4.897 40.033-15.229 14.423-27.7 27.702-38.041 40.504-16.973 21.008-28.588 40.966-35.509 61.016-1.352 3.915.726 8.185 4.642 9.536zm109.289-40.974c-1.603-4.104-3.169-8.069-4.612-11.721-2.605-6.594-5.274-13.365-7.809-20.051 4.137-4.004 8.557-8.144 13.434-12.585 3.194 8.701 6.728 17.652 10.184 26.398 1.884 4.769 3.657 9.266 5.398 13.735-5.716.936-11.261 2.344-16.595 4.224zm32.988 41.402c10.727 33.515 17.675 65.775 21.701 100.715-4.809 3.148-10.261 5.664-16.299 7.522-3.869-36.483-11.072-70.356-22.401-105.393 5.245-1.795 11.085-2.778 16.999-2.844zm46.734 48.483c0 15.744-3.952 29.113-11.51 39.43-3.928-29.141-9.958-56.696-18.573-84.927 19.697 7.889 30.083 29.727 30.083 45.497zm-107.887-73.703c-18.542 16.099-28.343 38.819-28.343 65.703 0 12.958 10.542 23.5 23.5 23.5s23.5-10.542 23.5-23.5c0-13.052 4.092-23.135 12.151-30.12 10.62 33.48 17.375 65.963 20.989 100.958-4.279.523-8.751.792-13.37.792-13.363 0-35.468-4.539-53.785-17.328-20.407-14.258-30.755-35.219-30.755-62.302 0-22.74 10.603-46.922 32.416-73.929 5.225-6.471 11.117-13.107 17.835-20.096 1.813 4.68 3.654 9.349 5.464 13.93 1.515 3.836 3.168 8.02 4.852 12.338-5.235 2.888-10.082 6.25-14.454 10.054zm43.158-170.2c6.734-7.591 13.985-9.597 16.879-9.597.973 0 4.058 1.264 5.567 4.243 2.678 5.298-.364 14.763-8.134 25.316-4.508 6.115-15.314 15.804-27.537 26.449-.019-.836-.046-1.672-.046-2.509 0-23.905 7.218-37.07 13.271-43.902z"/><path d="m399.5 296c-4.142 0-7.5 3.358-7.5 7.5 0 39.312-17.587 69.421-49.523 84.788-.018.009-.036.017-.053.026-8.925 4.29-18.864 7.343-29.553 9.075-7.067 1.156-14.581 1.742-22.33 1.742-18.873 0-47.726-6.068-72.106-23.099-20.272-14.153-44.435-40.999-44.435-88.532 0-4.142-3.358-7.5-7.5-7.5s-7.5 3.358-7.5 7.5c0 53.998 27.651 84.636 50.845 100.829 27.232 19.023 59.54 25.801 80.695 25.801 5.547 0 10.995-.278 16.282-.821.114 4.976.178 10.051.178 15.191 0 14.826-3.903 32.5-22.5 32.5-9.1 0-24.5-5.371-24.5-25.5 0-12.958-10.542-23.5-23.5-23.5s-23.5 10.542-23.5 23.5c0 47.09 36.838 72.5 71.5 72.5 18.42 0 35.434-6.952 47.907-19.576 14.126-14.296 21.593-35.017 21.593-59.924 0-9.745-.211-19.456-.604-28.963 34.134-18.418 53.604-53.124 53.604-96.037 0-4.142-3.358-7.5-7.5-7.5zm-115 197c-27.39 0-56.5-20.152-56.5-57.5 0-4.687 3.813-8.5 8.5-8.5s8.5 3.813 8.5 8.5c0 26.588 19.871 40.5 39.5 40.5 23.481 0 37.5-17.757 37.5-47.5 0-5.943-.078-11.815-.226-17.541 5.838-1.241 11.468-2.85 16.857-4.816.238 7.379.369 14.857.369 22.357 0 47.608-29.359 64.5-54.5 64.5z"/><path d="m507.705 65.29c-2.061-1.395-4.678-1.678-6.99-.753l-80 32c-2.847 1.139-4.714 3.896-4.714 6.963v59.879c-4.771-2.15-10.408-3.379-16.5-3.379-17.664 0-31.5 10.322-31.5 23.5s13.836 23.5 31.5 23.5 31.5-10.322 31.5-23.5v-74.922l65-26v48.801c-4.771-2.15-10.407-3.379-16.5-3.379-17.664 0-31.5 10.322-31.5 23.5s13.836 23.5 31.5 23.5 31.5-10.322 31.5-23.5v-80c-.001-2.489-1.235-4.815-3.296-6.21zm-108.205 126.71c-10.072 0-16.5-5.034-16.5-8.5s6.428-8.5 16.5-8.5 16.5 5.034 16.5 8.5-6.428 8.5-16.5 8.5zm80-32c-10.072 0-16.5-5.034-16.5-8.5s6.428-8.5 16.5-8.5 16.5 5.034 16.5 8.5-6.428 8.5-16.5 8.5z"/><path d="m139.705 337.29c-2.061-1.395-4.678-1.679-6.99-.753l-80 32c-2.848 1.138-4.715 3.896-4.715 6.963v59.878c-4.771-2.149-10.408-3.378-16.5-3.378-17.664 0-31.5 10.322-31.5 23.5s13.836 23.5 31.5 23.5 31.5-10.322 31.5-23.5v-74.922l65-26v48.801c-4.771-2.149-10.408-3.378-16.5-3.378-17.664-.001-31.5 10.321-31.5 23.499s13.836 23.5 31.5 23.5 31.5-10.322 31.5-23.5v-80c0-2.489-1.234-4.815-3.295-6.21zm-108.205 126.71c-10.072 0-16.5-5.034-16.5-8.5s6.428-8.5 16.5-8.5 16.5 5.034 16.5 8.5-6.428 8.5-16.5 8.5zm80-32c-10.072 0-16.5-5.034-16.5-8.5s6.428-8.5 16.5-8.5 16.5 5.034 16.5 8.5-6.428 8.5-16.5 8.5z"/><path d="m175 135.5v-80c0-5.209-5.44-8.904-10.286-6.963l-80 32c-2.847 1.138-4.714 3.896-4.714 6.963v59.879c-4.771-2.15-10.408-3.379-16.5-3.379-17.664 0-31.5 10.322-31.5 23.5s13.836 23.5 31.5 23.5 31.5-10.322 31.5-23.5v-74.922l65-26v48.801c-4.771-2.15-10.408-3.379-16.5-3.379-17.664 0-31.5 10.322-31.5 23.5s13.836 23.5 31.5 23.5 31.5-10.322 31.5-23.5zm-111.5 40.5c-10.072 0-16.5-5.034-16.5-8.5s6.428-8.5 16.5-8.5 16.5 5.034 16.5 8.5-6.428 8.5-16.5 8.5zm80-32c-10.072 0-16.5-5.034-16.5-8.5s6.428-8.5 16.5-8.5 16.5 5.034 16.5 8.5-6.428 8.5-16.5 8.5z"/></g></g></svg>