<?xml version="1.0" encoding="UTF-8" standalone="no"?>
<!-- Created with Inkscape (http://www.inkscape.org/) -->

<svg
   version="1.1"
   id="svg5388"
   xml:space="preserve"
   width="682.66669"
   height="682.66669"
   viewBox="0 0 682.66669 682.66669"
   xmlns="http://www.w3.org/2000/svg"
   xmlns:svg="http://www.w3.org/2000/svg"><defs
     id="defs5392"><clipPath
       clipPathUnits="userSpaceOnUse"
       id="clipPath5402"><path
         d="M 0,512 H 512 V 0 H 0 Z"
         id="path5400" /></clipPath></defs><g
     id="g5394"
     transform="matrix(1.3333333,0,0,-1.3333333,0,682.66667)"><g
       id="g5396"><g
         id="g5398"
         clip-path="url(#clipPath5402)"><g
           id="g5404"
           transform="translate(496.4209,252.9863)"><path
             d="m 0,0 -188.943,16.182 c -4.149,0.355 -7.877,-2.531 -8.573,-6.636 l -27.827,-164.194 c -0.764,-4.513 -5.14,-7.423 -9.617,-6.472 -8.988,1.909 -19.021,1.809 -29.172,-0.72 -28.835,-7.186 -47.672,-31.226 -42.072,-53.694 5.599,-22.468 33.514,-34.856 62.349,-27.669 22.879,5.701 39.448,22.015 42.542,39.73 l 27.29,161.025 c 0.695,4.106 4.423,6.992 8.572,6.636 l 125.337,-10.734 c 4.662,-0.399 7.989,-4.696 7.207,-9.31 l -16.397,-96.748 c -0.765,-4.516 -5.146,-7.427 -9.625,-6.47 -9.004,1.923 -19.061,1.827 -29.235,-0.708 -28.836,-7.187 -47.672,-31.226 -42.072,-53.694 5.599,-22.467 33.513,-34.856 62.349,-27.67 10.134,2.526 19.782,7.332 27.573,14.331 3.464,3.112 6.555,6.658 9.061,10.587 1.215,1.906 2.292,3.899 3.2,5.968 2.672,6.096 3.393,12.477 4.502,19.038 1.704,10.076 3.407,20.151 5.111,30.226 2.242,13.257 4.483,26.515 6.725,39.772 2.376,14.052 4.752,28.105 7.127,42.157 2.108,12.46 4.214,24.919 6.32,37.379 1.434,8.478 2.868,16.958 4.301,25.437 0.392,2.314 0.783,4.629 1.175,6.944 C 7.987,-4.694 4.661,-0.398 0,0"
             style="fill:#e94444;fill-opacity:1;fill-rule:nonzero;stroke:none"
             id="path5406" /></g><g
           id="g5408"
           transform="translate(503.6318,243.6797)"><path
             d="M 0,0 -0.425,-2.514 C -1.602,-9.472 -2.777,-16.43 -3.954,-23.388 -5.963,-35.269 -7.972,-47.15 -9.98,-59.032 c -2.407,-14.229 -4.812,-28.456 -7.218,-42.684 -2.366,-13.996 -4.733,-27.993 -7.099,-41.989 -1.891,-11.187 -3.783,-22.374 -5.675,-33.561 -1.304,-7.718 -2.001,-15.884 -5.044,-23.115 -0.875,-2.081 -1.923,-4.088 -3.111,-6.008 -2.502,-4.043 -5.624,-7.688 -9.138,-10.884 -7.836,-7.127 -17.589,-12.012 -27.838,-14.567 -9.122,-2.27 -18.155,-2.591 -26.418,-1.24 2.181,0.32 4.382,0.76 6.593,1.31 10.288,2.563 20.085,7.437 27.997,14.54 3.553,3.189 6.72,6.827 9.279,10.863 5.585,8.808 6.615,18.509 8.311,28.543 1.87,11.059 3.739,22.118 5.61,33.178 2.374,14.041 4.747,28.082 7.121,42.123 2.442,14.445 4.884,28.89 7.326,43.336 2.075,12.273 4.15,24.545 6.224,36.819 1.273,7.522 2.544,15.046 3.816,22.568 0.2,1.181 0.401,2.361 0.598,3.541 0.42,2.511 -0.349,4.942 -1.9,6.702 L -7.212,9.303 C -2.551,8.912 0.78,4.611 0,0"
             style="fill:#d83131;fill-opacity:1;fill-rule:nonzero;stroke:none"
             id="path5410" /></g><g
           id="g5412"
           transform="translate(496.4209,252.9863)"><path
             d="m 0,0 -188.943,16.182 c -4.149,0.355 -7.877,-2.531 -8.573,-6.636 l -27.827,-164.194 c -0.764,-4.513 -5.14,-7.423 -9.617,-6.472 -8.988,1.909 -19.021,1.809 -29.172,-0.72 -28.835,-7.186 -47.672,-31.226 -42.072,-53.694 5.599,-22.468 33.514,-34.856 62.349,-27.669 22.879,5.701 39.448,22.015 42.542,39.73 l 27.29,161.025 c 0.695,4.106 4.423,6.992 8.572,6.636 l 125.337,-10.734 c 4.662,-0.399 7.989,-4.696 7.207,-9.31 l -16.397,-96.748 c -0.765,-4.516 -5.146,-7.427 -9.625,-6.47 -9.004,1.923 -19.061,1.827 -29.235,-0.708 -28.836,-7.187 -47.672,-31.226 -42.072,-53.694 5.599,-22.467 33.513,-34.856 62.349,-27.67 10.253,2.556 20.012,7.446 27.849,14.581 3.514,3.199 6.636,6.848 9.136,10.895 1.186,1.921 2.233,3.93 3.108,6.014 3.121,7.441 3.824,15.955 5.168,23.9 1.927,11.395 3.853,22.789 5.779,34.184 2.392,14.144 4.784,28.288 7.175,42.432 2.412,14.267 4.824,28.533 7.236,42.799 1.989,11.76 3.977,23.52 5.965,35.28 1.12,6.626 2.242,13.252 3.362,19.878 0.105,0.625 0.211,1.251 0.317,1.876 C 7.987,-4.694 4.661,-0.398 0,0 Z"
             style="fill:none;stroke:#000000;stroke-width:15;stroke-linecap:round;stroke-linejoin:round;stroke-miterlimit:10;stroke-dasharray:none;stroke-opacity:1"
             id="path5414" /></g><g
           id="g5416"
           transform="translate(125.3398,167.9082)"><path
             d="m 0,0 c -4.534,-14.472 -16.31,-40.771 -43.768,-51.038 -2.242,-0.838 -2.242,-4.064 0,-4.902 27.458,-10.267 39.234,-36.567 43.768,-51.038 0.767,-2.448 4.246,-2.448 5.013,0 4.534,14.471 16.31,40.771 43.768,51.038 2.242,0.838 2.242,4.064 0,4.902 C 21.323,-40.771 9.547,-14.472 5.013,0 4.246,2.447 0.767,2.447 0,0"
             style="fill:#fdb541;fill-opacity:1;fill-rule:nonzero;stroke:none"
             id="path5418" /></g><g
           id="g5420"
           transform="translate(174.1201,111.9678)"><path
             d="m 0,0 c -27.458,-10.264 -39.232,-36.562 -43.763,-51.036 -0.77,-2.45 -4.251,-2.45 -5.022,0 -2.02,6.452 -5.471,15.224 -11.103,23.907 5.072,10.804 9.883,21.437 25.117,27.129 2.241,0.84 2.241,4.061 0,4.901 -15.234,5.702 -20.045,16.335 -25.117,27.138 5.632,8.673 9.083,17.455 11.103,23.898 0.771,2.45 4.252,2.45 5.022,0 C -39.232,41.472 -27.458,15.174 0,4.901 2.241,4.061 2.241,0.84 0,0"
             style="fill:#fea713;fill-opacity:1;fill-rule:nonzero;stroke:none"
             id="path5422" /></g><g
           id="g5424"
           transform="translate(125.3398,167.9082)"><path
             d="m 0,0 c -4.534,-14.472 -16.31,-40.771 -43.768,-51.038 -2.242,-0.838 -2.242,-4.064 0,-4.902 27.458,-10.267 39.234,-36.567 43.768,-51.038 0.767,-2.448 4.246,-2.448 5.013,0 4.534,14.471 16.31,40.771 43.768,51.038 2.242,0.838 2.242,4.064 0,4.902 C 21.323,-40.771 9.547,-14.472 5.013,0 4.246,2.447 0.767,2.447 0,0 Z"
             style="fill:none;stroke:#000000;stroke-width:15;stroke-linecap:round;stroke-linejoin:round;stroke-miterlimit:10;stroke-dasharray:none;stroke-opacity:1"
             id="path5426" /></g><g
           id="g5428"
           transform="translate(341.7344,409.1963)"><path
             d="m 0,0 c -3.314,-10.575 -11.921,-29.797 -31.988,-37.3 -1.639,-0.613 -1.639,-2.971 0,-3.583 20.067,-7.504 28.674,-26.724 31.988,-37.301 0.561,-1.789 3.103,-1.789 3.663,0 3.314,10.577 11.921,29.797 31.988,37.301 1.638,0.612 1.638,2.97 0,3.583 C 15.584,-29.797 6.977,-10.575 3.663,0 3.103,1.789 0.561,1.789 0,0"
             style="fill:#fdb541;fill-opacity:1;fill-rule:nonzero;stroke:none"
             id="path5430" /></g><g
           id="g5432"
           transform="translate(377.3848,368.3125)"><path
             d="m 0,0 c -20.067,-7.5 -28.672,-26.72 -31.984,-37.299 -0.563,-1.791 -3.107,-1.791 -3.67,0 -1.477,4.716 -3.998,11.127 -8.115,17.473 3.706,7.895 3.194,15.667 14.328,19.826 1.637,0.614 1.637,2.969 0,3.583 -11.134,4.167 -10.622,11.938 -14.328,19.833 4.117,6.339 6.638,12.758 8.115,17.466 0.563,1.791 3.107,1.791 3.67,0 C -28.672,30.311 -20.067,11.091 0,3.583 1.638,2.969 1.638,0.614 0,0"
             style="fill:#fea713;fill-opacity:1;fill-rule:nonzero;stroke:none"
             id="path5434" /></g><g
           id="g5436"
           transform="translate(341.7344,409.1963)"><path
             d="m 0,0 c -3.314,-10.575 -11.921,-29.797 -31.988,-37.3 -1.639,-0.613 -1.639,-2.971 0,-3.583 20.067,-7.504 28.674,-26.724 31.988,-37.301 0.561,-1.789 3.103,-1.789 3.663,0 3.314,10.577 11.921,29.797 31.988,37.301 1.638,0.612 1.638,2.97 0,3.583 C 15.584,-29.797 6.977,-10.575 3.663,0 3.103,1.789 0.561,1.789 0,0 Z"
             style="fill:none;stroke:#000000;stroke-width:15;stroke-linecap:round;stroke-linejoin:round;stroke-miterlimit:10;stroke-dasharray:none;stroke-opacity:1"
             id="path5438" /></g><g
           id="g5440"
           transform="translate(450.6777,502.5684)"><path
             d="m 0,0 c -4.176,-13.327 -15.021,-37.547 -40.307,-47.001 -2.064,-0.772 -2.064,-3.743 0,-4.516 25.286,-9.454 36.131,-33.673 40.307,-47.001 0.706,-2.253 3.91,-2.253 4.616,0 4.176,13.328 15.021,37.547 40.307,47.001 2.064,0.773 2.064,3.744 0,4.516 C 19.637,-37.547 8.792,-13.327 4.616,0 3.91,2.254 0.706,2.254 0,0"
             style="fill:#fdb541;fill-opacity:1;fill-rule:nonzero;stroke:none"
             id="path5442" /></g><g
           id="g5444"
           transform="translate(495.6006,451.0518)"><path
             d="m 0,0 c -25.287,-9.451 -36.13,-33.67 -40.303,-46.999 -0.709,-2.257 -3.915,-2.257 -4.624,0 -1.861,5.941 -5.039,14.02 -10.225,22.017 4.671,9.948 4.024,19.741 18.053,24.982 2.064,0.773 2.064,3.74 0,4.514 -14.029,5.251 -13.382,15.043 -18.053,24.992 5.186,7.986 8.364,16.074 10.225,22.007 0.709,2.257 3.915,2.257 4.624,0 C -36.13,38.192 -25.287,13.975 0,4.514 2.063,3.74 2.063,0.773 0,0"
             style="fill:#fea713;fill-opacity:1;fill-rule:nonzero;stroke:none"
             id="path5446" /></g><g
           id="g5448"
           transform="translate(481.4248,443.3174)"><path
             d="m 0,0 c 4.129,3.077 8.829,5.735 14.176,7.734 2.064,0.773 2.064,3.744 0,4.516 -25.286,9.454 -36.131,33.674 -40.307,47.001 -0.706,2.254 -3.91,2.254 -4.616,0 -4.176,-13.327 -15.021,-37.547 -40.307,-47.001 -2.064,-0.772 -2.064,-3.743 0,-4.516 25.286,-9.454 36.131,-33.673 40.307,-47.001 0.706,-2.254 3.91,-2.254 4.616,0 1.057,3.372 2.54,7.441 4.575,11.791"
             style="fill:none;stroke:#000000;stroke-width:15;stroke-linecap:round;stroke-linejoin:round;stroke-miterlimit:10;stroke-dasharray:none;stroke-opacity:1"
             id="path5450" /></g><g
           id="g5452"
           transform="translate(234.9414,504.0273)"><path
             d="m 0,0 -184.219,-44.995 c -4.045,-0.988 -6.656,-4.913 -6.005,-9.026 l 26.057,-164.485 c 0.717,-4.52 -2.501,-8.675 -7.047,-9.203 -9.127,-1.061 -18.604,-4.359 -27.415,-9.997 -25.032,-16.018 -35.206,-44.814 -22.725,-64.317 12.479,-19.503 42.889,-22.331 67.92,-6.313 19.86,12.709 30.353,33.459 27.628,51.234 l -25.554,161.31 c -0.652,4.112 1.96,8.038 6.005,9.026 l 122.203,29.848 c 4.546,1.11 9.07,-1.899 9.802,-6.521 l 15.354,-96.92 c 0.717,-4.524 -2.505,-8.681 -7.055,-9.204 -9.147,-1.053 -18.647,-4.355 -27.479,-10.006 -25.031,-16.018 -35.205,-44.813 -22.725,-64.317 12.48,-19.504 42.889,-22.33 67.92,-6.312 0.868,0.554 1.723,1.129 2.564,1.721 8.645,6.084 15.985,14.204 20.609,23.75 4.31,8.901 5.695,18.408 4.17,28.01 -1.338,8.429 -2.677,16.857 -4.015,25.284 -2.03,12.785 -4.06,25.568 -6.091,38.351 -2.304,14.515 -4.61,29.028 -6.915,43.542 -2.163,13.619 -4.325,27.238 -6.488,40.857 l -4.812,30.299 c -0.628,3.955 -1.257,7.91 -1.885,11.865 C 9.068,-1.897 4.545,1.11 0,0"
             style="fill:#e94444;fill-opacity:1;fill-rule:nonzero;stroke:none"
             id="path5454" /></g><g
           id="g5456"
           transform="translate(244.7471,497.5107)"><path
             d="m 0,0 c 0.621,-3.913 1.243,-7.825 1.864,-11.738 1.589,-10.004 3.178,-20.008 4.766,-30.013 2.147,-13.515 4.293,-27.028 6.439,-40.543 2.294,-14.442 4.587,-28.885 6.881,-43.328 2.031,-12.789 4.063,-25.577 6.094,-38.366 1.358,-8.554 2.717,-17.108 4.075,-25.662 3.277,-20.624 -7.311,-39.689 -23.852,-51.707 -1.114,-0.809 -2.251,-1.585 -3.411,-2.328 -7.92,-5.064 -16.378,-8.252 -24.639,-9.61 1.964,1 3.909,2.119 5.828,3.347 1.54,0.984 3.042,2.028 4.501,3.13 16.633,12.552 26.392,31.606 23.078,52.461 -1.404,8.836 -2.808,17.674 -4.211,26.511 -2.064,12.995 -4.128,25.99 -6.192,38.985 -2.316,14.581 -4.632,29.163 -6.949,43.745 -2.159,13.598 -4.319,27.198 -6.48,40.797 -1.595,10.047 -3.191,20.092 -4.787,30.139 -0.623,3.924 -1.246,7.848 -1.869,11.772 -0.404,2.512 -1.91,4.57 -3.941,5.744 l 13,3.177 C -5.263,7.631 -0.733,4.619 0,0"
             style="fill:#d83131;fill-opacity:1;fill-rule:nonzero;stroke:none"
             id="path5458" /></g><g
           id="g5460"
           transform="translate(219.4893,243.7471)"><path
             d="m 0,0 c 9.342,0.973 19.08,4.299 28.117,10.082 1.443,0.923 2.851,1.897 4.221,2.924 8.4,6.292 15.455,14.575 19.722,24.208 1.909,4.311 3.252,8.891 3.811,13.58 0.642,5.37 0.033,9.977 -0.813,15.308 -1.42,8.94 -2.84,17.879 -4.26,26.82 -2.031,12.789 -4.063,25.579 -6.093,38.368 -2.255,14.196 -4.51,28.394 -6.765,42.591 -2.09,13.164 -4.181,26.327 -6.271,39.491 -1.539,9.69 -3.078,19.379 -4.617,29.068 -0.599,3.774 -1.198,7.548 -1.798,11.322 -0.733,4.621 -5.257,7.629 -9.802,6.518 l -184.219,-44.995 c -4.045,-0.988 -6.656,-4.913 -6.005,-9.026 l 26.058,-164.485 c 0.716,-4.52 -2.502,-8.674 -7.048,-9.203 -9.127,-1.06 -18.604,-4.359 -27.415,-9.997 -25.031,-16.017 -35.206,-44.813 -22.725,-64.317 12.48,-19.503 42.889,-22.33 67.92,-6.313 19.86,12.709 30.354,33.459 27.628,51.235 l -25.554,161.309 c -0.652,4.113 1.96,8.038 6.005,9.027 L -7.7,203.362 c 4.546,1.111 9.071,-1.899 9.803,-6.521 L 17.457,99.921 C 18.173,95.397 14.951,91.24 10.401,90.717 1.254,89.664 -8.246,86.362 -17.078,80.711 -42.109,64.693 -52.283,35.898 -39.803,16.395 c 1.78,-2.783 3.925,-5.225 6.366,-7.322"
             style="fill:none;stroke:#000000;stroke-width:15;stroke-linecap:round;stroke-linejoin:round;stroke-miterlimit:10;stroke-dasharray:none;stroke-opacity:1"
             id="path5462" /></g></g></g></g></svg>
