<svg id="Capa_1" enable-background="new 0 0 512 512" height="512" viewBox="0 0 512 512" width="512" xmlns="http://www.w3.org/2000/svg"><g id="Flat_43_"><g><path d="m306.394 190.462-7.441 2.938 7.441-2.938c-6.697-16.959-12.48-31.605-16.695-45.732-.854-2.862-3.231-5.011-6.165-5.571-2.936-.56-5.936.561-7.785 2.906-6.223 7.896-13.909 15.62-24.186 24.307-2.54 2.146-3.487 5.641-2.378 8.776 3.81 10.778 8.062 21.545 12.563 32.944 20.161 51.054 45.252 114.591 45.252 220.908 0 14.598-3.817 32-22 32-8.914 0-24-5.265-24-25 0-13.234-10.767-24-24-24s-24 10.766-24 24c0 47.416 37.096 73 72 73 18.554 0 35.695-7.005 48.264-19.726 14.219-14.392 21.736-35.234 21.736-60.274 0-115.452-26.951-183.699-48.606-238.538z" fill="#02b27d"/><path d="m290.151 56.929c-6.088-5.768-11.272-13.205-16.761-21.079-.931-1.335-1.863-2.673-2.803-4.006-1.443-2.048-3.763-3.302-6.267-3.387-2.509-.094-4.904 1.007-6.483 2.953-10.418 12.831-22.837 35.841-22.837 72.59 0 27.336 7.17 51.306 14.185 71.148.876 2.478 2.913 4.368 5.45 5.055.69.187 1.394.278 2.092.278 1.869 0 3.704-.655 5.165-1.89 11.121-9.399 19.518-17.859 26.424-26.622 1.611-2.044 2.127-4.745 1.383-7.239-4.571-15.318-6.699-28.26-6.699-40.73 0-15.109 2.871-27.621 8.534-37.189 1.902-3.213 1.328-7.314-1.383-9.882z" fill="#67d1b1"/><path d="m384.238 240.509c-17.716-20.964-42.522-32.509-69.847-32.509-23.769 0-45.824 7.782-62.104 21.914-18.658 16.196-28.52 39.048-28.52 66.086 0 13.234 10.767 24 24 24s24-10.766 24-24c0-38.071 35.505-40 42.623-40 29.76 0 45.61 27.876 45.61 48 0 40.12-25.134 63.13-68.957 63.13-13.291 0-35.277-4.516-53.504-17.243-20.264-14.149-30.539-34.97-30.539-61.887 0-22.625 10.566-46.703 32.303-73.608 20.261-25.08 46.777-48.071 68.086-66.548 18.188-15.77 32.554-28.226 40.938-39.614 25.872-35.142 18.798-62.022 12.279-74.917-9.166-18.131-28.437-30.313-47.954-30.313-18.609 0-38.201 9.559-52.409 25.572-.795.896-1.605 1.852-2.406 2.839-2.257 2.78-2.391 6.723-.328 9.65.924 1.311 1.841 2.626 2.756 3.939 5.707 8.187 11.607 16.652 18.883 23.544 1.767 1.674 4.202 2.452 6.61 2.115 2.41-.337 4.536-1.753 5.776-3.848 1.396-2.358 2.948-4.506 4.614-6.383 6.617-7.457 13.689-9.428 16.502-9.428.893.015 3.728 1.217 5.119 3.969 2.591 5.125-.436 14.396-8.097 24.802-5.214 7.082-19.064 19.091-33.729 31.807-22.74 19.717-51.04 44.255-73.979 72.65-28.91 35.786-42.964 69.73-42.964 103.772 0 54.212 27.766 84.979 51.059 101.243 27.335 19.087 59.757 25.888 80.984 25.888 34.56 0 63.883-10.464 84.798-30.262 21.039-19.913 32.159-47.877 32.159-80.869 0-22.481-8.661-45.623-23.762-63.491z" fill="#67d1b1"/><g><path d="m252.288 229.914c-15.638 13.575-25.093 31.828-27.745 53.3 1.399 13.061 5.528 24.477 12.346 34.168 3.268 1.67 6.964 2.618 10.88 2.618 10.349 0 19.189-6.585 22.551-15.786-1.783.424-3.64.655-5.551.655-13.233 0-24-10.766-24-24 0-22.41 6.781-41.939 19.722-57.191-2.865 1.921-5.615 3.989-8.203 6.236z" fill="#34c297"/><path d="m329.675 128.125c-1.727 1.501-3.482 3.024-5.285 4.588-8.068 6.996-16.883 14.641-25.821 22.799 3.014-2.631 5.967-5.193 8.821-7.668 8.295-7.194 15.784-13.692 22.285-19.719z" fill="#02b27d"/><path d="m308.043 400c-21.227 0-53.649-6.801-80.984-25.888-23.293-16.263-51.059-47.03-51.059-101.242 0-34.042 14.054-67.986 42.965-103.772 14.607-18.081 31.385-34.591 47.52-49.295-20.804 18.172-44.667 39.851-64.52 64.426-28.911 35.785-42.965 69.729-42.965 103.771 0 54.212 27.766 84.979 51.059 101.243 27.335 19.087 59.757 25.888 80.984 25.888 34.56 0 63.883-10.464 84.798-30.262 2.033-1.924 3.971-3.926 5.817-5.997-19.686 13.863-44.831 21.128-73.615 21.128z" fill="#34c297"/></g></g><g fill="#f79235"><path d="m508.485 65.375c-2.198-1.488-4.992-1.788-7.456-.803l-80 32c-3.037 1.215-5.029 4.157-5.029 7.428v59.123c-4.682-1.989-10.13-3.123-16-3.123-17.944 0-32 10.542-32 24s14.056 24 32 24 32-10.542 32-24v-74.584l64-25.6v47.307c-4.682-1.989-10.13-3.123-16-3.123-17.944 0-32 10.542-32 24s14.056 24 32 24 32-10.542 32-24v-80c0-2.655-1.317-5.136-3.515-6.625z"/><path d="m140.485 337.375c-2.198-1.489-4.992-1.788-7.456-.803l-80 32c-3.037 1.215-5.029 4.157-5.029 7.428v59.123c-4.682-1.989-10.13-3.123-16-3.123-17.944 0-32 10.542-32 24s14.056 24 32 24 32-10.542 32-24v-74.584l64-25.6v47.307c-4.682-1.989-10.13-3.123-16-3.123-17.944 0-32 10.542-32 24s14.056 24 32 24 32-10.542 32-24v-80c0-2.655-1.317-5.136-3.515-6.625z"/><path d="m172.485 49.375c-2.198-1.489-4.992-1.788-7.456-.803l-80 32c-3.037 1.215-5.029 4.157-5.029 7.428v59.123c-4.682-1.989-10.13-3.123-16-3.123-17.944 0-32 10.542-32 24s14.056 24 32 24 32-10.542 32-24v-74.584l64-25.6v47.307c-4.682-1.989-10.13-3.123-16-3.123-17.944 0-32 10.542-32 24s14.056 24 32 24 32-10.542 32-24v-80c0-2.655-1.317-5.136-3.515-6.625z"/></g></g></svg>