<svg id="Capa_1" enable-background="new 0 0 512 512" height="512" viewBox="0 0 512 512" width="512" xmlns="http://www.w3.org/2000/svg"><g><path d="m131.75 133.482c-68.621 0-124.25 21.108-124.25 47.145 0 8.407 5.8 16.301 15.965 23.136 5.707 3.837 9.035 10.349 9.035 17.226v53.684c0 6.963 5.645 12.608 12.608 12.608 6.963 0 12.608-5.645 12.608-12.608v-35.517c0-10.305 9.358-18.04 19.49-16.159.102.019.205.038.307.057 5.795 1.068 9.987 6.148 9.987 12.041 0 6.963 5.645 12.608 12.608 12.608 6.963 0 12.608-5.645 12.608-12.608 0-4.239 3.501-7.661 7.738-7.516 3.721.127 7.489.192 11.297.192 68.621 0 124.25-21.108 124.25-47.145-.001-26.036-55.63-47.144-124.251-47.144z" fill="#86f1a7"/><path d="m131.75 202.773c-26.202 0-51.523-3.388-71.3-9.541-10.908-3.393-18.092-7.003-22.527-9.883-1.976-1.283-1.976-4.158 0-5.442 4.435-2.881 11.619-6.49 22.527-9.884 19.776-6.152 45.098-9.541 71.3-9.541s51.523 3.389 71.3 9.541c10.908 3.394 18.092 7.003 22.527 9.884 1.976 1.283 1.976 4.158 0 5.442-4.435 2.881-11.619 6.49-22.527 9.883-19.777 6.152-45.098 9.541-71.3 9.541z" fill="#80e29d"/><path d="m256 438.718c0 26.038-55.629 47.145-124.25 47.145s-124.25-21.108-124.25-47.145v-30.259c0 26.038 55.629 47.145 124.25 47.145s124.25-21.107 124.25-47.145z" fill="#c6c1c8"/><ellipse cx="256" cy="73.281" fill="#c6c1c8" rx="124.25" ry="47.145"/><path d="m256 95.426c-26.202 0-51.523-3.388-71.3-9.541-10.908-3.393-18.092-7.003-22.527-9.883-1.976-1.283-1.976-4.158 0-5.442 4.435-2.881 11.619-6.49 22.527-9.884 19.776-6.152 45.098-9.541 71.3-9.541s51.523 3.389 71.3 9.541c10.908 3.394 18.092 7.003 22.527 9.884 1.976 1.283 1.976 4.158 0 5.442-4.435 2.881-11.619 6.49-22.527 9.883-19.777 6.153-45.098 9.541-71.3 9.541z" fill="#7ad0df"/><ellipse cx="380.25" cy="180.627" fill="#c6c1c8" rx="124.25" ry="47.145"/><path d="m380.25 202.773c-26.202 0-51.523-3.388-71.3-9.541-10.908-3.393-18.092-7.003-22.527-9.883-1.976-1.283-1.976-4.158 0-5.442 4.435-2.881 11.619-6.49 22.527-9.884 19.776-6.152 45.098-9.541 71.3-9.541s51.523 3.389 71.3 9.541c10.908 3.394 18.092 7.003 22.527 9.884 1.976 1.283 1.976 4.158 0 5.442-4.435 2.881-11.619 6.49-22.527 9.883-19.777 6.152-45.098 9.541-71.3 9.541z" fill="#9373b9"/><path d="m504.5 438.718c0 26.038-55.629 47.145-124.25 47.145s-124.25-21.108-124.25-47.145v-30.259c0 26.038 55.629 47.145 124.25 47.145s124.25-21.108 124.25-47.145z" fill="#c6c1c8"/><path d="m380.25 133.482v-60.201c0 26.038-55.629 47.145-124.25 47.145s-124.25-21.108-124.25-47.145v60.201c68.621 0 124.25 21.108 124.25 47.145 0-26.037 55.629-47.145 124.25-47.145z" fill="#f1f1f4"/><path d="m340.25 107.933v28.046c12.552-1.618 26.006-2.496 40-2.496v-60.202c0 13.701-15.405 26.038-40 34.652z" fill="#dfdde2"/><circle cx="131.75" cy="333.609" fill="#86f1a7" r="60.905"/><circle cx="380.25" cy="333.609" fill="#9373b9" r="60.905"/><path d="m192.627 331.736c.019.622.028 1.247.028 1.874 0 33.637-27.268 60.905-60.905 60.905s-60.905-27.268-60.905-60.905c0-.627.01-1.251.028-1.874-37.825-8.082-63.373-23.463-63.373-41.109v117.832c0 26.038 55.629 47.145 124.25 47.145s124.25-21.107 124.25-47.145v-117.832c0 17.646-25.548 33.027-63.373 41.109z" fill="#665e66"/><path d="m380.25 227.773c-68.621 0-124.25-21.108-124.25-47.145v110.196c.119 17.593 25.635 32.921 63.371 40.984.953-32.804 27.844-59.104 60.879-59.104 33.034 0 59.926 26.3 60.879 59.103 37.824-8.082 63.37-23.463 63.37-41.107h.001v-110.073c0 26.038-55.629 47.146-124.25 47.146z" fill="#f1f1f4"/><path d="m504.499 290.7c0 17.645-25.546 33.025-63.37 41.107.017.598.026 1.199.026 1.802 0 33.637-27.268 60.905-60.905 60.905s-60.905-27.268-60.905-60.905c0-.603.009-1.203.026-1.802-37.737-8.063-63.252-23.391-63.371-40.984v117.636c0 26.038 55.629 47.145 124.25 47.145s124.25-21.108 124.25-47.145z" fill="#665e66"/><path d="m131.75 227.773c-3.808 0-7.576-.065-11.297-.192-4.236-.145-7.738 3.277-7.738 7.516 0 6.963-5.645 12.608-12.608 12.608s-12.607-5.646-12.607-12.609c0-5.892-4.193-10.972-9.987-12.041-.05-.009-.1-.018-.15-.028-.057-.011-.115-.021-.173-.032-10.126-1.871-19.475 5.861-19.475 16.161v35.517c0 6.963-5.645 12.608-12.608 12.608s-12.607-5.644-12.607-12.607v-53.684c0-6.877-3.328-13.389-9.035-17.226-10.164-6.835-15.965-14.729-15.965-23.137v110c0 17.645 25.548 33.026 63.373 41.108.99-32.77 27.866-59.031 60.877-59.031s59.886 26.261 60.877 59.031c37.825-8.081 63.373-23.462 63.373-41.108v-110c0 26.038-55.629 47.146-124.25 47.146z" fill="#f1f1f4"/><path d="m216 325.279v63.18c0 26.038-55.629 47.145-124.25 47.145-28.377 0-54.531-3.609-75.449-9.684 18.288 17.393 63.085 29.684 115.449 29.684 68.621 0 124.25-21.108 124.25-47.145v-117.832c0 13.702-15.404 26.038-40 34.652z" fill="#544f57"/><path d="m504.499 290.7c0 13.701-15.404 26.037-39.999 34.651v63.108c0 26.038-55.629 47.145-124.25 47.145-28.377 0-54.531-3.609-75.449-9.684 18.288 17.393 63.085 29.684 115.449 29.684 68.621 0 124.25-21.108 124.25-47.145z" fill="#544f57"/><path d="m464.5 215.279v110.072c24.595-8.614 39.999-20.95 39.999-34.651h.001v-110.073c0 13.702-15.405 26.038-40 34.652z" fill="#dfdde2"/><path d="m216 215.279v110c24.596-8.614 40-20.95 40-34.652v-110c0 13.702-15.405 26.038-40 34.652z" fill="#dfdde2"/><path d="m33.838 189.638c4.271 2.774 11.969 6.893 24.384 10.755 20.478 6.371 46.591 9.879 73.528 9.879s53.051-3.509 73.527-9.879c12.416-3.863 20.113-7.981 24.384-10.755 3.066-1.992 4.897-5.36 4.897-9.011s-1.831-7.02-4.896-9.011c-4.271-2.774-11.969-6.893-24.385-10.755-20.479-6.371-46.591-9.879-73.527-9.879s-53.049 3.509-73.527 9.879c-12.416 3.863-20.113 7.981-24.384 10.755-3.066 1.992-4.897 5.36-4.897 9.011-.001 3.651 1.83 7.02 4.896 9.011zm28.84-14.453c39.401-12.258 98.677-12.278 138.145 0 6.007 1.869 10.656 3.751 14.198 5.443-3.542 1.691-8.191 3.574-14.199 5.442-39.389 12.256-98.674 12.28-138.144 0-6.007-1.869-10.656-3.751-14.198-5.443 3.541-1.691 8.191-3.573 14.198-5.442z"/><path d="m158.088 82.291c4.271 2.774 11.969 6.893 24.384 10.755 20.478 6.371 46.591 9.879 73.528 9.879s53.051-3.509 73.527-9.879c12.416-3.863 20.113-7.981 24.384-10.755 3.066-1.992 4.897-5.36 4.897-9.011s-1.831-7.02-4.896-9.011c-4.271-2.774-11.969-6.893-24.385-10.755-20.479-6.371-46.591-9.879-73.527-9.879s-53.049 3.509-73.527 9.879c-12.416 3.863-20.113 7.981-24.384 10.755-3.066 1.992-4.897 5.36-4.897 9.011-.001 3.651 1.83 7.02 4.896 9.011zm28.84-14.453c39.401-12.258 98.677-12.278 138.145 0 6.007 1.869 10.656 3.751 14.198 5.443-3.542 1.691-8.191 3.574-14.199 5.442-39.389 12.256-98.674 12.28-138.144 0-6.007-1.869-10.656-3.751-14.198-5.443 3.541-1.691 8.191-3.573 14.198-5.442z"/><path d="m478.162 171.617c-4.271-2.774-11.969-6.893-24.385-10.755-20.479-6.371-46.591-9.879-73.527-9.879s-53.049 3.509-73.527 9.879c-12.416 3.863-20.113 7.981-24.384 10.755-3.066 1.992-4.897 5.36-4.897 9.011 0 3.65 1.831 7.019 4.896 9.01 4.271 2.774 11.969 6.893 24.384 10.755 20.478 6.371 46.591 9.879 73.528 9.879s53.051-3.509 73.527-9.879c12.416-3.863 20.113-7.981 24.384-10.755 3.066-1.992 4.897-5.36 4.897-9.011.001-3.65-1.83-7.019-4.896-9.01zm-28.841 14.453c-39.389 12.256-98.674 12.28-138.144 0-6.007-1.869-10.656-3.751-14.198-5.443 3.542-1.691 8.191-3.574 14.198-5.442 39.401-12.258 98.677-12.278 138.145 0 6.007 1.869 10.656 3.751 14.198 5.443-3.541 1.691-8.191 3.573-14.199 5.442z"/><path d="m504.5 232.685c4.143 0 7.5-3.358 7.5-7.5v-44.558c0-15.931-14.643-30.26-41.231-40.349-22.506-8.54-51.748-13.525-83.019-14.214v-52.783c0-15.931-14.643-30.26-41.231-40.349-48.077-18.242-122.59-18.786-172.397-2.998-3.948 1.251-6.135 5.467-4.883 9.416 1.252 3.95 5.469 6.133 9.416 4.883 21.558-6.833 49.026-10.597 77.346-10.597 32.302 0 62.559 4.731 85.197 13.321 19.757 7.497 31.553 17.338 31.553 26.325s-11.796 18.828-31.553 26.324c-22.639 8.59-52.896 13.321-85.197 13.321s-62.559-4.73-85.197-13.321c-19.757-7.497-31.553-17.337-31.553-26.324 0-6.105 5.426-11.527 9.978-15 3.293-2.513 3.926-7.219 1.412-10.512-2.512-3.293-7.22-3.926-10.512-1.413-13.124 10.013-15.879 20.168-15.879 26.924v52.784c-31.271.688-60.512 5.674-83.019 14.214-26.588 10.088-41.231 24.418-41.231 40.348v164.825c0 4.142 3.357 7.5 7.5 7.5s7.5-3.358 7.5-7.5v-28.7c10.899 8.671 27.417 15.919 48.469 20.992 2.145 35.801 31.951 64.27 68.281 64.27s66.136-28.469 68.281-64.27c21.052-5.073 37.569-12.322 48.469-20.992v91.707c0 8.987-11.796 18.828-31.553 26.325-22.639 8.59-52.896 13.321-85.197 13.321s-62.559-4.731-85.197-13.321c-19.757-7.497-31.553-17.338-31.553-26.325v-28.007c0-4.142-3.357-7.5-7.5-7.5s-7.5 3.358-7.5 7.5v58.266c0 15.931 14.643 30.26 41.231 40.349 24.297 9.219 56.443 14.296 90.519 14.296s66.222-5.077 90.519-14.296c15.459-5.866 26.879-13.165 33.731-21.379 6.853 8.214 18.273 15.513 33.731 21.379 24.297 9.219 56.443 14.296 90.519 14.296s66.222-5.077 90.519-14.296c26.588-10.089 41.231-24.419 41.231-40.349 0-94.315 0-88.068 0-178.533 0-4.142-3.357-7.5-7.5-7.5s-7.5 3.358-7.5 7.5c0 39.463-.001 28.532-.001 30.515 0 9.934-15.304 23.221-49.236 31.857-5.298-32.482-33.556-57.354-67.513-57.354s-62.214 24.871-67.513 57.354c-33.843-8.616-49.17-21.872-49.237-31.786v-83.951c6.668 5.297 15.472 10.074 26.231 14.157 24.297 9.219 56.443 14.296 90.519 14.296s66.222-5.077 90.519-14.296c10.76-4.083 19.563-8.86 26.231-14.157v18.365c0 4.142 3.357 7.5 7.5 7.5zm-339.019-119.055c24.297 9.219 56.443 14.296 90.519 14.296s66.222-5.077 90.519-14.296c10.76-4.083 19.563-8.86 26.231-14.156v26.591c-31.271.688-60.512 5.674-83.019 14.214-15.459 5.865-26.879 13.165-33.731 21.378-6.853-8.214-18.273-15.513-33.731-21.378-22.506-8.54-51.748-13.525-83.019-14.214v-26.592c6.668 5.297 15.472 10.074 26.231 14.157zm-118.928 40.673c22.639-8.59 52.896-13.321 85.197-13.321s62.559 4.73 85.197 13.321c19.757 7.497 31.553 17.337 31.553 26.324s-11.796 18.828-31.553 26.325c-22.639 8.59-52.896 13.321-85.197 13.321-3.684 0-7.398-.063-11.04-.188-8.72-.295-15.494 6.776-15.494 15.012 0 2.816-2.292 5.107-5.108 5.107s-5.108-2.291-5.108-5.108c0-9.527-6.782-17.693-16.151-19.421l-.273-.05c-7.037-1.307-14.233.564-19.732 5.136-5.482 4.558-8.627 11.264-8.627 18.396v35.517c0 2.816-2.292 5.107-5.108 5.107s-5.109-2.29-5.109-5.107v-53.684c0-9.484-4.617-18.251-12.35-23.45-5.771-3.881-12.65-9.965-12.65-16.913 0-8.987 11.796-18.827 31.553-26.324zm85.197 232.711c-29.764 0-53.852-24.457-53.399-54.208.414-28.963 24.12-52.602 53.399-52.602 29.31 0 52.986 23.669 53.399 52.602.453 29.753-23.638 54.208-53.399 54.208zm67.501-64.526c-5.327-32.449-33.568-57.284-67.501-57.284s-62.174 24.836-67.501 57.284c-33.941-8.636-49.249-21.925-49.249-31.861v-83.759c1.315 1.042 2.738 2.083 4.28 3.12 3.581 2.408 5.72 6.521 5.72 11.002v53.685c0 11.087 9.021 20.107 20.107 20.107 11.088 0 20.108-9.02 20.108-20.107v-35.517c0-2.701 1.143-5.138 3.217-6.862 2.059-1.712 4.752-2.414 7.392-1.925l.328.061c2.229.411 3.848 2.374 3.848 4.666 0 11.087 9.021 20.107 20.107 20.107 11.088 0 20.108-9.021 20.089-20.128 3.812.13 7.699.197 11.554.197 34.075 0 66.222-5.077 90.519-14.296 10.76-4.083 19.563-8.86 26.231-14.157v83.808c0 9.934-15.308 23.223-49.249 31.859zm17.696 142.554c-22.639 8.59-52.896 13.321-85.197 13.321s-62.559-4.731-85.197-13.321c-19.757-7.496-31.553-17.338-31.553-26.324v-4.066c6.668 5.297 15.472 10.074 26.231 14.157 24.297 9.219 56.443 14.296 90.519 14.296s66.222-5.077 90.519-14.296c10.76-4.083 19.563-8.86 26.231-14.157v4.066c0 8.986-11.796 18.828-31.553 26.324zm248.5 0c-22.639 8.59-52.896 13.321-85.197 13.321s-62.559-4.731-85.197-13.321c-19.757-7.497-31.553-17.338-31.553-26.325v-4.066c6.668 5.297 15.472 10.074 26.231 14.157 24.297 9.219 56.443 14.296 90.519 14.296s66.222-5.077 90.519-14.296c10.76-4.083 19.563-8.86 26.231-14.157v4.066c0 8.987-11.796 18.829-31.553 26.325zm-85.197-184.838c28.916 0 52.537 23.1 53.382 51.814.885 30.111-23.349 54.996-53.382 54.996-29.679 0-54.271-24.531-53.382-54.986.838-28.703 24.447-51.824 53.382-51.824zm-68.277 57.613c2.181 35.767 31.971 64.198 68.277 64.198s66.096-28.43 68.277-64.197c21.055-5.073 37.572-12.322 48.473-20.993v91.635c0 8.987-11.796 18.828-31.553 26.325-22.639 8.59-52.896 13.321-85.197 13.321s-62.559-4.731-85.197-13.321c-19.757-7.497-31.553-17.338-31.553-26.325v-91.52c13.093 10.373 32.314 16.98 48.473 20.877zm153.474-130.865c-22.639 8.59-52.896 13.321-85.197 13.321s-62.559-4.731-85.197-13.321c-19.757-7.497-31.553-17.338-31.553-26.325s11.796-18.828 31.553-26.324c22.639-8.59 52.896-13.321 85.197-13.321s62.559 4.73 85.197 13.321c19.757 7.497 31.553 17.337 31.553 26.324s-11.796 18.828-31.553 26.325z"/></g></svg>