<svg id="Capa_1" enable-background="new 0 0 512 512" height="512" viewBox="0 0 512 512" width="512" xmlns="http://www.w3.org/2000/svg"><g><path d="m383.353 333.646c0 26.823-57.308 48.568-128 48.568s-128-21.745-128-48.568v-31.172c0 26.823 256 26.823 256 0z" fill="#c6c1c8"/><path d="m255.353 103.976c-70.692 0-128-9.386-128-36.209v113.522c.122 18.124 26.408 61.116 65.284 69.423.982-33.794 124.45-33.794 125.432 0 38.966-8.326 65.283-51.372 65.283-69.549h.001v-113.397c0 26.824-57.307 36.21-128 36.21z" fill="#f1f1f4"/><path d="m342.146 95.103v141.73c25.337-8.874 41.206-41.557 41.206-55.672h.001v-113.395c0 14.116-15.869 18.463-41.207 27.337z" fill="#dfdde2"/><path d="m383.352 181.161c0 18.177-26.317 34.022-65.283 42.348.018.616.027 1.235.027 1.856 0 34.652-28.091 62.743-62.743 62.743s-62.743-28.091-62.743-62.743c0-.621.009-1.239.027-1.856-38.876-8.307-65.161-24.097-65.284-42.221v121.186c0 26.823 57.308 48.568 128 48.568s128-21.745 128-48.568v-121.313z" fill="#665e66"/><path d="m383.352 181.161c0 14.115-15.869 26.823-41.206 35.697v65.012c0 26.823-57.308 48.568-128 48.568-29.233 0-56.177-3.718-77.726-9.977 18.84 17.918 64.989 30.58 118.934 30.58 70.692 0 128-21.745 128-48.568v-121.312z" fill="#544f57"/><ellipse cx="255.353" cy="67.766" fill="#c6c1c8" rx="128" ry="48.568"/><path d="m256 444.234c0 26.823-57.308 48.568-128 48.568s-128-21.745-128-48.568v-31.172c0 26.823 256 26.823 256 0z" fill="#c6c1c8"/><path d="m128 214.563c-70.692 0-128-9.386-128-36.209v113.522c.122 18.124 26.408 61.115 65.284 69.422.982-33.794 124.45-33.794 125.432 0 38.966-8.326 65.283-51.372 65.283-69.549h.001v-113.395c0 26.823-57.308 36.209-128 36.209z" fill="#f1f1f4"/><path d="m214.793 205.69v141.73c25.337-8.874 41.206-41.557 41.206-55.672h.001v-113.394c0 14.115-15.869 18.462-41.207 27.336z" fill="#dfdde2"/><path d="m255.999 291.748c0 18.177-26.317 34.022-65.283 42.348.018.616.027 1.235.027 1.856 0 34.652-28.091 62.743-62.743 62.743s-62.743-28.091-62.743-62.743c0-.621.009-1.239.027-1.856-38.876-8.306-65.162-24.096-65.284-42.221v121.186c0 26.823 57.308 48.568 128 48.568s128-21.745 128-48.568v-121.313z" fill="#665e66"/><path d="m255.999 291.748c0 14.115-15.869 26.823-41.206 35.697v65.012c0 26.823-57.308 48.568-128 48.568-29.233 0-56.177-3.718-77.726-9.977 18.84 17.918 64.989 30.58 118.934 30.58 70.692 0 128-21.745 128-48.568v-121.312z" fill="#544f57"/><circle cx="128" cy="335.953" fill="#86f1a7" r="62.743"/><path d="m128 129.786c-70.692 0-128 21.745-128 48.568 0 8.661 5.975 16.793 16.447 23.834 5.879 3.953 9.307 10.662 9.307 17.746v55.304c0 7.173 5.815 12.988 12.988 12.988 7.173 0 12.988-5.815 12.988-12.988v-36.588c0-10.616 9.641-18.584 20.078-16.646.105.02.211.039.316.059 5.97 1.101 10.289 6.334 10.289 12.404 0 7.173 5.815 12.988 12.988 12.988 7.173 0 12.988-5.815 12.988-12.988 0-4.367 3.607-7.892 7.971-7.743 3.833.131 7.715.198 11.638.198 70.692 0 128-21.745 128-48.568.002-26.824-57.306-48.568-127.998-48.568z" fill="#86f1a7"/><path d="m128 201.167c-26.993 0-53.078-3.49-73.452-9.829-11.237-3.496-18.638-7.214-23.207-10.182-2.035-1.322-2.036-4.284 0-5.606 4.569-2.968 11.97-6.686 23.207-10.182 20.373-6.338 46.459-9.829 73.452-9.829s53.078 3.491 73.452 9.829c11.237 3.496 18.638 7.214 23.207 10.182 2.035 1.322 2.035 4.284 0 5.606-4.569 2.968-11.97 6.686-23.207 10.182-20.374 6.339-46.459 9.829-73.452 9.829z" fill="#80e29d"/><path d="m256 90.581c-26.993 0-53.078-3.49-73.452-9.829-11.237-3.496-18.638-7.214-23.207-10.182-2.035-1.322-2.036-4.284 0-5.606 4.569-2.968 11.97-6.686 23.207-10.182 20.373-6.338 46.459-9.829 73.452-9.829s53.078 3.491 73.452 9.829c11.237 3.496 18.638 7.214 23.207 10.182 2.035 1.322 2.035 4.284 0 5.606-4.569 2.968-11.97 6.686-23.207 10.182-20.374 6.338-46.459 9.829-73.452 9.829z" fill="#7ad0df"/><path d="m512 444.234c0 26.823-57.308 48.568-128 48.568s-128-21.745-128-48.568v-31.172c0 26.823 256 26.823 256 0z" fill="#c6c1c8"/><path d="m342.793 103.465v28.892c12.931-1.667 26.791-2.572 41.207-2.572v-62.018c0 14.115-15.869 26.824-41.207 35.698z" fill="#dfdde2"/><path d="m384 214.563c-70.692 0-128-9.386-128-36.209v113.522c.122 18.124 26.408 61.116 65.284 69.423.982-33.794 124.45-33.794 125.432 0 38.966-8.326 65.283-51.372 65.283-69.549h.001v-113.396c0 26.823-57.308 36.209-128 36.209z" fill="#f1f1f4"/><path d="m470.793 205.69v141.73c25.337-8.874 41.206-41.557 41.206-55.672h.001v-113.394c0 14.115-15.869 18.462-41.207 27.336z" fill="#dfdde2"/><path d="m511.999 291.748c0 18.177-26.317 34.022-65.283 42.348.018.616.027 1.235.027 1.856 0 34.652-28.091 62.743-62.743 62.743s-62.743-28.091-62.743-62.743c0-.621.009-1.239.027-1.856-38.876-8.306-65.162-24.096-65.284-42.221v121.186c0 26.823 57.308 48.568 128 48.568s128-21.745 128-48.568v-121.313z" fill="#665e66"/><path d="m511.999 291.748c0 14.115-15.869 26.823-41.206 35.697v65.012c0 26.823-57.308 48.568-128 48.568-29.233 0-56.177-3.718-77.726-9.977 18.84 17.918 64.989 30.58 118.934 30.58 70.692 0 128-21.745 128-48.568v-121.312z" fill="#544f57"/><ellipse cx="384" cy="178.354" fill="#c6c1c8" rx="128" ry="48.568"/><g fill="#9373b9"><path d="m384 201.167c-26.993 0-53.078-3.49-73.452-9.829-11.237-3.496-18.638-7.214-23.207-10.182-2.035-1.322-2.036-4.284 0-5.606 4.569-2.968 11.97-6.686 23.207-10.182 20.373-6.338 46.459-9.829 73.452-9.829s53.078 3.491 73.452 9.829c11.237 3.496 18.638 7.214 23.207 10.182 2.035 1.322 2.035 4.284 0 5.606-4.569 2.968-11.97 6.686-23.207 10.182-20.374 6.339-46.459 9.829-73.452 9.829z"/><circle cx="384" cy="335.953" r="62.743"/></g></g></svg>