<svg id="Capa_1" enable-background="new 0 0 496.31 496.31" height="512" viewBox="0 0 496.31 496.31" width="512" xmlns="http://www.w3.org/2000/svg"><g><path d="m449.285 194.11h-54.04c-32.96 0-63.03-18.8-77.46-48.43l-29.42-60.41c-25.41-52.17-78.35-85.27-136.37-85.27-41.89 0-79.81 16.98-107.26 44.43s-44.43 65.37-44.43 107.26v338.5c0 3.38 2.74 6.12 6.12 6.12h35.05v-25.678h411.72v25.678h36.68c3.39 0 6.13-2.74 6.13-6.12v-249.36c0-25.8-20.92-46.72-46.72-46.72z" fill="#b5adb6"/><path d="m441.374 285.03h-292.899c-48.546 0-87.901-39.355-87.901-87.901v-24.822c0-41.89 16.98-79.81 44.43-107.26s65.37-44.43 107.26-44.43c6.013 0 11.999.369 17.877 1.064-23.156-13.916-50.066-21.681-78.146-21.681-41.89 0-79.81 16.98-107.26 44.43s-44.43 65.37-44.43 107.26v338.5c0 3.38 2.74 6.12 6.12 6.12h35.05v-25.678h411.72v25.678h20v-179.459c0-17.574-14.247-31.821-31.821-31.821z" fill="#a79ba7"/><path d="m441.374 305.03h-21.183v.002l-4.215 6.592h-28.492l-7.605-6.592v-.002h-58.799v.002l-3.224 8.899h-30.264l-6.824-8.899v-.002h-65.865v.002l-4.944 9.078h-26.251l-9.118-9.078v-.002h-58.799v.002l-4.479 7.648h-27.753l-8.08-7.648v-.002h-22.183c-6.529 0-11.821 5.292-11.821 11.821v179.459h411.72v-179.459c0-6.529-5.292-11.821-11.821-11.821z" fill="#f9f7f8"/><path d="m88.135 320.074h15v176.236h-15z" fill="#efedef"/><path d="m187.247 328.13h15v168.18h-15z" fill="#efedef"/><path d="m107.781 406.226h-24.292c-4.424 0-8.01-3.586-8.01-8.01v-93.186h40.312v93.186c0 4.424-3.586 8.01-8.01 8.01z" fill="#a79ba7"/><path d="m206.893 406.226h-24.293c-4.424 0-8.01-3.586-8.01-8.01v-93.186h40.312v93.186c.001 4.424-3.586 8.01-8.009 8.01z" fill="#a79ba7"/><path d="m138.005 305.033v191.277h15v-191.277-.003h-14.999z" fill="#efedef"/><path d="m392.535 324.212h15v172.098h-15z" fill="#efedef"/><path d="m387.889 406.222h24.292c4.424 0 8.01-3.586 8.01-8.01v-93.186h-40.312v93.186c0 4.424 3.586 8.01 8.01 8.01z" fill="#a79ba7"/><path d="m293.423 317.521h15v178.789h-15z" fill="#efedef"/><path d="m288.778 406.229h24.292c4.424 0 8.01-3.586 8.01-8.01v-93.186h-40.312v93.186c0 4.423 3.586 8.01 8.01 8.01z" fill="#a79ba7"/><g fill="#efedef"><path d="m342.665 305.03h15v191.28h-15z"/><path d="m240.654 305.033v191.277h15v-191.277-.003h-15z"/></g></g></svg>