<svg height="511pt" viewBox="0 -22 511.99975 511" width="511pt" xmlns="http://www.w3.org/2000/svg"><g fill-rule="evenodd"><path d="m319.777344 49.136719c-16.78125 22.65625-22.703125 50.046875-18.707032 75.96875l43.023438 65.730469 73.292969 20.472656c25.960937-3.714844 50.417969-17.351563 67.199219-40.039063 33.46875-45.199219 23.71875-109.203125-21.796876-142.917969-45.515624-33.746093-109.539062-24.445312-143.011718 20.785157zm0 0" fill="#808080"/><path d="m280.71875 163.640625 35.824219 60.941406 70.914062 18.175781 30.78125-30.824218-.851562-.625-116.316407-86.203125-61.078124 110.476562zm0 0" fill="#e6e6e6"/><path d="m186.113281 362.199219c-7.734375 10.460937-5.527343 25.347656 4.933594 33.089843 10.457031 7.742188 25.335937 5.53125 33.105469-4.933593l16.4375-22.230469c2.324218-21.097656-10.457032-34.539062-38.800782-27.109375zm0 0" fill="#808080"/><path d="m239.964844 235.613281-37.183594 67.234375c-7.371094 13.355469-6.605469 26.910156-.992188 38.195313 7.253907 14.546875 22.558594 25.351562 38.800782 27.082031 11.675781 1.246094 23.835937-2.15625 33.839844-12.164062l54.417968-54.503907-25.394531-59.09375zm0 0" fill="#e6e6e6"/><path d="m280.71875 163.640625-40.726562 71.941406-.027344.03125 88.878906 65.84375 58.613281-58.699219zm0 0" fill="#64b0d9"/><path d="m451.339844 146.628906c-16.777344 22.683594-41.238282 36.324219-67.199219 40.039063l.851563.625 32.394531 24.015625c25.960937-3.714844 50.421875-17.355469 67.199219-40.039063 33.472656-45.199219 23.722656-109.203125-21.796876-142.921875-5.695312-4.222656-11.675781-7.769531-17.855468-10.660156 31.886718 35.476562 35.683594 89.382812 6.40625 128.941406zm0 0" fill="#666"/><path d="m373.316406 199.003906-19.105468 19.113282 33.246093 24.640624 30.78125-30.824218-.851562-.625-32.394531-24.015625zm0 0" fill="#c2c7cc"/><path d="m341.402344 230.960938-29.957032 30-15.84375 15.855468 33.242188 24.640625 58.613281-58.699219-33.246093-24.640624zm0 0" fill="#4a83c9"/><path d="m295.601562 276.816406-54.417968 54.5c-13.6875 13.667969-20.859375 17.609375-36.109375 15.257813 8.023437 11.710937 21.429687 20.046875 35.515625 21.550781 11.675781 1.246094 23.835937-2.15625 33.839844-12.167969l54.417968-54.5zm0 0" fill="#c2c7cc"/><path d="m216.636719 375.753906c-7.765625 10.460938-22.644531 12.675782-33.101563 4.933594-.652344-.484375-1.277344-.992188-1.84375-1.53125.765625 6.210938 3.96875 12.136719 9.355469 16.132812 10.457031 7.742188 25.335937 5.53125 33.101563-4.933593l16.441406-22.230469c-5.214844-.566406-10.347656-2.042969-15.136719-4.308594zm0 0" fill="#666"/><path d="m355.203125 418.996094c-16.550781 3.828125-29.957031 16.078125-29.957031 27.335937 0 11.257813 13.40625 17.269531 29.957031 13.441407 16.550781-3.855469 29.957031-16.078126 29.957031-27.335938 0-5.414062-3.058594-9.613281-8.105468-12.078125-5.46875-2.695313-13.234376-3.375-21.851563-1.363281zm0 0" fill="#f78411"/><path d="m446.609375 386.160156c-16.554687 3.828125-29.960937 16.078125-29.960937 27.335938 0 11.257812 13.40625 17.269531 29.960937 13.414062 16.550781-3.828125 29.957031-16.078125 29.957031-27.335937 0-6.015625-3.855468-10.550781-9.976562-12.875-5.300782-1.988281-12.300782-2.328125-19.980469-.539063zm0 0" fill="#f78411"/><path d="m357.753906 421.292969c5.019532 2.496093 8.105469 6.691406 8.105469 12.082031 0 10.71875-12.1875 22.34375-27.660156 26.738281 4.84375 1.136719 10.683593 1.105469 17.003906-.339843 16.550781-3.855469 29.957031-16.078126 29.957031-27.335938 0-5.414062-3.058594-9.613281-8.105468-12.078125-5.46875-2.695313-13.234376-3.375-21.851563-1.363281-.765625.171875-1.558594.371094-2.324219.597656 1.785156.421875 3.402344.992188 4.875 1.699219zm0 0" fill="#f74311"/><path d="m447.289062 387.664062c6.121094 2.296876 9.972657 6.832032 9.972657 12.871094 0 10.71875-12.183594 22.347656-27.660157 26.742188 4.847657 1.132812 10.683594 1.105468 17.003907-.367188 16.554687-3.828125 29.960937-16.078125 29.960937-27.335937 0-6.015625-3.855468-10.550781-9.976562-12.875-5.300782-1.984375-12.300782-2.324219-19.980469-.539063-.796875.167969-1.5625.367188-2.324219.59375 1.046875.226563 2.066406.539063 3.003906.910156zm0 0" fill="#f74311"/><path d="m151.59375 141.097656c-17.855469 7.03125-30.78125 22.914063-28.910156 35.476563 1.871094 12.558593 17.828125 17.070312 35.683594 10.007812 17.828124-7.03125 30.75-22.914062 28.882812-35.472656-.992188-6.75-6.039062-11.144531-13.265625-12.707031-6.234375-1.359375-14.113281-.566406-22.390625 2.695312zm0 0" fill="#64b0d9"/><path d="m55.03125 192.933594c-17.828125 7.0625-30.78125 22.941406-28.910156 35.503906s17.859375 17.042969 35.683594 10.011719c17.828124-7.035157 30.78125-22.914063 28.910156-35.476563-.90625-6.039062-5.046875-10.210937-11.082032-12.136718-6.546874-2.097657-15.304687-1.558594-24.601562 2.097656zm0 0" fill="#64b0d9"/><path d="m60.019531 193.925781c6.007813 1.929688 10.148438 6.097657 11.054688 12.136719 1.871093 12.5625-11.082031 28.441406-28.910157 35.476562-.027343.027344-.058593.027344-.085937.054688 5.753906.652344 12.585937-.339844 19.726563-3.144531 17.828124-7.035157 30.78125-22.914063 28.910156-35.476563-.910156-6.039062-5.046875-10.210937-11.082032-12.136718-6.519531-2.097657-15.25-1.558594-24.488281 2.070312 1.730469.199219 3.34375.539062 4.875 1.019531zm0 0" fill="#4a83c9"/><path d="m154.34375 141.496094c7.226562 1.558594 12.269531 5.980468 13.261719 12.703125 1.871093 12.5625-11.050781 28.441406-28.878907 35.472656-.058593.03125-.085937.03125-.113281.058594 5.753907.652343 12.609375-.3125 19.753907-3.148438 17.828124-7.03125 30.75-22.914062 28.882812-35.472656-.992188-6.75-6.039062-11.144531-13.265625-12.707031-6.207031-1.359375-14.058594-.59375-22.304687 2.636718.933593.117188 1.8125.257813 2.664062.457032zm0 0" fill="#4a83c9"/></g><path d="m467.292969 22.28125c-23.1875-17.199219-51.671875-24.589844-80.203125-20.820312-4.136719.550781-7.050782 4.347656-6.503906 8.484374.550781 4.136719 4.363281 7.039063 8.484374 6.5 24.625-3.257812 49.203126 3.128907 69.222657 17.976563 42.097656 31.183594 51.167969 90.554687 20.214843 132.355469-14.414062 19.488281-35.347656 32.367187-59.195312 36.546875l-111.183594-82.398438c-2.9375-24.03125 3.300782-47.820312 17.726563-67.300781 8.367187-11.335938 18.949219-20.445312 31.445312-27.078125 3.6875-1.957031 5.089844-6.535156 3.132813-10.21875-1.960938-3.6875-6.53125-5.089844-10.222656-3.132813-14.507813 7.703126-26.796876 18.285157-36.511719 31.441407-16.925781 22.859375-24.148438 50.824219-20.464844 79.023437l-97.070313 175.535156c-7.984374 14.457032-7.871093 28.722657-3.097656 40.898438l-13.03125 17.613281c-8.683594 11.742188-7.890625 27.621094.992188 38.414063l-25.394532 34.292968c-3.871093 5.234376-9.578124 8.652344-16.066406 9.617188-6.480468.964844-12.917968-.632812-18.132812-4.503906l-45.546875-33.742188c-8.460938-6.277344-18.890625-8.878906-29.378907-7.316406-10.476562 1.5625-19.703124 7.082031-25.980468 15.554688l-19.046875 25.746093c-2.480469 3.355469-1.773438 8.089844 1.585937 10.570313 3.355469 2.484375 8.085938 1.773437 10.570313-1.582032l19.039062-25.742187c3.871094-5.222656 9.578125-8.632813 16.0625-9.597656 6.484375-.96875 12.925781.632812 18.152344 4.507812l45.539063 33.738281c6.855468 5.085938 15 7.757813 23.417968 7.757813 1.972656 0 3.957032-.148437 5.945313-.445313 10.488281-1.558593 19.722656-7.09375 25.996093-15.574218l25.386719-34.289063c3.828125 1.585938 7.875 2.359375 11.902344 2.359375 9.566406 0 19.019531-4.367187 25.144531-12.621094l14.027344-18.933593c.261719.003906.519531.015625.78125.019531h.164062c13.054688 0 25.007813-5.058594 34.582032-14.640625l143.007812-143.21875c27.328125-5.007813 51.308594-19.910156 67.875-42.3125 35.90625-48.488281 25.425782-117.34375-23.367187-153.484375zm-249.210938 363.570312c-5.296875 7.136719-15.40625 8.644532-22.539062 3.363282-7.128907-5.277344-8.632813-15.382813-3.351563-22.523438l9.1875-12.417968c3.085938 3.824218 6.632813 7.238281 10.46875 10.117187 4.890625 3.679687 10.257813 6.539063 15.839844 8.492187zm51-35.234374c-14.9375 14.949218-34.949219 11.621093-48.152343 1.695312-12.953126-9.738281-21.546876-27.683594-11.535157-45.808594l33.003907-59.683594 74.914062 55.496094zm117.636719-117.8125-36.734375-27.226563c-3.355469-2.488281-8.089844-1.78125-10.574219 1.574219-2.484375 3.351562-1.78125 8.085937 1.570313 10.566406l34.941406 25.898438-47.816406 47.886718-78.328125-58.027344 32.695312-59.128906 29.347656 21.738282c1.351563 1.003906 2.925782 1.484374 4.492188 1.484374 2.3125 0 4.59375-1.058593 6.078125-3.058593 2.484375-3.351563 1.78125-8.085938-1.574219-10.570313l-30.960937-22.9375 13.652343-24.6875 103.191407 76.472656zm0 0"/><path d="m29.566406 245.414062c4.488282 2.59375 10.019532 3.886719 16.0625 3.886719 5.992188 0 12.484375-1.273437 18.949219-3.824219 21.242187-8.378906 36.003906-27.539062 33.613281-43.613281-1.003906-6.761719-4.886718-12.40625-10.929687-15.894531-.25-.144531-.515625-.273438-.773438-.410156l-11.726562-78.808594c.242187-.203125.695312-.5 1.394531-.757812l80.921875-29.855469 8.054687 54.140625c-5.195312.324218-10.710937 1.582031-16.308593 3.789062-21.246094 8.367188-36.011719 27.527344-33.617188 43.617188 1.007813 6.757812 4.890625 12.398437 10.9375 15.886718 4.546875 2.621094 10.019531 3.933594 16.007813 3.933594 5.957031 0 12.421875-1.296875 18.988281-3.894531 21.226563-8.371094 35.976563-27.53125 33.582031-43.617187-1.003906-6.75-4.882812-12.386719-10.917968-15.867188-.96875-.5625-1.988282-1.046875-3.039063-1.488281l-8.773437-58.964844c-.664063-4.542969-3.507813-8.8125-7.421876-11.144531-3.453124-2.058594-7.519531-2.480469-11.171874-1.144532l-82.5 30.4375c-7.835938 2.917969-12.21875 9.46875-11.15625 16.699219l10.9375 73.519531c-5.800782.074219-12.058594 1.355469-18.421876 3.863282-.003906.003906-.007812.003906-.011718.003906-21.234375 8.414062-35.992188 27.582031-33.601563 43.644531 1.007813 6.746094 4.886719 12.378907 10.921875 15.863281zm126.019532-65.859374c-10.273438 4.0625-18.046876 3.144531-21.890626.925781-2.082031-1.199219-3.203124-2.796875-3.535156-5.019531-1.183594-7.953126 8.464844-21.132813 24.203125-27.332032 0 0 0 0 .003907-.003906 5.132812-2.023438 9.640624-2.804688 13.34375-2.804688 3.710937 0 6.613281.785157 8.535156 1.894532 2.074218 1.195312 3.195312 2.785156 3.527344 5.003906 1.183593 7.949219-8.457032 21.132812-24.1875 27.335938zm-97.777344 20.40625c10.28125-4.050782 18.050781-3.125 21.894531-.90625 2.082031 1.203124 3.203125 2.800781 3.535156 5.03125 1.183594 7.945312-8.464843 21.125-24.207031 27.332031-10.285156 4.054687-18.0625 3.128906-21.90625.910156-2.078125-1.199219-3.199219-2.789063-3.527344-5.003906-1.179687-7.9375 8.472656-21.125 24.210938-27.363281zm0 0"/><path d="m476.292969 383.558594c-.679688-.539063-1.402344-1.03125-2.144531-1.503906v-52.355469c0-4.402344-2.019532-8.671875-5.398438-11.421875-2.949219-2.402344-6.699219-3.355469-10.308594-2.609375l-76.28125 15.90625c-7.691406 1.585937-12.660156 7.097656-12.660156 14.035156v64.902344c-4.945312-.542969-10.363281-.191407-16 1.121093-20.082031 4.648438-35.8125 19.890626-35.8125 34.699219 0 6.316407 2.777344 12 7.820312 16.007813 5.105469 4.058594 12.066407 6.160156 19.953126 6.160156 3.652343 0 7.503906-.453125 11.457031-1.367188 20.078125-4.675781 35.800781-19.917968 35.800781-34.695312 0-6.324219-2.785156-12.019531-7.84375-16.03125-.085938-.070312-.175781-.128906-.261719-.195312v-69.667969c.164063-.0625.367188-.121094.617188-.171875l73.800781-15.386719v46.527344c-4.433594-.273438-9.203125.136719-14.140625 1.289062-20.074219 4.644531-35.800781 19.882813-35.800781 34.695313 0 6.320312 2.78125 12.007812 7.832031 16.015625 5.101563 4.042969 12.042969 6.136719 19.898437 6.136719 3.664063 0 7.523438-.453126 11.488282-1.378907 20.082031-4.644531 35.8125-19.882812 35.8125-34.695312.003906-6.320313-2.777344-12.007813-7.828125-16.015625zm-122.792969 68.855468c-9.257812 2.136719-15.796875.3125-18.585938-1.902343-1.4375-1.144531-2.109374-2.472657-2.109374-4.179688 0-6.796875 10.308593-16.78125 24.105468-19.972656.003906-.003906.007813-.003906.011719-.003906 2.914063-.679688 5.558594-.964844 7.898437-.964844 5.085938 0 8.75 1.335937 10.660157 2.851563 1.449219 1.148437 2.125 2.484374 2.125 4.195312 0 6.777344-10.316407 16.761719-24.105469 19.976562zm91.390625-32.867187c-9.246094 2.15625-15.78125.335937-18.570313-1.875-1.441406-1.140625-2.113281-2.46875-2.113281-4.175781 0-6.796875 10.308594-16.785156 24.105469-19.972656.003906-.003907.007812-.003907.011719-.003907 2.921875-.679687 5.574219-.964843 7.925781-.964843 5.078125 0 8.738281 1.328124 10.644531 2.839843 1.441407 1.144531 2.113281 2.472657 2.113281 4.175781 0 6.800782-10.308593 16.785157-24.117187 19.976563zm0 0"/></svg>