<svg height="512pt" viewBox="0 -26 512.00072 512" width="512pt" xmlns="http://www.w3.org/2000/svg"><path d="m382.671875 435.605469c-4.234375 0-7.667969-3.433594-7.667969-7.675781v-85.0625c0-7.050782 5.042969-12.644532 12.847656-14.257813l77.421876-16.15625c3.660156-.757813 7.46875.210937 10.460937 2.652344 3.429687 2.792969 5.476563 7.132812 5.476563 11.601562v67.035157c0 4.238281-3.433594 7.675781-7.671876 7.675781-4.234374 0-7.667968-3.4375-7.667968-7.675781v-65.730469l-74.898438 15.625c-.253906.054687-.460937.117187-.628906.175781v84.117188c0 4.242187-3.433594 7.675781-7.671875 7.675781zm0 0" fill="#666"/><path d="m137.871094 454.40625c-8.542969 0-16.8125-2.710938-23.769532-7.875l-46.214843-34.273438c-5.304688-3.9375-11.84375-5.5625-18.421875-4.578124-6.582032.980468-12.371094 4.441406-16.300782 9.746093l-19.324218 26.152344c-2.519532 3.40625-7.324219 4.125-10.730469 1.605469-3.40625-2.523438-4.125-7.328125-1.605469-10.738282l19.328125-26.152343c6.375-8.605469 15.738281-14.214844 26.371094-15.796875 10.640625-1.589844 21.230469 1.050781 29.816406 7.425781l46.222657 34.277344c5.292968 3.929687 11.828124 5.554687 18.402343 4.574219 6.585938-.984376 12.378907-4.453126 16.308594-9.769532l29.773437-40.242187c2.519532-3.410157 7.324219-4.125 10.730469-1.601563 3.402344 2.519532 4.121094 7.328125 1.597657 10.734375l-29.769532 40.238281c-6.367187 8.617188-15.738281 14.238282-26.382812 15.824219-2.015625.300781-4.03125.449219-6.03125.449219zm0 0" fill="#c2c7cc"/><g fill-rule="evenodd"><path d="m324.539062 41.722656c-17.027343 23.015625-23.039062 50.839844-18.984374 77.167969l43.664062 66.765625 74.386719 20.796875c26.347656-3.773437 51.171875-17.628906 68.199219-40.671875 33.972656-45.914062 24.078124-110.921875-22.117188-145.167969-46.195312-34.277343-111.175781-24.832031-145.148438 21.109375zm0 0" fill="#808080"/><path d="m284.902344 158.035156 36.359375 61.894532 71.96875 18.464843 31.238281-31.308593-.863281-.632813-118.050781-87.566406-61.984376 112.21875zm0 0" fill="#e6e6e6"/><path d="m188.886719 359.714844c-7.851563 10.628906-5.609375 25.75 5.003906 33.613281 10.617187 7.863281 25.714844 5.617187 33.597656-5.011719l16.683594-22.582031c2.359375-21.429687-10.613281-35.082031-39.378906-27.535156zm0 0" fill="#808080"/><path d="m243.539062 231.136719-37.738281 68.292969c-7.480469 13.566406-6.703125 27.335937-1.007812 38.796874 7.363281 14.777344 22.898437 25.75 39.378906 27.507813 11.851563 1.265625 24.191406-2.1875 34.347656-12.355469l55.226563-55.363281-25.773438-60.027344zm0 0" fill="#e6e6e6"/><path d="m284.902344 158.035156-41.332032 73.070313-.03125.03125 90.207032 66.882812 59.484375-59.625zm0 0" fill="#64b0d9"/><path d="m458.066406 140.75c-17.03125 23.042969-41.851562 36.898438-68.203125 40.671875l.863281.632813 32.878907 24.398437c26.347656-3.773437 51.171875-17.628906 68.203125-40.671875 33.96875-45.914062 24.074218-110.921875-22.121094-145.167969-5.78125-4.292969-11.851562-7.894531-18.121094-10.832031 32.359375 36.03125 36.210938 90.789062 6.5 130.96875zm0 0" fill="#666"/><path d="m378.875 193.953125-19.386719 19.410156 33.742188 25.03125 31.238281-31.308593-.863281-.632813-32.878907-24.398437zm0 0" fill="#c2c7cc"/><path d="m346.488281 226.414062-30.40625 30.472657-16.078125 16.101562 33.742188 25.03125 59.484375-59.625-33.742188-25.03125zm0 0" fill="#4a83c9"/><path d="m300.003906 272.988281-55.226562 55.359375c-13.894532 13.882813-21.171875 17.890625-36.644532 15.496094 8.136719 11.898438 21.742188 20.367188 36.039063 21.894531 11.851563 1.265625 24.191406-2.191406 34.347656-12.359375l55.226563-55.359375zm0 0" fill="#c2c7cc"/><path d="m219.867188 373.484375c-7.882813 10.628906-22.984376 12.875-33.597657 5.011719-.660156-.492188-1.292969-1.007813-1.871093-1.554688.777343 6.308594 4.027343 12.328125 9.492187 16.386719 10.617187 7.863281 25.714844 5.617187 33.597656-5.011719l16.683594-22.582031c-5.292969-.574219-10.5-2.074219-15.359375-4.378906zm0 0" fill="#666"/><path d="m360.496094 417.410156c-16.796875 3.886719-30.402344 16.332032-30.402344 27.765625 0 11.4375 13.605469 17.542969 30.402344 13.652344 16.796875-3.914063 30.402344-16.332031 30.402344-27.765625 0-5.5-3.105469-9.765625-8.226563-12.269531-5.550781-2.738281-13.429687-3.429688-22.175781-1.382813zm0 0" fill="#f78411"/><path d="m453.261719 384.054688c-16.796875 3.886718-30.402344 16.332031-30.402344 27.765624 0 11.4375 13.605469 17.542969 30.402344 13.625 16.796875-3.886718 30.402343-16.332031 30.402343-27.765624 0-6.105469-3.910156-10.714844-10.125-13.078126-5.378906-2.015624-12.480468-2.359374-20.277343-.546874zm0 0" fill="#f78411"/><path d="m363.085938 419.742188c5.089843 2.535156 8.226562 6.796874 8.226562 12.269531 0 10.886719-12.371094 22.699219-28.074219 27.164062 4.917969 1.152344 10.84375 1.121094 17.257813-.347656 16.796875-3.917969 30.40625-16.332031 30.40625-27.765625 0-5.503906-3.109375-9.765625-8.226563-12.269531-5.554687-2.738281-13.433593-3.429688-22.179687-1.382813-.777344.171875-1.582032.371094-2.359375.601563 1.8125.433593 3.453125 1.011719 4.949219 1.730469zm0 0" fill="#f74311"/><path d="m453.953125 385.582031c6.210937 2.332031 10.125 6.941407 10.125 13.078125 0 10.886719-12.371094 22.695313-28.074219 27.160156 4.917969 1.152344 10.84375 1.121094 17.257813-.375 16.796875-3.886718 30.402343-16.332031 30.402343-27.765624 0-6.105469-3.910156-10.714844-10.125-13.078126-5.378906-2.015624-12.480468-2.359374-20.277343-.546874-.804688.171874-1.582031.375-2.359375.605468 1.066406.230469 2.101562.546875 3.050781.921875zm0 0" fill="#f74311"/></g><path d="m82.4375 204.789062c-3.738281 0-7.011719-2.738281-7.578125-6.546874l-14.226563-96.199219c-1.078124-7.34375 3.371094-13.996094 11.324219-16.960938l83.726563-30.914062c3.710937-1.359375 7.835937-.929688 11.34375 1.160156 3.96875 2.367187 6.855468 6.707031 7.53125 11.320313l11.457031 77.800781c.621094 4.191406-2.269531 8.097656-6.460937 8.722656-4.195313.625-8.089844-2.273437-8.714844-6.464844l-11.421875-77.558593-82.128907 30.328124c-.710937.265626-1.167968.566407-1.414062.769532l14.160156 95.738281c.621094 4.191406-2.269531 8.097656-6.457031 8.722656-.382813.054688-.765625.082031-1.140625.082031zm0 0" fill="#666"/><path d="m153.851562 135.132812c-18.121093 7.144532-31.238281 23.273438-29.339843 36.035157 1.898437 12.757812 18.09375 17.339843 36.214843 10.167969 18.09375-7.144532 31.207032-23.273438 29.308594-36.035157-1.003906-6.851562-6.125-11.320312-13.460937-12.902343-6.328125-1.382813-14.324219-.578126-22.722657 2.734374zm0 0" fill="#64b0d9" fill-rule="evenodd"/><path d="m156.640625 135.539062c7.335937 1.582032 12.457031 6.078126 13.464844 12.902344 1.894531 12.761719-11.21875 28.890625-29.3125 36.03125-.058594.03125-.085938.03125-.113281.058594 5.835937.664062 12.796874-.316406 20.046874-3.195312 18.09375-7.144532 31.210938-23.273438 29.3125-36.035157-1.007812-6.851562-6.128906-11.320312-13.464843-12.902343-6.296875-1.382813-14.265625-.605469-22.636719 2.679687.949219.113281 1.839844.257813 2.703125.460937zm0 0" fill="#4a83c9" fill-rule="evenodd"/><path d="m55.851562 187.789062c-18.09375 7.171876-31.238281 23.300782-29.339843 36.058594 1.898437 12.761719 18.121093 17.3125 36.214843 10.167969 18.09375-7.140625 31.238282-23.269531 29.339844-36.03125-.917968-6.136719-5.121094-10.367187-11.246094-12.328125-6.644531-2.132812-15.535156-1.585938-24.96875 2.132812zm0 0" fill="#64b0d9" fill-rule="evenodd"/><path d="m60.914062 188.796875c6.097657 1.957031 10.296876 6.191406 11.21875 12.328125 1.898438 12.757812-11.246093 28.886719-29.339843 36.03125-.03125.027344-.058594.027344-.085938.058594 5.835938.660156 12.769531-.347656 20.019531-3.199219 18.09375-7.140625 31.238282-23.269531 29.339844-36.03125-.921875-6.136719-5.121094-10.367187-11.246094-12.328125-6.617187-2.132812-15.476562-1.582031-24.855468 2.101562 1.757812.203126 3.394531.546876 4.949218 1.039063zm0 0" fill="#4a83c9" fill-rule="evenodd"/></svg>