<?xml version="1.0" encoding="iso-8859-1"?>
<!-- Generator: Adobe Illustrator 19.0.0, SVG Export Plug-In . SVG Version: 6.00 Build 0)  -->
<svg xmlns="http://www.w3.org/2000/svg" xmlns:xlink="http://www.w3.org/1999/xlink" version="1.1" id="Layer_1" x="0px" y="0px" viewBox="0 0 511.999 511.999" style="enable-background:new 0 0 511.999 511.999;" xml:space="preserve">
<path style="fill:#B5B4B0;" d="M96.062,353.522l32.149-33.804L93.42,284.926c-19.598-19.597-51.37-19.597-70.965-0.001  l-10.115,10.116c-5.694,5.702-5.689,14.938,0.009,20.636l68.231,68.232C81.235,373.344,86.93,362.654,96.062,353.522z"/>
<path style="fill:#DCDEE2;" d="M101.734,351.035l-0.137,0.143l0.737,0.76l26.894-28.279l-34.791-34.791  c-19.597-19.597-51.369-19.597-70.964-0.001l-10.116,10.116c-2.179,2.184-3.517,4.885-4.025,7.707  c18.739-9.208,42.024-6.034,57.61,9.553L101.734,351.035z"/>
<path style="fill:#B5B4B0;" d="M227.063,418.569l-34.793-34.791l-33.804,32.147c-9.132,9.132-19.823,14.828-30.387,15.482  l68.233,68.233c5.698,5.698,14.934,5.7,20.635,0.009l10.117-10.117C246.658,469.937,246.658,438.166,227.063,418.569z"/>
<path style="fill:#DCDEE2;" d="M225.926,420.356l-34.792-34.791l-27.849,26.485l0.354,0.891l34.792,34.791  c15.628,15.628,18.78,38.995,9.481,57.759c2.892-0.483,5.667-1.826,7.899-4.054l10.117-10.117  C245.521,471.724,245.521,439.953,225.926,420.356z"/>
<path style="fill:#F0F1F2;" d="M245.94,332.735l123.307-117.269c16.911-16.913,53.039-80.46,36.127-97.375l-11.48-11.479  c-16.913-16.912-80.46,19.215-97.375,36.129L96.062,353.522l0,0l0,0c-16.911,16.913-22.072,39.174-5.161,56.085l11.48,11.48  c16.911,16.911,39.172,11.752,56.085-5.161l0,0l0,0l68.57-65.212"/>
<path style="fill:#D3D3D3;" d="M102.335,417.084c1.469-1.729,3.023-3.428,4.677-5.083l252.393-265.386  c8.6-8.602,26.781-21.148,46.801-31.648l-6.586-6.586c-16.913-16.912-80.46,19.215-97.375,36.128l-200.46,210.78  c-16.911,16.913-22.072,39.174-5.161,56.085L102.335,417.084z"/>
<ellipse transform="matrix(0.7071 -0.7071 0.7071 0.7071 -54.271 277.4331)" style="fill:#97D3EE;" cx="307.756" cy="204.228" rx="66.292" ry="22.794"/>
<path style="fill:#3EBEDB;" d="M297.66,186.388c-25.934,24.909-40.21,52.272-32.452,61.847l92.566-93.49  C346.421,150.821,321.223,163.755,297.66,186.388z"/>
<g>
	<path style="fill:#E6E9ED;" d="M290.65,148.915l-67.776-67.776l-32.122-32.122c-9.671-9.67-25.347-9.668-35.014,0l-51.065,51.064   c-9.671,9.67-9.668,25.347,0,35.015l32.122,32.122l69.936,69.936L290.65,148.915z"/>
	<path style="fill:#E6E9ED;" d="M462.972,321.238l-32.122-32.122l-67.776-67.776l-88.241,83.917l69.938,69.938l32.122,32.122   c9.669,9.668,25.344,9.67,35.014,0l51.065-51.065C472.641,346.583,472.641,330.906,462.972,321.238z"/>
</g>
<g>
	
		<rect x="293.283" y="283.135" transform="matrix(-0.7071 0.7071 -0.7071 -0.7071 815.6487 259.1693)" style="fill:#F98B38;" width="121.731" height="30.752"/>
	
		<rect x="340.362" y="330.2" transform="matrix(-0.7071 0.7071 -0.7071 -0.7071 929.2979 306.2257)" style="fill:#F98B38;" width="121.731" height="30.753"/>
	
		<rect x="105.588" y="95.423" transform="matrix(-0.7071 0.7071 -0.7071 -0.7071 362.5012 71.4467)" style="fill:#F98B38;" width="121.731" height="30.753"/>
	
		<rect x="152.65" y="142.489" transform="matrix(-0.7071 0.7071 -0.7071 -0.7071 476.1198 118.5135)" style="fill:#F98B38;" width="121.731" height="30.751"/>
	<path style="fill:#F98B38;" d="M219.708,411.215l-55.913,55.91l21.747,21.745l52.86-52.86c-2.444-6.353-6.216-12.315-11.339-17.44   L219.708,411.215z"/>
	<path style="fill:#F98B38;" d="M76.035,273.609l-52.877,52.878l21.745,21.746l55.91-55.91l-7.392-7.394   C88.309,279.818,82.369,276.053,76.035,273.609z"/>
</g>
<g>
	<path style="fill:#E6E9ED;" d="M493.467,187.129l6.502,6.503c5.263,5.262,5.263,13.793,0,19.056l0,0   c-5.26,5.262-13.792,5.262-19.055,0l-47.609-47.609c-5.26-5.263-5.263-13.794,0-19.056l0,0c5.263-5.262,13.794-5.262,19.055,0.001   l22.919,22.917"/>
	<path style="fill:#E6E9ED;" d="M357.896,51.558l8.068,8.069c5.263,5.262,5.263,13.793,0,19.055l0,0   c-5.263,5.263-13.792,5.262-19.055,0l-47.607-47.609c-5.263-5.262-5.263-13.793,0-19.056l0,0c5.261-5.26,13.792-5.26,19.055,0.001   l21.217,21.218"/>
</g>
<path style="fill:#55CDEF;" d="M426.945,85.044c-9.184-9.185-28.314-4.946-42.728,9.468l33.26,33.259  C431.892,113.358,436.132,94.228,426.945,85.044z"/>
<g>
	<path style="fill:#231F20;" d="M417.477,135.854c-2.069,0-4.137-0.789-5.715-2.368l-33.26-33.259   c-1.516-1.515-2.368-3.572-2.368-5.715s0.851-4.2,2.368-5.716c10.45-10.449,23.701-16.688,35.447-16.688   c7.519,0,13.991,2.497,18.713,7.22c6.371,6.371,8.664,16.163,6.292,26.868c-2.117,9.554-7.715,19.246-15.761,27.292   C421.615,135.065,419.545,135.854,417.477,135.854z M396.12,94.983l20.885,20.885c3.05-4.285,5.21-8.852,6.167-13.169   c1.152-5.202,0.445-9.553-1.94-11.939c-1.649-1.649-4.1-2.485-7.282-2.485C408.481,88.274,402.063,90.746,396.12,94.983z"/>
	<path style="fill:#231F20;" d="M430.251,151.051c-2.068,0-4.137-0.789-5.716-2.368l-61.958-61.958   c-3.157-3.157-3.157-8.275,0-11.431c3.158-3.157,8.275-3.157,11.432,0l61.958,61.958c3.157,3.157,3.157,8.275,0,11.432   C434.388,150.261,432.319,151.051,430.251,151.051z"/>
	<path style="fill:#231F20;" d="M490.443,224.717c-5.758,0-11.171-2.242-15.244-6.312l-47.61-47.609   c-8.404-8.409-8.404-22.084,0.001-30.487c4.072-4.071,9.485-6.312,15.243-6.312h0.001c5.759,0,11.172,2.243,15.243,6.316   l22.917,22.915c3.158,3.157,3.158,8.275,0.001,11.432c-3.158,3.157-8.276,3.157-11.432,0l-22.919-22.917   c-1.018-1.02-2.372-1.58-3.812-1.58c-1.44,0-2.794,0.56-3.812,1.579c-2.102,2.102-2.101,5.521,0.002,7.625l47.607,47.607   c1.017,1.017,2.371,1.578,3.812,1.578c1.44,0,2.792-0.56,3.81-1.578c1.018-1.018,1.58-2.373,1.58-3.813   c0-1.44-0.561-2.794-1.579-3.811l-6.503-6.504c-3.157-3.157-3.157-8.275,0.001-11.432c3.156-3.157,8.274-3.156,11.432,0.001   l6.502,6.503c4.071,4.07,6.313,9.484,6.313,15.243c0,5.758-2.243,11.172-6.313,15.244   C501.614,222.475,496.201,224.717,490.443,224.717z"/>
	<path style="fill:#231F20;" d="M356.438,90.701c-5.52,0-11.04-2.101-15.243-6.303l-47.61-47.609   c-4.071-4.071-6.313-9.484-6.313-15.243s2.243-11.172,6.313-15.244c8.403-8.404,22.078-8.404,30.485,0l21.217,21.218   c3.157,3.157,3.157,8.275-0.001,11.431c-3.156,3.158-8.274,3.157-11.431,0l-21.217-21.218c-2.099-2.101-5.52-2.103-7.622-0.001   c-1.018,1.018-1.58,2.372-1.58,3.813c0,1.44,0.561,2.794,1.579,3.811l47.61,47.609c2.102,2.102,5.522,2.102,7.622,0   c1.018-1.018,1.58-2.372,1.58-3.812c0-1.44-0.561-2.794-1.579-3.811l-8.069-8.07c-3.157-3.157-3.157-8.275,0.001-11.431   c3.157-3.158,8.275-3.156,11.432,0.001l8.068,8.069c4.071,4.07,6.313,9.484,6.313,15.243c0,5.758-2.243,11.172-6.315,15.244   C367.478,88.6,361.957,90.701,356.438,90.701z"/>
	<path style="fill:#231F20;" d="M206.634,511.999L206.634,511.999c-6.06,0-11.755-2.359-16.039-6.643l-68.232-68.233   c-2.247-2.247-2.969-5.603-1.844-8.577c1.125-2.972,3.887-5.01,7.06-5.208c8.278-0.512,17.218-5.175,25.172-13.13   c0.048-0.047,0.097-0.095,0.147-0.141l33.804-32.148c3.177-3.023,8.187-2.958,11.285,0.141l34.793,34.792   c22.716,22.717,22.716,59.679,0.001,82.394l-10.117,10.117C218.376,509.645,212.685,511.999,206.634,511.999z M143.839,435.737   l58.189,58.189c1.23,1.231,2.866,1.908,4.606,1.908l0,0c1.737,0,3.371-0.676,4.601-1.904l10.113-10.113   c16.413-16.413,16.413-43.119,0-59.532l-29.219-29.217l-28.02,26.647C157.842,427.965,150.931,432.716,143.839,435.737z"/>
	<path style="fill:#231F20;" d="M80.58,391.992c-2.106,0-4.173-0.823-5.717-2.368l-68.23-68.232   c-8.836-8.835-8.843-23.218-0.013-32.062l10.119-10.12c11.004-11.004,25.634-17.064,41.198-17.064s30.194,6.061,41.199,17.065   l34.792,34.791c3.101,3.101,3.163,8.108,0.141,11.286l-32.149,33.804c-0.046,0.049-0.094,0.097-0.141,0.146   c-7.955,7.954-12.617,16.894-13.131,25.172c-0.196,3.172-2.233,5.935-5.207,7.06C82.509,391.822,81.542,391.992,80.58,391.992z    M57.937,278.312c-11.245,0-21.816,4.379-29.765,12.329l-10.115,10.116c-2.533,2.535-2.531,6.666,0.008,9.204l58.187,58.189   c3.022-7.093,7.773-14.003,14.022-20.269l26.648-28.02l-29.217-29.217C79.754,282.691,69.181,278.312,57.937,278.312z"/>
	<path style="fill:#231F20;" d="M268.661,261.899c-6.96,0-11.181-2.76-13.494-5.075c-4.906-4.906-8.752-14.856,0.786-34.39   c6.192-12.682,16.838-26.901,29.975-40.037c21.768-21.769,45.688-35.836,60.934-35.836c6.959,0,11.179,2.759,13.493,5.074   c4.907,4.907,8.754,14.857-0.785,34.391c-6.193,12.682-16.839,26.901-29.977,40.038   C307.824,247.833,283.906,261.899,268.661,261.899z M266.602,245.399c0.003,0,0.507,0.335,2.059,0.335   c9.144,0,29.083-10.683,49.501-31.101c11.6-11.6,21.013-24.009,26.506-34.944c5.56-11.066,4.75-15.999,4.252-16.628v0.001   c0,0-0.508-0.334-2.059-0.334c-9.144,0-29.085,10.683-49.503,31.101c-11.601,11.6-21.013,24.009-26.506,34.945   C265.293,239.84,266.103,244.771,266.602,245.399L266.602,245.399z"/>
	<path style="fill:#231F20;" d="M81.966,438.106c-2.068,0-4.137-0.789-5.716-2.368c-3.157-3.157-3.157-8.275,0-11.431l55.91-55.91   c3.158-3.157,8.275-3.157,11.432,0c3.157,3.157,3.157,8.275,0,11.432l-55.91,55.91C86.104,437.317,84.035,438.106,81.966,438.106z"/>
</g>
<g>
	<path style="fill:#B5B4B0;" d="M255.291,187.451l-67.778-67.776l-32.121-32.122c-9.057-9.056-23.382-9.628-33.106-1.721   l-12.877,12.878c-9.671,9.67-9.671,25.347,0,35.015l32.12,32.122l68.839,68.838L255.291,187.451z"/>
	<path style="fill:#B5B4B0;" d="M425.457,357.617l-32.122-32.122l-67.777-67.776l-47.235,44.921l69.029,69.028l32.122,32.122   c9.055,9.055,23.38,9.629,33.105,1.72l12.878-12.878C435.125,382.964,435.125,367.286,425.457,357.617z"/>
</g>
<g>
	
		<rect x="304.165" y="299.606" transform="matrix(0.7071 -0.7071 0.7071 0.7071 -124.095 330.3707)" style="fill:#F77D39;" width="65.16" height="30.751"/>
	
		<rect x="351.232" y="346.669" transform="matrix(0.7071 -0.7071 0.7071 0.7071 -143.5892 377.4367)" style="fill:#F77D39;" width="65.16" height="30.753"/>
	
		<rect x="118.603" y="114.052" transform="matrix(-0.7071 0.7071 -0.7071 -0.7071 349.6061 114.0452)" style="fill:#F77D39;" width="65.16" height="30.753"/>
	
		<rect x="165.683" y="161.107" transform="matrix(0.7071 -0.7071 0.7071 0.7071 -66.7224 191.8835)" style="fill:#F77D39;" width="65.16" height="30.751"/>
</g>
<g>
	<path style="fill:#231F20;" d="M206.731,245.237c-2.143,0-4.199-0.85-5.716-2.368L98.957,140.812   c-12.805-12.807-12.805-33.643,0.001-46.447l51.064-51.063c6.204-6.202,14.45-9.619,23.223-9.619   c8.772,0,17.019,3.416,23.222,9.619l99.899,99.899c3.101,3.101,3.163,8.108,0.141,11.286l-83.919,88.239   c-1.502,1.579-3.577,2.485-5.756,2.512C206.799,245.237,206.764,245.237,206.731,245.237z M173.245,49.849   c-4.454,0-8.642,1.734-11.791,4.884l-51.065,51.064c-6.502,6.502-6.502,17.081,0,23.584l96.197,96.197l72.774-76.52l-94.324-94.325   C181.887,51.584,177.7,49.849,173.245,49.849z"/>
	<path style="fill:#231F20;" d="M394.4,422.651L394.4,422.651c-8.773,0-17.02-3.416-23.223-9.619l-102.06-102.06   c-1.54-1.541-2.394-3.638-2.366-5.817c0.027-2.178,0.932-4.254,2.511-5.755l88.241-83.917c3.179-3.024,8.185-2.96,11.287,0.141   l99.898,99.898c6.202,6.202,9.618,14.45,9.618,23.222c0,8.773-3.415,17.02-9.618,23.222l-51.065,51.065   C411.419,419.235,403.172,422.651,394.4,422.651z M286.41,305.402l96.2,96.199c3.149,3.149,7.337,4.884,11.791,4.884   c4.454,0,8.642-1.734,11.792-4.884l51.064-51.064c3.15-3.149,4.883-7.337,4.883-11.792s-1.733-8.642-4.883-11.792l-94.325-94.324   L286.41,305.402z"/>
	<path style="fill:#231F20;" d="M126.1,439.487c-10.697,0-20.945-4.195-29.436-12.685l-11.48-11.48   c-18.625-18.626-16.576-45.717,5.087-67.441l200.392-210.71c0.046-0.049,0.094-0.097,0.141-0.146   c9.955-9.955,31.443-23.584,51.092-32.407c28.134-12.633,47.552-13.885,57.713-3.721l11.48,11.479   c10.163,10.164,8.911,29.581-3.721,57.715c-8.822,19.648-22.451,41.136-32.405,51.092c-0.049,0.049-0.097,0.095-0.146,0.141   L251.511,338.592c-3.236,3.076-8.35,2.949-11.428-0.287c-3.076-3.234-2.948-8.351,0.287-11.427l123.231-117.194   c7.424-7.463,20.278-26.743,29.022-46.215c9.995-22.262,10.738-35.961,7.038-39.661l-11.479-11.478   c-3.702-3.702-17.399-2.958-39.661,7.038c-19.472,8.744-38.754,21.601-46.216,29.025l-200.385,210.7   c-0.046,0.049-0.094,0.097-0.141,0.146c-12.041,12.042-19.72,30.096-5.161,44.654l11.48,11.48   c14.557,14.558,32.613,6.88,44.653-5.161c0.048-0.047,0.097-0.095,0.145-0.141l68.57-65.212c3.234-3.076,8.35-2.949,11.428,0.287   c3.076,3.234,2.948,8.35-0.287,11.427l-68.5,65.146C152.285,433.506,138.873,439.487,126.1,439.487z"/>
	<path style="fill:#231F20;" d="M321.993,360.502L321.993,360.502c-2.144,0-4.199-0.851-5.716-2.368l-21.745-21.746   c-3.157-3.157-3.157-8.275,0-11.431l86.079-86.08c1.516-1.516,3.572-2.368,5.716-2.368l0,0c2.144,0,4.2,0.851,5.716,2.368   l21.745,21.746c3.157,3.157,3.157,8.275,0,11.432l-86.079,86.08C326.193,359.65,324.138,360.502,321.993,360.502z M311.68,330.673   l10.313,10.314l74.648-74.648l-10.313-10.314L311.68,330.673z"/>
	<path style="fill:#231F20;" d="M369.063,407.57c-2.068,0-4.137-0.789-5.715-2.368L341.6,383.456   c-1.516-1.515-2.368-3.572-2.368-5.715c0-2.144,0.851-4.2,2.367-5.715l86.081-86.079c3.159-3.158,8.276-3.157,11.432,0   l21.745,21.745c3.157,3.157,3.157,8.275,0,11.431l-86.079,86.08C373.2,406.781,371.131,407.57,369.063,407.57z M358.747,377.742   l10.315,10.314l74.648-74.649l-10.313-10.313L358.747,377.742z"/>
	<path style="fill:#231F20;" d="M134.286,172.794c-2.068,0-4.137-0.789-5.715-2.368l-21.747-21.746   c-1.516-1.515-2.368-3.572-2.368-5.715c0-2.144,0.851-4.2,2.367-5.715l86.081-86.079c3.159-3.157,8.276-3.157,11.432,0   l21.745,21.745c3.157,3.157,3.157,8.275,0,11.431l-86.079,86.08C138.423,172.004,136.354,172.794,134.286,172.794z    M123.971,142.965l10.315,10.314l74.648-74.649l-10.313-10.313L123.971,142.965z"/>
	<path style="fill:#231F20;" d="M181.353,219.861c-2.068,0-4.137-0.789-5.716-2.368l-21.745-21.745   c-3.157-3.157-3.157-8.275,0-11.432l86.079-86.079c3.158-3.157,8.275-3.157,11.432,0l21.745,21.745   c3.157,3.157,3.157,8.275,0,11.431l-86.079,86.079C185.491,219.073,183.421,219.861,181.353,219.861z M171.04,190.035   l10.313,10.313l74.648-74.648l-10.313-10.313L171.04,190.035z"/>
</g>
<g>
	<path style="fill:#F77D39;" d="M198.43,447.732l-7.294-7.295l-28.476,28.475l21.685,21.685l25.426-25.425   C207.327,458.818,203.555,452.856,198.43,447.732z"/>
	<path style="fill:#F77D39;" d="M66.942,316.245c-5.087-5.086-10.997-8.838-17.299-11.284l-25.468,25.468l21.685,21.685   l28.475-28.475L66.942,316.245z"/>
</g>
<g>
	<path style="fill:#231F20;" d="M185.542,496.953c-2.068,0-4.137-0.789-5.715-2.367l-21.747-21.745   c-1.516-1.516-2.368-3.572-2.368-5.716c0-2.144,0.851-4.2,2.368-5.715l55.913-55.91c3.156-3.157,8.274-3.157,11.431,0l7.355,7.355   c5.799,5.802,10.23,12.615,13.168,20.254c1.148,2.981,0.43,6.359-1.828,8.618l-52.86,52.86   C189.68,496.164,187.611,496.953,185.542,496.953z M175.228,467.125l10.314,10.313l43.191-43.191   c-1.944-3.656-4.417-6.992-7.387-9.964l-1.638-1.639L175.228,467.125z"/>
	<path style="fill:#231F20;" d="M44.902,356.315L44.902,356.315c-2.144,0-4.199-0.851-5.716-2.368l-21.745-21.746   c-3.157-3.157-3.157-8.275,0-11.432l52.878-52.878c2.263-2.261,5.644-2.976,8.627-1.825c7.611,2.938,14.403,7.36,20.187,13.142   l7.394,7.397c3.157,3.157,3.157,8.274,0,11.431l-55.91,55.91C49.101,355.464,47.046,356.315,44.902,356.315z M34.588,326.486   L44.901,336.8l44.48-44.48l-1.679-1.679c-2.956-2.955-6.277-5.419-9.912-7.359L34.588,326.486z"/>
</g>
<g>
</g>
<g>
</g>
<g>
</g>
<g>
</g>
<g>
</g>
<g>
</g>
<g>
</g>
<g>
</g>
<g>
</g>
<g>
</g>
<g>
</g>
<g>
</g>
<g>
</g>
<g>
</g>
<g>
</g>
</svg>
