<?xml version="1.0" encoding="iso-8859-1"?>
<!-- Generator: Adobe Illustrator 19.0.0, SVG Export Plug-In . SVG Version: 6.00 Build 0)  -->
<svg xmlns="http://www.w3.org/2000/svg" xmlns:xlink="http://www.w3.org/1999/xlink" version="1.1" id="Layer_1" x="0px" y="0px" viewBox="0 0 512 512" style="enable-background:new 0 0 512 512;" xml:space="preserve">
<path style="fill:#E23740;" d="M378.229,480.327H277.11h-44.871h-101.12c-7.793,0-14.11,6.317-14.11,14.11s6.317,14.11,14.11,14.11  h48.133h26.706h26.28h44.871h101.119c7.792,0,14.109-6.317,14.109-14.11C392.339,486.643,386.022,480.327,378.229,480.327z"/>
<path style="fill:#C6243B;" d="M378.229,495.519H277.11h-44.871h-26.28h-26.706H131.12c-5.441,0-10.155-3.085-12.509-7.597  c-1.017,1.95-1.601,4.162-1.601,6.514c0,7.793,6.317,14.11,14.11,14.11h48.133h26.706h26.28h44.871h101.119  c7.792,0,14.109-6.317,14.109-14.11c0-2.352-0.584-4.564-1.6-6.514C388.383,492.434,383.67,495.519,378.229,495.519z"/>
<path style="fill:#FF5357;" d="M372.177,217.563h-232.82c-45.383,0-82.171,36.789-82.171,82.172v25.922v47.661v25.922  c0,45.381,36.789,82.171,82.171,82.171h232.82c45.383,0,82.173-36.79,82.173-82.171v-25.922v-47.661v-25.922  C454.35,254.351,417.56,217.563,372.177,217.563z"/>
<path style="fill:#FF6971;" d="M372.177,217.563H219.818c-16.905,26.948-26.691,58.818-26.691,92.977  c0,83.388,58.254,153.164,136.283,170.869h42.767c45.383,0,82.173-36.79,82.173-82.171v-25.922v-47.661v-25.922  C454.35,254.351,417.56,217.563,372.177,217.563z"/>
<path style="fill:#FC4750;" d="M254.675,217.563H139.357c-45.383,0-82.171,36.789-82.171,82.172v25.922v47.661v25.922  c0,45.381,36.789,82.171,82.171,82.171h115.318V217.563z"/>
<path style="fill:#FC656D;" d="M193.127,310.54c0,53.391,23.887,101.197,61.548,133.334V217.563h-34.857  C202.912,244.511,193.127,276.381,193.127,310.54z"/>
<g>
	<path style="fill:#5B5E5E;" d="M289.488,75.548c-3.608,0-6.902-2.422-7.853-6.075c-1.132-4.34,1.47-8.775,5.811-9.905   l214.385-55.85c4.34-1.127,8.776,1.471,9.905,5.811c1.13,4.34-1.472,8.775-5.811,9.905l-214.384,55.85   C290.854,75.462,290.166,75.548,289.488,75.548z"/>
	<path style="fill:#5B5E5E;" d="M8.118,148.845c-3.608,0-6.902-2.422-7.853-6.075c-1.13-4.34,1.47-8.775,5.811-9.906l215.892-56.241   c4.341-1.13,8.775,1.472,9.905,5.811c1.13,4.34-1.47,8.775-5.811,9.905L10.17,148.581C9.484,148.76,8.795,148.845,8.118,148.845z"/>
	<path style="fill:#5B5E5E;" d="M255.769,94.137c-5.088,0-9.905-1.492-14.196-4.151v108.176h28.393V89.985   C265.672,92.645,260.857,94.137,255.769,94.137z"/>
</g>
<path style="fill:#97D3EE;" d="M385.341,384.831h17.329c9.204,0,16.665-7.461,16.665-16.664v-53.464  c0-61.794-47.678-62.721-47.678-62.721h-65.497c-9.204,0-16.665,7.46-16.665,16.665v99.52c0,9.203,7.461,16.664,16.665,16.664  h51.754"/>
<path style="fill:#5BC5EF;" d="M139.084,251.982h65.5c9.204,0,16.664,7.46,16.664,16.665v99.52c0,9.203-7.46,16.664-16.664,16.664  H108.07c-9.203,0-16.664-7.461-16.664-16.664v-53.464C91.407,252.909,139.084,251.982,139.084,251.982z"/>
<path style="fill:#49B5CE;" d="M113.063,368.168v-53.464c0-61.794,47.677-62.721,47.677-62.721h-21.656  c0,0-47.677,0.926-47.677,62.721v53.464c0,9.203,7.461,16.664,16.664,16.664h21.656C120.523,384.831,113.063,377.37,113.063,368.168  z"/>
<path style="fill:#97D3EE;" d="M209.302,384.143c6.904-2.036,11.945-8.413,11.945-15.975v-99.52c0-9.205-7.46-16.665-16.664-16.665  h-1.421c-6.491,18.313-10.037,38.02-10.037,58.558C193.127,336.83,198.928,361.763,209.302,384.143z"/>
<path style="fill:#C4C8CE;" d="M319.646,217.563v-10.879c0-9.204-7.459-16.664-16.664-16.664h-94.429  c-9.204,0-16.665,7.46-16.665,16.664v10.879H319.646z"/>
<path style="fill:#E6E9ED;" d="M302.982,190.02h-94.429c-9.204,0-16.665,7.46-16.665,16.664v10.879h0.497  c1.784-7.281,8.336-12.688,16.168-12.688h94.429c7.831,0,14.382,5.408,16.167,12.688h0.497v-10.879  C319.646,197.481,312.187,190.02,302.982,190.02z"/>
<g>
	<path style="fill:#E23740;" d="M289.493,450.879c-4.486,0-8.121-3.636-8.121-8.121v-22.22c0-4.485,3.635-8.121,8.121-8.121   s8.121,3.636,8.121,8.121v22.22C297.614,447.243,293.979,450.879,289.493,450.879z"/>
	<path style="fill:#E23740;" d="M221.248,450.879c-4.485,0-8.121-3.636-8.121-8.121v-22.22c0-4.485,3.636-8.121,8.121-8.121   c4.485,0,8.121,3.636,8.121,8.121v22.22C229.369,447.243,225.733,450.879,221.248,450.879z"/>
</g>
<path style="fill:#E6E9ED;" d="M255.769,43.516c-18.024,0-32.635,14.611-32.635,32.634c0,18.024,14.611,32.634,32.635,32.634  c18.023,0,32.634-14.61,32.634-32.634C288.402,58.127,273.791,43.516,255.769,43.516z M255.769,85.738  c-5.296,0-9.588-4.293-9.588-9.588c0-5.296,4.293-9.588,9.588-9.588s9.587,4.293,9.587,9.588S261.064,85.738,255.769,85.738z"/>
<path style="fill:#C4C8CE;" d="M275.916,97.364c-11.546,0-21.683-6-27.484-15.046c-0.735-0.874-1.311-1.883-1.698-2.981  c-2.205-4.396-3.452-9.354-3.452-14.607c0-7.924,2.825-15.186,7.522-20.839c-15.668,2.391-27.67,15.923-27.67,32.258  c0,18.024,14.611,32.634,32.635,32.634c10.099,0,19.125-4.589,25.111-11.795C279.261,97.236,277.604,97.364,275.916,97.364z"/>
<g>
</g>
<g>
</g>
<g>
</g>
<g>
</g>
<g>
</g>
<g>
</g>
<g>
</g>
<g>
</g>
<g>
</g>
<g>
</g>
<g>
</g>
<g>
</g>
<g>
</g>
<g>
</g>
<g>
</g>
</svg>
