<?xml version="1.0" encoding="iso-8859-1"?>
<!-- Generator: Adobe Illustrator 19.0.0, SVG Export Plug-In . SVG Version: 6.00 Build 0)  -->
<svg xmlns="http://www.w3.org/2000/svg" xmlns:xlink="http://www.w3.org/1999/xlink" version="1.1" id="Layer_1" x="0px" y="0px" viewBox="0 0 512 512" style="enable-background:new 0 0 512 512;" xml:space="preserve">
<path style="fill:#FF5357;" d="M371.657,213.154H139.878c-45.181,0-81.804,36.624-81.804,81.805v25.806v47.448v25.806  c0,45.179,36.623,81.804,81.804,81.804h231.779c45.181,0,81.806-36.625,81.806-81.804v-25.806v-47.448v-25.806  C453.462,249.777,416.838,213.154,371.657,213.154z"/>
<path style="fill:#FC656D;" d="M189.333,309.483c0,53.152,23.78,100.744,61.275,132.738V216.92h-34.702  C199.074,243.749,189.333,275.476,189.333,309.483z"/>
<path style="fill:#FF6971;" d="M367.582,216.92H215.904c-16.83,26.828-26.571,58.555-26.571,92.562  c0,83.016,57.994,152.479,135.674,170.106h42.576c45.181,0,81.806-36.625,81.806-81.804v-25.806V324.53v-25.806  C449.389,253.545,412.763,216.92,367.582,216.92z"/>
<path style="fill:#97D3EE;" d="M384.763,379.675h17.251c9.163,0,16.591-7.428,16.591-16.59v-53.226  c0-61.518-47.465-62.441-47.465-62.441h-65.205c-9.163,0-16.591,7.427-16.591,16.591v99.076c0,9.161,7.428,16.59,16.591,16.59  h51.522"/>
<path style="fill:#5BC5EF;" d="M139.606,247.42h65.207c9.163,0,16.588,7.427,16.588,16.591v99.076c0,9.161-7.426,16.59-16.588,16.59  h-96.082c-9.163,0-16.591-7.428-16.591-16.59v-53.226C92.141,248.341,139.606,247.42,139.606,247.42z"/>
<path style="fill:#49B5CE;" d="M121.484,363.086v-53.226c0-61.518,47.463-62.441,47.463-62.441h-21.559  c0,0-47.463,0.922-47.463,62.441v53.226c0,9.161,7.428,16.59,16.588,16.59h21.559C128.911,379.675,121.484,372.248,121.484,363.086z  "/>
<path style="fill:#97D3EE;" d="M202.258,378.99c6.873-2.027,11.892-8.376,11.892-15.904V264.01c0-9.164-7.428-16.591-16.591-16.591  h-1.413c-6.463,18.231-9.991,37.85-9.991,58.296C186.156,331.888,191.931,356.71,202.258,378.99z"/>
<path style="fill:#E23740;" d="M206.182,503.915h26.163h44.671h100.666c7.758,0,14.047-6.289,14.047-14.047  c0-7.758-6.289-14.047-14.047-14.047H277.016h-44.671H131.677c-7.758,0-14.047,6.289-14.047,14.047  c0,7.758,6.289,14.047,14.047,14.047h47.918"/>
<path style="fill:#C6243B;" d="M378.772,490.946H278.105h-44.671h-26.163h-26.586h-47.918c-5.417,0-10.11-3.071-12.453-7.563  c-1.012,1.941-1.594,4.144-1.594,6.485c0,7.758,6.289,14.047,14.047,14.047h47.918h26.586h26.163h44.671H378.77  c7.757,0,14.046-6.289,14.046-14.047c0-2.341-0.581-4.544-1.593-6.485C388.88,487.875,384.188,490.946,378.772,490.946z"/>
<path style="fill:#5B5E5E;" d="M255.77,104.86c-5.065,0-9.861-1.16-14.133-3.227v84.102h28.265v-84.102  C265.629,103.7,260.835,104.86,255.77,104.86z"/>
<g>
	<path style="fill:#E6E9ED;" d="M319.362,213.154v-10.83c0-9.163-7.426-16.59-16.591-16.59h-94.006   c-9.163,0-16.591,7.427-16.591,16.59v10.83H319.362z"/>
	<circle style="fill:#E6E9ED;" cx="255.774" cy="72.373" r="32.489"/>
</g>
<g>
	<path style="fill:#231F20;" d="M255.77,112.944c-22.373,0-40.575-18.201-40.575-40.573s18.202-40.573,40.575-40.573   c22.372,0,40.573,18.201,40.573,40.573S278.141,112.944,255.77,112.944z M255.77,47.969c-13.457,0-24.406,10.948-24.406,24.404   s10.948,24.404,24.406,24.404c13.456,0,24.404-10.948,24.404-24.404S269.226,47.969,255.77,47.969z"/>
	<path style="fill:#231F20;" d="M269.9,193.819h-28.265c-4.466,0-8.085-3.62-8.085-8.085v-84.102c0-2.783,1.432-5.371,3.79-6.849   c2.36-1.48,5.313-1.64,7.817-0.427c3.318,1.606,6.888,2.42,10.611,2.42c3.722,0,7.291-0.814,10.609-2.42   c2.505-1.213,5.458-1.051,7.817,0.427c2.359,1.479,3.79,4.066,3.79,6.849v84.102C277.985,190.199,274.366,193.819,269.9,193.819z    M249.72,177.65h12.096V112.5c-3.971,0.591-8.124,0.591-12.096,0V177.65z"/>
	<path style="fill:#231F20;" d="M319.362,221.239H192.175c-4.466,0-8.085-3.62-8.085-8.085v-10.83   c0-13.606,11.068-24.674,24.675-24.674h94.006c13.606,0,24.675,11.068,24.675,24.674v10.83   C327.446,217.619,323.827,221.239,319.362,221.239z M200.26,205.07h111.017v-2.746c0-4.69-3.816-8.505-8.506-8.505h-94.006   c-4.69,0-8.506,3.815-8.506,8.505v2.746H200.26z"/>
	<path style="fill:#231F20;" d="M371.657,483.906H139.878c-49.564,0-89.889-40.324-89.889-89.889v-99.06   c0-49.565,40.324-89.89,89.889-89.89h231.779c49.565,0,89.891,40.325,89.891,89.89v99.06   C461.547,443.582,421.222,483.906,371.657,483.906z M139.878,221.239c-40.649,0-73.719,33.071-73.719,73.721v99.06   c0,40.649,33.07,73.719,73.719,73.719h231.779c40.65,0,73.722-33.07,73.722-73.719v-99.06c0-40.649-33.071-73.72-73.722-73.72   L139.878,221.239L139.878,221.239z"/>
	<path style="fill:#231F20;" d="M377.682,512H206.181c-4.466,0-8.085-3.62-8.085-8.085s3.619-8.085,8.085-8.085h171.501   c3.288,0,5.962-2.675,5.962-5.962c0-3.287-2.675-5.962-5.962-5.962H131.678c-3.288,0-5.962,2.674-5.962,5.962   c0,3.288,2.674,5.962,5.962,5.962h47.918c4.466,0,8.085,3.62,8.085,8.085S184.062,512,179.596,512h-47.918   c-12.203,0-22.131-9.929-22.131-22.131c0-12.202,9.928-22.131,22.131-22.131h246.005c12.203,0,22.131,9.928,22.131,22.131   S389.886,512,377.682,512z"/>
	<path style="fill:#231F20;" d="M254.681,483.906H139.878c-49.564,0-89.889-40.324-89.889-89.889v-99.06   c0-49.565,40.324-89.89,89.889-89.89h114.803c4.466,0,8.085,3.62,8.085,8.085v262.668   C262.766,480.287,259.147,483.906,254.681,483.906z M139.878,221.239c-40.649,0-73.719,33.071-73.719,73.721v99.06   c0,40.649,33.07,73.719,73.719,73.719h106.718v-246.5H139.878z"/>
	<path style="fill:#231F20;" d="M402.014,387.759h-17.251c-4.466,0-8.085-3.62-8.085-8.085s3.619-8.085,8.085-8.085h17.251   c4.69,0,8.506-3.815,8.506-8.505v-53.226c0-22.643-6.775-38.647-20.137-47.565c-9.318-6.22-18.679-6.761-19.362-6.791h-65.087   c-4.69,0-8.506,3.816-8.506,8.506v99.076c0,4.69,3.816,8.505,8.506,8.505h51.522c4.465,0,8.085,3.62,8.085,8.085   s-3.62,8.085-8.085,8.085h-51.522c-13.606,0-24.675-11.068-24.675-24.674v-99.076c0-13.606,11.068-24.675,24.675-24.675h65.205   c0.053,0,0.105,0,0.157,0.001c0.554,0.011,55.393,1.87,55.393,70.523v53.226C426.688,376.691,415.62,387.759,402.014,387.759z"/>
	<path style="fill:#231F20;" d="M204.813,387.759h-96.082c-13.606,0-24.675-11.068-24.675-24.674v-53.226   c0-68.653,54.839-70.514,55.393-70.523c0.053-0.001,0.105-0.001,0.156-0.001h65.207c13.605,0,24.673,11.068,24.673,24.675v99.076   C229.486,376.691,218.418,387.759,204.813,387.759z M139.73,255.504c-0.644,0.031-10.467,0.612-19.944,7.182   c-12.98,8.998-19.56,24.869-19.56,47.174v53.226c0,4.69,3.816,8.505,8.506,8.505h96.082c4.689,0,8.504-3.815,8.504-8.505V264.01   c0-4.69-3.815-8.506-8.504-8.506H139.73z"/>
	<path style="fill:#231F20;" d="M289.343,445.427c-4.466,0-8.085-3.62-8.085-8.085v-22.119c0-4.465,3.619-8.085,8.085-8.085   c4.465,0,8.085,3.62,8.085,8.085v22.119C297.428,441.807,293.809,445.427,289.343,445.427z"/>
	<path style="fill:#231F20;" d="M221.402,445.427c-4.466,0-8.085-3.62-8.085-8.085v-22.119c0-4.465,3.619-8.085,8.085-8.085   s8.085,3.62,8.085,8.085v22.119C229.486,441.807,225.866,445.427,221.402,445.427z"/>
	<path style="fill:#231F20;" d="M289.338,71.773c-3.592,0-6.871-2.411-7.818-6.048c-1.125-4.32,1.464-8.736,5.785-9.861   l213.427-55.6c4.32-1.128,8.737,1.465,9.861,5.785c1.125,4.32-1.464,8.736-5.785,9.861L291.382,71.509   C290.698,71.688,290.013,71.773,289.338,71.773z"/>
	<path style="fill:#231F20;" d="M9.225,144.744c-3.592,0-6.871-2.411-7.818-6.048c-1.125-4.32,1.464-8.736,5.785-9.862   L222.12,72.844c4.318-1.128,8.736,1.464,9.861,5.785c1.125,4.32-1.464,8.736-5.785,9.861L11.268,144.481   C10.585,144.658,9.9,144.744,9.225,144.744z"/>
	<circle style="fill:#231F20;" cx="255.774" cy="72.373" r="9.544"/>
</g>
<g>
</g>
<g>
</g>
<g>
</g>
<g>
</g>
<g>
</g>
<g>
</g>
<g>
</g>
<g>
</g>
<g>
</g>
<g>
</g>
<g>
</g>
<g>
</g>
<g>
</g>
<g>
</g>
<g>
</g>
</svg>
