<?xml version="1.0" encoding="iso-8859-1"?>
<!-- Generator: Adobe Illustrator 19.0.0, SVG Export Plug-In . SVG Version: 6.00 Build 0)  -->
<svg xmlns="http://www.w3.org/2000/svg" xmlns:xlink="http://www.w3.org/1999/xlink" version="1.1" id="Layer_1" x="0px" y="0px" viewBox="0 0 512 512" style="enable-background:new 0 0 512 512;" xml:space="preserve">
<g>
	<path style="fill:#D5D8DB;" d="M157.533,421.767c-4.606,0-8.338-3.733-8.338-8.338v-53.361c0-4.605,3.732-8.338,8.338-8.338   c4.605,0,8.338,3.733,8.338,8.338v53.361C165.87,418.034,162.138,421.767,157.533,421.767z"/>
	<path style="fill:#D5D8DB;" d="M228.044,421.767c-4.606,0-8.338-3.733-8.338-8.338v-53.361c0-4.605,3.732-8.338,8.338-8.338   c4.606,0,8.338,3.733,8.338,8.338v53.361C236.382,418.034,232.649,421.767,228.044,421.767z"/>
	<path style="fill:#D5D8DB;" d="M87.021,421.767c-4.606,0-8.338-3.733-8.338-8.338v-53.361c0-4.605,3.732-8.338,8.338-8.338   s8.338,3.733,8.338,8.338v53.361C95.359,418.034,91.627,421.767,87.021,421.767z"/>
</g>
<g>
	<path style="fill:#5B5E5E;" d="M150.181,109.724h-22.983c-4.606,0-8.338-3.733-8.338-8.338c0-4.605,3.732-8.338,8.338-8.338h22.983   c4.606,0,8.338,3.733,8.338,8.338C158.519,105.991,154.786,109.724,150.181,109.724z"/>
	<path style="fill:#5B5E5E;" d="M202.642,109.724h-22.985c-4.606,0-8.338-3.733-8.338-8.338c0-4.605,3.732-8.338,8.338-8.338h22.985   c4.606,0,8.338,3.733,8.338,8.338C210.98,105.991,207.248,109.724,202.642,109.724z"/>
	<path style="fill:#5B5E5E;" d="M190.09,175.826h-50.342c-2.904,0-5.598-1.924-7.113-5.08c-1.515-3.155-1.632-7.088-0.308-10.38   l19.307-48.018c2.007-4.989,6.711-7.133,10.745-4.898c1.614,0.893,3.466,0.893,5.08,0c4.034-2.233,8.739-0.091,10.745,4.898   l19.307,48.018c1.322,3.292,1.207,7.224-0.308,10.38C195.689,173.901,192.995,175.826,190.09,175.826z M153.386,154.587h23.067   l-10.163-25.276c-0.909,0.068-1.832,0.068-2.743,0L153.386,154.587z"/>
</g>
<path style="fill:#F98B38;" d="M187.322,101.387c0,12.373-10.028,22.403-22.403,22.403c-12.37,0-22.403-10.03-22.403-22.403  s10.033-22.404,22.403-22.404C177.293,78.984,187.322,89.014,187.322,101.387z"/>
<path style="fill:#E87528;" d="M162.453,90.676c0-4.273,1.22-8.252,3.296-11.65c-0.278-0.01-0.549-0.042-0.829-0.042  c-12.37,0-22.403,10.03-22.403,22.404c0,12.373,10.033,22.403,22.403,22.403c8.1,0,15.174-4.313,19.109-10.753  C172.046,112.597,162.453,102.77,162.453,90.676z"/>
<g>
	<path style="fill:#E6E9ED;" d="M315.102,86.649h-97.721c-8.14,0-14.739,6.599-14.739,14.739s6.599,14.739,14.739,14.739h25.599   h27.792h44.33c8.14,0,14.736-6.599,14.736-14.739C329.838,93.247,323.243,86.649,315.102,86.649z"/>
	<path style="fill:#E6E9ED;" d="M127.198,101.387c0-8.14-6.599-14.739-14.739-14.739H14.739C6.599,86.649,0,93.247,0,101.387   s6.599,14.739,14.739,14.739h97.721C120.599,116.125,127.198,109.528,127.198,101.387z"/>
</g>
<g>
	<path style="fill:#C4C8CE;" d="M315.102,101.387h-44.33h-27.792h-25.599c-5.452,0-10.202-2.968-12.751-7.369   c-1.256,2.17-1.988,4.681-1.988,7.369c0,8.14,6.599,14.739,14.739,14.739h25.599h27.792h44.33c8.14,0,14.736-6.599,14.736-14.739   c0-2.688-0.73-5.199-1.987-7.369C325.303,98.42,320.555,101.387,315.102,101.387z"/>
	<path style="fill:#C4C8CE;" d="M112.46,101.387H14.739c-5.452,0-10.202-2.968-12.751-7.369C0.731,96.187,0,98.7,0,101.387   c0,8.14,6.599,14.739,14.739,14.739h97.721c8.14,0,14.739-6.599,14.739-14.739c0-2.688-0.731-5.199-1.988-7.369   C122.661,98.42,117.911,101.387,112.46,101.387z"/>
</g>
<path style="fill:#F98B38;" d="M228.518,167.343c0-8.14-6.597-14.739-14.736-14.739h-97.722c-8.14,0-14.739,6.599-14.739,14.739  c0,8.137,6.599,14.736,14.739,14.736h97.721C221.921,182.079,228.518,175.481,228.518,167.343z"/>
<path style="fill:#E87528;" d="M213.781,168.454h-97.722c-5.68,0-10.601-3.218-13.062-7.924c-1.065,2.039-1.676,4.353-1.676,6.813  c0,8.137,6.599,14.736,14.739,14.736h97.721c8.14,0,14.736-6.599,14.736-14.736c0-2.46-0.61-4.775-1.676-6.813  C224.381,165.236,219.461,168.454,213.781,168.454z"/>
<path style="fill:#5B5E5E;" d="M358.223,180.967h-95.533c8.138,0,14.736,6.599,14.736,14.739V275.1l149.036-74.291  c-3.266-2.704-5.346-6.787-5.346-11.356c0-3.162,1.005-6.084,2.701-8.485h-37.431"/>
<path style="fill:#424444;" d="M298.156,264.767v-73.878c0-3.826-1.471-7.301-3.862-9.921H262.69  c8.137,0,14.736,6.599,14.736,14.739v79.394L298.156,264.767z"/>
<path style="fill:#E6E9ED;" d="M258.033,403.542h-39.082h-38.624h-10.19h-38.72h-10.19H82.605H58.947l-31.804-18.438  c-7.183-3.832-16.11-1.115-19.941,6.066c-3.83,7.183-1.114,16.108,6.066,19.939l31.835,18.456c1.549,1.301,3.369,2.282,5.363,2.859  l1.109,0.592h2.998h7.38h4.796h2.228h7.962h2.228h3.437h3.257h27.421h144.75c8.14,0,14.739-6.598,14.739-14.739  C272.771,410.141,266.174,403.542,258.033,403.542z"/>
<path style="fill:#C4C8CE;" d="M262.688,418.883h-144.75H90.516H87.26h-3.437h-2.228h-7.962h-2.228H66.61h-7.38h-2.998l-1.109-0.593  c-1.993-0.578-3.815-1.559-5.363-2.859l-31.835-18.456c-3.981-2.123-6.582-5.815-7.465-9.906c-1.285,1.135-2.402,2.5-3.257,4.101  c-3.83,7.183-1.114,16.108,6.066,19.939l31.835,18.456c1.549,1.301,3.369,2.282,5.363,2.859l1.109,0.592h2.998h7.38h4.796h2.228  h7.962h2.228h3.437h3.257h27.421h144.75c8.14,0,14.739-6.598,14.739-14.739c0-1.065-0.119-2.101-0.335-3.102  C269.838,417.476,266.431,418.883,262.688,418.883z"/>
<path style="fill:#F98B38;" d="M497.264,137.016h-46.668l-26.776,43.951l-5.157,2.509v5.976c0,8.14,6.599,14.739,14.739,14.739  h63.863c8.138,0,14.736-6.599,14.736-14.739v-37.699C512,143.614,505.401,137.016,497.264,137.016z"/>
<path style="fill:#E87528;" d="M436.584,204.191l1.688-0.82l26.776-43.951h46.668c0.096,0,0.189,0.012,0.285,0.014v-7.679  c0-8.14-6.599-14.738-14.736-14.738h-46.668l-26.776,43.951l-5.157,2.509v5.976c0,8.14,6.599,14.739,14.739,14.739h3.183V204.191z"/>
<path style="fill:#F7A539;" d="M277.427,305.42V195.707c0-8.14-6.599-14.739-14.736-14.739H96.443  c-45.649,0-82.655,37.004-82.655,82.653v22.958c0,45.649,37.007,82.653,82.655,82.653h134.55  C239.011,369.004,277.427,364.818,277.427,305.42z"/>
<path style="fill:#F2BA3D;" d="M262.691,180.967H96.443c-0.81,0-1.611,0.038-2.417,0.061c-4.198,13.615-6.462,28.079-6.462,43.072  c0,75.343,57.087,137.347,130.365,145.132h13.063c8.019-0.228,46.435-4.414,46.435-63.813V195.707  C277.427,187.566,270.828,180.967,262.691,180.967z"/>
<path style="fill:#3EBEDB;" d="M96.443,180.967c-45.649,0-82.655,37.004-82.655,82.653v18.873h108.486  c8.14,0,14.736-6.598,14.736-14.736v-86.789H96.443V180.967z"/>
<path style="fill:#97D3EE;" d="M94.026,181.028c-4.198,13.615-6.462,28.079-6.462,43.072c0,20.764,4.344,40.511,12.16,58.393h22.549  c8.14,0,14.736-6.598,14.736-14.736v-86.789H96.443C95.632,180.967,94.832,181.006,94.026,181.028z"/>
<g>
	<path style="fill:#E87528;" d="M137.01,321.127h-24.561c-4.606,0-8.338-3.733-8.338-8.338c0-4.605,3.732-8.338,8.338-8.338h24.561   c4.606,0,8.338,3.733,8.338,8.338C145.347,317.394,141.616,321.127,137.01,321.127z"/>
	<path style="fill:#E87528;" d="M225.188,218.541h-44.424c-4.606,0-8.338-3.733-8.338-8.338s3.732-8.338,8.338-8.338h44.424   c4.606,0,8.338,3.733,8.338,8.338S229.794,218.541,225.188,218.541z"/>
	<path style="fill:#E87528;" d="M225.188,245.595h-44.424c-4.606,0-8.338-3.733-8.338-8.338s3.732-8.338,8.338-8.338h44.424   c4.606,0,8.338,3.733,8.338,8.338S229.794,245.595,225.188,245.595z"/>
	<path style="fill:#E87528;" d="M225.188,272.647h-44.424c-4.606,0-8.338-3.733-8.338-8.338c0-4.605,3.732-8.338,8.338-8.338h44.424   c4.606,0,8.338,3.733,8.338,8.338C233.526,268.914,229.794,272.647,225.188,272.647z"/>
</g>
<path style="fill:#E6E9ED;" d="M448.866,193.007c0,12.373-10.028,22.403-22.403,22.403c-12.37,0-22.403-10.03-22.403-22.403  c0-12.373,10.033-22.404,22.403-22.404C438.837,170.604,448.866,180.634,448.866,193.007z"/>
<path style="fill:#C4C8CE;" d="M423.996,182.296c0-4.273,1.22-8.252,3.296-11.65c-0.278-0.01-0.549-0.042-0.829-0.042  c-12.37,0-22.403,10.03-22.403,22.404c0,12.373,10.033,22.403,22.403,22.403c8.1,0,15.174-4.313,19.11-10.753  C433.589,204.218,423.996,194.39,423.996,182.296z"/>
<g>
</g>
<g>
</g>
<g>
</g>
<g>
</g>
<g>
</g>
<g>
</g>
<g>
</g>
<g>
</g>
<g>
</g>
<g>
</g>
<g>
</g>
<g>
</g>
<g>
</g>
<g>
</g>
<g>
</g>
</svg>
