<?xml version="1.0" encoding="iso-8859-1"?>
<!-- Generator: Adobe Illustrator 19.0.0, SVG Export Plug-In . SVG Version: 6.00 Build 0)  -->
<svg xmlns="http://www.w3.org/2000/svg" xmlns:xlink="http://www.w3.org/1999/xlink" version="1.1" id="Layer_1" x="0px" y="0px" viewBox="0 0 512 512" style="enable-background:new 0 0 512 512;" xml:space="preserve">
<g>
	<path style="fill:#E6E9ED;" d="M243.39,116.288h-24.791c-7.883,0-14.274-6.391-14.274-14.274s6.391-14.274,14.274-14.274h94.639   c7.883,0,14.272,6.391,14.272,14.274s-6.389,14.274-14.272,14.274h-42.932"/>
	<path style="fill:#E6E9ED;" d="M131.261,102.014c0-7.883-6.391-14.274-14.274-14.274H22.348c-7.883,0-14.274,6.391-14.274,14.274   s6.391,14.274,14.274,14.274h94.639C124.87,116.288,131.261,109.897,131.261,102.014z"/>
</g>
<g>
	<path style="fill:#C4C8CE;" d="M315.181,101.913h-42.932h-26.915h-24.791c-5.28,0-9.881-2.875-12.35-7.137   c-1.217,2.102-1.924,4.534-1.924,7.137c0,7.883,6.391,14.274,14.274,14.274h24.791h26.915h42.932   c7.883,0,14.272-6.391,14.272-14.274c0-2.603-0.708-5.035-1.925-7.137C325.06,99.038,320.461,101.913,315.181,101.913z"/>
	<path style="fill:#C4C8CE;" d="M118.93,101.913H24.292c-5.28,0-9.881-2.875-12.35-7.137c-1.217,2.102-1.924,4.534-1.924,7.137   c0,7.883,6.391,14.274,14.274,14.274h94.639c7.883,0,14.274-6.391,14.274-14.274c0-2.603-0.708-5.035-1.926-7.137   C128.809,99.038,124.21,101.913,118.93,101.913z"/>
</g>
<path style="fill:#F98B38;" d="M489.654,137.596h-45.196l-25.931,42.565l-4.994,2.43v5.788c0,7.883,6.391,14.274,14.274,14.274  h61.848c7.881,0,14.272-6.391,14.272-14.274v-36.51C503.925,143.985,497.535,137.596,489.654,137.596z"/>
<path style="fill:#E87528;" d="M434.983,209.011l1.634-0.795l25.931-42.565h45.196c0.093,0,0.183,0.012,0.276,0.014v-7.437  c0-7.883-6.391-14.273-14.272-14.273h-45.196l-25.931,42.565l-4.994,2.43v5.788c0,7.883,6.391,14.274,14.274,14.274h3.082V209.011z"/>
<path style="fill:#5B5E5E;" d="M354.998,180.161h-92.52c7.881,0,14.272,6.391,14.272,14.274v76.89l144.335-71.948  c-3.163-2.618-5.177-6.572-5.177-10.998c0-3.062,0.973-5.892,2.616-8.218h-36.251"/>
<path style="fill:#424444;" d="M304.152,259.062v-71.547c0-3.706-1.423-7.071-3.739-9.608h-30.608  c7.881,0,14.272,6.391,14.272,14.274v76.89L304.152,259.062z"/>
<path style="fill:#F7A539;" d="M229.384,165.89c0-7.883-6.389-14.274-14.272-14.274h-94.64c-7.883,0-14.274,6.391-14.274,14.274  c0,7.881,6.391,14.272,14.274,14.272h94.639C222.996,180.161,229.384,173.77,229.384,165.89z"/>
<path style="fill:#E87528;" d="M215.978,165.787H121.34c-5.5,0-10.268-3.116-12.65-7.674c-1.032,1.975-1.624,4.216-1.624,6.599  c0,7.881,6.39,14.272,14.274,14.272h94.639c7.883,0,14.272-6.391,14.272-14.272c0-2.383-0.592-4.624-1.624-6.599  C226.245,162.672,221.48,165.787,215.978,165.787z"/>
<path style="fill:#E6E9ED;" d="M117.784,424.26h140.185c7.883,0,14.274-6.391,14.274-14.274c0-7.881-6.391-14.272-14.274-14.272  h-37.849h-37.406h-9.868h-37.498h-9.868H88.075H65.162l-30.801-17.857c-6.956-3.711-15.602-1.08-19.312,5.875  c-3.709,6.956-1.079,15.6,5.875,19.31l30.831,17.874c1.5,1.26,3.263,2.21,5.194,2.769l1.074,0.574h2.904h27.147H68.074h6.802h9.868  H72.719h9.868h8.64"/>
<path style="fill:#C4C8CE;" d="M261.401,410.203H121.215H94.658h-3.152h-3.33h-2.156h-7.712h-2.156h-4.645h-7.148h-2.904  l-1.074-0.574c-1.93-0.56-3.696-1.509-5.194-2.769l-30.831-17.874c-3.856-2.056-6.376-5.632-7.229-9.594  c-1.245,1.099-2.328,2.421-3.154,3.972c-3.709,6.956-1.079,15.6,5.875,19.31l30.831,17.874c1.5,1.26,3.263,2.21,5.194,2.769  l1.074,0.574h2.904h7.148h4.645H73.8h7.711h2.158h3.329h3.153h26.556h140.186c7.883,0,14.274-6.391,14.274-14.274  c0-1.031-0.115-2.035-0.324-3.004C268.325,408.84,265.026,410.203,261.401,410.203z"/>
<path style="fill:#F7A539;" d="M276.751,300.687V194.435c0-7.883-6.391-14.274-14.272-14.274H101.475  c-44.209,0-80.048,35.837-80.048,80.046v22.234c0,44.209,35.839,80.046,80.048,80.046h130.306  C239.547,362.266,276.751,358.213,276.751,300.687z"/>
<path style="fill:#3EBEDB;" d="M101.475,180.161c-44.209,0-80.048,35.837-80.048,80.046v18.278h105.065  c7.883,0,14.272-6.39,14.272-14.272v-84.051h-39.288V180.161z"/>
<path style="fill:#F2BA3D;" d="M258.465,180.161H97.46c-0.785,0-1.56,0.037-2.341,0.059c-4.066,13.185-6.258,27.193-6.258,41.713  c0,72.966,55.286,133.015,126.253,140.554h12.652c7.766-0.221,44.97-4.275,44.97-61.8V194.436  C272.737,186.551,266.347,180.161,258.465,180.161z"/>
<path style="fill:#97D3EE;" d="M95.121,180.22c-4.066,13.185-6.258,27.193-6.258,41.713c0,20.109,4.208,39.233,11.776,56.551h21.839  c7.883,0,14.272-6.39,14.272-14.272v-84.051H97.46C96.676,180.161,95.9,180.198,95.121,180.22z"/>
<circle style="fill:#F98B38;" cx="167.79" cy="102.01" r="14.274"/>
<circle style="fill:#E6E9ED;" cx="430.183" cy="188.376" r="14.274"/>
<g>
	<path style="fill:#231F20;" d="M231.781,370.561H101.475c-48.591,0-88.123-39.531-88.123-88.121v-22.234   c0-48.59,39.532-88.121,88.123-88.121H262.48c12.321,0,22.346,10.025,22.346,22.348v106.252c0,26.927-7.603,46.673-22.597,58.691   c-12.053,9.659-25.146,11.037-30.217,11.182C231.935,370.56,231.857,370.561,231.781,370.561z M101.475,188.236   c-39.686,0-71.974,32.287-71.974,71.972v22.234c0,39.685,32.287,71.972,71.974,71.972H231.66   c8.833-0.283,37.016-5.05,37.016-53.725V194.436c0-3.418-2.78-6.199-6.197-6.199H101.475V188.236z"/>
	<path style="fill:#231F20;" d="M430.183,210.726c-12.323,0-22.348-10.025-22.348-22.348s10.024-22.348,22.348-22.348   c12.323,0,22.348,10.025,22.348,22.348S442.507,210.726,430.183,210.726z M430.183,182.18c-3.418,0-6.199,2.781-6.199,6.199   c0,3.418,2.781,6.199,6.199,6.199c3.418,0,6.199-2.781,6.199-6.199C436.382,184.961,433.601,182.18,430.183,182.18z"/>
	<path style="fill:#231F20;" d="M276.751,279.399c-1.478,0-2.951-0.405-4.249-1.209c-2.378-1.472-3.825-4.07-3.825-6.866v-76.89   c0-3.418-2.78-6.199-6.197-6.199c-4.46,0-8.075-3.615-8.075-8.075s3.614-8.075,8.075-8.075H355c4.46,0,8.075,3.615,8.075,8.075   s-3.614,8.075-8.075,8.075h-71.048c0.57,1.969,0.875,4.049,0.875,6.199v63.842l124.435-62.028c-0.933-2.483-1.425-5.143-1.425-7.87   c0-0.047,0-0.095,0-0.143h-25.563c-4.46,0-8.075-3.615-8.075-8.075s3.614-8.075,8.075-8.075h36.252c3.017,0,5.781,1.682,7.169,4.36   s1.167,5.907-0.573,8.372c-0.52,0.734-1.138,1.949-1.138,3.56c0,1.852,0.82,3.593,2.251,4.778c2.104,1.742,3.186,4.429,2.874,7.142   c-0.312,2.714-1.976,5.086-4.42,6.304l-144.335,71.948C279.217,279.117,277.982,279.399,276.751,279.399z"/>
	<path style="fill:#231F20;" d="M126.491,286.559H21.427c-4.46,0-8.075-3.615-8.075-8.075v-18.278   c0-48.59,39.532-88.121,88.123-88.121h39.288c4.46,0,8.075,3.615,8.075,8.075v84.051   C148.838,276.534,138.813,286.559,126.491,286.559z M29.501,270.409h96.99c3.417,0,6.197-2.78,6.197-6.197v-75.977h-31.213   c-39.686,0-71.974,32.287-71.974,71.972V270.409z"/>
	<path style="fill:#231F20;" d="M140.763,315.899h-23.787c-4.46,0-8.075-3.615-8.075-8.075c0-4.459,3.614-8.075,8.075-8.075h23.787   c4.46,0,8.075,3.615,8.075,8.075C148.838,312.283,145.223,315.899,140.763,315.899z"/>
	<path style="fill:#231F20;" d="M313.238,124.362h-42.932c-4.46,0-8.075-3.615-8.075-8.075c0-4.459,3.614-8.075,8.075-8.075h42.932   c3.417,0,6.197-2.781,6.197-6.199s-2.78-6.199-6.197-6.199h-94.639c-3.418,0-6.199,2.781-6.199,6.199s2.781,6.199,6.199,6.199   h24.791c4.46,0,8.075,3.615,8.075,8.075c0,4.459-3.614,8.075-8.075,8.075h-24.791c-12.323,0-22.348-10.025-22.348-22.348   s10.024-22.348,22.348-22.348h94.639c12.321,0,22.346,10.025,22.346,22.348S325.56,124.362,313.238,124.362z"/>
	<path style="fill:#231F20;" d="M215.113,188.236h-94.64c-12.323,0-22.348-10.024-22.348-22.346   c0-12.323,10.025-22.348,22.348-22.348h94.639c12.322,0,22.346,10.025,22.346,22.348   C237.459,178.211,227.435,188.236,215.113,188.236z M120.473,159.69c-3.418,0-6.199,2.781-6.199,6.199   c0,3.417,2.781,6.197,6.199,6.197h94.639c3.417,0,6.197-2.78,6.197-6.197c0-3.418-2.78-6.199-6.197-6.199H120.473z"/>
	<path style="fill:#231F20;" d="M116.987,124.362H22.348C10.024,124.362,0,114.337,0,102.014s10.024-22.348,22.348-22.348h94.639   c12.323,0,22.348,10.025,22.348,22.348S129.31,124.362,116.987,124.362z M22.348,95.815c-3.418,0-6.199,2.781-6.199,6.199   s2.781,6.199,6.199,6.199h94.639c3.418,0,6.199-2.781,6.199-6.199s-2.781-6.199-6.199-6.199H22.348z"/>
	<path style="fill:#231F20;" d="M153.519,110.089h-22.258c-4.46,0-8.075-3.615-8.075-8.075s3.614-8.075,8.075-8.075h22.258   c4.46,0,8.075,3.615,8.075,8.075C161.593,106.473,157.978,110.089,153.519,110.089z"/>
	<path style="fill:#231F20;" d="M204.325,110.089h-22.26c-4.46,0-8.075-3.615-8.075-8.075s3.614-8.075,8.075-8.075h22.26   c4.46,0,8.075,3.615,8.075,8.075C212.4,106.473,208.786,110.089,204.325,110.089z"/>
	<path style="fill:#231F20;" d="M167.792,124.362c-12.323,0-22.348-10.025-22.348-22.348s10.025-22.348,22.348-22.348   c12.323,0,22.348,10.025,22.348,22.348S180.115,124.362,167.792,124.362z M167.792,95.815c-3.418,0-6.199,2.781-6.199,6.199   s2.781,6.199,6.199,6.199c3.418,0,6.199-2.781,6.199-6.199C173.991,98.596,171.21,95.815,167.792,95.815z"/>
	<path style="fill:#231F20;" d="M192.169,159.69h-48.754c-2.812,0-5.422-1.463-6.888-3.863c-1.467-2.4-1.58-5.39-0.298-7.893   l18.698-36.51c1.942-3.793,6.498-5.425,10.407-3.725c1.564,0.679,3.356,0.679,4.92,0c3.907-1.699,8.463-0.069,10.407,3.725   l18.698,36.51c1.281,2.503,1.169,5.493-0.298,7.893C197.591,158.227,194.982,159.69,192.169,159.69z M156.623,143.541h22.34   l-9.842-19.219c-0.881,0.052-1.775,0.052-2.656,0L156.623,143.541z"/>
	<path style="fill:#231F20;" d="M489.654,210.726h-61.848c-12.323,0-22.348-10.025-22.348-22.348v-5.788   c0-3.09,1.764-5.91,4.542-7.261l2.864-1.393l24.699-40.542c1.465-2.405,4.079-3.874,6.896-3.874h45.196   c12.322,0,22.346,10.025,22.346,22.347v36.51C512,200.701,501.976,210.726,489.654,210.726z M421.605,187.641v0.737   c0,3.418,2.781,6.199,6.199,6.199h61.848c3.417,0,6.197-2.781,6.197-6.199v-36.51c0-3.417-2.78-6.198-6.197-6.198h-40.662   l-23.57,38.691c-0.805,1.321-1.972,2.384-3.363,3.06L421.605,187.641z"/>
	<path style="fill:#231F20;" d="M160.638,402.219c-4.46,0-8.075-3.615-8.075-8.075v-31.657c0-4.459,3.614-8.075,8.075-8.075   s8.075,3.615,8.075,8.075v31.657C168.713,398.604,165.099,402.219,160.638,402.219z"/>
	<path style="fill:#231F20;" d="M228.926,402.219c-4.46,0-8.075-3.615-8.075-8.075v-31.657c0-4.459,3.614-8.075,8.075-8.075   s8.075,3.615,8.075,8.075v31.657C237,398.604,233.385,402.219,228.926,402.219z"/>
	<path style="fill:#231F20;" d="M92.351,402.219c-4.46,0-8.075-3.615-8.075-8.075v-31.657c0-4.459,3.614-8.075,8.075-8.075   s8.075,3.615,8.075,8.075v31.657C100.425,398.604,96.811,402.219,92.351,402.219z"/>
	<path style="fill:#231F20;" d="M257.969,432.334H117.784c-4.46,0-8.075-3.615-8.075-8.075c0-4.459,3.614-8.075,8.075-8.075h140.185   c3.418,0,6.199-2.781,6.199-6.199c0-3.417-2.781-6.197-6.199-6.197H65.162c-1.422,0-2.82-0.376-4.05-1.09l-30.653-17.771   c-1.437-0.734-3.074-0.88-4.621-0.409c-1.585,0.482-2.886,1.551-3.665,3.012c-1.607,3.016-0.464,6.778,2.552,8.386   c0.083,0.045,0.167,0.092,0.25,0.139l30.831,17.874c0.404,0.234,0.786,0.503,1.144,0.803c0.657,0.552,1.414,0.955,2.247,1.196   c0.252,0.073,0.501,0.158,0.743,0.255h31.289c4.46,0,8.075,3.615,8.075,8.075c0,4.459-3.614,8.075-8.075,8.075H58.024   c-1.326,0-2.633-0.327-3.805-0.953l-0.41-0.22c-2.414-0.809-4.643-2.007-6.643-3.573l-30.181-17.496   c-10.766-5.84-14.834-19.333-9.061-30.158c2.809-5.268,7.502-9.125,13.212-10.863c5.713-1.737,11.758-1.147,17.026,1.663   c0.084,0.044,0.167,0.09,0.249,0.139l28.922,16.767h190.635c12.323,0,22.348,10.024,22.348,22.346   C280.317,422.309,270.293,432.334,257.969,432.334z"/>
	<path style="fill:#231F20;" d="M226.16,216.55h-43.023c-4.46,0-8.075-3.615-8.075-8.075s3.614-8.075,8.075-8.075h43.023   c4.46,0,8.075,3.615,8.075,8.075S230.62,216.55,226.16,216.55z"/>
	<path style="fill:#231F20;" d="M226.16,242.75h-43.023c-4.46,0-8.075-3.615-8.075-8.075s3.614-8.075,8.075-8.075h43.023   c4.46,0,8.075,3.615,8.075,8.075S230.62,242.75,226.16,242.75z"/>
	<path style="fill:#231F20;" d="M226.16,268.95h-43.023c-4.46,0-8.075-3.615-8.075-8.075c0-4.459,3.614-8.075,8.075-8.075h43.023   c4.46,0,8.075,3.615,8.075,8.075C234.235,265.334,230.62,268.95,226.16,268.95z"/>
</g>
<g>
</g>
<g>
</g>
<g>
</g>
<g>
</g>
<g>
</g>
<g>
</g>
<g>
</g>
<g>
</g>
<g>
</g>
<g>
</g>
<g>
</g>
<g>
</g>
<g>
</g>
<g>
</g>
<g>
</g>
</svg>
