<?xml version="1.0" encoding="iso-8859-1"?>
<!-- Generator: Adobe Illustrator 19.0.0, SVG Export Plug-In . SVG Version: 6.00 Build 0)  -->
<svg xmlns="http://www.w3.org/2000/svg" xmlns:xlink="http://www.w3.org/1999/xlink" version="1.1" id="Layer_1" x="0px" y="0px" viewBox="0 0 512 512" style="enable-background:new 0 0 512 512;" xml:space="preserve">
<path style="fill:#9B7A64;" d="M300.068,419.263h-88.135c-7.685,0-13.915,6.23-13.915,13.915v56.823  c0,7.686,6.23,13.917,13.915,13.917h88.135c7.685,0,13.915-6.23,13.915-13.917v-25.725v-25.498v-5.6  C313.983,425.495,307.751,419.263,300.068,419.263z"/>
<path style="fill:#8E634C;" d="M227.435,490.003V433.18c0-7.685,6.23-13.915,13.915-13.915h-21.377  c-7.685,0-13.915,6.23-13.915,13.915v56.823c0,7.686,6.23,13.917,13.915,13.917h21.377  C233.665,503.92,227.435,497.688,227.435,490.003z"/>
<path style="fill:#3EBEDB;" d="M378.503,280.931c21.089-37.08,33.681-79.821,33.681-116.424  c0-86.258-69.926-156.183-156.185-156.183S99.816,78.25,99.816,164.507c0,62.936,37.231,144.02,90.862,183.272  c2.066-2.715,5.32-4.473,8.994-4.473h112.659c3.672,0,6.928,1.759,8.992,4.473c16.152-11.822,30.816-27.435,43.424-45.209"/>
<path style="fill:#2C9B46;" d="M346.323,98.113c-15.94-53.059-50.39-89.789-90.323-89.789c-55.096,0-99.759,69.925-99.759,156.183  c0,60.641,22.082,138.114,54.337,178.799h9.444h71.959h9.444c32.255-40.685,54.337-118.157,54.337-178.799  c0-13.712-1.13-27.009-3.249-39.68"/>
<path style="fill:#3EBEDB;" d="M242.797,343.306h26.404h3.466c11.836-40.685,19.938-118.157,19.938-178.799  c0-86.258-16.388-156.183-36.606-156.183c-20.216,0-36.606,69.925-36.606,156.183c0,60.641,8.103,138.114,19.938,178.799H242.797z"/>
<path style="fill:#97D3EE;" d="M255.327,1.639c-1.816,0-3.623,0.042-5.425,0.105c-37.768,31.025-61.86,78.086-61.86,130.778  c0,93.428,75.739,169.167,169.167,169.167c0.88,0,1.756-0.019,2.633-0.033c0.605-0.803,1.212-1.605,1.81-2.418  c0.075-0.102,0.15-0.207,0.225-0.31c0.674-0.921,1.344-1.848,2.007-2.781c0.063-0.087,0.126-0.173,0.189-0.261l0.041-0.066  c4.877-6.88,9.449-14.081,13.675-21.511l0.041-0.064c0.052-0.091,0.101-0.182,0.153-0.273c0.524-0.924,1.042-1.853,1.556-2.784  c0.092-0.166,0.185-0.33,0.277-0.496c0.607-1.106,1.206-2.218,1.799-3.333c0.144-0.273,0.286-0.546,0.429-0.82  c0.439-0.833,0.876-1.669,1.306-2.507c0.203-0.395,0.403-0.792,0.603-1.188c0.368-0.726,0.735-1.452,1.097-2.182  c0.212-0.428,0.423-0.857,0.634-1.285c0.347-0.709,0.692-1.419,1.032-2.131c0.207-0.432,0.414-0.864,0.618-1.298  c0.347-0.735,0.69-1.471,1.03-2.209c0.187-0.403,0.375-0.805,0.558-1.209c0.394-0.863,0.782-1.728,1.166-2.595  c0.123-0.276,0.248-0.552,0.37-0.829c0.501-1.14,0.996-2.282,1.48-3.426c0.122-0.289,0.24-0.577,0.361-0.865  c0.361-0.859,0.719-1.717,1.07-2.578c0.172-0.423,0.342-0.847,0.512-1.271c0.295-0.734,0.588-1.467,0.877-2.202  c0.18-0.457,0.358-0.915,0.534-1.373c0.273-0.708,0.543-1.417,0.81-2.126c0.176-0.467,0.35-0.932,0.522-1.398  c0.268-0.724,0.531-1.449,0.793-2.174c0.157-0.44,0.318-0.878,0.473-1.317c0.293-0.829,0.582-1.658,0.866-2.488  c0.115-0.334,0.234-0.668,0.347-1.002c0.391-1.154,0.775-2.31,1.148-3.465c0.092-0.282,0.179-0.563,0.269-0.846  c0.282-0.882,0.561-1.764,0.833-2.646c0.134-0.431,0.262-0.862,0.392-1.293c0.224-0.739,0.446-1.478,0.663-2.217  c0.136-0.464,0.27-0.929,0.403-1.393c0.205-0.711,0.405-1.422,0.602-2.132c0.13-0.47,0.261-0.939,0.388-1.409  c0.196-0.722,0.386-1.444,0.575-2.164c0.116-0.447,0.236-0.894,0.349-1.342c0.206-0.805,0.405-1.607,0.602-2.411  c0.087-0.358,0.179-0.716,0.265-1.075c0.276-1.152,0.545-2.303,0.804-3.453c0.048-0.222,0.095-0.443,0.144-0.665  c0.207-0.937,0.412-1.874,0.607-2.809c0.084-0.404,0.163-0.807,0.246-1.211c0.153-0.753,0.304-1.505,0.449-2.257  c0.086-0.449,0.169-0.897,0.253-1.347c0.133-0.709,0.261-1.418,0.385-2.126c0.081-0.458,0.161-0.916,0.238-1.373  c0.122-0.713,0.238-1.425,0.351-2.136c0.069-0.435,0.139-0.872,0.206-1.306c0.12-0.783,0.232-1.562,0.341-2.342  c0.051-0.357,0.104-0.715,0.153-1.072c0.154-1.131,0.301-2.26,0.434-3.385c0.014-0.112,0.025-0.224,0.037-0.337  c0.118-1.012,0.23-2.02,0.333-3.026c0.039-0.382,0.071-0.763,0.11-1.144c0.07-0.738,0.138-1.476,0.2-2.21  c0.036-0.43,0.068-0.859,0.101-1.287c0.054-0.692,0.103-1.382,0.15-2.071c0.027-0.433,0.055-0.866,0.08-1.299  c0.04-0.692,0.075-1.381,0.108-2.069c0.019-0.416,0.039-0.832,0.055-1.247c0.029-0.741,0.051-1.479,0.07-2.215  c0.01-0.351,0.023-0.702,0.028-1.053c0.022-1.082,0.034-2.159,0.034-3.231C411.512,71.565,341.585,1.639,255.327,1.639z"/>
<path style="fill:#4ABF69;" d="M188.043,132.521c0,81.932,58.246,150.252,135.588,165.828  c19.357-41.579,31.456-95.654,31.456-140.527c0-13.712-1.129-27.009-3.248-39.68l-6.188-26.715  c-15.94-53.059-50.391-89.789-90.323-89.789c-1.882,0-3.75,0.089-5.607,0.25C212.057,32.916,188.043,79.914,188.043,132.521z"/>
<path style="fill:#80D6FF;" d="M255.327,1.639c-20.217,0-36.606,69.925-36.606,156.183c0,24.045,1.279,50.734,3.553,76.729  c15.878,20.967,36.53,38.113,60.338,49.831c5.795-39.255,9.32-86.565,9.32-126.56C291.933,71.565,275.544,1.639,255.327,1.639z"/>
<path style="fill:#F7A539;" d="M323.637,354.613c0-6.244-5.063-11.306-11.306-11.306H199.671c-6.246,0-11.306,5.062-11.306,11.306  c0,6.246,5.06,11.307,11.306,11.307H312.33C318.574,365.92,323.637,360.858,323.637,354.613z"/>
<g>
	<path style="fill:#231F20;" d="M300.068,512h-88.135c-12.129,0-21.996-9.868-21.996-21.997V433.18   c0-12.128,9.867-21.996,21.996-21.996h88.135c12.129,0,21.996,9.868,21.996,21.996v56.823C322.063,502.131,312.196,512,300.068,512   z M211.932,427.344c-3.217,0-5.835,2.618-5.835,5.835v56.823c0,3.218,2.618,5.836,5.835,5.836h88.135   c3.217,0,5.835-2.618,5.835-5.836v-56.823c0-3.217-2.618-5.835-5.835-5.835H211.932z"/>
	<path style="fill:#231F20;" d="M216.272,427.345c-3.873,0-7.292-2.791-7.959-6.737l-8.118-48.125   c-0.742-4.401,2.223-8.569,6.624-9.312c4.397-0.746,8.568,2.223,9.312,6.624l8.118,48.125c0.743,4.401-2.223,8.569-6.624,9.312   C217.171,427.308,216.718,427.345,216.272,427.345z"/>
	<path style="fill:#231F20;" d="M255.999,427.344c-4.464,0-8.08-3.618-8.08-8.08v-48.125c0-4.463,3.617-8.08,8.08-8.08   s8.08,3.618,8.08,8.08v48.125C264.08,423.726,260.463,427.344,255.999,427.344z"/>
	<path style="fill:#231F20;" d="M295.727,427.345c-0.446,0-0.899-0.037-1.353-0.113c-4.401-0.742-7.367-4.912-6.624-9.312   l8.118-48.125c0.742-4.4,4.914-7.364,9.312-6.624c4.401,0.742,7.367,4.912,6.624,9.312l-8.118,48.125   C303.02,424.553,299.599,427.345,295.727,427.345z"/>
	<path style="fill:#231F20;" d="M312.33,374.001H199.671c-10.69,0-19.386-8.698-19.386-19.387s8.697-19.386,19.386-19.386H312.33   c10.69,0,19.386,8.697,19.386,19.386C331.718,365.303,323.02,374.001,312.33,374.001z M199.671,351.386   c-1.779,0-3.226,1.447-3.226,3.226c0,1.779,1.447,3.227,3.226,3.227H312.33c1.779,0,3.226-1.448,3.226-3.227   c0-1.779-1.447-3.226-3.226-3.226H199.671z"/>
	<path style="fill:#231F20;" d="M190.671,355.861c-1.657,0-3.328-0.509-4.766-1.56c-26.47-19.373-50.635-49.828-68.042-85.752   c-16.849-34.772-26.128-71.721-26.128-104.04c0-90.575,73.69-164.264,164.265-164.264s164.264,73.688,164.264,164.263   c0,37.712-12.661,81.602-34.737,120.419c-2.206,3.878-7.139,5.234-11.019,3.03c-3.879-2.206-5.235-7.14-3.029-11.019   c20.733-36.454,32.624-77.433,32.624-112.429c0-81.664-66.439-148.103-148.104-148.103s-148.103,66.44-148.103,148.103   c0,61.059,35.918,135.621,82.645,172.993c2.762-1.48,5.879-2.274,9.131-2.274h112.659c3.254,0,6.373,0.795,9.135,2.277   c13.124-10.456,25.444-23.753,36.689-39.607c2.581-3.638,7.624-4.498,11.265-1.917c3.64,2.582,4.498,7.626,1.916,11.266   c-13.646,19.239-28.867,35.071-45.241,47.055c-3.554,2.603-8.538,1.877-11.204-1.629c-0.293-0.386-1.131-1.284-2.56-1.284H199.671   c-1.43,0-2.27,0.901-2.564,1.287C195.52,354.761,193.11,355.861,190.671,355.861z"/>
	<path style="fill:#231F20;" d="M301.424,351.386h-90.847c-2.467,0-4.799-1.127-6.332-3.061   c-15.96-20.131-30.406-50.185-40.675-84.626c-9.938-33.324-15.41-68.552-15.41-99.192c0-43.241,10.828-84.007,30.489-114.787   c20.379-31.904,47.849-49.475,77.35-49.475c21.514,0,42.231,9.476,59.912,27.403c16.633,16.865,29.824,40.428,38.149,68.141   c1.284,4.274-1.14,8.78-5.413,10.063c-4.273,1.283-8.78-1.14-10.064-5.414c-15.335-51.048-47.752-84.033-82.584-84.033   c-23.792,0-46.425,14.921-63.73,42.015c-18.021,28.217-27.947,65.893-27.947,106.089c0,59.643,21.434,132.042,50.237,170.718   h82.885c28.803-38.677,50.237-111.076,50.237-170.718c0-12.993-1.057-25.895-3.138-38.347c-0.736-4.401,2.236-8.566,6.637-9.303   c4.408-0.739,8.566,2.236,9.303,6.637c2.229,13.33,3.359,27.13,3.359,41.013c0,30.641-5.472,65.868-15.41,99.192   c-10.27,34.442-24.715,64.495-40.675,84.626C306.223,350.259,303.891,351.386,301.424,351.386z"/>
	<path style="fill:#231F20;" d="M272.668,351.143h-33.335c-3.593,0-6.755-2.373-7.758-5.823   c-11.551-39.707-20.26-117.543-20.26-181.056c0-42.319,3.883-82.195,10.934-112.282C230.447,17.003,241.487,0,255.999,0   c14.513,0,25.554,17.003,33.751,51.981c7.051,30.085,10.934,69.962,10.934,112.282c0,63.519-8.71,141.357-20.26,181.056   C279.422,348.769,276.261,351.143,272.668,351.143z M245.491,334.982h21.018c10.378-39.912,18.017-111.515,18.017-170.718   c0-41.116-3.732-79.682-10.508-108.595c-7.689-32.803-16.168-39.509-18.018-39.509s-10.328,6.706-18.017,39.509   c-6.777,28.914-10.509,67.48-10.509,108.595C227.475,223.46,235.113,295.064,245.491,334.982z"/>
</g>
<g>
</g>
<g>
</g>
<g>
</g>
<g>
</g>
<g>
</g>
<g>
</g>
<g>
</g>
<g>
</g>
<g>
</g>
<g>
</g>
<g>
</g>
<g>
</g>
<g>
</g>
<g>
</g>
<g>
</g>
</svg>
