<?xml version="1.0" encoding="iso-8859-1"?>
<!-- Generator: Adobe Illustrator 19.0.0, SVG Export Plug-In . SVG Version: 6.00 Build 0)  -->
<svg xmlns="http://www.w3.org/2000/svg" xmlns:xlink="http://www.w3.org/1999/xlink" version="1.1" id="Layer_1" x="0px" y="0px" viewBox="0 0 512 512" style="enable-background:new 0 0 512 512;" xml:space="preserve">
<path style="fill:#DCDEE2;" d="M177.392,324.099c2.687-16.158,6.747-34.903,11.919-53.873l-0.003-0.004L0,233.176  c0,0,0,18.631,46.219,37.045C74.83,281.621,177.391,324.1,177.391,324.1L177.392,324.099z"/>
<path style="fill:#C8CACC;" d="M189.308,270.221l-23.167-4.534c-4.612,17.354-8.274,34.388-10.788,49.296  c13.201,5.457,22.038,9.117,22.038,9.117l0.001-0.001c2.687-16.158,6.747-34.903,11.919-53.873L189.308,270.221z"/>
<path style="fill:#DCDEE2;" d="M450.239,245.262l-28.256,5.529l-99.29,19.43l-0.003,0.003c5.173,18.97,9.233,37.716,11.919,53.874  h0.001c0,0,102.561-42.479,131.173-53.879C512,251.807,512,233.176,512,233.176L450.239,245.262z"/>
<g>
	<circle style="fill:#80D6FF;" cx="394.43" cy="325.779" r="24.594"/>
	<circle style="fill:#80D6FF;" cx="461.314" cy="291.683" r="17.886"/>
	<circle style="fill:#80D6FF;" cx="116.743" cy="325.779" r="24.594"/>
</g>
<g>
	<path style="fill:#6ABDD3;" d="M392.19,325.778c0-9.556,5.453-17.833,13.415-21.904c-3.355-1.716-7.151-2.69-11.179-2.69   c-13.583,0-24.594,11.011-24.594,24.594s11.011,24.594,24.594,24.594c4.028,0,7.824-0.975,11.179-2.69   C397.643,343.61,392.19,335.334,392.19,325.778z"/>
	<path style="fill:#6ABDD3;" d="M114.511,325.778c0-9.556,5.454-17.833,13.415-21.904c-3.356-1.716-7.152-2.69-11.179-2.69   c-13.583,0-24.594,11.011-24.594,24.594s11.011,24.594,24.594,24.594c4.027,0,7.823-0.975,11.179-2.69   C119.966,343.61,114.511,335.334,114.511,325.778z"/>
</g>
<circle style="fill:#80D6FF;" cx="49.863" cy="291.683" r="17.886"/>
<g>
	<path style="fill:#6ABDD3;" d="M461.311,291.68c0-6.617,3.603-12.38,8.943-15.474c-2.633-1.526-5.681-2.412-8.943-2.412   c-9.879,0-17.886,8.009-17.886,17.886c0,9.878,8.008,17.886,17.886,17.886c3.262,0,6.311-0.887,8.943-2.412   C464.914,304.059,461.311,298.296,461.311,291.68z"/>
	<path style="fill:#6ABDD3;" d="M49.863,291.68c0-6.617,3.603-12.38,8.943-15.474c-2.632-1.526-5.681-2.412-8.943-2.412   c-9.878,0-17.886,8.009-17.886,17.886c0,9.878,8.009,17.886,17.886,17.886c3.262,0,6.312-0.887,8.943-2.412   C53.465,304.059,49.863,298.296,49.863,291.68z"/>
</g>
<path style="fill:#76D1F4;" d="M271.5,164.094c8.279,6.148,16.127,16.808,23.35,30.176  C417.262,138.122,291.436,160.368,271.5,164.094z"/>
<path style="fill:#80D6FF;" d="M256,58.969c-8.93,0-16.168,7.238-16.168,16.168v89.465c5.232-4.05,10.637-6.326,16.169-6.326  c5.531,0,10.935,2.275,16.167,6.324v-27.362v-29.066V75.137C272.168,66.207,264.93,58.969,256,58.969z"/>
<path style="fill:#6ABDD3;" d="M256,75.137c0-5.982,3.255-11.191,8.084-13.988c-2.38-1.378-5.136-2.18-8.084-2.18  c-8.93,0-16.168,7.238-16.168,16.168v89.465c5.231-4.05,10.637-6.325,16.168-6.326V75.137z"/>
<path style="fill:#76D1F4;" d="M240.502,164.094c-19.932-3.725-145.769-25.975-23.351,30.177  C224.375,180.902,232.222,170.244,240.502,164.094z"/>
<path style="fill:#6ABDD3;" d="M213.853,159.708c-6.105,6.125-11.937,14.6-17.414,24.635c5.934,3,12.8,6.299,20.713,9.928  c7.223-13.369,15.07-24.028,23.351-30.177C235.865,163.228,225.495,161.359,213.853,159.708z"/>
<path style="fill:#F2F2F2;" d="M321.065,415.749c0.682-0.973,1.35-1.957,1.999-2.955c0.08-0.123,0.159-0.248,0.238-0.372  c0.67-1.037,1.324-2.086,1.955-3.148c0.031-0.051,0.06-0.104,0.091-0.155c0.634-1.069,1.249-2.15,1.842-3.241  c0.041-0.075,0.085-0.15,0.125-0.225c0.582-1.073,1.142-2.159,1.687-3.253c0.074-0.148,0.149-0.294,0.221-0.442  c0.521-1.06,1.023-2.13,1.508-3.206c0.08-0.181,0.163-0.361,0.244-0.541c0.474-1.068,0.929-2.143,1.366-3.226  c0.074-0.184,0.149-0.37,0.221-0.554c0.435-1.094,0.853-2.196,1.248-3.303c0.058-0.16,0.113-0.321,0.169-0.482  c0.402-1.144,0.789-2.294,1.149-3.451c0.028-0.093,0.055-0.184,0.083-0.277c0.366-1.183,0.711-2.37,1.031-3.564  c0.015-0.051,0.028-0.102,0.042-0.152c0.318-1.191,0.608-2.387,0.879-3.586c0.032-0.144,0.068-0.287,0.101-0.431  c0.255-1.154,0.486-2.312,0.7-3.472c0.034-0.184,0.069-0.37,0.102-0.556c0.203-1.143,0.382-2.288,0.541-3.435  c0.027-0.196,0.054-0.391,0.079-0.587c0.152-1.153,0.285-2.306,0.393-3.461c0.017-0.177,0.029-0.352,0.046-0.529  c0.104-1.183,0.188-2.365,0.244-3.549c0.007-0.122,0.009-0.244,0.015-0.366c0.051-1.184,0.08-2.367,0.084-3.548  c0,0.061,0.002,0.129,0.002,0.189v-0.372c0,0.042-0.002,0.086-0.003,0.129c-0.01-3.552-0.235-7.738-0.667-12.456  c-5.223-56.913-40.304-190.012-82.799-190.012c0,0,0,0-0.001,0h-0.001c-42.497,0-77.577,133.1-82.799,190.012  c-0.433,4.718-0.657,8.905-0.667,12.456c-0.001-0.042-0.003-0.086-0.003-0.129v0.372c0-0.061,0.002-0.129,0.002-0.189  c0.002,1.183,0.032,2.365,0.084,3.548c0.006,0.122,0.008,0.244,0.015,0.366c0.056,1.184,0.14,2.367,0.243,3.549  c0.018,0.177,0.03,0.353,0.047,0.529c0.108,1.155,0.241,2.308,0.394,3.461c0.026,0.196,0.053,0.391,0.079,0.587  c0.16,1.147,0.339,2.293,0.541,3.435c0.032,0.186,0.068,0.371,0.102,0.556c0.214,1.16,0.445,2.319,0.7,3.472  c0.032,0.144,0.068,0.287,0.101,0.431c0.271,1.2,0.561,2.396,0.879,3.586c0.015,0.05,0.028,0.101,0.042,0.152  c0.32,1.193,0.665,2.381,1.031,3.564c0.028,0.093,0.055,0.186,0.083,0.277c0.36,1.157,0.747,2.306,1.149,3.451  c0.057,0.16,0.112,0.322,0.169,0.482c0.396,1.108,0.813,2.208,1.246,3.301c0.074,0.187,0.149,0.372,0.222,0.558  c0.437,1.082,0.893,2.158,1.366,3.225c0.079,0.181,0.163,0.361,0.244,0.541c0.485,1.077,0.987,2.146,1.508,3.206  c0.073,0.148,0.148,0.294,0.221,0.442c0.543,1.094,1.104,2.179,1.687,3.253c0.04,0.075,0.084,0.15,0.124,0.225  c0.595,1.091,1.21,2.172,1.843,3.241c0.03,0.051,0.059,0.104,0.089,0.155c0.633,1.062,1.287,2.111,1.956,3.148  c0.079,0.124,0.158,0.249,0.238,0.372c0.648,0.997,1.317,1.981,1.999,2.955c0.106,0.152,0.211,0.303,0.319,0.454  c0.677,0.958,1.372,1.902,2.082,2.833c0.056,0.073,0.107,0.146,0.162,0.219l0.029,0.029c5.374,7.007,11.614,13.255,18.528,18.414  l0.037,0.037c0.094,0.07,0.191,0.135,0.285,0.206c0.688,0.508,1.378,1.007,2.078,1.494c0.111,0.076,0.222,0.149,0.333,0.225  c0.616,0.423,1.238,0.836,1.861,1.242c0.245,0.159,0.491,0.315,0.737,0.471c0.553,0.351,1.11,0.694,1.671,1.032  c0.201,0.121,0.4,0.245,0.603,0.363c0.729,0.43,1.467,0.847,2.208,1.254c0.219,0.12,0.442,0.235,0.662,0.353  c0.568,0.304,1.139,0.601,1.713,0.891c0.25,0.126,0.499,0.253,0.75,0.376c0.762,0.373,1.528,0.74,2.302,1.088  c0.089,0.04,0.181,0.077,0.272,0.117c0.709,0.316,1.422,0.619,2.141,0.912c0.255,0.104,0.511,0.206,0.767,0.307  c0.618,0.245,1.238,0.481,1.86,0.708c0.21,0.076,0.416,0.155,0.625,0.23c0.803,0.284,1.609,0.554,2.419,0.81  c0.217,0.068,0.437,0.132,0.654,0.198c0.635,0.193,1.274,0.379,1.914,0.556c0.256,0.07,0.511,0.141,0.768,0.208  c0.831,0.218,1.663,0.426,2.503,0.614c0.053,0.011,0.105,0.021,0.158,0.032c0.806,0.178,1.615,0.338,2.43,0.487  c0.256,0.047,0.511,0.092,0.768,0.135c0.679,0.116,1.36,0.222,2.045,0.32c0.206,0.029,0.41,0.061,0.616,0.088  c0.863,0.114,1.731,0.21,2.6,0.291c0.207,0.019,0.414,0.032,0.62,0.049c0.699,0.058,1.4,0.105,2.104,0.142  c0.254,0.013,0.506,0.026,0.761,0.037c0.889,0.036,1.782,0.06,2.678,0.06c0.001,0,0.003,0,0.006,0l0,0c0.002,0,0.002,0,0.002,0  c0.002,0,0.004,0,0.006,0c0.897,0,1.79-0.025,2.677-0.06c0.255-0.01,0.508-0.023,0.761-0.037c0.704-0.036,1.405-0.084,2.104-0.142  c0.207-0.017,0.414-0.03,0.62-0.049c0.87-0.08,1.737-0.177,2.6-0.291c0.206-0.027,0.41-0.059,0.616-0.088  c0.684-0.096,1.366-0.202,2.044-0.32c0.257-0.044,0.513-0.088,0.77-0.135c0.813-0.15,1.623-0.31,2.429-0.487  c0.053-0.011,0.105-0.021,0.158-0.032c0.84-0.188,1.672-0.396,2.503-0.614c0.256-0.067,0.512-0.137,0.767-0.208  c0.639-0.177,1.279-0.361,1.914-0.556c0.217-0.067,0.437-0.13,0.654-0.198c0.81-0.256,1.617-0.527,2.419-0.81  c0.209-0.074,0.415-0.154,0.625-0.23c0.623-0.228,1.242-0.464,1.86-0.708c0.256-0.102,0.512-0.203,0.767-0.307  c0.718-0.294,1.432-0.597,2.141-0.912c0.091-0.04,0.182-0.077,0.272-0.117c0.772-0.349,1.539-0.714,2.302-1.088  c0.252-0.123,0.5-0.249,0.749-0.376c0.575-0.29,1.146-0.587,1.714-0.891c0.22-0.118,0.443-0.234,0.662-0.353  c0.742-0.406,1.478-0.824,2.208-1.254c0.202-0.118,0.401-0.243,0.603-0.363c0.561-0.338,1.118-0.681,1.671-1.032  c0.246-0.155,0.492-0.312,0.737-0.471c0.625-0.406,1.245-0.819,1.861-1.242c0.111-0.076,0.222-0.149,0.333-0.225  c0.7-0.486,1.391-0.986,2.078-1.494c0.094-0.07,0.191-0.135,0.285-0.206l0.037-0.037c6.915-5.158,13.156-11.406,18.528-18.414  l0.029-0.029c0.055-0.072,0.106-0.146,0.162-0.219c0.71-0.931,1.404-1.875,2.082-2.833  C320.854,416.053,320.959,415.901,321.065,415.749z"/>
<path id="SVGCleanerId_0" style="fill:#E6E9ED;" d="M172.529,359.872c0-0.061,0.002-0.129,0.002-0.189  c0-0.061-0.002-0.122-0.002-0.183V359.872z"/>
<path style="fill:#E6E9ED;" d="M233.705,358.973c0.016,0.096,0.029,0.196,0.045,0.292l-0.067-0.42  C233.689,358.888,233.698,358.93,233.705,358.973c-5.917-37.647-0.406-142.611,22.424-201.808c-0.041,0-0.084-0.007-0.126-0.007  c-46.038,0-83.371,156.196-83.469,202.524c0.098,46.04,37.432,93.348,83.469,93.348c14.05,0,27.287-4.408,38.904-11.839  C263.785,426.012,239.311,393.673,233.705,358.973z"/>
<path style="fill:#5B5E5E;" d="M307.779,334.73c-0.66-0.541-1.529-0.752-2.363-0.573c-15.44,3.322-32.067,5.007-49.416,5.007  c-17.351,0-33.978-1.685-49.416-5.007c-0.834-0.179-1.704,0.031-2.363,0.573c-0.658,0.542-1.034,1.355-1.018,2.208  c0.399,22.954,24.085,41.627,52.799,41.627c28.712,0,52.398-18.673,52.797-41.626C308.813,336.085,308.438,335.272,307.779,334.73z"/>
<g>
	<path id="SVGCleanerId_0_1_" style="fill:#E6E9ED;" d="M172.529,359.872c0-0.061,0.002-0.129,0.002-0.189   c0-0.061-0.002-0.122-0.002-0.183V359.872z"/>
</g>
<path style="fill:#464949;" d="M233.705,358.973c0.016,0.096,0.029,0.196,0.045,0.292l-0.067-0.42  C233.689,358.888,233.698,358.93,233.705,358.973c-0.882-5.612-1.508-12.727-1.862-20.956c-8.7-0.834-17.146-2.115-25.258-3.861  c-0.834-0.179-1.704,0.031-2.363,0.573c-0.658,0.542-1.034,1.355-1.018,2.208c0.312,17.918,14.814,33.226,34.818,39.082  C236.101,370.447,234.637,364.743,233.705,358.973z"/>
<g>
</g>
<g>
</g>
<g>
</g>
<g>
</g>
<g>
</g>
<g>
</g>
<g>
</g>
<g>
</g>
<g>
</g>
<g>
</g>
<g>
</g>
<g>
</g>
<g>
</g>
<g>
</g>
<g>
</g>
</svg>
