<?xml version="1.0" encoding="iso-8859-1"?>
<!-- Generator: Adobe Illustrator 19.0.0, SVG Export Plug-In . SVG Version: 6.00 Build 0)  -->
<svg xmlns="http://www.w3.org/2000/svg" xmlns:xlink="http://www.w3.org/1999/xlink" version="1.1" id="Layer_1" x="0px" y="0px" viewBox="0 0 512 512" style="enable-background:new 0 0 512 512;" xml:space="preserve">
<path style="fill:#80D6FF;" d="M421.585,299.278l39.551-39.551c6.144-6.143,6.143-16.107-0.001-22.254  c-6.145-6.145-16.108-6.145-22.254,0l-28.276,28.276L421.585,299.278z"/>
<path style="fill:#6ABDD3;" d="M421.223,276.532l-0.011-0.036l28.276-28.276c4.235-4.236,10.283-5.551,15.647-3.947  c-0.711-2.49-2.039-4.841-3.999-6.801c-6.146-6.145-16.108-6.145-22.254,0l-28.276,28.276l5.278,16.121L421.223,276.532z"/>
<path style="fill:#80D6FF;" d="M451.235,389.838l42.328-42.328c6.145-6.144,6.145-16.108,0-22.254  c-6.144-6.145-16.109-6.145-22.254,0l-31.053,31.051L451.235,389.838z"/>
<path style="fill:#6ABDD3;" d="M453.468,364.372l-0.011-0.036l28.276-28.276c4.292-4.293,10.446-5.577,15.862-3.872  c-0.701-2.538-2.037-4.938-4.032-6.933c-6.144-6.145-16.109-6.145-22.254,0l-31.053,31.051l5.248,16.029L453.468,364.372z"/>
<g>
	<path style="fill:#80D6FF;" d="M212.722,90.416l39.551-39.551c6.145-6.144,16.107-6.142,22.251,0.001   c6.147,6.145,6.147,16.108,0,22.255l-28.272,28.275L212.722,90.416z"/>
	<path style="fill:#80D6FF;" d="M122.162,60.766l42.328-42.328c6.145-6.145,16.107-6.145,22.254,0   c6.145,6.145,6.144,16.108,0,22.254l-31.052,31.053L122.162,60.766z"/>
</g>
<g>
	<path style="fill:#6ABDD3;" d="M263.394,60.871c4.02-4.02,9.668-5.39,14.816-4.152c-0.758-2.136-1.974-4.145-3.684-5.854   c-6.144-6.143-16.106-6.145-22.251-0.001l-39.551,39.551l15.916,5.21L263.394,60.871z"/>
	<path style="fill:#6ABDD3;" d="M175.61,28.445c4.02-4.02,9.668-5.393,14.817-4.154c-0.758-2.135-1.974-4.144-3.684-5.853   c-6.145-6.145-16.107-6.145-22.254,0l-42.328,42.328l15.915,5.211L175.61,28.445z"/>
</g>
<path style="fill:#DCDEE2;" d="M152.24,284.614l-51.335,53.325c-11.192,11.19-15.947,22.045-15.318,32.882L0,313.994l55.921-55.921  L152.24,284.614z"/>
<path style="fill:#C8CACC;" d="M85.586,370.82c-0.628-10.838,4.125-21.692,15.318-32.882l51.335-53.325l-25.114-6.92l-47.346,49.126  c-10.179,10.178-15.041,20.078-15.366,29.942L85.586,370.82z"/>
<path style="fill:#F2F2F2;" d="M421.089,173.016L174.062,411.097c-19.067,19.066-37.153,19.518-55.86,6.336l52.246-52.246  c6.147-6.147,6.147-16.11,0-22.256c-6.144-6.145-16.109-6.145-22.255,0.001L95.728,395.4c-14.352-19.278-14.435-37.855,5.176-57.463  L404.695,22.733c23.352-23.352,70.348-32.483,93.702-9.129c23.354,23.353,14.222,70.35-9.13,93.701l-48.953,47.181"/>
<path style="fill:#E6E9ED;" d="M170.167,342.677L455.044,47.098c12.621-12.621,31.864-21.24,50.865-23.24  c-1.981-3.748-4.464-7.206-7.512-10.254c-23.354-23.354-70.35-14.223-93.702,9.129l-303.79,315.205  c-19.611,19.608-19.528,38.185-5.176,57.463l52.466-52.468C154.249,336.876,164.005,336.801,170.167,342.677z"/>
<g>
	<path style="fill:#DCDEE2;" d="M174.062,411.097l53.326-51.335l26.537,96.317l-55.921,55.921l-56.838-85.605   C152.01,427.027,162.867,422.294,174.062,411.097z"/>
	<path style="fill:#DCDEE2;" d="M390.862,202.043l74.432,227.346l2.327,2.326c4.363,4.831,12.405,16.419,1.478,27.346   l-46.412,46.411L278.738,309.985L390.862,202.043z"/>
	<path style="fill:#DCDEE2;" d="M80.287,44.379l2.326,2.327l227.345,74.435L202.014,233.263L6.529,89.313l46.412-46.411   C63.868,31.973,75.457,40.017,80.287,44.379z"/>
</g>
<polygon style="fill:#C8CACC;" points="202.016,233.263 309.958,121.141 285.672,113.19 183.258,219.451 "/>
<path style="fill:#80D6FF;" d="M81.7,409.961c-6.144,6.145-6.145,16.108,0,22.256l0,0c6.144,6.144,16.109,6.144,22.255,0  l66.762-66.763c6.147-6.145,6.147-16.11,0.001-22.256l0,0c-6.145-6.144-16.108-6.144-22.255,0.002L81.7,409.961z"/>
<path style="fill:#6ABDD3;" d="M94.434,419.164l66.762-66.761c3.482-3.482,8.19-4.988,12.735-4.524  c-0.762-1.695-1.821-3.289-3.213-4.68c-6.145-6.144-16.108-6.144-22.255,0.002L81.7,409.961c-6.144,6.145-6.145,16.108,0,22.256  c2.664,2.663,6.045,4.169,9.521,4.522C88.621,430.95,89.68,423.918,94.434,419.164z"/>
<polygon style="fill:#80D6FF;" points="202.016,233.263 6.529,89.313 36.392,59.449 234.474,199.547 "/>
<polygon style="fill:#6ABDD3;" points="202.016,233.263 234.474,199.547 215.427,186.074 183.258,219.451 "/>
<g>
	<polyline style="fill:#80D6FF;" points="403.813,406.698 312.454,277.526 278.738,309.985 422.687,505.47 452.551,475.608    419.763,429.25  "/>
	<path style="fill:#80D6FF;" d="M100.905,337.938c-11.192,11.19-15.947,22.045-15.318,32.882L0,313.994l30.813-30.811l76.885,47.698   L100.905,337.938z"/>
</g>
<path style="fill:#6ABDD3;" d="M85.586,370.82c-0.628-10.838,4.125-21.692,15.318-32.882l6.793-7.056l-19.923-12.36l-7.996,8.296  c-10.179,10.178-15.041,20.078-15.366,29.942L85.586,370.82z"/>
<path style="fill:#80D6FF;" d="M174.062,411.097c-11.19,11.19-22.045,15.947-32.881,15.316l56.823,85.586l30.814-30.812  l-47.698-76.885L174.062,411.097z"/>
<path style="fill:#5B5E5E;" d="M450.642,100.163c-2.134,0-4.269-0.814-5.898-2.443c-3.257-3.257-3.257-8.537,0-11.793  c3.156-3.154,2.258-7.251-2.663-12.173l-8.283-8.284c-4.922-4.921-9.016-5.816-12.173-2.662c-3.258,3.256-8.538,3.256-11.793-0.001  c-3.257-3.258-3.256-8.537,0.001-11.794c9.898-9.895,24.269-8.825,35.758,2.664l8.285,8.284  c11.489,11.491,12.559,25.862,2.663,35.759C454.909,99.348,452.775,100.163,450.642,100.163z"/>
<g>
</g>
<g>
</g>
<g>
</g>
<g>
</g>
<g>
</g>
<g>
</g>
<g>
</g>
<g>
</g>
<g>
</g>
<g>
</g>
<g>
</g>
<g>
</g>
<g>
</g>
<g>
</g>
<g>
</g>
</svg>
