<?xml version="1.0" encoding="iso-8859-1"?>
<!-- Generator: Adobe Illustrator 19.0.0, SVG Export Plug-In . SVG Version: 6.00 Build 0)  -->
<svg xmlns="http://www.w3.org/2000/svg" xmlns:xlink="http://www.w3.org/1999/xlink" version="1.1" id="Layer_1" x="0px" y="0px" viewBox="0 0 512 512" style="enable-background:new 0 0 512 512;" xml:space="preserve">
<path style="fill:#F2F2F2;" d="M298.336,431.768c-12.299,9.163-26.802,14.748-42.334,14.748l0,0  c-44.448,0-80.484-45.736-80.484-90.183v0.359c0-44.448,36.036-195.458,80.484-195.458l0,0c44.448,0,80.482,151.01,80.482,195.458  v-0.359c0,20.462-7.638,41.197-20.217,57.618"/>
<g>
	<path style="fill:#80D6FF;" d="M270.945,166.844c7.983,5.928,15.55,16.206,22.514,29.096   C411.491,141.801,290.168,163.251,270.945,166.844z"/>
	<path style="fill:#80D6FF;" d="M256,65.48c-8.61,0-15.59,6.979-15.59,15.59v86.263c5.045-3.905,10.257-6.1,15.592-6.1   c5.332,0,10.543,2.194,15.587,6.098v-26.383v-28.025V81.07C271.59,72.46,264.61,65.48,256,65.48z"/>
	<path style="fill:#80D6FF;" d="M241.057,166.844c-19.219-3.592-140.552-25.045-22.514,29.097   C225.507,183.05,233.073,172.773,241.057,166.844z"/>
</g>
<g>
	<path style="fill:#E6E9ED;" d="M179.129,322.199c2.591-15.58,6.505-33.654,11.493-51.945l-0.004-0.004L8.084,234.531   c0,0,0,17.964,44.564,35.719c27.588,10.991,126.478,51.95,126.478,51.95L179.129,322.199z"/>
	<path style="fill:#E6E9ED;" d="M417.12,251.515l-95.736,18.735l-0.002,0.003c4.987,18.291,8.901,36.366,11.492,51.946l0,0   c0,0,98.89-40.959,126.478-51.95c44.563-17.754,44.563-35.718,44.563-35.718l-59.549,11.653"/>
</g>
<g>
	<circle style="fill:#80D6FF;" cx="390.554" cy="323.82" r="23.714"/>
	<circle style="fill:#80D6FF;" cx="455.044" cy="290.944" r="17.246"/>
	<circle style="fill:#80D6FF;" cx="120.66" cy="323.82" r="23.714"/>
	<circle style="fill:#80D6FF;" cx="56.158" cy="290.944" r="17.246"/>
</g>
<path style="fill:#C8CACC;" d="M183.939,264.451l-22.338-4.372c-4.447,16.733-7.978,33.157-10.402,47.532  c12.729,5.261,21.25,8.79,21.25,8.79l0.001-0.001c2.591-15.58,6.505-33.654,11.493-51.945L183.939,264.451z"/>
<g>
	<path style="fill:#6ABDD3;" d="M393.58,324.261c0-9.214,5.258-17.195,12.935-21.12c-3.235-1.655-6.896-2.593-10.779-2.593   c-13.096,0-23.714,10.617-23.714,23.714s10.617,23.714,23.714,23.714c3.883,0,7.544-0.94,10.779-2.593   C398.838,341.456,393.58,333.475,393.58,324.261z"/>
	<path style="fill:#6ABDD3;" d="M125.84,324.261c0-9.214,5.259-17.195,12.935-21.12c-3.236-1.655-6.897-2.593-10.779-2.593   c-13.096,0-23.714,10.617-23.714,23.714s10.617,23.714,23.714,23.714c3.883,0,7.543-0.94,10.779-2.593   C131.099,341.456,125.84,333.475,125.84,324.261z"/>
	<path style="fill:#6ABDD3;" d="M207.412,161.129c-5.886,5.906-11.511,14.077-16.79,23.754c5.72,2.893,12.342,6.074,19.97,9.573   c6.964-12.891,14.532-23.168,22.516-29.097C228.635,164.523,218.637,162.721,207.412,161.129z"/>
</g>
<g>
	<path style="fill:#CED5DD;" d="M181.782,357.135c0-0.059,0.002-0.124,0.002-0.182c0-0.059-0.002-0.117-0.002-0.177V357.135z"/>
	<path style="fill:#CED5DD;" d="M240.766,356.27c0.015,0.093,0.028,0.189,0.043,0.281l-0.065-0.405   C240.752,356.187,240.76,356.227,240.766,356.27c-5.705-36.299-0.391-137.507,21.621-194.586c-0.04,0-0.081-0.006-0.122-0.006   c-44.39,0-80.387,150.606-80.482,195.276c0.095,44.393,36.092,90.007,80.482,90.007c13.547,0,26.31-4.25,37.512-11.415   C269.77,420.91,246.173,389.727,240.766,356.27z"/>
</g>
<path style="fill:#5B5E5E;" d="M256,339.42c-17.315,0-33.682-1.761-48.214-4.888c0.362,20.752,21.805,37.489,48.214,37.489  c26.413,0,47.852-16.738,48.214-37.489C289.682,337.659,273.315,339.42,256,339.42z"/>
<path style="fill:#E6E9ED;" d="M181.782,357.135c0-0.059,0.002-0.124,0.002-0.182c0-0.059-0.002-0.117-0.002-0.177V357.135z"/>
<path style="fill:#464949;" d="M244.322,370.893c-1.553-4.796-2.758-9.683-3.556-14.624c0.015,0.093,0.028,0.189,0.043,0.281  l-0.065-0.405c0.006,0.041,0.015,0.083,0.022,0.124c-0.749-4.771-1.307-10.671-1.663-17.436  c-11.078-0.752-21.613-2.214-31.318-4.303C208.093,352.117,223.541,366.818,244.322,370.893z"/>
<g>
	<path style="fill:#231F20;" d="M512,234.531c0-2.417-1.081-4.706-2.946-6.241c-1.866-1.536-4.32-2.158-6.69-1.692l-59.549,11.653   c-4.381,0.857-7.239,5.105-6.381,9.487c0.857,4.382,5.106,7.241,9.487,6.381l40.472-7.919c-5.793,4.804-15.1,10.594-30.03,16.542   c-13.887,5.533-46.13,18.778-74.674,30.546c-2.229,0.649-4.361,1.528-6.361,2.624c-14.619,6.031-27.766,11.466-36.252,14.976   c-1.736-9.191-3.82-18.71-6.157-28.257c-0.368-1.506-0.742-3.016-1.124-4.531c-0.133-0.524-0.255-1.047-0.389-1.57l87.271-17.078   c4.382-0.857,7.239-5.105,6.381-9.487c-0.858-4.381-5.101-7.239-9.487-6.381l-88.415,17.302c-2.038-7.1-4.234-14.196-6.578-21.166   c-5.174-15.384-10.521-28.716-16.028-40.022c15.112-7.14,26.247-13.095,33.874-18.117c7.846-5.166,15.628-11.544,13.85-19.687   c-2.256-10.333-16.527-10.333-22.621-10.333c-14.692,0-36.32,3.213-49.973,5.524V81.072c0-13.053-10.621-23.674-23.674-23.674   c-13.053,0-23.674,10.62-23.674,23.674v76.013c-13.656-2.31-35.287-5.523-49.973-5.523c-6.093,0-20.366,0-22.622,10.332   c-1.779,8.141,6.004,14.52,13.851,19.687c7.628,5.022,18.763,10.977,33.876,18.118c-5.507,11.306-10.854,24.637-16.028,40.021   c-2.344,6.97-4.54,14.067-6.578,21.167L9.636,226.597c-2.371-0.466-4.827,0.157-6.69,1.692C1.081,229.825,0,232.114,0,234.531   c0,3.579,2.007,20.996,38.431,38.343c-4.686,4.599-7.6,10.998-7.6,18.068c0,13.967,11.363,25.331,25.331,25.331   s25.331-11.363,25.331-25.331c0-0.084-0.005-0.166-0.006-0.249c6.243,2.557,12.881,5.283,19.638,8.06   c-7.458,5.824-12.268,14.891-12.268,25.066c0,17.533,14.264,31.798,31.798,31.798s31.798-14.265,31.798-31.798   c0-1.359-0.096-2.695-0.262-4.01c7.516,3.105,13.773,5.693,17.989,7.439c-1.753,11.681-2.701,21.676-2.745,28.924   c-0.001,0.054-0.001,0.108-0.001,0.162v0.359c0,0.052,0,0.103,0.001,0.155c0.135,23.513,9.419,47.725,25.52,66.507   c17.273,20.149,39.664,31.246,63.047,31.246c16.499,0,32.809-5.654,47.164-16.349c3.581-2.668,4.321-7.732,1.654-11.313   c-2.668-3.58-7.734-4.32-11.313-1.652c-11.544,8.601-24.512,13.146-37.505,13.146c-41.375,0-72.305-43.214-72.4-81.923   c0.018-7.836,1.214-19.259,3.437-32.705c0.019-0.094,0.047-0.183,0.064-0.278c2.689-16.171,6.603-33.857,11.317-51.145   c0.011-0.039,0.014-0.079,0.024-0.117c2.499-9.139,5.275-18.364,8.311-27.393c5.946-17.679,12.239-32.691,18.571-44.567   c0.111-0.174,0.231-0.338,0.331-0.522c6.745-12.486,13.451-21.302,19.937-26.228c3.208-2.438,6.273-3.839,9.132-4.163   c0.428-0.045,0.855-0.074,1.277-0.074c0.423,0,0.848,0.029,1.277,0.074c2.856,0.322,5.919,1.722,9.127,4.16   c6.486,4.924,13.193,13.741,19.941,26.229c0.101,0.186,0.222,0.354,0.335,0.529c6.329,11.874,12.623,26.885,18.567,44.56   c3.03,9.01,5.801,18.216,8.297,27.338c0.014,0.057,0.023,0.114,0.038,0.171c4.714,17.288,8.627,34.974,11.317,51.146   c0.017,0.101,0.046,0.198,0.067,0.299c2.222,13.437,3.416,24.851,3.434,32.683c-0.044,18.052-6.799,37.186-18.551,52.525   c-2.715,3.544-2.044,8.619,1.502,11.334c3.543,2.716,8.618,2.043,11.334-1.501c13.796-18.009,21.755-40.583,21.882-62.016   c0.001-0.053,0.001-0.106,0.001-0.16v-0.359c0-0.054,0-0.108-0.001-0.162c-0.044-7.248-0.993-17.243-2.745-28.925   c4.057-1.679,10.007-4.14,17.147-7.09c-0.139,1.203-0.218,2.423-0.218,3.663c0,17.533,14.264,31.798,31.798,31.798   c17.534,0,31.798-14.265,31.798-31.798c0-10.05-4.692-19.019-11.995-24.851c6.648-2.734,13.189-5.42,19.36-7.948   c0.043,13.931,11.388,25.252,25.328,25.252c13.967,0,25.331-11.363,25.331-25.331c0-6.938-2.806-13.232-7.34-17.812   C509.976,255.699,512,238.127,512,234.531z M120.655,339.448c-8.618,0-15.629-7.012-15.629-15.629s7.012-15.629,15.629-15.629   s15.629,7.012,15.629,15.629S129.273,339.448,120.655,339.448z M56.163,300.103c-5.052,0-9.162-4.11-9.162-9.162   s4.11-9.162,9.162-9.162s9.162,4.11,9.162,9.162S61.214,300.103,56.163,300.103z M172.93,310.887   c-25.298-10.465-94.968-39.255-117.289-48.147c-14.932-5.949-24.239-11.738-30.031-16.542l154.99,30.33   c-0.146,0.567-0.278,1.134-0.423,1.701c-0.37,1.464-0.731,2.922-1.085,4.375C176.754,292.16,174.667,301.688,172.93,310.887z    M330.096,167.728c-5.483,3.642-15.384,9.3-33.225,17.71c-3.003-5.009-6.049-9.455-9.139-13.302   c12.891-2.072,30.059-4.41,41.915-4.41C329.799,167.727,329.948,167.727,330.096,167.728z M248.495,81.07   c0-4.138,3.367-7.505,7.505-7.505c4.139,0,7.505,3.367,7.505,7.505v73.101c-0.024-0.006-0.046-0.011-0.07-0.016   c-0.53-0.141-1.062-0.269-1.594-0.38c-0.184-0.039-0.369-0.073-0.553-0.108c-0.442-0.083-0.884-0.164-1.328-0.225   c-0.304-0.043-0.608-0.073-0.912-0.107c-0.349-0.038-0.697-0.082-1.048-0.107c-0.546-0.04-1.094-0.056-1.641-0.064   c-0.12-0.001-0.238-0.014-0.358-0.014c-0.115,0-0.23,0.012-0.344,0.013c-0.552,0.006-1.103,0.025-1.655,0.065   c-0.354,0.025-0.706,0.07-1.06,0.108c-0.3,0.033-0.599,0.063-0.9,0.105c-0.447,0.063-0.893,0.143-1.339,0.227   c-0.181,0.034-0.361,0.068-0.542,0.106c-0.534,0.111-1.066,0.239-1.597,0.382c-0.024,0.006-0.047,0.011-0.071,0.017L248.495,81.07   L248.495,81.07z M181.903,167.728c0.148-0.001,0.298-0.001,0.449-0.001c11.855,0,29.027,2.338,41.918,4.41   c-3.09,3.847-6.136,8.293-9.139,13.302C197.289,177.03,187.388,171.372,181.903,167.728z M390.549,308.189   c8.618,0,15.629,7.012,15.629,15.629s-7.012,15.629-15.629,15.629s-15.629-7.012-15.629-15.629c0-5.685,3.061-10.656,7.612-13.392   c1.421-0.586,2.851-1.176,4.295-1.771C388.023,308.361,389.264,308.189,390.549,308.189z M455.042,300.103   c-5.052,0-9.162-4.11-9.162-9.162s4.11-9.162,9.162-9.162c5.052,0,9.162,4.11,9.162,9.162S460.094,300.103,455.042,300.103z"/>
	<path style="fill:#231F20;" d="M309.349,328.287c-1.906-1.567-4.427-2.18-6.835-1.659c-14.517,3.123-30.166,4.707-46.514,4.707   c-16.35,0-31.999-1.583-46.513-4.707c-2.411-0.518-4.93,0.092-6.836,1.659c-1.906,1.567-2.991,3.919-2.948,6.385   c0.219,12.536,6.418,24.172,17.455,32.765c10.493,8.169,24.288,12.667,38.842,12.667c14.555,0,28.35-4.499,38.842-12.667   c11.038-8.593,17.237-20.229,17.455-32.764C312.342,332.206,311.255,329.855,309.349,328.287z M256,363.937   c-16.969,0-31.622-8-37.449-19.208c11.978,1.844,24.523,2.776,37.449,2.776c12.926,0,25.472-0.931,37.449-2.776   C287.622,355.936,272.969,363.937,256,363.937z"/>
</g>
<g>
</g>
<g>
</g>
<g>
</g>
<g>
</g>
<g>
</g>
<g>
</g>
<g>
</g>
<g>
</g>
<g>
</g>
<g>
</g>
<g>
</g>
<g>
</g>
<g>
</g>
<g>
</g>
<g>
</g>
</svg>
