<?xml version="1.0" encoding="iso-8859-1"?>
<!-- Generator: Adobe Illustrator 19.0.0, SVG Export Plug-In . SVG Version: 6.00 Build 0)  -->
<svg xmlns="http://www.w3.org/2000/svg" xmlns:xlink="http://www.w3.org/1999/xlink" version="1.1" id="Layer_1" x="0px" y="0px" viewBox="0 0 512.001 512.001" style="enable-background:new 0 0 512.001 512.001;" xml:space="preserve">
<path style="fill:#E6E9ED;" d="M302.889,128.78V21.02c0-7.143-5.792-12.935-12.935-12.935h-67.907  c-7.143,0-12.935,5.792-12.935,12.935v107.76H302.889z"/>
<path style="fill:#C4C8CE;" d="M251.999,8.543h-22.277c-7.143,0-12.935,5.792-12.935,12.935v107.76h22.277V21.478  C239.064,14.335,244.855,8.543,251.999,8.543z"/>
<path style="fill:#5B5E5E;" d="M331.782,163.295v-21.581c0-7.143-5.792-12.935-12.935-12.935H193.156  c-7.145,0-12.935,5.792-12.935,12.935v21.581H331.782z"/>
<path style="fill:#424444;" d="M223.108,129.238h-22.277c-7.144,0-12.935,5.792-12.935,12.935v21.581h22.277v-21.581  C210.173,135.03,215.963,129.238,223.108,129.238z"/>
<path style="fill:#55CDEF;" d="M256.001,233.695c0,0,73.916,20.061,114.791,31.494v-88.958c0-7.143-5.792-12.935-12.935-12.935  H154.146c-7.145,0-12.935,5.792-12.935,12.935v88.958C182.085,253.755,256.001,233.695,256.001,233.695z"/>
<path style="fill:#3EBEDB;" d="M171.162,176.689c0-7.143,5.79-12.935,12.935-12.935H161.82c-7.144,0-12.935,5.792-12.935,12.935  v88.958c6.695-1.872,14.279-3.977,22.277-6.187L171.162,176.689L171.162,176.689z"/>
<path style="fill:#C4C8CE;" d="M394.356,271.781c-21.365-6.467-137.864-38.086-137.864-38.086l-0.49,0.355v-0.355  c0,0-116.499,31.619-137.863,38.086c-21.366,6.467-9.347,27.306-9.347,27.306l40.84,98.662c0,0,46.202,51.582,106.861-0.646  c0,0,52.916,49.924,106.371,0.646l40.84-98.662C403.703,299.087,415.721,278.248,394.356,271.781z"/>
<path style="fill:#E6E9ED;" d="M392.807,272.239c-21.366-6.467-137.865-38.086-137.865-38.086l-0.489,0.355v-0.355  c0,0-13.372,3.629-31.88,8.679c-2.45,11.461-3.751,23.348-3.751,35.541c0,57.567,28.747,108.411,72.663,138.986  c19.483,5.263,44.594,4.111,69.827-19.152l40.84-98.662C402.153,299.545,414.171,278.707,392.807,272.239z"/>
<path style="fill:#424444;" d="M256.001,233.695c0,0-116.499,31.619-137.863,38.086c-21.366,6.467-9.347,27.306-9.347,27.306  l4.691,11.329l142.519-39.224v-23.844V233.695z"/>
<path style="fill:#5B5E5E;" d="M222.515,281.457l47.131-12.966l-11.539-34.337c0,0-13.372,3.629-31.88,8.679  c-2.449,11.461-3.751,23.348-3.751,35.541C222.476,279.405,222.498,280.43,222.515,281.457z"/>
<path style="fill:#737575;" d="M256.001,233.695c0,0,116.499,31.619,137.863,38.086c21.366,6.467,9.348,27.306,9.348,27.306  l-4.691,11.329l-142.519-39.224v-23.844V233.695z"/>
<rect x="209.112" y="71.648" style="fill:#FF5357;" width="93.777" height="28.564"/>
<rect x="216.787" y="72.11" style="fill:#ED3A47;" width="22.277" height="28.564"/>
<g>
	<path style="fill:#231F20;" d="M339.866,195.251c0-4.465-3.618-8.084-8.084-8.084h-151.56c-4.466,0-8.084,3.62-8.084,8.084   c0,4.465,3.618,8.084,8.084,8.084h151.56C336.248,203.335,339.866,199.715,339.866,195.251z"/>
	<path style="fill:#231F20;" d="M13.802,417.545c12.036-12.037,31.623-12.037,43.659,0c0.004,0.004,0.009,0.006,0.012,0.011   c8.889,8.885,20.697,13.778,33.25,13.777c12.556,0,24.366-4.895,33.257-13.781c0.002-0.002,0.005-0.004,0.008-0.006   c12.036-12.037,31.623-12.037,43.659,0c0.004,0.004,0.009,0.008,0.012,0.011c8.889,8.885,20.697,13.778,33.25,13.777   c12.559,0,24.371-4.897,33.263-13.787c0,0,0-0.001,0.001-0.001l0,0c5.836-5.837,13.587-9.05,21.828-9.05s15.995,3.214,21.831,9.051   c0.004,0.004,0.009,0.006,0.012,0.011c8.889,8.885,20.697,13.778,33.25,13.777c12.556,0,24.366-4.895,33.257-13.781   c0.002-0.002,0.005-0.004,0.008-0.006c12.036-12.037,31.623-12.037,43.659,0c0.004,0.004,0.009,0.006,0.012,0.011   c8.888,8.884,20.696,13.778,33.25,13.777c12.559,0,24.371-4.897,33.263-13.787c0,0,0-0.001,0.001-0.001l0,0   c5.836-5.837,13.587-9.05,21.828-9.05s15.993,3.214,21.828,9.05c1.579,1.579,3.648,2.368,5.717,2.368   c2.069,0,4.138-0.789,5.716-2.367c3.158-3.157,3.158-8.276,0.001-11.432c-8.889-8.892-20.702-13.787-33.262-13.787   c-12.559,0-24.37,4.896-33.259,13.785l-0.001,0.001c-5.838,5.838-13.591,9.052-21.833,9.052c-8.238,0-15.988-3.213-21.823-9.048   c-0.001-0.001-0.002-0.003-0.004-0.004c-7.401-7.401-16.676-11.812-26.311-13.24l14.834-35.838   c1.707-4.125-0.252-8.854-4.378-10.561c-4.121-1.707-8.853,0.251-10.561,4.377l-17.705,42.773   c-8.217,1.936-16.011,6.093-22.405,12.488c-0.001,0.001-0.002,0.002-0.003,0.003c-5.837,5.836-13.589,9.049-21.827,9.049   c-8.238,0-15.988-3.213-21.824-9.048c-0.001-0.001-0.002-0.003-0.004-0.004c-6.951-6.951-15.694-11.447-25.18-13.083V281.802   l123.466,33.981l-4.648,11.229c-1.707,4.125,0.252,8.854,4.378,10.561c4.122,1.706,8.854-0.251,10.561-4.378l11.876-28.69   l0.79-1.909c1.112-2.075,4.36-8.823,4.147-16.535c-0.071-2.571-0.527-5.248-1.575-7.896c-1.849-4.672-6.277-10.914-16.874-14.122   c-3.546-1.074-9.636-2.819-17.329-4.984v-82.829c0-11.59-9.429-21.019-21.019-21.019h-17.991v-13.496   c0-11.59-9.429-21.019-21.019-21.019h-7.875v-20.48V71.653V21.02c0-11.59-9.429-21.019-21.019-21.019h-67.907   c-11.59,0-21.019,9.429-21.019,21.019v50.632v28.564v20.48h-7.872c-11.59,0-21.019,9.429-21.019,21.019v13.496h-17.991   c-11.59,0-21.019,9.429-21.019,21.019v82.829c-7.694,2.165-13.785,3.912-17.331,4.985c-10.598,3.208-15.026,9.45-16.874,14.122   c-1.048,2.647-1.504,5.325-1.575,7.896c-0.196,7.069,2.517,13.328,3.828,15.921c0.119,0.236,0.226,0.441,0.319,0.613l37.37,90.278   c-9.634,1.428-18.908,5.839-26.309,13.239c-0.001,0.001-0.002,0.002-0.003,0.003c-5.837,5.836-13.589,9.049-21.827,9.049   s-15.988-3.213-21.824-9.048c-0.001-0.001-0.002-0.003-0.004-0.004c-18.341-18.341-48.185-18.341-66.527,0   c-3.157,3.157-3.157,8.276,0,11.432C5.526,420.702,10.644,420.702,13.802,417.545z M179.084,406.116   c-0.001-0.001-0.002-0.003-0.004-0.004c-6.395-6.395-14.19-10.554-22.408-12.488l-32.221-77.841l123.466-33.98v111.226   c-9.482,1.636-18.222,6.13-25.172,13.079c-0.001,0.001-0.003,0.003-0.005,0.004c-5.838,5.838-13.591,9.052-21.832,9.052   C192.67,415.164,184.92,411.952,179.084,406.116z M397.673,283.368c0.142,0.232,0.263,0.47,0.362,0.716   c1.473,3.653-0.902,9.313-1.826,10.964c-0.176,0.305-0.332,0.621-0.467,0.946l-1.959,4.733l-129.699-35.696V244.27   c28.877,7.856,110.147,30.014,127.437,35.248C394.612,280.454,396.676,281.746,397.673,283.368z M217.197,79.736h77.608v12.396   h-77.608V79.736z M222.047,16.169h67.907c2.674,0,4.851,2.176,4.851,4.851v42.548h-77.608V21.02   C217.197,18.345,219.373,16.169,222.047,16.169z M217.197,108.3h77.608v12.396h-77.608V108.3z M188.307,141.715   c0-2.674,2.176-4.851,4.851-4.851h15.955h93.777h15.958c2.674,0,4.851,2.176,4.851,4.851v13.496H188.307V141.715z M149.296,176.23   c0-2.674,2.176-4.851,4.851-4.851h26.075h151.56h26.075c2.674,0,4.851,2.176,4.851,4.851v78.312   c-40.767-11.323-101.123-27.708-104.589-28.649c-0.089-0.025-0.181-0.036-0.272-0.057c-0.157-0.037-0.315-0.072-0.473-0.099   c-0.083-0.014-0.166-0.031-0.249-0.043c-0.078-0.011-0.156-0.015-0.234-0.024c-0.144-0.016-0.289-0.03-0.434-0.038   c-0.111-0.006-0.222-0.011-0.334-0.013c-0.041-0.001-0.081-0.009-0.122-0.009c-0.039,0-0.078,0.008-0.116,0.008   c-0.117,0.001-0.234,0.006-0.351,0.014c-0.139,0.009-0.277,0.022-0.415,0.037c-0.08,0.009-0.16,0.012-0.238,0.024   c-0.087,0.012-0.175,0.03-0.262,0.045c-0.151,0.026-0.3,0.059-0.448,0.094c-0.095,0.023-0.191,0.034-0.286,0.06   c-3.467,0.941-63.821,17.326-104.587,28.649L149.296,176.23L149.296,176.23z M113.968,284.083c0.099-0.245,0.22-0.483,0.362-0.716   c0.997-1.622,3.061-2.915,6.15-3.85c4.289-1.299,12.52-3.639,22.906-6.544c0.001,0,0.002,0,0.002,0   c1.105-0.309,2.236-0.625,3.389-0.946c0.07-0.019,0.14-0.039,0.211-0.059c0.407-0.113,0.819-0.229,1.232-0.344   c0.409-0.114,0.818-0.229,1.232-0.343c0.161-0.045,0.321-0.089,0.482-0.135c31.65-8.809,77.716-21.365,97.982-26.877v20.762   l-129.698,35.694l-1.959-4.733c-0.121-0.293-0.287-0.626-0.442-0.902C114.87,293.397,112.494,287.737,113.968,284.083z"/>
	<path style="fill:#231F20;" d="M476.372,472.994c-12.56,0-24.372,4.896-33.262,13.787l0,0c-5.838,5.837-13.591,9.051-21.831,9.051   c-8.238,0-15.988-3.213-21.823-9.048c-0.001-0.001-0.002-0.003-0.004-0.004c-18.341-18.341-48.185-18.341-66.527,0   c-0.001,0.001-0.002,0.003-0.004,0.004c-5.838,5.835-13.589,9.048-21.826,9.048c-8.238,0-15.988-3.213-21.824-9.048   c-0.001-0.001-0.002-0.003-0.004-0.004c-8.89-8.89-20.704-13.787-33.264-13.787c-12.559,0-24.37,4.896-33.258,13.784   c-0.001,0.001-0.001,0.001-0.002,0.002c-5.838,5.838-13.591,9.052-21.832,9.052c-8.238,0-15.988-3.213-21.824-9.048   c-0.001-0.001-0.002-0.003-0.004-0.004c-18.341-18.341-48.185-18.341-66.527,0c-0.001,0.001-0.002,0.003-0.004,0.004   c-5.839,5.836-13.59,9.049-21.828,9.049s-15.988-3.213-21.824-9.048c-0.001-0.001-0.002-0.003-0.004-0.004   c-18.341-18.341-48.185-18.341-66.527,0c-3.157,3.157-3.157,8.276,0,11.432c3.158,3.157,8.276,3.157,11.433,0   c12.036-12.037,31.623-12.037,43.659,0c0.003,0.003,0.008,0.006,0.011,0.01c8.889,8.885,20.698,13.779,33.251,13.778   c12.556,0,24.366-4.895,33.257-13.781c0.002-0.002,0.005-0.004,0.008-0.006c12.036-12.037,31.623-12.037,43.659,0   c0.003,0.003,0.008,0.006,0.011,0.01c8.889,8.885,20.698,13.779,33.252,13.778c12.559,0,24.371-4.897,33.263-13.787l0,0l0,0   c5.836-5.837,13.587-9.05,21.828-9.05s15.995,3.214,21.831,9.051c0.003,0.003,0.008,0.006,0.011,0.01   c8.889,8.885,20.698,13.779,33.251,13.778c12.556,0,24.366-4.895,33.257-13.781c0.002-0.002,0.005-0.004,0.008-0.006   c12.036-12.037,31.623-12.037,43.659,0c0.003,0.003,0.008,0.006,0.011,0.01c8.888,8.885,20.697,13.779,33.251,13.778   c12.559,0,24.371-4.897,33.263-13.787l0,0l0,0c5.836-5.837,13.587-9.05,21.828-9.05s15.993,3.214,21.828,9.05   c1.579,1.579,3.648,2.368,5.717,2.368c2.069,0,4.138-0.789,5.716-2.367c3.158-3.157,3.158-8.276,0.001-11.432   C500.744,477.89,488.932,472.994,476.372,472.994z"/>
	<path style="fill:#231F20;" d="M476.372,432.66c-12.56,0-24.372,4.896-33.262,13.787l0,0c-5.838,5.837-13.591,9.051-21.832,9.051   c-8.238,0-15.988-3.212-21.824-9.048c-0.001-0.001-0.002-0.002-0.003-0.004c-18.341-18.341-48.185-18.341-66.527,0   c-0.001,0.001-0.002,0.002-0.003,0.003c-12.037,12.031-31.618,12.031-43.653,0c-0.001-0.001-0.002-0.002-0.003-0.003   c-8.89-8.89-20.704-13.787-33.264-13.787c-12.557,0-24.369,4.895-33.257,13.783c-0.001,0.001-0.002,0.002-0.003,0.003   c-12.037,12.036-31.621,12.037-43.657,0.004c-0.001-0.001-0.002-0.002-0.003-0.003c-18.341-18.341-48.185-18.341-66.527,0   c-0.001,0.001-0.002,0.002-0.003,0.003c-12.038,12.031-31.619,12.031-43.653,0c-0.001-0.001-0.002-0.002-0.003-0.003   c-18.341-18.341-48.185-18.341-66.527,0c-3.157,3.157-3.157,8.276,0,11.432c3.158,3.157,8.276,3.157,11.433,0   c12.036-12.037,31.623-12.037,43.659,0c0.002,0.002,0.005,0.004,0.008,0.008c8.889,8.886,20.699,13.781,33.254,13.78   c12.556,0,24.367-4.895,33.258-13.782c0.002-0.002,0.004-0.003,0.005-0.005c12.036-12.037,31.623-12.037,43.659,0   c0.002,0.002,0.005,0.004,0.008,0.008c8.889,8.886,20.699,13.781,33.254,13.78c12.559,0,24.371-4.896,33.263-13.787l0,0   c0,0,0,0,0.001-0.001c5.836-5.837,13.587-9.05,21.828-9.05c8.242,0,15.995,3.214,21.831,9.051c0.002,0.002,0.005,0.004,0.008,0.008   c8.889,8.886,20.699,13.781,33.254,13.78c12.556,0,24.367-4.895,33.258-13.782c0.002-0.002,0.004-0.003,0.005-0.005   c12.036-12.037,31.623-12.037,43.659,0c0.002,0.002,0.005,0.004,0.009,0.008c8.888,8.886,20.698,13.781,33.254,13.78   c12.557,0,24.371-4.896,33.263-13.787l0,0c0,0,0,0,0.001-0.001c5.836-5.837,13.587-9.05,21.828-9.05s15.993,3.214,21.828,9.05   c1.579,1.579,3.648,2.368,5.717,2.368c2.068,0,4.138-0.789,5.716-2.367c3.158-3.157,3.158-8.276,0.001-11.432   C500.744,437.556,488.932,432.66,476.372,432.66z"/>
</g>
<g>
</g>
<g>
</g>
<g>
</g>
<g>
</g>
<g>
</g>
<g>
</g>
<g>
</g>
<g>
</g>
<g>
</g>
<g>
</g>
<g>
</g>
<g>
</g>
<g>
</g>
<g>
</g>
<g>
</g>
</svg>
