<?xml version="1.0" encoding="iso-8859-1"?>
<!-- Generator: Adobe Illustrator 19.0.0, SVG Export Plug-In . SVG Version: 6.00 Build 0)  -->
<svg xmlns="http://www.w3.org/2000/svg" xmlns:xlink="http://www.w3.org/1999/xlink" version="1.1" id="Layer_1" x="0px" y="0px" viewBox="0 0 511.999 511.999" style="enable-background:new 0 0 511.999 511.999;" xml:space="preserve">
<path style="fill:#E6E9ED;" d="M302.889,124.737V16.977c0-7.143-5.792-12.935-12.935-12.935h-67.907  c-7.143,0-12.935,5.792-12.935,12.935v107.76H302.889z"/>
<g>
	<path style="fill:#C4C8CE;" d="M244.323,4.042h-22.277c-7.143,0-12.935,5.792-12.935,12.935v107.76h22.277V16.977   C231.389,9.834,237.18,4.042,244.323,4.042z"/>
	<path style="fill:#C4C8CE;" d="M394.355,267.738c-21.366-6.467-137.865-38.086-137.865-38.086l-0.489,0.355v-0.355   c0,0-116.499,31.619-137.864,38.086c-21.365,6.467-9.346,27.306-9.346,27.306l40.84,98.662c0,0,46.202,51.581,106.86-0.646   c0,0,52.917,49.924,106.371,0.646l40.84-98.662C403.701,295.044,415.719,274.205,394.355,267.738z"/>
</g>
<path style="fill:#E6E9ED;" d="M394.355,267.738c-21.366-6.467-137.865-38.086-137.865-38.086l-0.489,0.355v-0.355  c0,0-13.372,3.629-31.88,8.679c-2.449,11.461-3.75,23.348-3.75,35.541c0,57.567,28.747,108.411,72.663,138.986  c19.483,5.263,44.594,4.111,69.827-19.152l40.84-98.662C403.701,295.044,415.719,274.205,394.355,267.738z"/>
<path style="fill:#55CDEF;" d="M256,229.652c0,0,73.915,20.061,114.79,31.494v-88.957c0-7.143-5.79-12.935-12.935-12.935H154.145  c-7.144,0-12.935,5.792-12.935,12.935v88.957C182.085,249.712,256,229.652,256,229.652z"/>
<path style="fill:#5B5E5E;" d="M331.78,159.252v-21.58c0-7.143-5.79-12.935-12.935-12.935h-125.69  c-7.144,0-12.935,5.792-12.935,12.935v21.58H331.78z"/>
<path style="fill:#424444;" d="M256,229.652c0,0-116.499,31.619-137.864,38.086c-21.365,6.467-9.346,27.306-9.346,27.306  l4.69,11.329l154.06-42.384l0,0L256,229.652z"/>
<path style="fill:#5B5E5E;" d="M220.409,276.956l47.131-12.966L256,229.652c0,0-13.372,3.629-31.88,8.679  c-2.449,11.461-3.75,23.348-3.75,35.541C220.371,274.903,220.391,275.929,220.409,276.956z"/>
<path style="fill:#737575;" d="M255.999,229.652c0,0,116.499,31.619,137.864,38.086c21.365,6.467,9.346,27.306,9.346,27.306  l-4.689,11.329l-142.521-39.223v-23.844L255.999,229.652L255.999,229.652z"/>
<rect x="209.112" y="67.609" style="fill:#FF5357;" width="93.777" height="28.564"/>
<rect x="209.112" y="67.609" style="fill:#ED3A47;" width="22.277" height="28.564"/>
<path style="fill:#33B3D1;" d="M331.78,199.292H180.221c-4.465,0-8.084-3.62-8.084-8.084s3.62-8.084,8.084-8.084H331.78  c4.466,0,8.084,3.62,8.084,8.084S336.246,199.292,331.78,199.292z"/>
<path style="fill:#3EBEDB;" d="M163.487,172.187c0-7.143,5.79-12.935,12.935-12.935h-22.277c-7.144,0-12.935,5.792-12.935,12.935  v88.957c6.695-1.872,14.279-3.977,22.277-6.187V172.187z"/>
<path style="fill:#424444;" d="M215.433,124.737h-22.277c-7.144,0-12.935,5.792-12.935,12.935v21.58h22.277v-21.58  C202.498,130.529,208.288,124.737,215.433,124.737z"/>
<path style="fill:#2BA7BC;" d="M194.414,191.208c0-4.465,3.62-8.084,8.084-8.084h-22.277c-4.465,0-8.084,3.62-8.084,8.084  s3.62,8.084,8.084,8.084h22.277C198.033,199.292,194.414,195.672,194.414,191.208z"/>
<g>
	<path style="fill:#55CDEF;" d="M90.723,427.289c-12.559,0-24.371-4.897-33.262-13.788c-3.157-3.157-3.157-8.276,0.001-11.432   c3.157-3.157,8.276-3.156,11.432,0.001c5.837,5.837,13.588,9.051,21.828,9.051c8.239,0,15.993-3.214,21.831-9.052   c3.158-3.156,8.277-3.156,11.433,0.001c3.157,3.157,3.157,8.276,0,11.433C115.095,422.392,103.282,427.289,90.723,427.289z"/>
	<path style="fill:#55CDEF;" d="M173.363,415.869c-2.068,0-4.138-0.789-5.717-2.367c-5.837-5.837-13.589-9.051-21.831-9.051   c-8.239,0-15.993,3.214-21.828,9.051c-3.157,3.157-8.276,3.157-11.433,0c-3.157-3.157-3.157-8.276,0-11.433   c8.89-8.89,20.703-13.787,33.262-13.787c12.559,0,24.372,4.897,33.264,13.786c3.157,3.157,3.157,8.276,0,11.433   C177.501,415.079,175.431,415.869,173.363,415.869z"/>
	<path style="fill:#55CDEF;" d="M200.908,427.289c-12.559,0-24.371-4.897-33.262-13.788c-3.157-3.157-3.157-8.276,0.001-11.432   c3.157-3.157,8.276-3.156,11.433,0.001c5.837,5.837,13.588,9.051,21.828,9.051s15.993-3.214,21.829-9.052   c3.157-3.157,8.277-3.157,11.432,0c3.158,3.157,3.158,8.276,0,11.432C225.279,422.392,213.467,427.289,200.908,427.289z"/>
	<path style="fill:#55CDEF;" d="M228.455,415.869c-2.07,0-4.138-0.789-5.717-2.367c-3.157-3.157-3.157-8.276,0-11.433   c8.89-8.89,20.703-13.787,33.262-13.787c12.56,0,24.372,4.897,33.263,13.787c3.158,3.157,3.158,8.276,0,11.432   c-3.156,3.157-8.276,3.157-11.431,0c-5.838-5.837-13.59-9.051-21.832-9.051c-8.24,0-15.994,3.214-21.828,9.051   C232.593,415.079,230.524,415.869,228.455,415.869z"/>
	<path style="fill:#55CDEF;" d="M311.094,427.289c-12.56,0-24.372-4.897-33.263-13.788c-3.157-3.157-3.157-8.276,0.001-11.432   c3.157-3.157,8.276-3.156,11.432,0.001c5.837,5.837,13.589,9.051,21.828,9.051c8.242,0,15.994-3.214,21.832-9.052   c3.156-3.157,8.276-3.157,11.431,0c3.158,3.157,3.158,8.276,0,11.432C335.465,422.392,323.652,427.289,311.094,427.289z"/>
	<path style="fill:#55CDEF;" d="M393.732,415.869c-2.07,0-4.138-0.789-5.716-2.368c-12.038-12.037-31.623-12.037-43.661,0   c-3.156,3.157-8.276,3.157-11.431,0c-3.158-3.157-3.158-8.276,0-11.432c18.341-18.341,48.183-18.341,66.524,0   c3.158,3.157,3.158,8.276,0,11.432C397.869,415.079,395.802,415.869,393.732,415.869z"/>
	<path style="fill:#55CDEF;" d="M421.277,427.289c-12.56,0-24.372-4.897-33.262-13.788c-3.157-3.157-3.157-8.276,0.001-11.432   c3.158-3.156,8.276-3.156,11.433,0.001c5.836,5.837,13.588,9.051,21.828,9.051c8.24,0,15.994-3.214,21.832-9.052   c3.156-3.157,8.276-3.157,11.431,0c3.158,3.157,3.158,8.276,0,11.432C445.65,422.392,433.837,427.289,421.277,427.289z"/>
	<path style="fill:#55CDEF;" d="M503.916,415.869c-2.07,0-4.138-0.789-5.717-2.368c-5.836-5.837-13.588-9.051-21.829-9.051   c-8.24,0-15.993,3.214-21.828,9.051c-3.157,3.157-8.276,3.157-11.432,0c-3.158-3.157-3.158-8.276-0.001-11.433   c8.89-8.89,20.703-13.787,33.262-13.787c12.56,0,24.372,4.897,33.263,13.787c3.157,3.157,3.157,8.276,0,11.433   C508.054,415.079,505.984,415.869,503.916,415.869z"/>
	<path style="fill:#55CDEF;" d="M63.178,415.869c-2.068,0-4.138-0.789-5.717-2.368c-12.037-12.037-31.622-12.037-43.659,0   c-3.158,3.157-8.276,3.157-11.434,0c-3.157-3.157-3.157-8.276,0-11.432c18.341-18.341,48.185-18.341,66.526,0   c3.157,3.157,3.157,8.276,0,11.432C67.316,415.079,65.247,415.869,63.178,415.869z"/>
	<path style="fill:#55CDEF;" d="M90.723,507.957c-12.559,0-24.371-4.897-33.262-13.788c-3.157-3.157-3.157-8.276,0.001-11.432   c3.157-3.157,8.276-3.156,11.432,0.001c5.837,5.838,13.588,9.051,21.828,9.051c8.239,0,15.993-3.214,21.831-9.052   c3.158-3.156,8.277-3.156,11.433,0c3.157,3.157,3.157,8.276,0,11.433C115.095,503.06,103.282,507.957,90.723,507.957z"/>
	<path style="fill:#55CDEF;" d="M173.363,496.538c-2.068,0-4.138-0.789-5.717-2.367c-5.837-5.837-13.589-9.052-21.831-9.052   c-8.239,0-15.993,3.214-21.828,9.051c-3.157,3.157-8.276,3.157-11.433,0.001c-3.157-3.157-3.157-8.276,0-11.433   c8.89-8.89,20.703-13.786,33.262-13.786c12.559,0,24.372,4.897,33.264,13.786c3.157,3.157,3.157,8.276,0,11.433   C177.501,495.748,175.431,496.538,173.363,496.538z"/>
	<path style="fill:#55CDEF;" d="M200.908,507.957c-12.559,0-24.371-4.897-33.262-13.788c-3.157-3.157-3.157-8.276,0.001-11.432   c3.157-3.157,8.276-3.156,11.433,0.001c5.837,5.838,13.588,9.051,21.828,9.051s15.993-3.214,21.829-9.052   c3.157-3.157,8.277-3.157,11.432,0c3.158,3.157,3.158,8.276,0,11.433C225.279,503.06,213.467,507.957,200.908,507.957z"/>
	<path style="fill:#55CDEF;" d="M228.455,496.538c-2.07,0-4.138-0.789-5.717-2.367c-3.157-3.157-3.157-8.276,0-11.433   c8.89-8.89,20.703-13.786,33.262-13.786c12.56,0,24.372,4.897,33.263,13.786c3.158,3.157,3.158,8.276,0,11.433   c-3.156,3.157-8.276,3.157-11.431,0c-5.838-5.837-13.59-9.051-21.832-9.051c-8.24,0-15.994,3.214-21.828,9.051   C232.593,495.748,230.524,496.538,228.455,496.538z"/>
	<path style="fill:#55CDEF;" d="M311.094,507.957c-12.56,0-24.372-4.897-33.263-13.788c-3.157-3.157-3.157-8.276,0.001-11.432   c3.157-3.157,8.276-3.156,11.432,0.001c5.837,5.838,13.589,9.051,21.828,9.051c8.242,0,15.994-3.214,21.832-9.052   c3.156-3.157,8.276-3.157,11.431,0c3.158,3.157,3.158,8.276,0,11.433C335.465,503.06,323.652,507.957,311.094,507.957z"/>
	<path style="fill:#55CDEF;" d="M393.732,496.538c-2.07,0-4.138-0.79-5.716-2.368c-12.038-12.037-31.623-12.037-43.661,0   c-3.156,3.157-8.276,3.157-11.431,0c-3.158-3.157-3.158-8.276,0-11.433c18.341-18.341,48.183-18.341,66.524,0   c3.158,3.157,3.158,8.276,0,11.433C397.869,495.748,395.802,496.538,393.732,496.538z"/>
	<path style="fill:#55CDEF;" d="M421.277,507.957c-12.56,0-24.372-4.897-33.262-13.788c-3.157-3.157-3.157-8.276,0.001-11.432   c3.158-3.156,8.276-3.156,11.433,0.001c5.836,5.838,13.588,9.051,21.828,9.051c8.24,0,15.994-3.214,21.832-9.052   c3.156-3.157,8.276-3.157,11.431,0c3.158,3.157,3.158,8.276,0,11.433C445.65,503.06,433.837,507.957,421.277,507.957z"/>
	<path style="fill:#55CDEF;" d="M503.916,496.538c-2.07,0-4.138-0.79-5.717-2.368c-5.836-5.837-13.588-9.051-21.829-9.051   c-8.24,0-15.993,3.214-21.828,9.051c-3.157,3.157-8.276,3.157-11.432,0.001c-3.158-3.157-3.158-8.276-0.001-11.433   c8.89-8.89,20.703-13.786,33.262-13.786c12.56,0,24.372,4.897,33.263,13.786c3.157,3.157,3.157,8.276,0,11.433   C508.054,495.748,505.984,496.538,503.916,496.538z"/>
	<path style="fill:#55CDEF;" d="M63.178,496.538c-2.068,0-4.138-0.79-5.717-2.368c-12.037-12.037-31.622-12.037-43.659,0   c-3.158,3.157-8.276,3.157-11.434,0c-3.157-3.157-3.157-8.276,0-11.433c18.341-18.341,48.185-18.341,66.526,0   c3.157,3.157,3.157,8.276,0,11.433C67.316,495.748,65.247,496.538,63.178,496.538z"/>
	<path style="fill:#55CDEF;" d="M90.724,467.623c-12.56,0-24.372-4.897-33.263-13.788c-3.157-3.157-3.157-8.276,0.001-11.433   c3.157-3.157,8.276-3.157,11.432,0.001c12.035,12.037,31.621,12.037,43.66,0c3.157-3.157,8.276-3.157,11.432,0.001   c3.157,3.157,3.157,8.276-0.001,11.432C115.095,462.727,103.282,467.623,90.724,467.623z"/>
	<path style="fill:#55CDEF;" d="M173.363,456.204c-2.068,0-4.138-0.789-5.717-2.367c-5.837-5.837-13.589-9.051-21.831-9.051   c-8.239,0-15.993,3.214-21.828,9.051c-3.157,3.157-8.276,3.157-11.433,0.001c-3.157-3.157-3.157-8.276,0-11.433   c8.89-8.89,20.703-13.786,33.262-13.786c12.559,0,24.372,4.896,33.264,13.786c3.157,3.157,3.157,8.276,0,11.433   C177.501,455.414,175.431,456.204,173.363,456.204z"/>
	<path style="fill:#55CDEF;" d="M200.908,467.623c-12.559,0-24.371-4.897-33.262-13.788c-3.157-3.157-3.157-8.276,0.001-11.433   c3.157-3.157,8.276-3.157,11.433,0.001c5.836,5.837,13.588,9.051,21.828,9.051s15.993-3.214,21.829-9.052   c3.158-3.156,8.277-3.156,11.433,0.001c3.157,3.157,3.157,8.276-0.001,11.433C225.279,462.727,213.467,467.623,200.908,467.623z"/>
	<path style="fill:#55CDEF;" d="M228.455,456.204c-2.07,0-4.138-0.789-5.717-2.367c-3.157-3.157-3.157-8.276,0-11.433   c8.89-8.89,20.703-13.786,33.262-13.786c12.56,0,24.372,4.896,33.263,13.786c3.158,3.157,3.158,8.276,0,11.432   c-3.156,3.157-8.276,3.157-11.431,0c-5.838-5.837-13.59-9.051-21.832-9.051c-8.24,0-15.994,3.214-21.828,9.051   C232.593,455.414,230.524,456.204,228.455,456.204z"/>
	<path style="fill:#55CDEF;" d="M311.094,467.623c-12.56,0-24.372-4.897-33.263-13.788c-3.157-3.157-3.157-8.276,0.001-11.433   c3.157-3.157,8.276-3.157,11.432,0.001c5.837,5.837,13.589,9.051,21.828,9.051c8.242,0,15.994-3.214,21.832-9.052   c3.157-3.156,8.276-3.156,11.433,0.001c3.157,3.157,3.157,8.276-0.001,11.433C335.465,462.727,323.652,467.623,311.094,467.623z"/>
	<path style="fill:#55CDEF;" d="M393.732,456.204c-2.07,0-4.138-0.789-5.716-2.368c-12.038-12.037-31.623-12.037-43.661,0   c-3.156,3.157-8.276,3.157-11.431,0c-3.158-3.157-3.158-8.276,0-11.432c18.341-18.341,48.183-18.341,66.524,0   c3.158,3.157,3.158,8.276,0,11.432C397.869,455.414,395.802,456.204,393.732,456.204z"/>
	<path style="fill:#55CDEF;" d="M421.277,467.623c-12.56,0-24.372-4.897-33.262-13.788c-3.157-3.157-3.157-8.276,0.001-11.433   c3.158-3.157,8.276-3.156,11.433,0.001c5.836,5.837,13.588,9.051,21.828,9.051c8.24,0,15.994-3.214,21.832-9.052   c3.157-3.156,8.276-3.156,11.432,0.001c3.157,3.157,3.157,8.276-0.001,11.433C445.65,462.727,433.836,467.623,421.277,467.623z"/>
	<path style="fill:#55CDEF;" d="M503.916,456.204c-2.07,0-4.138-0.789-5.717-2.368c-5.836-5.837-13.588-9.051-21.829-9.051   c-8.24,0-15.993,3.214-21.828,9.051c-3.157,3.157-8.276,3.157-11.432,0.001c-3.158-3.157-3.158-8.276-0.001-11.433   c8.89-8.89,20.703-13.786,33.262-13.786c12.56,0,24.372,4.896,33.263,13.786c3.157,3.157,3.157,8.276,0,11.433   C508.054,455.414,505.984,456.204,503.916,456.204z"/>
	<path style="fill:#55CDEF;" d="M63.178,456.204c-2.068,0-4.138-0.789-5.717-2.368c-12.037-12.037-31.622-12.037-43.659,0   c-3.158,3.157-8.276,3.157-11.434,0c-3.157-3.157-3.157-8.276,0-11.432c18.341-18.341,48.185-18.341,66.526,0   c3.157,3.157,3.157,8.276,0,11.432C67.316,455.414,65.247,456.204,63.178,456.204z"/>
</g>
<g>
</g>
<g>
</g>
<g>
</g>
<g>
</g>
<g>
</g>
<g>
</g>
<g>
</g>
<g>
</g>
<g>
</g>
<g>
</g>
<g>
</g>
<g>
</g>
<g>
</g>
<g>
</g>
<g>
</g>
</svg>
