<?xml version="1.0" encoding="iso-8859-1"?>
<!-- Generator: Adobe Illustrator 19.0.0, SVG Export Plug-In . SVG Version: 6.00 Build 0)  -->
<svg xmlns="http://www.w3.org/2000/svg" xmlns:xlink="http://www.w3.org/1999/xlink" version="1.1" id="Layer_1" x="0px" y="0px" viewBox="0 0 512 512" style="enable-background:new 0 0 512 512;" xml:space="preserve">
<path style="fill:#6ABDD3;" d="M203.287,36.864h-34.389h-19.959c7.947,0,14.389-6.441,14.389-14.387  c0-7.947-6.443-14.392-14.389-14.392H64.697c-7.946,0-14.39,6.444-14.39,14.392c0,7.944,6.444,14.387,14.39,14.387H22.474  c-7.946,0-14.389,6.444-14.389,14.391c0,7.945,6.443,14.388,14.389,14.388h58.872c-5.484,2.031-9.401,7.293-9.401,13.484  c0,7.945,6.443,14.388,14.389,14.388h84.243c7.946,0,14.389-6.443,14.389-14.388c0-6.191-3.917-11.454-9.401-13.484h27.724  c7.947,0,14.389-6.443,14.389-14.388C217.675,43.308,211.233,36.864,203.287,36.864z"/>
<path style="fill:#97D3EE;" d="M205.817,36.864h-34.389h-19.959c7.946,0,14.389-6.441,14.389-14.387  c0-7.947-6.443-14.392-14.389-14.392h-37.006c-0.729,5.35-1.113,10.807-1.113,16.357c0,25.713,8.088,49.536,21.852,69.07h37.903  c7.947,0,14.389-6.443,14.389-14.388c0-6.191-3.917-11.454-9.401-13.484h27.724c7.946,0,14.389-6.443,14.389-14.388  C220.206,43.308,213.764,36.864,205.817,36.864z"/>
<path style="fill:#E6E9ED;" d="M455.214,315.367H405.47h-27.667H66.767c-4.937,0.219-16.648,2.238-9.606,17.005l41.227,86.048  l55.008-0.543l-42.383-0.338c0,0,32.828-38.724,70.329,0.063l41.622-0.411c14.324-10.741,33.153-21.911,70.67-0.698l48.351-0.478  c1.24-12.864,8.385-22.843,54.627-0.54l10.173-0.1l54.515-75.945C475.926,319.683,463.153,315.947,455.214,315.367z"/>
<path style="fill:#5B5E5E;" d="M440.68,315.367v-16.639c0-7.144-5.791-12.935-12.935-12.935H217.915  c-2.974,0-5.705,1.013-7.89,2.701l-0.004-0.01l-43.844,26.882"/>
<path style="fill:#5BC5EF;" d="M140.084,315.367V262.08H92.161c-7.143,0-12.935,5.79-12.935,12.935v40.353H140.084z"/>
<path style="fill:#97D3EE;" d="M338.762,239.809c0,0,0,0,0-0.001c-7.665-6.302-16.508-7.11-19.528-7.192H158.69  c-7.777,0.961-18.823,5.472-18.823,23.384v59.366h26.309l43.844-26.882l0.004,0.01c2.184-1.687,4.916-2.701,7.89-2.701h176.774  L338.762,239.809z"/>
<g>
	<path style="fill:#C4C8CE;" d="M187.876,173.147v-9.78c0-2.139,1.734-3.874,3.874-3.874h-14.272c-2.14,0-3.874,1.734-3.874,3.874   v9.78v49.223v9.78h14.272v-9.78V173.147z"/>
	<path style="fill:#C4C8CE;" d="M243.503,173.147v-9.78c0-2.139,1.735-3.874,3.875-3.874h-14.273c-2.14,0-3.874,1.734-3.874,3.874   v9.78v49.223v9.78h14.272v-9.78V173.147z"/>
</g>
<g>
	<path style="fill:#ED3A47;" d="M243.503,173.147v-9.78c0-2.139,1.735-3.874,3.875-3.874h-14.273c-2.14,0-3.874,1.734-3.874,3.874   v9.78v13.474h14.272V173.147z"/>
	<path style="fill:#ED3A47;" d="M187.876,173.147v-9.78c0-2.139,1.734-3.874,3.874-3.874h-14.272c-2.14,0-3.874,1.734-3.874,3.874   v9.78v13.474h14.272V173.147z"/>
</g>
<path style="fill:#3EBEDB;" d="M121.147,262.691H99.589c-7.143,0-12.935,5.79-12.935,12.935v40.353h21.558v-40.353  C108.212,268.482,114.003,262.691,121.147,262.691z"/>
<path style="fill:#424444;" d="M257.572,288.028c2.185-1.687,4.916-2.701,7.89-2.701h-34.731c-2.974,0-5.705,1.013-7.89,2.701  l-0.004-0.01l-43.844,26.882h34.731l43.844-26.882L257.572,288.028z"/>
<path style="fill:#6ABDD3;" d="M188.753,232.15h-21.558c-7.777,0.961-18.823,5.472-18.823,23.384v59.366h21.558v-59.366  C169.93,237.623,180.976,233.111,188.753,232.15z"/>
<path style="fill:#B5E6F7;" d="M238.097,259.277c0-4.465,3.62-8.084,8.084-8.084h-21.558c-4.465,0-8.084,3.62-8.084,8.084  c0,4.465,3.62,8.084,8.084,8.084h21.558C241.717,267.361,238.097,263.743,238.097,259.277z"/>
<path style="fill:#C4C8CE;" d="M131.862,417.178l-13.422-0.108c0,0,3.46-4.078,9.412-8.262l-36.846-76.903  c-7.043-14.767,4.668-16.786,9.606-17.005H74.195c-4.938,0.219-16.649,2.238-9.606,17.005l41.227,86.048l26.294-0.26  L131.862,417.178z"/>
<g>
	<path style="fill:#E6E9ED;" d="M246.473,159.96h-20.797c-2.14,0-3.874,1.734-3.874,3.874v9.78v49.223v9.78h28.546v-9.78v-49.223   v-9.78C250.348,161.696,248.614,159.96,246.473,159.96z"/>
	<path style="fill:#E6E9ED;" d="M190.847,159.96H170.05c-2.14,0-3.874,1.734-3.874,3.874v9.78v49.223v9.78h28.546v-9.78v-49.223   v-9.78C194.722,161.696,192.986,159.96,190.847,159.96z"/>
</g>
<g>
	<path style="fill:#FF5357;" d="M166.176,163.834v9.78v13.474h28.546v-13.474v-9.78c0-2.139-1.734-3.874-3.875-3.874H170.05   C167.91,159.96,166.176,161.696,166.176,163.834z"/>
	<path style="fill:#FF5357;" d="M221.803,163.834v9.78v13.474h28.546v-13.474v-9.78c0-2.139-1.734-3.874-3.875-3.874h-20.797   C223.537,159.96,221.803,161.696,221.803,163.834z"/>
</g>
<path style="fill:#97D3EE;" d="M239.795,122.311c0-7.948-6.443-14.392-14.389-14.392h-27.733c-7.946,0-14.389,6.444-14.389,14.392  c0,7.945,6.443,14.387,14.389,14.387h27.733C233.351,136.696,239.795,130.256,239.795,122.311z"/>
<g>
	<path style="fill:#231F20;" d="M134.737,368.667h6.992c4.465,0,8.084-3.62,8.084-8.084c0-4.465-3.62-8.084-8.084-8.084h-6.992   c-4.465,0-8.084,3.62-8.084,8.084C126.653,365.047,130.272,368.667,134.737,368.667z"/>
	<path style="fill:#231F20;" d="M192.543,368.667h6.991c4.465,0,8.084-3.62,8.084-8.084c0-4.465-3.62-8.084-8.084-8.084h-6.991   c-4.465,0-8.084,3.62-8.084,8.084C184.459,365.047,188.079,368.667,192.543,368.667z"/>
	<path style="fill:#231F20;" d="M250.348,368.667h6.991c4.465,0,8.084-3.62,8.084-8.084c0-4.465-3.618-8.084-8.084-8.084h-6.991   c-4.465,0-8.084,3.62-8.084,8.084C242.264,365.047,245.884,368.667,250.348,368.667z"/>
	<path style="fill:#231F20;" d="M308.153,368.667h6.991c4.466,0,8.084-3.62,8.084-8.084c0-4.465-3.618-8.084-8.084-8.084h-6.991   c-4.466,0-8.084,3.62-8.084,8.084C300.069,365.047,303.689,368.667,308.153,368.667z"/>
	<path style="fill:#231F20;" d="M365.96,368.667h6.991c4.466,0,8.084-3.62,8.084-8.084c0-4.465-3.618-8.084-8.084-8.084h-6.991   c-4.466,0-8.084,3.62-8.084,8.084C357.875,365.047,361.495,368.667,365.96,368.667z"/>
	<path style="fill:#231F20;" d="M197.673,99.834c-12.391,0-22.473,10.083-22.473,22.476c0,12.39,10.082,22.471,22.473,22.471h27.733   c12.391,0,22.473-10.08,22.473-22.471c0-12.394-10.081-22.476-22.473-22.476C225.406,99.834,197.673,99.834,197.673,99.834z    M231.711,122.311c0,3.475-2.828,6.302-6.305,6.302h-27.733c-3.476,0-6.305-2.827-6.305-6.302c0-3.478,2.828-6.308,6.305-6.308   h27.733C228.881,116.003,231.711,118.832,231.711,122.311z"/>
	<path style="fill:#231F20;" d="M22.474,73.726h42.053c-0.437,1.743-0.666,3.555-0.666,5.4c0,12.391,10.082,22.472,22.473,22.472   h84.243c12.391,0,22.473-10.08,22.473-22.472c0-1.845-0.23-3.657-0.666-5.4h10.905c12.391,0,22.473-10.08,22.473-22.472   c0-12.393-10.081-22.475-22.473-22.475h-32.774c0.585-2.001,0.899-4.115,0.899-6.302C171.412,10.083,161.331,0,148.939,0H64.697   C52.305,0,42.223,10.083,42.223,22.476c0,2.187,0.314,4.302,0.899,6.302H22.474c-12.391,0-22.473,10.083-22.473,22.475   C0.001,63.645,10.082,73.726,22.474,73.726z M22.474,44.948h42.223c4.465,0,8.084-3.62,8.084-8.084s-3.62-8.084-8.084-8.084   c-3.476,0-6.306-2.827-6.306-6.302c0-3.478,2.828-6.308,6.306-6.308h84.243c3.476,0,6.305,2.829,6.305,6.308   c0,3.475-2.828,6.302-6.305,6.302c-4.465,0-8.084,3.62-8.084,8.084c0,4.465,3.62,8.084,8.084,8.084h54.347   c3.476,0,6.305,2.829,6.305,6.307c0,3.476-2.828,6.304-6.305,6.304h-27.724c-3.915,0-7.267,2.806-7.957,6.658   c-0.691,3.853,1.48,7.648,5.15,9.007c2.467,0.913,4.124,3.285,4.124,5.903c0,3.476-2.828,6.304-6.305,6.304H86.332   c-3.476,0-6.305-2.827-6.305-6.304c0-2.617,1.658-4.99,4.124-5.904c3.671-1.359,5.841-5.153,5.15-9.007s-4.043-6.658-7.957-6.658   H22.474c-3.476,0-6.305-2.827-6.305-6.304C16.169,47.778,18.998,44.948,22.474,44.948z"/>
	<path style="fill:#231F20;" d="M13.8,417.545c12.038-12.036,31.623-12.037,43.66,0c0,0,0,0,0.001,0   c8.89,8.892,20.702,13.788,33.262,13.787c12.558,0,24.371-4.897,33.263-13.788c5.837-5.837,13.589-9.051,21.829-9.051   c8.239,0,15.99,3.213,21.827,9.049c0.001,0.001,0.001,0.002,0.002,0.002c8.89,8.892,20.704,13.788,33.264,13.788   c12.554,0,24.362-4.894,33.252-13.779c0.003-0.003,0.006-0.005,0.011-0.01c5.836-5.837,13.588-9.051,21.829-9.051   c8.24,0,15.994,3.214,21.829,9.051c0.004,0.004,0.009,0.006,0.012,0.011c8.889,8.885,20.697,13.778,33.25,13.777   c12.555,0,24.365-4.895,33.255-13.78c0.003-0.002,0.005-0.005,0.009-0.008c12.036-12.037,31.623-12.037,43.659,0   c0.004,0.004,0.009,0.006,0.012,0.011c8.889,8.885,20.697,13.778,33.25,13.777c12.554,0,24.362-4.894,33.253-13.778   c0.003-0.003,0.008-0.006,0.011-0.01c12.036-12.037,31.623-12.037,43.659,0c1.579,1.578,3.649,2.368,5.717,2.368   c2.068,0,4.138-0.789,5.717-2.368c3.157-3.157,3.157-8.276,0-11.432c-18.341-18.341-48.185-18.341-66.526,0   c-0.001,0.001-0.002,0.002-0.003,0.004c-5.838,5.835-13.589,9.048-21.827,9.048c-1.412,0-2.807-0.101-4.182-0.287l50.741-70.685   c2.93-3.956,11.646-15.792,6.81-26.329c-1.989-4.334-6.872-9.684-18.839-10.558c-0.197-0.014-0.392-0.022-0.59-0.022h-6.45v-8.555   c0-11.589-9.429-21.019-21.019-21.019h-30.159l-53.69-44.146c-9.496-7.807-20.257-8.914-24.442-9.027   c-0.073-0.002-0.147-0.003-0.22-0.003h-60.801v-60.699c0-6.182-4.716-11.282-10.739-11.896c-0.401-0.041-0.808-0.061-1.221-0.061   h-20.797c-6.593,0-11.958,5.365-11.958,11.958v23.253v37.445h-10.914v-37.445v-23.253c0-6.593-5.365-11.958-11.959-11.958h-20.797   c-6.593,0-11.958,5.365-11.958,11.958v23.253v37.481c-0.13,0.01-0.262,0.009-0.392,0.024c-15.6,1.927-25.131,12.869-25.847,29.402   h-39.69c-11.589,0-21.019,9.429-21.019,21.019v32.269h-4.375c-0.12,0-0.239,0.002-0.358,0.008   c-8.009,0.356-14.151,3.436-17.296,8.674c-3.229,5.379-2.977,12.069,0.758,19.9l37.926,79.158   c-7.137-0.668-13.762-3.772-18.903-8.912c0,0,0,0-0.001-0.001c-18.341-18.341-48.185-18.341-66.525,0   c-3.157,3.157-3.157,8.276,0,11.432C5.525,420.701,10.644,420.701,13.8,417.545z M229.887,168.044h12.377v10.959h-12.377V168.044z    M229.887,195.172h12.377v29.361h-12.377V195.172z M174.26,195.172h12.377v29.361H174.26V195.172z M174.26,168.044h12.377v10.959   H174.26V168.044z M159.226,240.702h6.95h28.546h27.082h28.546h68.764c2.087,0.069,8.821,0.672,14.515,5.353l6.819,5.606H217.196   c-4.465,0-8.084,3.62-8.084,8.084c0,4.465,3.62,8.084,8.084,8.084H360.11l12.017,9.881H217.915c-0.559,0-1.116,0.022-1.667,0.065   c-3.862,0.302-7.514,1.652-10.676,3.956l-41.677,25.552h-15.725V262.08c0-0.633-0.08-1.245-0.218-1.836V256   C147.951,246.562,151.433,241.824,159.226,240.702z M87.311,275.015c0-2.674,2.176-4.85,4.851-4.85h39.621v37.119H87.311V275.015z    M63.051,324.312c0.526-0.299,1.845-0.749,3.912-0.86h12.263h60.64h0.218h26.085c0.005,0,0.01,0.001,0.015,0.001   c0.004,0,0.009-0.001,0.014-0.001h211.605c4.466,0,8.084-3.62,8.084-8.084c0-4.465-3.618-8.084-8.084-8.084H194.827l19.069-11.692   c0.372-0.203,0.731-0.437,1.071-0.7c0.599-0.462,1.596-1.014,2.947-1.014h176.774h33.057c2.674,0,4.851,2.176,4.851,4.85v8.555   H405.47c-4.466,0-8.084,3.62-8.084,8.084c0,4.465,3.618,8.084,8.084,8.084h49.43c2.904,0.244,4.445,0.882,4.997,1.231   c-0.04,0.804-0.537,3.784-5.092,9.934c-0.025,0.032-0.049,0.065-0.071,0.097L401.9,408.315c-0.847-0.687-1.666-1.417-2.449-2.2   c-0.001-0.001-0.002-0.003-0.004-0.004c-18.341-18.341-48.185-18.341-66.526,0c-0.001,0.001-0.002,0.002-0.003,0.003   c-5.837,5.836-13.589,9.049-21.827,9.049s-15.988-3.213-21.824-9.048c-0.001-0.001-0.002-0.003-0.004-0.004   c-8.89-8.89-20.704-13.787-33.264-13.787c-12.56,0-24.372,4.896-33.263,13.787c-0.001,0.001-0.002,0.002-0.003,0.003   c-5.837,5.835-13.588,9.049-21.826,9.049c-8.239,0-15.993-3.214-21.829-9.052c-0.003-0.003-0.006-0.007-0.011-0.01   c-8.889-8.885-20.698-13.778-33.253-13.778c-12.56,0-24.372,4.896-33.262,13.787c-2.451,2.451-5.243,4.433-8.264,5.915   l-39.829-83.133C63.193,326.241,63.05,324.825,63.051,324.312z"/>
	<path style="fill:#231F20;" d="M443.106,486.78c-0.001,0.001-0.003,0.003-0.004,0.004c-5.838,5.835-13.589,9.048-21.826,9.048   c-8.238,0-15.988-3.213-21.824-9.048c-0.001-0.001-0.002-0.003-0.004-0.004c-18.341-18.341-48.185-18.341-66.526,0   c-0.001,0.001-0.002,0.003-0.004,0.004c-5.837,5.835-13.589,9.048-21.826,9.048c-8.238,0-15.988-3.213-21.824-9.048   c-0.001-0.001-0.002-0.003-0.004-0.004c-8.89-8.89-20.704-13.787-33.264-13.787s-24.372,4.896-33.263,13.787   c-0.001,0.001-0.002,0.002-0.003,0.003c-5.837,5.835-13.588,9.049-21.826,9.049c-8.239,0-15.993-3.214-21.829-9.052   c-0.003-0.003-0.006-0.006-0.011-0.01c-8.889-8.885-20.698-13.778-33.253-13.778c-12.56,0-24.372,4.896-33.262,13.787   c-5.838,5.838-13.59,9.052-21.829,9.052c-8.24,0-15.993-3.214-21.828-9.051c0,0,0,0-0.001,0c-18.341-18.341-48.185-18.34-66.525,0   c-3.157,3.157-3.157,8.276,0,11.432c3.157,3.157,8.276,3.157,11.433,0c12.037-12.036,31.623-12.037,43.659-0.001l0,0   C66.35,507.104,78.163,512,90.723,512c12.558,0,24.371-4.897,33.263-13.788c5.837-5.837,13.589-9.051,21.829-9.051   c8.239,0,15.991,3.213,21.827,9.049c0.001,0.001,0.001,0.002,0.002,0.002c8.89,8.892,20.704,13.788,33.264,13.788   c12.554,0,24.362-4.894,33.252-13.779c0.003-0.003,0.006-0.005,0.011-0.01c5.836-5.837,13.588-9.051,21.829-9.051   c8.24,0,15.994,3.214,21.829,9.051c0.003,0.003,0.008,0.006,0.011,0.01c8.889,8.885,20.698,13.779,33.251,13.778   c12.555,0,24.365-4.895,33.255-13.78c0.003-0.002,0.005-0.005,0.009-0.008c12.036-12.037,31.623-12.037,43.659,0   c0.003,0.003,0.008,0.006,0.011,0.01c8.889,8.885,20.698,13.779,33.251,13.778c12.554,0,24.362-4.894,33.253-13.778   c0.003-0.003,0.008-0.006,0.011-0.01c12.036-12.037,31.623-12.037,43.659,0c1.579,1.578,3.649,2.368,5.717,2.368   c2.068,0,4.138-0.789,5.717-2.368c3.157-3.157,3.157-8.276,0-11.432C491.291,468.438,461.447,468.438,443.106,486.78z"/>
	<path style="fill:#231F20;" d="M443.106,446.446c-0.001,0.001-0.002,0.002-0.003,0.004c-12.037,12.03-31.618,12.031-43.652,0   c-0.001-0.001-0.002-0.002-0.003-0.003c-18.341-18.341-48.185-18.341-66.526,0c-0.001,0.001-0.002,0.002-0.003,0.003   c-12.037,12.031-31.618,12.031-43.652,0c-0.001-0.001-0.002-0.002-0.003-0.003c-8.89-8.89-20.704-13.787-33.264-13.787   s-24.372,4.896-33.263,13.787c-0.001,0.001-0.002,0.002-0.003,0.003c-5.837,5.835-13.588,9.048-21.826,9.048   c-8.239,0-15.993-3.214-21.829-9.051c-0.003-0.003-0.006-0.006-0.011-0.01c-8.889-8.885-20.698-13.778-33.253-13.778   c-12.554,0-24.362,4.893-33.251,13.777c-0.003,0.003-0.008,0.006-0.011,0.01c-5.838,5.838-13.59,9.052-21.831,9.052   s-15.992-3.214-21.828-9.051l0,0l0,0c-18.341-18.341-48.185-18.34-66.525,0c-3.157,3.157-3.157,8.276,0,11.432   c3.157,3.157,8.276,3.157,11.433,0c12.037-12.036,31.622-12.037,43.658-0.001l0.001,0.001c8.89,8.892,20.703,13.788,33.263,13.788   c12.559,0,24.371-4.896,33.263-13.787c0.001-0.001,0.002-0.003,0.004-0.004c5.837-5.835,13.587-9.048,21.825-9.048   c8.239,0,15.991,3.213,21.827,9.048c0.001,0.001,0.001,0.002,0.002,0.003c8.89,8.892,20.704,13.788,33.264,13.787   c12.554,0,24.362-4.893,33.252-13.778c0.003-0.003,0.006-0.007,0.011-0.01c5.836-5.837,13.588-9.051,21.829-9.051   c8.24,0,15.994,3.214,21.829,9.051c0.002,0.002,0.005,0.004,0.008,0.008c8.889,8.886,20.699,13.781,33.254,13.78   c12.556,0,24.366-4.895,33.257-13.781c0.002-0.002,0.004-0.004,0.008-0.006c12.036-12.037,31.623-12.037,43.659,0   c0.002,0.002,0.005,0.004,0.008,0.008c8.889,8.886,20.699,13.781,33.254,13.78c12.555,0,24.364-4.894,33.254-13.779   c0.003-0.003,0.006-0.005,0.01-0.009c12.036-12.037,31.623-12.037,43.659,0c1.579,1.578,3.649,2.368,5.717,2.368   c2.068,0,4.138-0.789,5.717-2.368c3.157-3.157,3.157-8.276,0-11.432C491.291,428.105,461.447,428.105,443.106,446.446z"/>
</g>
<g>
</g>
<g>
</g>
<g>
</g>
<g>
</g>
<g>
</g>
<g>
</g>
<g>
</g>
<g>
</g>
<g>
</g>
<g>
</g>
<g>
</g>
<g>
</g>
<g>
</g>
<g>
</g>
<g>
</g>
</svg>
