<?xml version="1.0" encoding="iso-8859-1"?>
<!-- Generator: Adobe Illustrator 19.0.0, SVG Export Plug-In . SVG Version: 6.00 Build 0)  -->
<svg version="1.1" id="Capa_1" xmlns="http://www.w3.org/2000/svg" xmlns:xlink="http://www.w3.org/1999/xlink" x="0px" y="0px"
	 viewBox="0 0 512 512" style="enable-background:new 0 0 512 512;" xml:space="preserve">
<path style="fill:#B4B6BC;" d="M280.992,79.268h-49.983V15.506c0-4.417,3.58-7.997,7.997-7.997h33.989
	c4.417,0,7.997,3.58,7.997,7.997V79.268z"/>
<path style="fill:#E6E5E5;" d="M347.247,118.766H164.753V56.97c0-6.544,5.305-11.849,11.849-11.849h158.796
	c6.544,0,11.849,5.305,11.849,11.849V118.766z"/>
<path style="fill:#CCCBCA;" d="M335.398,45.12h-43.815v73.646h55.664V56.97C347.247,50.425,341.942,45.12,335.398,45.12z"/>
<path style="fill:#61AFF6;" d="M419.743,254.328L402.745,108.6c-1.227-10.52-10.139-18.453-20.731-18.453H129.986
	c-10.591,0-19.504,7.933-20.731,18.453L92.257,254.328H419.743z"/>
<path style="fill:#399AEA;" d="M419.743,254.328L402.745,108.6c-1.227-10.52-10.139-18.453-20.731-18.453h-37.493l19.151,164.181
	H419.743z"/>
<path style="fill:#ACC3D1;" d="M394.516,477.036H117.484c-5.018,0-9.548-3.004-11.5-7.626L26.972,282.351
	c-2.7-6.393,0.332-13.762,6.75-16.402L256,174.49l222.278,91.458c6.418,2.641,9.45,10.009,6.75,16.402l-79.012,187.06
	C404.063,474.032,399.533,477.036,394.516,477.036z"/>
<path style="fill:#8FAAB5;" d="M478.278,265.948l-39.528-16.264l-96.031,227.352h51.797c5.018,0,9.548-3.004,11.5-7.626
	l79.012-187.059C487.728,275.958,484.696,268.589,478.278,265.948z"/>
<g>
	<path style="fill:#FFFFFF;" d="M191.632,151.686h-48.363c-2.744,0-4.969-2.225-4.969-4.969v-22.982
		c0-2.744,2.225-4.969,4.969-4.969h48.363c2.744,0,4.969,2.225,4.969,4.969v22.982C196.6,149.461,194.376,151.686,191.632,151.686z"
		/>
	<path style="fill:#FFFFFF;" d="M280.182,151.686h-48.363c-2.744,0-4.969-2.225-4.969-4.969v-22.982
		c0-2.744,2.225-4.969,4.969-4.969h48.363c2.744,0,4.969,2.225,4.969,4.969v22.982C285.15,149.461,282.926,151.686,280.182,151.686z
		"/>
	<path style="fill:#FFFFFF;" d="M368.732,151.686h-48.363c-2.744,0-4.969-2.225-4.969-4.969v-22.982
		c0-2.744,2.225-4.969,4.969-4.969h48.363c2.744,0,4.969,2.225,4.969,4.969v22.982C373.7,149.461,371.476,151.686,368.732,151.686z"
		/>
</g>
<path style="fill:#33D8DD;" d="M7.573,461.658c0-2.034,1.7-3.655,3.732-3.575c27.374,1.075,28.617,13.946,58.372,13.946
	c31.053,0,31.053-14.018,62.106-14.018s31.053,14.018,62.105,14.018s31.052-14.018,62.103-14.018
	c31.053,0,31.053,14.018,62.106,14.018c31.054,0,31.054-14.018,62.108-14.018c31.055,0,31.055,14.018,62.111,14.018
	c29.759,0,31.001-12.872,58.379-13.946c2.032-0.08,3.732,1.541,3.732,3.575v25.303c0,1.916-1.513,3.502-3.428,3.571
	c-27.672,0.991-28.814,13.958-58.682,13.958c-31.055,0-31.055-14.018-62.111-14.018c-31.054,0-31.054,14.018-62.108,14.018
	c-31.053,0-31.053-14.018-62.106-14.018c-31.052,0-31.052,14.018-62.103,14.018c-31.053,0-31.053-14.018-62.105-14.018
	c-31.053,0-31.053,14.018-62.106,14.018c-29.865,0-31.006-12.966-58.675-13.958c-1.915-0.069-3.428-1.655-3.428-3.571v-25.303H7.573
	z"/>
<path style="fill:#E6E5E5;" d="M478.278,265.948L256,174.49L33.722,265.948c-6.418,2.641-9.45,10.009-6.75,16.402l8.388,19.858
	L256,215.664l0,0l220.64,86.545l8.388-19.858C487.728,275.958,484.696,268.589,478.278,265.948z"/>
<path style="fill:#CCCBCA;" d="M438.75,249.684l-13.647,32.309l51.537,20.215l8.388-19.858c1.013-2.397,1.219-4.932,0.743-7.303
	c-0.476-2.371-1.634-4.578-3.351-6.321c-0.286-0.291-0.588-0.568-0.904-0.831c-0.95-0.79-2.034-1.451-3.238-1.946L438.75,249.684z"
	/>
<path style="fill:#11B9C1;" d="M500.695,458.083c-25.244,0.991-28.285,12.004-51.932,13.715v32.461
	c23.741-1.719,26.712-12.813,52.235-13.727c1.915-0.069,3.428-1.655,3.428-3.571v-25.303
	C504.427,459.625,502.727,458.004,500.695,458.083z"/>
<path d="M143.268,111.257c-6.88,0-12.478,5.598-12.478,12.478v22.983c0,6.88,5.598,12.478,12.478,12.478h48.363
	c6.88,0,12.478-5.598,12.478-12.478v-22.983c0-6.88-5.598-12.478-12.478-12.478H143.268z M189.091,144.176h-43.282v-17.901h43.282
	V144.176z"/>
<path d="M231.819,111.257c-6.88,0-12.478,5.598-12.478,12.478v22.983c0,6.88,5.598,12.478,12.478,12.478h48.363
	c6.88,0,12.478-5.598,12.478-12.478v-22.983c0-6.88-5.598-12.478-12.478-12.478H231.819z M277.641,144.176H234.36v-17.901h43.281
	V144.176z"/>
<path d="M320.368,111.257c-6.88,0-12.478,5.598-12.478,12.478v22.983c0,6.88,5.598,12.478,12.478,12.478h48.363
	c6.88,0,12.478-5.598,12.478-12.478v-22.983c0-6.88-5.598-12.478-12.478-12.478H320.368z M366.191,144.176h-43.282v-17.901h43.282
	V144.176z"/>
<path d="M500.729,483.028c-14.761,0.529-23.095,4.291-30.447,7.609c-7.541,3.404-14.054,6.344-27.966,6.344
	c-13.912,0-20.424-2.94-27.966-6.344c-7.969-3.597-17-7.674-34.145-7.674c-17.144,0-26.175,4.076-34.144,7.674
	c-7.541,3.404-14.054,6.344-27.965,6.344c-13.91,0-20.422-2.94-27.963-6.344c-7.969-3.597-17-7.674-34.143-7.674
	c-17.142,0-26.173,4.076-34.141,7.674c-7.54,3.404-14.052,6.344-27.962,6.344s-20.422-2.94-27.963-6.344
	c-7.969-3.597-17-7.674-34.143-7.674s-26.175,4.076-34.143,7.674c-7.541,3.404-14.053,6.344-27.963,6.344s-20.422-2.94-27.962-6.344
	c-7.352-3.319-15.684-7.08-30.444-7.609c-4.143-0.12-7.625,3.092-7.773,7.236c-0.149,4.145,3.091,7.625,7.236,7.773
	c11.809,0.423,17.83,3.142,24.802,6.289c7.969,3.597,17,7.674,34.143,7.674s26.174-4.076,34.143-7.674
	c7.541-3.404,14.053-6.344,27.964-6.344s20.422,2.94,27.963,6.344c7.969,3.597,16.999,7.674,34.142,7.674s26.174-4.077,34.142-7.674
	c7.54-3.404,14.052-6.344,27.962-6.344c13.91,0,20.422,2.94,27.963,6.344c7.969,3.597,17,7.674,34.143,7.674
	s26.175-4.076,34.143-7.674c7.541-3.404,14.054-6.344,27.965-6.344c13.912,0,20.424,2.94,27.966,6.344
	c7.969,3.597,17.001,7.674,34.145,7.674c17.144,0,26.176-4.076,34.145-7.674c6.973-3.148,12.995-5.866,24.806-6.289
	c4.145-0.149,7.384-3.629,7.236-7.773C508.354,486.119,504.854,482.866,500.729,483.028z"/>
<path d="M11.01,465.587c11.629,0.457,17.605,3.154,24.525,6.278c7.968,3.597,16.999,7.674,34.141,7.674
	c17.143,0,26.174-4.076,34.143-7.674c0.934-0.422,1.853-0.836,2.772-1.239c0.004-0.002,0.008-0.003,0.013-0.005
	c0.152-0.066,0.305-0.132,0.457-0.198c0.272-0.118,0.544-0.236,0.817-0.352c0.122-0.052,0.247-0.103,0.37-0.155
	c0.351-0.147,0.702-0.292,1.057-0.434c0.074-0.03,0.148-0.059,0.222-0.088c0.416-0.165,0.834-0.328,1.258-0.486
	c0.033-0.012,0.066-0.025,0.099-0.037c1.888-0.701,3.875-1.327,6.079-1.843c0.18-0.042,0.369-0.081,0.552-0.122
	c0.343-0.076,0.688-0.151,1.042-0.222c0.27-0.054,0.548-0.104,0.826-0.155c0.283-0.052,0.567-0.103,0.857-0.151
	c0.319-0.053,0.645-0.103,0.974-0.151c0.271-0.04,0.545-0.078,0.823-0.115c0.349-0.046,0.702-0.09,1.062-0.131
	c0.284-0.033,0.575-0.062,0.867-0.091c0.365-0.037,0.732-0.073,1.11-0.104c0.326-0.027,0.663-0.049,0.999-0.073
	c0.36-0.025,0.718-0.051,1.09-0.071c0.422-0.023,0.862-0.038,1.3-0.055c0.309-0.012,0.61-0.027,0.927-0.035
	c0.773-0.02,1.567-0.032,2.39-0.032c13.91,0,20.422,2.94,27.963,6.344c0.609,0.275,1.227,0.552,1.851,0.831
	c7.548,3.366,16.458,6.843,32.292,6.843c13.928,0,22.502-2.692,29.501-5.63c1.615-0.678,3.147-1.369,4.641-2.044
	c7.54-3.404,14.052-6.344,27.962-6.344s20.422,2.94,27.963,6.344c7.969,3.597,17,7.674,34.143,7.674
	c15.781,0,24.685-3.454,32.217-6.809c0.65-0.29,1.294-0.579,1.927-0.864c7.541-3.404,14.054-6.344,27.965-6.344
	c0.824,0,1.617,0.012,2.391,0.032c0.318,0.008,0.618,0.024,0.928,0.035c0.437,0.016,0.876,0.032,1.298,0.054
	c0.375,0.02,0.736,0.046,1.1,0.072c0.331,0.023,0.664,0.045,0.986,0.072c0.383,0.032,0.754,0.068,1.124,0.105
	c0.286,0.029,0.571,0.058,0.85,0.09c0.367,0.042,0.727,0.087,1.081,0.134c0.27,0.036,0.536,0.073,0.799,0.112
	c0.338,0.05,0.672,0.101,0.999,0.155c0.28,0.046,0.554,0.096,0.826,0.145c0.288,0.052,0.576,0.104,0.856,0.16
	c0.339,0.068,0.669,0.14,0.997,0.212c0.199,0.044,0.403,0.086,0.598,0.132c1.651,0.387,3.181,0.835,4.638,1.33
	c0.002,0.001,0.004,0.002,0.007,0.002c0.481,0.164,0.953,0.333,1.42,0.506c0.038,0.014,0.076,0.028,0.113,0.043
	c0.42,0.157,0.836,0.318,1.248,0.482c0.074,0.03,0.149,0.059,0.224,0.089c0.359,0.144,0.715,0.291,1.07,0.44
	c0.116,0.049,0.234,0.097,0.35,0.146c0.301,0.127,0.6,0.257,0.9,0.387c0.129,0.056,0.259,0.111,0.388,0.168
	c0.003,0.001,0.006,0.002,0.009,0.003c0.918,0.402,1.835,0.816,2.768,1.237c7.969,3.597,17.001,7.674,34.145,7.674
	s26.176-4.076,34.145-7.674c6.921-3.124,12.898-5.822,24.529-6.278c4.144-0.162,7.372-3.654,7.209-7.798
	c-0.162-4.145-3.663-7.356-7.798-7.209c-14.555,0.571-22.823,4.303-30.119,7.596c-7.541,3.404-14.054,6.344-27.965,6.344
	c-11.518,0-17.964-2.018-24.122-4.643l73.751-174.605c2.092-4.952,2.116-10.416,0.071-15.388c-2.046-4.971-5.91-8.835-10.881-10.881
	l-55.972-23.03l-6.351-54.444c-0.481-4.119-4.206-7.084-8.329-6.588c-4.119,0.48-7.069,4.209-6.589,8.329l5.386,46.169
	l-150.422-61.892c-1.831-0.753-3.884-0.753-5.715,0L102.72,229.438l13.994-119.969c0.785-6.735,6.491-11.814,13.272-11.814l0,0
	h252.029l0,0c6.781,0,12.486,5.079,13.272,11.814l4.616,39.575c0.481,4.119,4.206,7.077,8.329,6.588
	c4.119-0.48,7.069-4.209,6.589-8.329l-4.616-39.575c-1.669-14.305-13.788-25.092-28.19-25.092h-27.258V56.969
	c0-10.675-8.684-19.358-19.358-19.358h-46.897V15.506c0-8.55-6.956-15.506-15.506-15.506h-33.989
	c-8.55,0-15.506,6.956-15.506,15.506v22.105h-46.897c-10.674,0-19.358,8.684-19.358,19.358v25.667h-27.258
	c-14.402,0-26.521,10.787-28.19,25.092L86.837,235.973l-55.972,23.03c-4.971,2.046-8.835,5.91-10.881,10.881
	s-2.021,10.436,0.071,15.388l73.749,174.601c-6.159,2.627-12.605,4.647-24.127,4.647c-13.909,0-20.421-2.94-27.962-6.344
	c-7.295-3.293-15.563-7.025-30.115-7.596c-4.165-0.185-7.637,3.064-7.798,7.209C3.638,461.933,6.866,465.425,11.01,465.587z
	 M238.518,15.506c0-0.269,0.219-0.487,0.487-0.487h33.989c0.269,0,0.487,0.218,0.487,0.487v22.105h-34.964L238.518,15.506
	L238.518,15.506z M172.262,56.969c0-2.393,1.947-4.339,4.339-4.339l0,0h158.796l0,0c2.393,0,4.339,1.947,4.339,4.339v25.667H172.262
	V56.969z M45.276,306.386l28.307-11.103c3.861-1.515,5.763-5.873,4.249-9.733c-1.515-3.861-5.872-5.762-9.733-4.25L39.43,292.546
	l-5.541-13.117c-0.521-1.232-0.527-2.592-0.018-3.829s1.47-2.198,2.707-2.708L256,182.61l219.421,90.282
	c1.237,0.509,2.198,1.471,2.707,2.708s0.503,2.597-0.017,3.829l-5.541,13.117l-213.828-83.873c-1.763-0.69-3.721-0.69-5.484,0
	l-152.631,59.869c-3.861,1.515-5.763,5.873-4.249,9.733c1.515,3.861,5.873,5.763,9.733,4.249L256,223.731l210.724,82.655
	l-62.386,147.698c-3.52-1.184-7.597-2.22-12.553-2.869c-0.083-0.011-0.166-0.022-0.249-0.033c-0.789-0.101-1.597-0.193-2.431-0.273
	c-0.073-0.007-0.148-0.013-0.221-0.02c-0.77-0.072-1.561-0.134-2.372-0.186c-0.121-0.008-0.24-0.017-0.362-0.025
	c-0.836-0.051-1.697-0.09-2.579-0.119c-0.187-0.006-0.378-0.011-0.567-0.016c-0.911-0.025-1.837-0.042-2.798-0.042
	c-17.144,0-26.175,4.076-34.144,7.674c-7.541,3.404-14.054,6.344-27.965,6.344c-13.91,0-20.422-2.94-27.963-6.344
	c-7.969-3.597-17-7.674-34.143-7.674c-17.142,0-26.173,4.076-34.141,7.674c-7.54,3.404-14.052,6.344-27.962,6.344
	s-20.422-2.94-27.963-6.344c-7.47-3.372-15.875-7.166-31.022-7.627c-1.01-0.031-2.05-0.047-3.121-0.047
	c-0.962,0-1.889,0.017-2.8,0.042c-0.187,0.005-0.376,0.01-0.561,0.016c-0.884,0.029-1.747,0.068-2.585,0.119
	c-0.118,0.007-0.233,0.016-0.35,0.024c-0.821,0.053-1.622,0.116-2.4,0.189c-0.064,0.006-0.129,0.011-0.193,0.017
	c-0.844,0.081-1.661,0.174-2.458,0.276c-0.07,0.009-0.14,0.018-0.209,0.027c-4.962,0.649-9.042,1.684-12.565,2.868L45.276,306.386z"
	/>
<g>
</g>
<g>
</g>
<g>
</g>
<g>
</g>
<g>
</g>
<g>
</g>
<g>
</g>
<g>
</g>
<g>
</g>
<g>
</g>
<g>
</g>
<g>
</g>
<g>
</g>
<g>
</g>
<g>
</g>
</svg>
