<svg height="512pt" viewBox="0 -21 512 512" width="512pt" xmlns="http://www.w3.org/2000/svg"><g fill-rule="evenodd"><path d="m260.121094 114.414062 179.214844-.027343c37.113281 0 65.105468 30.351562 65.105468 67.46875v212.121093c0 37.117188-27.992187 67.46875-65.105468 67.46875h-364.3125c-37.113282 0-67.464844-30.351562-67.464844-67.46875v-212.121093c0-37.117188 30.351562-67.46875 67.464844-67.46875zm0 0" fill="#b5722f"/><path d="m439.335938 461.445312c37.113281 0 65.105468-30.351562 65.105468-67.46875v-212.121093c0-37.117188-27.992187-67.46875-65.105468-67.46875h-46.15625c2.332031 0 4.632812.113281 6.90625.367187 1.25.113282 2.472656.285156 3.695312.484375 7.1875 1.164063 13.953125 3.523438 20.0625 6.847657 20.832031 11.3125 34.445312 33.90625 34.445312 59.765624v212.125c0 25.917969-13.671874 48.539063-34.558593 59.851563-7.164063 3.863281-15.175781 6.394531-23.757813 7.273437-1.960937.199219-3.953125.3125-5.941406.339844h45.304688zm0 0" fill="#8a541e"/><path d="m404.347656 114.386719-11.253906 17.164062-18.128906-17.164062v-37.398438c0-10.203125-8.355469-18.558593-18.558594-18.558593h-8.953125l-19.496094-16.257813 19.496094-12.929687h10.203125c25.71875 0 46.691406 20.945312 46.691406 46.691406zm0 0" fill="#e6e6e6"/><path d="m110.121094 114.386719 15.007812 8.582031 14.378906-8.582031v-37.398438c0-10.203125 8.355469-18.558593 18.558594-18.558593h8.953125l19.496094-16.257813-19.496094-12.929687h-10.203125c-25.75 0-46.695312 20.945312-46.695312 46.691406zm0 0" fill="#e6e6e6"/><path d="m182.109375 76.789062h149.117187c8.269532 0 15.0625-6.765624 15.0625-15.0625v-39.105468c0-8.296875-6.792968-15.0625-15.0625-15.0625h-149.117187c-8.296875 0-15.089844 6.765625-15.089844 15.0625v39.105468c0 8.296876 6.792969 15.0625 15.089844 15.0625zm0 0" fill="#fcc368"/><path d="m167.019531 61.726562c0 8.296876 6.792969 15.058594 15.089844 15.058594h149.117187c8.269532 0 15.0625-6.761718 15.0625-15.058594v-18.246093c0 4.0625-1.621093 7.730469-4.234374 10.457031-2.757813 2.84375-6.59375 4.605469-10.828126 4.605469h-149.117187c-3.980469 0-7.617187-1.535157-10.316406-4.09375-2.925781-2.757813-4.773438-6.648438-4.773438-10.96875zm0 0" fill="#ffa719"/><path d="m90.628906 302.75v158.695312h48.878906v-158.695312l-24.441406-11.820312zm0 0" fill="#64b0d9"/><path d="m374.851562 302.75h48.878907v158.695312h-48.878907zm0 0" fill="#64b0d9"/><path d="m199.191406 404.605469 46.4375-21.796875c2.328125-1.109375 3.324219-3.894532 2.242188-6.226563l-9.265625-19.695312c-1.078125-2.328125-3.890625-3.324219-6.195313-2.242188l-46.433594 21.824219c-2.332031 1.082031-3.328124 3.867188-2.246093 6.195312l9.265625 19.695313c1.078125 2.332031 3.863281 3.324219 6.195312 2.246094zm0 0" fill="#64b0d9"/><path d="m221.441406 293.515625 58.800782 20.515625c2.925781 1.023438 6.195312-.539062 7.21875-3.464844l8.695312-24.953125c1.023438-2.925781-.539062-6.195312-3.464844-7.21875l-58.800781-20.519531c-2.925781-1.023438-6.195313.539062-7.21875 3.46875l-8.695313 24.921875c-1.054687 2.957031.539063 6.195313 3.464844 7.25zm0 0" fill="#f78411"/><path d="m250.570312 211.382812 50.078126-11.054687c2.5-.542969 4.121093-3.042969 3.550781-5.542969l-4.6875-21.257812c-.542969-2.5-3.042969-4.09375-5.570313-3.550782l-50.078125 11.054688c-2.5.539062-4.089843 3.039062-3.550781 5.539062l4.691406 21.257813c.539063 2.5 3.039063 4.09375 5.566406 3.554687zm0 0" fill="#64b0d9"/><path d="m90.628906 213.085938 24.4375 18.074218 24.441406-18.074218v-98.699219h-48.878906zm0 0" fill="#64b0d9"/><path d="m374.851562 213.085938 24.351563 18.074218 24.527344-18.074218.113281-98.699219h-48.878906zm0 0" fill="#64b0d9"/><path d="m337.25 277.628906c0 13.808594 11.285156 25.121094 25.125 25.121094h72.667969c13.8125 0 25.09375-11.3125 25.09375-25.121094v-39.417968c0-13.8125-11.285157-25.125-25.09375-25.125h-72.667969c-13.839844 0-25.125 11.3125-25.125 25.125zm0 0" fill="#fcc368"/><path d="m51.804688 277.628906c0 13.808594 11.285156 25.121094 25.09375 25.121094h72.699218c13.8125 0 25.09375-11.3125 25.09375-25.121094v-39.417968c0-13.8125-11.285156-25.125-25.09375-25.125h-72.695312c-13.8125 0-25.09375 11.3125-25.09375 25.125v39.417968zm0 0" fill="#fcc368"/><path d="m400.085938 114.386719h23.761718v98.699219h-23.761718zm0 0" fill="#4a83c9"/><path d="m399.972656 302.75h23.757813v158.695312h-23.757813zm0 0" fill="#4a83c9"/><path d="m115.722656 302.75h23.785156v158.695312h-23.785156zm0 0" fill="#4a83c9"/><path d="m115.722656 114.386719h23.785156v98.699219h-23.785156zm0 0" fill="#4a83c9"/><path d="m410.574219 302.75h24.46875c13.8125 0 25.09375-11.3125 25.09375-25.121094v-39.417968c0-13.8125-11.285157-25.125-25.09375-25.125h-24.355469c5.882812.027343 11.28125 2.101562 15.574219 5.542968 5.742187 4.601563 9.40625 11.679688 9.40625 19.582032v39.414062c0 13.8125-11.28125 25.125-25.09375 25.125zm0 0" fill="#ffa719"/><path d="m125.128906 302.75h24.46875c13.8125 0 25.09375-11.3125 25.09375-25.121094v-39.417968c0-13.8125-11.28125-25.125-25.09375-25.125h-24.355468c5.882812.027343 11.28125 2.101562 15.574218 5.542968 5.742188 4.601563 9.40625 11.679688 9.40625 19.582032v39.414062c0 13.8125-11.28125 25.125-25.09375 25.125zm0 0" fill="#ffa719"/><path d="m371.753906 267.851562c0 2.128907 1.761719 3.863282 3.890625 3.863282h46.125c2.132813 0 3.867188-1.734375 3.867188-3.863282v-19.867187c0-2.128906-1.734375-3.890625-3.867188-3.890625h-46.125c-2.128906 0-3.890625 1.761719-3.890625 3.890625zm0 0" fill="#f78411"/><path d="m90.171875 271.714844h46.152344c2.105469 0 3.867187-1.734375 3.867187-3.863282v-19.867187c0-2.128906-1.761718-3.890625-3.867187-3.890625h-46.152344c-2.101563 0-3.863281 1.761719-3.863281 3.890625v19.867187c0 2.132813 1.761718 3.863282 3.863281 3.863282zm0 0" fill="#f78411"/></g><path d="m439.335938 106.828125h-27.429688v-30.894531c0-29.914063-24.335938-54.25-54.25-54.25h-3.835938c-.492187-12.039063-10.433593-21.683594-22.59375-21.683594h-149.117187c-12.175781 0-22.132813 9.644531-22.625 21.683594h-2.667969c-29.914062 0-54.25 24.335937-54.25 54.25v30.902344l-11.886718-.003907c-.019532 0-.035157-.003906-.050782-.003906-.019531 0-.035156.003906-.054687.003906l-15.550781-.003906c-41.367188 0-75.023438 33.65625-75.023438 75.027344v212.121093c0 41.367188 33.65625 75.023438 75.023438 75.023438h364.3125c40.746093 0 72.664062-32.953125 72.664062-75.023438v-212.121093c0-42.070313-31.917969-75.027344-72.664062-75.027344zm-76.960938 188.363281c-9.6875 0-17.566406-7.878906-17.566406-17.5625v-39.417968c0-9.6875 7.878906-17.566407 17.566406-17.566407h72.667969c9.671875 0 17.535156 7.878907 17.535156 17.566407v39.417968c0 9.683594-7.863281 17.5625-17.535156 17.5625zm-222.867188 98.078125c-4.171874 0-7.554687 3.382813-7.554687 7.554688v53.0625h-33.769531v-143.578125h33.769531v55.730468c0 4.175782 3.382813 7.558594 7.554687 7.558594 4.175782 0 7.558594-3.382812 7.558594-7.558594v-55.730468h2.53125c18.003906 0 32.652344-14.660156 32.652344-32.679688v-39.417968c0-18.023438-14.648438-32.679688-32.652344-32.679688h-2.53125v-83.574219l95.660156.015625c4.175782 0 7.558594-3.382812 7.558594-7.558594 0-4.171874-3.382812-7.554687-7.554687-7.558593l-95.664063-.015625v-29.851563c0-6.066406 4.933594-11.003906 11-11.003906h1.800782c2.003906 10.445313 11.210937 18.359375 22.242187 18.359375h149.117187c11.015626 0 20.210938-7.914062 22.210938-18.359375h2.96875c6.066406 0 11 4.9375 11 11.003906v29.839844h-89.894531c-4.171875 0-7.554688 3.386719-7.554688 7.558594 0 4.175781 3.382813 7.558593 7.554688 7.558593h89.886719l-.097657 83.585938h-4.925781c-18.019531 0-32.679688 14.660156-32.679688 32.679688v39.417968c0 18.019532 14.660157 32.679688 32.679688 32.679688h4.917969v143.578125h-220.226563v-53.0625c0-4.171875-3.382812-7.554688-7.558594-7.554688zm-7.558593-271.316406v83.578125h-33.765625v-83.582031zm17.648437 98.691406c9.671875 0 17.539063 7.878907 17.539063 17.566407v39.417968c0 9.683594-7.867188 17.5625-17.539063 17.5625h-72.695312c-9.671875 0-17.539063-7.878906-17.539063-17.5625v-39.417968c0-9.6875 7.867188-17.566407 17.539063-17.566407zm232.816406-15.113281.097657-83.585938h33.765625l-.09375 83.585938zm14.378907-129.597656v30.894531h-14.273438v-29.839844c0-14.402343-11.714843-26.117187-26.113281-26.117187h-2.558594v-14.070313h3.808594c21.578125 0 39.136719 17.554688 39.136719 39.132813zm-222.21875-53.3125c0-4.140625 3.382812-7.503906 7.535156-7.503906h149.117187c4.136719 0 7.503907 3.367187 7.503907 7.503906v39.105468c0 4.136719-3.367188 7.503907-7.503907 7.503907h-149.117187c-4.15625 0-7.535156-3.367188-7.535156-7.503907zm-56.894531 53.3125c0-21.578125 17.558593-39.132813 39.136718-39.132813h2.644532v14.070313h-1.394532c-14.402344 0-26.117187 11.714844-26.117187 26.117187v29.851563l-14.269531-.003906zm-102.566407 318.042968v-212.121093c0-33.035157 26.878907-59.910157 59.910157-59.910157h8.046874v83.585938h-6.167968c-18.003906 0-32.652344 14.660156-32.652344 32.679688v39.417968c0 18.019532 14.644531 32.679688 32.652344 32.679688h6.167968v143.578125h-8.046874c-33.035157 0-59.910157-26.875-59.910157-59.910157zm481.773438 0c0 33.59375-25.28125 59.910157-57.554688 59.910157h-8.042969v-53.0625c0-4.171875-3.382812-7.554688-7.558593-7.554688-4.171875 0-7.554688 3.382813-7.554688 7.554688v53.0625h-33.769531v-143.578125h33.769531v55.730468c0 4.175782 3.382813 7.558594 7.554688 7.558594 4.175781 0 7.558593-3.382812 7.558593-7.558594v-55.730468h3.753907c18.003906 0 32.652343-14.660156 32.652343-32.679688v-39.417968c0-18.023438-14.648437-32.679688-32.652343-32.679688h-3.746094l.097656-83.585938h7.9375c32.273438 0 57.554688 26.3125 57.554688 59.910157zm0 0"/><path d="m218.953125 300.648438 58.796875 20.519531c1.417969.496093 2.886719.742187 4.351562.742187 1.957032 0 3.910157-.441406 5.734376-1.316406 3.195312-1.535156 5.597656-4.210938 6.761718-7.542969l8.695313-24.945312c1.15625-3.316407.953125-6.898438-.574219-10.085938-1.535156-3.195312-4.210938-5.597656-7.539062-6.757812l-58.796876-20.519531c-3.316406-1.160157-6.898437-.957032-10.085937.574218-3.195313 1.53125-5.597656 4.207032-6.761719 7.539063l-8.679687 24.878906c-2.4375 6.847656 1.167969 14.425781 8.097656 16.914063zm14.226563-35.015626 55.222656 19.269532-7.449219 21.375-55.230469-19.273438zm0 0"/><path d="m237.613281 209.425781c1.230469 5.699219 6.3125 9.613281 11.984375 9.613281.859375 0 1.730469-.089843 2.601563-.277343l50.042969-11.046875c3.207031-.691406 5.945312-2.601563 7.714843-5.378906 1.761719-2.765626 2.335938-6.039063 1.621094-9.179688l-4.679687-21.222656c-1.417969-6.5625-7.941407-10.757813-14.585938-9.335938l-50.0625 11.050782c-3.183594.691406-5.90625 2.589843-7.667969 5.34375-1.753906 2.742187-2.34375 6-1.648437 9.207031zm55.140625-31.449219 3.4375 15.59375-44.433594 9.8125-3.4375-15.597656zm0 0"/><path d="m186.136719 405.539062c1.378906 2.96875 3.835937 5.21875 6.921875 6.332032 1.351562.488281 2.753906.730468 4.15625.730468 1.761718 0 3.523437-.386718 5.183594-1.15625l46.472656-21.8125c6.042968-2.875 8.671875-10.152343 5.839844-16.265624l-9.246094-19.65625c-1.371094-2.953126-3.820313-5.199219-6.894532-6.320313-3.085937-1.121094-6.414062-.976563-9.375.414063l-46.421874 21.820312c-2.957032 1.378906-5.199219 3.832031-6.308594 6.910156-1.101563 3.054688-.957032 6.359375.425781 9.347656zm46.859375-42.820312 6.808594 14.472656-41.199219 19.339844-6.800781-14.449219zm0 0"/><path d="m90.171875 279.273438h46.152344c6.300781 0 11.421875-5.125 11.421875-11.421876v-19.867187c0-6.3125-5.121094-11.449219-11.421875-11.449219h-46.152344c-6.296875 0-11.421875 5.136719-11.421875 11.449219v19.867187c0 6.296876 5.125 11.421876 11.421875 11.421876zm3.691406-27.625h38.769531v12.511718h-38.769531zm0 0"/><path d="m421.769531 236.535156h-46.125c-6.3125 0-11.449219 5.136719-11.449219 11.449219v19.867187c0 6.296876 5.136719 11.421876 11.449219 11.421876h46.125c6.296875 0 11.421875-5.125 11.421875-11.421876v-19.867187c0-6.3125-5.121094-11.449219-11.421875-11.449219zm-3.691406 27.625h-38.769531v-12.511718h38.769531zm0 0"/></svg>