<svg height="512pt" viewBox="0 -22 512 512" width="512pt" xmlns="http://www.w3.org/2000/svg"><g fill-rule="evenodd"><path d="m260.246094 110.179688 184.664062-.027344c38.246094 0 67.089844 31.296875 67.089844 69.566406v218.71875c0 38.269531-28.847656 69.566406-67.089844 69.566406h-375.390625c-38.246093-.003906-69.519531-31.300781-69.519531-69.570312v-218.714844c0-38.273438 31.273438-69.566406 69.519531-69.566406zm0 0" fill="#b5722f"/><path d="m444.910156 468c38.246094 0 67.089844-31.296875 67.089844-69.566406v-218.714844c0-38.273438-28.84375-69.566406-67.089844-69.566406h-47.558594c2.402344 0 4.773438.117187 7.117188.378906 1.289062.117188 2.546875.292969 3.808594.5 7.40625 1.199219 14.375 3.632812 20.671875 7.0625 21.464843 11.660156 35.492187 34.957031 35.492187 61.621094v218.71875c0 26.722656-14.085937 50.050781-35.609375 61.710937-7.378906 3.988281-15.636719 6.59375-24.480469 7.503907-2.019531.203124-4.070312.320312-6.121093.351562zm0 0" fill="#8a541e"/><path d="m408.863281 110.152344-11.597656 17.699218-18.683594-17.699218v-38.5625c0-10.519532-8.609375-19.136719-19.121093-19.136719h-9.222657l-20.089843-16.761719 20.089843-13.332031h10.511719c26.503906 0 48.113281 21.597656 48.113281 48.144531zm0 0" fill="#e6e6e6"/><path d="m105.6875 110.152344 15.460938 8.847656 14.816406-8.847656v-38.5625c0-10.519532 8.609375-19.136719 19.125-19.136719h9.222656l20.089844-16.761719-20.089844-13.332031h-10.511719c-26.53125 0-48.113281 21.597656-48.113281 48.144531zm0 0" fill="#e6e6e6"/><path d="m179.863281 71.382812h153.652344c8.519531 0 15.519531-6.972656 15.519531-15.53125v-40.320312c0-8.558594-7-15.53125-15.519531-15.53125h-153.652344c-8.550781 0-15.550781 6.972656-15.550781 15.53125v40.320312c0 8.558594 7 15.53125 15.550781 15.53125zm0 0" fill="#fcc368"/><path d="m164.3125 55.851562c0 8.558594 7 15.53125 15.550781 15.53125h153.652344c8.519531 0 15.519531-6.972656 15.519531-15.53125v-18.8125c0 4.191407-1.667968 7.972657-4.363281 10.785157-2.839844 2.929687-6.792969 4.746093-11.15625 4.746093h-153.652344c-4.101562 0-7.847656-1.582031-10.632812-4.21875-3.015625-2.84375-4.917969-6.859374-4.917969-11.3125zm0 0" fill="#ffa719"/><path d="m85.597656 304.371094v163.628906h50.367188v-163.628906l-25.183594-12.1875zm0 0" fill="#64b0d9"/><path d="m378.464844 304.371094h50.367187v163.628906h-50.367187zm0 0" fill="#64b0d9"/><path d="m197.460938 409.394531 47.851562-22.472656c2.398438-1.144531 3.425781-4.015625 2.3125-6.417969l-9.546875-20.308594c-1.113281-2.402343-4.011719-3.425781-6.386719-2.3125l-47.847656 22.503907c-2.402344 1.113281-3.425781 3.984375-2.3125 6.386719l9.546875 20.308593c1.113281 2.402344 3.980469 3.425781 6.382813 2.3125zm0 0" fill="#64b0d9"/><path d="m220.390625 294.847656 60.589844 21.160156c3.015625 1.054688 6.382812-.558593 7.4375-3.578124l8.960937-25.726563c1.054688-3.019531-.558594-6.386719-3.574218-7.441406l-60.585938-21.160157c-3.019531-1.054687-6.386719.558594-7.441406 3.578126l-8.960938 25.699218c-1.082031 3.046875.558594 6.386719 3.574219 7.46875zm0 0" fill="#f78411"/><path d="m250.40625 210.164062 51.597656-11.398437c2.578125-.558594 4.246094-3.136719 3.660156-5.714844l-4.828124-21.917969c-.558594-2.582031-3.136719-4.222656-5.742188-3.664062l-51.597656 11.398438c-2.578125.558593-4.21875 3.136718-3.660156 5.714843l4.832031 21.917969c.554687 2.578125 3.132812 4.21875 5.738281 3.664062zm0 0" fill="#64b0d9"/><path d="m85.597656 211.921875 25.183594 18.636719 25.183594-18.636719v-101.769531h-50.367188zm0 0" fill="#64b0d9"/><path d="m378.464844 211.921875 25.097656 18.636719 25.273438-18.636719.113281-101.769531h-50.367188zm0 0" fill="#64b0d9"/><path d="m339.722656 278.46875c0 14.242188 11.625 25.902344 25.886719 25.902344h74.878906c14.234375 0 25.859375-11.660156 25.859375-25.902344v-40.644531c0-14.238281-11.625-25.902344-25.859375-25.902344h-74.878906c-14.261719 0-25.886719 11.664063-25.886719 25.902344zm0 0" fill="#fcc368"/><path d="m45.59375 278.46875c0 14.242188 11.628906 25.902344 25.859375 25.902344h74.90625c14.234375 0 25.859375-11.660156 25.859375-25.902344v-40.644531c0-14.238281-11.625-25.902344-25.859375-25.902344h-74.90625c-14.230469 0-25.859375 11.664063-25.859375 25.902344zm0 0" fill="#fcc368"/><g fill="#4a83c9"><path d="m404.46875 110.152344h24.480469v101.769531h-24.480469zm0 0"/><path d="m404.351562 304.371094h24.480469v163.628906h-24.480469zm0 0"/><path d="m111.453125 304.371094h24.511719v163.628906h-24.511719zm0 0"/><path d="m111.453125 110.152344h24.511719v101.769531h-24.511719zm0 0"/></g><path d="m415.273438 304.371094h25.214843c14.230469 0 25.859375-11.660156 25.859375-25.902344v-40.644531c0-14.238281-11.628906-25.902344-25.859375-25.902344h-25.097656c6.0625.027344 11.628906 2.167969 16.050781 5.714844 5.914063 4.746093 9.691406 12.042969 9.691406 20.1875v40.644531c0 14.242188-11.625 25.902344-25.859374 25.902344zm0 0" fill="#ffa719"/><path d="m121.148438 304.371094h25.210937c14.234375 0 25.859375-11.660156 25.859375-25.902344v-40.644531c0-14.238281-11.625-25.902344-25.859375-25.902344h-25.09375c6.0625.027344 11.625 2.167969 16.046875 5.714844 5.914062 4.746093 9.695312 12.042969 9.695312 20.1875v40.644531c-.003906 14.242188-11.628906 25.902344-25.859374 25.902344zm0 0" fill="#ffa719"/><path d="m375.273438 268.386719c0 2.199219 1.816406 3.984375 4.011718 3.984375h47.527344c2.195312 0 3.984375-1.785156 3.984375-3.984375v-20.480469c0-2.199219-1.785156-4.015625-3.984375-4.015625h-47.527344c-2.195312 0-4.011718 1.816406-4.011718 4.015625zm0 0" fill="#f78411"/><path d="m85.128906 272.371094h47.554688c2.167968 0 3.984375-1.785156 3.984375-3.984375v-20.480469c0-2.199219-1.816407-4.015625-3.984375-4.015625h-47.554688c-2.167968 0-3.984375 1.816406-3.984375 4.015625v20.480469c0 2.199219 1.816407 3.984375 3.984375 3.984375zm0 0" fill="#f78411"/></g></svg>