<svg id="Layer_1" enable-background="new 0 0 512 512" height="512" viewBox="0 0 512 512" width="512" xmlns="http://www.w3.org/2000/svg"><g><path d="m3.8 327.012h496.999v177.488h-497.099z" fill="#5ed8f6"/><path d="m213.314 422.435-36.578-222.471c-1.574-9.568-16.375-7.136-14.801 2.434l36.578 222.471c1.543 9.384 16.389 7.22 14.801-2.434z" fill="#e1f3ff"/><path d="m3.7 406.25c30.333-41.318 88.599-59.65 137.157-43.155 57.347 19.48 98.373 80.6 158.871 83.584 28.042 1.383 54.773-10.438 81.275-19.701 26.501-9.262 75.26-25.049 119.639 12.196v65.326h-496.942z" fill="#ffd686"/><g fill="#f7ca6d"><path d="m100.858 363.094c57.347 19.48 98.373 80.6 158.871 83.584 8.482.418 16.844-.377 25.117-1.939-52.635-11.049-91.468-63.805-143.988-81.645-18.43-6.261-38.257-7.493-57.426-4.367 5.9.996 11.731 2.433 17.426 4.367z"/><path d="m415.842 417.415c.148.028.295.057.443.086 25.855 5.101 44.357 28.006 44.357 54.359v32.64h40v-65.326c-28.856-24.218-59.563-26.012-84.8-21.759z"/></g><g><g><g><path d="m349.189 223.441c-3.105-18.883-20.929-31.673-39.812-28.569-18.883 3.105-31.673 20.929-28.569 39.812-3.105-18.883-20.929-31.673-39.812-28.569-18.883 3.105-31.673 20.929-28.569 39.812-3.105-18.883-20.929-31.673-39.812-28.569s-31.673 20.929-28.569 39.812c-3.105-18.883-20.929-31.673-39.812-28.569s-31.673 20.929-28.569 39.812c-3.105-18.883-20.929-31.673-39.812-28.569-18.883 3.105-31.673 20.929-28.569 39.812l-1.16.191c-15.568-94.719 48.592-184.129 143.311-199.703s184.129 48.586 199.702 143.305z" fill="#fe75a7"/></g></g><g fill="#fe5995"><path d="m349.189 223.441c-.124-.752-.279-1.49-.448-2.222.132.743.273 1.483.396 2.23z"/><path d="m157.817 78.977c66.256 7.712 123.363 53.324 144.732 117.745 2.167-.831 4.449-1.458 6.828-1.849 18.131-2.981 35.278 8.697 39.363 26.347-16.107-90.706-100.11-152.738-190.923-142.243z"/></g><g><path d="m149.461 80.14c-.003.001-.007.001-.01.002.016-.003.033-.005.049-.007-.013.001-.026.003-.039.005z" fill="none"/><path d="m149.5 80.134c-.016.003-.033.005-.049.007-55.457 9.127-88.524 90.157-75.276 182.44.652 1.868 1.162 3.812 1.494 5.831-3.105-18.883 9.686-35.707 28.569-38.812s36.707 8.686 39.811 27.569c-3.105-18.883 9.686-36.707 28.569-39.812s36.707 9.686 39.811 28.569c-3.105-18.883 9.686-35.707 28.569-38.812 16.598-2.729 32.373 5.826 38.058 21.001-17.168-91.256-74.258-157.037-129.556-147.981z" fill="#e1f3ff"/></g><g><path d="m150.232 80.014c-.041.007-.08.02-.121.028.102-.016.204-.03.306-.046-.061.008-.124.008-.185.018z" fill="none"/><path d="m150.417 79.995c-.102.016-.204.03-.306.046-18.522 3.381-21.332 80.517-6.469 173.386-.968-17.441 11.346-33.17 28.975-36.069 18.883-3.105 36.707 9.686 39.811 28.569-.195-1.189-.327-2.374-.399-3.551-15.631-92.727-42.971-164.943-61.612-162.381z" fill="#fe75a7"/><path d="m349.189 223.441c-.124-.752-.279-1.49-.448-2.221.132.743.273 1.483.396 2.23z" fill="#5ed8f6"/></g></g><g><circle cx="425.178" cy="83.122" fill="#ffd500" r="34.035"/><path d="m425.178 49.087c-7.476 0-14.385 2.417-20 6.503 8.503 6.188 14.035 16.211 14.035 27.532s-5.532 21.344-14.035 27.532c5.615 4.086 12.524 6.503 20 6.503 18.797 0 34.035-15.238 34.035-34.035-.001-18.797-15.238-34.035-34.035-34.035z" fill="#ffc400"/><g fill="#fff1ab"><path d="m425.178 0c-4.142 0-7.5 3.358-7.5 7.5v17.758c0 4.142 3.358 7.5 7.5 7.5s7.5-3.358 7.5-7.5v-17.758c0-4.142-3.358-7.5-7.5-7.5z"/><path d="m425.178 133.486c-4.142 0-7.5 3.358-7.5 7.5v17.758c0 4.142 3.358 7.5 7.5 7.5s7.5-3.358 7.5-7.5v-17.758c0-4.142-3.358-7.5-7.5-7.5z"/><path d="m466.094 49.706c1.919 0 3.839-.732 5.303-2.197l12.557-12.557c2.929-2.929 2.929-7.678 0-10.606-2.929-2.929-7.678-2.929-10.606 0l-12.558 12.557c-2.929 2.929-2.929 7.678 0 10.606 1.465 1.465 3.384 2.197 5.304 2.197z"/><path d="m378.958 118.735-12.557 12.557c-2.929 2.929-2.929 7.678 0 10.606 1.464 1.464 3.384 2.197 5.303 2.197s3.839-.732 5.303-2.197l12.557-12.557c2.929-2.929 2.929-7.678 0-10.606-2.928-2.929-7.677-2.929-10.606 0z"/><path d="m500.8 75.622h-17.758c-4.142 0-7.5 3.358-7.5 7.5s3.358 7.5 7.5 7.5h17.758c4.142 0 7.5-3.358 7.5-7.5s-3.358-7.5-7.5-7.5z"/><path d="m374.813 83.122c0-4.142-3.358-7.5-7.5-7.5h-17.758c-4.142 0-7.5 3.358-7.5 7.5s3.358 7.5 7.5 7.5h17.758c4.143 0 7.5-3.358 7.5-7.5z"/><path d="m471.397 118.735c-2.928-2.929-7.677-2.929-10.606 0s-2.929 7.677 0 10.606l12.557 12.557c1.464 1.465 3.384 2.197 5.303 2.197s3.839-.732 5.303-2.197c2.929-2.929 2.929-7.677 0-10.606z"/><path d="m377.008 24.346c-2.929-2.93-7.678-2.929-10.606 0-2.929 2.929-2.929 7.678 0 10.606l12.557 12.557c1.464 1.465 3.384 2.197 5.303 2.197s3.839-.732 5.303-2.197c2.929-2.929 2.929-7.678 0-10.606z"/></g></g><g><path d="m30.56 440.643c9.652 0 9.668-15 0-15-9.652 0-9.668 15 0 15z" fill="#e7a661"/></g><g><path d="m134.116 482.508c9.652 0 9.668-15 0-15-9.651 0-9.667 15 0 15z" fill="#e7a661"/></g><g><path d="m160.209 425.775c9.652 0 9.668-15 0-15-9.652 0-9.668 15 0 15z" fill="#e7a661"/></g><g><path d="m358.976 512c9.652 0 9.668-15 0-15-9.652 0-9.668 15 0 15z" fill="#e7a661"/></g><g><path d="m447.922 470.292c9.652 0 9.668-15 0-15-9.652 0-9.668 15 0 15z" fill="#e7a661"/></g><g fill="#26c8f0"><path d="m344.849 386.235h-57.717c-9.697 0-9.697 15 0 15h57.717c9.697 0 9.697-15 0-15z"/><path d="m459.212 355.567h-128.996c-9.697 0-9.697 15 0 15h128.997c9.697 0 9.697-15-.001-15z"/></g></g></svg>