<?xml version="1.0" encoding="iso-8859-1"?>
<!-- Generator: Adobe Illustrator 19.0.0, SVG Export Plug-In . SVG Version: 6.00 Build 0)  -->
<svg xmlns="http://www.w3.org/2000/svg" xmlns:xlink="http://www.w3.org/1999/xlink" version="1.1" id="Layer_1" x="0px" y="0px" viewBox="0 0 511.999 511.999" style="enable-background:new 0 0 511.999 511.999;" xml:space="preserve">
<path style="fill:#F7A539;" d="M490.531,201.03h-13.492c1.466,7.007,2.234,14.174,2.234,21.468s-0.767,14.463-2.234,21.468h13.492  c11.857,0,21.468-9.609,21.468-21.468C512,210.642,502.388,201.03,490.531,201.03z"/>
<path style="fill:#F48F2A;" d="M490.531,226.999h-11.364c-0.251,5.745-0.966,11.408-2.129,16.967h13.492  c11.857,0,21.468-9.609,21.468-21.468c0-3.014-0.627-5.879-1.748-8.483C506.962,221.651,499.374,226.999,490.531,226.999z"/>
<g>
	<path style="fill:#E6E9ED;" d="M118.029,68.566H58.471c0,0-23.106,0.115-6.814,23.554c0.001,0.001,0.002,0.003,0.003,0.006   l43.617,62.746c14.473-19.048,34.772-35.552,59.214-48.325L118.029,68.566z"/>
	<path style="fill:#E6E9ED;" d="M118.029,375.611H58.471c0,0-23.106-0.115-6.814-23.555c0.001-0.001,0.002-0.002,0.003-0.004   l43.617-62.747c14.473,19.048,34.772,35.552,59.214,48.326L118.029,375.611z"/>
</g>
<g>
	<path style="fill:#CCD4DD;" d="M79.235,92.126c-0.001-0.002-0.002-0.004-0.003-0.006c-16.293-23.44,6.814-23.554,6.814-23.554   H58.471c0,0-23.106,0.115-6.814,23.554c0.001,0.001,0.002,0.003,0.003,0.006l43.617,62.746c4.599-6.054,9.792-11.847,15.514-17.348   L79.235,92.126z"/>
	<path style="fill:#CCD4DD;" d="M79.231,352.056c0.001-0.001,0.002-0.002,0.003-0.004l31.557-45.398   c-5.722-5.503-10.915-11.296-15.514-17.349l-43.617,62.747c-0.001,0.002-0.002,0.003-0.003,0.004   c-16.293,23.44,6.814,23.555,6.814,23.555h27.573C86.045,375.611,62.937,375.497,79.231,352.056z"/>
</g>
<g>
	<path style="fill:#BEC6CC;" d="M227.238,406.101c-2.038,0-4.082-0.742-5.692-2.242l-80.198-74.712   c-3.376-3.144-3.563-8.431-0.418-11.807c3.143-3.376,8.431-3.563,11.807-0.418l80.198,74.712c3.376,3.144,3.563,8.431,0.418,11.807   C231.708,405.207,229.476,406.101,227.238,406.101z"/>
	<path style="fill:#BEC6CC;" d="M324.358,406.101c-2.237,0-4.469-0.893-6.113-2.66c-3.146-3.376-2.958-8.662,0.418-11.807   l80.199-74.712c3.376-3.148,8.662-2.958,11.807,0.418c3.146,3.376,2.958,8.662-0.418,11.807l-80.199,74.712   C328.442,405.359,326.398,406.101,324.358,406.101z"/>
</g>
<path style="fill:#5BC5EF;" d="M376.756,95.73C346.892,83.803,312.39,76.996,275.64,76.996  c-106.923,0-194.797,57.618-204.887,131.321h35.369c7.833,0,14.183,6.348,14.183,14.182c0,7.833-6.351,14.183-14.183,14.183h-35.37  c10.088,73.701,97.965,131.319,204.887,131.319c113.694,0,205.86-65.144,205.86-145.503c0-46.55-30.928-87.995-79.053-114.629"/>
<path style="fill:#97D3EE;" d="M402.448,107.869L376.756,95.73C346.892,83.803,312.39,76.996,275.64,76.996  c-23.766,0-46.587,2.854-67.826,8.09c-2.06,11.609-3.136,23.556-3.136,35.757c0,112.317,91.05,203.365,203.365,203.365  c5.25,0,10.453-0.199,15.603-0.59c35.81-26.179,57.854-61.827,57.854-101.118C481.501,175.948,450.573,134.503,402.448,107.869z"/>
<path style="fill:#A6DEED;" d="M73.186,239.4c17.613,43.233,101.551,75.993,202.454,75.993c113.694,0,205.86-41.591,205.86-92.894  s-92.167-92.893-205.86-92.893c-100.111,0-183.523,32.246-202.028,74.976"/>
<path style="fill:#C0EAF9;" d="M275.639,129.605c-24.748,0-48.473,1.973-70.452,5.586c5.64,80.887,58.573,148.728,131.337,176.071  c83.97-11.716,144.975-47.025,144.975-88.764C481.501,171.195,389.334,129.605,275.639,129.605z"/>
<path style="fill:#5BC5EF;" d="M94.021,239.15c34.671,11.124,102.994,18.691,181.619,18.691c113.694,0,205.86-15.825,205.86-35.343  s-92.167-35.343-205.86-35.343c-80.193,0-149.671,7.873-183.653,19.363"/>
<path style="fill:#97D3EE;" d="M275.639,187.154c-20.642,0-40.566,0.526-59.366,1.496c9.125,25.805,23.297,49.223,41.351,69.053  c5.939,0.088,11.944,0.139,18.017,0.139c113.694,0,205.86-15.825,205.86-35.343S389.334,187.154,275.639,187.154z"/>
<path style="fill:#F7A539;" d="M106.121,205.531H16.967C7.611,205.531,0,213.142,0,222.498s7.611,16.968,16.967,16.968h89.155  c9.357,0,16.968-7.612,16.968-16.968S115.478,205.531,106.121,205.531z"/>
<path style="fill:#F48F2A;" d="M106.121,222.499H16.967c-6.263,0-11.732-3.421-14.671-8.484C0.844,216.514,0,219.406,0,222.498  c0,9.355,7.611,16.968,16.967,16.968h89.155c9.357,0,16.968-7.612,16.968-16.968c0-3.092-0.844-5.984-2.296-8.483  C117.855,219.078,112.386,222.499,106.121,222.499z"/>
<path style="fill:#9B7A64;" d="M280.69,392.299h-45.893c-7.949,0-14.39,6.443-14.39,14.39v16.658  c0,11.093,8.991,20.085,20.084,20.085h70.297c11.093,0,20.084-8.992,20.084-20.085v-16.658c0-7.948-6.442-14.39-14.391-14.39h-8.502  "/>
<path style="fill:#8C6854;" d="M310.788,417.866h-70.297c-9.435,0-17.326-6.514-19.483-15.282c-0.388,1.302-0.603,2.677-0.603,4.106  v16.658c0,11.093,8.991,20.085,20.084,20.085h70.297c11.093,0,20.084-8.992,20.084-20.085v-16.658c0-1.428-0.215-2.804-0.602-4.106  C328.115,411.352,320.222,417.866,310.788,417.866z"/>
<g>
</g>
<g>
</g>
<g>
</g>
<g>
</g>
<g>
</g>
<g>
</g>
<g>
</g>
<g>
</g>
<g>
</g>
<g>
</g>
<g>
</g>
<g>
</g>
<g>
</g>
<g>
</g>
<g>
</g>
</svg>
