<?xml version="1.0" encoding="iso-8859-1"?>
<!-- Generator: Adobe Illustrator 19.0.0, SVG Export Plug-In . SVG Version: 6.00 Build 0)  -->
<svg xmlns="http://www.w3.org/2000/svg" xmlns:xlink="http://www.w3.org/1999/xlink" version="1.1" id="Layer_1" x="0px" y="0px" viewBox="0 0 511.998 511.998" style="enable-background:new 0 0 511.998 511.998;" xml:space="preserve">
<g>
	<path style="fill:#E6E9ED;" d="M118.739,73.759H61.002c0,0-22.4,0.111-6.604,22.834c0.001,0.001,0.002,0.003,0.003,0.005   l42.284,60.827c14.03-18.466,33.709-34.465,57.403-46.847L118.739,73.759z"/>
	<path style="fill:#E6E9ED;" d="M118.739,373.573H61.002c0,0-22.4-0.111-6.604-22.835c0.001-0.001,0.002-0.002,0.003-0.004   l42.284-60.828c14.03,18.466,33.709,34.465,57.403,46.848L118.739,373.573z"/>
</g>
<path style="fill:#41ADCE;" d="M370.635,101.17c-28.953-11.562-62.399-18.16-98.025-18.16  c-103.653,0-188.841,55.856-198.622,127.305h34.287c7.593,0,13.749,6.154,13.749,13.748c0,7.593-6.157,13.749-13.749,13.749H73.988  c9.78,71.447,94.969,127.304,198.622,127.304c110.217,0,199.565-63.152,199.565-141.053c0-45.127-29.982-85.305-76.636-111.124"/>
<path style="fill:#A6DEED;" d="M76.347,240.448c17.074,41.91,98.445,73.669,196.262,73.669c110.217,0,199.565-40.319,199.565-90.055  s-89.348-90.054-199.565-90.054c-97.05,0-177.91,31.26-195.849,72.684"/>
<path style="fill:#41ADCE;" d="M96.545,240.206c33.61,10.784,99.844,18.119,176.064,18.119c110.217,0,199.565-15.341,199.565-34.263  s-89.348-34.264-199.565-34.264c-77.739,0-145.093,7.632-178.037,18.77"/>
<g>
	<path style="fill:#F7A539;" d="M483.09,203.251h-13.08c1.421,6.793,2.166,13.741,2.166,20.811c0,7.072-0.744,14.02-2.166,20.811   h13.08c11.495,0,20.811-9.316,20.811-20.811C503.901,212.568,494.584,203.251,483.09,203.251z"/>
	<path style="fill:#F7A539;" d="M122.026,224.063c0,7.593-6.157,13.749-13.749,13.749H21.848c-7.593,0-13.748-6.156-13.748-13.749   l0,0c0-7.594,6.156-13.748,13.748-13.748h86.429C115.869,210.315,122.026,216.468,122.026,224.063L122.026,224.063z"/>
</g>
<path style="fill:#9B7A64;" d="M277.505,388.67h-44.489c-7.704,0-13.95,6.246-13.95,13.95v16.149  c0,10.754,8.716,19.471,19.47,19.471h68.146c10.754,0,19.47-8.717,19.47-19.471V402.62c0-7.705-6.245-13.95-13.951-13.95h-8.242"/>
<path style="fill:#F48F2A;" d="M478.196,226.452H467.18c-0.243,5.57-0.936,11.06-2.064,16.448h13.08  c11.495,0,20.811-9.316,20.811-20.811c0-2.922-0.608-5.699-1.694-8.224C494.125,221.268,486.768,226.452,478.196,226.452z"/>
<g>
	<path style="fill:#CCD4DD;" d="M90.274,95.704c-0.001-0.002-0.002-0.004-0.003-0.005c-15.796-22.724,6.605-22.834,6.605-22.834   H70.145c0,0-22.4,0.111-6.605,22.834c0.001,0.001,0.002,0.003,0.003,0.005l42.284,60.827c4.459-5.869,9.493-11.485,15.04-16.817   L90.274,95.704z"/>
	<path style="fill:#CCD4DD;" d="M90.271,347.685c0.001-0.001,0.002-0.002,0.003-0.004l30.592-44.01   c-5.547-5.333-10.581-10.95-15.04-16.818L63.543,347.68c-0.001,0.002-0.002,0.003-0.003,0.004   c-15.796,22.724,6.605,22.835,6.605,22.835h26.73C96.876,370.52,74.476,370.408,90.271,347.685z"/>
</g>
<path style="fill:#97D3EE;" d="M392.805,110.965l-24.906-11.768c-28.951-11.562-62.398-18.16-98.024-18.16  c-23.04,0-45.162,2.766-65.752,7.843c-1.997,11.254-3.041,22.836-3.041,34.663c0,108.882,88.265,197.147,197.147,197.147  c5.089,0,10.133-0.193,15.126-0.572c34.715-25.379,56.085-59.936,56.085-98.026C469.441,176.962,439.46,136.784,392.805,110.965z"/>
<path style="fill:#C0EAF9;" d="M269.876,132.035c-23.991,0-46.99,1.912-68.297,5.415c5.467,78.413,56.781,144.181,127.321,170.687  c81.402-11.358,140.542-45.587,140.542-86.049C469.441,172.354,380.093,132.035,269.876,132.035z"/>
<path style="fill:#97D3EE;" d="M269.876,187.825c-20.011,0-39.327,0.51-57.551,1.45c8.846,25.016,22.584,47.718,40.086,66.941  c5.758,0.085,11.579,0.135,17.466,0.135c110.217,0,199.565-15.341,199.565-34.263C469.441,203.166,380.093,187.825,269.876,187.825z  "/>
<path style="fill:#F48F2A;" d="M105.541,224.25H19.113c-6.072,0-11.374-3.316-14.222-8.225c-1.407,2.423-2.226,5.226-2.226,8.224  c0,9.069,7.378,16.449,16.448,16.449h86.429c9.07,0,16.449-7.379,16.449-16.449c0-2.998-0.819-5.801-2.226-8.224  C116.915,220.933,111.614,224.25,105.541,224.25z"/>
<path style="fill:#8C6854;" d="M303.948,411.481h-68.147c-9.146,0-16.797-6.315-18.887-14.815c-0.376,1.262-0.584,2.595-0.584,3.98  v16.149c0,10.754,8.716,19.471,19.47,19.471h68.147c10.754,0,19.47-8.717,19.47-19.471v-16.149c0-1.384-0.208-2.718-0.583-3.98  C320.746,405.168,313.094,411.481,303.948,411.481z"/>
<path style="fill:#231F20;" d="M483.09,195.153h-6.678c-9.527-35.28-36.405-66.861-76.95-89.3  c-3.914-2.166-8.842-0.747-11.008,3.165c-2.165,3.913-0.748,8.842,3.165,11.008c24.949,13.808,44.118,31.269,56.46,50.832  c-36.526-27.223-100.812-44.946-175.469-44.946c-47.507,0-93.83,7.574-130.439,21.325c-17.853,6.706-32.883,14.571-44.811,23.374  c1.818-2.86,3.788-5.676,5.895-8.442c13.154-17.254,31.993-32.593,54.503-44.369c33.04-17.292,73.139-26.692,114.853-26.692  c33.358,0,66.216,6.08,95.022,17.583c4.153,1.66,8.865-0.364,10.524-4.518c1.659-4.154-0.364-8.865-4.518-10.524  C342.94,81.39,308.006,74.91,272.611,74.91c-42.005,0-82.594,9.035-116.828,25.74l-31.201-32.5c-1.527-1.591-3.637-2.49-5.842-2.49  H60.962c-1.377,0.008-13.592,0.339-18.511,9.807c-3.57,6.868-1.802,15.508,5.251,25.682c0.016,0.024,0.032,0.048,0.049,0.071  l38.999,56.102c-9.739,14.019-16.393,29.146-19.593,44.893H21.847C9.8,202.216,0,212.016,0,224.063  c0,12.048,9.8,21.848,21.847,21.848h45.308c3.171,15.597,9.731,30.586,19.319,44.492l-38.695,55.667  c-0.011,0.016-0.023,0.031-0.032,0.048c-7.091,10.201-8.874,18.866-5.297,25.748c4.919,9.468,17.135,9.799,18.551,9.807h57.737  c2.205,0,4.315-0.9,5.842-2.49l29.5-30.728l60.251,42.517c-2.119,3.385-3.364,7.371-3.364,11.65v16.149  c0,15.202,12.367,27.57,27.569,27.57h68.146c15.202,0,27.569-12.368,27.569-27.57V402.62c0-4.216-1.21-8.145-3.272-11.498  l71.272-50.294c0.205-0.145,0.398-0.299,0.585-0.459c5.38-3.114,10.576-6.432,15.56-9.956c30.192-21.339,50.11-48.16,58.021-77.442  h6.671c15.941,0,28.91-12.97,28.91-28.91S499.031,195.153,483.09,195.153z M88.445,245.911h2.358  c0.885,0.893,1.988,1.596,3.268,2.006c35.577,11.415,103.989,18.507,178.539,18.507c53.75,0,104.353-3.605,142.485-10.152  c17.349-2.979,31.363-6.448,41.738-10.322c-23.011,34.202-98.065,60.068-184.225,60.068  C187.721,306.018,111.864,280.72,88.445,245.911z M463.67,224.063c-2.184,2.284-12.651,10.149-56.952,17.176  c-36.551,5.796-84.176,8.988-134.107,8.988c-57.754,0-111.438-4.257-148.228-11.453c3.554-3.887,5.742-9.042,5.742-14.713  c0-5.655-2.178-10.798-5.717-14.682c36.847-7.146,91.088-11.483,148.202-11.483c49.931,0,97.557,3.192,134.107,8.988  C451.018,213.914,461.484,221.779,463.67,224.063z M147.866,162.4c34.833-13.085,79.134-20.291,124.744-20.291  c86.159,0,161.212,25.865,184.224,60.067c-10.376-3.874-24.389-7.343-41.738-10.322c-38.133-6.547-88.735-10.152-142.485-10.152  c-76.393,0-145.607,7.357-180.631,19.197c-0.902,0.305-1.708,0.759-2.416,1.317h-1.099  C98.747,187.012,119.415,173.086,147.866,162.4z M61.08,92.019c-0.011-0.017-0.023-0.032-0.033-0.049  c-3.997-5.751-4.203-8.413-4.185-9.02c0.675-0.513,2.716-1.052,4.219-1.095h54.207l25.671,26.74  c-2.459,1.446-4.878,2.935-7.251,4.467c-14.208,9.169-26.437,19.592-36.483,30.948L61.08,92.019z M16.197,224.063  c0-3.115,2.534-5.65,5.65-5.65h52.141h34.287c3.116,0,5.651,2.535,5.651,5.65c0,3.116-2.535,5.651-5.651,5.651H73.988H21.847  C18.732,229.713,16.197,227.179,16.197,224.063z M115.287,365.475H61.08c-1.503-0.043-3.545-0.582-4.219-1.095  c-0.017-0.606,0.188-3.259,4.165-8.987c0.009-0.012,0.016-0.023,0.025-0.035l35.861-51.59  c10.103,11.491,22.441,22.032,36.794,31.294c2.218,1.431,4.478,2.822,6.769,4.178L115.287,365.475z M317.053,381.128  c-1.564-0.353-3.182-0.555-4.851-0.555h-8.242c-4.474,0-8.099,3.625-8.099,8.099s3.625,8.099,8.099,8.099h8.242  c3.227,0,5.853,2.625,5.853,5.852v16.149c0,6.272-5.102,11.373-11.372,11.373h-68.146c-6.271,0-11.372-5.102-11.372-11.373v-16.15  c0-3.227,2.625-5.852,5.852-5.852h44.489c4.474,0,8.099-3.625,8.099-8.099s-3.625-8.099-8.099-8.099h-44.488  c-1.586,0-3.131,0.177-4.624,0.497l-22.143-15.625c21.177,5.105,43.56,7.771,66.36,7.771c23.041,0,45.515-2.68,66.733-7.817  L317.053,381.128z M272.61,357.018c-40.613,0-79.7-8.907-112.228-25.337c-0.69-0.855-1.544-1.581-2.544-2.103  c-22.614-11.819-41.531-27.231-54.706-44.569c-0.54-0.711-1.188-1.304-1.905-1.788c-1.423-1.978-2.783-3.978-4.061-6.003  c11.863,8.828,26.737,16.737,44.159,23.353c36.758,13.959,83.382,21.646,131.285,21.646c74.629,0,138.895-17.708,175.428-44.915  C418.417,324.185,350.937,357.018,272.61,357.018z M483.09,236.775h-3.562c0.002-0.017,0.003-0.033,0.005-0.05  c0.105-0.912,0.199-1.826,0.282-2.742c0.029-0.314,0.054-0.627,0.08-0.942c0.06-0.739,0.118-1.478,0.163-2.219  c0.036-0.564,0.06-1.126,0.086-1.69c0.025-0.542,0.055-1.084,0.071-1.628c0.037-1.148,0.058-2.297,0.058-3.442  c0-1.272-0.03-2.547-0.076-3.823c-0.016-0.476-0.04-0.951-0.063-1.428c-0.037-0.759-0.082-1.517-0.135-2.275  c-0.042-0.619-0.083-1.236-0.136-1.853c-0.033-0.391-0.078-0.783-0.116-1.174c-0.069-0.721-0.131-1.443-0.214-2.162h3.555  c7.01,0,12.713,5.703,12.713,12.713S490.1,236.775,483.09,236.775z"/>
<g>
</g>
<g>
</g>
<g>
</g>
<g>
</g>
<g>
</g>
<g>
</g>
<g>
</g>
<g>
</g>
<g>
</g>
<g>
</g>
<g>
</g>
<g>
</g>
<g>
</g>
<g>
</g>
<g>
</g>
</svg>
