<svg id="Capa_1" enable-background="new 0 0 512 512" height="512" viewBox="0 0 512 512" width="512" xmlns="http://www.w3.org/2000/svg"><g><g><g><path d="m260.897 130.328 29.909 5.289c8.125 1.437 15.729 4.985 22.05 10.289l81.348 68.259c4.283 3.594 10.668 3.035 14.261-1.248l71.538-85.256c3.594-4.283 3.035-10.668-1.248-14.261l-123.383-103.531c-4.283-3.594-10.668-3.035-14.261 1.248l-86.206 102.736c-5.007 5.968-1.679 15.118 5.992 16.475z" fill="#fed2a4"/></g><g><path d="m425.293 184.719-85.778-71.976c-6.665-5.593-14.683-9.334-23.251-10.849l-31.538-5.578c-4.45-.787-7.501-4.064-8.478-7.898l-21.343 25.436c-5.008 5.968-1.68 15.118 5.992 16.475l29.909 5.289c8.125 1.437 15.729 4.985 22.05 10.289l81.348 68.259c4.283 3.594 10.668 3.035 14.261-1.248l21.724-25.889c-1.747-.326-3.438-1.086-4.896-2.31z" fill="#ffbd86"/></g></g><g><g><path d="m88.087 471.097h246.895l40.432-235.893c.53-3.092-1.852-5.917-4.989-5.917h-317.178c-3.132 0-5.512 2.816-4.991 5.904z" fill="#c4e2ff"/><path d="m307.141 471.097 41.446-241.81h-273.487l40.827 241.81z" fill="#eaf6ff"/><g><path d="m300.433 331.819c3.296-4.613 5.242-10.258 5.242-16.36 0-11.932-7.419-22.124-17.893-26.234 1.297-5.638 2.005-11.502 2.005-17.534 0-43.047-34.896-77.943-77.943-77.943s-77.944 34.897-77.944 77.944c0 6.032.708 11.896 2.005 17.534-10.474 4.11-17.893 14.302-17.893 26.234 0 6.102 1.946 11.746 5.242 16.36h177.179z" fill="#fff"/><g><path d="m141.875 330.819c-1.208-3.137-1.871-6.544-1.871-10.108 0-10.638 5.898-19.894 14.6-24.689 1.898-1.046 2.907-3.17 2.523-5.303-.804-4.472-1.235-9.073-1.235-13.776 0-7.454 1.068-14.655 3.022-21.481-2.066-.969-4.364-1.525-6.797-1.525h-16.162c-1.33 5.706-2.056 11.644-2.056 17.755 0 6.032.708 11.896 2.005 17.534-10.356 4.064-17.726 14.075-17.89 25.833-.081 5.814 1.692 11.234 4.749 15.76z" fill="#eaf6ff"/></g><g><path d="m287.731 253.936c-8.039-34.488-38.951-60.188-75.887-60.188s-67.848 25.7-75.887 60.188h16.162c8.867 0 16.055 7.188 16.055 16.055v16.697c0 8.867 7.188 16.055 16.055 16.055 8.867 0 16.055-7.188 16.055-16.055v-16.697c0-8.867 7.188-16.055 16.055-16.055z" fill="#883f2e"/></g><g><g><path d="m229.106 211.011c17.101 0 32.905 5.517 45.751 14.857-14.165-19.46-37.101-32.12-63.014-32.12-36.936 0-67.848 25.7-75.887 60.188h16.162c2.376 0 4.624.53 6.653 1.456 12.539-26.243 39.309-44.381 70.335-44.381z" fill="#6d3326"/></g></g></g><path d="m307.141 471.097 13.602-79.359h-218.215l13.399 79.359z" fill="#883f2e"/><path d="m148.747 471.097-13.399-79.359h-32.82l13.399 79.359z" fill="#6d3326"/><g><path d="m320.743 391.738 10.441-60.919h-238.941l10.285 60.919z" fill="#fed2a4"/></g><g><path d="m135.348 391.738-10.285-60.919h-32.82l10.285 60.919z" fill="#ffbd86"/></g></g></g><g><path d="m389.036 504.5h-354.4c-2.761 0-5-2.239-5-5v-23.403c0-2.761 2.239-5 5-5h354.399c2.761 0 5 2.239 5 5v23.403c.001 2.761-2.238 5-4.999 5z" fill="#017b4e"/></g><g><path d="m73.605 499.5v-23.403c0-2.761 2.239-5 5-5h-43.969c-2.761 0-5 2.239-5 5v23.403c0 2.761 2.239 5 5 5h43.969c-2.761 0-5-2.239-5-5z" fill="#026841"/></g><g><path d="m483.578 107.655-19.752-16.573c-3.174-2.664-7.904-2.249-10.566.924-2.663 3.174-2.249 7.904.925 10.566l19.751 16.573c1.107.93 1.253 2.588.323 3.695l-71.538 85.256c-.93 1.108-2.587 1.253-3.695.324l-81.348-68.26c-7.317-6.141-16.158-10.266-25.564-11.929l-29.91-5.29c-1.297-.229-1.814-1.154-2.008-1.686-.192-.531-.391-1.573.456-2.582l86.205-102.736c.607-.725 1.377-.892 1.781-.928.41-.035 1.191-.003 1.914.604l76.632 64.302c3.174 2.664 7.904 2.249 10.566-.924 2.663-3.174 2.249-7.904-.924-10.566l-76.632-64.301c-3.606-3.026-8.174-4.465-12.864-4.056-4.689.41-8.938 2.622-11.964 6.228l-79.213 94.403h-7.062c-23.671 0-42.928 19.257-42.928 42.928v42.831c-26.154 1.727-49.118 15.266-63.609 35.329h-89.307c-3.705 0-7.202 1.623-9.594 4.452s-3.409 6.547-2.793 10.201l38.353 227.156h-44.577c-6.893 0-12.5 5.607-12.5 12.5v23.404c0 6.893 5.607 12.5 12.5 12.5h354.399c6.893 0 12.5-5.607 12.5-12.5v-23.403c0-6.893-5.607-12.5-12.5-12.5h-45.16l5.199-30.33c.699-4.082-2.043-7.959-6.126-8.659-4.08-.695-7.959 2.043-8.659 6.126l-5.633 32.863h-12.621l38.875-226.81h12.622l-27.244 158.946c-.699 4.082 2.043 7.959 6.126 8.659 4.08.693 7.959-2.042 8.659-6.126l27.731-161.796c.628-3.657-.385-7.382-2.776-10.219-2.392-2.838-5.893-4.465-9.604-4.465h-89.292c-13.815-19.127-35.329-32.335-59.971-35.021v-43.139c0-14.211 10.672-25.968 24.42-27.7-.885 3.383-.741 7.002.515 10.457 2.177 5.985 7.221 10.221 13.492 11.33l29.91 5.29c6.82 1.206 13.229 4.196 18.534 8.647l81.349 68.26c3.295 2.766 7.313 4.115 11.313 4.115 5.033-.001 10.034-2.14 13.515-6.287l71.538-85.257c6.248-7.442 5.273-18.58-2.169-24.826zm-349.692 129.132c-4.794 10.665-7.485 22.473-7.485 34.904 0 4.458.356 8.94 1.063 13.387-10.467 6.409-16.952 17.761-16.952 30.382 0 2.7.305 5.33.877 7.859h-12.807l-14.61-86.532zm-77.754 0h12.628l38.294 226.81h-12.628zm330.404 241.81v18.403h-349.4v-18.403zm-275.136-79.359h200.447l-11.031 64.358h-178.55zm228.291-162.451-14.831 86.532h-12.562c.572-2.53.877-5.159.877-7.859 0-12.621-6.485-23.973-16.952-30.382.707-4.446 1.063-8.929 1.063-13.387 0-12.431-2.691-24.239-7.485-34.904zm-58.159 24.649c.491 3.349.755 6.771.755 10.255 0 5.286-.61 10.619-1.814 15.854-.832 3.62 1.111 7.306 4.57 8.662 7.978 3.131 13.133 10.688 13.133 19.253 0 2.785-.562 5.436-1.568 7.859h-104.604c-4.143 0-7.5 3.357-7.5 7.5s3.357 7.5 7.5 7.5h130.284l-7.87 45.919h-205.55l-7.753-45.919h53.889c4.143 0 7.5-3.357 7.5-7.5s-3.357-7.5-7.5-7.5h-27.924c-1.006-2.423-1.568-5.075-1.568-7.859 0-8.564 5.155-16.122 13.133-19.253 3.459-1.356 5.402-5.042 4.57-8.662-1.204-5.234-1.814-10.567-1.814-15.854 0-3.483.264-6.906.755-10.255h9.963c4.717 0 8.555 3.838 8.555 8.555v16.697c0 12.988 10.567 23.556 23.556 23.556s23.555-10.567 23.555-23.556v-16.697c0-4.717 3.838-8.555 8.556-8.555zm-3.945-15h-61.248c-12.988 0-23.556 10.566-23.556 23.555v16.697c0 4.718-3.838 8.556-8.555 8.556-4.718 0-8.556-3.838-8.556-8.556v-16.697c0-12.988-10.566-23.555-23.555-23.555h-6.018c10.177-26.4 35.8-45.188 65.743-45.188 29.945 0 55.568 18.788 65.745 45.188z"/><circle cx="152.504" cy="184.5" r="7.5"/><circle cx="184.504" cy="155.5" r="7.5"/><circle cx="243.504" cy="172.5" r="7.5"/></g></g></svg>