<svg id="Capa_1" enable-background="new 0 0 512 512" height="512" viewBox="0 0 512 512" width="512" xmlns="http://www.w3.org/2000/svg"><g><g><path d="m511.998 196.295c0 71.999-114.617 78.603-255.999 78.603s-255.999-6.604-255.999-78.603c0-.989.021-1.968.072-2.946 2.132-49.036 57.422-91.397 137.683-112.722 24.055-6.387 50.345-10.889 78.129-13.114 13.063-1.051 26.465-1.597 40.115-1.597 4.811 0 9.591.072 14.33.206 22.272.618 43.783 2.699 64.18 6.037 18.203 2.987 35.531 6.985 51.694 11.868 1.288.381 2.565.773 3.843 1.174 16.596 5.202 31.935 11.342 45.73 18.275 47.057 23.642 76.222 56.495 76.222 92.819z" fill="#c68d7a"/><g fill="#bc7c63"><path d="m511.998 196.295c0 71.999-114.617 78.603-255.999 78.603s-255.999-6.604-255.999-78.603c0-.989.021-1.968.072-2.946 76.295 75.996 347.654 61.224 408.795 30.019 53.579-27.351 30.04-92.881-22.664-139.342 1.288.381 2.565.773 3.843 1.174 16.596 5.202 31.935 11.342 45.73 18.275 47.057 23.643 76.222 56.496 76.222 92.82z"/><path d="m137.755 80.627c24.055-6.387 50.345-10.889 78.129-13.114-55.516 48.429-115.606 136.869-124.425 102.894-7.201-27.733 22.561-65.231 46.296-89.78z"/><path d="m390.045 85.201c16.596 5.202 31.935 11.342 45.73 18.275-40.877 43.844-76.511 87.534-83.146 61.976-6.325-24.354 15.855-56.228 37.416-80.251z"/><path d="m270.329 66.122c22.272.618 43.783 2.699 64.18 6.037-52.745 53.528-102.781 120.86-111.135 88.677-7.531-29.01 21.581-67.693 46.955-94.714z"/></g></g><g><path d="m505.714 345.147c-5.295 6.367-13.001 9.797-20.902 9.797-3.719 0-7.479-.762-11.033-2.349-3.049-1.35-6.047-2.606-8.993-3.77-41.166-16.318-72.421-15.638-72.421-15.638h-59.101s-16.421-.361-41.135 5.656c-11.826 2.885-25.548 7.222-40.28 13.753-11.126 4.935-24.168 1.906-31.946-7.448-4.141-4.976-6.274-11.146-6.274-17.379 0-3.894.834-7.829 2.534-11.517 6.428-13.887 18.687-33.677 40.599-48.933 14.732-10.271 33.81-18.482 58.411-21.49h95.271c22.468 2.74 40.342 9.828 54.496 18.852 24.384 15.576 37.725 36.88 44.524 51.571 4.419 9.569 2.997 20.798-3.75 28.895z" fill="#ffe177"/><path d="m375.51 333.187h-42.248s-16.421-.361-41.135 5.656c-1.463-40.146-22.272-61.811-35.366-71.525 14.732-10.271 33.81-18.482 58.411-21.49h43.041z" fill="#fece85"/><path d="m505.714 345.15c-5.293 6.359-13.006 9.796-20.898 9.796-3.724 0-7.485-.766-11.042-2.347-3.042-1.353-6.048-2.611-8.994-3.773 19.197-29.82 9.581-63.639.156-84.142 24.383 15.569 37.724 36.873 44.526 51.567 4.419 9.57 2.994 20.803-3.748 28.899z" fill="#fece85"/><path d="m434.396 245.822c-6.027 29.123-12.053 58.236-18.08 87.359-1.504 7.253-6.923 12.774-13.65 14.67-2.442.7-5.058.907-7.716.556-2.194-.288-4.389-.546-6.583-.762-.381-.041-.773-.083-1.154-.113-18.811-1.906-37.787-1.597-56.547.875-10.003 1.329-19.306-5.336-21.356-15.226-6.037-29.123-12.063-58.236-18.1-87.359-1.473-7.15 1.195-14.176 6.336-18.585 2.637-2.267 5.924-3.853 9.632-4.409 4.739-.721 9.478-1.339 14.237-1.875 22.046-2.462 44.257-2.957 66.375-1.463 10.25.68 20.48 1.792 30.658 3.338 10.921 1.638 18.194 12.177 15.948 22.994z" fill="#ffe177"/><path d="m434.398 245.823c-6.024 29.125-12.06 58.238-18.083 87.363-2.048 9.88-11.365 16.551-21.365 15.221-2.192-.287-4.383-.551-6.587-.766 17.652-53.759 8.922-100.154-.575-128.153 10.251.683 20.479 1.796 30.658 3.341 10.922 1.641 18.192 12.179 15.952 22.994z" fill="#fece85"/></g><g><path d="m408.681 436.285c-5.295 6.367-13.001 9.797-20.902 9.797-3.719 0-7.479-.762-11.033-2.349-3.049-1.35-6.047-2.606-8.993-3.77-41.166-16.318-72.421-15.638-72.421-15.638h-59.102s-16.421-.361-41.135 5.656c-11.826 2.885-25.548 7.222-40.28 13.753-11.126 4.935-24.168 1.906-31.946-7.448-4.141-4.976-6.274-11.146-6.274-17.379 0-3.894.834-7.829 2.534-11.517 6.428-13.887 18.687-33.677 40.599-48.933 14.732-10.271 33.81-18.482 58.411-21.49h95.271c22.468 2.74 40.342 9.828 54.496 18.852 24.384 15.576 37.725 36.88 44.524 51.571 4.42 9.569 2.999 20.798-3.749 28.895z" fill="#ffe177"/><path d="m278.477 424.325h-42.247s-16.421-.361-41.135 5.656c-1.463-40.146-22.272-61.811-35.366-71.525 14.732-10.271 33.81-18.482 58.411-21.49h43.041z" fill="#fece85"/><path d="m408.681 436.288c-5.293 6.359-13.006 9.796-20.898 9.796-3.724 0-7.485-.766-11.042-2.347-3.042-1.353-6.048-2.611-8.994-3.773 19.197-29.82 9.581-63.639.156-84.142 24.383 15.569 37.724 36.874 44.526 51.568 4.42 9.569 2.995 20.803-3.748 28.898z" fill="#fece85"/><path d="m337.364 336.962c-6.027 29.123-12.053 58.236-18.08 87.36-1.504 7.252-6.923 12.774-13.65 14.67-2.442.701-5.058.907-7.716.556-2.194-.288-4.389-.556-6.583-.773-.381-.041-.773-.082-1.154-.113-18.811-1.896-37.787-1.587-56.547.886-10.003 1.329-19.306-5.347-21.356-15.226-6.037-29.123-12.063-58.236-18.1-87.36-1.473-7.149 1.195-14.175 6.336-18.584 2.637-2.266 5.924-3.853 9.632-4.409 4.739-.721 9.478-1.339 14.237-1.875 22.046-2.462 44.257-2.956 66.375-1.463 10.25.68 20.48 1.793 30.658 3.338 10.92 1.637 18.193 12.176 15.948 22.993z" fill="#ffe177"/><path d="m337.366 336.961c-6.024 29.125-12.06 58.238-18.083 87.363-2.048 9.88-11.365 16.551-21.365 15.221-2.192-.287-4.383-.551-6.587-.766 17.652-53.759 8.922-100.154-.575-128.153 10.251.683 20.479 1.796 30.658 3.341 10.922 1.641 18.191 12.18 15.952 22.994z" fill="#fece85"/></g><g fill="#fece85"><path d="m305.634 438.991c-2.442.701-5.058.907-7.716.556-2.194-.288-4.389-.556-6.583-.773-.381-.041-.773-.082-1.154-.113-.196-27.547-9.931-53.889-28.175-76.244-14.711-18.018-34.686-33.079-54.785-41.3l-6.706-2.74c2.637-2.266 5.924-3.853 9.632-4.409 4.739-.721 9.478-1.339 14.237-1.875 18.44 9.632 36.056 23.962 49.593 40.548 20.593 25.229 31.533 55.084 31.657 86.35z"/><path d="m402.667 347.851c-2.442.7-5.058.907-7.716.556-2.194-.288-4.389-.546-6.583-.762-.381-.041-.773-.083-1.154-.113-.196-27.547-9.931-53.899-28.175-76.254-14.711-18.018-34.686-33.079-54.785-41.3l-6.707-2.74c2.637-2.267 5.924-3.853 9.632-4.409 4.739-.721 9.478-1.339 14.237-1.875 18.44 9.632 36.056 23.962 49.593 40.548 20.594 25.228 31.534 55.083 31.658 86.349z"/></g></g></svg>