<svg id="Capa_1" enable-background="new 0 0 512 512" height="512" viewBox="0 0 512 512" width="512" xmlns="http://www.w3.org/2000/svg"><g><g><g><path d="m414.301 259c-7.821 0-15.041 2.684-20.801 7.167v32.833h82.539c-.987-16.237-14.571-29.216-31.044-29.216h-5.916c-6.217-6.624-15.033-10.784-24.778-10.784z" fill="#fed402"/></g><path d="m393.5 324h90v41.5h-90z" fill="#c4e2ff"/><path d="m489.5 299h-96v26h96c2.761 0 5-2.239 5-5v-16c0-2.761-2.239-5-5-5z" fill="#eaf6ff"/><g><path d="m144.5 104c-72.333 0-120 34.026-120 76 0 15.612 7.438 30.122 20.185 42.193 3.034 2.873 4.815 6.825 4.815 11.004v3.487c9.049-12.504 23.747-20.684 40.27-20.684h27.53c27.335 0 49.7 22.365 49.7 49.699 0 7.383-2.199 14.274-5.962 20.066.773-.036 1.549-.059 2.331-.059h28.03c4.168 0 8.219.521 12.101 1.483v-53.992c0-4.179-1.781-8.13-4.815-11.004-12.747-12.071-20.185-26.581-20.185-42.193 0-41.762 53.187-75.651 119-75.992v-.008z" fill="#ffbd86"/></g><g><path d="m44.685 222.193c3.034 2.873 4.815 6.825 4.815 11.004v3.487c7.328-10.125 18.361-17.405 31.071-19.81-9.592-10.922-15.071-23.49-15.071-36.874 0-41.974 47.667-76 120-76h-41c-72.333 0-120 34.026-120 76 0 15.612 7.438 30.122 20.185 42.193z" fill="#f6a96c"/></g><path d="m298.5 104c-66.274 0-120 34.026-120 76 0 15.612 7.438 30.122 20.185 42.193 3.034 2.873 4.815 6.825 4.815 11.004v53.992c22.036 5.461 38.5 25.456 38.5 49.119 0 11.739-5.442 22.266-13.924 29.193h165.424v-132.305c0-4.179 1.781-8.13 4.815-11.004 12.747-12.07 20.185-26.58 20.185-42.192 0-41.974-53.726-76-120-76z" fill="#d88a55"/><path d="m369.977 147.38c-18.444-11.681-44.496-18.38-71.477-18.38s-53.033 6.699-71.477 18.38c-14.95 9.469-23.523 21.357-23.523 32.62 0 10.185 6.729 18.694 12.374 24.039 8.023 7.597 12.626 18.224 12.626 29.157v68.804c8.365 9.036 13.5 21.098 13.5 34.307 0 11.539-5.265 21.899-13.5 28.827v.366h140v-132.304c0-10.934 4.603-21.561 12.627-29.158 5.644-5.344 12.373-13.854 12.373-24.038 0-11.263-8.574-23.151-23.523-32.62z" fill="#fff"/><path d="m241.874 204.039c-5.645-5.345-12.374-13.854-12.374-24.039 0-11.263 8.574-23.151 23.523-32.62 15.457-9.789 36.263-16.062 58.477-17.842-4.292-.344-8.631-.538-13-.538-26.981 0-53.033 6.699-71.477 18.38-14.95 9.469-23.523 21.357-23.523 32.62 0 10.185 6.729 18.694 12.374 24.039 8.023 7.597 12.626 18.224 12.626 29.157v68.804c8.365 9.036 13.5 21.098 13.5 34.307 0 11.539-5.265 21.899-13.5 28.827v.366h26v-132.304c0-10.933-4.603-21.56-12.626-29.157z" fill="#eaf6ff"/><g><path d="m68.51 285.706h28.03c12.779 0 24.484 4.81 33.415 12.698 8.385-7.405 19.214-12.093 31.084-12.639 3.763-5.792 5.962-12.682 5.962-20.066-.001-27.334-22.366-49.699-49.7-49.699h-27.531c-27.335 0-49.699 22.365-49.699 49.699 0 9.122 3.351 17.495 8.874 23.966 6.026-2.547 12.638-3.959 19.565-3.959z" fill="#fe9901"/><path d="m68.51 285.706h9.079c-3.74-5.78-5.924-12.648-5.924-20.006 0-26.653 21.266-48.571 47.667-49.647-.675-.028-1.351-.052-2.032-.052h-27.53c-27.335 0-49.699 22.365-49.699 49.699 0 9.122 3.351 17.495 8.874 23.966 6.026-2.548 12.638-3.96 19.565-3.96z" fill="#fb8801"/></g><g><path d="m112.768 336.307c0-15.051 6.668-28.614 17.187-37.903-8.931-7.888-20.635-12.698-33.415-12.698h-28.03c-27.831 0-50.601 22.771-50.601 50.601 0 11.739 5.442 22.266 13.924 29.193h94.859c-8.483-6.927-13.924-17.454-13.924-29.193z" fill="#ffbd86"/><path d="m31.833 365.5h34.078c-8.482-6.927-13.924-17.454-13.924-29.193 0-26.815 21.141-48.923 47.577-50.502-1.002-.06-2.008-.099-3.024-.099h-28.03c-27.831 0-50.601 22.771-50.601 50.601 0 11.739 5.441 22.266 13.924 29.193z" fill="#f6a96c"/></g><g><path d="m126.692 365.5h101.384c8.482-6.927 13.924-17.454 13.924-29.193 0-27.831-22.771-50.601-50.601-50.601h-28.03c-27.831 0-50.601 22.771-50.601 50.601 0 11.739 5.441 22.266 13.924 29.193z" fill="#883f2e"/><path d="m126.692 365.5h34.078c-8.482-6.927-13.924-17.454-13.924-29.193 0-26.815 21.141-48.923 47.577-50.502-1.002-.06-2.008-.099-3.024-.099h-28.03c-27.831 0-50.601 22.771-50.601 50.601-.001 11.739 5.441 22.266 13.924 29.193z" fill="#6d3326"/></g></g><g><path d="m12.5 408h487c2.761 0 5-2.239 5-5v-32.5c0-2.761-2.239-5-5-5h-487c-2.761 0-5 2.239-5 5v32.5c0 2.761 2.239 5 5 5z" fill="#fe646f"/></g><g><path d="m60 403v-32.5c0-2.761 2.239-5 5-5h-52.5c-2.761 0-5 2.239-5 5v32.5c0 2.761 2.239 5 5 5h52.5c-2.761 0-5-2.239-5-5z" fill="#fd4755"/></g><g><circle cx="283" cy="313.5" r="7.5"/><circle cx="258" cy="292.5" r="7.5"/><circle cx="267.5" cy="338.5" r="7.5"/><circle cx="312" cy="336.5" r="7.5"/><circle cx="286" cy="278.5" r="7.5"/><circle cx="259" cy="259.5" r="7.5"/><path d="m499.5 358h-8.5v-25.599c6.187-.745 11-6.017 11-12.401v-16c0-6.893-5.607-12.5-12.5-12.5h-7.057c-4.205-16.764-19.399-29.216-37.449-29.216h-2.858c-7.61-6.89-17.579-10.784-27.835-10.784-4.552 0-9.045.774-13.301 2.232v-20.536c0-2.045.901-4.07 2.472-5.558 14.738-13.954 22.528-30.428 22.528-47.638 0-22.962-13.721-44.298-38.634-60.076-23.85-15.106-55.41-23.424-88.866-23.424h-154c-36.272 0-67.823 8.122-91.24 23.489-23.383 15.345-36.26 36.657-36.26 60.011 0 17.21 7.79 33.684 22.529 47.639 1.57 1.487 2.471 3.513 2.471 5.558v1.094c-5.952 9.022-9.429 19.815-9.429 31.409 0 7.677 1.963 14.899 5.401 21.208-16.528 10.255-27.563 28.56-27.563 49.4 0 7.86 2.029 15.249 5.574 21.692h-3.483c-6.893 0-12.5 5.607-12.5 12.5v32.5c0 6.893 5.607 12.5 12.5 12.5h95.5c4.142 0 7.5-3.357 7.5-7.5s-3.358-7.5-7.5-7.5h-93v-27.5h482v27.5h-353c-4.142 0-7.5 3.357-7.5 7.5s3.358 7.5 7.5 7.5h355.5c6.893 0 12.5-5.607 12.5-12.5v-32.5c0-6.893-5.607-12.5-12.5-12.5zm-12.5-40.5h-18c-4.142 0-7.5 3.357-7.5 7.5s3.358 7.5 7.5 7.5h7v25.5h-75v-25.5h32c4.142 0 7.5-3.357 7.5-7.5s-3.358-7.5-7.5-7.5h-32v-11h86zm-72.699-51c7.358 0 14.215 2.989 19.308 8.416 1.418 1.511 3.397 2.368 5.469 2.368h5.916c9.677 0 17.985 5.865 21.624 14.216h-65.618v-21.392c3.998-2.351 8.543-3.608 13.301-3.608zm-34.961-133.904c20.416 12.93 31.66 29.765 31.66 47.404 0 12.987-6.169 25.694-17.841 36.746-4.549 4.307-7.159 10.303-7.159 16.45v124.804h-10v-62c0-4.143-3.358-7.5-7.5-7.5s-7.5 3.357-7.5 7.5v62h-117.075c3.546-6.443 5.575-13.833 5.575-21.693 0-14.135-5.079-27.102-13.5-37.186v-65.925c0-12.983-5.456-25.596-14.97-34.604-4.575-4.331-10.03-11.074-10.03-18.592 0-8.512 7.49-18.338 20.036-26.284 17.276-10.94 41.865-17.216 67.464-17.216s50.188 6.275 67.463 17.216c12.547 7.946 20.037 17.772 20.037 26.284 0 7.518-5.454 14.26-10.029 18.592-9.514 9.008-14.971 21.621-14.971 34.604v26.804c0 4.143 3.358 7.5 7.5 7.5s7.5-3.357 7.5-7.5v-26.804c0-8.882 3.749-17.524 10.284-23.712 6.714-6.357 14.716-16.631 14.716-29.484 0-13.885-9.845-28.084-27.011-38.956-19.611-12.421-47.126-19.544-75.489-19.544s-55.878 7.123-75.49 19.544c-17.165 10.872-27.01 25.071-27.01 38.956 0 12.853 8.003 23.128 14.718 29.485 6.535 6.187 10.282 14.829 10.282 23.711v53.143c-3.155-1.876-6.499-3.464-10-4.723v-48.42c0-6.147-2.609-12.144-7.158-16.45-11.673-11.052-17.842-23.759-17.842-36.746 0-17.639 11.244-34.474 31.66-47.404 21.48-13.604 50.189-21.096 80.84-21.096s59.36 7.492 80.84 21.096zm-249.829 225.404c-5.688-5.493-9.243-13.18-9.243-21.693 0-22.084 16.699-40.332 38.132-42.805l-7.353 23.529c-1.235 3.954.968 8.16 4.921 9.396.745.233 1.499.344 2.24.344 3.193 0 6.153-2.056 7.156-5.265l8.844-28.299h14.232l-7.445 23.824c-1.235 3.954.968 8.16 4.921 9.396.745.233 1.499.344 2.24.344 3.193 0 6.153-2.056 7.156-5.265l8.29-26.529c17.84 5.277 30.898 21.803 30.898 41.331 0 8.513-3.555 16.2-9.243 21.692zm-97.511-178c0-18.132 10.473-34.99 29.49-47.47 20.666-13.562 50.146-21.03 83.01-21.03h80.783c-5.503 2.518-10.747 5.319-15.649 8.424-24.913 15.778-38.634 37.114-38.634 60.076 0 17.21 7.79 33.684 22.529 47.639 1.57 1.487 2.471 3.513 2.471 5.558v45.209c-1.52-.12-3.051-.199-4.601-.199h-18.706c1.168-3.97 1.807-8.164 1.807-12.507 0-31.54-25.66-57.199-57.199-57.199h-27.53c-13.705 0-26.297 4.849-36.158 12.917-1.043-1.697-2.297-3.276-3.77-4.671-11.674-11.053-17.843-23.76-17.843-36.747zm15.571 85.699c0-21.552 16.244-39.37 37.129-41.884l-7.16 22.911c-1.235 3.954.968 8.16 4.922 9.396.745.233 1.498.344 2.239.344 3.193 0 6.153-2.056 7.156-5.265l8.656-27.701h13.698l-7.258 23.227c-1.235 3.954.968 8.16 4.921 9.396.745.233 1.499.344 2.24.344 3.193 0 6.153-2.056 7.156-5.265l8.104-25.932c17.402 5.207 30.125 21.357 30.125 40.43 0 4.629-1.08 9.008-2.987 12.911-9.803 1.161-18.862 4.779-26.555 10.208-9.458-6.679-20.984-10.612-33.418-10.612h-28.029c-5.848 0-11.493.877-16.821 2.492-2.61-4.4-4.118-9.524-4.118-15zm-22.162 70.608c0-22.084 16.699-40.332 38.132-42.805l-7.353 23.529c-1.235 3.954.968 8.16 4.921 9.396.745.233 1.499.344 2.24.344 3.193 0 6.153-2.056 7.156-5.265l8.844-28.299h12.167l-7.446 23.823c-1.235 3.954.968 8.16 4.921 9.396.745.233 1.499.344 2.24.344 3.193 0 6.153-2.056 7.156-5.265l8.452-27.046c4.197 1.033 8.151 2.685 11.765 4.85-8.326 10.057-13.337 22.953-13.337 36.998 0 7.86 2.029 15.249 5.574 21.692h-76.19c-5.687-5.492-9.242-13.179-9.242-21.692z"/></g></g></svg>