<svg id="Capa_1" enable-background="new 0 0 512 512" height="512" viewBox="0 0 512 512" width="512" xmlns="http://www.w3.org/2000/svg"><g><g><path d="m380.58 180.07-1.9 33.12h-245.36l-1.9-33.12z" fill="#fef0ae"/><path d="m380.58 180.07-1.9 33.12h-24l1.9-33.12z" fill="#fee97d"/><path d="m378.68 213.19-2.91 50.67h-239.54l-2.91-50.67z" fill="#b57f5f"/><path d="m378.68 213.19-2.91 50.67h-24l2.91-50.67z" fill="#9f6e50"/><path d="m375.77 263.86-11.46 199.44c-.49 8.47-7.5 15.09-15.98 15.09h-184.66c-8.48 0-15.49-6.62-15.98-15.09l-11.46-199.44z" fill="#e2a975"/><path d="m375.77 263.86-11.46 199.44c-.49 8.47-7.5 15.09-15.98 15.09h-24c8.48 0 15.49-6.62 15.98-15.09l11.46-199.44z" fill="#b57f5f"/><path d="m385.908 180.071h-259.815c-6.866 0-11.968-7.062-10.482-14.508l3.617-18.119c2.378-11.912 11.886-20.389 22.87-20.389h227.805c10.983 0 20.492 8.477 22.87 20.389l3.617 18.119c1.486 7.447-3.616 14.508-10.482 14.508z" fill="#d8ecfe"/><path d="m385.91 180.07h-24c6.86 0 11.97-7.06 10.48-14.51l-3.62-18.12c-2.38-11.91-11.88-20.38-22.87-20.38h24c10.99 0 20.49 8.47 22.87 20.38l3.62 18.12c1.49 7.45-3.62 14.51-10.48 14.51z" fill="#b3dafe"/><path d="m366.204 127.055h-220.407c0-48.608 39.405-88.013 88.013-88.013h44.381c48.608 0 88.013 39.405 88.013 88.013z" fill="#d8ecfe"/><path d="m366.2 127.06h-24c0-48.61-39.4-88.02-88.01-88.02h24c48.61 0 88.01 39.41 88.01 88.02z" fill="#b3dafe"/><path d="m168.379 478.388h175.243v26.112h-175.243z" fill="#d8ecfe"/><path d="m318.29 478.39h25.33v26.11h-25.33z" fill="#b3dafe"/><g fill="#b57f5f"><circle cx="180.007" cy="389.545" r="12.666"/><circle cx="230.669" cy="389.545" r="12.666"/><circle cx="281.332" cy="389.545" r="12.666"/><circle cx="331.994" cy="389.545" r="12.666"/><circle cx="205.338" cy="440.3" r="12.666"/><circle cx="256" cy="440.3" r="12.666"/><circle cx="306.663" cy="440.3" r="12.666"/></g><path d="m273.73 13.948v288.707c0 2.061-1.019 3.99-2.723 5.151l-22.993 15.672c-4.138 2.82-9.744-.143-9.744-5.151v-304.379c0-3.561 2.887-6.448 6.448-6.448h22.563c3.562 0 6.449 2.887 6.449 6.448z" fill="#b3e59f"/><path d="m238.27 39.042h35.46v141.029h-35.46z" fill="#95d6a4"/><path d="m273.73 180.07v122.585c0 2.061-1.019 3.99-2.723 5.151l-22.993 15.672c-4.138 2.82-9.744-.143-9.744-5.151v-138.257z" fill="#78c2a4"/></g><g><path d="m403.744 164.095-3.617-18.118c-2.804-14.05-13.743-24.558-26.698-26.193-3.652-48.283-43.361-86.652-92.197-88.188v-24.096c0-4.143-3.358-7.5-7.5-7.5h-35.464c-4.142 0-7.5 3.357-7.5 7.5v24.095c-48.836 1.536-88.545 39.905-92.197 88.188-12.955 1.635-23.894 12.143-26.698 26.193l-3.617 18.118c-2.112 10.583 4.916 22.226 16.075 23.376l15.876 276.262c.66 11.48 9.513 20.655 20.671 21.984v18.784c0 4.143 3.358 7.5 7.5 7.5h175.243c4.142 0 7.5-3.357 7.5-7.5v-18.783c11.159-1.329 20.011-10.504 20.671-21.984l1.759-30.612c.237-4.136-2.922-7.681-7.058-7.918-4.133-.238-7.68 2.922-7.918 7.057l-1.759 30.612c-.258 4.496-3.988 8.018-8.49 8.018h-184.653c-4.502 0-8.232-3.521-8.49-8.018l-11.005-191.507h21.822c4.142 0 7.5-3.357 7.5-7.5s-3.358-7.5-7.5-7.5h-22.684l-2.05-35.67h89.503v35.67h-29.519c-4.142 0-7.5 3.357-7.5 7.5s3.358 7.5 7.5 7.5h29.518v58.76c0 5.912 6.809 9.545 11.725 6.197l35.464-24.175c2.049-1.397 3.275-3.717 3.275-6.197v-34.585h86.591l-7.156 124.528c-.237 4.136 2.922 7.681 7.058 7.918 4.125.25 7.68-2.922 7.918-7.057l12.027-209.283c11.12-1.146 18.188-12.784 16.074-23.376zm-67.622 321.794v11.111h-160.243v-11.111zm35.475-280.195h-90.365v-18.123h91.406zm-105.365 0h-20.464v-18.123h20.464zm-20.463-33.123v-38.017h20.464v38.017zm0-53.016v-73.013h20.464v73.013zm20.463-104.555v16.542h-20.464v-16.542zm-35.463 31.619v72.935h-77.11c3.704-39.893 36.628-71.421 77.11-72.935zm-107.802 120.411 3.617-18.118c1.66-8.319 8.185-14.357 15.515-14.357h88.67v38.017h-104.676c-2.567-.687-3.609-2.534-3.126-5.542zm17.437 38.664-1.042-18.123h91.406v18.123zm105.365 15h20.464v35.67h-20.464zm20.463 81.291-20.464 13.949v-44.57h20.464zm15-45.621v-35.67h89.503l-2.05 35.67zm106.808-84.937c-.428.522-1.146 1.145-2.132 1.145h-104.676v-38.017h17.101c4.142 0 7.5-3.357 7.5-7.5s-3.358-7.5-7.5-7.5h-17.101v-72.936c40.482 1.513 73.406 33.042 77.11 72.935h-24.674c-4.142 0-7.5 3.357-7.5 7.5s3.358 7.5 7.5 7.5h36.234c7.33 0 13.854 6.038 15.515 14.357l3.617 18.118c.32 1.605-.052 3.248-.994 4.398z"/><path d="m200.172 389.545c0-11.119-9.046-20.165-20.166-20.165s-20.166 9.046-20.166 20.165 9.046 20.166 20.166 20.166 20.166-9.047 20.166-20.166zm-20.165 5.166c-2.849 0-5.166-2.317-5.166-5.166 0-2.848 2.317-5.165 5.166-5.165 2.848 0 5.166 2.317 5.166 5.165-.001 2.849-2.318 5.166-5.166 5.166z"/><path d="m250.835 389.545c0-11.119-9.046-20.165-20.166-20.165s-20.166 9.046-20.166 20.165 9.046 20.166 20.166 20.166 20.166-9.047 20.166-20.166zm-25.332 0c0-2.848 2.317-5.165 5.166-5.165 2.848 0 5.166 2.317 5.166 5.165 0 2.849-2.317 5.166-5.166 5.166-2.848 0-5.166-2.317-5.166-5.166z"/><path d="m301.497 389.545c0-11.119-9.046-20.165-20.166-20.165-11.119 0-20.166 9.046-20.166 20.165s9.046 20.166 20.166 20.166 20.166-9.047 20.166-20.166zm-25.331 0c0-2.848 2.317-5.165 5.166-5.165s5.166 2.317 5.166 5.165c0 2.849-2.317 5.166-5.166 5.166s-5.166-2.317-5.166-5.166z"/><path d="m352.16 389.545c0-11.119-9.046-20.165-20.166-20.165-11.119 0-20.166 9.046-20.166 20.165s9.046 20.166 20.166 20.166 20.166-9.047 20.166-20.166zm-25.331 0c0-2.848 2.317-5.165 5.166-5.165s5.166 2.317 5.166 5.165c0 2.849-2.317 5.166-5.166 5.166s-5.166-2.317-5.166-5.166z"/><path d="m205.338 460.465c11.119 0 20.166-9.046 20.166-20.165s-9.046-20.166-20.166-20.166-20.166 9.047-20.166 20.166 9.047 20.165 20.166 20.165zm0-25.331c2.848 0 5.166 2.317 5.166 5.166 0 2.848-2.317 5.165-5.166 5.165s-5.166-2.317-5.166-5.165c0-2.849 2.318-5.166 5.166-5.166z"/><path d="m256 460.465c11.119 0 20.166-9.046 20.166-20.165s-9.046-20.166-20.166-20.166c-11.119 0-20.166 9.047-20.166 20.166s9.047 20.165 20.166 20.165zm0-25.331c2.848 0 5.166 2.317 5.166 5.166 0 2.848-2.317 5.165-5.166 5.165-2.848 0-5.166-2.317-5.166-5.165.001-2.849 2.318-5.166 5.166-5.166z"/><path d="m306.663 460.465c11.119 0 20.166-9.046 20.166-20.165s-9.046-20.166-20.166-20.166-20.166 9.047-20.166 20.166 9.047 20.165 20.166 20.165zm0-25.331c2.848 0 5.166 2.317 5.166 5.166 0 2.848-2.317 5.165-5.166 5.165s-5.166-2.317-5.166-5.165c0-2.849 2.318-5.166 5.166-5.166z"/></g></g></svg>