<?xml version="1.0" encoding="iso-8859-1"?>
<!-- Generator: Adobe Illustrator 19.0.0, SVG Export Plug-In . SVG Version: 6.00 Build 0)  -->
<svg xmlns="http://www.w3.org/2000/svg" xmlns:xlink="http://www.w3.org/1999/xlink" version="1.1" id="Capa_1" x="0px" y="0px" viewBox="0 0 511.999 511.999" style="enable-background:new 0 0 511.999 511.999;" xml:space="preserve">
<path style="fill:#F48989;" d="M356.405,138.386c0-7.456-6.044-13.501-13.501-13.501h-173.81c-7.456,0-13.501,6.044-13.501,13.501  c0,7.456,6.044,13.501,13.501,13.501h173.81C350.361,151.887,356.405,145.843,356.405,138.386z"/>
<path style="fill:#E57676;" d="M180.595,138.386c0-7.456,6.044-13.501,13.501-13.501h-25.002c-7.456,0-13.501,6.044-13.501,13.501  c0,7.456,6.044,13.501,13.501,13.501h25.002C186.64,151.887,180.595,145.843,180.595,138.386z"/>
<path style="fill:#E07070;" d="M367.406,165.388c0-7.456-6.044-13.501-13.501-13.501H158.094c-7.456,0-13.501,6.044-13.501,13.501  c0,7.456,6.044,13.501,13.501,13.501h195.811C361.361,178.889,367.406,172.844,367.406,165.388z"/>
<path style="fill:#D16262;" d="M180.994,165.388c0-7.456,6.044-13.501,13.501-13.501h-36.402c-7.456,0-13.501,6.044-13.501,13.501  c0,7.456,6.044,13.501,13.501,13.501h36.402C187.04,178.889,180.994,172.844,180.994,165.388z"/>
<path style="fill:#F7CF9C;" d="M366.674,178.889H147.04c-12.403,0-22.55,10.148-22.55,22.55v104.144h263.017v-105.86  C387.508,188.264,378.132,178.889,366.674,178.889z"/>
<path style="fill:#EAB883;" d="M172.042,178.889H147.04c-12.403,0-22.55,10.148-22.55,22.55v104.144h25.002V201.439  C149.493,189.036,159.64,178.889,172.042,178.889z"/>
<path style="fill:#FC934C;" d="M387.508,212.247c-7.53,2.803-14.335,7.387-19.778,13.398c-20.015-22.029-54.468-22.049-74.486,0.005  c-20.016-22.038-54.472-22.051-74.49,0c-20.008-22.034-54.466-22.054-74.488-0.005c-5.442-6.004-12.249-10.579-19.775-13.38v30.306  c1.285,1.339,2.436,2.826,3.402,4.46c7.292,12.339,25.414,12.498,32.69,0.083c9.344-15.946,32.401-16.002,41.809-0.07  c7.302,12.372,25.404,12.447,32.701,0.038c9.243-15.717,32.214-16.184,41.766-0.079c7.334,12.367,25.437,12.533,32.702,0.121  c9.245-15.792,32.239-16.199,41.783-0.133c7.357,12.385,25.476,12.534,32.69,0.166c0.981-1.683,2.157-3.21,3.475-4.582V212.247z"/>
<path style="fill:#EF8741;" d="M149.493,255.649v-34.974c-1.85,1.528-3.603,3.18-5.226,4.969  c-5.442-6.004-12.249-10.579-19.775-13.38v30.306c1.285,1.339,2.436,2.826,3.402,4.46  C132.173,254.272,141.033,258.052,149.493,255.649z"/>
<g>
	<path style="fill:#F98935;" d="M177.15,46.234c-12.965,0.06-21.419-15.733-11.972-26.419l10.173-11.505   c0.956-1.081,2.642-1.081,3.597,0l10.173,11.505C198.433,30.347,190.318,46.296,177.15,46.234z"/>
	<path style="fill:#F98935;" d="M219.156,40.871l-1.212-1.37c-4.155-5.883-3.896-14.055,1.082-19.685l10.174-11.506   c0.956-1.081,2.642-1.081,3.597,0l10.173,11.505c4.978,5.63,5.237,13.802,1.082,19.685l-1.212,1.37   C236.518,48.021,225.476,48.019,219.156,40.871z"/>
	<path style="fill:#F98935;" d="M331.262,46.232c-13.435,0.156-21.574-15.847-12.229-26.416l10.173-11.506   c0.956-1.081,2.642-1.081,3.597,0l10.173,11.505C352.2,30.249,344.389,45.962,331.262,46.232z"/>
	<path style="fill:#F98935;" d="M269.159,40.871l-1.212-1.37c-4.155-5.883-3.896-14.055,1.082-19.685l10.174-11.506   c0.956-1.081,2.642-1.081,3.597,0l10.173,11.505c4.978,5.63,5.237,13.802,1.082,19.685l-1.212,1.37   C286.524,48.017,275.484,48.024,269.159,40.871z"/>
</g>
<g>
	<path style="fill:#EF8741;" d="M181.134,19.815l3.993-4.516l-6.179-6.988c-0.956-1.081-2.642-1.081-3.597,0l-10.173,11.505   c-12.065,13.645,4.687,33.19,19.949,24.238C175.897,38.64,174.831,26.945,181.134,19.815z"/>
	<path style="fill:#EF8741;" d="M234.983,19.815l3.993-4.516l-6.179-6.988c-0.956-1.081-2.642-1.081-3.597,0l-10.173,11.505   c-12.065,13.645,4.688,33.19,19.949,24.238C237.564,43.227,228.678,26.945,234.983,19.815z"/>
	<path style="fill:#EF8741;" d="M334.989,19.815l3.993-4.516l-6.179-6.988c-0.956-1.081-2.642-1.081-3.597,0l-10.173,11.505   c-11.975,13.542,4.711,33.176,19.949,24.238C329.751,38.641,328.684,26.945,334.989,19.815z"/>
	<path style="fill:#EF8741;" d="M284.986,19.815l3.993-4.516L282.8,8.311c-0.956-1.081-2.642-1.081-3.597,0L269.03,19.815   c-12.065,13.645,4.688,33.19,19.949,24.238C279.748,38.641,278.681,26.945,284.986,19.815z"/>
</g>
<path style="fill:#F7CF9C;" d="M414.425,302.583H97.574c-6.395,0-11.628,5.233-11.628,11.628v139.285h340.106V314.211  C426.052,307.816,420.819,302.583,414.425,302.583z"/>
<path style="fill:#EAB883;" d="M122.576,302.583H97.574c-6.395,0-11.628,5.233-11.628,11.628v139.285h25.002V314.211  C110.948,307.816,116.181,302.583,122.576,302.583z"/>
<path style="fill:#FC934C;" d="M85.947,371.152c4.113-7.436,11.811-12.545,20.616-12.704c8.739-0.184,16.888,4.413,21.33,11.926  c7.292,12.339,25.414,12.498,32.69,0.083c9.344-15.946,32.401-16.002,41.809-0.07c7.302,12.372,25.405,12.447,32.701,0.038  c9.243-15.717,32.214-16.184,41.766-0.079c7.334,12.367,25.437,12.533,32.702,0.121c9.245-15.792,32.239-16.199,41.783-0.133  c7.357,12.385,25.476,12.534,32.69,0.166c9.235-15.834,32.528-16.504,42.02,0.652v-33.949c-19.996-9.492-43.667-4.398-58.323,11.785  c-20.015-22.029-54.468-22.049-74.486,0.005c-20.016-22.038-54.472-22.051-74.49,0c-20.008-22.034-54.466-22.055-74.488-0.005  c-14.417-15.905-38.038-21.412-58.32-11.785C85.947,337.203,85.947,371.152,85.947,371.152z"/>
<path style="fill:#EF8741;" d="M110.948,332.615c-8.824-0.705-17.273,0.919-25.002,4.588v33.949  c4.113-7.436,11.811-12.545,20.616-12.704c1.485-0.031,2.95,0.086,4.385,0.322V332.615z"/>
<rect x="85.947" y="423.496" style="fill:#E07070;" width="340.101" height="30.002"/>
<rect x="85.947" y="423.496" style="fill:#D16262;" width="25.002" height="30.002"/>
<path style="fill:#E6E7E8;" d="M451.882,477.498H60.116c-7.456,0-13.501-6.044-13.501-13.501c0-7.456,6.044-13.501,13.501-13.501  h391.766c7.456,0,13.501,6.044,13.501,13.501C465.383,471.454,459.338,477.498,451.882,477.498z"/>
<path style="fill:#C0C0C0;" d="M94.952,463.997c0-7.456,6.044-13.501,13.501-13.501H60.116c-7.456,0-13.501,6.044-13.501,13.501  c0,7.456,6.044,13.501,13.501,13.501h48.336C100.997,477.498,94.952,471.454,94.952,463.997z"/>
<path style="fill:#7C6359;" d="M475.012,504.5H36.986c-7.456,0-13.501-6.044-13.501-13.501s6.044-13.501,13.501-13.501h438.027  c7.456,0,13.501,6.044,13.501,13.501S482.469,504.5,475.012,504.5z"/>
<path style="fill:#604C42;" d="M98.447,490.999c0-7.456,6.044-13.501,13.501-13.501H36.986c-7.456,0-13.501,6.044-13.501,13.501  S29.529,504.5,36.986,504.5h74.963C104.492,504.5,98.447,498.455,98.447,490.999z"/>
<path d="M194.74,14.848C186.066,6.118,184.231,0,177.15,0c-7.076,0-8.93,6.132-17.59,14.847c-8.176,9.247-7.174,22.738-1.083,29.621  l1.213,1.373c7.668,8.672,17.493,7.834,17.745,7.891l0,0h0.058C198.101,52.873,207.784,29.602,194.74,14.848z M177.046,38.732  c-4.558-0.094-6.529-3.447-7.017-3.846c-2.042-3.153-1.745-7.26,0.768-10.104l6.353-7.184l6.352,7.184  c2.514,2.843,2.811,6.949,0.769,10.104l-0.897,1.016C181.729,37.763,179.332,38.749,177.046,38.732z"/>
<path d="M248.588,14.848L238.415,3.342C236.536,1.218,233.833,0,230.997,0c-7.076,0-8.931,6.133-17.591,14.848  c-13.882,15.703-1.6,38.884,17.306,38.884c0.101,0,0.671,0,0.57,0l0,0h0.058C251.95,52.873,261.632,29.602,248.588,14.848z   M231.004,38.733c-0.103-0.023-3.598,0.145-6.229-2.829l-0.898-1.018c-2.042-3.153-1.745-7.26,0.768-10.104l6.353-7.184l6.352,7.184  c2.514,2.843,2.811,6.949,0.769,10.104l-0.897,1.016C234.696,38.76,231.636,38.59,231.004,38.733z"/>
<path d="M331.416,53.73c6.518-0.134,12.732-3.009,17.049-7.891l1.212-1.371c0.181-0.204,0.35-0.417,0.507-0.64  c6.284-8.897,5.63-20.814-1.59-28.981C339.92,6.118,338.084,0,331.004,0c-7.076,0-8.931,6.133-17.591,14.848  c-7.219,8.166-7.873,20.083-1.589,28.981c0.157,0.223,0.326,0.436,0.507,0.64l1.213,1.373c4.315,4.88,10.53,7.755,17.048,7.889  c0.014,0.001,0.113,0.002,0.127,0.002l0.285,0.003l0.285-0.003h-0.57h0.628C331.371,53.731,331.393,53.731,331.416,53.73z   M331.011,38.733c-0.103-0.023-3.598,0.145-6.229-2.829l-0.898-1.018c-2.042-3.153-1.745-7.26,0.768-10.104l6.353-7.184l6.352,7.184  c2.514,2.843,2.811,6.949,0.769,10.104l-0.897,1.016C334.702,38.76,331.642,38.59,331.011,38.733z"/>
<path d="M298.462,45.839l1.212-1.371c0.181-0.204,0.35-0.417,0.507-0.64c6.284-8.897,5.63-20.814-1.59-28.981L288.418,3.342  C286.539,1.218,283.836,0,281.001,0c-7.076,0-8.931,6.133-17.591,14.848c-13.426,15.188-2.492,38.478,17.179,38.882  c0.014,0.001,0.113,0.002,0.127,0.002l0.285,0.003l0.285-0.003h-0.57h0.628C288.561,53.431,294.33,50.512,298.462,45.839z   M281.118,38.731c-0.046,0.001-0.104,0.002-0.104,0.002l-0.116-0.001c-2.376-0.049-4.549-1.054-6.118-2.828l-0.898-1.018  c-2.042-3.153-1.745-7.26,0.768-10.104l6.353-7.184l6.352,7.184c2.514,2.843,2.811,6.949,0.769,10.104l-0.897,1.016  C285.657,37.676,283.489,38.68,281.118,38.731z"/>
<path d="M496.014,490.999c0-11.58-9.422-21.001-21.001-21.001h-3.013c4.037-13.507-6.152-27.002-20.116-27.002h-18.329v-19.501  c0-28.916,0-57.643,0-86.291v-22.991c0-10.548-8.582-19.129-19.129-19.129h-19.415c0-11.672,0-85.621,0-95.36  c0-13.192-9.062-24.306-21.287-27.447c3.696-10.599-1.572-21.753-11.337-26.085c5.563-13.833-4.718-28.806-19.481-28.806h-4.399  V69.235c0-4.143-3.357-7.5-7.5-7.5s-7.5,3.357-7.5,7.5v48.149h-35.002V69.235c0-4.143-3.357-7.5-7.5-7.5s-7.5,3.357-7.5,7.5v48.149  h-35.002V69.235c0-4.143-3.357-7.5-7.5-7.5c-4.143,0-7.5,3.357-7.5,7.5v48.149h-35.002V69.235c0-4.143-3.357-7.5-7.5-7.5  c-4.143,0-7.5,3.357-7.5,7.5v48.149h-4.399c-11.58,0-21.001,9.422-21.001,21.001c0,2.759,0.549,5.389,1.52,7.804  c-9.973,4.423-15.13,15.855-11.198,26.465c-12.379,3.716-21.426,15.21-21.426,28.784c0,28.145,0,63.952,0,93.644H97.574  c-10.548,0-19.129,8.582-19.129,19.129v109.283v19.501H60.116c-13.992,0-24.148,13.515-20.116,27.002h-3.013  c-11.58,0-21.001,9.422-21.001,21.001s9.422,21.001,21.001,21.001h126.508c4.143,0,7.5-3.357,7.5-7.5s-3.357-7.5-7.5-7.5H36.987  c-3.309,0-6-2.691-6-6c0-3.309,2.691-6,6-6c9.995,0,393.576,0,414.896,0h23.13c3.309,0,6,2.691,6,6c0,3.309-2.691,6-6,6H198.497  c-4.143,0-7.5,3.357-7.5,7.5s3.357,7.5,7.5,7.5h276.517C486.592,512,496.014,502.578,496.014,490.999z M418.552,354.101  c-14.734-7.209-32.626-1.736-40.999,12.619c-4.331,7.424-15.313,7.273-19.762-0.217c-12.491-21.025-42.608-20.491-54.704,0.175  c-4.386,7.493-15.355,7.299-19.776-0.159c-12.516-21.099-42.6-20.443-54.683,0.104c-2.028,3.45-5.799,5.593-9.841,5.593  c-4.075,0-7.882-2.161-9.938-5.643c-12.301-20.828-42.496-20.798-54.737,0.091c-4.376,7.467-15.356,7.349-19.763-0.107  c-8.229-13.915-25.999-19.746-40.901-12.454v-11.88c15.935-5.533,33.886-0.747,45.262,11.803c3,3.31,8.165,3.247,11.11,0.005  c17.039-18.766,46.337-18.767,63.381,0.005c2.971,3.271,8.128,3.282,11.106-0.001c17.045-18.774,46.338-18.769,63.386,0.001  c2.978,3.279,8.132,3.274,11.106-0.001c17.008-18.738,46.299-18.803,63.381-0.003c3,3.303,8.165,3.242,11.111-0.009  c11.505-12.704,29.447-17.289,45.263-11.8L418.552,354.101L418.552,354.101z M131.99,224.692c7.266,5.221,7.183,8.452,12.272,8.454  c0.103-0.022,3.182,0.155,5.556-2.458c17.041-18.769,46.337-18.765,63.381,0.005c1.422,1.565,3.438,2.458,5.553,2.458  s4.132-0.893,5.553-2.459c8.13-8.956,19.683-14.092,31.693-14.092c12.007,0,23.558,5.137,31.692,14.093  c1.422,1.565,3.438,2.458,5.553,2.458c2.115,0,4.131-0.894,5.553-2.459c17.005-18.735,46.297-18.807,63.381-0.002  c2.997,3.299,8.165,3.244,11.11-0.009c2.02-2.23,4.277-4.242,6.719-6v15.098c-0.907,1.151-1.729,2.355-2.454,3.6  c-4.331,7.424-15.313,7.273-19.762-0.217c-12.491-21.025-42.608-20.491-54.704,0.175c-1.999,3.415-5.729,5.537-9.735,5.537  c-4.11,0-7.958-2.183-10.042-5.696c-5.785-9.754-15.995-15.576-27.312-15.576c-11.196,0-21.684,6.008-27.372,15.68  c-2.028,3.45-5.799,5.593-9.841,5.593c-4.075,0-7.882-2.161-9.938-5.643c-12.301-20.828-42.496-20.798-54.737,0.091  c-4.391,7.494-15.374,7.317-19.762-0.105c-0.701-1.187-1.49-2.336-2.359-3.439L131.99,224.692L131.99,224.692z M169.095,132.386  h173.81c3.309,0,6,2.691,6,6s-2.691,6-6,6h-173.81c-3.309,0-6-2.691-6-6S165.786,132.386,169.095,132.386z M147.04,186.389h16.453  c4.143,0,7.5-3.357,7.5-7.5c0-4.143-3.357-7.5-7.5-7.5h-5.399c-3.309,0-6-2.691-6-6s2.691-6,6-6c9.12,0,189.514,0,195.811,0  c3.309,0,6,2.691,6,6s-2.691,6-6,6H198.495c-4.143,0-7.5,3.357-7.5,7.5c0,4.143,3.357,7.5,7.5,7.5h168.178  c7.352,0,13.334,5.981,13.334,13.334v7.58c-4.406,2.122-8.545,4.796-12.281,7.946c-21.649-18.242-52.962-18.144-74.484,0.006  c-10.383-8.753-23.59-13.657-37.243-13.657c-13.657,0-26.867,4.905-37.246,13.657c-21.598-18.207-52.918-18.19-74.488-0.004  c-3.733-3.143-7.868-5.811-12.274-7.93v-5.881C131.99,193.141,138.742,186.389,147.04,186.389z M131.99,260.814  c12.768,6.676,28.089,1.99,35.064-9.908c3.002-5.122,8.541-8.306,14.453-8.306c5.89,0,11.418,3.164,14.425,8.256  c4.739,8.029,13.497,13.018,22.855,13.018c9.335,0,18.06-4.978,22.771-12.99c3.005-5.108,8.539-8.283,14.441-8.283  c5.966,0,11.354,3.075,14.408,8.227c4.771,8.048,13.564,13.046,22.944,13.046c9.312,0,18.002-4.966,22.681-12.961  c6.393-10.923,22.264-11.195,28.861-0.092c4.782,8.051,13.585,13.053,22.973,13.053c4.294,0,8.448-1.066,12.141-2.985v34.194H131.99  V260.814z M97.574,310.083h26.916h263.018h26.916c2.237,0,4.128,1.891,4.128,4.128v12.391c-17.251-4.279-36.298-0.3-50.831,11.987  c-21.643-18.237-52.955-18.141-74.479,0.01c-21.601-18.21-52.918-18.188-74.49,0c-21.639-18.241-52.953-18.156-74.483-0.009  c-14.057-11.866-33.016-16.405-50.824-11.988v-12.391C93.446,311.974,95.337,310.083,97.574,310.083z M93.446,430.995h256.458  c4.143,0,7.5-3.357,7.5-7.5c0-4.143-3.357-7.5-7.5-7.5H93.446v-42.706c7.153-10.361,21.867-9.451,27.99,0.902  c10.194,17.245,35.451,17.405,45.618,0.059c6.46-11.024,22.373-11.063,28.878-0.05c10.211,17.296,35.445,17.341,45.626,0.027  c6.39-10.864,22.247-11.19,28.85-0.056c10.237,17.264,35.475,17.429,45.626,0.085c6.393-10.923,22.264-11.195,28.861-0.092  c10.282,17.309,35.538,17.392,45.617,0.114c6.096-10.455,20.858-11.392,28.041-0.991v42.707h-33.646c-4.143,0-7.5,3.357-7.5,7.5  c0,4.143,3.357,7.5,7.5,7.5h33.646v12.001H93.446V430.995z M60.116,469.997c-3.309,0-6-2.691-6-6c0-3.309,2.691-6,6-6  c14.722,0,378.91,0,391.766,0c3.309,0,6,2.691,6,6c0,3.309-2.691,6-6,6H60.116z"/>
<g>
</g>
<g>
</g>
<g>
</g>
<g>
</g>
<g>
</g>
<g>
</g>
<g>
</g>
<g>
</g>
<g>
</g>
<g>
</g>
<g>
</g>
<g>
</g>
<g>
</g>
<g>
</g>
<g>
</g>
</svg>
