<?xml version="1.0" encoding="iso-8859-1"?>
<!-- Generator: Adobe Illustrator 19.0.0, SVG Export Plug-In . SVG Version: 6.00 Build 0)  -->
<svg xmlns="http://www.w3.org/2000/svg" xmlns:xlink="http://www.w3.org/1999/xlink" version="1.1" id="Capa_1" x="0px" y="0px" viewBox="0 0 512 512" style="enable-background:new 0 0 512 512;" xml:space="preserve">
<g>
	<path style="fill:#70BBEF;" d="M178.732,128.655c-4.267,0-7.727-3.459-7.727-7.727v-57.33c0-4.268,3.459-7.727,7.727-7.727   s7.727,3.459,7.727,7.727v57.33C186.459,125.196,182.999,128.655,178.732,128.655z"/>
	<path style="fill:#70BBEF;" d="M230.244,128.655c-4.267,0-7.727-3.459-7.727-7.727v-57.33c0-4.268,3.459-7.727,7.727-7.727   s7.727,3.459,7.727,7.727v57.33C237.971,125.196,234.511,128.655,230.244,128.655z"/>
	<path style="fill:#70BBEF;" d="M281.756,128.655c-4.267,0-7.727-3.459-7.727-7.727v-57.33c0-4.268,3.459-7.727,7.727-7.727   c4.267,0,7.727,3.459,7.727,7.727v57.33C289.483,125.196,286.024,128.655,281.756,128.655z"/>
	<path style="fill:#70BBEF;" d="M333.269,128.655c-4.267,0-7.727-3.459-7.727-7.727v-57.33c0-4.268,3.459-7.727,7.727-7.727   c4.267,0,7.727,3.459,7.727,7.727v57.33C340.995,125.196,337.536,128.655,333.269,128.655z"/>
</g>
<path style="fill:#F48989;" d="M359.436,134.837c0-7.682-6.227-13.908-13.908-13.908H166.472c-7.681,0-13.908,6.227-13.908,13.908  c0,7.682,6.227,13.908,13.908,13.908h179.056C353.209,148.745,359.436,142.518,359.436,134.837z"/>
<path style="fill:#E57676;" d="M178.32,134.837c0-7.682,6.227-13.908,13.908-13.908h-25.756c-7.681,0-13.908,6.227-13.908,13.908  c0,7.682,6.227,13.908,13.908,13.908h25.756C184.547,148.745,178.32,142.518,178.32,134.837z"/>
<path style="fill:#E07070;" d="M370.769,162.653c0-7.682-6.227-13.908-13.908-13.908H155.14c-7.681,0-13.908,6.227-13.908,13.908  c0,7.682,6.227,13.908,13.908,13.908h201.721C364.542,176.562,370.769,170.335,370.769,162.653z"/>
<path style="fill:#D16262;" d="M178.732,162.653c0-7.682,6.227-13.908,13.908-13.908h-37.5c-7.681,0-13.908,6.227-13.908,13.908  c0,7.682,6.227,13.908,13.908,13.908h37.5C184.959,176.562,178.732,170.335,178.732,162.653z"/>
<path style="fill:#F7CF9C;" d="M370.015,176.562H143.753c-12.777,0-23.231,10.454-23.231,23.231V307.08h270.956V198.024  C391.478,186.22,381.82,176.562,370.015,176.562z"/>
<path style="fill:#EAB883;" d="M169.509,176.562h-25.756c-12.777,0-23.231,10.454-23.231,23.231V307.08h25.756V199.792  C146.278,187.015,156.732,176.562,169.509,176.562z"/>
<path style="fill:#FC934C;" d="M391.478,210.926c-7.758,2.887-14.768,7.61-20.375,13.802c-20.62-22.694-56.113-22.715-76.734,0.005  c-20.62-22.704-56.116-22.717-76.739,0c-20.612-22.699-56.111-22.721-76.736-0.006c-5.607-6.186-12.618-10.898-20.372-13.784v31.221  c1.324,1.38,2.51,2.911,3.505,4.595c7.513,12.711,26.181,12.875,33.677,0.086c9.626-16.428,33.379-16.485,43.071-0.072  c7.523,12.745,26.171,12.823,33.688,0.039c9.522-16.191,33.186-16.673,43.026-0.081c7.556,12.74,26.204,12.911,33.689,0.125  c9.523-16.269,33.212-16.688,43.043-0.137c7.579,12.758,26.244,12.912,33.677,0.171c1.011-1.734,2.222-3.307,3.58-4.721  L391.478,210.926L391.478,210.926z"/>
<path style="fill:#EF8741;" d="M146.278,255.639v-36.03c-1.906,1.574-3.712,3.277-5.384,5.119  c-5.607-6.186-12.618-10.898-20.372-13.784v31.221c1.324,1.38,2.51,2.911,3.505,4.595  C128.437,254.221,137.564,258.114,146.278,255.639z"/>
<g>
	<path style="fill:#F98935;" d="M174.771,39.903c-13.356,0.062-22.066-16.208-12.333-27.216l10.48-11.852   c0.984-1.113,2.722-1.113,3.706,0l10.48,11.852C196.696,23.536,188.336,39.966,174.771,39.903z"/>
	<path style="fill:#F98935;" d="M218.045,34.378l-1.248-1.412c-4.281-6.061-4.014-14.479,1.115-20.279l10.48-11.852   c0.984-1.113,2.722-1.113,3.706,0l10.48,11.852c5.129,5.8,5.395,14.218,1.115,20.279l-1.248,1.412   C235.931,41.743,224.555,41.742,218.045,34.378z"/>
	<path style="fill:#F98935;" d="M333.534,39.9c-13.84,0.161-22.225-16.325-12.598-27.213l10.48-11.852   c0.984-1.113,2.722-1.113,3.706,0l10.48,11.852C355.104,23.435,347.058,39.622,333.534,39.9z"/>
	<path style="fill:#F98935;" d="M269.557,34.378l-1.248-1.412c-4.281-6.061-4.014-14.479,1.115-20.279l10.48-11.852   c0.984-1.113,2.722-1.113,3.706,0l10.48,11.852c5.129,5.8,5.395,14.218,1.115,20.279l-1.248,1.412   C287.446,41.74,276.072,41.747,269.557,34.378z"/>
</g>
<g>
	<path style="fill:#EF8741;" d="M178.876,12.687l4.114-4.653l-6.366-7.199c-0.984-1.113-2.722-1.113-3.706,0l-10.48,11.852   c-12.429,14.056,4.829,34.191,20.551,24.97C173.481,32.08,172.381,20.032,178.876,12.687z"/>
	<path style="fill:#EF8741;" d="M234.349,12.687l4.114-4.653l-6.366-7.199c-0.984-1.113-2.722-1.113-3.706,0l-10.48,11.852   c-12.429,14.056,4.83,34.191,20.551,24.97C237.008,36.804,227.855,20.032,234.349,12.687z"/>
	<path style="fill:#EF8741;" d="M337.374,12.687l4.114-4.653l-6.366-7.199c-0.984-1.113-2.722-1.113-3.706,0l-10.48,11.852   c-12.336,13.951,4.854,34.177,20.551,24.97C331.978,32.08,330.879,20.032,337.374,12.687z"/>
	<path style="fill:#EF8741;" d="M285.861,12.687l4.114-4.653l-6.366-7.199c-0.984-1.113-2.722-1.113-3.706,0l-10.48,11.852   c-12.429,14.056,4.83,34.191,20.551,24.97C280.466,32.08,279.367,20.032,285.861,12.687z"/>
</g>
<path style="fill:#F7CF9C;" d="M419.207,303.989H92.794c-6.589,0-11.979,5.391-11.979,11.979v143.489h350.371V315.968  C431.186,309.38,425.795,303.989,419.207,303.989z"/>
<path style="fill:#EAB883;" d="M118.55,303.989H92.794c-6.589,0-11.979,5.391-11.979,11.979v143.489h25.756V315.968  C106.571,309.38,111.961,303.989,118.55,303.989z"/>
<path style="fill:#FC934C;" d="M80.815,374.628c4.238-7.661,12.168-12.923,21.238-13.087c9.003-0.189,17.398,4.546,21.974,12.286  c7.513,12.711,26.181,12.875,33.677,0.086c9.626-16.428,33.379-16.485,43.071-0.073c7.523,12.745,26.171,12.823,33.688,0.039  c9.522-16.191,33.186-16.673,43.026-0.081c7.556,12.74,26.204,12.911,33.689,0.125c9.523-16.269,33.212-16.688,43.043-0.137  c7.579,12.758,26.244,12.912,33.677,0.171c9.514-16.312,33.51-17.002,43.288,0.672v-34.973c-20.6-9.779-44.984-4.531-60.082,12.141  c-20.62-22.694-56.113-22.715-76.734,0.005c-20.62-22.704-56.116-22.717-76.739,0c-20.612-22.699-56.111-22.721-76.736-0.006  c-14.852-16.385-39.187-22.058-60.079-12.14L80.815,374.628L80.815,374.628z"/>
<path style="fill:#EF8741;" d="M106.571,334.928c-9.089-0.727-17.794,0.947-25.756,4.726v34.974  c4.238-7.661,12.168-12.923,21.238-13.087c1.53-0.032,3.039,0.089,4.518,0.332V334.928z"/>
<rect x="80.81" y="428.55" style="fill:#E07070;" width="350.37" height="30.907"/>
<rect x="80.81" y="428.55" style="fill:#D16262;" width="25.756" height="30.907"/>
<path style="fill:#E6E7E8;" d="M457.795,484.183H54.205c-7.681,0-13.908-6.227-13.908-13.908c0-7.682,6.227-13.908,13.908-13.908  h403.591c7.682,0,13.908,6.227,13.908,13.908C471.704,477.957,465.477,484.183,457.795,484.183z"/>
<path style="fill:#C0C0C0;" d="M90.092,470.275c0-7.682,6.227-13.908,13.908-13.908H54.205c-7.681,0-13.908,6.227-13.908,13.908  c0,7.682,6.227,13.908,13.908,13.908H104C96.319,484.183,90.092,477.957,90.092,470.275z"/>
<path style="fill:#7C6359;" d="M481.624,512H30.376c-7.681,0-13.908-6.227-13.908-13.908c0-7.682,6.227-13.908,13.908-13.908  h451.248c7.682,0,13.908,6.227,13.908,13.908C495.532,505.773,489.305,512,481.624,512z"/>
<path style="fill:#604C42;" d="M93.693,498.092c0-7.682,6.227-13.908,13.908-13.908H30.376c-7.681,0-13.908,6.227-13.908,13.908  c0,7.682,6.227,13.908,13.908,13.908h77.225C99.92,512,93.693,505.773,93.693,498.092z"/>
<g>
</g>
<g>
</g>
<g>
</g>
<g>
</g>
<g>
</g>
<g>
</g>
<g>
</g>
<g>
</g>
<g>
</g>
<g>
</g>
<g>
</g>
<g>
</g>
<g>
</g>
<g>
</g>
<g>
</g>
</svg>
