<svg id="Capa_1" enable-background="new 0 0 511.983 511.983" height="512" viewBox="0 0 511.983 511.983" width="512" xmlns="http://www.w3.org/2000/svg"><g><g><path d="m483.229 183.508-117.267 13.31-50.804-50.804 13.31-117.267c.4-5.292 2.62-10.472 6.667-14.518 8.981-8.981 23.542-8.981 32.523 0s8.981 23.542 0 32.523-8.981 23.542 0 32.523 23.542 8.981 32.523 0 23.542-8.981 32.523 0 8.981 23.542 0 32.523-8.981 23.542 0 32.523 23.542 8.981 32.523 0 23.542-8.981 32.523 0 8.981 23.542 0 32.523c-4.05 4.044-9.23 6.264-14.521 6.664z" fill="#31a7fb"/><path d="m497.743 176.842c-4.04 4.05-9.22 6.27-14.51 6.67l-117.269 13.31-18.6-18.6 109.679-12.45c5.29-.4 10.47-2.62 14.52-6.67 5.75-5.75 7.82-13.8 6.2-21.2 7.05-1.16 14.54.98 19.98 6.42 8.99 8.98 8.99 23.54 0 32.52z" fill="#1c96f9"/><path d="m28.739 328.475 117.267-13.31 50.804 50.804-13.31 117.267c-.4 5.292-2.62 10.472-6.667 14.518-8.981 8.981-23.542 8.981-32.523 0s-8.981-23.542 0-32.523 8.981-23.542 0-32.523-23.542-8.981-32.523 0-23.542 8.981-32.523 0-8.981-23.542 0-32.523 8.981-23.542 0-32.523-23.542-8.981-32.523 0-23.542 8.981-32.523 0-8.981-23.542 0-32.523c4.05-4.044 9.23-6.265 14.521-6.664z" fill="#31a7fb"/><path d="m196.814 365.971-3.06 26.95c-19.57-3.26-36.53-11.73-49.75-24.95-13.32-13.32-21.77-30.32-25-49.75l27-3.06z" fill="#1c96f9"/><path d="m196.814 365.971-13.31 117.269c-.4 5.29-2.62 10.47-6.67 14.51-8.98 8.99-23.54 8.99-32.52 0-1.69-1.69-3.06-3.58-4.11-5.59 2.02-1.06 3.91-2.44 5.6-4.13 4.05-4.05 6.27-9.23 6.67-14.52l15.24-136.639z" fill="#1c96f9"/><ellipse cx="255.984" cy="255.991" fill="#fb4a59" rx="138.367" ry="94.422" transform="matrix(.707 -.707 .707 .707 -106.037 255.986)"/><path d="m322.754 322.761c-54.04 54.03-127.739 67.95-164.609 31.07-5.3-5.3-9.54-11.35-12.78-18 39.63 19.27 100.329 2.42 146.609-43.85 46.27-46.28 63.12-106.979 43.85-146.609 6.65 3.24 12.7 7.48 18 12.78 36.879 36.87 22.959 110.569-31.07 164.609z" fill="#f82f40"/><g><path d="m371.68 237.451c-11.582-19.742-25.774-38.148-42.391-54.765s-35.023-30.809-54.765-42.391c-16.235 3.521-33.022 10.366-49.221 20.329 27.563 11.229 53.372 28.016 75.702 50.346s39.117 48.14 50.346 75.702c9.963-16.199 16.808-32.986 20.329-49.221z" fill="#31a7fb"/></g><path d="m371.684 237.451c-3.52 16.23-10.37 33.02-20.33 49.22-6.18-15.17-14.04-29.8-23.59-43.62 7.8-15.42 12.81-31.09 14.85-46.07 10.99 12.68 20.71 26.23 29.07 40.47z" fill="#1c96f9"/><g><path d="m271.901 240.074c-24.289-24.289-53.584-40.588-84.605-48.896-10.79 11.073-19.905 22.931-27.28 35.101 30.618 4.539 60.083 18.561 83.601 42.08 23.518 23.518 37.54 52.983 42.08 83.601 12.169-7.375 24.027-16.49 35.101-27.28-8.309-31.021-24.608-60.317-48.897-84.606z" fill="#31a7fb"/></g><path d="m302.674 280.431c7.98 14.07 14.03 28.95 18.12 44.25-11.07 10.79-22.93 19.9-35.1 27.28-2.19-14.74-6.57-29.21-13.15-42.88 6.68-5.15 13.19-10.86 19.43-17.1 3.76-3.76 7.33-7.62 10.7-11.55z" fill="#1c96f9"/><g><path d="m216.422 295.554c-20.294-20.294-46.549-31.063-73.164-32.322-4.214 13.704-6.145 27.216-5.664 39.859 18.3-.099 36.614 6.816 50.544 20.746s20.845 32.244 20.746 50.544c12.643.481 26.156-1.45 39.859-5.664-1.258-26.615-12.027-52.869-32.321-73.163z" fill="#31a7fb"/></g><path d="m239.594 329.471c5.46 12.51 8.51 25.83 9.15 39.25-13.7 4.21-27.22 6.14-39.86 5.66.06-11.13-2.48-22.27-7.62-32.42 12.54-2.16 25.5-6.36 38.33-12.49z" fill="#1c96f9"/></g><path d="m503.051 139.016c-5.76-5.761-13.418-8.934-21.565-8.934-8.146 0-15.805 3.173-21.564 8.933-6.042 6.042-15.874 6.043-21.916.001-6.042-6.043-6.042-15.875 0-21.917 5.76-5.76 8.933-13.419 8.933-21.564s-3.172-15.805-8.933-21.563c-5.76-5.761-13.418-8.934-21.564-8.934s-15.805 3.173-21.564 8.933c-6.042 6.042-15.873 6.043-21.916.001-6.042-6.043-6.042-15.875 0-21.917 11.89-11.891 11.89-31.238 0-43.13-11.891-11.889-31.239-11.888-43.129 0-5.118 5.118-8.25 11.897-8.831 19.106l-5.887 51.873c-.467 4.115 2.491 7.831 6.606 8.298 4.109.471 7.831-2.491 8.298-6.606l5.902-52.003c.011-.094.02-.187.026-.28.279-3.689 1.874-7.163 4.492-9.78 6.042-6.041 15.874-6.044 21.916-.001s6.042 15.875 0 21.917c-11.891 11.891-11.891 31.238 0 43.13 11.891 11.889 31.238 11.89 43.129-.001 2.927-2.927 6.818-4.539 10.958-4.539 4.139 0 8.031 1.612 10.958 4.54 2.927 2.927 4.539 6.818 4.539 10.957s-1.612 8.03-4.539 10.958c-11.891 11.891-11.891 31.238 0 43.13 11.891 11.889 31.238 11.89 43.129-.001 2.927-2.927 6.819-4.539 10.958-4.539 4.14 0 8.031 1.612 10.958 4.54 2.927 2.927 4.539 6.818 4.539 10.957 0 4.14-1.612 8.031-4.539 10.958-2.617 2.618-6.091 4.213-9.781 4.492-.093.007-.187.016-.28.026l-103.491 11.746c-1.357-5.148-3.159-10.054-5.399-14.684l26.92-15.879c3.567-2.104 4.754-6.703 2.649-10.271s-6.704-4.752-10.271-2.649l-27.136 16.006c-1.999-2.625-4.172-5.123-6.528-7.479-1.525-1.524-3.114-2.966-4.753-4.341l10.724-22.83c1.761-3.749.149-8.216-3.6-9.977-3.748-1.76-8.216-.15-9.977 3.6l-9.718 20.689c-5.479-2.948-11.375-5.255-17.63-6.904l2.148-18.923c.467-4.115-2.491-7.831-6.606-8.298-4.109-.463-7.831 2.491-8.298 6.606l-2.043 17.997c-10.29-.981-21.298-.413-32.809 1.76-32.557 6.146-65.461 24.505-92.651 51.694-27.19 27.19-45.549 60.095-51.695 92.651-2.173 11.511-2.741 22.519-1.76 32.809l-102.437 11.628c-7.208.58-13.987 3.712-19.105 8.83-11.891 11.891-11.891 31.238 0 43.13 11.891 11.889 31.238 11.89 43.129-.001 2.927-2.927 6.819-4.539 10.958-4.539s8.031 1.612 10.958 4.54c2.927 2.927 4.539 6.818 4.539 10.957 0 4.14-1.612 8.031-4.539 10.958-5.76 5.76-8.933 13.419-8.933 21.565s3.172 15.805 8.933 21.564c11.891 11.889 31.238 11.889 43.129 0 6.042-6.041 15.874-6.045 21.917 0 6.042 6.041 6.042 15.873 0 21.916-5.76 5.76-8.933 13.419-8.933 21.564s3.172 15.805 8.933 21.564c5.946 5.945 13.754 8.918 21.564 8.917 7.809 0 15.62-2.973 21.564-8.917 5.118-5.118 8.25-11.898 8.831-19.107l3.869-34.085c.467-4.115-2.491-7.831-6.606-8.298-4.105-.463-7.831 2.49-8.298 6.606l-3.883 34.216c-.011.094-.02.187-.026.28-.279 3.689-1.874 7.163-4.492 9.78-6.042 6.043-15.875 6.043-21.916 0-2.927-2.927-4.539-6.818-4.539-10.957 0-4.14 1.612-8.031 4.54-10.959 11.89-11.891 11.89-31.238 0-43.129-11.891-11.889-31.239-11.888-43.129 0-6.042 6.043-15.874 6.043-21.916 0-2.927-2.927-4.539-6.818-4.539-10.957 0-4.14 1.612-8.031 4.539-10.959 5.76-5.76 8.933-13.419 8.933-21.564s-3.172-15.805-8.933-21.563c-5.76-5.761-13.418-8.934-21.564-8.934s-15.805 3.173-21.564 8.933c-6.042 6.042-15.874 6.043-21.916.001-6.042-6.043-6.042-15.875 0-21.917 2.618-2.618 6.091-4.213 9.78-4.491.094-.007.188-.016.281-.026l103.492-11.747c1.463 5.548 3.439 10.816 5.926 15.759l-16.532 11.23c-3.426 2.327-4.317 6.992-1.99 10.418 1.451 2.137 3.81 3.287 6.211 3.287 1.451 0 2.917-.421 4.208-1.297l16.154-10.973c1.794 2.278 3.718 4.461 5.788 6.53.929.929 1.88 1.829 2.851 2.702l-18.679 27.27c-2.341 3.417-1.468 8.085 1.949 10.426 1.296.888 2.771 1.313 4.231 1.313 2.391 0 4.741-1.142 6.194-3.263l18.434-26.912c6.129 3.586 12.816 6.335 19.974 8.222l-4.168 36.723c-.467 4.115 2.491 7.831 6.606 8.298.287.032.573.049.855.049 3.764 0 7.008-2.827 7.443-6.655l4.064-35.81c3.239.309 6.542.481 9.918.481 7.346 0 15.002-.736 22.89-2.226 32.557-6.146 65.461-24.504 92.651-51.693 27.19-27.19 45.549-60.095 51.695-92.652 2.173-11.511 2.741-22.519 1.76-32.808l102.434-11.626c7.209-.581 13.99-3.713 19.107-8.831 5.76-5.76 8.933-13.419 8.933-21.564s-3.177-15.802-8.937-21.561zm-154.53 24.438c13.253 13.253 19.191 31.888 18.458 52.72-9.563-13.811-20.404-26.81-32.386-38.792-11.979-11.979-24.977-22.82-38.786-32.383 1.139-.04 2.273-.064 3.398-.064 19.45 0 36.791 5.994 49.316 18.519zm3.597 106.539c-11.519-23.802-26.882-45.4-45.809-64.327-18.93-18.93-40.526-34.289-64.326-45.807 10.408-5.24 20.905-9.147 31.167-11.642 18.387 11.056 35.49 24.426 50.836 39.772 15.346 15.345 28.716 32.442 39.772 50.826-2.495 10.266-6.399 20.766-11.64 31.178zm-96.753 88.601c-3.372-25.802-15.192-49.896-33.64-68.343-18.458-18.458-42.539-30.265-68.345-33.637 2.807-7.364 6.304-14.759 10.457-22.071 28.336 5.212 54.041 18.684 74.477 39.12 20.413 20.412 33.909 46.141 39.125 74.473-7.313 4.153-14.709 7.65-22.074 10.458zm-91.918-10.066c-9.918-9.917-15.733-22.852-17.728-37.463 14.03 1.704 27.041 8.001 37.115 18.077 10.052 10.052 16.356 23.088 18.065 37.112-14.606-1.996-27.537-7.811-37.452-17.726zm52.621 18.462c-1.628-18.313-9.583-35.412-22.626-48.454-13.072-13.073-30.137-20.996-48.456-22.62.272-7.979 1.531-16.282 3.726-24.729 23.561 2.444 45.643 12.906 62.408 29.67 16.755 16.754 27.227 38.85 29.67 62.406-8.445 2.196-16.746 3.454-24.722 3.727zm108.193-56.698c-7.804-22.978-19.696-44.07-35.439-62.814-2.664-3.17-7.395-3.583-10.567-.919s-3.583 7.396-.919 10.566c16.178 19.261 27.943 41.21 35.009 65.249-6.871 6.398-14.026 12.143-21.341 17.217-6.477-29.032-20.917-55.37-42.084-76.536-21.188-21.188-47.494-35.63-76.523-42.103 5.071-7.309 10.811-14.457 17.204-21.323 24.073 7.076 46.048 18.864 65.329 35.077 1.406 1.183 3.12 1.76 4.823 1.76 2.138 0 4.261-.909 5.744-2.673 2.666-3.17 2.257-7.901-.913-10.567-18.763-15.778-39.882-27.693-62.892-35.509 7.805-7.063 15.95-13.303 24.267-18.675 26.062 11.138 49.522 27.011 69.742 47.231 20.216 20.215 36.091 43.674 47.23 69.737-5.372 8.322-11.604 16.474-18.67 24.282z"/></g></svg>