<svg id="Capa_1" enable-background="new 0 0 512 512" height="512" viewBox="0 0 512 512" width="512" xmlns="http://www.w3.org/2000/svg"><g><path d="m212.596 75.915v61.111h2.859c29.02 21.191 47.879 55.466 47.879 94.151 0 22.471-6.368 43.452-17.388 61.249 10.755 4.225 18.373 14.693 18.373 26.947 0 2.551-.333 5.023-.952 7.379h17.778c2.761 0 5 2.239 5 5v19.166c0 2.761-2.239 5-5 5h-4.082v80.166h214.48v-360.169z" fill="#fb2b3a"/><path d="m212.596 75.915v61.111h2.859c14.354 10.481 26.215 24.167 34.545 40v-101.111z" fill="#e41f2d"/><path d="m458.696 249.547v34.327c0 2.206-1.794 4-4 4h-206.077c-.858 1.539-1.747 3.058-2.673 4.552 10.755 4.225 18.373 14.693 18.373 26.947 0 2.551-.333 5.023-.952 7.379h17.778c2.761 0 5 2.239 5 5v19.166c0 2.761-2.239 5-5 5h-4.082v80.166h214.48v-186.537z" fill="#fedf74"/><path d="m499.5 436.085h-213.355v29.166h213.355c2.761 0 5-2.239 5-5v-19.166c0-2.761-2.239-5-5-5z" fill="#8fb0c5"/><g><path d="m499.5 75.915h-294.86c-2.761 0-5-2.239-5-5v-19.166c0-2.761 2.239-5 5-5h294.86c2.761 0 5 2.239 5 5v19.166c0 2.761-2.239 5-5 5z" fill="#acc7e4"/></g><g><path d="m240.14 70.915v-19.166c0-2.761 2.239-5 5-5h-40.5c-2.761 0-5 2.239-5 5v19.167c0 2.761 2.239 5 5 5h40.5c-2.762-.001-5-2.24-5-5.001z" fill="#8fb0c5"/></g><path d="m454.696 214.296h-56.184c-2.273 0-4.279-1.529-4.831-3.733-4.674-18.682-21.568-32.52-41.698-32.52s-37.025 13.838-41.698 32.52c-.552 2.205-2.558 3.733-4.831 3.733h-43.344c.8 5.512 1.225 11.147 1.225 16.881 0 20.992-5.555 40.686-15.27 57.697h206.632c2.761 0 5-2.239 5-5v-64.578c-.001-2.761-2.239-5-5.001-5z" fill="#fff"/><g><g><g><path d="m58.274 290.425c8.883 0 16.827 4.005 22.137 10.302 5.31-6.298 13.254-10.302 22.137-10.302s16.827 4.005 22.137 10.302c5.31-6.298 13.254-10.302 22.137-10.302 6.677 0 12.822 2.267 17.72 6.065 4.457-10.248 14.666-17.417 26.555-17.417s22.098 7.169 26.555 17.417c4.898-3.798 11.042-6.065 17.72-6.065 3.734 0 7.298.715 10.575 2.002 11.02-17.797 17.388-38.778 17.388-61.249 0-38.685-18.859-72.96-47.879-94.151h-137.266c-29.02 21.191-47.879 55.466-47.879 94.151 0 22.471 6.368 43.452 17.388 61.249 3.277-1.288 6.842-2.002 10.575-2.002z" fill="#acc7e4"/></g><path d="m181.12 168.854c-10.378 4.995-22.007 7.803-34.297 7.803s-23.919-2.808-34.297-7.803c-21.957 12.109-36.837 35.475-36.837 62.323 0 25.128 13.041 47.196 32.712 59.851 5.079 1.045 9.67 3.417 13.397 6.743 1.4.526 2.819 1.013 4.259 1.452 5.26-5.421 12.614-8.799 20.764-8.799 6.677 0 12.822 2.267 17.72 6.065 4.457-10.248 14.666-17.417 26.555-17.417 2.557 0 5.029.35 7.39.972 12.06-12.745 19.469-29.936 19.469-48.867.001-26.847-14.878-50.213-36.835-62.323z" fill="#8fb0c5"/><path d="m263.367 326.752c.619-2.356.952-4.829.952-7.379 0-15.988-12.961-28.948-28.949-28.948-6.677 0-12.822 2.267-17.72 6.065-4.457-10.248-14.666-17.417-26.555-17.417s-22.098 7.169-26.555 17.417c-4.898-3.798-11.042-6.065-17.72-6.065-8.883 0-16.827 4.005-22.137 10.302-5.31-6.298-13.254-10.302-22.137-10.302s-16.827 4.005-22.137 10.302c-5.31-6.298-13.254-10.302-22.137-10.302-15.988 0-28.949 12.961-28.949 28.948 0 2.551.333 5.023.952 7.379z" fill="#fdb441"/><path d="m263.367 326.752c.619-2.356.952-4.829.952-7.379 0-15.988-12.961-28.948-28.949-28.948-6.677 0-12.822 2.267-17.72 6.065-4.457-10.248-14.666-17.417-26.555-17.417s-22.098 7.169-26.555 17.417c-4.898-3.798-11.042-6.065-17.72-6.065-8.883 0-16.827 4.005-22.137 10.302-5.31-6.298-13.254-10.302-22.137-10.302s-16.827 4.005-22.137 10.302c-5.31-6.298-13.254-10.302-22.137-10.302-15.988 0-28.949 12.961-28.949 28.948 0 2.551.333 5.023.952 7.379z" fill="#fdb441"/><g><path d="m75.107 295.835c-4.743-3.401-10.551-5.411-16.833-5.411-15.988 0-28.949 12.961-28.949 28.948 0 2.551.333 5.023.952 7.379h33.674c-.619-2.356-.952-4.829-.952-7.379.001-9.702 4.78-18.284 12.108-23.537z" fill="#fe9901"/></g><g><path d="m146.823 176.658c29.333 0 54.926-15.947 68.633-39.632h-137.266c13.707 23.685 39.299 39.632 68.633 39.632z" fill="#3e5690"/></g><g><path d="m111 137.026h-32.81c13.707 23.685 39.299 39.631 68.633 39.631 5.626 0 11.112-.591 16.405-1.707-22.306-4.699-41.15-18.781-52.228-37.924z" fill="#2e3e70"/></g><g><circle cx="146.823" cy="231.178" fill="#fff" r="28.208"/></g><path d="m16.582 355.919h260.482v80.166h-260.482z" fill="#fd4755"/><path d="m16.582 355.919h32.937v80.166h-32.937z" fill="#fb2b3a"/><g><path d="m286.145 465.251h-273.645c-2.761 0-5-2.239-5-5v-19.166c0-2.761 2.239-5 5-5h273.645z" fill="#acc7e4"/></g><g><path d="m40.355 460.251v-19.166c0-2.761 2.239-5 5-5h-32.855c-2.761 0-5 2.239-5 5v19.166c0 2.761 2.239 5 5 5h32.855c-2.762 0-5-2.238-5-5z" fill="#8fb0c5"/></g><g><path d="m281.145 355.919h-268.645c-2.761 0-5-2.239-5-5v-19.166c0-2.761 2.239-5 5-5h268.645c2.761 0 5 2.239 5 5v19.166c0 2.761-2.238 5-5 5z" fill="#acc7e4"/></g><g><path d="m40.355 350.919v-19.166c0-2.761 2.239-5 5-5h-32.855c-2.761 0-5 2.239-5 5v19.166c0 2.761 2.239 5 5 5h32.855c-2.762 0-5-2.239-5-5z" fill="#8fb0c5"/></g></g><g><ellipse cx="146.823" cy="395.702" fill="#fff" rx="47.321" ry="13.991"/></g></g><g><path d="m491.543 107.5c4.142 0 7.5-3.357 7.5-7.5v-16.585h.457c6.893 0 12.5-5.607 12.5-12.5v-19.166c0-6.893-5.607-12.5-12.5-12.5h-294.86c-6.893 0-12.5 5.607-12.5 12.5v19.166c0 6.893 5.607 12.5 12.5 12.5h.457v46.111h-26.03l3.555-8.261c5.2-12.081 3.986-25.852-3.246-36.838-7.231-10.985-19.401-17.544-32.553-17.544s-25.322 6.559-32.554 17.544c-7.231 10.985-8.445 24.757-3.246 36.838l3.555 8.261h-36.388c-1.59 0-3.139.505-4.423 1.443-31.907 23.298-50.957 60.759-50.957 100.208 0 21.074 5.298 40.93 14.612 58.327-9.389 6.574-15.554 17.45-15.594 29.748h-9.328c-6.893 0-12.5 5.607-12.5 12.5v19.167c0 5.707 3.848 10.521 9.082 12.013v66.14c-5.234 1.492-9.082 6.306-9.082 12.013v19.166c0 6.893 5.607 12.5 12.5 12.5h487c6.893 0 12.5-5.607 12.5-12.5v-19.166c0-6.893-5.607-12.5-12.5-12.5h-.457v-293.585c0-4.143-3.358-7.5-7.5-7.5s-7.5 3.357-7.5 7.5v107.047h-16.847v-22.751c0-6.893-5.607-12.5-12.5-12.5h-54.266c-6.274-21.445-25.914-36.253-48.446-36.253s-42.172 14.807-48.446 36.253h-35.158c-6.07-30.03-23.171-57.24-48.283-75.662v-47.719h263.947v16.585c-.001 4.143 3.357 7.5 7.499 7.5zm-344.72 61.658c-20.859 0-40.577-9.188-54.079-24.632h108.157c-13.502 15.445-33.219 24.632-54.078 24.632zm-22.021-53.822c-3.246-7.543-2.519-15.802 1.997-22.66 4.515-6.858 11.813-10.792 20.024-10.792s15.51 3.934 20.024 10.792 5.243 15.118 1.996 22.66l-6.107 14.19h-31.827zm-86.991 115.842c0-32.03 14.293-62.564 38.582-83.182 6.069 8.426 13.549 15.611 22.004 21.305-18.37 14.404-30.207 36.776-30.207 61.877 0 20.924 8.226 39.954 21.603 54.054-3.356 1.254-6.519 2.996-9.381 5.188-6.3-4.825-14.048-7.495-22.137-7.495-2.392 0-4.728.238-6.993.68-8.578-15.566-13.471-33.434-13.471-52.427zm20.463 66.747c6.332 0 12.311 2.783 16.403 7.638 1.425 1.689 3.523 2.665 5.734 2.665 2.21 0 4.309-.976 5.734-2.665 4.093-4.854 10.071-7.638 16.403-7.638s12.311 2.783 16.403 7.638c1.425 1.689 3.523 2.665 5.734 2.665s4.309-.976 5.734-2.665c4.092-4.854 10.071-7.638 16.403-7.638 4.796 0 9.334 1.553 13.124 4.491 1.83 1.419 4.212 1.913 6.455 1.339 2.243-.573 4.095-2.151 5.019-4.274 3.41-7.842 11.133-12.908 19.676-12.908s16.267 5.066 19.677 12.908c.923 2.123 2.775 3.701 5.019 4.274 2.245.574 4.626.08 6.455-1.339 3.79-2.938 8.328-4.491 13.124-4.491 11.786 0 21.376 9.557 21.443 21.327h-219.982c.066-11.77 9.656-21.327 21.442-21.327zm-43.274 36.327h263.646v14.167h-263.646zm9.082 94.333v-65.166h245.481v65.166zm254.564 29.166h-263.646v-14.166h263.646zm218.354-14.166v14.166h-203.354v-14.166zm-191.546-221.789c5.743 0 10.721-3.871 12.106-9.413 3.954-15.803 18.109-26.84 34.423-26.84s30.469 11.037 34.422 26.84c1.387 5.542 6.365 9.413 12.107 9.413h53.684v59.578h-22.196c-4.142 0-7.5 3.357-7.5 7.5s3.358 7.5 7.5 7.5h24.696c6.893 0 12.5-5.607 12.5-12.5v-26.827h16.847v171.538h-199.48v-65.653c5.234-1.492 9.082-6.307 9.082-12.013v-19.167c0-6.893-5.607-12.5-12.5-12.5h-9.329c-.029-8.667-3.098-16.629-8.195-22.878h130.379c4.142 0 7.5-3.357 7.5-7.5s-3.358-7.5-7.5-7.5h-133.791c6.826-15.354 10.625-32.339 10.625-50.196 0-3.143-.134-6.271-.373-9.382zm-49.62 9.382c0 18.994-4.893 36.862-13.47 52.427-2.264-.442-4.601-.68-6.993-.68-5.291 0-10.397 1.111-15.091 3.257-2.683-3.586-5.993-6.609-9.725-8.967 5.419-7.471 9.582-15.97 12.118-25.235 1.093-3.995-1.259-8.12-5.254-9.214-3.999-1.091-8.121 1.259-9.214 5.255-2.452 8.959-6.788 17.028-12.493 23.852-1.518-.193-3.057-.3-4.615-.3-11.647 0-22.397 5.54-29.183 14.609-4.694-2.146-9.8-3.257-15.091-3.257-8.089 0-15.837 2.67-22.137 7.495-3.949-3.024-8.466-5.201-13.28-6.405-17.005-11.434-28.216-30.849-28.216-52.837 0-22.698 11.952-42.648 29.887-53.913 10.534 4.47 21.987 6.894 33.746 6.894 11.776 0 23.245-2.431 33.793-6.914 13.616 8.513 23.888 22.083 27.974 38.561.996 4.021 5.066 6.472 9.084 5.475 4.021-.997 6.471-5.064 5.474-9.084-4.351-17.546-14.375-32.428-27.823-42.947 8.424-5.686 15.877-12.853 21.928-21.254 24.288 20.618 38.581 51.152 38.581 83.182zm-48.694-176.929h289.86v14.166h-289.86z"/><path d="m146.823 195.47c-19.689 0-35.708 16.019-35.708 35.708s16.019 35.708 35.708 35.708 35.708-16.019 35.708-35.708-16.019-35.708-35.708-35.708zm0 56.416c-11.418 0-20.708-9.29-20.708-20.708s9.29-20.708 20.708-20.708 20.708 9.29 20.708 20.708-9.29 20.708-20.708 20.708z"/><path d="m146.823 374.212c-25.29 0-54.822 5.628-54.822 21.49s29.532 21.49 54.822 21.49 54.821-5.628 54.821-21.49-29.532-21.49-54.821-21.49zm0 27.98c-20.053 0-33.347-3.711-38.292-6.49 4.944-2.779 18.239-6.49 38.292-6.49s33.347 3.711 38.292 6.49c-4.946 2.779-18.24 6.49-38.292 6.49z"/><path d="m300.14 260.5h103.86c4.142 0 7.5-3.357 7.5-7.5s-3.358-7.5-7.5-7.5h-103.86c-4.142 0-7.5 3.357-7.5 7.5s3.358 7.5 7.5 7.5z"/><path d="m335.14 232.5h33.86c4.142 0 7.5-3.357 7.5-7.5s-3.358-7.5-7.5-7.5h-33.86c-4.142 0-7.5 3.357-7.5 7.5s3.358 7.5 7.5 7.5z"/><path d="m400.336 346c0 4.143 3.358 7.5 7.5 7.5h51.86c4.142 0 7.5-3.357 7.5-7.5s-3.358-7.5-7.5-7.5h-51.86c-4.142 0-7.5 3.357-7.5 7.5z"/><path d="m459.696 363.5h-51.86c-4.142 0-7.5 3.357-7.5 7.5s3.358 7.5 7.5 7.5h51.86c4.142 0 7.5-3.357 7.5-7.5s-3.358-7.5-7.5-7.5z"/><path d="m459.696 388.5h-21.696c-4.142 0-7.5 3.357-7.5 7.5s3.358 7.5 7.5 7.5h21.696c4.142 0 7.5-3.357 7.5-7.5s-3.358-7.5-7.5-7.5z"/></g></g></svg>