<svg id="Capa_1" enable-background="new 0 0 512 512" height="512" viewBox="0 0 512 512" width="512" xmlns="http://www.w3.org/2000/svg"><g><path d="m483.636 198.775h-455.272c0 120.157 51.046 213.404 148.176 245.412 2.338.771 3.427 3.455 2.303 5.646l-14.368 28.001c-1.988 3.875-.572 8.629 3.212 10.784 54.748 31.176 121.877 31.176 176.625 0 3.785-2.155 5.201-6.909 3.212-10.784l-14.368-28.001c-1.124-2.19-.035-4.875 2.303-5.646 97.131-32.008 148.177-125.255 148.177-245.412z" fill="#dd636e"/><path d="m483.636 198.775-54.932 79.596c-20.174 67.234-62.367 117.922-125.112 141.893-7.241 2.766-10.513 11.168-6.975 18.064l9.699 18.902c1.988 3.875.572 8.629-3.212 10.784-42.762 24.351-93.077 29.682-139.147 15.993.598 1.886 1.881 3.558 3.729 4.61 54.748 31.176 121.877 31.176 176.625 0 3.785-2.155 5.201-6.909 3.212-10.784l-14.368-28.001c-1.124-2.19-.035-4.875 2.303-5.646 97.132-32.007 148.178-125.255 148.178-245.411z" fill="#da4a54"/><path d="m345.477 86.399-52.093-8.16c-12.163-1.079-24.651-1.64-37.384-1.64-125.72 0-227.636 54.7-227.636 122.177s101.916 122.176 227.636 122.176 227.636-54.7 227.636-122.177c0-50.427-56.921-93.719-138.159-112.376z" fill="#e4989d"/><path d="m337.035 117.905-18.675 69.698c-.154.575-.745.916-1.319.762l-48.563-13.012c-.575-.154-.916-.745-.762-1.319l16.945-63.239c-9.353-.632-18.923-.96-28.661-.96-107.365 0-194.402 39.821-194.402 88.942s87.037 88.94 194.402 88.94 194.402-39.821 194.402-88.942c0-35.889-46.461-66.814-113.367-80.87z" fill="#dd636e"/><path d="m337.035 117.905-52.374-7.112c-9.353-.632-18.923-.96-28.661-.96-107.365 0-194.402 39.821-194.402 88.942 0 11.845 5.061 23.149 14.247 33.484h360.311c9.186-10.335 14.247-21.639 14.247-33.484-.001-35.889-46.462-66.814-113.368-80.87z" fill="#da4a54"/><path d="m326.978 155.436-52.613-6.22c-6.039-.28-12.166-.423-18.366-.423-99.505 0-180.169 36.905-180.169 82.43 0 .346.005.691.014 1.035 28.91 32.527 98.679 55.459 180.155 55.459s151.245-22.932 180.155-55.459c.009-.345.014-.69.014-1.035.001-33.994-44.976-63.182-109.19-75.787z" fill="#ffe07d"/><path d="m365.587 165.789c23.907 19.888 19.834 59.234-9.311 73.379-35.449 17.205-85.724 27.945-141.483 27.945-45.779 0-87.863-7.24-121.079-19.353 34.787 24.076 94.483 39.957 162.286 39.957 81.476 0 151.245-22.932 180.155-55.459.009-.345.014-.69.014-1.035 0-26.661-27.667-50.367-70.582-65.434z" fill="#ffd064"/><path d="m317.04 188.364-48.563-13.012c-.575-.154-.916-.745-.762-1.319l41.425-154.596c3.747-13.985 18.122-22.284 32.107-18.537 13.985 3.747 22.284 18.122 18.537 32.107l-41.424 154.595c-.154.575-.745.916-1.32.762z" fill="#dae4ea"/><g fill="#ffd064"><circle cx="145.916" cy="214.393" r="13.38"/><circle cx="227.503" cy="193.059" r="13.38"/><circle cx="354.008" cy="203.232" r="13.38"/><circle cx="318.617" cy="239.886" r="13.38"/></g><path d="m319.033 253.259c2.459-.075 4.751-.814 6.703-2.043-2.201.702-4.436 1.383-6.703 2.043z" fill="#ffc250"/><path d="m319.033 253.259c2.459-.075 4.751-.814 6.703-2.043-2.201.702-4.436 1.383-6.703 2.043z" fill="#ffc250"/><circle cx="196.389" cy="238.266" fill="#ffd064" r="17.734"/><circle cx="263.264" cy="242.475" fill="#ffd064" r="17.601"/><path d="m214.25 452.237c-13.091-1.692-25.778-4.401-37.71-8.05 2.338.771 3.427 3.455 2.303 5.646l-4.971 9.688c12.215 3.622 25.122 6.326 38.397 8.042.336.044.67.065 1 .065 3.826 0 7.149-2.841 7.653-6.737.548-4.233-2.44-8.107-6.672-8.654z" fill="#da4a54"/><path d="m335.46 444.187c.013-.004.026-.009.039-.013-.42.055-.842.146-1.261.274-11.932 3.649-24.62 6.358-37.71 8.05-4.232.547-7.219 4.421-6.672 8.653.504 3.896 3.826 6.737 7.653 6.737.33 0 .664-.021 1-.065 13.702-1.771 27.011-4.595 39.572-8.393l-4.924-9.597c-1.124-2.19-.035-4.875 2.303-5.646z" fill="#da4a54"/><path d="m335.46 444.187c.013-.004.026-.009.039-.013-.42.055-.842.146-1.261.274-9.837 3.009-20.188 5.377-30.854 7.065l2.934 5.718c1.711 3.335.901 7.32-1.77 9.74 11.575-1.773 22.826-4.302 33.534-7.54l-4.924-9.597c-1.125-2.191-.036-4.876 2.302-5.647z" fill="#d82e3d"/><path d="m327.752 59.009c-.662 0-1.335-.086-2.005-.265-4.122-1.105-6.567-5.341-5.463-9.463l6.776-25.286c1.105-4.123 5.346-6.566 9.463-5.464 4.122 1.105 6.567 5.341 5.463 9.463l-6.776 25.286c-.925 3.452-4.047 5.729-7.458 5.729z" fill="#c6d0da"/></g></svg>