<svg id="Capa_1" enable-background="new 0 0 511.997 511.997" height="512" viewBox="0 0 511.997 511.997" width="512" xmlns="http://www.w3.org/2000/svg"><g><path d="m476.966 200.457c0 65.499-98.93 118.597-220.967 118.597s-220.968-53.098-220.968-118.597c0 118.413 51.072 209.904 148.175 239.601l-16.052 31.283c-1.93 3.761-.555 8.376 3.118 10.468 53.144 30.263 118.307 30.263 171.451 0 3.674-2.092 5.048-6.706 3.118-10.468l-16.052-31.283c97.105-29.697 148.177-121.188 148.177-239.601z" fill="#dd636e"/><path d="m476.966 200.457c0 29.514-20.086 56.509-53.322 77.264-19.583 65.263-60.539 114.466-121.443 137.735-7.03 2.686-10.209 10.841-6.774 17.536l9.415 18.349c1.93 3.761.556 8.376-3.118 10.468-41.509 23.637-90.35 28.812-135.07 15.525.581 1.831 1.826 3.454 3.619 4.475 53.144 30.263 118.307 30.263 171.451 0 3.674-2.092 5.049-6.706 3.118-10.468l-16.052-31.282c97.104-29.698 148.176-121.189 148.176-239.602z" fill="#da4a54"/><path d="m342.854 91.373-26.323 98.239c-.149.558-.723.889-1.281.739l-47.14-12.631c-.558-.15-.889-.723-.739-1.281l24.916-92.988c-11.807-1.047-23.929-1.592-36.289-1.592-122.037 0-220.967 53.098-220.967 118.597s98.93 118.597 220.967 118.597 220.967-53.098 220.967-118.597c.001-48.949-55.253-90.972-134.111-109.083z" fill="#e4989d"/><path d="m334.66 121.956-18.128 67.656c-.149.558-.723.889-1.281.739l-47.14-12.631c-.558-.15-.889-.723-.739-1.281l16.448-61.387c-9.079-.614-18.369-.932-27.821-.932-104.22 0-188.707 38.654-188.707 86.337s84.487 86.337 188.707 86.337 188.707-38.654 188.707-86.337c-.001-34.838-45.101-64.857-110.046-78.501z" fill="#dd636e"/><path d="m334.66 121.956-18.128 67.656c-.149.558-.723.889-1.281.739l-47.14-12.631c-.558-.15-.889-.723-.739-1.281l16.448-61.387c-9.079-.614-18.369-.932-27.821-.932-104.22 0-188.707 38.654-188.707 86.337s84.487 86.337 188.707 86.337 188.707-38.654 188.707-86.337c-.001-34.838-45.101-64.857-110.046-78.501z" fill="#da4a54"/><path d="m324.898 158.388-8.366 31.224c-.149.558-.723.889-1.281.739l-47.14-12.631c-.558-.15-.889-.723-.739-1.281l6.455-24.089c-5.862-.272-11.809-.411-17.827-.411-96.59 0-174.891 35.824-174.891 80.016 0 .335.005.67.014 1.005 28.063 31.574 95.788 53.834 174.877 53.834s146.814-22.26 174.877-53.834c.009-.335.014-.67.014-1.005-.002-32.999-43.661-61.332-105.993-73.567z" fill="#ffe07d"/><path d="m362.375 168.437c23.207 19.306 19.253 57.498-9.039 71.229-34.41 16.701-83.213 27.126-137.338 27.126-44.438 0-85.289-7.028-117.532-18.786 33.768 23.37 91.715 38.786 157.532 38.786 79.089 0 146.814-22.26 174.877-53.834.009-.335.014-.67.014-1.005 0-25.879-26.856-48.89-68.514-63.516z" fill="#ffd064"/><path d="m315.251 190.351-47.14-12.631c-.558-.149-.889-.723-.739-1.281l40.21-150.067c3.637-13.575 17.591-21.631 31.166-17.994 13.575 3.637 21.631 17.591 17.994 31.166l-40.21 150.067c-.15.558-.724.889-1.281.74z" fill="#dae4ea"/><g fill="#ffd064"><circle cx="149.14" cy="215.617" r="12.988"/><circle cx="228.336" cy="194.908" r="12.988"/><circle cx="351.135" cy="204.783" r="12.988"/><circle cx="316.781" cy="240.363" r="12.988"/></g><path d="m317.185 253.345c2.387-.073 4.612-.79 6.507-1.983-2.137.681-4.306 1.342-6.507 1.983z" fill="#ffc250"/><circle cx="198.134" cy="238.791" fill="#ffd064" r="17.214"/><circle cx="263.049" cy="242.876" fill="#ffd064" r="17.085"/><path d="m172.529 444.439-12.047 23.477c-3.774 7.354-1.103 16.319 6.08 20.41 55.382 31.537 123.404 31.587 178.873 0 7.184-4.09 9.854-13.055 6.08-20.409l-12.045-23.475c15.15-5.328 29.406-12.26 42.481-20.662 3.485-2.239 4.494-6.88 2.255-10.364s-6.879-4.494-10.364-2.255c-25.603 16.453-54.255 25.713-83.843 29.538-4.108.531-7.008 4.292-6.477 8.399.533 4.122 4.31 7.009 8.399 6.477 11.356-1.468 22.434-3.68 33.019-6.591l13.229 25.781c.098.189.029.42-.157.526-50.588 28.808-113.439 28.807-164.028 0-.185-.105-.254-.336-.157-.526l13.229-25.781c10.586 2.911 21.663 5.123 33.019 6.591 4.089.533 7.867-2.354 8.399-6.477.531-4.108-2.369-7.869-6.477-8.399-103-13.316-162.291-87.78-176.214-190.297 11.386 14.758 27.918 28.251 49.087 39.802 3.62 1.976 8.183.661 10.176-2.991 1.984-3.636.645-8.192-2.991-10.176-79.844-43.565-79.311-110.597 1.243-153.832 51.91-27.861 119.71-36.897 179.407-32.97l-4.546 16.966c-51.645-2.71-111.745 3.897-158.716 25.387-38.466 17.599-59.651 41.702-59.651 67.869s21.185 50.27 59.651 67.869c75.718 34.642 197.372 34.652 273.112 0 38.466-17.599 59.651-41.702 59.651-67.869 0-20.021-12.417-38.951-35.91-54.743-3.438-2.31-8.098-1.397-10.409 2.041s-1.397 8.098 2.041 10.409c20.091 13.506 35.76 32.907 26.634 55.447-4.991-11.714-14.801-22.706-29.072-32.424-18.106-12.328-42.632-22.123-71.295-28.513l5.852-21.841c13.424 3.138 25.949 7.019 37.317 11.565 3.862 1.546 8.218-.349 9.749-4.178 1.539-3.846-.332-8.211-4.178-9.749-11.932-4.773-25.021-8.844-39.004-12.135l4.276-15.96c35.143 8.873 64.971 22.579 86.598 39.836 22.676 18.095 34.662 38.927 34.662 60.244 0 28.785-21.581 56.221-60.767 77.252-75.666 40.612-192.389 44.229-275.64 13.323-3.884-1.441-8.2.538-9.642 4.421-1.441 3.883.538 8.2 4.421 9.642 86.442 32.09 207.848 28.826 287.954-14.169 21.815-11.708 38.802-25.445 50.423-40.504-7.926 58.359-30.234 106.098-65.674 139.773-3.003 2.853-3.124 7.601-.271 10.603 2.856 3.006 7.604 3.121 10.603.271 53.442-50.78 73.592-126.252 73.592-200.613 0-49.651-51.686-94.129-132.377-114.569l11.897-44.401c2.278-8.501 1.109-17.38-3.292-25.001-9.104-15.768-29.234-21.165-45.006-12.058-7.622 4.4-13.073 11.505-15.351 20.006l-13.677 51.041c-63.178-4.615-135.151 4.832-190.456 34.515-44.284 23.768-68.673 55.897-68.673 90.469 0 60.546 13.399 114.813 38.748 156.936 24.863 41.315 61.471 71.264 106.25 87.046zm83.47-322.819c6.07 0 12.158.136 18.188.405l-6.056 22.6c-4.034-.124-8.095-.187-12.132-.187-70.936 0-135.786 19.532-165.214 49.761-5.975 6.138-10.447 12.691-13.328 19.462-1.751-4.306-2.665-8.719-2.665-13.205 0-42.733 82.982-78.836 181.207-78.836zm167.334 108.541c-27.586 28.516-93.108 49.133-167.335 49.133-74.229 0-139.752-20.618-167.336-49.134.524-8.687 4.844-17.251 12.871-25.496 26.745-27.473 87.376-45.224 154.466-45.224 2.708 0 5.426.03 8.139.088l-4.012 14.973c-1.218 4.551 1.493 9.245 6.043 10.465l47.136 12.629c4.574 1.229 9.252-1.489 10.471-6.042l6.531-24.376c54.721 12.09 91.414 36.851 93.026 62.984zm-108.507-201.848c2.566-9.578 12.396-15.259 21.98-12.69 9.58 2.567 15.258 12.398 12.69 21.98-19.81 73.933-27.064 101.007-38.539 143.832l-34.671-9.29c5.111-19.073 28.453-106.186 38.54-143.832z"/><path d="m323.702 64.528c4.008 1.071 8.115-1.306 9.186-5.304l6.577-24.545c1.072-4.001-1.302-8.114-5.303-9.186-3.997-1.07-8.114 1.302-9.186 5.304l-6.577 24.545c-1.072 4.001 1.302 8.113 5.303 9.186z"/><path d="m149.14 195.129c-11.297 0-20.488 9.191-20.488 20.488s9.191 20.488 20.488 20.488 20.488-9.191 20.488-20.488-9.191-20.488-20.488-20.488zm0 25.976c-3.026 0-5.488-2.462-5.488-5.488s2.462-5.488 5.488-5.488 5.488 2.462 5.488 5.488-2.462 5.488-5.488 5.488z"/><path d="m248.825 194.908c0-11.297-9.191-20.488-20.488-20.488s-20.488 9.191-20.488 20.488 9.191 20.488 20.488 20.488 20.488-9.191 20.488-20.488zm-20.489 5.488c-3.026 0-5.488-2.462-5.488-5.488s2.462-5.488 5.488-5.488 5.488 2.462 5.488 5.488-2.461 5.488-5.488 5.488z"/><path d="m351.135 225.272c11.297 0 20.488-9.191 20.488-20.488s-9.191-20.488-20.488-20.488-20.488 9.191-20.488 20.488 9.19 20.488 20.488 20.488zm0-25.977c3.026 0 5.488 2.462 5.488 5.488s-2.462 5.488-5.488 5.488-5.488-2.462-5.488-5.488 2.461-5.488 5.488-5.488z"/><path d="m316.781 219.875c-11.297 0-20.488 9.191-20.488 20.488s9.191 20.488 20.488 20.488 20.488-9.191 20.488-20.488c.001-11.297-9.19-20.488-20.488-20.488zm0 25.976c-3.026 0-5.488-2.462-5.488-5.488s2.462-5.488 5.488-5.488 5.488 2.462 5.488 5.488c.001 3.026-2.461 5.488-5.488 5.488z"/><path d="m198.134 214.077c-13.627 0-24.714 11.087-24.714 24.714s11.087 24.714 24.714 24.714 24.714-11.086 24.714-24.714-11.086-24.714-24.714-24.714zm0 34.428c-5.356 0-9.714-4.357-9.714-9.714s4.358-9.714 9.714-9.714 9.714 4.358 9.714 9.714-4.357 9.714-9.714 9.714z"/><path d="m263.049 218.291c-13.556 0-24.585 11.029-24.585 24.585s11.029 24.585 24.585 24.585c13.557 0 24.585-11.029 24.585-24.585s-11.028-24.585-24.585-24.585zm0 34.171c-5.285 0-9.585-4.3-9.585-9.585s4.3-9.585 9.585-9.585c5.286 0 9.585 4.3 9.585 9.585s-4.299 9.585-9.585 9.585z"/></g></svg>