<svg id="Capa_1" enable-background="new 0 0 512 512" height="512" viewBox="0 0 512 512" width="512" xmlns="http://www.w3.org/2000/svg"><g><path d="m165.536 52.143h180.929v67.5h-180.929z" fill="#70d9e6"/><path d="m313.439 52.143h33.026v67.5h-33.026z" fill="#3ad1e0"/><path d="m320.232 504.5h-128.464c-46.944 0-85-38.056-85-85v-270.952c0-14.22 8.603-27.026 21.767-32.402l37-15.11h180.929l37 15.11c13.164 5.376 21.767 18.182 21.767 32.402v270.952c.001 46.944-38.055 85-84.999 85z" fill="#a8e7ef"/><path d="m405.23 148.55v270.95c0 46.94-38.05 85-85 85h-44.77c46.95 0 85-38.06 85-85v-270.95c0-14.22-8.6-27.03-21.76-32.4l-37-15.11h44.76l37 15.11c13.17 5.37 21.77 18.18 21.77 32.4z" fill="#70d9e6"/><path d="m405.232 148.548v270.952c0 46.944-38.056 85-85 85h-128.464c-46.944 0-85-38.056-85-85v-270.952z" fill="#925b46"/><path d="m106.768 331.717h298.464v61.943h-298.464z" fill="#865240"/><path d="m405.23 148.55v270.95c0 46.94-38.05 85-85 85h-44.77c46.95 0 85-38.06 85-85v-270.95z" fill="#865240"/><path d="m366.536 70.786h-221.072c-9.054 0-16.393-7.339-16.393-16.393v-30.5c0-9.054 7.339-16.393 16.393-16.393h221.071c9.054 0 16.393 7.339 16.393 16.393v30.5c.001 9.053-7.339 16.393-16.392 16.393z" fill="#22c7db"/><path d="m382.93 23.89v30.5c0 9.06-7.34 16.4-16.39 16.4h-221.08c-9.05 0-16.39-7.34-16.39-16.4v-30.5c0-9.05 7.34-16.39 16.39-16.39h221.08c9.05 0 16.39 7.34 16.39 16.39z" fill="#22c7db"/><path d="m382.93 23.89v30.5c0 9.06-7.34 16.4-16.39 16.4h-39.47c9.05 0 16.39-7.34 16.39-16.4v-30.5c0-9.05-7.34-16.39-16.39-16.39h39.47c9.05 0 16.39 7.34 16.39 16.39z" fill="#1fb2cc"/><path d="m106.768 196.461h298.464v175.23h-298.464z" fill="#22c7db"/><path d="m360.46 196.46h44.77v175.23h-44.77z" fill="#1fb2cc"/><path d="m106.768 228.482c79.093 0 165.281 64.117 165.281 143.21h-165.281z" fill="#fcc16d"/><g fill="#925b46"><path d="m319.094 283.52-17.492 17.492c-1.559 1.559-4.086 1.559-5.644 0l-17.492-17.492c-1.559-1.559-1.559-4.086 0-5.644l17.492-17.492c1.559-1.559 4.086-1.559 5.644 0l17.492 17.492c1.558 1.558 1.558 4.085 0 5.644z"/><path d="m342.23 260.383-17.492 17.492c-1.559 1.559-4.086 1.559-5.644 0l-17.492-17.492c-1.559-1.559-1.559-4.086 0-5.644l17.492-17.492c1.559-1.559 4.086-1.559 5.644 0l17.492 17.492c1.559 1.559 1.559 4.086 0 5.644z"/><path d="m342.23 306.656-17.492 17.492c-1.559 1.559-4.086 1.559-5.644 0l-17.492-17.492c-1.559-1.559-1.559-4.086 0-5.644l17.492-17.492c1.559-1.559 4.086-1.559 5.644 0l17.492 17.492c1.559 1.559 1.559 4.086 0 5.644z"/><path d="m365.367 283.52-17.492 17.492c-1.559 1.559-4.086 1.559-5.644 0l-17.492-17.492c-1.559-1.559-1.559-4.086 0-5.644l17.492-17.492c1.559-1.559 4.086-1.559 5.644 0l17.492 17.492c1.558 1.558 1.558 4.085 0 5.644z"/></g><g><path d="m139.438 293.285 18.492.001c4.142 0 7.5-3.357 7.5-7.5 0-4.142-3.357-7.5-7.5-7.5l-18.492-.001c-4.142 0-7.5 3.357-7.5 7.5 0 4.142 3.358 7.5 7.5 7.5z"/><path d="m206.006 304.804-66.566-.002c-4.142 0-7.5 3.357-7.5 7.5 0 4.142 3.357 7.5 7.5 7.5l66.566.002c4.142 0 7.5-3.357 7.5-7.5 0-4.142-3.358-7.5-7.5-7.5z"/><path d="m206.006 331.32-66.566-.002c-4.142 0-7.5 3.357-7.5 7.5 0 4.142 3.357 7.5 7.5 7.5l66.566.002c4.142 0 7.5-3.357 7.5-7.5 0-4.141-3.358-7.5-7.5-7.5z"/><path d="m370.67 272.572-17.492-17.492c-.993-.992-2.128-1.752-3.336-2.304-.553-1.209-1.313-2.346-2.307-3.34l-17.492-17.492c-4.48-4.48-11.771-4.48-16.252 0l-17.492 17.492c-.993.993-1.754 2.13-2.306 3.338-1.208.553-2.345 1.313-3.338 2.306l-17.492 17.492c-4.479 4.48-4.479 11.771 0 16.251l17.492 17.492c.993.993 2.13 1.753 3.338 2.306.553 1.208 1.313 2.345 2.307 3.338l17.492 17.492c2.24 2.24 5.184 3.36 8.126 3.36s5.886-1.12 8.126-3.36l17.492-17.492c.994-.994 1.754-2.131 2.307-3.34 1.208-.553 2.343-1.312 3.335-2.305l17.493-17.492h.001c4.478-4.479 4.478-11.769-.002-16.25zm-48.754-27.541 12.53 12.53-12.53 12.53-12.53-12.53zm-35.666 35.666 12.529-12.529 12.529 12.529-12.529 12.529zm35.666 35.667-12.53-12.53 12.53-12.53 12.53 12.53zm23.137-23.137-12.529-12.529 12.529-12.528 12.529 12.528z"/><path d="m386.301 109.203-32.337-13.207v-17.711h12.571c13.175 0 23.894-10.718 23.894-23.893v-30.5c0-13.174-10.719-23.892-23.894-23.892h-221.07c-13.175 0-23.894 10.718-23.894 23.893v30.5c0 13.175 10.719 23.893 23.894 23.893h12.571v17.711l-32.337 13.207c-16.057 6.558-26.432 22.001-26.432 39.346v270.95c0 16.791 4.556 33.245 13.175 47.584 2.134 3.552 6.743 4.697 10.291 2.565 3.551-2.135 4.699-6.742 2.564-10.292-7.216-12.007-11.03-25.789-11.03-39.857v-40.309h283.465v40.309c0 42.733-34.767 77.5-77.5 77.5h-128.464c-16.816 0-32.812-5.296-46.257-15.316-3.321-2.476-8.02-1.789-10.495 1.532s-1.789 8.02 1.532 10.495c16.055 11.965 35.149 18.289 55.22 18.289h128.465c51.005 0 92.5-41.495 92.5-92.5v-270.951c-.001-17.345-10.376-32.788-26.432-39.346zm-110.475-30.918c4.143 0 7.5-3.357 7.5-7.5s-3.357-7.5-7.5-7.5h-130.361c-4.904 0-8.894-3.989-8.894-8.893v-30.5c0-4.903 3.989-8.893 8.894-8.893h221.07c4.904 0 8.894 3.989 8.894 8.893v30.5c0 4.903-3.989 8.893-8.894 8.893h-57.718c-4.143 0-7.5 3.357-7.5 7.5s3.357 7.5 7.5 7.5h30.146v15.25h-165.927v-15.25zm-144.455 44.805 35.637-14.555h177.984l35.637 14.555c7.996 3.265 13.799 9.942 16.056 17.958h-281.37c2.257-8.016 8.06-14.693 16.056-17.958zm-17.103 113.102c68.58 3.684 144.833 57.647 149.996 128h-149.996zm165.039 127.999c-2.37-36.811-22.063-72.123-55.755-99.788-31.41-25.792-71.004-41.408-109.284-43.235v-17.207h194.501c4.143 0 7.5-3.357 7.5-7.5s-3.357-7.5-7.5-7.5h-194.501v-32.913h283.465v32.913h-55.973c-4.143 0-7.5 3.357-7.5 7.5s3.357 7.5 7.5 7.5h55.973v160.23z"/></g></g></svg>