<svg id="Capa_1" enable-background="new 0 0 512 512" height="512" viewBox="0 0 512 512" width="512" xmlns="http://www.w3.org/2000/svg"><g><path d="m109.376 314.259c-.001-.075-.01-.148-.01-.224 0-12.731 10.32-23.052 23.052-23.052 2.382 0 4.679.362 6.84 1.033-1.101-2.69-1.718-5.63-1.718-8.716 0-7.052 3.17-13.361 8.159-17.589-6.499-5.194-14.734-8.307-23.7-8.307-20.987 0-38 17.013-38 38 0 3.465.473 6.819 1.342 10.009 9.146.08 17.518 3.389 24.035 8.846z" fill="#fb2b3a"/><path d="m108.698 313.709c-2.992-5.429-4.698-11.667-4.698-18.305 0-17.525 11.866-32.27 28-36.661-3.187-.867-6.538-1.339-10-1.339-20.987 0-38 17.013-38 38 0 3.465.473 6.819 1.342 10.009 8.832.078 16.94 3.17 23.356 8.296z" fill="#e41f2d"/><path d="m93.209 362.608c-1.935-3.369-3.052-7.267-3.052-11.434 0-12.731 10.32-23.052 23.052-23.052.348 0 .686.037 1.03.052-3-3.851-4.812-8.668-4.863-13.916-6.598-5.525-15.097-8.855-24.376-8.855-20.987 0-38 17.013-38 38 0 7.008 1.905 13.568 5.214 19.204h40.995z" fill="#fb2b3a"/><path d="m93.209 362.608c-1.935-3.369-3.052-7.267-3.052-11.434 0-12.731 10.32-23.052 23.052-23.052.348 0 .686.037 1.03.052-3-3.851-4.812-8.668-4.863-13.916-6.598-5.525-15.097-8.855-24.376-8.855-20.987 0-38 17.013-38 38 0 7.008 1.905 13.568 5.214 19.204h40.995z" fill="#fb2b3a"/><path d="m95.876 306.995c-3.446-1.029-7.094-1.591-10.876-1.591-20.987 0-38 17.013-38 38 0 7.008 1.905 13.568 5.214 19.204h21.761c-3.309-5.636-5.214-12.196-5.214-19.204 0-17.203 11.434-31.728 27.115-36.409z" fill="#e41f2d"/><path d="m335.397 256.166c1.194 2.739 1.872 5.755 1.91 8.926 3.9-3.025 8.783-4.844 14.101-4.844 12.731 0 23.052 10.32 23.052 23.052 0 1.179-.091 2.336-.264 3.466 4.015-.803 8.61.218 13.19 2.72.184-.097.376-.188.555-.289.048.027.1.05.148.077 1.986-14.98 9.997-26.189 19.582-26.189 7.133 0 13.391 6.21 16.948 15.557.916-1.129 1.897-2.23 2.957-3.289 5.317-5.317 11.601-8.836 17.857-10.441-.068-.622-.177-1.24-.34-1.852-1.465-5.468-6.568-9.39-13.582-11.286 9.442-12.092 11.823-25.908 4.97-32.76-5.045-5.045-13.864-5.078-22.991-.981.155-1.467.242-2.961.242-4.482 0-18.289-11.547-33.115-25.792-33.115-14.244 0-25.792 14.826-25.792 33.115 0 1.499.085 2.971.235 4.417-9.125-4.095-17.941-4.06-22.985.984-6.862 6.862-4.464 20.707 5.011 32.812-3.576.961-6.654 2.452-9.012 4.402z" fill="#68ca44"/><path d="m372.741 292.016c2.161-.671 4.458-1.033 6.84-1.033 12.731 0 23.052 10.321 23.052 23.052 0 5.335-1.83 10.233-4.872 14.139.344-.015.682-.052 1.03-.052 12.731 0 23.052 10.321 23.052 23.052 0 4.167-1.117 8.065-3.052 11.434h34.113c.045-3.527-1.117-7.367-3.308-11.181 15.227-1.874 26.68-9.96 26.68-19.65 0-7.134-6.213-13.394-15.564-16.951 1.146-.928 2.265-1.923 3.34-2.998 12.932-12.932 15.251-31.581 5.178-41.653-10.072-10.072-28.721-7.754-41.653 5.178-1.06 1.06-2.041 2.161-2.957 3.289-3.557-9.347-9.815-15.557-16.948-15.557-9.704 0-17.799 11.485-19.658 26.745-4.786-2.758-9.619-3.905-13.818-3.065-.28 1.83-.774 3.588-1.455 5.251z" fill="#80d261"/><g><path d="m390.788 71.162c1.604 3.287 2.016 6.439.978 9.214-3.783 10.112-25.286 11.412-48.027 2.904-22.742-8.508-38.111-23.602-34.328-33.714 1.36-3.635 5.018-6.124 10.191-7.436-35.917-6.773-65.61-.633-72.25 17.116-8.535 22.815 24.246 56.163 73.219 74.484s95.593 14.679 104.128-8.136c5.953-15.911-8.194-36.944-33.911-54.432z" fill="#fff"/><path d="m278.352 72.843c3.773-10.086 15.004-16.412 30.577-18.76-.19-1.581-.049-3.099.481-4.517 1.36-3.635 5.018-6.124 10.191-7.436-35.917-6.773-65.61-.633-72.25 17.116-8.535 22.815 24.246 56.163 73.219 74.484 1.824.682 3.643 1.324 5.458 1.946-34.218-18.741-54.62-44.272-47.676-62.833z" fill="#eaf6ff"/><g><ellipse cx="350.588" cy="64.971" fill="#fdb441" rx="19.549" ry="43.965" transform="matrix(.35 -.937 .937 .35 166.892 370.567)"/></g></g><g><g><path d="m418.171 363.608c2.313-3.587 3.672-7.846 3.672-12.434 0-12.731-10.32-23.052-23.052-23.052-.348 0-.686.037-1.03.052 3.042-3.906 4.872-8.804 4.872-14.139 0-12.731-10.32-23.052-23.052-23.052-2.382 0-4.679.362-6.84 1.033 1.101-2.69 1.718-5.63 1.718-8.716 0-12.731-10.321-23.052-23.052-23.052-5.318 0-10.201 1.819-14.101 4.844-.151-12.601-10.401-22.773-23.038-22.773-6.83 0-12.947 2.988-17.168 7.707-3.492-8.29-11.691-14.11-21.251-14.11-8.464 0-15.841 4.575-19.85 11.373-4.009-6.798-11.386-11.373-19.85-11.373-9.56 0-17.759 5.82-21.251 14.11-4.221-4.719-10.338-7.707-17.168-7.707-12.637 0-22.886 10.172-23.038 22.773-3.9-3.025-8.783-4.844-14.101-4.844-12.731 0-23.052 10.32-23.052 23.052 0 3.086.617 6.026 1.718 8.716-2.161-.671-4.458-1.033-6.84-1.033-12.731 0-23.052 10.321-23.052 23.052 0 5.335 1.83 10.233 4.872 14.139-.344-.015-.682-.052-1.03-.052-12.731 0-23.052 10.321-23.052 23.052 0 4.588 1.359 8.847 3.672 12.434z" fill="#ea9b58"/></g><g><path d="m125.332 362.608c9.878-55.092 73.789-97.608 151.168-97.608 36.743 0 70.448 9.588 96.776 25.554.76-2.282 1.183-4.718 1.183-7.255 0-12.731-10.321-23.052-23.052-23.052-5.318 0-10.201 1.819-14.101 4.844-.151-12.601-10.401-22.773-23.038-22.773-6.83 0-12.947 2.988-17.168 7.707-3.492-8.29-11.691-14.11-21.251-14.11-8.464 0-15.841 4.575-19.85 11.373-4.009-6.798-11.386-11.373-19.85-11.373-9.56 0-17.759 5.82-21.251 14.11-4.221-4.719-10.338-7.707-17.168-7.707-12.637 0-22.886 10.172-23.038 22.773-3.9-3.025-8.783-4.844-14.101-4.844-12.731 0-23.052 10.32-23.052 23.052 0 3.086.617 6.026 1.718 8.716-2.161-.671-4.458-1.033-6.84-1.033-12.731 0-23.052 10.321-23.052 23.052 0 5.335 1.83 10.233 4.872 14.139-.344-.015-.682-.052-1.03-.052-12.731 0-23.052 10.321-23.052 23.052 0 4.167 1.117 8.065 3.052 11.434h32.125z" fill="#d88a55"/></g></g><path d="m63.379 395.595c20.26 32.056 52.766 58.364 92.642 75.018 3.073 1.283 6.37 1.951 9.7 1.951h180.558c3.33 0 6.627-.668 9.7-1.951 39.876-16.654 72.383-42.962 92.642-75.018z" fill="#d8ecfe"/><path d="m123.574 395.595h-60.195c20.26 32.056 52.766 58.364 92.642 75.018 3.073 1.283 6.37 1.951 9.7 1.951h60.196c-3.33 0-6.627-.668-9.7-1.951-39.877-16.654-72.383-42.962-92.643-75.018z" fill="#c4e2ff"/><g><path d="m489.5 395.595h-467c-8.284 0-15-6.716-15-15v-2.987c0-8.284 6.716-15 15-15h467c8.284 0 15 6.716 15 15v2.987c0 8.284-6.716 15-15 15z" fill="#eaf6ff"/></g><g><path d="m50 380.595v-2.987c0-8.284 6.716-15 15-15h-42.5c-8.284 0-15 6.716-15 15v2.987c0 8.284 6.716 15 15 15h42.5c-8.284 0-15-6.716-15-15z" fill="#d8ecfe"/></g><g><path d="m109.79 201.614c10.265 10.265 26.117 11.539 37.769 3.821 2.638-1.747 3.015-5.477.777-7.715l-34.652-34.652c-2.237-2.237-5.967-1.861-7.715.777-7.718 11.652-6.445 27.504 3.821 37.769z" fill="#fe9901"/></g><g><path d="m205.777 132.743c2.439-.654 4.056-3.031 3.658-5.524-1.185-7.425-4.636-14.557-10.359-20.28s-12.855-9.174-20.28-10.359c-2.494-.398-4.871 1.219-5.524 3.658l-9.656 36.037c-.996 3.718 2.406 7.12 6.124 6.124z" fill="#fb2b3a"/></g><g><path d="m103.728 56.238c-.654-2.439-3.031-4.056-5.524-3.658-7.425 1.185-14.557 4.636-20.28 10.359s-9.174 12.855-10.359 20.28c-.398 2.494 1.219 4.871 3.658 5.524l36.037 9.657c3.718.996 7.12-2.406 6.124-6.124z" fill="#68ca44"/></g><g><path d="m317.942 140.755c15.446 5.779 31.438 9.683 46.248 11.291.275.03.548.044.818.044 3.779 0 7.03-2.848 7.447-6.691.447-4.118-2.528-7.819-6.646-8.266-13.584-1.475-28.319-5.081-42.611-10.428-48.116-18.001-74.889-48.615-68.822-64.832 3.004-8.029 14.106-13.367 30.46-14.645 5.476-.427 11.32-.377 17.409.104-1.607 4.669-2.314 13.804 9.128 25.042 7.216 7.087 17.776 13.455 29.737 17.929 10.617 3.972 21.381 6.095 30.726 6.095 1.184 0 2.344-.034 3.479-.103 13.558-.82 19.549-6.222 22.191-10.637 16.199 13.769 23.673 27.939 20.169 37.307-2.765 7.389-11.592 11.021-18.509 12.765-4.017 1.013-6.451 5.09-5.438 9.107 1.014 4.017 5.093 6.446 9.106 5.438 14.909-3.761 24.898-11.387 28.89-22.054 5.208-13.921-.729-30.546-16.72-46.813-5.285-5.376-11.506-10.54-18.452-15.385-1.536-2.642-3.711-5.475-6.748-8.458-7.216-7.087-17.777-13.455-29.738-17.929-11.96-4.475-24.111-6.603-34.203-5.992-2.376.144-4.512.432-6.447.827-12.655-2.273-24.801-3.054-35.749-2.197-22.74 1.776-38.132 10.422-43.34 24.343s.729 30.546 16.72 46.813c14.58 14.834 36.207 28.088 60.895 37.325zm66.799-63.007c-1.225 3.274-16.192 6.806-38.375-1.492-22.185-8.3-31.156-20.788-29.932-24.062.664-1.776 5.367-3.627 13.071-3.627 6.505 0 15.148 1.32 25.304 5.119 9.892 3.701 18.815 9.016 24.483 14.582 4.827 4.74 5.903 8.267 5.449 9.48z"/><path d="m187.146 299.359c2.551 3.264 7.266 3.84 10.527 1.29 3.264-2.551 3.841-7.265 1.289-10.528-4.374-5.595-10.951-8.804-18.047-8.804-12.627 0-22.9 10.273-22.9 22.9 0 4.142 3.357 7.5 7.5 7.5s7.5-3.358 7.5-7.5c0-4.356 3.544-7.9 7.9-7.9 2.448 0 4.719 1.109 6.231 3.042z"/><path d="m235.525 288.803c3.263 2.551 7.977 1.974 10.528-1.29 1.511-1.933 3.781-3.042 6.229-3.042 4.356 0 7.9 3.543 7.9 7.899 0 4.142 3.357 7.5 7.5 7.5s7.5-3.358 7.5-7.5c0-12.627-10.273-22.899-22.9-22.899-7.096 0-13.674 3.209-18.048 8.804-2.549 3.264-1.972 7.977 1.291 10.528z"/><path d="m315.049 318.537c.77.25 1.551.369 2.319.369 3.161 0 6.102-2.015 7.131-5.185.758-2.333 2.512-4.15 4.813-4.988 1.982-.723 4.129-.628 6.04.263 1.912.892 3.363 2.475 4.086 4.458 1.416 3.892 5.719 5.896 9.613 4.481 3.892-1.417 5.898-5.722 4.48-9.614-2.093-5.748-6.299-10.336-11.843-12.92s-11.762-2.855-17.509-.762c-6.669 2.428-11.753 7.694-13.947 14.448-1.279 3.938.877 8.17 4.817 9.45z"/><path d="m210.681 342.188c.771.25 1.552.37 2.321.37 3.16 0 6.101-2.014 7.131-5.183.759-2.333 2.513-4.153 4.813-4.99 1.984-.722 4.129-.628 6.042.263 1.912.892 3.362 2.474 4.084 4.457 1.417 3.892 5.72 5.901 9.613 4.482 3.893-1.417 5.899-5.721 4.482-9.613-2.093-5.748-6.298-10.336-11.843-12.921-5.543-2.584-11.762-2.855-17.511-.763-6.667 2.428-11.75 7.693-13.946 14.447-1.28 3.939.875 8.171 4.814 9.451z"/><path d="m489.5 355.108h-24.511c11.521-4.869 18.786-13.463 18.786-23.332 0-7.221-3.862-13.84-10.694-18.808 5.287-6.613 8.658-14.303 9.63-22.115 1.27-10.213-1.635-19.44-8.177-25.983-6.266-6.266-14.97-8.962-24.078-8.298-1.782-3.167-4.429-5.916-7.826-8.083 7.22-13.284 7.135-26.8-.844-34.779-5.107-5.107-12.525-7.055-20.865-5.736-2.235-19.766-16.173-35.038-32.979-35.038-16.789 0-30.716 15.24-32.972 34.977-8.347-1.323-15.764.626-20.873 5.735-6.052 6.052-7.555 15.282-4.786 25.18-4.451-2.544-9.585-4.009-15.04-4.009-5.423 0-10.702 1.458-15.316 4.141-5.7-6.592-14.061-10.544-23.104-10.544-7.348 0-14.383 2.696-19.85 7.371-5.467-4.674-12.502-7.371-19.85-7.371-9.043 0-17.403 3.952-23.104 10.544-4.614-2.682-9.894-4.141-15.316-4.141-12.772 0-23.812 7.979-28.344 19.215-2.821-.851-5.773-1.286-8.794-1.286-5.387 0-10.449 1.407-14.848 3.864-6.917-4.25-15.048-6.708-23.745-6.708-25.089 0-45.5 20.411-45.5 45.5 0 1.106.053 2.199.133 3.284-21.104 3.941-37.133 22.486-37.133 44.716 0 4.048.547 7.967 1.546 11.704h-18.546c-12.406 0-22.5 10.093-22.5 22.5v2.987c0 12.407 10.094 22.5 22.5 22.5h36.808c21.095 31.67 53.686 57.675 93.823 74.438 4.02 1.679 8.256 2.53 12.59 2.53h124.279c4.143 0 7.5-3.358 7.5-7.5s-3.357-7.5-7.5-7.5h-124.279c-2.34 0-4.63-.461-6.809-1.372-33.793-14.113-61.762-35.128-81.194-60.597h356.564c-19.433 25.469-47.402 46.484-81.194 60.598-2.179.91-4.469 1.371-6.809 1.371h-20.279c-4.143 0-7.5 3.358-7.5 7.5s3.357 7.5 7.5 7.5h20.279c4.334 0 8.57-.851 12.59-2.53 40.138-16.764 72.728-42.769 93.823-74.439h36.808c12.406 0 22.5-10.093 22.5-22.5v-2.987c0-12.406-10.094-22.499-22.5-22.499zm-25.574-79.631c3.2 3.2 4.585 8.004 3.898 13.526-.773 6.219-3.997 12.441-9.078 17.522-.84.84-1.766 1.671-2.753 2.47-2.087 1.688-3.111 4.363-2.688 7.014.424 2.65 2.231 4.873 4.74 5.827 6.518 2.479 10.729 6.381 10.729 9.94 0 4.681-7.684 10.679-20.096 12.207-2.494.307-4.669 1.843-5.793 4.091-1.114 2.23-1.044 4.865.179 7.034h-13.983c.167-1.29.261-2.601.261-3.934 0-8.412-3.424-16.033-8.943-21.563l24.413-24.413c2.929-2.929 2.929-7.678 0-10.606s-7.677-2.93-10.607 0l-24.505 24.505c.277-1.659.434-3.347.434-5.062 0-10.871-5.71-20.428-14.286-25.845 1.97-10.94 7.461-17.606 11.824-17.606 3.558 0 7.459 4.21 9.938 10.725.954 2.506 3.174 4.313 5.821 4.737 2.652.423 5.32-.596 7.012-2.678.79-.974 1.61-1.887 2.436-2.713 9.818-9.817 24.035-12.189 31.047-5.178zm-119.224-51.222c1.168-1.168 3.028-1.747 5.323-1.747 2.65 0 5.88.772 9.289 2.302 2.445 1.098 5.295.806 7.467-.766 2.173-1.572 3.341-4.185 3.063-6.853-.13-1.245-.195-2.47-.195-3.641 0-13.885 8.376-25.615 18.291-25.615s18.292 11.73 18.292 25.615c0 1.193-.067 2.436-.2 3.692-.283 2.67.883 5.287 3.057 6.862 2.174 1.576 5.024 1.869 7.474.77 6.359-2.856 12.099-3.077 14.615-.559 3.311 3.31 2.119 12.984-5.578 22.841-1.547 1.98-1.999 4.604-1.203 6.989.795 2.384 2.731 4.211 5.157 4.867 1.957.529 3.646 1.249 4.989 2.1-2.782 1.411-5.49 3.134-8.057 5.175-4.968-6.838-11.59-10.704-18.813-10.704-4.407 0-8.552 1.463-12.231 4.09v-37.208c0-4.142-3.357-7.5-7.5-7.5s-7.5 3.358-7.5 7.5v51.337c-3.962-12.082-15.264-20.855-28.611-21.039.268-1.985-.254-4.017-1.513-5.625-7.731-9.872-8.933-19.565-5.616-22.883zm-222.702 40.649c4.422 0 8.625.95 12.421 2.652-2.778 4.601-4.38 9.989-4.38 15.744 0 .092 0 .184.001.275-11.626.898-21.441 8.335-25.782 18.626-3.932-1.847-8.166-3.15-12.61-3.805-.097-.984-.15-1.982-.15-2.992 0-16.818 13.683-30.5 30.5-30.5zm-67.5 78.5c0-16.818 13.683-30.5 30.5-30.5 6.355 0 12.26 1.956 17.149 5.296.193 1.415.481 2.807.868 4.17-11.85 4.206-20.359 15.529-20.359 28.804 0 1.333.094 2.644.261 3.934h-26.078c-1.506-3.606-2.341-7.559-2.341-11.704zm442.5 37.191c0 4.136-3.364 7.5-7.5 7.5h-467c-4.136 0-7.5-3.364-7.5-7.5v-2.987c0-4.136 3.364-7.5 7.5-7.5h125.5c4.143 0 7.5-3.358 7.5-7.5s-3.357-7.5-7.5-7.5h-49.819c-.329-1.261-.524-2.574-.524-3.934 0-8.575 6.977-15.552 15.486-15.553l.202.013c.188.013.375.025.564.033 2.93.14 5.652-1.455 6.994-4.053 1.341-2.599 1.049-5.741-.748-8.048-2.152-2.763-3.29-6.058-3.29-9.53 0-8.575 6.977-15.552 15.552-15.552 1.575 0 3.13.234 4.619.696 2.774.861 5.792.042 7.752-2.098 1.961-2.14 2.51-5.219 1.411-7.906-.77-1.88-1.159-3.858-1.159-5.876 0-8.575 6.977-15.552 15.552-15.552 3.459 0 6.746 1.131 9.504 3.271 2.25 1.745 5.293 2.065 7.856.828s4.205-3.819 4.239-6.665c.103-8.471 7.072-15.362 15.538-15.362 4.398 0 8.618 1.897 11.577 5.207 1.715 1.917 4.297 2.822 6.826 2.397 2.536-.423 4.678-2.116 5.677-4.486 2.437-5.784 8.065-9.521 14.34-9.521 5.547 0 10.553 2.872 13.389 7.683 1.349 2.287 3.806 3.69 6.461 3.69s5.112-1.403 6.461-3.69c2.836-4.811 7.842-7.683 13.389-7.683 6.274 0 11.903 3.737 14.34 9.521.999 2.37 3.141 4.063 5.677 4.486 2.531.422 5.111-.481 6.826-2.397 2.959-3.309 7.179-5.207 11.577-5.207 8.466 0 15.436 6.892 15.538 15.362.034 2.846 1.676 5.428 4.239 6.665s5.606.916 7.856-.828c2.758-2.14 6.045-3.271 9.504-3.271 8.575 0 15.552 6.977 15.552 15.552 0 2.019-.39 3.996-1.159 5.876-1.099 2.687-.55 5.766 1.411 7.906 1.96 2.14 4.977 2.958 7.752 2.098 1.489-.462 3.044-.696 4.619-.696 8.575 0 15.552 6.977 15.552 15.552 0 3.472-1.138 6.768-3.29 9.53-1.797 2.307-2.089 5.449-.748 8.048 1.342 2.599 4.072 4.186 6.994 4.053.189-.008.377-.021.564-.033l.137-.012c8.575 0 15.552 6.977 15.552 15.552 0 1.36-.194 2.674-.524 3.934h-230.818c-4.143 0-7.5 3.358-7.5 7.5s3.357 7.5 7.5 7.5h306.5c4.136 0 7.5 3.364 7.5 7.5z"/><path d="m108.892 154.166c-3.751.377-7.096 2.396-9.176 5.538-9.799 14.794-7.793 34.65 4.77 47.213 7.23 7.23 16.873 10.963 26.58 10.963 7.159 0 14.354-2.033 20.636-6.193 3.142-2.082 5.16-5.427 5.537-9.178.377-3.75-.935-7.428-3.599-10.093l-34.654-34.654c-2.665-2.661-6.347-3.978-10.094-3.596zm6.201 42.145c-6.799-6.799-8.449-17.152-4.399-25.626l30.026 30.026c-8.474 4.049-18.828 2.399-25.627-4.4z"/><path d="m168.39 150.081c1.091 0 2.196-.144 3.292-.437l36.037-9.656c6.206-1.663 10.128-7.661 9.123-13.951-1.484-9.295-5.794-17.733-12.462-24.401-6.669-6.668-15.106-10.978-24.401-12.462-6.286-1.003-12.289 2.919-13.95 9.124l-9.656 36.038c-1.17 4.365.04 8.878 3.235 12.074 2.393 2.392 5.526 3.671 8.782 3.671zm11.52-45.635c5.245 1.266 10 3.934 13.863 7.797 3.862 3.862 6.529 8.618 7.797 13.864l-29.589 7.928z"/><path d="m69.281 95.988 36.037 9.655c1.096.294 2.201.438 3.293.438 3.255 0 6.388-1.279 8.781-3.672 3.195-3.195 4.405-7.709 3.235-12.074l-9.656-36.038c-1.661-6.206-7.659-10.124-13.951-9.124-9.295 1.484-17.732 5.794-24.399 12.461-6.669 6.668-10.979 15.106-12.463 24.401-1.005 6.292 2.917 12.29 9.123 13.953zm13.947-27.746c3.861-3.862 8.618-6.53 13.862-7.796l7.929 29.588-29.589-7.928c1.266-5.246 3.934-10.001 7.798-13.864z"/></g></g></svg>