<?xml version="1.0" encoding="UTF-8" standalone="no"?>
<!-- Created with Inkscape (http://www.inkscape.org/) -->

<svg
   version="1.1"
   id="svg2745"
   xml:space="preserve"
   width="682.66669"
   height="682.66669"
   viewBox="0 0 682.66669 682.66669"
   xmlns="http://www.w3.org/2000/svg"
   xmlns:svg="http://www.w3.org/2000/svg"><defs
     id="defs2749"><clipPath
       clipPathUnits="userSpaceOnUse"
       id="clipPath2759"><path
         d="M 0,512 H 512 V 0 H 0 Z"
         id="path2757" /></clipPath></defs><g
     id="g2751"
     transform="matrix(1.3333333,0,0,-1.3333333,0,682.66667)"><g
       id="g2753"><g
         id="g2755"
         clip-path="url(#clipPath2759)"><g
           id="g2761"
           transform="translate(344.8345,8.5)"><path
             d="m 0,0 -30.004,-1 h -210.882 c -8.284,0 -15,6.716 -15,15 V 42.933 H 14 V 14 C 14,5.716 8.285,0 0,0"
             style="fill:#eef5f6;fill-opacity:1;fill-rule:nonzero;stroke:none"
             id="path2763" /></g><g
           id="g2765"
           transform="translate(359.8301,51.4302)"><path
             d="m 0,0 v -28.93 c 0,-8.28 -6.71,-15 -15,-15 h -30 c 8.29,0 15,6.72 15,15 V 0 Z"
             style="fill:#deecf1;fill-opacity:1;fill-rule:nonzero;stroke:none"
             id="path2767" /></g><g
           id="g2769"
           transform="translate(425.0747,141.2886)"><path
             d="M 0,0 C 0,-16.569 -13.432,-30 -30,-30 H -94.598 V 103.74 H -30 c 16.568,0 30,-13.431 30,-30 z m -27.841,140.525 h -86.636 v -207.31 h 86.636 c 33.137,0 60,26.863 60,60 v 87.31 c 0,33.137 -26.863,60 -60,60"
             style="fill:#deecf1;fill-opacity:1;fill-rule:nonzero;stroke:none"
             id="path2771" /></g><g
           id="g2773"
           transform="translate(358.8325,342.123)"><path
             d="M 0,0 V -295.784 H -269.883 V 0 c 0,3.087 2.809,5.44 5.847,4.885 16.918,-3.078 18.864,-19.351 39.296,-19.351 22.577,0 22.577,19.857 45.144,19.857 22.577,0 22.577,-19.857 45.144,-19.857 22.577,0 22.577,19.857 45.154,19.857 22.577,0 22.577,-19.857 45.144,-19.857 20.432,0 22.379,16.273 39.306,19.361 C -1.81,5.44 0,3.087 0,0"
             style="fill:#ffe177;fill-opacity:1;fill-rule:nonzero;stroke:none"
             id="path2775" /></g><g
           id="g2777"
           transform="translate(359.8301,342.1201)"><path
             d="M 0,0 V -295.78 H -30 V -10.35 C -21.9,-5.32 -17.3,2.81 -5.85,4.9 -2.81,5.44 0,3.09 0,0"
             style="fill:#ffc344;fill-opacity:1;fill-rule:nonzero;stroke:none"
             id="path2779" /></g><g
           id="g2781"
           transform="translate(393.0156,366.5068)"><path
             d="m 0,0 c 0,-25.556 -12.711,-47.904 -33.183,-60.096 v 35.712 c 0,3.088 -2.81,5.441 -5.848,4.895 -16.927,-3.088 -18.874,-19.361 -39.306,-19.361 -22.567,0 -22.567,19.857 -45.144,19.857 -22.577,0 -22.577,-19.857 -45.154,-19.857 -22.567,0 -22.567,19.857 -45.144,19.857 -22.567,0 -22.567,-19.857 -45.144,-19.857 h -0.079 c -3.877,0.005 -7.049,-3.164 -7.049,-7.041 v -85.081 c 0,-16.89 -13.823,-31.112 -30.71,-30.784 -16.364,0.318 -29.525,13.676 -29.525,30.107 v 89.867 c 0,0.591 -0.181,1.166 -0.512,1.656 -7.233,10.737 -11.452,23.672 -11.452,37.594 0,36.434 28.909,66.114 65.041,67.353 1.345,0.046 2.481,1.005 2.761,2.322 2.024,9.527 13.021,45.58 63.351,44.252 6.342,-0.168 12.469,-0.687 18.275,-2.23 1.206,-0.321 2.493,0.149 3.19,1.184 8.422,12.504 21.229,21.802 36.223,25.669 4.998,1.289 10.24,0.975 15.642,0.975 34.511,0 61.489,-26.978 61.489,-61.489 0,-1.038 -0.03,-2.07 -0.084,-3.096 -0.072,-1.372 2.033,-3.494 3.407,-3.493 h 0.03 C -30.304,68.915 0,38.611 0,0"
             style="fill:#eef5f6;fill-opacity:1;fill-rule:nonzero;stroke:none"
             id="path2783" /></g><g
           id="g2785"
           transform="translate(271.3706,104.6826)"><path
             d="m 0,0 v 0 c -8.773,0 -15.885,7.112 -15.885,15.885 v 152.718 c 0,8.773 7.112,15.885 15.885,15.885 8.773,0 15.885,-7.112 15.885,-15.885 V 15.885 C 15.885,7.112 8.773,0 0,0"
             style="fill:#ffc344;fill-opacity:1;fill-rule:nonzero;stroke:none"
             id="path2787" /></g><g
           id="g2789"
           transform="translate(177.3677,104.6826)"><path
             d="m 0,0 v 0 c -8.773,0 -15.885,7.112 -15.885,15.885 v 152.718 c 0,8.773 7.112,15.885 15.885,15.885 8.773,0 15.886,-7.112 15.886,-15.885 V 15.885 C 15.886,7.112 8.773,0 0,0"
             style="fill:#ffc344;fill-opacity:1;fill-rule:nonzero;stroke:none"
             id="path2791" /></g><g
           id="g2793"
           transform="translate(96.6147,105.6826)"><path
             d="m 0,0 v 0 c -5.468,0 -10.593,0.469 -15.002,3.033 -8.9,5.176 -14.883,14.815 -14.883,25.852 v 8.996 c 0,11.04 5.986,20.682 14.89,25.857 4.408,2.562 9.53,3.029 14.995,3.029 16.505,0 28.885,-12.38 28.885,-28.886 V 28.885 C 28.885,12.38 16.505,0 0,0"
             style="fill:#eef5f6;fill-opacity:1;fill-rule:nonzero;stroke:none"
             id="path2795" /></g><g
           id="g2797"
           transform="translate(394.02,366.5098)"><path
             d="m 0,0 c 0,-25.56 -13.72,-47.91 -34.19,-60.1 v 35.71 c 0,0.15 -0.01,0.29 -0.03,0.44 2.73,7.47 4.22,15.54 4.22,23.95 0,38.61 -31.31,69.91 -69.93,69.91 h -0.027 c -1.375,-10e-4 -2.48,1.122 -2.407,2.494 0.054,1.028 0.084,2.061 0.084,3.096 0,29.34 -20.23,53.96 -47.5,60.67 4.81,1.19 9.83,1.82 15.01,1.82 34.51,0 62.49,-27.98 62.49,-62.49 0,-1.035 -0.03,-2.068 -0.084,-3.096 -0.073,-1.372 1.032,-2.495 2.407,-2.494 h 0.027 C -31.31,69.91 0,38.61 0,0"
             style="fill:#deecf1;fill-opacity:1;fill-rule:nonzero;stroke:none"
             id="path2799" /></g><g
           id="g2801"
           transform="translate(126.5,143.5601)"><path
             d="m 0,0 v -8.99 c 0,-16.51 -13.38,-29.89 -29.89,-29.89 -5.46,0 -10.58,1.46 -14.99,4.03 8.9,5.18 14.88,14.82 14.88,25.86 V 0 c 0,8.26 -3.34,15.73 -8.75,21.14 -1.82,1.82 -3.88,3.41 -6.13,4.71 4.41,2.57 9.53,4.04 14.99,4.04 8.25,0 15.73,-3.35 21.14,-8.75 C -3.34,15.73 0,8.26 0,0"
             style="fill:#deecf1;fill-opacity:1;fill-rule:nonzero;stroke:none"
             id="path2803" /></g><g
           id="g2805"
           transform="translate(457.2339,149.0845)"><path
             d="m 0,0 v -14.581 c 0,-33.137 -26.863,-60 -60,-60 h -37.402"
             style="fill:none;stroke:#000000;stroke-width:15;stroke-linecap:round;stroke-linejoin:round;stroke-miterlimit:10;stroke-dasharray:none;stroke-opacity:1"
             id="path2807" /></g><g
           id="g2809"
           transform="translate(360.8315,281.8135)"><path
             d="m 0,0 h 36.402 c 33.138,0 60,-26.863 60,-60 v -40.043"
             style="fill:none;stroke:#000000;stroke-width:15;stroke-linecap:round;stroke-linejoin:round;stroke-miterlimit:10;stroke-dasharray:none;stroke-opacity:1"
             id="path2811" /></g><g
           id="g2813"
           transform="translate(359.8325,245.0283)"><path
             d="m 0,0 h 35.242 c 16.569,0 30,-13.431 30,-30 v -73.74 c 0,-16.569 -13.431,-30 -30,-30 H 0"
             style="fill:none;stroke:#000000;stroke-width:15;stroke-linecap:round;stroke-linejoin:round;stroke-miterlimit:10;stroke-dasharray:none;stroke-opacity:1"
             id="path2815" /></g><g
           id="g2817"
           transform="translate(359.8345,46.3389)"><path
             d="m 0,0 v -23.839 c 0,-8.284 -6.715,-15 -15,-15 h -240.886 c -8.284,0 -15,6.716 -15,15 v 23.84"
             style="fill:none;stroke:#000000;stroke-width:15;stroke-linecap:round;stroke-linejoin:round;stroke-miterlimit:10;stroke-dasharray:none;stroke-opacity:1"
             id="path2819" /></g><g
           id="g2821"
           transform="translate(278.5269,46.3394)"><path
             d="M 0,0 H -189.578 V 59.341"
             style="fill:none;stroke:#000000;stroke-width:15;stroke-linecap:round;stroke-linejoin:round;stroke-miterlimit:10;stroke-dasharray:none;stroke-opacity:1"
             id="path2823" /></g><g
           id="g2825"
           transform="translate(359.8325,306.4111)"><path
             d="M 0,0 V -260.072 H -48.94"
             style="fill:none;stroke:#000000;stroke-width:15;stroke-linecap:round;stroke-linejoin:round;stroke-miterlimit:10;stroke-dasharray:none;stroke-opacity:1"
             id="path2827" /></g><g
           id="g2829"
           transform="translate(88.9492,172.4521)"><path
             d="M 0,0 V 33.342"
             style="fill:none;stroke:#000000;stroke-width:15;stroke-linecap:round;stroke-linejoin:round;stroke-miterlimit:10;stroke-dasharray:none;stroke-opacity:1"
             id="path2831" /></g><g
           id="g2833"
           transform="translate(66.7295,291.0127)"><path
             d="m 0,0 v 33.712 c 0,0.591 -0.181,1.166 -0.512,1.656 -7.233,10.737 -11.451,23.673 -11.451,37.594 0,36.434 28.908,66.114 65.04,67.353 1.345,0.046 2.481,1.005 2.761,2.322 2.024,9.528 13.021,45.58 63.351,44.252 6.343,-0.168 12.47,-0.687 18.277,-2.23 1.205,-0.321 2.492,0.15 3.188,1.184 11.229,16.672 30.255,27.644 51.866,27.644 34.51,0 62.488,-27.978 62.488,-62.488 0,-1.039 -0.029,-2.071 -0.084,-3.097 -0.071,-1.372 1.034,-2.494 2.408,-2.493 h 0.029 c 38.621,0 69.925,-31.304 69.925,-69.915 0,-25.556 -13.711,-47.904 -34.183,-60.096 V 51.11 c 0,3.088 -2.81,5.441 -5.848,4.895 -16.927,-3.088 -18.874,-19.36 -39.306,-19.36 -22.567,0 -22.567,19.856 -45.144,19.856 -22.577,0 -22.577,-19.856 -45.154,-19.856 -22.567,0 -22.567,19.856 -45.144,19.856 -22.567,0 -22.567,-19.856 -45.144,-19.856 h -0.079 c -3.877,0.004 -7.049,-3.165 -7.049,-7.041 v -85.082 c 0,-16.89 -13.822,-31.112 -30.71,-30.784 C 13.161,-85.944 0,-72.585 0,-56.155 v 23.469"
             style="fill:none;stroke:#000000;stroke-width:15;stroke-linecap:round;stroke-linejoin:round;stroke-miterlimit:10;stroke-dasharray:none;stroke-opacity:1"
             id="path2835" /></g><g
           id="g2837"
           transform="translate(271.3706,104.6826)"><path
             d="m 0,0 v 0 c -8.773,0 -15.885,7.112 -15.885,15.885 v 152.718 c 0,8.773 7.112,15.885 15.885,15.885 8.773,0 15.885,-7.112 15.885,-15.885 V 15.885 C 15.885,7.112 8.773,0 0,0 Z"
             style="fill:none;stroke:#000000;stroke-width:15;stroke-linecap:round;stroke-linejoin:round;stroke-miterlimit:10;stroke-dasharray:none;stroke-opacity:1"
             id="path2839" /></g><g
           id="g2841"
           transform="translate(177.3677,104.6826)"><path
             d="m 0,0 v 0 c -8.773,0 -15.885,7.112 -15.885,15.885 v 152.718 c 0,8.773 7.112,15.885 15.885,15.885 8.773,0 15.886,-7.112 15.886,-15.885 V 15.885 C 15.886,7.112 8.773,0 0,0 Z"
             style="fill:none;stroke:#000000;stroke-width:15;stroke-linecap:round;stroke-linejoin:round;stroke-miterlimit:10;stroke-dasharray:none;stroke-opacity:1"
             id="path2843" /></g><g
           id="g2845"
           transform="translate(96.6147,104.6826)"><path
             d="m 0,0 v 0 c -16.505,0 -29.885,13.38 -29.885,29.885 v 8.996 c 0,16.506 13.38,29.886 29.885,29.886 16.505,0 29.885,-13.38 29.885,-29.886 V 29.885 C 29.885,13.38 16.505,0 0,0 Z"
             style="fill:none;stroke:#000000;stroke-width:15;stroke-linecap:round;stroke-linejoin:round;stroke-miterlimit:10;stroke-dasharray:none;stroke-opacity:1"
             id="path2847" /></g></g></g></g></svg>
