<?xml version="1.0" encoding="iso-8859-1"?>
<!-- Generator: Adobe Illustrator 19.0.0, SVG Export Plug-In . SVG Version: 6.00 Build 0)  -->
<svg version="1.1" id="Capa_1" xmlns="http://www.w3.org/2000/svg" xmlns:xlink="http://www.w3.org/1999/xlink" x="0px" y="0px"
	 viewBox="0 0 512 512" style="enable-background:new 0 0 512 512;" xml:space="preserve">
<path style="fill:#89C947;" d="M445.837,371.62c0.002-0.002,0.005-0.004,0.007-0.007c0.719,0.761,1.489,1.471,2.297,2.138
	c6.048-3.07,12.753-4.706,19.708-4.706c5.045,0,9.997,0.875,14.749,2.586c4.279-4.518,6.908-10.61,6.908-17.319
	c0-11.684-7.955-21.506-18.754-24.376c0.24-1.393,0.369-2.826,0.369-4.292c0-13.931-11.318-25.227-25.277-25.227
	c-6.273,0-12.005,2.287-16.423,6.061c3.271,4.449,5.18,9.906,5.18,15.716c0,7.454-3.179,14.616-8.722,19.648
	c-0.208,0.188-0.327,0.457-0.328,0.738c-0.001,0.28,0.117,0.549,0.324,0.739C434.144,350.899,440.902,360.607,445.837,371.62z"/>
<path style="fill:#368C0E;" d="M309.849,326.652c13.146,0,25.97,4.73,37.088,13.678c0.183,0.147,0.405,0.221,0.627,0.221
	c0.222,0,0.444-0.073,0.627-0.221c11.116-8.948,23.941-13.678,37.091-13.678c15.086,0,29.068,6.159,40.5,16.615
	c6.004-5.059,9.819-12.62,9.819-21.073c0-12.775-8.701-23.515-20.508-26.653c0.265-1.526,0.404-3.09,0.404-4.692
	c0-15.232-12.373-27.581-27.637-27.581c-7.923,0-15.063,3.332-20.103,8.66c-5.039-5.328-12.179-8.66-20.1-8.66
	c-15.267,0-27.639,12.349-27.639,27.581c0,1.602,0.145,3.166,0.407,4.692c-11.807,3.139-20.511,13.878-20.511,26.653
	c0,1.805,0.18,3.566,0.511,5.274C303.51,326.934,306.653,326.652,309.849,326.652z"/>
<path style="fill:#A2DFF9;" d="M101,92.804H56.117c-2.833,0-4.006,2.016-2.607,4.48L101,180.938V92.804z"/>
<path style="fill:#48C1E1;" d="M339.152,92.804H296v27.717h29.484v97.01H296v27.718h43.152c7.518,0,13.668-6.236,13.668-13.858
	V106.662C352.82,99.04,346.67,92.804,339.152,92.804z"/>
<path style="fill:#A2DFF9;" d="M99.552,72.452v159.547h18.297c2.833,0,5.151,2.319,5.151,5.153v107.447
	c9.891,7.588,22.209,12.094,35.568,12.094h79.671c32.595,0,59.017-26.792,59.017-59.841v-224.4H99.552z"/>
<path style="fill:#7169E0;" d="M99.552,174.181v57.818h18.297c2.833,0,5.151,2.319,5.151,5.153v107.447
	c9.891,7.588,22.209,12.094,35.568,12.094h79.671c32.595,0,59.017-26.792,59.017-59.841V174.181H99.552z"/>
<path style="opacity:0.1;enable-background:new    ;" d="M132.378,296.852v-224.4H99.552v159.547h18.297
	c2.833,0,5.151,2.319,5.151,5.153v107.447c9.891,7.588,22.209,12.094,35.568,12.094h32.826
	C158.8,356.692,132.378,329.9,132.378,296.852z"/>
<path style="fill:#E6E9ED;" d="M244.686,40.999V10.515c0-2.834-2.318-5.153-5.151-5.153h-82.263c-2.833,0-5.151,2.319-5.151,5.153
	v30.484H244.686z"/>
<path style="opacity:0.1;enable-background:new    ;" d="M173.737,40.999V10.515c0-2.834,2.318-5.153,5.151-5.153h-21.616
	c-2.833,0-5.151,2.319-5.151,5.153v30.484H173.737z"/>
<path style="fill:#C5CCD3;" d="M307.106,70.29c0,2.835-2.317,5.153-5.15,5.153H94.851c-2.833,0-5.151-2.318-5.151-5.153V44.693
	c0-2.834,2.318-5.153,5.151-5.153h207.105c2.833,0,5.15,2.319,5.15,5.153V70.29z"/>
<path style="opacity:0.1;enable-background:new    ;" d="M110.745,70.29V44.693c0-2.834,2.318-5.153,5.151-5.153H94.851
	c-2.833,0-5.151,2.319-5.151,5.153V70.29c0,2.835,2.318,5.153,5.151,5.153h21.044C113.062,75.443,110.745,73.125,110.745,70.29z"/>
<path style="fill:#E6E9ED;" d="M239.988,416.145c0-22.477,6.504-43.042,17.224-58.776c-2.949-0.439-5.963-0.676-9.031-0.676h-99.554
	c-9.14,0-17.814,2.039-25.627,5.666v139.125c0,2.834-2.318,5.153-5.151,5.153h184.74c1.412,0,2.728-0.41,3.849-1.108
	C269.494,503.242,239.988,464.025,239.988,416.145z"/>
<ellipse style="fill:#C5CCD3;" cx="198.4" cy="431.079" rx="31.25" ry="31.691"/>
<path style="opacity:0.1;enable-background:new    ;" d="M188.339,431.078c0-13.73,8.613-25.42,20.66-29.821
	c-3.309-1.209-6.876-1.871-10.595-1.871c-17.264,0-31.255,14.19-31.255,31.692c0,17.503,13.992,31.691,31.255,31.691
	c3.719,0,7.286-0.662,10.595-1.871C196.952,456.498,188.339,444.809,188.339,431.078z"/>
<path style="fill:#775436;" d="M355.064,315.002v-20.103c0-4.143-3.357-7.5-7.5-7.5s-7.5,3.357-7.5,7.5v40.577
	c2.351,1.449,4.647,3.063,6.873,4.854c0.183,0.147,0.405,0.221,0.627,0.221c0.222,0,0.444-0.073,0.627-0.221
	c0.218-0.176,0.44-0.342,0.659-0.514C347.727,330.895,349.973,322.117,355.064,315.002z"/>
<path style="fill:#C0272D;" d="M447.935,373.856c-11.889-28.67-35.484-48.204-62.653-48.204c-0.278,0-0.553,0.015-0.83,0.02
	c-1.385,2.266-3.039,4.392-4.95,6.331c-6.478,6.564-15.085,10.18-24.238,10.18c-1.472,0-2.974-0.101-4.465-0.298
	c-1.01-0.132-1.806-0.942-1.939-1.973c-0.055-0.423-0.088-0.845-0.127-1.267c-0.391,0.301-0.783,0.595-1.169,0.905
	c-10.923-8.791-23.849-13.898-37.715-13.898c-39.134,0-70.861,40.514-70.861,90.492c0,49.976,31.727,90.492,70.861,90.492
	c13.866,0,61.567,0,75.433,0c5.403,0,10.664-0.776,15.722-2.239c-17.851-4.518-31.116-20.913-31.116-40.398
	c0-22.957,18.414-41.635,41.049-41.635c4.247,0,8.445,0.661,12.48,1.965c0.101,0.033,0.204,0.049,0.308,0.049
	c0.243,0,0.482-0.089,0.669-0.257c0.266-0.239,0.383-0.601,0.31-0.95c-3.147-14.901,1.32-30.233,11.95-41.014
	C440.011,378.751,443.819,375.974,447.935,373.856z"/>
<g style="opacity:0.1;">
	<path d="M271.453,416.145c0-42.83,23.302-78.706,54.596-88.094c-5.203-1.56-10.623-2.398-16.2-2.398
		c-39.134,0-70.861,40.514-70.861,90.492c0,49.976,31.727,90.492,70.861,90.492c6.143,0,18.926,0,32.466,0
		C303.18,506.637,271.453,466.12,271.453,416.145z"/>
</g>
<path style="fill:#89C947;" d="M355.263,343.183c-1.531,0-3.079-0.105-4.597-0.307c-1.457-0.19-2.607-1.354-2.799-2.836
	c-1.43-11.124,2.227-22.049,10.032-29.97c6.66-6.754,15.519-10.477,24.948-10.477c1.529,0,3.079,0.103,4.596,0.303
	c1.458,0.194,2.607,1.358,2.797,2.838c1.435,11.129-2.221,22.049-10.027,29.971C373.547,339.461,364.69,343.183,355.263,343.183
	L355.263,343.183z"/>
<path style="fill:#A2DFF9;" d="M124.376,501.483c0,2.834-2.318,5.153-5.151,5.153H5.151c-2.833,0-5.151-2.319-5.151-5.153v-265.39
	c0-2.834,2.318-5.153,5.151-5.153h114.075c2.833,0,5.151,2.319,5.151,5.153L124.376,501.483L124.376,501.483z"/>
<path style="fill:#FFC502;" d="M49.271,230.939v-63.691c0-1.701-1.391-3.093-3.09-3.093H27.727c-1.7,0-3.091,1.392-3.091,3.093
	v63.691H49.271z"/>
<rect y="288.949" style="fill:#EF5050;" width="124.38" height="192.87"/>
<rect x="24.636" y="230.939" style="fill:#48C1E1;" width="24.636" height="58.01"/>
<g style="opacity:0.1;">
	<path d="M21.394,501.483v-265.39c0-2.834,2.318-5.153,5.151-5.153H5.151C2.318,230.939,0,233.259,0,236.093v265.391
		c0,2.834,2.318,5.153,5.151,5.153h21.394C23.712,506.637,21.394,504.317,21.394,501.483z"/>
</g>
<path style="fill:#FB8276;" d="M91.75,360.529c-1.97,0-3.91-0.801-5.31-2.2c-1.39-1.391-2.19-3.32-2.19-5.3
	c0-1.971,0.8-3.91,2.19-5.301c1.4-1.399,3.33-2.199,5.31-2.199c1.97,0,3.91,0.8,5.3,2.199c1.4,1.391,2.2,3.33,2.2,5.301
	c0,1.979-0.8,3.909-2.2,5.3C95.65,359.728,93.72,360.529,91.75,360.529z"/>
<g>
	<path style="fill:#FFFFFF;" d="M65.7,388.599c-1.98,0-3.91-0.8-5.31-2.2c-1.39-1.399-2.19-3.33-2.19-5.31c0-1.97,0.8-3.9,2.19-5.3
		c1.4-1.391,3.33-2.19,5.31-2.19c1.97,0,3.9,0.8,5.3,2.19c1.4,1.4,2.2,3.33,2.2,5.3c0,1.979-0.8,3.91-2.2,5.31
		C69.6,387.799,67.67,388.599,65.7,388.599z"/>
	<path style="fill:#FFFFFF;" d="M82.14,327.409c-1.97,0-3.91-0.801-5.3-2.2c-1.4-1.391-2.2-3.32-2.2-5.3c0-1.98,0.8-3.91,2.2-5.301
		c1.39-1.399,3.33-2.199,5.3-2.199c1.98,0,3.91,0.8,5.3,2.199c1.4,1.391,2.2,3.33,2.2,5.301c0,1.97-0.8,3.909-2.2,5.3
		C86.05,326.608,84.11,327.409,82.14,327.409z"/>
</g>
<g>
	<path style="fill:#C0272D;" d="M48.62,336.639c-1.98,0-3.91-0.8-5.309-2.2c-1.39-1.4-2.191-3.33-2.191-5.3
		c0-1.979,0.8-3.91,2.191-5.309c1.4-1.391,3.329-2.191,5.309-2.191c1.97,0,3.9,0.8,5.3,2.191c1.39,1.399,2.2,3.33,2.2,5.309
		c0,1.97-0.809,3.9-2.2,5.3C52.52,335.839,50.59,336.639,48.62,336.639z"/>
	<path style="fill:#C0272D;" d="M91.98,424.568c-1.98,0-3.91-0.8-5.31-2.199c-1.39-1.391-2.19-3.33-2.19-5.301
		c0-1.979,0.8-3.909,2.19-5.31c1.4-1.39,3.33-2.19,5.31-2.19c1.97,0,3.9,0.801,5.3,2.19c1.39,1.4,2.2,3.33,2.2,5.31
		c0,1.971-0.81,3.91-2.2,5.301C95.88,423.769,93.95,424.568,91.98,424.568z"/>
</g>
<g>
	<path style="fill:#A2DFF9;" d="M146.12,307.234c-4.142,0-7.5-3.358-7.5-7.5v-82.065c0-4.143,3.358-7.5,7.5-7.5s7.5,3.357,7.5,7.5
		v82.065C153.62,303.877,150.262,307.234,146.12,307.234z"/>
	<path style="fill:#A2DFF9;" d="M180.976,307.234c-4.142,0-7.5-3.358-7.5-7.5v-82.065c0-4.143,3.358-7.5,7.5-7.5s7.5,3.357,7.5,7.5
		v82.065C188.476,303.877,185.118,307.234,180.976,307.234z"/>
	<path style="fill:#A2DFF9;" d="M215.832,307.234c-4.142,0-7.5-3.358-7.5-7.5v-82.065c0-4.143,3.358-7.5,7.5-7.5s7.5,3.357,7.5,7.5
		v82.065C223.332,303.877,219.974,307.234,215.832,307.234z"/>
	<path style="fill:#A2DFF9;" d="M250.688,307.234c-4.142,0-7.5-3.358-7.5-7.5v-82.065c0-4.143,3.358-7.5,7.5-7.5
		s7.499,3.357,7.499,7.5v82.065C258.187,303.877,254.83,307.234,250.688,307.234z"/>
</g>
<path style="fill:#368C0E;" d="M439.736,434.341c0.195,0.195,0.451,0.293,0.707,0.293s0.512-0.098,0.707-0.293
	c7.73-7.723,17.959-11.977,28.801-11.977c1.395,0,2.771,0.072,4.13,0.211c0.416-0.391,0.825-0.791,1.229-1.199
	c12.751-12.933,16.688-32.271,10.025-49.272c-0.073-0.185-0.183-0.351-0.317-0.492c-0.14-0.139-0.307-0.25-0.488-0.324
	c-16.766-6.755-35.837-2.764-48.59,10.167c-11.222,11.38-15.611,27.718-11.965,43.06
	C429.831,426.501,435.213,429.822,439.736,434.341z"/>
<path style="fill:#89C947;" d="M460.534,396.438c-2.949-2.909-7.698-2.876-10.607,0.073l-27.226,27.605
	c5.089,1.547,9.761,4.071,13.814,7.355l24.092-24.428C463.516,404.095,463.483,399.346,460.534,396.438z"/>
<ellipse style="fill:#EF5050;" cx="469.95" cy="463.999" rx="42.05" ry="42.638"/>
<ellipse style="fill:#7169E0;" cx="410.94" cy="463.999" rx="42.05" ry="42.638"/>
<path style="opacity:0.1;enable-background:new    ;" d="M401.256,463.999c0-17.73,10.676-32.929,25.863-39.357
	c-4.981-2.108-10.447-3.277-16.184-3.277c-23.224,0-42.049,19.088-42.049,42.635c0,23.548,18.825,42.638,42.049,42.638
	c5.736,0,11.202-1.169,16.184-3.277C411.932,496.931,401.256,481.73,401.256,463.999z"/>
<g>
</g>
<g>
</g>
<g>
</g>
<g>
</g>
<g>
</g>
<g>
</g>
<g>
</g>
<g>
</g>
<g>
</g>
<g>
</g>
<g>
</g>
<g>
</g>
<g>
</g>
<g>
</g>
<g>
</g>
</svg>
