<?xml version="1.0" encoding="iso-8859-1"?>
<!-- Generator: Adobe Illustrator 19.0.0, SVG Export Plug-In . SVG Version: 6.00 Build 0)  -->
<svg version="1.1" id="Capa_1" xmlns="http://www.w3.org/2000/svg" xmlns:xlink="http://www.w3.org/1999/xlink" x="0px" y="0px"
	 viewBox="0 0 511.999 511.999" style="enable-background:new 0 0 511.999 511.999;" xml:space="preserve">
<path style="fill:#89C947;" d="M464.46,327.738c0.233-1.353,0.358-2.742,0.358-4.165c0-13.516-10.986-24.476-24.536-24.476
	c-5.738,0-11.013,1.97-15.19,5.261c3.288,4.441,5.247,9.922,5.247,15.868c0,7.844-3.384,14.898-8.775,19.793
	c7.67,7.031,14.161,16.026,19.02,26.411c-0.004,0.002-0.008,0.005-0.011,0.007c11.27-6.272,24.909-7.31,37.262-2.335
	c0.177,0.071,0.339,0.18,0.474,0.314c0.125,0.131,0.224,0.286,0.295,0.457c2.565-3.867,4.063-8.501,4.063-13.484
	C482.665,340.053,474.942,330.522,464.46,327.738z"/>
<path style="fill:#C0272D;" d="M440.583,366.431c-11.954-25.552-33.788-42.696-58.768-42.842c-1.443,2.454-3.189,4.755-5.24,6.836
	c-6.471,6.556-15.068,10.166-24.22,10.166c-1.486,0-2.988-0.102-4.462-0.297c-1.414-0.185-2.531-1.313-2.717-2.752
	c-0.028-0.218-0.041-0.435-0.065-0.652c-0.076,0.061-0.153,0.117-0.23,0.178c-10.603-8.529-23.15-13.485-36.609-13.485
	c-37.987,0-68.785,39.31-68.785,87.802c0,48.489,30.798,87.801,68.785,87.801c13.459,0,59.764,0,73.223,0
	c4.59,0,9.073-0.579,13.411-1.674c-16.946-5.031-29.325-20.894-29.325-39.695c0-22.847,18.273-41.367,40.816-41.367
	c4.727,0,9.264,0.824,13.486,2.322c-4.921-15.73-0.85-33.012,10.785-44.804C433.654,370.94,437,368.424,440.583,366.431z"/>
<path style="fill:#368C0E;" d="M410.432,294.366c0.257-1.48,0.393-2.998,0.393-4.553c0-14.779-12.011-26.761-26.827-26.761
	c-7.69,0-14.621,3.232-19.514,8.402c-4.892-5.17-11.821-8.402-19.511-8.402c-14.819,0-26.828,11.982-26.828,26.761
	c0,1.555,0.14,3.072,0.395,4.553c-11.461,3.045-19.909,13.465-19.909,25.86c0,1.415,0.112,2.805,0.324,4.16
	c3.048-0.526,6.157-0.805,9.317-0.805c13.459,0,26.007,4.956,36.609,13.485c0.076-0.061,0.153-0.117,0.23-0.178
	c-1.165-10.566,2.38-20.896,9.804-28.426c6.465-6.554,15.063-10.165,24.217-10.165c1.485,0,2.989,0.1,4.462,0.293
	c1.415,0.189,2.53,1.318,2.715,2.754c1.016,7.874-0.608,15.636-4.494,22.244c14.828,0.087,28.548,6.159,39.75,16.43
	c5.392-4.895,8.775-11.949,8.775-19.793C430.339,307.831,421.893,297.411,410.432,294.366z"/>
<g>
	<path style="fill:#A2DFF9;" d="M104.136,97.656H61.973c-2.75,0-3.889,1.956-2.531,4.348l44.694,78.692V97.656z"/>
	<path style="fill:#A2DFF9;" d="M336.717,97.656h-40.67v26.893h27.402v94.125h-27.402v26.894h40.67
		c7.297,0,13.267-6.051,13.267-13.446V111.103C349.983,103.707,344.014,97.656,336.717,97.656z"/>
	<rect x="104.14" y="80.809" style="fill:#A2DFF9;" width="191.91" height="95.8"/>
</g>
<path style="fill:#7169E0;" d="M286.19,328.204c6.22-9.287,9.857-20.496,9.857-32.566V176.613H104.136v55.071h19.097
	c2.75,0,5,2.25,5,5v106.262c9.366,6.762,20.815,10.752,33.191,10.752h77.337c7.198,0,14.079-1.357,20.425-3.813
	C266.651,340.176,275.87,332.667,286.19,328.204z"/>
<path style="opacity:0.1;enable-background:new    ;" d="M136,295.638V80.813h-31.864v150.872h19.097c2.75,0,5,2.25,5,5v106.262
	c9.366,6.762,20.815,10.752,33.191,10.752h31.864C161.647,353.699,136,327.704,136,295.638z"/>
<path style="fill:#FFFFFF;" d="M245.018,45.977V17.814c0-2.75-2.25-5-5-5h-79.853c-2.75,0-5,2.25-5,5v28.162L245.018,45.977
	L245.018,45.977z"/>
<path style="opacity:0.1;enable-background:new    ;" d="M176.147,45.977V17.814c0-2.75,2.25-5,5-5h-20.982c-2.75,0-5,2.25-5,5
	v28.162L176.147,45.977L176.147,45.977z"/>
<path style="fill:#C5CCD3;" d="M305.609,75.813c0,2.75-2.25,5-5,5H99.572c-2.75,0-5-2.25-5-5V50.977c0-2.75,2.25-5,5-5h201.037
	c2.75,0,5,2.25,5,5V75.813z"/>
<g style="opacity:0.1;">
	<path d="M115,75.813V50.977c0-2.75,2.25-5,5-5H99.572c-2.75,0-5,2.25-5,5v24.836c0,2.75,2.25,5,5,5H120
		C117.25,80.813,115,78.563,115,75.813z"/>
</g>
<path style="fill:#FFFFFF;" d="M239.486,411.384c0-21.837,6.248-41.81,16.583-57.172c-2.51-0.326-5.063-0.513-7.659-0.513h-96.638
	c-8.352,0-16.309,1.744-23.54,4.884v135.602c0,2.75-2.25,5-5,5h177.991c0.636,0,1.248-0.092,1.835-0.25
	C267.507,495.534,239.486,457.635,239.486,411.384z"/>
<ellipse style="fill:#C5CCD3;" cx="200.09" cy="425.87" rx="30.339" ry="30.749"/>
<g style="opacity:0.1;">
	<path d="M190.321,425.872c0-13.322,8.361-24.664,20.055-28.934c-3.212-1.173-6.674-1.816-10.284-1.816
		c-16.758,0-30.34,13.769-30.34,30.75c0,16.983,13.582,30.749,30.34,30.749c3.61,0,7.072-0.643,10.284-1.815
		C198.682,450.536,190.321,439.196,190.321,425.872z"/>
</g>
<g style="opacity:0.1;">
	<path d="M271,411.384c0-41.557,22.619-76.366,52.997-85.475c-5.051-1.513-10.313-2.327-15.726-2.327
		c-37.987,0-68.785,39.31-68.785,87.802c0,48.489,30.798,87.801,68.785,87.801c5.962,0,18.371,0,31.514,0
		C301.798,499.185,271,459.872,271,411.384z"/>
</g>
<path style="fill:#89C947;" d="M352.354,340.591c-1.486,0-2.988-0.102-4.462-0.297c-1.414-0.185-2.531-1.313-2.717-2.752
	c-1.388-10.793,2.161-21.394,9.738-29.078c6.465-6.554,15.063-10.165,24.217-10.165c1.485,0,2.989,0.1,4.462,0.293
	c1.415,0.189,2.53,1.318,2.715,2.754c1.393,10.798-2.156,21.394-9.733,29.079C370.103,336.98,361.506,340.591,352.354,340.591
	L352.354,340.591z"/>
<g>
	<path style="fill:#A2DFF9;" d="M7.5,494.185c0,2.75,2.25,5,5,5h110.732c2.75,0,5-2.25,5-5v-19.082H7.5V494.185z"/>
	<path style="fill:#A2DFF9;" d="M123.232,231.686H12.5c-2.75,0-5,2.25-5,5v51.282h120.732v-51.282
		C128.232,233.936,125.982,231.686,123.232,231.686z"/>
</g>
<path style="fill:#FFC502;" d="M55.328,287.967v-118.08c0-1.65-1.35-3-3-3H34.414c-1.65,0-3,1.35-3,3v118.08H55.328z"/>
<rect x="7.5" y="287.97" style="fill:#EF5050;" width="120.73" height="187.13"/>
<g style="opacity:0.1;">
	<path d="M28.268,494.185V236.686c0-2.75,2.25-5,5-5H12.5c-2.75,0-5,2.25-5,5v257.499c0,2.75,2.25,5,5,5h20.768
		C30.518,499.185,28.268,496.935,28.268,494.185z"/>
</g>
<path style="fill:#368C0E;" d="M435.04,428.353c7.368-7.359,17.48-11.905,28.644-11.905c-0.09-0.309,0.638,0.017,0.957,0.024
	c1.479-1.155,2.899-2.41,4.244-3.772c12.377-12.548,16.198-31.311,9.731-47.806c-0.071-0.18-0.178-0.341-0.309-0.478
	c-0.135-0.135-0.297-0.243-0.474-0.314c-16.274-6.555-34.787-2.682-47.166,9.864c-11.635,11.792-15.706,29.074-10.785,44.804
	C425.631,420.81,430.792,424.111,435.04,428.353z"/>
<path style="fill:#EF5050;" d="M463.684,416.448c-11.163,0-21.275,4.546-28.644,11.905c7.512,7.502,12.173,17.929,12.173,29.462
	c0,11.534-4.661,21.961-12.173,29.464c7.368,7.359,17.48,11.905,28.644,11.905c22.543,0,40.816-18.522,40.816-41.369
	C504.5,434.969,486.227,416.448,463.684,416.448z"/>
<ellipse style="fill:#7169E0;" cx="406.4" cy="457.81" rx="40.816" ry="41.37"/>
<g style="opacity:0.1;">
	<path d="M397,457.815c0-17.203,10.363-31.95,25.106-38.188c-4.836-2.046-10.142-3.18-15.71-3.18
		c-22.543,0-40.816,18.521-40.816,41.367c0,22.848,18.273,41.369,40.816,41.369c5.568,0,10.874-1.134,15.71-3.18
		C407.363,489.768,397,475.02,397,457.815z"/>
</g>
<path d="M149.339,305.935c4.142,0,7.5-3.358,7.5-7.5v-79.624c0-4.143-3.358-7.5-7.5-7.5s-7.5,3.357-7.5,7.5v79.624
	C141.839,302.577,145.197,305.935,149.339,305.935z"/>
<path d="M183.174,305.935c4.142,0,7.5-3.358,7.5-7.5v-79.624c0-4.143-3.358-7.5-7.5-7.5s-7.5,3.357-7.5,7.5v79.624
	C175.674,302.577,179.032,305.935,183.174,305.935z"/>
<path d="M217.009,305.935c4.142,0,7.5-3.358,7.5-7.5v-79.624c0-4.143-3.358-7.5-7.5-7.5s-7.5,3.357-7.5,7.5v79.624
	C209.509,302.577,212.867,305.935,217.009,305.935z"/>
<path d="M250.844,305.935c4.142,0,7.5-3.358,7.5-7.5v-79.624c0-4.143-3.358-7.5-7.5-7.5s-7.5,3.357-7.5,7.5v79.624
	C243.344,302.577,246.702,305.935,250.844,305.935z"/>
<path d="M479.518,411.657c9.44-13.233,12.221-30.299,7.286-46.047c2.145-4.286,3.361-9.112,3.361-14.221
	c0-12.332-7.098-23.381-17.858-28.682c-0.461-17.232-14.649-31.11-32.024-31.11c-4.813,0-9.543,1.104-13.828,3.152
	c-2.413-2.169-5.143-4.012-8.134-5.44c-0.271-18.66-15.564-33.758-34.323-33.758c-6.991,0-13.815,2.167-19.514,6.088
	c-5.696-3.921-12.521-6.088-19.511-6.088c-18.76,0-34.054,15.099-34.324,33.758c-2.576,1.23-4.947,2.78-7.102,4.568v-40.811h33.17
	c11.451,0,20.767-9.396,20.767-20.946v-29.12c0-4.143-3.357-7.5-7.5-7.5s-7.5,3.357-7.5,7.5v29.122c0,3.278-2.587,5.946-5.767,5.946
	h-33.17v-11.894h19.902c4.143,0,7.5-3.357,7.5-7.5v-94.124c0-4.143-3.357-7.5-7.5-7.5h-19.902v-11.893h33.17
	c3.18,0,5.767,2.667,5.767,5.946v53.897c0,4.143,3.357,7.5,7.5,7.5s7.5-3.357,7.5-7.5v-53.896c0-11.55-9.315-20.946-20.767-20.946
	h-33.17v-2.208c5.478-1.326,9.563-6.258,9.563-12.137V50.977c0-6.893-5.607-12.5-12.5-12.5h-48.092V17.814
	c0-6.892-5.607-12.5-12.5-12.5h-79.853c-6.893,0-12.5,5.608-12.5,12.5v20.662H99.572c-6.893,0-12.5,5.607-12.5,12.5v24.836
	c0,5.88,4.085,10.811,9.563,12.138v2.206H61.973c-3.992,0-7.463,1.87-9.288,5.004c-1.824,3.133-1.736,7.075,0.235,10.548
	l43.715,76.97v41.507H62.828v-54.298c0-5.79-4.71-10.5-10.5-10.5H34.414c-5.79,0-10.5,4.71-10.5,10.5v54.298H12.5
	c-6.893,0-12.5,5.607-12.5,12.5v257.499c0,6.892,5.607,12.5,12.5,12.5h368.994c4.517,0,8.941-0.501,13.244-1.447
	c3.735,0.94,7.639,1.447,11.658,1.447c10.719,0,20.63-3.554,28.652-9.55c8.02,5.992,17.92,9.55,28.635,9.55
	c26.642,0,48.316-21.923,48.316-48.869C512,436.478,498.404,418.303,479.518,411.657z M303.547,132.049h12.402v79.125h-12.402
	V132.049z M454.697,388.346c-2.946-2.907-7.695-2.879-10.607,0.071l-18.688,18.939c-0.552-10.303,3.152-20.569,10.604-28.122
	c6.858-6.951,15.962-10.778,25.635-10.778c3.708,0,7.356,0.569,10.878,1.696c4.089,13.095,0.7,27.474-8.974,37.28
	c-0.535,0.542-1.088,1.059-1.649,1.562c-9.364,0.348-18.056,3.395-25.33,8.405l18.202-18.447
	C457.678,396.004,457.646,391.255,454.697,388.346z M410.492,409.137c-1.352-0.115-2.715-0.188-4.096-0.188
	c-26.642,0-48.316,21.922-48.316,48.867c0,13.141,5.164,25.077,13.535,33.869h-63.344c-33.793,0-61.285-36.022-61.285-80.301
	s27.492-80.302,61.285-80.302c10.688,0,21.173,3.695,30.44,10.693c1.531,3.182,4.575,5.481,8.195,5.953
	c1.812,0.24,3.645,0.362,5.447,0.362c11.17,0,21.667-4.402,29.561-12.4c1.376-1.396,2.629-2.879,3.782-4.421
	c18.496,1.65,34.754,14.116,45.141,32.586c-1.929,1.471-3.771,3.084-5.509,4.844C414.625,379.549,409.426,394.372,410.492,409.137z
	 M371.236,325.156c-5.044,5.11-11.738,7.928-18.854,7.934c-0.032-7.25,2.744-14.16,7.872-19.36
	c5.039-5.108,11.732-7.925,18.849-7.932C379.138,313.047,376.362,319.957,371.236,325.156z M457.318,323.573
	c0,0.959-0.084,1.932-0.249,2.89c-0.661,3.828,1.711,7.526,5.465,8.524c7.438,1.975,12.631,8.72,12.631,16.402
	c0,1.307-0.164,2.573-0.446,3.795c-4.261-1.14-8.637-1.729-13.077-1.729c-6.153,0-12.14,1.098-17.748,3.188
	c-3.513-6.231-7.608-11.912-12.185-16.924c3.857-5.537,6.13-12.252,6.13-19.493c0-4.521-0.909-8.871-2.542-12.879
	c1.593-0.487,3.264-0.75,4.985-0.75C449.676,306.598,457.318,314.213,457.318,323.573z M320.465,301.614
	c3.753-0.997,6.124-4.693,5.466-8.52c-0.19-1.102-0.286-2.205-0.286-3.28c0-10.62,8.671-19.261,19.328-19.261
	c5.373,0,10.367,2.151,14.063,6.057c1.417,1.497,3.387,2.346,5.448,2.346s4.031-0.848,5.447-2.345
	c3.697-3.906,8.692-6.058,14.066-6.058c10.657,0,19.327,8.641,19.327,19.261c0,1.091-0.095,2.191-0.282,3.271
	c-0.664,3.83,1.707,7.532,5.464,8.53c8.439,2.242,14.333,9.896,14.333,18.612c0,3.355-0.87,6.511-2.392,9.26
	c-8.377-6.242-17.782-10.542-27.822-12.385c1.451-5.346,1.856-11.007,1.121-16.712c-0.617-4.8-4.385-8.596-9.177-9.234
	c-1.804-0.236-3.633-0.357-5.438-0.357c-9.896,0-19.258,3.461-26.75,9.806v-6.861c0-4.143-3.357-7.5-7.5-7.5s-7.5,3.357-7.5,7.5
	v29.526c-9.174-4.724-19.04-7.188-29.109-7.188c-0.562,0-1.12,0.012-1.679,0.026C308.116,309.184,313.388,303.495,320.465,301.614z
	 M162.665,20.314h74.853v18.162h-74.853V20.314z M102.072,53.477h196.037v19.836H267c-4.143,0-7.5,3.357-7.5,7.5s3.357,7.5,7.5,7.5
	h21.547v80.801H111.636V88.313H220c4.142,0,7.5-3.357,7.5-7.5s-3.358-7.5-7.5-7.5H102.072V53.477z M69.857,105.156h26.778v47.148
	L69.857,105.156z M111.636,184.113h176.911v111.523c0,9.821-2.78,18.99-7.571,26.757c-9.877,4.744-18.771,11.984-26.184,21.1
	c-5.035,1.744-10.423,2.705-16.032,2.705h-77.337c-9.396,0-18.186-2.667-25.691-7.281V236.686c0-6.893-5.607-12.5-12.5-12.5h-11.597
	v-40.072H111.636z M38.914,174.387h8.914v49.798h-8.914V174.387z M38.914,239.186h8.914v41.282h-8.914V239.186z M15,239.186h8.914
	v41.282H15V239.186z M15,295.467h51c4.142,0,7.5-3.357,7.5-7.5s-3.358-7.5-7.5-7.5h-3.172v-41.282h57.904v41.282H109
	c-4.142,0-7.5,3.357-7.5,7.5s3.358,7.5,7.5,7.5h11.732v172.135H15V295.467z M15,482.603h105.732v9.082H15V482.603z M135.732,491.685
	v-127.91c5.06-1.659,10.443-2.575,16.04-2.575h9.65h77.337h4.688c-6.489,13.035-10.53,28.158-11.315,44.363
	c-6.702-10.766-18.555-17.94-32.041-17.94c-20.865,0-37.84,17.159-37.84,38.25s16.975,38.249,37.84,38.249
	c16.079,0,29.838-10.194,35.309-24.521c5.391,21.682,16.824,40.072,31.828,52.083H135.732V491.685z M222.931,425.872
	c0,12.819-10.246,23.249-22.839,23.249c-12.594,0-22.84-10.43-22.84-23.249c0-12.82,10.246-23.25,22.84-23.25
	C212.685,402.622,222.931,413.053,222.931,425.872z M406.397,491.685c-18.371,0-33.316-15.193-33.316-33.869
	c0-18.675,14.945-33.867,33.316-33.867s33.316,15.192,33.316,33.867C439.713,476.491,424.768,491.685,406.397,491.685z
	 M463.684,491.685c-6.646,0-12.835-1.999-18.038-5.422c5.698-8.02,9.067-17.84,9.067-28.447c0-10.606-3.369-20.427-9.066-28.445
	c5.202-3.424,11.392-5.422,18.037-5.422c18.371,0,33.316,15.192,33.316,33.867C497,476.491,482.055,491.685,463.684,491.685z"/>
<path d="M96.56,357.648c1.97,0,3.91-0.8,5.3-2.199c1.4-1.4,2.2-3.33,2.2-5.301c0-1.98-0.8-3.909-2.2-5.31
	c-1.39-1.39-3.33-2.19-5.3-2.19s-3.91,0.801-5.3,2.19c-1.4,1.4-2.2,3.33-2.2,5.31c0,1.971,0.8,3.9,2.2,5.301
	C92.66,356.85,94.59,357.648,96.56,357.648z"/>
<path d="M71.27,369.88c-1.97,0-3.91,0.8-5.3,2.189c-1.4,1.4-2.2,3.33-2.2,5.311c0,1.97,0.8,3.9,2.2,5.3
	c1.39,1.39,3.33,2.19,5.3,2.19c1.98,0,3.91-0.801,5.3-2.19c1.4-1.399,2.2-3.33,2.2-5.3c0-1.98-0.8-3.91-2.2-5.311
	C75.18,370.68,73.25,369.88,71.27,369.88z"/>
<path d="M94.73,318.01c0-1.97-0.8-3.91-2.19-5.3c-1.4-1.4-3.33-2.2-5.31-2.2c-1.97,0-3.9,0.8-5.3,2.2c-1.4,1.39-2.2,3.32-2.2,5.3
	c0,1.97,0.8,3.91,2.2,5.3c1.4,1.4,3.33,2.2,5.3,2.2c1.98,0,3.91-0.8,5.31-2.2C93.93,321.92,94.73,319.979,94.73,318.01z"/>
<path d="M54.69,319.46c-1.97,0-3.9,0.8-5.3,2.2c-1.4,1.39-2.2,3.33-2.2,5.3c0,1.98,0.8,3.91,2.2,5.3c1.4,1.4,3.33,2.2,5.3,2.2
	c1.97,0,3.91-0.8,5.31-2.2c1.39-1.39,2.19-3.32,2.19-5.3c0-1.97-0.8-3.91-2.19-5.3C58.6,320.26,56.66,319.46,54.69,319.46z"/>
<path d="M96.78,404.78c-1.97,0-3.91,0.8-5.3,2.199c-1.4,1.391-2.2,3.33-2.2,5.301c0,1.97,0.8,3.899,2.2,5.3
	c1.4,1.399,3.33,2.2,5.3,2.2s3.91-0.801,5.3-2.2c1.4-1.4,2.2-3.33,2.2-5.3c0-1.98-0.8-3.91-2.2-5.301
	C100.69,405.579,98.76,404.78,96.78,404.78z"/>
<g>
</g>
<g>
</g>
<g>
</g>
<g>
</g>
<g>
</g>
<g>
</g>
<g>
</g>
<g>
</g>
<g>
</g>
<g>
</g>
<g>
</g>
<g>
</g>
<g>
</g>
<g>
</g>
<g>
</g>
</svg>
