<svg id="Capa_1" enable-background="new 0 0 512 512" height="512" viewBox="0 0 512 512" width="512" xmlns="http://www.w3.org/2000/svg"><g><g><path d="m240.5 421.427c0 22.85-9.758 42.763-24.213 53.294h79.426c-14.455-10.531-24.213-30.445-24.213-53.294 0-24.947 11.63-46.396 28.309-55.951h-87.616c16.677 9.554 28.307 31.003 28.307 55.951z" fill="#3ad1e0"/><path d="m299.81 365.48c-11.51 6.59-20.62 18.85-25.15 34.01-6.17.47-12.4.7-18.66.7s-12.49-.23-18.66-.7c-4.53-15.16-13.64-27.42-25.15-34.01z" fill="#20bfd5"/></g><g><path d="m325.987 504.5h-139.974c-10.208 0-18.483-8.275-18.483-18.483 0-10.208 8.275-18.483 18.483-18.483h139.973c10.208 0 18.483 8.275 18.483 18.483 0 10.208-8.275 18.483-18.482 18.483z" fill="#a8e7ef"/><path d="m344.47 486.02c0 5.1-2.07 9.72-5.41 13.06-3.35 3.35-7.97 5.42-13.07 5.42h-29.53c5.1 0 9.73-2.07 13.07-5.42 3.35-3.34 5.42-7.96 5.42-13.06 0-10.21-8.28-18.49-18.49-18.49h29.53c10.2 0 18.48 8.28 18.48 18.49z" fill="#70d9e6"/><path d="m446.601 115.751-81.59 54.144-38.933-38.933 54.144-81.59c3.494-5.265 10.935-6.01 15.403-1.542l52.518 52.518c4.468 4.468 3.724 11.909-1.542 15.403z" fill="#fcb44d"/><path d="m446.6 115.75-81.59 54.14-20.08-20.08 81.59-54.14c5.27-3.49 6.01-10.93 1.54-15.4l20.08 20.08c4.47 4.47 3.73 11.91-1.54 15.4z" fill="#fca62f"/><g><circle cx="256" cy="239.369" fill="#aee097" r="134.221"/><g><ellipse cx="250.218" cy="132.197" fill="#99d980" rx="47.184" ry="12.576"/></g><path d="m390.22 239.37c0 74.13-60.09 134.22-134.22 134.22-5.53 0-10.98-.33-16.33-.99 66.43-8.05 117.89-64.63 117.89-133.23s-51.46-125.18-117.89-133.23c5.35-.66 10.8-.99 16.33-.99 74.13 0 134.22 60.09 134.22 134.22z" fill="#99d980"/></g><circle cx="250.218" cy="87.363" fill="#fb4a59" r="38.581"/><path d="m288.8 87.36c0 21.31-17.27 38.58-38.58 38.58-4.46 0-8.74-.76-12.73-2.15 15.06-5.26 25.86-19.58 25.86-36.43 0-16.84-10.8-31.17-25.86-36.43 3.99-1.39 8.27-2.15 12.73-2.15 21.31 0 38.58 17.28 38.58 38.58z" fill="#f82f40"/><g><path d="m426.82 263.39c-7.09 65.38-80.86 116.8-170.82 116.8s-163.73-51.42-170.82-116.8c-.6-5.53 3.83-10.33 9.39-10.33h322.86c5.56 0 9.989 4.8 9.39 10.33z" fill="#a8e7ef"/><g><path d="m263.35 253.06v101.17c0 5.35-2.17 10.19-5.67 13.69s-8.34 5.67-13.69 5.67c-10.69 0-19.36-8.67-19.36-19.36v-41.92c0-5.35-2.17-10.19-5.67-13.69s-8.34-5.67-13.69-5.67-10.19 2.17-13.7 5.67c-3.5 3.5-5.67 8.34-5.67 13.69 0 10.33-8.11 18.84-18.43 19.32h-.04c-11.14.53-20.25-8.17-20.25-19.32v-59.25z" fill="#70d9e6"/></g><path d="m426.82 263.39c-7.09 65.38-80.86 116.8-170.82 116.8-6.19 0-12.3-.24-18.32-.72 81.47-6.43 145.89-55.2 152.49-116.08.59-5.53-3.83-10.33-9.39-10.33h36.65c5.56 0 9.989 4.8 9.39 10.33z" fill="#70d9e6"/></g><path d="m147.18 223.08v64.148c0 11.149 9.112 19.843 20.249 19.32l.043-.002c10.317-.484 18.432-8.99 18.432-19.318 0-10.693 8.669-19.362 19.362-19.362 10.693 0 19.362 8.669 19.362 19.362v41.916c0 10.693 8.669 19.362 19.362 19.362 10.693 0 19.362-8.669 19.362-19.362v-87.207z" fill="#aee097"/></g><g><path d="m453.446 95.045-52.517-52.518c-3.727-3.728-8.875-5.566-14.117-5.039-5.245.525-9.925 3.345-12.839 7.737l-47.319 71.305c-10.35-5.969-21.445-10.631-32.995-13.815 1.703-4.805 2.64-9.971 2.64-15.353 0-9.089-2.656-17.564-7.216-24.711 12.103-15.548 19.016-34.915 19.016-55.152 0-4.142-3.358-7.5-7.5-7.5s-7.5 3.358-7.5 7.5c0 15.941-5.151 31.236-14.24 43.804-7.871-6.265-17.823-10.022-28.642-10.022-25.409 0-46.081 20.672-46.081 46.081 0 6.623 1.415 12.919 3.942 18.616-11.331 4.072-22.104 9.566-32.091 16.409-3.417 2.341-4.289 7.009-1.948 10.426 1.454 2.121 3.803 3.261 6.194 3.261 1.46 0 2.937-.426 4.232-1.313 9.954-6.821 20.781-12.139 32.196-15.865 8.411 8.945 20.338 14.547 33.556 14.547 14.481 0 27.416-6.72 35.87-17.199 56.936 13.852 96.634 64.366 96.634 123.124 0 2.06-.056 4.13-.155 6.194h-51.936c-4.142 0-7.5 3.358-7.5 7.5s3.358 7.5 7.5 7.5h86.797c.771 0 1.256.414 1.478.66.245.273.521.73.453 1.36-3.201 29.534-21.357 57.074-51.124 77.546-30.53 20.998-70.39 32.562-112.235 32.562s-81.705-11.564-112.235-32.562c-29.767-20.473-47.923-48.013-51.125-77.547-.068-.629.209-1.086.454-1.359.222-.247.708-.66 1.478-.66h45.108v26.665c0 7.462 2.937 14.375 8.271 19.463s12.379 7.7 19.873 7.347c14.345-.673 25.581-12.45 25.581-26.81 0-6.541 5.321-11.862 11.862-11.862s11.862 5.321 11.862 11.862v41.917c0 14.812 12.05 26.862 26.862 26.862s26.862-12.05 26.862-26.862v-68.582h26.789c4.142 0 7.5-3.358 7.5-7.5s-3.358-7.5-7.5-7.5h-26.789v-6.626c0-4.142-3.358-7.5-7.5-7.5s-7.5 3.358-7.5 7.5v90.207c0 6.541-5.321 11.862-11.862 11.862s-11.862-5.321-11.862-11.862v-41.917c0-14.812-12.05-26.862-26.862-26.862s-26.862 12.05-26.862 26.862c0 6.334-4.957 11.529-11.327 11.829-3.319.151-6.435-.987-8.772-3.218-2.338-2.23-3.625-5.289-3.625-8.611v-64.146c0-4.142-3.358-7.5-7.5-7.5s-7.5 3.358-7.5 7.5v22.482h-10.234c-.099-2.066-.168-4.136-.168-6.194 0-30.98 11.307-60.807 31.838-83.984 2.747-3.101 2.459-7.841-.641-10.587-3.102-2.747-7.84-2.458-10.587.641-4.861 5.487-9.254 11.311-13.168 17.406l-31.372-99.881c-1.241-3.951-5.446-6.148-9.403-4.908-3.952 1.241-6.149 5.451-4.908 9.403l35.727 113.745c-1.243 2.76-2.399 5.558-3.462 8.391l-56.828-62.446c-2.788-3.064-7.532-3.287-10.595-.499s-3.287 7.531-.499 10.595l62.818 69.028c-2.581 10.757-3.92 21.858-3.92 33.096 0 2.058.057 4.127.146 6.194h-19.853c-4.816 0-9.424 2.056-12.642 5.642-3.182 3.545-4.713 8.282-4.203 12.995 3.679 33.946 24.113 65.301 57.537 88.29 24.658 16.959 54.826 28.223 87.21 32.837 6.789 9.932 10.527 22.703 10.527 36.101 0 14.508-4.496 28.479-12.359 38.607h-34.629c-14.327 0-25.983 11.656-25.983 25.983s11.657 25.983 25.984 25.983h22.654c4.142 0 7.5-3.358 7.5-7.5s-3.358-7.5-7.5-7.5h-22.654c-6.056 0-10.983-4.927-10.983-10.983s4.927-10.983 10.983-10.983h139.974c6.056 0 10.983 4.927 10.983 10.983s-4.927 10.983-10.983 10.983h-84.329c-4.142 0-7.5 3.358-7.5 7.5s3.358 7.5 7.5 7.5h84.329c14.327 0 25.983-11.656 25.983-25.983s-11.656-25.983-25.983-25.983h-34.64c-7.867-10.135-12.347-24.06-12.347-38.607 0-13.398 3.738-26.169 10.527-36.101 32.383-4.615 62.551-15.879 87.209-32.837 33.424-22.988 53.857-54.343 57.537-88.289.511-4.713-1.021-9.45-4.203-12.995-3.218-3.585-7.825-5.642-12.642-5.642h-19.841c.089-2.065.135-4.135.135-6.194 0-24.556-6.463-48.727-18.465-69.926l71.491-47.443c4.392-2.915 7.211-7.594 7.736-12.838s-1.311-10.39-5.038-14.117zm-203.228 23.399c-17.138 0-31.081-13.943-31.081-31.081s13.943-31.081 31.081-31.081c7 0 13.466 2.328 18.667 6.248-3.975 3.66-8.367 6.92-13.14 9.681-.328.19-.629.407-.917.636l-9.519-1.138c-.623 5.204 1.759 15.762 14.632 22.332 1.092.558 2.256.821 3.403.821 2.729 0 5.361-1.495 6.686-4.092 1.55-3.037.828-6.631-1.532-8.859 3.486-2.353 6.774-4.94 9.86-7.725 1.882 4.004 2.94 8.468 2.94 13.177.001 17.138-13.942 31.081-31.08 31.081zm23.309 341.59h-34.999c6.162-11.276 9.472-24.594 9.472-38.607 0-12.122-2.559-23.898-7.314-34.232 5.071.324 10.178.496 15.313.496s10.242-.172 15.314-.496c-4.755 10.334-7.314 22.11-7.314 34.232 0 13.834 3.396 27.307 9.528 38.607zm112.944-406.515c.57-.859 1.394-1.061 1.834-1.105.441-.043 1.288-.009 2.017.72l20.931 20.931-15.366 15.366-19.986-19.986zm10.73 86.014-15.101-15.101 13.788-13.788 17.889 17.889zm-25.708-25.707-15.053-15.054 11-16.576 17.841 17.841zm-23.515-2.302 12.908 12.908-9.841 9.841c-3.768-3.402-7.71-6.601-11.809-9.577zm18.698 39.317c-1.626-2.031-3.312-4.009-5.044-5.941l9.861-9.861 12.956 12.956-13.268 8.805c-1.448-2.023-2.946-4.013-4.505-5.959zm76.883-43.173c-.044.44-.246 1.264-1.105 1.834l-15.926 10.569-20.034-20.034 15.366-15.366 20.98 20.98c.729.729.763 1.577.719 2.017z"/><path d="m202.705 183.742c.719 0 1.451-.104 2.174-.323 3.965-1.199 6.207-5.385 5.007-9.35l-2.496-8.25c-1.199-3.965-5.387-6.204-9.35-5.007-3.965 1.199-6.207 5.385-5.007 9.35l2.496 8.25c.981 3.241 3.957 5.33 7.176 5.33z"/><path d="m188.654 215.901c-3.965 1.199-6.207 5.385-5.008 9.35l2.495 8.25c.98 3.241 3.956 5.331 7.176 5.331.719 0 1.45-.104 2.174-.323 3.965-1.199 6.207-5.385 5.008-9.35l-2.495-8.25c-1.199-3.965-5.384-6.209-9.35-5.008z"/><path d="m326.999 207.359c.611 0 1.232-.075 1.851-.232l8.355-2.122c4.015-1.02 6.443-5.101 5.424-9.115-1.02-4.015-5.099-6.442-9.115-5.424l-8.355 2.122c-4.015 1.019-6.443 5.1-5.424 9.115.862 3.396 3.914 5.656 7.264 5.656z"/><path d="m301.208 173.09c1.031.485 2.116.714 3.185.714 2.816 0 5.516-1.594 6.792-4.312 1.762-3.749.151-8.216-3.598-9.978l-7.801-3.667c-3.748-1.763-8.216-.152-9.978 3.598-1.762 3.749-.151 8.216 3.598 9.978z"/><path d="m247.57 206.645 7.802 3.667c1.031.485 2.116.714 3.185.714 2.816 0 5.516-1.594 6.792-4.312 1.762-3.749.151-8.216-3.598-9.978l-7.802-3.667c-3.749-1.762-8.216-.152-9.978 3.598-1.761 3.749-.15 8.216 3.599 9.978z"/></g></g></svg>