<svg id="Capa_1" enable-background="new 0 0 512.008 512.008" height="512" viewBox="0 0 512.008 512.008" width="512" xmlns="http://www.w3.org/2000/svg"><g><path d="m328.389 7.508c-49.804-.693-90.639 38.386-92.774 87.505-.096 2.208 1.694 4.044 3.904 4.044h87.567v87.566c0 2.21 1.836 4 4.044 3.904 49.119-2.135 88.198-42.971 87.505-92.775-.687-49.312-40.933-89.558-90.246-90.244z" fill="#ffd064"/><path d="m93.353 454.888c0 27.399 52.323 49.61 116.866 49.61s116.866-22.211 116.866-49.61v-27.114c0 27.399-52.323 49.61-116.866 49.61s-116.866-22.211-116.866-49.61z" fill="#d3effb"/><path d="m310.714 37.643c-10.891 2.906-20.641 8.639-28.41 16.362-6.149 6.112-4.907 16.365 2.601 20.7l42.18 24.352v-48.741c0-8.56-8.101-14.88-16.371-12.673z" fill="#fbf4c6"/><path d="m343.456 160.471c10.891-2.906 20.641-8.639 28.41-16.362 6.149-6.112 4.907-16.365-2.601-20.7l-42.18-24.352v48.741c.001 8.56 8.101 14.88 16.371 12.673z" fill="#fff9e2"/><path d="m388.457 115.586c2.929-10.885 2.839-22.195.035-32.785-2.219-8.381-11.719-12.432-19.227-8.098l-42.18 24.353 42.211 24.371c7.413 4.28 16.937.425 19.161-7.841z" fill="#fbf4c6"/><path d="m372.086 54.172c-7.962-7.979-17.802-13.556-28.375-16.423-8.367-2.269-16.626 3.933-16.626 12.602v48.705l42.211-24.371c7.413-4.279 8.836-14.454 2.79-20.513z" fill="#fff9e2"/><path d="m327.085 99.058v-.001z" fill="#dd636e"/><path d="m284.874 74.687c-7.413-4.28-16.936-.424-19.161 7.841-1.467 5.451-2.176 11.009-2.167 16.53h63.539z" fill="#fff9e2"/><path d="m239.519 99.057c-2.21 0-4-1.836-3.904-4.044.679-15.618 5.271-30.221 12.819-42.853-11.975-1.758-24.832-2.713-38.215-2.713-64.543 0-116.866 22.211-116.866 49.61s52.323 49.61 116.866 49.61 116.866-22.211 116.866-49.61z" fill="#d3effb"/><path d="m239.519 99.057c-2.21 0-4-1.836-3.904-4.044.288-6.628 1.281-13.074 2.906-19.263-8.881-.845-18.4-1.303-28.301-1.303-48.552 0-87.912 11.018-87.912 24.611s39.36 24.611 87.912 24.611 87.912-11.018 87.912-24.61z" fill="#90d8f9"/><path d="m327.085 99.057c0 27.399-52.323 49.61-116.866 49.61s-116.866-22.211-116.866-49.61v328.717c0 27.399 52.323 49.61 116.866 49.61s116.866-22.211 116.866-49.61z" fill="#b1e4f9"/><path d="m287.085 136.427v271.347c0 27.399-52.323 49.61-116.866 49.61-24.469 0-47.182-3.192-65.953-8.65 18.61 16.923 59.055 28.65 105.953 28.65 64.543 0 116.866-22.211 116.866-49.61v-328.717c0 14.906-15.486 28.276-40 37.37z" fill="#90d8f9"/><path d="m302.086 228.531c0 21.538-41.13 38.998-91.867 38.998s-91.867-17.46-91.867-38.998v184.937c0 21.538 41.13 38.998 91.867 38.998s91.867-17.46 91.867-38.998z" fill="#ffd064"/><path d="m302.086 413.468v-184.937c0 7.887-5.517 15.228-15 21.364v157.879c0 19.383-26.187 36.17-64.361 44.334 44.82-2.59 79.361-18.902 79.361-38.64z" fill="#ffc250"/><ellipse cx="210.219" cy="228.532" fill="#ffe07d" rx="91.867" ry="38.998"/><path d="m287.085 249.896c9.484-6.136 15-13.477 15-21.364s-5.517-15.228-15-21.364z" fill="#ffd064"/><path d="m245.56 78.342c.167-.455.291-.931.369-1.425 1.885-7.034 4.646-13.682 8.157-19.826.591-.676 1.066-1.464 1.386-2.335 27.405-44.514 88.714-53.169 127.647-18.207 3.083 2.768 7.822 2.511 10.591-.569 2.768-3.082 2.513-7.824-.569-10.591-44.759-40.197-114.758-31.704-148.487 18.685-37.903-4.806-85.029-1.847-120.002 13-25.02 10.621-38.799 25.531-38.799 41.983v355.832c0 16.453 13.779 31.362 38.799 41.983 47.531 20.177 123.583 20.187 171.135 0 25.02-10.621 38.799-25.531 38.799-41.983v-257.054c24.584-1.838 47.359-12.652 64.421-30.661 29.031-30.641 34.943-75.37 16.949-111.753-1.835-3.712-6.33-5.236-10.048-3.398-3.713 1.836-5.233 6.334-3.397 10.047 5.549 11.221 8.451 23.261 8.626 35.787.618 44.506-32.718 81.107-76.551 84.931v-15.133c3.514.995 7.228 1.017 10.805.063 11.95-3.188 22.935-9.513 31.764-18.29 4.819-4.791 6.937-11.423 5.867-18.025 6.124-2.272 10.9-7.26 12.679-13.867 3.214-11.945 3.229-24.62.043-36.653-1.753-6.625-6.475-11.736-12.677-14.093 1.124-6.617-.96-13.193-5.671-17.914-8.736-8.755-19.706-15.105-31.721-18.363-6.435-1.743-13.257-.378-18.544 3.933-5.169-4.283-11.903-5.767-18.35-4.047-11.951 3.189-22.936 9.514-31.763 18.29-4.847 4.817-6.931 11.456-5.867 18.026-6.293 2.336-10.946 7.427-12.679 13.867-.969 3.598-1.649 7.27-2.038 10.978h-13.078c.393-4.529 1.138-8.942 2.204-13.218zm-35.341-21.396c9.011 0 17.9.445 26.546 1.323-1.399 3.096-2.637 6.264-3.709 9.495-27.13-1.985-61.221-.555-87.023 6.668-20.721 5.801-31.227 14.085-31.227 24.625s10.506 18.824 31.227 24.625c35.667 9.984 92.683 9.99 128.371 0 15.524-4.346 25.315-10.086 29.249-17.125h13.891c-9.449 17.601-50.901 34.61-107.325 34.61-64.451 0-109.366-22.193-109.366-42.11s44.915-42.111 109.366-42.111zm0 440.053c-63.55 0-108.106-21.577-109.339-41.274 6.158 5.21 14.13 9.94 23.772 14.033 34.948 14.836 82.31 17.89 120.73 12.907 4.107-.533 7.006-4.294 6.473-8.402-.532-4.107-4.293-7.004-8.402-6.473-10.721 1.39-21.902 2.095-33.233 2.095-64.451 0-109.366-22.193-109.366-42.11v-300.79c6.162 5.219 14.143 9.957 23.799 14.056 47.532 20.177 123.584 20.185 171.135 0 9.656-4.099 17.637-8.837 23.799-14.056v300.79c0 12.262-16.627 24.957-43.393 33.129-3.961 1.21-6.192 5.402-4.982 9.363 1.207 3.954 5.392 6.194 9.363 4.983 16.616-5.074 29.801-11.746 38.984-19.514-1.251 19.694-45.802 41.263-109.34 41.263zm156.36-358.209c-6.973 6.931-15.637 11.922-25.057 14.435-3.507.939-6.937-1.79-6.937-5.426v-35.751l30.932 17.858c3.231 1.866 3.708 6.253 1.062 8.884zm14.636-25.153c-.944 3.506-5.016 5.114-8.168 3.295-3.15-1.815 11.385 6.573-30.961-17.876l30.929-17.857c3.225-1.862 7.269-.094 8.228 3.521 2.515 9.503 2.505 19.502-.028 28.917zm-39.467-68.649c9.487 2.572 18.143 7.58 25.029 14.481 2.57 2.577 1.914 6.906-1.231 8.722-10.773 6.22-24.674 14.245-30.961 17.875v-35.714c0-3.737 3.568-6.34 7.163-5.364zm-54.155 14.336c6.97-6.93 15.634-11.921 25.055-14.435 3.51-.938 6.938 1.79 6.938 5.426v35.751l-30.932-17.859c-3.232-1.865-3.709-6.252-1.061-8.883zm-14.638 25.153c.944-3.505 5.018-5.115 8.169-3.295 6.747 3.89-12.699-7.332 17.97 10.375-10.906 0-8.871 0-27.557 0 .319-2.389.792-4.755 1.418-7.08zm5.602 22.08c-29.01 11.14-88.843 13.116-126.603 3.189-16.985-4.466-21.691-9.438-22.132-10.689.44-1.252 5.147-6.224 22.133-10.689 23.119-6.079 53.196-7.37 77.438-5.819-.667 3.99-1.094 8.042-1.272 12.14-.281 6.514 4.968 11.869 11.397 11.869 28.787-.001 16.828-.001 39.039-.001z"/><path d="m309.586 413.468v-184.937c-.001-26.508-42.72-46.497-99.367-46.497-56.648 0-99.365 19.989-99.366 46.497v77.061c0 4.142 3.357 7.5 7.5 7.5s7.5-3.358 7.5-7.5v-51.793c37.704 28.326 130.948 28.387 168.733-.001v159.671c0 14.869-36.08 31.498-84.367 31.498-48.286 0-84.366-16.629-84.366-31.498v-72.876c0-4.142-3.357-7.5-7.5-7.5s-7.5 3.358-7.5 7.5v72.876c0 26.508 42.718 46.498 99.366 46.498s99.367-19.99 99.367-46.499zm-99.367-153.439c-48.286 0-84.366-16.629-84.366-31.497 0-14.869 36.08-31.498 84.366-31.498s84.366 16.629 84.367 31.497c-.001 14.869-36.081 31.498-84.367 31.498z"/><circle cx="174.109" cy="319.834" r="7.5"/><circle cx="235.611" cy="359.677" r="7.5"/><circle cx="166.609" cy="401.004" r="7.5"/><circle cx="263.546" cy="409.034" r="7.5"/><circle cx="166.609" cy="230.501" r="7.5"/><circle cx="235.611" cy="224.199" r="7.5"/><circle cx="256.046" cy="315.873" r="7.5"/></g></svg>