<svg id="Capa_1" enable-background="new 0 0 512 512" height="512" viewBox="0 0 512 512" width="512" xmlns="http://www.w3.org/2000/svg"><g><path d="m88.446 460.892c0 28.226 53.902 51.108 120.393 51.108s120.393-22.882 120.393-51.108v-27.932c0 28.226-240.787 28.226-240.787 0v27.932z" fill="#d3effb"/><path d="m329.233 94.322c-.001 28.226-240.787 28.226-240.787 0v338.638c0 28.226 53.902 51.108 120.393 51.108s120.393-22.882 120.393-51.108v-338.638z" fill="#b1e4f9"/><path d="m288.025 119.675v292.681c0 28.226-53.902 51.108-120.393 51.108-25.208 0-48.606-3.289-67.944-8.911 19.171 17.434 60.838 29.514 109.151 29.514 66.491 0 120.393-22.882 120.393-51.108v-338.637c0 15.355-15.953 15.984-41.207 25.353z" fill="#90d8f9"/><path d="m303.479 227.704c0 22.188-189.279 22.188-189.279 0v190.519c0 22.188 42.371 40.175 94.639 40.175s94.639-17.987 94.639-40.175v-190.519z" fill="#ffd064"/><path d="m303.479 418.222v-190.518c0 8.125-5.683 3.433-15.453 9.755v174.898c0 19.968-26.977 37.262-66.304 45.672 46.174-2.669 81.757-19.474 81.757-39.807z" fill="#ffc250"/><g fill="#fff0af"><circle cx="171.639" cy="321.762" r="7.726"/><circle cx="234.998" cy="362.808" r="7.726"/><circle cx="163.913" cy="405.382" r="7.726"/><circle cx="263.776" cy="413.654" r="7.726"/><circle cx="256.049" cy="317.681" r="7.726"/></g><path d="m329.232 94.322h.001z" fill="#dd636e"/><path d="m248.207 46.009c-12.336-1.811-25.581-2.795-39.368-2.795-66.491 0-120.393 22.882-120.393 51.108s53.902 51.108 120.393 51.108 120.393-22.882 120.393-51.107z" fill="#d3effb"/><path d="m237.995 70.311c-9.149-.87-18.955-1.342-29.155-1.342-50.018 0-90.565 11.351-90.565 25.353s40.548 25.353 90.565 25.353 90.565-11.351 90.565-25.353z" fill="#90d8f9"/><path d="m330.576.009c-51.307-.714-93.375 39.544-95.574 90.146-.099 2.275 1.745 4.166 4.022 4.166h90.21v90.209c0 2.277 1.891 4.121 4.166 4.022 50.601-2.2 90.86-44.268 90.146-95.575-.708-50.8-42.169-92.261-92.97-92.968z" fill="#ffd064"/><path d="m312.367 31.054c-11.22 2.993-21.263 8.9-29.267 16.856-6.334 6.296-5.055 16.859 2.679 21.325l43.453 25.087v-50.213c0-8.817-8.345-15.328-16.865-13.055z" fill="#fff0af"/><path d="m346.098 157.59c11.22-2.993 21.263-8.9 29.267-16.856 6.334-6.296 5.055-16.859-2.679-21.325l-43.453-25.087v50.213c0 8.817 8.345 15.328 16.865 13.055z" fill="#fff6cf"/><path d="m392.457 111.35c3.018-11.214 2.924-22.865.036-33.774-2.286-8.634-12.072-12.808-19.807-8.342l-43.453 25.088 43.485 25.106c7.636 4.408 17.447.437 19.739-8.078z" fill="#fff0af"/><path d="m375.592 48.082c-8.202-8.22-18.339-13.965-29.231-16.918-8.62-2.337-17.128 4.051-17.128 12.983v50.175l43.485-25.106c7.636-4.41 9.102-14.892 2.874-21.134z" fill="#fff6cf"/><path d="m285.747 69.216c-7.636-4.409-17.447-.437-19.739 8.078-1.511 5.616-2.242 11.341-2.233 17.029h65.456z" fill="#fff6cf"/><ellipse cx="208.839" cy="227.704" fill="#ffe07d" rx="94.639" ry="40.175"/><path d="m288.025 249.713c9.77-6.322 15.453-13.884 15.453-22.009 0-8.126-5.683-15.688-15.453-22.009z" fill="#ffd064"/><circle cx="163.913" cy="229.732" fill="#fff6cf" r="7.726"/><circle cx="234.998" cy="223.24" fill="#fff6cf" r="7.726"/></g></svg>