<svg id="Capa_1" enable-background="new 0 0 512 512" height="512" viewBox="0 0 512 512" width="512" xmlns="http://www.w3.org/2000/svg"><g><g><path d="m323.449 207.782c7.638 0 12.763 7.843 9.695 14.838l-11.849 27.02h76.594l-90.432-90.432 4.006 15.189c1.072 4.064-.362 8.377-3.653 10.99l-28.199 22.394h43.838z" fill="#e41f2d"/></g><g><path d="m257.473 171.417c1.072 4.064-.362 8.377-3.653 10.99l-31.954 25.375h57.746l28.199-22.394c3.291-2.614 4.725-6.927 3.653-10.99l-10.614-40.239c-1.948-7.386-10.839-10.341-16.82-5.59l-31.303 24.859z" fill="#fe9901"/></g><path d="m167.186 207.782h54.681l31.954-25.375c3.291-2.614 4.725-6.927 3.653-10.99l-10.614-40.239c-1.948-7.386-10.839-10.341-16.82-5.59l-122.371 97.179c-3.291 2.614-4.725 6.927-3.653 10.99l4.19 15.884h33.707l15.578-35.523c1.687-3.85 5.492-6.336 9.695-6.336z" fill="#fb2b3a"/><path d="m113.341 303.983 34.807 191.821c.914 5.036 5.299 8.696 10.417 8.696h189.996c5.118 0 9.503-3.661 10.417-8.696l34.807-191.821z" fill="#d8ecfe"/><g><path d="m197.408 495.803-34.625-190.821h-49.26l34.625 190.821c.914 5.036 5.299 8.696 10.417 8.696h49.26c-5.118.001-9.503-3.66-10.417-8.696z" fill="#c4e2ff"/></g><path d="m321.296 249.641 11.849-27.02c3.068-6.995-2.057-14.838-9.695-14.838h-156.264c-4.203 0-8.008 2.486-9.695 6.335l-15.578 35.523z" fill="#fb8801"/><g><path d="m364.599 151.199-110.495-110.495c-5.401-5.401-3.479-14.571 3.637-17.348l38.767-15.131c3.915-1.528 8.363-.596 11.335 2.376l110.495 110.495c5.401 5.401 3.479 14.571-3.637 17.348l-38.767 15.132c-3.915 1.527-8.363.595-11.335-2.377z" fill="#fed2a4"/></g><g><path d="m307.843 10.601c-2.972-2.972-7.42-3.904-11.335-2.376l-38.768 15.131c-7.116 2.777-9.038 11.947-3.637 17.348l110.495 110.495c2.972 2.972 7.42 3.904 11.335 2.376l6.186-2.415-2.195-27.438c-.503-6.292-4.685-11.688-10.653-13.746l-13.355-4.605c-4.734-1.633-8.421-5.403-9.948-10.173l-4.064-12.701c-1.269-3.965-4.044-7.274-7.728-9.213l-4.579-2.41c-5.882-3.096-9.213-9.527-8.349-16.117l3.565-27.185z" fill="#fb2b3a"/></g><g><path d="m404.978 304.983h-303.836c-5.847 0-10.587-4.74-10.587-10.587v-34.169c0-5.847 4.74-10.587 10.587-10.587h303.836c5.847 0 10.587 4.74 10.587 10.587v34.169c0 5.847-4.74 10.587-10.587 10.587z" fill="#eaf6ff"/></g><g><path d="m133.999 294.396v-34.169c0-5.847 4.74-10.587 10.587-10.587h-43.444c-5.847 0-10.587 4.74-10.587 10.587v34.169c0 5.847 4.74 10.587 10.587 10.587h43.444c-5.847 0-10.587-4.74-10.587-10.587z" fill="#d8ecfe"/></g><g><path d="m221 178.5c4.142 0 7.5-3.358 7.5-7.5s-3.358-7.5-7.5-7.5h-10c-4.142 0-7.5 3.358-7.5 7.5s3.358 7.5 7.5 7.5z"/><path d="m214 78.5h10c4.142 0 7.5-3.358 7.5-7.5s-3.358-7.5-7.5-7.5h-10c-4.142 0-7.5 3.358-7.5 7.5s3.357 7.5 7.5 7.5z"/><path d="m388 194.5c4.143 0 7.5-3.358 7.5-7.5s-3.357-7.5-7.5-7.5h-10c-4.143 0-7.5 3.358-7.5 7.5s3.357 7.5 7.5 7.5z"/><path d="m155.418 47.496c.999 0 2.013-.201 2.987-.624l9.17-3.988c3.798-1.652 5.539-6.071 3.887-9.869s-6.07-5.538-9.869-3.887l-9.17 3.988c-3.798 1.652-5.539 6.071-3.887 9.869 1.229 2.824 3.987 4.511 6.882 4.511z"/><path d="m278.731 177.4c1.46 2.081 3.784 3.193 6.146 3.193 1.487 0 2.99-.441 4.301-1.361 3.391-2.379 4.211-7.056 1.832-10.447l-5.743-8.187c-2.379-3.391-7.056-4.212-10.447-1.833s-4.211 7.056-1.832 10.447z"/><path d="m124.042 162.465c1.488 0 2.991-.441 4.301-1.361l8.186-5.744c3.391-2.379 4.211-7.057 1.832-10.447-2.38-3.391-7.056-4.21-10.447-1.832l-8.186 5.744c-3.391 2.379-4.211 7.057-1.832 10.447 1.459 2.081 3.784 3.193 6.146 3.193z"/><path d="m371.761 63.912 53.391-30.374c3.6-2.048 4.858-6.627 2.81-10.228s-6.627-4.859-10.228-2.811l-56.974 32.412-47.614-47.613c-5.078-5.076-12.681-6.67-19.366-4.06l-38.767 15.131c-5.709 2.229-9.868 7.14-11.125 13.139-1.257 5.998.58 12.166 4.913 16.499l110.494 110.495c3.456 3.456 8.082 5.297 12.795 5.297 2.209 0 4.437-.405 6.572-1.237l38.767-15.132c5.708-2.229 9.867-7.14 11.125-13.138 1.257-5.998-.579-12.167-4.912-16.5zm1.448 82.677c-1.145.447-2.44.174-3.307-.693l-110.495-110.496c-1.027-1.027-.967-2.205-.839-2.815.129-.611.545-1.714 1.898-2.242l38.767-15.131c1.146-.447 2.441-.173 3.306.692l14.359 14.359-3.085 23.52c-1.267 9.657 3.674 19.193 12.293 23.73l4.578 2.409c1.956 1.03 3.404 2.757 4.078 4.861l4.063 12.702c2.236 6.987 7.712 12.585 14.646 14.977l13.355 4.605c3.148 1.086 5.355 3.933 5.62 7.254l1.751 21.881zm40.663-17.374c-.128.61-.545 1.713-1.898 2.242l-23.182 9.049-1.391-17.38c-.741-9.265-6.897-17.209-15.684-20.239l-13.355-4.605c-2.485-.857-4.448-2.864-5.249-5.367l-4.064-12.703c-1.881-5.874-5.921-10.69-11.379-13.563l-4.578-2.409c-3.089-1.626-4.859-5.044-4.405-8.506l1.586-12.096 82.761 82.761c1.028 1.028.966 2.205.838 2.816z"/><path d="m404.978 242.14h-3.98l-86.803-86.803-6.09-23.091c-1.563-5.926-5.969-10.618-11.785-12.551-5.815-1.933-12.153-.812-16.951 3l-22.314 17.72-2.941-11.151c-1.563-5.926-5.969-10.618-11.785-12.551-5.817-1.932-12.153-.811-16.952 3l-50.747 40.299-19.713-66.77c-1.173-3.973-5.345-6.246-9.316-5.069-3.973 1.173-6.242 5.344-5.069 9.316l21.43 72.583-21.624 17.172c-3.244 2.576-3.785 7.294-1.209 10.538s7.294 3.785 10.538 1.209l85.041-67.533c1.138-.903 2.301-.708 2.893-.512.592.197 1.641.737 2.011 2.142l10.613 40.237c.313 1.186-.105 2.444-1.065 3.206l-29.906 23.749h-52.065c-7.179 0-13.681 4.248-16.564 10.823l-13.609 31.035h-23.029l-2.716-10.297c-.313-1.185.106-2.443 1.065-3.205l9.331-7.409c3.244-2.576 3.785-7.293 1.209-10.538-2.577-3.244-7.293-3.786-10.538-1.209l-9.331 7.41c-5.622 4.465-8.071 11.835-6.24 18.777l1.763 6.682c-8.735 1.274-15.471 8.793-15.471 17.876v34.169c0 9.973 8.113 18.086 18.086 18.086h6.12l33.508 184.66c1.562 8.609 9.046 14.857 17.796 14.857h189.996c8.749 0 16.233-6.248 17.796-14.856.001 0 .001 0 .001-.001l33.508-184.66h5.112c9.974 0 18.087-8.114 18.087-18.086v-34.169c-.005-9.971-8.118-18.085-18.091-18.085zm-66.388-33.664c-3.352-5.13-9.012-8.193-15.141-8.193h-22.332l11.359-9.021c3.265-2.594 5.451-6.169 6.359-10.069l60.948 60.948h-47.01l7.239-16.508c2.463-5.613 1.93-12.027-1.422-17.157zm-80.106-20.196c5.621-4.464 8.071-11.834 6.241-18.777l-3.495-13.251 27.465-21.811c.658-.522 1.324-.678 1.884-.678.408 0 .76.083 1.009.166.593.197 1.641.737 2.012 2.142l10.613 40.24c.313 1.184-.105 2.441-1.064 3.204l-26.151 20.768h-33.627zm-94.125 28.85c.492-1.122 1.602-1.847 2.827-1.847h9.419l8.091 8.092c1.465 1.464 3.384 2.197 5.304 2.197 1.919 0 3.839-.732 5.303-2.196 2.188-2.188 2.74-5.391 1.66-8.092h126.487c1.453 0 2.242.876 2.584 1.398.341.522.826 1.597.243 2.928l-9.881 22.532h-36.159c.791-2.57.173-5.481-1.861-7.515-2.93-2.929-7.678-2.929-10.607 0l-7.071 7.071c-.14.14-.256.295-.383.444h-106.924zm187.239 277.335c-.267 1.469-1.544 2.535-3.037 2.535h-189.996c-1.493 0-2.771-1.066-3.037-2.535l-4.167-22.965h204.404zm11.607-63.965h-133.206c-4.142 0-7.5 3.358-7.5 7.5s3.358 7.5 7.5 7.5h130.484l-1.996 11h-209.848l-1.996-11h47.356c4.142 0 7.5-3.358 7.5-7.5s-3.358-7.5-7.5-7.5h-50.078l-1.996-11h223.276zm44.859-136.104c0 1.702-1.385 3.086-3.087 3.086h-53.979c-4.143 0-7.5 3.358-7.5 7.5s3.357 7.5 7.5 7.5h33.621l-16.697 92.018h-228.719l-16.697-92.017h192.493c4.143 0 7.5-3.358 7.5-7.5s-3.357-7.5-7.5-7.5h-213.857c-1.702 0-3.086-1.385-3.086-3.086v-34.169c0-1.702 1.385-3.087 3.086-3.087h303.836c1.702 0 3.087 1.385 3.087 3.087v34.168z"/></g></g></svg>