<svg id="Capa_1" enable-background="new 0 0 511.988 511.988" height="512" viewBox="0 0 511.988 511.988" width="512" xmlns="http://www.w3.org/2000/svg"><g><path d="m13.159 499.177c-7.098-7.098-7.098-18.605 0-25.702l199.414-199.415c7.097-7.097 18.605-7.097 25.702 0 7.097 7.097 7.097 18.605 0 25.702l-199.414 199.415c-7.098 7.097-18.605 7.097-25.702 0z" fill="#f3eae6"/><path d="m243.595 286.91c0 4.65-1.77 9.31-5.32 12.85l-45.53 45.53c-9.31-7.79-17.91-16.39-25.7-25.7l45.53-45.53c7.1-7.1 18.6-7.1 25.7 0 3.55 3.55 5.32 8.2 5.32 12.85z" fill="#e0d3ce"/><g><circle cx="322.399" cy="189.935" fill="#ffd3d7" r="182.435"/><path d="m504.835 189.93c0 100.76-81.68 182.44-182.44 182.44-9.38 0-18.6-.71-27.59-2.07 87.66-13.3 154.84-88.99 154.84-180.37 0-91.37-67.18-167.06-154.84-180.36 8.99-1.36 18.21-2.07 27.59-2.07 100.76 0 182.44 81.68 182.44 182.43z" fill="#ffc5c9"/><g><path d="m458.667 311.24c-33.418 37.512-82.086 61.128-136.272 61.128-18.51 0-36.368-2.759-53.203-7.875-49.15-27.549-82.438-80.16-82.438-140.396 0-74.361 60.506-134.868 134.878-134.868 60.045 0 108.893 48.859 108.893 108.904 0 45.297-36.85 82.147-82.147 82.147-30.92 0-56.082-25.162-56.082-56.082 0-19.283 15.681-34.963 34.953-34.963 9.701 0 17.557 7.865 17.557 17.557 0 9.651-7.775 17.477-17.396 17.557.09 11.497 9.461 20.818 20.968 20.818 25.934 0 47.033-21.099 47.033-47.033 0-40.682-33.097-73.79-73.779-73.79-55.009 0-99.764 44.755-99.764 99.754 0 69.315 56.393 125.698 125.698 125.698 40.06 0 90.293-16.865 110.669-38.134.141-.151.282-.291.432-.422z" fill="#fb6672"/></g><path d="m458.665 311.24c-33.42 37.51-82.08 61.13-136.27 61.13-9.37 0-18.58-.71-27.57-2.07 21.74-3.3 42.22-10.44 60.73-20.71 38.52-2.02 83.63-18.05 102.68-37.93.14-.15.28-.29.43-.42z" fill="#fb4a59"/><path d="m449.294 309.814c-20.997 18.213-65.682 32.48-101.728 32.48-65.175 0-118.198-53.023-118.198-118.198 0-50.869 41.389-92.254 92.264-92.254 36.547 0 66.279 29.737 66.279 66.29 0 21.798-17.734 39.533-39.533 39.533-5.27 0-9.86-3.069-12.069-7.516 9.478-3.702 16.189-13.032 15.994-23.816-.26-14.414-12.984-25.318-27.379-24.537-22.332 1.212-40.128 19.767-40.128 42.401 0 35.059 28.522 63.582 63.582 63.582 49.432 0 89.647-40.215 89.647-89.647 0-64.185-52.214-116.403-116.394-116.403-78.507 0-142.378 63.866-142.378 142.368 0 38.884 13.636 76.071 37.432 105.609-42.73-32.218-69.688-83.562-69.216-141.261.801-97.805 80.741-175.351 178.53-173.409 89.243 1.772 162.257 69.301 170.561 158.467.385 4.124 4.032 7.158 8.163 6.772 4.124-.384 7.156-4.039 6.772-8.163-4.368-46.897-25.974-90.316-60.837-122.259-35.086-32.148-80.637-49.853-128.259-49.853-104.73 0-189.935 85.204-189.935 189.935 0 41.799 13.638 81.991 38.707 114.921l-163.316 163.315c-10.01 10.01-10.01 26.298 0 36.309 5.005 5.005 11.58 7.508 18.155 7.508 6.574 0 13.149-2.502 18.154-7.508l110.875-110.875c2.983-2.983 2.928-7.854-.166-10.767-2.99-2.815-7.76-2.52-10.664.384l-110.651 110.652c-4.404 4.402-11.726 4.147-15.79-.763-3.542-4.279-3.012-10.627.916-14.555l162.089-162.088c.548.613 1.09 1.23 1.647 1.837 4.281 4.665 8.773 9.083 13.445 13.262l-28.104 28.104c-2.929 2.929-2.929 7.678 0 10.606 1.464 1.464 3.384 2.197 5.303 2.197s3.839-.732 5.303-2.197l29.116-29.116c28.14 21.422 61.773 34.639 97.412 37.898.232.021.463.032.691.032 4.001 0 7.388-3.185 7.49-7.331.097-3.974-3.091-7.293-7.049-7.66-11.154-1.035-21.965-3.09-32.355-6.054-.746-.213-1.904-.711-2.576-1.1l-.009-.005c-47.391-27.399-76.831-78.302-76.831-132.844 0-70.231 57.142-127.368 127.378-127.368 55.908 0 101.394 45.489 101.394 101.403 0 41.161-33.486 74.647-74.647 74.647-26.788 0-48.582-21.794-48.582-48.582 0-14.978 12.047-27.194 26.958-27.459 5.128-.091 9.736 3.534 10.451 8.613.863 6.129-3.892 11.446-9.855 11.498-4.153.036-7.484 3.487-7.44 7.639.166 15.545 12.92 28.178 28.467 28.178 30.069 0 54.533-24.463 54.533-54.533 0-44.823-36.462-81.29-81.279-81.29-59.146 0-107.264 48.114-107.264 107.254 0 73.445 59.752 133.198 133.198 133.198 12.142 0 25.037-1.45 37.773-4.041-14.846 5.689-30.681 9.433-47.205 10.906-3.96.353-7.155 3.67-7.065 7.644.094 4.151 3.481 7.347 7.491 7.347.22 0 .442-.01.665-.029 44.296-3.891 86.052-23.423 117.576-54.997 31.528-31.579 50.994-73.372 54.812-117.683.355-4.126-2.702-7.76-6.829-8.116-4.13-.366-7.761 2.702-8.116 6.829-3.381 39.251-19.535 74.67-44.322 102.125-.731.806-1.37 1.104-3.054 2.534z"/></g></g></svg>