<svg id="Capa_1" enable-background="new 0 0 512 512" height="512" viewBox="0 0 512 512" width="512" xmlns="http://www.w3.org/2000/svg"><g><path d="m434.576 303.061-16.649 14.527 16.649 16.378c18.951 0 34.368 15.417 34.368 34.369 0 18.951-15.418 34.368-34.368 34.368l-16.649 16.688 16.649 14.217c36.05 0 65.274-29.224 65.274-65.274 0-36.049-29.224-65.273-65.274-65.273z" fill="#78c2a4"/><path d="m185.854 114.897c-4.536-4.536-7.084-10.688-7.084-17.103v-21.376c-9.443 11.734-113.919 11.734-123.361 0v21.377c0 6.415-2.548 12.567-7.084 17.103-23.163 23.161-36.175 54.576-36.175 87.332v260.263c0 27.342 46.983 49.507 104.939 49.507s104.939-22.165 104.939-49.507v-260.263c0-32.756-13.012-64.171-36.174-87.333z" fill="#d3effb"/><path d="m185.854 114.897c-4.536-4.536-7.084-10.688-7.084-17.103v-21.376l-34.636 17.346c.168.179.339.356.513.53 23.162 23.162 36.174 54.577 36.174 87.333v260.263c0 27.342-46.983 49.507-104.939 49.507-19.149 0-37.1-2.42-52.554-6.647 17.273 16.163 52.773 27.25 93.761 27.25 57.956 0 104.939-22.165 104.939-49.507v-260.263c0-32.756-13.012-64.171-36.174-87.333z" fill="#b1e4f9"/><path d="m247.783 467.938c0 24.335 41.815 44.062 93.397 44.062 51.566 0 93.372-19.715 93.397-44.04v-216.52c-.025 24.325-186.793 24.313-186.793-.022v216.52z" fill="#78c2a4"/><path d="m393.369 275.044v172.312c-.025 24.325-41.831 44.04-93.397 44.04-15.805 0-30.693-1.852-43.742-5.122 14.747 15.181 47.238 25.726 84.949 25.726 51.566 0 93.372-19.715 93.397-44.04v-216.52c-.016 15.206-16.359 15.691-41.207 23.604z" fill="#66b394"/><path d="m51.135 65.376c0 17.184 29.528 31.115 65.954 31.115s65.954-13.931 65.954-31.115v-34.261c0 17.184-131.907 17.184-131.907 0v34.261z" fill="#ffd064"/><ellipse cx="117.089" cy="31.115" fill="#ffe07d" rx="65.954" ry="31.115"/><path d="m37.905 448.888c0 20.632 35.452 37.357 79.184 37.357 43.719 0 79.163-16.715 79.184-37.338v-204.175c-.021 20.623-158.369 20.613-158.369-.019v204.175z" fill="#e7ecf1"/><path d="m180.821 266.888v175.001c0 19.354-23.54 36.113-57.849 44.255 40.972-1.42 73.281-17.547 73.301-37.237v-204.175z" fill="#dae4ea"/><ellipse cx="117.089" cy="244.713" fill="#f6f9f9" rx="79.184" ry="37.357"/><path d="m180.821 222.539v44.349c9.712-6.202 15.453-13.872 15.453-22.175s-5.742-15.972-15.453-22.174z" fill="#e7ecf1"/><path d="m341.179 207.356c-51.582 0-93.397 19.727-93.397 44.062 0 9.335 6.153 17.991 16.649 25.116 9.615-18.379 143.88-18.379 153.495 0 10.488-7.12 16.64-15.768 16.649-25.094v-.022c.001-24.334-41.814-44.062-93.396-44.062z" fill="#66b394"/><path d="m341.179 244.713c-36.412 0-67.132 13.442-76.747 31.821 16.867 11.45 44.952 18.946 76.747 18.946s59.88-7.496 76.747-18.946c-9.614-18.379-40.335-31.821-76.747-31.821z" fill="#f6f9f9"/></g></svg>