<svg id="Capa_1" enable-background="new 0 0 512.009 512.009" height="512" viewBox="0 0 512.009 512.009" width="512" xmlns="http://www.w3.org/2000/svg"><g><path d="m187.913 119.031c-4.403-4.403-6.877-10.375-6.877-16.602v-20.75c-9.166 11.39-32.516 19.486-59.873 19.486s-50.707-8.096-59.873-19.486v20.75c0 6.227-2.474 12.199-6.877 16.602-22.483 22.483-35.115 52.978-35.115 84.774v252.638c0 26.541 45.606 48.057 101.865 48.057s101.865-21.516 101.865-48.057v-252.638c0-31.796-12.631-62.291-35.115-84.774z" fill="#d3effb"/><path d="m187.913 119.031c-4.403-4.403-6.877-10.375-6.877-16.602v-20.75c-6.032 7.495-18.206 13.564-33.622 16.838.163.174.329.345.498.514 22.483 22.483 35.115 52.978 35.115 84.774v252.638c0 26.541-45.606 48.057-101.865 48.057-18.588 0-36.013-2.349-51.015-6.452 16.767 15.69 51.227 26.452 91.015 26.452 56.258 0 101.865-21.516 101.865-48.057v-252.638c.001-31.796-12.63-62.291-35.114-84.774z" fill="#b1e4f9"/><ellipse cx="121.163" cy="37.704" fill="#ffe07d" rx="64.021" ry="30.204"/><ellipse cx="121.163" cy="245.044" fill="#f6f9f9" rx="76.865" ry="36.263"/><path d="m183.028 223.519v43.05c9.427-6.02 15-13.466 15-21.525s-5.573-15.505-15-21.525z" fill="#e7ecf1"/><path d="m57.142 70.961c0 16.681 28.663 30.204 64.021 30.204s64.021-13.523 64.021-30.204v-33.257c0 16.681-28.663 30.204-64.021 30.204s-64.021-13.524-64.021-30.204z" fill="#ffd064"/><path d="m44.299 443.237c0 20.027 34.413 36.263 76.865 36.263 42.438 0 76.844-16.226 76.864-36.245v-198.193c-.021 20.019-34.426 36.245-76.864 36.245-42.451 0-76.865-16.235-76.865-36.263z" fill="#e7ecf1"/><path d="m183.028 266.569v169.874c0 18.787-22.85 35.055-56.154 42.958 39.772-1.378 71.134-17.033 71.154-36.146v-198.193c-.009 8.052-5.58 15.491-15 21.507z" fill="#dae4ea"/><path d="m248.028 461.729c0 23.622 40.59 42.771 90.661 42.771 50.055 0 90.636-19.138 90.66-42.75v-210.176c-.024 23.612-40.605 42.75-90.66 42.75-50.07 0-90.661-19.149-90.661-42.771z" fill="#78c2a4"/><path d="m389.349 287.028v154.722c-.024 23.612-40.605 42.75-90.66 42.75-15.342 0-29.794-1.798-42.461-4.972 14.315 14.736 45.854 24.972 82.461 24.972 50.055 0 90.636-19.138 90.66-42.75v-210.176c-.015 14.761-15.88 27.773-40 35.454z" fill="#66b394"/><path d="m429.349 301.682v30c18.396 0 33.361 14.966 33.361 33.362s-14.966 33.361-33.361 33.361v30c34.994 0 63.362-28.368 63.362-63.362-.001-34.993-28.369-63.361-63.362-63.361z" fill="#78c2a4"/><path d="m338.688 245.044c-35.345 0-65.166 13.048-74.499 30.889 16.373 11.115 43.635 18.391 74.499 18.391s58.126-7.276 74.499-18.391c-9.333-17.841-39.153-30.889-74.499-30.889z" fill="#f6f9f9"/><path d="m338.688 208.781c-50.07 0-90.661 19.149-90.661 42.771 0 9.061 5.973 17.464 16.162 24.38 9.333-17.841 39.154-30.889 74.499-30.889s65.165 13.048 74.499 30.889c10.181-6.911 16.152-15.306 16.162-24.359v-.021c0-23.621-40.59-42.771-90.661-42.771z" fill="#66b394"/><path d="m63.612 212.619c-17.291 8.157-26.813 19.673-26.813 32.425v73.132c0 4.142 3.358 7.5 7.5 7.5s7.5-3.358 7.5-7.5v-47.664c33.056 24.491 105.952 24.284 138.729 0v172.735c-.014 13.6-28.505 28.752-69.365 28.752-40.877 0-69.364-15.158-69.364-28.763v-90.061c0-4.142-3.358-7.5-7.5-7.5s-7.5 3.358-7.5 7.5v90.061c0 12.752 9.522 24.268 26.813 32.425 32.046 15.119 83.016 15.13 115.089.006 17.287-8.151 26.814-19.66 26.827-32.413 0-13.321 0-210.949 0-198.211 0-12.752-9.522-24.268-26.813-32.425-32.053-15.12-83.032-15.129-115.103.001zm126.916 32.425c0 13.604-28.487 28.763-69.365 28.763s-69.364-15.158-69.364-28.763 28.487-28.763 69.364-28.763 69.365 15.158 69.365 28.763z"/><path d="m49.11 113.728c-24.061 24.061-37.312 56.051-37.312 90.077v252.638c0 15.903 12.123 30.38 34.135 40.765 41.823 19.731 108.617 19.74 150.459 0 22.012-10.385 34.135-24.862 34.135-40.765v-252.638c0-34.027-13.251-66.017-37.312-90.078-3.018-3.018-4.68-7.03-4.68-11.298v-18.31c2.694-4.061 4.148-8.485 4.148-13.158v-33.257c.002-21.495-30.746-37.704-71.52-37.704s-71.521 16.209-71.521 37.704v33.257c0 4.673 1.454 9.097 4.148 13.158v18.31c0 4.268-1.662 8.281-4.68 11.299zm166.418 90.077v252.638c0 9.629-9.308 19.542-25.536 27.199-37.795 17.83-99.872 17.826-137.658 0-16.228-7.656-25.536-17.57-25.536-27.199v-252.638c0-30.02 11.69-58.243 32.918-79.471 5.851-5.851 9.073-13.63 9.073-21.904v-5.274c27.575 15.371 77.16 15.378 104.747 0v5.274c0 8.274 3.222 16.053 9.073 21.905 21.229 21.227 32.919 49.45 32.919 79.47zm-94.365-188.805c32.35 0 56.521 11.986 56.521 22.704 0 4.042-3.807 8.587-10.444 12.471-3.575 2.092-4.777 6.686-2.686 10.261s6.686 4.777 10.261 2.686c.995-.582 1.952-1.181 2.869-1.797v9.637c0 1.788-.673 3.611-1.944 5.408-.41.408-.772.864-1.079 1.358-7.44 8.439-27.911 15.938-53.499 15.938s-46.059-7.499-53.499-15.938c-.307-.494-.669-.95-1.079-1.358-1.271-1.797-1.944-3.62-1.944-5.408v-9.602c19.44 13.09 50.266 15.9 73.685 13.01 4.111-.507 7.032-4.251 6.525-8.362s-4.255-7.038-8.362-6.525c-4.971.613-10.127.924-15.325.924-32.35 0-56.521-11.986-56.521-22.704s24.172-22.703 56.521-22.703z"/><path d="m405.995 214.526c-37.444-17.666-97.152-17.674-134.614 0-19.896 9.386-30.854 22.536-30.854 37.027v210.176c0 14.49 10.958 27.64 30.854 37.027 37.439 17.662 97.132 17.674 134.597.007 19.892-9.38 30.854-22.522 30.87-37.013v-26.239c35.561-3.758 63.362-33.927 63.362-70.467s-27.801-66.71-63.362-70.467c0-.316 0-43.981 0-43.024.001-14.491-10.957-27.641-30.853-37.027zm30.854 125.765c10.614 3.222 18.362 13.1 18.362 24.753s-7.748 21.53-18.362 24.752zm-98.16-124.01c49.007 0 83.16 18.588 83.16 35.271 0 5.18-3.265 9.87-7.04 13.477-14.053-16.714-43.167-27.485-76.12-27.485-9.796 0-19.388.948-28.51 2.819-4.058.832-6.673 4.796-5.841 8.854s4.795 6.67 8.854 5.841c8.133-1.667 16.712-2.513 25.498-2.513 27.144 0 52.289 8.567 63.711 21.06-33.762 17.635-93.654 17.631-127.408.01 2.012-2.195 4.471-4.31 7.311-6.275 3.406-2.357 4.257-7.029 1.9-10.435-2.356-3.406-7.028-4.257-10.435-1.9-4.443 3.074-8.189 6.426-11.207 10.021-4.563-4.363-7.033-8.987-7.033-13.472-.001-16.684 34.152-35.273 83.16-35.273zm83.16 245.461c-.017 16.676-34.175 35.258-83.16 35.258-49.008 0-83.161-18.588-83.161-35.271v-182.882c37.729 30.59 128.517 30.653 166.321 0zm63.362-96.698c0 28.259-21.093 51.685-48.362 55.36v-15.189c18.962-3.532 33.362-20.201 33.362-40.171s-14.4-36.639-33.362-40.171v-15.189c27.269 3.675 48.362 27.1 48.362 55.36z"/></g></svg>