<svg id="Capa_1" enable-background="new 0 0 512 512" height="512" viewBox="0 0 512 512" width="512" xmlns="http://www.w3.org/2000/svg"><g><g><path d="m494.186 104.127c-2.643-50.583-67.388-91.07-146.89-91.07s-144.247 40.488-146.89 91.07z" fill="#883f2e"/><path d="m375.642 14.815c-9.173-1.15-18.648-1.759-28.346-1.759-79.502 0-144.252 40.487-146.895 91.07h56.691c2.32-44.412 52.522-81.036 118.55-89.311z" fill="#6d3326"/><g><path d="m499.484 104.127h-304.377c-3.202 0-5.582 2.961-4.896 6.088l8.343 37.977c58.252 2.273 107.091 41.127 124.248 94.227.583 1.806 2.176 3.094 4.055 3.359 25.952 3.662 46.597 23.796 51.039 49.486h77.769c4.708 0 8.781-3.276 9.791-7.874l38.924-177.176c.687-3.127-1.694-6.087-4.896-6.087z" fill="#80d261"/><path d="m255.323 104.127 8.094 63.465c27.853 16.81 49.201 43.308 59.385 74.827.583 1.806 2.176 3.094 4.055 3.359 25.952 3.662 46.597 23.796 51.039 49.486h36.994l24.378-191.137z" fill="#68ca44"/><path d="m322.802 242.418c.583 1.806 2.176 3.094 4.055 3.359 19.238 2.715 35.555 14.486 44.527 30.856l7.574-172.507h-63.326l5.91 134.598c.436 1.225.859 2.454 1.26 3.694z" fill="#80d261"/></g></g><g><g><path d="m320.984 366.037c-17.23.737-32.936-5.754-44.378-16.675-10.852 10.358-25.542 16.731-41.728 16.731-16.187 0-30.876-6.373-41.728-16.731-10.853 10.358-25.542 16.731-41.728 16.731s-30.876-6.373-41.728-16.731c-11.442 10.92-27.148 17.412-44.378 16.675-6.528-.279-12.792-1.624-18.638-3.841l28.31 128.874c1.01 4.598 5.083 7.874 9.791 7.874h216.739c4.708 0 8.781-3.276 9.791-7.874l28.312-128.874c-5.845 2.217-12.109 3.562-18.637 3.841z" fill="#fd4755"/><g><g><path d="m104.57 491.07-27.819-126.628c-2.888.428-5.823.652-8.788.652-.864 0-1.733-.019-2.606-.056-6.642-.284-13.015-1.686-18.938-4.015l28.57 130.047c1.01 4.598 5.083 7.874 9.791 7.874h29.582c-4.708-.001-8.782-3.276-9.792-7.874z" fill="#fb2b3a"/></g></g><path d="m276.606 349.362c-10.852 10.358-25.542 16.731-41.728 16.731-16.187 0-30.876-6.373-41.728-16.731-10.853 10.358-25.542 16.731-41.728 16.731s-30.876-6.373-41.728-16.731c-.932.889-1.902 1.738-2.888 2.567l18.751 147.014h135.19l18.751-147.014c-.99-.829-1.96-1.678-2.892-2.567z" fill="#fe646f"/><path d="m193.149 349.362c-7.962 7.599-17.994 13.041-29.162 15.407l5.891 134.174h46.541l5.891-134.174c-11.167-2.366-21.199-7.808-29.161-15.407z" fill="#fd4755"/></g><g><path d="m326.857 245.777c-1.879-.265-3.471-1.553-4.055-3.359-17.685-54.734-69.032-94.335-129.653-94.335s-111.968 39.6-129.653 94.335c-.583 1.806-2.176 3.094-4.055 3.359-30.133 4.252-53.133 30.704-51.894 62.287 1.226 31.228 26.543 56.637 57.766 57.973 17.23.737 32.936-5.754 44.378-16.675 10.853 10.358 25.542 16.731 41.728 16.731s30.876-6.373 41.728-16.731c10.853 10.358 25.542 16.731 41.728 16.731s30.876-6.373 41.728-16.731c11.442 10.92 27.148 17.412 44.378 16.675 31.223-1.336 56.541-26.745 57.766-57.973 1.243-31.583-21.757-58.035-51.89-62.287z" fill="#fed2a4"/></g><g><g><path d="m45.75 318.98c-1.239-31.583 21.76-58.035 51.893-62.287 1.879-.265 3.471-1.553 4.055-3.359 17.685-54.734 69.032-94.334 129.653-94.334 6.101 0 12.105.408 17.993 1.185-17.132-7.771-36.156-12.101-56.195-12.101-60.621 0-111.968 39.6-129.653 94.335-.583 1.806-2.176 3.094-4.055 3.359-30.133 4.252-53.133 30.704-51.893 62.287 1.226 31.228 26.543 56.637 57.766 57.973 2.076.089 4.129.067 6.157-.049-14.941-10.539-24.961-27.653-25.721-47.009z" fill="#ffbd86"/></g></g></g><g><path d="m509.235 101.298c-2.075-2.58-5.031-4.2-8.27-4.581-3.656-23.755-19.549-45.595-45.683-62.358-28.956-18.573-67.306-28.802-107.987-28.802s-79.031 10.229-107.986 28.802c-26.133 16.763-42.027 38.603-45.683 62.358-3.239.381-6.196 2.001-8.27 4.581-2.387 2.969-3.288 6.805-2.47 10.526l6.331 28.819c-29.568.787-57.655 10.442-81.457 28.054-23.92 17.7-41.493 41.84-50.898 69.888-33.84 5.544-58.163 35.267-56.809 69.773 1.031 26.257 17.301 48.909 40.133 59.251l27.477 125.071c1.752 7.976 8.951 13.764 17.116 13.764h216.739c8.167 0 15.365-5.789 17.116-13.764l27.477-125.07c22.831-10.342 39.102-32.994 40.133-59.25.074-1.881.057-3.745-.019-5.595h69.439c8.166 0 15.364-5.789 17.116-13.764l14.146-64.39c.889-4.046-1.67-8.046-5.716-8.935s-8.046 1.67-8.935 5.716l-14.146 64.39c-.252 1.149-1.29 1.983-2.466 1.983h-32.257l22.465-176.137h50.518l-16.425 74.764c-.889 4.046 1.67 8.046 5.716 8.935 4.048.89 8.046-1.67 8.935-5.716l17.089-77.786c.818-3.722-.082-7.558-2.469-10.527zm-261.827-54.313c26.569-17.042 62.043-26.428 99.888-26.428s73.319 9.386 99.888 26.428c21.452 13.76 34.794 31.088 38.516 49.642h-276.809c3.723-18.554 17.064-35.882 38.517-49.642zm117.378 208.941c-9.509-8.885-21.648-15.096-35.35-17.341-.141-.422-.302-.834-.447-1.255l-3.015-68.659c-.182-4.139-3.716-7.345-7.822-7.164-4.138.182-7.345 3.684-7.164 7.822l1.53 34.848c-9.109-13.56-20.543-25.537-33.981-35.48-2.658-1.967-5.372-3.828-8.133-5.595l-6.565-51.475h44.615l.997 22.703c.182 4.138 3.702 7.332 7.822 7.164 4.138-.182 7.345-3.684 7.164-7.822l-.968-22.044h47.652zm-160.125-114.891-6.461-29.408h50.518l5.418 42.483c-15.508-7.294-32.191-11.716-49.475-13.075zm-119.882 350.408c-1.176 0-2.213-.834-2.466-1.983l-25.666-116.831c2.735.464 5.517.781 8.347.902 1.004.043 2.003.064 3.002.064 11.696-.001 22.941-2.947 32.924-8.513l16.116 126.362h-32.257zm47.379 0-16.315-127.919c10.618 6.549 22.862 10.07 35.577 10.07 1.824 0 3.637-.077 5.438-.22l5.184 118.069zm92.098 0 1.849-42.114c.182-4.138-3.025-7.64-7.164-7.822-4.152-.183-7.64 3.026-7.822 7.164l-1.878 42.772h-32.185l-5.311-120.957c7.708-2.414 14.952-6.19 21.403-11.225 6.451 5.035 13.696 8.811 21.404 11.225l-1.852 42.185c-.182 4.138 3.025 7.64 7.164 7.822 4.152.179 7.64-3.025 7.822-7.164l1.754-39.955c1.801.143 3.614.22 5.437.22 12.715 0 24.959-3.521 35.577-10.07l-16.314 127.919zm79.729-1.983c0 .001 0 .001 0 0-.252 1.149-1.29 1.983-2.466 1.983h-32.257l16.117-126.367c10.834 6.042 23.15 9 35.926 8.454 2.83-.121 5.612-.437 8.346-.901zm67.271-181.69c-1.072 27.303-23.294 49.606-50.592 50.774-14.559.625-28.358-4.565-38.879-14.607-2.898-2.767-7.458-2.767-10.356 0-9.903 9.452-22.883 14.657-36.55 14.657s-26.647-5.205-36.55-14.657c-2.898-2.767-7.458-2.767-10.356 0-9.903 9.452-22.883 14.657-36.55 14.657s-26.647-5.205-36.55-14.657c-2.898-2.767-7.459-2.767-10.356 0-10.521 10.042-24.334 15.227-38.878 14.607-27.298-1.168-49.521-23.471-50.593-50.774-1.071-27.301 18.467-50.759 45.447-54.566 4.713-.665 8.694-3.993 10.144-8.479 17.227-53.317 66.462-89.14 122.516-89.14s105.289 35.823 122.516 89.14c1.449 4.486 5.431 7.814 10.144 8.479 26.977 3.807 46.515 27.265 45.443 54.566zm37.03-20.006h-24.363c-1.218-4.507-2.879-8.838-4.953-12.935l7.166-163.203h44.615z"/><path d="m271.999 64.5h20c4.142 0 7.5-3.358 7.5-7.5s-3.358-7.5-7.5-7.5h-20c-4.142 0-7.5 3.358-7.5 7.5s3.357 7.5 7.5 7.5z"/><path d="m348.999 85.5h20c4.142 0 7.5-3.358 7.5-7.5s-3.358-7.5-7.5-7.5h-20c-4.142 0-7.5 3.358-7.5 7.5s3.357 7.5 7.5 7.5z"/><path d="m405.999 64.5h20c4.142 0 7.5-3.358 7.5-7.5s-3.358-7.5-7.5-7.5h-20c-4.142 0-7.5 3.358-7.5 7.5s3.357 7.5 7.5 7.5z"/><circle cx="119.108" cy="251.5" r="7.5"/><circle cx="167.108" cy="251.5" r="7.5"/><circle cx="215.108" cy="251.5" r="7.5"/><circle cx="143.108" cy="208.5" r="7.5"/><circle cx="192.108" cy="208.5" r="7.5"/><circle cx="241.108" cy="208.5" r="7.5"/><circle cx="263.108" cy="251.5" r="7.5"/></g></g></svg>