<svg id="Capa_1" enable-background="new 0 0 512 512" height="512" viewBox="0 0 512 512" width="512" xmlns="http://www.w3.org/2000/svg"><g><path d="m70.456 423.48 22.141 35.464c1.827 2.926 5.033 4.704 8.482 4.704h309.84c3.45 0 6.656-1.778 8.483-4.704l22.141-35.464z" fill="#d8ecfe"/><path d="m130.888 458.944-22.141-35.464h-38.291l22.141 35.464c1.827 2.926 5.033 4.704 8.482 4.704h38.291c-3.449 0-6.655-1.777-8.482-4.704z" fill="#c4e2ff"/><g><path d="m84.757 334.246c3.368 3.368 6.197 7.064 8.494 10.978h-.001c2.148-.784 4.411-1.328 6.752-1.617.839-1.275 1.613-2.594 2.305-3.962 15.644-30.939 42.349-56.323 75.521-72.035-.991-4.47-3.139-8.319-6.504-11.091-5.84-4.812-14.155-5.429-22.696-2.526 2.347-19.352-5.664-36.337-18.87-38.861-9.79-1.871-19.854 4.703-26.426 15.908-.755-1.329-1.567-2.65-2.451-3.952-11.965-17.619-31.169-25.449-42.892-17.487s-11.529 28.699.436 46.318c.884 1.302 1.812 2.543 2.769 3.736-12.839 1.976-22.661 8.906-24.532 18.696-2.522 13.195 10.288 26.893 29.116 31.858-2.671 3.115-4.642 6.456-5.795 9.85 9.037 2.322 17.64 7.053 24.774 14.187z" fill="#68ca44"/><g><path d="m400.786 324.393c-.001-.001-.002-.003-.003-.004 5.29-9.358 15.324-15.679 26.84-15.679 5.247 0 10.186 1.315 14.51 3.628.396-.373.791-.749 1.178-1.136 14.434-14.434 18.566-35.163 12.286-52.781-17.618-6.28-38.348-2.148-52.781 12.286-10.21 10.21-15.259 23.571-15.12 36.752 4.764 5.362 9.148 11.012 13.09 16.934z" fill="#80d261"/><path d="m400.786 324.393c-.001-.001-.002-.003-.003-.004.971-1.718 2.105-3.332 3.376-4.825.886-11.742 5.874-23.339 14.969-32.435 10.851-10.851 25.259-15.878 39.229-15.038-.269-4.654-1.188-9.261-2.76-13.672-17.618-6.28-38.348-2.148-52.781 12.286-10.21 10.21-15.259 23.571-15.12 36.752 4.764 5.364 9.148 11.014 13.09 16.936z" fill="#68ca44"/></g><path d="m413.908 348.753c4.601 2.859 8.738 5.853 12.38 8.96 5.506-8.39 14.992-13.934 25.777-13.934 2.052 0 4.055.205 5.995.588.249-1.577.381-3.192.381-4.838 0-17.02-13.798-30.818-30.818-30.818-11.516 0-21.551 6.321-26.84 15.679 5.131 7.705 9.539 15.85 13.125 24.363z" fill="#fb2b3a"/><path d="m413.908 348.753c2.974 1.848 5.755 3.752 8.334 5.706-2.459-4.426-3.878-9.509-3.878-14.931 0-13.228 8.336-24.505 20.039-28.876-3.356-1.253-6.986-1.942-10.779-1.942-11.516 0-21.551 6.321-26.84 15.679 5.13 7.706 9.538 15.851 13.124 24.364z" fill="#e41f2d"/><path d="m106.351 343.466c14.692 1.174 26.656 12.888 28.126 27.553.632 6.309-.653 12.271-3.325 17.393l38.724 1.786c2.649.122 5.298.228 7.947.339h159.77c13.484-.566 26.963-1.272 40.435-2.125-.012-.354-.027-.706-.027-1.063 0-17.02 13.798-30.818 30.818-30.818 5.729 0 11.089 1.568 15.684 4.291-.001 0-.001-.001-.002-.001.537-1.073 1.151-2.098 1.805-3.094-3.646-3.112-7.789-6.11-12.396-8.974-24.263-57.583-85.806-98.491-157.91-98.491-68.241 0-127.023 36.642-153.692 89.384-.69 1.365-1.461 2.685-2.295 3.96 2.057-.254 4.175-.313 6.338-.14z" fill="#fedf74"/><path d="m128.265 303.163c-.002-.007-.003-.014-.005-.021-10.45 10.925-19.225 23.2-25.952 36.504-.69 1.365-1.461 2.685-2.296 3.961 1.248-.154 2.516-.242 3.806-.242 10.817 0 20.326 5.578 25.825 14.009 1.25-1.053 2.539-2.097 3.903-3.122 5.144-3.868 9.373-8.862 12.277-14.605 3.309-6.543 7.129-12.828 11.383-18.835z" fill="#fed402"/><g><path d="m203.978 326.002 33.359-16.189c10.976-5.327 23.903-4.734 34.345 1.575l17.657 10.668c9.754 5.893 22.27 4.372 30.327-3.686l3.588-3.588c6.937-6.937 17.795-8.039 25.984-2.638 6.348 4.187 14.766 3.333 20.143-2.045l10.671-10.671c-30.863-30.227-75.007-49.166-124.052-49.166-51.033 0-96.756 20.508-127.735 52.901l34.192 20.849c12.601 7.684 28.243 8.433 41.521 1.99z" fill="#883f2e"/></g><g><g><path d="m198.608 308.807-12.905-7.869c-12.702-7.745-14.227-25.223-3.877-35.152-20.538 9.113-38.74 21.88-53.561 37.378l34.192 20.849c12.6 7.683 28.243 8.433 41.52 1.989l20.63-10.012c-9.03.071-18.048-2.335-25.999-7.183z" fill="#6d3326"/></g></g><g><path d="m59.74 388.412h16.744c-2.221-4.258-3.484-9.095-3.484-14.23 0-13.308 8.436-24.645 20.251-28.958-2.296-3.913-5.126-7.61-8.494-10.978-15.129-15.129-36.856-19.46-55.322-12.877-6.583 18.466-2.252 40.194 12.877 55.322 5.17 5.17 11.11 9.077 17.428 11.721z" fill="#80d261"/><path d="m59.74 388.412h16.744c-1.887-3.617-3.073-7.655-3.39-11.936-5.185-2.559-10.063-6-14.397-10.333-13.08-13.08-18.082-31.093-14.944-47.666-4.874.282-9.698 1.246-14.318 2.893-6.583 18.466-2.252 40.194 12.877 55.322 5.17 5.169 11.11 9.076 17.428 11.72z" fill="#68ca44"/></g><path d="m439.636 387.349c0 .356-.015.709-.027 1.063h40.003c2.089-4.156 3.271-8.846 3.271-13.815 0-17.02-13.798-30.818-30.818-30.818-12.067 0-22.508 6.94-27.566 17.042 9.06 5.367 15.137 15.235 15.137 26.528z" fill="#fdb441"/><path d="m439.636 387.349c0 .356-.015.709-.027 1.063h14.033c-2.09-4.157-3.278-8.845-3.278-13.815 0-11.754 6.582-21.969 16.26-27.166-4.336-2.329-9.292-3.652-14.558-3.652-12.067 0-22.508 6.94-27.566 17.042 9.059 5.367 15.136 15.235 15.136 26.528z" fill="#fe9901"/><path d="m439.609 388.412c.012-.354.027-.706.027-1.063 0-17.02-13.798-30.818-30.818-30.818s-30.818 13.798-30.818 30.818c0 .356.015.709.027 1.063z" fill="#fb2b3a"/><path d="m400.042 388.412c-.012-.355-.042-.705-.042-1.063 0-13.144 8.232-24.359 19.818-28.789-3.417-1.307-7.123-2.029-11-2.029-17.02 0-30.818 13.798-30.818 30.818 0 .356.015.709.027 1.063z" fill="#e41f2d"/><path d="m131.152 388.412c2.221-4.258 3.484-9.095 3.484-14.229 0-17.02-13.798-30.818-30.818-30.818s-30.818 13.797-30.818 30.817c0 5.135 1.263 9.972 3.484 14.229h54.668z" fill="#fb2b3a"/><path d="m98.495 388.412c-2.224-4.258-3.495-9.093-3.495-14.23 0-13.144 8.232-24.359 19.818-28.789-3.417-1.307-7.123-2.029-11-2.029-17.02 0-30.818 13.798-30.818 30.818 0 5.135 1.263 9.972 3.484 14.229h22.011z" fill="#e41f2d"/><g><path d="m329.639 193.94h-73.639v-53.134h73.639c2.761 0 5 2.239 5 5v43.134c0 2.761-2.239 5-5 5z" fill="#fe9901"/></g><g><path d="m256 140.805h27.361v53.134h-27.361z" fill="#fb8801"/></g></g><g><path d="m486.966 423.48h-461.932c-9.684 0-17.534-7.85-17.534-17.534 0-9.684 7.85-17.534 17.534-17.534h461.931c9.684 0 17.534 7.85 17.534 17.534.001 9.684-7.849 17.534-17.533 17.534z" fill="#eaf6ff"/></g><g><path d="m50 405.946c0-9.684 7.85-17.534 17.534-17.534h-42.5c-9.684 0-17.534 7.85-17.534 17.534 0 9.684 7.85 17.534 17.534 17.534h42.5c-9.684 0-17.534-7.85-17.534-17.534z" fill="#d8ecfe"/></g><g><path d="m135.917 170.622h45.695c7.584 0 13.754 6.17 13.754 13.754v23.379c0 4.142 3.358 7.5 7.5 7.5s7.5-3.358 7.5-7.5v-23.379c0-15.855-12.899-28.754-28.754-28.754h-45.695c-7.584 0-13.754-6.17-13.754-13.753 0-7.584 6.17-13.754 13.754-13.754h15.083c4.142 0 7.5-3.358 7.5-7.5s-3.358-7.5-7.5-7.5h-15.083c-15.855 0-28.754 12.899-28.754 28.754 0 15.854 12.899 28.753 28.754 28.753z"/><path d="m146.543 55.852h53.135c15.788 0 28.631 12.844 28.631 28.631s-12.844 28.631-28.631 28.631h-12.678c-4.142 0-7.5 3.358-7.5 7.5s3.358 7.5 7.5 7.5h12.678c24.059 0 43.631-19.573 43.631-43.631s-19.573-43.631-43.631-43.631h-53.135c-4.142 0-7.5 3.358-7.5 7.5s3.358 7.5 7.5 7.5z"/><path d="m489.821 381.079c.364-2.108.563-4.272.563-6.483 0-16.241-10.162-30.145-24.458-35.713-.183-10.978-5.006-20.845-12.585-27.726 12.258-15.646 15.964-36.623 9.321-55.257-.756-2.121-2.425-3.791-4.546-4.546-20.85-7.432-44.638-1.918-60.604 14.047-7.319 7.319-12.429 16.284-15.114 25.855-7.738-7.217-16.25-13.81-25.481-19.674-27.635-17.553-59.789-27.398-93.417-28.674v-41.468h66.139c6.893 0 12.5-5.607 12.5-12.5v-43.135c0-6.893-5.607-12.5-12.5-12.5h-66.887c-1.212-2.512-3.775-4.25-6.752-4.25-4.142 0-7.5 3.358-7.5 7.5v106.365c-23.195.887-45.786 5.866-66.643 14.66-1.525-2.619-3.444-4.938-5.762-6.848-5.29-4.359-12.138-6.372-19.611-5.917-.807-19.078-10.744-34.263-25.316-37.048-9.686-1.854-19.634 2.059-27.567 10.434-6.09-7.45-13.545-13.18-21.423-16.392-10.348-4.219-20.701-3.64-28.4 1.59-7.701 5.229-12.057 14.638-11.952 25.813.08 8.507 2.657 17.55 7.336 25.958-10.711 4.287-18.014 12.093-19.865 21.777-2.439 12.762 5.285 25.733 18.961 33.989-7.182-.188-14.416.903-21.34 3.371-2.121.756-3.791 2.425-4.546 4.546-7.578 21.258-2.23 45.444 13.593 62.061h-10.931c-13.804-.002-25.034 11.228-25.034 25.032s11.23 25.035 25.034 25.035h41.263l19.938 31.936c3.219 5.155 8.768 8.232 14.844 8.232h69.921c4.142 0 7.5-3.358 7.5-7.5s-3.358-7.5-7.5-7.5h-69.92c-.868 0-1.661-.44-2.121-1.176l-14.979-23.993h344.04l-14.98 23.993c-.459.736-1.252 1.175-2.12 1.175h-204.92c-4.142 0-7.5 3.358-7.5 7.5s3.358 7.5 7.5 7.5h204.92c6.078 0 11.628-3.078 14.845-8.232l19.939-31.936h41.262c13.804 0 25.034-11.23 25.034-25.035 0-12.837-9.716-23.444-22.179-24.866zm-226.321-232.774h63.639v38.135h-63.639zm211.884 226.292c0 2.19-.32 4.304-.888 6.315h-27.907c-1.457-8.568-5.762-16.178-11.912-21.812 4.274-4.79 10.479-7.821 17.389-7.821 12.857 0 23.318 10.46 23.318 23.318zm-50.193-27.275c-1.696-1.239-3.458-2.462-5.311-3.662-2.904-6.607-6.29-12.982-10.086-19.122 4.279-5.085 10.678-8.329 17.829-8.329 11.771 0 21.528 8.77 23.093 20.118-9.925.347-18.904 4.468-25.525 10.995zm6.034 33.59h-44.814c2.802-9.735 11.783-16.881 22.407-16.881s19.606 7.145 22.407 16.881zm-23.105-104.904c11.005-11.005 26.939-15.363 41.481-11.593 3.493 13.468-.001 28.129-9.281 38.965-3.976-1.401-8.247-2.17-12.697-2.17-1.517 0-3.011.099-4.482.272l7.113-7.113c2.929-2.929 2.929-7.678 0-10.606-2.93-2.929-7.678-2.929-10.607 0l-22.791 22.791c-.519-.625-1.047-1.244-1.577-1.862.573-10.537 5.016-20.858 12.841-28.684zm-152.12-18.246c33.484 0 65.6 9.158 92.874 26.482 7.309 4.643 14.109 9.792 20.393 15.363l-5.189 5.189c-2.846 2.847-7.353 3.302-10.71 1.087-11.111-7.331-26.006-5.816-35.417 3.595l-3.588 3.588c-5.634 5.633-14.327 6.688-21.146 2.57l-17.657-10.668c-12.667-7.653-28.18-8.365-41.497-1.903l-33.359 16.189c-11.033 5.355-23.871 4.739-34.341-1.645l-25.962-15.83c29.922-27.603 71.428-44.017 115.599-44.017zm-211.97 21.999c1.181-6.18 8.367-11.162 18.307-12.691 2.648-.408 4.877-2.197 5.849-4.694s.537-5.322-1.14-7.412c-.891-1.11-1.68-2.174-2.414-3.256-4.894-7.206-7.739-15.458-7.807-22.638-.034-3.566.621-10.031 5.379-13.262 1.985-1.348 4.229-1.824 6.411-1.824 3.049 0 5.975.931 7.9 1.715 6.65 2.711 13.27 8.399 18.164 15.606.736 1.083 1.435 2.209 2.135 3.442 1.324 2.33 3.79 3.777 6.469 3.795h.052c2.66 0 5.123-1.409 6.469-3.706 5.087-8.674 12.367-13.518 18.548-12.335 8.915 1.704 14.671 15.427 12.833 30.591-.311 2.56.716 5.1 2.718 6.726 2.001 1.625 4.697 2.109 7.141 1.278 6.317-2.147 11.973-1.705 15.513 1.213.637.525 1.175 1.11 1.647 1.729-2.859 1.495-5.69 3.042-8.465 4.688-12.559 7.449-23.933 16.263-33.93 26.195l-3.047-4.487c.225-.51.402-1.049.511-1.619l5.173-27.063c.778-4.068-1.89-7.997-5.958-8.775-4.072-.779-7.997 1.89-8.775 5.958l-2.711 14.181-16.072-23.668c-2.327-3.427-6.991-4.318-10.418-1.991s-4.318 6.991-1.991 10.418l10.906 16.06-10.251-1.959c-4.068-.778-7.997 1.89-8.775 5.958-.777 4.069 1.89 7.997 5.958 8.775l24.444 4.672c.174.033.348.053.522.074l10.068 14.826c-7.597 9.107-14.14 18.962-19.488 29.434-1.766-2.375-3.713-4.642-5.843-6.773-5.629-5.629-12.193-10.006-19.254-13.041.215-.271.435-.54.666-.809 1.681-1.96 2.235-4.648 1.467-7.113-.769-2.466-2.751-4.363-5.248-5.021-14.75-3.889-25.364-14.295-23.663-23.197zm59.788 71.103c12.857 0 23.318 10.46 23.318 23.318 0 2.342-.366 4.596-1.013 6.729h-44.61c-.646-2.133-1.013-4.387-1.013-6.729 0-12.857 10.46-23.318 23.318-23.318zm-68.394-23.506c15.417-4.078 32.353.514 44.03 12.191.968.969 1.868 1.986 2.736 3.024-4.104 2.817-7.632 6.412-10.374 10.57l-4.956-4.956c-2.929-2.929-7.678-2.929-10.606 0-2.929 2.929-2.929 7.678 0 10.606l9.674 9.674c-.28 1.865-.428 3.772-.428 5.713 0 2.297.215 4.544.606 6.729h-4.688c-5.046-2.275-9.744-5.464-13.803-9.523-11.677-11.675-16.269-28.611-12.191-44.028zm451.542 88.622h-461.932c-5.533 0-10.034-4.501-10.034-10.035 0-5.533 4.501-10.034 10.034-10.034h284.966c4.143 0 7.5-3.358 7.5-7.5s-3.357-7.5-7.5-7.5h-168.471c.392-2.186.606-4.432.606-6.729 0-18.193-12.749-33.455-29.78-37.347 4.912-8.597 10.704-16.646 17.263-24.062l28.934 17.642c8.139 4.963 17.284 7.467 26.466 7.467 7.568 0 15.164-1.703 22.233-5.134l33.359-16.189c8.727-4.235 18.892-3.768 27.192 1.247l17.657 10.668c12.738 7.695 28.983 5.721 39.509-4.803l3.588-3.588c4.398-4.398 11.36-5.104 16.551-1.68 9.278 6.121 21.718 4.857 29.575-3.002l5.311-5.311c10.795 11.659 19.538 24.797 25.885 39.063-17.607 1.343-31.916 14.631-34.828 31.757h-25.05c-4.143 0-7.5 3.358-7.5 7.5s3.357 7.5 7.5 7.5h140.966c5.533 0 10.034 4.501 10.034 10.034 0 5.535-4.501 10.036-10.034 10.036z"/><path d="m364 248.5c4.143 0 7.5-3.358 7.5-7.5v-23c0-6.341 5.159-11.5 11.5-11.5h13c14.612 0 26.5-11.888 26.5-26.5s-11.888-26.5-26.5-26.5h-15c-4.143 0-7.5 3.358-7.5 7.5s3.357 7.5 7.5 7.5h15c6.341 0 11.5 5.159 11.5 11.5s-5.159 11.5-11.5 11.5h-13c-14.612 0-26.5 11.888-26.5 26.5v23c0 4.142 3.357 7.5 7.5 7.5z"/></g></g></svg>