<svg id="Capa_1" enable-background="new 0 0 512 512" height="512" viewBox="0 0 512 512" width="512" xmlns="http://www.w3.org/2000/svg"><g><path d="m287 317.112c1.657.601 3.291 1.25 4.902 1.942 9.255-5.124 19.49-8.695 30.356-10.351 1.123-2.969 1.743-6.186 1.743-9.549 0-14.912-12.088-27-27-27-3.534 0-6.906.686-10 1.921v43.037z" fill="#fd4755"/><path d="m194.807 334.96c7.932-7.101 17.112-12.835 27.168-16.84.011-.322.024-.643.024-.967 0-14.912-12.088-27-27-27s-27 12.088-27 27c0 .376.013.749.028 1.121 9.906 3.998 18.95 9.677 26.78 16.686z" fill="#fd4755"/><path d="m186.409 328.282c-1.539-3.395-2.409-7.158-2.409-11.128 0-12.126 7.994-22.385 19-25.794-2.528-.783-5.215-1.206-8-1.206-14.912 0-27 12.088-27 27 0 .376.013.749.028 1.121 6.536 2.637 12.697 6.005 18.381 10.007z" fill="#fb2b3a"/><path d="m223.667 143.154c-6.996 0-12.667-5.671-12.667-12.667v107c0 6.996 5.671 12.667 12.667 12.667 6.996 0 12.667-5.671 12.667-12.667v-107c-.001 6.996-5.672 12.667-12.667 12.667z" fill="#fef0ae"/><path d="m255.807 311.654c1.971 0 3.92.085 5.86.208v-171.375c0 6.996-5.671 12.667-12.667 12.667s-12.667-5.671-12.667-12.667v173.255c6.277-1.361 12.79-2.088 19.474-2.088z" fill="#fed402"/><path d="m287 317.133v-186.646c0 6.996-5.671 12.667-12.667 12.667-6.996 0-12.667-5.671-12.667-12.667v181.374c8.847.56 17.348 2.374 25.334 5.272z" fill="#fef0ae"/><g><path d="m490.105 87.654h-142.969c-4.881 0-9.439-2.389-12.26-6.372-4.555-6.43-12.051-10.628-20.531-10.628h-27.543c.121.705.198 1.426.198 2.166v57.667c0 .74-.077 1.461-.198 2.167h27.543c8.48 0 15.976-4.198 20.531-10.628 2.822-3.983 7.379-6.372 12.26-6.372h143.364c7.956 0 14.363-6.637 13.984-14.677-.354-7.53-6.841-13.323-14.379-13.323z" fill="#acc7e4"/></g><g><path d="m223.667 143.154c-6.996 0-12.667-5.671-12.667-12.667v-57.667c0-6.996 5.671-12.667 12.667-12.667 6.996 0 12.667 5.671 12.667 12.667v57.667c-.001 6.996-5.672 12.667-12.667 12.667z" fill="#fed402"/></g><g><path d="m249 153.154c-6.996 0-12.667-5.671-12.667-12.667v-77.667c0-6.996 5.671-12.667 12.667-12.667 6.996 0 12.667 5.671 12.667 12.667v77.667c0 6.996-5.671 12.667-12.667 12.667z" fill="#fef0ae"/></g><g><path d="m274.333 143.154c-6.996 0-12.667-5.671-12.667-12.667v-57.667c0-6.996 5.671-12.667 12.667-12.667 6.996 0 12.667 5.671 12.667 12.667v57.667c0 6.996-5.671 12.667-12.667 12.667z" fill="#fed402"/></g><g><path d="m84.704 325.945c-.001 0-.001.001-.002.001-4.982-5.776-8.939-12.603-11.492-20.293-1.487-4.478-2.41-9.007-2.821-13.511-14.184-1.909-28.408 1.372-40.184 8.835-1.74 1.103-2.617 3.192-2.186 5.206 3.786 17.697 15.498 33.397 32.892 41.682 6.562-8.638 14.62-16.073 23.793-21.92z" fill="#017b4e"/></g><g><g><path d="m84.702 325.947c13.281-8.465 28.887-13.603 45.651-14.226.688-7.907-.183-16.08-2.842-24.092-6.436-19.389-21.802-33.298-40.01-38.688-1.975-.585-4.126.129-5.359 1.779-11.37 15.209-15.367 35.546-8.931 54.935 2.552 7.689 6.509 14.516 11.491 20.292z" fill="#80d261"/></g><g><path d="m84.702 325.947c5.019-3.199 10.37-5.924 15.991-8.107-2.275-3.764-4.175-7.834-5.619-12.185-5.862-17.658-3.066-36.101 6.068-50.743-4.28-2.537-8.859-4.555-13.642-5.971-1.975-.585-4.126.129-5.359 1.779-11.37 15.209-15.367 35.546-8.931 54.935 2.553 7.689 6.51 14.516 11.492 20.292z" fill="#68ca44"/></g></g><g><g><g><path d="m346.383 390.154h44.913c-.194-1.305-.297-2.641-.297-4 0-14.912 12.088-27 27-27 .158 0 .314.009.472.012-14.841-30.495-46.124-51.512-82.318-51.512-16.053 0-31.137 4.139-44.252 11.4 28.771 12.364 49.924 39.058 54.482 71.1z" fill="#fac600"/><path d="m346.383 390.154h44.913c-.194-1.305-.297-2.641-.297-4 0-5.893 1.893-11.34 5.097-15.779-10.749-22.297-33.579-37.721-59.944-37.721-6.55 0-12.875.967-18.858 2.74 15.407 13.988 26.017 33.16 29.089 54.76z" fill="#fef0ae"/></g><path d="m346.383 390.154h30.276c-4.124-18.569-20.713-32.5-40.506-32.5-.312 0-.62.017-.931.024 5.638 9.824 9.5 20.795 11.161 32.476z" fill="#fac600"/></g><g><path d="m57 359.154c8.054 0 15.28 3.531 20.227 9.125 11.726-18.959 32.695-31.625 56.579-31.625 17.236 0 32.96 6.594 44.786 17.388 4.515-7.084 9.981-13.502 16.214-19.082-16.189-14.491-37.563-23.307-61-23.307-34.683 0-64.858 19.298-80.376 47.742 1.169-.154 2.359-.241 3.57-.241z" fill="#fef0ae"/></g><g><path d="m84 386.154c0 1.359-.103 2.695-.297 4h262.68c-6.313-44.376-44.456-78.5-90.577-78.5-32.46 0-60.971 16.904-77.214 42.388-11.827-10.795-27.55-17.388-44.786-17.388-23.884 0-44.853 12.665-56.579 31.625 4.212 4.762 6.773 11.018 6.773 17.875z" fill="#fedf74"/><path d="m83.703 390.154c.194-1.305.297-2.641.297-4 0-14.912-12.088-27-27-27s-27 12.088-27 27c0 1.359.103 2.695.297 4z" fill="#fd4755"/><path d="m46.309 390.154c-.194-1.307-.309-2.639-.309-4 0-12.126 7.994-22.385 19-25.794-2.528-.783-5.215-1.206-8-1.206-14.912 0-27 12.088-27 27 0 1.359.103 2.695.297 4z" fill="#fb2b3a"/><path d="m444.703 390.154c.194-1.305.297-2.641.297-4 0-14.912-12.088-27-27-27s-27 12.088-27 27c0 1.359.103 2.695.297 4z" fill="#fd4755"/><path d="m411.301 390.154c-.194-1.306-.301-2.64-.301-4 0-11.377 7.041-21.104 17-25.079-3.094-1.235-6.466-1.921-10-1.921-14.912 0-27 12.088-27 27 0 1.359.103 2.695.297 4z" fill="#e41f2d"/><path d="m173.21 390.154c-5.469-16.533-21.06-28.5-39.403-28.5s-33.934 11.967-39.403 28.5z" fill="#fef0ae"/><path d="m321.022 390.154c-6.063-30.465-32.996-53.5-65.216-53.5s-59.153 23.035-65.216 53.5z" fill="#fef0ae"/><path d="m295.21 390.154c-5.469-16.533-21.06-28.5-39.403-28.5s-33.934 11.967-39.403 28.5z" fill="#fac600"/></g></g><g><path d="m50.629 421.585 22.2 35.558c1.827 2.926 5.033 4.704 8.483 4.704h311.991c3.45 0 6.656-1.778 8.482-4.704l22.2-35.558z" fill="#d8ecfe"/><path d="m118.522 457.142-21.576-34.558h-45.693l21.576 34.558c1.827 2.926 5.033 4.704 8.483 4.704h45.693c-3.45 0-6.656-1.777-8.483-4.704z" fill="#c4e2ff"/><g><path d="m450.898 422.584h-427.183c-8.955 0-16.215-7.26-16.215-16.215 0-8.955 7.26-16.215 16.215-16.215h427.183c8.956 0 16.215 7.26 16.215 16.215.001 8.956-7.259 16.215-16.215 16.215z" fill="#eaf6ff"/></g><g><path d="m63.386 406.369c0-8.956 7.26-16.215 16.215-16.215h-55.886c-8.956 0-16.215 7.26-16.215 16.215s7.26 16.215 16.215 16.215h55.886c-8.955 0-16.215-7.259-16.215-16.215z" fill="#d8ecfe"/></g></g><path d="m490.104 80.154h-142.967c-2.422 0-4.718-1.199-6.141-3.207-6.117-8.637-16.081-13.793-26.651-13.793h-22.32c-3.429-6.251-10.073-10.5-17.692-10.5-2.546 0-4.974.494-7.219 1.359-3.278-6.712-10.154-11.359-18.114-11.359-7.959 0-14.836 4.647-18.113 11.359-2.245-.865-4.674-1.359-7.22-1.359-11.12 0-20.167 9.047-20.167 20.167v92.179c0 4.142 3.358 7.5 7.5 7.5s7.5-3.358 7.5-7.5v-15.042c1.652.439 3.378.696 5.167.696s3.515-.257 5.167-.696v87.529c0 2.849-2.318 5.167-5.167 5.167s-5.167-2.318-5.167-5.167v-36.487c0-4.142-3.358-7.5-7.5-7.5s-7.5 3.358-7.5 7.5v36.487c0 11.12 9.047 20.167 20.167 20.167 1.789 0 3.515-.257 5.167-.696v50.912c-.19.054-.381.106-.571.161-4.011-14.608-17.398-25.376-33.262-25.376-15.911 0-29.327 10.831-33.295 25.504-7.553-2.222-15.479-3.562-23.658-3.909-.229-6.353-1.345-12.737-3.419-18.982-6.96-20.968-23.782-37.236-44.998-43.517-4.968-1.474-10.392.327-13.497 4.479-8.326 11.138-12.899 24.398-13.423 37.919-12.748-.054-25.447 3.477-36.521 10.495-4.378 2.774-6.59 8.043-5.505 13.11 3.787 17.704 14.472 32.983 29.387 42.641-.475.751-.93 1.515-1.385 2.28-13.93 3.46-24.545 15.402-26.013 30.008-12.595.544-22.674 10.959-22.674 23.686 0 13.077 10.639 23.715 23.715 23.715h23.379l19.373 31.029c3.218 5.155 8.768 8.232 14.845 8.232h311.99c6.077 0 11.627-3.077 14.846-8.232l19.372-31.029h23.379c13.076 0 23.715-10.639 23.715-23.715 0-12.597-9.873-22.927-22.286-23.668-1.566-15.688-13.685-28.314-29.135-30.656-16.779-30.877-49.495-51.891-87.038-51.891-1.573 0-3.134.05-4.689.123.012-.374.036-.746.036-1.123 0-19.023-15.477-34.5-34.5-34.5-.841 0-1.674.034-2.5.093v-124.593h19.845c10.57 0 20.533-5.156 26.65-13.792 1.424-2.009 3.72-3.208 6.142-3.208h76.861c4.143 0 7.5-3.358 7.5-7.5s-3.357-7.5-7.5-7.5h-76.863c-7.278 0-14.149 3.564-18.381 9.537-3.311 4.673-8.697 7.463-14.411 7.463h-19.845v-47h19.845c5.714 0 11.101 2.79 14.411 7.464 4.231 5.971 11.103 9.536 18.381 9.536h142.968c3.638 0 6.728 2.771 6.888 6.175.085 1.804-.55 3.512-1.788 4.81-1.239 1.299-2.91 2.015-4.704 2.015h-30.501c-4.143 0-7.5 3.358-7.5 7.5s3.357 7.5 7.5 7.5h30.5c5.849 0 11.519-2.427 15.557-6.66 4.097-4.293 6.198-9.929 5.919-15.869-.54-11.479-10.148-20.471-21.872-20.471zm-220.937-7.334c0-2.849 2.317-5.167 5.166-5.167s5.167 2.318 5.167 5.167v57.667c0 2.849-2.318 5.167-5.167 5.167s-5.166-2.318-5.166-5.167zm0 77.138c1.652.439 3.378.696 5.166.696 1.789 0 3.515-.257 5.167-.696v157.079c-3.381-.834-6.826-1.499-10.333-1.974zm-25.334-19.471v-57.667-10c0-2.849 2.318-5.167 5.167-5.167s5.167 2.318 5.167 5.167v10 57.667 10c0 2.849-2.318 5.167-5.167 5.167s-5.167-2.318-5.167-5.167zm0 107v-77.529c1.652.439 3.378.696 5.167.696s3.515-.257 5.167-.696v144.22c-3.479.057-6.927.287-10.333.696v-67.387zm-20.166-101.833c-2.849 0-5.167-2.318-5.167-5.167v-57.667c0-2.849 2.318-5.167 5.167-5.167s5.167 2.318 5.167 5.167v57.667c-.001 2.849-2.318 5.167-5.167 5.167zm32.14 183.5c39.246 0 72.271 27.061 81.445 63.5h-10.374c-8.913-30.858-37.382-53.5-71.071-53.5s-62.158 22.642-71.071 53.5h-6.44c-7.773-16.808-24.787-28.5-44.489-28.5-18.485 0-34.598 10.297-42.938 25.451-.799-4.14-2.337-8.019-4.476-11.492 10.755-14.521 27.997-23.959 47.414-23.959 14.721 0 28.831 5.479 39.73 15.428 1.636 1.493 3.85 2.187 6.042 1.896 2.195-.291 4.149-1.537 5.339-3.404 15.533-24.371 42.034-38.92 70.889-38.92zm83.632 31.121c-2.206-3.477-4.621-6.806-7.23-9.973 1.305-.088 2.617-.148 3.945-.148 21.978 0 41.169 12.088 51.317 29.958-2.014 3.817-3.339 8.052-3.794 12.542h-1.408c-6.435-17.937-23.036-31.06-42.83-32.379zm26.421 32.379h-13.216c-1.115-5.27-2.644-10.387-4.563-15.313 7.578 2.85 13.878 8.318 17.779 15.313zm-110.053-28.5c-19.702 0-36.716 11.692-44.489 28.5h-10.829c8.348-22.456 29.991-38.5 55.318-38.5s46.97 16.044 55.318 38.5h-10.829c-7.773-16.808-24.787-28.5-44.489-28.5zm27.081 28.5h-54.162c6.214-8.189 16.032-13.5 27.081-13.5s20.866 5.311 27.081 13.5zm-122.001 0h-54.161c6.214-8.189 16.032-13.5 27.081-13.5s20.866 5.311 27.08 13.5zm34.113-85c9.434 0 17.321 6.735 19.114 15.648-6.888 3.192-13.389 7.178-19.381 11.884-5.811-4.551-12.14-8.468-18.884-11.646 1.701-9.03 9.635-15.886 19.151-15.886zm-107.907-40.98c15.701 5.237 28.074 17.576 33.3 33.318 1.611 4.854 2.471 9.814 2.646 14.75-3.887.422-7.707 1.069-11.446 1.929l-3.951-11.901c-1.305-3.931-5.55-6.061-9.481-4.755-3.931 1.305-6.06 5.55-4.755 9.481l3.869 11.656c-3.657 1.457-7.204 3.129-10.633 4.995-2.635-3.917-4.776-8.222-6.314-12.855-5.225-15.743-2.686-33.032 6.765-46.618zm46.714 62.48c18.59 0 35.777 6.084 49.704 16.35-2.262 2.425-4.421 4.967-6.452 7.637-12.55-9.07-27.625-13.987-43.252-13.987-23.479 0-44.424 11-57.983 28.11-2.85-1.863-5.989-3.314-9.336-4.273 15.327-20.522 39.793-33.837 67.319-33.837zm-98.046-12.782c8.593-5.042 18.329-7.462 28.054-7.203.557 2.977 1.31 5.933 2.277 8.848 1.944 5.857 4.637 11.307 7.944 16.277-5.457 4.147-10.468 8.849-14.958 14.017-11.542-7.164-19.977-18.58-23.317-31.939zm21.239 60.282c9.556 0 17.512 6.915 19.168 16h-38.336c1.656-9.085 9.612-16 19.168-16zm393.898 31c4.806 0 8.715 3.91 8.715 8.715s-3.909 8.715-8.715 8.715h-85.898c-4.143 0-7.5 3.358-7.5 7.5s3.357 7.5 7.5 7.5h44.836l-14.412 23.085c-.46.736-1.254 1.176-2.122 1.176h-311.99c-.868 0-1.661-.439-2.121-1.176l-14.413-23.085h264.222c4.143 0 7.5-3.358 7.5-7.5s-3.357-7.5-7.5-7.5h-305.285c-4.806 0-8.715-3.91-8.715-8.715s3.91-8.715 8.715-8.715zm-13.73-15h-38.336c1.656-9.085 9.613-16 19.168-16s17.512 6.915 19.168 16zm-101.015-67.5c29.524 0 55.517 15.326 70.498 38.427-3.203 1.119-6.191 2.697-8.887 4.656-13.272-19.924-35.929-33.083-61.612-33.083-5.857 0-11.552.697-17.018 1.991-3.226-2.693-6.625-5.181-10.178-7.452 8.534-2.935 17.68-4.539 27.197-4.539zm-39.153-35.5c10.752 0 19.5 8.748 19.5 19.5 0 1.03-.087 2.039-.243 3.025-7.603 1.558-14.894 3.982-21.757 7.179v-29.536c.819-.107 1.652-.168 2.5-.168z"/></g></svg>