<svg id="Capa_1" enable-background="new 0 0 512 512" height="512" viewBox="0 0 512 512" width="512" xmlns="http://www.w3.org/2000/svg"><g><g><path d="m70.661 349.008c46.439 54.29 113.992 85.427 185.339 85.427s138.9-31.137 185.339-85.427c3.407-3.983 7.625-7.075 12.304-9.139l-188.996-327.351c-3.843-6.656-13.451-6.656-17.294 0l-188.996 327.351c4.679 2.064 8.897 5.156 12.304 9.139z" fill="#fed2a4"/></g><g><path d="m264.647 12.518c-3.843-6.656-13.451-6.656-17.294 0l-169.815 294.13c42.488 56.041 106.658 91.743 178.462 91.743s135.974-35.702 178.462-91.743z" fill="#fed402"/></g><path d="m264.647 12.518c-3.843-6.656-13.45-6.656-17.294 0l-169.815 294.13c9.042 11.926 19.089 22.901 29.962 32.832l173.426-298.765z" fill="#fac600"/><g><path d="m390.543 230.578c-8.538 1.803-16.67 6.013-23.301 12.644-16.559 16.559-18.063 42.471-4.512 60.729 2.187 2.948 6.503 3.236 9.099.64l11.996-11.996c2.356-2.356 6.176-2.356 8.532 0l7.768 7.767c2.356 2.356 6.176 2.356 8.532 0l14.06-14.06z" fill="#d88a55"/></g><g><g><path d="m385.66 247.644c3.124-3.124 6.59-5.691 10.267-7.742l-5.383-9.324c-8.538 1.803-16.67 6.013-23.301 12.644-16.559 16.559-18.063 42.471-4.512 60.729 2.187 2.948 6.503 3.236 9.099.64l4.451-4.451c-7.938-17.23-4.818-38.299 9.379-52.496z" fill="#c57a44"/></g></g><g><path d="m218.877 61.84-16.237 28.124c13.255 8.567 22.036 23.463 22.036 40.42 0 26.568-21.537 48.105-48.105 48.105-7.919 0-15.384-1.926-21.972-5.316l-16.242 28.131c11.371 6.14 24.384 9.629 38.214 9.629 44.486 0 80.55-36.063 80.55-80.55 0-28.965-15.296-54.349-38.244-68.543z" fill="#017b4e"/></g><g><path d="m126.969 286.941c0-13.707-8.655-25.39-20.797-29.889l-28.634 49.596c2.834 3.738 5.771 7.378 8.794 10.93 2.787.797 5.728 1.229 8.771 1.229 17.599 0 31.866-14.267 31.866-31.866z" fill="#fb2b3a"/></g><g><path d="m308.6 88.647c-12.362 4.382-21.219 16.173-21.219 30.038 0 17.6 14.267 31.867 31.867 31.867 7.897 0 15.117-2.879 20.685-7.636z" fill="#fb2b3a"/></g><g><path d="m303.448 118.685c0-8.847 3.617-16.839 9.439-22.611l-4.288-7.427c-12.362 4.383-21.219 16.173-21.219 30.038 0 17.599 14.267 31.867 31.867 31.867 2.771 0 5.457-.362 8.019-1.027-13.702-3.567-23.818-16.022-23.818-30.84z" fill="#e41f2d"/></g><g><g><path d="m256 504.5c-91.853 0-178.814-40.074-238.584-109.947-12.756-14.913-11.008-37.343 3.904-50.1 14.914-12.754 37.343-11.007 50.1 3.904 46.249 54.068 113.525 85.077 184.58 85.077s138.33-31.009 184.58-85.077c12.757-14.913 35.188-16.659 50.1-3.904 14.913 12.757 16.66 35.187 3.904 50.1-59.77 69.873-146.731 109.947-238.584 109.947z" fill="#ea9b58"/></g></g><g><g><path d="m59.301 407.63c-12.756-14.913-11.008-37.343 3.904-50.1 3.274-2.8 6.91-4.9 10.727-6.316-.839-.951-1.686-1.892-2.512-2.857-12.757-14.911-35.186-16.659-50.1-3.904-14.913 12.757-16.66 35.187-3.904 50.1 43.748 51.143 102.064 86.318 166.202 101.503-47.502-18.57-90.311-48.672-124.317-88.426z" fill="#d88a55"/></g></g><g><path d="m231.048 299.6c2.232 2.232 5.942 1.984 7.823-.551 11.651-15.698 10.357-37.978-3.88-52.215s-36.516-15.53-52.215-3.88c-2.534 1.881-2.782 5.592-.551 7.823l10.314 10.314c2.026 2.026 2.026 5.31 0 7.336l-6.679 6.679c-2.026 2.026-2.026 5.31 0 7.336l13.523 13.523c2.026 2.026 5.31 2.026 7.336 0l6.679-6.679c2.026-2.026 5.31-2.026 7.336 0z" fill="#d88a55"/></g><g><g><path d="m207.16 282.442c-2.026-2.026-2.026-5.31 0-7.336l6.678-6.679c2.026-2.026 2.026-5.31 0-7.336l-10.314-10.314c-2.231-2.232-1.984-5.942.551-7.823 4.048-3.004 8.535-5.141 13.207-6.423-11.635-3.192-24.426-1.057-34.505 6.423-2.534 1.881-2.782 5.592-.551 7.823l10.314 10.314c2.026 2.026 2.026 5.31 0 7.336l-6.679 6.679c-2.026 2.026-2.026 5.31 0 7.336l13.523 13.523c2.026 2.026 5.31 2.026 7.336 0l6.678-6.678c.104-.104.223-.179.333-.272z" fill="#c57a44"/></g></g><g><path d="m294.495 324.863c12.113 12.113 27.786 18.482 43.651 19.133 2.669.109 4.972-1.854 5.232-4.513l1.598-16.363c.28-2.87-1.918-5.43-4.801-5.48-9.792-.168-19.532-3.981-27.005-11.453-7.854-7.854-11.666-18.212-11.451-28.503.063-3.015-2.477-5.425-5.478-5.132l-16.422 1.604c-2.546.249-4.537 2.378-4.514 4.936.148 16.582 6.537 33.118 19.19 45.771z" fill="#017b4e"/></g><g><circle cx="307.836" cy="211.765" fill="#fb2b3a" r="31.867"/></g><g><path d="m297.266 211.765c0-13.864 8.856-25.655 21.218-30.038-3.331-1.181-6.913-1.829-10.648-1.829-17.6 0-31.867 14.267-31.867 31.867 0 17.599 14.267 31.867 31.867 31.867 3.735 0 7.318-.648 10.648-1.829-12.361-4.383-21.218-16.174-21.218-30.038z" fill="#e41f2d"/></g><g><path d="m253.772 330.438c-.682-2.547-3.223-4.114-5.812-3.616-5.897 1.134-11.53 3.981-16.096 8.547s-7.414 10.199-8.548 16.096c-.498 2.589 1.069 5.129 3.616 5.812l28.298 7.582c3.718.996 7.12-2.406 6.124-6.124z" fill="#fe9901"/></g><g><path d="m155.716 347.425c.66 2.462 3.075 4.087 5.587 3.65 6.574-1.144 12.873-4.251 17.95-9.328s8.184-11.376 9.328-17.95c.437-2.512-1.188-4.927-3.65-5.587l-31.542-8.452c-3.718-.996-7.12 2.406-6.124 6.124z" fill="#fe9901"/></g><g><path d="m495.554 338.754c-11.148-9.535-25.803-12.356-39.014-8.867l-82.352-142.637c-2.072-3.587-6.66-4.815-10.245-2.745-3.587 2.071-4.816 6.658-2.745 10.245l18.18 31.488c-6.483 2.698-12.403 6.644-17.439 11.68-18.833 18.834-21.082 49.144-5.231 70.502 2.336 3.147 5.924 5.118 9.843 5.407.334.024.667.036.999.036 3.583 0 7.03-1.417 9.583-3.969l10.959-10.959 6.729 6.729c2.557 2.558 5.955 3.966 9.57 3.966s7.014-1.408 9.57-3.964l7.148-7.148 4.333 7.505c-42.683 53.993-104.162 84.868-169.442 84.868-57.029 0-111.153-23.568-152.385-65.521 17.627-3.902 30.853-19.646 30.853-38.43 0-13.418-6.922-25.79-17.863-32.961l24.761-42.887c11.049 4.813 23.081 7.341 35.205 7.341 25.061 0 49.011-10.73 65.709-29.439 2.758-3.091 2.488-7.831-.602-10.59-3.092-2.758-7.832-2.489-10.59.602-13.855 15.524-33.727 24.428-54.518 24.428-9.495 0-18.921-1.86-27.651-5.424l8.83-15.294c6.01 2.174 12.313 3.272 18.821 3.272 30.66 0 55.604-24.944 55.604-55.604 0-16.538-7.254-31.948-19.702-42.453l8.833-15.299c17.858 13.791 28.314 34.864 28.314 57.752 0 6.979-.981 13.882-2.918 20.515-1.161 3.976 1.121 8.14 5.098 9.301 3.976 1.162 8.141-1.122 9.301-5.098 2.336-7.998 3.52-16.314 3.52-24.718 0-28.28-13.246-54.251-35.763-70.831l25.013-43.323c.619-1.071 1.6-1.23 2.13-1.23s1.511.159 2.129 1.229l39.981 69.25c-11.167 7.122-18.23 19.584-18.23 33.205 0 21.707 17.66 39.367 39.367 39.367 6.37 0 12.602-1.562 18.181-4.472l5.872 10.17c2.071 3.588 6.66 4.815 10.245 2.745 3.587-2.071 4.816-6.658 2.745-10.245l-85.171-147.52c-3.155-5.465-8.807-8.729-15.119-8.729s-11.964 3.264-15.119 8.729l-185.421 321.159c-13.212-3.488-27.867-.667-39.014 8.866-18.031 15.424-20.153 42.643-4.729 60.674 61.197 71.541 150.235 112.572 244.283 112.572s183.086-41.031 244.283-112.572c15.424-18.032 13.302-45.25-4.729-60.674zm-91.163-44.733-6.732-6.731c-5.276-5.274-13.861-5.271-19.138.001l-10.771 10.772c-10.342-15.333-8.408-36.334 4.796-49.539 4.106-4.105 9.021-7.216 14.415-9.153l26.383 45.697zm-85.144-150.969c-13.437 0-24.367-10.931-24.367-24.367 0-8.209 4.142-15.739 10.74-20.199l24.304 42.096c-3.303 1.613-6.953 2.47-10.677 2.47zm-199.778 143.888c0 13.437-10.931 24.367-24.366 24.367-1.548 0-3.092-.148-4.609-.44-.245-.293-.486-.59-.729-.885-.954-1.154-1.898-2.309-2.817-3.463-.131-.164-.258-.333-.388-.498l22.533-39.028c6.378 4.498 10.376 11.922 10.376 19.947zm97.707-156.556c0 22.39-18.215 40.604-40.604 40.604-3.825 0-7.549-.534-11.146-1.567l39.377-68.202c7.851 7.576 12.373 18.017 12.373 29.165zm271.709 259.294c-58.344 68.205-143.227 107.322-232.885 107.322s-174.541-39.117-232.885-107.322c-10.047-11.746-8.665-29.478 3.081-39.524 11.745-10.047 29.476-8.665 39.525 3.079 47.675 55.736 117.029 87.702 190.278 87.702 42.092 0 83.8-10.71 120.616-30.972 3.629-1.997 4.951-6.558 2.954-10.187s-6.559-4.954-10.187-2.954c-34.606 19.045-73.814 29.112-113.384 29.112-68.859 0-134.059-30.053-178.88-82.453-2.405-2.81-5.096-5.233-7.994-7.264l9.409-16.297c45.365 54.763 109.438 85.97 177.465 85.97s132.1-31.208 177.465-85.97l9.409 16.297c-2.898 2.031-5.59 4.455-7.994 7.266-10.885 12.726-23.139 24.306-36.423 34.419-3.296 2.51-3.934 7.215-1.425 10.511 2.51 3.295 7.217 3.934 10.511 1.425 14.129-10.757 27.161-23.072 38.735-36.604 10.048-11.746 27.779-13.126 39.525-3.081 11.749 10.047 13.131 27.779 3.084 39.525z"/><path d="m212.023 301.269 5.043-5.044 8.678 8.679c2.394 2.393 5.625 3.721 8.984 3.721.311 0 .623-.011.937-.034 3.674-.271 7.038-2.118 9.229-5.07 13.938-18.779 11.96-45.429-4.599-61.988-16.562-16.56-43.208-18.538-61.988-4.599-2.952 2.19-4.8 5.555-5.07 9.229-.271 3.69 1.072 7.306 3.687 9.921l8.679 8.678-5.044 5.043c-2.396 2.396-3.716 5.582-3.716 8.971 0 3.39 1.32 6.575 3.716 8.972l13.523 13.523c2.396 2.396 5.582 3.716 8.972 3.716 3.387-.003 6.573-1.323 8.969-3.718zm-19.222-22.495 5.043-5.043c4.945-4.946 4.945-12.994 0-17.943l-8.342-8.341c12.663-7.821 29.494-6.002 40.186 4.691 10.693 10.692 12.513 27.522 4.691 40.186l-8.341-8.342c-2.397-2.396-5.583-3.716-8.972-3.716-3.39 0-6.576 1.32-8.972 3.716l-5.043 5.043z"/><path d="m338.36 351.501c6.423 0 11.854-4.866 12.482-11.29l1.598-16.363c.339-3.472-.798-6.957-3.119-9.562-2.296-2.575-5.583-4.086-9.019-4.146-8.248-.141-16-3.429-21.829-9.258-6.15-6.149-9.438-14.333-9.256-23.041.076-3.596-1.389-7.056-4.018-9.492-2.612-2.419-6.146-3.608-9.688-3.263l-16.424 1.604c-6.385.625-11.341 6.103-11.283 12.468.172 19.273 7.767 37.389 21.385 51.008 12.997 12.996 30.273 20.569 48.648 21.324.177.007.351.011.523.011zm-2.214-15.139c-13.734-1.107-26.568-7.022-36.349-16.804-10.262-10.261-16.219-23.736-16.924-38.166l11.368-1.11c.43 11.798 5.209 22.792 13.624 31.208 7.934 7.933 18.283 12.674 29.39 13.519z"/><path d="m307.836 172.398c-21.707 0-39.367 17.66-39.367 39.367s17.66 39.366 39.367 39.366 39.367-17.659 39.367-39.366-17.66-39.367-39.367-39.367zm0 63.734c-13.437 0-24.367-10.931-24.367-24.366 0-13.437 10.931-24.367 24.367-24.367s24.367 10.931 24.367 24.367c0 13.435-10.931 24.366-24.367 24.366z"/><path d="m224.991 364.521 28.298 7.583c1.096.294 2.201.438 3.292.438 3.256 0 6.389-1.279 8.782-3.673 3.195-3.195 4.405-7.709 3.235-12.074l-7.582-28.298c-1.69-6.305-8.046-10.274-14.473-9.04-7.592 1.46-14.502 5.129-19.983 10.609-5.481 5.481-9.149 12.392-10.609 19.985-1.234 6.428 2.737 12.784 9.04 14.47zm12.177-23.847c2.809-2.809 6.228-4.839 9.989-5.947l5.832 21.769-21.769-5.833c1.109-3.762 3.139-7.181 5.948-9.989z"/><path d="m148.472 349.364c1.475 5.507 6.543 9.278 12.051 9.278.684 0 1.374-.059 2.065-.179 8.358-1.453 15.955-5.4 21.969-11.413 6.012-6.013 9.959-13.609 11.412-21.966 1.09-6.259-2.906-12.461-9.097-14.118l-31.542-8.452c-4.365-1.17-8.879.04-12.074 3.235s-4.405 7.709-3.235 12.074zm32.206-24.528c-1.18 4.382-3.479 8.357-6.729 11.607-3.25 3.251-7.227 5.55-11.607 6.729l-6.712-25.049z"/><circle cx="262.5" cy="61.5" r="7.5"/><circle cx="295.5" cy="360.5" r="7.5"/><circle cx="248.5" cy="208.5" r="7.5"/><circle cx="145.5" cy="247.5" r="7.5"/></g></g></svg>