<svg id="Capa_1" enable-background="new 0 0 512 512" height="512" viewBox="0 0 512 512" width="512" xmlns="http://www.w3.org/2000/svg"><g><g><path d="m287.206 166.848c-.031-.607-.071-1.216-.13-1.828-1.859-19.283-17.775-34.55-37.119-35.603-8.874-.483-17.149 1.969-23.953 6.469-3.483 2.304-7.775 2.917-11.813 1.851-3.217-.849-6.595-1.303-10.079-1.303-18.689 0-34.336 12.98-38.446 30.415h121.54z" fill="#fed2a4"/><path d="m193.06 166.848c3.246-13.764 13.685-24.748 27.137-28.762-1.98.288-4.023.175-6.006-.349-3.217-.849-6.595-1.303-10.079-1.303-18.689 0-34.336 12.98-38.446 30.415h27.394z" fill="#ffbd86"/><path d="m474.076 166.848h-315.594c-4.636 0-7.725 4.818-5.767 9.021 6.354 13.638 16.122 25.358 28.195 34.084 5.383-2.488 11.374-3.883 17.693-3.883 7.537 0 14.609 1.979 20.733 5.441 3.229 1.825 7.151 1.825 10.38 0 6.125-3.461 13.196-5.441 20.733-5.441 9.614 0 18.475 3.214 25.574 8.623 6.693-3.893 12.823-8.647 18.239-14.112 3.634-3.666 8.525-5.81 13.687-5.81h166.588c7.798 0 14.103-6.393 13.959-14.223-.139-7.686-6.733-13.7-14.42-13.7z" fill="#acc7e4"/><path d="m180.911 209.952c5.383-2.488 11.374-3.883 17.693-3.883 5.506 0 10.758 1.066 15.579 2.984-11.511-8.622-20.83-20.011-26.968-33.186-1.958-4.202 1.131-9.021 5.767-9.021h-34.499c-4.636 0-7.725 4.818-5.767 9.021 6.354 13.639 16.122 25.359 28.195 34.085z" fill="#8fb0c5"/></g><g><g><path d="m103.607 211.137c5.641 5.641 9.775 12.204 12.394 19.173 5.249-5.579 11.993-9.732 19.598-11.811l.863-1.495c7.385-12.791-1.846-28.78-16.616-28.78-11.555 0-19.718 9.786-19.189 20.171 1.008.872 1.992 1.785 2.95 2.742z" fill="#017b4e"/><path d="m50.338 288.473h15.995c1.247-9.134 5.169-17.414 10.967-24.014-5.768-2.61-11.191-6.295-15.956-11.06-.404-.404-.796-.814-1.184-1.228-10.458-.644-20.369 7.545-20.369 19.173 0 7.798 4.458 14.049 10.547 17.129z" fill="#017b4e"/><g><path d="m100.39 250.263c3.15-.807 5.756-3.099 6.921-6.135 1.984-5.174 4.961-9.854 8.69-13.818-2.62-6.969-6.753-13.532-12.394-19.173-15.063-15.063-36.697-19.376-55.083-12.821-6.554 18.386-2.242 40.02 12.821 55.083 4.764 4.764 10.187 8.45 15.956 11.06 6.002-6.833 14.003-11.869 23.089-14.196z" fill="#80d261"/><path d="m92.048 253.302c-5.135-2.544-9.965-5.957-14.259-10.251-13.067-13.066-18.037-31.076-14.849-47.622-4.907.269-9.765 1.229-14.416 2.887-6.554 18.386-2.242 40.02 12.821 55.083 4.764 4.764 10.187 8.45 15.956 11.06 4.084-4.65 9.1-8.459 14.747-11.157z" fill="#68ca44"/></g><path d="m382.857 289.473c-2.174-19.051-16.01-34.553-34.192-39.209-3.15-.807-5.756-3.099-6.921-6.135-6.083-15.86-21.446-27.122-39.447-27.122-4.593 0-9.011.738-13.149 2.096-3.55 1.165-7.483.51-10.243-2.008-7.507-6.848-17.492-11.025-28.454-11.025-7.537 0-14.609 1.979-20.733 5.441-3.229 1.825-7.151 1.825-10.38 0-6.124-3.461-13.196-5.441-20.733-5.441-10.962 0-20.947 4.177-28.455 11.025-2.76 2.518-6.693 3.173-10.243 2.008-4.138-1.358-8.556-2.096-13.149-2.096-18.001 0-33.365 11.262-39.447 27.122-1.164 3.036-3.771 5.328-6.921 6.135-18.182 4.657-32.018 20.159-34.192 39.209z" fill="#fed2a4"/><path d="m96.602 288.473c4.6-17.886 18.69-31.959 36.585-36.543 3.487-.893 6.374-3.431 7.663-6.792 4.324-11.276 12.89-20.446 23.741-25.57-1.551.179-3.151.037-4.684-.466-4.138-1.358-8.556-2.096-13.149-2.096-18.001 0-33.365 11.262-39.447 27.122-1.164 3.036-3.771 5.328-6.921 6.135-17.862 4.575-31.519 19.62-34.056 38.209h30.268z" fill="#ffbd86"/><path d="m389.681 288.473h-356.415c-5.571 0-10.052 4.659-9.754 10.223 3.92 73.236 49.706 135.349 113.852 162.852v33.193c0 5.39 4.37 9.76 9.76 9.76h128.698c5.39 0 9.76-4.37 9.76-9.76v-33.193c64.146-27.503 109.932-89.615 113.852-162.852.299-5.564-4.181-10.223-9.753-10.223z" fill="#fe646f"/><path d="m389.681 288.473h-356.415c-5.571 0-10.052 4.659-9.754 10.223 3.92 73.236 49.706 135.349 113.852 162.852v33.193c0 5.39 4.37 9.76 9.76 9.76h128.698c5.39 0 9.76-4.37 9.76-9.76v-33.193c64.146-27.503 109.932-89.615 113.852-162.852.299-5.564-4.181-10.223-9.753-10.223z" fill="#fe646f"/><path d="m183.865 494.74v-33.193c-64.146-27.503-109.932-89.615-113.852-162.852-.298-5.563 4.182-10.223 9.754-10.223h-46.5c-5.571 0-10.052 4.659-9.754 10.223 3.92 73.236 49.706 135.349 113.852 162.852v33.193c0 5.39 4.37 9.76 9.76 9.76h46.5c-5.391 0-9.76-4.37-9.76-9.76z" fill="#fd4755"/></g></g><g><path d="m474.076 159.348h-180.296c-4.263-20.528-22.123-36.261-43.415-37.42-10.188-.556-20.042 2.108-28.498 7.702-1.633 1.078-3.73 1.391-5.763.854-3.9-1.029-7.936-1.551-11.992-1.551-20.081 0-37.249 12.66-43.971 30.414h-1.658c-4.759 0-9.128 2.397-11.688 6.414-2.555 4.008-2.883 8.971-.877 13.273 5.391 11.572 12.988 21.712 22.135 30.037-1.011.789-2.002 1.609-2.957 2.48-.677.617-1.772.778-2.85.425-4.994-1.64-10.206-2.471-15.489-2.471-.094 0-.188.005-.283.006.429-5.272-.736-10.626-3.517-15.443-4.824-8.354-13.464-13.343-23.111-13.343s-18.287 4.988-23.111 13.343c-.34.589-.64 1.192-.931 1.796-15.084-8.562-33.324-10.486-49.799-4.613-2.121.756-3.79 2.425-4.546 4.546-6.115 17.152-3.78 36.217 5.702 51.642-.512.254-1.026.504-1.527.794-8.354 4.824-13.343 13.464-13.343 23.111 0 3.376.628 6.621 1.783 9.628h-.809c-4.726 0-9.3 1.968-12.552 5.397-3.231 3.41-4.941 8.048-4.691 12.726 1.977 36.927 14.326 72.376 35.715 102.516 19.974 28.148 46.918 50.453 78.127 64.787v28.342c0 9.517 7.743 17.26 17.26 17.26h128.698c9.518 0 17.261-7.743 17.261-17.26v-28.342c31.209-14.333 58.153-36.639 78.127-64.787 21.388-30.14 33.737-65.589 35.714-102.515.25-4.679-1.46-9.316-4.691-12.727-3.252-3.43-7.826-5.397-12.552-5.397h-.853c-4.883-18.245-19.224-33.089-38.302-37.976-.809-.207-1.49-.803-1.778-1.554-7.326-19.103-25.993-31.938-46.45-31.938-2.388 0-4.76.179-7.106.517 1.501-1.337 2.971-2.721 4.4-4.162 2.294-2.315 5.263-3.59 8.36-3.59h166.587c5.807 0 11.245-2.282 15.314-6.426 4.068-4.143 6.25-9.624 6.145-15.434-.213-11.612-10.047-21.061-21.922-21.061zm-269.964-15.414c2.766 0 5.514.354 8.164 1.054 6.16 1.628 12.671.59 17.865-2.846 5.751-3.804 12.463-5.618 19.408-5.235 13.425.73 24.843 9.976 28.756 22.441h-101.537c5.623-9.229 15.769-15.414 27.344-15.414zm-94.387 57.635c2.112-3.659 5.896-5.844 10.121-5.844s8.009 2.185 10.121 5.844c1.933 3.348 2.076 7.285.47 10.734-4.229 1.485-8.233 3.528-11.902 6.06-2.624-4.51-5.832-8.736-9.625-12.529-.18-.18-.367-.352-.55-.53.242-1.286.681-2.549 1.365-3.735zm-55.212 2.737c15.335-4.05 32.176.52 43.791 12.136 3.739 3.739 6.74 8.023 8.961 12.623-2.567 3.336-4.729 7.019-6.394 10.992l-15.061-15.062c-2.93-2.928-7.678-2.928-10.607 0-2.929 2.93-2.929 7.678 0 10.607l11.815 11.815c-4.068 2.133-7.798 4.769-11.13 7.808-3.32-1.954-6.436-4.327-9.239-7.13-11.615-11.614-16.187-28.454-12.136-43.789zm-1.378 56.918c1.282-.74 2.653-1.205 4.048-1.427 2.823 2.68 5.86 5.062 9.07 7.121-2.65 4.343-4.692 9.07-6.026 14.054h-7.832c-3.201-2.177-5.104-5.703-5.104-9.628 0-4.224 2.185-8.008 5.844-10.12zm249.162-36.718c14.289 0 27.327 8.965 32.444 22.309 2.031 5.295 6.54 9.3 12.063 10.714 12.336 3.16 21.905 12.122 26.262 23.444h-41.067c-4.143 0-7.5 3.357-7.5 7.5s3.357 7.5 7.5 7.5h57.682c.857 0 1.411.449 1.665.717.296.313.641.844.6 1.605-1.824 34.088-13.225 66.813-32.969 94.636-19.046 26.841-44.938 47.947-74.95 61.116h-55.027c-4.143 0-7.5 3.357-7.5 7.5s3.357 7.5 7.5 7.5h49.084v25.693c0 1.246-1.015 2.26-2.261 2.26h-128.699c-1.246 0-2.26-1.014-2.26-2.26v-25.693h48.135c4.143 0 7.5-3.357 7.5-7.5s-3.357-7.5-7.5-7.5h-54.078c-30.013-13.169-55.904-34.275-74.951-61.116-19.744-27.823-31.145-60.548-32.969-94.637-.041-.761.304-1.292.6-1.604.254-.268.808-.717 1.665-.717h262.733c4.143 0 7.5-3.357 7.5-7.5s-3.357-7.5-7.5-7.5h-220.011c4.357-11.322 13.926-20.284 26.263-23.444h-.001c5.521-1.414 10.03-5.419 12.063-10.714 5.116-13.344 18.154-22.309 32.443-22.309 3.691 0 7.328.579 10.811 1.723 6.216 2.041 12.971.662 17.636-3.594 6.41-5.846 14.721-9.065 23.4-9.065 5.976 0 11.869 1.546 17.042 4.47 5.478 3.096 12.285 3.096 17.761 0 5.176-2.924 11.069-4.47 17.044-4.47 8.681 0 16.991 3.22 23.4 9.065 4.666 4.256 11.426 5.634 17.636 3.594 3.483-1.143 7.121-1.723 10.811-1.723zm176.853-39.171c-1.226 1.248-2.863 1.936-4.611 1.936h-166.587c-7.13 0-13.883 2.853-19.015 8.031-3.927 3.962-8.201 7.446-12.743 10.452-7.709-4.671-16.58-7.184-25.743-7.184-8.556 0-17.001 2.217-24.425 6.411-.938.532-2.06.53-2.998 0-7.422-4.194-15.867-6.411-24.424-6.411-5.677 0-11.239.972-16.486 2.815-9.02-7.206-16.541-16.367-21.813-27.036h313.771c3.754 0 6.86 2.843 6.924 6.337.032 1.751-.626 3.402-1.85 4.649z"/><path d="m198.581 54.364h67.671c5.09 0 9.23 4.141 9.23 9.229 0 5.09-4.141 9.23-9.23 9.23h-35.407c-13.36 0-24.229 10.869-24.229 24.229v9.465c0 4.143 3.357 7.5 7.5 7.5s7.5-3.357 7.5-7.5v-9.465c0-5.089 4.141-9.229 9.229-9.229h35.407c13.36 0 24.23-10.87 24.23-24.23s-10.87-24.229-24.23-24.229h-67.671c-6.717 0-12.182-5.465-12.182-12.182 0-6.718 5.465-12.183 12.182-12.183h30.403c4.143 0 7.5-3.357 7.5-7.5s-3.357-7.5-7.5-7.5h-30.403c-14.988.001-27.181 12.195-27.181 27.184s12.193 27.181 27.181 27.181z"/><path d="m264.868 15h31.873c4.143 0 7.5-3.357 7.5-7.5s-3.357-7.5-7.5-7.5h-31.873c-4.143 0-7.5 3.357-7.5 7.5s3.357 7.5 7.5 7.5z"/><path d="m195.314 253.172h-11.479c-4.143 0-7.5 3.357-7.5 7.5s3.357 7.5 7.5 7.5h11.479c4.143 0 7.5-3.357 7.5-7.5s-3.358-7.5-7.5-7.5z"/><path d="m250.379 233.852h-11.479c-4.143 0-7.5 3.357-7.5 7.5s3.357 7.5 7.5 7.5h11.479c4.143 0 7.5-3.357 7.5-7.5s-3.357-7.5-7.5-7.5z"/><path d="m135.642 248.179-8.117 8.117c-2.929 2.93-2.929 7.678 0 10.607 1.465 1.464 3.385 2.196 5.304 2.196s3.839-.732 5.304-2.196l8.117-8.117c2.929-2.93 2.929-7.678 0-10.607-2.93-2.928-7.678-2.928-10.608 0z"/><path d="m304.664 264.947c1.465 1.464 3.385 2.196 5.304 2.196s3.839-.732 5.304-2.196c2.929-2.93 2.929-7.678 0-10.607l-8.118-8.118c-2.93-2.928-7.678-2.928-10.607 0-2.929 2.93-2.929 7.678 0 10.607z"/></g></g></svg>