<svg id="Capa_1" enable-background="new 0 0 512 512" height="512" viewBox="0 0 512 512" width="512" xmlns="http://www.w3.org/2000/svg"><g><g><path d="m40 358.508v31.707c0 2.761 2.239 5 5 5h89c2.761 0 5-2.239 5-5v-31.707z" fill="#883f2e"/><path d="m80 390.215v-31.707h-40v31.707c0 2.761 2.239 5 5 5h40c-2.761 0-5-2.238-5-5z" fill="#6d3326"/><path d="m373 358.508v31.707c0 2.761 2.239 5 5 5h89c2.761 0 5-2.239 5-5v-31.707z" fill="#883f2e"/><path d="m413 390.215v-31.707h-40v31.707c0 2.761 2.239 5 5 5h40c-2.761 0-5-2.238-5-5z" fill="#6d3326"/></g><g><g><path d="m45.89 329.992h109.923c-19.907-15.146-27.956-43.88-13.828-68.351l59.054-102.284-9.388-16.261c-20.255-35.083-70.892-35.083-91.147 0l-68.443 118.545c-14.128 24.471-6.079 53.204 13.829 68.351z" fill="#fff"/><path d="m45.889 329.992h33.067c-19.906-15.147-27.956-43.88-13.827-68.351l68.442-118.545c6.929-12.001 17.412-19.891 29.018-23.678-22.316-7.271-48.766.609-62.085 23.678l-68.443 118.545c-14.128 24.471-6.079 53.204 13.828 68.351z" fill="#eaf6ff"/><path d="m155.813 329.992c-19.907-15.146-27.956-43.88-13.828-68.351l16.738-28.99h-54.123c-2.886 0-5.226 2.34-5.226 5.226v92.115z" fill="#017b4e"/></g><g><path d="m370.015 261.641c14.128 24.471 6.079 53.204-13.828 68.351h109.923c19.907-15.146 27.957-43.88 13.828-68.351l-68.442-118.545c-20.255-35.083-70.892-35.083-91.147 0l-9.388 16.261z" fill="#fff"/><path d="m328.928 190.476 27.354-47.379c6.645-11.51 16.568-19.217 27.607-23.175-22.61-8.106-49.93-.398-63.54 23.175l-9.388 16.26z" fill="#eaf6ff"/><path d="m370.015 261.641c14.128 24.471 6.079 53.204-13.828 68.351h56.44v-92.115c0-2.886-2.34-5.226-5.226-5.226h-54.123z" fill="#017b4e"/></g><g><path d="m155.813 329.992h200.375c19.907-15.146 27.956-43.88 13.828-68.351l-68.442-118.545c-20.255-35.083-70.892-35.083-91.147 0l-68.442 118.545c-14.129 24.471-6.079 53.204 13.828 68.351z" fill="#fed2a4"/><path d="m155.813 329.992h38.144c-19.907-15.146-27.956-43.88-13.828-68.351l68.442-118.545c6.423-11.125 15.906-18.709 26.501-22.779-22.818-8.763-50.814-1.178-64.646 22.779l-68.442 118.545c-14.128 24.471-6.079 53.204 13.829 68.351z" fill="#ffbd86"/><path d="m302.704 329.992v-92.115c0-2.886-2.34-5.226-5.226-5.226h-82.955c-2.886 0-5.226 2.34-5.226 5.226v92.115z" fill="#017b4e"/><path d="m236.593 329.992v-92.115c0-2.886 2.34-5.226 5.226-5.226h-27.296c-2.886 0-5.226 2.34-5.226 5.226v92.115z" fill="#026841"/></g></g><g><path d="m494.5 358.508h-477c-5.523 0-10-4.477-10-10v-8.516c0-5.523 4.477-10 10-10h477c5.523 0 10 4.477 10 10v8.516c0 5.523-4.477 10-10 10z" fill="#d88a55"/></g><g><path d="m55 348.508v-8.516c0-5.523 4.477-10 10-10h-47.5c-5.523 0-10 4.477-10 10v8.516c0 5.523 4.477 10 10 10h47.5c-5.523 0-10-4.477-10-10z" fill="#c57a44"/></g><g><path d="m235 173.5h5c4.143 0 7.5-3.358 7.5-7.5s-3.357-7.5-7.5-7.5h-5c-4.143 0-7.5 3.358-7.5 7.5s3.357 7.5 7.5 7.5z"/><path d="m274 204.5h5c4.143 0 7.5-3.358 7.5-7.5s-3.357-7.5-7.5-7.5h-5c-4.143 0-7.5 3.358-7.5 7.5s3.357 7.5 7.5 7.5z"/><path d="m168 288.5h5c4.143 0 7.5-3.358 7.5-7.5s-3.357-7.5-7.5-7.5h-5c-4.143 0-7.5 3.358-7.5 7.5s3.357 7.5 7.5 7.5z"/><path d="m328 266.5h5c4.143 0 7.5-3.358 7.5-7.5s-3.357-7.5-7.5-7.5h-5c-4.143 0-7.5 3.358-7.5 7.5s3.357 7.5 7.5 7.5z"/><path d="m442 278.5h5c4.143 0 7.5-3.358 7.5-7.5s-3.357-7.5-7.5-7.5h-5c-4.143 0-7.5 3.358-7.5 7.5s3.357 7.5 7.5 7.5z"/><path d="m65 262.5h-5c-4.143 0-7.5 3.358-7.5 7.5s3.357 7.5 7.5 7.5h5c4.143 0 7.5-3.358 7.5-7.5s-3.357-7.5-7.5-7.5z"/><path d="m398 186.5h-5c-4.143 0-7.5 3.358-7.5 7.5s3.357 7.5 7.5 7.5h5c4.143 0 7.5-3.358 7.5-7.5s-3.357-7.5-7.5-7.5z"/><path d="m357 153.5c-4.143 0-7.5 3.358-7.5 7.5s3.357 7.5 7.5 7.5h5c4.143 0 7.5-3.358 7.5-7.5s-3.357-7.5-7.5-7.5z"/><path d="m140 162.5h5c4.143 0 7.5-3.358 7.5-7.5s-3.357-7.5-7.5-7.5h-5c-4.143 0-7.5 3.358-7.5 7.5s3.357 7.5 7.5 7.5z"/><path d="m116 202.5h5c4.143 0 7.5-3.358 7.5-7.5s-3.357-7.5-7.5-7.5h-5c-4.143 0-7.5 3.358-7.5 7.5s3.357 7.5 7.5 7.5z"/><path d="m494.5 322.492h-10.947c1.01-1.446 1.985-2.925 2.881-4.477 10.868-18.824 10.868-41.3 0-60.124l-33.279-57.641c-2.07-3.588-6.659-4.817-10.245-2.745-3.587 2.071-4.816 6.658-2.745 10.245l33.279 57.641c8.156 14.127 8.156 30.996 0 45.124-2.682 4.645-6.066 8.665-9.976 11.977h-43.341v-84.615c0-7.017-5.709-12.726-12.727-12.726h-49.792l-37.986-65.793 7.223-12.511c8.156-14.128 22.766-22.562 39.079-22.562s30.922 8.434 39.078 22.562l17.265 29.903c2.07 3.588 6.66 4.817 10.245 2.745 3.587-2.071 4.816-6.658 2.745-10.245l-17.265-29.903c-10.868-18.824-30.333-30.062-52.068-30.062-21.736 0-41.201 11.238-52.069 30.062l-2.893 5.011-2.893-5.011c-10.869-18.825-30.334-30.062-52.069-30.062s-41.2 11.238-52.068 30.062l-2.893 5.011-2.893-5.011c-10.868-18.824-30.333-30.062-52.069-30.062-21.735 0-41.2 11.238-52.068 30.062l-68.443 118.544c-10.868 18.824-10.868 41.3 0 60.124.896 1.552 1.871 3.031 2.881 4.477h-10.947c-9.649 0-17.5 7.851-17.5 17.5v8.517c0 9.649 7.851 17.5 17.5 17.5h15v24.207c0 6.893 5.607 12.5 12.5 12.5h89c6.893 0 12.5-5.607 12.5-12.5v-24.207h155.5c4.143 0 7.5-3.358 7.5-7.5s-3.357-7.5-7.5-7.5h-284.5c-1.379 0-2.5-1.122-2.5-2.5v-8.517c0-1.378 1.121-2.5 2.5-2.5h477c1.379 0 2.5 1.122 2.5 2.5v8.517c0 1.378-1.121 2.5-2.5 2.5h-156.5c-4.143 0-7.5 3.358-7.5 7.5s3.357 7.5 7.5 7.5h27.5v24.207c0 6.893 5.607 12.5 12.5 12.5h89c6.893 0 12.5-5.607 12.5-12.5v-24.207h15c9.649 0 17.5-7.851 17.5-17.5v-8.517c0-9.65-7.851-17.5-17.5-17.5zm-363 65.223h-84v-21.707h84zm273.627-147.564v82.341h-31.498c1.01-1.446 1.985-2.926 2.881-4.478 10.868-18.823 10.868-41.299 0-60.123l-10.242-17.74zm-188.205-93.304c8.156-14.128 22.766-22.562 39.078-22.562s30.922 8.434 39.078 22.562l68.442 118.544c8.156 14.127 8.156 30.996 0 45.123-2.682 4.645-6.067 8.666-9.977 11.978h-43.339v-84.615c0-7.017-5.709-12.726-12.727-12.726h-82.955c-7.018 0-12.727 5.709-12.727 12.726v84.615h-43.339c-3.91-3.312-7.295-7.332-9.977-11.978-8.156-14.127-8.156-30.996 0-45.123zm78.282 175.645h-78.408v-82.341h78.408zm-256.647-11.977c-8.156-14.128-8.156-30.997 0-45.124l68.441-118.544c8.156-14.128 22.766-22.562 39.078-22.562 16.313 0 30.923 8.434 39.079 22.562l7.223 12.511-37.986 65.793h-49.792c-7.018 0-12.727 5.709-12.727 12.726v27.123c0 4.142 3.357 7.5 7.5 7.5s7.5-3.358 7.5-7.5v-24.849h38.859l-10.242 17.74c-10.868 18.824-10.868 41.3 0 60.123.896 1.552 1.871 3.032 2.881 4.478h-31.498v-21.492c0-4.142-3.357-7.5-7.5-7.5s-7.5 3.358-7.5 7.5v21.492h-43.341c-3.909-3.312-7.294-7.332-9.975-11.977zm425.943 77.2h-84v-21.707h84z"/></g></g></svg>