<svg id="Capa_1" enable-background="new 0 0 512 512" height="512" viewBox="0 0 512 512" width="512" xmlns="http://www.w3.org/2000/svg"><g><path d="m101.662 206.461c1.502.631 3.016 1.188 4.537 1.688 4.335-6.505 11.735-10.793 20.138-10.793 2.499 0 4.909.38 7.177 1.083-.85-2.079-1.423-4.301-1.667-6.62-9.245-7.066-16.543-16.881-20.486-28.758-1.487-4.478-2.41-9.007-2.821-13.511-14.184-1.909-28.408 1.372-40.184 8.835-1.74 1.103-2.617 3.192-2.187 5.206 3.973 18.569 16.658 34.96 35.493 42.87z" fill="#80d261"/><path d="m101.662 206.461c1.502.631 3.016 1.188 4.537 1.688 3.523-5.287 9.071-9.104 15.537-10.35-1.338-.455-2.672-.943-3.995-1.499-18.835-7.91-31.52-24.301-35.493-42.87-.108-.504-.134-1.013-.084-1.51-4.849 1.563-9.494 3.731-13.808 6.465-1.74 1.103-2.617 3.192-2.187 5.206 3.973 18.569 16.658 34.96 35.493 42.87z" fill="#68ca44"/><g><path d="m131.847 191.82c-.087-.83-.135-1.672-.135-2.525 0-13.357 10.828-24.186 24.186-24.186 4.644 0 8.961 1.336 12.642 3.609.623-7.78-.264-15.809-2.878-23.682-6.436-19.389-21.802-33.298-40.01-38.688-1.975-.585-4.126.129-5.359 1.779-11.37 15.209-15.367 35.546-8.931 54.935 3.941 11.877 11.239 21.691 20.485 28.758z" fill="#017b4e"/><path d="m131.847 191.82c-.087-.83-.135-1.672-.135-2.525 0-6.068 2.24-11.609 5.93-15.855-1.813-3.251-3.352-6.715-4.568-10.378-5.871-17.685-3.057-36.157 6.111-50.809-4.249-2.506-8.792-4.501-13.534-5.905-1.975-.585-4.126.129-5.359 1.779-11.37 15.209-15.367 35.546-8.931 54.935 3.942 11.877 11.24 21.691 20.486 28.758z" fill="#026841"/></g><g><path d="m429.759 263.783c.146-1.073.245-2.161.245-3.274 0-13.357-10.828-24.186-24.186-24.186-.365 0-.72.039-1.081.055 3.192-4.098 5.112-9.237 5.112-14.835 0-13.357-10.828-24.186-24.186-24.186-2.499 0-4.909.38-7.177 1.083 1.155-2.823 1.802-5.907 1.802-9.145 0-13.357-10.828-24.186-24.186-24.186-5.58 0-10.703 1.908-14.795 5.082-.159-13.221-10.912-23.893-24.171-23.893-7.166 0-13.584 3.135-18.013 8.086-3.664-8.698-12.267-14.804-22.297-14.804-8.88 0-16.62 4.8-20.827 11.933-4.206-7.133-11.947-11.933-20.827-11.933-10.03 0-18.633 6.107-22.297 14.804-4.429-4.951-10.847-8.086-18.013-8.086-13.259 0-24.013 10.672-24.171 23.893-4.092-3.174-9.215-5.082-14.795-5.082-13.357 0-24.186 10.828-24.186 24.186 0 3.238.647 6.323 1.802 9.145-2.268-.704-4.678-1.083-7.177-1.083-13.358 0-24.186 10.828-24.186 24.186 0 5.597 1.92 10.736 5.112 14.835-.361-.016-.716-.055-1.081-.055-13.357 0-24.186 10.828-24.186 24.186 0 1.113.099 2.201.245 3.274z" fill="#fff"/><path d="m380.005 185.592c-1.659-10.861-10.678-19.364-21.618-20.377-6.461-.598-12.435 1.373-17.079 4.976-.159-13.221-10.912-23.893-24.171-23.893-7.166 0-13.584 3.135-18.013 8.086-3.664-8.698-12.267-14.804-22.297-14.804-8.88 0-16.62 4.8-20.827 11.933-4.206-7.133-11.947-11.933-20.827-11.933-10.03 0-18.633 6.107-22.297 14.804-4.429-4.951-10.847-8.086-18.013-8.086-13.259 0-24.013 10.672-24.171 23.893-4.682-3.632-10.714-5.606-17.235-4.961-10.881 1.076-19.819 9.536-21.462 20.346-.699 4.597-.071 8.979 1.519 12.865-2.953-.916-6.148-1.284-9.466-.978-11.818 1.089-21.217 10.895-21.86 22.745-.332 6.114 1.631 11.747 5.076 16.17-.361-.016-.716-.055-1.081-.055-13.357 0-24.186 10.828-24.186 24.186 0 .767.038 1.526.108 2.274h52.947c-1.897-3.674-2.894-7.886-2.652-12.362.642-11.85 10.041-21.657 21.859-22.747 1.659-.153 3.288-.138 4.871.03 2.023.215 3.61-1.658 3.226-3.656-.017-.086-.023-.176-.039-.263-.431.077-.872.124-1.324.124-4.143 0-7.5-3.358-7.5-7.5 0-13.044 10.612-23.657 23.657-23.657 3.876 0 7.599.935 10.918 2.663 3.224.261 6.27 1.145 9.011 2.551 1.783.914 3.909-.141 4.308-2.105 2.239-11.04 11.989-19.352 23.689-19.352 5.822 0 11.151 2.069 15.32 5.501 1.381 1.137 3.478.761 4.421-.76 4.264-6.878 11.881-11.46 20.569-11.46 7.465 0 14.125 3.392 18.556 8.711 1.175 1.41 3.366 1.41 4.541 0 4.432-5.318 11.091-8.711 18.556-8.711 8.688 0 16.305 4.581 20.569 11.46.943 1.52 3.04 1.896 4.421.759 4.169-3.432 9.498-5.501 15.32-5.501 13.259 0 24.013 10.672 24.171 23.893 2.275-1.764 4.877-3.119 7.69-3.991 1.037-3.35 1.377-7.007.795-10.818z" fill="#eaf6ff"/></g><g><path d="m170.943 432.474h170.114v37.706h-170.114z" fill="#fb2b3a"/><path d="m170.943 432.474h43.943v37.706h-43.943z" fill="#e41f2d"/><g><path d="m170.943 432.474h170.114c59.12-29.692 100.588-89.359 104.436-159.063.318-5.761-4.213-10.628-9.982-10.628h-359.022c-5.77 0-10.3 4.867-9.982 10.628 3.848 69.703 45.316 129.371 104.436 159.063z" fill="#fd4755"/></g><g><path d="m110.016 273.411c-.318-5.761 4.213-10.628 9.982-10.628h-43.509c-5.77 0-10.301 4.867-9.982 10.628 3.848 69.704 45.316 129.371 104.436 159.063h43.509c-59.12-29.692-100.588-89.36-104.436-159.063z" fill="#fb2b3a"/></g></g><g><path d="m460.039 504.5h-408.078c-2.761 0-5-2.239-5-5v-24.32c0-2.761 2.239-5 5-5h408.078c2.761 0 5 2.239 5 5v24.32c0 2.761-2.239 5-5 5z" fill="#f6a96c"/></g><g><path d="m90.922 499.5v-24.32c0-2.761 2.239-5 5-5h-43.961c-2.761 0-5 2.239-5 5v24.32c0 2.761 2.239 5 5 5h43.961c-2.761 0-5-2.239-5-5z" fill="#ea9b58"/></g><g><path d="m177.149 192.752c-13.045 0-23.657 10.613-23.657 23.657 0 4.142 3.357 7.5 7.5 7.5s7.5-3.358 7.5-7.5c0-4.773 3.884-8.657 8.657-8.657 2.683 0 5.172 1.215 6.827 3.333 2.552 3.264 7.266 3.84 10.528 1.29 3.264-2.551 3.841-7.264 1.29-10.528-4.518-5.78-11.314-9.095-18.645-9.095z"/><path d="m338.32 219.431c1.416 3.891 5.72 5.897 9.613 4.481 3.893-1.417 5.898-5.722 4.48-9.614-4.463-12.257-18.064-18.6-30.324-14.135-6.889 2.508-12.14 7.948-14.408 14.926-1.28 3.939.875 8.17 4.814 9.451.771.25 1.552.369 2.32.369 3.16 0 6.101-2.015 7.131-5.184.831-2.557 2.754-4.55 5.275-5.468 4.488-1.635 9.465.688 11.099 5.174z"/><path d="m236.13 208.214c-6.887 2.507-12.138 7.947-14.407 14.924-1.281 3.939.873 8.171 4.812 9.453.771.25 1.553.37 2.322.37 3.16 0 6.1-2.014 7.13-5.182.832-2.559 2.756-4.552 5.275-5.47 4.487-1.632 9.464.688 11.098 5.173 1.418 3.892 5.719 5.898 9.613 4.481 3.893-1.417 5.899-5.721 4.482-9.613-4.464-12.256-18.063-18.601-30.325-14.136z"/><path d="m460.039 462.68h-111.481v-25.668c60.752-32.338 100.629-94.429 104.424-163.188.267-4.818-1.478-9.586-4.784-13.081-2.968-3.137-6.87-5.009-11.113-5.383-1.904-11.607-10.136-21.112-21.026-24.841.853-2.882 1.29-5.896 1.29-8.978 0-16.759-13.08-30.521-29.566-31.616.004-.21.006-.421.006-.632 0-17.472-14.214-31.686-31.686-31.686-3.249 0-6.42.485-9.444 1.433-4.619-11.819-16.155-20.245-29.521-20.245-5.728 0-11.302 1.569-16.149 4.451-5.916-6.977-14.676-11.169-24.16-11.169-7.729 0-15.124 2.877-20.827 7.852-5.703-4.975-13.099-7.852-20.827-7.852-9.484 0-18.244 4.192-24.16 11.169-4.848-2.881-10.422-4.451-16.149-4.451-7.979 0-15.292 3.018-20.885 7.953-.361-1.364-.75-2.725-1.199-4.078-6.961-20.967-23.783-37.235-45-43.517-4.971-1.47-10.391.331-13.494 4.48-8.326 11.137-12.899 24.398-13.423 37.92-12.748-.054-25.448 3.477-36.522 10.494-4.378 2.775-6.59 8.044-5.504 13.109 4.423 20.674 18.248 38.043 37.237 47.011-.92 2.964-1.421 6.11-1.421 9.372 0 3.083.438 6.096 1.29 8.978-10.89 3.729-19.122 13.234-21.026 24.841-4.243.374-8.145 2.245-11.113 5.383-3.307 3.495-5.051 8.262-4.784 13.08 3.795 68.759 43.672 130.85 104.424 163.188v25.668h-17.446c-4.143 0-7.5 3.358-7.5 7.5s3.357 7.5 7.5 7.5h311.539v19.323h-403.078v-19.32h55.539c4.143 0 7.5-3.358 7.5-7.5s-3.357-7.5-7.5-7.5h-58.039c-6.893 0-12.5 5.607-12.5 12.5v24.32c0 6.893 5.607 12.5 12.5 12.5h408.078c6.893 0 12.5-5.607 12.5-12.5v-24.32c0-6.892-5.607-12.5-12.5-12.5zm-334.796-348.599c15.699 5.238 28.074 17.577 33.3 33.318 1.16 3.496 1.93 7.048 2.344 10.607-1.636-.259-3.302-.396-4.99-.396-2.75 0-5.419.353-7.965 1.015l-2.14-6.447c-1.306-3.931-5.55-6.06-9.481-4.755s-6.06 5.55-4.755 9.481l2.989 9.004c-3.217 2.94-5.822 6.535-7.614 10.57-3.63-4.658-6.52-9.956-8.452-15.778-5.226-15.744-2.687-33.033 6.764-46.619zm-51.332 49.698c8.592-5.041 18.329-7.462 28.054-7.202.557 2.976 1.309 5.933 2.277 8.847 3.194 9.62 8.371 18.168 15.056 25.228-5.95 1.356-11.266 4.39-15.426 8.578-14.936-6.53-26.008-19.64-29.961-35.451zm.084 109.218c-.055-.987.417-1.641.703-1.943.333-.352.914-.771 1.791-.771h252.511c4.143 0 7.5-3.358 7.5-7.5s-3.357-7.5-7.5-7.5h-238.654c2.198-6.646 8.452-11.46 15.785-11.46l.227.014c.19.013.38.025.57.034 2.916.127 5.654-1.45 6.998-4.05 1.343-2.599 1.052-5.742-.745-8.051-2.309-2.965-3.529-6.501-3.529-10.227 0-9.201 7.485-16.686 16.686-16.686 1.69 0 3.357.251 4.954.747 2.771.861 5.792.044 7.752-2.096 1.961-2.14 2.512-5.219 1.413-7.906-.825-2.018-1.244-4.14-1.244-6.307 0-9.201 7.485-16.686 16.686-16.686 3.713 0 7.239 1.213 10.198 3.508 2.251 1.745 5.294 2.065 7.855.829 2.564-1.237 4.207-3.819 4.24-6.665.109-9.089 7.588-16.483 16.672-16.483 4.72 0 9.247 2.036 12.423 5.586 1.714 1.917 4.289 2.823 6.825 2.397 2.536-.423 4.678-2.116 5.677-4.486 2.614-6.206 8.653-10.216 15.385-10.216 5.952 0 11.323 3.082 14.367 8.243 1.348 2.287 3.805 3.69 6.46 3.69s5.112-1.403 6.46-3.69c3.044-5.161 8.415-8.243 14.367-8.243 6.731 0 12.771 4.01 15.385 10.216.999 2.37 3.141 4.063 5.677 4.486 2.537.425 5.111-.481 6.825-2.397 3.176-3.55 7.703-5.586 12.423-5.586 9.084 0 16.563 7.395 16.672 16.483.033 2.846 1.676 5.428 4.24 6.665 2.562 1.236 5.606.916 7.855-.829 2.959-2.295 6.485-3.508 10.198-3.508 9.2 0 16.686 7.485 16.686 16.686 0 2.167-.419 4.289-1.244 6.307-1.099 2.687-.548 5.766 1.413 7.906 1.96 2.139 4.978 2.958 7.752 2.096 1.597-.496 3.264-.747 4.954-.747 9.2 0 16.686 7.485 16.686 16.686 0 3.726-1.221 7.262-3.529 10.227-1.797 2.309-2.088 5.452-.745 8.051 1.344 2.6 4.089 4.178 6.998 4.05.19-.009.38-.021.57-.034l.175-.014c7.375 0 13.637 4.814 15.836 11.46h-56.655c-4.143 0-7.5 3.358-7.5 7.5s3.357 7.5 7.5 7.5h70.511c.877 0 1.458.419 1.791.771.286.302.758.956.703 1.943-3.554 64.373-41.338 122.444-98.744 151.977h-166.522c-57.406-29.533-95.19-87.604-98.744-151.977zm104.447 166.977h155.115v22.706h-155.115z"/><path d="m273.904 55.416h32.096c4.143 0 7.5-3.358 7.5-7.5s-3.357-7.5-7.5-7.5h-32.096c-7.007 0-12.708-5.701-12.708-12.708s5.701-12.708 12.708-12.708h44.457c4.143 0 7.5-3.358 7.5-7.5s-3.357-7.5-7.5-7.5h-44.457c-15.278 0-27.708 12.43-27.708 27.708s12.43 27.708 27.708 27.708z"/><path d="m342 55.416h28.902c5.336 0 9.677 4.341 9.677 9.677s-4.341 9.677-9.677 9.677h-54.562c-13.606 0-24.677 11.07-24.677 24.677v10.553c0 4.142 3.357 7.5 7.5 7.5s7.5-3.358 7.5-7.5v-10.554c0-5.336 4.341-9.677 9.677-9.677h54.562c13.606 0 24.677-11.07 24.677-24.677s-11.07-24.677-24.677-24.677h-28.902c-4.143 0-7.5 3.358-7.5 7.5s3.357 7.501 7.5 7.501z"/><path d="m180.947 89.77h44.458c5.336 0 9.677 4.341 9.677 9.677v10.553c0 4.142 3.357 7.5 7.5 7.5s7.5-3.358 7.5-7.5v-10.554c0-13.607-11.07-24.677-24.677-24.677h-44.458c-5.336 0-9.677-4.341-9.677-9.677s4.341-9.677 9.677-9.677h36.374c4.143 0 7.5-3.358 7.5-7.5s-3.357-7.5-7.5-7.5h-36.374c-13.606 0-24.677 11.07-24.677 24.677s11.071 24.678 24.677 24.678z"/></g></g></svg>