<svg id="Capa_1" enable-background="new 0 0 512 512" height="512" viewBox="0 0 512 512" width="512" xmlns="http://www.w3.org/2000/svg"><g><g><path d="m17.509 298.613c0 3.471.541 6.815 1.537 9.957h33.014l61.078-105.79c-3.456-1.232-7.176-1.908-11.055-1.908-15.066 0-27.759 10.126-31.668 23.941-4.951-2.98-10.749-4.697-16.949-4.697-18.18 0-32.918 14.738-32.918 32.918 0 8.082 2.917 15.479 7.75 21.208-6.628 6.022-10.789 14.711-10.789 24.371z" fill="#80d261"/><path d="m17.509 298.613c0 3.471.541 6.815 1.537 9.957h22.008c-.997-3.142-1.545-6.484-1.545-9.957 0-9.66 4.161-18.348 10.789-24.37-4.833-5.729-7.75-13.126-7.75-21.208 0-14.323 9.151-26.503 21.923-31.03-3.441-1.221-7.145-1.888-11.005-1.888-18.18 0-32.918 14.738-32.918 32.918 0 8.082 2.917 15.479 7.75 21.208-6.628 6.021-10.789 14.71-10.789 24.37z" fill="#68ca44"/><g><g><path d="m337.842 237.544c7.346-13.312 21.522-22.386 37.725-22.386 5.114 0 9.966-2.226 13.312-6.093 6.94-8.021 14.792-18.305 19.521-28.374 1.39-2.96 3.702-5.107 6.378-6.322l-34.995-60.613c-8.181-14.171-28.635-14.171-36.816 0l-38.297 66.333z" fill="#fac600"/></g><g><path d="m337.842 237.544c6.561-11.889 18.571-20.388 32.607-22.071 2.455-41.436-3.507-80.045-15.705-111.302-4.71 1.524-8.967 4.719-11.777 9.585l-38.297 66.333z" fill="#fed402"/></g></g><path d="m272.691 308.57h61.561l-7.379-28.204h-9.373c-2.761 0-5-2.239-5-5v-19c0-2.761 2.239-5 5-5h15.557c.799-4.934 2.45-9.59 4.785-13.822l-62.809-108.788c-8.181-14.171-28.635-14.171-36.816 0l-34.671 60.051z" fill="#fac600"/><path d="m258.033 283.182c3.201-13.543 5.543-27.752 6.896-42.455 4.169-45.305-1.737-87.733-14.937-121.556-4.71 1.524-8.967 4.719-11.777 9.585l-34.671 60.051z" fill="#fed402"/><g><path d="m272.691 308.57-91.908-159.189c-8.181-14.171-28.635-14.171-36.816 0l-91.908 159.189z" fill="#fac600"/><path d="m162.613 308.57c3.803-14.962 6.554-30.781 8.067-47.219 4.169-45.305-1.737-87.733-14.937-121.556-4.71 1.524-8.967 4.719-11.777 9.585l-91.907 159.19z" fill="#fedf74"/><path d="m79.059 308.57 84.167-145.782c-2.138-8.024-4.64-15.709-7.483-22.993-4.71 1.524-8.967 4.719-11.777 9.585l-91.907 159.19z" fill="#fed402"/><path d="m272.691 308.57-39.505-68.425c-27.154 6.513-55.1 16.509-82.734 30.125-22.869 11.269-43.904 24.217-62.787 38.299h185.026z" fill="#fedf74"/></g><g><g><path d="m483.942 251.366c-2.766-17.085-15.67-30.886-32.293-34.968-5.307-1.303-9.045-5.997-9.438-11.447-.913-12.65-7.02-21.865-13.448-28.168-6.267-6.146-16.632-4.038-20.363 3.908-4.729 10.069-12.582 20.353-19.521 28.374-3.346 3.867-8.198 6.093-13.312 6.093-21.353 0-39.199 15.752-42.51 36.208z" fill="#017b4e"/></g><g><path d="m367.08 251.366c7.717-11.719 20.984-19.499 35.987-19.499 5.114 0 9.966-2.226 13.312-6.093 6.94-8.021 14.792-18.305 19.521-28.374.877-1.868 2.13-3.399 3.601-4.591-2.571-6.65-6.583-11.951-10.738-16.026-6.267-6.146-16.632-4.038-20.363 3.908-4.729 10.069-12.582 20.353-19.521 28.374-3.346 3.867-8.198 6.093-13.312 6.093-21.353 0-39.199 15.752-42.51 36.208z" fill="#026841"/></g><g><path d="m482.748 308.57 7.379-28.204h-163.254l7.379 28.204z" fill="#fb2b3a"/></g><g><path d="m499.5 280.366h-182c-2.761 0-5-2.239-5-5v-19c0-2.761 2.239-5 5-5h182c2.761 0 5 2.239 5 5v19c0 2.761-2.239 5-5 5z" fill="#fd4755"/></g><g><path d="m345 275.366v-19c0-2.761 2.239-5 5-5h-32.5c-2.761 0-5 2.239-5 5v19c0 2.761 2.239 5 5 5h32.5c-2.761 0-5-2.239-5-5z" fill="#fb2b3a"/></g></g><path d="m27.139 343.872 18.78 61.461c.642 2.103 2.583 3.539 4.782 3.539h410.599c2.199 0 4.139-1.436 4.782-3.539l18.78-61.461z" fill="#d8ecfe"/><path d="m90.919 405.333-18.474-60.461h-45l18.474 60.461c.642 2.103 2.583 3.539 4.782 3.539h45c-2.199 0-4.14-1.436-4.782-3.539z" fill="#c4e2ff"/></g><g><path d="m499.5 344.872h-487c-2.761 0-5-2.239-5-5v-26.302c0-2.761 2.239-5 5-5h487c2.761 0 5 2.239 5 5v26.302c0 2.761-2.239 5-5 5z" fill="#eaf6ff"/></g><g><path d="m55 339.872v-26.302c0-2.761 2.239-5 5-5h-47.5c-2.761 0-5 2.239-5 5v26.302c0 2.761 2.239 5 5 5h47.5c-2.761 0-5-2.238-5-5z" fill="#d8ecfe"/></g><path d="m499.5 287.866c6.893 0 12.5-5.607 12.5-12.5v-19c0-6.893-5.607-12.5-12.5-12.5h-9.574c-4.99-16.911-18.614-30.362-36.488-34.751-2.075-.51-3.581-2.4-3.747-4.704v.001c-.894-12.396-6.314-23.802-15.677-32.984-4.198-4.117-9.772-6.114-15.532-5.645l-8.39-14.533c-2.072-3.587-6.66-4.815-10.245-2.745-3.587 2.071-4.816 6.658-2.745 10.245l7.895 13.675c-1.358 1.497-2.505 3.203-3.385 5.078-3.617 7.703-9.981 16.92-18.403 26.654-1.311 1.515-3.026 2.577-4.909 3.109 1.056-34.099-3.467-67.356-13.097-96.104 3.373.96 6.262 3.182 8.087 6.344l5.915 10.244c2.071 3.588 6.659 4.815 10.245 2.745 3.588-2.071 4.816-6.658 2.745-10.245l-5.915-10.244c-5.198-9.003-14.508-14.378-24.903-14.378s-19.705 5.375-24.903 14.378l-31.802 55.083-23.142-40.083c-5.198-9.003-14.508-14.378-24.903-14.378s-19.705 5.375-24.903 14.378l-28.176 48.802-16.268-28.177c-5.198-9.003-14.508-14.378-24.903-14.378s-19.705 5.375-24.903 14.378l-27.964 48.436c-2.408-.452-4.888-.694-7.426-.694-15.063 0-28.721 8.469-35.645 21.379-4.156-1.407-8.538-2.135-12.973-2.135-22.286 0-40.418 18.132-40.418 40.418 0 7.267 1.97 14.376 5.632 20.57-5.567 7.079-8.67 15.896-8.67 25.009 0 .905.033 1.803.092 2.694-5.749 1.122-10.102 6.191-10.102 12.262v26.302c0 6.893 5.607 12.5 12.5 12.5h9.394l16.852 55.153c1.617 5.291 6.422 8.847 11.954 8.847h410.6c5.532 0 10.337-3.556 11.954-8.847v-.001l16.852-55.152h9.394c6.893 0 12.5-5.607 12.5-12.5v-26.302c0-6.893-5.607-12.5-12.5-12.5h-7.038l3.455-13.204zm-123.934-65.208c7.289 0 14.208-3.166 18.984-8.687 9.441-10.912 16.385-21.037 20.638-30.093.771-1.644 2.216-2.768 3.963-3.081.253-.046.568-.083.926-.083.978 0 2.268.278 3.434 1.422 6.809 6.678 10.583 14.535 11.219 23.354v.001c.637 8.813 6.717 16.124 15.13 18.19 11.035 2.71 19.759 10.328 24.107 20.185h-130.929c5.528-12.478 18.025-21.208 32.528-21.208zm-26.104-105.152c.411-.712.88-1.371 1.392-1.984 9.398 27.835 13.694 60.324 12.389 93.667-9.606 2.416-18.122 7.592-24.668 14.625l-25.245-43.726zm-80.924 15 60.794 105.299c-.869 1.96-1.624 3.981-2.241 6.062h-9.591c-6.893 0-12.5 5.607-12.5 12.5v19c0 6.893 5.607 12.5 12.5 12.5h3.583l3.455 13.204h-47.516l-11.019-19.086c2.968-13.13 5.117-26.675 6.396-40.57 3.742-40.674-.513-81.14-11.944-115.25 3.371.959 6.258 3.18 8.083 6.341zm-23.826 0c.418-.723.895-1.393 1.417-2.015 10.884 32.236 14.904 70.737 11.332 109.548-.691 7.514-1.649 14.916-2.859 22.199l-42.396-73.431zm14.989 168.564h-148.12c13.42-8.772 27.554-16.863 42.185-24.072 24.732-12.186 50.188-21.666 75.747-28.215zm-109.239-147.939c.412-.714.883-1.375 1.396-1.989 4.612 13.619 8.029 28.319 10.138 43.866.51 3.763 3.728 6.493 7.422 6.493.336 0 .676-.022 1.018-.069 4.104-.557 6.98-4.335 6.424-8.439-2.213-16.323-5.804-31.802-10.646-46.201 3.368.962 6.252 3.182 8.075 6.34l47.459 82.201c-14.32 3.836-28.593 8.548-42.719 14.106.351-6.536.518-13.062.458-19.509-.039-4.118-3.389-7.43-7.499-7.43-.023 0-.047 0-.071 0-4.142.039-7.468 3.428-7.43 7.57.08 8.512-.235 17.169-.894 25.804-5.515 2.43-11.004 4.983-16.456 7.669-21.912 10.797-42.79 23.492-61.882 37.527h-20.205zm-116.433 116.275c-3.857-4.573-5.982-10.388-5.982-16.372 0-14.016 11.402-25.418 25.418-25.418 4.62 0 9.145 1.253 13.082 3.622 2.003 1.206 4.452 1.407 6.626.549 2.174-.86 3.821-2.684 4.458-4.933 3-10.606 12.632-18.074 23.597-18.447l-53.499 92.663h-22.599c-.078-.809-.122-1.628-.122-2.457 0-7.148 3.037-14.009 8.332-18.82 2.986-2.714 3.291-7.303.689-10.387zm462.971 46.664v21.302h-79c-4.143 0-7.5 3.357-7.5 7.5s3.357 7.5 7.5 7.5h56.422l-14.972 49h-406.899l-14.972-49h344.421c4.143 0 7.5-3.357 7.5-7.5s-3.357-7.5-7.5-7.5h-367v-21.302zm-160.412-28.204h143.823l-3.455 13.204h-136.913zm-16.588-15v-14h177v14z"/></g></svg>