<svg id="Capa_1" enable-background="new 0 0 512 512" height="512" viewBox="0 0 512 512" width="512" xmlns="http://www.w3.org/2000/svg"><g><path d="m289.234 73.438h-227.03c-30.212 0-54.704 24.492-54.704 54.704 0 23.917 15.348 44.248 36.732 51.683 9.38 3.261 15.582 12.196 15.262 22.121l-7.027 218.43c-.32 9.947 7.657 18.185 17.609 18.185h211.285c9.952 0 17.929-8.238 17.609-18.185l-7.027-218.43c-.319-9.925 5.883-18.86 15.262-22.121 21.384-7.435 36.732-27.767 36.732-51.683.001-30.212-24.491-54.704-54.703-54.704z" fill="#ecd5c6"/><path d="m291.563 73.487c7.734 9.435 12.375 21.503 12.375 34.655 0 23.978-15.427 44.352-36.897 51.74-9.373 3.225-15.41 12.363-15.091 22.269l3.993 124.121c1.976 61.423-47.28 112.289-108.734 112.289h-94.683l-.058 1.815c-.32 9.947 7.657 18.185 17.609 18.185h211.285c9.952 0 17.929-8.238 17.609-18.185l-7.021-218.225c-.319-9.907 5.719-19.044 15.091-22.27 21.47-7.388 36.897-27.762 36.897-51.74 0-29.431-23.243-53.434-52.375-54.654z" fill="#dfb9a2"/><path d="m348.941 73.438h-59.707c30.212 0 54.704 24.492 54.704 54.704 0 23.916-15.348 44.248-36.732 51.683-9.38 3.261-15.582 12.196-15.262 22.121l7.027 218.43c.32 9.947-7.657 18.185-17.609 18.185h59.707c9.952 0 17.929-8.238 17.609-18.185l-7.027-218.43c-.319-9.925 5.883-18.86 15.262-22.121 21.384-7.435 36.732-27.767 36.732-51.683 0-30.212-24.492-54.704-54.704-54.704z" fill="#c6865c"/><path d="m401.242 162.191c-1.292-3.117-2.299-6.448-3.236-9.832-6.319 12.779-17.483 22.735-31.093 27.467-9.379 3.261-15.582 12.196-15.262 22.121l2.666 82.874c11.216-3.654 24.04-5.171 32.062-13.193 9.137-9.137 9.836-24.503 14.863-36.627 4.85-11.696 15.388-22.955 15.388-36.405s-10.538-24.709-15.388-36.405z" fill="#78c2a4"/><path d="m408.241 221.892c-2.562 4.401-5.18 8.724-6.999 13.109-5.027 12.124-5.726 27.49-14.863 36.627-8.022 8.022-20.846 9.539-32.062 13.193l4.065 126.363c41.91-18.513 71.489-63.487 71.489-116.03 0-27.363-8.023-52.673-21.63-73.262z" fill="#e4989d"/><path d="m354.317 284.821 2.29 71.178c19.334-12.5 32.13-34.248 32.13-58.984 0-8.347-1.457-16.353-4.131-23.779-8.057 6.64-19.867 8.19-30.289 11.585z" fill="#dd636e"/><path d="m398.565 381.187c-11.184 12.921-24.859 23.228-40.183 29.997l.296 9.193c.32 9.947-7.657 18.185-17.609 18.185h41.148c9.952 0 17.929-8.238 17.609-18.185z" fill="#dfb9a2"/><path d="m390.089 73.438h-41.148c30.212 0 54.704 24.492 54.704 54.704 0 8.695-2.029 16.916-5.639 24.217.937 3.384 1.944 6.715 3.236 9.832 2.322 5.599 5.947 11.098 9.096 16.785 20.188-8.049 34.455-27.775 34.455-50.833 0-30.213-24.492-54.705-54.704-54.705z" fill="#dfb9a2"/><path d="m449.796 73.438h-59.707c30.212 0 54.704 24.492 54.704 54.704 0 23.059-14.267 42.785-34.455 50.833 3.429 6.193 6.293 12.609 6.293 19.62 0 10.139-5.988 19.033-11.014 27.808.858-1.499 1.745-3.001 2.625-4.512 13.608 20.589 21.63 45.9 21.63 73.263 0 33.331-11.903 63.616-31.306 86.033l1.261 39.19c.32 9.947-7.657 18.185-17.609 18.185h59.707c9.952 0 17.929-8.238 17.609-18.185l-7.027-218.43c-.319-9.925 5.883-18.86 15.263-22.121 21.384-7.435 36.732-27.767 36.732-51.683-.002-30.213-24.494-54.705-54.706-54.705z" fill="#c6865c"/><circle cx="210.802" cy="267.126" r="7.5"/><circle cx="149.7" cy="310.512" r="7.5"/><circle cx="234.881" cy="367.204" r="7.5"/><circle cx="82.216" cy="125.675" r="7.5"/><circle cx="271.172" cy="142.822" r="7.5"/><circle cx="125.661" cy="189.65" r="7.5"/><circle cx="172.672" cy="142.457" r="7.5"/><circle cx="98.811" cy="393.216" r="7.5"/><path d="m449.796 65.938h-387.592c-34.299 0-62.204 27.905-62.204 62.205 0 26.464 16.786 50.081 41.769 58.767 6.333 2.202 10.443 8.148 10.229 14.796l-4.758 147.911c-.133 4.14 3.115 7.604 7.255 7.737 4.193.124 7.606-3.156 7.737-7.255l4.758-147.911c.426-13.244-7.73-25.078-20.296-29.447-18.957-6.591-31.694-24.514-31.694-44.598 0-26.028 21.176-47.204 47.204-47.204h227.03c26.028 0 47.204 21.176 47.204 47.204 0 20.084-12.737 38.007-31.695 44.599-12.565 4.369-20.722 16.203-20.296 29.447l1.414 43.942c.134 4.14 3.574 7.422 7.737 7.255 4.14-.133 7.388-3.597 7.255-7.737l-1.414-43.942c-.214-6.648 3.897-12.595 10.229-14.796 24.983-8.687 41.77-32.304 41.77-58.768 0-18.86-8.437-35.787-21.735-47.204h19.238c26.028 0 47.204 21.176 47.204 47.204 0 20.084-12.737 38.007-31.695 44.599-12.565 4.369-20.722 16.203-20.296 29.447 7.818 242.997-.26-8.14 7.027 218.43.184 5.719-4.392 10.443-10.113 10.443h-36.698c1.494-3.39 2.22-7.101 2.097-10.926l-4.482-139.313c-.134-4.14-3.612-7.371-7.737-7.255-4.14.133-7.388 3.597-7.255 7.737l4.482 139.313c.184 5.719-4.392 10.443-10.113 10.443h-211.285c-5.711 0-10.298-4.716-10.113-10.443l1.175-36.52c.133-4.14-3.115-7.604-7.255-7.737-4.163-.121-7.604 3.115-7.737 7.255l-1.175 36.52c-.456 14.168 10.876 25.926 25.105 25.926h371.847c14.184 0 25.562-11.709 25.104-25.926l-7.027-218.43c-.214-6.648 3.897-12.594 10.229-14.796 24.983-8.687 41.77-32.304 41.77-58.768 0-34.299-27.904-62.204-62.204-62.204zm-60.386 15h.679c26.028 0 47.204 21.176 47.204 47.204 0 17.27-9.205 32.783-23.915 41.082-3.985-6.827-5.446-9.67-7.401-16.265 10.703-24.57 4.598-53.849-16.567-72.021zm-20.034 105.972c10.564-3.673 19.662-10.015 26.645-18.114 5.242 10.567 13.109 20.066 13.109 29.8 0 10.864-9.795 21.426-14.815 33.532-5.128 12.363-5.954 26.912-13.238 34.197-4.708 4.707-12.716 6.793-19.573 8.639l-2.357-73.258c-.214-6.648 3.897-12.595 10.229-14.796zm-5.761 153.702-1.616-50.243c6.006-1.651 12.238-3.143 18.024-5.694 3.93 19.697-1.682 40.751-16.408 55.937zm2.559 79.524-.137-4.255c9.211-4.554 17.788-10.289 25.59-17.077l.702 21.815c.184 5.719-4.391 10.443-10.112 10.443h-18.14c1.494-3.39 2.22-7.101 2.097-10.926zm99.131-247.394c-12.565 4.369-20.722 16.203-20.296 29.447l7.027 218.43c.184 5.719-4.391 10.443-10.112 10.443h-36.699c1.494-3.39 2.219-7.101 2.096-10.926l-1.167-36.274c4.264-5.173 8.177-10.738 11.703-16.663 2.118-3.56.95-8.163-2.609-10.281-3.562-2.12-8.162-.951-10.281 2.609-3.489 5.862-7.4 11.323-11.689 16.342-.272.27-.523.56-.75.869-7.862 9.014-16.96 16.565-27.028 22.415l-1.264-39.294c27.046-19.656 37.89-53.664 28.936-84.519 9.74-11.128 10.413-27.051 15.322-38.219 14.968 28.942 17.355 62.414 9.455 91.646-1.081 3.999 1.285 8.116 5.283 9.197 3.999 1.082 8.117-1.286 9.197-5.284 9.739-36.04 5.384-77.026-15.435-111.003 7.578-13.752 9.745-24.705 3.457-39.217 37.883-21.072 42.856-73.406 10.109-101.521h19.238c26.028 0 47.204 21.176 47.204 47.204-.002 20.084-12.739 38.007-31.697 44.599z"/></g></svg>