<svg id="Capa_1" enable-background="new 0 0 512 512" height="512" viewBox="0 0 512 512" width="512" xmlns="http://www.w3.org/2000/svg"><g><g><path d="m99.807 352.509h312.386v62.062h-312.386z" fill="#fed402"/><g><path d="m136.181 385.778c-14.83 0-28.001-7.05-36.374-17.974v45.767h38.193v-27.831c-.604.023-1.21.038-1.819.038z" fill="#fac600"/></g><path d="m152.046 352.614h-59.91c5.5 19.149 23.127 33.164 44.045 33.164 11.459 0 21.924-4.212 29.955-11.164-6.63-5.738-11.603-13.341-14.09-22z" fill="#fb2b3a"/><path d="m119.777 352.614h-27.641c5.5 19.149 23.127 33.164 44.045 33.164 4.818 0 9.459-.75 13.821-2.128-14.575-4.606-25.991-16.3-30.225-31.036z" fill="#e41f2d"/><path d="m211.955 352.614h-59.91c5.5 19.149 23.127 33.164 44.045 33.164 11.459 0 21.924-4.212 29.955-11.164-6.63-5.738-11.603-13.341-14.09-22z" fill="#fb2b3a"/><path d="m179.132 352.614h-27.087c5.5 19.149 23.127 33.164 44.045 33.164 4.715 0 9.263-.714 13.544-2.036-14.708-4.544-26.241-16.297-30.502-31.128z" fill="#e41f2d"/><path d="m271.865 352.614h-59.91c5.5 19.149 23.127 33.164 44.045 33.164 11.459 0 21.924-4.212 29.955-11.164-6.63-5.738-11.603-13.341-14.09-22z" fill="#fb2b3a"/><path d="m239.132 352.614h-27.177c5.5 19.149 23.127 33.164 44.045 33.164 4.732 0 9.295-.72 13.589-2.051-14.686-4.554-26.2-16.297-30.457-31.113z" fill="#e41f2d"/><path d="m331.774 352.614h-59.91c5.5 19.149 23.127 33.164 44.045 33.164 11.459 0 21.924-4.212 29.955-11.164-6.629-5.738-11.602-13.341-14.09-22z" fill="#fb2b3a"/><path d="m299.133 352.614h-27.268c5.5 19.149 23.127 33.164 44.045 33.164 4.749 0 9.327-.726 13.634-2.066-14.664-4.565-26.16-16.298-30.411-31.098z" fill="#e41f2d"/><path d="m331.774 352.614c5.5 19.149 23.127 33.164 44.045 33.164s38.545-14.015 44.045-33.164z" fill="#fb2b3a"/><path d="m358.776 352.614h-27.002c5.5 19.149 23.127 33.164 44.045 33.164 4.7 0 9.233-.708 13.501-2.022-14.728-4.534-26.279-16.296-30.544-31.142z" fill="#e41f2d"/><g><path d="m425.008 352.614h-338.016c-8.284 0-15-6.716-15-15v-30.543c0-8.284 6.716-15 15-15h338.016c8.284 0 15 6.716 15 15v30.543c0 8.284-6.716 15-15 15z" fill="#fed2a4"/></g><g><path d="m115.984 337.614v-30.543c0-8.284 6.716-15 15-15h-43.992c-8.284 0-15 6.716-15 15v30.543c0 8.284 6.716 15 15 15h43.992c-8.284 0-15-6.716-15-15z" fill="#ffbd86"/></g><g><path d="m441.694 469.192v-40.621c0-8.284-6.716-15-15-15h-341.388c-8.284 0-15 6.716-15 15v40.621z" fill="#fed2a4"/></g><g><path d="m129 413.571h-43.694c-8.284 0-15 6.716-15 15v40.621h43.694v-40.621c0-8.284 6.716-15 15-15z" fill="#ffbd86"/></g><g><path d="m490.638 504.5h-469.276c-2.761 0-5-2.239-5-5v-25.308c0-2.761 2.239-5 5-5h469.277c2.761 0 5 2.239 5 5v25.308c-.001 2.761-2.239 5-5.001 5z" fill="#017b4e"/></g><g><path d="m76.723 499.5v-25.308c0-2.761 2.239-5 5-5h-60.361c-2.761 0-5 2.239-5 5v25.308c0 2.761 2.239 5 5 5h60.362c-2.762 0-5.001-2.239-5.001-5z" fill="#026841"/></g></g><g><path d="m279.785 292.071-23.785 12.753 44.406 23.811c4.737 2.54 10.43 2.54 15.167 0l68.191-36.565h-103.979z" fill="#fe9901"/><g><path d="m275.13 294.567-19.13 10.257 44.406 23.811c4.737 2.54 10.43 2.54 15.167 0l11.547-6.191z" fill="#fb8801"/></g><path d="m128.236 292.071 68.191 36.565c4.737 2.54 10.43 2.54 15.167 0l68.191-36.565z" fill="#fe9901"/><path d="m128.236 292.071 68.191 36.565c4.737 2.54 10.43 2.54 15.167 0l11.536-6.186-56.655-30.379z" fill="#fb8801"/></g><g><path d="m200.317 153.101h111.366v34.359h-111.366z" fill="#fb8801"/><path d="m99.507 188.46h100.81v-35.359h-102.745c-6.725 2.877-11.44 9.551-11.44 17.329 0 8.504 5.636 15.687 13.375 18.03z" fill="#fdb441"/><path d="m96.936 187.461h32.868c-6.383-3.017-10.804-9.503-10.804-17.031 0-7.778 4.714-14.452 11.44-17.329h-32.869c-6.725 2.877-11.44 9.551-11.44 17.329.001 7.528 4.422 14.014 10.805 17.031z" fill="#fe9901"/><path d="m425.868 170.43c0-7.778-4.714-14.452-11.44-17.329h-102.745v34.359h103.365c6.388-3.015 10.82-9.497 10.82-17.03z" fill="#fdb441"/></g><g><path d="m441.694 138.101v-25.621c0-8.284-6.716-15-15-15h-341.388c-8.284 0-15 6.716-15 15v25.621c0 8.284 6.716 15 15 15h341.389c8.284 0 14.999-6.715 14.999-15z" fill="#fed2a4"/></g><g><path d="m114 138.101v-25.621c0-8.284 6.716-15 15-15h-43.694c-8.284 0-15 6.716-15 15v25.621c0 8.284 6.716 15 15 15h43.694c-8.284 0-15-6.716-15-15z" fill="#ffbd86"/></g><path d="m404.539 228.31h-297.078c-17.607 0-31.88 14.273-31.88 31.88 0 17.607 14.273 31.88 31.88 31.88h297.078c17.607 0 31.88-14.273 31.88-31.88 0-17.606-14.273-31.88-31.88-31.88z" fill="#883f2e"/><g><path d="m119.162 260.191c0-3.735.648-7.318 1.829-10.649-5.244-5.546-8.454-13.072-8.479-21.232h-5.05c-17.607 0-31.88 14.273-31.88 31.88 0 17.607 14.273 31.88 31.88 31.88h43.581c-17.608.001-31.881-14.273-31.881-31.879z" fill="#6d3326"/></g><path d="m112.511 228.31c.051 16.319 12.841 30.104 29.163 30.584 9.42.277 17.893-3.786 23.589-10.33 5.513 6.334 13.628 10.343 22.684 10.343 9.057 0 17.171-4.009 22.684-10.343 5.513 6.334 13.628 10.343 22.684 10.343 9.057 0 17.171-4.009 22.684-10.343 5.513 6.334 13.628 10.343 22.684 10.343 9.057 0 17.171-4.009 22.684-10.343 5.513 6.334 13.628 10.343 22.684 10.343 9.057 0 17.171-4.009 22.684-10.343 5.696 6.544 14.169 10.607 23.589 10.33 16.322-.48 29.112-14.265 29.163-30.584z" fill="#80d261"/><g><path d="m140.003 228.31h-27.492c.051 16.319 12.841 30.104 29.163 30.584 5.317.156 10.332-1.072 14.717-3.347-9.756-5.119-16.351-15.525-16.388-27.237z" fill="#68ca44"/></g><g><path d="m441.694 207.885c0-11.28-9.145-20.425-20.425-20.425h-330.539c-11.28 0-20.425 9.145-20.425 20.425s9.145 20.425 20.425 20.425h330.54c11.28 0 20.424-9.144 20.424-20.425z" fill="#fb2b3a"/></g><g><path d="m114 207.885c0-11.281 9.145-20.425 20.425-20.425h-43.694c-11.28 0-20.425 9.145-20.425 20.425 0 11.28 9.145 20.425 20.425 20.425h43.694c-11.28 0-20.425-9.144-20.425-20.425z" fill="#e41f2d"/></g><g><circle cx="256" cy="30.184" fill="#fb2b3a" r="22.684"/></g><g><path d="m249.631 30.184c0-9.652 6.03-17.89 14.526-21.167-2.531-.976-5.28-1.517-8.157-1.517-12.528 0-22.684 10.156-22.684 22.684s10.156 22.684 22.684 22.684c2.877 0 5.626-.541 8.158-1.518-8.496-3.276-14.527-11.514-14.527-21.166z" fill="#e41f2d"/></g><path d="m490.638 461.692h-41.444v-33.121c0-12.407-10.093-22.5-22.5-22.5h-7.001v-35.806c2.208-3.188 4.048-6.59 5.501-10.156 12.321-.101 22.314-10.151 22.314-22.495v-30.543c0-9.252-5.614-17.214-13.613-20.667 6.229-6.968 10.025-16.154 10.025-26.213 0-10.462-4.112-19.971-10.791-27.03 9.484-4.468 16.066-14.115 16.066-25.275 0-12.034-7.652-22.315-18.346-26.232 1.612-3.407 2.52-7.21 2.52-11.223 0-3.653-.753-7.132-2.104-10.296 10.223-2.117 17.93-11.191 17.93-22.033v-25.622c0-12.407-10.093-22.5-22.5-22.5h-54.695c-4.142 0-7.5 3.358-7.5 7.5s3.358 7.5 7.5 7.5h54.694c4.136 0 7.5 3.364 7.5 7.5v25.621c0 4.136-3.364 7.5-7.5 7.5h-341.388c-4.136 0-7.5-3.364-7.5-7.5v-25.621c0-4.136 3.364-7.5 7.5-7.5h250.694c4.142 0 7.5-3.358 7.5-7.5s-3.358-7.5-7.5-7.5h-72.5v-30.555c13.027-3.343 22.684-15.185 22.684-29.241 0-16.643-13.54-30.184-30.184-30.184s-30.184 13.541-30.184 30.184c0 14.056 9.657 25.897 22.684 29.241v30.555h-163.194c-12.407 0-22.5 10.093-22.5 22.5v25.621c0 10.841 7.707 19.915 17.93 22.033-1.352 3.164-2.104 6.643-2.104 10.296 0 4.013.908 7.816 2.52 11.223-10.694 3.917-18.346 14.198-18.346 26.232 0 11.16 6.582 20.807 16.066 25.275-6.678 7.059-10.791 16.569-10.791 27.03 0 10.059 3.796 19.245 10.025 26.213-7.999 3.453-13.613 11.415-13.613 20.667v30.543c0 12.344 9.993 22.394 22.314 22.495 1.453 3.565 3.294 6.968 5.501 10.156v35.806h-7.001c-12.407 0-22.5 10.093-22.5 22.5v33.121h-41.445c-6.893 0-12.5 5.607-12.5 12.5v25.309c0 6.893 5.607 12.5 12.5 12.5h469.276c6.893 0 12.5-5.607 12.5-12.5v-25.308c0-6.893-5.607-12.5-12.5-12.5zm-249.822-431.508c0-8.372 6.811-15.184 15.184-15.184s15.184 6.812 15.184 15.184-6.811 15.185-15.184 15.185-15.184-6.812-15.184-15.185zm78.367 130.417h93.479c3.404 1.96 5.706 5.627 5.706 9.829 0 3.997-2.083 7.51-5.215 9.53h-93.97zm-111.366 0h96.366v19.359h-96.366zm-130.011 47.284c0-7.127 5.798-12.925 12.925-12.925h55.269c4.142 0 7.5-3.358 7.5-7.5s-3.358-7.5-7.5-7.5h-47.153c-3.132-2.021-5.215-5.534-5.215-9.53 0-4.202 2.302-7.869 5.706-9.829h93.479v19.359h-11.817c-4.142 0-7.5 3.358-7.5 7.5s3.358 7.5 7.5 7.5h240.27c7.127 0 12.925 5.798 12.925 12.925s-5.798 12.925-12.925 12.925h-330.54c-7.126.001-12.924-5.798-12.924-12.925zm29.655 76.686c-13.443 0-24.38-10.937-24.38-24.38 0-12.881 10.043-23.454 22.708-24.316 3.468 16.911 18.14 30.002 35.665 30.517 8.669.264 17.04-2.464 23.813-7.61 6.476 4.908 14.423 7.627 22.68 7.627 8.259 0 16.208-2.72 22.684-7.631 6.477 4.911 14.426 7.631 22.685 7.631s16.207-2.72 22.684-7.63c6.477 4.91 14.425 7.63 22.684 7.63 8.258 0 16.208-2.72 22.685-7.631 6.477 4.911 14.425 7.631 22.684 7.631 8.256 0 16.204-2.719 22.679-7.627 6.482 4.925 14.412 7.627 22.693 7.627.373 0 .747-.005 1.121-.017 17.525-.515 32.197-13.606 35.665-30.517 12.666.863 22.708 11.435 22.708 24.316 0 13.443-10.937 24.38-24.38 24.38zm246.445 15-41.877 22.455c-2.529 1.357-5.549 1.356-8.079 0l-32.079-17.201 9.798-5.254zm-103.979 0-41.877 22.455c-2.529 1.356-5.549 1.356-8.079 0l-41.877-22.455zm-128.645-63.76h269.436c-3.024 8.81-11.119 15.309-20.613 15.587-6.809.185-13.247-2.628-17.711-7.757-1.424-1.637-3.488-2.576-5.657-2.576-2.17 0-4.233.939-5.657 2.576-4.296 4.936-10.502 7.767-17.027 7.767s-12.73-2.831-17.027-7.767c-1.424-1.637-3.487-2.576-5.657-2.576-2.169 0-4.233.939-5.657 2.576-4.296 4.937-10.503 7.768-17.027 7.768s-12.73-2.831-17.027-7.767c-1.424-1.637-3.488-2.576-5.657-2.576s-4.233.939-5.657 2.576c-4.296 4.936-10.502 7.767-17.027 7.767s-12.731-2.831-17.027-7.768c-1.424-1.636-3.488-2.576-5.657-2.576-2.17 0-4.233.939-5.657 2.576-4.296 4.936-10.502 7.767-17.027 7.767s-12.73-2.831-17.027-7.767c-1.424-1.637-3.487-2.576-5.657-2.576-2.169 0-4.233.939-5.657 2.576-4.464 5.129-10.931 7.95-17.711 7.757-9.496-.279-17.591-6.777-20.615-15.587zm-34.29 109.303c-4.136 0-7.5-3.364-7.5-7.5v-30.543c0-4.136 3.364-7.5 7.5-7.5h20.469 18.891l66.531 35.674c3.483 1.868 7.305 2.802 11.127 2.802s7.644-.934 11.128-2.802l40.862-21.91 40.862 21.911c3.484 1.868 7.306 2.802 11.127 2.802s7.644-.934 11.127-2.802l66.531-35.674h18.891 20.469c4.136 0 7.5 3.364 7.5 7.5v30.543c0 4.136-3.364 7.5-7.5 7.5h-338.015zm321.339 15c-6.806 10.876-18.893 18.164-32.512 18.164-13.62 0-25.707-7.288-32.513-18.164zm-73.98 13.361c-5.49 3.053-11.781 4.803-18.441 4.803-13.619 0-25.706-7.288-32.512-18.164h43.061c1.953 4.787 4.592 9.288 7.892 13.361zm-59.909 0c-5.49 3.053-11.781 4.803-18.442 4.803-13.619 0-25.706-7.288-32.512-18.164h43.061c1.954 4.787 4.593 9.288 7.893 13.361zm-59.91 0c-5.49 3.053-11.781 4.803-18.442 4.803-13.619 0-25.706-7.288-32.512-18.164h43.061c1.954 4.787 4.593 9.288 7.893 13.361zm-59.91 0c-5.49 3.053-11.781 4.803-18.442 4.803-13.619 0-25.706-7.288-32.512-18.164h43.061c1.955 4.787 4.593 9.288 7.893 13.361zm-76.816 55.096c0-4.136 3.364-7.5 7.5-7.5h68.694c4.142 0 7.5-3.358 7.5-7.5s-3.358-7.5-7.5-7.5h-46.693v-21.28c8.536 5.518 18.486 8.487 28.874 8.487 10.829 0 21.178-3.233 29.948-9.215 8.774 5.983 19.129 9.215 29.962 9.215 10.829 0 21.178-3.233 29.948-9.215 8.774 5.983 19.129 9.215 29.962 9.215 10.829 0 21.178-3.233 29.948-9.215 8.774 5.983 19.129 9.215 29.962 9.215 10.829 0 21.178-3.233 29.948-9.215 8.774 5.983 19.129 9.215 29.962 9.215 10.387 0 20.337-2.969 28.874-8.487v21.28h-214.695c-4.142 0-7.5 3.358-7.5 7.5s3.358 7.5 7.5 7.5h236.694c4.136 0 7.5 3.364 7.5 7.5v33.121h-356.388zm410.332 68.429h-464.276v-20.308h38.944 386.389 38.944v20.308z"/></g></svg>