<svg id="Capa_1" enable-background="new 0 0 512 512" height="512" viewBox="0 0 512 512" width="512" xmlns="http://www.w3.org/2000/svg"><g><g><path d="m83.189 220.19h32.555v-10.05c0-10.631-8.618-19.249-19.249-19.249h-33.924c-13.784 0-24.958 11.174-24.958 24.958 0 12.456 9.126 22.779 21.056 24.653 2.179-11.563 12.325-20.312 24.52-20.312z" fill="#ffbd86"/><path d="m68.787 224.771c-5.948-4.562-9.787-11.737-9.787-19.812 0-5.219 1.604-10.062 4.343-14.068h-.771c-13.784 0-24.958 11.174-24.958 24.958 0 12.456 9.126 22.779 21.056 24.653 1.219-6.475 4.937-12.063 10.117-15.731z" fill="#f6a96c"/><path d="m117.113 220.19c10.631 0 19.249 8.618 19.249 19.249 0-10.631 8.618-19.249 19.249-19.249h38.264v-10.05c0-10.631-8.618-19.249-19.249-19.249h-39.634c-10.631 0-19.249 8.618-19.249 19.249v10.05z" fill="#ffbd86"/><path d="m117.113 220.19c10.631 0 19.249 8.618 19.249 19.249 0-7.777 4.622-14.461 11.261-17.497-6.294-3.165-10.623-9.665-10.623-17.19v-11.42c0-.829.07-1.64.172-2.441h-2.179c-10.631 0-19.249 8.618-19.249 19.249v10.05z" fill="#f6a96c"/><path d="m195.244 220.19c10.631 0 19.249 8.618 19.249 19.249 0-10.631 8.618-19.249 19.249-19.249h38.264v-10.05c0-10.631-8.618-19.249-19.249-19.249h-39.634c-10.631 0-19.249 8.618-19.249 19.249v10.05z" fill="#ffbd86"/><path d="m195.244 220.19c10.631 0 19.249 8.618 19.249 19.249 0-6.065 2.811-11.467 7.195-14.995-3.585-3.496-5.819-8.372-5.819-13.775v-11.42c0-2.999.706-5.827 1.93-8.358h-4.675c-10.631 0-19.249 8.618-19.249 19.249v10.05z" fill="#f6a96c"/><path d="m273.375 220.19c10.631 0 19.249 8.618 19.249 19.249 0-10.631 8.618-19.249 19.249-19.249h38.264v-13.022c0-8.99-7.288-16.277-16.277-16.277h-42.605c-10.631 0-19.249 8.618-19.249 19.249v10.05z" fill="#ffbd86"/><path d="m273.375 220.19c10.631 0 19.249 8.618 19.249 19.249 0-9.356 6.677-17.146 15.524-18.881-5-3.477-8.279-9.255-8.279-15.806v-11.42c0-.829.07-1.64.172-2.441h-8.786c-10.631 0-19.249 8.618-19.249 19.249v10.05z" fill="#f6a96c"/></g><g><g><path d="m117.113 270.107h-33.924c-13.784 0-24.958-11.174-24.958-24.958 0-13.784 11.174-24.958 24.958-24.958h33.924c10.631 0 19.249 8.618 19.249 19.249v11.42c0 10.629-8.618 19.247-19.249 19.247z" fill="#d88a55"/></g><g><path d="m133.751 254h-33.923c-13.784 0-24.958-11.174-24.958-24.958 0-2.737.447-5.368 1.261-7.832-10.345 3.046-17.899 12.608-17.899 23.939 0 13.784 11.174 24.958 24.958 24.958h33.924c9.613 0 17.558-7.055 18.994-16.266-.774.095-1.557.159-2.357.159z" fill="#c57a44"/></g><g><path d="m195.244 270.107h-39.634c-10.631 0-19.249-8.618-19.249-19.249v-11.42c0-10.631 8.618-19.249 19.249-19.249h39.634c10.631 0 19.249 8.618 19.249 19.249v11.42c0 10.631-8.618 19.249-19.249 19.249z" fill="#d88a55"/></g><g><path d="m211.751 254h-39.634c-10.631 0-19.249-8.618-19.249-19.249v-11.42c0-1.01.101-1.995.251-2.963-9.451 1.224-16.758 9.285-16.758 19.07v11.419c0 10.631 8.618 19.249 19.249 19.249h39.633c9.621 0 17.569-7.066 18.998-16.286-.816.107-1.644.18-2.49.18z" fill="#c57a44"/></g><g><path d="m273.375 270.107h-39.633c-10.631 0-19.249-8.618-19.249-19.249v-11.42c0-10.631 8.618-19.249 19.249-19.249h39.633c10.631 0 19.249 8.618 19.249 19.249v11.42c0 10.631-8.618 19.249-19.249 19.249z" fill="#d88a55"/></g><g><path d="m255.249 254c-10.631 0-19.249-8.618-19.249-19.249v-11.42c0-1.072.11-2.117.279-3.142h-2.537c-10.631 0-19.249 8.618-19.249 19.249v11.419c0 10.631 8.618 19.249 19.249 19.249h39.634c9.558 0 17.467-6.974 18.97-16.107h-37.097z" fill="#c57a44"/></g><g><path d="m354.478 270.107h-42.605c-10.631 0-19.249-8.618-19.249-19.249v-11.42c0-10.631 8.618-19.249 19.249-19.249h42.605c8.99 0 16.277 7.288 16.277 16.277v17.362c0 8.991-7.288 16.279-16.277 16.279z" fill="#d88a55"/></g><g><path d="m370.723 254h-42.605c-10.631 0-19.249-8.618-19.249-19.249v-11.42c0-.996.099-1.967.245-2.922-9.32 1.341-16.49 9.337-16.49 19.029v11.419c0 10.631 8.618 19.249 19.249 19.249h42.605c8.933 0 16.177-7.197 16.269-16.108-.009.001-.016.002-.024.002z" fill="#c57a44"/></g></g><g><path d="m126.497 464.264h189.747c.451-.303.895-.617 1.343-.924-31.409-9.267-55.185-37.313-57.591-71.372-.088-1.242.332-2.427 1.181-3.338.848-.91 2-1.412 3.242-1.412h114.68c6.643-16.233 10.861-33.715 12.185-52.002h-339.825c3.894 53.781 32.75 100.641 75.038 129.048z" fill="#acc7e4"/><path d="m95.468 335.216h-43.998c3.851 53.157 32.078 99.551 73.571 128.048h43.99c-41.49-28.497-69.713-74.892-73.563-128.048z" fill="#8fb0c5"/><g><path d="m408.017 335.216h-373.293c-2.997 0-5.426-2.429-5.426-5.426v-19.533c0-2.997 2.429-5.426 5.426-5.426h373.293c2.997 0 5.426 2.429 5.426 5.426v19.533c0 2.997-2.429 5.426-5.426 5.426z" fill="#eaf6ff"/></g><g><path d="m78.856 329.79v-19.533c0-2.997 2.429-5.426 5.426-5.426h-49.558c-2.997 0-5.426 2.429-5.426 5.426v19.533c0 2.997 2.429 5.426 5.426 5.426h49.557c-2.996 0-5.425-2.429-5.425-5.426z" fill="#d8ecfe"/></g><path d="m313.925 463.264h52.509c30.309-10.326 52.581-38.02 54.927-71.226.222-3.143-2.269-5.82-5.42-5.82h-151.523c-3.151 0-5.642 2.677-5.42 5.82 2.346 33.207 24.618 60.9 54.927 71.226z" fill="#fd4755"/><path d="m313.925 463.264h38.053c-30.326-10.316-52.617-38.008-54.964-71.226-.222-3.143 2.269-5.82 5.42-5.82h-38.016c-3.151 0-5.642 2.677-5.42 5.82 2.346 33.207 24.618 60.9 54.927 71.226z" fill="#fb2b3a"/></g><g><path d="m439.134 504.5h-410.216c-3.288 0-5.954-2.666-5.954-5.954v-29.327c0-3.288 2.666-5.954 5.954-5.954h410.216c3.288 0 5.954 2.666 5.954 5.954v29.327c0 3.288-2.666 5.954-5.954 5.954z" fill="#ffbd86"/></g><g><path d="m72 498.546v-29.327c0-3.289 2.666-5.954 5.954-5.954h-49.036c-3.289 0-5.954 2.666-5.954 5.954v29.327c0 3.289 2.666 5.954 5.954 5.954h49.037c-3.289 0-5.955-2.666-5.955-5.954z" fill="#f6a96c"/></g><g><path d="m219.918 97.472h104.175c6.037 0 10.948 4.911 10.948 10.948 0 6.036-4.911 10.947-10.948 10.947h-58.598c-14.308 0-25.948 11.64-25.948 25.948v15.192c0 4.142 3.358 7.5 7.5 7.5s7.5-3.358 7.5-7.5v-15.192c0-6.037 4.911-10.948 10.948-10.948h58.598c14.308 0 25.948-11.64 25.948-25.947s-11.64-25.948-25.948-25.948h-104.175c-7.832 0-14.203-6.372-14.203-14.203s6.371-14.203 14.203-14.203h49.082c4.142 0 7.5-3.358 7.5-7.5s-3.358-7.5-7.5-7.5h-49.082c-16.103 0-29.203 13.101-29.203 29.203s13.101 29.203 29.203 29.203z"/><path d="m120.084 134.367h47.747c6.036 0 10.947 4.911 10.947 10.948v15.192c0 4.142 3.358 7.5 7.5 7.5s7.5-3.358 7.5-7.5v-15.192c0-14.308-11.64-25.948-25.947-25.948h-47.747c-6.036 0-10.947-4.911-10.947-10.947 0-6.037 4.911-10.948 10.947-10.948h39.065c4.142 0 7.5-3.358 7.5-7.5s-3.358-7.5-7.5-7.5h-39.065c-14.308 0-25.947 11.64-25.947 25.948s11.64 25.947 25.947 25.947z"/><path d="m304.561 54.065h51.002c14.307 0 25.947-11.64 25.947-25.948 0-15.503-12.614-28.117-28.117-28.117h-22.788c-4.142 0-7.5 3.358-7.5 7.5s3.358 7.5 7.5 7.5h22.788c7.233 0 13.118 5.885 13.118 13.118 0 6.036-4.911 10.947-10.947 10.947h-51.002c-4.142 0-7.5 3.358-7.5 7.5s3.356 7.5 7.499 7.5z"/><path d="m489.037 237.648h-110.782v-1.181c0-4.846-1.46-9.355-3.959-13.118h94.123c4.142 0 7.5-3.358 7.5-7.5s-3.358-7.5-7.5-7.5h-110.782v-1.181c0-13.111-10.667-23.777-23.777-23.777h-42.605c-7.553 0-14.38 3.152-19.249 8.204-4.869-5.052-11.695-8.204-19.249-8.204h-39.634c-7.553 0-14.38 3.152-19.249 8.204-4.869-5.052-11.695-8.204-19.249-8.204h-39.634c-7.553 0-14.38 3.152-19.249 8.204-4.869-5.052-11.696-8.204-19.249-8.204h-33.922c-17.897 0-32.458 14.561-32.458 32.459 0 13.728 8.572 25.479 20.641 30.213.169 6.08 2.027 11.74 5.108 16.544h-11.371c-4.142 0-7.5 3.358-7.5 7.5s3.358 7.5 7.5 7.5h28.31v19.725h-38.076c-7.127 0-12.926 5.798-12.926 12.926v19.533c0 7.127 5.798 12.926 12.926 12.926h9.919c5.032 44.796 26.761 84.606 58.807 113.048h-74.533c-7.419 0-13.455 6.036-13.455 13.455v29.327c0 7.419 6.036 13.455 13.455 13.455h410.215c7.419 0 13.455-6.036 13.455-13.455v-29.327c0-7.419-6.036-13.455-13.455-13.455h-43.748c18.899-15.025 31.646-37.573 33.457-63.197.252-3.568-1.002-7.115-3.441-9.732-2.438-2.616-5.886-4.117-9.46-4.117h-25.755c3.834-11.527 6.523-23.571 7.921-36.002h9.91c7.127 0 12.926-5.798 12.926-12.926v-19.533c0-7.127-5.798-12.926-12.926-12.926h-38.077v-19.725h28.31c4.142 0 7.5-3.358 7.5-7.5s-3.358-7.5-7.5-7.5h-21.695c1.086-2.719 1.7-5.675 1.7-8.777v-1.181h110.782c4.142 0 7.5-3.358 7.5-7.5s-3.358-7.501-7.5-7.501zm-134.559-9.958c4.84 0 8.777 3.938 8.777 8.777v17.362c0 4.84-3.938 8.777-8.777 8.777h-42.605c-6.478 0-11.749-5.271-11.749-11.749v-11.42c0-6.478 5.271-11.749 11.749-11.749h42.605zm.462 49.917v19.725h-55.535v-19.725zm-75.434-67.467c0-6.479 5.271-11.749 11.749-11.749h42.605c4.84 0 8.777 3.938 8.777 8.777v5.522h-30.765c-7.553 0-14.38 3.152-19.249 8.204-3.508-3.64-8.037-6.286-13.118-7.485v-3.269zm-6.131 17.55c6.479 0 11.749 5.271 11.749 11.749v11.42c0 6.478-5.271 11.749-11.749 11.749h-39.633c-6.479 0-11.749-5.271-11.749-11.749v-11.42c0-6.478 5.271-11.749 11.749-11.749zm11.031 49.917v19.725h-55.535v-19.725zm-83.031-67.467c0-6.479 5.271-11.749 11.749-11.749h39.634c6.478 0 11.749 5.271 11.749 11.749v2.55h-30.764c-7.553 0-14.38 3.152-19.249 8.204-3.508-3.64-8.037-6.286-13.118-7.484v-3.27zm-6.131 17.55c6.478 0 11.749 5.271 11.749 11.749v11.42c0 6.478-5.271 11.749-11.749 11.749h-39.633c-6.479 0-11.749-5.271-11.749-11.749v-11.42c0-6.478 5.271-11.749 11.749-11.749zm18.627 49.917v19.725h-55.535v-19.725zm-90.627-67.467c0-6.479 5.271-11.749 11.749-11.749h39.634c6.478 0 11.749 5.271 11.749 11.749v2.55h-30.764c-7.553 0-14.38 3.152-19.249 8.204-3.508-3.64-8.037-6.286-13.118-7.484v-3.27zm20.092 67.467v19.725h-55.535v-19.725zm-89.358-46.599c-5.284-3-8.865-8.659-8.865-15.159 0-9.626 7.832-17.458 17.458-17.458h33.924c6.479 0 11.749 5.271 11.749 11.749v2.55h-25.055c-12.831 0-23.946 7.486-29.211 18.318zm11.753 14.14c0-9.626 7.832-17.458 17.458-17.458h33.924c6.478 0 11.749 5.271 11.749 11.749v11.42c0 6.478-5.271 11.749-11.749 11.749h-33.924c-9.626-.001-17.458-7.833-17.458-17.46zm347.959 148.57c-2.91 28.825-22.511 52.634-48.678 62.046h-49.664c-26.167-9.412-45.769-33.221-48.679-62.046h56.331c4.142 0 7.5-3.358 7.5-7.5s-3.358-7.5-7.5-7.5h-58.582c-3.574 0-7.022 1.5-9.46 4.117-2.439 2.618-3.693 6.165-3.441 9.732 1.81 25.624 14.557 48.171 33.457 63.197h-72.974c-4.142 0-7.5 3.358-7.5 7.5s3.358 7.5 7.5 7.5h225.588v26.236h-407.125v-26.236h145.537c4.142 0 7.5-3.358 7.5-7.5s-3.358-7.5-7.5-7.5h-48.46c-36.583-25.882-62.061-66.449-67.79-113.048h323.255c-1.537 12.49-4.498 24.544-8.707 36.002h-15.298c-4.142 0-7.5 3.358-7.5 7.5s3.358 7.5 7.5 7.5zm-7.747-81.386v15.384h-369.144v-15.384z"/></g></g></svg>