<svg id="Capa_1" enable-background="new 0 0 512 512" height="512" viewBox="0 0 512 512" width="512" xmlns="http://www.w3.org/2000/svg"><g><g fill="#acc7e4"><path d="m218.784 221.47v-27.606c0-8.124-6.243-15.114-14.358-15.497-8.664-.408-15.817 6.496-15.817 15.071v19.494c9.844 3.686 19.941 6.527 30.175 8.538z"/><path d="m323.392 212.931v-19.494c0-8.575-7.153-15.479-15.817-15.071-8.115.382-14.358 7.373-14.358 15.497v27.606c10.233-2.01 20.33-4.851 30.175-8.538z"/><path d="m293.216 293.928v19.018c0 20.323-16.003 37.424-36.321 37.904-20.929.494-38.112-16.386-38.112-37.205v-19.717c-10.149-1.436-20.225-3.47-30.176-6.088v25.805c0 29.483 19.037 54.587 45.461 63.706 4.079 1.408 6.844 5.21 6.844 9.525v82.419h30.175v-82.419c0-4.315 2.764-8.118 6.844-9.525 26.424-9.119 45.461-34.224 45.461-63.706v-25.805c-9.951 2.618-20.027 4.652-30.176 6.088z"/></g><g><g><path d="m441.356 220.023c-101.707 102.038-269.006 102.038-370.713 0-15.543-15.594-13.632-41.334 4.181-54.275 14.317-10.402 33.983-8.654 46.495 3.861 73.964 73.979 195.396 73.979 269.36 0 12.512-12.515 32.178-14.263 46.495-3.861 17.814 12.942 19.726 38.681 4.182 54.275z" fill="#ea9b58"/></g></g><g><g><path d="m97.765 203.471c-12.203-12.243-13.642-30.736-5.08-44.383-6.268.533-12.447 2.726-17.861 6.66-17.813 12.941-19.724 38.681-4.181 54.275 90.674 90.969 233.479 100.833 335.464 29.6-99.009 52.383-225.455 37.005-308.342-46.152z" fill="#d88a55"/></g></g><g><path d="m274.637 504.5h-37.275c-2.761 0-5-2.239-5-5v-25.205c0-2.761 2.239-5 5-5h37.275c2.761 0 5 2.239 5 5v25.205c0 2.761-2.238 5-5 5z" fill="#883f2e"/></g><g><path d="m254 499.5v-25.205c0-2.761 2.239-5 5-5h-21.637c-2.761 0-5 2.239-5 5v25.205c0 2.761 2.239 5 5 5h21.637c-2.761 0-5-2.239-5-5z" fill="#6d3326"/></g><g><path d="m459.241 191.175c-1.001-12.59-7.437-24.069-17.657-31.494-17.313-12.581-40.953-10.633-56.207 4.626-15.946 15.949-34.392 28.566-54.485 37.515v-8.384c0-6.145-2.551-12.103-6.998-16.345-4.51-4.304-10.436-6.494-16.672-6.218-12.059.567-21.505 10.666-21.505 22.989v21.359c-9.727 1.561-19.654 2.37-29.717 2.37s-19.99-.809-29.717-2.37v-21.359c0-12.323-9.446-22.422-21.505-22.988-6.23-.295-12.161 1.914-16.672 6.217-4.447 4.242-6.998 10.2-6.998 16.345v8.384c-20.094-8.949-38.539-21.566-54.485-37.515-15.257-15.26-38.896-17.204-56.207-4.626-10.221 7.425-16.656 18.904-17.657 31.494-1.008 12.671 3.575 25.116 12.573 34.144 32.353 32.458 71.982 55.747 115.776 68.254v20.073c0 31.918 20.3 60.368 50.515 70.796 1.07.369 1.789 1.348 1.789 2.436v75.568c-4.96 1.658-8.55 6.339-8.55 11.85v25.204c0 6.893 5.607 12.5 12.5 12.5h37.275c6.893 0 12.5-5.607 12.5-12.5v-25.205c0-5.511-3.589-10.192-8.55-11.85v-17.445c0-4.143-3.357-7.5-7.5-7.5s-7.5 3.357-7.5 7.5v16.795h-15.176v-74.918c0-7.483-4.781-14.16-11.896-16.615-24.169-8.341-40.407-31.093-40.407-56.616v-16.249c3.673.826 7.37 1.585 11.093 2.261 1.36.247 2.721.468 4.082.695v13.292c0 12.128 4.79 23.486 13.488 31.98 8.693 8.49 20.213 13.018 32.301 12.722 24.065-.568 43.645-20.935 43.645-45.401v-12.545c5.083-.847 10.144-1.832 15.175-2.97v16.215c0 25.523-16.238 48.275-40.407 56.616-7.115 2.455-11.896 9.132-11.896 16.615v22.123c0 4.143 3.357 7.5 7.5 7.5s7.5-3.357 7.5-7.5v-22.123c0-1.088.719-2.066 1.789-2.436 30.215-10.428 50.515-38.878 50.515-70.796v-20.052c10.871-3.123 21.58-6.935 32.066-11.436 3.807-1.634 5.567-6.043 3.934-9.85-1.634-3.806-6.043-5.569-9.85-3.934-46.335 19.888-97.222 25.602-147.159 16.526-51.119-9.291-97.43-33.556-133.928-70.172-5.898-5.918-8.903-14.069-8.244-22.364.653-8.214 4.853-15.703 11.521-20.549 11.309-8.215 26.777-6.912 36.783 3.097 6.569 6.57 13.535 12.607 20.835 18.113v33.465c0 4.143 3.357 7.5 7.5 7.5s7.5-3.357 7.5-7.5v-23.205c9.34 5.771 19.126 10.733 29.273 14.844-.002.07-.015.137-.015.207v23.188c0 4.143 3.357 7.5 7.5 7.5s7.5-3.357 7.5-7.5v-18.028c9.995 3.131 20.273 5.483 30.766 7.004v26.058c0 4.143 3.357 7.5 7.5 7.5s7.5-3.357 7.5-7.5v-24.459c4.678.324 9.388.494 14.126.494s9.448-.17 14.126-.494v24.459c0 4.143 3.357 7.5 7.5 7.5s7.5-3.357 7.5-7.5v-26.058c10.492-1.521 20.771-3.873 30.766-7.004v18.028c0 4.143 3.357 7.5 7.5 7.5s7.5-3.357 7.5-7.5v-23.401c10.142-4.11 19.922-9.07 29.258-14.838v23.205c0 4.143 3.357 7.5 7.5 7.5s7.5-3.357 7.5-7.5v-33.465c7.3-5.506 14.266-11.543 20.835-18.113 10.008-10.009 25.476-11.311 36.783-3.097 6.669 4.846 10.868 12.335 11.521 20.549.659 8.295-2.346 16.446-8.244 22.364-14.427 14.473-30.553 27.146-47.93 37.67-3.543 2.146-4.676 6.757-2.53 10.3 2.146 3.544 6.758 4.675 10.3 2.53 18.415-11.15 35.501-24.578 50.783-39.91 8.997-9.026 13.58-21.471 12.572-34.142zm-187.103 305.825h-32.275v-20.205h32.275zm13.579-194.528v10.474c0 16.389-13.009 30.028-28.999 30.405-8.054.178-15.688-2.813-21.467-8.457-5.783-5.648-8.968-13.194-8.968-21.249v-11.209c9.995 1.103 20 1.659 29.981 1.659 9.858.001 19.687-.554 29.453-1.623zm-89.609-109.034c0-2.095.835-4.045 2.352-5.491 1.515-1.445 3.501-2.188 5.613-2.087 3.976.187 7.21 3.777 7.21 8.005v18.319c-5.135-1.271-10.194-2.772-15.175-4.476zm104.609.426c0-4.228 3.234-7.818 7.21-8.006 2.108-.099 4.099.643 5.613 2.088 1.517 1.446 2.352 3.396 2.352 5.491v14.269c-4.981 1.704-10.04 3.206-15.175 4.476z"/><path d="m304.5 86.962c0 4.143 3.357 7.5 7.5 7.5h30.513c6.402 0 11.611 5.209 11.611 11.611s-5.209 11.611-11.611 11.611h-68.397c-14.674 0-26.611 11.938-26.611 26.61v29.17c0 4.143 3.357 7.5 7.5 7.5s7.5-3.357 7.5-7.5v-29.17c0-6.402 5.209-11.61 11.611-11.61h68.397c14.674 0 26.611-11.938 26.611-26.611s-11.938-26.611-26.611-26.611h-30.513c-4.143 0-7.5 3.357-7.5 7.5z"/><path d="m217.274 94.462h58.843c4.143 0 7.5-3.357 7.5-7.5s-3.357-7.5-7.5-7.5h-58.843c-8.343 0-15.131-6.788-15.131-15.132 0-8.343 6.788-15.131 15.131-15.131h82.982c13.564 0 24.6-11.035 24.6-24.6s-11.035-24.599-24.599-24.599h-37.216c-4.143 0-7.5 3.357-7.5 7.5s3.357 7.5 7.5 7.5h37.216c5.293 0 9.6 4.307 9.6 9.6s-4.307 9.6-9.6 9.6h-82.982c-16.614 0-30.131 13.517-30.131 30.131s13.516 30.131 30.13 30.131z"/></g></g></svg>