<svg id="Capa_1" enable-background="new 0 0 512 512" height="512" viewBox="0 0 512 512" width="512" xmlns="http://www.w3.org/2000/svg"><g><path d="m435.924 25.086c-11.937-11.937-31.537-11.079-42.385 1.855l-50.29 59.961 18.912 23.643c2.106-.639 4.339-.985 6.653-.985 4.163 0 8.062 1.116 11.426 3.058l53.828-45.146c12.935-10.849 13.793-30.45 1.856-42.386z" fill="#acc7e4"/><path d="m435.924 25.086c-11.937-11.937-31.537-11.079-42.385 1.855l-50.29 59.961 14.747 18.436 56.957-67.911c5.906-7.042 14.406-10.495 22.852-10.262-.589-.714-1.212-1.41-1.881-2.079z" fill="#8fb0c5"/><path d="m97.227 147.902c4.458-3.522 10.084-5.63 16.206-5.63.183 0 .363.012.544.016l22.891-28.617c-1.868-3.002-4.031-5.878-6.518-8.572-13.35-14.463-32.471-20.409-50.559-17.579-1.313.205-2.36 1.172-2.67 2.464-4.265 17.804.134 37.339 13.485 51.802 2.076 2.246 4.294 4.281 6.621 6.116z" fill="#80d261"/><path d="m414.242 175.655-116.41-145.531c-24.129-30.165-70.006-30.165-94.135 0l-116.41 145.531z" fill="#eaf6ff"/><g><path d="m188.504 96.248h-37.699l-36.826 46.039c7.959.163 15.045 3.871 19.737 9.619 4.799-5.879 12.1-9.635 20.281-9.635 1.215 0 2.408.09 3.579.25l36.403-45.51c-1.77-.49-3.607-.763-5.475-.763z" fill="#d8ecfe"/></g><g><path d="m203.01 102.257 4.244 4.244c8.012 8.012 21.001 8.012 29.012 0l4.236-4.236c8.012-8.012 21.001-8.012 29.012 0l.699.699c8.012 8.012 21.001 8.012 29.012 0 3.847-3.847 9.065-6.009 14.506-6.009h37.558l-53.458-66.832c-24.129-30.165-70.006-30.165-94.135 0l-52.892 66.124h37.699c5.442.001 10.66 2.162 14.507 6.01z" fill="#fe646f"/></g><g><path d="m203.697 30.124-52.892 66.124h37.699c1.868 0 3.705.273 5.475.763l53.503-66.887c6.937-8.673 15.676-14.838 25.175-18.523-23.54-9.135-51.768-2.97-68.96 18.523z" fill="#fd4755"/></g><g><g><path d="m368.41 154.509c0-.001-.001-.002-.001-.003 4.513-6.362 11.895-10.54 20.263-10.652 1.931-3.357 3.041-7.246 3.041-11.396 0-12.646-10.252-22.898-22.898-22.898s-22.898 10.252-22.898 22.898c0 2.217.321 4.359.909 6.386 9.343 1.685 17.221 7.583 21.584 15.665z" fill="#fe646f"/><g fill="#3e5690"><path d="m371.577 174.656h42.066c.403-1.79.622-3.649.622-5.561 0-13.946-11.305-25.251-25.251-25.251-8.509 0-16.029 4.213-20.604 10.663 2.344 4.341 3.676 9.309 3.676 14.589-.001 1.898-.179 3.755-.509 5.56z"/><path d="m371.574 174.656c.33-1.805.511-3.661.511-5.561 0-16.982-13.767-30.749-30.749-30.749s-30.749 13.767-30.749 30.749c0 1.9.181 3.756.511 5.561z"/></g></g><g fill="#3e5690"><path d="m128.59 174.656c-.487-1.994-.763-4.071-.763-6.215 0-6.272 2.209-12.027 5.888-16.534-4.799-5.879-12.1-9.635-20.281-9.635-14.453 0-26.169 11.716-26.169 26.169 0 2.142.263 4.222.749 6.215z"/><path d="m179.416 174.656c.486-1.993.749-4.073.749-6.215 0-14.453-11.716-26.169-26.169-26.169s-26.169 11.716-26.169 26.169c0 2.142.263 4.222.749 6.215z"/></g></g><path d="m250.765 445.833c5.567 0 11.029.425 16.356 1.238v-89.965c-5.389.477-10.842.733-16.356.733-5.513 0-10.966-.256-16.356-.733v89.965c5.326-.813 10.789-1.238 16.356-1.238z" fill="#eaf6ff"/><g><path d="m72.658 174.656c-2.821 0-5.084 2.334-5.006 5.154 2.729 98.787 83.667 178.03 183.113 178.03s180.384-79.243 183.113-178.03c.078-2.82-2.186-5.154-5.006-5.154z" fill="#fd4755"/></g><g><g><path d="m119.553 228.629c-4.772-15.497-7.548-31.87-8.016-48.82-.078-2.82 2.186-5.154 5.006-5.154h-43.885c-2.821 0-5.084 2.334-5.006 5.154.468 16.949 3.24 33.323 8.011 48.82z" fill="#fb2b3a"/></g></g><g><path d="m75.667 228.629c23.038 74.825 92.714 129.21 175.097 129.21s152.059-54.385 175.097-129.21z" fill="#fe646f"/></g><g><path d="m113.888 296.382c8.445-7.931 19.801-12.797 32.3-12.797.405 0 .805.022 1.207.032-12.182-16.436-21.682-34.979-27.843-54.988h-43.89c7.814 25.381 21.001 48.405 38.224 67.758.001-.002.002-.003.002-.005z" fill="#fd4755"/></g><g><path d="m387.641 296.382c-8.445-7.931-19.801-12.797-32.3-12.797-13.807 0-26.227 5.929-34.859 15.378-8.632-9.449-21.052-15.378-34.859-15.378s-26.227 5.929-34.859 15.378c-8.632-9.449-21.052-15.378-34.859-15.378s-26.227 5.929-34.859 15.378c-8.632-9.449-21.052-15.378-34.859-15.378-12.499 0-23.855 4.867-32.3 12.797 33.553 37.701 82.436 61.458 136.876 61.458s103.325-23.757 136.878-61.458z" fill="#eaf6ff"/></g><g><path d="m113.885 296.385c33.552 37.701 82.44 61.454 136.88 61.454 7.427 0 14.747-.451 21.943-1.31-51.277-6.122-96.045-33.427-125.312-72.912-.403-.01-.802-.032-1.207-.032-12.499 0-23.855 4.867-32.3 12.797-.002.001-.003.002-.004.003z" fill="#d8ecfe"/></g><g><path d="m327.546 504.5c8.112 0 12.887-9.178 8.169-15.777-18.504-25.888-49.641-42.889-84.951-42.889s-66.447 17.001-84.951 42.889c-4.717 6.6.057 15.777 8.169 15.777z" fill="#eaf6ff"/></g><g><path d="m209.631 488.723c14.563-20.375 36.954-35.237 63.042-40.647-7.06-1.464-14.388-2.242-21.909-2.242-35.31 0-66.447 17.001-84.951 42.889-4.717 6.6.057 15.777 8.169 15.777h43.818c-8.112 0-12.886-9.178-8.169-15.777z" fill="#d8ecfe"/></g><g><path d="m441.227 19.782c-7.172-7.172-17.091-11.034-27.232-10.588-10.134.444-19.685 5.156-26.203 12.927l-44.406 52.945-39.697-49.628c-12.932-16.166-32.222-25.438-52.925-25.438-20.702 0-39.992 9.272-52.924 25.438l-60.753 75.95c-.403-.463-.807-.925-1.225-1.379-14.574-15.788-35.964-23.229-57.231-19.902-4.327.678-7.782 3.868-8.802 8.126-5.014 20.928.693 42.848 15.267 58.636.45.487.909.96 1.371 1.431-3.967 5.299-6.404 11.803-6.67 18.854h-7.139c-3.405 0-6.588 1.345-8.963 3.787-2.377 2.444-3.634 5.667-3.54 9.075 1.376 49.802 21.814 96.406 57.551 131.225 30.051 29.279 68.168 47.511 109.203 52.617v76.979c-27.054 5.742-51.185 21.122-67.197 43.523-3.814 5.336-4.316 12.281-1.31 18.125 3.019 5.868 8.989 9.514 15.581 9.514h153.563c6.592 0 12.563-3.646 15.581-9.514 3.006-5.844 2.504-12.789-1.31-18.125-16.012-22.401-40.143-37.781-67.197-43.523v-20.837c0-4.142-3.358-7.5-7.5-7.5s-7.5 3.358-7.5 7.5v18.686c-2.933-.226-5.885-.352-8.856-.352s-5.923.126-8.856.352v-73.553c2.941.134 5.893.207 8.856.207s5.915-.073 8.856-.207v18.867c0 4.142 3.358 7.5 7.5 7.5s7.5-3.358 7.5-7.5v-20.141c41.035-5.106 79.153-23.338 109.203-52.618 35.736-34.819 56.175-81.422 57.551-131.225.094-3.408-1.163-6.631-3.54-9.075-2.375-2.442-5.559-3.787-8.963-3.787h-7.17c-.812-13.826-10.234-25.376-22.973-29.341.313-1.74.485-3.528.485-5.357 0-7.556-2.777-14.471-7.356-19.794l47.032-39.447c7.771-6.519 12.483-16.069 12.927-26.203.443-10.132-3.416-20.057-10.589-27.23zm-57.015 112.676c0 1.508-.227 2.962-.633 4.34-5.314.891-10.193 3.072-14.316 6.201-4.303-4.602-9.725-8.139-15.829-10.181-.003-.121-.018-.239-.018-.36 0-8.49 6.908-15.398 15.398-15.398s15.398 6.907 15.398 15.398zm-66.037 34.697c.99-11.915 10.996-21.31 23.162-21.31s22.172 9.395 23.161 21.31zm-108.621-132.346c10.069-12.589 25.09-19.809 41.211-19.809s31.142 7.22 41.211 19.809l43.712 54.647h-21.954c-7.483 0-14.519 2.914-19.81 8.205-2.458 2.458-5.727 3.812-9.203 3.812s-6.745-1.354-9.205-3.814l-.697-.697c-5.291-5.292-12.326-8.206-19.809-8.206s-14.518 2.914-19.81 8.206l-4.236 4.236c-5.075 5.075-13.332 5.075-18.406 0l-4.245-4.245c-5.291-5.291-12.326-8.205-19.81-8.205h-22.096zm-125.73 59.754c15.347-1.499 30.5 4.228 41.016 15.621.946 1.025 1.824 2.093 2.669 3.179l-7.428 9.286-10.799-11.73c-2.805-3.047-7.55-3.244-10.597-.438-3.047 2.805-3.244 7.55-.438 10.597l12.355 13.42-.34.425c-4.409.414-8.57 1.684-12.323 3.638-.62-.605-1.228-1.224-1.821-1.866-10.517-11.392-15.011-26.956-12.294-42.132zm40.215 58.539c-2.182 4.245-3.489 9.007-3.679 14.053h-25.53c.665-9.695 8.744-17.384 18.604-17.384 3.941 0 7.593 1.235 10.605 3.331zm126.726 300.231c31.582 0 61.059 14.86 78.85 39.75.75 1.049.431 2.042.174 2.541-.264.514-.907 1.375-2.242 1.375h-153.564c-1.335 0-1.978-.862-2.242-1.375-.257-.499-.575-1.492.174-2.541 17.791-24.89 47.268-39.75 78.85-39.75zm122.591-152.835c-32.987 32.141-76.524 49.842-122.591 49.842-46.066 0-89.604-17.701-122.591-49.842-1.096-1.068-2.173-2.15-3.238-3.242 6.312-4.015 13.647-6.172 21.253-6.172 11.124 0 21.811 4.715 29.321 12.937 1.421 1.555 3.431 2.441 5.538 2.441s4.117-.886 5.538-2.441c7.51-8.222 18.197-12.937 29.321-12.937s21.811 4.715 29.321 12.937c1.421 1.555 3.431 2.441 5.538 2.441s4.117-.886 5.538-2.441c7.51-8.222 18.197-12.937 29.321-12.937s21.811 4.715 29.321 12.937c1.421 1.555 3.431 2.441 5.538 2.441s4.116-.886 5.538-2.441c7.51-8.222 18.197-12.937 29.321-12.937 7.606 0 14.94 2.157 21.253 6.172-1.067 1.092-2.144 2.174-3.24 3.242zm46.888-79.369h-69.48c-4.142 0-7.5 3.358-7.5 7.5s3.358 7.5 7.5 7.5h64.651c-6.706 17.988-16.373 34.811-28.727 49.847-9.143-6.417-20.025-9.892-31.347-9.892-12.765 0-25.112 4.505-34.859 12.553-9.747-8.048-22.094-12.553-34.859-12.553s-25.112 4.505-34.859 12.553c-9.747-8.048-22.094-12.553-34.859-12.553s-25.112 4.505-34.859 12.553c-9.747-8.048-22.094-12.553-34.858-12.553-11.323 0-22.205 3.475-31.348 9.892-12.354-15.036-22.021-31.859-28.727-49.847h228.651c4.142 0 7.5-3.358 7.5-7.5s-3.358-7.5-7.5-7.5h-233.479c-3.437-12.601-5.489-25.654-6.047-38.974h128.527c4.142 0 7.5-3.358 7.5-7.5s-3.358-7.5-7.5-7.5h-16.132c-.679-17.971-15.502-32.384-33.636-32.384-7.613 0-14.642 2.543-20.289 6.821-2.001-1.515-4.175-2.809-6.488-3.852l27.19-33.992h34.094c3.477 0 6.745 1.354 9.203 3.812l4.245 4.245c5.461 5.461 12.636 8.192 19.81 8.192s14.348-2.731 19.81-8.192l4.236-4.236c2.458-2.458 5.727-3.812 9.203-3.812s6.745 1.354 9.205 3.814l.697.697c5.291 5.292 12.326 8.206 19.809 8.206s14.518-2.914 19.81-8.206c2.458-2.458 5.727-3.812 9.203-3.812h33.953l2.938 3.673c-7.03 5.27-11.716 13.505-12.169 22.837-19.11 1.432-34.351 16.956-35.316 36.19h-63.373c-4.142 0-7.5 3.358-7.5 7.5s3.358 7.5 7.5 7.5h186.527c-.562 13.319-2.614 26.373-6.051 38.973zm-284.852-53.974c.665-9.695 8.744-17.384 18.604-17.384s17.939 7.69 18.604 17.384zm271.261 0h-27.121c-.199-3.949-.996-7.743-2.308-11.291 3.134-2.805 7.259-4.521 11.789-4.521 9.132 0 16.67 6.934 17.64 15.812zm30.177-120.797c-.264 6.03-2.956 11.487-7.581 15.366l-50.208 42.11c-3.198-1.146-6.64-1.775-10.227-1.775-1.237 0-2.455.083-3.654.228l-12.217-15.273 46.342-55.254c3.878-4.625 9.336-7.317 15.366-7.581 6.031-.27 11.702 1.941 15.97 6.209s6.473 9.94 6.209 15.97z"/><circle cx="279.265" cy="65.5" r="7.5"/><circle cx="248.265" cy="37.5" r="7.5"/><circle cx="220.265" cy="65.5" r="7.5"/></g></g></svg>