<svg id="Capa_1" enable-background="new 0 0 512 512" height="512" viewBox="0 0 512 512" width="512" xmlns="http://www.w3.org/2000/svg"><g><g><path d="m329.25 15.031c-7.799 0-14.121 6.322-14.121 14.121v174.588h28.242v-174.587c0-7.799-6.323-14.122-14.121-14.122z" fill="#acc7e4"/><path d="m242.114 261.619h74.509c16.164-11.647 26.748-30.612 26.748-51.94v-5.938h-123.004c-2.762 0-5.001 2.239-5.001 5.001v.937c0 21.328 10.584 40.293 26.748 51.94z" fill="#eaf6ff"/><path d="m242.114 261.619h38.613c-16.16-11.645-26.732-30.616-26.732-51.94v-.937c0-2.762 2.239-5.001 5.001-5.001h-38.629c-2.762 0-5.001 2.239-5.001 5.001v.937c0 21.328 10.584 40.293 26.748 51.94z" fill="#d8ecfe"/></g><g fill="#acc7e4"><path d="m418.332 285.846h-42.23v42.686h32.126c8.37 0 15.155-6.785 15.155-15.155v-22.479c.001-2.79-2.261-5.052-5.051-5.052z"/><path d="m54.781 285.846h-42.23c-2.79 0-5.052 2.262-5.052 5.052v22.479c0 8.37 6.785 15.155 15.155 15.155h32.126v-42.686z"/></g><path d="m259.815 363.743c-.118-2.83 2.172-5.182 5.005-5.182h111.283v-91.941c0-2.762-2.239-5.001-5.001-5.001h-311.32c-2.762 0-5.001 2.239-5.001 5.001v200.342c0 16.572 13.434 30.006 30.006 30.006h242.489v-28.924c-38.615-19.394-65.559-58.611-67.461-104.301z" fill="#fd4755"/><path d="m499.491 358.561h-234.672c-2.832 0-5.122 2.352-5.005 5.182 1.903 45.69 28.846 84.907 67.462 104.301v28.924h104.755c2.762 0 5.001-2.239 5.001-5.001v-23.923c38.616-19.394 65.56-58.611 67.462-104.301.12-2.83-2.171-5.182-5.003-5.182z" fill="#fedf74"/><path d="m301.315 363.743c-.118-2.83 2.172-5.182 5.005-5.182h-41.5c-2.832 0-5.122 2.352-5.005 5.182 1.903 45.69 28.846 84.907 67.462 104.301v28.924h41.5v-28.924c-38.616-19.394-65.56-58.611-67.462-104.301z" fill="#fac600"/><g><path d="m98.679 466.962v-200.342c0-2.762 2.239-5.001 5.001-5.001h-43.898c-2.762 0-5.001 2.239-5.001 5.001v200.342c0 16.572 13.434 30.006 30.006 30.006h43.898c-16.572 0-30.006-13.434-30.006-30.006z" fill="#fb2b3a"/></g><g><path d="m508.527 354.915c-2.35-2.449-5.644-3.854-9.036-3.854h-115.888v-15.029h24.626c12.492 0 22.655-10.163 22.655-22.655v-22.479c0-6.921-5.631-12.552-12.552-12.552h-34.729v-11.726c0-6.893-5.608-12.501-12.501-12.501h-35.792c9.727-12.211 15.561-27.651 15.561-44.44v-80.679c0-4.142-3.357-7.5-7.5-7.5s-7.5 3.358-7.5 7.5v67.24h-13.243v-167.087c0-3.651 2.971-6.621 6.622-6.621 3.65 0 6.621 2.97 6.621 6.621v64.847c0 4.142 3.357 7.5 7.5 7.5s7.5-3.358 7.5-7.5v-64.847c0-11.922-9.699-21.621-21.621-21.621-11.923 0-21.622 9.699-21.622 21.621v167.087h-87.261c-6.893 0-12.501 5.608-12.501 12.501v.938c0 16.789 5.834 32.229 15.561 44.44h-163.645c-6.893 0-12.501 5.608-12.501 12.501v11.726h-34.729c-6.921 0-12.552 5.63-12.552 12.551v22.479c0 12.492 10.163 22.655 22.655 22.655h24.626v130.931c0 20.681 16.825 37.506 37.506 37.506h347.245c6.893 0 12.501-5.608 12.501-12.501v-19.395c39.847-21.831 65.56-62.99 67.456-108.519.14-3.369-1.122-6.7-3.462-9.138zm-124.924-61.569h32.281v20.031c0 4.221-3.435 7.655-7.655 7.655h-24.626zm-336.322 27.686h-24.626c-4.221 0-7.655-3.434-7.655-7.655v-20.031h32.281zm175.606-109.792h112.963c-.475 17.388-8.852 32.828-21.654 42.878h-69.654c-12.803-10.05-21.18-25.49-21.655-42.878zm96.89 278.228h-234.989c-12.41 0-22.506-10.096-22.506-22.506v-197.843h306.321v81.942h-103.784c-3.394 0-6.688 1.405-9.039 3.855-2.339 2.439-3.601 5.771-3.46 9.139 1.896 45.527 27.609 86.685 67.457 108.517zm115.449-28.924h-16.226c-4.143 0-7.5 3.358-7.5 7.5s3.357 7.5 7.5 7.5h10.533v13.924h-94.756v-13.924h47.223c4.143 0 7.5-3.358 7.5-7.5s-3.357-7.5-7.5-7.5h-52.916c-35.668-18.595-59.049-54.474-61.637-94.483h229.416c-2.589 40.008-25.969 75.888-61.637 94.483z"/><path d="m70.503 95.969h33.497c4.142 0 7.5-3.358 7.5-7.5s-3.358-7.5-7.5-7.5h-33.497c-5.516 0-10.003-4.488-10.003-10.004s4.487-10.003 10.003-10.003h74.497c4.142 0 7.5-3.358 7.5-7.5s-3.358-7.5-7.5-7.5h-74.497c-13.787 0-25.003 11.216-25.003 25.003s11.216 25.004 25.003 25.004z"/><path d="m132.5 88.469c0 4.142 3.358 7.5 7.5 7.5h23.278c9.678 0 17.552 7.874 17.552 17.552s-7.874 17.552-17.552 17.552h-28.849c-15.877 0-28.794 12.917-28.794 28.794s12.917 28.794 28.794 28.794h7.165c7.606 0 13.794 6.188 13.794 13.794v17.537c0 4.142 3.358 7.5 7.5 7.5s7.5-3.358 7.5-7.5v-17.537c0-15.877-12.917-28.794-28.794-28.794h-7.165c-7.606 0-13.794-6.188-13.794-13.794s6.188-13.794 13.794-13.794h28.849c17.949 0 32.552-14.603 32.552-32.552s-14.603-32.552-32.552-32.552h-23.278c-4.142 0-7.5 3.358-7.5 7.5z"/><path d="m242.642 146.848h16.798c3.918 0 7.105 3.188 7.105 7.105v12.028c0 4.142 3.357 7.5 7.5 7.5s7.5-3.358 7.5-7.5v-12.028c0-12.189-9.916-22.105-22.105-22.105h-16.798c-3.918 0-7.105-3.188-7.105-7.106s3.188-7.105 7.105-7.105h20.402c4.143 0 7.5-3.358 7.5-7.5s-3.357-7.5-7.5-7.5h-20.402c-12.189 0-22.105 9.917-22.105 22.106 0 12.188 9.916 22.105 22.105 22.105z"/></g></g></svg>