<svg id="Capa_1" enable-background="new 0 0 512 512" height="512" viewBox="0 0 512 512" width="512" xmlns="http://www.w3.org/2000/svg"><g><path d="m321.141 348.773h16.265c17.673 0 32 14.327 32 32v2.589c4.177-1.665 8.729-2.589 13.5-2.589 4.636 0 9.065.874 13.145 2.451.261-.113.526-.22.785-.336-2.95-8.943-3.302-18.779-.524-28.298.839-2.875 3.997-4.38 6.756-3.214l19.318 8.164c5.407-9.579 8.01-20.797 6.92-32.368-.275-2.915-3.049-4.934-5.923-4.379l-98.592 19.032c-2.875.555-4.698 3.461-3.868 6.269.067.229.147.451.218.679z" fill="#fedf74"/><path d="m481.424 384.489-78.357-33.114c-2.759-1.166-5.917.339-6.756 3.214-2.854 9.781-2.412 19.9.766 29.037 8.239 3.475 14.934 9.888 18.776 17.927 5.325-3.037 11.483-4.781 18.052-4.781 11.804 0 22.293 5.608 28.965 14.3 8.598-4.106 16.009-10.771 20.957-19.499 1.478-2.604.356-5.918-2.403-7.084z" fill="#fef0ae"/><path d="m415.854 401.554c3.212-1.832 6.726-3.194 10.453-3.984-8.779-11.143-12.371-25.91-9.106-40.222l-14.133-5.973c-2.759-1.166-5.917.339-6.756 3.214-2.854 9.781-2.412 19.9.766 29.037 8.239 3.476 14.934 9.89 18.776 17.928z" fill="#fedf74"/><path d="m382.906 380.773c-4.771 0-9.323.925-13.5 2.589v13.996c0 16.926-13.144 30.774-29.78 31.915h58.003c1.297-11.892 8.306-22.064 18.224-27.722-5.875-12.288-18.419-20.778-32.947-20.778z" fill="#fef0ae"/><path d="m470.183 429.273c-1.993-18.276-17.471-32.5-36.278-32.5s-34.285 14.224-36.278 32.5z" fill="#fedf74"/><path d="m418.224 429.273c1.615-14.798 12.071-26.934 25.979-31.017-3.267-.959-6.72-1.483-10.297-1.483-18.806 0-34.285 14.224-36.278 32.5z" fill="#fed402"/><path d="m37.553 411.534c.05 5.144 1.327 10.35 3.968 15.179.485.887 1.009 1.738 1.562 2.561h64.102c-16.636-1.141-29.78-14.989-29.78-31.915v-16.585c0-17.673 14.327-32 32-32h68.863c-.652-2.787-1.687-5.532-3.128-8.166-4.696-8.585-12.72-14.185-21.591-16.093-.115-5.004-1.388-10.056-3.956-14.751-8.573-15.672-28.227-21.426-43.898-12.853-7.482 4.093-12.697 10.714-15.178 18.219-9.894-8.036-24.051-9.772-35.925-3.277-15.503 8.481-21.292 27.803-13.116 43.389-.575.272-1.146.557-1.711.866-15.672 8.573-21.426 28.227-12.854 43.898 2.642 4.828 6.338 8.711 10.642 11.528z" fill="#80d261"/><path d="m37.553 411.534c.05 5.144 1.327 10.35 3.968 15.179.485.887 1.009 1.738 1.562 2.561h30.567c-.226-.376-.449-.754-.662-1.142-2.641-4.828-3.918-10.035-3.968-15.178-4.305-2.817-8-6.7-10.641-11.528-8.573-15.672-2.818-35.326 12.854-43.898.565-.309 1.137-.594 1.711-.866-8.176-15.586-2.387-34.908 13.116-43.389.351-.192.711-.353 1.066-.531-9.574-5.914-21.955-6.674-32.534-.888-15.503 8.481-21.292 27.803-13.116 43.389-.575.272-1.146.557-1.711.866-15.672 8.573-21.426 28.227-12.854 43.898 2.642 4.827 6.338 8.71 10.642 11.527z" fill="#68ca44"/><g fill="#883f2e"><path d="m109.406 348.773c-17.673 0-32 14.327-32 32v16.585c0 17.673 14.327 32 32 32h100.594v-80.585z"/><path d="m337.406 348.773h-52.406v47.291c0 6.985-5.724 12.614-12.707 12.498-6.822-.113-12.293-5.676-12.293-12.498v-8.779c0-6.999-5.748-12.642-12.76-12.497-6.872.141-12.24 6.044-12.24 12.918v41.653h102.406c17.673 0 32-14.327 32-32v-16.585c0-17.674-14.327-32.001-32-32.001z"/></g><path d="m108.77 404.326c-3.563-.323-6.364-3.323-6.364-6.968v-16.585c0-3.645 2.802-6.645 6.364-6.968 3.182-14.321 15.951-25.032 31.23-25.032h-30.594c-17.673 0-32 14.327-32 32v16.585c0 17.673 14.327 32 32 32h30.594c-15.279 0-28.049-10.711-31.23-25.032z" fill="#6d3326"/><g fill="#fd4755"><path d="m247.24 374.787c-6.872.141-12.24 6.044-12.24 12.918v16.653h28.167c-1.965-2.209-3.167-5.11-3.167-8.294v-8.779c0-6.999-5.748-12.642-12.76-12.498z"/><path d="m337.406 373.773h-52.406v22.291c0 3.189-1.203 6.088-3.164 8.294h55.57c3.86 0 7-3.141 7-7v-16.585c0-3.859-3.14-7-7-7z"/><path d="m210 373.773h-100.594c-3.86 0-7 3.141-7 7v16.585c0 3.859 3.14 7 7 7h100.594z"/></g><g><path d="m146 373.773-10 30.585s31.292-.708 32 0l10-30.585z" fill="#fe646f"/></g><g><path d="m146 373.773-10 30.585s31.292-.708 32 0l10-30.585z" fill="#fe646f"/></g><g><path d="m500.333 186.274c-10.76-1.918-21.877-1.343-32.422 1.726-6.739 1.962-13.983 1.108-20.005-2.498l-5.314-3.182c-3.866 6.183-8.469 12.036-13.845 17.412-4.466 4.467-9.266 8.392-14.305 11.816l2.778 4.64c3.606 6.021 4.46 13.266 2.498 20.005-3.07 10.544-3.645 21.661-1.726 32.422.713 3.997 5.6 5.57 8.471 2.699l76.567-76.567c2.873-2.873 1.3-7.76-2.697-8.473z" fill="#d8ecfe"/><path d="m435.159 192.648c-2.007 2.436-4.133 4.807-6.411 7.084-4.466 4.467-9.266 8.392-14.305 11.816l2.778 4.64c3.606 6.021 4.46 13.266 2.498 20.005-3.07 10.544-3.645 21.661-1.726 32.422.713 3.997 5.6 5.57 8.471 2.699l12.178-12.178c-1.996-12.518-1.221-25.391 2.341-37.626 2.371-8.144 1.339-16.899-3.019-24.176z" fill="#c4e2ff"/><g><path d="m425.213 47.704-166.161 166.161c-2.429 2.429-1.742 6.526 1.346 8.03l5.249 2.557c9.589 4.671 21.085 2.745 28.627-4.797l2.953-2.953c3.37-3.37 8.598-4.083 12.71-1.673 37.546 22.011 86.601 16.914 118.812-15.298s37.309-81.266 15.298-118.812c-2.41-4.111-1.697-9.34 1.673-12.71 1.953-1.953 1.953-5.118 0-7.071l-13.435-13.435c-1.954-1.952-5.12-1.952-7.072.001z" fill="#acc7e4"/></g><g><path d="m443.162 172.071c-32.212 32.212-81.266 37.309-118.812 15.297-4.112-2.41-9.34-1.697-12.71 1.673l-2.953 2.953c-7.542 7.542-19.038 9.469-28.627 4.797l-2.646-1.289-18.362 18.362c-2.429 2.429-1.742 6.526 1.346 8.031l5.249 2.557c9.589 4.671 21.085 2.745 28.627-4.797l2.953-2.953c3.37-3.37 8.598-4.083 12.71-1.673 37.546 22.011 86.601 16.914 118.812-15.298 11.188-11.188 19.097-24.41 23.743-38.473-2.811 3.769-5.908 7.391-9.33 10.813z" fill="#8fb0c5"/></g></g><g><path d="m499.5 471.773h-487c-2.761 0-5-2.239-5-5v-32.5c0-2.761 2.239-5 5-5h487c2.761 0 5 2.239 5 5v32.5c0 2.761-2.239 5-5 5z" fill="#ea9b58"/></g><g><path d="m55 466.773v-32.5c0-2.761 2.239-5 5-5h-47.5c-2.761 0-5 2.239-5 5v32.5c0 2.761 2.239 5 5 5h47.5c-2.761 0-5-2.239-5-5z" fill="#d88a55"/></g><g><path d="m275 338.773h-55c-5.523 0-10 4.477-10 10v80.585h25v-41.653c0-6.874 5.368-12.776 12.24-12.918 7.012-.144 12.76 5.499 12.76 12.497v8.779c0 6.823 5.471 12.385 12.293 12.498 6.984.116 12.707-5.514 12.707-12.498v-47.291c0-5.522-4.477-9.999-10-9.999z" fill="#fdb441"/></g><g><g><path d="m235 338.773h-15c-5.523 0-10 4.477-10 10v80.585h15v-80.585c0-5.523 4.477-10 10-10z" fill="#fe9901"/></g></g><g><path d="m244 320.273c4.142 0 7.5-3.357 7.5-7.5v-78c0-3.3.498-6.485 1.418-9.487 1.131 1.387 2.545 2.548 4.194 3.351l5.25 2.558c12.46 6.071 27.415 3.563 37.215-6.235l2.954-2.954c.974-.973 2.459-1.18 3.613-.506 16.583 9.722 34.964 14.458 53.232 14.457 18.23-.001 36.339-4.726 52.418-13.917 1.616 3.74 1.901 8.019.726 12.055-3.366 11.564-4.026 23.956-1.908 35.835.824 4.622 4.114 8.366 8.585 9.771 1.237.389 2.502.578 3.756.578 3.257 0 6.432-1.279 8.816-3.664l76.567-76.567c3.303-3.303 4.485-8.12 3.086-12.572-1.405-4.472-5.149-7.762-9.772-8.586-11.881-2.116-24.272-1.458-35.834 1.909-4.391 1.278-9.068.827-13.028-1.189 9.955-18.891 13.919-40.329 11.487-61.366l24.931-24.932c6.705-6.705 10.398-15.62 10.398-25.103s-3.692-18.397-10.398-25.104c-13.841-13.84-36.363-13.84-50.204 0l-.354.354-1.061-1.061c-4.873-4.873-12.803-4.871-17.677 0l-43.213 43.213c-2.929 2.93-2.929 7.678 0 10.607 2.929 2.928 7.678 2.928 10.606 0l41.445-41.445 10.022 10.021c-4.338 5.739-4.896 13.604-1.194 19.916 20.8 35.479 14.989 80.597-14.131 109.716s-74.236 34.93-109.716 14.132c-7.04-4.129-16.007-2.96-21.806 2.839l-2.953 2.953c-5.277 5.277-13.33 6.627-20.039 3.358l-2.097-1.021 94.612-94.612c2.929-2.93 2.929-7.678 0-10.607-2.929-2.928-7.678-2.928-10.606 0l-76.882 76.882c-21.384 4.622-37.459 23.676-37.459 46.422v78c.001 4.144 3.359 7.501 7.501 7.501zm205.254-266.205.354-.354c3.872-3.872 9.02-6.005 14.496-6.005s10.624 2.133 14.496 6.006c3.872 3.871 6.004 9.02 6.004 14.495s-2.132 10.624-6.004 14.495l-17.922 17.922c-2.381-8.085-5.752-15.981-10.162-23.502-.676-1.152-.468-2.638.507-3.612 2.36-2.361 3.66-5.5 3.66-8.839s-1.3-6.479-3.661-8.838zm-15.203 150.968c3.976-3.976 7.564-8.217 10.788-12.656 7.579 4.25 16.696 5.29 25.169 2.822 7.799-2.271 16.065-3.023 24.174-2.214l-69.475 69.475c-.807-8.105-.058-16.373 2.213-24.174 2.415-8.296 1.475-17.209-2.551-24.69 3.366-2.63 6.602-5.483 9.682-8.563z"/><path d="m499.5 421.773h-23.139c-.759-2.799-1.781-5.49-3.049-8.04 6.838-4.631 12.726-10.848 17.041-18.459 1.76-3.104 2.11-6.822.961-10.2-1.147-3.376-3.688-6.106-6.97-7.492l-51.742-21.867c3.585-8.997 5.141-18.952 4.171-29.247-.327-3.471-2.121-6.664-4.921-8.762-2.823-2.115-6.43-2.947-9.891-2.277l-98.592 19.032c-3.463.668-6.5 2.78-8.333 5.795-.202.332-.385.672-.553 1.018h-23.695c-2.816-5.902-8.824-10-15.787-10h-55c-6.963 0-12.972 4.098-15.787 10h-20.473c-.583-1.444-1.254-2.868-2.019-4.266-4.655-8.509-12.209-14.96-21.203-18.265-.733-4.393-2.203-8.664-4.344-12.579-5.108-9.337-13.546-16.126-23.76-19.117-10.216-2.99-20.981-1.824-30.318 3.283-6.106 3.341-11.154 8.153-14.745 13.961-11.406-5.497-24.888-5.293-36.357.981-16.798 9.188-24.399 29.093-18.904 46.813-16.153 11.549-21.521 33.671-11.758 51.52 2.506 4.581 5.908 8.64 9.954 11.904.232 2.117.646 4.211 1.215 6.264h-19.002c-6.893 0-12.5 5.607-12.5 12.5v32.5c0 6.893 5.607 12.5 12.5 12.5h98.5c4.142 0 7.5-3.357 7.5-7.5s-3.358-7.5-7.5-7.5h-96v-27.5h482v27.5h-350c-4.142 0-7.5 3.357-7.5 7.5s3.358 7.5 7.5 7.5h352.5c6.893 0 12.5-5.607 12.5-12.5v-32.5c0-6.893-5.607-12.5-12.5-12.5zm-421.101 0h-30.979c-1.536-3.244-2.332-6.706-2.367-10.313-.024-2.505-1.297-4.831-3.393-6.202-3.437-2.249-6.185-5.228-8.168-8.853-6.574-12.018-2.145-27.145 9.869-33.717.438-.239.883-.46 1.329-.671 1.845-.875 3.253-2.464 3.9-4.4s.477-4.053-.472-5.861c-6.251-11.917-1.733-26.866 10.073-33.324 8.893-4.864 19.726-3.876 27.597 2.519 1.914 1.554 4.47 2.066 6.835 1.376 2.366-.692 4.241-2.504 5.015-4.844 1.982-5.996 6.122-10.966 11.656-13.993 5.822-3.184 12.538-3.911 18.904-2.048 6.369 1.865 11.63 6.099 14.815 11.921 1.924 3.518 2.946 7.327 3.038 11.323.08 3.47 2.529 6.432 5.921 7.16 5.926 1.274 11.123 4.647 14.693 9.427h-57.261c-21.78 0-39.5 17.72-39.5 39.5v16.585c.002 9.214 3.185 17.69 8.495 24.415zm124.101-24.915h-24.157l5.096-15.585h19.061zm0-30.585h-93.094c-7.995 0-14.5 6.505-14.5 14.5v16.585c0 7.995 6.505 14.5 14.5 14.5h93.094v9.915h-95.048c-12.598-1-22.546-11.564-22.546-24.415v-16.585c0-13.51 10.991-24.5 24.5-24.5h93.094zm-34.843 15-4.982 15.237c-3.677-.069-8.847-.019-16.26.125l5.023-15.362zm-32 0-5.096 15.585h-20.656v-15.585zm156.843 14.791v-14.791h44.406v15.585h-44.445c.01-.265.039-.527.039-.794zm-65-8.358v34.067h-10v-73c0-1.379 1.122-2.5 2.5-2.5h55c1.378 0 2.5 1.121 2.5 2.5v47.291c0 1.352-.531 2.617-1.494 3.564-.964.947-2.253 1.468-3.588 1.435-2.711-.045-4.917-2.287-4.917-4.999v-8.779c0-5.42-2.132-10.494-6.004-14.287-3.872-3.792-8.982-5.813-14.41-5.708-10.801.221-19.587 9.38-19.587 20.416zm25.04 9.152h-10.04v-9.152c0-2.883 2.242-5.365 4.895-5.42 1.344.015 2.636.479 3.604 1.427s1.501 2.217 1.501 3.572v8.779c0 .268.029.529.04.794zm109.366.5c0 12.851-9.948 23.415-22.546 24.415h-96.86v-9.915h17.82c3.3 2.558 7.397 4.129 11.848 4.203 4.653.071 9.012-1.412 12.587-4.203h52.651c7.995 0 14.5-6.505 14.5-14.5v-16.585c0-7.995-6.505-14.5-14.5-14.5h-44.906v-10h44.906c13.509 0 24.5 10.99 24.5 24.5zm-9.683-53.191 69.8-13.474c.245 6.732-.924 13.224-3.254 19.175l-12.781-5.402c-3.282-1.386-7.011-1.305-10.232.224-3.223 1.531-5.644 4.374-6.644 7.798-2.044 7.004-2.623 14.114-1.923 20.998-1.41-.137-2.838-.214-4.283-.214-2.255 0-4.468.18-6.632.512-2.416-13.471-11.678-24.59-24.051-29.617zm39.228 77.606h-23.039c5.31-6.725 8.494-15.201 8.494-24.415v-8.446c1.938-.411 3.942-.639 6-.639 9.285 0 17.55 4.397 22.862 11.206-6.842 5.709-11.921 13.455-14.317 22.294zm15.842 0c4.459-10.286 14.707-17.5 26.613-17.5s22.154 7.214 26.613 17.5zm57.119-20.157c-7.915-7.634-18.667-12.343-30.507-12.343-5.287 0-10.354.948-15.053 2.665-4.023-5.693-9.365-10.388-15.573-13.648-1.611-6.031-1.857-12.478-.461-18.877l73.016 30.857c-3.065 4.63-6.984 8.432-11.422 11.346z"/><circle cx="193.5" cy="312.273" r="7.5"/><circle cx="281.5" cy="313.273" r="7.5"/><circle cx="212.5" cy="279.273" r="7.5"/><path d="m82.503 154.28h34.497c4.142 0 7.5-3.357 7.5-7.5s-3.358-7.5-7.5-7.5h-34.497c-5.516 0-10.003-4.487-10.003-10.003 0-5.517 4.487-10.004 10.003-10.004h74.497c4.142 0 7.5-3.357 7.5-7.5s-3.358-7.5-7.5-7.5h-74.497c-13.787 0-25.003 11.217-25.003 25.004s11.216 25.003 25.003 25.003z"/><path d="m145.518 146.78c0 4.143 3.358 7.5 7.5 7.5h22.26c9.678 0 17.552 7.874 17.552 17.553 0 9.678-7.874 17.552-17.552 17.552h-28.849c-15.877 0-28.794 12.917-28.794 28.795 0 15.877 12.917 28.794 28.794 28.794h7.165c7.606 0 13.794 6.188 13.794 13.795v17.536c0 4.143 3.358 7.5 7.5 7.5s7.5-3.357 7.5-7.5v-17.536c0-15.878-12.917-28.795-28.794-28.795h-7.165c-7.606 0-13.794-6.188-13.794-13.794s6.188-13.795 13.794-13.795h28.849c17.949 0 32.552-14.603 32.552-32.552s-14.603-32.553-32.552-32.553h-22.26c-4.142 0-7.5 3.357-7.5 7.5z"/></g></g></svg>