<svg id="Capa_1" enable-background="new 0 0 512 512" height="512" viewBox="0 0 512 512" width="512" xmlns="http://www.w3.org/2000/svg"><g><g><g><g><path d="m245.551 235.984c2.846-4.188 7.465-7.07 12.778-7.575-.86-2.065-1.339-4.33-1.339-6.707 0-3.633 1.111-7.005 3.01-9.8-3.141-4.622-8.44-7.66-14.449-7.66-9.642 0-17.459 7.817-17.459 17.459 0 2.377.479 4.641 1.339 6.707.55-.052 1.107-.084 1.671-.084 6.01 0 11.308 3.038 14.449 7.66z" fill="#fe9901"/><path d="m260 228.324c6.009 0 11.308 3.037 14.449 7.659 3.141-4.622 8.44-7.659 14.449-7.659.564 0 1.12.032 1.671.084.86-2.065 1.339-4.33 1.339-6.707 0-9.642-7.817-17.459-17.459-17.459s-17.459 7.817-17.459 17.459c0 2.377.479 4.641 1.339 6.707.551-.052 1.107-.084 1.671-.084z" fill="#fe646f"/></g><g><path d="m245.551 235.984c-3.141-4.622-8.44-7.66-14.449-7.66-9.642 0-17.459 7.817-17.459 17.459 0 2.673.618 5.195 1.692 7.459h28.898c-1.073-2.264-1.692-4.787-1.692-7.459 0-3.633 1.111-7.005 3.01-9.799z" fill="#fe646f"/><g fill="#fe9901"><path d="m288.898 228.324c-6.009 0-11.308 3.037-14.449 7.659 1.899 2.794 3.01 6.167 3.01 9.8 0 2.673-.618 5.195-1.692 7.459h28.898c1.073-2.264 1.692-4.787 1.692-7.459 0-9.642-7.817-17.459-17.459-17.459z"/><path d="m275.768 253.243c1.073-2.264 1.692-4.787 1.692-7.459 0-9.642-7.817-17.459-17.459-17.459s-17.459 7.817-17.459 17.459c0 2.673.618 5.195 1.692 7.459z"/></g></g></g><path d="m323 365.2v-106.957c0-2.761-2.239-5-5-5h-116c-2.761 0-5 2.239-5 5v106.957z" fill="#017b4e"/><path d="m232 365.2v-106.957c0-2.761 2.239-5 5-5h-35c-2.761 0-5 2.239-5 5v106.957z" fill="#026841"/></g><g><path d="m63.565 365.2h69.871c22.542-6.383 39.065-27.098 39.065-51.685v-40.547c0-29.672-24.054-53.727-53.727-53.727h-40.547c-29.672 0-53.727 24.054-53.727 53.727v40.547c0 24.588 16.522 45.302 39.065 51.685z" fill="#017b4e"/><g><path d="m78.227 341.001c-15.156 0-27.486-12.33-27.486-27.486v-40.547c0-15.155 12.33-27.486 27.486-27.486h40.547c15.156 0 27.486 12.33 27.486 27.486v40.547c0 15.155-12.33 27.486-27.486 27.486z" fill="#fe9901"/></g><path d="m89.048 263.875-38.307 38.307v11.334c0 9.995 5.364 18.758 13.363 23.569l45.38-45.38c-9.931-6.289-17.357-16.173-20.436-27.83z" fill="#fe646f"/><path d="m89.086 264.006c-1.043-3.9-1.607-7.996-1.607-12.224 0-2.137.156-4.236.43-6.298h-9.682c-15.156 0-27.486 12.33-27.486 27.486v29.213l38.307-38.307c.012.043.026.086.038.13z" fill="#fd4755"/><g><path d="m118.773 245.484h-30.864c-.275 2.062-.43 4.161-.43 6.298 0 26.087 21.147 47.234 47.234 47.234 3.984 0 7.85-.499 11.546-1.427v-24.619c0-15.156-12.33-27.486-27.486-27.486z" fill="#fff"/></g></g><g><path d="m396.499 365.2h41.003c10.74-3.254 20.859-9.117 29.35-17.607 27.532-27.532 27.532-72.17 0-99.702s-72.17-27.532-99.702 0-27.532 72.17 0 99.702c8.489 8.491 18.608 14.354 29.349 17.607z" fill="#fe9901"/><g><circle cx="417" cy="297.743" fill="#fe646f" r="41.5"/></g><path d="m422.618 305.012c3.825-3.825 8.021-7.049 12.466-9.691l-35.332-35.332c-4.383 2.001-8.491 4.801-12.098 8.408s-6.407 7.715-8.408 12.098l34.943 34.943c2.392-3.69 5.195-7.191 8.429-10.426z" fill="#fd4755"/><path d="m457.154 287.275c-12.645 2.084-24.783 7.984-34.536 17.737-9.238 9.238-15.031 20.613-17.39 32.533 14.106 4.158 29.986.673 41.116-10.458 10.79-10.789 14.387-26.039 10.81-39.812z" fill="#fff"/></g><g><g><path d="m40 393.717v31.707c0 2.761 2.239 5 5 5h89c2.761 0 5-2.239 5-5v-31.707z" fill="#ea9b58"/><path d="m75 425.424v-31.707h-35v31.707c0 2.761 2.239 5 5 5h35c-2.761 0-5-2.239-5-5z" fill="#d88a55"/><path d="m373 393.717v31.707c0 2.761 2.239 5 5 5h89c2.761 0 5-2.239 5-5v-31.707z" fill="#ea9b58"/><path d="m413 425.424v-31.707h-40v31.707c0 2.761 2.239 5 5 5h40c-2.761 0-5-2.239-5-5z" fill="#d88a55"/></g></g><g><path d="m494.5 393.717h-477c-5.523 0-10-4.477-10-10v-8.517c0-5.523 4.477-10 10-10h477c5.523 0 10 4.477 10 10v8.516c0 5.524-4.477 10.001-10 10.001z" fill="#883f2e"/></g><g><path d="m55 383.717v-8.517c0-5.523 4.477-10 10-10h-47.5c-5.523 0-10 4.477-10 10v8.516c0 5.523 4.477 10 10 10h47.5c-5.523.001-10-4.476-10-9.999z" fill="#6d3326"/></g><g><g><path d="m488 111.909h-448v-25.333c0-2.761 2.239-5 5-5h438c2.761 0 5 2.239 5 5z" fill="#ea9b58"/></g><g><path d="m94 81.576h-49c-2.761 0-5 2.239-5 5v25.333h49v-25.333c0-2.762 2.239-5 5-5z" fill="#d88a55"/></g><g><path d="m483 142.243h-438c-2.761 0-5-2.239-5-5v-25.333h448v25.333c0 2.761-2.239 5-5 5z" fill="#ea9b58"/></g><g><path d="m89 137.243v-25.333h-49v25.333c0 2.761 2.239 5 5 5h49c-2.761 0-5-2.239-5-5z" fill="#d88a55"/></g></g><g><path d="m78.227 348.501h40.547c19.291 0 34.985-15.694 34.985-34.985v-40.546c0-19.292-15.694-34.986-34.985-34.986h-40.547c-19.291 0-34.985 15.694-34.985 34.986v40.546c-.001 19.291 15.694 34.985 34.985 34.985zm60.532-34.985c0 11.02-8.965 19.985-19.985 19.985h-40.479l32.499-32.499c7.231 3.528 15.346 5.513 23.919 5.513 1.351 0 2.7-.072 4.046-.175zm-19.986-60.533c11.02 0 19.985 8.966 19.985 19.986v18.323c-1.344.137-2.694.223-4.046.223-21.507 0-39.065-17.178-39.704-38.532zm-60.532 19.987c0-11.021 8.965-19.986 19.985-19.986h1.782c.08 3.698.527 7.306 1.309 10.79l-23.077 23.077v-13.881zm0 35.095 29.033-29.034c2.9 5.029 6.567 9.561 10.855 13.422l-34.581 34.58c-3.283-3.562-5.308-8.302-5.308-13.517v-5.451z"/><path d="m417 346.72c12.548 0 25.096-4.776 34.648-14.328 19.105-19.105 19.105-50.192 0-69.297-9.254-9.256-21.56-14.353-34.648-14.353s-25.394 5.097-34.648 14.352c-19.105 19.105-19.105 50.192 0 69.298 9.552 9.551 22.1 14.328 34.648 14.328zm24.042-24.936c-7.125 7.124-16.65 10.414-25.996 9.881 2.638-7.839 7.047-14.973 12.984-20.91 6.437-6.437 14.298-11.084 22.94-13.615.156 8.907-3.147 17.863-9.928 24.644zm-24.042-58.042c9.082 0 17.62 3.537 24.042 9.959 2.659 2.659 4.775 5.655 6.367 8.849-3.633 1.024-7.155 2.348-10.547 3.941l-22.629-22.629c.916-.073 1.838-.12 2.767-.12zm-24.042 9.959c1.683-1.683 3.515-3.163 5.461-4.438l25.311 25.311c-2.2 1.723-4.311 3.578-6.308 5.575-1.327 1.327-2.589 2.704-3.795 4.121l-25.104-25.104c1.263-1.934 2.739-3.768 4.435-5.465zm-9.823 21.29 21.939 21.938c-1.779 3.394-3.268 6.937-4.459 10.598-2.747-1.51-5.331-3.418-7.656-5.743-7.328-7.327-10.597-17.194-9.824-26.793z"/><path d="m494.5 357.7h-27.619c1.812-1.507 3.575-3.104 5.274-4.803 30.412-30.413 30.412-79.896 0-110.31-30.412-30.412-79.896-30.412-110.309 0-30.412 30.413-30.412 79.896 0 110.31 1.699 1.699 3.462 3.295 5.274 4.803h-36.62v-37.7c0-4.143-3.358-7.5-7.5-7.5s-7.5 3.357-7.5 7.5v37.7h-111v-96.958h111v23.258c0 4.143 3.358 7.5 7.5 7.5s7.5-3.357 7.5-7.5v-25.758c0-6.893-5.607-12.5-12.5-12.5h-4.145c-.016-10.018-5.966-18.664-14.514-22.62.027-.472.067-.941.067-1.42 0-13.763-11.197-24.96-24.959-24.96-5.384 0-10.371 1.719-14.452 4.63-4.081-2.909-9.064-4.63-14.446-4.63-13.762 0-24.959 11.197-24.959 24.96 0 .479.04.948.067 1.42-8.548 3.955-14.498 12.602-14.514 22.62h-4.145c-6.893 0-12.5 5.607-12.5 12.5v99.458h-28.416c11.645-11.149 18.916-26.827 18.916-44.184v-40.546c0-33.761-27.466-61.228-61.227-61.228h-40.546c-33.761 0-61.227 27.467-61.227 61.228v40.546c0 17.357 7.271 33.036 18.916 44.185h-18.416c-9.649 0-17.5 7.851-17.5 17.5v8.517c0 9.649 7.851 17.5 17.5 17.5h15v24.207c0 6.893 5.607 12.5 12.5 12.5h39c4.142 0 7.5-3.357 7.5-7.5s-3.358-7.5-7.5-7.5h-36.5v-21.707h84v21.707h-11.5c-4.142 0-7.5 3.357-7.5 7.5s3.358 7.5 7.5 7.5h14c6.893 0 12.5-5.607 12.5-12.5v-24.207h219v24.207c0 6.893 5.607 12.5 12.5 12.5h89c6.893 0 12.5-5.607 12.5-12.5v-24.207h15c9.649 0 17.5-7.851 17.5-17.5v-8.518c0-9.649-7.851-17.5-17.5-17.5zm-195.645-111.958h-13.898c-.005-2.918-.515-5.719-1.445-8.324 1.555-1.004 3.401-1.594 5.385-1.594 5.478 0 9.935 4.446 9.958 9.918zm-24.406-34c5.339 0 9.698 4.227 9.936 9.509-3.647.672-7.022 2.128-9.933 4.203-2.912-2.076-6.29-3.531-9.94-4.203.239-5.282 4.598-9.509 9.937-9.509zm-14.449 24.082c5.477 0 9.934 4.446 9.957 9.918h-19.914c.023-5.472 4.48-9.918 9.957-9.918zm-14.449-24.082c1.985 0 3.831.59 5.386 1.594-.934 2.617-1.447 5.432-1.447 8.366 0 .485.04.96.068 1.439-1.409.654-2.757 1.419-4.01 2.313-2.911-2.075-6.287-3.53-9.933-4.203.238-5.282 4.597-9.509 9.936-9.509zm-14.449 24.082c1.984 0 3.831.59 5.385 1.594-.929 2.604-1.44 5.405-1.445 8.324h-13.898c.024-5.472 4.481-9.918 9.958-9.918zm141.35 17.371c12.283-12.284 28.413-18.423 44.548-18.423 16.131 0 32.268 6.142 44.548 18.423 24.563 24.563 24.563 64.531 0 89.095-7.33 7.33-16.035 12.455-25.29 15.41h-38.517c-9.254-2.956-17.96-8.08-25.289-15.41-24.563-24.563-24.563-64.531 0-89.095zm-340.452 60.321v-40.546c0-25.49 20.737-46.228 46.227-46.228h40.547c25.489 0 46.227 20.737 46.227 46.228v40.546c0 20.761-13.758 38.366-32.635 44.185h-67.731c-18.877-5.819-32.635-23.425-32.635-44.185zm432.5 109.408h-84v-21.707h84zm32.5-39.207c0 1.379-1.122 2.5-2.5 2.5h-477c-1.378 0-2.5-1.121-2.5-2.5v-8.517c0-1.379 1.122-2.5 2.5-2.5h477c1.378 0 2.5 1.121 2.5 2.5z"/><path d="m45 149.742h438c6.893 0 12.5-5.607 12.5-12.5v-25.333-25.333c0-6.893-5.607-12.5-12.5-12.5h-438c-6.893 0-12.5 5.607-12.5 12.5v25.333 25.333c0 6.893 5.607 12.5 12.5 12.5zm2.5-30.333h348.5c4.142 0 7.5-3.357 7.5-7.5s-3.358-7.5-7.5-7.5h-348.5v-15.333h433v15.333h-48.5c-4.142 0-7.5 3.357-7.5 7.5s3.358 7.5 7.5 7.5h48.5v15.333h-433z"/></g></g></svg>