<svg id="Capa_1" enable-background="new 0 0 512 512" height="512" viewBox="0 0 512 512" width="512" xmlns="http://www.w3.org/2000/svg"><g><g><path d="m504.455 452.587c-2.209-28.189-10.16-54.763-22.673-78.563-1.149 11.885-7.643 22.205-17.067 28.505 0-.001 0-.001 0-.002.267 1.573.414 3.187.414 4.836 0 6.056-1.879 11.67-5.08 16.301 12.03 3.422 20.843 14.484 20.843 27.611 0 6.567-2.209 12.615-5.919 17.452h14.519c8.732 0 15.645-7.434 14.963-16.14z" fill="#fedf74"/></g><g><path d="m61.599 333.246c2.892-1.143 6.162.275 7.305 3.167l7.402 18.732c4.826-7.176 10.102-14.024 15.778-20.513-6.993-7.636-11.263-17.808-11.263-28.978 0-23.706 19.217-42.923 42.923-42.923 5.518 0 10.786 1.053 15.632 2.949.471-.678.966-1.346 1.498-1.996 5.781-7.059 14.021-10.917 22.467-11.351-.031-2.105.156-4.216.553-6.299-11.464-7.736-25.28-12.253-40.151-12.253-39.694 0-71.873 32.179-71.873 71.873 0 10.33 2.196 20.142 6.12 29.019z" fill="#fef0ae"/></g><g><path d="m122.854 98.49 56.566-22.354c2.892-1.143 4.309-4.413 3.167-7.305l-8.69-21.99c-1.143-2.892-4.413-4.309-7.305-3.167l-56.566 22.354c-2.892 1.143-4.309 4.413-3.167 7.305l8.69 21.99c1.143 2.892 4.414 4.31 7.305 3.167z" fill="#fb8801"/></g><path d="m46.138 373.774 15.626 6.774c4.249-8.84 9.111-17.329 14.542-25.405l-7.402-18.732c-1.143-2.892-4.413-4.309-7.305-3.167l-21.99 8.69c-2.892 1.143-4.309 4.413-3.167 7.305z" fill="#017b4e"/><g><path d="m49.396 413.23-5.79-2.51-32.545 12.861c-2.892 1.143-4.309 4.413-3.167 7.305l8.69 21.99c1.143 2.892 4.413 4.309 7.305 3.167l18.839-7.445c1.19-12.134 3.445-23.954 6.668-35.368z" fill="#017b4e"/><path d="m61.764 380.548-31.367-13.598c-2.853-1.237-6.168.073-7.404 2.926l-9.404 21.694c-1.237 2.853.073 6.168 2.926 7.404l32.883 14.255c3.196-11.325 7.351-22.248 12.366-32.681z" fill="#80d261"/></g><g><path d="m254.833 238.86c6.643-15.113 21.737-25.672 39.304-25.672 16.139 0 30.191 8.912 37.521 22.078 3.94-.793 8.074-.966 12.281-.401 8.061 1.083 15.163 4.681 20.637 9.889.149-.141.308-.272.459-.411-5.618-34.094-35.213-60.106-70.898-60.106-34.637 0-63.545 24.503-70.351 57.12 9.107-6.302 21.004-7.288 31.047-2.497z" fill="#fef0ae"/></g><g><path d="m335.828 285.991c6.69-8.814 17.044-14.691 28.63-15.364 12.308-.714 23.464 4.312 31.04 12.65 7.222-6.092 16.692-9.602 26.994-9.086 1.576.079 3.127.262 4.652.528 1.59-19.563-12.409-37.16-32.089-39.804-11.57-1.555-22.607 2.4-30.479 9.838-5.474-5.208-12.576-8.806-20.637-9.889-20.338-2.732-39.04 11.54-41.773 31.878-.275 2.047-.37 4.077-.311 6.076 11.8 3.387 23.156 7.818 33.973 13.173z" fill="#017b4e"/></g><g><g><path d="m343.825 148.701c24.829 24.829 64.407 25.917 90.529 3.266 1.959-1.698 2.066-4.706.233-6.539l-87.489-87.489c-1.833-1.833-4.841-1.726-6.539.233-22.651 26.122-21.562 65.701 3.266 90.529z" fill="#fd4755"/></g><g><path d="m370.931 154.073c-22.225-22.225-25.412-56.263-9.592-81.894l-14.24-14.24c-1.833-1.833-4.841-1.726-6.539.233-22.651 26.122-21.562 65.701 3.266 90.529 13.205 13.205 30.582 19.694 47.888 19.468-7.548-3.237-14.621-7.933-20.783-14.096z" fill="#fb2b3a"/></g></g><path d="m453.763 332.922c3.513-5.836 5.536-12.67 5.536-19.978 0-21.43-17.372-38.802-38.802-38.802-9.527 0-18.246 3.439-24.999 9.136-7.098-7.812-17.339-12.717-28.726-12.717-13.036 0-24.561 6.435-31.597 16.295 40.231 19.91 72.956 52.772 92.676 93.113 2.707-.846 5.579-1.317 8.565-1.317 14.208 0 25.999 10.323 28.298 23.877 10.41-6.959 17.268-18.816 17.268-32.278.001-17.76-11.935-32.722-28.219-37.329z" fill="#80d261"/><path d="m458.981 307.976c-2.359-18.483-17.88-32.851-36.49-33.784-10.301-.516-19.772 2.994-26.994 9.086-7.576-8.338-18.732-13.364-31.04-12.65-11.586.672-21.94 6.549-28.63 15.364 5.709 2.826 11.267 5.91 16.658 9.241 4.421-1.753 9.24-2.721 14.286-2.721 9.917 0 18.965 3.721 25.825 9.842 1.729 1.543 4.264 1.691 6.183.391 6.197-4.197 13.669-6.651 21.718-6.651 17.613 0 32.476 11.74 37.215 27.818 1.464-4.97 1.983-10.344 1.269-15.936z" fill="#68ca44"/><path d="m444.32 423.661c2.499-.71 5.133-1.098 7.859-1.098 2.73 0 5.367.389 7.869 1.101 3.201-4.631 5.08-10.245 5.08-16.301 0-15.857-12.855-28.712-28.712-28.712-2.609 0-5.135.355-7.538 1.007 6.747 13.862 11.965 28.602 15.442 44.003z" fill="#fe9901"/><path d="m452.18 422.563c-2.726 0-5.36.388-7.859 1.098 3.273 14.498 5.01 29.578 5.01 45.066h25.642c3.71-4.837 5.919-10.885 5.919-17.452-.001-15.857-12.855-28.712-28.712-28.712z" fill="#fb8801"/><path d="m245.534 264.931c9.161 0 18.178.615 27.02 1.786-.065-8.922-3.947-17.75-11.39-23.845-11.009-9.016-26.344-9.213-37.467-1.457-1.835-5.14-5.044-9.864-9.574-13.574-13.284-10.879-32.873-8.93-43.752 4.355-4.836 5.906-7.131 13.057-7.028 20.135-8.447.434-16.686 4.292-22.467 11.351-7.79 9.513-9 22.257-4.183 32.722 31.489-19.932 68.816-31.473 108.841-31.473z" fill="#80d261"/><path d="m156.473 285.374c1.129-3.965 3.068-7.769 5.846-11.161 4.873-5.95 11.493-9.626 18.511-10.894 2.21-.399 3.897-2.163 4.147-4.395.645-5.75 2.898-11.387 6.837-16.197 6.579-8.033 16.342-11.914 25.971-11.327-1.109-1.262-2.321-2.459-3.663-3.559-13.285-10.879-32.873-8.93-43.752 4.355-4.836 5.906-7.131 13.057-7.028 20.135-8.864.456-17.501 4.683-23.307 12.423-6.973 9.296-7.929 21.542-3.32 31.637 6.356-4.024 12.951-7.704 19.758-11.017z" fill="#68ca44"/><g><path d="m245.534 264.931c-107.121 0-194.939 82.648-203.167 187.657-.682 8.706 6.231 16.14 14.963 16.14h392c0-112.554-91.243-203.797-203.796-203.797z" fill="#fed402"/></g><g><path d="m86.048 452.587c7.661-97.78 84.337-176.159 181.344-186.488-7.182-.766-14.473-1.169-21.859-1.169-107.121 0-194.939 82.648-203.167 187.657-.682 8.706 6.231 16.14 14.963 16.14h43.681c-8.731 0-15.644-7.434-14.962-16.14z" fill="#fac600"/></g><g><path d="m269.581 136.752c2.517-1.322 3.706-4.333 2.651-6.973-3.14-7.862-8.695-14.842-16.398-19.712s-16.391-6.894-24.84-6.359c-2.838.18-5.048 2.545-5.162 5.386l-1.687 41.974c-.174 4.33 4.405 7.225 8.242 5.211z" fill="#fd4755"/></g><g><circle cx="94.657" cy="163.596" fill="#fd4755" r="20.267"/></g><g><path d="m108.575 98.08c2.038 5.155 6.994 8.305 12.227 8.305 1.602 0 3.231-.296 4.809-.919 0 0 0 0 0-.001l56.566-22.354c6.733-2.661 10.046-10.304 7.386-17.037l-8.69-21.989c-1.289-3.262-3.771-5.826-6.988-7.222-3.218-1.395-6.786-1.455-10.048-.164l-56.567 22.354c-6.733 2.661-10.046 10.303-7.385 17.037zm59.034-46.744 7.315 18.512-53.087 20.98-7.315-18.512z"/><path d="m390.903 175.599c17.237 0 34.505-5.947 48.364-17.965 2.501-2.168 4.003-5.31 4.121-8.619s-1.157-6.55-3.498-8.891l-87.489-87.489c-2.34-2.34-5.588-3.62-8.889-3.497-3.31.118-6.452 1.619-8.621 4.121-25.291 29.166-23.697 73.419 3.629 100.746 14.344 14.342 33.345 21.594 52.383 21.594zm-46.744-109.993 82.761 82.762c-23.215 17.976-56.778 16.043-77.792-4.97-21.012-21.013-22.944-54.577-4.969-77.792z"/><path d="m356.016 124.62c-2.929 2.929-2.929 7.678 0 10.606 1.465 1.465 3.384 2.197 5.304 2.197s3.839-.732 5.303-2.196l6.418-6.418c2.929-2.929 2.929-7.678 0-10.606-2.929-2.929-7.678-2.93-10.607-.001z"/><path d="m359.34 108.917c4.142 0 7.5-3.357 7.5-7.5s-3.358-7.5-7.5-7.5h-9.077c-4.142 0-7.5 3.357-7.5 7.5s3.358 7.5 7.5 7.5z"/><path d="m389.294 149.764c4.142 0 7.5-3.357 7.5-7.5v-9.077c0-4.143-3.358-7.5-7.5-7.5s-7.5 3.357-7.5 7.5v9.077c0 4.142 3.357 7.5 7.5 7.5z"/><path d="m511.932 452.001c-2.196-28.032-9.934-54.981-22.509-79.525.035-.738.059-1.479.059-2.226 0-17.649-10.148-33.613-25.51-41.363 1.861-5.079 2.826-10.476 2.826-15.943 0-20.591-13.514-38.077-32.136-44.076-.541-8.729-3.629-17.106-9.055-24.217-7.236-9.482-17.732-15.579-29.554-17.168-9.154-1.231-18.273.388-26.275 4.493-3.932-12.401-10.901-23.708-20.573-33.028-2.982-2.874-7.729-2.786-10.605.196-2.874 2.982-2.786 7.73.197 10.604 5.88 5.666 10.525 12.24 13.828 19.412-2.486-.793-5.055-1.376-7.688-1.73-3.2-.429-6.392-.502-9.537-.254-9.13-12.985-24.219-21.49-41.264-21.49-18.101 0-33.999 9.59-42.895 23.953-5.017-1.304-10.249-1.591-15.372-.849 10.295-21.871 32.535-37.054 58.267-37.054 5.735 0 11.421.754 16.901 2.24 4.001 1.09 8.119-1.277 9.202-5.274 1.084-3.998-1.277-8.118-5.275-9.202-6.759-1.834-13.767-2.764-20.828-2.764-32.473 0-60.435 19.61-72.712 47.603-.817-.8-1.661-1.574-2.551-2.302-7.975-6.531-18.018-9.561-28.273-8.545-10.257 1.021-19.502 5.976-26.033 13.95-1.903 2.323-3.497 4.858-4.798 7.526-10.819-5.543-23.057-8.69-36.025-8.69-43.767 0-79.373 35.606-79.373 79.373 0 8.648 1.41 16.967 3.982 24.763l-11.501 4.545c-6.733 2.661-10.046 10.303-7.385 17.037l3.064 7.754c-6.442-2.282-13.663.781-16.421 7.142l-9.405 21.695c-2.878 6.641.183 14.387 6.825 17.268l10.479 4.543-15.705 6.206c-6.733 2.661-10.046 10.303-7.385 17.037l8.69 21.989c1.289 3.262 3.771 5.826 6.988 7.222 1.676.727 3.446 1.091 5.22 1.091 1.631 0 3.265-.309 4.828-.927l8.935-3.531c.932 3.513 2.703 6.794 5.214 9.509 4.25 4.597 10.277 7.232 16.536 7.232h62.671c4.142 0 7.5-3.357 7.5-7.5s-3.358-7.5-7.5-7.5h-62.67c-2.121 0-4.083-.858-5.523-2.417-1.43-1.546-2.127-3.548-1.963-5.638 3.847-49.092 25.91-94.655 62.125-128.297 36.407-33.82 83.841-52.445 133.564-52.445 49.142 0 96.165 18.247 132.407 51.379 3.057 2.794 7.8 2.583 10.596-.475 2.794-3.058 2.582-7.801-.475-10.596-12.201-11.154-25.536-20.74-39.722-28.649 5.175-3.785 11.544-6.03 18.432-6.03 8.803 0 17.25 3.74 23.175 10.261 2.712 2.986 7.302 3.291 10.387.688 5.632-4.751 12.793-7.367 20.163-7.367 17.26 0 31.301 14.041 31.301 31.301 0 5.69-1.543 11.262-4.461 16.11-1.206 2.003-1.408 4.453-.548 6.627.859 2.173 2.683 3.821 4.932 4.458 13.402 3.792 22.762 16.174 22.762 30.111 0 7.234-2.479 13.892-6.617 19.197-6.244-10.917-17.997-18.295-31.449-18.295-1.114 0-2.212.065-3.3.165-5.604-10.738-12.164-21.06-19.67-30.871-2.518-3.291-7.226-3.917-10.514-1.398-3.29 2.517-3.917 7.224-1.399 10.514 24.842 32.469 38.649 70.937 40.159 111.667h-285.69c-4.142 0-7.5 3.357-7.5 7.5s3.358 7.5 7.5 7.5h333.49c6.259 0 12.286-2.637 16.537-7.232 4.237-4.584 6.389-10.777 5.902-16.993zm-476.168-8.715-12.892 5.095-7.315-18.512 24.276-9.594c-1.772 7.557-3.135 15.235-4.069 23.011zm8.899-40.282-23.451-10.166 7.917-18.263 22.615 9.804c-2.65 6.087-5.015 12.301-7.081 18.625zm13.564-32.164-6.256-2.712-7.866-19.905 18.511-7.316 5.276 13.352c-3.477 5.384-6.701 10.917-9.665 16.581zm68.3-83.637c.209 2.099.594 4.151 1.126 6.15-9.085 6.12-17.748 12.967-25.893 20.533-3.102 2.881-6.103 5.847-9.01 8.887-2.819-5.077-4.43-10.913-4.43-17.12 0-19.532 15.891-35.423 35.423-35.423 1.618 0 3.21.11 4.77.322-1.859 5.268-2.556 10.926-1.986 16.651zm10.281-30.238c-4.168-1.124-8.545-1.735-13.064-1.735-27.803 0-50.423 22.619-50.423 50.423 0 10.7 3.365 20.62 9.074 28.788-1.411 1.711-2.803 3.436-4.157 5.187l-2.36-5.971c-2.185-5.531-7.733-8.749-13.376-8.247-2.018-6.23-3.131-12.863-3.131-19.757 0-35.495 28.877-64.373 64.373-64.373 9.762 0 19.015 2.199 27.311 6.107-5.374 2.073-10.258 5.334-14.247 9.578zm108.726.466c-36.917 0-72.66 9.542-104.147 27.407-.374-5.962 1.484-11.756 5.29-16.403 4.204-5.134 10.417-8.273 17.049-8.613 4.03-.207 7.174-3.564 7.115-7.6-.081-5.553 1.813-10.978 5.332-15.274 3.992-4.875 9.644-7.903 15.914-8.527.796-.079 1.59-.119 2.38-.119 5.429 0 10.648 1.857 14.904 5.343 3.317 2.717 5.829 6.275 7.263 10.293.786 2.201 2.553 3.91 4.779 4.622 2.225.712 4.656.345 6.574-.991 8.61-6.003 20.3-5.549 28.426 1.107 3.143 2.574 5.505 5.843 6.963 9.517-5.911-.498-11.861-.762-17.842-.762zm49.598 5.882c-5.177-1.246-10.407-2.303-15.684-3.157-1.603-9.072-6.33-17.188-13.532-23.086-.351-.287-.717-.547-1.076-.821 6.377-9.381 17.124-15.561 29.297-15.561 9.964 0 18.965 4.149 25.407 10.793-2.669 1.297-5.23 2.868-7.643 4.709-8.827 6.736-14.715 16.298-16.769 27.123zm101.01 10.259c-8.228-6.741-18.62-10.512-29.37-10.512-12.831 0-24.447 5.258-32.838 13.721-7.89-3.636-15.995-6.779-24.275-9.412 1.132-7.698 5.145-14.525 11.342-19.254 6.297-4.806 14.087-6.875 21.94-5.816 6.226.836 11.919 3.564 16.466 7.89 2.889 2.749 7.423 2.757 10.32.018 6.551-6.188 15.422-9.052 24.331-7.856 13.126 1.763 23.101 11.91 25.266 24.314-8.226.208-16.235 2.61-23.182 6.907zm53.872 141.566c-2.544-9.769-5.791-19.324-9.724-28.616 9.85 1.828 17.338 10.469 17.338 20.841 0 2.799-.553 5.468-1.545 7.914-1.283-.138-2.585-.214-3.904-.214-.727.001-1.447.032-2.165.075zm20.902 46.09h-14.223c-.362-10.526-1.48-20.913-3.349-31.105 11.154.61 20.048 9.849 20.048 21.153-.001 3.522-.849 6.907-2.476 9.952zm24.099-2.417c-1.441 1.559-3.403 2.417-5.523 2.417h-2.484c.912-3.2 1.383-6.538 1.383-9.952 0-13.346-7.262-25.019-18.036-31.3 1.468-3.929 2.273-8.177 2.273-12.612 0-.466-.018-.927-.035-1.388 4.066-3.352 7.549-7.386 10.28-11.92 7.686 18.681 12.497 38.588 14.105 59.118.164 2.089-.533 4.091-1.963 5.637z"/><path d="m222.754 162.392c2.16 1.365 4.577 2.053 7.004 2.053 2.083 0 4.174-.507 6.115-1.525l37.193-19.526c5.975-3.136 8.611-10.184 6.131-16.395-3.856-9.656-10.549-17.703-19.355-23.27-8.806-5.568-18.944-8.161-29.322-7.506-6.673.423-11.911 5.826-12.182 12.57l-1.687 41.973c-.19 4.743 2.091 9.089 6.103 11.626zm10.503-51.266c6.592-.08 12.961 1.734 18.57 5.281 5.609 3.546 9.983 8.537 12.734 14.51l-32.792 17.215z"/><path d="m94.657 191.362c15.311 0 27.767-12.456 27.767-27.767 0-15.312-12.456-27.768-27.767-27.768s-27.767 12.457-27.767 27.769c0 15.31 12.456 27.766 27.767 27.766zm0-40.534c7.04 0 12.767 5.728 12.767 12.768 0 7.039-5.728 12.767-12.767 12.767s-12.767-5.728-12.767-12.767c0-7.04 5.727-12.768 12.767-12.768z"/><path d="m313.962 414.522c2.929 2.928 7.678 2.928 10.606 0 6.295-6.295 16.538-6.295 22.833 0 1.464 1.464 3.384 2.196 5.303 2.196s3.839-.732 5.303-2.197c2.929-2.929 2.929-7.678 0-10.606-12.144-12.143-31.903-12.143-44.045 0-2.929 2.929-2.929 7.677 0 10.607z"/><path d="m219.722 414.521c1.464 1.465 3.384 2.197 5.303 2.197s3.839-.732 5.303-2.196c6.295-6.296 16.538-6.296 22.833 0 2.929 2.928 7.678 2.928 10.606 0 2.929-2.93 2.929-7.678 0-10.607-12.143-12.143-31.901-12.143-44.045 0-2.928 2.928-2.929 7.677 0 10.606z"/><path d="m164.225 416.718c1.919 0 3.839-.732 5.303-2.197 2.929-2.929 2.929-7.678 0-10.606-12.144-12.143-31.903-12.143-44.045 0-2.929 2.93-2.929 7.678 0 10.607 2.929 2.928 7.678 2.928 10.606 0 6.295-6.295 16.538-6.295 22.833 0 1.464 1.463 3.383 2.196 5.303 2.196z"/><path d="m283.115 339.56c-2.929 2.929-2.929 7.678 0 10.606 1.464 1.465 3.384 2.197 5.303 2.197s3.839-.732 5.303-2.196c6.295-6.297 16.538-6.295 22.833 0 2.929 2.928 7.678 2.928 10.606 0 2.929-2.93 2.929-7.678 0-10.607-12.143-12.143-31.901-12.143-44.045 0z"/><path d="m176.937 339.56c-2.929 2.93-2.929 7.678 0 10.607 2.929 2.928 7.678 2.928 10.606 0 6.295-6.295 16.538-6.295 22.833 0 1.464 1.464 3.384 2.196 5.303 2.196s3.839-.732 5.303-2.197c2.929-2.929 2.929-7.678 0-10.606-12.144-12.143-31.903-12.143-44.045 0z"/></g></g></svg>