<svg id="Capa_1" enable-background="new 0 0 512 512" height="512" viewBox="0 0 512 512" width="512" xmlns="http://www.w3.org/2000/svg"><g><path d="m409.979 293.198c-29.888 60.968-300.199 60.968-330.087 0-49.091 20.569-79.892 50.188-79.892 83.11 0 62.12 109.661 112.478 244.935 112.478s244.935-50.359 244.935-112.478c0-32.922-30.801-62.541-79.891-83.11z" fill="#d6f6b2"/><path d="m383.839 332.661c-33.683 38.884-244.125 38.884-277.808 0-26.354 11.811-42.221 27.033-42.221 43.647 0 37.559 81.093 68.006 181.125 68.006s181.125-30.447 181.125-68.006c0-16.614-15.867-31.836-42.221-43.647z" fill="#b3e59f"/><path d="m508.267 133.859h-95.283l15.652 36.057h47.308v24.958c0 20.967-17.058 38.026-38.025 38.026h-20.044l1.904 36.056h18.14c40.914 0 74.082-33.167 74.082-74.082v-57.281c-.001-2.062-1.673-3.734-3.734-3.734z" fill="#78c2a4"/><path d="m61.235 107.573v104.869c0 101.455 82.245 183.7 183.7 183.7 101.455 0 183.7-82.245 183.7-183.7v-104.869z" fill="#78c2a4"/><path d="m387.429 138.943v52.895c0 101.455-82.245 183.7-183.7 183.7-21.312 0-41.775-3.63-60.807-10.303 29.182 19.522 64.268 30.907 102.014 30.907 101.455 0 183.7-82.245 183.7-183.7v-104.869z" fill="#66b394"/><ellipse cx="244.935" cy="107.573" fill="#d6f6b2" rx="183.701" ry="84.358"/><path d="m394.841 126.082c5.216-5.818 8.04-12.041 8.04-18.51 0-32.366-70.715-58.604-157.946-58.604s-157.946 26.239-157.946 58.605c0 6.468 2.825 12.692 8.04 18.51h299.812z" fill="#b3e59f"/><path d="m244.935 166.176c3.879 0 7.724-.052 11.533-.154l84.874-12.026c24.619-7.049 43.475-16.733 53.499-27.915-20.883-23.295-80.107-40.094-149.906-40.094s-129.023 16.799-149.906 40.094c20.884 23.296 80.107 40.095 149.906 40.095z" fill="#d8aa8b"/><path d="m320.703 93.159c6.705 14.288.989 33.732-17.15 39.227-27.208 8.243-61.961 13.187-99.826 13.187-39.461 0-75.541-5.369-103.225-14.246 24.563 20.531 79.99 34.85 144.432 34.85 3.879 0 7.724-.052 11.533-.154l84.874-12.026c24.619-7.049 43.475-16.733 53.499-27.915-12.668-14.132-39.447-25.873-74.137-32.923z" fill="#ce9875"/><path d="m302.353 136.594c-20.226.264-37.679 12.233-45.885 29.428 14.982-.401 29.385-1.577 42.92-3.422.118-.017.237-.033.356-.048.001 0 .003-.001.004-.001 1.077-.137 2.175-.208 3.29-.208 14.255 0 25.811 11.556 25.811 25.811v55.455l-7.064 42.039h39.882l-7.064-42.039v-54.611c0-28.736-23.515-52.78-52.25-52.404z" fill="#f6f9f9"/><path d="m380.016 258.282-25.413-14.672v23.315c0 7.112-5.765 12.877-12.877 12.877s-12.877-5.765-12.877-12.877v-23.315l-25.413 14.672c-2.366 1.366-3.823 3.89-3.823 6.622v89.763c0 4.223 3.423 7.646 7.646 7.646h68.935c4.223 0 7.646-3.423 7.646-7.646v-89.763c-.001-2.732-1.458-5.256-3.824-6.622z" fill="#ffc250"/><path d="m380.016 258.282-25.413-14.673v23.315c0 2.307-.607 4.471-1.669 6.344v42.666c0 14.235-11.54 25.775-25.775 25.775h-27.546v12.958c0 4.223 3.423 7.646 7.646 7.646h68.935c4.223 0 7.646-3.423 7.646-7.646v-89.764c-.001-2.731-1.458-5.255-3.824-6.621z" fill="#ebb044"/></g></svg>