<svg id="Capa_1" enable-background="new 0 0 512 512" height="512" viewBox="0 0 512 512" width="512" xmlns="http://www.w3.org/2000/svg"><g><path d="m405.468 292.097c-29.013 59.182-89.852 99.928-160.208 99.928-70.357 0-131.196-40.746-160.208-99.928-47.653 19.967-77.552 48.717-77.552 80.675 0 60.3 106.448 109.183 237.759 109.183s237.759-48.883 237.759-109.183c.001-31.958-29.898-60.708-77.55-80.675z" fill="#d6f6b2"/><ellipse cx="245.259" cy="111.91" fill="#d6f6b2" rx="178.319" ry="81.887"/><path d="m245.259 90.957c67.754 0 125.243 16.307 145.514 38.919 5.063-5.648 7.805-11.689 7.805-17.967 0-31.418-68.643-56.887-153.319-56.887s-153.319 25.47-153.319 56.888c0 6.279 2.742 12.32 7.805 17.967 20.272-22.613 77.76-38.92 145.514-38.92z" fill="#b3e59f"/><ellipse cx="245.259" cy="129.877" fill="#d8aa8b" rx="145.514" ry="38.92"/><path d="m318.808 97.918c6.509 13.869.96 32.744-16.647 38.078-26.411 8.001-60.146 12.8-96.901 12.8-38.304 0-73.328-5.212-100.2-13.829 23.844 19.929 77.647 33.829 140.201 33.829 67.754 0 125.243-16.307 145.514-38.92-12.299-13.717-38.294-25.114-71.967-31.958z" fill="#ce9875"/><path d="m245.259 193.796c-98.483 0-178.319-36.662-178.319-81.887v101.797c0 98.483 79.836 178.319 178.319 178.319 98.483 0 178.319-79.836 178.319-178.319v-101.796c0 45.224-79.836 81.886-178.319 81.886z" fill="#78c2a4"/><path d="m383.578 163.594v30.112c0 98.483-79.836 178.319-178.319 178.319-20.687 0-40.551-3.523-59.026-10.002 28.327 18.95 62.385 30.002 99.026 30.002 98.483 0 178.319-79.836 178.319-178.318v-101.797c0 19.598-14.993 37.589-40 51.684z" fill="#66b394"/><path d="m380.094 330.404c-32.697 37.745-80.977 61.621-134.834 61.621-53.857 0-102.138-23.876-134.834-61.621-25.582 11.465-40.984 26.241-40.984 42.368 0 36.458 78.717 66.014 175.819 66.014s175.819-29.555 175.819-66.014c-.002-16.127-15.404-30.904-40.986-42.368z" fill="#b3e59f"/><path d="m500.876 137.426h-77.298v35h45.922v24.227c0 20.353-16.559 36.912-36.911 36.912h-10.105c-1.338 12.071-3.88 23.779-7.504 35h17.609c39.716 0 71.911-32.196 71.911-71.912v-55.603c0-2.001-1.623-3.624-3.624-3.624z" fill="#78c2a4"/><path d="m300.995 140.081c-19.634.257-36.576 11.875-44.54 28.565 14.543-.39 28.525-1.531 41.662-3.322.115-.016.23-.032.346-.047h.003c1.046-.133 2.112-.202 3.193-.202 13.837 0 25.055 11.217 25.055 25.055v76.463c0 6.903 5.596 12.5 12.5 12.5 6.903 0 12.5-5.596 12.5-12.5v-75.643c0-27.895-22.826-51.234-50.719-50.869z" fill="#f6f9f9"/><path d="m376.383 258.204-24.669-14.242v22.632c0 6.903-5.596 12.5-12.5 12.5s-12.5-5.596-12.5-12.5v-22.632l-24.669 14.242c-2.296 1.326-3.711 3.776-3.711 6.428v87.134c0 4.099 3.323 7.422 7.422 7.422h66.915c4.099 0 7.422-3.323 7.422-7.422v-87.134c.001-2.652-1.414-5.102-3.71-6.428z" fill="#ffc250"/><path d="m376.383 258.204-24.669-14.243v22.632c0 2.239-.589 4.34-1.62 6.158v41.416c0 13.818-11.202 25.02-25.02 25.02h-26.739v12.578c0 4.099 3.323 7.422 7.422 7.422h66.915c4.099 0 7.422-3.323 7.422-7.422v-87.134c0-2.651-1.415-5.101-3.711-6.427z" fill="#ebb044"/><path d="m500.876 129.926h-69.798v-18.017c0-50.123-81.621-89.387-185.818-89.387s-185.82 39.264-185.82 89.387v101.797c0 26.503 5.578 51.729 15.621 74.563-21.785 9.871-39.257 21.429-52.007 34.413-15.297 15.58-23.054 32.433-23.054 50.09 0 32.265 26.283 62.104 74.008 84.02 94.889 43.574 247.585 43.588 342.503 0 47.725-21.916 74.008-51.755 74.008-84.02 0-17.657-7.757-34.51-23.055-50.089-12.748-12.982-30.216-24.538-51.996-34.408 1.757-4.012 3.371-8.084 4.84-12.21h12.281c43.787 0 79.411-35.624 79.411-79.411v-55.603c0-6.135-4.99-11.125-11.124-11.125zm-120.743 121.782-20.919-12.077v-48.681c0-2.63-.183-5.251-.541-7.844 25.629-9.333 45.133-21.429 57.405-35.253v65.854c0 33.773-10 66.615-28.484 94.461v-43.535c0-5.315-2.859-10.267-7.461-12.925zm-45.918-61.577c0-19.275-16.871-34.913-37.11-32.238-8.397 1.146-17.061 2.006-25.89 2.576 16.117-16.443 42.618-17.7 59.929-.614 8.307 8.198 13.07 19.532 13.07 31.096v75.644c0 2.757-2.243 4.999-5 4.999s-4.999-2.242-4.999-4.999c0-13.469 0-70.673 0-76.464zm-82.329-28.889c-2.2.035-4.416.054-6.626.054-58.122 0-111.484-12.683-134.612-31.419 23.127-18.736 76.489-31.42 134.612-31.42 58.109 0 111.46 12.678 134.595 31.407-8.762 7.043-22.179 13.496-38.863 18.646-10.954-10.476-25.115-16.146-40.096-15.928h.001c-20.481.267-38.86 11.13-49.011 28.66zm179.192 18.685h30.922v16.727c0 16.218-13.193 29.411-29.411 29.411h-1.922c.548-8.232.411-10.364.411-46.138zm-185.818-142.404c92.593 0 170.818 34.065 170.818 74.387 0 21.452-22.784 42.357-61.361 56.668-1.075-2.59-2.333-5.105-3.766-7.523 20.662-6.992 36.245-15.951 45.407-26.172 5.876-6.556 9.72-14.238 9.72-22.974 0-18.559-17.685-35.342-49.797-47.256-54.369-20.173-134.287-21.82-192.436-8.651-4.04.914-6.573 4.931-5.658 8.971.914 4.04 4.929 6.58 8.971 5.658 23.428-5.305 50.435-8.108 78.102-8.108 85.933 0 145.818 26.027 145.818 49.387 0 2.152-.51 4.336-1.523 6.534-11.715-9.53-29.374-17.652-51.764-23.743-78.461-21.346-193.369-11.605-236.827 23.742-1.013-2.197-1.523-4.381-1.523-6.533 0-10.881 13.03-22.378 35.749-31.543 3.842-1.549 5.699-5.92 4.149-9.761s-5.919-5.7-9.761-4.149c-29.529 11.911-45.138 27.628-45.138 45.452 0 8.05 3.271 15.779 9.72 22.974 13.723 15.308 38.819 24.798 58.567 30.17 44.889 12.212 100.634 14.017 146.76 7.655 6.294-.774 12.387 1.865 16.152 6.817-22.136 4.496-45.765 6.771-70.38 6.771-92.594 0-170.819-34.065-170.819-74.387s78.226-74.386 170.82-74.386zm-170.82 110.204c28.182 31.805 93.244 53.569 170.819 53.569 25.834 0 50.666-2.417 73.955-7.191v45.526l-20.921 12.078c-4.602 2.657-7.46 7.609-7.46 12.923v30.771c0 4.143 3.357 7.5 7.5 7.5s7.5-3.357 7.5-7.5l-.039-30.705 13.42-7.748v9.643c0 11.027 8.972 19.999 19.999 19.999 11.028 0 20-8.972 20-19.999v-9.663l13.38 7.701c0 80.717-.051 63.325 0 65.907v21.149c-7.424 0-59.761 0-66.76 0v-21.284c0-4.143-3.357-7.5-7.5-7.5s-7.5 3.357-7.5 7.5v21.361c0 8.229 6.694 14.923 14.923 14.923h15.615c-23.492 11.726-49.38 17.837-76.112 17.837-94.19 0-170.819-76.629-170.819-170.818v-65.979zm401.079 225.045c0 26.062-23.18 51.061-65.268 70.388-90.942 41.762-239.043 41.761-329.983 0-42.088-19.328-65.268-44.326-65.268-70.388 0-26.181 24.191-51.848 66.656-71.02 4.95 9.16 10.646 17.861 17.008 26.018-24.073 12.614-36.723 28.058-36.723 45.002 0 26.592 31.434 49.47 86.241 62.77 4.024.98 8.081-1.496 9.057-5.52.978-4.025-1.494-8.08-5.52-9.057-45.426-11.023-74.778-29.94-74.778-48.193 0-11.292 11.477-23.256 31.699-33.242 63.5 68.894 166.85 79.181 242.126 27.158h21.907c8.228 0 14.922-6.694 14.922-14.923v-9.231c16.656 9.331 25.984 20.058 25.984 30.238 0 14.075-16.997 28.53-46.633 39.657-52.06 19.547-124.444 22.651-180.722 14.975-4.1-.565-7.885 2.312-8.444 6.417-.561 4.104 2.312 7.885 6.417 8.445 58.572 7.99 133.483 4.682 188.022-15.794 36.344-13.646 56.359-32.717 56.359-53.7 0-16.927-12.625-32.357-36.651-44.964 6.403-8.226 12.073-16.941 16.969-26.041 42.445 19.17 66.623 44.83 66.623 71.005zm21.481-176.118c0 35.517-28.895 64.411-64.411 64.411h-7.644c1.731-6.572 3.104-13.249 4.109-20h3.535c24.488 0 44.411-19.923 44.411-44.411v-24.227c0-4.143-3.357-7.5-7.5-7.5h-38.422v-20.001h65.922z"/></g></svg>