<svg id="Capa_1" enable-background="new 0 0 512 512" height="512" viewBox="0 0 512 512" width="512" xmlns="http://www.w3.org/2000/svg"><g><g><g><g><path d="m60.773 284.379-9.484 12.559c-2.811 3.722-2.214 8.985 1.341 12.004 11.062 9.394 23.077 17.655 35.791 24.559h75.994c-20.852-2.647-40.925-8.785-59.911-18.378-15.916-8.044-30.696-18.471-43.731-30.744z" fill="#017b4e"/></g><path d="m163.889 301.791.734-.972c-32.587-5.031-61.789-20.311-84.213-42.444l-19.638 26.004c13.036 12.274 27.815 22.701 43.731 30.743 18.986 9.594 39.06 15.732 59.911 18.378h26.323c-8.869-5.642-17.369-11.89-25.395-18.706-3.85-3.271-4.497-8.972-1.453-13.003z" fill="#fff"/><path d="m80.411 258.374-19.638 26.004c6.654 6.265 13.767 12.041 21.249 17.272.107-1.655.68-3.296 1.75-4.714l16.579-21.953c-7.111-4.973-13.782-10.531-19.94-16.609z" fill="#eaf6ff"/><path d="m246.36 192.585-54.631-72.341c-1.756-2.325-5.248-2.325-7.004 0l-104.314 138.13c22.424 22.134 51.626 37.413 84.213 42.444z" fill="#fd4755"/><g><path d="m84.314 253.206c6.356 5.851 13.211 11.164 20.485 15.887l99.669-131.98-12.739-16.869c-1.756-2.325-5.248-2.325-7.004 0z" fill="#fb2b3a"/></g></g><g><g fill="#017b4e"><path d="m165.342 314.794c8.026 6.816 16.526 13.064 25.395 18.706h60.086c-9.991-3.207-19.768-7.2-29.289-12.011-17.24-8.711-33.25-20.007-47.371-33.302l-10.273 13.604c-3.045 4.031-2.398 9.732 1.452 13.003z"/><path d="m433.716 333.5c8.869-5.642 17.369-11.89 25.395-18.706 3.851-3.27 4.498-8.971 1.453-13.003l-10.274-13.604c-14.121 13.295-30.131 24.591-47.371 33.302-9.521 4.811-19.298 8.804-29.289 12.011z"/></g><path d="m250.823 333.5h122.807c9.991-3.207 19.768-7.2 29.289-12.011 17.24-8.711 33.25-20.007 47.371-33.302l-21.273-28.169c-30.026 29.637-71.268 47.937-116.791 47.937s-86.765-18.3-116.791-47.937l-21.273 28.169c14.121 13.295 30.131 24.591 47.371 33.302 9.522 4.811 19.299 8.804 29.29 12.011z" fill="#fff"/><path d="m218.907 279.296c-8.404-5.711-16.264-12.164-23.471-19.278l-21.273 28.169c8.073 7.601 16.766 14.545 25.951 20.73-.363-2.441.209-5.012 1.805-7.126z" fill="#eaf6ff"/><g><path d="m308.433 110.389-112.997 149.629c30.026 29.637 71.268 47.937 116.791 47.937s86.765-18.3 116.791-47.937l-112.998-149.629c-1.902-2.519-5.685-2.519-7.587 0z" fill="#fb2b3a"/></g><g><path d="m331.241 130.544-15.221-20.156c-1.902-2.519-5.685-2.519-7.587 0l-112.997 149.63c7.207 7.114 15.067 13.567 23.471 19.278z" fill="#e41f2d"/></g></g></g><g><path d="m62.018 364.931 21.21 33.876c1.828 2.92 5.031 4.693 8.476 4.693h328.591c3.445 0 6.648-1.773 8.476-4.693l21.21-33.876z" fill="#fe9901"/><path d="m128.229 398.807-20.584-32.876h-45l20.584 32.876c1.828 2.92 5.031 4.693 8.476 4.693h45c-3.446 0-6.648-1.773-8.476-4.693z" fill="#fb8801"/><g><path d="m488.285 365.931h-464.57c-8.955 0-16.215-7.26-16.215-16.215 0-8.955 7.26-16.215 16.215-16.215h464.569c8.955 0 16.215 7.26 16.215 16.215.001 8.955-7.259 16.215-16.214 16.215z" fill="#fed402"/></g><g><path d="m51 349.715c0-8.956 7.26-16.215 16.215-16.215h-43.5c-8.956 0-16.215 7.26-16.215 16.215s7.26 16.215 16.215 16.215h43.5c-8.955.001-16.215-7.259-16.215-16.215z" fill="#fac600"/></g></g><g><circle cx="128.227" cy="245.742" r="7.5"/><circle cx="168.227" cy="261.742" r="7.5"/><circle cx="168.477" cy="210.742" r="7.5"/><circle cx="208.477" cy="210.742" r="7.5"/><circle cx="189.477" cy="169.742" r="7.5"/><circle cx="252.227" cy="245.742" r="7.5"/><circle cx="292.227" cy="261.742" r="7.5"/><circle cx="332.227" cy="261.742" r="7.5"/><circle cx="372.227" cy="245.742" r="7.5"/><circle cx="292.477" cy="210.742" r="7.5"/><circle cx="332.477" cy="210.742" r="7.5"/><circle cx="313.477" cy="169.742" r="7.5"/><path d="m488.285 326h-31.05c2.272-1.79 4.522-3.613 6.732-5.489 6.878-5.842 8.013-16.05 2.583-23.239l-76.872-101.792c-2.495-3.304-7.198-3.961-10.505-1.465-3.305 2.496-3.961 7.199-1.465 10.505l41.092 54.414c.001.002.002.004.004.005l.188.249c-29.287 26.662-66.946 41.266-106.766 41.266s-77.48-14.605-106.766-41.266l.188-.249c.001-.002.002-.004.004-.005l106.574-141.123 44.336 58.709c2.496 3.305 7.199 3.962 10.505 1.465 3.305-2.496 3.961-7.199 1.465-10.505l-46.527-61.611c-2.337-3.095-5.901-4.87-9.779-4.869-3.878 0-7.442 1.775-9.778 4.869l-56.088 74.271-48.647-64.417c-2.267-3.001-5.725-4.723-9.487-4.723s-7.22 1.722-9.487 4.724l-133.436 176.693c-5.196 6.881-4.11 16.65 2.472 22.24 4.705 3.995 9.569 7.775 14.565 11.342h-38.625c-13.076.001-23.715 10.64-23.715 23.716s10.639 23.715 23.715 23.715h34.776l18.38 29.356c3.22 5.143 8.765 8.213 14.833 8.213h328.592c6.068 0 11.612-3.07 14.833-8.213l18.38-29.356h34.776c13.077 0 23.715-10.639 23.715-23.715s-10.639-23.715-23.715-23.715zm-33.706-19.689c.643.851.501 2.066-.323 2.766-7.244 6.152-14.859 11.795-22.76 16.923h-21.039c13.821-7.385 26.828-16.346 38.785-26.756zm-142.352 9.144c43.125 0 83.934-15.652 115.841-44.25l11.95 15.824s0 .001.001.001l.164.218c-12.424 10.931-26.071 20.183-40.645 27.547-8.806 4.45-17.838 8.18-27.064 11.205h-120.494c-9.226-3.025-18.258-6.755-27.064-11.205-14.575-7.365-28.222-16.616-40.645-27.547l.164-.218s.001-.001.001-.001l11.95-15.824c31.906 28.598 72.715 44.25 115.841 44.25zm-98.231 10.545h-21.04c-7.901-5.127-15.515-10.771-22.759-16.922-.824-.7-.966-1.915-.322-2.767l5.336-7.066c11.957 10.409 24.964 19.37 38.785 26.755zm-132.615-56.466c7.675 6.815 15.979 12.904 24.79 18.134 3.562 2.114 8.163.941 10.278-2.621 2.114-3.562.941-8.164-2.621-10.278-8.334-4.947-16.176-10.729-23.385-17.236l97.783-129.482 48.735 64.534-75.563 100.06c-5.144-.948-10.232-2.165-15.24-3.669-3.964-1.19-8.148 1.058-9.341 5.024-1.192 3.967 1.057 8.149 5.024 9.341 4.176 1.255 8.407 2.307 12.672 3.208-.288 5.16 1.758 10.381 5.974 13.962 2.213 1.88 4.472 3.698 6.748 5.489h-2.259c-19.868-2.563-38.996-8.429-57.091-17.572-13.254-6.697-25.674-15.091-37-24.997zm-23.896 33.691c-.528-.449-.621-1.226-.211-1.768l4.563-6.042c12.05 10.425 25.225 19.297 39.284 26.401 2.925 1.478 5.878 2.866 8.852 4.185h-19.594c-11.599-6.441-22.642-14.07-32.894-22.776zm430.8 55.206h-87.285c-4.142 0-7.5 3.358-7.5 7.5s3.358 7.5 7.5 7.5h34.811l-13.396 21.396c-.46.735-1.252 1.173-2.119 1.173h-328.592c-.867 0-1.659-.438-2.119-1.173l-13.396-21.396h288.811c4.142 0 7.5-3.358 7.5-7.5s-3.358-7.5-7.5-7.5h-341.285c-4.806 0-8.715-3.91-8.715-8.715s3.91-8.716 8.715-8.716h464.569c4.806 0 8.715 3.91 8.715 8.715s-3.909 8.716-8.714 8.716z"/></g></g></svg>