<?xml version="1.0" encoding="UTF-8" standalone="no"?>
<!-- Created with Inkscape (http://www.inkscape.org/) -->

<svg
   version="1.1"
   id="svg4995"
   xml:space="preserve"
   width="682.66669"
   height="682.66669"
   viewBox="0 0 682.66669 682.66669"
   xmlns="http://www.w3.org/2000/svg"
   xmlns:svg="http://www.w3.org/2000/svg"><defs
     id="defs4999"><clipPath
       clipPathUnits="userSpaceOnUse"
       id="clipPath5009"><path
         d="M 0,512 H 512 V 0 H 0 Z"
         id="path5007" /></clipPath></defs><g
     id="g5001"
     transform="matrix(1.3333333,0,0,-1.3333333,0,682.66667)"><g
       id="g5003"><g
         id="g5005"
         clip-path="url(#clipPath5009)"><g
           id="g5011"
           transform="translate(254.2041,249.3643)"><path
             d="m 0,0 14.796,-157.364 8.074,-62.793 c 1.145,-12.301 11.475,-21.707 23.838,-21.707 h 94.248 c 12.363,0 22.693,9.406 23.838,21.707 L 185.29,0 92.796,30.636 Z"
             style="fill:#73c3ee;fill-opacity:1;fill-rule:nonzero;stroke:none"
             id="path5013" /></g><g
           id="g5015"
           transform="translate(347,280)"><path
             d="M 0,0 -20.032,-6.613 52.494,-30.636 31.998,-250.793 C 30.854,-263.094 20.523,-272.5 8.16,-272.5 h 40 c 12.363,0 22.694,9.406 23.838,21.707 l 20.496,220.157 z"
             style="fill:#59acd9;fill-opacity:1;fill-rule:nonzero;stroke:none"
             id="path5017" /></g><g
           id="g5019"
           transform="translate(447.6182,336.6221)"><path
             d="m 0,0 h -201.618 l 8.204,-87.258 h 185.29 z"
             style="fill:#c6e7f7;fill-opacity:1;fill-rule:nonzero;stroke:none"
             id="path5021" /></g><g
           id="g5023"
           transform="translate(407.6182,336.6221)"><path
             d="m 0,0 -8.124,-87.258 h 40 L 40,0 Z"
             style="fill:#b5e0f5;fill-opacity:1;fill-rule:nonzero;stroke:none"
             id="path5025" /></g><g
           id="g5027"
           transform="translate(214.8389,414.958)"><path
             d="M 0,0 H -10.868 V 50.042 H -80.633 V 0 h -10.868 c -32.398,0 -58.662,-26.28 -58.662,-58.697 V -69.52 c 0,-11.076 8.974,-20.055 20.043,-20.055 H 38.618 c 11.07,0 20.044,8.979 20.044,20.055 v 10.823 C 58.662,-26.279 32.398,0 0,0"
             style="fill:#c6e7f7;fill-opacity:1;fill-rule:nonzero;stroke:none"
             id="path5029" /></g><g
           id="g5031"
           transform="translate(214.8389,414.958)"><path
             d="m 0,0 h -10.868 v 50.042 h -40 V 0 H -40 C -7.602,0 18.662,-26.28 18.662,-58.697 V -69.52 c 0,-11.076 -8.974,-20.055 -20.044,-20.055 h 40 c 11.07,0 20.044,8.979 20.044,20.055 v 10.823 C 58.662,-26.28 32.398,0 0,0"
             style="fill:#b5e0f5;fill-opacity:1;fill-rule:nonzero;stroke:none"
             id="path5033" /></g><g
           id="g5035"
           transform="translate(253.3555,218.5879)"><path
             d="m 0,0 h -168.534 c -11.126,0 -20.146,9.02 -20.146,20.146 v 66.599 c 0,11.073 8.977,20.05 20.05,20.05 H 0.096 c 11.073,0 20.05,-8.977 20.05,-20.05 V 20.146 C 20.146,9.02 11.126,0 0,0"
             style="fill:#73c3ee;fill-opacity:1;fill-rule:nonzero;stroke:none"
             id="path5037" /></g><g
           id="g5039"
           transform="translate(253.4512,325.3828)"><path
             d="m 0,0 h -40 c 11.073,0 20.05,-8.977 20.05,-20.05 v -66.599 c 0,-11.126 -9.02,-20.146 -20.146,-20.146 h 40 c 11.126,0 20.146,9.02 20.146,20.146 V -20.05 C 20.05,-8.977 11.073,0 0,0"
             style="fill:#59acd9;fill-opacity:1;fill-rule:nonzero;stroke:none"
             id="path5041" /></g><g
           id="g5043"
           transform="translate(274.2305,157.5547)"><path
             d="M 0,0 C 0,11.187 -8.797,20.255 -19.648,20.255 -8.797,20.255 0,29.323 0,40.51 0,51.696 -8.797,60.765 -19.648,60.765 h -170.551 c -10.853,0 -19.65,-9.069 -19.65,-20.255 0,-11.187 8.797,-20.255 19.65,-20.255 -10.853,0 -19.65,-9.068 -19.65,-20.255 0,-11.187 8.797,-20.256 19.65,-20.256 0,0 -19.356,-0.271 -19.356,-25.33 v -45.771 c 0,-32.418 26.264,-58.698 58.661,-58.698 h 0.192 91.12 0.19 c 32.399,0 58.663,26.28 58.663,58.698 v 45.771 c 0,24.725 -18.919,25.33 -18.919,25.33 C -8.797,-20.256 0,-11.187 0,0"
             style="fill:#c6e7f7;fill-opacity:1;fill-rule:nonzero;stroke:none"
             id="path5045" /></g><g
           id="g5047"
           transform="translate(274.2305,157.5547)"><path
             d="M 0,0 C 0,11.187 -8.797,20.255 -19.648,20.255 -8.797,20.255 0,29.323 0,40.51 0,51.696 -8.797,60.765 -19.648,60.765 h -40 C -48.797,60.765 -40,51.696 -40,40.51 -40,29.323 -48.797,20.255 -59.648,20.255 -48.797,20.255 -40,11.187 -40,0 c 0,-11.188 -8.797,-20.256 -19.648,-20.256 0,0 18.919,-0.605 18.919,-25.33 v -45.771 c 0,-32.418 -26.264,-58.698 -58.663,-58.698 h 39.81 0.19 c 32.399,0 58.663,26.28 58.663,58.698 v 45.771 c 0,24.725 -18.919,25.33 -18.919,25.33 C -8.797,-20.256 0,-11.188 0,0"
             style="fill:#b5e0f5;fill-opacity:1;fill-rule:nonzero;stroke:none"
             id="path5049" /></g><g
           id="g5051"
           transform="translate(216.75,449.5547)"><path
             d="m 0,0 h -95.324 c -2.756,0 -4.989,2.233 -4.989,4.989 v 33.685 c 0,8.986 7.285,16.271 16.271,16.271 h 72.76 C -2.295,54.945 4.99,47.66 4.99,38.674 V 4.989 C 4.99,2.233 2.756,0 0,0"
             style="fill:#73c3ee;fill-opacity:1;fill-rule:nonzero;stroke:none"
             id="path5053" /></g><g
           id="g5055"
           transform="translate(205.4678,504.5)"><path
             d="m 0,0 h -40 c 8.987,0 16.272,-7.285 16.272,-16.271 v -33.685 c 0,-2.756 -2.234,-4.989 -4.99,-4.989 h 40 c 2.756,0 4.99,2.233 4.99,4.989 v 33.685 C 16.272,-7.285 8.987,0 0,0"
             style="fill:#59acd9;fill-opacity:1;fill-rule:nonzero;stroke:none"
             id="path5057" /></g><g
           id="g5059"
           transform="translate(216.75,449.5547)"><path
             d="m 0,0 h -95.324 c -2.756,0 -4.989,2.233 -4.989,4.989 v 33.685 c 0,8.986 7.285,16.271 16.271,16.271 h 72.76 C -2.295,54.945 4.99,47.66 4.99,38.674 V 4.989 C 4.99,2.233 2.756,0 0,0 Z"
             style="fill:none;stroke:#000000;stroke-width:15;stroke-linecap:round;stroke-linejoin:round;stroke-miterlimit:10;stroke-dasharray:none;stroke-opacity:1"
             id="path5061" /></g><g
           id="g5063"
           transform="translate(74.5479,388.8613)"><path
             d="m 0,0 c -6.236,-9.325 -9.872,-20.538 -9.872,-32.601 v -10.822 c 0,-11.076 8.974,-20.056 20.043,-20.056 h 168.738 c 11.07,0 20.044,8.98 20.044,20.056 v 10.822 c 0,32.418 -26.264,58.698 -58.662,58.698 H 129.423 V 60.693 H 59.658 V 26.097 H 48.79 c -8.373,0 -16.337,-1.755 -23.542,-4.918"
             style="fill:none;stroke:#000000;stroke-width:15;stroke-linecap:round;stroke-linejoin:round;stroke-miterlimit:10;stroke-dasharray:none;stroke-opacity:1"
             id="path5065" /></g><g
           id="g5067"
           transform="translate(253.3555,218.5879)"><path
             d="m 0,0 h -168.534 c -11.126,0 -20.146,9.02 -20.146,20.146 v 66.599 c 0,11.073 8.977,20.05 20.05,20.05 H 0.096 c 11.073,0 20.05,-8.977 20.05,-20.05 V 20.146 C 20.146,9.02 11.126,0 0,0 Z"
             style="fill:none;stroke:#000000;stroke-width:15;stroke-linecap:round;stroke-linejoin:round;stroke-miterlimit:10;stroke-dasharray:none;stroke-opacity:1"
             id="path5069" /></g><g
           id="g5071"
           transform="translate(274.2305,157.5547)"><path
             d="M 0,0 C 0,11.187 -8.797,20.255 -19.648,20.255 -8.797,20.255 0,29.323 0,40.51 0,51.696 -8.797,60.765 -19.648,60.765 h -170.551 c -10.853,0 -19.65,-9.069 -19.65,-20.255 0,-11.187 8.797,-20.255 19.65,-20.255 -10.853,0 -19.65,-9.068 -19.65,-20.255 0,-11.187 8.797,-20.256 19.65,-20.256 0,0 -19.356,-0.271 -19.356,-25.33 v -45.771 c 0,-32.418 26.264,-58.698 58.661,-58.698 h 0.192 91.12 0.19 c 32.399,0 58.663,26.28 58.663,58.698 v 45.771 c 0,24.725 -18.919,25.33 -18.919,25.33 C -8.797,-20.256 0,-11.187 0,0 Z"
             style="fill:none;stroke:#000000;stroke-width:15;stroke-linecap:round;stroke-linejoin:round;stroke-miterlimit:10;stroke-dasharray:none;stroke-opacity:1"
             id="path5073" /></g><g
           id="g5075"
           transform="translate(84.0313,137.2988)"><path
             d="M 0,0 H 123.833"
             style="fill:none;stroke:#000000;stroke-width:15;stroke-linecap:round;stroke-linejoin:round;stroke-miterlimit:10;stroke-dasharray:none;stroke-opacity:1"
             id="path5077" /></g><g
           id="g5079"
           transform="translate(254.582,177.8096)"><path
             d="M 0,0 H -129.448"
             style="fill:none;stroke:#000000;stroke-width:15;stroke-linecap:round;stroke-linejoin:round;stroke-miterlimit:10;stroke-dasharray:none;stroke-opacity:1"
             id="path5081" /></g><g
           id="g5083"
           transform="translate(421.3398,54.3633)"><path
             d="m 0,0 -2.342,-25.157 c -1.144,-12.3 -11.474,-21.706 -23.839,-21.706 h -94.247 c -12.363,0 -22.693,9.406 -23.839,21.706 l -3.444,37.003"
             style="fill:none;stroke:#000000;stroke-width:15;stroke-linecap:round;stroke-linejoin:round;stroke-miterlimit:10;stroke-dasharray:none;stroke-opacity:1"
             id="path5085" /></g><g
           id="g5087"
           transform="translate(271.4619,336.6221)"><path
             d="M 0,0 H 176.156 L 153.414,-244.277"
             style="fill:none;stroke:#000000;stroke-width:15;stroke-linecap:round;stroke-linejoin:round;stroke-miterlimit:10;stroke-dasharray:none;stroke-opacity:1"
             id="path5089" /></g><g
           id="g5091"
           transform="translate(273.501,249.3643)"><path
             d="M 0,0 H 165.993"
             style="fill:none;stroke:#000000;stroke-width:15;stroke-linecap:round;stroke-linejoin:round;stroke-miterlimit:10;stroke-dasharray:none;stroke-opacity:1"
             id="path5093" /></g></g></g></g></svg>
