<svg id="Capa_1" enable-background="new 0 0 512 512" height="512" viewBox="0 0 512 512" width="512" xmlns="http://www.w3.org/2000/svg"><g><g fill="#68ca44"><path d="m333.562 307.261c-10.023 0-18.685 5.812-22.808 14.249 1.071 2.808 1.663 5.853 1.663 9.038 0 .727-.038 1.444-.098 2.155-.32-.012-.636-.041-.96-.041 11.842 0 21.788 8.113 24.587 19.083 4.579-6.617 12.219-10.955 20.875-10.955.255 0 .507.012.761.019.873-2.566 1.354-5.314 1.354-8.175 0-14.012-11.361-25.373-25.374-25.373z"/><path d="m265.898 332.663c9.962 0 18.579 5.744 22.731 14.098 4.152-8.354 12.769-14.098 22.731-14.098.323 0 .639.029.96.041.06-.711.098-1.429.098-2.155 0-14.014-11.36-25.374-25.374-25.374s-25.374 11.36-25.374 25.374c0 .829.043 1.648.121 2.457 1.337-.219 2.707-.343 4.107-.343z"/><path d="m243 364.477c1.409.924 2.713 1.996 3.879 3.204 4.092-4.238 9.828-6.878 16.184-6.878s12.092 2.64 16.184 6.878c2.028-2.1 4.461-3.807 7.172-4.995-.279-1.508-.433-3.06-.433-4.649 0-4.052.954-7.878 2.643-11.276-4.152-8.354-12.769-14.098-22.731-14.098-10.095 0-18.811 5.896-22.898 14.431z"/><path d="m295.43 360.803c7.537 0 14.203 3.71 18.286 9.399h18.064c-.211-1.316-.333-2.661-.333-4.037 0-5.358 1.665-10.324 4.499-14.419-2.799-10.97-12.745-19.083-24.587-19.083-14.014 0-25.374 11.36-25.374 25.374 0 1.589.153 3.141.433 4.649 2.759-1.21 5.806-1.883 9.012-1.883z"/><path d="m381.872 370.202c.21-1.315.323-2.663.323-4.037 0-14.014-11.36-25.374-25.374-25.374s-25.374 11.36-25.374 25.374c0 1.374.113 2.722.323 4.037z"/></g><path d="m161.309 462h20.408c-1.104-2.657-1.717-5.571-1.717-8.628 0-6.356 2.64-12.092 6.878-16.184-4.238-4.092-6.878-9.828-6.878-16.184s2.64-12.092 6.878-16.184c-4.238-4.092-6.878-9.828-6.878-16.184 0-12.426 10.073-22.499 22.499-22.499 3.946 0 7.653 1.019 10.876 2.805 4.127-4.972 10.353-8.139 17.32-8.139 4.545 0 8.769 1.355 12.305 3.674v-152.477c0-25.497-14.574-47.578-35.842-58.397-5.014-2.551-8.158-7.714-8.158-13.34v-68.763h-43v68.762c0 5.626-3.143 10.789-8.158 13.34-21.268 10.82-35.842 32.901-35.842 58.398v222.085c20.937 0 39.247 11.193 49.309 27.915z" fill="#3e5690"/><g fill="#2e3e70"><path d="m132.009 222c.19-25.285 14.705-47.149 35.833-57.897 5.014-2.551 8.158-7.714 8.158-13.34v-79.263h-20v68.762c0 5.626-3.143 10.789-8.158 13.34-21.268 10.82-35.842 32.901-35.842 58.398v10z"/><path d="m112 434.085c7.035 0 13.771 1.269 20 3.582v-78.423c-6.329 1.791-13.031 2.761-20 2.761z"/></g><g><path d="m199 71.5v-59c0-2.761-2.239-5-5-5h-33c-2.761 0-5 2.239-5 5v59z" fill="#ffbd86"/></g><g><path d="m181 7.5h-20c-2.761 0-5 2.239-5 5v59h20v-59c0-2.761 2.239-5 5-5z" fill="#f6a96c"/></g><path d="m180 388.637c0-12.426 10.073-22.499 22.499-22.499 3.795 0 7.366.947 10.501 2.607v-123.745c0-2.761-2.239-5-5-5h-31.576l7.094 34.051c7.255 34.823-11.466 68.007-41.518 81.551v33.398c0 2.761 2.239 5 5 5h33.651c-.421-1.719-.651-3.514-.651-5.363z" fill="#fedf74"/><path d="m317.929 448.038c0 5.746-2.157 10.986-5.701 14.962h147.187v-32.168c0-1.627-.793-3.151-2.127-4.084-4.855-3.397-8.034-9.021-8.034-15.396s3.179-11.999 8.034-15.396c1.333-.933 2.127-2.456 2.127-4.084v-16.67c0-2.761-2.239-5-5-5h-140.699c2.649 3.69 4.213 8.212 4.213 13.101 0 6.356-2.64 12.092-6.878 16.184 4.238 4.092 6.878 9.828 6.878 16.184s-2.64 12.092-6.878 16.184c4.239 4.091 6.878 9.827 6.878 16.183z" fill="#fed402"/><path d="m385.387 462c1.83-2.9 2.904-6.324 2.904-10.006 0-10.381-8.416-18.797-18.797-18.797s-18.797 8.416-18.797 18.797c0 3.682 1.074 7.106 2.904 10.006z" fill="#fe9901"/><g><path d="m362.89 374.774c0 10.381 8.416 18.797 18.797 18.797s18.797-8.416 18.797-18.797c0-1.58-.216-3.106-.583-4.572h-36.427c-.368 1.466-.584 2.992-.584 4.572z" fill="#fe9901"/></g><path d="m181.717 462h31.342c-3.042-3.837-4.863-8.685-4.863-13.962 0-6.356 2.64-12.092 6.878-16.184-4.238-4.092-6.878-9.828-6.878-16.184s2.64-12.092 6.878-16.184c-4.238-4.092-6.878-9.828-6.878-16.184 0-5.459 1.946-10.464 5.18-14.36-3.223-1.786-6.93-2.805-10.876-2.805-12.426 0-22.499 10.073-22.499 22.499 0 6.356 2.64 12.092 6.878 16.184-4.238 4.092-6.878 9.828-6.878 16.184s2.64 12.092 6.878 16.184c-4.238 4.092-6.878 9.828-6.878 16.184-.001 3.057.611 5.971 1.716 8.628z" fill="#fed2a4"/><path d="m213.059 462h100.008c3.042-3.837 4.863-8.685 4.863-13.962 0-6.356-2.64-12.092-6.878-16.184 4.238-4.092 6.878-9.828 6.878-16.184s-2.64-12.092-6.878-16.184c4.238-4.092 6.878-9.828 6.878-16.184 0-12.426-10.073-22.499-22.499-22.499-6.356 0-12.092 2.64-16.184 6.878-4.092-4.238-9.828-6.878-16.184-6.878s-12.092 2.64-16.184 6.878c-4.092-4.238-9.828-6.878-16.184-6.878-12.426 0-22.499 10.073-22.499 22.499 0 6.356 2.64 12.092 6.878 16.184-4.238 4.092-6.878 9.828-6.878 16.184s2.64 12.092 6.878 16.184c-4.238 4.092-6.878 9.828-6.878 16.184 0 5.277 1.821 10.125 4.863 13.962z" fill="#ffbd86"/><g><path d="m161.309 462c-10.061-16.722-28.372-27.915-49.309-27.915s-39.247 11.193-49.309 27.915z" fill="#eaf6ff"/><path d="m95.495 462c7.324-12.166 19.004-21.409 32.899-25.536-5.196-1.543-10.697-2.379-16.394-2.379-20.937 0-39.247 11.194-49.309 27.915z" fill="#d8ecfe"/><g><path d="m168.608 222h-113.216c-2.368 0-4.412 1.662-4.895 3.98l-10.015 48.071c-9.451 45.365 25.179 87.953 71.518 87.953 46.339 0 80.969-42.588 71.518-87.953l-10.015-48.07c-.483-2.319-2.526-3.981-4.895-3.981z" fill="#eaf6ff"/></g><g><path d="m78.562 274.051 10.015-48.071c.483-2.319 2.527-3.98 4.895-3.98h-38.08c-2.368 0-4.412 1.662-4.895 3.98l-10.015 48.071c-9.451 45.365 25.179 87.953 71.518 87.953 6.617 0 12.994-.872 19.04-2.493-36.289-9.731-60.579-46.574-52.478-85.46z" fill="#d8ecfe"/></g><g><path d="m112 362.004c44.23 0 77.762-38.804 72.506-81.784h-145.012c-5.256 42.98 28.276 81.784 72.506 81.784z" fill="#fd4755"/></g><g><path d="m77.543 280.219h-38.05c-5.255 42.981 28.277 81.785 72.507 81.785 6.613 0 12.984-.873 19.025-2.493-34.363-9.21-57.952-42.737-53.482-79.292z" fill="#fb2b3a"/></g></g><g><path d="m490 504.5h-468c-2.761 0-5-2.239-5-5v-32.5c0-2.761 2.239-5 5-5h468c2.761 0 5 2.239 5 5v32.5c0 2.761-2.239 5-5 5z" fill="#ea9b58"/></g><g><path d="m69 499.5v-32.5c0-2.761 2.239-5 5-5h-52c-2.761 0-5 2.239-5 5v32.5c0 2.761 2.239 5 5 5h52c-2.761 0-5-2.239-5-5z" fill="#d88a55"/></g><g><circle cx="242.741" cy="397.381" r="7.5"/><circle cx="283.384" cy="397.381" r="7.5"/><circle cx="242.741" cy="433.959" r="7.5"/><circle cx="283.384" cy="433.959" r="7.5"/><path d="m490 454.5h-23.085v-23.668c0-4.073-1.992-7.897-5.327-10.229-3.026-2.117-4.833-5.575-4.833-9.25 0-3.676 1.807-7.134 4.83-9.25 3.338-2.333 5.33-6.157 5.33-10.23v-16.67c0-6.893-5.607-12.5-12.5-12.5h-64.908c-1.397-13.276-10.725-24.222-23.149-27.996.043-.686.077-1.374.077-2.071 0-18.127-14.747-32.874-32.874-32.874-4.995 0-9.731 1.125-13.975 3.127v-9.519h4.185c10.578 0 19.185-8.606 19.185-19.185s-8.606-19.185-19.185-19.185-19.185 8.606-19.185 19.185v4.185h-9.772c-4.143 0-7.5 3.357-7.5 7.5s3.357 7.5 7.5 7.5h9.772v9.398c-5.081-3.22-11.096-5.094-17.544-5.094-17.022 0-31.062 13.005-32.71 29.601-1.322.499-2.598 1.09-3.833 1.748v-117.023c0-27.611-15.305-52.549-39.941-65.082-2.503-1.273-4.059-3.823-4.059-6.655v-13.263c0-4.143-3.358-7.5-7.5-7.5s-7.5 3.357-7.5 7.5v13.263c0 8.506 4.697 16.179 12.257 20.024 19.58 9.961 31.743 29.775 31.743 51.713v141.697c-1.574-.252-3.177-.393-4.805-.393-3.578 0-7.01.632-10.195 1.786v-110.09c0-6.893-5.607-12.5-12.5-12.5h-25.477l-1.677-8.051c-1.202-5.765-6.349-9.949-12.237-9.949h-49.108v-2.5c0-21.938 12.163-41.752 31.743-51.713 7.56-3.846 12.257-11.519 12.257-20.024v-61.263h28v12c0 4.143 3.358 7.5 7.5 7.5s7.5-3.357 7.5-7.5v-78.5c0-6.893-5.607-12.5-12.5-12.5h-33c-6.893 0-12.5 5.607-12.5 12.5v127.763c0 2.832-1.555 5.382-4.059 6.655-24.636 12.533-39.941 37.471-39.941 65.082v2.5h-49.108c-5.889 0-11.035 4.185-12.237 9.951l-10.015 48.07c-4.967 23.842.997 48.354 16.361 67.249 13.776 16.942 33.513 27.398 54.999 29.382v57.873c-18.601 2.154-35.291 12.228-45.886 27.475h-36.614c-6.893 0-12.5 5.607-12.5 12.5v32.5c0 6.893 5.607 12.5 12.5 12.5h468c6.893 0 12.5-5.607 12.5-12.5v-32.5c0-6.893-5.607-12.5-12.5-12.5zm-170.413-180.315c0-2.308 1.877-4.185 4.185-4.185s4.185 1.877 4.185 4.185-1.877 4.185-4.185 4.185h-4.185zm-156.087-259.185h28v49h-28zm229.1 362.702c-1.293 4.814-5.695 8.369-10.913 8.369-5.217 0-9.619-3.555-10.912-8.369zm-35.779-29.411c8.67 0 15.913 6.208 17.531 14.411h-35.062c1.618-8.203 8.861-14.411 17.531-14.411zm-23.259-33.529c9.855 0 17.874 8.019 17.874 17.874 0 .374-.018.743-.041 1.111-4.837.807-9.319 2.671-13.2 5.35-4.421-6.248-10.963-10.88-18.57-12.86-.17-1.29-.407-2.56-.723-3.799 3.233-4.633 8.594-7.676 14.66-7.676zm-22.203 25.401c7.311 0 13.604 4.418 16.369 10.72-1.898 3.599-3.139 7.592-3.586 11.819h-6.935c-5.472-5.781-13.208-9.398-21.777-9.398-.436 0-.867.028-1.3.046 2.067-7.586 8.998-13.187 17.229-13.187zm-24.316-27.489c8.259 0 15.208 5.639 17.249 13.263-6 1.32-11.387 4.283-15.67 8.392-4.992-4.79-11.481-8.026-18.693-8.913 2.211-7.361 9.043-12.742 17.114-12.742zm-36.543 36.331c3.11-5.281 8.839-8.842 15.397-8.842 5.882 0 11.094 2.869 14.354 7.268-1.092 3.194-1.707 6.606-1.756 10.154-4.61-2.782-9.893-4.282-15.432-4.282-4.42 0-8.679.947-12.562 2.742v-7.04zm-30.217 77.454c-2.958-2.856-4.587-6.688-4.587-10.789s1.629-7.932 4.587-10.788c1.464-1.413 2.291-3.36 2.291-5.396s-.827-3.982-2.291-5.396c-2.958-2.856-4.587-6.688-4.587-10.788 0-8.271 6.729-14.999 15-14.999 4.101 0 7.933 1.629 10.789 4.587 1.413 1.464 3.361 2.29 5.395 2.29 2.035 0 3.982-.827 5.396-2.29 2.855-2.958 6.687-4.587 10.788-4.587s7.933 1.629 10.788 4.587c1.414 1.464 3.361 2.29 5.396 2.29s3.981-.826 5.396-2.29c2.855-2.958 6.688-4.587 10.788-4.587 8.271 0 15 6.729 15 14.999 0 4.101-1.629 7.932-4.587 10.788-1.464 1.413-2.291 3.36-2.291 5.396s.827 3.982 2.291 5.396c2.958 2.856 4.587 6.688 4.587 10.788 0 4.102-1.629 7.933-4.587 10.789-1.464 1.413-2.291 3.361-2.291 5.396s.827 3.983 2.291 5.396c2.958 2.854 4.587 6.686 4.587 10.787 0 2.315-.533 4.505-1.475 6.462h-91.787c-.942-1.957-1.475-4.147-1.475-6.462 0-4.102 1.629-7.933 4.587-10.787 1.464-1.414 2.291-3.361 2.291-5.396s-.826-3.983-2.29-5.396zm-29.423-153.938-5.213-25.021h19.853v111.303c-.992-.098-1.99-.165-3-.165-15.823 0-28.814 12.315-29.915 27.862h-23.085v-26.227c9.498-4.998 18.016-11.914 24.999-20.502 15.365-18.896 21.329-43.408 16.361-67.25zm14.564 159.333c-3.08 4.779-4.729 10.344-4.729 16.184 0 2.22.257 4.379.718 6.462h-13.868c-.028-.372-.045-.748-.045-1.128 0-4.101 1.629-7.932 4.587-10.788 1.464-1.413 2.291-3.36 2.291-5.396s-.827-3.982-2.291-5.396c-2.958-2.856-4.587-6.688-4.587-10.788 0-4.102 1.629-7.933 4.586-10.787 1.464-1.414 2.291-3.361 2.291-5.396 0-2.034-.827-3.982-2.291-5.396-2.958-2.856-4.587-6.688-4.587-10.789 0-8.203 6.621-14.88 14.798-14.989-1.034 3.032-1.603 6.277-1.603 9.655 0 5.839 1.648 11.403 4.729 16.184-3.08 4.78-4.729 10.345-4.729 16.184.001 5.84 1.649 11.403 4.73 16.184zm-32.882 22.646h-7.156c-10.595-15.247-27.285-25.321-45.886-27.475v-57.873c5.118-.473 10.137-1.423 15-2.831v22.679c0 6.893 5.607 12.5 12.5 12.5h28.392c.543 1.141 1.148 2.253 1.836 3.321-3.08 4.779-4.728 10.344-4.728 16.184 0 5.839 1.648 11.403 4.729 16.184-3.081 4.78-4.729 10.345-4.729 16.184 0 .378.028.751.042 1.127zm-111.403-124.192c-9.901-12.176-14.983-27.22-14.672-42.588h69.533c4.142 0 7.5-3.357 7.5-7.5s-3.358-7.5-7.5-7.5h-67.58l9.004-43.22h109.151l9.004 43.22h-24.579c-4.142 0-7.5 3.357-7.5 7.5s3.358 7.5 7.5 7.5h26.532c.311 15.368-4.77 30.412-14.672 42.588-12.504 15.377-31.042 24.196-50.861 24.196s-38.356-8.819-50.86-24.196zm50.861 111.277c12.646 0 24.51 4.767 33.531 12.915h-67.062c9.021-8.148 20.885-12.915 33.531-12.915zm375.5 55.415h-463v-27.5h382.5c4.143 0 7.5-3.357 7.5-7.5s-3.357-7.5-7.5-7.5h-11.336c.079-.826.127-1.66.127-2.506 0-14.5-11.797-26.297-26.297-26.297s-26.297 11.797-26.297 26.297c0 .846.048 1.68.127 2.506h-18.612c.461-2.083.718-4.242.718-6.462 0-5.84-1.648-11.404-4.729-16.184 3.08-4.78 4.729-10.345 4.729-16.185 0-5.839-1.648-11.403-4.729-16.184 3.08-4.78 4.729-10.345 4.729-16.184 0-1.914-.188-3.785-.532-5.601h30.659c1.461 13.127 12.62 23.369 26.13 23.369 13.511 0 24.669-10.242 26.131-23.369h44.098v12.901c-6.386 4.967-10.16 12.627-10.16 20.749 0 8.121 3.773 15.779 10.16 20.748v22.402h-8.916c-4.143 0-7.5 3.357-7.5 7.5s3.357 7.5 7.5 7.5h44.5zm-129.303-45.006c0-6.229 5.067-11.297 11.297-11.297s11.297 5.067 11.297 11.297c0 .862-.107 1.699-.291 2.506h-22.012c-.184-.807-.291-1.643-.291-2.506z"/><circle cx="422.31" cy="398" r="7.5"/><circle cx="409.31" cy="431" r="7.5"/><circle cx="343.077" cy="406.272" r="7.5"/></g></g></svg>