<svg id="Capa_1" enable-background="new 0 0 512.004 512.004" height="512" viewBox="0 0 512.004 512.004" width="512" xmlns="http://www.w3.org/2000/svg"><g><g><path d="m122.794 122.794c-80.652 80.652-117.77 192.831-115.164 317.682.731 35.048 28.849 63.166 63.897 63.897 124.851 2.605 237.03-34.512 317.682-115.164s117.77-192.831 115.164-317.682c-.731-35.048-28.849-63.166-63.897-63.897-124.851-2.606-237.029 34.512-317.682 115.164z" fill="#966a5b"/><path d="m355.908 355.908c-85.531 85.532-206.559 121.963-340.515 114.118 10.798 20.092 31.78 33.839 56.134 34.348 124.851 2.605 237.03-34.512 317.682-115.165s117.77-192.831 115.165-317.682c-.509-24.354-14.256-45.336-34.348-56.134 7.845 133.956-28.586 254.984-114.118 340.515z" fill="#785353"/><path d="m184.25 495.068c16.13-3.166 31.85-7.222 47.199-12.005l-202.509-202.509c-4.783 15.349-8.839 31.069-12.005 47.199z" fill="#faf5dc"/><path d="m495.03 184.289c-3.166 16.13-7.222 31.85-12.005 47.199l-202.509-202.51c15.349-4.783 31.069-8.839 47.199-12.005z" fill="#faf5dc"/><g fill="#f4dbb3"><path d="m150.747 461.565 33.503 33.503c16.13-3.166 31.85-7.222 47.199-12.005l-33.376-33.376c-15.374 4.779-31.169 8.721-47.326 11.878z"/><path d="m449.67 198.133 33.355 33.355c4.783-15.349 8.839-31.069 12.005-47.199l-33.477-33.477c-3.159 16.155-7.102 31.949-11.883 47.321z"/></g></g><g><path d="m511.872 71.371c-.817-39.131-32.109-70.423-71.24-71.24-131.875-2.745-243.613 37.83-323.142 117.36-79.528 79.529-120.111 191.269-117.359 323.142.817 39.131 32.109 70.423 71.24 71.24 4.201.087 8.36.131 12.521.131 126.417-.004 233.626-40.495 310.621-117.491 79.529-79.529 120.111-191.27 117.359-323.142zm-71.552-56.243c31.065.648 55.908 25.49 56.556 56.555.706 33.815-1.516 66.246-6.585 97.078l-147.045-147.044c27.108-4.456 55.449-6.717 84.884-6.717 4.035 0 8.114.043 12.19.128zm-253.56 471.843-161.723-161.722c2.13-10.397 4.593-20.601 7.391-30.6l184.929 184.929c-9.998 2.798-20.2 5.264-30.597 7.393zm-102.887 10.032c-4.035 0-8.114-.043-12.189-.128-31.065-.648-55.908-25.49-56.556-56.555-.707-33.848 1.52-66.309 6.6-97.168l147.121 147.121c-27.135 4.465-55.507 6.731-84.976 6.73zm300.033-113.097c-41.489 41.489-92.19 71.962-150.251 90.757l-196.309-196.309c18.794-58.063 49.265-108.77 90.751-150.257 41.508-41.508 92.237-71.989 150.331-90.781l22.881 22.881c1.464 1.464 3.384 2.197 5.303 2.197s3.839-.732 5.303-2.197c2.929-2.929 2.929-7.678 0-10.606l-17.185-17.187c10-2.797 20.204-5.26 30.603-7.388l161.652 161.652c-2.128 10.399-4.589 20.604-7.386 30.604l-144.873-144.872c-2.929-2.929-7.678-2.929-10.606 0-2.929 2.929-2.929 7.678 0 10.606l150.564 150.564c-18.793 58.097-49.272 108.831-90.778 150.336z"/><path d="m339.504 161.893-24.299 24.299-16.898-16.898c-2.929-2.929-7.678-2.929-10.606 0-2.929 2.929-2.929 7.678 0 10.606l16.898 16.898-18.995 18.995-16.898-16.898c-2.929-2.929-7.678-2.929-10.606 0-2.929 2.929-2.929 7.678 0 10.606l16.898 16.898-18.995 18.995-16.898-16.898c-2.929-2.929-7.678-2.929-10.606 0-2.929 2.929-2.929 7.678 0 10.606l16.898 16.898-18.997 18.997-16.898-16.898c-2.929-2.929-7.678-2.929-10.606 0-2.929 2.929-2.929 7.678 0 10.606l16.898 16.898-18.995 18.995-16.899-16.898c-2.929-2.929-7.678-2.929-10.606 0-2.929 2.929-2.929 7.678 0 10.606l16.898 16.898-24.299 24.299c-2.929 2.929-2.929 7.678 0 10.606 1.464 1.464 3.384 2.197 5.303 2.197s3.839-.732 5.303-2.197l24.299-24.299 16.898 16.898c1.464 1.464 3.384 2.197 5.303 2.197s3.839-.732 5.303-2.197c2.929-2.929 2.929-7.678 0-10.606l-16.898-16.898 18.996-18.994 16.898 16.898c1.464 1.464 3.384 2.197 5.303 2.197s3.839-.732 5.303-2.197c2.929-2.929 2.929-7.678 0-10.606l-16.898-16.898 18.995-18.995 16.898 16.898c1.464 1.464 3.384 2.197 5.303 2.197s3.839-.732 5.303-2.197c2.929-2.929 2.929-7.678 0-10.606l-16.898-16.898 18.995-18.995 16.898 16.898c1.464 1.464 3.384 2.197 5.303 2.197s3.839-.732 5.303-2.197c2.929-2.929 2.929-7.678 0-10.606l-16.896-16.9 18.995-18.995 16.898 16.898c1.464 1.464 3.384 2.197 5.303 2.197s3.839-.732 5.303-2.197c2.929-2.929 2.929-7.678 0-10.606l-16.898-16.898 24.299-24.299c2.929-2.929 2.929-7.678 0-10.606-2.928-2.929-7.678-2.929-10.606-.001z"/></g></g></svg>