<svg id="Capa_1" enable-background="new 0 0 497 497" height="512" viewBox="0 0 497 497" width="512" xmlns="http://www.w3.org/2000/svg"><g><path d="m226.554 321.829h43.891v84.585h-43.891z" fill="#ffc344"/><g fill="#ffe177"><path d="m312.939 449.488h-128.878v-45.349c0-4.266 3.458-7.725 7.725-7.725h113.43c4.266 0 7.725 3.458 7.725 7.725v45.349z"/><path d="m342.814 238.242-12.452-27.333c33.091-15.075 57.265-39.702 71.849-73.197 9.05-20.783 12.711-41.191 14.136-56.039.497-5.173-3.553-9.652-8.75-9.652h-71.01v-30.034h83.752c7.422 0 14.652 2.866 19.736 8.274 4.75 5.052 7.273 11.635 7.114 18.596-.368 16.079-3.122 47.964-17.44 80.847-17.636 40.505-46.886 70.294-86.935 88.538z"/><path d="m154.186 238.242 12.452-27.333c-33.091-15.075-57.265-39.702-71.849-73.197-9.05-20.783-12.711-41.191-14.136-56.039-.497-5.173 3.553-9.652 8.75-9.652h71.01v-30.034h-83.753c-7.422 0-14.652 2.866-19.736 8.274-4.75 5.052-7.273 11.635-7.114 18.596.368 16.079 3.122 47.964 17.44 80.847 17.637 40.505 46.887 70.294 86.936 88.538z"/></g><path d="m340.53 497h-184.06c-3.902 0-7.066-3.163-7.066-7.066v-52.016c0-3.902 3.163-7.066 7.066-7.066h184.06c3.902 0 7.066 3.163 7.066 7.066v52.016c0 3.903-3.164 7.066-7.066 7.066z" fill="#ea9b58"/><path d="m340.53 430.852h-16.934v40.082c0 3.902-3.163 7.066-7.066 7.066h-167.126v11.934c0 3.902 3.163 7.066 7.066 7.066h184.06c3.902 0 7.066-3.164 7.066-7.066v-52.016c0-3.903-3.164-7.066-7.066-7.066z" fill="#d88a55"/><circle cx="248.5" cy="297.243" fill="#ffe177" r="38.682"/><path d="m249.366 293.614h-1.731c-60.511 0-109.565-49.054-109.565-109.565v-152.062h220.862v152.061c-.001 60.512-49.055 109.566-109.566 109.566z" fill="#ffc344"/><path d="m336.931 38.987v129.061c0 60.511-49.054 109.565-109.565 109.565h-1.732c-19.177 0-37.2-4.932-52.879-13.589 19.59 18.349 45.92 29.589 74.879 29.589h1.732c60.511 0 109.565-49.054 109.565-109.565v-152.061z" fill="#feb237"/><circle cx="248.5" cy="162.533" fill="#f9f3f1" r="70.831"/><path d="m276.505 97.464c14.031 12.942 22.826 31.475 22.826 52.068 0 39.119-31.712 70.831-70.831 70.831-9.949 0-19.414-2.06-28.005-5.763 12.622 11.643 29.479 18.763 48.005 18.763 39.119 0 70.831-31.712 70.831-70.831 0-29.169-17.638-54.212-42.826-65.068z" fill="#f3eae6"/><path d="m253.443 129.134 7.492 15.18c.803 1.627 2.355 2.755 4.151 3.016l16.752 2.434c4.522.657 6.327 6.214 3.055 9.403l-12.122 11.816c-1.299 1.266-1.892 3.091-1.585 4.879l2.862 16.685c.772 4.503-3.954 7.938-7.999 5.811l-14.984-7.877c-1.606-.844-3.525-.844-5.131 0l-14.984 7.877c-4.044 2.126-8.771-1.308-7.999-5.811l2.862-16.685c.307-1.788-.286-3.613-1.585-4.879l-12.122-11.816c-3.272-3.189-1.466-8.746 3.055-9.403l16.752-2.434c1.796-.261 3.348-1.389 4.151-3.016l7.492-15.18c2.023-4.097 7.865-4.097 9.887 0z" fill="#8795de"/><path d="m279.724 461.333h-62.449c-4.142 0-7.5-3.358-7.5-7.5s3.358-7.5 7.5-7.5h62.449c4.142 0 7.5 3.358 7.5 7.5s-3.358 7.5-7.5 7.5z" fill="#d88a55"/><path d="m354.557 41.987h-212.114c-11.503 0-20.829-9.325-20.829-20.829v-.329c.001-11.504 9.326-20.829 20.829-20.829h212.113c11.503 0 20.829 9.325 20.829 20.829v.329c0 11.503-9.325 20.829-20.828 20.829z" fill="#ffe177"/><path d="m354.557 0h-4.385c.126.927.214 1.867.214 2.829v.329c0 11.503-9.325 20.829-20.829 20.829h-207.728c1.383 10.162 10.073 18 20.615 18h212.113c11.503 0 20.829-9.325 20.829-20.829v-.329c-.001-11.504-9.326-20.829-20.829-20.829z" fill="#ffd15b"/></g></svg>