<svg id="Capa_1" enable-background="new 0 0 512 512" height="512" viewBox="0 0 512 512" width="512" xmlns="http://www.w3.org/2000/svg"><g><g><g><g><path d="m350.314 245.742-12.452-27.333c33.091-15.075 57.265-39.702 71.849-73.197 9.05-20.783 12.711-41.191 14.136-56.039.497-5.173-3.553-9.652-8.75-9.652h-71.01v-30.034h83.752c7.422 0 14.652 2.866 19.736 8.274 4.75 5.052 7.273 11.635 7.114 18.596-.368 16.079-3.122 47.964-17.44 80.847-17.636 40.505-46.886 70.294-86.935 88.538z" fill="#ffe177"/></g></g><g><g><path d="m161.686 245.742 12.452-27.333c-33.091-15.075-57.265-39.702-71.849-73.197-9.05-20.783-12.711-41.191-14.136-56.039-.497-5.173 3.553-9.652 8.75-9.652h71.01v-30.034h-83.752c-7.422 0-14.652 2.866-19.736 8.274-4.75 5.052-7.273 11.635-7.114 18.596.368 16.079 3.122 47.964 17.44 80.847 17.636 40.505 46.886 70.294 86.935 88.538z" fill="#ffe177"/></g></g><g><g><path d="m348.03 504.5h-184.06c-3.902 0-7.066-3.163-7.066-7.066v-52.016c0-3.902 3.163-7.066 7.066-7.066h184.06c3.902 0 7.066 3.163 7.066 7.066v52.016c0 3.903-3.164 7.066-7.066 7.066z" fill="#ea9b58"/></g></g><g><g><path d="m348.03 438.352h-16.934v40.082c0 3.902-3.163 7.066-7.066 7.066h-167.126v11.934c0 3.902 3.163 7.066 7.066 7.066h184.06c3.902 0 7.066-3.164 7.066-7.066v-52.016c0-3.903-3.164-7.066-7.066-7.066z" fill="#d88a55"/></g></g><g><g><path d="m320.44 436.988h-128.879v-25.349c0-4.266 3.458-7.725 7.725-7.725h113.43c4.266 0 7.725 3.458 7.725 7.725v25.349z" fill="#ffe177"/></g></g><g><g><path d="m234.055 319.329h43.891v84.585h-43.891z" fill="#ffc344"/></g></g><g><g><circle cx="256" cy="304.743" fill="#ffe177" r="38.682"/></g></g><g><g><path d="m362.057 49.487h-212.113c-11.503 0-20.829-9.325-20.829-20.829v-.329c0-11.503 9.325-20.829 20.829-20.829h212.113c11.503 0 20.829 9.325 20.829 20.829v.329c-.001 11.503-9.326 20.829-20.829 20.829z" fill="#ffe177"/></g></g><g><g><path d="m362.057 7.5h-4.385c.126.927.214 1.867.214 2.829v.329c0 11.503-9.325 20.829-20.829 20.829h-207.728c1.383 10.162 10.073 18 20.615 18h212.113c11.503 0 20.829-9.325 20.829-20.829v-.329c-.001-11.504-9.326-20.829-20.829-20.829z" fill="#ffd15b"/></g></g><g><g><path d="m256.866 301.114h-1.731c-60.511 0-109.565-49.054-109.565-109.565v-142.062h220.862v142.061c-.001 60.512-49.055 109.566-109.566 109.566z" fill="#ffc344"/></g></g><g><g><path d="m344.431 49.487v126.061c0 60.511-49.054 109.565-109.565 109.565h-1.732c-19.177 0-37.2-4.932-52.879-13.589 19.59 18.349 45.92 29.589 74.879 29.589h1.732c60.511 0 109.565-49.054 109.565-109.565v-142.061z" fill="#feb237"/></g></g><g><g><circle cx="256" cy="170.033" fill="#f9f3f1" r="70.831"/></g></g><g><g><path d="m284.005 104.964c14.031 12.942 22.826 31.475 22.826 52.068 0 39.119-31.712 70.831-70.831 70.831-9.949 0-19.414-2.06-28.005-5.763 12.622 11.643 29.479 18.763 48.005 18.763 39.119 0 70.831-31.712 70.831-70.831 0-29.169-17.638-54.212-42.826-65.068z" fill="#f3eae6"/></g></g><g><g><path d="m260.943 136.634 7.492 15.18c.803 1.627 2.355 2.755 4.151 3.016l16.752 2.434c4.522.657 6.327 6.214 3.055 9.403l-12.122 11.816c-1.299 1.266-1.892 3.091-1.585 4.879l2.862 16.685c.772 4.503-3.954 7.938-7.999 5.811l-14.984-7.877c-1.606-.844-3.525-.844-5.131 0l-14.984 7.877c-4.044 2.126-8.771-1.308-7.999-5.811l2.862-16.685c.307-1.788-.286-3.613-1.585-4.879l-12.122-11.816c-3.272-3.189-1.466-8.746 3.055-9.403l16.752-2.434c1.796-.261 3.348-1.389 4.151-3.016l7.492-15.18c2.023-4.097 7.865-4.097 9.887 0z" fill="#8795de"/></g></g></g><g><path d="m290.417 149.842-15.719-2.284-7.029-14.243s0 0 0-.001c-2.208-4.474-6.68-7.253-11.669-7.253s-9.46 2.779-11.669 7.254l-7.029 14.243-15.718 2.284c-4.938.718-8.963 4.111-10.505 8.856s-.28 9.856 3.293 13.34l11.374 11.087-2.685 15.655c-.843 4.918 1.14 9.794 5.177 12.727 4.036 2.933 9.286 3.312 13.704.99l14.058-7.391 14.059 7.391c1.92 1.01 4 1.509 6.067 1.509 2.687 0 5.355-.842 7.637-2.499 4.036-2.933 6.02-7.81 5.176-12.727l-2.685-15.655 11.374-11.087c3.573-3.483 4.835-8.594 3.293-13.339-1.541-4.745-5.566-8.139-10.504-8.857zm-15.38 23.27c-3.068 2.991-4.468 7.297-3.743 11.518l2.181 12.716-11.42-6.004c-1.896-.997-3.975-1.495-6.055-1.495s-4.16.499-6.056 1.495l-11.419 6.003 2.181-12.716c.724-4.221-.675-8.527-3.743-11.518l-9.239-9.005 12.768-1.855c4.24-.616 7.903-3.278 9.798-7.119l5.71-11.568 5.71 11.57c1.896 3.841 5.558 6.502 9.797 7.118l12.768 1.855z"/><path d="m256 91.702c-43.192 0-78.331 35.139-78.331 78.331s35.139 78.331 78.331 78.331 78.331-35.139 78.331-78.331-35.139-78.331-78.331-78.331zm0 141.662c-34.921 0-63.331-28.41-63.331-63.331s28.41-63.331 63.331-63.331 63.331 28.41 63.331 63.331-28.41 63.331-63.331 63.331z"/><path d="m453.041 52.623c-6.355-6.76-15.541-10.636-25.2-10.636h-40.796c2.129-3.975 3.341-8.513 3.341-13.329v-.329c-.001-15.621-12.709-28.329-28.33-28.329h-125.729c-4.142 0-7.5 3.358-7.5 7.5s3.358 7.5 7.5 7.5h125.729c7.35 0 13.329 5.979 13.329 13.329v.329c0 7.35-5.979 13.329-13.329 13.329h-212.112c-7.35 0-13.329-5.979-13.329-13.329v-.329c0-7.35 5.979-13.329 13.329-13.329h51.383c4.142 0 7.5-3.358 7.5-7.5s-3.358-7.5-7.5-7.5h-51.383c-15.621 0-28.329 12.708-28.329 28.329v.329c0 4.816 1.211 9.354 3.341 13.329h-40.797c-9.66 0-18.845 3.877-25.199 10.636-6.104 6.491-9.353 14.981-9.148 23.904.38 16.63 3.232 49.613 18.062 83.67 17.594 40.408 46.319 70.637 85.377 89.848.224.11.453.202.682.288 12.8 21.951 32.534 39.383 56.18 49.271-.189 1.704-.295 3.421-.295 5.138 0 14.283 6.519 27.07 16.736 35.548v56.123h-27.27c-8.395 0-15.224 6.83-15.224 15.225v19.213h-20.09c-8.032 0-14.566 6.534-14.566 14.566v52.016c0 8.032 6.534 14.566 14.566 14.566h31.154c4.142 0 7.5-3.358 7.5-7.5s-3.358-7.5-7.5-7.5h-30.72v-51.148h183.191v51.149h-117.471c-4.142 0-7.5 3.358-7.5 7.5s3.358 7.5 7.5 7.5h117.906c8.031 0 14.565-6.534 14.565-14.566v-52.016c0-8.032-6.534-14.566-14.565-14.566h-20.09v-19.213c0-8.395-6.83-15.225-15.225-15.225h-27.27v-56.123c10.217-8.478 16.737-21.265 16.737-35.549 0-1.716-.107-3.434-.295-5.138 23.696-9.91 43.464-27.394 56.262-49.411.432-.124.861-.276 1.278-.484 38.711-19.227 67.208-49.343 84.699-89.513 14.83-34.058 17.682-67.041 18.062-83.67.204-8.922-3.044-17.411-9.147-23.903zm-79.11 34.399h41.167c.47 0 .776.228.95.42.178.196.381.531.334 1.016-1.272 13.255-4.655 33.342-13.547 53.761-7.18 16.491-16.881 30.78-28.904 42.662zm-264.766 55.197c-8.892-20.419-12.274-40.506-13.547-53.761-.046-.484.156-.82.334-1.016.174-.191.48-.42.95-.42h41.167v97.867c-12.027-11.884-21.722-26.176-28.904-42.67zm-27.538 11.99c-13.807-31.708-16.464-62.495-16.819-78.024-.113-4.963 1.691-9.682 5.081-13.287 3.532-3.756 8.733-5.911 14.271-5.911h53.91v15.035h-41.168c-4.58 0-8.973 1.944-12.052 5.333-3.085 3.395-4.603 7.965-4.164 12.536 1.376 14.337 5.048 36.092 14.726 58.317 10.101 23.198 24.741 42.507 43.511 57.456.911 7.544 2.543 14.868 4.823 21.904-27.658-17.501-48.511-42.107-62.119-73.359zm231.313 257.43v17.849h-113.879v-17.849c0-.124.101-.225.224-.225h113.43c.124 0 .225.101.225.225zm-42.494-15.225h-28.891v-47.816c4.548 1.502 9.401 2.327 14.446 2.327s9.898-.824 14.445-2.326zm16.736-91.671c0 17.194-13.988 31.182-31.182 31.182s-31.182-13.988-31.182-31.182c0-.039.002-.078.003-.117 9.673 2.596 19.833 3.988 30.314 3.988 0 0 22.372-1.392 32.045-3.988 0 .038.002.078.002.117zm-30.316-11.129h-1.731c-56.279 0-102.065-45.786-102.065-102.065v-134.562h205.862v134.562c-.001 56.278-45.787 102.065-102.066 102.065zm173.507-139.405c-13.607 31.249-34.462 55.853-62.117 73.352 2.278-7.031 3.91-14.349 4.82-21.887 18.77-14.945 33.411-34.27 43.512-57.467 9.677-22.225 13.349-43.98 14.726-58.316.439-4.571-1.078-9.141-4.163-12.536-3.079-3.389-7.472-5.333-12.053-5.333h-41.167v-15.035h53.91c5.538 0 10.74 2.155 14.271 5.911 3.39 3.605 5.193 8.324 5.08 13.287-.355 15.529-3.012 46.316-16.819 78.024z"/><path d="m287.224 478.833c4.142 0 7.5-3.358 7.5-7.5s-3.358-7.5-7.5-7.5h-62.449c-4.142 0-7.5 3.358-7.5 7.5s3.358 7.5 7.5 7.5z"/></g></g></svg>