<svg id="Capa_1" enable-background="new 0 0 498.281 498.281" height="512" viewBox="0 0 498.281 498.281" width="512" xmlns="http://www.w3.org/2000/svg"><g><path d="m14.903 86.863 257.777 257.777c5.772 5.772 12.333 10.697 19.487 14.628l45.707 25.116c7.154 3.931 13.715 8.856 19.487 14.628l74.304 74.039 39.552-43.632-72.204-72.058c-5.772-5.772-10.697-12.333-14.628-19.487l-25.116-45.707c-3.931-7.154-8.856-13.715-14.628-19.487l-257.778-257.777c-19.871-19.871-52.089-19.871-71.96 0-19.871 19.872-19.871 52.089 0 71.96z" fill="#fed2a4"/><path d="m344.64 272.68-134.455-134.454-98.028 45.891 160.523 160.523c5.772 5.772 12.333 10.697 19.487 14.628l45.707 25.116c7.154 3.931 13.715 8.856 19.487 14.628l.941.941v-109.473c-3.763-6.498-8.349-12.486-13.662-17.8z" fill="#ffbd86"/><path d="m494.318 446.015-48.302 48.302c-5.285 5.285-13.853 5.285-19.138 0l-4.374-4.374c-5.285-5.285-5.285-13.853 0-19.138l48.302-48.302c5.285-5.285 13.853-5.285 19.138 0l4.374 4.374c5.284 5.285 5.284 13.853 0 19.138z" fill="#ffe5c2"/><path d="m181.347 359.445h-79.106v-127.914l79.106-26.171z" fill="#c57a44"/><path d="m295.31 498.281h-170.25c-12.6 0-22.815-10.214-22.815-22.815v-57.846l215.879-14.394v72.241c0 12.6-10.214 22.814-22.814 22.814z" fill="#c57a44"/><g><path d="m335.979 353.652v-171.378c0-11.424-8.957-21.081-20.377-21.394-11.848-.324-21.554 9.183-21.554 20.958 0-11.579-9.387-20.966-20.966-20.966s-20.966 9.387-20.966 20.966c0-11.579-9.387-20.966-20.966-20.966s-20.966 9.387-20.966 20.966c0-11.775-9.707-21.283-21.555-20.958-11.42.313-20.376 9.97-20.376 21.394v128.093c0 15.134-12.269 27.403-27.403 27.403-15.134 0-27.403-12.269-27.403-27.403v-83.605c0-11.424-8.957-21.081-20.377-21.394-11.848-.325-21.555 9.183-21.555 20.958v127.326c0 62.62 50.764 113.384 113.384 113.384h37.696c62.621 0 113.384-50.764 113.384-113.384z" fill="#ea9b58"/><path d="m315.602 160.879c-.888-.024-1.762.013-2.623.096v162.677c0 62.62-50.763 113.384-113.384 113.384h-37.695c-29.859 0-57.017-11.548-77.266-30.413 19.021 35.93 56.781 60.413 100.266 60.413h37.696c62.62 0 113.384-50.763 113.384-113.384v-171.378c-.001-11.425-8.958-21.082-20.378-21.395z" fill="#d88a55"/></g><circle cx="176.225" cy="336.877" fill="#f3eae6" r="58.008"/><path d="m206.794 287.581c5.517 8.877 8.712 19.348 8.712 30.569 0 32.037-25.971 58.008-58.008 58.008-11.221 0-21.691-3.195-30.569-8.712 10.234 16.468 28.48 27.439 49.296 27.439 32.037 0 58.008-25.971 58.008-58.008 0-20.816-10.971-39.062-27.439-49.296z" fill="#ebe2de"/><g fill="#d88a55"><path d="m252.116 299.614c-4.143 0-7.5-3.358-7.5-7.5v-75.277c0-4.142 3.357-7.5 7.5-7.5s7.5 3.358 7.5 7.5v75.277c0 4.142-3.358 7.5-7.5 7.5z"/><path d="m294.047 316.353c-4.143 0-7.5-3.358-7.5-7.5v-92.016c0-4.142 3.357-7.5 7.5-7.5s7.5 3.358 7.5 7.5v92.016c0 4.142-3.357 7.5-7.5 7.5z"/><path d="m210.185 261.442c-4.143 0-7.5-3.358-7.5-7.5v-37.105c0-4.142 3.357-7.5 7.5-7.5s7.5 3.358 7.5 7.5v37.105c0 4.142-3.357 7.5-7.5 7.5z"/></g><g><g fill="#cbc4cc"><path d="m122.657 320.995c-.736 0-1.48.014-2.231.04-1.368 4.827-2.13 9.906-2.191 15.156 1.505-.127 2.97-.197 4.422-.197 30.024 0 54.45 24.426 54.45 54.45 0 1.453-.069 2.918-.196 4.422 5.25-.061 10.329-.823 15.156-2.191.026-.751.04-1.495.04-2.231 0-38.294-31.155-69.449-69.45-69.449z"/><path d="m229.794 337.759c-30.024 0-54.45-24.426-54.45-54.45 0-1.453.069-2.918.196-4.422-5.25.061-10.329.823-15.156 2.191-.026.751-.04 1.496-.04 2.232 0 38.295 31.155 69.45 69.45 69.45.736 0 1.48-.014 2.231-.04 1.368-4.827 2.13-9.906 2.191-15.156-1.505.126-2.971.195-4.422.195z"/></g><g fill="#b5adb6"><path d="m229.794 337.759c-5.865 0-11.511-.943-16.809-2.667-1.487 4.877-3.604 9.478-6.249 13.717 7.219 2.549 14.976 3.951 23.057 3.951.736 0 1.48-.014 2.231-.04.503-1.775.923-3.585 1.257-5.424.014-.078.028-.156.042-.234.312-1.76.544-3.548.694-5.359.015-.185.029-.37.042-.555.086-1.178.141-2.366.155-3.563 0-.007 0-.014.001-.022-1.504.127-2.97.196-4.421.196z"/><path d="m192.107 390.445c0-8.081-1.402-15.838-3.951-23.057-4.239 2.645-8.839 4.761-13.716 6.249 1.724 5.297 2.667 10.943 2.667 16.808 0 1.453-.069 2.918-.196 4.422.008 0 .016 0 .024-.001 1.196-.014 2.383-.069 3.56-.155.186-.014.371-.027.556-.042 1.811-.15 3.598-.381 5.358-.694.078-.014.156-.028.233-.042 1.839-.334 3.649-.754 5.424-1.257.027-.75.041-1.495.041-2.231z"/></g></g></g></svg>