<svg id="Capa_1" enable-background="new 0 0 513.254 513.254" height="512" viewBox="0 0 513.254 513.254" width="512" xmlns="http://www.w3.org/2000/svg"><g><g><g><g><path d="m22.381 94.336 257.776 257.776c5.772 5.772 12.333 10.697 19.487 14.628l45.707 25.116c7.154 3.931 13.715 8.856 19.487 14.628l68.468 68.468 41.652-41.652-68.468-68.468c-5.772-5.772-10.697-12.333-14.628-19.487l-25.116-45.707c-3.931-7.154-8.856-13.715-14.628-19.487l-257.777-257.775c-19.871-19.871-52.089-19.871-71.96 0-19.871 19.871-19.871 52.089 0 71.96z" fill="#fed2a4"/></g></g><g><g><path d="m352.118 280.153-134.455-134.454-98.028 45.891 160.523 160.523c5.772 5.772 12.333 10.697 19.487 14.628l45.707 25.116c7.154 3.931 13.715 8.856 19.487 14.628l.941.941v-109.473c-3.764-6.498-8.349-12.487-13.662-17.8z" fill="#ffbd86"/></g></g><g><g><path d="m501.795 453.488-48.302 48.302c-5.285 5.285-13.853 5.285-19.138 0l-4.374-4.374c-5.285-5.285-5.285-13.853 0-19.138l48.302-48.302c5.285-5.285 13.853-5.285 19.138 0l4.374 4.374c5.285 5.285 5.285 13.853 0 19.138z" fill="#ffe5c2"/></g></g><g><g><path d="m188.825 366.918h-79.106v-127.914l79.106-26.171z" fill="#c57a44"/></g></g><g><g><path d="m302.788 505.754h-170.25c-12.6 0-22.815-10.214-22.815-22.815v-57.846h215.879v57.846c0 12.6-10.214 22.815-22.814 22.815z" fill="#c57a44"/></g></g><g><g><path d="m343.457 361.125v-166.379c0-11.424-8.957-21.081-20.377-21.394-11.848-.324-21.554 9.183-21.554 20.958 0-11.579-9.387-20.966-20.966-20.966s-20.966 9.387-20.966 20.966c0-11.579-9.387-20.966-20.966-20.966s-20.966 9.387-20.966 20.966c0-11.775-9.707-21.283-21.555-20.958-11.42.313-20.376 9.97-20.376 21.394v123.094c0 15.134-12.269 27.403-27.403 27.403-15.134 0-27.403-12.269-27.403-27.403v-83.605c0-11.424-8.957-21.081-20.377-21.394-11.848-.325-21.555 9.183-21.555 20.958v127.326c0 62.62 50.764 113.384 113.384 113.384h37.696c62.621 0 113.384-50.764 113.384-113.384z" fill="#ea9b58"/></g></g><g><g><path d="m323.08 173.352c-.888-.024-1.762.013-2.623.096v157.677c0 62.62-50.763 113.384-113.384 113.384h-37.696c-29.859 0-57.017-11.548-77.266-30.413 19.021 35.93 56.781 60.413 100.266 60.413h37.696c62.62 0 113.384-50.763 113.384-113.384v-166.379c0-11.424-8.957-21.081-20.377-21.394z" fill="#d88a55"/></g></g><g><g><circle cx="183.703" cy="344.35" fill="#f3eae6" r="61.95"/></g></g><g><g><circle cx="183.703" cy="344.35" fill="#f3eae6" r="61.95"/></g></g><g><g><path d="m216.349 291.704c5.892 9.481 9.304 20.663 9.304 32.646 0 34.214-27.736 61.95-61.95 61.95-11.984 0-23.166-3.412-32.646-9.304 10.929 17.588 30.416 29.304 52.646 29.304 34.214 0 61.95-27.736 61.95-61.95 0-22.231-11.716-41.717-29.304-52.646z" fill="#ebe2de"/></g></g></g><g><path d="m301.526 336.85c-4.143 0-7.5 3.358-7.5 7.5v9.293c0 4.142 3.357 7.5 7.5 7.5s7.5-3.358 7.5-7.5v-9.293c0-4.142-3.357-7.5-7.5-7.5z"/><path d="m301.526 366.826c-4.143 0-7.5 3.358-7.5 7.5v9.293c0 4.142 3.357 7.5 7.5 7.5s7.5-3.358 7.5-7.5v-9.293c0-4.142-3.357-7.5-7.5-7.5z"/><path d="m507.099 429.047-4.375-4.375c-3.973-3.972-9.254-6.16-14.872-6.16-4.673 0-9.101 1.533-12.749 4.328l-63.31-63.311c-5.273-5.273-9.769-11.261-13.358-17.796l-25.117-45.707c-4.274-7.777-9.622-14.903-15.897-21.179 0 0-5.697-5.461-6.464-5.821v-74.281c0-15.513-12.413-28.473-27.672-28.891-7.741-.206-15.089 2.647-20.643 8.052-.388.377-.763.763-1.126 1.157-5.207-5.665-12.674-9.22-20.956-9.22-8.288 0-15.759 3.559-20.966 9.23-2.3-2.505-5.043-4.596-8.101-6.152l-62.487-62.488c-2.93-2.929-7.678-2.93-10.607 0-2.929 2.929-2.929 7.678 0 10.606l50.518 50.519c-4.333 1.578-8.182 4.172-11.245 7.504-.363-.395-.738-.781-1.126-1.158-5.556-5.405-12.885-8.263-20.646-8.052-15.257.419-27.67 13.379-27.67 28.891v17l-13.4 4.433-127.146-127.143c-8.194-8.194-12.707-19.088-12.707-30.676s4.513-22.483 12.708-30.677c16.914-16.915 44.438-16.915 61.352 0l65.786 65.787c2.929 2.929 7.677 2.929 10.607 0 2.929-2.929 2.929-7.678 0-10.606l-65.786-65.788c-22.764-22.765-59.802-22.763-82.567 0-22.763 22.764-22.763 59.803 0 82.566l121.814 121.813-11.866 3.926c-3.648-11.305-14.042-19.7-26.272-20.035-7.743-.214-15.091 2.647-20.644 8.052-5.557 5.406-8.616 12.652-8.616 20.403v127.327c0 30.86 11.63 59.052 30.729 80.436v41.379c0 16.715 13.599 30.314 30.314 30.314h6.259c4.143 0 7.5-3.358 7.5-7.5s-3.357-7.5-7.5-7.5h-6.259c-8.444 0-15.314-6.87-15.314-15.314v-27.204c20.648 16.436 46.773 26.273 75.154 26.273h37.696c34.666 0 65.965-14.673 88.028-38.128v39.058c0 8.444-6.87 15.314-15.314 15.314h-127.989c-4.143 0-7.5 3.358-7.5 7.5s3.357 7.5 7.5 7.5h127.991c16.716 0 30.314-13.599 30.314-30.314v-57.847c0-.252-.013-.5-.038-.746 4.676-7.59 8.54-15.73 11.463-24.303 5.454 3.293 10.494 7.231 15.007 11.744l63.311 63.311c-2.795 3.648-4.328 8.076-4.328 12.748 0 5.618 2.188 10.9 6.161 14.873l4.373 4.373c3.973 3.973 9.254 6.161 14.872 6.161s10.9-2.188 14.873-6.161l48.303-48.302c8.2-8.2 8.2-21.542 0-29.743zm-323.396-30.247c-30.024 0-54.45-24.426-54.45-54.45 0-.291.018-.578.022-.868.287-.005.574-.014.86-.014 30.024 0 54.45 24.426 54.45 54.45 0 .286-.009.573-.014.86-.29.004-.577.022-.868.022zm15.844-2.358c-.781-37.121-30.815-67.156-67.936-67.936 5.273-17.302 18.945-30.974 36.248-36.247.781 37.121 30.815 67.156 67.936 67.936-5.274 17.302-18.945 30.973-36.248 36.247zm38.584-51.224c-.287.005-.574.014-.86.014-30.024 0-54.45-24.426-54.45-54.45 0-.286.01-.573.014-.86.29-.004.577-.022.868-.022 30.024 0 54.45 24.426 54.45 54.45 0 .291-.017.578-.022.868zm-69.9-68.559c-16.112 3.682-30.106 12.969-39.806 25.709v-61.653l39.806-13.169zm167.726 84.466c0 58.384-47.499 105.884-105.883 105.884h-37.696c-58.385 0-105.884-47.5-105.884-105.884v-127.327c0-3.667 1.447-7.094 4.076-9.652 2.628-2.556 6.105-3.897 9.773-3.809 7.213.198 13.082 6.432 13.082 13.896 0 0 .827 106.519.827 110.115 0 38.295 31.155 69.45 69.45 69.45 2.895 0 5.742-.199 8.545-.544.061-.006.121-.016.182-.023 34.188-4.308 60.724-33.545 60.724-68.882 0-38.295-31.155-69.45-69.45-69.45-.158 0-.314.011-.472.012v-80.166c0-7.465 5.868-13.699 13.081-13.897 3.678-.102 7.146 1.252 9.773 3.809 2.629 2.558 4.077 5.986 4.077 9.652v67.105c0 4.142 3.357 7.5 7.5 7.5s7.5-3.358 7.5-7.5v-67.104c0-7.425 6.041-13.466 13.466-13.466 7.422 0 13.46 6.035 13.465 13.456v.01 105.277c0 4.142 3.357 7.5 7.5 7.5s7.5-3.358 7.5-7.5v-105.258c0-.007.001-.013.001-.019 0-7.425 6.041-13.466 13.466-13.466 7.422 0 13.46 6.035 13.465 13.456v.01 122.016c0 4.142 3.357 7.5 7.5 7.5s7.5-3.358 7.5-7.5v-121.997c0-.007.001-.013.001-.019 0-3.667 1.447-7.095 4.076-9.653 2.628-2.557 6.083-3.896 9.772-3.808 7.213.198 13.082 6.432 13.082 13.897v166.379zm13.006 24.158c-.13-.072-.264-.129-.396-.192 1.565-7.749 2.39-15.762 2.39-23.966v-71.182c3.515 4.106 6.606 8.56 9.216 13.308l25.116 45.706c4.273 7.777 9.622 14.903 15.897 21.179l63.165 63.165-31.045 31.045-63.165-63.166c-6.276-6.275-13.401-11.623-21.178-15.897zm147.529 62.902-48.303 48.302c-1.14 1.14-2.654 1.767-4.266 1.767s-3.126-.627-4.266-1.768l-4.374-4.374c-1.139-1.139-1.767-2.654-1.767-4.265s.628-3.126 1.768-4.266l48.303-48.303c1.139-1.139 2.653-1.767 4.265-1.767s3.127.627 4.266 1.767l4.374 4.374c2.353 2.353 2.353 6.181 0 8.533z"/></g></g></svg>