<svg id="Capa_1" enable-background="new 0 0 503.688 503.688" height="512" viewBox="0 0 503.688 503.688" width="512" xmlns="http://www.w3.org/2000/svg"><g><g><path d="m484.653 345.323c8.545 0 15.473-6.927 15.473-15.473v-314.377c0-8.546-6.928-15.473-15.473-15.473h-465.617c-8.546 0-15.473 6.927-15.473 15.473v314.378c0 8.545 6.927 15.473 15.473 15.473h465.617z" fill="#fd8087"/><path d="m135.302 302.91c-42.124 0-76.272-34.148-76.272-76.272v-226.638h-39.994c-8.546 0-15.473 6.927-15.473 15.473v314.378c0 8.545 6.927 15.473 15.473 15.473h465.617c8.545 0 15.473-6.927 15.473-15.473v-26.941z" fill="#fe646f"/><path d="m470.125 309.245v-273.167c0-3.357-2.721-6.078-6.078-6.078h-424.406c-3.357 0-6.078 2.721-6.078 6.078v273.168c0 3.357 2.721 6.078 6.078 6.078h424.407c3.356-.001 6.077-2.722 6.077-6.079z" fill="#f9f7f8"/><path d="m135.302 302.91c-42.124 0-76.271-34.148-76.271-76.272v-196.638h-19.39c-3.357 0-6.078 2.721-6.078 6.078v273.168c0 3.357 2.721 6.078 6.078 6.078h424.407c3.357 0 6.078-2.721 6.078-6.078v-6.336z" fill="#efedef"/><g><path d="m362.243 264.225h-220.797c-4.142 0-7.5-3.358-7.5-7.5v-136.259c0-9.568 7.784-17.353 17.353-17.353h201.091c9.568 0 17.353 7.784 17.353 17.353v136.259c0 4.142-3.358 7.5-7.5 7.5zm-213.297-15h205.797v-128.759c0-1.297-1.055-2.353-2.353-2.353h-201.092c-1.297 0-2.353 1.055-2.353 2.353v128.759z" fill="#fe646f"/></g><path d="m386.301 272.814c-1.239-2.624-3.88-4.298-6.782-4.298h-253.349c-2.902 0-5.543 1.674-6.782 4.298-1.239 2.625-.853 5.728.992 7.968l23.992 29.144 18.07 186.983c.398 4.123 4.062 7.139 8.187 6.744 4.123-.398 7.142-4.064 6.744-8.187l-2.55-26.384c2.192-1.968 4.369-3.948 6.531-5.942 8.963 13.084 18.233 25.844 28.038 36.897 1.763 1.989 4.299 3.2 6.957 3.322.15.007.3.011.451.011 2.511 0 4.971-.966 6.806-2.687l1.388-1.3c9.623-9.058 18.911-18.426 27.894-28.108 9.379 10.125 19.098 19.921 29.184 29.398 1.835 1.724 4.297 2.693 6.812 2.693.136 0 .272-.003.409-.009 2.655-.111 5.197-1.307 6.974-3.282l3.211-3.569c8.734-9.815 17.024-21.325 25.049-33.191 2.1 1.934 4.213 3.856 6.341 5.766l-2.55 26.384c-.398 4.123 2.621 7.789 6.744 8.187.246.023.489.035.73.035 3.817 0 7.082-2.901 7.457-6.779l18.07-186.983 23.992-29.144c1.842-2.239 2.229-5.343.99-7.967zm-88.023 143.149c6.658-9.181 13.113-18.613 19.369-28.31 6.232 6.86 12.62 13.579 19.139 20.173l-1.125 11.643c-4.06 5.919-8.143 12.127-12.447 18.683-.442.673-.885 1.348-1.328 2.023-8.097-7.876-15.963-15.952-23.608-24.212zm-114.379 24.12c-.713-1.068-1.424-2.135-2.134-3.199-4.058-6.086-7.909-11.852-11.738-17.421l-1.124-11.636c6.53-6.605 12.929-13.335 19.17-20.208 6.256 9.682 12.715 19.11 19.384 28.295-7.63 8.243-15.478 16.306-23.558 24.169zm25.223-156.567h31.185c1.225 2.042 2.451 4.084 3.698 6.112-6.306 9.933-12.897 19.68-19.734 29.249-6.313-10.163-12.349-20.522-18.112-31.066.996-1.427 1.977-2.862 2.963-4.295zm43.722 20.075c6.373 9.805 12.996 19.443 19.878 28.891-6.374 9.708-12.998 19.234-19.878 28.565-6.88-9.332-13.505-18.858-19.878-28.565 6.882-9.448 13.505-19.086 19.878-28.891zm-38.111 28.307c-7.89 10.477-16.092 20.717-24.607 30.694-6.038-10.008-11.872-20.287-17.514-30.845 8.237-9.905 16.201-20.082 23.857-30.466 5.825 10.389 11.912 20.597 18.264 30.617zm-34.971 42.514c-4.183 4.667-8.434 9.272-12.753 13.816l-4.154-42.981c5.457 9.967 11.093 19.682 16.907 29.165zm18.644 1.529c8.643-9.98 16.984-20.217 25.012-30.697 6.42 9.605 13.095 19.024 20.005 28.263-8.226 10.604-16.793 20.943-25.681 31.021-6.659-9.271-13.101-18.797-19.336-28.587zm54.438 9.86c8.354 10.636 17.034 21.019 26.044 31.132-8.341 11.02-17 21.656-25.993 31.929-9.017-10.308-17.694-20.963-26.045-31.986 8.992-10.095 17.656-20.459 25.994-31.075zm9.422-12.293c6.91-9.24 13.584-18.658 20.005-28.263 8.036 10.491 16.388 20.739 25.041 30.73-6.236 9.806-12.672 19.339-19.318 28.607-8.905-10.096-17.488-20.452-25.728-31.074zm63.684.93c5.8-9.476 11.427-19.191 16.881-29.165l-4.151 42.955c-4.311-4.535-8.555-9.132-12.73-13.79zm-10.367-11.821c-8.522-9.985-16.731-20.234-24.627-30.719 6.352-10.02 12.439-20.228 18.264-30.617 7.658 10.386 15.623 20.566 23.862 30.473-5.644 10.572-11.473 20.858-17.499 30.863zm-34.165-43.741c-6.837-9.569-13.428-19.315-19.734-29.249 1.247-2.028 2.473-4.07 3.698-6.112h31.185c.985 1.433 1.966 2.868 2.964 4.295-5.764 10.544-11.8 20.903-18.113 31.066zm-94.556-35.36c.557 1.067 1.109 2.137 1.671 3.201-7.504 10.412-15.338 20.617-23.448 30.565-2.268-4.486-4.505-9.02-6.709-13.604-.087-.18-.185-.351-.284-.521-.021-.036-.038-.073-.059-.109-.175-.29-.37-.56-.577-.818-.018-.022-.031-.047-.049-.069l-15.349-18.644h44.804zm30.323 202.604c-8.52-10.094-16.754-21.615-24.784-33.401 8.284-7.996 16.346-16.187 24.173-24.573 8.414 11.001 17.146 21.649 26.218 31.955-8.263 8.949-16.79 17.621-25.607 26.019zm71.401.061c-8.816-8.432-17.34-17.124-25.596-26.079 9.051-10.274 17.771-20.902 26.176-31.901 7.866 8.427 15.97 16.655 24.297 24.687-8.069 12.013-16.346 23.655-24.877 33.293zm59.695-184.021c-.017.021-.029.045-.046.065-.209.259-.405.531-.58.823-.021.034-.037.07-.057.104-.1.171-.198.343-.286.525-2.205 4.587-4.44 9.121-6.707 13.606-8.111-9.949-15.946-20.155-23.45-30.567.562-1.064 1.115-2.134 1.671-3.201h44.804z" fill="#e5e1e5"/></g><path d="m390.722 276.016h-277.755c-5.99 0-10.845-4.856-10.845-10.845v-16.892c0-5.99 4.856-10.845 10.845-10.845h277.755c5.99 0 10.845 4.856 10.845 10.845v16.892c0 5.989-4.856 10.845-10.845 10.845z" fill="#fd8087"/></g></svg>