<?xml version="1.0" encoding="iso-8859-1"?>
<!-- Generator: Adobe Illustrator 19.0.0, SVG Export Plug-In . SVG Version: 6.00 Build 0)  -->
<svg xmlns="http://www.w3.org/2000/svg" xmlns:xlink="http://www.w3.org/1999/xlink" version="1.1" id="Capa_1" x="0px" y="0px" viewBox="0 0 512 512" style="enable-background:new 0 0 512 512;" xml:space="preserve">
<path style="fill:#DADADA;" d="M167.917,86.342h63.968c7.504,0,13.96,5.767,14.313,13.263c0.376,8.003-6,14.608-13.92,14.608  h-57.662c-1.829,0-3.062,1.87-2.342,3.551l14.464,33.743c-9.856-7.233-23.996-1.36-25.656,10.888l-17.311-40.418  C136.708,105.338,148.537,86.342,167.917,86.342z"/>
<path style="fill:#C0C0C0;" d="M157.944,121.978c-7.063-16.64,4.766-35.636,24.146-35.636c-8.466,0.9-23.516-3.485-34.129,8.875  c-6.456,7.518-7.981,17.833-4.191,26.761l17.311,40.418c0.737-5.434,4.155-10.015,8.88-12.36L157.944,121.978z"/>
<path style="fill:#635E5E;" d="M195.453,86.342h36.825c7.696,0,13.935,6.239,13.935,13.935c0,7.697-6.239,13.935-13.935,13.935  h-36.825V86.342z"/>
<rect x="195.45" y="86.34" style="fill:#4C4846;" width="25.381" height="27.871"/>
<path style="fill:#C0C0C0;" d="M180.872,94.084c-4.276,0-7.742-3.466-7.742-7.742V66.987c0-4.276,3.466-7.742,7.742-7.742  s7.742,3.466,7.742,7.742v19.355C188.614,90.618,185.148,94.084,180.872,94.084z"/>
<path style="fill:#F9B938;" d="M192.356,68.794h-22.968c-4.276,0-7.742-3.466-7.742-7.742s3.466-7.742,7.742-7.742h22.968  c4.276,0,7.742,3.466,7.742,7.742C200.098,65.328,196.632,68.794,192.356,68.794z"/>
<path style="fill:#EAA224;" d="M180.872,61.052c0-4.276,3.466-7.742,7.742-7.742h-19.226c-4.276,0-7.742,3.466-7.742,7.742  c0,4.276,3.466,7.742,7.742,7.742h19.226C184.339,68.794,180.872,65.328,180.872,61.052z"/>
<g>
	<path style="fill:#635E5E;" d="M511.226,348.513H512c-2.011-15.903-7.865-30.622-16.594-43.204l-0.481,0.422   c-5.392-7.861-11.904-14.896-19.303-20.875l0.37-0.325c-35.81-28.628-87.104-28.317-122.526,0l0.37,0.325   c-7.399,5.98-13.911,13.014-19.303,20.875l-0.481-0.422c-8.728,12.583-14.583,27.302-16.594,43.204h0.774   c-1.188,9.393-1.016,18.962,0.561,28.424h-0.774c7.581,45.491,46.717,80.423,94.071,81.502c0.425,0.013,0.852,0.022,1.279,0.029   c0.325,0.003,0.646,0.022,0.972,0.022c0.129,0,0.258-0.005,0.387-0.005c0.129,0.001,0.258,0.005,0.387,0.005   c0.326,0,0.647-0.019,0.972-0.022c0.427-0.008,0.853-0.016,1.279-0.029c47.355-1.079,86.491-36.011,94.071-81.502h-0.774   C512.234,367.525,512.419,357.954,511.226,348.513z M345.331,360.833c0-38.35,31.098-69.566,69.399-69.776   c38.302,0.21,69.399,31.426,69.399,69.776c0,38.351-31.097,69.567-69.399,69.777C376.428,430.4,345.331,399.183,345.331,360.833z"/>
	<path style="fill:#635E5E;" d="M100.682,263.249C70.27,262.3,50.266,275.82,48.967,276.26   c-0.342,0.301-33.947,17.004-45.365,58.983c-22.919,84.366,68.139,153.398,143.022,110.164l0,0l0,0   C230.432,397.02,200.1,266.492,100.682,263.249z M132.689,421.27c-29.159,16.835-65.546,10.166-87.077-14.089   c-18.927-21.332-22.967-52.002-10.161-77.628l0,0c4.205-8.414,10.14-16.036,17.639-22.288l0,0   c0.536-0.447,8.25-7.367,20.665-11.931l0,0c9.164-3.368,18.733-4.697,28.122-4.132l0,0   C171.587,295.369,191.776,387.155,132.689,421.27z"/>
</g>
<g>
	<path style="fill:#4C4846;" d="M42.782,404.108c-31.549-43.72-20.99-103.124,18.754-133.952   C1.23,294.807-17.711,367.664,18.645,418.043c28.931,40.089,84.26,52.605,127.979,27.363l0,0l0,0   c4.096-2.365,7.957-4.984,11.572-7.826C116.905,454.125,69.001,440.44,42.782,404.108z"/>
	<path style="fill:#4C4846;" d="M360.078,404.108c-31.324-43.407-21.28-102.899,18.754-133.952   c-60.078,24.558-79.296,97.436-42.891,147.887c32.141,44.538,95.617,54.069,139.552,19.537   C434.201,454.125,386.298,440.44,360.078,404.108z"/>
</g>
<circle style="fill:#C0C0C0;" cx="176.12" cy="162.53" r="16.236"/>
<path style="fill:#AFAFB2;" d="M176.002,146.301c-12.348,0.078-20.19,13.522-13.942,24.344c4.483,7.765,14.413,10.426,22.178,5.943  c2.603-1.503,4.617-3.626,5.996-6.066C177.747,170.6,169.846,157.194,176.002,146.301z"/>
<path style="fill:#D83D3D;" d="M83.794,357.486l76.307-192.428c1.219,7.761,7.916,13.704,16.019,13.704  c4.125,0,7.88-1.551,10.744-4.086l-9.647,24.326c-0.992,2.502,0.356,5.318,2.926,6.116l112.736,34.962  c13.578-31.679,12.425-35.352,18.547-39.488c-4.28,12.324,6.992,24.413,19.606,20.968l-12.891,31.926L430.3,352.05  c4.866,4.275,6.274,11.359,3.224,17.241c-2.487,4.796-7.61,7.646-13.013,7.646H285.863c6.301-8.295,8.081-18.825,5.383-28.423  h87.438c1.576,0,2.312-1.952,1.128-2.992l-70.166-61.661c-1.283-1.127-3.295-0.643-3.925,0.945l-20.6,51.95  c-6.109-7.456-15.436-12.126-25.863-11.889l21.923-55.282c0.642-1.62-0.23-3.444-1.895-3.961l-82.039-25.442  c-1.56-0.484-2.858,1.268-1.941,2.619l56.416,83.112c-9.774,2.568-17.749,9.574-21.635,18.736l-69.83-102.874l-50.04,126.189  c-2.212,5.577-7.559,8.977-13.215,8.977c-1.743,0-3.516-0.323-5.235-1.005C84.47,373.043,80.9,364.782,83.794,357.486z"/>
<path style="fill:#B72C2C;" d="M97.942,358.842l71.915-181.351c-5.097-2.141-8.872-6.802-9.756-12.433L83.794,357.486  c-2.894,7.296,0.676,15.557,7.972,18.45c1.719,0.683,3.492,1.005,5.235,1.005c0.504,0,1.003-0.037,1.5-0.089  C95.933,371.38,95.538,364.904,97.942,358.842z"/>
<path style="fill:#DADADA;" d="M311.426,200.591c-4.28,12.324,6.992,24.413,19.606,20.968l-12.891,31.926l-25.261-13.406  C306.457,208.401,305.305,204.728,311.426,200.591z"/>
<path style="fill:#C0C0C0;" d="M317.19,219.013c-5.686-4.157-8.159-11.524-5.764-18.422c-6.152,4.158-5.351,8.702-18.547,39.488  l13.021,6.91L317.19,219.013z"/>
<path style="fill:#635E5E;" d="M243.692,329.085c-15.568,8.988-20.92,28.966-11.933,44.533s28.965,20.921,44.533,11.933  c15.568-8.988,20.921-28.966,11.933-44.533C279.237,325.45,259.26,320.097,243.692,329.085z"/>
<path style="fill:#4C4846;" d="M260.001,324.733c-24.893-0.05-40.819,27.101-28.242,48.885  c12.552,21.741,44.021,21.623,56.457-0.016C263.165,373.553,247.464,346.549,260.001,324.733z"/>
<path style="fill:#DADADA;" d="M259.992,449.694h-39.069c-4.276,0-7.742-3.466-7.742-7.742s3.466-7.742,7.742-7.742h31.327v-76.893  c0-4.276,3.466-7.742,7.742-7.742c4.276,0,7.742,3.466,7.742,7.742v84.635C267.734,446.229,264.268,449.694,259.992,449.694z"/>
<circle style="fill:#C0C0C0;" cx="326.75" cy="205.91" r="16.236"/>
<path style="fill:#AFAFB2;" d="M326.633,189.684c-12.347,0.078-20.19,13.522-13.942,24.344c4.483,7.765,14.413,10.426,22.178,5.943  c2.603-1.503,4.617-3.626,5.996-6.066C328.378,213.984,320.477,200.577,326.633,189.684z"/>
<path style="fill:#7C6359;" d="M349.62,162.54l-68.441-3.24c-7.515-0.356-12.555,7.61-9.015,14.248  c1.76,2.227,7.169,20.114,27.51,23.343l31.222,4.957l16.994,5.18c6.685,2.038,13.888-0.838,17.331-6.92  c1.181-3.332,10.7-12.882,3.22-23.803l-3.621-5.286C361.361,165.968,355.735,162.83,349.62,162.54z"/>
<path style="fill:#604C42;" d="M348.96,180.891l-31.222-4.957c-9.871-1.567-18.49-7.462-23.555-16.018l-13.004-0.616  c-7.515-0.356-12.555,7.61-9.015,14.248c1.76,2.227,7.169,20.114,27.51,23.343l31.222,4.956l16.994,5.18  c6.685,2.038,13.888-0.838,17.331-6.92c2.935-5.711,5.485-8.171,5.942-13.418C366.638,186.952,364.801,185.454,348.96,180.891z"/>
<path style="fill:#DADADA;" d="M133.347,232.525l26.909,9.251l-50.04,126.189c-2.212,5.577-7.559,8.977-13.215,8.977  c-9.996,0-16.91-10.116-13.207-19.455L133.347,232.525z"/>
<path style="fill:#C0C0C0;" d="M97.942,358.842l48.329-121.874l-12.924-4.443L83.794,357.486c-2.894,7.296,0.676,15.557,7.972,18.45  c1.719,0.683,3.492,1.005,5.235,1.005c0.504,0,1.003-0.037,1.5-0.089C95.933,371.38,95.538,364.904,97.942,358.842z"/>
<g>
</g>
<g>
</g>
<g>
</g>
<g>
</g>
<g>
</g>
<g>
</g>
<g>
</g>
<g>
</g>
<g>
</g>
<g>
</g>
<g>
</g>
<g>
</g>
<g>
</g>
<g>
</g>
<g>
</g>
</svg>
