<svg height="512pt" viewBox="-2 0 512 512.00009" width="512pt" xmlns="http://www.w3.org/2000/svg"><g fill-rule="evenodd"><path d="m466.730469 7.125c23.023437 3.855469 38.007812 29.992188 33.304687 58.113281-3.914062 23.363281-11.128906 41.613281-17.9375 59.457031-33.773437 88.277344-9.582031 56.242188 21.328125 157.105469 8.617188 28.152344 4.265625 77.707031-6.429687 125.835938-7.625 34.371093-18.492188 68.011719-30.148438 92.628906-3.300781 6.976563-8.585937 12.820313-16.210937 11.5625l-66.523438-11.125-66.519531-11.125c-7.65625-1.285156-10.722656-8.527344-11.570312-16.238281-3.007813-27.070313-2.335938-62.402344 1.664062-97.359375 5.550781-49 17.589844-97.273438 34.882812-121.074219 62.109376-85.328125 74.527344-47.160156 71.371094-141.601562-.640625-19.125-1.519531-38.691407 2.398438-62.082032 4.699218-28.09375 27.398437-47.953125 50.390625-44.097656zm0 0" fill="#e6e6e6"/><path d="m507.691406 308.84375-139.179687-23.304688c.4375 1.722657.847656 3.476563 1.257812 5.285157 3.476563 15.507812 5.492188 33.964843 6.222657 53.648437l128.542968 21.519532c2.832032-20.703126 4.089844-40.414063 3.15625-57.148438zm0 0" fill="#f74311"/><path d="m472.457031 151.386719-58.109375-9.726563c-.699218 47.074219-11.1875 43.132813-43.410156 78.261719l117.0625 19.597656c-19.019531-43.71875-30.207031-43.425781-15.542969-88.132812zm0 0" fill="#64b0d9"/><path d="m279.554688 0c23.339843 0 42.417968 23.304688 42.417968 51.804688 0 23.710937-4.089844 42.871093-7.859375 61.617187-18.726562 92.660156-.175781 57.0625 46.976563 151.441406 13.148437 26.3125 17.03125 75.925781 14.433594 125.164063-1.839844 35.128906-6.980469 70.113281-14.433594 96.308594-2.101563 7.445312-6.339844 14.105468-14.078125 14.105468h-134.914063c-7.742187 0-11.976562-6.660156-14.082031-14.105468-7.449219-26.195313-12.589844-61.179688-14.429687-96.308594-2.601563-49.238282 1.285156-98.851563 14.429687-125.164063 47.152344-94.378906 65.703125-58.78125 46.976563-151.441406-3.765626-18.746094-7.855469-37.90625-7.855469-61.617187-.003907-28.5 19.074219-51.804688 42.417969-51.804688zm0 0" fill="#e6e6e6"/><path d="m338.917969 225.703125c-26-39.976563-36.984375-37.84375-29.914063-84.363281h-58.898437c7.070312 46.519531-3.914063 44.386718-29.914063 84.363281zm0 0" fill="#64b0d9"/><path d="m314.113281 113.421875c3.769531-18.746094 7.859375-37.90625 7.859375-61.617187 0-28.5-19.078125-51.804688-42.417968-51.804688-5.523438 0-10.808594 1.3125-15.6875 3.679688 15.65625 7.648437 26.757812 26.371093 26.757812 48.125 0 23.710937-4.089844 42.867187-7.886719 61.617187-2.191406 10.949219-3.886719 20.117187-5.082031 27.917969h31.347656c1.195313-7.796875 2.890625-16.96875 5.109375-27.917969zm0 0" fill="#c2c7cc"/><path d="m338.917969 225.703125c-26-39.976563-36.984375-37.84375-29.914063-84.363281h-31.347656c-7.070312 46.519531 3.914062 44.386718 29.886719 84.363281zm0 0" fill="#4a83c9"/><path d="m361.09375 264.863281c-3.769531-7.5625-7.363281-14.277343-10.78125-20.292969-4.0625-7.242187-7.886719-13.433593-11.394531-18.867187h-31.375c6.484375 9.957031 13.90625 22.542969 22.203125 39.160156 1.109375 2.191407 2.132812 4.558594 3.097656 7.066407 2.160156 5.609374 4.03125 11.945312 5.578125 18.894531h31.347656c-.410156-1.808594-.820312-3.5625-1.257812-5.285157-2.042969-7.855468-4.5-14.835937-7.417969-20.675781zm0 0" fill="#c2c7cc"/><path d="m375.523438 390.027344c.757812-14.28125.964843-28.589844.554687-42.34375h-31.347656c.410156 13.753906.203125 28.0625-.554688 42.34375-1.839843 35.128906-7.011719 70.113281-14.433593 96.308594-.496094 1.722656-1.078126 3.386718-1.808594 4.964843-2.453125 5.195313-6.3125 9.136719-12.269532 9.136719h31.347657c3.941406 0 6.980469-1.722656 9.257812-4.410156 2.25-2.566406 3.800781-6.042969 4.820313-9.691406 7.453125-26.195313 12.59375-61.179688 14.433594-96.308594zm0 0" fill="#c2c7cc"/><path d="m375.992188 344.46875c-.730469-19.679688-2.746094-38.136719-6.222657-53.644531h-105.789062c9.847656 17.027343 16.246093 36.296875 18.230469 56.859375h93.867187c-.027344-1.050782-.058594-2.132813-.085937-3.214844zm0 0" fill="#f74311"/><path d="m375.992188 344.46875c-.730469-19.679688-2.746094-38.136719-6.222657-53.644531h-31.347656c3.679687 16.355469 5.695313 35.976562 6.308594 56.859375h31.347656c-.027344-1.050782-.058594-2.132813-.085937-3.214844zm0 0" fill="#d92525"/><path d="m500.035156 65.238281c4.703125-28.121093-10.28125-54.257812-33.304687-58.113281-5.609375-.933594-11.21875-.46875-16.5625 1.195312 13.902343 10.222657 21.589843 30.34375 18.023437 51.574219-3.914062 23.390625-11.101562 41.613281-17.9375 59.484375-4.003906 10.425782-7.160156 19.183594-9.613281 26.691406l31.816406 5.3125c2.453125-7.503906 5.636719-16.265624 9.640625-26.691406 6.808594-17.839844 14.023438-36.089844 17.9375-59.453125zm0 0" fill="#c2c7cc"/><path d="m472.457031 151.386719-31.816406-5.316407c-14.664063 44.707032-3.476563 44.417969 15.542969 88.132813l31.816406 5.316406c-19.019531-43.71875-30.207031-43.425781-15.542969-88.132812zm0 0" fill="#4a83c9"/><path d="m503.425781 281.800781c-5.433593-17.753906-10.664062-31.390625-15.425781-42.285156l-31.816406-5.3125c4.734375 10.890625 9.964844 24.527344 15.425781 42.285156 2.308594 7.589844 3.710937 16.761719 4.265625 27.039063l31.816406 5.316406c-.554687-10.28125-1.929687-19.449219-4.265625-27.042969zm0 0" fill="#c2c7cc"/><path d="m504.535156 365.992188c2.832032-20.703126 4.089844-40.414063 3.15625-57.148438l-31.816406-5.316406c.933594 16.734375-.320312 36.417968-3.15625 57.121094zm0 0" fill="#d92525"/><path d="m496.996094 407.636719c3.097656-13.960938 5.671875-28.035157 7.539062-41.644531l-31.816406-5.34375c-1.898438 13.636718-4.441406 27.710937-7.535156 41.671874-7.65625 34.339844-18.492188 67.984376-30.148438 92.601563-3.332031 7.007813-8.589844 12.847656-16.242187 11.5625l31.84375 5.34375c7.625 1.257813 12.910156-4.585937 16.210937-11.5625 11.65625-24.617187 22.523438-58.257813 30.148438-92.628906zm0 0" fill="#c2c7cc"/><path d="m282.210938 347.683594c-1.984376-20.558594-8.382813-39.832032-18.230469-56.859375-25.328125-43.859375-71.925781-70.785157-122.554688-70.785157-78.117187 0-141.425781 63.28125-141.425781 141.367188 0 78.089844 63.308594 141.371094 141.429688 141.371094 20.652343 0 40.285156-4.410156 57.988281-12.382813 49.199219-22.136719 83.4375-71.574219 83.4375-128.988281 0-4.613281-.203125-9.195312-.644531-13.722656zm0 0" fill="#808080"/><g fill="#3d3c3c"><path d="m88.578125 328.90625c0-10.570312-8.589844-19.15625-19.164063-19.15625-10.578124 0-19.136718 8.585938-19.136718 19.15625s8.558594 19.128906 19.136718 19.128906c10.574219 0 19.164063-8.558594 19.164063-19.128906zm0 0"/><path d="m146.1875 280.839844c0-10.570313-8.585938-19.15625-19.164062-19.15625-10.574219 0-19.136719 8.582031-19.136719 19.15625 0 10.570312 8.5625 19.128906 19.136719 19.128906 10.578124 0 19.164062-8.558594 19.164062-19.128906zm0 0"/><path d="m214.140625 287.089844c-3.503906-3.855469-8.558594-6.25-14.167969-6.25-3.125 0-6.046875.730468-8.648437 2.070312-1.578125.789063-3.007813 1.78125-4.261719 2.949219-3.828125 3.503906-6.222656 8.527344-6.222656 14.105469 0 4.847656 1.78125 9.289062 4.761718 12.675781.203126.203125.378907.410156.582032.613281 3.476562 3.621094 8.355468 5.867188 13.789062 5.867188 10.578125 0 19.164063-8.582032 19.164063-19.15625 0-3.300782-.84375-6.421875-2.335938-9.140625-.757812-1.371094-1.636719-2.597657-2.660156-3.734375zm0 0"/></g><path d="m282.210938 347.683594c-1.984376-20.558594-8.382813-39.832032-18.230469-56.859375-1.226563-2.128907-2.480469-4.203125-3.824219-6.246094-.03125-.058594-.058594-.117187-.089844-.175781-12.152344-18.660156-28.308594-33.933594-46.949218-44.882813-.347657-.207031-.699219-.410156-1.078126-.613281-21.09375-12.179688-45.34375-18.867188-70.613281-18.867188-3.710937 0-7.363281.148438-10.984375.410157 27.34375 5.519531 51.828125 18.921875 70.992188 37.730469 26.117187 25.636718 42.332031 61.351562 42.332031 100.863281 0 43.425781-19.605469 82.292969-50.453125 108.222656-21.96875 18.488281-49.636719 30.402344-79.992188 32.738281 9.085938 1.808594 18.464844 2.773438 28.105469 2.773438 20.65625 0 40.289063-4.410156 57.992188-12.382813 49.195312-22.132812 83.4375-71.574219 83.4375-128.988281 0-4.613281-.203125-9.195312-.644531-13.722656zm0 0" fill="#666"/></g></svg>