<svg height="512pt" viewBox="-2 0 512 512" width="512pt" xmlns="http://www.w3.org/2000/svg"><g fill-rule="evenodd"><path d="m460.371094 14.472656c22.335937 3.742188 36.875 29.105469 32.3125 56.394532-3.796875 22.671874-10.796875 40.386718-17.402344 57.703124-32.765625 85.671876-9.296875 54.582032 20.691406 152.46875 8.359375 27.320313 4.136719 75.414063-6.238281 122.117188-7.394531 33.359375-17.9375 66.003906-29.25 89.898438-3.203125 6.769531-8.332031 12.4375-15.730469 11.222656l-64.535156-10.800782-64.539062-10.796874c-7.425782-1.246094-10.402344-8.273438-11.226563-15.757813-2.917969-26.269531-2.265625-60.5625 1.617187-94.484375 5.386719-47.554688 17.0625-94.402344 33.84375-117.5 60.257813-82.808594 72.304688-45.765625 69.242188-137.421875-.625-18.5625-1.472656-37.550781 2.324219-60.25 4.5625-27.261719 26.585937-46.535156 48.890625-42.792969zm0 0" fill="#e6e6e6"/><path d="m500.109375 307.28125-135.027344-22.613281c.425781 1.671875.820313 3.371093 1.21875 5.128906 3.375 15.050781 5.328125 32.960937 6.039063 52.0625l124.710937 20.886719c2.746094-20.09375 3.964844-39.222656 3.058594-55.464844zm0 0" fill="#f74311"/><path d="m465.929688 154.472656-56.375-9.4375c-.683594 45.683594-10.859376 41.859375-42.121094 75.953125l113.574218 19.015625c-18.453124-42.425781-29.308593-42.144531-15.078124-85.53125zm0 0" fill="#64b0d9"/><path d="m278.777344 7.558594c22.644531 0 41.152344 22.613281 41.152344 50.273437 0 23.011719-3.964844 41.601563-7.621094 59.796875-18.167969 89.925782-.171875 55.378906 45.574218 146.972656 12.753907 25.535157 16.523438 73.683594 14.003907 121.464844-1.789063 34.09375-6.777344 68.046875-14.003907 93.46875-2.039062 7.226563-6.152343 13.6875-13.660156 13.6875h-130.890625c-7.511719 0-11.621093-6.460937-13.664062-13.6875-7.226563-25.421875-12.214844-59.375-14-93.46875-2.523438-47.78125 1.246093-95.929687 14-121.464844 45.746093-91.59375 63.746093-57.046874 45.578125-146.972656-3.65625-18.191406-7.625-36.785156-7.625-59.796875 0-27.660156 18.507812-50.273437 41.15625-50.273437zm0 0" fill="#e6e6e6"/><path d="m336.371094 226.597656c-25.226563-38.796875-35.882813-36.730468-29.023438-81.875h-57.140625c6.859375 45.144532-3.800781 43.078125-29.023437 81.875zm0 0" fill="#64b0d9"/><path d="m312.304688 117.628906c3.65625-18.191406 7.625-36.785156 7.625-59.796875 0-27.660156-18.507813-50.273437-41.15625-50.273437-5.355469 0-10.484376 1.273437-15.21875 3.570312 15.191406 7.425782 25.964843 25.589844 25.964843 46.703125 0 23.011719-3.96875 41.605469-7.65625 59.800781-2.125 10.625-3.769531 19.523438-4.929687 27.089844h30.414062c1.160156-7.566406 2.804688-16.464844 4.957032-27.09375zm0 0" fill="#c2c7cc"/><path d="m336.371094 226.597656c-25.226563-38.796875-35.882813-36.730468-29.023438-81.875h-30.414062c-6.859375 45.144532 3.796875 43.078125 28.996094 81.875zm0 0" fill="#4a83c9"/><path d="m357.882812 264.601562c-3.65625-7.339843-7.144531-13.859374-10.460937-19.695312-3.9375-7.027344-7.652344-13.039062-11.054687-18.308594h-30.4375c6.289062 9.664063 13.492187 21.878906 21.539062 38.003906 1.078125 2.125 2.070312 4.421876 3.003906 6.859376 2.097656 5.441406 3.910156 11.589843 5.414063 18.335937h30.414062c-.398437-1.757813-.792969-3.457031-1.21875-5.132813-1.984375-7.621093-4.363281-14.394531-7.199219-20.0625zm0 0" fill="#c2c7cc"/><path d="m371.882812 386.066406c.738282-13.855468.9375-27.742187.539063-41.089844h-30.410156c.394531 13.347657.195312 27.234376-.539063 41.089844-1.789062 34.09375-6.804687 68.046875-14.003906 93.46875-.480469 1.671875-1.046875 3.285156-1.757812 4.816406-2.378907 5.046876-6.121094 8.871094-11.902344 8.871094h30.414062c3.824219 0 6.773438-1.671875 8.984375-4.28125 2.179688-2.492187 3.683594-5.863281 4.675781-9.40625 7.226563-25.421875 12.214844-59.375 14-93.46875zm0 0" fill="#c2c7cc"/><path d="m372.335938 341.859375c-.707032-19.101563-2.664063-37.011719-6.035157-52.0625h-102.632812c9.550781 16.523437 15.757812 35.226563 17.6875 55.179687h91.066406c-.027344-1.023437-.054687-2.070312-.085937-3.117187zm0 0" fill="#f74311"/><path d="m372.335938 341.859375c-.707032-19.101563-2.664063-37.011719-6.035157-52.0625h-30.414062c3.570312 15.871094 5.527343 34.914063 6.121093 55.179687h30.414063c-.027344-1.023437-.054687-2.070312-.085937-3.117187zm0 0" fill="#d92525"/><path d="m492.683594 70.867188c4.5625-27.289063-9.976563-52.652344-32.3125-56.394532-5.441406-.90625-10.882813-.453125-16.070313 1.160156 13.492188 9.921876 20.945313 29.445313 17.488281 50.050782-3.796874 22.699218-10.769531 40.382812-17.402343 57.726562-3.882813 10.117188-6.945313 18.621094-9.324219 25.90625l30.863281 5.15625c2.382813-7.28125 5.472657-15.785156 9.355469-25.902344 6.605469-17.316406 13.605469-35.03125 17.402344-57.703124zm0 0" fill="#c2c7cc"/><path d="m465.929688 154.472656-30.867188-5.160156c-14.226562 43.390625-3.375 43.105469 15.078125 85.53125l30.867187 5.160156c-18.453124-42.425781-29.308593-42.144531-15.078124-85.53125zm0 0" fill="#4a83c9"/><path d="m495.972656 281.039062c-5.273437-17.230468-10.34375-30.464843-14.964844-41.035156l-30.867187-5.160156c4.59375 10.570312 9.664063 23.808594 14.964844 41.039062 2.238281 7.367188 3.601562 16.265626 4.136719 26.242188l30.867187 5.15625c-.539063-9.972656-1.871094-18.875-4.136719-26.242188zm0 0" fill="#c2c7cc"/><path d="m497.050781 362.742188c2.746094-20.089844 3.964844-39.222657 3.058594-55.460938l-30.867187-5.15625c.910156 16.238281-.308594 35.339844-3.058594 55.433594zm0 0" fill="#d92525"/><path d="m489.734375 403.15625c3.003906-13.546875 5.5-27.207031 7.316406-40.414062l-30.867187-5.183594c-1.84375 13.234375-4.308594 26.894531-7.3125 40.441406-7.425782 33.328125-17.941406 65.976562-29.25 89.867188-3.230469 6.800781-8.335938 12.46875-15.761719 11.222656l30.894531 5.183594c7.398438 1.21875 12.527344-4.449219 15.730469-11.222657 11.3125-23.890625 21.855469-56.535156 29.25-89.894531zm0 0" fill="#c2c7cc"/><path d="m281.355469 344.976562c-1.925781-19.953124-8.136719-38.65625-17.6875-55.179687-24.574219-42.566406-69.78125-68.695313-118.898438-68.695313-75.792969 0-137.210937 61.410157-137.210937 137.195313 0 75.78125 61.417968 137.191406 137.210937 137.191406 20.039063 0 39.085938-4.277343 56.261719-12.015625 47.730469-21.480468 80.949219-69.460937 80.949219-125.175781-.003907-4.480469-.199219-8.929687-.625-13.320313zm0 0" fill="#808080"/><path d="m93.492188 326.753906c0-10.261718-8.332032-18.59375-18.589844-18.59375-10.261719 0-18.566406 8.332032-18.566406 18.59375 0 10.257813 8.304687 18.5625 18.566406 18.5625 10.257812 0 18.589844-8.304687 18.589844-18.5625zm0 0" fill="#3d3c3c"/><path d="m149.386719 280.105469c0-10.261719-8.332031-18.59375-18.589844-18.59375-10.261719 0-18.566406 8.332031-18.566406 18.59375 0 10.257812 8.304687 18.5625 18.566406 18.5625 10.257813 0 18.589844-8.304688 18.589844-18.5625zm0 0" fill="#3d3c3c"/><path d="m215.316406 286.167969c-3.402344-3.738281-8.304687-6.0625-13.75-6.0625-3.03125 0-5.867187.707031-8.386718 2.011719-1.53125.765624-2.921876 1.726562-4.140626 2.859374-3.710937 3.402344-6.035156 8.277344-6.035156 13.6875 0 4.707032 1.726563 9.015626 4.617188 12.300782.199218.199218.371094.398437.570312.597656 3.371094 3.511719 8.105469 5.695312 13.375 5.695312 10.261719 0 18.59375-8.332031 18.59375-18.59375 0-3.199218-.820312-6.234374-2.265625-8.867187-.738281-1.332031-1.585937-2.523437-2.578125-3.628906zm0 0" fill="#3d3c3c"/><path d="m281.355469 344.976562c-1.925781-19.953124-8.136719-38.65625-17.6875-55.179687-1.1875-2.070313-2.40625-4.082031-3.710938-6.066406-.027343-.054688-.058593-.113281-.085937-.167969-11.792969-18.109375-27.464844-32.929688-45.546875-43.558594-.339844-.199218-.679688-.398437-1.050781-.597656-20.464844-11.816406-43.988282-18.304688-68.503907-18.304688-3.601562 0-7.144531.140626-10.660156.394532 26.53125 5.355468 50.28125 18.363281 68.875 36.617187 25.339844 24.882813 41.070313 59.542969 41.070313 97.886719 0 42.140625-19.015626 79.863281-48.949219 105.027344-21.3125 17.941406-48.15625 29.503906-77.601563 31.769531 8.8125 1.757813 17.910156 2.691406 27.265625 2.691406 20.039063 0 39.085938-4.277343 56.261719-12.015625 47.730469-21.480468 80.949219-69.460937 80.949219-125.175781-.003907-4.480469-.199219-8.929687-.625-13.320313zm0 0" fill="#666"/></g><path d="m504.574219 363.355469c3.832031-27.933594 5.753906-61.21875-1.378907-84.527344-10.371093-33.863281-19.890624-52.40625-26.835937-65.945313-9.863281-19.214843-13.214844-25.753906-3.480469-55.460937.160156-.378906.292969-.773437.390625-1.1875 2.308594-6.941406 5.304688-15.121094 9.074219-24.972656l.910156-2.390625c6.457032-16.902344 13.136719-34.382813 16.882813-56.753906 5.261719-31.460938-12.015625-60.660157-38.515625-65.097657-13.0625-2.191406-26.320313 1.90625-37.324219 11.535157-10.578125 9.257812-17.773437 22.5625-20.269531 37.464843-3.761719 22.484375-3.121094 41.25-2.503906 59.394531l.082031 2.355469c.347656 10.527344.515625 19.226563.433593 26.535157-.039062.429687-.046874.855468-.015624 1.273437-.480469 31.25-5.78125 36.34375-21.367188 51.308594-5.121094 4.917969-11.28125 10.832031-18.578125 18.777343-.125.121094-.238281.25-.355469.382813-4.085937 4.464844-8.53125 9.566406-13.34375 15.480469-1.957031-3.226563-3.835937-6.210938-5.644531-8.996094-.046875-.074219-.097656-.152344-.148437-.226562-5.863282-9.007813-10.960938-15.859376-15.296876-21.675782-12.917968-17.351562-17.296874-23.242187-12.566406-54.28125.070313-.3125.117188-.628906.148438-.949218 1.128906-7.261719 2.742187-15.871094 4.847656-26.28125l.496094-2.480469c3.574218-17.738281 7.273437-36.085938 7.273437-58.804688-.003906-31.890625-21.855469-57.832031-48.714843-57.832031-26.859376 0-48.710938 25.941406-48.710938 57.832031 0 22.71875 3.699219 41.0625 7.273438 58.800781l.503906 2.496094c2.101562 10.398438 3.710937 19 4.84375 26.257813.027344.332031.078125.65625.148437.972656 4.726563 31.019531.347657 36.90625-12.570312 54.257813-4.347657 5.832031-9.433594 12.667968-15.316407 21.71875-.035156.046874-.0625.09375-.09375.140624-1.402343 2.160157-2.847656 4.445313-4.34375 6.871094-19.738281-10.101562-42.085937-15.804687-65.742187-15.804687-12.867187 0-25.554687 1.671875-37.714844 4.96875-4.03125 1.09375-6.410156 5.242187-5.316406 9.269531 1.089844 4.027344 5.242187 6.414062 9.269531 5.316406 10.871094-2.945312 22.230469-4.441406 33.761719-4.441406 67.226563 0 122.660156 51.421875 129.039063 116.992188.003906.054687.007812.109374.011718.164062.398438 4.109375.605469 8.273438.605469 12.484375 0 71.480469-58.164063 129.636719-129.652344 129.636719-71.492187 0-129.65625-58.15625-129.65625-129.636719 0-45.714844 23.359375-87.183594 62.488281-110.925781 3.570313-2.164063 4.707032-6.8125 2.542969-10.378906-2.164062-3.570313-6.8125-4.707032-10.382812-2.542969-20.894531 12.683593-38.378907 30.574219-50.5625 51.746093-12.558594 21.832032-19.199219 46.761719-19.199219 72.101563 0 79.816406 64.941406 144.75 144.769531 144.75 18.730469 0 36.644531-3.578125 53.089844-10.082031 3.953125 5.082031 9.269531 7.8125 15.472656 7.8125h130.890625c4.257813 0 8.097656-1.308594 11.363282-3.773438l87.941406 14.726563c1.089844.179687 2.164062.269531 3.222656.269531 8.398438 0 15.773438-5.574219 20.566406-15.714844 11.371094-24.015625 22.230469-57.363281 29.796875-91.488281 2.09375-9.425781 5.042969-24.042969 7.347657-40.609375.011718-.066406.03125-.128906.042968-.195312.03125-.210938.054688-.425782.070313-.636719zm-85.640625-304.839844c1.917968-11.46875 7.359375-21.621094 15.316406-28.585937 7.527344-6.585938 16.359375-9.429688 24.875-8.003907 18.28125 3.0625 29.992188 24.457031 26.105469 47.695313-3.496094 20.886718-9.902344 37.648437-16.09375 53.859375l-.914063 2.390625c-2.863281 7.484375-5.3125 14.125-7.378906 20.089844l-43.707031-7.316407c-.011719-6.308593-.160157-13.378906-.429688-21.378906l-.078125-2.367187c-.59375-17.402344-1.207031-35.394532 2.304688-56.382813zm-27.8125 149.277344c17.246094-16.558594 24.199218-24.503907 25.695312-53.882813l39.351563 6.589844c-8.15625 28.253906-4.167969 38.027344 6.742187 59.285156 1.613282 3.140625 3.371094 6.566406 5.246094 10.402344l-85.351562-14.289062c3.035156-3.03125 5.808593-5.699219 8.316406-8.105469zm-20.84375 21.332031 105.414062 17.648438c4.074219 9.703124 8.476563 21.539062 13.054688 36.480468 1.324218 4.320313 2.320312 9.34375 3 14.964844l-120.667969-20.210938c-1.792969-6.066406-3.914063-11.734374-6.433594-16.785156-2.832031-5.671875-5.554687-10.859375-8.171875-15.628906 4.980469-6.3125 9.578125-11.738281 13.804688-16.46875zm-94.21875 68.230469h84.089844c2.21875 11.652343 3.714843 25.179687 4.429687 40.0625h-76.554687c-2.046876-14.113281-6.136719-27.570313-11.964844-40.0625zm2.714844-282.242188c18.527343 0 33.597656 19.164063 33.597656 42.71875 0 21.214844-3.542969 38.808594-6.972656 55.820313l-.5 2.480468c-1.585938 7.855469-2.90625 14.808594-3.960938 21.035157h-44.324219c-1.054687-6.222657-2.375-13.175781-3.960937-21.027344l-.5-2.492187c-3.429688-17.011719-6.976563-34.605469-6.976563-55.816407.003907-23.554687 15.074219-42.71875 33.597657-42.71875zm-19.953126 137.167969h39.910157c-3.382813 29.226562 2.164062 38.207031 16.433593 57.371094 2.109376 2.832031 4.402344 5.914062 6.886719 9.386718h-86.5625c2.480469-3.46875 4.78125-6.558593 6.894531-9.398437 14.273438-19.164063 19.816407-28.148437 16.4375-57.359375zm-35.234374 84.65625c.585937-.949219 1.164062-1.875 1.738281-2.78125h106.894531c2.683594 4.246094 5.523438 8.96875 8.519531 14.261719.070313.136719.148438.269531.230469.402343 3.207031 5.6875 6.589844 12.027344 10.152344 19.160157 2.019531 4.039062 3.832031 8.828125 5.433594 14.257812h-88.667969c-11.257813-18.15625-26.417969-33.648437-44.300781-45.300781zm-10.089844 248.726562c45.242187-24.503906 76.039062-72.40625 76.039062-127.371093 0-1.929688-.050781-3.847657-.125-5.761719h75.625c.132813 10.566406-.09375 21.664062-.699218 33.140625-1.773438 33.90625-6.777344 67.363281-13.726563 91.808594-1.054687 3.734375-3.019531 8.183593-6.390625 8.183593zm240.160156 4.15625c-1.65625 3.496094-4.335938 7.539063-7.652344 7l-64.535156-10.796874-16.816406-2.820313c.171875-.527344.34375-1.054687.496094-1.601563 7.246093-25.472656 12.449218-60.148437 14.28125-95.132812.453124-8.546875.890624-21.234375.664062-35.648438l24.839844 4.160157c.421875.070312.839844.105469 1.253906.105469 3.625 0 6.828125-2.617188 7.445312-6.3125.6875-4.113282-2.089843-8.011719-6.207031-8.699219l-27.832031-4.660157c-.683594-13.660156-2.089844-28.03125-4.675781-41.433593l117.878906 19.742187c.265625 11.871094-.492187 25.46875-2.242187 40.273438l-51.609376-8.652344c-4.113281-.695312-8.011718 2.089844-8.703124 6.207031-.6875 4.113281 2.089843 8.011719 6.207031 8.703125l52.0625 8.722656c-1.613281 10.4375-3.664063 21.335938-6.15625 32.546876-7.332031 33.074218-17.792969 65.253906-28.699219 88.296874zm0 0"/><path d="m48.777344 326.753906c0 14.402344 11.71875 26.117188 26.125 26.117188 14.417968 0 26.148437-11.714844 26.148437-26.117188 0-14.421875-11.730469-26.148437-26.148437-26.148437-14.40625 0-26.125 11.730469-26.125 26.148437zm37.160156 0c0 6.066406-4.953125 11.003906-11.035156 11.003906-6.070313 0-11.007813-4.9375-11.007813-11.003906 0-6.085937 4.9375-11.035156 11.007813-11.035156 6.085937 0 11.035156 4.949219 11.035156 11.035156zm0 0"/><path d="m156.945312 280.105469c0-14.417969-11.730468-26.148438-26.148437-26.148438-14.40625 0-26.125 11.730469-26.125 26.148438 0 14.402343 11.71875 26.117187 26.125 26.117187 14.417969 0 26.148437-11.714844 26.148437-26.117187zm-37.160156 0c0-6.085938 4.9375-11.035157 11.007813-11.035157 6.085937 0 11.039062 4.949219 11.039062 11.035157 0 6.066406-4.953125 11.003906-11.039062 11.003906-6.070313 0-11.007813-4.9375-11.007813-11.003906zm0 0"/><path d="m227.71875 298.667969c0-14.402344-11.730469-26.121094-26.152344-26.121094-14.402344 0-26.121094 11.71875-26.121094 26.121094 0 14.417969 11.71875 26.148437 26.121094 26.148437 14.421875 0 26.152344-11.730468 26.152344-26.148437zm-37.160156 0c0-6.070313 4.9375-11.007813 11.007812-11.007813 6.085938 0 11.039063 4.9375 11.039063 11.007813 0 6.085937-4.953125 11.035156-11.039063 11.035156-6.070312-.003906-11.007812-4.953125-11.007812-11.035156zm0 0"/></svg>