<?xml version="1.0" encoding="iso-8859-1"?>
<!-- Generator: Adobe Illustrator 19.0.0, SVG Export Plug-In . SVG Version: 6.00 Build 0)  -->
<svg xmlns="http://www.w3.org/2000/svg" xmlns:xlink="http://www.w3.org/1999/xlink" version="1.1" id="Layer_1" x="0px" y="0px" viewBox="0 0 512 512" style="enable-background:new 0 0 512 512;" xml:space="preserve">
<path style="fill:#C8CACC;" d="M424.486,95.198c0.038,0,0.073,0.005,0.11,0.005c-4.318-19.853-21.98-34.723-43.13-34.723h-108.43  h-83.05H81.557c-21.147,0-38.807,14.868-43.127,34.723c0.036,0,0.072-0.005,0.112-0.005"/>
<path style="fill:#E6E9ED;" d="M318.712,96.721H432.23c0.038,0,0.073,0.005,0.11,0.005c-4.318-19.853-21.98-34.723-43.128-34.723  h-35.867C340.411,72.093,328.773,83.763,318.712,96.721z"/>
<path style="fill:#F7A539;" d="M193.34,274.46H63.502c-30.605,0-55.41,24.807-55.41,55.408v49.251  c0,27.339,19.804,50.038,45.847,54.568c-7.016-8.486-11.229-19.373-11.229-31.244c0-27.106,21.97-49.077,49.074-49.077  s49.075,21.971,49.075,49.077c0,12.269-4.513,23.479-11.956,32.082h78.708V288.732C207.613,280.851,201.223,274.46,193.34,274.46z"/>
<path style="fill:#E87528;" d="M37.418,379.562V330.31c0-30.6,24.804-55.408,55.409-55.408h-21.58  c-30.605,0-55.409,24.807-55.409,55.408v49.252c0,27.339,19.804,50.038,45.847,54.568l74.965,0.838h21.58l-74.964-0.838  C57.22,429.6,37.418,406.901,37.418,379.562z"/>
<path style="fill:#F7A539;" d="M323.964,434.525c12.649,0,35.339,0,48.337,0c-7.443-8.605-11.957-19.813-11.957-32.082  c0-27.106,21.971-49.077,49.074-49.077c27.105,0,49.076,21.971,49.076,49.077c0,12.269-4.514,23.479-11.957,32.082  c0.004,0,0.009,0,0.013,0c98.585,0,49.717-116.512,3.705-165.617c-50.153-53.523-94.384-8.796-94.384-8.796l-81.651,99.985h-66.609  v74.428c0,0,36.063,0,89.741,0"/>
<path style="fill:#F9C153;" d="M356.113,257.829l-53.525,65.544c35.271,53.213,95.687,88.309,164.308,88.309  c10.588,0,20.977-0.846,31.113-2.454c20.44-36.493-14.275-107.131-47.513-142.603C400.344,213.102,356.113,257.829,356.113,257.829z  "/>
<rect x="207.617" y="326.003" style="fill:#6E7070;" width="37.269" height="34.097"/>
<g>
	<path style="fill:#5B5E5E;" d="M166.381,274.46V173.756c0-7.883-6.391-14.273-14.274-14.273h-0.793   c-7.882,0-14.274,6.39-14.274,14.273V274.46H166.381z"/>
	<path style="fill:#5B5E5E;" d="M244.455,296.662h-36.843v29.339h36.843c7.883,0,14.273-6.391,14.273-14.273v-0.794   C258.728,303.052,252.337,296.662,244.455,296.662z"/>
	<circle style="fill:#5B5E5E;" cx="91.789" cy="402.448" r="49.072"/>
	<circle style="fill:#5B5E5E;" cx="409.418" cy="402.448" r="49.072"/>
	<rect x="207.617" y="360.099" style="fill:#5B5E5E;" width="67.404" height="74.428"/>
</g>
<g>
	<rect x="91.789" y="119.044" style="fill:#E6E9ED;" width="23.845" height="155.416"/>
	<path style="fill:#E6E9ED;" d="M348.42,119.043v150.195l7.451-9.125c0,0,6.124-6.188,16.393-11.208V119.043H348.42z"/>
</g>
<path style="fill:#6E7070;" d="M321.086,95.198H255.75h-48.475H38.542c-6.587,0-11.924,5.337-11.924,11.923  c0,6.584,5.336,11.923,11.924,11.923h168.734h48.475h168.735c6.585,0,11.922-5.339,11.922-11.923  c0-6.585-5.336-11.923-11.922-11.923h-75.712"/>
<path style="fill:#FF5357;" d="M41.491,305.781H13.588c-3.521,7.284-5.495,15.454-5.495,24.086v9.883  c0.031,0,0.064,0.004,0.095,0.004h33.304c7.882,0,14.272-6.39,14.272-14.272v-5.428C55.764,312.171,49.373,305.781,41.491,305.781z"/>
<path style="fill:#ED3A47;" d="M37.418,339.754v-9.443c0-8.772,2.046-17.063,5.675-24.435c-0.527-0.059-1.06-0.095-1.601-0.095  H21.563c-3.659,7.395-5.724,15.72-5.724,24.531v9.443h21.578V339.754z"/>
<g>
	<circle style="fill:#E6E9ED;" cx="91.789" cy="402.448" r="16.856"/>
	<circle style="fill:#E6E9ED;" cx="409.418" cy="402.448" r="16.856"/>
</g>
<rect x="202.049" y="318.882" style="fill:#7B7C7C;" width="34.894" height="49.232"/>
<g>
	<rect x="215.353" y="297.108" style="fill:#464949;" width="21.58" height="29.337"/>
	<rect x="215.353" y="360.541" style="fill:#464949;" width="21.58" height="74.428"/>
	<path style="fill:#464949;" d="M72.036,402.888c0-23.398,16.375-42.955,38.284-47.873c-3.473-0.779-7.081-1.204-10.79-1.204   c-27.104,0-49.074,21.971-49.074,49.077c0,27.103,21.97,49.076,49.074,49.076c3.71,0,7.317-0.425,10.79-1.205   C88.41,445.841,72.036,426.282,72.036,402.888z"/>
	<path style="fill:#464949;" d="M389.668,402.888c0-23.398,16.375-42.955,38.284-47.873c-3.473-0.779-7.081-1.204-10.79-1.204   c-27.104,0-49.074,21.971-49.074,49.077c0,27.103,21.97,49.076,49.074,49.076c3.71,0,7.317-0.425,10.79-1.205   C406.042,445.841,389.668,426.282,389.668,402.888z"/>
</g>
<g>
	<path style="fill:#231F20;" d="M500.59,334.109c-10.311-25.604-26.919-52.047-44.43-70.735   c-17.691-18.879-36.83-28.588-56.887-28.857c-6.876-0.082-13.22,0.973-18.916,2.627V127.135h44.128   c11.036,0,20.014-8.978,20.014-20.015c0-8.733-5.631-16.158-13.445-18.884c-6.983-21.059-27.028-35.847-49.589-35.847H81.557   c-22.557,0-42.6,14.788-49.586,35.848c-7.814,2.728-13.445,10.152-13.445,18.884c0,11.036,8.979,20.015,20.016,20.015h45.152   v139.231H63.502c-24.976,0-46.62,14.498-56.985,35.516c-0.07,0.127-0.152,0.245-0.216,0.377c-0.882,1.826-1.652,3.685-2.349,5.564   c-0.037,0.098-0.077,0.195-0.112,0.293c-0.301,0.822-0.576,1.651-0.842,2.483c-0.067,0.208-0.136,0.415-0.2,0.626   c-0.245,0.795-0.469,1.594-0.682,2.397c-0.069,0.259-0.136,0.519-0.202,0.779c-0.194,0.775-0.375,1.552-0.539,2.333   c-0.066,0.314-0.126,0.63-0.188,0.946c-0.144,0.74-0.282,1.483-0.399,2.229c-0.064,0.401-0.114,0.806-0.169,1.21   c-0.093,0.675-0.188,1.35-0.259,2.03c-0.06,0.569-0.098,1.143-0.144,1.716c-0.041,0.532-0.094,1.062-0.122,1.597   C0.033,327.589,0,328.724,0,329.867v9.883v39.368c0,29.971,20.738,55.589,49.713,61.981c10.455,11.371,25.443,18.512,42.072,18.512   c15.876,0,30.256-6.509,40.625-16.994h75.203h67.401h22.34c4.469,0,8.092-3.623,8.092-8.092s-3.623-8.092-8.092-8.092h-14.248   v-64.423l78.73-96.407c2.02-1.893,17.02-15.228,37.398-14.901c15.427,0.268,30.605,8.253,45.115,23.739   c16.213,17.303,31.625,41.868,41.227,65.713c10.729,26.645,13.096,49.494,6.663,64.337c-4.848,11.186-15.046,18.135-30.406,20.755   c0.018-0.041,0.033-0.084,0.051-0.126c0.353-0.812,0.685-1.635,1-2.467c0.017-0.046,0.038-0.093,0.055-0.139   c2.352-6.249,3.647-13.011,3.647-20.073c0-31.523-25.646-57.17-57.169-57.17s-57.166,25.646-57.166,57.17   c0,1.026,0.03,2.045,0.084,3.057c0.011,0.197,0.032,0.394,0.045,0.592c0.053,0.828,0.115,1.653,0.203,2.471   c0.021,0.186,0.049,0.37,0.071,0.557c0.098,0.835,0.208,1.666,0.342,2.49c0.027,0.164,0.059,0.327,0.087,0.491   c0.145,0.846,0.304,1.685,0.486,2.518c0.033,0.154,0.071,0.308,0.107,0.461c0.19,0.837,0.396,1.668,0.621,2.49   c0.044,0.16,0.091,0.319,0.136,0.479c0.23,0.808,0.476,1.61,0.74,2.403c0.059,0.177,0.12,0.354,0.18,0.531   c0.263,0.764,0.542,1.52,0.835,2.269c0.08,0.205,0.16,0.41,0.243,0.614c0.286,0.705,0.588,1.402,0.901,2.092   c0.071,0.156,0.132,0.318,0.204,0.475h-33.572c-4.47,0-8.092,3.623-8.092,8.092c0,4.469,3.622,8.092,8.092,8.092h44.83   c10.369,10.484,24.749,16.994,40.625,16.994c15.901,0,30.3-6.53,40.673-17.044c36.104-1.02,50.929-17.633,56.999-31.641   C517.557,386.774,509.333,355.822,500.59,334.109z M364.172,244.045c-1.022,0.587-1.976,1.174-2.898,1.758   c-0.117,0.073-0.23,0.147-0.345,0.22c-0.613,0.393-1.203,0.78-1.768,1.164c-0.258,0.175-0.52,0.35-0.768,0.522   c-0.228,0.159-0.443,0.312-0.663,0.468c-0.329,0.233-0.648,0.463-0.958,0.689c-0.084,0.062-0.178,0.127-0.261,0.188V127.135h7.661   v116.909H364.172z M332.237,276.26l-51.162-50.655l22.716-23.193c3.127-3.193,3.074-8.317-0.119-11.444   c-3.194-3.127-8.317-3.074-11.444,0.119l-56.695,57.886c-3.127,3.193-3.074,8.317,0.119,11.444   c1.575,1.543,3.619,2.311,5.662,2.311c2.099,0,4.197-0.811,5.781-2.43l22.656-23.132l52.203,51.685l-51.572,63.153h-17.407v-19.606   c8.117-3.358,13.845-11.354,13.845-20.67v-0.794c0-12.332-10.032-22.365-22.365-22.365h-28.758   c-0.088-12.256-10.08-22.202-22.357-22.202h-18.866v-92.612c0-12.332-10.033-22.365-22.366-22.365h-0.793   c-12.333,0-22.366,10.032-22.366,22.365v92.612h-5.227V127.135h216.605v139.217L332.237,276.26z M215.705,304.755h28.75   c3.408,0,6.18,2.772,6.18,6.18v0.794c0,3.407-2.772,6.18-6.18,6.18h-28.75V304.755z M215.705,334.093h21.084v17.912h-21.084   V334.093z M158.288,266.368h-13.155v-92.612c0-3.407,2.773-6.18,6.181-6.18h0.793c3.408,0,6.181,2.772,6.181,6.18v92.612H158.288z    M34.711,107.12c0-2.113,1.719-3.83,3.831-3.83h282.543c4.47,0,8.092-3.623,8.092-8.092c0-4.469-3.622-8.092-8.092-8.092H50.071   c6.253-11.149,18.241-18.533,31.486-18.533h299.908c13.248,0,25.237,7.383,31.49,18.533h-64.182c-4.47,0-8.092,3.623-8.092,8.092   c0,4.469,3.622,8.092,8.092,8.092h75.628c0.039,0.001,0.078,0.002,0.114,0.003c2.098,0.017,3.798,1.725,3.798,3.827   c0,2.112-1.718,3.83-3.829,3.83h-52.22h-23.845h-232.79H91.785H38.542C36.43,110.951,34.711,109.232,34.711,107.12z    M99.878,127.135h7.66v139.232h-7.66V127.135z M16.243,327.568c0.009-0.178,0.024-0.355,0.033-0.533   c0.036-0.607,0.08-1.213,0.138-1.815c0.015-0.153,0.032-0.305,0.049-0.459c0.071-0.659,0.152-1.315,0.25-1.966   c0.012-0.077,0.023-0.153,0.035-0.23c0.466-3.001,1.219-5.907,2.224-8.694H41.49c3.407,0,6.18,2.773,6.18,6.181v5.428   c0,3.407-2.772,6.179-6.18,6.179H16.185v-1.795C16.185,329.096,16.206,328.33,16.243,327.568z M91.784,443.427   c-15.526,0-29.064-8.68-36.016-21.444c-0.014-0.027-0.028-0.054-0.043-0.081c-0.269-0.495-0.523-0.998-0.771-1.505   c-0.083-0.17-0.164-0.341-0.244-0.513c-0.169-0.358-0.332-0.721-0.491-1.084c-0.114-0.262-0.228-0.524-0.336-0.789   c-0.11-0.265-0.213-0.534-0.317-0.803c-0.131-0.339-0.262-0.678-0.384-1.019c-0.056-0.158-0.107-0.318-0.162-0.477   c-0.497-1.453-0.916-2.934-1.248-4.436c-0.016-0.072-0.035-0.145-0.051-0.217c-0.091-0.423-0.169-0.848-0.247-1.273   c-0.037-0.203-0.076-0.405-0.109-0.607c-0.063-0.373-0.117-0.748-0.169-1.122c-0.038-0.276-0.073-0.553-0.106-0.832   c-0.039-0.327-0.074-0.655-0.106-0.984c-0.033-0.365-0.059-0.732-0.084-1.099c-0.017-0.258-0.038-0.516-0.05-0.774   c-0.03-0.639-0.049-1.28-0.049-1.925c0.001-22.6,18.386-40.986,40.983-40.986c22.598,0,40.983,18.386,40.983,40.985   c0,0.658-0.019,1.312-0.05,1.964c-0.013,0.276-0.037,0.55-0.056,0.825c-0.025,0.365-0.05,0.73-0.083,1.093   c-0.033,0.352-0.076,0.701-0.119,1.052c-0.033,0.273-0.066,0.546-0.105,0.817c-0.056,0.399-0.121,0.796-0.189,1.193   c-0.036,0.21-0.073,0.42-0.112,0.629c-0.082,0.436-0.17,0.871-0.267,1.303c-0.035,0.155-0.071,0.31-0.108,0.465   c-0.11,0.472-0.227,0.941-0.353,1.408c-0.027,0.097-0.056,0.194-0.083,0.291c-0.144,0.514-0.293,1.024-0.457,1.531   c-0.003,0.009-0.005,0.016-0.009,0.025c-0.687,2.124-1.556,4.189-2.582,6.177c-0.097,0.188-0.189,0.378-0.289,0.563   c-0.153,0.285-0.316,0.565-0.476,0.847c-0.163,0.286-0.324,0.574-0.493,0.857c-0.134,0.223-0.275,0.443-0.413,0.665   c-0.21,0.335-0.421,0.669-0.64,0.997c-0.12,0.179-0.244,0.356-0.366,0.534c-0.251,0.364-0.505,0.724-0.767,1.079   c-0.109,0.148-0.221,0.293-0.331,0.44c-0.286,0.375-0.576,0.747-0.874,1.111c-0.104,0.127-0.208,0.254-0.314,0.38   C115.71,437.689,104.406,443.427,91.784,443.427z M143.873,425.956c0.312-0.688,0.612-1.382,0.898-2.085   c0.084-0.208,0.165-0.418,0.247-0.626c0.291-0.743,0.568-1.493,0.829-2.252c0.063-0.183,0.125-0.366,0.187-0.55   c0.261-0.787,0.505-1.581,0.734-2.381c0.047-0.167,0.096-0.333,0.142-0.501c0.223-0.815,0.427-1.637,0.615-2.465   c0.037-0.162,0.077-0.324,0.112-0.486c0.18-0.825,0.338-1.657,0.481-2.496c0.029-0.17,0.064-0.339,0.092-0.509   c0.133-0.819,0.243-1.645,0.34-2.476c0.023-0.19,0.052-0.379,0.072-0.569c0.087-0.814,0.149-1.634,0.202-2.456   c0.013-0.203,0.036-0.404,0.046-0.606c0.054-1.012,0.083-2.031,0.083-3.056c0-31.523-25.645-57.17-57.168-57.17   s-57.166,25.646-57.166,57.17c0,0.859,0.027,1.716,0.065,2.571c0.012,0.27,0.027,0.537,0.043,0.806   c0.037,0.621,0.085,1.242,0.142,1.861c0.026,0.283,0.047,0.565,0.078,0.847c0.077,0.71,0.168,1.418,0.271,2.123   c0.063,0.436,0.135,0.869,0.208,1.302c0.057,0.339,0.119,0.677,0.181,1.014c0.309,1.649,0.687,3.27,1.134,4.866   c0.039,0.14,0.073,0.282,0.113,0.421c-12.611-8.568-20.67-23.006-20.67-39.137v-31.271h25.306   c12.332,0,22.365-10.032,22.365-22.364v-5.428c0-12.333-10.032-22.366-22.365-22.366H28.855   c8.646-9.302,20.974-15.136,34.646-15.136h28.284h23.844h21.411h29.34h26.958c3.408,0,6.181,2.772,6.181,6.18v7.931v29.339V360.1   v66.336h-55.853C143.74,426.277,143.802,426.114,143.873,425.956z M215.705,426.433V368.19h29.177h22.039v58.243H215.705z    M409.418,443.427c-12.612,0-23.908-5.732-31.432-14.722c-0.114-0.137-0.229-0.275-0.342-0.413   c-0.288-0.354-0.57-0.713-0.846-1.077c-0.12-0.158-0.24-0.314-0.356-0.473c-0.254-0.343-0.5-0.692-0.742-1.042   c-0.131-0.189-0.262-0.377-0.389-0.568c-0.21-0.316-0.413-0.638-0.615-0.959c-0.147-0.234-0.296-0.466-0.437-0.702   c-0.16-0.267-0.312-0.539-0.466-0.81c-0.168-0.296-0.34-0.59-0.501-0.89c-0.09-0.166-0.172-0.337-0.259-0.505   c-1.288-2.488-2.321-5.098-3.076-7.792c-0.026-0.093-0.054-0.186-0.08-0.279c-0.127-0.469-0.244-0.941-0.355-1.415   c-0.036-0.152-0.072-0.304-0.106-0.457c-0.097-0.435-0.184-0.871-0.268-1.309c-0.039-0.207-0.076-0.415-0.111-0.624   c-0.069-0.398-0.133-0.796-0.189-1.197c-0.038-0.27-0.071-0.543-0.104-0.814c-0.043-0.351-0.085-0.702-0.119-1.054   c-0.035-0.361-0.058-0.726-0.083-1.091c-0.018-0.275-0.042-0.55-0.056-0.826c-0.031-0.651-0.05-1.305-0.05-1.963   c0-22.599,18.385-40.985,40.982-40.985c22.598,0,40.984,18.386,40.984,40.985c0,0.658-0.019,1.312-0.05,1.963   c-0.013,0.276-0.037,0.551-0.056,0.826c-0.025,0.365-0.049,0.728-0.083,1.091c-0.033,0.353-0.077,0.703-0.119,1.054   c-0.032,0.272-0.066,0.544-0.104,0.814c-0.057,0.4-0.121,0.8-0.189,1.197c-0.036,0.208-0.072,0.416-0.111,0.624   c-0.082,0.438-0.17,0.874-0.268,1.308c-0.035,0.154-0.07,0.306-0.107,0.46c-0.111,0.473-0.227,0.944-0.355,1.413   c-0.026,0.095-0.054,0.188-0.08,0.282c-0.145,0.516-0.296,1.029-0.46,1.54c-0.001,0.004-0.003,0.01-0.004,0.014   c-0.689,2.133-1.561,4.204-2.592,6.199c-0.095,0.182-0.185,0.368-0.282,0.549c-0.154,0.289-0.32,0.573-0.482,0.858   c-0.161,0.283-0.319,0.566-0.487,0.845c-0.136,0.227-0.278,0.449-0.419,0.673c-0.208,0.332-0.418,0.665-0.635,0.99   c-0.121,0.181-0.245,0.359-0.369,0.537c-0.25,0.361-0.503,0.721-0.764,1.074c-0.11,0.149-0.223,0.297-0.336,0.446   c-0.284,0.373-0.574,0.743-0.871,1.107c-0.105,0.128-0.21,0.256-0.316,0.383C433.341,437.69,422.038,443.427,409.418,443.427z"/>
	<path style="fill:#231F20;" d="M91.785,377.494c-13.757,0-24.948,11.192-24.948,24.949c0,13.756,11.191,24.947,24.948,24.947   c13.756,0,24.948-11.191,24.948-24.947C116.734,388.686,105.542,377.494,91.785,377.494z M91.785,411.205   c-4.833,0-8.763-3.931-8.763-8.762c0-4.833,3.931-8.765,8.763-8.765c4.832,0,8.763,3.932,8.763,8.765   C100.549,407.275,96.618,411.205,91.785,411.205z"/>
	<path style="fill:#231F20;" d="M409.418,377.494c-13.756,0-24.947,11.192-24.947,24.949c0,13.756,11.191,24.947,24.947,24.947   c13.757,0,24.949-11.191,24.949-24.947C434.367,388.686,423.175,377.494,409.418,377.494z M409.418,411.205   c-4.832,0-8.762-3.931-8.762-8.762c0-4.833,3.931-8.765,8.762-8.765c4.833,0,8.765,3.932,8.765,8.765   C418.183,407.275,414.251,411.205,409.418,411.205z"/>
</g>
<g>
</g>
<g>
</g>
<g>
</g>
<g>
</g>
<g>
</g>
<g>
</g>
<g>
</g>
<g>
</g>
<g>
</g>
<g>
</g>
<g>
</g>
<g>
</g>
<g>
</g>
<g>
</g>
<g>
</g>
</svg>
