<svg height="512pt" viewBox="0 0 512.00028 512" width="512pt" xmlns="http://www.w3.org/2000/svg"><g fill-rule="evenodd"><path d="m34.976562 413.773438-24.769531 51.863281c-1.785156 3.710937-2.636719 7.652343-2.636719 11.558593v.085938c0 10.117188 5.695313 19.867188 15.417969 24.515625 13.460938 6.433594 29.726563.679687 36.160157-12.78125l31.683593-66.34375-22.304687-26.15625zm0 0" fill="#fcc368"/><path d="m325.539062 422.671875 31.710938 66.34375c6.433594 13.460937 22.703125 19.210937 36.164062 12.78125 13.460938-6.433594 19.210938-22.730469 12.78125-36.164063l-24.769531-51.859374-32.195312-17.257813zm0 0" fill="#fcc368"/><path d="m19.898438 382.429688c0 12.640624 5.894531 23.949218 15.078124 31.34375 6.886719 5.554687 15.640626 8.898437 25.164063 8.898437h296.121094c9.492187 0 18.25-3.34375 25.164062-8.898437 9.179688-7.398438 15.074219-18.703126 15.074219-31.34375 0-22.132813-18.105469-40.214844-40.238281-40.214844h-19.386719c-82.269531 0-175.109375 0-257.351562 0h-19.382813c-22.132813.003906-40.242187 18.082031-40.242187 40.214844zm0 0" fill="#ffdda6"/><path d="m396.5 382.429688c0-22.132813-18.105469-40.214844-40.238281-40.214844h-27.378907c22.132813 0 40.242188 18.082031 40.242188 40.214844 0 7.851562-2.292969 15.191406-6.207031 21.394531-2.40625 3.800781-5.410157 7.144531-8.867188 9.949219-6.914062 5.554687-15.671875 8.898437-25.164062 8.898437h27.375c9.492187 0 18.25-3.34375 25.164062-8.898437h-.027343c8.105468-6.519532 13.628906-16.066407 14.847656-26.867188.171875-1.472656.253906-2.972656.253906-4.476562zm0 0" fill="#fcc368"/><path d="m406.195312 465.636719-24.769531-51.863281c-6.914062 5.554687-15.671875 8.898437-25.164062 8.898437l35.621093 79.804687c.511719-.226562 1.019532-.453124 1.53125-.679687 13.460938-6.433594 19.210938-22.730469 12.78125-36.160156zm0 0" fill="#eda93b"/><path d="m59.148438 489.015625 31.65625-66.285156.027343-.058594h-30.691406c-.621094 0-1.21875-.027344-1.839844-.058594l-35.3125 79.183594c13.460938 6.433594 29.726563.679687 36.160157-12.78125zm0 0" fill="#eda93b"/><path d="m442.667969 37.796875c-21.511719 7.792969-37.324219 31.3125-51.605469 59.058594 18.023438 35.761719 71.160156 16.777343 85.78125-4.933594 21.851562-23.007813-4.25-64.980469-34.175781-54.125zm0 0" fill="#64b0d9"/><path d="m434.5625 107.226562c-12.382812 5.160157-25.023438 17.742188-26.78125 35.820313 28.734375 12.160156 55.941406 20.121094 77.453125 12.328125 29.953125-10.851562 23.125-59.792969-8.390625-63.449219l-25.957031 9.378907zm0 0" fill="#4a83c9"/><path d="m208.1875 7.558594c-103.980469 0-188.289062 83.289062-188.289062 186.046875 0 60.703125 29.445312 114.632812 74.988281 148.613281 31.539062 23.492188 70.761719 37.433594 113.300781 37.433594 42.535156 0 81.785156-13.941406 113.328125-37.433594 45.542969-33.980469 74.984375-87.910156 74.984375-148.613281 0-102.757813-84.308594-186.046875-188.3125-186.046875zm0 0" fill="#64b0d9"/><path d="m208.1875 52.957031c-78.585938 0-142.324219 62.96875-142.324219 140.648438 0 77.648437 63.738281 140.621093 142.324219 140.621093 78.613281 0 142.347656-62.972656 142.347656-140.621093 0-77.679688-63.734375-140.648438-142.347656-140.648438zm0 0" fill="#e6e6e6"/><path d="m208.1875 101.21875c-51.636719 0-93.492188 41.347656-93.492188 92.386719 0 51.011719 41.855469 92.359375 93.492188 92.359375 51.632812 0 93.492188-41.347656 93.492188-92.359375 0-51.039063-41.859376-92.386719-93.492188-92.386719zm0 0" fill="#64b0d9"/><path d="m208.1875 153.5625c-22.363281 0-40.5 17.9375-40.5 40.042969s18.136719 40.015625 40.5 40.015625c22.386719 0 40.523438-17.910156 40.523438-40.015625s-18.136719-40.042969-40.523438-40.042969zm0 0" fill="#f78411"/><path d="m253.585938 172.777344c-13.773438-38.003906 167.203124-103.523438 180.976562-65.550782 13.742188 37.972657-167.234375 103.523438-180.976562 65.550782zm0 0" fill="#f78411"/><path d="m325.878906 114.480469c-8.925781 3.488281-17.625 7.3125-25.730468 11.335937l18.644531 53.335938c9.695312-2.265625 19.8125-5.214844 29.84375-8.644532 4.335937-1.472656 8.699219-3.058593 12.976562-4.730468l-20.574219-56.820313c-5.097656 1.726563-10.171874 3.570313-15.160156 5.523438zm0 0" fill="#ffdda6"/><path d="m325.878906 114.480469c-10.9375-15.867188-25.078125-29.414063-41.515625-39.703125 8.53125 14.964844 15.386719 31.375 20.289063 48.859375 6.773437-3.230469 13.914062-6.320313 21.226562-9.15625zm0 0" fill="#c2c7cc"/><path d="m371.222656 100.425781c-30.691406-52.285156-86.378906-88.449219-150.90625-92.5 25.84375 15.417969 47.921875 38.542969 64.046875 66.851563 16.4375 10.289062 30.578125 23.832031 41.515625 39.703125 4.988282-1.953125 10.058594-3.796875 15.160156-5.523438 10.175782-3.429687 20.40625-6.320312 30.183594-8.53125zm0 0" fill="#4a83c9"/><path d="m396.5 193.605469c0-14.226563-1.613281-28.085938-4.675781-41.375-9.351563 4.84375-19.609375 9.4375-30.207031 13.546875-4.28125 1.671875-8.644532 3.257812-12.980469 4.730468 1.246093 7.511719 1.898437 15.191407 1.898437 23.042969v.054688c0 26.582031-7.480468 51.4375-20.433594 72.632812-.082031.113281-.167968.257813-.226562.371094-6.460938 10.457031-14.226562 20.035156-23.125 28.453125-10.625 10.085938-22.8125 18.53125-36.1875 24.992188-6.007812 7.992187-12.527344 15.390624-19.5 22.164062-17.171875 16.578125-37.125 29.214844-58.917969 36.753906 5.269531.453125 10.628907.679688 16.039063.679688 42.539062 0 81.789062-13.941406 113.332031-37.433594 45.542969-33.980469 74.984375-87.910156 74.984375-148.613281zm0 0" fill="#4a83c9"/><path d="m350.535156 193.546875c0-7.847656-.652344-15.527344-1.898437-23.039063-.027344 0-.027344 0-.027344 0-10.035156 3.429688-20.121094 6.375-29.816406 8.644532-1.898438.453125-3.796875.851562-5.667969 1.246094.058594 2.15625.085938 4.308593.085938 6.492187 0 51.121094-16.125 97.796875-42.648438 133.164063 13.375-6.460938 25.558594-14.90625 36.1875-24.992188 8.898438-8.417969 16.664062-17.996094 23.125-28.453125l.226562-.371094c.113282-.195312.226563-.367187.339844-.566406 12.753906-21.082031 20.09375-45.738281 20.09375-72.066406 0-.027344 0-.027344 0-.058594zm0 0" fill="#c2c7cc"/><path d="m434.5625 116.039062c.964844-3.058593 1.019531-6.007812 0-8.8125-1.53125-4.222656-5.128906-7.171874-10.316406-9.011718-2.605469 5.183594-7.625 10.570312-14.367188 15.953125-6.746094 5.355469-15.191406 10.714843-24.683594 15.785156-9.609374 5.128906-20.292968 10.003906-31.34375 14.339844l7.765626 21.480469c10.597656-4.105469 20.855468-8.699219 30.207031-13.542969 0 0 0 0 0-.03125 5.726562-2.945313 11.082031-6.035157 15.957031-9.152344 14.054688-8.984375 24.058594-18.390625 26.78125-27.007813zm0 0" fill="#f74311"/><path d="m361.617188 165.777344-7.765626-21.480469c-3.601562 1.386719-7.226562 2.746094-10.855468 4.050781-10.597656 3.742188-21.339844 6.972656-31.652344 9.4375l7.449219 21.367188c9.695312-2.265625 19.78125-5.214844 29.816406-8.644532h.027344c4.335937-1.472656 8.699219-3.058593 12.980469-4.730468zm0 0" fill="#fcc368"/><path d="m318.792969 179.152344-7.449219-21.367188c-5.359375 1.273438-10.601562 2.351563-15.644531 3.199219-16.804688 2.863281-31.398438 3.148437-40.808594-.195313-2.125 4.164063-2.664063 8.21875-1.304687 11.988282 4.109374 11.335937 23.125 13.460937 47.441406 9.804687 3.910156-.566406 7.960937-1.304687 12.097656-2.183593 1.871094-.394532 3.769531-.792969 5.667969-1.246094zm0 0" fill="#f74311"/></g><path d="m511.6875 120.789062c-1.53125-13.113281-9.054688-27.019531-22.703125-33.265624 6.484375-13.558594 3.34375-29.078126-3.898437-40.136719-10.445313-15.960938-28.53125-22.667969-44.992188-16.695313-24.285156 8.796875-40.90625 34.425782-53.9375 59.222656-3.640625.539063-7.40625 1.199219-11.28125 1.984376-16.761719-26.777344-39.988281-49.269532-67.46875-65.257813-29.957031-17.429687-64.265625-26.640625-99.21875-26.640625-107.992188 0-195.84375 86.851562-195.84375 193.605469 0 55.558593 23.800781 105.714843 61.84375 141.054687h-14.046875c-26.355469 0-47.796875 21.429688-47.796875 47.769532 0 12.847656 5.113281 24.523437 13.40625 33.125l-22.359375 46.816406c-3.984375 8.320312-4.472656 17.726562-1.378906 26.484375 3.09375 8.761719 9.386719 15.777343 17.71875 19.757812 4.804687 2.296875 9.886719 3.386719 14.890625 3.386719 12.949218 0 25.398437-7.285156 31.347656-19.730469l29.601562-61.984375 102.457032.171875h.011718c4.167969 0 7.550782-3.378906 7.558594-7.546875.007813-4.171875-3.371094-7.5625-7.542968-7.570312l-106.386719-.171875c-.546875-.0625-1.09375-.0625-1.632813-.003907l-29.882812-.050781c-7.691406-.007812-14.761719-2.6875-20.351563-7.148437-.125-.101563-.25-.203125-.382812-.300782-7.296875-6-11.960938-15.089843-11.960938-25.234374 0-18.007813 14.664063-32.65625 32.6875-32.65625h32.433594c32.421875 23.519531 72.402344 37.4375 115.609375 37.4375 43.21875 0 83.199219-13.917969 115.628906-37.4375h32.445313c18.023437 0 32.6875 14.648437 32.6875 32.65625 0 10.148437-4.664063 19.234374-11.960938 25.234374-.132812.09375-.257812.195313-.378906.300782-5.589844 4.460937-12.667969 7.140625-20.359375 7.148437l-29.859375.054688c-.574219-.0625-1.15625-.066407-1.738281.003906l-92.019532.167969c-4.175781.007812-7.550781 3.398437-7.542968 7.574218.007812 4.167969 3.390625 7.542969 7.558594 7.542969h.011718l88.152344-.164062 29.625 61.980469c5.945312 12.445312 18.390625 19.726562 31.339844 19.726562 5.003906 0 10.085937-1.085938 14.894531-3.386719 8.328125-3.980469 14.621094-10.996093 17.71875-19.757812 3.09375-8.757813 2.601563-18.164063-1.378906-26.476563l-22.363281-46.824218c8.292968-8.601563 13.410156-20.277344 13.410156-33.125 0-26.339844-21.445313-47.773438-47.800782-47.773438h-14.054687c38.046875-35.339844 61.855469-85.496094 61.855469-141.054688 0-12.585937-1.234375-25.144531-3.660156-37.414062 2.796874-1.546875 5.484374-3.105469 8.050781-4.671875 18.585937 7.679687 38.863281 14.507813 57.792969 14.503906 7.457031 0 14.710937-1.058593 21.566406-3.542969 16.492187-5.972656 26.085937-22.726562 23.878906-41.6875zm-432.855469 309.472657-26.503906 55.496093c-4.652344 9.730469-16.351563 13.871094-26.082031 9.21875-4.6875-2.242187-8.234375-6.203124-9.984375-11.152343s-1.480469-10.25.761719-14.933594l21.058593-44.09375c6.601563 3.453125 14.097657 5.421875 22.042969 5.433594zm321.308594 53.5625c-1.75 4.949219-5.296875 8.914062-9.984375 11.152343-9.734375 4.652344-21.433594.515626-26.085938-9.21875l-26.527343-55.492187 18.726562-.035156c7.949219-.011719 15.441407-1.980469 22.042969-5.433594l21.0625 44.101563c2.242188 4.675781 2.511719 9.976562.765625 14.925781zm45.101563-438.925781c12.019531-4.359376 22.164062 3.074218 27.199218 10.765624 5.515625 8.425782 7.492188 20.691407.011719 29.8125l-34.707031 12.558594c-6.09375-6.886718-17.300782-10.164062-33.476563-9.78125 10.527344-18.578125 24.046875-37.222656 40.972657-43.355468zm-237.054688 327.199218c-99.65625 0-180.730469-80.074218-180.730469-178.492187 0-98.421875 81.074219-178.492188 180.730469-178.492188 60.8125 0 117.765625 30.59375 151.058594 80.464844-6.683594 1.773437-13.554688 3.847656-20.523438 6.191406-.082031.027344-.167968.046875-.253906.078125-.035156.015625-.070312.03125-.105469.046875-2.433593.820313-4.871093 1.667969-7.320312 2.554688-.820313.296875-1.628907.601562-2.441407.90625-28.265624-37.644531-72.828124-59.957031-120.414062-59.957031-82.644531 0-149.878906 66.488281-149.878906 148.207031 0 81.703125 67.234375 148.175781 149.878906 148.175781 38.890625 0 75.742188-14.644531 103.765625-41.238281 3.027344-2.875 3.152344-7.65625.277344-10.6875-2.871094-3.023438-7.65625-3.148438-10.683594-.277344-25.203125 23.917969-58.359375 37.089844-93.363281 37.089844-74.308594 0-134.761719-59.691407-134.761719-133.0625 0-73.386719 60.453125-133.089844 134.761719-133.089844 41.421875 0 80.289062 18.769531 105.789062 50.636719-11.328125 4.796875-21.796875 9.984375-30.929687 15.308594-19.171875-20.917969-46.09375-32.796876-74.859375-32.796876-55.71875 0-101.046875 44.832032-101.046875 99.941407 0 55.09375 45.328125 99.914062 101.046875 99.914062s101.050781-44.820312 101.050781-99.914062c0-1.582031-.046875-3.148438-.121094-4.71875 10.324219-1.894531 21.523438-4.699219 33.203125-8.359375.433594 4.378906.660156 8.753906.660156 13.078125 0 24.390625-6.753906 48.265625-19.539062 69.042969-2.1875 3.554687-1.078125 8.210937 2.476562 10.398437 1.238282.757813 2.605469 1.121094 3.953126 1.121094 2.539062 0 5.019531-1.277344 6.445312-3.597657 14.25-23.164062 21.78125-49.773437 21.78125-76.964843 0-5.957031-.378906-11.996094-1.121094-18.023438 2.421875-.875 4.8125-1.773437 7.167969-2.683593.015625-.007813.03125-.007813.046875-.015626.042969-.015624.082031-.035156.125-.050781 7.753906-3 15.136719-6.175781 22.046875-9.460937 1.714844 9.949218 2.585937 20.078125 2.585937 30.234375 0 98.417969-81.089843 178.492187-180.757812 178.492187zm143.777344-210.777344c-.054688.019532-.109375.039063-.167969.0625-1.921875.691407-20.988281 6.921876-28.136719 8.785157l-14.144531-40.457031c6.046875-2.839844 24.21875-10.160157 26.679687-11.050782.09375-.035156.191407-.066406.285157-.101562zm-152.699219 31.117188c1.113281 3.074219 4.015625 4.984375 7.105469 4.984375.855468 0 1.722656-.144531 2.574218-.453125l31.210938-11.296875c.648438 2.542969 1 5.195313 1 7.933594 0 17.894531-14.792969 32.457031-32.96875 32.457031-18.164062 0-32.941406-14.5625-32.941406-32.457031 0-17.914063 14.777344-32.488281 32.941406-32.488281 9.863281 0 18.726562 4.296874 24.773438 11.085937l-29.160157 10.554687c-3.925781 1.421876-5.953125 5.753907-4.535156 9.679688zm8.921875-46.433594c-26.5 0-48.054688 21.355469-48.054688 47.601563 0 26.230469 21.554688 47.570312 48.054688 47.570312 26.511719 0 48.082031-21.339843 48.082031-47.570312 0-2.507813-.199219-4.972657-.582031-7.375 3.1875 1.9375 7.34375 3.554687 12.769531 4.519531 3.804688.679688 8.113281 1.007812 12.859375 1.007812 3.964844 0 8.246094-.242187 12.765625-.699218.027344.847656.039063 1.695312.039063 2.546875 0 46.757812-38.550782 84.800781-85.933594 84.800781-47.386719 0-85.9375-38.042969-85.9375-84.800781 0-46.773438 38.550781-84.828125 85.9375-84.828125 23.597656 0 45.734375 9.375 61.910156 25.976562-.136718.097656-.285156.191406-.417968.292969-2.332032 1.664063-9.941407 7.949219-9.953126 7.960937-7.902343 7.171876-12.582031 14.148438-14.019531 20.882813-8.816406-10.890625-22.355469-17.886719-37.519531-17.886719zm52.503906 24.203125c0-.003906 0-.007812 0-.007812-.46875-1.152344-.207031-2.484375-.203125-2.515625.699219-5.175782 7.402344-13.953125 25.035157-25.039063.027343-.015625.050781-.039062.078124-.054687 3.203126-2.007813 6.648438-4.019532 10.304688-6.007813l12.929688 36.992188c-2.90625.570312-39.335938 9.1875-48.144532-3.367188zm143.011719-33.519531c-.023437.015625-.050781.03125-.078125.046875-4.484375 2.867187-9.464844 5.738281-14.871094 8.5625-.28125.125-.550781.265625-.808594.421875-6.726562 3.480469-14.078124 6.890625-21.886718 10.128906l-15.242188-42.097656c17.710938-5.492188 34.738282-9.09375 48.234375-10.105469 2.808594-.210937 5.382813-.308593 7.730469-.308593 13.355469 0 19.46875 3.148437 20.671875 6.464843 1.222656 3.371094-1.710937 7.859375-4.382813 11.035157-4.238281 5.03125-10.902343 10.433593-19.367187 15.851562zm78.953125 11.582031c-16.953125 6.140625-38.632812.746094-59.253906-7.074219 4.511718-3.582031 8.300781-7.144531 11.230468-10.625 5.960938-7.078124 8.007813-13.277343 8.203126-18.300781l34.765624-12.582031c11.570313 2.199219 17.90625 12.863281 19.070313 22.855469 1.066406 9.136719-1.964844 21.359375-14.015625 25.726562zm0 0"/></svg>