<svg id="Capa_1" enable-background="new 0 0 497 497" height="512" viewBox="0 0 497 497" width="512" xmlns="http://www.w3.org/2000/svg"><g><g fill="#fff0a3"><path d="m178.66 9.955 15.72 43.975-104.93 84.44-46.2-30c32.03-46.82 79.66-82.125 135.41-98.415z"/><path d="m318.34 9.955-69.84 105.095 128.395 93.282 76.855-99.962c-32.03-46.82-79.66-82.125-135.41-98.415z"/><path d="m496.89 241.24h-96.7v159.14h45c32.48-42 51.81-94.68 51.81-151.88 0-2.43-.03-4.85-.11-7.26z"/></g><path d="m428.97 108.37c-26.32-43.75-64.61-77.45-109.51-94.97l-155.08 40.53-74.93 54.44-89.34 132.87c-.08 2.41-.11 4.83-.11 7.26 0 57.2 19.33 109.88 51.81 151.88l150.38 54.98h92.62l142-80.76c17.12-32.99 27.73-70.88 29.81-111.37z" fill="#fff9d9"/><path d="m407.55 108.37 27.16 79.621-102.09 33.179h-84.12v-167.24h84.12z" fill="#fff0a3"/><path d="m37.46 268.38 24.827-80.378 102.095 33.164 68.054 49.445-98.301 135.299-68.055-49.444z" fill="#fff0a3"/><path d="m430.921 356.463-67.331 50.434-63.103-86.84-25.995-80.003 159.055-51.68 25.995 80.003z" fill="#fff"/><path d="m332.21 452.535-83.71 44.465c29.37 0 57.55-5.105 83.71-14.465z" fill="#f9e167"/><path d="m328.48 455.36v24.46c-24.77 11.09-51.75 17.18-79.98 17.18-29.37 0-57.55-5.105-83.71-14.465v-27.175z" fill="#fff0a3"/><path d="m251.32.02c-.94-.01-1.88-.02-2.82-.02.94 0 1.88.01 2.82.02z" fill="#373e42"/><path d="m89.45 108.37 32.13 98.89-84.12 61.12-37.35-27.14c1.41-49.21 17.13-94.84 43.14-132.87z" fill="#475055"/><path d="m318.34 9.955 1.12 3.445-68.14-13.38c23.25.25 45.72 3.705 67.02 9.935z" fill="#373e42"/><path d="m319.46 13.4 13.16 40.53-84.12 61.12-84.12-61.12 14.28-43.975c22.16-6.48 45.59-9.955 69.84-9.955.94 0 1.88.01 2.82.02 23.83.34 46.73 5.02 68.14 13.38z" fill="#475055"/><path d="m453.75 108.37h-24.78l37.65 154.86 30.27-21.99c-1.41-49.21-17.13-94.84-43.14-132.87z" fill="#373e42"/><path d="m467 248.5c0 4.94-.13 9.86-.38 14.73l-7.08 5.15-84.12-61.12 32.13-98.89h21.42c23.99 39.9 38.03 88.15 38.03 140.13z" fill="#475055"/><path d="m436.81 374.6-108.33 105.22 3.73 2.715c45.12-16.13 84.21-44.945 112.98-82.155z" fill="#373e42"/><path d="m430.92 356.47 5.89 18.13c-24.62 47.47-62.73 84.82-108.33 105.22l-33.67-24.46 32.13-98.9z" fill="#475055"/><path d="m332.62 221.17-32.13 98.89h-103.98l-32.13-98.89 84.12-61.12z" fill="#475055"/><path d="m170.06 356.46 32.13 98.9-37.4 27.175c-45.12-16.13-84.21-44.945-112.98-82.155l14.27-43.91z" fill="#475055"/></g></svg>