<?xml version="1.0" encoding="UTF-8" standalone="no"?>
<!-- Created with Inkscape (http://www.inkscape.org/) -->

<svg
   version="1.1"
   id="svg135"
   xml:space="preserve"
   width="682.66669"
   height="682.66669"
   viewBox="0 0 682.66669 682.66669"
   xmlns="http://www.w3.org/2000/svg"
   xmlns:svg="http://www.w3.org/2000/svg"><defs
     id="defs139"><clipPath
       clipPathUnits="userSpaceOnUse"
       id="clipPath149"><path
         d="M 0,512 H 512 V 0 H 0 Z"
         id="path147" /></clipPath></defs><g
     id="g141"
     transform="matrix(1.3333333,0,0,-1.3333333,0,682.66667)"><g
       id="g143"><g
         id="g145"
         clip-path="url(#clipPath149)"><g
           id="g151"
           transform="translate(186.1602,494.5449)"><path
             d="m 0,0 15.72,-43.975 -104.93,-84.44 -46.2,30 C -103.38,-51.595 -55.75,-16.29 0,0"
             style="fill:#fff0a3;fill-opacity:1;fill-rule:nonzero;stroke:none"
             id="path153" /></g><g
           id="g155"
           transform="translate(325.8398,494.5449)"><path
             d="m 0,0 -69.84,-105.095 128.395,-93.282 76.855,99.962 C 103.38,-51.595 55.75,-16.29 0,0"
             style="fill:#fff0a3;fill-opacity:1;fill-rule:nonzero;stroke:none"
             id="path157" /></g><g
           id="g159"
           transform="translate(504.3901,263.2603)"><path
             d="m 0,0 h -96.7 v -159.14 h 45 c 32.48,42 51.81,94.68 51.81,151.88 C 0.11,-4.83 0.08,-2.41 0,0"
             style="fill:#fff0a3;fill-opacity:1;fill-rule:nonzero;stroke:none"
             id="path161" /></g><g
           id="g163"
           transform="translate(436.4697,396.1299)"><path
             d="M 0,0 C -26.32,43.75 -64.61,77.45 -109.51,94.97 L -264.59,54.44 -339.52,0 -428.86,-132.87 c -0.079,-2.41 -0.11,-4.83 -0.11,-7.26 0,-57.2 19.33,-109.88 51.81,-151.88 l 150.38,-54.98 h 92.62 l 142,80.76 c 17.12,32.99 27.73,70.88 29.81,111.37 z"
             style="fill:#fff9d9;fill-opacity:1;fill-rule:nonzero;stroke:none"
             id="path165" /></g><g
           id="g167"
           transform="translate(415.0498,396.1299)"><path
             d="M 0,0 27.16,-79.621 -74.93,-112.8 h -84.12 V 54.44 h 84.12 z"
             style="fill:#fff0a3;fill-opacity:1;fill-rule:nonzero;stroke:none"
             id="path169" /></g><g
           id="g171"
           transform="translate(44.9595,236.1196)"><path
             d="M 0,0 24.828,80.378 126.922,47.214 194.977,-2.23 96.675,-137.53 28.621,-88.085 Z"
             style="fill:#fff0a3;fill-opacity:1;fill-rule:nonzero;stroke:none"
             id="path173" /></g><g
           id="g175"
           transform="translate(438.4209,148.0371)"><path
             d="m 0,0 -67.332,-50.435 -63.102,86.841 -25.994,80.002 159.054,51.68 25.995,-80.003 z"
             style="fill:#ffffff;fill-opacity:1;fill-rule:nonzero;stroke:none"
             id="path177" /></g><g
           id="g179"
           transform="translate(339.71,51.9648)"><path
             d="m 0,0 -83.71,-44.465 c 29.37,0 57.55,5.105 83.71,14.465 z"
             style="fill:#f9e167;fill-opacity:1;fill-rule:nonzero;stroke:none"
             id="path181" /></g><g
           id="g183"
           transform="translate(335.98,49.1401)"><path
             d="m 0,0 v -24.46 c -24.77,-11.09 -51.75,-17.18 -79.98,-17.18 -29.37,0 -57.55,5.105 -83.71,14.465 V 0 Z"
             style="fill:#fff0a3;fill-opacity:1;fill-rule:nonzero;stroke:none"
             id="path185" /></g><g
           id="g187"
           transform="translate(258.8198,504.48)"><path
             d="M 0,0 C -0.94,0.01 -1.88,0.02 -2.82,0.02 -1.88,0.02 -0.94,0.01 0,0"
             style="fill:#373e42;fill-opacity:1;fill-rule:nonzero;stroke:none"
             id="path189" /></g><g
           id="g191"
           transform="translate(96.9502,396.1299)"><path
             d="m 0,0 32.13,-98.89 -84.12,-61.12 -37.35,27.14 c 1.41,49.21 17.13,94.84 43.14,132.87 z"
             style="fill:#475055;fill-opacity:1;fill-rule:nonzero;stroke:none"
             id="path193" /></g><g
           id="g195"
           transform="translate(325.8398,494.5449)"><path
             d="M 0,0 1.12,-3.445 -67.02,9.935 C -43.77,9.685 -21.3,6.23 0,0"
             style="fill:#373e42;fill-opacity:1;fill-rule:nonzero;stroke:none"
             id="path197" /></g><g
           id="g199"
           transform="translate(326.96,491.1001)"><path
             d="m 0,0 13.16,-40.53 -84.12,-61.12 -84.12,61.12 14.28,43.975 c 22.16,6.48 45.59,9.955 69.84,9.955 0.94,0 1.88,-0.01 2.82,-0.02 C -44.31,13.04 -21.41,8.36 0,0"
             style="fill:#475055;fill-opacity:1;fill-rule:nonzero;stroke:none"
             id="path201" /></g><g
           id="g203"
           transform="translate(461.25,396.1299)"><path
             d="m 0,0 h -24.78 l 37.65,-154.86 30.27,21.99 C 41.73,-83.66 26.01,-38.03 0,0"
             style="fill:#373e42;fill-opacity:1;fill-rule:nonzero;stroke:none"
             id="path205" /></g><g
           id="g207"
           transform="translate(474.5,256)"><path
             d="m 0,0 c 0,-4.94 -0.13,-9.86 -0.38,-14.73 l -7.08,-5.15 -84.12,61.12 32.13,98.89 h 21.42 C -14.04,100.23 0,51.98 0,0"
             style="fill:#475055;fill-opacity:1;fill-rule:nonzero;stroke:none"
             id="path209" /></g><g
           id="g211"
           transform="translate(444.3101,129.8999)"><path
             d="m 0,0 -108.33,-105.22 3.73,-2.715 c 45.12,16.13 84.21,44.945 112.98,82.155 z"
             style="fill:#373e42;fill-opacity:1;fill-rule:nonzero;stroke:none"
             id="path213" /></g><g
           id="g215"
           transform="translate(438.4199,148.0298)"><path
             d="m 0,0 5.89,-18.13 c -24.62,-47.47 -62.73,-84.82 -108.33,-105.22 l -33.67,24.46 32.13,98.9 z"
             style="fill:#475055;fill-opacity:1;fill-rule:nonzero;stroke:none"
             id="path217" /></g><g
           id="g219"
           transform="translate(340.1201,283.3301)"><path
             d="M 0,0 -32.13,-98.89 H -136.11 L -168.24,0 -84.12,61.12 Z"
             style="fill:#475055;fill-opacity:1;fill-rule:nonzero;stroke:none"
             id="path221" /></g><g
           id="g223"
           transform="translate(177.5601,148.04)"><path
             d="m 0,0 32.13,-98.9 -37.4,-27.175 c -45.12,16.13 -84.21,44.945 -112.98,82.155 l 14.27,43.91 z"
             style="fill:#475055;fill-opacity:1;fill-rule:nonzero;stroke:none"
             id="path225" /></g><g
           id="g227"
           transform="translate(504.5,256)"><path
             d="m 0,0 c 0,-137.243 -111.257,-248.5 -248.5,-248.5 -137.243,0 -248.5,111.257 -248.5,248.5 0,137.243 111.257,248.5 248.5,248.5 C -111.257,248.5 0,137.243 0,0 Z"
             style="fill:none;stroke:#000000;stroke-width:15;stroke-linecap:round;stroke-linejoin:round;stroke-miterlimit:10;stroke-dasharray:none;stroke-opacity:1"
             id="path229" /></g><g
           id="g231"
           transform="translate(204.0098,184.4414)"><path
             d="M 0,0 -32.132,98.892 51.99,160.01 136.112,98.892 103.98,0 Z"
             style="fill:none;stroke:#000000;stroke-width:15;stroke-linecap:round;stroke-linejoin:round;stroke-miterlimit:10;stroke-dasharray:none;stroke-opacity:1"
             id="path233" /></g><g
           id="g235"
           transform="translate(186.1631,494.5356)"><path
             d="m 0,0 -14.285,-43.965 84.122,-61.119 84.122,61.119 L 139.674,0"
             style="fill:none;stroke:#000000;stroke-width:15;stroke-linecap:round;stroke-linejoin:round;stroke-miterlimit:10;stroke-dasharray:none;stroke-opacity:1"
             id="path237" /></g><g
           id="g239"
           transform="translate(256,389.4517)"><path
             d="M 0,0 V -45"
             style="fill:none;stroke:#000000;stroke-width:15;stroke-linecap:round;stroke-linejoin:round;stroke-miterlimit:10;stroke-dasharray:none;stroke-opacity:1"
             id="path241" /></g><g
           id="g243"
           transform="translate(7.5586,263.293)"><path
             d="M 0,0 37.399,-27.172 67.325,-5.43"
             style="fill:none;stroke:#000000;stroke-width:15;stroke-linecap:round;stroke-linejoin:round;stroke-miterlimit:10;stroke-dasharray:none;stroke-opacity:1"
             id="path245" /></g><g
           id="g247"
           transform="translate(99.1538,275.4966)"><path
             d="M 0,0 29.926,21.742 -2.206,120.634 H -48.434"
             style="fill:none;stroke:#000000;stroke-width:15;stroke-linecap:round;stroke-linejoin:round;stroke-miterlimit:10;stroke-dasharray:none;stroke-opacity:1"
             id="path249" /></g><g
           id="g251"
           transform="translate(129.0801,297.2388)"><path
             d="M 0,0 42.797,-13.906"
             style="fill:none;stroke:#000000;stroke-width:15;stroke-linecap:round;stroke-linejoin:round;stroke-miterlimit:10;stroke-dasharray:none;stroke-opacity:1"
             id="path253" /></g><g
           id="g255"
           transform="translate(172.2915,21.9717)"><path
             d="M 0,0 37.399,27.172 5.268,126.063 H -98.713 l -14.286,-43.965"
             style="fill:none;stroke:#000000;stroke-width:15;stroke-linecap:round;stroke-linejoin:round;stroke-miterlimit:10;stroke-dasharray:none;stroke-opacity:1"
             id="path257" /></g><g
           id="g259"
           transform="translate(177.5591,148.0352)"><path
             d="M 0,0 26.45,36.406"
             style="fill:none;stroke:#000000;stroke-width:15;stroke-linecap:round;stroke-linejoin:round;stroke-miterlimit:10;stroke-dasharray:none;stroke-opacity:1"
             id="path261" /></g><g
           id="g263"
           transform="translate(452.707,104.0698)"><path
             d="m 0,0 -14.285,43.965 h -103.981 l -32.131,-98.891 37.398,-27.172"
             style="fill:none;stroke:#000000;stroke-width:15;stroke-linecap:round;stroke-linejoin:round;stroke-miterlimit:10;stroke-dasharray:none;stroke-opacity:1"
             id="path265" /></g><g
           id="g267"
           transform="translate(334.4409,148.0352)"><path
             d="M 0,0 -26.45,36.406"
             style="fill:none;stroke:#000000;stroke-width:15;stroke-linecap:round;stroke-linejoin:round;stroke-miterlimit:10;stroke-dasharray:none;stroke-opacity:1"
             id="path269" /></g><g
           id="g271"
           transform="translate(461.2798,396.1304)"><path
             d="M 0,0 H -46.228 L -78.36,-98.892 5.763,-160.01 43.162,-132.838"
             style="fill:none;stroke:#000000;stroke-width:15;stroke-linecap:round;stroke-linejoin:round;stroke-miterlimit:10;stroke-dasharray:none;stroke-opacity:1"
             id="path273" /></g><g
           id="g275"
           transform="translate(382.9199,297.2388)"><path
             d="M 0,0 -42.797,-13.906"
             style="fill:none;stroke:#000000;stroke-width:15;stroke-linecap:round;stroke-linejoin:round;stroke-miterlimit:10;stroke-dasharray:none;stroke-opacity:1"
             id="path277" /></g><g
           id="g279"
           transform="translate(171.8779,450.5703)"><path
             d="M 0,0 -74.93,-54.44"
             style="fill:none;stroke:#000000;stroke-width:15;stroke-linecap:round;stroke-linejoin:round;stroke-miterlimit:10;stroke-dasharray:none;stroke-opacity:1"
             id="path281" /></g><g
           id="g283"
           transform="translate(44.9575,236.1206)"><path
             d="M 0,0 28.621,-88.085"
             style="fill:none;stroke:#000000;stroke-width:15;stroke-linecap:round;stroke-linejoin:round;stroke-miterlimit:10;stroke-dasharray:none;stroke-opacity:1"
             id="path285" /></g><g
           id="g287"
           transform="translate(209.6904,49.1436)"><path
             d="M 0,0 H 92.619"
             style="fill:none;stroke:#000000;stroke-width:15;stroke-linecap:round;stroke-linejoin:round;stroke-miterlimit:10;stroke-dasharray:none;stroke-opacity:1"
             id="path289" /></g><g
           id="g291"
           transform="translate(438.4219,148.0352)"><path
             d="M 0,0 28.621,88.085"
             style="fill:none;stroke:#000000;stroke-width:15;stroke-linecap:round;stroke-linejoin:round;stroke-miterlimit:10;stroke-dasharray:none;stroke-opacity:1"
             id="path293" /></g><g
           id="g295"
           transform="translate(415.0522,396.1304)"><path
             d="M 0,0 -74.93,54.44"
             style="fill:none;stroke:#000000;stroke-width:15;stroke-linecap:round;stroke-linejoin:round;stroke-miterlimit:10;stroke-dasharray:none;stroke-opacity:1"
             id="path297" /></g></g></g></g></svg>
