<svg id="Capa_1" enable-background="new 0 0 511.992 511.992" height="512" viewBox="0 0 511.992 511.992" width="512" xmlns="http://www.w3.org/2000/svg"><g><g><g><g><path d="m164.207 212.958h34.965v237.132h-34.965z" fill="#b5adb6" transform="matrix(-1 0 0 -1 363.379 663.048)"/></g></g><g><g><path d="m312.82 138.781h34.965v237.132h-34.965z" fill="#b5adb6"/></g></g><g><g><path d="m233.353 95.335h34.965v237.132h-34.965z" fill="#b5adb6" transform="matrix(-1 0 0 -1 501.67 427.803)"/></g></g><g><g><path d="m415.028 492.127v-148.102c0-15.664-12.698-28.361-28.361-28.361h-261.341c-15.664 0-28.361 12.698-28.361 28.361v148.102c0 6.829 5.536 12.366 12.366 12.366h293.332c6.829 0 12.365-5.537 12.365-12.366z" fill="#22b37f"/></g></g><g><g><path d="m386.666 315.663h-1.638v146.464c0 6.829-5.536 12.366-12.366 12.366h-275.698v17.634c0 6.829 5.536 12.366 12.366 12.366h293.332c6.829 0 12.366-5.536 12.366-12.366v-148.103c0-15.663-12.698-28.361-28.362-28.361z" fill="#09a76d"/></g></g><g><g><path d="m76.357 125.451 78.74 9.696c25.168 3.099 44.075 24.477 44.075 49.835v27.976h-128.182c-24.255 0-43.918-19.663-43.918-43.918-.001-26.385 23.099-46.814 49.285-43.589z" fill="#e2dee2"/></g></g><g><g><path d="m435.635 51.274-78.74 9.696c-25.168 3.099-44.075 24.477-44.075 49.835v27.976h128.182c24.255 0 43.918-19.663 43.918-43.918.001-26.384-23.099-46.814-49.285-43.589z" fill="#e2dee2"/></g></g><g><g><path d="m145.503 7.828 78.74 9.696c25.168 3.099 44.075 24.477 44.075 49.835v27.976h-128.183c-24.255 0-43.918-19.663-43.918-43.918 0-26.385 23.099-46.814 49.286-43.589z" fill="#e2dee2"/></g></g><g><g><path d="m166.135 137.797c1.961 5.378 3.037 11.167 3.037 17.185 0 15.45-12.525 27.976-27.976 27.976h-100.206c-4.232 0-8.318-.611-12.191-1.728 5.285 18.322 22.167 31.728 42.191 31.728h128.182v-27.976c0-21.488-13.579-40.113-33.037-47.185z" fill="#cbc4cc"/></g></g><g><g><path d="m453.204 52.67c1.112 3.862 1.717 7.948 1.717 12.193 0 24.255-19.663 43.918-43.918 43.918h-98.135c-.027.672-.047 1.346-.047 2.025v27.975h128.183c24.255 0 43.918-19.663 43.918-43.918-.001-20.227-13.583-36.94-31.718-42.193z" fill="#cbc4cc"/></g></g><g><g><path d="m235.281 20.175c1.96 5.378 3.037 11.167 3.037 17.185 0 15.45-12.525 27.976-27.976 27.976h-100.207c-4.232 0-8.318-.611-12.19-1.728 5.285 18.322 22.167 31.728 42.19 31.728h128.182v-27.977c.001-21.487-13.578-40.113-33.036-47.184z" fill="#cbc4cc"/></g></g><g><g><path d="m139.914 269.721h223.476c3.419 0 6.191 2.772 6.191 6.191v39.751h-235.858v-39.751c0-3.42 2.772-6.191 6.191-6.191z" fill="#918291"/></g></g><g><g><path d="m359.072 504.493h-206.152v-83.194c0-8.627 6.993-15.62 15.62-15.62h174.912c8.627 0 15.62 6.993 15.62 15.62z" fill="#fed2a4"/></g></g><g><g><path d="m363.39 269.721h-23.809c0 12.671-10.272 22.942-22.942 22.942h-182.916v23h235.858v-39.751c0-3.42-2.772-6.191-6.191-6.191z" fill="#7a6d79"/></g></g><g><g><path d="m152.92 474.492h206.151v30h-206.151z" fill="#ffbd86"/></g></g><g><path d="m77.73 180.18 14.126-14.125" fill="#b5adb6"/></g><g><path d="m119.597 180.18 14.126-14.125" fill="#b5adb6"/></g><g><path d="m153.693 63.606 14.126-14.125" fill="#b5adb6"/></g><g><path d="m195.56 63.606 14.126-14.125" fill="#b5adb6"/></g><g><path d="m423.942 104.606-14.126-14.125" fill="#b5adb6"/></g><g><path d="m382.075 104.606-14.126-14.125" fill="#b5adb6"/></g></g><g><path d="m86.553 160.751-14.126 14.125c-2.93 2.929-2.93 7.677-.001 10.606 1.465 1.465 3.384 2.197 5.304 2.197 1.919 0 3.839-.732 5.303-2.197l14.126-14.125c2.93-2.929 2.93-7.677.001-10.606s-7.678-2.929-10.607 0z"/><path d="m128.421 160.751-14.126 14.125c-2.93 2.929-2.93 7.677-.001 10.606 1.465 1.465 3.384 2.197 5.304 2.197 1.919 0 3.839-.732 5.303-2.197l14.126-14.125c2.93-2.929 2.93-7.677.001-10.606-2.931-2.929-7.68-2.929-10.607 0z"/><path d="m162.516 44.178-14.126 14.125c-2.93 2.929-2.93 7.677-.001 10.606 1.465 1.465 3.384 2.197 5.304 2.197 1.919 0 3.839-.732 5.303-2.197l14.126-14.125c2.93-2.929 2.93-7.677.001-10.606-2.93-2.93-7.679-2.93-10.607 0z"/><path d="m204.383 44.178-14.126 14.125c-2.93 2.929-2.93 7.677-.001 10.606 1.465 1.465 3.384 2.197 5.304 2.197 1.919 0 3.839-.732 5.303-2.197l14.126-14.125c2.93-2.929 2.93-7.677.001-10.606-2.93-2.93-7.679-2.93-10.607 0z"/><path d="m415.119 85.178c-2.928-2.93-7.677-2.929-10.606 0s-2.929 7.678.001 10.606l14.126 14.125c1.464 1.465 3.384 2.197 5.303 2.197s3.839-.732 5.304-2.197c2.929-2.929 2.929-7.678-.001-10.606z"/><path d="m373.252 85.178c-2.928-2.93-7.677-2.929-10.606 0s-2.929 7.678.001 10.606l14.126 14.125c1.464 1.465 3.384 2.197 5.303 2.197s3.839-.732 5.304-2.197c2.929-2.929 2.929-7.678-.001-10.606z"/><path d="m475.067 56.347c-11.029-9.754-25.733-14.315-40.35-12.517l-78.739 9.696c-28.88 3.556-50.658 28.181-50.658 57.279v27.976 123.439h-29.502v-166.885-27.975c0-29.098-21.778-53.723-50.658-57.279l-78.74-9.696c-14.621-1.796-29.319 2.764-40.348 12.517-11.029 9.754-17.354 23.792-17.354 38.516 0 28.352 23.066 51.418 51.418 51.418h85.717v97.487c0 4.142 3.357 7.5 7.5 7.5s7.5-3.358 7.5-7.5v-97.487h19.966v159.385h-19.966v-26.898c0-4.142-3.357-7.5-7.5-7.5s-7.5 3.358-7.5 7.5v26.898h-19.181v-49.263-27.975c0-29.098-21.778-53.723-50.657-57.279l-78.74-9.696c-14.617-1.797-29.319 2.763-40.348 12.517s-17.354 23.792-17.354 38.516c0 28.352 23.066 51.418 51.418 51.418h85.717v41.763h-16.792c-7.55 0-13.691 6.142-13.691 13.691v32.251h-.897c-19.774 0-35.861 16.087-35.861 35.862v148.102c0 10.954 8.911 19.866 19.865 19.866h293.332c10.954 0 19.866-8.912 19.866-19.866v-148.103c0-19.774-16.087-35.862-35.861-35.862h-9.586v-32.251c0-7.549-6.142-13.691-13.69-13.691h-8.105v-115.94h85.718c28.352 0 51.418-23.066 51.418-51.418-.003-14.724-6.329-28.762-17.357-38.516zm-334.932 31.488c-20.081 0-36.418-16.337-36.418-36.418 0-10.428 4.48-20.372 12.292-27.28 6.691-5.918 15.295-9.138 24.131-9.138 1.478 0 2.963.09 4.445.273l78.74 9.696c21.375 2.632 37.493 20.857 37.493 42.392v20.476h-120.683zm-105.563 81.204c0-10.428 4.48-20.372 12.292-27.28 6.691-5.918 15.295-9.138 24.131-9.138 1.478 0 2.963.09 4.445.273l78.74 9.696c21.374 2.632 37.491 20.856 37.491 42.392v20.475h-27.465-93.216c-20.081 0-36.418-16.337-36.418-36.418zm137.135 51.418h19.965v41.763h-19.965zm235.821 123.568v148.102c0 2.683-2.183 4.866-4.866 4.866h-36.09v-75.694c0-12.748-10.372-23.12-23.12-23.12h-39.134c-4.143 0-7.5 3.358-7.5 7.5s3.357 7.5 7.5 7.5h39.134c4.478 0 8.12 3.643 8.12 8.12v75.694h-191.151v-75.694c0-4.477 3.643-8.12 8.119-8.12h99.778c4.143 0 7.5-3.358 7.5-7.5s-3.357-7.5-7.5-7.5h-99.778c-12.748 0-23.119 10.372-23.119 23.12v75.694h-36.091c-2.683 0-4.865-2.183-4.865-4.866v-148.102c0-11.503 9.358-20.862 20.861-20.862h261.341c11.503 0 20.861 9.358 20.861 20.862zm-45.447-35.862h-220.858v-30.942h220.857v30.942zm-21.796-45.942h-19.965v-115.94h19.965zm100.718-130.94h-120.683v-20.476c0-21.535 16.118-39.759 37.492-42.391l78.739-9.696c10.342-1.273 20.767 1.957 28.578 8.865 7.811 6.909 12.291 16.852 12.291 27.28.001 20.081-16.336 36.418-36.417 36.418z"/><path d="m192.976 443.336c0 4.142 3.357 7.5 7.5 7.5h111.04c4.143 0 7.5-3.358 7.5-7.5s-3.357-7.5-7.5-7.5h-111.04c-4.142 0-7.5 3.358-7.5 7.5z"/></g></g></svg>