<svg id="Capa_1" enable-background="new 0 0 497 497" height="512" viewBox="0 0 497 497" width="512" xmlns="http://www.w3.org/2000/svg"><g><path d="m156.711 442.597h34.965v-237.132l-34.965-20.229z" fill="#b5adb6"/><path d="m340.289 368.421h-34.965v-237.132l34.965-13.666z" fill="#b5adb6"/><path d="m225.857 324.975h34.965v-237.132l-34.965-12.355z" fill="#b5adb6"/><path d="m68.861 117.958 78.74 9.696c25.168 3.099 44.075 24.477 44.075 49.835v27.976h-128.183c-24.255 0-43.918-19.663-43.918-43.918 0-26.385 23.1-46.814 49.286-43.589z" fill="#e2dee2"/><path d="m428.139 43.782-78.74 9.696c-25.168 3.099-44.075 24.477-44.075 49.835v27.976h128.182c24.255 0 43.918-19.663 43.918-43.918.001-26.385-23.099-46.814-49.285-43.589z" fill="#e2dee2"/><path d="m138.007.336 78.74 9.696c25.168 3.099 44.075 24.477 44.075 49.835v27.976h-128.183c-24.255 0-43.918-19.663-43.918-43.918 0-26.385 23.099-46.814 49.286-43.589z" fill="#e2dee2"/><path d="m158.639 130.305c1.961 5.378 3.037 11.167 3.037 17.185 0 15.45-12.525 27.976-27.976 27.976h-100.207c-4.232 0-8.318-.611-12.191-1.728 5.285 18.322 22.167 31.728 42.191 31.728h128.182v-27.976c.001-21.488-13.578-40.114-33.036-47.185z" fill="#cbc4cc"/><path d="m445.708 45.178c1.112 3.862 1.717 7.948 1.717 12.193 0 24.255-19.663 43.918-43.918 43.918h-98.135c-.027.672-.047 1.346-.047 2.025v27.975h128.183c24.255 0 43.918-19.663 43.918-43.918-.001-20.228-13.583-36.941-31.718-42.193z" fill="#cbc4cc"/><path d="m227.785 12.682c1.96 5.378 3.037 11.167 3.037 17.185 0 15.45-12.525 27.976-27.976 27.976h-100.207c-4.232 0-8.318-.611-12.19-1.728 5.285 18.322 22.167 31.728 42.19 31.728h128.182v-27.976c.001-21.488-13.578-40.113-33.036-47.185z" fill="#cbc4cc"/><path d="m140.277 262.228h207.759c7.759 0 14.049 6.29 14.049 14.049v31.893h-235.858v-31.893c0-7.759 6.29-14.049 14.05-14.049z" fill="#918291"/><path d="m348.036 262.228h-15.95c0 12.671-10.272 22.942-22.942 22.942h-182.917v23l122.273 20 113.585-20v-31.893c0-7.759-6.29-14.049-14.049-14.049z" fill="#7a6d79"/><g fill="#b5adb6"><path d="m70.234 172.688 14.126-14.126"/><path d="m70.234 180.188c-1.92 0-3.839-.732-5.304-2.197-2.929-2.929-2.929-7.678.001-10.606l14.126-14.125c2.929-2.929 7.678-2.929 10.606 0s2.929 7.678-.001 10.606l-14.126 14.125c-1.463 1.464-3.383 2.197-5.302 2.197z"/><path d="m112.101 172.688 14.126-14.126"/><path d="m112.101 180.188c-1.92 0-3.839-.732-5.304-2.197-2.929-2.929-2.929-7.678.001-10.606l14.126-14.125c2.928-2.929 7.677-2.929 10.606 0s2.929 7.678-.001 10.606l-14.126 14.125c-1.463 1.464-3.383 2.197-5.302 2.197z"/><path d="m146.197 56.114 14.126-14.126"/><path d="m146.197 63.614c-1.92 0-3.839-.732-5.304-2.197-2.929-2.929-2.929-7.678.001-10.606l14.126-14.125c2.928-2.929 7.677-2.929 10.606 0s2.929 7.678-.001 10.606l-14.125 14.125c-1.464 1.464-3.384 2.197-5.303 2.197z"/><path d="m188.064 56.114 14.126-14.126"/><path d="m188.064 63.614c-1.92 0-3.839-.732-5.304-2.197-2.929-2.929-2.929-7.678.001-10.606l14.126-14.125c2.928-2.929 7.677-2.929 10.606 0s2.929 7.678-.001 10.606l-14.126 14.125c-1.463 1.464-3.383 2.197-5.302 2.197z"/><path d="m416.446 97.114-14.126-14.126"/><path d="m416.446 104.614c-1.919 0-3.839-.732-5.303-2.197l-14.126-14.125c-2.93-2.929-2.93-7.677-.001-10.606 2.93-2.929 7.679-2.93 10.606 0l14.126 14.125c2.93 2.929 2.93 7.677.001 10.606-1.464 1.464-3.384 2.197-5.303 2.197z"/><path d="m374.579 97.114-14.126-14.126"/><path d="m374.579 104.614c-1.919 0-3.839-.732-5.303-2.197l-14.126-14.125c-2.93-2.929-2.93-7.677-.001-10.606 2.93-2.929 7.679-2.93 10.606 0l14.126 14.125c2.93 2.929 2.93 7.677.001 10.606-1.464 1.464-3.384 2.197-5.303 2.197z"/></g><path d="m407.532 484.634v-148.102c0-15.664-12.698-28.361-28.362-28.361h-261.34c-15.664 0-28.361 12.698-28.361 28.361v148.102c0 6.829 5.536 12.366 12.366 12.366h43.59l106.81-20 99.341 20h43.59c6.829 0 12.366-5.536 12.366-12.366z" fill="#22b37f"/><path d="m379.17 308.171h-1.638v146.464c0 6.829-5.536 12.366-12.366 12.366h-275.698v17.634c0 6.829 5.536 12.366 12.366 12.366h293.332c6.829 0 12.366-5.536 12.366-12.366v-148.103c0-15.664-12.698-28.361-28.362-28.361z" fill="#09a76d"/><path d="m351.576 497-103.076-10-103.076 10v-83.194c0-8.627 6.993-15.62 15.62-15.62h174.912c8.627 0 15.62 6.993 15.62 15.62z" fill="#fed2a4"/><path d="m145.424 467h206.151v30h-206.151z" fill="#ffbd86"/><path d="m304.02 443.344h-111.04c-4.143 0-7.5-3.358-7.5-7.5s3.357-7.5 7.5-7.5h111.04c4.143 0 7.5 3.358 7.5 7.5s-3.357 7.5-7.5 7.5z" fill="#ffbd86"/></g></svg>