<?xml version="1.0" encoding="UTF-8" standalone="no"?>
<svg
   id="Capa_1"
   enable-background="new 0 0 512 512"
   height="512"
   viewBox="0 0 512 512"
   width="512"
   version="1.1"
   sodipodi:docname="gym-color.svg"
   inkscape:version="1.1.2 (0a00cf5339, 2022-02-04)"
   xmlns:inkscape="http://www.inkscape.org/namespaces/inkscape"
   xmlns:sodipodi="http://sodipodi.sourceforge.net/DTD/sodipodi-0.dtd"
   xmlns="http://www.w3.org/2000/svg"
   xmlns:svg="http://www.w3.org/2000/svg">
  <defs
     id="defs105" />
  <sodipodi:namedview
     id="namedview103"
     pagecolor="#ffffff"
     bordercolor="#666666"
     borderopacity="1.0"
     inkscape:pageshadow="2"
     inkscape:pageopacity="0.0"
     inkscape:pagecheckerboard="0"
     showgrid="false"
     inkscape:zoom="1.2304688"
     inkscape:cx="255.59365"
     inkscape:cy="255.59365"
     inkscape:window-width="1920"
     inkscape:window-height="1012"
     inkscape:window-x="0"
     inkscape:window-y="0"
     inkscape:window-maximized="1"
     inkscape:current-layer="Capa_1" />
  <g
     id="g100"
     transform="matrix(1.0301295,0,0,1.0301295,-7.7131738,-7.7131588)">
    <g
       id="g92">
      <g
         id="g6">
        <g
           id="g4">
          <path
             d="M 340.824,358.139 H 171.177 c -5.782,0 -10.469,-4.687 -10.469,-10.469 v -26.509 c 0,-5.782 4.687,-10.469 10.469,-10.469 h 169.647 c 5.782,0 10.469,4.687 10.469,10.469 v 26.509 c 0,5.782 -4.687,10.469 -10.469,10.469 z"
             fill="#ffe5c2"
             id="path2" />
        </g>
      </g>
      <g
         id="g12">
        <g
           id="g10">
          <path
             d="M 316.928,420.354 H 195.072 c -4.867,0 -8.813,-3.946 -8.813,-8.813 v -53.402 h 139.483 v 53.402 c 0,4.868 -3.946,8.813 -8.814,8.813 z"
             fill="#ea9b58"
             id="path8" />
        </g>
      </g>
      <g
         id="g18">
        <g
           id="g16">
          <path
             d="m 340.824,310.693 h -16.531 v 16.978 c 0,5.782 -4.687,10.469 -10.469,10.469 H 160.708 v 9.531 c 0,5.782 4.687,10.469 10.469,10.469 h 169.647 c 5.782,0 10.469,-4.687 10.469,-10.469 v -26.509 c 0,-5.782 -4.687,-10.469 -10.469,-10.469 z"
             fill="#fed2a4"
             id="path14" />
        </g>
      </g>
      <g
         id="g24">
        <g
           id="g22">
          <path
             d="m 298.742,358.14 v 33.401 c 0,4.868 -3.946,8.813 -8.813,8.813 h -103.67 v 11.187 c 0,4.868 3.946,8.813 8.813,8.813 h 121.856 c 4.867,0 8.813,-3.946 8.813,-8.813 V 358.14 Z"
             fill="#d88a55"
             id="path20" />
        </g>
      </g>
      <g
         id="g30">
        <g
           id="g28">
          <path
             d="M 56.628,285.996 H 18.603 C 12.471,285.996 7.5,281.025 7.5,274.893 V 101.901 c 0,-6.132 4.971,-11.103 11.103,-11.103 h 38.025 c 6.132,0 11.103,4.971 11.103,11.103 v 172.993 c -10e-4,6.131 -4.972,11.102 -11.103,11.102 z"
             fill="#cbc4cc"
             id="path26" />
        </g>
      </g>
      <g
         id="g36">
        <g
           id="g34">
          <path
             d="m 493.398,285.996 h -38.025 c -6.132,0 -11.103,-4.971 -11.103,-11.103 V 101.901 c 0,-6.132 4.971,-11.103 11.103,-11.103 h 38.025 c 6.132,0 11.103,4.971 11.103,11.103 v 172.993 c -10e-4,6.131 -4.972,11.102 -11.103,11.102 z"
             fill="#cbc4cc"
             id="path32" />
        </g>
      </g>
      <g
         id="g42">
        <g
           id="g40">
          <path
             d="M 56.627,90.798 H 37.73 v 154.095 c 0,6.132 -4.971,11.103 -11.103,11.103 H 7.5 v 18.897 c 0,6.132 4.971,11.103 11.103,11.103 h 38.024 c 6.132,0 11.103,-4.971 11.103,-11.103 V 101.901 c 0,-6.132 -4.971,-11.103 -11.103,-11.103 z"
             fill="#b5adb6"
             id="path38" />
        </g>
      </g>
      <g
         id="g48">
        <g
           id="g46">
          <path
             d="M 493.397,90.798 H 474.5 v 154.095 c 0,6.132 -4.971,11.103 -11.103,11.103 H 444.27 v 18.897 c 0,6.132 4.971,11.103 11.103,11.103 h 38.024 c 6.132,0 11.103,-4.971 11.103,-11.103 V 101.901 c 0,-6.132 -4.971,-11.103 -11.103,-11.103 z"
             fill="#b5adb6"
             id="path44" />
        </g>
      </g>
      <g
         id="g54">
        <g
           id="g52">
          <path
             d="m 67.73,169.239 h 376.54 v 38.317 H 67.73 Z"
             fill="#918291"
             id="path50" />
        </g>
      </g>
      <g
         id="g60">
        <g
           id="g58">
          <path
             d="M 121.759,421.202 H 99.243 V 208.594 h 31.186 V 412.53 c 0,4.79 -3.882,8.672 -8.67,8.672 z"
             fill="#cbc4cc"
             id="path56" />
        </g>
      </g>
      <g
         id="g66">
        <g
           id="g64">
          <path
             d="M 99.243,421.202 H 37.966 c -5.918,0 -10.23,-5.607 -8.711,-11.327 l 5.723,-21.55 c 6.643,-25.014 29.285,-42.427 55.167,-42.427 h 9.099 v 75.304 z"
             fill="#7a6d79"
             id="path62" />
        </g>
      </g>
      <g
         id="g72">
        <g
           id="g70">
          <path
             d="m 390.242,421.202 h 22.515 V 208.594 H 381.571 V 412.53 c 0,4.79 3.882,8.672 8.671,8.672 z"
             fill="#cbc4cc"
             id="path68" />
        </g>
      </g>
      <g
         id="g78">
        <g
           id="g76">
          <path
             d="m 99.243,208.594 h 31.186 v 38.768 H 99.243 Z"
             fill="#b5adb6"
             id="path74" />
        </g>
      </g>
      <g
         id="g84">
        <g
           id="g82">
          <path
             d="m 381.571,208.594 h 31.186 v 38.768 h -31.186 z"
             fill="#b5adb6"
             id="path80" />
        </g>
      </g>
      <g
         id="g90">
        <g
           id="g88">
          <path
             d="m 412.757,421.202 h 61.277 c 5.918,0 10.23,-5.607 8.711,-11.327 l -5.723,-21.55 c -6.643,-25.014 -29.285,-42.427 -55.167,-42.427 h -9.099 v 75.304 z"
             fill="#7a6d79"
             id="path86" />
        </g>
      </g>
    </g>
    <g
       id="g98" />
  </g>
</svg>
