<svg id="Capa_1" enable-background="new 0 0 512 512" height="512" viewBox="0 0 512 512" width="512" xmlns="http://www.w3.org/2000/svg"><g><g><g><g><path d="m340.824 358.139h-169.647c-5.782 0-10.469-4.687-10.469-10.469v-26.509c0-5.782 4.687-10.469 10.469-10.469h169.647c5.782 0 10.469 4.687 10.469 10.469v26.509c0 5.782-4.687 10.469-10.469 10.469z" fill="#ffe5c2"/></g></g><g><g><path d="m316.928 420.354h-121.856c-4.867 0-8.813-3.946-8.813-8.813v-53.402h139.483v53.402c0 4.868-3.946 8.813-8.814 8.813z" fill="#ea9b58"/></g></g><g><g><path d="m340.824 310.693h-16.531v16.978c0 5.782-4.687 10.469-10.469 10.469h-153.116v9.531c0 5.782 4.687 10.469 10.469 10.469h169.647c5.782 0 10.469-4.687 10.469-10.469v-26.509c0-5.782-4.687-10.469-10.469-10.469z" fill="#fed2a4"/></g></g><g><g><path d="m298.742 358.14v33.401c0 4.868-3.946 8.813-8.813 8.813h-103.67v11.187c0 4.868 3.946 8.813 8.813 8.813h121.856c4.867 0 8.813-3.946 8.813-8.813v-53.401z" fill="#d88a55"/></g></g><g><g><path d="m56.628 285.996h-38.025c-6.132 0-11.103-4.971-11.103-11.103v-172.992c0-6.132 4.971-11.103 11.103-11.103h38.025c6.132 0 11.103 4.971 11.103 11.103v172.993c-.001 6.131-4.972 11.102-11.103 11.102z" fill="#cbc4cc"/></g></g><g><g><path d="m493.398 285.996h-38.025c-6.132 0-11.103-4.971-11.103-11.103v-172.992c0-6.132 4.971-11.103 11.103-11.103h38.025c6.132 0 11.103 4.971 11.103 11.103v172.993c-.001 6.131-4.972 11.102-11.103 11.102z" fill="#cbc4cc"/></g></g><g><g><path d="m56.627 90.798h-18.897v154.095c0 6.132-4.971 11.103-11.103 11.103h-19.127v18.897c0 6.132 4.971 11.103 11.103 11.103h38.024c6.132 0 11.103-4.971 11.103-11.103v-172.992c0-6.132-4.971-11.103-11.103-11.103z" fill="#b5adb6"/></g></g><g><g><path d="m493.397 90.798h-18.897v154.095c0 6.132-4.971 11.103-11.103 11.103h-19.127v18.897c0 6.132 4.971 11.103 11.103 11.103h38.024c6.132 0 11.103-4.971 11.103-11.103v-172.992c0-6.132-4.971-11.103-11.103-11.103z" fill="#b5adb6"/></g></g><g><g><path d="m67.73 169.239h376.54v38.317h-376.54z" fill="#918291"/></g></g><g><g><path d="m121.759 421.202h-22.516v-212.608h31.186v203.936c0 4.79-3.882 8.672-8.67 8.672z" fill="#cbc4cc"/></g></g><g><g><path d="m99.243 421.202h-61.277c-5.918 0-10.23-5.607-8.711-11.327l5.723-21.55c6.643-25.014 29.285-42.427 55.167-42.427h9.099v75.304z" fill="#7a6d79"/></g></g><g><g><path d="m390.242 421.202h22.515v-212.608h-31.186v203.936c0 4.79 3.882 8.672 8.671 8.672z" fill="#cbc4cc"/></g></g><g><g><path d="m99.243 208.594h31.186v38.768h-31.186z" fill="#b5adb6"/></g></g><g><g><path d="m381.571 208.594h31.186v38.768h-31.186z" fill="#b5adb6"/></g></g><g><g><path d="m412.757 421.202h61.277c5.918 0 10.23-5.607 8.711-11.327l-5.723-21.55c-6.643-25.014-29.285-42.427-55.167-42.427h-9.099v75.304z" fill="#7a6d79"/></g></g></g><g><path d="m340.824 303.193h-169.647c-9.908 0-17.969 8.061-17.969 17.969v26.509c0 9.908 8.061 17.969 17.969 17.969h7.582v45.901c0 8.995 7.318 16.313 16.313 16.313h121.856c8.995 0 16.312-7.318 16.312-16.313v-45.901h7.583c9.908 0 17.969-8.061 17.969-17.969v-26.509c.001-9.909-8.06-17.969-17.968-17.969zm-22.583 108.348c0 .724-.589 1.313-1.312 1.313h-121.857c-.725 0-1.313-.589-1.313-1.313v-45.901h124.482zm25.552-63.87c0 1.637-1.332 2.969-2.969 2.969h-15.083-139.482-15.082c-1.637 0-2.969-1.332-2.969-2.969v-26.509c0-1.637 1.332-2.969 2.969-2.969h169.647c1.637 0 2.969 1.332 2.969 2.969z"/><path d="m493.397 83.298h-38.024c-10.258 0-18.603 8.345-18.603 18.603v59.838h-361.54v-59.838c0-10.257-8.345-18.603-18.603-18.603h-38.024c-10.258 0-18.603 8.346-18.603 18.603v27.771c0 4.142 3.357 7.5 7.5 7.5s7.5-3.358 7.5-7.5v-27.771c0-1.986 1.616-3.603 3.603-3.603h38.025c1.986 0 3.603 1.616 3.603 3.603v172.993c0 1.986-1.616 3.603-3.603 3.603h-38.025c-1.986 0-3.603-1.616-3.603-3.603v-109.223c0-4.142-3.357-7.5-7.5-7.5s-7.5 3.358-7.5 7.5v109.222c0 10.257 8.345 18.603 18.603 18.603h38.025c10.258 0 18.603-8.345 18.603-18.603v-59.838h16.513v123.341h-1.599c-29.243 0-54.909 19.739-62.415 48.002l-5.724 21.55c-1.326 4.995-.28 10.209 2.87 14.306s7.922 6.446 13.09 6.446h83.793c8.917 0 16.171-7.254 16.171-16.171v-197.473h236.142v81.016c0 4.142 3.357 7.5 7.5 7.5s7.5-3.358 7.5-7.5v-79.978h16.186v197.607h-15.015c-.646 0-1.171-.525-1.171-1.171v-81.459c0-4.142-3.357-7.5-7.5-7.5s-7.5 3.358-7.5 7.5v81.459c0 8.917 7.254 16.171 16.171 16.171h83.792c5.168 0 9.938-2.349 13.09-6.445 3.15-4.097 4.197-9.311 2.871-14.307l-5.724-21.55c-7.507-28.263-33.173-48.002-62.416-48.002h-1.599v-123.341h16.514v59.838c0 10.257 8.345 18.603 18.603 18.603h38.024c10.258 0 18.603-8.345 18.603-18.603v-172.993c-.001-10.257-8.346-18.603-18.604-18.603zm-456.63 329.813c-.207-.27-.421-.715-.263-1.311l5.724-21.551c5.762-21.698 25.466-36.852 47.917-36.852h1.599v60.305h-53.778c-.616 0-.992-.322-1.199-.591zm86.163-.58c0 .646-.525 1.171-1.171 1.171h-15.016v-197.608h16.187zm298.925-59.134c22.45 0 42.155 15.154 47.918 36.853l5.724 21.549c.158.596-.056 1.042-.263 1.312-.208.27-.584.591-1.2.591h-53.777v-60.305zm-346.625-153.341v-23.317h361.54v23.317zm421.77 74.838c0 1.986-1.616 3.603-3.603 3.603h-38.024c-1.986 0-3.603-1.616-3.603-3.603v-172.993c0-1.986 1.616-3.603 3.603-3.603h38.024c1.986 0 3.603 1.616 3.603 3.603z"/></g></g></svg>