<?xml version="1.0" encoding="iso-8859-1"?>
<!-- Generator: Adobe Illustrator 19.0.0, SVG Export Plug-In . SVG Version: 6.00 Build 0)  -->
<svg version="1.1" id="Capa_1" xmlns="http://www.w3.org/2000/svg" xmlns:xlink="http://www.w3.org/1999/xlink" x="0px" y="0px"
	 viewBox="0 0 512 512" style="enable-background:new 0 0 512 512;" xml:space="preserve">
<path style="fill:#A0D860;" d="M320.163,118.939l-43.765-87.531C267.592,13.796,245.27,0,225.579,0h-81.102
	c-19.69,0-42.013,13.796-50.82,31.407l-43.771,87.538c-7.944,15.886-14.406,43.259-14.406,61.021v152.09
	c0,17.761,6.463,45.134,14.407,61.02l43.768,87.517C102.463,498.204,124.786,512,144.477,512h81.102
	c19.691,0,42.014-13.796,50.82-31.408l43.765-87.531c7.944-15.885,14.405-43.259,14.405-61.021V179.96
	C334.569,162.198,328.106,134.825,320.163,118.939z"/>
<path style="fill:#89BF43;" d="M320.163,118.939l-43.765-87.531C267.592,13.796,245.27,0,225.579,0H195.16
	c19.691,0,42.013,13.796,50.819,31.408l43.765,87.531c7.944,15.886,14.405,43.259,14.405,61.021v152.08
	c0,17.762-6.462,45.135-14.405,61.021l-43.765,87.531C237.173,498.204,214.85,512,195.16,512h30.419
	c19.691,0,42.014-13.796,50.82-31.408l43.765-87.531c7.944-15.885,14.405-43.259,14.405-61.021V179.96
	C334.569,162.198,328.106,134.825,320.163,118.939z"/>
<path style="fill:#78A833;" d="M225.573,45.624c2.422,0.06,8.884,4.053,10.018,6.189l43.765,87.532
	c4.838,9.678,9.588,29.797,9.588,40.617v152.08c0,10.821-4.75,30.94-9.588,40.618l-43.763,87.525
	c-1.137,2.138-7.594,6.13-10.018,6.193h-81.093c-2.423-0.06-8.887-4.054-10.022-6.189l-43.768-87.517
	c-4.839-9.677-9.589-29.794-9.589-40.614V179.966c0-10.821,4.75-30.939,9.589-40.616l43.768-87.532
	c1.138-2.14,7.6-6.134,10.016-6.194h81.097V45.624z"/>
<rect x="81.104" y="205.083" style="fill:#FFB123;" width="207.841" height="104.144"/>
<g>
	<polygon style="fill:#89BF43;" points="97.001,126.731 273.051,126.731 265.447,111.524 104.606,111.524 	"/>
	<polygon style="fill:#89BF43;" points="273.053,385.265 96.992,385.265 104.597,400.472 265.449,400.472 	"/>
</g>
<path style="fill:#0072A2;" d="M468.916,420.748h-40.554c-4.199,0-7.604-3.405-7.604-7.604v-60.831c0-1.18,0.275-2.345,0.802-3.4
	l10.139-20.279c1.289-2.577,3.922-4.204,6.801-4.204h20.277c2.88,0,5.513,1.627,6.801,4.203l10.14,20.279
	c0.527,1.056,0.803,2.22,0.803,3.4v60.831C476.52,417.343,473.115,420.748,468.916,420.748z"/>
<path style="fill:#006289;" d="M456.243,324.43V98.855c0-4.199-3.405-7.604-7.604-7.604s-7.604,3.405-7.604,7.604v225.574
	L456.243,324.43L456.243,324.43z"/>
<path style="fill:#0072A2;" d="M397.948,187.569h-20.277c-2.88,0-5.513-1.627-6.801-4.203l-10.139-20.279
	c-0.528-1.056-0.803-2.22-0.803-3.4V98.855c0-4.199,3.405-7.604,7.604-7.604h40.554c4.199,0,7.604,3.405,7.604,7.604v60.831
	c0,1.18-0.275,2.345-0.803,3.4l-10.138,20.279C403.461,185.942,400.828,187.569,397.948,187.569z"/>
<path style="fill:#006289;" d="M380.204,187.569v225.574c0,4.199,3.405,7.604,7.604,7.604s7.604-3.405,7.604-7.604V187.569
	L380.204,187.569L380.204,187.569z"/>
<g>
	<path style="fill:#F3E8D6;" d="M73.5,192.641H43.084c-4.199,0-7.604,3.405-7.604,7.604V311.76c0,4.199,3.405,7.604,7.604,7.604
		H73.5c4.199,0,7.604-3.405,7.604-7.604V200.245C81.104,196.046,77.699,192.641,73.5,192.641z"/>
	<path style="fill:#F3E8D6;" d="M326.965,192.641h-30.416c-4.199,0-7.604,3.405-7.604,7.604V311.76c0,4.199,3.405,7.604,7.604,7.604
		h30.416c4.199,0,7.604-3.405,7.604-7.604V200.245C334.569,196.046,331.164,192.641,326.965,192.641z"/>
</g>
<path style="fill:#E5D8C6;" d="M326.965,192.641H304.15v126.722h22.815c4.199,0,7.604-3.405,7.604-7.604V200.245
	C334.569,196.046,331.164,192.641,326.965,192.641z"/>
<g>
</g>
<g>
</g>
<g>
</g>
<g>
</g>
<g>
</g>
<g>
</g>
<g>
</g>
<g>
</g>
<g>
</g>
<g>
</g>
<g>
</g>
<g>
</g>
<g>
</g>
<g>
</g>
<g>
</g>
</svg>
