<?xml version="1.0" encoding="iso-8859-1"?>
<!-- Generator: Adobe Illustrator 19.0.0, SVG Export Plug-In . SVG Version: 6.00 Build 0)  -->
<svg version="1.1" id="Capa_1" xmlns="http://www.w3.org/2000/svg" xmlns:xlink="http://www.w3.org/1999/xlink" x="0px" y="0px"
	 viewBox="0 0 512.002 512.002" style="enable-background:new 0 0 512.002 512.002;" xml:space="preserve">
<g>
	<path style="fill:#0072A2;" d="M372.607,157.17l-20.277-0.028c-2.881-0.004-5.51-1.635-6.796-4.213l-10.111-20.293
		c-0.527-1.056-0.8-2.221-0.8-3.402l0.085-60.831c0.006-4.199,3.416-7.599,7.616-7.594l40.554,0.057
		c4.2,0.006,7.598,3.416,7.592,7.615l-0.085,60.831c0,1.18-0.277,2.344-0.806,3.398l-10.164,20.265
		C378.123,155.55,375.486,157.174,372.607,157.17z"/>
	<path style="fill:#0072A2;" d="M382.322,461.331l-40.554-0.057c-4.2-0.006-7.6-3.416-7.594-7.615l0.085-60.831
		c0.002-1.18,0.277-2.343,0.808-3.398l10.164-20.265c1.291-2.574,3.927-4.198,6.808-4.194l20.277,0.028
		c2.879,0.004,5.511,1.635,6.794,4.213l10.113,20.293c0.527,1.056,0.8,2.221,0.798,3.402l-0.085,60.831
		C389.93,457.937,386.521,461.337,382.322,461.331z"/>
</g>
<polygon style="fill:#005772;" points="354.717,157.146 354.717,364.974 369.925,364.996 369.925,157.167 "/>
<path style="fill:#FFB123;" d="M220.383,512.002c-1.909,0-3.818-0.715-5.291-2.143c-58.584-56.765-93.56-151.666-93.56-253.857
	S156.508,58.91,215.091,2.145c2.948-2.857,7.633-2.857,10.583,0c58.584,56.765,93.56,151.666,93.56,253.857
	s-34.976,197.092-93.56,253.857C224.199,511.287,222.292,512.002,220.383,512.002z"/>
<g>
	<path style="fill:#FF901D;" d="M225.674,2.145c-2.948-2.857-7.633-2.857-10.583,0c-3.39,3.284-6.689,6.709-9.919,10.241
		c52.586,57.542,83.642,147.335,83.642,243.616s-31.056,186.074-83.642,243.616c3.23,3.532,6.528,6.957,9.919,10.241
		c1.473,1.429,3.382,2.143,5.291,2.143c1.909,0,3.816-0.715,5.291-2.143c58.584-56.765,93.56-151.666,93.56-253.857
		S284.258,58.91,225.674,2.145z"/>
	<path style="fill:#FF901D;" d="M220.381,200.24c-22.363,0-40.554,18.193-40.554,40.554v30.414
		c0,22.362,18.192,40.554,40.554,40.554c22.361,0,40.554-18.193,40.554-40.554v-30.414
		C260.935,218.433,242.741,200.24,220.381,200.24z"/>
</g>
<g>
	<path style="fill:#F3E8D6;" d="M209.629,98.852l-4.762,4.762c-2.969,2.97-2.969,7.784,0,10.753
		c1.485,1.484,3.432,2.227,5.379,2.227c1.945,0,3.891-0.742,5.377-2.227l4.762-4.761l4.76,4.761
		c1.485,1.484,3.432,2.227,5.379,2.227c1.945,0,3.891-0.742,5.376-2.227c2.971-2.97,2.971-7.784,0-10.753l-4.76-4.762l4.762-4.764
		c2.971-2.97,2.971-7.784,0-10.753c-2.971-2.97-7.784-2.97-10.754,0l-4.762,4.763l-4.764-4.763c-2.971-2.97-7.784-2.97-10.754,0
		c-2.969,2.97-2.969,7.784,0,10.753L209.629,98.852z"/>
	<path style="fill:#F3E8D6;" d="M225.145,134.029l-4.762,4.763l-4.764-4.763c-2.971-2.97-7.784-2.97-10.754,0
		c-2.969,2.97-2.969,7.784,0,10.754l4.764,4.764l-4.762,4.762c-2.969,2.97-2.969,7.784,0,10.753
		c1.485,1.484,3.432,2.227,5.379,2.227c1.945,0,3.891-0.742,5.377-2.227l4.762-4.761l4.76,4.761
		c1.485,1.484,3.432,2.227,5.379,2.227c1.945,0,3.891-0.742,5.376-2.227c2.971-2.97,2.971-7.784,0-10.753l-4.76-4.762l4.762-4.764
		c2.971-2.97,2.971-7.784,0-10.754C232.929,131.059,228.116,131.059,225.145,134.029z"/>
	<path style="fill:#F3E8D6;" d="M225.145,346.941l-4.762,4.763l-4.764-4.763c-2.971-2.97-7.784-2.97-10.754,0
		c-2.969,2.97-2.969,7.784,0,10.753l4.764,4.764l-4.762,4.762c-2.969,2.97-2.969,7.784,0,10.753
		c1.485,1.484,3.432,2.227,5.379,2.227c1.945,0,3.891-0.742,5.377-2.227l4.762-4.761l4.76,4.761
		c1.485,1.484,3.432,2.227,5.379,2.227c1.945,0,3.891-0.742,5.376-2.227c2.971-2.97,2.971-7.784,0-10.753l-4.76-4.762l4.762-4.764
		c2.971-2.97,2.971-7.784,0-10.753S228.116,343.971,225.145,346.941z"/>
	<path style="fill:#F3E8D6;" d="M235.9,397.635c-2.971-2.97-7.784-2.97-10.754,0l-4.762,4.763l-4.764-4.763
		c-2.971-2.97-7.784-2.97-10.754,0c-2.969,2.97-2.969,7.784,0,10.753l4.764,4.764l-4.762,4.762c-2.969,2.97-2.969,7.784,0,10.754
		c1.485,1.484,3.432,2.227,5.379,2.227c1.945,0,3.891-0.743,5.377-2.227l4.762-4.761l4.76,4.761
		c1.485,1.484,3.432,2.227,5.379,2.227c1.945,0,3.891-0.743,5.376-2.227c2.971-2.97,2.971-7.784,0-10.754l-4.76-4.762l4.762-4.764
		C238.871,405.419,238.871,400.604,235.9,397.635z"/>
</g>
<path style="fill:#FF4C4D;" d="M185.419,36.909c8.368,9.974,20.921,16.32,34.96,16.32c14.042,0,26.596-6.348,34.964-16.324
	c-9.06-12.731-18.964-24.388-29.67-34.76c-2.948-2.857-7.633-2.857-10.583,0C204.385,12.518,194.478,24.177,185.419,36.909z"/>
<path style="fill:#F23939;" d="M209.654,7.617c-1.425,1.482-2.84,2.984-4.238,4.51c-0.081,0.087-0.16,0.175-0.241,0.263
	c10.629,11.63,20.36,24.597,29.151,38.649c8.289-2.661,15.551-7.615,21.017-14.134c-1.887-2.653-3.822-5.248-5.782-7.806
	c-0.612-0.797-1.224-1.594-1.841-2.382c-0.756-0.963-1.517-1.92-2.283-2.869c-0.804-0.994-1.616-1.975-2.429-2.952
	c-0.619-0.742-1.232-1.493-1.855-2.226c-1.396-1.635-2.808-3.243-4.236-4.831c-0.528-0.588-1.064-1.164-1.596-1.745
	c-1.099-1.198-2.206-2.385-3.322-3.555c-0.499-0.523-0.996-1.046-1.5-1.562c-1.592-1.636-3.196-3.254-4.824-4.833
	c-2.948-2.857-7.633-2.857-10.583,0c-1.62,1.569-3.218,3.175-4.8,4.807C210.078,7.172,209.868,7.396,209.654,7.617z"/>
<path style="fill:#FF4C4D;" d="M255.344,475.094c-8.37-9.974-20.923-16.32-34.96-16.32c-14.042,0-26.596,6.348-34.964,16.324
	c9.058,12.731,18.964,24.388,29.67,34.76c2.948,2.857,7.633,2.857,10.583,0C236.375,499.485,246.284,487.826,255.344,475.094z"/>
<path style="fill:#F23939;" d="M234.325,460.964c-8.79,14.053-18.523,27.021-29.153,38.652c0.033,0.036,0.067,0.072,0.099,0.107
	c1.509,1.647,3.031,3.269,4.573,4.866c0.117,0.121,0.232,0.242,0.349,0.362c1.614,1.666,3.243,3.304,4.899,4.907
	c1.473,1.429,3.38,2.142,5.289,2.143c1.907,0,3.816-0.715,5.289-2.143c0.152-0.149,0.303-0.304,0.457-0.454
	c1.438-1.401,2.859-2.831,4.269-4.277c0.588-0.604,1.17-1.216,1.753-1.828c1.006-1.054,2.002-2.122,2.992-3.2
	c0.621-0.677,1.247-1.351,1.863-2.038c1.214-1.35,2.412-2.723,3.602-4.108c0.907-1.056,1.802-2.13,2.695-3.206
	c0.679-0.818,1.357-1.636,2.028-2.465c0.844-1.041,1.679-2.092,2.509-3.151c0.509-0.648,1.01-1.304,1.515-1.958
	c2.034-2.645,4.035-5.332,5.99-8.079C249.874,468.577,242.615,463.625,234.325,460.964z"/>
<g>
</g>
<g>
</g>
<g>
</g>
<g>
</g>
<g>
</g>
<g>
</g>
<g>
</g>
<g>
</g>
<g>
</g>
<g>
</g>
<g>
</g>
<g>
</g>
<g>
</g>
<g>
</g>
<g>
</g>
</svg>
