<?xml version="1.0" encoding="iso-8859-1"?>
<!-- Generator: Adobe Illustrator 19.0.0, SVG Export Plug-In . SVG Version: 6.00 Build 0)  -->
<svg version="1.1" id="Capa_1" xmlns="http://www.w3.org/2000/svg" xmlns:xlink="http://www.w3.org/1999/xlink" x="0px" y="0px"
	 viewBox="0 0 512 512" style="enable-background:new 0 0 512 512;" xml:space="preserve">
<g>
	<polygon style="fill:#0072A2;" points="382.733,392.871 382.733,453.693 342.178,453.693 342.178,392.871 352.317,372.584 
		362.455,372.584 372.594,372.584 	"/>
	<polygon style="fill:#0072A2;" points="382.733,68.446 382.733,129.267 372.594,149.555 362.455,149.555 352.317,149.555 
		342.178,129.267 342.178,68.446 	"/>
</g>
<path style="fill:#FF901D;" d="M261.069,240.792v30.416c0,22.396-18.158,40.554-40.554,40.554
	c-22.406,0-40.554-18.158-40.554-40.554v-30.416c0-22.396,18.148-40.554,40.554-40.554
	C242.911,200.238,261.069,218.396,261.069,240.792z"/>
<path style="fill:#FFB123;" d="M250.028,42.39c38.07,54.09,61.734,129.805,61.734,213.61s-23.664,159.521-61.724,213.61h-0.01
	c-7.96-6.763-18.261-10.838-29.514-10.838c-11.264,0-21.565,4.076-29.524,10.838c-38.07-54.09-61.724-129.805-61.724-213.61
	s23.653-159.521,61.714-213.61h0.01c7.959,6.762,18.26,10.838,29.524,10.838C231.769,53.228,242.07,49.152,250.028,42.39z
	 M261.069,271.208v-30.416c0-22.396-18.158-40.554-40.554-40.554c-22.406,0-40.554,18.158-40.554,40.554v30.416
	c0,22.396,18.148,40.554,40.554,40.554C242.911,311.762,261.069,293.604,261.069,271.208z"/>
<path style="fill:#FF901D;" d="M250.028,42.39c-9.054-12.886-18.939-24.535-29.514-34.786c-5.246,5.085-10.32,10.516-15.21,16.268
	c4.968,5.845,9.741,12.023,14.305,18.517c38.07,54.09,61.734,129.805,61.734,213.61S257.68,415.521,219.62,469.61h-0.01
	c-4.563,6.494-9.338,12.672-14.305,18.517c4.89,5.754,9.964,11.183,15.21,16.268c10.575-10.25,20.46-21.899,29.514-34.786h0.01
	c38.06-54.091,61.724-129.805,61.724-213.61S288.099,96.479,250.028,42.39z"/>
<g>
	<path style="fill:#FF4C4D;" d="M250.028,42.39c-7.959,6.762-18.26,10.838-29.514,10.838c-11.264,0-21.565-4.076-29.524-10.838
		c9.064-12.886,18.949-24.535,29.524-34.786C231.089,17.854,240.975,29.503,250.028,42.39z"/>
	<path style="fill:#FF4C4D;" d="M220.515,458.772c11.254,0,21.555,4.076,29.514,10.838c-9.055,12.886-18.94,24.534-29.514,34.786
		c-10.575-10.25-20.46-21.899-29.524-34.786C198.95,462.848,209.251,458.772,220.515,458.772z"/>
</g>
<g>
	<path style="fill:#F23939;" d="M219.62,469.61h-0.01c-4.563,6.494-9.338,12.672-14.305,18.517c2.444,2.876,4.935,5.672,7.47,8.384
		c0.062,0.066,0.125,0.13,0.188,0.195c1.205,1.288,2.42,2.557,3.646,3.807c1.292,1.316,2.594,2.61,3.907,3.883
		c10.575-10.25,20.46-21.899,29.514-34.786c-6.497-5.52-14.556-9.248-23.419-10.433C224.337,462.738,222.007,466.218,219.62,469.61z
		"/>
	<path style="fill:#F23939;" d="M213.006,15.248c-0.076,0.081-0.154,0.159-0.231,0.24c-2.535,2.712-5.026,5.507-7.47,8.384
		c4.968,5.845,9.741,12.023,14.305,18.517c2.388,3.393,4.72,6.872,6.992,10.433c8.866-1.183,16.927-4.911,23.426-10.433
		c-9.053-12.886-18.938-24.535-29.512-34.786c-1.315,1.274-2.619,2.571-3.911,3.888C215.394,12.724,214.196,13.979,213.006,15.248z"
		/>
</g>
<path d="M389.534,389.466l-10.141-20.279c-1.289-2.576-3.921-4.202-6.801-4.202h-2.535V157.155h2.537
	c2.88,0,5.514-1.627,6.802-4.203l10.137-20.279c0.528-1.055,0.802-2.219,0.802-3.399V68.441c0-4.199-3.404-7.604-7.604-7.604
	h-40.554c-4.199,0-7.604,3.405-7.604,7.604v60.831c0,1.18,0.276,2.345,0.803,3.4l10.141,20.279c1.289,2.576,3.921,4.203,6.801,4.203
	h2.533v207.828h-2.535c-2.88,0-5.513,1.627-6.802,4.203l-10.137,20.279c-0.527,1.056-0.802,2.219-0.802,3.4v60.831
	c0,4.199,3.404,7.604,7.604,7.604h40.554c4.2,0,7.604-3.405,7.604-7.604v-60.831C390.337,391.686,390.061,390.522,389.534,389.466z
	 M349.78,127.477V76.045h25.347v51.432l-7.233,14.47h-5.43c-0.004,0-0.006,0-0.01,0s-0.006,0-0.01,0h-5.428L349.78,127.477z
	 M375.129,446.094h-25.347v-51.432l7.233-14.47h5.429c0.004,0,0.006,0,0.01,0s0.006,0,0.01,0h5.429l7.235,14.47V446.094z"/>
<path d="M298.785,143.502c-0.64,0-1.278,0.081-1.896,0.243c-4.067,1.044-6.52,5.201-5.475,9.257
	c8.456,32.869,12.744,67.523,12.744,102.998c0.01,24.15-2.007,48.179-5.992,71.416c-3.863,22.498-9.581,44.316-17.003,64.867
	c-7.258,20.135-16.151,39.024-26.421,56.148c-2.143,3.577-4.36,7.056-6.617,10.471c-8.275-5.02-17.826-7.734-27.61-7.734
	c-9.784,0-19.334,2.714-27.609,7.734c-2.259-3.415-4.473-6.894-6.617-10.472c-10.271-17.124-19.162-36.012-26.422-56.148
	c-7.421-20.551-13.14-42.369-17.002-64.867c-3.985-23.238-6.002-47.266-5.992-71.416c0-20.024,1.389-40.048,4.137-59.504
	c2.666-18.919,6.66-37.513,11.842-55.276c5.091-17.418,11.365-34.177,18.675-49.831c6.355-13.612,13.536-26.468,21.365-38.3
	c8.278,5.026,17.833,7.743,27.625,7.743c9.784,0,19.332-2.714,27.607-7.733c13.919,21.045,25.683,45.15,34.724,71.363
	c1.066,3.062,3.954,5.13,7.188,5.13c0.841,0,1.683-0.142,2.484-0.426c3.964-1.369,6.073-5.698,4.705-9.662
	c-8.141-23.582-18.371-45.573-30.416-65.374c-3.359-5.517-6.858-10.848-10.477-15.998c-0.025-0.036-0.052-0.073-0.077-0.11
	c-9.352-13.286-19.542-25.315-30.446-35.884C224.378,0.76,222.502,0,220.515,0c-1.987,0-3.864,0.76-5.292,2.139
	c-10.751,10.421-20.882,22.353-30.139,35.467c-0.198,0.244-0.376,0.498-0.538,0.758c-0.263,0.374-0.532,0.739-0.793,1.115
	c-9.622,13.859-18.352,29.128-25.946,45.36c-7.655,16.364-14.223,33.873-19.537,52.021c-5.394,18.462-9.54,37.797-12.318,57.466
	c-2.839,20.145-4.288,40.899-4.288,61.673c0.01,25.914,2.251,51.626,6.651,76.425c4.28,24.14,10.616,47.489,18.838,69.389
	c8.091,21.575,18.017,41.741,29.483,59.939c2.554,4.054,5.195,7.991,7.896,11.841c0.132,0.213,0.275,0.422,0.431,0.625
	c9.301,13.177,19.439,25.131,30.262,35.642c1.429,1.379,3.305,2.139,5.292,2.139c1.987,0,3.863-0.76,5.292-2.139
	c10.776-10.467,20.875-22.362,30.144-35.473c0.247-0.306,0.467-0.627,0.66-0.957c2.661-3.799,5.265-7.68,7.783-11.678
	c11.467-18.189,21.382-38.365,29.482-59.939c8.222-21.899,14.559-45.249,18.838-69.389c4.401-24.799,6.642-50.511,6.651-76.425
	c0-36.752-4.452-72.684-13.221-106.79C305.274,145.854,302.252,143.502,298.785,143.502z M220.515,18.371
	c6.588,6.845,12.879,14.284,18.838,22.252c-5.701,3.25-12.194,5-18.838,5c-6.647,0-13.14-1.75-18.841-5
	C207.646,32.649,213.96,25.188,220.515,18.371z M220.515,493.629c-6.576-6.82-12.865-14.268-18.84-22.251
	c5.702-3.252,12.195-5.001,18.84-5.001s13.139,1.75,18.84,5.001C233.38,479.361,227.09,486.809,220.515,493.629z"/>
<path d="M268.671,271.207v-30.414c0-26.554-21.603-48.158-48.158-48.158c-26.554,0-48.158,21.604-48.158,48.158v30.414
	c0,26.554,21.604,48.158,48.158,48.158C247.067,319.365,268.671,297.761,268.671,271.207z M253.463,271.207
	c0,18.168-14.781,32.951-32.951,32.951s-32.95-14.782-32.95-32.951v-30.414c0-18.168,14.781-32.951,32.95-32.951
	s32.951,14.782,32.951,32.951V271.207z"/>
<path d="M236.033,83.333c-2.971-2.97-7.784-2.97-10.754,0l-4.763,4.763l-4.763-4.763c-2.971-2.97-7.784-2.97-10.754,0
	c-2.97,2.97-2.97,7.784,0,10.753l4.763,4.764l-4.761,4.762c-2.97,2.97-2.97,7.784,0,10.753c1.485,1.484,3.432,2.227,5.378,2.227
	s3.892-0.742,5.378-2.227l4.761-4.761l4.761,4.761c1.485,1.484,3.432,2.227,5.378,2.227c1.946,0,3.892-0.742,5.378-2.227
	c2.97-2.97,2.97-7.784,0-10.753l-4.761-4.762l4.763-4.764C239.002,91.118,239.002,86.303,236.033,83.333z"/>
<path d="M204.997,144.78l4.763,4.764l-4.761,4.762c-2.97,2.97-2.97,7.784,0,10.753c1.485,1.484,3.432,2.227,5.378,2.227
	s3.892-0.742,5.378-2.227l4.761-4.761l4.761,4.761c1.485,1.484,3.432,2.227,5.378,2.227c1.946,0,3.892-0.742,5.378-2.227
	c2.97-2.97,2.97-7.784,0-10.753l-4.761-4.762l4.763-4.764c2.97-2.97,2.97-7.784,0-10.754c-2.971-2.97-7.784-2.97-10.754,0
	l-4.763,4.763l-4.763-4.763c-2.971-2.97-7.784-2.97-10.754,0C202.028,136.997,202.028,141.812,204.997,144.78z"/>
<path d="M236.033,346.939c-2.971-2.97-7.784-2.97-10.754,0l-4.763,4.763l-4.763-4.763c-2.971-2.97-7.784-2.97-10.754,0
	c-2.97,2.97-2.97,7.784,0,10.753l4.763,4.764l-4.761,4.762c-2.97,2.97-2.97,7.784,0,10.753c1.485,1.484,3.432,2.227,5.378,2.227
	s3.892-0.742,5.378-2.227l4.761-4.761l4.761,4.761c1.485,1.484,3.432,2.227,5.378,2.227c1.946,0,3.892-0.742,5.378-2.227
	c2.97-2.97,2.97-7.784,0-10.753l-4.761-4.762l4.763-4.764C239.002,354.724,239.002,349.909,236.033,346.939z"/>
<path d="M236.033,397.633c-2.971-2.97-7.784-2.97-10.754,0l-4.763,4.763l-4.763-4.763c-2.971-2.97-7.784-2.97-10.754,0
	c-2.97,2.97-2.97,7.784,0,10.753l4.763,4.764l-4.761,4.762c-2.97,2.97-2.97,7.784,0,10.754c1.485,1.484,3.432,2.227,5.378,2.227
	s3.892-0.743,5.378-2.227l4.761-4.761l4.761,4.761c1.485,1.484,3.432,2.227,5.378,2.227c1.946,0,3.892-0.743,5.378-2.227
	c2.97-2.97,2.97-7.784,0-10.754l-4.761-4.762l4.763-4.764C239.002,405.418,239.002,400.602,236.033,397.633z"/>
<g>
</g>
<g>
</g>
<g>
</g>
<g>
</g>
<g>
</g>
<g>
</g>
<g>
</g>
<g>
</g>
<g>
</g>
<g>
</g>
<g>
</g>
<g>
</g>
<g>
</g>
<g>
</g>
<g>
</g>
</svg>
