<?xml version="1.0" encoding="iso-8859-1"?>
<!-- Generator: Adobe Illustrator 19.0.0, SVG Export Plug-In . SVG Version: 6.00 Build 0)  -->
<svg xmlns="http://www.w3.org/2000/svg" xmlns:xlink="http://www.w3.org/1999/xlink" version="1.1" id="Capa_1" x="0px" y="0px" viewBox="0 0 512.001 512.001" style="enable-background:new 0 0 512.001 512.001;" xml:space="preserve">
<g>
	<path style="fill:#DADADA;" d="M139.59,323.22c-4.902,17.451-9.824,35.01-14.72,52.527c24.286,12.006,40.621,34.267,45.964,58.79   c0.552,2.533,2.843,4.371,5.448,4.371h34.139L139.59,323.22L139.59,323.22z"/>
	<path style="fill:#DADADA;" d="M181.836,62.322c-3.998,14.054-13.054,43.896-21.65,74.359c4.298-2.258,9.431-2.946,14.468-1.509   c5.032,1.436,9.025,4.725,11.484,8.906c6.863-24.321,15.533-52.841,21.725-74.576C198.475,73.789,187.59,70.64,181.836,62.322z"/>
</g>
<path style="fill:#C0C0C0;" d="M174.723,135.194c7.028-24.846,14.3-49.106,18.82-64.547c-4.813-1.329-8.937-4.321-11.707-8.326  c-3.998,14.054-13.054,43.896-21.651,74.358c4.298-2.258,9.431-2.946,14.469-1.509C174.678,135.178,174.699,135.187,174.723,135.194  z"/>
<path style="fill:#D83D3D;" d="M219.583,11.403v0.001c-4.187-3.472-9.575-5.542-15.44-5.485h-26.236V5.917h-0.426v0.001v0.003  c-18.631,0-29.949,20.425-20.392,36.175c4.202,6.934,11.809,11.491,20.392,11.491v0.004v0.001h0.426v-0.001h26.236  c5.865,0.057,11.254-2.012,15.44-5.485v0.002C231.086,38.672,231.041,20.864,219.583,11.403z M198.735,29.755h0.001h0.001h-0.001  H198.735z"/>
<path style="fill:#B72C2C;" d="M209.541,53.006c-24.857-5.603-24.552-40.957,0-46.503c-4.512-1-5.43-0.41-31.634-0.585V5.917h-0.426  v0.001v0.003c-18.631,0-29.949,20.425-20.392,36.175c4.202,6.934,11.809,11.491,20.392,11.491v0.004v0.001h0.426v-0.001h26.236  C206,53.609,207.803,53.392,209.541,53.006z"/>
<path style="fill:#C0C0C0;" d="M126.141,377.74c21.489-76.877,44.475-156.616,62.961-221.374  c2.967-10.396-3.053-21.226-13.448-24.193c-10.395-2.965-21.226,3.052-24.193,13.448c-0.337,1.182-30.726,106.162-63.557,223.536  C101.622,368.913,114.576,372.023,126.141,377.74z"/>
<path style="fill:#AFAFB2;" d="M169.463,150.34c2-7.007,7.578-12.011,14.183-13.629c-2.198-2.061-4.895-3.655-7.993-4.54  c-10.396-2.965-21.226,3.052-24.193,13.448c-0.337,1.182-30.726,106.162-63.557,223.536c6.279-0.109,12.273,0.412,18.816,1.82  C139.237,254.778,169.129,151.511,169.463,150.34z"/>
<circle style="fill:#C0C0C0;" cx="198.142" cy="52.373" r="21.041"/>
<path style="fill:#AFAFB2;" d="M198.15,31.354c-16.04-0.023-26.373,17.432-18.228,31.539c8.146,14.111,28.43,13.881,36.427-0.016  C200.168,62.853,190.066,45.405,198.15,31.354z"/>
<circle style="fill:#635E5E;" cx="90.665" cy="449.307" r="55.193"/>
<path style="fill:#4C4846;" d="M74.322,459.369c-12.389-20.983-9.291-46.81,5.856-64.246c-37.265,7.212-56.489,49.298-37.034,82.247  c19.121,32.384,64.462,36.593,89.189,8.128C110.062,489.807,86.515,480.02,74.322,459.369z"/>
<path style="fill:#D83D3D;" d="M490.996,463.494c-7.458,0-13.504-6.045-13.504-13.504c0-30.805-25.061-55.866-55.866-55.866  c-26.84,0-49.925,19.104-54.894,45.424c-2.619,13.876-14.771,23.946-28.895,23.946H176.589c-15.113,0-28.415-10.709-31.629-25.464  c-5.542-25.441-28.499-43.907-54.586-43.907c-30.805,0-55.866,25.062-55.866,55.866c0,7.458-6.045,13.504-13.504,13.504  c-7.457,0-13.504-6.045-13.504-13.504c0-45.697,37.177-82.874,82.873-82.874c39.614,0,72.847,27.86,80.975,65.166  c0.531,2.436,2.734,4.204,5.24,4.204c168.023-0.843,162.895,1.811,163.604-1.949c7.375-39.067,41.624-67.421,81.433-67.421  c45.697,0,82.874,37.177,82.874,82.874C504.5,457.448,498.453,463.494,490.996,463.494z"/>
<path style="fill:#B72C2C;" d="M104.381,368.317C53.782,359.612,7.5,398.761,7.5,449.99c0,7.458,6.045,13.504,13.503,13.504  c7.458,0,13.504-6.045,13.504-13.504c0-6.192,1.028-12.146,2.896-17.717C44.564,399.537,71.12,373.991,104.381,368.317z"/>
<circle style="fill:#C0C0C0;" cx="90.665" cy="449.307" r="19.301"/>
<path style="fill:#AFAFB2;" d="M90.666,430.028c-14.914-0.015-24.211,16.24-16.621,29.097c7.527,12.748,26.004,12.569,33.334-0.18  C92.527,458.928,83.255,442.917,90.666,430.028z"/>
<circle style="fill:#635E5E;" cx="422.006" cy="449.307" r="55.193"/>
<path style="fill:#4C4846;" d="M405.661,459.369c-12.389-20.983-9.291-46.81,5.856-64.246c-37.265,7.212-56.49,49.298-37.035,82.247  c19.121,32.384,64.462,36.593,89.189,8.128C441.401,489.807,417.853,480.02,405.661,459.369z"/>
<circle style="fill:#C0C0C0;" cx="422.006" cy="449.307" r="19.301"/>
<path style="fill:#AFAFB2;" d="M422.099,449.474c-3.663-6.204-3.446-13.616-0.093-19.446c-14.914-0.015-24.211,16.24-16.621,29.097  c7.527,12.748,26.004,12.569,33.334-0.18C432.121,458.937,425.696,455.567,422.099,449.474z"/>
<path d="M422.275,476.112c14.777-0.146,26.684-12.285,26.54-27.064c-0.146-14.825-12.356-26.704-27.064-26.539  c-14.777,0.146-26.683,12.285-26.539,27.063C395.358,464.406,407.577,476.277,422.275,476.112z M422.014,437.509  c6.453,0,11.736,5.218,11.8,11.686c0.063,6.507-5.179,11.853-11.686,11.916c-0.038,0.001-0.077,0.001-0.116,0.001  c-6.453,0-11.735-5.219-11.799-11.687C410.15,442.877,415.459,437.509,422.014,437.509z"/>
<path d="M90.403,422.51c-14.777,0.146-26.683,12.285-26.538,27.063c0.145,14.853,12.383,26.703,27.063,26.54  c14.777-0.146,26.683-12.286,26.538-27.064C117.321,434.195,105.083,422.347,90.403,422.51z M90.665,461.112  c-6.453,0-11.736-5.218-11.799-11.687c-0.064-6.549,5.246-11.916,11.801-11.916c6.453,0,11.736,5.218,11.799,11.686  C102.53,455.745,97.221,461.112,90.665,461.112z"/>
<path d="M30.973,468.472c14.279,44.397,71.175,58.667,104.451,24.732c8.459-8.625,14.11-19.259,16.551-30.799  c6.86,5.398,15.466,8.59,24.613,8.59h161.247c8.614,0,16.637-2.99,22.993-8.056c1.308,5.884,3.451,11.57,6.383,16.837  c2.016,3.618,6.583,4.921,10.203,2.903c3.618-2.016,4.918-6.583,2.903-10.203c-17.64-31.671,5.645-70.85,41.323-70.85  c25.636,0.008,47.796,20.396,48.057,47.221c0.339,34.543-35.234,58.197-67.042,44.046c-3.784-1.686-8.217,0.018-9.902,3.802  c-1.684,3.784,0.018,8.218,3.802,9.902c8.059,3.587,16.614,5.404,25.439,5.404c0.21,0,0.421-0.001,0.631-0.003  c28.155-0.276,51.066-18.851,58.999-43.237c13.961,6.999,30.377-3.227,30.377-18.77c0-49.833-40.541-90.374-90.374-90.374  c-41.987,0-78.3,28.924-87.916,69.37h-71.089c-4.143,0-7.5,3.357-7.5,7.5c0,4.143,3.357,7.5,7.5,7.5h75.217  c4.755,0,8.847-3.389,9.728-8.057c6.706-35.527,37.855-61.314,74.062-61.314c41.561,0,75.374,33.813,75.374,75.374  c0,3.31-2.693,6.003-6.003,6.003c-3.31,0-6.003-2.693-6.003-6.003c0-34.491-27.723-63.369-62.963-63.369  c-0.209,0-0.42,0.001-0.628,0.003c-0.103,0.001-0.204,0.009-0.307,0.011c-30.214,0.251-56.128,21.834-61.734,51.521  c-1.95,10.337-11.004,17.838-21.524,17.838h-161.25c-11.612,0-21.831-8.227-24.3-19.561c-1.777-8.158-5.134-15.681-9.701-22.279  c-35.132-51.656-115.581-25.4-115.581,35.837c0,3.31-2.693,6.003-6.003,6.003s-6.002-2.693-6.002-6.003  c0-41.951,34.267-75.374,75.373-75.374c34.353,0,65.925,23.817,73.646,59.263c1.276,5.856,6.562,10.108,12.569,10.108  c11.294,0,40.269,0,51.028,0c4.142,0,7.5-3.357,7.5-7.5c0-4.143-3.358-7.5-7.5-7.5h-13.992l-64.221-104.889  c15.703-55.882,31.921-113.166,46.91-165.673c1.777-6.227,1.211-12.576-1.169-18.105c6.149-21.783,12.218-43.187,18.066-63.725  c7.984-4.986,13.335-13.806,13.459-23.865c18.891-20.166,4.162-52.933-23.156-52.726c-26.689,0,30.975,0-26.934,0  c-17.279,0.17-31.199,14.364-31.03,31.643c0.149,15.218,11.286,27.902,25.785,30.523c0.403,1.099,0.878,2.163,1.408,3.194  c-4.211,14.807-10.482,36.903-17.981,63.468c-8.43,5.892-10.527,14.853-10.578,14.956c-0.587,2.059-5.021,17.606-12.033,42.303  c-1.131,3.984,1.182,8.132,5.167,9.264c3.983,1.13,8.133-1.182,9.264-5.167c3.736-13.16,8.443-29.719,12.091-42.506  c1.186-4.154,4.405-7.102,8.143-8.236l0,0c9.062-2.743,17.693,5.687,15.073,14.866c-19.768,69.247-40.969,144.337-59.658,211.139  c-7.466-2.8-15.443-4.678-23.54-5.438c12.071-43.114,24.948-88.836,38.317-136.058c1.128-3.985-1.188-8.131-5.173-9.261  c-3.98-1.129-8.13,1.188-9.26,5.174c-13.783,48.682-27.039,95.759-39.432,140.042C36.679,363.601,0,402.591,0,449.99  C0,465.994,17.181,475.941,30.973,468.472z M90.658,496.999c-26.079-0.002-47.423-21.087-47.678-47.223  c-0.439-45.062,57.446-66.384,85.966-28.91C151.971,451.719,130.325,496.999,90.658,496.999z M184.746,54.184  c-1.242-9.348,7.021-16.833,15.983-15.091c12.492,2.454,15.269,19.954,3.04,25.577C195.486,68.479,185.945,63.117,184.746,54.184z   M176.667,15.002l0.22,0.004c0.001,0-0.613-0.005,26.899-0.005c10.044,0,17.729,8.991,16.123,18.949  c-15.551-18.342-44.68-10.316-49.645,12.309C154.229,39.089,159.304,15.257,176.667,15.002z M184.852,77.622  c3.418,1.806,7.392,2.981,11.548,3.237c-4.293,15.094-8.694,30.616-13.146,46.367c-3.537-1.933-7.563-3.054-11.529-3.271  C176.881,105.71,181.357,89.925,184.852,77.622z M196.036,428.986h-17.747c-5.561-23.313-20.599-44.358-42.309-57.004  c2.269-8.113,5.06-18.079,7.895-28.189L196.036,428.986z"/>
<g>
</g>
<g>
</g>
<g>
</g>
<g>
</g>
<g>
</g>
<g>
</g>
<g>
</g>
<g>
</g>
<g>
</g>
<g>
</g>
<g>
</g>
<g>
</g>
<g>
</g>
<g>
</g>
<g>
</g>
</svg>
