<?xml version="1.0" encoding="iso-8859-1"?>
<!-- Generator: Adobe Illustrator 19.0.0, SVG Export Plug-In . SVG Version: 6.00 Build 0)  -->
<svg xmlns="http://www.w3.org/2000/svg" xmlns:xlink="http://www.w3.org/1999/xlink" version="1.1" id="Capa_1" x="0px" y="0px" viewBox="0 0 511.991 511.991" style="enable-background:new 0 0 511.991 511.991;" xml:space="preserve">
<g>
	<path style="fill:#DADADA;" d="M136.459,325.842c-5.034,17.92-10.087,35.951-15.115,53.938   c24.939,12.329,41.713,35.187,47.199,60.369c0.567,2.601,2.92,4.489,5.595,4.489h35.057L136.459,325.842L136.459,325.842z"/>
	<path style="fill:#DADADA;" d="M179.839,57.936c-4.106,14.432-13.404,45.075-22.232,76.355c4.414-2.319,9.684-3.025,14.857-1.549   c5.167,1.475,9.267,4.852,11.792,9.145c7.048-24.975,15.95-54.26,22.309-76.579C196.924,69.712,185.748,66.478,179.839,57.936z"/>
</g>
<path style="fill:#C0C0C0;" d="M172.535,132.766c7.218-25.513,14.684-50.425,19.325-66.281c-4.943-1.365-9.176-4.437-12.021-8.549  c-4.106,14.432-13.404,45.075-22.232,76.356c4.414-2.319,9.684-3.025,14.857-1.55C172.488,132.749,172.51,132.759,172.535,132.766z"/>
<path style="fill:#D83D3D;" d="M218.6,5.649L218.6,5.649c-4.299-3.564-9.832-5.69-15.855-5.631h-26.941V0.017h-0.437v0.001v0.003  c-19.131,0-30.754,20.974-20.94,37.147c4.315,7.121,12.126,11.799,20.94,11.799v0.004v0.001h0.437v-0.001h26.941  c6.023,0.059,11.555-2.067,15.855-5.633v0.002C230.412,33.651,230.365,15.365,218.6,5.649z M197.192,24.494h0.001  c0.001,0,0.001,0,0.001,0s0,0-0.001,0H197.192z"/>
<path style="fill:#B72C2C;" d="M208.288,48.37c-25.524-5.754-25.212-42.058,0-47.752c-4.633-1.027-5.577-0.421-32.484-0.6V0.017  h-0.437v0.001v0.003c-19.131,0-30.754,20.974-20.94,37.147c4.315,7.121,12.126,11.799,20.94,11.799v0.004v0.001h0.437v-0.001h26.941  C204.653,48.989,206.503,48.766,208.288,48.37z"/>
<path style="fill:#C0C0C0;" d="M122.648,381.826c22.066-78.941,45.669-160.823,64.652-227.321  c3.047-10.674-3.136-21.797-13.809-24.844c-10.674-3.044-21.797,3.134-24.843,13.809c-0.346,1.214-31.551,109.015-65.264,229.54  C97.47,372.763,110.772,375.956,122.648,381.826z"/>
<path style="fill:#AFAFB2;" d="M167.134,148.318c2.054-7.195,7.782-12.333,14.564-13.995c-2.258-2.117-5.027-3.754-8.208-4.662  c-10.674-3.044-21.797,3.134-24.844,13.809c-0.346,1.213-31.551,109.015-65.264,229.54c6.448-0.112,12.603,0.423,19.321,1.869  C136.096,255.563,166.791,149.522,167.134,148.318z"/>
<circle style="fill:#C0C0C0;" cx="196.585" cy="47.722" r="21.602"/>
<path style="fill:#AFAFB2;" d="M196.59,26.136c-16.471-0.024-27.081,17.9-18.717,32.386c8.366,14.49,29.194,14.254,37.406-0.017  C198.664,58.481,188.29,40.564,196.59,26.136z"/>
<circle style="fill:#635E5E;" cx="86.215" cy="455.32" r="56.671"/>
<path style="fill:#4C4846;" d="M69.437,465.649c-12.722-21.547-9.54-48.067,6.013-65.972c-38.266,7.407-58.007,50.622-38.03,84.457  c19.635,33.254,66.194,37.576,91.585,8.346C106.137,496.904,81.957,486.854,69.437,465.649z"/>
<path style="fill:#D83D3D;" d="M497.303,469.884c-7.658,0-13.866-6.208-13.866-13.866c0-31.633-25.735-57.367-57.367-57.367  c-27.56,0-51.267,19.617-56.369,46.643c-2.689,14.249-15.168,24.59-29.671,24.59H174.451c-15.519,0-29.178-10.997-32.479-26.148  c-5.691-26.124-29.265-45.086-56.052-45.086c-31.632,0-57.367,25.735-57.367,57.367c0,7.658-6.208,13.866-13.866,13.866  S0.82,463.675,0.82,456.017c0-46.924,38.175-85.1,85.1-85.1c40.678,0,74.804,28.608,83.15,66.916  c0.545,2.502,2.808,4.317,5.381,4.317c172.537-0.865,167.27,1.859,167.998-2.001c7.573-40.116,42.741-69.232,83.621-69.232  c46.924,0,85.1,38.176,85.1,85.1C511.169,463.676,504.961,469.884,497.303,469.884z"/>
<path style="fill:#B72C2C;" d="M100.304,372.151c-51.959-8.94-99.483,31.261-99.483,83.866c0,7.659,6.208,13.866,13.866,13.866  s13.866-6.208,13.866-13.866c0-6.359,1.056-12.472,2.974-18.193C38.879,404.209,66.149,377.977,100.304,372.151z"/>
<circle style="fill:#C0C0C0;" cx="86.215" cy="455.32" r="19.82"/>
<path style="fill:#AFAFB2;" d="M86.221,435.519c-15.314-0.016-24.862,16.676-17.068,29.878c7.73,13.09,26.702,12.906,34.229-0.185  C88.13,465.196,78.61,448.755,86.221,435.519z"/>
<circle style="fill:#635E5E;" cx="426.454" cy="455.32" r="56.671"/>
<path style="fill:#4C4846;" d="M409.676,465.649c-12.722-21.547-9.54-48.067,6.013-65.972c-38.267,7.407-58.007,50.622-38.03,84.457  c19.635,33.254,66.194,37.576,91.585,8.346C446.376,496.904,422.195,486.854,409.676,465.649z"/>
<circle style="fill:#C0C0C0;" cx="426.454" cy="455.32" r="19.82"/>
<path style="fill:#AFAFB2;" d="M426.556,455.488c-3.762-6.371-3.538-13.982-0.096-19.968c-15.314-0.016-24.862,16.676-17.068,29.878  c7.73,13.09,26.702,12.906,34.229-0.185C436.846,465.205,430.25,461.744,426.556,455.488z"/>
<g>
</g>
<g>
</g>
<g>
</g>
<g>
</g>
<g>
</g>
<g>
</g>
<g>
</g>
<g>
</g>
<g>
</g>
<g>
</g>
<g>
</g>
<g>
</g>
<g>
</g>
<g>
</g>
<g>
</g>
</svg>
