<svg id="Capa_1" enable-background="new 0 0 512 512" viewBox="0 0 512 512" xmlns="http://www.w3.org/2000/svg"><g><g><path d="m339.027 164.744c.418-8.26-1.28-16.49-4.931-23.911-1.802-3.663-1.7-7.976.273-11.549l2.945-5.333c1.315-2.38 4.257-3.324 6.71-2.151l11.19 5.346c8.026 4.436 18.093.262 20.626-8.552l3.316-11.541c.411-1.429 1.904-2.208 3.336-1.806 6.173 1.734 11.713-4.286 9.454-10.303l-3.8-10.123c-.687-1.831-.767-3.835-.227-5.715l2.476-8.618c5.288-18.404-5.345-37.61-23.749-42.898s-37.61 5.345-42.898 23.749l-3.368 11.72-11.139 13.843c-.117 3.689-.65 8.167-1.836 11.689l-2.703 7.845c-3.466 10.058-10.673 18.394-20.124 23.277l-6.768 3.274 32.752 41.611c7.234 9.189 21.137 9.261 28.465.146z" fill="#ffdec5"/><path d="m300.137 233.385 14.541 9.176 7.61 11.397 7.546 7.008c3.077 2.929 7.323 4.291 11.53 3.7l79.961-11.237c1.288-.16 2.594-.081 3.853.233l8.932 2.23c9.749 2.434 20.075.462 28.241-5.392l.558-.4c6.477-4.644 9.232-12.743 6.973-20.236-.076-.252-.152-.504-.228-.755-2.06-6.835-7.927-11.831-15.002-12.776-.133-.018-.267-.036-.4-.053-9.683-1.294-19.534.243-28.363 4.424l-5.193 2.459c-1.378.652-2.881.998-4.405 1.014l-63.703.649c-2.247.023-4.233-1.456-4.855-3.615l-2.641-9.266-7.543-14.278-2.682-21.6z" fill="#ffdec5"/><path d="m345.09 211.947-22.8 42.01-22.15-20.57 34.73-57.32z" fill="#ffcdab"/><path d="m287.851 257.686 34.764-59.783c5.7-10.5 11.028-27.859 11.028-27.859s-4.141.188-7.743-3.986c-4.653-.866-9.035-3.132-12.49-6.671l-.79-.81c-5.54-5.67-9.79-12.47-12.46-19.93-4.61-12.89-16.77-21.08-29.91-21.08-2.59 0-5.21.32-7.83.98l-27.169 43.466-12.79 40.205 1.424 22.245z" fill="#fd8087"/><path d="m339.03 164.747c-.61 11.94-3.88 23.59-9.58 34.09l-34.07 62.76-47.384-7.64-31.406-33.28 5.87-18.46 56.862 29.533c4.946 2.569 11.038.703 13.697-4.195l29.281-53.938c1.34-2.46 2.54-4.98 3.6-7.56 1.42.27 2.87.4 4.32.4 2.96 0 5.95-.56 8.81-1.71z" fill="#fe646f"/><g><path d="m5 465.487h502c2.761 0 5 2.239 5 5v36.51c0 2.761-2.239 5-5 5h-502c-2.761 0-5-2.239-5-5v-36.51c0-2.761 2.239-5 5-5z" fill="#fd8087"/><g><path d="m235.219 331.37-13.73 12.293-4.481 13.505-18.896 26.769c-3.935 5.643-9.477 9.974-15.9 12.428l-68.911 25.777-23.217-10.825-.904-24.582 21.426-16.696c11.803-9.387 25.253-16.415 39.614-20.751l8.685 2.199 11.806-6.768 9.491-21.384 9.196-12.4 8.661-27.833z" fill="#626272"/><path d="m235.217 331.374-18.207 25.795c-9.307-4.399-17.777-10.506-24.89-17.936-4.591-4.795-8.595-10.155-11.919-15.9l17.857-40.237z" fill="#565668"/><path d="m353.178 344.922c0 8.821-3.585 17.257-9.918 23.375l-67.381 69.197-24.921-6.747-15.688-21.073 10.238-17.425c5.22-9.442 11.712-17.592 19.508-24.517l16.104-6.906.26-5.263-48.085-16.171c-9.567-3.223-18.049-8.696-24.823-15.787s-11.84-15.81-14.611-25.524c-4.569-15.979-2.454-33.123 5.847-47.519 1.963-3.351 16.755-29.666 16.883-29.889l78.789 40.926-4.797 9.521-11.937 4.159 4.25 11.098 53.705 30.206c5.123 2.872 9.262 7.023 12.123 11.919 2.871 4.896 4.454 10.539 4.454 16.42z" fill="#73737f"/><path d="m235.27 409.674-11.102 20.866 30.086 25.477 21.625-18.524z" fill="#ffdec5"/><path d="m271.913 495.746-.226.351c-3.811 5.835-11.784 7.385-17.811 3.46l-41.175-26.847c-6.028-3.935-7.814-11.852-4.003-17.698l15.47-24.472 32.999 22.606 5.971 3.902c13.174 8.594 17.11 25.919 8.775 38.698z" fill="#f8feff"/><path d="m113.301 422.142-34.688 12.825-13.061-27.904 23.627-20.329z" fill="#ffdec5"/><path d="m85.972 432.22-20.422-25.157-21.77 17.672c-5.415 4.396-6.13 12.487-1.596 18.072l30.979 38.162c4.534 5.585 12.599 6.549 18.014 2.153l.321-.261c11.846-9.616 13.408-27.315 3.491-39.532z" fill="#f8feff"/></g></g><path d="m309.391 35.529-2.183 7.598c-3.214 11.187-2.506 23.136 2.008 33.865l2.115.608c6.444 1.852 13.17-1.872 15.021-8.316 2.17-7.552 10.051-11.915 17.603-9.745 4.251 1.222 8.714 1.219 12.904.07 0 0 2.412-2.91 4.218-3.962l10.732-3.817 16.895 10.806c4.831 3.091 11.276.658 12.859-4.854 5.284-18.389-5.34-37.579-23.729-42.862l-20.547-5.904c-20.548-5.908-41.992 5.964-47.896 26.513z" fill="#f2ac7c"/><path d="m263.71 148.817-.27.66c-3.81 9.37-12.43 15.92-22.49 17.07l-24.05 2.75c-3.92.5-7.43 2.71-9.58 6.03l-38.73 63.18c-.77 1.25-1.27 2.65-1.46 4.11l-.69 5.49c-.59 4.67-1.85 9.21-3.73 13.48-1.87 4.27-4.36 8.27-7.4 11.87-3.49 4.13-8.59 6.42-13.84 6.42-1.64 0-3.29-.22-4.92-.68-3.73-1.06-6.91-3.23-9.22-6.11s-3.73-6.47-3.95-10.33c-.55-9.97 3.31-19.67 10.56-26.54l6.1-5.77c.9-.86 1.65-1.88 2.18-3.01l39.92-81.95c2.68-5.62 7.72-9.76 13.75-11.3l66.53-15.64 1.54 3.97c3.28 8.51 3.18 17.85-.25 26.3z" fill="#ffdec5"/></g><path d="m504.5 457.987h-231.246c-1.815-1.776-3.916-3.317-6.055-4.757l47.788-46.221c2.977-2.88 3.056-7.628.177-10.605-2.881-2.978-7.628-3.057-10.605-.177l-30.803 29.793-27.558-19.153 5.372-9.856c7.264-13.133 17.819-24.242 30.547-32.185l5.923 1.992c.793.267 1.599.394 2.392.394 3.132 0 6.054-1.978 7.107-5.111 1.321-3.926-.792-8.179-4.717-9.5l-57.684-19.403c-16.883-5.678-29.884-19.293-34.777-36.421-4.003-14.01-2.123-29.283 5.159-41.904l13.976-24.224 65.585 34.243-6.239 11.499-12.053-6.78c-3.61-2.032-8.183-.75-10.213 2.86-2.031 3.61-.75 8.183 2.86 10.213l73.345 41.257c7.909 4.449 12.822 12.85 12.822 21.924 0 6.778-2.794 13.368-7.667 18.08l-9.053 8.756c-2.977 2.88-3.056 7.628-.177 10.605 1.472 1.521 3.431 2.286 5.392 2.286 1.877 0 3.757-.701 5.213-2.109l9.053-8.756c7.777-7.522 12.238-18.042 12.238-28.862 0-14.485-7.843-27.896-20.468-34.997l-48.217-27.122 17.296-31.878 15.453 14.532c4.756 4.547 11.313 6.612 17.744 5.695l79.884-11.227c.36-.041.72-.016 1.07.071l8.932 2.23c11.904 2.974 24.454.578 34.426-6.572 9.383-6.377 13.615-18.111 10.346-28.891-2.724-10.1-11.413-17.647-21.82-18.861-11.14-1.489-22.404.268-32.566 5.08l-5.195 2.46c-.394.187-.833.288-1.269.292l-8.801.089c-4.142.042-7.465 3.434-7.423 7.576.042 4.116 3.391 7.424 7.498 7.424.068 0 8.804-.089 8.879-.09 2.592-.026 5.199-.627 7.538-1.735l5.193-2.459c7.539-3.57 15.893-4.875 24.172-3.767 4.591.437 8.374 3.85 9.43 8.314 1.428 4.655-.577 9.721-4.72 12.376-6.389 4.58-14.428 6.114-22.054 4.211l-8.934-2.231c-2.202-.549-4.465-.679-6.712-.383l-79.96 11.237c-1.951.274-3.889-.347-5.349-1.736l-18.364-17.27 18.433-33.972 5.486 19.028c1.539 5.337 6.467 9.037 12.013 9.037.098.001 19.913-.203 20.027-.204 4.142-.042 7.465-3.434 7.423-7.576-.042-4.116-3.392-7.423-7.498-7.423-.026 0-.052 0-.078 0l-18 .184c-.078-.226-10.228-35.56-10.322-35.761 1.324-5.388 2.146-10.898 2.426-16.423v-.001c.481-9.512-1.487-19.056-5.692-27.601-.719-1.462-.678-3.186.11-4.613l1.868-3.382 8.999 4.299c5.789 3.117 12.576 3.462 18.658.939 6.159-2.554 10.748-7.694 12.589-14.102l2.193-7.632c4.008-.157 7.847-1.892 10.666-4.961 3.931-4.282 5.104-10.322 3.061-15.765l-3.8-10.122c-.122-.326-.136-.675-.04-1.009.383-1.381 2.686-9.212 2.953-10.439 5.212-1.537 9.199-5.68 10.692-10.887 3.108-10.819 1.818-22.201-3.634-32.05-5.452-9.848-14.413-16.984-25.232-20.092l-20.547-5.904c-24.492-7.033-50.139 7.164-57.176 31.654l-2.189 7.601c-3.546 12.343-2.894 25.621 1.795 37.558-.107 4.654-2.72 10.997-4.183 15.378-2.638 7.656-7.851 14.019-14.774 18.109-6.927-2.334-14.582-2.756-22.194-.836l-22.767 5.351c-4.032.948-6.533 4.985-5.585 9.017s4.986 6.532 9.017 5.585l16.402-3.855c1.867 6.351 1.426 13.159-1.219 19.285-2.779 6.838-9.061 11.607-16.394 12.447l-24.143 2.766c-6.186.786-11.685 4.273-15.025 9.541l-38.698 63.138c-1.343 2.151-2.221 4.619-2.539 7.134l-.694 5.493c-1.001 7.926-4.257 15.342-9.415 21.445-2.682 3.174-6.998 4.496-10.997 3.365-4.365-1.233-7.466-5.104-7.717-9.631-.431-7.785 2.568-15.324 8.229-20.684l6.095-5.772c1.585-1.501 2.864-3.261 3.772-5.17l39.945-82.01c1.715-3.603 4.91-6.238 8.772-7.237l9.543-2.243c4.032-.948 6.533-4.985 5.584-9.018-.948-4.032-4.979-6.531-9.017-5.585l-9.616 2.26c-8.276 2.058-15.145 7.675-18.781 15.314l-39.945 82.01c-.141.296-.334.562-.572.787l-6.094 5.771c-8.869 8.398-13.568 20.21-12.892 32.406.606 10.924 8.087 20.262 18.616 23.236 2.29.646 4.622.96 6.935.96 7.433 0 14.662-3.24 19.597-9.079 7.033-8.323 11.473-18.436 12.839-29.246l.694-5.493c.048-.384.177-.744.414-1.124l38.671-63.093c.955-1.434 2.475-2.379 4.095-2.585l5.124-.587-13.189 41.461-17.165 29.751c-8.192 14.2-11.024 31.029-8.089 47.068l-17.939 40.411c-1.16 2.611-3.527 4.489-6.333 5.022-4.326.822-8.657 1.882-12.873 3.151-3.966 1.194-6.214 5.377-5.02 9.343.977 3.246 3.955 5.34 7.179 5.34.716 0 1.444-.104 2.165-.32 3.717-1.119 7.536-2.054 11.35-2.778 7.641-1.452 14.086-6.563 17.243-13.672l11.513-25.936c6.186 11.342 15.443 20.743 26.721 27.101l-27.173 38.631c-3.105 4.451-7.425 7.827-12.436 9.741l-60.509 22.546-18.164-24.891 14.074-11.188c2.472-1.965 5.057-3.847 7.683-5.591 3.45-2.292 4.388-6.948 2.096-10.397s-6.947-4.388-10.397-2.096c-2.979 1.979-5.911 4.113-8.715 6.342-14.366 11.388-50.025 39.717-63.724 51.02-4.199 3.409-6.776 8.283-7.257 13.723-.473 5.354 1.15 10.622 4.565 14.829l10.699 13.21h-41.683c-4.142 0-7.5 3.358-7.5 7.5s3.358 7.5 7.5 7.5h53.832l9.184 11.339c4.087 5.034 10.042 7.657 16 7.657 4.543.011 9.132-1.559 12.821-4.676 4.815-3.908 8.287-8.874 10.381-14.32h91.337c1.621 3.07 3.993 5.709 6.971 7.651l42.394 27.978c9.325 6.165 22.346 3.685 28.351-5.982 5.135-7.874 6.804-17.322 4.7-26.603-.234-1.032-.518-2.045-.837-3.043h221.866c4.142 0 7.5-3.358 7.5-7.5s-3.358-7.499-7.5-7.499zm-190.083-412.789 2.183-7.598c4.701-16.68 22.512-26.14 38.617-21.379l20.547 5.904c6.968 2.002 12.739 6.598 16.251 12.94 3.511 6.343 4.343 13.674 2.34 20.643-.099.343-.318.581-.652.708-.336.126-.657.091-.958-.1l-16.89-10.805c-3.496-1.921-6.162-5.207-6.716-9.221-.621-4.095-4.44-6.91-8.54-6.292-4.095.621-6.912 4.444-6.292 8.54.662 4.369 2.371 8.456 4.92 11.946-3.922 2.43-8.764 3.128-13.201 1.846-5.578-1.603-11.446-.937-16.523 1.874-5.078 2.811-8.756 7.431-10.359 13.008-.57 1.984-2.356 3.296-4.317 3.358-2.634-8.191-2.796-17.068-.41-25.372zm-2.624 53.68c1.172-3.517 3.561-9.767 4.181-13.358 8.025-.537 15.24-6.001 17.587-14.166.496-1.728 1.635-3.158 3.208-4.028 1.572-.871 3.389-1.078 5.116-.58 8.188 2.352 17.103 1.241 24.461-3.049l5.288-3.082 11.64 7.446c-.087.462-2.453 8.534-2.563 8.972-.978 3.403-.831 7.104.414 10.421l3.801 10.123c.044.117.073.195-.067.348-.139.153-.222.13-.339.098-5.392-1.516-11.034 1.605-12.571 6.956l-3.316 11.542c-.573 1.994-2 3.593-3.917 4.388-1.917.793-4.056.674-5.872-.329-.477-.272-11.109-5.306-11.585-5.549-6.028-2.878-13.278-.554-16.508 5.293l-2.944 5.332c-3.158 5.716-3.322 12.627-.438 18.488 2.277 4.626 3.652 9.652 4.076 14.772-5.023.438-10.038-1.692-13.46-5.583-4.819-4.931-8.44-10.723-10.761-17.215-2.212-6.185-5.803-11.478-10.307-15.653 6.784-5.655 11.938-13.062 14.876-21.587zm-69.988 75.12c12.785-1.464 23.737-9.779 28.583-21.703 3.657-8.631 4.435-18.122 2.257-27.12 9.107.878 17.192 6.879 20.451 15.993 3.054 8.542 7.817 16.162 14.157 22.649 6.047 6.595 14.545 10.236 23.141 10.161-1.392 7.43-3.941 14.658-7.537 21.286l-30.624 56.442-66.586-34.765 13.566-42.646zm20.96 262.652-8.068 7.803-20.965-14.718 5.243-9.62zm-78.638-32.135c7.888-3.013 14.612-8.267 19.426-15.17l28.977-41.196 32.004 10.765c-10.604 8.445-19.511 18.938-26.115 30.879l-19.959 36.618-16.617 26.29c-1.075 1.658-1.877 3.438-2.41 5.287h-87.438c-.458-7.262-3.113-14.499-8.079-20.617l-1.847-2.281zm-95.72-7.038 15.317 20.99-11.611 4.326-13.923-17.195zm1.479 78.183c-2.177 2.035-5.713 1.696-7.719-.781l-32.032-39.549c-.95-1.17-1.402-2.613-1.274-4.062.12-1.362.749-2.568 1.769-3.397l15.866-12.879 25.77 31.825c7.26 8.945 6.191 21.885-2.38 28.843zm176.32 18.78c-1.449 2.601-4.92 3.359-7.559 1.634l-42.394-27.978c-1.262-.823-2.135-2.058-2.457-3.477-.302-1.333-.074-2.674.645-3.775.039-.058 11.477-18.159 11.525-18.233.196.132 33.506 23.533 33.68 23.639 4.711 3.072 7.977 7.723 9.195 13.097 1.199 5.288.263 10.648-2.635 15.093z"/></g><g/><g/><g/><g/><g/><g/><g/><g/><g/><g/><g/><g/><g/><g/><g/></svg>