<svg id="Capa_1" enable-background="new 0 0 512 512" viewBox="0 0 512 512" xmlns="http://www.w3.org/2000/svg"><g><path d="m5 465.49h502c2.761 0 5 2.239 5 5v36.51c0 2.761-2.239 5-5 5h-502c-2.761 0-5-2.239-5-5v-36.51c0-2.761 2.239-5 5-5z" fill="#fd8087"/><g><path d="m340.303 159.633c.424-8.385-1.299-16.74-5.006-24.274-1.83-3.719-1.726-8.097.278-11.725l2.99-5.414c1.335-2.416 4.321-3.374 6.812-2.184l11.359 5.427c8.148 4.503 18.368.266 20.939-8.682l3.367-11.717c.417-1.451 1.933-2.242 3.386-1.834 6.267 1.76 11.891-4.352 9.598-10.459l-3.858-10.277c-.698-1.859-.779-3.893-.23-5.801l2.514-8.749c5.368-18.683-5.426-38.181-24.109-43.549-18.683-5.368-38.181 5.426-43.549 24.109l-3.419 11.898-11.308 14.053c-.119 3.745-.66 8.291-1.864 11.866l-2.744 7.964c-3.519 10.21-10.835 18.673-20.43 23.63l-6.871 3.324 33.249 42.243c7.343 9.332 21.457 9.405 28.896.151z" fill="#ffdec5"/><path d="m300.823 229.316 14.762 9.316 7.725 11.57 7.66 7.115c3.124 2.973 7.434 4.356 11.705 3.756l81.175-11.408c1.307-.162 2.633-.082 3.911.237l9.068 2.264c9.896 2.471 20.379.469 28.669-5.474l.566-.406c6.575-4.714 9.372-12.937 7.079-20.543-.077-.256-.154-.512-.231-.767-2.092-6.938-8.047-12.011-15.23-12.97-.135-.018-.271-.036-.406-.054-9.83-1.313-19.83.247-28.793 4.491l-5.271 2.497c-1.399.662-2.924 1.014-4.472 1.029l-64.67.659c-2.281.023-4.297-1.478-4.929-3.669l-2.681-9.406-7.658-14.495-2.723-21.928z" fill="#ffdec5"/><path d="m346.458 207.553-23.146 42.647-22.486-20.882 35.257-58.19z" fill="#ffcdab"/><path d="m288.35 253.986 35.292-60.69c5.786-10.659 11.196-28.282 11.196-28.282s-4.204.191-7.861-4.047c-4.724-.88-9.172-3.18-12.679-6.773l-.802-.822c-5.624-5.756-9.939-12.659-12.649-20.232-4.68-13.086-17.024-21.4-30.364-21.4-2.629 0-5.289.325-7.949.995l-27.581 44.125-12.984 40.815 1.446 22.583z" fill="#fd8087"/><path d="m340.306 159.636c-.619 12.121-3.939 23.948-9.725 34.607l-34.587 63.712-48.103-7.756-31.883-33.785 5.959-18.74 57.725 29.982c5.021 2.608 11.205.714 13.904-4.259l29.725-54.757c1.36-2.497 2.579-5.056 3.655-7.675 1.442.274 2.914.406 4.385.406 3.006.001 6.042-.567 8.945-1.735z" fill="#fe646f"/><g><path d="m234.92 328.788-13.938 12.48-4.549 13.71-19.182 27.175c-3.995 5.729-9.621 10.126-16.141 12.617l-69.957 26.168-23.57-10.99-.918-24.955 21.751-16.949c11.982-9.53 25.636-16.665 40.216-21.066l8.817 2.233 11.985-6.871 9.635-21.708 9.336-12.588 8.792-28.255z" fill="#626272"/><path d="m234.917 328.792-18.483 26.187c-9.448-4.466-18.047-10.665-25.268-18.208-4.661-4.868-8.725-10.309-12.1-16.141l18.128-40.847z" fill="#565668"/><path d="m354.669 342.545c0 8.955-3.639 17.519-10.068 23.73l-68.403 70.247-25.299-6.849-15.927-21.393 10.393-17.69c5.299-9.586 11.89-17.859 19.804-24.889l16.349-7.01.264-5.342-48.814-16.417c-9.712-3.272-18.323-8.828-25.199-16.027-6.877-7.198-12.02-16.049-14.833-25.911-4.638-16.222-2.491-33.626 5.935-48.24 1.993-3.402 17.009-30.116 17.139-30.342l79.985 41.547-4.87 9.665-12.118 4.222 4.314 11.266 54.52 30.664c5.201 2.916 9.402 7.129 12.307 12.1 2.914 4.971 4.521 10.699 4.521 16.669z" fill="#73737f"/><path d="m234.971 408.28-11.27 21.183 30.543 25.863 21.953-18.804z" fill="#ffdec5"/><g><path d="m298.082 367.986c-1.205 3.593-4.558 5.866-8.163 5.866-.907 0-1.825-.149-2.744-.459l-22.008-7.692c4.213-3.754 8.794-7.141 13.753-10.172l2.859-2.181 10.883 3.731c4.513 1.516 6.936 6.395 5.42 10.907z" fill="#626272"/></g><g><path d="m291.125 267.624-7.807 15.487-19.551-11.124c-4.144-2.331-5.614-7.577-3.283-11.721s7.577-5.614 11.721-3.283z" fill="#626272"/></g><path d="m272.171 495.658-.23.356c-3.869 5.924-11.962 7.497-18.082 3.513l-41.8-27.254c-6.119-3.995-7.933-12.031-4.064-17.967l15.705-24.843 33.5 22.949 6.062 3.961c13.375 8.725 17.37 26.313 8.909 39.285z" fill="#f8feff"/><path d="m111.152 420.937-35.215 13.02-13.259-28.327 23.986-20.638z" fill="#ffdec5"/><path d="m83.408 431.168-20.732-25.539-22.1 17.94c-5.497 4.463-6.223 12.676-1.62 18.346l31.449 38.741c4.603 5.67 12.79 6.648 18.287 2.186l.326-.265c12.025-9.762 13.612-27.73 3.544-40.132z" fill="#f8feff"/><g><path d="m169.433 342.338-10.688 24.292c-1.424 3.203-4.569 5.12-7.876 5.12-1.16 0-2.353-.241-3.49-.746-4.34-1.929-6.303-7.014-4.374-11.366l5.625-12.663c4.053-1.228 8.186-2.239 12.364-3.031z" fill="#565668"/></g></g><path d="m310.218 28.457-2.216 7.713c-3.263 11.356-2.544 23.487 2.038 34.378l2.147.617c6.542 1.88 13.369-1.9 15.249-8.442 2.203-7.667 10.204-12.096 17.871-9.893 4.316 1.24 8.846 1.237 13.1.071 0 0 2.449-2.954 4.283-4.023l10.894-3.875 17.151 10.97c4.904 3.137 11.447.668 13.055-4.928 5.364-18.668-5.421-38.149-24.089-43.513l-20.859-5.993c-20.861-5.994-42.631 6.058-48.624 26.918z" fill="#f2ac7c"/><g><path d="m373.584 45.003-9.38 5.472c-1.837 1.066-3.787 1.888-5.797 2.426-4.518-4.203-7.533-9.847-8.467-16.04-.629-4.152 2.233-8.04 6.385-8.67 4.162-.629 8.04 2.233 8.67 6.385.538 3.523 2.558 6.639 5.553 8.558z" fill="#e89d6b"/></g><path d="m263.843 143.465-.274.67c-3.868 9.512-12.619 16.162-22.831 17.329l-24.415 2.792c-3.98.508-7.543 2.751-9.725 6.122l-39.318 64.139c-.782 1.269-1.289 2.69-1.482 4.172l-.7 5.573c-.599 4.741-1.878 9.35-3.787 13.685-1.898 4.335-4.426 8.395-7.512 12.05-3.543 4.193-8.72 6.517-14.05 6.517-1.665 0-3.34-.223-4.995-.69-3.787-1.076-7.015-3.279-9.36-6.203s-3.787-6.568-4.01-10.487c-.558-10.121 3.36-19.968 10.72-26.943l6.193-5.858c.914-.873 1.675-1.908 2.213-3.056l40.526-83.194c2.721-5.705 7.837-9.908 13.959-11.472l67.54-15.877 1.563 4.03c3.329 8.641 3.227 18.122-.255 26.701z" fill="#ffdec5"/></g></g><g/><g/><g/><g/><g/><g/><g/><g/><g/><g/><g/><g/><g/><g/><g/></svg>