<svg id="Capa_1" enable-background="new 0 0 512 512" viewBox="0 0 512 512" xmlns="http://www.w3.org/2000/svg"><g><path d="m5 465.49h502c2.761 0 5 2.239 5 5v36.51c0 2.761-2.239 5-5 5h-502c-2.761 0-5-2.239-5-5v-36.51c0-2.761 2.239-5 5-5z" fill="#fd8087"/><g><path d="m190.506 299.755-1.051 15.286c-1.995 9.752-3.339 19.299-7.181 28.394-.211 2.847-.376 5.699-.483 8.553l-11.157 9.006c-1.105.673-3.759.042-3.759.042-10.036 6.7-18.691 15.287-25.466 25.302l-33.635 49.855 11.653 17.901 16.414 3.277 81.463-58.818c7.026-5.073 12.421-11.906 15.735-19.673 0 0 .619-12.655.746-18.748l3.044-9.936z" fill="#e89d6b"/><path d="m236.825 350.196-.03 11.207c-.122 6.091-1.431 12.019-3.756 17.48l-8.415-3.116c-17.287-5.512-31.163-17.409-42.35-32.331.731-9.917 2.091-19.784 4.091-29.529l4.142-14.15z" fill="#db8d65"/><path d="m276.06 233.118 20.206 9.649c.195.14 3.524 8.607 3.725 8.735 3.002 1.914 6.69 2.465 10.137 1.49l69.927-19.769c1.129-.3 2.303-.388 3.464-.262l8.236.9c8.989.982 17.956-2.035 24.524-8.251l.449-.425c5.209-4.93 6.678-12.488 3.75-18.894l-.295-.646c-2.67-5.843-8.512-9.583-14.936-9.563l-.362.001c-8.792.027-17.387 2.598-24.75 7.403l-4.331 2.826c-1.149.75-2.447 1.241-3.804 1.441l-56.72 8.347c-1.443.212-2.86-.288-3.845-1.278-.381-.382-6.295-.153-6.523-.669l-6.497-28.47z" fill="#e89d6b"/><path d="m311.434 214.824c-.081.122-.162.233-.254.355-1.787 2.375-3.055 5.025-3.796 7.887l-7.39 28.433c-.203-.122-.406-.254-.599-.396l-23.337-17.987 22.362-47.435 12.09 27.793c.224.517.549.964.924 1.35z" fill="#db8d65"/><path d="m191.723 80.316-3.587-9.333c-7.436-19.349-5.627-41.035 4.913-58.884 6.909-11.701 21.994-15.585 33.695-8.677 11.701 6.909 15.585 21.994 8.677 33.695l-16.683 28.255-7.378 15.665c-4.008 8.508-16.262 8.059-19.637-.721z" fill="#ffd15b"/><path d="m306.154 472.068 11.702 25.502c2.653 5.964 9.789 8.58 15.94 5.844l42.029-18.695c6.151-2.736 8.987-9.788 6.334-15.752l-.157-.354c-5.803-13.046-21.414-18.77-34.869-12.785l-8.291 3.286-19.072-.146z" fill="#dff8ff"/><g><path d="m238.578 119.797c3.323-6.166 6.001-14.492 6.163-21.56l.178-7.787s-1.344-8.932-3.954-13.831l6.767-16.415-.006-12.481c-.009-19.007 15.328-34.455 34.334-34.584 17.948-.122 32.605 14.317 32.757 32.265.044 5.227.078 9.721.095 12.164.009 1.292.351 2.555.994 3.676l4.085 7.136c2.292 4.003 1.351 9.076-2.224 11.991l-2.259 1.842c-.712.581-1.124 1.451-1.121 2.37l.026 7.901c.035 10.554-9.329 18.667-19.77 17.129l-11.551-1.701c-2.147-.31-4.178 1.063-4.692 3.17l-.575 2.359c-1.265 5.191.027 10.673 3.477 14.753l3.315 3.921c4.374 5.173 8.005 10.932 10.787 17.108l-8.023 23.848-51.734-41.129z" fill="#f2ac7c"/><path d="m224.537 41.901.189 27.933c.072 10.647 9.822 20.864 20.119 23.572 4.732-8.011 7.243-17.138 7.277-26.442l.008-2.169c-.032-4.745 3.788-8.618 8.534-8.65 9.609-.092 18.531-4.995 23.76-13.057l4.32-6.661c.756-1.166 2.434-1.245 3.296-.155l3.764 4.759c2.755 3.483 6.961 5.501 11.401 5.471l13.135-.089c3.132-.021 5.653-2.577 5.632-5.709l-.026-3.848c-.139-20.487-16.86-36.982-37.347-36.843l-22.891.155c-22.894.156-41.326 18.84-41.171 41.733z" fill="#fee45a"/></g><path d="m275.835 263.741-9.948 38.31-55.737 42.339c-5.459-5.963-16.172-19.123-21.085-27.712-8.182-14.201-10.242-31.112-5.735-46.856 1.87-7.527 5.92-14.623 9.785-23.53l45.963 3.306z" fill="#b6e9ff"/><path d="m338.842 459.115-32.686 12.953-25.083-54.663c-4.151-9.081-6.805-18.75-7.887-28.636l2.493-9.336-3.051-7.525-41.355-15.328c-5.289-1.685-10.07-4.091-14.414-7.055-10.251-6.458-20.511-18.743-18.292-33.122.386-4.284 1.695-8.364 3.766-12.019 2.071-3.654 4.923-6.882 8.395-9.41 8.232-6.009 18.109-9.187 28.169-9.187 2.385 0 4.781.172 7.167.538 5.674.863 11.095 2.913 15.917 6.019l47.415 30.625c12.445 7.938 20.434 21.256 21.591 35.975z" fill="#f2ac7c"/><g><path d="m295.71 389.003c-1.137 3.066-4.04 4.964-7.136 4.964-.883 0-1.776-.152-2.649-.467l-12.739-4.73c-.376-3.37-.558-6.75-.558-10.151v-6.71l18.596 7.309c3.938 1.461 5.948 5.836 4.486 9.785z" fill="#e89d6b"/></g><path d="m300.422 177.658c0 9.136-4.778 16.576-10.432 24.118-3.37 4.477-5.816 9.572-7.217 15.003l-2.68 10.313-75.782-15.812c2.102-3.529 3.416-7.694 2.675-11.267l-5.233-7.948-4.943-23.581 16.516-52.582.01.01c3.441-.609 6.943-.913 10.466-.913 8.415 0 16.282 4.213 20.941 11.217 4.111 6.172 8.963 13.46 11.958 17.957 1.868 2.812 4.304 5.197 7.207 7.045l.203.132c9.735 6.192 22.352 5.36 31.194-2.04l.102-.081 3.297 11.161c2.201 5.288 1.718 11.725 1.718 17.268z" fill="#b6e9ff"/><path d="m303.516 177.275c0 9.136-2.923 18.18-8.578 25.722-3.37 4.477-5.816 9.572-7.217 15.003l-2.68 10.313-39.506-1.645-41.224-15.388c.203-3.604-.061-7.248-.802-10.821l-1.756-8.395 67.255 14.187c4.803 1.013 9.553-1.928 10.788-6.679l.474-1.824c1.401-5.431 3.847-10.527 7.217-15.003 5.654-7.542 8.577-16.587 8.577-25.722 0-2.568-.193-5.248-.66-7.796l4.832 11.633c2.204 5.29 3.28 10.873 3.28 16.415z" fill="#abd5ff"/><path d="m285.042 228.314-9.207 35.427-82.72-17.449c1.452-3.33 2.812-6.7 4.06-10.11l4.649-12.719c1.441-3.928 2.274-8.04 2.487-12.181z" fill="#f2ac7c"/><path d="m107.774 436.195-15.693 23.26c-3.713 5.368-2.236 12.824 3.301 16.654l37.829 26.169c5.536 3.83 13.035 2.583 16.748-2.785l.22-.318c8.123-11.742 4.89-28.053-7.22-36.431l-7.119-5.372z" fill="#dff8ff"/><g><path d="m182.071 364.681v6.943c0 4.202-3.411 7.613-7.613 7.613s-7.613-3.411-7.613-7.613v-6.943c0-1.208.01-2.426.03-3.644 1.076-.721 2.162-1.421 3.269-2.091l11.643-6.953c-.102 2.801.284 9.877.284 12.688z" fill="#db8d65"/></g><path d="m225.73 142.427c0 1.766-.162 3.533-.508 5.289-1.939 9.917-9.136 17.987-18.779 21.033l-33.63 10.638c-6.913 2.182-11.846 8.283-12.526 15.5l-5.644 48.978c-.122 1.228-.01 2.467.315 3.654.447 1.634 1.147 4.192 1.908 6.974.751 2.741 1.117 5.532 1.117 8.314 0 6.202-1.827 12.333-5.36 17.581-3.725 5.553-10.466 8.283-17.013 6.893h-.01c-5.126-1.086-9.42-4.558-11.562-9.339l-1.025-2.284c-4.162-9.278-3.593-19.987 1.533-28.768l.873-1.492c.985-1.695 1.462-3.634 1.36-5.583l1.919-72.325c.112-8.527 5.065-16.252 12.77-19.906l56.206-26.697c4.081-1.939 8.354-3.411 12.729-4.395.975-.223 1.949-.416 2.934-.579l7.187 10.364c3.409 4.741 5.206 10.395 5.206 16.15z" fill="#f2ac7c"/></g></g><g/><g/><g/><g/><g/><g/><g/><g/><g/><g/><g/><g/><g/><g/><g/></svg>