<svg id="Capa_1" enable-background="new 0 0 512.016 512.016" viewBox="0 0 512.016 512.016" xmlns="http://www.w3.org/2000/svg"><g><g><path d="m191.488 302.808-1.035 15.059c-1.965 9.607-3.289 19.012-7.075 27.972-.208 2.805-.37 5.614-.475 8.426l-10.991 8.872c-1.088.663-3.703.042-3.703.042-9.887 6.601-18.413 15.06-25.087 24.926l-33.135 49.114 11.479 17.635 16.17 3.228 80.252-57.943c6.921-4.997 12.236-11.729 15.501-19.38 0 0 .61-12.467.735-18.469l2.999-9.788z" fill="#e89d6b"/><path d="m237.118 352.499-.03 11.04c-.12 6-1.41 11.84-3.7 17.22l-8.29-3.07c-17.03-5.43-30.7-17.15-41.72-31.85.72-9.77 2.06-19.49 4.03-29.09l4.08-13.94z" fill="#db8d65"/><path d="m275.77 237.161 19.906 9.506c.192.138 3.472 8.479 3.67 8.605 2.957 1.885 6.59 2.428 9.987 1.468l68.888-19.475c1.112-.295 2.269-.383 3.413-.258l8.114.886c8.856.967 17.689-2.005 24.159-8.128l.442-.418c5.131-4.857 6.579-12.302 3.694-18.613l-.291-.636c-2.631-5.756-8.385-9.44-14.714-9.421l-.357.001c-8.661.027-17.129 2.559-24.382 7.293l-4.266 2.784c-1.132.739-2.41 1.223-3.747 1.42l-55.878 8.221c-1.421.209-2.817-.284-3.788-1.259-.375-.377-6.201-.151-6.426-.659l-6.4-28.047z" fill="#e89d6b"/><path d="m310.618 219.139c-.08.12-.16.23-.25.35-1.76 2.34-3.01 4.95-3.74 7.77l-7.28 28.01c-.2-.12-.4-.25-.59-.39l-22.99-17.72 22.03-46.73 11.91 27.38c.22.51.54.95.91 1.33z" fill="#db8d65"/><path d="m5.008 465.499h502c2.761 0 5 2.239 5 5v36.51c0 2.761-2.239 5-5 5h-502c-2.761 0-5-2.239-5-5v-36.51c0-2.761 2.239-5 5-5z" fill="#fd8087"/><path d="m192.687 86.631-3.533-9.195c-7.325-19.061-5.543-40.425 4.84-58.009 6.806-11.527 21.667-15.354 33.194-8.548s15.354 21.667 8.548 33.194l-16.436 27.836-7.269 15.432c-3.948 8.382-16.02 7.939-19.344-.71z" fill="#ffd15b"/><path d="m305.417 472.559 11.528 25.123c2.613 5.875 9.644 8.453 15.703 5.758l41.404-18.417c6.059-2.695 8.853-9.643 6.24-15.518l-.155-.348c-5.717-12.852-21.096-18.491-34.351-12.595l-8.168 3.237-18.789-.144z" fill="#dff8ff"/><g><path d="m238.845 125.526c3.273-6.075 5.912-14.276 6.071-21.24l.175-7.671s-1.324-8.799-3.895-13.625l6.666-16.171-.006-12.296c-.009-18.724 15.1-33.943 33.823-34.07 17.681-.12 32.12 14.104 32.27 31.785.044 5.149.077 9.576.094 11.984.009 1.273.346 2.517.979 3.622l4.024 7.03c2.258 3.944 1.331 8.941-2.191 11.813l-2.225 1.815c-.701.572-1.107 1.43-1.104 2.335l.026 7.783c.034 10.397-9.19 18.389-19.477 16.875l-11.379-1.676c-2.115-.305-4.116 1.047-4.622 3.123l-.566 2.324c-1.246 5.114.027 10.515 3.425 14.534l3.266 3.863c4.309 5.096 7.886 10.769 10.626 16.854l-7.903 23.493-50.965-40.518z" fill="#f2ac7c"/><path d="m225.013 48.787.187 27.518c.071 10.489 9.676 20.554 19.82 23.221 4.661-7.892 7.136-16.883 7.168-26.049l.008-2.137c-.032-4.675 3.732-8.49 8.407-8.521 9.466-.09 18.256-4.92 23.407-12.863l4.256-6.562c.745-1.148 2.397-1.226 3.247-.152l3.708 4.688c2.714 3.431 6.857 5.419 11.232 5.39l12.94-.088c3.085-.021 5.569-2.539 5.548-5.624l-.026-3.79c-.137-20.182-16.609-36.433-36.791-36.296l-22.551.153c-22.554.153-40.713 18.56-40.56 41.112z" fill="#fee45a"/></g><path d="m275.548 267.329-9.8 37.74-54.908 41.71c-5.378-5.875-15.932-18.838-20.772-27.3-8.06-13.99-10.09-30.65-5.65-46.16 1.842-7.415 5.832-14.405 9.64-23.18l45.28 3.257z" fill="#b6e9ff"/><path d="m337.618 459.799-32.2 12.76-24.71-53.85c-4.089-8.946-6.704-18.472-7.77-28.21l2.456-9.197-3.006-7.413-40.74-15.1c-5.21-1.66-9.92-4.03-14.2-6.95-10.099-6.362-20.206-18.465-18.02-32.63.38-4.22 1.67-8.24 3.71-11.84s4.85-6.78 8.27-9.27c8.11-5.92 17.84-9.05 27.75-9.05 2.35 0 4.71.17 7.06.53 5.59.85 10.93 2.87 15.68 5.93l46.71 30.17c12.26 7.82 20.13 20.94 21.27 35.44z" fill="#f2ac7c"/><path d="m299.77 182.526c0 9-4.707 16.33-10.277 23.76-3.32 4.41-5.73 9.43-7.11 14.78l-2.64 10.16-74.655-15.576c2.07-3.476 3.365-7.58 2.635-11.1l-5.155-7.83-4.87-23.23 16.27-51.8.01.01c3.39-.6 6.84-.9 10.31-.9 8.29 0 16.04 4.15 20.63 11.05 4.05 6.08 8.83 13.26 11.78 17.69 1.84 2.77 4.24 5.12 7.1 6.94l.2.13c9.59 6.1 22.02 5.28 30.73-2.01l.1-.08 3.248 10.995c2.17 5.209 1.694 11.551 1.694 17.011z" fill="#b6e9ff"/><path d="m302.818 182.149c0 9-2.88 17.91-8.45 25.34-3.32 4.41-5.73 9.43-7.11 14.78l-2.64 10.16-38.918-1.621-40.612-15.159c.2-3.55-.06-7.14-.79-10.66l-1.73-8.27 66.256 13.977c4.731.998 9.411-1.899 10.627-6.579l.467-1.797c1.38-5.35 3.79-10.37 7.11-14.78 5.57-7.43 8.45-16.34 8.45-25.34 0-2.53-.19-5.17-.65-7.68l4.76 11.46c2.17 5.209 3.23 10.709 3.23 16.169z" fill="#abd5ff"/><path d="m284.618 232.429-9.07 34.9-81.49-17.19c1.43-3.28 2.77-6.6 4-9.96l4.58-12.53c1.42-3.87 2.24-7.92 2.45-12z" fill="#f2ac7c"/><path d="m109.985 437.22-15.459 22.914c-3.658 5.288-2.202 12.634 3.252 16.406l37.267 25.78c5.454 3.773 12.841 2.545 16.499-2.743l.217-.314c8.002-11.568 4.818-27.636-7.113-35.889l-7.013-5.292z" fill="#dff8ff"/><path d="m226.188 147.819c0 1.74-.16 3.48-.5 5.21-1.91 9.77-9 17.72-18.5 20.72l-33.13 10.48c-6.81 2.15-11.67 8.16-12.34 15.27l-5.56 48.25c-.12 1.21-.01 2.43.31 3.6.44 1.61 1.13 4.13 1.88 6.87.74 2.7 1.1 5.45 1.1 8.19 0 6.11-1.8 12.15-5.28 17.32-3.67 5.47-10.31 8.16-16.76 6.79h-.01c-5.05-1.07-9.28-4.49-11.39-9.2l-1.01-2.25c-4.1-9.14-3.54-19.69 1.51-28.34l.86-1.47c.97-1.67 1.44-3.58 1.34-5.5l1.89-71.25c.11-8.4 4.99-16.01 12.58-19.61l55.37-26.3c4.02-1.91 8.23-3.36 12.54-4.33.96-.22 1.92-.41 2.89-.57l7.08 10.21c3.36 4.67 5.13 10.24 5.13 15.91z" fill="#f2ac7c"/></g><path d="m504.508 457.999h-122.702c-8.956-10.24-23.863-14.154-37.344-9.002l-3.056-38.05c-.332-4.129-3.953-7.209-8.077-6.875-4.129.332-7.207 3.948-6.875 8.077l3.426 42.65-20.613 8.169-21.738-47.375c-4.487-9.812-7.013-20.184-7.537-30.89l5.501 2.038c.859.318 1.739.469 2.605.469 3.047 0 5.913-1.871 7.034-4.896 1.439-3.884-.542-8.199-4.427-9.639-.338-.117-56.475-20.944-56.772-21.029-8.262-2.636-15.475-7.33-22.377-14.777-3.882-4.772-5.464-10.898-4.659-16.973.575-6.285 3.83-12.022 8.929-15.74 8.49-6.19 18.887-8.732 29.275-7.161 4.566.691 8.848 2.312 12.727 4.817l46.747 30.188c10.215 6.519 16.879 17.623 17.828 29.718l1.249 15.541c.315 3.925 3.598 6.9 7.468 6.9.201 0 .405-.008.609-.024 4.129-.332 7.207-3.948 6.875-8.077l-1.248-15.526c-1.313-16.747-10.551-32.14-24.677-41.154l-36.82-23.777 10.636-40.735c.283.213 7.59 5.886 7.879 6.094 3.429 2.473 7.462 3.755 11.569 3.755 1.811 0 3.636-.25 5.43-.756l14.092-3.984c3.986-1.127 6.304-5.271 5.177-9.258-1.126-3.986-5.269-6.304-9.258-5.177l-14.092 3.984c-1.397.396-2.874.148-4.065-.674l-12.613-9.763 3.902-14.945c1.033-3.995 2.749-7.719 5.094-11.094.092.217 3.146 7.583 3.238 7.793 2.163 4.885 7.365 7.757 12.649 6.976l55.879-8.221c2.394-.352 4.729-1.237 6.754-2.559l4.266-2.784c6.055-3.951 13.077-6.051 20.304-6.073 3.502-.167 6.779 1.842 8.229 5.039 2.006 3.697 1.094 8.354-2.181 11.101-4.879 4.619-11.507 6.849-18.188 6.12l-8.113-.886c-2.109-.23-4.221-.064-6.268.496l-21.114 5.969c-3.986 1.127-6.303 5.272-5.177 9.258.934 3.304 3.941 5.461 7.213 5.461.675 0 1.362-.092 2.044-.285l21.035-5.947c.208-.051.42-.066.636-.042l8.114.886c11.066 1.211 22.046-2.486 30.13-10.138 7.934-7.134 10.196-18.722 5.51-28.231-3.889-8.528-12.552-13.971-21.915-13.802-10.131.031-19.972 2.974-28.458 8.512l-4.267 2.784c-.222.145-.478.242-.74.281l-53.514 7.873-7.185-17.3c2.88-10.524 2.311-21.901-1.982-32.231-.107-.25-4.74-11.422-4.849-11.662-3.028-6.723-6.977-12.986-11.738-18.616l-3.266-3.863c-1.71-2.022-2.434-4.712-1.992-7.306l8.649 1.163c7.04.946 14.128-1.203 19.457-5.894 5.328-4.692 8.356-11.454 8.308-18.553l-.037-5.419c6.78-5.108 8.757-14.426 4.51-21.8l-4.012-6.979-.028-3.63c6.224-1.042 10.967-6.472 10.923-12.981l-.026-3.79c-.164-24.185-19.891-43.746-44.039-43.746-.387-.001-22.475.152-22.854.154-10.255.07-19.994 3.318-28.113 9.253-1.911-1.927-4.062-3.623-6.407-5.007-7.3-4.31-15.841-5.519-24.051-3.405-8.209 2.114-15.104 7.299-19.414 14.599-11.616 19.673-13.578 43.187-5.383 64.513l3.534 9.195c2.633 6.853 8.827 11.277 16.163 11.546 7.273.284 13.853-3.684 16.967-10.332l1.474-3.129c3.141 6.96 9.032 13.548 17.096 17.304-.142 3.594-.824 7.162-2.007 10.56-3.504-1.28-7.248-1.972-11.095-1.972-.001 0-.002 0-.004 0-9.952 0-19.963 2.256-28.951 6.525l-9.648 4.582c-3.742 1.777-5.334 6.25-3.558 9.992s6.25 5.334 9.992 3.558l9.648-4.582c2.848-1.353 5.831-2.43 8.886-3.25l4.265 6.091c.02.028.039.055.059.083 3.169 4.398 4.391 9.972 3.352 15.293-1.383 7.083-6.517 12.833-13.397 15.009l-33.132 10.475c-9.674 3.059-16.549 11.546-17.535 21.638l-5.551 48.181c-.231 2.168-.054 4.339.523 6.443l1.88 6.861c1.81 6.609.655 13.661-3.166 19.348-1.981 2.948-5.505 4.375-8.979 3.638-2.699-.569-4.989-2.415-6.118-4.933l-1.01-2.252c-3.395-7.459-2.468-16.158 2.009-22.961 1.655-2.836 2.471-6.056 2.367-9.332l1.884-70.993c.03-5.535 3.292-10.668 8.292-13.041l14.047-6.671c3.742-1.777 5.334-6.251 3.558-9.992s-6.25-5.334-9.992-3.558l-14.047 6.671c-10.082 4.788-16.692 15.083-16.854 26.24.007.576-1.933 71.241-1.882 71.771.023.471-.09.936-.327 1.343-6.954 10.953-8.095 24.81-2.741 36.661l1.011 2.253c3.71 8.422 12.469 14.065 21.659 13.99 7.765 0 15.107-3.821 19.574-10.47 6.256-9.31 8.145-20.855 5.183-31.675l-1.882-6.866c-.075-.275-.102-.557-.078-.84l5.55-48.169c.337-4.173 3.152-7.724 7.148-8.984l16.449-5.2 4.189 20.331c1.278 6.201.806 12.623-1.366 18.571l-4.576 12.535c-2.247 6.156-5.067 12.64-9.144 21.023-1.974 4.019-3.489 8.297-4.661 12.616-4.22 14.731-3.174 30.585 2.735 44.616-2.253 11.168-3.699 22.528-4.329 33.92-13.313 7.559-25.982 16.85-35.174 29.222-2.525 3.284-1.91 7.992 1.374 10.517 1.363 1.048 2.971 1.555 4.566 1.555 2.249 0 4.474-1.008 5.951-2.929 6.601-8.6 14.741-15.757 24.068-21.28 1.328 2.105 3.668 3.508 6.342 3.508 4.142 0 7.5-3.358 7.5-7.5 0-8.875.548-17.769 1.61-26.597 8.734 12.339 20.646 24.28 37.59 29.687-.992 11.145-6.823 21.503-15.944 28.089l-75.764 54.703-17.552-13.244 12.666-18.774c2.317-3.434 1.411-8.096-2.022-10.412-3.434-2.318-8.096-1.411-10.412 2.022l-33.312 49.645h-79.59c-4.142 0-7.5 3.358-7.5 7.5s3.358 7.5 7.5 7.5h78.609c1.361 3.908 3.91 7.299 7.394 9.709l37.267 25.78c8.738 6.117 21.172 4.082 27.15-4.958 6.374-9.213 7.277-20.639 3.454-30.532h135.986l12.725 27.731c2.925 6.826 10.149 11.351 17.559 11.285 2.733 0 5.468-.576 8.045-1.723l41.404-18.417c4.722-2.1 8.373-5.872 10.283-10.621 1.076-2.677 1.507-5.483 1.342-8.256h115.784c4.142 0 7.5-3.358 7.5-7.5s-3.36-7.501-7.502-7.501zm-294.827-227.779c.67-1.834 1.22-3.702 1.664-5.589l64.014 13.508-5.317 20.362-65.646-13.853c.241-.632 5.285-14.428 5.285-14.428zm102.435-149.347-3.334 2.719c-1.761 1.436-2.775 3.592-2.76 5.863l.061 9.012c.019 2.793-1.125 5.348-3.221 7.194-2.097 1.846-4.78 2.655-7.544 2.286l-11.55-1.553c-5.971-.861-11.552 2.909-12.98 8.772l-.565 2.322c-1.807 7.416.056 15.323 4.984 21.152l3.266 3.863c2.455 2.904 4.641 6.017 6.541 9.3-5.535 2.28-11.968 1.761-17.193-1.653-1.969-1.252-3.61-2.854-4.879-4.761-2.95-4.435-7.733-11.619-11.779-17.695-.92-1.381-1.945-2.666-3.043-3.87 3.096-6.977 4.422-14.643 4.36-22.252 5.075-9.241 7.466-19.743 7.216-30.281-.002-.265.091-.495.277-.684s.415-.285.701-.287c12.087-.112 23.234-6.285 29.748-16.467 4.137 4.493 9.928 7.015 16.096 6.968l.027 3.453c.018 2.552.699 5.075 1.97 7.296l4.024 7.03c.436.762.259 1.718-.423 2.273zm-99.601-12.16-7.269 15.432c-.741 1.571-2.097 1.755-2.847 1.733-.745-.027-2.088-.315-2.711-1.937l-3.534-9.195c-6.543-17.026-4.977-35.799 4.297-51.505 4.692-7.947 14.976-10.595 22.922-5.903 1.273.752 2.405 1.658 3.415 2.683-6.092 8.315-9.347 18.322-9.276 28.818l.076 11.218c.001-.001-4.973 8.445-5.073 8.656zm19.998-19.976c-.061-8.904 3.35-17.299 9.604-23.638s14.602-9.863 23.506-9.924c.26-.001 22.504-.153 22.75-.154 15.923 0 28.933 12.9 29.041 28.848l.013 1.876-11.026.075c-2.104.046-4.009-.913-5.299-2.543l-5.438-6.875c-1.499-1.896-3.814-2.953-6.234-2.839-2.414.113-4.625 1.383-5.941 3.411l-5.773 8.901c-3.792 5.847-10.217 9.377-17.165 9.444-4.264.029-8.262 1.716-11.257 4.752s-4.628 7.056-4.599 11.242c.156 6.319-.824 12.673-3.223 18.505-5.021-3.252-8.74-8.668-8.773-13.563zm-23.063 132.164c12.12-3.832 21.162-13.961 23.597-26.436 1.74-8.909-.126-18.216-5.109-25.769 4.351.937 8.215 3.521 10.74 7.312 4.045 6.074 8.826 13.255 11.775 17.689 2.437 3.663 5.573 6.729 9.325 9.115 9.601 6.2 21.397 7.016 31.476 2.653l1.408 3.387c4.688 11.285 3.043 24.365-4.294 34.137-3.921 5.222-6.738 11.076-8.368 17.381l-.846 3.24-66.652-14.065c-.16-2.031-.439-4.057-.853-6.066l-4.502-21.849zm-17.82 94.482c1.384-5.768 4.346-11.424 6.805-16.661l67.814 14.31-3.704 14.184c-4.74-2.534-9.833-4.239-15.2-5.052-14.317-2.168-28.654 1.338-40.358 9.872-6.219 4.535-10.797 10.859-13.221 18.02-4.6-10.902-5.416-23.225-2.136-34.673zm-46.038 219.615c-1.237 2.117-4.105 2.663-6.28 1.155l-37.267-25.78c-1.026-.71-1.72-1.749-1.953-2.925-.125-.632-.213-1.868.651-3.119l11.037-16.359c.327.239 28.283 21.357 28.6 21.573 8.511 5.887 10.849 17.306 5.212 25.455zm4.97-36.999 71.714-51.779c11.537-8.33 19.265-21.017 21.578-34.909l21.031 7.793c-.179 14.82 2.825 29.248 9.006 42.735l16.593 36.16zm222.903 17.66c-.447 1.113-1.322 2.005-2.461 2.512l-41.404 18.417c-1.14.506-2.388.559-3.514.146-.604-.222-1.706-.789-2.325-2.179l-8.23-17.936c.374-.155 32.953-13.045 33.303-13.204 9.456-4.206 20.423-.262 24.448 8.786.7 1.201.498 2.854.183 3.458z"/></g><g/><g/><g/><g/><g/><g/><g/><g/><g/><g/><g/><g/><g/><g/><g/></svg>