<?xml version="1.0" encoding="UTF-8" standalone="no"?>
<!-- Created with Inkscape (http://www.inkscape.org/) -->

<svg
   version="1.1"
   id="svg3582"
   xml:space="preserve"
   width="682.66669"
   height="682.66669"
   viewBox="0 0 682.66669 682.66669"
   xmlns="http://www.w3.org/2000/svg"
   xmlns:svg="http://www.w3.org/2000/svg"><defs
     id="defs3586"><clipPath
       clipPathUnits="userSpaceOnUse"
       id="clipPath3596"><path
         d="M 0,512 H 512 V 0 H 0 Z"
         id="path3594" /></clipPath></defs><g
     id="g3588"
     transform="matrix(1.3333333,0,0,-1.3333333,0,682.66667)"><g
       id="g3590"><g
         id="g3592"
         clip-path="url(#clipPath3596)"><g
           id="g3598"
           transform="translate(402.4233,251.7197)"><path
             d="m 0,0 c -44.064,22.408 -96.846,27.507 -147.202,9.92 -0.125,0.023 -0.249,0.048 -0.374,0.071 -6.001,-91.614 -76.49,-174.511 -165.479,-186.681 25.597,-23.581 56.209,-41.801 90.055,-52.877 C -108.241,-219.851 -12.054,-117.532 0,0"
             style="fill:#fff3a0;fill-opacity:1;fill-rule:nonzero;stroke:none"
             id="path3600" /></g><g
           id="g3602"
           transform="translate(402.4233,251.7197)"><path
             d="m 0,0 c -12.054,-117.532 -108.241,-219.851 -223,-229.567 24.101,-7.887 49.84,-12.153 76.577,-12.153 104.715,0 194.149,65.428 229.651,157.633 C 64.833,-46.84 35.197,-17.898 0,0"
             style="fill:#fff7c0;fill-opacity:1;fill-rule:nonzero;stroke:none"
             id="path3604" /></g><g
           id="g3606"
           transform="translate(10.0083,257.9902)"><path
             d="m 0,0 c -0.005,-0.663 -0.008,-1.326 -0.008,-1.99 0,-71.579 30.57,-136.018 79.368,-180.971 88.472,12.101 158.657,94.107 165.368,185.085 C 174.062,-44.567 67.74,-47.781 0,0"
             style="fill:#fff7c0;fill-opacity:1;fill-rule:nonzero;stroke:none"
             id="path3608" /></g><g
           id="g3610"
           transform="translate(254.7358,260.1143)"><path
             d="M 0,0 C 0.039,0.532 0.077,1.064 0.112,1.597 -94.835,19.637 -150.507,102.161 -142.016,195.875 -203.716,151.593 -244.081,79.465 -244.728,-2.124 -176.988,-49.905 -70.666,-46.691 0,0"
             style="fill:#fff3a0;fill-opacity:1;fill-rule:nonzero;stroke:none"
             id="path3612" /></g><g
           id="g3614"
           transform="translate(445.8374,412.4648)"><path
             d="m 0,0 c -45.12,54.681 -113.408,89.535 -189.837,89.535 -53.457,0 -102.931,-17.051 -143.281,-46.011 -8.346,-92.119 45.305,-173.425 137.314,-193.301 1.716,-0.37 3.445,-0.721 5.188,-1.048 90.578,31.634 189.006,-10.129 230.43,-94.007 10.56,27.426 16.349,57.22 16.349,88.367 C 56.163,-97.032 35.086,-42.521 0,0"
             style="fill:#fff7c0;fill-opacity:1;fill-rule:nonzero;stroke:none"
             id="path3616" /></g><g
           id="g3618"
           transform="translate(256,405.4893)"><path
             d="m 0,0 c 76.429,0 144.717,-34.854 189.837,-89.535 25.337,-30.706 43.367,-67.663 51.432,-108.211 3.103,15.603 4.731,31.74 4.731,48.257 0,59.432 -21.076,113.943 -56.163,156.465 C 144.717,61.656 76.429,96.511 0,96.511 c -53.457,0 -102.93,-17.051 -143.28,-46.011 -2.843,-31.371 1.506,-61.488 12.11,-88.353 C -93.204,-13.876 -48.223,0 0,0"
             style="fill:#fff3a0;fill-opacity:1;fill-rule:nonzero;stroke:none"
             id="path3620" /></g><g
           id="g3622"
           transform="translate(458.9292,395.1309)"><path
             d="m 0,0 0.275,-0.401 c 65.55,-95.784 55.798,-227.624 -29.256,-312.678 -96.069,-96.069 -251.828,-96.069 -347.896,0 -96.069,96.069 -96.069,251.827 0,347.896 85.142,85.142 217.167,94.827 312.974,29.053"
             style="fill:none;stroke:#000000;stroke-width:20;stroke-linecap:round;stroke-linejoin:round;stroke-miterlimit:10;stroke-dasharray:none;stroke-opacity:1"
             id="path3624" /></g><g
           id="g3626"
           transform="translate(429.9478,429.9482)"><path
             d="M 0,0 0.113,-0.113"
             style="fill:none;stroke:#000000;stroke-width:20;stroke-linecap:round;stroke-linejoin:round;stroke-miterlimit:10;stroke-dasharray:none;stroke-opacity:1"
             id="path3628" /></g><g
           id="g3630"
           transform="translate(179.4233,22.1523)"><path
             d="m 0,0 c 114.759,9.717 210.946,112.035 223,229.567 -44.064,22.409 -96.846,27.507 -147.202,9.92 -0.125,0.024 -0.249,0.048 -0.374,0.072 C 69.423,147.944 -1.066,65.048 -90.055,52.877"
             style="fill:none;stroke:#000000;stroke-width:20;stroke-linecap:round;stroke-linejoin:round;stroke-miterlimit:10;stroke-dasharray:none;stroke-opacity:1"
             id="path3632" /></g><g
           id="g3634"
           transform="translate(485.6514,167.6328)"><path
             d="M 0,0 C -18.395,37.247 -48.031,66.188 -83.228,84.087"
             style="fill:none;stroke:#000000;stroke-width:20;stroke-linecap:round;stroke-linejoin:round;stroke-miterlimit:10;stroke-dasharray:none;stroke-opacity:1"
             id="path3636" /></g><g
           id="g3638"
           transform="translate(254.7358,260.1143)"><path
             d="m 0,0 c 0.039,0.532 0.077,1.064 0.112,1.597 -94.947,18.04 -150.619,100.564 -142.128,194.278"
             style="fill:none;stroke:#000000;stroke-width:20;stroke-linecap:round;stroke-linejoin:round;stroke-miterlimit:10;stroke-dasharray:none;stroke-opacity:1"
             id="path3640" /></g><g
           id="g3642"
           transform="translate(254.7358,260.1143)"><path
             d="M 0,0 C -70.666,-46.691 -176.988,-49.905 -244.728,-2.124"
             style="fill:none;stroke:#000000;stroke-width:20;stroke-linecap:round;stroke-linejoin:round;stroke-miterlimit:10;stroke-dasharray:none;stroke-opacity:1"
             id="path3644" /></g><g
           id="g3646"
           transform="translate(112.7197,455.9893)"><path
             d="m 0,0 c -2.842,-31.371 1.506,-61.488 12.11,-88.353 37.967,23.977 82.948,37.853 131.17,37.853 76.429,0 144.718,-34.854 189.838,-89.535 25.336,-30.706 43.366,-67.663 51.431,-108.211"
             style="fill:none;stroke:#000000;stroke-width:20;stroke-linecap:round;stroke-linejoin:round;stroke-miterlimit:10;stroke-dasharray:none;stroke-opacity:1"
             id="path3648" /></g></g></g></g></svg>
