<svg height="512pt" viewBox="0 -42 512 512" width="512pt" xmlns="http://www.w3.org/2000/svg"><path d="m504.511719 186.269531c0 94.511719-76.617188 171.132813-171.128907 171.132813-94.515624 0-171.132812-76.621094-171.132812-171.132813 0-94.515625 76.617188-171.132812 171.132812-171.132812 94.511719 0 171.128907 76.617187 171.128907 171.132812zm0 0" fill="#ff7ab8"/><path d="m504.515625 186.273438c0 94.511718-76.617187 171.128906-171.128906 171.128906-29.582031 0-57.417969-7.496094-81.695313-20.707032 12.726563 3.027344 26.015625 4.625 39.667969 4.625 94.511719 0 171.128906-76.621093 171.128906-171.128906 0-64.960937-36.175781-121.453125-89.484375-150.445312 75.410156 17.875 131.511719 85.648437 131.511719 166.527344zm0 0" fill="#ff5ca8"/><path d="m457.777344 186.269531c0 68.703125-55.691406 124.398438-124.394532 124.398438-68.703124 0-124.398437-55.695313-124.398437-124.398438s55.695313-124.398437 124.398437-124.398437c68.703126 0 124.394532 55.695312 124.394532 124.398437zm0 0" fill="#fff5f5"/><path d="m457.78125 186.273438c0 68.699218-55.699219 124.398437-124.394531 124.398437-36.492188 0-69.3125-15.714844-92.070313-40.742187 18.609375 11.085937 40.359375 17.460937 63.589844 17.460937 68.707031 0 124.398438-55.691406 124.398438-124.398437 0-32.199219-12.234376-61.550782-32.308594-83.644532 36.402344 21.691406 60.785156 61.460938 60.785156 106.925782zm0 0" fill="#efe2dd"/><path d="m300.300781 419.972656h-242.945312c-27.542969 0-49.867188-22.324218-49.867188-49.867187v-160.308594c0-12.992187 10.53125-23.527344 23.527344-23.527344h295.621094c12.996093 0 23.527343 10.535157 23.527343 23.527344v160.308594c0 27.542969-22.324218 49.867187-49.863281 49.867187zm0 0" fill="#ffc1de"/><path d="m350.164062 209.804688v160.300781c0 27.542969-22.324218 49.871093-49.871093 49.871093h-33.160157c27.542969 0 49.867188-22.328124 49.867188-49.871093v-160.300781c0-13-10.535156-23.535157-23.53125-23.535157h33.171875c12.988281 0 23.523437 10.535157 23.523437 23.535157zm0 0" fill="#ffa4cf"/><path d="m304.90625 186.582031h-252.160156v-48.882812c0-8.085938 6.554687-14.640625 14.640625-14.640625h222.878906c8.085937 0 14.640625 6.554687 14.640625 14.640625zm0 0" fill="#ff7ab8"/><path d="m304.90625 137.699219v48.882812h-28.632812v-48.882812c0-8.082031-6.554688-14.648438-14.644532-14.648438h28.632813c8.09375 0 14.644531 6.566407 14.644531 14.648438zm0 0" fill="#ff5ca8"/><path d="m74.511719 123.050781c-.339844-2.113281-.496094-4.28125-.453125-6.492187.390625-20.382813 17.035156-36.785156 37.511718-36.785156h.070313c1.851563.003906 3.523437-1.011719 4.402344-2.640626 6.332031-11.761718 18.753906-19.757812 33.046875-19.757812 11.195312 0 51.207031.300781 56.695312-30.203125 0 0 1.117188-7.164063.574219-14.59375-.273437-3.785156 3.742187-6.34375 7.039063-4.464844 12.199218 6.957031 32.960937 23.511719 32.800781 55.546875-.007813 1.234375.46875 2.421875 1.355469 3.277344l.164062.160156c.707031.679688 1.628906 1.078125 2.601562 1.183594 8.851563.96875 17.183594 5.152344 23.269532 11.644531 8.222656 8.777344 9.910156 17.726563 9.960937 29.210938l.050781 13.921875zm0 0" fill="#ffe7bf"/><path d="m283.597656 123.050781h-27.8125l-.007812-3.355469c-.039063-11.492187.707031-20.4375-7.515625-29.214843-6.089844-6.492188-14.421875-10.671875-23.269531-11.640625-.976563-.109375-1.898438-.511719-2.605469-1.195313l-.160157-.148437c-.882812-.867188-1.367187-2.050782-1.355468-3.277344.097656-19.433594-7.511719-33.175781-16.226563-42.523438.472657-1.425781.84375-2.933593 1.136719-4.523437 0 0 1.117188-7.167969.582031-14.59375-.277343-3.78125 3.742188-6.34375 7.039063-4.464844 12.191406 6.957031 32.949218 23.511719 32.800781 55.550781-.011719 1.226563.460937 2.421876 1.355469 3.277344l.164062.148438c.703125.683594 1.625 1.085937 2.601563 1.195312 8.847656.964844 17.179687 5.148438 23.261719 11.640625 8.234374 8.777344 9.910156 17.722657 9.960937 29.214844zm0 0" fill="#ffe1a8"/><path d="m512 186.269531c0-98.492187-80.128906-178.621093-178.617188-178.621093-31.765624 0-61.609374 8.347656-87.480468 22.945312-7.90625-14.945312-20.175782-24.066406-28.796875-28.984375-3.921875-2.238281-8.734375-2.136719-12.542969.269531-3.828125 2.414063-6 6.722656-5.667969 11.246094.441407 6.0625-.390625 12.105469-.496093 12.824219-2.960938 16.109375-18.96875 23.9375-48.9375 23.9375-.015626 0-.03125 0-.042969 0h-.328125c-16.09375 0-30.875 8.554687-38.925782 22.421875-23.4375.734375-42.671874 19.796875-43.554687 43.277344-11.84375.414062-21.351563 10.171874-21.351563 22.113281v41.082031h-14.242187c-17.101563.003906-31.015625 13.917969-31.015625 31.015625v3.4375c0 4.132813 3.351562 7.484375 7.488281 7.484375 4.132813 0 7.484375-3.351562 7.484375-7.484375v-3.4375c0-8.84375 7.199219-16.039063 16.042969-16.039063h19.605469c.675781.199219 1.386718.308594 2.125.308594h252.164062c.738282 0 1.449219-.109375 2.121094-.308594h19.609375c8.84375 0 16.039063 7.195313 16.039063 16.039063v160.308594c0 23.371093-19.011719 42.378906-42.378907 42.378906h-242.945312c-23.371094 0-42.382813-19.007813-42.382813-42.378906v-121.859375c0-4.132813-3.351562-7.484375-7.484375-7.484375-4.136719 0-7.488281 3.351562-7.488281 7.484375v121.859375c0 31.625 25.730469 57.355469 57.355469 57.355469h242.941406c31.625 0 57.355469-25.730469 57.355469-57.355469v-6.882813c87.050781-11.878906 154.347656-86.695312 154.347656-176.953125zm-400.375-99.007812h.027344c4.589844 0 8.796875-2.519531 10.980468-6.578125 5.257813-9.757813 15.390626-15.820313 26.457032-15.820313h.324218.347657c6.078125 0 19.601562-.074219 32.410156-4.117187 17.464844-5.511719 28.179687-16.664063 30.984375-32.246094.007812-.058594.019531-.117188.027344-.175781.039062-.253907.773437-5.042969.808594-11.023438 10.808593 7.335938 24.84375 21.628907 24.71875 46.324219-.015626 3.277344 1.3125 6.449219 3.648437 8.699219l.160156.15625c1.867188 1.800781 4.34375 2.953125 6.988281 3.246093 7.097657.773438 13.710938 4.085938 18.613282 9.320313 6.617187 7.0625 7.898437 13.925781 7.941406 24.117187l.023438 6.40625-194.5-.007812c.902343-15.707031 14.121093-28.300781 30.039062-28.300781zm185.796875 91.523437h-237.191406v-41.085937c0-3.945313 3.210937-7.15625 7.15625-7.15625h222.878906c3.945313 0 7.15625 3.210937 7.15625 7.15625zm60.230469 169.332032v-32.203126c18.132812-3.367187 35.359375-10.503906 50.71875-21.140624 3.402344-2.355469 4.25-7.019532 1.894531-10.417969-2.355469-3.402344-7.015625-4.25-10.417969-1.894531-12.832031 8.886718-27.132812 15.019531-42.195312 18.195312v-90.859375c0-17.097656-13.914063-31.011719-31.015625-31.011719h-14.242188v-41.085937c0-11.933594-9.5-21.6875-21.335937-22.109375l-.023438-6.488282c-.042968-10.648437-1.449218-19.828124-7.414062-28.605468 15.105468-7.136719 31.972656-11.136719 49.757812-11.136719 64.464844 0 116.910156 52.445313 116.910156 116.910156 0 26.789063-9.285156 52.964844-26.152343 73.703125-2.609375 3.210938-2.121094 7.925782 1.085937 10.53125 3.207032 2.613282 7.925782 2.125 10.53125-1.082031 19.03125-23.402344 29.511719-52.933594 29.511719-83.152344 0-72.722656-59.164063-131.886719-131.886719-131.886719-21.871094 0-42.511718 5.355469-60.6875 14.816407-5.625-4.09375-12.136718-6.855469-19.035156-8.011719-.152344-5.988281-.976562-11.460938-2.285156-16.480469 24.128906-14.03125 52.144531-22.082031 82.007812-22.082031 90.234375 0 163.644532 73.410156 163.644532 163.644531.003906 81.988281-60.605469 150.085938-139.371094 161.847657zm0 0"/></svg>