<?xml version="1.0" encoding="iso-8859-1"?>
<!-- Generator: Adobe Illustrator 19.0.0, SVG Export Plug-In . SVG Version: 6.00 Build 0)  -->
<svg xmlns="http://www.w3.org/2000/svg" xmlns:xlink="http://www.w3.org/1999/xlink" version="1.1" id="Capa_1" x="0px" y="0px" viewBox="0 0 512 512" style="enable-background:new 0 0 512 512;" xml:space="preserve" width="512" height="512">
<g>
	<path style="fill:#606572;" d="M222.197,120.631h-79.106c-4.268,0-7.726-3.459-7.726-7.726s3.459-7.726,7.726-7.726h79.106   c4.268,0,7.726,3.459,7.726,7.726S226.465,120.631,222.197,120.631z"/>
	<path style="fill:#606572;" d="M218.339,406.821h-75.247c-4.268,0-7.726-3.459-7.726-7.726c0-4.267,3.459-7.726,7.726-7.726h75.247   c4.268,0,7.726,3.459,7.726,7.726C226.065,403.362,222.607,406.821,218.339,406.821z"/>
	<path style="fill:#BCD4E2;" d="M181.252,91.641v-11.54c0-3.868,3.136-7.004,7.004-7.004h218.529c3.868,0,7.004,3.136,7.004,7.004   v11.54c0,11.744-9.52,21.264-21.264,21.264h-190.01C190.772,112.905,181.252,103.385,181.252,91.641z"/>
	<path style="fill:#BCD4E2;" d="M181.252,420.359v11.54c0,3.868,3.136,7.004,7.004,7.004h218.529c3.868,0,7.004-3.136,7.004-7.004   v-11.54c0-11.744-9.52-21.264-21.264-21.264h-190.01C190.772,399.095,181.252,408.615,181.252,420.359z"/>
	<path style="fill:#80A1B2;" d="M406.785,73.097h-24.501c3.448,0,6.243,3.136,6.243,7.004v11.54   c0,11.744-8.486,21.264-18.954,21.264h22.952c11.744,0,21.264-9.52,21.264-21.264v-11.54   C413.789,76.233,410.653,73.097,406.785,73.097z"/>
	<path style="fill:#80A1B2;" d="M392.525,399.095h-22.952c10.468,0,18.954,9.52,18.954,21.264v11.54   c0,3.868-2.795,7.004-6.243,7.004h24.501c3.868,0,7.004-3.136,7.004-7.004v-11.54C413.789,408.615,404.269,399.095,392.525,399.095   z"/>
	<g>
		<rect x="214.871" y="112.912" style="fill:#D8E6F0;" width="165.298" height="286.176"/>
		<rect x="355.445" y="112.912" style="fill:#AAC0D1;" width="24.724" height="286.176"/>
		<path style="fill:#FF7870;" d="M276.908,112.905h-62.037v97.349C214.871,176.039,243.489,144.267,276.908,112.905z"/>
		<path style="fill:#FF7870;" d="M309.584,399.095h70.526c0.022-0.666,0.059-1.33,0.059-1.997V293.815    C380.169,330.916,346.518,365.146,309.584,399.095z"/>
		<path style="fill:#D7352E;" d="M355.445,399.088h24.666c0.022-0.663,0.058-1.325,0.058-1.991V293.815    c0,20.061-9.849,39.281-24.724,58.072V399.088z"/>
		<path style="fill:#78BAF6;" d="M373.677,112.905c-30.532,69.839-158.806,131.335-158.806,203.78v82.41h3.468    c23.709-73.151,161.83-136.536,161.83-211.711v-74.479H373.677z"/>
		<path style="fill:#1885DA;" d="M355.445,142.153v103.319c14.88-18.796,24.724-38.022,24.724-58.088v-74.472h-6.495    C369.347,122.808,363.054,132.537,355.445,142.153z"/>
	</g>
	<path style="fill:#D8E6F0;" d="M388.527,73.097C379.33,31.291,342.09,0,297.52,0l0,0c-44.569,0-81.81,31.291-91.007,73.097H388.527   z"/>
	<path style="fill:#D8E6F0;" d="M388.527,438.903C379.33,480.709,342.09,512,297.52,512l0,0c-44.569,0-81.81-31.291-91.007-73.097   H388.527z"/>
	<path style="fill:#AAC0D1;" d="M297.52,0c-2.651,0-5.275,0.118-7.87,0.336c34.498,3.432,62.63,33.443,69.903,72.762h28.974   C379.33,31.291,342.09,0,297.52,0z"/>
	<path style="fill:#AAC0D1;" d="M359.554,438.903c-7.273,39.319-35.405,69.329-69.903,72.762c2.595,0.217,5.218,0.336,7.87,0.336   c44.569,0,81.81-31.291,91.007-73.097H359.554z"/>
	<path style="fill:#BCD4E2;" d="M98.211,102.026v307.948c0,12.394,10.047,22.441,22.441,22.441h0   c12.394,0,22.441-10.047,22.441-22.441V102.026c0-12.394-10.047-22.441-22.441-22.441h0   C108.258,79.586,98.211,89.633,98.211,102.026z"/>
	<path style="fill:#80A1B2;" d="M120.651,79.586L120.651,79.586c-3.877,0-7.524,0.983-10.705,2.713   c6.99,3.801,11.735,11.21,11.735,19.727v307.948c0,8.517-4.745,15.926-11.735,19.727c3.182,1.73,6.828,2.713,10.705,2.713l0,0   c12.393,0,22.44-10.047,22.44-22.441V102.026C143.092,89.632,133.045,79.586,120.651,79.586z"/>
</g>















</svg>
