<?xml version="1.0" encoding="iso-8859-1"?>
<!-- Generator: Adobe Illustrator 19.0.0, SVG Export Plug-In . SVG Version: 6.00 Build 0)  -->
<svg xmlns="http://www.w3.org/2000/svg" xmlns:xlink="http://www.w3.org/1999/xlink" version="1.1" id="Capa_1" x="0px" y="0px" viewBox="0 0 512 512" style="enable-background:new 0 0 512 512;" xml:space="preserve" width="512" height="512">
<g>
	<path style="fill:#BCD4E2;" d="M183.441,96.457V85.255c0-3.755,3.044-6.799,6.799-6.799h212.127c3.755,0,6.799,3.044,6.799,6.799   v11.202c0,11.4-9.241,20.641-20.641,20.641H204.082C192.683,117.097,183.441,107.856,183.441,96.457z"/>
	<path style="fill:#BCD4E2;" d="M183.441,415.543v11.202c0,3.755,3.044,6.799,6.799,6.799h212.127c3.755,0,6.799-3.044,6.799-6.799   v-11.202c0-11.4-9.241-20.641-20.641-20.641H204.082C192.683,394.903,183.441,404.144,183.441,415.543z"/>
	<path style="fill:#80A1B2;" d="M402.368,78.456h-23.783c3.347,0,6.06,3.044,6.06,6.799v11.202c0,11.4-8.237,20.641-18.398,20.641   h22.279c11.4,0,20.641-9.241,20.641-20.641V85.255C409.167,81.5,406.123,78.456,402.368,78.456z"/>
	<path style="fill:#80A1B2;" d="M388.526,394.903h-22.279c10.161,0,18.398,9.241,18.398,20.641v11.202   c0,3.755-2.713,6.799-6.06,6.799h23.783c3.755,0,6.799-3.044,6.799-6.799v-11.202C409.167,404.144,399.925,394.903,388.526,394.903   z"/>
	<g>
		<rect x="216.076" y="117.104" style="fill:#D8E6F0;" width="160.455" height="277.792"/>
		<rect x="352.532" y="117.104" style="fill:#AAC0D1;" width="24" height="277.792"/>
		<path style="fill:#FF7870;" d="M276.296,117.097h-60.219v94.497C216.076,178.382,243.855,147.541,276.296,117.097z"/>
		<path style="fill:#FF7870;" d="M308.015,394.903h68.46c0.021-0.646,0.057-1.291,0.057-1.939V292.707    C376.532,328.721,343.866,361.948,308.015,394.903z"/>
		<path style="fill:#D7352E;" d="M352.531,394.896h23.944c0.021-0.644,0.056-1.287,0.056-1.932V292.707    c0,19.473-9.56,38.13-24,56.371V394.896z"/>
		<path style="fill:#78BAF6;" d="M370.23,117.097c-29.637,67.793-154.154,127.488-154.154,197.81v79.995h3.366    c23.014-71.008,157.089-132.536,157.089-205.509v-72.297H370.23z"/>
		<path style="fill:#1885DA;" d="M352.531,145.488V245.78c14.444-18.245,24-36.908,24-56.386v-72.29h-6.304    C366.026,126.71,359.918,136.154,352.531,145.488z"/>
	</g>
	<path style="fill:#D8E6F0;" d="M384.645,78.456C375.717,37.874,339.568,7.5,296.304,7.5l0,0c-43.264,0-79.413,30.374-88.341,70.956   H384.645z"/>
	<path style="fill:#D8E6F0;" d="M384.645,433.544c-8.928,40.581-45.077,70.956-88.341,70.956l0,0   c-43.264,0-79.413-30.374-88.341-70.956H384.645z"/>
	<path style="fill:#AAC0D1;" d="M296.304,7.5c-2.574,0-5.12,0.115-7.639,0.326c33.487,3.332,60.795,32.463,67.855,70.63h28.125   C375.717,37.874,339.568,7.5,296.304,7.5z"/>
	<path style="fill:#AAC0D1;" d="M356.52,433.544c-7.06,38.167-34.368,67.298-67.855,70.63c2.519,0.211,5.065,0.326,7.639,0.326   c43.264,0,79.413-30.375,88.341-70.956H356.52z"/>
	<path style="fill:#BCD4E2;" d="M102.833,106.537v298.926c0,12.03,9.753,21.783,21.783,21.783h0c12.03,0,21.783-9.753,21.783-21.783   V106.537c0-12.03-9.753-21.783-21.783-21.783h0C112.586,84.754,102.833,94.507,102.833,106.537z"/>
	<path style="fill:#80A1B2;" d="M124.617,84.754L124.617,84.754c-3.763,0-7.303,0.954-10.392,2.634   c6.786,3.69,11.392,10.882,11.392,19.149v298.926c0,8.267-4.606,15.459-11.392,19.149c3.088,1.68,6.628,2.634,10.392,2.634l0,0   c12.03,0,21.783-9.753,21.783-21.783V106.537C146.4,94.507,136.647,84.754,124.617,84.754z"/>
	<path d="M376.531,272.553c4.143,0,7.5-3.358,7.5-7.5V124.597h4.494c15.517,0,28.141-12.624,28.141-28.141V85.254   c0-7.884-6.414-14.299-14.299-14.299h-11.913c-5.495-19.121-16.823-36.358-32.37-49.012C340.7,7.793,318.759,0,296.304,0   c-13.91,0-27.354,2.859-39.955,8.497c-26.391,11.808-46.3,34.885-54.215,62.459H190.24c-7.885,0-14.299,6.415-14.299,14.299v11.202   c0,4.744,1.185,9.215,3.267,13.141h-25.309v-3.06c0-16.147-13.137-29.283-29.283-29.283S95.334,90.39,95.334,106.537v18.237   c0,4.142,3.357,7.5,7.5,7.5s7.5-3.358,7.5-7.5v-18.237c0-7.876,6.407-14.283,14.282-14.283c7.876,0,14.283,6.407,14.283,14.283   v298.926c0,7.876-6.407,14.283-14.283,14.283c-7.875,0-14.282-6.407-14.282-14.283V154.774c0-4.142-3.357-7.5-7.5-7.5   s-7.5,3.358-7.5,7.5v250.689c0,16.147,13.136,29.283,29.282,29.283s29.283-13.136,29.283-29.283v-3.06h25.309   c-2.082,3.925-3.267,8.396-3.267,13.141v11.202c0,7.884,6.414,14.299,14.299,14.299h11.913   c5.495,19.121,16.823,36.358,32.37,49.012C251.907,504.207,273.849,512,296.304,512s44.396-7.793,61.781-21.943   c15.546-12.655,26.875-29.891,32.37-49.012h11.913c7.885,0,14.299-6.415,14.299-14.299v-11.202   c0-15.517-12.624-28.141-28.141-28.141h-4.494v-94.696c0-4.142-3.357-7.5-7.5-7.5s-7.5,3.358-7.5,7.5   c0,32.436-31.263,64.524-63.939,94.689h-74.53c12.978-26.948,42.314-53.65,70.8-79.566c25.64-23.326,51.827-47.154,67.669-72.421   v29.644C369.031,269.195,372.389,272.553,376.531,272.553z M262.474,22.189c10.663-4.77,22.045-7.189,33.83-7.189   c19.017,0,37.595,6.597,52.312,18.577c12.045,9.804,21.115,22.843,26.137,37.379H217.854   C225.279,49.441,241.449,31.596,262.474,22.189z M190.941,85.956h210.725v10.501c0,7.246-5.895,13.141-13.141,13.141H204.082   c-7.246,0-13.141-5.895-13.141-13.141V85.956z M257.671,124.604c-12.796,12.705-25.035,26.309-34.095,40.778v-40.778H257.671z    M153.899,387.403V124.597h54.677V226c0,4.142,3.357,7.5,7.5,7.5s7.5-3.358,7.5-7.5v-14.406c0-13.699,5.424-28.084,16.583-43.978   c10.911-15.54,26.334-30.942,39.105-43.013h78.662c-14.402,24.306-40.925,48.436-66.683,71.87   c-25.64,23.326-51.825,47.153-67.667,72.418V256c0-4.142-3.357-7.5-7.5-7.5s-7.5,3.358-7.5,7.5v131.403H153.899z M348.615,478.423   C333.898,490.403,315.32,497,296.304,497s-37.595-6.597-52.312-18.577c-12.045-9.804-21.115-22.843-26.137-37.379h156.896   C369.73,455.58,360.66,468.62,348.615,478.423z M369.031,338.966v48.43h-42.009C343.617,371.52,358.597,355.554,369.031,338.966z    M388.525,402.403c7.246,0,13.141,5.895,13.141,13.141v10.501H190.941v-10.501c0-7.246,5.895-13.141,13.141-13.141H388.525z    M291.269,296.735c-25.592,23.282-51.851,47.17-67.692,72.396v-54.224c0-36.595,39.531-72.559,77.762-107.338   c25.574-23.267,51.874-47.191,67.693-72.374v54.199C369.031,225.99,329.499,261.954,291.269,296.735z"/>
</g>















</svg>
