<?xml version="1.0" encoding="UTF-8" standalone="no"?>
<!-- Created with Inkscape (http://www.inkscape.org/) -->

<svg
   version="1.1"
   id="svg4065"
   xml:space="preserve"
   width="682.66669"
   height="682.66669"
   viewBox="0 0 682.66669 682.66669"
   xmlns="http://www.w3.org/2000/svg"
   xmlns:svg="http://www.w3.org/2000/svg"><defs
     id="defs4069"><clipPath
       clipPathUnits="userSpaceOnUse"
       id="clipPath4079"><path
         d="M 0,512 H 512 V 0 H 0 Z"
         id="path4077" /></clipPath></defs><g
     id="g4071"
     transform="matrix(1.3333333,0,0,-1.3333333,0,682.66667)"><g
       id="g4073"><g
         id="g4075"
         clip-path="url(#clipPath4079)"><g
           id="g4081"
           transform="translate(286.3496,311.5239)"><path
             d="M 0,0 17.605,18.625 C 25.183,26.64 29.403,37.25 29.403,48.28 v 32.676 c 0,11.936 -9.675,21.612 -21.612,21.612 h -228.014 c -11.936,0 -21.612,-9.676 -21.612,-21.612 V 48.28 c 0,-11.03 4.222,-21.64 11.798,-29.655 L -212.431,0 v -157.004 l -17.606,-18.625 c -7.576,-8.015 -11.798,-18.625 -11.798,-29.655 v -77.128 c 0,-11.936 9.676,-21.612 21.612,-21.612 H 7.791 c 11.937,0 21.612,9.676 21.612,21.612 v 77.128 c 0,11.03 -4.22,21.64 -11.798,29.655 L 0,-157.004 Z"
             style="fill:#c8effe;fill-opacity:1;fill-rule:nonzero;stroke:none"
             id="path4083" /></g><g
           id="g4085"
           transform="translate(303.9551,330.1489)"><path
             d="m 0,0 c 7.577,8.015 11.798,18.625 11.798,29.655 v 32.676 c 0,11.936 -9.676,21.612 -21.612,21.612 h -49.908 c 11.936,0 21.613,-9.676 21.613,-21.612 V 29.655 c 0,-11.03 -4.222,-21.64 -11.798,-29.655 l -17.607,-18.625 v -157.004 l 17.607,-18.625 c 7.576,-8.015 11.798,-18.625 11.798,-29.655 v -77.128 c 0,-11.936 -9.677,-21.612 -21.613,-21.612 h 49.908 c 11.936,0 21.612,9.676 21.612,21.612 v 77.128 c 0,11.03 -4.221,21.64 -11.798,29.655 l -17.605,18.625 v 157.004 z"
             style="fill:#a0ecf9;fill-opacity:1;fill-rule:nonzero;stroke:none"
             id="path4087" /></g><path
           d="m 223.2,414.092 h -86.133 v 30.097 H 223.2 Z"
           style="fill:#c8effe;fill-opacity:1;fill-rule:nonzero;stroke:none"
           id="path4089" /><path
           d="M 193.437,414.092 H 223.2 v 30.097 h -29.763 z"
           style="fill:#a0ecf9;fill-opacity:1;fill-rule:nonzero;stroke:none"
           id="path4091" /><g
           id="g4093"
           transform="translate(224.8398,504.5)"><path
             d="m 0,0 h -89.411 c -6.011,0 -10.884,-4.873 -10.884,-10.883 v -38.545 c 0,-6.01 4.873,-10.883 10.884,-10.883 H 0 c 6.011,0 10.883,4.873 10.883,10.883 v 38.545 C 10.883,-4.873 6.011,0 0,0"
             style="fill:#8d9ca8;fill-opacity:1;fill-rule:nonzero;stroke:none"
             id="path4095" /></g><g
           id="g4097"
           transform="translate(224.8398,504.5)"><path
             d="m 0,0 h -29.763 c 6.011,0 10.884,-4.873 10.884,-10.883 v -38.545 c 0,-6.01 -4.873,-10.883 -10.884,-10.883 H 0 c 6.011,0 10.883,4.873 10.883,10.883 v 38.545 C 10.883,-4.873 6.011,0 0,0"
             style="fill:#7a8d98;fill-opacity:1;fill-rule:nonzero;stroke:none"
             id="path4099" /></g><path
           d="M 73.919,154.52 H 286.35 V 311.524 H 73.919 Z"
           style="fill:#aca5d6;fill-opacity:1;fill-rule:nonzero;stroke:none"
           id="path4101" /><path
           d="m 236.441,154.52 h 49.908 v 157.004 h -49.908 z"
           style="fill:#978ecb;fill-opacity:1;fill-rule:nonzero;stroke:none"
           id="path4103" /><g
           id="g4105"
           transform="translate(218.7852,271.3389)"><path
             d="m 0,0 c 0,0 -40.433,10.911 -64.13,-15.748 -23.697,-26.659 -11.655,-60.038 -11.655,-60.038 0,0 33.378,-12.041 60.037,11.656 C 10.911,-40.433 0,0 0,0"
             style="fill:#bbec6c;fill-opacity:1;fill-rule:nonzero;stroke:none"
             id="path4107" /></g><g
           id="g4109"
           transform="translate(218.7852,271.3389)"><path
             d="M 0,0 C 0,0 -16.048,4.327 -33.848,0.866 -31.263,0.404 -29.762,0 -29.762,0 c 0,0 10.911,-40.433 -15.749,-64.13 -8.134,-7.23 -16.89,-11.122 -25.137,-13.056 10.37,-2.306 34.579,-5.007 54.9,13.056 C 10.911,-40.433 0,0 0,0"
             style="fill:#a2e62e;fill-opacity:1;fill-rule:nonzero;stroke:none"
             id="path4111" /></g><g
           id="g4113"
           transform="translate(419.6211,7.5)"><path
             d="m 0,0 c -7.609,0 -13.778,6.169 -13.778,13.778 v 266.055 c 0,4.792 -1.338,9.474 -3.871,13.542 l -24.103,38.71 c -5.257,8.443 -8.034,18.162 -8.034,28.106 v 123.031 c 0,7.609 6.168,13.778 13.778,13.778 7.61,0 13.778,-6.169 13.778,-13.778 V 360.191 c 0,-4.791 1.339,-9.473 3.872,-13.541 L 5.744,307.94 C 11,299.498 13.778,289.779 13.778,279.833 V 13.778 C 13.778,6.169 7.609,0 0,0"
             style="fill:#ed74b7;fill-opacity:1;fill-rule:nonzero;stroke:none"
             id="path4115" /></g><g
           id="g4117"
           transform="translate(397.3906,490.7217)"><path
             d="m 0,0 h 58.511 c 6.397,0 11.584,-5.186 11.584,-11.583 v -87.629 c 0,-6.397 -5.187,-11.583 -11.584,-11.583 H 0 Z"
             style="fill:#ffdfcf;fill-opacity:1;fill-rule:nonzero;stroke:none"
             id="path4119" /></g><g
           id="g4121"
           transform="translate(455.9014,490.7217)"><path
             d="m 0,0 h -29.762 c 6.398,0 11.583,-5.186 11.583,-11.583 v -87.629 c 0,-6.397 -5.185,-11.583 -11.583,-11.583 H 0 c 6.397,0 11.584,5.186 11.584,11.583 v 87.629 C 11.584,-5.186 6.397,0 0,0"
             style="fill:#ffcebf;fill-opacity:1;fill-rule:nonzero;stroke:none"
             id="path4123" /></g><path
           d="M 73.919,154.52 H 286.35 V 311.524 H 73.919 Z"
           style="fill:none;stroke:#000000;stroke-width:15;stroke-linecap:round;stroke-linejoin:round;stroke-miterlimit:10;stroke-dasharray:none;stroke-opacity:1"
           id="path4125" /><g
           id="g4127"
           transform="translate(286.3496,311.5239)"><path
             d="M 0,0 17.605,18.625 C 25.183,26.64 29.403,37.25 29.403,48.28 v 32.676 c 0,11.936 -9.675,21.612 -21.612,21.612 h -228.014 c -11.936,0 -21.612,-9.676 -21.612,-21.612 V 48.28 c 0,-11.03 4.222,-21.64 11.798,-29.655 L -212.431,0 v -157.004 l -17.606,-18.625 c -7.576,-8.015 -11.798,-18.625 -11.798,-29.655 v -77.128 c 0,-11.936 9.676,-21.612 21.612,-21.612 H 7.791 c 11.937,0 21.612,9.676 21.612,21.612 v 77.128 c 0,11.03 -4.22,21.64 -11.798,29.655 L 0,-157.004 Z"
             style="fill:none;stroke:#000000;stroke-width:15;stroke-linecap:round;stroke-linejoin:round;stroke-miterlimit:10;stroke-dasharray:none;stroke-opacity:1"
             id="path4129" /></g><g
           id="g4131"
           transform="translate(260.3496,154.52)"><path
             d="m 0,0 v -2.12 c 0,-5.28 2.021,-10.36 5.65,-14.2 l 19.06,-20.17 c 3.03,-3.2 4.69,-7.39 4.69,-11.79 v -72.74 h -219.24 v 72.74 c 0,4.4 1.67,8.59 4.7,11.79 l 19.06,20.17 c 3.631,3.84 5.65,8.92 5.65,14.2 V 0"
             style="fill:none;stroke:#000000;stroke-width:15;stroke-linecap:round;stroke-linejoin:round;stroke-miterlimit:10;stroke-dasharray:none;stroke-opacity:1"
             id="path4133" /></g><g
           id="g4135"
           transform="translate(285.0596,348.0098)"><path
             d="m 0,0 -19.06,-20.17 c -3.629,-3.83 -5.65,-8.91 -5.65,-14.19 v -2.13"
             style="fill:none;stroke:#000000;stroke-width:15;stroke-linecap:round;stroke-linejoin:round;stroke-miterlimit:10;stroke-dasharray:none;stroke-opacity:1"
             id="path4137" /></g><g
           id="g4139"
           transform="translate(99.9199,311.52)"><path
             d="M 0,0 V 2.13 C 0,7.41 -2.02,12.49 -5.65,16.32 L -24.71,36.49"
             style="fill:none;stroke:#000000;stroke-width:15;stroke-linecap:round;stroke-linejoin:round;stroke-miterlimit:10;stroke-dasharray:none;stroke-opacity:1"
             id="path4141" /></g><path
           d="m 223.2,414.092 h -86.133 v 30.097 H 223.2 Z"
           style="fill:none;stroke:#000000;stroke-width:15;stroke-linecap:round;stroke-linejoin:round;stroke-miterlimit:10;stroke-dasharray:none;stroke-opacity:1"
           id="path4143" /><g
           id="g4145"
           transform="translate(224.8398,504.5)"><path
             d="m 0,0 h -89.411 c -6.011,0 -10.884,-4.873 -10.884,-10.883 v -38.545 c 0,-6.01 4.873,-10.883 10.884,-10.883 H 0 c 6.011,0 10.883,4.873 10.883,10.883 v 38.545 C 10.883,-4.873 6.011,0 0,0 Z"
             style="fill:none;stroke:#000000;stroke-width:15;stroke-linecap:round;stroke-linejoin:round;stroke-miterlimit:10;stroke-dasharray:none;stroke-opacity:1"
             id="path4147" /></g><g
           id="g4149"
           transform="translate(153.0098,504.5)"><path
             d="M 0,0 V -60.311"
             style="fill:none;stroke:#000000;stroke-width:15;stroke-linecap:round;stroke-linejoin:round;stroke-miterlimit:10;stroke-dasharray:none;stroke-opacity:1"
             id="path4151" /></g><g
           id="g4153"
           transform="translate(180.4678,504.5)"><path
             d="M 0,0 V -60.311"
             style="fill:none;stroke:#000000;stroke-width:15;stroke-linecap:round;stroke-linejoin:round;stroke-miterlimit:10;stroke-dasharray:none;stroke-opacity:1"
             id="path4155" /></g><g
           id="g4157"
           transform="translate(207.9258,504.5)"><path
             d="M 0,0 V -60.311"
             style="fill:none;stroke:#000000;stroke-width:15;stroke-linecap:round;stroke-linejoin:round;stroke-miterlimit:10;stroke-dasharray:none;stroke-opacity:1"
             id="path4159" /></g><g
           id="g4161"
           transform="translate(143,195.5532)"><path
             d="m 0,0 c 0,0 -12.042,33.378 11.655,60.038 23.698,26.659 64.13,15.748 64.13,15.748"
             style="fill:none;stroke:#000000;stroke-width:15;stroke-linecap:round;stroke-linejoin:round;stroke-miterlimit:10;stroke-dasharray:none;stroke-opacity:1"
             id="path4163" /></g><g
           id="g4165"
           transform="translate(177.1895,229.7432)"><path
             d="m 0,0 -34.189,-34.19 c 0,0 33.377,-12.041 60.037,11.656 26.659,23.697 15.748,64.13 15.748,64.13"
             style="fill:none;stroke:#000000;stroke-width:15;stroke-linecap:round;stroke-linejoin:round;stroke-miterlimit:10;stroke-dasharray:none;stroke-opacity:1"
             id="path4167" /></g><g
           id="g4169"
           transform="translate(419.6211,7.5)"><path
             d="m 0,0 c -7.609,0 -13.778,6.169 -13.778,13.778 v 266.055 c 0,4.792 -1.338,9.474 -3.871,13.542 l -24.103,38.71 c -5.257,8.443 -8.034,18.162 -8.034,28.106 v 123.031 c 0,7.609 6.168,13.778 13.778,13.778 7.61,0 13.778,-6.169 13.778,-13.778 V 360.191 c 0,-4.791 1.339,-9.473 3.872,-13.541 L 5.744,307.94 C 11,299.498 13.778,289.779 13.778,279.833 V 13.778 C 13.778,6.169 7.609,0 0,0 Z"
             style="fill:none;stroke:#000000;stroke-width:15;stroke-linecap:round;stroke-linejoin:round;stroke-miterlimit:10;stroke-dasharray:none;stroke-opacity:1"
             id="path4171" /></g><g
           id="g4173"
           transform="translate(397.3906,490.7217)"><path
             d="m 0,0 h 58.511 c 6.397,0 11.584,-5.186 11.584,-11.583 v -87.629 c 0,-6.397 -5.187,-11.583 -11.584,-11.583 H 0 Z"
             style="fill:none;stroke:#000000;stroke-width:15;stroke-linecap:round;stroke-linejoin:round;stroke-miterlimit:10;stroke-dasharray:none;stroke-opacity:1"
             id="path4175" /></g><g
           id="g4177"
           transform="translate(429.2197,407.6191)"><path
             d="M 0,0 H 38.266"
             style="fill:none;stroke:#000000;stroke-width:15;stroke-linecap:round;stroke-linejoin:round;stroke-miterlimit:10;stroke-dasharray:none;stroke-opacity:1"
             id="path4179" /></g><g
           id="g4181"
           transform="translate(429.2197,434.3237)"><path
             d="M 0,0 H 38.266"
             style="fill:none;stroke:#000000;stroke-width:15;stroke-linecap:round;stroke-linejoin:round;stroke-miterlimit:10;stroke-dasharray:none;stroke-opacity:1"
             id="path4183" /></g></g></g></g></svg>
