<svg id="Capa_1" enable-background="new 0 0 512 512" height="512" viewBox="0 0 512 512" width="512" xmlns="http://www.w3.org/2000/svg"><g><path d="m311.798 234.879-26.953 10.302c-4.268 0-7.726-13.76-7.726-18.028s3.459-7.726 7.726-7.726h26.953c8.265 0 15.961-4.449 20.085-11.61l21.33-37.032c6.875-11.936 19.702-19.35 33.476-19.35h16.626c4.268 0 7.726 3.459 7.726 7.726 0 4.268-3.459 7.726-7.726 7.726h-16.626c-8.264 0-15.961 4.449-20.085 11.611l-21.33 37.031c-6.874 11.936-19.701 19.35-33.476 19.35z" fill="#fcf1f2"/><path d="m281.156 197.993-41.806 13.935c-4.207 1.402-7.044 5.339-7.044 9.773v13.178l27.815 16.099 27.815-16.099v-32c-.001-3.516-3.445-5.998-6.78-4.886z" fill="#e6d6d1"/><path d="m382.402 457.087c-34.453 34.443-86.265 50.108-119.572 53.455-4.419-.055-13.888 1.178-18.225.827-97.031-7.859-172.34-88.699-171.976-187.571.119-32.198 8.356-62.483 22.755-88.92h84.155l80.58 23.186 80.58-23.186h57.304c3.884 0 7.459 2.174 9.2 5.647 35.862 56.165 9.123 182.629-24.801 216.562z" fill="#bcf1f8"/><path d="m447.612 324.504c0 51.776-20.985 98.649-54.908 132.583-34.449 34.439-82.238 55.547-134.963 54.898-4.419-.052-8.798-.258-13.135-.618 45.637-3.709 86.658-23.756 117.192-54.28 33.924-33.934 54.908-80.807 54.908-132.583 0-30.194-7.139-58.71-19.8-83.98-1.741-3.472-5.316-5.645-9.199-5.645h30.905c3.884 0 7.458 2.174 9.199 5.645 12.662 25.271 19.801 53.786 19.801 83.98z" fill="#a0f0f2"/><path d="m90.658 210.279c-1.175-9.498-1.622-19.064-1.347-28.609 1.407-47.87 21.07-95.205 58.663-130.663s85.998-52.32 133.868-50.927c9.756.289 19.491 1.334 29.108 3.133.085 24.382-220.292 207.066-220.292 207.066z" fill="#bcf1f8"/><path d="m328.112 15.38-54.548 51.448-68.764 49.821-48.371 60.657-61.043 57.573c-2.133-8.107-3.709-16.328-4.729-24.601l220.293-207.064c5.037.937 10.044 2.091 14.999 3.451 3.873 1.051 5.079 5.955 2.163 8.715z" fill="#a0f0f2"/><path d="m166.03 139.102c6.308-14.481 15.586-27.952 27.802-39.474 12.346-11.644 26.503-20.176 41.502-25.62-14.904 27.287-42.542 54.216-69.304 65.094z" fill="#00ddf9"/><path d="m273.565 66.827-117.141 110.476c1.071-13.073 4.285-25.991 9.611-38.199l69.761-65.249c12.208-4.39 24.978-6.727 37.769-7.028z" fill="#00c7f8"/><path d="m360.048 324.504c0 21.321 5.353 58.724 5.353 58.724-5.45 9.75-12.215 18.664-20.054 26.503-21.809 21.809-51.941 35.304-85.226 35.304-45.248 0-84.671-24.93-105.283-61.805 0 0 5.356-37.404 5.356-58.725s-5.353-58.724-5.353-58.724c5.45-9.749 12.215-18.664 20.054-26.503 1.504-1.504 3.06-2.977 4.646-4.399h161.16c1.587 1.422 3.142 2.895 4.646 4.399 7.839 7.839 14.604 16.753 20.054 26.503 0 0-5.353 37.402-5.353 58.723z" fill="#00ddf9"/><path d="m95.293 265.784c-17.069 0-30.905-13.837-30.905-30.905 0-17.068 13.837-30.905 30.905-30.905 17.068 0 30.905 13.837 30.905 30.905 0 17.069-13.836 30.905-30.905 30.905z" fill="#fcf1f2"/><path d="m380.651 324.504c0 21.325-5.542 41.351-15.257 58.72h-210.547c-9.715-17.369-15.257-37.395-15.257-58.72s5.542-41.351 15.257-58.72h210.547c9.715 17.369 15.257 37.396 15.257 58.72z" fill="#fff"/><path d="m260.121 352.319c-15.362 0-27.815-12.453-27.815-27.815 0-15.362 12.453-27.815 27.815-27.815 15.362 0 27.815 12.453 27.815 27.815-.001 15.362-12.454 27.815-27.815 27.815z" fill="#cbb0f2"/></g></svg>