<?xml version="1.0" encoding="UTF-8" standalone="no"?>
<!-- Created with Inkscape (http://www.inkscape.org/) -->

<svg
   version="1.1"
   id="svg3282"
   xml:space="preserve"
   width="682.66669"
   height="682.66669"
   viewBox="0 0 682.66669 682.66669"
   xmlns="http://www.w3.org/2000/svg"
   xmlns:svg="http://www.w3.org/2000/svg"><defs
     id="defs3286"><clipPath
       clipPathUnits="userSpaceOnUse"
       id="clipPath3296"><path
         d="M 0,512 H 512 V 0 H 0 Z"
         id="path3294" /></clipPath></defs><g
     id="g3288"
     transform="matrix(1.3333333,0,0,-1.3333333,0,682.66667)"><g
       id="g3290"><g
         id="g3292"
         clip-path="url(#clipPath3296)"><g
           id="g3298"
           transform="translate(441.999,189.5029)"><path
             d="m 0,0 c 0,-50.26 -20.37,-95.759 -53.3,-128.699 -33.443,-33.434 -79.835,-53.92 -131.009,-53.285 -100.257,1.243 -180.057,82.404 -179.687,182.669 0.115,31.254 8.11,60.652 22.089,86.314 h 313.753 c 3.77,0 7.24,-2.111 8.929,-5.481 C -6.929,56.992 0,29.305 0,0"
             style="fill:#bcf1f8;fill-opacity:1;fill-rule:nonzero;stroke:none"
             id="path3300" /></g><g
           id="g3302"
           transform="translate(441.998,189.5024)"><path
             d="m 0,0 c 0,-50.259 -20.369,-95.759 -53.299,-128.699 -33.44,-33.429 -79.829,-53.919 -131.01,-53.289 -4.289,0.05 -8.539,0.25 -12.749,0.6 44.299,3.599 84.12,23.059 113.759,52.689 32.93,32.94 53.3,78.44 53.3,128.699 0,29.31 -6.931,56.99 -19.22,81.52 -1.69,3.37 -5.16,5.48 -8.93,5.48 h 30 c 3.77,0 7.24,-2.11 8.929,-5.48 C -6.93,56.99 0,29.31 0,0"
             style="fill:#a0f0f2;fill-opacity:1;fill-rule:nonzero;stroke:none"
             id="path3304" /></g><g
           id="g3306"
           transform="translate(325.998,489.5728)"><path
             d="m 0,0 -225.907,-213.07 c -4.441,16.912 -6.396,34.317 -5.896,51.65 1.366,46.467 20.452,92.416 56.945,126.834 36.492,34.419 83.477,50.788 129.945,49.436 14.432,-0.428 28.812,-2.558 42.818,-6.388 C 1.663,7.435 2.834,2.673 0,0"
             style="fill:#bcf1f8;fill-opacity:1;fill-rule:nonzero;stroke:none"
             id="path3308" /></g><g
           id="g3310"
           transform="translate(325.999,489.5703)"><path
             d="m 0,0 -225.907,-213.068 c -2.071,7.869 -3.601,15.849 -4.591,23.88 L -16.659,11.81 C -11.77,10.9 -6.909,9.78 -2.1,8.46 1.66,7.44 2.83,2.68 0,0"
             style="fill:#a0f0f2;fill-opacity:1;fill-rule:nonzero;stroke:none"
             id="path3312" /></g><g
           id="g3314"
           transform="translate(273.0479,439.6313)"><path
             d="m 0,0 -113.703,-107.242 c 2.29,27.755 14.456,54.79 36.309,75.402 C -55.541,-11.229 -27.841,-0.664 0,0"
             style="fill:#00ddf9;fill-opacity:1;fill-rule:nonzero;stroke:none"
             id="path3316" /></g><g
           id="g3318"
           transform="translate(273.0498,439.6304)"><path
             d="m 0,0 -113.709,-107.239 c 1.04,12.69 4.16,25.23 9.33,37.08 l 67.717,63.337 C -24.812,-2.56 -12.415,-0.292 0,0"
             style="fill:#00c7f8;fill-opacity:1;fill-rule:nonzero;stroke:none"
             id="path3320" /></g><g
           id="g3322"
           transform="translate(376.999,189.5029)"><path
             d="M 0,0 C 0,-32.31 -13.1,-61.56 -34.27,-82.729 -55.439,-103.899 -84.689,-117 -116.999,-117 c -64.619,0 -116.999,52.38 -116.999,117 0,32.31 13.1,61.56 34.269,82.729 1.46,1.46 2.97,2.89 4.51,4.27 h 156.44 c 1.54,-1.38 3.05,-2.81 4.509,-4.27 C -13.1,61.56 0,32.31 0,0"
             style="fill:#00ddf9;fill-opacity:1;fill-rule:nonzero;stroke:none"
             id="path3324" /></g><g
           id="g3326"
           transform="translate(100.001,246.5024)"><path
             d="M 0,0 V 0 C -16.568,0 -30,13.431 -30,30 -30,46.568 -16.568,60 0,60 16.568,60 30,46.568 30,30 30,13.431 16.568,0 0,0"
             style="fill:#fcf1f2;fill-opacity:1;fill-rule:nonzero;stroke:none"
             id="path3328" /></g><g
           id="g3330"
           transform="translate(376.999,189.5029)"><path
             d="m 0,0 c 0,-20.7 -5.38,-40.14 -14.81,-57 h -204.378 c -9.43,16.86 -14.81,36.3 -14.81,57 0,20.7 5.38,40.14 14.81,57 H -14.81 C -5.38,40.14 0,20.7 0,0"
             style="fill:#ffffff;fill-opacity:1;fill-rule:nonzero;stroke:none"
             id="path3332" /></g><g
           id="g3334"
           transform="translate(260,162.5029)"><path
             d="m 0,0 v 0 c -14.911,0 -27,12.088 -27,27 v 0 c 0,14.911 12.089,27 27,27 14.911,0 27,-12.089 27,-27 v 0 C 27,12.088 14.911,0 0,0"
             style="fill:#cbb0f2;fill-opacity:1;fill-rule:nonzero;stroke:none"
             id="path3336" /></g><g
           id="g3338"
           transform="translate(280.4189,312.3081)"><path
             d="m 0,0 -40.581,-13.527 c -4.083,-1.361 -6.838,-5.182 -6.838,-9.487 v -12.792 h 54 V -4.744 C 6.581,-1.331 3.237,1.079 0,0"
             style="fill:#e6d6d1;fill-opacity:1;fill-rule:nonzero;stroke:none"
             id="path3340" /></g><g
           id="g3342"
           transform="translate(161.0508,246.5)"><path
             d="M 0,0 H 198.879"
             style="fill:none;stroke:#000000;stroke-width:15;stroke-linecap:round;stroke-linejoin:round;stroke-miterlimit:10;stroke-dasharray:none;stroke-opacity:1"
             id="path3344" /></g><g
           id="g3346"
           transform="translate(286.9668,132.5)"><path
             d="M 0,0 H -127.922"
             style="fill:none;stroke:#000000;stroke-width:15;stroke-linecap:round;stroke-linejoin:round;stroke-miterlimit:10;stroke-dasharray:none;stroke-opacity:1"
             id="path3348" /></g><g
           id="g3350"
           transform="translate(361.0576,132.5)"><path
             d="M 0,0 H -39.091"
             style="fill:none;stroke:#000000;stroke-width:15;stroke-linecap:round;stroke-linejoin:round;stroke-miterlimit:10;stroke-dasharray:none;stroke-opacity:1"
             id="path3352" /></g><g
           id="g3354"
           transform="translate(130.7832,276.5)"><path
             d="m 0,0 h 283.062 c 3.771,0 7.241,-2.111 8.931,-5.481 12.296,-24.526 19.224,-52.214 19.224,-81.519 0,-50.26 -20.37,-95.76 -53.3,-128.7 -33.444,-33.434 -79.835,-53.92 -131.01,-53.286 -100.258,1.243 -180.058,82.406 -179.689,182.671 0.074,20.177 3.433,39.581 9.565,57.705"
             style="fill:none;stroke:#000000;stroke-width:15;stroke-linecap:round;stroke-linejoin:round;stroke-miterlimit:10;stroke-dasharray:none;stroke-opacity:1"
             id="path3356" /></g><g
           id="g3358"
           transform="translate(100,246.5)"><path
             d="M 0,0 V 0 C -16.568,0 -30,13.432 -30,30 -30,46.569 -16.568,60 0,60 16.568,60 30,46.569 30,30 30,13.432 16.568,0 0,0 Z"
             style="fill:none;stroke:#000000;stroke-width:15;stroke-linecap:round;stroke-linejoin:round;stroke-miterlimit:10;stroke-dasharray:none;stroke-opacity:1"
             id="path3360" /></g><g
           id="g3362"
           transform="translate(260,162.5)"><path
             d="M 0,0 V 0 C -14.912,0 -27,12.088 -27,27 -27,41.912 -14.912,54 0,54 14.912,54 27,41.912 27,27 27,12.088 14.912,0 0,0 Z"
             style="fill:none;stroke:#000000;stroke-width:15;stroke-linecap:round;stroke-linejoin:round;stroke-miterlimit:10;stroke-dasharray:none;stroke-opacity:1"
             id="path3364" /></g><g
           id="g3366"
           transform="translate(113.2139,404.0132)"><path
             d="m 0,0 c 9.28,18.588 21.931,35.888 37.925,50.973 36.492,34.419 83.478,50.788 129.946,49.437 14.432,-0.429 28.814,-2.558 42.818,-6.389 3.758,-1.027 4.929,-5.789 2.096,-8.461 L 9.46,-106.212"
             style="fill:none;stroke:#000000;stroke-width:15;stroke-linecap:round;stroke-linejoin:round;stroke-miterlimit:10;stroke-dasharray:none;stroke-opacity:1"
             id="path3368" /></g><g
           id="g3370"
           transform="translate(94.8486,306.5)"><path
             d="m 0,0 c -0.646,7.202 -0.863,14.433 -0.655,21.651 0.427,14.543 2.591,29.036 6.48,43.141"
             style="fill:none;stroke:#000000;stroke-width:15;stroke-linecap:round;stroke-linejoin:round;stroke-miterlimit:10;stroke-dasharray:none;stroke-opacity:1"
             id="path3372" /></g><g
           id="g3374"
           transform="translate(159.3584,332.5591)"><path
             d="m 0,0 c 2.326,27.695 14.486,54.662 36.295,75.231 21.767,20.53 49.333,31.092 77.063,31.832"
             style="fill:none;stroke:#000000;stroke-width:15;stroke-linecap:round;stroke-linejoin:round;stroke-miterlimit:10;stroke-dasharray:none;stroke-opacity:1"
             id="path3376" /></g><g
           id="g3378"
           transform="translate(339.7529,275.1006)"><path
             d="m 0,0 c 1.011,-0.939 2.005,-1.898 2.978,-2.871 21.169,-21.17 34.269,-50.42 34.269,-82.73 0,-32.31 -13.1,-61.56 -34.269,-82.73 -21.17,-21.169 -50.42,-34.27 -82.731,-34.27 -64.62,0 -117,52.38 -117,117 0,32.31 13.1,61.56 34.27,82.73 1.047,1.048 2.121,2.08 3.212,3.089"
             style="fill:none;stroke:#000000;stroke-width:15;stroke-linecap:round;stroke-linejoin:round;stroke-miterlimit:10;stroke-dasharray:none;stroke-opacity:1"
             id="path3380" /></g><g
           id="g3382"
           transform="translate(287,278.6562)"><path
             d="m 0,0 v 28.907 c 0,3.412 -3.344,5.822 -6.581,4.743 L -47.162,20.123 C -51.246,18.762 -54,14.94 -54,10.636 V -0.612"
             style="fill:none;stroke:#000000;stroke-width:15;stroke-linecap:round;stroke-linejoin:round;stroke-miterlimit:10;stroke-dasharray:none;stroke-opacity:1"
             id="path3384" /></g><g
           id="g3386"
           transform="translate(294,276.5)"><path
             d="M 0,0 H 16.164 C 26.894,0 36.806,5.729 42.16,15.027 L 62.865,50.974 C 68.221,60.271 78.133,66 88.861,66 H 105"
             style="fill:none;stroke:#000000;stroke-width:15;stroke-linecap:round;stroke-linejoin:round;stroke-miterlimit:10;stroke-dasharray:none;stroke-opacity:1"
             id="path3388" /></g></g></g></g></svg>
