<svg id="Capa_1" enable-background="new 0 0 512 512" height="512" viewBox="0 0 512 512" width="512" xmlns="http://www.w3.org/2000/svg"><g><g><path d="m139.935 95c14.416-50.514 60.914-87.497 116.063-87.497s101.647 36.982 116.063 87.497l-115.767 21.915z" fill="#f9f6f9"/><path d="m294.461 13.762c-37.453 12.584-66.696 43.046-77.593 81.238h-76.933c14.422-50.516 60.913-87.5 116.064-87.5 13.453 0 26.387 2.197 38.462 6.262z" fill="#dfeaef"/><path d="m370.14 94.869h-228.28c-8.177 0-14.805 6.628-14.805 14.805v51.843h257.89v-51.843c0-8.176-6.628-14.805-14.805-14.805z" fill="#e4f6ff"/><path d="m233.73 94.871c-8.17 0-14.801 6.622-14.801 14.801v51.845h-91.874v-51.845c0-8.18 6.632-14.801 14.811-14.801z" fill="#d3effb"/><path d="m449.289 342.554c0 44.536-6.346 86.785-17.731 124.723-6.614 22.041-26.78 37.22-49.793 37.22h-251.526c-23.01 0-43.175-15.176-49.791-37.215-11.39-37.939-17.737-80.19-17.737-124.728 0-67.116 14.419-129.038 38.753-178.831 8.737-17.878 26.824-29.279 46.723-29.279h215.626c19.898 0 37.986 11.401 46.723 29.278 24.334 49.793 38.753 111.715 38.753 178.832z" fill="#61a2f9"/><path d="m204.672 504.5h-74.426c-23.011 0-43.176-15.181-49.797-37.213-11.386-37.942-17.738-80.189-17.738-124.733 0-67.115 14.422-129.037 38.761-178.825 8.729-17.877 26.816-29.283 46.721-29.283h63.81c-8.12 0-15.51 11.406-19.076 29.283-9.928 49.787-15.81 111.709-15.81 178.825 0 44.544 2.587 86.791 7.241 124.733 2.696 22.032 10.926 37.213 20.314 37.213z" fill="#4073c8"/><path d="m302.505 217.078h-93.01c-18.301 0-33.137 14.836-33.137 33.137v144.871c0 18.301 14.836 33.137 33.137 33.137h93.01c18.301 0 33.137-14.836 33.137-33.137v-144.87c0-18.302-14.836-33.138-33.137-33.138z" fill="#e4f6ff"/></g><g><path d="m417.278 160.427c-5.565-11.385-14.292-20.386-24.832-26.179v-24.574c0-9.531-6.012-17.682-14.442-20.867-3.665-11.381-8.894-22.167-15.595-32.108-2.315-3.435-6.975-4.342-10.411-2.027-3.435 2.315-4.342 6.977-2.026 10.411 4.713 6.993 8.589 14.464 11.613 22.29h-211.158c7.485-19.27 20.302-36.455 36.824-49.109 19.874-15.22 43.646-23.264 68.749-23.264 28.042 0 54.943 10.328 75.748 29.081 3.074 2.772 7.817 2.527 10.593-.549 2.772-3.077 2.527-7.819-.55-10.592-23.565-21.242-54.033-32.94-85.791-32.94-28.428 0-55.354 9.113-77.868 26.354-20.637 15.805-36.18 37.858-44.131 62.451-8.435 3.185-14.45 11.336-14.45 20.868v24.576c-10.539 5.792-19.264 14.793-24.829 26.178-25.849 52.908-39.512 115.886-39.512 182.123 0 24.568 1.912 48.96 5.685 72.497.654 4.089 4.499 6.869 8.592 6.219 4.09-.656 6.874-4.502 6.219-8.592-3.646-22.754-5.495-46.348-5.495-70.124 0-63.968 13.137-124.668 37.988-175.536 7.56-15.466 22.884-25.074 39.992-25.074h215.619c17.108 0 32.433 9.608 39.991 25.073 24.853 50.869 37.989 111.569 37.989 175.537 0 42.813-5.859 84.054-17.413 122.573-5.727 19.066-22.849 31.877-42.607 31.877h-251.53c-19.767 0-36.889-12.81-42.607-31.877-2.296-7.647-4.415-15.614-6.299-23.678-.942-4.034-4.977-6.541-9.01-5.598-4.033.942-6.539 4.976-5.598 9.009 1.954 8.367 4.155 16.637 6.54 24.578 7.635 25.46 30.531 42.566 56.974 42.566h251.53c26.432 0 49.327-17.105 56.974-42.565 11.976-39.92 18.047-82.61 18.047-126.885-.001-66.237-13.664-129.215-39.513-182.123zm-269.088-33.487c-4.67 0-9.237.543-13.64 1.569v-18.835c0-4.026 3.28-7.302 7.312-7.302h228.282c4.026 0 7.302 3.275 7.302 7.302v18.834c-4.402-1.026-8.968-1.568-13.637-1.568z"/><path d="m302.505 435.724c22.407 0 40.638-18.23 40.638-40.637v-144.872c0-22.407-18.23-40.637-40.638-40.637h-93.01c-22.407 0-40.638 18.23-40.638 40.637v144.872c0 22.407 18.23 40.637 40.638 40.637zm-118.648-40.637v-144.872c0-14.136 11.501-25.637 25.638-25.637h93.01c14.137 0 25.638 11.501 25.638 25.637v144.872c0 14.136-11.501 25.637-25.638 25.637h-93.01c-14.137 0-25.638-11.501-25.638-25.637z"/><path d="m214.771 294.019h82.457c4.143 0 7.5-3.358 7.5-7.5s-3.357-7.5-7.5-7.5h-82.457c-4.143 0-7.5 3.358-7.5 7.5s3.358 7.5 7.5 7.5z"/><path d="m214.771 330.151h82.457c4.143 0 7.5-3.358 7.5-7.5s-3.357-7.5-7.5-7.5h-82.457c-4.143 0-7.5 3.358-7.5 7.5s3.358 7.5 7.5 7.5z"/><path d="m297.229 366.283c4.143 0 7.5-3.358 7.5-7.5s-3.357-7.5-7.5-7.5h-82.457c-4.143 0-7.5 3.358-7.5 7.5s3.357 7.5 7.5 7.5z"/></g></g></svg>