<?xml version="1.0" encoding="iso-8859-1"?>
<!-- Generator: Adobe Illustrator 19.0.0, SVG Export Plug-In . SVG Version: 6.00 Build 0)  -->
<svg xmlns="http://www.w3.org/2000/svg" xmlns:xlink="http://www.w3.org/1999/xlink" version="1.1" id="Capa_1" x="0px" y="0px" viewBox="0 0 512 512" style="enable-background:new 0 0 512 512;" xml:space="preserve" width="512" height="512">
<g>
	<path style="fill:#FFC85A;" d="M405.664,361.641H300.411c-4.322,0-7.672,3.803-7.104,8.088   c5.655,42.679,12.981,85.051,21.402,126.793c0.934,4.649,5.035,7.979,9.765,7.979h57.128c4.73,0,8.831-3.33,9.765-7.979   c8.421-41.743,15.747-84.114,21.402-126.793C413.336,365.444,409.986,361.641,405.664,361.641z"/>
	<path style="fill:#E08D3F;" d="M405.664,361.641h-26.667c4.322,0,7.672,3.803,7.104,8.087   c-5.655,42.679-12.981,85.051-21.402,126.793c-0.934,4.649-5.035,7.979-9.765,7.979h26.667c4.73,0,8.831-3.33,9.765-7.979   c8.421-41.742,15.747-84.114,21.402-126.793C413.336,365.444,409.986,361.641,405.664,361.641z"/>
	<path style="fill:#FFC85A;" d="M224.673,496.603c-0.954,4.608-5.035,7.897-9.745,7.897h-87.132c-4.71,0-8.791-3.289-9.745-7.897   c-24.281-116.839-23.013-238.502-8.258-358.089c0.442-3.586,3.5-6.276,7.113-6.276h108.912c3.613,0,6.67,2.691,7.113,6.276   C247.686,258.101,248.955,379.764,224.673,496.603z"/>
	<path style="fill:#E08D3F;" d="M232.931,138.514c-0.443-3.585-3.5-6.276-7.113-6.276h-26.417c3.613,0,6.67,2.691,7.113,6.276   c14.755,119.587,16.024,241.25-8.258,358.089c-0.954,4.608-5.035,7.897-9.745,7.897h26.417c4.71,0,8.791-3.289,9.745-7.897   C248.955,379.763,247.686,258.101,232.931,138.514z"/>
	<path style="fill:#606572;" d="M353.038,150.035L353.038,150.035c9.75,0,17.653,7.904,17.653,17.653v193.952h-35.307V167.689   C335.384,157.939,343.288,150.035,353.038,150.035z"/>
	<path style="fill:#FEE9A1;" d="M141.304,92.139h60.117c3.162,0,5.725,2.563,5.725,5.725v34.373h-71.568V97.864   C135.579,94.702,138.142,92.139,141.304,92.139z"/>
	<path style="fill:#FDCA67;" d="M201.421,92.139h-24c3.162,0,5.725,2.563,5.725,5.725v34.373h24V97.865   C207.146,94.702,204.583,92.139,201.421,92.139z"/>
	<path style="fill:#606572;" d="M102.977,206.22h136.771c-0.907-11.779-1.969-23.55-3.167-35.307H106.144   C104.946,182.67,103.884,194.441,102.977,206.22z"/>
	<path style="fill:#3B4254;" d="M236.581,170.913h-26.417c1.199,11.757,2.26,23.528,3.167,35.307h26.417   C238.962,196.01,237.763,182.501,236.581,170.913z"/>
	<g>
		<path d="M416.7,359.145c-2.786-3.18-6.809-5.004-11.035-5.004h-27.474V167.688c0-11.259-7.436-20.813-17.653-24.011V124.26h10.153    c4.143,0,7.5-3.358,7.5-7.5s-3.357-7.5-7.5-7.5h-10.153V95.752h17.582c4.143,0,7.5-3.358,7.5-7.5s-3.357-7.5-7.5-7.5h-17.582    V69.63h29.737c4.143,0,7.5-3.358,7.5-7.5s-3.357-7.5-7.5-7.5h-29.737V43.508h17.582c4.143,0,7.5-3.358,7.5-7.5s-3.357-7.5-7.5-7.5    h-17.582V15h6.83c4.143,0,7.5-3.358,7.5-7.5s-3.357-7.5-7.5-7.5h-28.66c-4.143,0-7.5,3.358-7.5,7.5s3.357,7.5,7.5,7.5h6.83v13.508    h-17.582c-4.143,0-7.5,3.358-7.5,7.5s3.357,7.5,7.5,7.5h17.582V54.63H315.8c-4.143,0-7.5,3.358-7.5,7.5s3.357,7.5,7.5,7.5h29.737    v11.123h-17.582c-4.143,0-7.5,3.358-7.5,7.5s3.357,7.5,7.5,7.5h17.582v13.508h-10.153c-4.143,0-7.5,3.358-7.5,7.5    s3.357,7.5,7.5,7.5h10.153v19.417c-10.218,3.198-17.653,12.752-17.653,24.011v94.904c0,4.142,3.357,7.5,7.5,7.5s7.5-3.358,7.5-7.5    v-94.904c0-5.599,4.555-10.153,10.153-10.153s10.153,4.555,10.153,10.153v186.452h-20.307v-61.548c0-4.142-3.357-7.5-7.5-7.5    s-7.5,3.358-7.5,7.5v61.548h-27.473c-4.226,0-8.248,1.824-11.034,5.003c-2.781,3.174-4.059,7.39-3.505,11.569    c5.402,40.776,12.431,82.414,21.483,127.285c1.63,8.113,8.829,14.002,17.118,14.002h57.128c8.288,0,15.486-5.888,17.116-13.996    c9.055-44.883,16.082-86.521,21.484-127.29C420.757,366.536,419.48,362.319,416.7,359.145z M384.014,495.043    c-0.229,1.134-1.242,1.957-2.412,1.957h-57.128c-1.17,0-2.184-0.822-2.413-1.962c-8.957-44.397-15.915-85.586-21.267-125.897    h34.59h35.307h34.59C399.929,409.447,392.972,450.635,384.014,495.043z"/>
		<path d="M244.9,178.822c-0.24-2.497-0.488-5.001-0.743-7.51c-0.039-0.387-0.075-0.773-0.115-1.16    c-0.003-0.034-0.011-0.067-0.015-0.101c-1.095-10.712-2.304-21.521-3.653-32.456c-0.904-7.33-7.162-12.858-14.556-12.858h-11.172    V97.864c0-7.292-5.933-13.225-13.225-13.225h-60.117c-7.292,0-13.225,5.933-13.225,13.225v26.873h-11.172    c-7.394,0-13.651,5.528-14.556,12.858c-1.337,10.833-2.536,21.593-3.626,32.277c-0.013,0.094-0.032,0.185-0.042,0.28    c-1.247,12.23-2.41,25.44-3.184,35.492c-0.007,0.085-0.003,0.169-0.006,0.253c-1.112,14.463-1.991,28.718-2.613,42.684    c-0.184,4.138,3.021,7.642,7.159,7.826c4.129,0.162,7.642-3.021,7.826-7.159c0.519-11.652,1.228-23.517,2.093-35.529h122.845    c7.456,103.103,2.327,195.709-15.473,281.362c-0.23,1.111-1.24,1.918-2.4,1.918h-87.133c-1.161,0-2.17-0.807-2.401-1.923    c-13.813-66.464-20.035-139.146-18.495-216.023c0.083-4.142-3.207-7.566-7.348-7.649c-4.109-0.064-7.566,3.207-7.649,7.348    c-1.563,78.002,4.765,151.811,18.805,219.371c1.665,8.041,8.852,13.877,17.089,13.877h87.133c8.237,0,15.424-5.836,17.088-13.872    C251.971,402.113,256.252,297.63,245,179.881C244.966,179.527,244.934,179.176,244.9,178.822z M143.079,99.639h56.567v25.098    h-56.567V99.639z M220.384,178.413h9.407c0.664,6.826,1.277,13.616,1.833,20.307H111.118c0.465-5.608,0.814-9.856,1.829-20.307    h77.438c4.142,0,7.5-3.358,7.5-7.5s-3.358-7.5-7.5-7.5h-75.901c0.844-7.854,1.739-15.742,2.716-23.675h18.379h71.567h18.379    c0.98,7.954,1.887,15.842,2.731,23.675h-7.872c-4.142,0-7.5,3.358-7.5,7.5S216.242,178.413,220.384,178.413z"/>
	</g>
</g>















</svg>
