<?xml version="1.0" encoding="iso-8859-1"?>
<!-- Generator: Adobe Illustrator 19.0.0, SVG Export Plug-In . SVG Version: 6.00 Build 0)  -->
<svg xmlns="http://www.w3.org/2000/svg" xmlns:xlink="http://www.w3.org/1999/xlink" version="1.1" id="Capa_1" x="0px" y="0px" viewBox="0 0 512 512" style="enable-background:new 0 0 512 512;" xml:space="preserve" width="512" height="512">
<g>
	<path style="fill:#FFC85A;" d="M407.891,367.017H301.073c-4.386,0-7.786,3.86-7.21,8.208c5.739,43.314,13.174,86.315,21.72,128.678   c0.948,4.718,5.109,8.097,9.91,8.097h57.977c4.8,0,8.962-3.379,9.91-8.097c8.546-42.363,15.981-85.364,21.72-128.678   C415.676,370.877,412.276,367.017,407.891,367.017z"/>
	<path style="fill:#E08D3F;" d="M407.89,367.017h-27.063c4.386,0,7.786,3.86,7.21,8.208c-5.739,43.314-13.174,86.315-21.72,128.678   c-0.948,4.718-5.109,8.097-9.91,8.097h27.063c4.8,0,8.962-3.379,9.91-8.097c8.546-42.363,15.981-85.364,21.72-128.678   C415.676,370.877,412.277,367.017,407.89,367.017z"/>
	<path style="fill:#FFC85A;" d="M224.209,503.985c-0.968,4.677-5.109,8.015-9.89,8.015h-88.428c-4.78,0-8.921-3.338-9.89-8.015   c-24.642-118.576-23.355-242.047-8.38-363.412c0.449-3.639,3.552-6.37,7.218-6.37h110.531c3.666,0,6.769,2.731,7.218,6.37   C247.564,261.938,248.852,385.409,224.209,503.985z"/>
	<path style="fill:#E08D3F;" d="M232.59,140.573c-0.449-3.639-3.552-6.37-7.219-6.37h-26.809c3.667,0,6.77,2.731,7.219,6.37   c14.975,121.365,16.262,244.836-8.38,363.412c-0.968,4.677-5.109,8.015-9.889,8.015h26.809c4.78,0,8.921-3.338,9.889-8.015   C248.852,385.409,247.564,261.938,232.59,140.573z"/>
	<path style="fill:#606572;" d="M354.482,152.266L354.482,152.266c9.895,0,17.916,8.021,17.916,17.916v196.835h-35.832V170.182   C336.566,160.287,344.587,152.266,354.482,152.266z"/>
	<path style="fill:#606572;" d="M354.482,166.877c-4.204,0-7.611-3.408-7.611-7.611V7.611c0-4.204,3.407-7.611,7.611-7.611   s7.612,3.408,7.612,7.611v151.654C362.093,163.469,358.686,166.877,354.482,166.877z"/>
	<g>
		<path style="fill:#202D4C;" d="M392.273,70.665h-75.582c-4.204,0-7.612-3.408-7.612-7.611s3.407-7.611,7.612-7.611h75.582    c4.204,0,7.611,3.408,7.611,7.611S396.477,70.665,392.273,70.665z"/>
		<path style="fill:#202D4C;" d="M379.937,44.155h-50.91c-4.204,0-7.612-3.408-7.612-7.611s3.407-7.611,7.612-7.611h50.91    c4.204,0,7.611,3.408,7.611,7.611S384.141,44.155,379.937,44.155z"/>
		<path style="fill:#202D4C;" d="M369.025,15.223h-29.086c-4.204,0-7.612-3.408-7.612-7.611S335.734,0,339.939,0h29.086    c4.204,0,7.611,3.408,7.611,7.611S373.229,15.223,369.025,15.223z"/>
		<path style="fill:#202D4C;" d="M379.937,97.176h-50.91c-4.204,0-7.612-3.408-7.612-7.611s3.407-7.611,7.612-7.611h50.91    c4.204,0,7.611,3.408,7.611,7.611S384.141,97.176,379.937,97.176z"/>
		<path style="fill:#202D4C;" d="M372.397,126.108h-35.832c-4.204,0-7.612-3.408-7.612-7.611s3.407-7.611,7.612-7.611h35.832    c4.204,0,7.611,3.408,7.611,7.611S376.602,126.108,372.397,126.108z"/>
	</g>
	<path style="fill:#FEE9A1;" d="M139.601,93.509h61.011c3.209,0,5.811,2.601,5.811,5.811v34.884H133.79V99.319   C133.79,96.11,136.392,93.509,139.601,93.509z"/>
	<path style="fill:#FDCA67;" d="M200.611,93.509h-24.357c3.209,0,5.811,2.601,5.811,5.81v34.884h24.357V99.319   C206.422,96.11,203.82,93.509,200.611,93.509z"/>
	<path style="fill:#606572;" d="M100.704,209.285h138.805c-0.92-11.954-1.998-23.9-3.215-35.832H103.918   C102.702,185.386,101.624,197.331,100.704,209.285z"/>
	<path style="fill:#3B4254;" d="M239.324,206.987c-0.207-2.639-0.421-5.277-0.643-7.915c-0.127-1.502-0.259-3.004-0.391-4.507   c-0.162-1.857-0.328-3.714-0.498-5.57c-0.158-1.732-0.318-3.465-0.483-5.196c-0.15-1.576-0.305-3.151-0.459-4.726   c-0.184-1.874-0.365-3.747-0.556-5.62h-26.809c1.217,11.932,2.294,23.878,3.215,35.832h26.809   C239.449,208.519,239.384,207.753,239.324,206.987z"/>
</g>















</svg>
