<svg id="Capa_1" enable-background="new 0 0 512 512" height="512" viewBox="0 0 512 512" width="512" xmlns="http://www.w3.org/2000/svg"><g><path d="m44.922 477.942c0 18.811 15.247 34.058 34.048 34.058h198.619c18.801 0 34.048-15.247 34.048-34.058v-180.756l-36.032-20.604h-209.538l-21.145 20.604z" fill="#f4fbff"/><path d="m275.604 276.583h-27.083l36.032 20.604v180.756c0 18.811-15.247 34.058-34.048 34.058h27.083c18.801 0 34.048-15.247 34.048-34.058v-180.757z" fill="#e4f6ff"/><path d="m103.727 119.115 22.466 20.604h95.091l31.546-20.604v-100.698c.001-10.171-8.245-18.417-18.417-18.417h-112.269c-10.172 0-18.417 8.246-18.417 18.417z" fill="#f4fbff"/><path d="m234.413 0h-22.402c10.172 0 18.417 8.246 18.417 18.417v121.302l22.402-20.604v-100.698c.001-10.171-8.245-18.417-18.417-18.417z" fill="#e4f6ff"/><path d="m311.636 215.256v81.93h-266.714v-81.93c0-7.871 2.421-15.566 6.933-22.015l51.87-74.122h149.108l51.869 74.122c4.513 6.449 6.934 14.144 6.934 22.015z" fill="#90d8f9"/><path d="m304.702 193.241-51.869-74.122h-27.083l51.869 74.122c4.512 6.449 6.933 14.144 6.933 22.015v81.93h27.083v-81.93c.001-7.871-2.42-15.566-6.933-22.015z" fill="#75cef9"/><path d="m248.663 389.958h-140.768c-2.302 0-4.168-1.866-4.168-4.168v-28.006c0-2.302 1.866-4.168 4.168-4.168h140.768c2.302 0 4.168 1.866 4.168 4.168v28.006c0 2.302-1.866 4.168-4.168 4.168z" fill="#524798"/><path d="m248.663 353.617h-22.402c2.302 0 4.168 1.866 4.168 4.168v28.006c0 2.302-1.866 4.168-4.168 4.168h22.402c2.302 0 4.168-1.866 4.168-4.168v-28.006c0-2.302-1.866-4.168-4.168-4.168z" fill="#453d81"/><g><path d="m200.681 439.207h-44.804c-4.268 0-7.726-3.459-7.726-7.726s3.459-7.726 7.726-7.726h44.804c4.268 0 7.726 3.459 7.726 7.726s-3.459 7.726-7.726 7.726z" fill="#453d81"/></g><g><path d="m221.284 470.428h-86.011c-4.268 0-7.726-3.459-7.726-7.726 0-4.268 3.459-7.726 7.726-7.726h86.011c4.268 0 7.726 3.459 7.726 7.726.001 4.267-3.458 7.726-7.726 7.726z" fill="#453d81"/></g><g><path d="m186.149 93.697h-15.739c-4.268 0-7.726-3.459-7.726-7.726 0-4.268 3.459-7.726 7.726-7.726h15.739c4.268 0 7.726 3.459 7.726 7.726s-3.459 7.726-7.726 7.726z" fill="#524798"/></g><g><path d="m178.279 235.138v-16.039c0-19.908 16.139-36.047 36.047-36.047h13.904c1.179 0 2.135.956 2.135 2.135v13.904c0 19.908-16.139 36.047-36.047 36.047z" fill="#ffbee4"/><path d="m178.279 235.138h-16.039c-19.908 0-36.047-16.139-36.047-36.047v-13.904c0-1.179.956-2.135 2.135-2.135h13.904c19.908 0 36.047 16.139 36.047 36.047z" fill="#ffbee4"/><path d="m175.21 242.371-8.273-8.273c-14.077-14.077-14.077-36.9 0-50.977l9.832-9.832c.834-.834 2.185-.834 3.019 0l9.832 9.832c14.077 14.077 14.077 36.9 0 50.977l-8.273 8.273c-1.694 1.695-4.442 1.695-6.137 0z" fill="#eaaadd"/><path d="m189.62 183.121-9.832-9.832c-.834-.834-2.185-.834-3.019 0l-6.22 6.22 3.611 3.611c14.077 14.077 14.077 36.9 0 50.977l-3.611 3.611 4.661 4.661c1.695 1.695 4.442 1.695 6.137 0l8.273-8.273c14.077-14.075 14.077-36.898 0-50.975z" fill="#e490d0"/></g><circle cx="381.425" cy="426.346" fill="#f4fbff" r="85.654"/><path d="m381.425 340.693c-3.851 0-7.635.279-11.351.772 41.936 5.556 74.302 41.428 74.302 84.882s-32.367 79.326-74.302 84.882c3.716.492 7.5.772 11.351.772 47.305 0 85.654-38.348 85.654-85.654-.001-47.306-38.349-85.654-85.654-85.654z" fill="#e4f6ff"/><g><g><g><path d="m342.46 436.425c-4.268 0-7.726-3.459-7.726-7.726v-4.591c0-4.268 3.459-7.726 7.726-7.726s7.726 3.459 7.726 7.726v4.591c.001 4.267-3.458 7.726-7.726 7.726z" fill="#e4f6ff"/></g><g><path d="m381.424 436.425c-4.268 0-7.726-3.459-7.726-7.726v-4.591c0-4.268 3.459-7.726 7.726-7.726s7.726 3.459 7.726 7.726v4.591c.001 4.267-3.458 7.726-7.726 7.726z" fill="#e4f6ff"/></g><g><path d="m420.388 436.425c-4.268 0-7.726-3.459-7.726-7.726v-4.591c0-4.268 3.459-7.726 7.726-7.726s7.726 3.459 7.726 7.726v4.591c0 4.267-3.458 7.726-7.726 7.726z" fill="#e4f6ff"/></g></g><g><g><path d="m361.942 401.427c-4.268 0-7.726-3.459-7.726-7.726v-4.591c0-4.268 3.459-7.726 7.726-7.726 4.268 0 7.726 3.459 7.726 7.726v4.591c.001 4.267-3.458 7.726-7.726 7.726z" fill="#e4f6ff"/></g><g><path d="m400.906 401.427c-4.268 0-7.726-3.459-7.726-7.726v-4.591c0-4.268 3.459-7.726 7.726-7.726s7.726 3.459 7.726 7.726v4.591c0 4.267-3.458 7.726-7.726 7.726z" fill="#e4f6ff"/></g></g><g><g><path d="m361.942 471.309c-4.268 0-7.726-3.459-7.726-7.726v-4.59c0-4.268 3.459-7.726 7.726-7.726 4.268 0 7.726 3.459 7.726 7.726v4.59c.001 4.267-3.458 7.726-7.726 7.726z" fill="#e4f6ff"/></g><g><path d="m400.906 471.309c-4.268 0-7.726-3.459-7.726-7.726v-4.59c0-4.268 3.459-7.726 7.726-7.726s7.726 3.459 7.726 7.726v4.59c0 4.267-3.458 7.726-7.726 7.726z" fill="#e4f6ff"/></g></g></g></g></svg>