<?xml version="1.0" encoding="iso-8859-1"?>
<!-- Generator: Adobe Illustrator 19.0.0, SVG Export Plug-In . SVG Version: 6.00 Build 0)  -->
<svg xmlns="http://www.w3.org/2000/svg" xmlns:xlink="http://www.w3.org/1999/xlink" version="1.1" id="Capa_1" x="0px" y="0px" viewBox="0 0 511.979 511.979" style="enable-background:new 0 0 511.979 511.979;" xml:space="preserve" width="512" height="512">
<g>
	<g>
		<path style="fill:#F9C295;" d="M115.023,504.479h281.933l-2.378-37.72c-1.767-27.993-21.482-51.603-48.716-58.33l-40.97-10.124    c-2.027-0.498-3.443-2.31-3.443-4.394V302.21h-91.385v91.815c0,2.084-1.427,3.895-3.443,4.394l-40.506,10.011    c-27.234,6.726-46.949,30.337-48.716,58.33L115.023,504.479z"/>
		<path style="fill:#E8A26A;" d="M394.578,466.759c-1.767-27.993-21.482-51.603-48.716-58.33l-40.97-10.124    c-2.027-0.499-3.443-2.31-3.443-4.394V302.21h-27.384v91.702c0,2.084,1.416,3.896,3.443,4.394l40.97,10.124    c27.234,6.727,46.949,30.337,48.716,58.33l2.378,37.72h27.384L394.578,466.759z"/>
		<path style="fill:#E8A26A;" d="M210.065,378.301c15.649,8.057,31.873,12.188,45.924,12.188c13.912,0,29.955-4.046,45.46-11.945    V302.21h-91.385V378.301z"/>
		<path style="fill:#F9C295;" d="M255.99,95.481L255.99,95.481c53.325,0,98.847,38.698,107.248,91.358    c3.382,21.199,5.098,57.819,3.727,72.015c-6.709,69.433-68.686,106.801-110.975,106.801s-104.266-37.368-110.975-106.801    c-1.372-14.196,0.345-50.817,3.727-72.015C157.143,134.18,202.664,95.481,255.99,95.481z"/>
		<path style="fill:#E8A26A;" d="M363.237,186.839c-8.401-52.659-53.923-91.357-107.248-91.357h0c-2.311,0-4.602,0.099-6.882,0.242    c44.461,3.166,81.589,40.739,88.691,91.115c2.989,21.199,4.505,57.819,3.293,72.016c-5.614,65.752-55.025,102.742-91.985,106.479    c2.341,0.209,4.641,0.321,6.882,0.321c42.288,0,104.266-37.368,110.975-106.8C368.336,244.658,366.619,208.037,363.237,186.839z"/>
		<path style="fill:#D8E6F0;" d="M299.002,60.698c0,0,80.348-4.979,81.049,90.646c25.991,15.006,13.641,64.526,4.781,83.908    c-0.986,2.158-2.938,3.71-5.261,4.196l-12.157,2.542c-9.403-36.967-29.31-95.895-111.425-112.643    C283.293,67.777,299.002,60.698,299.002,60.698z"/>
		<path style="fill:#AAC0D1;" d="M345.88,74.145c-22.142-14.971-46.877-13.447-46.877-13.447s-15.71,7.079-43.013,68.648    c17.261,3.521,31.764,8.91,44.008,15.563c24.414-17.888,44.826-39.5,46.174-62.537C346.329,79.677,346.222,76.923,345.88,74.145z"/>
		<path style="fill:#D8E6F0;" d="M145.015,258.854c0-31.686,28.859-68.051,63.696-84.403S322.15,117.802,324.838,71.832    S255.903-37.122,166.091,54.015c-70.029,71.062-49.647,171.341-43.695,195.873C124.102,256.919,145.015,269.827,145.015,258.854z"/>
	</g>
	<g>
		<path style="fill:#F9C295;" d="M419.176,129.244v92.2c0,0-11.145,0-24.56,0c-9.026,0-32.559,17.576-46.992,29.076    c-6.545,5.216-7.394,14.842-1.859,21.121l0,0c4.257,4.829,11.169,6.309,17.03,3.646l40.047-18.198    c3.234-1.469,6.969,0.604,7.417,4.128c0.84,6.61,1.896,17.088,1.896,27.967c0,18.055-41.901,53.589-61.007,66.152    c-14.937,9.822-6.638,34.054,31.665,21.092c38.303-12.961,93.932-42.045,93.932-97.627s0-153.82,0-153.82"/>
		<path style="fill:#E8A26A;" d="M454.204,126.649c0,13.127,0,100.823,0,152.15c0,55.582-55.63,84.666-93.932,97.628    c-2.501,0.846-4.867,1.526-7.114,2.07c6.34,2.435,16.114,2.513,29.655-2.07c38.303-12.962,93.932-42.045,93.932-97.628    c0-55.582,0-153.82,0-153.82L454.204,126.649z"/>
		<path style="fill:#F9C295;" d="M92.803,129.244v92.2c0,0,11.145,0,24.56,0c9.026,0,32.559,17.576,46.992,29.076    c6.545,5.216,7.394,14.842,1.859,21.121l0,0c-4.257,4.829-11.169,6.309-17.03,3.646l-40.047-18.198    c-3.234-1.469-6.969,0.604-7.417,4.128c-0.84,6.61-1.896,17.088-1.896,27.967c0,18.055,41.901,53.589,61.007,66.152    c14.937,9.822,6.638,34.054-31.665,21.092c-38.303-12.961-93.932-42.045-93.932-97.627s0-153.82,0-153.82"/>
		<g>
			<path style="fill:#E8A26A;" d="M147.951,271.641c-0.686,0.778-1.447,1.459-2.255,2.06l3.489,1.585     c5.861,2.664,12.773,1.184,17.03-3.645c5.534-6.278,4.686-15.905-1.859-21.121c-14.433-11.5-37.966-29.076-46.992-29.076     c-7.2,0-13.744,0-18.264,0c9.026,0,32.56,17.576,46.992,29.076C152.637,255.735,153.485,265.362,147.951,271.641z"/>
			<path style="fill:#E8A26A;" d="M160.832,355.335c-19.106-12.563-61.007-48.098-61.007-66.152c0-10.477,0.979-20.572,1.802-27.208     l-10.753-4.886c-3.234-1.47-6.969,0.604-7.417,4.128c-0.84,6.61-1.896,17.088-1.896,27.967c0,18.054,41.901,53.589,61.007,66.152     c10.109,6.647,9.557,19.88-3.717,23.732C168.777,385.1,174.414,364.265,160.832,355.335z"/>
			<path style="fill:#E8A26A;" d="M74.54,127.891v1.353v92.2c0,0,7.831,0,18.264,0v-92.2L74.54,127.891z"/>
		</g>
	</g>
	<g>
		<path d="M402.064,466.286c-0.918-14.496-6.124-28.201-15.054-39.634c-2.551-3.265-7.263-3.846-10.528-1.293    c-3.264,2.55-3.843,7.263-1.293,10.527c7.063,9.041,11.179,19.881,11.906,31.346l1.877,29.747H123.008l1.877-29.745    c0.964-15.202,7.803-29.1,19.255-39.132c6.791-5.946,15.012-10.23,23.779-12.392l40.503-10.011    c5.386-1.333,9.148-6.133,9.148-11.671v-28.901c12.99,5.212,26.305,8.031,38.42,8.031c11.953,0,25.107-2.754,37.96-7.848v28.598    c0,5.546,3.758,10.349,9.142,11.682l40.979,10.122c3.479,0.855,6.909,2.058,10.195,3.575c1.018,0.471,2.087,0.693,3.14,0.693    c2.834,0,5.547-1.615,6.814-4.357c1.736-3.761,0.096-8.217-3.665-9.953c-4.154-1.919-8.496-3.441-12.896-4.522l-38.708-9.562    v-33.382c22.2-12.321,40.544-30.885,51.956-52.699c1.92-3.67,0.501-8.202-3.169-10.122c-3.672-1.923-8.202-0.502-10.122,3.169    c-10.676,20.408-28.281,37.624-49.572,48.476c-14.075,7.178-29.01,11.131-42.053,11.131c-13.203,0-28.289-4.032-42.489-11.358    c-20.613-10.604-37.82-27.283-48.452-46.966c-1.968-3.645-6.517-5.003-10.163-3.034c-3.645,1.969-5.003,6.519-3.034,10.163    c11.346,21.005,29.253,38.965,50.719,50.984v33.747l-38.246,9.452c-11.081,2.732-21.478,8.15-30.066,15.671    c-14.479,12.683-23.124,30.251-24.343,49.469l-2.38,37.72c-0.131,2.067,0.6,4.097,2.017,5.606s3.396,2.366,5.468,2.366h281.94    c2.071,0,4.05-0.856,5.468-2.366s2.148-3.539,2.017-5.606L402.064,466.286z"/>
		<path d="M476.745,117.479c-4.142,0-7.5,3.357-7.5,7.5V278.8c0,52.607-55.659,79.296-88.837,90.522    c-17.639,5.971-26.647,2.801-28.397-0.788c-1.042-2.135,0.297-4.986,3.257-6.933c12.775-8.4,64.387-47.69,64.387-72.419    c0-11.17-1.064-21.888-1.957-28.912c-0.509-4.005-2.917-7.57-6.443-9.537c-3.531-1.972-7.835-2.146-11.516-0.474l-40.046,18.198    c-2.875,1.307-6.213,0.593-8.301-1.776c-1.305-1.48-1.928-3.378-1.755-5.342c0.173-1.965,1.118-3.724,2.662-4.954    c7.144-5.692,13.132-10.193,18.156-13.769c0.058-0.043,0.12-0.082,0.176-0.126c11.899-8.456,18.29-11.637,21.412-12.829    c0.148-0.051,0.295-0.102,0.439-0.162c1.436-0.514,2.051-0.553,2.135-0.556h24.559c4.142,0,7.5-3.357,7.5-7.5v-92.2    c0-4.143-3.358-7.5-7.5-7.5s-7.5,3.357-7.5,7.5v84.7h-11.952c2.057-8.797,3.863-20.075,3.344-31.339    c-0.734-15.946-6.102-28.049-15.593-35.311c-0.809-26.492-7.739-47.997-20.625-63.969c-9.187-11.387-21.124-19.705-35.514-24.795    c-4.654-24.049-23.763-45.44-48.923-54.178C260.734-3.176,216.101-7.42,160.747,48.756c-2.907,2.95-2.872,7.698,0.078,10.605    c2.95,2.908,7.699,2.873,10.606-0.078c49.565-50.3,87.725-47.127,106.06-40.761c5.227,1.815,9.933,4.218,14.13,7.025    c-4.808-0.153-9.693,0.26-14.493,1.268c-15.372,3.234-30.234,11.771-45.436,26.1c-3.014,2.841-3.155,7.588-0.314,10.603    c1.476,1.565,3.465,2.355,5.459,2.355c1.845,0,3.694-0.677,5.143-2.042c13.136-12.381,25.644-19.688,38.234-22.337    c10.821-2.272,22.054-0.591,30.446,4.477c3.678,6.461,5.849,13.115,6.506,19.089c0.245,2.17,0.308,4.297,0.186,6.33    c-0.163,2.781-0.663,5.602-1.499,8.459c-2.63,8.988-8.589,18.344-17.814,28.005c-1.159,1.214-2.37,2.432-3.632,3.655    c-0.191,0.185-0.375,0.37-0.568,0.555c-5.82,5.578-12.71,11.252-20.66,17.011c-0.002,0.002-0.004,0.004-0.007,0.006    c-17.748,12.869-40.508,25.849-67.65,38.579c-26.158,12.281-48.911,34.886-60.284,59.265c-10.468-7.1-17.014-10.314-21.242-11.771    c-3.997-37.081-1.666-88.583,28.828-133.278c2.334-3.421,1.453-8.087-1.968-10.422c-3.422-2.335-8.088-1.453-10.422,1.969    c-32.269,47.294-35.489,101.091-31.643,140.521h-8.488v-84.7c0-4.143-3.358-7.5-7.5-7.5s-7.5,3.357-7.5,7.5v92.2    c0,4.143,3.358,7.5,7.5,7.5h24.552c0.274,0.007,5.904,0.371,26.736,15.521c0.079,0.06,0.159,0.118,0.24,0.175    c4.414,3.216,9.49,7.076,15.351,11.747c1.543,1.229,2.489,2.988,2.662,4.953c0.173,1.964-0.45,3.861-1.755,5.342    c-2.088,2.369-5.426,3.083-8.301,1.776l-40.046-18.198c-3.682-1.672-7.986-1.496-11.517,0.474    c-3.526,1.967-5.935,5.532-6.443,9.537c-0.893,7.024-1.957,17.742-1.957,28.912c0,24.729,51.611,64.019,64.387,72.419    c2.96,1.946,4.299,4.798,3.257,6.933c-1.751,3.587-10.759,6.757-28.398,0.788c-33.178-11.227-88.836-37.915-88.836-90.522v-153.82    c0-4.143-3.358-7.5-7.5-7.5s-7.5,3.357-7.5,7.5V278.8c0,26.974,11.861,50.7,35.255,70.519    c20.519,17.385,46.006,28.2,63.773,34.213c8.543,2.891,15.868,4.112,22.046,4.112c13.307-0.001,21.292-5.669,24.64-12.53    c4.379-8.975,0.807-19.928-8.496-26.045c-9.033-5.939-23.827-17.546-36.518-30.085c-15.564-15.38-21.11-25.479-21.11-29.801    c0-8.91,0.735-17.566,1.473-24.011l37.284,16.942c8.923,4.053,19.276,1.84,25.759-5.515c4.048-4.592,5.981-10.479,5.445-16.575    c-0.537-6.097-3.469-11.555-8.257-15.369c-4.111-3.276-7.872-6.182-11.351-8.796c9.373-22.012,30.526-43.498,54.216-54.62    c26.387-12.375,48.848-25.047,66.84-37.701c50.823,18.746,69.068,57.049,78.63,90.042c-4.293,3.161-9.065,6.813-14.414,11.075    c-4.788,3.815-7.721,9.273-8.257,15.37c-0.537,6.097,1.397,11.983,5.445,16.575c6.481,7.354,16.833,9.567,25.759,5.515    l37.283-16.942c0.738,6.444,1.473,15.102,1.473,24.011c0,4.322-5.546,14.421-21.11,29.801    c-12.69,12.539-27.485,24.146-36.518,30.085c-9.303,6.117-12.875,17.07-8.496,26.045c3.349,6.862,11.331,12.53,24.64,12.53    c6.178,0,13.505-1.222,22.046-4.112c17.768-6.013,43.255-16.828,63.774-34.213c23.394-19.818,35.255-43.545,35.255-70.519v-153.82    C484.245,120.837,480.887,117.479,476.745,117.479z M292.716,132.988c0.099-0.081,0.194-0.161,0.292-0.241    c0.322-0.263,0.638-0.527,0.956-0.79c0.501-0.415,0.999-0.83,1.491-1.245c0.327-0.276,0.651-0.552,0.974-0.828    c0.481-0.411,0.957-0.823,1.428-1.234c0.306-0.267,0.612-0.533,0.913-0.8c0.505-0.447,1.002-0.893,1.496-1.339    c0.252-0.228,0.509-0.456,0.758-0.684c0.731-0.668,1.452-1.337,2.158-2.005c0.056-0.053,0.11-0.106,0.166-0.16    c0.654-0.621,1.296-1.241,1.928-1.861c0.228-0.224,0.45-0.448,0.675-0.672c0.456-0.453,0.908-0.905,1.352-1.358    c0.248-0.252,0.492-0.505,0.736-0.757c0.417-0.432,0.829-0.863,1.235-1.294c0.238-0.252,0.475-0.505,0.709-0.757    c0.417-0.449,0.825-0.898,1.231-1.346c0.205-0.227,0.413-0.454,0.615-0.681c0.507-0.57,1.003-1.139,1.492-1.708    c0.087-0.102,0.178-0.204,0.265-0.305c0.575-0.674,1.135-1.348,1.683-2.021c0.147-0.181,0.289-0.362,0.434-0.543    c0.396-0.492,0.787-0.985,1.169-1.477c0.183-0.236,0.361-0.472,0.541-0.708c0.337-0.441,0.669-0.883,0.994-1.324    c0.182-0.247,0.362-0.494,0.541-0.74c0.321-0.444,0.636-0.889,0.946-1.333c0.161-0.231,0.325-0.463,0.483-0.694    c0.349-0.509,0.688-1.019,1.022-1.528c0.105-0.161,0.215-0.321,0.319-0.482c0.434-0.672,0.856-1.344,1.265-2.016    c0.078-0.129,0.151-0.257,0.229-0.386c0.324-0.539,0.641-1.077,0.947-1.616c0.129-0.227,0.253-0.453,0.379-0.68    c0.247-0.444,0.49-0.888,0.726-1.332c0.131-0.248,0.26-0.495,0.388-0.743c0.223-0.432,0.44-0.863,0.651-1.294    c0.119-0.243,0.239-0.486,0.355-0.729c0.221-0.463,0.433-0.927,0.641-1.39c0.092-0.204,0.187-0.408,0.276-0.612    c0.291-0.665,0.572-1.329,0.837-1.993c0.013-0.033,0.024-0.065,0.037-0.098c0.25-0.63,0.487-1.259,0.713-1.887    c0.077-0.215,0.148-0.429,0.223-0.644c0.156-0.449,0.309-0.899,0.453-1.348c0.079-0.248,0.155-0.495,0.231-0.743    c0.129-0.422,0.253-0.844,0.372-1.265c0.07-0.25,0.14-0.5,0.206-0.75c0.116-0.437,0.224-0.873,0.329-1.309    c0.054-0.226,0.112-0.453,0.163-0.679c0.124-0.546,0.237-1.092,0.342-1.638c0.022-0.112,0.048-0.225,0.069-0.337    c0.122-0.656,0.23-1.311,0.327-1.966c0.028-0.192,0.05-0.384,0.076-0.576c0.048-0.357,0.101-0.715,0.141-1.072    c26.931,12.21,36.772,37.495,39.543,61.271l-2.908-2.048c-3.387-2.385-8.066-1.573-10.451,1.813    c-2.385,3.387-1.574,8.065,1.812,10.451l15.641,11.019c0.085,0.06,0.177,0.1,0.263,0.156c0.103,0.066,0.197,0.142,0.304,0.203    c15.356,8.867,13.593,36.686,7.131,59.2c-3.335,1.57-7.614,3.95-13.118,7.523C360.451,193.018,341.078,154.243,292.716,132.988z"/>
	</g>
</g>















</svg>
