<?xml version="1.0" encoding="iso-8859-1"?>
<!-- Generator: Adobe Illustrator 19.0.0, SVG Export Plug-In . SVG Version: 6.00 Build 0)  -->
<svg xmlns="http://www.w3.org/2000/svg" xmlns:xlink="http://www.w3.org/1999/xlink" version="1.1" id="Capa_1" x="0px" y="0px" viewBox="0 0 512 512" style="enable-background:new 0 0 512 512;" xml:space="preserve" width="512" height="512">
<g>
	<g>
		<path style="fill:#F9C295;" d="M110.779,512h290.442l-2.45-38.859c-1.82-28.837-22.13-53.161-50.186-60.09l-42.207-10.429    c-2.088-0.513-3.546-2.38-3.546-4.527v-94.469H208.69v94.586c0,2.147-1.47,4.013-3.546,4.526l-41.728,10.313    c-28.056,6.929-48.366,31.253-50.186,60.09L110.779,512z"/>
		<path style="fill:#E8A26A;" d="M398.771,473.141c-1.82-28.838-22.13-53.16-50.186-60.09l-42.207-10.429    c-2.088-0.514-3.546-2.38-3.546-4.527v-94.469h-28.211v94.469c0,2.147,1.458,4.013,3.546,4.527l42.207,10.429    c28.056,6.93,48.366,31.253,50.186,60.09l2.45,38.859h28.21L398.771,473.141z"/>
		<path style="fill:#E8A26A;" d="M208.69,382.013c16.121,8.3,32.835,12.555,47.31,12.555c14.332,0,30.859-4.168,46.832-12.306    v-78.636H208.69V382.013z"/>
		<path style="fill:#F9C295;" d="M256,90.658L256,90.658c54.935,0,101.83,39.866,110.485,94.115    c3.484,21.838,5.252,59.564,3.839,74.189C363.413,330.49,299.565,368.985,256,368.985S148.587,330.49,141.676,258.962    c-1.413-14.625,0.355-52.35,3.839-74.189C154.17,130.524,201.065,90.658,256,90.658z"/>
		<path style="fill:#E8A26A;" d="M366.485,184.773C357.83,130.524,310.935,90.658,256,90.658h0c-2.381,0-4.741,0.102-7.089,0.249    c45.803,3.261,84.051,41.968,91.368,93.865c3.079,21.839,4.641,59.564,3.393,74.189c-5.783,67.736-56.686,105.843-94.761,109.693    c2.412,0.216,4.781,0.33,7.09,0.33c43.565,0,107.413-38.495,114.324-110.024C371.737,244.337,369.969,206.611,366.485,184.773z"/>
		<path style="fill:#D8E6F0;" d="M300.311,54.825c0,0,82.773-5.129,83.495,93.382c26.775,15.458,14.053,66.473,4.925,86.44    c-1.016,2.223-3.027,3.822-5.419,4.322l-12.524,2.619c-9.687-38.083-30.194-98.789-114.788-116.043    C284.127,62.117,300.311,54.825,300.311,54.825z"/>
		<path style="fill:#AAC0D1;" d="M348.603,68.678c-22.811-15.423-48.292-13.853-48.292-13.853s-16.184,7.292-44.311,70.72    c17.782,3.627,32.723,9.179,45.336,16.032c25.151-18.428,46.179-40.692,47.567-64.424    C349.066,74.377,348.955,71.539,348.603,68.678z"/>
		<path style="fill:#D8E6F0;" d="M141.676,258.962c0-32.643,29.73-70.105,65.618-86.951s116.862-58.358,119.632-105.716    S255.91-45.948,163.388,47.94c-72.142,73.207-51.146,176.512-45.014,201.784C120.132,256.969,141.676,270.266,141.676,258.962z"/>
		<path style="fill:#AAC0D1;" d="M382.375,128.159l-4.722-3.327c-3.386-2.388-8.065-1.575-10.451,1.812    c-2.385,3.386-1.574,8.065,1.812,10.45l14.778,10.411C383.712,140.546,383.218,134.114,382.375,128.159z"/>
		<path style="fill:#AAC0D1;" d="M321.579,40.605c-3.523-7.559-8.687-14.781-15.268-20.985c-7.954-1.199-16.337-1.077-24.501,0.497    c-17.02,3.286-33.521,12.001-50.447,26.642c-3.133,2.709-3.476,7.445-0.766,10.578c1.483,1.715,3.573,2.594,5.676,2.594    c1.738,0,3.485-0.601,4.903-1.828c14.885-12.875,29.106-20.482,43.475-23.257c13.241-2.553,27.029-0.408,36.882,5.734    C321.547,40.589,321.563,40.595,321.579,40.605z"/>
	</g>
	<g>
		<path style="fill:#F9C295;" d="M424.111,125.44v94.982c0,0-11.481,0-25.301,0c-9.298,0-33.542,18.106-48.411,29.954    c-6.743,5.373-7.617,15.29-1.916,21.758v0c4.385,4.975,11.507,6.499,17.544,3.756l41.255-18.748    c3.331-1.514,7.179,0.622,7.64,4.252c0.865,6.81,1.954,17.604,1.954,28.811c0,18.599-43.166,55.207-62.848,68.149    c-15.388,10.118-6.838,35.081,32.621,21.729s96.767-43.314,96.767-100.574s0-158.463,0-158.463"/>
		<path style="fill:#E8A26A;" d="M460.197,122.767c0,13.524,0,103.866,0,156.742c0,57.26-57.309,87.221-96.767,100.574    c-2.577,0.872-5.014,1.572-7.329,2.132c6.532,2.508,16.6,2.588,30.55-2.132c39.459-13.353,96.767-43.314,96.767-100.574    c0-57.259,0-158.463,0-158.463L460.197,122.767z"/>
		<path style="fill:#F9C295;" d="M87.889,125.44v94.982c0,0,11.481,0,25.301,0c9.298,0,33.542,18.106,48.411,29.954    c6.743,5.373,7.617,15.29,1.916,21.758l0,0c-4.385,4.975-11.507,6.499-17.544,3.756l-41.255-18.748    c-3.331-1.514-7.179,0.622-7.64,4.252c-0.865,6.81-1.954,17.604-1.954,28.811c0,18.599,43.166,55.207,62.848,68.149    c15.388,10.118,6.838,35.081-32.621,21.729s-96.767-43.314-96.767-100.574s0-158.463,0-158.463"/>
		<g>
			<path style="fill:#E8A26A;" d="M144.701,272.134c-0.707,0.802-1.49,1.503-2.323,2.122l3.594,1.633     c6.037,2.744,13.159,1.219,17.544-3.755c5.701-6.468,4.827-16.385-1.916-21.758c-14.868-11.847-39.112-29.953-48.411-29.953     c-7.418,0-14.159,0-18.815,0c9.298,0,33.542,18.106,48.411,29.953C149.528,255.749,150.402,265.666,144.701,272.134z"/>
			<path style="fill:#E8A26A;" d="M157.971,358.354c-19.683-12.942-62.848-49.55-62.848-68.149c0-10.793,1.009-21.193,1.856-28.029     l-11.077-5.034c-3.331-1.514-7.179,0.622-7.64,4.252c-0.865,6.81-1.954,17.604-1.954,28.811     c0,18.599,43.166,55.207,62.848,68.149c10.414,6.848,9.845,20.48-3.829,24.448C166.156,389.018,171.962,367.554,157.971,358.354z     "/>
			<path style="fill:#E8A26A;" d="M69.074,124.046v1.394v94.982c0,0,8.067,0,18.815,0V125.44L69.074,124.046z"/>
		</g>
	</g>
</g>















</svg>
