<?xml version="1.0" encoding="iso-8859-1"?>
<!-- Generator: Adobe Illustrator 19.0.0, SVG Export Plug-In . SVG Version: 6.00 Build 0)  -->
<svg xmlns="http://www.w3.org/2000/svg" xmlns:xlink="http://www.w3.org/1999/xlink" version="1.1" id="Capa_1" x="0px" y="0px" viewBox="0 0 512.013 512.013" style="enable-background:new 0 0 512.013 512.013;" xml:space="preserve" width="512" height="512">
<g>
	<path style="fill:#D8E6F0;" d="M210.36,180.998c-66.028,0-123.464,36.776-152.948,90.962   c29.484,54.185,86.921,90.962,152.948,90.962s123.464-36.777,152.948-90.962C333.824,217.774,276.388,180.998,210.36,180.998z"/>
	<circle style="fill:#78BAF6;" cx="210.36" cy="271.959" r="67.784"/>
	<circle style="fill:#606572;" cx="210.36" cy="271.959" r="23.464"/>
	<path style="fill:#606572;" d="M12.928,110.506C80.523,7.977,292.98-38.785,431.485,104.045c5.813,5.995,5.666,15.568-0.329,21.381   c-5.674,5.502-14.554,5.665-20.417,0.583c-12.981-11.252-25.925-21.04-40.954-30.1c-1.093-0.277-95.457-63.777-223.12-0.774   c-36.795,21.057-48.212,35.287-68.819,51.902c-20.861,16.82-39.578,18.917-54.931,9.314c-15.352-9.602-20.014-29.832-10.411-45.184   C12.615,110.989,12.815,110.681,12.928,110.506z"/>
	<path style="fill:#D8E6F0;" d="M337.462,482.756l41.197,14.995c0.511,0.186,1.08-0.04,1.324-0.525l115.69-229.684   c5.307-10.536,0.228-23.342-10.858-27.377l-63.101-22.967c-11.085-4.035-23.208,2.511-25.915,13.993l-59.014,250.312   C336.66,482.031,336.951,482.57,337.462,482.756z"/>
	<path style="fill:#AAC0D1;" d="M484.815,240.165l-22.62-8.233c8.013,2.917,10.708,14.855,5.762,25.522L360.121,489.996   c-0.228,0.492-0.678,0.761-1.047,0.626l-12.28-4.47l31.865,11.598c0.511,0.186,1.08-0.04,1.324-0.525l115.69-229.684   C500.98,257.006,495.901,244.199,484.815,240.165z"/>
	<path style="fill:#FEE9A1;" d="M395.8,231.19l-27.074,114.834l73.873,26.888l53.074-105.37   c5.307-10.536,0.227-23.341-10.858-27.376l-63.101-22.967C410.629,213.163,398.507,219.708,395.8,231.19z"/>
	<path style="fill:#FDCA67;" d="M418.486,364.135l24.113,8.776l53.074-105.37c3.557-7.062,2.443-15.14-2.014-20.917   c-2.192-2.842-5.189-5.129-8.844-6.46l-22.616-8.231c8.011,2.919,10.704,14.855,5.759,25.521L418.486,364.135z"/>
	<path style="fill:#D8E6F0;" d="M451.496,171.278l-18.242,50.12l47.343,17.231l18.242-50.12c0.96-2.638-0.4-5.555-3.038-6.515   l-37.79-13.754C455.373,167.28,452.456,168.64,451.496,171.278z"/>
	<g>
		<polygon style="fill:#AAC0D1;" points="464.2,170.492 458.011,168.24 458.01,168.24   "/>
		<path style="fill:#AAC0D1;" d="M495.8,181.994l-19.256-7.009c1.444,0.526,1.837,3.09,0.877,5.728l-18.242,50.12l-25.926-9.436    l47.343,17.231l18.242-50.12C499.798,185.871,498.438,182.954,495.8,181.994z"/>
	</g>
	<g>
		<path d="M507.076,129.337c-3.893-1.414-8.196,0.591-9.613,4.482l-13.113,36.026l-9.759-3.552l5.273-14.489    c1.417-3.893-0.591-8.196-4.482-9.613c-3.898-1.415-8.196,0.591-9.613,4.482l-5.275,14.493c-3.138-1.118-6.52-0.963-9.539,0.445    c-3.047,1.42-5.357,3.942-6.507,7.101l-15.677,43.072l-4.491-1.635c-15.375-5.595-32.064,3.555-35.78,19.319l-6.133,26.015    c-0.95,4.031,1.547,8.07,5.579,9.021c4.025,0.952,8.071-1.546,9.021-5.579l6.133-26.015c1.681-7.129,9.174-11.169,16.05-8.665    l11.534,4.198c0.002,0.001,0.004,0.001,0.005,0.002l47.343,17.231c0.001,0,0.002,0,0.004,0.001    c0.747,0.661,11.16,1.868,12.181,11.794c0.666,6.484,0.326,2.09-49.609,102.724l-1.706,3.387l-61.345-22.327l6.812-28.895    c0-0.002,0.001-0.005,0.001-0.007l5.582-23.676c0.95-4.031-1.547-8.07-5.579-9.021c-4.023-0.947-8.07,1.547-9.021,5.579    l-8.995,38.153l-36.874,156.397c-0.992,4.228,1.337,8.533,5.418,10.016c0.845,0.308,1.71,0.453,2.56,0.453    c3.065,0,5.943-1.894,7.05-4.941c0.56-1.539,0.584-3.144,0.167-4.607l19.83-84.107l48.813,17.767l-38.873,77.177    c-1.263,0.855-2.276,2.103-2.837,3.646c-1.415,3.893,0.595,8.195,4.488,9.609c0.962,0.35,1.95,0.517,2.924,0.517    c3.159,0,6.169-1.754,7.659-4.717c6.751-13.404,111.63-221.622,115.69-229.684c6.788-13.478,1.3-29.908-12.22-36.609    l15.735-43.232c2.362-6.494-0.976-13.691-7.442-16.095l13.114-36.029C512.975,135.057,510.968,130.754,507.076,129.337z     M367.973,381.9l6.116-25.942l58.016,21.116l-11.99,23.804L367.973,381.9z M476.114,229.016l-33.247-12.101l14.849-40.801    l4.683,1.705c0.004,0.001,0.009,0.004,0.013,0.005c0.005,0.002,0.01,0.003,0.015,0.005l23.829,8.673    c0.003,0.001,0.007,0.003,0.01,0.004c0.004,0.001,0.008,0.002,0.012,0.004l4.686,1.705L476.114,229.016z"/>
		<path d="M210.36,196.676c-41.512,0-75.284,33.772-75.284,75.284s33.772,75.283,75.284,75.283s75.284-33.771,75.284-75.283    S251.872,196.676,210.36,196.676z M210.36,332.243c-33.241,0-60.284-27.043-60.284-60.283c0-33.241,27.043-60.284,60.284-60.284    s60.284,27.043,60.284,60.284C270.644,305.2,243.601,332.243,210.36,332.243z"/>
		<path d="M210.36,240.996c-17.073,0-30.963,13.891-30.963,30.964s13.89,30.963,30.963,30.963c1.952,0,3.906-0.184,5.808-0.545    c4.069-0.774,6.741-4.7,5.966-8.77c-0.773-4.069-4.701-6.737-8.769-5.967c-0.98,0.187-1.991,0.281-3.005,0.281    c-8.802,0-15.963-7.161-15.963-15.963c0-8.803,7.161-15.964,15.963-15.964c8.803,0,15.964,7.161,15.964,15.964    c0,0.613-0.035,1.231-0.104,1.837c-0.469,4.115,2.486,7.832,6.602,8.302c4.114,0.467,7.833-2.486,8.302-6.603    c0.133-1.167,0.201-2.356,0.201-3.536C241.324,254.886,227.434,240.996,210.36,240.996z"/>
		<path d="M420.631,155.593c-0.004,0-0.008,0-0.012,0c-2.812,0-5.633-0.292-8.386-0.867c-4.053-0.844-8.028,1.752-8.876,5.806    c-0.849,4.055,1.751,8.028,5.806,8.876c3.762,0.787,7.615,1.186,11.456,1.186c0.005,0,0.011,0,0.016,0    c4.143-0.001,7.499-3.36,7.498-7.502s-3.358-7.498-7.5-7.498H420.631z"/>
		<path d="M260.687,93.174c-0.004,0-0.008,0-0.011,0c-4.138,0-7.494,3.352-7.5,7.489c-0.006,4.143,3.348,7.505,7.489,7.511    c5.891,0.008,11.839,0.298,17.679,0.86c0.244,0.023,0.487,0.035,0.728,0.035c3.818,0,7.083-2.903,7.457-6.782    c0.396-4.123-2.624-7.787-6.747-8.185C273.473,93.495,267.048,93.182,260.687,93.174z"/>
		<path d="M369.016,126.224c-3.409-2.354-8.08-1.498-10.433,1.911c-2.354,3.408-1.498,8.08,1.911,10.433    c4.762,3.288,9.441,6.787,14.308,10.697c1.385,1.113,3.045,1.654,4.693,1.654c2.194,0,4.369-0.958,5.851-2.802    c2.595-3.229,2.081-7.949-1.147-10.544C379.047,133.433,374.081,129.72,369.016,126.224z"/>
		<path d="M317.301,101.379c-3.969-1.175-8.145,1.09-9.32,5.063c-1.176,3.972,1.091,8.145,5.063,9.32    c5.7,1.688,11.309,3.653,16.669,5.844c0.929,0.38,1.889,0.56,2.834,0.56c2.956,0,5.759-1.76,6.945-4.665    c1.567-3.835-0.271-8.213-4.105-9.779C329.564,105.342,323.479,103.208,317.301,101.379z"/>
		<path d="M222.705,96.616c-6.161,1.12-12.41,2.533-18.574,4.2c-3.999,1.082-6.363,5.2-5.281,9.198    c0.904,3.343,3.931,5.544,7.235,5.544c0.648,0,1.307-0.085,1.963-0.262c5.758-1.559,11.592-2.878,17.339-3.923    c4.076-0.741,6.779-4.646,6.038-8.721C230.685,98.578,226.774,95.869,222.705,96.616z"/>
		<path d="M168.391,113.557c-3.105,1.376-6.243,2.838-9.326,4.346c-3.721,1.819-5.262,6.311-3.443,10.032    c1.301,2.661,3.968,4.207,6.743,4.207c1.106,0,2.229-0.246,3.29-0.765c2.914-1.425,5.878-2.806,8.812-4.105    c3.787-1.678,5.497-6.108,3.819-9.896C176.608,113.589,172.175,111.88,168.391,113.557z"/>
		<path d="M98.104,139.601c13.359-11.767,25.981-22.884,52.086-37.843c49.31-24.288,99.174-32.267,148.211-23.708    c32.915,5.743,55.92,17.389,66.704,23.819c0.368,0.22,0.693,0.413,1.008,0.584c13.503,8.155,26.127,17.445,39.713,29.222    c8.782,7.612,22.201,7.231,30.55-0.866c4.338-4.206,6.778-9.85,6.871-15.891s-2.172-11.758-6.379-16.095    C388.564,49.011,327.49,18.04,260.249,9.26c-58.985-7.702-119.753,2.089-171.105,27.57c-3.71,1.842-5.226,6.342-3.384,10.053    s6.341,5.226,10.052,3.385c48.716-24.175,106.423-33.455,162.496-26.134c63.849,8.337,121.87,37.775,167.794,85.132    c1.417,1.462,2.18,3.388,2.148,5.423s-0.854,3.936-2.314,5.354c-2.814,2.727-7.329,2.86-10.284,0.3    c-14.318-12.412-27.662-22.217-41.994-30.855c-0.149-0.09-0.301-0.175-0.456-0.254c-0.105-0.063-0.243-0.145-0.413-0.246    c-11.671-6.96-36.52-19.555-71.808-25.713c-52.304-9.128-105.343-0.671-157.634,25.136c-0.137,0.067-0.272,0.14-0.406,0.216    c-27.563,15.773-41.384,27.947-54.75,39.72c-18.313,16.134-39.374,35.357-61.297,21.647c-5.727-3.582-9.715-9.179-11.232-15.761    c-1.517-6.582-0.379-13.361,3.208-19.096c0.09-0.145,0.253-0.396,0.322-0.501C31.583,95.837,48.948,79.003,70.804,64.6    c3.458-2.279,4.415-6.931,2.136-10.39c-2.281-3.459-6.933-4.413-10.39-2.136C38.987,67.603,20.185,85.873,6.642,106.416    c-0.135,0.207-0.37,0.571-0.496,0.773c-5.707,9.123-7.519,19.923-5.103,30.409c2.417,10.487,8.771,19.404,17.895,25.11    c6.08,3.803,13.968,6.915,23.508,6.914C64.719,169.621,82.019,153.769,98.104,139.601z"/>
		<path d="M369.896,275.545c1.216-2.235,1.216-4.935,0-7.17c-12.314-22.631-29.719-42.813-50.331-58.361    c-3.309-2.496-8.01-1.836-10.504,1.471s-1.836,8.01,1.471,10.504c17.823,13.445,33.03,30.66,44.18,49.974    c-29.729,51.586-84.661,83.459-144.352,83.459S95.737,323.546,66.008,271.96c29.729-51.587,84.662-83.462,144.352-83.462    c26.311,0,51.477,5.956,74.798,17.704c3.697,1.862,8.209,0.376,10.072-3.324c1.863-3.699,0.375-8.209-3.324-10.072    c-25.434-12.812-52.87-19.308-81.546-19.308c-66.561,0-127.691,36.354-159.536,94.877c-1.216,2.235-1.216,4.935,0,7.17    c31.844,58.521,92.975,94.876,159.536,94.876S338.051,334.066,369.896,275.545z"/>
	</g>
</g>















</svg>
