<?xml version="1.0" encoding="iso-8859-1"?>
<!-- Generator: Adobe Illustrator 19.0.0, SVG Export Plug-In . SVG Version: 6.00 Build 0)  -->
<svg xmlns="http://www.w3.org/2000/svg" xmlns:xlink="http://www.w3.org/1999/xlink" version="1.1" id="Capa_1" x="0px" y="0px" viewBox="0 0 512 512" style="enable-background:new 0 0 512 512;" xml:space="preserve" width="512" height="512">
<g>
	<path style="fill:#D8E6F0;" d="M487.338,189.165c-0.855,0-1.725-0.147-2.576-0.456c-3.91-1.424-5.927-5.747-4.503-9.658   l17.124-47.05c1.424-3.91,5.743-5.925,9.658-4.503c3.91,1.424,5.927,5.747,4.503,9.658l-17.124,47.05   C493.306,187.265,490.415,189.165,487.338,189.165z"/>
	<path style="fill:#D8E6F0;" d="M463.546,179.192c-0.855,0-1.726-0.147-2.576-0.456c-3.91-1.424-5.927-5.747-4.503-9.658   l8.747-24.03c1.423-3.91,5.746-5.926,9.658-4.503c3.91,1.424,5.927,5.747,4.503,9.658l-8.747,24.03   C469.514,177.292,466.624,179.192,463.546,179.192z"/>
	<path style="fill:#D8E6F0;" d="M205.896,179.862c-67.019,0-125.318,37.329-155.245,92.328   c29.927,54.998,88.226,92.328,155.245,92.328s125.318-37.329,155.245-92.328C331.214,217.19,272.915,179.862,205.896,179.862z"/>
	<circle style="fill:#78BAF6;" cx="205.896" cy="272.189" r="68.802"/>
	<circle style="fill:#606572;" cx="205.896" cy="272.189" r="23.816"/>
	<g>
		<path style="fill:#202D4C;" d="M419.327,169.223c-3.858,0-7.729-0.395-11.506-1.176c-4.075-0.842-6.696-4.828-5.854-8.903    c0.842-4.075,4.831-6.697,8.903-5.854c2.776,0.574,5.621,0.864,8.457,0.864c4.162,0,7.535,3.373,7.535,7.535    S423.489,169.223,419.327,169.223z"/>
		<path style="fill:#202D4C;" d="M377.63,149.301c-1.657,0-3.325-0.544-4.717-1.663c-4.944-3.975-9.698-7.533-14.536-10.874    c-3.424-2.364-4.282-7.058-1.917-10.482c2.364-3.422,7.055-4.281,10.482-1.917c5.142,3.551,10.183,7.323,15.415,11.529    c3.242,2.608,3.757,7.351,1.15,10.593C382.018,148.338,379.833,149.301,377.63,149.301z M329.945,120.078    c-0.95,0-1.915-0.181-2.848-0.562c-5.448-2.227-11.148-4.226-16.94-5.941c-3.99-1.181-6.266-5.374-5.085-9.364    c1.182-3.989,5.37-6.264,9.364-5.085c6.273,1.857,12.451,4.025,18.362,6.442c3.852,1.575,5.698,5.974,4.123,9.825    C335.729,118.311,332.914,120.078,329.945,120.078z M201.485,113.381c-3.318,0-6.358-2.208-7.268-5.566    c-1.088-4.015,1.285-8.155,5.301-9.243c6.253-1.695,12.599-3.133,18.862-4.273c4.094-0.739,8.017,1.969,8.762,6.063    c0.745,4.094-1.969,8.017-6.063,8.763c-5.846,1.064-11.774,2.408-17.618,3.991C202.801,113.296,202.138,113.381,201.485,113.381z     M275.625,106.774c-0.241,0-0.486-0.012-0.731-0.035c-5.934-0.572-11.979-0.865-17.965-0.872    c-4.162-0.005-7.531-3.383-7.526-7.543c0.005-4.158,3.378-7.526,7.535-7.526c0.003,0,0.006,0,0.009,0    c6.46,0.008,12.984,0.325,19.392,0.941c4.142,0.399,7.176,4.08,6.778,8.222C282.741,103.857,279.461,106.774,275.625,106.774z"/>
		<path style="fill:#202D4C;" d="M157.181,130.195c-2.787,0-5.466-1.553-6.774-4.225c-1.828-3.738-0.281-8.251,3.458-10.079    c3.076-1.504,6.226-2.974,9.364-4.366c3.804-1.685,8.255,0.026,9.943,3.831c1.688,3.804-0.027,8.255-3.831,9.943    c-2.967,1.317-5.946,2.706-8.855,4.128C159.421,129.947,158.292,130.195,157.181,130.195z"/>
	</g>
	<path style="fill:#606572;" d="M5.499,108.312c68.61-104.069,284.257-151.533,424.842-6.559c5.901,6.085,5.751,15.801-0.334,21.702   c-5.76,5.585-14.772,5.75-20.724,0.591c-13.176-11.421-26.314-21.356-41.569-30.552c-1.11-0.281-96.891-64.735-226.47-0.785   c-37.348,21.373-48.936,35.817-69.852,52.681c-21.175,17.072-40.173,19.201-55.756,9.454c-15.583-9.747-20.314-30.28-10.568-45.863   C5.181,108.802,5.384,108.489,5.499,108.312z"/>
	<path style="fill:#D8E6F0;" d="M334.906,486.151l41.816,15.22c0.518,0.189,1.096-0.04,1.344-0.533l117.427-233.133   c5.387-10.694,0.231-23.692-11.021-27.788l-64.048-23.312c-11.252-4.095-23.556,2.548-26.304,14.203l-59.901,254.071   C334.093,485.416,334.388,485.963,334.906,486.151z"/>
	<path style="fill:#AAC0D1;" d="M484.472,239.917l-22.959-8.357c8.133,2.961,10.869,15.078,5.848,25.905L357.906,493.5   c-0.231,0.499-0.688,0.772-1.063,0.636l-12.464-4.537l32.343,11.772c0.518,0.189,1.096-0.04,1.344-0.533l117.427-233.133   C500.88,257.011,495.724,244.013,484.472,239.917z"/>
	<path style="fill:#FEE9A1;" d="M394.12,230.808l-27.48,116.558l74.982,27.291l53.871-106.953   c5.387-10.694,0.231-23.692-11.021-27.787l-64.048-23.312C409.172,212.51,396.868,219.153,394.12,230.808z"/>
	<path style="fill:#FDCA67;" d="M417.147,365.749l24.475,8.908l53.871-106.952c3.61-7.168,2.479-15.367-2.044-21.231   c-2.225-2.884-5.267-5.206-8.977-6.557l-22.956-8.355c8.131,2.963,10.865,15.078,5.845,25.904L417.147,365.749z"/>
	<path style="fill:#D8E6F0;" d="M450.652,169.996l-18.516,50.873l48.053,17.49l18.516-50.873c0.975-2.678-0.406-5.638-3.084-6.613   l-38.357-13.961C454.588,165.938,451.627,167.318,450.652,169.996z"/>
	<g>
		<path style="fill:#AAC0D1;" d="M495.622,180.873l-19.545-7.114c1.466,0.534,1.865,3.137,0.89,5.814l-18.516,50.873l-26.315-9.578    l48.053,17.49l18.516-50.873C499.681,184.808,498.3,181.848,495.622,180.873z"/>
	</g>
</g>















</svg>
