<svg height="512pt" viewBox="-13 0 512 512.00026" width="512pt" xmlns="http://www.w3.org/2000/svg"><path d="m84.398438 61.8125-15.453126 30.902344v216.339844h30.90625v-216.339844zm0 0" fill="#fa4087"/><path d="m45.765625 16.003906 23.179687 76.710938h30.90625l23.179688-76.710938c-21.335938-21.339844-55.929688-21.339844-77.265625 0zm0 0" fill="#fa71a3"/><path d="m138.484375 286.90625-61.8125 83.425781 46.359375 141.667969h23.105469c4.390625 0 8.03125-3.398438 8.332031-7.78125l14.308594-208.386719c.332031-4.828125-3.496094-8.925781-8.335938-8.925781zm0 0" fill="#474867"/><path d="m.0195312 295.832031 14.3085938 208.386719c.300781 4.382812 3.941406 7.78125 8.332031 7.78125h100.371094l15.453125-225.09375h-130.132813c-4.835937 0-8.664062 4.097656-8.3320308 8.925781zm0 0" fill="#616281"/><path d="m347.09375 108.167969-25.753906 108.171875h56.660156v-92.628906c0-8.582032-6.960938-15.542969-15.542969-15.542969zm0 0" fill="#f9a3bf"/><path d="m300.734375 123.710938v92.628906h46.359375v-108.171875h-30.816406c-8.582032 0-15.542969 6.960937-15.542969 15.542969zm0 0" fill="#f9d4db"/><path d="m455.261719 169.980469-61.808594 342.019531h30.90625c25.496094 0 47.296875-20.839844 48.449219-46.308594l12.625-279.46875c.402344-8.847656-6.664063-16.242187-15.523438-16.242187zm0 0" fill="#f9a3bf"/><path d="m208.828125 169.980469c-8.859375 0-15.925781 7.394531-15.527344 16.242187l12.625 279.46875c1.152344 25.46875 22.957031 46.308594 48.453125 46.308594h139.074219c25.496094 0 47.300781-20.839844 48.449219-46.308594l4.855468-108.125-223.253906-187.585937zm0 0" fill="#f9d4db"/><path d="m424.324219 169.980469-74.46875 280.207031c50.992187 0 94.597656-41.679688 96.902343-92.621094l8.472657-187.585937zm0 0" fill="#fa4087"/><path d="m415.851562 357.566406 8.472657-187.585937h-200.820313l8.476563 187.585937c2.300781 50.941406 45.90625 92.621094 96.898437 92.621094h20.976563c34.730469 0 64.425781-41.679688 65.996093-92.621094zm0 0" fill="#fa71a3"/><path d="m385.726562 146.800781h-92.71875c-4.265624 0-7.722656-3.457031-7.722656-7.726562 0-4.265625 3.457032-7.726563 7.722656-7.726563h92.71875c4.265626 0 7.726563 3.460938 7.726563 7.726563 0 4.269531-3.460937 7.726562-7.726563 7.726562zm0 0" fill="#f9a3bf"/></svg>