<svg id="Capa_1" enable-background="new 0 0 512 512" height="512" viewBox="0 0 512 512" width="512" xmlns="http://www.w3.org/2000/svg"><g><path d="m145.27 51.505h-54.593c-8.368 0-15.286 6.521-15.781 14.874l-12.573 212.126h111.301l-12.573-212.127c-.495-8.353-7.413-14.873-15.781-14.873z" fill="#8d9ca8"/><path d="m145.27 51.505h-54.593c-8.368 0-15.286 6.521-15.781 14.874l-12.573 212.126 58.365 10.302 52.936-10.302-12.573-212.127c-.495-8.353-7.413-14.873-15.781-14.873z" fill="#7a8c98"/><path d="m161.052 66.378c-.495-8.353-7.414-14.874-15.781-14.874h-30.905c8.368 0 15.286 6.521 15.781 14.874l12.573 212.127h30.905z" fill="#596c76"/><path d="m178.219 512h-120.49c-15.834 0-29.127-11.926-30.839-27.667l-18.64-171.455c-1.995-18.351 12.379-34.373 30.839-34.373h157.771c18.459 0 32.834 16.022 30.839 34.373l-18.64 171.454c-1.713 15.742-15.006 27.668-30.84 27.668z" fill="#8d9ca8"/><path d="m178.219 512h-120.49c-15.834 0-29.127-11.926-30.839-27.667l-18.64-171.455c-1.995-18.351 12.379-34.373 30.839-34.373h157.771c18.459 0 32.834 16.022 30.839 34.373l-18.64 171.454c-1.713 15.742-15.006 27.668-30.84 27.668z" fill="#fe93d3"/><path d="m196.976 278.508c.002 1.143-.057 2.299-.184 3.464l-18.64 171.454c-1.711 15.742-15.004 27.668-30.839 27.668h-120.49c-.096 0-.19-.006-.286-.007l.353 3.245c1.712 15.742 15.004 27.668 30.839 27.668h120.49c15.834 0 29.127-11.926 30.839-27.668l18.64-171.454c1.991-18.312-12.319-34.302-30.722-34.37z" fill="#fe73c5"/><path d="m366.73 51.505h54.593c8.368 0 15.286 6.521 15.781 14.874l12.573 212.127-55.651 10.302-55.651-10.302 12.573-212.127c.496-8.354 7.414-14.874 15.782-14.874z" fill="#7a8c98"/><path d="m286.349 0h-60.699c-9.304 0-16.996 7.25-17.546 16.537l-13.979 235.853h123.75l-13.979-235.853c-.551-9.287-8.243-16.537-17.547-16.537z" fill="#8d9ca8"/><path d="m286.349 0h-60.699c-9.304 0-16.996 7.25-17.546 16.537l-13.979 235.853 61.319 10.302 62.431-10.302-13.979-235.853c-.551-9.287-8.243-16.537-17.547-16.537z" fill="#8d9ca8"/><path d="m437.104 66.378c-.495-8.353-7.414-14.874-15.781-14.874h-30.905c8.368 0 15.286 6.521 15.781 14.874l12.573 212.127 16.815 10.302 14.09-10.302z" fill="#596c76"/><path d="m303.896 16.537c-.551-9.287-8.243-16.537-17.547-16.537h-30.905c9.304 0 16.996 7.25 17.547 16.537l13.979 235.853 15.62 10.302 15.285-10.302z" fill="#7a8c98"/><path d="m333.781 512h120.49c15.834 0 29.127-11.926 30.839-27.667l18.64-171.454c1.995-18.351-12.379-34.373-30.839-34.373h-157.77c-18.459 0-32.834 16.022-30.839 34.373l18.64 171.454c1.712 15.741 15.005 27.667 30.839 27.667z" fill="#8d9ca8"/><path d="m333.781 512h120.49c15.834 0 29.127-11.926 30.839-27.667l18.64-171.454c1.995-18.351-12.379-34.373-30.839-34.373h-157.77c-18.459 0-32.834 16.022-30.839 34.373l18.64 171.454c1.712 15.741 15.005 27.667 30.839 27.667z" fill="#ffd15b"/><path d="m324.297 512h-136.594c-16.858 0-31.01-12.697-32.832-29.456l-21.044-193.559c-2.124-19.537 13.18-36.595 32.832-36.595h178.681c19.652 0 34.956 17.058 32.832 36.595l-21.044 193.559c-1.821 16.759-15.973 29.456-32.831 29.456z" fill="#8d9ca8"/><path d="m324.297 512h-136.594c-16.858 0-31.01-12.697-32.832-29.456l-21.044-193.559c-2.124-19.537 13.18-36.595 32.832-36.595h178.681c19.652 0 34.956 17.058 32.832 36.595l-21.044 193.559c-1.821 16.759-15.973 29.456-32.831 29.456z" fill="#8ac9fe"/><path d="m473.029 278.508c.002 1.143-.057 2.299-.184 3.464l-18.64 171.454c-1.711 15.742-15.004 27.668-30.839 27.668h-120.49c-.096 0-.19-.006-.286-.007l.353 3.245c1.711 15.742 15.004 27.668 30.838 27.668h120.49c15.835 0 29.127-11.926 30.839-27.668l18.64-171.454c1.991-18.312-12.319-34.302-30.721-34.37z" fill="#ffc344"/><path d="m347.399 252.458c.112 1.842.075 3.719-.132 5.621l-21.044 193.559c-1.822 16.759-15.974 29.456-32.832 29.456h-136.593c-.703 0-1.399-.03-2.092-.074l.165 1.523c1.822 16.76 15.974 29.457 32.832 29.457h136.594c16.858 0 31.01-12.697 32.832-29.456l21.044-193.559c2.049-18.849-12.125-35.385-30.774-36.527z" fill="#60b7ff"/><path d="m295.851 426.437h-79.701c-6.675 0-12.283-5.017-13.024-11.65l-7.375-66.041c-.867-7.765 5.21-14.559 13.024-14.559h94.451c7.813 0 13.891 6.794 13.024 14.559l-7.375 66.041c-.742 6.633-6.35 11.65-13.024 11.65z" fill="#faf7f7"/><path d="m275.981 388.038h-39.961c-4.268 0-7.726-3.459-7.726-7.726s3.459-7.726 7.726-7.726h39.961c4.268 0 7.726 3.459 7.726 7.726 0 4.266-3.459 7.726-7.726 7.726z" fill="#8ac9fe"/></g></svg>