<svg id="Capa_1" enable-background="new 0 0 512 512" height="512" viewBox="0 0 512 512" width="512" xmlns="http://www.w3.org/2000/svg"><g><g><g><path d="m180.498 504.5h-116.961c-15.37 0-28.274-11.577-29.935-26.857l-18.094-166.431c-1.937-17.813 12.017-33.366 29.935-33.366h153.149c17.918 0 31.872 15.553 29.935 33.366l-18.094 166.431c-1.662 15.28-14.565 26.857-29.935 26.857z" fill="#8d9ca8"/></g><g><path d="m180.498 504.5h-116.961c-15.37 0-28.274-11.577-29.935-26.857l-18.094-166.431c-1.937-17.813 12.017-33.366 29.935-33.366h153.149c17.918 0 31.872 15.553 29.935 33.366l-18.094 166.431c-1.662 15.28-14.565 26.857-29.935 26.857z" fill="#fe93d3"/></g><g><path d="m198.705 277.849c.002 1.11-.055 2.232-.178 3.363l-18.094 166.431c-1.661 15.28-14.565 26.857-29.935 26.857h-116.961c-.093 0-.185-.006-.277-.007l.342 3.15c1.661 15.28 14.565 26.857 29.935 26.857h116.96c15.37 0 28.274-11.577 29.935-26.857l18.094-166.431c1.933-17.776-11.957-33.297-29.821-33.363z" fill="#fe73c5"/></g><g><path d="m148.514 57.496h-52.993c-8.123 0-14.838 6.33-15.319 14.438l-12.205 205.912h108.04l-12.204-205.912c-.48-8.109-7.196-14.438-15.319-14.438z" fill="#8d9ca8"/></g><g><path d="m148.514 57.496h-52.993c-8.123 0-14.838 6.33-15.319 14.438l-12.205 205.912h108.04l-12.204-205.912c-.48-8.109-7.196-14.438-15.319-14.438z" fill="#7a8c98"/></g><g><path d="m363.486 57.496h52.993c8.123 0 14.838 6.33 15.319 14.438l12.205 205.912h-108.04l12.205-205.912c.479-8.109 7.195-14.438 15.318-14.438z" fill="#8d9ca8"/></g><g><path d="m285.46 7.5h-58.92c-9.031 0-16.498 7.037-17.032 16.053l-13.57 228.943h120.124l-13.57-228.943c-.534-9.016-8.001-16.053-17.032-16.053z" fill="#8d9ca8"/></g><g><path d="m285.46 7.5h-58.92c-9.031 0-16.498 7.037-17.032 16.053l-13.57 228.943h120.124l-13.57-228.943c-.534-9.016-8.001-16.053-17.032-16.053z" fill="#8d9ca8"/></g><g><path d="m163.833 71.934c-.481-8.108-7.196-14.438-15.319-14.438h-30c8.123 0 14.838 6.33 15.319 14.438l12.205 205.912h30z" fill="#596c76"/></g><g><path d="m431.798 71.934c-.481-8.108-7.197-14.438-15.319-14.438h-30c8.123 0 14.838 6.33 15.319 14.438l12.204 205.912h30z" fill="#596c76"/></g><g><path d="m302.493 23.553c-.535-9.016-8.002-16.053-17.033-16.053h-30c9.031 0 16.498 7.037 17.032 16.053l13.57 228.943h30z" fill="#7a8c98"/></g><g><path d="m331.502 504.5h116.96c15.37 0 28.274-11.577 29.935-26.857l18.094-166.431c1.937-17.813-12.017-33.366-29.935-33.366h-153.148c-17.918 0-31.872 15.553-29.935 33.366l18.094 166.431c1.662 15.28 14.565 26.857 29.935 26.857z" fill="#8d9ca8"/></g><g><path d="m331.502 504.5h116.96c15.37 0 28.274-11.577 29.935-26.857l18.094-166.431c1.937-17.813-12.017-33.366-29.935-33.366h-153.148c-17.918 0-31.872 15.553-29.935 33.366l18.094 166.431c1.662 15.28 14.565 26.857 29.935 26.857z" fill="#ffd15b"/></g><g><path d="m322.296 504.5h-132.592c-16.364 0-30.102-12.325-31.87-28.593l-20.427-187.888c-2.062-18.965 12.794-35.523 31.87-35.523h173.446c19.077 0 33.932 16.558 31.87 35.523l-20.427 187.888c-1.768 16.268-15.506 28.593-31.87 28.593z" fill="#8d9ca8"/></g><g><path d="m322.296 504.5h-132.592c-16.364 0-30.102-12.325-31.87-28.593l-20.427-187.888c-2.062-18.965 12.794-35.523 31.87-35.523h173.446c19.077 0 33.932 16.558 31.87 35.523l-20.427 187.888c-1.768 16.268-15.506 28.593-31.87 28.593z" fill="#8ac9fe"/></g><g><path d="m466.67 277.849c.002 1.11-.055 2.232-.178 3.363l-18.094 166.431c-1.661 15.28-14.564 26.857-29.935 26.857h-116.96c-.093 0-.185-.006-.277-.007l.342 3.15c1.661 15.28 14.565 26.857 29.935 26.857h116.96c15.371 0 28.274-11.577 29.935-26.857l18.094-166.431c1.932-17.776-11.958-33.297-29.822-33.363z" fill="#ffc344"/></g><g><path d="m344.721 252.562c.108 1.788.073 3.61-.128 5.457l-20.427 187.888c-1.769 16.268-15.506 28.593-31.87 28.593h-132.592c-.682 0-1.358-.029-2.031-.072l.161 1.478c1.769 16.268 15.506 28.593 31.87 28.593h132.592c16.364 0 30.102-12.325 31.87-28.593l20.427-187.888c1.989-18.296-11.769-34.348-29.872-35.456z" fill="#60b7ff"/></g><g><path d="m294.683 421.443h-77.366c-6.479 0-11.923-4.87-12.642-11.309l-7.159-64.107c-.842-7.538 5.058-14.132 12.642-14.132h91.684c7.584 0 13.484 6.595 12.642 14.132l-7.159 64.107c-.719 6.44-6.163 11.309-12.642 11.309z" fill="#fff"/></g></g><g><path d="m494.552 282.84c-7.124-7.94-17.328-12.494-27.995-12.494h-15.486l-11.785-198.856c-.715-12.053-10.732-21.494-22.807-21.494h-52.993c-12.074 0-22.092 9.441-22.807 21.494l-10.284 173.506h-7.264l-13.151-221.887c-.768-12.958-11.538-23.109-24.519-23.109h-58.921c-12.981 0-23.751 10.151-24.52 23.109l-13.151 221.886h-7.265l-10.284-173.505c-.715-12.053-10.731-21.494-22.806-21.494h-52.993c-12.074 0-22.092 9.441-22.806 21.494l-4.806 81.078c-.245 4.135 2.908 7.686 7.043 7.931 4.146.245 7.686-2.908 7.931-7.043l4.806-81.078c.245-4.139 3.686-7.382 7.832-7.382h52.993c4.146 0 7.586 3.242 7.831 7.382l10.237 172.721c-10.23.701-19.861 5.358-26.751 13.038-3.243 3.615-5.754 7.763-7.464 12.209h-56.412l4.575-77.181c.245-4.135-2.908-7.686-7.043-7.931-4.142-.247-7.686 2.908-7.931 7.043l-4.627 78.069h-15.486c-10.667 0-20.872 4.554-27.996 12.494s-10.548 18.577-9.396 29.182l18.094 166.431c2.08 19.125 18.155 33.547 37.392 33.547h384.925c19.236 0 35.312-14.422 37.392-33.546l4.86-44.706c.447-4.118-2.527-7.819-6.646-8.267-4.122-.449-7.818 2.528-8.267 6.646l-4.86 44.705c-1.25 11.498-10.914 20.168-22.478 20.168h-95.137c4.483-5.665 7.463-12.612 8.297-20.282l20.427-187.889c.126-1.162.188-2.324.211-3.483h84.297c6.507 0 12.484 2.667 16.83 7.511s6.352 11.074 5.648 17.544l-8.693 79.963c-.447 4.118 2.527 7.819 6.646 8.267.275.03.549.045.819.045 3.779 0 7.029-2.848 7.447-6.69l8.693-79.963c1.153-10.606-2.272-21.243-9.396-29.183zm-277.557-258.844c.299-5.045 4.491-8.996 9.545-8.996h58.921c5.054 0 9.246 3.952 9.545 8.996l13.099 220.999h-104.209zm-175.937 452.837-18.094-166.432c-.703-6.469 1.303-12.7 5.648-17.544s10.323-7.511 16.831-7.511h84.297c.023 1.159.085 2.321.211 3.483l20.427 187.889c.834 7.67 3.813 14.617 8.297 20.282h-95.138c-11.565 0-21.229-8.67-22.479-20.167zm326.079-189.625-20.427 187.888c-1.358 12.487-11.854 21.904-24.414 21.904h-132.592c-12.561 0-23.057-9.417-24.414-21.904l-20.427-187.889c-.753-6.924 1.482-13.869 6.134-19.054 4.651-5.185 11.314-8.158 18.28-8.158h146.785 26.661c6.965 0 13.628 2.973 18.279 8.158 4.652 5.185 6.888 12.13 6.135 19.055zm-21.72-42.109 10.237-172.722c.245-4.139 3.686-7.382 7.832-7.382h52.993c4.146 0 7.587 3.242 7.832 7.382l11.733 197.968h-56.412c-1.71-4.446-4.222-8.594-7.465-12.209-6.89-7.68-16.521-12.336-26.75-13.037z"/><path d="m301.841 324.396h-91.684c-5.746 0-11.239 2.456-15.07 6.739s-5.663 10.015-5.025 15.725l7.159 64.108c1.145 10.248 9.784 17.976 20.096 17.976h77.366c10.312 0 18.951-7.728 20.096-17.976l7.159-64.107c.638-5.711-1.194-11.443-5.025-15.725-3.831-4.284-9.324-6.74-15.072-6.74zm5.189 20.799-7.159 64.107c-.295 2.646-2.525 4.641-5.188 4.641h-77.366c-2.662 0-4.894-1.996-5.188-4.641l-7.158-64.107c-.226-2.019.716-3.41 1.297-4.06s1.859-1.74 3.891-1.74h91.684c2.031 0 3.311 1.09 3.892 1.74.579.65 1.521 2.042 1.295 4.06z"/><path d="m275.395 369.169h-38.79c-4.143 0-7.5 3.358-7.5 7.5s3.357 7.5 7.5 7.5h38.79c4.143 0 7.5-3.358 7.5-7.5s-3.357-7.5-7.5-7.5z"/></g></g></svg>