<svg height="512pt" viewBox="-12 0 512 512" width="512pt" xmlns="http://www.w3.org/2000/svg"><path d="m90 67.5-15 30v210h30v-210zm0 0" fill="#fa4087"/><path d="m52.5 23.03125 22.5 74.46875h30l22.5-74.46875c-20.710938-20.710938-54.289062-20.710938-75 0zm0 0" fill="#fa71a3"/><path d="m142.5 286-60 80.980469 45 137.519531h30l15-218.5zm0 0" fill="#474867"/><path d="m7.5 286 15 218.5h105l15-218.5zm0 0" fill="#616281"/><path d="m345 112.5-25 105h55v-105zm0 0" fill="#f9d4db"/><path d="m300 112.5h45v105h-45zm0 0" fill="#fff"/><path d="m450 172.5-60 332h30c24.75 0 45.914062-20.230469 47.03125-44.953125l12.96875-287.046875zm0 0" fill="#f9d4db"/><path d="m195 172.5 12.96875 287.046875c1.117188 24.722656 22.28125 44.953125 47.03125 44.953125h135c24.75 0 45.914062-20.230469 47.03125-44.953125l4.710938-104.953125-216.710938-182.09375zm0 0" fill="#fff"/><path d="m419.96875 172.5-72.289062 272c49.5 0 91.828124-40.460938 94.0625-89.90625l8.226562-182.09375zm0 0" fill="#fa4087"/><path d="m411.742188 354.59375 8.226562-182.09375h-194.9375l8.226562 182.09375c2.234376 49.445312 44.5625 89.90625 94.0625 89.90625h20.359376c33.714843 0 62.542968-40.460938 64.0625-89.90625zm0 0" fill="#fa71a3"/><path d="m172.5 278.5h-60v-179.890625l22.179688-73.40625c.800781-2.648437.078124-5.519531-1.875-7.472656-11.433594-11.433594-26.636719-17.730469-42.804688-17.730469s-31.371094 6.296875-42.804688 17.730469c-1.953124 1.953125-2.675781 4.824219-1.875 7.472656l22.179688 73.40625v179.890625h-60c-2.078125 0-4.0625.863281-5.480469 2.382812-1.417969 1.519532-2.144531 3.558594-1.9999998 5.632813l14.9999998 218.5c.269531 3.933594 3.539063 6.984375 7.480469 6.984375h135c3.941406 0 7.210938-3.054688 7.480469-6.984375l15-218.5c.144531-2.074219-.582031-4.113281-2-5.632813-1.417969-1.519531-3.402344-2.382812-5.480469-2.382812zm-111.453125-253.113281c8.132813-6.726563 18.261719-10.386719 28.953125-10.386719s20.820312 3.660156 28.953125 10.386719l-19.519531 64.613281h-18.863282zm21.453125 79.613281h15v173.5h-15zm67.996094 392h-120.992188l-13.972656-203.5h148.9375zm0 0"/><path d="m485.421875 167.316406c-1.414063-1.476562-3.375-2.316406-5.421875-2.316406h-97.5v-15h7.5c4.140625 0 7.5-3.355469 7.5-7.5s-3.359375-7.5-7.5-7.5h-7.5v-22.5c0-4.144531-3.359375-7.5-7.5-7.5h-75c-4.140625 0-7.5 3.355469-7.5 7.5v22.5h-7.5c-4.140625 0-7.5 3.355469-7.5 7.5s3.359375 7.5 7.5 7.5h7.5v15h-97.5c-2.046875 0-4.007812.839844-5.421875 2.316406-1.414063 1.480469-2.164063 3.476563-2.070313 5.523438l12.96875 287.042968c1.296876 28.738282 25.757813 52.117188 54.523438 52.117188h165c28.765625 0 53.226562-23.378906 54.523438-52.113281l12.96875-287.046875c.09375-2.046875-.65625-4.042969-2.070313-5.523438zm-177.921875-47.316406h60v15h-60zm0 30h60v15h-60zm152.039062 309.207031c-.941406 20.839844-18.679687 37.792969-39.539062 37.792969h-165c-20.859375 0-38.597656-16.953125-39.539062-37.792969l-12.613282-279.207031h15.015625l6.546875 144.929688c.183594 4.023437 3.5 7.164062 7.488282 7.164062.113281 0 .226562-.003906.34375-.007812 4.136718-.1875 7.339843-3.695313 7.152343-7.832032l-6.519531-144.253906h209.25l-7.875 174.253906c-2.0625 45.625-40.894531 82.746094-86.570312 82.746094h-20.359376c-45.671874 0-84.507812-37.121094-86.570312-82.746094-.1875-4.140625-3.695312-7.359375-7.832031-7.152344-4.136719.183594-7.339844 3.691407-7.152344 7.828126 2.417969 53.523437 47.976563 97.070312 101.554687 97.070312h20.359376c53.578124 0 99.136718-43.546875 101.554687-97.070312l7.902344-174.929688h15.015625zm0 0"/></svg>