<svg id="Capa_1" enable-background="new 0 0 512 512" height="512" viewBox="0 0 512 512" width="512" xmlns="http://www.w3.org/2000/svg"><g><path d="m291.626 93.659h-71.252c-3.314 0-6-2.686-6-6v-81.659c0-3.314 2.686-6 6-6h71.252c3.314 0 6 2.686 6 6v81.659c0 3.313-2.686 6-6 6z" fill="#dfdfdf"/><path d="m276.813 0v93.659h14.813c3.314 0 6-2.686 6-6v-81.659c0-3.314-2.686-6-6-6z" fill="#bebebe"/><path d="m308.033 176.911h-104.066v-42.033c0-5.523 4.477-10 10-10h84.065c5.523 0 10 4.477 10 10v42.033z" fill="#dfdfdf"/><path d="m276.813 124.878v52.033h31.22v-42.033c0-5.523-4.477-10-10-10z" fill="#bebebe"/><path d="m391.691 512h-271.382c-5.523 0-10-4.477-10-10v-315.089c0-5.523 4.477-10 10-10h271.382c5.523 0 10 4.477 10 10v315.089c0 5.523-4.477 10-10 10z" fill="#f1faff"/><path d="m376.715 176.911v335.089h14.976c5.523 0 10-4.477 10-10v-315.089c0-5.523-4.477-10-10-10z" fill="#c7eefb"/><path d="m391.691 512h-271.382c-5.523 0-10-4.477-10-10v-235.594h291.382v235.594c0 5.523-4.477 10-10 10z" fill="#fc8086"/><path d="m376.715 512h14.976c5.523 0 10-4.477 10-10v-235.594h-24.976z" fill="#fb636f"/><path d="m172.748 470.78v-252.65c0-5.523 4.477-10 10-10h146.504c5.523 0 10 4.477 10 10v252.65c0 5.523-4.477 10-10 10h-146.504c-5.523 0-10-4.477-10-10z" fill="#fdf3ac"/><path d="m240.39 313.236h31.22v104.065h-31.22z" fill="#fdf3ac" transform="matrix(0 1 -1 0 621.268 109.268)"/><path d="m203.967 374.878v-19.22c0-3.314 2.686-6 6-6h92.065c3.314 0 6 2.686 6 6v19.22c0 3.314-2.686 6-6 6h-92.065c-3.313 0-6-2.686-6-6z" fill="#fcb143"/><path d="m224.78 93.659h62.439v31.22h-62.439z" fill="#465961"/><circle cx="256" cy="46.829" fill="#465961" r="12.488"/><path d="m260.594 302.928 39.061-43.402c1.872-2.08 2.113-5.158.588-7.504l-9.115-14.023c-1.14-1.754-3.09-2.812-5.182-2.812h-29.946-29.946c-2.092 0-4.042 1.058-5.182 2.812l-9.115 14.023c-1.525 2.346-1.284 5.424.588 7.504l39.061 43.402c2.455 2.728 6.733 2.728 9.188 0z" fill="#90d8f9"/><g><path d="m300.306 419.824h-88.612c-4.267 0-7.726-3.459-7.726-7.726s3.459-7.726 7.726-7.726h88.612c4.268 0 7.726 3.459 7.726 7.726s-3.458 7.726-7.726 7.726z" fill="#586b76"/></g><g><path d="m300.306 451.043h-88.612c-4.267 0-7.726-3.459-7.726-7.726s3.459-7.726 7.726-7.726h88.612c4.268 0 7.726 3.459 7.726 7.726s-3.458 7.726-7.726 7.726z" fill="#586b76"/></g></g></svg>