<svg id="Capa_1" enable-background="new 0 0 512 512" height="512" viewBox="0 0 512 512" width="512" xmlns="http://www.w3.org/2000/svg"><g><g><path d="m215.593 7.5h80.813v90.915h-80.813z" fill="#dfdfdf"/></g><g><path d="m276.203 7.5h20.203v90.915h-20.203z" fill="#bebebe"/></g><g><path d="m205.492 128.72h101.016v50.508h-101.016z" fill="#dfdfdf"/></g><g><path d="m276.203 128.72h30.305v50.508h-30.305z" fill="#bebebe"/></g><g><path d="m114.577 179.228h282.846v325.272h-282.846z" fill="#f1faff"/></g><g><path d="m373.179 179.228h24.244v325.272h-24.244z" fill="#c7eefb"/></g><g><path d="m114.577 266.102h282.846v238.398h-282.846z" fill="#fc8086"/></g><g><path d="m373.179 266.102h24.244v238.398h-24.244z" fill="#fb636f"/></g><g><path d="m123.669 261.051h264.663v161.626h-264.663z" fill="#fdf3ac" transform="matrix(0 1 -1 0 597.864 85.864)"/></g><g><path d="m240.848 311.559h30.305v101.016h-30.305z" fill="#fdf3ac" transform="matrix(0 1 -1 0 618.067 106.067)"/></g><g><path d="m240.848 311.559h30.305v101.016h-30.305z" fill="#fcb143" transform="matrix(0 1 -1 0 618.067 106.067)"/></g><g><path d="m225.695 98.415h60.61v30.305h-60.61z" fill="#465961"/></g><g><path d="m256 306.508 45.457-50.508-13.132-20.203h-32.325-32.325l-13.132 20.203z" fill="#90d8f9"/></g><g><circle cx="256" cy="52.957" r="12.122"/><path d="m205.492 384.72h101.016c4.143 0 7.5-3.357 7.5-7.5v-30.305c0-4.143-3.357-7.5-7.5-7.5h-101.016c-4.142 0-7.5 3.357-7.5 7.5v30.305c0 4.142 3.358 7.5 7.5 7.5zm7.5-30.305h86.016v15.305h-86.016z"/><path d="m205.492 415.024h101.016c4.143 0 7.5-3.357 7.5-7.5s-3.357-7.5-7.5-7.5h-101.016c-4.142 0-7.5 3.357-7.5 7.5s3.358 7.5 7.5 7.5z"/><path d="m205.492 445.329h101.016c4.143 0 7.5-3.357 7.5-7.5s-3.357-7.5-7.5-7.5h-101.016c-4.142 0-7.5 3.357-7.5 7.5s3.358 7.5 7.5 7.5z"/><path d="m397.423 206.25c4.143 0 7.5-3.357 7.5-7.5v-19.522c0-4.143-3.357-7.5-7.5-7.5h-83.415v-43.008c0-4.143-3.357-7.5-7.5-7.5h-12.703v-15.305h2.602c4.143 0 7.5-3.357 7.5-7.5v-26.825c0-4.143-3.357-7.5-7.5-7.5s-7.5 3.357-7.5 7.5v19.325h-65.813v-75.915h65.813v21.429c0 4.143 3.357 7.5 7.5 7.5s7.5-3.357 7.5-7.5v-28.929c0-4.143-3.357-7.5-7.5-7.5h-80.813c-4.142 0-7.5 3.357-7.5 7.5v90.915c0 4.143 3.358 7.5 7.5 7.5h2.602v15.305h-12.704c-4.142 0-7.5 3.357-7.5 7.5v43.008h-83.415c-4.142 0-7.5 3.357-7.5 7.5v158.701c0 4.143 3.358 7.5 7.5 7.5s7.5-3.357 7.5-7.5v-64.329h45.61v200.596c0 4.143 3.358 7.5 7.5 7.5h161.626c4.143 0 7.5-3.357 7.5-7.5v-200.596h45.606v223.4h-267.842v-123.821c0-4.143-3.358-7.5-7.5-7.5s-7.5 3.357-7.5 7.5v131.321c0 4.143 3.358 7.5 7.5 7.5h282.846c4.143 0 7.5-3.357 7.5-7.5v-270.578c0-4.143-3.357-7.5-7.5-7.5s-7.5 3.357-7.5 7.5v24.678h-45.609v-49.067c0-4.143-3.357-7.5-7.5-7.5h-161.627c-4.142 0-7.5 3.357-7.5 7.5v49.067h-45.61v-71.872h267.846v12.022c0 4.143 3.357 7.5 7.5 7.5zm-68.11 10.782v249.663h-146.626v-249.663zm-96.118-111.117h45.609v15.305h-45.609zm-20.203 30.305h86.016v35.508h-86.016z"/><path d="m250.425 311.525c1.422 1.58 3.449 2.482 5.575 2.482s4.152-.902 5.574-2.482l45.457-50.508c2.271-2.523 2.564-6.259.714-9.104l-13.132-20.203c-1.383-2.129-3.749-3.413-6.288-3.413h-64.65c-2.539 0-4.905 1.284-6.288 3.412l-13.132 20.203c-1.851 2.847-1.558 6.582.713 9.105zm-22.68-68.228h56.51l7.776 11.964-36.031 40.036-36.032-40.035z"/></g></g></svg>