<?xml version="1.0" encoding="UTF-8" standalone="no"?>
<!-- Created with Inkscape (http://www.inkscape.org/) -->

<svg
   version="1.1"
   id="svg3258"
   xml:space="preserve"
   width="682.66669"
   height="682.66669"
   viewBox="0 0 682.66669 682.66669"
   xmlns="http://www.w3.org/2000/svg"
   xmlns:svg="http://www.w3.org/2000/svg"><defs
     id="defs3262"><clipPath
       clipPathUnits="userSpaceOnUse"
       id="clipPath3272"><path
         d="M 0,512 H 512 V 0 H 0 Z"
         id="path3270" /></clipPath></defs><g
     id="g3264"
     transform="matrix(1.3333333,0,0,-1.3333333,0,682.66667)"><g
       id="g3266"><g
         id="g3268"
         clip-path="url(#clipPath3272)"><g
           id="g3274"
           transform="translate(39.939,366.542)"><path
             d="m 0,0 h 106.851 v 31.883 c 0,10.055 -8.151,18.206 -18.205,18.206 H 18.206 C 8.151,50.089 0,41.938 0,31.883 Z"
             style="fill:#8d9ca8;fill-opacity:1;fill-rule:nonzero;stroke:none"
             id="path3276" /></g><g
           id="g3278"
           transform="translate(128.5845,416.6309)"><path
             d="m 0,0 h -32.582 c 10.055,0 18.207,-8.151 18.207,-18.206 v -31.883 h 32.581 v 31.883 C 18.206,-8.151 10.055,0 0,0"
             style="fill:#7a8d98;fill-opacity:1;fill-rule:nonzero;stroke:none"
             id="path3280" /></g><path
           d="m 76.251,475.515 h 34.226 V 416.631 H 76.251 Z"
           style="fill:#c8effe;fill-opacity:1;fill-rule:nonzero;stroke:none"
           id="path3282" /><path
           d="m 90.551,416.631 h 19.927 v 58.884 H 90.551 Z"
           style="fill:#a0ecf9;fill-opacity:1;fill-rule:nonzero;stroke:none"
           id="path3284" /><g
           id="g3286"
           transform="translate(191.1694,451.5547)"><path
             d="m 0,0 -26.114,23.957 h -118.625 c -3.585,0 -6.491,2.906 -6.491,6.491 v 16.006 c 0,3.585 2.906,6.491 6.491,6.491 h 124.266 c 3.629,0 7.125,-1.361 9.798,-3.813 l 30.271,-27.77 c 2.642,-2.424 2.819,-6.53 0.396,-9.172 L 9.171,0.396 C 6.748,-2.247 2.642,-2.423 0,0"
             style="fill:#c8effe;fill-opacity:1;fill-rule:nonzero;stroke:none"
             id="path3288" /></g><g
           id="g3290"
           transform="translate(210.7656,472.9165)"><path
             d="m 0,0 -30.271,27.77 c -2.673,2.453 -6.169,3.813 -9.798,3.813 h -19.927 c 3.629,0 7.125,-1.36 9.798,-3.813 L -19.927,0 c 2.642,-2.424 2.819,-6.53 0.396,-9.172 l -2.852,-3.154 c -1.278,-1.394 -3.025,-2.094 -4.778,-2.096 l 7.565,-6.94 c 2.641,-2.423 6.748,-2.246 9.171,0.396 L 0.396,-9.172 C 2.819,-6.53 2.642,-2.424 0,0"
             style="fill:#a0ecf9;fill-opacity:1;fill-rule:nonzero;stroke:none"
             id="path3292" /></g><g
           id="g3294"
           transform="translate(166.9673,347.5825)"><path
             d="m 0,0 v -321.119 c 0,-10.47 -8.493,-18.964 -18.964,-18.964 h -109.275 c -10.471,0 -18.965,8.494 -18.965,18.964 V 0 c 0,10.47 8.494,18.964 18.965,18.964 H -18.964 C -8.493,18.964 0,10.47 0,0"
             style="fill:#c8effe;fill-opacity:1;fill-rule:nonzero;stroke:none"
             id="path3296" /></g><g
           id="g3298"
           transform="translate(345.207,294.6177)"><path
             d="m 0,0 v -265.231 c 0,-10.471 -8.493,-18.964 -18.964,-18.964 h -109.275 c -10.471,0 -18.964,8.493 -18.964,18.964 V 0 c 0,10.47 8.493,18.964 18.964,18.964 H -18.964 C -8.493,18.964 0,10.47 0,0"
             style="fill:#c8effe;fill-opacity:1;fill-rule:nonzero;stroke:none"
             id="path3300" /></g><g
           id="g3302"
           transform="translate(345.21,294.6201)"><path
             d="m 0,0 v -265.23 c 0,-10.47 -8.5,-18.97 -18.97,-18.97 h -51.21 c 10.47,0 18.96,8.5 18.96,18.97 V 0 c 0,10.47 -8.49,18.96 -18.96,18.96 h 51.21 C -8.5,18.96 0,10.47 0,0"
             style="fill:#a0ecf9;fill-opacity:1;fill-rule:nonzero;stroke:none"
             id="path3304" /></g><g
           id="g3306"
           transform="translate(148.0034,366.5464)"><path
             d="m 0,0 h -52.582 c 10.471,0 18.965,-8.494 18.965,-18.964 v -321.119 c 0,-10.47 -8.494,-18.963 -18.965,-18.963 H 0 c 10.471,0 18.964,8.493 18.964,18.963 V -18.964 C 18.964,-8.494 10.471,0 0,0"
             style="fill:#a0ecf9;fill-opacity:1;fill-rule:nonzero;stroke:none"
             id="path3308" /></g><path
           d="M 166.967,220.785 H 19.763 v 56.045 h 147.204 z"
           style="fill:#62dbfb;fill-opacity:1;fill-rule:nonzero;stroke:none"
           id="path3310" /><path
           d="m 114.386,220.785 h 52.581 v 56.045 h -52.581 z"
           style="fill:#01d0fb;fill-opacity:1;fill-rule:nonzero;stroke:none"
           id="path3312" /><g
           id="g3314"
           transform="translate(438.9253,44.4263)"><path
             d="m 0,0 h -187.611 c -11.449,0 -20.729,9.281 -20.729,20.729 v 0.661 c 0,30.357 24.609,54.966 54.966,54.966 h 119.137 c 30.357,0 54.966,-24.609 54.966,-54.966 V 20.729 C 20.729,9.281 11.449,0 0,0"
             style="fill:#62dbfb;fill-opacity:1;fill-rule:nonzero;stroke:none"
             id="path3316" /></g><g
           id="g3318"
           transform="translate(404.688,120.7827)"><path
             d="M 0,0 H -47.581 C -17.224,0 7.385,-24.609 7.385,-54.966 v -0.661 c 0,-11.449 -9.281,-20.729 -20.729,-20.729 h 47.582 c 11.448,0 20.729,9.28 20.729,20.729 v 0.661 C 54.967,-24.609 30.357,0 0,0"
             style="fill:#01d0fb;fill-opacity:1;fill-rule:nonzero;stroke:none"
             id="path3320" /></g><g
           id="g3322"
           transform="translate(477.1963,44.4263)"><path
             d="m 0,0 h -264.152 c -8.307,0 -15.04,-6.734 -15.04,-15.04 v -6.727 c 0,-8.307 6.733,-15.04 15.04,-15.04 H 0 c 8.306,0 15.04,6.733 15.04,15.04 v 6.727 C 15.04,-6.734 8.306,0 0,0"
             style="fill:#8d9ca8;fill-opacity:1;fill-rule:nonzero;stroke:none"
             id="path3324" /></g><g
           id="g3326"
           transform="translate(477.1963,44.4263)"><path
             d="m 0,0 h -52.582 c 8.307,0 15.04,-6.734 15.04,-15.04 v -6.727 c 0,-8.307 -6.733,-15.04 -15.04,-15.04 H 0 c 8.306,0 15.04,6.733 15.04,15.04 v 6.727 C 15.04,-6.734 8.306,0 0,0"
             style="fill:#7a8d98;fill-opacity:1;fill-rule:nonzero;stroke:none"
             id="path3328" /></g><g
           id="g3330"
           transform="translate(326.2432,313.5815)"><path
             d="m 0,0 h -109.275 v 23.801 c 0,7.494 6.074,13.569 13.568,13.569 h 82.138 C -6.075,37.37 0,31.295 0,23.801 Z"
             style="fill:#62dbfb;fill-opacity:1;fill-rule:nonzero;stroke:none"
             id="path3332" /></g><g
           id="g3334"
           transform="translate(326.2402,337.3799)"><path
             d="M 0,0 V -23.8 H -50 V 0 c 0,7.5 -6.07,13.57 -13.57,13.57 h 50 C -6.07,13.57 0,7.5 0,0"
             style="fill:#01d0fb;fill-opacity:1;fill-rule:nonzero;stroke:none"
             id="path3336" /></g><g
           id="g3338"
           transform="translate(315.5293,220.7852)"><path
             d="m 0,0 c 0,-24.258 -19.666,-43.924 -43.924,-43.924 -24.258,0 -43.924,19.666 -43.924,43.924 0,24.259 19.666,43.924 43.924,43.924 C -19.666,43.924 0,24.259 0,0"
             style="fill:#8d9ca8;fill-opacity:1;fill-rule:nonzero;stroke:none"
             id="path3340" /></g><g
           id="g3342"
           transform="translate(315.5303,220.79)"><path
             d="m 0,0 c 0,-24.26 -19.67,-43.93 -43.92,-43.93 -6.69,0 -13.03,1.5 -18.7,4.17 14.91,7.03 25.23,22.19 25.23,39.76 0,17.56 -10.32,32.73 -25.23,39.75 5.67,2.67 12.01,4.17 18.7,4.17 C -19.67,43.92 0,24.25 0,0"
             style="fill:#7a8d98;fill-opacity:1;fill-rule:nonzero;stroke:none"
             id="path3344" /></g><g
           id="g3346"
           transform="translate(403.1929,434.8486)"><path
             d="m 0,0 h -16.946 v 16.946 c 0,7.585 -6.149,13.735 -13.735,13.735 -7.585,0 -13.735,-6.15 -13.735,-13.735 V 0 h -16.945 c -7.586,0 -13.735,-6.149 -13.735,-13.735 0,-7.585 6.149,-13.735 13.735,-13.735 h 16.945 v -16.946 c 0,-7.585 6.15,-13.734 13.735,-13.734 7.586,0 13.735,6.149 13.735,13.734 V -27.47 H 0 c 7.585,0 13.735,6.15 13.735,13.735 C 13.735,-6.149 7.585,0 0,0"
             style="fill:#62dbfb;fill-opacity:1;fill-rule:nonzero;stroke:none"
             id="path3348" /></g><g
           id="g3350"
           transform="translate(370.7905,451.4067)"><path
             d="m 0,0 v -10.693 c 0,-3.24 2.626,-5.865 5.865,-5.865 h 9.592 V 0.388 c 0,7.585 -6.15,13.735 -13.735,13.735 -2.893,0 -5.574,-0.9 -7.788,-2.427 C -2.387,9.125 0,4.784 0,0"
             style="fill:#01d0fb;fill-opacity:1;fill-rule:nonzero;stroke:none"
             id="path3352" /></g><g
           id="g3354"
           transform="translate(370.7905,401.5137)"><path
             d="m 0,0 v -11.081 c 0,-4.72 -2.39,-8.872 -6.017,-11.345 2.204,-1.506 4.868,-2.389 7.739,-2.389 7.585,0 13.735,6.149 13.735,13.734 V 5.865 H 5.865 C 2.626,5.865 0,3.239 0,0"
             style="fill:#01d0fb;fill-opacity:1;fill-rule:nonzero;stroke:none"
             id="path3356" /></g><g
           id="g3358"
           transform="translate(403.1929,434.8486)"><path
             d="m 0,0 h -15.844 c 7.395,0 13.759,-5.684 14.107,-13.071 0.371,-7.887 -5.914,-14.399 -13.72,-14.399 H 0 c 7.585,0 13.735,6.15 13.735,13.735 C 13.735,-6.149 7.585,0 0,0"
             style="fill:#01d0fb;fill-opacity:1;fill-rule:nonzero;stroke:none"
             id="path3360" /></g><g
           id="g3362"
           transform="translate(39.939,366.542)"><path
             d="m 0,0 h 106.851 v 31.883 c 0,10.055 -8.151,18.206 -18.205,18.206 H 18.206 C 8.151,50.089 0,41.938 0,31.883 Z"
             style="fill:none;stroke:#000000;stroke-width:15;stroke-linecap:round;stroke-linejoin:round;stroke-miterlimit:10;stroke-dasharray:none;stroke-opacity:1"
             id="path3364" /></g><path
           d="m 76.251,475.515 h 34.226 V 416.631 H 76.251 Z"
           style="fill:none;stroke:#000000;stroke-width:15;stroke-linecap:round;stroke-linejoin:round;stroke-miterlimit:10;stroke-dasharray:none;stroke-opacity:1"
           id="path3366" /><g
           id="g3368"
           transform="translate(191.1694,451.5547)"><path
             d="m 0,0 -26.114,23.957 h -118.625 c -3.585,0 -6.491,2.906 -6.491,6.491 v 16.006 c 0,3.585 2.906,6.491 6.491,6.491 h 124.266 c 3.629,0 7.125,-1.361 9.798,-3.813 l 30.271,-27.77 c 2.642,-2.424 2.819,-6.53 0.396,-9.172 L 9.171,0.396 C 6.748,-2.247 2.642,-2.423 0,0 Z"
             style="fill:none;stroke:#000000;stroke-width:15;stroke-linecap:round;stroke-linejoin:round;stroke-miterlimit:10;stroke-dasharray:none;stroke-opacity:1"
             id="path3370" /></g><g
           id="g3372"
           transform="translate(19.7637,220.7852)"><path
             d="m 0,0 v 126.797 c 0,10.471 8.494,18.964 18.964,18.964 H 128.24 c 10.47,0 18.964,-8.493 18.964,-18.964 v -321.118 c 0,-10.471 -8.494,-18.964 -18.964,-18.964 H 18.964 C 8.494,-213.285 0,-204.792 0,-194.321 v 158.964"
             style="fill:none;stroke:#000000;stroke-width:15;stroke-linecap:round;stroke-linejoin:round;stroke-miterlimit:10;stroke-dasharray:none;stroke-opacity:1"
             id="path3374" /></g><path
           d="M 166.967,220.785 H 19.763 v 56.045 h 147.204 z"
           style="fill:none;stroke:#000000;stroke-width:15;stroke-linecap:round;stroke-linejoin:round;stroke-miterlimit:10;stroke-dasharray:none;stroke-opacity:1"
           id="path3376" /><g
           id="g3378"
           transform="translate(438.9253,44.4263)"><path
             d="m 0,0 h -187.611 c -11.449,0 -20.729,9.281 -20.729,20.729 v 0.661 c 0,30.357 24.609,54.966 54.966,54.966 h 119.137 c 30.357,0 54.966,-24.609 54.966,-54.966 V 20.729 C 20.729,9.281 11.449,0 0,0 Z"
             style="fill:none;stroke:#000000;stroke-width:15;stroke-linecap:round;stroke-linejoin:round;stroke-miterlimit:10;stroke-dasharray:none;stroke-opacity:1"
             id="path3380" /></g><g
           id="g3382"
           transform="translate(477.1963,44.4263)"><path
             d="m 0,0 h -264.152 c -8.307,0 -15.04,-6.734 -15.04,-15.04 v -6.727 c 0,-8.307 6.733,-15.04 15.04,-15.04 H 0 c 8.306,0 15.04,6.733 15.04,15.04 v 6.727 C 15.04,-6.734 8.306,0 0,0 Z"
             style="fill:none;stroke:#000000;stroke-width:15;stroke-linecap:round;stroke-linejoin:round;stroke-miterlimit:10;stroke-dasharray:none;stroke-opacity:1"
             id="path3384" /></g><g
           id="g3386"
           transform="translate(198.0039,29.3862)"><path
             d="m 0,0 v 265.231 c 0,10.471 8.493,18.964 18.964,18.964 h 109.275 c 10.471,0 18.964,-8.493 18.964,-18.964 V 124.369"
             style="fill:none;stroke:#000000;stroke-width:15;stroke-linecap:round;stroke-linejoin:round;stroke-miterlimit:10;stroke-dasharray:none;stroke-opacity:1"
             id="path3388" /></g><g
           id="g3390"
           transform="translate(326.2432,313.5815)"><path
             d="m 0,0 h -109.275 v 23.801 c 0,7.494 6.074,13.569 13.568,13.569 h 82.138 C -6.075,37.37 0,31.295 0,23.801 Z"
             style="fill:none;stroke:#000000;stroke-width:15;stroke-linecap:round;stroke-linejoin:round;stroke-miterlimit:10;stroke-dasharray:none;stroke-opacity:1"
             id="path3392" /></g><g
           id="g3394"
           transform="translate(265.0757,214.2559)"><path
             d="M 0,0 13.06,13.059"
             style="fill:none;stroke:#000000;stroke-width:15;stroke-linecap:round;stroke-linejoin:round;stroke-miterlimit:10;stroke-dasharray:none;stroke-opacity:1"
             id="path3396" /></g><g
           id="g3398"
           transform="translate(315.5293,220.7852)"><path
             d="m 0,0 c 0,-24.258 -19.666,-43.924 -43.924,-43.924 -24.258,0 -43.924,19.666 -43.924,43.924 0,24.259 19.666,43.924 43.924,43.924 C -19.666,43.924 0,24.259 0,0 Z"
             style="fill:none;stroke:#000000;stroke-width:15;stroke-linecap:round;stroke-linejoin:round;stroke-miterlimit:10;stroke-dasharray:none;stroke-opacity:1"
             id="path3400" /></g><g
           id="g3402"
           transform="translate(469.4316,504.5)"><path
             d="M 0,0 V -31.292"
             style="fill:none;stroke:#000000;stroke-width:15;stroke-linecap:round;stroke-linejoin:round;stroke-miterlimit:10;stroke-dasharray:none;stroke-opacity:1"
             id="path3404" /></g><g
           id="g3406"
           transform="translate(485.0776,488.854)"><path
             d="M 0,0 H -31.292"
             style="fill:none;stroke:#000000;stroke-width:15;stroke-linecap:round;stroke-linejoin:round;stroke-miterlimit:10;stroke-dasharray:none;stroke-opacity:1"
             id="path3408" /></g><g
           id="g3410"
           transform="translate(403.1929,434.8486)"><path
             d="m 0,0 h -16.946 v 16.946 c 0,7.585 -6.149,13.735 -13.735,13.735 -7.585,0 -13.735,-6.15 -13.735,-13.735 V 0 h -16.945 c -7.586,0 -13.735,-6.149 -13.735,-13.735 0,-7.585 6.149,-13.735 13.735,-13.735 h 16.945 v -16.946 c 0,-7.585 6.15,-13.734 13.735,-13.734 7.586,0 13.735,6.149 13.735,13.734 V -27.47 H 0 c 7.585,0 13.735,6.15 13.735,13.735 C 13.735,-6.149 7.585,0 0,0 Z"
             style="fill:none;stroke:#000000;stroke-width:15;stroke-linecap:round;stroke-linejoin:round;stroke-miterlimit:10;stroke-dasharray:none;stroke-opacity:1"
             id="path3412" /></g></g></g></g></svg>
