<svg id="Capa_1" enable-background="new 0 0 497 497" height="512" viewBox="0 0 497 497" width="512" xmlns="http://www.w3.org/2000/svg"><path d="m284.901 270.149 22.015-48.432 5.303-37.123-37.123 5.303-48.432 22.015c-6.55 2.977-12.511 7.108-17.599 12.196l-195.548 195.548c-17.449 17.449-18.219 45.877-1.063 63.615 17.525 18.12 46.424 18.303 64.179.549l196.072-196.072c5.088-5.088 9.219-11.049 12.196-17.599z" fill="#fa4087"/><path d="m359.389 146.911-63.64 63.64 21.213 21.213c9.734 9.734 24.844 11.594 36.648 4.512l32.948-19.769z" fill="#fa4087"/><path d="m332.305 214.969 32.948-19.769-5.863-48.289-78.99-36.563-19.769 32.948c-7.083 11.804-5.223 26.914 4.512 36.648l30.514 30.514c9.734 9.734 24.843 11.594 36.648 4.511z" fill="#fa71a3"/><path d="m259.279 89.228-10.607-10.607c-5.834-5.834-5.834-15.38 0-21.213l53.033-53.033c5.834-5.834 15.38-5.834 21.213 0l10.607 10.607-15.91 58.336z" fill="#fa71a3"/><path d="m492.625 195.294-53.033 53.033c-5.834 5.834-15.38 5.834-21.213 0l-10.607-10.607 15.91-58.336 58.336-15.91 10.607 10.607c5.833 5.833 5.833 15.379 0 21.213z" fill="#fa4087"/><path d="m428.985 216.507-21.213 21.213-21.213-21.213 21.213-63.639z" fill="#bbbbc4"/><path d="m450.198 195.294-21.213 21.213-21.213-21.213 21.213-63.64z" fill="#dddde2"/><path d="m280.493 68.015-21.214 21.213 127.28 127.279 31.82-31.82-116.673-116.672z" fill="#dddde2"/><path d="m439.592 163.474-31.82 31.82-127.279-127.279 21.213-21.213h21.213z" fill="#fff"/><path d="m482.018 163.474-31.82 31.82-21.213-21.213-5.303-37.123 37.123 5.303z" fill="#43e6ac"/><path d="m358.755 4.531h45v180h-45z" fill="#28ffa8" transform="matrix(.707 -.707 .707 .707 44.823 297.276)"/><path d="m225.126 271.688c-5.849-5.849-15.365-5.848-21.213 0l-169.706 169.706c-5.848 5.848-5.849 15.364 0 21.213s15.365 5.848 21.213 0l169.706-169.706c5.848-5.848 5.849-15.364 0-21.213z" fill="#f9a3bf"/></svg>