<?xml version="1.0" encoding="iso-8859-1"?>
<!-- Generator: Adobe Illustrator 19.0.0, SVG Export Plug-In . SVG Version: 6.00 Build 0)  -->
<svg xmlns="http://www.w3.org/2000/svg" xmlns:xlink="http://www.w3.org/1999/xlink" version="1.1" id="Capa_1" x="0px" y="0px" viewBox="0 0 512 512" style="enable-background:new 0 0 512 512;" xml:space="preserve" width="512" height="512">
<g>
	<g>
		<path style="fill:#78BAF6;" d="M170.951,174.174H73.713c-12.096,0-21.901,9.805-21.901,21.901v294.024    c0,12.096,9.806,21.901,21.901,21.901h97.238c12.096,0,21.901-9.805,21.901-21.901V196.075    C192.853,183.979,183.047,174.174,170.951,174.174z"/>
		<path style="fill:#1885DA;" d="M170.952,174.174h-26.307c12.096,0,21.901,9.805,21.901,21.901v294.024    c0,12.096-9.806,21.901-21.901,21.901h26.307c12.096,0,21.901-9.805,21.901-21.901V196.075    C192.853,183.979,183.047,174.174,170.952,174.174z"/>
		<path style="fill:#D8E6F0;" d="M101.21,72.759h42.244c4.716,0,8.54,3.823,8.54,8.54v67.414H92.671V81.299    C92.671,76.582,96.494,72.759,101.21,72.759z"/>
		<path style="fill:#AAC0D1;" d="M143.454,72.759h-17.643c4.716,0,8.54,3.823,8.54,8.539v67.414h17.643V81.299    C151.994,76.582,148.171,72.759,143.454,72.759z"/>
		<path style="fill:#AAC0D1;" d="M82.127,148.713h80.411c2.857,0,5.174,2.316,5.174,5.174v20.288H76.953v-20.288    C76.953,151.029,79.27,148.713,82.127,148.713z"/>
		<path style="fill:#8DA5B5;" d="M162.538,148.713h-24.345c2.857,0,5.174,2.316,5.174,5.174v20.288h24.345v-20.288    C167.711,151.029,165.395,148.713,162.538,148.713z"/>
		<path style="fill:#202D4C;" d="M122.332,110.372c-4.267,0-7.726-3.459-7.726-7.726v-0.671c0-4.268,3.459-7.726,7.726-7.726    c4.267,0,7.726,3.459,7.726,7.726v0.671C130.059,106.913,126.6,110.372,122.332,110.372z"/>
		<rect x="51.812" y="256.784" style="fill:#D8E6F0;" width="141.041" height="90.216"/>
		<rect x="166.546" y="256.783" style="fill:#AAC0D1;" width="26.307" height="90.216"/>
	</g>
	<g>
		<path style="fill:#FEE9A1;" d="M439.339,169.904v313.759c0,15.65-12.687,28.337-28.337,28.337H249.317    c-15.65,0-28.337-12.687-28.337-28.337V169.904c0-23.978,19.438-43.415,43.415-43.415h131.529    C419.902,126.489,439.339,145.927,439.339,169.904z"/>
		<path style="fill:#FDCA67;" d="M395.924,126.489h-26.689c23.978,0,43.415,19.438,43.415,43.415v313.759    c0,15.65-12.687,28.337-28.337,28.337h26.689c15.65,0,28.337-12.687,28.337-28.337V169.904    C439.339,145.927,419.902,126.489,395.924,126.489z"/>
		<path style="fill:#D8E6F0;" d="M386.576,99.08v27.409H273.743V99.08c0-3.285,2.663-5.949,5.949-5.949h100.935    C383.913,93.131,386.576,95.795,386.576,99.08z"/>
		<path style="fill:#AAC0D1;" d="M380.627,93.131h-21.376c3.285,0,5.949,2.663,5.949,5.949v27.409h21.376V99.08    C386.576,95.795,383.913,93.131,380.627,93.131z"/>
		<rect x="302.847" y="40.297" style="fill:#AAC0D1;" width="54.625" height="52.834"/>
		<path style="fill:#D8E6F0;" d="M368.249,0L276.43,0c-1.484,0-2.686,1.203-2.686,2.686v34.924c0,1.484,1.203,2.686,2.686,2.686    h179.722c4.124,0,5.585-5.46,2.014-7.52l-28.14-16.235C411.24,5.705,389.935,0,368.249,0z"/>
		<path style="fill:#A49CF5;" d="M330.16,398.944L330.16,398.944c28.809,0,52.163-23.354,52.163-52.163v-55.073    c0-28.809-23.354-52.163-52.163-52.163h0c-28.809,0-52.163,23.354-52.163,52.163v55.073    C277.997,375.59,301.351,398.944,330.16,398.944z"/>
	</g>
	<g>
		<path style="fill:#D8E6F0;" d="M144.767,366.919h138.958c25.645,0,46.435,20.789,46.435,46.435v76.612    c0,12.169-9.865,22.034-22.034,22.034h-187.76c-12.169,0-22.034-9.865-22.034-22.034v-76.612    C98.332,387.709,119.121,366.919,144.767,366.919z"/>
		<path style="fill:#AAC0D1;" d="M283.725,366.92h-24.561c25.645,0,46.435,20.789,46.435,46.435v76.612    c0,12.169-9.865,22.034-22.034,22.034h24.561c12.169,0,22.034-9.865,22.034-22.034v-76.612    C330.16,387.709,309.37,366.92,283.725,366.92z"/>
		<path style="fill:#FF7870;" d="M283.725,366.919H144.767c-25.645,0-46.435,20.789-46.435,46.435v11.686H330.16v-11.686    C330.16,387.709,309.37,366.919,283.725,366.919z"/>
		<path style="fill:#D7352E;" d="M283.725,366.92h-24.561c25.645,0,46.435,20.789,46.435,46.435v11.686h24.561v-11.686    c0-7.213-1.645-14.042-4.579-20.132C318.081,377.659,302.157,366.92,283.725,366.92z"/>
	</g>
</g>















</svg>
