<?xml version="1.0" encoding="iso-8859-1"?>
<!-- Generator: Adobe Illustrator 19.0.0, SVG Export Plug-In . SVG Version: 6.00 Build 0)  -->
<svg xmlns="http://www.w3.org/2000/svg" xmlns:xlink="http://www.w3.org/1999/xlink" version="1.1" id="Capa_1" x="0px" y="0px" viewBox="0 0 511.983 511.983" style="enable-background:new 0 0 511.983 511.983;" xml:space="preserve" width="512" height="512">
<g>
	<path style="fill:#BCD4E2;" d="M11.867,109.549c3.96-2.64,9.244-2.056,12.532,1.384l4.984,5.216   c9.503,9.943,22.781,15.383,36.528,14.965l5.872-0.178c17.232-0.523,25.57-10.061,40.538-18.241h89.64h18.292h242.357   c25.509,0,46.597,22.446,40.956,49.857c-4.609,22.395-24.862,38.134-47.726,38.134H243.908c-23.166,0-41.946-18.78-41.946-41.946   v-2.556h-89.64H62.515c-16.123,0-31.43-7.086-41.863-19.377L9.83,124.057C6.034,119.585,6.986,112.803,11.867,109.549z"/>
	<path style="fill:#D8E6F0;" d="M498.89,133.096c-2.596,24.264-23.701,42.515-48.408,42.515   c-254.073-0.126-240.017,0.3-245.126-0.331c6.418,14.94,21.262,25.405,38.553,25.405h211.933   C493.1,200.685,515.614,161.258,498.89,133.096z"/>
	<path style="fill:#606572;" d="M81.022,115.526c4.183,95.509,137.27,291.517,324.375,308.305l0.022,0.002   c22.511,2.02,42.398-14.592,44.417-37.103c2.068-23.052-15.559-43.958-39.878-44.572   c-149.898-3.232-268.555-164.98-276.232-229.878l-0.119-1.01c-1.712-14.478-14.837-24.826-29.315-23.114   C90.499,89.788,80.459,101.875,81.022,115.526z"/>
	<path style="fill:#3B4254;" d="M411.967,397.833l-0.022-0.002C229.238,381.437,98.04,194.151,88.077,96.425   c-4.66,5.036-7.354,11.848-7.056,19.101c4.183,95.509,137.27,291.517,324.375,308.305l0.022,0.002   c25.347,2.274,46.618-18.895,44.417-44.298C441.816,391.727,427.52,399.228,411.967,397.833z"/>
	<circle style="fill:#FEE9A1;" cx="409.003" cy="382.555" r="12.256"/>
	<g>
		<path d="M462.607,105.194H140.026c-4.424-15.779-19.83-26.471-36.62-24.488c-17.48,2.066-30.607,17.495-29.883,35.143    c0.104,2.394,0.293,4.876,0.555,7.418c-0.838,0.085-1.678,0.148-2.521,0.171l-5.88,0.18c-11.595,0.35-22.853-4.258-30.879-12.655    l-4.981-5.211c-5.816-6.082-15.115-7.111-22.117-2.443c-4.102,2.74-6.848,7.113-7.533,11.998    c-0.685,4.883,0.751,9.839,3.941,13.601l10.822,12.753c11.89,13.997,29.235,22.025,47.586,22.025h20.705    c17.365,52.339,61.421,127.505,135.585,187.771c3.214,2.612,7.938,2.124,10.55-1.091c2.612-3.215,2.124-7.938-1.09-10.55    c-31.798-25.839-61.207-57.71-85.047-92.167c-25.197-36.419-52.845-89.49-54.709-132.431c-0.404-9.847,6.913-18.463,16.656-19.614    c10.352-1.226,19.77,6.197,20.993,16.547l0.12,1.01c1.953,15.625,8.589,32.158,15.664,46.367c0,0,0,0,0,0.001l0,0v0    c21.372,42.944,59.028,88.775,100.731,122.599c66.92,54.276,127.818,66.679,167.092,67.526c31.375,0.8,44,39.64,20.737,59.074    c-6.853,5.724-15.52,8.44-24.416,7.639c-0.051-0.004-0.103-0.008-0.155-0.012c-53.155-4.795-104.938-24.521-153.908-58.633    c-3.399-2.367-8.074-1.531-10.441,1.868s-1.531,8.073,1.868,10.441c55.446,38.621,113.823,58.005,161.441,61.289    c43.548,3.783,69.368-47.886,40.308-80.498c-8.978-10.076-21.426-15.816-35.08-16.164c-66.964-1.444-122.88-35.699-157.997-64.181    c-36.611-29.694-69.926-68.91-91.025-106.791h33.604c2.492,24.95,23.608,44.5,49.204,44.5h0h0c26.34,0,185.419,0,211.933,0    c26.673,0,49.82-18.604,55.073-44.117C517.417,132.498,493.408,105.194,462.607,105.194z M26.365,131.951    c-9.874-12.286-11.627-12.533-11.342-14.563c0.166-1.187,1.172-1.99,2.277-1.99c1.692,0,1.955,1.316,6.655,5.928    c14.001,14.648,32.347,19.134,52.398,16.79c0.528,2.642,1.467,6.85,2.428,10.568C78.781,148.684,45.189,154.11,26.365,131.951z     M243.907,193.184c-9.484,0-18.084-3.852-24.319-10.074h72.161c4.143,0,7.5-3.358,7.5-7.5s-3.357-7.5-7.5-7.5h-80.984    c-1.702-6.005-1.225-10.328-1.308-11.926c0-4.142-3.358-7.5-7.5-7.5h-48.599c-4.263-9.022-8.209-18.875-10.553-28.49h319.802    c11.713,0,22.231,5.701,28.464,14.595c-0.068,0.393-0.132,0.787-0.212,1.175c-3.834,18.627-20.816,32.146-40.381,32.146H322.998    c-4.143,0-7.5,3.358-7.5,7.5s3.357,7.5,7.5,7.5h127.481c18.717,0,35.713-9.153,45.996-23.461    c-2.155,12.789-10.438,23.273-21.54,28.944c-0.089,0.046-0.176,0.095-0.266,0.14c-0.067,0.034-0.136,0.064-0.203,0.097    c-5.636,2.79-11.983,4.354-18.63,4.354H243.907z"/>
		<path d="M99.434,115.688c0,4.142,3.358,7.5,7.5,7.5h0.012c4.142,0,7.494-3.358,7.494-7.5s-3.364-7.5-7.506-7.5    S99.434,111.545,99.434,115.688z"/>
		<path d="M428.757,382.555c0-10.894-8.862-19.756-19.756-19.756s-19.756,8.863-19.756,19.756s8.862,19.756,19.756,19.756    S428.757,393.448,428.757,382.555z M404.245,382.555c0-2.623,2.134-4.756,4.756-4.756s4.756,2.134,4.756,4.756    s-2.134,4.756-4.756,4.756S404.245,385.177,404.245,382.555z"/>
	</g>
</g>















</svg>
