<svg id="Capa_1" enable-background="new 0 0 512 512" height="512" viewBox="0 0 512 512" width="512" xmlns="http://www.w3.org/2000/svg"><g><path d="m307.15 408.058h-283.523v-131.839c0-3.866 3.134-7 7-7h79.781l15.453-10.95h126.215l16.976 10.95h31.097c3.866 0 7 3.134 7 7v131.839z" fill="#e9f5ff"/><path d="m23.627 276.219v131.839h61.811v-138.839h-7.308l-7.726 3.972-7.726-3.972h-32.051c-3.866 0-7 3.134-7 7z" fill="#cfe8f9"/><path d="m404.939 157.631c-8.735 0-15.841-7.106-15.841-15.841 0-2.792-2.263-5.056-5.056-5.056h-.084c-2.792 0-5.056 2.263-5.056 5.056 0 8.735-7.106 15.841-15.841 15.841-2.792 0-5.056 2.263-5.056 5.056v.084c0 2.792 2.263 5.056 5.056 5.056 8.735 0 15.841 7.106 15.841 15.841 0 2.792 2.263 5.056 5.056 5.056h.084c2.792 0 5.056-2.263 5.056-5.056 0-8.735 7.106-15.841 15.841-15.841 2.793 0 5.056-2.263 5.056-5.056v-.084c0-2.793-2.264-5.056-5.056-5.056z" fill="#ffe177"/><path d="m212.939 93.631c-8.735 0-15.841-7.106-15.841-15.841 0-2.792-2.263-5.056-5.056-5.056h-.084c-2.792 0-5.056 2.263-5.056 5.056 0 8.735-7.106 15.841-15.841 15.841-2.792 0-5.056 2.263-5.056 5.056v.084c0 2.792 2.263 5.056 5.056 5.056 8.735 0 15.841 7.106 15.841 15.841 0 2.792 2.263 5.056 5.056 5.056h.084c2.792 0 5.056-2.263 5.056-5.056 0-8.735 7.106-15.841 15.841-15.841 2.792 0 5.056-2.263 5.056-5.056v-.084c0-2.793-2.264-5.056-5.056-5.056z" fill="#ffe177"/><path d="m425.284 344.758-94.508 47.254h-307.149c-13.049 0-23.627 10.578-23.627 23.627s10.578 23.627 23.627 23.627h307.15l94.508-47.254 18.369-23.627z" fill="#f8c146"/><g><path d="m61.811 415.639c0-13.049 10.578-23.627 23.627-23.627h-61.811c-13.049 0-23.627 10.578-23.627 23.627s10.578 23.627 23.627 23.627h61.811c-13.049 0-23.627-10.578-23.627-23.627z" fill="#edad2e"/></g><path d="m425.284 344.758h86.716v47.254h-86.716z" fill="#f8c146"/><path d="m62.678 322.728c0 4.267 3.459 7.726 7.726 7.726s7.726-3.459 7.726-7.726v-53.51h-15.452z" fill="#a4cff7"/><g fill="#cfe8f9"><path d="m110.408 322.728c0 4.267 3.459 7.726 7.726 7.726s7.726-3.459 7.726-7.726v-53.51l-7.726-5.229-7.726 5.229z"/><path d="m158.139 322.728c0 4.267 3.459 7.726 7.726 7.726s7.726-3.459 7.726-7.726v-53.51l-7.726-5.229-7.726 5.229z"/><path d="m205.869 322.728c0 4.267 3.459 7.726 7.726 7.726s7.726-3.459 7.726-7.726v-53.51l-7.726-5.229-7.726 5.229z"/><path d="m253.6 322.728c0 4.267 3.459 7.726 7.726 7.726s7.726-3.459 7.726-7.726v-53.51l-7.726-5.229-7.726 5.229z"/></g><path d="m270.576 196.071h-163.055c-23.464 0-40.031-22.088-34.875-43.627 1.232-5.148-3.409-9.819-8.526-8.464-4.562 1.208-9.04 3.034-13.322 5.509-17.261 9.979-26.982 27.992-27.169 46.582h-.003v3.657c0 38.379 31.112 69.491 69.491 69.491h177.458c20.199 0 36.574-16.375 36.574-36.574.001-20.199-16.374-36.574-36.573-36.574z" fill="#9be69d"/><path d="m75.136 199.728v-3.657h.003c.055-5.442.949-10.828 2.588-15.985-5.379-8.093-7.4-18.028-5.061-27.715 1.234-5.113-3.46-9.738-8.545-8.392-4.562 1.208-9.04 3.034-13.322 5.509-17.261 9.979-26.982 27.993-27.169 46.582h-.003v3.657c0 38.379 31.112 69.491 69.491 69.491h51.509c-38.378.001-69.491-31.112-69.491-69.49z" fill="#6fd7a3"/></g></svg>