<svg id="Capa_1" enable-background="new 0 0 511.996 511.996" height="512" viewBox="0 0 511.996 511.996" width="512" xmlns="http://www.w3.org/2000/svg"><g><g><path d="m193.936 137.3h-.125c0-17.121-13.879-31-31-31v-.125c17.121 0 31-13.879 31-31h.125c0 17.121 13.879 31 31 31v.125c-17.121 0-31 13.879-31 31z" fill="#ffe177"/><path d="m380.309 199.424h-.125c0-17.121-13.879-31-31-31v-.124c17.121 0 31-13.879 31-31h.125c0 17.121 13.879 31 31 31v.125c-17.12-.001-31 13.878-31 30.999z" fill="#ffe177"/><g><path d="m420.321 345.057-91.738 45.869h-298.148c-12.666 0-22.934 10.268-22.934 22.934 0 12.666 10.268 22.934 22.934 22.934h298.149l91.738-45.869v-45.868z" fill="#f8c146"/><g><path d="m67.5 413.861c0-12.667 10.268-22.935 22.935-22.935h-60c-12.666 0-22.935 10.268-22.935 22.935 0 12.666 10.268 22.934 22.935 22.934h60c-12.667.001-22.935-10.268-22.935-22.934z" fill="#edad2e"/></g><path d="m30.435 271.732h275.214v119.195h-275.214z" fill="#e9f5ff"/><path d="m30.435 271.731h60v119.195h-60z" fill="#cfe8f9"/><path d="m270.147 200.727h-158.276c-26.599 0-43.518-28.913-30.022-51.834.092-.156.184-.311.278-.466-8.622.172-17.323 2.462-25.317 7.083-16.755 9.686-26.191 27.172-26.373 45.217h-.003v3.55c0 37.254 30.2 67.455 67.455 67.455h172.258c19.607 0 35.502-15.895 35.502-35.502 0-19.608-15.895-35.503-35.502-35.503z" fill="#9be69d"/><path d="m80.435 204.277v-3.55h.003c.053-5.283.921-10.511 2.512-15.516-6.859-10.32-8.258-24.161-1.1-36.318.092-.156.184-.311.278-.466-8.622.172-17.323 2.462-25.317 7.083-16.755 9.686-26.191 27.172-26.373 45.217h-.003v3.55c0 37.254 30.2 67.454 67.455 67.454h50c-37.255 0-67.455-30.2-67.455-67.454z" fill="#6fd7a3"/><path d="m420.321 345.057h84.175v45.869h-84.175z" fill="#f8c146"/></g></g><g><g><path d="m224.936 98.675c-12.958 0-23.5-10.542-23.5-23.5 0-4.142-3.358-7.5-7.5-7.5h-.125c-4.142 0-7.5 3.358-7.5 7.5 0 12.958-10.542 23.5-23.5 23.5-4.142 0-7.5 3.358-7.5 7.5v.125c0 4.142 3.358 7.5 7.5 7.5 12.958 0 23.5 10.542 23.5 23.5 0 4.142 3.358 7.5 7.5 7.5h.125c4.142 0 7.5-3.358 7.5-7.5 0-12.958 10.542-23.5 23.5-23.5 4.142 0 7.5-3.358 7.5-7.5v-.125c0-4.142-3.358-7.5-7.5-7.5zm-31.062 15.902c-2.338-3.188-5.152-6.001-8.339-8.339 3.188-2.338 6.001-5.152 8.339-8.34 2.338 3.188 5.152 6.001 8.34 8.34-3.188 2.337-6.002 5.151-8.34 8.339z"/><path d="m411.31 160.8c-12.958 0-23.5-10.542-23.5-23.5 0-4.142-3.357-7.5-7.5-7.5h-.125c-4.143 0-7.5 3.358-7.5 7.5 0 12.958-10.542 23.5-23.5 23.5-4.143 0-7.5 3.358-7.5 7.5v.125c0 4.142 3.357 7.5 7.5 7.5 12.958 0 23.5 10.542 23.5 23.5 0 4.142 3.357 7.5 7.5 7.5h.125c4.143 0 7.5-3.358 7.5-7.5 0-12.958 10.542-23.5 23.5-23.5 4.143 0 7.5-3.358 7.5-7.5v-.125c0-4.142-3.358-7.5-7.5-7.5zm-31.063 15.902c-2.338-3.188-5.152-6.002-8.34-8.34 3.188-2.338 6.002-5.152 8.34-8.34 2.338 3.188 5.152 6.002 8.34 8.34-3.188 2.338-6.002 5.152-8.34 8.34z"/></g><path d="m504.496 337.557c-90.74.014-85.273-.34-87.529.792l-90.154 45.077h-13.664v-111.694c0-4.142-3.357-7.5-7.5-7.5h-2.908c6.478-7.53 10.408-17.313 10.408-28.002 0-23.711-19.291-43.002-43.002-43.002h-119.205c-4.142 0-7.5 3.358-7.5 7.5s3.358 7.5 7.5 7.5h119.204c15.44 0 28.002 12.562 28.002 28.002s-12.562 28.002-28.002 28.002h-172.257c-58.688 0-80.792-77.1-37.326-102.229 3.127-1.808 6.454-3.23 9.894-4.245-2.049 9.771-.476 20.045 4.728 29.147 7.632 13.351 21.346 21.322 36.686 21.322h6.385c4.142 0 7.5-3.358 7.5-7.5s-3.358-7.5-7.5-7.5h-6.385c-9.89 0-18.736-5.146-23.664-13.766-4.828-8.446-4.789-18.451.103-26.76l.237-.398c3.047-5.047-.672-11.494-6.57-11.375-10.115.202-20.115 2.999-28.921 8.089-41.889 24.215-38.878 86.079-.1 115.215h-22.521c-4.142 0-7.5 3.358-7.5 7.5v50.603c0 4.142 3.358 7.5 7.5 7.5s7.5-3.358 7.5-7.5v-43.103h30.406v44.441c0 4.142 3.358 7.5 7.5 7.5s7.5-3.358 7.5-7.5v-44.441h31.332v44.441c0 4.142 3.358 7.5 7.5 7.5s7.5-3.358 7.5-7.5v-44.441h31.332v44.441c0 4.142 3.358 7.5 7.5 7.5s7.5-3.358 7.5-7.5v-44.441h31.332v44.441c0 4.142 3.358 7.5 7.5 7.5s7.5-3.358 7.5-7.5v-44.441h31.332v44.441c0 4.142 3.357 7.5 7.5 7.5s7.5-3.358 7.5-7.5v-44.441h29.48v104.195h-260.214v-28.691c0-4.142-3.358-7.5-7.5-7.5s-7.5 3.358-7.5 7.5v29.628c-13.167 3.349-22.935 15.303-22.935 29.497 0 16.782 13.653 30.435 30.435 30.435h248.909c4.143 0 7.5-3.358 7.5-7.5s-3.357-7.5-7.5-7.5h-248.909c-8.511 0-15.435-6.924-15.435-15.435s6.924-15.435 15.435-15.435h298.148c1.164 0 2.312-.271 3.354-.792l80.884-40.442v29.099l-86.009 43.004h-14.782c-4.143 0-7.5 3.358-7.5 7.5s3.357 7.5 7.5 7.5c16.26-.234 17.193.565 19.907-.792l90.154-45.077h82.404c4.143 0 7.5-3.358 7.5-7.5v-45.869c.001-4.142-3.356-7.5-7.499-7.5zm-7.5 45.87h-69.175v-30.869h69.175z"/></g></g></svg>