<svg id="Capa_1" enable-background="new 0 0 512 512" height="512" viewBox="0 0 512 512" width="512" xmlns="http://www.w3.org/2000/svg"><g><path d="m80.744 379.063 12.554 1.004 44.797 45.251v11.097c-6.559 4.397-23.857 12.835-43.33 32.308l-33.676 33.677c-12.801 12.801-33.555 12.801-46.355 0-12.801-12.801-12.801-33.555 0-46.355l33.745-33.745c9.839-9.839 18.489-20.801 25.77-32.658z" fill="#aec7d3"/><path d="m35.338 476.648 33.745-33.745c19.404-19.404 27.805-36.593 32.266-43.236l5.706-5.706-13.755-13.894-12.554-1.004-6.495 10.577c-7.282 11.858-15.931 22.819-25.77 32.658l-33.745 33.745c-17.523 17.523-9.807 46.677 12.717 54.242-3.839-11.422-1.215-24.538 7.885-33.637z" fill="#99bac6"/><path d="m275.541 241.815-34.212-23.336-30.009-8.085-2.346-14.917c22.628-10.11 42.069-26.203 56.229-46.544l89.569-128.67 79.329-19.968c2.381-.599 4.946-.298 7.016 1.024 5.609 3.583 5.267 11.788-.498 14.93l-51.382 28.006-89.569 128.67c-14.16 20.341-22.502 44.16-24.127 68.89z" fill="#4f71b6"/><path d="m285.807 159.235 89.569-128.67 68.361-17.207c2.472-3.817 1.688-9.287-2.62-12.039-2.069-1.322-4.634-1.624-7.016-1.024l-79.329 19.968-89.569 128.67c-14.16 20.341-33.601 36.433-56.229 46.544l2.346 14.917 15.227-2.684c7.521-4.692 35.963-15.008 59.26-48.475z" fill="#3c58a0"/><path d="m80.744 379.063 38.157 3.051 156.64-140.299-66.567-46.338" fill="#3c58a0"/><path d="m249.772 226.922 14.445-.047 34.463 33.636v15.32l-17.487 17.487-7.796 2.838-3.104 8.062-12.002 12.001-7.555 2.598-3.394 8.352-11.99 11.99-8.074 3.116-2.853 7.81-11.999 12-7.773 2.815-3.141 8.099-12.037 12.037-7.7 2.742-3.214 8.172-12.001 12.001-7.591 2.633-3.292 8.25-17.581 17.581-47.393-47.393 4.06-16.72z" fill="#e9f5ff"/><path d="m80.744 379.063 20.604 20.604 17.553-17.553 36.748 36.748 10.926-10.927-36.747-36.747 11.998-11.999 36.748 36.748 10.927-10.927-36.748-36.748 11.999-11.999 36.748 36.748 10.926-10.927-36.747-36.747 11.999-11.999 36.747 36.748 10.927-10.927-36.748-36.748 11.999-11.999 36.748 36.748 10.926-10.927-36.747-36.747 11.999-11.999 36.747 36.747 10.927-10.926-36.748-36.748 24.826-24.826-9.72-9.515-18.232-3.74" fill="#cfe8f9"/><path d="m298.68 275.831-57.351-57.352c24.056-5.961 46.031-18.373 63.556-35.898l110.857-110.857c84.627-4.974 83.54-7.846 88.332-3.42 4.89 4.516 3.106 12.532-3.123 14.608l-55.515 18.505-110.858 110.858c-17.525 17.525-29.936 39.499-35.898 63.556z" fill="#aec7d3"/><path d="m325.488 203.185 110.857-110.858 45.924-3.188 18.681-6.227c6.229-2.076 8.013-10.092 3.123-14.608-4.794-4.428-3.713-1.554-88.332 3.42l-110.857 110.857c-17.525 17.525-39.499 29.937-63.556 35.898l20.604 20.604c24.057-5.962 46.031-18.373 63.556-35.898z" fill="#99bac6"/></g></svg>