<svg id="Capa_1" enable-background="new 0 0 512 512" height="512" viewBox="0 0 512 512" width="512" xmlns="http://www.w3.org/2000/svg"><g><path d="m430.035 211.323c-4.267 0-7.726-3.459-7.726-7.726v-79.279c0-4.267 3.459-7.726 7.726-7.726s7.726 3.459 7.726 7.726v79.279c0 4.267-3.459 7.726-7.726 7.726z" fill="#678d98"/><path d="m489.963 377.178v128.535c0 3.472-2.812 6.284-6.284 6.284h-455.358c-3.472 0-6.284-2.812-6.284-6.284v-128.535z" fill="#678d98"/><path d="m22.037 377.178h467.926v46.873h-467.926z" fill="#537983"/><path d="m489.96 377.181v128.535c0 3.472-2.812 6.284-6.274 6.284h-45.853c3.472 0 6.284-2.812 6.284-6.284v-128.535z" fill="#537983"/><path d="m228.36 377.178h-189.233l16.658-67.528c5.851-23.694 21.871-42.732 42.732-52.92 10.704-5.233 22.695-8.138 35.222-8.138h.01c12.537 0 24.518 2.905 35.222 8.138 20.861 10.188 36.88 29.226 42.732 52.92z" fill="#fd8087"/><path d="m228.36 377.176h-35.222l-16.658-67.528c-5.851-23.694-21.871-42.732-42.732-52.92-5.563-2.72-11.466-4.811-17.616-6.181 5.687-1.277 11.589-1.957 17.606-1.957h.01c12.537 0 24.518 2.905 35.222 8.138 20.861 10.188 36.88 29.226 42.732 52.92z" fill="#fe646f"/><path d="m176.697 260.862v100.659c0 4.265-3.461 7.726-7.726 7.726h-70.455c-4.265 0-7.726-3.461-7.726-7.726v-100.659c0-4.275 3.461-7.726 7.726-7.726s7.726 3.451 7.726 7.726v48.717h55.001v-48.717c0-4.275 3.461-7.726 7.726-7.726 4.266 0 7.728 3.451 7.728 7.726z" fill="#ffe177"/><g fill="#c68d7a"><circle cx="212.093" cy="44.752" r="44.752"/><circle cx="55.398" cy="44.752" r="44.752"/></g><g fill="#bc7c63"><path d="m256.845 44.752c0 24.714-20.037 44.751-44.751 44.751-4.522 0-8.89-.67-13.001-1.916 18.368-5.573 31.75-22.643 31.75-42.835 0-20.191-13.382-37.261-31.75-42.835 4.11-1.247 8.478-1.916 13.001-1.916 24.714 0 44.751 20.037 44.751 44.751z"/><path d="m100.155 44.752c0 24.714-20.037 44.751-44.761 44.751-4.522 0-8.89-.67-13.001-1.916 18.378-5.573 31.75-22.643 31.75-42.835 0-20.191-13.372-37.261-31.75-42.835 4.11-1.247 8.478-1.916 13.001-1.916 24.724 0 44.761 20.037 44.761 44.751z"/></g><path d="m208.091 103.088 8.907 34.523h-166.497v-33.759c0-45.307 36.2-82.167 81.25-83.218.67-.021 1.329-.031 1.999-.031 22.983 0 43.803 9.323 58.864 24.384 15.071 15.062 15.477 35.108 15.477 58.101z" fill="#c68d7a"/><path d="m216.998 103.852v33.759h-47.131c-1.854-60.729-26.239-100.895-38.117-116.976.67-.021 1.329-.031 1.999-.031 22.983 0 43.803 9.323 58.864 24.384 15.072 15.061 24.385 35.87 24.385 58.864z" fill="#bc7c63"/><path d="m237.889 158.503v.01c0 11.538-9.354 20.892-20.892 20.892h-9.436v.051c0 35.799-25.487 65.653-59.307 72.38-4.687.937-9.539 1.432-14.505 1.432-20.387 0-38.838-8.262-52.189-21.623-13.361-13.351-21.623-31.802-21.623-52.189v-.051h-9.436c-11.548 0-20.902-9.354-20.902-20.902 0-5.769 2.339-10.992 6.119-14.773 3.781-3.781 9.014-6.119 14.783-6.119 4.533 0 9.066-.237 13.557-.731 4.512-.484 8.983-1.216 13.413-2.194 21.685-4.801 58.823-16.812 80.694-45.184 0 0 3.07 7.582 8.612 16.73 8.427 13.887 22.571 31.379 40.383 31.379h9.838c11.538 0 20.891 9.354 20.891 20.892z" fill="#ffdfcf"/><path d="m237.889 158.503v.01c0 11.538-9.354 20.892-20.892 20.892h-9.436v.051c0 35.799-25.487 65.653-59.307 72.38 23.086-58.576 24.951-107.54 18.523-145.605 8.427 13.887 22.571 31.379 40.383 31.379h9.838c11.538.001 20.891 9.355 20.891 20.893z" fill="#ffcebf"/><g fill="#537983"><path d="m120.207 177.245c-4.267 0-7.726-3.459-7.726-7.726 0-6.799-5.532-12.331-12.331-12.331-3.294 0-6.39 1.283-8.719 3.612s-3.611 5.425-3.611 8.719c0 4.267-3.459 7.726-7.726 7.727-4.267 0-7.727-3.459-7.727-7.726-.001-7.421 2.889-14.398 8.137-19.646 5.247-5.247 12.225-8.138 19.646-8.138 15.32 0 27.784 12.464 27.784 27.783 0 4.267-3.46 7.726-7.727 7.726z"/><path d="m187.399 177.245c-4.267 0-7.726-3.459-7.726-7.726 0-6.799-5.532-12.331-12.331-12.331s-12.331 5.531-12.331 12.331c0 4.267-3.459 7.726-7.726 7.726s-7.726-3.459-7.726-7.726c0-15.32 12.464-27.783 27.784-27.783s27.784 12.464 27.784 27.783c-.002 4.267-3.461 7.726-7.728 7.726z"/></g><path d="m133.745 212.775c-3.734 0-7.468-.64-11.023-1.919-4.015-1.445-6.098-5.872-4.652-9.887 1.445-4.015 5.869-6.098 9.887-4.652 3.733 1.344 7.845 1.344 11.577 0 4.014-1.445 8.441.638 9.887 4.652 1.445 4.015-.637 8.441-4.652 9.887-3.555 1.28-7.289 1.919-11.024 1.919z" fill="#fd8087"/><path d="m445.409 184.529h-125.125c-8.624 0-15.909 6.402-17.016 14.955l-13.517 104.392 93.096 26.76 93.096-26.76-13.517-104.392c-1.108-8.553-8.392-14.955-17.017-14.955z" fill="#deecf1"/><path d="m475.944 303.875-93.097 26.764-26.496-7.623 66.591-19.141-13.516-104.398c-1.113-8.55-8.396-14.948-17.018-14.948h53.003c8.623 0 15.906 6.397 17.019 14.948z" fill="#cbe5e8"/><path d="m472.841 143.386h-85.613c-7.581 0-13.726-6.145-13.726-13.726v-44.47c0-7.581 6.145-13.726 13.726-13.726h85.613c7.581 0 13.726 6.145 13.726 13.726v44.47c.001 7.58-6.145 13.726-13.726 13.726z" fill="#2abcc8"/><path d="m486.568 85.19v44.462c0 7.582-6.14 13.732-13.722 13.732h-25.95c7.582 0 13.732-6.15 13.732-13.732v-44.462c0-7.582-6.15-13.732-13.732-13.732h25.95c7.582-.001 13.722 6.15 13.722 13.732z" fill="#0cacba"/><path d="m481.661 303.876h-197.63c-8.757 0-15.856 7.099-15.856 15.856v64.411h229.342v-64.411c0-8.757-7.099-15.856-15.856-15.856z" fill="#678d98"/><path d="m497.517 319.732v64.407h-40.207v-64.407c0-8.757-7.098-15.854-15.854-15.854h40.208c8.755 0 15.853 7.098 15.853 15.854z" fill="#537983"/><path d="m505.692 357.397h-499.384c-3.483 0-6.307 2.824-6.307 6.307v26.945c0 3.483 2.824 6.307 6.307 6.307h499.384c3.483 0 6.307-2.824 6.307-6.307v-26.945c0-3.484-2.824-6.307-6.307-6.307z" fill="#2abcc8"/><path d="m511.999 363.699v26.949c0 3.482-2.823 6.305-6.305 6.305h-56.907c3.482 0 6.305-2.823 6.305-6.305v-26.949c0-3.482-2.823-6.305-6.305-6.305h56.907c3.482.001 6.305 2.823 6.305 6.305z" fill="#0cacba"/><path d="m400.958 255.469h-68.667c-5.23 0-9.47-4.24-9.47-9.47v-20.949c0-5.23 4.24-9.47 9.47-9.47h68.667c5.23 0 9.47 4.24 9.47 9.47v20.949c0 5.23-4.24 9.47-9.47 9.47z" fill="#2abcc8"/><path d="m176.697 260.862v49.665l-.216-.876c-2.854-11.569-8.138-22.025-15.236-30.885v-17.905c0-4.275 3.461-7.726 7.726-7.726 4.264.001 7.726 3.452 7.726 7.727z" fill="#fece85"/></g></svg>