<svg id="Capa_1" enable-background="new 0 0 511.994 511.994" height="512" viewBox="0 0 511.994 511.994" width="512" xmlns="http://www.w3.org/2000/svg"><g><g><path d="m313.834 71.337h40.566v58.03h-40.566z" fill="#678d98"/><path d="m418.258 221.867-165.41-30-164.773 30-34.205 125.563 202.127 31.945 196.467-31.945z" fill="#deecf1"/><path d="m452.468 347.427-196.47 31.95-20.47-3.24 176.57-28.71-34.21-125.56-145.19-26.33 20.15-3.67 165.41 30z" fill="#cbe5e8"/><path d="m458.125 347.43h-404.255c-6.838 0-12.857 4.508-14.782 11.069l-5.458 18.61 216.347 34.21 228.389-34.21-5.458-18.61c-1.926-6.561-7.945-11.069-14.783-11.069z" fill="#2abcc8"/><path d="m482.236 377.109h-452.478c-12.293 0-22.258 9.965-22.258 22.258v82.372c0 12.293 9.965 22.258 22.258 22.258h452.478c12.293 0 22.258-9.965 22.258-22.258v-82.372c0-12.293-9.965-22.258-22.258-22.258z" fill="#678d98"/><path d="m504.494 399.369v82.37c0 12.29-9.96 22.26-22.25 22.26h-60.99c12.29 0 22.26-9.97 22.26-22.26v-82.37c0-12.29-9.97-22.26-22.26-22.26h60.99c12.29 0 22.25 9.97 22.25 22.26z" fill="#537983"/><path d="m474.49 425.057v30.99c0 9.91-8.03 17.95-17.95 17.95h-401.09c-9.91 0-17.95-8.04-17.95-17.95v-30.99c0-9.91 8.04-17.95 17.95-17.95h401.09c9.92 0 17.95 8.04 17.95 17.95z" fill="#7ca1b1"/><path d="m474.49 425.057v30.99c0 9.91-8.03 17.95-17.95 17.95h-13.03v-66.89h13.03c9.92 0 17.95 8.04 17.95 17.95z" fill="#678d98"/><path d="m296.774 440.553h-81.554c-9.076 0-17.497-4.725-22.227-12.47l-12.808-20.973h151.623l-12.808 20.973c-4.729 7.745-13.15 12.47-22.226 12.47z" fill="#537983"/><path d="m95.196 309.864 14.597-53.581c.71-2.607 3.078-4.416 5.78-4.416h275.187c2.702 0 5.07 1.809 5.78 4.416l14.596 53.581c1.038 3.811-1.831 7.566-5.78 7.566h-304.379c-3.95 0-6.819-3.755-5.781-7.566z" fill="#7ca1b1"/><path d="m88.075 221.867v-91.022c0-8.515 6.903-15.418 15.418-15.418h299.347c8.515 0 15.418 6.903 15.418 15.418v91.022z" fill="#deecf1"/><path d="m418.258 130.845v91.02h-40.37v-91.02c0-8.52-6.9-15.42-15.42-15.42h40.37c8.52 0 15.42 6.9 15.42 15.42z" fill="#cbe5e8"/><path d="m118.076 175.78v-14.267c0-8.884 7.202-16.087 16.087-16.087h118.686c8.884 0 16.087 7.202 16.087 16.087v14.267c0 8.884-7.202 16.087-16.087 16.087h-118.687c-8.884 0-16.086-7.202-16.086-16.087z" fill="#2abcc8"/><path d="m402.038 85.278h-135.842c-8.958 0-16.22-7.262-16.22-16.22v-44.842c0-8.958 7.262-16.22 16.22-16.22h135.842c8.958 0 16.22 7.262 16.22 16.22v44.842c0 8.958-7.262 16.22-16.22 16.22z" fill="#2abcc8"/><path d="m418.258 24.216v44.84c0 8.96-7.26 16.22-16.22 16.22h-35.41c8.95 0 16.22-7.26 16.22-16.22v-44.84c0-8.96-7.27-16.22-16.22-16.22h35.41c8.96.001 16.22 7.261 16.22 16.22z" fill="#0cacba"/></g><g><path d="m483.998 369.666-3.894-13.276c-2.835-9.667-11.835-16.423-21.905-16.456l-32.441-119.066v-90.023c0-12.637-10.281-22.918-22.918-22.918h-40.94v-15.149h40.137c13.079 0 23.72-10.641 23.72-23.72v-44.84c0-13.079-10.641-23.72-23.72-23.72h-17.91c-4.143 0-7.5 3.358-7.5 7.5s3.357 7.5 7.5 7.5h17.91c4.808 0 8.72 3.912 8.72 8.72v44.84c0 4.808-3.912 8.72-8.72 8.72h-135.84c-4.808 0-8.72-3.912-8.72-8.72v-44.84c0-4.808 3.912-8.72 8.72-8.72h82.93c4.143 0 7.5-3.358 7.5-7.5s-3.357-7.5-7.5-7.5h-82.93c-13.079 0-23.72 10.641-23.72 23.72v44.84c0 13.079 10.641 23.72 23.72 23.72h40.137v15.149h-202.841c-12.637 0-22.918 10.281-22.918 22.918v90.026l-9.435 34.625c-1.089 3.996 1.269 8.119 5.265 9.208 3.995 1.089 8.119-1.267 9.208-5.264l8.193-30.072h318.721l30.123 110.56h-378.966l12.83-47.088c1.089-3.997-1.269-8.119-5.265-9.208-3.993-1.087-8.118 1.268-9.208 5.265l-14.126 51.846c-7.545 2.059-13.758 7.917-16.024 15.646l-3.894 13.277c-15.591.915-27.997 13.884-27.997 29.701v82.372c0 16.408 13.35 29.758 29.758 29.758h452.479c16.408 0 29.758-13.349 29.758-29.758v-82.372c-.001-15.817-12.407-28.786-27.997-29.701zm-162.664-276.888h25.566v15.149h-25.566zm-225.759 38.067c0-4.366 3.552-7.918 7.918-7.918h299.347c4.366 0 7.918 3.552 7.918 7.918v83.522h-315.183zm-49.29 229.765c.98-3.344 4.099-5.679 7.584-5.679h404.256c3.485 0 6.604 2.335 7.584 5.68l2.64 8.999h-424.703zm450.709 121.129c0 8.137-6.62 14.758-14.758 14.758h-452.478c-8.138 0-14.758-6.62-14.758-14.758v-82.372c0-8.138 6.62-14.758 14.758-14.758h452.479c8.138 0 14.758 6.62 14.758 14.758v82.372z"/><path d="m456.547 399.608h-401.1c-14.033 0-25.45 11.417-25.45 25.45v30.99c0 14.033 11.417 25.45 25.45 25.45h277.26c4.143 0 7.5-3.358 7.5-7.5s-3.357-7.5-7.5-7.5h-277.26c-5.763 0-10.45-4.688-10.45-10.45v-30.99c0-5.762 4.688-10.45 10.45-10.45h120.529l10.615 17.383c6.05 9.907 17.02 16.062 28.628 16.062h81.555c11.607 0 22.577-6.154 28.628-16.062l10.615-17.384h120.529c5.763 0 10.45 4.688 10.45 10.45v30.99c0 5.762-4.688 10.45-10.45 10.45h-88.84c-4.143 0-7.5 3.358-7.5 7.5s3.357 7.5 7.5 7.5h88.84c14.033 0 25.45-11.417 25.45-25.45v-30.99c.001-14.033-11.416-25.449-25.449-25.449zm-143.946 24.565c-3.346 5.477-9.409 8.88-15.826 8.88h-81.555c-6.417 0-12.481-3.402-15.825-8.879l-5.841-9.565h124.886z"/><path d="m100.977 324.93h304.38c4.239 0 8.146-1.932 10.72-5.301 2.574-3.368 3.411-7.646 2.297-11.736l-14.597-53.58c-1.595-5.856-6.947-9.946-13.017-9.946h-275.187c-6.067 0-11.42 4.089-13.017 9.945l-14.596 53.581c-1.114 4.09-.277 8.368 2.297 11.736 2.573 3.369 6.48 5.301 10.72 5.301zm6.82-32.783h28.882l-3.443 17.783h-30.283zm130.58 0h29.578l.705 17.783h-30.988zm-15.716 17.783h-29.915l2.084-17.783h28.535zm60.306-17.783h28.535l2.084 17.783h-29.914zm43.638 0h27.771l3.443 17.783h-29.13zm-1.758-15-2.084-17.78h25.266l3.443 17.78zm-15.103 0h-27.372l-.705-17.78h25.993zm-42.383 0h-28.389l.705-17.78h26.979zm-43.401 0h-27.372l2.084-17.78h25.993zm-42.475 0h-26.624l3.443-17.78h25.265zm-1.758 15-2.084 17.783h-29.13l3.444-17.783zm193.371 17.783-3.443-17.783h28.881l4.844 17.783zm21.352-32.783h-27.699l-3.442-17.78h26.298zm-277.723-17.78h26.299l-3.443 17.78h-27.7z"/><path d="m252.848 137.927h-118.686c-13.006 0-23.587 10.581-23.587 23.587v14.267c0 13.006 10.581 23.586 23.587 23.586h118.686c13.006 0 23.587-10.581 23.587-23.586v-14.267c0-13.006-10.581-23.587-23.587-23.587zm8.587 37.854c0 4.735-3.853 8.586-8.587 8.586h-118.686c-4.734 0-8.587-3.852-8.587-8.586v-14.267c0-4.735 3.853-8.587 8.587-8.587h118.686c4.734 0 8.587 3.852 8.587 8.587z"/><path d="m268.964 32.478v28.8c0 4.142 3.357 7.5 7.5 7.5s7.5-3.358 7.5-7.5v-28.8c0-4.142-3.357-7.5-7.5-7.5s-7.5 3.358-7.5 7.5z"/><path d="m292.493 32.478v28.8c0 4.142 3.357 7.5 7.5 7.5s7.5-3.358 7.5-7.5v-28.8c0-4.142-3.357-7.5-7.5-7.5s-7.5 3.358-7.5 7.5z"/></g></g></svg>