<svg id="Capa_1" enable-background="new 0 0 511.987 511.987" height="512" viewBox="0 0 511.987 511.987" width="512" xmlns="http://www.w3.org/2000/svg"><g><path d="m315.575 65.762h41.79v59.781h-41.79z" fill="#678d98"/><path d="m423.149 220.833-170.4-30.905-169.743 30.905-35.238 129.351 208.225 32.908 202.394-32.908z" fill="#deecf1"/><path d="m458.391 350.181-202.397 32.914-21.087-3.338 181.896-29.576-35.242-129.348-149.57-27.124 20.758-3.781 170.4 30.905z" fill="#cbe5e8"/><path d="m464.219 350.184h-416.451c-7.044 0-13.245 4.644-15.228 11.403l-5.623 19.171 222.874 35.242 235.279-35.242-5.623-19.171c-1.983-6.759-8.184-11.403-15.228-11.403z" fill="#2abcc8"/><path d="m485.071 380.759-235.28 35.242-27.67-4.378 206.064-30.864-5.625-19.171c-1.988-6.758-8.179-11.404-15.226-11.404h56.886c7.046 0 13.248 4.646 15.226 11.404z" fill="#0cacba"/><path d="m489.057 380.759h-466.128c-12.663 0-22.929 10.266-22.929 22.929v84.856c0 12.664 10.266 22.929 22.929 22.929h466.128c12.664 0 22.929-10.266 22.929-22.929v-84.856c.001-12.663-10.265-22.929-22.929-22.929z" fill="#678d98"/><path d="m511.987 403.69v84.855c0 12.661-10.26 22.931-22.921 22.931h-62.83c12.661 0 22.932-10.271 22.932-22.931v-84.855c0-12.661-10.271-22.932-22.932-22.932h62.83c12.66 0 22.921 10.271 22.921 22.932z" fill="#537983"/><path d="m481.078 430.153v31.925c0 10.209-8.272 18.492-18.491 18.492h-413.191c-10.209 0-18.491-8.283-18.491-18.492v-31.925c0-10.209 8.283-18.492 18.491-18.492h413.19c10.22 0 18.492 8.283 18.492 18.492z" fill="#7ca1b1"/><path d="m481.078 430.153v31.925c0 10.209-8.272 18.492-18.491 18.492h-13.423v-68.908h13.423c10.219-.001 18.491 8.282 18.491 18.491z" fill="#678d98"/><path d="m298 446.116h-84.015c-9.35 0-18.025-4.867-22.897-12.847l-13.194-21.606h156.197l-13.194 21.606c-4.872 7.98-13.547 12.847-22.897 12.847z" fill="#537983"/><path d="m90.342 311.485 15.037-55.197c.732-2.686 3.171-4.55 5.955-4.55h283.488c2.784 0 5.223 1.864 5.955 4.55l15.037 55.197c1.069 3.926-1.886 7.794-5.955 7.794h-313.563c-4.068 0-7.024-3.868-5.954-7.794z" fill="#7ca1b1"/><path d="m83.006 220.833v-93.768c0-8.772 7.111-15.883 15.883-15.883h308.378c8.772 0 15.883 7.111 15.883 15.883v93.768z" fill="#deecf1"/><path d="m423.149 127.065v93.766h-41.588v-93.766c0-8.777-7.108-15.885-15.885-15.885h41.588c8.777 0 15.885 7.108 15.885 15.885z" fill="#cbe5e8"/><path d="m113.911 173.356v-14.698c0-9.152 7.419-16.572 16.572-16.572h122.266c9.152 0 16.572 7.419 16.572 16.572v14.698c0 9.152-7.419 16.572-16.572 16.572h-122.266c-9.153 0-16.572-7.419-16.572-16.572z" fill="#2abcc8"/><path d="m406.44 80.123h-139.94c-9.228 0-16.709-7.481-16.709-16.709v-46.194c0-9.228 7.481-16.709 16.709-16.709h139.94c9.228 0 16.709 7.481 16.709 16.709v46.194c0 9.228-7.481 16.709-16.709 16.709z" fill="#2abcc8"/><path d="m423.149 17.22v46.193c0 9.23-7.479 16.709-16.709 16.709h-36.478c9.22 0 16.709-7.479 16.709-16.709v-46.193c0-9.23-7.489-16.709-16.709-16.709h36.478c9.23 0 16.709 7.479 16.709 16.709z" fill="#0cacba"/><path d="m423.268 309.455-15.037-55.197c-1.643-6.033-7.157-10.246-13.409-10.246h-283.489c-6.25 0-11.764 4.212-13.409 10.245l-15.037 55.197c-1.148 4.213-.286 8.62 2.366 12.09 2.651 3.47 6.676 5.46 11.043 5.46h313.562c4.367 0 8.392-1.99 11.043-5.46 2.653-3.469 3.515-7.876 2.367-12.089zm-24.645-31.674h-28.535l-3.546-18.316h27.091zm-67.745 33.772-2.147-18.32h28.609l3.547 18.32zm-185.611 0 3.548-18.32h28.608l-2.147 18.32zm36.114-52.089-2.147 18.316h-27.427l3.546-18.316zm42.336 0-.726 18.316h-28.198l2.147-18.316zm85.498 0 2.147 18.316h-28.197l-.726-18.316zm-41.515 18.317h-29.245l.726-18.316h27.792zm-74.719 15.452h29.396l-.726 18.32h-30.817zm44.861 0h30.47l.726 18.32h-31.923zm45.935 0h29.396l2.147 18.32h-30.816zm43.143-15.452-2.147-18.316h26.028l3.546 18.316zm-214.399-18.317h27.092l-3.547 18.316h-28.535zm-9.199 33.769h29.753l-3.547 18.32h-31.197zm273.305 18.32-3.547-18.32h29.753l4.991 18.32z" fill="#537983"/><path d="m277.078 63.126c-4.268 0-7.726-3.459-7.726-7.726v-29.669c0-4.267 3.459-7.726 7.726-7.726s7.726 3.459 7.726 7.726v29.669c0 4.266-3.459 7.726-7.726 7.726z" fill="#0cacba"/><path d="m301.317 63.126c-4.268 0-7.726-3.459-7.726-7.726v-29.669c0-4.267 3.459-7.726 7.726-7.726s7.726 3.459 7.726 7.726v29.669c0 4.266-3.459 7.726-7.726 7.726z" fill="#0cacba"/><path d="m83.006 197.189h333.028v23.644h-333.028z" fill="#cbe5e8"/></g></svg>