<svg id="Capa_1" enable-background="new 0 0 512 512" height="512" viewBox="0 0 512 512" width="512" xmlns="http://www.w3.org/2000/svg"><g><g><path d="m483.109 373.628v124.769c0 3.37-2.73 6.1-6.1 6.1h-442.018c-3.37 0-6.1-2.73-6.1-6.1v-124.769z" fill="#678d98"/><path d="m28.891 373.628h454.217v45.5h-454.217z" fill="#537983"/><path d="m483.105 373.631v124.769c0 3.37-2.73 6.1-6.09 6.1h-44.51c3.37 0 6.1-2.73 6.1-6.1v-124.769z" fill="#537983"/><path d="m229.17 373.628h-183.689l16.17-65.55c5.68-23 21.23-41.48 41.48-51.37 10.39-5.08 22.03-7.9 34.19-7.9h.01c12.17 0 23.8 2.82 34.19 7.9 20.25 9.89 35.8 28.37 41.48 51.37z" fill="#fd8087"/><path d="m229.17 373.626h-34.19l-16.17-65.55c-5.68-23-21.23-41.48-41.48-51.37-5.4-2.64-11.13-4.67-17.1-6 5.52-1.24 11.25-1.9 17.09-1.9h.01c12.17 0 23.8 2.82 34.19 7.9 20.25 9.89 35.8 28.37 41.48 51.37z" fill="#fe646f"/><path d="m103.133 311.217h68.386v62.411h-68.386z" fill="#ffe177"/><g fill="#c68d7a"><circle cx="213.38" cy="50.941" r="43.441"/><circle cx="61.275" cy="50.941" r="43.441"/></g><g fill="#bc7c63"><path d="m256.82 50.941c0 23.99-19.45 43.44-43.44 43.44-4.39 0-8.63-.65-12.62-1.86 17.83-5.41 30.82-21.98 30.82-41.58s-12.99-36.17-30.82-41.58c3.99-1.21 8.23-1.86 12.62-1.86 23.99 0 43.44 19.45 43.44 43.44z"/><path d="m104.721 50.941c0 23.99-19.45 43.44-43.45 43.44-4.39 0-8.63-.65-12.62-1.86 17.84-5.41 30.82-21.98 30.82-41.58s-12.98-36.17-30.82-41.58c3.99-1.21 8.23-1.86 12.62-1.86 24 0 43.45 19.45 43.45 43.44z"/></g><path d="m218.14 108.309v32.77h-161.619v-32.77c0-43.98 35.14-79.76 78.87-80.78.65-.02 1.29-.03 1.94-.03 22.31 0 42.52 9.05 57.14 23.67 14.629 14.621 23.669 34.821 23.669 57.14z" fill="#c68d7a"/><path d="m218.14 108.309v32.77h-45.75c-1.8-58.95-25.47-97.939-37-113.549.65-.02 1.29-.03 1.94-.03 22.31 0 42.52 9.05 57.14 23.67 14.63 14.62 23.67 34.82 23.67 57.139z" fill="#bc7c63"/><path d="m238.42 161.359v.01c0 11.2-9.08 20.28-20.28 20.28h-9.16v.05c0 34.75-24.74 63.73-57.57 70.26-4.55.91-9.26 1.39-14.08 1.39-19.79 0-37.7-8.02-50.66-20.99-12.97-12.96-20.99-30.87-20.99-50.66v-.05h-9.16c-11.21 0-20.29-9.08-20.29-20.29 0-5.6 2.27-10.67 5.94-14.34s8.75-5.94 14.35-5.94c4.4 0 8.8-.23 13.16-.71 4.38-.47 8.72-1.18 13.02-2.13 21.05-4.66 57.1-16.32 78.33-43.86 0 0 2.98 7.36 8.36 16.24 8.18 13.48 21.91 30.46 39.2 30.46h9.55c11.2 0 20.28 9.08 20.28 20.28z" fill="#ffdfcf"/><path d="m238.42 161.359v.01c0 11.2-9.08 20.28-20.28 20.28h-9.16v.05c0 34.75-24.74 63.73-57.57 70.26 22.41-56.86 24.22-104.389 17.98-141.339 8.18 13.48 21.91 30.46 39.2 30.46h9.55c11.2-.001 20.28 9.079 20.28 20.279z" fill="#ffcebf"/><path d="m439.86 186.623h-121.46c-8.372 0-15.443 6.214-16.518 14.517l-13.121 101.334 90.368 25.976 90.368-25.976-13.119-101.334c-1.075-8.303-8.146-14.517-16.518-14.517z" fill="#deecf1"/><path d="m469.5 302.472-90.369 25.98-25.72-7.4 64.64-18.58-13.12-101.339c-1.08-8.3-8.15-14.51-16.52-14.51h51.45c8.37 0 15.44 6.21 16.52 14.51z" fill="#cbe5e8"/><path d="m466.489 146.685h-83.105c-7.359 0-13.324-5.965-13.324-13.324v-43.167c0-7.359 5.965-13.324 13.324-13.324h83.105c7.359 0 13.324 5.965 13.324 13.324v43.167c0 7.359-5.966 13.324-13.324 13.324z" fill="#2abcc8"/><path d="m479.813 90.194v43.16c0 7.36-5.96 13.33-13.32 13.33h-25.19c7.36 0 13.33-5.97 13.33-13.33v-43.16c0-7.36-5.97-13.33-13.33-13.33h25.19c7.36 0 13.32 5.97 13.32 13.33z" fill="#0cacba"/><path d="m475.05 302.474h-191.84c-8.5 0-15.391 6.891-15.391 15.391v62.524h222.623v-62.524c0-8.5-6.891-15.391-15.392-15.391z" fill="#678d98"/><path d="m490.442 317.865v62.52h-39.03v-62.52c0-8.5-6.89-15.39-15.39-15.39h39.03c8.5 0 15.39 6.89 15.39 15.39z" fill="#537983"/><path d="m498.377 354.426h-484.754c-3.381 0-6.122 2.741-6.122 6.122v26.156c0 3.381 2.741 6.122 6.122 6.122h484.753c3.381 0 6.122-2.741 6.122-6.122v-26.156c.001-3.381-2.74-6.122-6.121-6.122z" fill="#2abcc8"/><path d="m504.499 360.544v26.16c0 3.38-2.74 6.12-6.12 6.12h-55.24c3.38 0 6.12-2.74 6.12-6.12v-26.16c0-3.38-2.74-6.12-6.12-6.12h55.24c3.38 0 6.12 2.74 6.12 6.12z" fill="#0cacba"/><path d="m393.039 253.351h-59.311c-4.517 0-8.179-3.662-8.179-8.179v-18.095c0-4.517 3.662-8.179 8.179-8.179h59.311c4.517 0 8.179 3.662 8.179 8.179v18.095c.001 4.517-3.661 8.179-8.179 8.179z" fill="#2abcc8"/></g><g><path d="m131.686 172.052c0-14.871-12.099-26.969-26.97-26.969-7.204 0-13.977 2.805-19.07 7.899-5.094 5.094-7.899 11.867-7.899 19.071 0 4.142 3.358 7.5 7.5 7.5s7.5-3.358 7.5-7.5c0-3.197 1.245-6.203 3.505-8.463s5.267-3.506 8.464-3.506c6.6 0 11.97 5.369 11.97 11.969 0 4.142 3.358 7.5 7.5 7.5s7.5-3.359 7.5-7.501z"/><path d="m150.469 179.552c4.142 0 7.5-3.358 7.5-7.5 0-6.6 5.37-11.969 11.97-11.969s11.97 5.369 11.97 11.969c0 4.142 3.358 7.5 7.5 7.5s7.5-3.358 7.5-7.5c0-14.871-12.099-26.969-26.97-26.969s-26.97 12.098-26.97 26.969c0 4.142 3.358 7.5 7.5 7.5z"/><path d="m148.027 212.179c3.897-1.403 5.919-5.7 4.516-9.597s-5.701-5.919-9.597-4.516c-3.623 1.305-7.614 1.305-11.238 0-3.9-1.403-8.194.619-9.597 4.516s.619 8.194 4.516 9.597c3.45 1.242 7.075 1.863 10.7 1.863s7.25-.621 10.7-1.863z"/><path d="m498.376 346.926h-.435v-29.061c0-12.272-9.707-22.316-21.846-22.865l-3.848-29.723c-.532-4.108-4.293-7.008-8.401-6.475-4.108.532-7.007 4.293-6.475 8.401l3.595 27.771h-163.673l12.024-92.866c.592-4.554 4.497-7.988 9.083-7.988h121.46c4.585 0 8.49 3.434 9.082 7.983l3.94 30.42c.532 4.107 4.29 7.01 8.401 6.474 4.108-.532 7.006-4.293 6.475-8.401l-3.94-30.425c-1.562-12.002-11.861-21.052-23.958-21.052h-7.424v-24.935h34.053c11.482 0 20.824-9.342 20.824-20.824v-43.166c0-11.482-9.342-20.824-20.824-20.824h-83.105c-11.482 0-20.824 9.342-20.824 20.824v43.167c0 11.482 9.342 20.824 20.824 20.824h34.052v24.935h-99.036c-12.096 0-22.396 9.05-23.958 21.057l-12.278 94.823c-12.139.549-21.845 10.593-21.845 22.865v29.061h-30.015l-10.023-40.644c-6.044-24.484-22.272-44.553-44.086-55.651 21.974-12.442 37.444-35.091 39.93-61.483h2.013c15.32 0 27.785-12.464 27.785-27.785 0-12.721-8.597-23.466-20.285-26.748v-26.306c0-2.648-.124-5.268-.354-7.857 22.42-5.42 39.035-25.824 39.035-49.513.001-28.087-22.851-50.939-50.939-50.939-18.446 0-35.417 10.142-44.356 25.887-9.844-3.798-20.53-5.887-31.697-5.887-11.165 0-21.85 2.088-31.692 5.885-8.94-15.744-25.91-25.885-44.355-25.885-28.094 0-50.95 22.852-50.95 50.94 0 1.91.107 3.817.318 5.67.437 3.827 3.681 6.651 7.442 6.651.284 0 .57-.016.859-.049 4.116-.469 7.071-4.186 6.602-8.301-.147-1.29-.222-2.626-.222-3.97.001-19.818 16.128-35.941 35.951-35.941 12.705 0 24.4 6.832 30.819 17.49-19.503 11.678-34.148 30.663-40.126 53.145-4.326-1.156-8.418-3.098-12.054-5.786-3.33-2.462-8.027-1.759-10.49 1.572-2.462 3.331-1.759 8.027 1.572 10.49 5.513 4.076 11.76 6.968 18.368 8.552-.229 2.587-.353 5.203-.353 7.848v26.306c-11.687 3.282-20.285 14.026-20.285 26.748 0 15.32 12.464 27.784 27.785 27.784h2.008c2.474 26.38 17.95 49.038 39.936 61.484-21.817 11.098-38.048 31.167-44.093 55.652l-10.022 40.642h-30.721c-7.511 0-13.622 6.111-13.622 13.622v26.156c0 7.511 6.111 13.622 13.622 13.622h7.767v98.073c0 7.499 6.101 13.6 13.6 13.6h197.83c4.142 0 7.5-3.358 7.5-7.5s-3.358-7.5-7.5-7.5h-196.431v-96.674h439.22v96.674h-207.79c-4.142 0-7.5 3.358-7.5 7.5s3.358 7.5 7.5 7.5h209.19c7.499 0 13.6-6.101 13.6-13.6v-98.074h7.767c7.511 0 13.622-6.111 13.622-13.622v-26.156c0-7.511-6.111-13.622-13.623-13.622zm-120.816-213.565v-43.167c0-3.211 2.613-5.824 5.824-5.824h83.105c3.211 0 5.824 2.613 5.824 5.824v43.167c0 3.211-2.613 5.824-5.824 5.824h-83.105c-3.212 0-5.824-2.612-5.824-5.824zm-102.241 184.504c0-4.352 3.54-7.892 7.892-7.892h191.84c4.351 0 7.891 3.54 7.891 7.892v29.061h-207.623zm-69.601-7.989 9.137 37.051h-35.837v-35.418-9.936-31.643c13.077 9.581 22.656 23.563 26.7 39.946zm-95.085 9.132h53.386v27.918h-53.386zm102.747-304.008c19.817 0 35.94 16.123 35.94 35.94 0 16.397-11.278 30.562-26.636 34.703-5.976-22.484-20.621-41.471-40.124-53.151 6.418-10.659 18.113-17.492 30.82-17.492zm-76.052 20c40.424 0 73.311 32.887 73.311 73.311v25.269h-2.045c-19.304 0-35.86-30.33-40.607-42.01-1.008-2.492-3.272-4.254-5.935-4.619-2.658-.363-5.317.723-6.958 2.852-20.006 25.954-54.954 36.896-74.006 41.11-5.589 1.236-11.305 2.036-17.07 2.413v-25.014c-.001-40.425 32.886-73.312 73.31-73.312zm-64.15 146.649c0-4.142-3.358-7.5-7.5-7.5h-9.161c-7.049 0-12.785-5.735-12.785-12.785 0-7.049 5.735-12.784 12.785-12.784 9.385 0 18.741-1.017 27.809-3.022 18.803-4.158 51.725-14.377 74.856-37.712 8.077 15.08 25.354 40.734 49.412 40.734h9.545c7.049 0 12.785 5.735 12.785 12.785 0 7.049-5.735 12.784-12.785 12.784h-9.161c-4.142 0-7.5 3.411-7.5 7.553 0 35.372-28.777 64.15-64.15 64.15-35.373-.001-64.15-28.778-64.15-64.203zm64.15 79.202c6.286 0 12.399-.744 18.266-2.136 2.89.774 5.701 1.723 8.425 2.833v40.024 2.436h-53.386v-2.436-40.021c2.726-1.111 5.54-2.061 8.432-2.836 5.865 1.392 11.978 2.136 18.263 2.136zm-68.397 49.027c4.044-16.382 13.624-30.363 26.702-39.944v31.639 9.936 35.418h-35.838zm428.068 75.448h-481.998v-23.4h481.997v23.4z"/><path d="m333.728 211.398c-8.646 0-15.679 7.034-15.679 15.679v18.095c0 8.646 7.034 15.679 15.679 15.679h59.312c8.646 0 15.679-7.034 15.679-15.679v-18.095c0-8.646-7.034-15.679-15.679-15.679zm59.991 15.679v18.095c0 .375-.305.679-.679.679h-59.312c-.375 0-.679-.305-.679-.679v-18.095c0-.375.305-.679.679-.679h59.312c.374 0 .679.305.679.679z"/></g></g></svg>