<svg id="Capa_1" enable-background="new 0 0 512 512" height="512" viewBox="0 0 512 512" width="512" xmlns="http://www.w3.org/2000/svg"><g><path d="m493.114 111.145h-193.768c-2.155 0-3.969 1.612-4.222 3.752l-.003.024c-1.181 9.686-9.434 17.189-19.439 17.189-9.464 0-17.36-6.713-19.186-15.637-.075-.364-.136-.918-.185-1.534-.17-2.148-1.984-3.794-4.139-3.794h-233.286c-10.431 0-18.886 8.455-18.886 18.886v251.939c0 10.43 8.455 18.886 18.886 18.886h234.185c1.622 0 2.995-1.193 3.225-2.799 1.358-9.49 9.52-16.785 19.386-16.785s18.028 7.295 19.386 16.785c.23 1.606 1.602 2.799 3.225 2.799h194.822c10.43 0 18.886-8.456 18.886-18.886v-251.94c-.001-10.43-8.456-18.885-18.887-18.885zm-217.432 237.212c-10.816 0-19.584-8.768-19.584-19.584s8.768-19.585 19.584-19.585 19.584 8.768 19.584 19.585c0 10.816-8.768 19.584-19.584 19.584zm0-72.082c-10.816 0-19.584-8.768-19.584-19.585 0-10.816 8.768-19.585 19.584-19.585s19.584 8.769 19.584 19.585c0 10.817-8.768 19.585-19.584 19.585zm0-72.083c-10.816 0-19.584-8.768-19.584-19.585 0-10.816 8.768-19.584 19.584-19.584s19.584 8.768 19.584 19.584c0 10.817-8.768 19.585-19.584 19.585z" fill="#ffe177"/><path d="m493.117 111.147h-31.112c10.425 0 18.883 8.448 18.883 18.883v251.941c0 10.425-8.458 18.883-18.883 18.883h31.112c10.425 0 18.883-8.458 18.883-18.883v-251.941c0-10.435-8.458-18.883-18.883-18.883z" fill="#fece85"/><g fill="#fd8087"><path d="m377.357 319.603c-1.099 0-2.215-.236-3.276-.733-3.863-1.812-5.527-6.413-3.715-10.276l53.558-114.201c1.812-3.864 6.413-5.527 10.276-3.715s5.527 6.413 3.715 10.276l-53.558 114.201c-1.314 2.803-4.096 4.448-7 4.448z"/><path d="m367.109 249.294c-17.309 0-31.391-14.505-31.391-32.335s14.082-32.335 31.391-32.335 31.391 14.506 31.391 32.336-14.081 32.334-31.391 32.334zm0-49.217c-8.789 0-15.939 7.573-15.939 16.882s7.15 16.882 15.939 16.882 15.939-7.573 15.939-16.882-7.15-16.882-15.939-16.882z"/><path d="m439.442 327.375c-17.309 0-31.391-14.506-31.391-32.335s14.082-32.335 31.391-32.335 31.391 14.505 31.391 32.335-14.082 32.335-31.391 32.335zm0-49.217c-8.788 0-15.938 7.573-15.938 16.882s7.15 16.882 15.938 16.882c8.789 0 15.939-7.573 15.939-16.882-.001-9.309-7.151-16.882-15.939-16.882z"/></g><g fill="#2abcc8"><path d="m219.091 229.851h-166.839c-4.267 0-7.726-3.459-7.726-7.726s3.459-7.726 7.726-7.726h166.839c4.267 0 7.726 3.459 7.726 7.726 0 4.266-3.459 7.726-7.726 7.726z"/><path d="m219.091 262.5h-166.839c-4.267 0-7.726-3.459-7.726-7.726s3.459-7.726 7.726-7.726h166.839c4.267 0 7.726 3.459 7.726 7.726s-3.459 7.726-7.726 7.726z"/><path d="m129.043 295.15h-76.791c-4.267 0-7.726-3.459-7.726-7.726s3.459-7.726 7.726-7.726h76.791c4.267 0 7.726 3.459 7.726 7.726s-3.459 7.726-7.726 7.726z"/></g></g></svg>