<svg id="Capa_1" enable-background="new 0 0 512 512" height="512" viewBox="0 0 512 512" width="512" xmlns="http://www.w3.org/2000/svg"><g><path d="m430.654 438.246 19.11-4.699c4.246-1.044 6.841-5.332 5.797-9.578l-19.074-77.574-34.486 8.48 19.074 77.574c1.045 4.246 5.333 6.841 9.579 5.797z" fill="#678d98"/><path d="m395.241 126.276-70.695 71.902-95.978-30.92c-4.518 1.111-9.082-1.651-10.193-6.17l-26.966-109.667c-1.111-4.518 1.651-9.082 6.17-10.193l46.629-11.465 44.116 23.6 29.299-41.652 46.629-11.465c4.518-1.111 9.082 1.651 10.193 6.17l26.966 109.668c1.111 4.518-1.652 9.081-6.17 10.192z" fill="#c68d7a"/><path d="m374.445 6.415 26.966 109.668c1.112 4.522-1.651 9.086-6.173 10.198l-26.733 6.573c4.522-1.112 7.285-5.676 6.173-10.198l-26.966-109.668c-1.109-4.512-5.674-7.275-10.196-6.163l26.733-6.573c4.522-1.112 9.086 1.651 10.196 6.163z" fill="#bc7c63"/><path d="m317.623 11.711-73.415 18.052 14.584 59.314c1.428 5.808 8.596 7.909 12.934 3.792l21.83-20.721 28.95 8.235c5.753 1.636 11.129-3.549 9.701-9.357z" fill="#ffe177"/><path d="m433.647 116.833-85.035 20.909-29.299 41.652-44.116-23.6-85.035 20.909c-6.674 1.641-10.754 8.382-9.113 15.056l10.115 97.885 33.152 78.084c1.641 6.674 8.382 10.754 15.056 9.113l124.058-16.113 66.266-43.504 50.191-12.341c6.674-1.641 10.754-8.382 9.113-15.056l-40.296-163.881c-1.642-6.674-8.383-10.754-15.057-9.113z" fill="#c68d7a"/><path d="m448.704 125.946 40.296 163.884c1.642 6.678-2.438 13.419-9.107 15.059l-32.214 7.921c6.668-1.64 10.749-8.381 9.106-15.059l-40.295-163.884c-1.64-6.668-8.381-10.748-15.049-9.109l32.214-7.921c6.668-1.639 13.409 2.441 15.049 9.109z" fill="#bc7c63"/><g fill="#deecf1"><path d="m250.633 301.33c-3.474 0-6.63-2.359-7.497-5.883-1.019-4.144 1.515-8.329 5.658-9.348l65.386-16.077c4.145-1.016 8.329 1.515 9.348 5.658 1.019 4.144-1.515 8.329-5.658 9.348l-65.386 16.077c-.62.152-1.241.225-1.851.225z"/><path d="m258.366 332.782c-3.474 0-6.63-2.359-7.497-5.883-1.019-4.144 1.515-8.329 5.658-9.348l32.693-8.039c4.147-1.016 8.329 1.515 9.348 5.658 1.019 4.144-1.515 8.329-5.658 9.348l-32.693 8.039c-.619.152-1.24.225-1.851.225z"/></g><path d="m454.374 331.544c3.206 11.257-3.582 22.841-14.86 25.614l-225.346 55.409c-11.026 2.711-22.163-4.03-24.874-15.056l-78.843-320.648-61.862 15.21c-10.82 2.661-22.106-3.482-25.157-14.198-3.206-11.257 3.582-22.841 14.86-25.614l82.306-20.238c11.031-2.712 22.164 4.035 24.874 15.056l76.711 311.977c1.178 4.789 6.015 7.717 10.804 6.54l196.229-48.25c10.821-2.661 22.106 3.482 25.158 14.198z" fill="#deecf1"/><path d="m454.57 332.284c2.71 11.021-4.025 22.162-15.056 24.874l-40.759 10.022c3.815-21.295-3.432-33.243-10.777-39.695l41.717-10.258c11.031-2.711 22.163 4.026 24.875 15.057z" fill="#cbe5e8"/><g><circle cx="287.543" cy="443.69" fill="#678d98" r="68.306"/><path d="m355.849 443.69c0 37.727-30.583 68.31-68.31 68.31-7.145 0-14.032-1.1-20.498-3.135 27.704-8.707 47.801-34.592 47.801-65.174 0-30.572-20.097-56.457-47.801-65.164 6.466-2.035 13.354-3.135 20.498-3.135 37.727-.001 68.31 30.581 68.31 68.298z" fill="#537983"/><circle cx="287.543" cy="443.69" fill="#deecf1" r="28.885"/></g><path d="m348.612 137.742-73.415 18.052 14.584 59.314c1.428 5.808 8.596 7.909 12.934 3.792l21.83-20.721 28.95 8.235c5.753 1.636 11.129-3.549 9.701-9.357z" fill="#deecf1"/></g></svg>