<svg id="Capa_1" enable-background="new 0 0 512 512" height="512" viewBox="0 0 512 512" width="512" xmlns="http://www.w3.org/2000/svg"><g><g><path d="m425.532 432.907 18.55-4.561c4.121-1.013 6.641-5.176 5.628-9.298l-18.515-75.301-33.475 8.231 18.515 75.301c1.013 4.122 5.175 6.641 9.297 5.628z" fill="#678d98"/><path d="m391.156 130.077-68.624 69.796-93.166-30.014c-4.386 1.078-8.816-1.603-9.894-5.989l-26.176-106.455c-1.078-4.386 1.603-8.816 5.989-9.894l161.79-39.782c4.386-1.078 8.816 1.603 9.894 5.989l26.176 106.455c1.078 4.386-1.603 8.815-5.989 9.894z" fill="#c68d7a"/><path d="m370.969 13.727 26.176 106.455c1.079 4.39-1.602 8.82-5.992 9.9l-25.95 6.381c4.39-1.079 7.072-5.51 5.992-9.9l-26.176-106.455c-1.077-4.38-5.508-7.062-9.897-5.982l25.95-6.381c4.389-1.079 8.82 1.602 9.897 5.982z" fill="#bc7c63"/><path d="m315.812 18.868-71.264 17.523 14.157 57.576c1.386 5.638 8.344 7.678 12.555 3.681l21.191-20.114 28.102 7.993c5.584 1.588 10.803-3.445 9.416-9.083z" fill="#ffe177"/><path d="m428.437 120.91-236.352 58.116c-6.479 1.593-10.439 8.136-8.846 14.615l39.115 159.08c1.593 6.479 8.136 10.439 14.615 8.846l236.352-58.116c6.479-1.593 10.439-8.137 8.846-14.615l-39.115-159.08c-1.593-6.478-8.136-10.439-14.615-8.846z" fill="#c68d7a"/><path d="m443.052 129.756 39.116 159.082c1.594 6.483-2.367 13.026-8.84 14.618l-31.27 7.689c6.473-1.592 10.434-8.135 8.84-14.618l-39.116-159.082c-1.592-6.473-8.135-10.434-14.608-8.842l31.27-7.689c6.473-1.591 13.017 2.369 14.608 8.842z" fill="#bc7c63"/><path d="m448.747 330.049c2.63 10.698-3.907 21.513-14.615 24.145l-218.744 53.786c-10.698 2.63-21.515-3.917-24.145-14.615l-76.534-311.254-60.514 14.879c-10.708 2.633-21.513-3.907-24.145-14.615-2.63-10.698 3.907-21.513 14.615-24.145l79.895-19.645c10.708-2.633 21.515 3.917 24.145 14.615l76.533 311.255 199.364-49.021c10.707-2.632 21.512 3.908 24.145 14.615z" fill="#deecf1"/><path d="m448.747 330.049c2.63 10.698-3.907 21.513-14.615 24.145l-39.565 9.728c3.703-20.671-3.331-32.27-10.461-38.532l40.495-9.957c10.708-2.631 21.513 3.909 24.146 14.616z" fill="#cbe5e8"/><g><circle cx="286.613" cy="438.191" fill="#678d98" r="66.305"/><path d="m352.918 438.191c0 36.622-29.687 66.309-66.309 66.309-6.935 0-13.621-1.068-19.898-3.043 26.893-8.452 46.401-33.578 46.401-63.265 0-29.677-19.508-54.803-46.401-63.255 6.277-1.976 12.962-3.043 19.898-3.043 36.622-.001 66.309 29.686 66.309 66.297z" fill="#537983"/><circle cx="286.613" cy="438.191" fill="#deecf1" r="28.038"/></g><path d="m345.893 141.206-71.264 17.523 14.157 57.576c1.386 5.638 8.344 7.678 12.555 3.681l21.191-20.114 28.102 7.993c5.584 1.588 10.803-3.445 9.416-9.083z" fill="#fff"/></g><g><path d="m321.543 275.105c-.989-4.022-5.051-6.478-9.074-5.492l-63.47 15.606c-4.022.989-6.481 5.052-5.492 9.074.841 3.421 3.905 5.711 7.277 5.711.593 0 1.195-.071 1.797-.219l63.47-15.606c4.022-.989 6.481-5.052 5.492-9.074z"/><path d="m288.241 307.946-31.735 7.803c-4.022.989-6.481 5.052-5.492 9.074.841 3.421 3.905 5.711 7.277 5.711.593 0 1.195-.071 1.797-.219l31.735-7.803c4.022-.989 6.481-5.052 5.492-9.074s-5.049-6.478-9.074-5.492z"/><path d="m251.075 438.192c0 19.596 15.942 35.538 35.538 35.538s35.538-15.942 35.538-35.538-15.942-35.538-35.538-35.538-35.538 15.942-35.538 35.538zm56.077 0c0 11.325-9.213 20.538-20.538 20.538s-20.538-9.213-20.538-20.538 9.213-20.538 20.538-20.538c11.324 0 20.538 9.213 20.538 20.538z"/><path d="m489.446 287.051-12.16-49.46c-.989-4.023-5.052-6.482-9.074-5.493s-6.481 5.051-5.493 9.074l12.163 49.469c.292 1.182.105 2.408-.526 3.452-.633 1.046-1.634 1.783-2.824 2.075l-236.394 58.125c-1.174.279-2.387.091-3.424-.537-1.047-.634-1.784-1.636-2.076-2.826l-39.121-159.088c-.287-1.185-.1-2.411.532-3.453.633-1.045 1.636-1.782 2.827-2.074l75.261-18.507 12.366 50.291c1.296 5.272 5.181 9.332 10.392 10.859 1.427.418 2.873.623 4.301.623 3.787 0 7.45-1.439 10.309-4.153l18.089-17.17 23.988 6.823c5.224 1.485 10.675.122 14.581-3.648 3.908-3.77 5.466-9.168 4.17-14.439l-12.366-50.292 75.253-18.505c2.455-.602 4.945.907 5.55 3.357l18.63 75.779c.989 4.022 5.055 6.482 9.074 5.493 4.022-.989 6.481-5.051 5.493-9.074l-18.632-75.787c-2.587-10.475-13.213-16.908-23.692-14.335l-22.085 5.431c-.045-.222-.075-.445-.13-.666l-26.177-106.454c-.999-4.067-3.523-7.501-7.106-9.669-3.582-2.168-7.794-2.812-11.862-1.812l-161.789 39.781c-8.395 2.065-13.545 10.574-11.481 18.968l26.176 106.455c.055.223.128.436.191.655l-22.083 5.43c-1.521.373-2.96.937-4.319 1.636l-29.99-121.971c-1.75-7.121-6.169-13.133-12.444-16.93-6.273-3.796-13.65-4.923-20.769-3.173l-79.906 19.641c-14.692 3.625-23.707 18.528-20.096 33.221 1.75 7.122 6.169 13.135 12.443 16.933 6.277 3.801 13.655 4.925 20.771 3.17l53.237-13.09 8.459 34.388c.989 4.022 5.05 6.481 9.074 5.491 4.022-.989 6.481-5.052 5.491-9.074l-10.25-41.67c-.989-4.022-5.053-6.479-9.073-5.492l-60.525 14.883c-3.228.797-6.57.286-9.415-1.437-2.846-1.723-4.851-4.451-5.645-7.682-1.639-6.668 2.454-13.433 9.117-15.077l79.899-19.64c3.233-.793 6.578-.282 9.423 1.439 2.846 1.722 4.85 4.449 5.644 7.678l76.53 311.248c.99 4.023 5.054 6.482 9.074 5.493l199.368-49.02c3.23-.794 6.577-.283 9.422 1.44 2.846 1.723 4.85 4.452 5.644 7.686 1.639 6.669-2.451 13.428-9.117 15.067l-109.628 26.951c-10.681-6.018-22.992-9.468-36.1-9.468-25.854 0-48.631 13.371-61.818 33.549l-11.201 2.757c-3.23.794-6.576.282-9.422-1.44-2.846-1.723-4.851-4.453-5.645-7.688l-58.029-235.998c-.989-4.022-5.049-6.481-9.074-5.492-4.022.989-6.481 5.051-5.492 9.074l58.029 235.996c1.749 7.125 6.168 13.141 12.443 16.939 4.344 2.63 9.216 3.979 14.168 3.979 1.944 0 3.9-.221 5.842-.641-2.333 7.175-3.609 14.821-3.609 22.764 0 40.699 33.111 73.809 73.81 73.809 14.755 0 29.001-4.343 41.199-12.559 3.436-2.314 4.345-6.975 2.03-10.41-2.314-3.436-6.974-4.344-10.41-2.031-9.712 6.542-21.061 10-32.82 10-32.428 0-58.81-26.382-58.81-58.81 0-32.422 26.382-58.799 58.81-58.799 32.422 0 58.799 26.377 58.799 58.799 0 8.863-1.92 17.373-5.707 25.296-1.787 3.737-.205 8.215 3.532 10.001 3.738 1.787 8.215.205 10.001-3.532 4.76-9.958 7.173-20.645 7.173-31.764 0-20.625-8.514-39.29-22.201-52.694l56.606-13.916 14.136 57.49c.968 3.937 3.41 7.262 6.876 9.363 2.402 1.456 5.098 2.202 7.838 2.202 1.217 0 2.443-.147 3.656-.445l18.546-4.561c3.937-.968 7.263-3.412 9.364-6.883 2.1-3.471 2.724-7.55 1.756-11.487l-14.362-58.408c10.595-5.849 16.421-18.286 13.398-30.588-1.051-4.279-3.07-8.153-5.87-11.391l24.954-6.136c5.082-1.247 9.373-4.401 12.081-8.88 2.706-4.477 3.506-9.738 2.253-14.804zm-136.664-86.455c-.011.024-.048.066-.097.058l-28.102-7.993c-2.549-.725-5.293-.051-7.215 1.774l-21.201 20.137c-.022.003-.082-.013-.099-.055l-12.366-50.29 56.699-13.943zm-30.082-122.338c-.011.024-.048.066-.097.058l-28.102-7.993c-2.547-.725-5.292-.051-7.215 1.774l-21.201 20.137c-.028.004-.082-.014-.098-.055l-12.367-50.293 11.355-2.792 45.344-11.149zm-122.121-22.631c-.089-.363.133-.731.497-.821l37.979-9.339 12.366 50.293c1.296 5.272 5.181 9.332 10.391 10.86 1.427.418 2.873.623 4.302.623 3.786 0 7.449-1.439 10.308-4.153l18.089-17.17 23.988 6.823c5.221 1.485 10.673.122 14.581-3.647 3.908-3.77 5.467-9.168 4.171-14.44l-12.366-50.293 37.98-9.339c.057-.014.113-.021.168-.021.12 0 .235.033.345.099.159.096.263.237.307.418l26.176 106.455c.045.181.019.354-.078.513-.096.159-.237.263-.418.307l-161.788 39.781c-.365.089-.732-.133-.821-.497zm241.711 365.435-18.547 4.561c-.082.021-.201-.049-.222-.134l-14.136-57.49 18.903-4.647 14.136 57.489c.021.084-.05.201-.134.221z"/></g></g></svg>