<svg id="Capa_1" enable-background="new 0 0 512 512" height="512" viewBox="0 0 512 512" width="512" xmlns="http://www.w3.org/2000/svg"><g><g><path d="m480.369 426.579h-448.738c-13.326 0-24.128-10.803-24.128-24.128v-292.901c0-13.326 10.803-24.128 24.128-24.128h448.739c13.326 0 24.128 10.803 24.128 24.128v292.901c0 13.326-10.803 24.128-24.129 24.128z" fill="#c2a1d5"/><path d="m504.498 109.55v292.9c0 13.32-10.8 24.12-24.13 24.12h-43.66c13.33 0 24.13-10.8 24.13-24.12v-292.9c0-13.33-10.8-24.13-24.13-24.13h43.66c13.33.001 24.13 10.8 24.13 24.13z" fill="#b289c9"/><g><path d="m306.355 85.427h60.576v341.148h-60.576z" fill="#ffe177"/><path d="m346.605 85.427h20.326v341.148h-20.326z" fill="#fece85"/><g><path d="m246.132 142.682 71.674 46.785-24.354 77.692-52.457 20.858c-19.503 7.754-41.258-4.096-45.32-24.687-3.425-17.359 7.143-33.747 23.119-38.603l-6.274-1.344c-17.417-3.73-27.174-22.354-20.326-38.797l12.081-29.006c6.849-16.442 26.942-22.634 41.857-12.898z" fill="#ffe177"/><path d="m427.153 142.682-71.674 46.785 24.354 77.692 52.457 20.858c19.503 7.754 41.258-4.096 45.32-24.687 3.425-17.359-7.143-33.747-23.119-38.603l6.274-1.344c17.417-3.73 27.174-22.354 20.326-38.797l-12.081-29.006c-6.849-16.442-26.941-22.634-41.857-12.898z" fill="#ffe177"/><path d="m478.255 256.775c0 2.16-.2 4.35-.64 6.56-4.06 20.59-25.82 32.44-45.32 24.68l-2.95-1.17c8.89-4.45 15.79-12.8 17.9-23.51.44-2.21.65-4.41.65-6.57 0-9.475-4.041-18.223-10.608-24.392-1.52-1.428-2.331-3.456-2.331-5.541 0-2.74 1.437-5.293 3.807-6.668 11.953-6.935 17.621-21.999 11.963-35.578l-12.08-29c-2.37-5.69-6.33-10.15-11.1-13.15 14.88-9.38 34.68-3.16 41.47 13.15l12.08 29c6.85 16.44-2.91 35.07-20.33 38.8l-6.27 1.34c13.939 4.239 23.759 17.269 23.759 32.049z" fill="#fece85"/></g><path d="m359.679 278.132h-46.072c-16.069 0-29.095-13.026-29.095-29.095v-46.072c0-16.069 13.026-29.095 29.095-29.095h46.072c16.069 0 29.095 13.026 29.095 29.095v46.072c0 16.068-13.026 29.095-29.095 29.095z" fill="#ffe177"/><path d="m388.774 202.967v46.07c0 16.07-13.03 29.1-29.1 29.1h-34.09c16.07 0 29.1-13.03 29.1-29.1v-46.07c0-16.07-13.03-29.1-29.1-29.1h34.09c16.07 0 29.1 13.029 29.1 29.1z" fill="#fece85"/></g><g><path d="m64.279 203.162h64.102c8.904 0 16.122-7.218 16.122-16.122v-37.998c0-8.904-7.218-16.122-16.122-16.122h-64.102c-8.904 0-16.122 7.218-16.122 16.122v37.998c0 8.904 7.218 16.122 16.122 16.122z" fill="#deecf1"/></g></g><g><path d="m480.37 77.92h-26.16c-4.143 0-7.5 3.358-7.5 7.5s3.357 7.5 7.5 7.5h26.16c9.17 0 16.63 7.46 16.63 16.63v292.9c0 9.17-7.46 16.63-16.63 16.63h-105.94v-34.47c0-4.142-3.357-7.5-7.5-7.5s-7.5 3.358-7.5 7.5v34.46h-45.58v-133.438h45.58v63.978c0 4.142 3.357 7.5 7.5 7.5s7.5-3.358 7.5-7.5v-67.094c3.341-1.478 6.419-3.441 9.148-5.8l45.941 18.267c4.906 1.953 10.056 2.92 15.189 2.92 6.763 0 13.499-1.681 19.607-5.005 10.752-5.852 18.28-16.098 20.652-28.098.521-2.611.784-5.312.784-8.026 0-11.547-4.982-22.362-13.12-29.979 5.912-3.367 10.802-8.381 14.042-14.567 4.978-9.502 5.466-20.629 1.342-30.528l-12.079-29c-4.125-9.905-12.369-17.397-22.619-20.556-10.251-3.158-21.28-1.606-30.265 4.258l-48.62 31.736v-75.218h44.777c4.143 0 7.5-3.358 7.5-7.5s-3.357-7.5-7.5-7.5h-387.579c-17.441 0-31.63 14.189-31.63 31.63v142.96c0 4.142 3.357 7.5 7.5 7.5s7.5-3.358 7.5-7.5v-142.96c0-9.17 7.46-16.63 16.63-16.63h267.223v75.221l-48.621-31.737c-8.983-5.865-20.012-7.418-30.266-4.258-10.249 3.159-18.493 10.651-22.617 20.555l-12.079 28.999c-4.125 9.899-3.636 21.026 1.341 30.528 3.24 6.186 8.13 11.2 14.042 14.567-8.138 7.617-13.12 18.431-13.12 29.979 0 2.708.264 5.408.782 8.015 2.374 12.011 9.902 22.257 20.654 28.109 6.109 3.325 12.844 5.005 19.607 5.005 5.133 0 10.283-.968 15.188-2.92l45.945-18.269c2.727 2.358 5.803 4.32 9.141 5.797v136.569h-267.22c-9.17 0-16.63-7.46-16.63-16.63v-114.94c0-4.142-3.357-7.5-7.5-7.5s-7.5 3.358-7.5 7.5v114.94c0 17.441 14.189 31.63 31.63 31.63h448.74c17.44 0 31.63-14.189 31.63-31.63v-292.9c0-17.441-14.189-31.63-31.63-31.63zm-188.358 171.117v-46.072c0-11.908 9.688-21.595 21.596-21.595h46.071c11.908 0 21.596 9.688 21.596 21.595v46.072c0 11.908-9.688 21.595-21.596 21.595h-46.071c-11.909 0-21.596-9.688-21.596-21.595zm67.421-82.667h-45.58v-73.445h45.58zm71.819-17.405c5.241-3.419 11.671-4.326 17.648-2.484 5.976 1.842 10.783 6.211 13.188 11.988l12.08 29.001c2.404 5.771 2.119 12.259-.783 17.799-2.902 5.542-8.076 9.472-14.19 10.781l-6.271 1.34c-3.344.714-5.781 3.601-5.926 7.017-.145 3.417 2.039 6.498 5.311 7.493 10.858 3.303 18.442 13.532 18.442 24.875 0 1.732-.167 3.446-.497 5.105-1.508 7.625-6.286 14.128-13.11 17.843-6.818 3.711-14.866 4.193-22.081 1.322l-42.133-16.753c2.141-4.647 3.344-9.812 3.344-15.255v-46.072c0-9.57-3.697-18.289-9.732-24.817zm-193.033 132.081c-7.212 2.87-15.26 2.388-22.079-1.323-6.824-3.714-11.603-10.218-13.111-17.851-.329-1.654-.496-3.369-.496-5.097 0-11.343 7.584-21.572 18.442-24.875 3.271-.995 5.455-4.077 5.311-7.493-.145-3.416-2.582-6.302-5.926-7.017l-6.267-1.339c-6.117-1.31-11.291-5.24-14.194-10.783-2.902-5.541-3.188-12.027-.782-17.799l12.08-29.001c2.405-5.776 7.212-10.145 13.188-11.987 5.979-1.842 12.409-.936 17.648 2.484l44.71 29.184c-6.034 6.527-9.731 15.247-9.731 24.816v46.072c0 5.443 1.203 10.607 3.344 15.255z"/><path d="m242.291 184.921c-3.504-2.18-8.094-1.106-10.291 2.387s-1.143 8.116 2.339 10.332c.116.074 11.634 7.534 12.955 19.581.987 8.989-3.812 18.848-14.267 29.301-2.929 2.929-2.929 7.678 0 10.606 1.465 1.464 3.385 2.197 5.304 2.197s3.839-.732 5.304-2.197c13.896-13.896 20.137-27.938 18.549-41.733-2.219-19.28-19.172-30.026-19.893-30.474z"/><path d="m434.955 259.325c1.919 0 3.839-.732 5.304-2.197 2.929-2.929 2.929-7.678 0-10.606-10.454-10.454-15.254-20.312-14.268-29.301 1.315-11.982 12.717-19.427 12.953-19.58 3.494-2.194 4.561-6.803 2.38-10.311-2.188-3.518-6.812-4.596-10.329-2.41-.721.448-17.674 11.194-19.894 30.474-1.587 13.796 4.653 27.837 18.55 41.733 1.465 1.465 3.385 2.198 5.304 2.198z"/><path d="m64.278 210.662h64.103c13.024 0 23.621-10.597 23.621-23.622v-37.998c0-13.025-10.597-23.622-23.621-23.622h-64.103c-13.024 0-23.621 10.597-23.621 23.622v37.998c0 13.025 10.597 23.622 23.621 23.622zm-8.621-23.621v-11.452h15.383v20.073h-6.762c-4.754 0-8.621-3.868-8.621-8.621zm72.724 8.621h-42.341v-20.073h50.962v11.452c0 4.753-3.867 8.621-8.621 8.621zm8.621-46.619v11.546h-15.383v-20.168h6.762c4.754 0 8.621 3.868 8.621 8.622zm-72.724-8.622h42.341v20.168h-50.962v-11.546c0-4.754 3.867-8.622 8.621-8.622z"/><path d="m48.157 385.965h122.963c4.143 0 7.5-3.358 7.5-7.5s-3.357-7.5-7.5-7.5h-122.963c-4.143 0-7.5 3.358-7.5 7.5s3.358 7.5 7.5 7.5z"/><path d="m255.997 385.965c4.143 0 7.5-3.358 7.5-7.5s-3.357-7.5-7.5-7.5h-46.862c-4.143 0-7.5 3.358-7.5 7.5s3.357 7.5 7.5 7.5z"/></g></g></svg>