<svg id="Capa_1" enable-background="new 0 0 512 512" height="512" viewBox="0 0 512 512" width="512" xmlns="http://www.w3.org/2000/svg"><g><g><g><path d="m436.583 173.376c30.758-54.64-30.757-62.469-30.757-62.469s48.755-82.981-13.752-101.47-94.37 101.47-94.37 101.47v92.878z" fill="#fd8087"/><path d="m436.582 173.382-28.622 6.266c18.242-38.967-10.139-53.485-26.399-58.435-4.969-1.513-7.445-7.065-5.197-11.747 10.923-22.743 32.706-80.083-14.752-98.195 9.177-4.029 19.334-5.12 30.461-1.83 62.512 18.493 13.752 101.466 13.752 101.466s61.514 7.828 30.757 62.475z" fill="#fe646f"/><path d="m214.296 110.904v92.881l-50.387-11.035-88.491-19.371c-30.757-54.647 30.757-62.475 30.757-62.475s-43.354-73.778 4.113-97.696c2.874-1.451 6.072-2.717 9.639-3.771 62.503-18.492 94.369 101.467 94.369 101.467z" fill="#fd8087"/><path d="m214.296 110.904v92.881l-50.387-11.035c.869-4.057 1.996-8.419 3.383-13.105 27.042-91.531-34.343-148.933-57.004-166.437 2.874-1.451 6.072-2.717 9.639-3.771 62.503-18.492 94.369 101.467 94.369 101.467z" fill="#fe646f"/><path d="m297.703 110.907h-83.406c-15.09 0-27.323 12.233-27.323 27.323v65.555h138.053v-65.555c-.001-15.09-12.234-27.323-27.324-27.323z" fill="#fd8087"/><path d="m325.026 138.231v65.552h-30.267v-65.552c0-15.092-12.236-27.328-27.319-27.328h30.267c15.092-.001 27.319 12.236 27.319 27.328z" fill="#fe646f"/></g><path d="m448.859 226.206v255.636c0 12.515-10.143 22.658-22.658 22.658h-340.403c-12.515 0-22.658-10.143-22.658-22.658v-255.636z" fill="#ffe177"/><path d="m63.141 226.206h385.718v54.992h-385.718z" fill="#fece85"/><path d="m448.858 226.202v255.636c0 12.515-10.143 22.658-22.658 22.658h-35.1c12.515 0 22.658-10.143 22.658-22.658v-255.636z" fill="#fece85"/><path d="m453.393 173.376h-394.786c-8.116 0-14.695 6.579-14.695 14.695v53.04c0 8.116 6.579 14.695 14.695 14.695h394.786c8.116 0 14.695-6.579 14.695-14.695v-53.04c0-8.116-6.579-14.695-14.695-14.695z" fill="#ffe177"/><path d="m468.088 188.071v53.044c0 8.112-6.579 14.691-14.691 14.691h-58.908c8.122 0 14.701-6.579 14.701-14.691v-53.044c0-8.112-6.579-14.691-14.701-14.691h58.908c8.112 0 14.691 6.579 14.691 14.691z" fill="#fece85"/><path d="m212.551 173.376h86.898v82.43h-86.898z" fill="#fd8087"/><path d="m223.871 255.806h64.259v248.694h-64.259z" fill="#fd8087"/><path d="m223.871 255.806h64.259v25.392h-64.259z" fill="#fe646f"/></g><g><path d="m374.981 152.071c.843.305 1.704.449 2.551.449 3.069 0 5.949-1.898 7.053-4.951 1.409-3.895-.606-8.195-4.501-9.604-16.63-6.016-26.463-14.381-29.23-24.862-4.84-18.344 12.404-38.868 12.713-39.232 2.698-3.137 2.347-7.867-.787-10.57-3.137-2.707-7.872-2.357-10.577.78-.93 1.078-22.695 26.698-15.872 52.771 4.072 15.566 17.076 27.415 38.65 35.219z"/><path d="m131.917 137.966c-3.895 1.409-5.911 5.709-4.501 9.604 1.104 3.053 3.984 4.951 7.053 4.951.847 0 1.708-.145 2.551-.449 21.573-7.804 34.578-19.653 38.651-35.219 6.823-26.072-14.942-51.693-15.872-52.771-2.706-3.137-7.442-3.486-10.577-.78-3.136 2.706-3.486 7.441-.78 10.577.176.205 17.49 20.94 12.719 39.176-2.751 10.505-12.59 18.886-29.244 24.911z"/><path d="m453.387 165.885h-4.909c5.482-13.868 5.637-26.132.397-36.557-6.983-13.894-21.822-20.536-31.893-23.556 7.648-15.81 20.892-49.321 10.732-75.056-5.502-13.936-16.778-23.512-33.516-28.463-14.058-4.158-27.789-2.558-40.812 4.758-35.612 20.004-55.708 78.001-61.319 96.402h-72.132c-5.613-18.405-25.713-76.401-61.324-96.402-13.022-7.314-26.752-8.914-40.806-4.756-15.905 4.704-26.904 13.619-32.693 26.498-1.698 3.778-.012 8.217 3.766 9.915 3.778 1.699 8.218.013 9.915-3.766 3.97-8.833 11.581-14.806 23.266-18.262 10.16-3.005 19.709-1.879 29.191 3.442 14.67 8.232 28.922 26.683 41.216 53.356 5.723 12.418 9.797 24.001 12.159 31.352-14.51 4.202-25.152 17.6-25.152 33.446v27.649h-99.534c-6.072-12.148-7.24-22.156-3.433-29.776 7.252-14.512 30.397-17.724 30.613-17.753 2.5-.318 4.673-1.871 5.785-4.133 1.111-2.262 1.012-4.932-.265-7.105-.124-.21-12.385-21.274-16.056-43.636-.671-4.088-4.531-6.854-8.616-6.186-4.087.671-6.857 4.528-6.186 8.616 2.603 15.859 8.851 30.784 13.239 39.863-10.07 3.018-24.912 9.661-31.896 23.557-5.239 10.424-5.083 22.688.398 36.554h-4.91c-12.241 0-22.199 9.954-22.199 22.19v53.039c0 11.234 8.39 20.54 19.231 21.996v218.73c0 16.631 13.53 30.161 30.161 30.161h340.388c16.631 0 30.161-13.53 30.161-30.161v-218.731c10.841-1.456 19.231-10.761 19.231-21.996v-53.039c.001-12.236-9.957-22.19-22.198-22.19zm-92.641-145.804c9.485-5.323 19.035-6.449 29.197-3.444 12.246 3.622 20.034 10.022 23.81 19.566 5.497 13.896 1.472 32.13-2.873 44.98-4.945 14.624-11.462 25.824-11.524 25.931-1.274 2.168-1.368 4.831-.265 7.091 1.104 2.26 3.274 3.817 5.767 4.146.233.031 23.382 3.243 30.634 17.756 3.809 7.621 2.64 17.63-3.432 29.778h-99.536v-27.649c0-15.843-10.638-29.239-25.144-33.444 6.261-19.434 24.492-68.505 53.366-84.711zm-140.695 228.229v-67.425h71.897v67.425zm-25.576-110.074c0-10.93 8.892-19.823 19.823-19.823h83.405c10.931 0 19.823 8.892 19.823 19.823v27.645h-123.051zm-143.062 102.878v-53.039c0-3.964 3.23-7.19 7.2-7.19h146.439v67.429h-146.439c-3.97 0-7.2-3.23-7.2-7.2zm179.957 255.886v-19.66c0-4.142-3.358-7.5-7.5-7.5s-7.5 3.358-7.5 7.5v19.66h-130.564c-8.36 0-15.161-6.801-15.161-15.161v-218.525h145.726v179.027c0 4.142 3.358 7.5 7.5 7.5s7.5-3.358 7.5-7.5v-179.027h49.259v233.686zm229.217-255.886c0 3.97-3.23 7.2-7.2 7.2h-41.399c-4.142 0-7.5 3.358-7.5 7.5s3.358 7.5 7.5 7.5h29.368v218.525c0 8.36-6.801 15.161-15.161 15.161h-130.566v-233.686h81.359c4.142 0 7.5-3.358 7.5-7.5s-3.358-7.5-7.5-7.5h-70.04v-67.429h146.439c3.97 0 7.2 3.226 7.2 7.19z"/></g></g></svg>