<svg id="Capa_1" enable-background="new 0 0 511.993 511.993" height="512" viewBox="0 0 511.993 511.993" width="512" xmlns="http://www.w3.org/2000/svg"><g><g><path d="m298.298 110.866 6.957-26.578c.699-2.671 2.748-4.781 5.397-5.558l28.078-8.238c2.761-.81 5.745-.048 7.78 1.987l40.846 40.846c3.073 3.073 3.073 8.056 0 11.129l-34.926 34.926c-3.073 3.073-8.056 3.073-11.129 0l-40.955-40.955c-1.976-1.978-2.756-4.855-2.048-7.559z" fill="#7ca1b1"/><path d="m247.228 113.004c-2.482 0-4.915-1.213-6.376-3.444-2.302-3.517-1.317-8.235 2.2-10.537 9.348-6.118 17.291-14.837 23.61-25.914 3.962-6.946 10.762-11.535 18.655-12.593 7.819-1.045 15.499 1.556 21.074 7.138l24.43 24.43c2.972 2.972 2.972 7.792 0 10.764-2.973 2.972-7.792 2.972-10.765 0l-24.433-24.433c-2.195-2.199-5.215-3.222-8.285-2.811-3.147.422-5.863 2.262-7.453 5.048-7.523 13.191-17.111 23.658-28.496 31.109-1.286.84-2.732 1.243-4.161 1.243z" fill="#537983"/></g><g><path d="m260.586 131.302h15.223v34.764h-15.223z" fill="#fece85"/><path d="m89.435 131.302h15.223v34.764h-15.223z" fill="#fece85"/><g fill="#ffe177"><path d="m105.332 158.455h-16.573c-6.496 0-11.763 5.266-11.763 11.763v55.145h40.098v-55.145c.001-6.497-5.265-11.763-11.762-11.763z"/><path d="m276.483 158.455h-16.573c-6.496 0-11.763 5.266-11.763 11.763v55.145h40.098v-55.145c.001-6.497-5.265-11.763-11.762-11.763z"/></g><g fill="#fece85"><path d="m117.095 170.217v55.144h-20.051v-55.144c0-5.907-4.35-10.795-10.021-11.635.566-.076 1.151-.123 1.736-.123h16.57c6.501.001 11.766 5.266 11.766 11.758z"/><path d="m288.245 170.217v55.144h-20.052v-55.144c0-5.907-4.35-10.795-10.021-11.635.566-.076 1.151-.123 1.736-.123h16.57c6.502.001 11.767 5.266 11.767 11.758z"/></g><path d="m297.792 451.7h-267.406c-18.919 0-33.234-17.107-29.903-35.725l13.484-75.413 7.615-42.566c.047-.311.104-.622.16-.944l12.069-67.477c2.595-14.484 15.192-25.034 29.903-25.034h237.816c14.711 0 27.308 10.55 29.903 25.034l12.069 67.477c.057.321.113.632.16.944l7.615 42.566 13.484 75.413c3.33 18.618-48.05 35.725-66.969 35.725z" fill="#fd8087"/><path d="m351.276 340.563c-5.275 18.363-22.184 32.252-42.821 32.252h-251.667c-20.636 0-37.546-13.89-42.82-32.252l7.615-42.566c-3.973 25.506 15.749 48.699 41.717 48.699h238.646c25.968 0 45.689-23.193 41.717-48.699z" fill="#fe646f"/><path d="m334.857 451.697h-37.065c18.91 0 33.234-17.107 29.903-35.725l-33.328-186.399c-2.595-14.484-15.192-25.034-29.903-25.034h37.065c14.72 0 27.317 10.55 29.903 25.034l33.337 186.399c3.321 18.618-10.993 35.725-29.912 35.725z" fill="#fe646f"/><path d="m97.057 138.916c-6.109 0-11.907-3.619-14.39-9.615-3.291-7.944.482-17.052 8.426-20.343 29.166-12.081 59.961-18.206 91.529-18.206s62.363 6.125 91.529 18.206c7.944 3.291 11.717 12.399 8.426 20.343s-12.397 11.718-20.343 8.426c-25.368-10.508-52.154-15.836-79.613-15.836s-54.244 5.328-79.613 15.836c-1.948.806-3.966 1.189-5.951 1.189z" fill="#fd8087"/><path d="m210.971 401.122h-56.699c-14.402 0-26.077-11.675-26.077-26.077v-56.699c0-14.402 11.675-26.077 26.077-26.077h56.699c14.402 0 26.077 11.675 26.077 26.077v56.699c0 14.402-11.675 26.077-26.077 26.077z" fill="#ffe177"/><path d="m237.048 318.346v56.692c0 14.409-11.672 26.081-26.072 26.081h-28.308c14.399 0 26.072-11.672 26.072-26.081v-56.692c0-14.409-11.672-26.081-26.072-26.081h28.308c14.399 0 26.072 11.672 26.072 26.081z" fill="#fece85"/><path d="m156.503 363.655v-33.919c0-5.058 4.1-9.158 9.158-9.158h33.92c5.058 0 9.158 4.1 9.158 9.158v33.919c0 5.058-4.1 9.158-9.158 9.158h-33.92c-5.058.001-9.158-4.1-9.158-9.158z" fill="#deecf1"/></g><path d="m291.285 322.868-3.543-6.737c-9.087-17.284-10.274-34.219-3.429-48.974 10.226-22.043 36.902-37.981 79.29-47.372 32.053-7.102 41.574-37.717 50.782-67.325 4.493-14.444 8.736-28.087 15.559-38.304 8.426-12.618 20.043-18.307 34.507-16.915 13.087 1.261 24.19 9.111 32.109 22.703 15.999 27.459 16.24 71.419 14.959 95.179-2.006 37.223-10.062 74.818-21.549 100.566l-3.102 6.951-13.902-6.203 3.101-6.951c10.77-24.138 18.34-59.721 20.251-95.183 2.023-37.541-2.683-69.141-12.912-86.697-5.503-9.444-12.18-14.42-20.414-15.214-18.702-1.796-24.838 14.904-34.071 44.587-9.512 30.587-21.352 68.655-62.026 77.666-46.723 10.352-63.188 26.876-68.772 38.916-4.84 10.435-3.8 22.373 3.094 35.483l3.542 6.737z" fill="#ffe177"/><path d="m504.287 333.858v96.575c0 11.742-9.52 21.272-21.272 21.272h-188.532c-11.752 0-21.272-9.529-21.272-21.272v-96.575c0-.822.051-1.634.142-2.425 1.198-10.606 10.2-18.846 21.13-18.846h188.533c10.93 0 19.932 8.241 21.13 18.846.09.791.141 1.603.141 2.425z" fill="#2abcc8"/><g fill="#0cacba"><path d="m504.29 333.859v96.568c0 11.751-9.524 21.275-21.275 21.275h-27.834c11.751 0 21.275-9.524 21.275-21.275v-96.568c0-11.741-9.524-21.265-21.275-21.265h27.834c11.751 0 21.275 9.524 21.275 21.265z"/><path d="m504.287 333.858v50.247c-8.22 16.197-25.067 26.864-43.71 26.864h-143.645c-18.653 0-35.49-10.667-43.721-26.853v-50.257c0-.822.051-1.634.142-2.425l11.011 39.58c4.059 14.564 17.446 24.733 32.567 24.733h143.645c15.111 0 28.508-10.169 32.557-24.733l11.011-39.58c.092.79.143 1.602.143 2.424z"/></g></g></svg>