<svg id="Capa_1" enable-background="new 0 0 512 512" height="512" viewBox="0 0 512 512" width="512" xmlns="http://www.w3.org/2000/svg"><g><path d="m322.833 225.845c-7.902 10.725-18.307 19.378-30.133 25.24-4.626 2.277-9.457 4.141-14.443 5.522-3.616 1.01-6.14 4.327-6.14 8.066v84.126c0 8.901-7.211 16.112-16.112 16.112-8.89 0-16.102-7.211-16.102-16.112v-84.126c0-18.162 12.228-34.233 29.731-39.096 3.101-.865 6.068-1.999 8.87-3.379 17.884-8.767 29.155-27.331 28.207-47.955-.865-18.719-12.198-34.996-28.196-43.021h-.01c-6.12-3.07-12.908-4.935-20.079-5.264-14.042-.639-27.341 4.327-37.468 13.99-10.127 9.674-15.71 22.716-15.71 36.716 0 8.89-7.211 16.102-16.102 16.102s-16.102-7.211-16.102-16.102c0-22.891 9.117-44.196 25.673-60.009 16.545-15.804 38.251-23.932 61.194-22.871 9.004.412 17.802 2.297 26.064 5.512v.01c10.621 4.131 20.387 10.477 28.65 18.739 14.701 14.701 23.313 34.13 24.261 54.714.873 18.997-4.824 37.85-16.053 53.086z" fill="#deecf1"/><g><path d="m512 404.274c0 8.242-7.396 15.268-16.273 13.851-14.781-2.349-35.626-6.275-59.517-12.57-45.424-11.956-101.904-32.473-148.851-66.903-18.696-13.713-44.006-13.713-62.702 0-71.632 52.545-165.474 72.659-208.369 79.473-10.56 1.682-19.046-8.571-15.448-18.633 2.984-8.316 7.946-15.617 14.316-21.352s14.146-9.925 22.728-12.009l91.704-22.336c13.649-3.323 25.225-12.337 31.806-24.749 3.661-6.91 8.856-12.75 15.067-17.141 6.221-4.391 13.459-7.343 21.193-8.486 19.342-2.867 38.842-4.296 58.343-4.296s39.011 1.429 58.353 4.296h.01c15.469 2.286 28.939 11.798 36.25 25.627 3.291 6.211 7.83 11.565 13.258 15.787s11.734 7.301 18.559 8.962l40.747 9.925s.011 0 .021.01l50.926 12.401c17.173 4.18 31.097 16.718 37.043 33.361.571 1.608.836 3.216.836 4.782z" fill="#ffe177"/></g><path d="m512 404.274c0 8.242-7.396 15.268-16.273 13.851-14.781-2.349-35.626-6.275-59.517-12.57 26.843-26.843-12.104-51.254-13.014-51.825l50.926 12.401c17.173 4.18 31.097 16.718 37.043 33.361.57 1.608.835 3.216.835 4.782z" fill="#fece85"/><path d="m322.833 225.845c-7.902 10.725-18.307 19.378-30.133 25.24.01-.011.01-.011.01-.021 7.098-19.532-14.206-28.866-14.206-28.866 17.884-8.767 29.155-27.331 28.207-47.955-.865-18.719-12.198-34.996-28.196-43.021 19.914-12.393 7.819-31.359 7.459-31.915 10.621 4.131 20.387 10.477 28.65 18.739 14.701 14.701 23.313 34.13 24.261 54.714.874 18.996-4.823 37.849-16.052 53.085z" fill="#cbe5e8"/></g></svg>