<svg id="Capa_1" enable-background="new 0 0 512 512" height="512" viewBox="0 0 512 512" width="512" xmlns="http://www.w3.org/2000/svg"><g><g><path d="m451.321 180.711h-310.215v71.128c0 7.139 5.788 12.927 12.927 12.927h284.361c7.139 0 12.927-5.788 12.927-12.927z" fill="#c68d7a"/><path d="m451.321 180.712v71.128c0 7.141-5.789 12.931-12.93 12.931h-59.952c7.141 0 12.931-5.79 12.931-12.931v-71.128z" fill="#bc7c63"/><circle cx="293.101" cy="76.328" fill="#c68d7a" r="25.171"/><g><path d="m449.514 319.483-23.631-13.826c-2.375-1.39-5.305-1.433-7.72-.113l-25.59 13.98c-2.517 1.375-4.082 4.014-4.082 6.882v57.564c0 4.331 3.511 7.842 7.842 7.842h49.22c4.331 0 7.842-3.511 7.842-7.842v-57.718c0-2.786-1.477-5.362-3.881-6.769z" fill="#5de1c4"/></g><path d="m421.681 52.081-300.882 78.521c-19.362 5.053-32.872 22.541-32.872 42.551 0 24.287 19.689 43.976 43.976 43.976h306.475c36.519 0 66.123-29.604 66.123-66.123v-34.946c-.001-43.298-40.925-74.912-82.82-63.979z" fill="#c2a1d5"/><path d="m504.5 116.059v34.948c0 36.512-29.603 66.115-66.125 66.115h-58.157c36.522 0 66.125-29.603 66.125-66.115v-34.948c0-27.334-16.32-50.017-38.892-60.275l14.231-3.712c41.888-10.934 82.818 20.686 82.818 63.987z" fill="#b289c9"/><path d="m328.93 318.491-10.661 119.36c-20.989-8.341-42.544-14.695-64.41-19.063-69.968-13.98-143.012-7.625-210.176 19.063l-10.661-119.36c-1.684-18.922 10.197-36.401 28.413-41.797l108.225-32.034c7.383-2.179 15.25-2.179 22.633 0l33.637 9.955 1.634.484c.01 0 .02.01.03.01l72.923 21.584c18.216 5.397 30.097 22.876 28.413 41.798z" fill="#2abcc8"/><path d="m328.93 318.491-10.661 119.36c-20.989-8.341-42.544-14.695-64.41-19.063l4.962-119.985c.827-20.001-12.043-37.995-31.227-43.693l72.923 21.584c18.216 5.396 30.097 22.875 28.413 41.797z" fill="#0cacba"/><path d="m353.006 453.414c-2.572 5.477-8.019 8.684-13.697 8.684-2.158 0-4.347-.464-6.435-1.442-6.566-3.086-13.354-6.031-20.182-8.745-8.361-3.318-16.814-6.314-25.337-8.987-34.394-10.772-70.069-16.218-106.379-16.218-45.307 0-89.626 8.482-131.705 25.205-6.838 2.713-13.626 5.658-20.192 8.745-7.565 3.56-16.572.323-20.132-7.242-3.56-7.555-.323-16.572 7.242-20.132 7.131-3.359 14.504-6.546 21.917-9.491 45.65-18.145 93.721-27.343 142.87-27.343 36.159 0 71.743 4.982 106.197 14.847 12.376 3.53 24.61 7.706 36.683 12.497 7.403 2.945 14.776 6.132 21.907 9.491 7.566 3.559 10.803 12.576 7.243 20.131z" fill="#7ca1b1"/><path d="m353.006 453.414c-2.572 5.477-8.019 8.684-13.697 8.684-2.158 0-4.347-.464-6.435-1.442-6.566-3.086-13.354-6.031-20.182-8.745-8.361-3.318-16.814-6.314-25.337-8.987 12.073-10.389 3.732-25.78-.181-31.63 12.376 3.53 24.61 7.706 36.683 12.497 7.403 2.945 14.776 6.132 21.907 9.491 7.565 3.56 10.802 12.577 7.242 20.132z" fill="#678d98"/></g><path d="m497.693 72.405c-2.461-3.333-7.156-4.038-10.488-1.578s-4.039 7.156-1.578 10.488c7.441 10.076 11.373 22.091 11.373 34.745v34.949c0 32.323-26.297 58.62-58.62 58.62h-306.476c-9.74 0-18.898-3.794-25.787-10.683-6.89-6.889-10.684-16.051-10.684-25.797 0-16.584 11.213-31.097 27.263-35.293l300.876-78.519c12.926-3.371 26.164-2.339 38.283 2.98 3.795 1.666 8.218-.06 9.882-3.853 1.665-3.793-.061-8.217-3.853-9.882-15.243-6.689-31.874-7.989-48.098-3.759l-94.729 24.721c-3.133-14.768-16.268-25.884-31.956-25.884-18.014 0-32.67 14.656-32.67 32.67 0 3.332.506 6.589 1.47 9.696l-142.996 37.317c-22.652 5.921-38.473 26.402-38.473 49.806 0 13.753 5.354 26.681 15.076 36.403 9.723 9.722 22.647 15.077 36.394 15.077h1.705v22.882l-74.305 21.997c-14.259 4.223-25.849 15.08-31.006 29.042-1.435 3.886.553 8.199 4.438 9.634 3.883 1.435 8.198-.551 9.634-4.437 3.524-9.547 11.447-16.97 21.192-19.856l8.731-2.584c-2.553 8.013-3.697 16.992-3.177 26.032l5.523 96.218c-8.656 2.429-17.243 5.159-25.755 8.188l-6.83-76.493c-.368-4.125-4.014-7.174-8.138-6.803-4.126.368-7.172 4.012-6.804 8.137l7.201 80.647c-7.108 2.844-14.271 5.951-21.315 9.26-5.469 2.575-9.607 7.127-11.653 12.818-2.045 5.689-1.752 11.834.823 17.302 2.574 5.469 7.125 9.607 12.811 11.653 2.5.899 5.089 1.347 7.671 1.347 3.288 0 6.564-.726 9.629-2.169 6.381-3.006 13.03-5.888 19.762-8.564 41.21-16.37 84.591-24.67 128.941-24.67 18.61 0 37.286 1.485 55.508 4.415 4.093.657 7.937-2.125 8.596-6.214.657-4.089-2.125-7.938-6.215-8.595-19.008-3.056-38.484-4.605-57.889-4.605-46.254 0-91.499 8.657-134.481 25.731-7.019 2.791-13.955 5.797-20.613 8.934-1.845.868-3.915.966-5.832.278-1.916-.689-3.449-2.084-4.317-3.929-.869-1.845-.968-3.918-.277-5.837.689-1.919 2.084-3.454 3.922-4.319 7.099-3.335 14.328-6.466 21.489-9.308 44.768-17.789 91.907-26.809 140.11-26.809 48.192 0 95.332 9.02 140.109 26.81 7.17 2.849 14.396 5.98 21.473 9.305 1.846.869 3.243 2.405 3.935 4.325.69 1.919.594 3.991-.272 5.83-1.255 2.66-3.97 4.379-6.917 4.379-1.126 0-2.222-.246-3.243-.725-6.688-3.15-13.623-6.154-20.609-8.926-13.678-5.428-27.732-10.058-41.775-13.761-4.003-1.054-8.108 1.335-9.164 5.339-1.057 4.005 1.334 8.108 5.34 9.164 13.464 3.551 26.944 7.992 40.066 13.199 6.698 2.658 13.343 5.536 19.762 8.559 3.042 1.426 6.28 2.149 9.624 2.149 8.724 0 16.764-5.095 20.485-12.984 2.576-5.47 2.866-11.616.816-17.306-2.048-5.688-6.187-10.24-11.662-12.817-7.026-3.301-14.188-6.409-21.308-9.261l8.76-98.076c1.76-19.822-9.169-38.451-26.648-46.89h102.177v28.14l-22.953 12.54c-4.926 2.691-7.986 7.85-7.986 13.463v57.563c0 8.459 6.882 15.342 15.342 15.342h49.22c8.46 0 15.342-6.882 15.342-15.342v-57.718c0-5.427-2.91-10.501-7.595-13.242l-23.63-13.825c-.876-.513-1.795-.931-2.74-1.255v-25.667h11.465c11.26 0 20.42-9.161 20.42-20.42v-30.121c30.681-8.883 53.185-37.211 53.185-70.714v-34.949c0-15.885-4.947-30.98-14.307-43.655zm-222.261 3.925c0-9.743 7.927-17.67 17.67-17.67 8.723 0 15.972 6.361 17.398 14.684l-34.05 8.886c-.664-1.873-1.018-3.858-1.018-5.9zm170.295 249.626c.104.061.169.174.169.295v57.718c0 .188-.153.342-.342.342h-49.22c-.188 0-.342-.153-.342-.342v-57.563c0-.125.068-.24.178-.3l15.762-8.611v12.578c0 4.142 3.357 7.5 7.5 7.5s7.5-3.358 7.5-7.5v-15.113zm-361.636-19.478c-.672-11.691 2.026-23.002 7.257-30.813l80.44-23.813c.56-.166 1.126-.3 1.691-.435v137.618c-28.477.534-56.574 4.096-84.038 10.658zm186.518-30.813c5.238 7.819 7.935 19.129 7.255 30.813l-5.35 93.214c-27.467-6.561-55.562-10.124-84.035-10.657v-137.617c.563.134 1.127.268 1.685.433zm50.852 42.156-8.389 93.921c-8.512-3.029-17.099-5.759-25.755-8.187l5.522-96.21c.526-9.039-.616-18.019-3.172-26.037l8.725 2.583c14.727 4.357 24.428 18.629 23.069 33.93zm122.355-65.979c0 2.989-2.432 5.42-5.42 5.42h-177.108l-66.87-19.796c-8.794-2.597-18.088-2.597-26.884.001l-18.926 5.603v-18.441h289.772c1.83 0 3.639-.09 5.435-.222v27.435z"/></g></svg>