<svg id="Capa_1" enable-background="new 0 0 512 512" height="512" viewBox="0 0 512 512" width="512" xmlns="http://www.w3.org/2000/svg"><g><g><path d="m455.354 311.099-24.344-14.243c-2.447-1.432-5.465-1.476-7.953-.117l-26.362 14.402c-2.593 1.416-4.205 4.135-4.205 7.089v59.301c0 4.462 3.617 8.078 8.078 8.078h50.706c4.462 0 8.078-3.617 8.078-8.078v-59.46c.001-2.869-1.521-5.523-3.998-6.972z" fill="#5de1c4"/><path d="m424.363 329.735c-4.268 0-7.726-3.459-7.726-7.726v-60.394c0-4.267 3.459-7.726 7.726-7.726s7.726 3.459 7.726 7.726v60.394c.001 4.267-3.458 7.726-7.726 7.726z" fill="#678d98"/></g><path d="m457.216 178.441h-319.578v73.275c0 7.355 5.962 13.317 13.317 13.317h292.943c7.355 0 13.317-5.962 13.317-13.317v-73.275z" fill="#c68d7a"/><path d="m457.216 178.441v73.274c0 7.356-5.964 13.321-13.321 13.321h-61.762c7.357 0 13.321-5.964 13.321-13.321v-73.274z" fill="#bc7c63"/><circle cx="294.22" cy="70.907" fill="#c68d7a" r="25.93"/><path d="m426.681 45.928-309.963 80.891c-19.947 5.205-33.864 23.221-33.864 43.836 0 25.021 20.283 45.304 45.304 45.304h315.724c37.621 0 68.118-30.498 68.118-68.118v-36.001c0-44.606-42.159-77.175-85.319-65.912z" fill="#c2a1d5"/><path d="m512 111.837v36.003c0 37.614-30.496 68.11-68.121 68.11h-59.912c37.624 0 68.121-30.496 68.121-68.11v-36.003c0-28.159-16.812-51.527-40.066-62.094l14.661-3.824c43.152-11.264 85.317 21.311 85.317 65.918z" fill="#b289c9"/><path d="m331.131 320.376-10.982 122.963c-21.623-8.592-43.824-15.134-66.354-19.635-24.127-4.821-48.583-7.294-73.071-7.418-1.349-.01-2.689-.01-4.028 0-47.347.247-94.643 9.262-139.425 27.053l-10.981-122.963c-1.731-19.491 10.508-37.499 29.267-43.051l11.909-3.523 20.119-5.954 79.468-23.529c1.298-.381 2.606-.7 3.935-.948 5.099-.979 10.353-.979 15.453 0 1.319.247 2.627.567 3.925.948l34.655 10.261 1.679.494c.01 0 .021.01.031.01l43.103 12.764h.01l20.109 5.954 11.909 3.523c18.761 5.553 31 23.56 29.269 43.051z" fill="#2abcc8"/><g fill="#0cacba"><path d="m186.442 243.37v165.468c0 3.565-2.421 6.573-5.718 7.448-.639.186-1.308.278-2.009.278s-1.38-.093-2.019-.278c-3.286-.875-5.707-3.884-5.707-7.448v-165.468c5.1-.978 10.354-.978 15.453 0z"/><path d="m331.131 320.379-10.983 122.962c-21.623-8.593-43.828-15.139-66.354-19.638l5.112-123.606c.852-20.605-12.406-39.141-32.169-45.012l75.124 22.236c18.765 5.558 31.005 23.565 29.27 43.058z"/><path d="m84.949 413.371c.237 4.265-3.029 7.901-7.294 8.138-.144.01-.288.01-.433.01-4.069 0-7.479-3.183-7.706-7.304l-6.047-110.271c-.577-10.539.865-21.016 3.997-30.143l20.119-5.954c-6.191 8.52-9.436 21.665-8.684 35.253z"/></g><path d="m355.934 459.374c-2.65 5.642-8.261 8.946-14.11 8.946-2.223 0-4.478-.478-6.629-1.486-6.764-3.18-13.757-6.214-20.792-9.009-8.614-3.419-17.321-6.504-26.101-9.258-35.432-11.097-72.183-16.708-109.589-16.708-46.674 0-92.331 8.738-135.68 25.966-7.045 2.795-14.038 5.829-20.802 9.009-7.793 3.668-17.072.333-20.74-7.46-3.668-7.783-.332-17.072 7.46-20.74 7.346-3.46 14.942-6.743 22.579-9.777 47.028-18.693 96.549-28.169 147.182-28.169 37.25 0 73.908 5.133 109.402 15.295 12.749 3.637 25.353 7.939 37.791 12.874 7.627 3.034 15.222 6.318 22.568 9.777 7.793 3.668 11.128 12.957 7.461 20.74z" fill="#7ca1b1"/><path d="m355.934 459.374c-2.65 5.642-8.261 8.946-14.11 8.946-2.223 0-4.478-.478-6.629-1.486-6.764-3.18-13.757-6.214-20.792-9.009-8.614-3.419-17.321-6.504-26.101-9.258 12.437-10.702 3.844-26.558-.187-32.585 12.749 3.637 25.353 7.939 37.791 12.874 7.627 3.034 15.222 6.318 22.568 9.777 7.792 3.669 11.127 12.958 7.46 20.741z" fill="#678d98"/></g></svg>