<svg id="Capa_1" enable-background="new 0 0 512 512" height="512" viewBox="0 0 512 512" width="512" xmlns="http://www.w3.org/2000/svg"><g><g><path d="m73.876 103.107 14.121-24.136c1.419-2.426 1.463-5.418.116-7.885l-14.279-26.136c-1.404-2.57-4.1-4.169-7.029-4.169h-58.794c-4.423 0-8.009 3.586-8.009 8.009v50.272c0 4.423 3.586 8.009 8.009 8.009h58.952c2.845.001 5.476-1.508 6.913-3.964z" fill="#ffe177"/><path d="m114.167 141.575c-3.672 0-6.929-2.628-7.597-6.369-2.304-12.9-1.52-26.559 2.328-40.601.86-3.145.227-6.428-1.737-9.001-1.92-2.514-4.837-3.956-8.005-3.956h-35.17c-4.267 0-7.726-3.459-7.726-7.726s3.459-7.726 7.726-7.726h35.17c8.026 0 15.42 3.656 20.287 10.032 4.912 6.434 6.502 14.619 4.36 22.457-3.238 11.814-3.918 23.186-2.021 33.805.75 4.201-2.047 8.214-6.248 8.965-.459.081-.917.12-1.367.12z" fill="#678d98"/></g><path d="m338.851 136.242-12.361-58.845c-2.155-10.26-11.205-17.607-21.69-17.607h-97.6c-10.484 0-19.534 7.347-21.69 17.607l-12.361 58.845s-73.063 9.357-161.474 67.351c-9.763 6.404-14.001 18.571-10.412 29.682 9.997 30.949 40.861 92.884 133.893 141.447l11.095 85.606c.807 6.229 6.112 10.89 12.393 10.89h194.712c6.281 0 11.586-4.662 12.393-10.89l11.095-85.606c93.031-48.563 123.895-110.499 133.893-141.447 3.589-11.111-.649-23.278-10.412-29.682-88.412-57.994-161.474-67.351-161.474-67.351z" fill="#7ca1b1"/><path d="m510.734 233.283c-10.003 30.946-40.867 92.88-133.892 141.433l-11.095 85.606c-.807 6.229-6.112 10.89-12.393 10.89h-27.434l10.85-83.718c1.027-7.928 5.774-14.865 12.74-18.787 84.426-47.547 113.214-105.74 122.808-135.423 3.585-11.116-.649-23.292-10.415-29.7-64.304-42.178-120.488-58.626-146.345-64.46-9.286-2.095-16.494-9.403-18.451-18.72l-9.035-43.006c-2.153-10.26-11.208-17.606-21.685-17.606h38.405c10.487 0 19.542 7.345 21.696 17.606l12.362 58.843s73.06 9.354 161.459 67.343c9.765 6.406 14.01 18.583 10.425 29.699z" fill="#678d98"/><g fill="#deecf1"><path d="m274.089 283.929c-6.417-8.695-4.563-20.954 4.142-27.361 8.705-6.418 20.954-4.553 27.371 4.141 6.408 8.705 4.553 20.964-4.151 27.372-3.493 2.575-7.561 3.822-11.589 3.822-6.006 0-11.94-2.761-15.773-7.974zm32.327-23.92c-7.51-7.778-7.294-20.171.485-27.671 7.778-7.51 20.171-7.293 27.681.484 7.499 7.778 7.283 20.171-.495 27.681-3.791 3.667-8.695 5.491-13.588 5.491-5.12 0-10.24-2.009-14.083-5.985zm28.876-27.99c-8.448-6.748-9.818-19.058-3.069-27.506h-.011c6.748-8.448 19.069-9.828 27.516-3.08 8.448 6.748 9.828 19.058 3.08 27.506-3.873 4.842-9.56 7.366-15.309 7.366-4.284-.001-8.591-1.401-12.207-4.286zm25.064-31.461c-9.24-5.604-12.197-17.637-6.594-26.878 5.605-9.251 17.648-12.197 26.888-6.603 9.24 5.604 12.197 17.647 6.592 26.887-3.677 6.078-10.137 9.437-16.76 9.437-3.45 0-6.953-.917-10.126-2.843z"/><path d="m210.549 288.081c-8.705-6.408-10.559-18.667-4.152-27.372 6.418-8.695 18.667-10.559 27.372-4.141 8.705 6.408 10.559 18.667 4.141 27.372-3.832 5.202-9.766 7.963-15.772 7.963-4.028 0-8.097-1.246-11.589-3.822zm-32.637-27.578c-7.778-7.51-8.004-19.903-.494-27.681 7.51-7.778 19.903-7.994 27.681-.484 7.778 7.5 7.994 19.893.484 27.671-3.843 3.976-8.953 5.985-14.083 5.985-4.893 0-9.796-1.834-13.588-5.491zm-28.721-31.564c-6.747-8.448-5.367-20.758 3.08-27.506 8.447-6.747 20.768-5.367 27.505 3.08 6.748 8.448 5.378 20.758-3.07 27.506-3.606 2.884-7.922 4.285-12.208 4.285-5.747 0-11.433-2.523-15.307-7.365zm-24.436-34.975c-5.604-9.251-2.647-21.283 6.594-26.887 9.24-5.604 21.283-2.648 26.887 6.593 5.594 9.251 2.648 21.284-6.593 26.888-3.173 1.926-6.676 2.833-10.127 2.833-6.623 0-13.083-3.359-16.761-9.427z"/><circle cx="256" cy="293.902" r="19.573"/><circle cx="388.635" cy="148.039" r="19.573"/><circle cx="123.365" cy="148.039" r="19.573"/></g><g><path d="m299.155 342.728v61.109c0 2.681-1.43 5.159-3.752 6.499l-3.974 2.294-27.702 15.999-3.974 2.294c-2.322 1.34-5.182 1.34-7.504 0l-3.974-2.294-27.702-15.999-3.974-2.294c-2.322-1.341-3.752-3.818-3.752-6.499v-61.109c0-2.681 1.43-5.159 3.752-6.499l3.974-2.294 27.702-15.999 3.974-2.294c2.322-1.341 5.183-1.341 7.505 0l3.974 2.294 27.702 15.999 3.974 2.294c2.32 1.34 3.751 3.818 3.751 6.499z" fill="#0ed2b3"/><g fill="#5de1c4"><path d="m263.726 317.935v33.007h-15.453v-33.007l3.974-2.294c2.322-1.341 5.183-1.341 7.505 0z"/><path d="m299.155 342.728v4.589l-28.578 16.503-7.438-12.877-.288-.505.876-.505 27.702-15.999 3.974 2.294c2.321 1.341 3.752 3.819 3.752 6.5z"/><path d="m299.155 399.249v4.589c0 2.681-1.43 5.159-3.752 6.499l-3.974 2.294-27.702-15.999-.876-.505.288-.505 7.438-12.877z"/><path d="m249.149 350.438-.288.505-7.438 12.877-28.578-16.503v-4.589c0-2.681 1.43-5.159 3.752-6.499l3.974-2.294 27.702 15.999z"/><path d="m249.149 396.127-.876.505-27.702 15.999-3.974-2.294c-2.322-1.341-3.752-3.818-3.752-6.499v-4.589l28.578-16.504 7.438 12.877z"/><path d="m263.726 395.622v33.007l-3.974 2.294c-2.322 1.34-5.182 1.34-7.504 0l-3.974-2.294v-33.007z"/></g><path d="m238.597 390.684v-34.804c0-1.621.865-3.118 2.268-3.928l12.867-7.429c1.403-.81 3.132-.81 4.536 0l12.867 7.428c1.403.81 2.268 2.308 2.268 3.928v34.804c0 1.62-.865 3.118-2.268 3.928l-12.866 7.428c-1.403.81-3.132.81-4.536 0l-12.867-7.429c-1.404-.809-2.269-2.306-2.269-3.926z" fill="#deecf1"/></g></g></svg>