<svg id="Capa_1" enable-background="new 0 0 511.999 511.999" height="512" viewBox="0 0 511.999 511.999" width="512" xmlns="http://www.w3.org/2000/svg"><g><g><path d="m446.004 63.562h-380.013c-14.26 0-25.819 11.56-25.819 25.819v312.024h431.652v-312.024c0-14.26-11.56-25.819-25.82-25.819z" fill="#678d98"/><path d="m471.824 89.381v312.02h-45.324v-312.02c0-14.262-11.557-25.819-25.819-25.819h45.323c14.262 0 25.82 11.558 25.82 25.819z" fill="#537983"/><path d="m70.172 336.993v-228.535c0-8.227 6.669-14.896 14.896-14.896h341.859c8.227 0 14.896 6.669 14.896 14.896v228.535c0 8.227-6.669 14.896-14.896 14.896h-341.859c-8.227.001-14.896-6.669-14.896-14.896z" fill="#deecf1"/><g><path d="m367.488 93.562 18.326 27.296-18.326 18.014c0 20.53-16.64 37.16-37.16 37.16-20.53 0-37.17-16.63-37.17-37.16l-22.544-19.143 22.544-26.167z" fill="#ffe177"/><path d="m218.828 93.562 25.81 21.614-25.81 23.696c0 20.53-16.64 37.16-37.16 37.16-20.53 0-37.17-16.63-37.17-37.16l-17.319-23.696 17.319-21.614z" fill="#ffe177"/><g fill="#fd8087"><path d="m85.068 93.562h59.43v45.31c0 20.53-16.64 37.16-37.16 37.16-20.53 0-37.17-16.63-37.17-37.16v-30.41c0-8.23 6.67-14.9 14.9-14.9z"/><path d="m441.818 108.462v30.41c0 20.53-16.64 37.16-37.16 37.16-20.53 0-37.17-16.63-37.17-37.16v-45.31h59.44c8.22 0 14.89 6.67 14.89 14.9z"/><path d="m70.168 108.462v30.41c0 20.53 16.64 37.16 37.17 37.16 20.52 0 37.16-16.63 37.16-37.16"/><path d="m293.158 93.562v45.31c0 20.53-16.64 37.16-37.16 37.16-20.53 0-37.17-16.63-37.17-37.16v-45.31z"/></g></g><path d="m492.106 381.889h-472.217c-8.072 0-13.986 7.6-12.004 15.425l5.263 20.768c4.523 17.85 20.587 30.352 39.002 30.352h407.695c18.415 0 34.479-12.501 39.002-30.352l5.263-20.768c1.982-7.825-3.932-15.425-12.004-15.425z" fill="#7ca1b1"/><path d="m504.111 397.325-5.257 20.758c-4.517 17.857-20.592 30.351-39.008 30.351h-87.656c18.416 0 34.476-12.494 39.008-30.351l5.258-20.758c1.979-7.826-3.928-15.425-11.996-15.425h87.655c8.068 0 13.99 7.599 11.996 15.425z" fill="#678d98"/></g><path d="m296.621 415.167h-83.278c-10.434 0-19.588-6.955-22.385-17.006l-4.362-15.675h136.771l-4.362 15.675c-2.796 10.051-11.95 17.006-22.384 17.006z" fill="#537983"/><path d="m449.322 336.998v-107.82c0-4.142-3.357-7.5-7.5-7.5s-7.5 3.358-7.5 7.5v107.82c0 4.075-3.315 7.39-7.391 7.39h-341.859c-4.081 0-7.4-3.315-7.4-7.39v-164.744c2.762 2.448 5.839 4.595 9.224 6.34 1.1.566 2.273.835 3.431.835 2.718 0 5.341-1.482 6.672-4.065 1.898-3.682.452-8.205-3.229-10.103-9.929-5.118-16.097-15.228-16.097-26.384v-30.41-.01c0-4.081 3.319-7.4 7.4-7.4h51.93v37.815.004c0 11.159-6.164 21.269-16.087 26.384-3.682 1.898-5.128 6.421-3.229 10.103 1.331 2.583 3.954 4.065 6.672 4.065 1.157 0 2.331-.269 3.431-.835 6.917-3.566 12.6-8.758 16.731-14.959 8.019 11.987 21.677 19.898 37.153 19.898 15.483 0 29.146-7.922 37.161-19.923 8.017 12.001 21.683 19.923 37.169 19.923 15.483 0 29.146-7.922 37.161-19.923 8.017 12.001 21.683 19.923 37.169 19.923 15.483 0 29.146-7.922 37.161-19.923 8.017 12.001 21.683 19.923 37.169 19.923 11.376 0 21.766-4.282 29.66-11.31v21.955c0 4.142 3.357 7.5 7.5 7.5s7.5-3.358 7.5-7.5v-85.715-.005c0-12.352-10.044-22.4-22.391-22.4h-341.861c-12.352 0-22.4 10.048-22.4 22.4v.01 228.53c0 12.346 10.049 22.39 22.4 22.39h341.859c12.347.001 22.391-10.043 22.391-22.389zm-267.651-168.465c-16.36 0-29.67-13.305-29.67-29.66v-37.815h59.33v37.815c.001 16.355-13.305 29.66-29.66 29.66zm74.331 0c-16.36 0-29.67-13.305-29.67-29.66v-37.815h59.33v37.815c0 16.355-13.306 29.66-29.66 29.66zm74.33 0c-16.36 0-29.67-13.305-29.67-29.66v-37.815h59.33v37.815c0 16.355-13.306 29.66-29.66 29.66zm103.99-60.075v.005 30.41c0 16.354-13.306 29.66-29.66 29.66-16.36 0-29.67-13.305-29.67-29.66v-37.815h51.939c4.075 0 7.391 3.319 7.391 7.4z"/><path d="m507.794 382.053c-3.793-4.871-9.509-7.665-15.682-7.665h-12.786v-285.007c0-18.373-14.947-33.32-33.319-33.32h-380.014c-18.372 0-33.319 14.947-33.319 33.32v285.007h-12.783c-6.18 0-11.9 2.798-15.694 7.677-3.793 4.877-5.097 11.11-3.576 17.095l5.261 20.759c5.369 21.208 24.396 36.019 46.271 36.019h125.33c4.143 0 7.5-3.358 7.5-7.5s-3.357-7.5-7.5-7.5h-125.331c-15 0-28.047-10.157-31.729-24.702l-5.262-20.765c-.512-2.013.33-3.494.877-4.197.548-.704 1.776-1.886 3.854-1.886l161.009.001 2.834 10.185c3.686 13.245 15.861 22.495 29.61 22.495h83.278c13.747 0 25.924-9.25 29.61-22.496l2.833-10.185 163.044-.001c2.072 0 3.299 1.178 3.846 1.881.55.705 1.395 2.189.884 4.207l-5.26 20.758c-3.69 14.546-16.739 24.705-31.73 24.705h-247.648c-4.143 0-7.5 3.358-7.5 7.5s3.357 7.5 7.5 7.5h247.649c21.862 0 40.889-14.81 46.271-36.018l5.262-20.764c1.514-5.993.205-12.227-3.59-17.103zm-460.121-292.672c0-10.102 8.218-18.32 18.319-18.32h380.014c10.102 0 18.319 8.218 18.319 18.32v285.007h-416.652zm264.11 306.172c-1.888 6.781-8.121 11.517-15.159 11.517h-83.278c-7.039 0-13.272-4.736-15.159-11.517l-1.715-6.164h117.027z"/><g><path d="m325.402 246.078-11.076 57.924c-1.131 5.917-6.306 10.196-12.331 10.196h-91.991c-6.024 0-11.199-4.279-12.331-10.196l-11.076-57.924 69.403-16.177z" fill="#2abcc8"/><path d="m331.782 246.078h-151.564c-5.026 0-9.1-4.074-9.1-9.1v-14.155c0-5.026 4.074-9.1 9.1-9.1h151.564c5.026 0 9.1 4.074 9.1 9.1v14.155c0 5.026-4.074 9.1-9.1 9.1z" fill="#2abcc8"/><path d="m161.849 281.934c1.465 1.465 3.384 2.197 5.304 2.197 1.919 0 3.839-.732 5.304-2.197l11.218-11.218 6.635 34.694c1.804 9.438 10.087 16.289 19.696 16.289h91.991c9.608 0 17.893-6.85 19.697-16.288l6.634-34.695 11.218 11.218c1.465 1.464 3.385 2.197 5.304 2.197s3.839-.732 5.304-2.197c2.929-2.929 2.929-7.678 0-10.606l-17.779-17.779c8.878-.315 16.009-7.616 16.009-16.57v-14.155c0-9.153-7.446-16.6-16.6-16.6h-151.565c-9.153 0-16.6 7.447-16.6 16.6v14.155c0 8.954 7.13 16.255 16.009 16.57l-17.779 17.779c-2.929 2.928-2.929 7.677 0 10.606zm145.112 20.659c-.455 2.379-2.543 4.105-4.965 4.105h-91.991c-2.422 0-4.509-1.726-4.964-4.105l-8.548-44.697 4.318-4.318h110.378l4.318 4.318zm-128.341-65.615v-14.155c0-.882.718-1.6 1.6-1.6h151.564c.882 0 1.6.718 1.6 1.6v14.155c0 .882-.718 1.6-1.6 1.6h-6.469c-.009 0-.017 0-.026 0h-7.884l-10.211-10.21c-2.93-2.929-7.678-2.929-10.607 0-2.802 2.802-2.916 7.264-.358 10.21h-80.454c2.558-2.946 2.444-7.409-.358-10.21-2.929-2.929-7.677-2.93-10.607 0l-10.211 10.21h-7.885c-.009 0-.017 0-.026 0h-6.468c-.883 0-1.6-.718-1.6-1.6z"/><path d="m256.002 260.216c-4.143 0-7.5 3.358-7.5 7.5v25.747c0 4.142 3.357 7.5 7.5 7.5s7.5-3.358 7.5-7.5v-25.747c0-4.142-3.358-7.5-7.5-7.5z"/><path d="m231.013 260.216c-4.143 0-7.5 3.358-7.5 7.5v25.747c0 4.142 3.357 7.5 7.5 7.5s7.5-3.358 7.5-7.5v-25.747c0-4.142-3.357-7.5-7.5-7.5z"/><path d="m280.99 260.216c-4.143 0-7.5 3.358-7.5 7.5v25.747c0 4.142 3.357 7.5 7.5 7.5s7.5-3.358 7.5-7.5v-25.747c0-4.142-3.358-7.5-7.5-7.5z"/></g></g></svg>