<svg id="Capa_1" enable-background="new 0 0 512 512" height="512" viewBox="0 0 512 512" width="512" xmlns="http://www.w3.org/2000/svg"><g><g><path d="m341.253 96.629 7.081 27.052c.712 2.719 2.797 4.866 5.493 5.657l28.578 8.385c2.811.825 5.847.049 7.918-2.022l41.574-41.574c3.128-3.128 3.128-8.199 0-11.327l-35.548-35.548c-3.128-3.128-8.199-3.128-11.327 0l-41.685 41.685c-2.011 2.012-2.805 4.939-2.084 7.692z" fill="#ffe177"/><path d="m331.493 148.085c-1.15 0-2.309-.077-3.471-.233-8.02-1.079-14.926-5.746-18.946-12.803-5.201-9.118-11.537-16.715-18.833-22.577-3.326-2.673-3.856-7.536-1.183-10.862s7.536-3.856 10.863-1.183c8.814 7.082 16.409 16.156 22.577 26.97 1.617 2.838 4.379 4.71 7.582 5.141 3.137.42 6.218-.621 8.459-2.862l24.879-24.868c3.019-3.018 7.91-3.017 10.928 0 3.017 3.018 3.017 7.909-.001 10.927l-24.882 24.872c-4.844 4.843-11.253 7.478-17.972 7.478z" fill="#537983"/></g><path d="m300.231 12.28v487.43c0 6.789-5.491 12.29-12.28 12.29h-74.348c-6.305 0-11.59-4.79-12.218-11.074l-34.944-352.353-34.944 352.353c-.628 6.284-5.913 11.074-12.228 11.074h-74.327c-6.789 0-12.28-5.501-12.28-12.29v-487.43c0-6.779 5.491-12.28 12.28-12.28h243.01c6.788 0 12.279 5.501 12.279 12.28z" fill="#7ca1b1"/><path d="m166.446 148.571-34.943 352.35c-.628 6.284-5.913 11.074-12.228 11.074h-22.582c6.82 0 12.517-5.192 13.145-11.981l33.687-362.137c0 5.903 4.79 10.693 10.693 10.693h12.228z" fill="#678d98"/><path d="m300.237 12.284v487.426c0 6.789-5.501 12.29-12.28 12.29h-35.005c6.779 0 12.28-5.501 12.28-12.29v-487.426c0-6.779-5.501-12.28-12.28-12.28h35.005c6.779 0 12.28 5.501 12.28 12.28z" fill="#678d98"/><g fill="#537983"><path d="m106.619 64.077-27.578 70.846c-.773 1.988-2.339 3.564-4.316 4.358l-42.062 16.885v-16.648l33.192-13.32 26.362-67.724z"/><path d="m300.231 139.517v16.648l-42.062-16.885c-1.988-.793-3.544-2.369-4.327-4.358l-27.568-70.846 14.392-5.604 26.362 67.724z"/><path d="m178.674 156.298h-24.457c-10.157 0-18.42-8.263-18.42-18.42v-76.603c0-4.267 15.453-4.267 15.453 0v76.604c0 1.636 1.331 2.967 2.967 2.967h24.457c1.636 0 2.967-1.331 2.967-2.967 0-4.267 3.459-7.726 7.726-7.726s7.726 3.459 7.726 7.726c0 10.156-8.262 18.419-18.419 18.419z"/><path d="m257.86 53.549v-53.549h-15.453v53.549h-151.923v-53.549h-15.453v53.549h-42.369v15.453h267.569v-15.453z"/><path d="m219.269 23.921v5.707c0 21.716-17.668 39.373-39.374 39.373h-8.622c-4.265 0-7.726-3.451-7.726-7.726 0-4.265 3.462-7.726 7.726-7.726h8.622c13.186 0 23.921-10.724 23.921-23.921v-5.707c0-13.187-10.734-23.921-23.921-23.921h31.245c5.1 6.634 8.129 14.927 8.129 23.921z"/></g><path d="m174.618 38.366h-1.086c-4.268 0-7.726-3.459-7.726-7.726s3.459-7.726 7.726-7.726h1.086c4.268 0 7.726 3.459 7.726 7.726s-3.459 7.726-7.726 7.726z" fill="#deecf1"/><g><path d="m479.338 193.87v185.113c0 7.222-5.862 13.083-13.083 13.083h-94.066c-6.346 0-11.775-4.554-12.888-10.796l-13.763-77.449-13.763 77.449c-1.113 6.243-6.542 10.796-12.888 10.796h-94.056c-7.222 0-13.083-5.862-13.083-13.083v-185.113c0-5.656 4.574-10.23 10.23-10.23h247.13c5.646 0 10.23 4.574 10.23 10.23z" fill="#2abcc8"/><g fill="#0cacba"><path d="m479.336 193.866v185.112c0 7.232-5.862 13.083-13.083 13.083h-37.952c7.222 0 13.083-5.852 13.083-13.083v-185.112c0-5.645-4.574-10.23-10.23-10.23h37.952c5.656.001 10.23 4.585 10.23 10.23z"/><path d="m284.291 213.104c3.905 1.718 5.679 6.276 3.962 10.181l-.003.006c-21.685 49.284-73.174 57.515-75.358 57.835l-1.143.175v-15.669c7.18-1.463 45.812-10.961 62.357-48.563l.001-.002c1.717-3.907 6.277-5.682 10.184-3.963z"/><path d="m479.338 265.632v15.669l-1.144-.175c-2.184-.319-53.672-8.551-75.368-57.835l-.003-.006c-1.717-3.906.057-8.463 3.962-10.181 3.907-1.719 8.467.056 10.184 3.963l.001.002c16.556 37.612 55.208 47.1 62.368 48.563z"/></g><g fill="#ffe177"><path d="m328.537 254.558c-4.268 0-7.726-3.459-7.726-7.726v-38.606c0-4.267 3.459-7.726 7.726-7.726s7.726 3.459 7.726 7.726v38.606c0 4.267-3.458 7.726-7.726 7.726z"/><path d="m362.547 254.558c-4.268 0-7.726-3.459-7.726-7.726v-38.606c0-4.267 3.459-7.726 7.726-7.726s7.726 3.459 7.726 7.726v38.606c.001 4.267-3.458 7.726-7.726 7.726z"/></g></g><path d="m345.538 303.821-13.763 77.449c-1.113 6.243-6.542 10.796-12.888 10.796h-28.979c11.497 0 21.181-8.581 22.571-19.996l6.11-50.04c1.269-10.396 10.096-18.21 20.569-18.21h6.38z" fill="#0cacba"/></g></svg>