<svg id="Capa_1" enable-background="new 0 0 512 512" height="512" viewBox="0 0 512 512" width="512" xmlns="http://www.w3.org/2000/svg"><g><g><path d="m13.4 153.751h49.021v126.615c0 8.558 6.939 15.497 15.497 15.497h158.204c8.565 0 15.497-6.939 15.497-15.497v-126.615h49.029c9.279 0 15.747-9.213 12.583-17.94l-32.7-90.368c-4.29-11.862-13.929-20.993-25.997-24.636-12.737-3.841-25.725-6.755-38.852-8.705-.066-.007-.125-.022-.191-.029-7.984-1.177-16.012-2.001-24.076-2.465-5.261-.309-10.537-.464-15.82-.464h-37.137c-13.436 0-26.836.993-40.088 2.958-13.127 1.95-26.107 4.864-38.852 8.705-12.068 3.642-21.707 12.774-25.997 24.636l-32.711 90.368c-3.157 8.727 3.311 17.94 12.59 17.94z" fill="#fd8087"/><g fill="#fe646f"><path d="m191.412 295.863h44.709c8.565 0 15.497-6.939 15.497-15.497v-160.272h-14.106c-10.489 0-18.991 8.503-18.991 18.991v129.669c-.001 14.967-12.134 27.109-27.109 27.109z"/><path d="m191.412 9.609c25.71 8.639 61.979 25.158 72.781 51.891 10.221 25.276 15.563 52.877 18.227 71.236 1.604 11.089-7.02 21.015-18.227 21.015h36.453c9.279 0 15.747-9.213 12.583-17.94l-32.7-90.368c-4.29-11.862-13.929-20.993-25.997-24.636-12.737-3.841-25.725-6.755-38.852-8.705-.066-.007-.125-.022-.191-.029-7.984-1.176-16.012-2.001-24.077-2.464z"/><path d="m98.307 14.23c0 26.107 26.284 47.27 58.712 47.27s58.719-21.163 58.719-47.27c0-.714-.022-1.42-.059-2.126-.066-.007-.125-.022-.191-.029-13.193-1.943-26.527-2.929-39.897-2.929h-37.137c-13.436 0-26.836.993-40.088 2.958-.037.706-.059 1.412-.059 2.126z"/><path d="m41.84 131.971v21.78h20.581v-33.657h-8.704c-6.56 0-11.877 5.318-11.877 11.877z"/></g></g><path d="m494.203 211.624c-12.503-57.518-45.038-107.933-92.116-143.156l6.876-13.497c3.224-6.328-1.612-13.772-8.704-13.399l-60.411 3.176c-7.091.373-11.12 8.281-7.252 14.237l32.948 50.732c3.868 5.956 12.732 5.491 15.956-.837l6.318-12.403c38.821 30.576 65.653 73.261 76.186 121.713 1.572 7.234 7.972 12.173 15.085 12.173 1.088 0 2.192-.115 3.298-.356 8.338-1.813 13.629-10.043 11.816-18.383z" fill="#2abcc8"/><path d="m179.407 468.289-32.948-50.733c-3.868-5.956-12.732-5.49-15.956.837l-6.318 12.403c-38.821-30.576-65.653-73.261-76.186-121.713-1.813-8.34-10.047-13.632-18.382-11.817-8.339 1.813-13.63 10.043-11.817 18.383 12.503 57.518 45.037 107.933 92.116 143.156l-6.876 13.497c-3.224 6.328 1.612 13.772 8.704 13.399l60.411-3.176c7.091-.373 11.119-8.281 7.252-14.236z" fill="#2abcc8"/><g><path d="m500.364 324.834h-263.788c-6.426 0-11.636 5.209-11.636 11.636v154.75c0 6.426 5.209 11.636 11.636 11.636h263.789c6.426 0 11.636-5.209 11.636-11.636v-154.75c-.001-6.427-5.21-11.636-11.637-11.636z" fill="#5de1c4"/><path d="m512 336.47v154.744c0 6.428-5.213 11.641-11.641 11.641h-28.588c6.428 0 11.631-5.213 11.631-11.641v-154.744c0-6.429-5.202-11.641-11.631-11.641h28.588c6.428-.001 11.641 5.212 11.641 11.641z" fill="#0ed2b3"/><circle cx="368.47" cy="413.844" fill="#0ed2b3" r="62.827"/><path d="m377.561 406.197-.67-.236c-6.452-2.279-12.024-4.247-14.441-6.538-1.074-1.018-1.495-3.115-1.024-5.1.288-1.214 1.149-3.364 3.678-4.126 6.272-1.888 10.327 1.281 10.769 1.648 3.279 2.729 8.152 2.283 10.881-.997s2.283-8.152-.997-10.881c-2.474-2.059-5.903-3.915-9.961-4.951v-1.656c0-4.267-3.459-7.726-7.726-7.726s-7.726 3.459-7.726 7.726v2.144c-7.001 2.226-12.208 7.9-13.952 15.251-1.761 7.421.319 15.04 5.429 19.884 4.802 4.552 11.476 6.909 19.925 9.893l.667.235c5.478 1.937 5.641 6.121 5.251 8.443-.659 3.921-3.958 8.158-9.643 8.195-6.08.04-7.799-.232-12.366-3.22-3.571-2.337-8.359-1.336-10.696 2.236-2.336 3.571-1.335 8.36 2.236 10.696 4.999 3.27 8.775 4.737 13.15 5.349v1.866c0 4.267 3.459 7.726 7.726 7.726s7.726-3.459 7.726-7.726v-2.679c9.576-3.066 15.701-11.527 17.105-19.881 1.913-11.378-4.252-21.656-15.341-25.575z" fill="#5de1c4"/><g><g><path d="m483.952 421.571h-24.37c-4.267 0-7.726-3.459-7.726-7.726s3.459-7.726 7.726-7.726h24.37c4.267 0 7.726 3.459 7.726 7.726.001 4.266-3.459 7.726-7.726 7.726z" fill="#0ed2b3"/></g><g><path d="m277.358 421.571h-24.37c-4.267 0-7.726-3.459-7.726-7.726s3.459-7.726 7.726-7.726h24.37c4.267 0 7.726 3.459 7.726 7.726 0 4.266-3.459 7.726-7.726 7.726z" fill="#0ed2b3"/></g></g></g></g></svg>