<svg id="Capa_1" enable-background="new 0 0 512 512" height="512" viewBox="0 0 512 512" width="512" xmlns="http://www.w3.org/2000/svg"><g><g><g><path d="m110.437 132.633 13.708-23.428c1.378-2.355 1.42-5.259.112-7.654l-13.86-25.371c-1.363-2.495-3.98-4.047-6.823-4.047h-57.071c-4.294 0-7.775 3.481-7.775 7.775v48.799c0 4.294 3.481 7.775 7.775 7.775h57.224c2.761-.001 5.316-1.466 6.71-3.849z" fill="#ffe177"/></g><g><path d="m328.884 17.382c28.658 26.077 72.45 26.077 101.108 0l31.137 68.781-54.884 78.658-77.362-28.841-24.919-76.036z" fill="#0cacba"/><path d="m477.198 87.411v-70.033c0-5.453-4.42-9.873-9.873-9.873h-27.449c-5.453 0-9.873 4.42-9.873 9.873v31.611c0 27.926-22.639 50.565-50.565 50.565-27.926 0-50.565-22.639-50.565-50.565v-31.611c0-5.453-4.42-9.873-9.873-9.873h-27.449c-5.453 0-9.873 4.42-9.873 9.873v70.033c0 14.238-5.991 27.818-16.507 37.417l-2.901 2.648c-5.02 4.582-7.88 11.065-7.88 17.862v214.162c0 8.326 6.75 15.076 15.076 15.076h219.942c8.326 0 15.076-6.75 15.076-15.076v-214.162c0-6.797-2.86-13.28-7.88-17.862l-2.901-2.648c-10.514-9.599-16.505-23.179-16.505-37.417z" fill="#2abcc8"/><path d="m504.485 145.338v214.157c0 8.33-6.75 15.08-15.08 15.08h-24.82c8.33 0 15.08-6.75 15.08-15.08v-214.157c0-6.8-2.86-13.28-7.88-17.87l-2.9-2.64c-10.52-9.6-16.51-23.18-16.51-37.42v-70.038c0-5.45-4.42-9.87-9.87-9.87h24.82c5.45 0 9.87 4.42 9.87 9.87v70.039c0 14.24 5.99 27.82 16.51 37.42l2.9 2.64c5.02 4.589 7.88 11.069 7.88 17.869z" fill="#0cacba"/></g><g><path d="m23.712 332.473h59.341v153.269c0 10.359 8.4 18.759 18.759 18.759h191.508c10.368 0 18.759-8.4 18.759-18.759v-153.269h59.35c11.232 0 19.062-11.152 15.232-21.716l-39.584-109.391c-5.193-14.359-16.862-25.413-31.47-29.822-15.419-4.65-31.14-8.177-47.031-10.537-.08-.009-.151-.027-.232-.036-9.664-1.425-19.382-2.423-29.145-2.984-6.369-.374-12.755-.561-19.151-.561h-44.955c-16.265 0-32.485 1.203-48.527 3.581-15.891 2.361-31.603 5.888-47.031 10.537-14.608 4.409-26.277 15.463-31.47 29.822l-39.593 109.39c-3.821 10.565 4.008 21.717 15.24 21.717z" fill="#c2a1d5"/><g fill="#b289c9"><path d="m239.199 504.5h54.121c10.368 0 18.759-8.4 18.759-18.759v-194.011h-17.076c-12.697 0-22.989 10.293-22.989 22.989v156.966c-.001 18.118-14.689 32.815-32.815 32.815z"/><path d="m239.199 157.987c31.122 10.457 75.027 30.454 88.102 62.815 12.372 30.597 18.839 64.008 22.063 86.232 1.942 13.423-8.498 25.439-22.063 25.439h44.127c11.232 0 19.062-11.152 15.232-21.716l-39.584-109.391c-5.193-14.359-16.862-25.413-31.47-29.822-15.419-4.65-31.14-8.177-47.031-10.537-.08-.009-.151-.027-.232-.036-9.664-1.425-19.382-2.423-29.144-2.984z"/><path d="m126.494 163.58c0 31.603 31.817 57.221 71.072 57.221s71.081-25.618 71.081-57.221c0-.864-.027-1.719-.071-2.574-.08-.009-.151-.027-.232-.036-15.971-2.351-32.111-3.545-48.296-3.545h-44.955c-16.265 0-32.485 1.203-48.527 3.581-.045.855-.072 1.711-.072 2.574z"/><path d="m58.139 306.108v26.365h24.914v-40.743h-10.536c-7.941 0-14.378 6.437-14.378 14.378z"/></g></g></g><g><path d="m501.658 121.924-2.894-2.634c-8.939-8.157-14.066-19.777-14.066-31.88v-15.53c0-4.142-3.358-7.5-7.5-7.5s-7.5 3.358-7.5 7.5v15.53c0 16.309 6.909 31.967 18.961 42.966l2.888 2.629c3.458 3.161 5.441 7.657 5.441 12.334v214.161c0 4.18-3.4 7.58-7.58 7.58h-169.83v-27.11h51.85c7.719 0 14.973-3.773 19.405-10.093 4.431-6.319 5.506-14.424 2.878-21.679l-39.581-109.393c-5.98-16.503-19.574-29.38-36.362-34.444-15.787-4.77-32.05-8.404-48.333-10.8-2.508-.371-5.025-.703-7.546-1.018v-7.203c0-4.677 1.983-9.173 5.429-12.323l2.907-2.646c12.045-10.992 18.954-26.651 18.954-42.96v-70.041c0-1.307 1.063-2.37 2.37-2.37h27.45c1.312 0 2.38 1.063 2.38 2.37v31.62c0 15.507 6.04 30.086 17.004 41.05 10.956 10.969 25.537 17.009 41.056 17.009 32.02 0 58.07-26.045 58.07-58.06v-31.619c0-1.307 1.063-2.37 2.37-2.37h27.45c1.307 0 2.37 1.063 2.37 2.37v19.63c0 4.142 3.358 7.5 7.5 7.5s7.5-3.358 7.5-7.5v-19.63c0-9.578-7.792-17.37-17.37-17.37h-27.45c-8.274 0-15.203 5.819-16.94 13.576-25.241 21.266-61.742 21.271-86.987.012-1.734-7.763-8.671-13.588-16.954-13.588h-27.45c-9.578 0-17.37 7.792-17.37 17.37v70.04c0 12.103-5.126 23.723-14.059 31.874l-2.913 2.651c-6.558 5.996-10.319 14.527-10.319 23.405v5.674c-8.941-.712-17.912-1.084-26.84-1.084h-44.96c-6.397 0-12.784.186-19.155.546-.102-7.144.887-14.558 2.958-22.125 2.084-7.61.547-15.556-4.218-21.801-4.722-6.19-11.901-9.74-19.695-9.74h-4.765l-13.235-24.226c-2.68-4.904-7.816-7.951-13.405-7.951h-57.07c-8.422 0-15.274 6.852-15.274 15.275v48.799c0 8.423 6.852 15.275 15.274 15.275h57.225c5.404 0 10.456-2.897 13.184-7.562l13.708-23.429c.225-.385.425-.781.614-1.181h3.746c3.077 0 5.909 1.399 7.77 3.838 1.903 2.495 2.514 5.681 1.676 8.742-2.539 9.277-3.684 18.417-3.454 27.277-21.533 2.182-42.82 6.416-63.6 12.692-16.791 5.069-30.385 17.945-36.366 34.451l-2.14 5.92c-1.408 3.896.608 8.195 4.504 9.603 3.895 1.41 8.195-.608 9.603-4.504l2.138-5.914c4.374-12.069 14.316-21.488 26.597-25.195 12.383-3.74 24.957-6.713 37.656-8.938 3.803 32.788 37.419 58.519 78.203 58.519 40.787 0 74.405-25.729 78.211-58.513 12.696 2.222 25.327 5.208 37.655 8.933 12.278 3.704 22.22 13.122 26.593 25.191l39.582 109.394c.98 2.705.596 5.606-1.055 7.96s-4.248 3.705-7.124 3.705h-51.847v-33.242c0-4.142-3.358-7.5-7.5-7.5s-7.5 3.358-7.5 7.5v40.674c0 .023-.003.045-.003.068v101.16c0 4.142 3.358 7.5 7.5 7.5s7.5-3.358 7.5-7.5v-51.55h169.83c12.451 0 22.58-10.129 22.58-22.58v-214.161c.001-8.878-3.761-17.409-10.33-23.416zm-122.22-77.484c15.336 0 30.19-4.236 43.07-12.115v16.665c0 23.743-19.321 43.06-43.07 43.06-11.509 0-22.321-4.479-30.447-12.613-8.134-8.134-12.613-18.947-12.613-30.447v-16.659c12.878 7.875 27.728 12.109 43.06 12.109zm-275.474 84.405c-.049.084-.14.136-.237.136h-57.225c-.151 0-.274-.124-.274-.275v-48.798c0-.151.123-.275.274-.275h57.071c.101 0 .193.055.241.143l9.306 17.034h-12.282c-4.142 0-7.5 3.358-7.5 7.5s3.358 7.5 7.5 7.5h13.092zm93.602 84.456c-33.354 0-60.77-20.198-63.353-45.774 13.532-1.725 27.18-2.597 40.876-2.597h44.96c13.615 0 27.334.877 40.878 2.604-2.588 25.573-30.006 45.767-63.361 45.767z"/><path d="m312.078 461.13c-4.142 0-7.5 3.358-7.5 7.5v17.11c0 6.208-5.051 11.26-11.26 11.26h-191.5c-6.209 0-11.26-5.051-11.26-11.26v-153.27c0-.013-.002-.026-.002-.039v-40.703c0-4.142-3.358-7.5-7.5-7.5s-7.5 3.358-7.5 7.5v33.242h-51.847c-2.876 0-5.473-1.351-7.124-3.705s-2.035-5.255-1.054-7.963l25.57-70.66c1.41-3.895-.605-8.195-4.5-9.604-3.896-1.412-8.195.605-9.604 4.5l-25.569 70.657c-2.63 7.258-1.555 15.364 2.876 21.683 4.432 6.32 11.686 10.093 19.405 10.093h51.85v145.77c0 14.479 11.78 26.26 26.26 26.26h191.5c14.479 0 26.26-11.78 26.26-26.26v-17.11c-.001-4.143-3.358-7.501-7.501-7.501z"/></g></g></svg>