<svg id="Capa_1" enable-background="new 0 0 512 512" height="512" viewBox="0 0 512 512" width="512" xmlns="http://www.w3.org/2000/svg"><g><g><path d="m106.056 128.91 14.121-24.135c1.419-2.426 1.463-5.418.116-7.885l-14.279-26.137c-1.404-2.57-4.1-4.169-7.029-4.169h-58.794c-4.423 0-8.009 3.586-8.009 8.009v50.272c0 4.423 3.586 8.009 8.009 8.009h58.951c2.846 0 5.477-1.509 6.914-3.964z" fill="#ffe177"/><path d="m145.73 163.254c-3.856 0-7.19-2.881-7.661-6.805-1.39-11.557-.381-23.68 3-36.031.864-3.154.234-6.436-1.726-9.006-1.917-2.513-4.835-3.954-8.005-3.954h-35.17c-4.267 0-7.726-3.459-7.726-7.726s3.459-7.726 7.726-7.726h35.171c8.03 0 15.425 3.657 20.29 10.034 4.908 6.434 6.492 14.62 4.345 22.459-2.85 10.413-3.712 20.542-2.562 30.106.51 4.236-2.512 8.084-6.748 8.594-.314.036-.626.055-.934.055z" fill="#678d98"/></g><g><path d="m331.095 10.18c29.523 26.864 74.637 26.864 104.16 0l32.077 70.857-56.54 81.032-79.697-29.712-25.671-78.331z" fill="#0cacba"/><path d="m483.886 82.323v-72.147c0-5.617-4.554-10.171-10.171-10.171h-28.277c-5.617 0-10.171 4.554-10.171 10.171v32.565c0 28.769-23.322 52.091-52.091 52.091-28.769 0-52.091-23.322-52.091-52.091v-32.565c0-5.617-4.554-10.171-10.171-10.171h-28.277c-5.617 0-10.171 4.554-10.171 10.171v72.147c0 14.667-6.172 28.658-17.005 38.546l-2.988 2.728c-5.171 4.721-8.118 11.399-8.118 18.401v220.626c0 8.578 6.954 15.531 15.531 15.531h226.58c8.578 0 15.531-6.954 15.531-15.531v-220.626c0-7.002-2.946-13.68-8.118-18.401l-2.988-2.728c-10.833-9.888-17.005-23.879-17.005-38.546z" fill="#2abcc8"/><path d="m511.997 141.998v220.621c0 8.581-6.954 15.535-15.535 15.535h-25.569c8.581 0 15.535-6.954 15.535-15.535v-220.621c0-7.005-2.946-13.68-8.118-18.409l-2.987-2.72c-10.837-9.89-17.008-23.879-17.008-38.549v-72.152c-.001-5.615-4.554-10.168-10.168-10.168h25.569c5.614 0 10.168 4.553 10.168 10.168v72.153c0 14.67 6.171 28.659 17.008 38.549l2.988 2.72c5.17 4.728 8.117 11.403 8.117 18.408z" fill="#0cacba"/></g><g><path d="m16.713 334.781h61.132v157.894c0 10.672 8.653 19.325 19.325 19.325h197.288c10.681 0 19.325-8.653 19.325-19.325v-157.894h61.141c11.571 0 19.637-11.489 15.691-22.372l-40.779-112.692c-5.35-14.792-17.37-26.18-32.419-30.722-15.884-4.79-32.08-8.424-48.45-10.855-.083-.009-.156-.028-.239-.037-9.956-1.468-19.967-2.496-30.024-3.074-6.561-.386-13.14-.578-19.729-.578h-46.312c-16.756 0-33.466 1.239-49.992 3.689-16.37 2.432-32.557 6.066-48.45 10.855-15.049 4.542-27.07 15.93-32.419 30.722l-40.789 112.692c-3.937 10.883 4.129 22.372 15.7 22.372z" fill="#c2a1d5"/><g fill="#b289c9"><path d="m238.703 512h55.754c10.681 0 19.325-8.653 19.325-19.325v-199.866h-17.591c-13.08 0-23.683 10.603-23.683 23.683v161.703c0 18.664-15.131 33.805-33.805 33.805z"/><path d="m238.703 155.029c32.062 10.773 77.291 31.373 90.761 64.71 12.746 31.52 19.408 65.94 22.729 88.834 2 13.829-8.754 26.207-22.729 26.207h45.459c11.571 0 19.637-11.489 15.691-22.372l-40.779-112.692c-5.35-14.792-17.37-26.18-32.419-30.722-15.884-4.79-32.08-8.424-48.45-10.855-.083-.009-.156-.028-.239-.037-9.955-1.467-19.967-2.495-30.024-3.073z"/><path d="m122.597 160.791c0 32.557 32.777 58.948 73.217 58.948s73.226-26.391 73.226-58.948c0-.89-.027-1.771-.073-2.652-.083-.009-.156-.028-.239-.037-16.453-2.422-33.08-3.652-49.753-3.652h-46.312c-16.756 0-33.466 1.239-49.992 3.689-.046.881-.074 1.762-.074 2.652z"/><path d="m52.179 307.62v27.16h25.666v-41.972h-10.854c-8.18.001-14.812 6.632-14.812 14.812z"/></g></g></g></svg>