<svg id="Capa_1" enable-background="new 0 0 512 512" height="512" viewBox="0 0 512 512" width="512" xmlns="http://www.w3.org/2000/svg"><g><g><path d="m476.935 305.248h-441.87v187.884c0 6.276 5.087 11.363 11.363 11.363h419.144c6.276 0 11.363-5.087 11.363-11.363z" fill="#deecf1"/><path d="m476.935 305.247v187.886c0 6.273-5.085 11.368-11.368 11.368h-41.73c6.273 0 11.357-5.095 11.357-11.368v-187.886z" fill="#cbe5e8"/><path d="m477.879 329.373h-443.757c-4.727 0-8.56-3.832-8.56-8.56v-39.485c0-4.727 3.832-8.56 8.56-8.56h443.757c4.727 0 8.56 3.832 8.56 8.56v39.485c-.001 4.727-3.833 8.56-8.56 8.56z" fill="#ffe177"/><path d="m486.438 281.323v39.49c0 4.731-3.834 8.554-8.565 8.554h-52.348c4.731 0 8.554-3.824 8.554-8.554v-39.49c0-4.72-3.824-8.554-8.554-8.554h52.348c4.731-.001 8.565 3.834 8.565 8.554z" fill="#fece85"/><g><path d="m305.663 104.009-4.672-81.409c-.225-3.924-1.885-7.628-4.665-10.408-7.227-7.227-19.281-5.928-24.803 2.672l-28.362 44.175 39.102 64.798z" fill="#678d98"/><path d="m123.098 154.537 29.049 54.603c17.399 6.413 98.441 10.917 111.136-2.586l18.98-119.378-39.097-28.135z" fill="#deecf1"/><path d="m451.819 233.954v23.173c0 8.638-7.002 15.64-15.64 15.64h-361.554c-8.638 0-15.64-7.002-15.64-15.64v-23.173l212.595-45.354z" fill="#deecf1"/><path d="m451.819 233.956v23.171c0 8.646-7.007 15.641-15.641 15.641h-48.004c8.634 0 15.641-6.995 15.641-15.641v-23.171l-158.215-39.809 25.985-5.546z" fill="#cbe5e8"/><path d="m58.989 233.953h392.832l7.031-21.199c9.869-29.714 11.401-61.566 4.418-92.088l-7.043-30.819c-2.138-9.311-12.909-13.622-20.878-8.349l-36.793 24.334c-6.698 4.43-13.967 7.826-21.567 10.107-7.601 2.292-15.534 3.468-23.562 3.468-17.138 0-33.847-5.38-47.766-15.392l-23.396-16.84-67.042 71.317c-12.696 13.503-32.244 18.111-49.643 11.698l-42.481-15.653-36.472 9.228c-8.61 2.185-15.202 9.097-16.971 17.791z" fill="#5de1c4"/><path d="m458.857 212.755-7.031 21.199h-48.004l7.031-21.199c9.869-29.714 11.401-61.566 4.418-92.088l-5.143-22.482 25.225-16.686c7.969-5.273 18.741-.962 20.879 8.349l7.043 30.819c6.984 30.521 5.452 62.374-4.418 92.088z" fill="#0ed2b3"/></g><g><path d="m150.096 376.997-23.428-13.708c-2.355-1.378-5.259-1.42-7.654-.112l-25.371 13.861c-2.495 1.363-4.047 3.98-4.047 6.823v57.072c0 4.294 3.481 7.775 7.775 7.775h48.799c4.294 0 7.775-3.481 7.775-7.775v-57.225c0-2.762-1.465-5.316-3.849-6.711z" fill="#5de1c4"/></g></g><path d="m477.878 265.269h-20.041c.956-2.534 1.483-5.277 1.483-8.141v-21.96l6.659-20.055c10.296-31.026 11.888-64.261 4.603-96.114l-7.05-30.82c-1.55-6.773-6.324-12.357-12.772-14.939-6.445-2.582-13.754-1.834-19.546 1.996l-10.63 7.03c-3.455 2.285-4.404 6.938-2.119 10.393s6.938 4.404 10.393 2.119l10.63-7.029c1.715-1.134 3.792-1.346 5.697-.583 1.908.764 3.266 2.353 3.725 4.359l7.05 30.82c6.674 29.178 5.216 59.624-4.216 88.044l-5.334 16.064h-91.67l-23.27-52.366c-6.233-14.028-20.181-23.093-35.531-23.093h-63.375l50.66-53.885 18.058 12.993c15.294 10.998 33.326 16.811 52.148 16.811 8.725 0 17.38-1.275 25.718-3.787 7.075-2.125 13.871-5.131 20.198-8.936 3.55-2.134 4.696-6.743 2.562-10.292-2.136-3.55-6.745-4.696-10.293-2.562-5.256 3.161-10.902 5.659-16.789 7.426-6.939 2.091-14.139 3.151-21.396 3.151-14.488 0-28.411-4.149-40.491-12.015l-4.46-77.726c-.331-5.769-2.764-11.195-6.849-15.28-5.057-5.057-12.039-7.518-19.147-6.752-7.111.766-13.406 4.657-17.271 10.676l-27.691 43.13-117.826 93.723-34.898 8.832c-11.334 2.856-20.165 12.107-22.496 23.566l-10.67 52.39c-.099.487-.141.978-.143 1.466 0 .012-.004.022-.004.034v.083c0 .038-.001.075 0 .112v22.979c0 2.864.527 5.607 1.483 8.141h-18.845c-8.855 0-16.06 7.204-16.06 16.06v39.485c0 6.521 3.913 12.135 9.508 14.647v157.666c0 10.405 8.461 18.87 18.86 18.87h262.42c4.143 0 7.5-3.358 7.5-7.5s-3.357-7.5-7.5-7.5h-262.419c-2.128 0-3.86-1.736-3.86-3.87v-156.257h71.699v20.349l-24.223 13.234c-4.904 2.68-7.951 7.816-7.951 13.404v57.072c0 8.422 6.852 15.275 15.275 15.275h48.799c8.422 0 15.275-6.853 15.275-15.275v-57.225c0-5.404-2.897-10.456-7.562-13.184l-24.613-14.145v-19.506h340.16v156.258c0 2.134-1.731 3.87-3.859 3.87h-121.721c-4.143 0-7.5 3.358-7.5 7.5s3.357 7.5 7.5 7.5h121.72c10.399 0 18.859-8.465 18.859-18.87v-157.669c5.595-2.513 9.508-8.127 9.508-14.647v-39.485c0-8.856-7.204-16.06-16.059-16.06zm-200.043-246.352c1.399-2.179 3.679-3.589 6.254-3.866 2.58-.278 5.103.614 6.934 2.445 1.48 1.479 2.361 3.445 2.481 5.534l3.771 65.707-43.96-31.63zm-111.855 111.1 23.232 16.941c1.333.972 2.88 1.44 4.413 1.44 2.315 0 4.598-1.068 6.066-3.082 2.44-3.347 1.706-8.038-1.641-10.479l-19.893-14.507 16.363-13.016 20.829 15.19c1.333.973 2.88 1.441 4.413 1.441 2.315 0 4.598-1.068 6.066-3.082 2.441-3.346 1.706-8.038-1.641-10.478l-17.492-12.755 13.271-10.556 18.777 13.693c1.333.973 2.88 1.441 4.413 1.441 2.315 0 4.598-1.068 6.066-3.082 2.441-3.347 1.706-8.038-1.641-10.479l-15.44-11.257 11.246-8.946 27.555 19.827-61.189 65.084c-10.658 11.336-26.977 15.182-41.575 9.803l-29.975-11.047zm-88.98 53.039c1.188-5.842 5.688-10.557 11.471-12.015l34.223-8.661 30.827 11.361-7.364 9.786c-2.451 3.253-6.343 5.196-10.411 5.196h-59.9zm-10.515 58.395h36.285c4.142 0 7.5-3.358 7.5-7.5s-3.358-7.5-7.5-7.5h-34.608l4.629-22.728h62.955c8.751 0 17.122-4.175 22.394-11.173l10.271-13.65c4.36 1.105 8.784 1.658 13.18 1.658 13.455 0 26.619-5.081 36.712-14.567h77.635c9.429 0 17.995 5.567 21.824 14.184l20.563 46.276h-200.554c-4.142 0-7.5 3.358-7.5 7.5s3.358 7.5 7.5 7.5h306.549v15.677c0 4.488-3.652 8.14-8.141 8.14h-361.554c-4.488 0-8.14-3.651-8.14-8.14zm79.823 142.02c.084.049.136.14.136.237v57.225c0 .151-.124.275-.275.275h-48.799c-.151 0-.275-.124-.275-.275v-57.073c0-.101.055-.193.143-.241l17.031-9.305v13.181c0 4.142 3.358 7.5 7.5 7.5s7.5-3.358 7.5-7.5v-13.995zm332.629-62.657c0 .584-.476 1.06-1.06 1.06h-443.755c-.584 0-1.06-.475-1.06-1.06v-39.485c0-.584.475-1.06 1.06-1.06h443.755c.584 0 1.06.475 1.06 1.06z"/></g></svg>