<svg id="Capa_1" enable-background="new 0 0 512 512" height="512" viewBox="0 0 512 512" width="512" xmlns="http://www.w3.org/2000/svg"><g><g><path d="m307.159 99.423-24.106 20.428-9.57-15.854-30.71-50.901 24.189-37.674 5.027-7.84c3.193-4.986 8.529-7.582 13.897-7.582 4.193 0 8.406 1.576 11.662 4.831 2.864 2.864 4.574 6.686 4.801 10.724z" fill="#678d98"/><path d="m307.159 99.423-24.106 20.428-9.57-15.854 8.921-64.613c1.484-10.796-5.182-20.933-15.442-23.962l5.027-7.84c3.193-4.986 8.529-7.582 13.897-7.582 4.193 0 8.406 1.576 11.662 4.831 2.864 2.864 4.574 6.686 4.801 10.724z" fill="#537983"/><path d="m119.086 151.474 29.926 56.251c17.924 6.607 101.412 11.246 114.491-2.665l19.553-122.981-40.277-28.984z" fill="#deecf1"/><path d="m457.729 233.288v23.873c0 8.898-7.214 16.112-16.112 16.112l-126.235 38.31-246.232-38.31c-8.898 0-16.112-7.214-16.112-16.112v-23.873l219.012-46.723z" fill="#deecf1"/><path d="m457.729 233.291v23.87c0 8.907-7.219 16.113-16.113 16.113l-31.802 11.155-17.651-11.155c8.895 0 16.113-7.206 16.113-16.113v-23.87l-162.991-41.011 26.77-5.714z" fill="#cbe5e8"/><path d="m464.972 211.445-7.242 21.84h-404.686l6.336-31.142 3.142-15.453 1.504-7.376c1.823-8.963 8.612-16.081 17.492-18.337l37.571-9.498 36.19 13.33 7.572 2.792c2.637.968 5.326 1.7 8.025 2.184 11.693 2.102 23.735-.247 33.728-6.511 3.389-2.133 6.552-4.718 9.385-7.726l7.263-7.726 61.801-65.746 24.106 17.348c14.34 10.322 31.555 15.865 49.212 15.865 8.262 0 16.442-1.216 24.271-3.575 7.829-2.349 15.319-5.851 22.221-10.415l37.9-25.064c8.211-5.439 19.306-.989 21.51 8.602l7.253 31.75c7.19 31.44 5.614 64.251-4.554 94.858z" fill="#5de1c4"/><path d="m361.161 233.284h-16.916l-24.621-55.403c-3.946-8.87-12.764-14.608-22.479-14.608h-92.541c3.389-2.133 6.552-4.718 9.385-7.726l7.263-7.726h75.893c15.813 0 30.184 9.344 36.602 23.787z" fill="#0ed2b3"/><path d="m170.876 169.784-15.69 20.851c-5.429 7.211-14.052 11.507-23.066 11.507h-72.74l3.142-15.453h69.599c4.183 0 8.2-1.998 10.724-5.347l12.434-16.534 7.572 2.792c2.637.968 5.326 1.7 8.025 2.184z" fill="#0ed2b3"/><path d="m464.98 211.45-7.243 21.839h-49.453l7.243-21.839c10.167-30.611 11.745-63.425 4.551-94.868l-5.298-23.16 25.987-17.19c8.21-5.432 19.306-.991 21.509 8.601l7.255 31.749c7.194 31.443 5.616 64.257-4.551 94.868z" fill="#0ed2b3"/><g fill="#678d98"><path d="m242.767 97.566c-1.579 0-3.172-.482-4.546-1.484l-24.101-17.575c-3.448-2.514-4.205-7.347-1.69-10.795 2.513-3.448 7.345-4.206 10.795-1.69l24.101 17.575c3.448 2.514 4.205 7.347 1.69 10.795-1.512 2.074-3.864 3.174-6.249 3.174z"/><path d="m213.98 121.056c-1.579 0-3.172-.482-4.546-1.484l-24.101-17.575c-3.448-2.515-4.205-7.348-1.691-10.795s7.346-4.205 10.795-1.691l24.101 17.575c3.448 2.515 4.205 7.348 1.691 10.795-1.512 2.074-3.864 3.175-6.249 3.175z"/><path d="m186.944 143.162c-1.579 0-3.172-.482-4.546-1.484l-24.101-17.575c-3.448-2.514-4.205-7.347-1.69-10.795 2.513-3.448 7.346-4.206 10.795-1.69l24.101 17.575c3.448 2.514 4.205 7.347 1.69 10.795-1.512 2.074-3.865 3.174-6.249 3.174z"/></g></g><path d="m483.603 306.735h-455.206v193.554c0 6.465 5.241 11.706 11.706 11.706h431.794c6.465 0 11.706-5.241 11.706-11.706z" fill="#deecf1"/><g><path d="m146.127 378.589-24.136-14.121c-2.426-1.419-5.418-1.463-7.885-.116l-26.136 14.278c-2.57 1.404-4.169 4.1-4.169 7.029v58.794c0 4.423 3.586 8.009 8.009 8.009h50.272c4.423 0 8.009-3.586 8.009-8.009v-58.952c.001-2.844-1.508-5.476-3.964-6.912z" fill="#5de1c4"/><path d="m116.946 397.131c-4.267 0-7.726-3.459-7.726-7.726v-59.878c0-4.267 3.459-7.726 7.726-7.726s7.726 3.459 7.726 7.726v59.878c.001 4.267-3.459 7.726-7.726 7.726z" fill="#678d98"/></g><path d="m483.603 306.733v193.556c0 6.462-5.238 11.711-11.711 11.711h-42.99c6.462 0 11.7-5.249 11.7-11.711v-193.556z" fill="#cbe5e8"/><path d="m484.575 331.587h-457.15c-4.87 0-8.818-3.948-8.818-8.818v-40.677c0-4.87 3.948-8.818 8.818-8.818h457.15c4.87 0 8.818 3.948 8.818 8.818v40.677c0 4.87-3.948 8.818-8.818 8.818z" fill="#ffe177"/><path d="m493.393 282.087v40.682c0 4.873-3.95 8.813-8.823 8.813h-53.928c4.873 0 8.813-3.939 8.813-8.813v-40.682c0-4.863-3.939-8.813-8.813-8.813h53.928c4.873 0 8.823 3.95 8.823 8.813z" fill="#fece85"/></g></svg>