<svg id="Capa_1" enable-background="new 0 0 511.998 511.998" height="512" viewBox="0 0 511.998 511.998" width="512" xmlns="http://www.w3.org/2000/svg"><g><g><path d="m422.301 143.753-33.819 129.018h-27.51l-11.1-113.918 3.99-64.15 54.909 39.35z" fill="#7ca1b1"/><path d="m422.301 143.753-33.819 129.018h-9.87l5.14-122.008 25.019-16.71z" fill="#678d98"/><path d="m476.933 305.247h-441.868v187.883c0 6.276 5.087 11.363 11.363 11.363h419.142c6.276 0 11.363-5.087 11.363-11.363z" fill="#deecf1"/><path d="m476.933 305.245v187.885c0 6.273-5.085 11.368-11.368 11.368h-41.73c6.273 0 11.357-5.095 11.357-11.368v-187.885z" fill="#cbe5e8"/><path d="m477.876 329.371h-443.754c-4.727 0-8.56-3.832-8.56-8.56v-39.485c0-4.727 3.832-8.56 8.56-8.56h443.755c4.727 0 8.56 3.832 8.56 8.56v39.485c-.001 4.728-3.833 8.56-8.561 8.56z" fill="#fd8087"/><path d="m486.436 281.322v39.49c0 4.73-3.834 8.554-8.565 8.554h-52.348c4.731 0 8.554-3.824 8.554-8.554v-39.49c0-4.72-3.824-8.554-8.554-8.554h52.348c4.731-.001 8.565 3.834 8.565 8.554z" fill="#fe646f"/><path d="m98.757 272.767h65.549c22.575 0 43.793-10.776 57.111-29.004l28.384-38.849c16.12-22.063 40.099-37.092 66.983-41.98l105.515-19.186s29.565-71.032-21.59-129.722c-7.1-8.146-19.539-8.773-27.328-1.281l-154.077 148.204c-12.241 11.774-28.565 18.351-45.549 18.351h-25.252c-28.833 0-55.089 16.604-67.447 42.655l-6.186 13.04c-8.324 17.542 4.47 37.772 23.887 37.772z" fill="#fd8087"/><path d="m422.299 143.749-38.55 7.01 1.84-7.01s28.15-67.629-18.01-125.428l5.8-5.58c7.79-7.49 20.23-6.86 27.329 1.28 51.161 58.689 21.591 129.728 21.591 129.728z" fill="#fe646f"/><path d="m227.825 234.988-6.41 8.77c-13.32 18.23-34.53 29.01-57.109 29.01h-65.549c-19.42 0-32.21-20.23-23.89-37.78z" fill="#7ca1b1"/><g><path d="m151.005 376.996-23.428-13.708c-2.355-1.378-5.259-1.42-7.654-.112l-25.371 13.861c-2.495 1.363-4.047 3.98-4.047 6.823v57.071c0 4.294 3.481 7.775 7.775 7.775h48.799c4.294 0 7.775-3.481 7.775-7.775v-57.224c0-2.763-1.465-5.317-3.849-6.711z" fill="#7ca1b1"/></g></g><path d="m477.876 265.267h-79.676l13.134-50.097c1.051-4.006-1.346-8.106-5.353-9.157-4.005-1.049-8.105 1.346-9.157 5.353l-4.228 16.125h-28.498l-6.28-64.394 54.242-9.865-6.366 24.294c-1.05 4.007 1.347 8.106 5.354 9.156.638.167 1.277.247 1.906.247 3.327 0 6.367-2.231 7.25-5.601l9.231-35.226c1.28-3.249 7.792-20.846 8.748-44.908 1.383-34.782-9.62-66.628-31.818-92.093-4.746-5.449-11.598-8.756-18.797-9.075-7.285-.322-14.147 2.277-19.388 7.316l-131.99 126.95c-2.985 2.871-3.078 7.619-.206 10.604 2.87 2.985 7.618 3.079 10.604.207l131.989-126.95c2.25-2.164 5.206-3.283 8.327-3.142 3.163.14 6.057 1.54 8.151 3.943 19.797 22.711 29.271 50 28.159 81.107-.611 17.121-4.434 30.805-6.506 37.079l-101.272 18.417c-28.909 5.259-54.37 21.218-71.694 44.935l-19.722 26.998h-137.286l1.102-2.321c11.052-23.311 34.863-38.373 60.663-38.373h25.26c17.266 0 34.036-6.137 47.222-17.282 3.163-2.674 3.561-7.406.887-10.569-2.675-3.163-7.406-3.561-10.57-.887-10.481 8.859-23.812 13.738-37.538 13.738h-25.26c-31.563 0-60.696 18.428-74.216 46.944l-6.19 13.042c-5.017 10.575-4.276 22.794 1.98 32.687.172.272.361.53.54.797h-36.492c-8.855 0-16.06 7.204-16.06 16.06v39.485c0 6.52 3.912 12.134 9.507 14.647v26.769c0 4.142 3.357 7.5 7.5 7.5s7.5-3.358 7.5-7.5v-25.357h71.699v20.349l-24.223 13.234c-4.904 2.68-7.951 7.816-7.951 13.404v57.072c0 8.422 6.852 15.275 15.275 15.275h48.799c8.422 0 15.275-6.853 15.275-15.275v-57.225c0-5.404-2.897-10.456-7.562-13.184l-24.613-14.145v-19.506h340.16v156.257c0 2.134-1.731 3.87-3.859 3.87h-419.14c-2.128 0-3.859-1.736-3.859-3.87v-95.9c0-4.142-3.357-7.5-7.5-7.5s-7.5 3.358-7.5 7.5v95.9c0 10.405 8.46 18.87 18.859 18.87h419.141c10.399 0 18.859-8.465 18.859-18.87v-157.667c5.595-2.513 9.507-8.127 9.507-14.647v-39.485c-.001-8.856-7.205-16.06-16.06-16.06zm-89.212-22.775-5.971 22.775h-14.91l-2.221-22.775zm-161.188 5.7 28.38-38.85c15.045-20.598 37.158-34.457 62.266-39.025l24.888-4.526 9.703 99.477h-142.396c6.505-4.723 12.319-10.456 17.159-17.076zm-147.266-5.7h132.69c-11.936 14.312-29.785 22.756-48.526 22.775h-65.646c-6.521-.01-12.492-3.303-15.978-8.815-2.672-4.225-3.534-9.209-2.54-13.96zm66.097 140.977c.084.049.136.14.136.237v57.225c0 .151-.124.275-.275.275h-48.799c-.151 0-.275-.124-.275-.275v-57.072c0-.101.055-.193.143-.241l17.031-9.305v13.181c0 4.142 3.358 7.5 7.5 7.5s7.5-3.358 7.5-7.5v-13.995zm332.628-62.658c0 .584-.476 1.06-1.06 1.06h-356.096c-.003 0-.006 0-.01 0s-.006 0-.01 0h-87.637c-.584 0-1.06-.475-1.06-1.06v-39.485c0-.584.476-1.06 1.06-1.06h443.754c.584 0 1.06.475 1.06 1.06v39.485z"/></g></svg>