<svg id="Capa_1" enable-background="new 0 0 512 512" height="512" viewBox="0 0 512 512" width="512" xmlns="http://www.w3.org/2000/svg"><g><path d="m332.633 51.797h-293.546c-9.486 0-17.322 7.404-17.861 16.874l-21.197 372.627c-.584 10.263 7.581 18.906 17.861 18.906h335.938c10.28 0 18.445-8.643 17.861-18.906l-21.195-372.627c-.539-9.471-8.376-16.874-17.861-16.874z" fill="#2abcc8"/><path d="m353.821 460.201h-47.594c10.281 0 18.451-8.643 17.863-18.904l-21.201-372.626c-.536-9.467-8.375-16.874-17.853-16.874h47.595c9.488 0 17.317 7.407 17.863 16.874l21.191 372.627c.587 10.26-7.583 18.903-17.864 18.903z" fill="#0cacba"/><path d="m480.719 250.774h-174.923c-10.003 0-18.305 7.731-19.017 17.709l-12.215 171.299c-.787 11.035 7.953 20.421 19.017 20.421h199.353c11.063 0 19.804-9.386 19.017-20.421l-12.215-171.299c-.712-9.977-9.014-17.709-19.017-17.709z" fill="#5de1c4"/><path d="m492.926 460.2h-40.733c11.064 0 19.8-9.385 19.017-20.418l-12.218-171.298c-.711-9.982-9.014-17.709-19.017-17.709h40.744c10.003 0 18.296 7.726 19.017 17.709l12.207 171.298c.794 11.033-7.953 20.418-19.017 20.418z" fill="#0ed2b3"/><path d="m260.533 112.959v79.52c0 21.665-9.272 41.207-24.065 54.857-13.31 12.3-31.101 19.821-50.613 19.821-41.176 0-74.667-33.501-74.667-74.678v-79.52c0-9.045 7.335-16.38 16.38-16.38s16.39 7.335 16.39 16.38v79.52c0 23.107 18.79 41.908 41.897 41.908 16.679 0 31.101-9.787 37.839-23.91 2.606-5.45 4.069-11.559 4.069-17.997v-79.52c0-9.045 7.345-16.38 16.39-16.38 9.045-.001 16.38 7.334 16.38 16.379z" fill="#ffe177"/><path d="m445.183 227.021v48.48c0 9.045-7.335 16.38-16.39 16.38-9.045 0-16.38-7.335-16.38-16.38v-48.48c0-5.172-2.06-9.849-5.388-13.3-3.482-3.616-8.365-5.862-13.763-5.862-5.12 0-9.931 1.999-13.547 5.615s-5.614 8.427-5.614 13.547v48.48c0 9.045-7.335 16.38-16.38 16.38-9.055 0-16.39-7.335-16.39-16.38v-48.48c0-13.877 5.408-26.908 15.216-36.716 9.797-9.807 22.839-15.216 36.705-15.216h.01c8.406 0 16.359 2.009 23.385 5.584 16.915 8.561 28.536 26.126 28.536 46.348z" fill="#678d98"/><path d="m445.183 227.021v48.48c0 9.045-7.335 16.38-16.39 16.38-9.045 0-16.38-7.335-16.38-16.38v-48.48c0-5.172-2.06-9.849-5.388-13.3 16.225-16.215 9.622-33.048 9.622-33.048 16.915 8.561 28.536 26.126 28.536 46.348z" fill="#537983"/><path d="m260.533 112.959v79.52c0 21.665-9.272 41.207-24.065 54.857 1.607-17.379-5.996-29.597-12.774-36.86 2.606-5.45 4.069-11.559 4.069-17.997v-79.52c0-9.045 7.345-16.38 16.39-16.38s16.38 7.335 16.38 16.38z" fill="#fece85"/></g></svg>