<svg id="Capa_1" enable-background="new 0 0 511.964 511.964" height="512" viewBox="0 0 511.964 511.964" width="512" xmlns="http://www.w3.org/2000/svg"><g><g><path d="m301.057 107.051-91.821-8.478-27.407-30.543 30.695-49.896c5.827-9.47 17.715-13.233 27.933-8.852l48.298 20.719 11.938 74.774z" fill="#2abcc8"/><path d="m300.693 104.775c-23.461-4.633-41.196-12.282-35.905-24.898 13.445-32.04-24.331-70.596-24.331-70.596l48.298 20.719z" fill="#0cacba"/><path d="m441.142 17.181h-139.563c-7.08 0-12.819 5.739-12.819 12.819v115.284h165.202v-115.284c0-7.079-5.74-12.819-12.82-12.819z" fill="#ffe177"/><path d="m453.962 30v115.282h-34.064v-115.282c0-7.082-5.736-12.818-12.818-12.818h34.064c7.071 0 12.818 5.737 12.818 12.818z" fill="#fece85"/><path d="m435.025 330.193h-243.238l-53.842-184.908h326.216z" fill="#678d98"/><path d="m320.858 68.027h-139.032c-7.226 0-13.085 5.858-13.085 13.085v61.605c0 7.226 5.858 13.085 13.085 13.085h139.032c7.226 0 13.085-5.858 13.085-13.085v-61.606c0-7.226-5.858-13.084-13.085-13.084z" fill="#fd8087"/><path d="m333.947 81.112v61.602c0 7.234-5.858 13.091-13.081 13.091h-31.949c7.234 0 13.091-5.858 13.091-13.091v-61.602c0-7.224-5.858-13.081-13.091-13.081h31.949c7.223-.001 13.081 5.857 13.081 13.081z" fill="#fe646f"/><path d="m447.925 223.572h-46.889l6.443-75.983-27.172-2.304-6.638 78.287h-47.38v-76.083h-27.269v76.083h-47.38l-6.638-78.287-27.171 2.304 6.442 75.983h-58.149v27.27h60.461l6.729 79.351 27.171-2.304-6.533-77.047h45.068v76.083h27.269v-76.083h45.068l-6.533 77.047 27.172 2.304 6.728-79.351h49.201z" fill="#cbe5e8"/><path d="m477.229 134.62c-3.454-4.036-8.499-6.363-13.816-6.363h-312.297l-15.416-52.947c-2.254-7.763-9.372-13.098-17.452-13.098h-61.147c-10.044 0-18.179 8.135-18.179 18.179s8.135 18.179 18.179 18.179h47.503l87.489 300.553c7.108 24.415 29.833 41.458 55.257 41.458h182.713c10.035 0 18.18-8.135 18.18-18.18 0-10.035-8.145-18.18-18.18-18.18h-182.714c-9.362 0-17.725-6.272-20.343-15.262l-12.153-41.74h219.827c8.953 0 16.571-6.517 17.961-15.353l28.733-182.604c.827-5.252-.691-10.597-4.145-14.642zm-58.092 176.241h-214.864l-42.576-146.245h280.455z" fill="#deecf1"/><path d="m481.374 149.264-28.733 182.604c-1.391 8.835-9.008 15.353-17.961 15.353h-33.641c21.652-21.652 1.9-36.359 1.9-36.359h16.198l23.015-146.245h-20.17c17.452-26.133 0-36.359 0-36.359h41.431c5.317 0 10.362 2.327 13.816 6.363 3.454 4.044 4.972 9.389 4.145 14.643z" fill="#cbe5e8"/><path d="m448.242 422.401c0 10.044-8.145 18.18-18.18 18.18h-52.357c21.306-21.306 1.682-36.359 1.682-36.359h50.675c10.035 0 18.18 8.144 18.18 18.179z" fill="#cbe5e8"/><circle cx="230.585" cy="465.666" fill="#678d98" r="38.798"/><circle cx="416.502" cy="465.666" fill="#678d98" r="38.798"/><circle cx="230.585" cy="465.666" fill="#deecf1" r="13.559"/><circle cx="416.502" cy="465.666" fill="#deecf1" r="13.559"/><circle cx="57.541" cy="79.876" fill="#fd8087" r="27.173"/></g><g><path d="m460.05 333.034 28.733-182.604c1.168-7.421-.964-14.958-5.856-20.687-4.888-5.71-12-8.986-19.514-8.986h-1.951v-90.753c0-11.205-9.115-20.32-20.32-20.32h-16.56c-4.142 0-7.5 3.358-7.5 7.5s3.358 7.5 7.5 7.5h16.56c2.933 0 5.32 2.386 5.32 5.32v43.608h-106.45c-3.008-7.646-10.451-13.081-19.155-13.081h-24.604v-30.527c0-2.934 2.391-5.32 5.33-5.32h88c4.142 0 7.5-3.358 7.5-7.5s-3.358-7.5-7.5-7.5h-88c-7.49 0-14.031 4.081-17.558 10.124l-40.608-17.417c-13.532-5.804-29.558-.726-37.277 11.816l-28.824 46.837c-9.188 2.064-16.079 10.27-16.079 20.067v39.646h-4.494l-13.841-47.54c-3.165-10.896-13.303-18.506-24.655-18.506h-36.891c-6.217-5.886-14.598-9.508-23.815-9.508-19.119 0-34.673 15.554-34.673 34.673s15.554 34.673 34.673 34.673c8.665 0 16.591-3.202 22.675-8.476h18.757l20.047 68.876c.954 3.277 3.948 5.406 7.198 5.406.694 0 1.399-.097 2.1-.301 3.977-1.158 6.263-5.32 5.105-9.297l-21.62-74.28c-.932-3.202-3.866-5.404-7.201-5.404h-14.254c1.203-3.515 1.866-7.279 1.866-11.197 0-3.536-.535-6.949-1.523-10.165h27.557c4.72 0 8.936 3.162 10.251 7.695l15.416 52.948c.932 3.202 3.867 5.403 7.201 5.403h312.296c3.125 0 6.084 1.363 8.113 3.733 2.036 2.384 2.926 5.521 2.44 8.607l-28.733 182.604c-.823 5.226-5.26 9.019-10.552 9.019h-219.826c-2.36 0-4.583 1.111-5.999 2.999s-1.862 4.332-1.202 6.598l12.153 41.741c3.543 12.167 14.87 20.665 27.543 20.665h182.713c5.889 0 10.679 4.791 10.679 10.68 0 1.202-.205 2.377-.588 3.485-6.927-4.134-15.015-6.518-23.652-6.518-12.833 0-24.461 5.252-32.855 13.715h-26.985c-4.142 0-7.5 3.358-7.5 7.5s3.358 7.5 7.5 7.5h17.021c-2.236 5.425-3.478 11.36-3.478 17.583 0 25.528 20.769 46.297 46.297 46.297s46.297-20.769 46.297-46.297c0-11.335-4.101-21.725-10.888-29.782 2.476-4.007 3.83-8.657 3.83-13.482 0-14.16-11.52-25.68-25.679-25.68h-182.712c-6.047 0-11.451-4.054-13.142-9.858l-9.359-32.144h209.832c12.723-.002 23.392-9.123 25.37-21.688zm-402.509-233.485c-10.848 0-19.673-8.825-19.673-19.673s8.825-19.673 19.673-19.673 19.673 8.825 19.673 19.673-8.825 19.673-19.673 19.673zm388.92 21.208h-105.014v-32.145h105.014zm-227.546-98.688c3.85-6.254 11.841-8.787 18.589-5.893l43.748 18.764v25.59h-86.007zm-42.677 59.043c0-3.078 2.508-5.581 5.591-5.581h139.027c3.083 0 5.591 2.503 5.591 5.581v39.646h-150.209zm240.264 415.852c-17.257 0-31.297-14.04-31.297-31.297 0-17.258 14.04-31.298 31.297-31.298s31.297 14.04 31.297 31.298c0 17.257-14.04 31.297-31.297 31.297z"/><path d="m204.272 318.361h214.865c3.692 0 6.835-2.687 7.409-6.334l23.011-146.245c.341-2.166-.283-4.373-1.708-6.039-1.425-1.667-3.508-2.626-5.701-2.626h-280.448c-2.36 0-4.583 1.111-5.999 2.999s-1.862 4.332-1.202 6.598l42.572 146.245c.932 3.201 3.866 5.402 7.201 5.402zm-7.477-60.019h22.903l3.818 45.02h-13.616zm34.949-35.402-4.302-50.823h12.307l4.417 52.089c.329 3.882 3.577 6.866 7.473 6.866h47.376c4.142 0 7.5-3.358 7.5-7.5v-51.456h12.269v51.456c0 4.142 3.358 7.5 7.5 7.5h47.385c3.896 0 7.144-2.984 7.473-6.866l4.417-52.089h12.308l-4.302 50.823c-.177 2.092.53 4.162 1.951 5.708s3.423 2.425 5.522 2.425h23.062l-1.931 12.27h-23.448c-3.896 0-7.144 2.984-7.473 6.866l-4.508 53.153h-12.307l4.401-51.886c.177-2.092-.53-4.162-1.95-5.708s-3.424-2.426-5.523-2.426h-45.076c-4.142 0-7.5 3.358-7.5 7.5v52.52h-12.269v-52.52c0-4.142-3.358-7.5-7.5-7.5h-45.067c-2.099 0-4.103.88-5.523 2.426s-2.127 3.616-1.95 5.708l4.4 51.886h-12.306l-4.508-53.153c-.329-3.882-3.577-6.866-7.473-6.866h-34.16l-3.572-12.27h35.414c2.099 0 4.102-.88 5.522-2.425s2.128-3.617 1.951-5.708zm23.059-50.823h36.713v43.956h-32.985zm78.982 0h36.721l-3.728 43.956h-32.994v-43.956zm25.595 131.244h-25.595v-45.02h29.413zm-97.268-45.019h29.404v45.02h-25.586zm150.613 45.019h-10.931l3.818-45.02h14.197zm13.735-87.289h-17.26l3.721-43.956h20.455zm-214.072-43.955 3.72 43.956h-31.618l-12.795-43.956z"/><path d="m321.662 433.084h-58.222c-8.394-8.464-20.022-13.715-32.855-13.715-5.166 0-10.13.863-14.774 2.431-7.897-6.43-13.705-15.096-16.519-24.772l-56.11-192.77c-.932-3.202-3.876-5.404-7.211-5.404-4.142 0-7.495 3.358-7.495 7.5 0 .835.137 1.638.389 2.388l56.024 192.476c3.104 10.674 8.991 20.398 16.949 28.196-10.682 8.489-17.551 21.579-17.551 36.252 0 25.528 20.769 46.297 46.297 46.297s46.297-20.769 46.297-46.297c0-6.222-1.242-12.158-3.478-17.583h48.257c4.142 0 7.5-3.358 7.5-7.5s-3.356-7.499-7.498-7.499zm-91.077 63.88c-17.257 0-31.297-14.04-31.297-31.297 0-17.258 14.04-31.298 31.297-31.298s31.297 14.04 31.297 31.298c0 17.257-14.04 31.297-31.297 31.297z"/><path d="m230.585 444.607c-11.612 0-21.06 9.447-21.06 21.06 0 11.612 9.447 21.059 21.06 21.059 11.612 0 21.059-9.447 21.059-21.059 0-11.613-9.447-21.06-21.059-21.06zm0 27.118c-3.341 0-6.06-2.718-6.06-6.059s2.718-6.06 6.06-6.06c3.341 0 6.059 2.718 6.059 6.06 0 3.341-2.718 6.059-6.059 6.059z"/><path d="m416.502 444.607c-11.612 0-21.06 9.447-21.06 21.06 0 11.612 9.447 21.059 21.06 21.059 11.612 0 21.059-9.447 21.059-21.059 0-11.613-9.447-21.06-21.059-21.06zm0 27.118c-3.341 0-6.06-2.718-6.06-6.059s2.718-6.06 6.06-6.06c3.341 0 6.059 2.718 6.059 6.06 0 3.341-2.718 6.059-6.059 6.059z"/></g></g></svg>