<svg id="Capa_1" enable-background="new 0 0 512 512" height="512" viewBox="0 0 512 512" width="512" xmlns="http://www.w3.org/2000/svg"><g><path d="m215.482 76.187h-86.73c-7.227 0-13.086 5.859-13.086 13.086v132.536h112.901v-132.536c.001-7.227-5.858-13.086-13.085-13.086z" fill="#5de1c4"/><path d="m254.025 118.234h-151.531c-6.207 0-11.238 5.032-11.238 11.238v46.734h174.007v-46.734c0-6.207-5.031-11.238-11.238-11.238z" fill="#ffe177"/><path d="m265.263 129.472v46.735h-40.097v-46.735c0-6.201-5.028-11.239-11.239-11.239h40.097c6.211 0 11.239 5.038 11.239 11.239z" fill="#fece85"/><g><path d="m323.974 51.608h44.573c7.756 0 14.043 6.287 14.043 14.043v52.583h-72.659v-52.583c0-7.756 6.287-14.043 14.043-14.043z" fill="#c2a1d5"/><path d="m382.59 65.651v52.586h-30.6v-52.586c0-7.753-6.289-14.042-14.042-14.042h30.599c7.753 0 14.043 6.289 14.043 14.042z" fill="#b289c9"/><path d="m265.263 156.74v-36.075c0-12.104 9.812-21.915 21.915-21.915h118.164c12.104 0 21.915 9.812 21.915 21.915v36.075z" fill="#2abcc8"/><path d="m427.258 120.665v36.067h-36.337v-36.067c0-12.104-9.806-21.923-21.91-21.923h36.324c12.104 0 21.923 9.819 21.923 21.923z" fill="#0cacba"/></g><path d="m349.867 127.617v-26.251c0-51.841-42.025-93.866-93.866-93.866h-.001c-51.841 0-93.866 42.025-93.866 93.866v26.251c0 14.565-11.807 26.371-26.371 26.371h-56.774c-4.788 0-8.669 3.881-8.669 8.669v260.034c0 45.179 36.625 81.805 81.805 81.805h207.752c45.179 0 81.805-36.625 81.805-81.805v-260.033c0-4.788-3.881-8.669-8.669-8.669h-56.773c-14.566-.001-26.373-11.807-26.373-26.372zm-147.984-26.251c0-30.12 24.734-54.572 54.958-54.111 29.694.453 53.277 25.235 53.277 54.932v32.915c0 10.43-8.455 18.886-18.886 18.886h-70.463c-10.43 0-18.886-8.455-18.886-18.886z" fill="#deecf1"/><path d="m433.015 153.992h-40.713v268.704c0 45.175-36.629 81.804-81.804 81.804h49.378c45.185 0 81.804-36.629 81.804-81.804v-260.038c.001-4.78-3.875-8.666-8.665-8.666z" fill="#cbe5e8"/><g><path d="m441.68 368.49c-4.143 0-7.5 3.358-7.5 7.5v46.7c0 40.975-33.331 74.31-74.3 74.31h-207.76c-40.969 0-74.3-33.335-74.3-74.31v-260.03c0-.645.525-1.17 1.17-1.17h56.77c18.676 0 33.87-15.194 33.87-33.87v-26.25c0-17.479 5.191-34.308 15.011-48.666 2.338-3.419 1.462-8.086-1.957-10.425-3.419-2.338-8.087-1.462-10.424 1.957-5.215 7.624-9.306 15.844-12.236 24.453h-31.272c-11.352 0-20.587 9.235-20.587 20.587v21.457h-5.667c-10.333 0-18.739 8.406-18.739 18.739v17.017h-4.769c-8.917 0-16.17 7.254-16.17 16.17v260.03c0 49.246 40.06 89.31 89.3 89.31h207.76c49.24 0 89.3-40.064 89.3-89.31v-46.7c0-4.141-3.357-7.499-7.5-7.499zm-318.516-279.213c0-3.081 2.506-5.587 5.587-5.587h27.43c-1.019 5.795-1.552 11.704-1.552 17.681v9.364h-31.466v-21.458zm-24.406 40.196c0-2.062 1.677-3.739 3.739-3.739h52.133v1.886c0 10.405-8.465 18.87-18.87 18.87h-37.002z"/><path d="m434.76 146.589v-25.919c0-16.222-13.193-29.42-29.41-29.42h-15.261v-25.604c0-11.878-9.663-21.541-21.541-21.541h-28.949c-18.289-26.615-48.938-44.105-83.599-44.105-20.527 0-40.289 6.1-57.147 17.641-3.418 2.34-4.292 7.008-1.952 10.426 2.339 3.417 7.007 4.292 10.425 1.952 14.353-9.826 31.184-15.019 48.674-15.019 47.625 0 86.37 38.746 86.37 86.37v26.25c0 18.676 15.194 33.87 33.87 33.87h56.77c.646 0 1.17.525 1.17 1.17v178.33c0 4.142 3.357 7.5 7.5 7.5s7.5-3.358 7.5-7.5v-178.33c0-8.324-6.325-15.195-14.42-16.071zm-66.212-87.485c3.606 0 6.541 2.934 6.541 6.541v25.605h-18.223c-1.132-11.369-4.153-22.189-8.739-32.146zm-11.178 68.516v-21.363h25.219c.046 0 .09-.006.135-.007h22.625c7.945 0 14.41 6.469 14.41 14.42v25.82h-43.52c-10.404 0-18.869-8.465-18.869-18.87z"/><path d="m220.769 161.488h70.463c14.549 0 26.386-11.836 26.386-26.385v-32.915c0-33.915-27.213-61.921-60.662-62.431-16.621-.265-32.308 6.041-44.171 17.724-11.866 11.687-18.401 27.272-18.401 43.885v33.737c-.001 14.549 11.835 26.385 26.385 26.385zm-11.386-26.385v-9.369h44.638c2.062 0 3.739 1.677 3.739 3.739v17.015h-36.991c-6.279 0-11.386-5.107-11.386-11.385zm3.472-51.414h2.629c3.081 0 5.587 2.507 5.587 5.587v21.457h-11.688v-9.368c0-6.164 1.198-12.14 3.472-17.676zm78.377 62.799h-18.472v-17.015-8.803c0-7.951 6.469-14.42 14.42-14.42h15.438v28.853c-.001 6.278-5.108 11.385-11.386 11.385zm-35.236-91.739c.243 0 .487.002.73.005 21.612.33 39.771 15.904 44.613 36.495h-14.16c-13.016 0-24.078 8.499-27.945 20.237-1.658-.481-3.404-.753-5.215-.753h-17.949v-21.456c0-9.138-5.988-16.894-14.243-19.576.482-.519.973-1.032 1.482-1.532 8.805-8.671 20.386-13.42 32.687-13.42z"/></g></g></svg>