<svg id="Capa_1" enable-background="new 0 0 512 512" height="512" viewBox="0 0 512 512" width="512" xmlns="http://www.w3.org/2000/svg"><g><path d="m302.436 102.593-94.592-8.734-28.234-31.465 31.621-51.402c6.003-9.755 18.249-13.632 28.776-9.119l49.756 21.345 12.298 77.03z" fill="#2abcc8"/><path d="m302.061 100.248c-24.169-4.773-42.439-12.652-36.988-25.649 13.851-33.007-25.065-72.726-25.065-72.726l49.756 21.345z" fill="#0cacba"/><path d="m459.955 23.22v118.759h-170.186v-118.759c0-7.294 5.913-13.207 13.207-13.207h143.772c7.293 0 13.207 5.914 13.207 13.207z" fill="#ffe177"/><path d="m459.955 68.146v15.453h-159.791c-4.265 0-7.726-3.461-7.726-7.726s3.461-7.726 7.726-7.726h159.791z" fill="#fece85"/><path d="m459.955 23.217v118.761h-35.092v-118.761c0-7.296-5.909-13.205-13.205-13.205h35.092c7.285 0 13.205 5.909 13.205 13.205z" fill="#fece85"/><path d="m440.446 332.468h-250.577l-55.467-190.488h336.06z" fill="#678d98"/><path d="m322.835 62.39h-143.228c-7.445 0-13.48 6.035-13.48 13.48v63.464c0 7.445 6.035 13.48 13.48 13.48h143.228c7.445 0 13.48-6.035 13.48-13.48v-63.464c-.001-7.445-6.036-13.48-13.48-13.48z" fill="#fd8087"/><path d="m336.318 75.87v63.461c0 7.452-6.034 13.487-13.476 13.487h-32.913c7.452 0 13.486-6.035 13.486-13.487v-63.461c0-7.442-6.034-13.476-13.486-13.476h32.913c7.442 0 13.476 6.035 13.476 13.476z" fill="#fe646f"/><path d="m453.736 222.63h-48.304l6.637-78.276-27.992-2.374-6.838 80.65h-48.81v-78.379h-28.092v78.379h-48.809l-6.839-80.65-27.991 2.374 6.637 78.276h-59.904v28.092h62.286l6.931 81.746 27.992-2.373-6.73-79.373h46.427v78.379h28.092v-78.379h46.428l-6.729 79.373 27.991 2.373 6.931-81.746h50.686z" fill="#cbe5e8"/><path d="m483.924 130.994c-3.558-4.158-8.755-6.555-14.233-6.555h-321.721l-15.881-54.546c-2.322-7.997-9.654-13.494-17.979-13.494h-62.992c-10.348.001-18.728 8.381-18.728 18.729 0 10.347 8.381 18.728 18.728 18.728h48.937l90.129 309.622c7.323 25.152 30.733 42.709 56.924 42.709h188.227c10.338 0 18.728-8.381 18.728-18.728 0-10.338-8.39-18.728-18.728-18.728h-188.228c-9.645 0-18.26-6.461-20.957-15.722l-12.52-43h226.46c9.224 0 17.071-6.714 18.503-15.816l29.6-188.115c.853-5.411-.71-10.917-4.269-15.084zm-59.845 181.559h-221.348l-43.861-150.658h288.918z" fill="#deecf1"/><path d="m488.194 146.079-29.6 188.115c-1.433 9.102-9.28 15.816-18.503 15.816h-34.656c22.305-22.305 1.957-37.456 1.957-37.456h16.687l23.71-150.658h-20.779c17.979-26.922 0-37.456 0-37.456h42.681c5.478 0 10.675 2.397 14.233 6.555 3.559 4.166 5.122 9.672 4.27 15.084z" fill="#cbe5e8"/><path d="m454.062 427.46c0 10.347-8.39 18.728-18.728 18.728h-53.937c21.949-21.949 1.732-37.456 1.732-37.456h52.205c10.338-.001 18.728 8.39 18.728 18.728z" fill="#cbe5e8"/><circle cx="229.837" cy="472.03" fill="#678d98" r="39.968"/><circle cx="421.365" cy="472.03" fill="#678d98" r="39.968"/><path d="m461.333 472.03c0 22.08-17.89 39.97-39.96 39.97-3.63 0-7.14-.48-10.48-1.4 16.98-4.6 29.48-20.12 29.48-38.57 0-18.44-12.5-33.97-29.48-38.57 3.34-.92 6.85-1.4 10.48-1.4 22.07 0 39.96 17.9 39.96 39.97z" fill="#537983"/><path d="m269.805 472.03c0 22.08-17.89 39.97-39.96 39.97-3.63 0-7.14-.48-10.48-1.4 16.98-4.6 29.48-20.12 29.48-38.57 0-18.44-12.5-33.97-29.48-38.57 3.34-.92 6.85-1.4 10.48-1.4 22.07 0 39.96 17.9 39.96 39.97z" fill="#537983"/><circle cx="229.837" cy="472.03" fill="#deecf1" r="13.968"/><circle cx="421.365" cy="472.03" fill="#deecf1" r="13.968"/><circle cx="51.571" cy="74.598" fill="#fd8087" r="27.993"/></g></svg>