<svg id="Capa_1" enable-background="new 0 0 511.998 511.998" height="512" viewBox="0 0 511.998 511.998" width="512" xmlns="http://www.w3.org/2000/svg"><g><path d="m473.537 193.653h-53.141l7.301-86.115-30.795-2.612-7.523 88.727h-53.698v-86.228h-30.905v86.228h-53.697l-7.523-88.727-30.795 2.612 7.302 86.115h-65.903v30.905h68.523l7.626 89.932 30.795-2.611-7.404-87.321h51.076v86.228h30.905v-86.228h51.078l-7.404 87.321 30.795 2.611 7.625-89.932h55.762z" fill="#cbe5e8"/><path d="m506.748 92.84c-3.915-4.574-9.632-7.211-15.659-7.211h-353.938l-17.472-60.008c-2.555-8.798-10.621-14.845-19.779-14.845h-69.3c-11.384 0-20.604 9.22-20.604 20.604s9.22 20.604 20.604 20.604h53.837l99.155 340.628c8.056 27.671 33.811 46.986 62.625 46.986h207.076c11.373 0 20.604-9.22 20.604-20.604 0-11.373-9.23-20.604-20.604-20.604h-207.077c-10.611 0-20.088-7.108-23.056-17.297l-13.773-47.306h249.138c10.147 0 18.78-7.386 20.356-17.4l32.564-206.952c.938-5.954-.782-12.011-4.697-16.595zm-65.839 199.741h-243.513l-48.253-165.745h317.851z" fill="#deecf1"/><path d="m511.446 109.436-32.564 206.952c-1.576 10.013-10.209 17.4-20.356 17.4h-38.127c24.539-24.539 2.153-41.207 2.153-41.207h18.358l26.084-165.745h-22.86c19.779-29.618 0-41.207 0-41.207h46.956c6.027 0 11.744 2.637 15.659 7.211 3.914 4.584 5.634 10.641 4.697 16.596z" fill="#cbe5e8"/><path d="m473.896 418.994c0 11.383-9.23 20.604-20.604 20.604h-59.338c24.147-24.147 1.906-41.207 1.906-41.207h57.432c11.373-.001 20.604 9.23 20.604 20.603z" fill="#cbe5e8"/><circle cx="227.216" cy="468.027" fill="#678d98" r="43.971"/><circle cx="437.923" cy="468.027" fill="#678d98" r="43.971"/><path d="m481.894 468.027c0 24.281-19.687 43.968-43.968 43.968-4.162 0-8.19-.577-12.002-1.659 18.451-5.223 31.977-22.19 31.977-42.309s-13.526-37.086-31.977-42.309c3.812-1.082 7.84-1.659 12.002-1.659 24.281.001 43.968 19.687 43.968 43.968z" fill="#537983"/><path d="m271.187 468.027c0 24.281-19.687 43.968-43.968 43.968-4.162 0-8.19-.577-12.002-1.659 18.451-5.223 31.977-22.19 31.977-42.309s-13.526-37.086-31.977-42.309c3.812-1.082 7.84-1.659 12.002-1.659 24.281.001 43.968 19.687 43.968 43.968z" fill="#537983"/><circle cx="227.216" cy="468.027" fill="#deecf1" r="15.367"/><circle cx="437.923" cy="468.027" fill="#deecf1" r="15.367"/><circle cx="31.098" cy="30.796" fill="#fd8087" r="30.796"/></g></svg>