<svg id="Capa_1" enable-background="new 0 0 511.999 511.999" height="512" viewBox="0 0 511.999 511.999" width="512" xmlns="http://www.w3.org/2000/svg"><g><g><path d="m127.725 145.44h-44.771c-5.982 0-10.831 4.849-10.831 10.831v98.129h66.433v-98.129c0-5.982-4.849-10.831-10.831-10.831z" fill="#ffe177"/><path d="m138.556 156.271v98.135h-22.935v-98.135c0-5.983-4.856-10.829-10.839-10.829h22.945c5.983 0 10.829 4.846 10.829 10.829z" fill="#fece85"/><path d="m411.155 13.709h-35.275c-8.358 0-15.133 6.775-15.133 15.133v60.074h65.541v-60.074c-.001-8.358-6.776-15.133-15.133-15.133z" fill="#fd8087"/><path d="m426.287 28.842v60.068h-21.678v-60.068c0-8.355-6.767-15.132-15.133-15.132h21.678c8.356 0 15.133 6.777 15.133 15.132z" fill="#fe646f"/><path d="m333.36 87.857v17.834h-52.987c-16.224 0-29.376 13.152-29.376 29.376v21.428l67.028 115.832 133.207-42.534v-141.936c0-15.125-12.261-27.386-27.386-27.386h-63.1c-15.124 0-27.386 12.261-27.386 27.386z" fill="#deecf1"/><path d="m451.233 87.857v141.934l-133.206 42.542-6.345-10.97 98.869-31.572v-141.934c0-15.122-12.267-27.389-27.389-27.389h40.682c15.132 0 27.389 12.267 27.389 27.389z" fill="#cbe5e8"/><path d="m192.684 120.915h-41.822c-6.796 0-12.305 5.509-12.305 12.305v121.189h66.433v-121.189c-.001-6.796-5.51-12.305-12.306-12.305z" fill="#c68d7a"/><path d="m204.989 133.22v121.18h-23.518v-121.18c0-6.797-5.51-12.307-12.307-12.307h23.518c6.797 0 12.307 5.51 12.307 12.307z" fill="#bc7c63"/><path d="m397.19 156.495h-183.596c-11.402 0-20.646 9.243-20.646 20.646v80.73h224.888v-80.73c0-11.402-9.244-20.646-20.646-20.646z" fill="#2abcc8"/><path d="m417.836 177.141v80.73h-42.411v-80.73c0-11.402-9.24-20.653-20.642-20.653h42.401c11.401.001 20.652 9.251 20.652 20.653z" fill="#0cacba"/><path d="m466.508 286.218-5.661 28.425-30.446 152.994c-3.539 17.817-19.175 30.647-37.344 30.647h-274.114c-18.169 0-33.804-12.83-37.344-30.647l-30.446-152.994-5.661-28.425 210.508-28.214z" fill="#fd8087"/><path d="m466.508 286.218-5.661 28.425h-409.694l-5.661-28.425 210.508-28.214z" fill="#fe646f"/><path d="m466.506 286.222-36.097 181.419c-3.549 17.817-19.185 30.647-37.344 30.647h-50.615c18.169 0 33.804-12.83 37.354-30.647l36.096-181.419-185.2-24.825 25.298-3.388z" fill="#fe646f"/><path d="m467.827 229.794h-423.654c-7.656 0-13.862 6.206-13.862 13.862v28.705c0 7.656 6.206 13.862 13.862 13.862h423.654c7.656 0 13.862-6.206 13.862-13.862v-28.705c0-7.656-6.206-13.862-13.862-13.862z" fill="#fd8087"/><path d="m481.689 243.656v28.707c0 7.662-6.204 13.866-13.866 13.866h-68.926c7.662 0 13.866-6.204 13.866-13.866v-28.707c0-7.652-6.204-13.855-13.866-13.855h68.926c7.662-.001 13.866 6.203 13.866 13.855z" fill="#fe646f"/><g fill="#678d98"><path d="m168.302 268.863c0 5.229-2.001 10.467-5.993 14.449l-29.461 29.471-90.453 90.453c-7.984 7.983-20.924 7.983-28.908 0s-7.984-20.924 0-28.908l102.419-102.418 17.495-17.505c7.984-7.973 20.924-7.973 28.908 0 3.992 3.991 5.993 9.22 5.993 14.458z"/><path d="m498.512 403.236c-7.983 7.983-20.924 7.983-28.908 0l-29.35-29.35-90.564-90.574c-3.992-3.982-5.993-9.22-5.993-14.449 0-5.239 2.001-10.467 5.993-14.459 7.984-7.973 20.924-7.973 28.908 0l72.023 72.033 47.891 47.891c7.984 7.984 7.984 20.924 0 28.908z"/></g><path d="m498.512 403.236c-7.983 7.983-20.924 7.983-28.908 0l-29.35-29.35c29.994-13.966 10.367-47.449 10.367-47.449l47.891 47.891c7.984 7.984 7.984 20.924 0 28.908z" fill="#537983"/></g><path d="m503.814 369.023-38.48-38.481 7.448-37.428c9.394-2.243 16.408-10.684 16.408-20.752v-28.707c0-11.781-9.585-21.366-21.365-21.366h-9.095v-83.872c0-4.142-3.358-7.5-7.5-7.5s-7.5 3.358-7.5 7.5v83.872h-18.394v-45.149c0-15.52-12.627-28.146-28.146-28.146h-138.692v-13.926c0-12.065 9.811-21.88 21.87-21.88h52.99c4.142 0 7.5-3.358 7.5-7.5v-17.83c0-10.967 8.923-19.89 19.89-19.89h63.101c10.962 0 19.88 8.922 19.88 19.89v15.56c0 4.142 3.358 7.5 7.5 7.5s7.5-3.358 7.5-7.5v-15.56c0-15.785-10.537-29.148-24.943-33.439v-25.579c0-12.48-10.153-22.633-22.633-22.633h-35.276c-12.48 0-22.633 10.153-22.633 22.633v24.948c-15.643 3.443-27.387 17.406-27.387 34.069v10.33h-45.49c-20.33 0-36.87 16.545-36.87 36.88v13.926h-29.907c-.37 0-.736.014-1.102.028v-15.8c0-10.922-8.885-19.807-19.807-19.807h-41.828c-10.917 0-19.798 8.885-19.798 19.807v5.035c-1.083-.2-2.194-.319-3.335-.319h-44.769c-10.108 0-18.331 8.223-18.331 18.331v66.02h-20.45c-11.781 0-21.365 9.585-21.365 21.366v28.707c0 10.067 7.014 18.508 16.408 20.752l7.449 37.43-38.48 38.484c-5.276 5.276-8.182 12.291-8.182 19.754 0 7.462 2.906 14.477 8.179 19.75 5.276 5.283 12.293 8.193 19.758 8.193 7.463 0 14.481-2.908 19.762-8.19l12.087-12.087 14.454 72.656c4.224 21.259 23.021 36.689 44.697 36.689h175.242c4.142 0 7.5-3.358 7.5-7.5s-3.358-7.5-7.5-7.5h-175.243c-14.541 0-27.151-10.351-29.984-24.613l-16.41-82.488 17.337-17.337c2.929-2.929 2.929-7.678 0-10.607s-7.678-2.929-10.607 0l-42.181 42.181c-2.448 2.448-5.699 3.796-9.155 3.796-3.455 0-6.702-1.347-9.148-3.796-2.443-2.443-3.789-5.691-3.789-9.146 0-3.456 1.345-6.704 3.789-9.147l119.907-119.918c5.051-5.044 13.264-5.047 18.307-.003 2.446 2.446 3.793 5.694 3.793 9.147s-1.35 6.707-3.793 9.157l-53.181 53.181c-2.929 2.929-2.929 7.678 0 10.607s7.678 2.929 10.607 0l48.085-48.085h186.967l89.972 89.973-16.41 82.489c-2.833 14.261-15.443 24.612-29.984 24.612h-63.88c-4.142 0-7.5 3.358-7.5 7.5s3.358 7.5 7.5 7.5h63.88c21.676 0 40.473-15.43 44.696-36.687l14.454-72.657 12.091 12.091c5.447 5.447 12.602 8.17 19.758 8.17 7.155 0 14.31-2.724 19.757-8.17 5.277-5.277 8.184-12.294 8.184-19.758.001-7.467-2.906-14.484-8.184-19.761zm-127.936-347.816h35.276c4.209 0 7.633 3.424 7.633 7.633v24.127h-50.542v-24.127c0-4.209 3.424-7.633 7.633-7.633zm52.632 272.511h28.858l-4.79 24.068zm-31.321-129.724c7.249 0 13.146 5.898 13.146 13.146v45.149h-209.89v-45.149c0-7.249 5.897-13.146 13.146-13.146zm-246.336-35.579h41.828c2.651 0 4.807 2.156 4.807 4.807v20.853c-7.274 5.094-12.044 13.53-12.044 23.065v45.149h-39.389v-89.067c.001-2.65 2.153-4.807 4.798-4.807zm-71.234 27.855c0-1.837 1.494-3.331 3.331-3.331h44.771c1.837 0 3.331 1.494 3.331 3.331v66.02h-51.433zm-24.991 137.448h28.857l-24.067 24.069zm73.465-44.612-29.609 29.612h-54.314c-3.51 0-6.365-2.851-6.365-6.356v-28.707c0-3.51 2.855-6.366 6.365-6.366h423.654c3.51 0 6.365 2.855 6.365 6.366v28.707c0 3.504-2.855 6.356-6.365 6.356h-54.314l-29.612-29.613c-5.277-5.277-12.294-8.184-19.758-8.184-7.463 0-14.48 2.907-19.757 8.184s-8.184 12.294-8.184 19.757c0 3.421.618 6.746 1.788 9.856h-163.982c1.172-3.112 1.792-6.438 1.792-9.859 0-7.459-2.907-14.474-8.187-19.753-10.888-10.888-28.614-10.888-39.517 0zm365.115 148.825c-5.046 5.045-13.255 5.045-18.301 0l-119.918-119.918c-2.444-2.444-3.791-5.694-3.791-9.151s1.346-6.706 3.791-9.15 5.694-3.791 9.15-3.791 6.707 1.346 9.151 3.791l119.918 119.918c2.444 2.444 3.791 5.694 3.791 9.15-.001 3.457-1.347 6.707-3.791 9.151z"/><g fill="#678d98"><path d="m256 464.929c-10.371 0-18.778-8.407-18.778-18.778v-107.8c0-10.371 8.407-18.778 18.778-18.778 10.371 0 18.778 8.407 18.778 18.778v107.801c0 10.37-8.407 18.777-18.778 18.777z"/><g><path d="m170.902 464.929c-10.371 0-18.778-8.407-18.778-18.778v-107.8c0-10.371 8.407-18.778 18.778-18.778 10.371 0 18.778 8.407 18.778 18.778v107.801c0 10.37-8.407 18.777-18.778 18.777z"/><path d="m341.098 464.929c-10.371 0-18.778-8.407-18.778-18.778v-107.8c0-10.371 8.407-18.778 18.778-18.778 10.371 0 18.778 8.407 18.778 18.778v107.801c0 10.37-8.407 18.777-18.778 18.777z"/></g></g><g><path d="m256 472.429c-14.49 0-26.278-11.788-26.278-26.278v-107.8c0-14.49 11.789-26.278 26.278-26.278s26.278 11.789 26.278 26.278v107.801c0 14.489-11.788 26.277-26.278 26.277zm0-145.357c-6.219 0-11.278 5.06-11.278 11.278v107.801c0 6.219 5.06 11.278 11.278 11.278s11.278-5.059 11.278-11.278v-107.8c0-6.219-5.059-11.279-11.278-11.279z"/><g><path d="m170.902 472.429c-14.49 0-26.278-11.788-26.278-26.278v-107.8c0-14.49 11.788-26.278 26.278-26.278s26.278 11.789 26.278 26.278v107.801c0 14.489-11.788 26.277-26.278 26.277zm0-145.357c-6.219 0-11.278 5.06-11.278 11.278v107.801c0 6.219 5.059 11.278 11.278 11.278s11.278-5.059 11.278-11.278v-107.8c0-6.219-5.059-11.279-11.278-11.279z"/><path d="m341.098 472.429c-14.49 0-26.278-11.788-26.278-26.278v-107.8c0-14.49 11.789-26.278 26.278-26.278s26.278 11.789 26.278 26.278v107.801c0 14.489-11.788 26.277-26.278 26.277zm0-145.357c-6.219 0-11.278 5.06-11.278 11.278v107.801c0 6.219 5.06 11.278 11.278 11.278s11.278-5.059 11.278-11.278v-107.8c0-6.219-5.059-11.279-11.278-11.279z"/></g></g></g></svg>