<svg id="Capa_1" enable-background="new 0 0 512 512" height="512" viewBox="0 0 512 512" width="512" xmlns="http://www.w3.org/2000/svg"><g><path d="m123.854 142.104h-46.122c-6.162 0-11.158 4.996-11.158 11.158v101.091h68.438v-101.091c0-6.162-4.996-11.158-11.158-11.158z" fill="#ffe177"/><path d="m135.012 153.262v101.097h-23.627v-101.097c0-6.163-5.003-11.156-11.166-11.156h23.638c6.162 0 11.155 4.993 11.155 11.156z" fill="#fece85"/><path d="m415.837 6.398h-36.34c-8.61 0-15.59 6.98-15.59 15.59v61.887h67.519v-61.888c.001-8.61-6.979-15.589-15.589-15.589z" fill="#fd8087"/><path d="m431.427 21.987v61.88h-22.333v-61.88c0-8.608-6.971-15.589-15.589-15.589h22.333c8.607 0 15.589 6.982 15.589 15.589z" fill="#fe646f"/><path d="m335.695 82.784v18.373h-54.586c-16.714 0-30.262 13.549-30.262 30.262v22.074l69.051 119.328 137.227-43.818v-146.219c0-15.582-12.631-28.213-28.213-28.213h-65.004c-15.581 0-28.213 12.631-28.213 28.213z" fill="#deecf1"/><path d="m457.125 82.784v146.218l-137.227 43.826-6.536-11.301 101.853-32.525v-146.218c0-15.579-12.637-28.216-28.216-28.216h41.91c15.59 0 28.216 12.637 28.216 28.216z" fill="#cbe5e8"/><path d="m190.773 116.839h-43.085c-7.001 0-12.677 5.675-12.677 12.676v124.847h68.438v-124.847c0-7.001-5.675-12.676-12.676-12.676z" fill="#c68d7a"/><path d="m203.449 129.515v124.838h-24.228v-124.838c0-7.002-5.676-12.679-12.679-12.679h24.228c7.003 0 12.679 5.677 12.679 12.679z" fill="#bc7c63"/><path d="m401.451 153.493h-189.137c-11.747 0-21.269 9.522-21.269 21.269v83.167h231.675v-83.167c0-11.746-9.522-21.269-21.269-21.269z" fill="#2abcc8"/><path d="m422.72 174.762v83.167h-43.691v-83.167c0-11.746-9.519-21.276-21.265-21.276h43.681c11.745 0 21.275 9.53 21.275 21.276z" fill="#0cacba"/><path d="m472.861 287.131-5.832 29.283-31.365 157.612c-3.646 18.355-19.753 31.572-38.471 31.572h-282.387c-18.717 0-34.825-13.217-38.471-31.572l-31.364-157.612-5.832-29.283 216.861-29.066z" fill="#fd8087"/><path d="m472.861 287.131-5.832 29.283h-422.058l-5.832-29.283 216.861-29.066z" fill="#fe646f"/><path d="m472.859 287.136-37.186 186.894c-3.656 18.355-19.764 31.572-38.471 31.572h-52.144c18.717 0 34.824-13.217 38.481-31.572l37.186-186.895-190.789-25.575 26.061-3.491z" fill="#fe646f"/><path d="m474.22 229.004h-436.44c-7.887 0-14.28 6.394-14.28 14.28v29.571c0 7.887 6.394 14.28 14.28 14.28h436.44c7.887 0 14.28-6.394 14.28-14.28v-29.571c.001-7.887-6.393-14.28-14.28-14.28z" fill="#fd8087"/><path d="m488.501 243.284v29.573c0 7.893-6.391 14.284-14.284 14.284h-71.007c7.893 0 14.284-6.391 14.284-14.284v-29.573c0-7.883-6.391-14.274-14.284-14.274h71.006c7.894 0 14.285 6.392 14.285 14.274z" fill="#fe646f"/><g fill="#678d98"><path d="m165.655 269.252c0 5.386-2.061 10.783-6.174 14.885l-30.35 30.36-93.183 93.183c-8.224 8.224-21.556 8.224-29.78 0s-8.224-21.556 0-29.78l105.51-105.51 18.023-18.034c8.224-8.214 21.556-8.214 29.78 0 4.113 4.113 6.174 9.5 6.174 14.896z"/><path d="m505.832 407.681c-8.224 8.224-21.556 8.224-29.78 0l-30.236-30.236-93.297-93.308c-4.112-4.102-6.174-9.498-6.174-14.885 0-5.397 2.061-10.783 6.174-14.895 8.224-8.214 21.556-8.214 29.78 0l74.196 74.207 49.336 49.337c8.225 8.224 8.225 21.555.001 29.78z"/></g><g fill="#537983"><path d="m505.832 407.681c-8.224 8.224-21.556 8.224-29.78 0l-30.236-30.236c30.899-14.388 10.679-48.881 10.679-48.881l49.336 49.337c8.225 8.224 8.225 21.555.001 29.78z"/><path d="m256 466.159c-10.684 0-19.345-8.661-19.345-19.345v-111.055c0-10.684 8.661-19.345 19.345-19.345 10.684 0 19.345 8.661 19.345 19.345v111.054c0 10.685-8.661 19.346-19.345 19.346z"/><g><path d="m168.334 466.159c-10.684 0-19.345-8.661-19.345-19.345v-111.055c0-10.684 8.661-19.345 19.345-19.345 10.684 0 19.345 8.661 19.345 19.345v111.054c-.001 10.685-8.662 19.346-19.345 19.346z"/><path d="m343.666 466.159c-10.684 0-19.345-8.661-19.345-19.345v-111.055c0-10.684 8.661-19.345 19.345-19.345 10.684 0 19.345 8.661 19.345 19.345v111.054c0 10.685-8.661 19.346-19.345 19.346z"/></g></g></g></svg>