<svg id="Capa_1" enable-background="new 0 0 512 512" height="512" viewBox="0 0 512 512" width="512" xmlns="http://www.w3.org/2000/svg"><g><path d="m214.259 70.761h-89.347c-7.445 0-13.481 6.035-13.481 13.481v136.536h116.308v-136.537c0-7.445-6.035-13.48-13.48-13.48z" fill="#5de1c4"/><path d="m227.74 84.241v136.54h-33.22v-136.54c0-7.44-6.03-13.48-13.48-13.48h33.22c7.44 0 13.48 6.04 13.48 13.48z" fill="#0ed2b3"/><path d="m253.965 114.076h-156.104c-6.394 0-11.577 5.183-11.577 11.577v48.145h179.259v-48.145c0-6.394-5.184-11.577-11.578-11.577z" fill="#ffe177"/><path d="m265.543 125.653v48.146h-41.307v-48.146c0-6.388-5.18-11.578-11.578-11.578h41.307c6.398 0 11.578 5.19 11.578 11.578z" fill="#fece85"/><g><path d="m326.025 45.439h45.918c7.99 0 14.467 6.477 14.467 14.467v54.17h-74.851v-54.17c0-7.99 6.477-14.467 14.466-14.467z" fill="#c2a1d5"/><path d="m386.41 59.906v54.173h-31.523v-54.173c0-7.987-6.479-14.466-14.466-14.466h31.523c7.987 0 14.466 6.479 14.466 14.466z" fill="#b289c9"/><path d="m265.543 153.744v-37.164c0-12.469 10.108-22.577 22.577-22.577h121.73c12.469 0 22.577 10.108 22.577 22.577v37.163h-166.884z" fill="#2abcc8"/><path d="m432.426 116.58v37.156h-37.434v-37.156c0-12.469-10.102-22.584-22.571-22.584h37.42c12.47 0 22.585 10.115 22.585 22.584z" fill="#0cacba"/></g><path d="m352.7 123.742v-27.043c0-53.405-43.294-96.699-96.7-96.699-53.405 0-96.699 43.294-96.699 96.699v27.043c0 15.004-12.163 27.167-27.167 27.167h-58.488c-4.932 0-8.931 3.998-8.931 8.931v267.882c0 46.543 37.731 84.274 84.274 84.274h214.022c46.543 0 84.274-37.731 84.274-84.274v-267.881c0-4.932-3.999-8.931-8.931-8.931h-58.487c-15.004 0-27.167-12.164-27.167-27.168zm-152.45-27.043c0-31.029 25.481-56.219 56.617-55.744 30.591.467 54.885 25.996 54.885 56.59v33.908c0 10.745-8.711 19.456-19.456 19.456h-72.59c-10.745 0-19.456-8.711-19.456-19.456z" fill="#deecf1"/><path d="m438.358 150.914h-41.942v276.814c0 46.538-37.734 84.273-84.273 84.273h50.869c46.548 0 84.273-37.734 84.273-84.273v-267.887c0-4.925-3.993-8.927-8.927-8.927z" fill="#cbe5e8"/></g></svg>