<svg id="Capa_1" enable-background="new 0 0 512 512" height="512" viewBox="0 0 512 512" width="512" xmlns="http://www.w3.org/2000/svg"><g><path d="m443.599 84.549c4.292 4.293 6.704 10.115 6.704 16.185v388.416c0 12.62-10.23 22.849-22.839 22.849h-342.927c-12.614 0-22.839-10.225-22.839-22.839v-466.321c0-12.614 10.225-22.839 22.839-22.839h265.04c6.071 0 11.894 2.412 16.187 6.705z" fill="#deecf1"/><path d="m450.302 100.731v388.42c0 12.62-10.23 22.849-22.839 22.849h-33.811c12.609 0 22.839-10.23 22.839-22.849v-429.627c0-.731-.031-1.473-.113-2.194l27.217 27.218c4.297 4.295 6.707 10.115 6.707 16.183z" fill="#cbe5e8"/><path d="m448.242 91.253h-66.344c-12.609 0-22.839-10.23-22.839-22.839v-66.354c2.472 1.123 4.739 2.679 6.707 4.646l77.84 77.841c1.958 1.968 3.523 4.234 4.636 6.706z" fill="#cbe5e8"/><g fill="#7ca1b1"><path d="m400.903 242.358h-185.516c-4.267 0-7.726-3.459-7.726-7.726s3.459-7.726 7.726-7.726h185.516c4.267 0 7.726 3.459 7.726 7.726s-3.459 7.726-7.726 7.726z"/><path d="m349.709 273.772h-134.322c-4.267 0-7.726-3.459-7.726-7.726s3.459-7.726 7.726-7.726h134.322c4.267 0 7.726 3.459 7.726 7.726s-3.459 7.726-7.726 7.726z"/></g><g fill="#7ca1b1"><path d="m400.903 333.172h-185.516c-4.267 0-7.726-3.459-7.726-7.726s3.459-7.726 7.726-7.726h185.516c4.267 0 7.726 3.459 7.726 7.726 0 4.266-3.459 7.726-7.726 7.726z"/><path d="m349.709 364.586h-134.322c-4.267 0-7.726-3.459-7.726-7.726s3.459-7.726 7.726-7.726h134.322c4.267 0 7.726 3.459 7.726 7.726.001 4.267-3.459 7.726-7.726 7.726z"/></g><g><g fill="#7ca1b1"><path d="m400.905 423.981h-185.515c-4.267 0-7.726-3.459-7.726-7.726s3.459-7.726 7.726-7.726h185.515c4.267 0 7.726 3.459 7.726 7.726.001 4.267-3.458 7.726-7.726 7.726z"/><path d="m349.709 455.399h-134.322c-4.267 0-7.726-3.459-7.726-7.726s3.459-7.726 7.726-7.726h134.322c4.267 0 7.726 3.459 7.726 7.726.001 4.267-3.459 7.726-7.726 7.726z"/></g></g><path d="m324.059 153.47h-136.118c-4.267 0-7.726-3.459-7.726-7.726s3.459-7.726 7.726-7.726h136.119c4.267 0 7.726 3.459 7.726 7.726s-3.46 7.726-7.727 7.726z" fill="#2abcc8"/><path d="m256.754 42.681-.754.754-.754-.754c-10.905-10.905-28.585-10.905-39.49 0-10.905 10.905-10.905 28.586 0 39.49l.754.754 32.846 32.846c3.67 3.67 9.619 3.67 13.289 0l32.846-32.846.754-.754c10.905-10.905 10.905-28.585 0-39.49-10.906-10.905-28.587-10.905-39.491 0z" fill="#fd8087"/><g fill="#2abcc8"><path d="m135.117 288.998c-1.972-.353-3.748-1.464-4.928-3.12l-26.007-36.483c-2.477-3.475-1.668-8.299 1.806-10.776 3.475-2.477 8.3-1.668 10.776 1.806l20.056 28.135 38.562-48.439c2.658-3.339 7.518-3.892 10.857-1.233 3.338 2.658 3.89 7.519 1.232 10.857l-44.947 56.46c-1.511 1.898-3.825 2.976-6.25 2.912-.39-.01-.777-.051-1.157-.119z"/><path d="m135.117 376.987c-1.972-.353-3.748-1.464-4.928-3.12l-26.007-36.483c-2.477-3.475-1.668-8.299 1.806-10.776 3.475-2.477 8.3-1.668 10.776 1.806l20.056 28.135 38.562-48.439c2.658-3.339 7.518-3.892 10.857-1.233 3.338 2.657 3.89 7.519 1.232 10.857l-44.947 56.46c-1.511 1.898-3.825 2.976-6.25 2.912-.39-.011-.777-.051-1.157-.119z"/></g></g></svg>