<svg id="Capa_1" enable-background="new 0 0 512 512" height="512" viewBox="0 0 512 512" width="512" xmlns="http://www.w3.org/2000/svg"><g><g><path d="m438.103 89.572c4.166 4.167 6.507 9.818 6.507 15.711v377.037c0 12.25-9.93 22.18-22.17 22.18h-332.88c-12.244 0-22.17-9.926-22.17-22.17v-452.66c0-12.244 9.926-22.17 22.17-22.17h257.276c5.894 0 11.546 2.341 15.713 6.509z" fill="#deecf1"/><path d="m444.61 105.28v377.04c0 12.25-9.93 22.18-22.17 22.18h-32.82c12.24 0 22.17-9.93 22.17-22.18v-417.04c0-.71-.03-1.43-.11-2.13l26.42 26.42c4.17 4.17 6.51 9.82 6.51 15.71z" fill="#cbe5e8"/><path d="m442.61 96.08h-64.4c-12.24 0-22.17-9.93-22.17-22.17v-64.41c2.4 1.09 4.6 2.6 6.51 4.51l75.56 75.56c1.9 1.91 3.42 4.11 4.5 6.51z" fill="#cbe5e8"/><path d="m256.731 48.931-.731.731-.731-.731c-10.585-10.585-27.748-10.585-38.333 0-10.586 10.586-10.586 27.748 0 38.333l.731.731 31.884 31.884c3.562 3.562 9.338 3.562 12.9 0l31.884-31.884.731-.731c10.585-10.585 10.585-27.748 0-38.333-10.587-10.586-27.749-10.586-38.335 0z" fill="#fd8087"/></g><g><path d="m443.404 84.267-75.551-75.56c-5.614-5.615-13.077-8.707-21.013-8.707h-257.28c-16.36 0-29.67 13.31-29.67 29.67v363.16c0 4.142 3.358 7.5 7.5 7.5s7.5-3.358 7.5-7.5v-363.16c0-8.089 6.581-14.67 14.67-14.67h257.28c.573 0 1.139.042 1.7.106v58.804c0 16.36 13.31 29.67 29.67 29.67h58.793c.064.561.107 1.127.107 1.7v50.72c0 4.142 3.358 7.5 7.5 7.5s7.5-3.358 7.5-7.5v-50.72c0-7.936-3.092-15.398-8.706-21.013zm-79.864-10.357v-48.303l62.964 62.973h-48.294c-8.089 0-14.67-6.581-14.67-14.67z"/><path d="m444.61 183.26c-4.142 0-7.5 3.358-7.5 7.5v291.56c0 8.095-6.581 14.68-14.67 14.68h-332.88c-8.089 0-14.67-6.581-14.67-14.67v-54.5c0-4.142-3.358-7.5-7.5-7.5s-7.5 3.358-7.5 7.5v54.5c0 16.36 13.31 29.67 29.67 29.67h332.88c16.36 0 29.67-13.314 29.67-29.68v-291.56c0-4.142-3.358-7.5-7.5-7.5z"/><path d="m396.658 227.757h-180.081c-4.142 0-7.5 3.358-7.5 7.5s3.358 7.5 7.5 7.5h180.081c4.142 0 7.5-3.358 7.5-7.5s-3.358-7.5-7.5-7.5z"/><path d="m216.577 273.251h130.387c4.142 0 7.5-3.358 7.5-7.5s-3.358-7.5-7.5-7.5h-130.387c-4.142 0-7.5 3.358-7.5 7.5s3.358 7.5 7.5 7.5z"/><path d="m216.577 330.911h180.081c4.142 0 7.5-3.358 7.5-7.5s-3.358-7.5-7.5-7.5h-180.081c-4.142 0-7.5 3.358-7.5 7.5s3.358 7.5 7.5 7.5z"/><path d="m216.577 361.405h130.387c4.142 0 7.5-3.358 7.5-7.5s-3.358-7.5-7.5-7.5h-130.387c-4.142 0-7.5 3.358-7.5 7.5s3.358 7.5 7.5 7.5z"/><path d="m404.16 411.56c0-4.142-3.358-7.5-7.5-7.5h-64.79c-4.142 0-7.5 3.358-7.5 7.5s3.358 7.5 7.5 7.5h64.79c4.142 0 7.5-3.358 7.5-7.5z"/><path d="m216.58 404.06c-4.142 0-7.5 3.358-7.5 7.5s3.358 7.5 7.5 7.5h80.29c4.142 0 7.5-3.358 7.5-7.5s-3.358-7.5-7.5-7.5z"/><path d="m216.577 449.558h130.387c4.142 0 7.5-3.358 7.5-7.5s-3.358-7.5-7.5-7.5h-130.387c-4.142 0-7.5 3.358-7.5 7.5s3.358 7.5 7.5 7.5z"/><path d="m182.435 148.974c0 4.142 3.358 7.5 7.5 7.5h132.131c4.142 0 7.5-3.358 7.5-7.5s-3.358-7.5-7.5-7.5h-132.131c-4.143 0-7.5 3.358-7.5 7.5z"/><path d="m256 130.043c4.256 0 8.513-1.62 11.753-4.86l32.615-32.615c13.493-13.493 13.493-35.447 0-48.94-12.057-12.058-30.873-13.34-44.368-3.848-13.496-9.492-32.312-8.21-44.368 3.847-13.493 13.493-13.493 35.447 0 48.94l32.615 32.615c3.24 3.241 7.497 4.861 11.753 4.861zm-33.762-75.809c3.822-3.822 8.843-5.733 13.864-5.733s10.041 1.911 13.863 5.733l.731.731c2.929 2.929 7.678 2.929 10.606 0l.731-.731c7.645-7.645 20.083-7.645 27.727 0s7.644 20.083 0 27.727l-32.615 32.615c-.632.632-1.661.632-2.293 0l-32.615-32.615c-7.643-7.644-7.643-20.083.001-27.727z"/><path d="m140.256 288.207c-.044 0-.087 0-.131-.001-2.354-.042-4.552-1.186-5.937-3.09l-25.565-35.183c-2.435-3.351-1.692-8.041 1.659-10.476 3.352-2.435 8.041-1.691 10.476 1.659l19.715 27.132 37.005-47.358c2.55-3.265 7.263-3.844 10.527-1.292 3.264 2.55 3.842 7.264 1.292 10.527l-43.132 55.2c-1.422 1.821-3.603 2.882-5.909 2.882z"/><path d="m140.256 373.758c-.044 0-.087 0-.131-.001-2.354-.042-4.553-1.186-5.937-3.09l-25.565-35.184c-2.435-3.351-1.692-8.041 1.659-10.476 3.352-2.435 8.041-1.692 10.476 1.659l19.715 27.133 37.005-47.358c2.549-3.264 7.263-3.844 10.527-1.292 3.264 2.55 3.842 7.264 1.292 10.527l-43.132 55.2c-1.422 1.82-3.603 2.882-5.909 2.882z"/></g></g></svg>