<?xml version="1.0" encoding="UTF-8" standalone="no"?>
<svg
   id="Layer_1"
   enable-background="new 0 0 511.999 511.999"
   height="512"
   viewBox="0 0 511.999 511.999"
   width="512"
   version="1.1"
   sodipodi:docname="0-color.svg"
   inkscape:version="1.1.2 (0a00cf5339, 2022-02-04)"
   xmlns:inkscape="http://www.inkscape.org/namespaces/inkscape"
   xmlns:sodipodi="http://sodipodi.sourceforge.net/DTD/sodipodi-0.dtd"
   xmlns="http://www.w3.org/2000/svg"
   xmlns:svg="http://www.w3.org/2000/svg">
  <defs
     id="defs17" />
  <sodipodi:namedview
     id="namedview15"
     pagecolor="#ffffff"
     bordercolor="#666666"
     borderopacity="1.0"
     inkscape:pageshadow="2"
     inkscape:pageopacity="0.0"
     inkscape:pagecheckerboard="0"
     showgrid="false"
     inkscape:zoom="1.2304688"
     inkscape:cx="256.40634"
     inkscape:cy="255.59364"
     inkscape:window-width="1920"
     inkscape:window-height="1012"
     inkscape:window-x="0"
     inkscape:window-y="0"
     inkscape:window-maximized="1"
     inkscape:current-layer="Layer_1" />
  <g
     id="g12"
     transform="matrix(1.0349922,0,0,1.0349922,-8.9579622,-8.9579447)">
    <path
       clip-rule="evenodd"
       d="m 426.018,254.119 c 0,37.991 -3.009,72.22 -9.153,102.813 -6.144,30.593 -16.174,56.673 -29.966,78.238 -13.917,21.566 -31.847,38.116 -54.04,49.526 -22.193,11.535 -49.401,17.303 -81.499,17.303 -32.599,0 -59.557,-5.517 -80.872,-16.676 -21.315,-11.159 -38.242,-27.208 -50.655,-48.147 -12.538,-20.939 -21.315,-46.517 -26.33,-76.734 -5.015,-30.217 -7.523,-64.447 -7.523,-102.563 0,-37.74 3.135,-71.97 9.404,-102.688 6.269,-30.719 16.299,-56.798 30.092,-78.364 13.917,-21.566 31.847,-38.116 54.04,-49.526 22.193,-11.535 49.275,-17.303 81.122,-17.303 32.599,0 59.557,5.517 80.997,16.676 21.44,11.159 38.492,27.208 50.905,48.147 12.539,20.939 21.19,46.517 26.08,76.734 4.89,30.218 7.398,64.447 7.398,102.564 z m -97.046,5.015 c 0,-22.569 -0.627,-42.379 -1.881,-59.556 -1.254,-17.303 -3.135,-32.223 -5.642,-45.012 -2.633,-12.663 -5.893,-23.446 -9.655,-32.223 -3.762,-8.776 -8.401,-15.923 -13.918,-21.064 -5.392,-5.266 -11.535,-9.028 -18.431,-11.284 -6.896,-2.132 -14.545,-3.26 -22.945,-3.26 -14.419,0 -26.456,3.51 -35.985,10.407 -9.529,7.021 -16.927,17.428 -22.569,31.471 -5.516,13.917 -9.404,31.22 -11.535,52.033 -2.257,20.814 -3.385,45.013 -3.385,72.597 0,33.728 1.379,61.688 4.012,83.755 2.758,22.193 7.021,39.746 12.789,52.911 5.768,13.04 13.291,22.193 22.318,27.459 9.152,5.266 20.061,7.899 32.975,7.899 9.529,0 18.055,-1.505 25.453,-4.639 7.398,-3.009 13.792,-7.648 19.434,-13.667 5.517,-6.144 10.156,-13.792 13.792,-23.196 3.762,-9.278 6.771,-20.061 9.027,-32.223 2.382,-12.287 4.012,-26.079 4.89,-41.501 0.88,-15.298 1.256,-32.35 1.256,-50.907 z"
       fill="#8481e2"
       fill-rule="evenodd"
       id="path2"
       style="fill:#2a7fff" />
    <g
       id="g10" />
  </g>
</svg>
