<?xml version="1.0" encoding="UTF-8" standalone="no"?>
<svg
   id="Layer_1"
   enable-background="new 0 0 511.999 511.999"
   height="512"
   viewBox="0 0 511.999 511.999"
   width="512"
   version="1.1"
   sodipodi:docname="2-color.svg"
   inkscape:version="1.1.2 (0a00cf5339, 2022-02-04)"
   xmlns:inkscape="http://www.inkscape.org/namespaces/inkscape"
   xmlns:sodipodi="http://sodipodi.sourceforge.net/DTD/sodipodi-0.dtd"
   xmlns="http://www.w3.org/2000/svg"
   xmlns:svg="http://www.w3.org/2000/svg">
  <defs
     id="defs15" />
  <sodipodi:namedview
     id="namedview13"
     pagecolor="#ffffff"
     bordercolor="#666666"
     borderopacity="1.0"
     inkscape:pageshadow="2"
     inkscape:pageopacity="0.0"
     inkscape:pagecheckerboard="0"
     showgrid="false"
     inkscape:zoom="1.2304688"
     inkscape:cx="256.40634"
     inkscape:cy="255.59364"
     inkscape:window-width="1920"
     inkscape:window-height="1012"
     inkscape:window-x="0"
     inkscape:window-y="0"
     inkscape:window-maximized="1"
     inkscape:current-layer="Layer_1" />
  <g
     id="g10"
     transform="matrix(1.0350225,0,0,1.0350225,-8.9657233,-8.9657584)">
    <path
       clip-rule="evenodd"
       d="m 418.214,461.956 c 0,7.269 -0.255,13.518 -0.893,18.619 -0.638,5.101 -1.658,9.182 -2.806,12.498 -1.275,3.188 -2.933,5.484 -4.846,6.887 -2.04,1.403 -4.336,2.04 -6.759,2.04 H 124.774 c -5.484,0 -10.202,-0.51 -14.156,-1.531 -3.953,-1.02 -7.269,-2.933 -9.692,-5.739 -2.55,-2.933 -4.336,-7.014 -5.484,-12.497 -1.148,-5.484 -1.658,-12.625 -1.658,-21.297 0,-8.289 0.383,-15.303 1.148,-21.169 0.765,-5.866 2.04,-11.095 4.081,-15.686 2.04,-4.591 4.591,-9.055 7.652,-13.39 3.188,-4.464 7.141,-9.182 12.243,-14.411 l 83.785,-89.524 c 16.706,-17.471 30.224,-33.284 40.426,-47.695 10.202,-14.283 18.236,-27.418 23.975,-39.278 5.738,-11.86 9.564,-22.7 11.732,-32.647 2.168,-9.947 3.188,-19.512 3.188,-28.439 0,-8.162 -1.276,-15.941 -3.954,-23.337 -2.55,-7.269 -6.504,-13.646 -11.605,-19.129 -5.101,-5.484 -11.477,-9.692 -19.257,-12.88 -7.652,-3.061 -16.706,-4.591 -27.291,-4.591 -14.666,0 -27.674,1.913 -39.023,5.611 -11.35,3.698 -21.297,7.907 -29.841,12.498 -8.672,4.719 -15.814,8.927 -21.552,12.753 -5.739,3.953 -10.202,5.866 -13.391,5.866 -2.295,0 -4.208,-0.765 -5.866,-2.296 -1.658,-1.403 -2.933,-3.953 -3.953,-7.397 -0.893,-3.57 -1.785,-8.162 -2.423,-14.155 -0.638,-5.866 -0.893,-13.008 -0.893,-21.424 0,-5.739 0.128,-10.585 0.511,-14.538 0.382,-3.826 1.02,-7.142 1.785,-10.075 0.638,-2.806 1.658,-5.356 2.933,-7.524 1.275,-2.041 3.443,-4.591 6.503,-7.652 3.188,-2.933 8.927,-6.759 17.216,-11.35 8.417,-4.719 18.619,-9.182 30.862,-13.518 12.243,-4.336 25.633,-8.034 40.426,-11.095 C 217.867,11.531 233.17,10 249.111,10 c 25.251,0 47.185,3.188 66.059,9.565 18.747,6.376 34.432,15.176 46.93,26.525 12.497,11.35 21.68,24.74 27.801,40.299 6.121,15.558 9.182,32.264 9.182,50.246 0,15.686 -1.53,31.117 -4.463,46.293 -3.061,15.303 -9.31,31.626 -18.747,49.225 -9.437,17.471 -22.827,36.983 -40.044,58.28 -17.216,21.297 -40.044,46.037 -68.482,74.221 l -56.494,57.77 H 401.38 c 2.551,0 4.846,0.765 6.887,2.296 2.168,1.403 3.953,3.698 5.484,6.887 1.53,3.06 2.551,7.141 3.316,12.243 0.765,5.098 1.147,11.219 1.147,18.106 z"
       fill="#ff5a58"
       fill-rule="evenodd"
       id="path2"
       style="fill:#2a7fff" />
    <g
       id="g8" />
  </g>
</svg>
