<?xml version="1.0" encoding="UTF-8" standalone="no"?>
<svg
   id="Layer_1"
   enable-background="new 0 0 511.999 511.999"
   height="512"
   viewBox="0 0 511.999 511.999"
   width="512"
   version="1.1"
   sodipodi:docname="3-color.svg"
   inkscape:version="1.1.2 (0a00cf5339, 2022-02-04)"
   xmlns:inkscape="http://www.inkscape.org/namespaces/inkscape"
   xmlns:sodipodi="http://sodipodi.sourceforge.net/DTD/sodipodi-0.dtd"
   xmlns="http://www.w3.org/2000/svg"
   xmlns:svg="http://www.w3.org/2000/svg">
  <defs
     id="defs15" />
  <sodipodi:namedview
     id="namedview13"
     pagecolor="#ffffff"
     bordercolor="#666666"
     borderopacity="1.0"
     inkscape:pageshadow="2"
     inkscape:pageopacity="0.0"
     inkscape:pagecheckerboard="0"
     showgrid="false"
     inkscape:zoom="1.2304688"
     inkscape:cx="256.40634"
     inkscape:cy="255.59364"
     inkscape:window-width="1920"
     inkscape:window-height="1012"
     inkscape:window-x="0"
     inkscape:window-y="0"
     inkscape:window-maximized="1"
     inkscape:current-layer="Layer_1" />
  <g
     id="g10"
     transform="matrix(1.037787,0,0,1.037787,-9.6734808,-9.6735375)">
    <path
       clip-rule="evenodd"
       d="m 414.734,354.676 c 0,23.697 -4.514,44.761 -13.541,63.067 -9.153,18.306 -21.691,33.728 -37.865,46.141 -16.174,12.413 -35.483,21.942 -57.927,28.462 -22.569,6.395 -47.143,9.655 -73.85,9.655 -16.049,0 -31.22,-1.128 -45.514,-3.511 -14.168,-2.382 -26.706,-5.266 -37.615,-8.777 -10.908,-3.385 -19.81,-7.022 -26.957,-10.783 -7.022,-3.636 -11.661,-6.52 -13.918,-8.401 -2.257,-2.006 -3.887,-4.138 -5.015,-6.645 -1.003,-2.382 -2.006,-5.266 -2.884,-8.526 -0.878,-3.385 -1.505,-7.523 -1.881,-12.538 -0.376,-4.89 -0.501,-11.034 -0.501,-18.055 0,-11.66 1.003,-19.81 2.884,-24.324 2.006,-4.514 5.015,-6.771 8.902,-6.771 2.382,0 6.646,1.63 12.664,4.89 6.019,3.26 13.667,6.771 22.945,10.532 9.278,3.761 20.187,7.272 32.725,10.532 12.538,3.26 26.706,4.89 42.63,4.89 13.416,0 25.327,-1.63 35.609,-4.764 10.281,-3.134 19.058,-7.648 26.33,-13.29 7.147,-5.768 12.538,-12.664 16.174,-20.813 3.511,-8.15 5.266,-17.303 5.266,-27.208 0,-11.034 -2.131,-20.814 -6.394,-29.59 -4.388,-8.777 -10.657,-16.3 -19.183,-22.444 -8.401,-6.269 -19.058,-11.033 -31.973,-14.419 -12.789,-3.385 -27.96,-5.141 -45.389,-5.141 H 159.33 c -3.26,0 -5.893,-0.376 -8.15,-1.254 -2.132,-0.878 -4.012,-2.633 -5.517,-5.392 -1.379,-2.633 -2.507,-6.395 -3.134,-11.159 -0.627,-4.765 -0.878,-10.909 -0.878,-18.431 0,-7.147 0.251,-12.914 0.878,-17.428 0.627,-4.514 1.63,-8.025 3.009,-10.407 1.254,-2.508 3.009,-4.263 5.015,-5.141 2.132,-1.003 4.639,-1.505 7.523,-1.505 h 41.376 c 14.168,0 26.707,-1.63 37.615,-5.015 11.034,-3.26 20.187,-8.024 27.709,-14.168 7.398,-6.144 13.04,-13.541 16.927,-22.318 3.887,-8.652 5.893,-18.306 5.893,-28.963 0,-8.025 -1.379,-15.798 -4.012,-22.945 -2.758,-7.272 -6.645,-13.541 -11.911,-18.807 -5.266,-5.266 -12.036,-9.529 -20.312,-12.538 -8.275,-3.134 -18.055,-4.639 -29.339,-4.639 -12.664,0 -24.575,1.881 -35.859,5.767 -11.284,3.762 -21.315,7.899 -30.217,12.413 -8.902,4.639 -16.425,8.902 -22.694,12.789 -6.269,3.887 -10.783,5.893 -13.792,5.893 -1.881,0 -3.636,-0.376 -5.015,-1.254 -1.504,-0.878 -2.758,-2.507 -3.761,-5.015 -0.878,-2.507 -1.63,-6.018 -2.132,-10.657 -0.501,-4.765 -0.752,-10.783 -0.752,-18.18 0,-6.144 0.126,-11.159 0.376,-15.297 0.251,-4.012 0.752,-7.397 1.505,-10.156 0.752,-2.633 1.63,-5.015 2.758,-7.021 1.003,-1.881 2.884,-4.012 5.266,-6.394 2.507,-2.382 7.523,-5.768 15.046,-10.407 7.648,-4.639 17.177,-9.153 28.587,-13.541 11.535,-4.389 24.826,-8.025 39.871,-11.159 15.046,-3.009 31.346,-4.514 49.025,-4.514 22.945,0 43.257,2.758 61.061,8.15 17.679,5.392 32.599,13.165 44.762,23.321 12.036,10.156 21.315,22.694 27.459,37.489 6.269,14.92 9.403,31.596 9.403,50.278 0,14.419 -1.881,27.96 -5.517,40.373 -3.636,12.538 -9.027,23.697 -16.174,33.477 -7.021,9.905 -15.923,18.18 -26.581,25.076 -10.658,6.896 -22.945,12.037 -36.862,15.422 v 1.128 c 16.676,2.006 31.596,6.144 44.887,12.663 13.165,6.395 24.449,14.544 33.603,24.324 9.153,9.78 16.174,20.813 21.064,33.227 4.887,12.287 7.395,25.577 7.395,39.746 z"
       fill="#88df8e"
       fill-rule="evenodd"
       id="path2"
       style="fill:#2a7fff" />
    <g
       id="g8" />
  </g>
</svg>
