<?xml version="1.0" encoding="UTF-8" standalone="no"?>
<svg
   id="Layer_1"
   enable-background="new 0 0 512 512"
   height="512"
   viewBox="0 0 512 512"
   width="512"
   version="1.1"
   sodipodi:docname="5-color.svg"
   inkscape:version="1.1.2 (0a00cf5339, 2022-02-04)"
   xmlns:inkscape="http://www.inkscape.org/namespaces/inkscape"
   xmlns:sodipodi="http://sodipodi.sourceforge.net/DTD/sodipodi-0.dtd"
   xmlns="http://www.w3.org/2000/svg"
   xmlns:svg="http://www.w3.org/2000/svg">
  <defs
     id="defs15" />
  <sodipodi:namedview
     id="namedview13"
     pagecolor="#ffffff"
     bordercolor="#666666"
     borderopacity="1.0"
     inkscape:pageshadow="2"
     inkscape:pageopacity="0.0"
     inkscape:pagecheckerboard="0"
     showgrid="false"
     inkscape:zoom="1.2304688"
     inkscape:cx="256.40634"
     inkscape:cy="255.59364"
     inkscape:window-width="1920"
     inkscape:window-height="1012"
     inkscape:window-x="0"
     inkscape:window-y="0"
     inkscape:window-maximized="1"
     inkscape:current-layer="Layer_1" />
  <g
     id="g10"
     transform="matrix(1.0365241,0,0,1.0365241,-9.3501975,-9.3501609)">
    <path
       clip-rule="evenodd"
       d="m 414.389,336.47 c 0,26.143 -4.591,49.481 -13.645,70.012 -9.054,20.532 -21.935,37.876 -38.513,52.031 -16.578,14.028 -36.473,24.74 -59.683,32.265 C 279.21,498.302 253.449,502 225.011,502 c -14.921,0 -29.204,-0.893 -42.594,-2.805 -13.518,-1.913 -25.505,-4.336 -36.218,-7.142 -10.712,-2.933 -19.511,-5.739 -26.398,-8.672 -6.759,-2.933 -11.35,-5.229 -13.39,-7.142 -2.168,-1.913 -3.698,-3.953 -4.718,-6.121 -1.021,-2.296 -1.786,-4.973 -2.423,-8.034 -0.638,-3.188 -1.02,-7.142 -1.275,-11.86 -0.255,-4.718 -0.382,-10.33 -0.382,-16.833 0,-7.014 0.255,-12.88 0.765,-17.727 0.51,-4.846 1.275,-8.799 2.423,-11.732 1.148,-3.061 2.423,-5.229 3.953,-6.376 1.403,-1.275 3.188,-1.913 5.229,-1.913 2.423,0 6.249,1.403 11.35,4.336 5.101,2.806 11.86,5.994 20.149,9.437 8.417,3.443 18.619,6.631 30.479,9.437 11.988,2.933 26.398,4.336 42.977,4.336 14.538,0 27.673,-1.53 39.533,-4.464 11.861,-3.061 21.807,-7.779 30.097,-14.41 8.162,-6.631 14.538,-14.794 19.002,-24.868 4.463,-9.947 6.759,-21.807 6.759,-35.835 0,-11.86 -1.913,-22.573 -5.612,-31.882 -3.698,-9.31 -9.564,-17.216 -17.599,-23.72 -7.907,-6.504 -18.236,-11.35 -30.989,-14.538 -12.753,-3.188 -28.184,-4.846 -46.293,-4.846 -14.538,0 -27.673,0.765 -39.406,2.296 -11.86,1.403 -23.083,2.168 -33.54,2.168 -7.141,0 -12.37,-1.785 -15.431,-5.356 -3.188,-3.698 -4.718,-10.33 -4.718,-20.022 V 37.928 c 0,-9.947 1.913,-17.089 5.739,-21.424 C 126.432,12.168 132.554,10 140.97,10 h 229.039 c 2.168,0 4.336,0.765 6.376,2.295 1.913,1.403 3.699,3.826 4.974,7.014 1.403,3.316 2.423,7.524 3.061,13.008 0.638,5.356 0.893,11.733 0.893,19.257 0,14.921 -1.275,25.76 -3.953,32.519 -2.551,6.759 -6.376,10.075 -11.35,10.075 H 197.847 v 103.297 c 8.672,-1.02 17.344,-1.658 26.015,-1.913 8.545,-0.255 17.599,-0.382 27.036,-0.382 26.271,0 49.481,3.061 69.758,9.182 20.405,6.121 37.493,15.048 51.266,26.908 13.9,11.86 24.358,26.526 31.626,44.125 7.27,17.471 10.841,37.875 10.841,61.085 z"
       fill="#00ccf2"
       fill-rule="evenodd"
       id="path2"
       style="fill:#2a7fff" />
    <g
       id="g8" />
  </g>
</svg>
