<?xml version="1.0" encoding="UTF-8" standalone="no"?>
<svg
   id="Layer_1"
   enable-background="new 0 0 512 512"
   height="512"
   viewBox="0 0 512 512"
   width="512"
   version="1.1"
   sodipodi:docname="6-color.svg"
   inkscape:version="1.1.2 (0a00cf5339, 2022-02-04)"
   xmlns:inkscape="http://www.inkscape.org/namespaces/inkscape"
   xmlns:sodipodi="http://sodipodi.sourceforge.net/DTD/sodipodi-0.dtd"
   xmlns="http://www.w3.org/2000/svg"
   xmlns:svg="http://www.w3.org/2000/svg">
  <defs
     id="defs17" />
  <sodipodi:namedview
     id="namedview15"
     pagecolor="#ffffff"
     bordercolor="#666666"
     borderopacity="1.0"
     inkscape:pageshadow="2"
     inkscape:pageopacity="0.0"
     inkscape:pagecheckerboard="0"
     showgrid="false"
     inkscape:zoom="1.2304688"
     inkscape:cx="256.40634"
     inkscape:cy="255.59364"
     inkscape:window-width="1920"
     inkscape:window-height="1012"
     inkscape:window-x="0"
     inkscape:window-y="0"
     inkscape:window-maximized="1"
     inkscape:current-layer="Layer_1" />
  <g
     id="g12"
     transform="matrix(1.0416667,0,0,1.0416667,-10.666688,-10.666688)">
    <path
       clip-rule="evenodd"
       d="m 420,334.991 c 0,23.948 -3.636,46.141 -11.034,66.578 -7.398,20.437 -18.181,38.116 -32.349,52.911 -14.168,14.795 -31.722,26.456 -52.535,34.857 -20.939,8.4 -44.887,12.663 -72.095,12.663 -22.068,0 -41.376,-2.508 -57.801,-7.523 -16.425,-5.015 -30.593,-12.287 -42.63,-21.691 C 139.519,463.382 129.74,451.847 122.091,438.431 114.568,425.015 108.424,409.718 103.91,392.917 99.396,375.99 96.262,357.559 94.632,337.749 92.877,317.939 92,296.875 92,274.557 92,256 92.878,236.441 94.758,216.129 c 1.881,-20.312 5.392,-40.247 10.657,-59.933 5.266,-19.56 12.664,-38.241 22.193,-56.046 C 137.137,82.471 149.55,66.924 164.596,53.508 179.642,40.217 197.822,29.56 219.263,21.786 240.703,13.887 266.156,10 295.495,10 c 9.278,0 18.682,0.501 28.086,1.63 9.404,1.128 18.18,2.508 26.33,4.263 8.024,1.63 14.92,3.636 20.563,5.893 5.642,2.131 9.278,4.012 11.159,5.642 1.881,1.63 3.26,3.385 4.263,5.266 1.003,2.006 1.755,4.138 2.382,6.52 0.627,2.257 1.003,5.141 1.254,8.526 0.251,3.511 0.376,7.648 0.376,12.538 0,7.523 -0.125,13.792 -0.501,18.808 -0.376,5.015 -1.128,9.028 -2.132,11.786 -0.878,2.884 -2.257,4.89 -4.012,6.018 -1.63,1.254 -3.762,1.881 -6.269,1.881 -2.884,0 -6.646,-0.752 -11.285,-2.382 -4.639,-1.63 -10.281,-3.385 -16.926,-5.266 -6.646,-2.006 -14.419,-3.761 -23.321,-5.14 -8.902,-1.505 -19.309,-2.257 -31.095,-2.257 -19.81,0 -36.486,3.636 -50.278,11.034 -13.667,7.398 -24.826,17.428 -33.352,30.092 -8.652,12.664 -14.921,27.333 -18.807,44.009 -3.887,16.676 -6.019,34.355 -6.269,53.036 5.392,-3.511 11.661,-6.896 18.682,-10.281 6.896,-3.51 14.545,-6.394 22.695,-8.902 8.275,-2.382 17.177,-4.389 26.706,-6.018 9.529,-1.63 19.81,-2.382 30.593,-2.382 23.948,0 44.511,3.26 61.688,9.905 17.177,6.645 31.22,16.049 42.129,28.336 10.908,12.162 18.933,26.957 24.073,44.385 5.14,17.302 7.773,36.736 7.773,58.051 z m -94.789,9.153 c 0,-12.413 -1.128,-23.321 -3.26,-32.725 -2.257,-9.404 -5.768,-17.302 -10.783,-23.822 -4.89,-6.395 -11.41,-11.285 -19.434,-14.67 -8.15,-3.26 -17.93,-4.89 -29.465,-4.89 -6.896,0 -13.666,0.627 -20.312,1.881 -6.52,1.129 -13.04,2.883 -19.434,5.015 -6.394,2.257 -12.538,4.89 -18.432,7.899 -5.893,3.009 -11.409,6.269 -16.55,9.655 0,26.205 1.504,47.896 4.388,65.324 3.009,17.428 7.272,31.345 13.04,41.501 5.768,10.282 13.04,17.554 21.817,21.817 8.651,4.263 18.807,6.394 30.343,6.394 11.284,0 21.189,-2.131 29.59,-6.269 8.526,-4.138 15.547,-9.905 21.19,-17.553 5.642,-7.523 9.905,-16.3 12.914,-26.456 2.884,-10.156 4.388,-21.19 4.388,-33.101 z"
       fill="#ffc144"
       fill-rule="evenodd"
       id="path2"
       style="fill:#2a7fff" />
    <g
       id="g10" />
  </g>
</svg>
