<?xml version="1.0" encoding="UTF-8" standalone="no"?>
<svg
   id="Layer_1"
   enable-background="new 0 0 512 512"
   height="512"
   viewBox="0 0 512 512"
   width="512"
   version="1.1"
   sodipodi:docname="7-color.svg"
   inkscape:version="1.1.2 (0a00cf5339, 2022-02-04)"
   xmlns:inkscape="http://www.inkscape.org/namespaces/inkscape"
   xmlns:sodipodi="http://sodipodi.sourceforge.net/DTD/sodipodi-0.dtd"
   xmlns="http://www.w3.org/2000/svg"
   xmlns:svg="http://www.w3.org/2000/svg">
  <defs
     id="defs15" />
  <sodipodi:namedview
     id="namedview13"
     pagecolor="#ffffff"
     bordercolor="#666666"
     borderopacity="1.0"
     inkscape:pageshadow="2"
     inkscape:pageopacity="0.0"
     inkscape:pagecheckerboard="0"
     showgrid="false"
     inkscape:zoom="1.2304688"
     inkscape:cx="256.40634"
     inkscape:cy="255.59364"
     inkscape:window-width="1920"
     inkscape:window-height="1012"
     inkscape:window-x="0"
     inkscape:window-y="0"
     inkscape:window-maximized="1"
     inkscape:current-layer="Layer_1" />
  <g
     id="g10"
     transform="matrix(1.0381663,0,0,1.0381663,-9.7705971,-9.770578)">
    <path
       clip-rule="evenodd"
       d="m 421.421,51.84 c 0,7.361 -0.259,13.688 -0.775,19.112 -0.517,5.424 -1.162,10.46 -2.066,15.109 -0.904,4.649 -2.066,9.039 -3.616,13.172 -1.42,4.133 -3.228,8.652 -5.294,13.43 L 248.64,486.505 c -1.55,3.228 -3.487,5.94 -5.811,7.877 -2.454,2.066 -5.811,3.616 -10.072,4.778 -4.262,1.162 -9.814,1.937 -16.4,2.324 -6.715,0.387 -14.979,0.516 -24.794,0.516 -13.301,0 -23.89,-0.387 -31.767,-1.291 -7.748,-0.904 -13.559,-2.324 -17.175,-4.262 -3.616,-1.808 -5.682,-4.262 -5.811,-7.103 -0.258,-2.97 0.517,-6.586 2.583,-10.847 L 312.173,96.003 h -205.71 c -5.294,0 -9.298,-3.487 -11.88,-10.331 -2.712,-6.973 -4.003,-17.95 -4.003,-33.058 0,-7.49 0.387,-14.076 1.162,-19.37 0.775,-5.424 1.808,-9.943 3.228,-13.43 1.421,-3.487 2.97,-6.069 4.907,-7.49 C 101.814,10.775 104.01,10 106.463,10 h 291.068 c 4.648,0 8.394,0.387 11.363,1.291 3.099,0.904 5.424,2.841 7.232,5.811 1.808,3.099 3.099,7.361 4.003,12.914 0.904,5.553 1.292,12.784 1.292,21.824 z"
       fill="#8481e2"
       fill-rule="evenodd"
       id="path2"
       style="fill:#2a7fff" />
    <g
       id="g8" />
  </g>
</svg>
