<?xml version="1.0" encoding="UTF-8" standalone="no"?>
<svg
   id="Layer_1"
   enable-background="new 0 0 512 512"
   height="512"
   viewBox="0 0 512 512"
   width="512"
   version="1.1"
   sodipodi:docname="8-color.svg"
   inkscape:version="1.1.2 (0a00cf5339, 2022-02-04)"
   xmlns:inkscape="http://www.inkscape.org/namespaces/inkscape"
   xmlns:sodipodi="http://sodipodi.sourceforge.net/DTD/sodipodi-0.dtd"
   xmlns="http://www.w3.org/2000/svg"
   xmlns:svg="http://www.w3.org/2000/svg">
  <defs
     id="defs19" />
  <sodipodi:namedview
     id="namedview17"
     pagecolor="#ffffff"
     bordercolor="#666666"
     borderopacity="1.0"
     inkscape:pageshadow="2"
     inkscape:pageopacity="0.0"
     inkscape:pagecheckerboard="0"
     showgrid="false"
     inkscape:zoom="1.2304688"
     inkscape:cx="256.40634"
     inkscape:cy="255.59364"
     inkscape:window-width="1920"
     inkscape:window-height="1012"
     inkscape:window-x="0"
     inkscape:window-y="0"
     inkscape:window-maximized="1"
     inkscape:current-layer="Layer_1" />
  <g
     id="g14"
     transform="matrix(1.0375216,0,0,1.0375216,-9.6055417,-9.6055229)">
    <path
       clip-rule="evenodd"
       d="m 424.138,366.211 c 0,21.441 -3.762,40.749 -11.159,57.551 -7.523,16.927 -18.556,31.22 -33.101,42.755 -14.544,11.661 -32.725,20.437 -54.29,26.456 -21.566,6.018 -46.392,9.027 -74.603,9.027 -26.832,0 -50.529,-2.633 -70.841,-8.024 -20.312,-5.392 -37.364,-13.29 -51.156,-23.697 -13.666,-10.407 -23.948,-23.321 -30.844,-38.618 -6.896,-15.297 -10.281,-32.85 -10.281,-52.66 0,-13.416 2.006,-26.079 6.019,-37.991 4.137,-11.911 10.03,-22.945 18.055,-33.101 7.899,-10.156 17.929,-19.685 29.716,-28.587 11.911,-8.902 25.578,-17.428 41,-25.578 -12.538,-6.771 -23.823,-14.168 -33.853,-22.193 -10.031,-7.899 -18.557,-16.55 -25.703,-26.079 -7.147,-9.404 -12.538,-19.685 -16.174,-30.969 -3.636,-11.285 -5.517,-23.572 -5.517,-36.737 0,-19.058 3.385,-36.361 10.156,-51.908 6.645,-15.548 16.801,-29.089 30.092,-40.373 13.416,-11.41 30.092,-20.186 50.153,-26.33 20.184,-6.146 43.38,-9.155 69.836,-9.155 26.33,0 48.773,2.758 67.581,8.401 18.682,5.642 34.104,13.666 46.141,23.948 11.911,10.281 20.814,22.569 26.581,36.862 5.768,14.294 8.651,30.217 8.651,47.52 0,11.535 -1.881,22.694 -5.642,33.602 -3.887,10.908 -9.152,21.315 -16.049,31.095 -6.896,9.78 -15.297,18.933 -25.327,27.71 -10.031,8.652 -21.44,16.551 -34.229,23.697 14.921,7.774 28.337,16.049 39.997,24.951 11.786,8.777 21.691,18.306 29.841,28.462 8.025,10.156 14.294,20.939 18.557,32.474 4.262,11.535 6.393,23.948 6.393,37.489 z M 317.312,135.633 c 0,-8.526 -1.254,-16.174 -3.636,-23.07 -2.508,-6.771 -6.269,-12.664 -11.535,-17.428 -5.266,-4.765 -11.786,-8.275 -19.434,-10.783 -7.648,-2.382 -16.801,-3.636 -27.208,-3.636 -20.563,0 -35.734,4.765 -45.764,14.168 -10.031,9.404 -15.046,22.318 -15.046,38.994 0,7.774 1.254,15.046 3.887,21.566 2.508,6.645 6.52,12.915 11.911,18.682 5.266,5.893 12.287,11.66 20.813,17.302 8.526,5.642 18.682,11.535 30.343,17.93 17.804,-10.532 31.596,-21.691 41.251,-33.728 9.654,-11.911 14.418,-25.327 14.418,-39.997 z m 11.285,236.973 c 0,-9.027 -1.504,-17.303 -4.639,-24.7 -3.009,-7.523 -7.774,-14.545 -14.294,-21.064 -6.519,-6.645 -14.669,-13.04 -24.575,-19.058 -9.78,-6.144 -21.19,-12.413 -34.23,-18.682 -11.284,6.018 -21.315,12.162 -29.841,18.306 -8.651,6.019 -15.798,12.538 -21.44,19.184 -5.642,6.77 -9.905,13.792 -12.663,21.315 -2.884,7.398 -4.263,15.422 -4.263,23.948 0,19.058 6.143,33.602 18.556,43.633 12.413,10.03 30.97,15.046 55.544,15.046 24.074,0 42.003,-5.141 53.914,-15.422 11.912,-10.283 17.931,-24.451 17.931,-42.506 z"
       fill="#cbe558"
       fill-rule="evenodd"
       id="path2"
       style="fill:#2a7fff" />
    <g
       id="g12" />
  </g>
</svg>
