<?xml version="1.0" encoding="UTF-8" standalone="no"?>
<svg
   id="Layer_1"
   enable-background="new 0 0 512 512"
   height="512"
   viewBox="0 0 512 512"
   width="512"
   version="1.1"
   sodipodi:docname="9-color.svg"
   inkscape:version="1.1.2 (0a00cf5339, 2022-02-04)"
   xmlns:inkscape="http://www.inkscape.org/namespaces/inkscape"
   xmlns:sodipodi="http://sodipodi.sourceforge.net/DTD/sodipodi-0.dtd"
   xmlns="http://www.w3.org/2000/svg"
   xmlns:svg="http://www.w3.org/2000/svg">
  <defs
     id="defs17" />
  <sodipodi:namedview
     id="namedview15"
     pagecolor="#ffffff"
     bordercolor="#666666"
     borderopacity="1.0"
     inkscape:pageshadow="2"
     inkscape:pageopacity="0.0"
     inkscape:pagecheckerboard="0"
     showgrid="false"
     inkscape:zoom="1.2304688"
     inkscape:cx="256.40634"
     inkscape:cy="255.59364"
     inkscape:window-width="1920"
     inkscape:window-height="1012"
     inkscape:window-x="0"
     inkscape:window-y="0"
     inkscape:window-maximized="1"
     inkscape:current-layer="Layer_1" />
  <g
     id="g12"
     transform="matrix(1.0377321,0,0,1.0377321,-9.6594266,-9.6594266)">
    <path
       clip-rule="evenodd"
       d="m 420,234.309 c 0,19.309 -1.003,39.37 -2.884,60.058 -2.006,20.688 -5.768,41 -11.284,60.81 -5.517,19.81 -13.04,38.617 -22.819,56.547 -9.655,17.804 -22.193,33.477 -37.489,46.768 -15.296,13.291 -33.979,23.948 -55.92,31.722 -21.943,7.899 -47.772,11.786 -77.739,11.786 -10.532,0 -20.939,-0.752 -31.471,-2.257 -10.406,-1.379 -19.811,-3.26 -28.462,-5.391 -8.526,-2.257 -15.798,-4.639 -21.817,-7.022 -6.018,-2.508 -10.407,-5.015 -13.04,-7.523 -2.758,-2.633 -4.765,-6.269 -5.893,-11.159 -1.254,-4.89 -1.881,-11.786 -1.881,-20.563 0,-8.15 0.126,-14.544 0.502,-19.435 0.376,-4.89 1.128,-8.776 2.257,-11.409 1.129,-2.758 2.508,-4.514 4.013,-5.392 1.63,-0.752 3.511,-1.254 5.768,-1.254 2.884,0 7.147,0.878 12.538,2.633 5.391,1.63 11.911,3.636 19.685,5.893 7.774,2.131 16.551,4.137 26.331,5.767 9.78,1.755 20.813,2.633 32.85,2.633 20.563,0 37.991,-3.636 52.285,-11.033 14.168,-7.397 25.703,-17.303 34.606,-29.841 8.902,-12.538 15.297,-27.082 19.56,-43.508 4.137,-16.425 6.52,-33.728 7.021,-51.908 -11.284,7.147 -24.951,13.29 -40.875,18.556 -15.924,5.266 -34.23,7.899 -54.792,7.899 -25.328,0 -46.768,-3.26 -64.321,-9.905 C 149.05,301.136 134.631,291.607 123.597,279.194 112.563,266.656 104.539,251.61 99.524,233.68 94.508,215.878 92,195.691 92,173.248 92,149.426 95.511,127.609 102.658,107.673 109.805,87.863 120.337,70.56 134.254,56.016 148.171,41.472 165.6,30.187 186.413,22.163 207.226,14.012 231.3,10 258.759,10 c 22.067,0 41.376,2.508 57.801,7.649 16.55,5.141 30.719,12.538 42.63,22.067 11.911,9.529 21.817,21.19 29.716,34.731 8.025,13.541 14.293,28.713 18.807,45.389 4.514,16.55 7.648,34.605 9.529,53.914 1.881,19.308 2.758,39.495 2.758,60.559 z m -95.541,-13.667 c 0,-26.079 -1.505,-47.896 -4.388,-65.324 -3.009,-17.554 -7.398,-31.596 -13.291,-42.003 -5.893,-10.407 -13.29,-17.93 -22.067,-22.318 -8.777,-4.388 -19.184,-6.52 -30.969,-6.52 -11.535,0 -21.44,2.006 -29.716,6.018 -8.401,4.012 -15.297,9.655 -20.813,16.927 -5.517,7.398 -9.655,15.923 -12.413,25.954 -2.633,10.031 -4.012,20.939 -4.012,32.85 0,12.915 1.129,24.324 3.511,34.104 2.257,9.905 6.018,18.055 11.034,24.449 5.015,6.52 11.535,11.284 19.685,14.419 8.15,3.134 17.929,4.764 29.465,4.764 14.168,0 27.71,-2.132 40.248,-6.394 12.662,-4.262 23.946,-9.904 33.726,-16.926 z"
       fill="#ff5a58"
       fill-rule="evenodd"
       id="path2"
       style="fill:#2a7fff" />
    <g
       id="g10" />
  </g>
</svg>
