<?xml version="1.0" encoding="UTF-8" standalone="no"?>
<svg
   id="Capa_1"
   enable-background="new 0 0 512 512"
   height="512"
   viewBox="0 0 512 512"
   width="512"
   version="1.1"
   sodipodi:docname="backspace-color.svg"
   inkscape:version="1.1.2 (0a00cf5339, 2022-02-04)"
   xmlns:inkscape="http://www.inkscape.org/namespaces/inkscape"
   xmlns:sodipodi="http://sodipodi.sourceforge.net/DTD/sodipodi-0.dtd"
   xmlns="http://www.w3.org/2000/svg"
   xmlns:svg="http://www.w3.org/2000/svg">
  <defs
     id="defs21" />
  <sodipodi:namedview
     id="namedview19"
     pagecolor="#ffffff"
     bordercolor="#666666"
     borderopacity="1.0"
     inkscape:pageshadow="2"
     inkscape:pageopacity="0.0"
     inkscape:pagecheckerboard="0"
     showgrid="false"
     inkscape:zoom="1.2304688"
     inkscape:cx="256.40634"
     inkscape:cy="255.59364"
     inkscape:window-width="1920"
     inkscape:window-height="1012"
     inkscape:window-x="0"
     inkscape:window-y="0"
     inkscape:window-maximized="1"
     inkscape:current-layer="Capa_1" />
  <g
     id="g16"
     transform="matrix(1.0383359,0,0,1.0383359,-9.8139981,-9.8140029)">
    <g
       id="g6">
      <path
         d="M 149.617,93 H 454.5 c 26.234,0 47.5,21.266 47.5,47.5 v 231 c 0,26.234 -21.266,47.5 -47.5,47.5 H 149.617 c -14.455,0 -28.123,-6.582 -37.136,-17.883 l -92.117,-115.5 c -13.819,-17.327 -13.819,-41.908 0,-59.235 l 92.117,-115.5 C 121.494,99.582 135.162,93 149.617,93 Z"
         fill="#ff9c9b"
         id="path2"
         style="fill:#ff2a2a" />
      <path
         d="m 373.772,256 37.017,-37.017 c 3.964,-3.964 3.964,-10.391 0,-14.354 l -24.537,-24.537 c -3.964,-3.964 -10.39,-3.964 -14.354,0 l -37.017,37.017 -37.017,-37.017 c -3.964,-3.964 -10.39,-3.964 -14.354,0 l -24.537,24.537 c -3.964,3.964 -3.964,10.39 0,14.354 L 295.99,256 258.973,293.017 c -3.964,3.964 -3.964,10.39 0,14.354 l 24.537,24.537 c 3.964,3.964 10.39,3.964 14.354,0 l 37.017,-37.017 37.017,37.017 c 3.964,3.964 10.391,3.964 14.354,0 l 24.537,-24.537 c 3.964,-3.964 3.964,-10.39 0,-14.354 z"
         fill="#ffffff"
         id="path4" />
    </g>
    <g
       id="g14" />
  </g>
</svg>
