<?xml version="1.0" encoding="UTF-8" standalone="no"?>
<!-- Created with Inkscape (http://www.inkscape.org/) -->

<svg
   version="1.1"
   id="svg3540"
   xml:space="preserve"
   width="682.66669"
   height="682.66669"
   viewBox="0 0 682.66669 682.66669"
   xmlns="http://www.w3.org/2000/svg"
   xmlns:svg="http://www.w3.org/2000/svg"><defs
     id="defs3544"><clipPath
       clipPathUnits="userSpaceOnUse"
       id="clipPath3554"><path
         d="M 0,512 H 512 V 0 H 0 Z"
         id="path3552" /></clipPath></defs><g
     id="g3546"
     transform="matrix(1.3333333,0,0,-1.3333333,0,682.66667)"><g
       id="g3548"><g
         id="g3550"
         clip-path="url(#clipPath3554)"><g
           id="g3556"
           transform="translate(241,474.5)"><path
             d="m 0,0 c 0,-8.284 6.716,-15 15,-15 8.284,0 15,6.716 15,15 C 30,8.284 23.284,15 15,15 6.716,15 0,8.284 0,0"
             style="fill:#b6b5d8;fill-opacity:1;fill-rule:nonzero;stroke:none"
             id="path3558" /></g><g
           id="g3560"
           transform="translate(474.5,399.5)"><path
             d="M 0,0 H -30 V -377 H 0 c 16.568,0 30,13.432 30,30 V -30 C 30,-13.431 16.568,0 0,0"
             style="fill:#807dbb;fill-opacity:1;fill-rule:nonzero;stroke:none"
             id="path3562" /></g><g
           id="g3564"
           transform="translate(474.5,52.5)"><path
             d="M 0,0 -45,128.5 0,317 c 0,16.569 -13.432,30 -30,30 h -407 c -16.568,0 -30,-13.431 -30,-30 V 0 c 0,-16.568 13.432,-30 30,-30 h 407 c 16.568,0 30,13.432 30,30"
             style="fill:#9b99c9;fill-opacity:1;fill-rule:nonzero;stroke:none"
             id="path3566" /></g><g
           id="g3568"
           transform="translate(443.5,369.5)"><path
             d="M 0,0 -59,-158.5 0,-317 H 31 V 0 Z"
             style="fill:#ec9345;fill-opacity:1;fill-rule:nonzero;stroke:none"
             id="path3570" /></g><path
           d="m 37.5,52.5 h 406 v 317 h -406 z"
           style="fill:#ecc04b;fill-opacity:1;fill-rule:nonzero;stroke:none"
           id="path3572" /><g
           id="g3574"
           transform="translate(218.5,196)"><path
             d="m 0,0 c -12.426,0 -22.5,-10.074 -22.5,-22.5 v -60 c 0,-12.426 10.074,-22.5 22.5,-22.5 12.427,0 22.5,10.074 22.5,22.5 v 60 C 22.5,-10.074 12.427,0 0,0 Z"
             style="fill:none;stroke:#000000;stroke-width:15;stroke-linecap:round;stroke-linejoin:round;stroke-miterlimit:10;stroke-dasharray:none;stroke-opacity:1"
             id="path3576" /></g><g
           id="g3578"
           transform="translate(346,91)"><path
             d="M 0,0 V 105 L 45,0 v 105"
             style="fill:none;stroke:#000000;stroke-width:15;stroke-linecap:round;stroke-linejoin:round;stroke-miterlimit:10;stroke-dasharray:none;stroke-opacity:1"
             id="path3580" /></g><g
           id="g3582"
           transform="translate(293.5,196)"><path
             d="m 0,0 c -12.426,0 -22.5,-10.074 -22.5,-22.5 v -60 c 0,-12.426 10.074,-22.5 22.5,-22.5 12.427,0 22.5,10.074 22.5,22.5 v 60 C 22.5,-10.074 12.427,0 0,0 Z"
             style="fill:none;stroke:#000000;stroke-width:15;stroke-linecap:round;stroke-linejoin:round;stroke-miterlimit:10;stroke-dasharray:none;stroke-opacity:1"
             id="path3584" /></g><g
           id="g3586"
           transform="translate(121,113.5)"><path
             d="M 0,0 C 0,-12.426 10.074,-22.5 22.5,-22.5 34.927,-22.5 45,-12.426 45,0 45,6.729 42.043,12.764 37.361,16.887 L 7.64,43.113 C 2.958,47.236 0,53.271 0,60 0,72.426 10.074,82.5 22.5,82.5 34.927,82.5 45,72.426 45,60"
             style="fill:none;stroke:#000000;stroke-width:15;stroke-linecap:round;stroke-linejoin:round;stroke-miterlimit:10;stroke-dasharray:none;stroke-opacity:1"
             id="path3588" /></g><g
           id="g3590"
           transform="translate(166,331)"><path
             d="m 0,0 c -12.427,0 -22.5,-10.074 -22.5,-22.5 v -60 c 0,-12.426 10.073,-22.5 22.5,-22.5 12.426,0 22.5,10.074 22.5,22.5 v 60 C 22.5,-10.074 12.426,0 0,0 Z"
             style="fill:none;stroke:#000000;stroke-width:15;stroke-linecap:round;stroke-linejoin:round;stroke-miterlimit:10;stroke-dasharray:none;stroke-opacity:1"
             id="path3592" /></g><g
           id="g3594"
           transform="translate(443.5,308.5)"><path
             d="M 0,0 C 0,12.426 -10.073,22.5 -22.5,22.5 -34.926,22.5 -45,12.426 -45,0 v -60 c 0,-12.426 10.074,-22.5 22.5,-22.5 12.427,0 22.5,10.074 22.5,22.5 v 30 h -15"
             style="fill:none;stroke:#000000;stroke-width:15;stroke-linecap:round;stroke-linejoin:round;stroke-miterlimit:10;stroke-dasharray:none;stroke-opacity:1"
             id="path3596" /></g><g
           id="g3598"
           transform="translate(218.5,226)"><path
             d="M 0,0 V 105 L 22.5,52.5 45,105 V 0"
             style="fill:none;stroke:#000000;stroke-width:15;stroke-linecap:round;stroke-linejoin:round;stroke-miterlimit:10;stroke-dasharray:none;stroke-opacity:1"
             id="path3600" /></g><g
           id="g3602"
           transform="translate(293.5,331)"><path
             d="M 0,0 V -105"
             style="fill:none;stroke:#000000;stroke-width:15;stroke-linecap:round;stroke-linejoin:round;stroke-miterlimit:10;stroke-dasharray:none;stroke-opacity:1"
             id="path3604" /></g><g
           id="g3606"
           transform="translate(113.5,248.5)"><path
             d="M 0,0 C 0,-12.426 -10.074,-22.5 -22.5,-22.5 -34.927,-22.5 -45,-12.426 -45,0 v 60 c 0,12.426 10.073,22.5 22.5,22.5 C -10.074,82.5 0,72.426 0,60"
             style="fill:none;stroke:#000000;stroke-width:15;stroke-linecap:round;stroke-linejoin:round;stroke-miterlimit:10;stroke-dasharray:none;stroke-opacity:1"
             id="path3608" /></g><g
           id="g3610"
           transform="translate(323.5,226)"><path
             d="M 0,0 V 105 L 45,0 v 105"
             style="fill:none;stroke:#000000;stroke-width:15;stroke-linecap:round;stroke-linejoin:round;stroke-miterlimit:10;stroke-dasharray:none;stroke-opacity:1"
             id="path3612" /></g><g
           id="g3614"
           transform="translate(474.5,22.5)"><path
             d="m 0,0 h -437 c -16.568,0 -30,13.432 -30,30 v 317 c 0,16.568 13.432,30 30,30 H 0 c 16.568,0 30,-13.432 30,-30 V 30 C 30,13.432 16.568,0 0,0 Z"
             style="fill:none;stroke:#000000;stroke-width:15;stroke-linecap:round;stroke-linejoin:round;stroke-miterlimit:10;stroke-dasharray:none;stroke-opacity:1"
             id="path3616" /></g><g
           id="g3618"
           transform="translate(37.5,196)"><path
             d="m 0,0 v -143.5 h 437 v 317 H 0 V 30"
             style="fill:none;stroke:#000000;stroke-width:15;stroke-linecap:round;stroke-linejoin:round;stroke-miterlimit:10;stroke-dasharray:none;stroke-opacity:1"
             id="path3620" /></g><g
           id="g3622"
           transform="translate(241,474.5)"><path
             d="m 0,0 c 0,-8.284 6.716,-15 15,-15 8.284,0 15,6.716 15,15 C 30,8.284 23.284,15 15,15 6.716,15 0,8.284 0,0 Z"
             style="fill:none;stroke:#000000;stroke-width:15;stroke-linecap:round;stroke-linejoin:round;stroke-miterlimit:10;stroke-dasharray:none;stroke-opacity:1"
             id="path3624" /></g><g
           id="g3626"
           transform="translate(246.4072,486.0317)"><path
             d="M 0,0 -103.907,-86.532"
             style="fill:none;stroke:#000000;stroke-width:15;stroke-linecap:round;stroke-linejoin:round;stroke-miterlimit:10;stroke-dasharray:none;stroke-opacity:1"
             id="path3628" /></g><g
           id="g3630"
           transform="translate(265.5928,486.0317)"><path
             d="M 0,0 103.907,-86.532"
             style="fill:none;stroke:#000000;stroke-width:15;stroke-linecap:round;stroke-linejoin:round;stroke-miterlimit:10;stroke-dasharray:none;stroke-opacity:1"
             id="path3632" /></g></g></g></g></svg>
