<?xml version="1.0" encoding="UTF-8" standalone="no"?>
<svg
   id="Capa_1"
   enable-background="new 0 0 512 512"
   height="512"
   viewBox="0 0 512 512"
   width="512"
   version="1.1"
   sodipodi:docname="comma.svg"
   inkscape:version="1.1.2 (0a00cf5339, 2022-02-04)"
   xmlns:inkscape="http://www.inkscape.org/namespaces/inkscape"
   xmlns:sodipodi="http://sodipodi.sourceforge.net/DTD/sodipodi-0.dtd"
   xmlns="http://www.w3.org/2000/svg"
   xmlns:svg="http://www.w3.org/2000/svg">
  <defs
     id="defs33" />
  <sodipodi:namedview
     id="namedview31"
     pagecolor="#ffffff"
     bordercolor="#666666"
     borderopacity="1.0"
     inkscape:pageshadow="2"
     inkscape:pageopacity="0.0"
     inkscape:pagecheckerboard="0"
     showgrid="false"
     inkscape:zoom="1.2304688"
     inkscape:cx="255.59365"
     inkscape:cy="255.59365"
     inkscape:window-width="1920"
     inkscape:window-height="1012"
     inkscape:window-x="0"
     inkscape:window-y="0"
     inkscape:window-maximized="1"
     inkscape:current-layer="Capa_1" />
  <g
     id="g28"
     transform="matrix(2.8456921,0,0,-2.827975,-235.51299,876.41323)">
    <g
       id="g18">
      <g
         id="g10" />
      <path
         d="m 162.673,138.871 -5.156,5.156 c -2.901,2.901 -3.224,7.588 -0.563,10.71 6.013,7.055 15.464,22.421 18.12,51.168 -29.616,0.467 -52.742,27.66 -46.224,58.542 3.822,18.106 18.472,32.727 36.584,36.522 31.108,6.518 58.502,-17.044 58.502,-47.005 0,-64.16 -35.947,-102.644 -50.298,-115.451 -3.168,-2.827 -7.963,-2.644 -10.965,0.358 z"
         fill="#ffffff"
         id="path12"
         style="fill:#37c871" />
      <g
         id="g16" />
    </g>
    <g
       id="g26">
      <path
         d="m 148.773,223.727 c 3.087,-2.761 3.353,-7.502 0.591,-10.59 -2.762,-3.088 -7.503,-3.353 -10.59,-0.591 -15.036,13.445 -21.489,33.427 -17.263,53.45 4.416,20.923 21.449,37.927 42.384,42.314 3.953,0.828 7.923,1.235 11.856,1.235 12.765,0 25.125,-4.291 35.116,-12.406 13.071,-10.616 20.567,-26.353 20.567,-43.175 0,-66.719 -36.927,-106.877 -52.804,-121.046 -6.107,-5.451 -15.447,-5.166 -21.262,0.65 l -5.156,5.156 c -5.68,5.68 -6.105,14.851 -0.967,20.879 5.034,5.906 13.853,19.865 16.359,46.992 0.381,4.125 4.038,7.151 8.158,6.778 4.125,-0.381 7.159,-4.034 6.778,-8.158 -2.743,-29.681 -12.325,-46.478 -19.88,-55.343 -0.042,-0.05 -0.055,-0.33 0.158,-0.542 l 5.156,-5.156 c 0.174,-0.174 0.459,-0.252 0.668,-0.066 14.37,12.824 47.792,49.2 47.792,109.855 0,12.284 -5.476,23.777 -15.024,31.532 -9.547,7.754 -22.102,10.719 -34.44,8.133 -15.205,-3.186 -27.576,-15.535 -30.783,-30.73 -3.103,-14.706 1.602,-29.349 12.586,-39.171 z"
         id="path24" />
    </g>
  </g>
</svg>
