<svg height="512pt" viewBox="0 0 512 512" width="512pt" xmlns="http://www.w3.org/2000/svg"><path d="m504.394531 256c0 137.183594-111.210937 248.394531-248.394531 248.394531s-248.394531-111.210937-248.394531-248.394531 111.210937-248.394531 248.394531-248.394531 248.394531 111.210937 248.394531 248.394531zm0 0" fill="#e6e6e6"/><path d="m461.945312 256c0 113.742188-92.203124 205.945312-205.945312 205.945312s-205.945312-92.203124-205.945312-205.945312 92.203124-205.945312 205.945312-205.945312 205.945312 92.203124 205.945312 205.945312zm0 0" fill="#20a5d3"/><path d="m74.386719 256c0-109.65625 85.703125-199.28125 193.78125-205.578125-4.027344-.234375-8.082031-.367187-12.167969-.367187-113.738281 0-205.945312 92.203124-205.945312 205.945312s92.207031 205.945312 205.945312 205.945312c4.085938 0 8.140625-.132812 12.167969-.367187-108.078125-6.296875-193.78125-95.921875-193.78125-205.578125zm0 0" fill="#1090b2"/><path d="m297.878906 125.054688c0-23.132813-18.753906-41.886719-41.871094-41.886719-23.132812 0-41.886718 18.753906-41.886718 41.886719 0 23.132812 18.753906 41.882812 41.886718 41.882812 23.117188 0 41.871094-18.75 41.871094-41.882812zm0 0" fill="#e6e6e6"/><path d="m292.367188 372.601562v-169.671874h-93.601563v32.40625h20.867187v137.265624h-20.867187v32.40625h114.472656v-32.40625zm0 0" fill="#e6e6e6"/><path d="m256.007812 174.542969c-27.289062 0-49.492187-22.199219-49.492187-49.488281 0-27.289063 22.203125-49.492188 49.492187-49.492188 27.28125 0 49.472657 22.203125 49.472657 49.492188 0 27.289062-22.191407 49.488281-49.472657 49.488281zm0-83.769531c-18.902343 0-34.28125 15.378906-34.28125 34.28125 0 18.902343 15.378907 34.28125 34.28125 34.28125 18.894532 0 34.265626-15.378907 34.265626-34.28125 0-18.902344-15.371094-34.28125-34.265626-34.28125zm0 0"/><path d="m313.238281 412.613281h-114.472656c-4.199219 0-7.605469-3.40625-7.605469-7.605469v-32.40625c0-4.199218 3.40625-7.601562 7.605469-7.601562h13.265625v-122.058594h-13.265625c-4.199219 0-7.605469-3.40625-7.605469-7.605468v-32.40625c0-4.199219 3.40625-7.601563 7.605469-7.601563h93.601563c4.199218 0 7.605468 3.402344 7.605468 7.601563v32.769531c0 4.199219-3.40625 7.605469-7.605468 7.605469-4.199219 0-7.605469-3.40625-7.605469-7.605469v-25.164063h-78.394531v17.199219h13.265624c4.199219 0 7.605469 3.402344 7.605469 7.601563v137.265624c0 4.199219-3.40625 7.605469-7.605469 7.605469h-13.265624v17.199219h99.265624v-17.199219h-13.265624c-4.199219 0-7.605469-3.40625-7.605469-7.605469v-111.554687c0-4.199219 3.40625-7.601563 7.605469-7.601563 4.199218 0 7.605468 3.402344 7.605468 7.601563v103.953125h13.265625c4.199219 0 7.601563 3.402344 7.601563 7.601562v32.40625c0 4.199219-3.402344 7.605469-7.601563 7.605469zm0 0"/><path d="m256 512c-68.378906 0-132.667969-26.628906-181.019531-74.980469-48.351563-48.351562-74.980469-112.640625-74.980469-181.019531s26.628906-132.667969 74.980469-181.019531c48.351562-48.351563 112.640625-74.980469 181.019531-74.980469s132.667969 26.628906 181.019531 74.980469c48.351563 48.351562 74.980469 112.640625 74.980469 181.019531s-26.628906 132.667969-74.980469 181.019531c-48.351562 48.351563-112.640625 74.980469-181.019531 74.980469zm0-496.792969c-64.316406 0-124.785156 25.046875-170.265625 70.527344s-70.527344 105.949219-70.527344 170.265625 25.046875 124.785156 70.527344 170.265625 105.949219 70.527344 170.265625 70.527344 124.785156-25.046875 170.265625-70.527344 70.527344-105.949219 70.527344-170.265625-25.046875-124.785156-70.527344-170.265625-105.949219-70.527344-170.265625-70.527344zm0 0"/><path d="m256 469.550781c-39.898438 0-78.816406-11.074219-112.542969-32.03125-32.796875-20.371093-59.496093-49.238281-77.222656-83.480469-1.929687-3.730468-.472656-8.316406 3.257813-10.246093 3.730468-1.929688 8.320312-.472657 10.25 3.257812 34.257812 66.179688 101.796874 107.292969 176.257812 107.292969 109.367188 0 198.339844-88.976562 198.339844-198.34375 0-109.363281-88.972656-198.34375-198.339844-198.34375s-198.34375 88.976562-198.34375 198.34375c0 22.269531 3.660156 44.128906 10.882812 64.96875 1.375 3.96875-.726562 8.300781-4.695312 9.671875-3.96875 1.375-8.300781-.726563-9.675781-4.691406-7.777344-22.445313-11.71875-45.980469-11.71875-69.949219 0-117.753906 95.796875-213.550781 213.550781-213.550781 117.75 0 213.550781 95.800781 213.550781 213.550781s-95.796875 213.550781-213.550781 213.550781zm0 0"/></svg>