<svg height="512pt" viewBox="0 0 512 512" width="512pt" xmlns="http://www.w3.org/2000/svg"><path d="m512 256c0 141.386719-114.613281 256-256 256s-256-114.613281-256-256 114.613281-256 256-256 256 114.613281 256 256zm0 0" fill="#e6e6e6"/><path d="m468.25 256c0 117.222656-95.027344 212.25-212.25 212.25s-212.25-95.027344-212.25-212.25 95.027344-212.25 212.25-212.25 212.25 95.027344 212.25 212.25zm0 0" fill="#20a5d3"/><path d="m68.824219 256c0-113.011719 88.328125-205.382812 199.714843-211.871094-4.148437-.242187-8.328124-.378906-12.539062-.378906-117.222656 0-212.25 95.027344-212.25 212.25s95.027344 212.25 212.25 212.25c4.210938 0 8.386719-.136719 12.539062-.378906-111.386718-6.488282-199.714843-98.859375-199.714843-211.871094zm0 0" fill="#1090b2"/><g fill="#e6e6e6"><path d="m299.160156 121.046875c0-23.84375-19.328125-43.167969-43.152344-43.167969-23.839843 0-43.167968 19.324219-43.167968 43.167969 0 23.839844 19.324218 43.167969 43.167968 43.167969 23.824219 0 43.152344-19.328125 43.152344-43.167969zm0 0"/><path d="m293.480469 376.171875v-174.863281h-96.46875v33.394531h21.507812v141.46875h-21.507812v33.398437h117.976562v-33.398437zm0 0"/></g></svg>