<?xml version="1.0" encoding="UTF-8" standalone="no"?>
<svg
   id="Capa_1"
   enable-background="new 0 0 512 512"
   height="512"
   viewBox="0 0 512 512"
   width="512"
   version="1.1"
   sodipodi:docname="multiplication.svg"
   inkscape:version="1.1.2 (0a00cf5339, 2022-02-04)"
   xmlns:inkscape="http://www.inkscape.org/namespaces/inkscape"
   xmlns:sodipodi="http://sodipodi.sourceforge.net/DTD/sodipodi-0.dtd"
   xmlns="http://www.w3.org/2000/svg"
   xmlns:svg="http://www.w3.org/2000/svg">
  <defs
     id="defs33" />
  <sodipodi:namedview
     id="namedview31"
     pagecolor="#ffffff"
     bordercolor="#666666"
     borderopacity="1.0"
     inkscape:pageshadow="2"
     inkscape:pageopacity="0.0"
     inkscape:pagecheckerboard="0"
     showgrid="false"
     inkscape:zoom="1.2304688"
     inkscape:cx="255.59365"
     inkscape:cy="255.59365"
     inkscape:window-width="1920"
     inkscape:window-height="1012"
     inkscape:window-x="0"
     inkscape:window-y="0"
     inkscape:window-maximized="1"
     inkscape:current-layer="Capa_1" />
  <g
     id="g28"
     transform="matrix(2.3406741,0,0,2.3406741,-343.21258,-343.2135)">
    <g
       id="g18">
      <g
         id="g10" />
      <g
         id="g16">
        <path
           d="m 359.325,323.691 -66.63,-66.63 c -0.781,-0.781 -0.781,-2.047 0,-2.828 l 66.63,-66.63 c 1.953,-1.953 1.953,-5.118 0,-7.071 l -24.749,-24.749 c -1.953,-1.953 -5.118,-1.953 -7.071,0 l -66.63,66.63 c -0.781,0.781 -2.047,0.781 -2.828,0 l -66.63,-66.63 c -1.953,-1.953 -5.118,-1.953 -7.071,0 l -24.749,24.749 c -1.953,1.953 -1.953,5.118 0,7.071 l 66.63,66.63 c 0.781,0.781 0.781,2.047 0,2.828 l -66.63,66.63 c -1.953,1.953 -1.953,5.118 0,7.071 l 24.749,24.749 c 1.953,1.953 5.118,1.953 7.071,0 l 66.63,-66.63 c 0.781,-0.781 2.047,-0.781 2.828,0 l 66.63,66.63 c 1.953,1.953 5.118,1.953 7.071,0 l 24.749,-24.749 c 1.952,-1.952 1.952,-5.118 0,-7.071 z"
           fill="#f7f9fa"
           id="path14"
           style="fill:#37c871" />
      </g>
    </g>
    <g
       id="g26">
      <path
         d="m 361.164,175.577 -24.67,-24.67 c -4.916,-4.915 -12.912,-4.915 -17.828,0 L 256,213.574 193.263,150.837 c -4.876,-4.876 -12.811,-4.876 -17.687,0 l -24.74,24.74 c -4.876,4.876 -4.876,12.811 0,17.687 L 213.574,256 150.837,318.737 c -4.876,4.876 -4.876,12.811 0,17.687 l 24.74,24.74 c 4.876,4.876 12.81,4.877 17.687,0 l 23.14,-23.14 c 2.929,-2.929 2.929,-7.677 0,-10.606 -2.929,-2.929 -7.678,-2.929 -10.606,0 l -21.377,21.376 -21.213,-21.213 66.277,-66.277 c 2.929,-2.929 2.929,-7.678 0,-10.606 l -66.277,-66.277 21.213,-21.213 66.277,66.277 c 1.406,1.407 3.314,2.197 5.303,2.197 1.989,0 3.896,-0.79 5.304,-2.197 l 66.276,-66.277 21.214,21.214 -66.277,66.277 c -2.929,2.929 -2.929,7.678 0,10.606 l 66.277,66.277 -21.214,21.213 -66.276,-66.277 c -2.93,-2.929 -7.678,-2.928 -10.607,0 l -20.12,20.12 c -2.929,2.929 -2.929,7.678 0,10.606 2.929,2.929 7.678,2.929 10.606,0 L 256,298.426 l 62.736,62.737 c 2.438,2.438 5.641,3.658 8.844,3.657 3.202,0 6.405,-1.219 8.844,-3.657 l 24.74,-24.74 c 4.876,-4.876 4.876,-12.811 0,-17.687 L 298.427,256 361.164,193.263 c 4.876,-4.876 4.876,-12.81 0,-17.686 z"
         id="path24" />
    </g>
  </g>
</svg>
