<?xml version="1.0" encoding="UTF-8" standalone="no"?>
<svg
   id="Capa_1"
   enable-background="new 0 0 512 512"
   height="512"
   viewBox="0 0 512 512"
   width="512"
   version="1.1"
   sodipodi:docname="plus.svg"
   inkscape:version="1.1.2 (0a00cf5339, 2022-02-04)"
   xmlns:inkscape="http://www.inkscape.org/namespaces/inkscape"
   xmlns:sodipodi="http://sodipodi.sourceforge.net/DTD/sodipodi-0.dtd"
   xmlns="http://www.w3.org/2000/svg"
   xmlns:svg="http://www.w3.org/2000/svg">
  <defs
     id="defs31" />
  <sodipodi:namedview
     id="namedview29"
     pagecolor="#ffffff"
     bordercolor="#666666"
     borderopacity="1.0"
     inkscape:pageshadow="2"
     inkscape:pageopacity="0.0"
     inkscape:pagecheckerboard="0"
     showgrid="false"
     inkscape:snap-nodes="true"
     inkscape:snap-global="true"
     inkscape:snap-bbox="false"
     inkscape:bbox-paths="true"
     inkscape:snap-grids="true"
     inkscape:snap-page="true"
     inkscape:zoom="1.1252211"
     inkscape:cx="209.2922"
     inkscape:cy="231.51006"
     inkscape:window-width="1920"
     inkscape:window-height="1012"
     inkscape:window-x="0"
     inkscape:window-y="0"
     inkscape:window-maximized="1"
     inkscape:current-layer="Capa_1" />
  <path
     d="M 495.44258,210.30573 H 306.40159 c -2.21684,0 -4.01238,-1.83582 -4.01238,-4.10241 V 12.920033 c 0,-5.6633877 -4.49184,-10.2560314 -10.03094,-10.2560314 h -70.21651 c -5.53909,0 -10.03095,4.5926437 -10.03095,10.2560314 V 206.20332 c 0,2.26659 -1.79552,4.10241 -4.01236,4.10241 H 19.057463 c -5.539083,0 -10.030923,4.59266 -10.030923,10.25604 v 71.79231 c 0,5.66339 4.49184,10.25603 10.030923,10.25603 H 208.09845 c 2.21684,0 4.01236,1.83583 4.01236,4.10242 v 193.28336 c 0,5.66337 4.49186,10.25606 10.03095,10.25606 h 70.21651 c 5.5391,0 10.03094,-4.59269 10.03094,-10.25606 V 306.71253 c 0,-2.26659 1.79554,-4.10242 4.01238,-4.10242 h 189.04099 c 5.53908,0 10.03095,-4.59264 10.03095,-10.25603 v -71.79231 c 0,-5.66338 -4.48986,-10.25604 -10.03095,-10.25604 z"
     fill="#f7f9fa"
     id="path14"
     style="fill:#37c871;fill-opacity:1;stroke-width:2.02857" />
  <path
     d="M 290.70111,0 H 222.43537 C 208.99093,0 198.05476,10.93616 198.05476,24.380618 V 197.444 H 24.991375 c -13.444442,0 -24.38061935,10.93615 -24.38061935,24.38062 v 68.26572 c 0,13.44446 10.93617735,24.38062 24.38061935,24.38062 H 198.05476 v 173.06342 c 0,13.44446 10.93617,24.38062 24.38061,24.38062 h 68.26574 c 13.44446,0 24.38064,-10.93616 24.38064,-24.38062 V 314.47096 h 173.06339 c 13.44444,0 24.38062,-10.93616 24.38062,-24.38062 v -68.26572 c 0,-13.44447 -10.93618,-24.38062 -24.38062,-24.38062 h -59.93732 c -8.07876,0 -14.62837,6.54961 -14.62837,14.62836 0,8.07878 6.54961,14.62839 14.62837,14.62839 H 483.269 v 58.51348 H 300.45336 c -8.07876,0 -14.62836,6.54959 -14.62836,14.62837 V 482.65825 H 227.3115 V 299.8426 c 0,-8.07878 -6.54961,-14.62837 -14.62838,-14.62837 H 29.867501 V 226.70075 H 212.68312 c 8.07877,0 14.62838,-6.54961 14.62838,-14.62839 V 29.256745 H 285.825 V 212.07236 c 0,8.07878 6.5496,14.62839 14.62836,14.62839 h 59.48873 c 8.07875,0 14.62836,-6.54961 14.62836,-14.62839 0,-8.07875 -6.54961,-14.62836 -14.62836,-14.62836 H 315.08175 V 24.380618 C 315.08175,10.93616 304.14557,0 290.70111,0 Z"
     id="path22"
     style="stroke-width:1.95045" />
</svg>
