<svg id="Capa_1" enable-background="new 0 0 513.016 513.016" height="512" viewBox="0 0 513.016 513.016" width="512" xmlns="http://www.w3.org/2000/svg"><g><g><path d="m457.716 146.342-33.064-77.299-83.011-43.006-82 25.304-30.041 42.441v314.157l30.041 43.797 94.696 29.306 97.985-85.889 26.627-83.927-3.916-96.939z" fill="#eaf6ff"/><path d="m475.328 146.342-33.065-77.299-80.326-49.268-20.296 6.262 70.116 43.006 33.064 77.299 17.317 67.945-.382 100.601-26.627 83.926-80.792 82.228 23.393 7.24 87.906-89.468 26.627-83.926.382-100.601z" fill="#d7ecfe"/><path d="m29.104 213.63c-16.74-19.358-8.465-49.276 14.823-57.749 3.065-1.115 5.048-4.105 4.691-7.347-2.677-24.309 10.134-47.442 31.488-58.335 2.743-1.4 4.219-4.406 3.727-7.446-6.384-39.462 35.265-69.716 70.622-52.608 3.02 1.462 6.643.528 8.639-2.169 6.889-9.306 16.705-16.316 28.086-19.669 4.836-1.425 47.707-.971 47.707 51.7v382.289c0 66.739-53.862 64.312-58.753 63.134-14.94-3.597-27.867-12.359-36.788-24.291-1.49-1.992-3.89-3.056-6.363-2.794-48.879 5.168-88.49-39.458-77.89-87.159.632-2.845-.606-5.764-3.048-7.355-23.788-15.492-29.907-48.148-12.838-71.253-40.464-17.158-48.099-71.203-14.103-98.948z" fill="#fedecf"/><path d="m140.702 132.667c4.212 0 7.627-3.415 7.627-7.627s-3.415-7.627-7.627-7.627c-23.23 0-42.129-18.899-42.129-42.129 0-4.212-3.415-7.627-7.627-7.627s-7.627 3.415-7.627 7.627c.001 31.641 25.743 57.383 57.383 57.383z" fill="#fcccb9"/><path d="m73.545 317.137c0-4.212-3.415-7.627-7.627-7.627-27.937 0-50.665-22.728-50.665-50.665 0-22.921 15.445-43.052 37.559-48.955 4.07-1.086 6.488-5.266 5.401-9.336-1.086-4.07-5.266-6.486-9.336-5.401-28.778 7.683-48.877 33.874-48.877 63.692 0 36.348 29.57 65.919 65.918 65.919 4.212 0 7.627-3.415 7.627-7.627z" fill="#fcccb9"/><path d="m176.826 164.849c27.586-7.536 43.899-36.11 36.364-63.696-1.11-4.064-5.307-6.457-9.366-5.348-4.064 1.11-6.457 5.303-5.348 9.366 5.319 19.474-6.196 39.644-25.67 44.963-4.063 1.11-6.457 5.303-5.347 9.367 1.104 4.044 5.283 6.464 9.367 5.348z" fill="#fcccb9"/><path d="m165.554 413.776c.233 0 .469-.01.706-.032 20.902-1.917 36.27-20.384 34.353-41.289-.385-4.195-4.103-7.284-8.291-6.898-4.195.385-7.283 4.097-6.898 8.291 1.148 12.507-8.046 23.56-20.556 24.707-4.194.385-7.283 4.097-6.898 8.291.361 3.958 3.686 6.93 7.584 6.93z" fill="#fcccb9"/><path d="m106.31 230.226h-.11c-4.212.013-7.616 3.438-7.603 7.65.013 4.204 3.425 7.604 7.626 7.603.029.001.058 0 .086 0 11.021 0 20.005 8.949 20.039 19.979.013 4.204 3.425 7.603 7.626 7.603h.024c4.212-.013 7.616-3.438 7.603-7.65-.059-19.425-15.879-35.185-35.291-35.185z" fill="#fcccb9"/><path d="m191.181 8.307c22.334 6.579 38.636 27.235 38.636 51.7v382.289c0 22.144-10.125 49.682-34.569 49.682-31.573 0-57.26-25.687-57.26-57.261 0-4.212-3.415-7.627-7.627-7.627s-7.627 3.415-7.627 7.627c0 39.653 32.143 72.514 72.653 72.514 35.863 0 64.935-29.073 64.935-64.936v-382.288c.001-35.994-34.666-61.856-69.141-51.7z" fill="#fcccb9"/><path d="m135.445 332.958c-34.701 0-64.29 22.311-75.174 53.342.024.013.048.025.072.038-3.104 10.576-3.658 21.573-1.974 31.951 4.873 4.339 12.696.896 12.696-5.697 0-35.499 28.881-64.38 64.38-64.38 4.212 0 7.627-3.415 7.627-7.627-.001-4.212-3.415-7.627-7.627-7.627z" fill="#fcccb9"/><path d="m496.134 197.096-11.773-45.011c-.522-2.049-1.828-3.69-3.515-4.685.058-.68.025-1.371-.104-2.056.88-1.895.983-4.142.096-6.214l-23.386-53.972c-2.781-6.501-13.55-24.429-16.766-26.402l-74.795-45.72c-3.395-2.082-7.775-1.189-10.103 1.945-4.517-1.633-2.052-.381-97.711 28.113-4.937 1.523-6.956 7.418-4.01 11.648-2.594 3.869-.866 1.275-1.37 104.939 0 4.02 2.994 7.557 7.002 7.876 4.138.329 7.652-2.648 8.182-6.571 2.476 3.1 6.828 3.576 9.952 1.615l44.051-27.537c4.599-2.875 10.565.431 10.565 5.855 0 75.068-.588 70.872 1.382 73.677.077.479.298.951.69 1.357l43.441 45.473c3.037 3.179 2.369 8.348-1.375 10.651l-31.102 19.129c-2.962 1.716-14.06 16.69-14.529 19.935 0 0-5.407 33.562-8.031 50.346-.718 4.593-5.69 7.16-9.85 5.085-12.423-6.196-34.77-17.296-40.611-20.087-.896-.428-19.766 8.479-19.766 12.279v80.54c0 4.212 9.861 21.152 13.885 22.397l94.006 29.208c4.041 1.251 30.115-5.318 34.519-9.8l70.57-72.056c2.952-3.005 9.272-13.944 10.552-17.977l18.936-60.569c1.274-4.015-.948-8.302-4.963-9.576-1.166-.37-2.355-.444-3.487-.266-.002-.062-.005-.124-.009-.186 3.256.515 6.601-1.136 8.086-4.278 1.799-3.808.17-8.354-3.639-10.153l-78.019-36.906 21.788-12.574c3.644-2.112 4.885-6.779 2.773-10.423-2.112-3.643-6.779-4.885-10.423-2.773l-8.159 4.708c-5.083 2.933-11.275-1.409-10.25-7.187 0 0 5.003-28.158 7.61-42.811.783-4.403 5.48-6.903 9.574-5.105l37.52 16.483c5.129 2.253 5.581 9.356.779 12.241l-8.391 5.041c-6.712 3.89-3.956 14.226 3.832 14.226 1.298 0 2.614-.332 3.818-1.03l11.308-6.793c4.651-2.794 10.561.617 10.46 6.042-.363 19.541-.655 54.946-.655 54.946-.016 4.207 3.39 7.627 7.598 7.627h.029c4.201 0 7.61-3.397 7.626-7.597l.242-63.793c.009-3.446-3.04-29.192-4.08-33.274zm-141.862-109.686 11.558-50.581c.007-.029.013-.058.02-.087.556-2.545 3.359-3.859 5.584-2.503 18.6 11.334 32.761 20.161 43.097 26.5 4.734 2.903 4.276 9.92-.794 12.187l-49.913 22.325c-5.201 2.326-10.821-2.289-9.552-7.841zm-34.847 31.235c-10.719 6.729-29.22 18.357-40.88 25.739-4.598 2.911-10.596-.393-10.596-5.835v-56.94c0-5.716 6.548-8.957 11.092-5.491l40.897 31.19c3.834 2.923 3.57 8.774-.513 11.337zm7.758-24.997-41.411-31.589c-4.476-3.414-3.205-10.462 2.182-12.097l52.683-15.995c5.115-1.553 9.981 3.038 8.717 8.232-4.211 17.302-11.252 47.498-11.252 47.498-1.118 4.896-6.925 6.998-10.919 3.951zm20.518 94.465v-41.646c0-5.961 7.046-9.121 11.498-5.156l30.789 27.422c3.714 3.308 2.818 9.339-1.697 11.425l-30.789 14.224c-4.575 2.113-9.801-1.229-9.801-6.269zm34.075 55.171c-7.267-7.642-15.495-16.3-21.976-23.114-3.26-3.427-2.184-9.04 2.11-11.024l28.401-13.121c5.065-2.34 10.669 1.982 9.695 7.475l-6.429 36.23c-.989 5.576-7.899 7.658-11.801 3.554zm-43.475 117.381c2.085-12.655 5.127-31.259 5.127-31.259.86-5.271 7.126-7.612 11.232-4.196 11.471 9.545 19.327 16.243 24.829 20.943 4.054 3.463 2.817 10.018-2.219 11.768l-29.888 10.385c-4.947 1.719-9.932-2.475-9.081-7.641zm-13.367 15.609c-.041.025-.083.05-.123.075-.006-.057-.012-.113-.019-.17.047.032.094.064.142.095zm-56.981 39.736c0-13.175-.001-31.337-.002-43.706 0-5.115 5.362-8.454 9.951-6.194 8.606 4.237 20.924 10.294 29.149 14.305 4.253 2.074 5.205 7.711 1.872 11.069l-29.185 29.407c-4.353 4.345-11.785 1.269-11.785-4.881zm80.729 55.227-63.699-19.791c-4.918-1.528-6.497-7.703-2.911-11.398 7.247-7.467 19.353-20.033 36.958-37.404 3.394-3.349 9.081-2.345 11.104 1.972 6.467 13.8 19.053 40.608 26.841 57.08 2.569 5.433-2.553 11.324-8.293 9.541zm43.502-91.298-13.147 63.961c-1.336 6.497-10.17 7.562-13.004 1.565-7.781-16.461-18.706-39.527-24.211-50.933-1.794-3.717.056-8.165 3.955-9.519l37.379-12.986c5.059-1.758 10.107 2.665 9.028 7.912zm-9.825-51.216-21.757-18.248c-3.611-3.028-3.194-8.703.82-11.172l18.92-11.636c4.355-2.678 10.008.14 10.492 5.229l2.837 29.884c.583 6.148-6.58 9.912-11.312 5.943zm24.466 118.912c-4.813 4.943-13.1.55-11.711-6.207l12.579-61.185c.992-4.825 6.573-7.09 10.647-4.319 0 0 18.051 12.191 28.358 19.042 3.6 2.393 4.136 7.467 1.121 10.564zm68.052-103.344c-3.356 10.742-7.748 24.806-10.564 33.831-1.385 4.441-6.673 6.267-10.505 3.63-6.938-4.776-17.173-11.779-24.714-16.932-4.392-3.001-3.88-9.632.918-11.928l35.292-16.887c5.441-2.603 11.371 2.528 9.573 8.286zm-58.67-56.821 44.669 21.13c5.282 2.498 5.272 10.016-.019 12.493l-40.73 18.853c-4.311 1.995-9.302-.857-9.772-5.583l-3.973-39.968c-.53-5.343 4.971-9.221 9.825-6.925zm-5.182-133.764c-1.361 4.933-7.427 6.723-11.249 3.319l-37.741-33.614c-3.742-3.333-2.801-9.416 1.774-11.46 13.517-6.04 37.988-16.981 53.151-23.761 5.309-2.374 10.996 2.478 9.487 8.095zm17.385-5.657 10.225-37.052c1.733-6.28 10.401-6.887 12.992-.909l11.308 26.091c1.451 3.347.047 7.245-3.203 8.9l-21.533 10.96c-5.35 2.723-11.386-2.205-9.789-7.99zm39.801 46.794-25.654-11.271c-5.337-2.345-5.547-9.838-.35-12.478 6.611-3.358 14.412-7.323 20.045-10.187 3.927-1.997 8.689.148 9.804 4.41l5.613 21.456c1.461 5.587-4.171 10.392-9.458 8.07z" fill="#7ee4fa"/><path d="m319.322 302.719v-92.09l-84.82-31.137-50.479 29.144c-2.136 1.233-3.453 3.513-3.453 5.98v84.117c0 2.467 1.316 4.746 3.453 5.98l50.479 29.144z" fill="#4f6d8f"/><path d="m260.323 164.584-25.821 14.908 71.614 41.347c2.136 1.233 3.453 3.513 3.453 5.98v59.712c0 2.467-1.316 4.746-3.453 5.98l-71.614 41.347 25.821 14.908 79.752-46.045v-92.09z" fill="#334f6d"/><path d="m246.916 278.602c2.873 0 5.446 1.779 6.46 4.467l1.513 4.01c1.621 4.295 6.665 6.233 10.792 4.003 3.392-1.833 4.745-6.035 3.383-9.643-25.111-66.537-19.404-51.599-20.307-53.801-2.338-5.683-8.105-5.461-8.207-5.493-3.723.004-6.984 2.306-8.264 5.682l-20.508 53.846c-1.559 4.093.639 8.694 4.892 10.007 3.882 1.198 8.009-1.026 9.455-4.822l1.45-3.807c1.02-2.678 3.587-4.447 6.453-4.447h12.888zm-2.409-15.254h-7.998c-.691 0-1.168-.692-.922-1.338l4.017-10.548c.323-.848 1.524-.847 1.845.003l3.981 10.548c.244.646-.233 1.335-.923 1.335z" fill="#eaf6ff"/><path d="m288.013 228.963v54.616c0 4.212 3.415 7.627 7.627 7.627s7.627-3.415 7.627-7.627v-54.616c0-4.212-3.415-7.627-7.627-7.627-4.213 0-7.627 3.415-7.627 7.627z" fill="#eaf6ff"/><g fill="#ff7e8e"><circle cx="259.641" cy="51.34" r="20.753"/><circle cx="260.323" cy="164.41" r="15.793"/><circle cx="340.075" cy="114.534" r="20.753"/><circle cx="442.263" cy="69.043" r="20.753"/><circle cx="361.937" cy="19.774" r="15.793"/><circle cx="340.075" cy="210.629" r="15.793"/><circle cx="340.075" cy="302.719" r="15.793"/><circle cx="260.323" cy="348.764" r="15.793"/><circle cx="328.455" cy="383.021" r="20.753"/><circle cx="377.73" cy="488.282" r="20.753"/><circle cx="465.636" cy="398.814" r="15.793"/><circle cx="396.853" cy="269.821" r="15.793"/><circle cx="404.467" cy="357.358" r="15.793"/><circle cx="412.261" cy="178.485" r="20.753"/><circle cx="492.263" cy="314.888" r="20.753"/><circle cx="492.645" cy="214.287" r="15.793"/><circle cx="475.328" cy="146.342" r="15.793"/><circle cx="259.641" cy="451.736" r="15.793"/></g></g></g></svg>