<svg id="Capa_1" enable-background="new 0 0 497 497" height="512" viewBox="0 0 497 497" width="512" xmlns="http://www.w3.org/2000/svg"><g><g><path d="m290.418 497h-204.109c-27.574 0-49.928-22.353-49.928-49.928v-397.144c0-27.575 22.354-49.928 49.928-49.928h204.109c27.574 0 49.928 22.353 49.928 49.928v397.144c-.001 27.575-22.354 49.928-49.928 49.928z" fill="#8ebac5"/><path d="m290.417 0h-26c27.574 0 49.928 22.354 49.928 49.928v397.145c0 27.574-22.353 49.928-49.928 49.928h26c27.574 0 49.928-22.353 49.928-49.928v-397.145c0-27.574-22.353-49.928-49.928-49.928z" fill="#7ca1b1"/><path d="m288.667 26h-37.099c-4.689 0-8.99 2.606-11.159 6.763l-7.174 13.743c-2.113 4.047-6.3 6.585-10.865 6.585h-68.011c-4.566 0-8.753-2.538-10.865-6.585l-7.174-13.743c-2.17-4.157-6.47-6.763-11.159-6.763h-37.101c-14.182 0-25.678 11.497-25.678 25.678v393.644c-.001 14.181 11.496 25.678 25.678 25.678h200.607c14.182 0 25.678-11.497 25.678-25.678v-393.644c0-14.181-11.496-25.678-25.678-25.678z" fill="#f2f7f7"/><path d="m118.383 53.091h35.975c-4.566 0-8.753-2.537-10.866-6.585l-7.174-13.743c-2.17-4.157-6.47-6.763-11.159-6.763h-34.496c4.483 1.099 8.277 4.074 10.413 8.166l6.441 12.339c2.113 4.048 6.3 6.586 10.866 6.586z" fill="#deecf1"/><g><path d="m203.725 33.5h-30.723c-4.143 0-7.5-3.358-7.5-7.5s3.357-7.5 7.5-7.5h30.723c4.143 0 7.5 3.358 7.5 7.5s-3.358 7.5-7.5 7.5z" fill="#7ca1b1"/></g></g><path d="m288.667 26h-37.099c14.182 0 26.802 11.497 26.802 25.678v81.83c0 8.169-6.622 14.791-14.791 14.791h-26.766c-9.43 0-17.86 5.86-21.15 14.7l-13.714 36.914c-2.114 5.69-7.544 9.465-13.614 9.465h-43.172c-12.758 0-23.1 10.342-23.1 23.1v134.64c0 12.758 11.235 18.963 23.993 18.963l76.186 1.758 56.129-198.902v256.383c0 14.182-11.497 25.678-25.678 25.678h35.975c14.182 0 25.678-11.497 25.678-25.678v-393.642c-.001-14.181-11.497-25.678-25.679-25.678z" fill="#deecf1"/><path d="m183.665 390.217h-58.545c-4.142 0-7.5-3.357-7.5-7.5s3.358-7.5 7.5-7.5h58.545c4.142 0 7.5 3.357 7.5 7.5s-3.358 7.5-7.5 7.5z" fill="#5f8189"/><path d="m445.596 232.48v134.64c0 12.76-10.34 23.1-23.1 23.1h-238.83c-12.76 0-23.1-10.34-23.1-23.1v-134.64c0-12.76 10.34-23.1 23.1-23.1h43.61c5.8 0 11-3.61 13.02-9.05l13.87-37.33c3.29-8.84 11.72-14.7 21.15-14.7h55.53c9.43 0 17.87 5.86 21.15 14.7l13.87 37.33c2.02 5.44 7.22 9.05 13.02 9.05h43.61c12.76 0 23.1 10.34 23.1 23.1z" fill="#678d98"/><g fill="#5f8189"><path d="m378.886 209.38h-37.6c-6.35 0-12.02-3.94-14.23-9.89l-13.56-36.49c-3.29-8.84-11.72-14.7-21.15-14.7h38.5c9.43 0 17.87 5.86 21.15 14.7l13.87 37.33c2.02 5.44 7.22 9.05 13.02 9.05z"/><path d="m422.499 209.382h-38.503c12.756 0 23.097 10.341 23.097 23.097v134.641c0 12.756-10.341 23.097-23.097 23.097h38.503c12.756 0 23.097-10.341 23.097-23.097v-134.641c0-12.756-10.341-23.097-23.097-23.097z"/></g><circle cx="303.082" cy="291.609" fill="#bec6ed" r="61.902"/><path d="m303.082 229.707c-4.461 0-8.807.482-13 1.379 27.944 5.974 48.902 30.796 48.902 60.523s-20.958 54.549-48.902 60.523c4.193.896 8.539 1.379 13 1.379 34.187 0 61.902-27.714 61.902-61.901-.001-34.189-27.715-61.903-61.902-61.903z" fill="#a2aee6"/><path d="m303.082 327.511c-19.796 0-35.902-16.105-35.902-35.902 0-19.796 16.105-35.901 35.902-35.901 19.796 0 35.901 16.105 35.901 35.901s-16.105 35.902-35.901 35.902z" fill="#f2f7f7"/><path d="m303.082 255.707c-4.068 0-7.976.69-11.624 1.942 14.106 4.842 24.277 18.231 24.277 33.959 0 15.729-10.171 29.118-24.277 33.96 3.649 1.252 7.556 1.942 11.624 1.942 19.796 0 35.901-16.105 35.901-35.902 0-19.796-16.105-35.901-35.901-35.901z" fill="#deecf1"/><path d="m325.396 182.75c0 2.21-.96 4.21-2.49 5.57-1.32 1.2-3.08 1.93-5.01 1.93h-29.63c-4.14 0-7.5-3.36-7.5-7.5 0-4.15 3.36-7.5 7.5-7.5h29.63c.05 0 .11 0 .16.01 4.07.08 7.34 3.39 7.34 7.49z" fill="#f2f7f7"/><path d="m325.396 182.75c0 2.21-.96 4.21-2.49 5.57l-4.85-13.06c4.07.08 7.34 3.39 7.34 7.49z" fill="#deecf1"/><g><g><path d="m453.119 93.239h-33.06c-4.142 0-7.5-3.357-7.5-7.5s3.358-7.5 7.5-7.5h33.06c4.142 0 7.5 3.357 7.5 7.5s-3.358 7.5-7.5 7.5z" fill="#bec6ed"/></g><g><path d="m411.098 51.773c-2.246 0-4.466-1.004-5.944-2.919-2.53-3.28-1.922-7.989 1.357-10.52l19.612-15.129c3.281-2.53 7.99-1.92 10.52 1.357 2.53 3.28 1.922 7.989-1.357 10.52l-19.612 15.129c-1.364 1.054-2.977 1.562-4.576 1.562z" fill="#a2aee6"/></g></g><g><g><path d="m430.7 149.716c-1.6 0-3.211-.509-4.576-1.562l-19.612-15.129c-3.28-2.53-3.887-7.239-1.357-10.52 2.531-3.279 7.239-3.887 10.52-1.357l19.612 15.129c3.28 2.53 3.887 7.239 1.357 10.52-1.478 1.915-3.699 2.919-5.944 2.919z" fill="#a2aee6"/></g></g></g></svg>