<?xml version="1.0" encoding="UTF-8"?>
<svg xmlns="http://www.w3.org/2000/svg" xmlns:xlink="http://www.w3.org/1999/xlink" version="1.1" id="Capa_1" x="0px" y="0px" viewBox="0 0 512 512" style="enable-background:new 0 0 512 512;" xml:space="preserve" width="512" height="512">
<g>
	<path style="fill:#FFE177;" d="M443.89,441.87H68.11c-33.474,0-60.61-27.136-60.61-60.61V130.74c0-33.474,27.136-60.61,60.61-60.61&#10;&#9;&#9;h375.78c33.474,0,60.61,27.136,60.61,60.61v250.52C504.5,414.734,477.364,441.87,443.89,441.87z"/>
	<path style="fill:#FFC344;" d="M443.89,70.13h-78.259c12.169,32.022,18.851,66.746,18.851,103.037&#10;&#9;&#9;c0,121.456-74.639,225.462-180.542,268.703h239.95c33.474,0,60.61-27.136,60.61-60.61V130.74&#10;&#9;&#9;C504.5,97.266,477.364,70.13,443.89,70.13z"/>
	<path style="fill:#FEB237;" d="M374.8,158.629h129.7v-30.305H368.524c-4.019,0-7.873,1.596-10.714,4.438l-37.374,37.374h-49.283&#10;&#9;&#9;V70.13h-30.305v100.006h-49.283l-37.374-37.374c-2.841-2.842-6.695-4.438-10.714-4.438H7.5v30.305h129.7l32.936,32.936v49.283&#10;&#9;&#9;H8.554v30.305h161.583v49.283L137.2,353.371H7.5v30.305h135.976c4.019,0,7.873-1.596,10.714-4.438l37.374-37.374h49.283V441.87&#10;&#9;&#9;h30.305V341.864h49.283l37.374,37.374c2.841,2.842,6.695,4.438,10.714,4.438H504.5v-30.305H374.8l-32.936-32.936v-49.283h161.583&#10;&#9;&#9;v-30.305H341.864v-49.283L374.8,158.629z M311.559,311.559H200.441V200.441h111.118V311.559z"/>
	<path style="fill:none;stroke:#000000;stroke-width:15;stroke-linecap:round;stroke-linejoin:round;stroke-miterlimit:10;" d="&#10;&#9;&#9;M311.559,311.559H200.441V200.441h111.118V311.559z M114.4,240.85h55.74v-49.29l-32.94-32.93H7.5v-30.31h135.98&#10;&#9;&#9;c4.02,0,7.87,1.6,10.71,4.44l37.37,37.38h49.29V70.13h30.3v100.01h49.29l37.37-37.38c2.84-2.84,6.69-4.44,10.71-4.44H504.5v30.31&#10;&#9;&#9;H374.8l-32.94,32.93v49.29h161.59v30.3H341.86v49.29l32.94,32.93h129.7v30.31H368.52c-4.02,0-7.87-1.6-10.71-4.44l-37.37-37.38&#10;&#9;&#9;h-49.29v100.01h-30.3V341.86h-49.29l-37.37,37.38c-2.84,2.84-6.69,4.44-10.71,4.44H7.5v-30.31h129.7l32.94-32.93v-49.29H8.55v-30.3&#10;&#9;&#9;H79.4"/>
	<path style="fill:none;stroke:#000000;stroke-width:15;stroke-linecap:round;stroke-linejoin:round;stroke-miterlimit:10;" d="&#10;&#9;&#9;M114.4,441.87H68.11c-33.47,0-60.61-27.14-60.61-60.61V130.74c0-33.47,27.14-60.61,60.61-60.61h306.58"/>
	<path style="fill:none;stroke:#000000;stroke-width:15;stroke-linecap:round;stroke-linejoin:round;stroke-miterlimit:10;" d="&#10;&#9;&#9;M409.69,70.13h34.2c33.47,0,60.61,27.14,60.61,60.61v250.52c0,33.47-27.14,60.61-60.61,60.61H149.4"/>
</g>















</svg>
