<svg id="Capa_1" enable-background="new 0 0 512 512" height="512" viewBox="0 0 512 512" width="512" xmlns="http://www.w3.org/2000/svg"><g><path d="m449.561 447.48h-387.122c-34.484 0-62.439-27.955-62.439-62.439v-258.082c0-34.484 27.955-62.439 62.439-62.439h387.122c34.484 0 62.439 27.955 62.439 62.439v258.081c0 34.485-27.955 62.44-62.439 62.44z" fill="#ffe177"/><path d="m449.561 64.52h-80.621c12.536 32.988 19.42 68.761 19.42 106.146 0 125.122-76.891 232.267-185.991 276.813h247.192c34.484 0 62.439-27.955 62.439-62.439v-258.081c0-34.484-27.955-62.439-62.439-62.439z" fill="#ffc344"/><path d="m378.385 155.69h133.615v-31.22h-140.08c-4.14 0-8.111 1.644-11.038 4.572l-38.502 38.502h-50.77v-103.024h-31.22v103.024h-50.77l-38.502-38.502c-2.927-2.928-6.897-4.572-11.038-4.572h-140.08v31.22h133.615l33.93 33.93v50.77h-166.46v31.219h166.459v50.77l-33.93 33.93h-133.614v31.22h140.08c4.14 0 8.111-1.644 11.038-4.572l38.502-38.502h50.77v103.025h31.219v-103.025h50.77l38.502 38.502c2.927 2.928 6.897 4.572 11.038 4.572h140.081v-31.22h-133.615l-33.93-33.93v-50.77h166.459v-31.219h-166.459v-50.77zm-65.149 157.546h-114.472v-114.472h114.472z" fill="#feb237"/></g></svg>