<svg id="Capa_1" enable-background="new 0 0 512 512" height="512" viewBox="0 0 512 512" width="512" xmlns="http://www.w3.org/2000/svg"><g><g><path d="m360 504h-208c-17.673 0-32-14.327-32-32v-432c0-17.673 14.327-32 32-32h208c17.673 0 32 14.327 32 32v432c0 17.673-14.327 32-32 32z" fill="#eceaec"/><path d="m336 479.918h-160c-17.673 0-32-14.327-32-32v-359.918c0-17.673 14.327-32 32-32h160c17.673 0 32 14.327 32 32v359.918c0 17.673-14.327 32-32 32z" fill="#fff"/><path d="m296 40h-80c-8.837 0-16-7.163-16-16v-16h112v16c0 8.837-7.163 16-16 16z" fill="#5d5360"/><path d="m224 304h-48c-8.837 0-16-7.163-16-16v-64c0-8.837 7.163-16 16-16h48c8.837 0 16 7.163 16 16v64c0 8.837-7.163 16-16 16z" fill="#ead1ff"/><path d="m336 304h-48c-8.837 0-16-7.163-16-16v-64c0-8.837 7.163-16 16-16h48c8.837 0 16 7.163 16 16v64c0 8.837-7.163 16-16 16z" fill="#c3ddff"/><path d="m224 432h-48c-8.837 0-16-7.163-16-16v-64c0-8.837 7.163-16 16-16h48c8.837 0 16 7.163 16 16v64c0 8.837-7.163 16-16 16z" fill="#ff9a9f"/><path d="m336 432h-48c-8.837 0-16-7.163-16-16v-64c0-8.837 7.163-16 16-16h48c8.837 0 16 7.163 16 16v64c0 8.837-7.163 16-16 16z" fill="#e2a975"/><path d="m224 176h-48c-8.837 0-16-7.163-16-16v-64c0-8.837 7.163-16 16-16h48c8.837 0 16 7.163 16 16v64c0 8.837-7.163 16-16 16z" fill="#b3e59f"/><path d="m336 176h-48c-8.837 0-16-7.163-16-16v-64c0-8.837 7.163-16 16-16h48c8.837 0 16 7.163 16 16v64c0 8.837-7.163 16-16 16z" fill="#ffe07d"/><path d="m184 136v-56h-8c-8.837 0-16 7.163-16 16v64c0 8.837 7.163 16 16 16h48c8.837 0 16-7.163 16-16v-8h-40c-8.837 0-16-7.163-16-16z" fill="#95d6a4"/><path d="m296 136v-56h-8c-8.837 0-16 7.163-16 16v64c0 8.837 7.163 16 16 16h48c8.837 0 16-7.163 16-16v-8h-40c-8.837 0-16-7.163-16-16z" fill="#ffd064"/><path d="m296 263.479v-55.479h-8c-8.837 0-16 7.163-16 16v64c0 8.837 7.163 16 16 16h48c8.837 0 16-7.163 16-16v-8.521h-40c-8.837 0-16-7.163-16-16z" fill="#a4ccff"/><path d="m184 264v-56h-8c-8.837 0-16 7.163-16 16v64c0 8.837 7.163 16 16 16h48c8.837 0 16-7.163 16-16v-8h-40c-8.837 0-16-7.163-16-16z" fill="#d6bdef"/><path d="m184 392v-56h-8c-8.837 0-16 7.163-16 16v64c0 8.837 7.163 16 16 16h48c8.837 0 16-7.163 16-16v-8h-40c-8.837 0-16-7.163-16-16z" fill="#ff8086"/><path d="m296 392v-56h-8c-8.837 0-16 7.163-16 16v64c0 8.837 7.163 16 16 16h48c8.837 0 16-7.163 16-16v-8h-40c-8.837 0-16-7.163-16-16z" fill="#d19a6e"/></g><g><path d="m360.209 0h-208.418c-21.816 0-39.565 17.749-39.565 39.564v432.871c0 21.816 17.749 39.564 39.565 39.564h208.419c21.816 0 39.565-17.749 39.565-39.564v-432.871c-.001-21.815-17.749-39.564-39.566-39.564zm-152.822 15h97.226v8.532c0 4.705-3.828 8.532-8.532 8.532h-80.161c-4.705 0-8.532-3.828-8.532-8.532v-8.532zm177.387 457.436c0 13.545-11.02 24.564-24.565 24.564h-208.418c-13.545 0-24.565-11.02-24.565-24.564v-432.872c0-13.545 11.02-24.564 24.565-24.564h40.597v8.532c0 12.976 10.557 23.532 23.532 23.532h80.161c12.976 0 23.532-10.557 23.532-23.532v-8.532h40.597c13.545 0 24.565 11.02 24.565 24.564v432.872z"/><path d="m296.081 464.936h-80.161c-4.142 0-7.5 3.358-7.5 7.5s3.358 7.5 7.5 7.5h80.161c4.142 0 7.5-3.358 7.5-7.5s-3.358-7.5-7.5-7.5z"/><path d="m175.839 183.339h48.097c12.976 0 23.532-10.557 23.532-23.532v-64.13c0-12.976-10.557-23.532-23.532-23.532h-48.097c-12.976 0-23.532 10.557-23.532 23.532v64.129c0 12.976 10.556 23.533 23.532 23.533zm-8.532-87.662c0-4.705 3.828-8.532 8.532-8.532h48.097c4.705 0 8.532 3.828 8.532 8.532v64.129c0 4.705-3.828 8.532-8.532 8.532h-48.097c-4.705 0-8.532-3.828-8.532-8.532z"/><path d="m288.064 87.145h48.097c4.705 0 8.532 3.828 8.532 8.532 0 4.142 3.358 7.5 7.5 7.5s7.5-3.358 7.5-7.5c0-12.976-10.557-23.532-23.532-23.532h-48.097c-12.976 0-23.532 10.557-23.532 23.532v64.129c0 12.976 10.557 23.532 23.532 23.532h48.097c12.976 0 23.532-10.557 23.532-23.532v-32.065c0-4.142-3.358-7.5-7.5-7.5s-7.5 3.358-7.5 7.5v32.065c0 4.705-3.828 8.532-8.532 8.532h-48.097c-4.705 0-8.532-3.828-8.532-8.532v-64.129c0-4.704 3.828-8.532 8.532-8.532z"/><path d="m175.839 311.597h48.097c12.976 0 23.532-10.557 23.532-23.532v-64.129c0-12.976-10.557-23.532-23.532-23.532h-48.097c-12.976 0-23.532 10.557-23.532 23.532v64.129c0 12.975 10.556 23.532 23.532 23.532zm-8.532-87.661c0-4.705 3.828-8.532 8.532-8.532h48.097c4.705 0 8.532 3.828 8.532 8.532v64.129c0 4.705-3.828 8.532-8.532 8.532h-48.097c-4.705 0-8.532-3.828-8.532-8.532z"/><path d="m336.161 200.403h-48.097c-12.976 0-23.532 10.557-23.532 23.532v64.129c0 12.976 10.557 23.532 23.532 23.532h48.097c12.976 0 23.532-10.557 23.532-23.532v-64.129c0-12.975-10.556-23.532-23.532-23.532zm8.532 87.661c0 4.705-3.828 8.532-8.532 8.532h-48.097c-4.705 0-8.532-3.828-8.532-8.532v-64.129c0-4.705 3.828-8.532 8.532-8.532h48.097c4.705 0 8.532 3.828 8.532 8.532z"/><path d="m247.468 416.323v-32.064c0-4.142-3.358-7.5-7.5-7.5s-7.5 3.358-7.5 7.5v32.064c0 4.705-3.828 8.532-8.532 8.532h-48.097c-4.705 0-8.532-3.828-8.532-8.532v-64.129c0-4.705 3.828-8.532 8.532-8.532h48.097c4.705 0 8.532 3.828 8.532 8.532 0 4.142 3.358 7.5 7.5 7.5s7.5-3.358 7.5-7.5c0-12.976-10.557-23.532-23.532-23.532h-48.097c-12.976 0-23.532 10.557-23.532 23.532v64.129c0 12.976 10.557 23.532 23.532 23.532h48.097c12.975 0 23.532-10.557 23.532-23.532z"/><path d="m336.161 328.661h-48.097c-12.976 0-23.532 10.557-23.532 23.532v64.129c0 12.976 10.557 23.532 23.532 23.532h48.097c12.976 0 23.532-10.557 23.532-23.532v-64.129c0-12.975-10.556-23.532-23.532-23.532zm8.532 87.662c0 4.705-3.828 8.532-8.532 8.532h-48.097c-4.705 0-8.532-3.828-8.532-8.532v-64.129c0-4.705 3.828-8.532 8.532-8.532h48.097c4.705 0 8.532 3.828 8.532 8.532z"/><path d="m191.871 135.242h16.032c4.142 0 7.5-3.358 7.5-7.5s-3.358-7.5-7.5-7.5h-16.032c-4.142 0-7.5 3.358-7.5 7.5s3.358 7.5 7.5 7.5z"/><path d="m320.129 232.468h-16.032c-4.142 0-7.5 3.358-7.5 7.5s3.358 7.5 7.5 7.5h16.032c4.142 0 7.5-3.358 7.5-7.5s-3.358-7.5-7.5-7.5z"/><path d="m191.871 376.758c-4.142 0-7.5 3.358-7.5 7.5s3.358 7.5 7.5 7.5h16.032c4.142 0 7.5-3.358 7.5-7.5s-3.358-7.5-7.5-7.5z"/><path d="m320.129 264.532h-16.032c-4.142 0-7.5 3.358-7.5 7.5s3.358 7.5 7.5 7.5h16.032c4.142 0 7.5-3.358 7.5-7.5s-3.358-7.5-7.5-7.5z"/></g></g></svg>