<?xml version="1.0" encoding="iso-8859-1"?>
<!-- Generator: Adobe Illustrator 19.0.0, SVG Export Plug-In . SVG Version: 6.00 Build 0)  -->
<svg version="1.1" id="Layer_1" xmlns="http://www.w3.org/2000/svg" xmlns:xlink="http://www.w3.org/1999/xlink" x="0px" y="0px"
	 viewBox="0 0 511.999 511.999" style="enable-background:new 0 0 511.999 511.999;" xml:space="preserve">
<path style="fill:#3C4A5E;" d="M461.575,35.225v441.55c0,19.448-15.765,35.225-35.213,35.225H85.649
	c-19.459,0-35.225-15.777-35.225-35.225V35.225C50.424,15.777,66.19,0,85.649,0h340.714C445.809,0,461.575,15.777,461.575,35.225z"
	/>
<path style="fill:#4B5A6B;" d="M461.575,35.225v441.55c0,19.448-15.765,35.225-35.213,35.225h-282.37
	C373.978,443.552,356.103,0,356.103,0h70.259C445.809,0,461.575,15.777,461.575,35.225z"/>
<rect x="78.158" y="69.224" style="fill:#D2F2FF;" width="355.694" height="373.551"/>
<path style="fill:#F26464;" d="M163.722,167.913h-38.82c-8.196,0-14.841-6.645-14.841-14.841v-38.82
	c0-8.196,6.645-14.841,14.841-14.841h38.82c8.196,0,14.841,6.645,14.841,14.841v38.82
	C178.564,161.269,171.92,167.913,163.722,167.913z"/>
<path style="fill:#E6F7FC;" d="M433.845,69.222v373.555H246.115c85.083-101.361,104.984-276.735,109.238-373.555L433.845,69.222
	L433.845,69.222z"/>
<path style="fill:#ED72A5;" d="M401.946,114.248v38.828c0,8.192-6.646,14.838-14.848,14.838H348.28
	c-0.522,0-1.045-0.031-1.557-0.084c-7.461-0.773-13.281-7.084-13.281-14.754v-38.828c0-8.192,6.646-14.838,14.838-14.838h38.818
	C395.3,99.411,401.946,106.056,401.946,114.248z"/>
<g>
	<path style="fill:#F9E27D;" d="M275.412,167.913h-38.82c-8.196,0-14.841-6.645-14.841-14.841v-38.82
		c0-8.196,6.645-14.841,14.841-14.841h38.82c8.196,0,14.841,6.645,14.841,14.841v38.82
		C290.253,161.269,283.609,167.913,275.412,167.913z"/>
	<path style="fill:#F9E27D;" d="M163.722,276.955h-38.82c-8.196,0-14.841-6.645-14.841-14.841v-38.82
		c0-8.196,6.645-14.841,14.841-14.841h38.82c8.196,0,14.841,6.645,14.841,14.841v38.82
		C178.564,270.311,171.92,276.955,163.722,276.955z"/>
</g>
<path style="fill:#B5C0C9;" d="M275.412,276.955h-38.82c-8.196,0-14.841-6.645-14.841-14.841v-38.82
	c0-8.196,6.645-14.841,14.841-14.841h38.82c8.196,0,14.841,6.645,14.841,14.841v38.82
	C290.253,270.311,283.609,276.955,275.412,276.955z"/>
<circle style="fill:#3C4A5E;" cx="255.999" cy="477.968" r="14.299"/>
<path style="fill:#F498C2;" d="M401.946,114.248v38.828c0,8.192-6.646,14.838-14.848,14.838H348.28
	c-0.522,0-1.045-0.031-1.557-0.084c3.25-24.398,5.444-47.543,6.907-68.42h33.468C395.3,99.411,401.946,106.056,401.946,114.248z"/>
<g>
</g>
<g>
</g>
<g>
</g>
<g>
</g>
<g>
</g>
<g>
</g>
<g>
</g>
<g>
</g>
<g>
</g>
<g>
</g>
<g>
</g>
<g>
</g>
<g>
</g>
<g>
</g>
<g>
</g>
</svg>
