<?xml version="1.0" encoding="UTF-8" standalone="no"?>
<!-- Created with Inkscape (http://www.inkscape.org/) -->

<svg
   version="1.1"
   id="svg93"
   xml:space="preserve"
   width="682.66669"
   height="682.66669"
   viewBox="0 0 682.66669 682.66669"
   xmlns="http://www.w3.org/2000/svg"
   xmlns:svg="http://www.w3.org/2000/svg"><defs
     id="defs97"><clipPath
       clipPathUnits="userSpaceOnUse"
       id="clipPath107"><path
         d="M 0,512 H 512 V 0 H 0 Z"
         id="path105" /></clipPath></defs><g
     id="g99"
     transform="matrix(1.3333333,0,0,-1.3333333,0,682.66667)"><g
       id="g101"><g
         id="g103"
         clip-path="url(#clipPath107)"><g
           id="g109"
           transform="translate(408.0298,7.4561)"><path
             d="m 0,0 h -304.06 c -20.102,0 -36.398,16.296 -36.398,36.399 v 424.29 c 0,20.103 16.296,36.399 36.398,36.399 H 0 c 20.103,0 36.399,-16.296 36.399,-36.399 V 36.399 C 36.399,16.296 20.103,0 0,0"
             style="fill:#e0e0e0;fill-opacity:1;fill-rule:nonzero;stroke:none"
             id="path111" /></g><g
           id="g113"
           transform="translate(408.0298,504.5439)"><path
             d="M 0,0 H -27 C -6.897,0 9.399,-16.296 9.399,-36.399 v -424.29 c 0,-20.103 -16.296,-36.399 -36.399,-36.399 H 0 c 20.103,0 36.399,16.296 36.399,36.399 v 424.29 C 36.399,-16.296 20.103,0 0,0"
             style="fill:#c4c4c4;fill-opacity:1;fill-rule:nonzero;stroke:none"
             id="path115" /></g><path
           d="M 414.565,80.024 H 97.435 v 370.581 h 317.13 z"
           style="fill:#66baea;fill-opacity:1;fill-rule:nonzero;stroke:none"
           id="path117" /><path
           d="m 387.565,80.024 h 27 v 370.581 h -27 z"
           style="fill:#3aaae4;fill-opacity:1;fill-rule:nonzero;stroke:none"
           id="path119" /><g
           id="g121"
           transform="translate(67.5713,411.7446)"><path
             d="m 0,0 v -367.89 c 0,-20.102 16.296,-36.399 36.399,-36.399 h 304.059 c 20.103,0 36.399,16.297 36.399,36.399 V 56.4 c 0,20.103 -16.296,36.399 -36.399,36.399 H 36.399 C 16.296,92.799 0,76.503 0,56.4 V 30"
             style="fill:none;stroke:#000000;stroke-width:15;stroke-linecap:round;stroke-linejoin:round;stroke-miterlimit:10;stroke-dasharray:none;stroke-opacity:1"
             id="path123" /></g><g
           id="g125"
           transform="translate(97.4346,167.2275)"><path
             d="M 0,0 V 283.378 H 317.13 V 173.024"
             style="fill:none;stroke:#000000;stroke-width:15;stroke-linecap:round;stroke-linejoin:round;stroke-miterlimit:10;stroke-dasharray:none;stroke-opacity:1"
             id="path127" /></g><g
           id="g129"
           transform="translate(414.5649,310.252)"><path
             d="m 0,0 v -230.228 h -317.13 v 57.204"
             style="fill:none;stroke:#000000;stroke-width:15;stroke-linecap:round;stroke-linejoin:round;stroke-miterlimit:10;stroke-dasharray:none;stroke-opacity:1"
             id="path131" /></g><g
           id="g133"
           transform="translate(271.3481,45.5151)"><path
             d="m 0,0 c 0,8.477 -6.872,15.348 -15.348,15.348 -8.477,0 -15.348,-6.871 -15.348,-15.348 0,-8.477 6.871,-15.348 15.348,-15.348 C -6.872,-15.348 0,-8.477 0,0"
             style="fill:#67676b;fill-opacity:1;fill-rule:nonzero;stroke:none"
             id="path135" /></g><g
           id="g137"
           transform="translate(271.3481,45.5151)"><path
             d="m 0,0 c 0,8.477 -6.872,15.348 -15.348,15.348 -8.477,0 -15.348,-6.871 -15.348,-15.348 0,-8.477 6.871,-15.348 15.348,-15.348 C -6.872,-15.348 0,-8.477 0,0 Z"
             style="fill:none;stroke:#000000;stroke-width:15;stroke-linecap:round;stroke-linejoin:round;stroke-miterlimit:10;stroke-dasharray:none;stroke-opacity:1"
             id="path139" /></g><g
           id="g141"
           transform="translate(254.2207,477.7271)"><path
             d="M 0,0 H 34.184"
             style="fill:none;stroke:#000000;stroke-width:15;stroke-linecap:round;stroke-linejoin:round;stroke-miterlimit:10;stroke-dasharray:none;stroke-opacity:1"
             id="path143" /></g><g
           id="g145"
           transform="translate(225.583,477.7271)"><path
             d="M 0,0 V 0"
             style="fill:none;stroke:#000000;stroke-width:15;stroke-linecap:round;stroke-linejoin:round;stroke-miterlimit:10;stroke-dasharray:none;stroke-opacity:1"
             id="path147" /></g></g></g></g></svg>
