<svg id="Capa_1" enable-background="new 0 0 512 512" height="512" viewBox="0 0 512 512" width="512" xmlns="http://www.w3.org/2000/svg"><g><path d="m392.533 34.133h-62.993c-3.232 0-6.187-1.826-7.632-4.717l-9.991-19.982c-2.891-5.782-8.8-9.434-15.264-9.434h-81.305c-6.464 0-12.374 3.652-15.265 9.434l-9.991 19.982c-1.445 2.891-4.4 4.717-7.633 4.717h-62.993c-18.851 0-34.133 15.282-34.133 34.133v358.4c0 18.851 15.282 34.133 34.133 34.133h59.734c4.713 0 8.533 3.821 8.533 8.533v34.133c0 4.713 3.82 8.533 8.533 8.533h17.067c4.713 0 8.533-3.821 8.533-8.533v-34.133c0-4.713 3.82-8.533 8.533-8.533h17.067c4.713 0 8.533 3.821 8.533 8.533v34.133c0 4.713 3.82 8.533 8.533 8.533h85.333c4.713 0 8.533-3.821 8.533-8.533v-34.133c0-4.713 3.82-8.533 8.533-8.533h25.6c18.851 0 34.133-15.282 34.133-34.133v-358.4c.003-18.851-15.279-34.133-34.131-34.133z" fill="#f9f8f9"/><g fill="#dbecf3"><path d="m288.223 9.434 9.991 19.982c1.446 2.891 4.4 4.717 7.633 4.717h23.694c-3.232 0-6.187-1.826-7.633-4.717l-9.991-19.982c-2.891-5.782-8.8-9.434-15.264-9.434h-23.694c6.464 0 12.373 3.652 15.264 9.434z"/><path d="m223.773 460.8h-17.067c-4.713 0-8.533 3.82-8.533 8.533v34.133c0 3.538-2.153 6.572-5.22 7.866 1.019.43 2.138.668 3.314.668h17.067c4.713 0 8.533-3.821 8.533-8.533v-34.133c0-3.538 2.153-6.572 5.219-7.866-1.019-.43-2.138-.668-3.313-.668z"/><path d="m334.706 469.333v34.133c0 4.713-3.82 8.533-8.533 8.533h23.694c4.713 0 8.533-3.821 8.533-8.533v-34.133c0-4.713 3.821-8.533 8.533-8.533h-23.694c-4.713 0-8.533 3.82-8.533 8.533z"/><path d="m392.533 34.133h-23.694c18.852 0 34.134 15.282 34.134 34.133v358.4c0 18.851-15.282 34.133-34.134 34.133h23.694c18.852 0 34.133-15.282 34.133-34.133v-358.4c.001-18.851-15.281-34.133-34.133-34.133z"/></g><g><g><path d="m273.066 41.86h-34.133c-4.268 0-7.726-3.459-7.726-7.726s3.459-7.726 7.726-7.726h34.133c4.268 0 7.726 3.459 7.726 7.726s-3.458 7.726-7.726 7.726z" fill="#cdcdd4"/></g></g><path d="m375.467 426.667h-34.133c-9.426 0-17.067 7.641-17.067 17.067v25.6c0 4.713-3.82 8.533-8.533 8.533h-17.067c-4.713 0-8.533-3.82-8.533-8.533v-25.6c0-9.426-7.641-17.067-17.067-17.067h-136.534c-9.426 0-17.067-7.641-17.067-17.067v-324.267c0-9.426 7.641-17.067 17.067-17.067h238.933c9.426 0 17.067 7.641 17.067 17.067v324.267c0 9.426-7.641 17.067-17.066 17.067z" fill="#fd4b00"/><path d="m350.158 119.467h-23.694c4.552 0 8.241 3.69 8.241 8.241v239.517c0 4.551-3.69 8.241-8.241 8.241h23.694c4.552 0 8.242-3.69 8.242-8.241v-239.517c0-4.551-3.69-8.241-8.242-8.241z" fill="#f9f8f9"/><path d="m358.4 273.067v-145.359c0-4.552-3.69-8.241-8.242-8.241h-188.317c-4.552 0-8.241 3.69-8.241 8.241v145.359l102.4 18.99z" fill="#f9f8f9"/><path d="m358.4 273.067v94.159c0 4.551-3.69 8.241-8.241 8.241h-188.318c-4.552 0-8.241-3.69-8.241-8.241v-94.159z" fill="#12b0ff"/><path d="m248 341.333h-52.267c-4.418 0-8-3.582-8-8v-18.133c0-4.418 3.582-8 8-8h52.267c4.418 0 8 3.582 8 8v18.133c0 4.419-3.582 8-8 8z" fill="#95f720"/><g><path d="m324.267 314.927h-34.133c-4.268 0-7.726-3.459-7.726-7.726s3.459-7.726 7.726-7.726h34.133c4.268 0 7.726 3.459 7.726 7.726 0 4.266-3.459 7.726-7.726 7.726z" fill="#f9f8f9"/></g><g><path d="m315.733 349.06h-17.066c-4.268 0-7.726-3.459-7.726-7.726s3.459-7.726 7.726-7.726h17.066c4.268 0 7.726 3.459 7.726 7.726.001 4.267-3.458 7.726-7.726 7.726z" fill="#f9f8f9"/></g><g><g><path d="m187.733 178.393c-4.268 0-7.726-3.459-7.726-7.726v-17.067c0-4.267 3.459-7.726 7.726-7.726 4.268 0 7.726 3.459 7.726 7.726v17.066c.001 4.268-3.458 7.727-7.726 7.727z" fill="#676e74"/></g></g><g><g><path d="m221.866 178.393c-4.268 0-7.726-3.459-7.726-7.726v-17.067c0-4.267 3.459-7.726 7.726-7.726 4.268 0 7.726 3.459 7.726 7.726v17.066c0 4.268-3.458 7.727-7.726 7.727z" fill="#676e74"/></g></g><g><g><path d="m256 178.393c-4.268 0-7.726-3.459-7.726-7.726v-17.067c0-4.267 3.459-7.726 7.726-7.726 4.268 0 7.726 3.459 7.726 7.726v17.066c0 4.268-3.458 7.727-7.726 7.727z" fill="#676e74"/></g></g><path d="m248 238.933h-52.267c-4.418 0-8-3.582-8-8v-18.133c0-4.418 3.582-8 8-8h52.267c4.418 0 8 3.582 8 8v18.133c0 4.419-3.582 8-8 8z" fill="#12b0ff"/><path d="m321.584 174.291-10.687-18.554c-1.641-2.85-5.753-2.85-7.394 0l-10.687 18.554c-1.847 2.894-2.861 6.372-2.657 10.106.495 9.057 8.248 16.262 17.317 16.118 9.298-.148 16.79-7.731 16.79-17.065.001-3.373-.992-6.511-2.682-9.159z" fill="#fd4b00"/><path d="m321.584 174.291-10.687-18.554c-1.641-2.85-5.754-2.85-7.395 0l-8.15 14.15 2.537 4.404c1.69 2.648 2.683 5.786 2.683 9.16 0 4.803-1.993 9.133-5.187 12.234 3.156 3.042 7.447 4.904 12.091 4.83 9.298-.148 16.79-7.731 16.79-17.065.001-3.373-.992-6.511-2.682-9.159z" fill="#f52500"/><path d="m350.158 119.467h-23.694c4.552 0 8.241 3.69 8.241 8.241v145.359 4.394l23.694-4.394v-145.359c.001-4.551-3.689-8.241-8.241-8.241z" fill="#dbecf3"/><path d="m334.706 273.067v94.159c0 4.551-3.69 8.241-8.241 8.241h23.694c4.552 0 8.242-3.69 8.242-8.241v-94.159z" fill="#0093fd"/><path d="m247.759 307.2h-23.694c4.551 0 8.241 3.69 8.241 8.241v17.651c0 4.552-3.69 8.241-8.241 8.241h23.694c4.551 0 8.241-3.69 8.241-8.241v-17.651c0-4.551-3.69-8.241-8.241-8.241z" fill="#69eb00"/><g><g><g><path d="m300.572 443.733v25.6c0 3.537-2.153 6.572-5.219 7.865 1.019.43 2.139.668 3.314.668h17.067c4.713 0 8.533-3.82 8.533-8.533v-25.6c0-9.426 7.641-17.067 17.067-17.067h-23.694c-9.427.001-17.068 7.642-17.068 17.067z" fill="#f52500"/></g><g><path d="m375.467 68.267h-23.694c9.426 0 17.067 7.641 17.067 17.067v324.266c0 9.426-7.641 17.067-17.067 17.067h23.694c9.426 0 17.066-7.641 17.066-17.067v-324.267c0-9.425-7.641-17.066-17.066-17.066z" fill="#f52500"/></g></g></g><path d="m247.759 204.8h-23.694c4.551 0 8.241 3.69 8.241 8.241v17.65c0 4.552-3.69 8.241-8.241 8.241h23.694c4.551 0 8.241-3.69 8.241-8.241v-17.65c0-4.551-3.69-8.241-8.241-8.241z" fill="#0093fd"/></g></svg>