<svg id="Capa_1" enable-background="new 0 0 512 512" height="512" viewBox="0 0 512 512" width="512" xmlns="http://www.w3.org/2000/svg"><g><g><path d="m388.533 40.633h-61.147c-3.138 0-6.006-1.773-7.409-4.579l-9.698-19.397c-2.806-5.612-8.542-9.158-14.817-9.158h-78.923c-6.275 0-12.012 3.545-14.818 9.158l-9.698 19.396c-1.403 2.806-4.271 4.579-7.409 4.579h-61.147c-18.299 0-33.133 14.834-33.133 33.133v347.9c0 18.299 14.834 33.133 33.133 33.133h57.983c4.575 0 8.283 3.709 8.283 8.283v33.133c0 4.575 3.709 8.283 8.283 8.283h16.567c4.575 0 8.283-3.709 8.283-8.283v-33.133c0-4.575 3.708-8.283 8.283-8.283h16.567c4.575 0 8.283 3.709 8.283 8.283v33.133c0 4.575 3.709 8.283 8.283 8.283h82.833c4.575 0 8.283-3.709 8.283-8.283v-33.133c0-4.575 3.709-8.283 8.283-8.283h24.85c18.299 0 33.133-14.834 33.133-33.133v-347.9c.003-18.297-14.832-33.132-33.131-33.132z" fill="#f9f8f9"/><g fill="#dbecf3"><path d="m287.279 16.658 9.698 19.397c1.403 2.806 4.271 4.579 7.409 4.579h23c-3.138 0-6.006-1.773-7.409-4.579l-9.698-19.397c-2.806-5.613-8.543-9.158-14.817-9.158h-23c6.275 0 12.011 3.545 14.817 9.158z"/><path d="m224.717 454.8h-16.567c-4.575 0-8.283 3.709-8.283 8.283v33.133c0 3.434-2.09 6.379-5.067 7.635.989.417 2.076.648 3.217.648h16.567c4.575 0 8.283-3.709 8.283-8.283v-33.133c0-3.434 2.09-6.379 5.067-7.635-.99-.417-2.077-.648-3.217-.648z"/><path d="m332.4 463.083v33.133c0 4.575-3.708 8.283-8.283 8.283h23c4.575 0 8.283-3.709 8.283-8.283v-33.133c0-4.575 3.709-8.283 8.283-8.283h-23c-4.574 0-8.283 3.709-8.283 8.283z"/><path d="m388.533 40.633h-23c18.299 0 33.133 14.834 33.133 33.133v347.9c0 18.299-14.834 33.133-33.133 33.133h23c18.299 0 33.133-14.834 33.133-33.133v-347.9c.001-18.298-14.834-33.133-33.133-33.133z"/></g><path d="m371.967 421.667h-33.133c-9.15 0-16.567 7.417-16.567 16.567v24.85c0 4.575-3.709 8.283-8.283 8.283h-16.567c-4.575 0-8.283-3.709-8.283-8.283v-24.85c0-9.15-7.417-16.567-16.567-16.567h-132.534c-9.149 0-16.567-7.417-16.567-16.567v-314.767c0-9.15 7.417-16.567 16.567-16.567h231.933c9.15 0 16.567 7.417 16.567 16.567v314.767c0 9.15-7.417 16.567-16.566 16.567z" fill="#fd4b00"/><path d="m347.4 123.467h-23c4.418 0 8 3.582 8 8v232.5c0 4.418-3.582 8-8 8h23c4.418 0 8-3.582 8-8v-232.5c0-4.419-3.582-8-8-8z" fill="#f9f8f9"/><path d="m355.4 272.567v-141.1c0-4.418-3.582-8-8-8h-182.8c-4.418 0-8 3.582-8 8v141.1l99.4 18.433z" fill="#f9f8f9"/><path d="m355.4 272.567v91.4c0 4.418-3.582 8-8 8h-182.8c-4.418 0-8-3.582-8-8v-91.4z" fill="#12b0ff"/><path d="m248 338.833h-50.267c-4.418 0-8-3.582-8-8v-17.133c0-4.418 3.582-8 8-8h50.267c4.418 0 8 3.582 8 8v17.133c0 4.419-3.582 8-8 8z" fill="#95f720"/><path d="m248 239.433h-50.267c-4.418 0-8-3.582-8-8v-17.133c0-4.418 3.582-8 8-8h50.267c4.418 0 8 3.582 8 8v17.133c0 4.419-3.582 8-8 8z" fill="#12b0ff"/><path d="m319.663 176.685-10.374-18.01c-1.593-2.766-5.585-2.766-7.178 0l-10.374 18.01c-1.793 2.809-2.777 6.186-2.579 9.81.481 8.792 8.006 15.786 16.81 15.646 9.026-.143 16.298-7.505 16.298-16.565.001-3.275-.963-6.32-2.603-8.891z" fill="#fd4b00"/><path d="m319.663 176.685-10.374-18.01c-1.593-2.766-5.585-2.766-7.178 0l-7.911 13.735 2.463 4.275c1.641 2.571 2.604 5.616 2.604 8.892 0 4.662-1.935 8.865-5.035 11.876 3.063 2.953 7.229 4.76 11.737 4.689 9.026-.143 16.298-7.505 16.298-16.565 0-3.276-.964-6.321-2.604-8.892z" fill="#f52500"/><path d="m347.4 123.467h-23c4.418 0 8 3.582 8 8v141.1 4.265l23-4.265v-141.1c0-4.419-3.582-8-8-8z" fill="#dbecf3"/><path d="m332.4 272.567v91.4c0 4.418-3.582 8-8 8h23c4.418 0 8-3.582 8-8v-91.4z" fill="#0093fd"/><path d="m248 305.7h-23c4.418 0 8 3.582 8 8v17.133c0 4.418-3.582 8-8 8h23c4.418 0 8-3.582 8-8v-17.133c0-4.418-3.582-8-8-8z" fill="#69eb00"/><g><g><g><path d="m299.267 438.233v24.85c0 3.434-2.09 6.379-5.067 7.635.989.417 2.076.648 3.217.648h16.567c4.575 0 8.283-3.708 8.283-8.283v-24.85c0-9.15 7.417-16.567 16.567-16.567h-23c-9.15.001-16.567 7.418-16.567 16.567z" fill="#f52500"/></g><g><path d="m371.967 73.767h-23c9.149 0 16.567 7.417 16.567 16.567v314.766c0 9.15-7.417 16.567-16.567 16.567h23c9.149 0 16.566-7.417 16.566-16.567v-314.767c0-9.149-7.417-16.566-16.566-16.566z" fill="#f52500"/></g></g></g><path d="m248 206.3h-23c4.418 0 8 3.582 8 8v17.133c0 4.418-3.582 8-8 8h23c4.418 0 8-3.582 8-8v-17.133c0-4.418-3.582-8-8-8z" fill="#0093fd"/></g><g><path d="m272.566 48.133c4.143 0 7.5-3.358 7.5-7.5s-3.357-7.5-7.5-7.5h-33.133c-4.143 0-7.5 3.358-7.5 7.5s3.357 7.5 7.5 7.5z"/><path d="m115.967 90.334v314.766c0 13.27 10.796 24.066 24.066 24.066h132.533c5 0 9.067 4.067 9.067 9.067v24.85c0 8.703 7.08 15.783 15.783 15.783h16.566c8.703 0 15.783-7.08 15.783-15.783v-24.85c0-5 4.067-9.067 9.066-9.067h33.134c13.271 0 24.066-10.796 24.066-24.066v-314.766c0-13.271-10.796-24.067-24.066-24.067h-231.932c-13.27 0-24.066 10.796-24.066 24.067zm265.066 0v314.766c0 4.999-4.067 9.066-9.066 9.066h-33.134c-13.271 0-24.066 10.796-24.066 24.067v24.85c0 .432-.352.783-.783.783h-16.566c-.432 0-.783-.352-.783-.783v-24.85c0-13.271-10.797-24.067-24.067-24.067h-132.535c-4.999 0-9.066-4.067-9.066-9.066v-314.766c0-5 4.067-9.067 9.066-9.067h231.934c4.999 0 9.066 4.067 9.066 9.067z"/><path d="m388.533 33.133h-61.147c-.294 0-.568-.169-.7-.433l-9.698-19.397c-4.104-8.205-12.352-13.303-21.526-13.303h-78.923c-9.175 0-17.423 5.098-21.526 13.304l-9.699 19.398c-.131.262-.405.431-.699.431h-61.148c-22.405 0-40.634 18.228-40.634 40.633v76.116c0 4.142 3.357 7.5 7.5 7.5s7.5-3.358 7.5-7.5v-76.115c0-14.134 11.499-25.633 25.634-25.633h61.148c6.018 0 11.428-3.344 14.116-8.725l9.698-19.395c1.546-3.092 4.653-5.013 8.11-5.013h78.923c3.456 0 6.563 1.92 8.109 5.012l9.697 19.394c2.689 5.383 8.099 8.727 14.117 8.727h61.147c14.135 0 25.634 11.499 25.634 25.633v347.9c0 14.134-11.499 25.633-25.634 25.633h-24.85c-8.703 0-15.783 7.081-15.783 15.784v33.133c0 .432-.352.783-.784.783h-82.833c-.432 0-.783-.352-.783-.783v-33.133c0-8.703-7.08-15.784-15.783-15.784h-16.566c-8.703 0-15.784 7.081-15.784 15.784v33.133c0 .432-.352.783-.783.783h-16.566c-.432 0-.783-.352-.783-.783v-33.133c0-8.703-7.08-15.784-15.783-15.784h-57.983c-14.135 0-25.634-11.499-25.634-25.633v-241.785c0-4.142-3.357-7.5-7.5-7.5s-7.5 3.358-7.5 7.5v241.784c0 22.405 18.229 40.633 40.634 40.633h57.983c.432 0 .783.352.783.784v33.133c0 8.703 7.08 15.783 15.783 15.783h16.566c8.703 0 15.783-7.081 15.783-15.783v-33.133c0-.432.352-.784.784-.784h16.566c.432 0 .783.352.783.784v33.133c0 8.703 7.08 15.783 15.783 15.783h82.833c8.703 0 15.784-7.081 15.784-15.783v-33.133c0-.432.352-.784.783-.784h24.85c22.405 0 40.634-18.228 40.634-40.633v-347.9c.001-22.405-18.227-40.633-40.633-40.633z"/><path d="m164.6 379.467h43.267c4.143 0 7.5-3.358 7.5-7.5s-3.357-7.5-7.5-7.5h-43.267c-.275 0-.5-.224-.5-.5v-83.9h183.8v83.9c0 .276-.225.5-.5.5h-109.534c-4.143 0-7.5 3.358-7.5 7.5s3.357 7.5 7.5 7.5h109.534c8.547 0 15.5-6.953 15.5-15.5v-232.5c0-8.547-6.953-15.5-15.5-15.5h-182.8c-8.547 0-15.5 6.953-15.5 15.5v232.5c0 8.547 6.953 15.5 15.5 15.5zm0-248.5h182.8c.275 0 .5.224.5.5v133.6h-183.8v-133.6c0-.276.224-.5.5-.5z"/><path d="m263.5 330.833v-17.133c0-8.547-6.953-15.5-15.5-15.5h-50.267c-8.547 0-15.5 6.953-15.5 15.5v17.133c0 8.547 6.953 15.5 15.5 15.5h50.267c8.547 0 15.5-6.953 15.5-15.5zm-66.267 0v-17.133c0-.276.225-.5.5-.5h50.267c.275 0 .5.224.5.5v17.133c0 .276-.225.5-.5.5h-50.267c-.275 0-.5-.224-.5-.5z"/><path d="m329.767 305.7c0-4.142-3.357-7.5-7.5-7.5h-33.133c-4.143 0-7.5 3.358-7.5 7.5s3.357 7.5 7.5 7.5h33.133c4.142 0 7.5-3.358 7.5-7.5z"/><path d="m297.417 331.333c-4.143 0-7.5 3.358-7.5 7.5s3.357 7.5 7.5 7.5h16.566c4.143 0 7.5-3.358 7.5-7.5s-3.357-7.5-7.5-7.5z"/><path d="m189.733 180.667c4.143 0 7.5-3.358 7.5-7.5v-16.567c0-4.142-3.357-7.5-7.5-7.5s-7.5 3.358-7.5 7.5v16.566c0 4.143 3.358 7.501 7.5 7.501z"/><path d="m222.866 180.667c4.143 0 7.5-3.358 7.5-7.5v-16.567c0-4.142-3.357-7.5-7.5-7.5s-7.5 3.358-7.5 7.5v16.566c0 4.143 3.358 7.501 7.5 7.501z"/><path d="m256 180.667c4.143 0 7.5-3.358 7.5-7.5v-16.567c0-4.142-3.357-7.5-7.5-7.5s-7.5 3.358-7.5 7.5v16.566c0 4.143 3.357 7.501 7.5 7.501z"/><path d="m197.733 246.933h50.267c8.547 0 15.5-6.953 15.5-15.5v-17.133c0-8.547-6.953-15.5-15.5-15.5h-50.267c-8.547 0-15.5 6.953-15.5 15.5v17.133c0 8.547 6.953 15.5 15.5 15.5zm-.5-32.633c0-.276.225-.5.5-.5h50.267c.275 0 .5.224.5.5v17.133c0 .276-.225.5-.5.5h-50.267c-.275 0-.5-.224-.5-.5z"/><path d="m305.713 209.644c.125 0 .249-.001.374-.003 13.057-.208 23.68-11.002 23.68-24.064 0-4.519-1.272-8.93-3.683-12.77l-10.297-17.877c-2.072-3.596-5.938-5.83-10.087-5.83-.001 0-.001 0-.002 0-4.15.001-8.015 2.235-10.086 5.831l-10.297 17.876c-2.659 4.236-3.919 9.106-3.646 14.098.691 12.615 11.438 22.739 24.044 22.739zm-7.653-28.924c.06-.096.12-.193.177-.292l7.464-12.958 7.463 12.958c.057.099.116.197.178.294.933 1.46 1.426 3.139 1.426 4.855 0 4.921-4.001 8.988-8.918 9.066-4.805.031-8.938-3.763-9.201-8.557-.106-1.9.382-3.755 1.411-5.366z"/></g></g></svg>