<svg id="Capa_1" enable-background="new 0 0 512.016 512.016" height="512" viewBox="0 0 512.016 512.016" width="512" xmlns="http://www.w3.org/2000/svg"><g><path d="m482.725 112.522c-7.038-2.197-14.22-1.775-20.538.686-4.433 1.727-9.297 2.01-13.892.778-7.645-2.048-12.961-8.976-12.961-16.891v-70.412c0-2.926-2.372-5.298-5.298-5.298h-3.195c-12.57 0-24.968 2.927-36.211 8.548l-7.582 3.791c-1.795.897-2.929 2.732-2.929 4.739v35.155c0 6.792-2.736 13.297-7.59 18.048l-222.784 218.017c-10.61 10.383-21.801 20.155-33.519 29.269l-9.147 7.114c-8.98 6.984-21.052 8.195-31.417 3.504-17.827-8.067-39.547-4.753-54.175 9.943-18.04 18.124-18.728 47.696-1.497 66.591 8.625 9.458 20.038 14.67 31.736 15.637 2.483.205 4.456 2.178 4.661 4.661.967 11.698 6.18 23.111 15.638 31.736 18.896 17.23 48.467 16.542 66.591-1.498 14.695-14.628 18.01-36.347 9.943-54.174-4.69-10.364-3.48-22.437 3.504-31.417l4.501-5.787c10.851-13.951 22.633-27.153 35.265-39.514l194.387-190.228c7.605-7.443 18.574-10.318 28.853-7.564l24.811 6.648c3.391.909 6.361 2.96 8.422 5.803 4.036 5.566 9.936 9.834 17.095 11.752 17.272 4.628 35.046-6.254 38.535-24.108 3.01-15.398-6.229-30.853-21.207-35.529z" fill="#eaf9fa"/><path d="m409.884 144.606-24.811-6.648c-10.279-2.754-21.248.121-28.853 7.564l-194.387 190.228c-12.632 12.362-24.414 25.563-35.265 39.515l-4.501 5.787c-6.984 8.98-8.195 21.052-3.504 31.417 8.067 17.827 4.753 39.546-9.943 54.174-9.219 9.177-21.4 13.863-33.632 13.986 18.911 14.627 46.426 13.137 63.629-3.987 14.695-14.628 18.01-36.347 9.943-54.174-4.69-10.364-3.48-22.437 3.504-31.417l4.501-5.787c10.851-13.951 22.633-27.153 35.265-39.515l194.387-190.228c7.605-7.443 18.574-10.318 28.853-7.564l1.434.384c-1.847-1.772-4.119-3.065-6.62-3.735z" fill="#dcf5f8"/><path d="m482.725 112.522c-5.357-1.672-10.796-1.827-15.875-.72 6.074 7.019 8.963 16.646 7.086 26.251-2.492 12.752-12.271 21.946-23.95 24.474 3.922 4.525 9.192 7.966 15.412 9.633 17.272 4.628 35.046-6.254 38.535-24.108 3.009-15.399-6.23-30.854-21.208-35.53z" fill="#dcf5f8"/><path d="m484.96 105.363c-8.458-2.641-17.275-2.345-25.494.857-2.98 1.16-6.171 1.343-9.23.522-4.358-1.168-7.401-5.135-7.401-9.646v-70.413c0-7.057-5.741-12.798-12.798-12.798h-3.195c-13.663 0-27.344 3.229-39.565 9.34l-7.583 3.791c-4.363 2.183-7.073 6.568-7.073 11.447v35.154c0 4.745-1.945 9.369-5.336 12.688l-7.108 6.956c-2.96 2.896-3.012 7.646-.115 10.605 2.897 2.962 7.646 3.013 10.606.115l7.108-6.956c6.256-6.122 9.845-14.654 9.845-23.408v-33.793l6.365-3.183c10.149-5.074 21.511-7.756 32.857-7.756h.993v68.211c0 11.289 7.616 21.214 18.52 24.135 6.161 1.65 12.577 1.293 18.556-1.034 5.016-1.952 10.403-2.132 15.581-.516 11.281 3.521 18.346 15.352 16.083 26.933-1.274 6.519-5.059 12.033-10.656 15.527-5.604 3.497-12.201 4.481-18.577 2.774-5.28-1.415-9.763-4.496-12.964-8.91-3.065-4.228-7.523-7.298-12.552-8.645l-24.812-6.648c-12.778-3.424-26.587.197-36.04 9.448l-194.391 190.229c-12.829 12.554-24.92 26.103-35.939 40.27l-4.501 5.787c-8.624 11.089-10.316 26.076-4.417 39.113 6.98 15.425 3.604 33.817-8.401 45.767-15.197 15.126-40.428 15.697-56.246 1.272-7.671-6.995-12.365-16.516-13.217-26.808 0-.002 0-.003 0-.005-1.15-13.913 4.824-32.078 25.041-41.333 3.766-1.724 5.421-6.175 3.697-9.941-1.725-3.765-6.174-5.421-9.941-3.697-18.276 8.367-30.449 24.521-33.298 43.096-9.141-1.436-17.514-5.933-23.829-12.858-14.425-15.818-13.854-41.051 1.271-56.247 11.951-12.005 30.344-15.381 45.768-8.4 13.038 5.898 28.025 4.206 39.113-4.418l9.146-7.114c11.893-9.249 23.386-19.285 34.16-29.828l190.496-186.42c2.96-2.897 3.012-7.646.115-10.606s-7.646-3.012-10.606-.114l-190.496 186.42c-10.369 10.147-21.431 19.807-32.877 28.709l-9.146 7.114c-6.681 5.196-15.771 6.189-23.72 2.592-21.095-9.548-46.244-4.931-62.583 11.484-10.093 10.137-15.831 23.678-16.159 38.126-.329 14.458 4.797 28.241 14.435 38.809 9.105 9.984 21.353 16.277 34.665 17.856 1.581 13.314 7.874 25.561 17.858 34.667 10.249 9.345 23.52 14.448 37.5 14.448 14.91 0 28.975-5.76 39.436-16.174 16.415-16.339 21.03-41.488 11.485-62.581-3.598-7.95-2.604-17.04 2.592-23.721l4.5-5.787c10.605-13.635 22.244-26.676 34.59-38.758l194.388-190.229c5.683-5.562 13.986-7.737 21.666-5.681l24.812 6.649c1.716.459 3.239 1.511 4.291 2.96 5.169 7.129 12.707 12.312 21.226 14.594 10.283 2.757 21.366 1.103 30.401-4.538 9.163-5.72 15.355-14.73 17.436-25.375 3.768-19.291-7.553-38.263-26.336-44.126z"/><path d="m295.446 202.685c2.93 2.929 7.678 2.928 10.606 0l59.849-59.85c11.171-11.172 26.025-17.324 41.825-17.324 4.142 0 7.5-3.357 7.5-7.5s-3.358-7.5-7.5-7.5c-19.807 0-38.428 7.713-52.432 21.718l-59.849 59.849c-2.928 2.93-2.928 7.678.001 10.607z"/><path d="m270.512 217.011-88.948 88.948c-2.929 2.93-2.929 7.678 0 10.607 2.93 2.929 7.678 2.928 10.606 0l88.948-88.948c2.929-2.93 2.929-7.678 0-10.607-2.928-2.927-7.677-2.927-10.606 0z"/></g></svg>