<svg id="Capa_1" enable-background="new 0 0 511.771 511.771" height="512" viewBox="0 0 511.771 511.771" width="512" xmlns="http://www.w3.org/2000/svg"><g><path d="m489.348 108.136c-7.247-2.263-14.642-1.827-21.148.707-4.565 1.778-9.573 2.07-14.305.802-7.872-2.109-13.346-9.243-13.346-17.393v-72.507c0-3.013-2.442-5.455-5.455-5.455h-3.29c-12.944 0-25.71 3.014-37.287 8.802l-7.808 3.904c-1.848.924-3.016 2.813-3.016 4.879v36.2c0 6.994-2.817 13.693-7.816 18.584l-229.405 224.497c-10.925 10.691-22.449 20.754-34.515 30.139l-9.419 7.326c-9.247 7.192-21.678 8.438-32.35 3.609-18.357-8.307-40.722-4.894-55.785 10.239-18.576 18.663-19.285 49.113-1.542 68.57 8.881 9.739 20.633 15.106 32.679 16.102 2.557.211 4.588 2.243 4.8 4.8.996 12.046 6.363 23.798 16.103 32.679 19.457 17.743 49.908 17.034 68.57-1.543 15.132-15.063 18.545-37.428 10.238-55.784-4.83-10.672-3.583-23.104 3.608-32.351l4.635-5.959c11.173-14.366 23.305-27.96 36.313-40.689l200.164-195.882c7.831-7.664 19.126-10.625 29.71-7.789l25.549 6.846c3.492.936 6.55 3.048 8.672 5.975 4.156 5.731 10.232 10.127 17.603 12.102 17.785 4.766 36.088-6.44 39.68-24.824 3.1-15.858-6.414-31.771-21.837-36.586z" fill="#eaf9fa"/><g fill="#dcf5f8"><path d="m414.343 141.173-25.549-6.846c-10.584-2.836-21.879.125-29.71 7.789l-200.165 195.882c-13.007 12.729-25.139 26.323-36.313 40.689l-4.635 5.959c-7.192 9.247-8.438 21.678-3.609 32.35 8.307 18.357 4.894 40.721-10.238 55.784-9.493 9.449-22.036 14.275-34.631 14.401 19.473 15.061 47.806 13.527 65.52-4.105 15.132-15.063 18.545-37.427 10.238-55.784-4.83-10.672-3.583-23.104 3.609-32.35l4.635-5.959c11.173-14.366 23.305-27.96 36.313-40.689l200.164-195.882c7.831-7.664 19.126-10.625 29.71-7.789l1.477.396c-1.902-1.825-4.241-3.156-6.816-3.846z"/><path d="m489.348 108.136c-5.516-1.722-11.117-1.881-16.347-.742 6.255 7.228 9.229 17.14 7.296 27.031-2.566 13.131-12.636 22.599-24.662 25.202 4.039 4.659 9.466 8.203 15.87 9.919 17.785 4.766 36.088-6.44 39.68-24.824 3.1-15.858-6.414-31.771-21.837-36.586z"/><path d="m76.255 409.158c3.766-1.724 5.421-6.175 3.697-9.941s-6.177-5.422-9.941-3.697c-20.522 9.395-33.544 28.361-34.729 49.676 3.354 1.01 6.794 1.658 10.259 1.945 2.557.211 4.589 2.243 4.8 4.8-1.519-18.377 8.41-34.771 25.914-42.783z"/><path d="m184.697 320.284c-1.919 0-3.839-.732-5.303-2.196-2.929-2.93-2.929-7.678 0-10.607l178.894-178.895c14.378-14.379 33.497-22.298 53.833-22.298 4.142 0 7.5 3.357 7.5 7.5s-3.358 7.5-7.5 7.5c-16.329 0-31.68 6.358-43.226 17.904l-178.894 178.895c-1.465 1.464-3.384 2.197-5.304 2.197z"/></g><path d="m368.895 139.192c1.945-1.945 3.998-3.743 6.146-5.387-5.927 1.115-11.502 3.952-15.957 8.311l-179.753 175.906c.021.022.042.043.063.065 1.464 1.464 3.384 2.196 5.303 2.196s3.839-.732 5.303-2.196z" fill="#d4f2f6"/></g></svg>