<svg id="Capa_1" enable-background="new 0 0 512 512" height="512" viewBox="0 0 512 512" width="512" xmlns="http://www.w3.org/2000/svg"><g><path d="m277.28 352.078-58.315 106.684c-3.56 6.513-10.39 10.563-17.812 10.563-13.389 0-23.111-12.735-19.582-25.65l28.149-103.015z" fill="#f37c7c"/><path d="m212.027 349.601c5.557 36.999-22.947 68.814-58.882 68.814h-10.51c-45.977 0-84.869-38.971-77.254-84.063z" fill="#e94444"/><g><g><path d="m153.145 397.472h-10.51c-6.367 0-12.705-1.034-18.837-3.074-3.93-1.308-6.056-5.554-4.749-9.484 1.308-3.93 5.552-6.058 9.484-4.749 4.602 1.531 9.347 2.308 14.102 2.308h10.51c7.707 0 14.956-3.792 19.391-10.144 4.512-6.462 5.452-14.659 2.579-22.486-1.427-3.889.568-8.198 4.456-9.625 3.889-1.429 8.198.568 9.625 4.456 4.586 12.494 2.997 25.704-4.361 36.242-7.238 10.367-19.085 16.556-31.69 16.556z" fill="#d83131"/></g></g><path d="m338.211 358.838h-157.718-85.565c-26.241 0-49.996-10.648-67.179-27.859-12.636-12.657-12.661-33.148-.014-45.794l8.403-8.403-1.586 1.586c-12.657 12.657-34.475 3.86-34.551-14.039-.001-.14-.001-.28-.001-.419 0-60.672 24.423-115.639 63.973-155.607 7.921-8.004 20.813-8.112 28.776-.15l2.758 2.758c-9.029-9.029-7.545-24.064 3.076-31.152l-.001-.001c35.104-23.424 77.283-37.082 122.653-37.082h14.528c11.177 0 20.238 9.061 20.238 20.237 0-11.177 9.061-20.237 20.237-20.237h45.199c33.674 0 65.909 8.524 94.241 23.867 11.844 6.414 14.06 22.504 4.538 32.03l5.033-5.033c7.586-7.586 19.769-7.928 27.785-.799 23.456 20.859 41.925 47.499 53.643 78.051 20.124 53.36-19.309 110.375-76.337 110.375h-20.723c-.65 0-1.152.556-1.097 1.204.17 1.995.257 4.014.257 6.053 0 38.938-31.608 70.495-70.566 70.414z" fill="#f9b1b1"/><path d="m379.008 77.969 5.033-5.033c7.586-7.586 19.769-7.928 27.785-.799 4.976 4.426 9.728 9.111 14.239 14.039.729-7.677-2.91-15.584-10.388-19.634-10.944-5.927-22.471-10.836-34.437-14.629 5.465 7.698 5.033 18.788-2.232 26.056z" fill="#f79595"/><path d="m506.677 170.792c-11.719-30.554-30.189-57.193-53.645-78.053-6.601-5.87-16.026-6.673-23.384-2.538 15.087 17.42 27.258 37.658 35.822 59.987 20.124 53.36-19.309 110.375-76.337 110.375h-14.472c-3.916 0-7.091 3.175-7.091 7.091v.166c0 38.939-31.607 70.496-70.566 70.415h-243.283c-7.057 0-13.934-.77-20.552-2.231 16.601 14.235 38.176 22.835 61.759 22.835h243.283c38.958.081 70.566-31.476 70.566-70.415 0-2.039-.087-4.058-.257-6.053-.055-.648.447-1.204 1.097-1.204h20.723c57.028-.001 96.461-57.016 76.337-110.375z" fill="#f79595"/><g fill="#f79595"><path d="m76.341 102.351 43.853 43.853c2.929 2.929 7.678 2.929 10.606 0 2.929-2.929 2.929-7.678 0-10.606l-41.111-41.112c-.608 5.81 1.272 11.879 5.818 16.425l-2.758-2.758c-4.493-4.493-10.555-6.416-16.408-5.802z"/><path d="m291.16 320.894c4.142 0 7.5-3.358 7.5-7.5s-3.358-7.5-7.5-7.5h-96.096c-28.841 0-55.956 11.231-76.349 31.625l-21.319 21.319h21.213l10.712-10.713c17.56-17.56 40.908-27.231 65.742-27.231z"/><path d="m211.698 92.419-2.752-14.168c-.79-4.066-4.725-6.723-8.792-5.932-4.066.79-6.722 4.727-5.932 8.792l2.752 14.168c1.511 7.776-2.897 15.543-10.252 18.067-6.019 2.065-11.909 4.571-17.592 7.479l-15.23-31.055c-1.824-3.719-6.316-5.255-10.036-3.432-3.719 1.824-5.255 6.317-3.432 10.036 9.875 20.137 19.909 40.599 29.936 61.045 1.303 2.657 3.967 4.199 6.739 4.199 1.108 0 2.234-.247 3.297-.768 3.719-1.824 5.255-6.317 3.432-10.036l-8.101-16.521c5.12-2.634 10.43-4.899 15.856-6.761 14.392-4.937 23.036-20.034 20.107-35.113z"/><path d="m70.724 243.2c-12.456-12.456-14.607-32.268-5.117-47.107l6.028-9.426c2.231-3.49 1.212-8.127-2.277-10.359-3.491-2.231-8.128-1.213-10.359 2.277l-6.028 9.426c-13.256 20.727-10.25 48.398 7.147 65.796l13.923 13.923c1.464 1.464 3.384 2.197 5.303 2.197s3.839-.732 5.303-2.197c2.929-2.929 2.929-7.678 0-10.606z"/><path d="m423.47 281.166c-1.42-15.211-7.219-29.716-16.987-41.77-11.75-14.498-27.986-24.114-45.922-27.517l10.092-30.277c1.31-3.929-.814-8.177-4.744-9.487-3.929-1.31-8.177.814-9.487 4.744l-11.216 33.647h-42.999l11.687-43.554c1.074-4-1.299-8.114-5.3-9.188-3.997-1.072-8.113 1.299-9.188 5.3l-12.731 47.441h-45.381l-12.731-47.441c-1.073-4-5.188-6.373-9.188-5.3s-6.374 5.187-5.3 9.188l11.687 43.554h-37.712c-4.142 0-7.5 3.358-7.5 7.5s3.358 7.5 7.5 7.5h157.869c19.063 0 36.889 8.505 48.907 23.334 7.998 9.868 12.697 21.793 13.753 34.303-.019-.259-.04-.517-.062-.774-.055-.648.447-1.204 1.097-1.204h13.856z"/><path d="m359.359 277.689c-3.508-3.508-7.369-6.535-11.503-9.047l12.999-12.999c2.929-2.929 2.929-7.678 0-10.606-2.929-2.929-7.678-2.929-10.606 0l-17.158 17.158c-5.376-1.53-10.998-2.321-16.741-2.321h-131.798c-21.207 0-41.145-8.258-56.14-23.254l-23.916-23.916c-2.929-2.929-7.678-2.929-10.606 0-2.929 2.929-2.929 7.678 0 10.606l23.916 23.916c17.829 17.829 41.533 27.647 66.747 27.647h131.798c5.374 0 10.606.919 15.518 2.682.392.187.797.339 1.21.454 5.806 2.273 11.134 5.744 15.676 10.285l2.625 2.625c1.464 1.464 3.384 2.197 5.303 2.197s3.839-.732 5.303-2.197c2.929-2.929 2.929-7.678 0-10.606z"/><path d="m408.179 297.641c-.215 1.541-.485 3.083-.81 4.622-.062.295-.106.589-.133.882.384-1.81.7-3.646.943-5.504z"/><path d="m122.702 173.929c-2.929 2.929-2.929 7.678 0 10.606l28.443 28.443c1.464 1.464 3.384 2.197 5.303 2.197s3.839-.732 5.303-2.197c2.929-2.929 2.929-7.678 0-10.606l-28.443-28.443c-2.928-2.929-7.677-2.929-10.606 0z"/><path d="m436.535 247.451c-6.949-16.647-17.605-30.483-30.682-41.233-3.086-2.536-4.895-6.159-5.092-10.202-.2-4.106 1.352-8.129 4.257-11.035l13.417-13.417c2.929-2.929 2.929-7.678 0-10.606-2.929-2.929-7.678-2.929-10.606 0l-13.417 13.417c-5.893 5.893-9.04 14.047-8.633 22.373.4 8.203 4.246 15.878 10.55 21.059 11.597 9.532 20.57 21.545 26.363 35.423 1.202 2.878 3.989 4.613 6.924 4.613.963 0 1.942-.187 2.886-.581 3.823-1.596 5.628-5.988 4.033-9.811z"/><path d="m51.594 316.145c-2.929 2.929-2.929 7.678 0 10.606 2.929 2.929 7.678 2.929 10.606 0l8.492-8.492c11.449-11.449 26.672-17.754 42.863-17.754h14.45c4.142 0 7.5-3.358 7.5-7.5s-3.358-7.5-7.5-7.5h-14.45c-20.198 0-39.188 7.866-53.47 22.148z"/><path d="m389.72 129.068c1.464 1.464 3.384 2.197 5.303 2.197s3.839-.732 5.303-2.197l41.345-41.345c-5.875-.612-11.948 1.342-16.423 5.816l-5.033 5.033c4.565-4.568 6.432-10.644 5.833-16.439l-36.328 36.329c-2.929 2.929-2.929 7.678 0 10.606z"/><path d="m511.999 200.025-58.367 11.673c-4.062.812-6.696 4.764-5.884 8.825.713 3.565 3.845 6.031 7.347 6.031.487 0 .982-.048 1.479-.147l53.82-10.764c1.032-5.09 1.581-10.316 1.605-15.618z"/><path d="m460.406 149.438c2.929-2.929 2.929-7.678 0-10.606-2.93-2.93-7.678-2.929-10.606 0l-7.967 7.968c-6.54 6.54-8.371 16.526-4.556 24.85 1.321 2.882 2.571 5.857 3.702 8.804.556 1.474 1.05 2.968 1.479 4.473l-11.259 2.252c-4.062.812-6.696 4.764-5.884 8.825.713 3.565 3.845 6.031 7.347 6.031.487 0 .982-.048 1.479-.147l18.742-3.748h.002l32.133-6.427c4.062-.812 6.696-4.764 5.884-8.825-.812-4.062-4.764-6.695-8.825-5.884l-24.872 4.974c-.616-2.307-1.352-4.596-2.205-6.857-1.258-3.281-2.633-6.552-4.086-9.721-1.215-2.653-.602-5.865 1.526-7.994z"/><path d="m263.5 47.186c-4.575 3.71-7.5 9.377-7.5 15.727 0-6.35-2.925-12.016-7.5-15.727v46.716c0 4.142 3.358 7.5 7.5 7.5s7.5-3.358 7.5-7.5z"/><path d="m256 114.846c-4.142 0-7.5 3.358-7.5 7.5v42.665c0 4.142 3.358 7.5 7.5 7.5s7.5-3.358 7.5-7.5v-42.665c0-4.142-3.358-7.5-7.5-7.5z"/><path d="m319.796 74.462c.74-4.075-1.963-7.979-6.039-8.72-4.078-.739-7.98 1.963-8.72 6.039l-2.335 12.85c-2.851 15.69 6.497 30.842 21.743 35.245 5.494 1.587 10.875 3.617 16.062 6.055l-5.208 11.072c-1.763 3.749-.154 8.216 3.594 9.979 3.756 1.767 8.22.146 9.979-3.594 6.119-13.009 20.264-43.083 26.747-56.864 1.763-3.749.154-8.216-3.594-9.979-3.749-1.763-8.217-.154-9.979 3.594l-15.155 32.219c-5.904-2.776-12.029-5.087-18.284-6.893-7.824-2.259-12.616-10.063-11.146-18.152z"/></g><g fill="#f37c7c"><path d="m462.491 142.844c-.202-1.163-.68-2.288-1.433-3.269.487 1.084.964 2.174 1.433 3.269z"/><path d="m429.648 90.2c1.477 1.706 2.927 3.439 4.347 5.198l7.676-7.676c-4.116-.428-8.33.403-12.023 2.478z"/><path d="m426.066 86.176c.128-1.348.121-2.703-.018-4.043l-1.938 1.938c.656.697 1.309 1.398 1.956 2.105z"/><path d="m490.901 182.887c-.812-4.062-4.764-6.695-8.825-5.884l-11.284 2.257c-.013 5.299-.55 10.523-1.571 15.611l15.796-3.159c4.062-.813 6.696-4.764 5.884-8.825z"/><path d="m511.999 200.025-47.16 9.432c-2.457 6.058-5.628 11.797-9.424 17.09.384-.016.771-.062 1.159-.14l53.82-10.764c1.032-5.09 1.582-10.316 1.605-15.618z"/><path d="m408.179 297.642c-.215 1.541-.484 3.082-.81 4.621-.062.295-.106.589-.133.882.384-1.81.7-3.645.943-5.503z"/><path d="m436.535 247.451c-.216-.516-.435-1.03-.657-1.541-4.094 2.875-8.479 5.388-13.115 7.483 1.238 2.78 3.974 4.449 6.853 4.449.963 0 1.942-.187 2.886-.581 3.823-1.595 5.628-5.987 4.033-9.81z"/><path d="m129.322 348.125c3.642-3.642 7.533-6.944 11.634-9.891h-22.956l-20.603 20.604h21.213z"/><path d="m423.47 281.166c-.82-8.79-3.104-17.344-6.77-25.325-4.739 1.692-9.702 2.96-14.854 3.755 3.762 7.315 6.04 15.305 6.735 23.549-.019-.259-.04-.517-.062-.774-.055-.648.447-1.204 1.097-1.204h13.854z"/></g></g></svg>