<svg id="Capa_1" enable-background="new 0 0 512 512" height="512" viewBox="0 0 512 512" width="512" xmlns="http://www.w3.org/2000/svg"><g><path d="m455.112 422.094v-22.193c0-8.29 1.967-16.451 5.663-23.871 2.948-5.918 5.164-12.207 6.602-18.667.396-1.779 1.734-3.174 3.466-3.74 15.639-5.118 26.936-19.828 26.936-37.178 0-13.311-6.649-25.068-16.808-32.132-2.384-1.658-2.384-5.19 0-6.848 10.158-7.064 16.807-18.821 16.807-32.132 0-13.31-6.649-25.068-16.807-32.132-2.384-1.658-2.384-5.19 0-6.848 10.158-7.064 16.807-18.821 16.807-32.132s-6.649-25.068-16.807-32.132c-2.384-1.658-2.384-5.19 0-6.848 10.158-7.064 16.807-18.821 16.807-32.131 0-18.796-13.259-34.494-30.933-38.254-2.749-.585-4.183-3.711-2.772-6.142 3.756-6.471 5.709-14.118 5.173-22.254-1.28-19.425-17.039-35.144-36.467-36.379-14.332-.911-27.137 5.902-34.654 16.677-1.676 2.402-5.211 2.451-6.884.047-7.064-10.157-18.82-16.805-32.13-16.805-13.311 0-25.068 6.649-32.132 16.807-1.658 2.384-5.19 2.384-6.848 0-7.063-10.158-18.82-16.807-32.131-16.807s-25.068 6.649-32.132 16.807c-1.658 2.384-5.19 2.384-6.848 0-7.063-10.158-18.82-16.807-32.131-16.807s-25.068 6.649-32.132 16.807c-1.658 2.384-5.19 2.384-6.848 0-7.063-10.158-18.821-16.807-32.131-16.807s-25.066 6.649-32.13 16.805c-1.672 2.404-5.208 2.355-6.883-.047-7.245-10.384-19.4-17.088-33.099-16.745-20.235.505-36.979 16.749-38.054 36.962-.457 8.599 1.865 16.633 6.149 23.284 1.446 2.245.453 5.249-2.05 6.179-14.884 5.531-25.49 19.863-25.49 36.673 0 13.31 6.649 25.068 16.807 32.131 2.384 1.658 2.384 5.19 0 6.848-10.158 7.064-16.807 18.821-16.807 32.132 0 13.31 6.649 25.067 16.807 32.132 2.384 1.658 2.384 5.19 0 6.848-10.158 7.064-16.807 18.821-16.807 32.132s6.65 25.069 16.809 32.133c2.404 1.672 2.35 5.205-.051 6.881-10.675 7.448-17.461 20.086-16.7 34.256 1.032 19.203 16.206 35.017 35.356 36.782 1.714.158 3.408.204 5.075.147 2.92-.101 5.081 2.701 4.161 5.474-1.48 4.46-2.179 9.277-1.935 14.288.988 20.25 17.714 36.589 37.981 37.136 7.549.204 14.632-1.732 20.686-5.246 2.431-1.411 5.558.022 6.142 2.772 3.76 17.675 19.458 30.933 38.254 30.933 10.107 0 19.319-3.834 26.261-10.127 8.73-7.915 21.145-9.931 32.306-6.151.489.166.983.322 1.481.468l-.014-.054c3.512 1.036 7.23 1.592 11.077 1.592 8.923 0 17.147-2.99 23.726-8.022.337-.253.794-.275 1.154-.057s.552.633.485 1.048c-.315 1.958-.477 3.95-.477 5.959 0 10.091 2.349 20.043 6.862 29.069l2.539 5.079c3.17 6.34 4.82 13.331 4.82 20.419v31.887h42.667v-31.888c0-7.088 1.65-14.079 4.82-20.419l2.539-5.079c4.513-9.025 6.862-18.978 6.862-29.069 0-7.71-2.501-15.212-7.127-21.38l-3.862-5.15c-.438-.438-.438-1.148 0-1.586 7.036-7.036 10.989-16.579 10.989-26.53v-25.236c0-21.663-17.723-39.998-39.386-39.835-8.423.063-16.211 2.791-22.565 7.382l-.001-.001-.041.031c-.332.241-57.108 42.759-57.108 42.759-1.526 1.12-2.968 2.349-4.315 3.674l-.002-.008c-.153.15-.304.301-.454.454-7.327 7.437-18.403 9.687-28.018 5.621-4.679-1.978-9.822-3.072-15.221-3.072-7.104 0-13.766 1.894-19.508 5.205-2.472 1.425-5.637.128-6.227-2.664-3.74-17.701-19.451-30.986-38.265-30.986-.493 0-.984.009-1.473.027-2.883.107-4.974-2.74-4.065-5.478 1.286-3.875 1.982-8.02 1.982-12.327 0-13.311-6.649-25.068-16.808-32.132-2.384-1.658-2.384-5.19 0-6.848 10.158-7.064 16.807-18.821 16.807-32.132 0-13.31-6.649-25.068-16.807-32.132-2.384-1.658-2.384-5.19 0-6.848 10.158-7.064 16.807-18.821 16.807-32.132s-6.649-25.068-16.807-32.132c-2.384-1.658-2.384-5.19 0-6.848 10.158-7.064 16.807-18.821 16.807-32.131 0-7.774-2.268-15.018-6.179-21.107-1.464-2.28-.468-5.291 2.071-6.238 7.514-2.803 13.934-7.851 18.445-14.327 1.667-2.393 5.2-2.418 6.865-.024 7.064 10.158 18.821 16.807 32.132 16.807s25.068-6.649 32.132-16.807c1.658-2.384 5.19-2.384 6.848 0 7.064 10.158 18.821 16.807 32.132 16.807s25.068-6.649 32.132-16.807c1.658-2.384 5.19-2.384 6.848 0 7.067 10.159 18.825 16.808 32.135 16.808 13.311 0 25.068-6.649 32.132-16.807 1.658-2.384 5.19-2.384 6.848 0 7.064 10.158 18.821 16.807 32.132 16.807 13.31 0 25.067-6.649 32.132-16.807 1.664-2.393 5.197-2.37 6.863.022 5.591 8.027 14.114 13.859 24.017 15.945 2.78.585 4.057 3.76 2.637 6.221-3.311 5.742-5.205 12.404-5.205 19.508 0 13.31 6.649 25.068 16.807 32.131 2.384 1.658 2.384 5.19 0 6.848-10.158 7.064-16.807 18.821-16.807 32.132 0 13.31 6.649 25.067 16.807 32.132 2.384 1.658 2.384 5.19 0 6.848-10.158 7.064-16.807 18.821-16.807 32.132 0 13.274 6.613 25.003 16.724 32.073 2.405 1.682 2.442 5.261.035 6.94-10.774 7.517-17.587 20.32-16.677 34.65.784 12.351 7.423 23.225 17.151 29.835 1.83 1.244 2.593 3.552 1.976 5.677-.911 3.137-2.109 6.189-3.58 9.102-5.677 11.24-8.516 23.699-8.516 36.291v21.919c0 2.465 1.98 4.473 4.445 4.508l19.428.275c2.512.034 4.57-1.995 4.57-4.51z" fill="#f37c7c"/><g fill="#ee6161"><path d="m480.97 206.354c10.158-7.064 16.807-18.821 16.807-32.132s-6.649-25.068-16.807-32.132c-2.384-1.658-2.384-5.19 0-6.848 10.158-7.064 16.807-18.821 16.807-32.131 0-18.796-13.259-34.494-30.933-38.254-2.749-.585-4.183-3.711-2.772-6.142 3.756-6.471 5.709-14.118 5.173-22.254-1.28-19.425-17.039-35.144-36.467-36.379-3.099-.197-6.126-.033-9.044.454 2.425 4.65 3.94 9.837 4.302 15.32.536 8.136-1.417 15.783-5.173 22.254-1.411 2.431.022 5.557 2.772 6.142 17.675 3.76 30.933 19.458 30.933 38.254 0 13.311-6.649 25.068-16.807 32.131-2.384 1.658-2.384 5.19 0 6.848 10.158 7.064 16.807 18.821 16.807 32.132 0 13.31-6.649 25.067-16.807 32.132-2.384 1.658-2.384 5.19 0 6.848 10.158 7.064 16.807 18.821 16.807 32.132 0 13.31-6.649 25.068-16.807 32.132-2.384 1.658-2.384 5.19 0 6.848 10.158 7.064 16.808 18.821 16.808 32.132 0 17.349-11.297 32.059-26.936 37.178-1.732.567-3.07 1.962-3.466 3.74-.077.346-.157.692-.238 1.037 2.855 4.353 6.554 8.112 10.858 11.036 1.83 1.244 2.593 3.552 1.976 5.677-.911 3.137-2.109 6.189-3.58 9.102-5.677 11.24-8.516 23.699-8.516 36.291v21.919c0 2.465 1.98 4.473 4.445 4.508l19.428.275c2.515.035 4.572-1.993 4.572-4.508v-22.193c0-8.29 1.967-16.451 5.663-23.871 2.948-5.919 5.164-12.207 6.602-18.667.396-1.779 1.734-3.174 3.466-3.74 15.639-5.118 26.936-19.829 26.936-37.178 0-13.311-6.649-25.068-16.808-32.132-2.384-1.658-2.384-5.19 0-6.848 10.158-7.064 16.807-18.821 16.807-32.132s-6.649-25.068-16.807-32.132c-2.384-1.659-2.384-5.191-.001-6.849z"/><path d="m287.725 305.829c-2.207.016-4.37.216-6.476.584 2.966 5.602 4.652 11.966 4.652 18.646v25.236c0 9.951-3.953 19.493-10.989 26.53-.438.438-.438 1.148 0 1.586l3.862 5.15c4.626 6.168 7.127 13.67 7.127 21.38 0 10.091-2.349 20.043-6.862 29.069l-2.539 5.079c-3.17 6.34-4.82 13.331-4.82 20.419v31.888h-1.458v20.604h42.667v-31.888c0-7.088 1.65-14.079 4.82-20.419l2.539-5.079c4.513-9.026 6.862-18.978 6.862-29.069 0-7.71-2.501-15.212-7.127-21.38l-3.862-5.15c-.438-.438-.438-1.148 0-1.586 7.036-7.036 10.989-16.579 10.989-26.53v-25.236c.001-21.662-17.722-39.997-39.385-39.834z"/><path d="m264.888 403.128c1.629-1.629 2.525-3.794 2.525-6.098 0-2.303-.896-4.468-2.525-6.097-5.669-5.669-8.792-13.207-8.792-21.226v-1.121c0-4.143-3.358-7.5-7.5-7.5s-7.5 3.357-7.5 7.5v1.121c0 10.007 3.243 19.515 9.23 27.324-6.11 7.978-9.385 17.787-9.249 28.302 5.061-1.331 9.721-3.65 13.76-6.74.337-.253.794-.275 1.154-.057s.552.633.485 1.048c1.01-6.272 3.919-11.964 8.412-16.456z"/></g></g></svg>