<svg id="Capa_1" enable-background="new 0 0 512.002 512.002" height="512" viewBox="0 0 512.002 512.002" width="512" xmlns="http://www.w3.org/2000/svg"><g><path d="m449.279 417.231v-21.543c0-8.047 1.909-15.969 5.497-23.172 2.862-5.745 5.013-11.849 6.408-18.12.384-1.726 1.683-3.081 3.364-3.631 15.181-4.968 26.146-19.247 26.146-36.089 0-12.921-6.455-24.333-16.315-31.19-2.314-1.609-2.314-5.038 0-6.647 9.861-6.857 16.315-18.27 16.315-31.19 0-12.921-6.455-24.333-16.315-31.19-2.314-1.609-2.314-5.038 0-6.647 9.86-6.857 16.315-18.27 16.315-31.19 0-12.921-6.455-24.333-16.315-31.19-2.314-1.609-2.314-5.038 0-6.647 9.86-6.857 16.315-18.27 16.315-31.19 0-18.245-12.87-33.484-30.027-37.133-2.669-.568-4.06-3.602-2.69-5.962 3.646-6.282 5.542-13.705 5.021-21.602-1.243-18.856-16.539-34.114-35.398-35.313-13.91-.888-26.34 5.725-33.638 16.185-1.627 2.331-5.059 2.379-6.682.045-6.857-9.859-18.269-16.313-31.189-16.313-12.921 0-24.333 6.455-31.19 16.315-1.609 2.314-5.038 2.314-6.647 0-6.857-9.86-18.27-16.315-31.19-16.315s-24.333 6.455-31.19 16.315c-1.609 2.314-5.038 2.314-6.647 0-6.857-9.86-18.27-16.315-31.19-16.315s-24.333 6.455-31.19 16.315c-1.609 2.314-5.038 2.314-6.647 0-6.857-9.86-18.27-16.315-31.19-16.315s-24.331 6.454-31.189 16.313c-1.623 2.334-5.055 2.286-6.682-.045-7.034-10.08-18.832-16.588-32.13-16.255-19.642.49-35.895 16.258-36.939 35.879-.444 8.347 1.811 16.146 5.969 22.602 1.404 2.179.44 5.095-1.99 5.998-14.448 5.369-24.743 19.281-24.743 35.599 0 12.921 6.455 24.333 16.315 31.19 2.314 1.609 2.314 5.038 0 6.647-9.86 6.857-16.315 18.27-16.315 31.19s6.455 24.333 16.315 31.19c2.314 1.609 2.314 5.038 0 6.647-9.86 6.857-16.315 18.27-16.315 31.19 0 12.921 6.455 24.335 16.317 31.192 2.334 1.623 2.281 5.053-.05 6.679-10.363 7.23-16.95 19.497-16.211 33.253 1.002 18.64 15.732 33.991 34.32 35.704 1.664.153 3.308.198 4.926.142 2.834-.098 4.932 2.622 4.039 5.313-1.437 4.33-2.115 9.005-1.878 13.87.959 19.657 17.195 35.517 36.868 36.048 7.328.198 14.204-1.682 20.08-5.092 2.36-1.37 5.395.022 5.962 2.691 3.65 17.157 18.888 30.027 37.133 30.027 9.811 0 18.753-3.722 25.491-9.831 8.474-7.683 20.526-9.64 31.359-5.971.475.161.954.313 1.438.455l-.013-.053c3.409 1.006 7.018 1.546 10.753 1.546 8.661 0 16.645-2.902 23.031-7.787.327-.245.77-.267 1.12-.055.35.211.536.614.471 1.018-.306 1.901-.463 3.835-.463 5.784 0 9.795 2.281 19.456 6.661 28.217l2.465 4.93c3.077 6.154 4.679 12.94 4.679 19.821v30.954h41.417v-30.954c0-6.881 1.602-13.667 4.679-19.821l2.465-4.93c4.381-8.761 6.661-18.422 6.661-28.217 0-7.484-2.427-14.766-6.918-20.754l-3.749-4.999c-.425-.425-.425-1.115 0-1.54 6.83-6.83 10.667-16.093 10.667-25.752v-24.496c0-21.029-17.204-38.826-38.232-38.668-8.176.061-15.736 2.709-21.904 7.165l-.001-.001-.04.03c-.322.234-55.435 41.506-55.435 41.506-1.482 1.087-2.881 2.28-4.189 3.566l-.002-.008c-.148.146-.295.293-.441.441-7.112 7.219-17.864 9.404-27.197 5.457-4.541-1.921-9.534-2.982-14.775-2.982-6.896 0-13.363 1.839-18.937 5.053-2.399 1.383-5.472.124-6.044-2.585-3.63-17.183-18.881-30.078-37.144-30.078-.479 0-.955.009-1.43.026-2.798.104-4.828-2.66-3.946-5.317 1.248-3.762 1.924-7.785 1.924-11.966 0-12.921-6.455-24.333-16.315-31.19-2.314-1.609-2.314-5.038 0-6.647 9.86-6.857 16.315-18.27 16.315-31.19 0-12.921-6.455-24.333-16.315-31.19-2.314-1.609-2.314-5.038 0-6.647 9.86-6.857 16.315-18.27 16.315-31.19 0-12.921-6.455-24.333-16.315-31.19-2.314-1.609-2.314-5.038 0-6.647 9.86-6.857 16.315-18.27 16.315-31.19 0-7.546-2.202-14.578-5.998-20.489-1.421-2.213-.454-5.136 2.01-6.055 7.294-2.721 13.526-7.621 17.905-13.908 1.618-2.323 5.048-2.347 6.664-.023 6.857 9.86 18.27 16.315 31.19 16.315 12.921 0 24.333-6.455 31.19-16.315 1.609-2.314 5.038-2.314 6.647 0 6.857 9.86 18.27 16.315 31.19 16.315s24.333-6.455 31.19-16.315c1.609-2.314 5.038-2.314 6.647 0 6.857 9.86 18.27 16.315 31.19 16.315s24.333-6.455 31.19-16.315c1.609-2.314 5.038-2.314 6.647 0 6.857 9.86 18.27 16.315 31.19 16.315s24.333-6.455 31.19-16.315c1.616-2.323 5.045-2.301 6.662.022 5.427 7.792 13.7 13.453 23.314 15.478 2.699.568 3.938 3.649 2.56 6.039-3.214 5.574-5.053 12.041-5.053 18.937 0 12.921 6.455 24.333 16.315 31.19 2.314 1.609 2.314 5.038 0 6.647-9.86 6.857-16.315 18.27-16.315 31.19s6.455 24.333 16.315 31.19c2.314 1.609 2.314 5.038 0 6.647-9.86 6.857-16.315 18.27-16.315 31.19 0 12.885 6.419 24.27 16.234 31.134 2.335 1.633 2.37 5.107.034 6.737-10.459 7.297-17.072 19.725-16.189 33.634.761 11.989 7.206 22.544 16.649 28.961 1.777 1.207 2.517 3.448 1.918 5.51-.885 3.045-2.047 6.008-3.475 8.835-5.51 10.911-8.267 23.004-8.267 35.228v21.276c0 2.393 1.922 4.342 4.314 4.376l18.859.267c2.447.031 4.444-1.938 4.444-4.379z" fill="#f37c7c"/><path d="m474.381 207.811c9.86-6.857 16.315-18.27 16.315-31.19 0-12.921-6.455-24.333-16.315-31.19-2.314-1.609-2.314-5.038 0-6.647 9.86-6.857 16.315-18.27 16.315-31.19 0-18.245-12.87-33.484-30.027-37.133-2.669-.568-4.06-3.602-2.69-5.962 3.646-6.282 5.542-13.705 5.021-21.602-1.243-18.856-16.539-34.114-35.398-35.313-3.008-.191-5.946-.032-8.779.441 2.354 4.514 3.825 9.549 4.176 14.871.521 7.898-1.376 15.321-5.021 21.602-1.37 2.36.022 5.395 2.69 5.962 17.157 3.65 30.027 18.888 30.027 37.133 0 12.921-6.455 24.333-16.315 31.19-2.314 1.609-2.314 5.038 0 6.647 9.86 6.857 16.315 18.27 16.315 31.19s-6.455 24.333-16.315 31.19c-2.314 1.609-2.314 5.038 0 6.647 9.86 6.857 16.315 18.27 16.315 31.19s-6.455 24.333-16.315 31.19c-2.314 1.609-2.314 5.038 0 6.647 9.861 6.857 16.315 18.27 16.315 31.19 0 16.841-10.966 31.12-26.146 36.089-1.681.55-2.98 1.904-3.364 3.631-.075.336-.152.671-.231 1.006 2.772 4.225 6.362 7.874 10.54 10.713 1.777 1.207 2.517 3.448 1.918 5.51-.885 3.045-2.047 6.008-3.475 8.835-5.51 10.911-8.267 23.004-8.267 35.228v21.276c0 2.393 1.922 4.342 4.315 4.376l18.859.267c2.441.034 4.438-1.935 4.438-4.376v-21.543c0-8.047 1.909-15.969 5.497-23.172 2.862-5.745 5.013-11.849 6.408-18.12.384-1.727 1.683-3.081 3.364-3.631 15.181-4.968 26.146-19.248 26.146-36.089 0-12.921-6.455-24.333-16.315-31.19-2.314-1.609-2.314-5.038 0-6.647 9.86-6.857 16.315-18.27 16.315-31.19 0-12.921-6.455-24.333-16.315-31.19-2.315-1.608-2.315-5.037-.001-6.646z" fill="#ee6161"/><path d="m286.797 304.371c-2.142.016-4.242.21-6.286.567 2.88 5.438 4.516 11.615 4.516 18.1v24.496c0 9.659-3.837 18.922-10.667 25.752-.425.425-.425 1.115 0 1.54l3.749 4.999c4.491 5.987 6.918 13.27 6.918 20.754 0 9.795-2.281 19.456-6.661 28.217l-2.465 4.93c-3.077 6.154-4.679 12.94-4.679 19.821v30.954h-1.415v20.001h41.417v-30.954c0-6.881 1.602-13.667 4.679-19.821l2.465-4.93c4.381-8.761 6.661-18.422 6.661-28.217 0-7.484-2.427-14.766-6.918-20.754l-3.749-4.999c-.425-.425-.425-1.115 0-1.54 6.83-6.83 10.667-16.093 10.667-25.752v-24.496c0-21.028-17.204-38.826-38.232-38.668z" fill="#ee6161"/><path d="m498.196 176.621c0-13.329-5.858-25.92-15.87-34.514 10.011-8.594 15.87-21.186 15.87-34.514 0-19.837-13.078-37.398-31.667-43.33 3.093-6.805 4.455-14.278 3.956-21.861-1.495-22.676-19.726-40.863-42.406-42.305-14.498-.935-28.199 4.915-37.476 15.771-8.594-10.009-21.184-15.865-34.51-15.865-13.329 0-25.92 5.859-34.514 15.87-8.593-10.012-21.185-15.87-34.514-15.87s-25.92 5.859-34.514 15.87c-8.593-10.012-21.185-15.87-34.514-15.87-13.33 0-25.921 5.858-34.514 15.87-8.593-10.012-21.185-15.87-34.514-15.87-13.327 0-25.918 5.857-34.512 15.868-8.86-10.339-21.875-16.187-35.67-15.854-1.602.039-3.225.167-4.823.38-4.106.547-6.991 4.318-6.445 8.425.546 4.105 4.314 6.995 8.424 6.444 11.022-1.465 22.312 3.202 29.005 12.797 2.116 3.032 5.632 4.979 9.54 4.979 3.766-.004 7.298-1.852 9.45-4.944 5.704-8.2 15.061-13.096 25.031-13.096 9.972 0 19.33 4.896 25.034 13.099 2.157 3.101 5.701 4.952 9.48 4.952s7.323-1.852 9.481-4.954c5.703-8.2 15.06-13.097 25.032-13.097s19.33 4.896 25.034 13.099c2.157 3.101 5.702 4.952 9.481 4.952 3.78-.001 7.323-1.853 9.48-4.953 5.703-8.201 15.061-13.098 25.033-13.098s19.33 4.896 25.034 13.099c2.157 3.101 5.702 4.952 9.481 4.952 3.779-.001 7.323-1.853 9.48-4.953 5.703-8.201 15.061-13.098 25.033-13.098 9.971 0 19.328 4.896 25.031 13.095 2.151 3.093 5.684 4.941 9.45 4.945 3.767 0 7.344-1.834 9.54-4.981 6.155-8.82 16.249-13.668 27.012-12.995 15.185.966 27.39 13.142 28.391 28.322.403 6.116-.988 12.113-4.024 17.344-1.838 3.167-2.045 7.066-.552 10.43 1.503 3.386 4.557 5.866 8.168 6.634 13.957 2.969 24.087 15.501 24.087 29.798 0 9.972-4.896 19.329-13.097 25.032-3.102 2.157-4.953 5.701-4.953 9.481 0 3.779 1.852 7.323 4.953 9.48 8.201 5.703 13.097 15.062 13.097 25.033s-4.896 19.33-13.097 25.033c-3.102 2.157-4.954 5.702-4.953 9.482 0 3.779 1.853 7.323 4.953 9.479 8.201 5.703 13.097 15.062 13.097 25.033 0 9.973-4.896 19.33-13.097 25.033-3.102 2.157-4.953 5.701-4.953 9.481 0 3.779 1.852 7.323 4.953 9.48 8.201 5.703 13.097 15.062 13.097 25.033 0 13.216-8.431 24.854-20.977 28.96-4.207 1.376-7.408 4.875-8.354 9.129-.157.704-.324 1.405-.501 2.104-1.02 4.015 1.407 8.097 5.422 9.116 3.979 1.015 8.088-1.375 9.116-5.422.094-.37.186-.742.275-1.115 18.013-6.492 30.019-23.51 30.019-42.771 0-13.329-5.858-25.92-15.87-34.514 10.011-8.594 15.87-21.186 15.87-34.515 0-13.328-5.858-25.919-15.87-34.514 10.012-8.591 15.871-21.183 15.871-34.511z"/><path d="m450.488 382.342c-4.115-.469-7.837 2.47-8.316 6.584-.26 2.236-.392 4.512-.392 6.762v18.374l-12.611-.178v-18.196c0-11.169 2.58-22.182 7.461-31.847 1.627-3.221 2.967-6.627 3.983-10.125 1.52-5.232-.452-10.78-4.905-13.806-7.79-5.293-12.791-13.978-13.378-23.231-.683-10.759 4.175-20.855 12.995-27.009 3.094-2.158 4.941-5.703 4.944-9.483.002-3.803-1.856-7.373-4.971-9.552-8.16-5.706-13.032-15.047-13.032-24.987 0-9.972 4.896-19.33 13.096-25.032 3.102-2.156 4.954-5.7 4.955-9.479 0-3.78-1.851-7.325-4.953-9.482-8.201-5.703-13.097-15.062-13.097-25.033s4.896-19.33 13.097-25.033c3.102-2.157 4.953-5.701 4.953-9.481 0-3.779-1.852-7.323-4.954-9.48-8.201-5.703-13.097-15.061-13.097-25.032 0-5.343 1.4-10.596 4.049-15.189 1.869-3.239 2.078-7.203.56-10.603-1.511-3.384-4.453-5.761-8.071-6.522-7.595-1.6-14.238-6.013-18.705-12.425-2.166-3.11-5.719-4.967-9.504-4.967-3.771 0-7.314 1.848-9.47 4.949-5.704 8.2-15.062 13.097-25.033 13.097s-19.33-4.896-25.033-13.098c-2.156-3.101-5.7-4.952-9.479-4.953-3.75-.001-7.308 1.828-9.482 4.953-5.703 8.201-15.061 13.098-25.033 13.098-9.971 0-19.329-4.896-25.033-13.099-2.157-3.101-5.701-4.952-9.48-4.952s-7.323 1.852-9.481 4.953c-5.703 8.201-15.061 13.098-25.033 13.098-9.971 0-19.329-4.896-25.033-13.099-2.157-3.101-5.701-4.952-9.48-4.952s-7.323 1.852-9.481 4.953c-5.703 8.201-15.061 13.098-25.033 13.098s-19.33-4.896-25.033-13.099c-2.154-3.097-5.692-4.946-9.465-4.947-3.796 0-7.346 1.861-9.51 4.967-3.574 5.132-8.544 8.994-14.372 11.168-6.95 2.593-9.703 10.9-5.7 17.135 3.146 4.898 4.809 10.583 4.809 16.437 0 9.972-4.896 19.329-13.097 25.032-3.102 2.156-4.954 5.701-4.954 9.48 0 3.78 1.852 7.325 4.954 9.481 8.201 5.703 13.097 15.062 13.097 25.033s-4.896 19.33-13.097 25.033c-3.102 2.157-4.954 5.702-4.953 9.482 0 3.779 1.853 7.323 4.953 9.479 8.201 5.703 13.097 15.062 13.097 25.033 0 9.973-4.896 19.33-13.097 25.033-3.102 2.156-4.954 5.701-4.954 9.48 0 3.78 1.852 7.324 4.953 9.481 8.202 5.703 13.098 15.062 13.098 25.033 0 3.288-.519 6.52-1.542 9.604-1.192 3.593-.546 7.548 1.729 10.58 2.262 3.016 5.85 4.733 9.613 4.595 14.721-.564 27.912 9.69 30.958 24.106.755 3.576 3.2 6.602 6.54 8.093 3.395 1.516 7.353 1.308 10.589-.56 8.203-4.73 18.289-5.363 27.044-1.66 12.205 5.163 26.125 2.376 35.448-7.088l.173-.172c.365-.334 1.532-1.562 3.625-3.1 18.807-14.084 54.588-40.878 55.371-41.459 5.137-3.711 11.211-5.697 17.569-5.744 7.89-.077 15.492 3.084 21.302 8.851 5.957 5.912 9.373 14.047 9.373 22.317v24.496c0 7.725-3.008 14.987-8.467 20.446-1.624 1.623-2.519 3.78-2.519 6.076 0 2.036.704 3.965 1.997 5.507l3.571 4.762c3.494 4.658 5.418 10.431 5.418 16.254 0 8.586-2.03 17.184-5.869 24.862l-2.465 4.93c-3.579 7.159-5.471 15.173-5.471 23.176v23.454h-26.417v-23.454c0-8.003-1.892-16.017-5.471-23.176l-2.465-4.93c-3.84-7.679-5.87-16.276-5.87-24.862 0-1.533.124-3.078.368-4.593.002-.015.004-.03.007-.044.979-6.027 3.778-11.494 8.093-15.809 1.624-1.623 2.519-3.78 2.519-6.076s-.895-4.453-2.516-6.073c-5.462-5.462-8.47-12.725-8.47-20.449v-1.089c0-4.143-3.358-7.5-7.5-7.5s-7.5 3.357-7.5 7.5v1.089c0 9.704 3.126 18.929 8.903 26.523-3.146 4.141-5.512 8.784-7.016 13.763-.024.018-.049.036-.073.054-5.341 4.085-11.729 6.244-18.474 6.244-3.345 0-6.948-.6-9.771-1.551-13.701-4.642-28.569-1.759-38.802 7.518-5.611 5.087-12.875 7.888-20.455 7.888-14.296 0-26.828-10.131-29.797-24.088-.769-3.613-3.249-6.667-6.635-8.169-3.363-1.492-7.262-1.286-10.427.552-4.866 2.825-10.436 4.217-16.114 4.082-15.815-.427-28.808-13.128-29.579-28.917-.187-3.821.319-7.569 1.505-11.142 1.186-3.575.546-7.51-1.711-10.525-2.274-3.039-5.892-4.771-9.704-4.645-1.317.044-2.657.007-3.98-.116-14.885-1.371-26.715-13.683-27.519-28.638-.572-10.635 4.293-20.616 13.014-26.7 3.124-2.18 4.986-5.748 4.982-9.545-.004-3.764-1.852-7.294-4.943-9.441-8.202-5.704-13.099-15.062-13.099-25.035 0-9.972 4.896-19.33 13.096-25.032 3.102-2.156 4.954-5.7 4.955-9.479 0-3.78-1.851-7.325-4.953-9.482-8.201-5.703-13.097-15.062-13.097-25.033s4.896-19.33 13.097-25.033c3.102-2.156 4.954-5.7 4.954-9.48 0-3.779-1.852-7.324-4.954-9.481-8.201-5.703-13.097-15.061-13.097-25.032 0-12.675 7.979-24.156 19.856-28.568 6.925-2.575 9.677-10.887 5.682-17.089-3.475-5.396-5.129-11.67-4.785-18.144.243-4.572 1.499-8.933 3.733-12.959 2.01-3.622.703-8.187-2.919-10.196-3.622-2.01-8.188-.704-10.197 2.919-3.348 6.034-5.231 12.574-5.596 19.439-.44 8.273 1.318 16.339 5.109 23.558-15.635 7.479-25.883 23.493-25.883 41.04 0 13.329 5.858 25.921 15.87 34.514-10.012 8.594-15.87 21.185-15.87 34.514 0 13.328 5.859 25.92 15.87 34.514-10.011 8.594-15.87 21.186-15.87 34.514 0 13.326 5.857 25.916 15.866 34.511-10.723 9.17-16.568 22.696-15.799 37.016 1.225 22.794 19.597 41.433 42.42 42.871-.875 3.953-1.216 8.013-1.016 12.121 1.151 23.577 20.547 42.544 44.156 43.18 6.94.195 13.793-1.201 20.048-4.041 5.931 18.591 23.493 31.67 43.33 31.67 11.311 0 22.153-4.182 30.529-11.774 11.137-10.1 24.578-3.998 26.532-3.674 9.323 2.537 19.563 2.084 28.831-1.622.697 9.104 3.167 18.084 7.25 26.247l2.465 4.93c2.543 5.086 3.887 10.78 3.887 16.467v30.954c0 4.143 3.358 7.5 7.5 7.5h41.417c4.142 0 7.5-3.357 7.5-7.5v-30.954c0-5.687 1.344-11.381 3.887-16.467l2.465-4.93c4.876-9.752 7.453-20.669 7.453-31.571 0-9.048-2.99-18.017-8.418-25.254l-.721-.961c5.927-7.651 9.139-16.994 9.139-26.83v-24.502c0-12.24-5.032-24.256-13.806-32.964-8.588-8.523-19.814-13.205-31.644-13.205-9.423 0-18.661 2.868-26.578 8.585-.054.039-.143.105-.199.148-2.521 1.881-35.481 26.562-55.319 41.42-1.667 1.223-3.263 2.57-4.751 4.011-.209.187-.318.302-.788.771-4.993 5.069-12.423 6.564-18.933 3.813-11.777-4.982-25.06-4.703-36.491.483-5.631-17.657-21.748-30.34-40.354-31.571.712-3.222 1.072-6.521 1.072-9.855 0-13.328-5.859-25.92-15.87-34.514 10.011-8.594 15.87-21.186 15.87-34.515 0-13.328-5.858-25.919-15.87-34.514 10.011-8.594 15.87-21.186 15.87-34.514s-5.859-25.92-15.87-34.514c10.011-8.594 15.87-21.186 15.87-34.514 0-7.389-1.779-14.602-5.175-21.081 5.733-2.731 10.799-6.615 14.934-11.446 8.593 10.01 21.184 15.867 34.511 15.867 13.329 0 25.921-5.858 34.514-15.87 8.594 10.011 21.186 15.87 34.514 15.87 13.329 0 25.921-5.858 34.514-15.87 8.594 10.011 21.186 15.87 34.514 15.87 13.329 0 25.921-5.858 34.514-15.87 8.594 10.011 21.186 15.87 34.514 15.87 13.327 0 25.917-5.857 34.512-15.867 5.515 6.442 12.663 11.182 20.719 13.736-2.664 5.873-4.057 12.29-4.057 18.791 0 13.329 5.858 25.921 15.87 34.514-10.012 8.594-15.87 21.185-15.87 34.514 0 13.328 5.859 25.92 15.87 34.514-10.011 8.594-15.87 21.186-15.87 34.514 0 13.319 5.859 25.916 15.866 34.511-10.854 9.274-16.692 22.971-15.772 37.47.837 13.201 7.647 25.606 18.332 33.561-.676 2.028-1.498 4.003-2.451 5.89-5.935 11.752-9.072 25.103-9.072 38.609v21.276c0 6.456 5.252 11.783 11.709 11.875l18.856.266c3.17.068 6.225-1.166 8.507-3.417 2.282-2.249 3.539-5.253 3.539-8.457v-21.543c0-1.674.098-3.365.292-5.029.475-4.115-2.473-7.838-6.587-8.317z"/></g></svg>