<svg id="Capa_1" enable-background="new 0 0 512 512" height="512" viewBox="0 0 512 512" width="512" xmlns="http://www.w3.org/2000/svg"><g><path d="m469.3 71.1-56.9 17.8-56.9-17.8c9.3-9.3 15.9-21 19.1-33.7l9-36.2c.2-.7.8-1.2 1.5-1.2h54.4c.7 0 1.4.5 1.5 1.2l9 36.2c3.4 12.7 10 24.4 19.3 33.7z" fill="#0966c4"/><path d="m284.3 412.4v-411.1c0-.7-.6-1.3-1.3-1.3h-41.2l-241.8 99.6v411.1c0 .7.6 1.3 1.3 1.3h41.3z" fill="#0acefa"/><path d="m469.3 214.1v-29.2l-113.8-14.4v43.6c0 .7-.4 1.2-1.1 1.4-24 6.9-41.6 29-41.6 55.2v227.7c0 7.5 6 13.5 13.5 13.5h172.1c7.5 0 13.5-6 13.5-13.5v-227.6c0-26.2-17.6-48.3-41.6-55.2-.5-.2-1-.8-1-1.5z" fill="#f0f0f3"/><path d="m470.4 215.6c-.6-.2-1.1-.8-1.1-1.4v-43.6l-38.8 14.4c2.7 6.9 7.4 12.8 13.8 16.9 15.9 10.2 26.5 28.1 26.5 48.4v181.3c0 33.1-26.8 59.9-59.9 59.9h-98v7.1c0 7.5 6 13.5 13.5 13.5h172.1c7.5 0 13.5-6 13.5-13.5v-227.8c0-26.2-17.6-48.4-41.6-55.2z" fill="#e0dde2"/><path d="m400.5 469.3h-87.6v-199.1h169.2c.8 0 1.5.7 1.5 1.5v114.6c0 45.8-37.2 83-83.1 83z" fill="#0acefa"/><path d="m483.6 386.3v-114.6c0-.8-.7-1.5-1.5-1.5h-11.3v160.3c8.1-12.8 12.8-28 12.8-44.2z" fill="#00bef7"/><path d="m482.4 71.1h-139.9c-.6 0-1.1.5-1.1 1.1v111.5c0 .6.5 1.1 1.1 1.1h139.9c.6 0 1.1-.5 1.1-1.1v-111.4c.1-.7-.5-1.2-1.1-1.2z" fill="#0074cb"/><path d="m426.7 384c0 23.6-19.1 42.7-42.7 42.7s-42.7-19.1-42.7-42.7 36.3-71.1 42.7-71.1 42.7 47.5 42.7 71.1z" fill="#c7eefb"/><path d="m283 0h-39.9v439l41.2-26.6v-411.1c0-.7-.6-1.3-1.3-1.3z" fill="#00bef7"/><path d="m142.2 142.2c55 0 99.6 56.9 99.6 56.9s-44.6 56.9-99.6 56.9-99.6-56.9-99.6-56.9 44.6-56.9 99.6-56.9z" fill="#f0f0f3"/><circle cx="142.2" cy="199.1" fill="#0074cb" r="56.9"/><circle cx="119.3" cy="176.2" fill="#f0f0f3" r="22.9"/><path d="m140.5 185c.6-.1 1.2-.1 1.7-.1 7.9 0 14.2 6.4 14.2 14.2s-6.4 14.2-14.2 14.2-14.2-6.3-14.2-14.2c0-.6 0-1.2.1-1.7 5.6-2.4 10.1-6.8 12.4-12.4z" fill="#695e66"/><path d="m240.7 327.1h-196.9c-.6 0-1.1-.5-1.1-1.1v-26.3c0-.6.5-1.1 1.1-1.1h196.9c.6 0 1.1.5 1.1 1.1v26.3c0 .6-.5 1.1-1.1 1.1z" fill="#695e66"/><path d="m0 491.4v19.3c0 .7.6 1.3 1.3 1.3h41.3l27.4-16.6c0-1.3-27.4-2.7-27.3-4z" fill="#00bef7"/><g><path d="m440.9 220.8h-56.9c-4.1 0-7.5-3.4-7.5-7.5s3.4-7.5 7.5-7.5h56.9c4.1 0 7.5 3.4 7.5 7.5s-3.4 7.5-7.5 7.5z" fill="#e0dde2"/></g><g fill="#0966c4"><path d="m369.8 163.9c-4.1 0-7.5-3.4-7.5-7.5v-56.8c0-4.1 3.4-7.5 7.5-7.5s7.5 3.4 7.5 7.5v56.9c0 4.1-3.4 7.4-7.5 7.4z"/><path d="m398.2 163.9c-4.1 0-7.5-3.4-7.5-7.5v-56.8c0-4.1 3.4-7.5 7.5-7.5s7.5 3.4 7.5 7.5v56.9c0 4.1-3.3 7.4-7.5 7.4z"/><path d="m426.7 163.9c-4.1 0-7.5-3.4-7.5-7.5v-56.8c0-4.1 3.4-7.5 7.5-7.5s7.5 3.4 7.5 7.5v56.9c0 4.1-3.4 7.4-7.5 7.4z"/><path d="m455.1 163.9c-4.1 0-7.5-3.4-7.5-7.5v-56.8c0-4.1 3.4-7.5 7.5-7.5s7.5 3.4 7.5 7.5v56.9c0 4.1-3.3 7.4-7.5 7.4z"/></g><g><path d="m199.1 363.1h-113.8c-4.1 0-7.5-3.4-7.5-7.5s3.4-7.5 7.5-7.5h113.8c4.1 0 7.5 3.4 7.5 7.5s-3.3 7.5-7.5 7.5z" fill="#f0f0f3"/></g><path d="m241.8 16.6v-16.6h-240.5c-.7 0-1.3.6-1.3 1.3v98.2h158.8c45.8.1 83-37.1 83-82.9z" fill="#f0f0f3"/><path d="m125.6 412.4c-45.8 0-82.9 37.1-82.9 82.9v16.7h240.3c.7 0 1.3-.6 1.3-1.3v-98.2h-158.7z" fill="#f0f0f3"/><path d="m243.1 412.4v5c0 40.8-33.1 73.9-73.9 73.9h-126.4c-.1 1.3-.1 2.6-.1 4v16.7h240.3c.7 0 1.3-.6 1.3-1.3v-98.2h-41.2z" fill="#e0dde2"/></g></svg>