<svg id="Capa_1" enable-background="new 0 0 512 512" height="512" viewBox="0 0 512 512" width="512" xmlns="http://www.w3.org/2000/svg"><g><g fill="#da4a54"><path d="m437.889 74.892h-5.474c-10.066 0-18.226 8.16-18.226 18.226v55.651h41.927v-55.651c-.001-10.066-8.161-18.226-18.227-18.226z"/><path d="m79.586 74.892h-5.474c-10.066 0-18.226 8.16-18.226 18.226v55.651h41.927v-55.651c-.001-10.066-8.161-18.226-18.227-18.226z"/></g><g><path d="m359.905 194.099h-207.813c-12.518 0-22.665-10.147-22.665-22.665v-97.067c0-37.303 30.349-67.652 67.652-67.652h117.839c37.303 0 67.652 30.349 67.652 67.652v97.067c0 12.517-10.147 22.665-22.665 22.665zm-185.148-45.33h162.483v-74.402c0-12.308-10.013-22.322-22.322-22.322h-117.839c-12.308 0-22.322 10.014-22.322 22.322z" fill="#da4a54"/><g fill="#c32430"><path d="m335.057 52.044h-20.138c12.309 0 22.322 10.014 22.322 22.322v74.402h20.138v-74.402c0-12.308-10.014-22.322-22.322-22.322z"/><path d="m149.565 171.434v-97.068c0-37.303 30.349-67.652 67.652-67.652h-20.138c-37.303 0-67.652 30.349-67.652 67.652v97.067c0 12.518 10.147 22.665 22.665 22.665h20.138c-12.518.001-22.665-10.147-22.665-22.664z"/></g></g><path d="m430.166 119.619h-348.332c-45.196 0-81.834 36.638-81.834 81.833v221.995c0 45.195 36.638 81.834 81.834 81.834h348.333c45.195 0 81.834-36.638 81.834-81.834v-221.995c-.001-45.195-36.639-81.833-81.835-81.833z" fill="#f9f6f9"/><path d="m111.429 505.286h-29.598c-45.196 0-81.831-36.645-81.831-81.831v-222.003c0-45.196 36.635-81.831 81.831-81.831h29.598c-45.196 0-81.841 36.635-81.841 81.831v222.003c0 45.186 36.645 81.831 81.841 81.831z" fill="#dfeaef"/><path d="m370.121 261.662h-63.334v-63.334c0-11.448-9.281-20.729-20.729-20.729h-60.116c-11.448 0-20.729 9.281-20.729 20.729v63.334h-63.334c-11.448 0-20.729 9.281-20.729 20.729v60.116c0 11.448 9.281 20.729 20.729 20.729h63.334v63.334c0 11.448 9.281 20.729 20.729 20.729h60.116c11.448 0 20.729-9.281 20.729-20.729v-63.334h63.334c11.448 0 20.729-9.281 20.729-20.729v-60.116c0-11.448-9.281-20.729-20.729-20.729z" fill="#da4a54"/></g></svg>