<svg id="Capa_1" enable-background="new 0 0 511.98 511.98" height="512" viewBox="0 0 511.98 511.98" width="512" xmlns="http://www.w3.org/2000/svg"><g><g><g fill="#da4a54"><path d="m432.543 80.196h-5.314c-9.771 0-17.692 7.921-17.692 17.692v54.018h40.697v-54.018c0-9.771-7.92-17.692-17.691-17.692z"/><path d="m84.751 80.196h-5.314c-9.771 0-17.692 7.921-17.692 17.692v54.018h40.697v-54.018c.001-9.771-7.92-17.692-17.691-17.692z"/></g><g><path d="m356.847 195.906h-201.717c-12.15 0-22-9.85-22-22v-94.22c0-36.209 29.458-65.667 65.667-65.667h114.383c36.209 0 65.667 29.458 65.667 65.667v94.22c0 12.151-9.849 22-22 22zm-179.717-44h157.717v-72.22c0-11.947-9.72-21.667-21.667-21.667h-114.382c-11.947 0-21.667 9.72-21.667 21.667v72.22z" fill="#da4a54"/><g fill="#c32430"><path d="m332.728 58.019h-19.548c11.948 0 21.667 9.72 21.667 21.667v72.22h19.547v-72.22c.001-11.947-9.719-21.667-21.666-21.667z"/><path d="m152.678 173.906v-94.22c0-36.209 29.458-65.667 65.667-65.667h-19.547c-36.209 0-65.667 29.458-65.667 65.667v94.22c0 12.15 9.85 22 22 22h19.547c-12.151 0-22-9.849-22-22z"/></g></g><path d="m425.047 123.611h-338.114c-43.87 0-79.433 35.563-79.433 79.433v215.482c0 43.87 35.563 79.433 79.433 79.433h338.114c43.87 0 79.433-35.563 79.433-79.433v-215.482c0-43.869-35.563-79.433-79.433-79.433z" fill="#f9f6f9"/><path d="m115.66 497.964h-28.73c-43.87 0-79.43-35.57-79.43-79.43v-215.49c0-43.87 35.56-79.43 79.43-79.43h28.73c-43.87 0-79.44 35.56-79.44 79.43v215.49c0 43.86 35.57 79.43 79.44 79.43z" fill="#dfeaef"/><path d="m366.763 261.488h-61.476v-61.476c0-11.113-9.009-20.121-20.121-20.121h-58.353c-11.113 0-20.121 9.009-20.121 20.121v61.476h-61.476c-11.113 0-20.121 9.009-20.121 20.121v58.353c0 11.113 9.009 20.121 20.121 20.121h61.476v61.476c0 11.113 9.009 20.121 20.121 20.121h58.353c11.113 0 20.121-9.009 20.121-20.121v-61.476h61.476c11.113 0 20.121-9.009 20.121-20.121v-58.353c0-11.112-9.008-20.121-20.121-20.121z" fill="#da4a54"/></g><g><path d="m457.73 122.494v-24.608c0-13.89-11.3-25.19-25.19-25.19h-5.31c-13.89 0-25.19 11.3-25.19 25.19v18.225h-15.69v-36.42c0-40.346-32.824-73.17-73.17-73.17h-13.47c-4.142 0-7.5 3.358-7.5 7.5s3.358 7.5 7.5 7.5h13.47c32.075 0 58.17 26.095 58.17 58.17v36.42h-29v-36.425c0-16.084-13.086-29.17-29.17-29.17h-114.38c-16.084 0-29.17 13.085-29.17 29.17v36.425h-29v-36.42c0-32.075 26.095-58.17 58.17-58.17h70.91c4.142 0 7.5-3.358 7.5-7.5s-3.358-7.5-7.5-7.5h-70.91c-40.346 0-73.17 32.824-73.17 73.17v36.42h-15.69v-18.225c0-13.89-11.3-25.19-25.19-25.19h-5.31c-13.89 0-25.19 11.3-25.19 25.19v24.607c-31.784 12.945-54.25 44.171-54.25 80.551v215.482c0 47.935 38.998 86.933 86.933 86.933h338.114c47.935 0 86.933-38.998 86.933-86.933v-215.482c0-36.38-22.466-67.606-54.25-80.55zm-40.69-24.608c0-5.619 4.571-10.19 10.19-10.19h5.31c5.619 0 10.19 4.571 10.19 10.19v20.034c-5.711-1.185-11.626-1.81-17.683-1.81h-8.007zm-232.41-18.2c0-7.813 6.356-14.17 14.17-14.17h114.38c7.813 0 14.17 6.356 14.17 14.17v36.425h-142.72zm-115.38 18.2c0-5.619 4.571-10.19 10.19-10.19h5.31c5.619 0 10.19 4.571 10.19 10.19v18.225h-8.007c-6.058 0-11.972.625-17.683 1.81zm427.73 320.641c0 39.664-32.269 71.933-71.933 71.933h-338.114c-39.664 0-71.933-32.269-71.933-71.933v-215.483c0-39.664 32.269-71.933 71.933-71.933h338.114c39.664 0 71.933 32.269 71.933 71.933z"/><path d="m366.76 253.99h-53.97v-53.98c0-15.23-12.39-27.62-27.62-27.62h-58.36c-15.229 0-27.62 12.39-27.62 27.62v53.98h-53.97c-15.23 0-27.62 12.39-27.62 27.62v58.35c0 15.229 12.39 27.62 27.62 27.62h15.52c4.142 0 7.5-3.358 7.5-7.5s-3.358-7.5-7.5-7.5h-15.52c-6.959 0-12.62-5.661-12.62-12.62v-58.35c0-6.959 5.661-12.62 12.62-12.62h61.47c4.142 0 7.5-3.358 7.5-7.5v-61.48c0-6.959 5.661-12.62 12.62-12.62h58.36c6.958 0 12.62 5.661 12.62 12.62v61.48c0 4.142 3.358 7.5 7.5 7.5h61.47c6.959 0 12.62 5.661 12.62 12.62v58.35c0 6.958-5.661 12.62-12.62 12.62h-61.47c-4.142 0-7.5 3.358-7.5 7.5v61.48c0 6.959-5.661 12.62-12.62 12.62h-58.36c-6.958 0-12.62-5.661-12.62-12.62v-61.48c0-4.142-3.358-7.5-7.5-7.5h-15.95c-4.142 0-7.5 3.358-7.5 7.5s3.358 7.5 7.5 7.5h8.45v53.98c0 15.23 12.39 27.62 27.62 27.62h58.36c15.229 0 27.62-12.39 27.62-27.62v-53.98h53.97c15.23 0 27.62-12.39 27.62-27.62v-58.35c0-15.229-12.39-27.62-27.62-27.62z"/></g></g></svg>