<svg id="Capa_1" enable-background="new 0 0 512 512" height="512" viewBox="0 0 512 512" width="512" xmlns="http://www.w3.org/2000/svg"><g><g><path d="m140.947 264.689v-120.745c-1.775-7.906-2.706-16.092-2.706-24.477 0-41.303 22.615-77.787 57.165-99.719 5.631-3.574 13.158-3.574 18.789 0 34.551 21.932 57.165 58.416 57.165 99.719 0 8.386-.932 16.574-2.707 24.481v120.741z" fill="#95f720"/><path d="m245.844 116.011c-1.908-3.816-6.549-5.363-10.366-3.455l-22.952 11.476v-66.004c0-4.267-3.459-7.726-7.726-7.726s-7.726 3.459-7.726 7.726v31.872l-22.952-11.476c-3.816-1.908-8.458-.362-10.366 3.455s-.362 8.458 3.455 10.366l29.862 14.932v148.826c0 4.268 3.459 7.726 7.726 7.726s7.726-3.459 7.726-7.726v-114.695l29.862-14.931c3.819-1.908 5.366-6.549 3.457-10.366z" fill="#0fd827"/><path d="m214.195 19.748c-5.631-3.574-13.158-3.574-18.789 0-.776.493-1.539 1.001-2.303 1.509 33.245 22.074 54.862 57.835 54.862 98.21 0 8.386-.932 16.574-2.708 24.481v120.741h23.396v-120.741c1.775-7.907 2.707-16.095 2.707-24.481 0-41.303-22.614-77.787-57.165-99.719z" fill="#69eb00"/></g><g><path d="m205.915 264.689v-8.688c-4.559-32.735 4.84-65.893 28.65-89.702 26.13-26.13 63.517-34.904 99.249-26.921 5.824 1.301 10.586 6.063 11.887 11.887 7.983 35.732-.791 73.12-26.921 99.249-1.923 1.923-3.908 3.753-5.948 5.488v8.687z" fill="#95f720"/><path d="m345.701 151.265c-1.301-5.824-6.063-10.586-11.887-11.887-12.416-2.774-25.032-3.519-37.306-2.221 4.546.472 9.092 1.212 13.612 2.221 5.824 1.301 10.586 6.063 11.887 11.887 7.983 35.732-.791 73.12-26.921 99.249-1.923 1.923-3.908 3.753-5.948 5.488v8.687h23.694v-8.687c2.04-1.735 4.025-3.565 5.948-5.488 26.13-26.13 34.904-63.517 26.921-99.249z" fill="#69eb00"/><path d="m203.686 264.689v-8.689c4.559-32.735-4.841-65.892-28.65-89.702-26.13-26.13-63.517-34.904-99.249-26.921-5.824 1.301-10.586 6.063-11.887 11.887-7.983 35.732.791 73.12 26.921 99.249 1.923 1.923 3.908 3.753 5.948 5.488v8.687z" fill="#95f720"/><path d="m322.816 205.652-24.344-8.114 22.537-22.537c3.018-3.018 3.018-7.909 0-10.928-3.017-3.016-7.909-3.016-10.927 0l-46.673 46.673-8.114-24.344c-1.35-4.047-5.726-6.234-9.773-4.886-4.048 1.349-6.236 5.725-4.887 9.774l10.558 31.673-27.573 27.573c-3.018 3.018-3.018 7.909 0 10.928 1.509 1.508 3.486 2.263 5.463 2.263s3.955-.755 5.463-2.263l51.709-51.709 31.674 10.558c.811.271 1.634.398 2.444.398 3.235 0 6.25-2.047 7.329-5.285 1.35-4.049-.838-8.425-4.886-9.774z" fill="#0fd827"/><path d="m175.036 166.299c-22.825-22.825-54.239-32.404-85.637-29.142 23.049 2.437 44.893 12.092 61.943 29.142 23.81 23.81 33.209 56.967 28.65 89.702v8.688h-83.223 106.917v-8.689c4.559-32.735-4.841-65.892-28.65-89.701z" fill="#69eb00"/><path d="m185.964 250.532-27.569-27.569 10.558-31.673c1.349-4.048-.838-8.424-4.887-9.774-4.048-1.351-8.424.838-9.773 4.886l-8.115 24.344-46.673-46.673c-3.017-3.016-7.909-3.016-10.926 0-3.018 3.018-3.018 7.909 0 10.928l22.536 22.537-24.343 8.114c-4.048 1.349-6.236 5.725-4.887 9.774 1.079 3.238 4.094 5.285 7.329 5.285.81 0 1.634-.129 2.444-.398l31.674-10.558 51.705 51.705c1.508 1.508 3.486 2.263 5.463 2.263s3.955-.755 5.463-2.263c3.019-3.018 3.019-7.91.001-10.928z" fill="#0fd827"/></g><g><path d="m475.574 174.633c8.163 4.713 18.601 1.916 23.314-6.247l8.533-14.78c9.426-16.326 3.832-37.201-12.494-46.627-5.386-3.11-24.174-13.957-29.56-17.067-16.326-9.426-37.201-3.832-46.627 12.494l-8.533 14.78c-4.713 8.163-1.916 18.601 6.247 23.314l21.027 31.847z" fill="#cdcdd4"/><path d="m494.928 106.979c-5.386-3.11-24.174-13.957-29.56-17.067-9.149-5.282-19.726-5.845-28.917-2.448 1.777.66 3.526 1.468 5.223 2.448 5.386 3.11 24.174 13.957 29.56 17.067 16.326 9.426 21.919 30.301 12.494 46.627l-8.533 14.78c-1.432 2.479-3.396 4.455-5.659 5.884l6.04.363c8.163 4.713 18.601 1.916 23.314-6.247l8.533-14.78c9.424-16.326 3.83-37.201-12.495-46.627z" fill="#babac0"/><path d="m458.508 204.193c-9.629 16.678-18.08 33.99-25.297 51.807v6.696h-99.647v-6.696l4.634-4.792c23.637-24.446 61.189-81.148 61.189-81.148l38.094 2.286z" fill="#cdcdd4"/><path d="m446.397 185.851-11.583 18.343c-9.629 16.678-18.08 33.99-25.297 51.807v6.696h23.694v-6.697c7.217-17.817 15.667-35.128 25.297-51.807z" fill="#babac0"/><path d="m507.421 153.606c1.329-2.302 2.349-4.697 3.093-7.136l-58.35-33.688c-3.697-2.133-8.421-.868-10.554 2.828-2.134 3.695-.867 8.42 2.828 10.554l59.12 34.133z" fill="#babac0"/><path d="m399.387 170.06c-8.163-4.713-10.96-15.151-6.247-23.313 4.713-8.163 15.151-10.96 23.314-6.247l59.12 34.133c8.163 4.713 10.96 15.151 6.247 23.314s-15.15 10.96-23.313 6.247z" fill="#f9f8f9"/><path d="m475.574 174.633-59.12-34.133c-6.585-3.802-14.647-2.711-19.993 2.137l55.42 31.997c8.163 4.713 10.96 15.151 6.247 23.314-.911 1.577-2.039 2.949-3.32 4.11l3.701 2.137c8.163 4.713 18.6 1.916 23.313-6.247 4.712-8.164 1.915-18.602-6.248-23.315z" fill="#dbecf3"/></g><g><path d="m384.534 494.933h-222.987c-4.418 0-8-3.582-8-8v-38.976h238.987v38.976c0 4.418-3.582 8-8 8z" fill="#c0deeb"/><path d="m368.84 447.957v38.735c0 4.552-3.69 8.241-8.242 8.241h23.694c4.552 0 8.241-3.69 8.241-8.241v-38.735z" fill="#a2cde0"/><path d="m460.8 256h-388.557c-1.362 0-2.713.169-4.028.488l-.001-.003v.003c-1.242.302-2.452.737-3.604 1.313l-62.246 31.124c-1.505.752-2.428 2.321-2.361 4.002 1.413 35.097 29.323 63.371 64.268 65.361 2.203.125 3.942 1.91 3.942 4.116v13.063c0 47.128 38.205 85.333 85.333 85.333h238.987c47.128 0 85.333-38.205 85.333-85.333v-102.4c.001-9.426-7.64-17.067-17.066-17.067z" fill="#f9f8f9"/><g fill="#dbecf3"><path d="m460.8 256h-23.694c9.426 0 17.067 7.641 17.067 17.067v102.4c0 47.128-38.205 85.333-85.333 85.333h23.694c47.128 0 85.333-38.205 85.333-85.333v-102.4c0-9.426-7.641-17.067-17.067-17.067z"/><path d="m477.867 297.86v-15.453h-409.653c-4.267 0-7.726 3.459-7.726 7.726 0 4.268 3.459 7.726 7.726 7.726h409.653z"/><path d="m68.215 256.488-.001-.003v.003c-1.242.302-2.452.737-3.604 1.313l-4.123 2.061v98.093c1.252.141 2.512.259 3.784.331 2.203.125 3.942 1.91 3.942 4.116v13.063c0 12.661 2.779 24.667 7.726 35.472v-154.937h-3.697c-1.361 0-2.712.169-4.027.488z"/></g></g><path d="m315.734 358.4h-21.334c-2.356 0-4.267-1.91-4.267-4.267v-21.333c0-4.713-3.821-8.533-8.533-8.533h-17.067c-4.713 0-8.533 3.82-8.533 8.533v21.333c0 2.356-1.91 4.267-4.267 4.267h-21.333c-4.713 0-8.533 3.82-8.533 8.533v17.067c0 4.713 3.82 8.533 8.533 8.533h21.333c2.356 0 4.267 1.91 4.267 4.267v21.333c0 4.713 3.82 8.533 8.533 8.533h17.067c4.713 0 8.533-3.821 8.533-8.533v-21.333c0-2.356 1.91-4.267 4.267-4.267h21.333c4.713 0 8.533-3.82 8.533-8.533v-17.067c.001-4.713-3.819-8.533-8.532-8.533z" fill="#fd4b00"/><path d="m315.734 358.4h-21.334c-2.356 0-4.267-1.91-4.267-4.267v-21.333c0-4.713-3.821-8.533-8.533-8.533h-17.067c-1.216 0-2.37.258-3.417.716 3.011 1.318 5.117 4.32 5.117 7.817v21.333c0 2.356 1.91 4.267 4.267 4.267h21.333c4.713 0 8.533 3.821 8.533 8.533v17.067c0 4.713-3.821 8.533-8.533 8.533h-21.333c-2.356 0-4.267 1.91-4.267 4.267v21.333c0 3.497-2.106 6.499-5.117 7.817 1.047.458 2.201.716 3.417.716h17.067c4.713 0 8.533-3.821 8.533-8.533v-21.333c0-2.356 1.91-4.267 4.267-4.267h21.333c4.713 0 8.533-3.821 8.533-8.533v-17.067c.001-4.713-3.819-8.533-8.532-8.533z" fill="#f52500"/></g></svg>