<svg id="Capa_1" enable-background="new 0 0 512.012 512.012" height="512" viewBox="0 0 512.012 512.012" width="512" xmlns="http://www.w3.org/2000/svg"><g><g><g><path d="m144.317 264.426v-117.208c-1.723-7.674-2.627-15.621-2.627-23.76 0-40.093 21.952-75.508 55.49-96.798 5.466-3.47 12.773-3.47 18.239 0 33.538 21.289 55.491 56.704 55.491 96.798 0 8.14-.905 16.088-2.628 23.764v117.203h-123.965z" fill="#95f720"/><path d="m215.419 26.66c-5.466-3.47-12.773-3.47-18.239 0-.753.478-1.494.972-2.236 1.464 32.271 21.427 53.255 56.141 53.255 95.333 0 8.14-.905 16.088-2.628 23.764v117.203h22.71v-117.202c1.723-7.676 2.628-15.624 2.628-23.764.001-40.093-21.951-75.508-55.49-96.798z" fill="#69eb00"/></g><g><path d="m207.382 264.426v-8.433c-4.425-31.776 4.699-63.962 27.811-87.075 25.364-25.364 61.656-33.881 96.342-26.132 5.653 1.263 10.276 5.885 11.539 11.538 7.749 34.686-.768 70.978-26.132 96.342-1.867 1.867-3.793 3.643-5.774 5.327v8.432h-103.786z" fill="#95f720"/><path d="m343.073 154.324c-1.263-5.653-5.885-10.276-11.539-11.538-12.053-2.693-24.298-3.416-36.213-2.156 4.413.458 8.826 1.176 13.213 2.156 5.653 1.263 10.276 5.885 11.539 11.538 7.749 34.686-.768 70.978-26.132 96.342-1.867 1.867-3.793 3.643-5.774 5.327v8.432h23v-8.432c1.98-1.685 3.907-3.46 5.774-5.327 25.364-25.364 33.881-61.656 26.132-96.342z" fill="#69eb00"/><path d="m205.218 264.425v-8.434c4.425-31.776-4.699-63.962-27.811-87.074-25.364-25.364-61.656-33.881-96.342-26.132-5.653 1.263-10.276 5.885-11.538 11.538-7.749 34.686.768 70.978 26.132 96.342 1.867 1.867 3.793 3.643 5.774 5.327v8.432z" fill="#95f720"/><path d="m177.407 168.918c-22.156-22.156-52.65-31.455-83.128-28.288 22.374 2.366 43.578 11.738 60.128 28.288 23.112 23.112 32.236 55.298 27.811 87.074v8.434h-80.785 103.785v-8.434c4.425-31.777-4.699-63.962-27.811-87.074z" fill="#69eb00"/></g><g><path d="m469.142 177.008c7.924 4.575 18.056 1.86 22.63-6.064l8.283-14.347c9.15-15.847 3.72-36.111-12.128-45.261-5.228-3.019-23.466-13.548-28.694-16.567-15.847-9.149-36.111-3.72-45.261 12.128l-8.283 14.347c-4.575 7.924-1.86 18.056 6.064 22.63l20.411 30.914z" fill="#cdcdd4"/><path d="m487.928 111.336c-5.228-3.019-23.466-13.548-28.694-16.567-8.881-5.127-19.148-5.674-28.07-2.376 1.725.641 3.422 1.425 5.07 2.376 5.228 3.019 23.466 13.548 28.694 16.567 15.847 9.15 21.277 29.414 12.128 45.261l-8.283 14.347c-1.389 2.407-3.296 4.325-5.493 5.712l5.863.352c7.924 4.575 18.056 1.86 22.63-6.064l8.283-14.347c9.149-15.848 3.719-36.112-12.128-45.261z" fill="#babac0"/><path d="m452.575 205.702c-9.347 16.19-17.55 32.994-24.556 50.289v6.5h-96.728v-6.5l4.498-4.652c22.945-23.73 59.397-78.771 59.397-78.771l36.978 2.219z" fill="#cdcdd4"/><path d="m440.819 187.897-11.244 17.805c-9.347 16.19-17.55 32.994-24.556 50.289v6.5h23v-6.5c7.006-17.295 15.208-34.099 24.556-50.289z" fill="#babac0"/><path d="m395.186 172.569c-7.924-4.575-10.639-14.707-6.064-22.63 4.575-7.924 14.707-10.639 22.63-6.064l57.389 33.133c7.924 4.575 10.639 14.707 6.064 22.631s-14.707 10.639-22.63 6.064z" fill="#f9f8f9"/><path d="m469.142 177.008-57.389-33.133c-6.392-3.691-14.218-2.632-19.408 2.074l53.796 31.059c7.924 4.575 10.639 14.707 6.064 22.631-.884 1.531-1.98 2.863-3.223 3.99l3.592 2.074c7.924 4.575 18.056 1.86 22.63-6.064 4.576-7.924 1.861-18.056-6.062-22.631z" fill="#dbecf3"/></g><g><path d="m380.533 487.925h-215.985c-4.418 0-8-3.582-8-8v-37.6h231.986v37.6c-.001 4.418-3.582 8-8.001 8z" fill="#c0deeb"/><path d="m365.533 442.325v37.6c0 4.418-3.582 8-8 8h23c4.418 0 8-3.582 8-8v-37.6z" fill="#a2cde0"/><path d="m454.8 255.991h-377.175c-1.322 0-2.633.164-3.91.474l-.001-.003v.003c-1.206.293-2.381.716-3.498 1.275l-60.422 30.212c-1.461.73-2.357 2.253-2.292 3.885 1.371 34.069 28.464 61.515 62.385 63.446 2.138.122 3.827 1.854 3.827 3.995v12.68c0 45.748 37.086 82.833 82.833 82.833h231.985c45.748 0 82.833-37.086 82.833-82.833v-99.4c.002-9.15-7.415-16.567-16.565-16.567z" fill="#f9f8f9"/><path d="m454.8 255.991h-23c9.15 0 16.567 7.417 16.567 16.567v99.4c0 45.748-37.086 82.833-82.833 82.833h23c45.748 0 82.833-37.086 82.833-82.833v-99.4c0-9.15-7.417-16.567-16.567-16.567z" fill="#dbecf3"/></g><path d="m313.983 355.391h-20.708c-2.287 0-4.142-1.854-4.142-4.142v-20.708c0-4.575-3.708-8.283-8.283-8.283h-16.567c-4.575 0-8.283 3.708-8.283 8.283v20.708c0 2.287-1.854 4.142-4.142 4.142h-20.708c-4.575 0-8.283 3.709-8.283 8.283v16.567c0 4.575 3.709 8.283 8.283 8.283h20.708c2.287 0 4.142 1.854 4.142 4.142v20.708c0 4.575 3.709 8.283 8.283 8.283h16.567c4.575 0 8.283-3.709 8.283-8.283v-20.708c0-2.287 1.854-4.142 4.142-4.142h20.708c4.575 0 8.283-3.708 8.283-8.283v-16.567c.001-4.574-3.708-8.283-8.283-8.283z" fill="#fd4b00"/><path d="m313.983 355.391h-20.708c-2.287 0-4.142-1.854-4.142-4.142v-20.708c0-4.575-3.709-8.283-8.283-8.283h-16.567c-1.18 0-2.3.251-3.316.695 2.923 1.28 4.967 4.193 4.967 7.588v20.708c0 2.287 1.854 4.142 4.142 4.142h20.708c4.575 0 8.283 3.709 8.283 8.283v16.567c0 4.575-3.709 8.283-8.283 8.283h-20.708c-2.287 0-4.142 1.854-4.142 4.142v20.708c0 3.395-2.044 6.309-4.967 7.588 1.016.445 2.136.695 3.316.695h16.567c4.575 0 8.283-3.709 8.283-8.283v-20.708c0-2.287 1.854-4.142 4.142-4.142h20.708c4.575 0 8.283-3.709 8.283-8.283v-16.567c.001-4.574-3.708-8.283-8.283-8.283z" fill="#f52500"/></g><g><path d="m313.983 347.892h-17.35v-17.351c0-8.703-7.081-15.783-15.784-15.783h-16.566c-8.703 0-15.783 7.08-15.783 15.783v17.351h-17.35c-8.703 0-15.783 7.08-15.783 15.783v16.566c0 8.703 7.08 15.783 15.783 15.783h17.35v17.351c0 8.703 7.08 15.783 15.783 15.783h16.566c8.703 0 15.784-7.08 15.784-15.783v-17.351h17.35c8.703 0 15.783-7.08 15.783-15.783v-16.566c.001-8.703-7.08-15.783-15.783-15.783zm.784 32.349c0 .432-.352.783-.783.783h-20.708c-6.419 0-11.642 5.223-11.642 11.642v20.709c0 .432-.352.783-.784.783h-16.566c-.432 0-.783-.352-.783-.783v-20.709c0-6.419-5.223-11.642-11.642-11.642h-20.709c-.432 0-.783-.352-.783-.783v-16.566c0-.432.352-.783.783-.783h20.708c6.419 0 11.642-5.223 11.642-11.642v-20.709c0-.432.352-.783.783-.783h16.566c.433 0 .784.352.784.783v20.709c0 6.419 5.223 11.642 11.642 11.642h20.708c.432 0 .783.352.783.783v16.566z"/><path d="m510.61 129.514c-2.81-10.484-9.533-19.246-18.933-24.673l-28.694-16.566c-9.398-5.427-20.35-6.87-30.833-4.06-10.483 2.809-19.246 9.532-24.673 18.932l-8.283 14.348c-3.112 5.39-4.004 11.64-2.548 17.667-5.712 1.689-10.813 5.475-14.019 11.028-5.316 9.209-3.83 20.503 2.88 28.043-14.96 24.986-32.676 48.29-52.735 69.401 18.361-25.239 24.949-58.145 17.621-90.943-1.91-8.553-8.671-15.313-17.224-17.224-18.953-4.234-37.942-3.815-55.47.828.472-4.258.711-8.547.711-12.836 0-41.137-22.046-79.689-58.971-103.13-7.858-4.987-18.419-4.989-26.278 0-7.839 4.976-15.135 10.725-21.686 17.086-2.971 2.886-3.041 7.634-.155 10.605 2.887 2.973 7.635 3.042 10.605.156 5.816-5.649 12.301-10.757 19.275-15.184 3.004-1.906 7.198-1.905 10.2 0 32.567 20.673 52.01 54.492 52.01 90.466 0 6.188-.577 12.371-1.7 18.434-11.78 5.192-22.574 12.476-31.82 21.722-6.28 6.28-11.653 13.258-16.09 20.768v-39.722l28.987-14.493c3.705-1.853 5.207-6.357 3.354-10.063-1.852-3.704-6.357-5.206-10.062-3.354l-22.279 11.14v-64.072c0-4.142-3.358-7.5-7.5-7.5s-7.5 3.358-7.5 7.5v30.938l-22.279-11.14c-3.704-1.853-8.21-.352-10.062 3.354-1.852 3.705-.351 8.21 3.354 10.062l28.987 14.494v72.854c-4.436-7.509-9.81-14.488-16.089-20.767-9.247-9.247-20.041-16.531-31.821-21.723-1.123-6.062-1.7-12.244-1.7-18.432 0-18.602 5.203-36.99 15.045-53.177 2.152-3.539 1.028-8.152-2.512-10.305-3.54-2.151-8.153-1.028-10.305 2.512-11.271 18.536-17.229 39.619-17.229 60.97 0 4.289.238 8.577.711 12.834-17.527-4.644-36.516-5.062-55.471-.826-8.551 1.91-15.312 8.671-17.223 17.223-7.807 34.947.174 70.019 21.371 95.803h-5.953c-3.717 0-7.439.879-10.763 2.541l-60.421 30.21c-4.094 2.047-6.618 6.337-6.431 10.931 1.512 37.127 29.987 66.719 66.205 70.342v9.443c0 47.284 36.519 86.194 82.834 90.019v17.948c0 8.547 6.953 15.5 15.5 15.5h19.323c4.142 0 7.5-3.357 7.5-7.5s-3.358-7.5-7.5-7.5h-19.323c-.276 0-.5-.225-.5-.5v-17.634h216.985v17.634c0 .275-.225.5-.5.5h-166.662c-4.142 0-7.5 3.357-7.5 7.5s3.358 7.5 7.5 7.5h166.662c8.547 0 15.5-6.953 15.5-15.5v-17.948c46.314-3.825 82.833-42.735 82.833-90.019v-99.4c0-13.27-10.796-24.066-24.066-24.066h-15.463c5.016-11.436 10.581-22.678 16.642-33.574 1.605.331 3.226.5 4.84.5 8.323-.001 16.43-4.317 20.882-12.028 3.113-5.392 4.005-11.644 2.547-17.674 5.711-1.688 10.814-5.468 14.021-11.02l8.283-14.348c5.425-9.402 6.867-20.352 4.058-30.835zm-270.114 44.707c22.565-22.565 55.986-31.579 89.403-24.116 2.817.63 5.225 3.037 5.854 5.855 7.465 33.416-1.55 66.837-24.116 89.402-1.071 1.072-2.184 2.111-3.311 3.13h-60.349l37.392-37.391 30.745 10.249c.787.262 1.587.387 2.373.387 3.14 0 6.066-1.987 7.114-5.13 1.31-3.93-.814-8.178-4.743-9.487l-23.63-7.877 21.876-21.876c2.929-2.93 2.929-7.678 0-10.607-2.929-2.927-7.677-2.929-10.607 0l-45.305 45.305-7.877-23.631c-1.31-3.93-5.559-6.05-9.487-4.743-3.93 1.31-6.053 5.558-4.744 9.487l10.248 30.745-24.569 24.569h-12.647c-.194-2.503-.301-4.994-.315-7.468.002-.31.002-.62.001-.929.084-25.194 9.448-48.628 26.694-65.874zm-139.534 71.14c-22.566-22.564-31.581-55.986-24.116-89.401.63-2.818 3.037-5.226 5.854-5.855 33.417-7.466 66.837 1.55 89.403 24.116 17.246 17.247 26.61 40.681 26.694 65.873-.001.31 0 .619.001.93-.014 2.474-.121 4.965-.315 7.468h-12.661l-24.569-24.569 10.248-30.746c1.31-3.93-.814-8.178-4.744-9.487-3.929-1.311-8.177.814-9.487 4.743l-7.877 23.631-45.305-45.306c-2.928-2.928-7.677-2.928-10.606 0-2.929 2.93-2.929 7.678 0 10.607l21.876 21.876-23.63 7.877c-3.93 1.309-6.053 5.558-4.744 9.487 1.048 3.143 3.974 5.13 7.114 5.13.786 0 1.586-.125 2.372-.387l30.745-10.249 37.391 37.391h-60.336c-1.123-1.017-2.236-2.056-3.308-3.129zm-85.842 48.312 51.094-25.547v79.28c-27.436-3.464-48.963-25.675-51.094-53.733zm373.413 153.618h-231.985c-41.539 0-75.334-33.794-75.334-75.333v-75.333h382.652v75.333c0 41.539-33.794 75.333-75.333 75.333zm75.333-174.733v9.067h-382.652v-18.134h373.586c4.999 0 9.066 4.068 9.066 9.067zm-115.11-24.067c18.505-20.202 34.978-42.242 49.11-65.716l44.527 25.708c-7.163 12.951-13.653 26.363-19.379 40.008zm119.954-52.602c-2.501 4.329-8.057 5.818-12.385 3.318l-57.389-33.134c-4.33-2.5-5.818-8.056-3.319-12.385 1.678-2.905 4.732-4.532 7.868-4.532 1.537 0 3.094.391 4.517 1.213l57.389 33.134c2.098 1.211 3.598 3.166 4.225 5.505.627 2.34.305 4.783-.906 6.881zm4.182-25.376-57.389-33.134c-2.098-1.211-3.598-3.166-4.225-5.505s-.305-4.782.906-6.88l8.283-14.348c3.424-5.93 8.951-10.171 15.564-11.943 6.615-1.773 13.522-.861 19.451 2.562l28.694 16.566c5.93 3.424 10.171 8.951 11.943 15.564 1.105 4.122 1.167 8.358.228 12.401l-49.932-28.828c-3.589-2.07-8.175-.843-10.245 2.745-2.071 3.587-.842 8.174 2.745 10.245l50.893 29.383-4.533 7.852c-2.498 4.331-8.054 5.821-12.383 3.32z"/></g></g></svg>