<svg id="Capa_1" enable-background="new 0 0 512 512" height="512" viewBox="0 0 512 512" width="512" xmlns="http://www.w3.org/2000/svg"><g><path d="m463.083 214.583c0-22.874-18.543-41.417-41.417-41.417h-27.611c22.874 0 41.417-18.543 41.417-41.416 0-22.874-18.543-41.416-41.416-41.416h-138.051c22.871 0 41.412-18.541 41.412-41.412v-40.343c0-.596-.483-1.079-1.079-1.079h-39.258c-.597 0-1.08.483-1.08 1.079v39.259c0 .596-.483 1.079-1.079 1.079h-113.171c-22.874 0-41.417 18.543-41.417 41.417 0 22.871 18.538 41.412 41.407 41.416h-9.991c-22.874 0-41.417 18.543-41.417 41.417 0 22.874 18.543 41.416 41.417 41.416h-41.416c-22.874 0-41.417 18.543-41.417 41.417 0 22.874 18.543 41.417 41.417 41.417h27.611c-22.874 0-41.417 18.543-41.417 41.417 0 22.874 18.543 41.417 41.417 41.417h13.806c-22.874 0-41.417 18.543-41.417 41.416 0 22.874 18.543 41.416 41.416 41.416h123.171c.596 0 1.079.483 1.079 1.079v39.259c0 .596.483 1.079 1.079 1.079h39.258c.596 0 1.079-.483 1.079-1.079v-40.338c0-22.874-18.543-41.416-41.417-41.416h124.25c22.874 0 41.417-18.543 41.417-41.417 0-22.874-18.543-41.417-41.417-41.417 22.874 0 41.417-18.543 41.417-41.417 0-22.874-18.543-41.417-41.417-41.417h41.417c22.876.001 41.418-18.542 41.418-41.416z" fill="#f37c7c"/><path d="m420.849 173.167h-5.727c3.828 6.324 6.012 13.753 5.959 21.697-.152 22.885-19.263 41.136-42.149 41.136h-17.417c-1.413 0-2.558 1.145-2.558 2.558v1.539c0 .896.478 1.713 1.237 2.189 11.694 7.32 19.471 20.317 19.471 35.13 0 16.842-10.053 31.335-24.485 37.808-.905.406-1.472 1.323-1.472 2.315v2.587c0 .992.566 1.909 1.471 2.315 14.552 6.526 24.652 21.207 24.484 38.227-.226 22.835-19.335 40.998-42.171 40.998h-102.895c-1.413 0-2.558 1.145-2.558 2.558 0 .962.548 1.826 1.397 2.278 13.076 6.963 21.978 20.732 21.978 36.58v20.121c.347.179.585.541.585.959v39.258c0 .596.483 1.079 1.079 1.079h39.258c.596 0 1.079-.483 1.079-1.079v-40.338c0-22.874-18.543-41.416-41.417-41.416h123.432c23.224 0 42.671-19.005 42.227-42.225-.431-22.501-18.805-40.609-41.409-40.609 22.874 0 41.417-18.543 41.417-41.417s-18.543-41.417-41.417-41.417h41.417c22.604 0 40.978-18.108 41.409-40.609.446-23.217-19.002-42.222-42.225-42.222z" fill="#ee6161"/><path d="m470.583 214.583c0-24.561-18.194-44.951-41.813-48.401 8.773-8.847 14.202-21.018 14.202-34.432 0-26.973-21.943-48.917-48.916-48.917h-102.836c8.477-8.8 13.696-20.757 13.696-33.911v-40.343c0-4.73-3.849-8.579-8.579-8.579h-39.257c-4.73 0-8.579 3.849-8.579 8.579v32.838h-28.818c-4.143 0-7.5 3.357-7.5 7.5s3.357 7.5 7.5 7.5h35.239c4.73 0 8.579-3.849 8.579-8.579v-32.838h26.416v33.922c0 18.698-15.213 33.911-33.911 33.911h-110.45c-4.143 0-7.5 3.357-7.5 7.5s3.357 7.5 7.5 7.5h248.501c18.701 0 33.916 15.215 33.916 33.917s-15.215 33.917-33.917 33.917h-43.199c-4.143 0-7.5 3.357-7.5 7.5s3.357 7.5 7.5 7.5h70.811c18.702 0 33.917 15.215 33.917 33.916 0 18.702-15.215 33.917-33.917 33.917h-331.335c-4.143 0-7.5 3.357-7.5 7.5s3.357 7.5 7.5 7.5h289.917c18.701 0 33.916 15.215 33.916 33.917 0 18.701-15.215 33.916-33.916 33.916h-262.305c-4.143 0-7.5 3.357-7.5 7.5s3.357 7.5 7.5 7.5h262.305c18.701 0 33.916 15.215 33.916 33.917s-15.215 33.917-33.916 33.917c-7.01 0-241.505 0-248.5 0-4.143 0-7.5 3.357-7.5 7.5s3.357 7.5 7.5 7.5c2.255 0 129.056 0 124.25 0 18.701 0 33.916 15.215 33.916 33.916v33.917h-26.416v-32.838c0-4.73-3.849-8.579-8.579-8.579h-11.118c-4.143 0-7.5 3.357-7.5 7.5s3.357 7.5 7.5 7.5h4.697v32.838c0 4.73 3.849 8.579 8.579 8.579h39.258c4.73 0 8.579-3.849 8.579-8.579v-40.338c0-13.155-5.222-25.116-13.699-33.916h89.033c26.973 0 48.916-21.944 48.916-48.917 0-17.425-9.156-32.75-22.911-41.417 13.755-8.667 22.911-23.992 22.911-41.416 0-13.157-5.22-25.116-13.699-33.917h6.199c26.973 0 48.917-21.944 48.917-48.917z"/><path d="m208.801 455.583h-77.051c-18.701 0-33.916-15.215-33.916-33.916 0-18.702 15.215-33.917 33.917-33.917h234.694c4.143 0 7.5-3.357 7.5-7.5s-3.357-7.5-7.5-7.5h-248.5c-18.702 0-33.917-15.215-33.917-33.917 0-18.701 15.215-33.916 33.917-33.916h262.305c4.143 0 7.5-3.357 7.5-7.5s-3.357-7.5-7.5-7.5h-289.917c-18.702 0-33.917-15.215-33.917-33.917s15.215-33.917 33.917-33.917h331.333c4.143 0 7.5-3.357 7.5-7.5s-3.357-7.5-7.5-7.5h-289.916c-18.702 0-33.917-15.215-33.917-33.916 0-18.702 15.215-33.917 33.917-33.917h262.305c4.143 0 7.5-3.357 7.5-7.5s-3.357-7.5-7.5-7.5h-248.5c-24.503 0-37.722-15.953-37.722-33.917 0-18.701 15.215-33.916 33.917-33.916h42.931c4.143 0 7.5-3.357 7.5-7.5s-3.357-7.5-7.5-7.5h-42.931c-26.973 0-48.917 21.943-48.917 48.916 0 15.521 7.269 29.379 18.58 38.348-16.85 7.732-28.58 24.766-28.58 44.486 0 13.155 5.222 25.116 13.699 33.916h-6.199c-26.973 0-48.917 21.944-48.917 48.917 0 24.562 18.194 44.952 41.813 48.402-8.774 8.846-14.202 21.017-14.202 34.431 0 20.684 12.905 38.411 31.086 45.553-10.566 8.979-17.28 22.361-17.28 37.281 0 26.973 21.943 48.916 48.916 48.916h77.052c4.143 0 7.5-3.357 7.5-7.5s-3.357-7.5-7.5-7.5z"/><path d="m131.75 165.667c-4.143 0-7.5 3.357-7.5 7.5s3.357 7.5 7.5 7.5h184.104c4.143 0 7.5-3.357 7.5-7.5s-3.357-7.5-7.5-7.5z"/></g></svg>