<svg id="Capa_1" enable-background="new 0 0 512 512" height="512" viewBox="0 0 512 512" width="512" xmlns="http://www.w3.org/2000/svg"><g><path d="m469.333 213.333c0-23.564-19.103-42.667-42.667-42.667h-28.445c23.564 0 42.667-19.102 42.667-42.666 0-23.564-19.102-42.666-42.666-42.666h-142.217c23.561 0 42.661-19.1 42.661-42.661v-41.561c0-.614-.498-1.112-1.112-1.112h-40.443c-.613 0-1.111.498-1.111 1.112v40.443c0 .614-.498 1.112-1.112 1.112h-116.586c-23.564 0-42.667 19.103-42.667 42.667 0 23.561 19.097 42.661 42.657 42.666h-10.292c-23.564 0-42.667 19.103-42.667 42.667 0 23.564 19.103 42.666 42.667 42.666h-42.667c-23.564 0-42.667 19.103-42.667 42.667 0 23.564 19.103 42.667 42.667 42.667h28.444c-23.564 0-42.667 19.102-42.667 42.667 0 23.564 19.102 42.667 42.667 42.667h14.223c-23.564 0-42.667 19.102-42.667 42.666 0 23.564 19.102 42.666 42.666 42.666h126.889c.614 0 1.112.498 1.112 1.112v40.443c0 .614.498 1.112 1.112 1.112h40.443c.614 0 1.112-.498 1.112-1.112v-41.555c0-23.564-19.102-42.666-42.667-42.666h128c23.564 0 42.667-19.103 42.667-42.667 0-23.564-19.103-42.667-42.667-42.667 23.564 0 42.667-19.103 42.667-42.667 0-23.563-19.103-42.666-42.667-42.666h42.667c23.564 0 42.666-19.102 42.666-42.667z" fill="#f37c7c"/><g fill="#ee6161"><path d="m425.824 170.667h-5.9c3.943 6.514 6.193 14.168 6.139 22.351-.156 23.576-19.845 42.378-43.421 42.378h-17.943c-1.455 0-2.635 1.18-2.635 2.635v1.586c0 .923.492 1.765 1.275 2.255 12.047 7.541 20.059 20.93 20.059 36.191 0 17.35-10.356 32.281-25.224 38.949-.932.418-1.517 1.363-1.517 2.385v2.665c0 1.022.583 1.966 1.516 2.385 14.992 6.723 25.397 21.847 25.223 39.381-.233 23.524-19.918 42.235-43.443 42.235h-106.002c-1.455 0-2.635 1.18-2.635 2.635 0 .991.565 1.881 1.44 2.347 13.471 7.173 22.642 21.358 22.642 37.684v20.728c.358.185.603.558.603.988v40.443c0 .614.498 1.112 1.112 1.112h40.443c.614 0 1.112-.498 1.112-1.112v-41.555c0-23.564-19.102-42.666-42.667-42.666h127.157c23.924 0 43.959-19.579 43.502-43.499-.444-23.18-19.373-41.834-42.659-41.834 23.564 0 42.667-19.103 42.667-42.667s-19.104-42.667-42.668-42.667h42.667c23.286 0 42.215-18.654 42.659-41.834.457-23.92-19.578-43.499-43.502-43.499z"/><path d="m384 298.697c4.143 0 7.5-3.357 7.5-7.5s-3.357-7.5-7.5-7.5h-331.122c7.826 9.161 19.462 14.97 32.455 14.97h28.444c-.538 0-1.074.01-1.607.03z"/><path d="m142.222 85.363h257.586c-.526-.019-1.055-.029-1.586-.029h-142.217c12.993 0 24.629-5.809 32.453-14.971h-146.236c-4.143 0-7.5 3.357-7.5 7.5s3.358 7.5 7.5 7.5z"/><path d="m126.397 128.03h271.825c4.143 0 7.5-3.357 7.5-7.5s-3.357-7.5-7.5-7.5h-292.375c7.824 9.159 19.456 14.967 32.446 14.97h-10.293c-.537 0-1.071.01-1.603.03z"/><path d="m128 411.697c-4.143 0-7.5 3.357-7.5 7.5s3.357 7.5 7.5 7.5h129.601c-.531-.02-1.065-.03-1.601-.03h128c12.993 0 24.63-5.809 32.455-14.97z"/><path d="m83.744 213.363h342.923c4.143 0 7.5-3.357 7.5-7.5s-3.357-7.5-7.5-7.5h-331.123c7.826 9.162 19.462 14.97 32.456 14.97h-42.667c-.532 0-1.062.01-1.589.03z"/><path d="m85.333 241.03c-4.143 0-7.5 3.357-7.5 7.5s3.357 7.5 7.5 7.5h300.264c-.53-.02-1.062-.03-1.597-.03h42.667c12.994 0 24.63-5.809 32.455-14.97z"/><path d="m369.778 384.03c4.143 0 7.5-3.357 7.5-7.5s-3.357-7.5-7.5-7.5h-288.456c7.826 9.162 19.462 14.97 32.456 14.97h14.222c-.534 0-1.065.01-1.594.03z"/><path d="m430.677 155.697h-302.677c-4.143 0-7.5 3.357-7.5 7.5s3.357 7.5 7.5 7.5h300.277c-.535-.02-1.071-.03-1.611-.03h-28.445c12.995 0 24.631-5.809 32.456-14.97z"/><path d="m416.456 326.363h-302.678c-4.143 0-7.5 3.357-7.5 7.5s3.357 7.5 7.5 7.5h271.806c-.526-.019-1.054-.029-1.584-.029 12.994 0 24.63-5.809 32.456-14.971z"/></g><path d="m426.667 213.363c4.143 0 7.5-3.357 7.5-7.5s-3.357-7.5-7.5-7.5h-.979c-.726 5.39-2.481 10.452-5.056 15z" fill="#e94444"/><path d="m233.935 411.697c6.3 3.615 11.589 8.791 15.341 15h8.326c-.531-.02-1.065-.03-1.601-.03h127.157c13.034 0 24.913-5.812 32.954-14.97z" fill="#e94444"/><path d="m391.5 291.197c0-4.143-3.357-7.5-7.5-7.5h-.972c-.71 5.381-2.423 10.445-4.944 15h5.916c4.143 0 7.5-3.358 7.5-7.5z" fill="#e94444"/><path d="m416.456 326.363h-54.522c6.3 3.615 11.59 8.791 15.342 15h8.312c-.527-.02-1.056-.029-1.587-.029 12.993 0 24.629-5.809 32.455-14.971z" fill="#e94444"/><path d="m362.483 241.03c.216.334.507.623.856.842 5.682 3.557 10.467 8.416 13.937 14.158h8.322c-.53-.02-1.062-.03-1.597-.03h42.667c12.994 0 24.63-5.809 32.455-14.97z" fill="#e94444"/><path d="m419.924 170.667c.006.01.012.02.018.03h7.496c-.536-.02-1.074-.03-1.614-.03z" fill="#e94444"/></g></svg>