<svg id="Capa_1" enable-background="new 0 0 512 512" height="512" viewBox="0 0 512 512" width="512" xmlns="http://www.w3.org/2000/svg"><g><path d="m117.986 338.833v27.611h58.969c5.555 0 10.059 4.503 10.059 10.059v126.999c0 .551.447.998.998.998h26.613l13.806-82.833-13.806-47.302c0-19.623-15.908-35.531-35.531-35.531h-61.108z" fill="#fee8c7"/><path d="m394.097 311.222v27.611h-58.969c-5.555 0-10.059 4.503-10.059 10.059v154.61c0 .551-.447.998-.998.998h-26.613l-13.806-96.639 13.806-61.108c0-19.623 15.908-35.531 35.531-35.531z" fill="#fee8c7"/><path d="m371.239 205.501c-1.109-4.146-2.438-8.311-3.985-12.502h-24.121c-13.529 0-26.258-4.353-36.6-12.077-5.751-4.294-9.075-11.104-9.075-18.282v-155.14h-41.417l-13.806 165.667 13.806 331.333h41.417v-293.588c0-2.576 2.741-4.221 5.013-3.008 12.236 6.525 26.12 10.096 40.662 10.096h27.201c.231-.914.479-1.821.743-2.722.934-3.186 1.02-6.569.162-9.777z" fill="#e94444"/><path d="m177.882 215.061h-28.435c-1.233 3.496-2.313 6.974-3.24 10.439-.842 3.146-.818 6.473.107 9.595.484 1.633.914 3.29 1.289 4.967h30.279c12.887 0 25.586-2.356 37.511-6.901l13.037-18.578-13.037-8.724c-11.31 5.95-24.111 9.202-37.511 9.202z" fill="#e94444"/><path d="m370.308 258.288c-.264-.901-.512-1.808-.743-2.722h-35.365c-21.346 0-41.174-8.252-55.873-22.518-14.443-14.018-22.286-33.495-22.286-53.622v-171.926h-41.417v235.71c0 9.013-4.532 17.429-12.065 22.376-9.762 6.411-21.357 9.981-33.61 9.981h-22.621c-.232.914-.479 1.822-.743 2.722-.934 3.186-1.021 6.568-.163 9.775 1.109 4.146 2.438 8.312 3.985 12.504h19.542c11.327 0 22.255-2.166 32.316-6.208 6.398-2.57 13.359 2.178 13.359 9.073v201.067h41.417v-253.361c0-1.87 2.264-2.825 3.586-1.501 5.722 5.732 12.113 10.812 19.071 15.124 16.683 10.34 35.875 15.805 55.503 15.805h32.285c1.547-4.192 2.876-8.358 3.985-12.504.858-3.207.772-6.589-.163-9.775z" fill="#0681af"/><path d="m157.546 288.067c-.842-3.145-.817-6.472.107-9.594 2.036-6.874 3.129-14.154 3.129-21.689s-1.093-14.815-3.129-21.689c-.925-3.122-.949-6.449-.107-9.595 2.259-8.44 5.424-16.959 9.496-25.621 22.471-47.803-11.775-102.78-64.597-102.78h-1.813c-25.931 0-49.806 14.021-62.534 36.614-39.696 70.459-39.754 175.267-.177 245.828 12.795 22.811 36.918 36.928 63.072 36.928 52.896 0 88.505-54.961 66.02-102.84-4.058-8.642-7.214-17.141-9.467-25.562z" fill="#f37c7c"/><path d="m354.537 268.067c.842-3.145.817-6.472-.107-9.594-2.036-6.874-3.129-14.154-3.129-21.689s1.093-14.815 3.129-21.689c.925-3.122.949-6.449.107-9.595-2.259-8.44-5.424-16.959-9.496-25.621-22.471-47.803 11.775-102.78 64.597-102.78h1.813c25.931 0 49.806 14.021 62.534 36.614 39.696 70.459 39.754 175.268.177 245.829-12.795 22.811-36.918 36.928-63.072 36.928-52.896 0-88.505-54.961-66.02-102.84 4.058-8.644 7.213-17.143 9.467-25.563z" fill="#f37c7c"/><path d="m157.546 288.067c-.842-3.145-.817-6.472.107-9.594 2.036-6.875 3.129-14.154 3.129-21.689s-1.093-14.815-3.129-21.689c-.925-3.122-.949-6.449-.107-9.595 2.259-8.439 5.424-16.959 9.496-25.621 18.953-40.319-2.442-85.74-41.298-98.975 18.146 20.433 24.477 50.938 11.297 78.974-4.072 8.663-7.237 17.182-9.496 25.621-.842 3.146-.817 6.473.107 9.595 2.036 6.875 3.129 14.154 3.129 21.689s-1.093 14.814-3.129 21.689c-.925 3.122-.949 6.449-.107 9.594 2.253 8.42 5.409 16.92 9.467 25.562 22.485 47.879-13.124 102.84-66.02 102.84-8.252 0-16.302-1.406-23.858-4.046 13.554 15.123 33.064 24.047 53.859 24.047 52.896 0 88.505-54.961 66.02-102.84-4.058-8.642-7.214-17.141-9.467-25.562z" fill="#ee6161"/><path d="m473.984 113.711c-8.742-15.517-22.742-26.991-39.056-32.655 3.427 3.835 6.47 8.068 9.054 12.655 39.696 70.459 39.754 175.268.177 245.829-12.794 22.811-36.918 36.928-63.072 36.928-8.527 0-16.605-1.429-24.062-4.025 13.083 14.533 32.08 24.026 54.064 24.026 26.154 0 50.277-14.117 63.072-36.928 39.578-70.562 39.519-175.37-.177-245.83z" fill="#ee6161"/><path d="m105.085 210.166c-18.681-2.27-35.79-11.323-48.176-25.493l-2.304-2.636c-2.727-3.119-7.465-3.436-10.583-.712-3.119 2.727-3.438 7.464-.711 10.583l2.304 2.636c14.825 16.96 35.302 27.797 57.661 30.513 4.129.499 7.852-2.443 8.35-6.541.499-4.112-2.429-7.85-6.541-8.35z"/><path d="m103.276 287.9c-22.359 2.716-42.836 13.553-57.661 30.513l-2.304 2.636c-2.726 3.119-2.408 7.856.711 10.583 3.111 2.719 7.851 2.414 10.583-.712l2.304-2.636c12.386-14.17 29.495-23.224 48.176-25.493 4.112-.5 7.041-4.238 6.541-8.35s-4.239-7.034-8.35-6.541z"/><path d="m468.06 161.63c-3.118-2.727-7.855-2.408-10.583.712l-2.303 2.636c-12.386 14.17-29.495 23.224-48.177 25.494-4.111.5-7.04 4.238-6.54 8.351.498 4.092 4.213 7.039 8.351 6.54 22.358-2.718 42.836-13.554 57.66-30.514l2.304-2.636c2.725-3.119 2.407-7.857-.712-10.583z"/><path d="m466.467 298.718c-14.825-16.961-35.303-27.797-57.66-30.513-4.104-.49-7.851 2.429-8.35 6.541-.499 4.111 2.429 7.85 6.541 8.35 18.68 2.27 35.788 11.323 48.175 25.493l2.304 2.636c2.736 3.129 7.473 3.429 10.583.712 3.119-2.727 3.438-7.464.712-10.583z"/><path d="m495.433 142.735c-1.411-3.894-5.709-5.913-9.606-4.495-3.895 1.411-5.907 5.712-4.495 9.606 24.175 66.705 18.664 150.304-13.711 208.025-11.451 20.415-33.112 33.097-56.531 33.097-22.48 0-43.115-11.356-55.197-30.379-11.896-18.729-13.403-41.821-4.033-61.772 2.964-6.313 5.591-12.852 7.724-19.403 5.083 3.444 11.195 5.43 17.621 5.43 4.143 0 7.5-3.357 7.5-7.5s-3.357-7.5-7.5-7.5c-7.15 0-13.539-4.664-15.527-11.316-3.911-13.27-3.74-26.861-.055-39.305.005-.017-.017.059.047-.161 1.996-6.677 8.385-11.341 15.535-11.341 4.143 0 7.5-3.357 7.5-7.5s-3.357-7.5-7.5-7.5c-6.425 0-12.537 1.986-17.62 5.432-2.158-6.627-4.79-13.158-7.755-19.466-9.543-20.302-8.107-43.656 3.84-62.474 11.774-18.545 31.949-29.616 53.97-29.616h1.812c22.963 0 44.337 12.418 55.78 32.408 2.058 3.595 6.641 4.841 10.234 2.783 3.595-2.058 4.841-6.64 2.783-10.234-14.108-24.646-40.47-39.957-68.798-39.957h-1.812c-27.183 0-52.092 13.674-66.633 36.576-14.715 23.176-16.49 51.922-4.751 76.895.361.767.714 1.534 1.06 2.3-10.318-.708-20.032-4.287-28.293-10.457-3.796-2.834-6.062-7.422-6.062-12.271v-155.14c0-4.143-3.357-7.5-7.5-7.5h-82.834c-4.142 0-7.5 3.357-7.5 7.5v69.598c0 4.143 3.358 7.5 7.5 7.5s7.5-3.357 7.5-7.5v-62.098h26.417v164.426c0 22.348 8.953 43.854 24.563 59.004 16.369 15.888 38.067 24.637 61.097 24.637h13.439c.037 1.02-.078 2.052-.349 3.062-.613 2.292-1.304 4.607-2.069 6.939h-11.024c-26.248 0-51.088-10.518-69.265-28.728-2.751-2.756-6.855-3.57-10.454-2.084-3.609 1.493-5.94 4.979-5.94 8.883v245.861h-26.417v-193.567c0-5.745-2.842-11.096-7.603-14.314-4.745-3.208-10.745-3.849-16.052-1.718-9.361 3.76-19.292 5.667-29.52 5.667h-2.089c-.765-2.332-1.456-4.647-2.069-6.938-.27-1.01-.386-2.042-.348-3.062h4.507c13.512 0 26.557-3.877 37.727-11.211 9.673-6.353 15.449-17.062 15.449-28.646 0-91.941 0 .189 0-131.11 0-4.143-3.358-7.5-7.5-7.5s-7.5 3.357-7.5 7.5v89.411c-9.136 3.968-19.156 6.05-29.243 6.05h-6.083c.649-1.495 1.326-2.992 2.031-4.491 11.739-24.973 9.963-53.719-4.751-76.895-14.541-22.903-39.451-36.576-66.633-36.576h-1.812c-28.552 0-55.018 15.492-69.068 40.432-19.818 35.179-30.75 80.122-30.781 126.554-.035 46.421 10.831 91.391 30.594 126.624 14.102 25.142 40.776 40.76 69.614 40.76 27.642 0 53.01-13.958 67.86-37.337 2.59-4.078 4.78-8.325 6.567-12.688h1.534c1.411 0 2.559 1.148 2.559 2.56v31.754c0 4.143 3.358 7.5 7.5 7.5s7.5-3.357 7.5-7.5v-31.754c0-8.696-6.354-15.936-14.663-17.321.828-4.216 1.309-8.484 1.44-12.765 14.434 1.125 25.834 13.229 25.834 27.946v122.635h-12.611v-53.74c0-4.143-3.358-7.5-7.5-7.5s-7.5 3.357-7.5 7.5v60.242c0 4.686 3.812 8.498 8.498 8.498h136.06c4.686 0 8.498-3.812 8.498-8.498v-154.609c0-1.029.61-1.917 1.487-2.323 2.082 6.967 5.143 13.719 9.173 20.063 14.85 23.379 40.217 37.337 67.859 37.337 28.837 0 55.512-15.618 69.613-40.759 34.386-61.306 40.306-149.908 14.731-220.476zm-296.99 116.581c-8.717 5.725-18.916 8.75-29.493 8.75h-1.422c.915-6.786.999-13.693.251-20.505h10.104c9.929 0 19.723-1.291 29.236-3.845-.165 6.32-3.381 12.124-8.676 15.6zm-20.561-36.755c9.976 0 19.905-1.696 29.243-4.956v10.49c-9.458 2.966-19.272 4.467-29.243 4.467h-13.148c-.416-1.662-.398-3.423.057-5.122.432-1.615.904-3.242 1.412-4.879zm-21.69 156.03c-12.083 19.022-32.717 30.379-55.198 30.379-23.418 0-45.08-12.683-56.531-33.098-38.165-68.041-38.092-170.565.169-238.478 11.397-20.229 32.855-32.795 56-32.795h1.812c22.02 0 42.196 11.071 53.97 29.616 11.948 18.817 13.383 42.172 3.84 62.474-2.9 6.169-5.556 12.716-7.754 19.464-5.083-3.444-11.195-5.43-17.621-5.43-4.142 0-7.5 3.357-7.5 7.5s3.358 7.5 7.5 7.5c7.151 0 13.539 4.664 15.543 11.37l.037.124c.001.003.001.005.002.008 3.528 11.913 3.98 25.739-.048 39.279-1.996 6.678-8.384 11.342-15.535 11.342-4.142 0-7.5 3.357-7.5 7.5s3.358 7.5 7.5 7.5c6.427 0 12.54-1.987 17.622-5.429 2.153 6.614 4.779 13.13 7.724 19.4 9.371 19.953 7.863 43.045-4.032 61.774zm24.105-47.241c-1.167-7.133-3.328-14.166-6.495-20.91-.383-.816-.758-1.631-1.124-2.445 10.84-.417 21.38-2.658 31.383-6.676.896-.36 1.615-.076 2.061.226.375.253 1.004.836 1.004 1.888v38.309c-7.253-6.241-16.601-10.11-26.829-10.392zm83.244-151.924v-164.426h26.417v147.641c0 9.559 4.519 18.64 12.087 24.29 11.886 8.877 26.094 13.568 41.088 13.568h2.09c.765 2.332 1.456 4.647 2.069 6.938.271 1.01.386 2.042.349 3.062h-4.508c-12.99 0-25.83-3.186-37.131-9.212-3.411-1.822-7.431-1.723-10.746.268-3.317 1.989-5.298 5.487-5.298 9.356v22.285c-2.229-1.707-4.368-3.552-6.407-5.531-12.717-12.341-20.01-29.924-20.01-48.239zm41.417 62.604v-24.577c11.921 5.279 24.989 8.047 38.175 8.047h1.423c-.977 7.248-1.038 14.871 0 22.566h-10.356c-10.239 0-20.156-2.08-29.242-6.036zm34.414 46.037c-.356.791-.72 1.582-1.092 2.373-2.031 4.325-3.648 8.769-4.854 13.282h-.437c-10.698 0-20.496 3.924-28.031 10.408v-29.915c9.488 2.545 19.313 3.851 29.242 3.851h5.172zm-49.414-9.031v217.964h-26.417v-233.789c8.038 6.452 16.93 11.78 26.417 15.825zm27.611 69.857v148.107h-12.611v-150.246c0-14.763 11.474-26.898 25.972-27.956-.289 4.332-.218 8.677.211 12.992-7.768 1.811-13.572 8.791-13.572 17.103z"/></g></svg>