<svg id="Capa_1" enable-background="new 0 0 511.927 511.927" height="512" viewBox="0 0 511.927 511.927" width="512" xmlns="http://www.w3.org/2000/svg"><g><path d="m189.274 433.078c25.026-25.026 39.085-58.968 39.085-94.36v-68.958h-27.607v61.77c0 32.672-12.979 64.006-36.082 87.109l-14.979 14.979c-.659.659-.192 1.786.74 1.786h36.083c.277 0 .544-.11.74-.306z" fill="#0681af"/><ellipse cx="118.439" cy="359.718" fill="#46cc8d" rx="41.411" ry="48.313" transform="matrix(.966 -.259 .259 .966 -89.066 42.911)"/><path d="m297.377 323.829c0 .632-.513 1.145-1.145 1.145h-38.414c-.851 0-1.405-.896-1.024-1.657l11.375-22.749c1.053-2.105 1.601-4.427 1.601-6.78v-93.047l-69.018-124.233h179.448l-82.822 110.429v136.892z" fill="#fee8c7"/><path d="m202.211 76.813c-107.536 0-194.711 87.175-194.711 194.711v146.189c0 15.729 19.017 23.606 30.14 12.484l45.044-44.168c15.248-14.951 33.831-26.081 54.238-32.374 31.201-9.621 61.254-23.846 87.94-42.25 28.235-19.472 44.908-51.745 44.908-86.043v-80.99c0-37.312-30.247-67.559-67.559-67.559z" fill="#f37c7c"/><path d="m498.184 105.196h-5.766c-11.098 0-22.071-2.826-31.575-8.556-22.002-13.264-47.434-20.349-73.576-20.128-49.834.422-89.89 41.238-89.89 91.074v108.221c0 10.717 11.602 17.415 20.883 12.057l30.236-17.457c20.958-12.1 39.202-27.95 53.963-46.544 22.372-28.183 46.791-54.679 72.235-80.123l27.899-27.899c3.929-3.928 1.147-10.645-4.409-10.645z" fill="#f37c7c"/><path d="m210.755 77.333c11.794 12.165 19.052 28.753 19.048 47.035l-.018 80.99c-.008 34.298-16.687 66.568-44.927 86.034-26.69 18.398-56.747 32.616-87.949 42.23-20.408 6.288-38.994 17.414-54.245 32.362l-35.196 34.495-.004 17.179c-.003 15.729 19.012 23.611 30.137 12.491l45.054-44.158c15.251-14.948 33.837-26.074 54.245-32.362 31.203-9.614 61.259-23.832 87.949-42.23 28.239-19.466 44.919-51.735 44.927-86.034l.018-80.99c.009-34.431-25.743-62.852-59.039-67.042z" fill="#ee6161"/><path d="m498.218 105.25-5.766-.001c-11.098-.002-22.07-2.831-31.573-8.563-.07-.042-.141-.084-.211-.127-.4 1.221-1.098 2.392-2.131 3.425l-25.078 25.067c-25.733 25.722-49.791 53.034-72.863 81.167-14.423 17.587-32.014 32.616-52.093 44.203l-11.124 6.419-.004 18.976c-.002 10.717 11.598 17.418 20.88 12.061l30.24-17.45c20.961-12.095 39.209-27.941 53.973-46.532 22.378-28.178 46.803-54.669 72.253-80.107l27.905-27.893c3.928-3.927 1.147-10.644-4.408-10.645z" fill="#ee6161"/><path d="m510.875 106.176c-2.134-5.151-7.115-8.479-12.69-8.479h-5.766c-10.008 0-19.587-2.586-27.703-7.479-23.038-13.888-49.378-21.209-76.26-21.209 0 0-189.837-.031-189.937 0-24.609.438-48.575 5.591-71.293 14.667-3.847 1.537-5.72 5.901-4.183 9.748 1.537 3.848 5.904 5.718 9.747 4.182 22.075-8.819 45.432-13.291 69.421-13.291 33.117 0 60.06 26.942 60.06 60.059l-.001 80.99c0 30.651-14.274 59.32-38.378 77.497-.02.015-.039.03-.059.044-1.057.796-2.133 1.572-3.228 2.327-7.433 5.126-15.133 9.93-23.08 14.403-.298.142-.585.304-.859.482-13.112 7.325-26.891 13.751-41.253 19.238-.26.083-.512.18-.756.288-6.531 2.477-13.182 4.76-19.945 6.846-20.58 6.346-39.692 17.529-55.433 32.41-.071.065-.141.131-.209.198-1.22 1.159 2.685-2.66-46.733 45.798-4.452 4.452-9.597 2.81-11.066 2.202-1.471-.609-6.27-3.086-6.27-9.382v-146.192c0-64.573 32.623-123.762 87.267-158.33 3.5-2.215 4.543-6.848 2.328-10.348-2.213-3.5-6.847-4.541-10.348-2.329-59.016 37.335-94.248 101.262-94.248 171.007v146.189c0 10.368 5.95 19.273 15.529 23.24 9.521 3.945 20.04 1.921 27.361-5.401l40.373-39.588c10.076 12.209 24.066 19.153 38.324 19.153 3.769 0 7.558-.486 11.297-1.487 12.833-3.439 23.289-12.406 29.443-25.251 5.407-11.283 6.892-24.391 4.294-37.311 9.028-3.642 17.831-7.646 26.387-12.002-.825 12.79-3.756 25.26-8.743 37.166-1.6 3.82.2 8.215 4.021 9.815 3.813 1.598 8.212-.192 9.815-4.02 6.734-16.078 10.149-33.068 10.149-50.497v-.747c4.273-2.474 8.476-5.042 12.607-7.7v15.635c0 33.641-13.101 65.269-36.889 89.057l-.129.129h-17.83l3.961-3.961c3.217-3.216 6.302-6.643 9.17-10.186 2.606-3.219 2.109-7.942-1.109-10.548-3.222-2.607-7.941-2.108-10.549 1.11-2.539 3.137-5.271 6.17-8.118 9.017l-14.977 14.977c-2.454 2.452-3.182 6.108-1.854 9.313 1.327 3.206 4.427 5.277 7.896 5.277h36.083c2.283 0 4.43-.889 6.044-2.503l2.02-2.02c26.62-26.622 41.281-62.016 41.281-99.663v-26.174c10.728-8.672 19.639-19.193 26.411-30.95v12.194c0 1.183-.28 2.368-.809 3.426l-11.373 22.746c-1.352 2.699-1.211 5.844.375 8.412 1.587 2.568 4.336 4.102 7.355 4.102h38.413c4.768 0 8.646-3.878 8.646-8.645v-27.567c5.54 1.768 11.694 1.24 17.133-1.9l30.236-17.457c21.664-12.508 40.534-28.784 56.086-48.376 20.25-25.51 43.692-51.509 71.665-79.483l27.899-27.899c3.946-3.942 5.115-9.818 2.981-14.969zm-362.074 275.722c-4.231 8.833-11.263 14.956-19.799 17.243-12.368 3.317-25.756-2.051-34.795-13.504 13.126-11.238 28.505-19.751 44.925-24.814 4.45-1.372 8.855-2.827 13.212-4.363 1.332 8.925.122 17.789-3.543 25.438zm320.59-243.46c-28.381 28.383-52.196 54.801-72.806 80.763-14.374 18.108-31.814 33.151-51.838 44.712l-30.236 17.457c-2.899 1.674-5.455.558-6.422 0-.966-.557-3.211-2.215-3.211-5.562v-29.528c0-4.142-3.357-7.5-7.5-7.5s-7.5 3.358-7.5 7.5v71.194h-21.776l6.777-13.554c1.564-3.131 2.392-6.635 2.392-10.132 0-8.617 0-140.518 0-149.416 0-24.716-12.008-46.68-30.497-60.364h89.368c-27.743 17.475-46.264 48.474-46.264 83.579v43.697c0 4.142 3.357 7.5 7.5 7.5s7.5-3.358 7.5-7.5v-43.697c0-45.698 36.988-83.188 82.453-83.574 24.57-.186 48.621 6.381 69.641 19.052 10.453 6.301 22.71 9.632 35.447 9.632h2.714z"/></g></svg>