<svg id="Capa_1" enable-background="new 0 0 512.021 512.021" height="512" viewBox="0 0 512.021 512.021" width="512" xmlns="http://www.w3.org/2000/svg"><g><path d="m306.312 198.762-12.504-7.219c-8.284-4.783-13.387-13.622-13.387-23.187v-165.535c0-1.552-1.259-2.811-2.811-2.811h-43.2c-1.552 0-2.811 1.259-2.811 2.811v165.534c0 9.565-5.103 18.404-13.387 23.187l-12.503 7.219-6.588 28.804 6.588 27.57 38.289-22.106c7.433-4.292 16.591-4.292 24.025 0l38.289 22.106 6.588-27.57z" fill="#fee8c7"/><path d="m159.639 457.316c-37.577 10.021-73.152 26.425-105.172 48.496-23.051 15.89-54.467-.612-54.467-28.609v-153.163c0-107.253 72.106-201.107 175.738-228.742 15.129-4.034 29.971 7.368 29.971 23.026v279.028c0 28.116-18.903 52.719-46.07 59.964z" fill="#f37c7c"/><path d="m352.381 457.316c37.577 10.021 73.152 26.425 105.172 48.496 23.051 15.889 54.467-.612 54.467-28.609v-153.163c0-107.253-72.106-201.107-175.738-228.743-15.129-4.034-29.971 7.368-29.971 23.026v279.028c.001 28.117 18.903 52.72 46.07 59.965z" fill="#f37c7c"/><path d="m175.738 95.297c-3.789 1.01-7.536 2.11-11.238 3.295v278.154c0 28.117-18.903 52.72-46.07 59.965-37.577 10.02-73.152 26.425-105.172 48.496-3.453 2.38-7.094 4.033-10.788 5.03 7.847 19.592 32.817 28.795 51.997 15.574 32.02-22.072 67.595-38.476 105.172-48.496 27.167-7.245 46.07-31.848 46.07-59.965v-279.027c0-15.657-14.842-27.06-29.971-23.026z" fill="#ee6161"/><path d="m360.115 103.016c67.532 42.477 110.696 117.438 110.696 200.42v153.163c0 20.942-17.578 35.451-36.084 34.784 7.787 4.499 15.402 9.311 22.825 14.429 23.051 15.889 54.467-.612 54.467-28.609v-153.163c.002-98.823-61.215-186.27-151.904-221.024z" fill="#ee6161"/><g fill="#fedba6"><path d="m286.092 58.355h-60.164c-4.143 0-7.5-3.358-7.5-7.5s3.357-7.5 7.5-7.5h60.164c4.143 0 7.5 3.358 7.5 7.5s-3.357 7.5-7.5 7.5z"/><path d="m286.092 82.914h-60.164c-4.143 0-7.5-3.358-7.5-7.5s3.357-7.5 7.5-7.5h60.164c4.143 0 7.5 3.358 7.5 7.5s-3.357 7.5-7.5 7.5z"/><path d="m286.092 107.473h-60.164c-4.143 0-7.5-3.358-7.5-7.5s3.357-7.5 7.5-7.5h60.164c4.143 0 7.5 3.358 7.5 7.5s-3.357 7.5-7.5 7.5z"/></g><path d="m512.021 373.555c-40.874 46.831-99.993 74.071-163.171 74.071h-16.87c6.02 4.36 12.895 7.688 20.402 9.69 5.211 1.39 10.383 2.902 15.512 4.535 54.759-4.471 105.612-28.112 144.127-66.374z" fill="#ee6161"/><path d="m34.884 326.765c11.263 1.126 22.584 1.685 33.914 1.685 41.259 0 82.586-7.417 121.173-21.884l15.738-5.896v-16.018l-21.001 7.868c-47.043 17.638-98.332 24.318-148.332 19.319l-35.852-3.581c-.33 4.974-.505 9.983-.521 15.023z" fill="#ee6161"/><path d="m512.021 395.477v-21.922c-12.23 14.012-26.092 26.27-41.209 36.569v17.891c14.848-9.194 28.681-20.092 41.209-32.538z" fill="#e94444"/><path d="m164.5 299.346v15.636c8.6-2.471 17.1-5.278 25.471-8.416l15.738-5.896v-16.018l-21.001 7.868c-6.656 2.496-13.398 4.772-20.208 6.826z" fill="#e94444"/><path d="m286.092 33.796h-60.164c-4.143 0-7.5-3.358-7.5-7.5s3.357-7.5 7.5-7.5h60.164c4.143 0 7.5 3.358 7.5 7.5s-3.357 7.5-7.5 7.5z" fill="#fedba6"/></g></svg>