<?xml version="1.0" encoding="iso-8859-1"?>
<!-- Generator: Adobe Illustrator 19.0.0, SVG Export Plug-In . SVG Version: 6.00 Build 0)  -->
<svg version="1.1" id="Capa_1" xmlns="http://www.w3.org/2000/svg" xmlns:xlink="http://www.w3.org/1999/xlink" x="0px" y="0px"
	 viewBox="0 0 512 512" style="enable-background:new 0 0 512 512;" xml:space="preserve">
<path style="fill:#FFE2CC;" d="M504.505,190.959v249.212c0,18.31-14.86,33.171-33.181,33.171H262.192c-6.43,0-12.44-1.83-17.52-5.01
	c-9.4-5.85-15.66-16.28-15.66-28.16V190.959c0-11.42,5.96-21.9,15.53-28.09c16.01-10.37,24.53-24.421,29.01-37.53
	c0.06-0.17,0.11-0.33,0.17-0.5c4.26-12.75,4.71-24.56,4.53-31.08h177.022c-0.19,6.61,0.27,18.64,4.69,31.58
	c4.47,13.111,13,27.16,29.01,37.53C498.555,169.059,504.505,179.539,504.505,190.959z"/>
<g>
	<path style="fill:#FFDBB1;" d="M307.583,157.819v277.542c0,18.18-14.79,32.97-32.97,32.97h-29.94
		c-9.4-5.85-15.66-16.28-15.66-28.16V190.959c0-11.42,5.96-21.9,15.53-28.09c16.01-10.37,24.53-24.421,29.01-37.53
		c0.06-0.17,0.11-0.33,0.17-0.5h0.89C292.793,124.838,307.583,139.629,307.583,157.819z"/>
	<path style="fill:#FFDBB1;" d="M363.431,434.451c0,14.188-3.884,27.488-10.654,38.89h-90.582c-18.322,0-33.18-14.857-33.18-33.17
		v-55.605c5.341-6.221,11.702-11.622,18.911-15.916c2.346-1.388,4.622-2.586,6.93-3.645c1.298-0.599,2.506-1.118,3.694-1.587
		c8.088-3.245,16.645-5.063,25.441-5.402l0.31-0.01c0.878-0.02,1.758-0.04,2.646-0.04c26.56,0,50.802,13.449,64.87,35.965
		C359.418,406.055,363.431,420.073,363.431,434.451z"/>
	<path style="fill:#FFDBB1;" d="M273.553,125.335c4.422-12.941,4.881-24.964,4.697-31.588h177.016
		c-0.183,6.623,0.275,18.647,4.697,31.588H273.553z"/>
	<path style="fill:#FFDBB1;" d="M504.503,190.957v249.21c0,17.373-13.349,31.629-30.355,33.055
		c7.377-6.083,12.085-15.294,12.085-25.607v-249.21c0-11.413-5.951-21.887-15.529-28.093
		c-31.812-20.594-34.085-55.779-33.697-69.116l0.01-7.448h18.25c-0.376,13.339,1.895,48.524,33.707,69.116
		C498.552,169.06,504.503,179.545,504.503,190.957z"/>
</g>
<rect x="255.558" y="16.052" style="fill:#B5F2D9;" width="222.399" height="93.066"/>
<rect x="255.558" y="93.743" style="fill:#20CFA2;" width="222.399" height="15.368"/>
<rect x="270.565" y="234.109" style="fill:#FF547E;" width="192.386" height="163.259"/>
<rect x="270.565" y="234.109" style="fill:#E2035A;" width="36.993" height="163.259"/>
<rect x="270.565" y="352.189" style="fill:#B5F2D9;" width="192.386" height="45.179"/>
<g>
	<rect x="270.565" y="352.189" style="fill:#20CFA2;" width="36.993" height="45.179"/>
	<path style="fill:#20CFA2;" d="M353.846,397.368h-83.283v-37.643c4.393-0.959,8.876-1.528,13.429-1.708l0.31-0.01
		c0.878-0.02,1.758-0.04,2.646-0.04c26.56,0,50.802,13.449,64.87,35.965C352.528,395.061,353.207,396.21,353.846,397.368z"/>
</g>
<g>
	<path style="fill:#B5F2D9;" d="M387.472,283.714h-8.902v-8.902c0-6.522-5.288-11.81-11.81-11.81l0,0
		c-6.522,0-11.81,5.288-11.81,11.81v8.902h-8.902c-6.522,0-11.81,5.288-11.81,11.81l0,0c0,6.522,5.288,11.81,11.81,11.81h8.902
		v8.901c0,6.522,5.288,11.81,11.81,11.81l0,0c6.522,0,11.81-5.288,11.81-11.81v-8.901h8.902c6.522,0,11.81-5.288,11.81-11.81l0,0
		C399.282,289.001,393.994,283.714,387.472,283.714z"/>
	<path style="fill:#B5F2D9;" d="M292.58,157.815v277.544c0,9.925-8.038,17.973-17.962,17.973H166.903
		c-7.269,0-13.51-4.334-16.335-10.543c-2.217,4.882-6.55,8.597-11.832,9.965c-1.438,0.379-2.955,0.58-4.513,0.58H25.459
		c-9.915,0-17.952-8.048-17.952-17.973V157.815c0-9.925,8.038-17.973,17.952-17.973h108.763c7.269,0,13.52,4.334,16.345,10.533
		c2.826-6.201,9.066-10.533,16.335-10.533h107.716C284.542,139.843,292.58,147.891,292.58,157.815z"/>
</g>
<g>
	<path style="fill:#20CFA2;" d="M292.58,358.178v77.181c0,9.925-8.038,17.973-17.962,17.973H166.903
		c-7.269,0-13.51-4.334-16.335-10.543c-2.217,4.882-6.55,8.597-11.832,9.965c-6.27-25.201,0.429-52.989,20.089-72.649
		c14.448-14.438,33.649-22.396,54.077-22.396c13.26,0,26,3.375,37.263,9.675c1.567-0.868,3.125-1.657,4.693-2.376
		c1.298-0.599,2.506-1.118,3.694-1.587c8.088-3.245,16.645-5.063,25.441-5.402l0.31-0.01c0.878-0.02,1.758-0.04,2.646-0.04
		C288.836,357.968,290.713,358.038,292.58,358.178z"/>
	<path style="fill:#20CFA2;" d="M292.577,157.812v277.547c0,9.92-8.039,17.969-17.96,17.969h-13.369
		c9.92,0,17.969-8.049,17.969-17.969V157.812c0-9.92-8.049-17.969-17.969-17.969h13.369
		C284.538,139.843,292.577,147.892,292.577,157.812z"/>
	<path style="fill:#20CFA2;" d="M109.647,250.089c-8.211,8.211-19.127,12.732-30.738,12.732c-11.612,0-22.528-4.522-30.738-12.732
		s-12.732-19.127-12.732-30.739c0-11.611,4.521-22.528,12.732-30.739c8.21-8.21,19.127-12.732,30.738-12.731
		c23.97,0,43.47,19.5,43.47,43.47C122.379,230.962,117.857,241.879,109.647,250.089z"/>
</g>
<circle style="fill:#FEAD44;" cx="78.906" cy="219.351" r="31.148"/>
<path style="fill:#20CFA2;" d="M109.647,346.602c-8.21,8.21-19.127,12.732-30.738,12.732c-23.97,0-43.47-19.5-43.471-43.47
	c0-11.612,4.522-22.529,12.732-30.739s19.127-12.732,30.739-12.732s22.528,4.522,30.738,12.732
	c8.21,8.21,12.732,19.127,12.732,30.739C122.379,327.475,117.857,338.39,109.647,346.602z"/>
<circle style="fill:#FEAD44;" cx="78.906" cy="315.863" r="31.148"/>
<path style="fill:#20CFA2;" d="M251.91,250.089c-8.21,8.21-19.127,12.732-30.738,12.732c-23.97,0-43.471-19.5-43.47-43.47
	c0-11.612,4.522-22.528,12.732-30.739c8.21-8.211,19.127-12.732,30.738-12.732c23.97,0,43.47,19.5,43.47,43.47
	C264.641,230.962,260.12,241.879,251.91,250.089z"/>
<circle style="fill:#FEAD44;" cx="221.174" cy="219.351" r="31.148"/>
<path style="fill:#20CFA2;" d="M251.91,346.601c-8.21,8.21-19.127,12.732-30.738,12.732c-11.612,0-22.528-4.522-30.738-12.732
	c-8.21-8.21-12.732-19.127-12.732-30.738c0-11.612,4.522-22.528,12.732-30.739s19.127-12.732,30.738-12.732
	c11.611,0,22.528,4.522,30.739,12.732c8.21,8.21,12.732,19.127,12.732,30.738C264.641,327.474,260.12,338.39,251.91,346.601z"/>
<circle style="fill:#FEAD44;" cx="221.174" cy="315.863" r="31.148"/>
<path style="fill:#50B8FF;" d="M348.454,434.451c0,33.968-27.537,61.496-61.506,61.496c-8.237,0-16.095-1.607-23.284-4.553
	c-0.989-0.409-1.967-0.838-2.936-1.298c-1.897-0.889-3.734-1.867-5.522-2.946c-17.833-10.773-29.764-30.344-29.764-52.699
	c0-22.516,12.082-42.195,30.133-52.919c1.797-1.068,3.635-2.047,5.542-2.916c0.969-0.449,1.957-0.878,2.955-1.268
	c6.37-2.566,13.27-4.084,20.498-4.364c0.789-0.02,1.577-0.04,2.376-0.04c21.996-0.01,41.307,11.542,52.17,28.926
	C345.03,411.307,348.454,422.479,348.454,434.451z"/>
<path style="fill:#0095F2;" d="M266.989,488.269c-1.078,1.078-2.187,2.127-3.325,3.125c-0.989-0.409-1.967-0.838-2.936-1.298
	c-1.897-0.889-3.734-1.867-5.522-2.946c-17.833-10.773-29.764-30.344-29.764-52.699c0-22.516,12.082-42.195,30.133-52.919
	c1.797-1.068,3.635-2.047,5.542-2.916c0.969-0.449,1.957-0.878,2.955-1.268c0.989,0.888,1.967,1.807,2.916,2.755
	C296.804,409.928,296.804,458.454,266.989,488.269z"/>
<circle style="fill:#A3E9FB;" cx="212.909" cy="434.192" r="61.506"/>
<path d="M504.5,244.037c-4.142,0-7.5,3.358-7.5,7.5v188.626c0,14.159-11.519,25.679-25.68,25.679h-55.778
	c-4.142,0-7.5,3.358-7.5,7.5c0,4.142,3.358,7.5,7.5,7.5h55.779c22.431,0,40.68-18.248,40.68-40.679V251.537
	C512,247.394,508.643,244.037,504.5,244.037z"/>
<path d="M383.804,465.842h-35.439c4.84-9.427,7.589-20.095,7.589-31.4c0-10.577-2.399-20.603-6.672-29.571h113.663
	c4.142,0,7.5-3.358,7.5-7.5V352.27c0-0.026,0.004-0.051,0.004-0.078c0-0.026-0.004-0.052-0.004-0.078V234.11
	c0-4.142-3.358-7.5-7.5-7.5H300.073v-68.802c0-3.314-0.643-6.479-1.8-9.385c1.01,0.506,2.146,0.798,3.352,0.798h74.984
	c4.142,0,7.5-3.358,7.5-7.5s-3.358-7.5-7.5-7.5h-74.984c-4.065,0-7.365,3.234-7.488,7.269c-3.828-4.573-9.228-7.782-15.362-8.795
	c2.089-5.077,3.712-10.451,4.88-16.08h166.182c3.523,17.003,12.606,38.006,35.064,52.543c7.573,4.9,12.095,13.051,12.095,21.803
	v28.84c0,4.142,3.358,7.5,7.5,7.5c4.142,0,7.5-3.358,7.5-7.5v-28.84c0-13.861-7.083-26.72-18.946-34.395
	c-16.886-10.93-24.493-26.555-27.829-39.95h12.739c4.142,0,7.5-3.358,7.5-7.5V16.048c0-4.142-3.358-7.5-7.5-7.5H255.556
	c-4.142,0-7.5,3.358-7.5,7.5v93.066c0,4.142,3.358,7.5,7.5,7.5h12.727c-1.395,5.618-3.35,10.881-5.857,15.734h-95.514
	c-6.08,0-11.841,2.188-16.346,5.957c-4.501-3.77-10.262-5.957-16.345-5.957h-32.019c-4.142,0-7.5,3.358-7.5,7.5s3.358,7.5,7.5,7.5
	h32.019c4.087,0,7.82,2.406,9.511,6.131c1.216,2.677,3.884,4.397,6.824,4.399c0.002,0,0.003,0,0.005,0
	c2.939,0,5.606-1.716,6.824-4.389c1.7-3.73,5.44-6.141,9.527-6.141h107.701c5.768,0,10.46,4.692,10.46,10.46v207.67
	c-12.516,0.33-24.467,3.955-34.95,10.597c-11.008-7.08-23.816-10.891-37.216-10.891c-18.433,0-35.761,7.178-48.794,20.211
	c-7.787,7.787-13.465,17.114-16.79,27.286h-99.28c-4.142,0-7.5,3.358-7.5,7.5c0,4.142,3.358,7.5,7.5,7.5h96.166
	c-0.2,2.151-0.309,4.321-0.309,6.507c0,1.627,0.076,3.241,0.187,4.849c-0.123,0.213-0.252,0.424-0.355,0.652
	c-1.691,3.724-5.424,6.131-9.511,6.131H25.46c-5.768,0-10.46-4.692-10.46-10.46V157.809c0-5.768,4.692-10.46,10.46-10.46h45.001
	c4.142,0,7.5-3.358,7.5-7.5s-3.358-7.5-7.5-7.5H25.46c-14.04,0-25.46,11.421-25.46,25.46v277.553c0,14.04,11.421,25.46,25.46,25.46
	h108.761c4.869,0,9.529-1.408,13.505-3.9c3.374,9.698,8.91,18.589,16.385,26.063c13.034,13.034,30.362,20.211,48.795,20.211
	c13.239,0,25.899-3.721,36.817-10.638c11.103,7.143,23.861,10.895,37.219,10.895c20.203,0,38.407-8.728,51.039-22.61h45.821
	c4.142,0,7.5-3.358,7.5-7.5C391.303,469.2,387.946,465.842,383.804,465.842z M384.968,101.613h-36.42V23.547h36.42V101.613z
	 M399.968,23.547h36.42v78.067h-36.42V23.547z M333.547,101.613h-36.419V23.547h36.419V101.613z M470.46,101.613h-19.071V23.547
	h19.071V101.613z M263.057,23.547h19.071v78.067h-19.071V23.547z M339.564,389.871c-9.969-11.747-23.785-20.124-39.491-23.162
	v-7.016h155.371v30.178H339.564z M455.445,241.61v103.083H300.073V241.61H455.445z M174.718,472.377
	c-7.595-7.595-12.644-17.055-14.731-27.346c-0.021-0.137-0.054-0.274-0.083-0.411c-0.662-3.401-1.005-6.889-1.005-10.43
	c0-14.425,5.617-27.988,15.818-38.187c10.528-10.528,24.358-15.793,38.187-15.793c13.83,0,27.66,5.265,38.188,15.793
	c10.2,10.199,15.817,23.761,15.817,38.187c0,14.426-5.617,27.988-15.817,38.187C230.035,493.435,195.775,493.433,174.718,472.377z
	 M286.944,488.452c-8.738,0-17.144-2.057-24.742-5.994c6.537-6.676,11.453-14.354,14.73-22.545h30.251c4.142,0,7.5-3.358,7.5-7.5
	c0-4.142-3.358-7.5-7.5-7.5h-26.148c3.227-20.679-2.944-42.542-18.507-58.65c7.51-3.824,15.804-5.822,24.417-5.822
	c29.782,0,54.01,24.224,54.01,54C340.954,464.224,316.724,488.452,286.944,488.452z"/>
<path d="M399.718,134.22c-4.142,0-7.5,3.358-7.5,7.5s3.358,7.5,7.5,7.5h15.198c4.142,0,7.5-3.358,7.5-7.5s-3.358-7.5-7.5-7.5
	H399.718z"/>
<path d="M397.059,367.28h-60.602c-4.142,0-7.5,3.358-7.5,7.5c0,4.142,3.358,7.5,7.5,7.5h60.602c4.142,0,7.5-3.358,7.5-7.5
	C404.559,370.638,401.201,367.28,397.059,367.28z"/>
<path d="M346.047,314.835h1.401v1.401c0,10.648,8.663,19.31,19.31,19.31c10.648,0,19.309-8.663,19.309-19.31v-1.401h1.402
	c10.648,0,19.309-8.663,19.309-19.31c0-10.647-8.662-19.31-19.309-19.31h-1.402v-1.401c0-10.648-8.662-19.31-19.309-19.31
	c-10.648,0-19.31,8.663-19.31,19.31v1.401h-1.401c-10.648,0-19.31,8.663-19.31,19.31
	C326.737,306.172,335.399,314.835,346.047,314.835z M346.047,291.214h8.901c4.142,0,7.5-3.358,7.5-7.5v-8.901
	c0-2.377,1.934-4.311,4.311-4.311c2.376,0,4.31,1.934,4.31,4.311v8.901c0,4.142,3.358,7.5,7.5,7.5h8.902
	c2.376,0,4.31,1.934,4.31,4.311c0,2.377-1.934,4.311-4.31,4.311h-8.902c-4.142,0-7.5,3.358-7.5,7.5v8.901
	c0,2.377-1.934,4.311-4.31,4.311c-2.377,0-4.311-1.934-4.311-4.311v-8.901c0-4.142-3.358-7.5-7.5-7.5h-8.901
	c-2.377,0-4.311-1.934-4.311-4.311C341.737,293.148,343.67,291.214,346.047,291.214z"/>
<path d="M158.066,362.75V170.63c0-4.142-3.358-7.5-7.5-7.5s-7.5,3.358-7.5,7.5v192.12c0,4.142,3.358,7.5,7.5,7.5
	C154.708,370.25,158.066,366.894,158.066,362.75z"/>
<path d="M48.043,388.832c-4.142,0-7.5,3.358-7.5,7.5c0,4.142,3.358,7.5,7.5,7.5h21.116c4.142,0,7.5-3.358,7.5-7.5
	c0-4.142-3.358-7.5-7.5-7.5H48.043z"/>
<path d="M78.909,180.705c-21.31,0-38.645,17.336-38.645,38.645s17.336,38.645,38.645,38.645c21.309,0,38.644-17.336,38.644-38.645
	S100.218,180.705,78.909,180.705z M78.909,242.997c-13.038,0-23.646-10.607-23.646-23.646s10.607-23.646,23.646-23.646
	s23.645,10.607,23.645,23.646S91.947,242.997,78.909,242.997z"/>
<path d="M69.092,208.769c-4.142,0-7.5,3.358-7.5,7.5v6.164c0,4.142,3.358,7.5,7.5,7.5s7.5-3.358,7.5-7.5v-6.164
	C76.592,212.126,73.234,208.769,69.092,208.769z"/>
<path d="M117.553,315.863c0-21.31-17.336-38.645-38.644-38.645c-21.31,0-38.645,17.336-38.645,38.645s17.336,38.645,38.645,38.645
	C100.218,354.508,117.553,337.172,117.553,315.863z M55.263,315.863c0-13.038,10.607-23.646,23.646-23.646
	s23.645,10.607,23.645,23.646c0,13.038-10.606,23.646-23.645,23.646S55.263,328.9,55.263,315.863z"/>
<path d="M69.092,305.28c-4.142,0-7.5,3.358-7.5,7.5v6.164c0,4.142,3.358,7.5,7.5,7.5s7.5-3.358,7.5-7.5v-6.164
	C76.592,308.638,73.234,305.28,69.092,305.28z"/>
<path d="M221.171,257.997c21.31,0,38.645-17.336,38.645-38.645s-17.336-38.645-38.645-38.645c-21.309,0-38.644,17.336-38.644,38.645
	S199.862,257.997,221.171,257.997z M221.171,195.705c13.038,0,23.646,10.607,23.646,23.646s-10.607,23.646-23.646,23.646
	c-13.039,0-23.645-10.607-23.645-23.646S208.133,195.705,221.171,195.705z"/>
<path d="M211.353,229.933c4.142,0,7.5-3.358,7.5-7.5v-6.164c0-4.142-3.358-7.5-7.5-7.5s-7.5,3.358-7.5,7.5v6.164
	C203.853,226.576,207.211,229.933,211.353,229.933z"/>
<path d="M221.171,354.508c21.31,0,38.645-17.336,38.645-38.645s-17.336-38.645-38.645-38.645c-21.309,0-38.644,17.336-38.644,38.645
	S199.862,354.508,221.171,354.508z M221.171,292.217c13.038,0,23.646,10.607,23.646,23.646c0,13.038-10.607,23.646-23.646,23.646
	c-13.039,0-23.645-10.607-23.645-23.646C197.526,302.825,208.133,292.217,221.171,292.217z"/>
<path d="M211.353,326.445c4.142,0,7.5-3.358,7.5-7.5v-6.164c0-4.142-3.358-7.5-7.5-7.5s-7.5,3.358-7.5,7.5v6.164
	C203.853,323.087,207.211,326.445,211.353,326.445z"/>
<path d="M191.196,427.283c-2.93-2.929-7.678-2.93-10.606-0.001c-2.93,2.929-2.93,7.677-0.001,10.606l28.619,28.62
	c1.465,1.465,3.384,2.198,5.304,2.198c1.919,0,3.839-0.733,5.303-2.197c2.93-2.929,2.93-7.677,0.001-10.606L191.196,427.283z"/>
<g>
</g>
<g>
</g>
<g>
</g>
<g>
</g>
<g>
</g>
<g>
</g>
<g>
</g>
<g>
</g>
<g>
</g>
<g>
</g>
<g>
</g>
<g>
</g>
<g>
</g>
<g>
</g>
<g>
</g>
</svg>
