<svg id="Capa_1" enable-background="new 0 0 512.185 512.185" height="512" viewBox="0 0 512.185 512.185" width="512" xmlns="http://www.w3.org/2000/svg"><g><path d="m505.092 512.185h-497.999c-3.866 0-7-3.134-7-7v-185.879c0-17.187 13.933-31.121 31.121-31.121h23.542c29.973 0 44.945 15.673 54.524 21.181l18.814 10.819 22.825-96h233.175v96l22.563-13.164c9.049-5.279 24.044-18.836 51.607-18.836h22.71c17.187 0 31.121 13.933 31.121 31.121v185.879c-.003 3.866-3.137 7-7.003 7z" fill="#ff8086"/><g><path d="m84.758 294.331c-9.412-4.022-19.609-6.146-30.003-6.146h-23.542c-17.187 0-31.121 13.933-31.121 31.121v185.879c0 3.866 3.134 7 7 7h65.113v-192.879c.001-10.228 4.936-19.302 12.553-24.975z" fill="#e5646e"/></g><path d="m192.699 224.185s34.688 116.451 44.02 164.09c0 0 8.58 43.909 26.601 43.909 12.314 0 14.538-8.012 21.399-44.21l35.374-163.79h-127.394z" fill="#cfe8f9"/><path d="m293.542 20.217c-22.395 15.997-52.518 15.98-74.916-.012-71.503-51.056-169.468.827-170.526 86.558v.002.001c.153.753-3.494 42.009 31.035 77.066l-.002.001c21.226 20.694 34.086 48.481 36.123 78.055l28.837 142.089c6.861 36.198 16 44.21 28.314 44.21 24.836 0 17.202-31.229 19.686-43.909 9.332-47.639 38.198-124.159 38.198-124.159 7.293-16.136 12.265-23.932 25.801-23.932 13.537 0 17.596 6.904 25.801 23.932 0 0 28.867 76.519 38.198 124.159 2.484 12.681-5.15 43.909 19.686 43.909 12.314 0 21.453-8.012 28.314-44.21l28.517-140.512.214-.031c3.521-51.112 36.15-79.489 36.228-79.602 19.481-19.779 31.402-47.027 31.035-77.067-1.061-86.84-100.129-136.847-170.543-86.548z" fill="#e9f5ff"/><path d="m262.171 69.713c-7.184-16.39-18.362-31.454-33.166-43.479-3.594-1.664-7.073-3.668-10.38-6.029-70.182-50.114-169.354-.646-170.525 86.561v.029c-.36 30.195 11.698 57.405 31.035 77.037l-.002.001c21.226 20.694 34.086 48.481 36.123 78.055 31.612 154.909 32.014 169.391 43.655 180.98 3.825 3.809 8.182 5.319 13.496 5.319 24.832 0 17.2-31.22 19.686-43.909.555-2.835 1.179-5.755 1.824-8.607l-27.151-133.783c-2.038-29.574-14.897-57.361-36.123-78.055l.002-.001c-19.337-19.632-31.395-46.842-31.035-77.037 0-.01 0-.019 0-.029v-.003c.001-.102.003-.203.004-.305.001-.023.005-.044.005-.067.537-34.323 17.316-64.815 42.878-84.224 26.92-15.753 83.699 4.006 105.523 53.751 1.719 3.922 6.289 5.683 10.178 3.973 3.909-1.713 5.687-6.27 3.973-10.178z" fill="#cfe8f9"/></g></svg>