<svg id="Capa_1" enable-background="new 0 0 512 512" height="512" viewBox="0 0 512 512" width="512" xmlns="http://www.w3.org/2000/svg"><g><path d="m83.305 396.357c10.013-16.947 33.51-19.282 46.886-4.76 84.097 91.3 231.138 81.717 300.964-19.758 47.789-69.46 49.101-152.544 18.051-230.292-26.796-67.099-111.504-88.295-167.218-42.291-.049.04-.098.081-.147.121-8.64 7.159-21.358 6.43-28.874-1.9-15.552-17.237-26.912-38.033-33.094-61.107l-9.254-34.534c-.29-1.083-1.271-1.836-2.392-1.836h-33.638c-1.628 0-2.814 1.545-2.392 3.118l11.507 42.943c9.391 35.048 28.726 66.3 55.283 90.212 5.767 5.192 8.187 13.154 6.23 20.664-5.751 22.074-4.755 45.928 3.776 68.314 11.327 29.723 10.737 60.427-2.404 88.938-3.613 7.84-7.931 14.982-12.882 21.455-10.904 14.259-26.094 23.777-42.586 27.865-16.394 4.063-33.584.332-47.7-8.943-26.707-17.546-71.655-13.115-92.698 23.333-15.073 26.104-10.713 59.223 10.603 80.54l52.836 52.836c.464.464 1.094.725 1.751.725h45.949c2.206 0 3.311-2.668 1.751-4.228l-75.347-75.347c-9.55-9.551-11.832-24.439-4.961-36.068z" fill="#f9b1b1"/><path d="m300.091 121.18c.008-.007.017-.014.025-.021l.198-.165z" fill="#0681af"/><path d="m441.709 240.034c-.66-28.612-6.995-58.112-18.907-87.942-11.877-29.739-40.453-48.955-72.799-48.955-18.346 0-35.595 6.232-49.887 18.023l-.135.112c-.083.069-.167.138-.251.207-13.295 10.868-22.7 25.634-26.91 42.282-.029.115-.059.231-.089.346-4.413 16.937-3.434 34.58 2.831 51.02 3.175 8.331 5.585 16.715 7.234 25.108l76.755 41.096z" fill="#f37c7c"/><path d="m396.377 244.873c-16.883 0-16.883-6.179-33.765-6.179s-16.882 6.179-33.764 6.179-16.882-6.179-33.763-6.179c-5.498 0-9.205.656-12.288 1.54 5.732 29.173 2.252 58.44-10.385 85.856-4.426 9.603-9.849 18.629-16.118 26.827-2.85 3.727-5.988 7.279-9.369 10.621-23.081 22.813-7.223 62.25 25.229 62.454.362.002.724.003 1.086.003 25.984 0 51.803-6.135 74.665-17.74 24.149-12.259 44.278-29.934 59.827-52.53 20.12-29.246 31.437-62.109 33.636-97.676.368-5.961.482-11.968.342-18.013-2.942-.781-6.491-1.34-11.568-1.34-16.883-.002-16.883 6.177-33.765 6.177z" fill="#fdb441"/><path d="m381.61 131.496c13.463 33.714 20.812 69.575 18.565 105.956-.526 8.504-1.573 16.854-3.137 25.036l44.671-22.453c-.66-28.612-6.995-58.112-18.907-87.942-10.222-25.596-32.815-43.396-59.534-47.859 7.828 7.507 14.134 16.723 18.342 27.262z" fill="#ee6161"/><path d="m441.709 240.034c-2.942-.781-6.491-1.34-11.568-1.34-15.738 0-16.805 5.369-30.554 6.097-3.219 32.755-14.32 63.112-33.048 90.336-15.55 22.596-35.678 40.271-59.827 52.53-20.65 10.483-43.712 16.502-67.13 17.569 5.55 11.767 17.199 20.668 32.572 20.765.362.002.724.003 1.086.003 25.984 0 51.803-6.135 74.665-17.74 24.149-12.259 44.278-29.934 59.827-52.53 20.12-29.246 31.437-62.109 33.636-97.676.367-5.962.481-11.968.341-18.014z" fill="#fea713"/><circle cx="327.082" cy="298.649" fill="#fece85" r="14.216"/><circle cx="341.299" cy="355.515" fill="#fece85" r="14.216"/><path d="m335.862 368.655c1.675.694 3.511 1.077 5.437 1.077 7.851 0 14.216-6.365 14.216-14.216 0-1.769-.323-3.462-.913-5.024-5.78 6.596-12.033 12.656-18.74 18.163z" fill="#fec165"/><g><g><g><g><circle cx="397.26" cy="293.734" fill="#fec165" r="7.5"/></g></g></g></g><g><g><circle cx="377.455" cy="319.359" fill="#fece85" r="7.5"/></g></g><path d="m377.455 326.859c4.142 0 7.5-3.358 7.5-7.5 0-3.221-2.03-5.967-4.88-7.029-2.219 4.394-4.616 8.72-7.191 12.975 1.265.974 2.85 1.554 4.571 1.554z" fill="#fec165"/><g><g><g><circle cx="292.156" cy="363.239" fill="#fece85" r="7.5"/></g></g></g><path d="m122.723 370.739c-4.143 0-7.5 3.358-7.5 7.5 0 1.551.075 3.094.224 4.624 5.422 1.319 10.575 4.208 14.745 8.735 3.016 3.275 6.114 6.419 9.286 9.435-5.903-5.995-9.254-14.199-9.254-22.793-.001-4.143-3.359-7.501-7.501-7.501z" fill="#f79595"/></g></svg>