<svg id="Capa_1" enable-background="new 0 0 512 512" height="512" viewBox="0 0 512 512" width="512" xmlns="http://www.w3.org/2000/svg"><g><path d="m88.349 392.245c9.719-16.451 32.528-18.717 45.513-4.62 81.633 88.625 224.366 79.323 292.147-19.179 46.389-67.425 47.662-148.075 17.522-223.545-26.012-65.133-108.238-85.708-162.32-41.052-.047.039-.095.079-.143.118-8.387 6.949-20.732 6.242-28.028-1.845-15.097-16.732-26.123-36.919-32.124-59.316l-8.982-33.523c-.282-1.051-1.234-1.782-2.322-1.782h-32.652c-1.581 0-2.731 1.499-2.322 3.026l11.17 41.685c9.116 34.021 27.885 64.358 53.664 87.57 5.598 5.04 7.947 12.769 6.048 20.058-5.583 21.427-4.615 44.583 3.666 66.312 10.995 28.852 10.422 58.657-2.333 86.332-3.508 7.611-7.699 14.543-12.504 20.827-10.584 13.841-25.329 23.081-41.339 27.048-15.914 3.944-32.6.322-46.303-8.681-25.924-17.032-69.555-12.731-89.982 22.65-14.631 25.339-10.399 57.488 10.292 78.18l51.288 51.288c.451.451 1.062.704 1.7.704h44.603c2.142 0 3.214-2.59 1.7-4.104l-73.139-73.139c-9.275-9.272-11.489-23.723-4.82-35.012z" fill="#f9b1b1"/><path d="m298.784 125.13c.008-.007.016-.013.025-.02l.192-.16z" fill="#0681af"/><path d="m436.253 240.502c-.641-27.774-6.79-56.409-18.353-85.366-11.529-28.868-39.268-47.521-70.666-47.521-17.808 0-34.552 6.049-48.425 17.495l-.131.109c-.081.067-.162.134-.244.201-12.905 10.55-22.035 24.883-26.121 41.043-.028.112-.057.224-.086.336-4.284 16.441-3.334 33.567 2.748 49.525 3.082 8.087 5.422 16.226 7.022 24.372l74.506 39.892z" fill="#f37c7c"/><path d="m392.249 245.199c-16.388 0-16.388-5.998-32.776-5.998-16.387 0-16.387 5.998-32.775 5.998-16.387 0-16.387-5.998-32.774-5.998-5.337 0-8.935.636-11.928 1.495 5.564 28.319 2.186 56.728-10.081 83.34-4.296 9.321-9.56 18.083-15.646 26.041-2.767 3.618-5.812 7.066-9.094 10.31-22.405 22.144-7.011 60.426 24.49 60.624.351.002.702.003 1.054.003 25.223 0 50.285-5.955 72.477-17.221 23.442-11.9 42.98-29.057 58.074-50.991 19.531-28.389 30.516-60.289 32.65-94.814.358-5.787.468-11.617.332-17.486-2.856-.758-6.301-1.301-11.229-1.301-16.386 0-16.386 5.998-32.774 5.998z" fill="#fdb441"/><path d="m377.915 135.143c13.069 32.727 20.203 67.537 18.021 102.851-.51 8.255-1.527 16.36-3.045 24.303l43.363-21.796c-.641-27.774-6.79-56.409-18.353-85.366-9.923-24.846-31.853-42.125-57.79-46.457 7.597 7.29 13.718 16.236 17.804 26.465z" fill="#ee6161"/><path d="m436.253 240.502c-2.856-.758-6.301-1.301-11.229-1.301-15.277 0-16.313 5.212-29.659 5.919-3.125 31.795-13.9 61.263-32.08 87.689-15.094 21.934-34.633 39.091-58.074 50.991-20.045 10.176-42.431 16.019-65.163 17.054 5.387 11.422 16.695 20.063 31.617 20.156.351.002.702.003 1.054.003 25.223 0 50.285-5.955 72.477-17.221 23.442-11.9 42.98-29.057 58.074-50.991 19.531-28.389 30.516-60.289 32.65-94.814.359-5.786.469-11.616.333-17.485z" fill="#fea713"/><circle cx="324.984" cy="297.4" fill="#fece85" r="13.8"/><circle cx="338.784" cy="352.6" fill="#fece85" r="13.8"/><path d="m333.507 365.354c1.626.673 3.408 1.045 5.277 1.045 7.621 0 13.8-6.178 13.8-13.8 0-1.717-.314-3.361-.887-4.877-5.61 6.404-11.68 12.287-18.19 17.632z" fill="#fec165"/><path d="m450.496 142.119c-13.233-33.137-40.712-57.227-75.39-66.093-34.928-8.931-70.893-.898-98.702 22.065l-.12.099c-5.356 4.438-13.119 3.957-17.675-1.094-14.519-16.091-24.763-35.01-30.449-56.233l-8.981-33.521c-1.158-4.322-5.092-7.342-9.568-7.342h-32.651c-6.513 0-11.254 6.174-9.566 12.467l11.169 41.687c.625 2.33 1.299 4.664 2.003 6.938 1.227 3.956 5.424 6.172 9.384 4.945 3.956-1.226 6.17-5.427 4.944-9.383-.647-2.091-1.268-4.239-1.843-6.382l-9.451-35.272h22.101l7.971 29.746c6.306 23.537 17.678 44.531 33.801 62.399 9.958 11.037 26.816 12.178 38.429 2.557 24.624-20.287 55.756-26.746 85.489-19.144 29.983 7.666 53.739 28.487 65.176 57.124 31.316 78.415 25.373 155.307-16.736 216.512-30.776 44.726-79.691 72.595-134.203 76.462-49.771 3.532-97.925-13.269-134.492-46.443-6.218-5.839-9.773-14.114-9.773-22.804 0-4.142-3.357-7.5-7.5-7.5s-7.5 3.358-7.5 7.5c0 .693.016 1.385.047 2.074-5.429-2.222-11.387-3.091-17.456-2.448-11.377 1.203-21.24 7.543-27.061 17.394-8.345 14.124-5.89 32.271 5.97 44.13l64.44 64.44h-30.189l-49.795-49.795c-18.296-18.296-22.038-46.722-9.101-69.127 7.944-13.76 20.719-23.332 35.971-26.95 15.188-3.604 31.412-1.055 43.398 6.819 15.896 10.445 34.933 13.977 52.226 9.693 18.081-4.482 34.237-15.056 45.491-29.772 5.188-6.785 9.683-14.269 13.358-22.244 13.48-29.25 14.355-61.113 2.53-92.142-7.579-19.886-8.761-41.239-3.417-61.75 2.611-10.023-.563-20.569-8.286-27.523-14.777-13.305-27.062-28.922-36.516-46.418-1.969-3.644-6.518-5.001-10.164-3.033-3.645 1.969-5.002 6.52-3.033 10.164 10.271 19.009 23.62 35.978 39.676 50.435 3.542 3.189 5.001 8.014 3.808 12.594-6.135 23.548-4.78 48.056 3.915 70.874 10.357 27.174 9.618 55.019-2.136 80.522-3.214 6.972-7.134 13.503-11.651 19.411-9.191 12.021-22.397 20.659-37.184 24.324-13.248 3.284-27.964.488-40.381-7.669-15.371-10.098-35.968-13.417-55.098-8.877-19.311 4.582-35.468 16.672-45.498 34.044-16.326 28.274-11.604 64.146 11.483 87.234l51.291 51.291c1.871 1.869 4.357 2.898 7.001 2.898h44.603c4.021 0 7.612-2.4 9.15-6.114s.695-7.951-2.146-10.793l-73.14-73.139c-7.019-7.018-8.524-17.666-3.663-25.894 3.383-5.725 9.113-9.409 15.724-10.108 6.719-.708 13.208 1.751 17.815 6.753 4.071 4.419 8.311 8.626 12.706 12.615.159.148.319.295.481.44 36.084 32.52 82.453 50.361 131.041 50.359 63.726 0 123.088-30.342 159.614-83.423 45.043-65.47 51.545-147.358 18.309-230.579z"/><path d="m279.584 168.301c3.708-14.667 11.867-27.486 23.568-37.052l.395-.325c.002-.002-.001.001.013-.011 12.85-10.587 27.986-15.798 43.674-15.798 8.938 0 17.615 1.651 25.793 4.907 3.846 1.53 8.21-.345 9.742-4.194 1.532-3.848-.346-8.21-4.193-9.742-9.951-3.961-20.496-5.97-31.342-5.97-19.413 0-37.67 6.536-52.853 18.927-.163.127-.136.11-.695.571-14.237 11.639-24.143 27.204-28.653 45.043l-.064.252c-4.679 17.961-3.643 36.664 2.998 54.087 12.53 32.883 12.78 67.966-2.862 101.902-4.065 8.821-9.042 17.106-14.792 24.624-2.536 3.316-5.365 6.523-8.409 9.532-12.604 12.458-16.282 30.397-9.598 46.817 6.646 16.322 21.709 26.53 39.285 26.64l.332.002.071-15-.281-.002c-13.654-.085-22.133-8.991-25.515-17.297-3.412-8.382-3.562-20.794 6.249-30.492 3.535-3.493 6.826-7.224 9.78-11.088 6.421-8.395 11.972-17.633 16.5-27.457 11.718-25.423 15.788-53.052 11.906-80.372.983-.065 2.074-.103 3.291-.103 6.864 0 9.929 1.122 13.809 2.542 4.426 1.62 9.442 3.456 18.965 3.456s14.54-1.836 18.966-3.456c3.88-1.42 6.945-2.542 13.81-2.542s9.93 1.122 13.81 2.542c4.427 1.62 9.443 3.456 18.967 3.456 9.522 0 14.539-1.836 18.965-3.456 3.88-1.42 6.945-2.542 13.81-2.542 1.428 0 2.68.053 3.779.14-.289 37.924-11.296 72.035-31.711 101.709-14.378 20.894-32.98 37.23-55.29 48.556-11.16 5.665-23.123 9.942-35.557 12.713-4.043.901-6.591 4.909-5.689 8.952.9 4.042 4.908 6.591 8.951 5.689 13.657-3.043 26.807-7.746 39.084-13.979 24.568-12.472 45.044-30.447 60.858-53.428 42.555-61.857 43.033-135.542 15.415-204.698-3.54-8.863-8.507-16.961-14.762-24.069-2.737-3.11-7.476-3.412-10.585-.676-3.109 2.737-3.412 7.476-.675 10.585 5.12 5.819 9.188 12.455 12.092 19.723 9.973 24.975 15.819 49.778 17.421 73.864-1.073-.053-2.181-.08-3.332-.08-9.523 0-14.54 1.836-18.966 3.456-3.88 1.42-6.944 2.542-13.809 2.542s-9.931-1.122-13.811-2.542c-4.427-1.62-9.442-3.456-18.966-3.456s-14.54 1.836-18.966 3.456c-3.88 1.42-6.945 2.542-13.81 2.542s-9.929-1.122-13.809-2.542c-4.426-1.62-9.442-3.456-18.965-3.456-2.191 0-4.236.097-6.181.297-1.527-6.152-3.455-12.297-5.761-18.345-5.522-14.491-6.386-30.039-2.501-44.954z"/><path d="m324.984 276.1c-11.745 0-21.3 9.555-21.3 21.3s9.555 21.3 21.3 21.3 21.3-9.555 21.3-21.3-9.555-21.3-21.3-21.3zm0 27.6c-3.474 0-6.3-2.826-6.3-6.3s2.826-6.3 6.3-6.3 6.3 2.826 6.3 6.3-2.826 6.3-6.3 6.3z"/><path d="m317.484 352.6c0 11.745 9.555 21.3 21.3 21.3s21.301-9.555 21.301-21.3-9.556-21.3-21.301-21.3-21.3 9.555-21.3 21.3zm27.601 0c0 3.474-2.826 6.3-6.301 6.3-3.474 0-6.3-2.826-6.3-6.3s2.826-6.3 6.3-6.3 6.301 2.826 6.301 6.3z"/><circle cx="393.106" cy="292.628" r="7.5"/><circle cx="373.881" cy="317.503" r="7.5"/><circle cx="291.082" cy="360.097" r="7.5"/></g></svg>