<svg id="Capa_1" enable-background="new 0 0 504.503 504.503" height="512" viewBox="0 0 504.503 504.503" width="512" xmlns="http://www.w3.org/2000/svg"><g><g><path d="m367.97 144.032c-1.919 0-3.839-.732-5.304-2.196-2.929-2.93-2.929-7.678 0-10.607l129.033-129.033c2.93-2.928 7.678-2.928 10.607 0 2.929 2.93 2.929 7.678 0 10.607l-129.032 129.033c-1.465 1.464-3.385 2.196-5.304 2.196z" fill="#faf8f8"/></g><path d="m390.971 113.531c-8.903-8.903-23.337-8.903-32.239 0l-19.019 19.019-8.511 11.482 28.719 28.719 28.688-27.667c7.067-7.067 10.886-16.935 6.733-25.44-1.079-2.207-2.536-4.277-4.371-6.113z" fill="#bae6ef"/><path d="m390.972 145.77-29.02 29.02-19.939-12.854-12.301-19.386 10-10 19.412 19.412c1.562 1.562 4.095 1.562 5.657 0l26.192-26.192c1.84-1.84 3.29-3.91 4.36-6.12 4.159 8.5 2.7 19.06-4.361 26.12z" fill="#94d8e6"/><path d="m289.952 294.186-131.637 134.037-78.634-78.635 8.062-18.798 27.831-27.829 9.673-1.748.937-8.861 10.886-10.885 7.743.181 2.862-10.785 10.891-10.89 9.148-1.224 1.457-9.38 10.886-10.885 8.605-.681 2-9.924 16.191-16.189 45.032 36.416z" fill="#bae6ef"/><path d="m338.484 212.927-47.22-47.22 8.589-11.207 17.373-17.373c1.953-1.953 5.118-1.953 7.071 0l36.72 36.72 4.486 5.912c1.953 1.953 1.953 5.118 0 7.071z" fill="#bae6ef"/><path d="m367.373 187.28-27.27 27.27-29.111-22.359-21.04-27.791 9.9-9.9 36.008 36.008c2.343 2.343 6.141 2.343 8.484.001l16.667-16.659 6.36 6.36c1.962 1.95 1.962 5.11.002 7.07z" fill="#94d8e6"/><path d="m336.523 253.95-15.701 8.139-6.509 14.071-44.81-35.64-41.16-50.33 22.21-22.21 50.329 41.318z" fill="#bae6ef"/><path d="m285.399 262.089-42.985-42.986 36.334-36.335 42.986 42.986-22.7 15.629z" fill="#faf8f8"/><path d="m316.168 231.325-23.345 23.345-10.044-5.457-6.808-10.692 23.971-23.971 9.135 7.879z" fill="#f0e9e6"/><g><g><path d="m227.553 275.38c-1.46 1.46-3.38 2.19-5.3 2.19s-3.84-.73-5.3-2.19l-36.9-36.9 10.61-10.6 36.89 36.89c2.929 2.93 2.929 7.68 0 10.61z" fill="#94d8e6"/></g><g><path d="m191.732 282.54c-1.46 1.46-3.38 2.2-5.3 2.2s-3.84-.74-5.31-2.2l-22.56-22.57 10.61-10.6 22.56 22.56c2.93 2.93 2.93 7.68 0 10.61z" fill="#94d8e6"/></g><g><path d="m184.573 318.36c-1.47 1.46-3.39 2.2-5.31 2.2s-3.84-.74-5.3-2.2l-36.89-36.89 10.6-10.61 36.9 36.89c2.93 2.93 2.93 7.68 0 10.61z" fill="#94d8e6"/></g><g><path d="m148.753 325.53c-1.47 1.46-3.39 2.19-5.31 2.19s-3.84-.73-5.3-2.19l-22.57-22.57 10.61-10.61 22.57 22.57c2.919 2.93 2.919 7.68 0 10.61z" fill="#94d8e6"/></g></g><path d="m348.396 240.374-11.874 13.576-22.21 22.21-16.129 7.606-5.366 13.889-132.534 132.535-46.44-34.084-39.53-51.886 13.43-13.43 66.176 66.167c3.515 3.514 9.213 3.514 12.727 0l174.538-174.528 7.212 3.805c3.91 3.9 3.91 10.23 0 14.14z" fill="#94d8e6"/><path d="m349.862 239.425-13.34 14.524-85.97-85.97 14.42-14.42c3.91-3.91 10.24-3.91 14.14 0l65.47 65.47 5.28 6.255c3.911 3.901 3.911 10.232 0 14.141z" fill="#faf8f8"/><path d="m314.313 276.16-13.236 6.755-8.254 14.745-85.97-85.97 21.49-21.5z" fill="#faf8f8"/><path d="m350.942 239.53-14.42 14.42-13.43-13.43 21.49-21.49 6.36 6.36c3.911 3.9 3.911 10.23 0 14.14z" fill="#f0e9e6"/><path d="m314.313 276.16-21.49 21.5-13.441-13.44 21.5-21.49z" fill="#f0e9e6"/><path d="m46.707 385.051h53.952v81.865h-53.952z" fill="#faf8f8" transform="matrix(.707 .707 -.707 .707 322.797 72.667)"/><path d="m51.162 436.617h81.862v15.556h-81.862z" fill="#f0e9e6" transform="matrix(.707 -.707 .707 .707 -287.283 195.312)"/><g><path d="m43.312 468.69c-1.919 0-3.839-.732-5.304-2.196-2.929-2.93-2.929-7.678 0-10.607l65.936-65.936c2.93-2.928 7.678-2.928 10.607 0 2.929 2.93 2.929 7.678 0 10.607l-65.936 65.936c-1.464 1.464-3.384 2.196-5.303 2.196z" fill="#f0e9e6"/></g><path d="m153.588 462.936-111.575-112.957c-3.905-3.905-3.905-10.237 0-14.142l-.071-1.517 4.52-4.52c3.905-3.905 10.237-3.905 14.142 0l110.269 110.269 1.353 2.491c3.905 3.905 3.905 10.237 0 14.142l-4.496 6.234c-3.905 3.905-10.237 3.905-14.142 0z" fill="#bae6ef"/><path d="m174.702 458.04-7.35 7.35c-3.91 3.91-10.24 3.91-14.14 0l-114.1-114.1c-3.91-3.9-3.91-10.23 0-14.14l2.83-2.83 113.805 113.804c1.953 1.953 5.118 1.953 7.071 0l8.054-8.054 3.83 3.83c3.91 3.9 3.91 10.24 0 14.14z" fill="#94d8e6"/><path d="m66.611 499.766-62.045-61.447c-3.905-3.905-3.905-10.237 0-14.142l1.194-2.809 4.522-4.522c3.905-3.905 10.237-3.905 14.142 0l60.401 60.401 1.103 2.76c3.905 3.905 3.905 10.237 0 14.142l-5.175 5.617c-3.905 3.905-10.236 3.905-14.142 0z" fill="#bae6ef"/><path d="m87.653 494.22-7.35 7.35c-3.9 3.91-10.23 3.91-14.14 0l-63.23-63.23c-3.91-3.91-3.91-10.24 0-14.14l2.83-2.83 65.349 65.348c1.172 1.172 3.071 1.172 4.243 0l9.469-9.469 2.83 2.83c3.909 3.901 3.909 10.241-.001 14.141z" fill="#94d8e6"/></g></svg>