<?xml version="1.0" encoding="UTF-8" standalone="no"?>
<!-- Created with Inkscape (http://www.inkscape.org/) -->

<svg
   version="1.1"
   id="svg9843"
   xml:space="preserve"
   width="682.66669"
   height="682.66669"
   viewBox="0 0 682.66669 682.66669"
   xmlns="http://www.w3.org/2000/svg"
   xmlns:svg="http://www.w3.org/2000/svg"><defs
     id="defs9847"><clipPath
       clipPathUnits="userSpaceOnUse"
       id="clipPath9857"><path
         d="M 0,512 H 512 V 0 H 0 Z"
         id="path9855" /></clipPath></defs><g
     id="g9849"
     transform="matrix(1.3333333,0,0,-1.3333333,0,682.66667)"><g
       id="g9851"><g
         id="g9853"
         clip-path="url(#clipPath9857)"><g
           id="g9859"
           transform="translate(398.4687,398.4687)"><path
             d="m 0,0 v 0 c -8.903,8.902 -23.337,8.902 -32.239,0 l -19.02,-19.02 -8.511,-11.481 28.72,-28.72 28.688,27.667 C 4.705,-24.486 8.524,-14.619 4.37,-6.114 3.292,-3.906 1.835,-1.836 0,0"
             style="fill:#bae6ef;fill-opacity:1;fill-rule:nonzero;stroke:none"
             id="path9861" /></g><g
           id="g9863"
           transform="translate(398.4697,366.2305)"><path
             d="m 0,0 -29.02,-29.021 -19.939,12.854 -12.301,19.387 10,10 19.411,-19.412 c 1.563,-1.562 4.095,-1.562 5.658,0 L 0,20 c 1.841,1.84 3.29,3.91 4.36,6.119 C 8.521,17.619 7.061,7.06 0,0"
             style="fill:#94d8e6;fill-opacity:1;fill-rule:nonzero;stroke:none"
             id="path9865" /></g><g
           id="g9867"
           transform="translate(297.4502,217.8145)"><path
             d="m 0,0 -131.637,-134.037 -78.635,78.635 8.062,18.797 27.831,27.829 9.674,1.749 0.936,8.861 10.886,10.884 7.743,-0.181 2.863,10.786 10.89,10.889 9.148,1.224 1.458,9.38 10.885,10.885 8.605,0.682 2,9.923 16.19,16.19 45.034,-36.417 z"
             style="fill:#bae6ef;fill-opacity:1;fill-rule:nonzero;stroke:none"
             id="path9869" /></g><g
           id="g9871"
           transform="translate(345.9814,299.0723)"><path
             d="m 0,0 -47.221,47.221 8.589,11.207 17.373,17.373 c 1.953,1.952 5.119,1.952 7.071,0 l 36.72,-36.72 4.487,-5.912 c 1.952,-1.952 1.952,-5.118 0,-7.071 z"
             style="fill:#bae6ef;fill-opacity:1;fill-rule:nonzero;stroke:none"
             id="path9873" /></g><g
           id="g9875"
           transform="translate(374.8701,324.7197)"><path
             d="m 0,0 -27.271,-27.27 -29.11,22.359 -21.039,27.791 9.899,9.9 36.009,-36.009 c 2.343,-2.342 6.141,-2.342 8.485,0 L -6.36,13.431 0,7.07 C 1.96,5.12 1.96,1.96 0,0"
             style="fill:#94d8e6;fill-opacity:1;fill-rule:nonzero;stroke:none"
             id="path9877" /></g><g
           id="g9879"
           transform="translate(344.0195,258.0498)"><path
             d="m 0,0 -15.7,-8.139 -6.509,-14.071 -44.811,35.641 -41.16,50.33 22.21,22.209 50.33,-41.318 z"
             style="fill:#bae6ef;fill-opacity:1;fill-rule:nonzero;stroke:none"
             id="path9881" /></g><g
           id="g9883"
           transform="translate(292.8965,249.9111)"><path
             d="M 0,0 -42.985,42.985 -6.65,79.32 36.335,36.335 13.636,20.706 Z"
             style="fill:#faf8f8;fill-opacity:1;fill-rule:nonzero;stroke:none"
             id="path9885" /></g><g
           id="g9887"
           transform="translate(323.665,280.6748)"><path
             d="m 0,0 -23.345,-23.345 -10.044,5.457 -6.807,10.692 23.971,23.971 9.134,-7.879 z"
             style="fill:#f0e9e6;fill-opacity:1;fill-rule:nonzero;stroke:none"
             id="path9889" /></g><g
           id="g9891"
           transform="translate(355.8936,271.626)"><path
             d="m 0,0 -11.874,-13.576 -22.209,-22.21 -16.13,-7.606 -5.365,-13.889 -132.535,-132.534 -46.44,34.083 -39.53,51.886 13.43,13.43 66.175,-66.167 c 3.515,-3.515 9.213,-3.515 12.728,0 L -7.212,17.945 0,14.14 C 3.91,10.24 3.91,3.91 0,0"
             style="fill:#94d8e6;fill-opacity:1;fill-rule:nonzero;stroke:none"
             id="path9893" /></g><g
           id="g9895"
           transform="translate(357.3604,272.5742)"><path
             d="m 0,0 -13.341,-14.524 -85.97,85.969 14.42,14.42 c 3.911,3.91 10.241,3.91 14.14,0 L -5.28,20.396 0,14.141 C 3.91,10.24 3.91,3.91 0,0"
             style="fill:#faf8f8;fill-opacity:1;fill-rule:nonzero;stroke:none"
             id="path9897" /></g><g
           id="g9899"
           transform="translate(321.8105,235.8398)"><path
             d="m 0,0 -13.236,-6.755 -8.254,-14.745 -85.971,85.971 21.49,21.5 z"
             style="fill:#faf8f8;fill-opacity:1;fill-rule:nonzero;stroke:none"
             id="path9901" /></g><g
           id="g9903"
           transform="translate(358.4395,272.4697)"><path
             d="M 0,0 -14.42,-14.42 -27.85,-0.989 -6.359,20.5 0,14.14 C 3.91,10.24 3.91,3.91 0,0"
             style="fill:#f0e9e6;fill-opacity:1;fill-rule:nonzero;stroke:none"
             id="path9905" /></g><g
           id="g9907"
           transform="translate(321.8105,235.8398)"><path
             d="m 0,0 -21.49,-21.5 -13.441,13.44 21.5,21.49 z"
             style="fill:#f0e9e6;fill-opacity:1;fill-rule:nonzero;stroke:none"
             id="path9909" /></g><g
           id="g9911"
           transform="translate(71.3105,37.998)"><path
             d="M 0,0 -38.149,38.149 19.738,96.036 57.888,57.887 Z"
             style="fill:#faf8f8;fill-opacity:1;fill-rule:nonzero;stroke:none"
             id="path9913" /></g><g
           id="g9915"
           transform="translate(134.0303,91.0498)"><path
             d="m 0,0 -57.88,-57.89 -11,11 L -11,11 Z"
             style="fill:#f0e9e6;fill-opacity:1;fill-rule:nonzero;stroke:none"
             id="path9917" /></g><g
           id="g9919"
           transform="translate(161.085,49.0635)"><path
             d="m 0,0 -111.574,112.958 c -3.905,3.905 -3.905,10.236 0,14.142 l -0.072,1.517 4.52,4.52 c 3.905,3.905 10.237,3.905 14.143,0 l 110.269,-110.27 1.353,-2.49 c 3.905,-3.905 3.905,-10.237 0,-14.143 L 14.143,0 C 10.237,-3.905 3.905,-3.905 0,0"
             style="fill:#bae6ef;fill-opacity:1;fill-rule:nonzero;stroke:none"
             id="path9921" /></g><g
           id="g9923"
           transform="translate(182.2002,53.96)"><path
             d="m 0,0 -7.351,-7.351 c -3.91,-3.909 -10.239,-3.909 -14.139,0 l -114.1,114.101 c -3.91,3.899 -3.91,10.229 0,14.14 l 2.829,2.83 L -18.956,9.916 c 1.953,-1.953 5.119,-1.953 7.071,0 L -3.83,17.97 0,14.14 C 3.909,10.24 3.909,3.899 0,0"
             style="fill:#94d8e6;fill-opacity:1;fill-rule:nonzero;stroke:none"
             id="path9925" /></g><g
           id="g9927"
           transform="translate(74.1084,12.2344)"><path
             d="m 0,0 -62.045,61.446 c -3.905,3.906 -3.905,10.238 0,14.143 l 1.194,2.808 4.522,4.523 c 3.905,3.905 10.237,3.905 14.142,0 l 60.402,-60.401 1.102,-2.76 c 3.906,-3.905 3.906,-10.238 0,-14.143 L 14.143,0 C 10.237,-3.905 3.905,-3.905 0,0"
             style="fill:#bae6ef;fill-opacity:1;fill-rule:nonzero;stroke:none"
             id="path9929" /></g><g
           id="g9931"
           transform="translate(95.1504,17.7803)"><path
             d="m 0,0 -7.351,-7.351 c -3.899,-3.91 -10.229,-3.91 -14.139,0 L -84.721,55.88 c -3.91,3.91 -3.91,10.24 0,14.14 l 2.83,2.83 65.349,-65.349 c 1.172,-1.171 3.071,-1.171 4.243,0 L -2.83,16.97 0,14.14 C 3.91,10.239 3.91,3.899 0,0"
             style="fill:#94d8e6;fill-opacity:1;fill-rule:nonzero;stroke:none"
             id="path9933" /></g><g
           id="g9935"
           transform="translate(200.376,114.4043)"><path
             d="M 0,0 -32.213,-32.213"
             style="fill:none;stroke:#000000;stroke-width:15;stroke-linecap:round;stroke-linejoin:round;stroke-miterlimit:10;stroke-dasharray:none;stroke-opacity:1"
             id="path9937" /></g><g
           id="g9939"
           transform="translate(82.2119,168.1836)"><path
             d="m 0,0 190.258,190.258 c 3.905,3.905 10.237,3.905 14.142,0 l 71.829,-71.829 c 3.906,-3.906 3.906,-10.238 0,-14.143 L 142.816,-29.127"
             style="fill:none;stroke:#000000;stroke-width:15;stroke-linecap:round;stroke-linejoin:round;stroke-miterlimit:10;stroke-dasharray:none;stroke-opacity:1"
             id="path9941" /></g><g
           id="g9943"
           transform="translate(160.707,46.6084)"><path
             d="m 0,0 -114.099,114.099 c -3.905,3.905 -3.905,10.237 0,14.142 l 7.351,7.351 c 3.905,3.905 10.237,3.905 14.143,0 L 21.493,21.493 c 3.905,-3.905 3.905,-10.237 0,-14.142 L 14.143,0 C 10.237,-3.905 3.905,-3.905 0,0 Z"
             style="fill:none;stroke:#000000;stroke-width:15;stroke-linecap:round;stroke-linejoin:round;stroke-miterlimit:10;stroke-dasharray:none;stroke-opacity:1"
             id="path9945" /></g><g
           id="g9947"
           transform="translate(24.7256,59.3643)"><path
             d="m 0,0 -14.297,14.297 c -3.905,3.905 -3.905,10.237 0,14.142 l 7.351,7.351 c 3.905,3.905 10.237,3.905 14.142,0 l 63.233,-63.232 c 3.905,-3.906 3.905,-10.238 0,-14.143 l -7.351,-7.351 c -3.905,-3.905 -10.237,-3.905 -14.142,0 l -24.297,24.297"
             style="fill:none;stroke:#000000;stroke-width:15;stroke-linecap:round;stroke-linejoin:round;stroke-miterlimit:10;stroke-dasharray:none;stroke-opacity:1"
             id="path9949" /></g><g
           id="g9951"
           transform="translate(124.9766,81.9912)"><path
             d="M 0,0 -39.431,-39.431"
             style="fill:none;stroke:#000000;stroke-width:15;stroke-linecap:round;stroke-linejoin:round;stroke-miterlimit:10;stroke-dasharray:none;stroke-opacity:1"
             id="path9953" /></g><g
           id="g9955"
           transform="translate(42.3047,85.291)"><path
             d="M 0,0 39.767,39.766"
             style="fill:none;stroke:#000000;stroke-width:15;stroke-linecap:round;stroke-linejoin:round;stroke-miterlimit:10;stroke-dasharray:none;stroke-opacity:1"
             id="path9957" /></g><g
           id="g9959"
           transform="translate(297.8398,347.9902)"><path
             d="m 0,0 26.883,26.883 c 1.953,1.952 5.119,1.952 7.071,0 l 43.079,-43.079 c 1.952,-1.952 1.952,-5.118 0,-7.072 L 50.107,-50.193"
             style="fill:none;stroke:#000000;stroke-width:15;stroke-linecap:round;stroke-linejoin:round;stroke-miterlimit:10;stroke-dasharray:none;stroke-opacity:1"
             id="path9961" /></g><g
           id="g9963"
           transform="translate(369.9277,337.6885)"><path
             d="m 0,0 28.541,28.541 c 8.902,8.902 8.902,23.336 0,32.239 -8.903,8.903 -23.337,8.903 -32.239,0 L -32.366,32.112"
             style="fill:none;stroke:#000000;stroke-width:15;stroke-linecap:round;stroke-linejoin:round;stroke-miterlimit:10;stroke-dasharray:none;stroke-opacity:1"
             id="path9965" /></g><g
           id="g9967"
           transform="translate(258.7646,343.3037)"><path
             d="M 0,0 84.539,-84.539"
             style="fill:none;stroke:#000000;stroke-width:15;stroke-linecap:round;stroke-linejoin:round;stroke-miterlimit:10;stroke-dasharray:none;stroke-opacity:1"
             id="path9969" /></g><g
           id="g9971"
           transform="translate(236.5557,321.0937)"><path
             d="M 0,0 84.538,-84.538"
             style="fill:none;stroke:#000000;stroke-width:15;stroke-linecap:round;stroke-linejoin:round;stroke-miterlimit:10;stroke-dasharray:none;stroke-opacity:1"
             id="path9973" /></g><g
           id="g9975"
           transform="translate(267.6514,247.0127)"><path
             d="M 0,0 31.95,-31.95"
             style="fill:none;stroke:#000000;stroke-width:15;stroke-linecap:round;stroke-linejoin:round;stroke-miterlimit:10;stroke-dasharray:none;stroke-opacity:1"
             id="path9977" /></g><g
           id="g9979"
           transform="translate(215.0625,299.6016)"><path
             d="M 0,0 28.078,-28.078"
             style="fill:none;stroke:#000000;stroke-width:15;stroke-linecap:round;stroke-linejoin:round;stroke-miterlimit:10;stroke-dasharray:none;stroke-opacity:1"
             id="path9981" /></g><g
           id="g9983"
           transform="translate(257.7197,300.7061)"><path
             d="M 0,0 21.105,21.104"
             style="fill:none;stroke:#000000;stroke-width:15;stroke-linecap:round;stroke-linejoin:round;stroke-miterlimit:10;stroke-dasharray:none;stroke-opacity:1"
             id="path9985" /></g><g
           id="g9987"
           transform="translate(321.8105,278.8252)"><path
             d="M 0,0 -21.19,-21.19"
             style="fill:none;stroke:#000000;stroke-width:15;stroke-linecap:round;stroke-linejoin:round;stroke-miterlimit:10;stroke-dasharray:none;stroke-opacity:1"
             id="path9989" /></g><g
           id="g9991"
           transform="translate(193.2119,278.4668)"><path
             d="M 0,0 36.537,-36.538"
             style="fill:none;stroke:#000000;stroke-width:15;stroke-linecap:round;stroke-linejoin:round;stroke-miterlimit:10;stroke-dasharray:none;stroke-opacity:1"
             id="path9993" /></g><g
           id="g9995"
           transform="translate(171.7187,256.9736)"><path
             d="M 0,0 22.209,-22.209"
             style="fill:none;stroke:#000000;stroke-width:15;stroke-linecap:round;stroke-linejoin:round;stroke-miterlimit:10;stroke-dasharray:none;stroke-opacity:1"
             id="path9997" /></g><g
           id="g9999"
           transform="translate(150.2256,235.4805)"><path
             d="M 0,0 36.538,-36.537"
             style="fill:none;stroke:#000000;stroke-width:15;stroke-linecap:round;stroke-linejoin:round;stroke-miterlimit:10;stroke-dasharray:none;stroke-opacity:1"
             id="path10001" /></g><g
           id="g10003"
           transform="translate(128.7334,213.9883)"><path
             d="M 0,0 22.209,-22.21"
             style="fill:none;stroke:#000000;stroke-width:15;stroke-linecap:round;stroke-linejoin:round;stroke-miterlimit:10;stroke-dasharray:none;stroke-opacity:1"
             id="path10005" /></g><g
           id="g10007"
           transform="translate(63.8965,63.8965)"><path
             d="M 0,0 39.762,39.762"
             style="fill:none;stroke:#000000;stroke-width:15;stroke-linecap:round;stroke-linejoin:round;stroke-miterlimit:10;stroke-dasharray:none;stroke-opacity:1"
             id="path10009" /></g><g
           id="g10011"
           transform="translate(398.4687,398.4687)"><path
             d="M 0,0 106.031,106.031"
             style="fill:none;stroke:#000000;stroke-width:15;stroke-linecap:round;stroke-linejoin:round;stroke-miterlimit:10;stroke-dasharray:none;stroke-opacity:1"
             id="path10013" /></g></g></g></g></svg>
