<?xml version="1.0" encoding="iso-8859-1"?>
<!-- Generator: Adobe Illustrator 19.0.0, SVG Export Plug-In . SVG Version: 6.00 Build 0)  -->
<svg version="1.1" id="Capa_1" xmlns="http://www.w3.org/2000/svg" xmlns:xlink="http://www.w3.org/1999/xlink" x="0px" y="0px"
	 viewBox="0 0 512 512" style="enable-background:new 0 0 512 512;" xml:space="preserve">
<path style="fill:#FFB123;" d="M362.456,0h-40.555c-4.2,0-7.604,3.404-7.604,7.604v294.018v202.774c0,4.199,3.403,7.604,7.604,7.604
	h40.555c4.2,0,7.604-3.404,7.604-7.604V301.622V7.604C370.06,3.404,366.656,0,362.456,0z"/>
<path style="fill:#FF4C4D;" d="M266.14,370.051c-26.554,0-48.157-21.604-48.157-48.157s21.604-48.157,48.157-48.157
	s48.157,21.604,48.157,48.157S292.694,370.051,266.14,370.051z"/>
<path style="fill:#F23939;" d="M266.14,273.736c-5.315,0-10.424,0.878-15.21,2.475c19.121,6.383,32.949,24.443,32.949,45.683
	c0,21.239-13.828,39.3-32.949,45.683c4.785,1.597,9.895,2.475,15.21,2.475c26.554,0,48.157-21.604,48.157-48.157
	S292.694,273.736,266.14,273.736z"/>
<path style="fill:#F3E8D6;" d="M266.139,390.328c-4.2,0-7.604-3.404-7.604-7.604v-60.83c0-4.199,3.403-7.604,7.604-7.604
	c4.2,0,7.604,3.404,7.604,7.604v60.83C273.743,386.923,270.339,390.328,266.139,390.328z"/>
<path style="fill:#CCC8CA;" d="M233.193,438.494c0-12.579-10.234-22.811-22.811-22.811c-12.578,0-22.811,10.233-22.811,22.811
	c0,9.912,6.357,18.365,15.208,21.504v29.18c0,4.193-3.411,7.604-7.604,7.604c-3.426,0-6.326-2.278-7.275-5.398
	c0.719,0.217,1.463,0.328,2.208,0.328c1.946,0,3.892-0.742,5.377-2.227c2.97-2.97,2.97-7.784-0.001-10.754l-10.136-10.135
	c-0.178-0.178-0.366-0.348-0.562-0.508c-0.087-0.072-0.18-0.135-0.271-0.202c-0.107-0.081-0.214-0.165-0.326-0.24
	c-0.108-0.074-0.224-0.137-0.337-0.205c-0.099-0.06-0.197-0.123-0.3-0.177c-0.117-0.063-0.236-0.116-0.356-0.171
	c-0.105-0.05-0.21-0.103-0.317-0.148c-0.117-0.049-0.236-0.088-0.355-0.13c-0.116-0.041-0.23-0.086-0.348-0.122
	c-0.119-0.036-0.239-0.063-0.36-0.092c-0.121-0.03-0.24-0.064-0.363-0.088c-0.136-0.026-0.274-0.043-0.411-0.062
	c-0.107-0.016-0.216-0.036-0.325-0.048c-0.249-0.024-0.5-0.038-0.75-0.038l0,0c-0.002,0-0.003,0-0.004,0
	c-0.249,0.001-0.497,0.013-0.745,0.038c-0.118,0.012-0.232,0.033-0.35,0.051c-0.129,0.018-0.258,0.033-0.385,0.059
	c-0.133,0.026-0.261,0.062-0.39,0.095c-0.111,0.027-0.222,0.052-0.332,0.085c-0.127,0.039-0.249,0.086-0.374,0.131
	c-0.109,0.04-0.22,0.075-0.327,0.12c-0.117,0.049-0.228,0.105-0.343,0.159c-0.111,0.053-0.223,0.101-0.332,0.159
	c-0.109,0.06-0.214,0.126-0.32,0.191c-0.106,0.064-0.214,0.124-0.317,0.193c-0.116,0.077-0.225,0.163-0.336,0.246
	c-0.088,0.066-0.178,0.127-0.264,0.197c-0.184,0.15-0.359,0.309-0.527,0.477c-0.01,0.01-0.02,0.018-0.03,0.027
	c-0.012,0.012-0.021,0.025-0.033,0.038c-0.164,0.166-0.32,0.339-0.469,0.519c-0.075,0.091-0.141,0.189-0.211,0.283
	c-0.078,0.104-0.159,0.206-0.232,0.315c-0.073,0.109-0.138,0.225-0.206,0.338c-0.06,0.099-0.122,0.198-0.176,0.3
	c-0.062,0.116-0.115,0.234-0.17,0.352c-0.051,0.106-0.104,0.212-0.148,0.321c-0.049,0.116-0.087,0.233-0.129,0.351
	c-0.042,0.117-0.087,0.232-0.123,0.351c-0.035,0.118-0.062,0.237-0.092,0.357c-0.03,0.122-0.065,0.241-0.089,0.366
	c-0.026,0.137-0.044,0.275-0.064,0.414c-0.015,0.107-0.035,0.214-0.047,0.322c-0.024,0.251-0.038,0.503-0.038,0.754v15.206
	c0,12.579,10.234,22.811,22.811,22.811c12.578,0,22.811-10.233,22.811-22.811v-29.18
	C226.835,456.859,233.193,448.407,233.193,438.494z M210.381,446.098c-4.193,0-7.604-3.411-7.604-7.604s3.411-7.604,7.604-7.604
	s7.604,3.411,7.604,7.604C217.985,442.688,214.574,446.098,210.381,446.098z"/>
<path style="fill:#F3E8D6;" d="M190.103,152.076C118.826,152.077,60.84,210.065,60.84,281.341
	c0,71.277,57.988,129.265,129.265,129.265c0.003,0,0.006,0,0.01,0c4.915,0.004,9.175,2.826,11.272,6.93
	c2.763-1.189,5.802-1.851,8.995-1.851c2.374,0,4.665,0.365,6.819,1.041c-2.956-12.221-13.98-21.327-27.096-21.327
	c-0.005,0-0.01,0.001-0.016,0.001c-62.883-0.009-114.041-51.172-114.041-114.057c0-62.892,51.167-114.057,114.057-114.057h124.194
	v-15.208H190.103V152.076z"/>
<path id="SVGCleanerId_0" style="fill:#FF901D;" d="M362.456,0h-30.418c4.2,0,7.604,3.404,7.604,7.604v294.018v202.774
	c0,4.199-3.403,7.604-7.604,7.604h30.418c4.2,0,7.604-3.404,7.604-7.604V301.622V7.604C370.06,3.404,366.656,0,362.456,0z"/>
<path style="fill:#F3E8D6;" d="M367.518,0c-0.889,0-1.739,0.16-2.531,0.441c2.952,1.044,5.072,3.853,5.072,7.163v7.669
	c36.561,1.343,65.893,31.488,65.893,68.37s-29.332,67.026-65.893,68.369v15.208c44.946-1.351,81.1-38.31,81.1-83.577
	C451.16,37.521,413.638,0,367.518,0z"/>
<g>
	<path id="SVGCleanerId_0_1_" style="fill:#FF901D;" d="M362.456,0h-30.418c4.2,0,7.604,3.404,7.604,7.604v294.018v202.774
		c0,4.199-3.403,7.604-7.604,7.604h30.418c4.2,0,7.604-3.404,7.604-7.604V301.622V7.604C370.06,3.404,366.656,0,362.456,0z"/>
</g>
<path style="fill:#0072A2;" d="M314.298,334.567v169.83c0,4.199,3.403,7.604,7.604,7.604h40.555c4.2,0,7.604-3.404,7.604-7.604
	v-169.83H314.298z"/>
<g>
	<path style="fill:#006289;" d="M339.642,504.396c0,4.199-3.403,7.604-7.604,7.604h30.418c4.2,0,7.604-3.404,7.604-7.604v-169.83
		h-30.418V504.396z"/>
	<rect x="314.301" y="375.121" style="fill:#006289;" width="55.761" height="15.208"/>
	<rect x="314.301" y="415.675" style="fill:#006289;" width="55.761" height="15.208"/>
	<rect x="314.301" y="456.229" style="fill:#006289;" width="55.761" height="15.208"/>
</g>
<g>
	<rect x="339.637" y="375.121" style="fill:#005772;" width="30.415" height="15.208"/>
	<rect x="339.637" y="415.675" style="fill:#005772;" width="30.415" height="15.208"/>
	<rect x="339.637" y="456.229" style="fill:#005772;" width="30.415" height="15.208"/>
</g>
<g>
</g>
<g>
</g>
<g>
</g>
<g>
</g>
<g>
</g>
<g>
</g>
<g>
</g>
<g>
</g>
<g>
</g>
<g>
</g>
<g>
</g>
<g>
</g>
<g>
</g>
<g>
</g>
<g>
</g>
</svg>
