<?xml version="1.0" encoding="iso-8859-1"?>
<!-- Generator: Adobe Illustrator 19.0.0, SVG Export Plug-In . SVG Version: 6.00 Build 0)  -->
<svg version="1.1" id="Capa_1" xmlns="http://www.w3.org/2000/svg" xmlns:xlink="http://www.w3.org/1999/xlink" x="0px" y="0px"
	 viewBox="0 0 512 512" style="enable-background:new 0 0 512 512;" xml:space="preserve">
<path style="fill:#FFB123;" d="M486.649,435.962V321.899c0-0.001,0-0.001,0-0.002c0-0.001,0-0.002,0-0.002
	c0-110.684-78.849-205.276-185.883-226.307c-10.703,12.826-26.796,21.004-44.767,21.004s-34.064-8.178-44.766-21.004
	C104.2,116.617,25.351,211.208,25.351,321.895c0,0,0,0.001,0,0.003c0,0,0,0.001,0,0.002v114.062H486.649z"/>
<path style="fill:#FF901D;" d="M300.766,95.588c-1.849,2.216-3.87,4.282-6.023,6.203c94.405,29.614,161.487,118.012,161.487,220.103
	c0,0,0,0.001,0,0.003c0,0,0,0.001,0,0.002v114.063h30.418V321.899c0-0.001,0-0.001,0-0.002c0-0.001,0-0.002,0-0.002
	C486.649,211.211,407.799,116.618,300.766,95.588z"/>
<path style="fill:#F3E8D6;" d="M255.999,116.592c-32.144,0-58.296-26.151-58.296-58.296C197.703,26.152,223.855,0,255.999,0
	c32.145,0,58.297,26.152,58.297,58.296C314.296,90.441,288.144,116.592,255.999,116.592z"/>
<path style="fill:#E5D8C6;" d="M255.999,86.177c-15.373,0-27.881-12.507-27.881-27.881s12.508-27.881,27.881-27.881
	c15.374,0,27.882,12.507,27.882,27.881S271.373,86.177,255.999,86.177z"/>
<path style="fill:#FF4C4D;" d="M473.665,296.245l-14.9,14.9v-0.001l-14.898-14.9c-2.971-2.97-7.784-2.97-10.754,0l-14.9,14.9v-0.001
	l-14.898-14.9c-2.971-2.97-7.784-2.97-10.754,0l-14.9,14.9v-0.001l-14.898-14.9c-2.971-2.97-7.784-2.97-10.754,0l-14.9,14.9v-0.001
	l-14.898-14.9c-2.971-2.97-7.784-2.97-10.754,0l-14.9,14.9v-0.001l-14.898-14.9c-2.971-2.97-7.784-2.97-10.754,0l-14.9,14.9v-0.001
	l-14.898-14.9c-2.971-2.97-7.784-2.97-10.754,0l-14.9,14.9v-0.001l-14.899-14.9c-2.97-2.97-7.784-2.97-10.753,0l-14.9,14.9v-0.001
	l-14.9-14.9c-2.97-2.97-7.784-2.97-10.753,0l-14.909,14.909v-0.001l-14.899-14.9c-2.97-2.97-7.784-2.97-10.753,0L93.78,311.146
	v-0.001l-14.9-14.9c-2.97-2.97-7.784-2.97-10.753,0l-14.9,14.9v-0.001l-14.899-14.9c-2.97-2.97-7.784-2.97-10.753,0l-0.88,0.88
	c-0.877,8.15-1.341,16.412-1.341,24.769c0,0,0,0.001,0,0.003c0,0,0,0.001,0,0.002v48.763l7.598-7.598l14.9,14.9
	c1.484,1.484,3.431,2.227,5.376,2.227h-0.001c1.946,0,3.892-0.742,5.376-2.227l14.9-14.901l14.899,14.9
	c1.485,1.484,3.431,2.227,5.377,2.227l0,0c1.947,0,3.892-0.742,5.377-2.227l14.899-14.9l14.9,14.9
	c1.484,1.484,3.431,2.227,5.376,2.227h0.001c1.946,0,3.892-0.742,5.376-2.227l14.9-14.9l14.899,14.9
	c1.485,1.484,3.431,2.227,5.377,2.227l0,0c1.947,0,3.892-0.742,5.377-2.227l14.899-14.9l14.9,14.9
	c1.485,1.484,3.431,2.227,5.376,2.227h0.001c1.946,0,3.892-0.742,5.377-2.227l14.899-14.9l14.899,14.9
	c1.485,1.484,3.432,2.227,5.376,2.227h0.002c1.945,0,3.891-0.742,5.376-2.227l14.9-14.9l14.898,14.9
	c1.485,1.484,3.432,2.227,5.376,2.227h0.002c1.945,0,3.891-0.742,5.376-2.227l14.9-14.9l14.898,14.9
	c1.485,1.484,3.432,2.227,5.376,2.227h0.002c1.945,0,3.891-0.742,5.376-2.227l14.9-14.9l14.898,14.9
	c1.485,1.484,3.432,2.227,5.376,2.227h0.002c1.945,0,3.891-0.742,5.376-2.227l14.9-14.9l14.898,14.9
	c1.485,1.484,3.432,2.227,5.376,2.227h0.002c1.945,0,3.891-0.742,5.376-2.227l14.9-14.9l14.898,14.9
	c1.485,1.484,3.432,2.227,5.376,2.227h0.002c1.945,0,3.891-0.742,5.376-2.227l14.9-14.9l7.606,7.607v-48.77c0-0.001,0-0.001,0-0.002
	c0-0.001,0-0.002,0-0.002c0-8.355-0.463-16.614-1.34-24.76l-0.889-0.889C481.449,293.276,476.635,293.276,473.665,296.245z"/>
<path style="fill:#F23939;" d="M486.568,316.015c-0.011-0.435-0.029-0.868-0.044-1.303c-0.051-1.611-0.114-3.219-0.198-4.822
	c-0.017-0.329-0.036-0.658-0.055-0.987c-0.106-1.853-0.229-3.703-0.377-5.545c-0.004-0.05-0.008-0.099-0.012-0.149
	c-0.165-2.032-0.357-4.057-0.574-6.075l-0.889-0.889c-2.971-2.97-7.784-2.97-10.754,0l-14.9,14.9v-0.001l-2.942-2.942
	c0.269,4.534,0.409,9.098,0.409,13.691c0,0,0,0.001,0,0.003c0,0,0,0.001,0,0.002v57.849c0.819,0.289,1.675,0.442,2.534,0.442h0.002
	c1.945,0,3.891-0.742,5.376-2.227l14.9-14.9l7.606,7.607v-48.77c0-0.001,0-0.001,0-0.002c0-0.001,0-0.002,0-0.002
	C486.649,319.929,486.618,317.97,486.568,316.015z"/>
<path style="fill:#FF4C4D;" d="M489.184,512H22.817c-9.783,0-17.742-7.96-17.742-17.742v-40.554c0-9.783,7.96-17.742,17.742-17.742
	h466.367c9.783,0,17.742,7.96,17.742,17.742v40.554C506.926,504.04,498.966,512,489.184,512z"/>
<g>
	<path style="fill:#F23939;" d="M489.184,435.962h-30.418c9.783,0,17.742,7.96,17.742,17.742v40.554
		c0,9.783-7.96,17.742-17.742,17.742h30.418c9.783,0,17.742-7.96,17.742-17.742v-40.554
		C506.926,443.921,498.966,435.962,489.184,435.962z"/>
	<rect x="45.623" y="435.962" style="fill:#F23939;" width="15.208" height="76.038"/>
	<rect x="96.315" y="435.962" style="fill:#F23939;" width="15.208" height="76.038"/>
	<rect x="147.007" y="435.962" style="fill:#F23939;" width="15.208" height="76.038"/>
	<rect x="197.699" y="435.962" style="fill:#F23939;" width="15.208" height="76.038"/>
	<rect x="248.391" y="435.962" style="fill:#F23939;" width="15.208" height="76.038"/>
	<rect x="299.083" y="435.962" style="fill:#F23939;" width="15.208" height="76.038"/>
	<rect x="349.775" y="435.962" style="fill:#F23939;" width="15.208" height="76.038"/>
	<rect x="400.467" y="435.962" style="fill:#F23939;" width="15.208" height="76.038"/>
	<rect x="451.159" y="435.962" style="fill:#F23939;" width="15.208" height="76.038"/>
</g>
<g>
</g>
<g>
</g>
<g>
</g>
<g>
</g>
<g>
</g>
<g>
</g>
<g>
</g>
<g>
</g>
<g>
</g>
<g>
</g>
<g>
</g>
<g>
</g>
<g>
</g>
<g>
</g>
<g>
</g>
</svg>
