<?xml version="1.0" encoding="iso-8859-1"?>
<!-- Generator: Adobe Illustrator 19.0.0, SVG Export Plug-In . SVG Version: 6.00 Build 0)  -->
<svg version="1.1" id="Capa_1" xmlns="http://www.w3.org/2000/svg" xmlns:xlink="http://www.w3.org/1999/xlink" x="0px" y="0px"
	 viewBox="0 0 512.002 512.002" style="enable-background:new 0 0 512.002 512.002;" xml:space="preserve">
<path style="fill:#FFB123;" d="M393.829,72.181c0.499-0.32,1.031-0.565,1.578-0.757V7.604c0-4.2-3.404-7.604-7.604-7.604H185.031
	c-4.2,0-7.604,3.404-7.604,7.604c0,29.349-23.878,53.228-53.228,53.228c-4.2,0-7.604,3.404-7.604,7.604V250.42L393.829,72.181z"/>
<path style="fill:#FF901D;" d="M387.802,0h-30.419c4.199,0,7.604,3.404,7.604,7.604v83.119l28.841-18.542
	c0.499-0.32,1.031-0.565,1.578-0.757V7.604C395.406,3.404,392.003,0,387.802,0z"/>
<path style="fill:#FF4C4D;" d="M397.941,471.44h-283.88c-4.2,0-7.604-3.404-7.604-7.604V261.09c0-2.587,1.316-4.997,3.492-6.396
	l283.88-182.513c2.339-1.504,5.316-1.61,7.755-0.278c2.441,1.332,3.96,3.893,3.96,6.674v385.259
	C405.545,468.036,402.141,471.44,397.941,471.44z"/>
<g>
	<path style="fill:#F23939;" d="M401.585,71.903c-2.439-1.331-5.417-1.226-7.755,0.278l-18.703,12.024v379.63
		c0,4.2-3.405,7.604-7.604,7.604h30.419c4.2,0,7.604-3.404,7.604-7.604V78.577C405.545,75.796,404.026,73.235,401.585,71.903z"/>
	<path style="fill:#F23939;" d="M415.675,504.265c-0.003-0.148-0.012-0.295-0.022-0.444c-0.009-0.119-0.018-0.237-0.033-0.356
		c-0.015-0.118-0.033-0.236-0.055-0.356c-0.023-0.146-0.052-0.29-0.085-0.433c-0.01-0.043-0.014-0.085-0.024-0.128l-9.909-39.651
		v0.937c0,4.2-3.404,7.604-7.604,7.604h-283.88c-4.2,0-7.604-3.404-7.604-7.604v-0.937l-9.909,39.651
		c-0.011,0.043-0.015,0.085-0.024,0.128c-0.033,0.143-0.062,0.287-0.085,0.433c-0.021,0.119-0.04,0.237-0.055,0.356
		c-0.015,0.118-0.024,0.236-0.033,0.356c-0.011,0.148-0.02,0.296-0.023,0.444c0,0.044-0.006,0.085-0.006,0.129
		c0,0.058,0.007,0.113,0.009,0.169c0.003,0.157,0.01,0.314,0.022,0.469c0.009,0.103,0.021,0.205,0.033,0.307
		c0.018,0.142,0.038,0.281,0.064,0.421c0.021,0.117,0.046,0.232,0.072,0.347c0.027,0.119,0.058,0.236,0.091,0.354
		c0.035,0.13,0.075,0.257,0.118,0.382c0.034,0.101,0.071,0.201,0.109,0.3c0.053,0.133,0.106,0.265,0.165,0.394
		c0.042,0.091,0.085,0.18,0.131,0.271c0.064,0.128,0.132,0.254,0.203,0.379c0.052,0.089,0.105,0.176,0.16,0.264
		c0.073,0.116,0.148,0.23,0.227,0.341c0.066,0.093,0.135,0.182,0.204,0.272c0.077,0.098,0.154,0.195,0.236,0.289
		c0.082,0.096,0.167,0.188,0.253,0.279c0.079,0.082,0.157,0.163,0.239,0.242c0.096,0.092,0.196,0.181,0.297,0.27
		c0.083,0.071,0.166,0.142,0.251,0.21c0.105,0.083,0.213,0.162,0.322,0.24c0.093,0.066,0.188,0.13,0.283,0.192
		c0.105,0.068,0.215,0.134,0.324,0.197c0.111,0.064,0.223,0.125,0.337,0.182c0.101,0.052,0.203,0.101,0.307,0.148
		c0.132,0.06,0.266,0.115,0.4,0.167c0.095,0.037,0.19,0.071,0.285,0.104c0.148,0.052,0.299,0.096,0.451,0.138
		c0.055,0.015,0.106,0.035,0.162,0.05c0.035,0.009,0.071,0.012,0.106,0.02c0.212,0.05,0.426,0.088,0.644,0.12
		c0.08,0.012,0.16,0.027,0.241,0.036c0.231,0.025,0.465,0.039,0.701,0.043c0.053,0.002,0.105,0.01,0.156,0.01
		c0.008,0,0.016-0.002,0.024-0.002h304.095c0.008,0,0.016,0.002,0.023,0.002c0.052,0,0.104-0.008,0.155-0.01
		c0.236-0.004,0.471-0.017,0.702-0.043c0.08-0.009,0.16-0.024,0.24-0.036c0.218-0.031,0.433-0.07,0.645-0.12
		c0.035-0.009,0.071-0.011,0.106-0.02c0.056-0.014,0.106-0.034,0.162-0.05c0.152-0.042,0.303-0.086,0.451-0.138
		c0.096-0.032,0.191-0.067,0.284-0.104c0.136-0.053,0.27-0.107,0.401-0.167c0.104-0.048,0.206-0.097,0.307-0.148
		c0.114-0.058,0.226-0.119,0.337-0.182c0.109-0.064,0.218-0.129,0.324-0.197c0.096-0.063,0.191-0.126,0.283-0.192
		c0.109-0.078,0.218-0.157,0.322-0.24c0.085-0.068,0.168-0.139,0.251-0.21c0.101-0.088,0.2-0.177,0.297-0.27
		c0.081-0.079,0.16-0.16,0.239-0.242c0.086-0.091,0.171-0.184,0.253-0.279c0.081-0.094,0.158-0.192,0.235-0.289
		c0.069-0.09,0.138-0.179,0.204-0.272c0.078-0.111,0.153-0.225,0.227-0.341c0.055-0.087,0.108-0.174,0.16-0.264
		c0.071-0.125,0.139-0.251,0.203-0.38c0.046-0.089,0.089-0.178,0.131-0.27c0.059-0.13,0.113-0.262,0.165-0.394
		c0.039-0.099,0.075-0.199,0.109-0.3c0.043-0.126,0.081-0.252,0.118-0.382c0.033-0.117,0.064-0.234,0.091-0.354
		c0.026-0.115,0.051-0.23,0.072-0.347c0.025-0.14,0.046-0.279,0.064-0.421c0.013-0.101,0.024-0.204,0.033-0.307
		c0.013-0.155,0.02-0.312,0.023-0.469c0-0.057,0.008-0.112,0.008-0.169C415.681,504.35,415.675,504.309,415.675,504.265z"/>
</g>
<path style="fill:#E02B2B;" d="M415.675,504.265c-0.003-0.148-0.012-0.295-0.022-0.444c-0.009-0.119-0.018-0.237-0.033-0.356
	c-0.015-0.118-0.033-0.236-0.055-0.356c-0.023-0.146-0.052-0.29-0.085-0.433c-0.01-0.043-0.014-0.085-0.024-0.128l-9.909-39.651
	v0.937c0,4.2-3.404,7.604-7.604,7.604h-20.681l7.775,31.111c0.011,0.043,0.015,0.085,0.024,0.128
	c0.033,0.143,0.061,0.287,0.085,0.433c0.021,0.119,0.04,0.237,0.055,0.356c0.015,0.118,0.024,0.236,0.033,0.356
	c0.011,0.148,0.02,0.296,0.022,0.444c0,0.044,0.006,0.085,0.006,0.129c0,0.058-0.008,0.113-0.008,0.169
	c-0.004,0.157-0.011,0.314-0.023,0.469c-0.009,0.103-0.021,0.205-0.033,0.307c-0.018,0.142-0.037,0.281-0.064,0.421
	c-0.022,0.117-0.046,0.232-0.072,0.347c-0.027,0.119-0.058,0.236-0.091,0.354c-0.037,0.13-0.075,0.257-0.118,0.382
	c-0.034,0.101-0.071,0.201-0.109,0.3c-0.053,0.133-0.106,0.265-0.165,0.394c-0.042,0.091-0.085,0.18-0.131,0.27
	c-0.064,0.129-0.132,0.256-0.203,0.38c-0.052,0.089-0.106,0.176-0.16,0.264c-0.073,0.116-0.149,0.23-0.227,0.341
	c-0.066,0.093-0.135,0.182-0.204,0.272c-0.077,0.098-0.154,0.195-0.235,0.289c-0.082,0.096-0.167,0.188-0.253,0.279
	c-0.079,0.082-0.158,0.163-0.239,0.242c-0.097,0.092-0.196,0.181-0.297,0.27c-0.083,0.071-0.166,0.142-0.251,0.21
	c-0.105,0.083-0.213,0.162-0.322,0.24c-0.093,0.066-0.188,0.13-0.283,0.192c-0.106,0.068-0.215,0.134-0.324,0.197
	c-0.111,0.064-0.223,0.125-0.337,0.182c-0.101,0.052-0.203,0.101-0.307,0.148c-0.132,0.06-0.266,0.115-0.401,0.167
	c-0.094,0.036-0.188,0.071-0.284,0.104c-0.148,0.052-0.299,0.096-0.451,0.138c-0.056,0.015-0.106,0.035-0.162,0.05
	c-0.035,0.009-0.071,0.011-0.106,0.02c-0.212,0.05-0.427,0.088-0.645,0.12c-0.08,0.012-0.16,0.027-0.24,0.037
	c-0.231,0.025-0.465,0.039-0.702,0.043c-0.042,0.002-0.083,0.006-0.125,0.008h30.364c0.008,0,0.016,0.002,0.023,0.002
	c0.052,0,0.104-0.008,0.155-0.01c0.236-0.004,0.471-0.017,0.702-0.043c0.08-0.009,0.16-0.024,0.24-0.037
	c0.218-0.031,0.433-0.07,0.645-0.12c0.035-0.009,0.071-0.011,0.106-0.02c0.056-0.014,0.106-0.034,0.162-0.05
	c0.152-0.042,0.303-0.086,0.451-0.138c0.096-0.032,0.191-0.067,0.284-0.104c0.136-0.053,0.27-0.107,0.401-0.167
	c0.104-0.048,0.206-0.097,0.307-0.148c0.114-0.058,0.226-0.119,0.337-0.182c0.109-0.064,0.218-0.129,0.324-0.197
	c0.096-0.063,0.191-0.126,0.283-0.192c0.109-0.078,0.218-0.157,0.322-0.24c0.085-0.068,0.168-0.139,0.251-0.21
	c0.101-0.088,0.2-0.177,0.297-0.27c0.081-0.079,0.16-0.16,0.239-0.242c0.086-0.091,0.171-0.184,0.253-0.279
	c0.081-0.094,0.158-0.192,0.235-0.289c0.069-0.09,0.138-0.179,0.204-0.272c0.078-0.111,0.153-0.225,0.227-0.341
	c0.055-0.087,0.108-0.174,0.16-0.264c0.071-0.125,0.139-0.251,0.203-0.38c0.046-0.089,0.089-0.178,0.131-0.27
	c0.059-0.13,0.113-0.262,0.165-0.394c0.039-0.099,0.075-0.199,0.109-0.3c0.043-0.126,0.081-0.252,0.118-0.382
	c0.033-0.117,0.064-0.234,0.091-0.354c0.026-0.115,0.051-0.23,0.072-0.347c0.025-0.14,0.046-0.279,0.064-0.421
	c0.013-0.101,0.024-0.204,0.033-0.307c0.013-0.155,0.02-0.312,0.023-0.469c0-0.057,0.008-0.112,0.008-0.169
	C415.681,504.35,415.675,504.309,415.675,504.265z"/>
<polygon style="fill:#FF901D;" points="248.397,0 248.397,162.229 116.596,162.229 116.596,177.437 230.114,177.437 
	263.605,155.904 263.605,0 "/>
<path style="fill:#FFB123;" d="M245.861,223.046c-4.2,0-7.604,3.404-7.604,7.604c0,18.169-14.781,32.95-32.95,32.95
	c-4.2,0-7.604,3.404-7.604,7.604v20.277c0,32.145,26.151,58.297,58.297,58.297s58.297-26.151,58.297-58.297
	C314.297,253.745,283.597,223.046,245.861,223.046z"/>
<path style="fill:#FF4C4D;" d="M256,319.362c-13.799,0-25.372-9.902-27.518-23.546c-0.521-3.314,1.191-6.577,4.213-8.033
	c10.809-5.205,19.912-13.358,26.323-23.578c1.171-1.867,3.094-3.134,5.271-3.472c2.179-0.34,4.395,0.282,6.077,1.704
	c8.589,7.256,13.515,17.842,13.515,29.044C283.881,306.854,271.373,319.362,256,319.362z"/>
<g>
	<path style="fill:#F23939;" d="M337.11,390.334H174.892c-4.2,0-7.604-3.404-7.604-7.604c0-4.199,3.404-7.604,7.604-7.604H337.11
		c4.2,0,7.604,3.405,7.604,7.604C344.713,386.931,341.31,390.334,337.11,390.334z"/>
	<path style="fill:#F23939;" d="M296.555,420.75h-81.109c-4.2,0-7.604-3.404-7.604-7.604c0-4.199,3.404-7.604,7.604-7.604h81.109
		c4.2,0,7.604,3.405,7.604,7.604C304.159,417.346,300.756,420.75,296.555,420.75z"/>
</g>
<g>
	<path style="fill:#FF4C4D;" d="M370.059,471.44v2.539c0,4.2,3.404,7.604,7.604,7.604c4.2,0,7.604-3.404,7.604-7.604v-2.539H370.059
		z"/>
	<path style="fill:#FF4C4D;" d="M339.643,471.44v2.539c0,4.2,3.404,7.604,7.604,7.604c4.2,0,7.604-3.404,7.604-7.604v-2.539H339.643
		z"/>
	<path style="fill:#FF4C4D;" d="M309.227,471.44v2.539c0,4.2,3.404,7.604,7.604,7.604s7.604-3.404,7.604-7.604v-2.539H309.227z"/>
	<path style="fill:#FF4C4D;" d="M278.812,471.44v2.539c0,4.2,3.404,7.604,7.604,7.604c4.2,0,7.604-3.404,7.604-7.604v-2.539H278.812
		z"/>
	<path style="fill:#FF4C4D;" d="M248.396,471.44v2.539c0,4.2,3.404,7.604,7.604,7.604s7.604-3.404,7.604-7.604v-2.539H248.396z"/>
	<path style="fill:#FF4C4D;" d="M217.98,471.44v2.539c0,4.2,3.404,7.604,7.604,7.604c4.2,0,7.604-3.404,7.604-7.604v-2.539H217.98z"
		/>
	<path style="fill:#FF4C4D;" d="M187.565,471.44v2.539c0,4.2,3.404,7.604,7.604,7.604c4.2,0,7.604-3.404,7.604-7.604v-2.539H187.565
		z"/>
	<path style="fill:#FF4C4D;" d="M157.149,471.44v2.539c0,4.2,3.404,7.604,7.604,7.604c4.2,0,7.604-3.404,7.604-7.604v-2.539H157.149
		z"/>
	<path style="fill:#FF4C4D;" d="M126.733,471.44v2.539c0,4.2,3.404,7.604,7.604,7.604c4.2,0,7.604-3.404,7.604-7.604v-2.539H126.733
		z"/>
</g>
<g>
</g>
<g>
</g>
<g>
</g>
<g>
</g>
<g>
</g>
<g>
</g>
<g>
</g>
<g>
</g>
<g>
</g>
<g>
</g>
<g>
</g>
<g>
</g>
<g>
</g>
<g>
</g>
<g>
</g>
</svg>
