<?xml version="1.0" encoding="iso-8859-1"?>
<!-- Generator: Adobe Illustrator 19.0.0, SVG Export Plug-In . SVG Version: 6.00 Build 0)  -->
<svg version="1.1" id="Capa_1" xmlns="http://www.w3.org/2000/svg" xmlns:xlink="http://www.w3.org/1999/xlink" x="0px" y="0px"
	 viewBox="0 0 512 512" style="enable-background:new 0 0 512 512;" xml:space="preserve">
<path style="fill:#0072A2;" d="M361.184,207.836H46.9c-9.782,0-17.741-7.959-17.741-17.741v-20.276
	c0-9.782,7.959-17.741,17.741-17.741h314.284c9.782,0,17.741,7.959,17.741,17.741v20.276
	C378.925,199.878,370.967,207.836,361.184,207.836z"/>
<path style="fill:#F3E8D6;" d="M361.184,207.836H46.9c-2.724,0-5.295-0.635-7.603-1.737v247.607C39.296,485.85,65.446,512,97.59,512
	h212.9c32.144,0,58.293-26.15,58.293-58.293V206.101C366.477,207.201,363.906,207.836,361.184,207.836z"/>
<path style="fill:#D3C2AE;" d="M452.428,220.507h-83.645v30.416l83.639-0.004V413.13h-83.639v11.07l0.576,0.838h-0.576v18.514
	l83.645-0.009c16.77,0,30.414-13.644,30.414-30.414V250.921C482.842,234.151,469.198,220.507,452.428,220.507z"/>
<g>
	<path style="fill:#E5D8C6;" d="M46.9,207.836c-2.724,0-5.295-0.635-7.603-1.737v1.737H46.9z"/>
	<path style="fill:#E5D8C6;" d="M361.184,207.836h-22.818v245.871c0,32.143-26.15,58.293-58.293,58.293h30.417
		c32.144,0,58.293-26.15,58.293-58.293V206.101C366.477,207.201,363.906,207.836,361.184,207.836z"/>
</g>
<path style="fill:#006289;" d="M361.184,152.077h-30.417c9.782,0,17.741,7.959,17.741,17.741v20.276
	c0,9.782-7.959,17.741-17.741,17.741h30.417c9.782,0,17.741-7.959,17.741-17.741v-20.276
	C378.925,160.036,370.967,152.077,361.184,152.077z"/>
<g>
	<path style="fill:#F3E8D6;" d="M117.869,136.864c-1.945,0-3.892-0.742-5.377-2.226c-2.962-2.963-2.969-7.764-0.019-10.734
		c0.138-0.141,6.656-6.874,9.731-16.497c3.838-12.011,0.572-23.314-9.712-33.597C94.035,55.351,95.104,36.648,99.25,24.207
		c4.32-12.958,12.879-21.618,13.242-21.981c2.97-2.968,7.784-2.968,10.753,0c2.969,2.97,2.969,7.784,0,10.753
		c-0.046,0.046-6.62,6.801-9.712,16.477c-3.838,12.011-0.571,23.314,9.712,33.597c18.457,18.457,17.388,37.161,13.242,49.601
		c-4.32,12.958-12.879,21.618-13.242,21.981C121.761,136.121,119.814,136.864,117.869,136.864z"/>
	<path style="fill:#F3E8D6;" d="M204.042,136.864c-1.945,0-3.892-0.742-5.377-2.226c-2.962-2.963-2.969-7.764-0.019-10.734
		c0.138-0.141,6.656-6.874,9.731-16.497c3.838-12.011,0.572-23.314-9.712-33.597c-18.457-18.457-17.388-37.161-13.242-49.601
		c4.32-12.958,12.879-21.618,13.242-21.981c2.97-2.968,7.784-2.968,10.753,0c2.969,2.97,2.969,7.784,0,10.753
		c-0.046,0.046-6.62,6.801-9.712,16.477c-3.838,12.011-0.571,23.314,9.712,33.597c18.457,18.457,17.388,37.161,13.242,49.601
		c-4.32,12.958-12.879,21.618-13.242,21.981C207.934,136.121,205.987,136.864,204.042,136.864z"/>
</g>
<path style="fill:#927266;" d="M259.8,380.178H148.282c15.372,0,27.879,12.507,27.879,27.879c0,15.372-12.507,27.879-27.879,27.879
	H259.8c15.372,0,27.879-12.507,27.879-27.879S275.172,380.178,259.8,380.178z"/>
<path style="fill:#F3E8D6;" d="M290.215,136.864c-1.945,0-3.892-0.742-5.377-2.226c-2.962-2.963-2.969-7.764-0.018-10.734
	c0.138-0.141,6.656-6.874,9.731-16.497c3.838-12.011,0.572-23.314-9.712-33.597c-18.457-18.457-17.388-37.161-13.241-49.601
	c4.32-12.958,12.879-21.618,13.241-21.981c2.97-2.968,7.784-2.968,10.753,0c2.969,2.97,2.969,7.784,0,10.753
	c-0.046,0.046-6.62,6.801-9.712,16.477c-3.838,12.011-0.572,23.314,9.712,33.597c18.457,18.457,17.388,37.161,13.242,49.601
	c-4.32,12.958-12.879,21.618-13.242,21.981C294.107,136.121,292.16,136.864,290.215,136.864z"/>
<path style="fill:#775146;" d="M259.8,380.178h-30.417c15.372,0,27.879,12.507,27.879,27.879c0,15.372-12.507,27.879-27.879,27.879
	H259.8c15.372,0,27.879-12.507,27.879-27.879S275.172,380.178,259.8,380.178z"/>
<path style="fill:#FFB123;" d="M267.403,326.91c-0.022-37.715-30.712-68.392-68.432-68.392c-4.2,0-7.604,3.403-7.604,7.603
	c0,0.005,0.001,0.009,0.001,0.014c-0.007,23.752-19.332,43.074-43.086,43.074c-4.2,0-7.604,3.403-7.604,7.603v10.137
	c0,34.939,28.425,63.363,63.363,63.363s63.363-28.425,63.363-63.363C267.405,326.937,267.403,326.924,267.403,326.91z"/>
<path style="fill:#FF901D;" d="M267.403,326.91c-0.022-37.715-30.712-68.392-68.432-68.392c-2.978,0-5.548,1.713-6.794,4.205
	c26.116,9.636,44.793,34.768,44.81,64.187c0,0.014,0.002,0.026,0.002,0.041c0,29.696-20.54,54.675-48.154,61.506
	c4.875,1.205,9.966,1.857,15.208,1.857c34.939,0,63.363-28.425,63.363-63.363C267.405,326.937,267.403,326.924,267.403,326.91z"/>
<path style="fill:#FFB123;" d="M148.282,435.937c-15.372,0-27.879-12.507-27.879-27.879c0-15.372,12.507-27.879,27.879-27.879
	s27.879,12.507,27.879,27.879C176.161,423.43,163.654,435.937,148.282,435.937z"/>
<g>
</g>
<g>
</g>
<g>
</g>
<g>
</g>
<g>
</g>
<g>
</g>
<g>
</g>
<g>
</g>
<g>
</g>
<g>
</g>
<g>
</g>
<g>
</g>
<g>
</g>
<g>
</g>
<g>
</g>
</svg>
