<?xml version="1.0" encoding="iso-8859-1"?>
<!-- Generator: Adobe Illustrator 19.0.0, SVG Export Plug-In . SVG Version: 6.00 Build 0)  -->
<svg version="1.1" id="Capa_1" xmlns="http://www.w3.org/2000/svg" xmlns:xlink="http://www.w3.org/1999/xlink" x="0px" y="0px"
	 viewBox="0 0 512 512" style="enable-background:new 0 0 512 512;" xml:space="preserve">
<path style="fill:#A0D860;" d="M504.396,496.784H7.604c-4.199,0-7.604,3.404-7.604,7.604s3.405,7.604,7.604,7.604h496.792
	c4.2,0,7.604-3.404,7.604-7.604C512,500.189,508.596,496.784,504.396,496.784z"/>
<path style="fill:#927266;" d="M278.812,496.784V7.612c0-4.2-3.404-7.604-7.604-7.604h-30.416c-4.199,0-7.604,3.404-7.604,7.604
	v489.172H278.812z"/>
<g>
	<path style="fill:#89BF43;" d="M35.487,496.784v-12.673c0-4.2-3.405-7.604-7.604-7.604s-7.604,3.404-7.604,7.604v12.673H35.487z"/>
	<path style="fill:#89BF43;" d="M65.903,496.784v-12.673c0-4.2-3.405-7.604-7.604-7.604s-7.604,3.404-7.604,7.604v12.673H65.903z"/>
	<path style="fill:#89BF43;" d="M96.319,496.784v-12.673c0-4.2-3.405-7.604-7.604-7.604c-4.199,0-7.604,3.404-7.604,7.604v12.673
		H96.319z"/>
	<path style="fill:#89BF43;" d="M126.735,496.784v-12.673c0-4.2-3.405-7.604-7.604-7.604c-4.199,0-7.604,3.404-7.604,7.604v12.673
		H126.735z"/>
	<path style="fill:#89BF43;" d="M157.151,496.784v-12.673c0-4.2-3.405-7.604-7.604-7.604s-7.604,3.404-7.604,7.604v12.673H157.151z"
		/>
	<path style="fill:#89BF43;" d="M187.566,496.784v-12.673c0-4.2-3.405-7.604-7.604-7.604c-4.199,0-7.604,3.404-7.604,7.604v12.673
		H187.566z"/>
	<path style="fill:#89BF43;" d="M217.982,496.784v-12.673c0-4.2-3.405-7.604-7.604-7.604c-4.199,0-7.604,3.404-7.604,7.604v12.673
		H217.982z"/>
	<path style="fill:#89BF43;" d="M309.23,496.784v-12.673c0-4.2-3.405-7.604-7.604-7.604c-4.2,0-7.604,3.404-7.604,7.604v12.673
		H309.23z"/>
	<path style="fill:#89BF43;" d="M339.646,496.784v-12.673c0-4.2-3.405-7.604-7.604-7.604c-4.2,0-7.604,3.404-7.604,7.604v12.673
		H339.646z"/>
	<path style="fill:#89BF43;" d="M370.061,496.784v-12.673c0-4.2-3.405-7.604-7.604-7.604c-4.2,0-7.604,3.404-7.604,7.604v12.673
		H370.061z"/>
	<path style="fill:#89BF43;" d="M400.477,496.784v-12.673c0-4.2-3.405-7.604-7.604-7.604c-4.2,0-7.604,3.404-7.604,7.604v12.673
		H400.477z"/>
	<path style="fill:#89BF43;" d="M430.893,496.784v-12.673c0-4.2-3.405-7.604-7.604-7.604c-4.2,0-7.604,3.404-7.604,7.604v12.673
		H430.893z"/>
	<path style="fill:#89BF43;" d="M461.309,496.784v-12.673c0-4.2-3.405-7.604-7.604-7.604c-4.2,0-7.604,3.404-7.604,7.604v12.673
		H461.309z"/>
	<path style="fill:#89BF43;" d="M491.725,496.784v-12.673c0-4.2-3.405-7.604-7.604-7.604c-4.2,0-7.604,3.404-7.604,7.604v12.673
		H491.725z"/>
</g>
<path style="fill:#FFB123;" d="M372.594,309.222H119.125c-4.199,0-7.604-3.404-7.604-7.604V210.37c0-4.2,3.405-7.604,7.604-7.604
	h253.469c2.543,0,4.917,1.271,6.326,3.386l30.416,45.624c1.703,2.555,1.703,5.881,0,8.435l-30.416,45.624
	C377.511,307.952,375.137,309.222,372.594,309.222z"/>
<path style="fill:#FF901D;" d="M409.336,251.776l-30.416-45.624c-1.41-2.115-3.784-3.386-6.326-3.386h-30.419
	c2.543,0,4.917,1.271,6.326,3.386l30.416,45.624c1.703,2.555,1.703,5.881,0,8.435l-30.416,45.624
	c-1.41,2.117-3.784,3.386-6.326,3.386h30.419c2.543,0,4.917-1.269,6.326-3.386l30.416-45.624
	C411.04,257.658,411.04,254.331,409.336,251.776z"/>
<path style="fill:#FFB123;" d="M392.87,157.14H139.401c-2.543,0-4.916-1.271-6.326-3.386l-30.416-45.624
	c-1.703-2.555-1.703-5.881,0-8.435l30.416-45.624c1.41-2.117,3.784-3.386,6.326-3.386H392.87c4.2,0,7.604,3.404,7.604,7.604v91.248
	C400.474,153.737,397.071,157.14,392.87,157.14z"/>
<path style="fill:#FF901D;" d="M392.87,50.685h-30.419c4.2,0,7.604,3.404,7.604,7.604v91.248c0,4.2-3.404,7.604-7.604,7.604h30.419
	c4.2,0,7.604-3.404,7.604-7.604V58.289C400.474,54.09,397.071,50.685,392.87,50.685z"/>
<g>
	<path style="fill:#F98115;" d="M311.762,111.517H200.238c-4.199,0-7.604-3.404-7.604-7.604c0-4.2,3.405-7.604,7.604-7.604h111.525
		c4.2,0,7.604,3.404,7.604,7.604C319.366,108.113,315.963,111.517,311.762,111.517z"/>
	<path style="fill:#F98115;" d="M311.762,263.598H200.238c-4.199,0-7.604-3.404-7.604-7.604c0-4.2,3.405-7.604,7.604-7.604h111.525
		c4.2,0,7.604,3.404,7.604,7.604C319.366,260.194,315.963,263.598,311.762,263.598z"/>
</g>
<g>
</g>
<g>
</g>
<g>
</g>
<g>
</g>
<g>
</g>
<g>
</g>
<g>
</g>
<g>
</g>
<g>
</g>
<g>
</g>
<g>
</g>
<g>
</g>
<g>
</g>
<g>
</g>
<g>
</g>
</svg>
