<?xml version="1.0" encoding="iso-8859-1"?>
<!-- Generator: Adobe Illustrator 19.0.0, SVG Export Plug-In . SVG Version: 6.00 Build 0)  -->
<svg version="1.1" id="Capa_1" xmlns="http://www.w3.org/2000/svg" xmlns:xlink="http://www.w3.org/1999/xlink" x="0px" y="0px"
	 viewBox="0 0 511.999 511.999" style="enable-background:new 0 0 511.999 511.999;" xml:space="preserve">
<path style="fill:#E5D8C6;" d="M255.999,476.533c-11.702,0-22.838-2.41-32.948-6.75v34.612c0,4.2,3.404,7.604,7.604,7.604h50.689
	c4.2,0,7.604-3.404,7.604-7.604v-34.612C278.837,474.123,267.701,476.533,255.999,476.533z"/>
<path style="fill:#D3C2AE;" d="M258.529,476.468v27.927c0,4.2-3.404,7.604-7.604,7.604h30.419c4.2,0,7.604-3.404,7.604-7.604
	v-34.612C279.571,473.809,269.304,476.147,258.529,476.468z"/>
<path style="fill:#F3E8D6;" d="M339.641,392.811v-92.83c-25.513,6.149-53.485,9.259-83.642,9.259h-0.001h-0.001
	c-30.155,0-58.127-3.107-83.64-9.258v92.829c0,0.011-0.001,0.022-0.001,0.034c-0.001,0.007-0.001,0.014-0.001,0.022v0.012v0.01
	c0,0.052,0.004,0.102,0.004,0.153c0.003,1.27,0.035,2.534,0.096,3.793c0.029,0.637,0.082,1.267,0.126,1.9
	c0.046,0.637,0.086,1.274,0.146,1.907c0.077,0.844,0.176,1.68,0.279,2.515c0.046,0.366,0.089,0.733,0.14,1.098
	c0.139,1.026,0.299,2.045,0.475,3.059c0.016,0.088,0.031,0.176,0.047,0.264c6.947,39.186,41.152,68.955,82.332,68.955
	c41.209,0,75.432-29.809,82.346-69.036c0.009-0.049,0.018-0.097,0.026-0.145c0.18-1.038,0.345-2.083,0.487-3.135
	c0.047-0.342,0.087-0.686,0.131-1.029c0.104-0.852,0.205-1.704,0.283-2.562c0.059-0.623,0.099-1.249,0.143-1.876
	c0.045-0.64,0.098-1.276,0.128-1.92c0.061-1.257,0.094-2.519,0.096-3.789c0-0.052,0.004-0.101,0.004-0.152v-0.01v-0.012
	c0-0.008,0-0.015,0-0.015C339.642,392.835,339.641,392.823,339.641,392.811z"/>
<path style="fill:#E5D8C6;" d="M339.642,392.846c0-0.012-0.001-0.024-0.001-0.034v-92.83c-9.782,2.357-19.928,4.264-30.419,5.725
	v87.105c0,0.011,0.001,0.022,0.001,0.034c0.001,0.007,0.001,0.014,0.001,0.021v0.012v0.01c0,0.052-0.004,0.101-0.004,0.152
	c-0.002,1.269-0.035,2.532-0.096,3.789c-0.029,0.644-0.083,1.281-0.128,1.92c-0.044,0.626-0.084,1.252-0.143,1.876
	c-0.078,0.859-0.179,1.711-0.283,2.562c-0.044,0.343-0.084,0.687-0.131,1.029c-0.143,1.051-0.307,2.096-0.487,3.135
	c-0.009,0.049-0.018,0.097-0.026,0.145c-6.042,34.282-32.942,61.368-67.136,67.653c4.931,0.907,10.015,1.383,15.209,1.383
	c41.209,0,75.432-29.809,82.346-69.036c0.009-0.049,0.018-0.097,0.026-0.145c0.18-1.038,0.345-2.083,0.487-3.135
	c0.047-0.342,0.087-0.686,0.131-1.029c0.104-0.852,0.205-1.704,0.283-2.562c0.059-0.623,0.099-1.249,0.143-1.876
	c0.045-0.64,0.098-1.276,0.128-1.92c0.061-1.257,0.094-2.519,0.096-3.789c0-0.052,0.004-0.101,0.004-0.152v-0.01v-0.012
	C339.643,392.86,339.643,392.853,339.642,392.846z"/>
<path style="fill:#FD6C39;" d="M488.065,91.614c-10.059-11.887-24.145-19.146-39.658-20.437
	c-15.521-1.303-30.611,3.525-42.502,13.588c-11.813,9.997-19.055,23.972-20.406,39.296c-0.358,1.82-3.371,15.673-14.431,29.287
	c-20.888,25.709-60.677,39.299-115.068,39.299h-0.001h-0.001c-54.392,0-94.181-13.589-115.068-39.299
	c-11.06-13.614-14.073-27.468-14.431-29.287c-1.377-15.372-8.614-29.316-20.406-39.296C94.2,74.7,79.116,69.868,63.592,71.176
	c-15.518,1.292-29.604,8.552-39.662,20.437c-10.059,11.888-14.886,26.98-13.593,42.497c0.413,4.95,5.038,49.602,40.096,92.756
	c20.239,24.908,46.45,44.562,77.909,58.418c36.093,15.895,79.043,23.956,127.654,23.956h0.001h0.001
	c48.612,0,91.562-8.06,127.655-23.956c31.457-13.855,57.669-33.51,77.908-58.418c35.058-43.155,39.684-87.806,40.095-92.755
	C502.95,118.593,498.123,103.501,488.065,91.614z"/>
<g>
	<path style="fill:#ED5729;" d="M488.065,91.614c-10.059-11.887-24.145-19.146-39.658-20.437c-6.87-0.577-13.655,0.053-20.116,1.801
		c11.39,3.039,21.579,9.447,29.355,18.637c10.059,11.888,14.886,26.98,13.592,42.498c-0.412,4.949-5.037,49.601-40.095,92.755
		c-20.239,24.908-46.45,44.562-77.908,58.418c-32.279,14.215-70.056,22.144-112.446,23.666c5.009,0.18,10.071,0.29,15.208,0.29
		h0.001h0.001c48.612,0,91.562-8.06,127.655-23.956c31.457-13.855,57.669-33.51,77.908-58.418
		c35.058-43.155,39.684-87.806,40.095-92.755C502.95,118.593,498.123,103.501,488.065,91.614z"/>
	<path style="fill:#ED5729;" d="M63.592,71.176c0.771-0.064,1.539-0.103,2.307-0.138l-0.002-43.002c0-0.01,0-0.02,0-0.029v-0.126
		c0-0.06-0.008-0.117-0.009-0.176c-0.004-0.177-0.01-0.356-0.026-0.533c-0.01-0.101-0.025-0.2-0.04-0.299
		c-0.019-0.145-0.038-0.287-0.065-0.431c-0.025-0.138-0.061-0.271-0.094-0.405c-0.026-0.104-0.05-0.208-0.08-0.311
		c-0.05-0.166-0.106-0.328-0.167-0.489c-0.022-0.06-0.038-0.12-0.062-0.179c-0.006-0.015-0.015-0.029-0.021-0.045
		c-0.066-0.163-0.143-0.32-0.22-0.479c-0.035-0.074-0.069-0.15-0.106-0.223c-0.067-0.126-0.143-0.245-0.216-0.366
		c-0.06-0.098-0.115-0.198-0.177-0.292c-0.051-0.075-0.106-0.146-0.16-0.219c-0.094-0.131-0.187-0.263-0.288-0.386
		c-0.02-0.022-0.041-0.044-0.06-0.065c-0.298-0.353-0.621-0.677-0.972-0.966c-0.052-0.044-0.108-0.081-0.162-0.123
		c-0.136-0.104-0.271-0.212-0.412-0.308c-0.591-0.401-1.242-0.719-1.935-0.942c-0.007-0.002-0.013-0.006-0.021-0.008
		c-0.163-0.053-0.333-0.093-0.502-0.135c-0.075-0.018-0.149-0.042-0.226-0.058c-0.117-0.025-0.236-0.041-0.356-0.06
		c-0.135-0.022-0.269-0.048-0.404-0.062c-0.083-0.01-0.168-0.012-0.252-0.018c-0.173-0.013-0.346-0.024-0.52-0.025
		c-0.017,0-0.032-0.003-0.05-0.003c-0.064,0-0.125,0.008-0.189,0.009c-0.172,0.005-0.346,0.011-0.519,0.026
		c-0.105,0.01-0.206,0.026-0.309,0.041c-0.142,0.018-0.282,0.036-0.423,0.064c-0.138,0.026-0.273,0.061-0.407,0.095
		c-0.104,0.025-0.207,0.05-0.311,0.08c-0.165,0.049-0.326,0.107-0.487,0.167c-0.061,0.021-0.121,0.038-0.18,0.061l-0.125,0.05
		c-0.005,0.002-0.011,0.005-0.016,0.007L4.779,41.097c-0.061,0.024-0.117,0.056-0.176,0.081c-0.133,0.058-0.265,0.116-0.395,0.181
		c-0.112,0.056-0.221,0.116-0.328,0.176c-0.104,0.059-0.21,0.12-0.313,0.185c-0.126,0.079-0.247,0.163-0.368,0.249
		c-0.052,0.035-0.104,0.066-0.155,0.103c-0.032,0.024-0.061,0.053-0.093,0.077c-0.123,0.095-0.24,0.195-0.357,0.297
		c-0.077,0.067-0.155,0.136-0.23,0.205c-0.101,0.097-0.197,0.197-0.292,0.299c-0.081,0.085-0.162,0.171-0.238,0.261
		s-0.147,0.181-0.219,0.274c-0.085,0.107-0.168,0.216-0.246,0.327c-0.057,0.081-0.107,0.164-0.161,0.247
		c-0.08,0.126-0.16,0.251-0.233,0.381c-0.046,0.081-0.085,0.164-0.128,0.246c-0.069,0.135-0.137,0.269-0.198,0.406
		c-0.04,0.091-0.073,0.184-0.109,0.276c-0.052,0.132-0.104,0.263-0.148,0.396c-0.036,0.108-0.066,0.221-0.098,0.332
		c-0.032,0.119-0.067,0.236-0.095,0.358c-0.03,0.13-0.053,0.261-0.075,0.391c-0.019,0.105-0.039,0.211-0.053,0.316
		c-0.02,0.143-0.029,0.285-0.042,0.429c-0.007,0.1-0.016,0.199-0.019,0.298c-0.005,0.143-0.002,0.285,0,0.428
		c0.002,0.105,0.003,0.21,0.01,0.314c0.008,0.131,0.022,0.262,0.038,0.392c0.014,0.121,0.027,0.24,0.048,0.361
		c0.017,0.113,0.043,0.225,0.066,0.337c0.028,0.14,0.06,0.279,0.097,0.418c0.025,0.095,0.057,0.19,0.086,0.284
		c0.047,0.15,0.096,0.3,0.153,0.448c0.014,0.038,0.022,0.074,0.038,0.111c0.014,0.034,0.034,0.064,0.049,0.098
		c0.128,0.306,0.273,0.608,0.443,0.9c0.015,0.025,0.026,0.053,0.042,0.077c0.135,0.226,0.282,0.447,0.444,0.662l26.15,34.877
		C37.346,78.099,49.91,72.316,63.592,71.176z"/>
</g>
<path style="fill:#DB4826;" d="M511.972,47.596c-0.011-0.146-0.022-0.291-0.042-0.435c-0.014-0.105-0.033-0.208-0.052-0.312
	c-0.023-0.132-0.046-0.265-0.076-0.396c-0.026-0.119-0.062-0.235-0.095-0.354c-0.03-0.112-0.062-0.225-0.098-0.335
	c-0.044-0.134-0.096-0.266-0.148-0.396c-0.036-0.092-0.07-0.185-0.109-0.275c-0.061-0.139-0.13-0.275-0.199-0.409
	c-0.042-0.081-0.081-0.163-0.126-0.243c-0.073-0.131-0.154-0.258-0.235-0.384c-0.053-0.082-0.103-0.164-0.158-0.244
	c-0.079-0.113-0.163-0.222-0.248-0.331c-0.07-0.091-0.142-0.182-0.217-0.271c-0.077-0.089-0.158-0.176-0.239-0.263
	c-0.095-0.101-0.191-0.201-0.292-0.297c-0.074-0.07-0.15-0.137-0.228-0.204c-0.117-0.104-0.236-0.204-0.36-0.3
	c-0.03-0.023-0.059-0.052-0.09-0.075c-0.05-0.038-0.102-0.067-0.152-0.103c-0.122-0.086-0.245-0.171-0.374-0.251
	c-0.102-0.064-0.206-0.125-0.311-0.184c-0.108-0.061-0.217-0.121-0.328-0.176c-0.132-0.066-0.266-0.126-0.398-0.184
	c-0.059-0.025-0.114-0.057-0.173-0.08l-50.549-20.219c-0.006-0.003-0.012-0.005-0.018-0.007l-0.124-0.05
	c-0.06-0.023-0.121-0.04-0.181-0.063c-0.159-0.06-0.319-0.118-0.485-0.165c-0.106-0.032-0.215-0.057-0.322-0.083
	c-0.131-0.032-0.26-0.066-0.393-0.092c-0.148-0.028-0.296-0.048-0.444-0.067c-0.095-0.013-0.189-0.028-0.286-0.036
	c-0.185-0.018-0.367-0.024-0.551-0.028c-0.055-0.001-0.107-0.008-0.162-0.008c-0.014,0-0.027,0.002-0.042,0.002
	c-0.189,0.001-0.376,0.013-0.563,0.028c-0.07,0.006-0.141,0.007-0.21,0.014c-0.155,0.018-0.308,0.045-0.461,0.071
	c-0.099,0.016-0.2,0.028-0.297,0.05c-0.103,0.021-0.204,0.052-0.306,0.078c-0.142,0.035-0.285,0.069-0.424,0.113
	c-0.045,0.015-0.088,0.033-0.133,0.049c-0.19,0.064-0.377,0.131-0.56,0.209c-0.006,0.003-0.011,0.006-0.017,0.009
	c-0.217,0.093-0.43,0.196-0.636,0.309c-0.066,0.035-0.127,0.077-0.192,0.115c-0.143,0.084-0.286,0.166-0.423,0.259
	c-0.587,0.397-1.12,0.88-1.583,1.437c-0.008,0.009-0.018,0.018-0.025,0.027c-0.106,0.129-0.204,0.268-0.303,0.406
	c-0.049,0.066-0.1,0.131-0.147,0.199c-0.064,0.097-0.122,0.2-0.182,0.301c-0.072,0.118-0.147,0.235-0.212,0.359
	c-0.037,0.073-0.071,0.15-0.107,0.226c-0.077,0.156-0.152,0.314-0.219,0.477c-0.006,0.015-0.015,0.029-0.02,0.045
	c-0.023,0.06-0.039,0.12-0.062,0.179c-0.061,0.16-0.118,0.322-0.167,0.489c-0.03,0.103-0.054,0.207-0.08,0.311
	c-0.033,0.135-0.068,0.268-0.094,0.405c-0.027,0.144-0.047,0.286-0.065,0.431c-0.014,0.099-0.029,0.198-0.04,0.299
	c-0.017,0.178-0.022,0.356-0.026,0.533c-0.001,0.06-0.009,0.117-0.009,0.176v0.126c0,0.01,0,0.02,0,0.029l-0.002,43.005
	c0.768,0.034,1.538,0.073,2.309,0.138c13.677,1.14,26.242,6.922,35.918,16.419l26.154-34.876c0.161-0.215,0.309-0.436,0.444-0.661
	c0.016-0.027,0.029-0.058,0.046-0.085c0.168-0.289,0.312-0.588,0.439-0.891c0.015-0.035,0.035-0.066,0.05-0.101
	c0.015-0.038,0.024-0.075,0.039-0.113c0.056-0.147,0.104-0.293,0.151-0.442c0.03-0.098,0.062-0.194,0.088-0.292
	c0.035-0.136,0.066-0.273,0.095-0.409c0.024-0.115,0.05-0.23,0.067-0.345c0.02-0.117,0.032-0.234,0.046-0.353
	c0.016-0.134,0.031-0.268,0.04-0.4c0.006-0.103,0.007-0.204,0.01-0.307c0.002-0.146,0.005-0.291,0-0.436
	C511.987,47.788,511.978,47.693,511.972,47.596z"/>
<g>
	<path style="fill:#F3E8D6;" d="M255.995,136.872c-1.716,0-3.443-0.577-4.865-1.762c-3.219-2.682-3.659-7.461-0.992-10.688
		c0.883-1.078,20.878-26.086,0.018-51.118c-23.258-27.91-10.17-58.364,0-70.569c2.69-3.225,7.484-3.661,10.71-0.973
		c3.226,2.688,3.661,7.483,0.973,10.709c-0.844,1.029-20.871,26.05,0,51.096c23.257,27.91,10.17,58.364,0,70.569
		C260.336,135.941,258.173,136.872,255.995,136.872z"/>
	<path style="fill:#F3E8D6;" d="M332.036,136.872c-1.716,0-3.443-0.577-4.865-1.762c-3.219-2.682-3.659-7.461-0.992-10.688
		c0.883-1.078,20.878-26.086,0.018-51.118c-23.258-27.91-10.17-58.364,0-70.569c2.69-3.225,7.485-3.661,10.709-0.973
		c3.226,2.688,3.661,7.483,0.973,10.709c-0.844,1.029-20.871,26.05,0,51.096c23.257,27.91,10.17,58.364,0,70.569
		C336.377,135.941,334.213,136.872,332.036,136.872z"/>
	<path style="fill:#F3E8D6;" d="M179.957,136.872c-1.716,0-3.442-0.577-4.865-1.762c-3.219-2.682-3.659-7.461-0.992-10.688
		c0.883-1.078,20.878-26.086,0.018-51.118c-23.257-27.91-10.17-58.364,0-70.569c2.69-3.225,7.485-3.661,10.71-0.973
		c3.226,2.688,3.661,7.483,0.973,10.709c-0.844,1.029-20.871,26.05,0,51.096c23.257,27.91,10.17,58.364,0,70.569
		C184.299,135.941,182.135,136.872,179.957,136.872z"/>
</g>
<g>
	<path style="fill:#E5D8C6;" d="M223.048,307.918v63.497c0,4.2,3.404,7.604,7.604,7.604c4.2,0,7.604-3.404,7.604-7.604V308.87
		C233.114,308.653,228.052,308.325,223.048,307.918z"/>
	<path style="fill:#E5D8C6;" d="M273.74,308.87v62.545c0,4.2,3.404,7.604,7.604,7.604c4.2,0,7.604-3.404,7.604-7.604v-63.497
		C283.943,308.325,278.882,308.653,273.74,308.87z"/>
</g>
<g>
</g>
<g>
</g>
<g>
</g>
<g>
</g>
<g>
</g>
<g>
</g>
<g>
</g>
<g>
</g>
<g>
</g>
<g>
</g>
<g>
</g>
<g>
</g>
<g>
</g>
<g>
</g>
<g>
</g>
</svg>
