<?xml version="1.0" encoding="iso-8859-1"?>
<!-- Generator: Adobe Illustrator 19.0.0, SVG Export Plug-In . SVG Version: 6.00 Build 0)  -->
<svg version="1.1" id="Capa_1" xmlns="http://www.w3.org/2000/svg" xmlns:xlink="http://www.w3.org/1999/xlink" x="0px" y="0px"
	 viewBox="0 0 512 512" style="enable-background:new 0 0 512 512;" xml:space="preserve">
<path style="fill:#F3E8D6;" d="M407.285,136.366v-12.864c0-4.264-3.455-7.719-7.719-7.719h-61.748h-0.001
	c-3.102,0-5.768,1.833-6.996,4.473c-0.354,0.761-0.594,1.585-0.682,2.457c-0.008,0.078-0.007,0.157-0.012,0.236
	c-0.013,0.184-0.028,0.366-0.028,0.554l-0.001,12.865h77.187V136.366z"/>
<path style="fill:#E5D8C6;" d="M399.567,115.783h-30.877c4.264,0,7.719,3.455,7.719,7.719v12.864h30.877v-12.864
	C407.285,119.238,403.831,115.783,399.567,115.783z"/>
<path style="fill:#FFB123;" d="M417.577,177.536v-33.451c0-4.264-3.455-7.719-7.719-7.719h-82.334c-4.264,0-7.719,3.455-7.719,7.719
	v33.451H417.577z"/>
<path style="fill:#FF901D;" d="M409.858,136.366h-30.877c4.264,0,7.719,3.455,7.719,7.719v33.451h30.877v-33.451
	C417.577,139.821,414.122,136.366,409.858,136.366z"/>
<path style="fill:#F3E8D6;" d="M294.079,136.366v-12.864c0-4.264-3.455-7.719-7.719-7.719h-61.748h-0.001
	c-3.102,0-5.769,1.833-6.996,4.473c-0.354,0.761-0.594,1.585-0.682,2.457c-0.008,0.078-0.007,0.157-0.012,0.236
	c-0.013,0.184-0.028,0.366-0.028,0.554l-0.001,12.865h77.187V136.366z"/>
<path style="fill:#E5D8C6;" d="M286.361,115.783h-30.877c4.264,0,7.719,3.455,7.719,7.719v12.864h30.877v-12.864
	C294.079,119.238,290.625,115.783,286.361,115.783z"/>
<path style="fill:#FF4C4D;" d="M304.371,177.536v-33.451c0-4.264-3.455-7.719-7.719-7.719h-82.334c-4.264,0-7.719,3.455-7.719,7.719
	v33.451H304.371z"/>
<path style="fill:#F23939;" d="M296.652,136.366h-30.877c4.264,0,7.719,3.455,7.719,7.719v33.451h30.877v-33.451
	C304.371,139.821,300.916,136.366,296.652,136.366z"/>
<path style="fill:#11B9C1;" d="M21.358,234.14v208.393C21.358,480.837,52.52,512,90.825,512h329.321
	c38.305,0,69.467-31.163,69.467-69.467V234.14H21.358z"/>
<path style="fill:#1499A3;" d="M458.737,234.14v208.393c0,38.305-31.163,69.467-69.467,69.467h30.877
	c38.305,0,69.467-31.163,69.467-69.467V234.14H458.737z"/>
<path style="fill:#F3E8D6;" d="M180.875,136.366v-12.864c0-4.264-3.455-7.719-7.719-7.719h-61.748h-0.001
	c-3.102,0-5.768,1.833-6.996,4.473c-0.354,0.761-0.594,1.585-0.682,2.457c-0.008,0.078-0.007,0.157-0.012,0.236
	c-0.013,0.184-0.028,0.366-0.028,0.554l-0.001,12.865h77.187V136.366z"/>
<path style="fill:#E5D8C6;" d="M173.157,115.783h-30.877c4.264,0,7.719,3.455,7.719,7.719v12.864h30.877v-12.864
	C180.875,119.238,177.42,115.783,173.157,115.783z"/>
<path style="fill:#F3E8D6;" d="M339.56,410.122l-7.01-4.048l8.782-5.798c3.557-2.349,4.536-7.137,2.188-10.695
	c-2.349-3.557-7.138-4.536-10.695-2.188l-15.223,10.052l-46.679-26.951l46.678-26.951l15.223,10.052
	c1.31,0.864,2.786,1.278,4.246,1.278c2.506,0,4.964-1.22,6.449-3.466c2.349-3.558,1.369-8.345-2.188-10.695l-8.782-5.798l7.01-4.048
	c3.692-2.131,4.956-6.852,2.825-10.544c-2.131-3.693-6.853-4.955-10.544-2.825l-7.01,4.047l-0.629-10.503
	c-0.255-4.254-3.868-7.516-8.167-7.242c-4.254,0.255-7.497,3.912-7.242,8.167l1.092,18.209l-46.679,26.951v-53.902l16.316-8.158
	c3.812-1.907,5.358-6.542,3.452-10.356c-1.905-3.812-6.539-5.356-10.356-3.452l-9.412,4.706v-8.094c0-4.264-3.455-7.719-7.719-7.719
	s-7.719,3.455-7.719,7.719v8.094l-9.413-4.706c-3.815-1.908-8.45-0.361-10.356,3.452c-1.906,3.813-0.36,8.449,3.452,10.356
	l16.316,8.158v53.902l-46.679-26.951l1.094-18.208c0.256-4.256-2.987-7.912-7.241-8.167c-4.269-0.259-7.912,2.987-8.167,7.241
	l-0.631,10.506l-7.01-4.048c-3.694-2.13-8.413-0.868-10.544,2.825c-2.131,3.692-0.867,8.412,2.825,10.544l7.01,4.048l-8.782,5.798
	c-3.557,2.349-4.536,7.136-2.188,10.695c1.484,2.248,3.942,3.466,6.449,3.466c1.46,0,2.937-0.414,4.246-1.278l15.222-10.052
	l46.679,26.951l-46.679,26.951l-15.222-10.052c-3.557-2.348-8.344-1.37-10.695,2.188c-2.349,3.558-1.369,8.345,2.188,10.695
	l8.781,5.798l-7.01,4.048c-3.692,2.131-4.956,6.852-2.825,10.544c1.431,2.476,4.024,3.86,6.691,3.86
	c1.309,0,2.638-0.333,3.852-1.035l7.011-4.048l0.63,10.504c0.246,4.098,3.646,7.257,7.697,7.257c0.155,0,0.313-0.004,0.469-0.014
	c4.256-0.255,7.497-3.912,7.242-8.167l-1.094-18.209l46.679-26.951v53.901l-16.316,8.158c-3.812,1.907-5.358,6.542-3.452,10.356
	c1.352,2.705,4.079,4.268,6.91,4.268c1.16,0,2.337-0.263,3.447-0.817l9.413-4.706v8.094c0,4.263,3.455,7.719,7.719,7.719
	s7.719-3.456,7.719-7.719v-8.094l9.412,4.706c1.108,0.555,2.287,0.817,3.447,0.817c2.831,0,5.557-1.564,6.91-4.268
	c1.907-3.813,0.36-8.449-3.452-10.356l-16.316-8.158v-53.901l46.679,26.951l-1.092,18.209c-0.255,4.256,2.987,7.912,7.242,8.167
	c0.157,0.01,0.314,0.014,0.469,0.014c4.052,0,7.451-3.158,7.698-7.257l0.63-10.504l7.01,4.048c1.216,0.702,2.543,1.035,3.852,1.035
	c2.668,0,5.262-1.384,6.691-3.86C344.518,416.974,343.252,412.253,339.56,410.122z"/>
<path style="fill:#21D8DE;" d="M493.216,177.536H18.784c-4.264,0-7.719,3.455-7.719,7.719v41.167c0,4.264,3.455,7.719,7.719,7.719
	h474.432c4.264,0,7.719-3.455,7.719-7.719v-41.167C500.935,180.991,497.48,177.536,493.216,177.536z"/>
<g>
	<path style="fill:#11B9C1;" d="M493.216,177.536h-30.877c4.264,0,7.719,3.455,7.719,7.719v41.167c0,4.264-3.455,7.719-7.719,7.719
		h30.877c4.264,0,7.719-3.455,7.719-7.719v-41.167C500.935,180.991,497.48,177.536,493.216,177.536z"/>
	<path style="fill:#11B9C1;" d="M70.242,177.536L70.241,30.876h370.491v146.659h30.87l0.004-146.659
		C471.607,13.851,457.756,0,440.73,0H70.246C53.22,0,39.369,13.851,39.369,30.876v146.659H70.242z"/>
</g>
<path style="fill:#1499A3;" d="M440.73,0h-30.877c17.026,0,30.877,13.851,30.877,30.876h0.003v146.659h30.87l0.004-146.659
	C471.607,13.851,457.756,0,440.73,0z"/>
<path style="fill:#FFB123;" d="M191.167,177.536v-33.451c0-4.264-3.455-7.719-7.719-7.719h-82.334c-4.264,0-7.719,3.455-7.719,7.719
	v33.451H191.167z"/>
<path style="fill:#FF901D;" d="M183.448,136.366h-30.877c4.264,0,7.719,3.455,7.719,7.719v33.451h30.877v-33.451
	C191.167,139.821,187.711,136.366,183.448,136.366z"/>
<g>
</g>
<g>
</g>
<g>
</g>
<g>
</g>
<g>
</g>
<g>
</g>
<g>
</g>
<g>
</g>
<g>
</g>
<g>
</g>
<g>
</g>
<g>
</g>
<g>
</g>
<g>
</g>
<g>
</g>
</svg>
