<?xml version="1.0" encoding="iso-8859-1"?>
<!-- Generator: Adobe Illustrator 19.0.0, SVG Export Plug-In . SVG Version: 6.00 Build 0)  -->
<svg version="1.1" id="Capa_1" xmlns="http://www.w3.org/2000/svg" xmlns:xlink="http://www.w3.org/1999/xlink" x="0px" y="0px"
	 viewBox="0 0 512 512" style="enable-background:new 0 0 512 512;" xml:space="preserve">
<path style="fill:#A0D860;" d="M425.003,38.133L284.04,179.088l60.931,60.932l121.332-121.331c10.941,9.122,27.28,8.555,37.546-1.71
	c10.868-10.869,10.868-28.554-0.002-39.423l-39.421-39.424C453.558,27.264,435.872,27.265,425.003,38.133z"/>
<g>
	<path style="fill:#89BF43;" d="M464.397,38.104l17.944,17.946c10.868,10.868,10.87,28.553,0.002,39.423
		c-8.86,8.858-22.257,10.508-32.79,4.927c-0.012-0.005-0.027-0.009-0.04-0.014c-2.902-1.658-6.662-1.257-9.142,1.222v0.001
		L323.465,218.513l21.506,21.507l121.331-121.331c10.941,9.122,27.28,8.555,37.546-1.71c10.868-10.869,10.868-28.554-0.002-39.423
		l-39.421-39.424C464.417,38.124,464.406,38.114,464.397,38.104z"/>
	<polygon style="fill:#89BF43;" points="446.613,138.38 458.32,126.672 371.131,92.002 359.424,103.711 	"/>
	<polygon style="fill:#89BF43;" points="417.939,167.054 429.646,155.346 342.457,120.676 330.748,132.385 	"/>
	<polygon style="fill:#89BF43;" points="389.265,195.728 400.973,184.021 313.783,149.35 302.073,161.059 	"/>
</g>
<g>
	<polygon style="fill:#78A833;" points="415.838,126.143 446.613,138.38 458.32,126.672 427.546,114.434 	"/>
	<polygon style="fill:#78A833;" points="387.163,154.816 417.939,167.054 429.646,155.346 398.87,143.109 	"/>
	<polygon style="fill:#78A833;" points="358.489,183.49 389.265,195.728 400.973,184.021 370.197,171.782 	"/>
</g>
<path style="fill:#0072A2;" d="M350.317,245.367l-75.235-75.238c-8.894-8.893-23.366-8.893-32.258,0.001
	c-8.893,8.894-8.894,23.364-0.002,32.255c0,0,74.64,74.635,75.269,75.264c8.89,8.892,23.362,8.892,32.257-0.001
	c8.891-8.895,8.891-23.365-0.002-32.255C350.337,245.384,350.327,245.377,350.317,245.367z"/>
<path style="fill:#006289;" d="M328.887,223.935c8.845,8.895,8.831,23.329-0.044,32.206c-8.898,8.894-23.368,8.894-32.257,0.001
	c-0.405-0.405-31.681-31.679-53.786-53.782c0.008,0.008,0.015,0.017,0.023,0.024c0,0,74.64,74.636,75.269,75.264
	c8.89,8.892,23.362,8.892,32.257-0.001c8.89-8.895,8.89-23.365-0.002-32.255c-0.01-0.01-0.02-0.017-0.029-0.026L328.887,223.935z"/>
<path style="fill:#E5D8C6;" d="M321.197,280.241c-0.06-0.041-0.119-0.082-0.178-0.125c-0.471-0.335-0.935-0.689-1.386-1.065
	c-0.069-0.058-0.137-0.118-0.206-0.176c-0.455-0.39-0.903-0.794-1.334-1.225c-0.079-0.08-1.367-1.368-3.54-3.541
	c-0.016-0.015-0.031-0.026-0.048-0.043l-71.204-71.204l-0.477-0.476c-0.301-0.301-0.589-0.609-0.869-0.921
	c-0.014-0.015-0.025-0.031-0.04-0.046c-0.268-0.301-0.525-0.607-0.774-0.917c-0.002-0.002-0.003-0.005-0.006-0.007L2.228,439.4
	c-2.97,2.969-2.97,7.784,0,10.752c42.49,42.489,111.626,42.49,154.116,0l168.051-168.05c-0.002-0.001-0.006-0.003-0.008-0.004
	C323.285,281.573,322.218,280.953,321.197,280.241z"/>
<path style="fill:#F3E8D6;" d="M273.372,290.115L134.84,428.647c-14.85,14.849-34.58,23.028-55.555,23.028
	c-20.973,0.001-40.704-8.178-55.553-23.029l-5.377-5.376L2.228,439.399c-2.97,2.969-2.97,7.783,0,10.752
	c42.49,42.489,111.626,42.49,154.116,0l138.534-138.531L273.372,290.115z"/>
<g>
</g>
<g>
</g>
<g>
</g>
<g>
</g>
<g>
</g>
<g>
</g>
<g>
</g>
<g>
</g>
<g>
</g>
<g>
</g>
<g>
</g>
<g>
</g>
<g>
</g>
<g>
</g>
<g>
</g>
</svg>
