<?xml version="1.0" encoding="iso-8859-1"?>
<!-- Generator: Adobe Illustrator 19.0.0, SVG Export Plug-In . SVG Version: 6.00 Build 0)  -->
<svg version="1.1" id="Capa_1" xmlns="http://www.w3.org/2000/svg" xmlns:xlink="http://www.w3.org/1999/xlink" x="0px" y="0px"
	 viewBox="0 0 512 512" style="enable-background:new 0 0 512 512;" xml:space="preserve">
<path style="fill:#E5D8C6;" d="M465.71,82.994H46.29c-23.183,0-41.942,18.759-41.942,41.942c0,20.919,15.273,38.236,35.29,41.419
	c0.014,0.002,0.028,0.012,0.042,0.015c3.745,0.602,6.61,3.839,6.61,7.754v254.903h419.42c23.183,0,41.942-18.759,41.942-41.942
	V41.052C507.652,64.236,488.894,82.994,465.71,82.994z"/>
<path style="fill:#C1AD9A;" d="M475.974,0.375C475.216,0.133,474.411,0,473.574,0c-4.344,0-7.864,3.52-7.864,7.864v75.13
	c23.183,0,41.942-18.759,41.942-41.942C507.652,21.411,494.186,4.949,475.974,0.375z"/>
<path style="fill:#D3C2AE;" d="M476.193,81.677v305.408c0,23.183-18.759,41.942-41.942,41.942h31.46
	c23.183,0,41.942-18.759,41.942-41.942V41.052C507.652,60.617,494.295,77.028,476.193,81.677z"/>
<path style="fill:#F3E8D6;" d="M39.68,166.369c-0.014-0.003-0.028-0.013-0.042-0.015c-20.017-3.182-35.29-20.5-35.29-41.419v346.032
	c0,19.824,13.716,36.414,32.187,40.804c0.018,0.004,0.038,0,0.056,0.003c0.59,0.142,1.202,0.224,1.835,0.224
	c4.344,0,7.863-3.52,7.864-7.863l0,0v-75.111V174.123C46.289,170.208,43.425,166.971,39.68,166.369z"/>
<path style="fill:#FF4C4D;" d="M419.163,182.607l10.167-10.167c3.071-3.072,3.071-8.051,0-11.122c-3.072-3.07-8.051-3.07-11.122,0
	l-10.167,10.167l-10.167-10.167c-3.072-3.07-8.051-3.07-11.122,0c-3.071,3.072-3.071,8.051,0,11.122l10.167,10.167l-10.167,10.167
	c-3.071,3.072-3.071,8.051,0,11.122c1.536,1.535,3.549,2.303,5.561,2.303c2.012,0,4.025-0.768,5.561-2.303l10.167-10.167
	l10.167,10.167c1.536,1.535,3.549,2.303,5.561,2.303c2.012,0,4.025-0.768,5.562-2.303c3.071-3.072,3.071-8.051,0-11.122
	L419.163,182.607z"/>
<path style="fill:#775146;" d="M193.091,258.638c-4.344,0-7.864-3.52-7.864-7.864v-94.378c0-4.344,3.52-7.864,7.864-7.864
	s7.864,3.52,7.864,7.864v94.378C200.955,255.118,197.435,258.638,193.091,258.638z"/>
<g>
	<path style="fill:#A0D860;" d="M172.12,185.233c2.012,0,4.025-0.768,5.562-2.304l15.41-15.411l15.41,15.411
		c1.536,1.536,3.548,2.304,5.562,2.304c2.012,0,4.025-0.768,5.56-2.303c3.072-3.071,3.072-8.051,0.001-11.122l-20.971-20.973l0,0
		c-0.001-0.001-0.001-0.001-0.001-0.001c-1.516-1.516-3.499-2.282-5.487-2.298c-0.024,0-0.048-0.004-0.072-0.004
		c-0.05,0-0.101,0.006-0.151,0.007c-1.962,0.038-3.912,0.799-5.409,2.295c0,0,0,0-0.001,0.001l0,0l-20.971,20.973
		c-3.071,3.071-3.071,8.051,0.001,11.122C168.096,184.465,170.108,185.233,172.12,185.233z"/>
	<path style="fill:#A0D860;" d="M198.653,192.781L198.653,192.781C198.652,192.781,198.652,192.781,198.653,192.781
		c-0.13-0.13-0.266-0.244-0.402-0.363c-0.066-0.059-0.129-0.123-0.197-0.178c-0.116-0.095-0.24-0.178-0.363-0.266
		c-0.091-0.066-0.18-0.139-0.274-0.2c-0.061-0.04-0.124-0.071-0.185-0.109c-1.265-0.786-2.702-1.187-4.143-1.187
		c-1.21,0-2.42,0.283-3.526,0.84c-0.043,0.022-0.087,0.038-0.13,0.061c-0.135,0.07-0.265,0.154-0.397,0.235
		c-0.09,0.055-0.185,0.103-0.273,0.161c-0.094,0.062-0.182,0.134-0.274,0.2c-0.122,0.088-0.246,0.171-0.364,0.266
		c-0.067,0.056-0.129,0.118-0.195,0.176c-0.135,0.118-0.273,0.235-0.402,0.364c0,0,0,0-0.001,0.001l0,0l-20.971,20.973
		c-3.071,3.071-3.071,8.051,0.001,11.121c1.535,1.535,3.548,2.303,5.56,2.303c2.012,0,4.025-0.768,5.562-2.304l15.41-15.411
		l15.41,15.411c1.536,1.536,3.548,2.304,5.562,2.304c2.012,0,4.025-0.768,5.56-2.303c3.072-3.071,3.072-8.051,0.001-11.121
		L198.653,192.781z"/>
</g>
<path style="fill:#775146;" d="M266.489,185.233c-4.344,0-7.864-3.52-7.864-7.864v-52.432c0-4.344,3.52-7.864,7.864-7.864
	c4.344,0,7.864,3.52,7.864,7.864v52.432C274.353,181.713,270.833,185.233,266.489,185.233z"/>
<path style="fill:#A0D860;" d="M274.624,142.925c0.763,0.238,1.555,0.363,2.349,0.363c2.012,0,4.025-0.768,5.56-2.303
	c3.072-3.071,3.072-8.051,0.001-11.121l-10.484-10.486h-0.001c0-0.001,0-0.001,0-0.001c-1.516-1.516-3.499-2.282-5.487-2.298
	c-0.024,0-0.048-0.004-0.072-0.004c-0.05,0-0.101,0.006-0.151,0.007c-1.962,0.038-3.912,0.799-5.409,2.295c0,0,0,0,0,0.001
	c-0.001,0-0.001,0-0.001,0l-10.484,10.486c-3.071,3.071-3.071,8.051,0.001,11.121c1.535,1.535,3.548,2.303,5.56,2.303
	c0.794,0,1.585-0.124,2.35-0.363l-7.911,7.911c-3.071,3.071-3.071,8.051,0.001,11.121c1.535,1.535,3.548,2.303,5.56,2.303
	s4.025-0.768,5.561-2.304l4.923-4.923l4.923,4.923c1.536,1.536,3.548,2.304,5.561,2.304c2.012,0,4.025-0.768,5.56-2.303
	c3.072-3.071,3.072-8.051,0.001-11.121L274.624,142.925z"/>
<path style="fill:#775146;" d="M109.203,227.177c-4.344,0-7.864-3.52-7.864-7.864v-52.432c0-4.344,3.52-7.864,7.864-7.864
	c4.344,0,7.864,3.52,7.864,7.864v52.432C117.067,223.657,113.547,227.177,109.203,227.177z"/>
<path style="fill:#A0D860;" d="M117.339,184.869c0.764,0.239,1.555,0.363,2.349,0.363c2.012,0,4.025-0.768,5.56-2.303
	c3.072-3.071,3.072-8.051,0.001-11.121l-10.484-10.486l0,0c-0.001-0.001-0.001-0.001-0.001-0.001
	c-1.516-1.516-3.499-2.282-5.487-2.298c-0.024,0-0.048-0.004-0.072-0.004c-0.05,0-0.101,0.006-0.151,0.007
	c-1.962,0.038-3.912,0.799-5.409,2.295c0,0,0,0-0.001,0.001l0,0l-10.484,10.486c-3.071,3.071-3.071,8.051,0.001,11.121
	c1.535,1.535,3.548,2.303,5.56,2.303c0.794,0,1.585-0.124,2.349-0.363l-7.91,7.911c-3.071,3.071-3.071,8.051,0.001,11.122
	c1.535,1.535,3.548,2.303,5.56,2.303c2.012,0,4.025-0.768,5.562-2.304l4.923-4.923l4.923,4.923c1.536,1.536,3.548,2.304,5.562,2.304
	c2.012,0,4.025-0.768,5.56-2.303c3.072-3.071,3.072-8.051,0.001-11.122L117.339,184.869z"/>
<path style="fill:#927266;" d="M482.472,382.478l-68.054-94.367c-1.477-2.05-3.851-3.264-6.378-3.264s-4.901,1.214-6.378,3.264
	l-68.053,94.367c-2.541,3.522-1.744,8.438,1.778,10.978c1.366,0.985,2.942,1.464,4.507,1.481v0.006h136.056v-0.009
	c0.05,0.002,0.101,0.009,0.151,0.009c1.595,0,3.203-0.483,4.594-1.487C484.216,390.915,485.013,386,482.472,382.478z"/>
<path style="fill:#F3E8D6;" d="M414.418,288.11c-1.477-2.05-3.851-3.264-6.378-3.264s-4.901,1.214-6.378,3.264l-28.751,39.867
	l37.624,14.043c0.249,0.092,0.499,0.169,0.749,0.236c0.038,0.009,0.076,0.016,0.112,0.024c0.264,0.066,0.528,0.115,0.793,0.153
	c0.064,0.008,0.127,0.018,0.191,0.024c0.301,0.036,0.603,0.06,0.903,0.06c0.017,0,0.03-0.004,0.047-0.004
	c0.358-0.001,0.715-0.029,1.072-0.081c0.113-0.017,0.223-0.046,0.336-0.068c0.255-0.048,0.509-0.102,0.761-0.175
	c0.133-0.04,0.26-0.09,0.391-0.136c0.218-0.077,0.435-0.158,0.649-0.256c0.148-0.068,0.289-0.145,0.433-0.22
	c0.113-0.061,0.231-0.107,0.341-0.173l24.881-14.78L414.418,288.11z"/>
<path style="fill:#FFB123;" d="M105.288,342.219c-4.216,0-7.707-3.344-7.854-7.59c-0.152-4.341,3.245-7.982,7.585-8.133
	c10.36-0.362,20.733-1.071,30.832-2.112c4.339-0.44,8.184,2.697,8.629,7.018c0.445,4.32-2.697,8.183-7.018,8.629
	c-10.45,1.075-21.181,1.811-31.895,2.183C105.473,342.218,105.381,342.219,105.288,342.219z M167.786,335.742
	c-3.744,0-7.063-2.684-7.735-6.5c-0.755-4.277,2.102-8.356,6.379-9.11c10.172-1.793,20.317-3.977,30.153-6.493
	c4.211-1.081,8.492,1.464,9.567,5.67c1.077,4.208-1.463,8.491-5.67,9.567c-10.22,2.614-20.758,4.884-31.32,6.745
	C168.699,335.703,168.238,335.742,167.786,335.742z M228.661,320.131c-3.266,0-6.319-2.052-7.438-5.315
	c-1.408-4.109,0.78-8.581,4.888-9.99c9.75-3.343,19.401-7.105,28.685-11.184c3.976-1.748,8.617,0.061,10.363,4.037
	c1.747,3.976-0.061,8.616-4.037,10.363c-9.684,4.255-19.748,8.179-29.91,11.663C230.368,319.994,229.507,320.131,228.661,320.131z
	 M286.187,294.819c-2.779,0-5.472-1.475-6.903-4.085c-2.088-3.808-0.694-8.588,3.115-10.676c9.065-4.97,17.891-10.351,26.235-15.992
	c3.601-2.435,8.488-1.488,10.92,2.11c2.433,3.599,1.489,8.487-2.11,10.92c-8.746,5.914-17.992,11.551-27.484,16.754
	C288.762,294.508,287.465,294.819,286.187,294.819z M338.183,259.525c-2.244,0-4.471-0.954-6.026-2.807
	c-2.793-3.326-2.361-8.286,0.965-11.079c14.386-12.081,21.588-20.753,21.658-20.839c2.759-3.346,7.713-3.831,11.065-1.075
	c3.351,2.756,3.842,7.702,1.09,11.057c-0.323,0.393-8.077,9.782-23.699,22.901C341.764,258.921,339.969,259.525,338.183,259.525z"/>
<path style="fill:#775146;" d="M335.387,393.455c-3.522-2.541-4.319-7.455-1.778-10.978l27.197-37.713l-14.644-20.305
	c-1.477-2.05-3.851-3.264-6.378-3.264s-4.901,1.214-6.378,3.264l-41.839,58.018c-2.541,3.522-1.744,8.438,1.778,10.978
	c1.391,1.003,2.999,1.487,4.594,1.487h41.957v-0.006C338.329,394.919,336.753,394.441,335.387,393.455z"/>
<g>
</g>
<g>
</g>
<g>
</g>
<g>
</g>
<g>
</g>
<g>
</g>
<g>
</g>
<g>
</g>
<g>
</g>
<g>
</g>
<g>
</g>
<g>
</g>
<g>
</g>
<g>
</g>
<g>
</g>
</svg>
