<?xml version="1.0" encoding="iso-8859-1"?>
<!-- Generator: Adobe Illustrator 19.0.0, SVG Export Plug-In . SVG Version: 6.00 Build 0)  -->
<svg version="1.1" id="Capa_1" xmlns="http://www.w3.org/2000/svg" xmlns:xlink="http://www.w3.org/1999/xlink" x="0px" y="0px"
	 viewBox="0 0 512.002 512.002" style="enable-background:new 0 0 512.002 512.002;" xml:space="preserve">
<path style="fill:#F3E8D6;" d="M463.851,105.189c-0.006,0-0.012,0.001-0.017,0.001c-0.013,0-0.024-0.002-0.038-0.002H250.934
	c-12.737,0-23.499,8.589-26.819,20.277H27.881C12.508,125.465,0,137.972,0,153.346v202.774c0,0.264,0.014,0.523,0.04,0.779
	c0.4,9.161,7.763,16.525,16.924,16.925c0.257,0.026,0.516,0.04,0.78,0.04h152.078l172.351,0.001c0,0,0.003,0,0.004,0
	c0,0,0.003,0,0.004,0c4.2,0,7.604-3.405,7.604-7.604V160.929h113.663c0.134,0.007,0.267,0.02,0.401,0.02
	c15.373,0,27.881-12.507,27.881-27.88C491.732,117.696,479.224,105.189,463.851,105.189z"/>
<g>
	<path style="fill:#E5D8C6;" d="M463.851,105.189c-0.006,0-0.012,0.001-0.017,0.001c-0.013,0-0.024-0.002-0.038-0.002h-30.419
		c0.013,0,0.025,0.002,0.038,0.002c0.005,0,0.011-0.001,0.017-0.001c15.373,0,27.881,12.507,27.881,27.88
		c0,15.105-12.077,27.434-27.081,27.86h29.216c0.134,0.007,0.267,0.02,0.401,0.02c15.373,0,27.881-12.507,27.881-27.88
		C491.732,117.696,479.224,105.189,463.851,105.189z"/>
	<path style="fill:#E5D8C6;" d="M342.181,186.28c-0.143,0-0.281,0.014-0.422,0.021h-70.554c-4.199,0-7.604,3.405-7.604,7.604
		v172.356c0,4.199,3.405,7.604,7.604,7.604c0.003,0,0.006,0,0.01,0h70.955c0.003,0,0.007,0,0.01,0c4.2,0,7.604-3.405,7.604-7.604
		V193.884C349.785,189.684,346.382,186.28,342.181,186.28z"/>
</g>
<g>
	<path style="fill:#21D8DE;" d="M230.654,231.924h-70.971c-4.2,0-7.604-3.405-7.604-7.604v-30.416c0-4.199,3.404-7.604,7.604-7.604
		h70.971c4.2,0,7.604,3.405,7.604,7.604v30.416C238.258,228.519,234.855,231.924,230.654,231.924z"/>
	<path style="fill:#21D8DE;" d="M119.131,231.924H48.159c-4.2,0-7.604-3.405-7.604-7.604v-30.416c0-4.199,3.404-7.604,7.604-7.604
		h70.971c4.2,0,7.604,3.405,7.604,7.604v30.416C126.735,228.519,123.331,231.924,119.131,231.924z"/>
</g>
<path style="fill:#A0D860;" d="M48.157,297.827H0v58.294c0,0.264,0.014,0.523,0.04,0.779c0.4,9.161,7.763,16.525,16.924,16.925
	c0.257,0.026,0.516,0.04,0.78,0.04h38.018v-68.434C55.761,301.231,52.358,297.827,48.157,297.827z"/>
<path style="fill:#F3E8D6;" d="M291.485,292.759c-4.2,0-7.604-3.405-7.604-7.604v-20.277c0-4.199,3.404-7.604,7.604-7.604
	c4.2,0,7.604,3.405,7.604,7.604v20.277C299.089,289.354,295.686,292.759,291.485,292.759z"/>
<path style="fill:#E5D8C6;" d="M136.872,125.465v-12.674c0-0.263-0.013-0.523-0.04-0.779c-0.4-9.16-7.763-16.524-16.923-16.924
	c-0.257-0.026-0.516-0.04-0.78-0.04H58.298c-0.264,0-0.523,0.013-0.78,0.04c-9.16,0.4-16.523,7.764-16.923,16.924
	c-0.026,0.255-0.04,0.516-0.04,0.779v12.674H136.872z"/>
<path style="fill:#A0D860;" d="M511.995,264.778c-0.002-0.156-0.012-0.312-0.023-0.467c-0.007-0.103-0.014-0.207-0.024-0.309
	c-0.016-0.129-0.038-0.257-0.06-0.384c-0.021-0.125-0.04-0.25-0.067-0.373c-0.021-0.1-0.05-0.198-0.076-0.296
	c-0.038-0.144-0.074-0.287-0.12-0.427c-0.026-0.083-0.061-0.164-0.09-0.246c-0.055-0.148-0.106-0.295-0.169-0.439
	c-0.038-0.086-0.082-0.169-0.123-0.254c-0.065-0.132-0.127-0.265-0.197-0.392c-0.059-0.105-0.124-0.206-0.188-0.308
	c-0.062-0.101-0.123-0.204-0.191-0.301c-0.083-0.122-0.174-0.237-0.265-0.355c-0.058-0.074-0.111-0.149-0.171-0.221
	c-0.101-0.121-0.21-0.236-0.318-0.351c-0.06-0.063-0.116-0.128-0.177-0.189c-0.105-0.104-0.218-0.202-0.329-0.3
	c-0.076-0.067-0.15-0.136-0.23-0.2c-0.098-0.079-0.201-0.152-0.303-0.227c-0.104-0.077-0.21-0.153-0.319-0.225
	c-0.085-0.056-0.173-0.106-0.262-0.159c-0.135-0.081-0.271-0.159-0.411-0.232c-0.028-0.015-0.055-0.033-0.084-0.048l-40.553-20.28
	c-0.054-0.027-0.109-0.046-0.163-0.072c-0.145-0.068-0.291-0.134-0.442-0.194c-0.097-0.039-0.194-0.073-0.292-0.106
	c-0.133-0.046-0.266-0.09-0.402-0.13c-0.121-0.035-0.242-0.065-0.364-0.093c-0.113-0.026-0.227-0.053-0.342-0.074
	c-0.148-0.027-0.295-0.049-0.442-0.068c-0.095-0.012-0.191-0.023-0.286-0.032c-0.167-0.014-0.334-0.021-0.501-0.025
	c-0.056-0.001-0.109-0.008-0.166-0.008h-83.642v-76.062h-15.208v76.062h-15.208v129.27c0,4.192-3.393,7.592-7.584,7.603
	l111.508,0.001c0.007,0,0.013-0.001,0.02-0.001l50.668,0.001c4.2,0,7.604-3.405,7.604-7.604V264.874
	C512,264.842,511.996,264.81,511.995,264.778z"/>
<g>
	<polygon style="fill:#89BF43;" points="423.309,373.864 423.295,373.864 453.709,373.865 453.717,373.864 	"/>
	<path style="fill:#89BF43;" d="M511.995,264.778c-0.002-0.156-0.012-0.312-0.023-0.467c-0.007-0.103-0.014-0.207-0.024-0.309
		c-0.016-0.129-0.038-0.257-0.06-0.384c-0.021-0.125-0.04-0.25-0.067-0.373c-0.021-0.1-0.05-0.198-0.076-0.296
		c-0.038-0.144-0.074-0.287-0.12-0.427c-0.026-0.083-0.061-0.164-0.09-0.246c-0.055-0.148-0.106-0.295-0.169-0.439
		c-0.038-0.086-0.082-0.169-0.123-0.254c-0.065-0.132-0.127-0.265-0.197-0.392c-0.059-0.105-0.124-0.206-0.188-0.308
		c-0.062-0.101-0.123-0.204-0.191-0.301c-0.083-0.122-0.174-0.237-0.265-0.355c-0.058-0.074-0.111-0.149-0.171-0.221
		c-0.101-0.121-0.21-0.236-0.318-0.351c-0.06-0.063-0.116-0.128-0.177-0.189c-0.105-0.104-0.218-0.202-0.329-0.3
		c-0.076-0.067-0.15-0.136-0.23-0.2c-0.098-0.079-0.201-0.152-0.303-0.227c-0.104-0.077-0.21-0.153-0.319-0.225
		c-0.085-0.056-0.173-0.106-0.262-0.159c-0.135-0.081-0.271-0.159-0.411-0.232c-0.028-0.015-0.055-0.033-0.084-0.048l-40.553-20.28
		c-0.054-0.027-0.109-0.046-0.163-0.072c-0.145-0.068-0.291-0.134-0.442-0.194c-0.097-0.039-0.194-0.073-0.292-0.106
		c-0.133-0.046-0.266-0.09-0.402-0.13c-0.121-0.035-0.242-0.065-0.364-0.093c-0.113-0.026-0.227-0.053-0.342-0.074
		c-0.148-0.027-0.295-0.049-0.442-0.068c-0.095-0.012-0.191-0.023-0.286-0.032c-0.167-0.014-0.334-0.021-0.501-0.025
		c-0.056-0.001-0.109-0.008-0.166-0.008h-26.348l39.884,26.153c0.029,0.014,0.056,0.032,0.084,0.048
		c0.141,0.072,0.276,0.15,0.411,0.232c0.088,0.053,0.176,0.103,0.262,0.159c0.109,0.072,0.215,0.148,0.319,0.225
		c0.102,0.075,0.205,0.148,0.303,0.227c0.079,0.064,0.153,0.133,0.23,0.2c0.112,0.098,0.225,0.196,0.33,0.3
		c0.061,0.061,0.118,0.126,0.177,0.189c0.108,0.115,0.218,0.23,0.318,0.351c0.061,0.071,0.114,0.147,0.171,0.221
		c0.09,0.117,0.181,0.232,0.265,0.355c0.067,0.098,0.128,0.201,0.191,0.301c0.064,0.102,0.129,0.203,0.188,0.308
		c0.07,0.128,0.133,0.261,0.197,0.392c0.041,0.085,0.085,0.168,0.123,0.254c0.063,0.144,0.115,0.291,0.169,0.439
		c0.029,0.082,0.064,0.163,0.09,0.246c0.046,0.14,0.082,0.284,0.12,0.427c0.026,0.098,0.055,0.197,0.076,0.296
		c0.027,0.123,0.047,0.248,0.067,0.373c0.021,0.128,0.044,0.255,0.06,0.384c0.011,0.102,0.018,0.206,0.025,0.309
		c0.012,0.155,0.021,0.311,0.023,0.467c0.001,0.032,0.005,0.065,0.005,0.097v96.317c0,4.195-3.398,7.597-7.592,7.604h30.407
		c4.2,0,7.604-3.405,7.604-7.604V264.875C512,264.842,511.996,264.81,511.995,264.778z"/>
</g>
<path style="fill:#21D8DE;" d="M463.843,236.991c0.057,0,0.111,0.007,0.166,0.008c0.167,0.003,0.334,0.011,0.501,0.025
	c0.096,0.008,0.191,0.02,0.286,0.032c0.148,0.019,0.295,0.041,0.442,0.068c0.115,0.021,0.229,0.047,0.342,0.074
	c0.122,0.028,0.243,0.059,0.364,0.093c0.137,0.039,0.27,0.083,0.402,0.13c0.098,0.034,0.195,0.069,0.292,0.106
	c0.15,0.06,0.296,0.125,0.442,0.194c0.055,0.025,0.109,0.045,0.163,0.072l1.807,0.903l-51.831-77.768H380.2v76.062L463.843,236.991
	L463.843,236.991z"/>
<path style="fill:#11B9C1;" d="M417.22,160.929h-30.419l50.693,76.062h26.348c0.057,0,0.111,0.007,0.166,0.008
	c0.167,0.003,0.334,0.011,0.501,0.025c0.096,0.008,0.191,0.02,0.286,0.032c0.148,0.019,0.295,0.041,0.442,0.068
	c0.115,0.021,0.229,0.047,0.342,0.074c0.122,0.028,0.243,0.059,0.364,0.093c0.137,0.039,0.27,0.083,0.402,0.13
	c0.098,0.034,0.195,0.069,0.292,0.106c0.15,0.06,0.296,0.125,0.442,0.194c0.055,0.025,0.109,0.045,0.163,0.072l1.807,0.903
	L417.22,160.929z"/>
<rect x="349.782" y="160.931" style="fill:#21D8DE;" width="15.208" height="76.06"/>
<g>
	<path style="fill:#0072A2;" d="M418.218,416.953c-23.76,0-43.09-19.329-43.09-43.088c0-23.76,19.33-43.089,43.09-43.089
		c23.759,0,43.088,19.329,43.088,43.089C461.306,397.623,441.977,416.953,418.218,416.953z"/>
	<path style="fill:#0072A2;" d="M134.338,416.954c-23.761,0-43.09-19.33-43.09-43.089c0-23.76,19.329-43.089,43.09-43.089
		c23.759,0,43.088,19.329,43.088,43.089C177.426,397.623,158.096,416.954,134.338,416.954z"/>
</g>
<g>
</g>
<g>
</g>
<g>
</g>
<g>
</g>
<g>
</g>
<g>
</g>
<g>
</g>
<g>
</g>
<g>
</g>
<g>
</g>
<g>
</g>
<g>
</g>
<g>
</g>
<g>
</g>
<g>
</g>
</svg>
