<?xml version="1.0" encoding="iso-8859-1"?>
<!-- Generator: Adobe Illustrator 19.0.0, SVG Export Plug-In . SVG Version: 6.00 Build 0)  -->
<svg version="1.1" id="Capa_1" xmlns="http://www.w3.org/2000/svg" xmlns:xlink="http://www.w3.org/1999/xlink" x="0px" y="0px"
	 viewBox="0 0 512.001 512.001" style="enable-background:new 0 0 512.001 512.001;" xml:space="preserve">
<path style="fill:#A0D860;" d="M471.411,219.924c-0.006-0.073-0.008-0.147-0.016-0.218c-0.016-0.152-0.043-0.301-0.068-0.451
	c-0.017-0.103-0.029-0.206-0.052-0.309c-0.021-0.097-0.051-0.194-0.075-0.291c-0.036-0.147-0.071-0.293-0.117-0.436
	c-0.013-0.04-0.029-0.079-0.043-0.117c-0.144-0.428-0.319-0.839-0.532-1.23c-0.021-0.038-0.046-0.073-0.067-0.111
	c-0.098-0.172-0.197-0.341-0.307-0.503c-0.119-0.176-0.248-0.345-0.382-0.511c-0.017-0.021-0.031-0.044-0.049-0.065
	c-0.29-0.351-0.615-0.677-0.97-0.974c-0.022-0.02-0.042-0.04-0.064-0.058c-0.124-0.103-0.257-0.196-0.387-0.289
	c-0.073-0.054-0.143-0.108-0.218-0.16c-0.094-0.062-0.194-0.119-0.293-0.178c-0.12-0.073-0.239-0.147-0.364-0.214
	c-0.073-0.04-0.151-0.073-0.228-0.109c-0.154-0.077-0.31-0.152-0.471-0.218c-0.016-0.006-0.03-0.014-0.047-0.021
	c-0.459-0.182-45.913-22.639-45.913-175.434c0-0.033-0.004-0.065-0.005-0.099c-0.002-0.156-0.012-0.311-0.023-0.465
	c-0.007-0.105-0.014-0.208-0.024-0.311c-0.016-0.127-0.038-0.253-0.059-0.38c-0.02-0.127-0.041-0.253-0.068-0.378
	c-0.021-0.097-0.05-0.194-0.075-0.291c-0.038-0.145-0.075-0.289-0.121-0.432c-0.026-0.081-0.059-0.158-0.087-0.237
	c-0.056-0.152-0.109-0.303-0.173-0.447c-0.036-0.083-0.078-0.162-0.117-0.243c-0.066-0.137-0.13-0.274-0.203-0.404
	c-0.057-0.101-0.119-0.198-0.18-0.295c-0.065-0.106-0.127-0.214-0.197-0.315c-0.08-0.119-0.17-0.232-0.258-0.345
	c-0.06-0.077-0.116-0.156-0.178-0.23c-0.098-0.119-0.205-0.23-0.312-0.343c-0.062-0.065-0.121-0.135-0.186-0.196
	c-0.103-0.103-0.213-0.198-0.321-0.293c-0.079-0.069-0.156-0.141-0.237-0.208c-0.096-0.077-0.197-0.149-0.298-0.222
	c-0.105-0.077-0.213-0.156-0.323-0.23c-0.084-0.054-0.171-0.105-0.258-0.156c-0.137-0.081-0.274-0.16-0.415-0.234
	c-0.028-0.014-0.055-0.031-0.083-0.048L355.734,0.812c-0.004-0.002-0.008-0.004-0.013-0.006l-0.005-0.004
	c-0.125-0.062-0.252-0.111-0.379-0.166c-0.106-0.046-0.21-0.099-0.32-0.141h-0.003c-0.487-0.187-0.984-0.318-1.483-0.398
	c-0.011-0.002-0.022-0.002-0.033-0.004c-0.234-0.038-0.471-0.065-0.707-0.079c-0.097-0.006-0.193-0.002-0.289-0.004
	c-0.149-0.004-0.3-0.012-0.448-0.006c-0.118,0.004-0.233,0.02-0.351,0.027c-0.128,0.012-0.257,0.018-0.384,0.033
	c-0.105,0.014-0.21,0.038-0.315,0.058c-0.136,0.024-0.273,0.044-0.407,0.075c-0.082,0.02-0.162,0.046-0.243,0.067
	c-0.155,0.042-0.311,0.083-0.463,0.133c-0.052,0.018-0.102,0.042-0.153,0.06c-0.179,0.066-0.358,0.131-0.53,0.21
	c-0.022,0.01-0.044,0.021-0.065,0.031c-0.2,0.093-0.397,0.191-0.588,0.299c-0.006,0.004-0.011,0.008-0.017,0.01
	c-0.206,0.119-0.406,0.245-0.601,0.382c-0.001,0-0.001,0-0.001,0c-0.198,0.141-0.391,0.289-0.576,0.449
	c-0.03,0.025-0.059,0.058-0.089,0.083c-0.151,0.135-0.302,0.274-0.444,0.42c-0.129,0.135-0.247,0.279-0.366,0.424
	c-0.039,0.046-0.081,0.089-0.119,0.137c-0.313,0.398-0.589,0.831-0.821,1.297c0,0.002-0.001,0.002-0.001,0.002
	c-0.12,0.239-0.225,0.484-0.318,0.729L256,239.663L166.802,4.93c-0.093-0.245-0.198-0.489-0.317-0.729h-0.001
	c-0.348-0.699-0.792-1.323-1.311-1.861c-0.075-0.079-0.158-0.15-0.236-0.226c-0.099-0.093-0.195-0.192-0.298-0.281
	c-0.105-0.091-0.218-0.17-0.327-0.255c-0.085-0.064-0.166-0.135-0.253-0.194c-0.109-0.077-0.225-0.145-0.339-0.216
	c-0.094-0.06-0.186-0.123-0.282-0.176c-0.099-0.058-0.203-0.103-0.304-0.156c-0.118-0.06-0.232-0.123-0.352-0.176
	c-0.078-0.033-0.158-0.06-0.236-0.091c-0.148-0.062-0.297-0.123-0.448-0.174c-0.051-0.018-0.103-0.027-0.153-0.044
	c-0.184-0.058-0.367-0.113-0.554-0.156c-0.024-0.006-0.05-0.008-0.073-0.014c-0.215-0.048-0.431-0.087-0.65-0.117
	c-0.002,0-0.005,0-0.007,0c-0.239-0.031-0.482-0.052-0.724-0.06c-0.012,0-0.022,0-0.034,0c-0.232-0.006-0.466-0.004-0.7,0.01
	c-0.103,0.006-0.206,0.023-0.308,0.035c-0.144,0.014-0.286,0.023-0.429,0.048c-0.498,0.081-0.994,0.214-1.479,0.398
	c0,0-0.001,0-0.002,0c-0.086,0.033-0.165,0.075-0.249,0.111c-0.15,0.064-0.302,0.123-0.45,0.196l-0.006,0.004
	c-0.005,0.002-0.009,0.004-0.013,0.006L95.452,31.225c-0.032,0.018-0.063,0.038-0.095,0.054c-0.128,0.067-0.25,0.139-0.374,0.212
	c-0.1,0.06-0.201,0.119-0.298,0.182c-0.095,0.062-0.186,0.129-0.276,0.194c-0.118,0.085-0.234,0.168-0.346,0.26
	c-0.063,0.05-0.121,0.103-0.18,0.156c-0.13,0.111-0.259,0.224-0.38,0.345c-0.041,0.042-0.078,0.085-0.119,0.127
	c-0.13,0.135-0.258,0.272-0.376,0.414c-0.038,0.046-0.071,0.093-0.106,0.139c-0.114,0.143-0.226,0.287-0.328,0.438
	c-0.045,0.067-0.084,0.137-0.127,0.204c-0.086,0.135-0.172,0.27-0.248,0.408c-0.052,0.093-0.096,0.191-0.144,0.285
	c-0.06,0.121-0.122,0.241-0.175,0.364c-0.047,0.108-0.086,0.222-0.128,0.333c-0.046,0.119-0.092,0.235-0.131,0.357
	c-0.034,0.106-0.063,0.216-0.092,0.324c-0.037,0.135-0.073,0.266-0.103,0.4c-0.02,0.093-0.033,0.187-0.051,0.281
	c-0.027,0.158-0.055,0.318-0.073,0.482c-0.008,0.071-0.012,0.145-0.018,0.218c-0.016,0.187-0.026,0.372-0.027,0.561
	c-0.001,0.021-0.004,0.044-0.004,0.067c0,151.264-44.716,174.834-46.039,175.485c-2.733,1.153-4.653,3.856-4.653,7.01v273.735
	c0,0.264,0.014,0.523,0.04,0.779c0.399,9.16,7.763,16.525,16.922,16.926c0.257,0.025,0.517,0.04,0.781,0.04h395.397
	c0.264,0,0.524-0.014,0.781-0.04c9.159-0.402,16.523-7.766,16.922-16.926c0.025-0.255,0.04-0.515,0.04-0.779V220.522
	c0-0.016-0.002-0.029-0.002-0.044C471.438,220.292,471.425,220.109,471.411,219.924z M45.338,213.461l0.001,0.004
	c-0.026,0.012-0.056,0.02-0.083,0.031L45.338,213.461z"/>
<path style="fill:#89BF43;" d="M471.438,220.479c-0.001-0.187-0.014-0.37-0.027-0.555c-0.006-0.073-0.008-0.147-0.016-0.218
	c-0.016-0.152-0.043-0.301-0.068-0.451c-0.017-0.103-0.029-0.206-0.052-0.309c-0.021-0.097-0.051-0.194-0.075-0.291
	c-0.036-0.147-0.071-0.293-0.117-0.436c-0.013-0.04-0.029-0.079-0.043-0.117c-0.144-0.428-0.319-0.839-0.532-1.23
	c-0.021-0.038-0.046-0.073-0.067-0.111c-0.098-0.172-0.197-0.341-0.307-0.503c-0.119-0.176-0.248-0.345-0.382-0.511
	c-0.017-0.021-0.031-0.044-0.049-0.065c-0.29-0.351-0.615-0.677-0.97-0.974c-0.022-0.02-0.042-0.04-0.064-0.058
	c-0.124-0.103-0.257-0.196-0.387-0.289c-0.073-0.054-0.143-0.108-0.218-0.16c-0.094-0.062-0.194-0.119-0.293-0.178
	c-0.12-0.073-0.239-0.147-0.364-0.214c-0.073-0.04-0.151-0.073-0.228-0.109c-0.154-0.077-0.31-0.152-0.471-0.218
	c-0.016-0.006-0.03-0.014-0.047-0.021c-0.459-0.182-45.913-22.639-45.913-175.434c0-0.033-0.004-0.065-0.005-0.099
	c-0.002-0.156-0.012-0.311-0.023-0.465c-0.007-0.105-0.014-0.208-0.024-0.311c-0.016-0.127-0.038-0.253-0.059-0.38
	c-0.02-0.127-0.041-0.253-0.068-0.378c-0.021-0.097-0.05-0.194-0.075-0.291c-0.038-0.145-0.075-0.289-0.121-0.432
	c-0.026-0.081-0.059-0.158-0.087-0.237c-0.056-0.152-0.109-0.303-0.173-0.447c-0.036-0.083-0.078-0.162-0.117-0.243
	c-0.066-0.137-0.13-0.274-0.203-0.404c-0.057-0.101-0.119-0.198-0.18-0.295c-0.065-0.106-0.127-0.214-0.197-0.315
	c-0.08-0.119-0.17-0.232-0.258-0.345c-0.06-0.077-0.116-0.156-0.178-0.23c-0.098-0.119-0.205-0.23-0.312-0.343
	c-0.062-0.065-0.121-0.135-0.186-0.196c-0.103-0.103-0.213-0.198-0.321-0.293c-0.079-0.069-0.156-0.141-0.237-0.208
	c-0.096-0.077-0.197-0.149-0.298-0.222c-0.105-0.077-0.213-0.156-0.323-0.23c-0.084-0.054-0.171-0.105-0.258-0.156
	c-0.137-0.081-0.274-0.16-0.415-0.234c-0.028-0.014-0.055-0.031-0.083-0.048L355.734,0.812c-0.004-0.002-0.008-0.004-0.013-0.006
	l-0.005-0.004c-0.125-0.062-0.252-0.111-0.379-0.166c-0.106-0.046-0.21-0.099-0.32-0.141h-0.003
	c-0.487-0.187-0.984-0.318-1.483-0.398c-0.011-0.002-0.022-0.002-0.033-0.004c-0.234-0.038-0.471-0.065-0.707-0.079
	c-0.097-0.006-0.193-0.002-0.289-0.004c-0.149-0.004-0.3-0.012-0.448-0.006c-0.118,0.004-0.233,0.02-0.351,0.027
	c-0.128,0.012-0.257,0.018-0.384,0.033c-0.105,0.014-0.21,0.038-0.315,0.058c-0.136,0.024-0.273,0.044-0.407,0.075
	c-0.082,0.02-0.162,0.046-0.243,0.067c-0.155,0.042-0.311,0.083-0.463,0.133c-0.052,0.018-0.102,0.042-0.153,0.06
	c-0.179,0.066-0.358,0.131-0.53,0.21c-0.022,0.01-0.044,0.021-0.065,0.031c-0.2,0.093-0.397,0.191-0.588,0.299
	c-0.006,0.004-0.011,0.008-0.017,0.01c-0.206,0.119-0.406,0.245-0.601,0.382c-0.001,0-0.001,0-0.001,0
	c-0.198,0.141-0.391,0.289-0.576,0.449c-0.03,0.025-0.059,0.058-0.089,0.083c-0.151,0.135-0.302,0.274-0.444,0.42
	c-0.129,0.135-0.247,0.279-0.366,0.424c-0.039,0.046-0.081,0.089-0.119,0.137c-0.313,0.398-0.589,0.831-0.821,1.297
	c0,0.002-0.001,0.002-0.001,0.002c-0.12,0.239-0.225,0.484-0.318,0.729l-6.6,17.38l42.791,21.399
	c0.028,0.016,0.055,0.033,0.083,0.048c0.142,0.073,0.278,0.152,0.415,0.233c0.086,0.052,0.173,0.103,0.258,0.156
	c0.111,0.073,0.218,0.152,0.323,0.229c0.101,0.073,0.202,0.145,0.298,0.222c0.081,0.067,0.158,0.139,0.237,0.208
	c0.108,0.095,0.219,0.191,0.321,0.293c0.065,0.062,0.124,0.131,0.186,0.196c0.106,0.113,0.214,0.224,0.312,0.343
	c0.062,0.073,0.119,0.152,0.178,0.23c0.087,0.113,0.177,0.226,0.258,0.345c0.07,0.101,0.133,0.208,0.197,0.315
	c0.062,0.097,0.124,0.194,0.18,0.295c0.073,0.131,0.137,0.268,0.203,0.404c0.039,0.081,0.08,0.16,0.117,0.243
	c0.064,0.145,0.118,0.295,0.173,0.447c0.028,0.079,0.061,0.156,0.087,0.237c0.046,0.143,0.083,0.287,0.121,0.432
	c0.025,0.097,0.054,0.194,0.075,0.291c0.027,0.125,0.048,0.251,0.068,0.378c0.02,0.127,0.043,0.253,0.059,0.38
	c0.011,0.103,0.018,0.206,0.024,0.311c0.012,0.154,0.022,0.309,0.023,0.465c0.001,0.033,0.005,0.065,0.005,0.099
	c0,152.795,50.194,172.905,50.653,173.09c0.016,0.006,0.03,0.014,0.047,0.021c0.161,0.065,0.317,0.141,0.471,0.216
	c0.076,0.038,0.154,0.071,0.228,0.109c0.125,0.067,0.244,0.143,0.364,0.216c0.099,0.06,0.199,0.115,0.293,0.178
	c0.075,0.05,0.145,0.106,0.218,0.158c0.131,0.095,0.264,0.189,0.387,0.289c0.021,0.018,0.042,0.04,0.064,0.058
	c0.355,0.299,0.68,0.624,0.97,0.976c0.017,0.02,0.031,0.044,0.049,0.064c0.134,0.166,0.264,0.337,0.382,0.513
	c0.109,0.16,0.209,0.331,0.307,0.501c0.021,0.038,0.047,0.073,0.067,0.113c0.214,0.388,0.389,0.8,0.532,1.228
	c0.013,0.04,0.029,0.077,0.043,0.117c0.046,0.143,0.08,0.289,0.117,0.436c0.024,0.099,0.055,0.194,0.075,0.293
	c0.022,0.101,0.034,0.206,0.052,0.309c0.025,0.148,0.053,0.299,0.068,0.449c0.008,0.071,0.01,0.147,0.016,0.22
	c0.014,0.182,0.026,0.366,0.027,0.553c0,0.014,0.002,0.029,0.002,0.044v263.596c0,0.264-0.014,0.523-0.04,0.779
	c-0.4,9.16-7.763,16.525-16.922,16.926c-0.257,0.025-0.517,0.04-0.781,0.04H453.7c0.264,0,0.524-0.014,0.781-0.04
	c9.159-0.402,16.523-7.766,16.922-16.926c0.025-0.255,0.04-0.515,0.04-0.779V220.522
	C471.44,220.506,471.438,220.493,471.438,220.479z"/>
<path style="fill:#FFB123;" d="M179.962,182.503h-70.969c-4.2,0-7.604,3.403-7.604,7.604v20.275c0,9.521,7.542,17.293,16.963,17.705
	c0.257,0.025,0.516,0.04,0.78,0.04h50.69c0.264,0,0.523-0.014,0.78-0.04c9.421-0.412,16.965-8.184,16.965-17.705v-20.275
	C187.565,185.907,184.162,182.503,179.962,182.503z"/>
<path style="fill:#FF901D;" d="M81.112,380.2v63.365c0,15.372,12.508,27.881,27.881,27.881h91.246
	c15.373,0,27.881-12.509,27.881-27.881V380.2H81.112z"/>
<path style="fill:#F98115;" d="M197.702,380.2v63.365c0,15.372-12.508,27.881-27.881,27.881h30.418
	c15.373,0,27.881-12.509,27.881-27.881V380.2H197.702z"/>
<path style="fill:#FFB123;" d="M200.238,324.439h-91.246c-15.373,0-27.881,12.507-27.881,27.881V380.2h7.604h7.604h116.592h7.604
	h7.604V352.32C228.119,336.946,215.612,324.439,200.238,324.439z"/>
<path style="fill:#FF901D;" d="M200.238,324.439H169.82c15.373,0,27.881,12.507,27.881,27.881V380.2h15.211h7.604h7.604V352.32
	C228.119,336.946,215.612,324.439,200.238,324.439z"/>
<path style="fill:#CCC8CA;" d="M182.495,380.2v12.675c0,4.199,3.403,7.604,7.604,7.604s7.604-3.404,7.604-7.604V380.2H182.495z"/>
<path style="fill:#FF901D;" d="M170.601,228.087c-0.257,0.025-0.516,0.04-0.78,0.04h-50.69c-0.264,0-0.523-0.014-0.78-0.04
	c-9.421-0.412-16.963-8.184-16.963-17.705v60.83c0,4.2,3.403,7.604,7.604,7.604h70.969c4.2,0,7.604-3.403,7.604-7.604v-60.83
	C187.565,219.903,180.021,227.675,170.601,228.087z"/>
<path style="fill:#78A833;" d="M164.936,2.115c0.078,0.075,0.161,0.147,0.236,0.226c0.519,0.538,0.963,1.162,1.311,1.861h0.001
	c0.12,0.239,0.225,0.484,0.317,0.729l89.198,234.731L345.196,4.93c0.093-0.245,0.198-0.489,0.318-0.729c0,0,0.001,0,0.001-0.002
	c0.232-0.465,0.509-0.899,0.821-1.297c0.038-0.048,0.08-0.091,0.119-0.137c0.119-0.145,0.237-0.289,0.366-0.424
	c0.084-0.087,0.174-0.166,0.264-0.247c-0.049,0.046-0.1,0.085-0.148,0.133C346.655,2.508,318.031,30.421,256,30.421
	c-32.187,0-55.203-7.675-68.843-14.111C172.39,9.341,165.108,2.273,165.06,2.228c-0.048-0.048-0.099-0.087-0.148-0.133
	C164.921,2.101,164.928,2.109,164.936,2.115z"/>
<g>
	<polygon style="fill:#89BF43;" points="248.396,219.653 248.396,512.001 263.603,512.001 263.603,219.652 256,239.663 	"/>
	<path style="fill:#89BF43;" d="M271.207,76.048h-30.415c-4.2,0-7.604-3.403-7.604-7.604s3.403-7.604,7.604-7.604h30.415
		c4.2,0,7.604,3.403,7.604,7.604S275.408,76.048,271.207,76.048z"/>
</g>
<path style="fill:#FFB123;" d="M403.006,182.503h-70.969c-4.2,0-7.604,3.403-7.604,7.604v20.275c0,9.521,7.543,17.293,16.963,17.705
	c0.257,0.025,0.516,0.04,0.78,0.04h50.69c0.264,0,0.523-0.014,0.78-0.04c9.421-0.412,16.965-8.184,16.965-17.705v-20.275
	C410.61,185.907,407.207,182.503,403.006,182.503z"/>
<g>
	<path style="fill:#FF901D;" d="M393.646,228.087c-0.256,0.025-0.516,0.04-0.78,0.04h-50.69c-0.264,0-0.523-0.014-0.78-0.04
		c-9.421-0.412-16.963-8.184-16.963-17.705v60.83c0,4.2,3.403,7.604,7.604,7.604h70.969c4.2,0,7.604-3.403,7.604-7.604v-60.83
		C410.61,219.903,403.066,227.675,393.646,228.087z"/>
	<path style="fill:#FF901D;" d="M294.019,380.2v63.365c0,15.372,12.508,27.881,27.881,27.881h91.246
		c15.373,0,27.881-12.509,27.881-27.881V380.2H294.019z"/>
</g>
<path style="fill:#F98115;" d="M410.608,380.2v63.365c0,15.372-12.508,27.881-27.881,27.881h30.418
	c15.373,0,27.881-12.509,27.881-27.881V380.2H410.608z"/>
<path style="fill:#FFB123;" d="M413.145,324.439h-91.246c-15.373,0-27.881,12.507-27.881,27.881V380.2h7.604h7.604h116.592h7.604
	h7.604V352.32C441.025,336.946,428.519,324.439,413.145,324.439z"/>
<path style="fill:#FF901D;" d="M413.145,324.439h-30.418c15.373,0,27.881,12.507,27.881,27.881V380.2h15.211h7.604h7.604V352.32
	C441.025,336.946,428.519,324.439,413.145,324.439z"/>
<path style="fill:#CCC8CA;" d="M344.705,380.2v12.675c0,4.199,3.403,7.604,7.604,7.604s7.604-3.404,7.604-7.604V380.2H344.705z"/>
<g>
</g>
<g>
</g>
<g>
</g>
<g>
</g>
<g>
</g>
<g>
</g>
<g>
</g>
<g>
</g>
<g>
</g>
<g>
</g>
<g>
</g>
<g>
</g>
<g>
</g>
<g>
</g>
<g>
</g>
</svg>
