<?xml version="1.0" encoding="iso-8859-1"?>
<!-- Generator: Adobe Illustrator 19.0.0, SVG Export Plug-In . SVG Version: 6.00 Build 0)  -->
<svg version="1.1" id="Capa_1" xmlns="http://www.w3.org/2000/svg" xmlns:xlink="http://www.w3.org/1999/xlink" x="0px" y="0px"
	 viewBox="0 0 512 512" style="enable-background:new 0 0 512 512;" xml:space="preserve">
<g>
	<path style="fill:#0072A2;" d="M122.364,441.03h66.508l-18.703,65.454c-0.954,3.34-3.998,5.516-7.307,5.516h-50.695
		c-0.691-0.001-1.393-0.096-2.09-0.295c-4.038-1.154-6.376-5.362-5.222-9.399L122.364,441.03z"/>
	<path style="fill:#0072A2;" d="M446.737,40.551h-46.892L371.71,3.042c-0.031-0.043-0.068-0.079-0.101-0.121
		c-0.086-0.109-0.176-0.217-0.269-0.322c-0.078-0.089-0.157-0.177-0.238-0.263c-0.085-0.089-0.173-0.173-0.263-0.258
		c-0.095-0.09-0.19-0.178-0.288-0.263c-0.086-0.073-0.175-0.142-0.265-0.211c-0.105-0.083-0.212-0.164-0.321-0.241
		c-0.094-0.065-0.191-0.126-0.288-0.187c-0.108-0.068-0.216-0.136-0.326-0.199c-0.111-0.062-0.226-0.119-0.34-0.175
		c-0.102-0.051-0.203-0.102-0.306-0.148c-0.128-0.057-0.26-0.106-0.391-0.156c-0.096-0.036-0.192-0.073-0.288-0.105
		c-0.138-0.047-0.277-0.085-0.418-0.123c-0.098-0.026-0.195-0.054-0.294-0.076c-0.136-0.03-0.275-0.056-0.413-0.079
		c-0.111-0.019-0.222-0.036-0.334-0.051c-0.126-0.016-0.251-0.026-0.379-0.035c-0.131-0.01-0.262-0.017-0.393-0.02
		C365.739,0.007,365.683,0,365.627,0H213.552c-0.056,0-0.107,0.007-0.162,0.008c-0.137,0.003-0.272,0.011-0.407,0.021
		c-0.123,0.009-0.244,0.02-0.365,0.034c-0.117,0.015-0.233,0.032-0.35,0.054c-0.134,0.023-0.267,0.047-0.397,0.076
		c-0.104,0.023-0.207,0.052-0.31,0.079c-0.136,0.036-0.271,0.074-0.402,0.119c-0.103,0.033-0.203,0.072-0.305,0.111
		c-0.126,0.048-0.251,0.096-0.374,0.15c-0.108,0.048-0.215,0.101-0.321,0.154c-0.108,0.055-0.218,0.108-0.323,0.168
		c-0.116,0.065-0.228,0.136-0.341,0.206c-0.093,0.06-0.187,0.117-0.276,0.18c-0.113,0.078-0.222,0.162-0.331,0.247
		c-0.086,0.067-0.172,0.134-0.255,0.205c-0.101,0.085-0.198,0.175-0.294,0.267c-0.088,0.083-0.175,0.167-0.259,0.254
		c-0.082,0.085-0.162,0.174-0.241,0.265c-0.091,0.105-0.18,0.212-0.267,0.32c-0.032,0.042-0.069,0.079-0.101,0.122L179.336,40.55
		H51.335c-20.964,0-38.019,17.055-38.019,38.019v263.602c0,20.964,17.055,38.019,38.019,38.019h395.402
		c20.964,0,38.019-17.055,38.019-38.019V78.57C484.756,57.606,467.701,40.551,446.737,40.551z"/>
</g>
<path style="fill:#CCC8CA;" d="M94.424,380.191v53.235c0,4.2,3.403,7.604,7.604,7.604h294.016c4.199,0,7.604-3.403,7.604-7.604
	v-53.235H94.424z"/>
<g>
	<path style="fill:#0072A2;" d="M216.087,441.03v63.364c0,4.2,3.403,7.604,7.604,7.604h50.691c4.199,0,7.604-3.403,7.604-7.604
		V441.03H216.087z"/>
	<path style="fill:#0072A2;" d="M375.707,441.03h-66.508l18.702,65.454c0.954,3.34,3.999,5.516,7.308,5.516h50.695
		c0.69-0.001,1.392-0.096,2.089-0.295c4.037-1.154,6.376-5.362,5.221-9.399L375.707,441.03z"/>
</g>
<path style="fill:#006289;" d="M393.216,502.305l-17.509-61.276h-30.418l17.509,61.276c1.155,4.037-1.184,8.247-5.221,9.399
	c-0.697,0.199-1.399,0.294-2.09,0.295h30.418c0.69-0.001,1.392-0.096,2.089-0.295C392.032,510.551,394.37,506.343,393.216,502.305z"
	/>
<path style="fill:#B2B2B2;" d="M373.23,380.191v53.235c0,4.2-3.405,7.604-7.604,7.604h30.418c4.199,0,7.604-3.403,7.604-7.604
	v-53.235H373.23z"/>
<g>
	<path style="fill:#006289;" d="M349.7,0.043c0.127,0.009,0.253,0.02,0.378,0.035c0.112,0.014,0.223,0.031,0.334,0.051
		c0.14,0.023,0.277,0.049,0.414,0.079c0.098,0.022,0.195,0.05,0.293,0.076c0.141,0.038,0.281,0.076,0.419,0.123
		c0.097,0.031,0.193,0.068,0.288,0.104c0.131,0.05,0.263,0.1,0.39,0.156c0.104,0.046,0.205,0.097,0.307,0.148
		c0.114,0.057,0.228,0.114,0.339,0.175c0.111,0.063,0.219,0.131,0.326,0.199c0.097,0.062,0.194,0.122,0.288,0.188
		c0.109,0.077,0.216,0.158,0.321,0.241c0.089,0.069,0.178,0.138,0.265,0.211c0.098,0.084,0.193,0.172,0.288,0.263
		c0.089,0.084,0.178,0.168,0.264,0.258c0.081,0.085,0.16,0.173,0.238,0.263c0.092,0.106,0.181,0.213,0.268,0.322
		c0.032,0.042,0.069,0.078,0.101,0.121l28.134,37.509h30.418L385.638,3.055c-0.031-0.043-0.068-0.079-0.101-0.121
		c-0.086-0.109-0.175-0.217-0.268-0.322c-0.078-0.089-0.157-0.177-0.238-0.263c-0.085-0.089-0.174-0.173-0.264-0.258
		c-0.095-0.09-0.191-0.178-0.288-0.263c-0.086-0.073-0.175-0.142-0.265-0.211c-0.105-0.083-0.212-0.164-0.321-0.241
		c-0.094-0.065-0.191-0.126-0.288-0.188c-0.107-0.068-0.216-0.136-0.326-0.199c-0.111-0.062-0.225-0.119-0.339-0.175
		c-0.102-0.051-0.203-0.102-0.307-0.148c-0.128-0.057-0.26-0.107-0.39-0.156c-0.096-0.036-0.191-0.073-0.288-0.104
		c-0.138-0.047-0.279-0.085-0.419-0.123c-0.098-0.026-0.195-0.054-0.293-0.076c-0.137-0.03-0.275-0.056-0.414-0.079
		c-0.111-0.019-0.222-0.036-0.334-0.051c-0.125-0.016-0.251-0.026-0.378-0.035c-0.132-0.01-0.263-0.017-0.394-0.019
		c-0.057-0.002-0.111-0.009-0.168-0.009h-30.418c0.058,0,0.112,0.007,0.168,0.009C349.437,0.025,349.568,0.032,349.7,0.043z"/>
	<path style="fill:#006289;" d="M460.665,40.565h-30.418c20.964,0,38.019,17.055,38.019,38.019v263.602
		c0,20.964-17.055,38.019-38.019,38.019h30.418c20.964,0,38.019-17.055,38.019-38.019V78.584
		C498.684,57.62,481.629,40.565,460.665,40.565z"/>
</g>
<path style="fill:#CCC8CA;" d="M289.577,349.773c-74.073,0-134.335-60.262-134.335-134.335S215.504,81.104,289.577,81.104
	c74.072,0,134.335,60.262,134.335,134.335S363.649,349.773,289.577,349.773z"/>
<path style="fill:#21D8DE;" d="M289.577,319.357c-57.302,0-103.919-46.619-103.919-103.919c0-57.302,46.618-103.919,103.919-103.919
	c57.301,0,103.919,46.618,103.919,103.919S346.878,319.357,289.577,319.357z"/>
<path style="fill:#11B9C1;" d="M289.577,111.519c-5.167,0-10.244,0.384-15.21,1.116c50.117,7.382,88.71,50.668,88.71,102.803
	s-38.593,95.421-88.71,102.803c4.966,0.732,10.043,1.116,15.21,1.116c57.301,0,103.919-46.619,103.919-103.919
	C393.496,158.137,346.878,111.519,289.577,111.519z"/>
<rect x="94.419" y="40.551" style="fill:#006289;" width="15.208" height="339.638"/>
<path style="fill:#CCC8CA;" d="M431.533,114.062c-11.181,0-20.277-9.096-20.277-20.277s9.096-20.277,20.277-20.277
	c11.18,0,20.277,9.096,20.277,20.277S442.713,114.062,431.533,114.062z"/>
<g>
	<path style="fill:#006289;" d="M41.198,152.327H13.316v15.208h27.882c4.199,0,7.604-3.403,7.604-7.604
		C48.801,155.732,45.396,152.327,41.198,152.327z"/>
	<path style="fill:#006289;" d="M41.198,192.628H13.316v15.208h27.882c4.199,0,7.604-3.403,7.604-7.604
		C48.801,196.032,45.396,192.628,41.198,192.628z"/>
	<path style="fill:#006289;" d="M41.198,232.928H13.316v15.208h27.882c4.199,0,7.604-3.403,7.604-7.604
		C48.801,236.332,45.396,232.928,41.198,232.928z"/>
	<path style="fill:#006289;" d="M41.198,273.228H13.316v15.208h27.882c4.199,0,7.604-3.405,7.604-7.604
		C48.801,276.632,45.396,273.228,41.198,273.228z"/>
</g>
<g>
	<path style="fill:#CCC8CA;" d="M162.858,106.452h-30.415c-4.2,0-7.604-3.403-7.604-7.604s3.403-7.604,7.604-7.604h30.415
		c4.199,0,7.604,3.403,7.604,7.604S167.056,106.452,162.858,106.452z"/>
	<path style="fill:#CCC8CA;" d="M347.378,45.623H231.802c-4.2,0-7.604-3.403-7.604-7.604s3.403-7.604,7.604-7.604h115.576
		c4.199,0,7.604,3.403,7.604,7.604S351.576,45.623,347.378,45.623z"/>
</g>
<path style="fill:#B2B2B2;" d="M419.865,182.684c2.637,10.488,4.046,21.46,4.046,32.755s-1.409,22.266-4.046,32.754
	c16.5-1.78,29.392-15.788,29.392-32.754C449.257,198.471,436.365,184.463,419.865,182.684z"/>
<path style="fill:#FF4C4D;" d="M140.05,40.551V17.74c0-4.199-3.404-7.604-7.604-7.604H71.615c-4.2,0-7.604,3.404-7.604,7.604v22.811
	H140.05z"/>
<g>
</g>
<g>
</g>
<g>
</g>
<g>
</g>
<g>
</g>
<g>
</g>
<g>
</g>
<g>
</g>
<g>
</g>
<g>
</g>
<g>
</g>
<g>
</g>
<g>
</g>
<g>
</g>
<g>
</g>
</svg>
