<?xml version="1.0" encoding="iso-8859-1"?>
<!-- Generator: Adobe Illustrator 19.0.0, SVG Export Plug-In . SVG Version: 6.00 Build 0)  -->
<svg version="1.1" id="Capa_1" xmlns="http://www.w3.org/2000/svg" xmlns:xlink="http://www.w3.org/1999/xlink" x="0px" y="0px"
	 viewBox="0 0 512 512" style="enable-background:new 0 0 512 512;" xml:space="preserve">
<path style="fill:#775146;" d="M473.975,45.607H38.025c-4.199,0-7.604-3.403-7.604-7.604c0-4.199,3.405-7.604,7.604-7.604h435.949
	c4.199,0,7.604,3.405,7.604,7.604C481.578,42.204,478.174,45.607,473.975,45.607z"/>
<g>
	<path style="fill:#927266;" d="M48.164,512c-4.199,0-7.604-3.403-7.604-7.604V17.728c0-4.2,3.405-7.604,7.604-7.604
		c4.2,0,7.604,3.403,7.604,7.604v486.668C55.768,508.595,52.363,512,48.164,512z"/>
	<path style="fill:#927266;" d="M463.836,512c-4.2,0-7.604-3.403-7.604-7.604V17.726c0-4.2,3.403-7.604,7.604-7.604
		c4.199,0,7.604,3.405,7.604,7.604v486.669C471.44,508.595,468.035,512,463.836,512z"/>
</g>
<path style="fill:#FF4C4D;" d="M271.208,81.101h-30.415c-4.2,0-7.604-3.403-7.604-7.604c0-4.2,3.403-7.604,7.604-7.604h30.415
	c4.2,0,7.604,3.403,7.604,7.604C278.812,77.697,275.408,81.101,271.208,81.101z"/>
<path style="fill:#FFB123;" d="M144.479,511.997c-18.169,0-32.95-14.781-32.95-32.95s14.781-32.95,32.95-32.95
	s32.95,14.781,32.95,32.95S162.648,511.997,144.479,511.997z"/>
<path style="fill:#927266;" d="M367.521,446.097H144.479c18.169,0,32.95,14.781,32.95,32.95s-14.781,32.95-32.95,32.95h223.043
	c18.169,0,32.95-14.781,32.95-32.95S385.691,446.097,367.521,446.097z"/>
<path style="fill:#775146;" d="M367.521,446.097h-30.419c18.169,0,32.95,14.781,32.95,32.95s-14.781,32.95-32.95,32.95h30.419
	c18.169,0,32.95-14.781,32.95-32.95S385.691,446.097,367.521,446.097z"/>
<path style="fill:#FF4C4D;" d="M235.719,253.46L235.719,253.46L235.719,253.46L235.719,253.46c-4.201,0-7.605,3.403-7.605,7.604
	c0,0.005,0.001,0.009,0.001,0.013c-0.008,32.137-26.154,58.28-58.293,58.28c-4.2,0-7.604,3.403-7.604,7.604v40.562
	c0,0.009,0.001,0.018,0.001,0.025c0.015,51.699,42.079,93.756,93.781,93.756c51.711,0,93.781-42.07,93.781-93.781
	C349.781,304.629,298.613,253.461,235.719,253.46z"/>
<path style="fill:#F23939;" d="M235.719,253.46L235.719,253.46c-2.324,0-4.4,1.044-5.794,2.685
	c51.097,11.289,89.438,56.937,89.438,111.378c0,46.533-34.068,85.253-78.572,92.541c4.953,0.811,10.032,1.24,15.21,1.24
	c51.711,0,93.781-42.07,93.781-93.781C349.781,304.629,298.613,253.461,235.719,253.46z"/>
<path style="fill:#FFB123;" d="M256,420.75c-29.323,0-53.183-23.833-53.227-53.145c-0.001-0.043-0.001-0.084-0.001-0.122v-8.002
	c0-3.077,1.854-5.85,4.698-7.027c22.06-9.124,40.105-25.927,50.808-47.314c1.879-3.754,6.443-5.275,10.199-3.399
	c25.135,12.565,40.749,37.77,40.749,65.782C309.227,396.872,285.349,420.75,256,420.75z"/>
<path style="fill:#FF901D;" d="M268.477,301.742c-3.756-1.877-8.322-0.356-10.199,3.399c-1.277,2.552-2.665,5.033-4.146,7.449
	c15.537,13.74,24.676,33.513,24.676,54.933c0,24.065-16.058,44.44-38.018,51.002c4.822,1.441,9.925,2.225,15.21,2.225
	c29.349,0,53.227-23.878,53.227-53.227C309.227,339.512,293.614,314.306,268.477,301.742z"/>
<g>
	<path style="fill:#006289;" d="M380.197,124.196c0-29.793-10.548-57.165-28.101-78.589h-20.661
		c20.1,19.301,32.837,46.214,33.521,76.054h-12.643c-4.2,0-7.604,3.403-7.604,7.604s3.404,7.604,7.604,7.604h20.278h0.001h0.001
		c4.2,0,7.604-3.403,7.604-7.604L380.197,124.196L380.197,124.196z"/>
	<path style="fill:#006289;" d="M256,0c-68.482,0-124.196,55.713-124.197,124.196l0,0v5.069c0,4.2,3.403,7.604,7.604,7.604h0.001
		h0.001h20.278c4.2,0,7.604-3.403,7.604-7.604c0-4.2-3.403-7.604-7.604-7.604h-12.645C148.395,62.731,196.751,15.208,256,15.208
		c20.231,0,39.188,5.548,55.442,15.192h25.877C315.516,11.471,287.072,0,256,0z"/>
</g>
<path style="fill:#FF4C4D;" d="M321.897,91.245H190.103c-20.964,0-38.019,17.055-38.019,38.019v7.604h7.604h192.625h7.604v-7.604
	C359.917,108.3,342.862,91.245,321.897,91.245z"/>
<path style="fill:#F23939;" d="M321.897,91.245h-30.419c20.964,0,38.019,17.055,38.019,38.019v7.604h22.815h7.604v-7.604
	C359.917,108.3,342.862,91.245,321.897,91.245z"/>
<path style="fill:#0072A2;" d="M159.687,136.869h-7.604v63.365c0,20.964,17.055,38.019,38.019,38.019h131.794
	c20.964,0,38.019-17.055,38.019-38.019v-63.365h-7.604H159.687z"/>
<path style="fill:#006289;" d="M352.313,136.869h-22.815v63.365c0,20.964-17.055,38.019-38.019,38.019h30.419
	c20.964,0,38.019-17.055,38.019-38.019v-63.365H352.313z"/>
<rect x="248.393" y="81.101" style="fill:#F23939;" width="15.208" height="10.136"/>
<g>
</g>
<g>
</g>
<g>
</g>
<g>
</g>
<g>
</g>
<g>
</g>
<g>
</g>
<g>
</g>
<g>
</g>
<g>
</g>
<g>
</g>
<g>
</g>
<g>
</g>
<g>
</g>
<g>
</g>
</svg>
