<?xml version="1.0" encoding="iso-8859-1"?>
<!-- Generator: Adobe Illustrator 19.0.0, SVG Export Plug-In . SVG Version: 6.00 Build 0)  -->
<svg version="1.1" id="Capa_1" xmlns="http://www.w3.org/2000/svg" xmlns:xlink="http://www.w3.org/1999/xlink" x="0px" y="0px"
	 viewBox="0 0 512 512" style="enable-background:new 0 0 512 512;" xml:space="preserve">
<path style="fill:#927266;" d="M423.282,287.205H88.72c-4.2,0-7.604-3.404-7.604-7.604v-30.414c0-4.2,3.404-7.604,7.604-7.604
	h334.562c4.2,0,7.604,3.404,7.604,7.604v30.414C430.886,283.801,427.483,287.205,423.282,287.205z"/>
<path style="fill:#775146;" d="M423.282,241.584h-30.419c4.2,0,7.604,3.404,7.604,7.604v30.414c0,4.2-3.404,7.604-7.604,7.604
	h30.419c4.2,0,7.604-3.404,7.604-7.604v-30.414C430.886,244.987,427.483,241.584,423.282,241.584z"/>
<polygon style="fill:#603E36;" points="324.574,353.106 187.427,353.106 171.325,398.729 340.676,398.729 "/>
<path style="fill:#927266;" d="M88.714,388.594H7.604c-4.199,0-7.604-3.405-7.604-7.604v-30.416c0-4.2,3.405-7.604,7.604-7.604
	h81.11c4.2,0,7.604,3.404,7.604,7.604v30.416C96.318,385.189,92.914,388.594,88.714,388.594z"/>
<g>
	<path style="fill:#775146;" d="M7.604,388.594c-4.199,0-7.604-3.405-7.604-7.604v70.968c0,4.2,3.405,7.604,7.604,7.604
		c4.2,0,7.604-3.404,7.604-7.604v-63.364L7.604,388.594L7.604,388.594z"/>
	<path style="fill:#775146;" d="M96.318,380.959v0.029c0,4.199-3.404,7.604-7.604,7.604h-7.602v63.362
		c0,4.2,3.404,7.604,7.604,7.604c4.199,0,7.604-3.404,7.604-7.604v-70.966C96.32,380.979,96.318,380.969,96.318,380.959z"/>
</g>
<path style="fill:#927266;" d="M504.394,388.594h-81.11c-4.199,0-7.604-3.405-7.604-7.604v-30.416c0-4.2,3.405-7.604,7.604-7.604
	h81.11c4.2,0,7.604,3.404,7.604,7.604v30.416C511.998,385.189,508.594,388.594,504.394,388.594z"/>
<g>
	<path style="fill:#775146;" d="M423.284,388.594c-4.199,0-7.604-3.405-7.604-7.604v70.968c0,4.2,3.405,7.604,7.604,7.604
		c4.199,0,7.604-3.404,7.604-7.604v-63.364L423.284,388.594L423.284,388.594z"/>
	<path style="fill:#775146;" d="M511.998,380.959v0.029c0,4.199-3.404,7.604-7.604,7.604h-7.602v63.362
		c0,4.2,3.404,7.604,7.604,7.604c4.199,0,7.604-3.404,7.604-7.604v-70.966C512,380.979,511.998,380.969,511.998,380.959z"/>
</g>
<g>
	<path style="fill:#FFB123;" d="M129.267,241.576H98.851c-4.199,0-7.604-3.404-7.604-7.604v-60.831c0-4.2,3.405-7.604,7.604-7.604
		h30.416c4.2,0,7.604,3.404,7.604,7.604v60.831C136.871,238.171,133.468,241.576,129.267,241.576z"/>
	<path style="fill:#FFB123;" d="M413.149,241.576h-30.416c-4.2,0-7.604-3.404-7.604-7.604v-60.831c0-4.2,3.404-7.604,7.604-7.604
		h30.416c4.2,0,7.604,3.404,7.604,7.604v60.831C420.753,238.171,417.349,241.576,413.149,241.576z"/>
</g>
<g>
	<path style="fill:#775146;" d="M410.58,451.376c-0.008-0.105-0.016-0.209-0.027-0.313c-0.016-0.129-0.038-0.258-0.06-0.387
		c-0.022-0.133-0.046-0.266-0.075-0.396c-0.021-0.097-0.049-0.195-0.075-0.292c-0.042-0.157-0.087-0.313-0.139-0.465
		c-0.011-0.032-0.018-0.065-0.028-0.098l-57.253-162.22h-51.609l59.039,167.281c0.011,0.029,0.026,0.056,0.039,0.085
		c0.129,0.355,0.277,0.7,0.455,1.026c0.004,0.007,0.008,0.013,0.012,0.02c0.166,0.301,0.357,0.584,0.56,0.859
		c0.05,0.066,0.097,0.134,0.148,0.198c0.204,0.258,0.423,0.502,0.658,0.731c0.056,0.055,0.114,0.104,0.172,0.156
		c0.22,0.202,0.451,0.392,0.695,0.568c0.041,0.027,0.078,0.061,0.119,0.088c0.281,0.194,0.578,0.365,0.885,0.521
		c0.056,0.028,0.111,0.055,0.167,0.081c0.616,0.294,1.279,0.506,1.974,0.625c0.085,0.015,0.17,0.027,0.256,0.04
		c0.314,0.042,0.632,0.07,0.956,0.073c0.024,0,0.049,0.006,0.073,0.006c0.016,0,0.031-0.002,0.047-0.002h35.409
		c0.009,0,0.017,0.002,0.025,0.002c0.241,0,0.485-0.015,0.727-0.039c0.068-0.007,0.135-0.017,0.202-0.025
		c0.159-0.02,0.318-0.043,0.478-0.072c0.105-0.02,0.207-0.044,0.31-0.067c0.116-0.026,0.231-0.057,0.348-0.089
		c0.12-0.033,0.238-0.069,0.356-0.108c0.038-0.012,0.075-0.02,0.112-0.033c0.053-0.018,0.1-0.043,0.151-0.063
		c0.152-0.058,0.304-0.118,0.452-0.186c0.092-0.043,0.184-0.087,0.273-0.132c0.127-0.064,0.251-0.13,0.373-0.199
		c0.105-0.061,0.209-0.125,0.311-0.189c0.099-0.064,0.197-0.128,0.292-0.196c0.113-0.079,0.223-0.161,0.331-0.246
		c0.081-0.065,0.16-0.13,0.237-0.197c0.11-0.094,0.216-0.191,0.318-0.29c0.073-0.07,0.145-0.143,0.215-0.216
		c0.096-0.1,0.191-0.203,0.28-0.308c0.072-0.084,0.143-0.17,0.211-0.258c0.078-0.1,0.154-0.201,0.227-0.304
		c0.073-0.102,0.143-0.207,0.21-0.313c0.06-0.094,0.118-0.19,0.173-0.286c0.069-0.12,0.135-0.241,0.197-0.365
		c0.046-0.091,0.09-0.182,0.133-0.276c0.06-0.131,0.115-0.263,0.166-0.397c0.038-0.096,0.073-0.192,0.106-0.29
		c0.045-0.13,0.085-0.262,0.123-0.394c0.031-0.112,0.061-0.225,0.087-0.339c0.027-0.119,0.054-0.238,0.075-0.36
		c0.025-0.136,0.046-0.274,0.064-0.411c0.013-0.102,0.024-0.205,0.033-0.308c0.014-0.159,0.021-0.319,0.023-0.481
		c0.002-0.057,0.009-0.112,0.009-0.169c0-0.035-0.005-0.071-0.005-0.106C410.601,451.692,410.592,451.534,410.58,451.376z"/>
	<path style="fill:#775146;" d="M159.077,287.205l-57.253,162.22c-0.012,0.032-0.019,0.066-0.029,0.099
		c-0.052,0.152-0.096,0.307-0.138,0.462c-0.026,0.099-0.054,0.197-0.075,0.295c-0.029,0.13-0.053,0.263-0.075,0.394
		c-0.022,0.13-0.044,0.259-0.06,0.388c-0.012,0.104-0.019,0.208-0.027,0.313c-0.012,0.157-0.021,0.316-0.023,0.472
		c0,0.035-0.005,0.071-0.005,0.106c0,0.058,0.007,0.113,0.008,0.169c0.004,0.16,0.011,0.32,0.024,0.481
		c0.009,0.103,0.021,0.205,0.033,0.307c0.018,0.139,0.038,0.276,0.064,0.413c0.021,0.121,0.048,0.239,0.074,0.358
		c0.027,0.114,0.057,0.228,0.088,0.341c0.038,0.133,0.078,0.263,0.123,0.392c0.033,0.098,0.069,0.196,0.106,0.293
		c0.052,0.133,0.107,0.264,0.165,0.393c0.043,0.094,0.088,0.188,0.135,0.279c0.062,0.123,0.127,0.243,0.195,0.361
		c0.056,0.098,0.115,0.195,0.175,0.29c0.067,0.104,0.136,0.208,0.207,0.309c0.074,0.105,0.151,0.207,0.231,0.308
		c0.067,0.086,0.136,0.17,0.207,0.253c0.091,0.106,0.187,0.211,0.284,0.312c0.068,0.072,0.139,0.143,0.21,0.212
		c0.105,0.101,0.213,0.199,0.323,0.294c0.076,0.066,0.154,0.13,0.233,0.193c0.108,0.086,0.22,0.169,0.335,0.25
		c0.094,0.066,0.191,0.13,0.287,0.192c0.104,0.067,0.208,0.131,0.315,0.192c0.121,0.07,0.244,0.135,0.369,0.198
		c0.091,0.046,0.184,0.091,0.276,0.133c0.148,0.067,0.298,0.127,0.449,0.185c0.053,0.02,0.101,0.045,0.153,0.064
		c0.038,0.014,0.075,0.021,0.114,0.034c0.114,0.039,0.23,0.073,0.347,0.106c0.121,0.034,0.242,0.065,0.364,0.094
		c0.097,0.022,0.194,0.045,0.293,0.063c0.165,0.031,0.329,0.056,0.494,0.076c0.064,0.007,0.126,0.018,0.19,0.023
		c0.243,0.023,0.487,0.039,0.73,0.039c0.008,0,0.017-0.002,0.025-0.002h35.409c0.016,0,0.031,0.002,0.048,0.002
		c0.024,0,0.049-0.006,0.073-0.006c0.324-0.003,0.643-0.031,0.955-0.073c0.086-0.012,0.17-0.024,0.255-0.04
		c0.698-0.119,1.36-0.332,1.977-0.626c0.055-0.025,0.108-0.052,0.163-0.079c0.308-0.155,0.606-0.327,0.888-0.523
		c0.04-0.026,0.075-0.058,0.114-0.085c0.245-0.177,0.48-0.368,0.702-0.572c0.057-0.052,0.114-0.1,0.168-0.152
		c0.235-0.229,0.455-0.474,0.66-0.733c0.051-0.064,0.098-0.131,0.147-0.196c0.204-0.276,0.394-0.56,0.561-0.861
		c0.003-0.007,0.008-0.013,0.012-0.019c0.178-0.326,0.325-0.671,0.455-1.025c0.011-0.029,0.027-0.057,0.039-0.086l59.039-167.281
		h-51.606V287.205z"/>
</g>
<path style="fill:#F3E8D6;" d="M342.176,195.39H169.821c-4.199,0-7.604,3.404-7.604,7.604v10.14
	c0,15.373,12.508,27.881,27.881,27.881h131.801c15.373,0,27.881-12.508,27.881-27.881v-10.14
	C349.78,198.794,346.377,195.39,342.176,195.39z"/>
<path style="fill:#E5D8C6;" d="M342.176,195.39h-30.419c4.2,0,7.604,3.404,7.604,7.604v10.14c0,15.373-12.508,27.881-27.881,27.881
	h30.419c15.373,0,27.881-12.508,27.881-27.881v-10.14C349.78,198.794,346.377,195.39,342.176,195.39z"/>
<g>
	<path style="fill:#F3E8D6;" d="M220.513,110.227c-1.826,0-3.655-0.653-5.113-1.977c-3.106-2.825-3.337-7.634-0.511-10.742
		c-0.001,0-0.001,0.001-0.001,0.001c-0.002,0,1.595-1.878,2.261-4.306c0.676-2.467,0.075-4.408-2.01-6.494
		c-11.2-11.2-6.286-25.144-0.249-31.784c2.824-3.106,7.633-3.337,10.741-0.512c3.09,2.808,3.335,7.58,0.561,10.688
		c-0.105,0.124-1.657,1.976-2.31,4.359c-0.676,2.467-0.074,4.408,2.011,6.494c11.2,11.2,6.285,25.144,0.249,31.784
		C224.641,109.388,222.58,110.227,220.513,110.227z"/>
	<path style="fill:#F3E8D6;" d="M255.434,110.227c-1.826,0-3.656-0.653-5.113-1.977c-3.106-2.825-3.337-7.634-0.511-10.742
		c-0.001,0-0.001,0.001-0.001,0.001c-0.002,0,1.595-1.878,2.262-4.306c0.676-2.467,0.075-4.408-2.01-6.494
		c-11.2-11.2-6.286-25.144-0.249-31.784c2.824-3.106,7.633-3.337,10.741-0.512c3.09,2.808,3.334,7.58,0.561,10.688
		c-0.106,0.124-1.657,1.976-2.31,4.359c-0.676,2.467-0.075,4.408,2.011,6.494c11.2,11.2,6.285,25.144,0.249,31.784
		C259.563,109.388,257.502,110.227,255.434,110.227z"/>
	<path style="fill:#F3E8D6;" d="M290.357,110.227c-1.826,0-3.656-0.653-5.113-1.977c-3.108-2.825-3.337-7.634-0.512-10.742v0.001
		c-0.003,0,1.595-1.878,2.261-4.306c0.676-2.467,0.075-4.408-2.012-6.494c-11.2-11.2-6.285-25.144-0.249-31.784
		c2.826-3.107,7.635-3.338,10.742-0.512c3.09,2.808,3.334,7.58,0.561,10.688c-0.105,0.124-1.657,1.976-2.31,4.359
		c-0.676,2.467-0.075,4.408,2.012,6.494c11.2,11.2,6.285,25.144,0.249,31.784C294.484,109.388,292.424,110.227,290.357,110.227z"/>
</g>
<rect x="238.257" y="124.42" style="fill:#F23939;" width="35.484" height="35.484"/>
<rect x="256" y="159.905" style="fill:#E02B2B;" width="35.484" height="35.484"/>
<g>
	<rect x="220.515" y="159.905" style="fill:#FF4C4D;" width="35.484" height="35.484"/>
	<path style="fill:#FF4C4D;" d="M207.843,124.421c-2.8,0-5.069,2.269-5.069,5.069v30.415h35.484v-35.484H207.843z"/>
</g>
<path style="fill:#F23939;" d="M190.1,159.907c-2.799,0-5.069,2.269-5.069,5.069v30.415h35.484v-35.484L190.1,159.907L190.1,159.907
	z"/>
<path style="fill:#E02B2B;" d="M304.156,124.421c2.799,0,5.069,2.269,5.069,5.069v30.415h-35.484v-35.484H304.156z"/>
<path style="fill:#F23939;" d="M321.899,159.907c2.799,0,5.069,2.269,5.069,5.069v30.415h-35.484v-35.484L321.899,159.907
	L321.899,159.907z"/>
<g>
</g>
<g>
</g>
<g>
</g>
<g>
</g>
<g>
</g>
<g>
</g>
<g>
</g>
<g>
</g>
<g>
</g>
<g>
</g>
<g>
</g>
<g>
</g>
<g>
</g>
<g>
</g>
<g>
</g>
</svg>
