<?xml version="1.0" encoding="iso-8859-1"?>
<!-- Generator: Adobe Illustrator 19.0.0, SVG Export Plug-In . SVG Version: 6.00 Build 0)  -->
<svg version="1.1" id="Capa_1" xmlns="http://www.w3.org/2000/svg" xmlns:xlink="http://www.w3.org/1999/xlink" x="0px" y="0px"
	 viewBox="0 0 512 512" style="enable-background:new 0 0 512 512;" xml:space="preserve">
<path style="fill:#0072A2;" d="M397.932,0.014H134.613C134.521,0.011,134.43,0,134.338,0c-4.199,0-7.604,3.403-7.604,7.604v81.125
	c0,0.264,0.013,0.523,0.04,0.78c0.151,3.469,1.291,6.682,3.162,9.357c-1.871,2.675-3.011,5.888-3.162,9.356
	c-0.026,0.256-0.04,0.516-0.04,0.78v60.833c0,0.264,0.013,0.523,0.04,0.78c0.151,3.469,1.291,6.682,3.162,9.357
	c-1.871,2.675-3.011,5.888-3.162,9.357c-0.026,0.257-0.04,0.516-0.04,0.779v78.575L403.258,2.195
	C401.886,0.848,400.006,0.014,397.932,0.014z"/>
<path style="fill:#F3E8D6;" d="M114.067,299.099c-1.945,0-3.89-0.741-5.375-2.225c-2.97-2.968-2.971-7.783-0.003-10.753
	l20.271-20.283c2.967-2.972,7.782-2.973,10.753-0.003c2.97,2.968,2.971,7.783,0.003,10.752l-20.271,20.283
	C117.96,298.357,116.013,299.099,114.067,299.099z"/>
<path style="fill:#A0D860;" d="M403.265,2.188l-276.53,266.493c0.028,0,7.666-0.004,7.695-0.004h81.012
	c0.263,0,0.523-0.013,0.78-0.04c3.469-0.151,6.681-1.291,9.357-3.162c2.676,1.871,5.888,3.011,9.357,3.162
	c0.257,0.026,0.516,0.04,0.779,0.04h70.972c0.263,0,0.523-0.013,0.779-0.04c3.47-0.151,6.684-1.292,9.359-3.164
	c2.676,1.872,5.89,3.013,9.36,3.164c0.257,0.026,0.516,0.04,0.779,0.04h60.75c0.026,0,0.052,0.004,0.078,0.004
	c9.52,0,17.29-7.543,17.702-16.963c0.026-0.256,0.04-0.516,0.04-0.779v-60.833c0-0.264-0.013-0.523-0.04-0.779
	c-0.151-3.469-1.291-6.682-3.162-9.357c1.871-2.676,3.011-5.889,3.162-9.357c0.026-0.257,0.04-0.516,0.04-0.78V109
	c0-0.264-0.013-0.523-0.04-0.78c-0.151-3.469-1.291-6.682-3.162-9.356c1.871-2.676,3.011-5.889,3.162-9.357
	c0.026-0.256,0.04-0.516,0.04-0.78V7.604C405.536,5.483,404.666,3.568,403.265,2.188z"/>
<path style="fill:#89BF43;" d="M405.536,88.728V7.604c0-2.121-0.87-4.036-2.27-5.416l-28.147,27.125V250.94
	c0,0.264-0.013,0.523-0.04,0.779c-0.411,9.394-8.139,16.916-17.622,16.959h30.259c0.026,0,0.052,0.004,0.078,0.004
	c9.52,0,17.29-7.543,17.702-16.963c0.026-0.256,0.04-0.516,0.04-0.779v-60.833c0-0.264-0.013-0.523-0.04-0.779
	c-0.151-3.469-1.291-6.682-3.162-9.357c1.871-2.676,3.011-5.889,3.162-9.357c0.026-0.257,0.04-0.516,0.04-0.78V109
	c0-0.264-0.013-0.523-0.04-0.78c-0.151-3.469-1.291-6.682-3.162-9.356c1.871-2.676,3.011-5.889,3.162-9.357
	C405.521,89.25,405.536,88.991,405.536,88.728z"/>
<path style="fill:#F3E8D6;" d="M174.895,136.888h88.596l101.492-97.809v-1.037c0-1.997-0.811-3.954-2.23-5.373
	c-1.409-1.419-3.366-2.23-5.373-2.23h-96.297h-10.152h-76.035c-1.997,0-3.964,0.811-5.373,2.23c-1.419,1.418-2.23,3.376-2.23,5.373
	v91.242c0,2.007,0.811,3.964,2.23,5.382C170.93,136.078,172.888,136.888,174.895,136.888z"/>
<path style="fill:#89BF43;" d="M387.794,268.681c-0.026,0-0.052-0.004-0.078-0.004h-60.75c-0.263,0-0.523-0.013-0.779-0.04
	c-3.47-0.151-6.684-1.292-9.36-3.164c-2.676,1.872-5.89,3.013-9.359,3.164c-0.256,0.026-0.516,0.04-0.779,0.04h-70.972
	c-0.263,0-0.523-0.013-0.779-0.04c-3.469-0.151-6.681-1.291-9.357-3.162c-2.676,1.871-5.888,3.011-9.357,3.162
	c-0.257,0.026-0.516,0.04-0.78,0.04h-81.014c-0.028,0-7.666,0.004-7.695,0.004v63.365c0,0.264,0.013,0.523,0.04,0.78
	c0.151,3.469,1.291,6.682,3.162,9.357c-1.871,2.675-3.011,5.888-3.162,9.356c-0.026,0.256-0.04,0.516-0.04,0.779v60.833
	c0,0.264,0.013,0.523,0.04,0.78c0.151,3.469,1.291,6.682,3.162,9.357c-1.871,2.675-3.011,5.888-3.162,9.356
	c-0.026,0.256-0.04,0.516-0.04,0.78v60.833c0,0.264,0.013,0.523,0.04,0.78c0.4,9.16,7.764,16.522,16.922,16.922
	c0.257,0.026,0.516,0.04,0.779,0.04h243.318c0.263,0,0.523-0.013,0.78-0.04c9.16-0.401,16.522-7.763,16.922-16.922
	c0.026-0.256,0.04-0.516,0.04-0.78v-60.833c0-0.264-0.013-0.523-0.04-0.78c-0.151-3.469-1.291-6.682-3.162-9.356
	c1.871-2.676,3.011-5.889,3.162-9.357c0.026-0.257,0.04-0.516,0.04-0.78v-60.833c0-0.264-0.013-0.523-0.04-0.779
	c-0.151-3.469-1.291-6.682-3.162-9.356c1.871-2.676,3.011-5.889,3.162-9.357c0.026-0.256,0.04-0.516,0.04-0.78V250.94
	c0,0.264-0.013,0.523-0.04,0.779C405.083,261.139,397.314,268.681,387.794,268.681z"/>
<path style="fill:#78A833;" d="M405.536,332.046V250.94c0,0.264-0.013,0.523-0.04,0.779c-0.412,9.42-8.182,16.963-17.702,16.963
	c-0.026,0-0.052-0.004-0.078-0.004h-12.598v225.581c0,0.264-0.013,0.523-0.04,0.78c-0.4,9.16-7.764,16.522-16.922,16.922
	c-0.256,0.026-0.516,0.04-0.779,0.04h30.417c0.263,0,0.523-0.013,0.78-0.04c9.16-0.401,16.522-7.763,16.922-16.922
	c0.026-0.256,0.04-0.516,0.04-0.78v-60.833c0-0.264-0.013-0.523-0.04-0.78c-0.151-3.469-1.291-6.682-3.162-9.356
	c1.871-2.676,3.011-5.889,3.162-9.357c0.026-0.256,0.04-0.516,0.04-0.78v-60.833c0-0.264-0.013-0.523-0.04-0.779
	c-0.151-3.469-1.291-6.682-3.162-9.356c1.871-2.676,3.011-5.889,3.162-9.357C405.521,332.569,405.536,332.31,405.536,332.046z"/>
<path style="fill:#006289;" d="M375.118,29.313l28.139-27.118c-1.372-1.347-3.25-2.181-5.326-2.181h-22.814L375.118,29.313
	L375.118,29.313z"/>
<g>
</g>
<g>
</g>
<g>
</g>
<g>
</g>
<g>
</g>
<g>
</g>
<g>
</g>
<g>
</g>
<g>
</g>
<g>
</g>
<g>
</g>
<g>
</g>
<g>
</g>
<g>
</g>
<g>
</g>
</svg>
