<?xml version="1.0" encoding="iso-8859-1"?>
<!-- Generator: Adobe Illustrator 19.0.0, SVG Export Plug-In . SVG Version: 6.00 Build 0)  -->
<svg version="1.1" id="Capa_1" xmlns="http://www.w3.org/2000/svg" xmlns:xlink="http://www.w3.org/1999/xlink" x="0px" y="0px"
	 viewBox="0 0 512 512" style="enable-background:new 0 0 512 512;" xml:space="preserve">
<path style="fill:#E5D8C6;" d="M224.876,62.693c-51.854,0-94.04,42.187-94.04,94.04c0,12.195,12.796,63.426,19.102,83.595h33.206
	c-7.526-19.138-20.961-71.978-20.961-83.595c0-34.569,28.124-62.694,62.694-62.694s62.693,28.124,62.693,62.694
	c0,11.433-13.661,64.693-20.924,83.596h33.167c6.316-20.21,19.104-71.491,19.104-83.596
	C318.916,104.879,276.731,62.693,224.876,62.693z"/>
<path style="fill:#F3E8D6;" d="M224.876,31.347c-69.139,0-125.387,56.248-125.387,125.387c0,15.597,13.163,65.885,17.838,83.596
	h32.289c-6.407-20.823-18.781-70.556-18.781-82.552c0-51.854,42.187-94.04,94.04-94.04s94.04,42.187,94.04,94.04
	c0,11.907-12.365,61.685-18.783,82.551l32.288-0.001c4.678-17.719,17.841-68.008,17.841-83.594
	C350.263,87.594,294.014,31.347,224.876,31.347z"/>
<path style="fill:#E5D8C6;" d="M224.876,0C138.453,0,68.142,70.31,68.142,156.734c0,15.911,12.719,65.542,16.896,83.591h32.288
	c-4.678-17.714-17.837-67.995-17.837-83.591c0-69.14,56.249-125.387,125.387-125.387c69.137,0,125.387,56.248,125.387,125.387
	c0,15.586-13.163,65.872-17.841,83.593h32.289c4.177-18.058,16.898-67.689,16.898-83.593C381.61,70.31,311.3,0,224.876,0z"/>
<path style="fill:#D8C9B6;" d="M224.876,0c-5.29,0-10.518,0.267-15.674,0.782c77.999,7.78,139.337,72.983,141.016,152.6
	c0.029,1.113,0.046,2.231,0.046,3.352c0,0.502-0.015,1.042-0.041,1.613c-0.762,17.406-12.816,64.494-16.86,81.979h31.35
	c4.177-18.058,16.898-67.689,16.898-83.593C381.61,70.31,311.3,0,224.876,0z"/>
<path style="fill:#F3E8D6;" d="M224.876,94.039c-34.569,0-62.694,28.124-62.694,62.694c0,11.617,13.435,64.458,20.962,83.596h34.846
	c-9.229-14.472-24.461-71.527-24.461-83.596c0-17.312,14.035-31.347,31.347-31.347s31.347,14.035,31.347,31.347
	c0,12.067-15.231,69.126-24.46,83.595l34.882,0.001c7.263-18.903,20.924-72.163,20.924-83.596
	C287.569,122.164,259.445,94.039,224.876,94.039z"/>
<path style="fill:#E5D8C6;" d="M224.876,449.307c51.854,0,94.04-42.187,94.04-94.04c0-12.195-12.796-63.426-19.102-83.595h-33.206
	c7.526,19.138,20.962,71.978,20.962,83.595c0,34.569-28.124,62.694-62.694,62.694s-62.694-28.124-62.694-62.694
	c0-11.432,13.661-64.693,20.924-83.596H149.94c-6.316,20.21-19.104,71.491-19.104,83.596
	C130.835,407.121,173.021,449.307,224.876,449.307z"/>
<path style="fill:#F3E8D6;" d="M224.876,480.653c69.139,0,125.387-56.248,125.387-125.387c0-15.597-13.163-65.885-17.838-83.596
	h-32.289c6.408,20.823,18.782,70.556,18.782,82.552c0,51.854-42.187,94.04-94.04,94.04c-51.855,0-94.04-42.187-94.04-94.04
	c0-11.907,12.365-61.685,18.783-82.551l-32.289,0.001c-4.678,17.719-17.841,68.008-17.841,83.594
	C99.488,424.405,155.737,480.653,224.876,480.653z"/>
<path style="fill:#E5D8C6;" d="M224.876,512c86.423,0,156.734-70.31,156.734-156.734c0-15.911-12.72-65.542-16.896-83.591h-32.288
	c4.678,17.714,17.837,67.995,17.837,83.591c0,69.14-56.249,125.387-125.387,125.387S99.488,424.406,99.488,355.266
	c0-15.586,13.163-65.872,17.841-83.593H85.04c-4.177,18.058-16.898,67.689-16.898,83.593C68.142,441.69,138.452,512,224.876,512z"/>
<g>
	<path style="fill:#F3E8D6;" d="M224.876,417.961c34.569,0,62.694-28.124,62.694-62.694c0-11.617-13.434-64.457-20.962-83.596
		h-34.846c9.229,14.472,24.461,71.527,24.461,83.596c0,17.312-14.035,31.347-31.347,31.347s-31.347-14.035-31.347-31.347
		c0-12.068,15.231-69.126,24.46-83.595l-34.882-0.001c-7.263,18.903-20.924,72.164-20.924,83.596
		C162.182,389.836,190.306,417.961,224.876,417.961z"/>
	<path style="fill:#F3E8D6;" d="M433.632,240.324c8.652,0,15.673,7.011,15.673,15.673c0,8.651-7.022,15.673-15.673,15.673H78.368
		c-8.652,0-15.673-7.023-15.673-15.673c0-8.662,7.022-15.673,15.673-15.673H433.632z"/>
</g>
<path style="fill:#D8C9B6;" d="M224.876,512c-5.29,0-10.518-0.267-15.674-0.782c77.999-7.78,139.337-72.983,141.016-152.6
	c0.029-1.113,0.046-2.231,0.046-3.352c0-0.502-0.015-1.042-0.041-1.613c-0.762-17.406-12.816-64.494-16.86-81.979h31.35
	c4.177,18.058,16.898,67.689,16.898,83.593C381.61,441.69,311.3,512,224.876,512z"/>
<g>
</g>
<g>
</g>
<g>
</g>
<g>
</g>
<g>
</g>
<g>
</g>
<g>
</g>
<g>
</g>
<g>
</g>
<g>
</g>
<g>
</g>
<g>
</g>
<g>
</g>
<g>
</g>
<g>
</g>
</svg>
