<?xml version="1.0" encoding="iso-8859-1"?>
<!-- Generator: Adobe Illustrator 19.0.0, SVG Export Plug-In . SVG Version: 6.00 Build 0)  -->
<svg version="1.1" id="Capa_1" xmlns="http://www.w3.org/2000/svg" xmlns:xlink="http://www.w3.org/1999/xlink" x="0px" y="0px"
	 viewBox="0 0 512.004 512.004" style="enable-background:new 0 0 512.004 512.004;" xml:space="preserve">
<polygon style="fill:#11B9C1;" points="511.998,503.641 0,502.627 0,157.91 511.998,147.852 "/>
<path style="fill:#21D8DE;" d="M509.774,142.389c-2.971-2.969-7.784-2.969-10.754,0l-4.761,4.761l-4.761-4.761
	c-2.971-2.969-7.784-2.969-10.754,0l-4.761,4.761l-4.761-4.761c-2.971-2.969-7.784-2.969-10.754,0l-4.761,4.761l-4.761-4.761
	c-2.971-2.969-7.784-2.969-10.754,0l-4.761,4.761l-4.761-4.761c-2.971-2.969-7.784-2.969-10.754,0l-4.761,4.761l-4.761-4.761
	c-2.971-2.969-7.784-2.969-10.754,0l-4.761,4.761l-4.761-4.761c-2.971-2.969-7.784-2.969-10.754,0l-4.761,4.761l-4.761-4.761
	c-2.971-2.969-7.784-2.969-10.754,0l-4.761,4.761l-4.761-4.761c-2.971-2.969-7.784-2.969-10.754,0l-4.761,4.761l-4.761-4.761
	c-2.971-2.969-7.784-2.969-10.754,0l-4.761,4.761l-4.761-4.761c-2.971-2.969-7.784-2.969-10.754,0l-4.761,4.761l-4.761-4.761
	c-2.971-2.969-7.784-2.969-10.754,0l-4.761,4.761l-4.761-4.761c-2.971-2.969-7.784-2.969-10.754,0l-4.761,4.761l-4.761-4.761
	c-2.971-2.969-7.784-2.969-10.754,0l-4.761,4.761l-4.761-4.761c-2.971-2.969-7.784-2.969-10.754,0l-4.761,4.761l-4.761-4.761
	c-2.971-2.969-7.784-2.969-10.754,0l-4.761,4.761l-4.761-4.761c-2.971-2.969-7.784-2.969-10.754,0l-4.761,4.761l-4.761-4.761
	c-2.971-2.969-7.784-2.969-10.754,0l-4.761,4.761l-4.761-4.761c-2.971-2.969-7.784-2.969-10.754,0l-4.761,4.761l-4.761-4.761
	c-2.971-2.969-7.784-2.969-10.754,0l-4.761,4.761l-4.761-4.761c-2.971-2.969-7.784-2.969-10.754,0l-4.761,4.761l-4.761-4.761
	c-2.971-2.969-7.784-2.969-10.754,0l-4.761,4.761l-4.761-4.761c-2.971-2.969-7.784-2.969-10.754,0l-4.761,4.761l-4.761-4.761
	c-2.971-2.969-7.784-2.969-10.754,0l-4.761,4.761l-4.761-4.761c-2.971-2.969-7.784-2.969-10.754,0L2.252,152.527
	c-2.97,2.971-2.97,7.784,0,10.754c1.485,1.484,3.432,2.226,5.378,2.226s3.892-0.742,5.378-2.226l4.761-4.761l4.761,4.761
	c1.485,1.484,3.432,2.226,5.378,2.226s3.892-0.742,5.378-2.226l4.761-4.761l4.761,4.761c1.485,1.484,3.432,2.226,5.378,2.226
	s3.892-0.742,5.378-2.226l4.761-4.761l4.761,4.761c1.485,1.484,3.432,2.226,5.378,2.226c1.946,0,3.892-0.742,5.378-2.226
	l4.761-4.761l4.761,4.761c1.485,1.484,3.432,2.226,5.378,2.226c1.946,0,3.892-0.742,5.378-2.226l4.761-4.761l4.761,4.761
	c1.485,1.484,3.432,2.226,5.378,2.226c1.946,0,3.892-0.742,5.378-2.226l4.761-4.761l4.761,4.761
	c1.485,1.484,3.432,2.226,5.378,2.226c1.946,0,3.892-0.742,5.378-2.226l4.761-4.761l4.761,4.761
	c1.485,1.484,3.432,2.226,5.378,2.226c1.946,0,3.892-0.742,5.378-2.226l4.761-4.761l4.761,4.761
	c1.485,1.484,3.432,2.226,5.378,2.226s3.892-0.742,5.378-2.226l4.761-4.761l4.761,4.761c1.485,1.484,3.432,2.226,5.378,2.226
	c1.946,0,3.892-0.742,5.378-2.226l4.761-4.761l4.761,4.761c1.485,1.484,3.432,2.226,5.378,2.226s3.892-0.742,5.378-2.226
	l4.761-4.761l4.761,4.761c1.485,1.484,3.432,2.226,5.378,2.226c1.946,0,3.892-0.742,5.378-2.226l4.761-4.761l4.761,4.761
	c1.485,1.484,3.432,2.226,5.378,2.226s3.892-0.742,5.378-2.226l4.761-4.761l4.761,4.761c1.485,1.484,3.432,2.226,5.378,2.226
	s3.892-0.742,5.378-2.226l4.761-4.761l4.761,4.761c1.485,1.484,3.432,2.226,5.378,2.226c1.946,0,3.892-0.742,5.378-2.226
	l4.761-4.761l4.761,4.761c1.485,1.484,3.432,2.226,5.378,2.226c1.946,0,3.892-0.742,5.378-2.226l4.761-4.761l4.761,4.761
	c1.485,1.484,3.432,2.226,5.378,2.226c1.946,0,3.892-0.742,5.378-2.226l4.761-4.761l4.761,4.761
	c1.485,1.484,3.432,2.226,5.378,2.226s3.892-0.742,5.378-2.226l4.761-4.761l4.761,4.761c1.485,1.484,3.432,2.226,5.378,2.226
	s3.892-0.742,5.378-2.226l4.761-4.761l4.761,4.761c1.485,1.484,3.432,2.226,5.378,2.226c1.946,0,3.892-0.742,5.378-2.226
	l4.761-4.761l4.761,4.761c1.485,1.484,3.432,2.226,5.378,2.226c1.946,0,3.892-0.742,5.378-2.226l4.761-4.761l4.761,4.761
	c1.485,1.484,3.432,2.226,5.378,2.226c1.946,0,3.892-0.742,5.378-2.226l4.761-4.761l4.761,4.761
	c1.485,1.484,3.432,2.226,5.378,2.226s3.892-0.742,5.378-2.226l4.761-4.761l4.761,4.761c1.485,1.484,3.432,2.226,5.378,2.226
	s3.892-0.742,5.378-2.226l4.761-4.761l4.761,4.761c1.485,1.484,3.432,2.226,5.378,2.226c1.946,0,3.892-0.742,5.378-2.226
	l10.139-10.139C512.743,150.172,512.743,145.358,509.774,142.389z"/>
<path style="fill:#FF4C4D;" d="M271.21,206.062c-26.554,0-48.158-21.604-48.158-48.158s21.604-48.158,48.158-48.158
	c26.554,0,48.158,21.604,48.158,48.158S297.765,206.062,271.21,206.062z"/>
<path style="fill:#F23939;" d="M271.21,109.745c-5.315,0-10.425,0.878-15.21,2.475c19.121,6.383,32.949,24.443,32.949,45.684
	c0,21.239-13.828,39.3-32.949,45.684c4.785,1.597,9.895,2.475,15.21,2.475c26.554,0,48.158-21.604,48.158-48.158
	S297.765,109.745,271.21,109.745z"/>
<path style="fill:#FF4C4D;" d="M271.21,64.126c-15.373,0-27.881-12.508-27.881-27.881S255.837,8.363,271.21,8.363
	c15.373,0,27.881,12.508,27.881,27.881S286.583,64.126,271.21,64.126z"/>
<path style="fill:#F23939;" d="M271.21,64.126c-2.636,0-5.185-0.376-7.604-1.063v47.289c2.478-0.395,5.017-0.606,7.604-0.606
	s5.126,0.211,7.604,0.606V63.063C276.395,63.75,273.846,64.126,271.21,64.126z"/>
<path style="fill:#CCC8CA;" d="M294.022,355.615c0-12.578-10.234-22.812-22.812-22.812s-22.812,10.234-22.812,22.812
	c0,9.913,6.357,18.364,15.208,21.504v59.605c0,9.783-7.96,17.743-17.743,17.743c-9.784,0-17.743-7.96-17.743-17.743v-8.046
	c0.82,0.289,1.676,0.442,2.535,0.442c1.946,0,3.892-0.742,5.378-2.226c2.97-2.971,2.97-7.784,0-10.754l-10.139-10.139
	c-0.026-0.026-0.057-0.05-0.084-0.076c-0.152-0.147-0.308-0.292-0.472-0.427c-0.089-0.072-0.182-0.136-0.274-0.204
	c-0.107-0.081-0.214-0.164-0.325-0.239c-0.105-0.07-0.214-0.131-0.32-0.195c-0.105-0.064-0.21-0.13-0.318-0.189
	c-0.106-0.057-0.216-0.104-0.323-0.155c-0.117-0.057-0.232-0.114-0.353-0.164c-0.103-0.042-0.208-0.076-0.312-0.114
	c-0.13-0.047-0.259-0.096-0.391-0.137c-0.102-0.03-0.205-0.053-0.307-0.079c-0.138-0.034-0.275-0.073-0.415-0.101
	c-0.113-0.021-0.226-0.034-0.339-0.052c-0.133-0.02-0.264-0.045-0.398-0.058c-0.187-0.019-0.376-0.023-0.565-0.028
	c-0.061-0.001-0.119-0.009-0.18-0.009c-0.062,0-0.12,0.008-0.18,0.009c-0.189,0.005-0.377,0.01-0.565,0.028
	c-0.135,0.013-0.266,0.038-0.398,0.058c-0.113,0.017-0.226,0.029-0.339,0.052c-0.141,0.027-0.277,0.066-0.415,0.101
	c-0.101,0.026-0.205,0.049-0.307,0.079c-0.133,0.041-0.261,0.089-0.39,0.137c-0.105,0.037-0.21,0.072-0.313,0.115
	c-0.12,0.05-0.234,0.106-0.352,0.162c-0.108,0.052-0.218,0.1-0.324,0.156c-0.108,0.059-0.213,0.125-0.318,0.189
	c-0.106,0.064-0.216,0.125-0.32,0.195c-0.112,0.075-0.218,0.158-0.325,0.239c-0.091,0.068-0.185,0.132-0.274,0.204
	c-0.164,0.135-0.32,0.279-0.472,0.427c-0.027,0.026-0.058,0.05-0.084,0.076c-0.028,0.028-0.053,0.061-0.08,0.089
	c-0.147,0.15-0.289,0.304-0.422,0.466c-0.078,0.095-0.147,0.195-0.219,0.293c-0.075,0.101-0.153,0.2-0.225,0.305
	c-0.075,0.112-0.141,0.228-0.209,0.345c-0.059,0.098-0.12,0.193-0.173,0.293c-0.063,0.118-0.116,0.237-0.172,0.358
	c-0.05,0.105-0.102,0.209-0.147,0.317c-0.049,0.117-0.088,0.236-0.131,0.356c-0.041,0.115-0.085,0.229-0.121,0.347
	c-0.036,0.121-0.064,0.242-0.093,0.363c-0.029,0.12-0.064,0.236-0.088,0.358c-0.028,0.143-0.046,0.287-0.065,0.431
	c-0.015,0.102-0.033,0.202-0.045,0.305c-0.024,0.251-0.038,0.505-0.038,0.757v25.341c0,18.169,14.781,32.951,32.95,32.951
	c18.169,0,32.951-14.781,32.951-32.951v-59.605C287.665,373.98,294.022,365.528,294.022,355.615z M271.21,363.219
	c-4.193,0-7.604-3.411-7.604-7.604s3.411-7.604,7.604-7.604c4.193,0,7.604,3.411,7.604,7.604S275.403,363.219,271.21,363.219z"/>
<path style="fill:#FFB123;" d="M124.199,327.734c-35.532,0-63.365-18.927-63.365-43.089c0-24.162,27.834-43.089,63.365-43.089
	c35.533,0,63.366,18.927,63.366,43.089C187.565,308.807,159.732,327.734,124.199,327.734z"/>
<path style="fill:#FF4C4D;" d="M397.941,398.702c-29.349,0-53.228-19.329-53.228-43.089c0-23.76,23.878-43.089,53.228-43.089
	c29.35,0,53.229,19.329,53.229,43.089C451.169,379.373,427.291,398.702,397.941,398.702z"/>
<path style="fill:#FF901D;" d="M149.545,287.177h-10.139c-4.2,0-7.604-3.404-7.604-7.604c0-4.2,3.404-7.604,7.604-7.604h10.139
	c4.2,0,7.604,3.404,7.604,7.604C157.149,283.774,153.745,287.177,149.545,287.177z"/>
<path style="fill:#F23939;" d="M382.969,358.152h-9.904c-4.2,0-7.604-3.404-7.604-7.604c0-4.199,3.404-7.604,7.604-7.604h9.904
	c4.2,0,7.604,3.405,7.604,7.604C390.573,354.748,387.168,358.152,382.969,358.152z"/>
<path style="fill:#F3E8D6;" d="M263.606,205.457v128.655c2.381-0.844,4.939-1.308,7.604-1.308s5.223,0.464,7.604,1.308V205.457
	c-2.478,0.395-5.017,0.606-7.604,0.606C268.623,206.062,266.085,205.851,263.606,205.457z"/>
<path style="fill:#FF901D;" d="M60.834,284.645c0-9.342,4.174-17.893,11.331-24.878L41.77,242.544
	c-0.015-0.008-0.029-0.014-0.045-0.023c-0.164-0.092-0.336-0.174-0.507-0.254c-0.059-0.026-0.115-0.058-0.172-0.082
	c-0.162-0.07-0.33-0.131-0.498-0.191c-0.072-0.025-0.145-0.056-0.218-0.079c-0.133-0.043-0.27-0.074-0.405-0.109
	c-0.111-0.028-0.222-0.062-0.334-0.085c-0.095-0.02-0.194-0.031-0.291-0.049c-0.154-0.026-0.31-0.055-0.465-0.071
	c-0.075-0.008-0.152-0.009-0.229-0.015c-0.178-0.014-0.356-0.025-0.532-0.026c-0.018,0-0.034-0.003-0.053-0.003
	c-0.07,0-0.14,0.009-0.21,0.011c-0.161,0.004-0.321,0.009-0.482,0.023c-0.115,0.011-0.228,0.028-0.343,0.044
	c-0.127,0.018-0.254,0.034-0.38,0.059c-0.133,0.025-0.263,0.057-0.392,0.088c-0.106,0.026-0.213,0.052-0.318,0.082
	c-0.134,0.039-0.266,0.084-0.396,0.13c-0.101,0.035-0.203,0.071-0.303,0.111c-0.123,0.05-0.241,0.104-0.361,0.158
	c-0.107,0.051-0.215,0.1-0.32,0.154c-0.103,0.055-0.203,0.112-0.303,0.17c-0.118,0.067-0.233,0.137-0.348,0.21
	c-0.083,0.055-0.164,0.113-0.245,0.17c-0.121,0.087-0.241,0.175-0.359,0.27c-0.071,0.057-0.139,0.116-0.207,0.175
	c-0.117,0.101-0.232,0.204-0.344,0.312c-0.068,0.067-0.133,0.138-0.199,0.207c-0.1,0.106-0.2,0.212-0.294,0.323
	c-0.078,0.092-0.15,0.189-0.224,0.284c-0.073,0.096-0.148,0.191-0.218,0.291c-0.091,0.132-0.175,0.271-0.26,0.409
	c-0.035,0.059-0.075,0.113-0.109,0.173c-0.009,0.015-0.015,0.029-0.022,0.045c-0.089,0.16-0.168,0.325-0.246,0.492
	c-0.029,0.065-0.064,0.127-0.092,0.192c-0.066,0.152-0.122,0.31-0.178,0.466c-0.029,0.083-0.064,0.165-0.091,0.249
	c-0.038,0.12-0.066,0.244-0.099,0.367c-0.032,0.124-0.069,0.246-0.095,0.371c-0.018,0.086-0.028,0.174-0.044,0.262
	c-0.028,0.164-0.058,0.328-0.075,0.493c-0.008,0.071-0.009,0.145-0.015,0.217c-0.014,0.181-0.025,0.362-0.026,0.542
	c0,0.018-0.003,0.034-0.003,0.053v70.97c0,0.018,0.003,0.034,0.003,0.053c0.001,0.18,0.013,0.362,0.026,0.542
	c0.006,0.072,0.007,0.145,0.015,0.217c0.018,0.164,0.047,0.328,0.075,0.493c0.015,0.087,0.025,0.175,0.044,0.262
	c0.025,0.125,0.063,0.247,0.095,0.371c0.032,0.123,0.062,0.247,0.099,0.367c0.027,0.084,0.062,0.166,0.092,0.249
	c0.056,0.157,0.112,0.314,0.177,0.466c0.027,0.064,0.063,0.128,0.093,0.192c0.077,0.166,0.156,0.332,0.245,0.491
	c0.008,0.015,0.014,0.029,0.022,0.045c0.018,0.031,0.041,0.059,0.06,0.089c0.135,0.23,0.281,0.451,0.439,0.665
	c0.051,0.067,0.099,0.137,0.151,0.202c0.182,0.232,0.373,0.454,0.581,0.663c0.038,0.037,0.077,0.069,0.115,0.106
	c0.181,0.174,0.371,0.339,0.569,0.494c0.077,0.061,0.156,0.12,0.236,0.177c0.182,0.133,0.369,0.257,0.564,0.372
	c0.063,0.038,0.123,0.077,0.187,0.113c0.264,0.148,0.535,0.282,0.818,0.398c0.023,0.01,0.048,0.017,0.071,0.026
	c0.255,0.101,0.518,0.188,0.785,0.264c0.071,0.02,0.143,0.037,0.214,0.055c0.227,0.057,0.457,0.102,0.692,0.137
	c0.078,0.012,0.155,0.026,0.233,0.035c0.284,0.033,0.572,0.056,0.866,0.057c0.015,0,0.028,0.003,0.044,0.003
	c0.035,0,0.07-0.006,0.105-0.007c0.258-0.004,0.511-0.018,0.76-0.048c0.096-0.011,0.191-0.029,0.286-0.044
	c0.205-0.031,0.408-0.07,0.607-0.117c0.091-0.021,0.181-0.045,0.272-0.07c0.236-0.065,0.469-0.143,0.697-0.23
	c0.048-0.018,0.096-0.032,0.144-0.052c0.287-0.118,0.566-0.252,0.833-0.402c0.013-0.007,0.025-0.012,0.039-0.019l30.395-17.222
	C65.008,302.538,60.834,293.986,60.834,284.645z"/>
<path style="fill:#F23939;" d="M481.575,330.076c-0.004-0.178-0.01-0.357-0.026-0.534c-0.009-0.093-0.024-0.185-0.036-0.276
	c-0.021-0.154-0.041-0.308-0.07-0.461c-0.021-0.109-0.051-0.218-0.076-0.326c-0.031-0.131-0.062-0.262-0.101-0.39
	c-0.038-0.128-0.083-0.25-0.128-0.374c-0.039-0.108-0.074-0.216-0.118-0.321c-0.059-0.144-0.126-0.283-0.193-0.423
	c-0.041-0.083-0.077-0.168-0.121-0.251c-0.085-0.158-0.178-0.311-0.272-0.463c-0.033-0.054-0.061-0.108-0.095-0.161
	c-0.006-0.01-0.014-0.018-0.02-0.026c-0.098-0.149-0.206-0.29-0.314-0.431c-0.049-0.062-0.093-0.13-0.143-0.191
	c-0.077-0.094-0.162-0.18-0.243-0.271c-0.528-0.587-1.133-1.076-1.793-1.461c-0.078-0.047-0.152-0.097-0.232-0.141
	c-0.078-0.042-0.16-0.076-0.24-0.115c-0.69-0.343-1.439-0.582-2.228-0.701c-0.113-0.018-0.225-0.04-0.339-0.052
	c-0.083-0.009-0.169-0.01-0.253-0.016c-0.171-0.013-0.343-0.024-0.515-0.025c-0.012,0-0.023-0.002-0.035-0.002
	c-0.068,0-0.134,0.008-0.201,0.01c-0.174,0.005-0.348,0.01-0.521,0.026c-0.097,0.009-0.193,0.025-0.288,0.039
	c-0.15,0.02-0.3,0.039-0.449,0.068c-0.114,0.022-0.225,0.052-0.338,0.079c-0.127,0.03-0.253,0.06-0.379,0.097
	c-0.13,0.039-0.257,0.086-0.383,0.131c-0.105,0.038-0.21,0.072-0.314,0.115c-0.145,0.06-0.285,0.128-0.425,0.195
	c-0.083,0.041-0.168,0.077-0.249,0.121c-0.159,0.083-0.312,0.177-0.464,0.272c-0.054,0.033-0.108,0.061-0.161,0.095l-0.068,0.045
	c-0.005,0.004-0.011,0.007-0.016,0.011l-22.73,14.924c2.688,5.145,4.175,10.797,4.175,16.726c0,9.38-3.733,18.062-10.043,25.145
	l29.029,16.909c0.02,0.012,0.041,0.019,0.06,0.029c0.275,0.157,0.557,0.3,0.851,0.423c0.022,0.009,0.044,0.015,0.066,0.023
	c0.253,0.103,0.516,0.191,0.782,0.266c0.091,0.025,0.181,0.048,0.273,0.07c0.203,0.049,0.41,0.089,0.618,0.122
	c0.098,0.015,0.194,0.032,0.292,0.045c0.258,0.029,0.518,0.047,0.784,0.051c0.031,0,0.064,0.006,0.095,0.006
	c0.016,0,0.03-0.003,0.046-0.003c0.29-0.002,0.574-0.022,0.856-0.056c0.078-0.009,0.154-0.023,0.231-0.034
	c0.231-0.034,0.458-0.078,0.682-0.133c0.073-0.019,0.145-0.036,0.218-0.057c0.251-0.069,0.498-0.15,0.738-0.244
	c0.038-0.015,0.076-0.026,0.114-0.042c0.28-0.115,0.552-0.245,0.814-0.391c0.056-0.03,0.107-0.067,0.162-0.099
	c0.198-0.117,0.39-0.241,0.576-0.375c0.082-0.059,0.162-0.118,0.241-0.18c0.176-0.138,0.345-0.283,0.508-0.435
	c0.056-0.053,0.114-0.1,0.168-0.153c0.209-0.207,0.404-0.429,0.588-0.658c0.047-0.059,0.09-0.12,0.135-0.179
	c0.154-0.206,0.299-0.42,0.433-0.641c0.021-0.034,0.047-0.064,0.066-0.098c0.014-0.024,0.025-0.05,0.039-0.074
	c0.084-0.148,0.161-0.302,0.236-0.457c0.036-0.075,0.075-0.148,0.108-0.225c0.064-0.145,0.119-0.293,0.174-0.442
	c0.033-0.092,0.07-0.182,0.101-0.275c0.041-0.127,0.074-0.258,0.108-0.387c0.031-0.118,0.065-0.234,0.091-0.354
	c0.023-0.106,0.04-0.217,0.059-0.325c0.025-0.144,0.05-0.286,0.066-0.43c0.011-0.095,0.016-0.192,0.022-0.287
	c0.012-0.158,0.021-0.317,0.023-0.475c0-0.031,0.005-0.064,0.005-0.095v-60.732c0-0.006,0-0.011,0-0.017v-0.082
	C481.585,330.201,481.577,330.139,481.575,330.076z"/>
<g>
</g>
<g>
</g>
<g>
</g>
<g>
</g>
<g>
</g>
<g>
</g>
<g>
</g>
<g>
</g>
<g>
</g>
<g>
</g>
<g>
</g>
<g>
</g>
<g>
</g>
<g>
</g>
<g>
</g>
</svg>
