<?xml version="1.0" encoding="iso-8859-1"?>
<!-- Generator: Adobe Illustrator 19.0.0, SVG Export Plug-In . SVG Version: 6.00 Build 0)  -->
<svg version="1.1" id="Capa_1" xmlns="http://www.w3.org/2000/svg" xmlns:xlink="http://www.w3.org/1999/xlink" x="0px" y="0px"
	 viewBox="0 0 512 512" style="enable-background:new 0 0 512 512;" xml:space="preserve">
<polygon style="fill:#E5D8C6;" points="231.065,111.528 212.911,48.68 86.181,48.68 67.992,111.528 "/>
<polygon style="fill:#D3C2AE;" points="212.911,48.68 182.493,48.68 200.647,111.528 231.065,111.528 "/>
<path style="fill:#F3E8D6;" d="M212.911,48.68V7.604c0-4.199-3.405-7.604-7.604-7.604H93.784c-4.199,0-7.604,3.405-7.604,7.604
	V48.68H212.911z"/>
<g>
	<path style="fill:#E5D8C6;" d="M205.307,0h-30.419c4.199,0,7.604,3.405,7.604,7.604V48.68h30.419V7.604
		C212.911,3.405,209.507,0,205.307,0z"/>
	<path style="fill:#E5D8C6;" d="M86.181,32.442h17.739c4.199,0,7.604-3.405,7.604-7.604c0-4.2-3.405-7.604-7.604-7.604H86.181
		V32.442z"/>
</g>
<path style="fill:#D3C2AE;" d="M212.911,17.234H195.17c-4.199,0-7.604,3.404-7.604,7.604c0,4.199,3.405,7.604,7.604,7.604h17.741
	L212.911,17.234L212.911,17.234z"/>
<path style="fill:#FF4C4D;" d="M448.633,365.017H276.276c-4.199,0-7.604,3.405-7.604,7.604v101.36
	c0,20.964,17.055,38.02,38.02,38.02h111.526c20.964,0,38.02-17.055,38.02-38.02V372.62
	C456.237,368.421,452.833,365.017,448.633,365.017z"/>
<path style="fill:#F23939;" d="M448.633,365.017h-30.419c4.199,0,7.604,3.405,7.604,7.604v101.36c0,20.964-17.055,38.02-38.02,38.02
	h30.419c20.964,0,38.02-17.055,38.02-38.02V372.62C456.237,368.421,452.833,365.017,448.633,365.017z"/>
<g>
	<path style="fill:#F3E8D6;" d="M306.698,349.785c-2.789,0-5.475-1.541-6.807-4.204c-1.867-3.733-0.375-8.266,3.329-10.166
		c0.19-0.104,4.295-2.43,4.819-5.93c0.472-3.151-1.916-7.536-6.725-12.344c-8.636-8.637-12.328-17.249-10.973-25.598
		c1.807-11.129,11.814-16.425,12.95-16.993c3.757-1.878,8.324-0.354,10.2,3.401c1.878,3.757,0.355,8.324-3.401,10.202l0,0
		c0.005,0-4.216,2.341-4.748,5.89c-0.472,3.15,1.916,7.535,6.725,12.343c8.636,8.637,12.327,17.249,10.973,25.598
		c-1.806,11.13-11.813,16.428-12.949,16.996C309,349.526,307.84,349.785,306.698,349.785z"/>
	<path style="fill:#F3E8D6;" d="M362.461,349.785c-2.789,0-5.475-1.541-6.807-4.204c-1.866-3.733-0.375-8.266,3.329-10.166
		c0.189-0.104,4.295-2.43,4.819-5.93c0.472-3.151-1.916-7.536-6.725-12.344c-8.636-8.637-12.328-17.249-10.973-25.598
		c1.807-11.129,11.814-16.425,12.95-16.993c3.757-1.878,8.324-0.354,10.2,3.401c1.878,3.757,0.355,8.324-3.401,10.202l0,0
		c0.005,0-4.216,2.341-4.748,5.89c-0.472,3.15,1.916,7.535,6.725,12.343c8.636,8.637,12.327,17.249,10.973,25.598
		c-1.806,11.13-11.813,16.428-12.949,16.996C364.763,349.526,363.603,349.785,362.461,349.785z"/>
	<path style="fill:#F3E8D6;" d="M418.222,349.785c-2.79,0-5.475-1.541-6.807-4.204c-1.867-3.733-0.375-8.266,3.329-10.166
		c0.189-0.104,4.295-2.43,4.819-5.93c0.472-3.151-1.916-7.536-6.725-12.344c-8.636-8.637-12.328-17.249-10.973-25.598
		c1.807-11.129,11.814-16.425,12.95-16.993c3.756-1.878,8.324-0.354,10.2,3.401c1.878,3.757,0.355,8.324-3.401,10.202l0,0
		c0.005,0-4.216,2.341-4.748,5.89c-0.472,3.15,1.916,7.535,6.725,12.343c8.636,8.637,12.327,17.249,10.973,25.598
		c-1.806,11.13-11.813,16.428-12.949,16.996C420.524,349.526,419.364,349.785,418.222,349.785z"/>
</g>
<path style="fill:#FFB123;" d="M235.724,111.528H63.367c-4.199,0-7.604,3.404-7.604,7.604V473.98
	c0,20.964,17.055,38.02,38.019,38.02h111.526c20.964,0,38.02-17.055,38.02-38.02V119.132
	C243.328,114.931,239.923,111.528,235.724,111.528z"/>
<path style="fill:#FF901D;" d="M235.724,111.528h-30.419c4.199,0,7.604,3.404,7.604,7.604V473.98c0,20.964-17.055,38.02-38.02,38.02
	h30.419c20.964,0,38.02-17.055,38.02-38.02V119.132C243.328,114.931,239.923,111.528,235.724,111.528z"/>
<g>
</g>
<g>
</g>
<g>
</g>
<g>
</g>
<g>
</g>
<g>
</g>
<g>
</g>
<g>
</g>
<g>
</g>
<g>
</g>
<g>
</g>
<g>
</g>
<g>
</g>
<g>
</g>
<g>
</g>
</svg>
