<?xml version="1.0" encoding="iso-8859-1"?>
<!-- Generator: Adobe Illustrator 19.0.0, SVG Export Plug-In . SVG Version: 6.00 Build 0)  -->
<svg version="1.1" id="Capa_1" xmlns="http://www.w3.org/2000/svg" xmlns:xlink="http://www.w3.org/1999/xlink" x="0px" y="0px"
	 viewBox="0 0 512 512" style="enable-background:new 0 0 512 512;" xml:space="preserve">
<path style="fill:#927266;" d="M483.977,282.783c0.091,0.782,0.142,1.571,0.142,2.362c0,11.203-9.084,20.277-20.277,20.277H48.148
	c-11.193,0-20.277-9.074-20.277-20.277c0-0.791,0.051-1.571,0.142-2.352v-0.01l29.27-17.915h284.885h112.549L483.977,282.783z"/>
<g>
	<path style="fill:#775146;" d="M463.842,305.422c11.193,0,20.277,9.084,20.277,20.277c0,11.203-9.084,20.277-20.277,20.277H48.148
		c-11.193,0-20.277-9.074-20.277-20.277c0-11.193,9.084-20.277,20.277-20.277H463.842z"/>
	<path style="fill:#775146;" d="M463.842,467.645c11.193,0,20.277,9.084,20.277,20.277c0,11.203-9.084,20.277-20.277,20.277H48.148
		c-11.193,0-20.277-9.074-20.277-20.277c0-11.193,9.084-20.277,20.277-20.277H463.842z"/>
	<path style="fill:#775146;" d="M463.842,386.531c11.193,0,20.277,9.084,20.277,20.277c0,11.203-9.084,20.277-20.277,20.277H48.148
		c-11.193,0-20.277-9.074-20.277-20.277c0-11.193,9.084-20.277,20.277-20.277H463.842z"/>
</g>
<g>
	<path style="fill:#927266;" d="M463.842,345.981c11.193,0,20.277,9.084,20.277,20.277c0,11.203-9.084,20.277-20.277,20.277H48.148
		c-11.193,0-20.277-9.074-20.277-20.277c0-11.193,9.084-20.277,20.277-20.277H463.842z"/>
	<path style="fill:#927266;" d="M463.842,427.09c11.193,0,20.277,9.084,20.277,20.277c0,11.203-9.084,20.277-20.277,20.277H48.148
		c-11.193,0-20.277-9.074-20.277-20.277c0-11.193,9.084-20.277,20.277-20.277H463.842z"/>
</g>
<path style="fill:#603E36;" d="M463.842,305.422h-30.419c11.193,0,20.277,9.084,20.277,20.277c0,11.203-9.084,20.277-20.277,20.277
	h30.419c11.193,0,20.277-9.074,20.277-20.277C484.119,314.506,475.035,305.422,463.842,305.422z"/>
<polygon style="fill:#775146;" points="454.717,264.868 342.168,264.868 57.283,264.868 123.519,224.313 388.471,224.313 "/>
<polygon style="fill:#927266;" points="388.471,224.313 123.519,224.313 189.754,183.759 189.764,183.759 322.236,183.759 "/>
<polygon style="fill:#775146;" points="322.236,183.759 189.764,183.759 256,143.204 "/>
<path style="fill:#FFB123;" d="M311.762,376.392c0,5.576,0,14.701,0,20.277v20.277c0,5.576,0,14.701,0,20.277v20.277
	c0,5.576,0,14.701,0,20.277v20.277c0,5.576-4.562,10.139-10.139,10.139h-91.258c-5.576,0-10.139-4.562-10.139-10.139v-20.277
	c0-5.576,0-14.701,0-20.277v-20.277c0-5.576,0-14.701,0-20.277V396.67c0-5.576,0-14.701,0-20.277v-30.416
	c0-5.576,4.562-10.139,10.139-10.139h91.258c5.576,0,10.139,4.562,10.139,10.139V376.392z"/>
<path style="fill:#FF901D;" d="M301.624,335.838h-20.28v10.139v40.554v40.554v40.554v40.554h20.28
	c5.576,0,10.139-4.562,10.139-10.139v-20.277c0-2.788,0-6.463,0-10.139c0-3.675,0-7.35,0-10.139v-20.277c0-2.788,0-6.463,0-10.139
	c0-3.675,0-7.35,0-10.139V396.67c0-2.788,0-6.463,0-10.139c0-3.675,0-7.35,0-10.139v-30.416
	C311.762,340.4,307.2,335.838,301.624,335.838z"/>
<path style="fill:#603E36;" d="M463.842,386.534h-30.419c11.193,0,20.277,9.084,20.277,20.277c0,11.203-9.084,20.277-20.277,20.277
	h30.419c11.193,0,20.277-9.074,20.277-20.277C484.119,395.618,475.035,386.534,463.842,386.534z"/>
<g>
	<path style="fill:#775146;" d="M463.842,345.977h-30.419c11.193,0,20.277,9.084,20.277,20.277c0,11.203-9.084,20.277-20.277,20.277
		h30.419c11.193,0,20.277-9.074,20.277-20.277C484.119,355.061,475.035,345.977,463.842,345.977z"/>
	<path style="fill:#775146;" d="M463.842,427.09h-30.419c11.193,0,20.277,9.084,20.277,20.277c0,11.203-9.084,20.277-20.277,20.277
		h30.419c11.193,0,20.277-9.074,20.277-20.277C484.119,436.174,475.035,427.09,463.842,427.09z"/>
	<path style="fill:#775146;" d="M463.842,264.868h-30.419c11.193,0,20.277,9.084,20.277,20.277c0,11.203-9.084,20.277-20.277,20.277
		h30.419c11.193,0,20.277-9.074,20.277-20.277C484.119,273.952,475.035,264.868,463.842,264.868z"/>
</g>
<path style="fill:#603E36;" d="M463.842,467.645h-30.419c11.193,0,20.277,9.084,20.277,20.277c0,11.203-9.084,20.277-20.277,20.277
	h30.419c11.193,0,20.277-9.074,20.277-20.277C484.119,476.729,475.035,467.645,463.842,467.645z"/>
<g>
	<path style="fill:#FF4C4D;" d="M511.313,289.525c0.059-0.131,0.115-0.263,0.166-0.396c0.042-0.106,0.081-0.214,0.118-0.321
		c0.041-0.121,0.078-0.243,0.113-0.367c0.035-0.124,0.068-0.248,0.096-0.373c0.025-0.111,0.047-0.223,0.067-0.336
		c0.025-0.141,0.048-0.281,0.065-0.423c0.012-0.102,0.022-0.205,0.031-0.309c0.012-0.152,0.02-0.304,0.022-0.456
		c0.001-0.056,0.008-0.108,0.008-0.164v-40.554c0-0.049-0.006-0.095-0.007-0.144c-0.003-0.144-0.01-0.287-0.021-0.43
		c-0.009-0.118-0.019-0.233-0.032-0.35c-0.015-0.12-0.034-0.237-0.055-0.357c-0.022-0.134-0.047-0.267-0.076-0.398
		c-0.022-0.099-0.05-0.197-0.076-0.295c-0.039-0.143-0.077-0.284-0.124-0.423c-0.03-0.092-0.066-0.182-0.099-0.274
		c-0.052-0.137-0.103-0.274-0.162-0.407c-0.043-0.098-0.092-0.193-0.14-0.289c-0.059-0.119-0.117-0.238-0.181-0.354
		c-0.062-0.109-0.129-0.215-0.196-0.321c-0.061-0.097-0.121-0.194-0.186-0.288c-0.079-0.115-0.165-0.225-0.251-0.336
		c-0.063-0.081-0.125-0.163-0.191-0.241c-0.091-0.107-0.189-0.212-0.287-0.315c-0.073-0.077-0.145-0.155-0.222-0.23
		c-0.093-0.091-0.193-0.177-0.291-0.265c-0.093-0.082-0.188-0.162-0.285-0.239c-0.088-0.07-0.18-0.138-0.274-0.205
		c-0.119-0.085-0.238-0.168-0.361-0.246c-0.041-0.025-0.076-0.056-0.117-0.08L259.969,87.258c-0.021-0.013-0.044-0.022-0.064-0.035
		c-0.138-0.082-0.279-0.155-0.422-0.229c-0.086-0.045-0.171-0.092-0.26-0.134c-0.122-0.057-0.245-0.105-0.368-0.154
		c-0.113-0.046-0.224-0.095-0.338-0.135c-0.096-0.033-0.196-0.061-0.293-0.09c-0.141-0.044-0.281-0.088-0.423-0.123
		c-0.083-0.021-0.167-0.033-0.251-0.051c-0.155-0.032-0.311-0.067-0.467-0.089c-0.104-0.016-0.211-0.021-0.316-0.031
		c-0.134-0.014-0.268-0.031-0.4-0.038c-0.166-0.008-0.334-0.005-0.5-0.002c-0.072,0.002-0.146-0.003-0.218,0.001
		c-0.215,0.01-0.43,0.031-0.645,0.06c-0.024,0.004-0.049,0.004-0.073,0.008c-0.211,0.029-0.422,0.072-0.633,0.121
		c-0.029,0.006-0.059,0.01-0.088,0.017c-0.176,0.044-0.352,0.098-0.526,0.153c-0.064,0.021-0.129,0.038-0.192,0.06
		c-0.135,0.048-0.267,0.104-0.399,0.159c-0.104,0.043-0.209,0.083-0.311,0.131c-0.099,0.046-0.195,0.099-0.292,0.15
		c-0.133,0.068-0.265,0.138-0.393,0.214c-0.023,0.014-0.047,0.023-0.069,0.038L3.632,239.338c-0.041,0.024-0.077,0.055-0.117,0.08
		c-0.124,0.078-0.243,0.161-0.361,0.246c-0.092,0.067-0.185,0.135-0.274,0.205c-0.097,0.077-0.191,0.157-0.285,0.239
		c-0.099,0.087-0.198,0.173-0.291,0.265c-0.076,0.074-0.148,0.152-0.222,0.23c-0.098,0.103-0.195,0.207-0.287,0.315
		c-0.066,0.078-0.128,0.16-0.191,0.241c-0.086,0.111-0.172,0.221-0.251,0.336c-0.065,0.094-0.125,0.191-0.186,0.288
		c-0.067,0.106-0.134,0.212-0.196,0.321c-0.065,0.115-0.123,0.234-0.181,0.354c-0.048,0.096-0.096,0.191-0.14,0.289
		c-0.059,0.134-0.111,0.271-0.162,0.407c-0.033,0.091-0.069,0.181-0.099,0.274c-0.047,0.139-0.085,0.28-0.123,0.423
		c-0.026,0.098-0.054,0.196-0.076,0.295c-0.029,0.132-0.053,0.265-0.076,0.398c-0.02,0.119-0.04,0.236-0.055,0.357
		c-0.014,0.116-0.023,0.232-0.032,0.35c-0.011,0.143-0.019,0.286-0.021,0.43c0,0.049-0.006,0.095-0.006,0.144v40.554
		c0,0.056,0.007,0.108,0.008,0.164c0.003,0.152,0.01,0.304,0.023,0.456c0.008,0.104,0.019,0.207,0.031,0.309
		c0.017,0.142,0.04,0.282,0.065,0.423c0.02,0.113,0.043,0.225,0.067,0.336c0.028,0.125,0.061,0.249,0.096,0.373
		c0.034,0.124,0.072,0.246,0.113,0.367c0.036,0.107,0.076,0.215,0.118,0.321c0.052,0.134,0.107,0.266,0.166,0.396
		c0.043,0.093,0.087,0.185,0.134,0.276c0.069,0.138,0.143,0.272,0.221,0.405c0.027,0.048,0.049,0.096,0.077,0.143
		c0.019,0.031,0.044,0.059,0.064,0.089c0.144,0.228,0.298,0.448,0.465,0.658c0.025,0.032,0.049,0.068,0.074,0.1
		c0.184,0.223,0.38,0.433,0.587,0.634c0.073,0.07,0.148,0.135,0.223,0.202c0.147,0.133,0.298,0.259,0.456,0.379
		c0.081,0.062,0.161,0.124,0.244,0.182c0.207,0.147,0.421,0.282,0.642,0.407c0.027,0.016,0.054,0.034,0.082,0.051
		c0.258,0.142,0.527,0.265,0.802,0.376c0.059,0.023,0.119,0.043,0.177,0.064c0.218,0.082,0.44,0.154,0.667,0.216
		c0.077,0.021,0.153,0.041,0.23,0.06c0.217,0.052,0.437,0.093,0.66,0.126c0.077,0.012,0.153,0.026,0.23,0.035
		c0.276,0.031,0.555,0.051,0.837,0.053c0.017,0,0.033,0.003,0.05,0.003c0.027,0,0.055-0.005,0.081-0.005
		c0.279-0.004,0.554-0.024,0.824-0.056c0.097-0.012,0.193-0.029,0.29-0.045c0.226-0.036,0.448-0.082,0.667-0.138
		c0.083-0.021,0.166-0.04,0.249-0.064c0.302-0.088,0.598-0.191,0.884-0.313c0.024-0.011,0.047-0.023,0.071-0.034
		c0.275-0.121,0.538-0.262,0.795-0.413c0.033-0.02,0.069-0.033,0.102-0.054L256,143.216l244.426,149.649
		c0.033,0.02,0.068,0.033,0.102,0.054c0.257,0.152,0.522,0.292,0.798,0.414c0.022,0.011,0.045,0.023,0.068,0.033
		c0.286,0.123,0.582,0.225,0.885,0.313c0.082,0.023,0.165,0.043,0.247,0.064c0.219,0.056,0.441,0.102,0.668,0.138
		c0.096,0.015,0.192,0.032,0.289,0.045c0.271,0.031,0.545,0.052,0.824,0.056c0.027,0,0.054,0.005,0.081,0.005
		c0.016,0,0.032-0.003,0.05-0.003c0.283-0.002,0.563-0.021,0.837-0.053c0.077-0.009,0.153-0.023,0.23-0.035
		c0.224-0.032,0.444-0.074,0.661-0.126c0.077-0.019,0.153-0.037,0.229-0.059c0.228-0.063,0.45-0.135,0.669-0.217
		c0.059-0.021,0.118-0.041,0.175-0.064c0.276-0.111,0.544-0.234,0.803-0.376c0.028-0.016,0.055-0.034,0.083-0.051
		c0.221-0.125,0.435-0.261,0.641-0.406c0.083-0.06,0.164-0.122,0.245-0.185c0.156-0.12,0.307-0.245,0.454-0.377
		c0.075-0.067,0.151-0.133,0.225-0.204c0.206-0.201,0.402-0.41,0.586-0.633c0.026-0.032,0.051-0.069,0.077-0.103
		c0.166-0.209,0.319-0.429,0.463-0.656c0.019-0.03,0.044-0.058,0.063-0.089c0.028-0.047,0.05-0.095,0.077-0.143
		c0.078-0.133,0.151-0.268,0.221-0.405C511.225,289.709,511.27,289.618,511.313,289.525z"/>
	<path style="fill:#FF4C4D;" d="M511.993,245.68c-0.003-0.144-0.01-0.287-0.021-0.43c-0.009-0.118-0.019-0.233-0.032-0.35
		c-0.015-0.12-0.034-0.237-0.055-0.357c-0.022-0.134-0.047-0.267-0.076-0.398c-0.022-0.099-0.05-0.197-0.076-0.295
		c-0.039-0.143-0.077-0.284-0.124-0.423c-0.03-0.092-0.066-0.182-0.099-0.274c-0.052-0.137-0.103-0.274-0.162-0.407
		c-0.043-0.098-0.092-0.193-0.14-0.289c-0.059-0.119-0.117-0.238-0.181-0.354c-0.062-0.109-0.129-0.215-0.196-0.321
		c-0.061-0.097-0.121-0.194-0.186-0.288c-0.079-0.115-0.165-0.225-0.251-0.336c-0.063-0.081-0.125-0.163-0.191-0.241
		c-0.091-0.107-0.189-0.212-0.287-0.315c-0.073-0.077-0.145-0.155-0.222-0.23c-0.093-0.091-0.193-0.177-0.291-0.265
		c-0.093-0.082-0.188-0.162-0.285-0.239c-0.088-0.07-0.18-0.138-0.274-0.205c-0.119-0.085-0.238-0.168-0.361-0.246
		c-0.041-0.025-0.076-0.056-0.117-0.08L259.97,87.258c-0.021-0.013-0.044-0.022-0.064-0.035c-0.138-0.082-0.279-0.155-0.422-0.229
		c-0.086-0.045-0.171-0.092-0.26-0.134c-0.122-0.057-0.245-0.105-0.368-0.154c-0.113-0.046-0.224-0.095-0.338-0.135
		c-0.096-0.033-0.196-0.061-0.293-0.09c-0.141-0.044-0.281-0.088-0.423-0.123c-0.083-0.021-0.167-0.033-0.251-0.051
		c-0.155-0.032-0.311-0.067-0.467-0.089c-0.104-0.016-0.211-0.021-0.316-0.031c-0.134-0.014-0.268-0.031-0.4-0.038
		c-0.166-0.008-0.334-0.005-0.5-0.002c-0.072,0.002-0.146-0.003-0.218,0.001c-0.215,0.01-0.43,0.031-0.645,0.06
		c-0.024,0.004-0.049,0.004-0.073,0.008c-0.211,0.029-0.422,0.072-0.633,0.121c-0.029,0.006-0.059,0.01-0.088,0.017
		c-0.176,0.044-0.352,0.098-0.526,0.153c-0.064,0.021-0.129,0.038-0.192,0.06c-0.135,0.048-0.267,0.104-0.399,0.159
		c-0.104,0.043-0.209,0.083-0.311,0.131c-0.099,0.046-0.195,0.099-0.292,0.15c-0.133,0.068-0.265,0.138-0.393,0.214
		c-0.023,0.014-0.047,0.023-0.069,0.038L3.633,239.338c-0.041,0.024-0.077,0.055-0.117,0.08c-0.124,0.078-0.243,0.161-0.361,0.246
		c-0.092,0.067-0.185,0.135-0.274,0.205c-0.097,0.077-0.191,0.157-0.285,0.239c-0.099,0.087-0.198,0.173-0.291,0.265
		c-0.076,0.074-0.148,0.152-0.222,0.23c-0.098,0.103-0.195,0.207-0.287,0.315c-0.066,0.078-0.128,0.16-0.191,0.241
		c-0.086,0.111-0.172,0.221-0.251,0.336c-0.065,0.094-0.125,0.191-0.186,0.288c-0.067,0.106-0.134,0.212-0.196,0.321
		c-0.065,0.115-0.123,0.234-0.181,0.354c-0.048,0.096-0.096,0.191-0.14,0.289c-0.059,0.134-0.111,0.271-0.162,0.407
		c-0.033,0.091-0.069,0.181-0.099,0.274c-0.047,0.139-0.085,0.28-0.123,0.423c-0.026,0.098-0.054,0.196-0.076,0.295
		c-0.029,0.132-0.053,0.265-0.076,0.398c-0.02,0.119-0.04,0.236-0.055,0.357c-0.014,0.116-0.023,0.232-0.032,0.35
		c-0.011,0.143-0.019,0.286-0.021,0.43C0.006,245.729,0,245.776,0,245.824v40.554c0,0.056,0.007,0.108,0.008,0.164
		c0.003,0.152,0.01,0.304,0.023,0.456c0.008,0.104,0.019,0.207,0.031,0.309c0.017,0.142,0.04,0.282,0.065,0.423
		c0.02,0.113,0.043,0.225,0.067,0.336c0.028,0.125,0.061,0.249,0.096,0.373c0.034,0.124,0.072,0.246,0.113,0.367
		c0.036,0.107,0.076,0.215,0.118,0.321c0.052,0.134,0.107,0.266,0.166,0.396c0.043,0.093,0.087,0.185,0.134,0.276
		c0.069,0.138,0.143,0.272,0.221,0.405c0.027,0.048,0.049,0.096,0.077,0.143c0.019,0.031,0.044,0.059,0.064,0.089
		c0.144,0.228,0.298,0.448,0.465,0.658c0.025,0.032,0.049,0.068,0.074,0.1c0.184,0.223,0.38,0.433,0.587,0.634
		c0.073,0.07,0.148,0.135,0.223,0.202c0.147,0.133,0.298,0.259,0.456,0.379c0.081,0.062,0.161,0.124,0.244,0.182
		c0.207,0.147,0.421,0.282,0.642,0.407c0.027,0.016,0.054,0.034,0.082,0.051c0.258,0.142,0.527,0.265,0.802,0.376
		c0.059,0.023,0.119,0.043,0.177,0.064c0.218,0.082,0.44,0.154,0.667,0.216c0.077,0.021,0.153,0.041,0.23,0.06
		c0.217,0.052,0.437,0.093,0.66,0.126c0.077,0.012,0.153,0.026,0.23,0.035c0.276,0.031,0.555,0.051,0.837,0.053
		c0.017,0,0.033,0.003,0.05,0.003c0.027,0,0.055-0.005,0.081-0.005c0.279-0.004,0.554-0.024,0.824-0.056
		c0.097-0.012,0.193-0.029,0.29-0.045c0.226-0.036,0.448-0.082,0.667-0.138c0.083-0.021,0.166-0.04,0.249-0.064
		c0.302-0.088,0.598-0.191,0.884-0.313c0.024-0.011,0.047-0.023,0.071-0.034c0.275-0.121,0.538-0.262,0.795-0.413
		c0.033-0.02,0.069-0.033,0.102-0.054L256,143.216l244.426,149.649c0.033,0.02,0.068,0.033,0.102,0.054
		c0.257,0.152,0.522,0.292,0.798,0.414c0.022,0.011,0.045,0.023,0.068,0.033c0.286,0.123,0.582,0.225,0.885,0.313
		c0.082,0.023,0.165,0.043,0.247,0.064c0.219,0.056,0.441,0.102,0.668,0.138c0.096,0.015,0.192,0.032,0.289,0.045
		c0.271,0.031,0.545,0.052,0.824,0.056c0.027,0,0.054,0.005,0.081,0.005c0.016,0,0.032-0.003,0.05-0.003
		c0.283-0.002,0.563-0.021,0.837-0.053c0.077-0.009,0.153-0.023,0.23-0.035c0.224-0.032,0.444-0.074,0.661-0.126
		c0.077-0.019,0.153-0.037,0.229-0.059c0.228-0.063,0.45-0.135,0.669-0.217c0.059-0.021,0.118-0.041,0.175-0.064
		c0.276-0.111,0.544-0.234,0.803-0.376c0.028-0.016,0.055-0.034,0.083-0.051c0.221-0.125,0.435-0.261,0.641-0.406
		c0.083-0.06,0.164-0.122,0.245-0.185c0.156-0.12,0.307-0.245,0.454-0.377c0.075-0.067,0.151-0.133,0.225-0.204
		c0.206-0.201,0.402-0.41,0.586-0.633c0.026-0.032,0.051-0.069,0.077-0.103c0.166-0.209,0.319-0.429,0.463-0.656
		c0.019-0.03,0.044-0.058,0.063-0.089c0.028-0.047,0.05-0.095,0.077-0.143c0.078-0.133,0.151-0.268,0.221-0.405
		c0.047-0.092,0.091-0.184,0.134-0.276c0.059-0.131,0.115-0.263,0.166-0.396c0.042-0.106,0.081-0.214,0.118-0.321
		c0.041-0.121,0.078-0.243,0.113-0.367c0.035-0.124,0.068-0.248,0.096-0.373c0.025-0.111,0.047-0.223,0.067-0.336
		c0.025-0.141,0.048-0.281,0.065-0.423c0.012-0.102,0.022-0.205,0.031-0.309c0.012-0.152,0.02-0.304,0.022-0.456
		c0.001-0.056,0.008-0.108,0.008-0.164v-40.554C512,245.776,511.994,245.729,511.993,245.68z"/>
</g>
<path style="fill:#F23939;" d="M511.993,245.68c-0.003-0.144-0.01-0.287-0.021-0.43c-0.009-0.118-0.019-0.233-0.032-0.35
	c-0.015-0.12-0.034-0.237-0.055-0.357c-0.022-0.134-0.047-0.267-0.076-0.398c-0.022-0.099-0.05-0.197-0.076-0.295
	c-0.039-0.143-0.077-0.284-0.124-0.423c-0.03-0.092-0.066-0.182-0.099-0.274c-0.052-0.137-0.103-0.274-0.162-0.407
	c-0.043-0.098-0.092-0.193-0.14-0.289c-0.059-0.119-0.117-0.238-0.181-0.354c-0.062-0.109-0.129-0.215-0.196-0.321
	c-0.061-0.097-0.121-0.194-0.186-0.288c-0.079-0.115-0.165-0.225-0.251-0.336c-0.063-0.081-0.125-0.163-0.191-0.241
	c-0.091-0.107-0.189-0.212-0.287-0.315c-0.073-0.077-0.145-0.155-0.222-0.23c-0.093-0.091-0.193-0.177-0.291-0.265
	c-0.093-0.082-0.188-0.162-0.285-0.239c-0.088-0.07-0.18-0.138-0.274-0.205c-0.119-0.085-0.238-0.168-0.361-0.246
	c-0.041-0.025-0.076-0.056-0.117-0.08l-26.785-16.399v58.386l18.845,11.538c0.033,0.02,0.068,0.033,0.102,0.054
	c0.257,0.152,0.522,0.292,0.798,0.414c0.022,0.011,0.045,0.023,0.068,0.033c0.286,0.123,0.582,0.225,0.885,0.313
	c0.082,0.023,0.165,0.043,0.247,0.064c0.219,0.056,0.441,0.102,0.668,0.138c0.096,0.015,0.192,0.032,0.289,0.045
	c0.271,0.031,0.545,0.052,0.824,0.056c0.027,0,0.054,0.005,0.081,0.005c0.016,0,0.032-0.003,0.05-0.003
	c0.283-0.002,0.563-0.021,0.837-0.053c0.077-0.009,0.153-0.023,0.23-0.035c0.224-0.032,0.444-0.074,0.661-0.126
	c0.077-0.019,0.153-0.037,0.229-0.059c0.228-0.063,0.45-0.135,0.669-0.217c0.059-0.021,0.118-0.041,0.175-0.064
	c0.276-0.111,0.544-0.234,0.803-0.376c0.028-0.016,0.055-0.034,0.083-0.051c0.221-0.125,0.435-0.261,0.641-0.406
	c0.083-0.06,0.164-0.122,0.245-0.185c0.156-0.12,0.307-0.245,0.454-0.377c0.075-0.067,0.151-0.133,0.225-0.204
	c0.206-0.201,0.402-0.41,0.586-0.633c0.026-0.032,0.051-0.069,0.077-0.103c0.166-0.209,0.319-0.429,0.463-0.656
	c0.019-0.03,0.044-0.058,0.063-0.089c0.028-0.047,0.05-0.095,0.077-0.143c0.078-0.133,0.151-0.268,0.221-0.405
	c0.047-0.092,0.091-0.184,0.134-0.276c0.059-0.131,0.115-0.263,0.166-0.396c0.042-0.106,0.081-0.214,0.118-0.321
	c0.041-0.121,0.078-0.243,0.113-0.367c0.035-0.124,0.068-0.248,0.096-0.373c0.025-0.111,0.047-0.223,0.067-0.336
	c0.025-0.141,0.048-0.281,0.065-0.423c0.012-0.102,0.022-0.205,0.031-0.309c0.012-0.152,0.02-0.304,0.022-0.456
	c0.001-0.056,0.008-0.108,0.008-0.164v-40.554C512,245.776,511.994,245.729,511.993,245.68z"/>
<path style="fill:#927266;" d="M220.515,434.693c-4.197,0-7.604-3.407-7.604-7.604v-20.277c0-4.187,3.407-7.604,7.604-7.604
	s7.604,3.417,7.604,7.604v20.277C228.119,431.286,224.712,434.693,220.515,434.693z"/>
<path style="fill:#0072A2;" d="M149.545,130.533h-70.97c-1.997,0-3.964-0.811-5.373-2.23c-1.419-1.419-2.23-3.376-2.23-5.373
	v-20.276c0-2.007,0.811-3.964,2.23-5.385c1.409-1.409,3.376-2.219,5.373-2.219h70.97c1.997,0,3.964,0.811,5.373,2.219
	c1.419,1.419,2.23,3.376,2.23,5.385v20.276c0,1.997-0.811,3.964-2.23,5.373C153.509,129.722,151.552,130.533,149.545,130.533z"/>
<polygon style="fill:#F23939;" points="81.109,130.533 81.109,191.905 147.01,151.558 147.01,130.533 "/>
<path style="fill:#F3E8D6;" d="M113.046,89.98c-2.028,0-3.934-0.791-5.373-2.23c-2.94-2.94-2.971-7.736-0.051-10.705
	c0.01-0.011,0.041-0.041,0.091-0.102c0.061-0.071,0.243-0.264,0.517-0.617c0.456-0.559,1.125-1.481,1.815-2.678
	c1.196-2.089,2.616-5.394,2.606-9.297c-0.03-2.92-0.639-7.523-5.546-13.728c-7.381-9.155-8.902-17.398-8.871-22.7
	c0-7.107,2.595-12.704,4.775-16.152c2.129-3.356,4.228-5.373,5.029-6.093c1.389-1.217,3.163-1.876,5.008-1.876
	c2.19,0,4.278,0.943,5.718,2.595c2.758,3.153,2.443,7.96-0.71,10.727c0,0,0,0.01-0.01,0.01c-0.061,0.062-0.223,0.234-0.477,0.497
	c-0.335,0.385-1.014,1.176-1.693,2.261c-1.622,2.564-2.433,5.271-2.433,8.03c0.041,4.288,1.805,8.475,5.546,13.2
	c3.031,3.761,5.333,7.766,6.833,11.903c1.369,3.772,2.058,7.584,2.038,11.325c-0.01,5.83-1.551,11.487-4.603,16.84
	c-2.028,3.527-4.045,5.759-4.816,6.55l-0.01,0.01C116.989,89.189,115.073,89.98,113.046,89.98z"/>
<g>
</g>
<g>
</g>
<g>
</g>
<g>
</g>
<g>
</g>
<g>
</g>
<g>
</g>
<g>
</g>
<g>
</g>
<g>
</g>
<g>
</g>
<g>
</g>
<g>
</g>
<g>
</g>
<g>
</g>
</svg>
