<?xml version="1.0" encoding="iso-8859-1"?>
<!-- Generator: Adobe Illustrator 19.0.0, SVG Export Plug-In . SVG Version: 6.00 Build 0)  -->
<svg version="1.1" id="Capa_1" xmlns="http://www.w3.org/2000/svg" xmlns:xlink="http://www.w3.org/1999/xlink" x="0px" y="0px"
	 viewBox="0 0 512.016 512.016" style="enable-background:new 0 0 512.016 512.016;" xml:space="preserve">
<path style="fill:#FFB123;" d="M15.531,442.179h15.515h449.928h2.584h2.588v-41.374c0-55.607-45.239-100.846-100.846-100.846
	H281.871c-7.13,0-12.931-5.8-12.931-12.93v-31.007v-0.024V7.757c0-4.284-3.473-7.757-7.757-7.757H23.287
	c-4.285,0-7.757,3.473-7.757,7.757L15.531,442.179z"/>
<path style="fill:#FF901D;" d="M237.908,7.757v248.241v0.024v31.007c0,7.13,5.8,12.93,12.931,12.93h31.033
	c-7.13,0-12.931-5.8-12.931-12.93v-31.007v-0.024V7.757c0-4.284-3.473-7.757-7.757-7.757H230.15
	C234.435,0,237.908,3.473,237.908,7.757z"/>
<g>
	<path style="fill:#FF4C4D;" d="M23.287,0c-4.285,0-7.757,3.473-7.757,7.757v307.708h7.758c46.312,0,89.829-18.011,122.533-50.715
		s50.715-76.219,50.715-122.532c0-0.061,0-0.095,0-0.11V0H23.287z"/>
	<path style="fill:#FF4C4D;" d="M480.974,442.179h2.584h2.588v-41.374c0-55.607-45.239-100.846-100.846-100.846h-51.716v142.22
		H480.974z"/>
</g>
<path style="fill:#F23939;" d="M385.299,299.959h-31.033c55.607,0,100.846,45.239,100.846,100.846v41.374h25.861h2.584h2.588
	v-41.374C486.146,345.198,440.906,299.959,385.299,299.959z"/>
<g>
	<path style="fill:#F3E8D6;" d="M287.042,54.309c0-8.554-6.959-15.514-15.513-15.515h-25.861c-8.556,0-15.515,6.96-15.515,15.515
		s6.959,15.515,15.515,15.515h25.861C280.084,69.822,287.042,62.862,287.042,54.309z"/>
	<path style="fill:#F3E8D6;" d="M287.042,116.367c0-8.554-6.959-15.513-15.513-15.515h-25.861c-8.556,0-15.515,6.96-15.515,15.515
		s6.959,15.515,15.515,15.515h25.861C280.084,131.88,287.042,124.92,287.042,116.367z"/>
	<path style="fill:#F3E8D6;" d="M287.042,178.425c0-8.554-6.959-15.514-15.513-15.515h-25.861c-8.556,0-15.515,6.96-15.515,15.515
		c0,8.555,6.959,15.515,15.515,15.515h25.861C280.084,193.938,287.042,186.978,287.042,178.425z"/>
	<path style="fill:#F3E8D6;" d="M287.042,240.484c0-8.554-6.959-15.514-15.513-15.515h-25.861c-8.556,0-15.515,6.96-15.515,15.515
		c0,8.555,6.959,15.515,15.515,15.515h25.861C280.084,255.997,287.042,249.036,287.042,240.484z"/>
	<path style="fill:#F3E8D6;" d="M483.558,442.179h-2.584H31.046H15.531v51.719c0,0.003,0,0.007,0,0.011
		c0.001,0.259,0.013,0.517,0.039,0.775c0.013,0.133,0.039,0.263,0.06,0.394c0.019,0.116,0.03,0.234,0.053,0.349
		c0.036,0.178,0.084,0.351,0.131,0.523c0.02,0.068,0.032,0.138,0.053,0.206c0.05,0.159,0.108,0.314,0.167,0.47
		c0.03,0.082,0.057,0.164,0.09,0.244c0.054,0.129,0.117,0.254,0.178,0.381c0.05,0.103,0.095,0.208,0.149,0.309
		c0.053,0.096,0.111,0.188,0.168,0.283c0.073,0.125,0.145,0.25,0.225,0.371c0.046,0.067,0.096,0.129,0.144,0.195
		c0.1,0.14,0.199,0.279,0.309,0.413c0.04,0.05,0.086,0.094,0.128,0.143c0.121,0.141,0.243,0.281,0.375,0.414
		c0.08,0.081,0.168,0.152,0.251,0.23c0.1,0.092,0.197,0.188,0.303,0.275c0.2,0.165,0.41,0.32,0.625,0.463
		c0.003,0.001,0.005,0.003,0.008,0.005l15.393,10.261c0.01,0.007,0.022,0.014,0.032,0.022l0.09,0.06
		c0.044,0.03,0.093,0.05,0.139,0.078c0.245,0.157,0.499,0.301,0.757,0.428c0.112,0.055,0.225,0.102,0.339,0.152
		c0.206,0.089,0.415,0.17,0.628,0.24c0.134,0.044,0.268,0.088,0.404,0.125c0.207,0.057,0.417,0.099,0.628,0.139
		c0.13,0.024,0.259,0.054,0.389,0.07c0.311,0.041,0.624,0.064,0.936,0.067c0.025,0,0.05,0.005,0.074,0.005c0.002,0,0.004,0,0.007,0
		c0.002,0,0.004,0,0.007,0c0.025,0,0.05-0.005,0.073-0.005c0.314-0.004,0.626-0.026,0.936-0.067c0.13-0.018,0.26-0.048,0.39-0.071
		c0.211-0.039,0.42-0.082,0.628-0.138c0.137-0.037,0.271-0.081,0.406-0.126c0.212-0.07,0.419-0.15,0.625-0.238
		c0.114-0.05,0.229-0.097,0.341-0.153c0.261-0.127,0.512-0.271,0.757-0.427c0.046-0.029,0.093-0.048,0.139-0.078l0.089-0.059
		c0.011-0.007,0.022-0.016,0.033-0.023l11.09-7.392l11.09,7.393c0.01,0.007,0.022,0.014,0.032,0.022l0.09,0.06
		c0.044,0.03,0.093,0.05,0.139,0.078c0.245,0.157,0.498,0.301,0.757,0.428c0.112,0.055,0.225,0.102,0.339,0.152
		c0.206,0.089,0.415,0.17,0.628,0.24c0.134,0.044,0.268,0.088,0.404,0.125c0.207,0.057,0.417,0.099,0.628,0.139
		c0.13,0.024,0.259,0.054,0.389,0.07c0.311,0.041,0.624,0.064,0.936,0.067c0.025,0,0.05,0.005,0.074,0.005c0.002,0,0.004,0,0.007,0
		c0.002,0,0.004,0,0.007,0c0.024,0,0.05-0.005,0.073-0.005c0.314-0.004,0.626-0.026,0.936-0.067c0.13-0.018,0.26-0.048,0.39-0.071
		c0.211-0.039,0.42-0.082,0.627-0.138c0.137-0.037,0.271-0.081,0.406-0.126c0.212-0.07,0.419-0.15,0.625-0.238
		c0.114-0.05,0.229-0.097,0.341-0.153c0.261-0.127,0.512-0.271,0.757-0.427c0.046-0.029,0.093-0.048,0.139-0.078l0.089-0.059
		c0.011-0.007,0.022-0.016,0.033-0.023l11.09-7.392l11.09,7.393c0.01,0.007,0.022,0.014,0.032,0.022l0.09,0.06
		c0.044,0.03,0.093,0.05,0.139,0.078c0.245,0.157,0.498,0.301,0.757,0.428c0.112,0.055,0.225,0.102,0.339,0.152
		c0.206,0.089,0.415,0.17,0.628,0.24c0.134,0.044,0.268,0.088,0.404,0.125c0.207,0.057,0.417,0.099,0.628,0.139
		c0.13,0.024,0.259,0.054,0.389,0.07c0.311,0.041,0.624,0.064,0.936,0.067c0.025,0,0.05,0.005,0.074,0.005c0.002,0,0.004,0,0.007,0
		c0.002,0,0.004,0,0.007,0c0.025,0,0.05-0.005,0.073-0.005c0.314-0.004,0.626-0.026,0.936-0.067c0.13-0.018,0.26-0.048,0.39-0.071
		c0.211-0.039,0.42-0.082,0.628-0.138c0.137-0.037,0.271-0.081,0.406-0.126c0.212-0.07,0.419-0.15,0.625-0.238
		c0.114-0.05,0.229-0.097,0.341-0.153c0.261-0.127,0.512-0.271,0.757-0.427c0.046-0.029,0.093-0.048,0.139-0.078l0.089-0.059
		c0.011-0.007,0.022-0.016,0.033-0.023l11.09-7.392l11.09,7.393c0.01,0.007,0.022,0.014,0.032,0.022l0.09,0.06
		c0.044,0.03,0.093,0.05,0.139,0.078c0.245,0.157,0.498,0.301,0.757,0.428c0.112,0.055,0.225,0.102,0.339,0.152
		c0.206,0.089,0.415,0.17,0.628,0.24c0.134,0.044,0.268,0.088,0.404,0.125c0.207,0.057,0.417,0.099,0.628,0.139
		c0.13,0.024,0.259,0.054,0.389,0.07c0.311,0.041,0.624,0.064,0.936,0.067c0.025,0,0.05,0.005,0.074,0.005c0.002,0,0.004,0,0.007,0
		c0.002,0,0.004,0,0.007,0c0.025,0,0.05-0.005,0.073-0.005c0.314-0.004,0.626-0.026,0.936-0.067c0.13-0.018,0.26-0.048,0.39-0.071
		c0.211-0.039,0.42-0.082,0.627-0.138c0.137-0.037,0.271-0.081,0.406-0.126c0.212-0.07,0.419-0.15,0.625-0.238
		c0.114-0.05,0.229-0.097,0.341-0.153c0.261-0.127,0.512-0.271,0.757-0.427c0.046-0.029,0.093-0.048,0.139-0.078l0.089-0.059
		c0.011-0.007,0.022-0.016,0.033-0.023l11.09-7.392l11.09,7.393c0.01,0.007,0.022,0.014,0.032,0.022l0.09,0.06
		c0.044,0.03,0.093,0.05,0.139,0.078c0.245,0.157,0.498,0.301,0.757,0.428c0.112,0.055,0.225,0.102,0.339,0.152
		c0.206,0.089,0.415,0.17,0.628,0.24c0.134,0.044,0.268,0.088,0.404,0.125c0.207,0.057,0.417,0.099,0.628,0.139
		c0.13,0.024,0.259,0.054,0.389,0.07c0.311,0.041,0.624,0.064,0.936,0.067c0.025,0,0.05,0.005,0.074,0.005c0.002,0,0.004,0,0.007,0
		c0.002,0,0.004,0,0.007,0c0.024,0,0.05-0.005,0.073-0.005c0.314-0.004,0.626-0.026,0.936-0.067c0.13-0.018,0.26-0.048,0.39-0.071
		c0.211-0.039,0.42-0.082,0.627-0.138c0.137-0.037,0.271-0.081,0.406-0.126c0.212-0.07,0.419-0.15,0.625-0.238
		c0.114-0.05,0.229-0.097,0.341-0.153c0.261-0.127,0.512-0.271,0.757-0.427c0.046-0.029,0.093-0.048,0.139-0.078l0.089-0.059
		c0.011-0.007,0.022-0.016,0.033-0.023l11.09-7.392l11.09,7.393c0.01,0.007,0.022,0.014,0.032,0.022l0.09,0.06
		c0.044,0.03,0.093,0.05,0.139,0.078c0.245,0.157,0.498,0.301,0.757,0.428c0.112,0.055,0.225,0.102,0.339,0.152
		c0.206,0.089,0.415,0.17,0.628,0.24c0.134,0.044,0.268,0.088,0.404,0.125c0.207,0.057,0.417,0.099,0.628,0.139
		c0.13,0.024,0.259,0.054,0.389,0.07c0.311,0.041,0.624,0.064,0.936,0.067c0.025,0,0.05,0.005,0.074,0.005c0.002,0,0.004,0,0.007,0
		c0.002,0,0.004,0,0.007,0c0.024,0,0.05-0.005,0.073-0.005c0.314-0.004,0.626-0.026,0.936-0.067c0.13-0.018,0.26-0.048,0.39-0.071
		c0.211-0.039,0.42-0.082,0.627-0.138c0.137-0.037,0.271-0.081,0.406-0.126c0.212-0.07,0.419-0.15,0.625-0.238
		c0.114-0.05,0.229-0.097,0.341-0.153c0.261-0.127,0.512-0.271,0.757-0.427c0.046-0.029,0.093-0.048,0.139-0.078l0.089-0.059
		c0.011-0.007,0.022-0.016,0.033-0.023l11.09-7.392l11.09,7.393c0.01,0.007,0.022,0.014,0.032,0.022l0.09,0.06
		c0.044,0.03,0.093,0.05,0.139,0.078c0.245,0.157,0.497,0.301,0.757,0.428c0.112,0.055,0.225,0.102,0.339,0.152
		c0.206,0.089,0.415,0.17,0.628,0.24c0.134,0.044,0.268,0.088,0.404,0.125c0.207,0.057,0.417,0.099,0.628,0.139
		c0.13,0.024,0.259,0.054,0.389,0.07c0.311,0.041,0.624,0.064,0.936,0.067c0.025,0,0.05,0.005,0.074,0.005c0.002,0,0.004,0,0.007,0
		c0.002,0,0.004,0,0.007,0c0.024,0,0.05-0.005,0.073-0.005c0.314-0.004,0.626-0.026,0.936-0.067c0.13-0.018,0.26-0.048,0.39-0.071
		c0.211-0.039,0.42-0.082,0.627-0.138c0.137-0.037,0.271-0.081,0.406-0.126c0.212-0.07,0.419-0.15,0.625-0.238
		c0.114-0.05,0.229-0.097,0.341-0.153c0.261-0.127,0.512-0.271,0.757-0.427c0.046-0.029,0.093-0.048,0.139-0.078l0.089-0.059
		c0.011-0.007,0.022-0.016,0.033-0.023l11.09-7.392l11.09,7.393c0.01,0.007,0.022,0.014,0.032,0.022l0.09,0.06
		c0.044,0.03,0.093,0.05,0.139,0.078c0.245,0.157,0.498,0.301,0.757,0.428c0.112,0.055,0.225,0.102,0.339,0.152
		c0.206,0.089,0.415,0.17,0.628,0.24c0.134,0.044,0.268,0.088,0.404,0.125c0.207,0.057,0.417,0.099,0.628,0.139
		c0.13,0.024,0.259,0.054,0.389,0.07c0.311,0.041,0.624,0.064,0.936,0.067c0.025,0,0.05,0.005,0.074,0.005c0.002,0,0.004,0,0.007,0
		c0.002,0,0.004,0,0.007,0c0.025,0,0.05-0.005,0.073-0.005c0.314-0.004,0.626-0.026,0.936-0.067c0.13-0.018,0.259-0.048,0.389-0.07
		c0.211-0.039,0.421-0.083,0.629-0.139c0.135-0.037,0.269-0.081,0.403-0.125c0.213-0.07,0.421-0.15,0.628-0.239
		c0.114-0.05,0.228-0.097,0.34-0.152c0.259-0.126,0.508-0.269,0.753-0.424c0.048-0.03,0.097-0.05,0.144-0.081l0.093-0.062
		c0.009-0.006,0.019-0.012,0.027-0.019l11.091-7.394l11.09,7.393c0.011,0.007,0.022,0.014,0.032,0.022l0.09,0.06
		c0.044,0.03,0.094,0.05,0.14,0.079c0.245,0.156,0.495,0.3,0.755,0.427c0.113,0.055,0.228,0.103,0.341,0.153
		c0.206,0.088,0.414,0.169,0.626,0.238c0.136,0.044,0.269,0.089,0.405,0.126c0.207,0.056,0.417,0.099,0.628,0.138
		c0.13,0.024,0.259,0.054,0.39,0.071c0.31,0.041,0.623,0.064,0.936,0.067c0.024,0,0.05,0.005,0.073,0.005c0.002,0,0.005,0,0.007,0
		c0.002,0,0.005,0,0.007,0c0.024,0,0.05-0.005,0.073-0.005c0.314-0.004,0.626-0.026,0.936-0.067c0.131-0.018,0.26-0.048,0.39-0.071
		c0.211-0.039,0.421-0.082,0.628-0.138c0.137-0.037,0.27-0.081,0.405-0.126c0.212-0.07,0.42-0.15,0.626-0.238
		c0.114-0.05,0.229-0.098,0.341-0.153c0.26-0.126,0.51-0.271,0.755-0.427c0.046-0.029,0.095-0.049,0.14-0.079l0.09-0.06
		c0.01-0.007,0.022-0.014,0.032-0.022l11.09-7.393l11.09,7.393c0.011,0.007,0.022,0.014,0.032,0.022l0.09,0.06
		c0.044,0.03,0.094,0.05,0.14,0.079c0.245,0.156,0.495,0.3,0.755,0.427c0.113,0.055,0.228,0.103,0.341,0.153
		c0.206,0.088,0.414,0.169,0.626,0.238c0.136,0.044,0.269,0.089,0.405,0.126c0.207,0.056,0.417,0.099,0.628,0.138
		c0.13,0.024,0.259,0.054,0.39,0.071c0.31,0.041,0.623,0.064,0.936,0.067c0.024,0,0.05,0.005,0.073,0.005c0.002,0,0.005,0,0.007,0
		c0.002,0,0.005,0,0.007,0c0.024,0,0.05-0.005,0.073-0.005c0.314-0.004,0.626-0.026,0.936-0.067c0.131-0.018,0.26-0.048,0.39-0.071
		c0.211-0.039,0.421-0.082,0.628-0.138c0.137-0.037,0.27-0.081,0.405-0.126c0.212-0.07,0.42-0.15,0.626-0.238
		c0.114-0.05,0.229-0.098,0.341-0.153c0.26-0.126,0.51-0.271,0.755-0.427c0.046-0.029,0.095-0.049,0.14-0.079l0.09-0.06
		c0.011-0.007,0.022-0.014,0.032-0.022l11.09-7.393l11.09,7.393c0.011,0.007,0.021,0.014,0.032,0.022l0.09,0.06
		c0.044,0.03,0.094,0.05,0.14,0.079c0.245,0.156,0.496,0.3,0.755,0.427c0.113,0.055,0.228,0.103,0.341,0.153
		c0.206,0.088,0.414,0.169,0.626,0.238c0.135,0.044,0.269,0.089,0.405,0.126c0.207,0.056,0.417,0.099,0.628,0.138
		c0.13,0.024,0.259,0.054,0.39,0.071c0.31,0.041,0.623,0.064,0.936,0.067c0.024,0,0.049,0.005,0.073,0.005c0.002,0,0.005,0,0.007,0
		s0.005,0,0.007,0c0.026,0,0.05-0.005,0.073-0.005c0.314-0.004,0.626-0.026,0.936-0.067c0.131-0.018,0.26-0.048,0.39-0.071
		c0.211-0.039,0.421-0.082,0.628-0.138c0.137-0.037,0.27-0.081,0.405-0.126c0.212-0.07,0.42-0.15,0.626-0.238
		c0.114-0.05,0.229-0.098,0.341-0.153c0.259-0.126,0.51-0.271,0.755-0.427c0.046-0.029,0.095-0.049,0.14-0.079l0.09-0.06
		c0.011-0.007,0.022-0.014,0.032-0.022l11.09-7.393l11.09,7.393c0.011,0.007,0.021,0.014,0.032,0.022l0.09,0.06
		c0.044,0.03,0.094,0.05,0.14,0.079c0.245,0.156,0.496,0.3,0.755,0.427c0.113,0.055,0.228,0.103,0.341,0.153
		c0.206,0.088,0.414,0.169,0.626,0.238c0.135,0.044,0.269,0.089,0.405,0.126c0.207,0.056,0.417,0.099,0.628,0.138
		c0.13,0.024,0.259,0.054,0.39,0.071c0.31,0.041,0.623,0.064,0.936,0.067c0.024,0,0.049,0.005,0.073,0.005c0.002,0,0.005,0,0.007,0
		c0.002,0,0.005,0,0.007,0c0.026,0,0.05-0.005,0.073-0.005c0.314-0.004,0.626-0.026,0.936-0.067c0.131-0.018,0.26-0.048,0.39-0.071
		c0.211-0.039,0.421-0.082,0.628-0.138c0.137-0.037,0.27-0.081,0.405-0.126c0.212-0.07,0.42-0.15,0.626-0.238
		c0.114-0.05,0.229-0.098,0.341-0.153c0.259-0.126,0.51-0.271,0.755-0.427c0.046-0.029,0.095-0.049,0.14-0.079l0.09-0.06
		c0.011-0.007,0.022-0.014,0.032-0.022l11.09-7.393l11.09,7.393c0.011,0.007,0.021,0.014,0.032,0.022l0.09,0.06
		c0.044,0.03,0.094,0.05,0.14,0.079c0.245,0.156,0.496,0.3,0.755,0.427c0.113,0.055,0.228,0.103,0.341,0.153
		c0.206,0.088,0.414,0.169,0.626,0.238c0.135,0.044,0.269,0.089,0.405,0.126c0.207,0.056,0.417,0.099,0.628,0.138
		c0.13,0.024,0.259,0.054,0.39,0.071c0.31,0.041,0.623,0.064,0.936,0.067c0.024,0,0.049,0.005,0.073,0.005c0.002,0,0.005,0,0.007,0
		c0.002,0,0.005,0,0.007,0c0.026,0,0.05-0.005,0.073-0.005c0.314-0.004,0.626-0.026,0.936-0.067c0.131-0.018,0.26-0.048,0.39-0.071
		c0.211-0.039,0.421-0.082,0.628-0.138c0.137-0.037,0.27-0.081,0.405-0.126c0.212-0.07,0.42-0.15,0.626-0.238
		c0.114-0.05,0.229-0.098,0.341-0.153c0.259-0.126,0.51-0.271,0.755-0.427c0.046-0.029,0.095-0.049,0.14-0.079l0.09-0.06
		c0.011-0.007,0.022-0.014,0.032-0.022l11.09-7.393l11.09,7.393c0.011,0.007,0.021,0.014,0.032,0.022l0.09,0.06
		c0.044,0.03,0.094,0.05,0.14,0.079c0.245,0.156,0.496,0.3,0.755,0.427c0.113,0.055,0.228,0.103,0.341,0.153
		c0.206,0.088,0.414,0.169,0.626,0.238c0.136,0.044,0.269,0.089,0.405,0.126c0.207,0.056,0.417,0.099,0.628,0.138
		c0.13,0.024,0.259,0.054,0.39,0.071c0.31,0.041,0.623,0.064,0.936,0.067c0.024,0,0.049,0.005,0.073,0.005c0.002,0,0.005,0,0.007,0
		c0.002,0,0.005,0,0.007,0c0.026,0,0.05-0.005,0.073-0.005c0.314-0.004,0.626-0.026,0.936-0.067c0.131-0.018,0.26-0.048,0.39-0.071
		c0.211-0.039,0.421-0.082,0.628-0.138c0.137-0.037,0.27-0.081,0.405-0.126c0.212-0.07,0.42-0.15,0.626-0.238
		c0.114-0.05,0.229-0.098,0.341-0.153c0.259-0.126,0.51-0.271,0.755-0.427c0.046-0.029,0.095-0.049,0.14-0.079l0.09-0.06
		c0.011-0.007,0.022-0.014,0.032-0.022l11.09-7.393l11.09,7.393c0.011,0.007,0.021,0.014,0.032,0.022l0.09,0.06
		c0.044,0.03,0.094,0.05,0.14,0.079c0.245,0.156,0.496,0.3,0.755,0.427c0.113,0.055,0.228,0.103,0.341,0.153
		c0.206,0.088,0.414,0.169,0.626,0.238c0.136,0.044,0.269,0.089,0.405,0.126c0.207,0.056,0.417,0.099,0.628,0.138
		c0.13,0.024,0.259,0.054,0.39,0.071c0.31,0.041,0.623,0.064,0.936,0.067c0.024,0,0.049,0.005,0.073,0.005c0.002,0,0.005,0,0.007,0
		c0.002,0,0.005,0,0.007,0c0.026,0,0.05-0.005,0.073-0.005c0.314-0.004,0.626-0.026,0.936-0.067c0.131-0.018,0.26-0.048,0.39-0.071
		c0.211-0.039,0.421-0.082,0.628-0.138c0.137-0.037,0.27-0.081,0.405-0.126c0.212-0.07,0.42-0.15,0.626-0.238
		c0.114-0.05,0.229-0.098,0.341-0.153c0.259-0.126,0.51-0.271,0.755-0.427c0.046-0.029,0.095-0.049,0.14-0.079l0.09-0.06
		c0.011-0.007,0.022-0.014,0.032-0.022l15.393-10.261c0.002-0.001,0.004-0.003,0.006-0.005c0.217-0.145,0.427-0.299,0.628-0.465
		c0.073-0.061,0.14-0.129,0.21-0.191c0.116-0.103,0.235-0.204,0.343-0.313c0.123-0.123,0.235-0.252,0.348-0.382
		c0.052-0.06,0.108-0.115,0.157-0.176c0.103-0.126,0.195-0.258,0.291-0.389c0.054-0.073,0.111-0.144,0.16-0.219
		c0.076-0.113,0.143-0.232,0.211-0.348c0.062-0.102,0.125-0.203,0.182-0.307c0.05-0.091,0.09-0.186,0.136-0.28
		c0.065-0.135,0.133-0.27,0.191-0.41c0.029-0.068,0.051-0.14,0.077-0.21c0.064-0.167,0.127-0.332,0.179-0.504
		c0.017-0.053,0.026-0.107,0.041-0.159c0.053-0.188,0.104-0.376,0.143-0.569c0.016-0.079,0.023-0.158,0.036-0.237
		c0.028-0.175,0.06-0.349,0.077-0.526c0.024-0.249,0.037-0.5,0.037-0.751c0-0.004,0.001-0.008,0.001-0.012v-51.719h-12.905V442.179z
		"/>
</g>
<path style="fill:#E5D8C6;" d="M483.558,442.179h-2.584h-15.518v51.719c0,0.004-0.001,0.008-0.001,0.012
	c0,0.251-0.013,0.502-0.037,0.751c-0.018,0.178-0.049,0.352-0.077,0.526c-0.014,0.079-0.022,0.158-0.036,0.237
	c-0.038,0.192-0.09,0.382-0.143,0.569c-0.016,0.053-0.025,0.107-0.041,0.159c-0.052,0.172-0.115,0.338-0.179,0.504
	c-0.026,0.069-0.048,0.141-0.077,0.21c-0.058,0.14-0.125,0.275-0.191,0.41c-0.046,0.093-0.086,0.188-0.136,0.28
	c-0.057,0.105-0.12,0.205-0.182,0.307c-0.068,0.117-0.135,0.235-0.211,0.348c-0.051,0.076-0.108,0.146-0.16,0.219
	c-0.095,0.131-0.188,0.263-0.291,0.389c-0.05,0.061-0.105,0.117-0.157,0.176c-0.113,0.129-0.224,0.26-0.348,0.382
	c-0.109,0.11-0.228,0.211-0.343,0.313c-0.07,0.062-0.137,0.13-0.21,0.191c-0.201,0.165-0.412,0.321-0.628,0.465
	c-0.002,0.002-0.004,0.004-0.006,0.005l-4.3,2.868l11.09,7.393c0.011,0.007,0.021,0.014,0.032,0.022l0.09,0.06
	c0.044,0.03,0.094,0.05,0.14,0.079c0.245,0.156,0.496,0.3,0.755,0.427c0.113,0.055,0.228,0.103,0.341,0.153
	c0.206,0.088,0.414,0.169,0.626,0.238c0.135,0.044,0.269,0.089,0.405,0.126c0.207,0.056,0.417,0.099,0.628,0.138
	c0.13,0.024,0.259,0.054,0.39,0.071c0.31,0.041,0.623,0.064,0.936,0.067c0.024,0,0.049,0.005,0.073,0.005c0.002,0,0.005,0,0.007,0
	c0.002,0,0.005,0,0.007,0c0.026,0,0.05-0.005,0.073-0.005c0.314-0.004,0.626-0.026,0.936-0.067c0.131-0.018,0.26-0.048,0.39-0.071
	c0.211-0.039,0.421-0.082,0.628-0.138c0.137-0.037,0.27-0.081,0.405-0.126c0.212-0.07,0.42-0.15,0.626-0.238
	c0.114-0.05,0.229-0.098,0.341-0.153c0.259-0.126,0.51-0.271,0.755-0.427c0.046-0.029,0.095-0.049,0.14-0.079l0.09-0.06
	c0.011-0.007,0.022-0.014,0.032-0.022l15.393-10.261c0.002-0.001,0.004-0.003,0.006-0.005c0.217-0.145,0.427-0.299,0.628-0.465
	c0.073-0.061,0.14-0.129,0.21-0.191c0.116-0.103,0.235-0.204,0.343-0.313c0.123-0.123,0.235-0.252,0.348-0.382
	c0.052-0.06,0.108-0.115,0.157-0.176c0.103-0.126,0.195-0.258,0.291-0.389c0.054-0.073,0.111-0.144,0.16-0.219
	c0.076-0.113,0.143-0.232,0.211-0.348c0.062-0.102,0.125-0.203,0.182-0.307c0.05-0.091,0.09-0.186,0.135-0.28
	c0.065-0.135,0.133-0.27,0.191-0.41c0.029-0.068,0.051-0.14,0.077-0.21c0.064-0.167,0.127-0.332,0.179-0.504
	c0.017-0.053,0.026-0.107,0.041-0.159c0.053-0.188,0.104-0.377,0.143-0.569c0.016-0.079,0.023-0.158,0.036-0.237
	c0.028-0.175,0.06-0.349,0.077-0.526c0.024-0.249,0.037-0.5,0.037-0.751c0-0.004,0.001-0.008,0.001-0.012v-51.719L483.558,442.179
	L483.558,442.179z"/>
<path style="fill:#0072A2;" d="M15.53,7.757v62.065h181.006V0H23.287C19.003,0,15.53,3.473,15.53,7.757z"/>
<path style="fill:#FF4C4D;" d="M23.288,351.676h-7.757v90.503h15.515h92.561C118.412,391.413,75.403,351.676,23.288,351.676z"/>
<g>
	<path style="fill:#E5D8C6;" d="M271.529,38.794h-25.861c-0.884,0-1.745,0.091-2.587,0.234c7.325,1.237,12.928,7.609,12.928,15.281
		s-5.603,14.044-12.928,15.281c0.842,0.143,1.702,0.234,2.587,0.234h25.861c8.554-0.001,15.513-6.961,15.513-15.515
		S280.084,38.795,271.529,38.794z"/>
	<path style="fill:#E5D8C6;" d="M271.529,100.852h-25.861c-0.884,0-1.745,0.091-2.587,0.234c7.325,1.237,12.928,7.609,12.928,15.281
		s-5.603,14.044-12.928,15.281c0.842,0.143,1.702,0.234,2.587,0.234h25.861c8.554-0.001,15.513-6.961,15.513-15.515
		S280.084,100.853,271.529,100.852z"/>
	<path style="fill:#E5D8C6;" d="M271.529,162.911h-25.861c-0.884,0-1.745,0.091-2.587,0.234c7.325,1.237,12.928,7.609,12.928,15.281
		c0,7.672-5.603,14.044-12.928,15.281c0.842,0.143,1.702,0.234,2.587,0.234h25.861c8.554-0.001,15.513-6.961,15.513-15.515
		S280.084,162.912,271.529,162.911z"/>
	<path style="fill:#E5D8C6;" d="M271.529,224.969h-25.861c-0.884,0-1.745,0.091-2.587,0.234c7.325,1.237,12.928,7.609,12.928,15.281
		s-5.603,14.044-12.928,15.281c0.842,0.143,1.702,0.234,2.587,0.234h25.861c8.554-0.001,15.513-6.961,15.513-15.515
		S280.084,224.97,271.529,224.969z"/>
</g>
<g>
</g>
<g>
</g>
<g>
</g>
<g>
</g>
<g>
</g>
<g>
</g>
<g>
</g>
<g>
</g>
<g>
</g>
<g>
</g>
<g>
</g>
<g>
</g>
<g>
</g>
<g>
</g>
<g>
</g>
</svg>
