<?xml version="1.0" encoding="iso-8859-1"?>
<!-- Generator: Adobe Illustrator 19.0.0, SVG Export Plug-In . SVG Version: 6.00 Build 0)  -->
<svg version="1.1" id="Capa_1" xmlns="http://www.w3.org/2000/svg" xmlns:xlink="http://www.w3.org/1999/xlink" x="0px" y="0px"
	 viewBox="0 0 512 512" style="enable-background:new 0 0 512 512;" xml:space="preserve">
<path style="fill:#D3C2AE;" d="M418.215,0H93.785c-1.997,0-3.964,0.811-5.373,2.22c-1.419,1.419-2.23,3.376-2.23,5.373v154.617
	h339.637V7.594c0-1.997-0.811-3.954-2.22-5.373C422.179,0.811,420.222,0,418.215,0z"/>
<path style="fill:#C1AD9A;" d="M423.598,2.22C422.179,0.811,420.222,0,418.215,0h-30.418c2.007,0,3.964,0.811,5.384,2.22
	c1.409,1.419,2.22,3.376,2.22,5.373v154.617h30.418V7.594C425.818,5.596,425.007,3.64,423.598,2.22z"/>
<path style="fill:#FFB123;" d="M86.182,162.211v342.175c0,2.007,0.811,3.964,2.23,5.383c1.409,1.41,3.376,2.22,5.373,2.22h101.2
	c0.065,0.002,0.129,0.01,0.195,0.01l223.035-0.01c2.007,0,3.964-0.811,5.383-2.22c1.409-1.419,2.22-3.376,2.22-5.383V162.211H86.182
	z"/>
<path style="fill:#FF901D;" d="M395.4,162.211v342.175c0,2.007-0.811,3.964-2.22,5.383c-1.419,1.41-3.376,2.22-5.384,2.22
	l-192.643,0.009c0.009,0,0.017,0.001,0.026,0.001l223.035-0.01c2.007,0,3.964-0.811,5.383-2.22c1.409-1.419,2.22-3.376,2.22-5.383
	V162.211H395.4z"/>
<g>
	<path style="fill:#FF4C4D;" d="M134.342,116.597c-7.402,0-13.265-6.436-17.925-19.674c-2.832-8.047-4.887-17.894-4.887-23.415
		c0-12.579,10.233-22.811,22.811-22.811c12.579,0,22.811,10.233,22.811,22.811c0,5.52-2.055,15.368-4.887,23.415
		C147.607,110.161,141.744,116.597,134.342,116.597z"/>
	<path style="fill:#FF4C4D;" d="M195.173,116.597c-7.402,0-13.265-6.436-17.925-19.674c-2.832-8.047-4.887-17.894-4.887-23.415
		c0-12.579,10.233-22.811,22.811-22.811c12.579,0,22.811,10.233,22.811,22.811c0,5.52-2.055,15.368-4.887,23.415
		C208.438,110.161,202.575,116.597,195.173,116.597z"/>
	<path style="fill:#FF4C4D;" d="M256.003,116.597c-7.402,0-13.265-6.436-17.925-19.674c-2.832-8.047-4.887-17.894-4.887-23.415
		c0-12.579,10.233-22.811,22.811-22.811c12.579,0,22.811,10.233,22.811,22.811c0,5.52-2.055,15.368-4.887,23.415
		C269.268,110.161,263.405,116.597,256.003,116.597z"/>
	<path style="fill:#FF4C4D;" d="M316.833,116.597c-7.402,0-13.265-6.436-17.925-19.674c-2.832-8.047-4.887-17.894-4.887-23.415
		c0-12.579,10.233-22.811,22.811-22.811c12.579,0,22.811,10.233,22.811,22.811c0,5.52-2.055,15.368-4.887,23.415
		C330.099,110.161,324.236,116.597,316.833,116.597z"/>
	<path style="fill:#FF4C4D;" d="M377.664,116.597c-7.402,0-13.265-6.436-17.925-19.674c-2.832-8.047-4.887-17.894-4.887-23.415
		c0-12.579,10.233-22.811,22.811-22.811c12.579,0,22.811,10.233,22.811,22.811c0,5.52-2.055,15.368-4.887,23.415
		C390.929,110.161,385.066,116.597,377.664,116.597z"/>
	<path style="fill:#FF4C4D;" d="M240.795,232.165c-4.199,0-7.604,3.404-7.604,7.604c0,32.145-26.151,58.296-58.296,58.296
		c-4.199,0-7.604,3.404-7.604,7.604v40.564c0,51.711,42.069,93.78,93.78,93.78s93.78-42.069,93.78-93.78
		C354.853,283.335,303.686,232.165,240.795,232.165z"/>
</g>
<path style="fill:#FFB123;" d="M261.072,399.459c-29.35,0-53.227-23.877-53.227-53.227v-8.041c0-3.077,1.855-5.851,4.698-7.027
	c22.058-9.119,40.104-25.922,50.813-47.312c1.88-3.752,6.444-5.273,10.197-3.398c25.132,12.554,40.744,37.76,40.744,65.777
	C314.299,375.582,290.422,399.459,261.072,399.459z"/>
<g>
	<path style="fill:#F3E8D6;" d="M141.946,113.927c-2.336,1.782-4.863,2.669-7.604,2.669c-2.74,0-5.268-0.887-7.604-2.669v45.758
		c0,0.887,0.16,1.735,0.439,2.525h14.327c0.281-0.794,0.442-1.645,0.442-2.536V113.927z"/>
	<path style="fill:#F3E8D6;" d="M202.776,113.927c-2.336,1.782-4.863,2.669-7.604,2.669c-2.74,0-5.268-0.887-7.604-2.669v45.758
		c0,0.887,0.16,1.735,0.439,2.525h14.327c0.281-0.794,0.442-1.645,0.442-2.536V113.927z"/>
	<path style="fill:#F3E8D6;" d="M263.607,113.927c-2.336,1.782-4.863,2.669-7.604,2.669c-2.74,0-5.268-0.887-7.604-2.669v45.758
		c0,0.887,0.16,1.735,0.439,2.525h14.327c0.281-0.794,0.442-1.645,0.442-2.536V113.927z"/>
	<path style="fill:#F3E8D6;" d="M324.437,113.927c-2.336,1.782-4.863,2.669-7.604,2.669s-5.268-0.887-7.604-2.669v45.758
		c0,0.887,0.16,1.735,0.439,2.525h14.327c0.281-0.794,0.442-1.645,0.442-2.536L324.437,113.927L324.437,113.927z"/>
	<path style="fill:#F3E8D6;" d="M385.268,113.927c-2.336,1.782-4.863,2.669-7.604,2.669s-5.268-0.887-7.604-2.669v45.758
		c0,0.887,0.16,1.735,0.439,2.525h14.327c0.281-0.794,0.442-1.645,0.442-2.536L385.268,113.927L385.268,113.927z"/>
</g>
<g>
</g>
<g>
</g>
<g>
</g>
<g>
</g>
<g>
</g>
<g>
</g>
<g>
</g>
<g>
</g>
<g>
</g>
<g>
</g>
<g>
</g>
<g>
</g>
<g>
</g>
<g>
</g>
<g>
</g>
</svg>
