<?xml version="1.0" encoding="iso-8859-1"?>
<!-- Generator: Adobe Illustrator 19.0.0, SVG Export Plug-In . SVG Version: 6.00 Build 0)  -->
<svg version="1.1" id="Capa_1" xmlns="http://www.w3.org/2000/svg" xmlns:xlink="http://www.w3.org/1999/xlink" x="0px" y="0px"
	 viewBox="0 0 512 512" style="enable-background:new 0 0 512 512;" xml:space="preserve">
<rect x="162.218" y="60.832" style="fill:#F3E8D6;" width="187.564" height="182.495"/>
<rect x="319.356" y="60.832" style="fill:#E5D8C6;" width="30.416" height="182.495"/>
<rect x="162.218" y="243.327" style="fill:#0072A2;" width="187.564" height="30.426"/>
<rect x="319.356" y="243.327" style="fill:#006289;" width="30.416" height="30.426"/>
<polygon style="fill:#FFB123;" points="358.912,344.723 350.945,288.961 161.044,288.961 153.077,344.723 "/>
<polygon style="fill:#FF901D;" points="350.945,288.961 320.527,288.961 328.493,344.723 358.912,344.723 "/>
<path style="fill:#FF4C4D;" d="M410.619,392.881c0-0.01-0.01-0.01-0.01-0.02c0-6.499-1.267-12.795-3.782-18.736
	c-2.423-5.728-5.89-10.879-10.311-15.299c-4.419-4.42-9.57-7.898-15.309-10.321c-5.941-2.514-12.247-3.782-18.756-3.782H149.539
	c-6.509,0-12.816,1.267-18.756,3.782c-5.738,2.423-10.889,5.901-15.31,10.321c-4.419,4.42-7.887,9.571-10.311,15.299
	c-2.513,5.941-3.781,12.247-3.781,18.756v91.227v0.01c0,7.452,2.89,14.458,8.162,19.72c5.262,5.262,12.268,8.162,19.72,8.162
	h253.465c7.452,0,14.458-2.9,19.72-8.162c5.261-5.262,8.162-12.268,8.162-19.72v-91.043
	C410.611,393.011,410.619,392.947,410.619,392.881z"/>
<path style="fill:#F23939;" d="M410.609,392.861c0-6.499-1.267-12.795-3.782-18.736c-2.423-5.728-5.89-10.879-10.311-15.299
	c-4.419-4.42-9.57-7.898-15.309-10.321c-5.941-2.514-12.247-3.782-18.756-3.782h-30.419c6.509,0,12.815,1.267,18.756,3.782
	c5.738,2.423,10.889,5.901,15.309,10.321c4.42,4.42,7.888,9.571,10.311,15.299c2.514,5.941,3.782,12.237,3.782,18.736
	c0,0.01,0.01,0.01,0.01,0.02c0,0.066-0.008,0.13-0.01,0.195v91.043c0,7.452-2.9,14.458-8.162,19.72
	C366.766,509.1,359.76,512,352.309,512h30.419c7.452,0,14.458-2.9,19.72-8.162c5.261-5.262,8.162-12.268,8.162-19.72v-91.043
	c0.002-0.065,0.01-0.129,0.01-0.195C410.619,392.871,410.609,392.871,410.609,392.861z"/>
<path d="M392.866,106.455c-4.198,0-7.604-3.407-7.604-7.604c-0.01-6.103-2.384-11.832-6.693-16.131
	c-4.298-4.299-10.017-6.671-16.119-6.681c-4.198,0-7.604-3.407-7.604-7.604c0-4.187,3.406-7.604,7.604-7.604
	c10.159,0,19.709,3.954,26.888,11.132s11.132,16.729,11.132,26.888C400.47,103.049,397.053,106.455,392.866,106.455z"/>
<path style="fill:#FF4C4D;" d="M255.995,332.05L255.995,332.05c-4.062-0.007-7.881-1.588-10.754-4.461
	c-2.871-2.866-4.454-6.684-4.454-10.754c0-4.062,1.583-7.881,4.454-10.747c2.873-2.872,6.694-4.454,10.754-4.454
	c4.062,0,7.881,1.582,10.754,4.454c2.871,2.866,4.454,6.685,4.454,10.747c0,4.07-1.582,7.888-4.454,10.761
	C263.877,330.461,260.057,332.043,255.995,332.05z"/>
<path style="fill:#FFB123;" d="M352.312,451.168H159.678c-2.007,0-3.964-0.811-5.385-2.22c-1.409-1.419-2.219-3.376-2.219-5.384
	v-30.416c0-1.997,0.811-3.954,2.219-5.373c1.419-1.419,3.376-2.231,5.385-2.231h192.634c1.997,0,3.964,0.811,5.373,2.231
	c1.419,1.419,2.231,3.376,2.231,5.373v30.416c0,2.007-0.811,3.964-2.231,5.384C356.266,450.357,354.309,451.168,352.312,451.168z"/>
<path style="fill:#CCC8CA;" d="M352.312,288.961H159.678c-4.198,0-7.604-3.407-7.604-7.604c0-4.187,3.406-7.604,7.604-7.604h192.634
	c4.197,0,7.604,3.417,7.604,7.604C359.916,285.554,356.509,288.961,352.312,288.961z"/>
<path style="fill:#FFB123;" d="M255.995,238.257L255.995,238.257c-8.81,0-17.085-3.427-23.299-9.652
	c-6.225-6.215-9.652-14.498-9.652-23.299c0.02-5.242,1.124-14.032,3.092-24.738c1.571-8.466,4.279-20.967,8.172-32.464
	c2.718-7.939,5.232-13.413,8.163-17.743c1.693-2.443,3.883-5.191,7.329-7.097c1.348-0.73,3.518-1.602,6.174-1.602h0.021
	c3.812,0,6.773,1.734,8.587,3.194c1.916,1.541,3.559,3.407,5.313,6.063c2.626,4.045,4.998,9.196,7.452,16.222
	c3.68,10.625,7.148,24.89,9.5,39.145c1.37,8.395,2.078,14.792,2.099,19.02c0,8.8-3.438,17.084-9.652,23.299
	C273.068,234.831,264.795,238.257,255.995,238.257z"/>
<g>
	<path style="fill:#CCC8CA;" d="M255.995,238.257c-2.595,0-5.14-0.305-7.604-0.884v5.953h15.208v-5.954
		C261.135,237.952,258.589,238.257,255.995,238.257z"/>
	<path style="fill:#CCC8CA;" d="M115.474,358.826c3.352-3.352,7.125-6.158,11.255-8.378V98.851
		c0.01-6.103,2.383-11.832,6.681-16.131c4.299-4.299,10.027-6.671,16.131-6.681h12.673V60.842h-12.479
		c-0.065-0.001-0.13-0.01-0.195-0.01c-10.16,0-19.709,3.954-26.889,11.132c-7.178,7.178-11.131,16.729-11.131,26.888v264.468
		C112.74,361.752,114.052,360.247,115.474,358.826z"/>
</g>
<path style="fill:#B2B2B2;" d="M396.517,358.826c-3.352-3.352-7.125-6.158-11.255-8.378V98.851
	c-0.01-6.103-2.383-11.832-6.681-16.131c-4.299-4.299-10.027-6.671-16.131-6.681h-12.673V60.842h12.479
	c0.065-0.001,0.13-0.01,0.195-0.01c10.16,0,19.709,3.954,26.889,11.132c7.178,7.178,11.131,16.729,11.131,26.888v264.468
	C399.25,361.752,397.938,360.247,396.517,358.826z"/>
<path style="fill:#FF4C4D;" d="M349.777,60.832V38.02c0-4.187-3.417-7.604-7.604-7.604H169.817c-4.198,0-7.604,3.417-7.604,7.604
	v22.812H349.777z"/>
<path style="fill:#F23939;" d="M342.173,30.416h-30.419c4.187,0,7.604,3.417,7.604,7.604v22.812h30.419V38.02
	C349.777,33.833,346.36,30.416,342.173,30.416z"/>
<path style="fill:#0072A2;" d="M329.498,30.416l0.002-2.535c0-0.124-0.013-0.243-0.018-0.365c-0.09-7.319-2.976-14.176-8.153-19.355
	C316.066,2.9,309.071,0,301.619,0h-91.248c-7.453,0-14.458,2.9-19.72,8.162c-5.262,5.262-8.162,12.268-8.162,19.72v2.535H329.498z"
	/>
<path style="fill:#006289;" d="M329.482,27.516c-0.09-7.319-2.976-14.176-8.153-19.355C316.066,2.9,309.071,0,301.619,0H271.2
	c7.452,0,14.448,2.9,19.708,8.162c5.178,5.178,8.063,12.036,8.153,19.355c0.006,0.122,0.019,0.242,0.019,0.365l-0.002,2.535h30.419
	l0.002-2.535C329.5,27.757,329.487,27.638,329.482,27.516z"/>
<g>
</g>
<g>
</g>
<g>
</g>
<g>
</g>
<g>
</g>
<g>
</g>
<g>
</g>
<g>
</g>
<g>
</g>
<g>
</g>
<g>
</g>
<g>
</g>
<g>
</g>
<g>
</g>
<g>
</g>
</svg>
