<?xml version="1.0" encoding="iso-8859-1"?>
<!-- Generator: Adobe Illustrator 19.0.0, SVG Export Plug-In . SVG Version: 6.00 Build 0)  -->
<svg version="1.1" id="Capa_1" xmlns="http://www.w3.org/2000/svg" xmlns:xlink="http://www.w3.org/1999/xlink" x="0px" y="0px"
	 viewBox="0 0 512 512" style="enable-background:new 0 0 512 512;" xml:space="preserve">
<g>
	<path style="fill:#F3E8D6;" d="M484.119,466.381H27.881C12.507,466.381,0,453.874,0,438.5V134.332
		c0-15.374,12.507-27.881,27.881-27.881h456.238c15.374,0,27.881,12.507,27.881,27.881V438.5
		C512,453.873,499.493,466.381,484.119,466.381z"/>
	<path style="fill:#F3E8D6;" d="M484.119,106.45H453.7c15.373,0,27.881,12.507,27.881,27.881V438.5
		c0,15.374-12.508,27.881-27.881,27.881h30.419c15.374,0,27.881-12.507,27.881-27.881V134.332
		C512,118.958,499.493,106.45,484.119,106.45z"/>
</g>
<path style="fill:#FF4C4D;" d="M250.931,415.678c-71.279,0-129.267-57.989-129.267-129.267s57.989-129.267,129.267-129.267
	s129.267,57.989,129.267,129.267S322.209,415.678,250.931,415.678z"/>
<path style="fill:#F23939;" d="M250.931,157.143c-5.145,0-10.22,0.312-15.209,0.899c64.136,7.552,114.058,62.236,114.058,128.368
	s-49.923,120.817-114.058,128.368c4.99,0.587,10.064,0.899,15.209,0.899c71.279,0,129.267-57.989,129.267-129.267
	S322.209,157.143,250.931,157.143z"/>
<path style="fill:#F3E8D6;" d="M250.931,364.407c-2.017,0-3.951-0.801-5.376-2.227l-54.596-54.596
	c-18.017-18.016-18.017-47.333,0-65.349c8.727-8.727,20.332-13.534,32.676-13.534c9.953,0,19.427,3.126,27.298,8.912
	c7.872-5.786,17.344-8.912,27.298-8.912c12.343,0,23.947,4.807,32.675,13.534c18.017,18.017,18.017,47.333,0,65.349l-54.596,54.596
	C254.882,363.606,252.947,364.407,250.931,364.407z"/>
<path style="fill:#E5D8C6;" d="M310.904,242.234c-8.727-8.727-20.332-13.534-32.675-13.534c-5.26,0-10.382,0.881-15.209,2.558
	c6.499,2.258,12.456,5.968,17.465,10.976c18.017,18.017,18.017,47.333,0,65.349l-44.763,44.764l9.832,9.832
	c1.425,1.427,3.36,2.227,5.376,2.227c2.017,0,3.951-0.801,5.377-2.227l54.596-54.596
	C328.921,289.567,328.921,260.25,310.904,242.234z"/>
<g>
	<path style="fill:#FFB123;" d="M65.901,106.45h-38.02C12.507,106.45,0,118.957,0,134.332v38.02L65.901,106.45z"/>
	<path style="fill:#FFB123;" d="M446.099,106.45L512,172.351v-38.02c0-15.374-12.507-27.881-27.881-27.881
		C484.119,106.45,446.099,106.45,446.099,106.45z"/>
	<path style="fill:#FFB123;" d="M0,400.48v38.02c0,15.374,12.507,27.881,27.881,27.881h38.02L0,400.48z"/>
	<path style="fill:#FFB123;" d="M512,400.481l-65.912,65.9h38.031c15.374,0,27.881-12.507,27.881-27.881V400.481z"/>
</g>
<path style="fill:#E5D8C6;" d="M484.119,106.45H453.7c15.373,0,27.881,12.507,27.881,27.881V438.5
	c0,15.374-12.508,27.881-27.881,27.881h30.419c15.374,0,27.881-12.507,27.881-27.881V134.332
	C512,118.958,499.493,106.45,484.119,106.45z"/>
<g>
	<path style="fill:#FF901D;" d="M484.119,106.45H453.7c15.373,0,27.881,12.507,27.881,27.881v7.601L512,172.351v-38.02
		C512,118.958,499.493,106.45,484.119,106.45z"/>
	<path style="fill:#FF901D;" d="M481.581,438.5c0,15.374-12.508,27.881-27.881,27.881h30.419c15.374,0,27.881-12.507,27.881-27.881
		v-38.019l-30.419,30.413V438.5z"/>
</g>
<g>
	<rect x="172.356" y="83.644" style="fill:#E5D8C6;" width="45.454" height="22.812"/>
	<rect x="294.101" y="83.644" style="fill:#E5D8C6;" width="45.454" height="22.812"/>
</g>
<path style="fill:#FF4C4D;" d="M339.644,63.361c0-0.263-0.013-0.523-0.04-0.78c-0.4-9.16-7.764-16.523-16.923-16.923
	c-0.257-0.026-0.516-0.04-0.78-0.04H190.099c-0.263,0-0.523,0.013-0.78,0.04c-9.16,0.4-16.523,7.764-16.923,16.923
	c-0.026,0.258-0.04,0.517-0.04,0.78v20.277h167.287V63.361z"/>
<g>
</g>
<g>
</g>
<g>
</g>
<g>
</g>
<g>
</g>
<g>
</g>
<g>
</g>
<g>
</g>
<g>
</g>
<g>
</g>
<g>
</g>
<g>
</g>
<g>
</g>
<g>
</g>
<g>
</g>
</svg>
