<?xml version="1.0" encoding="iso-8859-1"?>
<!-- Generator: Adobe Illustrator 19.0.0, SVG Export Plug-In . SVG Version: 6.00 Build 0)  -->
<svg version="1.1" id="Capa_1" xmlns="http://www.w3.org/2000/svg" xmlns:xlink="http://www.w3.org/1999/xlink" x="0px" y="0px"
	 viewBox="0 0 512 512" style="enable-background:new 0 0 512 512;" xml:space="preserve">
<path style="fill:#FFB123;" d="M352.658,9.929c-4.79,0-13.508,7.548-22.314,28.823c-7.564,18.276-11.645,38.359-11.645,47.977
	c0,18.724,15.233,33.959,33.959,33.959c18.725,0,33.959-15.234,33.959-33.959c0-9.618-4.081-29.702-11.646-47.977
	C366.165,17.478,357.448,9.929,352.658,9.929z"/>
<path style="fill:#FF901D;" d="M374.97,38.752c-8.805-21.274-17.524-28.823-22.313-28.823c-3.571,0-9.328,4.201-15.675,15.156
	c2.165,3.737,4.399,8.256,6.639,13.667c7.564,18.276,11.646,38.359,11.646,47.977c0,13.073-7.429,24.436-18.284,30.109
	c4.694,2.453,10.024,3.849,15.675,3.849c18.725,0,33.959-15.234,33.959-33.959C386.617,77.111,382.535,57.028,374.97,38.752z"/>
<path style="fill:#F3E8D6;" d="M417.962,225.179v-96.657c0-4.328-3.508-7.837-7.837-7.837l-114.936,0.003
	c-0.449,0-0.886,0.046-1.314,0.119c-0.088,0.015-0.178,0.022-0.265,0.041c-1.995,0.409-3.71,1.578-4.839,3.189
	c-0.025,0.037-0.055,0.07-0.079,0.108c-0.204,0.302-0.379,0.623-0.541,0.953c-0.395,0.809-0.662,1.692-0.758,2.628
	c-0.017,0.157-0.019,0.318-0.024,0.478c-0.004,0.109-0.017,0.214-0.017,0.324l-0.008,96.652H417.962z"/>
<path style="fill:#0072A2;" d="M282.116,225.179c-0.008-14.401-11.726-26.118-26.126-26.118c-14.401,0-26.118,11.716-26.118,26.118
	v7.311h52.244V225.179l-0.008,0.001C282.113,225.179,282.116,225.179,282.116,225.179z"/>
<path style="fill:#F23939;" d="M248.156,225.179H133.221H7.837c-4.329,0-7.837,3.509-7.837,7.837v73.126
	c0,38.891,31.639,70.53,70.53,70.53h62.691h52.241c38.891,0,70.53-31.639,70.53-70.53v-73.126
	C255.992,228.688,252.484,225.179,248.156,225.179z"/>
<path style="fill:#FF4C4D;" d="M504.163,225.179H263.83c-4.329,0-7.837,3.509-7.837,7.837c0,0.089,0.01,0.175,0.014,0.262v198.263
	c0,38.891,32.108,70.53,71.575,70.53h114.933c0.287,0,0.572-0.018,0.852-0.048C481.381,501.011,512,469.795,512,431.541V233.016
	C512,228.688,508.491,225.179,504.163,225.179z"/>
<path style="fill:#F23939;" d="M504.163,225.179h-31.35c4.329,0,7.837,3.509,7.837,7.837v198.525
	c0,38.254-30.619,69.47-68.632,70.482c-0.281,0.03-0.564,0.048-0.853,0.048h31.35c0.287,0,0.572-0.018,0.852-0.048
	C481.381,501.011,512,469.795,512,431.541V233.016C512,228.688,508.491,225.179,504.163,225.179z"/>
<path style="fill:#CCC8CA;" d="M491.104,225.179v-40.574c-6.774,11.745-19.454,19.673-33.959,19.673
	c-21.606,0-39.183-17.577-39.183-39.183v60.084H491.104z"/>
<path style="fill:#FFB123;" d="M378.78,428.92c-38.891,0-70.53-31.639-70.53-70.53s31.639-70.53,70.53-70.53
	s70.53,31.639,70.53,70.53S417.671,428.92,378.78,428.92z"/>
<path style="fill:#FF4C4D;" d="M378.78,387.125c-15.844,0-28.734-12.89-28.734-28.734c0-15.845,12.891-28.734,28.734-28.734
	s28.734,12.89,28.734,28.734C407.514,374.234,394.624,387.125,378.78,387.125z"/>
<g>
	<path style="fill:#E5D8C6;" d="M334.373,225.179v-44.413c0-4.328-3.508-7.837-7.837-7.837s-7.837,3.509-7.837,7.837v44.414h15.673
		V225.179z"/>
	<path style="fill:#E5D8C6;" d="M386.616,225.179v-44.413c0-4.328-3.508-7.837-7.837-7.837c-4.329,0-7.837,3.509-7.837,7.837v44.414
		h15.673V225.179z"/>
</g>
<path id="SVGCleanerId_0" style="fill:#0072A2;" d="M464.456,118.075c-25.928,0-47.02,21.093-47.02,47.02s21.092,47.02,47.02,47.02
	s47.02-21.093,47.02-47.02S490.382,118.075,464.456,118.075z"/>
<g>
	<path id="SVGCleanerId_0_1_" style="fill:#0072A2;" d="M464.456,118.075c-25.928,0-47.02,21.093-47.02,47.02
		s21.092,47.02,47.02,47.02s47.02-21.093,47.02-47.02S490.382,118.075,464.456,118.075z"/>
</g>
<path style="fill:#006289;" d="M464.456,185.993c-11.522,0-20.898-9.375-20.898-20.898c0-11.523,9.376-20.898,20.898-20.898
	s20.898,9.375,20.898,20.898C485.353,176.618,475.978,185.993,464.456,185.993z"/>
<g>
</g>
<g>
</g>
<g>
</g>
<g>
</g>
<g>
</g>
<g>
</g>
<g>
</g>
<g>
</g>
<g>
</g>
<g>
</g>
<g>
</g>
<g>
</g>
<g>
</g>
<g>
</g>
<g>
</g>
</svg>
