<?xml version="1.0" encoding="iso-8859-1"?>
<!-- Generator: Adobe Illustrator 19.0.0, SVG Export Plug-In . SVG Version: 6.00 Build 0)  -->
<svg version="1.1" id="Capa_1" xmlns="http://www.w3.org/2000/svg" xmlns:xlink="http://www.w3.org/1999/xlink" x="0px" y="0px"
	 viewBox="0 0 511.998 511.998" style="enable-background:new 0 0 511.998 511.998;" xml:space="preserve">
<path style="fill:#FF901D;" d="M296.931,83.034l132.502,132.502l26.858-26.859c2.967-2.967,2.967-7.777,0-10.743L334.533,56.176
	c-2.967-2.967-7.777-2.967-10.743,0L296.931,83.034z"/>
<path style="fill:#006289;" d="M309.461,281.79l-21.486-21.487l-57.297-57.297c-1.825-1.826-3.44-3.807-4.837-5.908L8.632,414.306
	c-10.86,10.86-10.86,28.532,0,39.392l0,0l50.137,50.136c5.264,5.264,12.259,8.163,19.696,8.163s14.433-2.899,19.696-8.164l0,0
	l217.213-217.212C313.283,285.239,311.3,283.629,309.461,281.79z"/>
<g>
	<path style="fill:#005772;" d="M309.461,281.79l-16.116-16.117L76.671,482.345l0,0c-5.264,5.264-12.258,8.164-19.696,8.164
		c-7.437,0-14.432-2.899-19.696-8.163l21.489,21.489c5.264,5.264,12.259,8.163,19.696,8.163c7.437,0,14.433-2.899,19.696-8.164l0,0
		l217.213-217.212C313.283,285.239,311.3,283.629,309.461,281.79z"/>
	<path style="fill:#005772;" d="M191.285,299.692c-2.967-2.967-2.967-7.777,0-10.743l28.649-28.649
		c4.305-4.305,10.028-6.676,16.115-6.675c6.088,0,11.811,2.37,16.114,6.675c0.001,0,0.001,0,0.001,0.001
		c8.885,8.885,8.885,23.344,0,32.23l-28.65,28.649c-2.967,2.967-7.777,2.967-10.743,0c-2.967-2.967-2.967-7.777,0-10.743
		l-10.744-10.744C199.062,302.658,194.252,302.658,191.285,299.692z"/>
</g>
<g>
	<path style="fill:#006289;" d="M210.978,391.017l-12.532-12.533c-2.967-2.967-7.777-2.967-10.744,0
		c-2.967,2.967-2.967,7.776,0,10.743l12.533,12.533L210.978,391.017z"/>
	<path style="fill:#006289;" d="M182.328,419.668l-12.533-12.532c-2.967-2.967-7.777-2.967-10.743,0
		c-2.967,2.967-2.967,7.777,0,10.743l12.532,12.533L182.328,419.668z"/>
	<path style="fill:#006289;" d="M153.678,448.318l-12.533-12.533c-2.967-2.967-7.777-2.967-10.744,0
		c-2.967,2.967-2.967,7.777,0,10.744l12.533,12.532L153.678,448.318z"/>
</g>
<g>
	<path style="fill:#0072A2;" d="M53.406,369.532l12.533,12.533c2.967,2.967,7.777,2.967,10.743,0c2.967-2.967,2.967-7.776,0-10.743
		l-12.533-12.533L53.406,369.532z"/>
	<path style="fill:#0072A2;" d="M82.056,340.882l12.533,12.532c2.967,2.967,7.777,2.967,10.744,0c2.967-2.967,2.967-7.777,0-10.743
		L92.8,330.138L82.056,340.882z"/>
	<path style="fill:#0072A2;" d="M110.706,312.232l12.532,12.533c2.967,2.967,7.777,2.967,10.743,0c2.967-2.967,2.967-7.776,0-10.744
		l-12.533-12.532L110.706,312.232z"/>
</g>
<g>
	<path style="fill:#FF901D;" d="M376.892,71.111L376.892,71.111c-2.967-2.967-2.967-7.777,0-10.743l53.104-53.104
		c2.967-2.967,7.777-2.967,10.743,0c0.001,0,0,0,0,0c2.967,2.967,2.967,7.777,0,10.743l-53.104,53.104
		C384.67,74.078,379.859,74.077,376.892,71.111z"/>
	<path style="fill:#FF901D;" d="M441.354,135.572c-2.967-2.967-2.967-7.777,0.001-10.744l53.104-53.105
		c2.967-2.967,7.777-2.967,10.744,0c2.967,2.967,2.967,7.777,0,10.743l-53.104,53.105
		C449.131,138.54,444.321,138.54,441.354,135.572z"/>
	<path style="fill:#FF901D;" d="M412.841,98.67c-2.967-2.967-2.967-7.777,0-10.743l85.702-85.702c2.967-2.967,7.777-2.967,10.744,0
		c2.967,2.967,2.967,7.777,0,10.744l-85.703,85.702C420.617,101.636,415.806,101.636,412.841,98.67z"/>
</g>
<path style="fill:#0072A2;" d="M28.338,394.599L8.632,414.306c-10.86,10.86-10.86,28.532,0,39.392l0,0l50.137,50.136
	c5.264,5.264,12.259,8.163,19.696,8.163s14.433-2.899,19.696-8.164l0,0l19.706-19.706L28.338,394.599z"/>
<path style="fill:#006289;" d="M96.377,462.638L76.67,482.345l0,0c-5.264,5.264-12.258,8.164-19.696,8.164
	c-7.437,0-14.432-2.899-19.696-8.163l21.489,21.489c5.264,5.264,12.259,8.163,19.696,8.163c7.437,0,14.433-2.899,19.696-8.164l0,0
	l19.706-19.706L96.377,462.638z"/>
<path style="fill:#FF4C4D;" d="M191.287,321.18C191.286,321.18,191.286,321.18,191.287,321.18
	c-4.306-4.305-6.676-10.028-6.677-16.115c0-6.088,2.37-11.811,6.675-16.115c8.886-8.886,23.345-8.886,32.231,0
	c8.886,8.885,8.886,23.344,0,32.23c-4.304,4.305-10.027,6.675-16.114,6.675C201.314,327.854,195.591,325.484,191.287,321.18
	L191.287,321.18z"/>
<path style="fill:#0072A2;" d="M230.676,149.288c-7.179,7.179-11.132,16.717-11.132,26.858s3.953,19.679,11.132,26.859
	l57.297,57.297l21.486,21.487c14.811,14.81,38.908,14.809,53.718-0.001l66.255-66.254L296.931,83.034L230.676,149.288z"/>
<path style="fill:#006289;" d="M407.943,194.046L341.689,260.3c-14.805,14.805-38.892,14.81-53.704,0.014l21.475,21.476
	c14.811,14.81,38.908,14.809,53.718-0.001l66.255-66.254L407.943,194.046z"/>
<rect x="315.986" y="110.369" transform="matrix(-0.7071 -0.7071 0.7071 -0.7071 553.3344 495.5173)" style="fill:#FFB123;" width="126.613" height="45.581"/>
<g>
</g>
<g>
</g>
<g>
</g>
<g>
</g>
<g>
</g>
<g>
</g>
<g>
</g>
<g>
</g>
<g>
</g>
<g>
</g>
<g>
</g>
<g>
</g>
<g>
</g>
<g>
</g>
<g>
</g>
</svg>
