<?xml version="1.0" encoding="iso-8859-1"?>
<!-- Generator: Adobe Illustrator 19.0.0, SVG Export Plug-In . SVG Version: 6.00 Build 0)  -->
<svg version="1.1" id="Capa_1" xmlns="http://www.w3.org/2000/svg" xmlns:xlink="http://www.w3.org/1999/xlink" x="0px" y="0px"
	 viewBox="0 0 512.001 512.001" style="enable-background:new 0 0 512.001 512.001;" xml:space="preserve">
<path style="fill:#FFB123;" d="M458.773,512c-29.35,0-53.227-23.877-53.227-53.227s23.877-53.227,53.227-53.227
	c29.35,0,53.227,23.877,53.227,53.227S488.123,512,458.773,512z"/>
<path style="fill:#FF901D;" d="M458.773,405.546c-5.284,0-10.387,0.785-15.209,2.225c21.96,6.562,38.018,26.937,38.018,51.002
	c0,24.065-16.057,44.44-38.019,51.002c4.822,1.441,9.925,2.225,15.209,2.225c29.35,0,53.227-23.877,53.227-53.227
	C512,429.423,488.123,405.546,458.773,405.546z"/>
<path style="fill:#775146;" d="M405.545,458.773c0-29.35,23.877-53.227,53.227-53.227c4.531,0,8.93,0.573,13.133,1.643
	L71.433,287.103c-0.147-0.062-0.29-0.128-0.442-0.182c-5.697-2.016-11.673-3.039-17.764-3.039C23.877,283.882,0,307.759,0,337.109
	c0,22.523,14.261,42.695,35.486,50.197c0.073,0.025,0.147,0.044,0.221,0.067c0.043,0.014,0.084,0.032,0.127,0.046l408.169,122.498
	c0.09,0.026,0.18,0.036,0.271,0.06C421.951,503.646,405.545,483.096,405.545,458.773z"/>
<path style="fill:#FF901D;" d="M458.773,481.585c-12.579,0-22.812-10.233-22.812-22.812s10.233-22.812,22.812-22.812
	s22.812,10.233,22.812,22.812S471.352,481.585,458.773,481.585z"/>
<path style="fill:#FF4C4D;" d="M400.477,174.892c0-46.751-18.181-90.68-51.197-123.694C316.266,18.182,272.338,0.001,225.586,0.001
	l0,0h-0.001c-4.199,0-7.604,3.405-7.604,7.604c0,54.506-44.344,98.851-98.851,98.851c-4.199,0-7.604,3.405-7.604,7.604v60.831
	c0,79.664,64.811,144.474,144.474,144.474c79.655,0,144.459-64.797,144.473-144.448C400.476,174.909,400.477,174.9,400.477,174.892z
	"/>
<path style="fill:#F23939;" d="M349.28,51.197C316.266,18.182,272.338,0.001,225.586,0.001l0,0h-0.001
	c-1.888,0-3.612,0.692-4.942,1.832c37.076,5.368,71.281,22.425,98.218,49.365c33.015,33.014,51.197,76.944,51.197,123.694
	c0,0.009-0.001,0.017-0.001,0.026c-0.013,74.515-56.732,136.024-129.265,143.648c4.999,0.526,10.073,0.8,15.21,0.8
	c79.655,0,144.459-64.796,144.473-144.448c0-0.009,0.001-0.017,0.001-0.026C400.477,128.14,382.295,84.211,349.28,51.197z"/>
<path style="fill:#FFB123;" d="M256.002,268.672c-51.712,0-93.782-42.07-93.782-93.782v-18.531c0-3.252,2.067-6.144,5.145-7.195
	c41.572-14.205,74.698-45.803,90.883-86.691c1.516-3.826,5.8-5.754,9.668-4.347c48.956,17.799,81.856,64.712,81.868,116.737
	c0,0.027,0,0.058-0.001,0.088C349.753,226.637,307.694,268.672,256.002,268.672z"/>
<path style="fill:#FF901D;" d="M267.916,58.127c-3.868-1.406-8.153,0.521-9.668,4.347c-0.589,1.486-1.206,2.957-1.839,4.419
	c38.323,21.819,62.946,62.974,62.955,107.97c0,0.027,0,0.058,0,0.088c-0.027,46.508-34.087,85.196-78.573,92.482
	c4.953,0.811,10.031,1.24,15.21,1.24c51.692,0,93.751-42.035,93.782-93.721c0.001-0.03,0.001-0.06,0.001-0.088
	C349.772,122.838,316.872,75.925,267.916,58.127z"/>
<path style="fill:#FFB123;" d="M53.227,512C23.877,512,0,488.123,0,458.773s23.877-53.227,53.227-53.227
	s53.227,23.877,53.227,53.227S82.577,512,53.227,512z"/>
<path style="fill:#927266;" d="M458.773,283.882c-6.09,0-12.067,1.022-17.763,3.039c-0.152,0.054-0.296,0.12-0.442,0.182
	L40.095,407.189c4.203-1.071,8.602-1.643,13.133-1.643c29.35,0,53.227,23.877,53.227,53.227c0,24.323-16.406,44.873-38.729,51.204
	c0.09-0.023,0.18-0.033,0.271-0.06l408.169-122.498c0.044-0.013,0.084-0.031,0.128-0.045c0.074-0.023,0.147-0.043,0.221-0.068
	c21.225-7.502,35.486-27.674,35.486-50.197C512,307.759,488.123,283.882,458.773,283.882z"/>
<path style="fill:#775146;" d="M458.773,283.882c-6.09,0-12.067,1.022-17.763,3.039c-0.152,0.054-0.296,0.12-0.442,0.182
	l-24.656,7.394c4.056-0.973,8.221-1.476,12.443-1.476c29.35,0,53.227,23.877,53.227,53.227c0,22.52-14.258,42.69-35.479,50.194
	l30.063-9.022c0.044-0.013,0.084-0.031,0.128-0.045c0.074-0.023,0.147-0.043,0.221-0.068c21.225-7.501,35.486-27.674,35.486-50.197
	C512,307.759,488.123,283.882,458.773,283.882z"/>
<path style="fill:#FF901D;" d="M53.227,481.585c-12.579,0-22.812-10.233-22.812-22.812s10.233-22.812,22.812-22.812
	s22.812,10.233,22.812,22.812S65.806,481.585,53.227,481.585z"/>
<g>
</g>
<g>
</g>
<g>
</g>
<g>
</g>
<g>
</g>
<g>
</g>
<g>
</g>
<g>
</g>
<g>
</g>
<g>
</g>
<g>
</g>
<g>
</g>
<g>
</g>
<g>
</g>
<g>
</g>
</svg>
