<?xml version="1.0" encoding="iso-8859-1"?>
<!-- Generator: Adobe Illustrator 19.0.0, SVG Export Plug-In . SVG Version: 6.00 Build 0)  -->
<svg xmlns="http://www.w3.org/2000/svg" xmlns:xlink="http://www.w3.org/1999/xlink" version="1.1" id="Capa_1" x="0px" y="0px" viewBox="0 0 511.999 511.999" style="enable-background:new 0 0 511.999 511.999;" xml:space="preserve">
<path style="fill:#95DBF9;" d="M326.028,175.229C308.166,194.021,283.4,203.6,256.026,203.6c-27.387,0-52.163-9.59-70.026-28.397  l-7.106,15.181c14.792,28.621,43.773,50.146,77.133,50.146s62.34-21.525,77.133-50.146L326.028,175.229z"/>
<g>
	<path style="fill:#70BBEF;" d="M194.379,212.178l10.311-22.027c-6.82-4.071-13.095-9.057-18.691-14.948l-7.106,15.181   C183.075,198.477,188.15,205.546,194.379,212.178L194.379,212.178z"/>
	<path style="fill:#70BBEF;" d="M417.859,271.588c-88.662-85.08-83.35-80.017-84.701-81.204   c-14.792,28.621-43.773,48.086-77.133,48.086s-62.34-19.465-77.133-48.086c-0.601,0.527-1.191,1.068-1.77,1.624l-82.93,79.579   c-9.356,8.978-11.2,23.439-4.007,34.227c9.483,14.224,28.484,18.29,42.928,9.325l25.187-15.633   c6.98-4.333,15.886,1.272,15.001,9.439c-8.542,74.684-6.962,73.716-10.148,80.882c-0.035,0.104-25.687,76.984-25.716,77.087   c-0.194,0-8.9,0-8.75,0c-12.614,0-22.869,10.513-22.518,23.149c0.013,0.499,0.037,0.989,0.117,1.771   c0.153,1.43,0.446,2.862,0.872,4.23c2.845,9.189,11.436,15.917,21.528,15.917c25.025,0,11.873,0,53.697,0   c8.647,0,20.283-5.579,25.703-17.596l37.418-82.955c4.676-8.096,16.363-8.096,21.039,0l37.418,82.955   c3.338,7.4,9.405,13.296,17.307,15.958c4.796,1.942,1.047,1.638,62.093,1.638c10.016,0,18.79-6.673,21.624-16.218   c0.807-2.746,1.084-5.637,0.802-8.531c-1.073-11.301-10.777-20.317-22.426-20.317c-0.234,0-9.122,0-8.75,0   c-0.338-1.226-27.452-80.407-28.021-85.644l-7.842-72.325c-0.886-8.167,8.021-13.772,15.001-9.439l25.187,15.633   c14.444,8.965,33.445,4.899,42.928-9.325C429.059,295.026,427.215,280.566,417.859,271.588z"/>
</g>
<g>
	<path style="fill:#4CAEE5;" d="M116.147,287.05l78.232-75.071c-6.124-6.337-11.359-13.608-15.487-21.595   c-0.601,0.527-1.191,1.068-1.77,1.624l-83.124,79.765c-16.734,16.058-6.588,43.761,17.357,47.693   C105.427,308.938,107.267,295.571,116.147,287.05z"/>
	<path style="fill:#4CAEE5;" d="M256.025,260.398c-4.267,0-7.726,3.459-7.726,7.726v140.02c4.443-3.684,11.01-3.683,15.453,0   v-140.02C263.752,263.856,260.293,260.398,256.025,260.398z"/>
</g>
<g>
	<path style="fill:#EFD0A3;" d="M349.436,73.283c5.4,18.799,5.642,39.465,0,59.106c17.314,1.264,32.852-12.511,32.852-29.553   C382.288,85.797,366.75,72.019,349.436,73.283z"/>
	<path style="fill:#EFD0A3;" d="M158.474,102.837c0-10.273,1.451-20.192,4.14-29.553c-17.311-1.264-32.852,12.507-32.852,29.553   c0,16.371,14.301,29.642,30.672,29.642c0.734,0,1.46-0.036,2.181-0.089C159.926,123.029,158.474,113.11,158.474,102.837z"/>
</g>
<g>
	<path style="fill:#E2BF91;" d="M353.533,105.282c-0.212,9.401-1.623,18.493-4.097,27.107c22.996,1.682,40.709-22.357,29.343-43.117   C373.845,98.284,364.251,104.603,353.533,105.282z"/>
	<path style="fill:#E2BF91;" d="M133.272,89.273c-2.226,4.066-3.509,8.674-3.509,13.564c0,16.371,14.301,29.642,30.672,29.642   c0.734,0,1.46-0.036,2.181-0.088c-2.475-8.615-3.886-17.706-4.097-27.107C147.799,104.603,138.205,98.284,133.272,89.273z"/>
</g>
<ellipse style="fill:#FCE3BB;" cx="256.029" cy="102.839" rx="98.58" ry="102.82"/>
<path style="fill:#EFD0A3;" d="M182.383,102.837c0-52.383,37.554-95.615,86.112-102.008c-59.177-7.789-111.05,40.284-111.05,102.008  c0,56.788,44.136,102.824,98.581,102.824c4.224,0,8.385-0.278,12.469-0.816C219.937,198.452,182.383,155.219,182.383,102.837z"/>
<path style="fill:#DD9A5E;" d="M348.709,67.734c-28.965-83.183-138.53-91.681-179.204-14.213  c17.172,21.316,44.084,34.239,73.474,32.334c16.416-1.064,31.464-6.622,44.043-15.387c4.47-3.114,10.377-3.171,14.973-0.248  C316.133,79.213,334.921,78.73,348.709,67.734z"/>
<path style="fill:#CE874D;" d="M194.153,22.791c-16.969,14.29-24.068,29.999-24.648,30.729c5.16,6.406,11.204,12.046,17.925,16.761  c11.787-36.858,43.035-64.431,81.029-69.447C242.185-2.638,215.35,4.944,194.153,22.791z"/>
<g>
	<path style="fill:#4CAEE5;" d="M158.3,299.507c6.98-4.333,15.886,1.272,15.001,9.439l-0.624,5.752l0,0   c-7.842,68.284-6.342,67.972-9.524,75.13c-0.035,0.104-25.687,76.984-25.716,77.087c-0.194,0-8.9,0-8.75,0   c-12.614,0-22.869,10.512-22.518,23.149c0.013,0.499,0.037,0.989,0.117,1.771c0.149,1.399,0.438,2.835,0.872,4.23   c2.845,9.189,11.436,15.917,21.528,15.917h0.519h26.781c-11.911,0-21.842-9.41-22.494-21.3c-0.096-1.791,0.014-3.588,0.353-5.386   c0.109-0.584,0.301-1.426,0.517-2.162c2.832-9.53,11.586-16.218,21.624-16.218h0.52c0.61-0.142,7.276,1.16,10.035-5.074   c27.345-82.125,25.884-77.501,26.217-80.571l7.219-66.573C204.937,268.958,158.3,299.507,158.3,299.507z"/>
	<path style="fill:#4CAEE5;" d="M330.747,494.386l-35.8-79.368c-7.346-16.287-31.195-6.874-31.195-6.874   c3.681,3.054,3.404,5.616,8.519,15.982l0,0l31.692,70.26c5.393,11.955,16.971,17.596,25.703,17.596c9.692,0,17.837,0,26.785,0   C347.411,511.982,336.057,506.156,330.747,494.386z"/>
</g>
<g>
</g>
<g>
</g>
<g>
</g>
<g>
</g>
<g>
</g>
<g>
</g>
<g>
</g>
<g>
</g>
<g>
</g>
<g>
</g>
<g>
</g>
<g>
</g>
<g>
</g>
<g>
</g>
<g>
</g>
</svg>
