<?xml version="1.0" encoding="iso-8859-1"?>
<!-- Generator: Adobe Illustrator 19.0.0, SVG Export Plug-In . SVG Version: 6.00 Build 0)  -->
<svg xmlns="http://www.w3.org/2000/svg" xmlns:xlink="http://www.w3.org/1999/xlink" version="1.1" id="Capa_1" x="0px" y="0px" viewBox="0 0 512 512" style="enable-background:new 0 0 512 512;" xml:space="preserve">
<path style="fill:#70BBEF;" d="M256,0.002c-75.546,0-136.789,61.242-136.789,136.789v238.417  c0,75.546,61.243,136.789,136.789,136.789S392.79,450.756,392.79,375.209V136.792C392.79,61.244,331.546,0.002,256,0.002z"/>
<path style="fill:#4CAEE5;" d="M145.58,375.209V136.792c0-71.099,54.245-129.52,123.605-136.155  c-80.591-7.709-149.974,55.536-149.974,136.155v238.417c0,80.586,69.334,143.865,149.974,136.155  C199.824,504.729,145.58,446.307,145.58,375.209z"/>
<path style="fill:#8CD2F9;" d="M173.264,259.834c-0.251-4.259,2.999-7.916,7.259-8.167c51.161-3.011,83.185-19.438,101.04-32.689  c19.268-14.3,26.659-28.089,26.732-28.226c1.98-3.765,6.639-5.235,10.412-3.273c3.774,1.962,5.259,6.591,3.312,10.374  c-1.321,2.566-33.576,62.942-140.589,69.241C177.173,267.343,173.514,264.095,173.264,259.834z"/>
<g>
	<path style="fill:#EFD0A3;" d="M336.86,116.351c4.683,16.303,4.892,34.221,0,51.252c14.887,1.087,28.624-10.743,28.624-25.626   C365.484,127.068,351.724,115.265,336.86,116.351z"/>
	<path style="fill:#EFD0A3;" d="M175.139,116.351c-14.88-1.086-28.624,10.735-28.624,25.626c0,14.909,13.76,26.711,28.624,25.626   C172.807,159.486,170.257,133.348,175.139,116.351z"/>
</g>
<g>
	<path style="fill:#E2BF91;" d="M340.415,143.979c-0.174,8.194-1.399,16.118-3.554,23.625c19.914,1.451,35.556-19.388,25.518-37.447   C358.054,137.938,349.691,143.39,340.415,143.979z"/>
	<path style="fill:#E2BF91;" d="M149.62,130.155c-10.032,18.05,5.59,38.899,25.519,37.447c-2.156-7.506-3.38-15.43-3.554-23.625   C162.308,143.39,153.946,137.938,149.62,130.155z"/>
</g>
<path style="fill:#8CD2F9;" d="M119.211,331.326v15.504c123.405-8.99,218.16-64.096,273.579-137.547v-27.516  c-26.716,44.957-81.063,93.528-150.75,121.729C204.538,318.671,163.261,328.009,119.211,331.326z"/>
<path style="fill:#70BBEF;" d="M145.58,328.564c-8.673,1.161-17.461,2.091-26.369,2.761v15.504c8.9-0.649,17.69-1.54,26.369-2.663  V328.564z"/>
<path style="fill:#8CD2F9;" d="M332.738,332.226c-59.165,49.245-131.625,74.831-208.019,81.505c1.506,5.14,3.3,10.158,5.375,15.028  c118.397-11.36,209.138-65.983,262.696-136.727v-27.415C387.751,273.068,369.042,302.009,332.738,332.226z"/>
<path style="fill:#70BBEF;" d="M150.248,410.761c-8.4,1.222-16.909,2.218-25.529,2.971c0.177,0.514,1.924,6.926,5.375,15.028  c8.466-0.812,16.83-1.85,25.092-3.103C153.265,420.82,151.614,415.849,150.248,410.761z"/>
<path style="fill:#8CD2F9;" d="M392.79,348.01c-36.729,58.186-113.484,117.778-210.617,140.305c-0.711,0.165-1.372,0.429-1.98,0.764  c6.138,4.094,12.622,7.711,19.404,10.785c81.28-21.962,149.256-68.738,193.193-125.147V348.01z"/>
<path style="fill:#70BBEF;" d="M216.23,494.958c-5.917-3.275-11.57-6.971-16.908-11.056c-14.586,4.102-17.173,4.1-19.13,5.178  c7.794,5.199,11.706,6.981,19.404,10.785C205.278,498.328,210.812,496.682,216.23,494.958z"/>
<ellipse style="fill:#FCE3BB;" cx="256.002" cy="141.979" rx="85.478" ry="89.162"/>
<path style="fill:#EFD0A3;" d="M196.275,141.977c0-44.675,31.504-81.673,72.602-88.151c-52.035-8.202-98.359,33.831-98.359,88.151  c0,49.241,38.271,89.159,85.481,89.159c4.378,0,8.677-0.346,12.878-1.008C227.779,223.65,196.275,186.652,196.275,141.977z"/>
<path style="fill:#DD9A5E;" d="M336.367,111.539c-25.111-72.115-120.116-79.507-155.39-12.325  c14.89,18.483,38.225,29.689,63.71,28.037c14.234-0.923,27.282-5.742,38.19-13.342c3.876-2.7,8.997-2.749,12.983-0.214  c6.576,4.183,14.605,6.222,23.053,5.193C325.484,118.087,331.462,115.45,336.367,111.539z"/>
<path style="fill:#CE874D;" d="M180.98,99.217c5.341,6.628,11.772,12.315,18.994,16.813c9.443-32.419,36.097-57.023,68.88-62.2  C232.81,48.152,198.015,66.774,180.98,99.217z"/>
<g>
</g>
<g>
</g>
<g>
</g>
<g>
</g>
<g>
</g>
<g>
</g>
<g>
</g>
<g>
</g>
<g>
</g>
<g>
</g>
<g>
</g>
<g>
</g>
<g>
</g>
<g>
</g>
<g>
</g>
</svg>
