<?xml version="1.0" encoding="iso-8859-1"?>
<!-- Generator: Adobe Illustrator 19.0.0, SVG Export Plug-In . SVG Version: 6.00 Build 0)  -->
<svg xmlns="http://www.w3.org/2000/svg" xmlns:xlink="http://www.w3.org/1999/xlink" version="1.1" id="Capa_1" x="0px" y="0px" viewBox="0 0 512 512" style="enable-background:new 0 0 512 512;" xml:space="preserve">
<path style="fill:#95DBF9;" d="M314.222,145.738c-14.856,15.63-35.454,23.597-58.222,23.597c-22.778,0-43.384-7.976-58.242-23.618  l-5.911,12.626c12.303,23.805,36.406,41.707,64.152,41.707s51.849-17.903,64.152-41.707L314.222,145.738z"/>
<g>
	<path style="fill:#70BBEF;" d="M207.385,179.337l9.085-19.408c-6.904-3.676-13.205-8.415-18.712-14.212l-5.911,12.626   C195.863,166.111,201.141,173.242,207.385,179.337z"/>
	<path style="fill:#70BBEF;" d="M390.76,226.036c-73.219-70.238-69.158-66.419-70.608-67.693   c-27.536,53.28-100.771,53.274-128.305,0c-0.5,0.439-0.991,0.889-1.473,1.351l-69.135,66.342c-7.929,7.608-9.118,19.865-2.8,28.855   c8.004,11.39,23.505,14.555,35.332,7.213l20.949-13.003c5.806-3.603,13.213,1.058,12.476,7.851   c-7.096,62.042-5.79,61.31-8.44,67.271c-0.035,0.104-21.359,64.009-21.388,64.114c-0.153,0-7.381,0-7.278,0   c-12.379,0-21.511,11.99-17.985,23.994c2.354,7.924,9.635,13.489,17.985,13.489h0.432h34.972c7.676-0.266,11.07,0.731,16.24-1.362   c4.856-1.637,9.267-4.723,12.524-9.125l32.991-73.143c3.889-6.734,13.609-6.734,17.499,0l32.991,73.143   c4.994,6.749,13.192,10.487,19.507,10.487c4.543,0,37.804,0,44.66,0c10.875,0,19.8-9.452,18.631-20.726   c-1-9.354-8.967-16.757-18.631-16.757h-0.432h-6.846c-0.407-1.479-22.833-66.879-23.305-71.232l-6.523-60.154   c-0.737-6.793,6.671-11.454,12.477-7.851l20.949,13.003c11.828,7.341,27.329,4.177,35.332-7.213   C399.878,245.9,398.689,233.643,390.76,226.036z"/>
</g>
<g>
	<path style="fill:#4CAEE5;" d="M174.721,249.101c5.806-3.604,13.213,1.058,12.476,7.851l-0.621,5.729l0,0   c-6.404,55.707-5.173,55.59-7.819,61.542c-0.035,0.104-21.359,64.009-21.388,64.114c-0.153,0-7.381,0-7.278,0   c-11.626,0-20.589,10.652-18.416,22.194c1.636,8.704,9.324,15.289,18.416,15.289c8.251,0,12.51,0,25.483,0   c-12.53,0-21.617-12.228-17.906-24.245c2.366-7.643,9.512-13.238,17.906-13.238c0.168,0,2.592,0,2.467,0   c4.631,0,6.243-4.159,6.33-4.262c23.382-70.094,21.542-64.718,21.786-66.97l5.902-54.425   C216.92,217.852,174.721,249.101,174.721,249.101z"/>
	<path style="fill:#4CAEE5;" d="M323.224,415.332l-28.376-62.909c-8.633-19.139-31.12-11.673-31.121-11.673   c1.118,1.344,33.961,74.464,34.014,74.582c3.257,4.402,7.668,7.488,12.524,9.125c5.17,2.093,8.561,1.097,16.24,1.362h16.226   C336.521,425.819,328.307,422.201,323.224,415.332z"/>
</g>
<path style="fill:#F7CF9C;" d="M51.688,425.819v60.425c18.244,0,384.117,0,367.085,0h39.855v-60.425  C366.005,425.819,152.029,425.819,51.688,425.819z"/>
<path style="fill:#E2BF91;" d="M51.688,455.841v30.401c18.244,0,384.117,0,367.085,0h39.855v-30.401  C370.87,455.841,141.58,455.841,51.688,455.841z"/>
<path style="fill:#EFD0A3;" d="M333.691,60.948c4.5,15.668,4.683,32.856,0,49.159c14.401,1.052,27.324-10.405,27.324-24.58  C361.015,71.367,348.106,59.898,333.691,60.948z"/>
<path style="fill:#4CAEE5;" d="M141.465,266.004c-5.138-8.802-3.656-20.095,3.815-27.263l62.231-59.717  c-6.299-5.872-11.62-12.862-15.662-20.682c-0.5,0.439-0.991,0.889-1.473,1.351l-69.135,66.342  C105.23,241.399,119.018,267.304,141.465,266.004z"/>
<path style="fill:#EFD0A3;" d="M178.309,60.948c-14.405-1.049-27.324,10.407-27.324,24.58c0,14.17,12.921,25.632,27.324,24.58  C173.818,94.472,173.617,77.284,178.309,60.948z"/>
<g>
	<path style="fill:#E2BF91;" d="M337.098,87.597c-0.179,7.807-1.352,15.358-3.407,22.512c19.104,1.392,33.851-18.574,24.415-35.844   C354.005,81.768,346.019,87.031,337.098,87.597z"/>
	<path style="fill:#E2BF91;" d="M153.896,74.264c-9.43,17.257,5.305,37.236,24.415,35.844c-2.055-7.155-3.228-14.705-3.407-22.512   C165.981,87.031,157.995,81.768,153.896,74.264z"/>
</g>
<ellipse style="fill:#FCE3BB;" cx="255.996" cy="85.528" rx="81.991" ry="85.518"/>
<path style="fill:#EFD0A3;" d="M200.248,85.529c0-42.572,29.828-77.866,68.872-84.417c-50.146-8.413-95.11,31.976-95.11,84.417  c0,47.231,36.708,85.521,81.992,85.521c4.467,0,8.846-0.386,13.119-1.103C230.075,163.394,200.248,128.1,200.248,85.529z"/>
<path style="fill:#DD9A5E;" d="M333.086,56.332c-24.086-69.17-115.212-76.261-149.046-11.821  c24.288,30.149,67.089,35.45,97.74,14.096c3.718-2.59,8.63-2.638,12.453-0.206C305.991,65.879,321.619,65.479,333.086,56.332z"/>
<path style="fill:#CE874D;" d="M184.043,44.515c5.442,6.754,12.062,12.491,19.521,16.923c8.782-31.238,34.186-55.062,65.556-60.326  C233.575-4.85,200.228,13.685,184.043,44.515z"/>
<path style="fill:#4CAEE5;" d="M256.001,215.448c-4.267,0-7.727,3.459-7.727,7.727v117.576c3.99-4.795,11.463-4.795,15.454,0  V223.175C263.727,218.907,260.268,215.448,256.001,215.448z"/>
<path style="fill:#C0C0C0;" d="M456.568,280.29c0,50.183,0,174.541,0,217.802h27.817c0-23.028,0-176.728,0-202.142v-15.618v-0.042  H456.568z"/>
<path style="fill:#AFAFB2;" d="M456.568,280.29c0,50.183,0,174.541,0,217.802h13.908c0-43.929,0-170.65,0-217.802H456.568z"/>
<path style="fill:#C0C0C0;" d="M370.441,280.29c0,43.17,0,172.252,0,217.802h27.816c0-33.518,0-150.612,0-202.142v-15.618v-0.042  H370.441z"/>
<path style="fill:#AFAFB2;" d="M370.441,280.29c0,43.17,0,172.252,0,217.802h13.908c0-67.619,0-152.198,0-217.802H370.441z"/>
<path style="fill:#C0C0C0;" d="M284.314,280.29c0,24.462,0,189.391,0,217.802h27.816c0-32.184,0-188.784,0-217.802H284.314z"/>
<path style="fill:#AFAFB2;" d="M284.314,280.29c0,24.462,0,189.391,0,217.802h14.367c0-31.993,0-185.108,0-217.802H284.314z"/>
<path style="fill:#C0C0C0;" d="M198.187,280.29c0,46.238,0,161.119,0,217.802h27.817c0-57.425,0-171.83,0-217.802H198.187z"/>
<path style="fill:#AFAFB2;" d="M198.187,280.29c0,46.238,0,161.119,0,217.802h13.908c0-64.86,0-152.947,0-217.802H198.187z"/>
<path style="fill:#C0C0C0;" d="M112.06,280.29c0,23.2,0,141.386,0,164.394v15.618v37.79h27.817c0-25.314,0-194.602,0-217.802H112.06  z"/>
<path style="fill:#AFAFB2;" d="M112.06,280.29c0,23.2,0,141.386,0,164.394v15.618v37.79h13.908c0-25.314,0-194.602,0-217.802H112.06  z"/>
<path style="fill:#C0C0C0;" d="M25.933,280.29c0,62.465,0,185.281,0,217.802h27.817c0-133.938,0-79.942,0-217.802H25.933z"/>
<path style="fill:#AFAFB2;" d="M25.933,280.29c0,62.465,0,185.281,0,217.802h13.908c0-103.983,0-122.752,0-217.802H25.933z"/>
<g>
	<path style="fill:#E6E7E8;" d="M498.088,484.183c-66.656,0-209.176,0-328.235,0c-18.044,0-138.31,0-155.939,0   c-7.682,0-13.908,6.227-13.908,13.908c0,7.682,6.227,13.908,13.908,13.908c53.824,0,439.576,0,484.175,0   c7.682,0,13.908-6.226,13.908-13.908C511.996,490.411,505.769,484.183,498.088,484.183z"/>
	<path style="fill:#E6E7E8;" d="M498.088,266.382c-10.656,0-72.168,0-84.782,0c-85.602,0-64.402,0-100.093,0   c-33.167,0-109.79,0-143.361,0c-19.679,0-133.298,0-155.939,0c-7.682,0-13.908,6.227-13.908,13.908   c0,7.682,6.227,13.908,13.908,13.908c172.638,0,312.626,0,484.175,0c7.682,0,13.908-6.226,13.908-13.908   C511.996,272.609,505.769,266.382,498.088,266.382z"/>
</g>
<g>
	<path style="fill:#C0C0C0;" d="M27.821,498.092c0-7.681,6.227-13.908,13.908-13.908H13.913c-7.682,0-13.908,6.227-13.908,13.908   c0,7.682,6.227,13.908,13.908,13.908H41.73C34.048,511.999,27.821,505.774,27.821,498.092z"/>
	<path style="fill:#C0C0C0;" d="M27.821,280.29c0-7.681,6.227-13.908,13.908-13.908H13.913c-7.682,0-13.908,6.227-13.908,13.908   c0,7.682,6.227,13.908,13.908,13.908H41.73C34.048,294.197,27.821,287.971,27.821,280.29z"/>
</g>
<g>
</g>
<g>
</g>
<g>
</g>
<g>
</g>
<g>
</g>
<g>
</g>
<g>
</g>
<g>
</g>
<g>
</g>
<g>
</g>
<g>
</g>
<g>
</g>
<g>
</g>
<g>
</g>
<g>
</g>
</svg>
