<?xml version="1.0" encoding="iso-8859-1"?>
<!-- Generator: Adobe Illustrator 19.0.0, SVG Export Plug-In . SVG Version: 6.00 Build 0)  -->
<svg xmlns="http://www.w3.org/2000/svg" xmlns:xlink="http://www.w3.org/1999/xlink" version="1.1" id="Capa_1" x="0px" y="0px" viewBox="0 0 512.001 512.001" style="enable-background:new 0 0 512.001 512.001;" xml:space="preserve">
<path style="fill:#EAB883;" d="M282.916,470.767l-9.287-82.988l-6.939-62.004c-1.126-6.757-0.433-20.362-10.697-32.915l0.002-0.002  c-3.435-4.168-8.489-8.207-11.741-10.193l-0.361-0.089c-12.209-7.312-22.485-7.617-45.149-13.853l-15.257-7.303  c-4.845-2.32-7.929-7.214-7.929-12.585v-15.906c-18.632,8.242-40.838,8.682-60.465,0v14.969c0,5.944-3.413,11.361-8.774,13.926  l-14.412,6.899c-22.556,6.206-32.923,6.53-45.149,13.853l-0.361,0.089c-3.393,2.072-8.293,6.014-11.741,10.193l0.002,0.002  c-10.751,13.149-9.619,28.229-10.697,32.915l-6.939,62.004c-9.767,88.687-9.477,81.599-9.477,88.438  c-0.152,11.19,6.673,28.037,27.346,28.255h-0.002c0.262,0.01,220.357,0.019,220.869,0h-0.002  C274.578,504.274,284.584,490.055,282.916,470.767z"/>
<path style="fill:#D8A373;" d="M59.892,504.472c-20.673-0.218-27.498-17.065-27.346-28.255c0-6.861-0.256-0.068,9.477-88.438  l6.939-71.003c1.206-7.223,0.401-20.322,10.697-32.915l-0.002-0.002c3.184-3.858,7.652-7.598,11.315-9.924  c-4.219,1.278-13.791,2.401-24.211,8.641l-0.361,0.089c-3.393,2.072-8.293,6.014-11.741,10.193l0.002,0.002  c-10.751,13.149-9.619,28.229-10.697,32.915l-6.939,62.004c-9.767,88.687-9.477,81.599-9.477,88.438  c-0.152,11.19,6.673,28.037,27.346,28.255h-0.002c0.554,0.021,8.035,0.007,25.395,0.01c-0.135,0-0.266-0.005-0.398-0.01H59.892z"/>
<path style="fill:#EAB883;" d="M145.328,288.078c21.983,0,41.512-7.549,53.887-19.239c-19.672-9.282-14.993-7.074-15.726-7.42  c-4.845-2.32-7.929-7.214-7.929-12.585v-18.906c-18.629,8.24-40.835,8.683-60.465,0v17.969c0,5.944-3.413,11.36-8.774,13.926  c-1.289,0.608,5.091-2.4-14.881,7.016C103.816,280.53,123.344,288.078,145.328,288.078z"/>
<path style="fill:#70BBEF;" d="M273.653,387.985l-0.023-0.206l-6.939-62.004c-1.126-6.757-0.433-20.362-10.697-32.915l0.002-0.002  c-3.435-4.168-8.489-8.207-11.741-10.193l-0.361-0.089c-12.229-7.324-22.716-7.687-44.68-13.736l-0.301,0.268l0,0  c-12.389,11.535-31.775,18.971-53.587,18.971c-21.983,0-41.512-7.549-53.887-19.239l0.469-0.117  c-22.556,6.206-32.923,6.53-45.149,13.853l-0.361,0.089c-3.393,2.072-8.293,6.014-11.741,10.193l0.002,0.002  c-10.751,13.149-9.619,28.229-10.697,32.915l-6.939,62.004l45.691,4.765c4.44,0.463,7.738,4.326,7.497,8.785l-5.568,103.153  c47.922,0,113.51,0,161.428,0l-5.709-104.633c-0.203-3.714,2.558-6.927,6.259-7.287L273.653,387.985z"/>
<path style="fill:#4CAEE5;" d="M42.023,387.779l6.939-71.003c1.206-7.223,0.401-20.322,10.697-32.915l-0.002-0.002  c3.184-3.858,7.652-7.598,11.315-9.924c-4.219,1.278-13.791,2.401-24.211,8.641l-0.361,0.089  c-3.393,2.072-8.293,6.014-11.741,10.193l0.002,0.002c-10.751,13.149-9.619,28.229-10.697,32.915l-6.939,62.004l24.709,2.577  L42.023,387.779z"/>
<path style="fill:#D8A373;" d="M140.174,260.721v-24.642c-9.019-0.628-17.5-2.799-25.079-6.151v17.969  c0,5.944-3.413,11.361-8.774,13.926c-26.614,12.739-6.727,3.263-14.881,7.016c7.511,7.095,17.672,12.642,29.404,15.92l13.17-10.928  C137.917,270.595,140.174,265.79,140.174,260.721z"/>
<path style="fill:#4C4846;" d="M212.542,35.568c-30.915-36.61-101.26-40.035-139.775,5.851c-2.285,3.386-18.25,20.379-21.583,50.287  c-1.112,9.956-0.326,16.283-0.597,36.291h190.35C256.166,46.947,212.542,35.568,212.542,35.568z"/>
<path style="fill:#3F3B39;" d="M71.157,91.031c5.259-44.205,40.761-78.705,84.757-82.997C103.86,2.726,59.266,38.904,51.705,87.737  c-1.836,11.854-0.825,18.534-1.12,40.26h19.897C70.629,104.499,70.094,99.968,71.157,91.031z"/>
<g>
	<path style="fill:#EAB883;" d="M244.835,136.876c0,10.922-11.572,19.774-24.613,19.774v-39.546   C233.262,117.105,244.835,125.957,244.835,136.876z"/>
	<path style="fill:#EAB883;" d="M45.869,136.876c0,10.922,11.572,19.774,24.614,19.774v-39.546   C57.442,117.105,45.869,125.957,45.869,136.876z"/>
</g>
<g>
	<path style="fill:#D8A373;" d="M220.222,140.652v15.998c13.04,0,24.613-8.852,24.613-19.774c0-2.848-0.793-5.552-2.188-7.999   C238.694,135.813,229.862,140.652,220.222,140.652z"/>
	<path style="fill:#D8A373;" d="M48.057,128.878c-7.635,13.39,5.618,27.773,22.426,27.773v-15.998   C60.842,140.652,52.01,135.813,48.057,128.878z"/>
</g>
<path style="fill:#F7CF9C;" d="M77.84,113.486c-4.466-0.448-8.357,3.018-8.357,7.506c0,43.369-0.155,44.14,0.319,49.358  c8.463,93.411,151.423,91.79,151.423-6.933c0-13.124,0.046-45.95-0.056-45.989l0,0c-0.601-2.818-3.375-5.697-6.165-6.415  c-8.512-2.192-24.097-10.114-34.977-18.861c-4.98-4.005-12.025-4.221-17.247-0.539C149.469,101,121.715,117.891,77.84,113.486z"/>
<g>
	<path style="fill:#EAB883;" d="M122.715,222.458c-34.778-28.165-28.213-63.157-28.236-108.287c-5.267,0.1-10.807-0.1-16.64-0.686   c-4.466-0.448-8.357,3.018-8.357,7.506c0.163,40.878-0.287,42.665,0.319,49.358c4.028,44.421,45.127,75.211,88.05,67.89   C155.847,237.89,134.432,231.917,122.715,222.458z"/>
	<path style="fill:#EAB883;" d="M504.276,470.767l-9.287-82.988l-6.939-62.004c-1.126-6.757-0.433-20.362-10.697-32.915l0.002-0.002   c-3.435-4.168-8.489-8.207-11.741-10.193l-0.361-0.089c-12.209-7.312-22.485-7.617-45.149-13.853l-15.257-7.303   c-4.845-2.32-7.929-7.214-7.929-12.585v-15.906c-18.632,8.242-40.838,8.682-60.465,0v14.969c0,5.944-3.413,11.361-8.774,13.926   l-14.412,6.899c-22.556,6.206-32.923,6.53-45.149,13.853l-0.361,0.089c-3.393,2.072-8.293,6.014-11.741,10.193l0.002,0.002   c-10.751,13.149-9.619,28.229-10.697,32.915l-6.939,62.004c-9.767,88.687-9.477,81.599-9.477,88.438   c-0.152,11.19,6.673,28.037,27.346,28.255h-0.002c0.262,0.01,220.357,0.019,220.869,0h-0.002   C495.938,504.274,505.943,490.055,504.276,470.767z"/>
</g>
<path style="fill:#D8A373;" d="M281.251,504.472c-20.673-0.218-27.498-17.065-27.346-28.255c0-6.861-0.256-0.068,9.477-88.438  l6.939-71.003c1.206-7.223,0.401-20.322,10.697-32.915l-0.002-0.002c3.184-3.858,7.653-7.598,11.315-9.924  c-4.219,1.278-13.791,2.401-24.211,8.641l-0.361,0.089c-3.393,2.072-8.293,6.014-11.741,10.193l0.002,0.002  c-10.751,13.149-9.619,28.229-10.696,32.915l-6.939,62.004c-9.767,88.687-9.477,81.599-9.477,88.438  c-0.152,11.19,6.673,28.037,27.346,28.255h-0.002c0.554,0.021,8.035,0.007,25.395,0.01c-0.135,0-0.266-0.005-0.398-0.01H281.251z"/>
<path style="fill:#EAB883;" d="M366.686,288.078c21.983,0,41.512-7.549,53.887-19.239c-19.672-9.282-14.993-7.074-15.726-7.42  c-4.845-2.32-7.929-7.214-7.929-12.585v-18.906c-18.629,8.24-40.835,8.683-60.465,0v17.969c0,5.944-3.413,11.36-8.774,13.926  c-1.289,0.608,5.091-2.4-14.881,7.016C325.174,280.53,344.703,288.078,366.686,288.078z"/>
<path style="fill:#7F7369;" d="M495.012,387.985l-0.023-0.206l-6.939-62.004c-1.126-6.757-0.433-20.362-10.697-32.915l0.002-0.002  c-3.435-4.168-8.489-8.207-11.741-10.193l-0.361-0.089c-12.229-7.324-22.716-7.687-44.68-13.736l-0.301,0.268l0,0  c-12.389,11.535-31.775,18.971-53.587,18.971c-21.983,0-41.512-7.549-53.887-19.239l0.469-0.117  c-22.556,6.206-32.923,6.53-45.149,13.853l-0.361,0.089c-3.393,2.072-8.293,6.014-11.741,10.193l0.002,0.002  c-10.751,13.149-9.619,28.229-10.696,32.915l-6.939,62.004l45.691,4.765c4.44,0.463,7.738,4.326,7.497,8.785l-5.568,103.153  c47.922,0,113.51,0,161.428,0l-5.709-104.633c-0.203-3.714,2.558-6.927,6.259-7.287L495.012,387.985z"/>
<path style="fill:#72655A;" d="M263.382,387.779l6.939-71.003c1.206-7.223,0.401-20.322,10.697-32.915l-0.002-0.002  c3.184-3.858,7.653-7.598,11.315-9.924c-4.219,1.278-13.791,2.401-24.211,8.641l-0.361,0.089  c-3.393,2.072-8.293,6.014-11.741,10.193l0.002,0.002c-10.751,13.149-9.619,28.229-10.696,32.915l-6.939,62.004l24.709,2.577  L263.382,387.779z"/>
<path style="fill:#D8A373;" d="M361.533,260.721v-24.642c-9.019-0.628-17.5-2.799-25.079-6.151v17.969  c0,5.944-3.413,11.361-8.774,13.926c-26.614,12.739-6.727,3.263-14.881,7.016c7.511,7.095,17.672,12.642,29.404,15.92l13.17-10.928  C359.275,270.595,361.533,265.79,361.533,260.721z"/>
<path style="fill:#4C4846;" d="M433.9,35.568c-30.915-36.61-101.259-40.035-139.775,5.851c-2.285,3.385-18.249,20.379-21.583,50.287  c-1.112,9.956-0.326,16.283-0.597,36.291h190.35C477.525,46.947,433.9,35.568,433.9,35.568z"/>
<path style="fill:#3F3B39;" d="M292.516,91.031c5.259-44.205,40.761-78.705,84.757-82.997  c-52.054-5.308-96.647,30.87-104.208,79.703c-1.836,11.854-0.825,18.534-1.12,40.26h19.897  C291.988,104.499,291.452,99.968,292.516,91.031z"/>
<g>
	<path style="fill:#EAB883;" d="M466.193,136.876c0,10.922-11.572,19.774-24.613,19.774v-39.546   C454.622,117.105,466.193,125.957,466.193,136.876z"/>
	<path style="fill:#EAB883;" d="M267.228,136.876c0,10.922,11.572,19.774,24.614,19.774v-39.546   C278.8,117.105,267.228,125.957,267.228,136.876z"/>
</g>
<g>
	<path style="fill:#D8A373;" d="M441.58,140.652v15.998c13.04,0,24.613-8.852,24.613-19.774c0-2.848-0.793-5.552-2.188-7.999   C460.052,135.813,451.221,140.652,441.58,140.652z"/>
	<path style="fill:#D8A373;" d="M269.416,128.878c-7.635,13.39,5.618,27.773,22.426,27.773v-15.998   C282.201,140.652,273.37,135.813,269.416,128.878z"/>
</g>
<path style="fill:#F7CF9C;" d="M299.198,113.486c-4.466-0.448-8.357,3.018-8.357,7.506c0,43.369-0.155,44.14,0.319,49.358  c8.463,93.411,151.423,91.79,151.423-6.933c0-13.124,0.046-45.95-0.056-45.989l0,0c-0.601-2.818-3.375-5.697-6.165-6.415  c-8.512-2.192-24.097-10.114-34.977-18.861c-4.98-4.005-12.025-4.221-17.247-0.539C370.828,101,343.074,117.891,299.198,113.486z"/>
<path style="fill:#EAB883;" d="M344.074,222.458c-34.778-28.165-28.213-63.157-28.236-108.287c-5.267,0.1-10.807-0.1-16.64-0.686  c-4.466-0.448-8.357,3.018-8.357,7.506c0.163,40.878-0.287,42.665,0.319,49.358c4.027,44.421,45.127,75.211,88.05,67.89  C377.206,237.89,355.791,231.917,344.074,222.458z"/>
<path d="M35.306,511.999h61.361c4.142,0,7.499-3.357,7.499-7.499c0-4.142-3.357-7.499-7.499-7.499h-23.98l7.436-140.654  c0.219-4.135-2.957-7.665-7.093-7.884c-4.121-0.245-7.666,2.956-7.884,7.093l-1.568,29.648l-38.272-3.87  c6.684-57.957,6.667-64.778,8.909-72.045c4.18-13.576,15.553-21.759,29.137-25.712l25.965-6.463  c29.766,24.653,82.008,24.665,111.77-0.068c18.201,5.174,30.193,5.513,41.985,13.954l-0.046-0.031  c1.06,0.824,1.216,0.828,3.274,2.636c-8.928,14.558-6.893,23.718-15.124,91.08l-4.082,0.413l-1.562-29.542  c-0.211-4.002-3.521-7.103-7.481-7.103c-0.134,0-0.269,0.003-0.402,0.011c-4.137,0.219-7.312,3.749-7.093,7.884l7.435,140.654  h-86.328c-4.142,0-7.499,3.357-7.499,7.499c0,4.143,3.357,7.499,7.499,7.499c358.997,0,345.087,0.007,345.633-0.013  c9.912-0.128,18.42-3.547,24.612-9.89c14.355-14.704,9.584-32.709,7.87-49.473c-0.461-4.117-4.171-7.088-8.286-6.618  c-16.354,1.828,4.773,30.156-10.316,45.614c-8.013,8.207-19.057,4.38-36.829,5.381l-5.12-96.839l39.146-3.959l2.608,23.301  c0.46,4.118,4.179,7.085,8.286,6.618c4.116-0.46,7.079-4.17,6.618-8.286c-11.343-98.762-10.767-103.271-13.752-112.962  c-10.671-34.636-46.045-36.75-69.488-43.228l-14.569-6.974c-2.229-1.066-3.668-3.352-3.668-5.821v-11.054  c38.375-19.188,44.092-58.444,44.148-58.554c1.652-8.018,1.511-15.768,1.517-15.883c13.542-2.951,23.609-13.695,23.609-26.467  c0-4.509-1.263-8.763-3.482-12.513c5.968-34.238,2.502-60.594-10.32-78.364c-7.956-11.025-17.219-15.404-21.753-16.987  c-35.976-40.161-110.772-39.608-149.804,7.641c-18.34,21.86-20.961,43.005-22.072,46.449c-2.297,12.041-1.813,19.547-1.813,39.355  c-11.15,15.625-1.629,36.415,18.894,40.884c0.375,31.078,16.603,59.387,45.611,74.409v10.144c0,3.056-1.787,5.858-4.512,7.163  l-13.725,6.569c-20.081,6.025-38.041,6.014-54.7,20.529c-16.715-14.532-34.407-14.441-54.699-20.529  c-14.598-6.988-13.87-6.594-14.595-7.079c-5.551-3.726-3.027-10.103-3.644-16.872c0.19-0.095,0.223-0.108,0.459-0.23h0.001  c46.907-24.308,44.967-74.004,45-74.104c19.491-4.246,29.34-23.41,20.129-38.979c5.968-34.238,2.501-60.594-10.321-78.364  c-7.955-11.025-17.219-15.404-21.752-16.987C190.297-0.314,139.775-8.993,100.025,10.573c-3.727,1.81-5.21,6.263-3.401,9.988  c1.811,3.728,6.364,5.249,10.091,3.436c32.172-15.839,76.925-10.781,99.902,16.428c1.114,1.319,2.363,2.154,4.06,2.473  c1.399,0.34,32.287,8.626,24.582,69.76c-2.998-1.358-6.273-2.304-9.737-2.745c-2.21-2.955-5.399-5.256-8.843-6.143  c-7.427-1.913-22.116-9.379-32.147-17.444c-7.549-6.067-18.352-6.405-26.268-0.821c-22.744,16.04-48.597,23.681-79.869,20.539  c-4.168-0.416-8.324,0.923-11.464,3.668c-3.169,0.209-6.205,0.835-9.041,1.818c0.271-11.027-0.535-18.84,3.026-32.014  c1.016-2.536,4.192-18.434,19.027-35.139l0.004-0.004c1.182-1.284,0.773-0.842,0.862-0.938c2.805-3.049,2.608-7.792-0.439-10.597  c-3.049-2.805-7.793-2.607-10.597,0.439C51.631,52.868,46.739,74.856,46.45,75.558c-4.452,16.449-3.555,27.618-3.555,46.92  c-11.158,15.639-1.613,36.417,18.894,40.883v0.073c0,30.677,16.794,59.628,45.816,74.438v10.669c0,2.658-1.55,5.117-3.948,6.266  l-14.29,6.84c-18.024,5.142-62.462,8.159-70.721,48.046c-1.343,6.49-18.36,160.346-18.368,160.446  C-1.791,493.997,11.94,511.999,35.306,511.999z M279.006,497.001h-22.323l-0.158-0.006c-0.067-0.002-0.135-0.004-0.202-0.005  c-5.969-0.063-10.729-1.87-14.146-5.37c-5.21-5.338-6.247-12.732-5.624-20.1l8.432-75.348l39.143,3.958L279.006,497.001z   M229.471,399.933l-1.082,9.666l-0.502-9.505L229.471,399.933z M406.126,270.368c-22.676,13.557-55.98,13.704-78.9,0  c0.775-0.634,16.717-5.404,16.717-22.453c0-0.351,0-4.377,0-4.274c14.654,4.227,31.363,4.084,45.467,0.015v5.195  C389.409,265.204,405.063,269.521,406.126,270.368z M450.072,147.706c-0.001-9.766-0.002-12.43-0.003-21.623  c5.076,2.094,8.614,6.205,8.614,10.812C458.684,141.5,455.148,145.612,450.072,147.706z M301.553,44.3  c35.648-39.944,99.02-36.545,126.607-3.877c1.114,1.319,2.363,2.154,4.061,2.473c1.398,0.34,32.287,8.626,24.581,69.76  c-2.998-1.358-6.274-2.304-9.737-2.745c-2.21-2.955-5.398-5.255-8.842-6.143c-7.426-1.913-22.116-9.379-32.147-17.443  c-7.547-6.067-18.35-6.406-26.268-0.822c-22.744,16.04-48.597,23.681-79.869,20.539c-4.165-0.413-8.325,0.923-11.463,3.668  c-3.169,0.209-6.205,0.835-9.041,1.817C280.366,106.195,274.229,76.178,301.553,44.3z M283.333,126.081v21.626  C271.873,142.982,271.872,130.806,283.333,126.081z M298.332,121c0.942-1.381,43.555,9.597,90.119-23.242  c2.48-1.751,5.863-1.646,8.227,0.254c12.032,9.675,28.585,17.876,37.705,20.254c0.197,0.105,0.477,0.368,0.665,0.609  c0.03,3.119,0.191,43.608-0.262,50.821c-2.047,22.795-15.116,42.857-36.646,54.47l0.025-0.014l-0.105,0.053h0.001l-0.154,0.076  c-5.563,2.711-10.38,4.22-10.279,4.185c-29.892,9.866-55.804-5.722-49.389-2.86C291.387,204.613,298.332,159.678,298.332,121z   M284.69,283.579l26.101-6.497c29.771,24.699,82.007,24.691,111.769,0c28.797,7.959,53.019,7.994,57.236,42.493l6.907,61.724  l-38.27,3.871l-1.566-29.611c-0.218-4.137-3.773-7.339-7.884-7.093c-4.136,0.219-7.312,3.749-7.093,7.884l7.436,140.654H294.024  l7.435-140.654c0.219-4.135-2.957-7.665-7.093-7.884c-4.123-0.245-7.666,2.956-7.884,7.093l-1.564,29.579l-38.268-3.87  c6.967-61.086,6.626-61.796,8.021-68.536C257.864,297.296,269.731,287.928,284.69,283.579z M105.79,270.415  c0.1-0.048,4.632-2.219,4.345-2.081c14.958-7.159,12.199-23.467,12.47-24.634c14.792,4.166,30.788,4.122,45.467-0.1  c0.234,0.96-2.366,17.635,13.178,25.073l3.441,1.647C161.995,283.94,128.685,284.054,105.79,270.415z M228.53,147.706  c-0.001-9.766-0.002-12.43-0.003-21.623C239.985,130.807,239.987,142.98,228.53,147.706z M61.79,126.082v21.625  C50.333,142.982,50.331,130.808,61.79,126.082z M95.156,210.058c-22.615-24.823-18.213-46.808-18.368-89.056  c1.145-1.606,42.873,10.077,90.121-23.244c2.479-1.751,5.862-1.646,8.226,0.254c12.031,9.674,28.584,17.876,37.705,20.254  c0.197,0.105,0.477,0.367,0.664,0.608c0.036,3.552,0.079,43.78-0.04,47.654l-0.002-0.028c-0.33,1.091,0.923,37.292-36.867,57.666  l0.026-0.014l-0.105,0.053h0.001c-0.1,0.047-4.091,1.932-3.991,1.887h-0.001c-17.982,7.957-37.396,7.275-54.374,0h-0.001  c-2.203-0.902,0.128,0.357-4.347-1.887h0.001C101.245,217.44,95.021,209.913,95.156,210.058z M62.786,400.199L57.668,497  c-18.432-0.004-22.043-0.002-22.682-0.011c-12.522-0.131-21.208-8.491-19.772-25.47l8.424-75.28L62.786,400.199z"/>
<g>
</g>
<g>
</g>
<g>
</g>
<g>
</g>
<g>
</g>
<g>
</g>
<g>
</g>
<g>
</g>
<g>
</g>
<g>
</g>
<g>
</g>
<g>
</g>
<g>
</g>
<g>
</g>
<g>
</g>
</svg>
