<?xml version="1.0" encoding="iso-8859-1"?>
<!-- Generator: Adobe Illustrator 19.0.0, SVG Export Plug-In . SVG Version: 6.00 Build 0)  -->
<svg xmlns="http://www.w3.org/2000/svg" xmlns:xlink="http://www.w3.org/1999/xlink" version="1.1" id="Capa_1" x="0px" y="0px" viewBox="0 0 512.001 512.001" style="enable-background:new 0 0 512.001 512.001;" xml:space="preserve">
<path style="fill:#996123;" d="M143.277,0.091C87.597-0.62,43.091,45.874,43.091,102.046l0,0l0,0l0,0  c-0.015,0.104,0.201,4.408-2.448,8.825c-4.811,8.022-14.297,29.196-5.467,61.233c12.441,45.138,33.229,51.171,25.782,104.353h163.61  c-7.449-54.468,14.37-53.962,26.811-100.193c8.83-32.812-0.656-54.498-5.467-62.714c-2.573-4.392-2.325-8.143-2.448-9.038l0,0l0,0  l0,0C243.464,47.464,199.409-0.643,143.277,0.091"/>
<path style="fill:#8E551C;" d="M108.021,263.892c1.704-0.772,2.885-3.311,2.885-6.205v-25.122c-29.348-12.586-47.5-41.1-47.5-71.903  c0.577-35.963-1.318-37.258,1.75-41.655c1.389-3.463,2.831-6.19,3.998-8.137c5.118-8.532-0.436-14.184,6.652-38.323  c10.892-37.202,42.316-66.194,81.649-71.573C98.673-7.158,43.907,36.433,43.091,102.124c0,6.802-3.247,8.623-6.721,17.578  c-11.454,29.527-0.795,60.051,12.99,88.348c9.149,18.784,16.507,33.355,11.598,68.407C97.89,266.337,69.406,273.505,108.021,263.892  z"/>
<path style="fill:#EAB883;" d="M283.796,477.267c-18.2-161.171-17.161-156.504-18.792-164.392  c-2.643-12.779-10.345-22.86-21.041-29.391l-0.371-0.092c-13.235-7.927-22.855-7.603-67.514-19.5  c-1.704-0.772-2.885-3.311-2.885-6.205v-25.295c-0.022,0.01-0.044,0.02-0.067,0.029v-0.161c-19.698,8.695-42.51,8.701-62.221,0  v0.161c-0.022-0.01-0.044-0.02-0.067-0.029v25.295c0,2.895-1.18,5.433-2.885,6.205c-44.362,11.819-54.227,11.542-67.514,19.5  l-0.371,0.092c-10.677,6.518-18.395,16.596-21.041,29.391c-1.631,7.885-0.478,2.216-18.792,164.392  c-1.755,20.308,9.009,34.734,28.388,34.734l0,0c66.563,0,159.964,0,226.783,0C274.91,512.001,285.541,497.438,283.796,477.267z"/>
<path style="fill:#D8A373;" d="M26.577,477.267c18.165-173.133,17.011-168.144,18.792-176.754  c2.128-10.294,7.366-18.505,14.696-24.701c-1.014,0.326-10.086,1.865-19.624,7.579l-0.371,0.092  c-10.677,6.518-18.395,16.596-21.041,29.391c-1.631,7.885-0.478,2.216-18.792,164.392C-1.518,497.574,9.246,512,28.625,512l0,0  h26.341C35.497,512.001,24.827,497.516,26.577,477.267z"/>
<path style="fill:#7EBC7E;" d="M228.1,396.593l46.126-4.84c-8.031-70.402-7.639-71.222-9.222-78.878  c-2.643-12.779-10.345-22.86-21.041-29.391l-0.371-0.092c-13.235-7.927-22.855-7.603-67.514-19.5  c-1.704-0.772-2.885-3.311-2.885-6.205v-25.295c-0.022,0.01-0.044,0.02-0.067,0.029v-0.161c-19.698,8.695-42.51,8.701-62.221,0  v0.161c-0.022-0.01-0.044-0.02-0.067-0.029v25.295c0,2.895-1.18,5.433-2.885,6.205c-44.362,11.819-54.227,11.542-67.514,19.5  l-0.371,0.092c-10.677,6.518-18.395,16.596-21.041,29.391c-1.618,7.823-1.321,9.611-9.218,78.842l46.553,4.884  c4.87,0.511,8.487,4.747,8.229,9.637l-5.591,105.763c30.938,0,132.395,0,166.35,0l-5.585-105.648  C219.504,401.4,223.167,397.11,228.1,396.593z"/>
<path style="fill:#5EAA5E;" d="M35.175,394.377c8.942-84.36,8.447-85.419,10.194-93.863c2.128-10.294,7.365-18.505,14.695-24.7  c-1.016,0.327-10.086,1.864-19.624,7.578l-0.371,0.092c-10.677,6.518-18.395,16.596-21.041,29.391  c-1.618,7.823-1.321,9.611-9.218,78.842L35.175,394.377z"/>
<path style="fill:#EAB883;" d="M141.867,301.53c23.266,0,43.673-12.946,55.211-32.41l-21.002-5.228  c-1.704-0.772-2.885-3.311-2.885-6.205v-25.295l0,0v-0.132c-20.297,8.954-43.169,8.435-62.287,0v0.132l0,0v25.295  c0,2.895-1.18,5.433-2.885,6.205l-21.318,5.307C98.25,288.62,118.633,301.53,141.867,301.53z"/>
<path style="fill:#D8A373;" d="M136.594,273.767l-0.257-35.213c-8.756-0.651-17.139-2.635-25.431-6.295c0,9.229,0,15.254,0,25.427  c0,2.895-1.18,5.433-2.885,6.205l-21.318,5.307c6.166,10.371,14.856,18.877,25.152,24.559l16.992-7.808  C133.6,283.765,136.632,278.998,136.594,273.767z"/>
<path style="fill:#F7CF9C;" d="M135.161,77.734l0.014-0.021c3.089-4.471,9.696-4.471,12.785,0l0.014,0.021  c16.994,23.874,47.421,33.526,62.608,36.995c5.361,1.225,9.147,6.014,9.147,11.514c0,41.069,4.385,80.3-43.152,104.303  c-51,25.732-113.173-10.995-113.173-69.885v-36.098c0-4.584,3.198-8.535,7.677-9.507C85.693,111.889,117.6,102.407,135.161,77.734z"/>
<path style="fill:#EAB883;" d="M89.747,160.663v-51.013c-7.324,2.673-13.911,4.378-18.664,5.409  c-4.48,0.972-7.677,4.922-7.677,9.506v36.098c0,48.166,43.225,85.187,91.333,77.032C118.561,231.568,89.747,199.578,89.747,160.663z  "/>
<path style="fill:#996123;" d="M371.247,0.091c-55.68-0.711-100.186,45.783-100.186,101.955l0,0l0,0l0,0  c-0.015,0.104,0.201,4.408-2.448,8.825c-4.811,8.022-14.297,29.196-5.467,61.233c12.441,45.138,33.229,51.171,25.782,104.353h163.61  c-7.449-54.468,14.37-53.962,26.811-100.193c8.83-32.812-0.656-54.498-5.467-62.714c-2.573-4.392-2.325-8.143-2.448-9.038l0,0l0,0  l0,0C471.434,47.464,427.38-0.643,371.247,0.091"/>
<path style="fill:#8E551C;" d="M314.674,269.199c13.197-3.286,8.121-2.021,21.318-5.307c1.704-0.772,2.885-3.311,2.885-6.205  v-25.122c-29.348-12.586-47.5-41.1-47.5-71.903c0.577-35.963-1.318-37.258,1.75-41.655c1.389-3.463,2.831-6.19,3.998-8.137  c5.118-8.532-0.436-14.184,6.652-38.323c10.892-37.202,42.316-66.194,81.649-71.573c-58.783-8.133-113.549,35.459-114.366,101.15  c0,6.802-3.247,8.623-6.72,17.578c-11.454,29.527-0.795,60.051,12.99,88.348c9.149,18.784,16.507,33.355,11.598,68.407  L314.674,269.199z"/>
<path style="fill:#EAB883;" d="M511.766,477.267c-18.2-161.171-17.161-156.504-18.792-164.392  c-2.643-12.779-10.345-22.86-21.041-29.391l-0.371-0.092c-13.235-7.927-22.855-7.603-67.514-19.5  c-1.704-0.772-2.885-3.311-2.885-6.205v-25.295c-0.022,0.01-0.044,0.02-0.067,0.029v-0.161c-19.698,8.695-42.51,8.701-62.221,0  v0.161c-0.022-0.01-0.044-0.02-0.067-0.029v25.295c0,2.895-1.18,5.433-2.885,6.205c-44.362,11.819-54.227,11.542-67.514,19.5  l-0.371,0.092c-10.677,6.518-18.395,16.596-21.041,29.391c-1.631,7.885-0.478,2.216-18.792,164.392  c-1.755,20.308,9.009,34.734,28.388,34.734l0,0c66.563,0,159.964,0,226.783,0C502.88,512.001,513.511,497.438,511.766,477.267z"/>
<path style="fill:#D8A373;" d="M254.547,477.267c18.165-173.133,17.011-168.144,18.792-176.754  c2.128-10.294,7.366-18.505,14.696-24.701c-1.014,0.326-10.086,1.865-19.624,7.579l-0.371,0.092  c-10.677,6.518-18.395,16.596-21.041,29.391c-1.631,7.885-0.478,2.216-18.792,164.392C226.452,497.574,237.216,512,256.596,512l0,0  h26.341C263.467,512.001,252.797,497.516,254.547,477.267z"/>
<path style="fill:#70BBEF;" d="M456.07,396.593l46.126-4.84c-8.031-70.402-7.639-71.222-9.222-78.878  c-2.643-12.779-10.345-22.86-21.041-29.391l-0.371-0.092c-13.235-7.927-22.855-7.603-67.514-19.5  c-1.704-0.772-2.885-3.311-2.885-6.205v-25.295c-0.022,0.01-0.044,0.02-0.067,0.029v-0.161c-19.698,8.695-42.51,8.701-62.221,0  v0.161c-0.022-0.01-0.044-0.02-0.067-0.029v25.295c0,2.895-1.18,5.433-2.885,6.205c-44.362,11.819-54.227,11.542-67.514,19.5  l-0.371,0.092c-10.677,6.518-18.395,16.596-21.041,29.391c-1.618,7.823-1.321,9.611-9.218,78.842l46.553,4.884  c4.87,0.511,8.487,4.747,8.229,9.637l-5.591,105.763c30.938,0,132.395,0,166.35,0l-5.585-105.648  C447.475,401.4,451.138,397.11,456.07,396.593z"/>
<path style="fill:#4CAEE5;" d="M263.145,394.377c8.942-84.36,8.447-85.419,10.194-93.863c2.128-10.294,7.365-18.505,14.695-24.7  c-1.016,0.327-10.086,1.864-19.624,7.578l-0.371,0.092c-10.677,6.518-18.395,16.596-21.041,29.391  c-1.618,7.823-1.321,9.611-9.218,78.842L263.145,394.377z"/>
<path style="fill:#EAB883;" d="M369.838,301.53c23.266,0,43.673-12.946,55.211-32.41l-21.002-5.228  c-1.704-0.772-2.885-3.311-2.885-6.205v-25.295l0,0v-0.132c-20.297,8.954-43.169,8.435-62.287,0v0.132l0,0v25.295  c0,2.895-1.18,5.433-2.885,6.205l-21.318,5.307C326.22,288.62,346.603,301.53,369.838,301.53z"/>
<path style="fill:#D8A373;" d="M364.564,273.767l-0.257-35.213c-8.756-0.651-17.139-2.635-25.431-6.295c0,9.229,0,15.254,0,25.427  c0,2.895-1.18,5.433-2.885,6.205l-21.318,5.307c6.166,10.371,14.856,18.877,25.152,24.559l16.992-7.808  C361.57,283.765,364.602,278.998,364.564,273.767z"/>
<path style="fill:#F7CF9C;" d="M363.132,77.734l0.014-0.021c3.089-4.471,9.696-4.471,12.785,0l0.014,0.021  c16.994,23.874,47.421,33.526,62.608,36.995c5.361,1.225,9.147,6.014,9.147,11.514c0,41.069,4.385,80.3-43.152,104.303  c-51,25.732-113.173-10.995-113.173-69.885v-36.098c0-4.584,3.198-8.535,7.677-9.507  C313.663,111.889,345.571,102.407,363.132,77.734z"/>
<path style="fill:#EAB883;" d="M317.717,160.663v-51.013c-7.324,2.673-13.911,4.378-18.664,5.409  c-4.48,0.972-7.677,4.922-7.677,9.506v36.098c0,48.166,43.225,85.187,91.333,77.032  C346.531,231.568,317.717,199.578,317.717,160.663z"/>
<g>
</g>
<g>
</g>
<g>
</g>
<g>
</g>
<g>
</g>
<g>
</g>
<g>
</g>
<g>
</g>
<g>
</g>
<g>
</g>
<g>
</g>
<g>
</g>
<g>
</g>
<g>
</g>
<g>
</g>
</svg>
