<?xml version="1.0" encoding="iso-8859-1"?>
<!-- Generator: Adobe Illustrator 19.0.0, SVG Export Plug-In . SVG Version: 6.00 Build 0)  -->
<svg xmlns="http://www.w3.org/2000/svg" xmlns:xlink="http://www.w3.org/1999/xlink" version="1.1" id="Capa_1" x="0px" y="0px" viewBox="0 0 512.001 512.001" style="enable-background:new 0 0 512.001 512.001;" xml:space="preserve">
<path style="fill:#EAB883;" d="M283.73,477.264l-9.568-85.498l-7.149-63.88c-1.16-6.962-0.446-20.978-11.019-33.911l0.002-0.002  c-3.539-4.295-8.746-8.455-12.096-10.501l-0.371-0.092c-12.578-7.534-23.165-7.848-46.514-14.272l-15.719-7.525  c-4.992-2.39-8.169-7.433-8.169-12.967v-16.387c-19.195,8.491-42.072,8.945-62.294,0v15.422c0,6.123-3.516,11.704-9.039,14.348  l-14.848,7.108c-23.238,6.394-33.919,6.728-46.514,14.272l-0.371,0.092c-3.496,2.134-8.544,6.196-12.096,10.501l0.002,0.002  c-11.076,13.548-9.909,29.083-11.019,33.911l-7.149,63.88c-10.062,91.37-9.763,84.068-9.763,91.113  c-0.156,11.528,6.875,28.884,28.173,29.11h-0.002c0.269,0.01,227.023,0.02,227.55,0h-0.002  C275.14,511.785,285.448,497.134,283.73,477.264z"/>
<path style="fill:#D8A373;" d="M53.959,511.989c-21.299-0.225-28.329-17.582-28.173-29.11c0-7.069-0.263-0.07,9.763-91.113  l7.149-73.151c1.243-7.442,0.413-20.937,11.019-33.911l-0.002-0.002c3.28-3.975,7.884-7.829,11.658-10.223  c-4.347,1.316-14.209,2.474-24.943,8.902l-0.371,0.092c-3.496,2.134-8.544,6.196-12.096,10.501l0.002,0.002  c-11.076,13.547-9.909,29.083-11.019,33.911l-7.149,63.88c-10.062,91.37-9.763,84.068-9.763,91.113  c-0.156,11.528,6.875,28.884,28.173,29.11h-0.002c0.571,0.021,8.278,0.007,26.163,0.011C54.228,512,54.094,511.995,53.959,511.989  L53.959,511.989L53.959,511.989z"/>
<path style="fill:#EAB883;" d="M141.979,289.05c22.648,0,42.768-7.778,55.517-19.82c-20.267-9.562-15.446-7.289-16.202-7.645  c-4.992-2.39-8.169-7.433-8.169-12.967V229.14c-19.192,8.489-42.07,8.946-62.294,0v18.512c0,6.124-3.516,11.704-9.039,14.348  c-1.328,0.626,5.245-2.473-15.331,7.228C99.212,281.272,119.331,289.05,141.979,289.05z"/>
<path style="fill:#70BBEF;" d="M274.186,391.978l-0.024-0.212l-7.149-63.88c-1.16-6.962-0.446-20.978-11.019-33.911l0.002-0.002  c-3.539-4.295-8.746-8.455-12.096-10.501l-0.371-0.092c-12.599-7.546-23.403-7.919-46.031-14.152l-0.31,0.276l0,0  c-12.765,11.883-32.736,19.544-55.207,19.544c-22.648,0-42.768-7.777-55.517-19.82l0.483-0.12  c-23.238,6.394-33.919,6.728-46.514,14.272l-0.371,0.092c-3.496,2.134-8.544,6.196-12.096,10.501l0.002,0.002  c-11.076,13.547-9.909,29.083-11.019,33.911l-7.149,63.88l47.074,4.909c4.575,0.477,7.972,4.458,7.724,9.051L58.859,512  c49.372,0,116.944,0,166.311,0l-5.881-107.798c-0.209-3.826,2.635-7.137,6.448-7.508L274.186,391.978z"/>
<path style="fill:#4CAEE5;" d="M35.549,391.766l7.149-73.151c1.243-7.442,0.413-20.937,11.019-33.911l-0.002-0.002  c3.28-3.975,7.884-7.829,11.658-10.223c-4.347,1.316-14.209,2.474-24.943,8.902l-0.371,0.092  c-3.496,2.134-8.544,6.196-12.096,10.501l0.002,0.002c-11.076,13.547-9.909,29.083-11.019,33.911l-7.149,63.88l25.456,2.655  L35.549,391.766z"/>
<path style="fill:#D8A373;" d="M136.67,260.865v-25.388c-9.292-0.647-18.029-2.884-25.838-6.337v18.512  c0,6.123-3.516,11.704-9.039,14.348c-27.418,13.125-6.931,3.361-15.331,7.228c7.739,7.31,18.206,13.025,30.295,16.402l13.569-11.259  C134.344,271.038,136.67,266.086,136.67,260.865z"/>
<path style="fill:#4C4846;" d="M211.227,28.9C179.376-8.816,106.904-12.346,67.223,34.928c-2.354,3.487-18.801,20.995-22.236,51.808  c-1.145,10.257-0.335,16.776-0.615,37.388H240.48C256.17,40.624,211.227,28.9,211.227,28.9z"/>
<path style="fill:#3F3B39;" d="M65.566,86.041c5.418-45.542,41.993-81.086,87.321-85.508C99.258-4.935,53.315,32.338,45.526,82.647  c-1.89,12.213-0.85,19.094-1.154,41.477H64.87C65.022,99.917,64.47,95.249,65.566,86.041z"/>
<g>
	<path style="fill:#EAB883;" d="M244.496,133.274c0,11.253-11.922,20.372-25.358,20.372v-40.742   C232.575,112.903,244.496,122.023,244.496,133.274z"/>
	<path style="fill:#EAB883;" d="M39.512,133.274c0,11.253,11.922,20.372,25.359,20.372v-40.742   C51.435,112.903,39.512,122.023,39.512,133.274z"/>
</g>
<g>
	<path style="fill:#D8A373;" d="M219.139,137.163v16.482c13.435,0,25.358-9.12,25.358-20.373c0-2.934-0.817-5.72-2.254-8.241   C238.17,132.177,229.071,137.163,219.139,137.163z"/>
	<path style="fill:#D8A373;" d="M41.767,125.033c-7.866,13.796,5.788,28.612,23.104,28.612v-16.482   C54.939,137.163,45.84,132.177,41.767,125.033z"/>
</g>
<path style="fill:#F7CF9C;" d="M72.451,109.175c-4.601-0.462-8.61,3.109-8.61,7.734c0,44.68-0.16,45.474,0.328,50.85  c8.719,96.237,156.003,94.566,156.003-7.143c0-13.522,0.048-47.341-0.058-47.381l0,0c-0.619-2.904-3.477-5.869-6.351-6.609  c-8.77-2.259-24.827-10.419-36.035-19.431c-5.131-4.126-12.388-4.349-17.768-0.555C146.246,96.312,117.653,113.713,72.451,109.175z"/>
<g>
	<path style="fill:#EAB883;" d="M118.683,221.443c-35.829-29.017-29.066-65.068-29.09-111.562   c-5.427,0.103-11.133-0.103-17.144-0.706c-4.601-0.462-8.61,3.109-8.61,7.734c0.168,42.114-0.296,43.956,0.328,50.85   c4.149,45.764,46.491,77.486,90.713,69.944C152.818,237.343,130.754,231.189,118.683,221.443z"/>
	<path style="fill:#EAB883;" d="M511.784,477.264l-9.568-85.498l-7.149-63.88c-1.16-6.962-0.446-20.978-11.019-33.911l0.002-0.002   c-3.539-4.295-8.746-8.455-12.096-10.501l-0.371-0.092c-12.578-7.534-23.165-7.848-46.514-14.272l-15.719-7.525   c-4.992-2.39-8.169-7.433-8.169-12.967v-16.387c-19.195,8.491-42.072,8.945-62.294,0v15.422c0,6.123-3.516,11.704-9.039,14.348   L315,269.107c-23.238,6.394-33.919,6.728-46.514,14.272l-0.371,0.092c-3.496,2.134-8.544,6.196-12.096,10.501l0.002,0.002   c-11.076,13.548-9.909,29.083-11.019,33.911l-7.149,63.88c-10.062,91.37-9.763,84.068-9.763,91.113   c-0.156,11.528,6.875,28.884,28.173,29.11h-0.002c0.269,0.01,227.023,0.02,227.55,0h-0.002   C503.194,511.785,513.504,497.134,511.784,477.264z"/>
</g>
<path style="fill:#D8A373;" d="M282.014,511.989c-21.299-0.225-28.329-17.582-28.173-29.11c0-7.069-0.263-0.07,9.763-91.113  l7.149-73.151c1.243-7.442,0.413-20.937,11.019-33.911l-0.002-0.002c3.28-3.975,7.884-7.829,11.658-10.223  c-4.347,1.316-14.209,2.474-24.943,8.902l-0.371,0.092c-3.496,2.134-8.544,6.196-12.096,10.501l0.002,0.002  c-11.076,13.547-9.909,29.083-11.019,33.911l-7.149,63.88c-10.062,91.37-9.763,84.068-9.763,91.113  c-0.156,11.528,6.875,28.884,28.173,29.11h-0.002c0.571,0.021,8.278,0.007,26.163,0.011c-0.14,0-0.274-0.006-0.41-0.011  L282.014,511.989L282.014,511.989z"/>
<path style="fill:#EAB883;" d="M370.033,289.05c22.648,0,42.768-7.778,55.517-19.82c-20.267-9.562-15.446-7.289-16.202-7.645  c-4.992-2.39-8.169-7.433-8.169-12.967V229.14c-19.192,8.489-42.07,8.946-62.294,0v18.512c0,6.124-3.516,11.704-9.039,14.348  c-1.328,0.626,5.245-2.473-15.331,7.228C327.267,281.272,347.385,289.05,370.033,289.05z"/>
<path style="fill:#7F7369;" d="M502.24,391.978l-0.024-0.212l-7.149-63.88c-1.16-6.962-0.446-20.978-11.019-33.911l0.002-0.002  c-3.539-4.295-8.746-8.455-12.096-10.501l-0.371-0.092c-12.599-7.546-23.403-7.919-46.031-14.152l-0.31,0.276l0,0  c-12.765,11.883-32.736,19.544-55.207,19.544c-22.648,0-42.768-7.777-55.517-19.82l0.483-0.12  c-23.238,6.394-33.919,6.728-46.514,14.272l-0.371,0.092c-3.496,2.134-8.544,6.196-12.096,10.501l0.002,0.002  c-11.076,13.547-9.909,29.083-11.019,33.911l-7.149,63.88l47.074,4.909c4.575,0.477,7.972,4.458,7.724,9.051L286.913,512  c49.372,0,116.944,0,166.311,0l-5.881-107.798c-0.209-3.826,2.635-7.137,6.448-7.508L502.24,391.978z"/>
<path style="fill:#72655A;" d="M263.605,391.766l7.149-73.151c1.243-7.442,0.413-20.937,11.019-33.911l-0.002-0.002  c3.28-3.975,7.884-7.829,11.658-10.223c-4.347,1.316-14.209,2.474-24.943,8.902l-0.371,0.092  c-3.496,2.134-8.544,6.196-12.096,10.501l0.002,0.002c-11.076,13.547-9.909,29.083-11.019,33.911l-7.149,63.88l25.456,2.655  L263.605,391.766z"/>
<path style="fill:#D8A373;" d="M364.724,260.865v-25.388c-9.292-0.647-18.029-2.884-25.838-6.337v18.512  c0,6.123-3.516,11.704-9.039,14.348c-27.418,13.125-6.931,3.361-15.331,7.228c7.739,7.31,18.206,13.025,30.295,16.402l13.569-11.259  C362.399,271.038,364.724,266.086,364.724,260.865z"/>
<path style="fill:#4C4846;" d="M439.281,28.9c-31.85-37.716-104.321-41.246-144.003,6.028c-2.354,3.487-18.801,20.995-22.236,51.808  c-1.145,10.257-0.335,16.776-0.615,37.388h196.108C484.225,40.624,439.281,28.9,439.281,28.9z"/>
<path style="fill:#3F3B39;" d="M293.62,86.041c5.418-45.542,41.993-81.086,87.321-85.508c-53.628-5.468-99.571,31.804-107.36,82.114  c-1.89,12.213-0.85,19.094-1.154,41.477h20.499C293.076,99.917,292.524,95.249,293.62,86.041z"/>
<g>
	<path style="fill:#EAB883;" d="M472.55,133.274c0,11.253-11.922,20.372-25.358,20.372v-40.742   C460.629,112.903,472.55,122.023,472.55,133.274z"/>
	<path style="fill:#EAB883;" d="M267.567,133.274c0,11.253,11.922,20.372,25.359,20.372v-40.742   C279.489,112.903,267.567,122.023,267.567,133.274z"/>
</g>
<g>
	<path style="fill:#D8A373;" d="M447.194,137.163v16.482c13.435,0,25.358-9.12,25.358-20.373c0-2.934-0.817-5.72-2.254-8.241   C466.224,132.177,457.125,137.163,447.194,137.163z"/>
	<path style="fill:#D8A373;" d="M269.821,125.033c-7.866,13.796,5.788,28.612,23.104,28.612v-16.482   C282.993,137.163,273.894,132.177,269.821,125.033z"/>
</g>
<path style="fill:#F7CF9C;" d="M300.505,109.175c-4.601-0.462-8.61,3.109-8.61,7.734c0,44.68-0.16,45.474,0.328,50.85  c8.719,96.237,156.003,94.566,156.003-7.143c0-13.522,0.048-47.341-0.058-47.381l0,0c-0.619-2.904-3.477-5.869-6.351-6.609  c-8.77-2.259-24.827-10.419-36.035-19.431c-5.131-4.126-12.388-4.349-17.768-0.555C374.3,96.312,345.707,113.713,300.505,109.175z"/>
<path style="fill:#EAB883;" d="M346.737,221.443c-35.829-29.017-29.066-65.068-29.09-111.562  c-5.427,0.103-11.134-0.103-17.144-0.706c-4.601-0.462-8.61,3.109-8.61,7.734c0.168,42.114-0.296,43.956,0.328,50.85  c4.149,45.764,46.491,77.486,90.713,69.944C380.872,237.343,358.809,231.189,346.737,221.443z"/>
<g>
</g>
<g>
</g>
<g>
</g>
<g>
</g>
<g>
</g>
<g>
</g>
<g>
</g>
<g>
</g>
<g>
</g>
<g>
</g>
<g>
</g>
<g>
</g>
<g>
</g>
<g>
</g>
<g>
</g>
</svg>
