<?xml version="1.0" encoding="iso-8859-1"?>
<!-- Generator: Adobe Illustrator 19.0.0, SVG Export Plug-In . SVG Version: 6.00 Build 0)  -->
<svg xmlns="http://www.w3.org/2000/svg" xmlns:xlink="http://www.w3.org/1999/xlink" version="1.1" id="Capa_1" x="0px" y="0px" viewBox="0 0 511.996 511.996" style="enable-background:new 0 0 511.996 511.996;" xml:space="preserve">
<path style="fill:#996123;" d="M146.586,7.613c-54.043-0.691-97.241,44.437-97.241,98.957l0,0l0,0l0,0  c-0.014,0.101,0.195,4.279-2.376,8.565c-4.67,7.786-13.877,28.337-5.306,59.433c12.075,43.811,32.252,49.667,25.023,101.285h158.799  c-7.23-52.867,13.948-52.375,26.023-97.246c8.57-31.847-0.637-52.896-5.306-60.871c-2.496-4.263-2.257-7.903-2.376-8.773l0,0l0,0  l0,0C243.827,53.593,201.068,6.899,146.586,7.613"/>
<path style="fill:#8E551C;" d="M112.367,263.657c1.655-0.75,2.799-3.213,2.799-6.023v-24.383  c-28.484-12.215-46.103-39.892-46.103-69.789c0.56-34.906-1.279-36.163,1.699-40.431c1.349-3.361,2.747-6.008,3.881-7.897  c4.967-8.281-0.424-13.767,6.457-37.195c10.572-36.109,41.073-64.248,79.249-69.469C103.294,0.576,50.138,42.886,49.345,106.645  c0,6.602-3.15,8.369-6.523,17.061c-11.117,28.658-0.772,58.286,12.607,85.75c8.88,18.231,16.021,32.375,11.257,66.396  C102.534,266.031,74.886,272.988,112.367,263.657z"/>
<path style="fill:#EAB883;" d="M282.973,470.76c-17.665-156.433-16.657-151.903-18.239-159.559  c-2.564-12.403-10.042-22.188-20.422-28.527l-0.361-0.089c-12.845-7.693-22.182-7.378-65.53-18.927  c-1.655-0.75-2.799-3.213-2.799-6.023v-24.551c-0.021,0.009-0.043,0.019-0.065,0.028v-0.157c-19.119,8.439-41.261,8.445-60.392,0  v0.157c-0.021-0.009-0.043-0.019-0.065-0.028v24.551c0,2.809-1.146,5.273-2.799,6.023c-43.057,11.471-52.633,11.203-65.529,18.927  l-0.361,0.089C36.049,289,28.557,298.781,25.989,311.2c-1.584,7.653-0.464,2.151-18.239,159.559  c-1.704,19.71,8.744,33.712,27.554,33.712l0,0c64.606,0,155.26,0,220.115,0C274.349,504.472,284.668,490.338,282.973,470.76z"/>
<path style="fill:#D8A373;" d="M33.317,470.76c17.63-168.044,16.511-163.201,18.239-171.557c2.067-9.992,7.149-17.961,14.264-23.974  c-0.984,0.317-9.79,1.811-19.048,7.355l-0.361,0.089C36.049,289,28.557,298.781,25.989,311.2  c-1.584,7.653-0.464,2.151-18.239,159.559c-1.704,19.71,8.744,33.712,27.554,33.712l0,0h25.567  C41.975,504.472,31.618,490.414,33.317,470.76z"/>
<path style="fill:#7EBC7E;" d="M228.915,392.457l44.77-4.697c-7.794-68.332-7.414-69.128-8.951-76.559  c-2.564-12.403-10.042-22.188-20.422-28.527l-0.361-0.089c-12.845-7.693-22.182-7.378-65.53-18.927  c-1.655-0.75-2.799-3.213-2.799-6.023v-24.551c-0.021,0.009-0.043,0.019-0.065,0.028v-0.157c-19.119,8.439-41.261,8.445-60.392,0  v0.157c-0.021-0.009-0.043-0.019-0.065-0.028v24.551c0,2.809-1.146,5.273-2.799,6.023c-43.057,11.471-52.633,11.203-65.529,18.927  l-0.361,0.089C36.049,289,28.557,298.781,25.989,311.2c-1.571,7.592-1.283,9.328-8.947,76.523l45.185,4.741  c4.727,0.496,8.237,4.607,7.986,9.354l-5.427,102.653c30.029,0,128.502,0,161.46,0l-5.421-102.542  C220.573,397.123,224.128,392.959,228.915,392.457z"/>
<path style="fill:#5EAA5E;" d="M41.663,390.306c8.679-81.879,8.199-82.907,9.895-91.104c2.067-9.992,7.149-17.961,14.263-23.974  c-0.986,0.317-9.79,1.81-19.047,7.354l-0.361,0.089c-10.363,6.327-17.854,16.108-20.423,28.527  c-1.571,7.592-1.283,9.328-8.947,76.523L41.663,390.306z"/>
<path style="fill:#EAB883;" d="M145.219,300.19c22.582,0,42.389-12.565,53.588-31.458l-20.384-5.075  c-1.655-0.749-2.799-3.213-2.799-6.023v-24.551l0,0v-0.128c-19.7,8.691-41.899,8.186-60.456,0v0.128l0,0v24.551  c0,2.809-1.146,5.274-2.799,6.023l-20.691,5.151C102.883,287.658,122.666,300.19,145.219,300.19z"/>
<path style="fill:#D8A373;" d="M140.1,273.242l-0.25-34.177c-8.498-0.632-16.635-2.557-24.683-6.11c0,8.957,0,14.806,0,24.68  c0,2.809-1.146,5.273-2.799,6.023l-20.691,5.151c5.985,10.066,14.419,18.322,24.412,23.836l16.493-7.578  C137.194,282.947,140.137,278.319,140.1,273.242z"/>
<path style="fill:#F7CF9C;" d="M138.709,82.973l0.014-0.02c2.998-4.34,9.411-4.34,12.409,0l0.014,0.02  c16.494,23.173,46.027,32.539,60.768,35.908c5.204,1.189,8.878,5.837,8.878,11.175c0,39.862,4.256,77.939-41.883,101.237  c-49.501,24.975-109.845-10.673-109.845-67.83v-35.037c0-4.449,3.103-8.284,7.451-9.227  C90.696,116.123,121.664,106.92,138.709,82.973z"/>
<path style="fill:#EAB883;" d="M94.631,163.463v-49.514c-7.109,2.594-13.502,4.249-18.115,5.25  c-4.348,0.943-7.451,4.778-7.451,9.227v35.037c0,46.749,41.954,82.682,88.648,74.768C122.596,232.283,94.631,201.234,94.631,163.463  z"/>
<path style="fill:#996123;" d="M367.855,7.613c-54.043-0.691-97.241,44.437-97.241,98.957l0,0l0,0l0,0  c-0.014,0.101,0.195,4.279-2.376,8.565c-4.67,7.786-13.877,28.337-5.306,59.433c12.075,43.811,32.252,49.667,25.023,101.285h158.799  c-7.23-52.867,13.948-52.375,26.023-97.246c8.57-31.847-0.637-52.896-5.306-60.871c-2.497-4.263-2.257-7.903-2.376-8.773l0,0l0,0  l0,0C465.095,53.593,422.337,6.899,367.855,7.613"/>
<path style="fill:#8E551C;" d="M312.944,268.808c12.809-3.188,7.881-1.963,20.691-5.151c1.655-0.75,2.799-3.213,2.799-6.023v-24.383  c-28.484-12.215-46.103-39.892-46.103-69.789c0.56-34.906-1.279-36.163,1.699-40.431c1.349-3.361,2.747-6.008,3.881-7.897  c4.967-8.281-0.424-13.767,6.457-37.195c10.572-36.109,41.073-64.248,79.249-69.469c-57.055-7.893-110.211,34.416-111.003,98.176  c0,6.602-3.15,8.369-6.523,17.06c-11.117,28.658-0.772,58.286,12.607,85.75c8.88,18.231,16.021,32.375,11.257,66.396  L312.944,268.808z"/>
<path style="fill:#EAB883;" d="M504.242,470.76c-17.665-156.433-16.657-151.903-18.239-159.559  c-2.564-12.403-10.042-22.188-20.423-28.527l-0.361-0.089c-12.845-7.693-22.182-7.378-65.53-18.927  c-1.655-0.75-2.799-3.213-2.799-6.023v-24.551c-0.021,0.009-0.043,0.019-0.065,0.028v-0.157c-19.119,8.439-41.261,8.445-60.392,0  v0.157c-0.021-0.009-0.043-0.019-0.065-0.028v24.551c0,2.809-1.146,5.273-2.799,6.023c-43.057,11.471-52.633,11.203-65.529,18.927  l-0.361,0.089c-10.363,6.327-17.854,16.108-20.423,28.527c-1.584,7.653-0.464,2.151-18.239,159.559  c-1.704,19.71,8.744,33.712,27.554,33.712l0,0c64.606,0,155.26,0,220.115,0C495.617,504.472,505.936,490.338,504.242,470.76z"/>
<path style="fill:#D8A373;" d="M254.585,470.76c17.63-168.044,16.511-163.201,18.239-171.557  c2.067-9.992,7.149-17.961,14.264-23.974c-0.984,0.317-9.79,1.811-19.048,7.355l-0.361,0.089  c-10.363,6.327-17.854,16.108-20.423,28.527c-1.584,7.653-0.464,2.151-18.239,159.559c-1.704,19.71,8.744,33.712,27.554,33.712l0,0  h25.567C263.242,504.472,252.886,490.414,254.585,470.76z"/>
<path style="fill:#70BBEF;" d="M450.184,392.457l44.77-4.697c-7.794-68.332-7.414-69.128-8.951-76.559  c-2.564-12.403-10.042-22.188-20.423-28.527l-0.361-0.089c-12.845-7.693-22.182-7.378-65.53-18.927  c-1.655-0.75-2.799-3.213-2.799-6.023v-24.551c-0.021,0.009-0.043,0.019-0.065,0.028v-0.157c-19.119,8.439-41.261,8.445-60.392,0  v0.157c-0.021-0.009-0.043-0.019-0.065-0.028v24.551c0,2.809-1.146,5.273-2.799,6.023c-43.057,11.471-52.633,11.203-65.529,18.927  l-0.361,0.089c-10.363,6.327-17.854,16.108-20.423,28.527c-1.571,7.592-1.283,9.328-8.947,76.523l45.185,4.741  c4.727,0.496,8.237,4.607,7.986,9.354l-5.427,102.653c30.029,0,128.502,0,161.46,0l-5.421-102.542  C441.841,397.123,445.396,392.959,450.184,392.457z"/>
<path style="fill:#4CAEE5;" d="M262.93,390.306c8.679-81.879,8.199-82.907,9.895-91.104c2.067-9.992,7.149-17.961,14.263-23.974  c-0.986,0.317-9.79,1.81-19.047,7.354l-0.361,0.089c-10.363,6.327-17.854,16.108-20.423,28.527  c-1.571,7.592-1.283,9.328-8.947,76.523L262.93,390.306z"/>
<path style="fill:#EAB883;" d="M366.486,300.19c22.582,0,42.389-12.565,53.588-31.458l-20.384-5.075  c-1.655-0.749-2.799-3.213-2.799-6.023v-24.551l0,0v-0.128c-19.7,8.691-41.899,8.186-60.457,0v0.128l0,0v24.551  c0,2.809-1.146,5.274-2.799,6.023l-20.691,5.151C324.152,287.658,343.935,300.19,366.486,300.19z"/>
<path style="fill:#D8A373;" d="M361.367,273.242l-0.25-34.177c-8.498-0.632-16.635-2.557-24.683-6.11c0,8.957,0,14.806,0,24.68  c0,2.809-1.146,5.273-2.799,6.023l-20.691,5.151c5.985,10.066,14.419,18.322,24.412,23.836l16.493-7.578  C358.462,282.947,361.404,278.319,361.367,273.242z"/>
<path style="fill:#F7CF9C;" d="M359.978,82.973l0.014-0.02c2.998-4.34,9.411-4.34,12.409,0l0.014,0.02  c16.494,23.173,46.027,32.539,60.768,35.908c5.204,1.189,8.878,5.837,8.878,11.175c0,39.862,4.256,77.939-41.883,101.237  c-49.501,24.975-109.845-10.673-109.845-67.83v-35.037c0-4.449,3.103-8.284,7.451-9.227  C311.963,116.123,342.933,106.92,359.978,82.973z"/>
<path style="fill:#EAB883;" d="M315.899,163.463v-49.514c-7.109,2.594-13.502,4.249-18.115,5.25  c-4.348,0.943-7.451,4.778-7.451,9.227v35.037c0,46.749,41.954,82.682,88.648,74.768  C343.865,232.283,315.899,201.234,315.899,163.463z"/>
<path d="M502.397,387.01v-0.006l-0.001-0.008c-7.795-68.288-7.424-69.367-9.064-77.287c-2.998-14.504-11.87-26.095-23.86-33.41  c-3.136-1.918-9.181-4.716-14.813-6.509c-3.218-27.759,2.033-37.465,9.811-51.802c1.533-2.825,3.117-5.747,4.746-8.999  c1.854-3.703,0.356-8.208-3.347-10.062c-3.702-1.854-8.208-0.356-10.062,3.347c-1.52,3.032-3.044,5.845-4.52,8.563  c-7.663,14.128-14.381,26.532-12.083,54.96c-2.929-0.729-31.642-7.876-34.827-8.669v-19.525  c26.329-13.164,45.17-41.812,45.17-74.112v-33.407c0-8.906-6.048-16.508-14.706-18.484c-34.164-7.807-49.957-23.993-56.282-32.88  c-5.988-8.667-18.796-8.615-24.722-0.039c-15.76,22.111-45.568,30.597-57.655,33.218c-7.741,1.68-13.36,8.642-13.36,16.557v35.037  c0,33.138,19.745,61.739,45.459,74.256l0.58,0.286v19.095l-32.945,8.201c5.882-50.188-14.47-51.742-25.766-92.727  c-7.851-28.484,0.537-46.962,4.507-53.583c5.336-8.896,2.018-14.51,5.012-29.545c0.179-0.731,1.586-10.391,7.011-22.153  c0.185-0.272,9.758-24.101,34.588-39.252c0.1-0.029,36.162-23.719,78.599-7.077c14.062,5.536,21.701,12.705,24.991,15.159  c40.608,34.507,27.907,71.358,36.134,85.401c3.596,6.141,11.367,23.258,5.88,49.505c-0.847,4.054,1.753,8.027,5.807,8.875  c0.518,0.107,1.033,0.16,1.542,0.16c3.475,0,6.593-2.43,7.332-5.967c6.556-31.353-3.144-52.51-7.618-60.152  c-0.882-1.506-1.348-3.201-1.348-4.983c0-43.682-25.848-81.403-56.325-96.889l0,0c-2.741-1.518-6.911-3.496-10.905-5.065  c-21.94-8.644-42.318-6.89-39.889-6.895C307.411,0.81,263.105,49.768,263.105,106.675c0,4.386-2.553,4.968-6.395,15.412  c-3.458-8.486-5.309-8.828-5.309-13.094c0-69.515-61.782-124.054-132.873-105.206l0,0l-0.1,0.028  c-3.451,1.134-9.16,2.353-20.09,7.979v-0.001c-5.962,2.981-14.71,8.885-21.392,15.008c-5.037,4.629-1.715,13.02,5.075,13.02  c1.813,0,3.631-0.653,5.071-1.977c26.182-24.087,57.291-22.595,57.883-22.711v0.001c0.101,0,1.174,0,1.073,0v-0.001  c0.101,0,1.327,0,1.227,0v0.001c0.101,0,1.175,0,1.074,0v-0.001c22.319,1.252,37.856,5.679,55.937,21.541l0.079,0.073  c0.002,0.002,0.073,0.066,0.073,0.066c17.089,15.706,23.092,31.373,23.362,31.819c7.582,16.831,8.257,32.51,8.311,32.832  c0.655,8.705-0.48,12.952,3.696,20.088c3.99,6.815,12.422,25.829,4.536,55.133c-10.869,40.393-30.027,43.314-26.319,89.13  l-17.389-4.329c-0.004-0.001-0.009-0.003-0.013-0.004l-17.496-4.355v-19.12c0.112-0.068,11.77-5.597,21.26-15.272  c15.602-15.648,24.726-36.417,24.726-59.245v-35.037c0-7.913-5.618-14.876-13.359-16.557c-12.094-2.622-41.921-11.112-57.675-33.245  c-0.007-0.011-0.015-0.021-0.023-0.032c-2.813-4.005-7.404-6.394-12.304-6.394s-9.489,2.387-12.304,6.391  c-0.008,0.012-0.017,0.023-0.024,0.035c-6.373,8.953-22.165,25.141-56.327,32.946c-8.659,1.978-14.708,9.578-14.708,18.484  c0.029,36.867-4.954,82.59,45.222,107.547v19.496l-32.872,8.183c5.874-50.168-14.477-51.74-25.769-92.708  c-7.852-28.486,0.537-46.962,4.508-53.583c6.996-11.662-0.981-26.22,13.62-54.961c1.876-3.692,0.404-8.206-3.287-10.082  c-3.692-1.878-8.206-0.405-10.082,3.286c-0.681,1.334-0.915,1.674-1.849,3.78c-8.851,19.176-9.276,35.001-9.619,37.084  c-0.712,9.219,0.278,9.972-1.645,13.177c-4.965,8.276-15.497,31.208-6.105,65.283c12.662,45.945,31.709,41.798,24.827,90.94  c-0.078,0.554-0.087,1.101-0.045,1.636c-20.426,5.902-36.282,19.474-40.639,40.546c-1.4,6.771-18.358,160.331-18.366,160.432  c-2.317,26.733,14.219,41.857,35.024,41.857h57.132c4.142,0,7.498-3.356,7.498-7.498s-3.356-7.498-7.498-7.498h-19.71l7.434-140.642  c0.219-4.135-2.956-7.664-7.093-7.883c-4.129-0.24-7.664,2.956-7.883,7.093l-1.562,29.531l-38.291-4.018l3.379-30.2  c0.071-0.298,0.131-0.601,0.166-0.914c3.223-27.798,3.182-30.781,4.517-37.221c1.851-8.946,6.65-16.255,14.266-21.722  c11.824-8.566,27.53-9.654,40.634-13.621c13.331,19.077,34.228,30.311,56.921,30.311c22.725,0,43.637-11.257,56.965-30.373  c15.91,4.666,30.958,5.208,43.264,15.535l-0.434,2.867c-8.74,15.977-5.784,29.379-13.926,88.973l-3.643,0.382l-1.562-29.531  c-0.211-4.001-3.52-7.103-7.48-7.103c-0.134,0-0.269,0.003-0.402,0.011c-4.136,0.219-7.312,3.748-7.093,7.883l6.466,122.306  l-2.77,18.335c-7.06,0-77.383,0.001-87.173,0.001c-4.142,0-7.498,3.356-7.498,7.498s3.356,7.499,7.498,7.499  c275.694-0.001,105.995-0.001,349.241-0.001c10.101,0,18.772-3.379,25.079-9.771c6.488-6.578,10.286-16.315,10.163-25.99  C512.035,468.719,511.299,468.31,502.397,387.01z M62.837,400.095l-5.123,96.906c-17.936-0.961-28.845,2.769-36.808-5.307  c-3.415-3.461-5.679-8.49-5.845-15.619c-0.09-5.318,0.201-3.567,8.608-80.091L62.837,400.095z M77.448,166.546  c-0.127-17.253-0.044-23.753-0.067-36.464c0-1.865,1.254-3.454,3.051-3.864c16.718-3.819,47.384-13.934,65.126-38.758  c0.063-0.072,0.173-0.146,0.225-0.219c0.039,0.056,0.078,0.111,0.119,0.167c7.803,10.937,26.814,30.501,66.67,39.144  c0.908,0.197,1.542,0.979,1.542,1.9c-1.356,27.702,8.167,64.638-28.994,90.922l-0.908,0.631  c-22.241,15.188-51.529,16.202-75.526,0.927l0,0C77.071,200.6,77.628,167.191,77.448,166.546z M145.222,292.719  c-15.819,0-30.571-7.053-41.043-19.267c10.25-2.592,10.197-2.443,11.288-2.937c4.375-1.984,7.202-7.029,7.202-12.852v-13.93  c4.396,1.303,10.025,2.387,16.452,2.849c15.72,1.338,28.786-2.737,28.943-2.764v13.845c0,5.826,2.828,10.872,7.205,12.852  c0.413,0.188,0.842,0.336,1.282,0.446l9.767,2.432C175.842,285.644,161.071,292.719,145.222,292.719z M228.502,405.041l-0.261-4.946  l1.025-0.108L228.502,405.041z M297.874,166.185c-0.11-2.8-0.035-1.209-0.059-37.731c0-0.922,0.635-1.703,1.543-1.9  c33.41-7.247,55.824-23.372,66.858-39.311c14.637,20.91,40.697,33.358,65.282,38.976c1.796,0.41,3.049,2,3.049,3.864  c-0.007,3.732,0.025-13.52-0.067,36.502l-0.002-0.037c-0.981,5.028-1.335,39.183-36.844,57.661l-0.253,0.124  c-8.273,3.861-11.056,4.503-10.956,4.471c-29.168,8.034-45.436-2.711-48.892-3.229C298.026,207.907,297.911,166.285,297.874,166.185  z M336.716,270.515c4.375-1.984,7.202-7.029,7.202-12.852v-13.83c16.412,4.297,30.991,3.658,45.395-0.099v13.929  c0,7.106,4.127,12.211,8.486,13.3l9.766,2.432c-10.475,12.251-25.245,19.326-41.095,19.326c-15.818,0-30.57-7.053-41.043-19.267  C335.704,270.853,335.625,271.009,336.716,270.515z M233.479,269.814c-3.223-27.774,2.029-37.481,9.806-51.819  c4.757-8.769,10.108-18.636,14.611-34.109c4.224,12.838,9.031,21.513,13.352,29.29c8.116,14.609,13.478,24.261,9.265,54.352  c-0.079,0.562-0.087,1.115-0.043,1.658c-8.021,2.325-16.888,6.275-24.481,12.929C249.429,276.376,241.816,272.476,233.479,269.814z   M278.964,497h-22.406c-14.728,0-21.344-10.666-20.091-25.477c0.57-5.022-2.551,22.492,8.568-75.527l39.052,4.097L278.964,497z   M447.137,355.568c-0.218-4.137-3.766-7.335-7.883-7.093c-4.136,0.219-7.311,3.748-7.093,7.883L439.596,497H293.982l7.435-140.641  c0.219-4.135-2.956-7.664-7.093-7.883c-4.123-0.24-7.665,2.956-7.883,7.093l-1.562,29.531l-37.601-3.945l12.121-80.218  c10.827-16.939,30.766-18.155,50.15-23.531c13.331,19.078,34.228,30.312,56.921,30.312c22.724,0,43.637-11.257,56.964-30.373  l25.125,6.255c15.198,4.415,26.852,13.837,30.019,29.149c1.127,5.439,0.368,0.835,8.066,68.37l-37.949,3.982L447.137,355.568z   M476.674,497h-22.059l-5.124-96.905l38.824-4.074c8.712,79.295,8.603,73.796,8.603,80.216C496.918,487.913,489.881,497,476.674,497  z"/>
<g>
</g>
<g>
</g>
<g>
</g>
<g>
</g>
<g>
</g>
<g>
</g>
<g>
</g>
<g>
</g>
<g>
</g>
<g>
</g>
<g>
</g>
<g>
</g>
<g>
</g>
<g>
</g>
<g>
</g>
</svg>
