<?xml version="1.0" encoding="iso-8859-1"?>
<!-- Generator: Adobe Illustrator 19.0.0, SVG Export Plug-In . SVG Version: 6.00 Build 0)  -->
<svg xmlns="http://www.w3.org/2000/svg" xmlns:xlink="http://www.w3.org/1999/xlink" version="1.1" id="Capa_1" x="0px" y="0px" viewBox="0 0 511.998 511.998" style="enable-background:new 0 0 511.998 511.998;" xml:space="preserve">
<path style="fill:#7F7369;" d="M331.035,247.003h-45.133c-6.832,0-12.422-5.59-12.422-12.422l-6.211-105.258  c0,0-10.05-87.188,42.079-98.645c0,0,21.195-41.245,89.077-28.031c0.817,0.159,1.769,0.473,4.255,1.288  c96.982,31.597,69.002,134.444,64.979,230.646c0,6.832-5.59,12.422-12.422,12.422h-48.014"/>
<path style="fill:#72655A;" d="M338.883,247.003v-14.771c-4.126-1.823-7.344-3.531-11.076-5.948  c-1.801-1.164-3.577-2.42-5.165-3.637c-36.406-27.91-29.878-68.172-30.631-73.477c0-8.548,0-24.284,0-32.18  c0-0.271,0.013-0.539,0.035-0.805c-0.466-24.803,3.372-76.836,42.822-85.507c0,0,12.989-25.27,51.189-29.912  c-58.319-6.409-76.606,29.821-76.709,29.912c-35.082,7.71-43.64,50.494-42.805,86.374c0.012,0.499,0.025,0.986,0.04,1.46  c0.206,6.639,0.687,10.811,0.687,10.811l6.211,105.258c0,6.832,5.59,12.422,12.422,12.422  C296.835,247.003,326.936,247.003,338.883,247.003z"/>
<path style="fill:#DD9A5E;" d="M228.076,482.84c-0.036-2.101,0.059-4.009,0.195-5.58c1.011-9.035,13.727-122.666,14.509-129.65  c3.554-24.796,1.51-39.427,13.231-53.649c-3.591-4.366-8.716-8.437-12.096-10.501l-0.371-0.092  c-12.571-7.531-23.155-7.845-46.516-14.273l0,0l-23.889-11.435l0,0v-28.535c-19.065,8.43-42.035,8.972-62.293,0.163l0,0  l-0.103,28.49l0,0l0,0l0,0l-23.786,11.317l0,0c-23.211,6.387-33.92,6.728-46.516,14.273l-0.371,0.092  c-14.608,8.914-20.349,21.107-22.306,37.149c-0.863,7.714-6.731,60.148-7.962,71.149l0,0c-10.069,91.424-9.764,84.07-9.764,91.118  c-0.158,11.603,6.96,29.121,28.586,29.121l0,0c4.731,0,225.986,0.006,227.387-0.017C237.838,511.676,227.813,497.842,228.076,482.84  z"/>
<g>
	<path style="fill:#D38D54;" d="M25.792,482.84c-0.104-6.037,0.03-2.704,9.764-91.082c8.589-86.462,6.327-94.633,18.076-109.017   c2.051-2.511,4.466-4.894,7.445-7.203c-1.788,0.567-10.823,1.952-20.636,7.83l-0.371,0.092   c-14.583,8.898-20.345,21.077-22.305,37.149c-0.863,7.708-6.716,60.017-7.962,71.149c-9.772,88.727-9.867,85.062-9.764,91.082   c-0.327,15.296,10.099,29.157,28.586,29.157l0,0h25.754C35.829,511.997,25.467,498.044,25.792,482.84z"/>
	<path style="fill:#D38D54;" d="M136.503,282.145v-46.668c-8.905-0.598-17.351-2.577-25.658-6.188l-0.103,28.49l0,0L136.503,282.145   z"/>
</g>
<path style="fill:#EAB883;" d="M511.788,477.26c-18.19-161.079-17.165-156.533-18.794-164.406  c-2.643-12.781-10.347-22.862-21.043-29.394l-0.371-0.092c-13.235-7.928-22.857-7.603-67.52-19.502  c-1.704-0.772-2.885-3.311-2.885-6.206v-25.297c-20.289,8.848-43.338,8.247-62.293-0.132v25.429c0,2.895-1.18,5.434-2.885,6.206  c-44.366,11.82-54.233,11.543-67.52,19.502l-0.371,0.092c-14.677,8.963-20.35,21.112-22.305,37.149  c-18.37,165.612-17.831,156.128-17.726,162.231c0,0.012,0,0.024,0,0.036c-0.158,11.603,6.96,29.121,28.586,29.121  c52.845,0,198.215,0,226.736,0C502.868,511.997,513.539,497.512,511.788,477.26z"/>
<path style="fill:#D8A373;" d="M253.83,482.876c0-0.012,0-0.024,0-0.036c-0.036-2.101,0.059-4.009,0.195-5.579  c18.163-170.049,17.039-165.198,18.794-173.678c2.594-12.543,9.92-22.337,20.604-29.117c-4.333,1.312-14.21,2.473-24.944,8.903  l-0.371,0.092c-14.677,8.963-20.35,21.112-22.305,37.149c-18.37,165.612-17.831,156.128-17.726,162.231c0,0.012,0,0.024,0,0.036  c-0.158,11.603,6.96,29.121,28.586,29.121c15.942,0,9.81,0,25.754,0C260.79,511.997,253.672,494.479,253.83,482.876z"/>
<path style="fill:#D83D3D;" d="M502.217,391.739c-8.377-74.364-7.914-72.55-9.223-78.885c-2.658-12.852-10.448-22.926-21.043-29.394  c-0.105-0.026-0.477-0.118-0.371-0.092c-13.235-7.928-22.857-7.603-67.52-19.502c-1.704-0.772-2.885-3.311-2.885-6.206v-25.297l0,0  v-0.132c-19.026,8.406-41.933,8.995-62.293,0v0.132l0,0v25.297c0,2.895-1.18,5.434-2.885,6.206  c-44.366,11.82-54.233,11.543-67.52,19.502c-0.105,0.026-0.477,0.118-0.371,0.092c-14.684,8.964-20.391,21.45-22.306,37.149  l-7.96,71.13l50.174,5.264c2.668,0.28,4.652,2.597,4.517,5.276l-5.512,109.717c61.411,0,104.929,0,166.318,0l-5.778-109.293  c-0.154-2.915,2.002-5.441,4.906-5.745L502.217,391.739z"/>
<path style="fill:#A82626;" d="M245.801,320.609l-7.96,71.13l24.943,2.617c8.868-82.188,8.33-82.538,10.034-90.773  c2.593-12.541,9.918-22.336,20.604-29.117c-3.189,1.034-14.211,2.473-24.944,8.903c-0.105,0.026-0.477,0.118-0.371,0.092  C253.506,292.374,247.76,304.549,245.801,320.609z"/>
<path style="fill:#70BBEF;" d="M243.728,283.461c-0.105-0.026-0.477-0.118-0.371-0.092c-12.599-7.547-23.353-7.902-46.352-14.232  l0.022-0.041l-23.888-11.435l-0.173,0.261c-0.001-0.032-0.003-0.063-0.005-0.094l-31.155,29.333l-31.064-29.382l-23.786,11.317l0,0  c-23.211,6.386-33.92,6.728-46.516,14.273l-0.371,0.092c-14.678,8.962-20.35,21.115-22.306,37.149l-7.962,71.149l49.215,5.164  c3.103,0.326,5.41,3.02,5.254,6.137l-5.472,108.938c50.862,0,114.123,0,166.318,0l-5.777-109.279  c-0.155-2.923,2.007-5.455,4.918-5.76l13.155-1.38l5.368-47.967c3.568-24.999,1.516-39.304,13.142-53.535  C252.083,289.376,246.61,285.22,243.728,283.461z"/>
<path style="fill:#4CAEE5;" d="M35.555,391.758c8.589-86.462,6.327-94.633,18.076-109.017c2.051-2.511,4.466-4.894,7.445-7.203  c-1.776,0.56-10.842,1.963-20.636,7.83l-0.371,0.092c-27.15,16.582-20.459,36.182-30.268,108.298l25.455,2.671L35.555,391.758z"/>
<path style="fill:#EAB883;" d="M369.848,301.509c23.268,0,43.677-12.947,55.216-32.413l-21.003-5.229  c-1.704-0.772-2.885-3.311-2.885-6.206v-28.387l0,0v-0.132c-19.147,8.459-42.049,8.944-62.293,0v0.132l0,0v28.387  c0,2.895-1.18,5.434-2.885,6.206l-21.319,5.308C326.227,288.597,346.611,301.509,369.848,301.509z"/>
<path id="SVGCleanerId_0" style="fill:#4C4846;" d="M44.167,124.525c0.312-23.244-7.956-91.016,62.766-118.071  c39.321-15.03,83.147-3.106,109.657,28.454c0.003,0.004,0.007,0.008,0.01,0.012c30.424,36.225,21.098,73.904,22.841,89.605"/>
<g>
	<path id="SVGCleanerId_0_1_" style="fill:#4C4846;" d="M44.167,124.525c0.312-23.244-7.956-91.016,62.766-118.071   c39.321-15.03,83.147-3.106,109.657,28.454c0.003,0.004,0.007,0.008,0.01,0.012c30.424,36.225,21.098,73.904,22.841,89.605"/>
</g>
<path style="fill:#3F3B39;" d="M65.474,78.759c8.165-41.601,42.83-73.941,86.065-78.237c-22.028-2.187-44.167,3.052-62.94,15.276  c-46.073,29.89-43.913,70.124-44.431,108.726h19.47C63.799,98.12,62.92,91.767,65.474,78.759z"/>
<g>
	<path style="fill:#DD9A5E;" d="M244.3,133.256c0,11.253-10.892,20.373-24.328,20.373v-40.744   C233.407,112.885,244.3,122.005,244.3,133.256z"/>
	<path style="fill:#DD9A5E;" d="M39.307,133.256c0,11.253,10.892,20.373,24.329,20.373v-40.744   C50.2,112.885,39.307,122.005,39.307,133.256z"/>
</g>
<g>
	<path style="fill:#D38D54;" d="M219.972,135.317v18.312c18.26,0,29.795-16.136,21.731-29.528   C237.698,130.752,229.474,135.317,219.972,135.317z"/>
	<path style="fill:#D38D54;" d="M41.904,124.101c-1.658,2.753-2.597,5.861-2.597,9.155c0,11.253,10.892,20.373,24.329,20.373   v-18.312C54.133,135.317,45.909,130.752,41.904,124.101z"/>
</g>
<path style="fill:#EDAE6B;" d="M201.938,84.1c-0.17-6.699-6.272-11.672-12.893-10.641c-0.078,0.012-1.49,0.228-1.909,0.29  c-30.142,4.483-60.291,4.723-92.571-0.29c-6.621-1.031-12.723,3.942-12.893,10.641c-0.079,3.16-0.521,6.529-1.401,9.658  c-1.669,5.932-4.879,11.064-9.323,14.909c-3.906,3.385-7.209,4.507-7.312,4.571c0,27.648,0,19.894,0,47.361  c0,23.269,10.271,45.59,29.09,60.829c45.013,36.34,112.029,12.688,125.14-42.748c2.857-12.078,2.107-16.985,2.107-65.443  C210.974,109.873,202.327,99.475,201.938,84.1z"/>
<path style="fill:#DD9A5E;" d="M89.632,178.182c-0.93-7.722-0.612-9.247-0.653-55.572c0-4.334,2.267-7.081,3.87-8.485  c1.925-1.313,3.602-2.801,5.104-4.436c1.783-1.941,3.402-4.221,4.711-6.706c0.086-0.162,0.523-1.03,0.77-1.563  c6.118-13.215,0.632-19.922,8.169-25.79c-5.883-0.589-11.587-1.324-17.037-2.171c-6.621-1.031-12.722,3.942-12.892,10.641  c-0.084,3.219-0.529,6.558-1.401,9.658c-1.662,5.882-4.824,11.016-9.323,14.909c-3.906,3.385-7.209,4.507-7.312,4.571  c0,27.648,0,19.894,0,47.361c0,32.928,20.8,52.936,21,53.306c2.807,2.996,5.211,5.193,8.09,7.524  c9.28,7.493,20.105,12.614,29.858,14.941C122.435,236.259,92.357,200.778,89.632,178.182z"/>
<path style="fill:#4CAEE5;" d="M149.532,343.305v-63.419l-7.726,7.274l-7.726-7.308v63.452c0,4.268,3.459,7.726,7.726,7.726  C146.072,351.031,149.532,347.573,149.532,343.305z"/>
<path style="fill:#DADADA;" d="M173.138,257.661l-31.332,29.5l16.914,17.045c3.23,3.255,8.583,2.938,11.406-0.676l26.901-34.435  L173.138,257.661z"/>
<g>
	<polygon style="fill:#CECCCA;" points="185.167,263.419 173.138,257.661 141.805,287.161 152.998,298.44  "/>
	<path style="fill:#CECCCA;" d="M161.02,305.788c1.415,0.632,2.974,0.811,4.467,0.541L161.02,305.788z"/>
</g>
<path style="fill:#DADADA;" d="M110.742,257.779l31.064,29.382l-16.914,17.045c-3.23,3.255-8.583,2.938-11.406-0.676l-26.901-34.435  L110.742,257.779z"/>
<polygon style="fill:#CECCCA;" points="119.906,287.047 130.613,298.44 141.805,287.161 110.742,257.779 98.007,263.745 "/>
<path style="fill:#D8A373;" d="M364.767,273.401V235.47c-9.264-0.635-18.012-2.85-25.884-6.328c0,10.119,0,17.38,0,28.519  c0,2.895-1.18,5.434-2.885,6.206l-21.319,5.308c5.307,8.927,12.483,16.473,20.943,22.026l22.133-8.139  C357.757,283.061,364.767,279.581,364.767,273.401z"/>
<path style="fill:#F7CF9C;" d="M440.484,135.029c4.399,0.206,7.865,3.827,7.865,8.23v5.911l0,0l0,0  c-0.02,9.984,0.335,16.306-1.152,24.881c-9.52,54.763-72.304,82.687-119.39,52.233c-1.815-1.173-3.593-2.432-5.165-3.637  c-36.471-27.957-29.866-68.084-30.631-73.477v-28.221l0,0v-3.959c0-4.6,3.24-8.533,7.741-9.484  c7.983-1.688,20.883-6.275,32.586-18.729c2.941-3.13,7.958-2.967,10.692,0.345C354.383,102.878,385.047,132.439,440.484,135.029z"/>
<path style="fill:#EAB883;" d="M341.374,216.577c-0.189-0.184-0.371-0.376-0.558-0.563c-0.568-0.565-1.133-1.133-1.684-1.716  c-0.072-0.077-0.144-0.154-0.217-0.231c-0.01-0.01-0.019-0.021-0.028-0.031c-0.051-0.055-0.102-0.109-0.153-0.163  c-0.478-0.51-0.945-1.031-1.405-1.558c-26.551-30.424-17.87-58.964-19.565-81.688v-28.221v-1.953  c-6.878,4.035-13.303,6.056-18.013,7.053c-4.5,0.952-7.741,4.885-7.741,9.484v3.959v28.221c0.706,4.975-6.605,47.933,33.923,75.866  c1.177,0.812,2.709,1.789,2.868,1.888c15.786,9.863,34.913,13.971,54.255,10.765C382.308,237.566,352.52,227.443,341.374,216.577z"/>
<g>
	<path style="fill:#B72C2C;" d="M440.133,272.847l-15.069-3.751c-11.54,19.467-31.948,32.413-55.216,32.413   C369.848,301.509,440.445,372.115,440.133,272.847z"/>
	<path style="fill:#B72C2C;" d="M299.895,272.847l15.069-3.751c11.54,19.467,31.948,32.413,55.216,32.413   C370.18,301.509,299.583,372.115,299.895,272.847z"/>
</g>
<g>
	<path style="fill:#A82626;" d="M336.598,291.623c-12.457,6.632-26.811,9.796-36.003-2.502   c7.315,74.664,69.585,12.389,69.585,12.389C357.893,301.509,346.405,297.897,336.598,291.623z"/>
	<path style="fill:#A82626;" d="M403.43,291.623c12.457,6.632,26.81,9.796,36.003-2.502c-7.315,74.664-69.585,12.389-69.585,12.389   C382.135,301.509,393.622,297.897,403.43,291.623z"/>
</g>
<path style="fill:#996123;" d="M304.134,273.016c-39.356-44.132-112.381-15.847-112.381,42.811v19.804h128.693  C319.203,325.435,325.982,297.048,304.134,273.016z"/>
<path style="fill:#8E551C;" d="M262.425,251.791c-37.304-3.61-69.352,24.939-70.63,61.795c-0.08,2.334-0.026,1.57-0.043,22.045  h12.652v-19.804C204.405,282.766,229.513,255.008,262.425,251.791z"/>
<g>
	<path style="fill:#EFD0A3;" d="M328.156,343.052c0,9.501-9.197,17.202-20.541,17.202v-34.402   C318.959,325.852,328.156,333.552,328.156,343.052z"/>
	<path style="fill:#EFD0A3;" d="M184.043,343.052c0,9.501,9.197,17.202,20.541,17.202v-34.402   C193.239,325.852,184.043,333.552,184.043,343.052z"/>
</g>
<g>
	<path style="fill:#E2BF91;" d="M307.615,345.488v14.766c15.069,0,25.027-13.176,18.532-24.584   C322.845,341.47,315.799,345.488,307.615,345.488z"/>
	<path style="fill:#E2BF91;" d="M186.052,335.67c-6.549,11.504,3.581,24.584,18.532,24.584v-14.766   C196.4,345.488,189.354,341.47,186.052,335.67z"/>
</g>
<path style="fill:#EFD0A3;" d="M343.707,511.997c-5.727-49.42-5.427-49.438-6.445-54.357c-1.742-8.425-6.82-15.067-13.868-19.372  l-0.245-0.06c-8.711-5.218-14.987-4.991-44.498-12.853c-3.258-1.475-1.366-7.811-1.901-23.949  c-12.64,5.601-27.82,5.869-41.053,0.108v19.752c0,1.908-0.778,3.581-1.901,4.09c-29.406,7.834-35.774,7.626-44.498,12.853  l-0.245,0.06c-9.689,5.918-13.414,13.937-14.7,24.483l-5.613,49.246h174.967V511.997z"/>
<path style="fill:#7EBC7E;" d="M343.707,511.997c-5.727-49.42-5.427-49.438-6.445-54.357c-1.742-8.43-6.94-15.14-13.868-19.372  l-0.245-0.06c-8.389-5.025-14.925-5.037-34.855-10.452c-15.553,22.378-48.585,22.384-64.143,0  c-20.102,5.462-26.497,5.445-34.855,10.452l-0.245,0.06c-10.02,6.12-13.462,14.327-14.7,24.483l-5.613,49.246  C189.815,511.997,321.877,511.997,343.707,511.997z"/>
<path style="fill:#5EAA5E;" d="M201.193,433.471c-0.226,0.075-5.943,1.17-11.896,4.736l-0.245,0.06  c-10.207,6.234-13.495,14.599-14.7,24.483l-5.613,49.246h15.453l5.613-56.457C190.895,446.598,193.459,439.562,201.193,433.471z"/>
<path style="fill:#E2BF91;" d="M241.694,441.739l12.017-2.992c3.321-1.504,1.295-7.67,1.901-33.031  c-7.023-0.041-13.889-1.579-19.917-4.203v19.752c0,1.908-0.778,3.581-1.901,4.09l-9.643,2.401l0,0  C228.476,433.979,234.568,438.875,241.694,441.739z"/>
<g>
	<path style="fill:#5EAA5E;" d="M198.32,511.997c4.002,0,11.664,0,15.462,0l0.823-23.711c0.148-4.265-3.189-7.841-7.454-7.989   c-4.251-0.158-7.841,3.188-7.99,7.454L198.32,511.997z"/>
	<path style="fill:#5EAA5E;" d="M314.335,511.997l-0.842-24.246c-0.148-4.266-3.726-7.615-7.99-7.454   c-4.265,0.148-7.602,3.724-7.454,7.989l0.823,23.711C302.375,511.997,310.625,511.997,314.335,511.997z"/>
</g>
<path style="fill:#FCE3BB;" d="M305.001,322.124c-0.795-0.191-1.412-0.395-1.516-0.426l0,0c-4.864-1.555-13.265-6.034-19.992-18.943  c-1.366-2.621-5.152-2.557-6.422,0.113c-6.182,13.003-31.029,31.025-69.058,20.622c-1.683-0.46-3.43,0.769-3.43,2.633v31.176  c0,22.113,14.026,41.369,34.276,48.553c33.459,11.893,68.757-13.018,68.757-48.553v-31.176  C307.617,323.743,306.18,322.636,305.001,322.124z"/>
<path style="fill:#EFD0A3;" d="M230.768,363.988c-0.738-5.689-0.307-7.704-0.43-37.406c-6.818,0.029-14.272-0.889-22.324-3.091  c-1.683-0.46-3.43,0.769-3.43,2.633V357.3c0,33.414,31.65,58.354,64.393,49.885C248.833,401.974,233.494,384.992,230.768,363.988z"/>
<g>
</g>
<g>
</g>
<g>
</g>
<g>
</g>
<g>
</g>
<g>
</g>
<g>
</g>
<g>
</g>
<g>
</g>
<g>
</g>
<g>
</g>
<g>
</g>
<g>
</g>
<g>
</g>
<g>
</g>
</svg>
