<?xml version="1.0" encoding="iso-8859-1"?>
<!-- Generator: Adobe Illustrator 19.0.0, SVG Export Plug-In . SVG Version: 6.00 Build 0)  -->
<svg xmlns="http://www.w3.org/2000/svg" xmlns:xlink="http://www.w3.org/1999/xlink" version="1.1" id="Capa_1" x="0px" y="0px" viewBox="0 0 512 512" style="enable-background:new 0 0 512 512;" xml:space="preserve">
<path style="fill:#EAB883;" d="M282.928,470.733l-9.126-83.012l-6.818-62.023c-1.113-6.76-0.394-20.364-10.633-32.939l0.002-0.002  c-3.427-4.176-8.474-8.225-11.721-10.217l-0.36-0.09c-12.194-7.337-22.472-7.662-45.125-13.942l-15.244-7.334  c-4.841-2.329-7.916-7.231-7.905-12.602l0.031-15.907c-18.649,8.206-40.857,8.603-60.469-0.118l-0.029,14.97  c-0.012,5.945-3.435,11.355-8.802,13.91l-14.427,6.872c-22.57,6.163-32.938,6.467-45.179,13.766l-0.361,0.088  c-3.398,2.065-8.305,5.999-11.761,10.171l0.002,0.002c-10.778,13.129-9.675,28.212-10.762,32.897l-7.061,61.996  c-9.942,88.675-9.637,81.587-9.651,88.426c-0.174,11.191,6.619,28.052,27.293,28.311h-0.003c0.262,0.01,220.375,0.45,220.886,0.432  h-0.002C274.524,504.226,284.559,490.025,282.928,470.733z"/>
<path style="fill:#D8A373;" d="M59.82,504.005c-20.674-0.259-27.467-17.12-27.293-28.311c0.013-6.862-0.255-0.068,9.651-88.426  l7.079-70.996c1.221-7.222,0.44-20.323,10.762-32.897l-0.002-0.002c3.192-3.852,7.668-7.584,11.336-9.903  c-4.223,1.27-13.797,2.374-24.229,8.595l-0.361,0.088c-3.397,2.065-8.305,5.999-11.761,10.171l0.002,0.002  c-10.778,13.129-9.675,28.212-10.762,32.897l-7.061,61.996c-9.942,88.675-9.637,81.587-9.651,88.426  c-0.174,11.191,6.619,28.052,27.293,28.311H34.82c0.554,0.022,8.036,0.022,25.397,0.06C60.082,504.016,59.951,504.01,59.82,504.005  L59.82,504.005z"/>
<path style="fill:#EAB883;" d="M145.687,287.761c21.985,0.043,41.529-7.469,53.929-19.135c-19.655-9.321-14.98-7.104-15.712-7.452  c-4.841-2.329-7.916-7.23-7.905-12.602l0.037-18.907c-18.646,8.205-40.855,8.604-60.469-0.118l-0.035,17.97  c-0.012,5.945-3.435,11.355-8.802,13.91c-1.291,0.605,5.096-2.391-14.896,6.987C104.186,280.13,123.701,287.718,145.687,287.761z"/>
<g>
	<path style="fill:#70BBEF;" d="M273.825,387.927l-0.023-0.206l-6.818-62.023c-1.113-6.76-0.394-20.364-10.633-32.939l0.002-0.002   c-3.427-4.176-8.474-8.225-11.721-10.217l-0.36-0.09c-12.215-7.349-22.703-7.732-44.656-13.825l-0.302,0.267l0,0   c-12.413,11.51-31.815,18.91-53.628,18.867c-21.985-0.043-41.5-7.631-53.854-19.346l0.469-0.116   c-22.57,6.163-32.938,6.467-45.179,13.766l-0.361,0.088c-3.397,2.065-8.305,5.999-11.761,10.171l0.002,0.002   c-10.778,13.129-9.675,28.212-10.762,32.897l-7.061,61.996l45.686,4.855c4.44,0.472,7.73,4.342,7.481,8.801l-5.771,103.151   c47.926,0.094,113.519,0.222,161.44,0.316l-5.505-104.652c-0.195-3.714,2.571-6.923,6.274-7.276L273.825,387.927z"/>
	<path style="fill:#70BBEF;" d="M282.928,470.733l-9.104-82.814l0.001,0.008l-47.041,4.485c-3.703,0.353-6.469,3.562-6.274,7.276   l5.504,104.652c17.908,0.033,29.574,0.053,29.691,0.049h-0.002C274.524,504.226,284.559,490.025,282.928,470.733z"/>
</g>
<path style="fill:#4CAEE5;" d="M42.178,387.268l7.079-70.996c1.221-7.222,0.44-20.323,10.762-32.897l-0.002-0.002  c3.192-3.852,7.668-7.584,11.336-9.903c-4.223,1.27-13.797,2.374-24.229,8.595l-0.361,0.088c-3.397,2.065-8.305,5.999-11.761,10.171  l0.002,0.002c-10.778,13.129-9.675,28.212-10.762,32.897l-7.061,61.996l24.706,2.625L42.178,387.268z"/>
<path style="fill:#D8A373;" d="M140.586,260.392l0.048-24.644c-9.019-0.646-17.496-2.833-25.069-6.201l-0.035,17.97  c-0.012,5.945-3.435,11.355-8.802,13.91c-26.641,12.688-6.734,3.249-14.896,6.987c7.499,7.111,17.648,12.678,29.376,15.978  l13.193-10.903C138.309,270.263,140.576,265.461,140.586,260.392z"/>
<path style="fill:#4C4846;" d="M213.4,35.363C182.553-1.311,112.211-4.874,73.603,40.941c-2.291,3.381-18.29,20.344-21.683,50.249  c-1.132,9.955-0.357,16.283-0.668,36.292l190.365,0.372C257.005,46.828,213.4,35.363,213.4,35.363z"/>
<path style="fill:#3F3B39;" d="M71.896,90.553c5.347-44.198,40.918-78.632,84.925-82.837C104.773,2.305,60.106,38.4,52.45,87.221  c-1.859,11.851-0.861,18.533-1.199,40.26l19.898,0.039C71.342,104.022,70.815,99.49,71.896,90.553z"/>
<g>
	<path style="fill:#EAB883;" d="M245.496,136.742c-0.021,10.923-11.611,19.753-24.654,19.727l0.077-39.549   C233.963,116.946,245.518,125.822,245.496,136.742z"/>
	<path style="fill:#EAB883;" d="M46.516,136.353c-0.021,10.923,11.535,19.798,24.577,19.823l0.077-39.549   C58.127,116.602,46.538,125.432,46.516,136.353z"/>
</g>
<g>
	<path style="fill:#D8A373;" d="M220.874,140.47l-0.031,15.999c13.041,0.026,24.632-8.805,24.653-19.727   c0.006-2.848-0.782-5.554-2.172-8.004C239.358,135.666,230.516,140.489,220.874,140.47z"/>
	<path style="fill:#D8A373;" d="M48.72,128.359c-7.662,13.376,5.565,27.786,22.373,27.819l0.031-15.999   C61.483,140.158,52.661,135.301,48.72,128.359z"/>
</g>
<path style="fill:#F7CF9C;" d="M78.535,113.023c-4.466-0.457-8.364,3.002-8.372,7.491c-0.085,43.371-0.242,44.142,0.222,49.362  c8.281,93.435,151.255,92.093,151.447-6.637c0.026-13.125,0.136-45.954,0.034-45.993l0,0c-0.596-2.819-3.364-5.704-6.153-6.429  c-8.509-2.209-24.08-10.162-34.943-18.93c-4.973-4.015-12.016-4.246-17.247-0.572C150.194,100.677,122.406,117.514,78.535,113.023z"/>
<path style="fill:#EAB883;" d="M123.201,222.092c-34.725-28.235-28.091-63.217-28.026-108.35c-5.268,0.089-10.808-0.121-16.64-0.718  c-4.466-0.457-8.364,3.002-8.372,7.491c0.083,40.881-0.37,42.667,0.222,49.362c3.941,44.432,44.983,75.305,87.924,68.068  C156.305,237.59,134.9,231.574,123.201,222.092z"/>
<path id="SVGCleanerId_0" style="fill:#EAB883;" d="M504.304,471.167c-2.266-20.617-13.668-124.338-15.943-145.036  c-1.113-6.76-0.394-20.364-10.633-32.939l0.002-0.002c-3.427-4.176-8.474-8.225-11.722-10.217l-0.36-0.09  c-12.194-7.337-22.472-7.662-45.125-13.942l-15.244-7.334c-4.841-2.329-7.916-7.231-7.905-12.602l0.031-15.907  c-18.649,8.206-40.857,8.603-60.469-0.118l-0.029,14.97c-0.012,5.945-3.435,11.354-8.802,13.91l-14.427,6.872  c-22.57,6.163-32.938,6.467-45.179,13.766l-0.361,0.088c-3.398,2.065-8.306,5.999-11.761,10.171l0.002,0.002  c-10.778,13.129-9.675,28.212-10.762,32.897l-7.061,61.996c-9.942,88.675-9.637,81.586-9.651,88.426  c-0.174,11.191,6.619,28.052,27.293,28.311h-0.002c0.262,0.01,220.375,0.45,220.886,0.432h-0.002  C495.9,504.659,505.934,490.458,504.304,471.167z"/>
<path style="fill:#D8A373;" d="M281.197,504.438c-20.674-0.259-27.467-17.12-27.293-28.311c0.013-6.862-0.255-0.068,9.651-88.426  l7.079-70.995c1.221-7.222,0.44-20.323,10.762-32.897l-0.002-0.002c3.192-3.852,7.668-7.584,11.336-9.903  c-4.223,1.27-13.797,2.374-24.229,8.595l-0.361,0.088c-3.397,2.065-8.305,5.999-11.761,10.171l0.002,0.002  c-10.778,13.129-9.675,28.212-10.762,32.897l-7.061,61.996c-9.942,88.675-9.637,81.586-9.651,88.426  c-0.174,11.191,6.619,28.052,27.293,28.311h-0.002c0.554,0.022,8.036,0.022,25.397,0.06c-0.135,0-0.266-0.006-0.398-0.011  L281.197,504.438L281.197,504.438z"/>
<path style="fill:#EAB883;" d="M420.991,269.06c-19.655-9.321-14.98-7.104-15.712-7.452c-4.841-2.329-7.916-7.23-7.905-12.602  l0.037-18.907c-18.646,8.205-40.855,8.604-60.469-0.118l-0.035,17.97c-0.012,5.945-3.435,11.355-8.802,13.91  c-1.291,0.605,5.096-2.391-14.896,6.987C340.333,294.572,393.802,294.642,420.991,269.06z"/>
<path id="SVGCleanerId_1" style="fill:#7F7369;" d="M495.201,388.36c-0.761-6.919-6.101-55.5-6.841-62.228  c-1.113-6.76-0.394-20.364-10.633-32.939l0.002-0.002c-3.427-4.176-8.474-8.225-11.721-10.217l-0.36-0.09  c-12.215-7.349-22.703-7.732-44.656-13.825l-0.302,0.267l0,0c-27.356,25.368-80.51,25.1-107.481-0.478l0.469-0.116  c-22.57,6.163-32.938,6.467-45.179,13.766l-0.361,0.088c-3.397,2.065-8.305,5.999-11.761,10.171l0.002,0.002  c-10.778,13.129-9.675,28.212-10.762,32.897l-7.061,61.996l45.686,4.855c4.44,0.472,7.73,4.342,7.481,8.801l-5.771,103.151  c47.926,0.094,113.519,0.222,161.44,0.316l-5.505-104.652c-0.195-3.714,2.571-6.923,6.274-7.276L495.201,388.36z"/>
<g>
	<path id="SVGCleanerId_0_1_" style="fill:#EAB883;" d="M504.304,471.167c-2.266-20.617-13.668-124.338-15.943-145.036   c-1.113-6.76-0.394-20.364-10.633-32.939l0.002-0.002c-3.427-4.176-8.474-8.225-11.722-10.217l-0.36-0.09   c-12.194-7.337-22.472-7.662-45.125-13.942l-15.244-7.334c-4.841-2.329-7.916-7.231-7.905-12.602l0.031-15.907   c-18.649,8.206-40.857,8.603-60.469-0.118l-0.029,14.97c-0.012,5.945-3.435,11.354-8.802,13.91l-14.427,6.872   c-22.57,6.163-32.938,6.467-45.179,13.766l-0.361,0.088c-3.398,2.065-8.306,5.999-11.761,10.171l0.002,0.002   c-10.778,13.129-9.675,28.212-10.762,32.897l-7.061,61.996c-9.942,88.675-9.637,81.586-9.651,88.426   c-0.174,11.191,6.619,28.052,27.293,28.311h-0.002c0.262,0.01,220.375,0.45,220.886,0.432h-0.002   C495.9,504.659,505.934,490.458,504.304,471.167z"/>
</g>
<g>
	<path id="SVGCleanerId_1_1_" style="fill:#7F7369;" d="M495.201,388.36c-0.761-6.919-6.101-55.5-6.841-62.228   c-1.113-6.76-0.394-20.364-10.633-32.939l0.002-0.002c-3.427-4.176-8.474-8.225-11.721-10.217l-0.36-0.09   c-12.215-7.349-22.703-7.732-44.656-13.825l-0.302,0.267l0,0c-27.356,25.368-80.51,25.1-107.481-0.478l0.469-0.116   c-22.57,6.163-32.938,6.467-45.179,13.766l-0.361,0.088c-3.397,2.065-8.305,5.999-11.761,10.171l0.002,0.002   c-10.778,13.129-9.675,28.212-10.762,32.897l-7.061,61.996l45.686,4.855c4.44,0.472,7.73,4.342,7.481,8.801l-5.771,103.151   c47.926,0.094,113.519,0.222,161.44,0.316l-5.505-104.652c-0.195-3.714,2.571-6.923,6.274-7.276L495.201,388.36z"/>
</g>
<path style="fill:#7F7369;" d="M284.241,392.506l-45.037-4.786h-0.657c-9.934,88.601-9.629,81.52-9.643,88.357  c-0.173,11.19,6.619,28.052,27.293,28.311h-0.002c0.061,0.002,11.768,0.027,29.756,0.064l5.771-103.147  C291.97,396.848,288.68,392.978,284.241,392.506z"/>
<path style="fill:#D8A373;" d="M361.961,260.825l0.048-24.644c-9.019-0.646-17.496-2.833-25.069-6.201l-0.035,17.97  c-0.012,5.945-3.435,11.355-8.802,13.91c-26.641,12.688-6.734,3.249-14.896,6.987c7.499,7.111,17.648,12.678,29.376,15.978  l13.193-10.903C359.684,270.696,361.951,265.894,361.961,260.825z"/>
<path style="fill:#4C4846;" d="M434.775,35.797C403.93-0.877,333.587-4.441,294.978,41.374c-2.291,3.381-18.29,20.344-21.683,50.249  c-1.132,9.955-0.357,16.283-0.668,36.292l190.365,0.372C478.38,47.261,434.775,35.797,434.775,35.797z"/>
<path style="fill:#3F3B39;" d="M293.271,90.986c5.347-44.198,40.918-78.632,84.925-82.837  c-52.048-5.411-96.715,30.684-104.372,79.506c-1.859,11.851-0.861,18.533-1.199,40.26l19.898,0.039  C292.717,104.455,292.19,99.923,293.271,90.986z"/>
<g>
	<path style="fill:#EAB883;" d="M466.872,137.176c-0.021,10.923-11.612,19.753-24.654,19.727l0.077-39.549   C455.338,117.379,466.894,126.255,466.872,137.176z"/>
	<path style="fill:#EAB883;" d="M267.892,136.786c-0.021,10.923,11.534,19.798,24.577,19.823l0.077-39.549   C279.503,117.035,267.913,125.866,267.892,136.786z"/>
</g>
<g>
	<path style="fill:#D8A373;" d="M442.25,140.904l-0.031,15.999c13.041,0.026,24.632-8.805,24.653-19.727   c0.006-2.848-0.782-5.554-2.172-8.004C460.733,136.099,451.891,140.922,442.25,140.904z"/>
	<path style="fill:#D8A373;" d="M270.095,128.792c-7.662,13.376,5.565,27.786,22.373,27.819l0.031-15.999   C282.859,140.592,274.036,135.734,270.095,128.792z"/>
</g>
<path style="fill:#F7CF9C;" d="M299.911,113.456c-4.466-0.457-8.364,3.002-8.372,7.491c-0.085,43.371-0.242,44.142,0.222,49.362  c8.281,93.435,151.255,92.093,151.448-6.637c0.026-13.125,0.136-45.954,0.034-45.993l0,0c-0.596-2.819-3.364-5.704-6.153-6.429  c-8.509-2.209-24.08-10.162-34.943-18.93c-4.973-4.015-12.016-4.246-17.247-0.572C371.57,101.11,343.781,117.947,299.911,113.456z"/>
<path style="fill:#EAB883;" d="M344.576,222.525c-34.725-28.235-28.091-63.217-28.026-108.35c-5.268,0.089-10.808-0.121-16.64-0.718  c-4.466-0.457-8.364,3.002-8.372,7.491c0.083,40.881-0.37,42.668,0.222,49.362c3.941,44.432,44.983,75.305,87.924,68.068  C377.681,238.023,356.276,232.007,344.576,222.525z"/>
<path style="fill:#D8A373;" d="M253.99,476.52c-0.035-2.039,0.057-3.891,0.189-5.416c17.63-165.062,16.539-160.353,18.242-168.585  c2.518-12.175,9.629-21.682,20-28.263c-4.206,1.274-13.793,2.4-24.213,8.642l-0.361,0.089c-14.246,8.7-19.753,20.493-21.651,36.059  c-17.83,160.755-17.307,151.549-17.205,157.473c0,0.012,0,0.024,0,0.035c-0.153,11.263,6.756,28.267,27.748,28.267  c15.474,0,9.523,0,24.999,0C263.715,504.822,253.733,491.32,253.99,476.52z"/>
<path style="fill:#A82626;" d="M246.197,319.047l-7.727,69.044l24.211,2.54c8.608-79.778,8.086-80.118,9.74-88.111  c2.517-12.173,9.628-21.681,20-28.263c-3.095,1.003-13.794,2.4-24.213,8.642c-0.102,0.025-0.463,0.114-0.361,0.089  C253.675,291.639,248.097,303.456,246.197,319.047z"/>
<path style="fill:#996123;" d="M302.819,272.849c-38.202-42.838-109.085-15.382-109.085,41.555v19.223h124.919  C317.446,323.73,324.026,296.177,302.819,272.849z"/>
<path style="fill:#8E551C;" d="M262.334,252.245c-36.209-3.504-67.318,24.207-68.558,59.982c-0.077,2.266-0.025,1.524-0.042,21.399  h12.281v-19.223C206.014,282.312,230.386,255.368,262.334,252.245z"/>
<g>
	<path style="fill:#EFD0A3;" d="M326.137,340.831c0,9.223-8.927,16.697-19.939,16.697v-33.393   C317.209,324.135,326.137,331.61,326.137,340.831z"/>
	<path style="fill:#EFD0A3;" d="M186.249,340.831c0,9.223,8.928,16.697,19.939,16.697v-33.393   C195.176,324.135,186.249,331.61,186.249,340.831z"/>
</g>
<g>
	<path style="fill:#E2BF91;" d="M306.198,343.195v14.332c14.627,0,24.293-12.789,17.988-23.863   C320.981,339.295,314.142,343.195,306.198,343.195z"/>
	<path style="fill:#E2BF91;" d="M188.2,333.665c-6.358,11.167,3.476,23.863,17.988,23.863v-14.332   C198.243,343.195,191.405,339.295,188.2,333.665z"/>
</g>
<path style="fill:#EFD0A3;" d="M341.231,504.822c-5.56-47.971-5.268-47.988-6.256-52.763c-1.691-8.178-6.62-14.624-13.461-18.804  l-0.237-0.059c-8.456-5.066-14.547-4.844-43.193-12.475c-3.163-1.432-1.326-7.582-1.845-23.247  c-12.269,5.437-27.004,5.697-39.849,0.105v19.172c0,1.852-0.755,3.476-1.846,3.97c-28.544,7.605-34.725,7.403-43.193,12.475  l-0.237,0.059c-9.406,5.745-13.02,13.528-14.269,23.765l-5.448,47.802L341.231,504.822L341.231,504.822z"/>
<path style="fill:#D83D3D;" d="M341.231,504.822c-5.56-47.971-5.268-47.988-6.256-52.763c-1.691-8.183-6.737-14.696-13.461-18.804  l-0.237-0.059c-8.143-4.878-14.487-4.889-33.833-10.146c-15.096,21.721-47.16,21.728-62.261,0  c-19.512,5.302-25.72,5.285-33.833,10.146l-0.237,0.059c-9.726,5.941-13.067,13.906-14.269,23.765l-5.448,47.802  C191.853,504.822,320.041,504.822,341.231,504.822z"/>
<path style="fill:#B72C2C;" d="M202.896,428.599c-0.219,0.072-5.769,1.136-11.548,4.598l-0.237,0.059  c-9.908,6.052-13.099,14.17-14.269,23.765l-5.448,47.802h14.999l5.448-54.802C192.901,441.34,195.389,434.511,202.896,428.599z"/>
<path style="fill:#E2BF91;" d="M242.21,436.624l11.664-2.904c3.224-1.46,1.257-7.445,1.846-32.063  c-6.817-0.04-13.481-1.533-19.332-4.08v19.172c0,1.852-0.755,3.476-1.846,3.97l-9.361,2.331l0,0  C229.38,429.091,235.293,433.844,242.21,436.624z"/>
<path style="fill:#FCE3BB;" d="M303.661,320.516c-0.772-0.186-1.371-0.384-1.472-0.414l0,0c-4.721-1.509-12.876-5.858-19.406-18.387  c-1.326-2.544-5.001-2.482-6.233,0.11c-6.001,12.621-30.119,30.115-67.033,20.017c-1.633-0.447-3.329,0.746-3.329,2.556v30.262  c0,21.464,13.614,40.156,33.271,47.129c32.479,11.545,66.741-12.636,66.741-47.129v-30.262  C306.2,322.088,304.805,321.013,303.661,320.516z"/>
<path style="fill:#EFD0A3;" d="M231.605,361.153c-0.716-5.522-0.298-7.479-0.418-36.309c-6.618,0.028-13.853-0.863-21.67-3.001  c-1.633-0.447-3.329,0.746-3.329,2.556v30.262c0,32.434,30.722,56.643,62.505,48.422  C249.139,398.025,234.25,381.541,231.605,361.153z"/>
<path d="M91.871,512c4.143,0,7.5-3.357,7.5-7.5c0-4.143-3.357-7.5-7.5-7.5H72.717l7.437-140.664  c0.219-4.136-2.957-7.666-7.094-7.885c-4.132-0.242-7.666,2.956-7.885,7.094l-1.564,29.585l-38.255-4.013  c7.043-62.523,6.73-61.001,7.378-64.988c1.748-9.897,4.242-17.211,15.846-25.863h0.001c1.469-1.09,1.038-0.654,1.911-1.16h0.001  c12.89-7.185,16.989-5.852,39.441-12.151c27.661,22.372,73.801,23.872,104.01,4.664c-8.976,17.077-7.962,30.868-7.969,42.274  c-14.515,13.519-6.808,35.734,13.26,40.086c0.483,2.793,0.82,4.029,1.497,6.488l0,0c3.768,14.151,14.264,27.117,27.897,34.49v9.121  c-23.935,6.315-43.858,7.376-54.397,25.228c-6.273,10.627-4.53,18.033-9.792,57.694h-37.572c-4.143,0-7.5,3.357-7.5,7.5  c0,4.143,3.357,7.5,7.5,7.5c33.276,0,339.032,0,349.746,0c23.764,0,37.862-19.238,35.012-42.051l-2.206-19.707  c-0.46-4.116-4.179-7.091-8.287-6.619c-16.639,1.859,5.338,32.406-10.114,48.07c-7.95,8.062-18.742,4.346-36.561,5.308l-4.869-96.92  l38.671-4.057l2.361,21.094c0.461,4.119,4.19,7.087,8.287,6.619c4.116-0.46,7.08-4.171,6.619-8.287  c-12.327-100.984-8.834-107.199-19.62-123.504v-0.001c-1.668-2.478-3.323-4.375-3.402-4.477l-0.002,0.002  c-0.028-0.033-0.057-0.066-0.084-0.099l0.001-0.001l-0.178-0.211c-4.371-5.166-10.41-9.299-9.926-8.931  c-5.613-4.045-14.301-7.732-19.993-9.187c-3.058-0.761,11.031,2.746-29.78-7.414c-14.049-6.838-14.16-6.516-15.618-7.825  c-4.103-3.687-2.1-8.271-2.622-15.945c24.116-12.345,39.733-34.686,44.104-57.6c0.218-1.728,1.244-3.272,1.723-16.924  c19.492-4.247,29.344-23.412,20.129-38.982c5.969-34.241,2.503-60.599-10.321-78.371c-7.957-11.026-17.22-15.405-21.755-16.988  c-38.592-43.083-116.115-36.157-149.775,7.601c-27.227,32.417-23.924,64.005-23.924,85.856  c-11.161,15.639-1.614,36.419,18.895,40.886c0.493,14.001,1.436,14.707,1.726,16.936c4.408,23.224,20.16,45.212,43.734,57.402  v11.043c0,2.541-1.48,4.892-3.772,5.988l-14.467,6.925l-6.621,1.648c-27.162-25.701-69.206-25.405-96.075-0.016l-6.552-1.631  c-16.606-8.008-16.218-7.623-16.96-8.29c-2.206-1.983-0.914-4.217-1.283-15.666c27.665-14.317,45.052-41.643,45.463-74.341  c19.491-4.247,29.343-23.412,20.129-38.982c5.969-34.242,2.502-60.598-10.321-78.37c-7.956-11.026-17.22-15.406-21.754-16.988  C192.26,1.792,145.087-9.449,102.375,9.43c-3.758,1.743-5.393,6.201-3.65,9.959c1.743,3.759,6.204,5.392,9.959,3.65  c2.862-1.265,6.604-2.953,12.414-4.616v-0.001c30.516-8.719,66.768-0.289,85.561,21.967c1.071,1.268,2.531,2.145,4.154,2.493  c0.343,0.075,32.295,7.737,24.487,69.744c-2.997-1.357-6.274-2.303-9.736-2.744c-2.21-2.956-5.4-5.258-8.844-6.145  c-7.429-1.913-22.12-9.38-32.15-17.444c-7.548-6.069-18.352-6.407-26.27-0.822c-8.769,6.183-35.445,25.003-79.876,20.541  c-4.158-0.413-8.326,0.923-11.466,3.668c-3.169,0.209-6.205,0.835-9.04,1.817c0.025-11.084-0.315-19.685,3.029-32.03  c1.389-3.534,4.636-19.788,20.575-36.817c2.83-3.024,2.672-7.771-0.353-10.601c-3.025-2.831-7.771-2.671-10.601,0.353  c-1.632,1.744-2.498,2.74-3.725,4.189C48.271,58.713,45.611,80.408,44.736,83.089c-2.506,13.114-1.667,20.721-1.815,39.302  c0,0.02,0.003,0.038,0.003,0.058c-2.987,4.186-4.721,9.127-4.721,14.417c0,12.772,10.071,23.519,23.616,26.469  c0.1,0.748-0.78,18.071,8.628,37.048c7.856,15.851,20.613,29.01,37.195,37.468v11.41c0,2.21-1.288,4.254-3.281,5.208l-14.96,7.16  c-23.621,5.881-46.758,8.594-61.497,27.747c-14.268,18.637-8.539,26.409-27.581,180.573C-2.272,492.929,11.456,512,35.333,512  C42.198,512,86.026,512,91.871,512z M106.367,270.139l4.472-2.141c14.534-6.955,11.435-22.644,11.805-24.315  c14.1,3.607,22.823,3.094,22.723,3.094c0.125,0,0.472-0.003,0.363-0.002c7.824,0,15.03-1.148,22.38-3.194  c0.463,3.645-2.061,12.804,5.74,20.406c1.44,1.404,3.105,2.595,4.968,3.486c0.101,0.048,5.663,2.711,5.373,2.572  C161.835,283.256,128.763,283.277,106.367,270.139z M389.305,243.683c0,0.333,0,4.473,0,4.27c0,16.827,15.599,21.627,16.276,22.186  c-10.779,6.324-24.376,9.827-38.829,9.827c-14.533,0-28.19-3.537-38.993-9.921c1.452-1.03,12.372-3.825,15.436-16.177  c0.971-3.912,0.536-6.254,0.644-10.288C358.81,247.831,374.761,247.794,389.305,243.683z M312.526,497.002l-0.888-16.187  c-0.227-4.136-3.775-7.29-7.899-7.077c-4.136,0.227-7.305,3.764-7.077,7.899l0.843,15.365h-82.698l0.843-15.365  c0.228-4.136-2.941-7.673-7.077-7.899c-4.156-0.238-7.673,2.94-7.899,7.077l-0.888,16.187h-20.166  c2.603-23.138,4.883-44.405,5.122-43.763c4.339-18.523,24.061-17.608,37.299-22.057c18.069,20.439,49.915,20.452,68.001,0.029  c20.229,5.275,35.31,5.466,37.871,26.323l4.417,39.469L312.526,497.002L312.526,497.002z M268.319,410.504  c0.011,5.155-0.987,11.74,4.701,15.829c-10.358,6.978-23.773,6.897-34.018-0.055c2.252-1.441,4.626-5.185,4.626-9.848v-5.908  C251.472,412.239,260.059,412.324,268.319,410.504z M313.44,333.232c6.576,3.748,6.577,10.809,0,14.557V333.232z M291.576,377.511  c-7.867,12.068-19.275,16.066-19.173,16.02c-9.89,4.197-21.942,4.674-33.306-0.162l-0.001-0.001c-0.101-0.045-1.302-0.578-1.2-0.533  c-11.215-5.244-17.061-14.399-15.892-12.891c-5.041-6.651-6.18-11.845-7.4-15.647h-0.001c-1.568-7.213-1.139-6.881-1.174-34.063  c32.939,6.817,55.887-6.414,65.924-19.528c6.659,9.805,14.239,14.017,19.086,15.804  C297.692,354.554,301.196,361.479,291.576,377.511z M198.43,333.232v14.545C191.726,343.937,192.019,336.879,198.43,333.232z   M448.337,385.131l-1.564-29.585c-0.218-4.138-3.776-7.337-7.885-7.094c-4.137,0.219-7.313,3.749-7.094,7.885l7.437,140.664h-91.565  c-3.442-28.743-4.035-38.138-5.613-46.816c-3.033-14.598-14.684-25.126-28.868-28.711l-29.707-7.396v-9.21  c15.698-8.557,26.427-23.935,29.234-40.884c19.854-4.369,27.878-26.386,13.261-40.08c-0.654-4.941,2.724-21.76-7.986-42.296  c30.509,19.41,76.628,17.507,104.027-4.653c23.631,5.883,50.327,8.984,56.34,34.767c1.354,5.612,1.593,10.465,8.238,69.396  L448.337,385.131z M450.132,147.679c-0.001-4.439,0.002,11.313-0.003-21.624C461.586,130.778,461.59,142.952,450.132,147.679z   M282.615,79.082c15.086-54.746,68.089-62.519,68.189-62.571c27.483-5.044,59.58,2.758,77.415,23.878  c1.114,1.319,2.363,2.154,4.061,2.473c1.398,0.34,32.29,8.627,24.583,69.766c-2.997-1.357-6.274-2.303-9.737-2.745  c-2.21-2.956-5.401-5.258-8.845-6.145c-7.43-1.914-22.12-9.38-32.15-17.445c-7.547-6.066-18.349-6.407-26.27-0.821  c-8.769,6.183-35.446,25.003-79.876,20.541c-4.166-0.413-8.327,0.923-11.467,3.668c-3.168,0.209-6.204,0.835-9.039,1.817  C279.857,103.536,278.228,96.395,282.615,79.082z M283.38,126.054v21.626C271.92,142.955,271.918,130.78,283.38,126.054z   M316.315,209.557c-22.216-24.324-17.55-46.06-17.936-88.583c0.021-0.03,0.056-0.039,0.082-0.039  c0.012-0.001,0.021,0.003,0.026,0.002c33.638,3.375,63.086-4.215,90.017-23.209c2.479-1.751,5.865-1.646,8.227,0.254  c12.029,9.674,28.584,17.876,37.709,20.255c0.196,0.105,0.476,0.368,0.664,0.608c0.491,49.017,0.156,55.311-3.139,65.159  c-1.675,4.011-3.202,12.135-13.972,24.668c-7.834,8.944-15.008,12.63-19.879,15.512l0.001,0.001  c-16.426,8.233-34.164,9.56-49.255,5.228c-0.101-0.029-1.899-0.548-1.786-0.515c-5.875-1.67-11.507-4.636-11.694-4.721l0.001-0.001  C324.446,219.129,315.166,208.302,316.315,209.557z M292.343,272.918L292.343,272.918l0.083,0.073l0,0  c13.269,11.801,16.353,26.228,16.556,26.684c2.404,8.855,1.817,15.666,1.911,17.02c-2.52-3.1-5.491-3.677-6.68-4.055  c-3.305-1.057-9.653-4.374-15.039-14.711c-4.199-8.054-15.777-7.803-19.657,0.356c-4.385,9.223-24.403,25.27-58.281,16.003  c-3.262-0.889-6.808-0.157-9.515,2.313c-0.251,0.034-0.498,0.078-0.747,0.118c0.02-4.944,0.059-5.113,0.055-5.012  c0.396-9.334,3.157-18.222,7.714-25.804h-0.001C227.275,255.574,267.159,250.65,292.343,272.918z M228.573,147.679  c-0.001-4.439,0.002,11.313-0.003-21.624C240.028,130.78,240.029,142.953,228.573,147.679z M61.82,126.054v21.627  C50.36,142.955,50.358,130.78,61.82,126.054z M99.44,214.219c-15.16-13.677-22.62-32.528-22.62-50.811c0-0.103,0-6.869,0-6.767  v-35.669c0.021-0.03,0.055-0.038,0.081-0.038c0.013,0,0.026,0.003,0.026,0.003c33.645,3.374,63.087-4.216,90.018-23.21  c2.479-1.749,5.864-1.646,8.227,0.254c12.031,9.675,28.586,17.876,37.709,20.255c0.197,0.105,0.477,0.368,0.665,0.609  c0.384,40.411,1.315,55.577-5.074,70.502c-0.338,0.605-4.661,13.298-17.524,24.876c-1.453,1.114-3.64,3.898-14.392,9.961h0.001  C131.742,246.227,100.133,214.534,99.44,214.219z M15.239,471.522l8.449-75.498l38.67,4.057l-4.869,96.92  c-17.736-0.957-28.611,2.753-36.56-5.307C15.645,486.337,14.607,478.989,15.239,471.522z"/>
<g>
</g>
<g>
</g>
<g>
</g>
<g>
</g>
<g>
</g>
<g>
</g>
<g>
</g>
<g>
</g>
<g>
</g>
<g>
</g>
<g>
</g>
<g>
</g>
<g>
</g>
<g>
</g>
<g>
</g>
</svg>
