<?xml version="1.0" encoding="iso-8859-1"?>
<!-- Generator: Adobe Illustrator 19.0.0, SVG Export Plug-In . SVG Version: 6.00 Build 0)  -->
<svg xmlns="http://www.w3.org/2000/svg" xmlns:xlink="http://www.w3.org/1999/xlink" version="1.1" id="Capa_1" x="0px" y="0px" viewBox="0 0 512.002 512.002" style="enable-background:new 0 0 512.002 512.002;" xml:space="preserve">
<path style="fill:#7F7369;" d="M331.017,247.056h-45.124c-6.831,0-12.419-5.589-12.419-12.419l-6.21-105.238  c0,0-10.049-87.171,42.071-98.626c0,0,21.191-41.237,89.06-28.027c0.928,0.181,1.82,0.514,2.72,0.793  c27.879,8.648,49.887,28.383,62.027,52.87c16.356,33.011,11.016,57.515,4.473,178.228c0,6.831-5.588,12.419-12.419,12.419H338.863"/>
<path style="fill:#72655A;" d="M338.863,247.056v-14.768c-27.875-12.318-45.539-38.866-46.789-68.197  c-0.094-2.165-0.107-47-0.038-47.829c-0.466-24.798,3.372-76.822,42.814-85.49c0,0,12.987-25.265,51.18-29.906  c-34.328-3.773-58.861,7.417-72.411,23.776c-3.005,3.628-4.213,6.026-4.283,6.13c-35.511,7.804-43.89,51.63-42.757,87.817  c0.005,0.151,6.889,115.93,6.896,116.047c0,6.831,5.589,12.419,12.419,12.419C296.823,247.056,326.919,247.056,338.863,247.056z"/>
<path style="fill:#DD9A5E;" d="M228.272,477.27c1.011-9.033,13.724-122.643,14.506-129.626c3.549-24.625,1.476-39.379,13.228-53.638  c-3.591-4.365-8.714-8.436-12.094-10.5l-0.371-0.092c-12.569-7.529-23.151-7.844-46.507-14.27l0,0l-23.884-11.433l0,0v-28.528  c-18.852,8.336-41.833,9.055-62.281,0.163l0,0l-0.103,28.484l0,0l0,0l0,0l-23.781,11.315l0,0  c-23.206,6.385-33.914,6.726-46.507,14.27l-0.371,0.092c-4.86,2.966-10.668,7.99-14.605,13.87  c-8.422,12.578-7.321,19.917-15.657,94.406l0,0c-10.067,91.407-9.762,84.05-9.762,91.101C-0.076,494.485,7.041,512,28.662,512  c1.412,0,225.956,0.006,227.344-0.017C239.444,511.707,226.313,499.908,228.272,477.27z"/>
<g>
	<path style="fill:#D38D54;" d="M26.026,477.27l9.567-85.486c8.536-85.926,6.856-92.593,15.657-105.736   c2.718-4.058,5.996-7.467,9.859-10.462c-1.788,0.567-10.821,1.952-20.631,7.829l-0.371,0.092   c-14.629,8.927-20.356,21.196-22.301,37.141C-1.538,493.487,0.082,477.356,0.082,482.885c-0.157,11.601,6.959,29.115,28.58,29.115   c15.938,0,9.809,0,25.749,0C34.906,512.001,24.283,497.465,26.026,477.27z"/>
	<path style="fill:#D38D54;" d="M136.521,282.192v-46.659c-8.776-0.589-17.235-2.528-25.653-6.186l-0.103,28.484l0,0   L136.521,282.192z"/>
</g>
<path style="fill:#EAB883;" d="M494.208,320.649c-1.855-15.208-7.212-27.928-22.301-37.141l-0.371-0.092  c-13.233-7.927-22.852-7.602-67.508-19.499c-1.704-0.772-2.885-3.311-2.885-6.204v-25.292c-19.918,8.686-42.955,8.412-62.281-0.132  v25.424c0,2.895-1.18,5.432-2.884,6.204c-44.358,11.818-54.222,11.541-67.508,19.499l-0.371,0.092  c-15.198,9.281-20.466,22.09-22.301,37.141c-18.367,165.581-17.828,156.099-17.723,162.2c-0.268,15.426,10.165,29.151,28.58,29.151  c47.727,0,177.31,0,226.693,0c18.819,0,28.967-14.335,28.58-29.151C512.036,476.755,512.504,485.586,494.208,320.649z"/>
<path style="fill:#D8A373;" d="M253.826,482.849c-0.102-5.941-0.442,1.771,17.723-171.47c1.873-15.364,7.107-27.502,21.863-36.865  c-4.332,1.312-14.207,2.473-24.94,8.901l-0.371,0.092c-15.198,9.281-20.466,22.091-22.301,37.141  c-18.371,166.651-17.723,154.153-17.723,162.236c-0.158,11.601,6.959,29.115,28.58,29.115c15.938,0,9.809,0,25.749,0  C263.731,512.001,253.665,498.09,253.826,482.849z"/>
<path style="fill:#7EBC7E;" d="M502.167,391.766c-8.265-73.367-7.908-72.516-9.221-78.87c-2.658-12.849-10.446-22.921-21.039-29.388  c-0.105-0.026-0.477-0.118-0.371-0.092c-13.232-7.927-22.852-7.602-67.508-19.499c-1.704-0.772-2.885-3.311-2.885-6.204V232.42l0,0  v-0.132c-19.564,8.644-42.457,8.759-62.281,0v0.132l0,0v25.292c0,2.895-1.18,5.432-2.884,6.204  c-44.358,11.818-54.222,11.541-67.508,19.499c-0.105,0.026-0.477,0.118-0.371,0.092c-14.349,8.76-20.337,21.031-22.301,37.141  l-7.958,71.116l50.165,5.263c2.668,0.28,4.65,2.597,4.516,5.275L287.011,512c61.405,0,104.907,0,166.287,0l-5.776-109.272  c-0.154-2.915,2.002-5.439,4.904-5.744L502.167,391.766z"/>
<path style="fill:#5EAA5E;" d="M237.841,391.766l24.938,2.617c8.866-82.173,8.329-82.523,10.033-90.757  c2.593-12.539,9.917-22.332,20.6-29.111c-3.189,1.034-14.208,2.473-24.94,8.901c-0.105,0.026-0.477,0.118-0.371,0.092  c-10.534,6.43-18.363,16.447-21.038,29.388C245.447,320.701,245.752,322.405,237.841,391.766z"/>
<path style="fill:#D83D3D;" d="M243.726,283.507c-0.105-0.026-0.477-0.118-0.371-0.092c-12.596-7.546-23.348-7.9-46.343-14.229  l0.022-0.041l-23.884-11.433l-0.173,0.261c-0.001-0.032-0.003-0.063-0.005-0.094l-31.149,29.327l-31.058-29.376l-23.781,11.315l0,0  c-23.206,6.385-33.914,6.726-46.507,14.27l-0.371,0.092c-14.675,8.96-20.346,21.111-22.301,37.141l-7.961,71.135l49.206,5.162  c3.103,0.326,5.409,3.02,5.252,6.135L58.83,511.999c19.093,0,148.533,0,166.287,0L219.34,402.74  c-0.155-2.923,2.007-5.453,4.917-5.759l13.152-1.38l5.367-47.958c3.59-25.292,1.541-39.327,13.139-53.525  C253.355,290.982,246.52,285.214,243.726,283.507z"/>
<path style="fill:#B72C2C;" d="M35.592,391.785c8.818-88.762,6.628-94.984,18.073-108.997c2.051-2.511,4.465-4.893,7.444-7.201  c-2.339,0.664-11.129,2.136-20.631,7.829l-0.371,0.092c-6.556,4.005-12.497,9.842-16.374,16.779  c-7.343,13.141-5.111,21.344-13.888,91.499l25.451,2.671L35.592,391.785z"/>
<path style="fill:#EAB883;" d="M425.028,269.145l-20.999-5.228c-1.704-0.772-2.885-3.311-2.885-6.204v-28.382l0,0v-0.132  c-19.564,8.644-42.457,8.759-62.281,0v0.132l0,0v28.382c0,2.895-1.18,5.432-2.884,6.204l-21.315,5.306  C340.281,312.31,399.43,312.327,425.028,269.145z"/>
<path id="SVGCleanerId_0" style="fill:#4C4846;" d="M44.203,124.602c0.026-28.431-0.066-27.281,0.096-31.055  c3.251-76.659,90.07-119.958,153.335-75.886c42.55,29.707,41.769,66.482,41.806,106.94"/>
<g>
	<path id="SVGCleanerId_0_1_" style="fill:#4C4846;" d="M44.203,124.602c0.026-28.431-0.066-27.281,0.096-31.055   c3.251-76.659,90.07-119.958,153.335-75.886c42.55,29.707,41.769,66.482,41.806,106.94"/>
</g>
<path style="fill:#3F3B39;" d="M151.554,0.623C95.497-4.943,46.219,37.804,44.268,94.355c-0.121,3.525-0.04,2.711-0.065,30.247  h19.466V97.756C63.669,47.572,101.784,5.568,151.554,0.623z"/>
<g>
	<path style="fill:#DD9A5E;" d="M244.298,133.331c0,11.251-10.891,20.369-24.324,20.369v-40.736   C233.407,112.964,244.298,122.082,244.298,133.331z"/>
	<path style="fill:#DD9A5E;" d="M39.344,133.331c0,11.251,10.891,20.369,24.325,20.369v-40.736   C50.235,112.964,39.344,122.082,39.344,133.331z"/>
</g>
<g>
	<path style="fill:#D38D54;" d="M219.974,135.392v18.309c18.257,0,29.789-16.133,21.727-29.522   C237.698,130.828,229.475,135.392,219.974,135.392z"/>
	<path style="fill:#D38D54;" d="M41.941,124.178C33.87,137.582,45.449,153.7,63.669,153.7v-18.309   C54.167,135.392,45.944,130.828,41.941,124.178z"/>
</g>
<path style="fill:#EDAE6B;" d="M212.661,108.744c-7.064-6.122-10.355-14.692-10.693-24.08c-0.285-7.833-6.501-12.109-13.472-11.032  c-32.086,4.929-62.805,4.745-93.904-0.085c-6.154-0.959-12.633,3.25-12.913,11.119c-0.226,6.2-1.721,12.16-4.963,17.363  c-4.837,7.795-10.985,10.101-13.045,11.291c0,49.061-0.982,55.715,3.32,69.96c13.8,45.761,65.243,68.238,108.001,48.175  c24.848-11.665,42.477-35.943,44.732-64.538c0.355-4.481,0.256-2.59,0.256-53.597C219.605,113.131,216.499,112.065,212.661,108.744z  "/>
<path style="fill:#DD9A5E;" d="M94.465,198.274c-0.78-2.121-1.792-5.256-2.638-8.561c-4.019-15.713-2.798-24.826-2.822-67.027  c0-7.591,5.11-8.055,10.243-14.394c5.281-6.513,7.596-14.77,7.79-23.287c0.091-3.877,1.907-7.203,4.586-9.29  c-5.602-0.561-11.337-1.286-17.034-2.171c-6.62-1.031-12.72,3.942-12.89,10.639c-0.214,8.208-2.662,15.966-8.144,22.034  c-4.544,5.037-8.903,6.529-9.889,7.099c0,48.65-2.07,61.518,8.084,82.01c5.741,11.584,12.428,17.967,12.911,18.638l0.001,0.001  c10.917,11.652,24.784,19.322,37.941,22.46C121.165,235.349,100.895,215.75,94.465,198.274z"/>
<path style="fill:#B72C2C;" d="M149.547,343.341v-63.406l-7.725,7.273l-7.725-7.307v63.44c0,4.266,3.459,7.725,7.725,7.725  C146.089,351.066,149.547,347.607,149.547,343.341z"/>
<path style="fill:#DADADA;" d="M173.15,257.713l-31.326,29.494l16.911,17.042c3.23,3.255,8.581,2.938,11.404-0.676l26.896-34.429  L173.15,257.713z"/>
<g>
	<polygon style="fill:#CECCCA;" points="185.176,263.469 173.15,257.713 141.822,287.208 153.013,298.484  "/>
	<path style="fill:#CECCCA;" d="M161.033,305.83c1.415,0.632,2.974,0.811,4.465,0.541L161.033,305.83z"/>
</g>
<path style="fill:#DADADA;" d="M110.765,257.83l31.058,29.376l-16.911,17.042c-3.23,3.255-8.581,2.938-11.404-0.676l-26.896-34.429  L110.765,257.83z"/>
<polygon style="fill:#CECCCA;" points="119.928,287.094 130.633,298.484 141.822,287.208 110.765,257.83 98.033,263.795 "/>
<path style="fill:#D8A373;" d="M364.743,273.449v-37.924c-9.262-0.635-18.009-2.85-25.879-6.326  c-0.783,22.52,2.041,32.487-2.884,34.719l-21.315,5.306c5.306,8.925,12.48,16.47,20.938,22.021l22.129-8.137  C357.734,283.107,364.743,279.628,364.743,273.449z"/>
<path style="fill:#F7CF9C;" d="M440.446,135.104c4.397,0.205,7.863,3.827,7.863,8.229v5.91l0,0l0,0  c-0.021,10.893,3.525,45.127-28.197,71.526c-36.214,30.148-91.391,21.518-116.464-19.028  c-15.316-24.747-11.594-46.485-11.648-80.715l0,0v-3.959c0-4.598,3.24-8.531,7.739-9.483c7.982-1.688,20.879-6.273,32.579-18.726  c2.941-3.13,7.956-2.967,10.69,0.345C354.36,102.959,385.018,132.514,440.446,135.104z"/>
<path style="fill:#EAB883;" d="M317.816,163.75c-0.093-2.404-0.066,3.082-0.066-63.216c-6.876,4.034-13.3,6.055-18.01,7.051  c-4.499,0.952-7.739,4.883-7.739,9.483v3.959c0.059,37.292-3.16,56.792,11.648,80.715c15.971,25.846,46.641,41.429,79.381,36.004  C347.241,231.813,319.316,201.419,317.816,163.75z"/>
<g>
	<path style="fill:#5EAA5E;" d="M440.094,272.895l-15.066-3.751c-11.538,19.463-31.942,32.407-55.206,32.407   C369.822,301.553,440.406,372.145,440.094,272.895z"/>
	<path style="fill:#5EAA5E;" d="M299.883,272.895l15.066-3.751c11.538,19.463,31.942,32.407,55.206,32.407   C370.154,301.553,299.571,372.145,299.883,272.895z"/>
</g>
<g>
	<path style="fill:#4E9B4E;" d="M336.578,291.668c-12.454,6.631-26.806,9.794-35.997-2.502c7.313,74.65,69.572,12.386,69.572,12.386   C357.87,301.553,346.384,297.94,336.578,291.668z"/>
	<path style="fill:#4E9B4E;" d="M403.397,291.668c12.454,6.631,26.806,9.794,35.997-2.502c-7.313,74.65-69.572,12.386-69.572,12.386   C382.107,301.553,393.592,297.94,403.397,291.668z"/>
</g>
<path style="fill:#70BBEF;" d="M263.819,314.178c-0.181-0.057-0.36-0.12-0.542-0.176c-50.157-15.51-102.452,17.476-110.112,69.24  c-1.932,13.043-0.388,22.107-0.937,78.163c0,10.459,0,39.881,0,50.596h171.41c0.001-4.353,0.047-116.787-0.099-120.03  C321.911,355.773,297.693,324.904,263.819,314.178z"/>
<path style="fill:#4CAEE5;" d="M178.017,390.908c2.302-40.009,32.317-73.756,72.733-79.754  c-48.624-7.042-90.867,26.69-97.585,72.088c-1.932,13.043-0.388,22.107-0.937,78.163c0,10.459,0,39.881,0,50.596h25.633  C177.861,384.257,177.796,394.752,178.017,390.908z"/>
<g>
	<path style="fill:#8CD2F9;" d="M182.186,473.156c-0.251-4.258,2.999-7.915,7.257-8.165c59.212-3.485,76.592-37.874,77.302-39.337   c1.858-3.82,6.461-5.445,10.291-3.615c3.832,1.832,5.476,6.39,3.67,10.234c-0.846,1.799-21.501,44.09-90.356,48.142   C186.094,480.664,182.437,477.417,182.186,473.156z"/>
	<path style="fill:#8CD2F9;" d="M323.638,411.975c-1.161,1.706-28.74,68.005-122.75,100.026h39.84   c32.723-16.551,62.063-40.229,82.911-69.688v-30.337H323.638z"/>
	<path style="fill:#8CD2F9;" d="M323.638,465.96c-6.816,8.581-21.679,25.723-45.978,46.042h23.495   c9.168-8.355,16.617-15.916,22.483-22.302C323.638,480.766,323.638,471.089,323.638,465.96z"/>
</g>
<g>
	<path style="fill:#EFD0A3;" d="M286.865,376.437c6.025,14.094,6.313,30.634,0,45.412c13.424-1.269,23.865-10.949,23.865-22.706   S300.289,377.705,286.865,376.437z"/>
	<path style="fill:#EFD0A3;" d="M189.002,376.437c-13.424,1.269-23.865,10.949-23.865,22.706c0,11.759,10.441,21.437,23.865,22.706   C182.862,407.48,182.802,390.937,189.002,376.437z"/>
</g>
<g>
	<path style="fill:#E2BF91;" d="M291.344,403.063c-0.446,6.649-1.998,12.978-4.478,18.786c17.954-1.697,28.764-17.716,21.688-31.718   C305.405,396.359,299.097,401.156,291.344,403.063z"/>
	<path style="fill:#E2BF91;" d="M167.313,390.131c-7.123,14.094,3.855,30.032,21.688,31.718c-2.481-5.807-4.034-12.137-4.478-18.786   C176.769,401.156,170.461,396.359,167.313,390.131z"/>
</g>
<path style="fill:#FCE3BB;" d="M264.962,350.923L264.962,350.923c-16.667-10.186-37.383-10.191-54.058,0l0,0  c-49.172,33.106-24.129,104.083,27.03,104.083c29.579,0,53.557-25.011,53.557-55.862  C291.491,365.579,265.065,351.027,264.962,350.923z"/>
<path style="fill:#EFD0A3;" d="M273.766,440.655c-41.581,10.276-79.064-31.23-66.052-72.543c1.757-5.538,3.913-9.204,4.032-9.474  l0,0c2.455-4.507,5.571-8.663,9.301-12.316c-3.573,0.998-7.005,2.684-10.142,4.6l0,0c-6.66,4.484-11.462,8.21-16.807,16.144  c-15.185,22.531-12.428,53.494,7.105,72.712C221.66,459.003,252.536,460.604,273.766,440.655z"/>
<path style="fill:#DD9A5E;" d="M288.28,380.077c-7.178-20.634-22.817-28.65-23.317-29.155l0,0  c-16.666-10.186-37.382-10.191-54.058,0l0,0c-6.868,4.624-14.06,10.219-19.966,21.44c15.834,19.642,43.781,23.167,63.835,9.195  c2.429-1.691,5.637-1.723,8.135-0.134c4.121,2.621,9.151,3.899,14.444,3.254C281.464,384.176,285.209,382.525,288.28,380.077z"/>
<path style="fill:#CE874D;" d="M205.128,384.216c0.061-5.326,0.906-10.77,2.586-16.103c1.757-5.538,3.913-9.204,4.032-9.474l0,0  c2.455-4.507,5.571-8.663,9.301-12.316c-3.56,0.995-7.362,2.903-10.142,4.6l0,0c-6.868,4.624-14.06,10.219-19.966,21.44  C194.838,377.199,199.669,381.226,205.128,384.216z"/>
<g>
</g>
<g>
</g>
<g>
</g>
<g>
</g>
<g>
</g>
<g>
</g>
<g>
</g>
<g>
</g>
<g>
</g>
<g>
</g>
<g>
</g>
<g>
</g>
<g>
</g>
<g>
</g>
<g>
</g>
</svg>
