<?xml version="1.0" encoding="iso-8859-1"?>
<!-- Generator: Adobe Illustrator 19.0.0, SVG Export Plug-In . SVG Version: 6.00 Build 0)  -->
<svg xmlns="http://www.w3.org/2000/svg" xmlns:xlink="http://www.w3.org/1999/xlink" version="1.1" id="Capa_1" x="0px" y="0px" viewBox="0 0 512.001 512.001" style="enable-background:new 0 0 512.001 512.001;" xml:space="preserve">
<path style="fill:#EAB883;" d="M283.705,476.929l-9.388-85.407l-7.015-63.812c-1.145-6.956-0.405-20.952-10.939-33.889l0.002-0.002  c-3.526-4.297-8.718-8.462-12.06-10.511l-0.371-0.092c-12.547-7.549-23.12-7.883-46.426-14.345l-15.684-7.546  c-4.981-2.397-8.144-7.439-8.133-12.966l0.032-16.366c-19.187,8.443-42.036,8.851-62.214-0.122l-0.03,15.402  c-0.012,6.116-3.534,11.682-9.055,14.312l-14.843,7.07c-23.221,6.34-33.889,6.654-46.482,14.163l-0.371,0.091  c-3.496,2.124-8.545,6.171-12.101,10.463l0.002,0.002c-11.088,13.509-9.953,29.027-11.071,33.846l-7.265,63.784  C0.06,482.238,0.373,474.946,0.36,481.983c-0.178,11.513,6.81,28.861,28.08,29.128h-0.002c0.269,0.01,226.732,0.463,227.259,0.445  h-0.002C275.058,511.387,285.382,496.777,283.705,476.929z"/>
<path style="fill:#D8A373;" d="M54.16,511.16c-21.271-0.266-28.258-17.614-28.08-29.128c0.014-7.06-0.263-0.07,9.929-90.977  l7.283-73.043c1.255-7.43,0.453-20.909,11.071-33.846l-0.002-0.002c3.284-3.963,7.889-7.803,11.663-10.188  c-4.344,1.306-14.195,2.443-24.929,8.842l-0.371,0.091c-3.496,2.124-8.545,6.171-12.101,10.463l0.002,0.002  c-11.088,13.509-9.953,29.027-11.071,33.846l-7.265,63.784C0.06,482.238,0.373,474.945,0.36,481.982  c-0.178,11.513,6.81,28.861,28.08,29.128h-0.002c0.57,0.022,8.268,0.023,26.13,0.062C54.429,511.171,54.294,511.165,54.16,511.16  L54.16,511.16z"/>
<path style="fill:#EAB883;" d="M142.503,288.678c22.619,0.044,42.728-7.684,55.485-19.687c-20.222-9.59-15.412-7.309-16.166-7.667  c-4.981-2.397-8.144-7.439-8.133-12.966l0.038-19.452c-19.184,8.441-42.033,8.852-62.214-0.122l-0.036,18.489  c-0.012,6.116-3.534,11.682-9.055,14.312c-1.328,0.623,5.243-2.46-15.325,7.189C99.806,280.828,119.883,288.634,142.503,288.678z"/>
<path style="fill:#70BBEF;" d="M274.339,391.733l-0.023-0.211l-7.015-63.812c-1.145-6.956-0.405-20.952-10.939-33.889l0.002-0.002  c-3.526-4.297-8.718-8.462-12.06-10.511l-0.371-0.092c-12.568-7.561-23.358-7.955-45.944-14.224l-0.31,0.275l0,0  c-12.771,11.843-32.732,19.455-55.175,19.411c-22.619-0.044-42.698-7.851-55.407-19.903l0.482-0.119  c-23.221,6.34-33.889,6.654-46.482,14.163l-0.371,0.091c-3.496,2.124-8.545,6.171-12.101,10.463l0.002,0.002  c-11.088,13.509-9.953,29.027-11.071,33.846l-7.265,63.784l47.004,4.995c4.568,0.485,7.953,4.468,7.697,9.054l-5.937,106.126  c49.309,0.096,116.794,0.228,166.098,0.325l-5.663-107.672c-0.201-3.822,2.646-7.123,6.454-7.486L274.339,391.733z"/>
<path style="fill:#4CAEE5;" d="M36.009,391.055l7.283-73.043c1.255-7.43,0.453-20.909,11.071-33.846l-0.002-0.002  c3.284-3.963,7.889-7.803,11.663-10.188c-4.344,1.306-14.195,2.443-24.929,8.842l-0.371,0.091  c-3.496,2.124-8.545,6.171-12.101,10.463l0.002,0.002c-11.088,13.509-9.953,29.027-11.071,33.846l-7.265,63.784l25.419,2.702  L36.009,391.055z"/>
<path style="fill:#D8A373;" d="M137.255,260.519l0.05-25.355c-9.279-0.664-18.001-2.915-25.792-6.379l-0.036,18.488  c-0.012,6.116-3.534,11.682-9.055,14.312c-27.409,13.054-6.929,3.343-15.325,7.189c7.715,7.316,18.157,13.044,30.224,16.44  l13.574-11.217C134.914,270.674,137.245,265.734,137.255,260.519z"/>
<path style="fill:#4C4846;" d="M212.17,28.998C180.434-8.733,108.063-12.399,68.34,34.737c-2.358,3.478-18.818,20.931-22.309,51.698  c-1.164,10.242-0.368,16.753-0.688,37.339l195.857,0.383C257.033,40.794,212.17,28.998,212.17,28.998z"/>
<path style="fill:#3F3B39;" d="M66.584,85.781c5.5-45.473,42.098-80.9,87.376-85.228C100.411-5.014,54.455,32.122,46.577,82.352  c-1.912,12.194-0.886,19.068-1.233,41.422l20.473,0.04C66.014,99.638,65.472,94.975,66.584,85.781z"/>
<g>
	<path style="fill:#EAB883;" d="M245.193,133.302c-0.022,11.238-11.947,20.323-25.365,20.297l0.08-40.69   C233.327,112.935,245.215,122.066,245.193,133.302z"/>
	<path style="fill:#EAB883;" d="M40.472,132.902c-0.022,11.238,11.867,20.37,25.286,20.396l0.08-40.69   C52.419,112.581,40.494,121.666,40.472,132.902z"/>
</g>
<g>
	<path style="fill:#D8A373;" d="M219.861,137.138l-0.032,16.461c13.418,0.026,25.343-9.058,25.365-20.297   c0.006-2.93-0.804-5.714-2.234-8.234C238.877,132.195,229.78,137.157,219.861,137.138z"/>
	<path style="fill:#D8A373;" d="M42.739,124.677c-7.883,13.763,5.725,28.587,23.019,28.621l0.032-16.461   C55.871,136.817,46.793,131.819,42.739,124.677z"/>
</g>
<path style="fill:#F7CF9C;" d="M73.415,108.899c-4.594-0.47-8.605,3.089-8.614,7.707c-0.087,44.623-0.248,45.416,0.229,50.786  c8.52,96.131,155.618,94.75,155.817-6.829c0.026-13.504,0.14-47.28,0.035-47.32l0,0c-0.613-2.901-3.461-5.868-6.33-6.613  c-8.754-2.273-24.775-10.454-35.95-19.476c-5.116-4.13-12.364-4.368-17.745-0.589C147.141,96.196,118.551,113.519,73.415,108.899z"/>
<g>
	<path style="fill:#EAB883;" d="M119.369,221.114c-35.727-29.05-28.901-65.041-28.833-111.476c-5.42,0.092-11.119-0.124-17.12-0.739   c-4.594-0.47-8.605,3.088-8.614,7.707c0.086,42.061-0.381,43.899,0.228,50.786c4.054,45.714,46.28,77.477,90.461,70.032   C153.428,237.059,131.406,230.87,119.369,221.114z"/>
	<path style="fill:#EAB883;" d="M511.467,477.375c-2.332-21.212-14.062-127.925-16.404-149.22   c-1.145-6.956-0.405-20.952-10.939-33.889l0.002-0.002c-3.526-4.297-8.718-8.462-12.06-10.511l-0.371-0.092   c-12.547-7.549-23.12-7.883-46.426-14.345l-15.684-7.546c-4.981-2.397-8.144-7.439-8.133-12.966l0.032-16.366   c-19.187,8.443-42.036,8.851-62.214-0.122l-0.03,15.402c-0.012,6.116-3.534,11.682-9.055,14.312l-14.843,7.07   c-23.221,6.34-33.889,6.654-46.482,14.163l-0.371,0.091c-3.496,2.124-8.545,6.171-12.101,10.463l0.002,0.002   c-11.088,13.509-9.953,29.026-11.071,33.846l-7.265,63.784c-10.228,91.233-9.915,83.941-9.929,90.977   c-0.178,11.513,6.81,28.862,28.08,29.128h-0.002c0.269,0.01,226.732,0.463,227.259,0.445h-0.002   C502.82,511.833,513.144,497.223,511.467,477.375z"/>
</g>
<path style="fill:#D8A373;" d="M281.923,511.605c-21.271-0.266-28.258-17.614-28.08-29.128c0.014-7.06-0.263-0.07,9.929-90.977  l7.283-73.043c1.255-7.43,0.453-20.909,11.072-33.846l-0.002-0.002c3.284-3.963,7.889-7.803,11.663-10.188  c-4.345,1.306-14.195,2.443-24.929,8.842l-0.371,0.091c-3.496,2.124-8.545,6.171-12.101,10.463l0.002,0.002  c-11.088,13.509-9.953,29.026-11.071,33.846l-7.265,63.784c-10.228,91.233-9.915,83.941-9.929,90.977  c-0.178,11.513,6.81,28.862,28.08,29.128h-0.002c0.57,0.022,8.268,0.023,26.13,0.062c-0.139,0-0.274-0.006-0.409-0.011H281.923z"/>
<path style="fill:#EAB883;" d="M370.265,289.123c22.619,0.044,42.728-7.684,55.485-19.687c-20.222-9.59-15.412-7.309-16.166-7.667  c-4.981-2.397-8.144-7.439-8.133-12.966l0.038-19.452c-19.184,8.441-42.033,8.852-62.214-0.122l-0.036,18.489  c-0.012,6.116-3.534,11.682-9.055,14.312c-1.328,0.623,5.243-2.46-15.325,7.189C327.568,281.273,347.646,289.079,370.265,289.123z"/>
<path style="fill:#7F7369;" d="M502.102,392.179c-0.782-7.119-6.277-57.101-7.038-64.024c-1.145-6.956-0.405-20.952-10.939-33.889  l0.002-0.002c-3.526-4.297-8.718-8.462-12.06-10.511l-0.371-0.092c-12.568-7.561-23.358-7.955-45.944-14.224l-0.31,0.275l0,0  c-12.771,11.843-32.732,19.455-55.175,19.411c-22.619-0.044-42.698-7.851-55.407-19.903l0.482-0.119  c-23.221,6.34-33.889,6.654-46.482,14.163l-0.371,0.091c-3.496,2.124-8.545,6.171-12.101,10.463l0.002,0.002  c-11.088,13.509-9.953,29.026-11.071,33.846l-7.265,63.784l47.004,4.995c4.568,0.485,7.953,4.468,7.697,9.054l-5.937,106.126  c49.309,0.096,116.794,0.228,166.098,0.325l-5.663-107.672c-0.201-3.822,2.646-7.123,6.454-7.486L502.102,392.179z"/>
<path style="fill:#E57676;" d="M263.772,391.5l7.283-73.043c1.255-7.43,0.453-20.909,11.072-33.846l-0.002-0.002  c3.284-3.963,7.889-7.803,11.663-10.188c-4.345,1.306-14.195,2.443-24.929,8.842l-0.371,0.091  c-3.496,2.124-8.545,6.171-12.101,10.463l0.002,0.002c-11.088,13.509-9.953,29.026-11.071,33.846l-7.265,63.784l25.419,2.702  L263.772,391.5z"/>
<path style="fill:#D8A373;" d="M365.018,260.965l0.05-25.355c-9.279-0.664-18-2.915-25.792-6.379l-0.036,18.488  c-0.012,6.116-3.534,11.682-9.055,14.312c-27.409,13.054-6.929,3.343-15.325,7.189c7.715,7.316,18.157,13.044,30.224,16.44  l13.574-11.218C362.676,271.12,365.007,266.18,365.018,260.965z"/>
<path style="fill:#4C4846;" d="M439.932,29.444c-31.736-37.731-104.107-41.397-143.83,5.739  c-2.358,3.478-18.818,20.931-22.309,51.699c-1.164,10.242-0.368,16.753-0.688,37.339l195.857,0.383  C484.796,41.24,439.932,29.444,439.932,29.444z"/>
<path style="fill:#3F3B39;" d="M294.346,86.227c5.5-45.473,42.098-80.9,87.376-85.228c-53.549-5.566-99.505,31.569-107.383,81.799  c-1.912,12.194-0.886,19.068-1.233,41.422l20.473,0.04C293.776,100.083,293.234,95.42,294.346,86.227z"/>
<g>
	<path style="fill:#EAB883;" d="M472.955,133.749c-0.022,11.238-11.947,20.323-25.365,20.297l0.08-40.69   C461.089,113.381,472.977,122.512,472.955,133.749z"/>
	<path style="fill:#EAB883;" d="M268.235,133.347c-0.022,11.238,11.867,20.37,25.286,20.396l0.08-40.69   C280.181,113.027,268.257,122.111,268.235,133.347z"/>
</g>
<g>
	<path style="fill:#D8A373;" d="M447.623,137.583l-0.032,16.461c13.418,0.026,25.343-9.058,25.365-20.297   c0.006-2.93-0.804-5.714-2.235-8.234C466.639,132.641,457.542,137.603,447.623,137.583z"/>
	<path style="fill:#D8A373;" d="M270.502,125.122c-7.883,13.763,5.725,28.587,23.019,28.621l0.032-16.461   C283.633,137.262,274.556,132.265,270.502,125.122z"/>
</g>
<path style="fill:#F7CF9C;" d="M301.177,109.344c-4.594-0.47-8.605,3.089-8.614,7.707c-0.087,44.623-0.248,45.416,0.229,50.786  c8.52,96.131,155.618,94.75,155.817-6.829c0.026-13.504,0.14-47.28,0.035-47.32l0,0c-0.613-2.901-3.461-5.868-6.33-6.613  c-8.754-2.273-24.775-10.454-35.95-19.476c-5.116-4.13-12.364-4.368-17.745-0.589C374.903,96.642,346.313,113.965,301.177,109.344z"/>
<path style="fill:#EAB883;" d="M347.131,221.559c-35.727-29.05-28.901-65.041-28.833-111.476c-5.42,0.092-11.12-0.124-17.12-0.739  c-4.594-0.47-8.605,3.088-8.614,7.707c0.086,42.061-0.381,43.899,0.228,50.786c4.054,45.714,46.28,77.477,90.461,70.032  C381.191,237.505,359.168,231.315,347.131,221.559z"/>
<path style="fill:#D8A373;" d="M253.931,482.882c-0.036-2.098,0.059-4.004,0.195-5.572c18.139-169.824,17.017-164.98,18.769-173.448  c2.591-12.527,9.906-22.307,20.577-29.079c-4.327,1.31-14.191,2.47-24.912,8.891l-0.371,0.092  c-14.657,8.951-20.324,21.084-22.276,37.099c-18.346,165.393-17.807,155.922-17.702,162.016c0,0.012,0,0.024,0,0.036  C228.054,494.506,235.162,512,256.76,512c15.921,0,9.797,0,25.72,0C263.937,512,253.666,498.11,253.931,482.882z"/>
<path style="fill:#A82626;" d="M245.913,320.866l-7.95,71.036l24.91,2.614c8.856-82.079,8.319-82.429,10.021-90.653  c2.59-12.525,9.905-22.306,20.577-29.079c-3.185,1.032-14.192,2.47-24.912,8.891c-0.105,0.026-0.476,0.117-0.371,0.092  C253.608,292.667,247.869,304.826,245.913,320.866z"/>
<path style="fill:#996123;" d="M304.169,273.335c-39.304-44.074-112.233-15.826-112.233,42.755v19.778h128.523  C319.218,325.685,325.987,297.335,304.169,273.335z"/>
<path style="fill:#8E551C;" d="M262.515,252.138c-37.254-3.605-69.26,24.906-70.537,61.714c-0.08,2.331-0.026,1.567-0.043,22.016  h12.636V316.09C204.572,283.072,229.647,255.351,262.515,252.138z"/>
<g>
	<path style="fill:#EFD0A3;" d="M328.16,343.279c0,9.489-9.185,17.179-20.515,17.179v-34.357   C318.975,326.101,328.16,333.792,328.16,343.279z"/>
	<path style="fill:#EFD0A3;" d="M184.237,343.279c0,9.489,9.185,17.179,20.515,17.179v-34.357   C193.421,326.101,184.237,333.792,184.237,343.279z"/>
</g>
<g>
	<path style="fill:#E2BF91;" d="M307.645,345.711v14.746c15.049,0,24.994-13.158,18.507-24.552   C322.855,341.698,315.819,345.711,307.645,345.711z"/>
	<path style="fill:#E2BF91;" d="M186.243,335.906c-6.54,11.49,3.577,24.552,18.507,24.552v-14.746   C196.577,345.711,189.541,341.698,186.243,335.906z"/>
</g>
<path style="fill:#EFD0A3;" d="M343.689,512c-5.72-49.355-5.42-49.372-6.436-54.285c-1.74-8.414-6.811-15.046-13.85-19.346  l-0.244-0.06c-8.7-5.211-14.967-4.984-44.44-12.836c-3.254-1.473-1.364-7.801-1.898-23.917c-12.623,5.593-27.783,5.861-40.999,0.108  v19.725c0,1.905-0.777,3.576-1.898,4.084c-29.367,7.824-35.727,7.617-44.44,12.836l-0.244,0.06  c-9.676,5.91-13.396,13.919-14.681,24.451L168.952,512H343.689z"/>
<path style="fill:#D83D3D;" d="M343.689,512c-5.72-49.355-5.42-49.372-6.436-54.285c-1.739-8.419-6.931-15.12-13.85-19.346  l-0.244-0.06c-8.378-5.019-14.905-5.03-34.809-10.438c-15.533,22.348-48.521,22.355-64.058,0  c-20.076,5.454-26.462,5.438-34.809,10.438l-0.244,0.06c-10.006,6.112-13.444,14.308-14.681,24.451L168.952,512  C190.002,512,321.889,512,343.689,512z"/>
<path style="fill:#B72C2C;" d="M201.363,433.579c-0.225,0.074-5.935,1.168-11.881,4.73l-0.244,0.06  c-10.193,6.226-13.477,14.579-14.681,24.451L168.952,512h15.432l5.605-56.383C191.079,446.688,193.641,439.661,201.363,433.579z"/>
<path style="fill:#E2BF91;" d="M241.812,441.835l12.002-2.988c3.317-1.502,1.293-7.66,1.898-32.987  c-7.014-0.041-13.87-1.577-19.89-4.197v19.725c0,1.905-0.777,3.576-1.898,4.084l-9.631,2.398l0,0  C228.612,434.085,234.695,438.975,241.812,441.835z"/>
<g>
	<path style="fill:#B72C2C;" d="M198.495,512c3.997,0,11.649,0,15.441,0l0.822-23.679c0.148-4.259-3.185-7.831-7.444-7.979   c-4.245-0.158-7.831,3.184-7.98,7.444L198.495,512z"/>
	<path style="fill:#B72C2C;" d="M314.357,512l-0.84-24.214c-0.148-4.26-3.721-7.605-7.979-7.444   c-4.259,0.148-7.592,3.72-7.444,7.979l0.822,23.679C302.412,512,310.651,512,314.357,512z"/>
</g>
<path style="fill:#FCE3BB;" d="M305.035,322.379c-0.794-0.191-1.41-0.395-1.514-0.426l0,0c-4.857-1.553-13.248-6.026-19.965-18.918  c-1.364-2.618-5.145-2.554-6.413,0.113c-6.174,12.986-30.988,30.984-68.966,20.595c-1.68-0.46-3.425,0.768-3.425,2.63v31.134  c0,22.083,14.007,41.314,34.231,48.489c33.415,11.878,68.666-13.001,68.666-48.489v-31.134  C307.647,323.995,306.213,322.89,305.035,322.379z"/>
<path style="fill:#EFD0A3;" d="M230.9,364.186c-0.737-5.681-0.306-7.694-0.43-37.357c-6.81,0.029-14.253-0.887-22.295-3.087  c-1.68-0.46-3.425,0.768-3.425,2.63v31.134c0,33.37,31.608,58.277,64.308,49.818C248.941,402.123,233.623,385.164,230.9,364.186z"/>
<g>
</g>
<g>
</g>
<g>
</g>
<g>
</g>
<g>
</g>
<g>
</g>
<g>
</g>
<g>
</g>
<g>
</g>
<g>
</g>
<g>
</g>
<g>
</g>
<g>
</g>
<g>
</g>
<g>
</g>
</svg>
