<?xml version="1.0" encoding="iso-8859-1"?>
<!-- Generator: Adobe Illustrator 19.0.0, SVG Export Plug-In . SVG Version: 6.00 Build 0)  -->
<svg xmlns="http://www.w3.org/2000/svg" xmlns:xlink="http://www.w3.org/1999/xlink" version="1.1" id="Capa_1" x="0px" y="0px" viewBox="0 0 512.001 512.001" style="enable-background:new 0 0 512.001 512.001;" xml:space="preserve">
<path style="fill:#D83D3D;" d="M401.207,484.741c-23.918-118.42-22.032-114.457-25.276-122.179  c-9.164-21.808-31.232-25.581-31.583-25.816c-6.864-2.024-54.018-15.935-60.511-17.849l0,0l-16.608,46.54  c-1.766,4.95-7.813,6.787-12.034,3.657l-37.505-13.619v-0.001l0,0v0.001v-0.111v0.111l-34.356,13.619  c-4.221,3.13-10.267,1.293-12.034-3.657l-16.608-46.54l0.137-0.093c-6.63,1.955-53.999,15.929-60.827,17.942l0,0  c-2.036,0.601-6.058,1.788-5.801,1.712c-14.52,5.415-25.262,16.782-28.538,33.195L37.147,484.741  c-1.138,8.041-1.259,27.259,23.679,27.259c36.898,0,275.709,0,316.703,0C402.468,512.001,402.347,492.782,401.207,484.741z"/>
<g>
	<path style="fill:#B72C2C;" d="M62.908,484.741C86.78,360.467,83.22,358.056,92.193,344.856c2.908-4.283,6.415-7.755,10.439-10.652   l-8.627,2.545l0,0c-2.036,0.601-6.058,1.788-5.801,1.712c-14.523,5.416-25.264,16.788-28.538,33.195L37.147,484.741   c-1.138,8.041-1.259,27.259,23.679,27.259h25.761C61.648,512.001,61.769,492.782,62.908,484.741z"/>
	<path style="fill:#B72C2C;" d="M115.316,512.001v-80.569c0-4.269-3.46-7.729-7.729-7.729c-4.268,0-7.729,3.46-7.729,7.729v80.569   C105.267,512.001,109.886,512.001,115.316,512.001z"/>
	<path style="fill:#B72C2C;" d="M217.692,439.159c-4.268,0-7.729-3.46-7.729-7.729v-75.957c0-4.269,3.46-7.729,7.729-7.729   c4.268,0,7.729,3.46,7.729,7.729v75.957C225.42,435.7,221.96,439.159,217.692,439.159z"/>
</g>
<path style="fill:#DADADA;" d="M259.129,302.188l-41.437,53.286l37.503,13.619c4.221,3.131,10.267,1.294,12.034-3.656l16.608-46.54  L259.129,302.188z"/>
<polygon style="fill:#CECCCA;" points="274.027,312.263 259.129,302.188 217.692,355.474 239.32,363.328 "/>
<path style="fill:#DADADA;" d="M179.403,302.188l38.289,53.286l-34.356,13.619c-4.221,3.131-10.267,1.294-12.034-3.656  l-16.608-46.54L179.403,302.188z"/>
<polygon style="fill:#CECCCA;" points="197.1,363.637 217.692,355.474 179.403,302.188 166.091,311.19 "/>
<path style="fill:#4C4846;" d="M229.732,0.469c-70.025-6.116-128.724,49.185-128.724,117.83v32.257h236.585v-32.257  C337.593,57.161,290.882,5.835,229.732,0.469z"/>
<path style="fill:#3F3B39;" d="M126.696,96.041c9.708-50.719,51.758-90.223,104.399-95.447  c-70.537-6.991-130.086,48.584-130.086,117.704v32.257h23.588C124.685,118.649,123.906,110.693,126.696,96.041z"/>
<g>
	<path style="fill:#DD9A5E;" d="M342.45,161.409c0,13.633-13.197,24.684-29.476,24.684v-49.364   C329.253,136.729,342.45,147.778,342.45,161.409z"/>
	<path style="fill:#DD9A5E;" d="M96.151,161.409c0,13.633,13.197,24.684,29.477,24.684v-49.364   C109.347,136.729,96.151,147.778,96.151,161.409z"/>
</g>
<g>
	<path style="fill:#D38D54;" d="M312.974,164.453v21.639c21.981,0,35.947-19.305,26.496-35.502   C334.682,158.798,324.618,164.453,312.974,164.453z"/>
	<path style="fill:#D38D54;" d="M99.13,150.591c-9.474,16.24,4.591,35.502,26.497,35.502v-21.639   C113.982,164.453,103.919,158.798,99.13,150.591z"/>
</g>
<path style="fill:#DD9A5E;" d="M217.692,355.474l41.437-53.286l0,0l0,0c0-9.166,0-15.689,0-24.865  c-0.093,0.043-0.185,0.082-0.278,0.125v-0.01c-0.006,0.003-0.014,0.007-0.022,0.01v-0.125c-24.288,11.262-53.213,12.099-79.304,0  v0.125h-0.001c-0.007-0.003-0.015-0.007-0.022-0.01v0.01l0,0c-0.092-0.042-0.185-0.082-0.276-0.125c0,9.268,0,15.683,0,24.984  l0.176-0.119L217.692,355.474L217.692,355.474L217.692,355.474L217.692,355.474z"/>
<path style="fill:#D38D54;" d="M204.988,284.996c-8.96-1.366-17.508-3.984-25.462-7.672v0.125h-0.001  c-0.007-0.003-0.015-0.007-0.022-0.01v0.01l0,0c-0.092-0.042-0.185-0.082-0.276-0.125c0,9.268,0,15.683,0,24.984l0.176-0.119  l25.585,35.606L204.988,284.996L204.988,284.996z"/>
<path style="fill:#EDAE6B;" d="M292.157,101.855c-0.191-7.533-6.757-14.256-16.297-12.789c-38.672,5.943-75.676,5.804-113.792-0.103  c-7.437-1.158-15.307,3.923-15.649,13.473c-0.442,12.258-5.047,23.149-14.519,30.455c-4.068,3.14-7.201,4.207-7.304,4.266  c0,62.215-0.057,58.446,0.133,62.216c5.522,109.869,168.36,124.24,187.882,11.462c1.81-10.434,1.396-11.423,1.396-73.678  C313.378,136.71,292.846,129.365,292.157,101.855z"/>
<path style="fill:#DD9A5E;" d="M150.446,203.44c-0.178-4.391-0.038-6.886-0.089-54.859c0-6.707,2.754-10.205,4.588-11.798  c1.206-0.944,5.427-3.389,9.693-9.452c12.178-17.297,2.866-28.844,13.641-36.208c-5-0.552-10.545-1.281-16.211-2.159  c-7.483-1.165-15.319,3.978-15.649,13.473c-0.442,12.133-4.975,23.093-14.519,30.455c-4.068,3.14-7.201,4.207-7.305,4.266  c0,63.038-0.056,58.518,0.134,62.216c2.209,43.889,34.308,80.769,78.796,88.534C171.819,271.647,151.939,239.178,150.446,203.44z"/>
<path style="fill:#70BBEF;" d="M435.544,258.575c-36.155-18.877-80.768-4.871-99.646,31.284l-59.576,114.102  c-18.877,36.155-4.871,80.768,31.284,99.646c22.915,11.965,49.22,10.703,70.225-1.017l34.151-39.326l54.845-105.043  C485.705,322.064,471.699,277.452,435.544,258.575z"/>
<path style="fill:#4CAEE5;" d="M300.537,417.426l59.576-114.102c16.996-32.551,54.85-47.136,88.614-35.945  c-36.429-30.394-91.148-19.044-112.829,22.48l-59.576,114.102c-18.877,36.155-4.871,80.768,31.284,99.646  c3.612,1.885,7.309,3.442,11.055,4.681C292.547,486.518,284.16,448.794,300.537,417.426z"/>
<g>
	<path style="fill:#8CD2F9;" d="M376.345,381.281c-12.725,0-27.747-2.658-44.685-10.27c-3.893-1.75-5.63-6.324-3.881-10.217   c1.75-3.893,6.323-5.629,10.217-3.881c46.349,20.833,74.853-1.601,75.136-1.83c3.316-2.687,8.182-2.179,10.87,1.137   c2.688,3.315,2.179,8.182-1.136,10.87C421.859,367.906,404.888,381.281,376.345,381.281z"/>
	<path style="fill:#8CD2F9;" d="M378.797,477.682c-1.522-3.988-5.986-5.988-9.976-4.465c-26.379,10.064-75.883,9.488-91.164,1.521   c4.256,7.476,9.844,14.26,16.648,19.962c23.8,3.026,58.509,1.169,80.027-7.042C378.319,486.136,380.319,481.67,378.797,477.682z"/>
</g>
<path style="fill:#70BBEF;" d="M306.849,495.796c-3.729-4.997-6.788-10.42-9.131-16.127c-8.578-0.995-15.71-2.663-20.062-4.931  c4.256,7.476,9.844,14.26,16.648,19.962C298.286,495.205,302.501,495.568,306.849,495.796z"/>
<ellipse transform="matrix(0.4628 -0.8864 0.8864 0.4628 -74.523 530.0225)" style="fill:#FCE3BB;" cx="400.062" cy="326.501" rx="48.128" ry="46.148"/>
<path style="fill:#EFD0A3;" d="M414.446,280.657c-20.924-6.236-44.383,3.619-55.288,24.505c-12.305,23.566-3.963,52.233,18.63,64.03  c10.677,5.575,22.627,6.378,33.561,3.194C366.304,358.961,369.815,293.656,414.446,280.657z"/>
<path style="fill:#DD9A5E;" d="M446.136,332.036c6.002-40.788-37.619-68.064-71.287-44.726  c4.264,21.371,24.238,35.165,45.096,32.495c2.53-0.324,4.993,0.932,6.267,3.142C430.131,329.742,438.032,333.612,446.136,332.036z"/>
<path style="fill:#CE874D;" d="M374.851,287.322c1.4,7.009,4.628,13.587,9.394,19.004c6.425-13.106,17.635-22.009,30.201-25.669  C401.487,276.794,386.884,278.975,374.851,287.322z"/>
<path style="fill:#8CD2F9;" d="M269.793,424.886c-0.212-0.07-0.425-0.125-0.637-0.177c-0.974,5.257-1.347,10.552-1.174,15.801  c46.712,13.983,107.582,17.99,155.853,0.054l11.518-22.06C365.328,455.911,270.747,425.203,269.793,424.886z"/>
<path style="fill:#70BBEF;" d="M269.156,424.709c-0.16,1.252-1.46,7.131-1.174,15.8v0.001c4.294,1.285,12.844,3.661,24.349,5.969  c0.353-5.12,1.246-10.243,2.705-15.294C278.383,427.847,270.609,425.059,269.156,424.709z"/>
<path style="fill:#8CD2F9;" d="M456.513,377.978c-69.274,39.193-163.605,5.161-168.391,3.388l-7.129,13.653  c3.321,2.12,32.545,11.377,63.067,15.19c33.492,4.186,68.92,2.533,100.672-9.667L456.513,377.978z"/>
<path style="fill:#70BBEF;" d="M288.122,381.365c-0.286,0.548-6.799,13.02-7.129,13.653c3.192,2.038,21.681,7.109,26.857,8.403  l7.406-14.183C299.818,385.61,289.614,381.918,288.122,381.365z"/>
<path style="fill:#DD9A5E;" d="M330.983,472.094c5.129,8.986,14.553,14.045,24.25,14.134l10.944,19.173  c2.33,4.08,6.667,6.599,11.365,6.599h34.348c8.383,0,13.64-9.054,9.484-16.334l-20.319-35.595  c4.853-8.397,5.289-19.083,0.159-28.069l-17.612-30.853c-7.67-13.437-24.94-18.155-38.376-10.484l-21.373,12.201  c-13.437,7.67-18.155,24.94-10.484,38.376L330.983,472.094z"/>
<path style="fill:#D38D54;" d="M396.206,506.904l-13.636-26.007c-2.437-4.648-6.613-8.24-11.681-9.606  c-6.983-1.882-13.245-6.412-17.092-13.152l-17.612-30.853c-6.533-11.445-4.073-25.667,5.102-34.373l-17.431,9.95  c-13.437,7.67-18.155,24.939-10.484,38.376l17.612,30.854c5.129,8.986,14.553,14.045,24.25,14.135l10.944,19.173  c2.33,4.08,6.667,6.599,11.365,6.599h23.951C399.319,510.859,397.467,509.114,396.206,506.904z"/>
<g>
</g>
<g>
</g>
<g>
</g>
<g>
</g>
<g>
</g>
<g>
</g>
<g>
</g>
<g>
</g>
<g>
</g>
<g>
</g>
<g>
</g>
<g>
</g>
<g>
</g>
<g>
</g>
<g>
</g>
</svg>
