<?xml version="1.0" encoding="iso-8859-1"?>
<!-- Generator: Adobe Illustrator 19.0.0, SVG Export Plug-In . SVG Version: 6.00 Build 0)  -->
<svg xmlns="http://www.w3.org/2000/svg" xmlns:xlink="http://www.w3.org/1999/xlink" version="1.1" id="Capa_1" x="0px" y="0px" viewBox="0 0 511.999 511.999" style="enable-background:new 0 0 511.999 511.999;" xml:space="preserve">
<path style="fill:#70BBEF;" d="M312.329,47.647C292.954-8.374,211.697-4.732,197.977,53.51c-4.944,21.148,3.243,36.64,3.366,37.391  h-0.008c0.238,0.465,1.875,4.427,4.89,8.996l5.984,9.777c11.01,17.988,13.061,40.063,5.556,59.772l0,0c9.255,0,67.153,0,76.47,0l0,0  c-14.5-38.076,9.959-65.41,11.54-69.549c2.949-4.469,4.684-8.593,4.89-8.995h-0.009C311.9,87.097,320.144,70.242,312.329,47.647z"/>
<path style="fill:#4CAEE5;" d="M237.209,109.674c-10.683-17.408-7.936-12.761-10.874-18.773h0.009  C211.179,55.233,232.49,16.67,268.5,8.849c-31.073-6.779-62.959,12.557-70.524,44.661c-4.908,20.994,3.276,36.84,3.366,37.391  h-0.009c0.238,0.465,1.875,4.427,4.89,8.996l5.984,9.777c11.01,17.987,13.062,40.063,5.556,59.772c10.631,0,14.369,0,25.001,0  C250.271,149.737,248.219,127.661,237.209,109.674z"/>
<path style="fill:#F7CF9C;" d="M349.206,504.499H162.792c-26.287,0-47.794-21.507-47.794-47.794V271.241  c0-26.287,21.507-47.794,47.794-47.794h186.415c26.287,0,47.794,21.507,47.794,47.794v185.464  C397.001,482.992,375.494,504.499,349.206,504.499z"/>
<path style="fill:#E2BF91;" d="M188.462,456.704V271.24c0-26.287,21.507-47.794,47.795-47.794h-73.464  c-26.287,0-47.795,21.507-47.795,47.794v185.464c0,26.287,21.507,47.794,47.795,47.794h73.464  C209.969,504.499,188.462,482.992,188.462,456.704z"/>
<path style="fill:#DADADA;" d="M343.537,182.945c0-7.456-6.044-13.5-13.5-13.5H181.962c-7.456,0-13.5,6.044-13.5,13.5  c0,7.456,6.044,13.5,13.5,13.5h148.075C337.494,196.446,343.537,190.402,343.537,182.945z"/>
<g>
	<path style="fill:#C0C0C0;" d="M193.462,182.945c0-7.456,6.044-13.5,13.5-13.5h-25.001c-7.456,0-13.5,6.044-13.5,13.5   c0,7.456,6.044,13.5,13.5,13.5h25.001C199.506,196.446,193.462,190.402,193.462,182.945z"/>
	<path style="fill:#C0C0C0;" d="M366.667,209.946c0-7.456-6.044-13.5-13.5-13.5H158.832c-7.456,0-13.5,6.044-13.5,13.5   c0,7.456,6.044,13.5,13.5,13.5h194.334C360.622,223.446,366.667,217.402,366.667,209.946z"/>
</g>
<path style="fill:#AFAFB2;" d="M187.712,209.946c0-7.456,6.044-13.5,13.5-13.5h-42.38c-7.456,0-13.5,6.044-13.5,13.5  c0,7.456,6.044,13.5,13.5,13.5h42.38C193.756,223.446,187.712,217.402,187.712,209.946z"/>
<path d="M397.001,313.096c-4.143,0-7.5,3.357-7.5,7.5v136.108c0,22.218-18.076,40.294-40.295,40.294h-117.81  c-4.142,0-7.5,3.357-7.5,7.5c0,4.143,3.358,7.5,7.5,7.5h117.81c30.49,0,55.295-24.806,55.295-55.294V320.596  C404.501,316.454,401.144,313.096,397.001,313.096z"/>
<path d="M107.498,271.241v185.464c0,30.489,24.806,55.294,55.294,55.294h33.604c4.142,0,7.5-3.357,7.5-7.5  c0-4.143-3.358-7.5-7.5-7.5h-33.604c-22.218,0-40.294-18.075-40.294-40.294V451.1h45.963c4.142,0,7.5-3.357,7.5-7.5  s-3.358-7.5-7.5-7.5h-45.963v-24.501h16.416c4.142,0,7.5-3.357,7.5-7.5s-3.358-7.5-7.5-7.5h-16.416v-24.501h45.963  c4.142,0,7.5-3.357,7.5-7.5s-3.358-7.5-7.5-7.5h-45.963v-24.501h16.416c4.142,0,7.5-3.357,7.5-7.5s-3.358-7.5-7.5-7.5h-16.416  v-24.501h45.963c4.142,0,7.5-3.357,7.5-7.5s-3.358-7.5-7.5-7.5h-45.963v-6.854c0-22.218,18.076-40.294,40.294-40.294h186.414  c22.218,0,40.295,18.075,40.295,40.294v14.354c0,4.143,3.357,7.5,7.5,7.5c4.143,0,7.5-3.357,7.5-7.5v-14.354  c0-22.651-13.696-42.155-33.239-50.691c1.833-3.116,2.904-6.733,2.904-10.603c0-11.579-9.421-21-21-21h-3.013  c0.569-1.903,0.884-3.915,0.884-6c0-11.579-9.421-21-21-21h-30.374c-4.623-16.184-2.315-33.917,6.523-48.357  c2.672-6.235,18.256-21.902,16.829-49.839l-0.005-0.136c-0.08-2.413-0.498-5.448-0.882-7.828c-0.733-4.076-4.641-6.785-8.71-6.052  c-4.076,0.733-6.786,4.634-6.052,8.71c0.055,0.298,0.101,0.553,0.127,0.723c3.65,23.987-9.649,38.236-14.101,46.592  c-10.277,16.79-13.505,37.151-9.228,56.188h-56.333c4.277-19.036,1.05-39.397-9.227-56.188  c-6.756-11.034-12.043-17.767-14.054-30.392c-7.394-52.264,54.655-79.895,88.913-44.402c2.877,2.98,7.625,3.065,10.604,0.188  c2.98-2.876,3.065-7.624,0.188-10.604C267.75-17.279,203.801-0.356,190.946,50.663c-0.077,0.301-0.147,0.604-0.218,0.906  l-0.06,0.256c-0.148,0.632-0.294,1.263-0.424,1.901c-0.088,0.436-0.167,0.873-0.244,1.312l-0.113,0.629  c-0.472,2.615-0.816,5.947-0.901,7.989l0,0c0.149,1.659-1.934,20.72,10.905,40.261c1.834,4.496,21.594,25.998,12.443,58.029h-30.374  c-11.58,0-21,9.421-21,21c0,2.085,0.316,4.097,0.884,6h-3.013c-16.236,0-26.274,17.702-18.096,31.604  C121.194,229.085,107.498,248.59,107.498,271.241z M175.962,182.946c0-3.309,2.691-6,6-6h35.803h76.471h35.803c3.309,0,6,2.691,6,6  c0,3.309-2.691,6-6,6H181.962C178.653,188.947,175.962,186.255,175.962,182.946z M158.832,215.947c-3.309,0-6-2.691-6-6  c0-3.309,2.691-6,6-6c58.329,0,133.264,0,194.334,0c3.309,0,6,2.691,6,6c0,3.309-2.691,6-6,6c-10.342,0-180.018,0-190.374,0H158.832  z"/>
<g>
</g>
<g>
</g>
<g>
</g>
<g>
</g>
<g>
</g>
<g>
</g>
<g>
</g>
<g>
</g>
<g>
</g>
<g>
</g>
<g>
</g>
<g>
</g>
<g>
</g>
<g>
</g>
<g>
</g>
</svg>
