<?xml version="1.0" encoding="iso-8859-1"?>
<!-- Generator: Adobe Illustrator 19.0.0, SVG Export Plug-In . SVG Version: 6.00 Build 0)  -->
<svg xmlns="http://www.w3.org/2000/svg" xmlns:xlink="http://www.w3.org/1999/xlink" version="1.1" id="Capa_1" x="0px" y="0px" viewBox="0 0 512 512" style="enable-background:new 0 0 512 512;" xml:space="preserve">
<path style="fill:#70BBEF;" d="M314.031,41.36c-19.96-57.71-103.669-53.959-117.804,6.04c-5.093,21.786,3.341,37.746,3.467,38.519  h-0.009c0.245,0.479,1.932,4.561,5.038,9.267l6.165,10.072c11.342,18.531,13.456,41.272,5.724,61.576l0,0c9.535,0,69.18,0,78.778,0  l0,0c-14.938-39.225,10.26-67.385,11.889-71.649c3.038-4.604,4.826-8.853,5.038-9.267h-0.009  C313.589,82.001,322.081,64.638,314.031,41.36z"/>
<path style="fill:#4CAEE5;" d="M236.643,105.259c-11.006-17.933-8.176-13.146-11.203-19.34h0.009  c-15.622-36.744,6.331-76.471,43.429-84.528c-32.011-6.984-64.86,12.937-72.651,46.009c-5.056,21.628,3.375,37.952,3.467,38.519  h-0.009c0.245,0.479,1.932,4.561,5.038,9.267l6.165,10.072c11.342,18.531,13.456,41.272,5.724,61.576c10.952,0,14.803,0,25.755,0  C250.099,146.531,247.986,123.79,236.643,105.259z"/>
<path style="fill:#F7CF9C;" d="M352.021,512h-192.04c-27.08,0-49.237-22.156-49.237-49.237V271.702  c0-27.08,22.157-49.237,49.237-49.237h192.04c27.08,0,49.237,22.156,49.237,49.237v191.061C401.258,489.844,379.101,512,352.021,512  z"/>
<path style="fill:#E2BF91;" d="M186.425,462.763V271.702c0-27.08,22.157-49.237,49.237-49.237h-75.681  c-27.08,0-49.237,22.156-49.237,49.237v191.061c0,27.08,22.157,49.237,49.237,49.237h75.681  C208.582,512,186.425,489.844,186.425,462.763z"/>
<path style="fill:#DADADA;" d="M346.181,180.743c0-7.681-6.227-13.908-13.908-13.908H179.729c-7.681,0-13.908,6.227-13.908,13.908  s6.227,13.908,13.908,13.908h152.544C339.954,194.651,346.181,188.424,346.181,180.743z"/>
<g>
	<path style="fill:#C0C0C0;" d="M191.576,180.743c0-7.681,6.227-13.908,13.908-13.908h-25.755c-7.681,0-13.908,6.226-13.908,13.908   c0,7.681,6.227,13.908,13.908,13.908h25.755C197.803,194.651,191.576,188.424,191.576,180.743z"/>
	<path style="fill:#C0C0C0;" d="M370.008,208.558c0-7.681-6.227-13.908-13.908-13.908H155.901c-7.681,0-13.908,6.227-13.908,13.908   s6.227,13.908,13.908,13.908h200.2C363.782,222.466,370.008,216.239,370.008,208.558z"/>
</g>
<path style="fill:#AFAFB2;" d="M185.653,208.558c0-7.681,6.227-13.908,13.908-13.908h-43.66c-7.681,0-13.908,6.226-13.908,13.908  c0,7.681,6.227,13.908,13.908,13.908h43.659C191.879,222.466,185.653,216.239,185.653,208.558z"/>
<g>
	<path style="fill:#FCE3BB;" d="M173.547,367.877c0-4.268-3.459-7.727-7.727-7.727h-55.077v15.453h55.077   C170.088,375.603,173.547,372.144,173.547,367.877z"/>
	<path style="fill:#FCE3BB;" d="M143.109,408.569c0-4.268-3.459-7.727-7.727-7.727h-24.638v15.453h24.638   C139.649,416.296,143.109,412.837,143.109,408.569z"/>
	<path style="fill:#FCE3BB;" d="M135.382,319.457h-24.638v15.453h24.638c4.267,0,7.727-3.459,7.727-7.727   C143.109,322.916,139.649,319.457,135.382,319.457z"/>
	<path style="fill:#FCE3BB;" d="M173.547,449.262c0-4.268-3.459-7.727-7.727-7.727h-55.077v15.453h55.077   C170.088,456.989,173.547,453.53,173.547,449.262z"/>
	<path style="fill:#FCE3BB;" d="M165.821,278.764h-55.077v15.453h55.077c4.267,0,7.727-3.459,7.727-7.727   C173.547,282.223,170.088,278.764,165.821,278.764z"/>
</g>
<g>
</g>
<g>
</g>
<g>
</g>
<g>
</g>
<g>
</g>
<g>
</g>
<g>
</g>
<g>
</g>
<g>
</g>
<g>
</g>
<g>
</g>
<g>
</g>
<g>
</g>
<g>
</g>
<g>
</g>
</svg>
