<?xml version="1.0" encoding="iso-8859-1"?>
<!-- Generator: Adobe Illustrator 19.0.0, SVG Export Plug-In . SVG Version: 6.00 Build 0)  -->
<svg xmlns="http://www.w3.org/2000/svg" xmlns:xlink="http://www.w3.org/1999/xlink" version="1.1" id="Capa_1" x="0px" y="0px" viewBox="0 0 512 512" style="enable-background:new 0 0 512 512;" xml:space="preserve">
<path style="fill:#7F7369;" d="M266.045,320.496c-1.223-10.029-3.452-18.42-10.192-26.621c0.004-0.005,0.008-0.01,0.011-0.015  c-15.247-18.536-37.14-18.149-58.171-24.659l-2.177-0.542l-22.486-13.924v-22.592c-19.568,8.657-42.448,8.773-62.288,0l0.102,22.592  l-22.588,13.924l-2.177,0.542c-22.369,6.166-33.146,6.545-45.71,14.071l-0.371,0.092c-3.563,2.176-8.791,6.489-12.091,10.497  c0.004,0.005,0.008,0.01,0.011,0.015c-13.343,16.237-8.423,22.376-27.715,183.2c-0.136,1.571-0.231,3.477-0.195,5.577  c0,0.012,0,0.024,0,0.036c-0.156,11.476,6.819,28.73,27.907,29.091c0.1,0.002,0.562,0.014,0.666,0.017  c231.923,0,227.377-0.019,227.274-0.017c18.195-0.311,28.163-14.174,27.907-29.127C283.867,476.56,284.335,485.388,266.045,320.496z  "/>
<path style="fill:#6D5E53;" d="M26.043,477.076c18.158-173.069,17.004-168.083,18.785-176.688c1.519-7.341,4.618-13.623,8.93-18.869  c-0.004-0.005-0.007-0.01-0.011-0.015c1.705-2.071,3.68-3.994,5.586-5.644c-0.775,0.252-9.627,1.82-18.963,7.412l-0.371,0.092  c-3.563,2.176-8.791,6.489-12.091,10.497c0.004,0.005,0.008,0.01,0.011,0.015c-13.357,16.253-8.433,22.472-27.715,183.2  c-0.222,2.567-0.195,4.147-0.195,5.613c-0.156,11.477,6.819,28.73,27.907,29.091c-0.003,0-0.006,0.001-0.009,0.001  c0.102,0.002,0.574,0.014,0.675,0.017h25.815C36.848,511.796,24.125,499.241,26.043,477.076z"/>
<path style="fill:#C0C0C0;" d="M197.692,269.201l-2.177-0.542l-22.486-13.924v-22.592c-19.24,8.512-42.242,8.86-62.265,0.163  l-0.024,0.018l0.102,22.411l-22.588,13.924l-2.177,0.542l-18.662,4.646l-0.002,0.006l25.073,41.48  c22.425,37.101,76.193,37.238,98.808,0.251l25.458-41.638L197.692,269.201z"/>
<path style="fill:#AFAFB2;" d="M110.902,306.323l-22.75-37.638l-2.074,0.516l-18.662,4.646l-0.002,0.006l25.073,41.48  c18.367,30.386,57.748,35.959,83.83,16.667C152.618,338.701,125.302,330.145,110.902,306.323z"/>
<g>
	<path style="fill:#6D5E53;" d="M224.802,358.411c-0.225-4.259-3.85-7.571-8.119-7.304h-0.001c-4.259,0.225-7.529,3.86-7.304,8.119   c0.9,17.021,7.229,136.74,8.066,152.571c1.534,0,13.593,0,15.468,0L224.802,358.411z"/>
	<path style="fill:#6D5E53;" d="M67.431,351.106L67.431,351.106c-4.27-0.267-7.895,3.045-8.12,7.304l-8.109,153.386   c9.575,0,5.893,0,15.468,0l3.024-57.214l5.041-95.357C74.959,354.966,71.69,351.331,67.431,351.106z"/>
</g>
<g>
	<path style="fill:#DADADA;" d="M195.515,268.659l-25.425,42.497c-2.261,3.74-7.266,4.69-10.74,2.038l-17.357-13.256l31.035-45.201   L195.515,268.659z"/>
	<path style="fill:#DADADA;" d="M88.255,268.659l25.731,42.497c2.26,3.74,7.266,4.69,10.74,2.038l17.357-13.256l-31.24-45.201   L88.255,268.659z"/>
</g>
<path style="fill:#DD9A5E;" d="M110.765,229.218l-0.024,0.018l0.102,25.5l31.24,45.201l30.946-45.201v-25.681  C153.9,237.518,130.97,237.994,110.765,229.218z"/>
<path style="fill:#D38D54;" d="M142.084,235.594c-10.487,0.082-21.259-2.007-31.318-6.377l-0.024,0.018l0.102,25.5l31.24,45.201l0,0  V235.594z"/>
<path style="fill:#DADADA;" d="M140.994,0.919c-26.259,0-50.095,9.524-67.632,26.397c0,0-52.853,9.187-33.082,99.919h202.147  c19.771-90.732-33.082-100.483-33.082-100.483C191.806,9.879,167.97,0.919,141.711,0.919"/>
<path style="fill:#C0C0C0;" d="M73.173,27.354c-3.364,0.692-51.986,12.268-32.895,99.882h26.218  C52.076,74.156,60.953,44.086,73.173,27.354z"/>
<g>
	<path style="fill:#DD9A5E;" d="M39.296,133.184c0,11.244,11.733,20.357,25.159,20.357v-40.712   C51.03,112.828,39.296,121.941,39.296,133.184z"/>
	<path style="fill:#DD9A5E;" d="M244.126,133.184c0,11.244-11.733,20.357-25.16,20.357v-40.712   C232.392,112.828,244.126,121.941,244.126,133.184z"/>
</g>
<g>
	<path style="fill:#D38D54;" d="M41.815,124.431c-1.606,2.651-2.518,5.619-2.518,8.752c0,11.244,11.733,20.357,25.159,20.357   v-17.505C54.772,136.035,45.97,131.293,41.815,124.431z"/>
	<path style="fill:#D38D54;" d="M218.966,136.035v17.505c17.808,0,30.913-15.448,22.641-29.109   C237.451,131.293,228.65,136.035,218.966,136.035z"/>
</g>
<path style="fill:#EDAE6B;" d="M219.815,101.782l-0.001,0.001v-0.002c0.001-0.058,0.002-0.106,0.002-0.194  c0-0.048-0.002-0.212-0.003-0.241c-0.002-0.089-0.007-0.256-0.01-0.322c-0.004-0.104-0.013-0.289-0.02-0.393  c-0.006-0.103-0.04-0.542-0.032-0.439c-0.327-4-2.311-14.795-13.84-23.092c-0.003-0.002-0.006-0.004-0.009-0.007  c-0.473-0.34-0.962-0.675-1.468-1.006c-0.017-0.011-0.035-0.022-0.053-0.034c-0.505-0.33-1.026-0.655-1.565-0.974l0.006-0.006  c0,0-17.563-12.22-5.712-29.45c0.502-0.7,1.011-1.407,1.522-2.12c0.036-0.051,0.072-0.101,0.109-0.152  c0.221-0.308,0.441-0.622,0.662-0.933l8.025-12.65c0.021-0.039,0.041-0.081,0.062-0.12l1.854-2.899  C171.507-9.048,111.521-8.789,73.361,27.317c0.045,0.11,0.121,0.208,0.211,0.3l8.486,12.025l0.002-0.005  c1.569,2.275,2.497,3.556,4.244,5.99c11.851,17.229-5.712,29.45-5.712,29.45l0.007,0.006  c-17.678,10.472-16.933,26.598-16.997,26.701l-0.001-0.001l-0.001-0.001c0.023,61.763-0.122,60.957,0.362,66.158  c8.574,92.283,147.894,95.547,155.557-0.688c0.455-5.831,0.241-0.836,0.297-65.47L219.815,101.782z"/>
<path style="fill:#DD9A5E;" d="M89.317,161.963c-0.071-3.308-0.008,7.19-0.032-60.182l0.001,0.001l0.001,0.001  c0.064-0.103-0.68-16.237,16.997-26.701l-0.007-0.006c0,0,17.563-12.22,5.712-29.45c-2.931-4.082-2.196-3.017-4.244-5.99  l-0.002,0.005l0.002-0.005c-0.032-0.033-1.132-1.582-2.54-3.57c-3.648-5.153-2.52-12.285,2.547-16.052  c13.341-9.914,29.647-16.785,46.926-19.091C123.8-3.135,94,7.941,73.628,27.066c-0.02,0.201-0.035,0.35-0.055,0.551l8.486,12.025  l0.002-0.005c1.428,2.072,1.811,2.6,4.244,5.99c11.851,17.229-5.712,29.45-5.712,29.45l0.006,0.006  C62.918,85.55,63.666,101.68,63.602,101.783l-0.001-0.001l-0.001-0.001c0.057,57.123-0.195,59.9,0.321,65.769  c4.168,46.665,47.928,77.592,90.629,69.988C115.154,230.546,90.107,197.966,89.317,161.963z"/>
<path style="fill:#DADADA;" d="M200.662,182.918c-5.878-2.196-14.571-6.247-21.048-12.725  c-10.369-10.369-26.563-17.767-37.374-8.545c-0.204,0.174-0.376,0.376-0.528,0.591c-0.152-0.215-0.324-0.417-0.528-0.591  c-10.812-9.222-27.005-1.824-37.374,8.545c-6.478,6.478-15.172,10.53-21.049,12.725c-2.555,0.955-2.787,4.47-0.386,5.765  c31.452,16.949,53.961-0.953,58.912-5.497c0.159-0.146,0.3-0.308,0.425-0.48c0.124,0.173,0.266,0.334,0.425,0.48  c4.952,4.543,27.46,22.446,58.912,5.497C203.45,187.388,203.218,183.873,200.662,182.918z"/>
<path style="fill:#C0C0C0;" d="M201.054,188.679c-0.046-0.001-0.085,0.009-0.133,0.004c-32.649-2.832-41.425-8.22-53.844-15.769l0,0  c-5.911-2.664-10.752-0.022-10.859,0c-12.419,7.548-21.195,12.936-53.844,15.768c31.452,16.949,53.961-0.953,58.912-5.497  c0.16-0.146,0.301-0.308,0.425-0.48c0.124,0.173,0.266,0.334,0.425,0.48c4.952,4.543,27.46,22.446,58.913,5.497  c0.007-0.004,0.011-0.01,0.019-0.014C201.062,188.672,201.059,188.676,201.054,188.679z"/>
<path style="fill:#4C4846;" d="M511.809,477.076l-4.594-41.056c0.012-0.004,0.023-0.009,0.035-0.013l-3.622-32.367  c-0.01,0.014-0.022,0.026-0.032,0.04l-5.284-47.219c0.003-0.003,0.005-0.006,0.008-0.009l0.002,0.002  c-0.004-0.004-0.008-0.009-0.012-0.013l-2.518-22.508c0.011-0.016,0.02-0.033,0.031-0.049c-2.135-17.682-1.614-36.976-23.794-50.521  l-0.371-0.092c-13.229-7.924-22.846-7.599-67.489-19.493c-1.704-0.772-2.883-3.309-2.883-6.203v-30.332  c-20.438,9.323-41.037,9.709-62.301,0v30.332c0,2.893-1.18,5.431-2.883,6.203c-44.345,11.814-54.208,11.538-67.489,19.493  l-0.371,0.092c-24.837,15.168-21.579,39.876-23.794,50.521c0.011,0.016,0.02,0.033,0.031,0.049l-2.519,22.508  c-0.004,0.004-0.008,0.009-0.012,0.013c0,0,0.001-0.001,0.002-0.002c0.003,0.003,0.005,0.006,0.008,0.009l-5.284,47.219  c-0.01-0.014-0.022-0.026-0.032-0.04l-3.622,32.367c0.012,0.004,0.023,0.009,0.035,0.013c-4.367,40.306-4.89,40.793-4.789,46.633  c-0.209,11.688,6.4,24.098,19.221,27.87c-0.005,0.002-0.01,0.005-0.015,0.007c4.691,1.376,9.227,1.26,9.331,1.267h0.036l0,0  c237.488,0,229.099,0.746,235.962-1.267c-0.005-0.002-0.01-0.005-0.015-0.007C504.633,507.036,513.422,495.762,511.809,477.076z"/>
<path style="fill:#3F3B39;" d="M273.683,510.529c0.005-0.002,0.01-0.005,0.015-0.007c-12.585-3.702-19.436-15.836-19.221-27.87  c-0.101-5.864,0.358-5.737,4.789-46.633c-0.012-0.004-0.023-0.009-0.035-0.013l3.622-32.367c0.01,0.014,0.022,0.026,0.032,0.04  l5.284-58.545c-0.003-0.003-0.005-0.006-0.008-0.009c-0.001,0.001-0.002,0.001-0.002,0.001c0.004-0.004,0.008-0.009,0.012-0.013  l2.519-22.508c-0.011-0.016-0.02-0.033-0.031-0.048c2.202-11.706-0.477-32.157,19.26-47.283c-2.219,0.698-11.187,1.933-21.31,7.996  l-0.371,0.092c-24.838,15.166-21.578,39.869-23.794,50.521c0.011,0.016,0.02,0.033,0.031,0.049l-2.519,22.508  c-0.004,0.004-0.008,0.009-0.012,0.013c0,0,0.001-0.001,0.002-0.001c0.003,0.003,0.005,0.006,0.008,0.009l-5.284,47.219  c-0.01-0.014-0.022-0.026-0.032-0.04l-3.622,32.367c0.012,0.004,0.023,0.009,0.035,0.013c-4.59,42.36-4.79,39.799-4.79,46.668  c-0.132,9.728,4.857,23.609,19.222,27.835c-0.005,0.002-0.01,0.005-0.015,0.007c8.202,2.405,15.286,0.554,35.545,1.267  C279.964,511.796,276.577,511.378,273.683,510.529z"/>
<path style="fill:#DADADA;" d="M370.355,0.069c-0.068,0-0.136,0.002-0.205,0.003c-0.068,0-0.136-0.003-0.205-0.003  c-64.709,0-117.165,52.457-117.165,117.166c0,0.897,0.013,1.792,0.036,2.683c0.032,1.278,0.04,2.554,0.007,3.832  c-1.649,64.775,36.709,113.915,95.488,114.441l41.552,0.372c53.988,0.484,99.435-42.723,97.614-114.789  c-0.033-1.296-0.025-2.59,0.007-3.886C489.122,55,436.761,0.069,370.355,0.069z"/>
<path style="fill:#C0C0C0;" d="M338.437,223.95c-44.005-28.027-46.704-81.64-46.231-100.2c0.032-1.278,0.025-2.554-0.007-3.832  c-0.023-0.892-0.036-1.786-0.036-2.683c0-58.068,42.247-106.262,97.679-115.543c-6.339-1.061-12.846-1.623-19.487-1.623  c-0.068,0-0.136,0.002-0.205,0.003c-0.068,0-0.136-0.003-0.205-0.003c-64.709,0-117.165,52.457-117.165,117.166  c0,0.897,0.013,1.792,0.036,2.683c0.032,1.278,0.04,2.554,0.007,3.832c-1.649,64.775,36.709,113.915,95.488,114.441  c41.686,0.267,42.676,0.634,49.825,0.094C398.137,238.285,365.807,241.382,338.437,223.95z"/>
<g>
	<path style="fill:#3D3937;" d="M294.914,511.796l8.066-152.571c0.225-4.258-3.045-7.893-7.304-8.119   c-4.26-0.267-7.894,3.044-8.12,7.304l-8.109,153.386H294.914z"/>
	<path style="fill:#3D3937;" d="M453.047,358.411c-0.226-4.259-3.857-7.539-8.12-7.304c-4.259,0.225-7.529,3.86-7.304,8.119   l8.065,152.571h15.468L453.047,358.411z"/>
</g>
<g>
	<path style="fill:#DD9A5E;" d="M268.287,130.858c0,11.044,10.69,19.995,23.877,19.995v-39.988   C278.977,110.864,268.287,119.815,268.287,130.858z"/>
	<path style="fill:#DD9A5E;" d="M469.474,130.858c0,11.044-10.691,19.995-23.878,19.995v-39.988   C458.783,110.864,469.474,119.815,469.474,130.858z"/>
</g>
<g>
	<path style="fill:#D38D54;" d="M270.525,122.406c-1.433,2.567-2.238,5.43-2.238,8.452c0,11.044,10.69,19.995,23.877,19.995v-16.905   C282.585,133.947,274.328,129.222,270.525,122.406z"/>
	<path style="fill:#D38D54;" d="M445.596,133.947v16.905c17.607,0,28.958-15.333,21.639-28.447   C463.432,129.222,455.175,133.947,445.596,133.947z"/>
</g>
<path style="fill:#DD9A5E;" d="M429.63,270.119l-25.463-6.339c-1.704-0.772-2.883-3.309-2.883-6.203v-30.332  c-20.438,9.323-41.037,9.709-62.301,0v30.332c0,2.893-1.18,5.431-2.883,6.203l-24.823,6.18v0.009l22.059,27.041  c19.199,23.536,55.159,23.536,74.358,0L429.63,270.119z"/>
<path style="fill:#D38D54;" d="M367.741,234.326c-10.45-0.49-19.777-2.972-28.758-7.081v30.332c0,2.893-1.18,5.431-2.883,6.203  l-24.823,6.18v0.009l22.059,27.041c8.956,10.979,21.558,16.831,34.406,17.567L367.741,234.326L367.741,234.326z"/>
<g>
	<path style="fill:#7F7369;" d="M326.616,288.772l6.72,8.237c19.199,23.536,55.159,23.536,74.358,0l6.72-8.237H326.616z"/>
	<circle style="fill:#7F7369;" cx="370.51" cy="379.948" r="9.258"/>
	<circle style="fill:#7F7369;" cx="370.51" cy="345.306" r="9.258"/>
	<circle style="fill:#7F7369;" cx="370.51" cy="414.601" r="9.258"/>
</g>
<path style="fill:#EDAE6B;" d="M434.302,90.637c6.401,0.546,11.296,5.947,11.296,12.37c0,56.755,0.09,56.975-0.315,61.608  c-3.51,39.155-36.391,69.791-76.403,69.791l0,0l0,0h-0.001l0,0h-0.001l0,0c-41.533,0-76.718-33.557-76.718-76.71v-45.096  c0-5.327,4.059-9.789,9.366-10.258c17.35-1.533,55.294-7.508,83.568-30.789c3.852-3.172,9.471-2.867,12.893,0.765  C404.592,79.33,416.796,89.145,434.302,90.637z"/>
<path style="fill:#DD9A5E;" d="M318.132,157.694c0.136-56.832-0.313-54.854,0.368-57.644c-6.677,1.202-12.511,1.895-16.976,2.29  c-5.307,0.469-9.366,4.931-9.366,10.258c0.023,48.473-0.13,47.144,0.356,52.398c4.109,44.252,45.387,75.829,89.35,68.298  C381.758,233.277,318.132,196.441,318.132,157.694z"/>
<path style="fill:#72655A;" d="M333.335,297.009c14.937,18.31,40.015,22.369,59.456,12.189  c-18.531-3.419-25.051-20.427-25.051-20.427h-41.125L333.335,297.009z"/>
<g>
</g>
<g>
</g>
<g>
</g>
<g>
</g>
<g>
</g>
<g>
</g>
<g>
</g>
<g>
</g>
<g>
</g>
<g>
</g>
<g>
</g>
<g>
</g>
<g>
</g>
<g>
</g>
<g>
</g>
</svg>
