<?xml version="1.0" encoding="iso-8859-1"?>
<!-- Generator: Adobe Illustrator 19.0.0, SVG Export Plug-In . SVG Version: 6.00 Build 0)  -->
<svg xmlns="http://www.w3.org/2000/svg" xmlns:xlink="http://www.w3.org/1999/xlink" version="1.1" id="Capa_1" x="0px" y="0px" viewBox="0 0 512.001 512.001" style="enable-background:new 0 0 512.001 512.001;" xml:space="preserve">
<path style="fill:#7F7369;" d="M409.761,363.854c-7.532-25.087-31.35-29.071-31.836-29.369  c-63.249-18.292-56.108-16.226-56.663-16.387l-26.459-17.452c0-7.356,0-13.614,0-20.959c-0.067,0.031-0.232,0.104-0.268,0.121l0,0  l0,0l0,0v-0.01c-0.007,0.003-0.014,0.007-0.021,0.01l0,0v-0.121c-23.576,10.932-51.654,11.743-76.977,0v0.121h-0.001  c-0.007-0.003-0.014-0.007-0.021-0.01v0.01l0,0l0,0l0,0c-0.039-0.018-0.202-0.09-0.268-0.121c0,0.101,0.002,20.515-0.008,21.142  l-26.041,17.176c-51.017,14.728-57.187,16.513-57.074,16.48c-1.178,0.348-5.51,1.626-5.233,1.544  c-13.996,5.218-24.549,16.359-27.701,32.22C78.153,483.937,79.064,478.268,78.975,482.363  c-0.502,23.832,22.453,21.805,23.341,22.119l0,0c328.991,0,308.604,0.133,311.939-0.24c12.645-1.413,18.732-9.14,18.824-20.88  C433.11,479.822,411.231,368.75,409.761,363.854z"/>
<path style="fill:#6D5E53;" d="M103.973,483.363c-0.053-6.138,22.713-127.333,23.161-128.947  c2.388-8.595,7.488-16.412,15.643-22.431c-0.1,0.029-8.376,2.419-8.259,2.385c-0.101,0.03-0.502,0.148-0.396,0.117  c-1.178,0.348-5.51,1.626-5.233,1.544c-14.372,5.358-24.624,16.725-27.701,32.22c-2.217,11.132-20.193,101.417-21.856,109.772  c-2.362,16.676,6.038,26.566,22.985,26.46h25.005C111.718,504.482,104.077,496.593,103.973,483.363z"/>
<path style="fill:#C0C0C0;" d="M321.262,318.099l-26.459-17.452c0-7.356,0-13.614,0-20.959c-0.067,0.031-0.232,0.104-0.268,0.121  l0,0l0,0l0,0v-0.01c-0.007,0.003-0.014,0.007-0.021,0.01l0,0v-0.121c-23.576,10.932-51.654,11.743-76.977,0v0.121h-0.001  c-0.007-0.003-0.014-0.007-0.021-0.01v0.01l0,0l0,0l0,0c-0.039-0.018-0.202-0.09-0.268-0.121c0,0.101,0.002,20.515-0.008,21.142  l-26.041,17.176l-21.827,6.285l32.077,53.068c24.865,41.136,84.481,41.288,109.555,0.279l32.475-53.115L321.262,318.099z"/>
<path style="fill:#AFAFB2;" d="M223.273,370.48l-31.82-52.643l-0.256,0.169l-21.827,6.285l32.077,53.068  c18.558,30.703,56.473,38.57,84.938,23.536C262.593,403.928,237.358,393.782,223.273,370.48z"/>
<g>
	<path style="fill:#DADADA;" d="M321.262,318.099l-30.927,51.176c-2.75,4.549-8.839,5.704-13.063,2.479l-21.113-16.125   l38.644-54.981L321.262,318.099z"/>
	<path style="fill:#DADADA;" d="M191.197,318.006l30.786,51.268c2.749,4.549,8.839,5.704,13.063,2.479l21.114-16.125l-38.922-54.798   L191.197,318.006z"/>
</g>
<path style="fill:#DD9A5E;" d="M294.803,276.688c-0.065,0.03-0.248,0.111-0.268,0.121l0,0l0,0l0,0v-0.01  c-0.007,0.003-0.014,0.007-0.021,0.01l0,0v-0.121c-23.574,10.931-51.653,11.744-76.977,0v0.121h-0.001  c-0.007-0.003-0.014-0.007-0.021-0.01v0.01l0,0l0,0l0,0c-0.014-0.007-0.212-0.095-0.268-0.121  c-0.01,33.084-0.007,21.674-0.008,24.142l38.922,54.798l38.644-54.981C294.803,291.845,294.803,285.675,294.803,276.688z"/>
<path style="fill:#D38D54;" d="M255.736,285.189c-13.644-0.061-26.574-3.11-38.202-8.502v0.121h-0.001  c-0.007-0.003-0.014-0.007-0.021-0.01v0.01l0,0l0,0l0,0c-0.014-0.007-0.212-0.095-0.268-0.121  c-0.01,33.084-0.007,21.674-0.008,24.142l38.5,54.203V285.189z"/>
<path style="fill:#DADADA;" d="M255.314,8.502c-30.91,0-58.968,11.211-79.612,31.073c0,0-62.214,10.814-38.942,117.617h237.952  c23.272-106.803-38.942-118.281-38.942-118.281c-20.645-19.862-48.702-30.409-79.612-30.409"/>
<path style="fill:#C0C0C0;" d="M175.243,39.67c-5.583,1.236-60.586,16.087-38.483,117.523h33.64  C142.74,89.055,160.127,54.992,175.243,39.67z"/>
<g>
	<path style="fill:#DD9A5E;" d="M135.603,164.194c0,13.235,13.812,23.962,29.615,23.962v-47.923   C149.415,140.232,135.603,150.96,135.603,164.194z"/>
	<path style="fill:#DD9A5E;" d="M376.714,164.194c0,13.235-13.812,23.962-29.616,23.962v-47.923   C362.901,140.232,376.714,150.96,376.714,164.194z"/>
</g>
<g>
	<path style="fill:#D38D54;" d="M138.913,153.351c-2.1,3.257-3.31,6.939-3.31,10.841c0,13.235,13.812,23.962,29.615,23.962V166.47   C154.077,166.471,143.932,161.135,138.913,153.351z"/>
	<path style="fill:#D38D54;" d="M347.097,166.471v21.685c15.805,0,29.616-10.727,29.616-23.962c0-3.903-1.209-7.585-3.31-10.841   C368.385,161.135,358.239,166.471,347.097,166.471z"/>
</g>
<path style="fill:#EDAE6B;" d="M348.48,126.846l-0.002,0.001v-0.002c0.001-0.1,0.006-0.229-0.001-0.511  c-0.004-0.214-0.017-0.545-0.036-0.84c-0.007-0.114-0.046-0.618-0.037-0.516c-0.384-4.708-2.72-17.416-16.292-27.182  c-0.004-0.002-0.007-0.005-0.011-0.008c-0.556-0.4-1.132-0.794-1.727-1.184c-0.02-0.013-0.041-0.026-0.062-0.04  c-0.595-0.388-1.207-0.771-1.842-1.146l0.008-0.007c0,0-20.674-14.384-6.724-34.666c3.915-5.452,1.135-1.398,14.4-22.217  C291.615-3.614,221.006-3.31,176.086,39.191c0.053,0.13,0.143,0.245,0.249,0.352l9.989,14.156l0.002-0.006  c1.841,2.67,2.683,3.827,4.996,7.051c13.951,20.281-6.724,34.666-6.724,34.666l0.008,0.007c-21,12.442-19.959,31.277-20.007,31.431  l-0.001-0.001l-0.001-0.001c0.028,75.263-0.113,71.255,0.349,77.066c4.337,54.661,56.941,93.904,111.558,81.826  c41.908-9.271,71.979-46.45,71.979-89.767v-69.126L348.48,126.846z"/>
<path style="fill:#DD9A5E;" d="M229.803,271.97c-50.276-34.303-40.153-83.891-40.2-145.125l0.001,0.001l0.001,0.001v-0.002  c0,0-0.001-0.069-0.002-0.169c0-0.021,0-0.034,0-0.059c0-0.052,0.001-0.116,0.002-0.186c0-0.033,0.001-0.061,0.001-0.098  c0.001-0.082,0.005-0.174,0.008-0.276c0.001-0.034,0.002-0.066,0.004-0.103c0.005-0.115,0.011-0.238,0.019-0.374  c0.002-0.029,0.004-0.058,0.006-0.088c0.009-0.152,0.021-0.313,0.035-0.488c0.001-0.009,0.002-0.019,0.003-0.028  c0.884-10.836,7.437-22.16,19.934-29.561l-0.008-0.007c0,0,20.674-14.385,6.724-34.666c-2.745-3.823-3.232-4.491-4.996-7.051  l-0.002,0.006l0.002-0.006c-0.054-0.054-2.67-3.746-5.244-7.391c-2.937-4.158-2.128-9.883,1.84-13.071  c16.939-13.603,38.442-22.908,61.246-25.424c-35.539-3.857-69.73,9.28-93.088,31.382c0.249,0.608,10.152,14.387,10.237,14.508  l0.002-0.006c1.755,2.546,2.199,3.155,4.996,7.051c13.95,20.281-6.724,34.666-6.724,34.666l0.008,0.007  c-12.495,7.401-19.049,18.722-19.934,29.561c-0.001,0.009-0.002,0.019-0.003,0.028c-0.019,0.239-0.027,0.357-0.04,0.576  c-0.008,0.148-0.018,0.328-0.022,0.477c-0.006,0.191-0.008,0.223-0.01,0.374c-0.002,0.108-0.002,0.132-0.002,0.245  c0.001,0.067,0.002,0.138,0.002,0.171l-0.001-0.001l-0.001-0.001c0.1,84.344,0.286,77.347,0.768,81.064  c6.462,49.818,52.352,86.121,103.677,79.141C256.965,285.628,242.42,280.571,229.803,271.97z"/>
<path style="fill:#DADADA;" d="M325.551,222.737c-6.919-2.585-17.152-7.354-24.777-14.978  c-12.206-12.205-31.268-20.915-43.994-10.059c-0.24,0.205-0.442,0.442-0.621,0.695c-0.179-0.253-0.381-0.49-0.621-0.695  c-12.727-10.855-31.788-2.146-43.994,10.059c-7.625,7.625-17.859,12.394-24.778,14.978c-3.009,1.123-3.282,5.262-0.455,6.787  c37.023,19.951,63.518-1.122,69.348-6.47c0.188-0.172,0.354-0.362,0.5-0.565c0.146,0.203,0.313,0.393,0.5,0.565  c5.828,5.348,32.324,26.422,69.348,6.47C328.833,227.999,328.56,223.86,325.551,222.737z"/>
<path style="fill:#C0C0C0;" d="M326.013,229.518c-0.054-0.001-0.1,0.01-0.156,0.005c-38.433-3.334-48.762-9.676-63.381-18.561l0,0  c-6.97-3.142-12.65-0.027-12.783,0c-14.619,8.885-24.949,15.226-63.381,18.561c37.023,19.951,63.519-1.122,69.348-6.47  c0.188-0.172,0.354-0.362,0.5-0.565c0.146,0.203,0.313,0.393,0.5,0.565c5.828,5.348,32.324,26.422,69.348,6.47  c0.008-0.005,0.013-0.012,0.022-0.016C326.022,229.51,326.019,229.514,326.013,229.518z"/>
<circle cx="256.406" cy="439.737" r="8.993"/>
<circle cx="256.406" cy="473.394" r="8.992"/>
<path d="M364.597,418.774c-4.144,0-7.502,3.358-7.502,7.502v70.705h-20.989c-4.144,0-7.502,3.358-7.502,7.502  c0,4.144,3.358,7.502,7.502,7.502c78.08-0.097,74.451,0.218,78.97-0.286c16.974-1.899,25.785-13.344,25.484-29.496  c-0.112-5.151-22.023-113.944-22.616-116.589c-1.008-4.645-2.784-9.687-5.189-13.876l0.002-0.001  c-5.687-10.582-15.916-18.634-27.005-22.738c-2.884-1.079-61.209-17.755-61.324-17.788l-22.137-14.601v-12.15  c32.283-16.968,51.634-50.266,53.162-83.188l0,0l0.009-0.107c0.096-1.395,0.122-6.089,0.124-6.192  c21.334-3.943,33.9-23.476,26.489-41.406c3.969-18.283,5.736-34.961,5.247-49.568c-0.139-4.141-3.634-7.392-7.749-7.247  c-4.141,0.139-7.386,3.608-7.247,7.749c0.346,10.318-0.571,21.875-2.706,34.456c-4.098-2.661-8.864-4.579-14.035-5.535  c-0.042-4.462,2.302-25.639-19.476-41.318c-0.011-0.008-0.021-0.016-0.032-0.023c-0.915-0.657-1.873-1.292-2.083-1.424  c-9.828-6.419-13.016-15.681-6.495-25.216c3.281-4.634,7.878-10.751,11.534-17.504c6.455,1.914,19.12,7.749,26.827,24.99  c1.245,2.788,3.984,4.442,6.853,4.442c1.023,0,2.063-0.211,3.058-0.655c3.782-1.689,5.478-6.127,3.787-9.909  c-11.694-26.163-32.722-32.705-40.31-34.248c-46.009-42.63-119.365-44.176-167.049,0.003c-6.22,1.272-21.49,5.92-33.251,21.999  c-15.927,21.773-19.131,55.159-9.527,99.234c0.077,0.352,0.193,0.684,0.315,1.012c-6.361,17.678,6.221,36.331,26.964,40.168  c0.207,37.577,19.61,71.671,53.033,89.349v12.469c-7.848,5.176-13.874,9.151-21.655,14.283  c-57.754,16.701-76.052,18.119-88.596,40.278c-6.251,11.433-4.697,10.618-27.517,125.21c-0.027,0.135-0.05,0.271-0.069,0.406  c-2.629,18.38,6.058,32.608,25.058,34.736c4.623,0.515-6.105,0.186,203.575,0.285c4.144,0,7.502-3.358,7.502-7.502  c0-4.144-3.358-7.502-7.502-7.502H155.193v-70.705c0-4.144-3.358-7.502-7.502-7.502s-7.502,3.358-7.502,7.502v70.705  c-39.455-0.064-38.522,0.146-41.575-0.192c-8.67-0.972-13.505-5.666-11.897-17.515c24.187-120.705,21.478-110.767,24.522-117.998  c2.499-5.663,7.104-11.019,13.61-15.003l0.001,0.002c8.445-4.877,7.847-2.903,41.061-13.179l15.491,25.629  c2.144,3.547,6.758,4.681,10.301,2.54c3.546-2.144,4.683-6.755,2.54-10.301l-13.409-22.182l6.724-1.943l27.99,46.317  c5.058,8.371,16.274,10.487,24.035,4.561l16.561-12.648l16.561,12.648c2.884,2.203,6.401,3.371,9.98,3.371  c1.019,0,2.042-0.095,3.058-0.287c4.579-0.868,8.588-3.655,10.998-7.645l27.95-46.251l7.242,2.094l-27.347,44.727  c-20.944,34.255-68.612,35.687-92.314,6.093c-2.59-3.234-7.31-3.757-10.544-1.165c-3.234,2.59-3.756,7.311-1.166,10.544  c29.902,37.334,90.207,35.887,116.824-7.647l29.491-48.232c31.567,9.158,33.288,8.817,40.436,13.041h0.001  c0.042,0.024,0.082,0.048,0.12,0.069v-0.001c3.544,2.286,3.869,2.778,5.3,3.93l-0.117-0.095c5.921,5.746,6.322,7.828,6.975,8.669  c0.052,0.102,1.22,2.392,1.145,2.245c1.505,3.308,1.989,5.332,2.767,8.608c23.403,117.908,22.104,109.526,22.062,113.519  c-0.133,17.009-11.835,13.609-53.465,13.677v-70.705C372.098,422.132,368.74,418.774,364.597,418.774z M256.144,342.584  l-31.412-44.694v-7.177c19.367,6.599,42.341,6.882,62.555,0.089v7.473L256.144,342.584z M369.197,164.193  c0,7.018-5.662,13.024-13.611,15.387v-30.772C363.536,151.171,369.197,157.176,369.197,164.193z M150.827,63.725  c7.744-10.77,17.37-14.653,22.311-16.002c3.376,6.277,7.542,11.985,11.648,17.716c6.583,9.628,3.18,19.101-6.592,25.274  c-13.613,8.933-20.916,22.534-21.45,34.822c-0.033,0.77-0.037,0.576-0.047,1.466c0,0.046,0,0.157,0,0.229v6.189  c-5.493,1.016-10.524,3.126-14.789,6.05C136.158,105.953,139.192,79.907,150.827,63.725z M156.696,148.81v30.769  C138.591,174.192,138.597,154.195,156.696,148.81z M171.7,126.92L171.7,126.92c-0.009-0.302-0.008-0.273,0-0.002  c0.302-14.197,13.126-22.473,13.262-22.66c2.127-1.527,3.122-1.943,3.967-2.627c14.592-10.864,19.251-29.396,8.087-44.882  c-3.631-5.07-7.62-10.491-10.605-16.015c40.447-34.618,99.865-33.999,139.458,0.001c-1.883,3.53-4.58,7.523-6.829,10.726l0,0  l-0.084,0.118c-1.193,1.7-2.204,3.095-3.693,5.173c-11.193,15.67-6.429,34.061,8.083,44.872c0.283,0.229,0.585,0.44,0.903,0.629  c1.34,0.793,2.718,1.732,3.102,2.025c13.346,9.615,13.176,22.319,13.228,22.472h-0.002c0-0.447,0.005,5.359,0.006,61.422  c-0.332,5.08,1.534,19.006-5.15,37.241c-0.321-4.433-3.103-8.15-7.27-9.707c-6.439-2.406-15.499-6.658-22.098-13.256  c-13.485-13.483-34.096-22.632-49.919-13.474c-15.82-9.16-36.436-0.011-49.919,13.474c-6.599,6.598-15.66,10.85-22.097,13.255  c-4.174,1.558-6.958,5.282-7.273,9.723C169.678,205.867,171.7,193.217,171.7,126.92z M261.956,217.744  c-1.419-1.739-3.551-2.758-5.811-2.758c-0.004,0-0.008,0-0.012,0c-2.259,0.004-4.386,1.023-5.802,2.761  c-5.953,5.371-25.339,19.664-53.032,8.658c6.454-3.085,13.626-7.434,19.535-13.341c8.263-8.263,23.907-17.614,33.506-9.916  c2.418,2.953,5.905,2.772,5.804,2.749c2.257,0,4.383-1.015,5.802-2.747c9.597-7.7,25.246,1.65,33.509,9.914  c5.908,5.907,13.08,10.256,19.534,13.341C287.293,237.412,267.91,223.116,261.956,217.744z M189.958,248.805  c-6.209-7.994-8.483-13.121-8.892-13.793c3.75,2.998,19.543,10.412,36.125,10.41c18.136-0.002,31.82-7.847,38.953-13.107  c7.134,5.263,20.813,13.108,38.952,13.108c15.43-0.001,31.819-6.98,36.112-10.399C300.625,291.838,226.554,294.772,189.958,248.805z   M229.344,366.06c-1.304-0.25,0.493,1.219-28.152-45.668l14.359-9.471l30.31,43.124C230.073,365.788,230.581,366.294,229.344,366.06  z M283.901,365.396c-0.272,0.45-0.67,0.609-0.955,0.664c-0.287,0.055-0.714,0.053-1.134-0.269l-15.383-11.748l30.31-43.125  l14.36,9.472L283.901,365.396z"/>
<path d="M97.56,355.113c0.003-0.005,0.006-0.012,0.009-0.018c0.001-0.003,0.002-0.006,0.003-0.008  C97.568,355.096,97.564,355.105,97.56,355.113z"/>
<g>
</g>
<g>
</g>
<g>
</g>
<g>
</g>
<g>
</g>
<g>
</g>
<g>
</g>
<g>
</g>
<g>
</g>
<g>
</g>
<g>
</g>
<g>
</g>
<g>
</g>
<g>
</g>
<g>
</g>
</svg>
