<?xml version="1.0" encoding="iso-8859-1"?>
<!-- Generator: Adobe Illustrator 19.0.0, SVG Export Plug-In . SVG Version: 6.00 Build 0)  -->
<svg xmlns="http://www.w3.org/2000/svg" xmlns:xlink="http://www.w3.org/1999/xlink" version="1.1" id="Capa_1" x="0px" y="0px" viewBox="0 0 512 512" style="enable-background:new 0 0 512 512;" xml:space="preserve">
<path style="fill:#7F7369;" d="M414.268,367.216c-7.753-25.824-32.271-29.924-32.771-30.232  c-65.108-18.829-57.755-16.703-58.327-16.868l-27.237-17.965c0-7.571,0-14.014,0-21.574c-0.069,0.032-0.239,0.107-0.276,0.124l0,0  l0,0l0,0v-0.01c-0.007,0.003-0.015,0.007-0.022,0.01h-0.001v-0.125c-24.269,11.254-53.171,12.088-79.239,0v0.125h-0.001  c-0.007-0.003-0.015-0.007-0.022-0.01v0.01l0,0l0,0l0,0c-0.04-0.019-0.208-0.093-0.276-0.124c0,0.104,0.002,21.118-0.008,21.763  l-26.805,17.681c-52.516,15.162-58.868,16.998-58.751,16.963c-1.212,0.358-5.673,1.675-5.387,1.59  c-14.408,5.372-25.27,16.839-28.515,33.168c-23.71,119.085-22.774,113.251-22.865,117.465  c-0.517,24.533,23.112,22.445,24.027,22.769l0,0c338.656,0,317.671,0.137,321.103-0.247c13.016-1.455,19.283-9.409,19.378-21.493  C438.303,486.591,415.781,372.257,414.268,367.216z"/>
<path style="fill:#6D5E53;" d="M99.497,490.236c-0.054-6.319,23.38-131.073,23.842-132.736c2.458-8.848,7.707-16.893,16.102-23.089  c-0.103,0.03-8.622,2.489-8.502,2.455c-0.104,0.031-0.517,0.152-0.407,0.12c-1.212,0.358-5.673,1.675-5.387,1.59  c-14.795,5.516-25.347,17.215-28.515,33.168c-2.282,11.459-20.787,104.396-22.499,112.997c-2.431,17.165,6.216,27.347,23.659,27.238  h25.739C107.469,511.976,99.604,503.855,99.497,490.236z"/>
<path style="fill:#C0C0C0;" d="M323.169,320.117l-27.237-17.965c0-7.571,0-14.014,0-21.574c-0.069,0.032-0.239,0.107-0.276,0.124  l0,0l0,0l0,0v-0.01c-0.007,0.003-0.015,0.007-0.022,0.01h-0.001v-0.125c-24.269,11.254-53.171,12.088-79.239,0v0.125h-0.001  c-0.007-0.003-0.015-0.007-0.022-0.01v0.01l0,0l0,0l0,0c-0.04-0.019-0.208-0.093-0.276-0.124c0,0.104,0.002,21.118-0.008,21.763  l-26.805,17.681l-22.468,6.47l33.019,54.626c25.595,42.344,86.963,42.5,112.774,0.287l33.43-54.675L323.169,320.117z"/>
<path style="fill:#AFAFB2;" d="M222.302,374.037l-32.755-54.19l-0.264,0.174l-22.468,6.47l33.019,54.626  c19.103,31.605,58.131,39.703,87.433,24.228C262.776,408.467,236.8,398.023,222.302,374.037z"/>
<g>
	<circle style="fill:#6D5E53;" cx="256.421" cy="445.331" r="9.257"/>
	<circle style="fill:#6D5E53;" cx="256.421" cy="479.982" r="9.257"/>
	<path style="fill:#6D5E53;" d="M144.514,423.749c-4.264,0-7.722,3.457-7.722,7.722v80.504c7,0,10.888,0,15.444,0v-80.504   C152.236,427.206,148.779,423.749,144.514,423.749z"/>
	<path style="fill:#6D5E53;" d="M375.514,431.472c0-4.265-3.457-7.722-7.722-7.722c-4.265,0-7.722,3.457-7.722,7.722v80.504   c5.529,0,9.919,0,15.444,0v-80.504H375.514z"/>
</g>
<g>
	<path style="fill:#DADADA;" d="M323.169,320.117l-31.835,52.68c-2.83,4.682-9.099,5.872-13.446,2.551l-21.734-16.598l39.78-56.597   L323.169,320.117z"/>
	<path style="fill:#DADADA;" d="M189.283,320.021l31.691,52.775c2.83,4.682,9.099,5.872,13.446,2.551l21.734-16.598l-40.066-56.408   L189.283,320.021z"/>
</g>
<path style="fill:#DD9A5E;" d="M295.932,277.49c-0.067,0.031-0.256,0.115-0.276,0.124l0,0l0,0l0,0v-0.01  c-0.007,0.003-0.015,0.007-0.022,0.01h-0.001v-0.125c-24.267,11.253-53.17,12.089-79.239,0v0.125h-0.001  c-0.007-0.003-0.015-0.007-0.022-0.01v0.01l0,0l0,0l0,0c-0.015-0.007-0.218-0.097-0.276-0.124  c-0.011,34.057-0.007,22.31-0.008,24.852l40.066,56.408l39.78-56.597C295.932,293.092,295.932,286.741,295.932,277.49z"/>
<path style="fill:#D38D54;" d="M255.719,286.241c-14.044-0.063-27.355-3.201-39.323-8.752v0.125h-0.001  c-0.007-0.003-0.015-0.007-0.022-0.01v0.01l0,0l0,0l0,0c-0.015-0.007-0.218-0.097-0.276-0.124  c-0.011,34.057-0.007,22.31-0.008,24.852l39.631,55.796L255.719,286.241L255.719,286.241z"/>
<path style="fill:#DADADA;" d="M255.284,1.426c-31.818,0-60.7,11.54-81.951,31.986c0,0-64.041,11.133-40.086,121.073H378.19  c23.956-109.941-40.086-121.757-40.086-121.757c-21.25-20.446-50.133-31.303-81.95-31.303"/>
<path style="fill:#C0C0C0;" d="M172.861,33.509c-5.747,1.272-62.366,16.559-39.614,120.976h34.628  C139.403,84.345,157.301,49.282,172.861,33.509z"/>
<g>
	<path style="fill:#DD9A5E;" d="M132.057,161.69c0,13.624,14.217,24.667,30.485,24.667v-49.331   C146.274,137.026,132.057,148.068,132.057,161.69z"/>
	<path style="fill:#DD9A5E;" d="M380.249,161.69c0,13.624-14.218,24.667-30.486,24.667v-49.331   C366.032,137.026,380.249,148.068,380.249,161.69z"/>
</g>
<g>
	<path style="fill:#D38D54;" d="M135.463,150.53c-2.162,3.352-3.406,7.142-3.406,11.161c0,13.624,14.217,24.667,30.485,24.667   v-22.322C151.073,164.035,140.63,158.542,135.463,150.53z"/>
	<path style="fill:#D38D54;" d="M349.764,164.035v22.322c16.268,0,30.486-11.042,30.486-24.667c0-4.018-1.244-7.808-3.406-11.161   C371.676,158.542,361.233,164.035,349.764,164.035z"/>
</g>
<path style="fill:#EDAE6B;" d="M351.187,123.246l-0.002,0.001v-0.002c0.001-0.103,0.006-0.235-0.001-0.526  c-0.004-0.22-0.018-0.561-0.037-0.865c-0.007-0.117-0.047-0.637-0.038-0.531c-0.395-4.847-2.799-17.927-16.77-27.981  c-0.004-0.002-0.008-0.005-0.011-0.008c-0.573-0.412-1.165-0.818-1.779-1.219c-0.021-0.014-0.042-0.027-0.064-0.041  c-0.612-0.4-1.243-0.793-1.897-1.18l0.008-0.007c0,0-21.282-14.808-6.921-35.684c4.029-5.613,1.168-1.439,14.823-22.869  c-45.848-43.379-118.533-43.066-164.771,0.683c0.055,0.134,0.147,0.252,0.256,0.363l10.282,14.572l0.002-0.006  c1.896,2.749,2.762,3.939,5.143,7.258c14.361,20.877-6.921,35.684-6.921,35.684l0.008,0.007  c-21.616,12.808-20.546,32.195-20.596,32.354l-0.002-0.001l-0.001-0.001c0.028,77.474-0.117,73.349,0.359,79.33  c4.464,56.267,58.614,96.663,114.835,84.231c43.139-9.543,74.093-47.815,74.093-92.404v-71.157H351.187z"/>
<path style="fill:#DD9A5E;" d="M229.022,272.632c-51.753-35.31-41.332-86.355-41.381-149.387l0.001,0.001l0.001,0.001v-0.002  c0,0-0.001-0.071-0.002-0.174c0-0.022,0-0.035,0-0.061c0-0.053,0.001-0.119,0.002-0.191c0-0.034,0.001-0.063,0.001-0.101  c0.001-0.085,0.005-0.179,0.008-0.284c0.001-0.035,0.002-0.068,0.004-0.106c0.005-0.118,0.011-0.245,0.019-0.385  c0.002-0.03,0.004-0.06,0.006-0.091c0.009-0.156,0.021-0.322,0.036-0.502c0.001-0.009,0.002-0.019,0.003-0.029  c0.91-11.155,7.655-22.81,20.52-30.43l-0.008-0.007c0,0,21.282-14.808,6.921-35.684c-2.825-3.935-3.326-4.623-5.143-7.258  l-0.002,0.006l0.002-0.006c-0.055-0.056-2.748-3.856-5.398-7.607c-3.023-4.28-2.191-10.173,1.895-13.454  c17.435-14,39.569-23.578,63.044-26.168c-36.583-3.97-71.778,9.553-95.823,32.304c0.257,0.626,10.45,14.811,10.538,14.935  l0.002-0.006c1.807,2.62,2.264,3.247,5.143,7.258c14.361,20.877-6.921,35.684-6.921,35.684l0.008,0.007  c-12.862,7.617-19.609,19.272-20.52,30.43c-0.001,0.009-0.002,0.019-0.003,0.029c-0.02,0.246-0.027,0.367-0.041,0.593  c-0.008,0.152-0.018,0.337-0.023,0.49c-0.007,0.196-0.008,0.229-0.01,0.385c-0.002,0.112-0.002,0.136-0.002,0.252  c0.001,0.069,0.002,0.142,0.002,0.175l-0.001-0.001l-0.001-0.001c0.102,86.822,0.294,79.62,0.79,83.446  c6.652,51.281,53.889,88.652,106.723,81.466C256.983,286.693,242.011,281.486,229.022,272.632z"/>
<path style="fill:#DADADA;" d="M327.585,221.953c-7.122-2.66-17.656-7.569-25.505-15.419  c-12.564-12.564-32.186-21.529-45.286-10.354c-0.247,0.211-0.455,0.455-0.64,0.715c-0.184-0.26-0.393-0.504-0.639-0.715  c-13.1-11.175-32.722-2.21-45.286,10.354c-7.849,7.849-18.383,12.758-25.505,15.419c-3.097,1.156-3.378,5.417-0.468,6.985  c38.111,20.538,65.385-1.155,71.385-6.66c0.193-0.177,0.364-0.372,0.514-0.581c0.151,0.209,0.322,0.405,0.515,0.581  c6,5.505,33.274,27.199,71.385,6.66C330.963,227.371,330.682,223.11,327.585,221.953z"/>
<path style="fill:#C0C0C0;" d="M328.06,228.934c-0.055-0.001-0.103,0.01-0.161,0.005c-39.562-3.432-50.195-9.96-65.244-19.106l0,0  c-7.174-3.234-13.021-0.028-13.158,0c-15.049,9.146-25.682,15.674-65.243,19.106c38.111,20.538,65.385-1.155,71.385-6.66  c0.193-0.177,0.364-0.372,0.515-0.582c0.151,0.209,0.322,0.405,0.515,0.582c6,5.505,33.274,27.198,71.385,6.66  c0.009-0.005,0.014-0.012,0.023-0.017C328.07,228.926,328.066,228.931,328.06,228.934z"/>
<g>
</g>
<g>
</g>
<g>
</g>
<g>
</g>
<g>
</g>
<g>
</g>
<g>
</g>
<g>
</g>
<g>
</g>
<g>
</g>
<g>
</g>
<g>
</g>
<g>
</g>
<g>
</g>
<g>
</g>
</svg>
