<?xml version="1.0" encoding="iso-8859-1"?>
<!-- Generator: Adobe Illustrator 19.0.0, SVG Export Plug-In . SVG Version: 6.00 Build 0)  -->
<svg xmlns="http://www.w3.org/2000/svg" xmlns:xlink="http://www.w3.org/1999/xlink" version="1.1" id="Capa_1" x="0px" y="0px" viewBox="0 0 511.996 511.996" style="enable-background:new 0 0 511.996 511.996;" xml:space="preserve">
<path style="fill:#7F7369;" d="M265.759,318.711c-1.188-9.74-3.353-17.888-9.898-25.854c0.004-0.005,0.007-0.009,0.011-0.014  c-14.807-18.002-36.068-17.626-56.493-23.948l-2.114-0.526l-21.838-13.522v-21.941c-19.003,8.408-41.223,8.52-60.491,0l0.099,21.941  L93.099,268.37l-2.114,0.526c-21.724,5.988-32.188,6.356-44.391,13.665l-0.36,0.089c-3.461,2.113-8.538,6.301-11.742,10.194  c0.004,0.005,0.007,0.01,0.011,0.014c-12.959,15.769-8.181,21.73-26.915,177.914c-0.132,1.525-0.224,3.377-0.189,5.416  c0,0.012,0,0.023,0,0.035c-0.151,11.145,6.621,27.901,27.103,28.251c0.097,0.002,0.545,0.014,0.647,0.017  c225.23,0,220.815-0.018,220.715-0.017c17.671-0.302,27.351-13.766,27.102-28.286C283.067,470.271,283.521,478.845,265.759,318.711z  "/>
<path style="fill:#6D5E53;" d="M32.683,470.771C50.317,302.697,49.197,307.54,50.926,299.182c1.474-7.13,4.485-13.23,8.672-18.325  c-0.004-0.005-0.007-0.01-0.011-0.014c1.656-2.011,3.574-3.879,5.425-5.481c-0.752,0.245-9.35,1.768-18.416,7.199l-0.36,0.089  c-3.461,2.113-8.538,6.302-11.742,10.194c0.004,0.005,0.007,0.009,0.011,0.014c-12.972,15.785-8.19,21.824-26.915,177.914  c-0.216,2.494-0.19,4.027-0.19,5.451c-0.151,11.145,6.621,27.901,27.103,28.251c-0.003,0-0.006,0.001-0.009,0.001  c0.099,0.002,0.557,0.014,0.655,0.016h25.07C43.176,504.49,30.821,492.297,32.683,470.771z"/>
<path style="fill:#C0C0C0;" d="M199.379,268.896l-2.114-0.526l-21.838-13.522v-21.941c-18.685,8.267-41.022,8.605-60.468,0.159  l-0.023,0.017l0.099,21.765L93.099,268.37l-2.114,0.526l-18.124,4.512l-0.002,0.006l24.349,40.283  c21.779,36.03,73.995,36.163,95.956,0.244l24.724-40.437L199.379,268.896z"/>
<path style="fill:#AFAFB2;" d="M115.093,304.946l-22.094-36.551l-2.014,0.501l-18.124,4.512l-0.002,0.006l24.349,40.283  c17.837,29.509,56.083,34.922,81.411,16.187C155.604,336.39,129.077,328.081,115.093,304.946z"/>
<g>
	<path style="fill:#DADADA;" d="M197.265,268.37l-24.692,41.27c-2.195,3.632-7.057,4.554-10.429,1.979l-16.857-12.874l30.14-43.897   L197.265,268.37z"/>
	<path style="fill:#DADADA;" d="M93.1,268.37l24.99,41.27c2.195,3.632,7.057,4.554,10.429,1.979l16.857-12.874l-30.338-43.897   L93.1,268.37z"/>
</g>
<path style="fill:#DD9A5E;" d="M114.96,230.066l-0.023,0.017l0.099,24.765l30.338,43.897l30.053-43.897v-24.941  C156.85,238.127,134.582,238.589,114.96,230.066z"/>
<path style="fill:#D38D54;" d="M145.375,236.258c-10.184,0.079-20.646-1.949-30.414-6.192l-0.023,0.017l0.099,24.765l30.338,43.897  l0,0V236.258z"/>
<path style="fill:#DADADA;" d="M144.316,8.355c-25.502,0-48.649,9.249-65.681,25.636c0,0-51.327,8.922-32.127,97.036h196.315  c19.2-88.114-32.127-97.584-32.127-97.584c-17.033-16.386-40.18-25.088-65.682-25.088"/>
<path style="fill:#C0C0C0;" d="M78.453,34.027c-3.267,0.672-50.485,11.914-31.945,97h25.461  C57.966,79.48,66.587,50.277,78.453,34.027z"/>
<g>
	<path style="fill:#DD9A5E;" d="M45.553,136.803c0,10.92,11.395,19.77,24.433,19.77v-39.537   C56.948,117.035,45.553,125.885,45.553,136.803z"/>
	<path style="fill:#DD9A5E;" d="M244.472,136.803c0,10.92-11.395,19.77-24.434,19.77v-39.537   C233.078,117.035,244.472,125.885,244.472,136.803z"/>
</g>
<g>
	<path style="fill:#D38D54;" d="M48,128.303c-1.559,2.575-2.446,5.456-2.446,8.499c0,10.92,11.395,19.77,24.433,19.77v-17   C60.583,139.573,52.035,134.967,48,128.303z"/>
	<path style="fill:#D38D54;" d="M220.039,139.573v17c17.294,0,30.021-15.002,21.988-28.268   C237.991,134.967,229.444,139.573,220.039,139.573z"/>
</g>
<path style="fill:#EDAE6B;" d="M220.863,106.308l-0.001,0.001v-0.002c0.001-0.056,0.002-0.103,0.002-0.188  c0-0.046-0.002-0.206-0.003-0.234c-0.002-0.087-0.007-0.248-0.01-0.312c-0.004-0.101-0.013-0.281-0.02-0.381  c-0.006-0.1-0.039-0.526-0.031-0.426c-0.317-3.884-2.243-14.368-13.441-22.426c-0.003-0.002-0.006-0.004-0.009-0.007  c-0.459-0.33-0.934-0.656-1.425-0.977c-0.017-0.011-0.034-0.022-0.051-0.033c-0.491-0.32-0.996-0.636-1.52-0.946l0.006-0.006  c0,0-17.057-11.868-5.547-28.599c0.488-0.679,0.982-1.366,1.478-2.058c0.035-0.05,0.07-0.098,0.106-0.148  c0.214-0.299,0.429-0.604,0.643-0.906l7.794-12.285c0.02-0.038,0.04-0.078,0.06-0.117l1.8-2.816  c-36.745-34.765-95-34.514-132.059,0.549c0.044,0.107,0.118,0.202,0.205,0.291l8.241,11.679l0.002-0.005  c1.523,2.209,2.426,3.454,4.122,5.817c11.51,16.732-5.547,28.599-5.547,28.599l0.007,0.006  c-17.168,10.169-16.445,25.831-16.507,25.931l-0.001-0.001l-0.001-0.001c0.022,59.98-0.119,59.198,0.352,64.249  c8.327,89.619,143.626,92.79,151.068-0.668c0.442-5.662,0.234-0.812,0.288-63.581L220.863,106.308z"/>
<path style="fill:#DD9A5E;" d="M94.131,164.753c-0.069-3.212-0.007,6.983-0.032-58.446l0.001,0.001l0.001,0.001  c0.062-0.1-0.66-15.769,16.507-25.931l-0.006-0.006c0,0,17.057-11.868,5.547-28.599c-2.847-3.964-2.133-2.93-4.122-5.817  l-0.002,0.005l0.002-0.005c-0.031-0.032-1.1-1.536-2.467-3.467c-3.543-5.005-2.448-11.931,2.474-15.588  c12.956-9.628,28.791-16.301,45.571-18.54c-29.987-3.942-58.927,6.814-78.712,25.387c-0.02,0.195-0.034,0.34-0.053,0.535  l8.241,11.679l0.002-0.005c1.387,2.012,1.758,2.525,4.122,5.817c11.51,16.732-5.547,28.599-5.547,28.599l0.006,0.006  C68.493,90.545,69.219,106.21,69.157,106.31l-0.001-0.001l-0.001-0.001c0.055,55.474-0.189,58.172,0.312,63.871  c4.048,45.318,46.544,75.353,88.014,67.969C119.222,231.356,94.898,199.716,94.131,164.753z"/>
<path style="fill:#DADADA;" d="M202.263,185.102c-5.708-2.132-14.151-6.067-20.442-12.358c-10.07-10.069-25.797-17.255-36.295-8.299  c-0.198,0.169-0.365,0.365-0.513,0.573c-0.148-0.208-0.315-0.404-0.513-0.573c-10.5-8.956-26.226-1.771-36.295,8.299  c-6.291,6.291-14.734,10.226-20.442,12.358c-2.482,0.927-2.707,4.342-0.375,5.599c30.544,16.461,52.404-0.926,57.213-5.338  c0.155-0.142,0.292-0.299,0.412-0.466c0.121,0.167,0.258,0.324,0.413,0.466c4.809,4.412,26.668,21.799,57.213,5.338  C204.97,189.444,204.745,186.029,202.263,185.102z"/>
<path style="fill:#C0C0C0;" d="M202.644,190.696c-0.044-0.001-0.083,0.008-0.129,0.004c-31.707-2.751-40.229-7.983-52.291-15.313  l0,0c-5.74-2.587-10.442-0.021-10.546,0c-12.061,7.33-20.584,12.563-52.29,15.313c30.544,16.461,52.404-0.926,57.212-5.338  c0.155-0.142,0.292-0.299,0.413-0.466c0.121,0.168,0.258,0.325,0.413,0.466c4.809,4.412,26.668,21.799,57.213,5.338  c0.007-0.004,0.011-0.01,0.018-0.014C202.652,190.69,202.649,190.694,202.644,190.696z"/>
<path style="fill:#4C4846;" d="M504.431,470.771l-4.462-39.871c0.011-0.004,0.022-0.009,0.034-0.013l-3.518-31.433  c-0.009,0.014-0.021,0.025-0.031,0.039l-5.132-45.856c0.003-0.003,0.005-0.006,0.008-0.008l0.002,0.001  c-0.004-0.004-0.007-0.008-0.011-0.013l-2.446-21.859c0.01-0.015,0.019-0.032,0.03-0.047c-2.073-17.172-1.567-35.908-23.107-49.063  l-0.361-0.089c-12.848-7.696-22.187-7.381-65.542-18.931c-1.655-0.75-2.8-3.214-2.8-6.024v-29.458  c-19.848,9.054-39.853,9.429-60.503,0v29.458c0,2.81-1.146,5.274-2.8,6.024c-43.065,11.473-52.643,11.205-65.542,18.931  l-0.361,0.089c-24.12,14.73-20.957,38.726-23.107,49.063c0.011,0.015,0.02,0.032,0.03,0.047l-2.446,21.859  c-0.004,0.004-0.007,0.008-0.012,0.013l0.002-0.001c0.003,0.003,0.005,0.006,0.008,0.008l-5.132,45.856  c-0.009-0.014-0.021-0.025-0.031-0.039l-3.518,31.433c0.011,0.004,0.022,0.009,0.034,0.013c-4.242,39.143-4.749,39.616-4.651,45.287  c-0.203,11.351,6.215,23.403,18.667,27.066c-0.005,0.002-0.01,0.004-0.015,0.006c4.556,1.336,8.961,1.224,9.062,1.23h0.035l0,0  c230.636,0,222.489,0.724,229.153-1.23c-0.005-0.002-0.01-0.004-0.015-0.006C497.462,499.868,505.998,488.918,504.431,470.771z"/>
<path style="fill:#3F3B39;" d="M273.177,503.26c0.005-0.002,0.01-0.004,0.015-0.006c-12.222-3.596-18.876-15.379-18.667-27.066  c-0.098-5.695,0.348-5.571,4.651-45.287c-0.011-0.004-0.022-0.009-0.034-0.013l3.518-31.433c0.009,0.014,0.021,0.025,0.031,0.039  l5.132-56.856c-0.003-0.003-0.005-0.006-0.008-0.008l-0.002,0.001c0.004-0.004,0.008-0.008,0.012-0.012l2.446-21.859  c-0.01-0.015-0.019-0.032-0.03-0.047c2.138-11.369-0.463-31.229,18.704-45.918c-2.155,0.678-10.864,1.877-20.695,7.766l-0.361,0.089  c-24.121,14.728-20.956,38.718-23.107,49.063c0.011,0.015,0.02,0.032,0.03,0.047l-2.446,21.859  c-0.004,0.004-0.007,0.008-0.012,0.012l0.002-0.001c0.003,0.003,0.005,0.006,0.008,0.008l-5.132,45.856  c-0.009-0.014-0.021-0.025-0.031-0.039l-3.518,31.433c0.011,0.004,0.022,0.009,0.034,0.013c-4.458,41.137-4.651,38.651-4.651,45.321  c-0.128,9.447,4.717,22.928,18.667,27.032c-0.005,0.002-0.01,0.004-0.015,0.006c7.966,2.336,14.845,0.538,34.519,1.23  C279.276,504.49,275.987,504.084,273.177,503.26z"/>
<path style="fill:#DADADA;" d="M367.059,7.53c-0.066,0-0.132,0.002-0.199,0.003c-0.066,0-0.132-0.003-0.199-0.003  c-62.841,0-113.784,50.943-113.784,113.784c0,0.871,0.013,1.74,0.035,2.606c0.031,1.241,0.038,2.481,0.007,3.722  c-1.601,62.906,35.65,110.628,92.732,111.139l40.353,0.361c52.43,0.47,96.566-41.489,94.797-111.477  c-0.032-1.258-0.025-2.516,0.007-3.774C482.399,60.875,431.548,7.53,367.059,7.53z"/>
<path style="fill:#C0C0C0;" d="M336.063,224.95c-42.735-27.218-45.356-79.285-44.897-97.309c0.032-1.241,0.025-2.481-0.007-3.722  c-0.022-0.866-0.035-1.734-0.035-2.606c0-56.393,41.027-103.195,94.86-112.209c-6.156-1.03-12.476-1.575-18.924-1.575  c-0.066,0-0.132,0.002-0.199,0.003c-0.066,0-0.132-0.003-0.199-0.003c-62.841,0-113.784,50.943-113.784,113.784  c0,0.871,0.013,1.74,0.035,2.606c0.031,1.241,0.038,2.481,0.007,3.722c-1.601,62.906,35.65,110.628,92.732,111.139  c40.483,0.259,41.444,0.615,48.388,0.091C394.04,238.871,362.642,241.879,336.063,224.95z"/>
<g>
	<path style="fill:#DD9A5E;" d="M267.936,134.544c0,10.725,10.382,19.418,23.188,19.418v-38.834   C278.318,115.128,267.936,123.82,267.936,134.544z"/>
	<path style="fill:#DD9A5E;" d="M463.318,134.544c0,10.725-10.382,19.418-23.189,19.418v-38.834   C452.936,115.128,463.318,123.82,463.318,134.544z"/>
</g>
<g>
	<path style="fill:#D38D54;" d="M270.109,126.336c-1.392,2.494-2.173,5.274-2.173,8.208c0,10.725,10.382,19.418,23.188,19.418   v-16.417C281.822,137.545,273.804,132.957,270.109,126.336z"/>
	<path style="fill:#D38D54;" d="M440.129,137.545v16.417c17.099,0,28.122-14.89,21.016-27.626   C457.45,132.957,449.432,137.545,440.129,137.545z"/>
</g>
<path style="fill:#DD9A5E;" d="M424.623,269.787l-24.729-6.156c-1.655-0.75-2.8-3.214-2.8-6.024v-29.458  c-19.848,9.054-39.853,9.429-60.503,0v29.458c0,2.81-1.146,5.274-2.8,6.024l-24.107,6.001v0.008l21.423,26.262  c18.645,22.857,53.567,22.857,72.213,0L424.623,269.787z"/>
<path style="fill:#D38D54;" d="M364.52,235.026c-10.149-0.475-19.206-2.886-27.928-6.877v29.458c0,2.81-1.146,5.274-2.8,6.024  l-24.107,6.001v0.008l21.423,26.262c8.697,10.662,20.936,16.346,33.412,17.061v-77.936H364.52z"/>
<path style="fill:#7F7369;" d="M324.582,287.901l6.526,8c18.645,22.857,53.567,22.857,72.213,0l6.526-8H324.582z"/>
<path style="fill:#EDAE6B;" d="M429.16,95.484c6.216,0.53,10.969,5.775,10.969,12.013c0,55.117,0.087,55.33-0.306,59.83  c-3.409,38.025-35.34,67.777-74.198,67.777l0,0l0,0h-0.001l0,0h-0.001l0,0c-40.334,0-74.504-32.588-74.504-74.497v-43.795  c0-5.174,3.942-9.507,9.096-9.962c16.849-1.489,53.699-7.291,81.157-29.9c3.741-3.081,9.198-2.785,12.521,0.743  C400.308,84.504,412.16,94.035,429.16,95.484z"/>
<path style="fill:#DD9A5E;" d="M316.343,160.607c0.132-55.192-0.304-53.271,0.357-55.98c-6.484,1.167-12.151,1.84-16.486,2.223  c-5.154,0.455-9.096,4.789-9.096,9.962c0.022,47.074-0.126,45.783,0.346,50.886c3.991,42.975,44.078,73.641,86.771,66.327  C378.133,234.007,316.343,198.235,316.343,160.607z"/>
<path style="fill:#72655A;" d="M331.108,295.901c14.506,17.782,38.86,21.724,57.741,11.838  c-17.997-3.32-24.329-19.838-24.329-19.838h-39.938L331.108,295.901z"/>
<circle cx="367.033" cy="376.451" r="8.991"/>
<circle cx="367.033" cy="342.801" r="8.991"/>
<circle cx="367.033" cy="410.1" r="8.991"/>
<path d="M35.281,511.99h56.945c4.143,0,7.5-3.357,7.5-7.5c0-4.143-3.357-7.5-7.5-7.5H72.664l7.437-140.669  c0.219-4.136-2.957-7.666-7.094-7.885c-4.141-0.24-7.667,2.957-7.885,7.094l-7.479,141.46c-17.89-0.959-28.801,2.768-36.768-5.307  c-5.243-5.314-6.322-12.739-5.69-20.177c17.779-157.596,16.682-151.848,18.123-158.805c2.034-9.833,7.75-18.014,17.296-23.707  c8.643-5.177,16.762-6.319,18.832-6.967l21.487,35.548c24.715,40.886,83.906,40.95,108.773,0.276l21.854-35.742  c1.407,0.484,14.514,2.335,24.755,11.446c-9.394,15.289-6.803,24.315-17.711,114.102l-2.756-52.127  c-0.218-4.137-3.772-7.335-7.885-7.094c-4.137,0.219-7.313,3.749-7.094,7.885l7.437,140.669h-91.071c-4.143,0-7.5,3.357-7.5,7.5  c0,4.143,3.357,7.5,7.5,7.5c41.413,0,150.879,0,188.304,0c4.143,0,7.5-3.357,7.5-7.5c0-4.143-3.357-7.5-7.5-7.5h-21.516  l7.437-140.669c0.219-4.136-2.957-7.666-7.094-7.885c-4.132-0.24-7.666,2.957-7.885,7.094l-7.479,141.46  c-21.828-0.612-31.245,2.63-38.545-7.439c-2.242-3.143-3.925-7.641-4.061-13.49c-0.043-2.53,16.746-160.156,19.663-168.306  c8.282-23.181,34.02-25.032,50.652-29.687c19.309,23.626,18.608,22.911,20.408,24.883c22.157,24.275,60.904,23.362,81.844-2.308  l18.297-22.429c14.279,4.006,23.792,4.574,34.155,10.782c0.323,0.193,0.661,0.362,1.009,0.505  c12.203,8.107,15.865,17.445,17.404,30.044c18.54,168.92,16.978,147.213,17.161,156.822c0.051,4.497-1.457,10.868-5.846,15.317  c-7.952,8.059-18.759,4.348-36.468,5.307l-7.478-141.46c-0.219-4.137-3.791-7.335-7.885-7.094c-4.137,0.219-7.313,3.749-7.094,7.885  l7.436,140.669h-89.116c-4.143,0-7.5,3.357-7.5,7.5c0,4.143,3.357,7.5,7.5,7.5h126.201c22.077,0,35.477-16.629,35.248-35.809  c0.096-6.321,0.61,2.578-17.263-158.379c-2.159-17.722-9.116-31.741-25.191-41.554c-11.705-7.134-21.07-8.214-65.108-19.177v-11.414  c34.099-7.821,59.139-27.968,72.571-58.503c9.965-22.656,11.179-43.069,11.179-65.841c0-22.477-6.202-44.431-17.936-63.491  c-2.173-3.528-6.793-4.629-10.318-2.455c-3.527,2.171-4.627,6.791-2.455,10.318c10.277,16.695,15.709,35.93,15.709,55.628  c0,2.157-0.112,4.397-0.094,4.871c0.791,19.606-1.69,81.207-60.621,101.609c21.57-15.099,34.945-39.823,34.998-67.149  c13.308-2.943,23.19-13.528,23.19-26.102c0-12.573-9.881-23.157-23.189-26.101v-0.947c0-10.074-7.832-18.634-17.831-19.486  c-0.65-0.242-16.003-0.126-30.446-15.462c-5.984-6.352-15.976-6.966-22.748-1.391c-26.286,21.648-62.638,26.947-77.047,28.22  c-5.892,0.52-10.829,3.864-13.582,8.636c-14.476,2.156-25.536,13.229-25.536,26.53c0,12.572,9.878,23.156,23.183,26.101  c0.052,26.954,12.838,50.38,32.365,65.229c-54.013-22.117-56.274-80.813-55.513-99.688c0.013-0.328-0.094-2.69-0.094-4.871  c0-90.519,107.544-139.599,176.051-80.524c3.134,2.703,7.871,2.355,10.577-0.782c2.705-3.137,2.355-7.872-0.782-10.577  C383.827-24.222,285.705-1.904,254.1,75.729c-4.104-28.424-20.603-44.647-39.393-48.724c-39.355-36.221-100.237-35.778-139.122,0  c-5.55,1.204-18.15,5.296-27.87,18.584c-13.374,18.283-16.094,46.19-8.085,82.946c0.041,0.187,0.113,0.357,0.167,0.537  c-5.1,15.01,5.276,30.525,22.316,34.239c0.116,9.901,1.386,17.038,3.542,24.19c10.783,35.74,41.802,50.053,41.937,50.161v13.179  l-16.831,10.421c-26.516,6.601-41.023,8.955-52.076,17.633c-14.43,10.429-19.529,23.613-21.402,38.982  C-0.992,481.194-0.049,470.828,0.032,476.181c-0.116,9.735,3.683,19.465,10.167,26.037C16.504,508.611,25.178,511.99,35.281,511.99z   M145.463,285.431l-22.871-33.309v-8.457c14.747,4.129,30.51,4.129,45.467-0.012v8.868L145.463,285.431z M135.288,297.112  l-10.861,8.295l-20.67-34.549l9.476-5.867L135.288,297.112z M177.694,264.991l9.476,5.867l-20.67,34.549l-10.861-8.295  L177.694,264.991z M186.899,310.029c-19.05,31.154-64.291,30.972-83.14-0.212l-19.09-31.581l5.241-1.305l21.891,36.589  c2.599,4.299,7.311,7.062,12.515,7.062c7.778,0,10.907-5.315,21.148-12.366l12.261,9.363c6.871,5.25,16.866,3.445,21.419-4.088  l21.837-36.5l5.312,1.322L186.899,310.029z M340.776,295.401h52.519C378.467,308.874,355.724,308.995,340.776,295.401z   M411.158,274.208l-5.052,6.193h-78.143l-5.172-6.34c13.208-3.329,12.863-3.106,13.95-3.6c4.377-1.981,7.206-7.028,7.206-12.855  v-17.853c13.014,3.644,29.344,4.063,45.468-0.715v18.567c0,7.112,4.131,12.21,8.489,13.302L411.158,274.208z M447.45,144.96v-20.831  C458.343,128.761,458.347,140.325,447.45,144.96z M283.441,124.132v20.826C272.556,140.324,272.554,128.768,283.441,124.132z   M298.67,166.095c-0.391-4.774-0.241-44.623-0.226-49.334c0.026-1.262,1.003-2.329,2.251-2.44  c19.626-1.734,56.8-8.145,85.264-31.582c0.708-0.581,1.694-0.54,2.294,0.097c7.807,8.287,21.099,18.505,40.09,20.122  c2.303,0.196,4.106,2.191,4.106,4.541c0,10.337,0,36.145,0,46.465c-0.418,2.496,2.248,21.428-8.867,39.953  c-1.315,2.257-1.335,2.242-1.288,2.169c-5.954,8.956-11.841,15.394-21.383,21.376c-5.557,3.461-10.572,5.366-10.471,5.322  c-26.172,10.51-47.612,0.684-48.438,0.604C300.539,207.906,298.713,166.195,298.67,166.095z M328.948,245.659v11.413  c-36.368,10.214-55.857,10.017-72.958,25.063c-16.517-14.501-35.077-14.61-55.642-20.759l-17.29-10.706v-12.847  c47.604-23.541,45.775-74.411,45.81-74.512c7.334-1.598,13.644-5.482,17.893-10.736  C254.025,203.422,284.072,235.396,328.948,245.659z M228.869,147.656v-21.625C240.327,130.755,240.329,142.93,228.869,147.656z   M238.169,113.905c-2.823-1.594-5.953-2.801-9.3-3.53c0-3.011,0.036-5.108-0.098-6.286c-1.066-12.562-8.872-23.355-19.697-29.903  c-0.458-0.351-3.053-2.424-4.758-5.477c-4.404-7.885,1.59-12.63,7.518-21.799h-0.001c0.825-1.21,1.957-3.154,2.677-4.433  C240.938,51.503,242.54,86.398,238.169,113.905z M59.599,54.752c5.69-7.946,12.663-11.188,16.753-12.476  c7.49,13.413,15.017,17.486,10.491,26.106c-1.71,3.258-4.47,5.447-4.937,5.805c-1.318,0.798-2.724,1.757-3.226,2.133  c-9.477,6.843-16.212,17.575-16.56,29.353h-0.001c-0.015,0.476-0.004,2.35-0.007,4.703c-3.596,0.784-6.948,2.114-9.931,3.889  C47.949,87.949,50.464,67.51,59.599,54.752z M62.114,126.033v21.622C50.663,142.928,50.659,130.761,62.114,126.033z M77.204,166.761  c-0.205-4.306,0.01-62.243-0.055-61.336c0.178-0.579,0.236-11.183,12.79-18.566c0.285-0.168,0.556-0.354,0.813-0.555  c11.928-8.588,17.013-24.751,7.013-38.889c-0.67-0.981-5.419-7.315-8.154-12.155C121.631,8.523,168.759,8.049,201.36,35.28  c-0.856,1.505-1.921,3.24-3.502,5.565l-0.079,0.117l0,0c-2.048,3.012-4.052,5.723-4.646,6.574  c-11.402,16.577-2.115,32.133,7.092,38.765c0.258,0.202,0.531,0.39,0.817,0.559c0.92,0.541,2.041,1.293,2.473,1.616  c10.895,7.864,10.437,18.7,10.339,17.241c0.004,0.103,0.001,0.042,0.016,0.4c0,0.1-0.002,0.159,0.001,0.283  c-0.006,67.451,0.374,65.521-2.87,76.646c-1.195-2.223-3.165-4-5.614-4.914c-5.191-1.939-12.488-5.359-17.769-10.64  c-11.314-11.314-28.574-18.995-42.123-11.696c-13.547-7.293-30.809,0.384-42.122,11.696c-5.279,5.28-12.577,8.7-17.767,10.64  c-2.454,0.915-4.427,2.696-5.621,4.924c-0.212-0.724-1.063-3.779-1.306-5.095C78.493,176.888,77.506,173.085,77.204,166.761z   M151.241,180.131c-2.999-3.577-8.505-3.556-11.487-0.005c-4.621,4.146-18.962,14.634-39.522,7.863  c4.67-2.472,9.575-5.719,13.748-9.891c6.45-6.452,18.55-13.831,25.811-8.163c2.418,2.834,5.818,2.654,5.718,2.632  c2.203-0.004,4.281-0.975,5.696-2.635c7.264-5.665,19.356,1.715,25.809,8.166c4.173,4.173,9.078,7.419,13.748,9.89  C170.171,194.774,155.828,184.253,151.241,180.131z M86.948,198.718c20.655,10.108,41.472,8.101,58.545-4.042  c16.885,12.008,37.677,14.249,58.536,4.046c-12.222,21.162-34.092,28.467-31.756,27.438  C141.474,239.961,103.482,227.374,86.948,198.718z"/>
<g>
</g>
<g>
</g>
<g>
</g>
<g>
</g>
<g>
</g>
<g>
</g>
<g>
</g>
<g>
</g>
<g>
</g>
<g>
</g>
<g>
</g>
<g>
</g>
<g>
</g>
<g>
</g>
<g>
</g>
</svg>
