<?xml version="1.0" encoding="iso-8859-1"?>
<!-- Generator: Adobe Illustrator 19.0.0, SVG Export Plug-In . SVG Version: 6.00 Build 0)  -->
<svg xmlns="http://www.w3.org/2000/svg" xmlns:xlink="http://www.w3.org/1999/xlink" version="1.1" id="Capa_1" x="0px" y="0px" viewBox="0 0 511.999 511.999" style="enable-background:new 0 0 511.999 511.999;" xml:space="preserve">
<path style="fill:#D83D3D;" d="M373.186,360.021c-5.307-14.001-16.767-22.895-31.278-26.566l-51.896-18.389l-0.132,0.067  l-20.886-7.162c-4.304-1.476-7.194-5.523-7.194-10.073c0-5.478,0-16.06,0-21.261c-7.519,3.704-16.88,6.752-26.516,8.154  c-18.551,2.705-38.71-0.25-56.698-9.959c0,16.449,0,10.242,0,23.066c0,4.551-2.89,8.597-7.194,10.073l-16.596,5.691l-0.075-0.126  l-13.304,4.714h-0.028c0.001,0.003,0.003,0.005,0.004,0.008l-0.004,0.001l0,0c-53.746,19.045-54.242,17.732-62.98,25.473  c-4.772,4.229-8.407,9.401-10.764,15.219c-3.535,8.642-2.955,13.669-17.852,85.409c-6.15,31.846-6.792,32.021-6.919,37.215  c-0.593,24.177,22.958,22.093,23.373,22.275c73.286,0,232.588,0,307.923,0c15.526,0,23.072-7.782,23.374-20.639  C397.624,479.706,376.026,367.547,373.186,360.021z"/>
<path style="fill:#B72C2C;" d="M68.269,477.347l6.568-32.986c16.627-96.462,15.269-89.14,16.064-92.096  c3.45-12.845,10.841-18.503,12.572-20.569l-4.969,1.76c-1.98,0.584-5.891,1.738-5.642,1.665c-12,4.479-21.121,13.013-25.637,24.901  c-0.946,2.506-24.205,115.522-24.354,121.554c-0.593,24.275,22.903,22.069,23.374,22.275c15.503,0,9.541,0,25.046,0  C73.469,503.851,66.004,493.377,68.269,477.347z"/>
<path style="fill:#7F7369;" d="M302.54,34.781c-4.727-4.173-9.483-7.732-14.386-10.902c-11.884-7.676-27.554-13.76-32.811-14.784  c-79.147-15.407-103.86,32.683-103.86,32.683c-60.78,13.358-49.062,115.016-49.062,115.016l7.242,122.726  c0,7.966,6.518,14.484,14.484,14.484c19.609,0,177.868,0,197.436,0c7.966,0,14.484-6.517,14.484-14.484  c7.673-141.585,7.242-103.431,7.242-139.952C342.35,133.257,351.343,77.741,302.54,34.781z"/>
<g>
	<path style="fill:#B72C2C;" d="M111.708,418c-4.15,0-7.514,3.363-7.514,7.514v78.336c6.812,0,10.596,0,15.028,0v-78.336   C119.222,421.364,115.858,418,111.708,418z"/>
	<path style="fill:#B72C2C;" d="M336.484,425.514c0-4.151-3.364-7.514-7.514-7.514s-7.514,3.363-7.514,7.514v78.336   c5.392,0,9.658,0,15.028,0V425.514z"/>
	<polygon style="fill:#B72C2C;" points="143.004,317.687 143.004,317.687 142.253,317.953  "/>
	<path style="fill:#B72C2C;" d="M217.992,364.828c-33.765-0.785-62.782-19.577-76.604-46.568l-20.02,7.094   C122.304,448.161,203.19,378.593,217.992,364.828z"/>
	<path style="fill:#B72C2C;" d="M319.129,325.384l-20.133-7.134c-13.804,26.966-42.774,45.751-76.494,46.576   C237.296,378.585,318.178,448.156,319.129,325.384z"/>
</g>
<g>
	<path style="fill:#A82626;" d="M254.429,358.296c-9.847,3.948-20.618,6.254-31.927,6.53c11.989,11.151,67.378,58.949,88.458,11.337   C293.173,383.354,269.948,369.952,254.429,358.296z"/>
	<path style="fill:#A82626;" d="M186.064,358.296c9.847,3.948,20.618,6.254,31.927,6.53c-11.989,11.151-67.378,58.949-88.458,11.337   C147.321,383.354,170.546,369.952,186.064,358.296z"/>
</g>
<path style="fill:#EAB883;" d="M141.388,318.26L141.388,318.26c31.83,62.159,125.797,62.122,157.609,0l-0.004-0.001  c0.001-0.003,0.003-0.005,0.004-0.008h-0.029l-29.974-10.278c-4.304-1.476-7.194-5.523-7.194-10.073c0-24.356,0-1.197,0-24.266  c-7.491,3.69-16.865,6.75-26.516,8.154c-18.475,2.694-38.638-0.211-56.698-9.959c0,9.259,0,17.028,0,26.072  c0,4.551-2.89,8.597-7.194,10.073l-29.974,10.278h-0.001h-0.028c0.001,0.003,0.003,0.005,0.004,0.008H141.388L141.388,318.26z"/>
<path style="fill:#72655A;" d="M178.585,274.832c-29.972-16.182-48.212-47.146-48.212-80.662v-13.392  c1.157-15.424-9.358-103.379,41.557-123.737c5.235-2.093,9.854-5.444,13.456-9.781c10.617-12.786,39.355-37.05,98.817-25.476  c0.328,0.064,0.651,0.147,0.973,0.236c-11.014-6.615-25.008-11.987-29.832-12.927C176.196-6.312,151.482,41.778,151.482,41.778  c-60.78,13.358-49.062,115.016-49.062,115.016l7.242,122.726c0,7.966,6.518,14.484,14.484,14.484c12.914,0,41.626,0,54.439,0  C178.585,289.379,178.585,279.136,178.585,274.832z"/>
<path style="fill:#D8A373;" d="M160.055,342.294l29.355-12.587c9.381-4.023,15.463-13.247,15.463-23.454v-25.11  c-9.483-1.787-18.367-5.039-26.288-9.317c0,0.952,0,26.98,0,26.071c0,4.55-2.89,8.597-7.194,10.074l-29.974,10.278l0,0h-0.028  c0.001,0.003,0.003,0.005,0.004,0.008l-0.004,0.001C146.027,327.321,152.385,335.452,160.055,342.294z"/>
<path style="fill:#F7CF9C;" d="M304.952,164.446c4.796,0.207,8.589,4.138,8.589,8.938v7.396l0,0l0,0  c-0.695,4.9,7.416,74.243-59.545,99.2c-1.196,0.447-2.219,0.807-3.571,1.247c-0.527,0.172-1.337,0.432-1.361,0.44  c-0.097,0.03-1.836,0.541-2.411,0.702c-0.045,0.013-1.139,0.322-1.174,0.331c-2.04,0.541-3.172,0.786-4.179,1.003  c-0.541,0.116-1.081,0.232-1.626,0.34c-1.452,0.285-2.915,0.534-4.391,0.749c-53.81,7.844-104.91-33.416-104.91-90.62  c0-8.016,0-35.404,0-46.456l0,0v-3.482c0-5.374,3.636-10.103,8.855-11.386c9.266-2.279,24.353-8.036,38.086-22.502  c3.593-3.784,9.695-3.619,12.987,0.429C203.768,127.338,239.856,161.637,304.952,164.446z"/>
<path style="fill:#EAB883;" d="M233.411,284.791c-1.475-0.214-2.939-0.465-4.391-0.749c-34.407-6.754-63.532-33.469-71.653-69.76  c-3.639-16.232-1.731-25.167-2.214-85.603v-1.779c-6.08,3.071-11.631,4.89-15.925,5.947c-5.219,1.283-8.855,6.012-8.855,11.386  c-0.019,15.736-0.083,50.276,0.129,54.618c2.686,53.283,50.434,93.278,103.845,86.053  C234.036,284.862,233.72,284.836,233.411,284.791z"/>
<path style="fill:#70BBEF;" d="M430.577,258.078c-35.153-18.354-78.529-4.736-96.882,30.417l-57.923,110.938  c-18.354,35.153-4.736,78.529,30.417,96.883c22.28,11.633,47.855,10.407,68.278-0.99l33.204-38.235l53.325-102.131  C479.348,319.808,465.73,276.432,430.577,258.078z"/>
<path style="fill:#4CAEE5;" d="M299.314,412.526l57.923-110.938c16.525-31.649,53.33-45.829,86.157-34.948  c-3.881-3.238-8.153-6.124-12.817-8.56c-35.153-18.354-78.529-4.736-96.882,30.417l-57.923,110.938  c-20.486,39.236-0.942,87.503,41.166,101.435C291.544,479.701,283.39,443.024,299.314,412.526z"/>
<ellipse transform="matrix(0.4628 -0.8864 0.8864 0.4628 -74.555 525.2077)" style="fill:#FCE3BB;" cx="396.074" cy="324.119" rx="46.799" ry="44.868"/>
<path style="fill:#EFD0A3;" d="M381.257,303.374c6.31-12.085,16.944-20.37,28.807-23.826c-20.344-6.064-43.153,3.519-53.754,23.826  c-18.835,36.074,12.732,76.432,50.744,65.36C404.442,367.956,367.723,329.296,381.257,303.374z"/>
<path style="fill:#DD9A5E;" d="M440.875,329.503c5.836-39.658-36.575-66.178-69.311-43.486  c2.438,12.218,10.574,23.101,22.834,28.524c6.848,3.029,14.09,3.956,21.012,3.07c2.46-0.315,4.855,0.907,6.093,3.055  c2.044,3.545,5.285,6.443,9.466,8.017C434.22,329.905,437.642,330.131,440.875,329.503z"/>
<path style="fill:#CE874D;" d="M371.567,286.027c1.362,6.815,4.499,13.211,9.133,18.478c6.245-12.74,17.144-21.399,29.364-24.958  C399.273,276.331,383.761,277.567,371.567,286.027z"/>
<path style="fill:#EAB883;" d="M342.326,466.959c4.742,8.307,13.453,12.983,22.418,13.066l10.118,17.724  c2.153,3.772,6.164,6.1,10.507,6.1h31.752c7.749,0,12.609-8.37,8.767-15.1l-18.783-32.905c4.486-7.762,4.889-17.642,0.147-25.949  l-16.281-28.522c-7.09-12.421-23.055-16.783-35.476-9.692l-19.758,11.279c-12.421,7.09-16.782,23.055-9.692,35.476L342.326,466.959z  "/>
<path style="fill:#D8A373;" d="M387.48,471.163c-2.389-3.997-6.313-6.758-10.811-7.964c-6.467-1.735-12.269-5.926-15.831-12.166  l-16.281-28.522c-4.371-7.658-4.384-16.66-0.846-24.102l-7.975,4.553c-12.421,7.09-16.782,23.055-9.692,35.476l16.281,28.522  c4.742,8.306,13.453,12.983,22.419,13.066l10.118,17.724c2.153,3.772,6.164,6.1,10.507,6.1h21.653L387.48,471.163z"/>
<path d="M325.798,357.463c-1.701,3.784-0.012,8.232,3.774,9.934c40.663,18.276,92.626,19.907,112.948-19.011v-0.001  c26.503-50.762-32.494-100.803-75.469-68.358c-26.777,18.738-31.875,57.213-10.343,81.203c-6.468-1.732-13.464-4.166-20.975-7.542  C331.951,351.99,327.5,353.677,325.798,357.463z M433.836,321.729c-2.42-0.852-4.48-2.487-5.824-4.818  c-2.777-4.814-8.106-7.451-13.557-6.754c-14.732,1.885-28.877-6.649-34.107-20.641C405.327,276.715,433.232,294.212,433.836,321.729  z M368.186,299.156c8.802,17.805,27.678,28.138,47.259,26.017c3.426,5.497,8.974,9.772,15.881,11.441  c-0.601,1.627-1.302,3.237-2.127,4.817v-0.001c-10.027,19.203-33.038,27.072-51.298,17.537  C356.625,347.859,351.611,318.541,368.186,299.156z"/>
<path d="M96.186,326.305c-4.794,1.497-4.632,1.201-7.592,2.42c-7.442,3.163-14.514,7.655-20.441,14.842  c-11.985,14.533-9.218,21.266-32.3,132.312c-0.027,0.138-0.051,0.277-0.071,0.416c-2.789,19.748,7.356,35.07,30.463,35.07h75.01  c4.15,0,7.514-3.363,7.514-7.514s-3.364-7.514-7.514-7.514h-22.032v-70.821c0-4.151-3.364-7.514-7.514-7.514  c-4.15,0-7.514,3.363-7.514,7.514v70.821H66.243c-11.493,0-17.351-4.786-15.609-17.741C75.584,353.329,72.286,368.228,74.73,361.45  c0.46-0.771,2.395-6.675,8.898-12.292l-0.052,0.046c8.58-7.237,11.656-6.326,30.565-13.319  c1.748,36.418,11.345,57.946,29.226,65.653c15.681,6.762,33.601,0.587,48.451-7.862c12.037-6.848,22.591-15.565,28.425-20.748  c9.497,8.467,27.451,22.761,46.19,28.723c-14.512,34.095-3.399,73.094,25.674,94.684H176.503c-4.15,0-7.514,3.363-7.514,7.514  s3.364,7.514,7.514,7.514h152.92c14.807,1.886,29.407-0.483,42.465-6.35c3.629,3.985,8.819,6.35,14.325,6.35h31.112  c13.358,0,21.745-14.421,15.117-26.034l-16.211-28.399c5.256-10.067,46.222-88.528,51.424-98.493  c6.051-11.589,9.165-24.594,9.008-37.608c-0.052-4.316-3.706-7.544-7.604-7.422c-4.15,0.05-7.473,3.454-7.422,7.604  c0.281,23.216-11.18,35.797-17.769,50.515c-4.367,3.317-22.381,15.839-51.208,20.977c-7.672-7.507-18.439-10.697-28.691-8.946  c-9.307,1.596-14.414,6.565-20.629,9.499c-16.062-2.515-30.989-6.444-48.565-13.788l45.58-87.298  c23.581-45.164,88.389-46.341,113.226-1.389c2.006,3.633,6.578,4.951,10.21,2.943c3.633-2.007,4.949-6.577,2.944-10.21  c-25.065-45.373-85.725-54.298-123.005-20.09l6.173-104.594c0.009-0.146,0.013-0.295,0.013-0.442v-9.743  c0-4.151-3.363-7.514-7.514-7.514c-4.151,0-7.514,3.363-7.514,7.514v9.521c-7.542,127.893-7.243,122.505-7.243,122.949  c0,3.843-3.127,6.97-6.97,6.97h-51.363v-6.648c31.139-16.996,51.743-49.857,51.743-87.069v-20.787  c0-8.841-6.931-16.064-15.779-16.445h0.001c-63.376-2.734-97.442-36.51-109.145-50.906c-2.913-3.583-7.236-5.74-11.858-5.917  c-4.659-0.183-9.188,1.663-12.409,5.054c-12.195,12.844-25.455,18.172-34.432,20.379c-8.58,2.111-14.573,9.793-14.573,18.683  c1.072,43.578-10.715,100.018,48.212,134.966v8.688H123.24c-3.843,0-6.97-3.127-6.97-6.97c0-0.297-7.252-123.242-7.291-123.583  c-0.108-0.95-10.217-95.079,43.21-106.821c2.188-0.48,4.047-1.913,5.07-3.904c0.221-0.431,22.973-42.909,95.737-28.743  c0.349,0.067,0.891,0.244,1.464,0.431c47.216,15.539,75.209,53.448,79.753,95.896c0.446,4.125,4.149,7.119,8.28,6.659  c4.126-0.447,7.107-4.154,6.659-8.28c-4.54-31.939-16.004-58.128-41.576-81.182c-13.819-12.435-30.046-21.664-47.751-27.153  c-1.126-0.352-2.399-0.818-3.955-1.122c-55.844-10.868-93.336,8.235-110.096,33.509c-26.284,7.225-43.514,30.581-49.927,67.792  c-4.618,26.791-2.127,51.633-1.823,54.414l7.218,122.333c0.131,12.017,9.949,21.755,21.996,21.755h39.727  C105.498,322.578,139.734,311.036,96.186,326.305z M173.825,315.08c7.341-2.517,12.272-9.421,12.272-17.181v-11.333  c12.565,4.884,26.419,7.017,36.571,6.69h-0.005c0.101-0.002,3.168-0.066,2.974-0.062c11.006-0.885,18.132-1.729,28.647-5.334v10.039  c0,7.76,4.931,14.665,12.271,17.181l21.291,7.301c-30.998,45.898-103.357,47.311-135.311,0  C157.591,320.646,168.181,317.015,173.825,315.08z M337.727,471.779c-16.997,1.285-34.668-0.339-52.707-4.827  c-6.231-9.93-9.59-21.231-9.883-32.739c16.284,6.285,32.499,10.519,48.324,12.6l14.052,24.617v0.001  C337.581,471.548,337.657,471.66,337.727,471.779z M317.419,430.663c-13.366-2.396-27.022-6.42-40.753-12.009  c2.682-11.918,7.263-17.976,11.133-26.02c12.715,5.389,25.4,9.537,37.918,12.397C319.314,412.14,316.46,421.591,317.419,430.663z   M311.526,314.718c-22.261-7.887-15.037-5.357-34.111-11.802h40.273L311.526,314.718z M149.316,387.739  c-12.426-5.357-19.423-25.056-20.341-57.11l8.954-3.173c13.459,22.102,35.928,37.508,61.885,42.846  C186.858,380.172,164.318,394.206,149.316,387.739z M302.455,327.447l2.047,0.725l-31.246,59.844  c-11.562-3.082-23.561-10.821-32.61-17.73C266.709,364.901,289.096,349.394,302.455,327.447z M303.074,485.684  c20.516,2.708,41.028,1.303,49.575-0.582c2.778,1.246,5.735,2.121,8.794,2.57l2.516,4.406  C344.236,500.238,321.431,498.214,303.074,485.684z M417.324,496.337h-31.112c-1.554,0-2.998-0.839-3.768-2.188  c-0.136-0.238-1.542-2.701-1.453-2.546l-8.46-14.821c-1.324-2.321-3.783-3.764-6.455-3.789c-6.444-0.06-12.38-3.529-15.511-9.015  v0.001l-15.953-27.948c-4.896-8.573-1.879-19.615,6.697-24.509c20.287-11.566,21.274-12.642,25.88-13.244  c4.941-0.635,9.863,0.792,13.612,3.79c4.606,3.669,4.466,5.997,20.329,33.046c3.14,5.5,3.092,12.375-0.124,17.94  c-1.475,2.551-1.155,5.689-0.021,7.485l18.404,32.241C420.298,494.372,419.157,496.337,417.324,496.337z M423.734,410.087  c-2.006,1.529-6.946,5.049-14.515,8.885l-7.406-12.974c11.489-2.555,21.23-6.089,29.101-9.662L423.734,410.087z M137.957,197.489  c-0.127-3.287-0.047,0.437-0.071-53.256c0-1.954,1.289-3.636,3.135-4.09c10.928-2.688,27.041-9.141,41.741-24.625  c0.319-0.336,0.675-0.381,0.934-0.386c0.319,0.013,0.579,0.141,0.774,0.382c45.711,56.219,120.055,56.4,120.16,56.439  c0.783,0.033,1.398,0.662,1.398,1.431c-0.022,22.847,0.067,21.097-0.119,25.083c-2.987,58.658-64.356,96.758-118.537,72.338  C187.24,270.695,140.328,251.777,137.957,197.489z"/>
<g>
</g>
<g>
</g>
<g>
</g>
<g>
</g>
<g>
</g>
<g>
</g>
<g>
</g>
<g>
</g>
<g>
</g>
<g>
</g>
<g>
</g>
<g>
</g>
<g>
</g>
<g>
</g>
<g>
</g>
</svg>
