<?xml version="1.0" encoding="iso-8859-1"?>
<!-- Generator: Adobe Illustrator 19.0.0, SVG Export Plug-In . SVG Version: 6.00 Build 0)  -->
<svg xmlns="http://www.w3.org/2000/svg" xmlns:xlink="http://www.w3.org/1999/xlink" version="1.1" id="Capa_1" x="0px" y="0px" viewBox="0 0 512.001 512.001" style="enable-background:new 0 0 512.001 512.001;" xml:space="preserve">
<path style="fill:#D83D3D;" d="M376.367,363.609c-5.452-14.382-17.224-23.519-32.13-27.289l-53.309-18.89l-0.136,0.069  l-21.455-7.357c-4.421-1.516-7.39-5.673-7.39-10.347c0-5.627,0-16.497,0-21.84c-7.724,3.805-17.339,6.935-27.238,8.376  c-19.056,2.779-39.764-0.257-58.242-10.23c0,16.896,0,10.521,0,23.694c0,4.674-2.97,8.831-7.391,10.347l-17.048,5.846l-0.077-0.13  l-13.666,4.842h-0.029c0.001,0.003,0.003,0.005,0.005,0.009l-0.005,0.001l0,0c-55.21,19.563-55.719,18.214-64.695,26.166  c-4.902,4.344-8.635,9.656-11.058,15.634c-3.631,8.878-3.035,14.041-18.339,87.734c-6.318,32.712-6.977,32.893-7.107,38.228  c-0.61,24.835,23.583,22.695,24.01,22.882c75.282,0,238.921,0,316.308,0c15.949,0,23.7-7.993,24.01-21.2  C401.47,486.554,379.284,371.34,376.367,363.609z"/>
<path style="fill:#B72C2C;" d="M63.146,484.13l6.747-33.884c17.08-99.089,15.684-91.567,16.501-94.604  c3.544-13.195,11.136-19.006,12.914-21.129l-5.104,1.809c-2.034,0.6-6.052,1.786-5.795,1.71  c-12.328,4.602-21.697,13.368-26.335,25.579c-0.972,2.574-24.864,118.667-25.017,124.864c-0.609,24.936,23.526,22.671,24.01,22.882  c15.925,0,9.8,0,25.728,0C68.488,511.355,60.819,500.597,63.146,484.13z"/>
<path style="fill:#7F7369;" d="M303.797,29.513c-4.856-4.286-9.741-7.943-14.778-11.199c-12.208-7.886-28.303-14.135-33.704-15.187  C174.012-12.699,148.626,36.7,148.626,36.7C86.191,50.422,98.228,154.848,98.228,154.848l7.439,126.069  c0,8.183,6.695,14.878,14.878,14.878c20.143,0,182.712,0,202.813,0c8.183,0,14.878-6.695,14.878-14.878  c7.883-145.44,7.439-106.248,7.439-143.763C344.691,130.67,353.929,73.642,303.797,29.513z"/>
<g>
	<path style="fill:#B72C2C;" d="M107.769,423.167c-4.263,0-7.719,3.455-7.719,7.719v80.469c6.997,0,10.884,0,15.437,0v-80.469   C115.487,426.623,112.032,423.167,107.769,423.167z"/>
	<path style="fill:#B72C2C;" d="M338.666,430.886c0-4.263-3.456-7.719-7.719-7.719s-7.719,3.455-7.719,7.719v80.469   c5.539,0,9.921,0,15.437,0L338.666,430.886L338.666,430.886z"/>
	<polygon style="fill:#B72C2C;" points="139.916,320.123 139.916,320.123 139.146,320.395  "/>
	<path style="fill:#B72C2C;" d="M216.946,368.547c-34.684-0.807-64.492-20.109-78.69-47.836l-20.566,7.288   C118.653,454.15,201.742,382.688,216.946,368.547z"/>
	<path style="fill:#B72C2C;" d="M320.837,328.029l-20.681-7.328c-14.18,27.701-43.939,46.996-78.577,47.844   C236.776,382.68,319.861,454.145,320.837,328.029z"/>
</g>
<g>
	<path style="fill:#A82626;" d="M254.376,361.837c-10.116,4.056-21.179,6.424-32.796,6.708   c12.315,11.455,69.212,60.554,90.867,11.646C294.175,387.578,270.317,373.811,254.376,361.837z"/>
	<path style="fill:#A82626;" d="M184.15,361.837c10.116,4.056,21.179,6.424,32.796,6.708   c-12.315,11.455-69.212,60.554-90.867,11.646C144.351,387.578,168.208,373.811,184.15,361.837z"/>
</g>
<path style="fill:#EAB883;" d="M138.256,320.711L138.256,320.711c32.697,63.852,129.223,63.814,161.9,0l-0.005-0.001  c0.001-0.003,0.003-0.006,0.005-0.009h-0.029l-30.79-10.558c-4.421-1.516-7.39-5.673-7.39-10.347c0-25.019,0-1.23,0-24.928  c-7.695,3.791-17.324,6.933-27.238,8.376c-18.978,2.767-39.691-0.217-58.242-10.23c0,9.511,0,17.491,0,26.781  c0,4.674-2.97,8.831-7.391,10.347l-30.79,10.558h-0.001h-0.029c0.001,0.003,0.003,0.005,0.005,0.009L138.256,320.711  L138.256,320.711z"/>
<path style="fill:#72655A;" d="M176.466,276.101c-30.788-16.623-49.525-48.43-49.525-82.858v-13.756  c1.189-15.844-9.614-106.194,42.688-127.107c5.377-2.15,10.123-5.592,13.822-10.047c10.906-13.134,40.426-38.06,101.508-26.17  c0.337,0.066,0.669,0.151,0.999,0.243C274.646,9.61,260.269,4.092,255.314,3.127C174.012-12.699,148.626,36.7,148.626,36.7  C86.191,50.422,98.228,154.848,98.228,154.848l7.439,126.069c0,8.183,6.695,14.878,14.878,14.878c13.266,0,42.76,0,55.921,0  C176.466,291.043,176.466,280.521,176.466,276.101z"/>
<path style="fill:#D8A373;" d="M157.432,345.4l30.154-12.929c9.636-4.132,15.884-13.608,15.884-24.092v-25.793  c-9.741-1.836-18.868-5.177-27.004-9.571c0,0.978,0,27.716,0,26.781c0,4.674-2.97,8.831-7.391,10.348l-30.791,10.558l0,0h-0.029  c0.001,0.003,0.003,0.005,0.005,0.009l-0.005,0.001C143.022,330.019,149.554,338.371,157.432,345.4z"/>
<path style="fill:#F7CF9C;" d="M306.275,162.709c4.927,0.213,8.823,4.25,8.823,9.181v7.597l0,0l0,0  c-0.714,5.034,7.618,76.264-61.167,101.902c-1.229,0.459-2.28,0.829-3.667,1.281c-0.542,0.177-1.373,0.444-1.398,0.451  c-0.1,0.031-1.886,0.556-2.477,0.722c-0.046,0.013-1.17,0.33-1.206,0.34c-2.096,0.556-3.258,0.808-4.293,1.03  c-0.556,0.119-1.111,0.239-1.67,0.349c-1.491,0.292-2.995,0.549-4.511,0.77c-55.275,8.058-107.767-34.327-107.767-93.088  c0-8.234,0-36.368,0-47.721l0,0v-3.576c0-5.52,3.735-10.378,9.095-11.696c9.519-2.341,25.015-8.255,39.124-23.115  c3.69-3.887,9.96-3.718,13.341,0.441C202.336,124.59,239.406,159.823,306.275,162.709z"/>
<path style="fill:#EAB883;" d="M232.785,286.331c-1.515-0.221-3.02-0.478-4.511-0.77c-35.345-6.938-65.261-34.38-73.604-71.66  c-3.737-16.674-1.778-25.852-2.275-87.934v-1.827c-6.246,3.154-11.948,5.024-16.359,6.109c-5.361,1.318-9.096,6.176-9.096,11.696  c-0.02,16.165-0.086,51.646,0.133,56.106c2.759,54.733,51.807,95.819,106.673,88.396  C233.427,286.404,233.103,286.377,232.785,286.331z"/>
<path style="fill:#70BBEF;" d="M435.32,258.891c-36.11-18.854-80.667-4.865-99.521,31.245l-59.501,113.96  c-18.854,36.11-4.865,80.667,31.245,99.521c22.887,11.95,49.159,10.691,70.137-1.016l34.108-39.277l54.777-104.912  C485.419,322.301,471.43,277.744,435.32,258.891z"/>
<path style="fill:#4CAEE5;" d="M300.482,417.544l59.501-113.96c16.975-32.511,54.782-47.077,88.503-35.9  c-3.987-3.326-8.376-6.292-13.166-8.793c-36.11-18.854-80.667-4.865-99.521,31.245l-59.501,113.96  c-21.044,40.305-0.968,89.885,42.286,104.196C292.502,486.549,284.125,448.873,300.482,417.544z"/>
<g>
	<path style="fill:#8CD2F9;" d="M376.195,381.443c-12.709,0-27.712-2.654-44.629-10.257c-3.888-1.748-5.624-6.317-3.876-10.204   c1.748-3.888,6.315-5.622,10.205-3.876c46.292,20.806,74.76-1.599,75.042-1.828c3.311-2.683,8.172-2.177,10.857,1.136   c2.684,3.311,2.176,8.172-1.135,10.856C421.652,368.085,404.702,381.443,376.195,381.443z"/>
	<path style="fill:#8CD2F9;" d="M378.644,477.724c-1.52-3.983-5.979-5.981-9.963-4.459c-26.346,10.052-75.789,9.476-91.05,1.519   c4.251,7.466,9.832,14.242,16.627,19.936c23.771,3.022,58.437,1.168,79.927-7.033C378.167,486.167,380.164,481.707,378.644,477.724   z"/>
</g>
<path style="fill:#70BBEF;" d="M306.786,495.815c-3.724-4.991-6.779-10.407-9.119-16.107c-8.567-0.994-15.69-2.659-20.036-4.925  c4.251,7.466,9.832,14.242,16.627,19.936C298.234,495.225,302.443,495.587,306.786,495.815z"/>
<ellipse transform="matrix(0.4628 -0.8864 0.8864 0.4628 -74.8138 529.9818)" style="fill:#FCE3BB;" cx="399.883" cy="326.72" rx="48.077" ry="46.087"/>
<path style="fill:#EFD0A3;" d="M384.658,305.419c6.481-12.413,17.405-20.925,29.591-24.474  c-20.898-6.229-44.328,3.614-55.219,24.474c-19.348,37.057,13.079,78.513,52.126,67.14  C408.474,371.76,370.754,332.048,384.658,305.419z"/>
<path style="fill:#DD9A5E;" d="M445.899,332.26c5.995-40.738-37.572-67.98-71.198-44.67c2.504,12.551,10.862,23.731,23.456,29.301  c7.034,3.111,14.474,4.064,21.584,3.154c2.526-0.323,4.987,0.931,6.259,3.137c2.099,3.641,5.429,6.619,9.723,8.235  C439.063,332.674,442.579,332.906,445.899,332.26z"/>
<path style="fill:#CE874D;" d="M374.704,287.601c1.399,7,4.622,13.57,9.382,18.981c6.415-13.086,17.611-21.981,30.163-25.637  C403.164,277.641,387.229,278.91,374.704,287.601z"/>
<path style="fill:#8CD2F9;" d="M269.777,424.994c-0.211-0.07-0.424-0.125-0.637-0.177c-0.973,5.251-1.345,10.539-1.172,15.781  c7.751,2.32,29.361,8.196,57.237,10.804c32.793,3.07,67.179,0.859,98.422-10.75l11.504-22.032  C365.193,455.98,270.728,425.31,269.777,424.994z"/>
<path style="fill:#70BBEF;" d="M269.777,424.994c-0.211-0.07-0.424-0.125-0.637-0.177l0,0c-0.973,5.25-1.345,10.539-1.172,15.78  v0.001c4.289,1.284,12.828,3.656,24.318,5.962c0.352-5.113,1.244-10.231,2.701-15.275  C279.728,428.226,270.078,425.094,269.777,424.994z"/>
<path style="fill:#8CD2F9;" d="M456.263,378.145c-69.187,39.143-163.401,5.155-168.181,3.383l-7.12,13.636  c0.43,0.275,0.894,0.511,1.389,0.701c1.066,0.41,26.498,10.085,61.6,14.471c33.45,4.181,68.833,2.529,100.546-9.656L456.263,378.145  z"/>
<path style="fill:#70BBEF;" d="M288.082,381.528l-2.445,4.683l-4.675,8.953c0.43,0.275,0.894,0.511,1.389,0.701  c0.645,0.248,10.214,3.885,25.434,7.692l7.396-14.166C299.764,385.767,289.573,382.08,288.082,381.528z"/>
<path style="fill:#EAB883;" d="M344.666,473.459c4.871,8.533,13.82,13.337,23.029,13.422l10.393,18.207  c2.212,3.875,6.331,6.266,10.792,6.266h32.617c7.96,0,12.952-8.598,9.006-15.511l-19.295-33.801  c4.609-7.973,5.022-18.122,0.151-26.655l-16.724-29.299c-7.284-12.76-23.683-17.24-36.442-9.956l-20.296,11.586  c-12.76,7.284-17.24,23.682-9.956,36.442L344.666,473.459z"/>
<path style="fill:#D8A373;" d="M391.049,477.778c-2.455-4.106-6.485-6.941-11.105-8.181c-6.643-1.782-12.603-6.088-16.262-12.498  L346.957,427.8c-4.491-7.866-4.504-17.114-0.868-24.758l-8.192,4.676c-12.759,7.284-17.24,23.683-9.956,36.442l16.725,29.298  c4.871,8.533,13.819,13.337,23.029,13.422l10.393,18.207c2.212,3.875,6.331,6.266,10.792,6.266h22.243L391.049,477.778z"/>
<g>
</g>
<g>
</g>
<g>
</g>
<g>
</g>
<g>
</g>
<g>
</g>
<g>
</g>
<g>
</g>
<g>
</g>
<g>
</g>
<g>
</g>
<g>
</g>
<g>
</g>
<g>
</g>
<g>
</g>
</svg>
