<?xml version="1.0" encoding="iso-8859-1"?>
<!-- Generator: Adobe Illustrator 19.0.0, SVG Export Plug-In . SVG Version: 6.00 Build 0)  -->
<svg xmlns="http://www.w3.org/2000/svg" xmlns:xlink="http://www.w3.org/1999/xlink" version="1.1" id="Capa_1" x="0px" y="0px" viewBox="0 0 512.002 512.002" style="enable-background:new 0 0 512.002 512.002;" xml:space="preserve">
<path style="fill:#7F7369;" d="M331.007,247.056h-45.124c-6.831,0-12.42-5.589-12.42-12.42l-6.21-105.238  c0,0-10.048-87.171,42.071-98.626c0,0,21.191-41.237,89.06-28.026c0.928,0.181,1.82,0.514,2.72,0.792  c27.878,8.648,49.886,28.383,62.027,52.87c16.356,33.011,11.016,57.515,4.473,178.227c0,6.831-5.589,12.42-12.42,12.42H407.18"/>
<path style="fill:#72655A;" d="M338.853,247.056v-14.768c-27.875-12.318-45.54-38.866-46.789-68.196  c-0.094-2.164-0.107-47.001-0.038-47.829c-0.466-24.798,3.371-76.822,42.814-85.49c0,0,12.987-25.265,51.18-29.906  c-34.328-3.772-58.861,7.417-72.411,23.776c-3.005,3.628-4.213,6.027-4.284,6.13c-35.51,7.804-43.889,51.629-42.757,87.817  c0.005,0.151,6.889,115.93,6.896,116.047c0,6.831,5.589,12.42,12.42,12.42C296.813,247.056,326.909,247.056,338.853,247.056z"/>
<path style="fill:#DD9A5E;" d="M228.262,477.269c1.011-9.033,13.725-122.643,14.506-129.625  c3.549-24.625,1.476-39.379,13.228-53.638c-3.591-4.365-8.714-8.436-12.094-10.499l-0.371-0.092  c-12.569-7.529-23.151-7.844-46.507-14.27l0,0l-23.884-11.432l0,0v-28.53c-18.852,8.336-41.833,9.055-62.281,0.163l0,0  l-0.103,28.484l0,0l0,0l0,0l-23.781,11.315l0,0c-23.207,6.385-33.913,6.726-46.507,14.27l-0.371,0.092  c-4.861,2.966-10.667,7.991-14.605,13.871c-8.422,12.579-7.321,19.916-15.657,94.407l0,0c-9.77,88.711-9.865,85.046-9.762,91.064  c0,0.012,0,0.024,0,0.036c-0.157,11.601,6.959,29.116,28.581,29.116l0,0c1.63,0,225.954,0.006,227.343-0.017  C239.435,511.706,226.304,499.907,228.262,477.269z"/>
<g>
	<path style="fill:#D38D54;" d="M26.016,477.269l9.567-85.486c8.536-85.927,6.856-92.593,15.657-105.736   c2.717-4.057,5.996-7.467,9.859-10.462c-1.788,0.567-10.821,1.952-20.632,7.829l-0.371,0.092   c-14.629,8.927-20.356,21.196-22.301,37.142C15.961,337.034,2.962,453.19,0.267,477.269c-0.222,2.573-0.195,4.151-0.195,5.614   c-0.157,11.601,6.959,29.116,28.581,29.116c15.938,0,9.808,0,25.749,0C34.896,511.999,24.273,497.464,26.016,477.269z"/>
	<path style="fill:#D38D54;" d="M136.511,282.191v-46.659c-8.776-0.589-17.235-2.528-25.653-6.187l-0.103,28.484l0,0   L136.511,282.191z"/>
</g>
<path style="fill:#EAB883;" d="M494.198,320.648c-1.855-15.208-7.212-27.928-22.301-37.142l-0.371-0.092  c-13.233-7.927-22.852-7.602-67.507-19.498c-1.704-0.772-2.884-3.31-2.884-6.204V232.42c-19.917,8.686-42.954,8.412-62.281-0.132  v25.424c0,2.894-1.18,5.433-2.884,6.204c-44.357,11.817-54.223,11.541-67.507,19.498l-0.371,0.092  c-15.198,9.281-20.466,22.09-22.301,37.142c-18.366,165.581-17.827,156.099-17.722,162.2c-0.268,15.426,10.165,29.151,28.58,29.151  c47.727,0,177.31,0,226.693,0c18.818,0,28.967-14.335,28.581-29.151C512.026,476.754,512.493,485.584,494.198,320.648z"/>
<path style="fill:#D8A373;" d="M253.816,482.848c-0.102-5.941-0.442,1.771,17.722-171.469c1.873-15.364,7.107-27.502,21.863-36.865  c-4.332,1.312-14.208,2.472-24.94,8.901l-0.371,0.092c-15.198,9.281-20.466,22.092-22.301,37.142  c-18.371,166.65-17.723,154.153-17.723,162.236C227.908,494.486,235.025,512,256.647,512c15.939,0,9.808,0,25.749,0  C263.722,511.999,253.655,498.088,253.816,482.848z"/>
<path style="fill:#D83D3D;" d="M502.157,391.764c-8.265-73.367-7.908-72.516-9.221-78.87c-2.657-12.85-10.446-22.921-21.039-29.388  c-0.105-0.026-0.477-0.118-0.371-0.092c-13.233-7.927-22.852-7.602-67.507-19.498c-1.704-0.772-2.884-3.31-2.884-6.205V232.42l0,0  v-0.132c-19.564,8.644-42.457,8.758-62.281,0v0.132l0,0v25.292c0,2.894-1.18,5.433-2.884,6.205  c-44.357,11.817-54.223,11.54-67.507,19.498c-0.105,0.026-0.477,0.118-0.371,0.092c-14.35,8.76-20.336,21.032-22.301,37.142  l-7.958,71.116l50.165,5.263c2.668,0.28,4.651,2.596,4.516,5.275l-5.51,109.696c61.405,0,104.907,0,166.286,0l-5.777-109.272  c-0.154-2.915,2.002-5.44,4.905-5.744L502.157,391.764z"/>
<path style="fill:#A82626;" d="M237.831,391.764l24.938,2.617c8.866-82.172,8.329-82.522,10.032-90.756  c2.593-12.539,9.916-22.332,20.6-29.111c-3.188,1.034-14.208,2.472-24.94,8.901c-0.105,0.026-0.477,0.118-0.371,0.092  c-10.533,6.43-18.362,16.447-21.039,29.388C245.437,320.7,245.742,322.404,237.831,391.764z"/>
<path style="fill:#70BBEF;" d="M243.716,283.506c-0.105-0.026-0.477-0.118-0.371-0.092c-12.596-7.546-23.348-7.9-46.344-14.23  l0.022-0.041l-23.884-11.432l-0.173,0.261c-0.001-0.032-0.003-0.063-0.005-0.094l-31.149,29.327l-31.058-29.377l-23.781,11.315l0,0  c-23.207,6.385-33.914,6.726-46.507,14.27l-0.371,0.092c-14.675,8.96-20.346,21.111-22.301,37.142l-7.961,71.135l49.206,5.163  c3.102,0.326,5.409,3.02,5.253,6.135l-5.471,108.918c19.092,0,148.533,0,166.287,0l-5.776-109.258  c-0.154-2.922,2.007-5.454,4.917-5.759l13.153-1.38l5.367-47.958c3.589-25.292,1.54-39.328,13.139-53.525  C253.345,290.981,246.511,285.212,243.716,283.506z"/>
<path style="fill:#4CAEE5;" d="M35.583,391.784c8.818-88.762,6.628-94.984,18.072-108.996c2.051-2.511,4.466-4.893,7.444-7.202  c-2.338,0.664-11.129,2.136-20.632,7.829l-0.371,0.092c-6.557,4.004-12.497,9.842-16.374,16.779  c-7.343,13.142-5.111,21.345-13.888,91.499l25.451,2.67L35.583,391.784z"/>
<path style="fill:#EAB883;" d="M425.018,269.144l-20.999-5.228c-1.704-0.772-2.884-3.31-2.884-6.205V229.33l0,0v-0.132  c-19.564,8.644-42.457,8.758-62.281,0v0.132l0,0v28.382c0,2.894-1.18,5.433-2.884,6.205l-21.315,5.307  C340.271,312.31,399.42,312.327,425.018,269.144z"/>
<path id="SVGCleanerId_0" style="fill:#4C4846;" d="M44.193,124.601c0.026-28.43-0.066-27.281,0.096-31.055  c3.25-76.659,90.069-119.958,153.335-75.885c42.549,29.708,41.768,66.482,41.806,106.94"/>
<g>
	<path id="SVGCleanerId_0_1_" style="fill:#4C4846;" d="M44.193,124.601c0.026-28.43-0.066-27.281,0.096-31.055   c3.25-76.659,90.069-119.958,153.335-75.885c42.549,29.708,41.768,66.482,41.806,106.94"/>
</g>
<path style="fill:#3F3B39;" d="M151.545,0.622C95.487-4.943,46.21,37.804,44.259,94.354c-0.121,3.525-0.04,2.711-0.065,30.247H63.66  V97.754C63.659,47.571,101.775,5.567,151.545,0.622z"/>
<g>
	<path style="fill:#DD9A5E;" d="M244.288,133.33c0,11.25-10.89,20.369-24.324,20.369v-40.736   C233.398,112.963,244.288,122.081,244.288,133.33z"/>
	<path style="fill:#DD9A5E;" d="M39.335,133.33c0,11.25,10.89,20.369,24.325,20.369v-40.736   C50.225,112.963,39.335,122.081,39.335,133.33z"/>
</g>
<g>
	<path style="fill:#D38D54;" d="M219.964,135.391v18.308c18.256,0,29.789-16.133,21.727-29.523   C237.688,130.827,229.465,135.391,219.964,135.391z"/>
	<path style="fill:#D38D54;" d="M41.931,124.176c-8.071,13.405,3.508,29.523,21.728,29.523v-18.308   C54.158,135.391,45.935,130.827,41.931,124.176z"/>
</g>
<path style="fill:#EDAE6B;" d="M212.651,108.742c-7.064-6.122-10.355-14.692-10.693-24.08c-0.285-7.833-6.502-12.108-13.472-11.032  c-5.641,0.867-11.47,1.598-17.16,2.155c-26.314,2.583-51.437,1.69-76.744-2.24c-6.154-0.959-12.633,3.25-12.914,11.119  c-0.226,6.2-1.72,12.159-4.964,17.363c-4.838,7.795-10.985,10.1-13.045,11.29c0,49.061-0.982,55.715,3.319,69.96  c13.8,45.761,65.242,68.238,108.001,48.175c24.848-11.664,42.477-35.942,44.732-64.538c0.355-4.482,0.256-2.59,0.256-53.597  C219.595,113.13,216.49,112.064,212.651,108.742z"/>
<path style="fill:#DD9A5E;" d="M94.456,198.273c-0.779-2.121-1.792-5.256-2.637-8.561C87.8,174,89.021,164.887,88.997,122.686  c0-7.592,5.111-8.056,10.242-14.394c5.281-6.513,7.596-14.77,7.79-23.287c0.091-3.876,1.906-7.204,4.586-9.29  c-5.602-0.561-11.337-1.286-17.034-2.17c-6.62-1.031-12.72,3.941-12.89,10.638c-0.214,8.208-2.662,15.966-8.144,22.034  c-4.545,5.037-8.903,6.53-9.889,7.099c0,48.65-2.07,61.519,8.084,82.009c5.741,11.584,12.429,17.967,12.912,18.638l0.001,0.001  c10.917,11.652,24.784,19.322,37.941,22.46C121.155,235.348,100.886,215.749,94.456,198.273z"/>
<path style="fill:#4CAEE5;" d="M149.538,343.339v-63.407l-7.725,7.273l-7.725-7.307v63.44c0,4.267,3.459,7.725,7.725,7.725  C146.079,351.064,149.538,347.606,149.538,343.339z"/>
<path style="fill:#DADADA;" d="M173.139,257.712l-31.326,29.494l16.911,17.042c3.229,3.254,8.581,2.937,11.404-0.676l26.896-34.428  L173.139,257.712z"/>
<g>
	<polygon style="fill:#CECCCA;" points="185.166,263.468 173.139,257.712 141.813,287.206 153.003,298.483  "/>
	<path style="fill:#CECCCA;" d="M161.024,305.829c1.415,0.632,2.974,0.811,4.466,0.541L161.024,305.829z"/>
</g>
<path style="fill:#DADADA;" d="M110.755,257.829l31.058,29.377l-16.911,17.042c-3.229,3.254-8.581,2.937-11.404-0.676  l-26.896-34.428L110.755,257.829z"/>
<polygon style="fill:#CECCCA;" points="119.918,287.092 130.623,298.483 141.813,287.206 110.756,257.829 98.023,263.794 "/>
<path style="fill:#D8A373;" d="M364.733,273.448v-37.924c-9.262-0.635-18.009-2.849-25.879-6.327  c-0.783,22.52,2.041,32.487-2.884,34.719l-21.315,5.307c5.306,8.925,12.481,16.47,20.939,22.022l22.129-8.137  C357.724,283.106,364.733,279.627,364.733,273.448z"/>
<path style="fill:#F7CF9C;" d="M440.435,135.103c4.398,0.205,7.863,3.826,7.863,8.229v5.91l0,0l0,0  c-0.021,10.893,3.524,45.128-28.196,71.526c-36.213,30.148-91.39,21.518-116.464-19.027c-15.316-24.747-11.593-46.485-11.648-80.715  l0,0v-3.958c0-4.599,3.24-8.531,7.739-9.483c7.982-1.688,20.879-6.273,32.579-18.726c2.94-3.129,7.956-2.966,10.69,0.345  C354.351,102.958,385.008,132.513,440.435,135.103z"/>
<path style="fill:#EAB883;" d="M317.806,163.749c-0.093-2.403-0.066,3.081-0.066-63.216c-6.876,4.034-13.301,6.055-18.01,7.051  c-4.499,0.952-7.739,4.884-7.739,9.483v3.958c0.059,37.293-3.159,56.792,11.648,80.715c15.971,25.846,46.641,41.429,79.381,36.004  C347.232,231.813,319.305,201.418,317.806,163.749z"/>
<g>
	<path style="fill:#B72C2C;" d="M440.084,272.895l-15.066-3.75c-11.537,19.463-31.942,32.407-55.206,32.407   C369.812,301.551,440.396,372.143,440.084,272.895z"/>
	<path style="fill:#B72C2C;" d="M299.873,272.895l15.066-3.75c11.537,19.463,31.942,32.407,55.206,32.407   C370.145,301.551,299.561,372.143,299.873,272.895z"/>
</g>
<g>
	<path style="fill:#A82626;" d="M336.569,291.667c-12.454,6.631-26.805,9.794-35.996-2.502c7.313,74.65,69.572,12.387,69.572,12.387   C357.86,301.551,346.374,297.939,336.569,291.667z"/>
	<path style="fill:#A82626;" d="M403.388,291.667c12.454,6.631,26.805,9.794,35.996-2.502c-7.313,74.65-69.572,12.387-69.572,12.387   C382.097,301.551,393.582,297.939,403.388,291.667z"/>
</g>
<g>
</g>
<g>
</g>
<g>
</g>
<g>
</g>
<g>
</g>
<g>
</g>
<g>
</g>
<g>
</g>
<g>
</g>
<g>
</g>
<g>
</g>
<g>
</g>
<g>
</g>
<g>
</g>
<g>
</g>
</svg>
