<?xml version="1.0" encoding="iso-8859-1"?>
<!-- Generator: Adobe Illustrator 19.0.0, SVG Export Plug-In . SVG Version: 6.00 Build 0)  -->
<svg xmlns="http://www.w3.org/2000/svg" xmlns:xlink="http://www.w3.org/1999/xlink" version="1.1" id="Capa_1" x="0px" y="0px" viewBox="0 0 512 512" style="enable-background:new 0 0 512 512;" xml:space="preserve">
<path style="fill:#7F7369;" d="M328.766,247.334h-43.803c-6.631,0-12.056-5.425-12.056-12.056l-6.028-102.158  c0,0-9.754-84.62,40.839-95.739c0,0,20.571-40.03,86.453-27.205c0.901,0.175,1.767,0.499,2.641,0.769  c27.062,8.395,48.426,27.552,60.211,51.323c15.877,32.044,10.693,55.831,4.342,173.011c0,6.631-5.425,12.056-12.056,12.056h-46.6"/>
<path style="fill:#72655A;" d="M336.383,247.334v-14.336c-27.059-11.958-44.207-37.728-45.42-66.2  c-0.091-2.102-0.104-45.625-0.037-46.429c-0.452-24.073,3.272-74.573,41.561-82.988c0,0,12.607-24.526,49.681-29.031  c-33.323-3.661-57.138,7.2-70.291,23.08c-2.916,3.521-4.089,5.85-4.158,5.95c-34.471,7.576-42.604,50.118-41.506,85.247  c0.004,0.146,6.688,112.537,6.694,112.65c0,6.631,5.425,12.056,12.056,12.056C295.573,247.334,324.788,247.334,336.383,247.334z"/>
<path style="fill:#DD9A5E;" d="M229.027,470.81c0.981-8.768,13.323-119.053,14.082-125.831c3.445-23.904,1.433-38.226,12.841-52.069  c-3.485-4.237-8.46-8.189-11.74-10.192l-0.361-0.089c-12.201-7.309-22.473-7.615-45.146-13.853l0,0l-23.185-11.098l0,0v-27.694  c-18.3,8.092-40.608,8.789-60.458,0.158l0,0l-0.1,27.65l0,0l0,0l0,0l-23.085,10.983l0,0c-22.527,6.198-32.92,6.53-45.145,13.853  l-0.361,0.089c-4.718,2.879-10.355,7.757-14.178,13.465c-8.176,12.211-7.107,19.334-15.198,91.643l0,0  c-9.484,86.114-9.576,82.556-9.475,88.398c0,0.011,0,0.023,0,0.035c-0.153,11.261,6.755,28.263,27.744,28.263l0,0  c1.583,0,219.34,0.006,220.689-0.016C239.874,504.238,227.127,492.785,229.027,470.81z"/>
<g>
	<path style="fill:#D38D54;" d="M32.702,470.81l9.286-82.983c8.287-83.411,6.656-89.882,15.198-102.641   c2.638-3.938,5.821-7.249,9.57-10.155c-1.736,0.551-10.504,1.895-20.028,7.6l-0.361,0.089   c-14.201,8.665-19.761,20.575-21.648,36.055C22.94,334.68,10.321,447.436,7.705,470.81c-0.216,2.499-0.189,4.029-0.189,5.45   c-0.153,11.261,6.755,28.263,27.744,28.263c15.472,0,9.521,0,24.996,0C41.321,504.523,31.01,490.413,32.702,470.81z"/>
	<path style="fill:#D38D54;" d="M139.963,281.442v-45.294c-8.519-0.572-16.73-2.454-24.902-6.006l-0.1,27.65l0,0L139.963,281.442z"/>
</g>
<path style="fill:#EAB883;" d="M487.18,318.772c-1.801-14.763-7.001-27.11-21.648-36.055l-0.361-0.089  c-12.846-7.695-22.183-7.38-65.531-18.928c-1.655-0.749-2.799-3.213-2.799-6.023v-24.552c-19.335,8.432-41.697,8.166-60.457-0.129  v24.68c0,2.81-1.146,5.274-2.799,6.023c-43.058,11.471-52.636,11.203-65.531,18.928l-0.361,0.089  c-14.752,9.009-19.867,21.444-21.648,36.055c-17.829,160.735-17.306,151.529-17.204,157.452  c-0.26,14.974,9.867,28.298,27.744,28.298c46.33,0,172.12,0,220.057,0c18.268,0,28.119-13.916,27.744-28.298  C504.486,470.31,504.94,478.881,487.18,318.772z"/>
<path style="fill:#D8A373;" d="M253.834,476.225c-0.099-5.767-0.429,1.719,17.204-166.451c1.819-14.914,6.899-26.696,21.223-35.786  c-4.205,1.274-13.792,2.4-24.21,8.641l-0.361,0.089c-14.753,9.009-19.868,21.445-21.648,36.055  c-17.833,161.773-17.204,149.642-17.204,157.487c-0.153,11.261,6.755,28.263,27.744,28.263c15.472,0,9.521,0,24.996,0  C263.45,504.523,253.678,491.019,253.834,476.225z"/>
<path style="fill:#D83D3D;" d="M494.906,387.807c-8.024-71.219-7.677-70.394-8.951-76.562c-2.58-12.474-10.14-22.25-20.423-28.528  c-0.102-0.025-0.463-0.114-0.361-0.089c-12.846-7.695-22.184-7.38-65.531-18.928c-1.655-0.749-2.799-3.213-2.799-6.023v-24.552l0,0  v-0.129c-18.992,8.391-41.215,8.503-60.457,0v0.129l0,0v24.552c0,2.81-1.146,5.274-2.799,6.023  c-43.058,11.471-52.636,11.203-65.531,18.928c-0.102,0.025-0.463,0.114-0.361,0.089c-13.93,8.504-19.742,20.416-21.648,36.055  l-7.726,69.035l48.696,5.109c2.59,0.272,4.514,2.521,4.384,5.121l-5.349,106.485c59.608,0,101.836,0,161.42,0l-5.608-106.073  c-0.15-2.829,1.944-5.28,4.761-5.576L494.906,387.807z"/>
<path style="fill:#A82626;" d="M238.317,387.807l24.208,2.54c8.606-79.767,8.086-80.107,9.738-88.099  c2.517-12.172,9.626-21.678,19.997-28.259c-3.095,1.003-13.793,2.4-24.21,8.641c-0.102,0.025-0.463,0.114-0.361,0.089  c-10.225,6.242-17.825,15.965-20.422,28.528C245.701,318.823,245.996,320.477,238.317,387.807z"/>
<path style="fill:#70BBEF;" d="M244.03,282.718c-0.102-0.025-0.463-0.114-0.361-0.089c-12.228-7.325-22.665-7.669-44.987-13.814  l0.021-0.04l-23.185-11.098l-0.168,0.253c-0.001-0.031-0.002-0.061-0.005-0.091l-30.238,28.469l-30.149-28.517l-23.085,10.983l0,0  c-22.527,6.198-32.921,6.53-45.146,13.853l-0.361,0.089c-14.245,8.698-19.751,20.493-21.648,36.055l-7.728,69.054l47.766,5.011  c3.011,0.316,5.251,2.931,5.099,5.956l-5.311,105.729c18.534,0,144.185,0,161.42,0l-5.607-106.06  c-0.15-2.836,1.948-5.294,4.773-5.591l12.768-1.34l5.21-46.554c3.484-24.552,1.495-38.176,12.755-51.958  C253.377,289.974,246.743,284.374,244.03,282.718z"/>
<path style="fill:#4CAEE5;" d="M41.989,387.826c8.559-86.164,6.434-92.204,17.543-105.806c1.991-2.438,4.335-4.75,7.226-6.991  c-2.27,0.645-10.803,2.074-20.028,7.6l-0.361,0.089c-6.365,3.887-12.132,9.554-15.895,16.288  c-7.128,12.757-4.962,20.719-13.482,88.82l24.706,2.592L41.989,387.826z"/>
<path style="fill:#EAB883;" d="M420.025,268.776l-20.384-5.075c-1.655-0.749-2.799-3.213-2.799-6.023v-27.551l0,0v-0.129  c-18.992,8.391-41.215,8.503-60.457,0v0.129l0,0v27.551c0,2.81-1.146,5.274-2.799,6.023l-20.691,5.151  C337.759,310.679,395.176,310.695,420.025,268.776z"/>
<path id="SVGCleanerId_0" style="fill:#4C4846;" d="M50.347,128.464c0.025-27.598-0.064-26.482,0.093-30.146  c3.155-74.415,87.434-116.447,148.847-73.664c41.304,28.838,40.546,64.536,40.582,103.81"/>
<g>
	<path id="SVGCleanerId_0_1_" style="fill:#4C4846;" d="M50.347,128.464c0.025-27.598-0.064-26.482,0.093-30.146   c3.155-74.415,87.434-116.447,148.847-73.664c41.304,28.838,40.546,64.536,40.582,103.81"/>
</g>
<path style="fill:#3F3B39;" d="M154.557,8.114C100.14,2.712,52.305,44.208,50.411,99.103c-0.117,3.421-0.039,2.632-0.063,29.362  h18.896v-26.061C69.244,53.689,106.243,12.914,154.557,8.114z"/>
<g>
	<path style="fill:#DD9A5E;" d="M244.585,136.937c0,10.921-10.571,19.773-23.612,19.773v-39.544   C234.014,117.166,244.585,126.017,244.585,136.937z"/>
	<path style="fill:#DD9A5E;" d="M45.631,136.937c0,10.921,10.571,19.773,23.613,19.773v-39.544   C56.202,117.166,45.631,126.017,45.631,136.937z"/>
</g>
<g>
	<path style="fill:#D38D54;" d="M220.973,138.938v17.773c17.722,0,28.917-15.661,21.091-28.659   C238.178,134.508,230.195,138.938,220.973,138.938z"/>
	<path style="fill:#D38D54;" d="M48.151,128.052c-7.835,13.013,3.405,28.659,21.092,28.659v-17.773   C60.02,138.938,52.038,134.508,48.151,128.052z"/>
</g>
<path style="fill:#EDAE6B;" d="M213.874,113.069c-6.858-5.943-10.052-14.262-10.38-23.376c-0.277-7.604-6.311-11.754-13.078-10.709  c-5.475,0.841-11.134,1.552-16.657,2.093c-25.545,2.508-49.931,1.641-74.498-2.175c-5.974-0.931-12.264,3.154-12.536,10.793  c-0.22,6.019-1.67,11.804-4.818,16.854c-4.696,7.567-10.663,9.805-12.664,10.96c0,47.625-0.953,54.084,3.222,67.912  c13.396,44.422,63.333,66.24,104.84,46.765c24.121-11.323,41.234-34.89,43.422-62.649c0.344-4.35,0.248-2.515,0.248-52.028  C220.615,117.329,217.6,116.294,213.874,113.069z"/>
<path style="fill:#DD9A5E;" d="M99.138,199.98c-0.757-2.059-1.74-5.102-2.561-8.311c-3.901-15.253-2.716-24.099-2.739-65.065  c0-7.37,4.961-7.82,9.942-13.973c5.126-6.322,7.374-14.337,7.563-22.605c0.089-3.763,1.851-6.993,4.452-9.018  c-5.438-0.544-11.005-1.248-16.535-2.107c-6.426-1.001-12.348,3.825-12.513,10.327c-0.208,7.968-2.584,15.498-7.906,21.389  c-4.412,4.889-8.642,6.339-9.599,6.891c0,47.226-2.009,59.718,7.848,79.609c5.573,11.245,12.065,17.441,12.534,18.093l0.001,0.001  c10.597,11.311,24.059,18.756,36.831,21.803C125.057,235.97,105.38,216.944,99.138,199.98z"/>
<path style="fill:#DADADA;" d="M175.519,257.678l-30.41,28.631l16.416,16.543c3.134,3.159,8.33,2.852,11.07-0.656l26.108-33.42  L175.519,257.678z"/>
<g>
	<polygon style="fill:#CECCCA;" points="187.194,263.267 175.519,257.678 145.109,286.309 155.972,297.256  "/>
	<path style="fill:#CECCCA;" d="M163.758,304.388c1.374,0.614,2.886,0.788,4.335,0.526L163.758,304.388z"/>
</g>
<path style="fill:#DADADA;" d="M114.961,257.793l30.149,28.517l-16.416,16.543c-3.134,3.159-8.33,2.852-11.07-0.656l-26.108-33.42  L114.961,257.793z"/>
<polygon style="fill:#CECCCA;" points="123.855,286.199 134.247,297.256 145.109,286.309 114.961,257.793 102.602,263.583 "/>
<path style="fill:#D8A373;" d="M361.504,272.954V236.14c-8.991-0.616-17.481-2.766-25.122-6.141  c-0.76,21.86,1.981,31.536-2.799,33.702l-20.691,5.151c5.151,8.663,12.115,15.988,20.326,21.377l21.481-7.899  C354.7,282.33,361.504,278.952,361.504,272.954z"/>
<path style="fill:#F7CF9C;" d="M434.991,138.658c4.269,0.199,7.634,3.714,7.634,7.988v5.737l0,0l0,0  c-0.021,10.574,3.421,43.807-27.371,69.433c-35.153,29.266-88.715,20.888-113.055-18.471  c-14.867-24.023-11.254-45.124-11.307-78.352l0,0v-3.842c0-4.464,3.145-8.282,7.513-9.205c7.749-1.639,20.268-6.09,31.625-18.178  c2.854-3.037,7.724-2.879,10.377,0.335C351.426,107.454,381.187,136.144,434.991,138.658z"/>
<path style="fill:#EAB883;" d="M315.951,166.466c-0.091-2.333-0.064,2.991-0.064-61.365c-6.675,3.916-12.912,5.878-17.483,6.845  c-4.367,0.924-7.513,4.741-7.513,9.205v3.842c0.058,36.202-3.066,55.129,11.307,78.352c15.503,25.09,45.276,40.216,77.057,34.95  C344.515,232.537,317.406,203.033,315.951,166.466z"/>
<g>
	<path style="fill:#B72C2C;" d="M434.649,272.416l-14.625-3.64c-11.2,18.894-31.007,31.458-53.59,31.458   C366.435,300.234,434.952,368.76,434.649,272.416z"/>
	<path style="fill:#B72C2C;" d="M298.543,272.416l14.624-3.64c11.2,18.894,31.007,31.458,53.59,31.458   C366.757,300.234,298.24,368.76,298.543,272.416z"/>
</g>
<g>
	<path style="fill:#A82626;" d="M334.165,290.639c-12.09,6.437-26.02,9.507-34.943-2.429c7.099,72.465,67.535,12.024,67.535,12.024   C354.832,300.234,343.683,296.729,334.165,290.639z"/>
	<path style="fill:#A82626;" d="M399.028,290.639c12.09,6.437,26.02,9.507,34.943-2.429c-7.099,72.465-67.535,12.024-67.535,12.024   C378.36,300.234,389.509,296.729,399.028,290.639z"/>
</g>
<path d="M35.266,511.956H95.82c4.142,0,7.499-3.356,7.499-7.499c0-4.142-3.356-7.499-7.499-7.499H72.644l7.435-140.646  c0.219-4.135-2.956-7.665-7.093-7.884c-4.121-0.246-7.666,2.956-7.884,7.093l-1.564,29.582l-38.25-4.013l0.412-3.684  c7.687-67.322,4.948-73.213,22.252-86.727c9.08-7.105,23.771-8.748,40.713-13.441l23.053,29.511  c5.517,7.058,15.987,7.682,22.301,1.32l3.595-3.623v36.288c0,4.142,3.356,7.499,7.499,7.499s7.499-3.356,7.499-7.499v-36.288  c2.021,1.527,6.102,8.535,15.041,7.998c4.267-0.252,8.223-2.328,10.854-5.696l23.083-29.547c20.061,5.553,32.842,5.923,44.603,16.46  c-9.131,14.941-6.944,25.608-15.071,90.978l-3.769,0.396l-1.561-29.513c-0.219-4.136-3.753-7.34-7.884-7.093  c-4.136,0.219-7.312,3.748-7.093,7.884c0.753,14.607,6.455,125.274,7.248,140.646h-87.25c-4.142,0-7.499,3.356-7.499,7.499  c0,4.142,3.356,7.499,7.499,7.499c10.864,0,176.426,0,187.395,0c4.142,0,7.499-3.356,7.499-7.499c0-4.142-3.356-7.499-7.499-7.499  h-24.252l7.436-140.646c0.219-4.135-2.956-7.665-7.093-7.884c-4.112-0.246-7.666,2.956-7.884,7.093l-1.563,29.563l-38.241-4.012  c7.334-65.292,6.467-72.845,15.053-83.36c11.187-13.337,27.477-14.955,29.594-15.81c1.174,24.126,8.205,49.387,32.377,49.387  c16.6,0,34.144-13.122,42.963-20.77c39.365,34.145,72.617,27.411,75.341-28.624c2.104,0.688,10.478,1.769,19.381,7.103  c10.83,6.505,15.944,15.006,17.915,27.074c0.733,4.683,0.124,0.576,7.382,65.002l-37.95,3.982l-1.561-29.532  c-0.219-4.137-3.794-7.337-7.884-7.093c-4.136,0.219-7.312,3.748-7.093,7.884l7.435,140.646h-86.363  c-4.142,0-7.499,3.356-7.499,7.499c0,4.142,3.356,7.499,7.499,7.499h123.44c23.741,0,37.791-19.082,35.008-42.047L498.8,355.09  c-4.43-39.061-3.909-49.634-12.787-62.992c-16.146-24.3-42.222-24.019-81.672-35.018v-2.311h44.97  c10.7,0,19.422-8.638,19.554-19.309l5.926-100.42c0.243-4.134-2.909-7.684-7.045-7.928c-4.148-0.253-7.685,2.909-7.928,7.044  c-6.182,104.851-5.949,100.614-5.949,101.056c0,2.471-2.088,4.558-4.558,4.558h-44.97v-1.941  c22.258-12.026,39.126-32.294,44.277-58.655c1.953-9.439,1.456-16.49,1.507-32.594c0-8.293-6.493-15.091-14.781-15.477  c-51.275-2.396-79.427-30.057-89.151-41.839c-2.637-3.193-6.521-5.101-10.658-5.233c-4.152-0.146-8.135,1.521-10.967,4.537  c-9.802,10.433-20.48,14.446-27.712,15.976c-7.8,1.649-13.461,8.605-13.461,16.541c0.028,44.517-0.062,42.152,0.071,45.645  l-0.003-0.07c0.493,12.54,3.959,25.233,8.836,34.252c10.171,20.178,23.626,28.874,36.587,36.773v2.091  c-0.717-0.011-23.447-0.003-43.921-0.006c-2.471,0-4.557-2.087-4.557-4.558c0-0.44,0.251,4.106-6.041-102.599  c-0.009-0.136-0.021-0.276-0.036-0.412c-0.089-0.779-8.373-78.029,35-87.562c2.183-0.48,4.012-1.859,5.033-3.847  c0.762-1.428,19.321-34.821,78.376-23.322c0.215,0.042,0.67,0.19,1.071,0.321c40.405,13.192,63.305,45.754,65.852,82.335  c0.288,4.13,3.849,7.245,8.002,6.959c4.131-0.288,7.247-3.87,6.959-8.002c-2.967-42.631-30.964-80.583-74.112-94.889  c-2.152-0.706-3.628-1.195-4.906-1.444c-46.489-9.052-78.073,6.563-92.653,28.036C280.826,37.07,266.33,56.8,260.939,88.083  c-3.853,22.354-1.804,43.1-1.532,45.608l6.006,101.769c0.132,10.669,8.852,19.309,19.553,19.309  c9.791-0.001,43.244,0.005,43.921-0.006v2.317c-47.944,11.935-59.084,12.863-72.946,25.059  c-15.142-13.297-28.592-13.403-54.682-20.518l-18.236-8.729v-15.221c27.695-14.334,45.457-42.566,45.457-74.257v-0.074  c20.51-4.469,30.042-25.249,18.891-40.879c0.201-32.336-0.254-32.315-3.67-47.347c-17.247-62.597-76.9-72.687-77.001-72.742  C104.209-11.066,45.538,35.351,42.954,97.918c-0.004,0.139-0.102,2.236-0.102,4.42c0.001,4.367-0.002,19.711,0.003,20.119  c-2.986,4.185-4.72,9.125-4.72,14.415c0,12.772,10.069,23.516,23.613,26.465c0.178,0.691-2.929,48.468,45.265,74.235l0.552-1.12  v0.233l-0.445,0.94c0.101,0.05,0.387,0.19,0.445,0.219l-0.001,14.871l-18.987,9.088c-30.008,7.471-41.335,8.656-54.943,21.225  c-10.784,9.988-14.672,20.953-16.362,34.843C-0.427,477.954-0.087,468.742,0.022,476.153  C-0.205,495.298,13.159,511.956,35.266,511.956z M491.045,491.653c-7.951,8.058-18.756,4.347-36.463,5.306l-5.123-96.909  l38.826-4.073c9.139,83.195,8.452,72.244,8.604,80.363C496.941,480.836,495.433,487.206,491.045,491.653z M389.344,243.664v13.949  c0,7.111,4.13,12.208,8.488,13.3c0.966,0.24-3.542-0.882,9.706,2.417c-22.028,25.742-59.86,25.758-81.872,0.006  c9.958-2.519,9.932-2.379,11.013-2.868c4.376-1.981,7.205-7.027,7.205-12.853v-14.033  C357.76,247.59,373.197,248.029,389.344,243.664z M318.86,315.412c-7.652-3.183-12.115-16.311-12.74-37.21l3.395-0.845  c9.799,14.023,23.684,23.806,39.369,28.005C338.919,312.468,326.646,318.65,318.86,315.412z M414.347,315.408  c-8.719,3.64-22.438-4.562-30.115-10.104c16.324-4.425,29.937-14.737,39.19-28.019c0.1,0.025,3.889,0.968,3.656,0.91  C426.456,299.088,421.996,312.218,414.347,315.408z M309.427,200.67c-6.391-10.636-11.034-21.266-11.034-37.259v-42.326  c0-0.905,0.644-1.674,1.566-1.869c9.22-1.95,22.742-6.988,35.087-19.902c11.368,13.59,43.043,44.126,99.599,46.769  c0.271,0.013,0.483,0.231,0.483,0.497c-0.019,15.018,0.83,24.241-2.902,36.613c-9.269,30.753-36.343,42.081-34.203,41.032  l-0.655,0.323c-3.306,1.666-2.09,0.881-3.55,1.525c-13.301,5.933-26.74,5.654-27.17,5.699  C366.285,231.67,330.779,233.473,309.427,200.67z M167.843,243.622v10.921l-22.73,21.4l-22.55-21.23v-11.04  C137.232,247.781,152.837,247.848,167.843,243.622z M123.461,297.418l-20.19-25.845l10.157-4.861l20.941,19.717L123.461,297.418z   M166.765,297.418l-10.907-10.991l21.062-19.831l10.133,4.851L166.765,297.418z M229.414,399.897l-0.867,7.744l-0.402-7.611  L229.414,399.897z M283.788,400.052l-4.868,96.907c-23.785-0.025-24.472,0.203-28.091-0.634  c-9.209-2.126-14.294-10.213-14.486-19.665c-0.034-7.262-0.279,0.73,8.601-80.685L283.788,400.052z M228.479,147.683v-21.621  C239.933,130.787,239.933,142.957,228.479,147.683z M79.928,44.328L79.928,44.328c9.938-10.871,21.403-19.026,35.853-24.198  c0.239-0.009,54.098-21.696,96.206,26.152c25.171,29.998,19.64,61.835,20.388,65.223c-3.231-1.12-6.725-1.777-10.376-1.881  c-7.247-4.155-10.709-11.842-11.007-20.277c-0.063-0.262,0.339-8.111-6.558-13.866c-8.41-7.018-15.737-3.488-31.016-1.973  c-40.293,3.903-68.596-1.743-73.001-2.082C89.959,69.8,79.578,77.346,79.234,89.356c-0.547,14.951-10.436,19.93-10.385,19.896  c-0.106,0.064-0.081,0.048-0.622,0.373c-3.653,0.104-7.147,0.761-10.379,1.881C58.676,106.414,52.9,74.745,79.928,44.328z   M61.748,126.06v21.624C50.29,142.96,50.287,130.785,61.748,126.06z M76.745,156.645v-34.642  c5.099-4.035,10.763-7.356,14.991-18.725c1.615-4.416,2.372-9.203,2.512-13.924c0.049-1.946,1.873-3.419,3.863-3.107  c19.746,2.583,32.727,3.885,50.382,3.677l1.118-0.019c60.434-0.917,39.777-13.249,48.664,12.776  c3.429,10.127,10.348,15.714,9.773,15.168c2.824,2.628,5.254,4.026,5.429,4.152c0,1.383,0.003,40.006,0.003,41.41  c0,35.515-27.247,65.614-63.793,68.196c-20.4,1.35-34.567-6.828-35.839-7.384l-0.818,1.65c-0.033,0.009-0.065,0.017-0.098,0.027  l0.825-1.722c-1.008-0.579-2.488-1.23-5.7-3.315C72.12,197.654,77.151,158.62,76.745,156.645z M62.286,400.052l-4.868,96.907  c-17.741-0.957-28.606,2.752-36.556-5.306c-5.241-5.312-6.315-12.707-5.689-20.174l8.448-75.484L62.286,400.052z"/>
<g>
</g>
<g>
</g>
<g>
</g>
<g>
</g>
<g>
</g>
<g>
</g>
<g>
</g>
<g>
</g>
<g>
</g>
<g>
</g>
<g>
</g>
<g>
</g>
<g>
</g>
<g>
</g>
<g>
</g>
</svg>
