<?xml version="1.0" encoding="iso-8859-1"?>
<!-- Generator: Adobe Illustrator 19.0.0, SVG Export Plug-In . SVG Version: 6.00 Build 0)  -->
<svg xmlns="http://www.w3.org/2000/svg" xmlns:xlink="http://www.w3.org/1999/xlink" version="1.1" id="Capa_1" x="0px" y="0px" viewBox="0 0 512.002 512.002" style="enable-background:new 0 0 512.002 512.002;" xml:space="preserve">
<path style="fill:#D83D3D;" d="M301.481,48.97c-5.003-5.828-13.782-6.498-19.61-1.497l-1.5,1.287l-1.5-1.287  c-5.828-5.002-14.608-4.332-19.61,1.497c-5.019,5.847-4.307,14.629,1.497,19.61l17.087,14.663c1.453,1.247,3.599,1.247,5.052,0  c18.456-15.839,17.638-15.036,18.685-16.281C305.887,61.842,305.98,54.213,301.481,48.97z"/>
<path style="fill:#B72C2C;" d="M275.414,60.972c-3.823-4.547-4.316-11.069-1.229-16.144c-14.384-4.755-24.974,13.843-13.426,23.753  l17.087,14.663c1.453,1.247,3.599,1.247,5.052,0l9.092-7.802C276.556,62.115,276.725,62.531,275.414,60.972z"/>
<path style="fill:#FCD249;" d="M396.512,217.46c-2.133,1.95-4.959,3.153-8.059,3.153h-55.384c-3.1,0-5.926-1.203-8.059-3.153  c-100.334,25.789-141.251,146.671-77.093,227.999c7.148-5.565,13.715-11.844,19.586-18.732  c-57.506-76.316-3.026-186.809,93.257-186.809c64.355,0,116.712,52.357,116.712,116.712c0,98.835-115.799,152.598-191.308,89.69  c-5.985,6.778-12.536,13.044-19.579,18.724c25.236,21.951,58.179,35.258,94.174,35.258c79.221,0,143.673-64.451,143.673-143.673  C504.433,289.746,458.494,233.392,396.512,217.46z"/>
<path style="fill:#F2C136;" d="M325.009,217.46c5.151,4.709,10.61,2.648,16.737,3.153c-68.9,23.51-106.424,94.481-96.044,155.614  c8.982,65.559,62.352,117.163,128.727,123.426c-4.5,0.426-9.059,0.648-13.668,0.648c-79.221,0-143.673-64.451-143.673-143.673  C217.088,289.746,263.028,233.392,325.009,217.46z"/>
<path style="fill:#F9B938;" d="M301.49,256.12c-7.811,4.624-15.034,10.138-21.539,16.392c53.144,87.464-9.966,200.83-113.171,200.83  c-72.963,0-132.323-59.36-132.323-132.322s59.36-132.322,132.323-132.322c38.184,0,72.635,16.263,96.81,42.22  c6.637-6.106,13.845-11.6,21.539-16.383c-21.394-23.753-49.819-41.045-81.958-48.588c-2.189,2.319-5.278,3.779-8.698,3.779h-55.384  c-3.425,0-6.517-1.464-8.706-3.787C60.034,202.444,7.496,265.709,7.496,341.02c0,87.829,71.454,159.283,159.284,159.283  c87.829,0,159.283-71.454,159.283-159.283C326.062,309.831,317.044,280.712,301.49,256.12z"/>
<path style="fill:#EAA224;" d="M36.022,320.664c7.871-61.434,50.876-112.027,108.161-130.938c-2.85-0.359-8.878,1.44-13.803-3.787  C60.034,202.444,7.496,265.709,7.496,341.02c0,92.585,79.343,166.653,172.897,158.695C87.39,491.804,22.947,404.98,36.022,320.664z"/>
<path style="fill:#D83D3D;" d="M402.979,124.769c-10.004-11.657-27.563-12.997-39.22-2.994l-2.999,2.573l-2.999-2.573  c-11.656-10.002-29.216-8.663-39.219,2.994c-10.036,11.695-8.614,29.259,2.994,39.22l34.174,29.327  c2.906,2.494,7.197,2.494,10.104,0c37.093-31.833,35.315-30.119,37.369-32.561C411.792,150.512,411.977,135.253,402.979,124.769z"/>
<path style="fill:#B72C2C;" d="M343.303,155.761c-9.879-11.752-8.454-29.697,3.978-39.624  c-28.369-8.076-48.502,28.323-25.746,47.851l34.174,29.327c2.906,2.494,7.197,2.494,10.104,0l10.339-8.872  C345.471,157.947,345.919,158.874,343.303,155.761z"/>
<path style="fill:#70BBEF;" d="M400.435,200.492v9.137c0,6.59-5.392,11.982-11.982,11.982h-55.384  c-6.59,0-11.982-5.392-11.982-11.982v-9.49c0-2.736,2.218-4.954,4.954-4.954h69.087  C398.059,195.186,400.435,197.562,400.435,200.492z"/>
<path style="fill:#4CAEE5;" d="M360.76,209.63v-9.49c0-2.736,2.218-4.954,4.954-4.954H326.04c-2.736,0-4.954,2.218-4.954,4.954v9.49  c0,6.59,5.392,11.982,11.982,11.982h39.674C366.152,221.612,360.76,216.22,360.76,209.63z"/>
<path style="fill:#D83D3D;" d="M208.998,93.879c-10.004-11.656-27.563-12.997-39.219-2.993l-2.999,2.573l-2.999-2.573  c-11.656-10.002-29.216-8.663-39.22,2.993c-10.036,11.695-8.614,29.259,2.994,39.219l34.174,29.327  c2.906,2.494,7.197,2.494,10.104,0l34.174-29.327C217.606,123.143,219.038,105.58,208.998,93.879z"/>
<path style="fill:#B72C2C;" d="M149.321,123.874c-9.57-11.384-8.595-28.71,3.067-38.868c-9.879-2.452-20.746,0.622-27.829,8.873  c-10.036,11.696-8.613,29.258,2.993,39.219l34.174,29.327c2.906,2.494,7.197,2.494,10.104,0l10.92-9.371  C151.583,126.14,151.944,126.994,149.321,123.874z"/>
<path style="fill:#70BBEF;" d="M206.453,169.604v9.137c0,6.59-5.392,11.982-11.982,11.982h-55.384  c-6.59,0-11.982-5.392-11.982-11.982v-9.49c0-2.736,2.218-4.954,4.954-4.954h69.087  C204.077,164.298,206.453,166.673,206.453,169.604z"/>
<path style="fill:#4CAEE5;" d="M166.779,178.741v-9.49c0-2.736,2.218-4.954,4.954-4.954h-39.674c-2.736,0-4.954,2.218-4.954,4.954  v9.49c0,6.59,5.392,11.982,11.982,11.982h39.674C172.171,190.724,166.779,185.332,166.779,178.741z"/>
<path d="M304.869,74.259c0.876-0.754,1.699-1.588,2.445-2.476c6.771-8.052,6.708-19.698-0.15-27.688  c-6.769-7.885-18.076-9.628-26.793-4.679c-8.717-4.948-20.025-3.206-26.792,4.679c-7.827,9.121-6.583,22.538,2.303,30.171  l17.086,14.662c2.145,1.842,4.774,2.763,7.404,2.763C287.291,91.688,289.017,86.893,304.869,74.259z M264.892,62.144  c-5.14-6.115,3.352-13.925,9.104-8.985l1.5,1.286c2.807,2.404,6.947,2.406,9.754-0.002l1.499-1.286  c6.347-5.45,14.892,4.099,8.36,9.741l-14.736,12.645C264.785,62.127,265.534,62.906,264.892,62.144z"/>
<circle cx="335.107" cy="13.459" r="9.396"/>
<circle cx="363.296" cy="73.543" r="9.396"/>
<circle cx="265.31" cy="133.635" r="9.396"/>
<circle cx="206.456" cy="44.116" r="9.396"/>
<path d="M221.43,498.584c3.907-1.358,5.972-5.627,4.614-9.533c-1.359-3.907-5.629-5.971-9.533-4.614  C114.356,519.959,8.452,439.527,15.293,331.348c0.261-4.129-2.875-7.686-7.004-7.946c-4.126-0.252-7.684,2.876-7.945,7.003  C-7.155,449.181,109.114,537.639,221.43,498.584z"/>
<path d="M478.145,273.537c-3.492,2.216-4.526,6.844-2.31,10.336c56.967,89.767-7.518,208.941-115.074,208.941  c-29.865,0-58.832-9.85-82.485-27.898c2.545-2.295,5.929-5.537,8.711-8.432c81.455,60.245,197.975,2.104,197.975-99.853  c0-98.089-108.753-156.888-190.578-104.931c-34.836,22.114-57.825,60.98-57.825,104.931c0,25.067,7.367,48.993,21.365,69.582  c-2.764,2.953-5.676,5.778-8.716,8.457c-16.141-22.94-24.632-49.76-24.632-78.037c0-62.468,42.048-114.866,98.986-131.021  c2.959,1.665,6.31,2.494,9.505,2.494c58.454-0.037,58.836,0.907,64.888-2.493c21.128,6.013,40.673,17.199,56.708,32.486  c2.995,2.854,7.734,2.741,10.588-0.252c2.854-2.994,2.741-7.735-0.252-10.588c-16.419-15.654-36.163-27.432-57.55-34.403  c0.764-3.438,0.361-5.17,0.474-12.36c0-7.056-5.74-12.795-12.795-12.795h-11.269c20.87-18.094,21.853-18.315,25.056-22.124  c11.169-13.285,11.063-32.497-0.253-45.682c-12.183-14.194-33.154-16.343-47.903-5.304c-14.73-11.006-35.751-8.852-47.902,5.305  c-12.911,15.045-10.864,37.188,3.799,49.78l21.006,18.026h-11.623c-6.861,0-12.443,5.582-12.443,12.443v8.492  c0,1.448,0.171,2.854,0.472,4.213c-9.719,3.151-18.954,7.236-27.626,12.13c-20.206-20.856-45.128-35.913-72.791-44.005  c0.487-2.902,0.208-3.846,0.291-11.364c0-7.056-5.74-12.795-12.795-12.795h-11.268c20.905-18.124,21.837-18.3,25.055-22.123  c18.59-22.114,4.079-55.721-24.356-57.892c-8.597-0.654-16.958,1.785-23.799,6.905c-14.731-11.006-35.751-8.855-47.902,5.305  c-12.895,15.027-10.881,37.189,3.799,49.781l21.004,18.025h-11.621c-6.861,0-12.443,5.582-12.443,12.443v8.492  c0,1.105,0.114,2.182,0.292,3.237C65.604,196.894,22.645,239.602,6.66,294.339c-1.159,3.971,1.119,8.129,5.09,9.288  c3.972,1.159,8.129-1.119,9.288-5.089c14.985-51.316,56.001-91.035,107.528-104.437c3.195,2.063,6.979,3.113,10.523,3.113  c56.113-0.242,58.912,1.394,65.894-3.106c25.947,6.743,49.417,20.143,68.51,39.07c-3.301,2.335-6.5,4.796-9.59,7.376  c-25.982-25.089-60.971-39.345-97.122-39.345c-77.093,0-139.812,62.72-139.812,139.812c0,77.092,62.72,139.811,139.812,139.811  c106.408,0,173.271-114.534,122.668-206.846c3.059-2.645,6.259-5.118,9.578-7.404c39.519,69.942,17.638,159.846-52.228,203.369  c-3.511,2.187-4.583,6.806-2.395,10.317c2.19,3.517,6.813,4.579,10.316,2.396c4.018-2.503,7.914-5.188,11.698-8.018  c26.748,21.415,60.01,33.146,94.347,33.146c119.44,0,190.934-132.337,127.719-231.944  C486.265,272.354,481.635,271.32,478.145,273.537z M324.224,129.646c7.262-8.462,20.115-9.519,28.66-2.187l2.999,2.573  c2.807,2.408,6.949,2.408,9.756,0l2.999-2.573c8.504-7.298,21.328-6.356,28.659,2.187c7.368,8.586,6.339,21.339-2.187,28.659  c-36.226,30.953-34.181,29.621-34.522,29.327l-34.174-29.326C317.879,150.969,316.863,138.225,324.224,129.646z M130.091,125.046  c-6.427-7.643-6.362-18.699,0.152-26.289c7.321-8.53,20.18-9.465,28.66-2.187l2.999,2.573c2.807,2.408,6.949,2.408,9.756,0  l2.999-2.573c8.504-7.298,21.363-6.318,28.659,2.187c7.368,8.586,6.34,21.342-2.187,28.66  c-37.012,31.742-34.132,29.354-34.349,29.392C166.717,156.808,131.792,127.071,130.091,125.046z M139.087,182.235  c-0.283,0-0.558-0.034-0.828-0.087c-2.088-0.4-3.666-2.294-3.666-4.407v-5.956c68.048,0-3.399,0.058,64.37,0  c-0.291,4.767,0.948,7.605-1.962,9.638C194.904,182.904,196.524,181.976,139.087,182.235z M328.576,202.675  c61.034,0.019,13.572,0.012,64.37,0c-0.357,4.524,1.151,8.006-2.445,9.914c-1.784,0.949,1.182,0.368-57.432,0.534  c-0.297,0-0.586-0.033-0.868-0.091c-0.572-0.116-1.096-0.34-1.591-0.67c-1.312-0.895-2.035-2.296-2.035-3.733L328.576,202.675  L328.576,202.675z M41.945,341.02c0-68.834,56.001-124.834,124.834-124.834c31.986,0,62.952,12.514,86.09,34.549  c-27.03,27.557-43.27,65.191-43.27,105.894c0,31.655,9.591,61.662,27.802,87.269C155.461,500.32,41.945,441.808,41.945,341.02z   M267.925,414.094c-10.741-17.24-16.387-36.914-16.387-57.465c0-27.357,10.111-52.395,26.791-71.578  C298.991,326.111,295.579,375.923,267.925,414.094z M311.898,258.965c72.215-36.278,158.086,16.502,158.086,97.663  c0,89.11-101.31,140.334-173.06,88.533C340.08,391.38,345.137,317.547,311.898,258.965z"/>
<g>
</g>
<g>
</g>
<g>
</g>
<g>
</g>
<g>
</g>
<g>
</g>
<g>
</g>
<g>
</g>
<g>
</g>
<g>
</g>
<g>
</g>
<g>
</g>
<g>
</g>
<g>
</g>
<g>
</g>
</svg>
