<?xml version="1.0" encoding="iso-8859-1"?>
<!-- Generator: Adobe Illustrator 19.0.0, SVG Export Plug-In . SVG Version: 6.00 Build 0)  -->
<svg xmlns="http://www.w3.org/2000/svg" xmlns:xlink="http://www.w3.org/1999/xlink" version="1.1" id="Capa_1" x="0px" y="0px" viewBox="0 0 512 512" style="enable-background:new 0 0 512 512;" xml:space="preserve">
<path style="fill:#51506D;" d="M192.665,289.5L192.665,289.5l-81.905,93.621c1.407,2.402,2.283,5.016,2.574,7.652h91.63  c28.509,0,54.944-9.315,76.428-25.041l20.916-19.09c20.235-22.924,32.557-52.975,32.557-85.77V126.961  C314.375,150.381,196.88,284.682,192.665,289.5z"/>
<path style="fill:#434360;" d="M300.59,329.892c-21.484,15.727-47.919,25.041-76.428,25.041H135.42l-24.66,28.187  c1.408,2.402,2.283,5.016,2.574,7.652h91.63c28.509,0,54.944-9.315,76.428-25.041l20.917-19.09  c11.108-12.584,19.823-27.318,25.433-43.472C318.829,314.935,318.433,312.803,300.59,329.892z"/>
<path style="fill:#635E5E;" d="M404.79,391.729L404.79,391.729c-7.888-5.235-17.099-8.143-26.513-8.415l0,0  c-9.833-0.144-18.673,2.146-26.627,6.738l0,0l0,0c-5.272,3.044-9.977,7.018-13.899,11.838c-3.348,4.116-5.032,7.523-5.25,7.853l0,0  c-4.471,8.289-6.558,17.72-5.968,27.168l0,0c4.286,41.145,45.654,57.758,75.552,40.496l0,0l0,0  c24.027-13.872,32.452-44.662,18.46-68.896C413.927,397.049,405.324,392.208,404.79,391.729z M366.885,419.206l0.567-1.785  l1.829,0.402c19.861-9.494,36.297,19.698,16.406,31.182c-3.068,1.772-6.763,2.607-10.35,2.286  C359.019,449.855,353.235,428.569,366.885,419.206z"/>
<path style="fill:#4C4846;" d="M360.237,440.073c-5.102-10.078-5.274-19.388-5.318-19.551l0,0  c-0.59-9.449,1.497-18.879,5.968-27.168l0,0c0.281-0.407,2.156-4.329,6.324-9.125c-8.58,1.669-16.707,5.574-23.508,11.503  c-6.782,5.902-9.133,10.885-11.203,14.012l0,0c-4.471,8.289-6.558,17.72-5.968,27.168l0,0c5.072,48.687,60.775,61.647,88.381,29.938  C411.376,467.539,371.37,462.073,360.237,440.073z"/>
<path style="fill:#DADADA;" d="M378.25,416.16L223.475,274.875c1.706,11.543-7.87,21.271-19.186,20.149l155.21,141.681  c1.418,8.321,8.644,14.662,17.368,14.662c9.741,0,17.639-7.897,17.639-17.639C394.506,424.455,387.343,416.868,378.25,416.16z"/>
<path style="fill:#C0C0C0;" d="M218.838,289.599c-3.725,3.928-9.02,5.973-14.549,5.426l155.21,141.681  c2.458,14.427,20.414,19.7,30.319,8.97L218.838,289.599z"/>
<path style="fill:#DADADA;" d="M341.771,87.635c-4.012,0-7.826,1.731-10.468,4.751L191.59,252.083l0,0l0,0L93.075,364.689  c3.621,1.831,5,3.667,10.304,8.065c4.869,4.473,7.782,5.937,10.437,10.471l80.788-92.343l0,0l23.206-26.525l0,0  c1.006-1.15,13.134-15.013,14.784-16.899l0,0l115.488-132.007h61.563V87.635H341.771z"/>
<g>
	<path style="fill:#C0C0C0;" d="M348.082,115.451h61.563v-14.758h-61.194c-4.012,0-7.826,1.731-10.468,4.751   c-8.925,10.201-206.148,235.636-234.179,267.677c4.389,4.044,7.371,5.594,10.013,10.105   C142.575,350.353,319.427,148.206,348.082,115.451z"/>
	<path style="fill:#C0C0C0;" d="M369.468,131.238c-4.267,0-7.727-3.459-7.727-7.727V61.183c0-4.268,3.459-7.727,7.727-7.727   s7.727,3.459,7.727,7.727v62.329C377.195,127.78,373.736,131.238,369.468,131.238z"/>
</g>
<path style="fill:#D83D3D;" d="M169.206,183.606c-9.071-10.57-24.993-11.785-35.563-2.714l-2.719,2.334l-2.719-2.334  c-10.569-9.07-26.492-7.856-35.563,2.714c-9.1,10.604-7.811,26.531,2.714,35.563l30.987,26.592c2.635,2.262,6.527,2.262,9.162,0  c33.486-28.736,31.985-27.267,33.885-29.525C177.197,206.949,177.365,193.113,169.206,183.606z"/>
<path style="fill:#B72C2C;" d="M118.214,204.209c-6.88-8.184-7.819-19.896-2.365-29.069c-25.092-4.077-39.766,27.493-20.494,44.03  l30.987,26.592c2.635,2.262,6.527,2.262,9.162,0l15.304-13.134C119.9,205.948,120.602,207.048,118.214,204.209z"/>
<path style="fill:#D83D3D;" d="M75.877,106.614c-5.161-6.014-14.219-6.705-20.232-1.544l-1.547,1.328l-1.547-1.328  c-6.013-5.16-15.072-4.469-20.232,1.544c-4.642,5.409-4.546,13.28-0.104,18.564c1.33,1.582,19.384,16.889,19.278,16.798  c1.499,1.287,3.713,1.287,5.212,0l17.629-15.129C80.318,121.711,81.057,112.65,75.877,106.614z"/>
<path style="fill:#B72C2C;" d="M47.668,117.194c-3.623-4.31-4.352-10.341-1.979-15.353c-14.364-2.51-22.841,15.555-11.826,25.006  l17.629,15.129c1.499,1.287,3.713,1.287,5.212,0l9.772-8.386C48.597,118.158,49.025,118.809,47.668,117.194z"/>
<g>
	<circle style="fill:#ED7524;" cx="110.57" cy="69.976" r="9.695"/>
	<circle style="fill:#ED7524;" cx="139.65" cy="131.971" r="9.695"/>
</g>
<circle style="fill:#C0C0C0;" cx="206.05" cy="277.471" r="17.639"/>
<path style="fill:#AFAFB2;" d="M206.057,259.85c-13.449-0.02-22.113,14.616-15.284,26.444c6.831,11.831,23.838,11.639,30.543-0.014  C207.749,286.261,199.278,271.631,206.057,259.85z"/>
<path id="SVGCleanerId_0" style="fill:#F9B938;" d="M385.566,60.282h-33.482c-6.8,0-12.363-5.563-12.363-12.363v-7.727  c0-6.8,5.563-12.363,12.363-12.363h33.482c6.8,0,12.363,5.563,12.363,12.363v7.727C397.928,54.718,392.365,60.282,385.566,60.282z"/>
<g>
	<path id="SVGCleanerId_0_1_" style="fill:#F9B938;" d="M385.566,60.282h-33.482c-6.8,0-12.363-5.563-12.363-12.363v-7.727   c0-6.8,5.563-12.363,12.363-12.363h33.482c6.8,0,12.363,5.563,12.363,12.363v7.727C397.928,54.718,392.365,60.282,385.566,60.282z"/>
</g>
<path style="fill:#EAA224;" d="M368.824,47.919v-7.727c0-6.8,5.563-12.363,12.363-12.363h-29.104  c-6.799,0-12.363,5.563-12.363,12.363v7.727c0,6.8,5.563,12.363,12.363,12.363h29.104C374.388,60.282,368.824,54.718,368.824,47.919  z"/>
<path style="fill:#635E5E;" d="M499.637,83.971h-87.764c-2.937,0-5.318,2.381-5.318,5.318v23.509c0,3.324,2.695,6.019,6.019,6.019  h87.063c6.8,0,12.363-5.563,12.363-12.363V96.333C512,89.534,506.437,83.971,499.637,83.971z"/>
<path style="fill:#4C4846;" d="M432.31,112.798V89.289c0-2.937,2.381-5.318,5.318-5.318h-25.756c-2.937,0-5.318,2.381-5.318,5.318  v23.509c0,3.324,2.695,6.019,6.019,6.019h25.756C435.005,118.818,432.31,116.123,432.31,112.798z"/>
<path style="fill:#F9B938;" d="M110.507,376.98c-0.12-0.103-9.758-8.412-12.195-10.513c-6.525-5.625-15.643-6.556-22.131-2.26  l-29.443,20.19c27.64-1.443,51.006,19.516,52.963,46.693l16.303-32.551C119.297,391.487,117.032,382.605,110.507,376.98z"/>
<path style="fill:#EAA224;" d="M104.709,371.981c-0.161-0.139-6.596-5.687-6.396-5.514c-6.525-5.625-15.643-6.556-22.131-2.26  l-29.444,20.19c9.637-0.503,19.056,1.706,27.38,6.396C97.137,375.678,97.966,372.878,104.709,371.981z"/>
<circle style="fill:#635E5E;" cx="50.44" cy="433.731" r="50.44"/>
<circle style="fill:#C0C0C0;" cx="376.87" cy="433.731" r="17.639"/>
<path style="fill:#AFAFB2;" d="M376.875,416.104c-13.449-0.02-22.113,14.616-15.284,26.444c6.831,11.831,23.838,11.639,30.543-0.014  C386.048,442.526,370.096,427.885,376.875,416.104z"/>
<circle style="fill:#C0C0C0;" cx="50.44" cy="433.751" r="17.639"/>
<path style="fill:#AFAFB2;" d="M50.452,416.121c-13.449-0.019-22.113,14.616-15.284,26.444c6.831,11.831,23.838,11.639,30.543-0.014  C52.143,442.531,43.673,427.902,50.452,416.121z"/>
<path style="fill:#4C4846;" d="M32.615,437.522c-3.374-7.695-3.67-13.28-4.12-17l0,0c-0.59-9.449,1.497-18.879,5.968-27.168l0,0  c0.281-0.407,2.156-4.329,6.325-9.125c-9.814,1.909-18.681,6.692-25.54,13.366c-6.033,5.872-8.888,11.729-9.171,12.148l0,0  c-4.471,8.289-6.558,17.72-5.968,27.168l0,0c5.093,48.883,60.893,61.511,88.381,29.938C85.079,467.514,43.53,462.46,32.615,437.522z  "/>
<g>
</g>
<g>
</g>
<g>
</g>
<g>
</g>
<g>
</g>
<g>
</g>
<g>
</g>
<g>
</g>
<g>
</g>
<g>
</g>
<g>
</g>
<g>
</g>
<g>
</g>
<g>
</g>
<g>
</g>
</svg>
