<?xml version="1.0" encoding="iso-8859-1"?>
<!-- Generator: Adobe Illustrator 19.0.0, SVG Export Plug-In . SVG Version: 6.00 Build 0)  -->
<svg xmlns="http://www.w3.org/2000/svg" xmlns:xlink="http://www.w3.org/1999/xlink" version="1.1" id="Capa_1" x="0px" y="0px" viewBox="0 0 511.999 511.999" style="enable-background:new 0 0 511.999 511.999;" xml:space="preserve">
<path style="fill:#51506D;" d="M194.519,288.522L194.519,288.522l-79.506,90.88c1.366,2.332,2.216,4.869,2.498,7.428h88.946  c27.674,0,53.335-9.043,74.189-24.308l20.304-18.531c19.643-22.252,31.604-51.424,31.604-83.258V130.741  C312.666,153.477,198.611,283.845,194.519,288.522z"/>
<path style="fill:#434360;" d="M299.284,327.73c-20.854,15.266-46.516,24.308-74.189,24.308h-86.143l-23.938,27.362  c1.366,2.332,2.216,4.869,2.498,7.428h88.947c27.674,0,53.334-9.043,74.189-24.308l20.304-18.531  c10.783-12.215,19.243-26.519,24.689-42.199C316.989,313.211,316.604,311.142,299.284,327.73z"/>
<path style="fill:#635E5E;" d="M400.432,387.757L400.432,387.757c-7.656-5.081-16.598-7.904-25.737-8.168l0,0  c-9.545-0.139-18.126,2.083-25.848,6.54l0,0l0,0c-5.117,2.954-9.685,6.812-13.492,11.492c-3.25,3.995-4.884,7.302-5.096,7.622l0,0  c-4.34,8.046-6.366,17.201-5.793,26.373l0,0c4.161,39.94,44.317,56.066,73.339,39.31l0,0l0,0  c23.323-13.466,31.501-43.355,17.92-66.878C409.303,392.921,400.951,388.222,400.432,387.757z M363.638,414.429l0.55-1.732  l1.775,0.39c19.279-9.217,35.234,19.121,15.926,30.269c-2.978,1.72-6.565,2.531-10.048,2.219  C356.002,444.181,350.387,423.518,363.638,414.429z"/>
<path style="fill:#4C4846;" d="M357.185,434.685c-4.953-9.783-5.119-18.82-5.162-18.978l0,0c-0.573-9.172,1.453-18.327,5.793-26.373  l0,0c0.273-0.395,2.093-4.202,6.139-8.858c-8.328,1.62-16.218,5.411-22.82,11.166c-6.583,5.728-8.866,10.567-10.875,13.602l0,0  c-4.34,8.046-6.366,17.201-5.793,26.373l0,0c4.923,47.262,58.995,59.842,85.792,29.061  C406.826,461.346,367.991,456.041,357.185,434.685z"/>
<path style="fill:#DADADA;" d="M374.67,411.472L224.428,274.325c1.656,11.205-7.64,20.648-18.624,19.559l150.664,137.532  c1.376,8.077,8.391,14.232,16.86,14.232c9.457,0,17.122-7.665,17.122-17.122C390.45,419.524,383.496,412.16,374.67,411.472z"/>
<path style="fill:#C0C0C0;" d="M219.926,288.618c-3.616,3.813-8.757,5.798-14.123,5.266l150.665,137.532  c2.386,14.004,19.816,19.123,29.431,8.708L219.926,288.618z"/>
<path style="fill:#DADADA;" d="M339.26,92.567c-3.894,0-7.597,1.681-10.162,4.611L193.476,252.2l0,0l0,0l-95.63,109.309  c3.514,1.777,4.853,3.56,10.003,7.828c4.726,4.342,7.553,5.763,10.132,10.165l78.422-89.639l0,0l22.526-25.749l0,0  c0.977-1.116,12.75-14.574,14.352-16.404l0,0l112.106-128.141h59.761V92.567H339.26z"/>
<path style="fill:#C0C0C0;" d="M345.386,119.569h59.761v-14.326h-59.402c-3.894,0-7.597,1.681-10.162,4.611  c-8.664,9.903-200.111,228.736-227.322,259.838c4.26,3.925,7.154,5.43,9.72,9.81C145.897,347.593,317.569,151.365,345.386,119.569z"/>
<path style="fill:#D83D3D;" d="M171.747,185.729c-8.806-10.261-24.261-11.44-34.521-2.634l-2.639,2.265l-2.639-2.265  c-10.26-8.805-25.716-7.625-34.521,2.634c-8.834,10.294-7.582,25.755,2.635,34.521l30.08,25.814c2.558,2.195,6.335,2.195,8.894,0  c32.505-27.895,31.049-26.468,32.892-28.661C179.505,208.388,179.668,194.957,171.747,185.729z"/>
<path style="fill:#B72C2C;" d="M122.249,205.728c-6.678-7.944-7.59-19.313-2.295-28.218c-24.356-3.957-38.601,26.688-19.893,42.741  l30.08,25.814c2.558,2.195,6.335,2.195,8.894,0l14.856-12.75C123.885,207.416,124.567,208.484,122.249,205.728z"/>
<path style="fill:#D83D3D;" d="M81.152,110.991c-5.009-5.837-13.803-6.508-19.64-1.499l-1.502,1.289l-1.502-1.289  c-5.837-5.009-14.63-4.338-19.64,1.499c-4.506,5.25-4.413,12.891-0.101,18.02c1.291,1.535,18.816,16.394,18.713,16.306  c1.455,1.249,3.604,1.249,5.059,0l17.113-14.686C85.462,125.646,86.18,116.851,81.152,110.991z"/>
<path style="fill:#B72C2C;" d="M53.768,121.261c-3.517-4.183-4.224-10.038-1.921-14.904c-13.944-2.436-22.172,15.099-11.48,24.273  l17.113,14.686c1.455,1.249,3.604,1.249,5.059,0l9.487-8.14C54.67,122.197,55.086,122.829,53.768,121.261z"/>
<circle style="fill:#C0C0C0;" cx="207.513" cy="276.846" r="17.121"/>
<path style="fill:#AFAFB2;" d="M207.52,259.74c-13.056-0.019-21.465,14.189-14.836,25.67c6.63,11.485,23.139,11.298,29.649-0.013  C209.162,285.377,200.939,271.176,207.52,259.74z"/>
<path id="SVGCleanerId_0" style="fill:#F9B938;" d="M381.771,66.016h-32.502c-6.6,0-12.001-5.4-12.001-12.001v-7.5  c0-6.6,5.4-12.001,12.001-12.001h32.502c6.6,0,12.001,5.4,12.001,12.001v7.5C393.772,60.615,388.372,66.016,381.771,66.016z"/>
<g>
	<path id="SVGCleanerId_0_1_" style="fill:#F9B938;" d="M381.771,66.016h-32.502c-6.6,0-12.001-5.4-12.001-12.001v-7.5   c0-6.6,5.4-12.001,12.001-12.001h32.502c6.6,0,12.001,5.4,12.001,12.001v7.5C393.772,60.615,388.372,66.016,381.771,66.016z"/>
</g>
<path style="fill:#EAA224;" d="M365.52,54.015v-7.5c0-6.6,5.4-12.001,12.001-12.001h-28.252c-6.6,0-12.001,5.4-12.001,12.001v7.5  c0,6.6,5.4,12.001,12.001,12.001h28.252C370.92,66.016,365.52,60.615,365.52,54.015z"/>
<path style="fill:#635E5E;" d="M492.503,89.011h-85.194c-2.851,0-5.162,2.311-5.162,5.162v22.821c0,3.227,2.616,5.843,5.843,5.843  h84.514c6.6,0,12.001-5.4,12.001-12.001v-9.826C504.504,94.411,499.103,89.011,492.503,89.011z"/>
<path style="fill:#4C4846;" d="M427.147,116.995V94.173c0-2.851,2.311-5.162,5.162-5.162h-25.002c-2.851,0-5.162,2.311-5.162,5.162  v22.821c0,3.227,2.616,5.843,5.843,5.843h25.001C429.763,122.837,427.147,120.221,427.147,116.995z"/>
<path style="fill:#F9B938;" d="M114.768,373.44c-0.116-0.1-9.472-8.165-11.838-10.206c-6.334-5.46-15.185-6.364-21.483-2.194  l-28.581,19.598c26.831-1.4,49.512,18.945,51.412,45.326l15.825-31.598C123.299,387.522,121.101,378.9,114.768,373.44z"/>
<path style="fill:#EAA224;" d="M109.139,368.588c-0.156-0.135-6.402-5.52-6.209-5.353c-6.333-5.46-15.185-6.364-21.483-2.194  l-28.582,19.598c9.356-0.488,18.498,1.656,26.578,6.209C101.789,372.176,102.594,369.458,109.139,368.588z"/>
<circle style="fill:#635E5E;" cx="56.463" cy="428.525" r="48.958"/>
<circle style="fill:#C0C0C0;" cx="373.333" cy="428.525" r="17.121"/>
<path style="fill:#AFAFB2;" d="M373.336,411.418c-13.056-0.019-21.465,14.189-14.836,25.67c6.63,11.485,23.14,11.298,29.649-0.013  C382.239,437.066,366.755,422.854,373.336,411.418z"/>
<circle style="fill:#C0C0C0;" cx="56.463" cy="428.545" r="17.121"/>
<path style="fill:#AFAFB2;" d="M56.47,411.434c-13.056-0.019-21.465,14.189-14.836,25.67c6.63,11.485,23.14,11.298,29.649-0.013  C58.113,437.072,49.89,422.87,56.47,411.434z"/>
<path style="fill:#4C4846;" d="M39.156,432.209c-3.275-7.469-3.562-12.891-3.999-16.503l0,0c-0.572-9.172,1.453-18.327,5.793-26.373  l0,0c0.273-0.395,2.093-4.202,6.139-8.858c-9.527,1.853-18.134,6.495-24.793,12.975c-5.856,5.699-8.628,11.386-8.903,11.793l0,0  c-4.34,8.046-6.366,17.201-5.793,26.373l0,0c4.943,47.451,59.11,59.71,85.792,29.061C90.083,461.322,49.752,456.416,39.156,432.209z  "/>
<path d="M56.458,484.986c31.775,0,57.582-26.407,56.405-58.549c13.235-28.698,13.526-28.147,14.498-32.108h80.812  c25.994,0,50.938-7.563,72.538-21.906l39.753,36.288c-13.89,36.859,13.589,76.275,52.858,76.275  c31.132,0,56.458-25.327,56.458-56.458c0-41.551-43.637-68.909-81.008-50.844l-37.048-33.819  c37.633-47.725,26.269-95.288,28.326-113.913c0-4.143-3.357-7.5-7.5-7.5s-7.5,3.357-7.5,7.5  c-1.987,19.202,8.519,61.188-24.43,103.775l-0.732-0.668l-68.614-62.635c-0.585-2.162-1.458-4.207-2.575-6.091l96.352-110.134v40.75  c0,4.143,3.357,7.5,7.5,7.5s7.5-3.357,7.5-7.5v-57.896l8.733-9.983h9.856v0.324c0,4.143,3.357,7.5,7.5,7.5  c4.143,0,7.5-3.357,7.5-7.5v-0.324h22.309c1.351,1.972,3.619,3.268,6.19,3.268h90.357c10.753,0,19.501-8.749,19.501-19.501v-9.825  c0-10.753-8.749-19.501-19.501-19.501h-35.215c-4.143,0-7.5,3.357-7.5,7.5s3.357,7.5,7.5,7.5h35.215c2.439,0,4.5,2.061,4.5,4.5  v9.825c0,2.439-2.061,4.5-4.5,4.5h-82.857V96.511h12.64c4.143,0,7.5-3.357,7.5-7.5s-3.357-7.5-7.5-7.5h-20.14  c-2.694,0-5.049,1.424-6.371,3.557h-22.128V73.516h8.126c10.753,0,19.501-8.749,19.501-19.501v-7.5  c0-10.753-8.749-19.501-19.501-19.501h-32.502c-10.753,0-19.501,8.749-19.501,19.501v7.5c0,10.753,8.749,19.501,19.501,19.501h9.376  v11.552h-19.386c-6.056,0-11.817,2.614-15.807,7.173L141.431,300.294c-2.728,3.117-2.411,7.855,0.706,10.584  c3.118,2.729,7.856,2.411,10.584-0.706l30.191-34.51c-0.23,4.88,0.996,9.813,3.625,14.081c-7.34,8.391-59.58,68.101-68.591,78.402  l-9.089-7.835l20.81-23.788c2.728-3.118,2.411-7.855-0.706-10.584c-3.117-2.728-7.856-2.41-10.584,0.706l-22.804,26.067  c-6.617-1.641-13.614-0.669-19.273,3.078l-24.961,16.525C22.6,374.907,0,399.122,0,428.527C0,459.659,25.328,484.986,56.458,484.986  z M344.765,54.015v-7.5c0-2.439,2.061-4.5,4.5-4.5h32.502c2.439,0,4.5,2.061,4.5,4.5v7.5c0,2.439-2.061,4.5-4.5,4.5h-32.502  C346.826,58.515,344.765,56.454,344.765,54.015z M208.174,379.329h-80.08c6.061-6.928,60.496-69.148,69.816-79.803  c1.302,0.554,2.92,1.08,4.49,1.412l66.856,61.03C250.868,373.352,229.93,379.329,208.174,379.329z M206.539,286.42  c-2.182-0.219-4.365-1.237-5.999-2.956c-5.809-6.108-1.449-16.237,6.968-16.237C220.918,267.227,219.714,287.742,206.539,286.42z   M359.694,407.961c-3.379,2.228-6.182,5.262-8.124,8.832c-5.844-5.334-124.715-113.844-130.677-119.286  c3.367-2.191,6.23-5.257,8.179-8.783l49.613,45.289L359.694,407.961z M363.858,430.158c-0.15-0.881-0.269-0.592-0.269-1.63  c0-5.548,4.794-10.298,10.948-9.52c4.677,0.65,8.295,4.665,8.295,9.52c0,5.287-4.288,9.59-9.569,9.619  C368.594,438.117,364.644,434.769,363.858,430.158z M414.781,428.527c0,22.859-18.598,41.458-41.457,41.458  c-26.218,0-46.02-24.212-40.568-50.055l16.771,15.309c2.895,10.201,12.272,17.911,23.797,17.911  c13.577,0,24.622-11.046,24.622-24.622c0-12.186-8.991-22.028-19.937-24.157l-16.931-15.455  C387.832,380.649,414.781,400.791,414.781,428.527z M394.641,100.069v12.001h-20.999v-12.001H394.641z M334.738,102.118  c1.14-1.303,2.786-2.05,4.517-2.05h19.386v12.001c-10.803,0.577-15.303-1.556-18.904,2.562l-12.829,14.664c0,0,0,0-0.001,0.001  L217.499,254.352c-4.552-2.03-9.584-2.611-14.435-1.725L334.738,102.118z M84.583,368.295c3.682-2.438,8.961-1.385,12.445,1.62  l11.838,10.206l0,0c2.346,2.02,3.813,4.851,4.114,7.501c0.476,4.134-1.388,5.251-5.946,15.85  c-6.623-13.316-18.35-23.654-32.606-28.455L84.583,368.295z M59.634,387.204c21.554,1.641,38.283,19.803,38.283,41.324  c0,22.859-18.598,41.458-41.458,41.458s-41.459-18.598-41.459-41.458C15.001,404.613,35.384,385.338,59.634,387.204z"/>
<path d="M56.458,453.15c13.577,0,24.622-11.046,24.622-24.622s-11.046-24.622-24.622-24.622s-24.622,11.046-24.622,24.622  S42.882,453.15,56.458,453.15z M56.458,418.906c5.305,0,9.622,4.316,9.622,9.622c0,5.305-4.316,9.622-9.622,9.622  s-9.622-4.316-9.622-9.622C46.837,423.222,51.153,418.906,56.458,418.906z"/>
<path d="M91.73,180.844c-11.696,13.628-9.845,33.696,3.441,45.098l30.08,25.814c2.704,2.32,6.017,3.48,9.332,3.48  c3.313,0,6.628-1.16,9.332-3.48c30.842-26.646,30.776-25.989,33.749-29.525c10.119-12.036,10.023-29.441-0.228-41.386  c0-0.001,0-0.001,0-0.001c-10.859-12.653-29.539-14.725-42.853-5.202C121.267,166.121,102.589,168.191,91.73,180.844z   M116.012,184.699c8.169,0,12.21,5.393,13.686,6.353c2.81,2.412,6.96,2.412,9.771,0l2.639-2.266  c7.104-6.098,17.847-5.277,23.944,1.827c5.442,6.342,5.496,15.579,0.129,21.963c-0.608,0.724-1.266,1.39-1.957,1.982l-29.642,25.438  c-31.518-27.15-29.988-25.503-31.598-27.419C93.661,201.485,101.671,184.699,116.012,184.699z"/>
<path d="M35.479,136.323c15.811,12.603,17.587,17.451,24.527,17.451c6.957,0,9.092-5.148,24.531-17.454  c0.877-0.755,1.704-1.591,2.453-2.482c6.781-8.064,6.717-19.728-0.151-27.731c-6.777-7.896-18.102-9.641-26.833-4.686  c-8.731-4.955-20.055-3.211-26.834,4.686C25.335,115.24,26.58,128.68,35.479,136.323z M49.439,113.637  c3.235,0,4.761,2.214,5.681,2.835c2.811,2.412,6.961,2.412,9.772,0l1.5-1.288c6.373-5.465,14.915,4.133,8.373,9.756l-14.758,12.665  c-15.563-13.396-14.852-12.646-15.502-13.42C42.475,121.771,44.006,113.637,49.439,113.637z"/>
<circle cx="114.827" cy="75.424" r="9.411"/>
<circle cx="143.059" cy="135.608" r="9.411"/>
<g>
</g>
<g>
</g>
<g>
</g>
<g>
</g>
<g>
</g>
<g>
</g>
<g>
</g>
<g>
</g>
<g>
</g>
<g>
</g>
<g>
</g>
<g>
</g>
<g>
</g>
<g>
</g>
<g>
</g>
</svg>
