<?xml version="1.0" encoding="iso-8859-1"?>
<!-- Generator: Adobe Illustrator 19.0.0, SVG Export Plug-In . SVG Version: 6.00 Build 0)  -->
<svg xmlns="http://www.w3.org/2000/svg" xmlns:xlink="http://www.w3.org/1999/xlink" version="1.1" id="Layer_1" x="0px" y="0px" viewBox="0 0 512 512" style="enable-background:new 0 0 512 512;" xml:space="preserve">
<path style="fill:#5B5E5E;" d="M415.581,243.577c-9.919,0-19.444,1.659-28.344,4.674l14.194,31.491  c4.512-1.222,9.251-1.884,14.15-1.884c29.844,0,54.037,24.191,54.037,54.034c0,29.842-24.193,54.034-54.037,54.034  c-29.842,0-54.034-24.193-54.034-54.034c0-16.595,7.488-31.437,19.26-41.35l-14.424-32c-23.591,15.857-39.116,42.789-39.116,73.35  c0,48.776,39.539,88.316,88.313,88.316s88.316-39.541,88.316-88.316C503.896,283.118,464.356,243.577,415.581,243.577z"/>
<path style="fill:#464949;" d="M470.16,405.189c0,0,0,0-0.001,0.001c-11.123,3.804-22.63,5.264-33.902,4.557l-0.231-0.051  c-8.574-0.564-17.001-2.381-25.013-5.353l-0.331-0.07c-13.733-5.15-26.224-13.71-36.086-25.247l0.073-0.038  c-4.274-5.001-8.072-10.542-11.242-16.627c-0.512-0.981-0.98-1.973-1.451-2.965l-0.073,0.038  c-11.867-24.975-10.996-52.933,0.245-76.255l0.042,0.025c3.352-6.964,7.644-13.502,12.778-19.436l-0.027-0.017  c0.314-0.363,0.648-0.711,0.97-1.07c0.351-0.391,0.701-0.783,1.061-1.169c0.583-0.629,1.18-1.247,1.782-1.862  c0.394-0.401,0.788-0.802,1.191-1.195c0.613-0.601,1.241-1.187,1.874-1.772c0.407-0.375,0.809-0.752,1.224-1.12  c0.677-0.603,1.374-1.189,2.072-1.771c0.39-0.326,0.773-0.656,1.169-0.975c0.777-0.626,1.575-1.233,2.378-1.834  c0.341-0.255,0.674-0.52,1.019-0.771c0.64-0.468,1.302-0.911,1.96-1.358c-0.323,0.121-0.649,0.232-0.97,0.357  c-0.286,0.112-0.574,0.209-0.858,0.325c-1.262,0.505-2.515,1.043-3.763,1.61c-0.094,0.042-0.189,0.079-0.283,0.121  c-1.337,0.615-2.668,1.261-3.987,1.949c-0.013,0.006-0.024,0.014-0.037,0.022c-0.013,0.006-0.025,0.012-0.038,0.018  c-1.32,0.688-2.612,1.407-3.882,2.151c-0.089,0.053-0.174,0.11-0.263,0.162c-1.181,0.697-2.339,1.417-3.476,2.161  c-0.256,0.166-0.503,0.347-0.757,0.518c-0.95,0.635-1.89,1.28-2.808,1.949c-0.346,0.251-0.68,0.515-1.019,0.771  c-0.804,0.602-1.601,1.208-2.379,1.835c-0.395,0.318-0.779,0.648-1.168,0.972c-0.699,0.583-1.396,1.169-2.073,1.772  c-0.415,0.368-0.817,0.746-1.223,1.12c-0.633,0.583-1.262,1.171-1.875,1.772c-0.402,0.393-0.794,0.795-1.19,1.196  c-0.604,0.614-1.199,1.232-1.783,1.861c-0.359,0.387-0.711,0.779-1.061,1.171c-0.321,0.357-0.656,0.704-0.97,1.069l0.027,0.017  c-5.132,5.934-9.427,12.471-12.778,19.434l-0.042-0.025c-11.241,23.323-12.111,51.281-0.246,76.258l0.073-0.039  c0.471,0.992,0.94,1.984,1.451,2.966c3.17,6.084,6.968,11.625,11.243,16.626l-0.073,0.039c9.86,11.535,22.353,20.097,36.085,25.246  l0.331,0.071c8.013,2.971,16.442,4.789,25.013,5.354l0.232,0.049c11.27,0.708,22.777-0.752,33.902-4.556l0,0  c2.683-0.918,5.341-1.974,7.971-3.168c0.215-0.098,0.43-0.197,0.646-0.295c1.241-0.576,2.48-1.171,3.707-1.811  c0.013-0.007,0.024-0.014,0.037-0.022c0.013-0.006,0.025-0.012,0.038-0.018c1.226-0.64,2.425-1.312,3.609-2.001  c0.204-0.119,0.407-0.24,0.61-0.36c1.721-1.018,3.38-2.104,5.009-3.22C471.802,404.589,470.984,404.908,470.16,405.189z"/>
<circle style="fill:#5B5E5E;" cx="252.658" cy="335.236" r="36.363"/>
<path style="fill:#FF5357;" d="M203.286,152.102c0,9.268-7.515,16.783-16.783,16.783h-57.193c-9.268,0-16.783-7.515-16.783-16.783  l0,0c0-9.268,7.515-16.783,16.783-16.783h57.194C195.772,135.319,203.286,142.834,203.286,152.102L203.286,152.102z"/>
<path style="fill:#4ABF69;" d="M360.512,188.967l-3.115-6.911l-10.868-24.523h2.533c18.127,0,32.874-14.746,32.874-32.872  c0-18.127-14.747-32.874-32.874-32.874h-63.5c-5.967,0-10.805,4.838-10.805,10.805c0,5.967,4.837,10.805,10.805,10.805h63.5  c6.213,0,11.265,5.054,11.265,11.265s-5.052,11.263-11.265,11.263h-16.287c-2.644-0.878-5.609-0.823-8.359,0.397  c-1.509,0.669-2.801,1.623-3.85,2.767c-1.957,1.957-3.166,4.658-3.166,7.641c0,1.22,0.211,2.389,0.585,3.482  c0.142,0.485,0.306,0.967,0.515,1.441l13.054,29.454l-123.577,57.402l-25.435-43.588c-2.059-3.531-5.825-5.719-9.912-5.763  c-0.04,0-0.082,0-0.124,0c-4.039,0-7.796,2.099-9.908,5.553L77.19,334.146c-2.194,3.585-2.283,8.079-0.228,11.746  c2.055,3.671,5.932,5.943,10.138,5.943h133.204c-2.557-4.976-4.01-10.615-4.01-16.593c0-2.273,0.217-4.493,0.616-6.647H107.846  l64.419-105.175l51.998,89.116c4.9-6.118,11.731-10.619,19.573-12.576l-24.096-41.292l97.515-45.296l-52.701,87.505  c7.629,2.64,14.106,7.747,18.476,14.371l62.203-103.282l7.734,17.45c0.334,0.755,0.76,1.433,1.222,2.074l51.16,113.498  c1.939,4.3,6.171,6.85,10.602,6.85c1.596,0,3.219-0.332,4.767-1.03c5.852-2.637,8.456-9.52,5.818-15.37L370.971,212.17"/>
<g>
	<path style="fill:#5B5E5E;" d="M162.109,390.897c9.798-10.913,16.922-24.277,20.337-39.063h-35.808   c-7.937,19.969-27.423,34.094-50.218,34.094c-29.844,0-54.037-24.193-54.037-54.034c0-29.844,24.193-54.034,54.037-54.034   c4.879,0,9.604,0.658,14.101,1.869l18.355-29.968c-10.049-3.976-20.994-6.184-32.456-6.184c-48.776,0-88.316,39.541-88.316,88.316   c0,48.776,39.541,88.316,88.316,88.316c16.663,0,32.243-4.617,45.536-12.64"/>
	<path style="fill:#5B5E5E;" d="M149.198,261.079l-18.033,29.443c11.001,9.252,18.259,22.803,19.178,38.072h34.307   C183.634,300.961,169.944,276.568,149.198,261.079z"/>
</g>
<g>
	<path style="fill:#464949;" d="M126.396,416.147L126.396,416.147c-11.754,0.249-23.162-1.853-33.686-5.948l-0.205-0.117   c-7.995-3.14-15.477-7.43-22.209-12.693l-0.293-0.167c-11.52-9.075-20.825-21.024-26.718-35.008l0.081-0.015   c-2.554-6.063-4.492-12.495-5.665-19.254c-0.19-1.091-0.336-2.178-0.483-3.265l-0.082,0.014   c-3.724-27.398,5.59-53.775,23.381-72.584l0.032,0.037c5.306-5.618,11.383-10.544,18.074-14.64l-0.022-0.024   c0.411-0.251,0.834-0.481,1.25-0.725c0.453-0.267,0.907-0.533,1.366-0.792c0.747-0.422,1.503-0.83,2.265-1.232   c0.497-0.261,0.993-0.525,1.496-0.779c0.766-0.386,1.544-0.753,2.323-1.118c0.501-0.234,0.999-0.471,1.506-0.697   c0.829-0.37,1.67-0.715,2.513-1.059c0.47-0.191,0.934-0.39,1.409-0.572c0.93-0.361,1.876-0.697,2.823-1.026   c0.402-0.14,0.8-0.29,1.205-0.425c0.751-0.251,1.516-0.473,2.279-0.7c-0.345,0.019-0.688,0.025-1.034,0.046   c-0.305,0.019-0.609,0.025-0.916,0.049c-1.355,0.098-2.713,0.23-4.074,0.392c-0.102,0.012-0.203,0.019-0.306,0.029   c-1.46,0.179-2.925,0.392-4.39,0.647c-0.014,0.003-0.027,0.005-0.041,0.009c-0.015,0.002-0.027,0.003-0.042,0.005   c-1.466,0.255-2.916,0.549-4.351,0.872c-0.102,0.025-0.2,0.053-0.299,0.076c-1.335,0.306-2.659,0.64-3.967,1.005   c-0.295,0.08-0.585,0.177-0.88,0.264c-1.098,0.317-2.189,0.646-3.266,1.005c-0.405,0.134-0.803,0.285-1.205,0.425   c-0.948,0.331-1.893,0.666-2.823,1.026c-0.474,0.183-0.939,0.38-1.409,0.573c-0.843,0.344-1.684,0.69-2.513,1.059   c-0.508,0.224-1.006,0.462-1.506,0.696c-0.78,0.365-1.557,0.734-2.323,1.119c-0.503,0.253-0.999,0.516-1.496,0.778   c-0.762,0.402-1.517,0.809-2.265,1.232c-0.459,0.259-0.913,0.525-1.366,0.793c-0.416,0.243-0.84,0.473-1.25,0.724l0.022,0.025   c-6.691,4.096-12.767,9.022-18.074,14.639l-0.033-0.037c-17.79,18.81-27.105,45.185-23.38,72.585l0.082-0.015   c0.148,1.089,0.293,2.176,0.482,3.266c1.174,6.759,3.112,13.191,5.666,19.254l-0.082,0.015   c5.894,13.985,15.198,25.934,26.719,35.007l0.293,0.169c6.731,5.263,14.213,9.552,22.209,12.692l0.205,0.117   c10.524,4.096,21.931,6.198,33.686,5.949l0,0c2.835-0.059,5.69-0.259,8.557-0.6c0.234-0.027,0.469-0.055,0.702-0.084   c1.359-0.171,2.721-0.363,4.082-0.601c0.014-0.002,0.027-0.005,0.041-0.009c0.015-0.002,0.027-0.003,0.042-0.005   c1.364-0.238,2.709-0.514,4.045-0.811c0.231-0.052,0.461-0.105,0.691-0.158c1.95-0.447,3.858-0.979,5.749-1.549   C128.144,416.074,127.268,416.13,126.396,416.147z"/>
	<path style="fill:#464949;" d="M243.828,335.966c0-16.321,10.752-30.131,25.559-34.732c-3.413-1.061-7.043-1.633-10.805-1.633   c-20.083,0-36.363,16.281-36.363,36.364c0,20.082,16.281,36.362,36.363,36.362c3.762,0,7.392-0.572,10.805-1.633   C254.58,366.095,243.828,352.286,243.828,335.966z"/>
</g>
<path style="fill:#ED3A47;" d="M186.504,151.986h-57.193c-6.407,0-11.972-3.594-14.799-8.873c-1.263,2.358-1.984,5.048-1.984,7.909  c0,9.268,7.515,16.783,16.783,16.783h57.194c9.27,0,16.783-7.515,16.783-16.783c0-2.861-0.72-5.553-1.982-7.909  C198.477,148.392,192.913,151.986,186.504,151.986z"/>
<path style="fill:#231F20;" d="M415.581,235.474c-8.073,0-16.069,1.016-23.86,3.009L378.36,208.84  c-1.84-4.08-6.637-5.896-10.718-4.058c-4.08,1.839-5.897,6.638-4.058,10.718l55.565,123.27c0.521,1.155,0.276,2.181,0.083,2.689  c-0.193,0.509-0.689,1.44-1.845,1.961c-1.759,0.792-3.881-0.054-4.65-1.763l-24.54-54.442c0,0,0-0.001-0.001-0.002l-14.424-32  c-0.001-0.003-0.003-0.005-0.004-0.009l-12.191-27.045c-0.224-0.495-0.496-0.967-0.814-1.407c-0.256-0.357-0.35-0.535-0.388-0.621  l-7.734-17.45c-1.225-2.764-3.886-4.615-6.903-4.804c-3.03-0.193-5.889,1.318-7.448,3.907l-56.527,93.858  c-0.096-0.083-0.201-0.156-0.298-0.238c-0.774-0.66-1.566-1.299-2.384-1.905c-0.095-0.07-0.193-0.136-0.29-0.205  c-0.811-0.591-1.643-1.154-2.495-1.691c-0.076-0.048-0.147-0.104-0.223-0.151l48.123-79.901c1.838-3.051,1.467-6.945-0.913-9.596  c-2.381-2.65-6.214-3.438-9.442-1.934l-97.515,45.296c-2.069,0.961-3.636,2.749-4.319,4.925c-0.683,2.176-0.417,4.539,0.734,6.509  l19.312,33.096c-0.054,0.028-0.107,0.061-0.161,0.089c-0.345,0.183-0.685,0.373-1.024,0.564c-0.232,0.131-0.462,0.264-0.691,0.399  c-0.318,0.187-0.634,0.376-0.947,0.57c-0.267,0.165-0.529,0.337-0.793,0.509c-0.269,0.176-0.54,0.348-0.805,0.529  c-0.519,0.354-1.032,0.717-1.535,1.092l-46.833-80.263c-1.436-2.462-4.061-3.989-6.912-4.02c-0.028,0-0.058,0-0.086,0  c-2.818,0-5.436,1.464-6.911,3.871l-23.058,37.647c-0.003,0.004-0.006,0.009-0.01,0.014l-18.033,29.443l0,0l-23.319,38.072  c-1.532,2.5-1.594,5.634-0.16,8.192c1.433,2.559,4.137,4.144,7.07,4.144h42.497h34.307h23.565c0.005,0.151,0.017,0.303,0.024,0.454  c0.012,0.277,0.027,0.552,0.044,0.828c0.024,0.379,0.053,0.758,0.086,1.138c0.029,0.335,0.057,0.67,0.094,1.004  c0.026,0.23,0.058,0.459,0.088,0.689c0.123,0.984,0.274,1.959,0.461,2.922h-26.568h-35.808H87.1c-1.272,0-2.446-0.689-3.069-1.801  c-0.62-1.106-0.594-2.469,0.068-3.551l85.41-139.441c0.633-1.035,1.781-1.678,2.996-1.678h0.037c1.232,0.013,2.38,0.681,3,1.744  l25.435,43.588c2.108,3.614,6.622,5.031,10.413,3.264l123.577-57.403c4.009-1.862,5.786-6.593,3.994-10.633l-13.045-29.433  c-0.03-0.069-0.082-0.203-0.152-0.444c-0.035-0.119-0.072-0.237-0.112-0.353c-0.1-0.294-0.149-0.576-0.149-0.862  c0-0.974,0.496-1.615,0.792-1.911c0.082-0.083,0.163-0.167,0.242-0.253c0.33-0.359,0.72-0.641,1.163-0.836  c1.013-0.449,1.93-0.31,2.52-0.112c0.824,0.273,1.687,0.413,2.553,0.413h16.287c10.68,0,19.369-8.688,19.369-19.366  c0-10.68-8.688-19.369-19.369-19.369h-63.501c-1.49,0-2.701-1.211-2.701-2.701c0-1.49,1.211-2.701,2.701-2.701h63.501  c13.659,0,24.771,11.112,24.771,24.771c0,13.658-11.112,24.769-24.771,24.769h-2.533c-2.741,0-5.296,1.386-6.792,3.684  c-1.495,2.297-1.728,5.196-0.616,7.703l10.888,24.57l3.115,6.911c1.839,4.08,6.636,5.894,10.718,4.058  c4.08-1.839,5.897-6.638,4.058-10.718l-9.402-21.097c18.062-4.272,31.541-20.531,31.541-39.879  c0-22.595-18.383-40.978-40.978-40.978h-63.501c-10.425,0-18.908,8.483-18.908,18.908s8.483,18.908,18.908,18.908h63.501  c1.743,0,3.161,1.419,3.161,3.161c0,1.742-1.419,3.159-3.161,3.159h-15.15c-4.259-1.071-8.745-0.698-12.781,1.092  c-2.439,1.082-4.597,2.618-6.417,4.569c-3.493,3.557-5.416,8.255-5.416,13.248c0,2.005,0.323,3.997,0.959,5.92  c0.244,0.816,0.516,1.559,0.835,2.286l9.828,22.175L211.256,228.05l-21.715-37.213c-3.477-5.96-9.923-9.708-16.912-9.784h-0.124  c-2.479,0-4.904,0.483-7.164,1.37l-3.17-5.432h24.33c13.722,0,24.887-11.165,24.887-24.887c0-13.722-11.165-24.887-24.887-24.887  h-57.19c-13.722,0-24.887,11.165-24.887,24.887c0,13.722,11.165,24.887,24.887,24.887h14.652c0.166,0.889,0.476,1.767,0.958,2.592  l8.509,14.58l-28.048,45.791c-9.361-2.957-19.07-4.48-28.962-4.48C43.253,235.474,0,278.728,0,331.894s43.253,96.419,96.419,96.419  c17.565,0,34.759-4.775,49.724-13.806c3.831-2.313,5.063-7.293,2.75-11.126c-2.313-3.832-7.292-5.059-11.126-2.75  c-12.437,7.506-26.735,11.475-41.349,11.475c-44.229,0-80.212-35.983-80.212-80.212s35.983-80.212,80.212-80.212  c6.864,0,13.624,0.865,20.197,2.58l-10.006,16.337c-3.369-0.561-6.778-0.842-10.192-0.842c-34.264,0-62.14,27.875-62.14,62.138  s27.876,62.138,62.14,62.138c23.734,0,44.937-13.211,55.453-34.094h19.687c-3.5,9.358-8.755,18.055-15.48,25.547  c-2.99,3.33-2.715,8.454,0.615,11.443c3.332,2.993,8.455,2.714,11.443-0.615c9.424-10.495,16.439-22.967,20.518-36.374H215.7  c7.986,11.911,21.569,19.769,36.956,19.769c4.775,0,9.372-0.765,13.686-2.164l12.586,23.253h-9.542  c-4.476,0-8.104,3.627-8.104,8.104s3.627,8.104,8.104,8.104h45.38c4.475,0,8.104-3.627,8.104-8.104s-3.628-8.104-8.104-8.104  h-17.806c-0.156-0.763-0.422-1.517-0.813-2.237l-15.562-28.749c10.08-8.159,16.54-20.621,16.54-34.568  c0-7.142-1.703-13.891-4.708-19.876l51.718-85.873l1.417,3.196c0.414,0.936,0.923,1.859,1.549,2.801l9.187,20.382  c-23.363,18.229-37.126,46.16-37.126,76.023c0,53.166,43.252,96.419,96.417,96.419c53.166,0,96.419-43.253,96.419-96.419  S468.747,235.474,415.581,235.474z M129.311,160.783c-4.786,0-8.679-3.894-8.679-8.679c0-4.785,3.894-8.679,8.679-8.679h57.194  c4.786,0,8.679,3.894,8.679,8.679c0,4.785-3.894,8.679-8.679,8.679H129.311z M96.419,377.824c-25.327,0-45.933-20.604-45.933-45.931  c0-25.327,20.605-45.931,45.933-45.931c0.255,0,0.51,0.022,0.765,0.025l-26.905,43.926c-3.722,6.081-3.87,13.721-0.388,19.935  c3.485,6.224,10.078,10.088,17.21,10.088h45.714C124.278,371.075,110.997,377.824,96.419,377.824z M122.313,320.49l10.306-16.826  c3.876,4.982,6.695,10.724,8.269,16.826H122.313z M157.492,320.49c-2.2-11.717-7.774-22.648-15.987-31.335l9.707-15.849  c13.386,12.499,22.025,29.067,24.594,47.184H157.492z M210.717,320.49h-18.572c-2.793-23.775-14.248-45.476-32.326-61.236  l12.277-20.046l42.567,72.951C213.071,314.772,211.749,317.563,210.717,320.49z M231.224,262.267l65.426-30.39l-35.921,59.643  c-2.619-0.483-5.315-0.748-8.071-0.748c-1.572,0-3.126,0.085-4.657,0.245L231.224,262.267z M272.666,355.178l-12.88-23.794  c-2.131-3.936-7.047-5.4-10.984-3.268c-3.936,2.131-5.399,7.048-3.268,10.984l12.888,23.809c-1.862,0.387-3.789,0.592-5.763,0.592  c-11.048,0-20.629-6.376-25.273-15.639c-0.152-0.304-0.297-0.609-0.438-0.917c-0.079-0.173-0.16-0.346-0.236-0.521  c-0.133-0.306-0.255-0.614-0.376-0.923c-0.07-0.18-0.146-0.358-0.213-0.54c-0.163-0.442-0.313-0.887-0.453-1.334  c-0.09-0.287-0.167-0.58-0.247-0.871c-0.053-0.193-0.109-0.386-0.159-0.58c-0.075-0.293-0.14-0.589-0.205-0.886  c-0.044-0.203-0.089-0.405-0.127-0.609c-0.056-0.285-0.107-0.572-0.155-0.86c-0.038-0.232-0.071-0.466-0.104-0.699  c-0.037-0.264-0.072-0.526-0.1-0.791c-0.031-0.295-0.055-0.591-0.078-0.887c-0.016-0.213-0.037-0.424-0.049-0.637  c-0.028-0.519-0.045-1.039-0.045-1.563c0-0.83,0.041-1.666,0.117-2.506c0.003-0.037,0.005-0.073,0.009-0.11  c0.079-0.84,0.196-1.681,0.35-2.519c0.875-4.75,2.938-9.089,5.875-12.692c0.381-0.469,0.779-0.923,1.189-1.365  c0.131-0.14,0.265-0.279,0.398-0.417c0.446-0.461,0.901-0.913,1.377-1.342c0.058-0.053,0.12-0.103,0.178-0.155  c0.494-0.439,1.002-0.86,1.525-1.263c0.058-0.045,0.115-0.092,0.173-0.136c0.56-0.426,1.137-0.828,1.726-1.21  c0.069-0.045,0.138-0.089,0.207-0.133c0.604-0.385,1.221-0.75,1.852-1.088c0.022-0.012,0.045-0.023,0.067-0.035  c0.625-0.333,1.262-0.639,1.909-0.923c0.053-0.024,0.105-0.049,0.158-0.071c0.623-0.27,1.259-0.511,1.899-0.735  c0.13-0.045,0.259-0.09,0.39-0.133c0.637-0.212,1.283-0.405,1.934-0.569c2.217-0.561,4.537-0.861,6.926-0.861  c3.276,0,6.42,0.566,9.349,1.596c0.657,0.23,1.304,0.485,1.941,0.764c0.091,0.04,0.18,0.082,0.271,0.123  c1.307,0.589,2.568,1.276,3.771,2.056c0.065,0.042,0.13,0.082,0.193,0.124c0.582,0.384,1.15,0.791,1.702,1.217  c0.079,0.062,0.157,0.123,0.236,0.185c0.549,0.432,1.085,0.882,1.601,1.353c0.045,0.041,0.088,0.085,0.133,0.126  c0.468,0.433,0.919,0.886,1.358,1.351c0.09,0.095,0.183,0.188,0.271,0.284c0.425,0.461,0.829,0.941,1.222,1.431  c0.127,0.158,0.253,0.318,0.377,0.479c0.368,0.48,0.725,0.969,1.062,1.473c3.013,4.494,4.775,9.894,4.775,15.699  C280.918,343.014,277.762,350.063,272.666,355.178z M378.41,304.946l19.551,43.373c3.183,7.06,10.245,11.623,17.989,11.623  c2.805,0,5.529-0.588,8.097-1.745c4.804-2.166,8.476-6.072,10.341-11c1.866-4.928,1.7-10.286-0.466-15.088l-20.764-46.066  c0.806-0.043,1.613-0.08,2.421-0.08c25.327,0,45.933,20.604,45.933,45.931c0,25.327-20.605,45.931-45.933,45.931  c-25.326,0-45.931-20.604-45.931-45.931C369.65,322.098,372.771,312.711,378.41,304.946z M415.581,412.106  c-44.228,0-80.21-35.983-80.21-80.212c0-23.503,10.244-45.575,27.811-60.732l7.853,17.422  c-11.248,11.557-17.591,27.025-17.591,43.311c0,34.263,27.875,62.138,62.138,62.138c34.264,0,62.14-27.875,62.14-62.138  s-27.876-62.138-62.14-62.138c-3.16,0-6.315,0.242-9.437,0.722l-7.642-16.957c5.602-1.222,11.318-1.839,17.08-1.839  c44.23,0,80.212,35.983,80.212,80.212S459.81,412.106,415.581,412.106z"/>
<g>
</g>
<g>
</g>
<g>
</g>
<g>
</g>
<g>
</g>
<g>
</g>
<g>
</g>
<g>
</g>
<g>
</g>
<g>
</g>
<g>
</g>
<g>
</g>
<g>
</g>
<g>
</g>
<g>
</g>
</svg>
