<?xml version="1.0" encoding="iso-8859-1"?>
<!-- Generator: Adobe Illustrator 19.0.0, SVG Export Plug-In . SVG Version: 6.00 Build 0)  -->
<svg xmlns="http://www.w3.org/2000/svg" xmlns:xlink="http://www.w3.org/1999/xlink" version="1.1" id="Layer_1" x="0px" y="0px" viewBox="0 0 512 512" style="enable-background:new 0 0 512 512;" xml:space="preserve">
<path style="fill:#D7DDE2;" d="M502.489,453.11H378.8h-37.287h-27.586h-96.104h-27.583h-37.29H29.259  C13.1,453.11,0,466.208,0,482.369c0,16.16,13.1,29.259,29.259,29.259h123.69h37.29h27.583h96.104h27.586H378.8h48.718  c37.09-3.013,68.255-27.027,84.482-58.519C512,453.11,505.997,453.11,502.489,453.11z"/>
<path style="fill:#E6E9ED;" d="M512,453.11c0,0-6.002,0-9.51,0H378.8h-37.287h-27.586h-96.104h-9.816  c11.504,22.833,27.869,42.794,47.745,58.519h58.176h27.586H378.8h48.718C464.608,508.616,495.773,484.602,512,453.11z"/>
<path style="fill:#C4C8CE;" d="M498.663,423.426H158.221h-27.786H42.597c-7.365,0-13.337,5.971-13.337,13.337v3.01  c0,7.365,5.972,13.337,13.337,13.337h258.997h197.069H512v-13.337v-3.01C512,429.396,506.028,423.426,498.663,423.426z"/>
<g>
	<path style="fill:#DCDEE2;" d="M208.006,453.11h93.588h197.069H512v-13.337v-3.01c0-7.367-5.972-13.337-13.337-13.337h-302.33   C199.329,433.748,203.252,443.673,208.006,453.11z"/>
	<path style="fill:#DCDEE2;" d="M222.876,359.942H86.489c-8.486,0-15.364,6.879-15.364,15.366c0,8.486,6.88,15.366,15.364,15.366   h136.387V359.942z"/>
	<path style="fill:#DCDEE2;" d="M442.922,359.333H253.608v30.731h189.314c8.488,0,15.367-6.88,15.367-15.366   C458.289,366.212,451.409,359.333,442.922,359.333z"/>
</g>
<g>
	<path style="fill:#C4C8CE;" d="M73.382,367.32c-1.423,2.331-2.257,5.058-2.257,7.989c0,8.486,6.88,15.366,15.364,15.366h136.387   v-15.976H86.489C80.933,374.698,76.082,371.739,73.382,367.32z"/>
	<path style="fill:#C4C8CE;" d="M442.922,374.698H253.608v15.366h189.314c8.488,0,15.367-6.88,15.367-15.366   c0-2.802-0.762-5.422-2.072-7.683C453.559,371.603,448.607,374.698,442.922,374.698z"/>
</g>
<path style="fill:#E6E9ED;" d="M253.608,423.426V15.737c0-8.487-6.879-15.366-15.364-15.366c-8.486,0-15.367,6.879-15.367,15.366  v407.688h30.731V423.426z"/>
<path style="fill:#C4C8CE;" d="M246.01,2.495c-2.281-1.341-4.93-2.124-7.767-2.124c-8.486,0-15.367,6.879-15.367,15.366v407.688  h15.536V15.737C238.412,10.088,241.469,5.165,246.01,2.495z"/>
<g>
	<polygon style="fill:#55CDEF;" points="328.664,166.818 314.266,142.555 253.608,40.353 296.037,359.333 442.922,359.333  "/>
	<polygon style="fill:#55CDEF;" points="222.876,40.353 97.091,359.333 222.876,359.333  "/>
	<polygon style="fill:#55CDEF;" points="222.876,40.353 97.091,359.333 222.876,359.333  "/>
</g>
<path style="fill:#3EBEDB;" d="M168.484,303.143c0-66.032,20.05-127.381,54.392-178.293V40.353L97.091,359.333h76.325  C170.178,341.091,168.484,322.316,168.484,303.143z"/>
<g>
</g>
<g>
</g>
<g>
</g>
<g>
</g>
<g>
</g>
<g>
</g>
<g>
</g>
<g>
</g>
<g>
</g>
<g>
</g>
<g>
</g>
<g>
</g>
<g>
</g>
<g>
</g>
<g>
</g>
</svg>
