<?xml version="1.0" encoding="iso-8859-1"?>
<!-- Generator: Adobe Illustrator 19.0.0, SVG Export Plug-In . SVG Version: 6.00 Build 0)  -->
<svg xmlns="http://www.w3.org/2000/svg" xmlns:xlink="http://www.w3.org/1999/xlink" version="1.1" id="Layer_1" x="0px" y="0px" viewBox="0 0 512 512" style="enable-background:new 0 0 512 512;" xml:space="preserve">
<g>
	<circle style="fill:#5B5E5E;" cx="400.684" cy="430.202" r="45.924"/>
	<circle style="fill:#5B5E5E;" cx="122.435" cy="430.202" r="45.924"/>
</g>
<path style="fill:#FF5357;" d="M117.326,35.872H33.17H15.309C6.854,35.872,0,42.726,0,51.181v156.201v53.482v156.201  c0,8.457,6.854,15.311,15.309,15.311H33.17h43.392c-0.033-0.722-0.056-1.445-0.056-2.174c0-25.365,20.561-45.926,45.926-45.926  c25.363,0,45.924,20.561,45.924,45.926c0,0.729-0.022,1.451-0.055,2.174h186.51c-0.035-0.722-0.056-1.445-0.056-2.174  c0-25.365,20.561-45.926,45.924-45.926c25.365,0,45.925,20.561,45.925,45.926c0,0.729-0.021,1.451-0.055,2.174h32.279h17.86  c8.456,0,15.309-6.854,15.309-15.311V260.864v-9.521V89.577c-0.013-29.665-24.063-53.705-53.729-53.705H145.633"/>
<path style="fill:#F4474F;" d="M458.271,35.872H145.633h-28.307H33.17H15.309C6.854,35.872,0,42.726,0,51.181v156.201v13.134h512  V89.577C511.987,59.912,487.937,35.872,458.271,35.872z"/>
<rect x="198.589" y="235.91" style="fill:#97D3EE;" width="126.72" height="196.463"/>
<rect x="198.589" y="235.91" style="fill:#6CC6E4;" width="63.363" height="196.463"/>
<rect x="198.589" y="342.862" style="fill:#EF4556;" width="126.72" height="89.511"/>
<rect x="198.589" y="342.862" style="fill:#E23740;" width="63.362" height="89.511"/>
<polyline style="fill:#97D3EE;" points="452.833,342.86 512,342.86 512,247.515 400.681,247.515 400.681,342.86 425.007,342.86 "/>
<rect x="326.422" y="247.519" style="fill:#6CC6E4;" width="75.364" height="95.343"/>
<g>
	<rect x="122.435" y="247.519" style="fill:#97D3EE;" width="75.364" height="95.343"/>
	<rect x="423.903" y="96.723" style="fill:#97D3EE;" width="88.097" height="95.343"/>
</g>
<rect x="350.753" y="96.723" style="fill:#6CC6E4;" width="75.364" height="95.343"/>
<rect x="128" y="96.723" style="fill:#97D3EE;" width="75.364" height="95.343"/>
<rect x="202.251" y="96.723" style="fill:#6CC6E4;" width="75.364" height="95.343"/>
<g>
	<rect x="276.502" y="96.723" style="fill:#97D3EE;" width="75.364" height="95.343"/>
	<path style="fill:#97D3EE;" d="M512,400.484v-31.008h-23.829c-8.564,0-15.506,6.941-15.506,15.505   c0,8.563,6.941,15.505,15.506,15.505H512V400.484z"/>
</g>
<path style="fill:#6CC6E4;" d="M494.283,384.981c0-8.563,6.941-15.505,15.506-15.505h-21.618c-8.564,0-15.506,6.941-15.506,15.505  c0,8.563,6.941,15.505,15.506,15.505h21.618C501.223,400.484,494.283,393.543,494.283,384.981z"/>
<g>
	<circle style="fill:#E6E9ED;" cx="400.684" cy="430.202" r="15.774"/>
	<circle style="fill:#E6E9ED;" cx="122.435" cy="430.202" r="15.774"/>
</g>
<g>
	<path style="fill:#424444;" d="M377.019,430.202c0-21.525,14.811-39.584,34.794-44.561c-3.564-0.887-7.292-1.366-11.13-1.366   c-25.363,0-45.924,20.561-45.924,45.926c0,25.362,20.561,45.926,45.924,45.926c3.839,0,7.566-0.479,11.13-1.366   C391.829,469.786,377.019,451.725,377.019,430.202z"/>
	<path style="fill:#424444;" d="M98.767,430.202c0-21.526,14.81-39.584,34.795-44.561c-3.563-0.887-7.29-1.366-11.129-1.366   c-25.365,0-45.926,20.561-45.926,45.926c0,25.362,20.561,45.926,45.926,45.926c3.839,0,7.566-0.479,11.129-1.366   C113.577,469.786,98.767,451.725,98.767,430.202z"/>
</g>
<g>
	<path style="fill:#B2C3D3;" d="M407.169,430.202c0-4.366,1.776-8.319,4.644-11.174c-2.853-2.842-6.786-4.599-11.13-4.599   c-8.712,0-15.774,7.063-15.774,15.774s7.062,15.774,15.774,15.774c4.344,0,8.278-1.758,11.13-4.599   C408.945,438.52,407.169,434.569,407.169,430.202z"/>
	<path style="fill:#B2C3D3;" d="M128.919,430.202c0-4.366,1.775-8.319,4.644-11.175c-2.853-2.842-6.786-4.599-11.13-4.599   c-8.712,0-15.774,7.063-15.774,15.774s7.062,15.774,15.774,15.774c4.344,0,8.278-1.758,11.13-4.599   C130.695,438.52,128.919,434.569,128.919,430.202z"/>
</g>
<g>
	<path style="fill:#C92838;" d="M333.663,432.376V342.86c0-4.61-3.738-8.348-8.348-8.348H198.591c-4.61,0-8.348,3.738-8.348,8.348   v89.516h16.696v-81.169h110.029v81.169H333.663z"/>
	<path style="fill:#C92838;" d="M261.955,351.207c-4.61,0-8.348-3.738-8.348-8.348V235.911c0-4.61,3.738-8.348,8.348-8.348   s8.348,3.738,8.348,8.348V342.86C270.303,347.47,266.564,351.207,261.955,351.207z"/>
	<path style="fill:#C92838;" d="M333.663,432.376V235.911c0-4.61-3.738-8.348-8.348-8.348H198.591c-4.61,0-8.348,3.738-8.348,8.348   v196.466h16.696V244.258h110.029v188.118H333.663z"/>
</g>
<g>
	<path style="fill:#6CC6E4;" d="M67.099,96.728c-7.376,0-13.357,5.98-13.357,13.357v68.631c0,7.377,5.98,13.357,13.357,13.357   h62.012V96.728H67.099z"/>
	<path style="fill:#6CC6E4;" d="M61.533,247.515c-7.376,0-13.357,5.98-13.357,13.357v68.631c0,7.376,5.98,13.357,13.357,13.357   h62.012v-95.344L61.533,247.515L61.533,247.515z"/>
</g>
<path style="fill:#ED3A47;" d="M21.618,417.065V260.864v-40.348H0v40.348v156.201c0,8.457,6.854,15.311,15.309,15.311H33.17h3.757  C28.472,432.376,21.618,425.522,21.618,417.065z"/>
<path style="fill:#DD3146;" d="M15.309,35.872C6.854,35.872,0,42.726,0,51.181v156.201v13.134h21.618v-13.134V51.181  c0-8.456,6.854-15.31,15.309-15.31H33.17H15.309V35.872z"/>
<path style="fill:#F98B38;" d="M0,400.484v-31.008h16.176c8.563,0,15.505,6.941,15.505,15.505c0,8.563-6.941,15.505-15.505,15.505H0  V400.484z"/>
<path style="fill:#F77D39;" d="M21.618,399.484v-29.007c-1.694-0.637-3.524-1.001-5.442-1.001H0v31.008h16.176  C18.094,400.484,19.922,400.12,21.618,399.484z"/>
<g>
</g>
<g>
</g>
<g>
</g>
<g>
</g>
<g>
</g>
<g>
</g>
<g>
</g>
<g>
</g>
<g>
</g>
<g>
</g>
<g>
</g>
<g>
</g>
<g>
</g>
<g>
</g>
<g>
</g>
</svg>
