<?xml version="1.0" encoding="iso-8859-1"?>
<!-- Generator: Adobe Illustrator 19.0.0, SVG Export Plug-In . SVG Version: 6.00 Build 0)  -->
<svg xmlns="http://www.w3.org/2000/svg" xmlns:xlink="http://www.w3.org/1999/xlink" version="1.1" id="Layer_1" x="0px" y="0px" viewBox="0 0 511.999 511.999" style="enable-background:new 0 0 511.999 511.999;" xml:space="preserve">
<path style="fill:#4ABF69;" d="M466.507,230.589h-84.752l-78.514-68.019c-12.179-10.543-26.128-11.472-29.562-11.535H136.846  c-13.962,0-22.848,6.246-25.812,8.714l-1.103,0.981l-0.009,0.009L22.996,238.11c-9.056,6.825-14.912,17.67-14.912,29.887v57.423  c0,20.659,16.747,37.406,37.406,37.406h5.156v-0.002c0-41.788,33.874-75.659,75.656-75.659c41.79,0,75.663,33.872,75.663,75.659  v0.002h26.848h87.508v-0.002c0-41.788,33.876-75.659,75.659-75.659c41.779,0,75.647,33.857,75.661,75.634  c20.135-0.603,36.273-17.101,36.273-37.379v-57.423C503.916,247.334,487.169,230.589,466.507,230.589z"/>
<path style="fill:#F7A539;" d="M473.269,294.043c-9.686,0-17.541-7.852-17.541-17.542c0-9.688,7.855-17.541,17.541-17.541h29.541  c0.718,2.893,1.105,5.92,1.105,9.036v26.046H473.269z"/>
<path style="fill:#97D3EE;" d="M337.322,230.589h44.434l-78.514-68.019c-12.179-10.543-26.128-11.472-29.562-11.535H169.524  l-52.821,49.93v29.623h192.23"/>
<path style="fill:#2C9B46;" d="M37.273,334.403V276.98c0-12.217,5.855-23.062,14.912-29.887l103.54-93.543h-11.249  c-13.962,0-22.848,6.246-25.812,8.714l-1.103,0.981l-0.009,0.009l-86.927,77.372c-9.056,6.825-14.912,17.67-14.912,29.887v57.423  c0,20.659,16.747,37.406,37.406,37.406h0.532C43.767,358.61,37.273,347.266,37.273,334.403z"/>
<path style="fill:#ED6529;" d="M485.297,275.784c0-9.688,7.855-17.541,17.541-17.541h-21.939c-9.686,0-17.541,7.852-17.541,17.541  c0,9.688,7.855,17.541,17.541,17.541h21.939C493.152,293.325,485.297,285.473,485.297,275.784z"/>
<path style="fill:#5BC5EF;" d="M177.154,150.317l-40.57,38.349c-2.09,2.01-12.251,12.28-12.251,21.95v10.779v0.111  c0.011,0.98,0.393,8.363,9.604,8.363h75.659v-79.554h-32.441V150.317z"/>
<g>
	<circle style="fill:#5B5E5E;" cx="391.976" cy="362.829" r="75.657"/>
	<path style="fill:#5B5E5E;" d="M201.966,362.824c0,41.79-33.874,75.663-75.663,75.663c-41.784,0-75.656-33.874-75.656-75.663   c0-41.788,33.874-75.659,75.656-75.659C168.092,287.165,201.966,321.037,201.966,362.824z"/>
</g>
<g>
	<path style="fill:#E6E9ED;" d="M160.452,362.821c0,18.859-15.289,34.15-34.148,34.15c-18.857,0-34.146-15.291-34.146-34.15   c0-18.859,15.289-34.139,34.146-34.139C145.164,328.684,160.452,343.963,160.452,362.821z"/>
	<path style="fill:#E6E9ED;" d="M426.128,362.821c0,18.859-15.289,34.15-34.148,34.15c-18.857,0-34.146-15.291-34.146-34.15   c0-18.859,15.289-34.139,34.146-34.139C410.84,328.684,426.128,343.963,426.128,362.821z"/>
</g>
<path style="fill:#ED3A47;" d="M29.028,301.584c9.688,0,17.542-7.855,17.542-17.541c0-9.688-7.852-17.543-17.542-17.543H8.084v9.038  v26.046h20.943V301.584z"/>
<path style="fill:#97D3EE;" d="M45.899,110.311V85.128c0-6.415-5.2-11.616-11.616-11.616s-11.619,5.202-11.619,11.616v153.189  L45.9,217.675v-80.417"/>
<g>
	<path style="fill:#464949;" d="M344.973,362.106c0-38.219,28.341-69.798,65.148-74.916c-3.436-0.478-6.942-0.743-10.511-0.743   c-41.784,0-75.656,33.872-75.656,75.659c0,41.789,33.874,75.663,75.656,75.663c3.569,0,7.074-0.265,10.511-0.743   C373.314,431.908,344.973,400.327,344.973,362.106z"/>
	<path style="fill:#464949;" d="M79.294,362.106c0-38.219,28.343-69.798,65.149-74.916c-3.436-0.478-6.941-0.743-10.509-0.743   c-41.784,0-75.659,33.872-75.659,75.659c0,41.789,33.876,75.663,75.659,75.663c3.569,0,7.073-0.265,10.509-0.743   C107.637,431.908,79.294,400.327,79.294,362.106z"/>
</g>
<g>
	<path style="fill:#B6C1CC;" d="M120.988,362.104c0-15.158,9.879-27.996,23.547-32.453c-3.337-1.09-6.897-1.685-10.6-1.685   c-18.857,0-34.146,15.28-34.146,34.139s15.289,34.15,34.146,34.15c3.703,0,7.263-0.597,10.6-1.687   C130.867,390.106,120.988,377.262,120.988,362.104z"/>
	<path style="fill:#B6C1CC;" d="M386.666,362.104c0-15.158,9.88-27.996,23.547-32.453c-3.338-1.09-6.897-1.685-10.599-1.685   c-18.858,0-34.146,15.28-34.146,34.139s15.288,34.15,34.146,34.15c3.701,0,7.261-0.597,10.599-1.687   C396.546,390.106,386.666,377.262,386.666,362.104z"/>
</g>
<g>
	<path style="fill:#231F20;" d="M256,258.416h-34.941c-4.466,0-8.084,3.618-8.084,8.084s3.618,8.084,8.084,8.084H256   c4.466,0,8.084-3.618,8.084-8.084S260.466,258.416,256,258.416z"/>
	<path style="fill:#231F20;" d="M511.921,265.398c-0.013-0.23-0.036-0.458-0.053-0.688c-0.046-0.65-0.103-1.297-0.178-1.938   c-0.028-0.246-0.061-0.489-0.094-0.734c-0.084-0.642-0.182-1.281-0.293-1.915c-0.04-0.225-0.079-0.452-0.121-0.677   c-0.134-0.7-0.285-1.393-0.449-2.079c-0.028-0.117-0.047-0.236-0.077-0.354c-0.004-0.017-0.013-0.032-0.017-0.05   c-4.944-19.77-22.852-34.459-44.132-34.459h-81.736l-76.237-66.047c-14.091-12.197-30.126-13.421-34.705-13.505   c-0.05-0.001-0.099-0.001-0.149-0.001H169.525h-32.677c-16.489,0-27.161,7.402-30.984,10.584c-0.068,0.057-0.135,0.113-0.202,0.172   l-1.103,0.981c-0.024,0.023-0.05,0.045-0.074,0.068l-50.5,44.949v-62.448c0-4.466-3.618-8.084-8.084-8.084   s-8.084,3.618-8.084,8.084v76.785l-7.068,6.278V85.128c0-1.949,1.586-3.532,3.534-3.532c1.949,0,3.532,1.585,3.532,3.532v25.183   c0,4.466,3.618,8.084,8.084,8.084s8.084-3.618,8.084-8.084V85.128c0-10.863-8.838-19.701-19.701-19.701   c-10.864,0-19.703,8.838-19.703,19.701V234.64c-8.698,8.025-13.867,18.952-14.507,30.837C0.029,265.813,0,266.153,0,266.5v1.497   v33.587v23.835c0,24.23,19.045,44.093,42.954,45.416c4.047,42.433,39.877,75.736,83.349,75.736   c43.451,0,79.267-33.263,83.349-75.661h98.983c4.082,42.398,39.898,75.661,83.345,75.661c43.746,0,79.745-33.725,83.414-76.539   c21.037-4.101,36.604-22.431,36.604-44.613v-31.376v-26.046C512,267.125,511.97,266.259,511.921,265.398z M495.832,267.997v17.962   h-22.563c-5.215,0-9.456-4.243-9.456-9.456c0-5.214,4.243-9.456,9.456-9.456h22.538   C495.818,267.362,495.832,267.678,495.832,267.997z M193.882,159.119v63.386h-69.094v-18.057l47.952-45.329H193.882z    M29.028,274.584c5.215,0,9.456,4.244,9.456,9.459c0,5.215-4.243,9.456-9.456,9.456H16.168v-18.916h12.859V274.584z    M126.303,430.403c-37.26,0-67.572-30.316-67.572-67.579c0-37.261,30.313-67.574,67.572-67.574c2.329,0,4.631,0.119,6.9,0.349   c34.035,3.467,60.679,32.294,60.679,67.226C193.881,400.088,163.566,430.403,126.303,430.403z M391.981,430.403   c-37.261,0-67.574-30.316-67.574-67.579c0-37.261,30.314-67.574,67.574-67.574c33.65,0,61.634,24.733,66.739,56.973   c0.016,0.103,0.039,0.204,0.055,0.307c0.129,0.841,0.227,1.691,0.324,2.542c0.032,0.28,0.079,0.557,0.107,0.839   c0.073,0.723,0.116,1.456,0.167,2.186c0.029,0.415,0.073,0.826,0.095,1.243c0.031,0.617,0.033,1.24,0.047,1.859   c0.013,0.542,0.041,1.08,0.041,1.625C459.558,400.088,429.244,430.403,391.981,430.403z M475.204,353.441   c-0.077-0.686-0.184-1.362-0.278-2.044c-0.071-0.522-0.132-1.047-0.213-1.565c-0.142-0.911-0.314-1.812-0.486-2.713   c-0.081-0.423-0.147-0.85-0.234-1.271c-0.272-1.313-0.571-2.616-0.904-3.906c-0.043-0.169-0.097-0.333-0.141-0.502   c-0.296-1.12-0.608-2.233-0.949-3.335c-0.146-0.47-0.311-0.929-0.465-1.395c-0.261-0.791-0.518-1.583-0.802-2.365   c-0.192-0.528-0.402-1.047-0.605-1.57c-0.273-0.706-0.542-1.412-0.832-2.108c-0.229-0.546-0.473-1.084-0.713-1.625   c-0.292-0.659-0.582-1.317-0.89-1.966c-0.261-0.55-0.535-1.092-0.807-1.635c-0.314-0.625-0.628-1.249-0.957-1.866   c-0.291-0.545-0.592-1.083-0.894-1.621c-0.336-0.599-0.677-1.195-1.027-1.785c-0.318-0.536-0.645-1.066-0.974-1.593   c-0.36-0.576-0.725-1.147-1.099-1.713c-0.345-0.523-0.694-1.042-1.05-1.556c-0.384-0.555-0.776-1.103-1.173-1.648   c-0.369-0.507-0.739-1.011-1.119-1.509c-0.409-0.536-0.827-1.062-1.248-1.587c-0.391-0.488-0.783-0.978-1.185-1.457   c-0.433-0.516-0.878-1.022-1.324-1.527c-0.412-0.468-0.819-0.937-1.241-1.395c-0.462-0.502-0.939-0.992-1.414-1.483   c-0.426-0.441-0.846-0.886-1.281-1.317c-0.5-0.496-1.016-0.974-1.528-1.457c-0.43-0.406-0.854-0.819-1.292-1.216   c-0.575-0.52-1.167-1.019-1.756-1.522c-0.396-0.338-0.781-0.688-1.185-1.02c-0.98-0.807-1.979-1.592-2.995-2.355   c-0.417-0.313-0.849-0.607-1.272-0.912c-0.63-0.455-1.257-0.914-1.899-1.352c-0.482-0.328-0.978-0.637-1.467-0.955   c-0.601-0.391-1.2-0.787-1.812-1.163c-0.514-0.316-1.039-0.614-1.56-0.919c-0.605-0.354-1.208-0.71-1.823-1.049   c-0.536-0.295-1.081-0.577-1.623-0.86c-0.617-0.323-1.233-0.646-1.858-0.953c-0.553-0.272-1.112-0.531-1.672-0.791   c-0.632-0.293-1.265-0.584-1.906-0.862c-0.566-0.246-1.136-0.482-1.708-0.716c-0.651-0.266-1.303-0.525-1.962-0.775   c-0.576-0.219-1.154-0.429-1.736-0.635c-0.669-0.237-1.343-0.465-2.02-0.686c-0.583-0.19-1.168-0.375-1.757-0.553   c-0.692-0.208-1.388-0.403-2.088-0.594c-0.587-0.16-1.174-0.319-1.766-0.467c-0.718-0.179-1.441-0.341-2.165-0.501   c-0.585-0.129-1.168-0.261-1.758-0.378c-0.751-0.149-1.509-0.277-2.268-0.406c-0.573-0.097-1.145-0.202-1.722-0.287   c-0.801-0.119-1.61-0.212-2.419-0.308c-0.544-0.065-1.085-0.14-1.633-0.194c-0.904-0.089-1.816-0.148-2.728-0.208   c-0.461-0.03-0.918-0.075-1.381-0.098c-1.379-0.068-2.766-0.106-4.161-0.106c-1.402,0-2.795,0.038-4.18,0.106   c-0.463,0.023-0.919,0.069-1.381,0.099c-0.919,0.06-1.839,0.12-2.75,0.209c-0.542,0.054-1.078,0.13-1.617,0.194   c-0.821,0.098-1.643,0.192-2.457,0.314c-0.568,0.084-1.13,0.19-1.694,0.286c-0.775,0.132-1.55,0.262-2.317,0.415   c-0.577,0.115-1.147,0.247-1.719,0.374c-0.746,0.165-1.491,0.331-2.228,0.515c-0.574,0.144-1.144,0.302-1.713,0.458   c-0.724,0.198-1.448,0.399-2.163,0.617c-0.568,0.171-1.13,0.355-1.692,0.538c-0.707,0.231-1.411,0.467-2.108,0.715   c-0.557,0.198-1.11,0.405-1.662,0.616c-0.691,0.263-1.378,0.534-2.059,0.814c-0.544,0.224-1.085,0.453-1.623,0.688   c-0.677,0.295-1.348,0.6-2.017,0.913c-0.527,0.247-1.052,0.496-1.573,0.753c-0.666,0.329-1.326,0.67-1.982,1.016   c-0.507,0.267-1.012,0.535-1.512,0.811c-0.658,0.364-1.306,0.743-1.953,1.124c-0.482,0.285-0.966,0.566-1.442,0.86   c-0.652,0.403-1.293,0.821-1.934,1.241c-0.454,0.297-0.91,0.59-1.357,0.896c-0.654,0.447-1.296,0.913-1.937,1.379   c-0.415,0.302-0.835,0.595-1.245,0.904c-0.675,0.509-1.332,1.037-1.991,1.565c-0.359,0.288-0.724,0.567-1.078,0.86   c-0.745,0.618-1.471,1.258-2.194,1.9c-0.251,0.223-0.51,0.437-0.758,0.663c-1.937,1.763-3.79,3.617-5.554,5.553   c-0.244,0.267-0.473,0.545-0.712,0.816c-0.625,0.704-1.248,1.41-1.85,2.134c-0.302,0.363-0.589,0.739-0.885,1.109   c-0.52,0.649-1.04,1.296-1.541,1.96c-0.313,0.415-0.611,0.84-0.916,1.26c-0.462,0.637-0.924,1.273-1.368,1.922   c-0.308,0.451-0.603,0.91-0.902,1.367c-0.417,0.637-0.833,1.274-1.234,1.923c-0.296,0.481-0.581,0.968-0.869,1.454   c-0.378,0.642-0.755,1.286-1.116,1.939c-0.279,0.504-0.55,1.014-0.818,1.525c-0.344,0.652-0.682,1.307-1.01,1.969   c-0.259,0.525-0.511,1.053-0.759,1.585c-0.31,0.663-0.613,1.33-0.907,2.003c-0.237,0.543-0.469,1.089-0.694,1.638   c-0.278,0.676-0.545,1.357-0.806,2.042c-0.212,0.557-0.421,1.117-0.622,1.679c-0.247,0.692-0.48,1.388-0.708,2.088   c-0.186,0.569-0.372,1.139-0.545,1.714c-0.215,0.708-0.413,1.422-0.608,2.137c-0.158,0.579-0.319,1.157-0.466,1.741   c-0.182,0.727-0.345,1.459-0.508,2.194c-0.129,0.584-0.265,1.166-0.382,1.755c-0.15,0.751-0.277,1.51-0.406,2.268   c-0.099,0.581-0.207,1.159-0.294,1.744c-0.117,0.791-0.209,1.59-0.304,2.388c-0.067,0.563-0.147,1.121-0.203,1.687   c-0.008,0.077-0.021,0.152-0.028,0.23l-98.963-0.001c-0.008-0.079-0.02-0.155-0.028-0.233c-0.055-0.555-0.134-1.103-0.199-1.655   c-0.097-0.808-0.19-1.619-0.308-2.421c-0.085-0.575-0.192-1.144-0.289-1.714c-0.132-0.77-0.26-1.539-0.412-2.301   c-0.115-0.579-0.248-1.151-0.376-1.726c-0.165-0.744-0.33-1.486-0.514-2.222c-0.144-0.577-0.304-1.147-0.46-1.719   c-0.197-0.722-0.398-1.443-0.614-2.157c-0.172-0.569-0.356-1.132-0.54-1.696c-0.231-0.706-0.466-1.41-0.715-2.108   c-0.198-0.557-0.405-1.109-0.615-1.66c-0.263-0.692-0.534-1.38-0.815-2.062c-0.223-0.543-0.453-1.082-0.687-1.619   c-0.296-0.679-0.601-1.352-0.915-2.021c-0.246-0.526-0.495-1.049-0.751-1.568c-0.33-0.667-0.672-1.327-1.018-1.984   c-0.267-0.506-0.534-1.011-0.811-1.511c-0.364-0.658-0.743-1.305-1.124-1.952c-0.285-0.483-0.568-0.967-0.862-1.444   c-0.402-0.651-0.819-1.29-1.238-1.929c-0.299-0.455-0.592-0.912-0.898-1.361c-0.446-0.652-0.91-1.291-1.373-1.93   c-0.303-0.417-0.599-0.84-0.91-1.251c-0.504-0.668-1.027-1.319-1.551-1.973c-0.293-0.365-0.577-0.737-0.875-1.097   c-0.603-0.727-1.227-1.434-1.853-2.139c-0.239-0.269-0.469-0.546-0.71-0.813c-1.764-1.936-3.617-3.789-5.553-5.552   c-0.251-0.229-0.514-0.445-0.769-0.672c-0.72-0.639-1.441-1.276-2.183-1.892c-0.358-0.296-0.728-0.579-1.091-0.87   c-0.654-0.525-1.307-1.05-1.977-1.554c-0.414-0.313-0.839-0.609-1.258-0.914c-0.637-0.462-1.274-0.925-1.924-1.369   c-0.451-0.308-0.912-0.604-1.369-0.903c-0.637-0.417-1.273-0.833-1.922-1.233c-0.48-0.296-0.968-0.581-1.454-0.867   c-0.642-0.379-1.287-0.755-1.94-1.117c-0.503-0.279-1.013-0.548-1.523-0.817c-0.653-0.345-1.31-0.684-1.973-1.011   c-0.523-0.259-1.051-0.509-1.58-0.757c-0.665-0.311-1.334-0.615-2.009-0.91c-0.54-0.236-1.083-0.466-1.63-0.691   c-0.68-0.279-1.364-0.549-2.052-0.811c-0.554-0.211-1.11-0.418-1.67-0.618c-0.695-0.248-1.396-0.483-2.1-0.711   c-0.566-0.184-1.131-0.369-1.701-0.541c-0.714-0.216-1.435-0.416-2.156-0.613c-0.572-0.156-1.144-0.315-1.72-0.46   c-0.735-0.184-1.479-0.349-2.222-0.514c-0.575-0.127-1.146-0.26-1.725-0.375c-0.766-0.153-1.539-0.282-2.312-0.414   c-0.566-0.096-1.129-0.202-1.699-0.286c-0.813-0.121-1.634-0.216-2.454-0.313c-0.54-0.065-1.077-0.14-1.619-0.194   c-0.911-0.089-1.829-0.149-2.749-0.209c-0.461-0.03-0.918-0.077-1.382-0.099c-1.385-0.068-2.779-0.106-4.18-0.106   c-1.401,0-2.794,0.038-4.178,0.106c-0.467,0.023-0.928,0.069-1.393,0.1c-0.914,0.06-1.828,0.119-2.734,0.209   c-0.548,0.054-1.089,0.13-1.633,0.195c-0.815,0.097-1.631,0.191-2.438,0.31c-0.577,0.086-1.146,0.192-1.718,0.289   c-0.764,0.13-1.53,0.259-2.286,0.41c-0.59,0.117-1.173,0.252-1.757,0.382c-0.73,0.162-1.459,0.324-2.183,0.506   c-0.591,0.148-1.176,0.31-1.761,0.47c-0.706,0.193-1.41,0.389-2.107,0.6c-0.587,0.178-1.168,0.366-1.749,0.556   c-0.684,0.223-1.366,0.452-2.043,0.692c-0.58,0.206-1.154,0.42-1.729,0.639c-0.665,0.253-1.326,0.513-1.982,0.783   c-0.571,0.235-1.138,0.474-1.703,0.721c-0.645,0.281-1.284,0.572-1.921,0.87c-0.561,0.262-1.118,0.526-1.671,0.8   c-0.627,0.31-1.246,0.631-1.865,0.956c-0.545,0.287-1.091,0.575-1.63,0.873c-0.611,0.338-1.214,0.691-1.815,1.044   c-0.528,0.31-1.057,0.619-1.578,0.941c-0.596,0.368-1.181,0.751-1.767,1.134c-0.51,0.333-1.022,0.661-1.524,1.005   c-0.583,0.399-1.153,0.815-1.726,1.228c-0.486,0.35-0.977,0.694-1.454,1.055c-0.578,0.437-1.14,0.891-1.706,1.342   c-0.454,0.361-0.915,0.714-1.36,1.083c-0.595,0.494-1.172,1.009-1.753,1.519c-0.398,0.349-0.805,0.688-1.196,1.043   c-0.945,0.862-1.872,1.744-2.778,2.648c-0.341,0.34-0.663,0.696-0.998,1.042c-0.569,0.589-1.143,1.173-1.696,1.777   c-0.397,0.434-0.775,0.885-1.163,1.328c-0.47,0.537-0.944,1.067-1.4,1.616c-0.393,0.473-0.77,0.961-1.153,1.443   c-0.427,0.537-0.858,1.07-1.272,1.618c-0.379,0.501-0.743,1.015-1.111,1.526c-0.395,0.546-0.791,1.092-1.173,1.648   c-0.359,0.524-0.705,1.058-1.052,1.591c-0.366,0.562-0.733,1.123-1.087,1.693c-0.336,0.543-0.66,1.094-0.984,1.645   c-0.34,0.578-0.677,1.157-1.004,1.742c-0.312,0.56-0.613,1.127-0.912,1.696c-0.313,0.594-0.621,1.19-0.919,1.791   c-0.286,0.576-0.564,1.157-0.836,1.74c-0.286,0.61-0.564,1.224-0.834,1.843c-0.259,0.59-0.511,1.18-0.756,1.776   c-0.259,0.63-0.507,1.263-0.75,1.9c-0.23,0.599-0.455,1.2-0.67,1.805c-0.232,0.65-0.449,1.305-0.666,1.963   c-0.198,0.606-0.398,1.21-0.582,1.822c-0.204,0.674-0.391,1.354-0.579,2.034c-0.168,0.609-0.337,1.216-0.492,1.829   c-0.176,0.701-0.332,1.408-0.489,2.115c-0.135,0.606-0.277,1.209-0.399,1.819c-0.148,0.739-0.272,1.485-0.4,2.231   c-0.101,0.59-0.212,1.176-0.301,1.769c-0.121,0.808-0.213,1.625-0.312,2.44c-0.065,0.541-0.143,1.078-0.197,1.621   c-0.005,0.058-0.015,0.116-0.022,0.175c-14.99-1.29-26.793-13.902-26.793-29.217v-15.751h12.859   c14.129,0,25.625-11.496,25.625-25.625c0-14.13-11.496-25.627-25.625-25.627H17.765c1.869-5.441,5.325-10.253,10.097-13.85   c0.176-0.132,0.345-0.272,0.51-0.417l86.927-77.372c0.024-0.023,0.05-0.044,0.073-0.067l0.928-0.826   c2.058-1.688,9.2-6.766,20.548-6.766h12.357L111.15,195.09c-1.615,1.527-2.531,3.652-2.531,5.875v29.623   c0,4.466,3.618,8.084,8.084,8.084h192.23c4.466,0,8.084-3.618,8.084-8.084c0-4.466-3.618-8.084-8.084-8.084h-98.882v-63.386h63.547   c2.437,0.054,14.21,0.783,24.351,9.561l62.129,53.825h-22.755c-4.466,0-8.084,3.618-8.084,8.084s3.618,8.084,8.084,8.084h44.434   h84.752c9.783,0,18.456,4.819,23.786,12.204h-17.023c-14.129,0-25.625,11.496-25.625,25.625c0,14.129,11.496,25.625,25.625,25.625   h22.56v23.292C495.832,338.655,487.236,349.767,475.204,353.441z"/>
	<circle style="fill:#231F20;" cx="391.976" cy="362.818" r="9.603"/>
	<path style="fill:#231F20;" d="M126.306,320.599c-23.286,0-42.23,18.941-42.23,42.223c0,23.287,18.944,42.234,42.23,42.234   c23.287,0,42.232-18.946,42.232-42.234C168.536,339.54,149.591,320.599,126.306,320.599z M126.306,388.887   c-14.37,0-26.061-11.693-26.061-26.066c0-14.366,11.691-26.055,26.061-26.055c14.372,0,26.063,11.689,26.063,26.055   C152.368,377.195,140.677,388.887,126.306,388.887z"/>
	<circle style="fill:#231F20;" cx="126.308" cy="362.818" r="9.603"/>
	<path style="fill:#231F20;" d="M391.981,320.599c-23.286,0-42.23,18.941-42.23,42.223c0,23.287,18.944,42.234,42.23,42.234   c23.287,0,42.232-18.946,42.232-42.234C434.213,339.54,415.268,320.599,391.981,320.599z M391.981,388.887   c-14.371,0-26.061-11.693-26.061-26.066c0-14.366,11.691-26.055,26.061-26.055c14.372,0,26.063,11.689,26.063,26.055   C418.044,377.195,406.352,388.887,391.981,388.887z"/>
</g>
<g>
</g>
<g>
</g>
<g>
</g>
<g>
</g>
<g>
</g>
<g>
</g>
<g>
</g>
<g>
</g>
<g>
</g>
<g>
</g>
<g>
</g>
<g>
</g>
<g>
</g>
<g>
</g>
<g>
</g>
</svg>
