<?xml version="1.0" encoding="iso-8859-1"?>
<!-- Generator: Adobe Illustrator 19.0.0, SVG Export Plug-In . SVG Version: 6.00 Build 0)  -->
<svg xmlns="http://www.w3.org/2000/svg" xmlns:xlink="http://www.w3.org/1999/xlink" version="1.1" id="Layer_1" x="0px" y="0px" viewBox="0 0 511.999 511.999" style="enable-background:new 0 0 511.999 511.999;" xml:space="preserve">
<path style="fill:#55CDEF;" d="M228.817,345.507h118.781c-2.101-5.567-3.263-11.596-3.263-17.898  c0-27.991,22.689-50.678,50.676-50.678c27.992,0,50.678,22.688,50.678,50.678c0,6.304-1.158,12.331-3.261,17.898h24.08  c20.661,0,37.408-16.748,37.408-37.406v-57.424c0-20.662-16.747-37.407-37.408-37.407h-84.752l-78.514-68.021  c-12.179-10.542-26.128-11.471-29.562-11.535H136.846c-13.962,0-22.848,6.247-25.812,8.714l-1.103,0.981l-0.009,0.009l0,0  l-86.927,77.372c-9.056,6.825-14.912,17.671-14.912,29.887v57.424c0,20.658,16.747,37.406,37.406,37.406h32.76  c-2.101-5.567-3.261-11.596-3.261-17.898c0-27.991,22.686-50.678,50.676-50.678s50.678,22.688,50.678,50.678  c0,6.304-1.16,12.331-3.263,17.898h28.069"/>
<path style="fill:#3EBEDB;" d="M37.737,321.251v-61.003c0-12.977,6.219-24.498,15.841-31.748l92.343-82.195l0.01-0.009l1.172-1.042  c3.149-2.62,12.589-9.257,27.421-9.257h-29.582c-13.962,0-22.848,6.247-25.812,8.714l-1.103,0.981l-0.009,0.009l-86.927,77.372  c-9.056,6.825-14.912,17.671-14.912,29.887v57.424c0,18.573,13.541,33.977,31.286,36.9C41.411,340.31,37.737,331.212,37.737,321.251  z"/>
<path style="fill:#E1F4F9;" d="M473.269,276.725c-9.686,0-17.541-7.852-17.541-17.541c0-9.689,7.855-17.542,17.541-17.542h29.541  c0.718,2.893,1.105,5.92,1.105,9.036v26.047h-30.646V276.725z"/>
<g>
	<path style="fill:#B4E7F9;" d="M483.988,259.183c0-9.689,7.855-17.542,17.541-17.542H479.97c-9.686,0-17.541,7.852-17.541,17.542   c0,9.688,7.855,17.541,17.541,17.541h21.558C491.842,276.725,483.988,268.871,483.988,259.183z"/>
	<path style="fill:#B4E7F9;" d="M337.324,213.269h44.432l-78.514-68.021c-12.179-10.542-26.128-11.471-29.562-11.535H169.524   l-84.16,79.555h223.57"/>
</g>
<path style="fill:#97D3EE;" d="M169.524,133.715l-67.783,64.074c-5.204,5.796-10.169,15.48,14.757,15.48h85.467v-79.555h-32.441  V133.715z"/>
<g>
	<circle style="fill:#5B5E5E;" cx="125.661" cy="327.605" r="50.683"/>
	<path style="fill:#5B5E5E;" d="M445.688,327.609c0,27.989-22.686,50.677-50.678,50.677c-27.988,0-50.676-22.689-50.676-50.677   c0-27.991,22.689-50.678,50.676-50.678C423.003,276.931,445.688,299.618,445.688,327.609z"/>
</g>
<path style="fill:#FF5357;" d="M38.729,284.266c9.688,0,17.541-7.855,17.541-17.541c0-9.689-7.852-17.543-17.541-17.543H8.084v9.037  v26.047h30.645V284.266z"/>
<path style="fill:#ED242E;" d="M38.729,249.181H16.382c-0.125,1.244-0.204,2.502-0.204,3.779v31.305h21.558v-24.017  c0-3.833,0.556-7.532,1.567-11.039C39.111,249.204,38.923,249.181,38.729,249.181z"/>
<g>
	<circle style="fill:#E6E9ED;" cx="125.661" cy="327.605" r="17.408"/>
	<circle style="fill:#E6E9ED;" cx="395.016" cy="327.605" r="17.408"/>
</g>
<g>
	<path style="fill:#424444;" d="M373.022,328.074c0-24.443,17.301-44.838,40.325-49.617c-3.343-0.694-6.803-1.061-10.351-1.061   c-27.99,0-50.676,22.688-50.676,50.678c0,27.989,22.686,50.677,50.676,50.677c3.547,0,7.008-0.368,10.351-1.061   C390.323,372.912,373.022,352.516,373.022,328.074z"/>
	<path style="fill:#424444;" d="M102.747,328.074c0-24.443,17.301-44.838,40.324-49.617c-3.341-0.694-6.803-1.061-10.35-1.061   c-27.99,0-50.676,22.688-50.676,50.678c0,27.989,22.686,50.677,50.676,50.677c3.547,0,7.008-0.368,10.35-1.061   C120.048,372.912,102.747,352.516,102.747,328.074z"/>
</g>
<g>
	<path style="fill:#231F20;" d="M511.921,248.079c-0.013-0.23-0.036-0.459-0.053-0.689c-0.046-0.649-0.103-1.296-0.178-1.937   c-0.028-0.246-0.061-0.49-0.094-0.735c-0.085-0.645-0.182-1.284-0.294-1.92c-0.039-0.223-0.078-0.446-0.12-0.669   c-0.134-0.703-0.286-1.398-0.452-2.089c-0.028-0.115-0.046-0.233-0.075-0.348c-0.004-0.017-0.012-0.032-0.016-0.049   c-4.944-19.77-22.852-34.459-44.133-34.459H384.77l-76.238-66.048c-14.085-12.192-30.122-13.42-34.701-13.505   c-0.051-0.001-0.101-0.001-0.152-0.001H169.523h-32.677c-16.483,0-27.159,7.401-30.983,10.584   c-0.068,0.056-0.136,0.114-0.203,0.174l-1.103,0.981c-0.025,0.023-0.051,0.045-0.075,0.069l-86.626,77.106   c-10.683,8.174-17.067,20.3-17.784,33.616C0.029,248.495,0,248.834,0,249.181v1.496v33.588v23.835   c0,25.084,20.408,45.49,45.49,45.49h27.49c9.607,19.401,29.609,32.778,52.684,32.778c23.077,0,43.079-13.377,52.686-32.778h22.797   c4.466,0,8.084-3.62,8.084-8.084c0-4.465-3.618-8.084-8.084-8.084h-17.542c0.027-0.163,0.046-0.327,0.072-0.489   c0.054-0.334,0.1-0.669,0.148-1.005c0.083-0.584,0.158-1.17,0.224-1.757c0.038-0.337,0.074-0.675,0.107-1.013   c0.058-0.625,0.105-1.253,0.143-1.881c0.018-0.296,0.042-0.591,0.056-0.888c0.043-0.924,0.07-1.851,0.07-2.78   c0-32.402-26.361-58.763-58.763-58.763c-32.4,0-58.76,26.361-58.76,58.763c0,0.929,0.027,1.855,0.07,2.78   c0.014,0.297,0.038,0.594,0.056,0.89c0.039,0.627,0.084,1.254,0.143,1.878c0.032,0.341,0.069,0.679,0.107,1.018   c0.066,0.585,0.14,1.168,0.223,1.752c0.049,0.337,0.095,0.674,0.149,1.009c0.026,0.163,0.045,0.327,0.072,0.488H45.49   c-16.168,0-29.322-13.154-29.322-29.322v-15.751h22.56c14.129,0,25.625-11.496,25.625-25.625c0-14.131-11.496-25.627-25.625-25.627   H17.765c1.869-5.441,5.325-10.254,10.097-13.85c0.176-0.133,0.345-0.272,0.51-0.418l86.927-77.372   c0.024-0.022,0.05-0.044,0.074-0.067l0.925-0.824c2.059-1.688,9.205-6.767,20.549-6.767h12.357l-69.393,65.595   c-2.406,2.274-3.182,5.786-1.957,8.864c1.224,3.077,4.199,5.096,7.512,5.096h223.57c4.466,0,8.084-3.62,8.084-8.084   c0-4.465-3.618-8.084-8.084-8.084h-98.884v-63.387h63.547c0.591,0.013,1.735,0.069,3.261,0.266   c0.053,0.006,0.097,0.011,0.151,0.017c1.15,0.153,2.517,0.391,4.026,0.748c0.071,0.017,0.137,0.029,0.209,0.046   c0.488,0.119,0.995,0.253,1.511,0.398c0.045,0.013,0.087,0.023,0.134,0.035c0.512,0.146,1.04,0.31,1.575,0.486   c0.055,0.018,0.106,0.031,0.161,0.05c0.484,0.161,0.981,0.343,1.48,0.53c0.112,0.042,0.219,0.075,0.331,0.119   c0.551,0.212,1.111,0.446,1.676,0.693c0.065,0.028,0.127,0.051,0.191,0.079c0.586,0.26,1.18,0.543,1.776,0.843   c0.044,0.023,0.088,0.041,0.133,0.064c0.501,0.254,1.007,0.537,1.513,0.822c0.141,0.08,0.281,0.148,0.424,0.231   c0.522,0.303,1.046,0.636,1.568,0.973c0.125,0.081,0.251,0.151,0.376,0.234c1.297,0.859,2.589,1.83,3.856,2.926l62.13,53.826   h-22.753c-4.466,0-8.084,3.62-8.084,8.084c0,4.465,3.618,8.084,8.084,8.084h44.432h84.752c9.782,0,18.455,4.819,23.785,12.203   h-17.023c-14.129,0-25.625,11.496-25.625,25.626c0,14.13,11.496,25.625,25.625,25.625h22.56v23.292   c0,16.168-13.155,29.322-29.324,29.322h-13.553c0.029-0.174,0.05-0.348,0.077-0.523c0.05-0.309,0.093-0.621,0.137-0.932   c0.086-0.604,0.164-1.209,0.232-1.816c0.037-0.327,0.072-0.654,0.102-0.983c0.059-0.633,0.106-1.268,0.146-1.904   c0.018-0.292,0.041-0.582,0.055-0.875c0.043-0.925,0.07-1.852,0.07-2.783c0-32.401-26.361-58.762-58.763-58.762   c-32.4,0-58.76,26.361-58.76,58.762c0,0.929,0.027,1.854,0.07,2.778c0.014,0.302,0.038,0.6,0.056,0.901   c0.039,0.62,0.084,1.24,0.141,1.857c0.033,0.351,0.071,0.701,0.11,1.05c0.064,0.565,0.136,1.129,0.216,1.691   c0.051,0.362,0.102,0.723,0.16,1.083c0.025,0.151,0.042,0.304,0.067,0.455H228.817c-4.466,0-8.084,3.62-8.084,8.084   c0,4.465,3.618,8.084,8.084,8.084h113.509c9.607,19.401,29.609,32.778,52.684,32.778c23.077,0,43.079-13.377,52.686-32.778h18.81   c25.084,0,45.493-20.407,45.493-45.49v-31.376v-26.047C512,249.804,511.97,248.939,511.921,248.079z M125.665,285.015   c23.486,0,42.594,19.108,42.594,42.594c0,0.695-0.019,1.385-0.053,2.072c-0.011,0.223-0.03,0.444-0.045,0.666   c-0.03,0.464-0.061,0.927-0.106,1.387c-0.025,0.261-0.058,0.522-0.088,0.783c-0.048,0.417-0.099,0.834-0.158,1.248   c-0.04,0.276-0.085,0.551-0.132,0.826c-0.066,0.396-0.135,0.789-0.211,1.181c-0.055,0.28-0.112,0.56-0.172,0.839   c-0.083,0.382-0.171,0.762-0.264,1.14c-0.069,0.28-0.138,0.561-0.213,0.84c-0.1,0.377-0.209,0.75-0.319,1.123   c-0.081,0.271-0.16,0.541-0.245,0.811c-0.126,0.396-0.262,0.788-0.4,1.178c-0.082,0.234-0.161,0.469-0.247,0.702   c-6.025,16.214-21.654,27.798-39.939,27.798c-18.3,0-33.94-11.604-39.953-27.838c-0.067-0.181-0.127-0.363-0.192-0.545   c-0.155-0.438-0.307-0.878-0.448-1.323c-0.078-0.245-0.149-0.49-0.222-0.736c-0.117-0.393-0.232-0.789-0.337-1.188   c-0.071-0.267-0.138-0.537-0.204-0.805c-0.095-0.387-0.185-0.775-0.269-1.166c-0.059-0.275-0.116-0.551-0.17-0.827   c-0.077-0.395-0.147-0.791-0.213-1.189c-0.045-0.274-0.091-0.546-0.13-0.821c-0.06-0.414-0.111-0.831-0.158-1.248   c-0.03-0.261-0.064-0.522-0.088-0.784c-0.044-0.459-0.077-0.921-0.106-1.384c-0.014-0.223-0.034-0.446-0.045-0.669   c-0.033-0.687-0.053-1.376-0.053-2.071C83.073,304.123,102.18,285.015,125.665,285.015z M48.185,266.724   c0,5.215-4.243,9.456-9.456,9.456h-22.56v-18.916h22.56C43.944,257.265,48.185,261.508,48.185,266.724z M193.882,205.185h-88.198   l67.056-63.387h21.142L193.882,205.185L193.882,205.185z M395.011,370.201c-18.281,0-33.905-11.58-39.934-27.788   c-0.094-0.254-0.18-0.51-0.269-0.765c-0.127-0.363-0.253-0.728-0.372-1.095c-0.096-0.302-0.185-0.607-0.275-0.911   c-0.099-0.335-0.196-0.672-0.288-1.01c-0.084-0.314-0.163-0.63-0.239-0.944c-0.083-0.341-0.163-0.683-0.237-1.027   c-0.068-0.311-0.133-0.623-0.193-0.936c-0.07-0.36-0.134-0.723-0.194-1.087c-0.05-0.3-0.099-0.599-0.143-0.899   c-0.057-0.392-0.105-0.787-0.151-1.182c-0.032-0.278-0.068-0.556-0.095-0.835c-0.043-0.446-0.073-0.896-0.102-1.345   c-0.015-0.233-0.036-0.466-0.047-0.698c-0.033-0.686-0.053-1.374-0.053-2.067c0-23.486,19.107-42.594,42.592-42.594   c23.486,0,42.594,19.108,42.594,42.594c0,0.695-0.019,1.386-0.053,2.074c-0.011,0.217-0.03,0.433-0.044,0.65   c-0.03,0.472-0.063,0.943-0.108,1.411c-0.024,0.249-0.056,0.497-0.084,0.746c-0.05,0.433-0.102,0.867-0.165,1.296   c-0.038,0.258-0.08,0.513-0.123,0.77c-0.069,0.419-0.143,0.838-0.224,1.253c-0.05,0.254-0.102,0.508-0.156,0.762   c-0.089,0.416-0.185,0.83-0.288,1.242c-0.06,0.245-0.121,0.489-0.185,0.733c-0.113,0.426-0.235,0.848-0.361,1.269   c-0.066,0.221-0.13,0.442-0.201,0.662c-0.148,0.466-0.306,0.927-0.47,1.386c-0.058,0.165-0.113,0.331-0.174,0.495   C428.958,358.593,413.315,370.201,395.011,370.201z M473.269,268.64c-5.215,0-9.456-4.243-9.456-9.456   c0-5.215,4.243-9.457,9.456-9.457h22.538c0.011,0.317,0.024,0.633,0.024,0.952v17.963h-22.561V268.64z"/>
	<path style="fill:#231F20;" d="M256,257.265c4.466,0,8.084-3.62,8.084-8.084c0-4.465-3.618-8.084-8.084-8.084h-34.941   c-4.466,0-8.084,3.62-8.084,8.084c0,4.465,3.618,8.084,8.084,8.084H256z"/>
	<path style="fill:#231F20;" d="M395.011,302.118c-14.056,0-25.49,11.434-25.49,25.49c0,14.055,11.434,25.489,25.49,25.489   c14.057,0,25.492-11.434,25.492-25.489C420.503,313.553,409.068,302.118,395.011,302.118z M395.011,336.929   c-5.141,0-9.322-4.181-9.322-9.321c0-5.14,4.182-9.322,9.322-9.322c5.142,0,9.324,4.182,9.324,9.322   S400.151,336.929,395.011,336.929z"/>
	<path style="fill:#231F20;" d="M125.665,353.098c14.056,0,25.49-11.434,25.49-25.489c0-14.056-11.434-25.49-25.49-25.49   s-25.49,11.434-25.49,25.49C100.175,341.664,111.61,353.098,125.665,353.098z M125.665,318.286c5.14,0,9.322,4.182,9.322,9.322   s-4.182,9.321-9.322,9.321s-9.322-4.181-9.322-9.321S120.525,318.286,125.665,318.286z"/>
</g>
<g>
</g>
<g>
</g>
<g>
</g>
<g>
</g>
<g>
</g>
<g>
</g>
<g>
</g>
<g>
</g>
<g>
</g>
<g>
</g>
<g>
</g>
<g>
</g>
<g>
</g>
<g>
</g>
<g>
</g>
</svg>
