<?xml version="1.0" encoding="iso-8859-1"?>
<!-- Generator: Adobe Illustrator 19.0.0, SVG Export Plug-In . SVG Version: 6.00 Build 0)  -->
<svg xmlns="http://www.w3.org/2000/svg" xmlns:xlink="http://www.w3.org/1999/xlink" version="1.1" id="Layer_1" x="0px" y="0px" viewBox="0 0 511.999 511.999" style="enable-background:new 0 0 511.999 511.999;" xml:space="preserve">
<path style="fill:#E6E9ED;" d="M42.004,336.165c0,7.494-6.075,13.569-13.57,13.569h-6.805c-7.496,0-13.57-6.076-13.57-13.569v-35.12  c0-7.495,6.075-13.57,13.57-13.57h6.805c7.496,0,13.57,6.076,13.57,13.57V336.165z"/>
<path style="fill:#5BC5EF;" d="M217.323,349.082h131.739l0,0c-2.587-6.201-4.02-13.004-4.02-20.143  c0-28.937,23.458-52.395,52.393-52.395c28.937,0,52.393,23.458,52.393,52.395c0,7.139-1.433,13.942-4.018,20.143h45.241  c0.445,0,0.885-0.021,1.318-0.067c6.501-0.661,11.574-6.151,11.574-12.826v-53.438c0-37.315-30.254-67.572-67.571-67.572H415.43  h-51.301h-26.104l-38.677-71.617c0,0-7.483-12.892-22.703-12.892h-55.689c-0.165,0-0.33,0.019-0.493,0.025  c-0.101,0-0.2-0.005-0.3-0.005c-0.735,0-1.464,0.02-2.197,0.028c-1.297-0.026-2.598-0.048-3.901-0.048  c-92.467,0-168.939,68.447-181.534,157.438c5.489,1.737,9.472,6.873,9.472,12.938v35.12c0,4.535-2.233,8.538-5.649,11.002  c1.142,0.824,2.413,1.473,3.78,1.915h23.33c-2.589-6.202-4.037-13.002-4.037-20.143c0-28.937,23.458-52.395,52.391-52.395  c28.939,0,52.397,23.458,52.397,52.395c0,7.141-1.448,13.941-4.037,20.143h4.736h26.267"/>
<path style="fill:#F7A539;" d="M470.56,224.477c-8.855,4.589-14.909,13.829-14.909,24.491c0,15.23,12.345,27.576,27.575,27.576  c7.489,0,14.275-2.989,19.244-7.834C498.488,249.873,486.658,233.941,470.56,224.477z"/>
<g>
	<path style="fill:#5B5E5E;" d="M164.214,328.938c0,28.935-23.458,52.393-52.397,52.393c-28.933,0-52.391-23.458-52.391-52.393   c0-28.937,23.458-52.395,52.391-52.395C140.756,276.543,164.214,300.001,164.214,328.938z"/>
	<circle style="fill:#5B5E5E;" cx="397.432" cy="328.941" r="52.393"/>
</g>
<path style="fill:#97D3EE;" d="M277.652,215.179h22.562l-24.415-45.206c0,0-4.724-8.137-14.332-8.137h-18.264H225.92h-17.19  c-0.105,0-0.207,0.012-0.313,0.016c-0.063,0-0.126-0.004-0.189-0.004c-0.464,0-0.923,0.013-1.387,0.019  c-0.819-0.017-1.638-0.03-2.461-0.03c-40.943,0-76.917,21.262-97.491,53.344h17.19h125.475"/>
<path style="fill:#464949;" d="M374.049,328.938c0-25.254,17.869-46.33,41.649-51.287c-3.468-0.723-7.062-1.107-10.746-1.107  c-28.933,0-52.391,23.458-52.391,52.395c0,28.935,23.458,52.393,52.391,52.393c3.684,0,7.277-0.384,10.746-1.107  C391.918,375.266,374.049,354.19,374.049,328.938z"/>
<path style="fill:#2EA4BF;" d="M243.83,130.67h-16.428c-0.165,0-0.33,0.019-0.493,0.025c-0.101,0-0.2-0.005-0.3-0.005  c-0.735,0-1.464,0.02-2.197,0.028c-1.297-0.026-2.598-0.048-3.901-0.048c-92.467,0-168.939,68.447-181.534,157.438  c5.489,1.737,9.472,6.873,9.472,12.938v35.12c0,4.535-2.233,8.538-5.649,11.002c1.142,0.824,2.413,1.473,3.78,1.915h26.979  c-1.366-0.442,1.679-1.325,0.537-2.149c0.85-0.612-3.104-3.515-2.417-4.304c-1.647-5.08-5.806-8.062-5.806-13.691  c0-8.708,2.137-16.912,5.896-24.139v-3.754c0-0.416-0.023-0.825-0.059-1.23c-0.608-10.616-8.804-15.487-8.832-15.503  C77.08,197.179,152.681,130.67,243.83,130.67z"/>
<path style="fill:#ED6529;" d="M481.21,248.967c0-5.966,1.898-11.484,5.118-15.994c-3.505-3.215-7.344-6.071-11.47-8.497  c-8.855,4.589-14.909,13.829-14.909,24.491c0,15.23,12.345,27.576,27.575,27.576c3.769,0,7.359-0.758,10.629-2.126  C488.202,270.254,481.21,260.429,481.21,248.967z"/>
<path style="fill:#B4E7F9;" d="M288.333,214.105c1.891,0,3.644-0.996,4.612-2.619c0.969-1.626,1.013-3.64,0.113-5.305l-19.204-35.56  c-0.068-0.125-0.139-0.246-0.216-0.365c-0.793-1.227-5.161-7.347-13.245-7.347l-53.324,0.012c-0.279,0.001-0.555,0.006-0.801,0.012  l-0.522,0.008c-0.81-0.017-1.622-0.03-2.439-0.03v51.195H288.333z"/>
<path style="fill:#CCD4DD;" d="M25.032,336.165v-35.12c0-5.695,3.511-10.563,8.485-12.577c-1.572-0.636-3.285-0.994-5.084-0.994  h-6.805c-7.496,0-13.57,6.076-13.57,13.57v35.12c0,7.494,6.075,13.569,13.57,13.569h6.805c1.8,0,3.513-0.358,5.084-0.994  C28.543,346.728,25.032,341.858,25.032,336.165z"/>
<path style="fill:#464949;" d="M88.434,328.938c0-25.254,17.869-46.33,41.649-51.287c-3.469-0.723-7.062-1.107-10.746-1.107  c-28.933,0-52.391,23.458-52.391,52.395c0,28.935,23.458,52.393,52.391,52.393c3.684,0,7.277-0.384,10.746-1.107  C106.303,375.266,88.434,354.19,88.434,328.938z"/>
<g>
	<circle style="fill:#E6E9ED;" cx="111.821" cy="328.941" r="17.995"/>
	<circle style="fill:#E6E9ED;" cx="397.432" cy="328.941" r="17.996"/>
</g>
<g>
	<path style="fill:#231F20;" d="M111.819,354.991c14.365,0,26.054-11.687,26.054-26.052c0-14.365-11.688-26.054-26.054-26.054   c-14.364,0-26.051,11.688-26.051,26.054C85.767,343.304,97.454,354.991,111.819,354.991z M111.819,319   c5.48,0,9.938,4.458,9.938,9.938c0,5.479-4.458,9.937-9.938,9.937c-5.479,0-9.936-4.458-9.936-9.937   C101.883,323.458,106.34,319,111.819,319z"/>
	<path style="fill:#231F20;" d="M397.434,302.885c-14.365,0-26.054,11.688-26.054,26.054c0,14.365,11.688,26.052,26.054,26.052   s26.054-11.687,26.054-26.052C423.488,314.573,411.8,302.885,397.434,302.885z M397.434,338.875c-5.48,0-9.938-4.458-9.938-9.937   c0-5.48,4.458-9.938,9.938-9.938c5.48,0,9.938,4.458,9.938,9.938C407.372,334.417,402.914,338.875,397.434,338.875z"/>
	<path style="fill:#231F20;" d="M217.829,236.117c-4.451,0-8.058,3.607-8.058,8.058c0,4.451,3.607,8.058,8.058,8.058h20.772   c4.451,0,8.058-3.607,8.058-8.058c0-4.451-3.607-8.058-8.058-8.058H217.829z"/>
	<path style="fill:#231F20;" d="M269.595,215.179c0,4.451,3.607,8.058,8.058,8.058h22.562c2.839,0,5.466-1.493,6.92-3.93   c1.454-2.438,1.518-5.46,0.169-7.956l-24.415-45.207c-0.039-0.072-0.078-0.144-0.12-0.215   c-2.619-4.513-10.053-12.151-21.301-12.151H208.73c-0.156,0-0.311,0.004-0.469,0.012c-0.012,0-0.023,0-0.032,0   c-0.358,0-0.712,0.006-1.069,0.013l-0.302,0.005c-0.824-0.017-1.649-0.029-2.477-0.029c-42.383,0-81.363,21.328-104.274,57.052   c-1.59,2.481-1.701,5.63-0.288,8.215s4.125,4.192,7.07,4.192h142.665c4.451,0,8.058-3.607,8.058-8.058   c0-4.451-3.607-8.058-8.058-8.058h-37.116v-37.221l49.029-0.009c4.381,0,6.943,3.511,7.369,4.144l17.868,33.084h-9.053   C273.201,207.121,269.595,210.729,269.595,215.179z M122.928,207.121c18.583-21.535,44.829-34.812,73.395-36.924v36.924H122.928z"/>
	<path style="fill:#231F20;" d="M510.365,267.117c-0.005-0.025-0.005-0.049-0.011-0.075c-0.057-0.271-0.133-0.536-0.192-0.806   c-0.208-0.931-0.423-1.861-0.665-2.779c-0.116-0.438-0.248-0.871-0.372-1.307c-0.223-0.789-0.448-1.577-0.697-2.355   c-0.157-0.492-0.33-0.978-0.496-1.465c-0.244-0.711-0.488-1.422-0.752-2.124c-0.197-0.522-0.406-1.038-0.615-1.555   c-0.262-0.653-0.526-1.304-0.807-1.949c-0.236-0.545-0.486-1.084-0.735-1.622c-0.276-0.597-0.557-1.193-0.849-1.781   c-0.28-0.568-0.572-1.13-0.867-1.69c-0.284-0.538-0.572-1.072-0.868-1.603c-0.331-0.593-0.669-1.181-1.015-1.764   c-0.281-0.473-0.568-0.942-0.859-1.409c-0.387-0.62-0.779-1.236-1.184-1.845c-0.268-0.403-0.541-0.799-0.817-1.197   c-0.451-0.652-0.908-1.301-1.381-1.939c-0.236-0.32-0.481-0.634-0.723-0.951c-0.53-0.694-1.065-1.383-1.618-2.059   c-0.182-0.221-0.37-0.436-0.553-0.655c-0.629-0.75-1.265-1.493-1.923-2.219c-0.073-0.08-0.148-0.157-0.221-0.236   c-3.888-4.25-8.272-8.069-13.08-11.366c-0.178-0.122-0.351-0.25-0.531-0.372c-0.718-0.483-1.453-0.944-2.188-1.404   c-0.358-0.225-0.713-0.453-1.075-0.671c-0.211-0.127-0.411-0.264-0.623-0.389c-0.14-0.082-0.287-0.144-0.43-0.217   c-11.14-6.468-24.062-10.191-37.844-10.191h-93.54l-36.394-67.388c-0.039-0.073-0.078-0.145-0.12-0.216   c-0.401-0.691-10.038-16.905-29.671-16.905h-55.691c-0.233,0-0.465,0.009-0.669,0.023l-0.124-0.002   c-0.512,0-1.022,0.009-1.531,0.017l-0.645,0.011c-1.304-0.026-2.613-0.047-3.923-0.047c-46.4,0-91.156,16.813-126.027,47.342   c-32.604,28.545-54.514,67.181-62.25,109.462h-4.16C9.702,279.417,0,289.119,0,301.045v35.119c0,11.926,9.702,21.627,21.628,21.627   h6.805c2.797,0,5.463-0.551,7.918-1.522c0.43,0.17,0.862,0.335,1.303,0.478c0.8,0.259,1.637,0.391,2.48,0.391h18.239   c10.151,19.16,30.293,32.249,53.444,32.249c23.154,0,43.297-13.089,53.45-32.249h25.914c4.451,0,8.058-3.607,8.058-8.058   c0-4.451-3.607-8.058-8.058-8.058h-20.124c0.2-0.982,0.376-1.973,0.529-2.972c0.027-0.178,0.043-0.358,0.069-0.537   c0.116-0.814,0.227-1.631,0.311-2.455c0.055-0.546,0.085-1.096,0.126-1.644c0.034-0.466,0.082-0.928,0.105-1.398   c0.052-1.024,0.078-2.051,0.078-3.081c0-33.333-27.119-60.453-60.455-60.453c-33.33,0-60.449,27.118-60.449,60.453   c0,1.031,0.027,2.06,0.078,3.083c0.02,0.401,0.062,0.795,0.09,1.193c0.043,0.618,0.078,1.237,0.141,1.851   c0.073,0.722,0.173,1.436,0.272,2.152c0.039,0.279,0.064,0.562,0.107,0.841c0.151,0.997,0.328,1.985,0.528,2.965h-3.081   c0.017-0.074,0.029-0.15,0.045-0.225c0.043-0.196,0.082-0.392,0.119-0.591c0.109-0.566,0.199-1.138,0.262-1.714   c0.012-0.115,0.019-0.231,0.03-0.347c0.061-0.656,0.101-1.317,0.101-1.982v-35.119c0-0.683-0.041-1.358-0.102-2.027   c-0.009-0.096-0.015-0.192-0.026-0.288c-0.07-0.661-0.171-1.313-0.3-1.956c-0.012-0.059-0.025-0.117-0.037-0.176   c-1.08-5.194-4.011-9.766-8.214-12.892c14.5-83.038,87.758-144.977,172.682-144.977c1.248,0,2.495,0.021,3.738,0.046   c0.084,0.002,0.171,0.003,0.255,0.002l0.852-0.014c0.417-0.008,0.834-0.015,1.19-0.015l0.362,0.005   c0.103,0,0.206-0.002,0.309-0.006c0.113-0.004,0.227-0.011,0.359-0.019h55.514c9.899,0,15.211,8.05,15.701,8.828l38.589,71.452   c1.406,2.605,4.129,4.23,7.09,4.23h98.347c6.729,0,13.193,1.139,19.23,3.206c-5.1,6.242-8.008,14.138-8.008,22.524   c0,19.648,15.985,35.634,35.633,35.634c4.386,0,8.654-0.802,12.645-2.317c0.001,0.157,0.012,0.31,0.012,0.466v53.438   c0,2.49-1.862,4.559-4.334,4.811c-0.163,0.017-0.332,0.024-0.501,0.024h-34.373c0.58-2.855,0.945-5.757,1.108-8.69   c0.005-0.1,0.017-0.198,0.023-0.299c0.052-1.028,0.078-2.061,0.078-3.097c0-33.333-27.117-60.453-60.451-60.453   s-60.451,27.118-60.451,60.453c0,1.036,0.027,2.068,0.078,3.097c0.005,0.11,0.018,0.217,0.025,0.326   c0.163,2.924,0.527,5.817,1.107,8.663h-120.87c-4.451,0-8.058,3.607-8.058,8.058c0,4.451,3.607,8.058,8.058,8.058h126.664   c10.151,19.16,30.294,32.249,53.446,32.249s43.295-13.089,53.446-32.249h40.17c0.716,0,1.434-0.037,2.133-0.107   c10.728-1.092,18.818-10.051,18.818-20.843v-53.438C512,277.391,511.431,272.164,510.365,267.117z M111.816,284.601   c24.448,0,44.339,19.89,44.339,44.337c0,0.751-0.019,1.497-0.057,2.238c-0.014,0.279-0.043,0.558-0.061,0.836   c-0.031,0.458-0.059,0.916-0.104,1.37c-0.039,0.392-0.096,0.781-0.145,1.171c-0.042,0.332-0.077,0.667-0.127,0.997   c-0.077,0.51-0.172,1.018-0.266,1.526c-0.038,0.2-0.068,0.402-0.107,0.6c-0.131,0.65-0.279,1.297-0.439,1.94   c-0.012,0.048-0.021,0.098-0.033,0.146c-0.534,2.108-1.225,4.183-2.072,6.213c-0.014,0.033-0.021,0.068-0.035,0.101   c-6.717,15.96-22.515,27.195-40.888,27.195c-18.367,0-34.16-11.229-40.878-27.183c-0.015-0.038-0.024-0.076-0.04-0.113   c-0.849-2.033-1.541-4.108-2.074-6.218c-0.008-0.03-0.014-0.062-0.021-0.092c-0.165-0.661-0.317-1.325-0.451-1.992   c-0.038-0.19-0.068-0.382-0.102-0.573c-0.097-0.516-0.192-1.032-0.271-1.552c-0.048-0.323-0.083-0.651-0.125-0.978   c-0.05-0.396-0.107-0.793-0.147-1.191c-0.044-0.444-0.071-0.894-0.102-1.342c-0.02-0.288-0.049-0.575-0.063-0.865   c-0.037-0.741-0.057-1.487-0.057-2.237C67.485,304.491,87.371,284.601,111.816,284.601z M16.116,336.165v-35.119   c0-3.039,2.473-5.513,5.513-5.513h6.805c0.694,0,1.352,0.143,1.963,0.378c0.103,0.04,0.206,0.08,0.306,0.125   c0.243,0.111,0.476,0.236,0.699,0.38c0.047,0.03,0.098,0.056,0.144,0.088c0.561,0.386,1.048,0.872,1.433,1.433   c0.025,0.035,0.045,0.074,0.069,0.112c0.154,0.236,0.288,0.486,0.405,0.745c0.034,0.078,0.068,0.157,0.099,0.236   c0.092,0.234,0.165,0.477,0.226,0.725c0.021,0.089,0.048,0.177,0.066,0.269c0.062,0.332,0.103,0.673,0.103,1.023v35.119   c0,0.348-0.041,0.685-0.102,1.015c-0.01,0.051-0.016,0.101-0.027,0.15c-0.068,0.315-0.164,0.619-0.284,0.912   c-0.021,0.052-0.045,0.101-0.068,0.151c-0.129,0.29-0.276,0.569-0.451,0.829c-0.023,0.034-0.052,0.064-0.075,0.099   c-0.145,0.205-0.308,0.396-0.479,0.58c-0.082,0.087-0.162,0.174-0.249,0.257c-0.988,0.935-2.313,1.518-3.777,1.518h-6.805   C18.589,341.676,16.116,339.205,16.116,336.165z M397.434,373.273c-19.079,0-35.38-12.115-41.62-29.054   c-0.008-0.019-0.015-0.039-0.023-0.059c-0.237-0.648-0.459-1.303-0.666-1.965c-0.011-0.033-0.023-0.066-0.033-0.098   c-0.205-0.661-0.394-1.328-0.569-2c-0.009-0.034-0.019-0.068-0.028-0.102c-0.172-0.667-0.326-1.34-0.467-2.019   c-0.009-0.043-0.02-0.085-0.029-0.127c-0.134-0.656-0.25-1.318-0.356-1.984c-0.011-0.068-0.025-0.134-0.035-0.203   c-0.097-0.631-0.174-1.268-0.243-1.907c-0.012-0.105-0.028-0.21-0.039-0.316c-0.061-0.603-0.102-1.211-0.139-1.821   c-0.009-0.142-0.024-0.283-0.031-0.425c-0.038-0.747-0.057-1.498-0.057-2.253c0-24.447,19.889-44.337,44.335-44.337   s44.335,19.89,44.335,44.337c0,0.756-0.019,1.507-0.057,2.254c-0.006,0.138-0.023,0.274-0.03,0.411   c-0.037,0.615-0.078,1.227-0.14,1.834c-0.011,0.105-0.027,0.21-0.039,0.315c-0.07,0.639-0.147,1.276-0.243,1.908   c-0.01,0.066-0.024,0.129-0.033,0.194c-0.105,0.67-0.222,1.336-0.358,1.996c-0.006,0.031-0.015,0.062-0.021,0.095   c-0.143,0.691-0.301,1.376-0.476,2.055c-0.003,0.011-0.006,0.023-0.01,0.033C435.423,359.128,418.049,373.273,397.434,373.273z    M483.226,268.485c-10.762,0-19.517-8.755-19.517-19.518c0-5.818,2.557-11.207,6.875-14.868c0.404,0.285,0.811,0.565,1.208,0.859   c0.082,0.061,0.165,0.12,0.247,0.182c3.014,2.264,5.807,4.805,8.339,7.587c0.029,0.032,0.057,0.066,0.087,0.098   c0.582,0.642,1.15,1.298,1.703,1.966c0.082,0.099,0.162,0.198,0.243,0.297c0.504,0.615,0.994,1.239,1.473,1.874   c0.091,0.121,0.184,0.243,0.275,0.365c0.476,0.64,0.939,1.292,1.389,1.952c0.072,0.106,0.147,0.211,0.218,0.316   c1.045,1.552,2.022,3.155,2.92,4.806c0.009,0.016,0.017,0.033,0.026,0.049c0.418,0.77,0.817,1.552,1.201,2.342   c0.106,0.218,0.205,0.439,0.309,0.659c0.281,0.597,0.555,1.198,0.818,1.806c0.119,0.278,0.235,0.558,0.351,0.838   c0.233,0.563,0.457,1.131,0.673,1.703c0.113,0.301,0.227,0.601,0.335,0.904c0.206,0.576,0.402,1.157,0.591,1.742   c0.095,0.294,0.194,0.587,0.285,0.882c0.033,0.106,0.059,0.215,0.091,0.321C490.338,267.496,486.852,268.485,483.226,268.485z"/>
</g>
<g>
</g>
<g>
</g>
<g>
</g>
<g>
</g>
<g>
</g>
<g>
</g>
<g>
</g>
<g>
</g>
<g>
</g>
<g>
</g>
<g>
</g>
<g>
</g>
<g>
</g>
<g>
</g>
<g>
</g>
</svg>
