<?xml version="1.0" encoding="iso-8859-1"?>
<!-- Generator: Adobe Illustrator 19.0.0, SVG Export Plug-In . SVG Version: 6.00 Build 0)  -->
<svg xmlns="http://www.w3.org/2000/svg" xmlns:xlink="http://www.w3.org/1999/xlink" version="1.1" id="Layer_1" x="0px" y="0px" viewBox="0 0 512 512" style="enable-background:new 0 0 512 512;" xml:space="preserve">
<path style="fill:#FF5357;" d="M417.228,215.113h-19.156h-26.146c-31.295-50.771-87.391-84.625-151.41-84.625  c-0.736,0-1.467,0.02-2.201,0.028c-1.299-0.026-2.602-0.048-3.907-0.048c-92.615,0-169.21,68.557-181.825,157.69  c5.498,1.74,9.487,6.884,9.487,12.958v35.177c0,4.542-2.236,8.552-5.658,11.019c2.23,1.611,4.96,2.572,7.923,2.572h2.999h16.492  c-2.766-6.387-4.307-13.428-4.307-20.83c0-28.984,23.496-52.479,52.475-52.479c28.985,0,52.48,23.496,52.48,52.479  c0,7.402-1.543,14.443-4.307,20.83h189.732c-2.766-6.387-4.307-13.428-4.307-20.83c0-28.28,22.373-51.324,50.381-52.426  c0.696-0.031,1.391-0.053,2.095-0.053c28.984,0,52.477,23.496,52.477,52.479c0,0.922-0.025,1.838-0.071,2.748  c-0.004,0.071-0.013,0.138-0.015,0.207c-0.353,6.323-1.824,12.344-4.218,17.874h44.093c7.508,0,13.592-6.085,13.592-13.591v-34.477  C503.929,253.932,465.112,215.113,417.228,215.113z"/>
<path style="fill:#97D3EE;" d="M186.11,215.113h147.82c-26.623-33.219-67.532-54.497-113.414-54.497  c-45.886,0-86.792,21.278-113.416,54.497h51.205"/>
<path style="fill:#5BC5EF;" d="M226.609,160.616c-1.354,0-2.703,0.022-4.048,0.059c-0.349,0.01-0.696,0.026-1.046,0.039  c-1.03,0.034-2.059,0.076-3.082,0.133c-0.325,0.018-0.649,0.04-0.973,0.06c-1.108,0.069-2.214,0.147-3.314,0.241  c-0.194,0.016-0.384,0.032-0.578,0.05c-35.5,3.16-67.317,19.1-90.845,43.175c-1.649,1.851-2.109,4.486-1.143,6.787  c1.007,2.396,3.352,3.955,5.952,3.955h17.081h13.33h6.457h27.806h6.457h27.948L226.609,160.616L226.609,160.616z"/>
<path style="fill:#E6E9ED;" d="M42.071,336.293c0,7.506-6.084,13.591-13.592,13.591h-6.816c-7.508,0-13.592-6.085-13.592-13.591  v-35.177c0-7.507,6.084-13.592,13.592-13.592h6.816c7.508,0,13.592,6.085,13.592,13.592V336.293z"/>
<path style="fill:#ACBCCC;" d="M26.147,336.293v-35.177c0-5.704,3.518-10.58,8.5-12.597c-1.574-0.637-3.29-0.995-5.092-0.995h-6.816  c-7.508,0-13.592,6.085-13.592,13.592v35.177c0,7.506,6.084,13.591,13.592,13.591h6.816c1.804,0,3.519-0.358,5.092-0.995  C29.664,346.872,26.147,341.997,26.147,336.293z"/>
<path style="fill:#ED3A47;" d="M63.83,349.573c1.742-1.275,3.171-2.961,4.16-4.913c-1.538-4.93-2.374-10.168-2.374-15.605  c0-7.003,1.383-13.679,3.872-19.788v-6.601c0-0.738-0.061-1.462-0.17-2.171c0,0-0.462-10.49-8.399-16.826  c13.912-81.129,79.443-144.252,160.984-153.185c-0.467-0.005-0.932-0.018-1.4-0.018c-92.618,0-169.21,68.557-181.825,157.69  c5.497,1.74,9.487,6.884,9.487,12.958v35.177c0,4.542-2.235,8.552-5.657,11.019c2.23,1.611,4.96,2.572,7.921,2.572h3.001h10.86  C64.138,349.781,63.979,349.682,63.83,349.573z"/>
<g>
	<path style="fill:#5B5E5E;" d="M164.477,329.054c0,28.981-23.496,52.477-52.48,52.477c-28.979,0-52.475-23.496-52.475-52.477   c0-28.984,23.496-52.479,52.475-52.479C140.982,276.576,164.477,300.072,164.477,329.054z"/>
	<circle style="fill:#5B5E5E;" cx="398.07" cy="329.06" r="52.477"/>
</g>
<g>
	<circle style="fill:#E6E9ED;" cx="112" cy="329.06" r="18.024"/>
	<circle style="fill:#E6E9ED;" cx="398.07" cy="329.06" r="18.025"/>
</g>
<path style="fill:#F7A539;" d="M464.551,229.181c-8.451,5.744-14.002,15.432-14.002,26.419c0,17.632,14.294,31.924,31.924,31.924  c7.112,0,13.678-2.327,18.986-6.259C496.178,259.553,482.733,241.052,464.551,229.181z"/>
<g>
	<circle style="fill:#E6E9ED;" cx="112" cy="329.06" r="18.024"/>
	<circle style="fill:#E6E9ED;" cx="398.07" cy="329.06" r="18.025"/>
</g>
<path style="fill:#E23740;" d="M291.389,311.03H161.297c2.055,5.62,3.18,11.692,3.18,18.025c0,7.576-1.621,14.768-4.508,21.274  h190.134c-2.888-6.506-4.507-13.698-4.507-21.274c0-6.333,1.122-12.404,3.178-18.025h-29.578"/>
<path style="fill:#F48F2A;" d="M478.166,255.6c0-6.136,1.734-11.864,4.733-16.729c-3.781-3.58-7.876-6.832-12.256-9.69  c-8.449,5.744-14,15.432-14,26.419c0,17.632,14.292,31.924,31.923,31.924c3.771,0,7.38-0.67,10.738-1.871  C486.983,281.23,478.166,269.447,478.166,255.6z"/>
<g>
	<path style="fill:#464949;" d="M89.291,329.054c0-25.294,17.897-46.405,41.714-51.37c-3.475-0.724-7.072-1.108-10.761-1.108   c-28.979,0-52.475,23.496-52.475,52.479c0,28.982,23.496,52.477,52.475,52.477c3.689,0,7.286-0.384,10.761-1.108   C107.187,375.457,89.291,354.347,89.291,329.054z"/>
	<path style="fill:#464949;" d="M375.365,329.054c0-25.294,17.897-46.405,41.714-51.37c-3.474-0.724-7.072-1.108-10.761-1.108   c-28.979,0-52.475,23.496-52.475,52.479c0,28.982,23.496,52.477,52.475,52.477c3.689,0,7.287-0.384,10.761-1.108   C393.261,375.457,375.365,354.347,375.365,329.054z"/>
</g>
<path style="fill:#CE2939;" d="M356.197,350.329c-2.707-6.099-4.282-12.807-4.468-19.863H320.08H170.534  c-0.188,7.056-1.763,13.763-4.469,19.863H356.197z"/>
<g>
	<path style="fill:#231F20;" d="M220.516,152.545c-46.782,0-90.415,20.965-119.715,57.521c-1.941,2.421-2.321,5.742-0.978,8.541   c1.344,2.798,4.173,4.578,7.277,4.578h51.205c4.458,0,8.071-3.612,8.071-8.071s-3.612-8.071-8.071-8.071h-32.95   c23.527-22.71,54.221-36.207,87.091-38.113v38.113H186.11c-4.458,0-8.071,3.612-8.071,8.071s3.612,8.071,8.071,8.071h147.82   c3.103,0,5.933-1.78,7.275-4.578c1.344-2.799,0.964-6.119-0.977-8.541C310.932,173.511,267.298,152.545,220.516,152.545z    M228.587,207.042v-38.113c32.869,1.906,63.564,15.402,87.09,38.113H228.587z"/>
	<path style="fill:#231F20;" d="M111.998,302.959c-14.387,0-26.093,11.707-26.093,26.095s11.706,26.094,26.093,26.094   c14.389,0,26.095-11.706,26.095-26.094S126.387,302.959,111.998,302.959z M111.998,339.007c-5.488,0-9.952-4.465-9.952-9.953   c0-5.489,4.464-9.954,9.952-9.954c5.489,0,9.954,4.465,9.954,9.954C121.952,334.542,117.487,339.007,111.998,339.007z"/>
	<path style="fill:#231F20;" d="M398.072,302.959c-14.388,0-26.095,11.707-26.095,26.095s11.707,26.094,26.095,26.094   c14.389,0,26.095-11.706,26.095-26.094S412.461,302.959,398.072,302.959z M398.072,339.007c-5.489,0-9.954-4.465-9.954-9.953   c0-5.489,4.465-9.954,9.954-9.954s9.954,4.465,9.954,9.954C408.026,334.542,403.561,339.007,398.072,339.007z"/>
	<path style="fill:#231F20;" d="M508.136,275.017c-0.004-0.015-0.009-0.029-0.013-0.044c-0.399-1.348-0.825-2.686-1.282-4.008   c-0.074-0.217-0.153-0.433-0.229-0.649c-0.393-1.112-0.801-2.217-1.233-3.309c-0.188-0.477-0.386-0.949-0.582-1.423   c-0.238-0.574-0.482-1.143-0.732-1.71c-0.448-1.028-0.915-2.046-1.398-3.054c-0.02-0.043-0.041-0.085-0.061-0.128   c-6.542-13.601-16.272-25.468-28.522-34.652c-0.082-0.061-0.162-0.125-0.245-0.186c-0.805-0.599-1.621-1.186-2.447-1.762   c-0.501-0.35-1.004-0.697-1.512-1.038c-0.309-0.207-0.605-0.426-0.916-0.63c-0.076-0.051-0.16-0.084-0.238-0.131   c-14.836-9.641-32.523-15.249-51.497-15.249h-40.861c-16.155-24.822-38.156-45.607-63.873-60.289   c-27.883-15.92-59.689-24.335-91.978-24.335c-0.512,0-1.022,0.009-1.532,0.017l-0.647,0.011c-1.306-0.026-2.617-0.047-3.929-0.047   c-46.475,0-91.303,16.84-126.23,47.418c-32.656,28.591-54.601,67.288-62.35,109.638h-4.167C9.717,279.454,0,289.172,0,301.116   v35.176c0,11.945,9.717,21.662,21.663,21.662h6.816c2.798,0,5.464-0.551,7.921-1.521c2.509,0.996,5.187,1.521,7.937,1.521h14.469   c10.276,18.837,30.265,31.647,53.19,31.647c22.745,0,42.593-12.611,52.94-31.203h180.199   c10.347,18.592,30.192,31.203,52.936,31.203c22.927,0,42.917-12.81,53.193-31.647h39.072c11.946,0,21.663-9.717,21.663-21.662   v-34.477C512,292.511,510.646,283.518,508.136,275.017z M464.971,239.397c12.491,9.577,22.031,22.808,27.015,38.086   c-2.974,1.297-6.192,1.969-9.515,1.969c-13.153,0-23.853-10.7-23.853-23.853C458.62,249.526,460.931,243.763,464.971,239.397z    M16.141,336.293v-35.175c0-3.044,2.477-5.521,5.521-5.521h6.816c0.695,0,1.354,0.143,1.966,0.379   c0.103,0.04,0.207,0.08,0.307,0.125c0.243,0.111,0.478,0.237,0.701,0.381c0.047,0.03,0.098,0.056,0.144,0.087   c0.562,0.386,1.049,0.874,1.436,1.436c0.025,0.036,0.045,0.074,0.069,0.111c0.154,0.237,0.288,0.487,0.406,0.747   c0.034,0.077,0.068,0.157,0.099,0.236c0.093,0.235,0.166,0.478,0.226,0.727c0.022,0.089,0.048,0.178,0.066,0.269   c0.062,0.332,0.103,0.674,0.103,1.024v35.175c0,0.349-0.041,0.687-0.103,1.017c-0.01,0.051-0.016,0.101-0.027,0.151   c-0.068,0.315-0.165,0.62-0.284,0.914c-0.022,0.052-0.045,0.101-0.068,0.152c-0.129,0.291-0.277,0.57-0.452,0.831   c-0.023,0.034-0.052,0.065-0.075,0.098c-0.145,0.207-0.309,0.397-0.48,0.581c-0.082,0.087-0.161,0.174-0.25,0.256   c-0.99,0.936-2.317,1.521-3.784,1.521h-6.816C18.619,341.813,16.141,339.337,16.141,336.293z M111.996,373.46   c-19.105,0-35.429-12.129-41.681-29.091c-0.009-0.023-0.018-0.045-0.027-0.068c-0.238-0.649-0.459-1.305-0.667-1.968   c-0.011-0.032-0.023-0.065-0.032-0.098c-0.212-0.679-0.407-1.366-0.585-2.059c-0.003-0.014-0.009-0.028-0.012-0.043   c-0.181-0.701-0.344-1.409-0.491-2.122c-0.001-0.008-0.003-0.015-0.005-0.023c-0.142-0.692-0.266-1.39-0.374-2.094   c-0.005-0.032-0.012-0.065-0.017-0.097c-0.101-0.663-0.184-1.331-0.255-2.003c-0.008-0.075-0.02-0.15-0.028-0.226   c-0.063-0.622-0.107-1.25-0.143-1.88c-0.008-0.126-0.022-0.25-0.028-0.376c-0.038-0.749-0.057-1.503-0.057-2.262   c0-24.487,19.92-44.408,44.404-44.408c20.644,0,38.042,14.158,42.995,33.274c0.016,0.061,0.03,0.124,0.045,0.185   c0.155,0.607,0.296,1.22,0.425,1.837c0.031,0.151,0.06,0.302,0.09,0.454c0.105,0.531,0.201,1.065,0.287,1.602   c0.031,0.198,0.062,0.395,0.091,0.593c0.073,0.5,0.136,1.004,0.193,1.509c0.024,0.218,0.051,0.436,0.071,0.654   c0.049,0.51,0.086,1.023,0.117,1.538c0.013,0.204,0.03,0.409,0.04,0.614c0.034,0.711,0.055,1.427,0.055,2.147   c0,0.769-0.02,1.536-0.059,2.299c-0.019,0.372-0.056,0.74-0.085,1.111c-0.029,0.386-0.051,0.775-0.09,1.16   c-0.042,0.409-0.102,0.812-0.155,1.219c-0.045,0.343-0.082,0.689-0.135,1.031c-0.059,0.384-0.136,0.762-0.204,1.143   c-0.067,0.364-0.126,0.73-0.201,1.091c-0.07,0.339-0.155,0.673-0.234,1.008c-0.095,0.404-0.184,0.808-0.289,1.211   c-0.076,0.292-0.165,0.578-0.246,0.866c-0.127,0.444-0.252,0.888-0.393,1.329c-0.082,0.256-0.172,0.509-0.259,0.763   c-0.158,0.464-0.317,0.928-0.491,1.387c-0.094,0.249-0.195,0.495-0.293,0.741c-0.178,0.447-0.359,0.892-0.552,1.334   C145.867,362.452,130.196,373.46,111.996,373.46z M398.072,373.46c-18.214,0-33.896-11.028-40.737-26.753   c-0.173-0.4-0.337-0.803-0.498-1.205c-0.116-0.289-0.234-0.578-0.343-0.87c-0.154-0.409-0.295-0.822-0.437-1.234   c-0.104-0.305-0.212-0.607-0.31-0.915c-0.123-0.383-0.23-0.771-0.342-1.157c-0.099-0.343-0.202-0.683-0.293-1.03   c-0.09-0.343-0.167-0.691-0.249-1.036c-0.093-0.391-0.189-0.779-0.271-1.173c-0.063-0.305-0.113-0.611-0.169-0.918   c-0.079-0.423-0.161-0.845-0.227-1.271c-0.002-0.014-0.005-0.027-0.008-0.041c-0.044-0.286-0.074-0.574-0.112-0.861   c-0.054-0.399-0.11-0.797-0.153-1.2c-0.006-0.065-0.017-0.129-0.024-0.194c-0.034-0.34-0.053-0.683-0.08-1.024   c-0.024-0.295-0.051-0.59-0.068-0.886c-0.008-0.119-0.02-0.238-0.026-0.358c-0.039-0.757-0.059-1.516-0.059-2.279   c0-0.721,0.02-1.437,0.055-2.149c0.01-0.2,0.027-0.399,0.039-0.599c0.032-0.523,0.069-1.044,0.119-1.561   c0.019-0.208,0.045-0.414,0.068-0.621c0.058-0.522,0.123-1.042,0.199-1.558c0.026-0.179,0.054-0.357,0.083-0.536   c0.09-0.566,0.19-1.129,0.302-1.687c0.024-0.122,0.047-0.243,0.072-0.364c0.139-0.663,0.289-1.323,0.456-1.974   c0.004-0.015,0.008-0.031,0.011-0.046c3.835-14.853,15.183-26.717,29.729-31.283c0.046-0.014,0.091-0.029,0.138-0.044   c0.529-0.165,1.065-0.312,1.603-0.456c0.239-0.063,0.477-0.13,0.718-0.19c0.35-0.088,0.704-0.165,1.058-0.244   c0.416-0.093,0.833-0.186,1.254-0.267c0.19-0.038,0.383-0.068,0.574-0.103c0.569-0.102,1.141-0.199,1.717-0.28   c0.063-0.009,0.127-0.015,0.19-0.024c1.41-0.19,2.841-0.319,4.291-0.376c0.574-0.026,1.148-0.044,1.729-0.044   c24.486,0,44.406,19.922,44.406,44.408c0,0.76-0.019,1.514-0.057,2.264c-0.002,0.025-0.003,0.049-0.005,0.074   c-0.02,0.395-0.059,0.786-0.089,1.177c-0.049,0.635-0.113,1.267-0.189,1.896c-0.046,0.38-0.089,0.762-0.145,1.139   c-0.045,0.305-0.101,0.607-0.153,0.91c-0.068,0.397-0.134,0.795-0.213,1.189c-0.055,0.277-0.116,0.552-0.176,0.829   c-0.093,0.424-0.188,0.846-0.293,1.265c-0.06,0.243-0.125,0.486-0.189,0.729c-0.123,0.458-0.252,0.915-0.39,1.368   c-0.06,0.201-0.122,0.402-0.185,0.604c-0.163,0.511-0.335,1.018-0.515,1.521c-0.049,0.139-0.098,0.279-0.149,0.418   c-0.229,0.619-0.47,1.232-0.725,1.837c-0.009,0.02-0.016,0.041-0.025,0.061C432.223,362.26,416.432,373.46,398.072,373.46z    M495.859,336.293c0,3.044-2.477,5.52-5.521,5.52h-33.071c0.022-0.099,0.038-0.199,0.058-0.298c0.065-0.308,0.121-0.62,0.181-0.93   c0.112-0.58,0.217-1.161,0.312-1.744c0.06-0.369,0.118-0.739,0.171-1.111c0.081-0.563,0.151-1.127,0.216-1.693   c0.041-0.355,0.087-0.709,0.123-1.066c0.081-0.825,0.146-1.654,0.193-2.486c0.006-0.093,0.015-0.206,0.018-0.273   c0-0.003,0-0.006,0-0.01c0.054-1.043,0.082-2.092,0.082-3.149c0-33.387-27.161-60.55-60.548-60.55   c-0.828,0-1.643,0.024-2.413,0.059c-0.022,0.001-0.042,0.003-0.064,0.004c-0.871,0.036-1.735,0.094-2.594,0.166   c-0.168,0.014-0.337,0.023-0.504,0.039c-0.73,0.067-1.453,0.154-2.174,0.246c-0.323,0.041-0.646,0.077-0.966,0.124   c-0.531,0.077-1.056,0.168-1.582,0.258c-0.532,0.09-1.062,0.181-1.589,0.284c-0.296,0.059-0.589,0.125-0.884,0.188   c-0.772,0.165-1.54,0.339-2.3,0.532c-0.041,0.011-0.082,0.023-0.123,0.032c-17.557,4.493-31.912,16.567-39.497,32.523h-24.189   c-4.458,0-8.071,3.612-8.071,8.071s3.612,8.071,8.071,8.071h19.144c-0.015,0.089-0.025,0.181-0.039,0.271   c-0.082,0.515-0.156,1.035-0.225,1.555c-0.059,0.44-0.113,0.882-0.163,1.325c-0.047,0.428-0.094,0.855-0.132,1.286   c-0.052,0.571-0.09,1.145-0.126,1.719c-0.011,0.183-0.03,0.364-0.04,0.547c-0.002,0.049-0.009,0.099-0.011,0.148   c-0.005,0.103-0.005,0.209-0.011,0.313c-0.042,0.928-0.068,1.857-0.068,2.79c0,1.06,0.029,2.112,0.083,3.159   c0.002,0.045,0.004,0.09,0.006,0.137c0.017,0.325,0.054,0.648,0.076,0.973c0.008,0.107,0.017,0.213,0.025,0.319   c0.042,0.563,0.075,1.128,0.133,1.685c0.01,0.099,0.019,0.197,0.03,0.295c0.04,0.368,0.099,0.733,0.146,1.101   c0.013,0.104,0.028,0.21,0.042,0.314c0.06,0.455,0.111,0.914,0.181,1.366c0.024,0.156,0.047,0.311,0.073,0.467   c0.06,0.368,0.139,0.732,0.206,1.098c0.012,0.068,0.025,0.134,0.038,0.201c0.08,0.426,0.151,0.854,0.239,1.277   c0.026,0.123,0.043,0.246,0.069,0.368H171.199c0.025-0.115,0.041-0.234,0.066-0.349c0.095-0.454,0.172-0.914,0.257-1.371   c0.008-0.043,0.016-0.086,0.025-0.13c0.067-0.365,0.145-0.727,0.206-1.094c0.025-0.154,0.048-0.307,0.072-0.461   c0.073-0.468,0.126-0.942,0.187-1.413c0.012-0.093,0.025-0.185,0.037-0.278c0.046-0.366,0.105-0.73,0.145-1.097   c0.011-0.098,0.02-0.196,0.03-0.293c0.058-0.564,0.093-1.135,0.135-1.705c0.008-0.099,0.016-0.197,0.024-0.296   c0.023-0.327,0.06-0.651,0.077-0.979c0.002-0.045,0.004-0.09,0.006-0.136c0.054-1.047,0.083-2.099,0.083-3.159   c0-0.957-0.028-1.909-0.072-2.859c-0.013-0.287-0.036-0.571-0.053-0.858c-0.041-0.675-0.09-1.348-0.154-2.02   c-0.029-0.308-0.061-0.614-0.095-0.92c-0.074-0.68-0.161-1.358-0.259-2.035c-0.037-0.257-0.071-0.515-0.112-0.772   c-0.026-0.163-0.044-0.327-0.071-0.49h119.657c4.458,0,8.071-3.612,8.071-8.071s-3.612-8.071-8.071-8.071H166.627   c-9.766-20.36-30.582-34.454-54.631-34.454c-33.384,0-60.546,27.162-60.546,60.55c0,1.06,0.029,2.112,0.083,3.159   c0.025,0.481,0.073,0.959,0.11,1.438c0.042,0.559,0.075,1.12,0.132,1.674c0.059,0.579,0.144,1.154,0.221,1.729   c0.059,0.448,0.109,0.899,0.179,1.344c0.093,0.597,0.209,1.19,0.32,1.784c0.079,0.42,0.149,0.842,0.236,1.258   c0.026,0.124,0.043,0.249,0.07,0.371h-3.38c0.06-0.226,0.105-0.455,0.158-0.683c0.048-0.213,0.105-0.422,0.147-0.637   c0.114-0.574,0.198-1.155,0.266-1.739c0.02-0.178,0.037-0.355,0.053-0.534c0.058-0.639,0.098-1.281,0.098-1.927v-35.175   c0-0.684-0.041-1.36-0.103-2.031c-0.009-0.096-0.015-0.193-0.026-0.288c-0.07-0.662-0.171-1.315-0.3-1.96   c-0.012-0.059-0.025-0.117-0.037-0.176c-1.081-5.202-4.017-9.782-8.227-12.913c14.523-83.172,87.899-145.21,172.959-145.21   c1.25,0,2.499,0.022,3.744,0.046c0.085,0.002,0.169,0.004,0.255,0.001l0.854-0.013c0.418-0.008,0.834-0.015,1.254-0.015   c59.324,0,113.358,30.201,144.539,80.789c1.47,2.384,4.07,3.835,6.871,3.835h45.302c12.106,0,23.578,2.755,33.833,7.663   c-5.491,6.966-8.582,15.65-8.582,24.753c0,22.052,17.942,39.994,39.994,39.994c4.464,0,8.815-0.731,12.937-2.139   c0.292,2.748,0.449,5.535,0.449,8.36v34.477H495.859z"/>
</g>
<g>
</g>
<g>
</g>
<g>
</g>
<g>
</g>
<g>
</g>
<g>
</g>
<g>
</g>
<g>
</g>
<g>
</g>
<g>
</g>
<g>
</g>
<g>
</g>
<g>
</g>
<g>
</g>
<g>
</g>
</svg>
