<?xml version="1.0" encoding="iso-8859-1"?>
<!-- Generator: Adobe Illustrator 19.0.0, SVG Export Plug-In . SVG Version: 6.00 Build 0)  -->
<svg xmlns="http://www.w3.org/2000/svg" xmlns:xlink="http://www.w3.org/1999/xlink" version="1.1" id="Layer_1" x="0px" y="0px" viewBox="0 0 512 512" style="enable-background:new 0 0 512 512;" xml:space="preserve">
<path style="fill:#4ABF69;" d="M473.372,229.761h-87.515l-81.074-70.238c-12.576-10.887-26.98-11.846-30.526-11.911H132.961  c-14.417,0-23.593,6.45-26.654,8.998l-1.139,1.013l-0.009,0.009l-89.761,79.895C6.046,244.576,0,255.774,0,268.389v59.295  c0,21.333,17.293,38.626,38.626,38.626h5.324v-0.002h156.255v0.002h27.725h90.361v-0.002h156.255v-0.026  C495.334,365.66,512,348.624,512,327.684v-59.295C512,247.052,494.707,229.761,473.372,229.761z"/>
<path style="fill:#2C9B46;" d="M22.261,334.363v-59.295c0-12.615,6.046-23.814,15.398-30.861l106.917-96.593h-11.615  c-14.417,0-23.593,6.45-26.654,8.998l-1.139,1.013l-0.009,0.009l-89.761,79.895C6.046,244.576,0,255.774,0,268.389v59.295  c0,21.333,17.293,38.626,38.626,38.626h0.55C28.967,359.359,22.261,347.646,22.261,334.363z"/>
<path style="fill:#FF5357;" d="M21.626,303.072c10.004,0,18.114-8.111,18.114-18.113c0-10.004-8.109-18.115-18.114-18.115H0v9.333  v26.896h21.626V303.072z"/>
<path style="fill:#ED3A47;" d="M22.261,303.039v-27.972c0-2.798,0.313-5.52,0.878-8.147c-0.5-0.041-1.002-0.076-1.513-0.076H0.046  C0.026,267.357,0,267.869,0,268.389v7.787v26.896h21.626C21.841,303.072,22.049,303.047,22.261,303.039z"/>
<path style="fill:#F7A539;" d="M480.354,295.285c-10.002,0-18.113-8.109-18.113-18.113c0-10.004,8.111-18.113,18.113-18.113h30.504  c0.741,2.987,1.141,6.113,1.141,9.331v26.896h-31.645V295.285z"/>
<path style="fill:#ED6529;" d="M484.894,277.171c0-10.004,8.111-18.113,18.113-18.113h-22.654c-10.002,0-18.113,8.109-18.113,18.113  c0,10.004,8.111,18.113,18.113,18.113h22.654C493.006,295.285,484.894,287.176,484.894,277.171z"/>
<path style="fill:#97D3EE;" d="M39.049,105.561V79.557c0-6.624-5.37-11.995-11.996-11.995s-11.996,5.372-11.996,11.995v158.185  l23.994-21.315v-83.04"/>
<path style="fill:#5BC5EF;" d="M27.053,79.557c0-4.437,2.415-8.302,5.998-10.378c-1.765-1.022-3.81-1.617-5.998-1.617  c-6.626,0-11.996,5.372-11.996,11.995v158.185l11.996-10.657V79.557z"/>
<path style="fill:#97D3EE;" d="M304.782,159.524c-12.576-10.887-26.98-11.846-30.526-11.911h-77.437v82.148h113.84h29.315h45.882  L304.782,159.524z"/>
<path style="fill:#30A54C;" d="M256,275.191h-36.08c-4.611,0-8.348-3.736-8.348-8.348c0-4.611,3.736-8.348,8.348-8.348H256  c4.611,0,8.348,3.736,8.348,8.348S260.611,275.191,256,275.191z"/>
<path style="fill:#5BC5EF;" d="M166.704,147.613l-41.894,39.6c-2.158,2.076-12.65,12.681-12.65,22.666v11.13v0.116  c0.011,1.012,0.406,8.636,9.916,8.636h78.127v-82.148H166.704z"/>
<g>
	<path style="fill:#5B5E5E;" d="M474.545,366.308c0,43.153-34.978,78.13-78.129,78.13c-43.146,0-78.125-34.978-78.125-78.13   c0-43.15,34.98-78.126,78.125-78.126C439.566,288.182,474.545,323.159,474.545,366.308z"/>
	<path style="fill:#5B5E5E;" d="M200.204,366.308c0,43.153-34.979,78.13-78.129,78.13c-43.146,0-78.125-34.978-78.125-78.13   c0-43.15,34.98-78.126,78.125-78.126C165.226,288.182,200.204,323.159,200.204,366.308z"/>
</g>
<g>
	<path style="fill:#464949;" d="M339.995,366.308c0-39.465,29.266-72.074,67.272-77.359c-3.548-0.493-7.167-0.767-10.852-0.767   c-43.146,0-78.125,34.976-78.125,78.126c0,43.153,34.98,78.13,78.125,78.13c3.685,0,7.305-0.274,10.852-0.767   C369.261,438.387,339.995,405.776,339.995,366.308z"/>
	<path style="fill:#464949;" d="M65.654,366.308c0-39.465,29.266-72.074,67.273-77.359c-3.551-0.493-7.168-0.767-10.853-0.767   c-43.146,0-78.125,34.976-78.125,78.126c0,43.153,34.98,78.13,78.125,78.13c3.685,0,7.303-0.274,10.853-0.767   C94.92,438.387,65.654,405.776,65.654,366.308z"/>
</g>
<g>
	<path style="fill:#E6E9ED;" d="M157.336,366.306c0,19.474-15.787,35.263-35.261,35.263c-19.47,0-35.258-15.789-35.258-35.263   c0-19.474,15.787-35.252,35.259-35.252C141.55,331.055,157.336,346.832,157.336,366.306z"/>
	<path style="fill:#E6E9ED;" d="M431.677,366.306c0,19.474-15.787,35.263-35.261,35.263c-19.473,0-35.259-15.79-35.259-35.263   s15.786-35.252,35.259-35.252C415.89,331.055,431.677,346.832,431.677,366.306z"/>
</g>
<g>
	<path style="fill:#CCD4DD;" d="M108.706,366.306c0-15.653,10.202-28.909,24.316-33.512c-3.447-1.125-7.123-1.74-10.946-1.74   c-19.472,0-35.259,15.777-35.259,35.251s15.787,35.263,35.259,35.263c3.822,0,7.499-0.617,10.946-1.742   C118.909,395.222,108.706,381.959,108.706,366.306z"/>
	<path style="fill:#CCD4DD;" d="M383.048,366.306c0-15.653,10.201-28.909,24.313-33.512c-3.446-1.125-7.121-1.74-10.945-1.74   c-19.473,0-35.259,15.779-35.259,35.252c0,19.474,15.786,35.263,35.259,35.263c3.823,0,7.499-0.617,10.945-1.742   C393.249,395.222,383.048,381.959,383.048,366.306z"/>
</g>
<g>
	<circle style="fill:#6E7070;" cx="396.422" cy="366.314" r="9.916"/>
	<circle style="fill:#6E7070;" cx="122.079" cy="366.314" r="9.916"/>
</g>
<g>
</g>
<g>
</g>
<g>
</g>
<g>
</g>
<g>
</g>
<g>
</g>
<g>
</g>
<g>
</g>
<g>
</g>
<g>
</g>
<g>
</g>
<g>
</g>
<g>
</g>
<g>
</g>
<g>
</g>
</svg>
