<?xml version="1.0" encoding="iso-8859-1"?>
<!-- Generator: Adobe Illustrator 19.0.0, SVG Export Plug-In . SVG Version: 6.00 Build 0)  -->
<svg xmlns="http://www.w3.org/2000/svg" xmlns:xlink="http://www.w3.org/1999/xlink" version="1.1" id="Layer_1" x="0px" y="0px" viewBox="0 0 512.001 512.001" style="enable-background:new 0 0 512.001 512.001;" xml:space="preserve">
<path style="fill:#4ABF69;" d="M228.41,345.508h119.189c-2.103-5.567-3.263-11.597-3.263-17.898  c0-27.991,22.689-50.677,50.676-50.677c27.99,0,50.678,22.686,50.678,50.677c0,6.302-1.16,12.331-3.263,17.898h24.08  c20.661,0,37.408-16.747,37.408-37.406v-57.424c0-20.662-16.747-37.408-37.408-37.408h-84.752l-78.514-68.017  c-12.177-10.542-26.128-11.473-29.56-11.537H155.197h-18.351H77.335c-26.303,0-36.893,18.31-36.911,18.345l-24.414,46.213l0,0  c0,0-7.925,14.731-7.925,33.57v18.837v12.844v44.58c0,20.659,16.749,37.406,37.406,37.406h32.763  c-2.103-5.567-3.263-11.597-3.263-17.898c0-27.991,22.689-50.677,50.676-50.677c27.99,0,50.678,22.686,50.678,50.677  c0,6.302-1.16,12.331-3.261,17.898h28.381"/>
<path style="fill:#35AF52;" d="M35.697,310.132v-44.58v-12.844v-18.837c0-18.838,7.925-33.569,7.925-33.569l24.414-46.213  c0.019-0.033,10.609-18.344,36.911-18.344H83.389c-26.303,0-36.893,18.31-36.911,18.344l-24.414,46.213  c0,0-7.925,14.731-7.925,33.569v18.837v12.844v44.58c0,20.659,16.749,37.406,37.405,37.406h21.558  C52.446,347.539,35.697,330.791,35.697,310.132z"/>
<path style="fill:#97D3EE;" d="M338.897,213.268h42.859l-78.514-68.017c-12.177-10.542-26.128-11.473-29.56-11.537H155.197h-18.351  H94.291l-40.83,79.555H311.23"/>
<polygon style="fill:#6CC6E4;" points="125.875,213.268 227.147,213.268 227.147,133.714 155.409,133.714 137.056,133.714   125.875,133.714 "/>
<path style="fill:#52B2CC;" d="M94.501,133.714l-32.666,63.648l0,0c0,0-0.002,0.002-0.002,0.003l-0.813,1.582  c-1.89,4.021-5.549,14.323,6.598,14.323h58.257v-79.555H94.501V133.714z"/>
<g>
	<circle style="fill:#5B5E5E;" cx="125.661" cy="327.605" r="50.683"/>
	<circle style="fill:#5B5E5E;" cx="395.016" cy="327.605" r="50.683"/>
</g>
<g>
	<circle style="fill:#E6E9ED;" cx="125.661" cy="327.605" r="17.408"/>
	<circle style="fill:#E6E9ED;" cx="395.016" cy="327.605" r="17.408"/>
</g>
<path style="fill:#FF5357;" d="M38.729,282.927c9.688,0,17.543-7.855,17.543-17.542c0-9.689-7.855-17.543-17.543-17.543H8.084v9.038  v26.046H38.729z"/>
<polygon style="fill:#ED242E;" points="35.697,282.927 35.697,265.552 35.697,252.708 35.697,247.843 14.139,247.843   14.139,252.708 14.139,265.552 14.139,282.927 "/>
<path style="fill:#97D3EE;" d="M473.269,276.725c-9.686,0-17.538-7.854-17.538-17.542c0-9.688,7.852-17.541,17.538-17.541h29.541  c0.718,2.893,1.105,5.92,1.105,9.036v26.047h-30.646V276.725z"/>
<g>
	<path style="fill:#424444;" d="M102.215,328.686c0-24.449,17.311-44.847,40.341-49.62c-3.337-0.691-6.793-1.057-10.335-1.057   c-27.988,0-50.676,22.686-50.676,50.677c0,27.989,22.689,50.678,50.676,50.678c3.542,0,6.998-0.366,10.335-1.057   C119.526,373.533,102.215,353.132,102.215,328.686z"/>
	<path style="fill:#424444;" d="M371.92,328.686c0-24.449,17.311-44.847,40.341-49.62c-3.337-0.691-6.793-1.057-10.335-1.057   c-27.988,0-50.676,22.686-50.676,50.677c0,27.989,22.689,50.678,50.676,50.678c3.542,0,6.998-0.366,10.335-1.057   C389.231,373.533,371.92,353.132,371.92,328.686z"/>
</g>
<path style="fill:#6CC6E4;" d="M485.299,259.182c0-9.688,7.852-17.541,17.538-17.541H481.28c-9.686,0-17.538,7.852-17.538,17.541  s7.852,17.542,17.538,17.542h21.558C493.152,276.725,485.299,268.871,485.299,259.182z"/>
<g>
	<path style="fill:#231F20;" d="M272.33,257.266c4.466,0,8.084-3.62,8.084-8.084c0-4.465-3.618-8.084-8.084-8.084h-24.499   c-4.466,0-8.084,3.62-8.084,8.084c0,4.465,3.618,8.084,8.084,8.084H272.33z"/>
	<path style="fill:#231F20;" d="M151.143,241.098c-4.466,0-8.084,3.62-8.084,8.084c0,4.465,3.618,8.084,8.084,8.084h24.499   c4.466,0,8.084-3.62,8.084-8.084c0-4.465-3.618-8.084-8.084-8.084H151.143z"/>
	<path style="fill:#231F20;" d="M511.921,248.079c-0.013-0.23-0.036-0.459-0.053-0.689c-0.046-0.65-0.103-1.296-0.178-1.937   c-0.028-0.246-0.061-0.489-0.094-0.734c-0.085-0.645-0.183-1.285-0.294-1.921c-0.039-0.223-0.077-0.445-0.12-0.667   c-0.135-0.704-0.286-1.401-0.453-2.093c-0.027-0.114-0.046-0.23-0.074-0.344c-0.004-0.017-0.012-0.031-0.016-0.049   c-4.944-19.771-22.852-34.461-44.133-34.461H384.77l-76.237-66.046c-2.641-2.286-5.351-4.188-8.041-5.768   c-11.655-6.847-22.939-7.67-26.66-7.739c-0.051-0.001-0.101-0.001-0.152-0.001H94.291H77.336c-30.964,0-43.832,22.24-43.958,22.465   c-0.034,0.061-0.068,0.124-0.102,0.186L8.889,194.441C8.526,195.116,0,211.202,0,231.841v16.002v35.084v25.174   c0,25.084,20.408,45.49,45.49,45.49h27.49c9.607,19.402,29.61,32.779,52.685,32.779c23.077,0,43.079-13.377,52.686-32.779h23.111   c4.466,0,8.084-3.62,8.084-8.084s-3.618-8.084-8.084-8.084h-17.855c0.027-0.162,0.046-0.326,0.072-0.488   c0.054-0.335,0.101-0.673,0.149-1.009c0.083-0.583,0.157-1.166,0.223-1.752c0.038-0.338,0.074-0.678,0.107-1.019   c0.058-0.624,0.105-1.25,0.143-1.877c0.018-0.296,0.042-0.593,0.056-0.89c0.043-0.924,0.07-1.85,0.07-2.78   c0-32.402-26.361-58.761-58.762-58.761c-32.4,0-58.76,26.36-58.76,58.761c0,0.929,0.027,1.856,0.07,2.78   c0.014,0.298,0.038,0.592,0.056,0.888c0.039,0.628,0.085,1.256,0.143,1.881c0.032,0.34,0.069,0.678,0.107,1.015   c0.066,0.585,0.14,1.169,0.223,1.753c0.049,0.337,0.095,0.674,0.149,1.009c0.026,0.163,0.044,0.326,0.072,0.488H45.49   c-16.168,0-29.322-13.154-29.322-29.322v-17.091h22.56c14.13,0,25.627-11.496,25.627-25.625c0-14.131-11.497-25.627-25.627-25.627   h-22.56v-7.918c0-16.424,6.901-29.629,6.988-29.793l24.298-45.992c0.907-1.431,9.601-14.257,29.88-14.257h3.72l-34.786,67.779   c-1.286,2.506-1.175,5.502,0.293,7.904c1.468,2.404,4.082,3.871,6.899,3.871h257.769c4.466,0,8.084-3.62,8.084-8.084   c0-4.465-3.618-8.084-8.084-8.084H236.24v-63.387h37.359c1.053,0.024,3.847,0.178,7.49,1.043c0.053,0.013,0.101,0.022,0.154,0.034   c0.362,0.087,0.743,0.193,1.121,0.295c0.177,0.047,0.345,0.087,0.525,0.138c0.257,0.073,0.526,0.163,0.788,0.244   c0.316,0.096,0.625,0.185,0.949,0.292c0.096,0.031,0.196,0.072,0.292,0.105c4.073,1.387,8.7,3.661,13.031,7.411l62.129,53.824   h-21.181c-4.466,0-8.084,3.62-8.084,8.084c0,4.465,3.618,8.084,8.084,8.084h42.859h84.752c9.783,0,18.456,4.819,23.786,12.204   H473.27c-14.128,0-25.623,11.496-25.623,25.625c0,14.13,11.495,25.626,25.623,25.626h22.561v23.292   c0,16.168-13.155,29.322-29.324,29.322h-13.552c0.027-0.163,0.045-0.326,0.072-0.488c0.054-0.335,0.1-0.672,0.149-1.008   c0.083-0.584,0.158-1.168,0.224-1.755c0.038-0.337,0.074-0.676,0.107-1.015c0.059-0.625,0.105-1.252,0.143-1.881   c0.018-0.296,0.042-0.591,0.056-0.888c0.043-0.924,0.07-1.851,0.07-2.78c0-32.401-26.361-58.761-58.763-58.761   c-32.4,0-58.76,26.36-58.76,58.761c0,0.929,0.027,1.856,0.07,2.78c0.014,0.298,0.038,0.592,0.056,0.888   c0.039,0.628,0.085,1.256,0.143,1.881c0.032,0.34,0.069,0.678,0.107,1.015c0.066,0.586,0.14,1.171,0.223,1.754   c0.047,0.336,0.095,0.672,0.149,1.006c0.026,0.163,0.045,0.327,0.072,0.489H228.411c-4.466,0-8.084,3.62-8.084,8.084   c0,4.465,3.618,8.084,8.084,8.084h113.917c9.607,19.402,29.61,32.779,52.685,32.779c23.077,0,43.079-13.377,52.686-32.779h18.808   c25.084,0,45.493-20.407,45.493-45.49V276.72v-26.047C512,249.805,511.97,248.939,511.921,248.079z M125.665,285.016   c23.486,0,42.594,19.107,42.594,42.593c0,0.694-0.019,1.384-0.053,2.071c-0.011,0.224-0.031,0.446-0.045,0.669   c-0.029,0.462-0.061,0.925-0.106,1.384c-0.026,0.262-0.058,0.523-0.088,0.785c-0.048,0.417-0.099,0.834-0.158,1.247   c-0.04,0.275-0.085,0.548-0.13,0.821c-0.066,0.399-0.136,0.795-0.213,1.19c-0.054,0.275-0.11,0.55-0.169,0.824   c-0.084,0.392-0.175,0.781-0.271,1.168c-0.066,0.268-0.133,0.536-0.204,0.803c-0.107,0.4-0.221,0.796-0.338,1.19   c-0.072,0.245-0.143,0.489-0.221,0.732c-0.142,0.446-0.294,0.887-0.449,1.327c-0.064,0.18-0.124,0.361-0.191,0.541   c-6.015,16.236-21.655,27.84-39.956,27.84c-18.283,0-33.909-11.583-39.936-27.795c-0.088-0.238-0.168-0.479-0.252-0.718   c-0.136-0.386-0.269-0.772-0.395-1.162c-0.087-0.273-0.167-0.548-0.248-0.821c-0.11-0.37-0.217-0.741-0.317-1.113   c-0.075-0.281-0.146-0.564-0.215-0.847c-0.092-0.376-0.18-0.752-0.262-1.133c-0.06-0.281-0.119-0.563-0.174-0.845   c-0.077-0.391-0.146-0.784-0.211-1.178c-0.045-0.275-0.091-0.549-0.13-0.824c-0.06-0.415-0.111-0.832-0.16-1.251   c-0.03-0.26-0.063-0.52-0.088-0.78c-0.044-0.46-0.077-0.924-0.106-1.387c-0.014-0.222-0.034-0.444-0.045-0.666   c-0.033-0.687-0.053-1.376-0.053-2.072C83.073,304.123,102.18,285.016,125.665,285.016z M38.729,255.927   c5.216,0,9.459,4.244,9.459,9.459s-4.244,9.456-9.459,9.456h-22.56v-18.916h22.56V255.927z M99.229,141.799h21.113v63.387H66.697   L99.229,141.799z M220.072,205.184H136.51v-63.387h83.562V205.184z M395.013,370.202c-18.282,0-33.907-11.581-39.935-27.791   c-0.089-0.243-0.172-0.487-0.258-0.731c-0.134-0.382-0.266-0.763-0.389-1.149c-0.088-0.276-0.169-0.555-0.252-0.832   c-0.109-0.365-0.215-0.732-0.314-1.102c-0.075-0.283-0.147-0.569-0.217-0.855c-0.092-0.373-0.179-0.749-0.261-1.125   c-0.061-0.283-0.12-0.567-0.175-0.85c-0.075-0.389-0.144-0.779-0.21-1.172c-0.045-0.276-0.092-0.552-0.132-0.83   c-0.06-0.414-0.111-0.83-0.158-1.247c-0.03-0.261-0.063-0.521-0.088-0.783c-0.044-0.46-0.077-0.923-0.106-1.387   c-0.014-0.222-0.034-0.444-0.045-0.666c-0.033-0.687-0.053-1.376-0.053-2.072c0-23.486,19.107-42.593,42.592-42.593   c23.486,0,42.594,19.107,42.594,42.593c0,0.695-0.019,1.385-0.053,2.072c-0.011,0.223-0.03,0.444-0.045,0.666   c-0.03,0.465-0.061,0.927-0.106,1.387c-0.025,0.262-0.058,0.522-0.088,0.783c-0.049,0.417-0.099,0.833-0.158,1.247   c-0.04,0.276-0.086,0.551-0.132,0.826c-0.066,0.395-0.135,0.788-0.211,1.179c-0.055,0.281-0.112,0.562-0.174,0.841   c-0.082,0.382-0.17,0.76-0.263,1.137c-0.069,0.281-0.139,0.564-0.213,0.844c-0.1,0.375-0.208,0.746-0.318,1.117   c-0.081,0.273-0.161,0.545-0.247,0.817c-0.125,0.393-0.26,0.781-0.397,1.169c-0.083,0.237-0.163,0.475-0.25,0.711   C428.926,358.619,413.298,370.202,395.013,370.202z M473.269,268.641c-5.214,0-9.454-4.243-9.454-9.457   c0-5.215,4.242-9.456,9.454-9.456h22.538c0.01,0.317,0.024,0.633,0.024,0.952v17.963h-22.561V268.641z"/>
	<path style="fill:#231F20;" d="M125.665,353.098c14.056,0,25.49-11.434,25.49-25.489c0-14.056-11.434-25.49-25.49-25.49   s-25.49,11.434-25.49,25.49C100.175,341.664,111.61,353.098,125.665,353.098z M125.665,318.287c5.14,0,9.322,4.182,9.322,9.322   s-4.182,9.321-9.322,9.321s-9.322-4.181-9.322-9.321S120.525,318.287,125.665,318.287z"/>
	<path style="fill:#231F20;" d="M395.013,302.118c-14.056,0-25.49,11.434-25.49,25.49c0,14.055,11.434,25.489,25.49,25.489   s25.49-11.434,25.49-25.489C420.503,313.554,409.069,302.118,395.013,302.118z M395.013,336.93c-5.141,0-9.322-4.181-9.322-9.321   c0-5.141,4.182-9.322,9.322-9.322s9.322,4.182,9.322,9.322C404.334,332.749,400.152,336.93,395.013,336.93z"/>
</g>
<g>
</g>
<g>
</g>
<g>
</g>
<g>
</g>
<g>
</g>
<g>
</g>
<g>
</g>
<g>
</g>
<g>
</g>
<g>
</g>
<g>
</g>
<g>
</g>
<g>
</g>
<g>
</g>
<g>
</g>
</svg>
