<svg id="Capa_1" enable-background="new 0 0 512 512" height="512" viewBox="0 0 512 512" width="512" xmlns="http://www.w3.org/2000/svg"><g><path d="m441.205 174.459c-4.267 0-7.726 3.459-7.726 7.726v237.846c0 15.822-12.872 28.693-28.693 28.693s-28.693-12.871-28.693-28.693v-4.855c0-24.342-19.803-44.146-44.145-44.146h-17.396c-4.267 0-7.726 3.459-7.726 7.726s3.459 7.726 7.726 7.726h17.396c15.821 0 28.693 12.871 28.693 28.693v4.855c0 24.342 19.803 44.146 44.145 44.146s44.145-19.804 44.145-44.146v-237.845c0-4.267-3.459-7.726-7.726-7.726z" fill="#665e68"/><g><path d="m330.859 479.479v-413.707c0-36.174-29.597-65.772-65.772-65.772h-156.569c-36.175 0-65.773 29.598-65.773 65.772v413.707z" fill="#43cb8e"/></g><path d="m144.574 0h-36.056c-36.175 0-65.773 29.598-65.773 65.772v413.707h36.056v-413.707c.001-36.174 29.598-65.772 65.773-65.772z" fill="#00ba66"/><path d="m263.637 32.374h-153.669c-19.246 0-34.848 15.602-34.848 34.848v87.487h223.366v-87.487c0-19.246-15.603-34.848-34.849-34.848z" fill="#665e68"/><path d="m142.186 32.374h-32.218c-19.246 0-34.848 15.602-34.848 34.848v87.487h32.218v-87.487c0-19.246 15.602-34.848 34.848-34.848z" fill="#554e56"/><path d="m225.839 335.297h-26.343c-1.584 0-2.805-1.398-2.591-2.968l7.446-54.6c.368-2.698-3.118-4.091-4.711-1.883l-52.59 72.903c-1.248 1.729-.012 4.144 2.12 4.144h26.343c1.584 0 2.805 1.398 2.591 2.968l-7.446 54.6c-.368 2.698 3.118 4.091 4.711 1.883l52.59-72.903c1.248-1.729.013-4.144-2.12-4.144z" fill="#ffd301"/><g fill="#ffc20c"><path d="m166.624 348.749 34.58-47.936 3.148-23.084c.368-2.698-3.118-4.091-4.711-1.883l-52.59 72.902c-1.248 1.729-.012 4.144 2.12 4.144h19.573c-2.132.001-3.368-2.414-2.12-4.143z"/><path d="m197.678 355.861c.214-1.57-1.006-2.968-2.591-2.968h-19.573c1.585 0 2.805 1.398 2.591 2.968l-7.446 54.599c-.368 2.698 3.118 4.091 4.711 1.883l18.01-24.967z"/></g><g><path d="m425.779 155.526v17.991c0 6.468 5.292 11.76 11.76 11.76h7.331c6.468 0 11.76-5.292 11.76-11.76v-17.991z" fill="#ff656f"/></g><g><path d="m484.698 81.911c1.761 0 3.344.744 4.465 1.931v-42.946c0-6.468-5.292-11.76-11.76-11.76h-7.332c-6.468 0-11.76 5.292-11.76 11.76v41.015z" fill="#dfebfa"/></g><g><path d="m397.711 81.911h26.386v-41.015c0-6.468-5.292-11.76-11.76-11.76h-7.331c-6.468 0-11.76 5.292-11.76 11.76v42.946c1.121-1.186 2.705-1.931 4.465-1.931z" fill="#dfebfa"/></g><path d="m475.419 41.518c0-4.926 2.922-9.191 7.113-11.181-1.554-.76-3.29-1.2-5.129-1.2h-7.332c-6.468 0-11.76 5.292-11.76 11.76v41.015h17.107v-40.394z" fill="#b1dbfc"/><path d="m410.354 41.518c0-4.926 2.922-9.191 7.113-11.181-1.554-.76-3.29-1.2-5.129-1.2h-7.331c-6.468 0-11.76 5.292-11.76 11.76v42.946c1.12-1.186 2.704-1.931 4.465-1.931h12.642z" fill="#b1dbfc"/><path d="m343.546 476.389h-313.487c-4.917 0-8.903 3.986-8.903 8.903v17.805c0 4.917 3.986 8.903 8.903 8.903h313.487c4.917 0 8.903-3.986 8.903-8.903v-17.805c0-4.917-3.986-8.903-8.903-8.903z" fill="#dfebfa"/><path d="m57.212 503.097v-17.805c0-4.917 3.986-8.903 8.903-8.903h-36.056c-4.917 0-8.903 3.986-8.903 8.903v17.805c0 4.917 3.986 8.903 8.903 8.903h36.056c-4.917 0-8.903-3.986-8.903-8.903z" fill="#b1dbfc"/><path d="m264.505 59.895h-155.405c-2.795 0-5.061 2.266-5.061 5.061v55.11c0 2.795 2.266 5.061 5.061 5.061h155.404c2.795 0 5.061-2.266 5.061-5.061v-55.11c.001-2.795-2.265-5.061-5.06-5.061z" fill="#23a8fe"/><path d="m139.556 120.066v-55.11c0-2.795 2.266-5.061 5.061-5.061h-35.517c-2.795 0-5.061 2.266-5.061 5.061v55.11c0 2.795 2.266 5.061 5.061 5.061h35.517c-2.795 0-5.061-2.266-5.061-5.061z" fill="#0193fa"/><path d="m484.698 77.791h-86.987c-3.395 0-6.147 2.752-6.147 6.147v48.34c0 15.053 12.316 27.369 27.37 27.369h44.541c15.053 0 27.369-12.316 27.369-27.369v-48.34c.001-3.395-2.751-6.147-6.146-6.147z" fill="#ff4756"/><path d="m424.097 132.277v-48.34c0-3.395 2.752-6.147 6.147-6.147h-32.533c-3.395 0-6.147 2.752-6.147 6.147v48.34c0 15.053 12.316 27.369 27.369 27.369h32.533c-15.053 0-27.369-12.316-27.369-27.369z" fill="#fc2d39"/><g><path d="m449.758 114.563h-17.108c-4.267 0-7.726-3.459-7.726-7.726 0-4.268 3.459-7.726 7.726-7.726h17.108c4.267 0 7.726 3.459 7.726 7.726.001 4.268-3.458 7.726-7.726 7.726z" fill="#ff656f"/></g><path d="m170.744 152.649v64.748h123.259c2.476 0 4.483-2.007 4.483-4.483v-60.265z" fill="#ffd301"/><path d="m170.744 152.649h34.951v64.748h-34.951z" fill="#ffc20c"/><path d="m107.338 152.649h32.218v32.374h-32.218z" fill="#b1dbfc"/><g fill="#dfebfa"><path d="m139.556 152.649h32.218v32.374h-32.218z"/><path d="m75.12 152.649h32.218v32.374h-32.218z"/><rect height="32.374" width="0" x="107.338" y="152.649"/></g><path d="m75.12 185.023v27.89c0 2.476 2.007 4.483 4.483 4.483h27.735v-32.374h-32.218z" fill="#b1dbfc"/><path d="m107.338 185.023v32.374h32.218v-32.374z" fill="#dfebfa"/><path d="m139.556 185.023h32.218v32.374h-32.218z" fill="#b1dbfc"/><rect fill="#dfebfa" height="0" width="32.218" x="75.12" y="185.023"/><rect fill="#dfebfa" height="0" width="0" x="107.338" y="185.023"/><g><path d="m263.5 192.749h-60.791c-4.267 0-7.726-3.459-7.726-7.726 0-4.268 3.459-7.726 7.726-7.726h60.791c4.267 0 7.726 3.459 7.726 7.726.001 4.268-3.459 7.726-7.726 7.726z" fill="#dfebfa"/></g></g></svg>