<svg id="Capa_1" enable-background="new 0 0 511.999 511.999" height="512" viewBox="0 0 511.999 511.999" width="512" xmlns="http://www.w3.org/2000/svg"><g><g><path d="m434.573 103.837h-30.163c-8.076 0-14.683 6.608-14.683 14.684v26.571c0-8.076 6.608-14.684 14.683-14.684h30.163z" fill="#665e68"/><g><path d="m344.062 473.205v-452.861c0-6.914-5.656-12.57-12.57-12.57h-254.533c-6.914 0-12.57 5.657-12.57 12.57v452.861z" fill="#ff4756"/></g><path d="m111.96 7.774h-35c-6.914 0-12.57 5.657-12.57 12.57v452.861h35v-452.861c-.001-6.913 5.656-12.57 12.57-12.57z" fill="#fc2d39"/><path d="m312.637 157.95v-114.399c0-2.403-1.948-4.352-4.352-4.352h-208.118c-2.403 0-4.352 1.948-4.352 4.352v114.399z" fill="#665e68"/><path d="m131.44 39.199h-31.274c-2.403 0-4.352 1.948-4.352 4.352v114.399h31.274v-114.399c.001-2.403 1.949-4.352 4.352-4.352z" fill="#554e56"/><path d="m240.985 319.417-33.891-45.442c-1.431-1.919-4.306-1.919-5.737 0l-33.891 45.442c-22.558 30.246-.972 73.272 36.759 73.272 37.732 0 59.317-43.026 36.76-73.272z" fill="#ffd301"/><path d="m200.818 319.417 20.083-26.928-13.807-18.513c-1.431-1.919-4.306-1.919-5.737 0l-33.891 45.442c-22.558 30.246-.972 73.272 36.759 73.272 6.006 0 11.601-1.094 16.676-3.049-26.806-10.33-39.05-44.793-20.083-70.224z" fill="#ffc20c"/><path d="m356.377 470.205h-304.303c-4.773 0-8.643 3.869-8.643 8.643v17.283c0 4.773 3.869 8.643 8.643 8.643h304.303c4.773 0 8.642-3.869 8.642-8.643v-17.283c0-4.773-3.869-8.643-8.642-8.643z" fill="#dfebfa"/><path d="m78.432 496.131v-17.283c0-4.773 3.869-8.642 8.643-8.642h-35c-4.773 0-8.643 3.869-8.643 8.642v17.283c0 4.773 3.869 8.642 8.643 8.642h35c-4.774 0-8.643-3.869-8.643-8.642z" fill="#b1dbfc"/><path d="m279.651 65.914h-150.851c-2.713 0-4.913 2.2-4.913 4.913v53.495c0 2.713 2.2 4.913 4.913 4.913h150.851c2.713 0 4.913-2.2 4.913-4.913v-53.495c0-2.713-2.199-4.913-4.913-4.913z" fill="#23a8fe"/><path d="m158.363 124.322v-53.495c0-2.713 2.199-4.913 4.913-4.913h-34.476c-2.713 0-4.913 2.2-4.913 4.913v53.495c0 2.713 2.199 4.913 4.913 4.913h34.476c-2.713 0-4.913-2.199-4.913-4.913z" fill="#0193fa"/><path d="m455.221 75.345h-8.313c-7.334 0-13.334 6-13.334 13.334v101.812c0 7.334 6 13.334 13.334 13.334h8.313c7.334 0 13.334-6 13.334-13.334v-101.812c0-7.334-6-13.334-13.334-13.334z" fill="#ffd301"/><path d="m453.907 190.491v-101.812c0-5.173 2.991-9.671 7.324-11.879-1.81-.923-3.849-1.455-6.01-1.455h-8.313c-7.334 0-13.334 6-13.334 13.334v101.812c0 7.334 6 13.334 13.334 13.334h8.313c2.161 0 4.2-.532 6.01-1.455-4.333-2.208-7.324-6.706-7.324-11.879z" fill="#ffc20c"/><path d="m188.637 155.951v62.851h119.648c2.404 0 4.352-1.948 4.352-4.352v-58.499z" fill="#ffd301"/><path d="m188.637 155.951h34.476v62.851h-34.476z" fill="#ffc20c"/><path d="m127.089 155.951h31.274v31.426h-31.274z" fill="#b1dbfc"/><g fill="#dfebfa"><path d="m158.363 155.951h31.274v31.426h-31.274z"/><path d="m95.815 155.951h31.274v31.426h-31.274z"/><rect height="31.426" width="0" x="127.089" y="155.951"/></g><path d="m95.815 187.377v27.073c0 2.403 1.948 4.352 4.352 4.352h26.922v-31.425z" fill="#b1dbfc"/><path d="m127.089 187.376v.001 31.425h31.274v-31.426z" fill="#dfebfa"/><path d="m158.363 187.376h31.274v31.426h-31.274z" fill="#b1dbfc"/><rect fill="#dfebfa" height="0" width="31.274" x="95.815" y="187.376"/><rect fill="#dfebfa" height="0" width="0" x="127.089" y="187.376"/></g><g fill="#050402"><path d="m320.142 214.176c0-17.252 0-154.704 0-170.898 0-6.535-5.316-11.852-11.852-11.852h-208.118c-6.535 0-11.852 5.316-11.852 11.852v170.898c0 6.535 5.316 11.852 11.852 11.852h208.118c6.536-.001 11.852-5.317 11.852-11.852zm-216.821-167.75h201.821v101.751c-28.26 0-173.631 0-201.821 0zm78.822 133.176h-16.273v-16.425h16.273zm-78.822-16.425h16.274v16.425h-16.274zm31.274 0h16.274v16.425h-16.274zm-31.274 31.425h16.274v16.426h-16.274zm31.274 0h16.274v16.426h-16.274zm31.275 16.425v-16.426h16.273v16.426zm139.272 0h-107.999c0-15.223 0-32.627 0-47.851h107.999z"/><path d="m219.672 194.602h59.01c4.143 0 7.5-3.357 7.5-7.5s-3.357-7.5-7.5-7.5h-59.01c-4.143 0-7.5 3.357-7.5 7.5s3.358 7.5 7.5 7.5z"/><path d="m279.658 136.461c6.844 0 12.412-5.568 12.412-12.412v-53.495c0-6.845-5.568-12.413-12.412-12.413h-150.852c-6.845 0-12.413 5.568-12.413 12.413v53.495c0 6.844 5.568 12.412 12.413 12.412zm-148.265-63.32h145.677v48.32h-145.677z"/><path d="m195.351 269.218-33.891 45.441c-26.235 35.175-1.101 85.256 42.771 85.256 43.881 0 69-50.09 42.771-85.255l-33.892-45.445c-4.396-5.891-13.304-5.969-17.759.003zm8.881 115.697c-31.502 0-49.707-35.865-30.748-61.288l30.747-41.227 30.748 41.227v.001c18.833 25.251.969 61.287-30.747 61.287z"/><path d="m415.829 458.077c23.629 0 42.852-19.224 42.852-42.852v-204.484c9.847-1.653 17.381-10.214 17.381-20.523v-101.813c0-11.488-9.346-20.834-20.834-20.834h-.624l-15.231-18.44c-11.268-13.643-17.479-25.375-37.141-30.979-3.977-1.131-8.133 1.174-9.269 5.157s1.174 8.133 5.157 9.269c14.499 4.133 18.273 12.282 29.687 26.106l9.353 11.324c-6.584 3.505-11.08 10.432-11.08 18.397v7.658h-21.663c-12.232 0-22.184 9.951-22.184 22.184v58.326c0 12.232 9.951 22.184 22.184 22.184h23.514c2.842 6.293 8.714 10.914 15.75 12.018v204.451c0 15.357-12.494 27.852-27.852 27.852s-27.853-12.494-27.853-27.852v-4.714c0-21.438-15.825-39.249-36.408-42.366v-53.246c0-4.143-3.357-7.5-7.5-7.5s-7.5 3.357-7.5 7.5v147.531h-264.673v-442.361c0-2.748 2.322-5.07 5.07-5.07h254.532c2.748 0 5.07 2.322 5.07 5.07v259.83c0 4.143 3.357 7.5 7.5 7.5s7.5-3.357 7.5-7.5v-259.83c0-11.066-9.004-20.07-20.07-20.07h-254.532c-11.066 0-20.07 9.004-20.07 20.07v442.361h-4.814c-8.901 0-16.143 7.241-16.143 16.143v17.283c0 8.9 7.241 16.142 16.143 16.142h134.651c4.143 0 7.5-3.357 7.5-7.5s-3.357-7.5-7.5-7.5h-134.651c-.63 0-1.143-.512-1.143-1.142v-17.283c0-.63.513-1.143 1.143-1.143h12.314 279.673 12.315c.63 0 1.142.513 1.142 1.143v17.283c0 .63-.512 1.142-1.142 1.142h-134.651c-4.143 0-7.5 3.357-7.5 7.5s3.357 7.5 7.5 7.5h134.651c8.9 0 16.142-7.241 16.142-16.142v-17.283c0-8.901-7.241-16.143-16.142-16.143h-4.815v-79.011c12.26 2.916 21.408 13.952 21.408 27.091v4.714c0 23.629 19.224 42.852 42.853 42.852zm-18.596-339.83c0-3.961 3.223-7.184 7.184-7.184h21.663v11.57h-21.663c-2.513 0-4.93.42-7.184 1.193zm0 58.326v-31.756c0-3.961 3.223-7.184 7.184-7.184h21.663v16.548l-3.236-2.02c-3.513-2.193-8.14-1.121-10.333 2.392-2.193 3.515-1.122 8.141 2.392 10.333l11.178 6.975v11.895h-21.663c-3.962.001-7.185-3.222-7.185-7.183zm43.881 14.266c-.003-.058 0-.116-.005-.175-.012-.148-.028-.296-.029-.446 0-33.978 0-67.863 0-101.813 0-3.217 2.617-5.834 5.834-5.834h8.313c3.217 0 5.834 2.617 5.834 5.834v101.813c0 3.217-2.617 5.834-5.834 5.834h-8.313c-3.007 0-5.489-2.288-5.8-5.213z"/></g></g></svg>