<?xml version="1.0" encoding="UTF-8" standalone="no"?>
<!-- Created with Inkscape (http://www.inkscape.org/) -->

<svg
   version="1.1"
   id="svg4143"
   xml:space="preserve"
   width="682.66669"
   height="682.66669"
   viewBox="0 0 682.66669 682.66669"
   xmlns="http://www.w3.org/2000/svg"
   xmlns:svg="http://www.w3.org/2000/svg"><defs
     id="defs4147"><clipPath
       clipPathUnits="userSpaceOnUse"
       id="clipPath4157"><path
         d="M 0,512 H 512 V 0 H 0 Z"
         id="path4155" /></clipPath></defs><g
     id="g4149"
     transform="matrix(1.3333333,0,0,-1.3333333,0,682.66667)"><g
       id="g4151"><g
         id="g4153"
         clip-path="url(#clipPath4157)"><g
           id="g4159"
           transform="translate(43.5645,10)"><path
             d="M 0,0 V 464.5 H 424.871 V 0 c 0,-5.522 -4.477,-10 -10,-10 H 10 C 4.478,-10 0,-5.522 0,0"
             style="fill:#eaf6ff;fill-opacity:1;fill-rule:nonzero;stroke:none"
             id="path4161" /></g><g
           id="g4163"
           transform="translate(438.4355,474.5)"><path
             d="m 0,0 v -464.5 c 0,-5.523 -4.478,-10 -10,-10 h 30 c 5.522,0 10,4.477 10,10 V 0 Z"
             style="fill:#d8ecfe;fill-opacity:1;fill-rule:nonzero;stroke:none"
             id="path4165" /></g><g
           id="g4167"
           transform="translate(184.8848,183.9619)"><path
             d="m 0,0 v 96.743 c 0,2.845 -1.722,5.407 -4.356,6.482 l -35.442,14.454 c -9.901,4.038 -16.768,13.208 -17.856,23.845 l -6.247,61.052 c -0.85,8.31 4.676,15.933 12.839,17.708 8.936,1.945 17.738,-3.791 19.569,-12.751 l 9.582,-46.875 c 0.449,-2.201 2.091,-3.967 4.254,-4.575 l 40.249,-11.317 c 6.379,-1.793 12.707,3.001 12.707,9.627 v 15.039 h 49.72 v -15.494 c 0,-7.698 4.686,-14.62 11.834,-17.479 l 35.094,-14.037 c 14.295,-5.718 23.668,-19.563 23.668,-34.959 V -15.881 h -35.298 z"
             style="fill:#f58a97;fill-opacity:1;fill-rule:nonzero;stroke:none"
             id="path4169" /></g><g
           id="g4171"
           transform="translate(340.5,168.0811)"><path
             d="m 0,0 v 103.344 c 0,15.395 -9.373,29.241 -23.668,34.959 l -35.095,14.038 c -7.147,2.858 -11.834,9.781 -11.834,17.478 v 15.493 h -21.84 v -30.493 c 0,-7.697 4.687,-14.62 11.834,-17.478 l 35.095,-14.038 c 14.294,-5.718 23.668,-19.564 23.668,-34.959 L -21.84,0 Z"
             style="fill:#f07281;fill-opacity:1;fill-rule:nonzero;stroke:none"
             id="path4173" /></g><g
           id="g4175"
           transform="translate(245.043,296.6797)"><path
             d="M 0,0 C 16.053,0 29.675,10.367 34.563,24.768 28.634,28.053 24.86,34.32 24.86,41.221 V 56.714 H -24.859 V 41.675 c 0,-6.147 -5.446,-10.706 -11.326,-9.904 C -33.863,13.848 -18.554,0 0,0"
             style="fill:#ffcebf;fill-opacity:1;fill-rule:nonzero;stroke:none"
             id="path4177" /></g><g
           id="g4179"
           transform="translate(279.6055,321.4473)"><path
             d="m 0,0 h -0.001 c -4.78,2.68 -9.93,8.896 -9.701,16.452 v 10e-4 15.493 h -21.84 V 1.453 c 0,-7.697 4.687,-14.62 11.834,-17.478 l 5.807,-2.324 C -7.486,-13.931 -2.552,-7.518 0,0"
             style="fill:#ffb09e;fill-opacity:1;fill-rule:nonzero;stroke:none"
             id="path4181" /></g><g
           id="g4183"
           transform="translate(340.5,157.4912)"><path
             d="M 0,0 V 10.59 H -35.299 V 0 c 0,-9.747 7.903,-17.649 17.65,-17.649 C -7.901,-17.649 0,-9.747 0,0"
             style="fill:#ffcebf;fill-opacity:1;fill-rule:nonzero;stroke:none"
             id="path4185" /></g><g
           id="g4187"
           transform="translate(318.6602,168.0811)"><path
             d="m 0,0 v -27.718 c 1.346,-0.328 2.744,-0.521 4.19,-0.521 9.748,0 17.65,7.902 17.65,17.649 V 0 Z"
             style="fill:#ffb09e;fill-opacity:1;fill-rule:nonzero;stroke:none"
             id="path4189" /></g><g
           id="g4191"
           transform="translate(245.043,340.0225)"><path
             d="m 0,0 v 0 c -22.143,0 -40.092,17.949 -40.092,40.092 v 40.853 c 0,12.996 10.535,23.533 23.532,23.533 h 33.121 c 12.996,0 23.532,-10.537 23.532,-23.533 V 40.092 C 40.093,17.949 22.143,0 0,0"
             style="fill:#ffcebf;fill-opacity:1;fill-rule:nonzero;stroke:none"
             id="path4193" /></g><g
           id="g4195"
           transform="translate(261.6035,444.5)"><path
             d="m 0,0 h -30 c 12.996,0 23.532,-10.535 23.532,-23.532 v -40.853 c 0.211,-1.856 1.326,-13.369 -7.03,-22.678 -10.821,-12.052 -27.205,-8.916 -27.922,-8.765 3.389,-2.628 9.121,-6.282 16.968,-7.867 2.909,-0.588 5.579,-0.785 7.891,-0.783 22.143,0 40.093,17.951 40.093,40.093 v 40.853 C 23.532,-10.535 12.996,0 0,0"
             style="fill:#ffb09e;fill-opacity:1;fill-rule:nonzero;stroke:none"
             id="path4197" /></g><g
           id="g4199"
           transform="translate(285.1357,403.5566)"><path
             d="m 0,0 v 17.411 c 0,12.997 -10.536,23.532 -23.532,23.532 h -33.12 c -12.997,0 -23.533,-10.535 -23.533,-23.532 V 0.003 l 0.003,-0.006 40.884,12.007 c 4.646,1.365 9.623,1.044 14.054,-0.905 L -0.003,-0.003 Z"
             style="fill:#355f7f;fill-opacity:1;fill-rule:nonzero;stroke:none"
             id="path4201" /></g><g
           id="g4203"
           transform="translate(261.6035,444.5)"><path
             d="m 0,0 h -30 c 12.996,0 23.532,-10.535 23.532,-23.532 v -4.892 c 1.626,-0.281 3.225,-0.747 4.756,-1.421 l 25.241,-11.101 0.003,0.003 v 17.411 C 23.532,-10.535 12.996,0 0,0"
             style="fill:#305972;fill-opacity:1;fill-rule:nonzero;stroke:none"
             id="path4205" /></g><g
           id="g4207"
           transform="translate(291.2334,21.7119)"><path
             d="m 0,0 h -92.38 l -14.166,135.978 0.197,26.272 H 13.969 l 0.196,-26.272 z"
             style="fill:#82aee3;fill-opacity:1;fill-rule:nonzero;stroke:none"
             id="path4209" /></g><g
           id="g4211"
           transform="translate(305.2012,183.9619)"><path
             d="m 0,0 h -20.867 l 0.197,-26.272 -14.166,-135.977 h 20.868 L 0.197,-26.272 Z"
             style="fill:#528fd8;fill-opacity:1;fill-rule:nonzero;stroke:none"
             id="path4213" /></g><g
           id="g4215"
           transform="translate(297.9922,7.5)"><path
             d="m 0,0 h -45.339 c -4.202,0 -7.607,3.406 -7.607,7.607 0,11.497 9.319,20.818 20.816,20.818 h 18.921 C -1.712,28.425 7.608,19.104 7.608,7.607 7.608,3.406 4.202,0 0,0"
             style="fill:#554e56;fill-opacity:1;fill-rule:nonzero;stroke:none"
             id="path4217" /></g><g
           id="g4219"
           transform="translate(284.7832,35.9248)"><path
             d="m 0,0 h -18.921 c -1.921,0 -3.772,-0.282 -5.539,-0.769 8.803,-2.428 15.276,-10.472 15.276,-20.048 0,-4.202 -3.405,-7.608 -7.607,-7.608 h 30 c 4.202,0 7.607,3.406 7.607,7.608 C 20.816,-9.32 11.497,0 0,0"
             style="fill:#433f43;fill-opacity:1;fill-rule:nonzero;stroke:none"
             id="path4221" /></g><g
           id="g4223"
           transform="translate(237.4385,7.5)"><path
             d="m 0,0 h -45.34 c -4.201,0 -7.607,3.406 -7.607,7.607 0,11.497 9.32,20.818 20.816,20.818 H -13.21 C -1.713,28.425 7.607,19.104 7.607,7.607 7.607,3.406 4.201,0 0,0"
             style="fill:#554e56;fill-opacity:1;fill-rule:nonzero;stroke:none"
             id="path4225" /></g><g
           id="g4227"
           transform="translate(224.2266,35.9248)"><path
             d="m 0,0 h -18.921 c -1.921,0 -3.773,-0.282 -5.54,-0.769 8.804,-2.428 15.277,-10.472 15.277,-20.048 0,-4.202 -3.405,-7.608 -7.607,-7.608 h 30 c 4.202,0 7.607,3.406 7.607,7.608 C 20.816,-9.32 11.497,0 0,0"
             style="fill:#433f43;fill-opacity:1;fill-rule:nonzero;stroke:none"
             id="path4229" /></g><g
           id="g4231"
           transform="translate(156.541,376.0918)"><path
             d="m 0,0 -3.149,15.404 c -1.831,8.959 -10.632,14.695 -19.569,12.75 -8.163,-1.775 -13.69,-9.398 -12.84,-17.708 l 1.668,-16.298 0.027,-0.007 33.746,5.691 z"
             style="fill:#ffcebf;fill-opacity:1;fill-rule:nonzero;stroke:none"
             id="path4233" /></g><g
           id="g4235"
           transform="translate(496.3457,474.5)"><path
             d="m 0,0 h -480.691 c -4.504,0 -8.155,3.65 -8.155,8.154 v 13.692 c 0,4.504 3.651,8.154 8.155,8.154 H 0 c 4.504,0 8.154,-3.65 8.154,-8.154 V 8.154 C 8.154,3.65 4.504,0 0,0"
             style="fill:#355f7f;fill-opacity:1;fill-rule:nonzero;stroke:none"
             id="path4237" /></g><g
           id="g4239"
           transform="translate(496.3457,504.5)"><path
             d="m 0,0 h -30 c 4.504,0 8.154,-3.65 8.154,-8.154 V -21.846 C -21.846,-26.35 -25.496,-30 -30,-30 H 0 c 4.504,0 8.154,3.65 8.154,8.154 V -8.154 C 8.154,-3.65 4.504,0 0,0"
             style="fill:#305972;fill-opacity:1;fill-rule:nonzero;stroke:none"
             id="path4241" /></g><g
           id="g4243"
           transform="translate(389.6123,423.3877)"><path
             d="m 0,0 c 0,-7.506 -6.106,-13.612 -13.612,-13.612 -7.506,0 -13.613,6.106 -13.613,13.612 0,7.506 6.107,13.612 13.613,13.612 C -6.106,13.612 0,7.506 0,0 m -240.002,0.002 c 0,-4.956 -2.719,-9.481 -6.944,-11.862 -3.389,0.781 -6.939,0.811 -10.445,0.05 -0.671,-0.146 -1.325,-0.328 -1.969,-0.527 -4.719,2.199 -7.863,7.001 -7.863,12.339 0,7.505 6.106,13.61 13.611,13.61 7.505,0 13.61,-6.105 13.61,-13.61 m 6.012,-80.273 c 1.021,-4.994 4.703,-8.938 9.578,-10.287 l 37.208,-10.463 c 4.869,-19.24 22.355,-33.187 42.635,-33.187 16.128,0 30.702,8.779 38.379,22.49 l 30.627,-12.255 c 11.512,-4.597 18.951,-15.586 18.951,-27.995 v -95.839 h -20.236 l -0.062,64.859 c 0,4.142 -3.358,7.5 -7.5,7.5 -4.143,0 -7.5,-3.358 -7.5,-7.5 v -48.98 h -105.322 v 89.241 c 0,5.912 -3.534,11.182 -9.019,13.435 l -35.437,14.448 c -7.354,3 -12.424,9.772 -13.233,17.67 l -3.864,37.747 19.843,3.347 z m 114.723,-24.072 c -5.053,-9.056 -14.66,-14.865 -25.302,-14.865 -12.16,0 -22.795,7.604 -27.033,18.519 0.949,0.477 1.863,1.042 2.731,1.698 3.745,2.834 6.127,6.931 6.762,11.49 5.431,-2.162 11.346,-3.364 17.54,-3.364 6.154,0 12.033,1.186 17.437,3.323 0.498,-6.49 3.347,-12.413 7.865,-16.801 m -57.894,61.07 v 17.824 l 35.499,10.427 c 2.946,0.862 6.114,0.66 8.922,-0.576 l 20.763,-9.131 v -18.544 c 0,-17.971 -14.621,-32.592 -32.592,-32.592 -17.971,0 -32.592,14.621 -32.592,32.592 m 0,40.853 c 0,8.84 7.192,16.032 16.032,16.032 h 33.12 c 8.84,0 16.032,-7.192 16.032,-16.032 v -5.923 l -14.723,6.476 c -6.04,2.656 -12.853,3.096 -19.188,1.237 l -31.273,-9.185 z m 120.549,-263.476 c 0,-5.597 -4.553,-10.15 -10.15,-10.15 -5.167,0 -9.436,3.884 -10.061,8.884 -0.126,1.003 0.292,3.286 0.09,4.355 h 20.121 z M -91.62,-408.388 h -45.339 c -0.06,0 -0.107,0.048 -0.107,0.108 0,7.343 5.973,13.317 13.316,13.317 h 18.921 c 7.343,0 13.317,-5.974 13.317,-13.317 0,-0.06 -0.049,-0.108 -0.108,-0.108 m -168.696,363.955 -0.855,8.349 c -0.462,4.515 2.537,8.65 6.97,9.617 4.772,1.041 9.676,-2.117 10.631,-6.923 l 1.624,-7.945 z m 108.142,-363.955 h -45.34 c -0.059,0 -0.107,0.048 -0.107,0.108 0,7.343 5.974,13.317 13.316,13.317 h 18.921 c 7.343,0 13.318,-5.974 13.318,-13.317 0,-0.06 -0.048,-0.108 -0.108,-0.108 m 258.907,497 h -480.691 c -8.632,0 -15.654,-7.022 -15.654,-15.654 V 59.267 c 0,-8.632 7.022,-15.655 15.654,-15.655 h 20.41 v -459.5 c 0,-4.142 3.358,-7.5 7.5,-7.5 4.143,0 7.5,3.358 7.5,7.5 v 459.5 h 77.436 V 27.608 c -12.149,-3.304 -21.111,-14.425 -21.111,-27.606 0,-8.572 3.872,-16.474 10.122,-21.796 -3.045,-4.504 -4.584,-10.038 -3.992,-15.817 l 6.25,-61.051 c 1.375,-13.424 9.991,-24.931 22.489,-30.031 l 35.122,-14.319 v -96.362 l -0.19,-26.27 c 0.008,-0.967 3.057,-29.799 3.158,-30.77 0.43,-4.119 4.105,-7.108 8.238,-6.683 4.119,0.43 7.111,4.118 6.682,8.238 l -3.075,29.524 0.133,18.407 h 105.431 c 1.235,-5.506 -0.056,-13.858 -0.056,-18.968 0,-0.985 -11.595,-113.028 -11.756,-114.096 -0.965,0.041 -19.014,0.029 -20.083,0.029 -4.812,0 -9.345,-1.21 -13.316,-3.336 v 84.754 c 0,4.143 -3.358,7.5 -7.5,7.5 -4.143,0 -7.5,-3.357 -7.5,-7.5 v -84.754 c -3.973,2.126 -8.506,3.336 -13.318,3.336 -1.262,0 -18.96,-0.002 -20.094,-0.03 l -5.195,49.882 c -0.43,4.119 -4.102,7.111 -8.237,6.682 -4.119,-0.429 -7.111,-4.117 -6.683,-8.237 l 5.531,-53.099 c -7.568,-5.088 -12.559,-13.729 -12.559,-23.515 0,-8.33 6.777,-15.108 15.107,-15.108 h 45.34 c 2.776,0 5.37,0.766 7.608,2.076 2.237,-1.31 4.832,-2.076 7.607,-2.076 h 45.339 c 8.331,0 15.108,6.778 15.108,15.108 0,9.791 -4.995,18.434 -12.57,23.521 l 10.101,96.893 c 3.62,-2.023 7.786,-3.18 12.219,-3.18 13.867,0 25.15,11.282 25.15,25.15 v 113.928 c 0,18.582 -11.144,35.039 -28.384,41.923 -1.286,0.514 -35.124,13.921 -36.184,14.554 -3.635,2.171 -6.033,5.589 -6.032,10.004 v 7.356 c 9.362,8.696 15.235,21.102 15.235,34.858 V -2.42 c 0,17.111 -13.92,31.032 -31.032,31.032 h -33.12 c -17.111,0 -31.032,-13.921 -31.032,-31.032 v -40.853 c 0,-13.753 5.87,-26.155 15.228,-34.851 v -6.914 c -0.064,-1.768 -1.17,-2.668 -2.763,-2.479 -0.253,0.03 -39.474,11.061 -39.783,11.154 l -9.395,45.976 c -0.763,3.734 -2.381,7.138 -4.677,10.036 5.335,5.275 8.549,12.555 8.549,20.353 0,13.181 -8.962,24.302 -21.11,27.606 v 16.004 h 121.4 c 4.143,0 7.5,3.358 7.5,7.5 0,4.143 -3.357,7.5 -7.5,7.5 h -249.246 c -0.36,0 -0.654,0.294 -0.654,0.655 v 13.691 c 0,0.36 0.294,0.654 0.654,0.654 h 480.691 c 0.361,0 0.655,-0.294 0.655,-0.654 V 59.267 c 0,-0.361 -0.294,-0.655 -0.655,-0.655 H -89.712 c -4.142,0 -7.5,-3.357 -7.5,-7.5 0,-4.142 3.358,-7.5 7.5,-7.5 h 68.6 V 27.608 C -33.263,24.304 -42.225,13.183 -42.225,0 c 0,-15.777 12.835,-28.612 28.613,-28.612 C 2.165,-28.612 15,-15.777 15,0 15,13.183 6.038,24.304 -6.112,27.608 v 16.004 h 77.435 v -459.5 c 0,-4.142 3.358,-7.5 7.5,-7.5 4.143,0 7.5,3.358 7.5,7.5 v 459.5 h 20.41 c 8.632,0 15.655,7.023 15.655,15.655 v 13.691 c 0,8.632 -7.023,15.654 -15.655,15.654"
             style="fill:#000000;fill-opacity:1;fill-rule:nonzero;stroke:none"
             id="path4245" /></g></g></g></g></svg>
