<svg id="Layer_1" enable-background="new 0 0 512 512" height="512" viewBox="0 0 512 512" width="512" xmlns="http://www.w3.org/2000/svg"><g><g><g><path d="m43.565 502v-464.5h424.871v464.5c0 5.523-4.477 10-10 10h-404.871c-5.523 0-10-4.477-10-10z" fill="#eaf6ff"/><path d="m438.435 37.5v464.5c0 5.523-4.477 10-10 10h30c5.523 0 10-4.477 10-10v-464.5z" fill="#d8ecfe"/><path d="m285.583 209.48h-51.08c-20.974 0-37.977-17.003-37.977-37.977v-40.486c0-35.08 28.438-63.517 63.517-63.517 35.08 0 63.517 28.438 63.517 63.517v40.486c0 20.974-17.002 37.977-37.977 37.977z" fill="#c59191"/><path d="m260.043 67.5c-5.17 0-10.189.633-15 1.798 27.837 6.743 48.517 31.809 48.517 61.719v40.486c0 20.974-17.003 37.977-37.977 37.977h30c20.974 0 37.977-17.003 37.977-37.977v-40.486c0-35.079-28.437-63.517-63.517-63.517z" fill="#b98080"/><g><path d="m148.823 107.753c8.936-1.944 17.737 3.791 19.569 12.751l9.581 46.876c.45 2.201 2.092 3.966 4.254 4.574l40.249 11.317c6.379 1.794 12.707-3 12.707-9.627v-15.039h49.72v15.493c0 7.698 4.687 14.62 11.834 17.479l35.094 14.038c14.295 5.718 23.668 19.563 23.668 34.959v101.583l-155.615-29.119v-81.743c0-2.845-1.722-5.407-4.357-6.482l-35.442-14.455c-9.901-4.038-16.768-13.208-17.856-23.845l-6.247-61.052c-.849-8.309 4.678-15.932 12.841-17.708z" fill="#aca6d6"/><g><path d="m355.5 328.919v-88.344c0-15.396-9.373-29.241-23.668-34.959l-35.094-14.038c-7.147-2.859-11.834-9.781-11.834-17.479v-15.493l-22.923 14.222v15.493c0 7.698 4.687 14.62 11.834 17.479l35.094 14.038c14.295 5.718 23.668 19.563 23.668 34.958v74.122h22.923z" fill="#978ecb"/></g><path d="m355.5 342.61v-13.691h-32.122l3.309 16.544c1.36 6.8 7.331 11.695 14.265 11.695 8.035 0 14.548-6.514 14.548-14.548z" fill="#ffcebf"/><path d="m332.577 328.919v25.579c2.386 1.682 5.283 2.66 8.375 2.66 8.035 0 14.548-6.513 14.548-14.548v-13.691z" fill="#ffb09e"/><path d="m260.355 215.189c14.763-.222 28.319-10.221 33.557-25.036-5.528-3.379-9.009-9.425-9.009-16.053v-15.493h-49.72v15.039c0 6.088-5.343 10.614-11.158 9.921 3.09 18.578 18.969 31.884 36.33 31.622z" fill="#ffcebf"/><path d="m261.98 188.322c0 7.698 4.687 14.62 11.834 17.479l6.52 2.608c6.061-4.393 10.904-10.694 13.578-18.256-5.265-3.231-8.993-9.051-9.009-16.053v-15.493l-22.923 14.222z" fill="#ffb09e"/></g><g><path d="m320.399 339.31-14.166 150.978h-92.38l-14.165-150.978z" fill="#ffcebf"/><path d="m320.202 313.038h-120.317l-11.651 58.254c-1.733 8.663 4.893 16.746 13.728 16.746h116.162c8.835 0 15.461-8.083 13.728-16.746z" fill="#b0e6a0"/><path d="m331.853 371.292-11.651-58.254h-24.863l11.651 58.254c1.733 8.663-4.893 16.746-13.728 16.746h24.863c8.834 0 15.46-8.082 13.728-16.746z" fill="#8ddaa7"/><path d="m312.993 504.5h-45.339c-4.202 0-7.608-3.406-7.608-7.608 0-11.497 9.32-20.817 20.817-20.817h18.921c11.497 0 20.817 9.32 20.817 20.817-.001 4.202-3.407 7.608-7.608 7.608z" fill="#554e56"/><path d="m299.783 476.075h-18.921c-1.921 0-3.773.282-5.54.769 8.803 2.429 15.277 10.473 15.277 20.049 0 4.201-3.406 7.607-7.608 7.607h30c4.202 0 7.608-3.406 7.608-7.607.001-11.497-9.319-20.818-20.816-20.818z" fill="#433f43"/><path d="m252.438 504.5h-45.339c-4.202 0-7.608-3.406-7.608-7.608 0-11.497 9.32-20.817 20.817-20.817h18.921c11.497 0 20.817 9.32 20.817 20.817 0 4.202-3.406 7.608-7.608 7.608z" fill="#554e56"/><path d="m239.229 476.075h-18.921c-1.921 0-3.773.282-5.54.769 8.803 2.429 15.277 10.473 15.277 20.049 0 4.201-3.406 7.607-7.608 7.607h30c4.202 0 7.608-3.406 7.608-7.607.001-11.497-9.319-20.818-20.816-20.818z" fill="#433f43"/></g><path d="m171.538 135.898-3.146-15.394c-1.831-8.959-10.633-14.695-19.569-12.751-8.163 1.775-13.69 9.398-12.839 17.708l1.665 16.269.029.037 33.747-5.692z" fill="#ffcebf"/><path d="m260.043 178.831c-20.582 0-37.268-16.685-37.268-37.268v-16.886c0-1.934 1.566-3.511 3.5-3.499 6.765.042 15.688-.678 25.666-3.654 7.688-2.294 14.016-5.334 18.901-8.166 1.349-.782 3.055-.558 4.168.534 2.22 2.177 5.338 4.739 9.464 6.927 3.741 1.984 7.257 3.101 10.105 3.746 1.598.362 2.732 1.774 2.732 3.412v17.585c0 20.584-16.685 37.269-37.268 37.269z" fill="#ffcebf"/><path d="m294.619 120.575c-2.854-.643-6.385-1.761-10.144-3.755-4.149-2.2-7.279-4.779-9.501-6.964-1.104-1.085-2.789-1.275-4.128-.499-4.361 2.528-9.88 5.219-16.483 7.4v.003c2.774 1.482 5.428 2.487 7.779 3.174 3.069.897 5.17 3.709 5.17 6.905v14.724c.402 5.037-.684 8.729-1.662 11.033-4.299 10.134-16.294 16.502-30.466 16.725 3.091 2.702 8.719 6.813 16.731 8.616 3.023.68 5.783.896 8.129.894 20.583 0 37.268-16.685 37.268-37.268v-17.584c-.001-1.623-1.11-3.048-2.693-3.404z" fill="#ffb09e"/><path d="m496.346 37.5h-480.692c-4.503 0-8.154-3.651-8.154-8.154v-13.692c0-4.503 3.651-8.154 8.154-8.154h480.692c4.503 0 8.154 3.651 8.154 8.154v13.692c0 4.503-3.651 8.154-8.154 8.154z" fill="#355f7f"/><path d="m496.346 7.5h-30c4.503 0 8.154 3.65 8.154 8.154v13.692c0 4.503-3.651 8.154-8.154 8.154h30c4.503 0 8.154-3.651 8.154-8.154v-13.692c0-4.504-3.651-8.154-8.154-8.154z" fill="#305972"/></g></g><path d="m468.436 189.636c-4.143 0-7.5 3.357-7.5 7.5v307.364c0 4.143 3.357 7.5 7.5 7.5s7.5-3.357 7.5-7.5v-307.364c0-4.143-3.358-7.5-7.5-7.5zm27.91-189.636h-480.692c-8.632 0-15.654 7.022-15.654 15.654v13.691c0 8.633 7.022 15.655 15.654 15.655h20.411v459.5c0 4.143 3.358 7.5 7.5 7.5s7.5-3.357 7.5-7.5v-459.5h92.435v16.004c-12.148 3.304-21.11 14.426-21.11 27.606 0 8.572 3.872 16.474 10.122 21.796-3.045 4.502-4.585 10.038-3.994 15.817l6.25 61.051c1.375 13.424 9.992 24.931 22.489 30.031l35.122 14.319v80.694l-11.5 57.503c-1.268 6.341.356 12.846 4.456 17.847 3.112 3.797 7.356 6.36 12.048 7.376l7.333 78.225c-7.661 5.073-12.726 13.766-12.726 23.622 0 8.33 6.777 15.107 15.107 15.107h45.339c2.776 0 5.37-.765 7.608-2.077 2.237 1.312 4.832 2.077 7.607 2.077h45.339c8.331 0 15.108-6.777 15.108-15.107 0-9.862-5.07-18.558-12.738-23.63l7.342-78.218c4.691-1.017 8.934-3.58 12.046-7.376 4.1-5.001 5.724-11.506 4.456-17.847l-1.073-5.365c.927.121 1.864.203 2.818.203 12.157 0 22.048-9.891 22.048-22.048v-102.03c0-18.582-11.144-35.039-28.384-41.923l-9.904-3.963c4.134-6.954 6.347-14.916 6.347-23.194v-40.48c0-18.965-7.385-36.801-20.799-50.226-13.418-13.409-31.253-20.794-50.217-20.794-39.155 0-71.01 31.859-71.01 71.02v35.052l-3.896-1.096-9.396-45.978c-.768-3.757-2.423-7.15-4.695-10.014 5.346-5.277 8.566-12.566 8.566-20.374 0-13.18-8.962-24.302-21.11-27.606v-16.004h225v16.004c-12.15 3.304-21.112 14.426-21.112 27.608 0 15.777 12.835 28.612 28.612 28.612s28.612-12.835 28.612-28.612c0-13.182-8.962-24.304-21.112-27.608v-16.004h62.436v117.136c0 4.143 3.357 7.5 7.5 7.5s7.5-3.357 7.5-7.5v-117.136h20.41c8.633 0 15.655-7.022 15.655-15.654v-13.692c0-8.632-7.022-15.654-15.654-15.654zm-352.05 133.045-.855-8.349c-.557-5.187 3.649-9.826 8.879-9.826 4.163 0 7.864 2.9 8.722 7.132l1.624 7.945zm108.142 363.955h-45.339c-.059 0-.107-.048-.107-.107 0-7.343 5.974-13.317 13.317-13.317h18.92c7.343 0 13.317 5.975 13.317 13.317 0 .059-.048.107-.108.107zm.108-25.089c-3.972-2.126-8.506-3.336-13.317-3.336-1.131 0-18.885.002-19.884.024l-6.849-73.062h40.05zm60.446 25.089h-45.339c-.06 0-.107-.048-.107-.107 0-7.343 5.974-13.317 13.316-13.317h18.921c7.343 0 13.317 5.975 13.317 13.317.001.059-.048.107-.108.107zm-45.446-25.089v-76.373h40.048l-6.858 73.062c-.847-.043-18.951-.024-19.873-.024-4.812-.001-9.345 1.209-13.317 3.335zm80.454-129.299c0 3.886-3.162 7.048-7.048 7.048-3.348 0-6.254-2.383-6.91-5.666l-1.515-7.575h15.473zm-143.97-211.592c0-30.89 25.126-56.02 56.01-56.02 14.96 0 29.03 5.826 39.614 16.4 10.579 10.588 16.405 24.658 16.405 39.619v40.48c0 6.35-1.944 12.418-5.536 17.517l-10.998-4.401c-4.822-1.932-7.688-6.84-7.125-12.163 7.68-8.041 12.411-18.92 12.411-30.89v-17.585c0-5.175-3.527-9.586-8.574-10.727-2.878-.652-5.653-1.682-8.25-3.058-2.83-1.501-5.429-3.403-7.726-5.656-3.512-3.445-8.932-4.129-13.18-1.668-5.45 3.159-11.266 5.672-17.285 7.467-7.598 2.268-15.472 3.379-23.476 3.342-2.941-.014-5.71 1.115-7.798 3.19-2.094 2.082-3.248 4.855-3.248 7.809v16.886c0 11.967 4.729 22.843 12.405 30.883.365 1.865-.72 3.803-2.616 3.692-.408-.024-20.563-5.72-21.035-5.849v-39.268zm56.013 40.311c-16.414 0-29.768-13.354-29.768-29.768v-12.945c8.085-.29 16.077-1.6 23.811-3.907 6.193-1.848 12.203-4.333 17.908-7.404 2.749 2.378 5.755 4.437 8.967 6.14 2.82 1.496 5.785 2.708 8.851 3.62v14.497c0 16.414-13.355 29.767-29.769 29.767zm24.686 21.001c-5.062 9.204-14.38 15.206-24.487 15.358-11.724.181-22.326-7.456-26.887-18.568 3.052-1.621 5.677-4.233 7.27-7.226 5.877 2.841 12.464 4.435 19.417 4.435 6.653 0 12.965-1.47 18.646-4.084 1.23 3.79 3.296 7.233 6.041 10.085zm-114.107-23.45c1.021 4.993 4.702 8.938 9.578 10.288l37.537 10.556c5.392 19.184 22.651 32.967 42.11 32.967.207 0 .415-.002.622-.005 15.355-.232 29.468-9.076 37.158-22.676l31.422 12.573c11.513 4.598 18.951 15.586 18.951 27.995v80.839h-18.473l-1.825-9.124v-40.734c0-4.143-3.357-7.5-7.5-7.5s-7.5 3.357-7.5 7.5v33.978h-50.179c-4.143 0-7.5 3.357-7.5 7.5s3.357 7.5 7.5 7.5h51.53l10.444 52.226c.525 2.625-.618 4.507-1.347 5.396s-2.351 2.379-5.027 2.379h-116.161c-2.677 0-4.298-1.49-5.027-2.379-.728-.889-1.872-2.771-1.347-5.396l10.445-52.226h21.49c4.142 0 7.5-3.357 7.5-7.5s-3.358-7.5-7.5-7.5h-20.138v-33.978c0-.033-.004-.064-.005-.097v-40.164c0-5.912-3.533-11.183-9.019-13.436l-35.438-14.448c-7.354-3-12.424-9.771-13.233-17.67l-3.864-37.747 19.844-3.347zm-6.012-80.272c0 4.97-2.731 9.506-6.975 11.885-1.719-.396-3.495-.625-5.315-.625-2.409 0-4.782.371-7.067 1.079-4.719-2.199-7.863-7-7.863-12.339 0-7.505 6.105-13.61 13.61-13.61s13.61 6.105 13.61 13.61zm240.002.002c0 7.506-6.106 13.612-13.612 13.612s-13.612-6.106-13.612-13.612 6.106-13.612 13.612-13.612 13.612 6.106 13.612 13.612zm92.388-59.266c0 .36-.294.654-.654.654h-480.692c-.361 0-.654-.294-.654-.654v-13.692c0-.36.293-.654.654-.654h480.692c.36 0 .654.294.654.654z"/></g></svg>