<?xml version="1.0" encoding="iso-8859-1"?>
<!-- Generator: Adobe Illustrator 19.0.0, SVG Export Plug-In . SVG Version: 6.00 Build 0)  -->
<svg xmlns="http://www.w3.org/2000/svg" xmlns:xlink="http://www.w3.org/1999/xlink" version="1.1" id="Layer_1" x="0px" y="0px" viewBox="0 0 512.002 512.002" style="enable-background:new 0 0 512.002 512.002;" xml:space="preserve">
<path style="fill:#45B9DD;" d="M359.56,69.614l-29.998-26.457c-8.587-7.574-21.69-6.753-29.264,1.834l-88.005,99.779  c-7.572,8.587-6.753,21.69,1.836,29.264l167.019,147.31c8.589,7.574,21.69,6.753,29.264-1.836l88.005-99.779  c7.574-8.587,6.753-21.688-1.834-29.263L380.1,87.73"/>
<path style="fill:#CCD4DD;" d="M224.86,130.522l136.011,119.958c6.622,5.841,16.727,5.208,22.567-1.414l41.717-47.3  c5.844-6.623,5.209-16.728-1.414-22.57L287.733,59.239L224.86,130.522z"/>
<rect x="283.075" y="127.379" transform="matrix(-0.6615 0.75 -0.75 -0.6615 669.577 18.5626)" style="fill:#B3BDC6;" width="95.048" height="66.044"/>
<path style="fill:#5BC5EF;" d="M503.288,190.646L386.806,87.91l-20.541-18.117l-29.998-26.457  c-8.587-7.574-21.69-6.753-29.264,1.834L267.37,90.106c22.78,83.258,98.962,144.452,189.447,144.452  c13.271,0,26.23-1.325,38.763-3.834l9.541-10.817C512.697,211.321,511.875,198.22,503.288,190.646z"/>
<path style="fill:#E6E9ED;" d="M430.447,179.376L294.438,59.418L267.37,90.106c18.576,67.885,72.647,121.097,141.037,138.434  l23.455-26.594C437.704,195.322,437.069,185.219,430.447,179.376z"/>
<path style="fill:#D4D9DD;" d="M298.604,154.533c13.15,17.847,29.245,33.387,47.572,45.907l47.321-53.653l-49.529-43.686  L298.604,154.533z"/>
<path style="fill:#5BC5EF;" d="M39.153,264.797v10.81c0,8.62,6.988,15.608,15.609,15.608h62.467c8.621,0,15.609-6.988,15.609-15.608  v-10.81H39.153z"/>
<path style="fill:#E6E9ED;" d="M110.998,329.32v-38.105H60.993v149.936l0,0v24.767l14.317,28.72c0,0,4.673,9.294,10.684,9.294  c5.986,0,10.643-9.205,10.682-9.285l14.322-28.728v-24.767v-27.41v-57.526"/>
<path style="fill:#5B5E5E;" d="M117.931,102.305H54.058c-25.217,0-45.659,20.442-45.659,45.661v101.223  c0,8.62,6.986,15.608,15.609,15.608h123.975c8.621,0,15.609-6.988,15.609-15.608V147.966  C163.592,122.747,143.15,102.305,117.931,102.305z M108.613,169.21H63.376c-8.579,0-15.536-6.955-15.536-15.535  s6.957-15.535,15.536-15.535h45.237c8.581,0,15.537,6.956,15.537,15.535C124.15,162.255,117.193,169.21,108.613,169.21z"/>
<path style="fill:#CCD4DD;" d="M88.396,463.947v-24.767V289.244H63.395v149.936v24.767l14.317,28.72c0,0,4.673,9.294,10.684,9.294  c5.986,0,10.643-9.205,10.682-9.285l1.819-3.652L88.396,463.947z"/>
<path style="fill:#2EA4BF;" d="M67.91,274.711v-10.81H45.857v10.81c0,8.62,6.988,15.608,15.609,15.608H83.52  C74.899,290.32,67.91,283.331,67.91,274.711z"/>
<path style="fill:#464949;" d="M37.157,249.368V148.146c0-25.219,20.442-45.661,45.659-45.661H60.762  c-25.217,0-45.659,20.442-45.659,45.661v101.223c0,8.62,6.986,15.608,15.609,15.608h22.053  C44.143,264.976,37.157,257.987,37.157,249.368z"/>
<g>
	<path style="fill:#231F20;" d="M121.655,193.228H50.337c-4.457,0-8.068,3.611-8.068,8.068s3.611,8.068,8.068,8.068h71.318   c4.457,0,8.068-3.611,8.068-8.068S126.111,193.228,121.655,193.228z"/>
	<path style="fill:#231F20;" d="M121.655,224.011H50.337c-4.457,0-8.068,3.611-8.068,8.068s3.611,8.068,8.068,8.068h71.318   c4.457,0,8.068-3.611,8.068-8.068S126.111,224.011,121.655,224.011z"/>
	<path style="fill:#231F20;" d="M511.613,204.212c-0.481-7.678-3.923-14.708-9.694-19.797L385.437,81.68   c-3.341-2.948-8.44-2.626-11.388,0.714c-2.947,3.341-2.627,8.44,0.714,11.388l116.483,102.735c2.537,2.238,4.051,5.329,4.262,8.705   c0.212,3.377-0.905,6.633-3.142,9.17l-88.005,99.779c-4.62,5.239-12.637,5.741-17.876,1.122L219.467,167.983   c-5.238-4.619-5.741-12.638-1.122-17.876l7.229-8.196l36.572,32.256l6.906,6.092l23.433,20.668l63.047,55.606   c4.398,3.878,10.048,6.016,15.907,6.016c6.904,0,13.483-2.969,18.048-8.144l41.716-47.299c4.251-4.819,6.372-11.006,5.97-17.421   c-0.402-6.413-3.278-12.286-8.097-16.538l-79.061-69.733l-7.416-6.542l-5.551-4.896l-37.927-33.452l7.229-8.196   c2.238-2.537,5.329-4.051,8.706-4.262c3.382-0.212,6.633,0.905,9.17,3.142l29.998,26.457c3.341,2.949,8.442,2.628,11.388-0.714   c2.947-3.341,2.627-8.44-0.714-11.388l-29.998-26.457c-11.909-10.507-30.147-9.361-40.652,2.548l-12.562,14.243   c-0.001,0.002-0.003,0.003-0.005,0.005l-12.155,13.781l-5.385-4.751c-5.329-4.699-12.173-7.287-19.273-7.287   c-1.419,0-2.826,0.112-4.213,0.314c0.837-3.436,1.292-7.02,1.292-10.709C241.946,20.299,221.648,0,196.698,0   c-16.849,0-31.565,9.262-39.354,22.957c-1.213-0.558-2.443-1.09-3.691-1.592c-20.208-8.137-42.375-7.918-62.419,0.615   C71.19,30.515,55.669,46.344,47.532,66.553c-3.797,9.429-5.751,19.285-5.913,29.153c-23.644,5.628-41.288,26.916-41.288,52.26   v101.223c0,13.055,10.621,23.676,23.678,23.676h7.076v2.743c0,12.437,9.641,22.657,21.841,23.598V465.92   c0,1.249,0.29,2.482,0.848,3.6l14.329,28.745c1.152,2.295,7.437,13.738,17.892,13.738c10.495,0,16.751-11.45,17.903-13.754   l14.322-28.728c0.558-1.118,0.848-2.351,0.848-3.6V356.214c0-4.457-3.611-8.068-8.068-8.068s-8.068,3.611-8.068,8.068V464.02   l-13.445,26.97c-0.896,1.738-2.438,3.731-3.489,4.589c-1.053-0.86-2.592-2.846-3.465-4.54l-13.471-27.02V299.284h33.868v30.036   c0,4.457,3.611,8.068,8.068,8.068s8.068-3.611,8.068-8.068v-30.115c12.2-0.941,21.841-11.161,21.841-23.598v-2.743h7.076   c13.057,0,23.678-10.621,23.678-23.676v-86.579c12.134-8.951,21.513-21.049,27.18-35.123c4.89-12.143,6.741-24.994,5.604-37.667   c3.971-0.688,7.764-1.892,11.311-3.546c0.005,0.114,0.006,0.228,0.013,0.342c0.487,7.772,3.972,14.887,9.811,20.037l5.385,4.749   l-12.155,13.781c-0.001,0.001-0.002,0.003-0.004,0.005l-12.563,14.243c-10.505,11.912-9.359,30.148,2.551,40.652l167.019,147.311   c5.466,4.819,12.263,7.188,19.033,7.188c7.985-0.001,15.934-3.294,21.619-9.739l88.005-99.779   C509.558,219.298,512.094,211.891,511.613,204.212z M183.222,71.042c-8.171-4.287-14.065-12.339-15.362-21.839   C174.355,55.267,179.592,62.65,183.222,71.042z M124.77,275.607c0,4.157-3.383,7.54-7.541,7.54h-6.232H60.993h-6.232   c-4.158,0-7.541-3.383-7.541-7.54v-2.742h77.55C124.77,272.865,124.77,275.607,124.77,275.607z M155.524,249.189   c0,4.157-3.383,7.54-7.541,7.54H24.007c-4.158,0-7.541-3.383-7.541-7.54V147.966c0-16.886,11.193-31.206,26.548-35.935   c1.089,5.751,2.783,11.428,5.131,16.942c0.719,1.687,1.507,3.329,2.327,4.952c-6.437,4.22-10.702,11.495-10.702,19.75   c0,13.016,10.589,23.603,23.603,23.603h45.237c13.017,0,23.605-10.589,23.605-23.603c0-13.015-10.59-23.603-23.605-23.603H66.736   c-1.386-2.377-2.647-4.846-3.743-7.42c-1.705-4.004-2.995-8.113-3.872-12.278h58.811c20.729,0,37.593,16.865,37.593,37.593v101.222   H155.524z M55.909,153.675c0-2.543,1.28-4.791,3.228-6.14c3.985,5.068,8.546,9.632,13.616,13.607h-9.376   C59.259,161.142,55.909,157.792,55.909,153.675z M80.012,146.207h28.601c4.118,0,7.469,3.35,7.469,7.467s-3.351,7.467-7.469,7.467   h-2.82c-0.872-0.898-1.962-1.61-3.233-2.033c-1.261-0.42-2.544-0.892-3.814-1.403C91.791,154.906,85.49,151.007,80.012,146.207z    M183.872,121.459c-2.993,7.434-7.274,14.18-12.623,19.969c-3.237-26.552-25.905-47.193-53.317-47.193H57.794   c0.317-7.336,1.882-14.642,4.706-21.655c6.528-16.21,18.978-28.908,35.056-35.754c16.077-6.847,33.86-7.02,50.069-0.494   c1.487,0.598,2.933,1.264,4.359,1.96c-0.352,2.268-0.536,4.59-0.536,6.956c0,22.052,15.861,40.459,36.773,44.441   C189.437,100.357,187.996,111.221,183.872,121.459z M201.411,73.974c-0.892-3.004-1.939-5.98-3.184-8.906   c-5.861-13.764-15.163-25.394-26.96-33.967c4.981-8.917,14.511-14.964,25.431-14.964c16.053,0,29.113,13.061,29.113,29.113   C225.81,59.696,215.229,71.715,201.411,73.974z M418.405,185.246c1.588,1.401,2.534,3.335,2.667,5.447   c0.132,2.112-0.566,4.148-1.966,5.736l-41.716,47.3c-1.503,1.703-3.671,2.681-5.947,2.681c-1.927,0-3.786-0.704-5.234-1.982   l-30.899-27.252l52.198-59.182L418.405,185.246z M337.978,114.311l5.834,5.145l31.593,27.867l-52.197,59.181l-37.429-33.012   l26.099-29.591L337.978,114.311z M288.447,70.627l37.428,33.009l-26.099,29.591l-26.099,29.59l-16.742-14.766l-20.685-18.244   L288.447,70.627z M235.101,76.186c2.469-2.8,6.029-4.405,9.766-4.405c3.166,0,6.221,1.155,8.6,3.253l5.384,4.751l-17.214,19.518   l-5.385-4.751c-2.607-2.299-4.162-5.476-4.379-8.944S232.801,78.792,235.101,76.186z"/>
	<path style="fill:#231F20;" d="M406.446,273.603c1.534,1.353,3.437,2.017,5.334,2.017c2.235,0,4.46-0.923,6.054-2.731   l35.254-39.972c2.947-3.341,2.627-8.44-0.714-11.388c-3.34-2.948-8.44-2.626-11.388,0.714l-35.254,39.972   C402.785,265.557,403.104,270.656,406.446,273.603z"/>
</g>
<g>
</g>
<g>
</g>
<g>
</g>
<g>
</g>
<g>
</g>
<g>
</g>
<g>
</g>
<g>
</g>
<g>
</g>
<g>
</g>
<g>
</g>
<g>
</g>
<g>
</g>
<g>
</g>
<g>
</g>
</svg>
