<?xml version="1.0" encoding="iso-8859-1"?>
<!-- Generator: Adobe Illustrator 19.0.0, SVG Export Plug-In . SVG Version: 6.00 Build 0)  -->
<svg xmlns="http://www.w3.org/2000/svg" xmlns:xlink="http://www.w3.org/1999/xlink" version="1.1" id="Layer_1" x="0px" y="0px" viewBox="0 0 512 512" style="enable-background:new 0 0 512 512;" xml:space="preserve">
<path style="fill:#FF5357;" d="M142.773,190.802h106.784c0,0,23.772-34.523,73.867-41.749l15.46,48.713l-62.886,57.918h-67.477  L142.773,190.802z"/>
<path style="fill:#FC7077;" d="M256.706,189.941h-31.6c4.07,23.29,12.229,45.171,23.711,64.882h34.331l62.886-57.918l-15.461-48.713  C280.478,155.417,256.706,189.941,256.706,189.941z"/>
<path style="fill:#5B5E5E;" d="M125.037,356.507c0.748,3.13,1.156,6.395,1.156,9.755c0,23.095-18.72,41.815-41.814,41.815  c-23.094,0-41.816-18.72-41.816-41.815c0-23.095,18.723-41.815,41.816-41.815c10.324,0,19.769,3.751,27.064,9.952l30.169-18.539  c-13.978-15.862-34.431-25.878-57.235-25.878c-42.131,0-76.283,34.149-76.283,76.28c0,42.132,34.152,76.283,76.283,76.283  c42.13,0,76.283-34.15,76.283-76.283c0-10.004-1.945-19.546-5.446-28.299L125.037,356.507z"/>
<path style="fill:#464949;" d="M36.835,365.402c0-38.449,28.448-70.234,65.44-75.5c-3.514-0.497-7.097-0.78-10.747-0.78  c-42.131,0-76.283,34.149-76.283,76.28c0,42.132,34.152,76.283,76.283,76.283c3.666,0,7.266-0.274,10.795-0.774  C65.306,435.666,36.835,403.869,36.835,365.402z"/>
<path style="fill:#5B5E5E;" d="M405.979,289.982c-3.519,0-6.977,0.257-10.368,0.717l10.713,33.756  c22.937,0.188,41.472,18.828,41.472,41.807c0,23.095-18.72,41.815-41.815,41.815c-23.093,0-41.815-18.72-41.815-41.815  c0-13.987,6.875-26.364,17.424-33.955l-10.717-33.763c-24.457,12.707-41.175,38.251-41.175,67.718  c0,42.132,34.152,76.283,76.283,76.283c42.129,0,76.283-34.15,76.283-76.283C482.261,324.131,448.109,289.982,405.979,289.982z"/>
<g>
	<path style="fill:#464949;" d="M423.968,289.901c-3.543-0.504-7.159-0.78-10.841-0.78c-3.519,0-6.976,0.257-10.368,0.717   l1.756,5.535C410.629,292.733,417.151,290.864,423.968,289.901z"/>
	<path style="fill:#464949;" d="M359.314,377.02c-0.579-3.788-0.879-7.668-0.879-11.617c0-1.172,0.036-2.337,0.089-3.496   c0.014-0.318,0.032-0.636,0.051-0.953c0.056-0.961,0.127-1.917,0.218-2.868c0.021-0.214,0.035-0.429,0.057-0.641   c0.115-1.123,0.26-2.237,0.424-3.344c0.044-0.299,0.096-0.597,0.144-0.896c0.139-0.865,0.294-1.724,0.461-2.579   c0.06-0.304,0.115-0.611,0.18-0.915c0.222-1.063,0.465-2.121,0.731-3.167c0.07-0.271,0.148-0.539,0.219-0.809   c0.215-0.811,0.444-1.615,0.685-2.415c0.11-0.363,0.22-0.725,0.336-1.086c0.281-0.88,0.575-1.753,0.885-2.62   c0.118-0.327,0.241-0.653,0.363-0.979c0.299-0.797,0.61-1.589,0.935-2.373c0.167-0.406,0.341-0.81,0.517-1.212   c0.273-0.628,0.556-1.25,0.845-1.87c0.175-0.375,0.343-0.751,0.524-1.124c0.418-0.855,0.852-1.699,1.3-2.537   c0.24-0.449,0.489-0.891,0.737-1.334c0.269-0.478,0.542-0.953,0.82-1.425c0.273-0.464,0.545-0.927,0.827-1.384   c0.354-0.572,0.72-1.136,1.088-1.696c0.445-0.68,0.902-1.352,1.369-2.015c0.247-0.352,0.494-0.702,0.746-1.05   c0.371-0.51,0.745-1.015,1.126-1.513c0.206-0.269,0.419-0.532,0.628-0.799c0.765-0.973,1.554-1.927,2.364-2.861   c0.171-0.196,0.338-0.395,0.512-0.59c0.471-0.531,0.951-1.056,1.438-1.575c0.166-0.177,0.336-0.353,0.505-0.529   c0.802-0.84,1.622-1.661,2.461-2.464l-3.997-12.595c-24.458,12.707-41.175,38.253-41.175,67.718   c0,42.132,34.152,76.283,76.283,76.283c3.653,0,7.24-0.273,10.756-0.77C390.685,436.195,364.369,410.11,359.314,377.02z"/>
</g>
<path style="fill:#F7A539;" d="M405.974,379.242c-5.503,0-10.611-3.528-12.363-9.054l-76.283-240.344  c-2.17-6.832,1.611-14.126,8.442-16.294c6.833-2.169,14.126,1.612,16.294,8.442l76.283,240.343  c2.168,6.832-1.613,14.126-8.442,16.295C408.6,379.045,407.276,379.242,405.974,379.242z"/>
<path style="fill:#E23740;" d="M142.773,190.802l-77.901-15.008h-0.001c-45.826-8.828-16.674,12.202-16.674,12.202l0,0  l99.767,67.689h60.558L142.773,190.802z"/>
<path style="fill:#FF5357;" d="M448.642,215.554c-20.123-9.58-42.622-14.946-66.357-14.946c-5.072,0-10.087,0.253-15.037,0.731  l8.069,25.422c2.309-0.125,4.63-0.199,6.968-0.199c37.065,0,70.523,15.715,94.077,40.826l0.007-0.002h21.3  c11.362,0,3.894-10.483,3.066-11.6c-8.444-10.007-18.128-18.933-28.815-26.541"/>
<polyline style="fill:#CDD6E0;" points="318.421,295.19 298.51,330.947 199.871,330.947 147.963,255.684 275.998,255.684   338.885,197.765 351.151,236.413 331.967,270.864 "/>
<g>
	<circle style="fill:#97D3EE;" cx="227.123" cy="281.637" r="25.951"/>
	<path style="fill:#97D3EE;" d="M175.221,295.206l-97.637,60c-6.106,3.753-8.014,11.744-4.262,17.85   c2.451,3.988,6.709,6.182,11.068,6.182c2.317,0,4.663-0.62,6.781-1.923l98.804-60.716L175.221,295.206z"/>
</g>
<path style="fill:#5B5E5E;" d="M254.337,214.664l-4.78-23.862H142.772l38.929,36.984h61.481  C247.609,227.534,256.542,225.692,254.337,214.664z"/>
<path style="fill:#97D3EE;" d="M367.44,201.946c10.708-6.836,17.816-18.816,17.816-32.462c0-21.259-17.236-38.495-38.496-38.495  c-0.612,0-1.221,0.017-1.826,0.045L367.44,201.946z"/>
<path style="fill:#CC2535;" d="M82.143,180.509c0,0-6.325-4.565-8.965-8.8l-0.078-0.015h-0.001  c-45.826-8.828-16.675,12.202-16.675,12.202l99.767,67.689h30.711L82.143,180.509z"/>
<path style="fill:#5BC5EF;" d="M366.163,129.019c4.345,6.234,6.901,13.808,6.901,21.983c0,9.898-3.752,18.907-9.891,25.723  l6.019,18.963c10.708-6.836,17.816-18.816,17.816-32.462C387.008,148.331,378.541,135.42,366.163,129.019z"/>
<path style="fill:#ED3A47;" d="M476.431,246.665c-21.427-17.423-47.792-29.051-76.752-32.388c-2.311-0.253-13.648-1.381-25.398-0.56  l3.867,12.183c2.309-0.125,4.63-0.199,6.969-0.199c37.064,0,70.522,15.715,94.076,40.826l0.007-0.002h16.876  C489.908,258.138,479.344,249.093,476.431,246.665z"/>
<path style="fill:#F98B38;" d="M406.183,366.96L329.9,126.616c-1.616-5.09,0.073-10.432,3.863-13.726  c-2.61-0.962-5.543-1.105-8.401-0.2c-6.83,2.168-10.61,9.462-8.442,16.294l76.283,240.344c1.753,5.525,6.86,9.054,12.364,9.054  c1.301,0,2.624-0.198,3.929-0.611c1.74-0.553,3.279-1.441,4.576-2.567C410.442,373.865,407.444,370.935,406.183,366.96z"/>
<path style="fill:#AEAEAF;" d="M230.465,323.396l-48.782-70.731h-26.57l47.219,68.464c2.938,2.728,8.716,6.8,17.097,6.8h17.52  C234.139,326.492,231.964,324.788,230.465,323.396z"/>
<path style="fill:#E6E9ED;" d="M283.148,254.824h-34.331c15.382,26.406,36.722,48.909,62.182,65.672l14.57-26.167l13.545-24.326  l19.185-34.451l-12.265-38.648L283.148,254.824z"/>
<g>
	<path style="fill:#5BC5EF;" d="M184.329,305.012l-96.587,59.352c-4.593,2.823-7.135,7.702-7.2,12.722   c1.75,0.834,3.659,1.292,5.6,1.292c2.317,0,4.663-0.62,6.781-1.923l98.804-60.716L184.329,305.012z"/>
	<path style="fill:#5BC5EF;" d="M230.754,280.776c0-10.317,6.018-19.224,14.734-23.41c-3.395-1.63-7.2-2.543-11.219-2.543   c-14.333,0-25.953,11.618-25.953,25.953c0,14.332,11.62,25.952,25.953,25.952c4.019,0,7.823-0.914,11.219-2.544   C236.771,300,230.754,291.091,230.754,280.776z"/>
</g>
<g>
	<path style="fill:#231F20;" d="M313.453,107.442c12.707,0,23.043-10.336,23.043-23.04c0-12.707-10.336-23.043-23.043-23.043   c-12.703,0-23.04,10.336-23.04,23.043C290.414,97.106,300.75,107.442,313.453,107.442z M313.453,77.552   c3.777,0,6.85,3.073,6.85,6.85c0,3.776-3.073,6.848-6.85,6.848c-3.776,0-6.848-3.072-6.848-6.848   C306.606,80.624,309.677,77.552,313.453,77.552z"/>
	<path style="fill:#231F20;" d="M507.238,250.964c-0.101-0.137-0.206-0.27-0.316-0.399c-8.892-10.538-19.088-19.929-30.306-27.915   c-3.643-2.591-8.698-1.74-11.291,1.901c-2.592,3.642-1.741,8.698,1.901,11.291c9.499,6.763,18.188,14.643,25.85,23.45h-13.272   c-25.684-25.987-61.021-40.824-97.518-40.824c-0.367,0-0.736,0.002-1.104,0.005l-3.08-9.706c1.401-0.041,2.798-0.062,4.185-0.062   c21.987,0,43.141,4.764,62.877,14.16c4.035,1.925,8.868,0.207,10.789-3.83c1.923-4.036,0.207-8.868-3.83-10.789   c-20.443-9.734-42.254-14.989-64.898-15.656c3.954-6.916,6.129-14.832,6.129-23.105c0-24.293-18.691-44.291-42.447-46.397   l-1.125-3.543c-2.79-8.793-10.86-14.7-20.081-14.7c-2.161,0-4.307,0.334-6.379,0.991c-5.365,1.702-9.746,5.392-12.336,10.389   c-2.589,4.998-3.078,10.705-1.374,16.07l3.317,10.45c-38.122,8.337-60.07,31.133-67.343,39.961H143.544l-77.142-14.862   c-8.07-1.554-14.336-2.311-19.155-2.311c-8.681,0-13.988,2.803-15.773,8.331c-2.609,8.078,5.079,15.714,11.988,20.698   c0.064,0.045,0.126,0.09,0.191,0.133l98.51,66.837l21.55,31.246l-20.798,12.781c-15.67-15.105-36.63-23.672-58.535-23.672   C37.852,281.886,0,319.737,0,366.263c0,46.527,37.852,84.379,84.379,84.379s84.379-37.852,84.379-84.379   c0-8.474-1.272-16.79-3.75-24.816l22.664-13.927l5.535,8.026c1.511,2.191,4.003,3.5,6.665,3.5h98.639   c2.937,0,5.645-1.591,7.074-4.158l19.911-35.758c2.175-3.906,0.772-8.837-3.135-11.012c-3.907-2.177-8.836-0.771-11.012,3.135   l-17.597,31.6h-89.629l-7.479-10.843c-0.001-0.001-0.002-0.003-0.002-0.004l-14.754-21.393c-0.002-0.002-0.004-0.005-0.006-0.009   l-18.498-26.822h34.763c-3.214,5.196-5.074,11.312-5.074,17.857c0,18.774,15.275,34.048,34.049,34.048s34.049-15.274,34.049-34.048   c0-6.545-1.861-12.661-5.075-17.857h19.903c2.033,0,3.99-0.764,5.485-2.141l53.531-49.303l7.361,23.193l-17.482,31.396   c-2.175,3.906-0.772,8.837,3.135,11.012c3.907,2.176,8.836,0.772,11.012-3.135l10.065-18.075l12.076,38.05   c-24.573,15.382-39.581,42.181-39.581,71.486c0,46.527,37.852,84.379,84.379,84.379s84.379-37.852,84.379-84.379   c0-46.526-37.852-84.377-84.379-84.377c-1.523,0-3.07,0.056-4.627,0.144l-15.01-47.293c31.77,1.085,62.234,14.862,84.116,38.191   c1.556,1.659,3.707,2.556,5.909,2.556c0.035,0,0.069-0.001,0.106-0.001h21.198c8.408,0,11.807-4.257,13.084-6.795   C514.267,261.707,509.466,253.968,507.238,250.964z M84.379,434.449c-37.598,0-68.187-30.588-68.187-68.187   c0-37.597,30.588-68.184,68.187-68.184c16.284,0,31.936,5.845,44.199,16.289l-16.692,10.257   c-8.123-5.368-17.695-8.273-27.506-8.273c-27.521,0-49.912,22.39-49.912,49.911s22.391,49.911,49.912,49.911   c27.52,0,49.91-22.389,49.91-49.911c0-1.912-0.111-3.827-0.334-5.734l16.709-10.268c1.262,5.218,1.899,10.571,1.899,16.001   C152.565,403.861,121.977,434.449,84.379,434.449z M84.38,399.981c-18.593,0-33.72-15.127-33.72-33.719s15.127-33.719,33.72-33.719   c3.907,0,7.755,0.687,11.382,1.989l-22.418,13.775c-9.899,6.084-13.003,19.087-6.921,28.987c3.863,6.287,10.58,10.04,17.966,10.04   c3.89,0,7.702-1.079,11.02-3.122l22.419-13.776C115.766,387.065,101.558,399.981,84.38,399.981z M86.931,370.42   c-0.78,0.479-1.634,0.723-2.54,0.723c-1.716,0-3.276-0.87-4.17-2.325c-1.409-2.293-0.69-5.305,1.603-6.714l58.684-36.062   l5.345-3.284c0,0,0.001,0,0.001-0.001l27.064-16.63l3.199,4.636l2.35,3.408L86.931,370.42z M377.16,169.484   c0,6.57-2.089,12.805-5.839,17.926l-11.767-37.074l-3.065-9.655C368.496,144.747,377.16,156.122,377.16,169.484z M325.363,123.673   c0.6-1.156,1.614-2.011,2.856-2.406c0.486-0.154,0.984-0.232,1.481-0.232c2.133,0,3.999,1.369,4.647,3.406l7.987,25.165   l17.389,54.789c0,0.001,0.001,0.002,0.001,0.003l30.48,96.035l8.401,26.471c0.001,0.004,0.003,0.009,0.005,0.013l12.019,37.867   c0.814,2.566-0.61,5.316-3.174,6.13c-0.486,0.154-0.983,0.232-1.481,0.232c-2.133,0-4.001-1.369-4.647-3.406l-76.283-240.345   C324.651,126.152,324.764,124.829,325.363,123.673z M242.922,198.898l3.476,17.354c0.309,1.543,0.16,2.319,0.097,2.449   c-0.216,0.252-1.405,0.836-3.567,0.989h-57.994l-21.885-20.792H242.922z M150.452,247.588l-96.32-65.351   c2.678,0.338,5.754,0.84,9.209,1.506l75.492,14.545l49.958,49.301h-38.34V247.588z M244.976,281.637   c0,9.846-8.011,17.856-17.857,17.856s-17.857-8.01-17.857-17.856s8.011-17.857,17.857-17.857S244.976,271.791,244.976,281.637z    M211.844,247.588l-11.862-11.707h43.203c0.153,0,0.306-0.004,0.458-0.013c6.775-0.384,12.336-2.962,15.66-7.26   c2.204-2.85,4.51-7.858,2.974-15.536l-4.048-20.21c6.036-7.194,25.727-27.623,59.621-34.62l11.762,37.057l-56.771,52.287h-60.996   V247.588z M474.165,366.263c0,37.598-30.588,68.186-68.186,68.186s-68.187-30.588-68.187-68.187   c0-22.254,10.71-42.728,28.484-55.432l5.934,18.696c-10.198,9.394-16.143,22.737-16.143,36.736   c0,27.521,22.389,49.911,49.911,49.911s49.911-22.39,49.911-49.911c0-25.267-19.03-46.329-43.513-49.494l-5.932-18.689   C443.831,298.332,474.165,328.821,474.165,366.263z M439.699,366.263c0,18.593-15.127,33.719-33.719,33.719   c-18.593,0-33.719-15.127-33.719-33.719c0-6.719,2.032-13.213,5.679-18.689l7.955,25.062c2.789,8.793,10.86,14.703,20.081,14.703   c2.162,0,4.308-0.334,6.38-0.991c11.072-3.516,17.222-15.386,13.708-26.46l-7.955-25.062   C430.714,339.723,439.699,351.996,439.699,366.263z"/>
</g>
<g>
</g>
<g>
</g>
<g>
</g>
<g>
</g>
<g>
</g>
<g>
</g>
<g>
</g>
<g>
</g>
<g>
</g>
<g>
</g>
<g>
</g>
<g>
</g>
<g>
</g>
<g>
</g>
<g>
</g>
</svg>
