<?xml version="1.0" encoding="iso-8859-1"?>
<!-- Generator: Adobe Illustrator 19.0.0, SVG Export Plug-In . SVG Version: 6.00 Build 0)  -->
<svg xmlns="http://www.w3.org/2000/svg" xmlns:xlink="http://www.w3.org/1999/xlink" version="1.1" id="Layer_1" x="0px" y="0px" viewBox="0 0 511.999 511.999" style="enable-background:new 0 0 511.999 511.999;" xml:space="preserve">
<path style="fill:#5B5E5E;" d="M107.552,352.043c-4.306,16.571-19.361,28.805-37.279,28.805c-20.608,0-37.44-16.185-38.472-36.54  c-0.033-0.656-0.049-1.315-0.049-1.981c0-0.736,0.024-1.467,0.067-2.195c0.009-0.158,0.024-0.313,0.035-0.469  c0.04-0.593,0.091-1.182,0.158-1.767c0.016-0.124,0.033-0.247,0.049-0.371c0.08-0.642,0.173-1.277,0.285-1.91  c0.011-0.058,0.021-0.116,0.031-0.171c0.129-0.708,0.273-1.409,0.441-2.104h-0.002c1.934-8.084,6.41-15.175,12.544-20.384  c0.383-0.325,0.773-0.642,1.168-0.95c0.054-0.042,0.107-0.084,0.161-0.124c0.383-0.299,0.775-0.589,1.168-0.873  c0.067-0.047,0.133-0.093,0.198-0.14c0.394-0.278,0.79-0.55,1.195-0.815c0.067-0.042,0.136-0.087,0.205-0.131  c0.409-0.262,0.822-0.521,1.242-0.77c0.051-0.028,0.103-0.058,0.154-0.089c1.782-1.042,3.657-1.945,5.607-2.695  c0.116-0.044,0.229-0.093,0.345-0.136c0.348-0.129,0.701-0.25,1.053-0.369c0.22-0.074,0.436-0.152,0.656-0.222  c0.318-0.1,0.639-0.194,0.96-0.287c0.262-0.077,0.525-0.154,0.79-0.224c0.301-0.082,0.603-0.156,0.906-0.229  c0.294-0.072,0.588-0.14,0.883-0.205c0.289-0.063,0.577-0.122,0.866-0.178c0.322-0.063,0.645-0.12,0.969-0.173  c0.273-0.044,0.547-0.091,0.822-0.131c0.354-0.051,0.71-0.093,1.069-0.136c0.252-0.028,0.503-0.063,0.759-0.087  c0.407-0.038,0.819-0.067,1.231-0.093c0.21-0.014,0.416-0.031,0.623-0.042c0.626-0.029,1.254-0.047,1.885-0.047  c0.632,0,1.259,0.018,1.885,0.047c0.209,0.011,0.414,0.028,0.623,0.042c0.411,0.026,0.824,0.056,1.231,0.093  c0.256,0.024,0.507,0.058,0.759,0.087c0.359,0.042,0.715,0.084,1.069,0.136c0.273,0.04,0.548,0.087,0.822,0.131  c0.322,0.054,0.645,0.112,0.969,0.173c0.289,0.056,0.579,0.116,0.866,0.178c0.296,0.065,0.59,0.133,0.883,0.205  c0.303,0.073,0.605,0.147,0.906,0.229c0.264,0.072,0.528,0.147,0.79,0.224c0.32,0.093,0.642,0.187,0.96,0.287  c0.22,0.072,0.439,0.149,0.656,0.222c0.352,0.12,0.705,0.24,1.053,0.369c0.116,0.042,0.229,0.091,0.345,0.136  c1.95,0.75,3.823,1.654,5.607,2.695c0.051,0.031,0.103,0.06,0.154,0.089c0.421,0.25,0.832,0.507,1.242,0.77  c0.07,0.044,0.138,0.089,0.205,0.131c0.406,0.264,0.801,0.537,1.195,0.815c0.067,0.047,0.131,0.093,0.198,0.14  c0.394,0.283,0.785,0.574,1.168,0.873c0.054,0.04,0.107,0.082,0.161,0.124c0.397,0.31,0.785,0.626,1.168,0.95  c3.162,2.686,5.873,5.878,8.035,9.444l29.829-11.622c-6.029-11.977-15.368-21.997-26.838-28.837  c-0.028-0.016-0.058-0.031-0.084-0.049c-0.981-0.583-1.978-1.142-2.989-1.679c-0.185-0.098-0.374-0.191-0.558-0.287  c-0.862-0.446-1.728-0.878-2.606-1.289c-0.28-0.131-0.565-0.254-0.848-0.383c-0.794-0.358-1.595-0.705-2.408-1.035  c-0.345-0.142-0.692-0.276-1.042-0.411c-0.759-0.294-1.522-0.577-2.295-0.846c-0.397-0.138-0.792-0.271-1.191-0.403  c-0.736-0.243-1.483-0.47-2.23-0.688c-0.432-0.126-0.864-0.252-1.298-0.369c-0.73-0.198-1.467-0.378-2.206-0.552  c-0.456-0.109-0.913-0.218-1.373-0.318c-0.735-0.158-1.478-0.296-2.221-0.43c-0.47-0.084-0.934-0.176-1.409-0.252  c-0.759-0.122-1.525-0.218-2.293-0.316c-0.463-0.058-0.922-0.126-1.389-0.176c-0.834-0.089-1.679-0.149-2.522-0.21  c-0.401-0.026-0.799-0.07-1.205-0.091c-1.247-0.065-2.501-0.103-3.766-0.103h-0.007l0,0h-0.01c-1.264,0-2.52,0.038-3.766,0.103  c-0.405,0.023-0.803,0.065-1.205,0.091c-0.843,0.06-1.687,0.12-2.522,0.21c-0.467,0.049-0.926,0.118-1.389,0.176  c-0.768,0.098-1.534,0.194-2.293,0.316c-0.472,0.075-0.939,0.166-1.409,0.252c-0.743,0.133-1.485,0.271-2.221,0.43  c-0.46,0.1-0.917,0.21-1.373,0.318c-0.74,0.173-1.476,0.354-2.206,0.552c-0.434,0.119-0.866,0.243-1.298,0.369  c-0.748,0.218-1.492,0.446-2.23,0.688c-0.399,0.131-0.794,0.264-1.191,0.403c-0.773,0.269-1.536,0.552-2.295,0.846  c-0.35,0.136-0.696,0.269-1.042,0.411c-0.813,0.329-1.614,0.677-2.408,1.035c-0.283,0.129-0.568,0.252-0.848,0.383  c-0.879,0.411-1.745,0.843-2.606,1.289c-0.185,0.096-0.374,0.189-0.558,0.287c-1.011,0.537-2.008,1.095-2.989,1.679  c-0.026,0.018-0.056,0.033-0.084,0.049c-15.02,8.956-26.404,23.354-31.455,40.475c-0.009,0.026-0.016,0.051-0.023,0.075  c-0.299,1.013-0.574,2.032-0.828,3.063c-0.024,0.103-0.047,0.207-0.072,0.31c-0.229,0.96-0.446,1.92-0.637,2.893  c-0.042,0.212-0.075,0.427-0.114,0.642c-0.165,0.875-0.32,1.749-0.45,2.636c-0.054,0.359-0.091,0.721-0.138,1.081  c-0.1,0.754-0.203,1.509-0.276,2.272c-0.058,0.577-0.089,1.16-0.133,1.742c-0.04,0.561-0.093,1.119-0.122,1.684  C0.031,339.98,0,341.15,0,342.328c0,4.852,0.492,9.588,1.429,14.163c4.678,22.874,20.472,41.699,41.49,50.588  c8.409,3.554,17.652,5.522,27.354,5.522l0,0c9.702,0,18.945-1.968,27.354-5.522c21.017-8.89,36.812-27.714,41.49-50.588  c0.091-0.439,0.156-0.885,0.238-1.326L107.552,352.043z"/>
<path style="fill:#464949;" d="M65.753,407.079c-21.017-8.89-36.812-27.714-41.49-50.588c-0.937-4.574-1.429-9.31-1.429-14.163  c0-1.177,0.031-2.348,0.089-3.512c0.028-0.565,0.082-1.124,0.122-1.684c0.044-0.583,0.075-1.166,0.133-1.742  c0.073-0.764,0.175-1.518,0.276-2.272c0.047-0.36,0.084-0.724,0.138-1.081c0.129-0.885,0.285-1.761,0.45-2.636  c0.038-0.214,0.072-0.43,0.114-0.642c0.191-0.972,0.407-1.934,0.637-2.893c0.024-0.103,0.047-0.207,0.072-0.31  c0.254-1.03,0.53-2.05,0.827-3.063c0.007-0.024,0.014-0.049,0.023-0.075c5.051-17.12,16.435-31.518,31.453-40.475  c0.028-0.016,0.058-0.031,0.084-0.049c0.981-0.583,1.978-1.142,2.989-1.679c0.185-0.098,0.374-0.191,0.558-0.287  c0.862-0.446,1.728-0.877,2.606-1.289c0.28-0.131,0.565-0.254,0.848-0.383c0.794-0.358,1.595-0.705,2.408-1.035  c0.345-0.142,0.692-0.276,1.042-0.411c0.759-0.294,1.522-0.577,2.295-0.846c0.397-0.138,0.792-0.271,1.191-0.403  c0.74-0.243,1.483-0.469,2.23-0.688c0.432-0.126,0.864-0.252,1.298-0.369c0.73-0.198,1.467-0.378,2.206-0.552  c0.456-0.109,0.913-0.218,1.373-0.318c0.736-0.158,1.478-0.296,2.221-0.43c0.391-0.07,0.779-0.142,1.17-0.21  c-0.079-0.014-0.157-0.029-0.237-0.042c-0.759-0.122-1.525-0.218-2.293-0.316c-0.463-0.058-0.922-0.126-1.389-0.176  c-0.834-0.089-1.679-0.149-2.522-0.21c-0.401-0.026-0.799-0.07-1.205-0.091c-1.247-0.065-2.501-0.103-3.766-0.103h-0.007h-0.005  c-1.264,0-2.52,0.038-3.766,0.103c-0.405,0.023-0.803,0.065-1.205,0.091c-0.843,0.06-1.687,0.12-2.522,0.21  c-0.467,0.049-0.926,0.118-1.389,0.176c-0.768,0.098-1.534,0.194-2.293,0.316c-0.472,0.075-0.939,0.166-1.409,0.252  c-0.743,0.133-1.485,0.271-2.221,0.43c-0.46,0.1-0.917,0.21-1.373,0.318c-0.74,0.173-1.476,0.354-2.206,0.552  c-0.434,0.119-0.866,0.243-1.298,0.369c-0.748,0.218-1.492,0.446-2.23,0.688c-0.399,0.131-0.794,0.264-1.191,0.403  c-0.773,0.269-1.536,0.552-2.295,0.846c-0.35,0.136-0.696,0.269-1.042,0.411c-0.813,0.329-1.614,0.677-2.408,1.035  c-0.283,0.129-0.568,0.252-0.848,0.383c-0.879,0.411-1.745,0.843-2.606,1.289c-0.185,0.096-0.374,0.189-0.558,0.287  c-1.011,0.537-2.008,1.095-2.989,1.679c-0.026,0.018-0.056,0.033-0.084,0.049c-15.02,8.956-26.404,23.354-31.455,40.475  c-0.009,0.026-0.016,0.051-0.023,0.075c-0.299,1.013-0.574,2.032-0.828,3.063c-0.024,0.103-0.047,0.207-0.072,0.31  c-0.229,0.96-0.446,1.92-0.637,2.893c-0.042,0.212-0.075,0.427-0.114,0.642c-0.165,0.875-0.32,1.749-0.45,2.636  c-0.054,0.359-0.091,0.721-0.138,1.081c-0.1,0.754-0.203,1.509-0.276,2.272c-0.058,0.577-0.089,1.16-0.133,1.742  c-0.04,0.561-0.093,1.119-0.122,1.684C0.031,339.98,0,341.15,0,342.328c0,4.852,0.492,9.588,1.429,14.163  c4.678,22.874,20.472,41.699,41.49,50.588c8.409,3.554,17.652,5.522,27.354,5.522c3.889,0,7.7-0.329,11.417-0.938  C76.135,410.755,70.791,409.209,65.753,407.079z"/>
<path style="fill:#E6E9ED;" d="M366.941,241.431l-25.843-48.611c0,0-166.11,18.216-158.691,94.145"/>
<path style="fill:#BEC6CC;" d="M195.213,283.806l168.812-41.655l-18.83-35.419C319.384,210.285,207.57,228.791,195.213,283.806z"/>
<circle style="fill:#5B5E5E;" cx="324.961" cy="155.107" r="16.699"/>
<path style="fill:#464949;" d="M326.103,155.102c0-5.939,3.11-11.139,7.78-14.101c-2.582-1.638-5.635-2.598-8.919-2.598  c-9.221,0-16.699,7.477-16.699,16.699c0,9.224,7.479,16.699,16.699,16.699c3.284,0,6.338-0.962,8.919-2.598  C329.214,166.242,326.103,161.042,326.103,155.102z"/>
<path style="fill:#E6E9ED;" d="M177.544,292.997l-98.22,38.269c-25.885,10.102-5.346,17.598-5.346,17.598l96.485,9.46  C168.933,341.331,168.82,315.78,177.544,292.997z"/>
<path style="fill:#BEC6CC;" d="M169.705,337.926l-80.285-7.871c0,0-1.462-0.534-3.116-1.509l-6.979,2.72  c-25.885,10.102-5.346,17.598-5.346,17.598l96.485,9.46C169.931,352.408,169.582,345.44,169.705,337.926z"/>
<g>
	<path style="fill:#F7A539;" d="M400.672,251.291c-7.991,3.617-15.978,8.309-23.53,14.343l50.489,81.564   c2.608,4.211,7.115,6.529,11.73,6.529c2.473,0,4.979-0.666,7.239-2.066c6.468-4.004,8.467-12.495,4.463-18.966L400.672,251.291z"/>
	<path style="fill:#F7A539;" d="M382.964,219.608l-32.191-49.985c-7.991,3.617-15.979,8.309-23.53,14.343l37.487,62.261   C373.971,241.582,377.173,225.352,382.964,219.608z"/>
</g>
<g>
	<path style="fill:#F48F2A;" d="M449.221,343.343c-4.614,0-9.121-2.317-11.73-6.529l-48.973-79.118   c-3.864,2.345-7.673,4.977-11.376,7.937l50.489,81.564c2.608,4.211,7.115,6.529,11.73,6.529c2.473,0,4.979-0.666,7.239-2.066   c3.308-2.048,5.438-5.271,6.202-8.796C451.62,343.184,450.418,343.343,449.221,343.343z"/>
	<path style="fill:#F48F2A;" d="M338.588,176.047c-3.852,2.342-7.652,4.967-11.346,7.919l37.487,62.261   c4.087-2.054,6.991-6.372,9.462-11.048L338.588,176.047z"/>
</g>
<path style="fill:#44B25E;" d="M193.41,224.266c0,0,34.145-99.033,133.833-40.301l7.73,12.484c0,0-133.167,10.189-154.868,90.516"/>
<path style="fill:#51CE6E;" d="M245.235,169.307c1.091,16.168,4.022,31.831,8.597,46.776c40.186-16.492,81.14-19.634,81.14-19.634  l-7.73-12.484C292.302,163.379,265.424,162.188,245.235,169.307z"/>
<path style="fill:#4ABF69;" d="M155.227,200.921c-11.69-27.882-35.683-34.684-95.918-38.423  c-19.128-1.378-30.722,3.69-35.262,11.636c-4.547,7.956,5.159,15.059,5.21,15.095l85.912,48.842l25.392,14.437l42.974,24.434  c8.019-19.306,22.827-34.063,40.163-45.314C194.701,226.007,161.697,216.35,155.227,200.921z"/>
<path style="fill:#34A54E;" d="M158.929,235.656l-25.392-14.437l-85.912-48.842c-0.038-0.026-5.227-3.829-6.245-8.98  c-8.704,1.81-14.448,5.689-17.333,10.737c-4.547,7.956,5.159,15.059,5.21,15.095l85.912,48.842l25.392,14.437l42.974,24.434  c3.102-7.465,7.226-14.243,12.111-20.41L158.929,235.656z"/>
<path style="fill:#464949;" d="M511.911,338.816c-0.028-0.561-0.082-1.115-0.122-1.674c-0.042-0.586-0.075-1.175-0.133-1.756  c-0.075-0.761-0.178-1.513-0.276-2.266c-0.047-0.362-0.084-0.726-0.138-1.086c-0.129-0.885-0.287-1.761-0.45-2.636  c-0.04-0.214-0.072-0.43-0.114-0.642c-0.191-0.972-0.407-1.934-0.637-2.893c-0.024-0.103-0.047-0.207-0.073-0.31  c-0.252-1.028-0.528-2.048-0.826-3.056c-0.007-0.029-0.014-0.056-0.023-0.084c-5.051-17.12-16.437-31.516-31.454-40.473  c-0.028-0.016-0.058-0.031-0.087-0.049c-0.979-0.583-1.976-1.142-2.987-1.679c-0.185-0.098-0.374-0.191-0.561-0.287  c-0.859-0.446-1.725-0.878-2.606-1.289c-0.28-0.131-0.563-0.254-0.846-0.383c-0.794-0.358-1.595-0.705-2.408-1.035  c-0.345-0.142-0.694-0.276-1.042-0.411c-0.759-0.294-1.525-0.577-2.295-0.846c-0.397-0.138-0.792-0.271-1.191-0.403  c-0.738-0.243-1.483-0.47-2.23-0.688c-0.432-0.126-0.864-0.252-1.3-0.369c-0.73-0.198-1.464-0.378-2.204-0.552  c-0.458-0.109-0.913-0.218-1.373-0.318c-0.736-0.158-1.478-0.296-2.221-0.43c-0.47-0.084-0.937-0.176-1.409-0.252  c-0.759-0.122-1.527-0.218-2.293-0.316c-0.463-0.058-0.924-0.126-1.389-0.176c-0.834-0.089-1.679-0.149-2.522-0.21  c-0.402-0.026-0.799-0.07-1.205-0.091c-1.247-0.065-2.501-0.103-3.766-0.103h-0.007l0,0h-0.007c-1.264,0-2.52,0.038-3.769,0.103  c-0.402,0.023-0.801,0.065-1.205,0.091c-0.843,0.06-1.687,0.12-2.522,0.21c-0.465,0.049-0.923,0.118-1.387,0.176  c-0.768,0.098-1.534,0.194-2.293,0.316c-0.474,0.075-0.941,0.166-1.408,0.252c-0.743,0.133-1.487,0.271-2.221,0.43  c-0.46,0.1-0.917,0.21-1.373,0.318c-0.738,0.173-1.476,0.354-2.206,0.552c-0.434,0.119-0.866,0.243-1.298,0.369  c-0.75,0.218-1.494,0.446-2.23,0.688c-0.399,0.131-0.797,0.264-1.191,0.403c-0.733,0.256-1.457,0.525-2.179,0.803l17.26,27.889  c0.222-0.049,0.446-0.096,0.67-0.138c0.32-0.063,0.643-0.12,0.969-0.173c0.273-0.044,0.546-0.091,0.822-0.131  c0.354-0.051,0.71-0.093,1.067-0.136c0.254-0.029,0.505-0.063,0.759-0.087c0.409-0.038,0.822-0.067,1.233-0.093  c0.207-0.014,0.414-0.031,0.623-0.042c0.626-0.028,1.254-0.047,1.885-0.047c0.632,0,1.259,0.018,1.883,0.047  c0.21,0.011,0.416,0.028,0.623,0.042c0.414,0.026,0.826,0.056,1.233,0.093c0.254,0.024,0.507,0.058,0.759,0.087  c0.357,0.042,0.715,0.084,1.069,0.136c0.273,0.04,0.547,0.087,0.819,0.131c0.325,0.054,0.647,0.112,0.971,0.173  c0.289,0.056,0.577,0.116,0.864,0.178c0.296,0.065,0.593,0.133,0.885,0.205c0.303,0.073,0.605,0.147,0.904,0.229  c0.267,0.072,0.53,0.147,0.792,0.224c0.32,0.093,0.642,0.187,0.96,0.287c0.22,0.072,0.436,0.149,0.654,0.222  c0.354,0.12,0.705,0.24,1.055,0.369c0.116,0.042,0.229,0.091,0.345,0.136c1.95,0.75,3.823,1.654,5.604,2.695  c0.051,0.031,0.105,0.06,0.156,0.089c0.418,0.25,0.832,0.507,1.242,0.77c0.07,0.044,0.138,0.089,0.205,0.131  c0.403,0.264,0.801,0.537,1.193,0.815c0.067,0.047,0.133,0.093,0.201,0.14c0.394,0.283,0.784,0.574,1.168,0.873  c0.054,0.04,0.107,0.082,0.161,0.124c0.394,0.31,0.785,0.626,1.168,0.95c6.132,5.208,10.611,12.299,12.542,20.384l0,0  c0.168,0.694,0.311,1.396,0.441,2.104c0.009,0.056,0.021,0.114,0.031,0.171c0.112,0.632,0.205,1.268,0.285,1.91  c0.016,0.124,0.033,0.247,0.047,0.371c0.07,0.586,0.119,1.175,0.161,1.767c0.011,0.156,0.026,0.311,0.035,0.469  c0.042,0.728,0.067,1.458,0.067,2.195c0,0.666-0.018,1.324-0.051,1.981c-1.03,20.354-17.862,36.54-38.47,36.54  c-20.61,0-37.438-16.185-38.472-36.54c-0.033-0.656-0.049-1.315-0.049-1.981c0-0.736,0.025-1.467,0.065-2.195  c0.009-0.158,0.026-0.313,0.035-0.469c0.042-0.593,0.091-1.182,0.161-1.767c0.014-0.124,0.031-0.247,0.047-0.371  c0.082-0.642,0.175-1.277,0.287-1.91c0.009-0.058,0.021-0.116,0.031-0.171c0.129-0.708,0.273-1.409,0.439-2.104l0,0  c1.198-5.011,3.377-9.637,6.319-13.673l-17.407-28.122c-8.743,8.362-15.333,18.955-18.85,30.871  c-0.007,0.026-0.014,0.051-0.021,0.075c-0.299,1.013-0.577,2.032-0.828,3.063c-0.024,0.103-0.047,0.207-0.072,0.31  c-0.231,0.96-0.448,1.92-0.637,2.893c-0.042,0.212-0.075,0.427-0.116,0.642c-0.163,0.875-0.318,1.749-0.45,2.636  c-0.054,0.359-0.089,0.721-0.136,1.081c-0.1,0.754-0.203,1.509-0.278,2.272c-0.056,0.577-0.089,1.16-0.131,1.742  c-0.042,0.561-0.096,1.119-0.122,1.684c-0.058,1.165-0.089,2.335-0.089,3.512c0,4.852,0.492,9.588,1.427,14.163  c4.68,22.874,20.475,41.699,41.492,50.588c8.407,3.554,17.65,5.522,27.354,5.522l0,0c9.702,0,18.945-1.968,27.352-5.522  c21.019-8.89,36.812-27.714,41.492-50.588c0.937-4.574,1.429-9.31,1.429-14.163C512,341.15,511.969,339.98,511.911,338.816z"/>
<g>
	<path style="fill:#5B5E5E;" d="M511.788,337.142c-0.042-0.586-0.075-1.175-0.133-1.756c-0.075-0.761-0.178-1.513-0.276-2.266   c-0.047-0.362-0.084-0.726-0.138-1.086c-0.129-0.885-0.287-1.761-0.45-2.636c-0.04-0.214-0.072-0.43-0.114-0.642   c-0.191-0.972-0.407-1.934-0.637-2.893c-0.024-0.103-0.047-0.207-0.073-0.31c-0.252-1.028-0.528-2.048-0.826-3.056   c-0.007-0.029-0.014-0.056-0.023-0.084c-5.051-17.12-16.437-31.516-31.454-40.473c-0.029-0.016-0.058-0.031-0.087-0.049   c-0.979-0.583-1.976-1.142-2.987-1.679c-0.185-0.098-0.374-0.191-0.561-0.287c-0.859-0.446-1.725-0.878-2.606-1.289   c-0.28-0.131-0.563-0.254-0.846-0.383c-0.794-0.358-1.595-0.705-2.408-1.035c-0.345-0.142-0.694-0.276-1.042-0.411   c-0.759-0.294-1.525-0.577-2.295-0.846c-0.397-0.138-0.792-0.271-1.191-0.403c-0.738-0.243-1.483-0.47-2.23-0.688   c-0.432-0.126-0.864-0.252-1.3-0.369c-0.73-0.198-1.464-0.378-2.204-0.552c-0.458-0.109-0.913-0.218-1.373-0.318   c-0.736-0.158-1.478-0.296-2.221-0.43c-0.469-0.084-0.937-0.176-1.409-0.252c-0.759-0.122-1.527-0.218-2.293-0.316   c-0.463-0.058-0.924-0.126-1.389-0.176c-0.834-0.089-1.679-0.149-2.522-0.21c-0.402-0.026-0.799-0.07-1.205-0.091   c-1.247-0.065-2.501-0.103-3.766-0.103h-0.007h-0.007c-1.264,0-2.52,0.038-3.769,0.103c-0.402,0.023-0.801,0.065-1.205,0.091   c-0.843,0.06-1.687,0.12-2.522,0.21c-0.465,0.049-0.923,0.118-1.387,0.176c-0.768,0.098-1.534,0.194-2.293,0.316   c-0.474,0.075-0.941,0.166-1.409,0.252c-0.743,0.133-1.487,0.271-2.221,0.43c-0.46,0.1-0.917,0.21-1.373,0.318   c-0.738,0.173-1.476,0.354-2.206,0.552c-0.434,0.119-0.866,0.243-1.298,0.369c-0.75,0.218-1.494,0.446-2.23,0.688   c-0.399,0.131-0.797,0.264-1.191,0.403c-0.733,0.256-1.458,0.525-2.179,0.803l17.26,27.889c0.222-0.049,0.446-0.096,0.67-0.138   c0.32-0.063,0.643-0.12,0.969-0.173c0.273-0.044,0.546-0.091,0.822-0.131c0.354-0.051,0.71-0.093,1.067-0.136   c0.254-0.029,0.505-0.063,0.759-0.087c0.409-0.038,0.822-0.067,1.233-0.093c0.207-0.014,0.414-0.031,0.623-0.042   c0.626-0.028,1.254-0.047,1.885-0.047c0.632,0,1.259,0.018,1.883,0.047c0.21,0.011,0.416,0.028,0.623,0.042   c0.414,0.026,0.826,0.056,1.233,0.093c0.254,0.024,0.507,0.058,0.759,0.087c0.357,0.042,0.715,0.084,1.069,0.136   c0.273,0.04,0.547,0.087,0.819,0.131c0.325,0.054,0.647,0.112,0.971,0.173c0.289,0.056,0.577,0.116,0.864,0.178   c0.296,0.065,0.593,0.133,0.885,0.205c0.303,0.073,0.605,0.147,0.904,0.229c0.267,0.072,0.53,0.147,0.792,0.224   c0.32,0.093,0.642,0.187,0.96,0.287c0.22,0.072,0.436,0.149,0.654,0.222c0.354,0.12,0.705,0.24,1.055,0.369   c0.116,0.042,0.229,0.091,0.345,0.136c1.95,0.75,3.823,1.654,5.604,2.695c0.051,0.031,0.105,0.06,0.156,0.089   c0.418,0.25,0.832,0.507,1.242,0.77c0.07,0.044,0.138,0.089,0.205,0.131c0.403,0.264,0.801,0.537,1.193,0.815   c0.067,0.047,0.133,0.093,0.201,0.14c0.394,0.283,0.784,0.574,1.168,0.873c0.054,0.04,0.107,0.082,0.161,0.124   c0.394,0.31,0.785,0.626,1.168,0.95c6.132,5.208,10.611,12.299,12.542,20.384c0.168,0.694,0.311,1.396,0.441,2.104   c0.009,0.056,0.021,0.114,0.031,0.171c0.112,0.632,0.205,1.268,0.285,1.91c0.016,0.124,0.033,0.247,0.047,0.371   c0.07,0.586,0.118,1.175,0.161,1.767c0.011,0.156,0.026,0.311,0.035,0.469c0.042,0.728,0.067,1.458,0.067,2.195   c0,0.666-0.018,1.324-0.051,1.981c-0.326,6.441-2.238,12.462-5.347,17.687c12.355-1.301,24.385-3.687,35.999-7.054   c0.743-4.093,1.152-8.304,1.152-12.613c0-1.177-0.031-2.348-0.089-3.512C511.883,338.255,511.829,337.701,511.788,337.142z"/>
	<path style="fill:#5B5E5E;" d="M403.255,344.309c-0.033-0.656-0.049-1.315-0.049-1.981c0-0.736,0.025-1.467,0.065-2.195   c0.009-0.158,0.026-0.313,0.035-0.469c0.042-0.593,0.091-1.182,0.161-1.767c0.014-0.124,0.031-0.247,0.047-0.371   c0.082-0.642,0.175-1.277,0.287-1.91c0.009-0.058,0.021-0.116,0.031-0.171c0.129-0.708,0.273-1.409,0.439-2.104   c1.198-5.011,3.377-9.637,6.319-13.673l-17.407-28.122c-8.743,8.362-15.333,18.955-18.85,30.871   c-0.007,0.026-0.014,0.051-0.021,0.075c-0.299,1.013-0.577,2.032-0.828,3.063c-0.024,0.103-0.047,0.207-0.072,0.31   c-0.231,0.96-0.448,1.92-0.637,2.893c-0.042,0.212-0.075,0.427-0.116,0.642c-0.163,0.875-0.318,1.749-0.45,2.636   c-0.054,0.359-0.089,0.721-0.136,1.081c-0.1,0.754-0.203,1.509-0.278,2.272c-0.056,0.577-0.089,1.16-0.131,1.742   c-0.042,0.561-0.096,1.119-0.122,1.684c-0.058,1.165-0.089,2.335-0.089,3.512c0,1.476,0.062,2.936,0.15,4.39   c11.176,4.741,22.854,8.529,34.928,11.272C404.655,353.773,403.501,349.161,403.255,344.309z"/>
</g>
<path style="fill:#2C9B46;" d="M279.191,322.279c-1.953,0-3.916-0.666-5.522-2.027c-3.6-3.052-4.046-8.445-0.994-12.045  l35.327-41.674c3.053-3.602,8.447-4.047,12.046-0.993c3.6,3.052,4.045,8.445,0.994,12.045l-35.327,41.674  C284.024,321.253,281.616,322.279,279.191,322.279z"/>
<path style="fill:#4ABF69;" d="M466.399,213.954c-0.443-1.847-0.686-3.339-0.768-4.532c-10.599-57.499-49.344-93.19-67.999-107.412  c-8.713-6.247-18.026,0.668-18.026,0.668c-30.68,31.774-14.989,36.698-14.989,36.698c52.374,62.677-37.559,88.887-127.585,105.072  s-63.816,133.099-63.816,133.099h145.26c11.765,0,14.176-9.301,14.666-13.585c0.038-0.693,0.076-1.388,0.122-2.073  c0-0.028-0.001-0.044-0.001-0.044c-0.88-28.505,10.909-53.5,18.208-66.133c0.312-0.544,0.628-1.079,0.946-1.611  c0.703-1.181,1.347-2.219,1.922-3.12c0.121-0.189,0.24-0.383,0.361-0.57c1.443-2.235,2.338-3.445,2.338-3.445l-0.001,0.014  c25.748-36.436,65.995-45.394,90.392-47.266c5.992-0.77,20.027-4.169,19.854-19.121C467.027,218.351,466.74,216.136,466.399,213.954  z"/>
<path style="fill:#51CE6E;" d="M465.632,209.423c-10.599-57.499-49.344-93.19-67.999-107.412  c-8.713-6.247-18.026,0.668-18.026,0.668c-30.68,31.774-14.989,36.698-14.989,36.698c47.391,56.714-21.735,83.568-102.017,100.157  c16.123,36.262,42.306,67.056,75.01,88.841c3.906-13.885,9.634-25.348,13.859-32.662c0.312-0.544,0.628-1.079,0.946-1.611  c0.703-1.181,1.347-2.219,1.922-3.12c0.121-0.189,0.24-0.383,0.361-0.57c1.443-2.235,2.338-3.445,2.338-3.445l-0.001,0.014  c25.748-36.436,65.995-45.394,90.392-47.266c5.992-0.77,20.027-4.169,19.854-19.121c-0.256-2.242-0.544-4.456-0.883-6.637  C465.957,212.107,465.714,210.617,465.632,209.423z"/>
<g>
</g>
<g>
</g>
<g>
</g>
<g>
</g>
<g>
</g>
<g>
</g>
<g>
</g>
<g>
</g>
<g>
</g>
<g>
</g>
<g>
</g>
<g>
</g>
<g>
</g>
<g>
</g>
<g>
</g>
</svg>
