<?xml version="1.0" encoding="iso-8859-1"?>
<!-- Generator: Adobe Illustrator 19.0.0, SVG Export Plug-In . SVG Version: 6.00 Build 0)  -->
<svg xmlns="http://www.w3.org/2000/svg" xmlns:xlink="http://www.w3.org/1999/xlink" version="1.1" id="Layer_1" x="0px" y="0px" viewBox="0 0 512.001 512.001" style="enable-background:new 0 0 512.001 512.001;" xml:space="preserve">
<path style="fill:#D3A97F;" d="M195.321,247.543h-2.045h-44.712h-35.362c-9.203,0-16.665,7.461-16.665,16.665  c0,9.204,7.462,16.664,16.665,16.664h35.362h44.712h35.361c9.205,0,16.665-7.461,16.665-16.664c0-9.205-7.461-16.665-16.665-16.665  h-6.466"/>
<path style="fill:#C19063;" d="M228.636,264.207h-35.361h-44.712h-35.362c-6.164,0-11.534-3.356-14.416-8.331  c-1.422,2.452-2.249,5.293-2.249,8.333c0,9.204,7.462,16.664,16.665,16.664h35.362h44.712h35.361  c9.205,0,16.665-7.461,16.665-16.664c0-3.04-0.827-5.88-2.248-8.333C240.172,260.85,234.802,264.207,228.636,264.207z"/>
<path style="fill:#5B5E5E;" d="M378.435,403.431c-0.271,2.268-0.427,4.571-0.427,6.912c0,31.867,25.831,57.698,57.697,57.698  c31.87,0,57.698-25.831,57.698-57.698c0-2.34-0.156-4.643-0.426-6.912H378.435z"/>
<path style="fill:#E6E9ED;" d="M411.85,403.431c-0.634,2.196-0.995,4.511-0.995,6.912c0,13.72,11.125,24.846,24.849,24.846  c13.726,0,24.851-11.126,24.851-24.846c0-2.4-0.359-4.716-0.995-6.912H411.85z"/>
<path style="fill:#464949;" d="M400.01,410.342c0-2.34,0.157-4.643,0.427-6.912h-22.003c-0.271,2.268-0.427,4.571-0.427,6.912  c0,31.867,25.831,57.698,57.697,57.698c3.764,0,7.439-0.373,11.002-1.061C420.104,461.842,400.01,438.447,400.01,410.342z"/>
<path style="fill:#BEC6CC;" d="M432.858,410.342c0-2.4,0.359-4.716,0.995-6.912H411.85c-0.634,2.196-0.995,4.511-0.995,6.912  c0,13.72,11.125,24.847,24.849,24.847c3.951,0,7.685-0.926,11.002-2.568C438.502,428.564,432.858,420.112,432.858,410.342z"/>
<path style="fill:#5BC5EF;" d="M437.196,319.732c-4.944,0-9.771,0.491-14.448,1.407c-0.622,4.258-1.5,8.525-2.688,12.787  c-11.122,39.851-37.053,58.717-57.323,67.575c0.097,1.021,0.208,2.038,0.342,3.049h148.234c0.44-3.278,0.687-6.616,0.687-10.015  C512,353.222,478.509,319.732,437.196,319.732z"/>
<path style="fill:#5B5E5E;" d="M38.853,409.726c-0.002,0.207-0.016,0.409-0.016,0.616c0,31.867,25.832,57.698,57.697,57.698  c31.869,0,57.699-25.831,57.699-57.698c0-0.207-0.015-0.409-0.017-0.616H38.853z"/>
<path style="fill:#E6E9ED;" d="M71.718,409.726c-0.006,0.207-0.031,0.407-0.031,0.616c0,13.72,11.125,24.847,24.849,24.847  s24.851-11.126,24.851-24.846c0-0.209-0.026-0.409-0.031-0.616L71.718,409.726L71.718,409.726z"/>
<path style="fill:#464949;" d="M61.353,410.342c0-0.207,0.013-0.409,0.016-0.616H38.853c-0.002,0.207-0.016,0.409-0.016,0.616  c0,31.867,25.832,57.698,57.697,57.698c3.853,0,7.617-0.386,11.258-1.105C81.317,461.698,61.353,438.357,61.353,410.342z"/>
<path style="fill:#BEC6CC;" d="M94.201,410.342c0-0.209,0.026-0.409,0.03-0.616H71.718c-0.006,0.207-0.031,0.407-0.031,0.616  c0,13.72,11.125,24.847,24.849,24.847c4.053,0,7.876-0.977,11.257-2.698C99.727,428.384,94.201,420.011,94.201,410.342z"/>
<path style="fill:#5BC5EF;" d="M15.893,410.845h238.695c-16.211-16.859-26.197-39.75-26.197-64.985  c0-15.898,3.969-30.862,10.955-43.977l-0.004,0.001c0,0,0.013-0.019,0.02-0.029c0.719-1.348,1.471-2.675,2.255-3.983  c2.807-6.099,4.993-17-15.277-17h-97.055c-67.102,0-122.309,50.84-129.236,116.096C-0.123,398.717-0.717,410.845,15.893,410.845z"/>
<path style="fill:#41ADCE;" d="M22.497,396.967c6.926-65.255,62.134-116.095,129.236-116.095h-22.447  c-67.102,0-122.309,50.84-129.236,116.096c-0.172,1.75-0.767,13.877,15.843,13.877H38.34  C21.731,410.845,22.325,398.717,22.497,396.967z"/>
<path style="fill:#B5E6F7;" d="M44.597,410.845c0,0,12.139-0.125,17.752-0.125h39.271h6.672h39.27  c25.372,0,45.941-20.569,45.941-45.941c0-25.373-20.57-45.942-45.941-45.942h-9.241C88.497,318.837,46.173,361.412,44.597,410.845z"/>
<path style="fill:#97D3EE;" d="M153.17,319.19c-1.84-0.224-3.709-0.352-5.609-0.352h-9.241c-49.823,0-92.147,42.576-93.723,92.008  c0,0,12.139-0.125,17.752-0.125h4.629C68.54,363.85,106.725,323.206,153.17,319.19z"/>
<path style="fill:#CDF2FC;" d="M363.31,295.517c2.189,5.711,8.593,8.564,14.302,6.374l13.659-5.236  c-1.482-15.092-6.708-29.951-13.155-43.206l-16.631,6.375c-5.709,2.189-8.564,8.593-6.375,14.303L363.31,295.517z"/>
<path style="fill:#B5E6F7;" d="M369.725,282.339l17.246-6.611c-2.357-7.742-5.43-15.237-8.855-22.279l-16.631,6.375  c-5.709,2.189-8.564,8.593-6.375,14.303l3.157,8.235C361.836,283.707,365.886,283.813,369.725,282.339z"/>
<path style="fill:#ED3A47;" d="M15.866,347.336c9.399-16.75,22.395-31.209,37.948-42.319c-5.056-4.627-11.791-7.454-19.186-7.454  c-15.698,0-28.427,12.729-28.427,28.427C6.202,334.497,9.945,342.126,15.866,347.336z"/>
<path style="fill:#FF5357;" d="M53.815,305.017c-5.056-4.627-11.791-7.454-19.186-7.454c-2.367,0-4.666,0.295-6.866,0.84  c-4.34,4.991-6.972,11.504-6.972,18.636c0,5.769,1.724,11.131,4.679,15.611C33.454,322.061,43.016,312.731,53.815,305.017z"/>
<polygon style="fill:#5BC5EF;" points="374.502,118.18 325.333,152.976 359.911,200.108 414.702,200.108 414.702,118.18 "/>
<polygon style="fill:#4EBBDD;" points="414.702,118.18 414.702,162.443 332.278,162.443 359.911,200.108 414.702,200.108 "/>
<circle style="fill:#5B5E5E;" cx="333.536" cy="166.505" r="15.819"/>
<path style="fill:#464949;" d="M335.197,166.504c0-5.503,2.815-10.345,7.078-13.179c-2.505-1.665-5.508-2.638-8.741-2.638  c-8.738,0-15.819,7.083-15.819,15.818c0,8.739,7.082,15.82,15.819,15.82c3.233,0,6.235-0.973,8.741-2.638  C338.012,176.852,335.197,172.01,335.197,166.504z"/>
<path style="fill:#41ADCE;" d="M273.997,376.386h-40.497c4.486,13.016,11.744,24.741,21.084,34.457h67.509  c0.163,0.002,0.368,0.003,0.615,0.003c4.35,0,21.536-0.567,41.081-8.828c20.433-8.637,47.168-27.462,58.509-68.091  c20.741-74.325-49.262-150.264-52.253-153.46c-6.493-6.94-17.373-7.305-24.325-0.819c-6.951,6.484-7.328,17.382-0.853,24.341  c0.599,0.646,59.76,65.068,44.241,120.676c-14.428,51.701-64.401,51.731-66.461,51.727c-0.134-0.004-0.27-0.006-0.404-0.006h-20.271  "/>
<path style="fill:#5BC5EF;" d="M341.66,197.097c-0.188,0.175-0.354,0.365-0.53,0.547c0.755,2.291,1.987,4.463,3.737,6.343  c0.599,0.646,59.76,65.068,44.241,120.676c-14.428,51.701-64.401,51.731-66.461,51.727c-0.134-0.004-0.27-0.006-0.404-0.006h-20.271  h-27.975h-40.497c1.998,5.797,4.548,11.335,7.585,16.558h80.562c0.138,0.001,0.312,0.002,0.521,0.002  c3.684,0,18.244-0.481,34.799-7.478c17.308-7.317,39.955-23.263,49.563-57.681c17.569-62.96-41.731-127.289-44.264-129.995  C356.767,191.911,347.549,191.601,341.66,197.097z"/>
<path style="fill:#F48F2A;" d="M414.535,221.72c-4.584,0-8.957,0.876-12.982,2.451c10.777,18.819,20.842,42.2,23.74,67.1  c14.404-4.561,24.847-18.032,24.847-33.948C450.139,237.661,434.199,221.72,414.535,221.72z"/>
<path style="fill:#F7A539;" d="M420.129,246.096c12.389,0,23.297,6.331,29.674,15.932c0.205-1.543,0.337-3.107,0.337-4.704  c0-19.663-15.94-35.604-35.605-35.604c-4.584,0-8.957,0.876-12.982,2.451c3.996,6.98,7.895,14.591,11.367,22.671  C415.249,246.359,417.656,246.096,420.129,246.096z"/>
<rect x="133.692" y="247.537" style="fill:#9E805F;" width="29.862" height="33.33"/>
<rect x="133.692" y="264.207" style="fill:#846546;" width="29.862" height="16.665"/>
<path style="fill:#DCDDE0;" d="M389.99,154.619c-2.484,0-4.943-1.096-6.598-3.2l-51.974-66.007c-2.867-3.64-2.24-8.917,1.402-11.783  c3.642-2.866,8.918-2.239,11.783,1.402l51.974,66.007c2.867,3.64,2.24,8.917-1.402,11.783  C393.636,154.032,391.807,154.619,389.99,154.619z"/>
<path style="fill:#E6E9ED;" d="M342.267,96.856c0,6.877-5.574,12.453-12.452,12.453l0,0c-6.876,0-12.452-5.575-12.452-12.453V56.413  c0-6.877,5.575-12.452,12.452-12.452l0,0c6.878,0,12.452,5.575,12.452,12.452V96.856z"/>
<path style="fill:#BEC6CC;" d="M329.816,96.856V56.413c0-4.606,2.507-8.618,6.227-10.773c-1.834-1.062-3.955-1.679-6.227-1.679  c-6.876,0-12.452,5.575-12.452,12.452v40.443c0,6.877,5.575,12.453,12.452,12.453c2.271,0,4.393-0.619,6.227-1.679  C332.324,105.475,329.816,101.462,329.816,96.856z"/>
<path style="fill:#5B5E5E;" d="M427.395,118.18h-14.931v81.929h14.931c7.611,0,13.782-6.17,13.782-13.782v-54.365  C441.178,124.349,435.006,118.18,427.395,118.18z"/>
<path style="fill:#97D3EE;" d="M465.314,325.216c-21.772,10.47-36.8,32.734-36.8,58.509c0,7.288,1.219,14.287,3.435,20.825h79.364  c0.44-3.278,0.687-6.616,0.687-10.015C512,363.171,492.689,336.332,465.314,325.216z"/>
<g>
</g>
<g>
</g>
<g>
</g>
<g>
</g>
<g>
</g>
<g>
</g>
<g>
</g>
<g>
</g>
<g>
</g>
<g>
</g>
<g>
</g>
<g>
</g>
<g>
</g>
<g>
</g>
<g>
</g>
</svg>
