<?xml version="1.0" encoding="iso-8859-1"?>
<!-- Generator: Adobe Illustrator 19.0.0, SVG Export Plug-In . SVG Version: 6.00 Build 0)  -->
<svg xmlns="http://www.w3.org/2000/svg" xmlns:xlink="http://www.w3.org/1999/xlink" version="1.1" id="Layer_1" x="0px" y="0px" viewBox="0 0 512 512" style="enable-background:new 0 0 512 512;" xml:space="preserve">
<g>
	<path style="fill:#E6E9ED;" d="M446.962,392.467c6.725,0,13.175,1.193,19.142,3.373v-67.066v-12.133H427.82v12.133v67.066   C433.792,393.659,440.235,392.467,446.962,392.467z"/>
	<path style="fill:#E6E9ED;" d="M466.104,125.293v-17.607V75.56c-5.568,3.449-12.125,5.446-19.142,5.446   c-7.018,0-13.574-1.997-19.142-5.446v32.126v182.887c0.932-0.208,1.901-0.328,2.896-0.328h32.494c0.996,0,1.961,0.119,2.894,0.328   V152.177"/>
</g>
<path style="fill:#CCD4DD;" d="M448.928,340.086v-11.314v-12.133V100.157V65.154c-7.017,0-13.574-2.621-19.142-7.145v42.146v216.483  v12.133v11.314v55.754c5.971-2.18,12.415-3.373,19.142-3.373V340.086z"/>
<path style="fill:#5B5E5E;" d="M446.962,81.006c-20.11,0-36.469-16.361-36.469-36.469c0-20.11,16.359-36.472,36.469-36.472  s36.471,16.361,36.471,36.472C483.434,64.645,467.073,81.006,446.962,81.006z"/>
<path style="fill:#E6E9ED;" d="M446.962,33.583c-6.038,0-10.951,4.914-10.951,10.953c0,6.038,4.912,10.953,10.951,10.953  c6.04,0,10.953-4.914,10.953-10.953C457.915,38.499,453.003,33.583,446.962,33.583z"/>
<path style="fill:#5BC5EF;" d="M476.405,303.442c0,7.29-5.908,13.198-13.196,13.198h-32.494c-7.288,0-13.198-5.908-13.198-13.198  l0,0c0-7.288,5.91-13.196,13.198-13.196h32.494C470.498,290.245,476.405,296.153,476.405,303.442L476.405,303.442z"/>
<g>
	<circle style="fill:#5B5E5E;" cx="65.037" cy="448.205" r="55.732"/>
	<circle style="fill:#5B5E5E;" cx="446.957" cy="448.205" r="55.733"/>
</g>
<g>
	<circle style="fill:#E6E9ED;" cx="65.037" cy="448.205" r="19.142"/>
	<circle style="fill:#E6E9ED;" cx="446.957" cy="448.205" r="19.142"/>
</g>
<path style="fill:#5BC5EF;" d="M230.011,456.286h18.422h63.687h40.55c7.288,0,13.198-5.91,13.198-13.198  c0-37.302,26.678-68.48,61.952-75.482V340.83c-45.603,6.664-81.638,43.207-87.509,89.062h-28.192h-63.688h-74.434  c-6.498-50.785-49.995-90.159-102.517-90.159c-7.29,0-13.198,5.906-13.198,13.197c0,7.288,5.908,13.196,13.198,13.196  c42.436,0,76.963,34.526,76.963,76.963c0,7.288,5.908,13.198,13.196,13.198h40.412"/>
<g>
	<path style="fill:#231F20;" d="M352.669,464.351H230.011c-4.455,0-8.065-3.61-8.065-8.065s3.61-8.065,8.065-8.065h122.66   c2.83,0,5.133-2.303,5.133-5.133c0-38.204,25.684-71.613,61.952-81.836v-10.621c-37.645,9.396-66.444,41.231-71.443,80.284   c-0.516,4.025-3.941,7.041-8,7.041H173.999c-4.058,0-7.484-3.016-8-7.041c-6.064-47.384-46.697-83.118-94.518-83.118   c-2.83,0-5.133,2.302-5.133,5.132s2.303,5.13,5.133,5.13c46.885,0,85.028,38.144,85.028,85.028c0,2.83,2.302,5.133,5.13,5.133   h40.412c4.455,0,8.065,3.61,8.065,8.065s-3.61,8.065-8.065,8.065H161.64c-11.723,0-21.261-9.538-21.261-21.263   c0-37.99-30.908-68.898-68.898-68.898c-11.725,0-21.263-9.537-21.263-21.261s9.538-21.262,21.263-21.262   c53.519,0,99.341,38.287,109.387,90.159h152.578c8.935-46.02,46.343-82.13,93.21-88.978c2.316-0.339,4.668,0.346,6.44,1.879   s2.791,3.758,2.791,6.102v26.776c0,3.849-2.72,7.161-6.495,7.91c-32.134,6.379-55.457,34.796-55.457,67.572   C373.932,454.812,364.394,464.351,352.669,464.351z"/>
	<path style="fill:#231F20;" d="M427.821,403.905c-1.633,0-3.25-0.496-4.624-1.456c-2.157-1.509-3.442-3.976-3.442-6.609v-79.199   c0-4.455,3.61-8.065,8.065-8.065h38.285c4.455,0,8.065,3.61,8.065,8.065v79.199c0,2.632-1.285,5.1-3.443,6.609   c-2.158,1.507-4.915,1.868-7.39,0.966c-5.236-1.913-10.745-2.884-16.374-2.884c-5.624,0-11.134,0.97-16.375,2.884   C429.688,403.744,428.751,403.905,427.821,403.905z M435.885,324.705v60.655c7.278-1.274,14.879-1.274,22.154-0.001v-60.654   H435.885z"/>
	<path style="fill:#231F20;" d="M466.104,298.638c-0.585,0-1.173-0.063-1.755-0.194c-0.405-0.09-0.779-0.134-1.14-0.134h-32.494   c-0.357,0-0.742,0.045-1.141,0.134c-2.39,0.53-4.891-0.049-6.798-1.58c-1.91-1.53-3.022-3.845-3.022-6.293V75.56   c0-2.926,1.585-5.623,4.141-7.047c2.557-1.425,5.682-1.351,8.172,0.19c4.476,2.772,9.626,4.237,14.896,4.237   c5.268,0,10.42-1.465,14.896-4.237c2.488-1.541,5.614-1.614,8.172-0.19c2.556,1.424,4.141,4.121,4.141,7.047v49.733   c0,4.455-3.61,8.065-8.065,8.065s-8.065-3.61-8.065-8.065V87.67c-7.199,1.853-14.954,1.853-22.154,0v194.51h22.154V152.177   c0-4.455,3.61-8.065,8.065-8.065s8.065,3.61,8.065,8.065v138.396c0,2.446-1.111,4.763-3.022,6.293   C469.704,298.024,467.921,298.638,466.104,298.638z"/>
</g>
<g>
	<path style="fill:#464949;" d="M39.228,449.275c0-27.102,19.346-49.674,44.978-54.687c-3.48-0.681-7.074-1.047-10.753-1.047   c-30.78,0-55.731,24.951-55.731,55.733c0,30.78,24.951,55.735,55.731,55.735c3.68,0,7.274-0.367,10.753-1.047   C58.575,498.951,39.228,476.375,39.228,449.275z"/>
	<path style="fill:#464949;" d="M421.154,448.2c0-27.102,19.345-49.675,44.98-54.687c-3.481-0.681-7.074-1.047-10.753-1.047   c-30.782,0-55.733,24.951-55.733,55.733c0,30.78,24.951,55.735,55.733,55.735c3.68,0,7.273-0.367,10.753-1.047   C440.5,497.875,421.154,475.299,421.154,448.2z"/>
	<path style="fill:#464949;" d="M438.051,44.537c0-16.798,11.418-30.973,26.9-35.189c-3.053-0.831-6.259-1.283-9.571-1.283   c-20.11,0-36.469,16.361-36.469,36.472c0,20.108,16.359,36.469,36.469,36.469c3.312,0,6.519-0.452,9.571-1.283   C449.47,75.508,438.051,61.334,438.051,44.537z"/>
</g>
<path style="fill:#3AABCE;" d="M444.698,303.442c0-7.288,5.91-13.196,13.198-13.196h-26.289c-7.288,0-13.198,5.908-13.198,13.196  c0,7.29,5.91,13.198,13.198,13.198h26.289C450.608,316.639,444.698,310.731,444.698,303.442z"/>
<g>
	<path style="fill:#231F20;" d="M463.21,324.705h-32.494c-11.725,0-21.263-9.538-21.263-21.263c0-11.723,9.538-21.261,21.263-21.261   h32.494c11.723,0,21.261,9.537,21.261,21.261C484.471,315.166,474.933,324.705,463.21,324.705z M430.716,298.31   c-2.83,0-5.133,2.302-5.133,5.13c0,2.83,2.303,5.133,5.133,5.133h32.494c2.829,0,5.13-2.303,5.13-5.133s-2.302-5.13-5.13-5.13   H430.716z"/>
	<path style="fill:#231F20;" d="M446.962,89.071c-24.557,0-44.534-19.978-44.534-44.534C402.427,19.979,422.406,0,446.962,0   c24.558,0,44.537,19.979,44.537,44.537C491.499,69.093,471.519,89.071,446.962,89.071z M446.962,16.13   c-15.661,0-28.404,12.744-28.404,28.406c0,15.661,12.743,28.404,28.404,28.404c15.662,0,28.406-12.743,28.406-28.404   C475.369,28.874,462.625,16.13,446.962,16.13z"/>
	<path style="fill:#231F20;" d="M446.962,63.555c-10.486,0-19.016-8.532-19.016-19.019s8.531-19.019,19.016-19.019   c10.487,0,19.019,8.532,19.019,19.019C465.98,55.023,457.449,63.555,446.962,63.555z M446.962,41.648   c-1.59,0-2.886,1.296-2.886,2.888c0,1.592,1.295,2.888,2.886,2.888c1.592,0,2.888-1.296,2.888-2.888   C449.85,42.945,448.554,41.648,446.962,41.648z"/>
	<path style="fill:#231F20;" d="M446.962,475.407c-15.002,0-27.207-12.205-27.207-27.207s12.205-27.207,27.207-27.207   s27.207,12.205,27.207,27.207C474.169,463.202,461.965,475.407,446.962,475.407z M446.962,437.122   c-6.108,0-11.077,4.969-11.077,11.077s4.969,11.077,11.077,11.077s11.077-4.969,11.077-11.077   C458.039,442.092,453.069,437.122,446.962,437.122z"/>
	<path style="fill:#231F20;" d="M446.962,512c-35.179,0-63.798-28.62-63.798-63.8c0-35.179,28.619-63.798,63.798-63.798   s63.798,28.619,63.798,63.798C510.761,483.38,482.14,512,446.962,512z M446.962,400.532c-26.284,0-47.668,21.384-47.668,47.668   c0,26.285,21.384,47.67,47.668,47.67c26.284,0,47.668-21.385,47.668-47.67C494.63,421.916,473.246,400.532,446.962,400.532z"/>
	<path style="fill:#231F20;" d="M65.037,475.407c-15.002,0-27.207-12.205-27.207-27.207s12.205-27.207,27.207-27.207   s27.207,12.205,27.207,27.207C92.244,463.202,80.04,475.407,65.037,475.407z M65.037,437.122c-6.108,0-11.077,4.969-11.077,11.077   s4.969,11.077,11.077,11.077s11.077-4.969,11.077-11.077S71.144,437.122,65.037,437.122z"/>
	<path style="fill:#231F20;" d="M65.035,512c-35.178,0-63.796-28.62-63.796-63.8c0-35.179,28.618-63.798,63.796-63.798   c35.179,0,63.798,28.619,63.798,63.798C128.834,483.38,100.213,512,65.035,512z M65.035,400.532   c-26.283,0-47.666,21.384-47.666,47.668c0,26.285,21.383,47.67,47.666,47.67c26.284,0,47.668-21.385,47.668-47.67   C112.703,421.916,91.319,400.532,65.035,400.532z"/>
</g>
<g>
</g>
<g>
</g>
<g>
</g>
<g>
</g>
<g>
</g>
<g>
</g>
<g>
</g>
<g>
</g>
<g>
</g>
<g>
</g>
<g>
</g>
<g>
</g>
<g>
</g>
<g>
</g>
<g>
</g>
</svg>
