<svg id="Capa_1" enable-background="new 0 0 512 512" height="512" viewBox="0 0 512 512" width="512" xmlns="http://www.w3.org/2000/svg"><g><g><path d="m26.835 305.555v166.694h159.525v-166.694z" fill="#ffa85d"/><path d="m82.596 305.555h-55.761v166.694h55.762v-166.694z" fill="#ff9839"/><path d="m230.984 472.249h56.951v-166.694h-56.951z" fill="#ffa85d"/><path d="m256.016 333.12h-25.032v110.766h25.032c3.39 0 6.139-2.748 6.139-6.139v-98.489c0-3.39-2.749-6.138-6.139-6.138z" fill="#ff9839"/><path d="m186.359 333.12h-127.265c-3.39 0-6.139 2.748-6.139 6.138v98.489c0 3.39 2.748 6.139 6.139 6.139h127.265z" fill="#ff9839"/><path d="m82.596 333.12h-23.502c-3.39 0-6.139 2.748-6.139 6.138v98.489c0 3.39 2.748 6.139 6.139 6.139h23.502z" fill="#ff8607"/><path d="m295.732 469.249c-35.669 0-247.532 0-276.353 0-6.536 0-11.884 5.348-11.884 11.884v11.757c0 6.536 5.348 11.884 11.884 11.884h276.353c6.536 0 11.884-5.348 11.884-11.884v-11.757c0-6.536-5.348-11.884-11.884-11.884z" fill="#dfebfa"/><path d="m67.776 492.89v-11.757c0-6.536 5.348-11.884 11.884-11.884-29.321 0-52.128 0-60.281 0-6.536 0-11.884 5.348-11.884 11.884v11.757c0 6.536 5.348 11.884 11.884 11.884h60.281c-6.536 0-11.884-5.348-11.884-11.884z" fill="#b1dbfc"/><path d="m26.835 119.193v188.361h159.525v-82.29c0-13.427 8.885-22.312 22.313-22.312 13.427 0 22.312 8.885 22.312 22.312v30.814h56.951v-136.885z" fill="#23a8fe"/><path d="m26.835 119.193h55.762v188.361h-55.762z" fill="#0193fa"/><path d="m26.834 76.411h261.1v43.782h-261.1z" fill="#dfebfa"/><path d="m26.835 76.411h55.762v43.782h-55.762z" fill="#b1dbfc"/><path d="m288.488 50.869h-262.368c-6.536 0-11.884 5.348-11.884 11.884v7.013c0 6.536 5.348 11.884 11.884 11.884h262.368c6.536 0 11.884-5.348 11.884-11.884v-7.013c0-6.536-5.348-11.884-11.884-11.884z" fill="#ff4756"/><path d="m66.275 69.767v-7.013c0-6.536 5.348-11.884 11.884-11.884h-52.039c-6.536 0-11.884 5.348-11.884 11.884v7.013c0 6.536 5.348 11.884 11.884 11.884h52.039c-6.536 0-11.884-5.348-11.884-11.884z" fill="#fc2d39"/><path d="m285.767 50.869c-5.625-22.421-22.03-43.095-41.269-43.095h-174.389c-19.238 0-35.644 20.674-41.269 43.095z" fill="#ff656f"/><path d="m122.148 7.774h-52.039c-19.239 0-35.644 20.674-41.269 43.095h52.04c5.625-22.421 22.03-43.095 41.268-43.095z" fill="#ff4756"/><path d="m492.979 254.079h-260.633v53.476h260.633c6.36 0 11.515-5.143 11.515-11.488v-30.5c0-6.345-5.155-11.488-11.515-11.488z" fill="#dfebfa"/><path d="m232.346 254.079h55.588v53.476h-55.588z" fill="#b1dbfc"/><path d="m432.679 307.555h50.733l-35.025-53.476h-50.733z" fill="#ff4756"/><path d="m332.18 307.555h50.733l-35.024-53.476h-50.733z" fill="#ff4756"/><path d="m247.39 254.079h-15.044v53.476h50.068z" fill="#fc2d39"/><path d="m232.984 472.249v-246.984c0-13.427-10.885-24.312-24.312-24.312s-24.312 10.885-24.312 24.312v246.984z" fill="#ffd301"/><path d="m220.509 204.029c-3.504-1.957-7.539-3.077-11.837-3.077-13.427 0-24.313 10.885-24.313 24.312v246.984h23.675v-246.983c0-9.129 5.034-17.079 12.475-21.236z" fill="#ffc20c"/><path d="m245.644 469.249h-73.946c-6.536 0-11.884 5.348-11.884 11.884v11.757c0 6.536 5.348 11.884 11.884 11.884h73.946c6.536 0 11.884-5.348 11.884-11.884v-11.757c.001-6.537-5.347-11.884-11.884-11.884z" fill="#7b6c79"/><path d="m197.712 492.89v-11.757c0-6.536 5.348-11.884 11.884-11.884h-37.898c-6.536 0-11.884 5.348-11.884 11.884v11.757c0 6.536 5.348 11.884 11.884 11.884h37.898c-6.535 0-11.884-5.348-11.884-11.884z" fill="#554e56"/></g><g fill="#050402"><path d="m493.013 246.305c-39.748 0-155.062 0-197.572 0 0-17.425 0-142.798 0-158.736 7.263-2.801 12.438-9.837 12.438-18.075v-7.014c0-9.674-7.131-17.692-16.408-19.131-7.323-22.34-24.911-43.349-46.967-43.349h-69.694c-4.143 0-7.5 3.357-7.5 7.5s3.357 7.5 7.5 7.5h69.694c10.3 0 23.611 9.778 30.979 28.096h-236.347c7.368-18.318 20.679-28.096 30.979-28.096h69.694c4.143 0 7.5-3.357 7.5-7.5s-3.357-7.5-7.5-7.5h-69.694c-22.056 0-39.644 21.01-46.966 43.349-9.277 1.44-16.408 9.457-16.408 19.131v7.014c0 8.299 5.252 15.376 12.6 18.134v373.849c-10.668.024-19.341 8.709-19.341 19.382v11.757c0 10.689 8.696 19.384 19.385 19.384h276.353c10.688 0 19.385-8.695 19.385-19.384v-11.757c0-10.688-8.696-19.385-19.385-19.385h-.297v-55.746c0-4.143-3.357-7.5-7.5-7.5s-7.5 3.357-7.5 7.5v55.746c-10.448 0-29.929 0-39.95 0v-10.362h15.532c7.521 0 13.639-6.118 13.639-13.639v-98.489c0-7.521-6.118-13.639-13.639-13.639h-15.533v-10.565h39.95v55.948c0 4.143 3.357 7.5 7.5 7.5s7.5-3.357 7.5-7.5v-55.948h197.572c10.47 0 18.987-8.518 18.987-18.987v-30.501c.001-10.47-8.517-18.987-18.986-18.987zm-105.751 53.475-25.141-38.476h31.731l25.14 38.476zm-99.322 0h-.942l-25.14-38.476h31.731l25.141 38.476zm-47.45-53.475v-21.315c0-17.541-14.271-31.813-31.813-31.813s-31.813 14.271-31.813 31.813v74.79h-142.523v-172.361h246.1v118.886c-24.489 0-25.936 0-39.951 0zm-206.149 215.17v-146.695h142.524v10.565h-117.765c-7.52 0-13.638 6.118-13.638 13.639v98.489c0 7.521 6.118 13.639 13.638 13.639h117.766v10.362c-18.741.001-127.275.001-142.525.001zm246.099-349.056h-246.1v-23.542h246.1zm-103.575 323.693h-116.403v-95.767h116.403zm111.629-378.016c2.376 0 4.384 2.008 4.384 4.384v7.014c0 2.376-2.008 4.384-4.384 4.384h-.554-261.1-.715c-2.377 0-4.385-2.008-4.385-4.384v-7.014c0-2.376 2.008-4.384 4.385-4.384zm-273.494 434.52v-11.757c0-2.377 2.008-4.385 4.385-4.385h133.455c-.328 1.411-.519 2.874-.519 4.384v11.758c0 1.51.191 2.973.519 4.384h-133.455c-2.377 0-4.385-2.008-4.385-4.384zm280.737-16.141c2.377 0 4.385 2.008 4.385 4.385v11.757c0 2.376-2.008 4.384-4.385 4.384h-31.222c.328-1.411.519-2.874.519-4.384v-11.758c0-1.51-.191-2.973-.519-4.384zm-50.087 0c2.376 0 4.384 2.008 4.384 4.384v11.758c0 2.376-2.008 4.384-4.384 4.384h-73.945c-2.376 0-4.384-2.008-4.384-4.384v-11.758c0-2.376 2.008-4.384 4.384-4.384zm-53.785-15c0-7.483 0-220.04 0-236.484 0-9.271 7.542-16.813 16.813-16.813s16.813 7.542 16.813 16.813v236.484zm62.796-121.129v95.767h-14.171v-95.767zm-14.171-40.566v-38.476h3.45l25.141 38.476zm96.158 0-25.142-38.476h32.696l25.141 38.476zm100.263 0-25.141-38.476h32.696l25.141 38.476zm60.089-3.987c0 2.198-1.789 3.987-3.987 3.987h-5.488l-25.14-38.476h30.628c2.198 0 3.987 1.789 3.987 3.987z"/><path d="m208.678 263.918c-4.143 0-7.5 3.357-7.5 7.5v17.496c0 4.143 3.357 7.5 7.5 7.5s7.5-3.357 7.5-7.5v-17.496c0-4.143-3.358-7.5-7.5-7.5z"/><path d="m96.296 148.215c-2.93-2.928-7.678-2.928-10.607 0l-30.029 30.028c-2.929 2.93-2.929 7.678 0 10.607 2.931 2.929 7.678 2.928 10.607 0l30.028-30.028c2.93-2.929 2.93-7.677.001-10.607z"/><path d="m116.521 161.032-48.045 48.044c-2.929 2.93-2.929 7.678 0 10.607 2.931 2.929 7.678 2.928 10.607 0l48.045-48.044c2.929-2.93 2.929-7.678 0-10.607-2.928-2.928-7.676-2.928-10.607 0z"/></g></g></svg>