<?xml version="1.0" encoding="iso-8859-1"?>
<!-- Generator: Adobe Illustrator 19.0.0, SVG Export Plug-In . SVG Version: 6.00 Build 0)  -->
<svg xmlns="http://www.w3.org/2000/svg" xmlns:xlink="http://www.w3.org/1999/xlink" version="1.1" id="Layer_1" x="0px" y="0px" viewBox="0 0 512 512" style="enable-background:new 0 0 512 512;" xml:space="preserve">
<g>
	<path style="fill:#5B5E5E;" d="M341.183,444.735H170.077c-4.556,0-8.249-3.693-8.249-8.249s3.693-8.249,8.249-8.249h171.106   c4.556,0,8.249,3.693,8.249,8.249S345.739,444.735,341.183,444.735z"/>
	<path style="fill:#5B5E5E;" d="M357.669,477.704H156.261c-4.556,0-8.249-3.693-8.249-8.249s3.693-8.249,8.249-8.249h201.407   c4.556,0,8.249,3.693,8.249,8.249C365.918,474.011,362.224,477.704,357.669,477.704z"/>
</g>
<g>
	<path style="fill:#424444;" d="M156.261,477.704h21.823l8.203-16.498H161.72l-8.003,16.094   C154.519,477.56,155.374,477.704,156.261,477.704z"/>
	<path style="fill:#424444;" d="M178.114,428.237l-8.2,16.491c0.054,0.001,0.108,0.008,0.162,0.008h24.401l8.204-16.498H178.114z"/>
</g>
<path style="fill:#6E7070;" d="M341.552,45.45V16.041c0-8.86-7.183-16.041-16.041-16.041H186.487  c-8.86,0-16.041,7.181-16.041,16.041V45.45H341.552z"/>
<path style="fill:#797C7C;" d="M251.119,45.45h90.433V16.041c0-8.86-7.183-16.041-16.041-16.041h-26.214  C280.836,12.396,264.55,27.778,251.119,45.45z"/>
<rect x="228.601" style="fill:#424444;" width="54.805" height="45.448"/>
<path style="fill:#5B5E5E;" d="M251.119,45.45h32.283V11.859C271.392,21.769,260.551,33.042,251.119,45.45z"/>
<path style="fill:#FF5357;" d="M399.7,78.465V60.391c0-8.86-7.181-16.041-16.041-16.041h-255.32  c-8.862,0-16.043,7.181-16.043,16.041v321.974H399.7V105.23"/>
<path style="fill:#FF6971;" d="M383.66,44.35H251.964c-26.132,33.899-41.685,76.372-41.685,122.484  c0,107.082,83.817,194.579,189.422,200.485V105.23V78.465V60.391C399.7,51.532,392.519,44.35,383.66,44.35z"/>
<path style="fill:#97D3EE;" d="M163.996,222.14h184.01h15.725c0.202-0.87,0.316-1.773,0.316-2.704V91.354  c0-6.662-5.4-12.06-12.063-12.06h-191.97c-6.662,0-12.06,5.399-12.06,12.06v128.084c0,0.93,0.114,1.834,0.316,2.704h15.726V222.14z"/>
<path style="fill:#4CBCD6;" d="M160.014,79.292c-6.662,0-12.06,5.399-12.06,12.06v128.084c0,0.463,0.027,0.92,0.081,1.369  c0.002,0.012,0.004,0.024,0.007,0.037c0.054,0.439,0.129,0.872,0.228,1.297h15.725h92.004V79.292H160.014z"/>
<path style="fill:#3AABCE;" d="M170.034,220.806c-0.054-0.449-0.081-0.905-0.081-1.369V91.354c0-6.662,5.398-12.06,12.06-12.06  h-21.998c-6.662,0-12.06,5.399-12.06,12.06v128.084c0,0.463,0.027,0.919,0.081,1.369c0.002,0.012,0.004,0.024,0.007,0.037  c0.054,0.439,0.129,0.872,0.228,1.297h15.725h6.273c-0.099-0.425-0.174-0.858-0.228-1.297  C170.038,220.83,170.036,220.818,170.034,220.806z"/>
<path style="fill:#5BC5EF;" d="M210.279,166.835c0,19.184,2.704,37.735,7.727,55.306h37.994V79.292h-25.666  C217.49,105.751,210.279,135.448,210.279,166.835z"/>
<path style="fill:#E6E9ED;" d="M353.505,214.441h-10.999H169.495h-10.999c-8.86,0-16.041,7.182-16.041,16.04v2.862  c0,8.859,7.181,16.04,16.041,16.04h10.999h173.011h10.999c8.86,0,16.041-7.181,16.041-16.04v-2.862  C369.546,221.623,362.365,214.441,353.505,214.441z"/>
<path style="fill:#C4C8CE;" d="M353.505,233.012h-10.999H169.495h-10.999c-6.442,0-11.983-3.807-14.534-9.285  c-0.957,2.056-1.507,4.338-1.507,6.754v2.862c0,8.859,7.181,16.04,16.041,16.04h10.999h173.011h10.999  c8.86,0,16.041-7.181,16.041-16.04v-2.862c0-2.416-0.55-4.699-1.507-6.754C365.488,229.206,359.948,233.012,353.505,233.012z"/>
<g>
	<path style="fill:#F7A539;" d="M337.204,348.616c-14.799,0-26.842-12.042-26.842-26.844c0-14.8,12.043-26.843,26.842-26.843   c14.801,0,26.842,12.043,26.842,26.843C364.046,336.575,352.006,348.616,337.204,348.616z"/>
	<path style="fill:#F7A539;" d="M174.794,348.616c-14.799,0-26.84-12.042-26.84-26.844c0-14.8,12.041-26.843,26.84-26.843   c14.801,0,26.844,12.043,26.844,26.843C201.638,336.575,189.596,348.616,174.794,348.616z"/>
</g>
<g>
	<path style="fill:#F98B38;" d="M332.419,321.772c0-10.87,6.5-20.247,15.814-24.463c-3.366-1.524-7.098-2.38-11.027-2.38   c-14.799,0-26.842,12.043-26.842,26.843c0,14.801,12.043,26.844,26.842,26.844c3.93,0,7.662-0.856,11.027-2.38   C338.919,342.02,332.419,332.645,332.419,321.772z"/>
	<path style="fill:#F98B38;" d="M170.01,321.772c0-10.87,6.499-20.246,15.813-24.463c-3.367-1.524-7.099-2.38-11.029-2.38   c-14.799,0-26.84,12.043-26.84,26.843c0,14.801,12.041,26.844,26.84,26.844c3.93,0,7.662-0.856,11.029-2.38   C176.509,342.02,170.01,332.645,170.01,321.772z"/>
</g>
<g>
	<path style="fill:#E23740;" d="M277.166,305.916h-42.333c-4.556,0-8.249-3.693-8.249-8.249s3.693-8.249,8.249-8.249h42.333   c4.556,0,8.249,3.693,8.249,8.249C285.415,302.223,281.722,305.916,277.166,305.916z"/>
	<path style="fill:#E23740;" d="M277.166,331.391h-42.333c-4.556,0-8.249-3.693-8.249-8.249s3.693-8.249,8.249-8.249h42.333   c4.556,0,8.249,3.693,8.249,8.249C285.415,327.698,281.722,331.391,277.166,331.391z"/>
	<path style="fill:#E23740;" d="M277.166,356.866h-42.333c-4.556,0-8.249-3.693-8.249-8.249s3.693-8.249,8.249-8.249h42.333   c4.556,0,8.249,3.693,8.249,8.249S281.722,356.866,277.166,356.866z"/>
</g>
<path style="fill:#797C7C;" d="M380.015,512H131.987c-2.864,0-5.526-1.487-7.026-3.927c-1.501-2.441-1.628-5.485-0.338-8.042  l49.459-97.89c1.403-2.777,4.251-4.529,7.363-4.529h149.11c3.112,0,5.959,1.751,7.363,4.529l49.459,97.89  c1.291,2.557,1.165,5.602-0.338,8.042C385.539,510.513,382.879,512,380.015,512z M145.396,495.502h221.208l-41.124-81.392H186.52  L145.396,495.502z"/>
<path style="fill:#E6E9ED;" d="M168.071,381.266h-51.31c-8.857,0-16.041,7.182-16.041,16.041v2.861  c0,8.86,7.183,16.041,16.041,16.041h94.466h89.547h94.464c8.862,0,16.043-7.181,16.043-16.041v-2.861  c0-8.859-7.181-16.041-16.043-16.041h-94.464h-91.746h-12.358"/>
<path style="fill:#C4C8CE;" d="M395.237,399.836h-94.464h-89.547H116.76c-6.441,0-11.982-3.806-14.534-9.285  c-0.957,2.056-1.507,4.338-1.507,6.756v2.861c0,8.86,7.183,16.041,16.041,16.041h94.466h89.547h94.464  c8.862,0,16.043-7.181,16.043-16.041v-2.861c0-2.416-0.55-4.7-1.507-6.756C407.22,396.031,401.68,399.836,395.237,399.836z"/>
<g>
</g>
<g>
</g>
<g>
</g>
<g>
</g>
<g>
</g>
<g>
</g>
<g>
</g>
<g>
</g>
<g>
</g>
<g>
</g>
<g>
</g>
<g>
</g>
<g>
</g>
<g>
</g>
<g>
</g>
</svg>
