<?xml version="1.0" encoding="iso-8859-1"?>
<!-- Generator: Adobe Illustrator 19.0.0, SVG Export Plug-In . SVG Version: 6.00 Build 0)  -->
<svg xmlns="http://www.w3.org/2000/svg" xmlns:xlink="http://www.w3.org/1999/xlink" version="1.1" id="Layer_1" x="0px" y="0px" viewBox="0 0 512.001 512.001" style="enable-background:new 0 0 512.001 512.001;" xml:space="preserve">
<path style="fill:#E6E9ED;" d="M488.33,263.295c0-7.143-5.792-12.935-12.935-12.935h-5.067l-59.335-99.581H304.823v232.556h43.535  c-1.911-5.23-2.956-10.878-2.956-16.771c0-26.965,21.859-48.821,48.821-48.821c26.967,0,48.823,21.856,48.823,48.821  c0,5.893-1.044,11.541-2.956,16.771h47.339c-8.404,0-15.217-6.812-15.217-15.217v-29.659c0-8.402,6.812-15.217,15.217-15.217h0.901  l-0.168-27.168c0.101-0.648,0.168-1.305,0.168-1.981v-30.798H488.33z"/>
<path style="fill:#97D3EE;" d="M438.164,250.36h32.164l-59.335-99.581h-59.251c-8.404,0-15.219,6.814-15.219,15.217v69.147  c0,8.404,6.814,15.217,15.219,15.217h59.114"/>
<path style="fill:#49B5CE;" d="M365.28,234.881v-69.147c0-8.402,6.814-15.217,15.219-15.217h-21.558  c-8.404,0-15.219,6.814-15.219,15.217v69.147c0,8.404,6.814,15.217,15.219,15.217h21.558  C372.095,250.098,365.28,243.286,365.28,234.881z"/>
<rect x="312.018" y="150.517" style="fill:#B6C1CC;" width="21.558" height="232.556"/>
<path style="fill:#6E7070;" d="M8.084,264.373V370.4c0,7.143,5.792,12.935,12.935,12.935H53.65  c-1.911-5.23-2.956-10.878-2.956-16.771c0-26.965,21.859-48.821,48.821-48.821c26.967,0,48.823,21.856,48.823,48.821  c0,5.893-1.044,11.541-2.956,16.771h44.865h101.64h12.935V370.4v-67.806v-38.221L8.084,264.373L8.084,264.373z"/>
<polyline style="fill:#E6E9ED;" points="248.731,293.785 8.084,293.785 8.084,264.373 304.823,264.373 304.823,293.785   276.211,293.785 "/>
<path style="fill:#787A7A;" d="M298.007,380.864v-10.725v-67.806v-38.221H180.092C200.215,318.328,243.538,361.263,298.007,380.864z  "/>
<path style="fill:#464949;" d="M36.84,370.139V264.112H15.282v106.027c0,7.143,5.792,12.935,12.935,12.935h21.558  C42.632,383.074,36.84,377.282,36.84,370.139z"/>
<rect x="15.282" y="264.116" style="fill:#918887;" width="21.558" height="28.335"/>
<path style="fill:#F2F2F2;" d="M193.274,292.446h48.64h27.482h28.611v-29.413H179.69  C183.419,273.262,187.977,283.09,193.274,292.446z"/>
<path style="fill:#5B5E5E;" d="M304.823,264.373V111.316c0-8.121-6.585-14.706-14.708-14.706c-8.12,0-14.706,6.585-14.706,14.706  v153.056h29.414V264.373z"/>
<path style="fill:#F7A539;" d="M503.916,368.118c0,8.404-6.812,15.217-15.217,15.217h-1.27c-8.404,0-15.217-6.812-15.217-15.217  v-29.659c0-8.402,6.812-15.217,15.217-15.217h1.27c8.404,0,15.217,6.814,15.217,15.217V368.118z"/>
<g>
	<circle style="fill:#5B5E5E;" cx="394.229" cy="366.559" r="48.818"/>
	<circle style="fill:#5B5E5E;" cx="99.522" cy="366.559" r="48.818"/>
</g>
<g>
	<circle style="fill:#E6E9ED;" cx="394.229" cy="366.559" r="16.77"/>
	<circle style="fill:#E6E9ED;" cx="99.522" cy="366.559" r="16.77"/>
</g>
<g>
	<path style="fill:#464949;" d="M298.197,99.412c-2.164-1.255-4.672-1.984-7.351-1.984c-8.122,0-14.708,6.585-14.708,14.707V265.19   h14.708V112.133C290.846,106.694,293.808,101.955,298.197,99.412z"/>
	<path style="fill:#464949;" d="M373.08,366.303c0-23.259,16.268-42.703,38.042-47.613c-3.47-0.781-7.074-1.208-10.779-1.208   c-26.962,0-48.821,21.856-48.821,48.821c0,26.967,21.859,48.825,48.821,48.825c3.706,0,7.309-0.426,10.779-1.208   C389.347,409.01,373.08,389.562,373.08,366.303z"/>
	<path style="fill:#464949;" d="M79.451,366.303c0-23.259,16.268-42.703,38.042-47.613c-3.47-0.781-7.074-1.208-10.779-1.208   c-26.962,0-48.821,21.856-48.821,48.821c0,26.967,21.859,48.825,48.821,48.825c3.706,0,7.309-0.426,10.779-1.208   C95.718,409.01,79.451,389.562,79.451,366.303z"/>
</g>
<path style="fill:#ED6529;" d="M488.794,367.856v-29.659c0-5.761,3.205-10.774,7.927-13.357c-2.167-1.185-4.649-1.86-7.291-1.86  h-1.27c-8.404,0-15.217,6.814-15.217,15.217v29.659c0,8.404,6.812,15.217,15.217,15.217h1.27c2.642,0,5.124-0.675,7.291-1.86  C491.997,378.63,488.794,373.618,488.794,367.856z"/>
<g>
	<path style="fill:#231F20;" d="M370.765,271.688h-29.167c-4.466,0-8.084,3.618-8.084,8.084s3.618,8.084,8.084,8.084h29.167   c4.466,0,8.084-3.618,8.084-8.084S375.229,271.688,370.765,271.688z"/>
	<path style="fill:#231F20;" d="M394.223,341.714c-13.704,0-24.853,11.149-24.853,24.851c0,13.705,11.149,24.855,24.853,24.855   c13.705,0,24.855-11.15,24.855-24.855C419.078,352.861,407.928,341.714,394.223,341.714z M394.223,375.25   c-4.788,0-8.685-3.897-8.685-8.687c0-4.787,3.896-8.682,8.685-8.682c4.789,0,8.687,3.894,8.687,8.682   C402.909,371.354,399.013,375.25,394.223,375.25z"/>
	<path style="fill:#231F20;" d="M99.516,341.714c-13.704,0-24.853,11.149-24.853,24.851c0,13.705,11.149,24.855,24.853,24.855   c13.705,0,24.855-11.15,24.855-24.855C124.371,352.861,113.221,341.714,99.516,341.714z M99.516,375.25   c-4.788,0-8.685-3.897-8.685-8.687c0-4.787,3.896-8.682,8.685-8.682c4.789,0,8.687,3.894,8.687,8.682   C108.202,371.354,104.306,375.25,99.516,375.25z"/>
	<path style="fill:#231F20;" d="M496.373,316.462l-0.124-19.85c0.112-0.876,0.165-1.707,0.165-2.519v-30.798   c0-11.59-9.429-21.019-21.019-21.019h-0.473l-56.983-95.635c-1.459-2.448-4.097-3.946-6.945-3.946h-59.251h-38.835v-31.378   c0-12.566-10.224-22.79-22.792-22.79c-12.566,0-22.79,10.224-22.79,22.79v81.169h-39.979c-3.292,0-6.255,1.996-7.491,5.047   l-23.824,58.757H8.084c-4.466,0-8.084,3.618-8.084,8.084v29.413v76.615c0,11.59,9.429,21.019,21.019,21.019h27.316   c9.243,18.959,28.71,32.054,51.181,32.054c22.472,0,41.939-13.096,51.183-32.054h154.125h38.22   c9.243,18.959,28.71,32.054,51.181,32.054c22.472,0,41.939-13.096,51.183-32.054h42.024c0.006-0.001,0.015-0.001,0.022,0h1.248   c12.849,0,23.301-10.452,23.301-23.301v-29.66C512,328.298,505.461,319.642,496.373,316.462z M283.495,111.316   c0-3.652,2.971-6.622,6.621-6.622c3.652,0,6.624,2.971,6.624,6.622v39.462v105.51h-13.244V111.316H283.495z M232.793,208.653   h34.534v47.634h-53.847L232.793,208.653z M99.516,407.305c-17.487,0-32.432-11.079-38.196-26.585   c-0.023-0.068-0.052-0.133-0.077-0.199c-0.679-1.858-1.228-3.778-1.633-5.751c-0.002-0.009-0.003-0.017-0.005-0.026   c-0.124-0.604-0.231-1.213-0.327-1.826c-0.022-0.135-0.04-0.271-0.059-0.405c-0.072-0.493-0.135-0.987-0.19-1.485   c-0.019-0.181-0.04-0.363-0.057-0.545c-0.045-0.474-0.08-0.951-0.109-1.429c-0.011-0.181-0.025-0.361-0.033-0.542   c-0.03-0.646-0.05-1.295-0.05-1.947c0-22.462,18.275-40.737,40.737-40.737c22.463,0,40.739,18.275,40.739,40.737   c0,0.661-0.018,1.318-0.05,1.971c-0.009,0.184-0.025,0.368-0.036,0.551c-0.029,0.479-0.064,0.957-0.109,1.431   c-0.018,0.191-0.041,0.38-0.063,0.57c-0.053,0.48-0.112,0.957-0.182,1.431c-0.024,0.162-0.049,0.324-0.074,0.486   c-0.084,0.525-0.177,1.046-0.28,1.564c-0.02,0.105-0.041,0.209-0.063,0.314C135.546,393.371,119.129,407.305,99.516,407.305z    M156.099,372.61c0.023-0.213,0.041-0.429,0.061-0.643c0.064-0.676,0.115-1.353,0.155-2.032c0.014-0.241,0.03-0.483,0.041-0.725   c0.04-0.88,0.067-1.761,0.067-2.646c0-31.378-25.529-56.905-56.907-56.905c-31.378,0-56.905,25.528-56.905,56.905   c0,0.885,0.027,1.767,0.067,2.646c0.011,0.243,0.027,0.483,0.041,0.725c0.04,0.679,0.092,1.357,0.155,2.032   c0.02,0.215,0.039,0.43,0.061,0.643c0.094,0.883,0.2,1.763,0.334,2.64h-22.25c-2.674,0-4.851-2.176-4.851-4.851v-68.53h232.562   c4.466,0,8.084-3.618,8.084-8.084c0-4.466-3.618-8.084-8.084-8.084H16.168v-13.244H201.43c0.015,0,0.029,0.002,0.044,0.002   c0.01,0,0.019-0.002,0.028-0.002h73.907h21.328v13.244h-20.527c-4.466,0-8.084,3.618-8.084,8.084c0,4.466,3.618,8.084,8.084,8.084   h20.529v73.381H155.764C155.899,374.374,156.005,373.493,156.099,372.61z M394.223,407.305c-17.501,0-32.455-11.096-38.21-26.621   c-0.018-0.054-0.041-0.105-0.06-0.157c-0.68-1.859-1.23-3.782-1.635-5.756c-0.002-0.009-0.003-0.018-0.005-0.028   c-0.124-0.604-0.231-1.213-0.327-1.825c-0.021-0.134-0.04-0.268-0.059-0.403c-0.072-0.494-0.135-0.99-0.19-1.489   c-0.019-0.181-0.04-0.361-0.057-0.542c-0.045-0.474-0.08-0.952-0.109-1.43c-0.011-0.181-0.025-0.361-0.033-0.542   c-0.03-0.646-0.05-1.295-0.05-1.947c0-22.462,18.275-40.737,40.737-40.737c22.463,0,40.739,18.275,40.739,40.737   c0,0.661-0.018,1.318-0.05,1.971c-0.009,0.184-0.025,0.368-0.036,0.551c-0.029,0.479-0.064,0.957-0.109,1.431   c-0.018,0.191-0.041,0.38-0.063,0.57c-0.054,0.48-0.112,0.957-0.182,1.431c-0.024,0.162-0.048,0.324-0.074,0.486   c-0.084,0.524-0.177,1.044-0.28,1.562c-0.021,0.106-0.041,0.211-0.063,0.317C430.254,393.372,413.835,407.305,394.223,407.305z    M450.472,375.25c0.135-0.875,0.241-1.756,0.334-2.638c0.023-0.215,0.041-0.431,0.061-0.647c0.064-0.675,0.115-1.352,0.155-2.031   c0.014-0.241,0.03-0.483,0.041-0.725c0.04-0.88,0.067-1.761,0.067-2.646c0-31.378-25.529-56.905-56.907-56.905   c-31.378,0-56.905,25.528-56.905,56.905c0,0.885,0.027,1.767,0.068,2.646c0.011,0.243,0.027,0.483,0.041,0.725   c0.04,0.68,0.092,1.358,0.155,2.034c0.02,0.213,0.039,0.428,0.06,0.64c0.094,0.884,0.2,1.765,0.335,2.641h-25.07v-81.465v-29.413   v-105.51h16.654c-0.725,2.25-1.121,4.646-1.121,7.132v69.147c0,12.848,10.453,23.301,23.303,23.301h59.114   c4.466,0,8.084-3.618,8.084-8.084s-3.618-8.084-8.084-8.084h-59.114c-3.933,0-7.135-3.2-7.135-7.132v-69.147   c0-3.932,3.201-7.132,7.135-7.132H406.4l49.701,83.413h-17.936c-4.466,0-8.084,3.618-8.084,8.084s3.618,8.084,8.084,8.084h32.164   h5.067c2.674,0,4.851,2.176,4.851,4.851v30.798c0,0.184-0.023,0.426-0.071,0.737c-0.068,0.428-0.099,0.861-0.097,1.295l0.125,20.18   c-0.067,0.022-0.13,0.051-0.197,0.073c-0.467,0.157-0.927,0.327-1.38,0.512c-0.063,0.026-0.126,0.049-0.188,0.074   c-0.489,0.206-0.968,0.431-1.44,0.668c-0.108,0.054-0.216,0.11-0.322,0.165c-0.469,0.245-0.929,0.501-1.379,0.776   c-0.052,0.031-0.101,0.066-0.152,0.098c-0.416,0.26-0.824,0.534-1.222,0.818c-0.085,0.061-0.172,0.121-0.257,0.183   c-0.419,0.308-0.827,0.63-1.224,0.964c-0.083,0.07-0.163,0.141-0.246,0.212c-0.376,0.326-0.743,0.661-1.097,1.009   c-0.033,0.033-0.069,0.065-0.102,0.098c-0.373,0.372-0.73,0.759-1.077,1.154c-0.079,0.089-0.156,0.179-0.234,0.269   c-0.338,0.398-0.667,0.805-0.979,1.226c-0.043,0.058-0.084,0.119-0.127,0.178c-0.285,0.39-0.555,0.791-0.816,1.2   c-0.053,0.084-0.109,0.166-0.161,0.25c-0.275,0.444-0.535,0.898-0.779,1.361c-0.053,0.099-0.102,0.199-0.153,0.299   c-0.236,0.461-0.46,0.93-0.666,1.409c-0.011,0.024-0.023,0.047-0.032,0.072c-0.21,0.495-0.399,1.001-0.575,1.513   c-0.039,0.112-0.078,0.224-0.114,0.337c-0.166,0.508-0.318,1.022-0.449,1.544c-0.021,0.081-0.037,0.163-0.056,0.244   c-0.116,0.484-0.217,0.973-0.303,1.468c-0.016,0.093-0.035,0.183-0.05,0.277c-0.086,0.538-0.152,1.081-0.201,1.63   c-0.011,0.119-0.018,0.238-0.027,0.358c-0.042,0.567-0.07,1.137-0.07,1.714v29.659c0,0.554,0.026,1.102,0.065,1.646   c0.009,0.127,0.018,0.253,0.029,0.379c0.046,0.534,0.106,1.063,0.188,1.586c0.01,0.063,0.023,0.123,0.033,0.185   c0.079,0.475,0.172,0.945,0.279,1.41c0.027,0.12,0.054,0.238,0.083,0.357c0.123,0.5,0.26,0.994,0.415,1.48   c0.01,0.029,0.015,0.059,0.025,0.088h-14.774V375.25z M495.832,368.118c0,3.932-3.2,7.132-7.132,7.132h-1.248h-0.015   c0,0-0.002,0-0.006,0c-3.932,0-7.132-3.2-7.132-7.132v-29.659c0-3.932,3.2-7.132,7.132-7.132h0.901h0.369   c3.932,0,7.132,3.2,7.132,7.132V368.118z"/>
</g>
<g>
</g>
<g>
</g>
<g>
</g>
<g>
</g>
<g>
</g>
<g>
</g>
<g>
</g>
<g>
</g>
<g>
</g>
<g>
</g>
<g>
</g>
<g>
</g>
<g>
</g>
<g>
</g>
<g>
</g>
</svg>
