<?xml version="1.0" encoding="iso-8859-1"?>
<!-- Generator: Adobe Illustrator 19.0.0, SVG Export Plug-In . SVG Version: 6.00 Build 0)  -->
<svg xmlns="http://www.w3.org/2000/svg" xmlns:xlink="http://www.w3.org/1999/xlink" version="1.1" id="Layer_1" x="0px" y="0px" viewBox="0 0 512 512" style="enable-background:new 0 0 512 512;" xml:space="preserve">
<path style="fill:#45B9DD;" d="M252.004,254.204v-16.916H21.019c-7.143,0-12.935,5.792-12.935,12.935v93.092  c0,7.143,5.792,12.935,12.935,12.935H53.65c-1.911-5.23-2.956-10.878-2.956-16.771c0-26.965,21.859-48.821,48.821-48.821  c26.965,0,48.823,21.856,48.823,48.821c0,5.893-1.044,11.541-2.956,16.771h44.865h48.821h12.935"/>
<path style="fill:#2EA4BF;" d="M37.882,344.393V251.3c0-7.143,5.792-12.935,12.935-12.935h-3.799H28.724  c-7.143,0-12.935,5.792-12.935,12.935v93.092c0,7.143,5.792,12.935,12.935,12.935h18.294h3.797  C43.673,357.328,37.882,351.536,37.882,344.393z"/>
<path style="fill:#FF5357;" d="M21.019,237.288c-7.143,0-12.935,5.792-12.935,12.935v17.64H37.76  c7.143,0,12.935-5.792,12.935-12.935v-17.64H21.019z"/>
<path style="fill:#ED3A47;" d="M47.018,238.366H28.724c-7.143,0-12.935,5.792-12.935,12.935v16.562H37.76  c0.04,0,0.08-0.006,0.121-0.006V251.3c0-7.102,5.727-12.864,12.814-12.928v-0.006L47.018,238.366L47.018,238.366z"/>
<path style="fill:#5BC5EF;" d="M252.004,286.539v69.711h96.354c-1.911-5.23-2.956-10.878-2.956-16.771  c0-26.965,21.859-48.821,48.821-48.821c26.965,0,48.823,21.856,48.823,48.821c0,5.893-1.044,11.541-2.956,16.771h47.339  c-8.404,0-15.217-6.812-15.217-15.217v-29.659c0-8.402,6.812-15.217,15.217-15.217h0.899l-0.166-27.168  c0.099-0.649,0.166-1.305,0.166-1.981V236.21c0-7.143-5.789-12.935-12.935-12.935h-5.065l-93.83-99.581H264.939  c-7.143,0-12.935,5.792-12.935,12.935v124.047"/>
<path style="fill:#D0F2FC;" d="M438.164,223.275h32.164l-93.83-99.581l0,0h-3.198h-34.916h-23.331h-14.362  c-8.404,0-15.219,6.814-15.219,15.217v69.147c0,8.404,6.814,15.217,15.219,15.217h37.556h27.307h7.746h24.419h13.137"/>
<path style="fill:#B4E7F9;" d="M348.623,123.694h-7.017h-23.331h-14.36c-8.404,0-15.219,6.814-15.219,15.217v69.147  c0,8.404,6.814,15.217,15.219,15.217h37.556h7.152L348.623,123.694L348.623,123.694z"/>
<g>
	<circle style="fill:#5B5E5E;" cx="394.229" cy="339.482" r="48.818"/>
	<circle style="fill:#5B5E5E;" cx="99.522" cy="339.482" r="48.818"/>
</g>
<g>
	<circle style="fill:#E6E9ED;" cx="394.218" cy="339.482" r="16.77"/>
	<circle style="fill:#E6E9ED;" cx="99.522" cy="339.482" r="16.77"/>
</g>
<path style="fill:#F7A539;" d="M503.916,341.033c0,8.404-6.814,15.217-15.217,15.217h-1.27c-8.404,0-15.217-6.812-15.217-15.217  v-29.659c0-8.402,6.812-15.217,15.217-15.217h1.27c8.402,0,15.217,6.814,15.217,15.217V341.033z"/>
<path style="fill:#5BC5EF;" d="M148.339,238.366c5.497,46.582,27.252,88.183,59.451,118.962h13.137h12.935h5.36h12.935V255.282  v-16.916h-18.295L148.339,238.366L148.339,238.366z"/>
<path style="fill:#ED6529;" d="M488.223,342.111v-29.659c0-5.76,3.205-10.772,7.927-13.357c-2.167-1.185-4.649-1.86-7.291-1.86  h-1.27c-8.404,0-15.217,6.814-15.217,15.217v29.659c0,8.404,6.812,15.217,15.217,15.217h1.27c2.642,0,5.124-0.676,7.291-1.859  C491.427,352.885,488.223,347.872,488.223,342.111z"/>
<g>
	<path style="fill:#464949;" d="M375.199,340.557c0-23.163,16.136-42.543,37.776-47.55c-3.552-0.822-7.247-1.271-11.046-1.271   c-26.962,0-48.821,21.856-48.821,48.821c0,26.967,21.859,48.825,48.821,48.825c3.8,0,7.495-0.448,11.046-1.271   C391.335,383.104,375.199,363.722,375.199,340.557z"/>
	<path style="fill:#464949;" d="M80.492,340.557c0-23.163,16.136-42.543,37.776-47.55c-3.552-0.822-7.247-1.271-11.046-1.271   c-26.962,0-48.821,21.856-48.821,48.821c0,26.967,21.859,48.825,48.821,48.825c3.8,0,7.495-0.448,11.046-1.271   C96.628,383.104,80.492,363.722,80.492,340.557z"/>
</g>
<path style="fill:#49B5CE;" d="M287.031,124.772h-14.388h-7.705c-7.143,0-12.935,5.792-12.935,12.935v124.047v25.863v69.711h7.705  h14.388h7.705v-69.711v-25.863V137.706c0-7.143,5.79-12.935,12.935-12.935H287.031z"/>
<path style="fill:#97D3EE;" d="M315.271,209.135v-69.147c0-8.402,6.814-15.217,15.219-15.217h-7.731h-14.362  c-8.404,0-15.219,6.814-15.219,15.217v69.147c0,8.404,6.814,15.217,15.219,15.217h22.093  C322.087,224.353,315.271,217.54,315.271,209.135z"/>
<g>
	<path style="fill:#231F20;" d="M391.815,244.603h-29.167c-4.466,0-8.084,3.618-8.084,8.084s3.618,8.084,8.084,8.084h29.167   c4.466,0,8.084-3.618,8.084-8.084S396.28,244.603,391.815,244.603z"/>
	<path style="fill:#231F20;" d="M394.223,314.629c-13.705,0-24.855,11.149-24.855,24.851c0,13.705,11.15,24.855,24.855,24.855   c13.704,0,24.853-11.15,24.853-24.855C419.076,325.776,407.927,314.629,394.223,314.629z M394.223,348.165   c-4.789,0-8.687-3.897-8.687-8.687c0-4.787,3.897-8.682,8.687-8.682c4.788,0,8.685,3.894,8.685,8.682   C402.907,344.269,399.012,348.165,394.223,348.165z"/>
	<path style="fill:#231F20;" d="M99.516,314.629c-13.704,0-24.853,11.149-24.853,24.851c0,13.705,11.149,24.855,24.853,24.855   c13.705,0,24.855-11.15,24.855-24.855C124.371,325.776,113.221,314.629,99.516,314.629z M99.516,348.165   c-4.788,0-8.685-3.897-8.685-8.687c0-4.787,3.896-8.682,8.685-8.682c4.789,0,8.687,3.894,8.687,8.682   C108.202,344.269,104.306,348.165,99.516,348.165z"/>
	<path style="fill:#231F20;" d="M496.372,289.377l-0.122-19.86c0.11-0.877,0.163-1.705,0.163-2.509V236.21   c0-11.59-9.429-21.019-21.019-21.019h-1.574l-91.437-97.041c-1.528-1.621-3.657-2.54-5.884-2.54h-75.806h-35.754   c-11.59,0-21.019,9.429-21.019,21.019v22.235l-70.835,70.34H50.694H21.019C9.429,229.205,0,238.634,0,250.224v17.64v75.453   c0,11.59,9.429,21.019,21.019,21.019h27.316c9.243,18.959,28.71,32.054,51.181,32.054c22.472,0,41.939-13.096,51.183-32.054   h101.306h91.038c9.243,18.959,28.71,32.054,51.181,32.054c22.472,0,41.939-13.096,51.183-32.054h42.024h1.27   c12.849,0,23.301-10.452,23.301-23.301v-29.659C512,301.213,505.46,292.556,496.372,289.377z M337.317,131.778v83.413h-36.626   c-3.933,0-7.135-3.2-7.135-7.132v-69.147c0-3.932,3.201-7.132,7.135-7.132h36.626V131.778z M243.92,181.649v47.553h-47.889   L243.92,181.649z M16.168,250.222c0-2.674,2.176-4.851,4.851-4.851H42.61v9.556c0,2.674-2.176,4.851-4.851,4.851H16.168V250.222z    M99.516,380.22c-19.612,0-36.029-13.934-39.88-32.422c-0.022-0.105-0.042-0.209-0.063-0.314c-0.103-0.517-0.196-1.039-0.28-1.564   c-0.026-0.162-0.051-0.323-0.074-0.486c-0.07-0.474-0.129-0.952-0.182-1.431c-0.022-0.19-0.044-0.379-0.063-0.57   c-0.045-0.474-0.08-0.953-0.109-1.431c-0.011-0.183-0.027-0.366-0.036-0.551c-0.031-0.653-0.05-1.311-0.05-1.971   c0-22.462,18.275-40.737,40.737-40.737c22.463,0,40.739,18.275,40.739,40.737c0,0.662-0.018,1.318-0.05,1.971   c-0.009,0.184-0.025,0.368-0.036,0.551c-0.029,0.48-0.064,0.957-0.109,1.431c-0.018,0.191-0.041,0.38-0.063,0.57   c-0.053,0.48-0.112,0.957-0.182,1.431c-0.024,0.162-0.049,0.324-0.074,0.486c-0.084,0.524-0.177,1.044-0.28,1.562   c-0.022,0.106-0.041,0.211-0.063,0.317C135.546,366.287,119.129,380.22,99.516,380.22z M394.223,380.22   c-18.953,0-34.924-13.011-39.452-30.571c0,0,0,0,0-0.001c-0.157-0.61-0.299-1.227-0.427-1.848   c-0.023-0.107-0.042-0.212-0.064-0.319c-0.103-0.516-0.196-1.036-0.279-1.559c-0.026-0.163-0.052-0.326-0.075-0.488   c-0.07-0.474-0.129-0.952-0.182-1.43c-0.02-0.19-0.044-0.379-0.063-0.57c-0.046-0.474-0.08-0.953-0.109-1.431   c-0.011-0.183-0.027-0.366-0.036-0.551c-0.031-0.653-0.05-1.311-0.05-1.971c0-22.462,18.275-40.737,40.737-40.737   c22.463,0,40.739,18.275,40.739,40.737c0,0.662-0.018,1.318-0.05,1.971c-0.009,0.184-0.025,0.368-0.036,0.551   c-0.029,0.48-0.064,0.957-0.11,1.433c-0.018,0.19-0.041,0.378-0.061,0.568c-0.054,0.481-0.113,0.96-0.183,1.436   c-0.024,0.161-0.049,0.32-0.073,0.481c-0.084,0.527-0.177,1.05-0.281,1.569c-0.02,0.102-0.04,0.206-0.061,0.308   C430.256,366.285,413.837,380.22,394.223,380.22z M450.472,348.165c0.135-0.876,0.241-1.758,0.335-2.642   c0.023-0.212,0.041-0.426,0.06-0.638c0.064-0.677,0.115-1.357,0.155-2.038c0.014-0.24,0.03-0.481,0.041-0.722   c0.04-0.88,0.068-1.761,0.068-2.646c0-31.377-25.529-56.905-56.907-56.905c-31.377,0-56.905,25.528-56.905,56.905   c0,0.885,0.027,1.767,0.067,2.646c0.011,0.243,0.027,0.483,0.041,0.725c0.04,0.679,0.092,1.356,0.155,2.031   c0.02,0.216,0.039,0.432,0.061,0.647c0.093,0.883,0.201,1.762,0.334,2.638h-77.889v-61.626c0-4.466-3.618-8.084-8.084-8.084   s-8.084,3.618-8.084,8.084v61.626h-88.156c0.135-0.875,0.241-1.756,0.334-2.638c0.023-0.215,0.041-0.431,0.061-0.647   c0.064-0.675,0.115-1.352,0.155-2.031c0.014-0.241,0.03-0.483,0.041-0.725c0.04-0.88,0.067-1.761,0.067-2.646   c0-31.377-25.529-56.905-56.907-56.905c-31.378,0-56.905,25.528-56.905,56.905c0,0.885,0.027,1.767,0.067,2.646   c0.011,0.243,0.027,0.483,0.041,0.725c0.04,0.679,0.092,1.357,0.155,2.032c0.02,0.215,0.039,0.43,0.061,0.643   c0.094,0.883,0.2,1.763,0.334,2.64h-22.25c-2.674,0-4.851-2.176-4.851-4.851v-67.368H37.76c11.59,0,21.019-9.429,21.019-21.019   v-9.556h117.638h67.503v8.832v6.472c0,4.466,3.618,8.084,8.084,8.084s8.084-3.618,8.084-8.084v-6.472v-16.916v-75.059v-25.6   c0-2.674,2.176-4.851,4.851-4.851h13.572c-0.725,2.25-1.121,4.646-1.121,7.132v69.147c0,12.849,10.453,23.301,23.303,23.301   h110.164c4.466,0,8.084-3.618,8.084-8.084c0-4.466-3.618-8.084-8.084-8.084h-57.371v-83.413h19.522l78.595,83.413h-13.438   c-4.466,0-8.084,3.618-8.084,8.084c0,4.466,3.618,8.084,8.084,8.084h32.164h5.065c2.674,0,4.851,2.176,4.851,4.851v30.798   c0,0.188-0.024,0.435-0.073,0.761c-0.065,0.42-0.095,0.844-0.093,1.27l0.124,20.182c-0.059,0.019-0.116,0.045-0.176,0.066   c-0.483,0.163-0.96,0.338-1.429,0.531c-0.05,0.021-0.099,0.038-0.149,0.058c-0.498,0.209-0.985,0.438-1.464,0.679   c-0.098,0.05-0.196,0.1-0.293,0.151c-0.476,0.248-0.945,0.509-1.401,0.789c-0.041,0.025-0.079,0.052-0.12,0.077   c-0.43,0.267-0.85,0.55-1.261,0.844c-0.078,0.055-0.156,0.109-0.233,0.166c-0.425,0.311-0.839,0.638-1.241,0.977   c-0.075,0.064-0.15,0.129-0.224,0.195c-0.388,0.335-0.766,0.68-1.131,1.04c-0.025,0.024-0.051,0.047-0.075,0.071   c-0.378,0.377-0.741,0.77-1.093,1.172c-0.072,0.082-0.144,0.165-0.216,0.249c-0.344,0.403-0.676,0.816-0.993,1.243   c-0.037,0.051-0.071,0.102-0.109,0.153c-0.292,0.401-0.57,0.812-0.838,1.231c-0.05,0.078-0.1,0.153-0.148,0.231   c-0.277,0.448-0.539,0.906-0.786,1.373c-0.051,0.095-0.098,0.191-0.147,0.287c-0.239,0.468-0.467,0.942-0.675,1.426   c-0.009,0.021-0.018,0.039-0.027,0.059c-0.211,0.498-0.401,1.007-0.578,1.521c-0.038,0.109-0.075,0.218-0.111,0.329   c-0.167,0.509-0.319,1.024-0.451,1.548c-0.021,0.08-0.037,0.161-0.056,0.24c-0.116,0.485-0.218,0.977-0.303,1.472   c-0.016,0.092-0.035,0.181-0.049,0.273c-0.086,0.538-0.152,1.082-0.201,1.632c-0.011,0.119-0.018,0.238-0.027,0.357   c-0.042,0.567-0.07,1.137-0.07,1.715v29.659c0,0.554,0.026,1.102,0.065,1.646c0.009,0.127,0.018,0.253,0.029,0.379   c0.046,0.534,0.106,1.064,0.188,1.587c0.01,0.061,0.023,0.121,0.032,0.181c0.079,0.476,0.174,0.947,0.28,1.414   c0.027,0.119,0.054,0.237,0.082,0.356c0.123,0.5,0.26,0.994,0.415,1.481c0.01,0.029,0.015,0.059,0.025,0.087h-14.776V348.165z    M495.832,341.033c0,3.932-3.2,7.132-7.132,7.132h-1.27c-3.932,0-7.132-3.2-7.132-7.132v-29.659c0-3.932,3.2-7.132,7.132-7.132   h0.899h0.371c3.932,0,7.132,3.2,7.132,7.132V341.033z"/>
</g>
<g>
</g>
<g>
</g>
<g>
</g>
<g>
</g>
<g>
</g>
<g>
</g>
<g>
</g>
<g>
</g>
<g>
</g>
<g>
</g>
<g>
</g>
<g>
</g>
<g>
</g>
<g>
</g>
<g>
</g>
</svg>
