<?xml version="1.0" encoding="iso-8859-1"?>
<!-- Generator: Adobe Illustrator 19.0.0, SVG Export Plug-In . SVG Version: 6.00 Build 0)  -->
<svg xmlns="http://www.w3.org/2000/svg" xmlns:xlink="http://www.w3.org/1999/xlink" version="1.1" id="Layer_1" x="0px" y="0px" viewBox="0 0 511.999 511.999" style="enable-background:new 0 0 511.999 511.999;" xml:space="preserve">
<path style="fill:#5B5E5E;" d="M175.339,354.019c0,41.79-33.874,75.663-75.662,75.663c-41.784,0-75.658-33.874-75.658-75.663  c0-41.788,33.875-75.659,75.658-75.659C141.465,278.36,175.339,312.232,175.339,354.019z"/>
<path style="fill:#E6E9ED;" d="M133.826,354.017c0,18.859-15.289,34.15-34.148,34.15c-18.858,0-34.147-15.291-34.147-34.15  s15.289-34.139,34.147-34.139C118.537,319.879,133.826,335.158,133.826,354.017z"/>
<path style="fill:#FF5357;" d="M252.006,195.912H21.019c-7.143,0-12.935,5.792-12.935,12.935v93.093  c0,7.143,5.792,12.935,12.935,12.935h13.903c4.245-7.006,9.604-13.257,15.817-18.534c0.929-26.145,22.406-47.057,48.776-47.057  c26.278,0,47.696,20.758,48.772,46.771c6.355,5.335,11.828,11.689,16.149,18.821h25.813h48.822h12.935"/>
<path style="fill:#FF6971;" d="M233.716,314.266h6.683h12.935V195.304h-66.391C188.897,240.616,206.169,281.95,233.716,314.266z"/>
<path style="fill:#ED3A47;" d="M38.369,301.332v-93.093c0-7.143,5.792-12.935,12.935-12.935H28.814  c-7.143,0-12.935,5.792-12.935,12.935v93.093c0,7.143,5.792,12.935,12.935,12.935h13.903c0.448-0.739,0.915-1.465,1.388-2.188  C40.646,309.757,38.369,305.811,38.369,301.332z"/>
<path style="fill:#FF5357;" d="M252.006,245.162v69.712h79.364c3.836-6.333,8.575-12.055,14.037-16.994  c0.12-26.861,21.929-48.598,48.815-48.598c25.779,0,46.876,19.979,48.684,45.294c7.137,5.626,13.248,12.491,17.977,20.297h26.545  c-8.404,0-15.217-6.812-15.217-15.217v-29.659c0-8.402,6.812-15.217,15.217-15.217h0.901l-0.168-27.168  c0.101-0.649,0.168-1.305,0.168-1.981v-30.798c0-7.143-5.792-12.935-12.935-12.935h-5.067l-93.828-99.582h-111.56  c-7.144,0-12.936,5.792-12.936,12.935v124.047"/>
<path style="fill:#97D3EE;" d="M438.164,181.899h32.164l-93.828-99.582l0,0h-3.2h-34.916h-23.331h-14.36  c-8.404,0-15.219,6.814-15.219,15.217v69.147c0,8.404,6.814,15.217,15.219,15.217h37.556h27.307h7.744h24.421h13.135"/>
<path style="fill:#5BC5EF;" d="M353.199,81.71h-7.018H322.85h-14.36c-8.404,0-15.219,6.814-15.219,15.217v69.147  c0,8.404,6.814,15.217,15.219,15.217h37.556h7.153L353.199,81.71L353.199,81.71z"/>
<path style="fill:#ED3A47;" d="M287.68,81.71h-14.943h-7.545c-7.144,0-12.936,5.792-12.936,12.935v124.047v25.863v69.712h7.546  h14.943h7.545v-69.712v-25.863V94.645c0-7.143,5.789-12.935,12.935-12.935H287.68z"/>
<path style="fill:#2EA4BF;" d="M315.76,166.075V96.928c0-8.402,6.814-15.217,15.219-15.217h-8.128h-14.36  c-8.404,0-15.219,6.814-15.219,15.217v69.147c0,8.404,6.814,15.217,15.219,15.217h22.488  C322.575,181.292,315.76,174.479,315.76,166.075z"/>
<path style="fill:#F7A539;" d="M503.916,299.658c0,8.404-6.812,15.217-15.217,15.217h-1.27c-8.404,0-15.217-6.812-15.217-15.217  v-29.659c0-8.402,6.812-15.217,15.217-15.217h1.27c8.404,0,15.217,6.814,15.217,15.217V299.658z"/>
<path style="fill:#5B5E5E;" d="M471.788,354.019c0,41.79-33.874,75.663-75.663,75.663c-41.784,0-75.657-33.874-75.657-75.663  c0-41.788,33.874-75.659,75.657-75.659C437.914,278.36,471.788,312.232,471.788,354.019z"/>
<path style="fill:#E6E9ED;" d="M430.274,354.017c0,18.859-15.289,34.15-34.148,34.15c-18.857,0-34.146-15.291-34.146-34.15  s15.289-34.139,34.146-34.139C414.986,319.879,430.274,335.158,430.274,354.017z"/>
<path style="fill:#CE2939;" d="M21.019,195.912c-7.143,0-12.935,5.792-12.935,12.935v17.64H37.76  c7.143,0,12.935-5.792,12.935-12.935v-17.64H21.019z"/>
<g>
	<path style="fill:#464949;" d="M53.629,353.412c0-38.082,28.137-69.577,64.751-74.865c-3.564-0.514-7.203-0.793-10.908-0.793   c-41.784,0-75.658,33.872-75.658,75.659c0,41.79,33.875,75.663,75.658,75.663c3.706,0,7.345-0.279,10.908-0.793   C81.766,422.993,53.629,391.497,53.629,353.412z"/>
	<path style="fill:#464949;" d="M350.077,353.412c0-38.082,28.139-69.577,64.751-74.865c-3.564-0.514-7.204-0.793-10.908-0.793   c-41.784,0-75.657,33.872-75.657,75.659c0,41.79,33.874,75.663,75.657,75.663c3.706,0,7.346-0.279,10.908-0.793   C378.215,422.993,350.077,391.497,350.077,353.412z"/>
</g>
<g>
	<path style="fill:#B6C1CC;" d="M390.513,353.41c0-15.244,9.99-28.143,23.777-32.533c-3.27-1.04-6.754-1.606-10.368-1.606   c-18.857,0-34.146,15.28-34.146,34.139s15.289,34.15,34.146,34.15c3.615,0,7.098-0.566,10.368-1.608   C400.503,381.56,390.513,368.654,390.513,353.41z"/>
	<path style="fill:#B6C1CC;" d="M94.065,353.41c0-15.244,9.991-28.143,23.778-32.533c-3.27-1.04-6.753-1.606-10.368-1.606   c-18.858,0-34.147,15.28-34.147,34.139s15.289,34.15,34.147,34.15c3.615,0,7.098-0.566,10.368-1.608   C104.056,381.56,94.065,368.654,94.065,353.41z"/>
</g>
<path style="fill:#ED6529;" d="M488.982,299.05V269.39c0-5.705,3.145-10.671,7.793-13.275c-2.198-1.232-4.727-1.941-7.425-1.941  h-1.269c-8.404,0-15.217,6.814-15.217,15.217v29.659c0,8.404,6.812,15.217,15.217,15.217h1.269c2.698,0,5.227-0.709,7.425-1.94  C492.127,309.722,488.982,304.756,488.982,299.05z"/>
<g>
	<path style="fill:#231F20;" d="M362.649,219.396h29.167c4.466,0,8.084-3.618,8.084-8.084s-3.618-8.084-8.084-8.084h-29.167   c-4.466,0-8.084,3.618-8.084,8.084S358.183,219.396,362.649,219.396z"/>
	<path style="fill:#231F20;" d="M396.126,311.794c-23.286,0-42.23,18.941-42.23,42.223c0,23.287,18.944,42.234,42.23,42.234   c23.287,0,42.232-18.946,42.232-42.234C438.358,330.736,419.413,311.794,396.126,311.794z M396.126,380.083   c-14.371,0-26.061-11.693-26.061-26.066c0-14.366,11.691-26.055,26.061-26.055c14.372,0,26.064,11.689,26.064,26.055   C422.19,368.39,410.498,380.083,396.126,380.083z"/>
	<circle style="fill:#231F20;" cx="99.673" cy="354.014" r="9.603"/>
	<circle style="fill:#231F20;" cx="396.127" cy="354.014" r="9.603"/>
	<path style="fill:#231F20;" d="M99.679,311.794c-23.286,0-42.231,18.941-42.231,42.223c0,23.287,18.945,42.234,42.231,42.234   c23.287,0,42.232-18.946,42.232-42.234C141.911,330.736,122.965,311.794,99.679,311.794z M99.679,380.083   c-14.371,0-26.062-11.693-26.062-26.066c0-14.366,11.692-26.055,26.062-26.055c14.372,0,26.064,11.689,26.064,26.055   C125.742,368.39,114.05,380.083,99.679,380.083z"/>
	<path style="fill:#231F20;" d="M496.374,248.001l-0.124-19.851c0.112-0.876,0.165-1.706,0.165-2.519v-30.798   c0-11.59-9.429-21.019-21.019-21.019h-1.577l-91.435-97.041c-1.337-1.419-3.135-2.299-5.054-2.497   c-0.275-0.028-0.551-0.043-0.83-0.043h-75.806H264.94c-11.591,0-21.019,9.429-21.019,21.019v22.234l-70.836,70.34H50.695H21.019   C9.428,187.827,0,197.256,0,208.846v17.64v75.453c0,11.59,9.428,21.019,21.019,21.019h0.913   c-3.855,9.612-5.997,20.088-5.997,31.061c0,46.179,37.567,83.747,83.742,83.747c44.765,0,81.438-35.307,83.639-79.536   l48.851-35.273h19.838h11.633l48.851,35.273c2.201,44.229,38.872,79.536,83.634,79.536c46.179,0,83.747-37.569,83.747-83.747   c0-10.973-2.143-21.449-5.997-31.061h13.556h1.27c12.849,0,23.301-10.452,23.301-23.301v-29.659   C512,259.838,505.462,251.181,496.374,248.001z M337.318,90.402v83.413h-36.624c-3.933,0-7.135-3.2-7.135-7.132V97.536   c0-3.932,3.201-7.132,7.135-7.132h36.624V90.402z M243.922,140.272v47.555h-47.89L243.922,140.272z M16.168,208.847   c0-2.674,2.175-4.851,4.851-4.851H42.61v9.556c0,2.674-2.176,4.851-4.851,4.851H16.168V208.847z M30.518,306.79h-9.5   c-2.675,0-4.851-2.176-4.851-4.851v-67.369H37.76c11.59,0,21.019-9.429,21.019-21.019v-9.556h117.638h67.504v15.303   c0,4.466,3.62,8.084,8.084,8.084s8.084-3.618,8.084-8.084v-23.367c0-0.008,0.001-0.014,0.001-0.02v-75.059   c0-0.004-0.001-0.01-0.001-0.014V95.253c0-2.674,2.176-4.851,4.852-4.851h13.572c-0.725,2.25-1.121,4.646-1.121,7.132v69.147   c0,12.849,10.453,23.301,23.303,23.301h110.162c4.466,0,8.084-3.618,8.084-8.084s-3.618-8.084-8.084-8.084h-57.371V90.402h19.524   l78.593,83.413h-13.439c-4.466,0-8.084,3.618-8.084,8.084s3.618,8.084,8.084,8.084h32.164h5.067c2.674,0,4.851,2.176,4.851,4.851   v30.798c0,0.184-0.023,0.426-0.071,0.736c-0.068,0.428-0.099,0.862-0.097,1.296l0.125,20.18c-0.068,0.023-0.132,0.052-0.199,0.074   c-0.465,0.156-0.924,0.326-1.374,0.511c-0.064,0.026-0.128,0.048-0.191,0.075c-0.488,0.205-0.967,0.43-1.438,0.667   c-0.109,0.055-0.217,0.11-0.323,0.166c-0.468,0.245-0.929,0.5-1.378,0.775c-0.053,0.032-0.103,0.067-0.155,0.1   c-0.415,0.259-0.82,0.531-1.218,0.815c-0.086,0.061-0.174,0.122-0.26,0.184c-0.418,0.307-0.827,0.628-1.223,0.963   c-0.083,0.07-0.164,0.142-0.246,0.213c-0.376,0.326-0.743,0.661-1.096,1.009c-0.033,0.033-0.069,0.065-0.102,0.098   c-0.373,0.372-0.73,0.759-1.078,1.156c-0.079,0.089-0.155,0.178-0.233,0.268c-0.34,0.399-0.667,0.806-0.98,1.227   c-0.043,0.058-0.084,0.119-0.126,0.178c-0.285,0.391-0.556,0.791-0.816,1.201c-0.053,0.083-0.108,0.166-0.16,0.249   c-0.275,0.444-0.535,0.899-0.779,1.362c-0.053,0.099-0.102,0.199-0.153,0.299c-0.236,0.461-0.461,0.93-0.666,1.409   c-0.011,0.024-0.023,0.047-0.032,0.071c-0.21,0.496-0.399,1.002-0.576,1.514c-0.039,0.112-0.078,0.224-0.114,0.337   c-0.166,0.508-0.318,1.022-0.449,1.544c-0.021,0.081-0.037,0.163-0.056,0.244c-0.116,0.484-0.217,0.973-0.303,1.468   c-0.016,0.093-0.035,0.183-0.05,0.277c-0.086,0.538-0.152,1.081-0.201,1.63c-0.011,0.119-0.018,0.238-0.027,0.358   c-0.041,0.567-0.07,1.137-0.07,1.714v29.659c0,0.543,0.026,1.081,0.063,1.615c0.009,0.129,0.018,0.259,0.029,0.388   c0.045,0.528,0.102,1.052,0.182,1.569c0.004,0.031,0.012,0.06,0.016,0.091c0.078,0.493,0.176,0.978,0.283,1.459   c0.028,0.124,0.056,0.248,0.086,0.372c0.121,0.497,0.252,0.988,0.404,1.472c0.004,0.014,0.008,0.029,0.012,0.043   c-4.127-6.011-9.019-11.448-14.602-16.229c-3.773-27.886-27.875-49.242-56.38-49.242c-30.036,0-54.791,23.496-56.772,53.073   c-3.899,3.829-7.409,8.018-10.487,12.518h-66.876v-61.628c0-4.466-3.618-8.084-8.084-8.084c-4.466,0-8.084,3.618-8.084,8.084   v61.628H168.84c-3.657-5.347-7.921-10.249-12.733-14.635c-2.973-28.85-27.178-50.957-56.592-50.957   c-29.589,0-53.808,22.253-56.62,51.29c-0.78,0.72-1.525,1.473-2.277,2.22c-0.056,0.055-0.113,0.109-0.169,0.165   c-0.887,0.887-1.747,1.795-2.591,2.717c-0.081,0.089-0.163,0.177-0.244,0.266c-0.859,0.947-1.697,1.912-2.51,2.897   c-0.02,0.024-0.04,0.049-0.06,0.073C33.456,302.753,31.928,304.729,30.518,306.79z M429.054,277.031   c-10.114-4.342-21.243-6.755-32.929-6.755c-13.716,0-26.661,3.336-38.099,9.207c6.783-13.115,20.475-22.117,36.198-22.117   C408.855,257.366,421.866,265.226,429.054,277.031z M135.059,278.143c-10.756-5.036-22.743-7.866-35.382-7.866   c-12.812,0-24.957,2.902-35.824,8.067c6.929-12.565,20.277-20.977,35.663-20.977C114.785,257.366,128.087,265.694,135.059,278.143z    M99.677,421.599c-37.26,0-67.573-30.316-67.573-67.579c0-37.261,30.314-67.574,67.573-67.574   c37.263,0,67.578,30.314,67.578,67.574C167.255,391.283,136.939,421.599,99.677,421.599z M182.081,339.18   c-1.01-5.621-2.579-11.047-4.654-16.222h27.121L182.081,339.18z M318.381,322.958c-2.075,5.175-3.644,10.601-4.654,16.222   l-22.467-16.222H318.381z M396.124,421.599c-37.26,0-67.572-30.316-67.572-67.579c0-37.261,30.313-67.574,67.572-67.574   c16.215,0,31.111,5.744,42.77,15.299c0.123,0.101,0.246,0.203,0.369,0.304c0.747,0.621,1.483,1.256,2.202,1.909   c0.042,0.038,0.084,0.075,0.126,0.113c13.577,12.369,22.113,30.181,22.113,49.951C463.704,391.283,433.388,421.599,396.124,421.599   z M495.832,299.658c0,3.932-3.2,7.132-7.132,7.132h-1.27c-3.932,0-7.132-3.2-7.132-7.132v-29.659c0-3.932,3.2-7.132,7.132-7.132   h0.901h0.369c3.932,0,7.132,3.2,7.132,7.132V299.658z"/>
</g>
<g>
</g>
<g>
</g>
<g>
</g>
<g>
</g>
<g>
</g>
<g>
</g>
<g>
</g>
<g>
</g>
<g>
</g>
<g>
</g>
<g>
</g>
<g>
</g>
<g>
</g>
<g>
</g>
<g>
</g>
</svg>
