<?xml version="1.0" encoding="UTF-8" standalone="no"?>
<!-- Generator: Adobe Illustrator 19.0.0, SVG Export Plug-In . SVG Version: 6.00 Build 0)  -->

<svg
   version="1.1"
   id="Capa_1"
   x="0px"
   y="0px"
   viewBox="0 0 511.999 511.999"
   style="enable-background:new 0 0 511.999 511.999;"
   xml:space="preserve"
   sodipodi:docname="van-color.svg"
   inkscape:version="1.1.2 (0a00cf5339, 2022-02-04)"
   xmlns:inkscape="http://www.inkscape.org/namespaces/inkscape"
   xmlns:sodipodi="http://sodipodi.sourceforge.net/DTD/sodipodi-0.dtd"
   xmlns="http://www.w3.org/2000/svg"
   xmlns:svg="http://www.w3.org/2000/svg"><defs
   id="defs117" /><sodipodi:namedview
   id="namedview115"
   pagecolor="#ffffff"
   bordercolor="#666666"
   borderopacity="1.0"
   inkscape:pageshadow="2"
   inkscape:pageopacity="0.0"
   inkscape:pagecheckerboard="0"
   showgrid="false"
   inkscape:zoom="1.2304712"
   inkscape:cx="255.59315"
   inkscape:cy="254.3741"
   inkscape:window-width="1920"
   inkscape:window-height="1012"
   inkscape:window-x="0"
   inkscape:window-y="0"
   inkscape:window-maximized="1"
   inkscape:current-layer="Capa_1" />
<path
   id="SVGCleanerId_0"
   style="fill:#51506d"
   d="m 58.049,124.869 h 283.489 c 6.799,0 12.363,-5.563 12.363,-12.363 V 38.009 c 0,-6.799 -5.563,-12.363 -12.363,-12.363 H 58.049 c -6.799,0 -12.363,5.563 -12.363,12.363 v 74.497 c 10e-4,6.799 5.564,12.363 12.363,12.363 z" />
<g
   id="g4"
   transform="matrix(-1,0,0,1,511.999,0)">
	<path
   id="SVGCleanerId_0_1_"
   style="fill:#51506d"
   d="M 453.95,124.869 H 170.461 c -6.799,0 -12.363,-5.563 -12.363,-12.363 V 38.009 c 0,-6.799 5.563,-12.363 12.363,-12.363 H 453.95 c 6.799,0 12.363,5.563 12.363,12.363 v 74.497 c -10e-4,6.799 -5.564,12.363 -12.363,12.363 z" />
</g>
<path
   style="fill:#434360"
   d="M 328.145,112.505 V 38.009 c 0,-6.799 -5.563,-12.363 -12.363,-12.363 h 25.757 c 6.799,0 12.363,5.563 12.363,12.363 v 74.497 c 0,6.799 -5.563,12.363 -12.363,12.363 h -25.756 c 6.799,0 12.362,-5.564 12.362,-12.364 z"
   id="path6" />
<path
   style="fill:#69698c"
   d="m 68.598,25.646 35.984,37.894 35.984,-37.894 h 23.243 l 35.985,37.893 35.985,-37.894 h 23.072 l 35.985,37.894 35.983,-37.894 c 8.008,0.57 13.506,-1.648 18.891,3.122 l -43.948,46.28 44.16,46.505 c -5.414,5.023 -11.142,2.735 -18.707,3.315 L 294.834,86.554 258.453,124.867 H 236.176 L 199.794,86.553 163.412,124.867 H 140.963 L 104.582,86.553 68.2,124.867 c -7.325,-0.581 -13.208,1.729 -18.627,-3.399 L 93.654,75.047 49.786,28.851 c 5.398,-4.878 11.015,-2.632 18.812,-3.205 z m 178.716,87.936 36.592,-38.534 -36.592,-38.535 -36.592,38.534 z m -95.126,0.091 36.678,-38.626 -36.678,-38.625 -36.678,38.625 z"
   id="path8" />
<g
   id="g14"
   transform="matrix(-1,0,0,1,511.999,0)">
	<path
   style="fill:#51506d"
   d="m 183.854,98.62 -21.777,22.933 c 5.242,4.862 11.07,2.938 18.707,3.315 l 5.188,-5.464 c -3.401,-5.022 -1.635,-9.175 -2.118,-20.784 z"
   id="path10" />
	<path
   style="fill:#51506d"
   d="m 162.29,28.768 21.564,22.709 c 0.507,-11.02 -1.366,-15.458 2.293,-20.601 l -4.967,-5.23 c -8.128,0.367 -13.725,-1.453 -18.89,3.122 z"
   id="path12" />
</g>
<path
   style="fill:#dadada"
   d="m 31.95,123.839 c 159.418,0 180.867,0 342.541,0 4.321,0 8.182,1.97 10.732,5.061 6.267,7.593 2.84,19.195 -6.596,22.131 -3.502,1.089 -347.88,0.576 -348.099,0.554 -3.751,-0.38 -7.05,-2.25 -9.311,-4.99 -7.45,-9.03 -1.056,-22.756 10.733,-22.756 z"
   id="path16" />
<g
   id="g22"
   transform="matrix(-1,0,0,1,511.999,0)">
	<path
   style="fill:#c0c0c0"
   d="m 152.151,128.899 c 2.551,-3.091 6.411,-5.061 10.732,-5.061 -8.77,0 -15.777,0 -25.375,0 -6.714,0 -12.326,4.759 -13.626,11.105 -1.446,7.069 2.732,13.984 9.49,16.086 2.704,0.841 1.926,0.626 29.511,0.626 -11.664,0 -18.25,-13.645 -10.732,-22.756 z"
   id="path18" />
	<path
   style="fill:#c0c0c0"
   d="m 208.236,144.443 c -7.681,0 -13.908,6.227 -13.908,13.908 v 23.365 h 27.817 v -23.365 c -0.001,-7.681 -6.227,-13.908 -13.909,-13.908 z"
   id="path20" />
</g>
<path
   style="fill:#afafb2"
   d="m 296.808,146.319 c 9.177,-5.315 20.862,1.263 20.862,12.032 v 23.365 h -13.908 v -23.365 c 10e-4,-5.145 -2.8,-9.626 -6.954,-12.032 z"
   id="path24" />
<path
   style="fill:#c0c0c0"
   d="m 118.491,144.443 c 7.681,0 13.908,6.227 13.908,13.908 v 23.365 h -27.817 v -23.365 c 0,-7.681 6.226,-13.908 13.909,-13.908 z"
   id="path26" />
<path
   style="fill:#afafb2"
   d="m 111.536,146.319 c 9.177,-5.315 20.862,1.263 20.862,12.032 v 23.365 H 118.49 v -23.365 c 0.001,-5.145 -2.801,-9.626 -6.954,-12.032 z"
   id="path28" />
<path
   style="fill:#d83d3d"
   d="m 36.892,178.625 h 336.131 c 5.284,0 10.325,2.218 13.895,6.113 l 94.109,102.654 c 8.212,8.957 13.162,20.363 14.163,32.387 h 0.198 v 4.531 14.014 27.817 55.217 c -7.425,0 -53.499,0 -60.171,0 -107.221,0 -344.933,0 -417.176,0 0,-82.529 0,-142.237 0,-223.883 0,-10.41 8.44,-18.85 18.851,-18.85 z"
   id="path30" />
<path
   style="fill:#b72c2c"
   d="m 469.632,319.779 h -0.198 c -1.651,-19.833 -14.999,-27.484 -112.393,-135.042 -3.57,-3.895 -8.612,-6.113 -13.895,-6.113 h 29.877 c 5.284,0 10.325,2.218 13.895,6.113 l 94.109,102.655 c 8.212,8.957 13.162,20.363 14.163,32.387 h 0.198 v 4.531 14.014 27.817 55.217 c -14.373,0 -7.458,0 -25.756,0 0,-20.562 0,-80.023 0,-101.579 z"
   id="path32" />
<path
   style="fill:#f9b938"
   d="m 484.354,366.142 h 13.737 c 7.681,0 13.908,-6.227 13.908,-13.909 0,-7.681 -6.227,-13.908 -13.908,-13.908 h -13.737 c -7.681,0 -13.908,6.227 -13.908,13.908 -0.001,7.682 6.226,13.909 13.908,13.909 z"
   id="path34" />
<path
   style="fill:#eaa224"
   d="m 490.662,352.233 c 0,-6.362 -4.276,-11.715 -10.108,-13.369 1.209,-0.343 2.48,-0.539 3.8,-0.539 h 13.737 c 7.681,0 13.908,6.227 13.908,13.908 0,7.681 -6.227,13.908 -13.908,13.908 -13.339,-0.16 -14.331,0.371 -17.536,-0.539 5.831,-1.654 10.107,-7.006 10.107,-13.369 z"
   id="path36" />
<path
   style="fill:#f9b938"
   d="m 13.908,366.142 h 13.737 c 7.681,0 13.908,-6.227 13.908,-13.908 0,-7.681 -6.227,-13.908 -13.908,-13.908 H 13.908 C 6.2270001,338.326 1.2042642e-7,344.553 1.2042642e-7,352.234 -9.9987957e-4,359.915 6.2260001,366.142 13.908,366.142 Z"
   id="path38" />
<path
   style="fill:#eaa224"
   d="m 23.18,352.233 c 0,-6.89 -5.015,-12.594 -11.591,-13.7 2.204,-0.37 2.107,-0.134 16.055,-0.208 7.681,0 13.908,6.227 13.908,13.908 0,7.681 -6.227,13.908 -13.908,13.908 -14.06,-0.075 -13.861,0.161 -16.055,-0.209 6.576,-1.104 11.591,-6.809 11.591,-13.699 z"
   id="path40" />
<path
   style="fill:#dadada"
   d="m 13.908,418.268 c 15.318,0 401.774,0 421.31,0 22.133,0 40.563,0 62.874,0 7.68,0 13.907,6.226 13.907,13.909 0,7.681 -6.227,13.908 -13.908,13.908 -24.723,0 -462.895,0 -484.183,0 C 6.2270001,446.085 1.2042642e-7,439.858 1.2042642e-7,432.177 -9.9987957e-4,424.494 6.2260001,418.268 13.908,418.268 Z"
   id="path42" />
<path
   style="fill:#c0c0c0"
   d="m 476.857,432.177 c 0,-7.681 -6.227,-13.908 -13.908,-13.908 11.811,0 21.686,0 35.142,0 7.681,-0.001 13.908,6.225 13.908,13.908 0,7.681 -6.227,13.908 -13.908,13.908 -12.607,0 -22.535,0 -35.142,0 7.681,0 13.908,-6.227 13.908,-13.908 z"
   id="path44" />
<path
   style="fill:#70bbef"
   d="m 256.484,292.346 h 50.951 c 5.063,0 9.206,-4.143 9.206,-9.206 v -50.95 c 0,-5.063 -4.143,-9.206 -9.206,-9.206 h -50.951 c -5.063,0 -9.206,4.143 -9.206,9.206 v 50.951 c 0.001,5.063 4.143,9.205 9.206,9.205 z"
   id="path46" />
<path
   style="fill:#4caee5"
   d="m 290.68,283.14 v -50.95 c 0,-5.063 -4.143,-9.206 -9.206,-9.206 h 25.96 c 5.063,0 9.206,4.143 9.206,9.206 v 50.951 c 0,5.063 -4.143,9.206 -9.206,9.206 h -25.96 c 5.063,-10e-4 9.206,-4.143 9.206,-9.207 z"
   id="path48" />
<g
   id="g54"
   transform="matrix(-1,0,0,1,511.999,0)">
	<path
   style="fill:#70bbef"
   d="m 449.92,292.346 h -50.951 c -5.063,0 -9.206,-4.143 -9.206,-9.206 v -50.95 c 0,-5.063 4.143,-9.206 9.206,-9.206 h 50.951 c 5.063,0 9.206,4.143 9.206,9.206 v 50.951 c 0,5.063 -4.142,9.205 -9.206,9.205 z"
   id="path50" />
	<path
   style="fill:#70bbef"
   d="m 156.331,222.984 c -27.477,0 -54.752,0 -66.313,0 -62.354,68.226 -59.549,64.493 -63.063,69.362 15.865,0 118.713,0 129.376,0 6.519,0 11.853,-5.334 11.853,-11.852 v -45.657 c 0,-6.519 -5.334,-11.853 -11.853,-11.853 z"
   id="path52" />
</g>
<path
   style="fill:#4caee5"
   d="m 421.981,222.984 c 58.05,63.692 58.971,63.692 63.063,69.362 -5.857,0 -21.935,0 -29.526,0 -3.443,-4.081 -0.76,-0.965 -63.414,-69.362 z"
   id="path56" />
<path
   style="fill:#e07070"
   d="m 67.493,359.96 h 380.161 c 4.267,0 7.727,-3.459 7.727,-7.727 0,-4.268 -3.459,-7.727 -7.727,-7.727 H 67.493 c -4.267,0 -7.727,3.459 -7.727,7.727 0,4.268 3.46,7.727 7.727,7.727 z"
   id="path58" />
<circle
   style="fill:#635e5e"
   cx="-384.41"
   cy="433.405"
   r="53.006001"
   id="circle60"
   transform="scale(-1,1)" />
<path
   style="fill:#4c4846"
   d="m 400.403,443.233 c 11.931,-20.207 8.908,-45.092 -5.74,-61.841 35.694,7.04 54.033,47.375 35.387,78.957 -14.884,25.209 -47.385,33.577 -72.594,18.693 -5.002,-2.953 -9.328,-6.608 -12.954,-10.754 21.444,4.23 44.156,-5.165 55.901,-25.055 z"
   id="path62" />
<circle
   style="fill:#c0c0c0"
   cx="-384.41"
   cy="433.405"
   r="18.538"
   id="circle64"
   transform="scale(-1,1)" />
<path
   style="fill:#afafb2"
   d="m 384.315,433.556 c 3.518,-5.96 3.31,-13.078 0.09,-18.677 3.21,-0.003 6.462,0.807 9.426,2.557 8.816,5.205 11.743,16.572 6.538,25.389 -5.205,8.816 -16.572,11.743 -25.389,6.538 -2.857,-1.687 -5.084,-4.027 -6.627,-6.711 6.336,-0.007 12.507,-3.244 15.962,-9.096 z"
   id="path66" />
<path
   style="fill:#70bbef"
   d="m 159.282,292.346 h 50.951 c 5.063,0 9.206,-4.143 9.206,-9.206 v -50.95 c 0,-5.063 -4.143,-9.206 -9.206,-9.206 h -50.951 c -5.063,0 -9.206,4.143 -9.206,9.206 v 50.951 c 0,5.063 4.142,9.205 9.206,9.205 z"
   id="path68" />
<g
   id="g74"
   transform="matrix(-1,0,0,1,511.999,0)">
	<path
   style="fill:#4caee5"
   d="m 318.521,283.14 v -50.95 c 0,-5.063 4.143,-9.206 9.206,-9.206 h -25.96 c -5.063,0 -9.206,4.143 -9.206,9.206 v 50.951 c 0,5.063 4.143,9.206 9.206,9.206 h 25.96 c -5.063,-10e-4 -9.206,-4.143 -9.206,-9.207 z"
   id="path70" />
	<path
   style="fill:#4caee5"
   d="m 415.724,283.14 v -50.95 c 0,-5.063 4.143,-9.206 9.206,-9.206 h -25.96 c -5.063,0 -9.206,4.143 -9.206,9.206 v 50.951 c 0,5.063 4.143,9.206 9.206,9.206 h 25.96 c -5.063,-10e-4 -9.206,-4.143 -9.206,-9.207 z"
   id="path72" />
</g>
<circle
   style="fill:#635e5e"
   cx="-135.21698"
   cy="433.405"
   r="53.006001"
   id="circle76"
   transform="scale(-1,1)" />
<path
   style="fill:#4c4846"
   d="m 151.21,443.233 c 11.931,-20.207 8.908,-45.092 -5.74,-61.841 5.732,1.13 11.376,3.224 16.693,6.363 25.209,14.884 33.578,47.385 18.693,72.594 -18.339,31.06 -61.774,35.123 -85.548,7.94 21.446,4.229 44.158,-5.166 55.902,-25.056 z"
   id="path78" />
<circle
   style="fill:#c0c0c0"
   cx="-135.21698"
   cy="433.405"
   r="18.538"
   id="circle80"
   transform="scale(-1,1)" />
<path
   style="fill:#afafb2"
   d="m 135.213,414.879 c 3.21,-0.003 6.462,0.807 9.426,2.557 8.816,5.205 11.743,16.572 6.538,25.389 -7.231,12.245 -24.975,12.069 -32.016,-0.173 14.293,-0.016 23.158,-15.417 16.052,-27.773 z"
   id="path82" />
<g
   id="g84">
</g>
<g
   id="g86">
</g>
<g
   id="g88">
</g>
<g
   id="g90">
</g>
<g
   id="g92">
</g>
<g
   id="g94">
</g>
<g
   id="g96">
</g>
<g
   id="g98">
</g>
<g
   id="g100">
</g>
<g
   id="g102">
</g>
<g
   id="g104">
</g>
<g
   id="g106">
</g>
<g
   id="g108">
</g>
<g
   id="g110">
</g>
<g
   id="g112">
</g>
</svg>
