<?xml version="1.0" encoding="UTF-8" standalone="no"?>
<!-- Generator: Adobe Illustrator 19.0.0, SVG Export Plug-In . SVG Version: 6.00 Build 0)  -->

<svg
   version="1.1"
   id="Capa_1"
   x="0px"
   y="0px"
   viewBox="0 0 512 512"
   style="enable-background:new 0 0 512 512;"
   xml:space="preserve"
   sodipodi:docname="van.svg"
   inkscape:version="1.1.2 (0a00cf5339, 2022-02-04)"
   xmlns:inkscape="http://www.inkscape.org/namespaces/inkscape"
   xmlns:sodipodi="http://sodipodi.sourceforge.net/DTD/sodipodi-0.dtd"
   xmlns="http://www.w3.org/2000/svg"
   xmlns:svg="http://www.w3.org/2000/svg"><defs
   id="defs127" /><sodipodi:namedview
   id="namedview125"
   pagecolor="#ffffff"
   bordercolor="#666666"
   borderopacity="1.0"
   inkscape:pageshadow="2"
   inkscape:pageopacity="0.0"
   inkscape:pagecheckerboard="0"
   showgrid="false"
   inkscape:zoom="1.2304688"
   inkscape:cx="255.59365"
   inkscape:cy="255.59365"
   inkscape:window-width="1920"
   inkscape:window-height="1012"
   inkscape:window-x="0"
   inkscape:window-y="0"
   inkscape:window-maximized="1"
   inkscape:current-layer="Capa_1" />
<path
   id="SVGCleanerId_0"
   style="fill:#51506d"
   d="m 63.85,129.187 h 275.184 c 6.6,0 12.001,-5.4 12.001,-12.001 V 44.872 c 0,-6.6 -5.4,-12.001 -12.001,-12.001 H 63.85 c -6.6,0 -12.001,5.4 -12.001,12.001 v 72.314 c 0,6.601 5.4,12.001 12.001,12.001 z" />
<g
   id="g4"
   transform="matrix(-1,0,0,1,512,0)">
	<path
   id="SVGCleanerId_0_1_"
   style="fill:#51506d"
   d="M 448.15,129.187 H 172.966 c -6.6,0 -12.001,-5.4 -12.001,-12.001 V 44.872 c 0,-6.6 5.4,-12.001 12.001,-12.001 H 448.15 c 6.6,0 12.001,5.4 12.001,12.001 v 72.314 c 0,6.601 -5.4,12.001 -12.001,12.001 z" />
</g>
<path
   style="fill:#434360"
   d="M 326.033,117.186 V 44.872 c 0,-6.6 -5.4,-12.001 -12.001,-12.001 h 25.002 c 6.6,0 12.001,5.4 12.001,12.001 v 72.314 c 0,6.6 -5.4,12.001 -12.001,12.001 h -25.002 c 6.6,0 12.001,-5.399 12.001,-12.001 z"
   id="path6" />
<g
   id="g12"
   transform="matrix(-1,0,0,1,512,0)">
	<path
   style="fill:#51506d"
   d="m 185.967,103.708 -21.139,22.261 c 5.088,4.718 10.746,2.851 18.159,3.218 l 5.036,-5.303 c -3.3,-4.876 -1.587,-8.907 -2.056,-20.176 z"
   id="path8" />
	<path
   style="fill:#51506d"
   d="m 165.035,35.903 20.932,22.043 c 0.493,-10.697 -1.327,-15.005 2.226,-19.997 l -4.821,-5.077 c -7.89,0.357 -13.323,-1.411 -18.337,3.031 z"
   id="path10" />
</g>
<path
   style="fill:#dadada"
   d="m 38.515,128.187 c 154.747,0 175.568,0 332.504,0 4.194,0 7.941,1.912 10.418,4.913 6.083,7.371 2.756,18.632 -6.403,21.481 -3.399,1.057 -337.687,0.559 -337.899,0.537 -3.641,-0.369 -6.842,-2.184 -9.038,-4.843 -7.232,-8.762 -1.025,-22.088 10.418,-22.088 z"
   id="path14" />
<g
   id="g20"
   transform="matrix(-1,0,0,1,512,0)">
	<path
   style="fill:#c0c0c0"
   d="m 155.194,133.1 c 2.476,-3 6.223,-4.913 10.418,-4.913 -8.514,0 -15.315,0 -24.632,0 -6.517,0 -11.966,4.62 -13.227,10.78 -1.404,6.861 2.651,13.574 9.212,15.615 2.624,0.816 1.869,0.607 28.647,0.607 -11.323,0 -17.716,-13.245 -10.418,-22.089 z"
   id="path16" />
	<path
   style="fill:#c0c0c0"
   d="m 209.636,148.188 c -7.456,0 -13.501,6.044 -13.501,13.501 v 22.679 h 27.002 v -22.679 c 0,-7.456 -6.045,-13.501 -13.501,-13.501 z"
   id="path18" />
</g>
<path
   style="fill:#afafb2"
   d="m 295.614,150.009 c 8.908,-5.159 20.251,1.226 20.251,11.68 v 22.679 h -13.501 v -22.679 c 0,-4.994 -2.719,-9.344 -6.75,-11.68 z"
   id="path22" />
<path
   style="fill:#c0c0c0"
   d="m 122.52,148.188 c 7.456,0 13.501,6.044 13.501,13.501 v 22.679 h -27.002 v -22.679 c 10e-4,-7.456 6.045,-13.501 13.501,-13.501 z"
   id="path24" />
<path
   style="fill:#afafb2"
   d="m 115.77,150.009 c 8.908,-5.159 20.251,1.226 20.251,11.68 v 22.679 H 122.52 v -22.679 c 0,-4.994 -2.719,-9.344 -6.75,-11.68 z"
   id="path26" />
<path
   style="fill:#d83d3d"
   d="m 43.313,181.369 h 326.282 c 5.129,0 10.023,2.153 13.488,5.933 l 91.352,99.648 c 7.97,8.695 12.777,19.766 13.748,31.438 h 0.193 v 4.398 13.604 27.002 53.599 c -7.207,0 -51.932,0 -58.408,0 -104.08,0 -334.826,0 -404.954,0 0,-80.111 0,-138.069 0,-217.323 0.001,-10.106 8.193,-18.299 18.299,-18.299 z"
   id="path28" />
<path
   style="fill:#b72c2c"
   d="m 463.374,318.388 h -0.193 c -1.602,-19.251 -14.56,-26.679 -109.1,-131.085 -3.466,-3.78 -8.359,-5.933 -13.488,-5.933 h 29.002 c 5.129,0 10.023,2.153 13.488,5.933 l 91.352,99.647 c 7.97,8.695 12.777,19.766 13.748,31.438 h 0.193 v 4.398 13.604 27.002 53.599 c -13.953,0 -7.239,0 -25.002,0 0,-19.96 0,-77.679 0,-98.603 z"
   id="path30" />
<path
   style="fill:#f9b938"
   d="m 477.665,363.391 h 13.334 c 7.456,0 13.501,-6.044 13.501,-13.501 0,-7.456 -6.044,-13.501 -13.501,-13.501 h -13.334 c -7.456,0 -13.501,6.044 -13.501,13.501 0,7.457 6.044,13.501 13.501,13.501 z"
   id="path32" />
<path
   style="fill:#eaa224"
   d="m 483.788,349.891 c 0,-6.176 -4.151,-11.372 -9.813,-12.978 1.174,-0.333 2.408,-0.523 3.688,-0.523 h 13.336 c 7.456,0 13.501,6.044 13.501,13.501 0,7.456 -6.044,13.501 -13.501,13.501 -12.948,-0.155 -13.912,0.36 -17.023,-0.523 5.661,-1.607 9.812,-6.802 9.812,-12.978 z"
   id="path34" />
<path
   style="fill:#f9b938"
   d="m 21.001,363.391 h 13.334 c 7.456,0 13.501,-6.044 13.501,-13.501 0,-7.456 -6.044,-13.501 -13.501,-13.501 H 21.001 c -7.456,0 -13.501,6.044 -13.501,13.501 0,7.457 6.045,13.501 13.501,13.501 z"
   id="path36" />
<path
   style="fill:#eaa224"
   d="m 30.002,349.891 c 0,-6.688 -4.867,-12.225 -11.251,-13.299 2.139,-0.36 2.046,-0.13 15.584,-0.202 7.456,0 13.501,6.044 13.501,13.501 0,7.456 -6.044,13.501 -13.501,13.501 -13.648,-0.073 -13.455,0.156 -15.584,-0.203 6.384,-1.073 11.251,-6.61 11.251,-13.298 z"
   id="path38" />
<path
   style="fill:#dadada"
   d="m 21.001,413.99 c 14.87,0 390.003,0 408.966,0 21.484,0 39.374,0 61.031,0 7.456,0 13.501,6.044 13.501,13.501 0,7.456 -6.044,13.501 -13.501,13.501 -23.998,0 -449.333,0 -469.997,0 -7.456,0 -13.501,-6.044 -13.501,-13.501 0,-7.456 6.045,-13.501 13.501,-13.501 z"
   id="path40" />
<path
   style="fill:#c0c0c0"
   d="m 470.387,427.491 c 0,-7.456 -6.044,-13.501 -13.501,-13.501 11.465,0 21.051,0 34.112,0 7.456,0 13.501,6.044 13.501,13.501 0,7.456 -6.044,13.501 -13.501,13.501 -12.238,0 -21.874,0 -34.112,0 7.457,0 13.501,-6.044 13.501,-13.501 z"
   id="path42" />
<path
   style="fill:#70bbef"
   d="m 256.472,291.759 h 49.458 c 4.914,0 8.936,-4.021 8.936,-8.936 v -49.459 c 0,-4.915 -4.021,-8.936 -8.936,-8.936 h -49.458 c -4.914,0 -8.936,4.021 -8.936,8.936 v 49.458 c -0.001,4.916 4.02,8.937 8.936,8.937 z"
   id="path44" />
<path
   style="fill:#4caee5"
   d="m 289.666,282.822 v -49.458 c 0,-4.914 -4.021,-8.937 -8.936,-8.937 h 25.2 c 4.914,0 8.936,4.021 8.936,8.937 v 49.458 c 0,4.914 -4.021,8.936 -8.936,8.936 h -25.2 c 4.914,0.001 8.936,-4.02 8.936,-8.936 z"
   id="path46" />
<g
   id="g52"
   transform="matrix(-1,0,0,1,512,0)">
	<path
   style="fill:#70bbef"
   d="m 444.239,291.759 h -49.458 c -4.914,0 -8.936,-4.021 -8.936,-8.936 v -49.459 c 0,-4.915 4.021,-8.936 8.936,-8.936 h 49.458 c 4.915,0 8.936,4.021 8.936,8.936 v 49.458 c -0.001,4.916 -4.022,8.937 -8.936,8.937 z"
   id="path48" />
	<path
   style="fill:#70bbef"
   d="m 159.251,224.429 c -26.672,0 -53.148,0 -64.37,0 -60.528,66.227 -57.803,62.604 -61.215,67.33 15.4,0 115.235,0 125.585,0 6.328,0 11.506,-5.177 11.506,-11.506 v -44.319 c -0.001,-6.328 -5.178,-11.505 -11.506,-11.505 z"
   id="path50" />
</g>
<path
   style="fill:#4caee5"
   d="m 417.119,224.429 c 56.349,61.827 57.243,61.827 61.215,67.33 -5.685,0 -21.293,0 -28.66,0 -3.342,-3.961 -0.737,-0.937 -61.557,-67.33 l 29.002,0 z"
   id="path54" />
<circle
   style="fill:#635e5e"
   cx="-380.642"
   cy="428.67599"
   r="51.452999"
   id="circle56"
   transform="scale(-1,1)" />
<path
   style="fill:#4c4846"
   d="m 396.173,438.224 c 11.582,-19.615 8.648,-43.771 -5.572,-60.029 34.649,6.833 52.451,45.988 34.35,76.644 -14.448,24.469 -45.997,32.594 -70.466,18.146 -4.855,-2.866 -9.055,-6.414 -12.574,-10.439 20.815,4.106 42.861,-5.014 54.262,-24.322 z"
   id="path58" />
<circle
   style="fill:#c0c0c0"
   cx="-380.642"
   cy="428.67599"
   r="17.995001"
   id="circle60"
   transform="scale(-1,1)" />
<path
   style="fill:#afafb2"
   d="m 380.557,428.831 c 3.415,-5.784 3.213,-12.695 0.087,-18.13 3.116,-0.003 6.272,0.783 9.15,2.482 8.558,5.052 11.399,16.086 6.346,24.645 -5.053,8.558 -16.087,11.399 -24.644,6.346 -2.773,-1.638 -4.935,-3.908 -6.433,-6.514 6.149,-0.006 12.14,-3.148 15.494,-8.829 z"
   id="path62" />
<path
   style="fill:#70bbef"
   d="m 162.116,291.759 h 49.458 c 4.914,0 8.936,-4.021 8.936,-8.936 v -49.459 c 0,-4.915 -4.021,-8.936 -8.936,-8.936 h -49.458 c -4.914,0 -8.936,4.021 -8.936,8.936 v 49.458 c 0,4.916 4.022,8.937 8.936,8.937 z"
   id="path64" />
<g
   id="g70"
   transform="matrix(-1,0,0,1,512,0)">
	<path
   style="fill:#4caee5"
   d="m 316.69,282.822 v -49.458 c 0,-4.914 4.021,-8.937 8.936,-8.937 h -25.2 c -4.914,0 -8.936,4.021 -8.936,8.937 v 49.458 c 0,4.914 4.021,8.936 8.936,8.936 h 25.2 c -4.916,0.001 -8.936,-4.02 -8.936,-8.936 z"
   id="path66" />
	<path
   style="fill:#4caee5"
   d="m 411.045,282.822 v -49.458 c 0,-4.914 4.021,-8.937 8.936,-8.937 h -25.2 c -4.915,0 -8.936,4.021 -8.936,8.937 v 49.458 c 0,4.914 4.021,8.936 8.936,8.936 h 25.2 c -4.915,0.001 -8.936,-4.02 -8.936,-8.936 z"
   id="path68" />
</g>
<circle
   style="fill:#635e5e"
   cx="-138.75699"
   cy="428.67599"
   r="51.452999"
   id="circle72"
   transform="scale(-1,1)" />
<path
   style="fill:#4c4846"
   d="m 154.282,438.224 c 11.582,-19.615 8.648,-43.771 -5.572,-60.029 5.564,1.097 11.043,3.129 16.204,6.176 24.469,14.448 32.594,45.997 18.146,70.467 -17.802,30.15 -59.964,34.094 -83.041,7.707 20.816,4.107 42.863,-5.013 54.263,-24.321 z"
   id="path74" />
<circle
   style="fill:#c0c0c0"
   cx="-138.75699"
   cy="428.67599"
   r="17.995001"
   id="circle76"
   transform="scale(-1,1)" />
<path
   style="fill:#afafb2"
   d="m 138.753,410.701 c 3.116,-0.003 6.272,0.783 9.15,2.482 8.558,5.052 11.399,16.086 6.346,24.645 -7.018,11.887 -24.243,11.716 -31.078,-0.168 13.874,-0.014 22.479,-14.964 15.582,-26.959 z"
   id="path78" />
<path
   d="m 138.994,403.185 c 22.889,0.223 33.62,27.992 17.603,43.697 -5.015,4.919 -11.535,7.366 -18.1,7.291 -14.091,-0.137 -25.382,-11.651 -25.246,-25.743 0.132,-13.535 10.949,-25.245 25.743,-25.245 z m -0.351,35.987 c 2.551,0.069 5.348,-0.939 7.449,-3 6.682,-6.555 2.014,-17.987 -7.35,-17.987 -5.742,0 -10.435,4.618 -10.491,10.393 -0.026,2.801 4.592,10.538 10.392,10.594 z"
   id="path80" />
<path
   d="m 380.893,403.185 c 22.505,0.219 33.871,27.745 17.602,43.697 -16.171,15.862 -43.565,4.114 -43.346,-18.451 0.135,-13.596 11.071,-25.246 25.744,-25.246 z m -0.351,35.987 c 9.33,0.159 14.105,-11.206 7.595,-17.841 -1.962,-2.001 -4.587,-3.118 -7.39,-3.146 -0.034,-10e-4 -0.069,-10e-4 -0.104,-10e-4 -5.739,0 -10.437,4.641 -10.493,10.393 -0.056,5.799 4.592,10.539 10.392,10.595 z"
   id="path82" />
<path
   d="m 512,427.492 c 0,11.58 -9.422,21.001 -21.001,21.001 h -54.841 c -8.167,22.816 -29.996,39.14 -55.504,39.14 -0.193,0 -0.39,-10e-4 -0.584,-0.003 -25.654,-0.251 -47,-16.751 -54.971,-39.137 H 194.29 c -8.064,22.664 -29.776,39.14 -55.527,39.14 -0.197,0 -0.395,-10e-4 -0.592,-0.003 -25.356,-0.248 -46.863,-16.55 -54.949,-39.137 H 21.003 c -11.58,0 -21.001,-9.422 -21.001,-21.001 0,-10.39 7.591,-19.018 17.514,-20.687 V 370.578 C 7.591,368.909 0,360.28 0,349.891 0,339.501 7.591,330.873 17.514,329.204 V 291.76 c 0,-4.143 3.357,-7.5 7.5,-7.5 4.143,0 7.5,3.357 7.5,7.5 v 37.13 h 1.82 c 11.58,0 21.001,9.422 21.001,21.001 v 0 0 c 0,11.58 -9.422,21.001 -21.001,21.001 h -1.82 V 406.49 H 84.13 c 19.616,-48.229 89.152,-49.506 109.265,0 h 132.634 c 19.735,-48.58 89.274,-49.228 109.266,0 h 45.58 v -35.597 h -3.21 c -11.58,0 -21.001,-9.422 -21.001,-21.001 v -10e-4 c 0,-11.58 9.422,-21.001 21.001,-21.001 h 3.21 c -0.343,-3.38 1.829,-15.761 -6.554,-29.63 h -53.229 c -4.143,0 -7.5,-3.357 -7.5,-7.5 0,-4.143 3.357,-7.5 7.5,-7.5 h 40.701 L 413.82,231.931 h -61.071 c -2.171,0 -4.005,1.834 -4.005,4.005 v 44.319 c 0,2.171 1.834,4.005 4.005,4.005 h 33.341 c 4.143,0 7.5,3.357 7.5,7.5 0,4.143 -3.357,7.5 -7.5,7.5 h -33.341 c -10.48,0 -19.006,-8.526 -19.006,-19.006 v -44.319 c 0,-10.48 8.525,-19.006 19.006,-19.006 h 47.319 l -22.512,-24.557 c -2.04,-2.225 -4.94,-3.501 -7.959,-3.501 -11.3,0 -222.193,0 -233.575,0 -10.428,0 -81.288,0 -92.709,0 -5.953,0 -10.798,4.844 -10.798,10.798 v 57.089 c 0,4.143 -3.357,7.5 -7.5,7.5 -4.143,0 -7.5,-3.357 -7.5,-7.5 v -57.089 c 0,-14.226 11.573,-25.799 25.799,-25.799 h 58.207 V 162.69 H 38.517 c -11.58,0 -21.001,-9.422 -21.001,-21.001 0,-11.579 9.422,-21.001 21.001,-21.001 h 6.378 c -1.036,-4.36 -0.344,-1.623 -0.545,-76.815 0,-13.246 12.668,-20.117 18.354,-19.443 2.103,-0.124 -2.609,-0.019 28.816,-0.058 4.143,0 7.5,3.357 7.5,7.5 0,4.143 -3.357,7.5 -7.5,7.5 H 79.925 l 29.095,29.095 29.096,-29.094 h -11.594 c -4.143,0 -7.5,-3.357 -7.5,-7.5 0,-4.143 3.357,-7.5 7.5,-7.5 h 27.707 c 0.007,0 0.014,0 0.014,0 h 1.973 c 0.007,0 0.014,0 0.021,0 20.37,0 162.313,0 182.8,0 0.346,0 0.683,0.034 1.024,0.052 1.315,-0.148 2.659,0.054 3.889,0.6 8.378,2.187 14.588,9.797 14.588,18.85 v 72.314 c 0,1.551 -0.201,3.053 -0.545,4.5 h 13.031 c 11.58,0 21.001,9.422 21.001,21.001 0,11.579 -9.422,21.001 -21.001,21.001 H 323.37 v 11.18 h 46.231 c 7.211,0 14.144,3.049 19.017,8.365 l 79.291,86.491 12.062,13.157 c 0.509,0.555 1.011,1.135 1.51,1.727 0.23,0.271 0.458,0.542 0.682,0.816 0.138,0.17 0.275,0.345 0.412,0.518 16.312,20.336 12.859,41.331 13.306,44.542 9.227,2.205 16.119,10.505 16.119,20.404 0,9.899 -6.892,18.198 -16.124,20.406 v 36.789 C 505.108,409.293 512,417.594 512,427.492 Z M 281.363,162.689 H 143.522 v 11.18 h 137.841 z m -152.842,11.18 c -0.238,-12.166 0.833,-13.787 -1.726,-16.384 -0.274,-0.278 -0.481,-0.438 -0.66,-0.574 -0.217,-0.164 -0.453,-0.317 -0.627,-0.418 -0.473,-0.272 -0.962,-0.472 -1.496,-0.609 -0.832,-0.215 -1.615,-0.242 -2.42,-0.116 -0.29,0.046 -0.601,0.122 -0.726,0.158 -0.513,0.148 -1.006,0.363 -1.485,0.659 -4.042,2.489 -2.596,6.889 -2.86,17.283 l 12,0.001 z M 343.534,116.186 V 43.873 c 0,-1.102 -0.435,-2.113 -1.12,-2.905 l -38.108,38.108 38.859,38.859 c 0.236,-0.541 0.369,-1.132 0.369,-1.749 z M 230.537,39.373 h -58.191 l 29.095,29.095 z m -18.487,39.703 35.52,35.52 35.52,-35.52 -35.52,-35.52 z m 81.647,-10.608 29.096,-29.095 h -58.191 z m 0,21.216 -31.003,31.003 h 62.007 z m -92.256,0 -31.003,31.003 h 62.007 z M 60.394,41.059 c -0.64,0.779 -1.044,1.754 -1.044,2.814 0.127,76.549 -0.296,72.39 0.326,73.938 L 98.411,79.076 Z m 17.622,79.628 h 62.007 L 109.02,89.684 Z M 155.23,114.679 190.833,79.076 155.23,43.473 119.627,79.076 Z m 221.79,27.009 c 0,-3.309 -2.691,-6 -6,-6 -10.313,0 -299.814,0 -332.504,0 -3.309,0 -6,2.691 -6,6 0,3.309 2.691,6 6,6 h 68.354 c 8.427,-9.418 23.056,-9.215 31.301,0 h 148.543 c 8.432,-9.424 23.051,-9.22 31.301,0 h 53.005 c 3.309,0 6,-2.691 6,-6 z m -71.041,15.223 c -4.003,-3.028 -9.615,-0.07 -9.615,4.778 v 12.18 h 12.001 c -0.234,-11.957 1,-14.385 -2.386,-16.958 z m 74.237,315.718 c 38.872,0.46 59.257,-46.737 31.811,-74.726 -9.791,-9.983 -23.39,-14.554 -37.044,-12.802 -25.748,3.385 -43.202,28.156 -37.016,54.131 4.614,18.808 21.543,33.196 42.249,33.397 z m -241.9,0 c 0.147,0.002 0.294,0.003 0.44,0.003 20.593,0 37.903,-14.13 42.659,-33.43 13.205,-53.719 -66.375,-77.923 -84.34,-24.482 -9.428,28.177 11.388,57.618 41.241,57.909 z M 15.001,349.891 c 0,3.309 2.691,6 6,6 h 13.334 c 3.308,0 6,-2.691 6,-6 0,-3.308 -2.692,-6 -6,-6 h -9.321 c -0.007,0 -0.013,-0.001 -0.019,-0.001 h -3.993 c -3.309,0 -6.001,2.691 -6.001,6.001 z m 10.014,71.601 h -4.013 c -3.309,0 -6,2.691 -6,6 0,3.309 2.691,6 6,6 h 58.985 c -0.317,-3.898 -0.247,-8.023 0.246,-12.001 H 25.015 Z m 172.249,0 c 0.056,0.458 0.1,0.919 0.145,1.379 0.029,0.298 0.058,0.596 0.083,0.895 0.26,3.136 0.282,6.432 0.009,9.727 h 124.384 c -0.311,-3.825 -0.256,-7.949 0.246,-12.001 z m 241.899,0 c 0.451,3.686 0.582,7.807 0.237,12.001 h 51.599 c 3.309,0 6,-2.691 6,-6 0,-3.309 -2.691,-6 -6,-6 -15.244,-10e-4 -36.402,-10e-4 -51.836,-10e-4 z m 51.836,-77.602 h -2.604 c -16.526,0.001 -8.386,0.001 -10.73,0.001 -3.308,0 -6,2.691 -6,6 0,3.308 2.692,6 6,6 h 13.334 c 3.309,0 6,-2.691 6,-6 0,-3.309 -2.691,-6.001 -6,-6.001 z"
   id="path84" />
<path
   d="m 256.471,299.259 c -9.064,0 -16.437,-7.373 -16.437,-16.437 v -49.458 c 0,-9.064 7.373,-16.437 16.437,-16.437 h 49.458 c 9.064,0 16.437,7.373 16.437,16.437 v 49.458 c 0,9.064 -7.373,16.437 -16.437,16.437 z m 50.894,-16.437 v -49.458 c 0,-0.778 -0.657,-1.436 -1.436,-1.436 h -49.458 c -0.778,0 -1.436,0.657 -1.436,1.436 v 49.458 c 0,0.778 0.657,1.436 1.436,1.436 h 49.458 c 0.779,0.001 1.436,-0.656 1.436,-1.436 z"
   id="path86" />
<path
   d="m 162.117,299.259 c -9.064,0 -16.437,-7.373 -16.437,-16.437 v -49.458 c 0,-9.064 7.373,-16.437 16.437,-16.437 h 49.458 c 9.064,0 16.436,7.373 16.436,16.437 v 49.458 c 0,9.064 -7.372,16.437 -16.436,16.437 z m 50.892,-16.437 v -49.458 c 0,-0.778 -0.657,-1.436 -1.435,-1.436 h -49.458 c -0.778,0 -1.436,0.657 -1.436,1.436 v 49.458 c 0,0.778 0.657,1.436 1.436,1.436 h 49.458 c 0.778,0.001 1.435,-0.656 1.435,-1.436 z"
   id="path88" />
<path
   d="m 51.325,282.822 v -49.458 c 0,-9.064 7.373,-16.437 16.437,-16.437 h 49.458 c 9.064,0 16.437,7.373 16.437,16.437 v 49.458 c 0,9.064 -7.373,16.437 -16.437,16.437 H 67.762 c -9.063,0 -16.437,-7.373 -16.437,-16.437 z m 15.001,0 c 0,0.778 0.657,1.436 1.436,1.436 h 49.458 c 0.778,0 1.436,-0.657 1.436,-1.436 v -49.458 c 0,-0.778 -0.657,-1.436 -1.436,-1.436 H 67.762 c -0.778,0 -1.436,0.657 -1.436,1.436 v 49.458 z"
   id="path90" />
<path
   d="m 449.54,349.891 c 0,4.143 -3.357,7.5 -7.5,7.5 H 73.018 c -4.143,0 -7.5,-3.357 -7.5,-7.5 0,-4.143 3.357,-7.5 7.5,-7.5 H 442.04 c 4.143,-0.001 7.5,3.356 7.5,7.5 z"
   id="path92" />
<g
   id="g94"
   transform="matrix(-1,0,0,1,512,0)">
</g>
<g
   id="g96"
   transform="matrix(-1,0,0,1,512,0)">
</g>
<g
   id="g98"
   transform="matrix(-1,0,0,1,512,0)">
</g>
<g
   id="g100"
   transform="matrix(-1,0,0,1,512,0)">
</g>
<g
   id="g102"
   transform="matrix(-1,0,0,1,512,0)">
</g>
<g
   id="g104"
   transform="matrix(-1,0,0,1,512,0)">
</g>
<g
   id="g106"
   transform="matrix(-1,0,0,1,512,0)">
</g>
<g
   id="g108"
   transform="matrix(-1,0,0,1,512,0)">
</g>
<g
   id="g110"
   transform="matrix(-1,0,0,1,512,0)">
</g>
<g
   id="g112"
   transform="matrix(-1,0,0,1,512,0)">
</g>
<g
   id="g114"
   transform="matrix(-1,0,0,1,512,0)">
</g>
<g
   id="g116"
   transform="matrix(-1,0,0,1,512,0)">
</g>
<g
   id="g118"
   transform="matrix(-1,0,0,1,512,0)">
</g>
<g
   id="g120"
   transform="matrix(-1,0,0,1,512,0)">
</g>
<g
   id="g122"
   transform="matrix(-1,0,0,1,512,0)">
</g>
</svg>
