<svg id="Layer_1" enable-background="new 0 0 512.032 512.032" height="512" viewBox="0 0 512.032 512.032" width="512" xmlns="http://www.w3.org/2000/svg"><g><g><g><path d="m146.424 292.389h-87.514c-8.412 0-15.639 5.979-17.223 14.25l-16.023 83.667h107.864z" fill="#fed73a"/><path d="m25.663 390.306-17.844 93.173c-2.073 10.824 6.214 20.861 17.223 20.861h93.465l15.02-114.034z" fill="#ff73a6"/><path d="m486.337 390.306h-107.864l15.02 114.034h93.465c11.01 0 19.296-10.037 17.223-20.861z" fill="#fed73a"/><path d="m504.181 483.479-17.844-93.173h-40l17.844 93.173c2.073 10.824-6.214 20.861-17.223 20.861h40c11.009 0 19.296-10.037 17.223-20.861z" fill="#fc0"/><path d="m486.337 390.306-16.023-83.667c-1.584-8.27-8.811-14.25-17.223-14.25h-87.514l12.897 97.917z" fill="#3aeee6"/><path d="m470.313 306.639c-1.584-8.27-8.811-14.25-17.223-14.25h-40c8.412 0 15.639 5.979 17.223 14.25l16.023 83.667h40z" fill="#0dded5"/><path d="m378.473 390.306-12.897-97.917h-109.576v97.917z" fill="#ff73a6"/><path d="m256 390.306v-97.917h-109.576l-12.897 97.917z" fill="#2f4ca3"/><path d="m256 390.306v114.034h137.493l-15.02-114.034z" fill="#2f4ca3"/><path d="m133.527 390.306-15.02 114.034h137.493v-114.034z" fill="#3aeee6"/></g><g><path d="m239 65.77v-21.446c0-6.934 5.621-12.555 12.555-12.555h8.891c6.934 0 12.555 5.621 12.555 12.555v21.446" fill="#2f4ca3"/><g><g fill="#a5fffa"><path d="m293.626 121.211c22.18 3.542 41.06 10.147 54.041 18.665l2.381 1.551c-7.205-38.901-37.945-69.541-76.9-76.592l1.106 1.455c8.821 12.954 15.686 32.191 19.372 54.921z"/><path d="m350.368 174.645-2.352 2.565c-12.793 8.773-31.758 15.609-54.168 19.309-3.515 22.63-10.165 41.899-18.769 55.104l-.875 1.252c39.063-7.528 69.66-38.814 76.164-78.23z"/><path d="m218.214 121.325c3.532-22.449 10.155-41.56 18.705-54.683l1.393-1.704c-38.932 7.279-69.56 38.136-76.492 77.189l2.513-1.899c12.861-8.598 31.698-15.285 53.881-18.903z"/><path d="m218.325 196.748c-22.31-3.53-41.303-10.156-54.342-18.712l-2.039-1.593c7.169 38.803 37.755 69.392 76.557 76.566l-1.229-1.74c-8.632-13-15.339-32.067-18.947-54.521z"/></g><path d="m218.214 121.325c11.861-1.934 24.677-2.993 38.052-2.993 13.115 0 25.693 1.016 37.36 2.879-3.686-22.731-10.551-41.967-19.372-54.922l-1.106-1.455c-5.564-1.006-11.294-1.534-17.148-1.534-6.044 0-11.955.567-17.688 1.639l-1.393 1.704c-8.55 13.122-15.173 32.233-18.705 54.682z" fill="#3aeee6"/><path d="m293.849 196.519c-11.976 1.977-24.935 3.061-38.465 3.061-13.002 0-25.477-.999-37.058-2.832 3.608 22.454 10.315 41.52 18.947 54.522l1.229 1.74c5.674 1.049 11.522 1.603 17.499 1.603 6.226 0 12.311-.602 18.206-1.738l.875-1.252c8.602-13.205 15.252-32.474 18.767-55.104z" fill="#3aeee6"/><path d="m218.325 196.748c-1.907-11.872-2.949-24.689-2.949-38.06 0-13.11 1.001-25.687 2.838-37.363-22.184 3.618-41.021 10.305-53.881 18.903l-2.513 1.899c-.97 5.463-1.477 11.087-1.477 16.829 0 5.973.553 11.817 1.6 17.487l2.039 1.593c13.041 8.557 32.033 15.182 54.343 18.712z" fill="#3aeee6"/><path d="m293.626 121.211c1.939 11.957 2.998 24.88 2.998 38.365 0 12.953-.98 25.385-2.775 36.943 22.41-3.7 41.374-10.537 54.168-19.309l2.352-2.565c.842-5.105 1.288-10.345 1.288-15.689 0-5.988-.556-11.846-1.608-17.53l-2.381-1.551c-12.982-8.517-31.862-15.122-54.042-18.664z" fill="#3aeee6"/><path d="m293.626 121.211c-11.667-1.863-24.245-2.879-37.36-2.879-13.375 0-26.191 1.059-38.052 2.993-1.837 11.676-2.838 24.253-2.838 37.363 0 13.371 1.042 26.189 2.949 38.06 11.582 1.833 24.057 2.832 37.058 2.832 13.531 0 26.489-1.083 38.465-3.061 1.795-11.558 2.775-23.989 2.775-36.943.001-13.485-1.058-26.408-2.997-38.365z" fill="#a5fffa"/></g></g></g><g><path d="m477.696 305.228c-2.258-11.785-12.599-20.339-24.59-20.339h-394.18c-11.991 0-22.332 8.554-24.59 20.339l-15.942 83.241c-.072.286-.129.577-.167.875l-17.758 92.724c-2.913 15.209 9.095 29.771 24.589 29.771h404.722c9.386 0 9.813-15 0-15h-29.694l-13.045-99.034h93.112l16.678 87.084c1.168 6.104-3.633 11.949-9.856 11.949h-18.958c-9.386 0-9.813 15 0 15h18.958c15.493 0 27.502-14.562 24.589-29.771zm-118.682-5.339 10.922 82.917h-106.42v-82.917zm-110.498 0v82.917h-106.42l10.922-82.917zm-199.447 8.161c.905-4.728 5.051-8.16 9.857-8.16h78.962l-10.922 82.917h-92.214zm-31.741 185.148c-1.919-2.321-2.693-5.349-2.127-8.308l16.678-87.084h93.112l-13.045 99.034h-86.888c-2.999 0-5.817-1.327-7.73-3.642zm122.792-95.392h108.396v99.034h-121.44zm244.836 99.034h-121.44v-99.034h108.396zm.109-114.034-10.922-82.917h78.962c4.807 0 8.952 3.432 9.857 8.16l14.317 74.756h-92.214z"/><path d="m256.016 262.113c56.632 0 102.705-46.073 102.705-102.705 0-48.19-33.365-88.728-78.205-99.744v-15.339c0-10.019-7.392-18.321-17.005-19.798 0-.031.005-.06.005-.091v-17.044c0-9.386-15-9.813-15 0v17.044c0 .031.004.06.005.091-9.612 1.477-17.005 9.779-17.005 19.798v15.333c-10.419 2.552-20.406 6.728-29.594 12.43-7.974 4.95-.425 17.923 7.91 12.744 4.178-2.593 8.553-4.811 13.072-6.652-4.728 10.813-8.445 23.501-10.974 37.321-13.908 2.63-26.63 6.487-37.398 11.385 2.495-6.243 5.72-12.215 9.649-17.811 5.393-7.682-6.637-16.649-12.277-8.619-12.164 17.326-18.594 37.711-18.594 58.952.001 56.631 46.074 102.705 102.706 102.705zm-81.249-69.692c10.788 4.774 23.468 8.524 37.287 11.07 2.574 13.815 6.343 26.472 11.124 37.237-21.931-8.888-39.477-26.399-48.411-48.307zm68.22 53.723c-6.611-10.328-11.803-24.272-15.224-40.333 18.814 2.111 37.913 2.06 56.715-.158-3.313 15.986-8.365 29.949-14.814 40.396-8.822 1.384-17.847 1.415-26.677.095zm-19.904-87.003c0-10.532.676-20.824 1.952-30.606 20.446-2.766 41.394-2.789 61.847-.08 2.746 20.424 2.795 41.338.166 61.778-20.469 2.802-41.448 2.85-61.933.167-1.329-9.968-2.032-20.483-2.032-31.259zm120.638.267c0 4.18-.301 8.291-.869 12.317-10.2 6.861-24.182 12.25-40.397 15.794 2.06-18.721 2.013-37.713-.151-56.422 16.128 3.434 30.137 8.674 40.458 15.354.629 4.229.959 8.555.959 12.957zm-54.398 81.128c4.682-10.825 8.359-23.502 10.854-37.294 13.916-2.659 26.618-6.551 37.361-11.489-8.785 22.064-26.28 39.745-48.215 48.783zm48.018-113.956c-10.801-4.828-23.528-8.623-37.41-11.202-2.605-13.888-6.42-26.587-11.263-37.367 22.08 8.889 39.737 26.512 48.673 48.569zm-90.825-82.255c0-2.787 2.268-5.055 5.055-5.055h8.891c2.787 0 5.055 2.268 5.055 5.055v12.821c-3.129-.288-6.297-.443-9.5-.443-3.183 0-6.352.16-9.5.451v-12.829zm-3.909 28.414c8.669-1.334 17.513-1.375 26.192-.102 6.695 10.301 11.952 24.266 15.415 40.4-18.766-2.129-37.817-2.102-56.577.08 3.354-16.016 8.46-29.976 14.97-40.378zm-32.986 58.484c-2.098 18.764-2.072 37.805.08 56.562-16.066-3.391-30.045-8.57-40.398-15.179-1.293-8.531-1.311-17.235-.088-25.775 10.244-6.781 24.236-12.108 40.406-15.608z"/><path d="m374.75 159.008c0 4.142 3.357 7.5 7.5 7.5h30.763c9.386 0 9.813-15 0-15h-30.763c-4.142 0-7.5 3.358-7.5 7.5z"/><path d="m365.146 103.446c1.272 0 2.563-.324 3.743-1.006l26.641-15.381c8.128-4.693.997-17.898-7.5-12.99l-26.641 15.381c-6.381 3.684-3.616 13.996 3.757 13.996z"/><path d="m113.358 77.505c-2.071 3.587-.842 8.174 2.745 10.245l26.642 15.381c8.121 4.688 16.003-8.081 7.5-12.99l-26.642-15.381c-3.589-2.073-8.175-.842-10.245 2.745z"/><path d="m99.019 167.307h30.763c9.386 0 9.813-15 0-15h-30.763c-9.386 0-9.813 15 0 15z"/><path d="m120.259 245.754c1.272 0 2.563-.325 3.743-1.006l26.641-15.382c8.128-4.693.998-17.895-7.5-12.99l-26.641 15.382c-6.381 3.684-3.616 13.996 3.757 13.996z"/><path d="m369.287 215.684c-8.128-4.695-15.998 8.084-7.5 12.99l26.642 15.381c8.121 4.688 16.003-8.081 7.5-12.99z"/><g><path d="m475.516 96.196v-36.679c.327.02.652.05.984.05 8.837 0 16-7.163 16-16s-7.163-16-16-16c-8.836 0-16 7.163-16 16 0 .106.014.208.016.313v47.03l-29.11 10.396v-26.035c.327.02.652.05.984.05 8.836 0 16-7.163 16-16s-7.164-16-16-16c-8.837 0-16 7.163-16 16 0 .109.014.214.016.322v52.307c0 2.439 1.186 4.726 3.18 6.131 1.281.903 2.794 1.369 4.321 1.369.848 0 1.701-.144 2.521-.437l44.11-15.754c2.986-1.066 4.978-3.894 4.978-7.063z"/><path d="m457.347 198.354c-2.146-2.146-5.371-2.788-8.174-1.626-2.803 1.161-4.63 3.896-4.63 6.929v36.631c-.338-.021-.673-.051-1.017-.051-8.836 0-16 7.163-16 16s7.164 16 16 16c8.425 0 15.313-6.515 15.938-14.779.046-.336.078-.676.078-1.025v-34.669l11.669 11.669c2.93 2.929 7.678 2.929 10.607 0s2.929-7.678 0-10.606z"/><path d="m512.016 158.753c.002-.105.016-.207.016-.313s-.014-.208-.016-.313v-52.136c0-4.142-3.357-7.5-7.5-7.5s-7.5 3.358-7.5 7.5v36.499c-.327-.02-.652-.05-.984-.05-8.837 0-16 7.163-16 16s7.163 16 16 16c8.465 0 15.377-6.579 15.945-14.9.026-.254.04-.512.04-.773v-.014z"/><path d="m92.026 203.658c0-4.142-3.357-7.5-7.5-7.5s-7.5 3.358-7.5 7.5v36.843c-.332-.021-.661-.05-.997-.05-8.837 0-16 7.163-16 16s7.163 16 16 16c8.836 0 16-7.163 16-16 0-.019-.003-.038-.003-.057z"/><path d="m60.111 144.334c8.837 0 16-7.163 16-16s-7.163-16-16-16-16 7.163-16 16c0 .184.021.362.027.544-.003.08-.012.158-.012.239v47.49l-29.11 10.396v-26.965c.327.02.652.05.984.05 8.837 0 16-7.163 16-16s-7.163-16-16-16c-8.836 0-16 7.163-16 16 0 .185.021.364.028.548-.002.079-.012.156-.012.235v52.775c0 2.439 1.186 4.726 3.18 6.131 1.281.903 2.794 1.369 4.321 1.369.848 0 1.701-.144 2.521-.437l44.11-15.754c2.985-1.066 4.978-3.894 4.978-7.063v-37.608c.328.021.652.05.985.05z"/><path d="m89.347 17.814c-2.146-2.145-5.371-2.787-8.174-1.626s-4.63 3.896-4.63 6.929v36.434c-.327-.02-.652-.05-.984-.05-8.837 0-16 7.163-16 16s7.163 16 16 16c8.433 0 15.327-6.529 15.94-14.806.028-.264.044-.531.044-.803v-.072c.002-.107.016-.211.016-.319s-.014-.212-.016-.319v-33.959l11.669 11.669c2.93 2.929 7.678 2.929 10.607 0s2.929-7.678 0-10.606z"/></g></g></g></svg>