<svg id="Layer_1" enable-background="new 0 0 504.273 504.273" height="512" viewBox="0 0 504.273 504.273" width="512" xmlns="http://www.w3.org/2000/svg"><g><g><circle cx="446.913" cy="60.996" fill="#fff1b5" r="53.723"/><g fill="#fed73a"><circle cx="105.841" cy="60.358" r="27.362"/><circle cx="457.821" cy="445.503" r="27.362"/><circle cx="30.998" cy="135.358" r="27.362"/></g><circle cx="45.659" cy="462.25" fill="#fff1b5" r="42.023"/><g><g><path d="m252.136 53.606c-4.142 0-7.5-3.358-7.5-7.5v-38.833c0-9.697 15-9.697 15 0v38.833c0 4.142-3.357 7.5-7.5 7.5z" fill="#cedbe0"/></g><path d="m205.194 102.555v-21.645c0-25.926 21.017-46.942 46.942-46.942 25.926 0 46.942 21.017 46.942 46.942v21.645z" fill="#2f4ca3"/></g></g><g><g><circle cx="252.136" cy="281.287" fill="#a5fffa" r="202.986"/></g><path d="m252.136 78.301c-6.749 0-13.42.337-20 .981 102.717 10.047 182.986 96.648 182.986 202.005s-80.268 191.958-182.986 202.005c6.58.644 13.251.981 20 .981 112.106 0 202.986-90.88 202.986-202.986s-90.88-202.986-202.986-202.986z" fill="#6efff7"/><g><path d="m252.136 171.394v109.893h110.502c-.11-35.616-4.676-69.36-12.768-99.568-29.676-6.623-62.797-10.325-97.734-10.325z" fill="#3aeee6"/><path d="m141.628 281.287c.048 35.574 4.543 69.296 12.557 99.509 29.734 6.655 62.926 10.384 97.952 10.384v-109.893z" fill="#3aeee6"/><g><g><path d="m303.746 84.932c19.795 23.68 35.815 58.303 46.124 96.787 37.576 8.386 73.051 23.671 96.33 39.894-20.509-66.778-74.538-118.877-142.454-136.681z" fill="#3aeee6"/></g></g><path d="m396.296 195.863c19.355 7.54 36.618 16.491 49.905 25.75-20.51-66.778-74.539-118.876-142.454-136.681 6.164 7.374 11.961 15.809 17.334 25.091 32.568 20.759 58.813 50.542 75.215 85.84z" fill="#0dded5"/><g><path d="m362.638 281.287c.001.44.012.876.012 1.317 0 35.006-4.319 68.22-12.049 98.084 37.807-8.515 71.867-21.778 95.112-38.178 6.106-19.319 9.409-39.884 9.409-61.223z" fill="#3aeee6"/></g><g><path d="m415.122 281.287c0 21.339-3.986 59.348-18.386 84.524-1.801 1.271-3.616 2.366-5.444 3.341 21.206-7.399 39.919-16.409 54.422-26.641 6.106-19.319 9.409-39.884 9.409-61.223h-40.001z" fill="#0dded5"/></g><path d="m252.136 391.18v93.093c18.079 0 35.601-2.376 52.284-6.811 19.959-24.073 36.021-57.523 46.181-96.773-29.863 6.725-63.239 10.491-98.465 10.491z" fill="#3aeee6"/><g><path d="m198.532 85.47c-19.215 23.887-34.715 58.324-44.658 96.367 29.811-6.697 63.119-10.443 98.263-10.443v-93.093c-18.558 0-36.527 2.505-53.605 7.169z" fill="#3aeee6"/><g><path d="m58.828 219.207c-6.28 19.567-9.677 40.426-9.677 62.081h92.477c0-.19-.005-.378-.005-.569 0-35.316 4.391-68.813 12.25-98.882-36.499 8.199-71.678 21.683-95.045 37.37z" fill="#3aeee6"/></g></g><g><path d="m57.975 340.635c20.355 66.674 74.106 118.768 141.758 136.799-19.567-23.746-35.385-58.321-45.548-96.637-39.458-8.831-72.812-22.824-96.21-40.162z" fill="#3aeee6"/></g></g></g><g><path d="m252.136 484.273c18.079 0 35.601-2.376 52.284-6.811 6.315-7.616 12.236-16.176 17.707-25.556-.193.152-27.146 21.324-69.991 28.417z" fill="#0dded5"/></g></g></svg>