<?xml version="1.0" encoding="iso-8859-1"?>
<!-- Generator: Adobe Illustrator 19.0.0, SVG Export Plug-In . SVG Version: 6.00 Build 0)  -->
<svg version="1.1" id="Capa_1" xmlns="http://www.w3.org/2000/svg" xmlns:xlink="http://www.w3.org/1999/xlink" x="0px" y="0px"
	 viewBox="0 0 511.999 511.999" style="enable-background:new 0 0 511.999 511.999;" xml:space="preserve">
<path style="fill:#FFE0A1;" d="M256,67.886c-112.793,0-206.88-14.247-228.492-17.783c-2.448-0.4-4.669,1.487-4.669,3.968v218.114
	c0,2.48,2.221,4.368,4.669,3.968c21.613-3.536,115.7-17.783,228.492-17.783s206.88,14.248,228.492,17.783
	c2.448,0.4,4.669-1.487,4.669-3.968V54.071c0-2.48-2.221-4.368-4.669-3.968C462.88,53.639,368.793,67.886,256,67.886z"/>
<path style="fill:#F9F5ED;" d="M459.116,234.138c0,4.175-3.661,7.402-7.801,6.869C407.816,235.4,336.877,228.325,256,228.325
	c-80.884,0-151.82,7.076-195.315,12.682c-4.141,0.534-7.801-2.694-7.801-6.869V92.118c0-4.175,3.661-7.402,7.801-6.869
	C104.184,90.856,175.122,97.932,256,97.932c80.884,0,151.82-7.076,195.315-12.682c4.141-0.534,7.801,2.694,7.801,6.869V234.138z"/>
<g>
	<path style="fill:#EF4A50;" d="M231.082,311.178h-41.188c-13.821,0-25.025,11.204-25.025,25.025v51.705h91.238v-51.705
		C256.107,322.382,244.903,311.178,231.082,311.178z"/>
	<path style="fill:#EF4A50;" d="M139.843,311.178H98.655c-13.821,0-25.025,11.204-25.025,25.025v51.705h91.238v-51.705
		C164.869,322.382,153.664,311.178,139.843,311.178z"/>
	<path style="fill:#EF4A50;" d="M322.32,311.178h-41.188c-13.821,0-25.025,11.204-25.025,25.025v51.705h91.238v-51.705
		C347.345,322.382,336.141,311.178,322.32,311.178z"/>
	<path style="fill:#EF4A50;" d="M413.558,311.178H372.37c-13.821,0-25.025,11.204-25.025,25.025v51.705h91.238v-51.705
		C438.584,322.382,427.379,311.178,413.558,311.178z"/>
</g>
<g>
	<path style="fill:#D12439;" d="M413.558,311.178H372.37c-0.784,0-1.557,0.041-2.322,0.111
		c12.731,1.172,22.703,11.877,22.703,24.914v51.705h45.833v-51.705C438.584,322.382,427.379,311.178,413.558,311.178z"/>
	<path style="fill:#D12439;" d="M322.32,311.178h-41.188c-0.784,0-1.557,0.041-2.322,0.111
		c12.731,1.172,22.703,11.877,22.703,24.914v51.705h45.833v-51.705C347.345,322.382,336.141,311.178,322.32,311.178z"/>
	<path style="fill:#D12439;" d="M230.868,311.178H189.68c-0.784,0-1.557,0.041-2.322,0.111
		c12.731,1.172,22.703,11.877,22.703,24.914v51.705h45.833v-51.705C255.893,322.382,244.689,311.178,230.868,311.178z"/>
	<path style="fill:#D12439;" d="M140.167,311.178H98.98c-0.784,0-1.557,0.041-2.322,0.111c12.731,1.172,22.703,11.877,22.703,24.914
		v51.705h45.833v-51.705C165.193,322.382,153.988,311.178,140.167,311.178z"/>
</g>
<g>
	<path style="fill:#EF4A50;" d="M94.224,364.61H53.036c-13.821,0-25.025,11.204-25.025,25.025v51.705h91.238v-51.705
		C119.249,375.815,108.045,364.61,94.224,364.61z"/>
	<path style="fill:#EF4A50;" d="M185.462,364.61h-41.188c-13.821,0-25.025,11.204-25.025,25.025v51.705h91.238v-51.705
		C210.488,375.815,199.283,364.61,185.462,364.61z"/>
	<path style="fill:#EF4A50;" d="M276.701,364.61h-41.188c-13.821,0-25.025,11.204-25.025,25.025v51.705h91.238v-51.705
		C301.726,375.815,290.522,364.61,276.701,364.61z"/>
	<path style="fill:#EF4A50;" d="M367.939,364.61h-41.188c-13.821,0-25.025,11.204-25.025,25.025v51.705h91.238v-51.705
		C392.964,375.815,381.76,364.61,367.939,364.61z"/>
	<path style="fill:#EF4A50;" d="M459.177,364.61H417.99c-13.821,0-25.025,11.204-25.025,25.025v51.705h91.238v-51.705
		C484.203,375.815,472.999,364.61,459.177,364.61z"/>
</g>
<g>
	<path style="fill:#D12237;" d="M459.178,364.61H417.99c-0.784,0-1.557,0.041-2.322,0.111c12.732,1.172,22.703,11.877,22.703,24.914
		v51.705h45.833v-51.705C484.203,375.814,472.999,364.61,459.178,364.61z"/>
	<path style="fill:#D12237;" d="M367.939,364.61h-41.188c-0.784,0-1.557,0.041-2.322,0.111
		c12.732,1.172,22.703,11.877,22.703,24.914v51.705h45.833v-51.705C392.964,375.814,381.76,364.61,367.939,364.61z"/>
	<path style="fill:#D12237;" d="M276.487,364.61h-41.188c-0.784,0-1.557,0.041-2.322,0.111
		c12.732,1.172,22.703,11.877,22.703,24.914v51.705h45.833v-51.705C301.512,375.814,290.308,364.61,276.487,364.61z"/>
	<path style="fill:#D12237;" d="M185.249,364.61h-41.188c-0.784,0-1.557,0.041-2.322,0.111
		c12.732,1.172,22.703,11.877,22.703,24.914v51.705h45.833v-51.705C210.274,375.814,199.07,364.61,185.249,364.61z"/>
	<path style="fill:#D12237;" d="M94.01,364.61H52.822c-0.784,0-1.557,0.041-2.322,0.111c12.732,1.172,22.703,11.877,22.703,24.914
		v51.705h45.833v-51.705C119.036,375.814,107.831,364.61,94.01,364.61z"/>
</g>
<path style="fill:#DDA064;" d="M502.617,435.837H9.383c-1.033,0-1.871,0.838-1.871,1.871v22.372c0,1.033,0.838,1.871,1.871,1.871
	h493.235c1.033,0,1.871-0.838,1.871-1.871v-22.372C504.489,436.675,503.651,435.837,502.617,435.837z"/>
<path style="fill:#B57947;" d="M502.617,435.837h-50.211v15.897c0,1.033-0.838,1.871-1.871,1.871H7.511v6.475
	c0,1.033,0.838,1.871,1.871,1.871h493.235c1.033,0,1.871-0.838,1.871-1.871v-22.372
	C504.489,436.675,503.651,435.837,502.617,435.837z"/>
<path d="M22.838,153.201c4.149,0,7.511-3.362,7.511-7.511V58.169C60.662,62.968,149.534,75.398,256,75.398
	c106.46,0,195.331-12.429,225.65-17.229v87.481c0,4.149,3.362,7.511,7.511,7.511s7.511-3.363,7.511-7.511V54.071
	c0-3.391-1.482-6.594-4.065-8.789s-5.984-3.142-9.329-2.591C465.228,45.644,369.433,60.375,256,60.375S46.772,45.644,28.721,42.691
	c-3.342-0.544-6.746,0.397-9.33,2.591c-2.583,2.195-4.065,5.398-4.065,8.789v91.619C15.327,149.838,18.689,153.201,22.838,153.201z"
	/>
<path d="M19.392,280.974c2.102,1.786,4.744,2.743,7.459,2.743c0.621,0,1.247-0.05,1.87-0.153
	c18.052-2.953,113.847-17.684,227.28-17.684s209.228,14.731,227.279,17.684c3.342,0.552,6.747-0.397,9.33-2.591
	c2.583-2.195,4.065-5.398,4.065-8.789v-91.546c0-4.149-3.362-7.511-7.511-7.511s-7.511,3.363-7.511,7.511v87.449
	c-30.312-4.799-119.184-17.229-225.65-17.229c-106.46,0-195.331,12.429-225.65,17.229v-87.449c0-4.149-3.363-7.511-7.511-7.511
	s-7.511,3.363-7.511,7.511v91.546C15.327,275.576,16.809,278.779,19.392,280.974z"/>
<path d="M450.355,77.8C405.686,83.558,335.706,90.42,256,90.42c-79.713,0-149.689-6.863-194.355-12.621
	c-4.111-0.531-8.255,0.735-11.369,3.473c-3.116,2.74-4.904,6.694-4.904,10.845v142.019c0,4.152,1.788,8.105,4.904,10.845
	c2.648,2.328,6.04,3.591,9.524,3.591c0.613,0,1.229-0.039,1.845-0.118c44.669-5.758,114.649-12.621,194.355-12.621
	c79.713,0,149.689,6.863,194.355,12.621c4.109,0.528,8.256-0.735,11.369-3.473c3.116-2.74,4.904-6.694,4.904-10.845V92.118
	c0-4.152-1.788-8.105-4.904-10.845C458.611,78.535,454.466,77.271,450.355,77.8z M451.605,233.47
	c-45.131-5.796-115.493-12.658-195.605-12.658c-80.105,0-150.47,6.862-195.605,12.658V92.785
	c45.131,5.796,115.493,12.658,195.605,12.658c80.105,0,150.47-6.862,195.605-12.658L451.605,233.47L451.605,233.47z"/>
<path d="M502.618,428.325H491.5v-38.69c0-17.94-14.596-32.536-32.536-32.536h-12.869v-20.896c0-17.94-14.596-32.536-32.536-32.536
	H372.37c-10.052,0-19.052,4.584-25.025,11.769c-5.973-7.185-14.973-11.769-25.025-11.769h-41.188
	c-10.052,0-19.052,4.584-25.025,11.769c-5.973-7.185-14.973-11.769-25.025-11.769h-41.187c-10.052,0-19.053,4.584-25.026,11.769
	c-5.973-7.185-14.973-11.769-25.025-11.769H98.655c-17.94,0-32.536,14.596-32.536,32.536v20.896H52.822
	c-17.94,0-32.536,14.596-32.536,32.536v38.69H9.382c-5.174,0-9.382,4.209-9.382,9.382v22.373c0,5.174,4.209,9.382,9.382,9.382
	h493.235c5.174,0,9.382-4.209,9.382-9.382v-22.373C512,432.534,507.792,428.325,502.618,428.325z M438.583,372.121h20.38
	c9.657,0,17.514,7.857,17.514,17.514v38.69h-76.216v-38.69c0-0.475,0.034-0.941,0.071-1.406c0.029-0.37,0.077-0.734,0.129-1.097
	c0.03-0.209,0.058-0.419,0.096-0.625c0.063-0.347,0.14-0.688,0.223-1.027c0.052-0.212,0.104-0.424,0.163-0.633
	c0.094-0.329,0.2-0.653,0.312-0.974c0.072-0.206,0.145-0.411,0.225-0.614c0.125-0.317,0.26-0.63,0.402-0.938
	c0.088-0.191,0.179-0.38,0.274-0.567c0.157-0.31,0.323-0.614,0.497-0.913c0.099-0.17,0.202-0.338,0.307-0.504
	c0.191-0.303,0.39-0.601,0.599-0.891c0.105-0.147,0.214-0.29,0.324-0.433c0.227-0.295,0.46-0.585,0.704-0.865
	c0.107-0.123,0.218-0.242,0.329-0.362c0.262-0.284,0.531-0.563,0.811-0.829c0.107-0.102,0.218-0.199,0.328-0.298
	c0.296-0.268,0.599-0.53,0.913-0.777c0.107-0.085,0.219-0.164,0.329-0.246c0.326-0.245,0.658-0.484,1.001-0.706
	c0.112-0.073,0.229-0.139,0.343-0.209c0.349-0.215,0.703-0.424,1.067-0.614c0.125-0.066,0.256-0.122,0.383-0.185
	c0.362-0.178,0.726-0.351,1.1-0.505c0.153-0.062,0.311-0.113,0.466-0.171c0.358-0.135,0.717-0.268,1.086-0.38
	c0.2-0.06,0.407-0.104,0.611-0.157c0.333-0.088,0.665-0.18,1.005-0.248c0.288-0.057,0.583-0.091,0.876-0.134
	c0.267-0.039,0.531-0.09,0.802-0.117c0.572-0.056,1.151-0.088,1.737-0.088L438.583,372.121L438.583,372.121z M354.856,336.203
	c0-9.657,7.857-17.514,17.514-17.514h41.188c9.657,0,17.514,7.857,17.514,17.514v20.896h-13.296c-0.599,0-1.193,0.019-1.783,0.051
	c-0.158,0.009-0.314,0.025-0.471,0.036c-0.439,0.03-0.878,0.065-1.312,0.113c-0.16,0.018-0.318,0.041-0.477,0.061
	c-0.438,0.055-0.875,0.116-1.308,0.187c-0.134,0.022-0.268,0.048-0.402,0.072c-0.468,0.084-0.933,0.177-1.395,0.281
	c-0.091,0.021-0.183,0.042-0.274,0.063c-0.522,0.122-1.038,0.257-1.55,0.404c-0.029,0.009-0.059,0.017-0.089,0.025
	c-6.324,1.837-11.861,5.538-15.966,10.476c-4.105-4.938-9.643-8.64-15.967-10.476c-0.028-0.008-0.057-0.016-0.085-0.024
	c-0.513-0.147-1.03-0.282-1.553-0.405c-0.09-0.021-0.181-0.042-0.272-0.063c-0.462-0.104-0.927-0.197-1.396-0.281
	c-0.133-0.024-0.266-0.049-0.4-0.072c-0.433-0.072-0.87-0.133-1.308-0.188c-0.159-0.02-0.317-0.043-0.477-0.061
	c-0.435-0.048-0.873-0.082-1.312-0.113c-0.157-0.011-0.313-0.027-0.471-0.036c-0.591-0.032-1.185-0.051-1.783-0.051h-12.869
	L354.856,336.203L354.856,336.203z M347.345,372.121h20.38c0.586,0,1.165,0.031,1.737,0.088c0.273,0.027,0.538,0.078,0.807,0.118
	c0.291,0.043,0.585,0.076,0.87,0.133c0.343,0.069,0.678,0.161,1.014,0.25c0.2,0.052,0.404,0.096,0.602,0.155
	c0.372,0.112,0.734,0.247,1.095,0.383c0.152,0.057,0.307,0.106,0.457,0.167c0.378,0.154,0.746,0.329,1.11,0.509
	c0.124,0.061,0.251,0.116,0.373,0.18c0.368,0.192,0.724,0.403,1.077,0.62c0.111,0.068,0.225,0.132,0.334,0.203
	c0.346,0.224,0.681,0.465,1.01,0.712c0.107,0.08,0.215,0.157,0.32,0.24c0.317,0.249,0.621,0.513,0.92,0.783
	c0.107,0.097,0.216,0.192,0.321,0.292c0.282,0.268,0.552,0.548,0.816,0.834c0.109,0.118,0.219,0.236,0.325,0.358
	c0.245,0.281,0.479,0.572,0.706,0.868c0.11,0.143,0.219,0.286,0.324,0.433c0.208,0.29,0.406,0.587,0.597,0.889
	c0.106,0.168,0.209,0.337,0.309,0.508c0.173,0.297,0.338,0.599,0.494,0.906c0.097,0.19,0.189,0.383,0.279,0.578
	c0.14,0.304,0.273,0.612,0.397,0.925c0.082,0.208,0.157,0.419,0.231,0.631c0.11,0.314,0.214,0.631,0.306,0.953
	c0.062,0.218,0.116,0.439,0.17,0.66c0.08,0.33,0.156,0.661,0.217,0.998c0.04,0.218,0.07,0.44,0.101,0.661
	c0.05,0.35,0.096,0.702,0.124,1.059c0.038,0.47,0.072,0.941,0.072,1.42v38.69h-76.216v-38.69c0-0.475,0.034-0.941,0.071-1.406
	c0.029-0.37,0.077-0.734,0.129-1.097c0.03-0.209,0.058-0.419,0.096-0.625c0.063-0.347,0.14-0.688,0.223-1.027
	c0.052-0.212,0.104-0.424,0.163-0.633c0.094-0.329,0.2-0.653,0.312-0.974c0.072-0.206,0.145-0.411,0.225-0.614
	c0.125-0.317,0.26-0.63,0.402-0.938c0.088-0.191,0.179-0.38,0.274-0.567c0.157-0.31,0.323-0.614,0.497-0.913
	c0.099-0.17,0.202-0.338,0.307-0.504c0.191-0.303,0.39-0.601,0.599-0.891c0.105-0.147,0.214-0.29,0.324-0.433
	c0.227-0.295,0.46-0.585,0.704-0.865c0.107-0.123,0.218-0.242,0.329-0.362c0.262-0.284,0.531-0.563,0.811-0.829
	c0.107-0.102,0.218-0.199,0.328-0.298c0.296-0.268,0.599-0.53,0.913-0.777c0.107-0.085,0.219-0.164,0.329-0.246
	c0.326-0.245,0.658-0.484,1.001-0.706c0.112-0.073,0.229-0.139,0.343-0.209c0.349-0.215,0.703-0.424,1.067-0.614
	c0.125-0.066,0.256-0.122,0.383-0.185c0.362-0.178,0.726-0.351,1.1-0.505c0.153-0.062,0.311-0.113,0.466-0.171
	c0.358-0.135,0.717-0.268,1.086-0.38c0.2-0.06,0.407-0.104,0.611-0.157c0.333-0.088,0.665-0.18,1.005-0.248
	c0.288-0.057,0.583-0.091,0.876-0.134c0.267-0.039,0.531-0.09,0.802-0.117c0.572-0.056,1.151-0.088,1.737-0.088h20.808V372.121z
	 M263.618,336.203c0-9.657,7.857-17.514,17.514-17.514h41.188c9.657,0,17.514,7.857,17.514,17.514v20.896h-13.296
	c-0.599,0-1.193,0.019-1.783,0.051c-0.158,0.009-0.314,0.025-0.471,0.036c-0.44,0.03-0.878,0.065-1.312,0.113
	c-0.16,0.018-0.318,0.041-0.477,0.061c-0.438,0.055-0.875,0.116-1.307,0.187c-0.134,0.022-0.268,0.048-0.402,0.072
	c-0.468,0.084-0.933,0.177-1.395,0.281c-0.091,0.021-0.183,0.042-0.274,0.063c-0.522,0.122-1.038,0.257-1.55,0.404
	c-0.029,0.009-0.059,0.017-0.089,0.025c-6.324,1.837-11.861,5.538-15.966,10.476c-4.105-4.938-9.643-8.64-15.967-10.476
	c-0.028-0.008-0.057-0.016-0.085-0.024c-0.513-0.147-1.03-0.282-1.553-0.405c-0.09-0.021-0.181-0.042-0.272-0.063
	c-0.462-0.104-0.927-0.197-1.396-0.281c-0.133-0.024-0.266-0.049-0.4-0.072c-0.433-0.072-0.87-0.133-1.308-0.188
	c-0.159-0.02-0.317-0.043-0.477-0.061c-0.435-0.048-0.873-0.082-1.312-0.113c-0.157-0.011-0.313-0.027-0.471-0.036
	c-0.591-0.032-1.185-0.051-1.783-0.051h-12.869v-20.895H263.618z M256.107,372.121h20.38c0.586,0,1.165,0.031,1.737,0.088
	c0.273,0.027,0.538,0.078,0.807,0.118c0.291,0.043,0.585,0.076,0.87,0.133c0.343,0.069,0.678,0.161,1.014,0.25
	c0.2,0.052,0.404,0.096,0.602,0.155c0.372,0.112,0.734,0.247,1.095,0.383c0.152,0.057,0.307,0.106,0.457,0.167
	c0.378,0.154,0.746,0.329,1.11,0.509c0.124,0.061,0.251,0.116,0.373,0.18c0.368,0.192,0.724,0.403,1.077,0.62
	c0.111,0.068,0.225,0.132,0.334,0.203c0.346,0.224,0.681,0.465,1.01,0.712c0.107,0.08,0.215,0.157,0.32,0.24
	c0.317,0.249,0.621,0.513,0.92,0.783c0.107,0.097,0.216,0.192,0.321,0.292c0.282,0.268,0.552,0.548,0.816,0.834
	c0.109,0.118,0.219,0.236,0.325,0.358c0.245,0.281,0.479,0.572,0.706,0.868c0.11,0.143,0.219,0.286,0.324,0.433
	c0.208,0.29,0.406,0.587,0.597,0.889c0.106,0.168,0.209,0.337,0.309,0.508c0.173,0.297,0.338,0.599,0.494,0.906
	c0.097,0.19,0.189,0.383,0.279,0.578c0.14,0.304,0.273,0.612,0.397,0.925c0.082,0.208,0.157,0.419,0.231,0.631
	c0.11,0.314,0.214,0.631,0.306,0.953c0.062,0.218,0.116,0.439,0.17,0.66c0.08,0.33,0.156,0.661,0.217,0.998
	c0.04,0.218,0.07,0.44,0.101,0.661c0.05,0.35,0.096,0.702,0.124,1.059c0.038,0.47,0.072,0.941,0.072,1.42v38.69h-76.216v-38.69
	c0-0.508,0.034-1.008,0.076-1.506c0.002-0.017,0.005-0.033,0.007-0.051c0.685-7.818,6.617-14.155,14.1-15.631
	c0.149-0.029,0.302-0.044,0.452-0.069c0.388-0.066,0.776-0.132,1.172-0.171c0.562-0.055,1.13-0.086,1.706-0.086L256.107,372.121
	L256.107,372.121z M172.38,336.203c0-9.657,7.858-17.514,17.515-17.514h41.187c9.657,0,17.514,7.857,17.514,17.514v20.896H235.3
	c-0.587,0-1.169,0.017-1.748,0.048c-0.312,0.016-0.62,0.046-0.93,0.071c-0.248,0.02-0.498,0.036-0.744,0.062
	c-0.445,0.046-0.886,0.106-1.326,0.169c-0.086,0.013-0.173,0.023-0.259,0.036c-7.955,1.208-14.959,5.248-19.908,11.133
	c-5.966-7.094-14.913-11.519-24.921-11.519h-0.214h-12.87V336.203z M164.868,372.121h20.38c9.657,0,17.514,7.857,17.514,17.514
	v38.69h-76.216v-38.69c0-0.508,0.034-1.008,0.076-1.506c0.002-0.017,0.005-0.033,0.007-0.05c0.685-7.818,6.617-14.155,14.101-15.631
	c0.149-0.029,0.303-0.044,0.453-0.069c0.388-0.066,0.776-0.131,1.171-0.171c0.562-0.055,1.13-0.086,1.706-0.086h20.808V372.121z
	 M81.141,336.203c0-9.657,7.857-17.514,17.514-17.514h41.188c9.657,0,17.514,7.857,17.514,17.514v20.896h-13.295
	c-0.587,0-1.169,0.017-1.748,0.048c-0.312,0.016-0.621,0.046-0.931,0.071c-0.248,0.02-0.497,0.036-0.743,0.062
	c-0.445,0.046-0.885,0.106-1.324,0.169c-0.087,0.013-0.175,0.023-0.262,0.036c-7.956,1.208-14.959,5.248-19.908,11.134
	c-5.966-7.095-14.913-11.52-24.921-11.52H94.01H81.141V336.203z M35.308,389.635c0-9.657,7.857-17.514,17.514-17.514H73.63h20.38
	c9.657,0,17.514,7.857,17.514,17.514v38.69H35.308V389.635z M496.977,454.44H15.023v-11.092h12.774h91.238h91.238h91.238h91.238
	h91.238h12.988v11.092H496.977z"/>
<g>
</g>
<g>
</g>
<g>
</g>
<g>
</g>
<g>
</g>
<g>
</g>
<g>
</g>
<g>
</g>
<g>
</g>
<g>
</g>
<g>
</g>
<g>
</g>
<g>
</g>
<g>
</g>
<g>
</g>
</svg>
