<svg id="Capa_1" enable-background="new 0 0 512 512" height="512" viewBox="0 0 512 512" width="512" xmlns="http://www.w3.org/2000/svg"><g><path d="m464.725 512h-55.125l-150.839-49.3-156.361 49.3h-55.125c-26.109 0-47.275-21.166-47.275-47.275v-55.125l64.956-155.439-64.956-151.761v-55.125c0-26.109 21.166-47.275 47.275-47.275h55.125l160.472 46.126 146.728-46.126h55.125c26.109 0 47.275 21.166 47.275 47.275v55.125l-46.323 154.754 46.323 152.446v55.125c0 26.109-21.166 47.275-47.275 47.275z" fill="#f6f9f9"/><path d="m409.6 204.8 56.077-24.384 46.323 24.384v102.4l-49.063 28.061-53.337-28.061-27.511-54.531z" fill="#94afe5"/><path d="m409.6 102.4h102.4v102.4h-102.4l-27.511-54.531z" fill="#adc9fa"/><path d="m409.6 307.2h102.4v102.4h-102.4l-27.511-54.531z" fill="#adc9fa"/><path d="m102.4 307.2-56.077 24.384-46.323-24.384v-102.4l49.063-28.061 53.337 28.061 27.511 54.531z" fill="#baabeb"/><path d="m102.4 409.6h-102.4v-102.4h102.4l27.511 54.531z" fill="#ccbaeb"/><path d="m102.4 204.8h-102.4v-102.4h102.4l27.511 54.531z" fill="#ccbaeb"/><path d="m307.2 409.6 24.384 56.077-24.384 46.323h-102.4l-28.061-49.063 28.061-53.337 54.531-27.511z" fill="#c8646d"/><path d="m409.6 409.6v102.4h-102.4v-102.4l54.531-27.511z" fill="#e27f83"/><path d="m204.8 409.6v102.4h-102.4v-102.4l54.531-27.511z" fill="#e27f83"/><path d="m204.8 102.4-24.384-56.077 24.384-46.323h102.4l28.061 49.063-28.061 53.337-54.531 27.511z" fill="#f1cd6b"/><path d="m102.4 102.4v-102.4h102.4v102.4l-54.531 27.511z" fill="#f5dd81"/><path d="m307.2 102.4v-102.4h102.4v102.4l-54.531 27.511z" fill="#f5dd81"/><path d="m102.4 102.4h307.2v307.2h-307.2z" fill="#bfe19f" transform="matrix(0 1 -1 0 512 0)"/><g><g><path d="m222.261 256.108h-52.425c-13.903 0-25.174-11.271-25.174-25.174v-52.425c0-13.903 11.271-25.174 25.174-25.174h52.425c13.903 0 25.174 11.271 25.174 25.174v52.425c.001 13.903-11.27 25.174-25.174 25.174z" fill="#f6f9f9"/><path d="m185.591 256.112h-15.761c-13.897 0-25.167-11.27-25.167-25.178v-52.426c0-13.897 11.27-25.167 25.167-25.167h15.762c-13.907 0-25.178 11.27-25.178 25.167v52.426c0 13.908 11.27 25.178 25.177 25.178z" fill="#dddaec"/><g fill="#49414f"><path d="m196.049 212.447c-4.267 0-7.726-3.459-7.726-7.726v-.515c0-4.267 3.459-7.726 7.726-7.726s7.726 3.459 7.726 7.726v.515c0 4.267-3.459 7.726-7.726 7.726z"/><g><path d="m219.987 188.51c-4.267 0-7.726-3.459-7.726-7.726v-.515c0-4.267 3.459-7.726 7.726-7.726s7.726 3.459 7.726 7.726v.515c0 4.266-3.459 7.726-7.726 7.726z"/><path d="m172.111 236.385c-4.267 0-7.726-3.459-7.726-7.726v-.515c0-4.267 3.459-7.726 7.726-7.726s7.726 3.459 7.726 7.726v.515c.001 4.267-3.459 7.726-7.726 7.726z"/></g></g></g><g><path d="m342.164 358.661h-52.425c-13.903 0-25.174-11.271-25.174-25.174v-52.425c0-13.903 11.271-25.174 25.174-25.174h52.425c13.903 0 25.174 11.271 25.174 25.174v52.425c0 13.903-11.271 25.174-25.174 25.174z" fill="#f6f9f9"/><path d="m305.493 358.666h-15.762c-13.897 0-25.167-11.27-25.167-25.178v-52.426c0-13.897 11.27-25.168 25.167-25.168h15.762c-13.907 0-25.178 11.27-25.178 25.168v52.426c.001 13.907 11.271 25.178 25.178 25.178z" fill="#dddaec"/><g fill="#49414f"><path d="m315.951 315.001c-4.267 0-7.726-3.459-7.726-7.726v-.515c0-4.267 3.459-7.726 7.726-7.726s7.726 3.459 7.726 7.726v.515c.001 4.267-3.459 7.726-7.726 7.726z"/><g><path d="m339.889 291.063c-4.267 0-7.726-3.459-7.726-7.726v-.515c0-4.267 3.459-7.726 7.726-7.726s7.726 3.459 7.726 7.726v.515c0 4.267-3.459 7.726-7.726 7.726z"/><path d="m292.013 338.939c-4.267 0-7.726-3.459-7.726-7.726v-.516c0-4.267 3.459-7.726 7.726-7.726s7.726 3.459 7.726 7.726v.516c0 4.267-3.459 7.726-7.726 7.726z"/></g><g><path d="m340.146 338.681h-.515c-4.267 0-7.726-3.459-7.726-7.726s3.459-7.726 7.726-7.726h.515c4.267 0 7.726 3.459 7.726 7.726.001 4.267-3.459 7.726-7.726 7.726z"/><path d="m292.271 290.805h-.515c-4.267 0-7.726-3.459-7.726-7.726s3.459-7.726 7.726-7.726h.515c4.267 0 7.726 3.459 7.726 7.726s-3.459 7.726-7.726 7.726z"/></g></g></g></g><path d="m476.64 64.436h-14.234l21.212-21.212c3.018-3.017 3.018-7.909 0-10.927-3.017-3.017-7.909-3.017-10.927 0l-21.212 21.212v-14.235c0-4.267-3.459-7.726-7.726-7.726s-7.726 3.459-7.726 7.726v32.888c0 4.267 3.459 7.726 7.726 7.726h32.887c4.267 0 7.726-3.459 7.726-7.726s-3.459-7.726-7.726-7.726z" fill="#baabeb"/><g fill="#e27f83"><path d="m65.547 48.371h-31.517c-4.267 0-7.726-3.459-7.726-7.726s3.459-7.726 7.726-7.726h31.517c4.267 0 7.726 3.459 7.726 7.726s-3.459 7.726-7.726 7.726z"/><path d="m65.547 70.296h-31.517c-4.267 0-7.726-3.459-7.726-7.726s3.459-7.726 7.726-7.726h31.517c4.267 0 7.726 3.459 7.726 7.726s-3.459 7.726-7.726 7.726z"/></g><path d="m458.146 487.55c-15.594 0-28.281-12.687-28.281-28.281s12.687-28.281 28.281-28.281 28.281 12.687 28.281 28.281-12.687 28.281-28.281 28.281zm0-41.109c-7.073 0-12.828 5.755-12.828 12.828s5.755 12.828 12.828 12.828 12.828-5.755 12.828-12.828-5.755-12.828-12.828-12.828z" fill="#a7d3a3"/><path d="m79.255 462.967h-6.662v-8.086h6.662c4.267 0 7.726-3.459 7.726-7.726s-3.459-7.726-7.726-7.726h-6.662v-6.662c0-4.267-3.459-7.726-7.726-7.726s-7.726 3.459-7.726 7.726v6.662h-8.086v-6.662c0-4.267-3.459-7.726-7.726-7.726s-7.726 3.459-7.726 7.726v6.662h-6.663c-4.267 0-7.726 3.459-7.726 7.726s3.459 7.726 7.726 7.726h6.662v8.086h-6.662c-4.267 0-7.726 3.459-7.726 7.726s3.459 7.726 7.726 7.726h6.662v6.662c0 4.267 3.459 7.726 7.726 7.726s7.726-3.459 7.726-7.726v-6.662h8.086v6.662c0 4.267 3.459 7.726 7.726 7.726s7.726-3.459 7.726-7.726v-6.662h6.662c4.267 0 7.726-3.459 7.726-7.726.001-4.266-3.458-7.726-7.725-7.726zm-30.201 0v-8.086h8.086v8.086z" fill="#49414f"/></g></svg>