<svg id="Layer_1" enable-background="new 0 0 512 512" height="512" viewBox="0 0 512 512" width="512" xmlns="http://www.w3.org/2000/svg"><g><circle cx="479.028" cy="47.304" fill="#fed73a" r="11.028"/><circle cx="434.917" cy="63.058" fill="#fed73a" r="11.028"/><circle cx="441" cy="260.317" fill="#ff73a6" r="11.028"/><circle cx="493.472" cy="162.65" fill="#3aeee6" r="11.028"/><circle cx="62.638" cy="133.001" fill="#fed73a" r="11.028"/><circle cx="73.482" cy="260.317" fill="#3aeee6" r="11.028"/><circle cx="18.528" cy="148.755" fill="#fed73a" r="11.028"/><circle cx="73" cy="79.776" fill="#ff73a6" r="11.028"/><g><path d="m146.424 296.273h-87.514c-8.412 0-15.639 5.979-17.223 14.25l-16.024 83.667h107.864z" fill="#fed73a"/><path d="m25.663 394.19-17.844 93.173c-2.073 10.824 6.214 20.861 17.223 20.861h93.465l15.02-114.034z" fill="#ff73a6"/><path d="m486.337 394.19h-107.864l15.02 114.034h93.465c11.01 0 19.296-10.037 17.223-20.861z" fill="#fed73a"/><path d="m504.181 487.363-17.844-93.173h-40l17.844 93.173c2.073 10.824-6.214 20.861-17.223 20.861h40c11.009 0 19.296-10.037 17.223-20.861z" fill="#fc0"/><path d="m486.337 394.19-16.023-83.667c-1.584-8.27-8.811-14.25-17.223-14.25h-87.514l12.897 97.917z" fill="#3aeee6"/><path d="m470.313 310.523c-1.584-8.27-8.811-14.25-17.223-14.25h-40c8.412 0 15.639 5.979 17.223 14.25l16.023 83.667h40z" fill="#0dded5"/><path d="m378.473 394.19-12.897-97.917h-109.576v97.917z" fill="#ff73a6"/><path d="m256 394.19v-97.917h-109.576l-12.897 97.917z" fill="#2f4ca3"/><path d="m256 394.19v114.034h137.493l-15.02-114.034z" fill="#2f4ca3"/><path d="m133.527 394.19-15.02 114.034h137.493v-114.034z" fill="#3aeee6"/></g><g><g><g><g><g><g><path d="m256 60.154c-4.143 0-7.5-3.358-7.5-7.5v-41.378c0-4.142 3.357-7.5 7.5-7.5s7.5 3.358 7.5 7.5v41.377c0 4.143-3.357 7.501-7.5 7.501z" fill="#cedbe0"/></g></g></g></g><g><path d="m412.997 170.392h-30.763c-4.143 0-7.5-3.358-7.5-7.5s3.357-7.5 7.5-7.5h30.763c4.143 0 7.5 3.358 7.5 7.5s-3.357 7.5-7.5 7.5z" fill="#fff1b5"/></g><g><path d="m365.13 107.33c-2.592 0-5.112-1.345-6.502-3.751-2.071-3.587-.842-8.174 2.745-10.245l26.641-15.381c3.585-2.071 8.173-.843 10.245 2.745 2.071 3.587.842 8.174-2.745 10.245l-26.641 15.381c-1.181.682-2.471 1.006-3.743 1.006z" fill="#fff1b5"/></g><g><path d="m146.472 108.021c-1.272 0-2.562-.324-3.743-1.006l-26.642-15.381c-3.587-2.071-4.816-6.658-2.745-10.245 2.07-3.587 6.656-4.817 10.245-2.745l26.642 15.381c3.587 2.071 4.816 6.658 2.745 10.245-1.389 2.406-3.911 3.751-6.502 3.751z" fill="#fff1b5"/></g><g><path d="m129.766 171.191h-30.763c-4.143 0-7.5-3.358-7.5-7.5s3.357-7.5 7.5-7.5h30.763c4.143 0 7.5 3.358 7.5 7.5s-3.358 7.5-7.5 7.5z" fill="#fff1b5"/></g><g><path d="m120.243 249.638c-2.592 0-5.112-1.345-6.502-3.751-2.071-3.587-.842-8.174 2.745-10.245l26.641-15.382c3.585-2.069 8.173-.843 10.245 2.745 2.071 3.587.842 8.174-2.745 10.245l-26.641 15.382c-1.18.681-2.47 1.006-3.743 1.006z" fill="#fff1b5"/></g><g><path d="m392.156 248.946c-1.272 0-2.562-.324-3.743-1.006l-26.642-15.381c-3.587-2.071-4.816-6.658-2.745-10.245 2.07-3.587 6.656-4.818 10.245-2.745l26.642 15.381c3.587 2.071 4.816 6.658 2.745 10.245-1.388 2.405-3.91 3.751-6.502 3.751z" fill="#fff1b5"/></g></g><path d="m239 69.654v-21.446c0-6.934 5.621-12.555 12.555-12.555h8.891c6.934 0 12.555 5.621 12.555 12.555v21.445" fill="#2f4ca3"/><g><g fill="#a5fffa"><path d="m293.626 125.095c22.18 3.542 41.06 10.147 54.041 18.665l2.381 1.551c-7.205-38.901-37.945-69.541-76.9-76.592l1.106 1.455c8.821 12.954 15.686 32.19 19.372 54.921z"/><path d="m350.368 178.529-2.352 2.565c-12.793 8.773-31.758 15.609-54.168 19.309-3.515 22.63-10.165 41.899-18.769 55.104l-.875 1.252c39.063-7.528 69.66-38.814 76.164-78.23z"/><path d="m218.214 125.209c3.532-22.449 10.155-41.56 18.705-54.683l1.393-1.704c-38.932 7.279-69.56 38.136-76.492 77.189l2.513-1.899c12.861-8.598 31.698-15.285 53.881-18.903z"/><path d="m218.325 200.632c-22.31-3.53-41.303-10.156-54.342-18.712l-2.039-1.593c7.169 38.803 37.755 69.392 76.557 76.566l-1.229-1.74c-8.632-13.001-15.339-32.067-18.947-54.521z"/></g><path d="m218.214 125.209c11.861-1.934 24.677-2.993 38.052-2.993 13.115 0 25.693 1.016 37.36 2.879-3.686-22.731-10.551-41.967-19.372-54.922l-1.106-1.455c-5.564-1.007-11.294-1.535-17.148-1.535-6.044 0-11.955.567-17.688 1.639l-1.393 1.704c-8.55 13.123-15.173 32.234-18.705 54.683z" fill="#3aeee6"/><path d="m293.849 200.403c-11.976 1.977-24.935 3.061-38.465 3.061-13.002 0-25.477-.999-37.058-2.832 3.608 22.454 10.315 41.52 18.947 54.522l1.229 1.74c5.674 1.049 11.522 1.603 17.499 1.603 6.226 0 12.311-.602 18.206-1.738l.875-1.252c8.602-13.205 15.252-32.474 18.767-55.104z" fill="#3aeee6"/><path d="m218.325 200.632c-1.907-11.872-2.949-24.689-2.949-38.06 0-13.11 1.001-25.687 2.838-37.363-22.184 3.618-41.021 10.305-53.881 18.903l-2.513 1.899c-.97 5.463-1.477 11.087-1.477 16.829 0 5.973.553 11.817 1.6 17.487l2.039 1.593c13.041 8.557 32.033 15.182 54.343 18.712z" fill="#3aeee6"/><path d="m293.626 125.095c1.939 11.957 2.998 24.88 2.998 38.365 0 12.953-.98 25.385-2.775 36.943 22.41-3.7 41.374-10.537 54.168-19.309l2.352-2.565c.842-5.105 1.288-10.345 1.288-15.689 0-5.988-.556-11.846-1.608-17.53l-2.381-1.551c-12.982-8.517-31.862-15.122-54.042-18.664z" fill="#3aeee6"/><path d="m293.626 125.095c-11.667-1.863-24.245-2.879-37.36-2.879-13.375 0-26.191 1.059-38.052 2.993-1.837 11.676-2.838 24.253-2.838 37.363 0 13.371 1.042 26.189 2.949 38.06 11.582 1.833 24.057 2.832 37.058 2.832 13.531 0 26.489-1.083 38.465-3.061 1.795-11.558 2.775-23.989 2.775-36.943.001-13.485-1.058-26.408-2.997-38.365z" fill="#a5fffa"/></g></g><path d="m479.027 28.776c-9.957 0-18.081 7.901-18.488 17.76-.026.253-.039.509-.039.768v47.49l-29.11 10.396v-23.951c1.143.221 2.321.346 3.527.346 10.216 0 18.527-8.312 18.527-18.527 0-10.216-8.312-18.528-18.527-18.528-9.957 0-18.081 7.901-18.488 17.76-.026.253-.039.509-.039.768v52.775c0 2.439 1.186 4.726 3.18 6.131 1.281.903 2.794 1.369 4.321 1.369.848 0 1.701-.144 2.521-.437l44.11-15.754c2.985-1.066 4.978-3.894 4.978-7.063v-34.594c1.143.221 2.321.346 3.527.346 10.217 0 18.528-8.312 18.528-18.527.001-10.216-8.311-18.528-18.528-18.528zm-44.11 30.754c1.945 0 3.527 1.583 3.527 3.528s-1.582 3.527-3.527 3.527-3.527-1.583-3.527-3.527c0-1.945 1.582-3.528 3.527-3.528zm44.11-8.699c-1.945 0-3.527-1.583-3.527-3.527 0-1.945 1.582-3.528 3.527-3.528s3.528 1.583 3.528 3.528c.001 1.945-1.582 3.527-3.528 3.527z" fill="#fed73a"/><path d="m481.804 226.71-24.473-24.472c-2.146-2.146-5.371-2.788-8.174-1.626-2.803 1.161-4.63 3.896-4.63 6.929v34.594c-1.143-.221-2.321-.346-3.527-.346-10.216 0-18.527 8.312-18.527 18.528s8.312 18.528 18.527 18.528c9.957 0 18.081-7.901 18.488-17.76.026-.253.039-.509.039-.768v-34.669l11.669 11.669c2.93 2.929 7.678 2.929 10.607 0s2.929-7.678.001-10.607zm-40.804 37.135c-1.945 0-3.527-1.583-3.527-3.528s1.582-3.528 3.527-3.528 3.527 1.583 3.527 3.528-1.582 3.528-3.527 3.528z" fill="#ff73a6"/><path d="m512 109.875c0-4.142-3.357-7.5-7.5-7.5s-7.5 3.358-7.5 7.5v34.594c-1.143-.221-2.321-.346-3.527-.346-10.217 0-18.528 8.312-18.528 18.528s8.312 18.527 18.528 18.527c9.957 0 18.081-7.901 18.488-17.759.026-.253.039-.509.039-.768zm-18.527 56.303c-1.945 0-3.528-1.583-3.528-3.527 0-1.945 1.583-3.528 3.528-3.528s3.527 1.582 3.527 3.527-1.582 3.528-3.527 3.528z" fill="#3aeee6"/><path d="m92.01 207.541c0-4.142-3.357-7.5-7.5-7.5s-7.5 3.358-7.5 7.5v34.594c-1.143-.221-2.321-.346-3.527-.346-10.217 0-18.528 8.312-18.528 18.528s8.312 18.528 18.528 18.528c9.957 0 18.081-7.901 18.488-17.76.026-.253.039-.509.039-.768zm-18.528 56.304c-1.945 0-3.528-1.583-3.528-3.528s1.583-3.528 3.528-3.528 3.527 1.583 3.527 3.528-1.581 3.528-3.527 3.528z" fill="#3aeee6"/><path d="m62.639 114.473c-9.958 0-18.082 7.901-18.489 17.76-.026.253-.039.509-.039.768v47.49l-29.111 10.397v-23.951c1.143.221 2.321.346 3.527.346 10.217 0 18.528-8.312 18.528-18.528s-8.312-18.528-18.528-18.528c-9.957 0-18.081 7.901-18.488 17.76-.026.252-.039.508-.039.768v52.775c0 5.153 5.566 8.655 10.022 7.063l44.11-15.754c2.985-1.066 4.978-3.894 4.978-7.063v-34.594c1.143.221 2.321.346 3.528.346 10.216 0 18.527-8.312 18.527-18.528s-8.311-18.527-18.526-18.527zm-44.112 30.754c1.945 0 3.528 1.583 3.528 3.528s-1.583 3.528-3.528 3.528-3.527-1.583-3.527-3.528 1.582-3.528 3.527-3.528zm44.112-8.698c-1.945 0-3.528-1.583-3.528-3.528s1.583-3.528 3.528-3.528 3.527 1.583 3.527 3.528-1.582 3.528-3.527 3.528z" fill="#fed73a"/><path d="m113.804 46.17-24.473-24.472c-2.146-2.145-5.371-2.787-8.174-1.626s-4.63 3.896-4.63 6.929v34.594c-1.143-.221-2.321-.346-3.527-.346-10.216 0-18.527 8.312-18.527 18.528s8.311 18.527 18.527 18.527c9.957 0 18.081-7.901 18.488-17.76.026-.253.039-.509.039-.768v-34.669l11.669 11.669c2.93 2.929 7.678 2.929 10.607 0 2.929-2.928 2.929-7.677.001-10.606zm-40.804 37.134c-1.945 0-3.527-1.583-3.527-3.528s1.582-3.528 3.527-3.528 3.527 1.583 3.527 3.528-1.582 3.528-3.527 3.528z" fill="#ff73a6"/></g></svg>