<svg id="Layer_1" enable-background="new 0 0 511.773 511.773" height="512" viewBox="0 0 511.773 511.773" width="512" xmlns="http://www.w3.org/2000/svg"><g><g><g><circle cx="450.777" cy="61.11" fill="#fff1b5" r="53.723"/><circle cx="49.523" cy="462.364" fill="#fff1b5" r="42.023"/><g><path d="m209.058 102.668v-21.645c0-25.926 21.017-46.942 46.942-46.942 25.926 0 46.942 21.017 46.942 46.942v21.645z" fill="#2f4ca3"/></g></g><g><g><circle cx="256" cy="281.401" fill="#a5fffa" r="202.986"/></g><path d="m256 78.415c-6.749 0-13.42.337-20 .981 102.717 10.047 182.986 96.648 182.986 202.005s-80.269 191.957-182.986 202.004c6.58.644 13.251.981 20 .981 112.106 0 202.986-90.88 202.986-202.986s-90.88-202.985-202.986-202.985z" fill="#6efff7"/><g><path d="m256 171.508v109.893h110.502c-.11-35.616-4.676-69.36-12.768-99.568-29.676-6.623-62.797-10.325-97.734-10.325z" fill="#3aeee6"/><path d="m145.492 281.401c.048 35.574 4.543 69.296 12.557 99.509 29.734 6.655 62.926 10.384 97.952 10.384v-109.893z" fill="#3aeee6"/><g><g><path d="m307.61 85.045c19.795 23.68 35.815 58.303 46.124 96.787 37.576 8.386 73.051 23.671 96.33 39.894-20.51-66.778-74.538-118.876-142.454-136.681z" fill="#3aeee6"/></g></g><path d="m400.159 195.976c19.355 7.54 36.618 16.491 49.905 25.75-20.51-66.778-74.539-118.876-142.454-136.681 6.164 7.374 11.961 15.809 17.334 25.091 32.568 20.759 58.814 50.543 75.215 85.84z" fill="#0dded5"/><g><path d="m366.502 281.401c.001.44.012.876.012 1.317 0 35.006-4.319 68.22-12.049 98.084 37.807-8.515 71.867-21.778 95.112-38.178 6.106-19.319 9.409-39.884 9.409-61.223z" fill="#3aeee6"/></g><g><path d="m418.986 281.401c0 21.339-3.986 59.348-18.386 84.524-1.801 1.271-3.616 2.366-5.444 3.341 21.206-7.399 39.919-16.409 54.422-26.641 6.106-19.319 9.409-39.884 9.409-61.223h-40.001z" fill="#0dded5"/></g><path d="m256 391.294v93.093c18.079 0 35.601-2.376 52.284-6.811 19.959-24.073 36.021-57.523 46.181-96.773-29.864 6.725-63.24 10.491-98.465 10.491z" fill="#3aeee6"/><g><path d="m202.395 85.584c-19.215 23.887-34.715 58.324-44.658 96.367 29.811-6.697 63.119-10.443 98.263-10.443v-93.093c-18.557 0-36.527 2.504-53.605 7.169z" fill="#3aeee6"/><g><path d="m62.692 219.32c-6.28 19.567-9.677 40.426-9.677 62.081h92.477c0-.19-.005-.378-.005-.569 0-35.316 4.391-68.813 12.25-98.882-36.5 8.2-71.679 21.684-95.045 37.37z" fill="#3aeee6"/></g></g><g><path d="m61.839 340.749c20.355 66.674 74.106 118.768 141.758 136.799-19.567-23.746-35.385-58.321-45.548-96.637-39.459-8.831-72.812-22.824-96.21-40.162z" fill="#3aeee6"/></g></g></g><g><path d="m256 484.386c18.079 0 35.601-2.376 52.284-6.811 6.315-7.616 12.236-16.176 17.707-25.556-.193.152-27.146 21.324-69.991 28.417z" fill="#0dded5"/></g></g><g><path d="m504.5 53.61c-24.191 0-46.223-22.032-46.223-46.223 0-9.697-15-9.697-15 0 0 24.191-22.032 46.223-46.223 46.223-9.697 0-9.697 15 0 15 24.191 0 46.223 22.032 46.223 46.223 0 9.697 15 9.697 15 0 0-24.191 22.032-46.223 46.223-46.223 9.697 0 9.697-15 0-15zm-53.723 32.806c-5.846-10.571-14.736-19.46-25.307-25.307 10.571-5.846 19.46-14.736 25.307-25.307 5.846 10.571 14.736 19.46 25.307 25.307-10.571 5.847-19.461 14.736-25.307 25.307z"/><path d="m91.546 454.863c-18.068 0-34.523-16.455-34.523-34.523 0-9.697-15-9.697-15 0 0 18.068-16.455 34.523-34.523 34.523-9.697 0-9.697 15 0 15 18.068 0 34.523 16.455 34.523 34.523 0 9.697 15 9.697 15 0 0-18.068 16.455-34.523 34.523-34.523 9.697 0 9.697-15 0-15zm-42.023 24.106c-4.193-6.686-9.92-12.413-16.606-16.606 6.686-4.193 12.413-9.92 16.606-16.606 4.193 6.686 9.92 12.413 16.606 16.606-6.686 4.193-12.413 9.921-16.606 16.606z"/><path d="m466.486 281.401c0-97.271-66.329-179.329-156.128-203.355-1.416-26.128-21.339-47.403-46.858-50.936v-19.724c0-9.697-15-9.697-15 0v19.724c-25.496 3.53-45.405 24.771-46.852 50.866-13.293 3.548-26.244 8.418-38.779 14.613-8.694 4.296-2.05 17.739 6.646 13.448 4.992-2.467 10.056-4.706 15.184-6.722-13.903 21.534-25.066 47.552-32.993 76.355-28.46 6.734-54.071 16.218-75.146 28.024 13.308-30.597 34.597-57.729 61.148-77.94 7.716-5.873-1.37-17.811-9.085-11.936-51.946 39.543-83.109 102.305-83.109 167.583 0 114.559 95.946 210.486 210.486 210.486 114.452-.001 210.486-95.919 210.486-210.486zm-105.151 67.105c-4.073-.749-7.984 1.943-8.735 6.017-1.251 6.791-2.687 13.456-4.287 19.984-26.318 5.569-55.034 8.767-84.814 9.227v-94.833h95.444c-.154 10.297-.667 20.585-1.578 30.666-.848 9.386 14.051 11.184 14.939 1.35.951-10.526 1.484-21.269 1.639-32.016h77.384c-.62 16.352-3.254 32.196-7.669 47.29-20.446 14.615-47.655 26.338-79.045 34.491.987-4.428 1.903-8.909 2.738-13.441.752-4.074-1.942-7.984-6.016-8.735zm-97.835 128.223v-77.992c27.99-.423 55.143-3.215 80.428-8.087-9.527 31.82-23.217 59.513-39.875 80.253-13.048 3.311-26.617 5.297-40.553 5.826zm-53.603-5.348c-17.49-20.913-31.515-48.668-41.265-80.601 25.107 4.796 52.062 7.539 79.868 7.957v77.992c-13.244-.503-26.154-2.327-38.603-5.348zm-149.225-182.48h77.395c.538 28.485 3.925 56.15 9.811 81.93-31.605-8.156-58.976-19.932-79.537-34.64-4.415-15.094-7.049-30.938-7.669-47.29zm240.629-197.676c17.757 20.879 31.994 48.701 41.881 80.818-25.113-4.8-52.022-7.556-79.682-7.977v-77.993c12.96.492 25.6 2.246 37.801 5.152zm142.329 135.287c4.432 15.124 7.076 31 7.698 47.389h-77.413c-.585-28.52-4.007-56.164-9.929-81.895 31.276 8.067 58.495 19.645 78.968 34.082.22.155.446.296.676.424zm-84.72 47.389h-95.41v-94.831c29.476.459 57.994 3.623 84.186 9.129 6.708 26.592 10.589 55.602 11.224 85.702zm-110.41 0h-95.454c.502-29.961 4.259-58.965 10.83-85.631 26.285-5.552 54.944-8.742 84.623-9.201v94.832zm-95.429 15h95.429v94.834c-29.628-.455-58.171-3.61-84.339-9.108-6.666-26.645-10.507-55.675-11.09-85.726zm282.274-85.242c-21.175-11.84-46.933-21.356-75.553-28.091-8.191-29.11-19.719-55.271-34.07-76.791 49.092 18.806 88.725 56.859 109.623 104.882zm-179.345-162.078c19.537 0 35.794 14.282 38.899 32.952-12.612-2.366-25.611-3.618-38.899-3.618-13.207 0-26.186 1.211-38.892 3.577 3.122-18.65 19.369-32.911 38.892-32.911zm-47.224 50.064c12.924-3.207 26.189-5.072 39.724-5.574v77.994c-27.892.423-54.98 3.208-80.224 8.062 9.559-31.764 23.326-59.47 40.5-80.482zm-61.164 100.438c-5.799 25.787-9.103 53.421-9.565 81.818h-77.377c.599-16.185 3.141-31.974 7.598-47.25 20.491-14.656 47.832-26.404 79.344-34.568zm-70.948 167.078c21.143 11.846 46.807 21.346 75.362 28.072 8.079 28.949 19.443 55.032 33.589 76.538-48.78-18.89-88.146-56.812-108.951-104.61zm251.305 103.997c13.595-21.374 24.704-47.321 32.574-76.072 28.319-6.719 53.795-16.166 74.793-27.922-20.582 47.28-59.319 84.902-107.367 103.994z"/><g><path d="m132.205 52.971c-7.71 0-15-7.29-15-15 0-4.142-3.358-7.5-7.5-7.5s-7.5 3.358-7.5 7.5c0 7.71-7.29 15-15 15-4.142 0-7.5 3.358-7.5 7.5s3.358 7.5 7.5 7.5c7.71 0 15 7.29 15 15 0 4.142 3.358 7.5 7.5 7.5s7.5-3.358 7.5-7.5c0-7.71 7.29-15 15-15 4.142 0 7.5-3.358 7.5-7.5s-3.358-7.5-7.5-7.5z"/><path d="m489.046 438.116c-10.395 0-19.861-9.467-19.861-19.862 0-4.142-3.358-7.5-7.5-7.5s-7.5 3.358-7.5 7.5c0 10.395-9.467 19.862-19.861 19.862-4.142 0-7.5 3.358-7.5 7.5s3.358 7.5 7.5 7.5c10.395 0 19.861 9.467 19.861 19.861 0 4.142 3.358 7.5 7.5 7.5s7.5-3.358 7.5-7.5c0-10.395 9.467-19.861 19.861-19.861 4.142 0 7.5-3.358 7.5-7.5s-3.358-7.5-7.5-7.5z"/><path d="m62.223 127.971c-10.395 0-19.862-9.467-19.862-19.861 0-4.142-3.358-7.5-7.5-7.5s-7.5 3.358-7.5 7.5c0 10.395-9.467 19.861-19.861 19.861-4.142 0-7.5 3.358-7.5 7.5s3.358 7.5 7.5 7.5c10.395 0 19.861 9.467 19.861 19.862 0 4.142 3.358 7.5 7.5 7.5s7.5-3.358 7.5-7.5c0-10.395 9.467-19.862 19.862-19.862 4.142 0 7.5-3.358 7.5-7.5s-3.358-7.5-7.5-7.5z"/></g></g></g></svg>