<svg id="Capa_1" enable-background="new 0 0 512 512" height="512" viewBox="0 0 512 512" width="512" xmlns="http://www.w3.org/2000/svg"><g><path d="m358.678 151.748-104.044 20.026c-2.579.496-4.443 2.753-4.443 5.379v35.25l100-19.248v61.346c-4.513-2.656-9.768-4.185-15.384-4.185-16.781 0-30.384 13.603-30.384 30.384 0 16.78 13.603 30.384 30.384 30.384 16.78 0 30.384-13.603 30.384-30.384v-90.431-12.244-20.897c.001-3.441-3.134-6.03-6.513-5.38z" fill="#af66da"/><g><g><g><g><path d="m330.019 280.7c0-12.207 7.202-22.726 17.586-27.557-3.89-1.81-8.224-2.827-12.797-2.827-16.781 0-30.384 13.603-30.384 30.384s13.603 30.384 30.384 30.384c4.573 0 8.907-1.017 12.797-2.827-10.383-4.83-17.586-15.35-17.586-27.557z" fill="#9857bd"/></g></g><g fill="#9857bd"><path d=""/><path d="m358.678 151.748-104.044 20.026c-2.579.496-4.443 2.753-4.443 5.379v98.728c8.214 5.069 13.75 14.065 13.983 24.35l1.017.672v-91.386l13.256-2.551v-20.501c0-2.626 1.864-4.883 4.443-5.379l82.301-15.841v-8.116c0-3.442-3.134-6.031-6.513-5.381z"/></g></g><g><path d="m213.595 119.679-1 1.211v64.952c-4.513-2.656-9.768-4.185-15.384-4.185-16.78 0-30.384 13.603-30.384 30.384 0 16.78 13.603 30.384 30.384 30.384s30.384-13.603 30.384-30.384v-95.057z" fill="#a2e62e"/><g><g><path d="m192 212.041c0-12.289 7.301-22.867 17.797-27.653-3.836-1.749-8.095-2.731-12.586-2.731-16.78 0-30.384 13.603-30.384 30.384 0 16.78 13.603 30.384 30.384 30.384 4.491 0 8.75-.982 12.586-2.731-10.496-4.786-17.797-15.364-17.797-27.653z" fill="#97d729"/></g></g><g><path d="m261.528 75.169-44.878 8.638c-2.354.453-4.055 2.513-4.055 4.91v32.173l50.823-9.783c2.354-.453 4.055-2.513 4.055-4.91v-26.118c0-3.141-2.861-5.504-5.945-4.91z" fill="#a2e62e"/></g><g><path d="m229.122 100.077c0-2.397 1.701-4.457 4.055-4.91l34.297-6.602v-8.487c0-3.14-2.861-5.503-5.945-4.91l-44.878 8.638c-2.354.453-4.055 2.513-4.055 4.91v32.173l16.527-3.181v-17.631z" fill="#97d729"/></g></g></g><g><path d="m20.5 441.5h78v29.078h-78z" fill="#678d98"/><path d="m20.5 441.5h32.5v29.078h-32.5z" fill="#537983"/><g><path d="m101.5 442.5h-84c-5.523 0-10-4.477-10-10v-237.69c0-5.523 4.477-10 10-10h84c5.523 0 10 4.477 10 10v237.69c0 5.522-4.477 10-10 10z" fill="#a8d3d8"/></g><g><path d="m40 432.5v-237.69c0-5.523 4.477-10 10-10h-32.5c-5.523 0-10 4.477-10 10v237.69c0 5.523 4.477 10 10 10h32.5c-5.523 0-10-4.478-10-10z" fill="#8ebac5"/></g><g><circle cx="59.5" cy="383.077" fill="#678d98" r="26"/></g><g><g><circle cx="59.5" cy="240.077" fill="#678d98" r="26"/></g><g><path d="m55 383.077c0-10.524 6.257-19.581 15.25-23.672-3.277-1.491-6.915-2.328-10.75-2.328-14.359 0-26 11.641-26 26s11.641 26 26 26c3.835 0 7.473-.837 10.75-2.328-8.993-4.091-15.25-13.148-15.25-23.672z" fill="#537983"/></g><g><path d="m55 240.077c0-10.524 6.257-19.581 15.25-23.672-3.277-1.491-6.915-2.328-10.75-2.328-14.359 0-26 11.641-26 26s11.641 26 26 26c3.835 0 7.473-.837 10.75-2.328-8.993-4.091-15.25-13.148-15.25-23.672z" fill="#537983"/></g></g><g><circle cx="59.5" cy="311.81" fill="#678d98" r="15"/></g><g><path d="m59 311.81c0-5.654 3.131-10.572 7.75-13.129-2.149-1.19-4.619-1.871-7.25-1.871-8.284 0-15 6.716-15 15s6.716 15 15 15c2.631 0 5.101-.682 7.25-1.871-4.619-2.557-7.75-7.475-7.75-13.129z" fill="#537983"/></g><g><g><path d="m59.5 273.577c-18.472 0-33.5-15.028-33.5-33.5s15.028-33.5 33.5-33.5 33.5 15.028 33.5 33.5-15.028 33.5-33.5 33.5zm0-52c-10.201 0-18.5 8.299-18.5 18.5s8.299 18.5 18.5 18.5 18.5-8.299 18.5-18.5-8.299-18.5-18.5-18.5z" fill="#3e5959"/></g><g><path d="m59.5 416.577c-18.472 0-33.5-15.028-33.5-33.5s15.028-33.5 33.5-33.5 33.5 15.028 33.5 33.5-15.028 33.5-33.5 33.5zm0-52c-10.201 0-18.5 8.299-18.5 18.5s8.299 18.5 18.5 18.5 18.5-8.299 18.5-18.5-8.299-18.5-18.5-18.5z" fill="#3e5959"/></g></g><g><path d="m59.5 334.31c-12.406 0-22.5-10.093-22.5-22.5s10.094-22.5 22.5-22.5 22.5 10.093 22.5 22.5-10.094 22.5-22.5 22.5zm0-30c-4.136 0-7.5 3.364-7.5 7.5s3.364 7.5 7.5 7.5 7.5-3.364 7.5-7.5-3.364-7.5-7.5-7.5z" fill="#3e5959"/></g></g><path d="m413.5 441.5h78v29.078h-78z" fill="#678d98"/><path d="m413.5 441.5h28.5v29.078h-28.5z" fill="#537983"/><path d="m148 441.5h216v29.078h-216z" fill="#678d98"/><path d="m148 441.5h32v29.078h-32z" fill="#537983"/><g><path d="m494.5 442.5h-84c-5.523 0-10-4.477-10-10v-237.69c0-5.523 4.477-10 10-10h84c5.523 0 10 4.477 10 10v237.69c0 5.522-4.477 10-10 10z" fill="#a8d3d8"/></g><g><path d="m433 432.5v-237.69c0-5.523 4.477-10 10-10h-32.5c-5.523 0-10 4.477-10 10v237.69c0 5.523 4.477 10 10 10h32.5c-5.523 0-10-4.478-10-10z" fill="#8ebac5"/></g><g><g><circle cx="452.5" cy="240.077" fill="#678d98" r="26"/></g><g><circle cx="452.5" cy="383.077" fill="#678d98" r="26"/></g><g><path d="m448 383.077c0-10.524 6.257-19.581 15.25-23.672-3.277-1.491-6.915-2.328-10.75-2.328-14.359 0-26 11.641-26 26s11.641 26 26 26c3.835 0 7.473-.837 10.75-2.328-8.993-4.091-15.25-13.148-15.25-23.672z" fill="#537983"/></g><g><path d="m448 240.077c0-10.524 6.257-19.581 15.25-23.672-3.277-1.491-6.915-2.328-10.75-2.328-14.359 0-26 11.641-26 26s11.641 26 26 26c3.835 0 7.473-.837 10.75-2.328-8.993-4.091-15.25-13.148-15.25-23.672z" fill="#537983"/></g></g><g><circle cx="452.5" cy="311.81" fill="#678d98" r="15"/></g><g><path d="m452 311.81c0-5.654 3.131-10.572 7.75-13.129-2.149-1.19-4.619-1.871-7.25-1.871-8.284 0-15 6.716-15 15s6.716 15 15 15c2.631 0 5.101-.682 7.25-1.871-4.619-2.557-7.75-7.475-7.75-13.129z" fill="#537983"/></g><g><g><path d="m452.5 273.577c-18.472 0-33.5-15.028-33.5-33.5s15.028-33.5 33.5-33.5 33.5 15.028 33.5 33.5-15.028 33.5-33.5 33.5zm0-52c-10.201 0-18.5 8.299-18.5 18.5s8.299 18.5 18.5 18.5 18.5-8.299 18.5-18.5-8.299-18.5-18.5-18.5z" fill="#3e5959"/></g><g><path d="m452.5 416.577c-18.472 0-33.5-15.028-33.5-33.5s15.028-33.5 33.5-33.5 33.5 15.028 33.5 33.5-15.028 33.5-33.5 33.5zm0-52c-10.201 0-18.5 8.299-18.5 18.5s8.299 18.5 18.5 18.5 18.5-8.299 18.5-18.5-8.299-18.5-18.5-18.5z" fill="#3e5959"/></g></g><g><path d="m452.5 334.31c-12.406 0-22.5-10.093-22.5-22.5s10.094-22.5 22.5-22.5 22.5 10.093 22.5 22.5-10.094 22.5-22.5 22.5zm0-30c-4.136 0-7.5 3.364-7.5 7.5s3.364 7.5 7.5 7.5 7.5-3.364 7.5-7.5-3.364-7.5-7.5-7.5z" fill="#3e5959"/></g><g><g><path d="m365.5 442.5h-219c-5.523 0-10-4.477-10-10v-59c0-5.523 4.477-10 10-10h219c5.523 0 10 4.477 10 10v59c0 5.522-4.477 10-10 10z" fill="#a8d3d8"/></g><g><path d="m169 432.5v-59c0-5.523 4.477-10 10-10h-32.5c-5.523 0-10 4.477-10 10v59c0 5.523 4.477 10 10 10h32.5c-5.523 0-10-4.478-10-10z" fill="#8ebac5"/></g><g><g><circle cx="180.5" cy="403" fill="#fe646f" r="20"/></g><path d="m177 403c0-8.101 4.825-15.06 11.75-18.204-2.518-1.143-5.305-1.796-8.25-1.796-11.046 0-20 8.954-20 20s8.954 20 20 20c2.945 0 5.732-.653 8.25-1.796-6.925-3.144-11.75-10.104-11.75-18.204z" fill="#fb2b3a"/><g><g><path d="m346 423.5c-4.143 0-7.5-3.358-7.5-7.5v-26c0-4.142 3.357-7.5 7.5-7.5s7.5 3.358 7.5 7.5v26c0 4.142-3.357 7.5-7.5 7.5z" fill="#678d98"/></g><g><path d="m321 397.5h-75c-4.143 0-7.5-3.358-7.5-7.5s3.357-7.5 7.5-7.5h75c4.143 0 7.5 3.358 7.5 7.5s-3.357 7.5-7.5 7.5z" fill="#678d98"/></g></g></g></g><g><path d="m504.5 484.577h-497c-4.143 0-7.5-3.358-7.5-7.5s3.357-7.5 7.5-7.5h497c4.143 0 7.5 3.358 7.5 7.5s-3.357 7.5-7.5 7.5z" fill="#3e5959"/></g><path d="m334 98.152h-7.075v-7.075c0-4.142-3.357-7.5-7.5-7.5s-7.5 3.358-7.5 7.5v7.075h-7.075c-4.143 0-7.5 3.358-7.5 7.5s3.357 7.5 7.5 7.5h7.075v7.075c0 4.142 3.357 7.5 7.5 7.5s7.5-3.358 7.5-7.5v-7.075h7.075c4.143 0 7.5-3.358 7.5-7.5s-3.357-7.5-7.5-7.5z" fill="#ffd15b"/><path d="m166 276.152h-7.075v-7.075c0-4.142-3.357-7.5-7.5-7.5s-7.5 3.358-7.5 7.5v7.075h-7.075c-4.143 0-7.5 3.358-7.5 7.5s3.357 7.5 7.5 7.5h7.075v7.075c0 4.142 3.357 7.5 7.5 7.5s7.5-3.358 7.5-7.5v-7.075h7.075c4.143 0 7.5-3.358 7.5-7.5s-3.357-7.5-7.5-7.5z" fill="#ffd15b"/><g><path d="m122.657 145.697-25.08-48.953c-.928-1.811-3.352-2.193-4.791-.753l-23.873 23.873c-1.439 1.439-1.058 3.863.753 4.791l48.953 25.08c2.593 1.328 5.367-1.446 4.038-4.038z" fill="#ffd15b"/></g><g><path d="m159.573 85.008-4.438-54.825c-.164-2.029-2.258-3.308-4.138-2.53l-31.191 12.92c-1.88.779-2.456 3.164-1.138 4.715l35.629 41.905c1.887 2.219 5.511.718 5.276-2.185z" fill="#fe5ca7"/></g><g><path d="m394.28 132.734 48.953-25.08c1.811-.928 2.193-3.352.753-4.791l-23.872-23.873c-1.439-1.439-3.863-1.058-4.791.753l-25.08 48.953c-1.329 2.593 1.445 5.367 4.037 4.038z" fill="#ffd15b"/></g><circle cx="170" cy="129.077" fill="#fe9738" r="7.5"/><circle cx="367" cy="73.08" fill="#fe9738" r="7.5"/><circle cx="452" cy="152.08" fill="#fe9738" r="7.5"/><circle cx="221" cy="416.003" fill="#3e5959" r="7.5"/><circle cx="221" cy="390.007" fill="#3e5959" r="7.5"/><g fill="#678d98"><circle cx="246" cy="416.003" r="7.5"/><circle cx="271" cy="416.003" r="7.5"/><circle cx="296" cy="416.003" r="7.5"/><circle cx="321" cy="416.003" r="7.5"/></g><g><g><circle cx="234.808" cy="300.903" fill="#af66da" r="30.384"/></g><g><path d="m230.019 300.903c0-12.207 7.202-22.726 17.586-27.557-3.89-1.81-8.224-2.827-12.797-2.827-16.781 0-30.384 13.603-30.384 30.384s13.603 30.384 30.384 30.384c4.573 0 8.907-1.017 12.797-2.827-10.384-4.83-17.586-15.35-17.586-27.557z" fill="#9857bd"/></g></g></g></svg>