<svg id="Capa_1" enable-background="new 0 0 512 512" height="512" viewBox="0 0 512 512" width="512" xmlns="http://www.w3.org/2000/svg"><g><g><g><path d="m231.206 365.97-13.85 138.53h-59.03c-.52 0-1.04-.01-1.56-.03l-39.94-136 15.22-124.97 3.43-28.2 15.92-12.33 12.16-9.42 45.86 21.75 4.08 28.2z" fill="#f9f6f9"/><path d="m209.417 215.3 4.079 28.2h-81.449l3.43-28.2 15.919-12.33 12.16-9.42z" fill="#dddaec"/><path d="m179.047 504.5h-20.72c-.52 0-1.04-.01-1.56-.03l-39.94-136 18.65-153.17 15.92-12.33 5.37 1.15z" fill="#dddaec"/><path d="m156.769 504.465c-27.52-.76-50.4-21.72-53.43-49.24l-26.45-239.93 28.713-25.904 29.877 25.904z" fill="#dd636e"/><path d="m389.907 375.94-39.95 128.53c-.52.02-1.04.03-1.56.03h-59.02l-23.91-135.99 25.98-125.01 5.86-28.2 37-21.75 36.95 21.75 3.27 28.2z" fill="#f9f6f9"/><path d="m374.527 243.5h-83.08l5.859-28.2 37-21.75 36.951 21.75z" fill="#dddaec"/><path d="m429.847 215.3-3.11 28.2-23.34 211.73c-3.03 27.52-25.91 48.48-53.44 49.24l19.22-260.97 2.08-28.2 29.96-21.74z" fill="#e28086"/><path d="m297.306 215.3-.769 28.2-7.161 261h-72.019l-7.171-261-.769-28.2 48.17-21.75z" fill="#e28086"/><g fill="#dd636e"><path d="m257.587 193.55 39.719 21.75-.769 28.2h-86.351l-.769-28.2z"/><path d="m429.847 215.3-3.11 28.2h-57.56l2.08-28.2 29.96-21.74z"/></g></g><path d="m86.237 171.81c-8.35-10.2-11.51-24.3-7.14-37.77 2.3-7.06 6.37-13.04 11.56-17.61 5.19-4.58 11.5-7.75 18.27-9.18-1.3-4.02-1.96-8.21-1.96-12.41 0-9.54 3.39-19.11 10.28-26.76 7.91-8.76 18.79-13.22 29.73-13.22 2.79 0 5.6.29 8.35.88.72-6.88 3.22-13.48 7.22-19.11 4.01-5.64 9.53-10.31 16.3-13.32 5.29-2.36 10.82-3.48 16.27-3.48 8.49 0 16.77 2.73 23.59 7.7 3.46-5.99 8.43-10.99 14.38-14.5s12.88-5.53 20.3-5.53h.13.27c7.42.02 14.35 2.04 20.29 5.57 5.94 3.52 10.89 8.54 14.33 14.53 6.81-4.94 15.07-7.64 23.53-7.64 5.48 0 11.04 1.13 16.35 3.51 6.76 3.03 12.27 7.71 16.26 13.36 4 5.64 6.48 12.24 7.18 19.12 2.73-.57 5.5-.86 8.27-.86 10.95 0 21.87 4.48 29.77 13.28 6.86 7.64 10.23 17.19 10.23 26.71 0 4.22-.66 8.44-1.98 12.48 6.77 1.44 13.07 4.63 18.25 9.21 5.18 4.59 9.24 10.58 11.52 17.64 1.31 4.08 1.94 8.22 1.94 12.29 0 9.21-3.21 18.07-8.87 25.11l-163.27 21.743z" fill="#f5de7d"/><path d="m164.317 171.81c-8.35-10.2-11.51-24.3-7.14-37.77 2.3-7.06 6.37-13.04 11.56-17.61 5.19-4.58 11.5-7.75 18.27-9.18-1.3-4.02-1.96-8.21-1.96-12.41 0-9.54 3.39-19.11 10.28-26.76 7.91-8.76 18.79-13.22 29.73-13.22 2.79 0 5.6.29 8.35.88.72-6.88 3.22-13.48 7.22-19.11 4.01-5.64 9.53-10.31 16.3-13.32 5.29-2.36 10.82-3.48 16.27-3.48 3.65 0 7.26.5 10.74 1.48-2.81-3.25-6.14-6.04-9.86-8.24-5.94-3.53-12.87-5.55-20.29-5.57h-.4c-7.42 0-14.35 2.02-20.3 5.53s-10.92 8.51-14.38 14.5c-6.82-4.97-15.1-7.7-23.59-7.7-5.45 0-10.98 1.12-16.27 3.48-6.77 3.01-12.29 7.68-16.3 13.32-4 5.63-6.5 12.23-7.22 19.11-2.75-.59-5.56-.88-8.35-.88-10.94 0-21.82 4.46-29.73 13.22-6.89 7.65-10.28 17.22-10.28 26.76 0 4.2.66 8.39 1.96 12.41-6.77 1.43-13.08 4.6-18.27 9.18-5.19 4.57-9.26 10.55-11.56 17.61-4.37 13.47-1.21 27.57 7.14 37.77l171.35 21.74 38.1-5.07z" fill="#f1ce64"/><path d="m436.604 171.809h-366.476c-12.009 0-21.744 9.735-21.744 21.744 0 12.009 9.735 21.744 21.744 21.744h366.476c12.009 0 21.744-9.735 21.744-21.744 0-12.009-9.735-21.744-21.744-21.744z" fill="#f9f6f9"/><path d="m169.924 208.933c3.93 3.93 9.37 6.37 15.37 6.37h-115.17c-6.01 0-11.44-2.44-15.37-6.37-3.94-3.94-6.37-9.37-6.37-15.38 0-12.01 9.73-21.74 21.74-21.74h115.17c-12 0-21.74 9.73-21.74 21.74 0 6.01 2.44 11.44 6.37 15.38z" fill="#dddaec"/><path d="m428.727 434.692c-3.959 0-7.759.669-11.307 1.884-7.07-19.407-25.685-33.267-47.537-33.267-27.935 0-50.58 22.646-50.58 50.58s22.646 50.58 50.58 50.58c12.423 0 23.793-4.486 32.597-11.917 6.395 7.3 15.779 11.917 26.247 11.917 19.269 0 34.889-15.62 34.889-34.889 0-19.267-15.62-34.888-34.889-34.888z" fill="#f5de7d"/><path d="m387.193 501.42c-5.4 1.98-11.23 3.05-17.31 3.05-27.94 0-50.58-22.65-50.58-50.58s22.64-50.58 50.58-50.58c6.08 0 11.91 1.08 17.31 3.05-19.4 7.07-33.25 25.69-33.25 47.53s13.85 40.46 33.25 47.53z" fill="#f1ce64"/></g><g><path d="m428.727 427.192c-2.34 0-4.666.192-6.96.575-1.864-3.693-4.105-7.137-6.66-10.297l21.459-194.672h.038c16.125 0 29.245-13.119 29.245-29.244s-13.119-29.244-29.245-29.244h-2.779c2.229-5.579 3.406-11.563 3.406-17.609 0-4.926-.773-9.832-2.303-14.595-2.612-8.087-7.343-15.331-13.689-20.953-4.228-3.738-9.083-6.691-14.303-8.726.376-2.421.565-4.875.565-7.345 0-5.654-.987-11.194-2.935-16.468-1.434-3.885-5.748-5.872-9.633-4.438-3.886 1.435-5.873 5.748-4.438 9.633 1.331 3.605 2.006 7.398 2.006 11.272 0 3.467-.542 6.883-1.609 10.151-.661 2.022-.431 4.23.631 6.073 1.062 1.844 2.857 3.149 4.938 3.592 5.485 1.167 10.618 3.758 14.836 7.487 4.333 3.84 7.569 8.796 9.353 14.32 1.049 3.267 1.581 6.63 1.581 9.997 0 6.229-1.834 12.364-5.206 17.609h-326.989c-5.438-8.241-6.885-18.452-3.805-27.946 1.805-5.541 5.05-10.487 9.391-14.31 4.218-3.722 9.355-6.303 14.857-7.465 2.08-.439 3.875-1.74 4.94-3.58 1.065-1.839 1.3-4.044.646-6.067-1.059-3.274-1.596-6.673-1.596-10.102 0-8.04 2.966-15.76 8.346-21.734 6.167-6.829 14.974-10.746 24.164-10.746 2.292 0 4.572.24 6.776.713 2.081.447 4.254-.012 5.978-1.262s2.834-3.173 3.056-5.291c.584-5.583 2.615-10.959 5.873-15.544 3.353-4.715 7.929-8.454 13.244-10.817 4.208-1.877 8.654-2.829 13.214-2.829 6.823 0 13.632 2.224 19.173 6.261 1.719 1.253 3.891 1.716 5.97 1.276 2.081-.441 3.877-1.744 4.941-3.586 2.804-4.854 6.848-8.932 11.696-11.792 4.979-2.937 10.682-4.49 16.49-4.49h.38c5.834.016 11.532 1.578 16.486 4.522 4.826 2.86 8.854 6.944 11.65 11.813 1.06 1.845 2.853 3.153 4.934 3.599 2.079.445 4.251-.013 5.974-1.263 5.521-4.005 12.313-6.211 19.126-6.211 4.588 0 9.057.96 13.282 2.854 5.308 2.379 9.872 6.128 13.21 10.855 3.25 4.582 5.268 9.956 5.836 15.54.215 2.114 1.317 4.038 3.032 5.293 1.714 1.254 3.881 1.723 5.962 1.289 7.221-1.508 14.776-.519 21.237 2.694 3.71 1.845 8.211.333 10.055-3.375 1.845-3.709.333-8.211-3.375-10.055-7.184-3.573-15.301-5.288-23.382-4.913-1.459-5.412-3.868-10.551-7.122-15.138-4.879-6.909-11.559-12.4-19.319-15.878-6.168-2.764-12.701-4.166-19.417-4.166-7.39 0-14.762 1.776-21.37 5.085-3.535-4.346-7.824-8.058-12.659-10.923-7.251-4.31-15.586-6.6-24.122-6.623h-.4c-8.487 0-16.825 2.272-24.111 6.57-4.854 2.864-9.157 6.567-12.702 10.9-6.635-3.345-14.038-5.141-21.457-5.141-6.68 0-13.182 1.39-19.317 4.127-7.76 3.45-14.457 8.923-19.367 15.829-3.262 4.591-5.681 9.726-7.152 15.13-.767-.037-1.535-.056-2.304-.056-13.425 0-26.291 5.72-35.303 15.701-7.872 8.74-12.207 20.026-12.207 31.779 0 2.436.186 4.861.555 7.259-5.234 2.028-10.096 4.973-14.321 8.702-6.349 5.591-11.099 12.823-13.737 20.924-3.521 10.853-2.997 22.337 1.186 32.583h-3.024c-16.125 0-29.245 13.119-29.245 29.244s13.119 29.244 29.245 29.244h.04l25.713 233.254c3.448 31.283 29.342 55.005 60.606 55.906.092.003.182.013.275.013.037 0 .075-.004.113-.004.484.011 191.521.034 191.521.034 3.705 0 7.405-.346 11.029-.991 3.395.62 6.887.961 10.458.961 11.404 0 22.537-3.375 31.983-9.609 7.526 6.169 17.002 9.609 26.86 9.609 23.374 0 42.389-19.016 42.389-42.389s-19.013-42.385-42.387-42.385zm-27.352-22.053c-9.201-5.945-20.081-9.33-31.491-9.33-1.484 0-2.951.074-4.408.184l12.752-173.193h43.247zm-176.719 91.856-7.527-274.195h72.474l-7.527 274.195zm-168.772-303.442c0-7.854 6.39-14.244 14.245-14.244h366.475c7.854 0 14.245 6.39 14.245 14.244s-6.39 14.244-14.245 14.244h-366.476c-7.854 0-14.244-6.39-14.244-14.244zm54.908 260.855-25.533-231.608h43.253l14.818 201.221c.291 3.944 3.58 6.949 7.472 6.949.185 0 .371-.007.559-.021 4.131-.304 7.233-3.9 6.929-8.031l-14.737-200.118h58.571l7.526 274.2h-45.91l-3.251-44.18c-.304-4.131-3.895-7.234-8.03-6.929-4.131.304-7.233 3.899-6.93 8.03l3.097 42.085c-19.947-4.105-35.523-20.617-37.834-41.598zm186.29 42.592 7.527-274.2h58.579l-12.993 176.451c-22.363 8.083-38.391 29.522-38.391 54.638 0 17.088 7.421 32.473 19.206 43.11h-33.928zm131.645-.03c-7.885 0-15.395-3.411-20.605-9.359-1.481-1.691-3.557-2.558-5.645-2.558-1.709 0-3.427.582-4.834 1.769-7.754 6.544-17.613 10.148-27.76 10.148-23.754 0-43.08-19.326-43.08-43.08s19.326-43.08 43.08-43.08c18.045 0 34.317 11.386 40.491 28.333 1.399 3.839 5.613 5.851 9.477 4.528 2.866-.982 5.852-1.479 8.876-1.479 15.103 0 27.389 12.287 27.389 27.389s-12.286 27.389-27.389 27.389z"/><path d="m256.313 99.75c-14.343 0-27.036 7.201-34.654 18.177-7.618-10.976-20.311-18.177-34.653-18.177-23.243 0-42.153 18.91-42.153 42.154 0 4.142 3.358 7.5 7.5 7.5s7.5-3.358 7.5-7.5c0-14.972 12.181-27.154 27.153-27.154s27.153 12.181 27.153 27.154c0 4.142 3.358 7.5 7.5 7.5s7.5-3.358 7.5-7.5c0-14.972 12.181-27.154 27.154-27.154 14.972 0 27.153 12.181 27.153 27.154 0 4.142 3.358 7.5 7.5 7.5s7.5-3.358 7.5-7.5c.001-23.244-18.909-42.154-42.153-42.154z"/></g></g></svg>