<?xml version="1.0" encoding="UTF-8" standalone="no"?>
<svg
   id="Capa_1"
   enable-background="new 0 0 512 512"
   height="512"
   viewBox="0 0 512 512"
   width="512"
   version="1.1"
   sodipodi:docname="air-conditioner-1-color.svg"
   inkscape:version="1.1.2 (0a00cf5339, 2022-02-04)"
   xmlns:inkscape="http://www.inkscape.org/namespaces/inkscape"
   xmlns:sodipodi="http://sodipodi.sourceforge.net/DTD/sodipodi-0.dtd"
   xmlns="http://www.w3.org/2000/svg"
   xmlns:svg="http://www.w3.org/2000/svg">
  <defs
     id="defs39" />
  <sodipodi:namedview
     id="namedview37"
     pagecolor="#ffffff"
     bordercolor="#666666"
     borderopacity="1.0"
     inkscape:pageshadow="2"
     inkscape:pageopacity="0.0"
     inkscape:pagecheckerboard="0"
     showgrid="false"
     inkscape:zoom="1.2304688"
     inkscape:cx="255.59365"
     inkscape:cy="255.59365"
     inkscape:window-width="1920"
     inkscape:window-height="1012"
     inkscape:window-x="0"
     inkscape:window-y="0"
     inkscape:window-maximized="1"
     inkscape:current-layer="Capa_1" />
  <g
     id="g34"
     transform="matrix(1.0293448,0,0,1.0293448,-7.5122761,-7.6223339)">
    <g
       id="g14">
      <g
         id="g12">
        <path
           d="M 482.734,288.858 H 29.266 C 17.245,288.858 7.5,279.113 7.5,267.092 V 70.287 c 0,-12.021 9.745,-21.766 21.766,-21.766 h 453.467 c 12.021,0 21.766,9.745 21.766,21.766 v 196.805 c 10e-4,12.021 -9.744,21.766 -21.765,21.766 z"
           fill="#e8edf2"
           id="path2" />
        <path
           d="M 402.016,208.302 H 109.984 c -9.016,0 -16.325,7.309 -16.325,16.325 v 64.232 h 324.682 v -64.232 c 0,-9.016 -7.309,-16.325 -16.325,-16.325 z"
           fill="#c5d3dd"
           id="path4" />
        <path
           d="m 283.661,174.136 h -55.323 c -5.009,0 -9.069,-4.06 -9.069,-9.069 v -14.813 c 0,-5.009 4.06,-9.069 9.069,-9.069 h 55.323 c 5.009,0 9.069,4.06 9.069,9.069 v 14.813 c 10e-4,5.008 -4.06,9.069 -9.069,9.069 z"
           fill="#7a8c98"
           id="path6" />
        <path
           d="m 482.734,48.521 h -39.685 c 12.021,0 21.766,9.745 21.766,21.766 v 196.805 c 0,12.021 -9.745,21.766 -21.766,21.766 h 39.685 c 12.021,0 21.766,-9.745 21.766,-21.766 V 70.287 c 0,-12.021 -9.745,-21.766 -21.766,-21.766 z"
           fill="#d9e7ec"
           id="path8" />
        <path
           d="m 65.753,48.521 c 2.37,15.461 5.882,30.748 10.528,45.731 2.354,7.592 9.377,12.767 17.325,12.767 h 324.789 c 7.948,0 14.971,-5.175 17.325,-12.767 4.646,-14.983 8.158,-30.269 10.528,-45.731 -1.495,0 -376.779,0 -380.495,0 z"
           fill="#c5d3dd"
           id="path10" />
      </g>
    </g>
    <g
       id="g32">
      <path
         d="M 390.227,228.226 H 121.774 c -4.142,0 -7.5,3.357 -7.5,7.5 0,4.143 3.358,7.5 7.5,7.5 h 268.453 c 4.143,0 7.5,-3.357 7.5,-7.5 0,-4.143 -3.358,-7.5 -7.5,-7.5 z"
         id="path20"
         style="fill:#dbe2e3" />
      <path
         d="M 390.227,253.935 H 121.774 c -4.142,0 -7.5,3.357 -7.5,7.5 0,4.143 3.358,7.5 7.5,7.5 h 268.453 c 4.143,0 7.5,-3.357 7.5,-7.5 0,-4.143 -3.358,-7.5 -7.5,-7.5 z"
         id="path22"
         style="fill:#dbe2e3" />
      <path
         d="m 274.5,322.874 c 0,-4.143 -3.357,-7.5 -7.5,-7.5 -4.143,0 -7.5,3.357 -7.5,7.5 0,15.422 -4.568,22.721 -9.857,31.173 -5.691,9.094 -12.143,19.4 -12.143,39.13 0,19.73 6.451,30.036 12.143,39.13 5.29,8.452 9.857,15.751 9.857,31.173 0,4.143 3.357,7.5 7.5,7.5 4.143,0 7.5,-3.357 7.5,-7.5 0,-19.729 -6.451,-30.036 -12.143,-39.13 -5.289,-8.452 -9.857,-15.751 -9.857,-31.173 0,-15.422 4.568,-22.721 9.857,-31.173 5.692,-9.094 12.143,-19.4 12.143,-39.13 z"
         id="path26"
         style="fill:#d7eef4" />
      <path
         d="m 161.114,322.874 c 0,-4.143 -3.358,-7.5 -7.5,-7.5 -4.142,0 -7.5,3.357 -7.5,7.5 0,15.422 -4.568,22.721 -9.857,31.173 -5.691,9.094 -12.143,19.4 -12.143,39.13 0,19.73 6.451,30.036 12.143,39.13 5.29,8.452 9.857,15.751 9.857,31.173 0,4.143 3.358,7.5 7.5,7.5 4.142,0 7.5,-3.357 7.5,-7.5 0,-19.729 -6.451,-30.036 -12.143,-39.13 -5.29,-8.452 -9.857,-15.751 -9.857,-31.173 0,-15.422 4.568,-22.721 9.857,-31.173 5.692,-9.094 12.143,-19.4 12.143,-39.13 z"
         id="path28"
         style="fill:#d7eef4" />
      <path
         d="m 387.886,322.874 c 0,-4.143 -3.357,-7.5 -7.5,-7.5 -4.143,0 -7.5,3.357 -7.5,7.5 0,15.422 -4.568,22.721 -9.857,31.173 -5.691,9.094 -12.143,19.4 -12.143,39.13 0,19.73 6.451,30.036 12.143,39.13 5.289,8.452 9.857,15.751 9.857,31.173 0,4.143 3.357,7.5 7.5,7.5 4.143,0 7.5,-3.357 7.5,-7.5 0,-19.729 -6.451,-30.036 -12.143,-39.13 -5.289,-8.452 -9.857,-15.751 -9.857,-31.173 0,-15.422 4.568,-22.721 9.857,-31.173 5.692,-9.094 12.143,-19.4 12.143,-39.13 z"
         id="path30"
         style="fill:#d7eef4" />
    </g>
  </g>
</svg>
