<svg id="Capa_1" enable-background="new 0 0 512 512" height="512" viewBox="0 0 512 512" width="512" xmlns="http://www.w3.org/2000/svg"><g><path d="m139.996 184.72c0-3.027.444-5.95 1.27-8.708h-133.766v14.987c0 16.051 2.441 32.008 7.239 47.325l1.491 4.76c1.74 5.553 6.885 9.333 12.704 9.333h111.062z" fill="#c6d0da"/><path d="m370.734 176.012c.826 2.758 1.27 5.681 1.27 8.708v67.697h111.034c5.833 0 10.987-3.797 12.715-9.369l1.639-5.285c4.712-15.189 7.108-31.002 7.108-46.906v-14.846h-133.766z" fill="#c6d0da"/><path d="m139.996 201.012h-93.82c-3.119 0-5.647 2.528-5.647 5.647v45.758h99.467z" fill="#a0aab7"/><path d="m372.004 201.012h93.82c3.119 0 5.647 2.528 5.647 5.647v45.758h-99.467z" fill="#a0aab7"/><path d="m487.588 7.5h-463.176c-9.34 0-16.912 7.572-16.912 16.912v151.6h133.766c3.741-12.494 15.326-21.6 29.038-21.6h171.392c13.712 0 25.297 9.106 29.038 21.6h133.766v-151.6c0-9.34-7.572-16.912-16.912-16.912z" fill="#dae4ea"/><path d="m341.696 504.5h-171.392c-16.739 0-30.308-13.569-30.308-30.308v-289.472c0-16.739 13.569-30.308 30.308-30.308h171.392c16.739 0 30.308 13.569 30.308 30.308v289.473c0 16.738-13.57 30.307-30.308 30.307z" fill="#f6f9f9"/><path d="m166.204 471.732v-144.957c0-3.623 2.937-6.56 6.56-6.56h166.471c3.623 0 6.56 2.937 6.56 6.56v144.957c0 3.623-2.937 6.56-6.56 6.56h-166.47c-3.624 0-6.561-2.937-6.561-6.56z" fill="#dae4ea"/><path d="m176.687 320.214v-129.192c0-5.745 4.657-10.402 10.402-10.402h137.821c5.745 0 10.402 4.657 10.402 10.402v129.193h-158.625z" fill="#d3effb"/><path d="m339.235 320.214h-33.44v87.523c0 27.921-22.634 50.555-50.555 50.555h-89.037v13.44c0 3.623 2.937 6.56 6.56 6.56h166.471c3.623 0 6.56-2.937 6.56-6.56v-144.957c.002-3.624-2.935-6.561-6.559-6.561z" fill="#c6d0da"/><path d="m324.91 180.62h-29.598v71.344c0 27.921-22.634 50.555-50.555 50.555h-68.071v17.696h158.625v-129.193c.002-5.745-4.656-10.402-10.401-10.402z" fill="#b1e4f9"/><path d="m254.828 345.891-22.367 38.741c-.521.902.13 2.029 1.172 2.029h44.734c1.042 0 1.692-1.127 1.172-2.029l-22.367-38.741c-.521-.902-1.823-.902-2.344 0z" fill="#407093"/><path d="m254.828 452.616-22.367-38.741c-.521-.902.13-2.029 1.172-2.029h44.734c1.042 0 1.692 1.127 1.172 2.029l-22.367 38.741c-.521.901-1.823.901-2.344 0z" fill="#407093"/><path d="m214.097 370.355h-20.646c-1.241 0-2.247-1.006-2.247-2.247v-20.646c0-1.241 1.006-2.247 2.247-2.247h20.646c1.241 0 2.247 1.006 2.247 2.247v20.646c.001 1.241-1.006 2.247-2.247 2.247z" fill="#78c2a4"/><path d="m297.903 370.355h20.646c1.241 0 2.247-1.006 2.247-2.247v-20.646c0-1.241-1.006-2.247-2.247-2.247h-20.646c-1.241 0-2.247 1.006-2.247 2.247v20.646c-.001 1.241 1.006 2.247 2.247 2.247z" fill="#dd636e"/><path d="m318.548 345.214h-12.753v25.141h12.753c1.241 0 2.247-1.006 2.247-2.248v-20.646c.001-1.24-1.005-2.247-2.247-2.247z" fill="#da4a54"/><path d="m412.797 119.035h63.318c1.87 0 3.385 1.516 3.385 3.385v25.206c0 1.87-1.516 3.385-3.385 3.385h-63.318c-1.87 0-3.385-1.516-3.385-3.385v-25.206c0-1.869 1.515-3.385 3.385-3.385z" fill="#407093"/><path d="m324.911 173.12h-137.822c-9.871 0-17.902 8.031-17.902 17.902v122.154c-6.026 1.586-10.483 7.082-10.483 13.599v74.544c0 4.142 3.358 7.5 7.5 7.5s7.5-3.358 7.5-7.5v-73.604h164.592v143.078h-164.592v-34.473c0-4.142-3.358-7.5-7.5-7.5s-7.5 3.358-7.5 7.5v35.413c0 7.753 6.308 14.06 14.061 14.06h166.471c7.753 0 14.061-6.307 14.061-14.06v-144.958c0-6.517-4.457-12.013-10.483-13.599v-122.154c-.002-9.872-8.032-17.902-17.903-17.902zm-137.822 15h137.821c1.6 0 2.902 1.302 2.902 2.902v121.692h-143.625v-121.692c0-1.601 1.302-2.902 2.902-2.902z"/><path d="m263.666 342.139c-1.577-2.729-4.514-4.425-7.666-4.425s-6.089 1.695-7.666 4.425c-.101.101 1.227-2.126-22.37 38.745-1.575 2.73-1.574 6.123.002 8.853 1.577 2.729 4.514 4.425 7.666 4.425h44.734c3.152 0 6.089-1.696 7.666-4.425 1.577-2.73 1.578-6.122.001-8.855zm-19.387 37.023 11.721-20.301 11.721 20.301z"/><path d="m278.367 404.345h-44.734c-3.152 0-6.089 1.696-7.666 4.425-1.577 2.73-1.578 6.122-.001 8.855 23.885 41.37 22.268 38.643 22.368 38.743 1.577 2.729 4.514 4.425 7.666 4.425s6.089-1.695 7.667-4.426l22.369-38.744c1.575-2.73 1.574-6.123-.002-8.853-1.577-2.729-4.515-4.425-7.667-4.425zm-22.367 35.301-11.721-20.301h23.441z"/><path d="m283.156 302.714c14.191 0 26.804-8.499 32.131-21.651 1.555-3.839-.296-8.212-4.135-9.767-3.836-1.556-8.212.296-9.767 4.135-3.022 7.461-10.178 12.283-18.229 12.283-10.838 0-19.656-8.818-19.656-19.656v-35.282c0-10.838 8.818-19.656 19.656-19.656 8.042 0 15.194 4.814 18.221 12.264 1.559 3.837 5.932 5.685 9.771 4.125 3.837-1.559 5.684-5.934 4.125-9.771-5.335-13.132-17.942-21.617-32.118-21.617-19.109 0-34.656 15.547-34.656 34.656v35.282c.001 19.108 15.548 34.655 34.657 34.655z"/><path d="m214.625 238.994c11.269 0 20.438-9.168 20.438-20.438s-9.168-20.437-20.438-20.437-20.437 9.168-20.437 20.437 9.167 20.438 20.437 20.438zm0-25.874c2.998 0 5.438 2.439 5.438 5.437s-2.439 5.438-5.438 5.438-5.437-2.439-5.437-5.438 2.438-5.437 5.437-5.437z"/><path d="m214.097 377.855c5.375 0 9.748-4.373 9.748-9.748v-20.646c0-5.375-4.373-9.748-9.748-9.748h-20.646c-5.375 0-9.748 4.373-9.748 9.748v20.646c0 5.375 4.373 9.748 9.748 9.748zm-15.393-25.141h10.141v10.141h-10.141z"/><path d="m318.548 377.855c5.375 0 9.748-4.373 9.748-9.748v-20.646c0-5.375-4.373-9.748-9.748-9.748h-20.646c-5.375 0-9.748 4.373-9.748 9.748v20.646c0 5.375 4.373 9.748 9.748 9.748zm-15.393-25.141h10.141v10.141h-10.141z"/><path d="m476.115 158.512c6.002 0 10.885-4.883 10.885-10.885v-25.207c0-6.002-4.883-10.885-10.885-10.885h-63.318c-6.002 0-10.885 4.883-10.885 10.885v25.206c0 6.002 4.883 10.885 10.885 10.885h63.318zm-59.203-31.977h55.088v16.977h-55.088z"/><path d="m9.073 245.325c2.733 8.728 10.715 14.592 19.861 14.592h103.562v214.275c0 20.847 16.96 37.808 37.808 37.808h171.392c20.848 0 37.808-16.96 37.808-37.808v-214.275h103.533c9.172 0 17.161-5.886 19.879-14.647l1.639-5.285c4.94-15.926 7.445-32.455 7.445-49.127v-166.446c0-13.461-10.951-24.412-24.412-24.412h-463.176c-13.461 0-24.412 10.951-24.412 24.412v89.703c0 4.142 3.358 7.5 7.5 7.5s7.5-3.358 7.5-7.5v-89.703c0-5.19 4.222-9.412 9.412-9.412h463.177c5.189 0 9.412 4.222 9.412 9.412v144.1h-121.151c-6.08-12.76-19.104-21.6-34.154-21.6h-23.359c-4.142 0-7.5 3.358-7.5 7.5s3.358 7.5 7.5 7.5h23.359c12.577 0 22.808 10.231 22.808 22.808v289.473c0 12.576-10.231 22.808-22.808 22.808h-171.392c-12.577 0-22.808-10.231-22.808-22.808v-289.473c0-12.577 10.231-22.808 22.808-22.808h113.032c4.142 0 7.5-3.358 7.5-7.5s-3.358-7.5-7.5-7.5h-113.032c-15.051 0-28.075 8.84-34.154 21.6h-121.15v-19.396c0-4.142-3.358-7.5-7.5-7.5s-7.5 3.358-7.5 7.5v41.883c0 16.83 2.551 33.506 7.582 49.567zm370.431-36.813h59.467v10.703h-59.467zm0 36.405v-10.703h61.074c7.385 0 13.393-6.008 13.393-13.393v-12.31h10v36.405h-84.467zm117.496-61.405v7.346c0 15.165-2.278 30.198-6.771 44.684l-1.639 5.284c-.759 2.447-2.991 4.091-5.553 4.091h-4.066v-38.258c0-7.25-5.898-13.147-13.147-13.147h-86.32c0-8.552.01-9.043-.02-10zm-448.971 61.405v-36.405h10v12.31c0 7.385 6.008 13.393 13.393 13.393h61.074v10.703h-84.467zm84.467-36.405v10.703h-59.467v-10.703zm.02-25c-.026.833-.02 1.542-.02 10h-86.32c-7.249 0-13.147 5.897-13.147 13.147v38.258h-4.095c-2.554 0-4.784-1.638-5.547-4.076l-1.491-4.76c-4.576-14.607-6.896-29.776-6.896-45.083v-7.486z"/></g></svg>