<svg id="Capa_1" enable-background="new 0 0 512 512" height="512" viewBox="0 0 512 512" width="512" xmlns="http://www.w3.org/2000/svg"><g><g><g><path d="m482.734 288.858h-453.468c-12.021 0-21.766-9.745-21.766-21.766v-196.805c0-12.021 9.745-21.766 21.766-21.766h453.467c12.021 0 21.766 9.745 21.766 21.766v196.805c.001 12.021-9.744 21.766-21.765 21.766z" fill="#e8edf2"/><path d="m402.016 208.302h-292.032c-9.016 0-16.325 7.309-16.325 16.325v64.232h324.682v-64.232c0-9.016-7.309-16.325-16.325-16.325z" fill="#c5d3dd"/><path d="m283.661 174.136h-55.323c-5.009 0-9.069-4.06-9.069-9.069v-14.813c0-5.009 4.06-9.069 9.069-9.069h55.323c5.009 0 9.069 4.06 9.069 9.069v14.813c.001 5.008-4.06 9.069-9.069 9.069z" fill="#7a8c98"/><path d="m482.734 48.521h-39.685c12.021 0 21.766 9.745 21.766 21.766v196.805c0 12.021-9.745 21.766-21.766 21.766h39.685c12.021 0 21.766-9.745 21.766-21.766v-196.805c0-12.021-9.745-21.766-21.766-21.766z" fill="#d9e7ec"/><path d="m65.753 48.521c2.37 15.461 5.882 30.748 10.528 45.731 2.354 7.592 9.377 12.767 17.325 12.767h324.789c7.948 0 14.971-5.175 17.325-12.767 4.646-14.983 8.158-30.269 10.528-45.731-1.495 0-376.779 0-380.495 0z" fill="#c5d3dd"/></g></g><g><path d="m482.733 41.021c-15.269 0-414.563 0-453.467 0-16.137 0-29.266 13.128-29.266 29.266v196.805c0 16.138 13.129 29.267 29.267 29.267h18.467c4.142 0 7.5-3.357 7.5-7.5s-3.358-7.5-7.5-7.5h-18.467c-7.867 0-14.267-6.4-14.267-14.267v-196.805c0-7.866 6.4-14.267 14.267-14.267h30.117c2.377 13.673 5.64 27.251 9.733 40.452 3.347 10.793 13.188 18.045 24.488 18.045h324.789c11.301 0 21.142-7.252 24.487-18.045 4.094-13.2 7.358-26.779 9.734-40.452h30.118c7.866 0 14.267 6.4 14.267 14.267v53.647c0 4.143 3.357 7.5 7.5 7.5s7.5-3.357 7.5-7.5v-53.647c0-16.138-13.129-29.266-29.267-29.266zm-54.178 51.009c-1.388 4.479-5.471 7.487-10.16 7.487h-324.79c-4.689 0-8.772-3.009-10.161-7.487-3.647-11.762-6.606-23.838-8.828-36.01h362.768c-2.222 12.172-5.182 24.25-8.829 36.01z"/><path d="m504.5 151.435c-4.143 0-7.5 3.357-7.5 7.5v108.157c0 7.866-6.4 14.267-14.267 14.267h-56.893v-56.731c0-13.138-10.688-23.825-23.824-23.825h-292.033c-13.137 0-23.825 10.688-23.825 23.825v56.731h-3.425c-4.142 0-7.5 3.357-7.5 7.5s3.358 7.5 7.5 7.5h400c16.138 0 29.267-13.129 29.267-29.267v-108.157c0-4.143-3.357-7.5-7.5-7.5zm-93.659 129.923h-309.682v-56.731c0-4.866 3.958-8.825 8.825-8.825h292.033c4.865 0 8.824 3.959 8.824 8.825z"/><path d="m390.227 228.226h-268.453c-4.142 0-7.5 3.357-7.5 7.5s3.358 7.5 7.5 7.5h268.453c4.143 0 7.5-3.357 7.5-7.5s-3.358-7.5-7.5-7.5z"/><path d="m390.227 253.935h-268.453c-4.142 0-7.5 3.357-7.5 7.5s3.358 7.5 7.5 7.5h268.453c4.143 0 7.5-3.357 7.5-7.5s-3.358-7.5-7.5-7.5z"/><path d="m283.661 181.636c9.137 0 16.569-7.433 16.569-16.569v-14.813c0-9.137-7.433-16.569-16.569-16.569h-55.323c-9.136 0-16.569 7.433-16.569 16.569v14.813c0 9.137 7.433 16.569 16.569 16.569zm-56.892-16.57v-14.813c0-.865.704-1.569 1.569-1.569h55.323c.865 0 1.569.704 1.569 1.569v14.813c0 .865-.704 1.569-1.569 1.569h-55.323c-.865.001-1.569-.703-1.569-1.569z"/><path d="m274.5 322.874c0-4.143-3.357-7.5-7.5-7.5s-7.5 3.357-7.5 7.5c0 15.422-4.568 22.721-9.857 31.173-5.691 9.094-12.143 19.4-12.143 39.13s6.451 30.036 12.143 39.13c5.29 8.452 9.857 15.751 9.857 31.173 0 4.143 3.357 7.5 7.5 7.5s7.5-3.357 7.5-7.5c0-19.729-6.451-30.036-12.143-39.13-5.289-8.452-9.857-15.751-9.857-31.173s4.568-22.721 9.857-31.173c5.692-9.094 12.143-19.4 12.143-39.13z"/><path d="m161.114 322.874c0-4.143-3.358-7.5-7.5-7.5s-7.5 3.357-7.5 7.5c0 15.422-4.568 22.721-9.857 31.173-5.691 9.094-12.143 19.4-12.143 39.13s6.451 30.036 12.143 39.13c5.29 8.452 9.857 15.751 9.857 31.173 0 4.143 3.358 7.5 7.5 7.5s7.5-3.357 7.5-7.5c0-19.729-6.451-30.036-12.143-39.13-5.29-8.452-9.857-15.751-9.857-31.173s4.568-22.721 9.857-31.173c5.692-9.094 12.143-19.4 12.143-39.13z"/><path d="m387.886 322.874c0-4.143-3.357-7.5-7.5-7.5s-7.5 3.357-7.5 7.5c0 15.422-4.568 22.721-9.857 31.173-5.691 9.094-12.143 19.4-12.143 39.13s6.451 30.036 12.143 39.13c5.289 8.452 9.857 15.751 9.857 31.173 0 4.143 3.357 7.5 7.5 7.5s7.5-3.357 7.5-7.5c0-19.729-6.451-30.036-12.143-39.13-5.289-8.452-9.857-15.751-9.857-31.173s4.568-22.721 9.857-31.173c5.692-9.094 12.143-19.4 12.143-39.13z"/></g></g></svg>