<svg id="Capa_1" enable-background="new 0 0 512 512" height="512" viewBox="0 0 512 512" width="512" xmlns="http://www.w3.org/2000/svg"><g><path d="m190.399 385.832h-36.196v124.873c0 .715.58 1.295 1.295 1.295h33.606c.715 0 1.295-.58 1.295-1.295z" fill="#c6865c"/><path d="m321.601 385.832h36.196v124.873c0 .715-.58 1.295-1.295 1.295h-33.606c-.715 0-1.295-.58-1.295-1.295z" fill="#c6865c"/><path d="m405.04 396.134h-298.08v-46.944l298.08 10.748z" fill="#ce9875"/><path d="m153.738 159.79-90.017 24.12c-9.798 2.625-15.971 12.873-13.163 22.621 2.724 9.453 12.53 15.021 22.073 12.464l7.153-1.917c.467-.125.926.227.926.71v292.916c0 .715.58 1.295 1.295 1.295h33.606c.715 0 1.295-.58 1.295-1.295v-303.008c0-.333.224-.624.545-.71l47.703-12.782z" fill="#d8aa8b"/><path d="m358.262 159.79 90.017 24.12c9.798 2.625 15.971 12.873 13.163 22.621-2.724 9.453-12.53 15.021-22.073 12.464l-7.153-1.917c-.467-.125-.926.227-.926.71v292.916c0 .715-.58 1.295-1.295 1.295h-33.606c-.715 0-1.295-.58-1.295-1.295v-303.008c0-.333-.224-.624-.545-.71l-46.591-12.484z" fill="#d8aa8b"/><path d="m146.23 72.864c4.613 2.738 7.508 7.637 7.508 13.001v184.019c1.813-.237 3.661-.359 5.539-.359h193.446c1.877 0 3.726.123 5.539.359v-184.019c0-5.364 2.895-10.263 7.508-13.001 11.496-6.824 19.202-19.362 19.202-33.701 0-21.629-17.534-39.163-39.163-39.163h-179.618c-21.629 0-39.163 17.534-39.163 39.163 0 14.339 7.706 26.877 19.202 33.701z" fill="#dd636e"/><path d="m345.809 0h-6.844c3.153 5.697 4.909 12.248 4.794 19.219-.233 14.122-7.941 26.424-19.339 33.125-4.574 2.689-7.366 7.612-7.366 12.917v92.742c0 50.208-40.682 90.915-90.89 90.935-19.459.008-43.266.01-72.426 0v20.946c1.813-.237 202.711 12.993 204.524 13.23v-197.249c0-5.364 2.895-10.263 7.508-13.001 11.496-6.824 19.202-19.362 19.202-33.701 0-21.629-17.534-39.163-39.163-39.163z" fill="#da4a54"/><path d="m328.743 86.052h-145.486c-4.268 0-7.726-3.459-7.726-7.726 0-4.268 3.459-7.726 7.726-7.726h145.487c4.268 0 7.726 3.459 7.726 7.726 0 4.268-3.459 7.726-7.727 7.726z" fill="#da4a54"/><path d="m317.055 70.6v15.453h11.689c4.268 0 7.726-3.459 7.726-7.726 0-4.268-3.459-7.726-7.726-7.726h-11.689z" fill="#d82e3d"/><path d="m395.094 359.938h-278.188v-48.043c0-23.401 18.97-42.371 42.371-42.371h193.446c23.401 0 42.371 18.97 42.371 42.371z" fill="#dd636e"/><path d="m352.723 269.524h-4.849c3.817 6.362 6.012 13.808 6.012 21.767 0 26.533-21.51 48.043-48.043 48.043h-188.937v20.604h278.188v-48.043c0-23.401-18.97-42.371-42.371-42.371z" fill="#da4a54"/></g></svg>