<svg id="Capa_1" enable-background="new 0 0 512 512" height="512" viewBox="0 0 512 512" width="512" xmlns="http://www.w3.org/2000/svg"><g><path d="m391.018 356.893h-270.037v-46.636c0-22.715 18.414-41.129 41.129-41.129h187.779c22.715 0 41.129 18.414 41.129 41.129z" fill="#dd636e"/><path d="m149.445 78.229c4.478 2.658 7.288 7.413 7.288 12.62v178.627c1.76-.23 3.554-.349 5.377-.349h187.779c1.822 0 3.617.119 5.377.349v-178.627c0-5.207 2.81-9.962 7.288-12.62 11.159-6.624 18.639-18.795 18.639-32.713 0-20.995-17.02-38.016-38.016-38.016h-174.355c-20.995 0-38.016 17.02-38.016 38.016 0 13.918 7.48 26.089 18.639 32.713z" fill="#dd636e"/><path d="m349.889 269.128h-4.707c3.705 6.176 5.836 13.403 5.836 21.129 0 25.756-20.88 46.636-46.636 46.636h-183.401v20h270.038v-46.636c-.001-22.715-18.415-41.129-41.13-41.129z" fill="#da4a54"/><path d="m343.177 7.5h-6.643c3.06 5.53 4.765 11.889 4.653 18.656-.227 13.708-7.708 25.65-18.772 32.154-4.44 2.61-7.15 7.389-7.15 12.538v90.025c0 48.737-39.49 88.252-88.227 88.271-18.889.007-41.999.01-70.304 0v20.332c1.76-.23 3.554-.349 5.376-.349h187.779c1.822 0 3.617.119 5.376.349v-178.627c0-5.207 2.811-9.962 7.288-12.62 11.159-6.624 18.639-18.795 18.639-32.713.001-20.996-17.019-38.016-38.015-38.016z" fill="#da4a54"/><path d="m120.981 356.893h270.037v35.135h-270.037z" fill="#ce9875"/><path d="m156.734 162.609-87.38 23.413c-9.511 2.549-15.503 12.496-12.777 21.958 2.644 9.176 12.163 14.581 21.426 12.099l7.842-2.101v285.265c0 .694.563 1.257 1.257 1.257h32.622c.694 0 1.257-.563 1.257-1.257v-294.679l35.753-9.58z" fill="#d8aa8b"/><path d="m355.266 162.609 87.38 23.413c9.511 2.549 15.503 12.496 12.777 21.958-2.644 9.176-12.163 14.581-21.426 12.099l-7.842-2.101v285.265c0 .694-.563 1.257-1.257 1.257h-32.622c-.694 0-1.257-.563-1.257-1.257v-294.679l-35.753-9.58z" fill="#d8aa8b"/><path d="m192.321 392.028h-35.135v111.215c0 .694.563 1.257 1.257 1.257h32.622c.694 0 1.257-.563 1.257-1.257v-111.215z" fill="#c6865c"/><path d="m319.678 392.028h35.135v111.215c0 .694-.563 1.257-1.257 1.257h-32.622c-.694 0-1.257-.563-1.257-1.257v-111.215z" fill="#c6865c"/><path d="m326.612 91.031c4.143 0 7.5-3.357 7.5-7.5s-3.357-7.5-7.5-7.5h-141.225c-4.143 0-7.5 3.357-7.5 7.5s3.357 7.5 7.5 7.5z"/><path d="m156.734 144.401c-4.143 0-7.5 3.357-7.5 7.5v4.953l-81.82 21.924c-13.319 3.567-21.999 17.551-18.044 31.278 3.602 12.503 16.369 20.139 28.976 17.64v275.547c0 4.828 3.929 8.757 8.757 8.757h32.622c4.828 0 8.757-3.929 8.757-8.757v-50.711c0-4.143-3.357-7.5-7.5-7.5s-7.5 3.357-7.5 7.5v44.468h-20.137v-279.021c0-4.922-4.672-8.518-9.44-7.245l-7.844 2.102c-5.262 1.405-10.77-1.699-12.277-6.932-1.578-5.477 2.114-11.19 7.512-12.637l77.938-20.883v20.845l-30.194 8.091c-3.278.878-5.559 3.85-5.559 7.244v208.969c0 4.143 3.357 7.5 7.5 7.5s7.5-3.357 7.5-7.5v-18.004h21.204v103.715c0 4.828 3.929 8.757 8.757 8.757h32.622c4.828 0 8.757-3.929 8.757-8.757v-103.716h112.357v103.715c0 4.828 3.929 8.757 8.757 8.757h32.622c4.828 0 8.757-3.929 8.757-8.757v-103.715h21.204v103.715c0 4.828 3.929 8.757 8.757 8.757h32.622c4.828 0 8.757-3.929 8.757-8.757v-275.547c12.609 2.507 25.374-5.136 28.976-17.639 3.96-13.746-4.74-27.716-18.043-31.279l-81.821-21.924v-66.005c0-2.52 1.352-4.825 3.617-6.17 13.762-8.169 22.311-23.175 22.311-39.163-.001-25.098-20.419-45.516-45.517-45.516h-174.355c-25.098 0-45.516 20.418-45.516 45.516 0 15.988 8.549 30.994 22.312 39.164 2.265 1.344 3.616 3.649 3.616 6.169v26.053c0 4.143 3.357 7.5 7.5 7.5s7.5-3.357 7.5-7.5v-26.053c0-7.751-4.2-15.058-10.961-19.068-9.231-5.48-14.967-15.544-14.967-26.265 0-16.826 13.689-30.516 30.516-30.516h174.355c16.826 0 30.516 13.689 30.516 30.516 0 10.721-5.735 20.784-14.966 26.264-6.762 4.012-10.962 11.318-10.962 19.069v170.779h-183.531c0-9.271 0-96.92 0-109.727 0-4.142-3.357-7.5-7.5-7.5zm-7.5 64.356v54.601c-7.899 2.171-15 6.289-20.753 11.804v-60.844zm35.587 288.243h-20.136v-97.472h20.136zm162.493 0h-20.136v-97.472h20.136zm-218.833-112.472v-20.136h198.046c4.143 0 7.5-3.357 7.5-7.5s-3.357-7.5-7.5-7.5h-198.046v-39.136c0-18.543 15.086-33.629 33.629-33.629h187.779c18.543 0 33.629 15.086 33.629 33.629v39.136h-21.991c-4.143 0-7.5 3.357-7.5 7.5s3.357 7.5 7.5 7.5h21.991v20.136zm234.284-175.771 20.753 5.561v60.844c-5.753-5.515-12.854-9.633-20.753-11.804zm77.94-15.49c5.461 1.464 9.072 7.218 7.511 12.638-1.508 5.23-7.015 8.341-12.278 6.93l-7.843-2.101c-4.758-1.269-9.44 2.31-9.44 7.245v279.021h-20.136v-288.437c0-3.395-2.28-6.366-5.559-7.244l-30.194-8.091v-20.845z"/></g></svg>