<svg id="Capa_1" enable-background="new 0 0 512 512" height="512" viewBox="0 0 512 512" width="512" xmlns="http://www.w3.org/2000/svg"><g><path d="m62.868 97.59c-15.583 4.176-24.831 20.193-20.656 35.777l14.857 55.449c4.176 15.583 20.193 24.831 35.777 20.656 15.583-4.176 24.831-20.193 20.656-35.777l-14.857-55.449c-4.176-15.583-20.194-24.831-35.777-20.656z" fill="#d3effb"/><path d="m113.502 173.695-14.857-55.449c-3.497-13.051-15.301-21.658-28.199-21.658 1.028 1.929 1.854 4.004 2.444 6.205l14.857 55.449c4.176 15.583-5.072 31.601-20.656 35.777-2.532.678-5.075 1.002-7.578 1.002 6.248 11.723 19.951 18.036 33.332 14.45 15.585-4.175 24.833-20.193 20.657-35.776z" fill="#b1e4f9"/><path d="m164.113 210.474h-95.546c-15.109 0-27.357 12.248-27.357 27.357l-11.046 75.938 106.592-13.335s12.248-89.96 27.357-89.96z" fill="#d3effb"/><path d="m41.21 279.831-9.416 29.048h125.395l-20.433-29.048z" fill="#b1e4f9"/><path d="m470.79 237.831c0-15.109-12.248-27.357-27.357-27.357h-238.453-27.357l-22.254 112.214 315.422-22.254v-62.603z" fill="#365e7d"/><path d="m443.433 210.474h-14.69c.549 2.16.84 4.423.84 6.754v9.733c0 29.199-23.67 52.869-52.869 52.869h-199.091l-22.254 42.858 315.422-22.254v-62.603c-.001-15.109-12.249-27.357-27.358-27.357z" fill="#2b4d66"/><path d="m177.623 300.434v-62.603c0-15.109 12.248-27.357 27.357-27.357h-40.867c-15.109 0-27.357 12.248-27.357 27.357v62.603z" fill="#407093"/><path d="m136.756 279.831v33.938l40.867-13.335v-20.603z" fill="#365e7d"/><path d="m28.647 300.434h454.706v63.617h-454.706z" fill="#ce9875"/><g fill="#d8aa8b"><path d="m5.366 448.386h30.479c2.963 0 5.366-2.402 5.366-5.366v-351.032c0-15.67-12.703-28.374-28.374-28.374h-7.47c-2.965 0-5.367 2.402-5.367 5.366v374.04c0 2.964 2.402 5.366 5.366 5.366z"/><path d="m476.156 448.386h30.479c2.963 0 5.366-2.402 5.366-5.366v-181.654c0-2.963-2.402-5.366-5.366-5.366h-7.47c-15.67 0-28.374 12.703-28.374 28.374v158.646c-.001 2.964 2.402 5.366 5.365 5.366z"/></g></g></svg>