<svg id="Capa_1" enable-background="new 0 0 512 512" height="512" viewBox="0 0 512 512" width="512" xmlns="http://www.w3.org/2000/svg"><g><path d="m12.708 442.75h29.586c2.876 0 5.208-2.332 5.208-5.208v-340.749c0-15.211-12.331-27.542-27.542-27.542h-7.252c-2.876 0-5.208 2.332-5.208 5.208v363.082c0 2.877 2.332 5.209 5.208 5.209z" fill="#d8aa8b"/><path d="m179.919 299.132v-60.769c0-14.666 11.89-26.556 26.556-26.556h-39.67c-14.666 0-26.556 11.89-26.556 26.556v60.769z" fill="#407093"/><path d="m464.498 238.364c0-14.666-11.89-26.556-26.556-26.556h-231.467c-14.666 0-26.556 11.89-26.556 26.556v60.769h284.579z" fill="#365e7d"/><path d="m68.526 102.231c-15.127 4.053-24.104 19.602-20.051 34.729l14.422 53.824c4.053 15.127 19.602 24.104 34.729 20.051 15.127-4.053 24.104-19.602 20.051-34.729l-14.422-53.824c-4.053-15.127-19.602-24.104-34.729-20.051z" fill="#d3effb"/><path d="m117.677 176.106-14.422-53.824c-3.395-12.669-14.853-21.024-27.373-21.023.998 1.872 1.8 3.886 2.373 6.023l14.422 53.824c4.053 15.127-4.924 30.675-20.051 34.729-2.458.659-4.927.973-7.356.973 6.065 11.38 19.366 17.508 32.356 14.027 15.127-4.054 24.104-19.602 20.051-34.729z" fill="#b1e4f9"/><path d="m166.805 211.808h-92.747c-14.666 0-26.556 11.89-26.556 26.556v60.769h92.747v-60.769c0-14.667 11.89-26.556 26.556-26.556z" fill="#d3effb"/><path d="m140.249 279.132h39.67v20h-39.67z" fill="#365e7d"/><path d="m47.502 279.132h92.747v20h-92.747z" fill="#b1e4f9"/><path d="m437.942 211.808h-14.26c.532 2.097.816 4.293.816 6.556v9.448c0 28.344-22.977 51.32-51.32 51.32h-193.259v20h284.579v-60.769c0-14.666-11.89-26.555-26.556-26.555z" fill="#2b4d66"/><path d="m47.502 299.132h416.995v61.754h-416.995z" fill="#ce9875"/><path d="m469.706 442.75h29.586c2.877 0 5.208-2.332 5.208-5.208v-176.334c0-2.876-2.332-5.208-5.208-5.208h-7.252c-15.211 0-27.542 12.331-27.542 27.542v153.999c0 2.877 2.331 5.209 5.208 5.209z" fill="#d8aa8b"/><path d="m499.292 248.5h-7.251c-7.447 0-14.359 2.336-20.042 6.313v-16.449c0-18.779-15.277-34.056-34.056-34.056h-63.053c-4.142 0-7.5 3.358-7.5 7.5s3.358 7.5 7.5 7.5h63.052c10.507 0 19.056 8.548 19.056 19.056v53.269h-269.579v-53.269c0-10.508 8.548-19.056 19.056-19.056h133.415c4.142 0 7.5-3.358 7.5-7.5s-3.358-7.5-7.5-7.5h-220.46c6.021-8.427 8.375-19.38 5.492-30.143-1.072-4.001-5.187-6.375-9.186-5.304-4.001 1.072-6.375 5.185-5.304 9.186 2.977 11.108-3.639 22.567-14.747 25.543-11.114 2.979-22.567-3.64-25.543-14.747l-14.422-53.824c-2.977-11.108 3.639-22.567 14.748-25.543 11.134-2.982 22.56 3.612 25.542 14.747l5.289 19.739c1.072 4.001 5.188 6.375 9.186 5.304 4.001-1.072 6.375-5.185 5.304-9.186l-5.289-19.739c-5.129-19.14-24.769-30.484-43.914-25.354-4.223 1.132-8.129 2.983-11.583 5.45v-3.644c0-19.322-15.72-35.042-35.042-35.042h-7.251c-7.009-.001-12.71 5.701-12.71 12.708v363.082c0 7.007 5.701 12.708 12.708 12.708h29.585c7.007 0 12.708-5.701 12.708-12.708v-69.155h8.492c4.142 0 7.5-3.358 7.5-7.5s-3.358-7.5-7.5-7.5h-8.492v-46.754h401.995v46.754h-358.501c-4.142 0-7.5 3.358-7.5 7.5s3.358 7.5 7.5 7.5h358.503v69.155c0 7.007 5.701 12.708 12.708 12.708h29.585c7.007 0 12.708-5.701 12.708-12.708v-176.333c.001-7.007-5.7-12.708-12.707-12.708zm-332.487-29.192h11.457c-3.687 5.442-5.843 12.002-5.843 19.056v53.269h-24.669v-53.269c0-10.508 8.548-19.056 19.055-19.056zm-111.152-26.582c1.375 5.131 3.803 9.705 6.988 13.551-2.722.971-5.285 2.28-7.639 3.875v-19.854zm-15.651 242.524h-25.002v-358.5h4.96c11.051 0 20.042 8.991 20.042 20.042zm15-196.886c0-10.508 8.548-19.056 19.056-19.056h64.535c-3.688 5.442-5.843 12.001-5.843 19.056v53.269h-77.748zm441.998 196.886h-25.002v-151.708c0-11.051 8.991-20.042 20.042-20.042h4.96z"/></g></svg>