<svg id="Capa_1" enable-background="new 0 0 512 512" height="512" viewBox="0 0 512 512" width="512" xmlns="http://www.w3.org/2000/svg"><g><path d="m80.769 313.563-3 3c-16.586 16.586-38.411 26.905-61.754 29.199l-15.045 1.478c-1.358.133-1.259 2.144.105 2.144 12.572 22.653 27.175 43.98 43.574 63.747.315.38.809.57 1.297.498 11.41-1.682 22.562-4.619 33.253-8.715 1.13-.433 2.221.694 1.788 1.824-4.357 11.377-7.401 23.277-9.017 35.453-.058.44.095.885.41 1.198 26.83 26.52 57.272 49.395 90.579 67.88.783.783 2.125.303 2.233-.799l1.39-14.142c2.293-23.343 12.613-45.168 29.198-61.753l3-3z" fill="#407093"/><path d="m80.769 313.563-3 3c-2.397 2.397-4.904 4.663-7.509 6.793l60.546 60.546c14.005 14.006 17.054 35.6 7.419 52.906-5.64 10.131-10.678 23.226-12.249 39.217l-1.112 11.32c12.22 8.629 24.934 16.62 38.095 23.924.783.783 2.125.303 2.233-.799l1.389-14.142c2.293-23.343 12.613-45.168 29.198-61.753l3-3-40.607-76.497z" fill="#365e7d"/><path d="m154.074 438.624c-3.73-1.94-8.327-.49-10.268 3.239-7.911 15.201-12.9 31.441-14.854 48.331 4.752 3.271 9.576 6.447 14.471 9.524.951-17.836 5.634-34.962 13.89-50.826 1.941-3.73.491-8.327-3.239-10.268z" fill="#2b4d66"/><path d="m206.305 283.526c-33.025-22.488-78.4-19.087-107.689 10.202l-18.106 18.106c-.406.406-.406 1.064 0 1.469l118.531 118.531c.406.406 1.064.406 1.469 0l18.106-18.106c29.29-29.289 32.69-74.664 10.202-107.689z" fill="#90d8f9"/><path d="m187.884 301.946c-22.675-12.807-52.031-9.565-71.323 9.727-.495.495-.495 1.296 0 1.791l82.319 82.319c.495.494 1.296.494 1.791 0 19.292-19.292 22.534-48.648 9.727-71.323z" fill="#75cef9"/><path d="m22.149 383.392c12.483-1.449 24.716-4.587 36.423-9.347 3.895-1.584 5.769-6.025 4.185-9.921-1.585-3.895-6.026-5.768-9.921-4.185-12.85 5.225-26.406 8.255-40.21 8.982 3.077 4.894 6.252 9.719 9.523 14.471z" fill="#365e7d"/><path d="m333.21.526h28.471v328.745h-28.471z" fill="#78c2a4" transform="matrix(.707 .707 -.707 .707 218.365 -197.384)"/><g fill="#ffd064"><path d="m182.187 178.564 9.723-17.777c1.063-1.944 3.856-1.944 4.919 0l9.723 17.777c.257.47.644.857 1.114 1.114l17.777 9.723c1.944 1.063 1.944 3.856 0 4.919l-17.777 9.723c-.47.257-.857.644-1.114 1.114l-9.723 17.777c-1.063 1.944-3.856 1.944-4.919 0l-9.723-17.777c-.257-.47-.644-.857-1.114-1.114l-17.777-9.723c-1.944-1.063-1.944-3.856 0-4.919l17.777-9.723c.47-.257.857-.644 1.114-1.114z"/><path d="m312.584 343.952 12.792-23.39c1.399-2.558 5.073-2.558 6.472 0l12.792 23.39c.338.619.847 1.128 1.466 1.466l23.39 12.792c2.558 1.399 2.558 5.073 0 6.472l-23.39 12.792c-.619.338-1.128.847-1.466 1.466l-12.792 23.39c-1.399 2.558-5.073 2.558-6.472 0l-12.792-23.39c-.338-.619-.847-1.128-1.466-1.466l-23.39-12.792c-2.558-1.399-2.558-5.073 0-6.472l23.39-12.792c.619-.338 1.128-.847 1.466-1.466z"/><path d="m104.077 147.653 8.537-15.609c.934-1.707 3.385-1.707 4.319 0l8.537 15.609c.226.413.565.753.978.978l15.609 8.537c1.707.934 1.707 3.385 0 4.319l-15.609 8.537c-.413.226-.753.565-.978.978l-8.537 15.609c-.934 1.707-3.385 1.707-4.319 0l-8.537-15.609c-.226-.413-.565-.753-.978-.978l-15.609-8.537c-1.707-.934-1.707-3.385 0-4.319l15.609-8.537c.412-.225.752-.565.978-.978z"/></g><path d="m487.911 32.046c-1.948 0-3.897-.743-5.383-2.23-2.974-2.974-2.974-7.794 0-10.767l16.475-16.475c2.973-2.973 7.794-2.974 10.767 0 2.974 2.974 2.974 7.794 0 10.767l-16.475 16.475c-1.487 1.487-3.436 2.23-5.384 2.23z" fill="#75cef9"/><path d="m496.839 31.331-15.826-15.826c-1.847-1.847-4.841-1.847-6.688 0l-25.765 25.765c-.658.658-.658 1.724 0 2.381l20.132 20.132c.658.658 1.724.658 2.381 0l25.765-25.765c1.848-1.846 1.848-4.841.001-6.687z" fill="#90d8f9"/><path d="m175.665 336.679c-6.217-6.217-6.217-16.297 0-22.514l48.152-48.152c.658-.658 1.724-.658 2.381 0l20.132 20.132c.658.658.658 1.724 0 2.381l-48.152 48.152c-6.216 6.218-16.295 6.218-22.513.001z" fill="#b1e4f9"/></g></svg>