<svg id="Capa_1" enable-background="new 0 0 512.868 512.868" height="512" viewBox="0 0 512.868 512.868" width="512" xmlns="http://www.w3.org/2000/svg"><g><path d="m202.725 332.663c-6.124 6.124-16.054 6.124-22.178 0s-6.124-16.054 0-22.178l30.182-30.182c-32.533-22.153-77.231-18.803-106.084 10.05l-17.835 17.836c-.4.4-.4 1.048 0 1.448l116.764 116.763c.4.4 1.048.4 1.448 0l17.836-17.836c28.853-28.853 32.203-73.551 10.05-106.084z" fill="#90d8f9"/><path d="m87.066 309.892-2.955 2.955c-16.338 16.338-37.838 26.504-60.834 28.763l-14.821 1.456c-1.338.131-1.241 2.112.104 2.112 12.384 22.315 26.77 43.324 42.924 62.797.311.374.797.562 1.278.491 11.24-1.657 22.226-4.55 32.758-8.585 1.114-.427 2.188.684 1.761 1.797-4.292 11.208-7.29 22.93-8.883 34.924-.058.434.093.872.404 1.18 26.43 26.124 56.418 48.659 89.228 66.868.772.772 2.093.299 2.2-.787l1.369-13.932c2.259-22.995 12.425-44.494 28.763-60.832l2.956-2.955z" fill="#407093"/><path d="m87.066 309.892-2.955 2.956c-2.362 2.361-4.831 4.594-7.397 6.692l59.644 59.643c13.797 13.797 16.8 35.07 7.309 52.117-5.556 9.98-10.518 22.88-12.066 38.632l-1.096 11.151c12.038 8.501 24.562 16.372 37.527 23.568.772.772 2.093.299 2.2-.787l1.369-13.931c2.259-22.995 12.425-44.494 28.763-60.833l2.956-2.955z" fill="#365e7d"/><path d="m180.547 332.663c-6.124-6.124-6.124-16.054 0-22.178l47.434-47.434c.648-.648 1.698-.648 2.346 0l19.832 19.832c.648.648.648 1.698 0 2.346l-47.434 47.434c-6.124 6.124-16.054 6.124-22.178 0z" fill="#b1e4f9"/><path d="m496.933 31.867-15.59-15.59c-1.819-1.819-4.769-1.819-6.589 0l-25.381 25.381c-.648.648-.648 1.698 0 2.346l19.832 19.832c.648.648 1.698.648 2.346 0l25.381-25.381c1.82-1.819 1.82-4.769.001-6.588z" fill="#90d8f9"/><path d="m335.743 8.554h28.047v309.778h-28.047z" fill="#78c2a4" transform="matrix(.707 .707 -.707 .707 218.016 -199.451)"/><path d="m202.725 332.663c-6.124 6.124-16.054 6.124-22.178 0s-6.124-16.054 0-22.178l12.036-12.036c-22.337-12.616-51.256-9.422-70.26 9.582-.487.487-.487 1.277 0 1.764l81.092 81.092c.487.487 1.277.487 1.764 0 19.004-19.004 22.198-47.923 9.582-70.26z" fill="#75cef9"/><g fill="#ffd064"><path d="m186.971 176.905 9.578-17.512c1.047-1.915 3.798-1.915 4.846 0l9.578 17.512c.253.463.634.844 1.098 1.098l17.512 9.578c1.915 1.047 1.915 3.798 0 4.846l-17.512 9.578c-.463.253-.844.634-1.098 1.098l-9.578 17.512c-1.047 1.915-3.798 1.915-4.846 0l-9.578-17.512c-.253-.463-.634-.844-1.098-1.098l-17.512-9.578c-1.915-1.047-1.915-3.798 0-4.846l17.512-9.578c.464-.254.845-.635 1.098-1.098z"/><path d="m315.424 339.828 12.602-23.041c1.378-2.52 4.997-2.52 6.375 0l12.602 23.041c.333.61.835 1.111 1.444 1.444l23.041 12.602c2.52 1.378 2.52 4.997 0 6.375l-23.041 12.602c-.61.333-1.111.835-1.444 1.444l-12.602 23.041c-1.378 2.52-4.997 2.52-6.375 0l-12.602-23.041c-.333-.61-.835-1.111-1.444-1.444l-23.041-12.602c-2.52-1.378-2.52-4.997 0-6.375l23.041-12.602c.61-.333 1.111-.835 1.444-1.444z"/><path d="m110.026 146.455 8.41-15.377c.92-1.682 3.335-1.682 4.255 0l8.41 15.377c.223.407.557.741.964.964l15.377 8.41c1.682.92 1.682 3.335 0 4.255l-15.377 8.41c-.407.223-.741.557-.964.964l-8.41 15.377c-.92 1.682-3.335 1.682-4.255 0l-8.41-15.377c-.223-.407-.557-.741-.964-.964l-15.377-8.41c-1.682-.92-1.682-3.335 0-4.255l15.377-8.41c.407-.222.741-.557.964-.964z"/></g><path d="m500.064 2.54-10.926 10.926-2.492-2.491c-4.74-4.741-12.454-4.741-17.195 0l-25.381 25.381c-1.351 1.351-2.228 3.049-2.547 4.893l-141.819 141.818c-2.929 2.929-2.929 7.678 0 10.606 2.929 2.929 7.678 2.929 10.606 0l139.064-139.062 9.226 9.226-208.44 208.44-9.226-9.226 44.32-44.321c2.929-2.929 2.929-7.678 0-10.606-2.929-2.929-7.678-2.929-10.606 0l-47.077 47.076c-1.844.319-3.542 1.196-4.893 2.547l-13.015 13.015c-35.426-20.723-80.898-15.136-110.321 14.287l-17.832 17.833c-1.191 1.19-1.986 2.669-2.32 4.28-16.122 16.122-36.209 24.977-56.646 26.985l-14.824 1.456c-4.547.448-7.933 4.375-7.709 8.938.121 2.46 1.268 4.633 3.015 6.113 4.741 8.441 9.788 16.732 15.117 24.841.101.167.208.33.321.488 8.409 12.754 17.519 25.056 27.245 36.78 1.97 2.376 5.088 3.572 8.146 3.124 7.548-1.113 15.034-2.768 22.37-4.94-2.394 8.08-4.156 16.337-5.262 24.669-.365 2.747.594 5.55 2.566 7.501 19.527 19.3 40.893 36.608 63.777 51.686.106.073.213.145.323.213 8.549 5.621 17.309 10.932 26.264 15.918 1.49 1.042 3.268 1.593 5.068 1.592 4.592 0 8.3-3.538 8.732-7.928l1.369-13.932c2.005-20.406 10.842-40.501 26.985-56.645 1.61-.334 3.089-1.129 4.276-2.317l17.836-17.836c29.424-29.423 35.01-74.895 14.287-110.321l13.013-13.013c1.352-1.351 2.229-3.05 2.549-4.895l213.961-213.96c1.791-.313 3.506-1.159 4.886-2.54l25.381-25.381c4.741-4.741 4.741-12.455 0-17.195l-2.492-2.492 10.926-10.926c2.929-2.929 2.929-7.677 0-10.606-2.928-2.929-7.677-2.928-10.606.001zm-270.91 269.944 11.572 11.571c-3.483 3.483-34.509 34.51-43.304 43.304-3.197 3.197-8.374 3.199-11.571 0-3.19-3.19-3.19-8.381 0-11.572 43.235-43.235-45.176 45.176 43.303-43.303zm-11.6 130.777-13.256 13.256-64.873-64.873c-2.929-2.929-7.678-2.929-10.606 0-2.929 2.929-2.929 7.678 0 10.606l63.93 63.931c-16.173 17.214-26.299 39.463-28.613 63.017l-.428 4.356c-4.791-2.803-9.521-5.705-14.187-8.701 1.775-14.545 6.122-28.536 12.947-41.65 1.913-3.674.484-8.203-3.19-10.115-3.675-1.911-8.203-.483-10.115 3.19-6.491 12.471-10.984 25.653-13.417 39.323-17.544-12.316-34.093-26.026-49.482-41.007 1.586-10.306 4.28-20.461 8.021-30.232 1.255-3.277.464-6.997-2.016-9.477-2.47-2.47-6.173-3.257-9.432-2.008-8.989 3.444-18.32 6.006-27.784 7.629-6.08-7.46-11.902-15.154-17.443-23.049 9.423-1.684 18.662-4.357 27.589-7.987 3.837-1.561 5.683-5.936 4.123-9.773-1.561-3.837-5.936-5.682-9.773-4.123-10.034 4.08-20.505 6.802-31.189 8.111-3-4.67-5.902-9.401-8.703-14.186l4.354-.428c23.554-2.314 45.804-12.44 63.019-28.613l16.619 16.619c2.928 2.929 7.677 2.929 10.606 0s2.929-7.677 0-10.606l-17.562-17.562 13.256-13.256c23.628-23.629 59.641-28.859 88.675-13.854l-7.5 7.5c-24.827-11.275-54.565-6.114-74.103 13.425-3.411 3.411-3.411 8.96 0 12.371l81.092 81.092c3.423 3.423 8.96 3.414 12.371 0 4.345-4.345 8.051-9.25 11.016-14.579 2.014-3.62.711-8.187-2.908-10.2-3.621-2.013-8.187-.711-10.2 2.908-1.278 2.298-2.737 4.496-4.362 6.574l-71.707-71.707c13.396-10.439 31.205-13.489 47.227-8.308l-4.304 4.304c-4.379 4.378-6.79 10.2-6.79 16.392 0 12.813 10.368 23.183 23.182 23.183 6.192 0 12.014-2.411 16.393-6.79l4.306-4.306c1.054 3.26 1.777 6.633 2.162 10.096.426 3.835 3.674 6.672 7.445 6.672 4.465 0 7.959-3.871 7.463-8.329-.777-6.989-2.62-13.698-5.494-20.015l7.498-7.498c15.001 29.036 9.771 65.049-13.857 88.677zm252.825-348.858-11.572-11.572 19.242-19.241 11.572 11.571z"/><path d="m216.887 172.089-8.913-16.295c-1.8-3.292-5.25-5.338-9.002-5.338-3.753 0-7.203 2.045-9.003 5.337l-8.913 16.295-16.294 8.912c-3.292 1.8-5.337 5.25-5.338 9.002 0 3.752 2.044 7.202 5.338 9.004l16.294 8.912 8.912 16.294c1.8 3.293 5.25 5.338 9.003 5.338 3.752 0 7.203-2.045 9.002-5.337l8.912-16.295 16.296-8.912c3.292-1.801 5.336-5.251 5.336-9.003s-2.046-7.202-5.338-9.002zm-8.416 23.335c-1.725.943-3.136 2.354-4.079 4.079l-5.42 9.911-5.421-9.911c-.943-1.725-2.354-3.136-4.079-4.079l-9.911-5.42 9.911-5.42c3.104-1.698 4.079-4.241 4.079-4.079l5.421-9.911 5.42 9.911c.943 1.726 2.354 3.136 4.079 4.08l9.911 5.42z"/><path d="m309.388 378.887 12.058 22.047c1.954 3.573 5.696 5.792 9.768 5.792s7.814-2.219 9.768-5.791l12.059-22.048 22.048-12.059c3.571-1.954 5.79-5.696 5.79-9.768 0-4.071-2.219-7.813-5.791-9.768l-22.047-12.058-12.059-22.047c-1.954-3.573-5.696-5.792-9.768-5.792s-7.814 2.219-9.768 5.792l-12.058 22.047-22.048 12.058c-3.572 1.954-5.791 5.697-5.791 9.768s2.219 7.814 5.792 9.768zm8.193-31.036c1.871-1.024 3.401-2.554 4.424-4.425l9.209-16.838 9.207 16.833c1.022 1.873 2.553 3.404 4.428 4.43l16.838 9.209-16.84 9.21c-1.873 1.025-3.403 2.557-4.423 4.424l-9.209 16.838-9.208-16.838c-1.023-1.871-2.553-3.401-4.426-4.426l-16.838-9.209z"/><path d="m136.966 141.553-7.696-14.072c-1.741-3.184-5.077-5.163-8.707-5.163-3.626 0-6.965 1.975-8.708 5.163l-7.696 14.072-14.072 7.696c-3.185 1.741-5.163 5.078-5.163 8.708s1.979 6.967 5.163 8.708l14.072 7.696 7.697 14.073c1.742 3.184 5.079 5.162 8.708 5.162s6.965-1.979 8.706-5.163l7.696-14.072 14.072-7.696c3.185-1.741 5.163-5.078 5.163-8.708 0-3.629-1.979-6.966-5.163-8.707zm-8.504 20.362c-1.666.912-3.029 2.275-3.942 3.944l-3.957 7.234-3.958-7.237c-.912-1.666-2.275-3.029-3.944-3.942l-7.234-3.957 7.237-3.958c1.666-.912 3.029-2.275 3.941-3.941.309-.618-1.338 2.445 3.958-7.237l3.958 7.237c.912 1.666 2.275 3.029 3.944 3.942l7.234 3.957z"/></g></svg>