<svg id="Capa_1" enable-background="new 0 0 512 512" height="512" viewBox="0 0 512 512" width="512" xmlns="http://www.w3.org/2000/svg"><g><path d="m91.994 512h-32.784c-2.126 0-3.849-1.723-3.849-3.849v-48.136h40.481v48.136c0 2.126-1.723 3.849-3.848 3.849z" fill="#d8aa8b"/><path d="m478.08 512h-32.784c-2.126 0-3.849-1.723-3.849-3.849v-48.136h40.481v48.136c.001 2.126-1.722 3.849-3.848 3.849z" fill="#d8aa8b"/><path d="m183.382 512h-32.784c-2.126 0-3.849-1.723-3.849-3.849v-48.136h40.481v48.136c.001 2.126-1.722 3.849-3.848 3.849z" fill="#ce9875"/><path d="m353.907 512h32.784c2.126 0 3.849-1.723 3.849-3.849v-48.136h-40.481v48.136c0 2.126 1.723 3.849 3.848 3.849z" fill="#ce9875"/><path d="m65.847 21.616h219.382v431.697h-219.382z" fill="#407093"/><path d="m227.438 43.232v304.781c0 56.168-45.533 101.701-101.701 101.701h-43.307v20.604h186.215v-427.086z" fill="#365e7d"/><path d="m268.645 77.24h-186.215l-6.259-47.416 192.474 13.408z" fill="#c6865c"/><path d="m227.438 43.232v34.008h47.615l-6.408-34.008z" fill="#c17d4f"/><path d="m268.645 208.265h-186.215l-6.259-34.008h192.474z" fill="#c6865c"/><path d="m227.438 208.265h51.962l-10.755-34.008h-41.207z" fill="#c17d4f"/><path d="m268.645 339.291h-186.215l-11.693-34.008h197.908z" fill="#c6865c"/><path d="m227.438 339.291h51.962l-10.755-34.008h-41.207z" fill="#c17d4f"/><path d="m268.645 470.317h-186.215l-6.828-34.008h193.043z" fill="#c6865c"/><path d="m125.737 449.713h-43.307v20.604h186.215l10.755-34.008h-103.163c-14.879 8.528-32.12 13.404-50.5 13.404z" fill="#c17d4f"/><path d="m481.929 470.317h-213.284v-448.701l219.382 21.616v420.987c0 3.367-2.73 6.098-6.098 6.098z" fill="#ffc250"/><path d="m446.819 29.824v318.188c0 56.168-45.533 101.701-101.701 101.701h-76.474v20.604h213.284c3.368 0 6.098-2.73 6.098-6.098v-420.987z" fill="#ebb044"/><circle cx="326.511" cy="251.623" fill="#f6f9f9" r="24.167"/><path d="m49.263 232.035c-3.979-2.881-8.869-4.579-14.156-4.579-13.347 0-24.167 10.82-24.167 24.167s10.82 24.167 24.167 24.167c5.287 0 10.178-1.698 14.156-4.579l12.1-19.588z" fill="#e7ecf1"/><path d="m55.361 470.317h27.069v-440.493l-33.167 13.408v420.987c0 3.367 2.73 6.098 6.098 6.098z" fill="#ffc250"/><path d="m488.027 43.232h-438.764c-7.198 0-13.033-5.835-13.033-13.033v-17.166c0-7.198 5.835-13.033 13.033-13.033h438.763c7.198 0 13.033 5.835 13.033 13.033v17.165c.001 7.198-5.834 13.034-13.032 13.034z" fill="#d8aa8b"/></g></svg>