<?xml version="1.0" encoding="UTF-8" standalone="no"?>
<svg
   id="Capa_1"
   enable-background="new 0 0 512.387 512.387"
   height="512"
   viewBox="0 0 512.387 512.387"
   width="512"
   version="1.1"
   sodipodi:docname="cutlery-color.svg"
   inkscape:version="1.1.2 (0a00cf5339, 2022-02-04)"
   xmlns:inkscape="http://www.inkscape.org/namespaces/inkscape"
   xmlns:sodipodi="http://sodipodi.sourceforge.net/DTD/sodipodi-0.dtd"
   xmlns="http://www.w3.org/2000/svg"
   xmlns:svg="http://www.w3.org/2000/svg">
  <defs
     id="defs49" />
  <sodipodi:namedview
     id="namedview47"
     pagecolor="#ffffff"
     bordercolor="#666666"
     borderopacity="1.0"
     inkscape:pageshadow="2"
     inkscape:pageopacity="0.0"
     inkscape:pagecheckerboard="0"
     showgrid="false"
     inkscape:zoom="1.2304688"
     inkscape:cx="255.59365"
     inkscape:cy="255.59365"
     inkscape:window-width="1920"
     inkscape:window-height="1012"
     inkscape:window-x="0"
     inkscape:window-y="0"
     inkscape:window-maximized="1"
     inkscape:current-layer="Capa_1" />
  <g
     id="g44"
     transform="matrix(1.0309106,0,0,1.0309106,-7.9190859,-7.9194743)">
    <g
       id="g34">
      <path
         d="m 477.494,355.19 c -1.942,-35.403 -3.296,-70.835 -4.039,-106.282 V 8.067 c -63.297,-10.663 -63.793,218.278 -63.535,251.356 0.017,2.196 1.801,3.959 3.997,3.959 h 13.592 c -0.785,30.618 -2.022,61.224 -3.699,91.808 z"
         fill="#c5d3dd"
         id="path2" />
      <path
         d="M 473.456,248.908 V 8.067 c -11.339,-1.91 -20.661,3.876 -28.326,14.841 v 226 c 0.742,35.447 2.097,70.879 4.039,106.282 h 28.326 c -1.942,-35.403 -3.297,-70.835 -4.039,-106.282 z"
         fill="#b6c4cf"
         id="path4" />
      <path
         d="m 126.254,355.19 c -1.942,-35.404 -3.297,-70.838 -4.038,-106.287 V 149.022 H 76.608 v 99.881 c -0.742,35.449 -2.097,70.883 -4.038,106.287 z"
         fill="#c5d3dd"
         id="path6" />
      <path
         d="m 64.963,467.702 c -1.432,19.994 14.403,37.004 34.448,37.004 20.045,0 35.88,-17.01 34.448,-37.004 -4.56,-63.666 -6.814,-92.151 -9.043,-140.839 h -50.81 c -2.23,48.724 -4.49,77.278 -9.043,140.839 z"
         fill="#596c76"
         id="path8" />
      <path
         d="m 133.86,467.702 c -4.56,-63.666 -6.814,-92.151 -9.043,-140.839 H 96.492 c 2.236,48.838 4.508,77.528 9.043,140.839 1.071,14.948 -7.511,28.224 -20.286,33.975 4.313,1.942 9.103,3.028 14.163,3.028 20.045,0.001 35.88,-17.008 34.448,-37.003 z"
         fill="#465a61"
         id="path10" />
      <path
         d="m 307.539,355.19 c -1.942,-35.404 -3.297,-70.838 -4.039,-106.287 v -99.881 h -45.607 v 99.881 c -0.742,35.449 -2.097,70.883 -4.039,106.287 z"
         fill="#c5d3dd"
         id="path12" />
      <path
         d="m 246.249,467.702 c -1.432,19.994 14.403,37.004 34.448,37.004 20.046,0 35.88,-17.01 34.448,-37.004 -4.56,-63.666 -6.814,-92.151 -9.043,-140.839 H 255.29 c -2.234,48.839 -4.506,77.529 -9.041,140.839 z"
         fill="#596c76"
         id="path14" />
      <path
         d="m 315.146,467.702 c -4.56,-63.666 -6.814,-92.151 -9.043,-140.839 h -28.326 c 2.236,48.838 4.508,77.528 9.043,140.839 1.07,14.948 -7.511,28.224 -20.286,33.975 4.313,1.942 9.103,3.028 14.163,3.028 20.046,0.001 35.881,-17.008 34.449,-37.003 z"
         fill="#465a61"
         id="path16" />
      <path
         d="m 416.204,467.702 c -1.432,19.994 14.403,37.004 34.448,37.004 20.046,0 35.881,-17.01 34.449,-37.004 -4.56,-63.666 -6.814,-92.151 -9.043,-140.839 h -50.812 c -2.229,48.715 -4.487,77.253 -9.042,140.839 z"
         fill="#596c76"
         id="path18" />
      <ellipse
         cx="99.412003"
         cy="100.25"
         fill="#c5d3dd"
         rx="72.216003"
         ry="92.182999"
         id="ellipse20" />
      <ellipse
         cx="99.412003"
         cy="100.25"
         fill="#b6c4cf"
         rx="47.234001"
         ry="67.200996"
         id="ellipse22" />
      <path
         d="m 99.412,33.049 c -4.909,0 -9.67,1.14 -14.163,3.226 18.938,8.792 33.071,34.533 33.071,63.975 0,29.442 -14.133,55.183 -33.071,63.975 4.493,2.086 9.254,3.226 14.163,3.226 25.603,0 47.234,-30.775 47.234,-67.201 0,-36.426 -21.631,-67.201 -47.234,-67.201 z"
         fill="#9facba"
         id="path24" />
      <path
         d="m 335.733,8.083 c -7.525,0.354 -13.313,6.836 -13.313,14.369 v 84.731 c 0,7.658 -6.208,13.866 -13.866,13.866 -7.658,0 -13.866,-6.208 -13.866,-13.866 V 22.452 c 0,-7.533 -5.789,-14.015 -13.314,-14.369 -8.034,-0.378 -14.666,6.023 -14.666,13.974 v 85.126 c 0,7.658 -6.208,13.866 -13.866,13.866 -7.658,0 -13.866,-6.208 -13.866,-13.866 V 22.057 c 0,-7.726 -6.263,-13.99 -13.99,-13.99 -7.726,0 -13.99,6.263 -13.99,13.99 v 98.992 27.973 5.687 c 0,20.835 16.89,37.724 37.724,37.724 h 63.954 c 20.835,0 37.724,-16.89 37.724,-37.724 V 149.022 121.049 22.057 C 350.399,14.106 343.766,7.705 335.733,8.083 Z"
         fill="#c5d3dd"
         id="path26" />
      <g
         id="g30">
        <path
           d="m 335.732,8.083 c -7.524,0.354 -13.313,6.836 -13.313,14.369 v 84.731 c 0,1.048 -0.126,2.064 -0.346,3.045 v 10.821 27.973 5.687 c 0,20.835 -16.89,37.724 -37.724,37.724 h 28.326 c 20.834,0 37.724,-16.89 37.724,-37.724 v -5.687 -27.973 -98.992 c 0,-7.951 -6.633,-14.352 -14.667,-13.974 z"
           fill="#b6c4cf"
           id="path28" />
      </g>
      <path
         d="m 485.101,467.702 c -4.56,-63.666 -6.814,-92.151 -9.043,-140.839 h -28.326 c 2.229,48.688 4.482,77.173 9.043,140.839 1.071,14.948 -7.511,28.224 -20.286,33.975 4.313,1.942 9.103,3.028 14.163,3.028 20.046,0.001 35.881,-17.008 34.449,-37.003 z"
         fill="#465a61"
         id="path32" />
    </g>
    <g
       id="g42" />
  </g>
</svg>
