<svg id="Capa_1" enable-background="new 0 0 512.006 512.006" height="512" viewBox="0 0 512.006 512.006" width="512" xmlns="http://www.w3.org/2000/svg"><g><path d="m90.154 246.784-.753 25h45.435l-.753-25z" fill="#ffc250"/><path d="m83.286 474.786c-.49 16.264 12.561 29.714 28.832 29.714 16.271 0 29.322-13.45 28.832-29.714l-6.115-203.002h-45.434z" fill="#407093"/><path d="m178.125 125.687v-79.714c0-7.291-5.91-13.201-13.201-13.201-7.291 0-13.201 5.91-13.201 13.201v66.076c0 7.269-5.687 13.504-12.954 13.637-7.404.135-13.449-5.826-13.449-13.199v-66.514c0-7.291-5.91-13.201-13.201-13.201-7.291 0-13.201 5.91-13.201 13.201v66.076c0 7.269-5.687 13.504-12.954 13.637-7.404.135-13.449-5.826-13.449-13.199v-66.514c0-7.291-5.91-13.201-13.201-13.201-7.291 0-13.201 5.91-13.201 13.201v79.715c0 30.367 10.349 57.331 26.352 74.286 11.901 12.608 18.212 29.481 17.69 46.811h43.928c-.522-17.33 5.789-34.203 17.69-46.811 16.003-16.956 26.352-43.92 26.352-74.287z" fill="#dae4ea"/><path d="m371.06 474.174c-.485 16.112 12.058 29.97 28.173 30.319 16.568.359 29.97-13.23 29.473-29.707l-6.115-203.002h-45.435z" fill="#407093"/><path d="m421.838 246.784c-.522-17.33 5.789-34.203 17.69-46.811 16.004-16.955 26.352-43.919 26.352-74.286 0-51.316-29.552-92.916-66.007-92.916s-66.007 41.6-66.007 92.916c0 30.367 10.349 57.331 26.352 74.286 11.901 12.608 18.212 29.481 17.69 46.811z" fill="#dae4ea"/><path d="m377.91 246.784-.753 25h45.434l-.753-25z" fill="#ffc250"/><path d="m213.373 473.194c-.516 17.135 13.234 31.306 30.377 31.306s30.893-14.171 30.377-31.306l-4.314-143.217h-54.794z" fill="#407093"/><path d="m215.019 329.977h54.794l-.753-25h-53.754z" fill="#ffc250"/><path d="m220.782 7.5c-1.15 0-2.082.932-2.082 2.082l-3.394 295.396h53.754l-.416-13.81c-.143-4.762 3.006-8.997 7.608-10.23l10.337-2.77c4.49-1.203 7.613-5.272 7.613-9.921v-187.328c-.001-40.548-32.872-73.419-73.42-73.419z" fill="#dae4ea"/><path d="m104.534 246.784c.203 6.746.46 15.268.753 25h29.548l-.753-25z" fill="#ebb044"/><path d="m134.836 271.784h-29.548c1.921 63.779 5.408 179.519 5.663 188.002.444 14.733-10.224 27.157-24.332 29.365 4.835 9.113 14.421 15.349 25.499 15.349 16.271 0 29.322-13.45 28.832-29.714z" fill="#365e7d"/><path d="m164.924 32.771c-7.291 0-13.201 5.91-13.201 13.201v66.076c0 3.797-1.552 7.312-4.071 9.823-2.194 25.749-11.87 48.26-25.879 63.102-11.901 12.608-18.212 29.481-17.69 46.811.072 2.403.23 7.647.452 15h29.548c-.522-17.33 5.789-34.203 17.69-46.811 16.004-16.955 26.352-43.919 26.352-74.285v-79.715c0-7.291-5.91-13.202-13.201-13.202z" fill="#c6d0da"/><path d="m422.591 271.784h-29.548c1.921 63.779 5.408 179.519 5.663 188.002.442 14.665-10.126 27.042-24.137 29.334 4.767 8.904 13.921 15.14 24.664 15.373 16.568.359 29.97-13.23 29.473-29.707z" fill="#365e7d"/><path d="m421.838 246.784h-29.548c.203 6.746.46 15.268.753 25h29.548z" fill="#ebb044"/><path d="m239.512 304.978c.224 7.436.48 15.92.753 25h29.548l-.753-25z" fill="#ebb044"/><path d="m269.813 329.978h-29.548c1.51 50.125 3.566 118.373 3.862 128.217.479 15.896-11.32 29.24-26.715 31.087 5.244 9.081 15.056 15.219 26.338 15.219 17.143 0 30.893-14.171 30.377-31.306z" fill="#365e7d"/><path d="m237.723 9.464c16.179 13.468 26.478 33.759 26.478 56.455v187.328c0 4.649-3.122 8.718-7.613 9.921l-10.337 2.77c-4.602 1.233-7.751 5.469-7.608 10.23.06 1.99.393 13.04.868 28.81h29.548l-.416-13.81c-.143-4.762 3.006-8.997 7.608-10.23l10.337-2.77c4.49-1.203 7.613-5.272 7.613-9.921v-187.328c0-34.717-24.097-63.806-56.478-71.455z" fill="#c6d0da"/><path d="m465.88 125.687c0-48.254-26.13-87.916-59.559-92.478 17.814 16.64 29.559 45.128 29.559 77.478 0 30.367-10.349 57.331-26.352 74.286-11.901 12.608-18.212 29.481-17.69 46.811.072 2.403.23 7.647.452 15h29.548c-.522-17.33 5.789-34.203 17.69-46.811 16.004-16.955 26.352-43.919 26.352-74.286z" fill="#c6d0da"/><path d="m185.625 125.688v-79.715c0-11.415-9.287-20.701-20.701-20.701-11.415 0-20.702 9.286-20.702 20.701v66.075c0 3.271-2.561 6.083-5.59 6.139-3.032.106-5.812-2.397-5.812-5.7v-66.514c0-11.415-9.287-20.701-20.702-20.701s-20.701 9.286-20.701 20.701v66.075c0 3.271-2.561 6.083-5.591 6.139-3.072.087-5.812-2.415-5.812-5.7v-66.514c0-11.415-9.287-20.701-20.702-20.701s-20.701 9.286-20.701 20.701v31.434c0 4.143 3.358 7.5 7.5 7.5s7.5-3.357 7.5-7.5v-31.434c0-3.144 2.558-5.701 5.701-5.701 3.144 0 5.702 2.558 5.702 5.701v66.514c0 11.6 9.519 20.932 21.086 20.698 11.202-.206 20.316-9.688 20.316-21.137v-66.075c0-3.144 2.558-5.701 5.702-5.701s5.701 2.558 5.701 5.701v66.514c0 11.646 9.568 20.931 21.087 20.698 11.202-.207 20.315-9.688 20.315-21.137v-66.075c0-3.144 2.558-5.701 5.702-5.701s5.701 2.558 5.701 5.701v79.715c0 27.168-9.086 53.013-24.306 69.137-11.361 12.037-18.277 27.912-19.551 44.46h-29.298c-1.274-16.549-8.19-32.423-19.551-44.46-15.22-16.124-24.306-41.969-24.306-69.137v-13.281c0-4.143-3.358-7.5-7.5-7.5s-7.5 3.357-7.5 7.5v13.281c0 31.361 10.351 60.313 28.398 79.434 10.406 11.023 16.109 26.127 15.648 41.438-.399 13.247-6.633 220.203-6.868 228.002-.617 20.473 15.771 37.438 36.329 37.438 20.481 0 36.947-16.889 36.329-37.439-.235-7.802-6.469-214.755-6.868-228.002-.461-15.311 5.242-30.414 15.648-41.438 18.046-19.12 28.397-48.072 28.397-79.433zm-88.193 128.596h29.373l.301 10h-29.975zm30.005 236.236c-8.377 8.633-22.229 8.665-30.637 0-4.056-4.18-6.192-9.687-6.017-15.508l5.896-195.728h30.879l5.896 195.728c.175 5.821-1.961 11.328-6.017 15.508z"/><path d="m452.662 55.643c-13.913-19.585-32.66-30.371-52.788-30.371s-38.875 10.786-52.788 30.371c-20.891 29.408-25.591 71.31-15.887 106.049 1.115 3.989 5.254 6.323 9.241 5.206 3.99-1.114 6.32-5.252 5.206-9.241-2.839-10.164-4.279-20.92-4.279-31.969 0-47.099 26.246-85.416 58.507-85.416s58.506 38.317 58.506 85.416c0 27.168-9.086 53.013-24.306 69.137-11.361 12.037-18.277 27.912-19.551 44.46h-29.298c-1.274-16.549-8.19-32.423-19.551-44.46-2.252-2.386-4.409-5.028-6.413-7.854-2.395-3.381-7.077-4.178-10.456-1.783s-4.178 7.076-1.783 10.455c2.407 3.397 5.012 6.586 7.743 9.479 10.405 11.023 16.108 26.127 15.647 41.438-.398 13.2-6.615 219.587-6.85 227.39-.297 9.866 3.427 19.628 10.219 26.78 14.404 15.171 37.809 14.729 51.899.518 7.088-7.147 10.824-16.625 10.521-26.686-.235-7.802-6.469-214.755-6.868-228.002-.461-15.311 5.242-30.414 15.648-41.438 34.933-37.009 37.844-107.019 7.681-149.479zm-67.475 198.641h29.373l.301 10h-29.976zm29.843 236.402c-8.198 8.266-21.86 8.679-30.37-.285-4.057-4.272-6.281-10.104-6.104-16.001l5.877-195.115h30.879l5.896 195.728c.18 5.907-2.015 11.473-6.178 15.673z"/><path d="m278.192 288.182 10.337-2.77c7.755-2.077 13.171-9.136 13.171-17.165v-187.328c.001-44.619-36.299-80.919-80.918-80.919-5.283 0-9.582 4.299-9.581 9.496-.203 17.656-5.108 444.55-5.326 463.547-.601 21.28 16.442 38.957 37.875 38.957 21.352 0 38.518-17.607 37.874-39.031l-.953-31.615c-.123-4.063-3.455-7.274-7.492-7.274-4.25 0-7.628 3.51-7.501 7.726l.953 31.615c.39 12.945-9.983 23.58-22.88 23.58-12.899 0-23.27-10.637-22.88-23.58.003-.103.594-51.628 1.563-135.942h40.103l2.029 67.364c.125 4.142 3.609 7.364 7.722 7.271 4.141-.125 7.396-3.583 7.271-7.723-2.851-94.645-3.038-100.863-3.417-113.448-.04-1.292.804-2.426 2.05-2.761zm-16.41 24.296.301 10h-39.478l.115-10zm12.528-38.785c-7.999 2.144-13.411 9.422-13.163 17.7l.183 6.084h-38.437l3.242-282.263c33.855 2.733 60.566 31.157 60.566 65.704v187.328c0 1.252-.844 2.353-2.053 2.677z"/></g></svg>