<svg id="Capa_1" enable-background="new 0 0 512 512" height="512" viewBox="0 0 512 512" width="512" xmlns="http://www.w3.org/2000/svg"><g><g><g><path d="m158.622 504.5h-22.845c-.946 0-1.713-.767-1.713-1.713v-24.559h26.272v24.559c-.001.946-.768 1.713-1.714 1.713z" fill="#407093"/></g></g><g><g><path d="m377.118 504.5h-22.845c-.946 0-1.713-.767-1.713-1.713v-24.559h26.272v24.559c0 .946-.767 1.713-1.714 1.713z" fill="#407093"/></g></g><g><path d="m380.222 210.937h-248.444v-202.045c0-.769.623-1.392 1.392-1.392h247.051v203.437z" fill="#f6f9f9"/></g><g><g><circle cx="215.025" cy="59.872" fill="#dd636e" r="12.708"/></g></g><g><g><path d="m252.085 59.872h-24.353c0 7.018-5.689 12.708-12.708 12.708-7.018 0-12.708-5.689-12.708-12.708h-24.872c-.716 0-1.297.581-1.297 1.297v68.179c0 10.541-8.545 19.086-19.085 19.086h77.234c10.541 0 19.085-8.545 19.085-19.086v-68.179c.001-.717-.579-1.297-1.296-1.297z" fill="#ffc250"/></g></g><g><path d="m380.222 210.937h-248.444v265.899c0 .769.623 1.392 1.392 1.392h245.661c.768 0 1.39-.622 1.39-1.39v-265.901z" fill="#f6f9f9"/></g><g><path d="m340.222 7.5v120.498c0 34.76-28.179 62.939-62.939 62.939h-145.505v20h248.443v-203.437z" fill="#e7ecf1"/></g><g><path d="m340.222 210.937v184.352c0 34.76-28.179 62.939-62.939 62.939h-145.505v18.608c0 .769.623 1.392 1.392 1.392h245.661c.768 0 1.39-.622 1.39-1.39v-265.901z" fill="#e7ecf1"/></g><g><g><path d="m329.937 184.153v-149.869c0-.828.671-1.499 1.499-1.499h23.785v152.868h-23.785c-.828-.001-1.499-.672-1.499-1.5z" fill="#407093"/></g></g><g><g><path d="m340.222 127.998c0 12.735-3.782 24.586-10.285 34.492v21.663c0 .828.671 1.499 1.499 1.499h23.785v-152.867h-15v95.213z" fill="#365e7d"/></g></g><g><g><path d="m329.937 451.444v-213.723c0-.828.671-1.499 1.499-1.499h23.785v216.722h-23.785c-.828-.001-1.499-.672-1.499-1.5z" fill="#407093"/></g></g><g><g><path d="m340.222 395.289c0 12.735-3.782 24.586-10.285 34.492v21.663c0 .828.671 1.499 1.499 1.499h23.785v-216.722h-15v159.068z" fill="#365e7d"/></g></g><g><path d="m380.222 0h-247.052c-4.903 0-8.892 3.989-8.892 8.892v271.745c0 4.142 3.358 7.5 7.5 7.5s7.5-3.358 7.5-7.5v-62.2h233.443v252.291h-233.443v-155.091c0-4.142-3.358-7.5-7.5-7.5s-7.5 3.358-7.5 7.5v161.198c0 2.283.865 4.368 2.285 5.944v20.007c0 5.08 4.133 9.213 9.213 9.213h22.845c5.08 0 9.213-4.133 9.213-9.213v-17.059h177.226v17.059c0 5.08 4.133 9.213 9.213 9.213h22.845c5.08 0 9.213-4.133 9.213-9.213v-21.18c.88-1.379 1.39-3.015 1.39-4.768v-469.338c.001-4.142-3.357-7.5-7.499-7.5zm-240.944 15h233.443v188.437h-233.443zm13.557 482h-11.272v-11.272h11.272zm218.497 0h-11.272v-11.272h11.272z"/><path d="m355.222 25.285h-23.785c-4.962 0-9 4.037-9 8.999v149.869c0 4.962 4.037 9 9 9h23.785c4.142 0 7.5-3.358 7.5-7.5v-95.345c0-4.142-3.358-7.5-7.5-7.5s-7.5 3.358-7.5 7.5v87.845h-10.285v-137.868h10.285v15.023c0 4.142 3.358 7.5 7.5 7.5s7.5-3.358 7.5-7.5v-22.523c0-4.142-3.358-7.5-7.5-7.5z"/><path d="m355.222 460.443c4.142 0 7.5-3.358 7.5-7.5v-216.722c0-4.142-3.358-7.5-7.5-7.5h-23.785c-4.962 0-9 4.037-9 9v213.723c0 4.962 4.037 8.999 9 8.999zm-17.785-216.722h10.285v201.722h-10.285z"/><path d="m252.085 52.372h-18.296c-2.984-7.44-10.271-12.708-18.764-12.708s-15.78 5.268-18.765 12.708h-18.815c-4.851 0-8.797 3.946-8.797 8.797v17.983c0 4.142 3.358 7.5 7.5 7.5s7.5-3.358 7.5-7.5v-11.78h12.611c.005.014.011.027.017.041.039.097.079.194.12.29.003.007.006.014.008.02.043.102.088.204.133.306.01.023.02.046.031.069.045.1.09.2.136.299.002.005.004.009.006.014.047.1.095.2.143.299.01.02.019.04.029.06.05.102.101.204.153.305 0 0 .001.001.001.001.052.1.104.2.157.299.01.018.019.036.029.054.055.101.11.202.166.302 0 .001.001.001.001.002.055.098.111.195.167.292.01.017.02.034.029.05.058.098.116.196.175.293.004.006.007.012.011.018.057.094.116.187.175.28.008.012.016.025.023.037.062.098.125.195.189.291.004.007.009.013.013.02.062.093.124.185.187.277.006.008.012.017.017.025.067.096.134.192.202.288.005.007.01.014.015.02.066.092.132.183.199.273.005.006.009.012.014.018.07.094.141.188.213.28.006.008.013.016.019.024.07.091.141.181.213.271.002.002.003.004.005.006.074.092.149.183.224.274.007.009.014.017.022.026.075.089.15.178.226.267.077.089.155.177.233.265.009.01.017.019.026.029.156.174.315.345.477.513.008.009.017.017.025.026.162.168.327.333.495.496.009.009.019.018.028.027.169.163.342.323.517.481l.02.018c.176.157.354.312.535.463.009.007.018.015.026.022.183.152.369.301.557.447.005.004.01.008.015.011.189.146.38.289.575.428.007.005.015.011.022.016.097.069.194.138.292.206.003.002.006.004.008.006.098.068.197.135.297.201.002.002.005.003.007.005.1.067.202.132.303.197.005.003.011.007.016.01.098.063.198.124.297.185.003.002.007.004.01.007.102.062.205.124.308.185.007.004.014.008.021.012.206.121.414.238.625.352.009.005.018.01.027.014.207.111.417.219.628.323.014.007.029.014.043.021.209.102.42.201.632.296.015.007.029.013.044.02.212.094.427.185.643.273.016.007.033.013.049.02.216.087.435.17.655.249.016.006.031.011.047.017.219.078.44.153.662.224.018.006.037.012.055.018.111.035.223.069.334.103.005.001.01.003.015.004.106.031.212.062.319.091.019.005.039.011.058.016.11.03.221.06.332.088.014.004.029.007.043.011.101.026.202.05.304.074.019.005.038.009.057.014.112.026.225.052.338.076l.045.009c.102.022.204.043.306.063.02.004.04.008.061.012.111.022.223.042.334.062.021.004.043.007.065.011.1.017.201.034.301.05l.054.009c.112.017.225.034.338.049.025.003.05.007.075.01.101.013.202.026.303.038.016.002.033.004.049.006.112.013.225.025.338.036.028.003.056.005.085.008.104.01.208.019.312.027.012.001.025.002.037.003.115.009.231.017.347.023.027.002.054.003.081.005.109.006.219.012.328.016.008 0 .017.001.025.001.117.005.234.008.351.01.027.001.055.001.082.002.118.002.236.003.355.003s.237-.001.355-.003c.027 0 .055-.001.082-.002.117-.003.234-.006.351-.01.008 0 .017-.001.025-.001.11-.004.219-.01.328-.016.027-.002.054-.003.081-.005.116-.007.231-.015.347-.023.012-.001.025-.002.037-.003.104-.008.208-.017.312-.027.028-.003.056-.005.085-.008.113-.011.226-.023.338-.036.017-.002.033-.004.049-.006.101-.012.202-.025.303-.038.025-.003.05-.007.076-.01.113-.016.225-.032.337-.049.018-.003.036-.006.054-.009.1-.016.2-.032.3-.05.022-.004.044-.007.065-.011.112-.02.224-.04.335-.062.019-.004.039-.008.058-.011.103-.02.206-.041.308-.063.015-.003.029-.006.044-.009.113-.024.227-.05.339-.076.018-.004.036-.009.054-.013.102-.024.205-.049.306-.075.014-.004.028-.007.042-.011.111-.029.222-.058.333-.088.019-.005.038-.01.057-.016.107-.03.214-.06.32-.092.005-.001.01-.003.014-.004.112-.033.223-.068.335-.103.018-.006.037-.012.055-.018.223-.071.444-.146.664-.224.014-.005.029-.01.043-.016.221-.08.441-.163.659-.251.015-.006.03-.012.045-.018.218-.088.434-.18.649-.275.012-.005.024-.011.037-.016.214-.096.427-.195.637-.299.013-.007.027-.013.04-.02.213-.105.424-.214.633-.326.007-.004.014-.008.021-.011.212-.114.422-.232.629-.354.006-.004.012-.007.019-.011.208-.122.414-.248.618-.378.005-.003.01-.006.014-.009.103-.065.205-.132.306-.199.103-.068.205-.137.306-.207l.001-.001c.1-.069.2-.139.299-.21.004-.003.007-.005.011-.008.197-.142.392-.287.584-.435.003-.002.005-.004.008-.006.192-.148.381-.3.567-.455.004-.004.009-.007.013-.011.185-.154.367-.312.546-.472.004-.004.009-.008.013-.012.179-.16.354-.324.527-.49l.015-.014c.173-.167.342-.337.509-.51.004-.004.008-.008.012-.012.166-.172.329-.348.489-.526.005-.006.011-.012.016-.018.161-.18.32-.364.475-.55.001-.001.002-.003.003-.004.156-.188.309-.378.459-.572.002-.002.003-.004.005-.007.075-.097.149-.194.222-.293 0 0 0 0 .001-.001.072-.097.143-.194.213-.292.003-.004.005-.007.008-.01.07-.098.139-.196.207-.295.004-.005.007-.01.01-.015.066-.096.132-.193.197-.291.002-.003.004-.006.006-.009.065-.099.13-.198.194-.298.006-.009.011-.018.017-.026.127-.2.25-.401.37-.606.006-.01.012-.02.018-.031.119-.203.234-.409.346-.617.006-.011.012-.023.018-.034.11-.205.216-.412.319-.622.008-.016.016-.033.024-.049.101-.206.198-.415.292-.625.008-.017.016-.035.023-.052.047-.106.093-.212.138-.318 0-.001.001-.002.001-.003.044-.104.087-.208.129-.312.004-.011.009-.021.013-.032h12.093v61.976c0 6.389-5.197 11.586-11.585 11.586h-53.308c1.704-3.504 2.66-7.435 2.66-11.586v-15.195c0-4.142-3.358-7.5-7.5-7.5s-7.5 3.358-7.5 7.5v15.195c0 6.389-5.197 11.586-11.585 11.586-4.142 0-7.5 3.358-7.5 7.5s3.358 7.5 7.5 7.5h77.234c14.659 0 26.585-11.926 26.585-26.586v-68.177c.006-4.851-3.94-8.797-8.791-8.797zm-42.268 7.5c0-2.872 2.336-5.208 5.208-5.208s5.208 2.336 5.208 5.208-2.336 5.208-5.208 5.208-5.208-2.336-5.208-5.208z"/><path d="m201.433 105.364h26.665c4.142 0 7.5-3.358 7.5-7.5s-3.358-7.5-7.5-7.5h-26.665c-4.142 0-7.5 3.358-7.5 7.5s3.358 7.5 7.5 7.5z"/><path d="m201.433 130.649h26.665c4.142 0 7.5-3.358 7.5-7.5s-3.358-7.5-7.5-7.5h-26.665c-4.142 0-7.5 3.358-7.5 7.5s3.358 7.5 7.5 7.5z"/><path d="m160.283 379.57c1.389 2.406 3.91 3.751 6.502 3.751 1.272 0 2.562-.324 3.743-1.006l11.695-6.752-1.099 4.101c-1.072 4.001 1.302 8.113 5.303 9.186.65.174 1.303.257 1.946.257 3.311 0 6.342-2.21 7.24-5.561l4.981-18.589 13.925-8.04c2.525 2.282 5.528 4.045 8.838 5.117v16.066l-13.609 13.608c-2.929 2.929-2.929 7.677 0 10.606 2.929 2.93 7.678 2.929 10.606 0l3.002-3.002v13.505c0 4.142 3.358 7.5 7.5 7.5s7.5-3.358 7.5-7.5v-13.504l3.002 3.002c1.464 1.464 3.384 2.197 5.303 2.197s3.839-.732 5.303-2.197c2.929-2.929 2.929-7.678 0-10.606l-13.606-13.609v-16.065c3.311-1.072 6.313-2.835 8.838-5.117l13.925 8.04 4.981 18.589c.898 3.351 3.928 5.561 7.24 5.561.643 0 1.296-.083 1.946-.257 4.001-1.072 6.375-5.185 5.304-9.186l-1.099-4.101 11.695 6.752c1.181.682 2.471 1.006 3.743 1.006 2.592 0 5.113-1.346 6.502-3.751 2.071-3.587.842-8.174-2.745-10.245l-11.695-6.752 4.101-1.099c4.001-1.072 6.375-5.185 5.304-9.186-1.072-4.001-5.188-6.373-9.186-5.303l-18.59 4.981-13.912-8.032c.353-1.648.539-3.358.539-5.11s-.186-3.462-.539-5.11l13.912-8.032 18.59 4.981c.65.174 1.303.257 1.946.257 3.311 0 6.342-2.21 7.24-5.561 1.072-4.001-1.302-8.114-5.304-9.186l-4.101-1.099 11.695-6.752c3.587-2.071 4.816-6.658 2.745-10.245-2.071-3.588-6.658-4.816-10.245-2.745l-11.695 6.752 1.099-4.101c1.072-4.001-1.302-8.113-5.304-9.186-3.994-1.068-8.113 1.302-9.186 5.304l-4.981 18.589-13.925 8.04c-2.525-2.282-5.527-4.044-8.838-5.117v-16.065l13.608-13.608c2.929-2.929 2.929-7.678 0-10.606-2.929-2.929-7.678-2.929-10.606 0l-3.002 3.002v-13.504c0-4.142-3.358-7.5-7.5-7.5s-7.5 3.358-7.5 7.5v13.505l-3.002-3.002c-2.929-2.929-7.678-2.929-10.606 0-2.929 2.929-2.929 7.678 0 10.606l13.609 13.608v16.065c-3.311 1.072-6.314 2.835-8.838 5.117l-13.925-8.04-4.981-18.589c-1.072-4.001-5.183-6.374-9.186-5.304-4.001 1.072-6.375 5.185-5.303 9.186l1.099 4.101-11.695-6.752c-3.588-2.072-8.174-.842-10.245 2.745s-.842 8.174 2.745 10.245l11.695 6.752-4.101 1.099c-4.001 1.072-6.375 5.185-5.303 9.186.898 3.351 3.928 5.561 7.24 5.561.643 0 1.296-.083 1.946-.257l18.59-4.981 13.913 8.032c-.353 1.648-.539 3.358-.539 5.11s.186 3.462.539 5.11l-13.913 8.032-18.59-4.981c-3.994-1.069-8.113 1.302-9.186 5.303-1.072 4.001 1.302 8.114 5.303 9.186l4.101 1.099-11.695 6.752c-3.589 2.069-4.818 6.656-2.747 10.243zm79.964-40.746c0 5.177-4.212 9.39-9.389 9.39s-9.39-4.212-9.39-9.39 4.212-9.39 9.39-9.39 9.389 4.213 9.389 9.39z"/></g></g></svg>