<?xml version="1.0" encoding="UTF-8" standalone="no"?>
<svg
   id="Capa_1"
   enable-background="new 0 0 512 512"
   height="512"
   viewBox="0 0 512 512"
   width="512"
   version="1.1"
   sodipodi:docname="fridge-1-color.svg"
   inkscape:version="1.1.2 (0a00cf5339, 2022-02-04)"
   xmlns:inkscape="http://www.inkscape.org/namespaces/inkscape"
   xmlns:sodipodi="http://sodipodi.sourceforge.net/DTD/sodipodi-0.dtd"
   xmlns="http://www.w3.org/2000/svg"
   xmlns:svg="http://www.w3.org/2000/svg">
  <defs
     id="defs29" />
  <sodipodi:namedview
     id="namedview27"
     pagecolor="#ffffff"
     bordercolor="#666666"
     borderopacity="1.0"
     inkscape:pageshadow="2"
     inkscape:pageopacity="0.0"
     inkscape:pagecheckerboard="0"
     showgrid="false"
     inkscape:zoom="1.2304688"
     inkscape:cx="255.59365"
     inkscape:cy="255.59365"
     inkscape:window-width="1920"
     inkscape:window-height="1012"
     inkscape:window-x="0"
     inkscape:window-y="0"
     inkscape:window-maximized="1"
     inkscape:current-layer="Capa_1" />
  <g
     id="g24"
     transform="matrix(1.0291364,0,0,1.0291364,-7.4589112,-7.4589112)">
    <g
       id="g16">
      <path
         d="M 124.225,155.5 H 398.5 v 113 H 124.225 Z"
         fill="#596c76"
         id="path2" />
      <path
         d="M 404.71,199 H 107.29 c -5.523,0 -10,-4.477 -10,-10 V 17.5 c 0,-5.523 4.477,-10 10,-10 h 297.42 c 5.523,0 10,4.477 10,10 V 189 c 0,5.523 -4.477,10 -10,10 z"
         fill="#c5d3dd"
         id="path4" />
      <path
         d="m 142.447,151.917 c -8.498,0 -15.387,-6.889 -15.387,-15.387 V 69.971 c 0,-8.498 6.889,-15.387 15.387,-15.387 8.498,0 15.387,6.889 15.387,15.387 v 66.559 c 0.001,8.497 -6.889,15.387 -15.387,15.387 z"
         fill="#e8edf2"
         id="path6" />
      <path
         d="m 404.71,7.5 h -39.685 c 5.523,0 10,4.477 10,10 V 189 c 0,5.523 -4.477,10 -10,10 h 39.685 c 5.523,0 10,-4.477 10,-10 V 17.5 c 0,-5.523 -4.477,-10 -10,-10 z"
         fill="#b6c4cf"
         id="path8" />
      <path
         d="m 404.71,225 h -39.685 c 5.523,0 10,4.477 10,10 v 259.5 c 0,5.523 -4.477,10 -10,10 h 39.685 c 5.523,0 10,-4.477 10,-10 V 235 c 0,-5.523 -4.477,-10 -10,-10 z"
         fill="#b6c4cf"
         id="path10" />
      <path
         d="M 404.71,225 H 279.333 v 7.5 H 124.225 V 225 H 107.29 c -5.523,0 -10,4.477 -10,10 v 259.5 c 0,5.523 4.477,10 10,10 h 297.42 c 5.523,0 10,-4.477 10,-10 V 235 c 0,-5.523 -4.477,-10 -10,-10 z"
         fill="#c5d3dd"
         id="path12" />
      <path
         d="m 124.225,225 v 28 c 0,3.314 2.686,6 6,6 h 143.108 c 3.314,0 6,-2.686 6,-6 v -28 z"
         fill="#7a8c98"
         id="path14" />
    </g>
    <g
       id="g22" />
  </g>
</svg>
