<svg id="Capa_1" enable-background="new 0 0 512 512" height="512" viewBox="0 0 512 512" width="512" xmlns="http://www.w3.org/2000/svg"><g><path d="m35.726 85.218h440.548v384.288h-440.548z" fill="#b9c1cb"/><path d="m436.274 85.218v256.255c0 59.665-48.368 108.033-108.033 108.033h-292.515v20h440.548v-384.288z" fill="#a0aab7"/><path d="m392.632 289.015-20.259-71.498c-5.135-18.121-21.678-30.628-40.513-30.628h-151.72c-18.834 0-35.378 12.507-40.513 30.628l-20.259 71.498z" fill="#66b394"/><path d="m442.666 435.498h-373.332c-4.754 0-8.607-3.854-8.607-8.607v-23.438c0-4.754 3.854-8.607 8.607-8.607h373.333c4.754 0 8.607 3.854 8.607 8.607v23.438c0 4.753-3.854 8.607-8.608 8.607z" fill="#dae4ea"/><path d="m442.667 394.845h-20.476c-9.648 16.946-23.748 31.028-40.709 40.653h61.185c4.754 0 8.607-3.854 8.607-8.607v-23.438c0-4.754-3.854-8.608-8.607-8.608z" fill="#c6d0da"/><path d="m444.553 281.714c0 4.032-3.269 7.301-7.301 7.301h-44.621v-24.284c0-4.515 3.66-8.175 8.175-8.175h36.446c4.032 0 7.301 3.269 7.301 7.301z" fill="#407093"/><path d="m437.253 256.556h-.979v32.459h.979c4.032 0 7.301-3.269 7.301-7.301v-17.858c-.001-4.032-3.269-7.3-7.301-7.3z" fill="#365e7d"/><path d="m74.748 289.015h44.621v-24.284c0-4.515-3.66-8.175-8.175-8.175h-36.446c-4.032 0-7.301 3.269-7.301 7.301v17.858c0 4.031 3.269 7.3 7.301 7.3z" fill="#407093"/><path d="m200.685 394.845h110.629v40.653h-110.629z" fill="#f6f9f9"/><path d="m139.885 469.507h-46.005c-6.902 0-12.497-5.595-12.497-12.497v-21.512h70.999v21.512c0 6.902-5.595 12.497-12.497 12.497z" fill="#407093"/><path d="m152.382 457.01v-7.503h-70.999v7.503c0 6.902 5.595 12.497 12.497 12.497h46.004c6.903 0 12.498-5.595 12.498-12.497z" fill="#365e7d"/><path d="m363.19 289.015-18.486-65.239c-1.435-5.065-6.059-8.56-11.323-8.56h-154.762c-5.264 0-9.888 3.496-11.323 8.56l-18.486 65.239z" fill="#d3effb"/><path d="m395.819 289.015h-279.637c-23.001 0-41.974 18.01-43.171 40.979l-3.381 64.851h372.742l-3.381-64.851c-1.199-22.969-20.172-40.979-43.172-40.979z" fill="#78c2a4"/><path d="m436.274 316.981v24.492c0 19.412-5.12 37.628-14.083 53.372h20.181l-3.381-64.851c-.239-4.568-1.181-8.94-2.717-13.013z" fill="#365e7d"/><path d="m275.934 369.508h-39.868c-18.514 0-33.522-15.008-33.522-33.522 0-7.754 6.286-14.04 14.04-14.04h78.833c7.754 0 14.04 6.286 14.04 14.04-.001 18.513-15.01 33.522-33.523 33.522z" fill="#dae4ea"/><path d="m418.12 469.507h-46.004c-6.902 0-12.497-5.595-12.497-12.497v-21.512h70.999v21.512c-.001 6.902-5.596 12.497-12.498 12.497z" fill="#407093"/><path d="m430.617 457.01v-21.512h-49.135c-6.856 3.89-14.178 7.052-21.864 9.381v12.13c0 6.902 5.595 12.497 12.497 12.497h46.004c6.903.001 12.498-5.594 12.498-12.496z" fill="#365e7d"/><circle cx="121.1" cy="341.93" fill="#fff9e2" r="23.508"/><circle cx="162.431" cy="341.93" fill="#fbf4c6" r="17.822"/><circle cx="390.9" cy="341.93" fill="#fff9e2" r="23.508"/><circle cx="349.569" cy="341.93" fill="#fbf4c6" r="17.822"/><path d="m501.398 85.218h-490.796c-1.713 0-3.102-1.389-3.102-3.102v-36.521c0-1.713 1.389-3.102 3.102-3.102h490.797c1.713 0 3.102 1.389 3.102 3.102v36.522c-.001 1.713-1.39 3.101-3.103 3.101z" fill="#dd636e"/><path d="m35.726 469.507h-24.002c-.876 0-1.586-.71-1.586-1.586v-382.703h25.588z" fill="#da4a54"/><path d="m476.274 469.507h24.002c.876 0 1.586-.71 1.586-1.586v-382.703h-25.588z" fill="#da4a54"/><path d="m35.726 85.218h440.548v76.67h-440.548z" fill="#dae4ea"/><path d="m436.274 85.218h40v76.67h-40z" fill="#c6d0da"/><path d="m236.065 377.007h39.868c22.62 0 41.022-18.402 41.022-41.022 0-11.877-9.663-21.54-21.54-21.54h-26.889c-4.142 0-7.5 3.358-7.5 7.5s3.358 7.5 7.5 7.5h26.889c3.606 0 6.54 2.934 6.54 6.54 0 14.349-11.674 26.022-26.022 26.022h-39.868c-14.349 0-26.022-11.673-26.022-26.022 0-3.606 2.934-6.54 6.54-6.54h16.944c4.142 0 7.5-3.358 7.5-7.5s-3.358-7.5-7.5-7.5h-16.944c-11.877 0-21.54 9.663-21.54 21.54 0 22.62 18.403 41.022 41.022 41.022z"/><path d="m233.231 344.832c0 4.142 3.358 7.5 7.5 7.5h30.537c4.142 0 7.5-3.358 7.5-7.5s-3.358-7.5-7.5-7.5h-30.537c-4.142 0-7.5 3.357-7.5 7.5z"/><path d="m121.1 372.938c9.973 0 18.862-4.733 24.538-12.071 4.472 3.97 10.356 6.385 16.793 6.385 13.963 0 25.322-11.359 25.322-25.322 0-13.962-11.359-25.322-25.322-25.322-6.437 0-12.32 2.414-16.793 6.384-5.676-7.338-14.564-12.071-24.538-12.071-17.098 0-31.008 13.91-31.008 31.008s13.91 31.009 31.008 31.009zm41.331-41.33c5.692 0 10.322 4.63 10.322 10.322s-4.63 10.322-10.322 10.322-10.322-4.63-10.322-10.322c-.001-5.692 4.63-10.322 10.322-10.322zm-41.331-5.687c8.827 0 16.008 7.181 16.008 16.008s-7.181 16.008-16.008 16.008-16.008-7.181-16.008-16.008 7.181-16.008 16.008-16.008z"/><path d="m349.569 367.252c6.437 0 12.32-2.414 16.793-6.385 5.676 7.338 14.564 12.071 24.538 12.071 17.098 0 31.008-13.91 31.008-31.008s-13.91-31.008-31.008-31.008c-9.973 0-18.862 4.733-24.538 12.071-4.472-3.97-10.356-6.384-16.793-6.384-13.963 0-25.322 11.359-25.322 25.322 0 13.962 11.359 25.321 25.322 25.321zm41.331-41.331c8.827 0 16.008 7.181 16.008 16.008s-7.181 16.008-16.008 16.008-16.008-7.181-16.008-16.008 7.181-16.008 16.008-16.008zm-41.331 5.687c5.692 0 10.322 4.63 10.322 10.322s-4.63 10.322-10.322 10.322-10.322-4.63-10.322-10.322 4.63-10.322 10.322-10.322z"/><path d="m501.398 34.993h-490.796c-5.846 0-10.602 4.756-10.602 10.602v36.522c0 2.676.997 5.123 2.638 6.99v378.814c0 5.01 4.076 9.086 9.086 9.086h488.552c5.01 0 9.086-4.076 9.086-9.086v-378.814c1.641-1.867 2.638-4.314 2.638-6.99v-36.522c0-5.846-4.756-10.602-10.602-10.602zm-486.398 15h482v27.725h-58.813c-4.142 0-7.5 3.358-7.5 7.5s3.358 7.5 7.5 7.5h30.587v61.67h-425.548v-61.67h359.961c4.142 0 7.5-3.358 7.5-7.5s-3.358-7.5-7.5-7.5h-388.187zm2.638 42.725h10.588v294.648c0 4.142 3.358 7.5 7.5 7.5s7.5-3.358 7.5-7.5v-217.977h425.548v292.618h-31.289c.413-1.598.632-3.272.632-4.997v-14.012h4.55c8.882 0 16.107-7.226 16.107-16.107v-23.438c0-6.412-3.766-11.961-9.203-14.551l-3.091-59.298c-.675-12.937-6.148-24.529-14.642-33.089h5.415c8.161 0 14.8-6.639 14.8-14.8v-17.858c0-8.161-6.639-14.801-14.8-14.801h-36.446c-4.057 0-7.758 1.549-10.544 4.086l-10.674-37.67c-6.02-21.245-25.647-36.083-47.729-36.083h-151.719c-22.082 0-41.709 14.838-47.729 36.083l-10.674 37.67c-2.786-2.537-6.488-4.086-10.544-4.086h-36.446c-8.161 0-14.801 6.64-14.801 14.801v17.858c0 8.161 6.64 14.8 14.801 14.8h5.415c-8.494 8.56-13.967 20.152-14.642 33.089l-3.092 59.298c-5.436 2.59-9.203 8.139-9.203 14.551v23.438c0 8.882 7.226 16.107 16.107 16.107h4.55v14.012c0 1.725.22 3.399.632 4.997h-31.289v-39.641c0-4.142-3.358-7.5-7.5-7.5s-7.5 3.358-7.5 7.5v39.641h-10.588zm381.982 350.28v19.009h-9.005v-19.009zm-80.806-15v-25.653h123.852c.611 0 1.107.497 1.107 1.107v23.438c0 .611-.497 1.107-1.107 1.107h-123.852zm-197.429 15v19.009h-9.005v-19.009zm-52.052-15c-.611 0-1.107-.497-1.107-1.107v-23.438c0-.611.497-1.107 1.107-1.107h123.852v25.653h-123.852zm330.799-146.483v-16.785c0-.372.303-.675.674-.675h36.247v17.459h-36.921zm-31.272 0-16.94-59.785c-2.338-8.252-9.961-14.016-18.539-14.016h-154.762c-8.577 0-16.201 5.764-18.539 14.016l-16.94 59.784h-13.852l17.555-61.953c4.2-14.821 17.892-25.173 33.297-25.173h151.72c15.405 0 29.097 10.352 33.297 25.173l17.555 61.953h-13.852zm-15.59 0h-194.54l15.781-55.695c.518-1.828 2.207-3.105 4.107-3.105h154.762c1.9 0 3.589 1.277 4.107 3.105zm-241.402 0h-36.921v-17.459h36.247c.372 0 .675.303.675.675v16.784zm4.314 15h279.637c19.018 0 34.692 14.877 35.682 33.87l2.969 56.96h-356.94l2.97-56.96c.99-18.993 16.664-33.87 35.682-33.87zm92.003 131.483v-25.653h95.629v25.653zm-48.303 15h192.236v14.012c0 1.725.22 3.399.632 4.997h-193.5c.413-1.598.632-3.272.632-4.997zm-70.999 14.012v-14.012h8.497v19.009h-3.5c-2.755 0-4.997-2.242-4.997-4.997zm47.502 4.997v-19.009h8.497v14.012c0 2.755-2.242 4.997-4.997 4.997zm230.733-4.997v-14.012h8.497v19.009h-3.5c-2.755 0-4.997-2.242-4.997-4.997zm47.502 4.997v-19.009h8.497v14.012c0 2.755-2.242 4.997-4.997 4.997zm69.154 0v-369.289h10.588v369.289z"/><path d="m450.033 128.832h-388.066c-4.142 0-7.5 3.358-7.5 7.5s3.358 7.5 7.5 7.5h388.066c4.142 0 7.5-3.358 7.5-7.5s-3.358-7.5-7.5-7.5z"/><path d="m54.467 110.775c0 4.142 3.358 7.5 7.5 7.5h388.066c4.142 0 7.5-3.358 7.5-7.5s-3.358-7.5-7.5-7.5h-388.066c-4.142 0-7.5 3.358-7.5 7.5z"/></g></svg>