<svg id="Capa_1" enable-background="new 0 0 512 512" height="512" viewBox="0 0 512 512" width="512" xmlns="http://www.w3.org/2000/svg"><g><g><path d="m238.08 500.617-6.739 5.234-136.283-1.765c-5.234 0-9.583-4.036-9.972-9.256l-17.336-188.33 107.888-15.5 78.128 15.5z" fill="#ffe07d"/><path d="m231.979 490.5-6.128 15.223-.351 1.777h-133.47c-5.23 0-9.58-4.04-9.97-9.26l-14.31-191.74h17.05l12.694 170.116c.584 7.829 7.107 13.884 14.958 13.884z" fill="#ffd064"/><g><path d="m290.5 112c0-12.426-10.074-22.5-22.5-22.5-2.718 0-5.324.482-7.736 1.365 0 0-3.69 2.504-5.566 4.003-5.162 4.123-8.128 10.012-8.128 17.132 0 12.426 9.004 21.268 21.431 21.268 8.825 0 16.104-4.043 19.791-11.438.369-.74 1.344-2.092 1.344-2.092.882-2.413 1.364-5.019 1.364-7.738z" fill="#bde4ff"/><path d="m289.134 119.737c-3.15 8.617-11.426 14.763-21.134 14.763-12.428 0-22.5-10.072-22.5-22.5 0-9.709 6.147-17.985 14.764-21.135-.881 2.413-1.359 5.011-1.359 7.73 0 12.428 10.072 22.5 22.5 22.5 2.719.001 5.317-.477 7.729-1.358z" fill="#99dbff"/></g><path d="m330.106 305.213-288.766 1.287c-2.761 0-5-2.239-5-5l.021-36.755c0-4.846 2.307-8.236 5.872-10.979 2.53-1.946 7.516-4.266 7.516-4.266h272c8.284 0 15 6.716 15 15v39c.001 2.761-3.881 1.713-6.643 1.713z" fill="#ffd064"/><path d="m336.75 293.5v10c0 2.761-2.239 5-5 5h-292c-2.761 0-5-2.239-5-5v-39c0-8.28 6.72-15 15-15v34c0 5.523 4.477 10 10 10z" fill="#edc258"/><path d="m324.83 11.34 2.979 269.16h30.441v-270c0-1.657-1.343-3-3-3h-16l-11.42.84c-1.657 0-3 1.344-3 3z" fill="#d19a6e"/><path d="m339.25 7.5v273h-16v-270c0-1.66 1.34-3 3-3z" fill="#c38c66"/><g><g><path d="m258.25 365.36v139.14h-15v-139.14c0-4.14 3.36-7.5 7.5-7.5s7.5 3.36 7.5 7.5z" fill="#e8e8e8"/></g><g><path d="m288.25 365.36v139.14h-15v-139.14c0-4.14 3.36-7.5 7.5-7.5s7.5 3.36 7.5 7.5z" fill="#e8e8e8"/></g><g><path d="m318.25 365.36v139.14h-15v-139.14c0-4.14 3.36-7.5 7.5-7.5s7.5 3.36 7.5 7.5z" fill="#e8e8e8"/></g><g><path d="m348.25 365.36v139.14h-15v-139.14c0-4.14 3.36-7.5 7.5-7.5s7.5 3.36 7.5 7.5z" fill="#e8e8e8"/></g><g><path d="m378.25 365.36v139.14h-15v-139.14c0-4.14 3.36-7.5 7.5-7.5s7.5 3.36 7.5 7.5z" fill="#e8e8e8"/></g><g><path d="m408.25 365.36v139.14h-15v-139.14c0-4.14 3.36-7.5 7.5-7.5s7.5 3.36 7.5 7.5z" fill="#e8e8e8"/></g><g><path d="m438.25 365.36v139.14h-15v-139.14c0-4.14 3.36-7.5 7.5-7.5s7.5 3.36 7.5 7.5z" fill="#e8e8e8"/></g></g><path d="m461 396.5v106c0 2.761-2.239 5-5 5h-17.75l-7.5-9.64-7.5 9.64h-15l-7.5-9.64-7.5 9.64h-15l-7.5-9.64-7.5 9.64h-15l-7.5-9.64-7.5 9.64h-15l-7.5-9.64-7.5 9.64h-15l-7.5-9.64-7.5 9.64h-15l-7.5-9.64-7.5 9.64h-8.75l-11.117-1.479.936-125.521h232.301z" fill="#f8f7f7"/><path d="m461 380.5v16h-215.5c-6.075 0-11 4.925-11 11v100h-9c-2.761 0-5-2.239-5-5v-122l120.25-10.266z" fill="#e8e8e8"/><path d="m158.75 233.5h-32l-7.984 2.074-7.016-2.074h-32c-.678 0-1.346.045-2.001.132 0 0-2.026 1.005-3.185 1.479-5.471 2.237-9.309 7.186-9.309 13.463l1.809 147.979c0 2.761 2.239 5 5 5l65.149.362c2.761 0 5-2.239 5-5l1.567-6.415v-17l7.5-1.989 7.5 1.989h9.97c2.761 0 5-2.239 5-5v-112.5-7.5c0-8.284-6.716-15-15-15z" fill="#ff8086"/><path d="m143.78 390.5v8c0 2.76-2.24 5-5 5h-69.03c-2.76 0-5-2.24-5-5v-150c0-7.6 5.659-13.898 12.999-14.868l.001 144.868c0 6.63 5.37 12 12 12z" fill="#e5646e"/><path d="m370.064 280.5h-60.044l.235-50.989c0-2.761 2.239-5 5-5l9.495-1.011h44c2.761 0 5 2.239 5 5v36z" fill="#f8f7f7"/><path d="m373.75 264.5v16l-33.559 5.436-32.441-5.436v-52c0-2.761 2.239-5 5-5h12v30c0 6.075 4.925 11 11 11z" fill="#e8e8e8"/><path d="m248 190c0-15.464-12.536-28-28-28-4.614 0-8.967 1.116-12.804 3.092 0 0-2.564 3.438-4.334 5.025-5.72 5.127-9.351 11.598-9.351 19.883 0 15.464 11.025 26.904 26.489 26.904 9.686 0 17.68-4.317 22.707-11.793.988-1.468 3.082-4.188 3.082-4.188 1.424-3.356 2.211-7.047 2.211-10.923z" fill="#bde4ff"/><path d="m245.797 200.904c-4.25 10.05-14.197 17.096-25.797 17.096-15.46 0-28-12.54-28-28 0-10.85 6.166-20.268 15.196-24.908-1.42 3.35-2.196 7.048-2.196 10.908 0 15.46 12.54 28 28 28 4.61 0 8.957-1.116 12.797-3.096z" fill="#99dbff"/><g><path d="m146.5 165c0-12.979-10.521-23.5-23.5-23.5-2.839 0-5.561.503-8.08 1.426 0 0-3.854 2.615-5.814 4.18-5.391 4.306-8.489 10.457-8.489 17.894 0 12.979 9.404 22.213 22.383 22.213 9.217 0 16.82-4.222 20.67-11.947.385-.773 1.403-2.185 1.403-2.185.923-2.52 1.427-5.241 1.427-8.081z" fill="#bde4ff"/><path d="m145.074 173.081c-3.29 9-11.934 15.419-22.074 15.419-12.98 0-23.5-10.52-23.5-23.5 0-10.14 6.42-18.784 15.42-22.074-.92 2.52-1.42 5.234-1.42 8.074 0 12.98 10.52 23.5 23.5 23.5 2.84 0 5.554-.499 8.074-1.419z" fill="#99dbff"/></g><g fill="#bde4ff"><circle cx="223.904" cy="55.67" r="14"/><circle cx="185.75" cy="113.086" r="17.5"/><circle cx="150" cy="33.5" r="14"/></g><path d="m466.128 379.128-250.149-.628c-5.523 0-10-4.477-10-10l1.489-25.16c0-14.565 6.351-28.407 17.393-37.905l17.883-16.563c5.545-4.77 12.617-7.393 19.932-7.393l8.053-.979h148.683c7.315 0 14.387 2.623 19.932 7.393l20.512 17.645c11.042 9.499 17.393 23.34 17.393 37.905v22.057l-1.122 3.628c.001 5.523-4.476 10-9.999 10z" fill="#ff8086"/><path d="m477.25 365.5v5c0 5.523-4.477 10-10 10h-253c-5.523 0-10-4.477-10-10v-27.06c0-14.56 6.35-28.4 17.39-37.9l20.52-17.65c5.54-4.77 12.61-7.39 19.93-7.39h8.64l-39.3 36.41c-7.74 6.66-12.18 16.33-12.18 26.53v12.06c0 5.523 4.477 10 10 10z" fill="#e5646e"/></g><g><path d="m464.747 299.853-20.511-17.645c-6.902-5.938-15.718-9.208-24.823-9.208h-38.163v-44.5c0-6.893-5.607-12.5-12.5-12.5h-3v-126.856c0-4.143-3.357-7.5-7.5-7.5s-7.5 3.357-7.5 7.5v126.856h-20v-208.5c0-4.143-3.357-7.5-7.5-7.5s-7.5 3.357-7.5 7.5v208.5h-3c-6.893 0-12.5 5.607-12.5 12.5v13.5h-37.526c-4.143 0-7.5 3.357-7.5 7.5s3.357 7.5 7.5 7.5h37.526v16h-38.163c-9.105 0-17.921 3.271-24.822 9.208l-16.034 13.792h-39.981v-39h46.474c4.143 0 7.5-3.357 7.5-7.5s-3.357-7.5-7.5-7.5h-47.435c-2.796-9.247-11.392-16-21.539-16h-79c-10.147 0-18.743 6.753-21.539 16h-8.461c-12.406 0-22.5 10.094-22.5 22.5v34c0 6.893 5.607 12.5 12.5 12.5h17.5v87.5c0 6.384 4.813 11.656 11 12.401l6.33 84.902c.679 9.082 8.344 16.197 17.451 16.197h34.182c4.143 0 7.5-3.357 7.5-7.5s-3.357-7.5-7.5-7.5h-34.182c-1.301 0-2.396-1.017-2.492-2.313l-6.239-83.687h55.45c6.893 0 12.5-5.607 12.5-12.5v-17.5h17.5c6.893 0 12.5-5.607 12.5-12.5v-57.5h25.536c-6.472 9.463-10.036 20.735-10.036 32.443v27.057c0 9.228 7.184 16.791 16.25 17.437v109.063h-51.787c-4.143 0-7.5 3.357-7.5 7.5s3.357 7.5 7.5 7.5h299.787c4.143 0 7.5-3.357 7.5-7.5v-116.563c9.066-.645 16.25-8.209 16.25-17.437v-27.057c0-16.768-7.291-32.656-20.003-43.59zm-422.497-3.853v-31.5c0-4.136 3.364-7.5 7.5-7.5h7.5v39zm124 70h-15v-39.298c0-4.143-3.357-7.5-7.5-7.5s-7.5 3.357-7.5 7.5v46.798 22.5h-64v-147.5c0-4.136 3.364-7.5 7.5-7.5h32v24.383c0 4.143 3.357 7.5 7.5 7.5s7.5-3.357 7.5-7.5v-24.383h32c4.136 0 7.5 3.364 7.5 7.5zm149-135h51v42h-51zm-87.25 157h15.25v109h-15.25zm52.75 33.181c4.143 0 7.5-3.357 7.5-7.5v-25.681h15v109h-15v-48.319c0-4.143-3.357-7.5-7.5-7.5s-7.5 3.357-7.5 7.5v48.319h-15v-109h15v25.681c0 4.142 3.357 7.5 7.5 7.5zm142.5-33.181v109h-15v-109zm-30 109h-15v-109h15zm-30 0h-15v-109h15zm-30 0h-15v-109h15zm120.25 0h-15.25v-109h15.25zm16.25-126.5c0 1.379-1.121 2.5-2.5 2.5h-253c-1.379 0-2.5-1.121-2.5-2.5v-27.057c0-12.394 5.389-24.138 14.784-32.22l20.513-17.645c4.182-3.598 9.522-5.579 15.04-5.579h157.326c5.518 0 10.858 1.981 15.041 5.579l20.512 17.645c9.396 8.082 14.784 19.826 14.784 32.22z"/><path d="m358.25 61.644c4.143 0 7.5-3.357 7.5-7.5v-46.644c0-4.143-3.357-7.5-7.5-7.5s-7.5 3.357-7.5 7.5v46.644c0 4.142 3.357 7.5 7.5 7.5z"/><path d="m220 154.5c-19.575 0-35.5 15.925-35.5 35.5s15.925 35.5 35.5 35.5 35.5-15.925 35.5-35.5-15.925-35.5-35.5-35.5zm0 56c-11.304 0-20.5-9.196-20.5-20.5s9.196-20.5 20.5-20.5 20.5 9.196 20.5 20.5-9.196 20.5-20.5 20.5z"/><path d="m123 196c17.094 0 31-13.906 31-31s-13.906-31-31-31-31 13.906-31 31 13.906 31 31 31zm0-47c8.822 0 16 7.178 16 16s-7.178 16-16 16-16-7.178-16-16 7.178-16 16-16z"/><path d="m268 142c16.542 0 30-13.458 30-30s-13.458-30-30-30-30 13.458-30 30 13.458 30 30 30zm0-45c8.271 0 15 6.729 15 15s-6.729 15-15 15-15-6.729-15-15 6.729-15 15-15z"/><path d="m223.904 77.17c11.855 0 21.5-9.645 21.5-21.5s-9.645-21.5-21.5-21.5-21.5 9.645-21.5 21.5 9.645 21.5 21.5 21.5zm0-28c3.584 0 6.5 2.916 6.5 6.5s-2.916 6.5-6.5 6.5-6.5-2.916-6.5-6.5 2.916-6.5 6.5-6.5z"/><path d="m160.75 113.086c0 13.785 11.215 25 25 25s25-11.215 25-25-11.215-25-25-25-25 11.215-25 25zm25-10c5.514 0 10 4.486 10 10s-4.486 10-10 10-10-4.486-10-10 4.486-10 10-10z"/><path d="m150 55c11.855 0 21.5-9.645 21.5-21.5s-9.645-21.5-21.5-21.5-21.5 9.645-21.5 21.5 9.645 21.5 21.5 21.5zm0-28c3.584 0 6.5 2.916 6.5 6.5s-2.916 6.5-6.5 6.5-6.5-2.916-6.5-6.5 2.916-6.5 6.5-6.5z"/></g></g></svg>