<?xml version="1.0" encoding="UTF-8" standalone="no"?>
<!-- Created with Inkscape (http://www.inkscape.org/) -->

<svg
   version="1.1"
   id="svg1857"
   xml:space="preserve"
   width="682.66669"
   height="682.66669"
   viewBox="0 0 682.66669 682.66669"
   xmlns="http://www.w3.org/2000/svg"
   xmlns:svg="http://www.w3.org/2000/svg"><defs
     id="defs1861"><clipPath
       clipPathUnits="userSpaceOnUse"
       id="clipPath1871"><path
         d="M 0,512 H 512 V 0 H 0 Z"
         id="path1869" /></clipPath></defs><g
     id="g1863"
     transform="matrix(1.3333333,0,0,-1.3333333,0,682.66667)"><g
       id="g1865"><g
         id="g1867"
         clip-path="url(#clipPath1871)"><g
           id="g1873"
           transform="translate(256,7.3252)"><path
             d="m 0,0 c -8.535,0 -15.455,6.919 -15.455,15.455 v 39.859 c 0,8.535 6.92,15.455 15.455,15.455 8.535,0 15.455,-6.92 15.455,-15.455 V 15.455 C 15.455,6.919 8.535,0 0,0"
             style="fill:#fee45a;fill-opacity:1;fill-rule:nonzero;stroke:none"
             id="path1875" /></g><g
           id="g1877"
           transform="translate(263.7305,9.3999)"><path
             d="m 0,0 c -2.271,-1.32 -4.91,-2.07 -7.73,-2.07 -8.541,0 -15.46,6.91 -15.46,15.45 v 39.86 c 0,8.53 6.919,15.45 15.46,15.45 2.82,0 5.459,-0.75 7.73,-2.07 -4.62,-2.67 -7.73,-7.66 -7.73,-13.38 V 13.38 C -7.73,7.66 -4.62,2.67 0,0"
             style="fill:#fac600;fill-opacity:1;fill-rule:nonzero;stroke:none"
             id="path1879" /></g><g
           id="g1881"
           transform="translate(409.7109,313.3911)"><path
             d="m 0,0 c -5.342,0 -10.536,2.772 -13.399,7.73 -4.268,7.393 -1.736,16.845 5.657,21.112 l 34.518,19.93 c 7.392,4.268 16.845,1.735 21.113,-5.657 4.267,-7.392 1.735,-16.844 -5.658,-21.112 L 7.713,2.074 C 5.279,0.668 2.621,0 0,0"
             style="fill:#fee45a;fill-opacity:1;fill-rule:nonzero;stroke:none"
             id="path1883" /></g><g
           id="g1885"
           transform="translate(451.9404,335.3901)"><path
             d="m 0,0 -34.521,-19.93 c -2.429,-1.4 -5.089,-2.07 -7.709,-2.07 -5.34,0 -10.541,2.77 -13.401,7.73 -0.819,1.41 -1.38,2.9 -1.71,4.41 1.101,-0.26 2.221,-0.38 3.361,-0.38 2.62,0 5.28,0.66 7.709,2.07 l 34.521,19.93 c 5.979,3.46 8.779,10.31 7.359,16.72 4.08,-0.9 7.79,-3.45 10.05,-7.36 C 9.93,13.72 7.39,4.27 0,0"
             style="fill:#fac600;fill-opacity:1;fill-rule:nonzero;stroke:none"
             id="path1887" /></g><g
           id="g1889"
           transform="translate(67.7998,115.9888)"><path
             d="m 0,0 c -5.342,0 -10.537,2.771 -13.399,7.73 -4.268,7.392 -1.736,16.844 5.657,21.112 l 34.518,19.929 c 7.392,4.269 16.845,1.736 21.113,-5.656 4.267,-7.392 1.735,-16.844 -5.658,-21.113 L 7.713,2.073 C 5.279,0.668 2.621,0 0,0"
             style="fill:#fee45a;fill-opacity:1;fill-rule:nonzero;stroke:none"
             id="path1891" /></g><g
           id="g1893"
           transform="translate(117.7598,151.3599)"><path
             d="m 0,0 c -4.779,3.43 -11.319,3.95 -16.74,0.82 l -34.52,-19.93 c -4.95,-2.85 -7.719,-8.02 -7.73,-13.35 -1.739,1.23 -3.239,2.85 -4.369,4.82 -4.271,7.39 -1.731,16.84 5.659,21.11 l 34.52,19.93 c 7.39,4.27 16.84,1.74 21.111,-5.66 C -0.66,5.3 0.01,2.63 0,0"
             style="fill:#fac600;fill-opacity:1;fill-rule:nonzero;stroke:none"
             id="path1895" /></g><g
           id="g1897"
           transform="translate(444.2002,115.9888)"><path
             d="m 0,0 c -2.622,0 -5.279,0.667 -7.713,2.073 l -34.518,19.929 c -7.393,4.269 -9.925,13.721 -5.658,21.113 4.268,7.392 13.72,9.927 21.113,5.656 L 7.742,28.842 C 15.135,24.574 17.667,15.122 13.399,7.73 10.537,2.772 5.342,0 0,0"
             style="fill:#fee45a;fill-opacity:1;fill-rule:nonzero;stroke:none"
             id="path1899" /></g><g
           id="g1901"
           transform="translate(457.5996,123.7202)"><path
             d="m 0,0 c -2.859,-4.96 -8.06,-7.73 -13.399,-7.73 -2.621,0 -5.281,0.67 -7.71,2.07 L -55.63,14.27 c -7.39,4.27 -9.93,13.72 -5.66,21.11 1,1.73 2.28,3.2 3.761,4.36 0.809,-4.27 3.399,-8.16 7.449,-10.5 L -15.56,9.31 c 2.43,-1.41 5.09,-2.08 7.71,-2.08 3.481,0 6.89,1.18 9.64,3.37 C 2.471,7.09 1.931,3.34 0,0"
             style="fill:#fac600;fill-opacity:1;fill-rule:nonzero;stroke:none"
             id="path1903" /></g><g
           id="g1905"
           transform="translate(102.2891,313.3911)"><path
             d="m 0,0 c -2.622,0 -5.279,0.668 -7.713,2.074 l -34.518,19.929 c -7.393,4.268 -9.925,13.72 -5.658,21.112 4.267,7.392 13.72,9.927 21.113,5.657 L 7.742,28.842 C 15.135,24.575 17.667,15.123 13.399,7.73 10.537,2.772 5.342,0 0,0"
             style="fill:#fee45a;fill-opacity:1;fill-rule:nonzero;stroke:none"
             id="path1907" /></g><g
           id="g1909"
           transform="translate(115.6904,321.1201)"><path
             d="m 0,0 c -2.271,-3.93 -6,-6.49 -10.11,-7.37 1.389,6.39 -1.411,13.21 -7.37,16.66 L -52,29.22 c -3.471,2 -7.391,2.51 -11.011,1.71 0.321,1.53 0.891,3.03 1.721,4.46 4.269,7.39 13.72,9.92 21.109,5.65 L -5.66,21.11 C 1.729,16.85 4.27,7.39 0,0"
             style="fill:#fac600;fill-opacity:1;fill-rule:nonzero;stroke:none"
             id="path1911" /></g><g
           id="g1913"
           transform="translate(316.4141,350.5249)"><path
             d="m 0,0 h -120.828 v 92.023 c 0,7.867 6.377,14.245 14.245,14.245 h 92.338 C -6.377,106.268 0,99.89 0,92.023 Z"
             style="fill:#d9e7ec;fill-opacity:1;fill-rule:nonzero;stroke:none"
             id="path1915" /></g><g
           id="g1917"
           transform="translate(316.4102,442.5498)"><path
             d="M 0,0 V -92.03 H -20 V 0 c 0,7.87 -6.37,14.24 -14.24,14.24 h 20 C -6.37,14.24 0,7.87 0,0"
             style="fill:#c5d3dd;fill-opacity:1;fill-rule:nonzero;stroke:none"
             id="path1919" /></g><g
           id="g1921"
           transform="translate(195.5859,402.4077)"><path
             d="m 0,0 v 40.14 c 0,7.867 6.377,14.245 14.245,14.245 h 92.338 c 7.868,0 14.245,-6.378 14.245,-14.245 V -51.883 H 0 v 17.713"
             style="fill:none;stroke:#000000;stroke-width:15;stroke-linecap:round;stroke-linejoin:round;stroke-miterlimit:10;stroke-dasharray:none;stroke-opacity:1"
             id="path1923" /></g><g
           id="g1925"
           transform="translate(316.4141,415.0098)"><path
             d="m 0,0 h -120.828 v 27.538 c 0,7.867 6.377,14.245 14.245,14.245 h 92.338 C -6.377,41.783 0,35.405 0,27.538 Z"
             style="fill:#9facba;fill-opacity:1;fill-rule:nonzero;stroke:none"
             id="path1927" /></g><g
           id="g1929"
           transform="translate(316.4102,442.5498)"><path
             d="M 0,0 V -27.54 H -20 V 0 c 0,7.87 -6.37,14.24 -14.24,14.24 h 20 C -6.37,14.24 0,7.87 0,0"
             style="fill:#8d9ca8;fill-opacity:1;fill-rule:nonzero;stroke:none"
             id="path1931" /></g><g
           id="g1933"
           transform="translate(316.4141,415.0098)"><path
             d="m 0,0 h -120.828 v 27.538 c 0,7.867 6.377,14.245 14.245,14.245 h 92.338 C -6.377,41.783 0,35.405 0,27.538 Z"
             style="fill:none;stroke:#000000;stroke-width:15;stroke-linecap:round;stroke-linejoin:round;stroke-miterlimit:10;stroke-dasharray:none;stroke-opacity:1"
             id="path1935" /></g><g
           id="g1937"
           transform="translate(293.7256,456.793)"><path
             d="m 0,0 h -75.451 v 10.157 c 0,20.835 16.89,37.725 37.725,37.725 C -16.891,47.882 0,30.992 0,10.157 Z"
             style="fill:#7a8d98;fill-opacity:1;fill-rule:nonzero;stroke:none"
             id="path1939" /></g><g
           id="g1941"
           transform="translate(293.7305,466.9502)"><path
             d="m 0,0 v -10.16 h -18.561 v 3.94 c 0,10.42 -4.219,19.85 -11.049,26.68 -6.83,6.83 -16.26,11.05 -26.68,11.05 -0.771,0 -1.54,-0.02 -2.301,-0.07 5.981,3.97 13.151,6.28 20.861,6.28 10.419,0 19.849,-4.22 26.679,-11.05 C -4.221,19.85 0,10.41 0,0"
             style="fill:#596c76;fill-opacity:1;fill-rule:nonzero;stroke:none"
             id="path1943" /></g><g
           id="g1945"
           transform="translate(293.7256,456.793)"><path
             d="m 0,0 h -75.451 v 10.157 c 0,20.835 16.89,37.725 37.725,37.725 C -16.891,47.882 0,30.992 0,10.157 Z"
             style="fill:none;stroke:#000000;stroke-width:15;stroke-linecap:round;stroke-linejoin:round;stroke-miterlimit:10;stroke-dasharray:none;stroke-opacity:1"
             id="path1947" /></g><g
           id="g1949"
           transform="translate(382.8262,240.1123)"><path
             d="m 0,0 c 0,-70.044 -56.782,-126.826 -126.826,-126.826 -70.044,0 -126.826,56.782 -126.826,126.826 0,70.044 56.782,126.826 126.826,126.826 C -56.782,126.826 0,70.044 0,0"
             style="fill:#fee45a;fill-opacity:1;fill-rule:nonzero;stroke:none"
             id="path1951" /></g><g
           id="g1953"
           transform="translate(382.8301,240.1099)"><path
             d="m 0,0 c 0,-70.04 -56.79,-126.82 -126.83,-126.82 -23.68,0 -45.84,6.49 -64.8,17.78 13.67,-5.03 28.44,-7.78 43.85,-7.78 70.05,0 126.83,56.78 126.83,126.82 0,46.37 -24.88,86.92 -62.02,109.04 C -34.54,101.19 0,54.63 0,0"
             style="fill:#fac600;fill-opacity:1;fill-rule:nonzero;stroke:none"
             id="path1955" /></g><g
           id="g1957"
           transform="translate(333.5049,139.7163)"><path
             d="m 0,0 c -21.433,-16.57 -48.317,-26.43 -77.505,-26.43 -70.044,0 -126.826,56.782 -126.826,126.826 0,70.044 56.782,126.826 126.826,126.826 70.044,0 126.826,-56.782 126.826,-126.826 0,-28.426 -9.351,-54.667 -25.146,-75.816"
             style="fill:none;stroke:#000000;stroke-width:15;stroke-linecap:round;stroke-linejoin:round;stroke-miterlimit:10;stroke-dasharray:none;stroke-opacity:1"
             id="path1959" /></g><g
           id="g1961"
           transform="translate(256,7.3252)"><path
             d="m 0,0 c -8.535,0 -15.455,6.919 -15.455,15.455 v 39.859 c 0,8.535 6.92,15.455 15.455,15.455 8.535,0 15.455,-6.92 15.455,-15.455 V 15.455 C 15.455,6.919 8.535,0 0,0 Z"
             style="fill:none;stroke:#000000;stroke-width:15;stroke-linecap:round;stroke-linejoin:round;stroke-miterlimit:10;stroke-dasharray:none;stroke-opacity:1"
             id="path1963" /></g><g
           id="g1965"
           transform="translate(444.2002,115.9888)"><path
             d="m 0,0 c -2.622,0 -5.279,0.667 -7.713,2.073 l -34.518,19.929 c -7.393,4.269 -9.925,13.721 -5.658,21.113 4.268,7.392 13.72,9.927 21.113,5.656 L 7.742,28.842 C 15.135,24.574 17.667,15.122 13.399,7.73 10.537,2.772 5.342,0 0,0 Z"
             style="fill:none;stroke:#000000;stroke-width:15;stroke-linecap:round;stroke-linejoin:round;stroke-miterlimit:10;stroke-dasharray:none;stroke-opacity:1"
             id="path1967" /></g><g
           id="g1969"
           transform="translate(102.2891,313.3911)"><path
             d="m 0,0 c -2.622,0 -5.279,0.668 -7.713,2.074 l -34.518,19.929 c -7.393,4.268 -9.925,13.72 -5.658,21.112 4.267,7.392 13.72,9.927 21.113,5.657 L 7.742,28.842 C 15.135,24.575 17.667,15.123 13.399,7.73 10.537,2.772 5.342,0 0,0 Z"
             style="fill:none;stroke:#000000;stroke-width:15;stroke-linecap:round;stroke-linejoin:round;stroke-miterlimit:10;stroke-dasharray:none;stroke-opacity:1"
             id="path1971" /></g><g
           id="g1973"
           transform="translate(409.7109,313.3911)"><path
             d="m 0,0 c -5.342,0 -10.536,2.772 -13.399,7.73 -4.268,7.393 -1.736,16.845 5.657,21.112 l 34.518,19.93 c 7.392,4.268 16.845,1.735 21.113,-5.657 4.267,-7.392 1.735,-16.844 -5.658,-21.112 L 7.713,2.074 C 5.279,0.668 2.621,0 0,0 Z"
             style="fill:none;stroke:#000000;stroke-width:15;stroke-linecap:round;stroke-linejoin:round;stroke-miterlimit:10;stroke-dasharray:none;stroke-opacity:1"
             id="path1975" /></g><g
           id="g1977"
           transform="translate(67.7998,115.9888)"><path
             d="m 0,0 c -5.342,0 -10.537,2.771 -13.399,7.73 -4.268,7.392 -1.736,16.844 5.657,21.112 l 34.518,19.929 c 7.392,4.269 16.845,1.736 21.113,-5.656 4.267,-7.392 1.735,-16.844 -5.658,-21.113 L 7.713,2.073 C 5.279,0.668 2.621,0 0,0 Z"
             style="fill:none;stroke:#000000;stroke-width:15;stroke-linecap:round;stroke-linejoin:round;stroke-miterlimit:10;stroke-dasharray:none;stroke-opacity:1"
             id="path1979" /></g></g></g></g></svg>
