<svg id="Capa_1" enable-background="new 0 0 512 512" height="512" viewBox="0 0 512 512" width="512" xmlns="http://www.w3.org/2000/svg"><g><g><path d="m25.305 200.112 15.597 261.536c.284 4.754 4.222 8.464 8.984 8.464h50.645c4.971 0 9-4.029 9-9v-16.19c0-3.866 3.134-7 7-7h278.936c3.866 0 7 3.134 7 7v16.19c0 4.971 4.029 9 9 9h50.645c4.762 0 8.701-3.71 8.984-8.464l15.597-261.536z" fill="#5f99d7"/><g fill="#0268b4"><path d="m276.69 272.142h-42c-7.732 0-14-6.268-14-14 0-7.732 6.268-14 14-14h42c7.732 0 14 6.268 14 14 0 7.732-6.268 14-14 14z"/><path d="m276.69 337.079h-42c-7.732 0-14-6.268-14-14 0-7.732 6.268-14 14-14h42c7.732 0 14 6.268 14 14 0 7.732-6.268 14-14 14z"/><path d="m276.69 402.016h-42c-7.732 0-14-6.268-14-14 0-7.732 6.268-14 14-14h42c7.732 0 14 6.268 14 14 0 7.732-6.268 14-14 14z"/><path d="m137.932 272.142h-42c-7.732 0-14-6.268-14-14 0-7.732 6.268-14 14-14h42c7.732 0 14 6.268 14 14 0 7.732-6.268 14-14 14z"/><path d="m137.932 337.079h-42c-7.732 0-14-6.268-14-14 0-7.732 6.268-14 14-14h42c7.732 0 14 6.268 14 14 0 7.732-6.268 14-14 14z"/><path d="m137.932 402.016h-42c-7.732 0-14-6.268-14-14 0-7.732 6.268-14 14-14h42c7.732 0 14 6.268 14 14 0 7.732-6.268 14-14 14z"/><path d="m416.068 272.142h-42c-7.732 0-14-6.268-14-14 0-7.732 6.268-14 14-14h42c7.732 0 14 6.268 14 14 0 7.732-6.268 14-14 14z"/><path d="m416.068 337.079h-42c-7.732 0-14-6.268-14-14 0-7.732 6.268-14 14-14h42c7.732 0 14 6.268 14 14 0 7.732-6.268 14-14 14z"/><path d="m416.068 402.016h-42c-7.732 0-14-6.268-14-14 0-7.732 6.268-14 14-14h42c7.732 0 14 6.268 14 14 0 7.732-6.268 14-14 14z"/></g><g><path d="m447.01 200.112-15.597 261.536c-.284 4.754-4.222 8.464-8.984 8.464h39.685c4.763 0 8.701-3.71 8.984-8.464l15.597-261.536z" fill="#3c87d0"/></g><path d="m455.649 177.282h-399.299v-32.406c0-13.436 10.892-24.329 24.329-24.329h350.641c13.436 0 24.329 10.892 24.329 24.329z" fill="#eb5569"/><path d="m435.989 81.218c11.097-.003 20.046-9.197 19.648-20.383-.38-10.655-9.461-18.946-20.123-18.946-3.582 0-353.478 0-352.855 0-14.53 0-26.308 11.779-26.308 26.308v26.042c0 14.53 11.779 26.308 26.308 26.308h353.326c10.86 0 19.665-8.804 19.665-19.665-.001-10.859-8.802-19.662-19.661-19.664z" fill="#0ab69f"/><path d="m487.779 210.725h-463.558c-9.235 0-16.721-7.486-16.721-16.721 0-9.235 7.486-16.721 16.721-16.721h463.557c9.235 0 16.721 7.486 16.721 16.721.001 9.234-7.485 16.721-16.72 16.721z" fill="#98bce5"/><path d="m487.779 177.282h-39.685c9.235 0 16.721 7.486 16.721 16.721 0 9.235-7.486 16.721-16.721 16.721h39.685c9.235 0 16.721-7.487 16.721-16.721 0-9.235-7.486-16.721-16.721-16.721z" fill="#7bacdf"/><path d="m435.989 81.218c2.605-.001 5.083-.524 7.358-1.444-.674-3.45-3.71-6.056-7.358-6.056h-322.053c-4.142 0-7.5 3.358-7.5 7.5s3.358 7.5 7.5 7.5h322.053c3.65 0 6.687-2.608 7.359-6.061-2.275-.92-4.755-1.439-7.359-1.439z" fill="#01998d"/></g><g><path d="m512 194.003c0-13.356-10.866-24.222-24.222-24.222h-24.629v-24.906c0-9.056-3.808-17.235-9.9-23.036 6.042-4.986 9.9-12.53 9.9-20.957 0-7.728-3.245-14.713-8.443-19.665 5.198-4.952 8.443-11.937 8.443-19.665 0-.324-.006-.649-.018-.985-.523-14.68-12.655-26.179-27.618-26.179h-38.107c-4.142 0-7.5 3.358-7.5 7.5s3.358 7.5 7.5 7.5h38.107c6.733 0 12.397 5.255 12.627 11.705.005.154.008.308.008.46 0 6.707-5.456 12.164-12.162 12.165h-322.05c-4.142 0-7.5 3.358-7.5 7.5s3.358 7.5 7.5 7.5h322.052c6.706.001 12.162 5.458 12.162 12.165 0 6.708-5.457 12.165-12.165 12.165-10.5 0-351.375 0-353.326 0-10.371 0-18.808-8.438-18.808-18.808v-26.044c0-10.371 8.438-18.808 18.808-18.808h279.629c4.142 0 7.5-3.358 7.5-7.5s-3.358-7.5-7.5-7.5h-279.629c-18.642 0-33.808 15.166-33.808 33.808v26.042c0 10.325 4.658 19.578 11.977 25.785-7.293 5.838-11.977 14.806-11.977 24.852v24.906h-24.629c-13.356.001-24.222 10.866-24.222 24.222 0 11.504 8.065 21.154 18.836 23.61l5.331 89.387c.238 3.983 3.542 7.054 7.48 7.054.15 0 .301-.004.453-.013 4.135-.247 7.287-3.798 7.041-7.933l-5.241-87.883h444.202l-14.492 242.977c-.047.791-.705 1.41-1.497 1.41h-50.646c-.827 0-1.5-.673-1.5-1.5v-16.19c0-7.995-6.505-14.5-14.5-14.5h-278.935c-7.995 0-14.5 6.505-14.5 14.5v16.19c0 .827-.673 1.5-1.5 1.5h-50.645c-.792 0-1.45-.62-1.497-1.411l-7.166-120.155c-.247-4.134-3.783-7.273-7.933-7.041-4.135.247-7.287 3.798-7.041 7.933l7.166 120.155c.519 8.702 7.753 15.519 16.471 15.519h50.646c9.098 0 16.5-7.402 16.5-16.5v-15.69h277.936v15.69c0 9.098 7.402 16.5 16.5 16.5h50.646c8.717 0 15.952-6.816 16.471-15.518l14.58-244.48c10.769-2.457 18.834-12.106 18.834-23.611zm-448.149-49.128c0-9.279 7.549-16.829 16.829-16.829h350.642c9.279 0 16.829 7.549 16.829 16.829v24.906h-384.3zm423.927 58.35c-12.457 0-451.105 0-463.557 0-5.085 0-9.222-4.137-9.222-9.221 0-5.085 4.137-9.222 9.222-9.222h463.557c5.085 0 9.222 4.137 9.222 9.222 0 5.084-4.137 9.221-9.222 9.221z"/><path d="m234.69 279.643h42c11.855 0 21.5-9.645 21.5-21.5s-9.645-21.5-21.5-21.5h-42c-11.855 0-21.5 9.645-21.5 21.5s9.645 21.5 21.5 21.5zm0-28h42c3.584 0 6.5 2.916 6.5 6.5s-2.916 6.5-6.5 6.5h-42c-3.584 0-6.5-2.916-6.5-6.5s2.916-6.5 6.5-6.5z"/><path d="m234.69 344.579h42c11.855 0 21.5-9.645 21.5-21.5s-9.645-21.5-21.5-21.5h-42c-11.855 0-21.5 9.645-21.5 21.5s9.645 21.5 21.5 21.5zm0-28h42c3.584 0 6.5 2.916 6.5 6.5s-2.916 6.5-6.5 6.5h-42c-3.584 0-6.5-2.916-6.5-6.5s2.916-6.5 6.5-6.5z"/><path d="m234.69 409.516h42c11.855 0 21.5-9.645 21.5-21.5s-9.645-21.5-21.5-21.5h-42c-11.855 0-21.5 9.645-21.5 21.5s9.645 21.5 21.5 21.5zm0-28h42c3.584 0 6.5 2.916 6.5 6.5s-2.916 6.5-6.5 6.5h-42c-3.584 0-6.5-2.916-6.5-6.5s2.916-6.5 6.5-6.5z"/><path d="m95.932 279.643h42c11.855 0 21.5-9.645 21.5-21.5s-9.645-21.5-21.5-21.5h-42c-11.855 0-21.5 9.645-21.5 21.5s9.645 21.5 21.5 21.5zm0-28h42c3.584 0 6.5 2.916 6.5 6.5s-2.916 6.5-6.5 6.5h-42c-3.584 0-6.5-2.916-6.5-6.5s2.916-6.5 6.5-6.5z"/><path d="m95.932 344.579h42c11.855 0 21.5-9.645 21.5-21.5s-9.645-21.5-21.5-21.5h-42c-11.855 0-21.5 9.645-21.5 21.5s9.645 21.5 21.5 21.5zm0-28h42c3.584 0 6.5 2.916 6.5 6.5s-2.916 6.5-6.5 6.5h-42c-3.584 0-6.5-2.916-6.5-6.5s2.916-6.5 6.5-6.5z"/><path d="m95.932 409.516h42c11.855 0 21.5-9.645 21.5-21.5s-9.645-21.5-21.5-21.5h-42c-11.855 0-21.5 9.645-21.5 21.5s9.645 21.5 21.5 21.5zm0-28h42c3.584 0 6.5 2.916 6.5 6.5s-2.916 6.5-6.5 6.5h-42c-3.584 0-6.5-2.916-6.5-6.5s2.916-6.5 6.5-6.5z"/><path d="m374.068 279.643h42c11.855 0 21.5-9.645 21.5-21.5s-9.645-21.5-21.5-21.5h-42c-11.855 0-21.5 9.645-21.5 21.5s9.645 21.5 21.5 21.5zm0-28h42c3.584 0 6.5 2.916 6.5 6.5s-2.916 6.5-6.5 6.5h-42c-3.584 0-6.5-2.916-6.5-6.5s2.916-6.5 6.5-6.5z"/><path d="m374.068 344.579h42c11.855 0 21.5-9.645 21.5-21.5s-9.645-21.5-21.5-21.5h-42c-11.855 0-21.5 9.645-21.5 21.5s9.645 21.5 21.5 21.5zm0-28h42c3.584 0 6.5 2.916 6.5 6.5s-2.916 6.5-6.5 6.5h-42c-3.584 0-6.5-2.916-6.5-6.5s2.916-6.5 6.5-6.5z"/><path d="m374.068 409.516h42c11.855 0 21.5-9.645 21.5-21.5s-9.645-21.5-21.5-21.5h-42c-11.855 0-21.5 9.645-21.5 21.5s9.645 21.5 21.5 21.5zm0-28h42c3.584 0 6.5 2.916 6.5 6.5s-2.916 6.5-6.5 6.5h-42c-3.584 0-6.5-2.916-6.5-6.5s2.916-6.5 6.5-6.5z"/></g></g></svg>