<svg id="Capa_1" enable-background="new 0 0 497 497" height="512" viewBox="0 0 497 497" width="512" xmlns="http://www.w3.org/2000/svg"><g><path d="m311 51v72h-308.649l-1.351-71c0-5.52 4.48-10 10-10l1-1h76.5l7.5 4.543 7.5-4.543h197.5c5.52 0 10 4.48 10 10z" fill="#857e87"/><path d="m311 111v12l-166.266 11.904-144.734-11.904v-72c0-5.523 4.477-10 10-10h2v58c0 6.627 5.373 12 12 12z" fill="#6f6571"/><path d="m88.5 41h15v82h-15z" fill="#6f6571"/><circle cx="265" cy="82" fill="#f8f7f7" r="16"/><circle cx="203" cy="82" fill="#f8f7f7" r="16"/><g fill="#8ce1a4"><path d="m126.02 59.5h-.01c-4.142 0-7.495 3.358-7.495 7.5s3.363 7.5 7.505 7.5c4.143 0 7.5-3.358 7.5-7.5s-3.358-7.5-7.5-7.5z"/><path d="m156.02 59.5h-.01c-4.142 0-7.495 3.358-7.495 7.5s3.363 7.5 7.505 7.5c4.143 0 7.5-3.358 7.5-7.5s-3.358-7.5-7.5-7.5z"/></g><g><path d="m151 104.5h-20c-4.143 0-7.5-3.358-7.5-7.5s3.357-7.5 7.5-7.5h20c4.143 0 7.5 3.358 7.5 7.5s-3.357 7.5-7.5 7.5z" fill="#f8f7f7"/></g><g><path d="m88.5 111h15v20.545h-15z" fill="#635a63"/></g><g><path d="m63 89.75h-30c-4.143 0-7.5-3.358-7.5-7.5s3.357-7.5 7.5-7.5h30c4.143 0 7.5 3.358 7.5 7.5s-3.357 7.5-7.5 7.5z" fill="#6f6571"/></g><path d="m311 123v323c0 5.52-4.48 6.521-10 6.521l-287.16.479c-5.52 0-10-4.48-10-10l-1.361-316.947 9.521-3.053z" fill="#f8f7f7"/><path d="m311 444v2c0 5.523-15.43 10-20.953 10h-280.047c-5.523 0-10-4.477-10-10v-323h12v310c0 6.075 4.925 11 11 11z" fill="#e8e8e8"/><path d="m269.5 278.5c0-62.684-51.316-113.5-114-113.5-28.179 0-53.96 10.269-73.804 27.269 0 0-7.347 7.49-10.856 11.465-17.661 20.009-25.51 45.98-25.51 74.766 0 62.684 47.486 109.511 110.17 109.511 29.493 0 56.339-8.197 76.638-26.638 3.356-3.049 9.63-8.78 9.63-8.78 17.261-19.883 27.732-45.777 27.732-74.093z" fill="#e8e8e8"/><path d="m242.454 351.795c-20.95 24.59-52.204 40.205-86.954 40.205-62.68 0-113.5-50.82-113.5-113.5 0-34.65 15.53-65.68 40.01-86.49-16.85 19.8-27.01 45.46-27.01 73.49 0 62.68 50.82 113.5 113.5 113.5 28.15 0 54.014-10.245 73.954-27.205z" fill="#d8d8d8"/><g><path d="m65 433.5h-35c-4.143 0-7.5-3.358-7.5-7.5s3.357-7.5 7.5-7.5h35c4.143 0 7.5 3.358 7.5 7.5s-3.357 7.5-7.5 7.5z" fill="#e8e8e8"/></g><g><path d="m226.18 322.97s-2.875 1.455-3.659 2.573c-14.928 21.288-36.821 33.915-65.106 33.915l-2.035 2.542c-9.73-10.68-13.415-33.028-2.335-52.628 2.02-3.57 6.097-9.066 6.157-12.766 3.21 3.93 9.486 7.981 20.766 8.681 14.85.93 29.441-5.181 33.191-8.681 3.36 8.76 5.291 19.754 13.021 26.364z" fill="#7bb1ff"/><path d="m157 311c-11.08 19.6-11.35 40.32-1.62 51 0 0-4.829-3.266-6.795-3.415-26.989-2.05-48.875-14.425-62.66-36.106-1.256-1.975-4.446-5.309-4.446-5.309 3.03-6.17 8.266-19.272 16.446-26.861 34.64-32.1 62.494-10.559 62.135 9.632-.06 3.699-1.04 7.489-3.06 11.059z" fill="#8ce1a4"/><path d="m209.56 299.5c-3.75 3.5-13.97 11.43-28.82 10.5-11.28-.7-17.47-6.13-20.68-10.06.36-20.19-26.42-38.04-61.06-5.94-8.18 7.59-14.49 17-17.52 23.17 0 0 .966-5.014.403-6.33-4.576-10.699-8.17-20.505-8.17-32.936 0-10.295 1.633-19.426 5.043-28.532.793-2.119 1.145-6.362 1.145-6.362 20.51.28 24.069 6.618 45.089 6.618 21.34 0 21.904-9.362 43.234-9.362 20.82 0 24.571 12.274 44.511 12.734l-1.872 42.67z" fill="#bde4ff"/><path d="m226.19 234.03c-6.38 5.44-11.27 11.91-14.66 18.95-19.94-.46-22.88-9.98-43.7-9.98-21.33 0-21.33 10-42.67 10-21.02 0-24.75-9.71-45.26-9.99 0 0 2.877-1.247 3.345-2.148 13.864-26.678 39.917-42.553 72.255-42.553 26.202 0 47.709 9.629 63.021 28.511 2.086 2.571 7.669 7.21 7.669 7.21z" fill="#8ce1a4"/><path d="m235.798 277.372c0 13.669-1.983 25.212-7.809 36.596-1.143 2.232-1.809 9.002-1.809 9.002-7.73-6.61-13.26-14.71-16.62-23.47-5.74-15.02-5.08-31.96 1.97-46.52 3.39-7.04 8.28-13.51 14.66-18.95 0 0 1.574 6.147 2.842 8.704 5.529 11.156 6.766 21.338 6.766 34.638z" fill="#ffe07d"/></g><g><path d="m155.38 362c-32.11-.05-59.98-18.21-73.9-44.83l2.573-10.478 6.467-3.472c.97 2.54 2.09 5.02 3.37 7.46 11 21.05 31.7 34.82 55.01 37.01l5.111 7.001z" fill="#7ad396"/><path d="m92.57 248.97c-4.36 9.26-6.57 19.19-6.57 29.53 0 8.59 1.51 16.88 4.52 24.72-.418.746-4.1 4.491-9.04 13.95-6.06-11.56-9.48-24.71-9.48-38.67 0-12.69 2.83-24.72 7.9-35.49l9.132-2.744 5.458 4.944c-.68 1.23-1.32 2.48-1.92 3.76z" fill="#99dbff"/><path d="m239 278.5c0 16.35-4.69 31.6-12.82 44.47l-7.765-2.236-2.095-8.574c5.69-10.24 8.68-21.79 8.68-33.66 0-11.86-2.99-23.42-8.67-33.67l1.766-11.67 8.094.87c8.12 12.87 12.81 28.12 12.81 44.47z" fill="#ffd064"/><path d="m226.18 322.97c-14.78 23.45-40.91 39.03-70.68 39.03-3.366-3.492-5.577-8.151-6.6-14.31 2.14.2 4.3.31 6.48.31h.12c24.02 0 46.01-12.15 58.84-32.51.69-1.09 1.35-2.2 1.98-3.33 2.75 3.9 6.04 7.53 9.86 10.81z" fill="#62a5f4"/><path d="m226.19 234.03c-3.83 3.26-7.12 6.9-9.86 10.8-.63-1.13-1.29-2.24-1.98-3.33-12.84-20.35-34.84-32.5-58.85-32.5-25.41 0-48.91 14.08-61.01 36.21-3.403-1.046-8.828-2.169-14.59-2.2 13.33-28.37 42.17-48.01 75.6-48.01 29.77 0 55.9 15.58 70.69 39.03z" fill="#7ad396"/></g><g><path d="m437 110.989h-128c-2.957 0-5.826.377-8.561 1.087 0 0-5.083 2.712-7.705 4.232-10.146 5.883-16.511 16.109-16.511 28.681h193.266c0-4.604-1.063-12.999-1.063-12.999-5.104-12.328-17.252-21.001-31.426-21.001z" fill="#bde4ff"/><path d="m468.427 131.991-65.033-.001c-.877 0-1.715-.379-2.276-1.053-3.853-4.627-9.639-7.587-16.117-7.587h-20c-6.478 0-12.264 2.96-16.117 7.587-.561.674-1.399 1.053-2.276 1.053h-44.688c-4.57 0-7.958-4.32-6.789-8.737 1.079-4.077 2.897-7.856 5.309-11.176-14.63 3.79-25.439 17.093-25.439 32.913l96.5 5.745 99.5-5.745c-.001-4.601-.914-8.989-2.574-12.999z" fill="#99dbff"/><path d="m451.202 454.138-158.681-.511c-8.086 0-14.717-6.41-14.991-14.492l-9.817-267.647h209.287l-7.228 215.51-4.868 16.245 3.862 13.757-.822 24.509c-.006.165-.014.329-.025.492 0 0-1.691 2.663-2.419 4.265-2.365 5.2-8.242 7.872-14.298 7.872z" fill="#bde4ff"/><path d="m467.919 442.001c-.51 7.85-7.049 13.999-14.969 13.999h-162.9c-8.09 0-14.72-6.41-14.99-14.49l-.822-24.51 4.284-15-5.29-15.001-7.232-215.51h15.34l7.15 251.191c.36 10.78 9.21 19.32 19.98 19.32z" fill="#99dbff"/><path d="m469.772 386.999-1.006 30.001h-192.628l-1.02-30z" fill="#7bb1ff"/><path d="m288.33 417h-14.092l-1.007-30.001 14.229.001z" fill="#62a5f4"/><path d="m483.812 171.989h-202.632l-21.992-2.617c-7.284 0-11.305-2.976-11.305-10.26v-.623c0-7.284 4.022-12.266 11.305-12.266l21.202-1.234h203.422c7.284 0 13.188 5.905 13.188 13.188v.623c0 7.285-5.905 13.189-13.188 13.189z" fill="#7bb1ff"/><path d="m281.18 171.989h-21.99c-7.29 0-13.19-5.9-13.19-13.19v-.62c0-7.29 5.9-13.19 13.19-13.19h21.2z" fill="#62a5f4"/><path d="m415.134 243.124-14.544-12.12c-4.809-4.007-7.589-9.943-7.589-16.203v-70.455c0-4.418-3.582-8-8-8h-20c-4.418 0-8 3.582-8 8v60.367c0 7.056-1.673 14.056-5.167 20.186-5 8.773-3.808 22.084 7.17 28.47 1.607.935 3.223 1.856 4.778 2.875l28.025 18.373c8.341 5.468 19.457 3.812 25.841-3.85 6.939-8.326 5.814-20.704-2.514-27.643z" fill="#f8f7f7"/></g></g></svg>