<?xml version="1.0" encoding="UTF-8" standalone="no"?>
<svg
   id="Capa_1"
   enable-background="new 0 0 512 512"
   height="512"
   viewBox="0 0 512 512"
   width="512"
   version="1.1"
   sodipodi:docname="laundry-basket-color.svg"
   inkscape:version="1.1.2 (0a00cf5339, 2022-02-04)"
   xmlns:inkscape="http://www.inkscape.org/namespaces/inkscape"
   xmlns:sodipodi="http://sodipodi.sourceforge.net/DTD/sodipodi-0.dtd"
   xmlns="http://www.w3.org/2000/svg"
   xmlns:svg="http://www.w3.org/2000/svg">
  <defs
     id="defs67" />
  <sodipodi:namedview
     id="namedview65"
     pagecolor="#ffffff"
     bordercolor="#666666"
     borderopacity="1.0"
     inkscape:pageshadow="2"
     inkscape:pageopacity="0.0"
     inkscape:pagecheckerboard="0"
     showgrid="false"
     inkscape:zoom="1.2304688"
     inkscape:cx="255.59365"
     inkscape:cy="255.59365"
     inkscape:window-width="1920"
     inkscape:window-height="1012"
     inkscape:window-x="0"
     inkscape:window-y="0"
     inkscape:window-maximized="1"
     inkscape:current-layer="Capa_1" />
  <g
     id="g62"
     transform="matrix(1.0311777,0,0,1.0311777,-7.9814803,-7.9814959)">
    <g
       id="g38">
      <path
         d="m 25.305,200.112 15.597,261.536 c 0.284,4.754 4.222,8.464 8.984,8.464 h 50.645 c 4.971,0 9,-4.029 9,-9 v -16.19 c 0,-3.866 3.134,-7 7,-7 h 278.936 c 3.866,0 7,3.134 7,7 v 16.19 c 0,4.971 4.029,9 9,9 h 50.645 c 4.762,0 8.701,-3.71 8.984,-8.464 l 15.597,-261.536 z"
         fill="#5f99d7"
         id="path2" />
      <g
         fill="#0268b4"
         id="g22">
        <path
           d="m 276.69,272.142 h -42 c -7.732,0 -14,-6.268 -14,-14 0,-7.732 6.268,-14 14,-14 h 42 c 7.732,0 14,6.268 14,14 0,7.732 -6.268,14 -14,14 z"
           id="path4" />
        <path
           d="m 276.69,337.079 h -42 c -7.732,0 -14,-6.268 -14,-14 0,-7.732 6.268,-14 14,-14 h 42 c 7.732,0 14,6.268 14,14 0,7.732 -6.268,14 -14,14 z"
           id="path6" />
        <path
           d="m 276.69,402.016 h -42 c -7.732,0 -14,-6.268 -14,-14 0,-7.732 6.268,-14 14,-14 h 42 c 7.732,0 14,6.268 14,14 0,7.732 -6.268,14 -14,14 z"
           id="path8" />
        <path
           d="m 137.932,272.142 h -42 c -7.732,0 -14,-6.268 -14,-14 0,-7.732 6.268,-14 14,-14 h 42 c 7.732,0 14,6.268 14,14 0,7.732 -6.268,14 -14,14 z"
           id="path10" />
        <path
           d="m 137.932,337.079 h -42 c -7.732,0 -14,-6.268 -14,-14 0,-7.732 6.268,-14 14,-14 h 42 c 7.732,0 14,6.268 14,14 0,7.732 -6.268,14 -14,14 z"
           id="path12" />
        <path
           d="m 137.932,402.016 h -42 c -7.732,0 -14,-6.268 -14,-14 0,-7.732 6.268,-14 14,-14 h 42 c 7.732,0 14,6.268 14,14 0,7.732 -6.268,14 -14,14 z"
           id="path14" />
        <path
           d="m 416.068,272.142 h -42 c -7.732,0 -14,-6.268 -14,-14 0,-7.732 6.268,-14 14,-14 h 42 c 7.732,0 14,6.268 14,14 0,7.732 -6.268,14 -14,14 z"
           id="path16" />
        <path
           d="m 416.068,337.079 h -42 c -7.732,0 -14,-6.268 -14,-14 0,-7.732 6.268,-14 14,-14 h 42 c 7.732,0 14,6.268 14,14 0,7.732 -6.268,14 -14,14 z"
           id="path18" />
        <path
           d="m 416.068,402.016 h -42 c -7.732,0 -14,-6.268 -14,-14 0,-7.732 6.268,-14 14,-14 h 42 c 7.732,0 14,6.268 14,14 0,7.732 -6.268,14 -14,14 z"
           id="path20" />
      </g>
      <g
         id="g26">
        <path
           d="m 447.01,200.112 -15.597,261.536 c -0.284,4.754 -4.222,8.464 -8.984,8.464 h 39.685 c 4.763,0 8.701,-3.71 8.984,-8.464 l 15.597,-261.536 z"
           fill="#3c87d0"
           id="path24" />
      </g>
      <path
         d="M 455.649,177.282 H 56.35 v -32.406 c 0,-13.436 10.892,-24.329 24.329,-24.329 H 431.32 c 13.436,0 24.329,10.892 24.329,24.329 z"
         fill="#eb5569"
         id="path28" />
      <path
         d="m 435.989,81.218 c 11.097,-0.003 20.046,-9.197 19.648,-20.383 -0.38,-10.655 -9.461,-18.946 -20.123,-18.946 -3.582,0 -353.478,0 -352.855,0 -14.53,0 -26.308,11.779 -26.308,26.308 v 26.042 c 0,14.53 11.779,26.308 26.308,26.308 h 353.326 c 10.86,0 19.665,-8.804 19.665,-19.665 -10e-4,-10.859 -8.802,-19.662 -19.661,-19.664 z"
         fill="#0ab69f"
         id="path30" />
      <path
         d="M 487.779,210.725 H 24.221 c -9.235,0 -16.721,-7.486 -16.721,-16.721 0,-9.235 7.486,-16.721 16.721,-16.721 h 463.557 c 9.235,0 16.721,7.486 16.721,16.721 10e-4,9.234 -7.485,16.721 -16.72,16.721 z"
         fill="#98bce5"
         id="path32" />
      <path
         d="m 487.779,177.282 h -39.685 c 9.235,0 16.721,7.486 16.721,16.721 0,9.235 -7.486,16.721 -16.721,16.721 h 39.685 c 9.235,0 16.721,-7.487 16.721,-16.721 0,-9.235 -7.486,-16.721 -16.721,-16.721 z"
         fill="#7bacdf"
         id="path34" />
      <path
         d="m 435.989,81.218 c 2.605,-0.001 5.083,-0.524 7.358,-1.444 -0.674,-3.45 -3.71,-6.056 -7.358,-6.056 H 113.936 c -4.142,0 -7.5,3.358 -7.5,7.5 0,4.142 3.358,7.5 7.5,7.5 h 322.053 c 3.65,0 6.687,-2.608 7.359,-6.061 -2.275,-0.92 -4.755,-1.439 -7.359,-1.439 z"
         fill="#01998d"
         id="path36" />
    </g>
    <g
       id="g60" />
  </g>
</svg>
