<?xml version="1.0" encoding="UTF-8" standalone="no"?>
<svg
   id="Capa_1"
   enable-background="new 0 0 512.008 512.008"
   height="512"
   viewBox="0 0 512.008 512.008"
   width="512"
   version="1.1"
   sodipodi:docname="living-room-color.svg"
   inkscape:version="1.1.2 (0a00cf5339, 2022-02-04)"
   xmlns:inkscape="http://www.inkscape.org/namespaces/inkscape"
   xmlns:sodipodi="http://sodipodi.sourceforge.net/DTD/sodipodi-0.dtd"
   xmlns="http://www.w3.org/2000/svg"
   xmlns:svg="http://www.w3.org/2000/svg">
  <defs
     id="defs51" />
  <sodipodi:namedview
     id="namedview49"
     pagecolor="#ffffff"
     bordercolor="#666666"
     borderopacity="1.0"
     inkscape:pageshadow="2"
     inkscape:pageopacity="0.0"
     inkscape:pagecheckerboard="0"
     showgrid="false"
     inkscape:zoom="1.2304688"
     inkscape:cx="255.59365"
     inkscape:cy="255.59365"
     inkscape:window-width="1920"
     inkscape:window-height="1012"
     inkscape:window-x="0"
     inkscape:window-y="0"
     inkscape:window-maximized="1"
     inkscape:current-layer="Capa_1" />
  <g
     id="g46"
     transform="matrix(1.0291535,0,0,1.0291535,-7.4633082,-7.4634173)">
    <path
       d="M 344.032,391.304 H 67.145 c -11.275,0 -20.416,-9.141 -20.416,-20.416 v -27.396 c 0,-11.275 9.141,-20.416 20.416,-20.416 h 276.888 c 11.275,0 20.416,9.141 20.416,20.416 v 27.396 c -0.001,11.275 -9.141,20.416 -20.417,20.416 z"
       fill="#e4989d"
       id="path2" />
    <path
       d="m 344.032,323.076 h -19.589 c 0.003,0.138 0.004,0.277 0.004,0.416 v 27.396 c 0,11.275 -9.14,20.416 -20.416,20.416 H 46.733 c 0.222,11.083 9.275,20 20.411,20 h 276.888 c 11.275,0 20.416,-9.141 20.416,-20.416 v -27.396 c 0,-11.276 -9.14,-20.416 -20.416,-20.416 z"
       fill="#e28086"
       id="path4" />
    <path
       d="m 369.073,266.353 h -7.757 c -9.545,0 -17.283,7.738 -17.283,17.283 v 39.44 c 11.275,0 20.416,9.141 20.416,20.416 v 27.396 c 0,11.275 -9.14,20.416 -20.416,20.416 H 67.145 c -11.275,0 -20.416,-9.141 -20.416,-20.416 v -27.396 c 0,-11.275 9.14,-20.416 20.416,-20.416 v -39.44 c 0,-9.545 -7.738,-17.283 -17.283,-17.283 H 42.105 C 22.993,266.353 7.5,281.846 7.5,300.958 v 85.011 c 0,22.904 18.567,41.471 41.471,41.471 h 313.236 c 22.904,0 41.471,-18.567 41.471,-41.471 v -85.011 c -10e-4,-19.112 -15.494,-34.605 -34.605,-34.605 z"
       fill="#dd636e"
       id="path6" />
    <path
       d="M 308.022,205.343 H 103.155 c -19.888,0 -36.011,16.122 -36.011,36.011 v 81.723 h 276.888 v -81.723 c 0,-19.889 -16.122,-36.011 -36.01,-36.011 z"
       fill="#da4a54"
       id="path8" />
    <g
       fill="#ffd064"
       id="g16">
      <path
         d="m 141.887,323.076 h -38.718 c -4.173,0 -7.556,-3.383 -7.556,-7.556 v -38.718 c 0,-4.173 3.383,-7.556 7.556,-7.556 h 38.718 c 4.173,0 7.556,3.383 7.556,7.556 v 38.718 c 0,4.173 -3.383,7.556 -7.556,7.556 z"
         id="path10" />
      <path
         d="M 224.947,323.076 H 186.23 c -4.173,0 -7.556,-3.383 -7.556,-7.556 v -38.718 c 0,-4.173 3.383,-7.556 7.556,-7.556 h 38.718 c 4.173,0 7.556,3.383 7.556,7.556 v 38.718 c -0.001,4.173 -3.384,7.556 -7.557,7.556 z"
         id="path12" />
      <path
         d="M 308.008,323.076 H 269.29 c -4.173,0 -7.556,-3.383 -7.556,-7.556 v -38.718 c 0,-4.173 3.383,-7.556 7.556,-7.556 h 38.718 c 4.173,0 7.556,3.383 7.556,7.556 v 38.718 c 0,4.173 -3.383,7.556 -7.556,7.556 z"
         id="path14" />
    </g>
    <path
       d="M 76.192,474.91 H 57.267 c -1.964,0 -3.594,-1.52 -3.729,-3.48 l -3.046,-43.991 h 32.476 l -3.046,43.991 c -0.136,1.959 -1.765,3.48 -3.73,3.48 z"
       fill="#c6865c"
       id="path18" />
    <path
       d="m 334.985,474.91 h 18.926 c 1.964,0 3.594,-1.52 3.729,-3.48 l 3.046,-43.991 H 328.21 l 3.046,43.991 c 0.135,1.959 1.764,3.48 3.729,3.48 z"
       fill="#c6865c"
       id="path20" />
    <path
       d="m 466.668,436.226 h -26.415 c -13.882,0 -26.415,8.311 -31.817,21.099 l -5.792,13.712 c -0.777,1.838 0.573,3.873 2.569,3.873 h 96.496 c 1.996,0 3.345,-2.035 2.569,-3.873 l -5.792,-13.712 c -5.403,-12.788 -17.936,-21.099 -31.818,-21.099 z"
       fill="#f6f9f9"
       id="path22" />
    <path
       d="m 440.253,223.57 h 26.415 v 212.655 h -26.415 z"
       fill="#b9c1cb"
       id="path24" />
    <path
       d="m 485.997,131.869 c -0.338,-1.718 -1.844,-2.956 -3.595,-2.956 h -57.883 c -1.751,0 -3.257,1.239 -3.595,2.956 l -13.021,66.188 h 91.114 z"
       fill="#f6f9f9"
       id="path26" />
    <path
       d="m 499.018,198.057 h -91.114 l -4.159,21.142 c -0.445,2.264 1.288,4.371 3.595,4.371 h 92.243 c 2.307,0 4.04,-2.107 3.595,-4.371 z"
       fill="#ffd064"
       id="path28" />
    <path
       d="m 169.351,94.507 c -2.125,-2.125 -5.571,-2.125 -7.696,0 l -58.982,58.983 c 0,4.639 3.76,8.399 8.399,8.399 h 125.661 z"
       fill="#78c2a4"
       id="path30" />
    <path
       d="m 169.351,94.507 36.238,36.238 36.238,-36.238 c 2.125,-2.125 5.571,-2.125 7.696,0 l 58.982,58.983 V 45.497 c 0,-4.639 -3.761,-8.399 -8.399,-8.399 H 111.071 c -4.639,0 -8.399,3.76 -8.399,8.399 v 107.992 l 58.982,-58.983 c 2.126,-2.125 5.571,-2.125 7.697,0.001 z"
       fill="#90d8f9"
       id="path32" />
    <path
       d="m 249.523,94.507 c -2.125,-2.125 -5.571,-2.125 -7.696,0 l -36.238,36.238 31.144,31.144 h 63.373 c 4.639,0 8.399,-3.761 8.399,-8.399 z"
       fill="#66b394"
       id="path34" />
    <circle
       cx="205.589"
       cy="75.856003"
       fill="#ffd064"
       r="13.758"
       id="circle36" />
  </g>
</svg>
