<?xml version="1.0" encoding="UTF-8" standalone="no"?>
<svg
   id="Capa_1"
   enable-background="new 0 0 512 512"
   height="512"
   viewBox="0 0 512 512"
   width="512"
   version="1.1"
   sodipodi:docname="microwave-color.svg"
   inkscape:version="1.1.2 (0a00cf5339, 2022-02-04)"
   xmlns:inkscape="http://www.inkscape.org/namespaces/inkscape"
   xmlns:sodipodi="http://sodipodi.sourceforge.net/DTD/sodipodi-0.dtd"
   xmlns="http://www.w3.org/2000/svg"
   xmlns:svg="http://www.w3.org/2000/svg">
  <defs
     id="defs49" />
  <sodipodi:namedview
     id="namedview47"
     pagecolor="#ffffff"
     bordercolor="#666666"
     borderopacity="1.0"
     inkscape:pageshadow="2"
     inkscape:pageopacity="0.0"
     inkscape:pagecheckerboard="0"
     showgrid="false"
     inkscape:zoom="1.2304688"
     inkscape:cx="255.59365"
     inkscape:cy="255.59365"
     inkscape:window-width="1920"
     inkscape:window-height="1012"
     inkscape:window-x="0"
     inkscape:window-y="0"
     inkscape:window-maximized="1"
     inkscape:current-layer="Capa_1" />
  <g
     id="g44"
     transform="matrix(1.0283998,0,0,1.0283998,-7.2703364,-7.2703364)">
    <g
       id="g30">
      <path
         d="M 103.275,444.678 H 58.623 c -3.753,0 -6.795,-3.042 -6.795,-6.795 v -52.902 h 58.242 v 52.902 c 0,3.752 -3.042,6.795 -6.795,6.795 z"
         fill="#465a61"
         id="path2" />
      <path
         d="m 454.993,444.678 h -44.652 c -3.753,0 -6.795,-3.042 -6.795,-6.795 v -52.902 h 58.242 v 52.902 c 0,3.752 -3.042,6.795 -6.795,6.795 z"
         fill="#465a61"
         id="path4" />
      <path
         d="M 405.488,411.428 H 36.621 C 20.538,411.428 7.5,398.39 7.5,382.307 V 96.444 C 7.5,80.361 20.538,67.323 36.621,67.323 h 368.867 z"
         fill="#596c76"
         id="path6" />
      <path
         d="M 475.379,411.428 H 380.25 V 67.322 h 95.129 c 16.083,0 29.121,13.038 29.121,29.121 v 285.863 c 0,16.084 -13.038,29.122 -29.121,29.122 z"
         fill="#8d9ca8"
         id="path8" />
      <path
         d="M 38.238,348.094 V 130.656 c 0,-6.969 5.65,-12.619 12.619,-12.619 h 255.295 c 6.969,0 12.619,5.65 12.619,12.619 v 217.438 c 0,6.969 -5.65,12.619 -12.619,12.619 H 50.857 c -6.97,0 -12.619,-5.65 -12.619,-12.619 z"
         fill="#e5eef9"
         id="path10" />
      <path
         d="M 349.188,369.449 V 109.301 c 0,-8.578 6.954,-15.531 15.531,-15.531 8.578,0 15.531,6.954 15.531,15.531 v 260.148 c 0,8.578 -6.954,15.531 -15.531,15.531 -8.578,10e-4 -15.531,-6.953 -15.531,-15.531 z"
         fill="#465a61"
         id="path12" />
      <path
         d="m 475.379,67.322 h -39.685 c 16.083,0 29.121,13.038 29.121,29.121 v 285.863 c 0,16.083 -13.038,29.121 -29.121,29.121 h 39.685 c 16.083,0 29.121,-13.038 29.121,-29.121 V 96.444 c 0,-16.084 -13.038,-29.122 -29.121,-29.122 z"
         fill="#7a8c98"
         id="path14" />
      <path
         d="m 409.371,199.255 v -89.543 c 0,-4.289 3.477,-7.766 7.766,-7.766 h 50.477 c 4.289,0 7.766,3.477 7.766,7.766 v 89.543 c 0,4.289 -3.477,7.766 -7.766,7.766 h -50.477 c -4.289,0 -7.766,-3.477 -7.766,-7.766 z"
         fill="#98bce5"
         id="path16" />
      <path
         d="m 475.379,109.712 c 0,-4.289 -3.477,-7.766 -7.766,-7.766 h -2.798 V 207.02 h 2.798 c 4.289,0 7.766,-3.477 7.766,-7.766 z"
         fill="#7bacdf"
         id="path18" />
      <circle
         cx="442.375"
         cy="267.44699"
         fill="#c5d3dd"
         r="24.056999"
         id="circle20" />
      <path
         d="m 464.815,276.117 c 1.04,-2.691 1.617,-5.612 1.617,-8.67 0,-3.058 -0.577,-5.979 -1.617,-8.67 z"
         fill="#b6c4cf"
         id="path22" />
      <circle
         cx="442.375"
         cy="352.74701"
         fill="#c5d3dd"
         r="24.056999"
         id="circle24" />
      <path
         d="m 464.815,361.417 c 1.04,-2.691 1.617,-5.612 1.617,-8.67 0,-3.058 -0.577,-5.979 -1.617,-8.67 z"
         fill="#b6c4cf"
         id="path26" />
      <path
         d="m 306.152,118.037 h -39.685 c 6.969,0 12.619,5.65 12.619,12.619 v 217.438 c 0,6.969 -5.65,12.619 -12.619,12.619 h 39.685 c 6.969,0 12.619,-5.65 12.619,-12.619 V 130.656 c 0,-6.969 -5.65,-12.619 -12.619,-12.619 z"
         fill="#d5e3f4"
         id="path28" />
    </g>
    <g
       id="g42" />
  </g>
</svg>
