<svg id="Capa_1" enable-background="new 0 0 512 512" height="512" viewBox="0 0 512 512" width="512" xmlns="http://www.w3.org/2000/svg"><g><g><circle cx="323.507" cy="254.97" fill="#d5e3f4" r="180.993"/><circle cx="323.507" cy="254.97" fill="#7bacdf" r="85.734"/><path d="m323.507 169.237c-4.829 0-9.56.422-14.173 1.193 40.55 6.777 71.561 42.096 71.561 84.541s-31.011 77.763-71.561 84.541c4.614.771 9.344 1.193 14.173 1.193 47.273 0 85.734-38.46 85.734-85.734s-38.461-85.734-85.734-85.734z" fill="#5f99d7"/><circle cx="148.51" cy="297.64" fill="#98bce5" r="141.01"/><circle cx="148.51" cy="297.64" fill="#7bacdf" r="66.794"/><path d="m148.51 230.846c-4.864 0-9.602.536-14.173 1.528 30.043 6.519 52.621 33.299 52.621 65.266s-22.578 58.747-52.621 65.266c4.571.992 9.31 1.528 14.173 1.528 36.83 0 66.794-29.964 66.794-66.794s-29.964-66.794-66.794-66.794z" fill="#5f99d7"/></g><g><path d="m222.804 297.64c0-40.966-33.328-74.294-74.294-74.294s-74.294 33.328-74.294 74.294 33.328 74.294 74.294 74.294 74.294-33.328 74.294-74.294zm-74.294 59.294c-32.694 0-59.294-26.6-59.294-59.294s26.6-59.294 59.294-59.294 59.294 26.6 59.294 59.294-26.6 59.294-59.294 59.294z"/><path d="m425.124 96.187c-3.487-2.235-8.126-1.223-10.362 2.265s-1.222 8.126 2.265 10.362c50.076 32.111 79.973 86.749 79.974 146.156 0 95.664-77.829 173.493-173.493 173.493-27.132 0-53.842-6.35-77.899-18.446 21.056-18.221 36.455-41.803 44.641-67.964 10.596 4.079 21.745 6.15 33.259 6.15 51.409 0 93.233-41.824 93.233-93.233s-41.824-93.233-93.233-93.233c-26.581 0-51.992 11.564-69.605 31.305-19.863-20.004-44.798-33.651-70.894-39.874 32.641-45.091 84.377-71.69 140.499-71.69 22.003 0 43.44 4.062 63.716 12.072 3.853 1.523 8.209-.366 9.731-4.22 1.521-3.853-.367-8.209-4.22-9.731-22.038-8.706-45.33-13.121-69.228-13.121-63.377 0-121.594 31.23-156.724 83.778-5.99-.738-12.087-1.125-18.273-1.125-81.89-.001-148.511 66.62-148.511 148.509 0 73.156 53.477 135.72 125.881 146.796 4.09.623 7.922-2.187 8.548-6.28.626-4.095-2.186-7.921-6.28-8.548-64.505-9.866-113.149-66.601-113.149-131.968 0-73.617 59.893-133.51 133.51-133.51 74.509 0 135.838 61.665 133.434 137.828-2.102 64.069-50.919 122.021-120.747 128.598-4.124.389-7.152 4.046-6.764 8.17.366 3.885 3.633 6.797 7.458 6.797.235 0 .473-.011.712-.033 25.313-2.384 49.324-11.197 69.976-25.405 27.741 15.298 59.064 23.378 90.927 23.378 103.936 0 188.494-84.557 188.494-188.493-.001-64.542-32.479-123.9-86.876-158.783zm-161.13 108.088c14.817-17.341 36.655-27.538 59.513-27.538 43.138 0 78.233 35.096 78.233 78.233s-35.096 78.233-78.233 78.233c-10.235 0-20.127-1.942-29.485-5.783 8.558-42.09-1.25-87.585-30.028-123.145z"/></g></g></svg>