<?xml version="1.0" encoding="iso-8859-1"?>
<!-- Generator: Adobe Illustrator 19.0.0, SVG Export Plug-In . SVG Version: 6.00 Build 0)  -->
<svg version="1.1" id="Capa_1" xmlns="http://www.w3.org/2000/svg" xmlns:xlink="http://www.w3.org/1999/xlink" x="0px" y="0px"
	 viewBox="0 0 512.001 512.001" style="enable-background:new 0 0 512.001 512.001;" xml:space="preserve">
<path style="fill:#FFFFFF;" d="M488.82,323.074h-63.238c-2.75,0-5,2.25-5,5v11.375c0,1.628,0.8,3.066,2.014,3.982
	c0.837-0.63,1.864-1.019,2.986-1.019h63.238c1.122,0,2.149,0.389,2.986,1.019c1.214-0.915,2.014-2.354,2.014-3.982v-11.375
	C493.82,325.324,491.57,323.074,488.82,323.074z"/>
<path style="fill:#B1E8FF;" d="M493.621,360.103c0.117-0.422,0.199-0.858,0.199-1.316v-11.375c0-2.75-2.25-5-5-5h-63.238
	c-2.75,0-5,2.25-5,5v11.375c0,0.458,0.082,0.895,0.199,1.316H493.621z"/>
<g>
	<path style="fill:#FFAF68;" d="M409.9,426.897v20.76c0,2.75,2.25,5,5,5h9.006c2.75,0,5-2.25,5-5v-20.76H409.9z"/>
	<path style="fill:#FFAF68;" d="M485.494,447.656c0,2.75,2.25,5,5,5h9.006c2.75,0,5-2.25,5-5v-20.76h-19.006V447.656z"/>
</g>
<rect x="409.9" y="405.68" style="fill:#CB7C52;" width="94.6" height="21.21"/>
<path style="fill:#AB5436;" d="M499.414,360.103h-84.428c-2.797,0-5.086,2.289-5.086,5.09v40.488h94.6v-40.488
	C504.5,362.393,502.212,360.103,499.414,360.103z"/>
<path style="fill:#63C3EA;" d="M75.782,447.566v-18.395H20.12c-2.75,0-5,2.25-5,5v13.557c0,2.75,2.25,5,5,5h56.028
	c0.88,0,1.696-0.25,2.416-0.653C76.923,451.228,75.782,449.533,75.782,447.566z"/>
<g style="opacity:0.1;">
	<path d="M37,447.728v-13.557c0-2.75,2.25-5,5-5H20.12c-2.75,0-5,2.25-5,5v13.557c0,2.75,2.25,5,5,5H42
		C39.25,452.728,37,450.478,37,447.728z"/>
</g>
<path style="fill:#FF9F3D;" d="M88.77,230.85c0,2.75-2.25,5-5,5H12.5c-2.75,0-5-2.25-5-5v-90.768c0-2.75,2.25-5,5-5h71.27
	c2.75,0,5,2.25,5,5V230.85z"/>
<g style="opacity:0.1;">
	<path d="M29,230.85v-90.768c0-2.75,2.25-5,5-5H12.5c-2.75,0-5,2.25-5,5v90.768c0,2.75,2.25,5,5,5H34
		C31.25,235.85,29,233.6,29,230.85z"/>
</g>
<path style="fill:#FFBB4A;" d="M361.787,268.109H121.384c-5.5,0-10,4.5-10,10v59.931c5.122,0.515,9.155,4.872,9.155,10.126v27.412
	h242.093v-27.412c0-5.254,4.033-9.611,9.155-10.126v-59.931C371.787,272.609,367.287,268.109,361.787,268.109z"/>
<path style="opacity:0.1;enable-background:new    ;" d="M120.539,375.578h13.856c-0.88-1.488-1.395-3.214-1.395-5.059v-92.41
	c0-5.5,4.5-10,10-10h-21.616c-5.5,0-10,4.5-10,10v59.931c5.122,0.515,9.155,4.872,9.155,10.126V375.578z"/>
<g>
	<path style="fill:#3EAF91;" d="M154.06,375.578h48.919c1.763-0.775,3.005-2.535,3.005-4.576v-44.965c0-2.75-2.25-5-5-5h-44.929
		c-2.75,0-5,2.25-5,5v44.965C151.055,373.043,152.297,374.803,154.06,375.578z"/>
	<path style="fill:#3EAF91;" d="M284.261,375.578h48.919c1.763-0.775,3.005-2.535,3.005-4.576v-44.965c0-2.75-2.25-5-5-5h-44.929
		c-2.75,0-5,2.25-5,5v44.965C281.256,373.043,282.498,374.803,284.261,375.578z"/>
</g>
<rect x="120.54" y="375.58" style="fill:#FF9F3D;" width="242.09" height="51.45"/>
<path style="fill:#FCC96C;" d="M110.366,337.988H85.954c-5.595,0-10.172,4.58-10.172,10.178v99.4c0,2.799,2.288,5.09,5.086,5.09
	h34.585c2.797,0,5.086-2.291,5.086-5.09v-99.4C120.539,342.568,115.961,337.988,110.366,337.988z"/>
<g style="opacity:0.1;">
	<path d="M97.243,447.566v-99.4c0-5.598,4.577-10.178,10.172-10.178H85.954c-5.595,0-10.172,4.58-10.172,10.178v99.4
		c0,2.799,2.288,5.09,5.086,5.09h21.461C99.531,452.656,97.243,450.365,97.243,447.566z"/>
</g>
<path style="fill:#FCC96C;" d="M397.217,337.988h-24.413c-5.595,0-10.172,4.58-10.172,10.178v99.4c0,2.799,2.289,5.09,5.086,5.09
	h34.585c2.797,0,5.086-2.291,5.086-5.09v-99.4C407.389,342.568,402.811,337.988,397.217,337.988z"/>
<g style="opacity:0.1;">
	<path d="M379,447.566v-99.4c0-5.598,4.577-10.178,10.172-10.178h-16.368c-5.595,0-10.172,4.58-10.172,10.178v99.4
		c0,2.799,2.289,5.09,5.086,5.09h16.368C381.289,452.656,379,450.365,379,447.566z"/>
</g>
<path style="fill:#AB5436;" d="M353.958,82.316H129.213c-2.916,0-5.301,2.387-5.301,5.305v124.115c0,2.918,2.385,5.305,5.301,5.305
	h224.745c2.915,0,5.301-2.387,5.301-5.305V87.621C359.259,84.703,356.873,82.316,353.958,82.316z"/>
<rect x="145.11" y="103.53" style="fill:#B1E8FF;" width="192.94" height="92.29"/>
<path style="fill:#86D5B5;" d="M330.02,195.822c1.65,0,2.262-1.13,1.358-2.511l-30.872-47.209c-0.902-1.381-2.381-1.381-3.283,0
	l-30.869,47.209c-0.902,1.381-0.292,2.511,1.358,2.511H330.02z"/>
<g style="opacity:0.1;">
	<rect x="145.11" y="103.53" width="16.886" height="92.29"/>
</g>
<g>
	<path style="fill:#FFBB4A;" d="M409.839,268c-1.167,0-2.196-0.766-2.54-1.893c-4.17-13.547-7.035-16.445-20.429-20.665
		c-1.112-0.351-1.87-1.391-1.87-2.573c0-1.177,0.758-2.221,1.87-2.571c13.394-4.217,16.259-7.114,20.429-20.665
		c0.344-1.123,1.373-1.893,2.54-1.893c1.168,0,2.196,0.77,2.544,1.893c4.172,13.551,7.031,16.448,20.425,20.665
		c1.113,0.351,1.87,1.395,1.87,2.571c0,1.183-0.757,2.223-1.87,2.573c-13.393,4.22-16.253,7.118-20.425,20.665
		C412.035,267.234,411.007,268,409.839,268z"/>
	<path style="fill:#FFBB4A;" d="M446.492,161c-1.292,0-2.432-0.848-2.811-2.097c-4.618-15.002-7.792-18.212-22.624-22.886
		c-1.232-0.388-2.07-1.538-2.07-2.848c0-1.303,0.838-2.459,2.07-2.847c14.832-4.671,18.006-7.879,22.624-22.887
		c0.38-1.244,1.52-2.095,2.811-2.095c1.295,0,2.432,0.851,2.816,2.095c4.622,15.008,7.79,18.216,22.621,22.887
		c1.232,0.388,2.07,1.544,2.07,2.847c0,1.31-0.838,2.46-2.07,2.848c-14.831,4.674-17.999,7.884-22.621,22.886
		C448.924,160.152,447.787,161,446.492,161z"/>
	<path style="fill:#FFBB4A;" d="M77,100.861c-0.966,0-1.817-0.635-2.103-1.566c-3.45-11.211-5.821-13.609-16.905-17.102
		c-0.92-0.289-1.547-1.15-1.547-2.129c0-0.973,0.627-1.838,1.547-2.127c11.084-3.49,13.455-5.887,16.905-17.102
		c0.285-0.93,1.137-1.564,2.103-1.564s1.816,0.635,2.104,1.564c3.452,11.215,5.819,13.611,16.902,17.102
		c0.921,0.289,1.546,1.154,1.546,2.127c0,0.979-0.625,1.84-1.546,2.129c-11.083,3.492-13.45,5.891-16.902,17.102
		C78.816,100.227,77.966,100.861,77,100.861z"/>
</g>
<path style="fill:#3EAF91;" d="M242.866,123.71c-0.903-1.381-2.38-1.381-3.283,0l-45.515,69.601
	c-0.902,1.381-0.292,2.511,1.358,2.511h91.595c1.65,0,2.262-1.13,1.358-2.511L242.866,123.71z"/>
<path style="fill:#86D5B5;" d="M186.612,145.085c-0.903-1.381-2.38-1.381-3.283,0l-31.537,48.226
	c-0.903,1.381-0.292,2.511,1.358,2.511h63.64c1.65,0,2.261-1.13,1.358-2.511L186.612,145.085z"/>
<path d="M447.537,393.772h19.327c4.143,0,7.5-3.357,7.5-7.5s-3.357-7.5-7.5-7.5h-19.327c-4.143,0-7.5,3.357-7.5,7.5
	C440.037,390.414,443.395,393.772,447.537,393.772z"/>
<path d="M501.32,352.764v-24.69c0-6.893-5.607-12.5-12.5-12.5h-63.238c-6.892,0-12.5,5.607-12.5,12.5c0,0-0.03,12.104,0,12.462
	c-2.854-5.933-8.855-10.048-15.865-10.048h-17.93v-52.379c0-9.649-7.851-17.5-17.5-17.5H121.384c-9.649,0-17.5,7.851-17.5,17.5
	v52.379h-17.93c-9.744,0-17.672,7.931-17.672,17.678v73.506H55.635V243.35H83.77c6.893,0,12.5-5.607,12.5-12.5V202
	c0-4.143-3.357-7.5-7.5-7.5s-7.5,3.357-7.5,7.5v26.35H15v-85.768h66.27V165c0,4.143,3.357,7.5,7.5,7.5s7.5-3.357,7.5-7.5v-24.918
	c0-6.893-5.607-12.5-12.5-12.5H12.5c-6.893,0-12.5,5.607-12.5,12.5v90.768c0,6.893,5.607,12.5,12.5,12.5h28.135v178.322H20.12
	c-6.893,0-12.5,5.607-12.5,12.5v13.557c0,6.893,5.607,12.5,12.5,12.5l95.333-0.072c6.939,0,12.586-5.648,12.586-12.59v-13.039H294
	c4.143,0,7.5-3.357,7.5-7.5s-3.357-7.5-7.5-7.5H128.039v-36.449h227.093v36.449H334c-4.143,0-7.5,3.357-7.5,7.5s3.357,7.5,7.5,7.5
	h21.132v13.039c0,6.942,5.646,12.59,12.586,12.59h56.189c6.892,0,12.5-5.608,12.5-12.5v-13.26h41.588v13.26
	c0,6.892,5.607,12.5,12.5,12.5h9.006c6.893,0,12.5-5.608,12.5-12.5v-20.76v-22.41v-39.293C512,358.9,507.356,353.688,501.32,352.764
	z M68.282,445.228H22.62v-8.557h45.662V445.228z M113.039,445.156H83.282v-96.99c0-1.451,1.224-2.678,2.672-2.678h24.412
	c1.449,0,2.673,1.227,2.673,2.678C113.039,348.167,113.039,445.156,113.039,445.156z M198.483,368.078h-39.929v-39.541h39.929
	V368.078z M328.685,368.078h-39.929v-39.541h39.929V368.078z M343.685,368.078v-42.041c0-6.893-5.608-12.5-12.5-12.5h-44.929
	c-6.893,0-12.5,5.607-12.5,12.5v42.041h-24.671V325c0-4.143-3.358-7.5-7.5-7.5c-4.143,0-7.5,3.357-7.5,7.5v43.078h-20.602v-42.041
	c0-6.893-5.607-12.5-12.5-12.5h-44.929c-6.893,0-12.5,5.607-12.5,12.5v42.041h-15.516v-19.912c0-6.659-3.703-12.466-9.155-15.479
	v-54.577c0-1.355,1.145-2.5,2.5-2.5h112.701V292c0,4.143,3.357,7.5,7.5,7.5c4.142,0,7.5-3.357,7.5-7.5v-16.391h112.702
	c1.355,0,2.5,1.145,2.5,2.5v54.576c-5.452,3.014-9.155,8.821-9.155,15.48v19.912h-11.446V368.078z M399.889,445.156h-29.757v-96.99
	c0-1.451,1.224-2.678,2.672-2.678h24.413c1.448,0,2.672,1.227,2.672,2.678V445.156z M428.082,330.574h58.238v4.338h-58.238V330.574z
	 M428.082,349.912h58.238v2.691h-58.238V349.912z M421.406,445.156H417.4v-10.76h4.006V445.156z M497,445.156h-4.006v-10.76H497
	V445.156z M497,419.397h-79.6v-6.215H497V419.397z M497,398.182h-79.6v-30.578H497V398.182z"/>
<path d="M129.213,224.541h224.745c7.059,0,12.801-5.744,12.801-12.805V87.621c0-7.061-5.742-12.805-12.801-12.805H129.213
	c-7.059,0-12.801,5.744-12.801,12.805v124.115C116.412,218.797,122.154,224.541,129.213,224.541z M131.412,89.816h220.347v119.725
	H131.412V89.816z"/>
<path d="M384.616,252.596c11.05,3.481,12.064,4.51,15.509,15.7c1.315,4.309,5.218,7.204,9.714,7.204
	c4.483,0,8.386-2.886,9.712-7.185c3.452-11.211,4.467-12.239,15.51-15.719c4.257-1.341,7.117-5.249,7.117-9.727
	c0-4.477-2.86-8.384-7.118-9.725c-11.042-3.476-12.057-4.504-15.512-15.729c-1.329-4.291-5.23-7.175-9.709-7.175
	c-4.491,0-8.394,2.893-9.708,7.187c-3.45,11.211-4.465,12.239-15.516,15.718c-4.256,1.342-7.115,5.25-7.115,9.725
	C377.5,247.346,380.359,251.254,384.616,252.596z M409.841,233.38c2.369,4.203,5.271,7.109,9.466,9.491
	c-4.195,2.382-7.097,5.288-9.466,9.49c-2.369-4.203-5.27-7.108-9.469-9.49C404.569,240.489,407.471,237.583,409.841,233.38z"/>
<path d="M418.803,143.171c12.487,3.936,13.812,5.276,17.702,17.915c1.349,4.435,5.362,7.414,9.987,7.414
	c4.61,0,8.623-2.97,9.984-7.389c3.902-12.666,5.225-14.007,17.704-17.939c4.378-1.377,7.319-5.396,7.319-10.002
	c0-4.605-2.941-8.624-7.317-10c-12.48-3.931-13.805-5.272-17.709-17.949c-1.364-4.413-5.376-7.379-9.981-7.379
	c-4.62,0-8.633,2.976-9.979,7.389c-3.897,12.665-5.222,14.007-17.707,17.938c-4.378,1.377-7.319,5.396-7.319,10.001
	C411.486,137.775,414.428,141.795,418.803,143.171z M446.495,121.015c2.892,5.68,6.452,9.247,12.121,12.156
	c-5.668,2.91-9.229,6.478-12.12,12.155c-2.892-5.678-6.453-9.244-12.124-12.155C440.041,130.263,443.603,126.694,446.495,121.015z"
	/>
<path d="M55.738,89.347c8.709,2.744,9.269,3.312,11.987,12.143c1.258,4.109,4.985,6.871,9.274,6.871
	c4.277,0,8.003-2.753,9.272-6.859c2.724-8.845,3.283-9.412,11.98-12.153c4.067-1.276,6.8-5.008,6.8-9.284
	c0-4.275-2.732-8.006-6.793-9.28c-8.704-2.741-9.265-3.31-11.991-12.168C85,54.522,81.275,51.771,77,51.771
	c-4.287,0-8.014,2.759-9.271,6.859c-2.721,8.843-3.281,9.41-11.985,12.151c-4.066,1.278-6.799,5.008-6.799,9.282
	C48.945,84.34,51.678,88.07,55.738,89.347z M77.001,74.644c1.489,2.182,3.232,3.928,5.412,5.422
	c-2.18,1.494-3.924,3.241-5.412,5.423c-1.489-2.182-3.233-3.928-5.413-5.422C73.769,78.572,75.512,76.826,77.001,74.644z"/>
<path d="M338.057,96.033H145.114c-4.143,0-7.5,3.357-7.5,7.5v92.289c0,4.143,3.357,7.5,7.5,7.5h192.942c4.143,0,7.5-3.357,7.5-7.5
	v-92.289C345.557,99.391,342.199,96.033,338.057,96.033z M164.016,188.322l20.955-32.044l20.954,32.044L164.016,188.322
	L164.016,188.322z M223.848,188.322l-8.778-13.423l26.155-39.996l34.932,53.419L223.848,188.322L223.848,188.322z M294.078,188.322
	l-7.751-11.854l12.537-19.173l20.29,31.026h-25.076V188.322z M330.557,178.352L306.784,142c-1.814-2.776-4.774-4.434-7.92-4.434
	c-3.145,0-6.106,1.657-7.919,4.432l-13.579,20.768l-28.224-43.161c-1.814-2.774-4.774-4.43-7.918-4.43
	c-3.143,0-6.104,1.655-7.919,4.431l-27.197,41.59l-13.22-20.216c-1.814-2.774-4.774-4.431-7.918-4.431s-6.104,1.656-7.919,4.432
	l-24.438,37.37v-67.317h177.942v67.318H330.557z"/>
<g>
</g>
<g>
</g>
<g>
</g>
<g>
</g>
<g>
</g>
<g>
</g>
<g>
</g>
<g>
</g>
<g>
</g>
<g>
</g>
<g>
</g>
<g>
</g>
<g>
</g>
<g>
</g>
<g>
</g>
</svg>
