<?xml version="1.0" encoding="UTF-8" standalone="no"?>
<svg
   id="Capa_1"
   enable-background="new 0 0 512 512"
   height="512"
   viewBox="0 0 512 512"
   width="512"
   version="1.1"
   sodipodi:docname="shelf-color.svg"
   inkscape:version="1.1.2 (0a00cf5339, 2022-02-04)"
   xmlns:inkscape="http://www.inkscape.org/namespaces/inkscape"
   xmlns:sodipodi="http://sodipodi.sourceforge.net/DTD/sodipodi-0.dtd"
   xmlns="http://www.w3.org/2000/svg"
   xmlns:svg="http://www.w3.org/2000/svg">
  <defs
     id="defs147" />
  <sodipodi:namedview
     id="namedview145"
     pagecolor="#ffffff"
     bordercolor="#666666"
     borderopacity="1.0"
     inkscape:pageshadow="2"
     inkscape:pageopacity="0.0"
     inkscape:pagecheckerboard="0"
     showgrid="false"
     inkscape:zoom="1.2304688"
     inkscape:cx="255.59365"
     inkscape:cy="255.59365"
     inkscape:window-width="1920"
     inkscape:window-height="1012"
     inkscape:window-x="0"
     inkscape:window-y="0"
     inkscape:window-maximized="1"
     inkscape:current-layer="Capa_1" />
  <g
     id="g142"
     transform="matrix(1.0274088,0,0,1.0274088,-7.0166401,-7.0166401)">
    <g
       id="g46">
      <g
         id="g16">
        <g
           id="g4">
          <path
             d="M 331,128 H 221 c -1.657,0 -3,-1.343 -3,-3 V 44 c 0,-1.657 1.343,-3 3,-3 h 110 c 1.657,0 3,1.343 3,3 v 81 c 0,1.657 -1.343,3 -3,3 z"
             fill="#f6a96c"
             id="path2" />
        </g>
        <path
           d="m 248,125 v -14.5 h -2 c -5.79,0 -10.5,-4.71 -10.5,-10.5 V 69 c 0,-5.79 4.71,-10.5 10.5,-10.5 h 2 V 44 c 0,-1.657 1.343,-3 3,-3 h -30 c -1.657,0 -3,1.343 -3,3 v 81 c 0,1.657 1.343,3 3,3 h 30 c -1.657,0 -3,-1.343 -3,-3 z"
           fill="#ea9b58"
           id="path6" />
        <g
           id="g10">
          <path
             d="M 243,100 V 69 c 0,-1.657 1.343,-3 3,-3 h 60 c 1.657,0 3,1.343 3,3 v 31 c 0,1.657 -1.343,3 -3,3 h -60 c -1.657,0 -3,-1.343 -3,-3 z"
             fill="#eaf6ff"
             id="path8" />
        </g>
        <g
           id="g14">
          <path
             d="M 263,100 V 69 c 0,-1.657 1.343,-3 3,-3 h -20 c -1.657,0 -3,1.343 -3,3 v 31 c 0,1.657 1.343,3 3,3 h 20 c -1.657,0 -3,-1.343 -3,-3 z"
             fill="#d8ecfe"
             id="path12" />
        </g>
      </g>
      <g
         id="g44">
        <g
           id="g20">
          <path
             d="M 331,297 H 221 c -1.657,0 -3,-1.343 -3,-3 V 159 c 0,-1.657 1.343,-3 3,-3 h 110 c 1.657,0 3,1.343 3,3 v 135 c 0,1.657 -1.343,3 -3,3 z"
             fill="#f6a96c"
             id="path18" />
        </g>
        <path
           d="m 248,294 v -14.5 h -2 c -5.79,0 -10.5,-4.71 -10.5,-10.5 v -85 c 0,-5.79 4.71,-10.5 10.5,-10.5 h 2 V 159 c 0,-1.657 1.343,-3 3,-3 h -30 c -1.657,0 -3,1.343 -3,3 v 135 c 0,1.657 1.343,3 3,3 h 30 c -1.657,0 -3,-1.343 -3,-3 z"
           fill="#ea9b58"
           id="path22" />
        <g
           id="g26">
          <path
             d="m 243,269 v -85 c 0,-1.657 1.343,-3 3,-3 h 60 c 1.657,0 3,1.343 3,3 v 85 c 0,1.657 -1.343,3 -3,3 h -60 c -1.657,0 -3,-1.343 -3,-3 z"
             fill="#ffffff"
             id="path24" />
        </g>
        <g
           id="g30">
          <path
             d="m 243,269 v -85 c 0,-1.657 1.343,-3 3,-3 h 60 c 1.657,0 3,1.343 3,3 v 85 c 0,1.657 -1.343,3 -3,3 h -60 c -1.657,0 -3,-1.343 -3,-3 z"
             fill="#ffffff"
             id="path28" />
        </g>
        <g
           id="g34">
          <path
             d="m 263,269 v -85 c 0,-1.657 1.343,-3 3,-3 h -20 c -1.657,0 -3,1.343 -3,3 v 85 c 0,1.657 1.343,3 3,3 h 20 c -1.657,0 -3,-1.343 -3,-3 z"
             fill="#f3f0f3"
             id="path32" />
        </g>
        <g
           id="g38">
          <path
             d="m 243,269 c 0,1.657 1.343,3 3,3 h 60 c 1.657,0 3,-1.343 3,-3 v -22.5 h -66 z"
             fill="#00c27a"
             id="path36" />
        </g>
        <g
           id="g42">
          <path
             d="M 263,269 V 246.5 H 243 V 269 c 0,1.657 1.343,3 3,3 h 20 c -1.657,0 -3,-1.343 -3,-3 z"
             fill="#09a755"
             id="path40" />
        </g>
      </g>
    </g>
    <g
       id="g74">
      <g
         id="g72">
        <path
           d="m 103.543,266.381 c 2.544,7.437 4.643,14.83 6.356,22.119 1.713,-7.29 3.812,-14.683 6.356,-22.119 4.623,-13.512 10.271,-26.074 16.622,-37.386 0.015,-1.137 0.022,-2.277 0.022,-3.421 0,-37.331 -7.812,-70.994 -20.331,-94.776 -1.137,-2.159 -4.201,-2.159 -5.337,0 C 94.712,154.58 86.9,188.243 86.9,225.574 c 0,1.144 0.008,2.284 0.022,3.421 6.35,11.312 11.998,23.874 16.621,37.386 z"
           fill="#00c27a"
           id="path48" />
        <path
           d="m 103.543,266.381 c 2.544,7.437 4.643,14.83 6.356,22.119 0.795,-3.385 1.664,-6.79 2.637,-10.215 C 108.982,262.164 107,244.337 107,225.574 c 0,-29.314 4.819,-56.363 12.95,-78.145 -2.224,-5.957 -4.693,-11.523 -7.382,-16.631 -1.137,-2.159 -4.201,-2.159 -5.337,0 C 94.712,154.58 86.9,188.243 86.9,225.574 c 0,1.144 0.008,2.284 0.022,3.421 6.35,11.312 11.998,23.874 16.621,37.386 z"
           fill="#09a755"
           id="path50" />
        <g
           id="g60">
          <path
             d="m 70.406,306.658 h 42.959 c -1.898,-13 -5.132,-26.57 -9.822,-40.277 -11.447,-33.46 -29.174,-61.097 -48.324,-78.34 -1.767,-1.591 -4.566,-0.634 -4.989,1.707 -4.575,25.36 -1.658,58.063 9.789,91.523 3.047,8.906 6.542,17.393 10.387,25.387 z"
             fill="#00c27a"
             id="path52" />
          <path
             d="m 70.406,306.658 h 20.842 c -3.846,-7.995 -7.345,-16.48 -10.392,-25.387 -9.532,-27.861 -13.13,-55.182 -11.432,-78.191 -4.591,-5.63 -9.352,-10.67 -14.205,-15.039 -1.767,-1.591 -4.566,-0.634 -4.989,1.707 -4.575,25.36 -1.658,58.063 9.789,91.523 3.047,8.906 6.542,17.393 10.387,25.387 z"
             fill="#09a755"
             id="path54" />
          <path
             d="m 149.392,306.658 c 3.845,-7.994 7.34,-16.482 10.386,-25.387 11.447,-33.46 14.364,-66.163 9.789,-91.523 -0.422,-2.34 -3.221,-3.298 -4.989,-1.707 -19.15,17.243 -36.877,44.88 -48.324,78.34 -4.689,13.707 -7.924,27.277 -9.822,40.277 z"
             fill="#00c27a"
             id="path56" />
          <path
             d="m 127.205,306.658 c 1.883,-9.048 4.397,-18.294 7.582,-27.604 9.11,-26.629 22.199,-49.563 36.816,-66.511 -0.088,-8.069 -0.759,-15.726 -2.034,-22.796 -0.422,-2.34 -3.221,-3.298 -4.989,-1.707 -19.15,17.243 -36.877,44.88 -48.324,78.34 -4.689,13.707 -7.924,27.277 -9.822,40.277 h 20.771 z"
             fill="#09a755"
             id="path58" />
        </g>
        <path
           d="M 184.662,306.658 H 35.136 c -3.232,0 -5.615,3.021 -4.862,6.165 L 53.069,408 h 113.66 l 22.796,-95.177 c 0.753,-3.143 -1.63,-6.165 -4.863,-6.165 z"
           fill="#f6a96c"
           id="path62" />
        <path
           d="M 52.829,407 H 94.696 L 72.14,312.823 c -0.753,-3.144 1.63,-6.165 4.862,-6.165 H 35.136 c -3.232,0 -5.615,3.021 -4.862,6.165 z"
           fill="#ea9b58"
           id="path64" />
        <path
           d="m 30.205,414.663 c 1.783,9.701 6.732,18.139 13.658,24.337 h 132.072 c 6.925,-6.198 11.875,-14.636 13.658,-24.337 l 0.323,-1.759 C 190.481,409.832 188.122,407 184.998,407 H 34.799 c -3.123,0 -5.482,2.832 -4.918,5.904 z"
           fill="#f3f0f3"
           id="path66" />
        <g
           id="g70">
          <path
             d="m 30.205,414.663 c 1.783,9.701 6.732,18.139 13.658,24.337 H 96.065 C 89.14,432.802 84.19,424.364 82.407,414.663 l -0.323,-1.759 C 81.519,409.832 83.878,407 87.002,407 H 34.799 c -3.123,0 -5.482,2.832 -4.918,5.904 z"
             fill="#e2dee2"
             id="path68" />
        </g>
      </g>
    </g>
    <g
       id="g98">
      <g
         id="g96">
        <g
           id="g78">
          <path
             d="M 475,252 H 365 c -1.657,0 -3,-1.343 -3,-3 V 114 c 0,-1.657 1.343,-3 3,-3 h 110 c 1.657,0 3,1.343 3,3 v 135 c 0,1.657 -1.343,3 -3,3 z"
             fill="#f6a96c"
             id="path76" />
        </g>
        <g
           id="g82">
          <path
             d="m 396,249 v -14.5 h -6 c -5.79,0 -10.5,-4.71 -10.5,-10.5 v -85 c 0,-5.79 4.71,-10.5 10.5,-10.5 h 6 V 114 c 0,-1.657 1.343,-3 3,-3 h -34 c -1.657,0 -3,1.343 -3,3 v 135 c 0,1.657 1.343,3 3,3 h 34 c -1.657,0 -3,-1.343 -3,-3 z"
             fill="#ea9b58"
             id="path80" />
        </g>
        <g
           id="g86">
          <path
             d="m 387,224 v -85 c 0,-1.657 1.343,-3 3,-3 h 60 c 1.657,0 3,1.343 3,3 v 85 c 0,1.657 -1.343,3 -3,3 h -60 c -1.657,0 -3,-1.343 -3,-3 z"
             fill="#fe6c55"
             id="path84" />
        </g>
        <g
           id="g90">
          <path
             d="m 450,136 h -60 c -1.657,0 -3,1.343 -3,3 v 85 c 0,0.756 0.289,1.438 0.75,1.966 l 64.5,-88.931 C 451.7,136.406 450.901,136 450,136 Z"
             fill="#fed402"
             id="path88" />
        </g>
        <g
           id="g94">
          <path
             d="M 422.088,178.622 387.801,136.973 C 387.308,137.507 387,138.216 387,139 v 85 c 0,0.756 0.289,1.438 0.75,1.966 z"
             fill="#ffffff"
             id="path92" />
        </g>
      </g>
    </g>
    <g
       id="g116">
      <g
         id="g108">
        <path
           d="m 388.669,349.052 h 37.168 c 1.929,-13.716 -2.355,-28.135 -12.903,-38.683 -11.466,-11.466 -27.509,-15.551 -42.247,-12.275 -1.165,0.259 -2.069,1.163 -2.328,2.328 -3.275,14.738 0.809,30.78 12.275,42.247 2.481,2.479 5.186,4.593 8.035,6.383 z"
           fill="#00c27a"
           id="path100" />
        <path
           d="m 388.669,349.052 h 37.17 c 0.143,-1.051 0.253,-2.105 0.328,-3.162 -10.497,-0.798 -20.77,-5.193 -28.799,-13.222 -9.74,-9.74 -14.133,-22.781 -13.233,-35.521 -4.494,-0.342 -9.029,-0.035 -13.447,0.947 -1.165,0.259 -2.069,1.163 -2.328,2.328 -3.275,14.738 0.809,30.78 12.275,42.247 2.481,2.479 5.185,4.593 8.034,6.383 z"
           fill="#09a755"
           id="path102" />
        <path
           d="m 461.928,349.052 c 2.85,-1.79 5.554,-3.903 8.035,-6.384 11.466,-11.466 15.55,-27.509 12.275,-42.247 -0.259,-1.165 -1.163,-2.069 -2.328,-2.328 -14.738,-3.275 -30.781,0.809 -42.247,12.275 -10.548,10.548 -14.832,24.968 -12.903,38.683 h 37.168 z"
           fill="#00c27a"
           id="path104" />
        <path
           d="m 441.652,349.052 c 1.514,-9.038 5.741,-17.708 12.716,-24.683 8.066,-8.066 18.396,-12.462 28.944,-13.23 0.059,-3.593 -0.291,-7.193 -1.074,-10.717 -0.259,-1.165 -1.163,-2.069 -2.328,-2.328 -14.738,-3.275 -30.781,0.809 -42.247,12.275 -10.548,10.548 -14.832,24.968 -12.903,38.683 z"
           fill="#09a755"
           id="path106" />
      </g>
      <path
         d="m 383.543,439 h 83.511 l 20.067,-83.784 c 0.753,-3.144 -1.63,-6.165 -4.863,-6.165 h -113.92 c -3.232,0 -5.615,3.021 -4.862,6.165 z"
         fill="#f6a96c"
         id="path110" />
      <g
         id="g114">
        <path
           d="m 383.543,439 h 36.083 l -20.067,-83.784 c -0.753,-3.144 1.63,-6.165 4.862,-6.165 h -36.083 c -3.232,0 -5.615,3.021 -4.862,6.165 z"
           fill="#ea9b58"
           id="path112" />
      </g>
    </g>
    <g
       id="g120">
      <path
         d="m 499.5,471 h -487 c -2.761,0 -5,-2.239 -5,-5 v -22 c 0,-2.761 2.239,-5 5,-5 h 487 c 2.761,0 5,2.239 5,5 v 22 c 0,2.761 -2.239,5 -5,5 z"
         fill="#a79ba7"
         id="path118" />
    </g>
    <g
       id="g124">
      <path
         d="m 78,466 v -22 c 0,-2.761 2.239,-5 5,-5 H 12.5 c -2.761,0 -5,2.239 -5,5 v 22 c 0,2.761 2.239,5 5,5 H 83 c -2.761,0 -5,-2.239 -5,-5 z"
         fill="#918291"
         id="path122" />
    </g>
    <g
       id="g140" />
  </g>
</svg>
