<svg id="Capa_1" enable-background="new 0 0 512 512" height="512" viewBox="0 0 512 512" width="512" xmlns="http://www.w3.org/2000/svg"><g><path d="m246.744 162.873-26.855-26.856c-8.19-8.188-19.077-12.697-30.657-12.697h-143.853l14.259 37.915h129.594c1.454 0 2.821.567 3.849 1.593l27.168 27.168z" fill="#dae4ea"/><path d="m277.731 177.899-6.435-6.435c-11.705-11.705-30.682-11.705-42.387 0-11.705 11.705-11.705 30.682 0 42.387l6.359 6.359z" fill="#c6d0da"/><path d="m25.073 212.672h21.992c6.944 0 12.573-5.629 12.573-12.573v-115.642c0-6.944-5.629-12.573-12.573-12.573h-39.588z" fill="#407093"/><path d="m8.632 227.058h7.81c4.767 0 8.632-3.864 8.632-8.632v-152.296c0-4.767-3.864-8.632-8.632-8.632h-7.81c-4.768 0-8.632 3.865-8.632 8.632v152.296c0 4.767 3.864 8.632 8.632 8.632z" fill="#c6d0da"/><path d="m412.956 197.771c-45.318-43.822-116.239-44.753-159.441-1.7-43.289 43.14-42.512 114.267 1.417 159.723z" fill="#407093"/><path d="m320.952 164.791c19.841 16.677 24.398 49.076 3.102 70.372l-90.43 90.43c5.342 10.818 12.447 21.032 21.308 30.201l90.84-67.188 67.184-90.835c-25.681-24.833-59.583-35.892-92.004-32.98z" fill="#365e7d"/><g fill="#b1e4f9"><path d="m388.278 428.76c5.889 5.889 5.889 15.436 0 21.325s-15.436 5.889-21.325 0-11.383-24.927-7.493-28.818c3.891-3.89 22.929 1.604 28.818 7.493z"/><path d="m428.046 388.992c5.889 5.889 5.889 15.436 0 21.325s-15.436 5.889-21.325 0-11.383-24.927-7.493-28.818c3.891-3.89 22.93 1.604 28.818 7.493z"/><path d="m467.815 349.223c5.889 5.889 5.889 15.436 0 21.325s-15.436 5.889-21.325 0-11.383-24.927-7.493-28.818 22.929 1.604 28.818 7.493z"/><path d="m507.583 309.455c5.889 5.889 5.889 15.436 0 21.325s-15.436 5.889-21.325 0-11.383-24.927-7.493-28.818c3.891-3.89 22.93 1.604 28.818 7.493z"/><path d="m365.987 367.033c5.889 5.889 5.889 15.436 0 21.325s-15.436 5.889-21.325 0-11.383-24.927-7.493-28.818c3.891-3.89 22.929 1.604 28.818 7.493z"/><path d="m405.756 327.264c5.889 5.889 5.889 15.436 0 21.325s-15.436 5.889-21.325 0-11.383-24.927-7.493-28.818c3.89-3.89 22.929 1.605 28.818 7.493z"/><path d="m445.524 287.496c5.889 5.889 5.889 15.436 0 21.325s-15.436 5.889-21.325 0-11.383-24.927-7.493-28.818c3.891-3.89 22.929 1.604 28.818 7.493z"/></g><path d="m439.776 218.253-164.357 164.357c-6.531 6.531-17.12 6.531-23.651 0-6.531-6.531-6.531-17.12 0-23.651l164.357-164.357c6.531-6.531 17.12-6.531 23.651 0 6.531 6.531 6.531 17.119 0 23.651z" fill="#e7ecf1"/></g></svg>