<?xml version="1.0" encoding="UTF-8" standalone="no"?>
<svg
   id="Capa_1"
   enable-background="new 0 0 512 512"
   height="512"
   viewBox="0 0 512 512"
   width="512"
   version="1.1"
   sodipodi:docname="sofa-color.svg"
   inkscape:version="1.1.2 (0a00cf5339, 2022-02-04)"
   xmlns:inkscape="http://www.inkscape.org/namespaces/inkscape"
   xmlns:sodipodi="http://sodipodi.sourceforge.net/DTD/sodipodi-0.dtd"
   xmlns="http://www.w3.org/2000/svg"
   xmlns:svg="http://www.w3.org/2000/svg">
  <defs
     id="defs43" />
  <sodipodi:namedview
     id="namedview41"
     pagecolor="#ffffff"
     bordercolor="#666666"
     borderopacity="1.0"
     inkscape:pageshadow="2"
     inkscape:pageopacity="0.0"
     inkscape:pagecheckerboard="0"
     showgrid="false"
     inkscape:zoom="1.2304688"
     inkscape:cx="255.59365"
     inkscape:cy="255.59365"
     inkscape:window-width="1920"
     inkscape:window-height="1012"
     inkscape:window-x="0"
     inkscape:window-y="0"
     inkscape:window-maximized="1"
     inkscape:current-layer="Capa_1" />
  <g
     id="g38"
     transform="matrix(1.0270423,0,0,1.0270423,-6.9228365,-6.9228365)">
    <g
       id="g34">
      <path
         d="m 68.357,344.626 v 95.219 c 0,7.494 6.075,13.569 13.569,13.569 7.121,0 13.03,-5.504 13.535,-12.607 l 6.838,-96.181 z"
         fill="#596c76"
         id="path2" />
      <path
         d="m 409.701,344.626 6.838,96.181 c 0.505,7.103 6.414,12.607 13.535,12.607 7.494,0 13.569,-6.075 13.569,-13.569 v -95.219 z"
         fill="#596c76"
         id="path4" />
      <path
         d="m 409.701,344.626 3.022,42.52 h 30.92 v -42.52 z"
         fill="#465a61"
         id="path6" />
      <g
         id="g10">
        <path
           d="m 68.357,344.626 v 42.52 h 30.92 l 3.023,-42.52 z"
           fill="#465a61"
           id="path8" />
      </g>
      <path
         d="M 474.071,270.586 H 256 v -185 c 0,-14.912 12.088,-27 27,-27 h 164.071 c 14.912,0 27,12.088 27,27 z"
         fill="#01998d"
         id="path12" />
      <path
         d="m 447.071,58.586 h -39.685 c 14.912,0 27,12.088 27,27 v 185 h 39.685 v -185 c 0,-14.912 -12.088,-27 -27,-27 z"
         fill="#008b81"
         id="path14" />
      <path
         d="M 256.036,270.586 H 37.964 v -185 c 0,-14.912 12.088,-27 27,-27 h 164.071 c 14.912,0 27,12.088 27,27 v 185 z"
         fill="#01998d"
         id="path16" />
      <path
         d="m 443.643,189.667 v 98.275 c 0,5.523 -4.477,10 -10,10 H 78.357 c -5.523,0 -10,-4.477 -10,-10 v -98.275 c 0,-8.284 -6.716,-15 -15,-15 H 22.5 c -8.284,0 -15,6.716 -15,15 v 139.132 c 0,16.569 13.431,30 30,30 h 437 c 16.569,0 30,-13.431 30,-30 V 189.667 c 0,-8.284 -6.716,-15 -15,-15 h -30.857 c -8.284,0 -15,6.716 -15,15 z"
         fill="#0ab69f"
         id="path18" />
      <g
         id="g22">
        <path
           d="m 489.5,174.667 h -30.429 c 8.284,0 15,6.716 15,15 v 139.132 c 0,16.569 -13.431,30 -30,30 H 474.5 c 16.569,0 30,-13.431 30,-30 V 189.667 c 0,-8.284 -6.716,-15 -15,-15 z"
           fill="#01998d"
           id="path20" />
      </g>
      <path
         d="M 256,297.942 H 48.779 C 42.826,297.942 38,293.116 38,287.163 v -43.305 c 0,-5.953 4.826,-10.779 10.779,-10.779 h 196.443 c 5.953,0 10.779,4.826 10.779,10.779 v 54.084 z"
         fill="#008b81"
         id="path24" />
      <path
         d="m 256,297.942 h 207.221 c 5.953,0 10.779,-4.826 10.779,-10.779 v -43.305 c 0,-5.953 -4.826,-10.779 -10.779,-10.779 H 266.779 c -5.953,0 -10.779,4.826 -10.779,10.779 z"
         fill="#008b81"
         id="path26" />
      <g
         fill="#037e73"
         id="g32">
        <path
           d="m 463.221,233.079 h -28.346 c 5.953,0 10.779,4.826 10.779,10.779 v 43.305 c 0,5.953 -4.826,10.779 -10.779,10.779 h 28.346 c 5.953,0 10.779,-4.826 10.779,-10.779 v -43.305 c 0,-5.953 -4.826,-10.779 -10.779,-10.779 z"
           id="path28" />
        <path
           d="m 245.221,233.079 h -28.346 c 5.953,0 10.779,4.826 10.779,10.779 v 54.084 H 256 v -54.084 c 0,-5.953 -4.826,-10.779 -10.779,-10.779 z"
           id="path30" />
      </g>
    </g>
  </g>
</svg>
