<svg id="Capa_1" enable-background="new 0 0 512 512" height="512" viewBox="0 0 512 512" width="512" xmlns="http://www.w3.org/2000/svg"><g><path d="m254.935 406.585s-175.364 30.923-175.372 30.6h-.001v25.737h.001c.006.329.051.662.14.993l5.588 20.854c.588 2.194 2.843 3.496 5.038 2.908l164.606-44.106c.697-.187 1.432-.187 2.129 0l164.606 44.106c2.194.588 4.449-.714 5.037-2.908l5.588-20.854c.089-.331.134-.664.14-.993h.001v-25.737h-.001c-.006.323-176.802-30.787-177.5-30.6z" fill="#dae4ea"/><path d="m429.609 433.188-153.026-50.329c-.429-.141-.719-.542-.719-.993v-22.985l-39.727-7.776v30.761c0 .452-.29.852-.719.993l-153.027 50.329c-2.073.682-3.253 2.864-2.688 4.972l5.588 20.854c.588 2.194 2.843 3.496 5.038 2.908l164.606-44.106c.697-.187 1.432-.187 2.129 0l164.606 44.106c2.194.588 4.45-.714 5.038-2.908l5.588-20.854c.565-2.108-.614-4.29-2.687-4.972z" fill="#e7ecf1"/><path d="m291.316 387.705v9.394c0 4.267-3.459 7.726-7.726 7.726s-7.726-3.459-7.726-7.726v-15.233c0 .452.29.852.719.993zm-62.906 17.12c4.268 0 7.726-3.459 7.726-7.726v-15.233c0 .452-.29.852-.719.993l-14.734 4.846v9.394c.001 4.267 3.46 7.726 7.727 7.726z" fill="#dae4ea"/><path d="m504.628 358.881h-497.256c-4.072 0-7.372-3.301-7.372-7.372v-319.955c0-4.072 3.301-7.372 7.372-7.372h497.255c4.072 0 7.372 3.301 7.372 7.372v319.955c.001 4.071-3.3 7.372-7.371 7.372z" fill="#365e7d"/><path d="m27.54 329.936v-276.81c0-.776.629-1.404 1.404-1.404h454.11c.776 0 1.404.629 1.404 1.404v276.81c0 .776-.629 1.404-1.404 1.404h-454.109c-.776 0-1.405-.629-1.405-1.404z" fill="#d3effb"/><path d="m483.055 51.722h-39.803v187.695c0 39.389-31.931 71.319-71.319 71.319h-344.393v19.199c0 .776.629 1.404 1.404 1.404h454.111c.776 0 1.404-.629 1.404-1.404v-276.809c.001-.775-.628-1.404-1.404-1.404z" fill="#b1e4f9"/></g></svg>