<svg id="Capa_1" enable-background="new 0 0 512 512" height="512" viewBox="0 0 512 512" width="512" xmlns="http://www.w3.org/2000/svg"><g><path d="m424.522 427.996-148.543-48.855c-.416-.137-.698-.526-.698-.964v-22.312h-38.563v22.312c0 .438-.281.827-.698.964l-148.542 48.855c-2.012.662-3.157 2.78-2.609 4.826l5.424 20.243c.571 2.13 2.76 3.394 4.89 2.823l159.784-42.814c.677-.181 1.39-.181 2.067 0l159.784 42.814c2.13.571 4.319-.693 4.89-2.823l5.424-20.243c.548-2.046-.597-4.164-2.61-4.826z" fill="#e7ecf1"/><path d="m497.344 355.865h-482.688c-3.952 0-7.156-3.204-7.156-7.156v-310.581c0-3.952 3.204-7.156 7.156-7.156h482.687c3.952 0 7.156 3.204 7.156 7.156v310.581c.001 3.952-3.203 7.156-7.155 7.156z" fill="#365e7d"/><path d="m34.234 327.768v-268.7c0-.753.61-1.363 1.363-1.363h440.806c.753 0 1.363.61 1.363 1.363v268.7c0 .753-.61 1.363-1.363 1.363h-440.806c-.753 0-1.363-.61-1.363-1.363z" fill="#d3effb"/><path d="m476.403 57.705h-38.637v182.197c0 38.235-30.995 69.23-69.23 69.23h-334.302v18.637c0 .753.61 1.363 1.363 1.363h440.807c.753 0 1.363-.61 1.363-1.363v-268.7c0-.754-.611-1.364-1.364-1.364z" fill="#b1e4f9"/><path d="m427.132 432.822-5.424 20.244c-.571 2.13-2.76 3.394-4.89 2.823l-159.784-42.814c-.677-.181-1.39-.181-2.067 0l-159.784 42.814c-2.13.571-4.319-.693-4.89-2.823l-5.424-20.244c-.084-.316-.129-.633-.136-.947h-.001v24.983h.001c.006.319.05.642.136.964l5.424 20.243c.571 2.13 2.76 3.394 4.89 2.823l159.784-42.814c.677-.181 1.39-.181 2.067 0l159.784 42.814c2.13.571 4.319-.693 4.89-2.823l5.424-20.243c.086-.322.13-.645.136-.964h.001v-24.983h-.001c-.008.314-.052.631-.136.947z" fill="#dae4ea"/><path d="m497.344 23.472h-482.688c-8.081 0-14.656 6.574-14.656 14.656v310.581c0 8.082 6.575 14.656 14.656 14.656h33.727c4.143 0 7.5-3.358 7.5-7.5s-3.357-7.5-7.5-7.5h-33.383v-309.893h482v309.894h-413.617c-4.143 0-7.5 3.358-7.5 7.5s3.357 7.5 7.5 7.5h145.836v10.118l-144.086 47.388c-4.828 1.589-7.922 6.098-7.901 10.967v25.02c0 .896.127 1.917.392 2.905l5.424 20.242c1.645 6.137 7.938 9.771 14.076 8.128l158.876-42.571 158.876 42.57c6.111 1.637 12.426-1.968 14.075-8.126l5.426-20.247c.239-.893.37-1.815.39-2.741.003-.168.003-25.252.002-25.151.034-4.879-3.064-9.404-7.903-10.997l-33.401-10.985c-3.932-1.294-8.173.847-9.468 4.781-1.294 3.935.847 8.174 4.782 9.468l30.251 9.949-3.659 13.652-156.393-41.905c-1.948-.523-4.006-.523-5.952-.001l-156.396 41.906-3.659-13.652 136.248-44.81v3.69c0 4.142 3.357 7.5 7.5 7.5s7.5-3.358 7.5-7.5v-29.599h23.562v29.599c0 4.142 3.357 7.5 7.5 7.5s7.5-3.358 7.5-7.5v-3.691l72.354 23.797c3.934 1.295 8.173-.846 9.468-4.781 1.294-3.935-.847-8.174-4.782-9.468l-77.04-25.338v-10.118h214.562c8.081 0 14.656-6.575 14.656-14.656v-310.581c.001-8.082-6.574-14.656-14.655-14.656zm-400.22 439.661 158.876-42.57 158.876 42.57c.979.263 1.974.393 2.962.396l-2.468 9.208-156.393-41.905c-1.948-.523-4.006-.523-5.952-.001l-156.395 41.905-2.467-9.207c.987-.002 1.981-.133 2.961-.396z"/><path d="m477.767 137.485c4.143 0 7.5-3.358 7.5-7.5v-70.917c0-4.887-3.976-8.863-8.863-8.863h-440.807c-4.888 0-8.863 3.976-8.863 8.863v268.7c0 4.887 3.976 8.863 8.863 8.863h440.807c4.888 0 8.863-3.976 8.863-8.863v-162.783c0-4.142-3.357-7.5-7.5-7.5s-7.5 3.358-7.5 7.5v156.646h-428.534v-256.426h428.533v64.78c.001 4.142 3.358 7.5 7.501 7.5z"/></g></svg>