<svg id="Capa_1" enable-background="new 0 0 512 512" height="512" viewBox="0 0 512 512" width="512" xmlns="http://www.w3.org/2000/svg"><g><path d="m461.336 394.843h-451.275v-164.748c0-39.53 32.045-71.576 71.576-71.576h308.124c39.53 0 71.576 32.045 71.576 71.576v164.748z" fill="#dae4ea"/><path d="m400.157 159.269c13.079 12.969 21.18 30.952 21.18 50.826v88.57c0 42.072-34.106 76.177-76.178 76.177h-335.098v20h451.275v-164.747c0-35.999-26.576-65.791-61.179-70.826z" fill="#c6d0da"/><path d="m461.336 435.305h-447.338c-3.589 0-6.498-2.909-6.498-6.498v-31.403c0-1.415 1.147-2.561 2.561-2.561h451.275c3.592 0 6.503 2.912 6.503 6.503v27.456c0 3.592-2.911 6.503-6.503 6.503z" fill="#365e7d"/><path d="m49.386 464.363h-31.682c-2.046 0-3.705-1.659-3.705-3.705v-25.352h39.093v25.352c0 2.046-1.659 3.705-3.706 3.705z" fill="#5e6b75"/><path d="m457.631 464.363h-31.682c-2.046 0-3.705-1.659-3.705-3.705v-25.352h39.093v25.352c-.001 2.046-1.66 3.705-3.706 3.705z" fill="#5e6b75"/><path d="m84.463 106.548c5.194 1.806 8.628 6.753 8.451 12.25l-1.278 39.723h155.973l-1.278-39.723c-.177-5.496 3.258-10.444 8.451-12.25 11.841-4.117 20.34-15.375 20.34-28.619 0-16.73-13.562-30.292-30.292-30.292h-150.415c-16.73 0-30.292 13.562-30.292 30.292 0 13.243 8.499 24.502 20.34 28.619z" fill="#d8aa8b"/><path d="m275.123 77.929c0 13.244-8.499 24.502-20.34 28.619-5.194 1.806-8.628 6.753-8.451 12.25l1.278 39.723h132.152l-1.278-39.723c-.177-5.496 3.258-10.444 8.451-12.25 11.841-4.117 20.34-15.375 20.34-28.619 0-16.73-13.562-30.292-30.292-30.292h-132.152c16.73 0 30.292 13.562 30.292 30.292z" fill="#ce9875"/><path d="m482.182 371.761h-20.846v-33.6h20.846c2.909 0 5.268 2.359 5.268 5.268v23.064c0 2.909-2.358 5.268-5.268 5.268z" fill="#b9c1cb"/><path d="m493.648 270.047h-32.312v-25.409h32.312c5.993 0 10.852 4.858 10.852 10.852v3.705c0 5.994-4.858 10.852-10.852 10.852z" fill="#365e7d"/><g><path d="m76.482 243.139v-31.231c0-4.143-3.358-7.5-7.5-7.5s-7.5 3.357-7.5 7.5v31.231c0 4.143 3.358 7.5 7.5 7.5s7.5-3.358 7.5-7.5z"/><path d="m106.794 243.139v-31.231c0-4.143-3.358-7.5-7.5-7.5s-7.5 3.357-7.5 7.5v31.231c0 4.143 3.358 7.5 7.5 7.5s7.5-3.358 7.5-7.5z"/><path d="m137.106 243.139v-31.231c0-4.143-3.358-7.5-7.5-7.5s-7.5 3.357-7.5 7.5v31.231c0 4.143 3.358 7.5 7.5 7.5s7.5-3.358 7.5-7.5z"/><path d="m167.418 243.139v-31.231c0-4.143-3.358-7.5-7.5-7.5s-7.5 3.357-7.5 7.5v31.231c0 4.143 3.358 7.5 7.5 7.5s7.5-3.358 7.5-7.5z"/><path d="m197.73 243.139v-31.231c0-4.143-3.358-7.5-7.5-7.5s-7.5 3.357-7.5 7.5v31.231c0 4.143 3.358 7.5 7.5 7.5s7.5-3.358 7.5-7.5z"/><path d="m228.043 243.139v-31.231c0-4.143-3.358-7.5-7.5-7.5s-7.5 3.357-7.5 7.5v31.231c0 4.143 3.358 7.5 7.5 7.5s7.5-3.358 7.5-7.5z"/><path d="m258.355 243.139v-31.231c0-4.143-3.358-7.5-7.5-7.5s-7.5 3.357-7.5 7.5v31.231c0 4.143 3.358 7.5 7.5 7.5s7.5-3.358 7.5-7.5z"/><path d="m288.667 243.139v-31.231c0-4.143-3.358-7.5-7.5-7.5s-7.5 3.357-7.5 7.5v31.231c0 4.143 3.358 7.5 7.5 7.5s7.5-3.358 7.5-7.5z"/><path d="m318.979 243.139v-31.231c0-4.143-3.358-7.5-7.5-7.5s-7.5 3.357-7.5 7.5v31.231c0 4.143 3.358 7.5 7.5 7.5s7.5-3.358 7.5-7.5z"/><path d="m349.291 243.139v-31.231c0-4.143-3.358-7.5-7.5-7.5s-7.5 3.357-7.5 7.5v31.231c0 4.143 3.358 7.5 7.5 7.5s7.5-3.358 7.5-7.5z"/><path d="m379.603 243.139v-31.231c0-4.143-3.358-7.5-7.5-7.5s-7.5 3.357-7.5 7.5v31.231c0 4.143 3.358 7.5 7.5 7.5s7.5-3.358 7.5-7.5z"/><path d="m409.915 243.139v-31.231c0-4.143-3.358-7.5-7.5-7.5s-7.5 3.357-7.5 7.5v31.231c0 4.143 3.358 7.5 7.5 7.5s7.5-3.358 7.5-7.5z"/><path d="m493.648 237.139h-24.812v-7.043c0-43.603-35.473-79.076-79.076-79.076h-2.737l-1.044-32.464c-.071-2.21 1.303-4.188 3.418-4.924 15.179-5.277 25.377-19.626 25.377-35.703 0-20.839-16.954-37.792-37.792-37.792h-35.192c-4.142 0-7.5 3.357-7.5 7.5s3.358 7.5 7.5 7.5h35.192c12.567 0 22.792 10.225 22.792 22.792 0 9.698-6.15 18.353-15.303 21.535-8.349 2.902-13.768 10.769-13.484 19.574l1.029 31.981h-40.298l9.411-35.123c1.072-4.001-1.302-8.114-5.304-9.186-3.997-1.074-8.113 1.302-9.186 5.303l-10.452 39.006h-19.845l9.411-35.123c1.072-4.001-1.302-8.114-5.304-9.186-3.995-1.074-8.113 1.302-9.186 5.303l-10.452 39.006h-25.942l-1.044-32.464c-.071-2.21 1.303-4.188 3.418-4.924 15.179-5.277 25.377-19.626 25.377-35.703 0-8.553-2.857-16.452-7.665-22.792h31.833c4.142 0 7.5-3.357 7.5-7.5s-3.358-7.5-7.5-7.5h-212.373c-20.838 0-37.792 16.953-37.792 37.792 0 16.077 10.198 30.426 25.377 35.703 2.115.735 3.489 2.714 3.418 4.924l-1.044 32.464h-2.737c-43.602 0-79.075 35.474-79.075 79.076v66.651c0 4.143 3.358 7.5 7.5 7.5s7.5-3.357 7.5-7.5v-66.651c0-35.332 28.744-64.076 64.075-64.076h308.124c35.332 0 64.076 28.744 64.076 64.076v157.247h-436.275v-55.596c0-4.143-3.358-7.5-7.5-7.5s-7.5 3.357-7.5 7.5v58.958c-1.592 1.782-2.562 4.13-2.562 6.7v31.402c0 4.961 2.595 9.329 6.499 11.815v20.035c0 6.179 5.026 11.206 11.205 11.206h31.683c6.179 0 11.206-5.027 11.206-11.206v-17.852h278.941c4.142 0 7.5-3.357 7.5-7.5s-3.358-7.5-7.5-7.5h-324.534v-25.463h445.339v25.463h-85.807c-4.142 0-7.5 3.357-7.5 7.5s3.358 7.5 7.5 7.5h40.21v17.852c0 6.179 5.027 11.206 11.206 11.206h31.683c6.179 0 11.206-5.027 11.206-11.206v-20.034c3.906-2.488 6.503-6.857 6.503-11.821v-27.456c0-4.964-2.597-9.333-6.503-11.821v-10.264h13.346c7.041 0 12.768-5.728 12.768-12.768v-23.062c0-7.041-5.728-12.769-12.768-12.769h-13.346v-53.114h24.812c10.119 0 18.352-8.232 18.352-18.352v-3.705c-.001-10.119-8.233-18.351-18.353-18.351zm-406.722-137.675c-9.153-3.183-15.303-11.837-15.303-21.535 0-12.567 10.225-22.792 22.792-22.792h150.417c12.567 0 22.792 10.225 22.792 22.792 0 9.698-6.15 18.353-15.303 21.535-8.349 2.902-13.768 10.769-13.484 19.574l1.029 31.981h-31.266l9.411-35.123c1.072-4.001-1.302-8.114-5.304-9.186-3.995-1.074-8.113 1.302-9.186 5.303l-10.452 39.006h-19.845l9.411-35.123c1.072-4.001-1.302-8.114-5.304-9.186-3.996-1.074-8.113 1.302-9.186 5.303l-10.452 39.006h-19.846l9.411-35.123c1.072-4.001-1.302-8.114-5.304-9.186-3.995-1.074-8.113 1.302-9.186 5.303l-10.452 39.006h-22.935l1.029-31.981c.283-8.806-5.136-16.672-13.484-19.574zm-41.334 357.399h-24.093v-14.058h24.093zm384.151 0v-14.058h24.094v14.058zm50.208-111.202v18.6h-11.114v-18.6zm17.049-86.466c0 1.848-1.503 3.352-3.352 3.352h-24.812v-10.408h24.812c1.848 0 3.352 1.504 3.352 3.352z"/></g></g></svg>