<svg id="Capa_1" enable-background="new 0 0 512 512" height="512" viewBox="0 0 512 512" width="512" xmlns="http://www.w3.org/2000/svg"><g><path d="m489.009 375.255h-31.777v-34.614h31.777c2.997 0 5.427 2.43 5.427 5.427v23.76c0 2.997-2.43 5.427-5.427 5.427z" fill="#b9c1cb"/><path d="m500.821 270.471h-43.589v-26.176h43.589c6.174 0 11.179 5.005 11.179 11.179v3.817c0 6.175-5.005 11.18-11.179 11.18z" fill="#365e7d"/><path d="m227.199 179.71 156.297-24.132-1.316-40.921c-.182-5.662 3.356-10.759 8.707-12.619 12.199-4.241 20.954-15.839 20.954-29.483 0-17.234-13.971-31.206-31.206-31.206h-136.14z" fill="#ce9875"/><path d="m296.871 156.608h-15.998l11.457-42.759c1.105-4.122 5.347-6.569 9.463-5.463 4.122 1.104 6.568 5.341 5.464 9.463zm46.828-38.759c1.104-4.122-1.342-8.359-5.464-9.463-4.117-1.107-8.358 1.341-9.463 5.463l-11.457 42.759h15.998z" fill="#c6865c"/><path d="m79.286 102.037c5.351 1.86 8.889 6.957 8.707 12.619l-1.316 40.921 74.129 29.958 86.552-29.958-1.316-40.921c-.182-5.662 3.356-10.759 8.707-12.619 12.199-4.241 20.954-15.839 20.954-29.483 0-17.234-13.971-31.206-31.206-31.206h-154.959c-17.235 0-31.206 13.971-31.206 31.206 0 13.644 8.755 25.242 20.954 29.483z" fill="#d8aa8b"/><path d="m170.035 156.608h-15.998l11.457-42.759c1.105-4.122 5.346-6.569 9.463-5.463 4.122 1.104 6.568 5.341 5.464 9.463zm-36.443 0 10.385-38.759c1.104-4.122-1.342-8.359-5.464-9.463-4.115-1.107-8.358 1.341-9.463 5.463l-11.457 42.759zm83.271-38.759c1.104-4.122-1.342-8.359-5.464-9.463-4.115-1.107-8.358 1.341-9.463 5.463l-11.457 42.759h15.998z" fill="#ce9875"/><path d="m467.534 399.033h-464.895v-169.72c0-40.723 33.013-73.736 73.736-73.736h317.423c40.723 0 73.736 33.013 73.736 73.736z" fill="#dae4ea"/><path d="m404.507 156.35c13.474 13.361 21.819 31.886 21.819 52.36v91.243c0 43.341-35.135 78.477-78.477 78.477h-345.21v20.604l234.478 20.842 230.417-20.842v-169.72c0-37.086-27.379-67.777-63.027-72.964z" fill="#c6d0da"/><path d="m43.15 470.652h-32.638c-2.108 0-3.817-1.709-3.817-3.817v-36.419h40.273v36.419c0 2.108-1.709 3.817-3.818 3.817z" fill="#2b4d66"/><path d="m463.716 470.652h-32.639c-2.108 0-3.817-1.709-3.817-3.817v-36.419h40.273v36.419c.001 2.108-1.709 3.817-3.817 3.817z" fill="#2b4d66"/><g fill="#c6d0da"><path d="m63.338 250.477c-4.267 0-7.726-3.459-7.726-7.726v-32.174c0-4.268 3.459-7.726 7.726-7.726s7.726 3.459 7.726 7.726v32.174c0 4.267-3.459 7.726-7.726 7.726z"/><path d="m94.565 250.477c-4.267 0-7.726-3.459-7.726-7.726v-32.174c0-4.268 3.459-7.726 7.726-7.726s7.726 3.459 7.726 7.726v32.174c0 4.267-3.459 7.726-7.726 7.726z"/><path d="m125.792 250.477c-4.267 0-7.726-3.459-7.726-7.726v-32.174c0-4.268 3.459-7.726 7.726-7.726s7.726 3.459 7.726 7.726v32.174c0 4.267-3.459 7.726-7.726 7.726z"/><path d="m157.019 250.477c-4.267 0-7.726-3.459-7.726-7.726v-32.174c0-4.268 3.459-7.726 7.726-7.726s7.726 3.459 7.726 7.726v32.174c0 4.267-3.459 7.726-7.726 7.726z"/><path d="m188.245 250.477c-4.267 0-7.726-3.459-7.726-7.726v-32.174c0-4.268 3.459-7.726 7.726-7.726s7.726 3.459 7.726 7.726v32.174c.001 4.267-3.458 7.726-7.726 7.726z"/><path d="m219.473 250.477c-4.267 0-7.726-3.459-7.726-7.726v-32.174c0-4.268 3.459-7.726 7.726-7.726s7.726 3.459 7.726 7.726v32.174c0 4.267-3.459 7.726-7.726 7.726z"/><path d="m250.7 250.477c-4.267 0-7.726-3.459-7.726-7.726v-32.174c0-4.268 3.459-7.726 7.726-7.726s7.726 3.459 7.726 7.726v32.174c0 4.267-3.459 7.726-7.726 7.726z"/><path d="m281.927 250.477c-4.267 0-7.726-3.459-7.726-7.726v-32.174c0-4.268 3.459-7.726 7.726-7.726s7.726 3.459 7.726 7.726v32.174c0 4.267-3.459 7.726-7.726 7.726z"/><path d="m313.153 250.477c-4.267 0-7.726-3.459-7.726-7.726v-32.174c0-4.268 3.459-7.726 7.726-7.726s7.726 3.459 7.726 7.726v32.174c.001 4.267-3.458 7.726-7.726 7.726z"/><path d="m344.38 250.477c-4.267 0-7.726-3.459-7.726-7.726v-32.174c0-4.268 3.459-7.726 7.726-7.726s7.726 3.459 7.726 7.726v32.174c.001 4.267-3.459 7.726-7.726 7.726z"/><path d="m375.607 250.477c-4.267 0-7.726-3.459-7.726-7.726v-32.174c0-4.268 3.459-7.726 7.726-7.726s7.726 3.459 7.726 7.726v32.174c0 4.267-3.459 7.726-7.726 7.726z"/><path d="m406.834 250.477c-4.267 0-7.726-3.459-7.726-7.726v-32.174c0-4.268 3.459-7.726 7.726-7.726s7.726 3.459 7.726 7.726v32.174c0 4.267-3.459 7.726-7.726 7.726z"/></g><path d="m467.534 440.717h-460.84c-3.697 0-6.694-2.997-6.694-6.694v-32.35c0-1.457 1.181-2.639 2.639-2.639h464.895c3.7 0 6.699 2.999 6.699 6.699v28.285c0 3.7-3 6.699-6.699 6.699z" fill="#365e7d"/></g></svg>