<?xml version="1.0" encoding="iso-8859-1"?>
<!-- Generator: Adobe Illustrator 19.0.0, SVG Export Plug-In . SVG Version: 6.00 Build 0)  -->
<svg version="1.1" id="Capa_1" xmlns="http://www.w3.org/2000/svg" xmlns:xlink="http://www.w3.org/1999/xlink" x="0px" y="0px"
	 viewBox="0 0 512 512" style="enable-background:new 0 0 512 512;" xml:space="preserve">
<rect x="316.18" y="152.65" style="fill:#B1E8FF;" width="28.11" height="179.69"/>
<path style="fill:#34A1D7;" d="M351.7,147.648c0,2.75-2.25,5-5,5h-32.936c-2.75,0-5-2.25-5-5V12.5c0-2.75,2.25-5,5-5H346.7
	c2.75,0,5,2.25,5,5V147.648z"/>
<g style="opacity:0.1;">
	<path d="M330.065,147.648V12.5c0-2.75,2.25-5,5-5h-21.3c-2.75,0-5,2.25-5,5v135.148c0,2.75,2.25,5,5,5h21.3
		C332.315,152.648,330.065,150.398,330.065,147.648z"/>
</g>
<path style="fill:#86D5B5;" d="M424.604,473.775v-26.338c0-38.304-25.833-70.555-61.02-80.338c-0.857,0.138-1.73,0.229-2.627,0.229
	h-61.452c-0.896,0-1.77-0.091-2.627-0.229c-35.189,9.783-61.021,42.034-61.021,80.338v26.338L424.604,473.775L424.604,473.775z"/>
<path style="opacity:0.1;enable-background:new    ;" d="M299.506,367.328c-0.896,0-1.77-0.091-2.627-0.229
	c-35.189,9.783-61.021,42.034-61.021,80.338v26.338h21.35v-26.338c0-38.011,25.439-70.061,60.214-80.109H299.506z"/>
<path style="fill:#3EAF91;" d="M447.65,494.5c0,5.5-4.5,10-10,10H222.814c-5.5,0-10-4.5-10-10v-10.725c0-5.5,4.5-10,10-10H437.65
	c5.5,0,10,4.5,10,10V494.5z"/>
<g style="opacity:0.1;">
	<path d="M234.163,494.5v-10.725c0-5.5,4.5-10,10-10h-21.35c-5.5,0-10,4.5-10,10V494.5c0,5.5,4.5,10,10,10h21.35
		C238.663,504.5,234.163,500,234.163,494.5z"/>
</g>
<path style="fill:#3EAF91;" d="M377.418,350.869c0,9.09-7.369,16.459-16.46,16.459h-61.452c-9.092,0-16.46-7.37-16.46-16.459l0,0
	c0-9.092,7.368-16.461,16.46-16.461h61.452C370.049,334.408,377.418,341.777,377.418,350.869L377.418,350.869z"/>
<g style="opacity:0.1;">
	<path d="M304.396,350.869c0-9.092,7.368-16.461,16.46-16.461h-21.35c-9.092,0-16.46,7.369-16.46,16.461
		c0,9.09,7.368,16.459,16.46,16.459h21.35C311.764,367.328,304.396,359.958,304.396,350.869z"/>
</g>
<path style="fill:#B1E8FF;" d="M141.468,279.603c5.651,0,10.918,1.633,15.366,4.444V59.128c-4.417,2.891-9.693,4.577-15.366,4.577
	s-10.949-1.687-15.366-4.578v224.92C130.55,281.236,135.816,279.603,141.468,279.603z"/>
<g>
	<rect x="126.1" y="134.62" style="fill:#34A1D7;" width="30.732" height="73.872"/>
	<path style="fill:#34A1D7;" d="M169.613,302.27c-2.814-12.959-14.342-22.667-28.145-22.667s-25.331,9.708-28.146,22.667H169.613z"
		/>
	<circle style="fill:#34A1D7;" cx="141.47" cy="35.602" r="28.1"/>
</g>
<g style="opacity:0.1;">
	<path d="M129.796,35.602c0-12.662,8.374-23.365,19.887-26.879c-2.599-0.793-5.356-1.223-8.215-1.223
		c-15.522,0-28.102,12.582-28.102,28.102c0,15.521,12.58,28.103,28.102,28.103c2.858,0,5.616-0.43,8.215-1.223
		C138.17,58.968,129.796,48.265,129.796,35.602z"/>
</g>
<path style="fill:#08375E;" d="M194.378,313.571c0,6.24-5.059,11.3-11.302,11.3H99.86c-6.24,0-11.301-5.06-11.301-11.3l0,0
	c0-6.242,5.061-11.301,11.301-11.301h83.216C189.318,302.27,194.378,307.33,194.378,313.571L194.378,313.571z"/>
<g style="opacity:0.1;">
	<path d="M116,313.571c0-6.242,5.061-11.301,11.301-11.301H99.86c-6.24,0-11.301,5.06-11.301,11.301c0,6.24,5.061,11.3,11.301,11.3
		h27.44C121.061,324.872,116,319.811,116,313.571z"/>
</g>
<path d="M437.65,466.275h-5.546v-18.838c0-36.221-21.303-67.546-52.029-82.145c3.037-4.016,4.843-9.012,4.843-14.424
	c0-13.212-10.748-23.961-23.96-23.961h-9.17V159.055c4.361-1.954,7.412-6.327,7.412-11.407V78c0-4.142-3.357-7.5-7.5-7.5
	s-7.5,3.358-7.5,7.5v67.148h-27.936V15H344.2v27c0,4.142,3.357,7.5,7.5,7.5s7.5-3.358,7.5-7.5V12.5c0-6.893-5.607-12.5-12.5-12.5
	h-32.936c-6.892,0-12.5,5.607-12.5,12.5v135.148c0,5.08,3.05,9.453,7.411,11.406v167.854h-9.17c-13.212,0-23.96,10.749-23.96,23.961
	c0,5.412,1.806,10.408,4.843,14.424c-30.728,14.598-52.03,45.924-52.03,82.145v18.838h-5.545c-9.649,0-17.5,7.851-17.5,17.5V494.5
	c0,9.649,7.851,17.5,17.5,17.5H437.65c9.649,0,17.5-7.851,17.5-17.5v-10.725C455.15,474.125,447.3,466.275,437.65,466.275z
	 M323.676,160.148h13.112v166.76h-13.112V160.148z M299.506,341.908h61.452c4.94,0,8.96,4.02,8.96,8.961
	c0,4.94-4.02,8.959-8.96,8.959h-61.452c-4.94,0-8.96-4.019-8.96-8.959C290.546,345.928,294.565,341.908,299.506,341.908z
	 M440.15,494.5c0,1.355-1.145,2.5-2.5,2.5H222.814c-1.356,0-2.5-1.145-2.5-2.5v-10.725c0-1.355,1.144-2.5,2.5-2.5H349
	c4.143,0,7.5-3.358,7.5-7.5s-3.357-7.5-7.5-7.5H243.358v-18.838c0-34.167,22.696-63.123,53.801-72.609h66.145
	c31.104,9.486,53.8,38.442,53.8,72.609v18.838H393c-4.143,0-7.5,3.358-7.5,7.5s3.357,7.5,7.5,7.5h44.65c1.355,0,2.5,1.145,2.5,2.5
	V494.5z"/>
<path d="M201.083,472.449c4.143,0,7.5-3.358,7.5-7.5s-3.357-7.5-7.5-7.5h-52.115v-4.775h61.927c4.143,0,7.5-3.358,7.5-7.5
	s-3.357-7.5-7.5-7.5h-61.927v-4.778h67.285c4.143,0,7.5-3.358,7.5-7.5s-3.357-7.5-7.5-7.5h-67.285v-4.774h69.618
	c4.143,0,7.5-3.358,7.5-7.5s-3.357-7.5-7.5-7.5h-69.618v-4.776h69.618c4.143,0,7.5-3.358,7.5-7.5s-3.357-7.5-7.5-7.5h-69.618v-4.775
	h67.285c4.143,0,7.5-3.358,7.5-7.5s-3.357-7.5-7.5-7.5h-67.285v-4.777h61.927c4.143,0,7.5-3.358,7.5-7.5s-3.357-7.5-7.5-7.5h-61.927
	v-6.421h34.108c10.367,0,18.802-8.434,18.802-18.8c0-10.367-8.434-18.801-18.802-18.801h-7.975
	c-2.322-5.708-6.058-10.693-10.768-14.526v-91.315c0-4.142-3.357-7.5-7.5-7.5s-7.5,3.358-7.5,7.5v12.063h-15.732V142.12h15.732
	v7.809c0,4.142,3.357,7.5,7.5,7.5s7.5-3.358,7.5-7.5V62.863c7.779-6.537,12.736-16.329,12.736-27.261
	C177.07,15.971,161.099,0,141.468,0s-35.602,15.971-35.602,35.602c0,10.932,4.956,20.725,12.735,27.261v217.381
	c-4.71,3.833-8.445,8.818-10.768,14.526H99.86c-10.367,0-18.801,8.434-18.801,18.801s8.434,18.8,18.801,18.8h34.107v6.421H72.042
	c-4.143,0-7.5,3.358-7.5,7.5s3.357,7.5,7.5,7.5h61.926v4.777H66.685c-4.143,0-7.5,3.358-7.5,7.5s3.357,7.5,7.5,7.5h67.283v4.775
	H64.35c-4.143,0-7.5,3.358-7.5,7.5s3.357,7.5,7.5,7.5h69.618v4.776H64.35c-4.143,0-7.5,3.358-7.5,7.5s3.357,7.5,7.5,7.5h69.618
	v4.774H66.685c-4.143,0-7.5,3.358-7.5,7.5s3.357,7.5,7.5,7.5h67.283v4.778H72.042c-4.143,0-7.5,3.358-7.5,7.5s3.357,7.5,7.5,7.5
	h61.926v4.775H81.853c-4.143,0-7.5,3.358-7.5,7.5s3.357,7.5,7.5,7.5h52.115v4.775H90.996c-4.143,0-7.5,3.358-7.5,7.5
	s3.357,7.5,7.5,7.5h42.972V497h-16.889c-4.143,0-7.5,3.358-7.5,7.5s3.357,7.5,7.5,7.5h48.777c4.143,0,7.5-3.358,7.5-7.5
	s-3.357-7.5-7.5-7.5h-16.889v-4.776h42.974c4.143,0,7.5-3.358,7.5-7.5s-3.357-7.5-7.5-7.5h-42.974v-4.775H201.083z M141.468,15
	c11.36,0,20.602,9.242,20.602,20.602s-9.242,20.603-20.602,20.603c-11.359,0-20.602-9.243-20.602-20.603
	C120.866,24.242,130.108,15,141.468,15z M141.468,71.205c2.703,0,5.334-0.313,7.866-0.887v56.802h-15.732V70.318
	C136.134,70.892,138.765,71.205,141.468,71.205z M133.602,215.992h15.732v56.975c-2.534-0.562-5.165-0.864-7.866-0.864
	s-5.332,0.302-7.866,0.864V215.992z M141.468,287.103c6.563,0,12.434,2.986,16.343,7.667h-32.686
	C129.034,290.089,134.905,287.103,141.468,287.103z M96.06,313.571c0-2.096,1.705-3.801,3.801-3.801h83.216
	c2.097,0,3.802,1.705,3.802,3.801s-1.705,3.8-3.802,3.8H99.86C97.765,317.372,96.06,315.667,96.06,313.571z"/>
<circle cx="141.47" cy="35.603" r="7.5"/>
<g>
</g>
<g>
</g>
<g>
</g>
<g>
</g>
<g>
</g>
<g>
</g>
<g>
</g>
<g>
</g>
<g>
</g>
<g>
</g>
<g>
</g>
<g>
</g>
<g>
</g>
<g>
</g>
<g>
</g>
</svg>
