<svg id="Capa_1" enable-background="new 0 0 512 512" height="512" viewBox="0 0 512 512" width="512" xmlns="http://www.w3.org/2000/svg"><g><path d="m144.422 111.535c2.698 37.731 13.065 74.589 30.545 108.292 1.741 3.357 4.719 5.817 8.208 6.942h145.65c3.49-1.125 6.468-3.585 8.208-6.942 17.479-33.703 27.846-70.561 30.545-108.292z" fill="#dae4ea"/><path d="m138.867 65.691c0 6.936 234.266 6.936 234.266 0v35.417c0 6.936-5.623 12.56-12.56 12.56h-209.147c-6.936 0-12.559-5.623-12.559-12.56z" fill="#e7ecf1"/><path d="m313.232 417.435c-16.158 11.472-98.306 11.472-114.464 0l-14.891 83.861c-.412 2.323 1.184 4.524 3.52 4.855l14.401 2.037c35.956 5.085 72.448 5.085 108.404 0l14.401-2.037c2.336-.33 3.932-2.532 3.52-4.855z" fill="#e7ecf1"/><g fill="#dae4ea"><path d="m213.18 491.418c-.449 0-.904-.039-1.361-.12-4.203-.747-7.005-4.759-6.259-8.962l4.991-28.103c.747-4.203 4.76-7 8.962-6.259 4.203.747 7.005 4.759 6.259 8.962l-4.991 28.103c-.664 3.746-3.924 6.379-7.601 6.379z"/><path d="m298.82 491.418c-3.677 0-6.936-2.633-7.602-6.379l-4.991-28.103c-.746-4.203 2.056-8.216 6.259-8.962 4.201-.739 8.216 2.056 8.962 6.259l4.991 28.103c.746 4.203-2.056 8.216-6.259 8.962-.456.08-.911.12-1.36.12z"/><path d="m157.029 335.395v1.286c0 54.66 44.311 98.971 98.971 98.971 54.66 0 98.971-44.311 98.971-98.971v-1.286c-10.383 21.287-187.559 21.287-197.942 0z"/></g><path d="m150.278 281.499c.476 33.908 210.968 33.908 211.444 0v25.765c-.476 33.908-27.558 65.193-66.011 65.193h-79.421c-38.454 0-65.535-31.285-66.011-65.193v-25.765z" fill="#e7ecf1"/><path d="m360.574 78.251h-209.148c-6.936 0-12.559-5.623-12.559-12.56v-53.131c0-6.936 5.623-12.56 12.559-12.56h209.147c6.936 0 12.56 5.623 12.56 12.56v53.132c0 6.936-5.623 12.559-12.559 12.559z" fill="#f6f9f9"/><ellipse cx="256" cy="39.126" fill="#b9c1cb" rx="24.957" ry="13.361"/><path d="m295.711 346.693h-79.421c-52.81 0-84.172-59.006-54.626-102.778 8.54-12.651 22.806-20.234 38.07-20.234h112.533c15.264 0 29.531 7.583 38.07 20.234 29.545 43.771-1.816 102.778-54.626 102.778z" fill="#f6f9f9"/></g></svg>