<svg id="Capa_1" enable-background="new 0 0 511.804 511.804" height="512" viewBox="0 0 511.804 511.804" width="512" xmlns="http://www.w3.org/2000/svg"><g><path d="m357.371 83.428h-202.939c-6.731 0-12.187-5.456-12.187-12.187v-51.554c0-6.731 5.456-12.187 12.187-12.187h202.939c6.731 0 12.187 5.456 12.187 12.187v51.555c0 6.73-5.456 12.186-12.187 12.186z" fill="#f6f9f9"/><ellipse cx="255.902" cy="45.465" fill="#b9c1cb" rx="24.216" ry="12.964"/><path d="m142.246 71.242c0 6.731 5.456 12.187 12.187 12.187h202.939c6.731 0 12.187-5.456 12.187-12.187v34.366c0 6.731-5.456 12.187-12.187 12.187h-202.94c-6.731 0-12.187-5.456-12.187-12.187v-34.366z" fill="#e7ecf1"/><path d="m294.434 343.902h-77.064c-51.243 0-81.673-57.255-53.004-99.727 8.286-12.276 22.129-19.633 36.94-19.633h109.193c14.811 0 28.654 7.358 36.94 19.633 28.668 42.472-1.763 99.727-53.005 99.727z" fill="#f6f9f9"/><path d="m153.318 280.644c.462 32.902 26.74 63.258 64.052 63.258h77.064c37.312 0 63.59-30.356 64.052-63.258v25c-.462 32.902-26.74 63.258-64.052 63.258h-77.064c-37.312 0-63.59-30.356-64.052-63.258z" fill="#e7ecf1"/><path d="m357.371 117.794h-202.939c-2.517 0-4.855-.763-6.796-2.07 2.618 36.611 12.677 72.375 29.638 105.078 1.689 3.257 4.579 5.645 7.965 6.736 5.056-1.954 10.493-2.997 16.067-2.997h109.192c5.574 0 11.011 1.042 16.067 2.997 3.386-1.091 6.276-3.479 7.965-6.736 16.96-32.703 27.02-68.467 29.638-105.078-1.942 1.307-4.28 2.07-6.797 2.07z" fill="#dae4ea"/><path d="m294.434 368.902h-77.064c-26.495 0-47.426-15.307-57.501-35.963v1.248c0 53.037 42.995 96.033 96.033 96.033 53.037 0 96.033-42.995 96.033-96.033v-1.248c-10.075 20.656-31.006 35.963-57.501 35.963z" fill="#dae4ea"/><path d="m311.435 412.544c-15.678 11.132-34.841 17.676-55.533 17.676-20.692 0-39.855-6.544-55.533-17.676l-14.449 81.371c-.4 2.254 1.149 4.39 3.415 4.711l13.973 1.976c34.889 4.934 70.298 4.934 105.187 0l13.973-1.976c2.267-.321 3.815-2.457 3.415-4.711z" fill="#e7ecf1"/><path d="m255.902 65.929c18.081 0 31.716-8.798 31.716-20.464s-13.635-20.464-31.716-20.464-31.716 8.798-31.716 20.464 13.635 20.464 31.716 20.464zm0-25.928c9.85 0 16.056 3.762 16.697 5.464-.642 1.702-6.848 5.464-16.697 5.464s-16.056-3.762-16.697-5.464c.641-1.702 6.847-5.464 16.697-5.464z"/><path d="m211.802 448.25-4.843 27.269c-.724 4.078 1.995 7.972 6.073 8.696 4.104.723 7.975-2.014 8.696-6.073l4.843-27.269c.724-4.078-1.995-7.972-6.073-8.696-4.077-.719-7.971 1.995-8.696 6.073z"/><path d="m291.305 442.177c-4.078.725-6.797 4.618-6.073 8.696l4.843 27.269c.72 4.054 4.588 6.797 8.696 6.073 4.078-.725 6.797-4.618 6.073-8.696l-4.843-27.269c-.724-4.078-4.62-6.79-8.696-6.073z"/><path d="m371.406 119.4c3.494-3.555 5.653-8.426 5.653-13.793v-85.92c-.001-10.856-8.832-19.687-19.687-19.687h-202.94c-10.855 0-19.687 8.831-19.687 19.687v85.921c0 5.367 2.159 10.238 5.653 13.793 1.247 15.023 3.734 30.027 7.404 44.645 1 3.984 5.043 6.463 9.101 5.448 4.018-1.009 6.457-5.083 5.448-9.101-2.891-11.514-5.005-23.28-6.313-35.1h199.734c-3.539 32.222-12.905 63.144-27.899 92.055-.43.828-1.028 1.535-1.751 2.085-4.988-1.567-10.248-2.392-15.623-2.392h-109.194c-5.375 0-10.635.825-15.623 2.392-.723-.549-1.32-1.256-1.75-2.085-4.096-7.896-7.83-16.095-11.102-24.37-1.522-3.852-5.882-5.741-9.731-4.218-3.853 1.522-5.74 5.88-4.218 9.731 3.458 8.748 7.406 17.416 11.735 25.763.352.679.738 1.334 1.154 1.964-5.284 3.641-9.922 8.279-13.622 13.76-8.87 13.142-13.013 28.091-12.331 43.013v22.652c0 .035 0 .07.001.105.139 9.908 2.427 19.759 6.551 28.799.113 32.932 15.68 62.291 39.814 81.189l-13.649 76.869c-1.139 6.421 3.287 12.532 9.75 13.445l13.974 1.977c35.592 5.035 71.693 5.033 107.288 0l13.972-1.977c6.456-.912 10.891-7.016 9.751-13.448l-3.701-20.839c-.725-4.078-4.622-6.79-8.696-6.073-4.078.725-6.797 4.618-6.073 8.696l3.075 17.313-10.428 1.476c-34.202 4.836-68.885 4.837-103.087 0l-10.429-1.476 11.884-66.924c31.081 17.253 69.049 17.278 100.176 0l2.695 15.178c.72 4.054 4.588 6.797 8.696 6.073 4.078-.725 6.797-4.618 6.073-8.696l-3.835-21.595c24.134-18.898 39.701-48.257 39.814-81.189 4.124-9.04 6.412-18.892 6.551-28.799.001-.035.001-.07.001-.105v-22.652c.682-14.923-3.461-29.871-12.331-43.013-3.7-5.481-8.338-10.119-13.622-13.76.417-.63.802-1.285 1.155-1.964 17.017-32.81 27.177-68.071 30.219-104.853zm-221.66-99.713c0-2.584 2.103-4.687 4.687-4.687h202.939c2.584 0 4.687 2.103 4.687 4.687v51.556c0 2.584-2.103 4.687-4.687 4.687h-35.503c-4.143 0-7.5 3.357-7.5 7.5s3.357 7.5 7.5 7.5h35.503c1.615 0 3.184-.195 4.687-.564v15.242c0 1.549-.755 2.924-1.917 3.778-.111.071-.221.144-.328.221-.711.436-1.548.688-2.442.688h-202.94c-.912 0-1.764-.262-2.485-.715-.085-.06-.171-.118-.258-.174-1.177-.852-1.944-2.237-1.944-3.797v-15.244c1.502.368 3.072.564 4.687.564h132.437c4.143 0 7.5-3.357 7.5-7.5s-3.357-7.5-7.5-7.5h-132.437c-2.584 0-4.687-2.103-4.687-4.687v-51.555zm144.688 341.715h-77.064c-23.812 0-41.272-13.216-50.089-30.334 13.076 12.982 30.726 20.333 50.089 20.333h77.064c19.363 0 37.013-7.351 50.089-20.333-8.817 17.118-26.277 30.334-50.089 30.334zm-38.532 61.318c-40.042 0-73.961-26.721-84.861-63.267 12.802 10.976 29.013 16.95 46.329 16.95h77.064c17.316 0 33.527-5.974 46.329-16.95-10.9 36.546-44.819 63.267-84.861 63.267zm95.119-142.806c-.048.495-.035.76-.035 1.907-.301 8.38-2.527 16.762-6.706 24.625-9.969 18.758-28.604 29.956-49.846 29.956h-77.064c-21.242 0-39.877-11.198-49.846-29.956-4.179-7.863-6.405-16.244-6.706-24.625 0-1.247.009-1.444-.035-1.907-.012-10.973 3.275-21.876 9.8-31.543 4.251-6.299 10.242-11.034 17.1-13.742.169-.058.335-.123.499-.193 4.134-1.563 8.571-2.395 13.124-2.395h109.193c4.55 0 8.984.831 13.115 2.392.168.072.339.138.512.198 6.856 2.708 12.845 7.443 17.096 13.74 6.524 9.667 9.811 20.57 9.799 31.543z"/></g></svg>