<?xml version="1.0" encoding="iso-8859-1"?>
<!-- Generator: Adobe Illustrator 19.0.0, SVG Export Plug-In . SVG Version: 6.00 Build 0)  -->
<svg version="1.1" id="Capa_1" xmlns="http://www.w3.org/2000/svg" xmlns:xlink="http://www.w3.org/1999/xlink" x="0px" y="0px"
	 viewBox="0 0 512 512" style="enable-background:new 0 0 512 512;" xml:space="preserve">
<path style="fill:#78A7AF;" d="M323.318,46.485h-22.332v49.359h22.332c2.75,0,5-2.25,5-5V51.485
	C328.318,48.735,326.068,46.485,323.318,46.485z"/>
<path style="fill:#B1E8FF;" d="M290.986,21.123H33.989c-5.5,0-10,4.5-10,10v196.623c0,5.5,4.5,10,10,10h51.023
	c-13.331-19.779-21.294-44.78-21.294-71.97c0-64.083,44.22-116.03,98.77-116.03c54.549,0,98.771,51.947,98.771,116.03
	c0,27.189-7.963,52.19-21.295,71.97h51.023c5.5,0,10-4.5,10-10V31.123C300.986,25.623,296.486,21.123,290.986,21.123z"/>
<g>
	<path style="fill:#ABCCD3;" d="M69.585,205.254H23.989v22.492c0,5.5,4.5,10,10,10h51.023
		C78.477,228.051,73.234,217.102,69.585,205.254z"/>
	<path style="fill:#ABCCD3;" d="M255.39,205.254c-3.648,11.848-8.892,22.797-15.427,32.492h51.023c5.5,0,10-4.5,10-10v-22.492
		H255.39z"/>
</g>
<g style="opacity:0.1;">
	<path d="M51,227.746V31.123c0-5.5,4.5-10,10-10H33.989c-5.5,0-10,4.5-10,10v196.623c0,5.5,4.5,10,10,10H61
		C55.5,237.746,51,233.246,51,227.746z"/>
</g>
<path style="fill:#FFFFFF;" d="M71,65.254c0,1.65-1.35,3-3,3H47c-1.65,0-3-1.35-3-3v-21c0-1.65,1.35-3,3-3h21c1.65,0,3,1.35,3,3
	V65.254z"/>
<path style="fill:#B1E8FF;" d="M223.638,462.503l-28.589-74.488c-10.208,3.546-21.161,5.478-32.561,5.478
	c-11.401,0-22.354-1.932-32.563-5.478l-28.589,74.489L223.638,462.503L223.638,462.503z"/>
<path style="opacity:0.1;enable-background:new    ;" d="M123.274,462.503l26.783-69.783c-6.958-0.871-13.691-2.469-20.131-4.706
	l-28.589,74.489H123.274z"/>
<path style="fill:#D7F7FF;" d="M115.197,267.665h94.58c30.673-19.688,51.481-57.932,51.481-101.889
	c0-64.083-44.222-116.03-98.771-116.03c-54.55,0-98.77,51.947-98.77,116.03C63.717,209.733,84.524,247.977,115.197,267.665z"/>
<path style="opacity:0.1;enable-background:new    ;" d="M115.197,267.665h27.292C111.81,247.98,91,209.737,91,165.776
	c0-58.645,37.036-107.117,85.128-114.924c-4.459-0.724-9.012-1.106-13.641-1.106c-54.55,0-98.77,51.947-98.77,116.03
	C63.717,209.733,84.524,247.977,115.197,267.665z"/>
<path style="fill:#D7F7FF;" d="M62.421,296.039c1.948,54.153,45.998,97.453,100.067,97.453s98.119-43.3,100.065-97.453H62.421z"/>
<path style="opacity:0.1;enable-background:new    ;" d="M89.83,296.039H62.421c1.948,54.153,45.998,97.453,100.067,97.453
	c4.645,0,9.215-0.327,13.692-0.945C128.549,385.964,91.613,345.536,89.83,296.039z"/>
<path style="fill:#B1E8FF;" d="M279.886,291.039c0,2.75-2.25,5-5,5H50.09c-2.75,0-5-2.25-5-5v-18.374c0-2.75,2.25-5,5-5h224.796
	c2.75,0,5,2.25,5,5L279.886,291.039L279.886,291.039z"/>
<g style="opacity:0.1;">
	<path d="M72.204,291.039v-18.374c0-2.75,2.25-5,5-5H50.09c-2.75,0-5,2.25-5,5v18.374c0,2.75,2.25,5,5,5h27.114
		C74.454,296.039,72.204,293.789,72.204,291.039z"/>
</g>
<path style="fill:#D7F7FF;" d="M249.214,485.877c0,2.75-2.25,5-5,5H80.761c-2.75,0-5-2.25-5-5v-18.374c0-2.75,2.25-5,5-5h163.454
	c2.75,0,5,2.25,5,5L249.214,485.877L249.214,485.877z"/>
<g style="opacity:0.1;">
	<path d="M103,485.877v-18.374c0-2.75,2.25-5,5-5H80.761c-2.75,0-5,2.25-5,5v18.374c0,2.75,2.25,5,5,5H108
		C105.25,490.877,103,488.627,103,485.877z"/>
</g>
<path style="fill:#FFCFAB;" d="M369.605,243.49v65.342c0,1.65,0.029,2.971,0.064,2.935s1.014,0.895,2.175,2.067l13.657,13.802
	c1.161,1.173,3.06,1.173,4.221,0.001l13.663-13.804c1.161-1.173,3.06-1.172,4.221,0.001l13.658,13.802
	c1.161,1.173,3.06,1.173,4.221,0.001l13.66-13.803c1.161-1.173,3.06-1.173,4.221-0.001l13.661,13.804c1.16,1.172,3.06,1.172,4.221,0
	l13.66-13.803c1.161-1.173,2.139-2.104,2.174-2.068c0.034,0.035,0.063-1.286,0.063-2.936v-65.34H369.605z"/>
<g style="opacity:0.1;">
	<path d="M391.525,311.767c-0.035,0.036-0.064-1.284-0.064-2.935V243.49h-21.855v65.342c0,1.65,0.029,2.971,0.064,2.935
		s1.014,0.895,2.175,2.067l13.657,13.802c1.161,1.173,3.06,1.173,4.221,0.001l8.819-8.91l-4.842-4.893
		C392.539,312.661,391.56,311.73,391.525,311.767z"/>
</g>
<path style="fill:#B1E8FF;" d="M492.309,168.02h-32.188v12.518c0,2.75-2.25,5-5,5h-63.492c-2.75,0-5-2.25-5-5V168.02h-32.188
	c-2.75,0-5,2.25-5,5v65.47c0,2.75,2.25,5,5,5h137.867c2.75,0,5-2.25,5-5v-65.47C497.309,170.27,495.059,168.02,492.309,168.02z"/>
<g style="opacity:0.1;">
	<path d="M371.133,238.49v-65.47c0-2.75,2.25-5,5-5h-21.691c-2.75,0-5,2.25-5,5v65.47c0,2.75,2.25,5,5,5h21.691
		C373.383,243.49,371.133,241.24,371.133,238.49z"/>
</g>
<path style="fill:#E6E9ED;" d="M460.121,180.538c0,2.75-2.25,5-5,5h-63.492c-2.75,0-5-2.25-5-5v-27.51c0-2.75,2.25-5,5-5h63.492
	c2.75,0,5,2.25,5,5V180.538z"/>
<g style="opacity:0.1;">
	<path d="M408.508,180.538v-27.51c0-2.75,2.25-5,5-5h-21.879c-2.75,0-5,2.25-5,5v27.51c0,2.75,2.25,5,5,5h21.879
		C410.758,185.538,408.508,183.288,408.508,180.538z"/>
</g>
<g>
	<path style="fill:#FFBB4A;" d="M404.125,93.604c-1.522,0-2.869-1-3.32-2.47c-5.448-17.679-9.19-21.462-26.688-26.968
		c-1.454-0.456-2.445-1.815-2.445-3.355c0-1.537,0.991-2.897,2.445-3.354c17.497-5.506,21.239-9.286,26.688-26.968
		c0.451-1.469,1.799-2.47,3.32-2.47c1.524,0,2.868,1.001,3.322,2.47c5.448,17.682,9.189,21.462,26.686,26.968
		c1.455,0.456,2.443,1.816,2.443,3.354c0,1.54-0.988,2.899-2.443,3.355c-17.497,5.506-21.238,9.289-26.686,26.968
		C406.993,92.604,405.649,93.604,404.125,93.604z"/>
	<path style="fill:#FFBB4A;" d="M36.413,445.52c-1.355,0-2.556-0.889-2.958-2.199c-4.854-15.75-8.188-19.119-23.776-24.025
		c-1.295-0.406-2.179-1.618-2.179-2.988c0-1.371,0.883-2.582,2.179-2.989c15.588-4.906,18.922-8.273,23.776-24.025
		c0.402-1.311,1.603-2.199,2.958-2.199c1.359,0,2.555,0.889,2.96,2.199c4.854,15.753,8.187,19.119,23.775,24.025
		c1.296,0.407,2.177,1.618,2.177,2.989c0,1.37-0.882,2.582-2.177,2.988c-15.588,4.906-18.921,8.275-23.775,24.025
		C38.968,444.631,37.771,445.52,36.413,445.52z"/>
</g>
<path style="fill:#FF9F3D;" d="M320.684,378.236c-1.285,0-2.425-0.844-2.807-2.087c-4.607-14.948-7.77-18.145-22.563-22.801
	c-1.23-0.386-2.068-1.535-2.068-2.838c0-1.3,0.838-2.449,2.068-2.835c14.793-4.656,17.956-7.851,22.563-22.798
	c0.382-1.246,1.521-2.09,2.807-2.09c1.29,0,2.426,0.844,2.81,2.09c4.606,14.947,7.77,18.142,22.563,22.798
	c1.229,0.386,2.065,1.535,2.065,2.835c0,1.303-0.836,2.452-2.065,2.838c-14.793,4.656-17.956,7.853-22.563,22.801
	C323.109,377.393,321.974,378.236,320.684,378.236z"/>
<path d="M68,33.754H47c-5.79,0-10.5,4.71-10.5,10.5v21c0,5.79,4.71,10.5,10.5,10.5h21c5.79,0,10.5-4.71,10.5-10.5v-21
	C78.5,38.464,73.79,33.754,68,33.754z M63.5,60.754h-12v-12h12V60.754z"/>
<path d="M354.441,250.99h7.664v57.842c0,3.753,0,6.018,2.307,8.284c0.21,0.206,0.432,0.399,0.662,0.577
	c0.253,0.239,0.752,0.722,1.44,1.416l13.658,13.803c1.981,2.001,4.624,3.103,7.441,3.103c2.816,0,5.459-1.102,7.439-3.103
	l10.442-10.55l10.44,10.549c1.981,2.001,4.624,3.103,7.44,3.103s5.457-1.101,7.441-3.103l10.439-10.549l10.441,10.55
	c1.98,2.001,4.623,3.103,7.44,3.103c2.815,0,5.457-1.101,7.441-3.103l13.659-13.802c0.666-0.673,1.154-1.147,1.416-1.395
	c1.543-1.15,2.897-3.156,2.971-6.65c0.012-0.57,0.02-1.36,0.02-2.236V250.99h7.664c6.893,0,12.5-5.607,12.5-12.5v-65.47
	c0-6.893-5.607-12.5-12.5-12.5h-24.688v-7.492c0-6.893-5.607-12.5-12.5-12.5h-63.492c-6.893,0-12.5,5.607-12.5,12.5v7.492h-24.688
	c-6.893,0-12.5,5.607-12.5,12.5v65.47C341.941,245.383,347.549,250.99,354.441,250.99z M373.324,305.207
	c0.448,0.251,0.863,0.546,1.24,0.873C374.154,305.746,373.747,305.454,373.324,305.207z M471.908,306.315
	c0.59-0.564,1.281-1.042,2.063-1.395C473.25,305.262,472.587,305.732,471.908,306.315z M478.248,319.145
	c0.785-0.139,1.86-0.436,2.909-1.09C480.539,318.456,479.53,318.939,478.248,319.145z M469.645,268.686
	c-2.974,0.995-5.119,3.798-5.119,7.107c0,3.31,2.146,6.112,5.119,7.107v25.589c-0.022,0.022-0.045,0.045-0.067,0.068l-10.439,10.549
	l-10.443-10.553c-1.981-2-4.622-3.101-7.438-3.101c-2.816,0-5.459,1.103-7.441,3.104l-10.439,10.548l-10.44-10.549
	c-1.981-2.002-4.624-3.103-7.441-3.103c-2.816,0-5.458,1.102-7.439,3.103l-10.442,10.55l-10.439-10.549
	c-0.023-0.023-0.046-0.047-0.069-0.07V283.29c4.105-0.044,7.42-3.381,7.42-7.496s-3.314-7.452-7.42-7.496V250.99h92.539v17.696
	H469.645z M356.941,175.52h22.188v5.018c0,6.893,5.607,12.5,12.5,12.5H414c4.143,0,7.5-3.357,7.5-7.5s-3.357-7.5-7.5-7.5h-19.871
	v-22.51h58.492v22.51H450c-4.143,0-7.5,3.357-7.5,7.5s3.357,7.5,7.5,7.5h5.121c6.893,0,12.5-5.607,12.5-12.5v-5.018h22.188v60.47
	H356.941V175.52z"/>
<path d="M397.025,283.294h5c4.143,0,7.5-3.357,7.5-7.5s-3.357-7.5-7.5-7.5h-5c-4.143,0-7.5,3.357-7.5,7.5
	C389.525,279.936,392.883,283.294,397.025,283.294z"/>
<path d="M447.025,283.294h5c4.143,0,7.5-3.357,7.5-7.5s-3.357-7.5-7.5-7.5h-5c-4.143,0-7.5,3.357-7.5,7.5
	C439.525,279.936,442.883,283.294,447.025,283.294z"/>
<path d="M422.025,283.294h5c4.143,0,7.5-3.357,7.5-7.5s-3.357-7.5-7.5-7.5h-5c-4.143,0-7.5,3.357-7.5,7.5
	C414.525,279.936,417.883,283.294,422.025,283.294z"/>
<path d="M504.5,483.377H256.714v-15.874c0-6.892-5.608-12.5-12.5-12.5h-15.421l-24.058-62.684
	c12.287-5.294,23.601-12.925,33.379-22.675c17.941-17.89,28.901-41.078,31.435-66.105h5.336c6.893,0,12.5-5.607,12.5-12.5v-18.374
	c0-6.893-5.607-12.5-12.5-12.5h-43.94c4.63-4.544,8.926-9.532,12.83-14.919h47.211c9.649,0,17.5-7.851,17.5-17.5v-22.492V103.345
	h14.832c6.893,0,12.5-5.607,12.5-12.5v-39.36c0-6.893-5.607-12.5-12.5-12.5h-14.832v-7.862c0-9.649-7.851-17.5-17.5-17.5H33.989
	c-9.649,0-17.5,7.851-17.5,17.5v174.131v22.492c0,9.649,7.851,17.5,17.5,17.5h47.21c3.904,5.387,8.201,10.375,12.831,14.919H50.09
	c-6.893,0-12.5,5.607-12.5,12.5v18.374c0,6.893,5.607,12.5,12.5,12.5h5.335c2.535,25.027,13.496,48.216,31.437,66.105
	c9.778,9.75,21.091,17.38,33.378,22.675l-24.058,62.684H80.761c-6.893,0-12.5,5.608-12.5,12.5v15.874H9.679
	c-4.142,0-7.5,3.357-7.5,7.5c0,4.142,3.358,7.5,7.5,7.5H504.5c4.143,0,7.5-3.358,7.5-7.5C512,486.734,508.643,483.377,504.5,483.377
	z M293.486,227.746c0,1.355-1.145,2.5-2.5,2.5h-37.889c2.937-5.556,5.5-11.404,7.662-17.492h32.727L293.486,227.746L293.486,227.746
	z M320.818,53.985v34.359h-12.332V53.985H320.818z M33.989,230.246c-1.355,0-2.5-1.145-2.5-2.5v-14.992h32.726
	c2.162,6.088,4.725,11.936,7.662,17.492H33.989z M71.217,165.776c0-59.844,40.943-108.53,91.27-108.53
	c12.189,0,24.022,2.814,35.172,8.366c3.708,1.845,8.211,0.336,10.057-3.371c1.846-3.708,0.337-8.21-3.371-10.057
	c-13.245-6.595-27.328-9.938-41.857-9.938c-58.598,0-106.27,55.415-106.27,123.53c0,11.057,1.268,21.773,3.623,31.978H31.489V31.123
	c0-1.355,1.145-2.5,2.5-2.5h256.997c1.355,0,2.5,1.145,2.5,2.5v166.631h-28.352c2.355-10.204,3.623-20.921,3.623-31.978
	c0-34.443-12.493-67.574-34.276-90.897c-2.828-3.027-7.574-3.188-10.6-0.362c-3.027,2.827-3.189,7.573-0.362,10.601
	c19.217,20.576,30.238,49.975,30.238,80.659c0,40.403-18.672,75.707-46.286,94.389h-89.969
	C89.889,241.483,71.217,206.18,71.217,165.776z M52.59,275.165h219.796v13.374H52.59V275.165z M70.529,303.539h183.916
	c-2.471,21.003-11.821,40.426-26.923,55.483c-17.441,17.392-40.537,26.97-65.035,26.97s-47.594-9.578-65.036-26.97
	C82.351,343.965,73.001,324.542,70.529,303.539z M83.261,483.377v-13.374H169c4.142,0,7.5-3.357,7.5-7.5c0-4.142-3.358-7.5-7.5-7.5
	h-56.752l22.159-57.736c9.048,2.454,18.471,3.726,28.081,3.726s19.032-1.271,28.079-3.725l22.159,57.735H204
	c-4.142,0-7.5,3.358-7.5,7.5c0,4.143,3.358,7.5,7.5,7.5h37.714v13.374L83.261,483.377L83.261,483.377z"/>
<path d="M371.866,71.32c15.197,4.782,17.029,6.635,21.769,22.015c1.427,4.646,5.643,7.769,10.49,7.769
	c4.84,0,9.055-3.117,10.489-7.761c4.742-15.388,6.574-17.24,21.763-22.02c4.605-1.443,7.7-5.668,7.7-10.512
	c0-4.843-3.095-9.066-7.692-10.508c-15.197-4.782-17.028-6.635-21.772-22.029c-1.434-4.638-5.648-7.754-10.487-7.754
	c-4.847,0-9.063,3.121-10.487,7.761c-4.742,15.388-6.573,17.24-21.765,22.021c-4.606,1.444-7.701,5.668-7.701,10.51
	C364.172,65.653,367.267,69.878,371.866,71.32z M404.126,43.316c3.9,8.778,8.677,13.564,17.436,17.495
	c-8.759,3.931-13.536,8.717-17.436,17.495c-3.901-8.777-8.678-13.563-17.438-17.495C395.448,56.881,400.224,52.097,404.126,43.316z"
	/>
<path d="M7.427,426.449c13.165,4.144,14.752,5.748,18.857,19.07c1.375,4.485,5.446,7.5,10.128,7.5c4.674,0,8.743-3.009,10.127-7.49
	c4.109-13.332,5.695-14.938,18.852-19.078c4.446-1.395,7.433-5.471,7.433-10.145c0-4.671-2.985-8.747-7.426-10.144
	c-13.299-4.186-14.709-5.612-18.861-19.085c-1.383-4.477-5.452-7.485-10.126-7.485c-4.682,0-8.752,3.015-10.125,7.49
	c-4.15,13.468-5.56,14.895-18.858,19.08C2.986,407.56,0,411.636,0,416.307C0,420.979,2.988,425.057,7.427,426.449z M36.414,402.68
	c3.176,6.509,7.09,10.43,13.59,13.626c-6.499,3.197-10.414,7.118-13.59,13.627c-3.176-6.508-7.091-10.43-13.591-13.626
	C29.322,413.11,33.237,409.19,36.414,402.68z"/>
<path d="M320.684,315.288c-4.613,0-8.622,2.971-9.974,7.381c-3.884,12.602-5.203,13.936-17.639,17.851
	c-4.382,1.373-7.325,5.389-7.325,9.991c0,4.604,2.943,8.621,7.316,9.992c12.443,3.916,13.763,5.251,17.646,17.849
	c1.357,4.417,5.365,7.385,9.976,7.385c4.605,0,8.614-2.964,9.977-7.378c3.885-12.604,5.204-13.939,17.641-17.853
	c4.379-1.374,7.32-5.391,7.32-9.994s-2.941-8.617-7.314-9.989c-12.444-3.917-13.764-5.251-17.646-17.852
	C329.301,318.255,325.291,315.288,320.684,315.288z M320.685,362.575c-2.873-5.626-6.414-9.171-12.034-12.063
	c5.619-2.891,9.16-6.436,12.034-12.063c2.874,5.626,6.413,9.17,12.034,12.061C327.098,353.403,323.559,356.947,320.685,362.575z"/>
<path d="M100,110.25c-1.98,0-3.91,0.8-5.3,2.189c-1.4,1.4-2.2,3.33-2.2,5.311c0,1.97,0.8,3.899,2.2,5.3c1.39,1.4,3.33,2.2,5.3,2.2
	s3.91-0.8,5.3-2.2c1.4-1.4,2.2-3.33,2.2-5.3c0-1.98-0.8-3.91-2.2-5.311C103.91,111.05,101.97,110.25,100,110.25z"/>
<path d="M226,125.25c1.97,0,3.91-0.8,5.3-2.2c1.4-1.4,2.2-3.33,2.2-5.3c0-1.98-0.8-3.91-2.2-5.311c-1.39-1.39-3.33-2.189-5.3-2.189
	s-3.91,0.8-5.3,2.189c-1.4,1.4-2.2,3.33-2.2,5.311c0,1.97,0.8,3.899,2.2,5.3C222.09,124.45,224.03,125.25,226,125.25z"/>
<path d="M100,205.24c-1.98,0-3.91,0.81-5.3,2.199c-1.4,1.4-2.2,3.33-2.2,5.311c0,1.97,0.8,3.899,2.2,5.3c1.39,1.4,3.33,2.2,5.3,2.2
	s3.9-0.8,5.3-2.2s2.2-3.33,2.2-5.3c0-1.98-0.8-3.91-2.2-5.311C103.91,206.05,101.97,205.24,100,205.24z"/>
<path d="M226,220.25c1.97,0,3.9-0.8,5.3-2.2c1.4-1.4,2.2-3.33,2.2-5.3c0-1.98-0.8-3.91-2.2-5.311c-1.39-1.39-3.33-2.199-5.3-2.199
	c-1.98,0-3.91,0.81-5.3,2.199c-1.4,1.4-2.2,3.33-2.2,5.311c0,1.97,0.8,3.899,2.2,5.3C222.09,219.45,224.03,220.25,226,220.25z"/>
<g>
</g>
<g>
</g>
<g>
</g>
<g>
</g>
<g>
</g>
<g>
</g>
<g>
</g>
<g>
</g>
<g>
</g>
<g>
</g>
<g>
</g>
<g>
</g>
<g>
</g>
<g>
</g>
<g>
</g>
</svg>
