<svg id="Capa_1" enable-background="new 0 0 512 512" height="512" viewBox="0 0 512 512" width="512" xmlns="http://www.w3.org/2000/svg"><g><path d="m504.5 136.091c0-18.921-15.339-34.26-34.26-34.26h-141.894c-28.382 0-51.39 23.008-51.39 51.39s23.008 51.39 51.39 51.39h159.024c9.461 0 17.13-7.669 17.13-17.13s-7.669-17.13-17.13-17.13h-17.13c18.921-.001 34.26-15.339 34.26-34.26z" fill="#365e7d"/><path d="m58.89 204.61c-28.382 0-51.39-23.008-51.39-51.39s23.008-51.39 51.39-51.39h269.456c-28.382 0-51.39 23.008-51.39 51.39s23.008 51.39 51.39 51.39z" fill="#407093"/><path d="m241.72 101.831c-28.382 0-51.39 23.008-51.39 51.39s23.008 51.39 51.39 51.39h-36.658c-28.382 0-51.39-23.008-51.39-51.39s23.008-51.39 51.39-51.39z" fill="#365e7d"/><path d="m7.5 238.87c0-18.921 15.339-34.26 34.26-34.26h141.895c28.382 0 51.39 23.008 51.39 51.39s-23.008 51.39-51.39 51.39h-159.025c-9.461 0-17.13-7.669-17.13-17.13s7.669-17.13 17.13-17.13h17.13c-18.921-.001-34.26-15.339-34.26-34.26z" fill="#78c2a4"/><path d="m453.11 307.39c28.382 0 51.39-23.008 51.39-51.39s-23.008-51.39-51.39-51.39h-269.456c28.382 0 51.39 23.008 51.39 51.39s-23.008 51.39-51.39 51.39z" fill="#66b394"/><path d="m270.28 204.61c28.382 0 51.39 23.008 51.39 51.39s-23.008 51.39-51.39 51.39h36.658c28.382 0 51.39-23.008 51.39-51.39s-23.008-51.39-51.39-51.39z" fill="#78c2a4"/><path d="m504.5 341.649c0-18.921-15.339-34.26-34.26-34.26h-141.894c-28.382 0-51.39 23.008-51.39 51.39s23.008 51.39 51.39 51.39h159.024c9.461 0 17.13-7.669 17.13-17.13s-7.669-17.13-17.13-17.13h-17.13c18.921 0 34.26-15.339 34.26-34.26z" fill="#ebb044"/><path d="m58.89 410.169c-28.382 0-51.39-23.008-51.39-51.39s23.008-51.39 51.39-51.39h269.456c-28.382 0-51.39 23.008-51.39 51.39s23.008 51.39 51.39 51.39z" fill="#ffc250"/><path d="m241.72 307.39c-28.382 0-51.39 23.008-51.39 51.39s23.008 51.39 51.39 51.39h-36.658c-28.382 0-51.39-23.008-51.39-51.39s23.008-51.39 51.39-51.39z" fill="#ebb044"/><path d="m512 136.091c0-23.026-18.733-41.76-41.76-41.76h-318.968c-4.142 0-7.5 3.357-7.5 7.5s3.358 7.5 7.5 7.5h14.566c-7.185 6.428-12.788 14.591-16.145 23.822-.119.279-.222.568-.306.863-4.285 12.388-4.291 26.004 0 38.408.085.296.187.583.306.863 3.356 9.232 8.959 17.394 16.145 23.823h-106.948c-24.201 0-43.89-19.688-43.89-43.89s19.689-43.89 43.89-43.89h57.382c4.142 0 7.5-3.357 7.5-7.5s-3.358-7.5-7.5-7.5h-57.382c-32.472.001-58.89 26.419-58.89 58.891 0 19.588 9.614 36.973 24.37 47.685-14.369 6.608-24.37 21.14-24.37 37.964 0 11.704 4.84 22.3 12.624 29.889-7.527 4.22-12.624 12.276-12.624 21.501 0 12.045 8.691 22.098 20.131 24.218-12.332 10.802-20.131 26.658-20.131 44.301 0 32.472 26.418 58.89 58.89 58.89h189.11c4.142 0 7.5-3.357 7.5-7.5s-3.358-7.5-7.5-7.5h-6.28c-24.201 0-43.89-19.688-43.89-43.89s19.689-43.89 43.89-43.89h47.402c-26.215 23.453-26.228 64.315 0 87.779h-6.122c-4.142 0-7.5 3.357-7.5 7.5s3.358 7.5 7.5 7.5h204.37c13.581 0 24.63-11.049 24.63-24.63 0-9.225-5.097-17.281-12.624-21.501 7.784-7.588 12.624-18.183 12.624-29.888 0-16.824-10.001-31.356-24.37-37.964 30.725-22.303 32.683-67.071 4.239-91.987 11.44-2.12 20.131-12.173 20.131-24.218 0-9.225-5.097-17.281-12.624-21.501 7.784-7.588 12.624-18.184 12.624-29.888zm-222.878-26.76c-26.215 23.453-26.228 64.315 0 87.779h-47.402c-24.201 0-43.89-19.688-43.89-43.89s19.689-43.89 43.89-43.89h47.402zm60.641 156.299h-21.381c1.023-6.191 1.077-12.741 0-19.26h21.381c1.419 6.315 1.421 12.938 0 19.26zm-25.995 15h19.481c-7.437 10.93-19.675 18.343-33.656 19.181 5.936-5.333 10.787-11.853 14.175-19.181zm0-49.26c-3.388-7.328-8.239-13.848-14.175-19.181 13.981.838 26.219 8.25 33.656 19.181zm-135.536-102.779h-19.481c7.437-10.93 19.675-18.343 33.656-19.181-5.936 5.333-10.787 11.852-14.175 19.181zm-4.614 15c-1.023 6.191-1.077 12.741 0 19.26h-21.381c-1.419-6.315-1.421-12.938 0-19.26zm4.614 34.26c3.388 7.328 8.239 13.848 14.175 19.181-13.981-.838-26.219-8.25-33.656-19.181zm-163.602 122.039c-5.31 0-9.63-4.32-9.63-9.63s4.32-9.63 9.63-9.63h91.642c4.142 0 7.5-3.357 7.5-7.5s-3.358-7.5-7.5-7.5h-74.512c-14.755 0-26.76-12.004-26.76-26.76 0-14.755 12.004-26.76 26.76-26.76h141.895c24.201 0 43.89 19.688 43.89 43.89s-19.689 43.89-43.89 43.89zm34.26 102.779c-24.201 0-43.89-19.688-43.89-43.89s19.689-43.89 43.89-43.89h106.948c-7.185 6.428-12.788 14.591-16.145 23.822-.119.279-.222.568-.306.863-4.285 12.388-4.291 26.004 0 38.408.085.296.187.583.306.863 3.356 9.232 8.959 17.394 16.145 23.823h-106.948zm124.728-34.26h-21.381c-1.419-6.315-1.421-12.938 0-19.26h21.381c-1.023 6.192-1.077 12.742 0 19.26zm-14.867 15h19.481c3.388 7.328 8.239 13.848 14.175 19.181-13.981-.838-26.219-8.251-33.656-19.181zm19.481-49.26h-19.481c7.437-10.93 19.675-18.343 33.656-19.181-5.936 5.334-10.787 11.853-14.175 19.181zm34.646-34.259c26.215-23.453 26.228-64.315 0-87.779h47.402c24.201 0 43.89 19.688 43.89 43.89s-19.689 43.89-43.89 43.89h-47.402zm247.362 15c14.755 0 26.76 12.005 26.76 26.76 0 14.756-12.004 26.76-26.76 26.76h-141.894c-5.31 0-9.63-4.32-9.63-9.631 0-5.31 4.32-9.63 9.63-9.63h141.894c4.142 0 7.5-3.357 7.5-7.5s-3.358-7.5-7.5-7.5h-141.894c-13.581 0-24.63 11.05-24.63 24.631s11.049 24.63 24.63 24.63h159.024c5.31 0 9.63 4.32 9.63 9.63s-4.32 9.63-9.63 9.63h-159.024c-24.201 0-43.89-19.688-43.89-43.89s19.689-43.89 43.89-43.89zm26.76-58.89c0 24.201-19.689 43.89-43.89 43.89h-106.948c7.185-6.428 12.788-14.591 16.145-23.823.119-.279.221-.567.306-.863 4.285-12.388 4.291-26.004 0-38.408-.085-.296-.187-.584-.306-.863-3.356-9.232-8.959-17.394-16.145-23.822h106.948c24.201-.001 43.89 19.688 43.89 43.889zm-26.76-93.149h-141.894c-5.31 0-9.63-4.32-9.63-9.63s4.32-9.63 9.63-9.63h141.894c4.142 0 7.5-3.357 7.5-7.5s-3.358-7.5-7.5-7.5h-141.894c-13.581 0-24.63 11.049-24.63 24.63s11.049 24.63 24.63 24.63h159.024c5.31 0 9.63 4.32 9.63 9.63s-4.32 9.63-9.63 9.63h-159.024c-24.201 0-43.89-19.688-43.89-43.89s19.689-43.89 43.89-43.89h141.894c14.755 0 26.76 12.005 26.76 26.76 0 14.756-12.004 26.76-26.76 26.76z"/><path d="m208.284 256c0-13.581-11.049-24.63-24.63-24.63h-141.894c-4.142 0-7.5 3.357-7.5 7.5s3.358 7.5 7.5 7.5h141.895c5.31 0 9.63 4.32 9.63 9.63s-4.32 9.63-9.63 9.63h-32.382c-4.142 0-7.5 3.357-7.5 7.5s3.358 7.5 7.5 7.5h32.382c13.58 0 24.629-11.049 24.629-24.63z"/></g></svg>