<svg id="Capa_1" enable-background="new 0 0 512 512" height="512" viewBox="0 0 512 512" width="512" xmlns="http://www.w3.org/2000/svg"><g><path d="m52.941 203.06c-29.239 0-52.941-23.703-52.941-52.941s23.702-52.941 52.941-52.941h277.589c-29.238 0-29.238 105.881 0 105.881h-277.589z" fill="#407093"/><path d="m241.289 97.178c-29.238 0-52.941 23.702-52.941 52.941s23.702 52.941 52.941 52.941h-37.765c-29.238 0-52.941-23.702-52.941-52.941s23.702-52.941 52.941-52.941z" fill="#365e7d"/><path d="m194.814 175.492h-37.765c-2.602-4.755-4.495-9.953-5.537-15.453h37.765c1.042 5.5 2.935 10.698 5.537 15.453zm-43.302-35.294h37.765c1.043-5.499 2.936-10.697 5.537-15.453h-37.765c-2.601 4.756-4.495 9.954-5.537 15.453z" fill="#2b4d66"/><path d="m512 132.472c0-19.492-15.801-35.294-35.294-35.294h-146.177c-29.238 0-52.941 23.702-52.941 52.941s23.702 52.941 52.941 52.941h163.824c9.746 0 17.647-7.901 17.647-17.647s-7.901-17.647-17.647-17.647h-17.646c19.492-.001 35.293-15.802 35.293-35.294z" fill="#365e7d"/><path d="m330.529 152.313c-5.47 0-9.921-4.451-9.921-9.921s4.45-9.921 9.921-9.921h146.177c4.267 0 7.726-3.459 7.726-7.726s-3.459-7.726-7.726-7.726h-146.177c-13.991 0-25.373 11.382-25.373 25.373s11.382 25.373 25.373 25.373h146.177c12.07 0 22.725-6.06 29.089-15.302-.492-.098-1.001-.15-1.522-.15z" fill="#2b4d66"/><path d="m459.059 308.941c29.239 0 52.941-23.703 52.941-52.941s-23.702-52.941-52.941-52.941h-277.588c29.238 0 29.238 105.881 0 105.881h277.588z" fill="#66b394"/><path d="m270.711 203.059c29.238 0 52.941 23.702 52.941 52.941s-23.702 52.941-52.941 52.941h37.765c29.238 0 52.941-23.702 52.941-52.941s-23.702-52.941-52.941-52.941z" fill="#78c2a4"/><path d="m322.723 265.92h37.765c-1.043 5.499-2.936 10.697-5.537 15.453h-37.765c2.602-4.755 4.495-9.953 5.537-15.453zm32.228-35.293h-37.765c2.602 4.755 4.495 9.953 5.537 15.453h37.765c-1.042-5.5-2.936-10.698-5.537-15.453z" fill="#57988b"/><path d="m0 238.353c0-19.492 15.801-35.294 35.294-35.294h146.177c29.238 0 52.941 23.702 52.941 52.941s-23.702 52.941-52.941 52.941h-163.824c-9.746 0-17.647-7.901-17.647-17.647s7.901-17.647 17.647-17.647h17.646c-19.492-.001-35.293-15.802-35.293-35.294z" fill="#78c2a4"/><path d="m181.471 258.194c5.47 0 9.921-4.451 9.921-9.921s-4.45-9.921-9.921-9.921h-146.177c-4.267 0-7.726-3.459-7.726-7.726 0-4.268 3.459-7.726 7.726-7.726h146.177c13.991 0 25.373 11.382 25.373 25.373s-11.382 25.373-25.373 25.373h-146.177c-12.07 0-22.725-6.06-29.089-15.302.492-.098 1.001-.15 1.522-.15z" fill="#66b394"/><path d="m52.941 414.822c-29.239 0-52.941-23.703-52.941-52.941s23.702-52.941 52.941-52.941h277.589c-29.238 0-29.238 105.881 0 105.881h-277.589z" fill="#ffc250"/><path d="m241.289 308.94c-29.238 0-52.941 23.702-52.941 52.941 0 29.238 23.702 52.941 52.941 52.941h-37.765c-29.238 0-52.941-23.702-52.941-52.941 0-29.238 23.702-52.941 52.941-52.941z" fill="#ebb044"/><path d="m194.814 387.254h-37.765c-2.602-4.755-4.495-9.953-5.537-15.453h37.765c1.042 5.5 2.935 10.698 5.537 15.453zm-43.302-35.293h37.765c1.043-5.499 2.936-10.697 5.537-15.453h-37.765c-2.601 4.755-4.495 9.953-5.537 15.453z" fill="#e49824"/><path d="m512 344.234c0-19.492-15.801-35.294-35.294-35.294h-146.177c-29.238 0-52.941 23.702-52.941 52.941 0 29.238 23.702 52.941 52.941 52.941h163.824c9.746 0 17.647-7.901 17.647-17.647s-7.901-17.647-17.647-17.647h-17.646c19.492 0 35.293-15.802 35.293-35.294z" fill="#ebb044"/><path d="m330.529 364.075c-5.47 0-9.921-4.451-9.921-9.921s4.45-9.921 9.921-9.921h146.177c4.267 0 7.726-3.459 7.726-7.726s-3.459-7.726-7.726-7.726h-146.177c-13.991 0-25.373 11.382-25.373 25.373s11.382 25.373 25.373 25.373h146.177c12.07 0 22.725-6.06 29.089-15.302-.492-.098-1.001-.15-1.522-.15z" fill="#e49824"/></g></svg>