<svg id="Capa_1" enable-background="new 0 0 512 512" height="512" viewBox="0 0 512 512" width="512" xmlns="http://www.w3.org/2000/svg"><g><path d="m437.751 10.548c0-5.825-4.722-10.548-10.548-10.548h-342.406c-5.826 0-10.548 4.723-10.548 10.548v18.189l181.751 43.106 181.751-43.106z" fill="#2b4d66"/><path d="m437.751 114.949-181.751-43.106-181.751 43.106v294.594l184.574 28.737 178.928-28.737z" fill="#f6f9f9"/><path d="m396.544 94.346v255.251c0 21.728-17.614 39.343-39.343 39.343h-282.953v20.604h363.503v-294.595z" fill="#e7ecf1"/><g fill="#407093"><path d="m112.442 512h-21.803c-3.227 0-5.842-2.616-5.842-5.842v-37.947h33.487v37.947c0 3.226-2.615 5.842-5.842 5.842z"/><path d="m415.166 512h-21.803c-3.227 0-5.842-2.616-5.842-5.842v-37.947h33.487v37.947c0 3.226-2.616 5.842-5.842 5.842z"/><path d="m74.249 28.737h363.503v86.212h-363.503z"/></g><path d="m396.544 28.737v26.262c0 21.73-17.616 39.346-39.347 39.346h-282.949v20.604h363.503v-86.212z" fill="#365e7d"/><path d="m297.138 28.737h99.475l-4.221 12.155c-3.448 9.927-12.804 16.582-23.313 16.582h-44.406c-10.509 0-19.865-6.655-23.313-16.582z" fill="#365e7d"/><path d="m160.355 82.626v-21.566c0-1.98 1.605-3.585 3.585-3.585h59.736c1.98 0 3.585 1.605 3.585 3.585v21.566c0 1.98-1.605 3.585-3.585 3.585h-59.736c-1.979.001-3.585-1.604-3.585-3.585z" fill="#90d8f9"/><circle cx="117.354" cy="71.843" fill="#90d8f9" r="14.369"/><path d="m74.249 409.543v58.421c0 5.826 4.723 10.548 10.548 10.548h342.406c5.826 0 10.548-4.723 10.548-10.548v-58.421z" fill="#407093"/><path d="m396.544 409.543v9.023c0 21.728-17.614 39.343-39.343 39.343h-282.953v10.055c0 5.826 4.723 10.548 10.548 10.548h342.406c5.826 0 10.548-4.723 10.548-10.548v-58.421z" fill="#365e7d"/><path d="m102.986 409.543h71.16v12.655c0 8.882-7.2 16.083-16.083 16.083h-38.995c-8.882 0-16.083-7.2-16.083-16.083v-12.655z" fill="#365e7d"/><path d="m337.854 409.543h71.16v12.655c0 8.882-7.201 16.083-16.083 16.083h-38.995c-8.882 0-16.083-7.2-16.083-16.083v-12.655z" fill="#365e7d"/><path d="m391.256 438.28h1.676c8.882 0 16.083-7.2 16.083-16.083v-12.654h-12.47v9.023c-.001 7.184-1.927 13.918-5.289 19.714z" fill="#2b4d66"/><circle cx="258.823" cy="262.246" fill="#407093" r="118.56"/><path d="m287.551 147.191c26.756 21.738 43.852 54.905 43.852 92.065 0 65.479-53.081 118.56-118.56 118.56-9.907 0-19.53-1.216-28.728-3.505 20.39 16.566 46.389 26.495 74.707 26.495 65.479 0 118.56-53.081 118.56-118.56.001-55.572-38.233-102.213-89.831-115.055z" fill="#365e7d"/><circle cx="258.823" cy="262.246" fill="#d3effb" r="61.085"/><path d="m260.618 201.187c8.331 10.441 13.311 23.674 13.311 38.069 0 33.736-27.349 61.085-61.085 61.085-.6 0-1.199-.009-1.795-.026 11.193 14.027 28.434 23.016 47.774 23.016 33.736 0 61.085-27.349 61.085-61.085 0-33.136-26.384-60.109-59.29-61.059z" fill="#b1e4f9"/><path d="m302.017 305.44c-11.054 11.054-26.326 17.891-43.194 17.891-33.737 0-61.085-27.349-61.085-61.085s27.349-61.085 61.085-61.085c16.868 0 32.14 6.837 43.194 17.891l17.883-17.883c1.356-1.356 1.314-3.57-.094-4.872-16.017-14.818-37.442-23.874-60.983-23.874-50.356 0-91.033 41.437-89.795 92.072 1.169 47.809 40.276 86.671 88.091 87.557 24.206.448 46.277-8.68 62.679-23.851 1.411-1.305 1.46-3.521.101-4.88z" fill="#365e7d"/><path d="m319.899 323.322-12.514-12.514c-14.254 18.804-33.989 33.224-56.826 40.882 2.166.2 4.353.321 6.559.362 24.206.448 46.277-8.68 62.679-23.851 1.411-1.304 1.461-3.52.102-4.879z" fill="#2b4d66"/><path d="m248.274 114.949h15.452v-86.212h-15.452z" fill="#365e7d"/><path d="m263.726 94.346h-15.452v20.603h15.452z" fill="#2b4d66"/><path d="m339.332 309.848c-1.152 0-2.321-.259-3.424-.804-3.824-1.894-5.388-6.53-3.494-10.353 11.305-22.82 11.304-50.068-.001-72.887-1.894-3.824-.33-8.459 3.494-10.354 3.823-1.893 8.46-.329 10.353 3.493 13.433 27.115 13.433 59.491.001 86.607-1.348 2.721-4.085 4.298-6.929 4.298z" fill="#2b4d66"/></g></svg>