<svg id="Capa_1" enable-background="new 0 0 512 512" height="512" viewBox="0 0 512 512" width="512" xmlns="http://www.w3.org/2000/svg"><g><g><g><path d="m116.648 504.5h-21.164c-3.132 0-5.671-2.539-5.671-5.671v-26.835h32.506v26.835c0 3.132-2.539 5.671-5.671 5.671z" fill="#407093"/></g></g><g><g><path d="m410.503 504.5h-21.164c-3.132 0-5.671-2.539-5.671-5.671v-26.835h32.506v26.835c0 3.132-2.539 5.671-5.671 5.671z" fill="#407093"/></g></g><g><path d="m432.427 17.739c0-5.655-4.584-10.239-10.239-10.239h-332.375c-5.655 0-10.239 4.584-10.239 10.239v17.656h352.853z" fill="#2b4d66"/></g><g><g><path d="m79.573 35.395h352.853v83.686h-352.853z" fill="#407093"/></g></g><g><g><path d="m392.427 35.396v25.492c0 21.094-17.1 38.194-38.194 38.194h-274.66v20h352.854v-83.686z" fill="#365e7d"/></g></g><g><g><path d="m295.933 35.395h96.56l-4.098 11.799c-3.347 9.636-12.429 16.097-22.63 16.097h-43.105c-10.201 0-19.283-6.46-22.63-16.097z" fill="#365e7d"/></g></g><g><path d="m163.157 87.706v-20.935c0-1.922 1.558-3.48 3.48-3.48h57.986c1.922 0 3.48 1.558 3.48 3.48v20.934c0 1.922-1.558 3.48-3.48 3.48h-57.986c-1.921.001-3.48-1.557-3.48-3.479z" fill="#90d8f9"/></g><g><circle cx="121.416" cy="77.239" fill="#90d8f9" r="13.948"/></g><g><path d="m79.573 119.082h352.853v285.963h-352.853z" fill="#f6f9f9"/></g><g><g><path d="m79.573 405.045v56.71c0 5.655 4.584 10.239 10.239 10.239h332.375c5.655 0 10.239-4.584 10.239-10.239v-56.71z" fill="#407093"/></g></g><g><path d="m392.427 119.082v227.773c0 21.092-17.098 38.19-38.19 38.19h-274.664v20h352.854v-285.963z" fill="#e7ecf1"/></g><g><g><path d="m392.427 405.045v8.759c0 21.092-17.098 38.19-38.19 38.19h-274.664v9.761c0 5.655 4.584 10.239 10.239 10.239h332.375c5.655 0 10.239-4.584 10.239-10.239v-56.709h-39.999z" fill="#365e7d"/></g></g><g><g><path d="m107.469 405.045h69.075v12.284c0 8.622-6.99 15.612-15.612 15.612h-37.852c-8.622 0-15.612-6.99-15.612-15.612v-12.284z" fill="#365e7d"/></g></g><g><g><path d="m335.456 405.045h69.075v12.284c0 8.622-6.99 15.612-15.612 15.612h-37.852c-8.622 0-15.612-6.99-15.612-15.612v-12.284z" fill="#365e7d"/></g></g><g><g><path d="m387.293 432.94h1.627c8.622 0 15.612-6.99 15.612-15.612v-12.284h-12.104v8.759c-.001 6.974-1.871 13.51-5.135 19.137z" fill="#2b4d66"/></g></g><g><g><circle cx="258.74" cy="262.063" fill="#407093" r="115.086"/></g></g><g><g><path d="m286.627 150.379c25.972 21.101 42.568 53.296 42.568 89.368 0 63.56-51.526 115.086-115.086 115.086-9.617 0-18.957-1.18-27.886-3.402 19.792 16.081 45.03 25.719 72.519 25.719 63.56 0 115.086-51.526 115.086-115.086-.001-53.945-37.115-99.22-87.201-111.685z" fill="#365e7d"/></g></g><g><circle cx="258.74" cy="262.063" fill="#d3effb" r="59.296"/></g><g><path d="m260.483 202.793c8.087 10.135 12.921 22.98 12.921 36.954 0 32.748-26.548 59.296-59.296 59.296-.583 0-1.163-.009-1.742-.025 10.865 13.616 27.601 22.342 46.375 22.342 32.748 0 59.296-26.548 59.296-59.296-.001-32.166-25.612-58.349-57.554-59.271z" fill="#b1e4f9"/></g><g><g><path d="m300.669 303.992c-10.73 10.73-25.554 17.367-41.928 17.367-32.748 0-59.296-26.548-59.296-59.296s26.548-59.296 59.296-59.296c16.374 0 31.198 6.637 41.928 17.367l17.359-17.359c1.316-1.316 1.275-3.466-.091-4.73-15.548-14.384-36.345-23.174-59.196-23.174-48.88 0-88.366 40.223-87.164 89.375 1.135 46.409 39.096 84.132 85.51 84.992 23.497.435 44.921-8.426 60.843-23.152 1.369-1.266 1.417-3.418.098-4.737z" fill="#365e7d"/></g></g><g><g><path d="m318.027 321.35-12.147-12.147c-13.836 18.253-32.993 32.251-55.161 39.684 2.103.194 4.226.312 6.367.352 23.497.435 44.921-8.426 60.843-23.152 1.369-1.267 1.417-3.418.098-4.737z" fill="#2b4d66"/></g></g><g><path d="m422.188 0h-332.376c-9.781 0-17.739 7.958-17.739 17.739v444.015c0 7.103 4.196 13.244 10.239 16.075v21c0 7.263 5.908 13.171 13.171 13.171h21.164c7.263 0 13.172-5.908 13.172-13.171v-19.335h246.348v19.335c0 7.263 5.908 13.171 13.171 13.171h21.165c7.263 0 13.171-5.908 13.171-13.171v-19.397c9.088-.758 16.253-8.396 16.253-17.677v-145.457c0-4.142-3.357-7.5-7.5-7.5s-7.5 3.358-7.5 7.5v81.247h-337.854v-270.963h337.854v154.716c0 4.142 3.357 7.5 7.5 7.5s7.5-3.358 7.5-7.5v-263.559c0-9.781-7.958-17.739-17.739-17.739zm-131.589 42.896 2.347 6.759c4.391 12.642 16.332 21.136 29.714 21.136h43.105c13.383 0 25.324-8.494 29.715-21.136l2.347-6.759h27.099v68.686h-161.426v-68.686zm15.879 0h75.472l-.639 1.838c-2.297 6.614-8.544 11.057-15.545 11.057h-43.106c-7 0-13.247-4.443-15.544-11.057zm-191.659 454.104h-17.507v-17.506h17.507zm293.855 0h-17.507v-17.506h17.507zm16.253-35.246c0 1.51-1.229 2.739-2.739 2.739h-332.376c-1.511 0-2.739-1.229-2.739-2.739v-49.209h12.896v4.784c0 12.744 10.368 23.112 23.111 23.112h37.853c12.743 0 23.111-10.368 23.111-23.112v-4.784h143.912v4.784c0 12.744 10.368 23.112 23.111 23.112h37.853c12.743 0 23.111-10.368 23.111-23.112v-4.784h12.896zm-309.958-49.209h54.075v4.784c0 4.473-3.639 8.112-8.111 8.112h-37.853c-4.473 0-8.111-3.639-8.111-8.112zm227.987 0h54.075v4.784c0 4.473-3.639 8.112-8.111 8.112h-37.853c-4.473 0-8.111-3.639-8.111-8.112zm-255.883-369.649h25.246c4.143 0 7.5-3.358 7.5-7.5s-3.357-7.5-7.5-7.5h-25.246v-10.157c0-1.51 1.229-2.739 2.739-2.739h332.375c1.511 0 2.739 1.229 2.739 2.739v10.156h-277.607c-4.143 0-7.5 3.358-7.5 7.5s3.357 7.5 7.5 7.5h101.181v68.686h-161.427z"/><path d="m224.624 55.791h-57.986c-6.055 0-10.98 4.926-10.98 10.98v20.934c0 6.055 4.926 10.98 10.98 10.98h57.986c6.055 0 10.98-4.926 10.98-10.98v-20.934c0-6.054-4.925-10.98-10.98-10.98zm-4.02 27.895h-49.947v-12.895h49.947z"/><path d="m121.416 55.791c-11.826 0-21.447 9.621-21.447 21.447s9.621 21.448 21.447 21.448 21.448-9.622 21.448-21.448-9.622-21.447-21.448-21.447zm0 27.895c-3.555 0-6.447-2.893-6.447-6.448s2.893-6.447 6.447-6.447c3.556 0 6.448 2.892 6.448 6.447s-2.892 6.448-6.448 6.448z"/><path d="m177.811 169.987c-26.474 23.285-41.656 56.846-41.656 92.077 0 67.594 54.992 122.586 122.586 122.586 67.595 0 122.587-54.992 122.587-122.586s-54.993-122.587-122.588-122.587c-17.181 0-33.802 3.487-49.402 10.363-3.79 1.671-5.508 6.098-3.838 9.888 1.672 3.791 6.098 5.508 9.889 3.837 13.682-6.031 28.268-9.089 43.352-9.089 59.323 0 107.587 48.263 107.587 107.586s-48.265 107.588-107.588 107.588-107.586-48.263-107.586-107.586c0-30.92 13.326-60.375 36.562-80.814 3.11-2.735 3.414-7.475.679-10.585s-7.475-3.415-10.584-.678z"/><path d="m326.486 200.246c-.057-2.917-1.316-5.725-3.456-7.704-17.544-16.231-40.376-25.169-64.29-25.169-25.731 0-49.801 10.144-67.775 28.563-17.968 18.413-27.517 42.738-26.887 68.495.597 24.387 10.535 47.369 27.986 64.713 17.449 17.343 40.491 27.143 64.883 27.594.599.011 1.194.017 1.792.017 23.932 0 46.698-8.896 64.282-25.162 2.144-1.983 3.406-4.794 3.463-7.713.057-2.916-1.092-5.77-3.153-7.832l-12.374-12.374c9.121-11.422 14.579-25.89 14.579-41.61 0-15.719-5.458-30.188-14.579-41.61l12.373-12.373c2.063-2.062 3.213-4.918 3.156-7.835zm-69.261 141.494c-42.064-.779-77.122-35.625-78.15-77.677-.53-21.682 7.505-42.157 22.627-57.652 15.127-15.502 35.384-24.039 57.039-24.039 18.655 0 36.528 6.463 50.799 18.286l-9.189 9.188c-11.422-9.121-25.891-14.579-41.61-14.579-36.831 0-66.796 29.964-66.796 66.796 0 36.831 29.965 66.795 66.796 66.795 15.719 0 30.188-5.458 41.61-14.579l9.189 9.189c-14.679 12.168-33.098 18.634-52.315 18.272zm1.515-27.881c-28.561 0-51.796-23.235-51.796-51.795 0-28.561 23.235-51.796 51.796-51.796s51.796 23.235 51.796 51.796c0 28.56-23.235 51.795-51.796 51.795z"/><path d="m333.567 307.489c1.07.53 2.205.781 3.323.781 2.761 0 5.418-1.531 6.727-4.172 13.038-26.321 13.038-57.749-.001-84.069-1.838-3.711-6.339-5.229-10.05-3.391-3.712 1.839-5.23 6.338-3.392 10.05 10.974 22.151 10.975 48.6.001 70.752-1.838 3.711-.32 8.21 3.392 10.049z"/></g></g></svg>