<?xml version="1.0" encoding="iso-8859-1"?>
<!-- Generator: Adobe Illustrator 19.0.0, SVG Export Plug-In . SVG Version: 6.00 Build 0)  -->
<svg xmlns="http://www.w3.org/2000/svg" xmlns:xlink="http://www.w3.org/1999/xlink" version="1.1" id="Layer_1" x="0px" y="0px" viewBox="0 0 512 512" style="enable-background:new 0 0 512 512;" xml:space="preserve">
<path style="fill:#E6E9ED;" d="M496.953,280.805c0-7.408-6.005-13.415-13.415-13.415h-5.254l-61.538-103.278H306.634v241.188h45.152  c-1.982-5.424-3.065-11.282-3.065-17.393c0-27.965,22.67-50.633,50.633-50.633c27.967,0,50.635,22.668,50.635,50.633  c0,6.112-1.083,11.969-3.065,17.393h49.096c-8.716,0-15.781-7.065-15.781-15.781v-30.76c0-8.714,7.065-15.781,15.781-15.781h0.933  l-0.173-28.177c0.104-0.673,0.173-1.354,0.173-2.055v-31.941H496.953z"/>
<path style="fill:#97D3EE;" d="M444.926,267.39h33.358l-61.538-103.278h-61.449c-8.716,0-15.784,7.067-15.784,15.781v71.714  c0,8.716,7.067,15.781,15.784,15.781h61.308"/>
<circle style="fill:#5B5E5E;" cx="399.36" cy="387.913" r="50.63"/>
<circle style="fill:#E6E9ED;" cx="399.349" cy="387.913" r="17.392"/>
<path style="fill:#BEC6CC;" d="M375.024,306.28h-30.249c-4.63,0-8.384-3.753-8.384-8.384c0-4.632,3.754-8.384,8.384-8.384h30.249  c4.63,0,8.384,3.753,8.384,8.384C383.409,302.526,379.654,306.28,375.024,306.28z"/>
<rect x="306.63" y="164.119" style="fill:#CCD4DD;" width="23.369" height="241.188"/>
<path style="fill:#49B5CE;" d="M362.881,251.609v-71.714c0-8.714,7.067-15.781,15.784-15.781h-23.368  c-8.716,0-15.784,7.067-15.784,15.781v71.714c0,8.716,7.067,15.781,15.784,15.781h23.368  C369.949,267.39,362.881,260.325,362.881,251.609z"/>
<path style="fill:#464949;" d="M372.089,387.908c0-23.941,16.622-43.987,38.95-49.263c-3.753-0.887-7.662-1.371-11.684-1.371  c-27.963,0-50.633,22.668-50.633,50.633c0,27.968,22.67,50.638,50.633,50.638c4.023,0,7.933-0.484,11.684-1.371  C388.711,431.899,372.089,411.851,372.089,387.908z"/>
<path style="fill:#CCD4DD;" d="M402.084,387.908c0-5.851,2.9-11.015,7.331-14.167c-2.842-2.021-6.308-3.222-10.061-3.222  c-9.605,0-17.392,7.784-17.392,17.389s7.787,17.393,17.392,17.393c3.753,0,7.219-1.201,10.061-3.223  C404.983,398.926,402.084,393.759,402.084,387.908z"/>
<path style="fill:#F7A539;" d="M512,389.519c0,8.716-7.066,15.781-15.783,15.781h-1.316c-8.716,0-15.781-7.065-15.781-15.781v-30.76  c0-8.714,7.065-15.781,15.781-15.781h1.316c8.716,0,15.783,7.067,15.783,15.781V389.519z"/>
<path style="fill:#ED6529;" d="M495.56,389.519v-30.76c0-5.974,3.322-11.173,8.22-13.853c-2.246-1.229-4.822-1.93-7.563-1.93h-1.316  c-8.716,0-15.781,7.067-15.781,15.781v30.76c0,8.716,7.065,15.781,15.781,15.781h1.316c2.74,0,5.317-0.7,7.563-1.93  C498.883,400.694,495.56,395.495,495.56,389.519z"/>
<path style="fill:#DEDFE2;" d="M287.998,339.729c-2.931,0-5.775-1.538-7.316-4.274l-84.573-150.326  c-2.27-4.036-0.84-9.149,3.196-11.418c4.036-2.273,9.147-0.84,11.418,3.195l84.574,150.326c2.269,4.036,0.838,9.149-3.196,11.418  C290.801,339.382,289.39,339.729,287.998,339.729z"/>
<path style="fill:#F7A539;" d="M294.337,312.8h-88.606H13.415C6.005,312.8,0,318.806,0,326.214v65.672  c0,7.408,6.006,13.415,13.415,13.415h33.842c-1.982-5.424-3.065-11.282-3.065-17.393c0-27.965,22.67-50.633,50.633-50.633  c27.967,0,50.635,22.668,50.635,50.633c0,6.112-1.083,11.969-3.065,17.393h46.531h105.412h13.415v-13.415v-65.672V312.8H294.337z"/>
<path style="fill:#F9B058;" d="M205.731,312.8h-23.336c24.502,43.056,64.21,76.328,111.823,92.502h0.118h13.415v-13.415v-65.672  V312.8h-13.415H205.731z"/>
<path style="fill:#F98B38;" d="M244.486,374.14H143.55c1.235,4.38,1.91,8.994,1.91,13.768c0,6.112-1.083,11.969-3.065,17.393h46.531  h105.412h13.415v-13.415V374.14h-34.201"/>
<path style="fill:#FC954F;" d="M244.486,374.14h-8.548c17.429,13.347,37.067,23.956,58.281,31.162h0.118h13.415v-13.415V374.14  h-34.201H244.486z"/>
<circle style="fill:#5B5E5E;" cx="94.832" cy="387.913" r="50.63"/>
<path style="fill:#E87528;" d="M23.368,391.887v-65.672c0-7.408,6.006-13.415,13.415-13.415H13.415C6.005,312.8,0,318.806,0,326.214  v65.672c0,7.408,6.006,13.415,13.415,13.415h23.368C29.375,405.302,23.368,399.295,23.368,391.887z"/>
<path style="fill:#464949;" d="M67.561,387.908c0-23.941,16.622-43.987,38.949-49.263c-3.752-0.887-7.661-1.371-11.684-1.371  c-27.963,0-50.633,22.668-50.633,50.633c0,27.968,22.67,50.638,50.633,50.638c4.023,0,7.933-0.484,11.684-1.371  C84.183,431.899,67.561,411.851,67.561,387.908z"/>
<circle style="fill:#E6E9ED;" cx="94.832" cy="387.913" r="17.391"/>
<path style="fill:#CCD4DD;" d="M97.556,387.908c0-5.851,2.9-11.015,7.33-14.167c-2.842-2.021-6.308-3.222-10.061-3.222  c-9.605,0-17.391,7.784-17.391,17.389s7.786,17.393,17.391,17.393c3.753,0,7.219-1.201,10.061-3.223  C100.456,398.926,97.556,393.759,97.556,387.908z"/>
<path style="fill:#5B5E5E;" d="M307.752,312.8v-181.1c0-7.408-6.006-13.415-13.415-13.415h-5.881  c-7.408,0-13.415,6.007-13.415,13.415v181.1H307.752z"/>
<path style="fill:#464949;" d="M299.574,119.346c-1.609-0.683-3.378-1.062-5.237-1.062h-5.881c-7.408,0-13.415,6.007-13.415,13.415  v181.1h16.355v-181.1C291.396,126.149,294.769,121.386,299.574,119.346z"/>
<path style="fill:#F7A539;" d="M51.46,78.04l141.624,95.75c2.282-3.254,6.055-5.387,10.332-5.387  c6.968,0,12.618,5.649,12.618,12.617c0,2.545-0.761,4.912-2.058,6.895l61.065,41.285V170.05L51.46,78.04z"/>
<path style="fill:#F9B058;" d="M164.114,154.203l28.972,19.587c2.282-3.254,6.055-5.387,10.332-5.387  c6.968,0,12.618,5.649,12.618,12.617c0,2.545-0.761,4.912-2.058,6.895l61.066,41.285V170.05l-101.357-41.712  C169.931,136.676,166.734,145.314,164.114,154.203z"/>
<path style="fill:#DEDFE2;" d="M57.08,191.786c-4.63,0-8.384-3.753-8.384-8.384V81.838c0-4.631,3.754-8.384,8.384-8.384  s8.384,3.753,8.384,8.384v101.564C65.464,188.033,61.711,191.786,57.08,191.786z"/>
<path style="fill:#5B5E5E;" d="M57.638,266.686c-7.279,0-14.108-3.222-18.739-8.839c-2.946-3.573-2.438-8.857,1.136-11.804  c3.572-2.945,8.857-2.438,11.803,1.136c1.435,1.742,3.549,2.739,5.802,2.739c4.143,0,7.512-3.37,7.512-7.512  c0-4.143-3.37-7.515-7.512-7.515c-4.63,0-8.384-3.753-8.384-8.384V213.8c0-4.631,3.754-8.384,8.384-8.384s8.384,3.753,8.384,8.384  v5.814c9.271,3.422,15.897,12.346,15.897,22.791C81.919,255.793,71.027,266.686,57.638,266.686z"/>
<path style="fill:#F7A539;" d="M57.08,219.294c-11.579,0-21.001-9.422-21.001-21.001s9.422-21.001,21.001-21.001  c11.58,0,21.002,9.422,21.002,21.001S68.659,219.294,57.08,219.294z M57.08,194.06c-2.334,0-4.232,1.898-4.232,4.232  s1.898,4.232,4.232,4.232c2.334,0,4.234-1.898,4.234-4.232S59.413,194.06,57.08,194.06z"/>
<circle style="fill:#F98B38;" cx="203.749" cy="179.804" r="14.577"/>
<path style="fill:#ED6529;" d="M205.003,179.805c0-5.13,2.656-9.631,6.662-12.228c-2.279-1.478-4.993-2.345-7.911-2.345  c-8.048,0-14.573,6.524-14.573,14.573s6.525,14.573,14.573,14.573c2.919,0,5.632-0.866,7.911-2.345  C207.66,189.436,205.003,184.935,205.003,179.805z"/>
<g>
</g>
<g>
</g>
<g>
</g>
<g>
</g>
<g>
</g>
<g>
</g>
<g>
</g>
<g>
</g>
<g>
</g>
<g>
</g>
<g>
</g>
<g>
</g>
<g>
</g>
<g>
</g>
<g>
</g>
</svg>
