<?xml version="1.0" encoding="iso-8859-1"?>
<!-- Generator: Adobe Illustrator 19.0.0, SVG Export Plug-In . SVG Version: 6.00 Build 0)  -->
<svg xmlns="http://www.w3.org/2000/svg" xmlns:xlink="http://www.w3.org/1999/xlink" version="1.1" id="Layer_1" x="0px" y="0px" viewBox="0 0 512.001 512.001" style="enable-background:new 0 0 512.001 512.001;" xml:space="preserve">
<g>
	<path style="fill:#F7A539;" d="M503.916,382.533c0,8.404-6.812,15.217-15.217,15.217h-1.27c-8.404,0-15.217-6.812-15.217-15.217   v-29.659c0-8.402,6.812-15.217,15.217-15.217h1.27c8.404,0,15.217,6.814,15.217,15.217V382.533z"/>
	<path style="fill:#F7A539;" d="M291.888,308.558h-85.435H21.019c-7.144,0-12.935,5.792-12.935,12.935v63.322   c0,7.143,5.792,12.935,12.935,12.935H53.65c-1.911-5.23-2.956-10.878-2.956-16.771c0-26.965,21.859-48.821,48.821-48.821   c26.966,0,48.823,21.857,48.823,48.821c0,5.893-1.044,11.541-2.956,16.771h44.865h101.639h12.935v-12.935v-63.322v-12.935H291.888z   "/>
</g>
<path style="fill:#E6E9ED;" d="M488.331,277.71c0-7.143-5.792-12.935-12.935-12.935h-5.067l-59.335-99.582H304.823v232.556h43.535  c-1.911-5.23-2.956-10.878-2.956-16.771c0-26.965,21.859-48.821,48.821-48.821c26.967,0,48.823,21.857,48.823,48.821  c0,5.893-1.044,11.541-2.956,16.771h47.339c-8.404,0-15.217-6.812-15.217-15.217v-29.659c0-8.402,6.812-15.217,15.217-15.217h0.901  l-0.168-27.168c0.101-0.648,0.168-1.305,0.168-1.981V277.71H488.331z"/>
<path style="fill:#97D3EE;" d="M438.164,264.775h32.164l-59.335-99.582h-59.251c-8.404,0-15.219,6.814-15.219,15.217v69.147  c0,8.404,6.814,15.217,15.219,15.217h59.114"/>
<path style="fill:#F98B38;" d="M243.82,367.703h-97.323c1.191,4.223,1.842,8.672,1.842,13.275c0,5.893-1.044,11.541-2.956,16.771  h44.865h101.639h12.935v-12.935v-17.112h-32.977"/>
<g>
	<circle style="fill:#5B5E5E;" cx="394.23" cy="380.973" r="48.818"/>
	<circle style="fill:#5B5E5E;" cx="99.522" cy="380.973" r="48.818"/>
</g>
<g>
	<circle style="fill:#E6E9ED;" cx="394.23" cy="380.973" r="16.77"/>
	<circle style="fill:#E6E9ED;" cx="99.522" cy="380.973" r="16.77"/>
</g>
<path style="fill:#5B5E5E;" d="M304.823,308.558V133.938c0-7.143-5.792-12.935-12.935-12.935h-5.672  c-7.143,0-12.935,5.792-12.935,12.935v174.619H304.823z"/>
<circle style="fill:#F98B38;" cx="204.218" cy="181.497" r="12.165"/>
<path style="fill:#F7A539;" d="M57.703,82.199l136.557,92.323c2.2-3.138,5.838-5.194,9.962-5.194  c6.719,0,12.166,5.447,12.166,12.165c0,2.454-0.734,4.736-1.984,6.648l58.879,39.808v-57.033L57.703,82.199z"/>
<rect x="312.752" y="165.189" style="fill:#B6C1CC;" width="22.532" height="232.556"/>
<path style="fill:#49B5CE;" d="M366.983,249.558v-69.147c0-8.402,6.814-15.217,15.219-15.217h-22.53  c-8.404,0-15.219,6.814-15.219,15.217v69.147c0,8.404,6.814,15.217,15.219,15.217h22.53  C373.799,264.775,366.983,257.961,366.983,249.558z"/>
<path style="fill:#464949;" d="M374.784,380.978c0-23.084,16.027-42.413,37.556-47.5c-3.616-0.855-7.387-1.322-11.265-1.322  c-26.963,0-48.821,21.857-48.821,48.821c0,26.967,21.859,48.826,48.821,48.826c3.878,0,7.649-0.467,11.265-1.322  C390.811,423.395,374.784,404.065,374.784,380.978z"/>
<path style="fill:#ED6529;" d="M488.447,382.533v-29.659c0-5.76,3.205-10.774,7.926-13.357c-2.167-1.185-4.65-1.86-7.293-1.86  h-1.268c-8.404,0-15.217,6.814-15.217,15.217v29.659c0,8.404,6.812,15.217,15.217,15.217h1.268c2.642,0,5.126-0.675,7.293-1.86  C491.651,393.306,488.447,388.294,488.447,382.533z"/>
<path style="fill:#F9B058;" d="M202.524,308.558h-22.501c23.625,41.515,61.912,73.597,107.822,89.192h0.113h12.935v-12.935v-63.322  v-12.935h-12.935H202.524z"/>
<path style="fill:#FC954F;" d="M239.89,367.703h-8.242c16.805,12.87,35.742,23.098,56.196,30.046h0.113h12.935v-12.935v-17.112  h-32.977H239.89z"/>
<path style="fill:#E87528;" d="M37.466,384.815v-63.322c0-7.143,5.792-12.935,12.935-12.935H27.868  c-7.144,0-12.935,5.792-12.935,12.935v63.322c0,7.143,5.792,12.935,12.935,12.935h22.531  C43.257,397.749,37.466,391.958,37.466,384.815z"/>
<g>
	<path style="fill:#464949;" d="M81.154,380.978c0-23.084,16.027-42.413,37.556-47.5c-3.617-0.855-7.388-1.322-11.266-1.322   c-26.963,0-48.821,21.857-48.821,48.821c0,26.967,21.859,48.826,48.821,48.826c3.879,0,7.649-0.467,11.266-1.322   C97.181,423.395,81.154,404.065,81.154,380.978z"/>
	<path style="fill:#464949;" d="M299.475,122.028c-1.551-0.659-3.258-1.024-5.05-1.024h-5.67c-7.143,0-12.935,5.792-12.935,12.935   v174.619h15.769V133.938C291.589,128.587,294.843,123.995,299.475,122.028z"/>
</g>
<path style="fill:#ED6529;" d="M212.6,180.323c0-4.946,2.561-9.286,6.423-11.79c-2.198-1.425-4.814-2.261-7.628-2.261  c-7.76,0-14.051,6.291-14.051,14.051c0,7.761,6.292,14.051,14.051,14.051c2.814,0,5.43-0.835,7.628-2.261  C215.161,189.609,212.6,185.269,212.6,180.323z"/>
<g>
	<path style="fill:#231F20;" d="M370.764,286.103h-29.167c-4.466,0-8.084,3.618-8.084,8.084s3.618,8.084,8.084,8.084h29.167   c4.466,0,8.084-3.618,8.084-8.084S375.23,286.103,370.764,286.103z"/>
	<path style="fill:#231F20;" d="M394.224,356.129c-13.704,0-24.853,11.149-24.853,24.851c0,13.705,11.149,24.855,24.853,24.855   c13.705,0,24.855-11.15,24.855-24.855C419.078,367.276,407.929,356.129,394.224,356.129z M394.224,389.665   c-4.788,0-8.685-3.897-8.685-8.687c0-4.787,3.896-8.682,8.685-8.682c4.789,0,8.687,3.894,8.687,8.682   C402.909,385.769,399.013,389.665,394.224,389.665z"/>
	<path style="fill:#231F20;" d="M99.516,356.129c-13.703,0-24.853,11.149-24.853,24.851c0,13.705,11.149,24.855,24.853,24.855   s24.855-11.15,24.855-24.855C124.371,367.276,113.221,356.129,99.516,356.129z M99.516,389.665c-4.788,0-8.685-3.897-8.685-8.687   c0-4.787,3.896-8.682,8.685-8.682c4.789,0,8.687,3.894,8.687,8.682C108.203,385.769,104.305,389.665,99.516,389.665z"/>
	<path style="fill:#231F20;" d="M496.374,330.877l-0.124-19.851c0.112-0.877,0.165-1.707,0.165-2.519v-30.798   c0-11.59-9.429-21.019-21.019-21.019h-0.473l-56.983-95.635c-1.459-2.448-4.097-3.946-6.945-3.946h-59.251h-38.836v-23.17   c0-11.59-9.429-21.019-21.019-21.019h-5.672c-11.59,0-21.019,9.429-21.019,21.019v24.909L60.779,74.723   c-3.833-1.577-8.241,0.001-10.2,3.654c-1.96,3.654-0.839,8.196,2.596,10.519l1.862,1.259v89.44   c-7.151,3.128-12.165,10.263-12.165,18.555c0,8.497,5.268,15.776,12.704,18.776v8.428c0,4.466,3.62,8.084,8.084,8.084   c3.995,0,7.245,3.251,7.245,7.246c0,3.994-3.25,7.243-7.245,7.243c-2.172,0-4.21-0.963-5.594-2.641   c-2.84-3.445-7.934-3.933-11.38-1.095c-3.445,2.841-3.935,7.935-1.095,11.382c4.466,5.416,11.053,8.523,18.069,8.523   c12.91,0,23.413-10.502,23.413-23.412c0-10.071-6.39-18.676-15.329-21.975v-2.265c6.86-3.247,11.627-10.216,11.627-18.295   c0-8.291-5.014-15.426-12.165-18.555v-78.508l113.152,76.501c-0.249,1.265-0.386,2.57-0.386,3.906   c0,11.165,9.083,20.249,20.249,20.249c0.695,0,1.382-0.036,2.059-0.105l55.604,98.835H21.019C9.428,300.473,0,309.902,0,321.491   v63.322c0,11.59,9.428,21.019,21.019,21.019h27.316c9.243,18.959,28.71,32.055,51.181,32.055c22.472,0,41.939-13.096,51.183-32.055   h154.125h38.219c9.243,18.959,28.71,32.055,51.181,32.055c22.472,0,41.939-13.096,51.183-32.055h42.024h0.022h1.248   c12.849,0,23.301-10.452,23.301-23.301v-29.659C512,342.713,505.462,334.057,496.374,330.877z M63.122,202.23   c-2.251,0-4.081-1.83-4.081-4.081c0-2.251,1.83-4.081,4.081-4.081s4.081,1.83,4.081,4.081   C67.203,200.399,65.371,202.23,63.122,202.23z M208.228,182.232c-0.012,0.065-0.027,0.128-0.042,0.192   c-0.042,0.178-0.097,0.35-0.162,0.518c-0.026,0.066-0.046,0.133-0.075,0.197c-0.094,0.212-0.203,0.417-0.331,0.608   c-0.006,0.01-0.011,0.019-0.017,0.029c-0.735,1.083-1.976,1.797-3.38,1.797c-2.251,0-4.081-1.83-4.081-4.081   c0-0.84,0.255-1.619,0.692-2.269c0.015-0.022,0.032-0.04,0.047-0.06c0.176-0.251,0.38-0.469,0.597-0.67   c0.067-0.061,0.138-0.116,0.209-0.172c0.156-0.126,0.321-0.239,0.494-0.341c0.099-0.058,0.198-0.114,0.302-0.164   c0.172-0.082,0.352-0.146,0.536-0.203c0.101-0.031,0.2-0.071,0.305-0.095c0.292-0.066,0.592-0.108,0.901-0.108   c2.251,0,4.082,1.83,4.082,4.081C208.303,181.746,208.272,181.991,208.228,182.232z M204.221,161.244   c-0.61,0-1.215,0.038-1.816,0.092c-0.184,0.016-0.366,0.037-0.55,0.058c-0.455,0.054-0.905,0.123-1.353,0.207   c-0.156,0.029-0.314,0.051-0.469,0.083c-0.531,0.113-1.055,0.251-1.574,0.405c-0.227,0.068-0.451,0.144-0.675,0.22   c-0.337,0.113-0.67,0.236-1.001,0.368c-0.216,0.085-0.432,0.167-0.645,0.26c-0.486,0.212-0.964,0.441-1.431,0.691   c-0.166,0.088-0.324,0.186-0.488,0.28c-0.222,0.126-0.447,0.247-0.665,0.382l-65.923-44.569l137.564,56.611v36.394l-41.029-27.739   c0.052-0.298,0.079-0.6,0.117-0.901c0.029-0.224,0.067-0.445,0.087-0.673c0.06-0.636,0.097-1.275,0.097-1.92   C224.471,170.328,215.386,161.244,204.221,161.244z M227.838,206.983l37.359,25.257v41.148L227.838,206.983z M140.205,382.951   c-0.009,0.183-0.025,0.365-0.036,0.549c-0.029,0.481-0.064,0.96-0.11,1.437c-0.018,0.188-0.041,0.375-0.061,0.563   c-0.054,0.483-0.113,0.965-0.184,1.442c-0.023,0.158-0.047,0.316-0.072,0.473c-0.084,0.53-0.178,1.057-0.283,1.58   c-0.019,0.099-0.039,0.198-0.059,0.297c-3.849,18.491-20.268,32.429-39.884,32.429c-17.489,0-32.435-11.081-38.199-26.588   c-0.023-0.067-0.051-0.13-0.075-0.195c-0.679-1.857-1.228-3.777-1.633-5.75c-0.002-0.012-0.004-0.023-0.006-0.034   c-0.123-0.602-0.23-1.208-0.326-1.819c-0.022-0.135-0.04-0.271-0.06-0.405c-0.072-0.493-0.135-0.987-0.19-1.485   c-0.019-0.182-0.04-0.363-0.057-0.545c-0.045-0.474-0.08-0.951-0.109-1.429c-0.011-0.181-0.026-0.361-0.033-0.542   c-0.03-0.646-0.05-1.295-0.05-1.947c0-2.106,0.161-4.175,0.47-6.196c0.207-1.347,0.479-2.672,0.815-3.973   c0.168-0.65,0.351-1.295,0.55-1.932c5.165-16.573,20.651-28.636,38.902-28.636c18.678,0,34.45,12.638,39.239,29.809   c0.479,1.72,0.844,3.465,1.093,5.224c0.017,0.121,0.03,0.243,0.046,0.363c0.096,0.727,0.17,1.455,0.227,2.185   c0.015,0.199,0.033,0.399,0.045,0.598c0.054,0.852,0.088,1.704,0.088,2.558C140.255,381.64,140.237,382.297,140.205,382.951z    M296.739,359.619h-24.893c-4.465,0-8.084,3.618-8.084,8.084c0,4.466,3.62,8.084,8.084,8.084h24.893v13.878H155.765   c0.134-0.875,0.24-1.756,0.334-2.639c0.023-0.216,0.041-0.432,0.061-0.648c0.064-0.673,0.115-1.347,0.154-2.023   c0.014-0.244,0.03-0.487,0.042-0.733c0.04-0.879,0.067-1.759,0.067-2.644c0-0.914-0.025-1.828-0.07-2.74   c-0.02-0.424-0.057-0.843-0.087-1.265c-0.028-0.396-0.045-0.791-0.082-1.186h87.636c4.465,0,8.084-3.618,8.084-8.084   s-3.62-8.084-8.084-8.084h-91.572c-8.466-20.822-28.906-35.546-52.732-35.546c-31.378,0-56.905,25.528-56.905,56.905   c0,0.884,0.027,1.765,0.067,2.644c0.011,0.245,0.027,0.488,0.042,0.733c0.04,0.677,0.091,1.351,0.154,2.023   c0.02,0.217,0.039,0.432,0.061,0.648c0.093,0.883,0.199,1.763,0.334,2.639H21.019c-2.675,0-4.851-2.175-4.851-4.851v-63.322   c0-2.674,2.175-4.851,4.851-4.851h252.263h23.457v42.977H296.739z M296.739,165.193v135.28h-15.373v-72.524v-57.033v-36.978   c0-2.674,2.176-4.851,4.851-4.851h5.672c2.674,0,4.851,2.176,4.851,4.851V165.193z M434.912,382.951   c-0.009,0.184-0.025,0.368-0.036,0.551c-0.029,0.479-0.064,0.957-0.109,1.431c-0.018,0.191-0.041,0.38-0.063,0.57   c-0.053,0.48-0.112,0.957-0.182,1.431c-0.024,0.162-0.049,0.324-0.074,0.486c-0.084,0.524-0.177,1.044-0.28,1.562   c-0.02,0.106-0.041,0.211-0.063,0.317c-3.851,18.487-20.27,32.421-39.882,32.421c-17.499,0-32.452-11.093-38.208-26.614   c-0.019-0.056-0.043-0.109-0.064-0.165c-0.68-1.859-1.23-3.781-1.634-5.755c-0.002-0.009-0.003-0.018-0.005-0.027   c-0.124-0.604-0.231-1.213-0.327-1.825c-0.022-0.135-0.04-0.271-0.059-0.405c-0.072-0.493-0.135-0.987-0.19-1.485   c-0.019-0.182-0.04-0.363-0.057-0.545c-0.045-0.474-0.08-0.951-0.109-1.429c-0.011-0.181-0.026-0.361-0.033-0.542   c-0.03-0.646-0.05-1.295-0.05-1.947c0-22.462,18.275-40.737,40.737-40.737c22.463,0,40.739,18.275,40.739,40.737   C434.963,381.64,434.943,382.297,434.912,382.951z M480.246,308.507c0,0.184-0.023,0.426-0.071,0.737   c-0.068,0.427-0.099,0.861-0.097,1.295l0.125,20.18c-0.067,0.022-0.13,0.051-0.197,0.073c-0.467,0.157-0.927,0.327-1.38,0.512   c-0.063,0.026-0.126,0.049-0.188,0.074c-0.489,0.206-0.968,0.431-1.44,0.668c-0.108,0.054-0.216,0.11-0.322,0.165   c-0.468,0.245-0.929,0.501-1.379,0.776c-0.052,0.031-0.101,0.066-0.152,0.098c-0.417,0.26-0.824,0.534-1.221,0.818   c-0.085,0.061-0.172,0.121-0.257,0.183c-0.419,0.308-0.827,0.63-1.224,0.964c-0.083,0.07-0.164,0.141-0.245,0.212   c-0.376,0.326-0.743,0.661-1.097,1.009c-0.033,0.033-0.069,0.065-0.102,0.098c-0.373,0.372-0.73,0.759-1.077,1.154   c-0.079,0.089-0.156,0.179-0.233,0.269c-0.338,0.398-0.667,0.805-0.979,1.226c-0.043,0.058-0.084,0.119-0.126,0.178   c-0.285,0.39-0.556,0.791-0.816,1.2c-0.053,0.084-0.109,0.166-0.161,0.25c-0.275,0.444-0.534,0.898-0.779,1.361   c-0.053,0.099-0.102,0.199-0.153,0.299c-0.236,0.461-0.461,0.93-0.666,1.409c-0.011,0.024-0.023,0.047-0.032,0.072   c-0.21,0.495-0.399,1.001-0.574,1.513c-0.039,0.112-0.078,0.224-0.114,0.337c-0.166,0.508-0.318,1.022-0.449,1.544   c-0.02,0.081-0.037,0.163-0.056,0.244c-0.116,0.484-0.217,0.973-0.303,1.468c-0.016,0.093-0.035,0.183-0.05,0.277   c-0.086,0.538-0.152,1.081-0.201,1.63c-0.011,0.119-0.018,0.238-0.027,0.358c-0.041,0.567-0.07,1.137-0.07,1.714v29.659   c0,0.554,0.026,1.102,0.065,1.646c0.009,0.127,0.018,0.253,0.029,0.379c0.046,0.534,0.106,1.063,0.188,1.586   c0.01,0.063,0.023,0.124,0.033,0.186c0.079,0.475,0.172,0.944,0.279,1.41c0.027,0.12,0.054,0.238,0.083,0.357   c0.123,0.5,0.26,0.994,0.415,1.48c0.01,0.029,0.015,0.059,0.025,0.088h-14.773c0.135-0.876,0.241-1.757,0.334-2.64   c0.023-0.213,0.041-0.429,0.061-0.643c0.064-0.676,0.115-1.353,0.155-2.033c0.014-0.241,0.03-0.483,0.041-0.724   c0.04-0.88,0.067-1.761,0.067-2.646c0-31.378-25.529-56.905-56.908-56.905c-31.378,0-56.905,25.528-56.905,56.905   c0,0.885,0.027,1.767,0.067,2.646c0.011,0.243,0.027,0.483,0.041,0.724c0.04,0.679,0.092,1.357,0.155,2.033   c0.021,0.215,0.039,0.43,0.061,0.643c0.094,0.883,0.2,1.763,0.334,2.64h-25.07v-21.962v-59.145v-135.28h16.654   c-0.725,2.25-1.121,4.646-1.121,7.132v69.147c0,12.849,10.453,23.301,23.303,23.301h59.114c4.466,0,8.084-3.618,8.084-8.084   c0-4.466-3.618-8.084-8.084-8.084h-59.114c-3.933,0-7.135-3.2-7.135-7.132V180.41c0-3.932,3.201-7.132,7.135-7.132h54.657   l49.701,83.413h-17.936c-4.466,0-8.084,3.618-8.084,8.084s3.618,8.084,8.084,8.084h32.164h5.067c2.674,0,4.851,2.175,4.851,4.851   v30.798H480.246z M495.832,382.533c0,3.932-3.2,7.132-7.132,7.132h-1.248h-0.011h-0.011c-3.932,0-7.132-3.2-7.132-7.132v-29.659   c0-3.932,3.2-7.132,7.132-7.132h0.901h0.369c3.932,0,7.132,3.2,7.132,7.132V382.533z"/>
</g>
<g>
</g>
<g>
</g>
<g>
</g>
<g>
</g>
<g>
</g>
<g>
</g>
<g>
</g>
<g>
</g>
<g>
</g>
<g>
</g>
<g>
</g>
<g>
</g>
<g>
</g>
<g>
</g>
<g>
</g>
</svg>
