<?xml version="1.0" encoding="iso-8859-1"?>
<!-- Generator: Adobe Illustrator 19.0.0, SVG Export Plug-In . SVG Version: 6.00 Build 0)  -->
<svg version="1.1" id="Capa_1" xmlns="http://www.w3.org/2000/svg" xmlns:xlink="http://www.w3.org/1999/xlink" x="0px" y="0px"
	 viewBox="0 0 512 512" style="enable-background:new 0 0 512 512;" xml:space="preserve">
<circle style="fill:#3D6687;" cx="444.23" cy="362.07" r="60.26"/>
<path style="fill:#0C5177;" d="M444.229,301.813c-10.046,0-19.51,2.472-27.839,6.82c19.263,10.056,32.421,30.206,32.421,53.44
	s-13.158,43.384-32.421,53.44c8.329,4.348,17.793,6.82,27.839,6.82c33.281,0,60.26-26.979,60.26-60.26
	S477.509,301.813,444.229,301.813z"/>
<path style="fill:#CCCBCA;" d="M444.229,396.286c-18.865,0-34.213-15.348-34.213-34.213s15.348-34.213,34.213-34.213
	c18.865,0,34.213,15.348,34.213,34.213S463.094,396.286,444.229,396.286z"/>
<path style="fill:#EF2929;" d="M449.523,371.33L449.523,371.33c-6.799,3.553-15.191,0.921-18.744-5.878l-38.165-73.036
	l24.621-12.866l38.165,73.036C458.954,359.386,456.322,367.777,449.523,371.33z"/>
<circle style="fill:#3D6687;" cx="138.77" cy="362.07" r="60.26"/>
<path style="fill:#0C5177;" d="M138.769,301.813c-10.046,0-19.51,2.472-27.839,6.82c19.263,10.056,32.421,30.206,32.421,53.44
	s-13.158,43.384-32.421,53.44c8.329,4.348,17.793,6.82,27.839,6.82c33.281,0,60.26-26.979,60.26-60.26
	S172.05,301.813,138.769,301.813z"/>
<path style="fill:#CCCBCA;" d="M138.769,396.286c-18.865,0-34.213-15.348-34.213-34.213s15.348-34.213,34.213-34.213
	s34.213,15.348,34.213,34.213S157.634,396.286,138.769,396.286z"/>
<path style="fill:#FF4C4C;" d="M492.343,304.173c-8.789-28.15-37.143-45.913-68.246-42.291l-57.651-101.233l-23.847,8.539
	c0,0,37.21,89.064,20.705,149.764l0,0c-1.979,10.281-10.975,17.711-21.444,17.711h-28.4c-30.065,0-54.438-24.373-54.438-54.438
	v-26.464c0-20.277-16.437-36.714-36.714-36.714h-65.452c-55.7,0-100.854,45.154-100.854,100.854v16.762v19.043
	c0,4.833,3.918,8.751,8.751,8.751h194.269h99.761c15.453,0,29.305-4.323,34.824-18.757l0,0c2.255-5.896,5.89-11.176,10.627-15.349
	C439.28,299.477,492.343,304.173,492.343,304.173z"/>
<g>
	<path style="fill:#EF2929;" d="M424.096,261.882l-57.651-101.233l-11.575,4.145L397.693,292.5
		c18.445-2.148,26.39,8.543,39.394,19.142c28.22-9.857,55.254-7.469,55.254-7.469C483.554,276.023,455.199,258.26,424.096,261.882z"
		/>
	<path style="fill:#EF2929;" d="M170.32,277.588h-36.201c-43.143,0-78.117,34.974-78.117,78.117l0,0
		c0,4.833,3.918,8.751,8.751,8.751h174.933v-17.501C239.686,308.645,208.63,277.588,170.32,277.588z"/>
</g>
<path style="fill:#DD2626;" d="M170.32,277.588h-36.201c-3.516,0-6.971,0.255-10.364,0.705
	c33.655,4.774,59.541,33.688,59.541,68.661v17.501h56.39v-17.501C239.686,308.645,208.63,277.588,170.32,277.588z"/>
<path style="fill:#3D6687;" d="M241.22,219.047h-83.421v-19.641c0-7.597,6.159-13.756,13.756-13.756h73.712
	c7.597,0,13.756,6.159,13.756,13.756v1.839C259.022,211.076,251.052,219.047,241.22,219.047z"/>
<g>
	<path style="fill:#0C5177;" d="M245.266,185.65h-41.922v33.397h37.875c9.832,0,17.802-7.97,17.802-17.802v-1.839
		C259.022,191.808,252.863,185.65,245.266,185.65z"/>
	<path style="fill:#0C5177;" d="M383.418,175.404H342.27c-3.628,0-6.569-2.941-6.569-6.569v-18.043c0-3.228,2.345-5.978,5.533-6.487
		l39.933-6.376c8.672-1.385,16.527,5.315,16.527,14.097v9.101C397.694,169.013,391.303,175.404,383.418,175.404z"/>
</g>
<path style="fill:#E1EFFB;" d="M82.655,104.94c-34.759,0-62.968,28.026-63.274,62.713v19.468h126.548v-19.468
	C145.623,132.966,117.414,104.94,82.655,104.94z"/>
<path style="fill:#BAD5E5;" d="M82.655,104.94c-9.992,0-19.437,2.326-27.839,6.45c20.827,10.223,35.217,31.547,35.435,56.262v19.468
	h55.678v-19.468C145.623,132.966,117.414,104.94,82.655,104.94z"/>
<path style="fill:#ACC3D1;" d="M157.798,199.35H10.374c-1.581,0-2.862-1.281-2.862-2.862v-13.954c0-3.789,3.072-6.861,6.861-6.861
	h136.565c3.789,0,6.861,3.072,6.861,6.861v16.816H157.798z"/>
<path d="M489.353,311.529c1.447,0.056,2.266,0.12,2.327,0.125c2.49,0.218,4.939-0.817,6.511-2.77
	c1.572-1.951,2.068-4.559,1.321-6.951c-9.363-29.988-38.835-49.543-71.258-47.929l-4.229-7.426
	c-2.054-3.605-6.641-4.862-10.244-2.81c-3.605,2.053-4.863,6.64-2.81,10.245l6.598,11.586c1.491,2.617,4.398,4.088,7.396,3.743
	c23.306-2.709,45.235,8.351,55.872,27.083c-17.174,0.393-49.225,3.984-75.217,23.181c-0.025,0.018-0.052,0.032-0.077,0.051
	c-0.059,0.044-0.115,0.09-0.174,0.134c-0.908,0.675-1.809,1.369-2.701,2.084c-0.159,0.127-0.32,0.25-0.477,0.378
	c-0.984,0.798-1.96,1.614-2.922,2.461c-5.603,4.936-9.986,11.265-12.678,18.303c-1.455,3.805-3.674,6.712-6.783,8.889
	c-0.089,0.063-0.169,0.135-0.256,0.201c-4.142,2.794-10.555,4.838-20.77,4.838H247.198v-9.99c0-42.39-34.487-76.878-76.878-76.878
	h-36.2c-28.623,0-53.992,14.131-69.548,35.767c6.799-44.824,45.592-79.286,92.284-79.286h0.942h64.51
	c16.102,0,29.203,13.1,29.203,29.202v26.465c0,34.159,27.79,61.949,61.949,61.949h28.399c13.946,0,25.994-9.868,28.763-23.51
	c12.578-46.714-4.995-108.798-14.918-137.748h14.779l23.194,40.728c2.053,3.605,6.641,4.863,10.244,2.81
	c3.605-2.053,4.863-6.64,2.81-10.245l-19.186-33.69c10.047-1.934,17.661-10.787,17.661-21.391v-9.101
	c0-6.389-2.788-12.43-7.648-16.576c-4.86-4.146-11.263-5.947-17.574-4.939l-39.932,6.376c-6.873,1.096-11.861,6.944-11.861,13.904
	v18.043c0,0.631,0.055,1.249,0.136,1.858l-10.896,8.4c-3.285,2.533-3.896,7.249-1.363,10.535c1.48,1.919,3.704,2.926,5.954,2.926
	c1.601,0,3.215-0.51,4.581-1.563l11.376-8.769h-0.001c0.561,0.18,1.132,0.339,1.721,0.448
	c8.876,24.682,28.803,88.542,16.357,134.311c-0.049,0.182-0.092,0.366-0.128,0.552c-1.296,6.733-7.213,11.619-14.069,11.619H313.46
	c-25.875,0-46.926-21.051-46.926-46.926V255.76c0-12.583-5.291-23.946-13.755-32.007c8.159-4.207,13.755-12.714,13.755-22.509
	v-1.839c0-11.727-9.54-21.267-21.267-21.267h-73.712c-2.322,0-4.553,0.387-6.646,1.078c-1.314-5.53-5.823-9.825-11.468-10.822
	v-0.809c-0.318-36.149-28.069-65.993-63.274-69.751v-0.657h4.173c4.148,0,7.511-3.363,7.511-7.511c0-4.148-3.363-7.511-7.511-7.511
	H70.97c-4.148,0-7.511,3.363-7.511,7.511c0,4.148,3.363,7.511,7.511,7.511h4.173v0.654c0.002,0,0.004,0,0.006,0
	c-13.083,1.363-25.371,6.283-35.892,14.456c-3.276,2.546-3.868,7.265-1.323,10.54c2.545,3.276,7.264,3.867,10.54,1.323
	c9.851-7.654,21.671-11.7,34.18-11.7c30.479,0,55.494,24.793,55.762,55.202v0.51H26.892v-0.443
	c0.058-6.505,1.223-12.864,3.464-18.902c1.444-3.89-0.539-8.213-4.428-9.656c-3.89-1.446-8.212,0.538-9.656,4.429
	c-2.849,7.674-4.33,15.747-4.403,24.063v0.742C5.136,169.585,0,175.465,0,182.535v13.954c0,5.72,4.654,10.373,10.374,10.373h10.448
	l42.013,59.215c-9.12,15.867-14.344,34.246-14.344,53.824v35.805c0,8.967,7.295,16.262,16.262,16.262h6.981
	c4.775,32.982,32.939,57.877,67.035,57.877s62.26-24.895,67.035-57.877l0,0h152.979c6.789,0,12.829-0.772,18.11-2.308
	c3.785,33.81,32.532,60.186,67.336,60.186c37.369,0,67.771-30.402,67.771-67.771C512,342.407,503.449,324.143,489.353,311.529z
	 M343.213,167.893v-16.297l39.139-6.249c2.682-0.424,4.569,0.777,5.457,1.534c0.887,0.756,2.375,2.43,2.375,5.146v9.101
	c0,3.73-3.034,6.765-6.765,6.765l0,0H343.213L343.213,167.893z M165.31,199.406c0-3.444,2.801-6.245,6.244-6.245h73.712
	c3.443,0,6.244,2.801,6.244,6.245v1.839c0,5.675-4.616,10.291-10.291,10.291l0,0h-75.91v-12.13H165.31z M15.023,191.839v-8.654l0,0
	h135.264l0,0v8.654H15.023z M39.242,206.861h111.046v4.879c-31.755,1.909-59.866,17.555-78.457,41.059
	c0.001-0.001,0.002-0.002,0.002-0.003L39.242,206.861z M138.769,414.822c-25.779,0-47.208-18.281-51.818-42.855h11.303
	c4.482,18.319,21.087,31.83,40.514,31.83s36.031-13.512,40.514-31.83h11.304C185.977,396.541,164.548,414.822,138.769,414.822z
	 M113.98,371.967h49.578c-3.96,9.871-13.652,16.808-24.789,16.808S117.939,381.839,113.98,371.967z M232.175,356.944
	L232.175,356.944L232.175,356.944L232.175,356.944H64.753l0,0c-0.683,0-1.239-0.556-1.239-1.239
	c0-38.932,31.674-70.606,70.606-70.606h36.2c34.107,0,61.855,27.748,61.855,61.855L232.175,356.944L232.175,356.944z
	 M431.022,322.153l17.721,33.913c0.789,1.51,0.943,3.236,0.433,4.862c-0.51,1.625-1.623,2.956-3.132,3.745
	c-3.117,1.629-6.979,0.418-8.608-2.699l-17.678-33.829C423.422,325.851,427.201,323.867,431.022,322.153z M417.973,357.165
	l6.149,11.767c5.465,10.458,18.419,14.518,28.88,9.057c10.459-5.466,14.521-18.421,9.056-28.88l-5.636-10.787
	c8.608,4.437,14.508,13.419,14.508,23.752c0,14.723-11.978,26.701-26.701,26.701s-26.701-11.978-26.701-26.701
	C417.527,360.406,417.677,358.765,417.973,357.165z M444.229,414.822c-29.086,0-52.749-23.663-52.749-52.749
	c0-0.078,0-0.156,0.001-0.235c2.797-2.49,5.128-5.434,6.986-8.834c0.233-0.422,0.461-0.849,0.678-1.284
	c0.147-0.298,0.294-0.596,0.435-0.901c0.37-0.794,0.724-1.602,1.043-2.438c0.214-0.558,0.446-1.109,0.69-1.653
	c0.081-0.179,0.169-0.355,0.253-0.533c0.171-0.363,0.345-0.725,0.53-1.081c0.106-0.204,0.217-0.404,0.327-0.606
	c0.178-0.325,0.359-0.648,0.548-0.967c0.121-0.204,0.244-0.406,0.368-0.606c0.195-0.313,0.397-0.623,0.602-0.929
	c0.128-0.19,0.255-0.381,0.387-0.569c0.228-0.323,0.464-0.64,0.704-0.955c0.12-0.158,0.237-0.319,0.36-0.475
	c0.332-0.419,0.674-0.829,1.027-1.23c0.038-0.043,0.073-0.089,0.111-0.132c0.367-0.413,0.749-0.812,1.137-1.205l1.265,2.421
	c-4.169,6.624-6.428,14.344-6.428,22.211c0,23.006,18.717,41.724,41.724,41.724c23.006,0,41.724-18.718,41.724-41.724
	c0-22.045-17.188-40.14-38.865-41.615l-1.835-3.512c6.382-1.863,12.612-3.115,18.331-3.945c20.05,7.909,33.395,27.397,33.395,49.072
	C496.977,391.159,473.315,414.822,444.229,414.822z"/>
<g>
</g>
<g>
</g>
<g>
</g>
<g>
</g>
<g>
</g>
<g>
</g>
<g>
</g>
<g>
</g>
<g>
</g>
<g>
</g>
<g>
</g>
<g>
</g>
<g>
</g>
<g>
</g>
<g>
</g>
</svg>
