<?xml version="1.0" encoding="iso-8859-1"?>
<!-- Generator: Adobe Illustrator 19.0.0, SVG Export Plug-In . SVG Version: 6.00 Build 0)  -->
<svg xmlns="http://www.w3.org/2000/svg" xmlns:xlink="http://www.w3.org/1999/xlink" version="1.1" id="Layer_1" x="0px" y="0px" viewBox="0 0 512 512" style="enable-background:new 0 0 512 512;" xml:space="preserve">
<path style="fill:#E6E9ED;" d="M496.954,271.797c0-7.408-6.007-13.415-13.415-13.415h-5.255l-61.537-103.278H306.635v241.188h45.151  c-1.982-5.424-3.065-11.282-3.065-17.393c0-27.965,22.67-50.633,50.633-50.633c27.968,0,50.635,22.668,50.635,50.633  c0,6.112-1.083,11.969-3.065,17.393h49.096c-8.716,0-15.781-7.065-15.781-15.781v-30.76c0-8.714,7.065-15.781,15.781-15.781h0.935  l-0.174-28.177c0.105-0.672,0.174-1.354,0.174-2.055v-31.941H496.954z"/>
<rect x="306.641" y="155.109" style="fill:#CCD4DD;" width="23.476" height="241.188"/>
<path style="fill:#97D3EE;" d="M444.926,258.382h33.358l-61.537-103.278h-61.45c-8.716,0-15.784,7.067-15.784,15.781v71.714  c0,8.716,7.067,15.781,15.784,15.781h61.308"/>
<path style="fill:#49B5CE;" d="M361.871,242.6v-71.714c0-8.714,7.067-15.781,15.784-15.781h-22.358  c-8.716,0-15.784,7.067-15.784,15.781V242.6c0,8.716,7.067,15.781,15.784,15.781h22.358  C368.939,258.382,361.871,251.317,361.871,242.6z"/>
<circle style="fill:#5B5E5E;" cx="399.36" cy="378.902" r="50.63"/>
<circle style="fill:#E6E9ED;" cx="399.36" cy="378.902" r="17.392"/>
<path style="fill:#BEC6CC;" d="M375.024,296.32h-30.249c-4.63,0-8.384-3.753-8.384-8.384c0-4.632,3.754-8.384,8.384-8.384h30.249  c4.63,0,8.384,3.753,8.384,8.384C383.409,292.567,379.654,296.32,375.024,296.32z"/>
<path style="fill:#F7A539;" d="M236.624,82.463H13.415C6.006,82.463,0,88.469,0,95.878v286.999c0,7.408,6.006,13.415,13.415,13.415  h33.842c-1.982-5.424-3.065-11.282-3.065-17.393c0-27.965,22.67-50.633,50.633-50.633c27.967,0,50.635,22.668,50.635,50.633  c0,6.112-1.083,11.969-3.065,17.393h46.531h105.413h13.415v-13.415v-84.856V117.095V95.878c0-7.408-6.007-13.415-13.415-13.415  h-29.395"/>
<path style="fill:#ED6529;" d="M22.358,382.877V95.878c0-7.408,6.007-13.415,13.415-13.415H13.415C6.006,82.463,0,88.469,0,95.878  v286.999c0,7.408,6.006,13.415,13.415,13.415h22.358C28.365,396.292,22.358,390.285,22.358,382.877z"/>
<path style="fill:#F9B058;" d="M294.339,82.463h-29.395h-28.319H125.019c-6.236,19.563-9.612,40.403-9.612,62.032  c0,108.777,85.096,197.663,192.347,203.756v-50.23V117.095V95.878C307.753,88.469,301.747,82.463,294.339,82.463z"/>
<g>
	<rect x="38.469" y="290.554" style="fill:#5B5E5E;" width="38.468" height="37.71"/>
	<rect x="115.401" y="290.554" style="fill:#5B5E5E;" width="38.469" height="37.71"/>
	<rect x="192.347" y="290.554" style="fill:#5B5E5E;" width="38.468" height="37.71"/>
	<rect x="269.281" y="290.554" style="fill:#5B5E5E;" width="38.469" height="37.71"/>
</g>
<rect y="290.554" style="fill:#F98B38;" width="38.469" height="37.71"/>
<rect y="290.554" style="fill:#E2551E;" width="22.358" height="37.71"/>
<g>
	<rect x="76.938" y="290.554" style="fill:#F98B38;" width="38.469" height="37.71"/>
	<rect x="153.879" y="290.554" style="fill:#F98B38;" width="38.469" height="37.71"/>
	<rect x="230.814" y="290.554" style="fill:#F98B38;" width="38.469" height="37.71"/>
</g>
<circle style="fill:#5B5E5E;" cx="94.832" cy="378.902" r="50.63"/>
<g>
	<path style="fill:#464949;" d="M370.914,378.9c0-24.151,16.914-44.338,39.537-49.399c-3.573-0.799-7.283-1.234-11.097-1.234   c-27.963,0-50.633,22.668-50.633,50.633c0,27.968,22.67,50.638,50.633,50.638c3.814,0,7.523-0.436,11.097-1.234   C387.828,423.241,370.914,403.052,370.914,378.9z"/>
	<path style="fill:#464949;" d="M66.386,378.9c0-24.15,16.914-44.338,39.537-49.399c-3.573-0.799-7.284-1.234-11.097-1.234   c-27.963,0-50.633,22.668-50.633,50.633c0,27.968,22.67,50.638,50.633,50.638c3.813,0,7.523-0.436,11.097-1.234   C83.299,423.241,66.386,403.052,66.386,378.9z"/>
</g>
<circle style="fill:#E6E9ED;" cx="94.832" cy="378.902" r="17.392"/>
<g>
	<path style="fill:#CCD4DD;" d="M403.038,378.9c0-5.638,2.694-10.633,6.854-13.811c-2.927-2.235-6.572-3.577-10.538-3.577   c-9.605,0-17.391,7.784-17.391,17.389s7.786,17.393,17.391,17.393c3.966,0,7.612-1.343,10.538-3.58   C405.732,389.534,403.038,384.536,403.038,378.9z"/>
	<path style="fill:#CCD4DD;" d="M98.51,378.9c0-5.638,2.694-10.633,6.854-13.811c-2.926-2.235-6.572-3.577-10.538-3.577   c-9.605,0-17.391,7.784-17.391,17.389s7.786,17.393,17.391,17.393c3.966,0,7.613-1.343,10.538-3.58   C101.204,389.534,98.51,384.536,98.51,378.9z"/>
</g>
<path style="fill:#E6E9ED;" d="M214.156,187.427l-50.183-50.18c-3.274-3.273-8.582-3.273-11.856,0  c-3.274,3.275-3.274,8.583,0,11.858l35.869,35.867H86.525c-4.631,0-8.384,3.753-8.384,8.384s3.753,8.384,8.384,8.384h101.461  l-35.869,35.867c-3.274,3.275-3.274,8.583,0,11.858c1.638,1.637,3.783,2.455,5.929,2.455c2.145,0,4.292-0.818,5.928-2.455  l50.183-50.18c1.572-1.573,2.455-3.705,2.455-5.929C216.612,191.133,215.728,189,214.156,187.427z"/>
<path style="fill:#EFF1F4;" d="M216.612,193.357c0-2.224-0.883-4.355-2.455-5.929l-50.183-50.18c-3.274-3.273-8.582-3.273-11.857,0  c-3.274,3.275-3.274,8.583,0,11.858l35.869,35.867H119.43c1.141,5.679,2.525,11.271,4.128,16.769h64.428l-35.869,35.867  c-3.274,3.275-3.274,8.583,0,11.858c1.638,1.637,3.783,2.455,5.929,2.455c2.145,0,4.292-0.818,5.928-2.455l50.183-50.18  C215.728,197.712,216.612,195.58,216.612,193.357z"/>
<path style="fill:#F7A539;" d="M512,380.51c0,8.716-7.065,15.781-15.781,15.781h-1.317c-8.716,0-15.781-7.065-15.781-15.781v-30.76  c0-8.714,7.065-15.781,15.781-15.781h1.317c8.716,0,15.781,7.067,15.781,15.781V380.51z"/>
<path style="fill:#ED6529;" d="M495.56,380.51v-30.76c0-5.975,3.324-11.173,8.22-13.853c-2.247-1.229-4.823-1.93-7.563-1.93h-1.317  c-8.716,0-15.781,7.067-15.781,15.781v30.76c0,8.716,7.065,15.781,15.781,15.781h1.317c2.74,0,5.316-0.7,7.563-1.928  C498.884,391.685,495.56,386.487,495.56,380.51z"/>
<g>
</g>
<g>
</g>
<g>
</g>
<g>
</g>
<g>
</g>
<g>
</g>
<g>
</g>
<g>
</g>
<g>
</g>
<g>
</g>
<g>
</g>
<g>
</g>
<g>
</g>
<g>
</g>
<g>
</g>
</svg>
