<?xml version="1.0" encoding="iso-8859-1"?>
<!-- Generator: Adobe Illustrator 19.0.0, SVG Export Plug-In . SVG Version: 6.00 Build 0)  -->
<svg xmlns="http://www.w3.org/2000/svg" xmlns:xlink="http://www.w3.org/1999/xlink" version="1.1" id="Layer_1" x="0px" y="0px" viewBox="0 0 512 512" style="enable-background:new 0 0 512 512;" xml:space="preserve">
<path style="fill:#E6E9ED;" d="M488.33,271.231c0-7.143-5.792-12.935-12.935-12.935h-5.067l-59.335-99.581H304.823v232.556h43.535  c-1.911-5.23-2.956-10.878-2.956-16.771c0-26.965,21.859-48.821,48.821-48.821c26.967,0,48.823,21.856,48.823,48.821  c0,5.893-1.044,11.541-2.956,16.771h47.339c-8.404,0-15.217-6.812-15.217-15.217v-29.659c0-8.402,6.812-15.217,15.217-15.217h0.901  l-0.168-27.168c0.101-0.648,0.168-1.305,0.168-1.981v-30.798H488.33z"/>
<path style="fill:#97D3EE;" d="M438.164,258.296h32.164l-59.335-99.581h-59.251c-8.404,0-15.219,6.814-15.219,15.217v69.147  c0,8.404,6.814,15.217,15.219,15.217h59.114"/>
<rect x="312.751" y="158.719" style="fill:#B6C1CC;" width="22.636" height="232.556"/>
<path style="fill:#49B5CE;" d="M366.009,243.08v-69.147c0-8.402,6.814-15.217,15.219-15.217H359.67  c-8.404,0-15.219,6.814-15.219,15.217v69.147c0,8.404,6.814,15.217,15.219,15.217h21.558  C372.823,258.296,366.009,251.484,366.009,243.08z"/>
<path style="fill:#F7A539;" d="M236.24,88.674H21.019c-7.143,0-12.935,5.792-12.935,12.935v276.728  c0,7.143,5.792,12.935,12.935,12.935H53.65c-1.911-5.23-2.956-10.878-2.956-16.771c0-26.965,21.859-48.821,48.821-48.821  c26.967,0,48.823,21.856,48.823,48.821c0,5.893-1.044,11.541-2.956,16.771h44.865h101.64h12.935v-12.935v-81.819V122.067v-20.458  c0-7.143-5.792-12.935-12.935-12.935h-28.343"/>
<path style="fill:#ED6529;" d="M37.569,377.258V100.53c0-7.143,5.792-12.935,12.935-12.935H28.946  c-7.143,0-12.935,5.792-12.935,12.935v276.728c0,7.143,5.792,12.935,12.935,12.935h21.558  C43.36,390.193,37.569,384.401,37.569,377.258z"/>
<path style="fill:#F9B058;" d="M288.656,88.674h-28.343h-27.305H125.395c-6.011,18.863-9.267,38.957-9.267,59.812  c0,104.883,82.05,190.589,185.463,196.464v-48.432V122.067v-20.458C301.591,94.465,295.799,88.674,288.656,88.674z"/>
<g>
	<rect x="45.177" y="289.317" style="fill:#5B5E5E;" width="37.093" height="36.361"/>
	<rect x="119.366" y="289.317" style="fill:#5B5E5E;" width="37.093" height="36.361"/>
	<rect x="193.547" y="289.317" style="fill:#5B5E5E;" width="37.09" height="36.361"/>
	<rect x="267.727" y="289.317" style="fill:#5B5E5E;" width="37.092" height="36.361"/>
</g>
<rect x="8.084" y="289.317" style="fill:#E2551E;" width="37.093" height="36.361"/>
<g>
	<rect x="82.265" y="289.317" style="fill:#F98B38;" width="37.093" height="36.361"/>
	<rect x="156.456" y="289.317" style="fill:#F98B38;" width="37.093" height="36.361"/>
	<rect x="230.637" y="289.317" style="fill:#F98B38;" width="37.093" height="36.361"/>
</g>
<path style="fill:#F7A539;" d="M503.916,376.054c0,8.404-6.812,15.217-15.217,15.217h-1.27c-8.404,0-15.217-6.812-15.217-15.217  v-29.659c0-8.402,6.812-15.217,15.217-15.217h1.27c8.404,0,15.217,6.814,15.217,15.217V376.054z"/>
<g>
	<circle style="fill:#5B5E5E;" cx="394.229" cy="374.503" r="48.818"/>
	<circle style="fill:#5B5E5E;" cx="99.522" cy="374.503" r="48.818"/>
</g>
<g>
	<circle style="fill:#E6E9ED;" cx="394.229" cy="374.503" r="16.77"/>
	<circle style="fill:#E6E9ED;" cx="99.522" cy="374.503" r="16.77"/>
</g>
<g>
	<path style="fill:#464949;" d="M374.728,374.501c0-23.287,16.307-42.751,38.121-47.631c-3.445-0.771-7.022-1.19-10.7-1.19   c-26.962,0-48.821,21.856-48.821,48.821c0,26.967,21.859,48.825,48.821,48.825c3.678,0,7.254-0.42,10.7-1.19   C391.035,417.256,374.728,397.789,374.728,374.501z"/>
	<path style="fill:#464949;" d="M81.099,374.501c0-23.286,16.307-42.751,38.122-47.631c-3.446-0.771-7.024-1.19-10.701-1.19   c-26.962,0-48.821,21.856-48.821,48.821c0,26.967,21.859,48.825,48.821,48.825c3.678,0,7.254-0.42,10.701-1.19   C97.406,417.256,81.099,397.789,81.099,374.501z"/>
</g>
<path style="fill:#ED6529;" d="M488.446,376.054v-29.659c0-5.761,3.202-10.774,7.925-13.357c-2.164-1.185-4.649-1.86-7.291-1.86  h-1.27c-8.404,0-15.217,6.814-15.217,15.217v29.659c0,8.404,6.812,15.217,15.217,15.217h1.27c2.642,0,5.126-0.675,7.291-1.859  C491.648,386.829,488.446,381.817,488.446,376.054z"/>
<g>
	<path style="fill:#231F20;" d="M370.765,278.709h-29.167c-4.466,0-8.084,3.618-8.084,8.084s3.618,8.084,8.084,8.084h29.167   c4.466,0,8.084-3.618,8.084-8.084C378.849,282.328,375.229,278.709,370.765,278.709z"/>
	<path style="fill:#231F20;" d="M154.757,249.699c1.579,1.578,3.648,2.367,5.717,2.367c2.068,0,4.138-0.789,5.717-2.367   l48.386-48.385c1.516-1.517,2.367-3.573,2.367-5.717c0-2.144-0.852-4.199-2.367-5.717l-48.386-48.385   c-3.158-3.156-8.276-3.156-11.433,0c-3.157,3.158-3.157,8.276,0,11.433l34.585,34.583h-97.83c-4.466,0-8.084,3.618-8.084,8.084   c0,4.466,3.618,8.084,8.084,8.084h97.829l-34.585,34.583C151.601,241.424,151.601,246.542,154.757,249.699z"/>
	<path style="fill:#231F20;" d="M394.223,349.65c-13.704,0-24.853,11.149-24.853,24.851c0,13.705,11.149,24.855,24.853,24.855   c13.705,0,24.855-11.15,24.855-24.855C419.078,360.799,407.928,349.65,394.223,349.65z M394.223,383.187   c-4.788,0-8.685-3.897-8.685-8.687c0-4.787,3.896-8.682,8.685-8.682c4.789,0,8.687,3.894,8.687,8.682   C402.909,379.29,399.013,383.187,394.223,383.187z"/>
	<path style="fill:#231F20;" d="M99.516,349.65c-13.704,0-24.853,11.149-24.853,24.851c0,13.705,11.149,24.855,24.853,24.855   c13.705,0,24.855-11.15,24.855-24.855C124.371,360.799,113.221,349.65,99.516,349.65z M99.516,383.187   c-4.788,0-8.685-3.897-8.685-8.687c0-4.787,3.896-8.682,8.685-8.682c4.789,0,8.687,3.894,8.687,8.682   C108.202,379.29,104.306,383.187,99.516,383.187z"/>
	<path style="fill:#231F20;" d="M496.373,324.398l-0.124-19.851c0.112-0.876,0.165-1.707,0.165-2.519v-30.798   c0-11.59-9.429-21.019-21.019-21.019h-0.473l-56.983-95.635c-1.459-2.448-4.097-3.946-6.945-3.946h-59.251h-38.835v-49.023   c0-11.59-9.429-21.019-21.019-21.019h-28.343c-4.466,0-8.084,3.618-8.084,8.084s3.618,8.084,8.084,8.084h28.343   c2.674,0,4.851,2.176,4.851,4.851v57.108v122.519h-29.008h-37.092h-37.09h-37.093h-37.093H82.269H45.177H16.168V101.608   c0-2.674,2.176-4.851,4.851-4.851H236.24c4.466,0,8.084-3.618,8.084-8.084s-3.618-8.084-8.084-8.084H21.019   C9.429,80.589,0,90.019,0,101.608v187.711v36.361v52.657c0,11.59,9.429,21.019,21.019,21.019h27.316   c9.243,18.959,28.71,32.054,51.181,32.054c22.472,0,41.939-13.096,51.183-32.054h154.125h38.219   c9.243,18.959,28.71,32.054,51.181,32.054c22.472,0,41.939-13.096,51.183-32.054h42.024c0.006-0.001,0.015-0.001,0.022,0h1.248   c12.849,0,23.301-10.452,23.301-23.301v-29.659C512,336.235,505.461,327.578,496.373,324.398z M296.739,317.596h-20.924v-20.192   h20.924V317.596z M259.647,317.596h-20.924v-20.192h20.924V317.596z M222.554,317.596h-20.922v-20.192h20.922V317.596z    M185.464,317.596H164.54v-20.192h20.924V317.596z M148.37,317.596h-20.924v-20.192h20.924V317.596z M111.278,317.596H99.516   h-9.162v-20.192h20.924V317.596z M74.185,317.596H53.261v-20.192h20.924V317.596z M37.093,297.402v20.192H16.168v-20.192H37.093z    M43.27,383.187H21.019c-2.674,0-4.851-2.176-4.851-4.851v-44.573h29.008h14.644c-0.085,0.083-0.165,0.171-0.249,0.254   c-0.345,0.341-0.68,0.691-1.018,1.04c-0.301,0.313-0.605,0.623-0.898,0.942c-0.329,0.357-0.647,0.724-0.967,1.09   c-0.286,0.327-0.573,0.65-0.852,0.982c-0.313,0.374-0.613,0.757-0.915,1.139c-0.268,0.338-0.541,0.675-0.802,1.02   c-0.294,0.389-0.577,0.788-0.861,1.186c-0.252,0.351-0.508,0.7-0.752,1.057c-0.276,0.403-0.538,0.816-0.803,1.226   c-0.236,0.364-0.475,0.725-0.703,1.096c-0.258,0.418-0.5,0.845-0.746,1.271c-0.217,0.374-0.439,0.745-0.648,1.125   c-0.239,0.435-0.462,0.879-0.69,1.32c-0.197,0.382-0.4,0.76-0.589,1.147c-0.219,0.451-0.423,0.91-0.631,1.366   c-0.178,0.39-0.361,0.776-0.53,1.171c-0.198,0.463-0.379,0.937-0.566,1.407c-0.157,0.399-0.323,0.792-0.472,1.195   c-0.178,0.481-0.337,0.971-0.503,1.457c-0.136,0.401-0.28,0.798-0.407,1.203c-0.157,0.499-0.294,1.007-0.438,1.512   c-0.114,0.402-0.238,0.801-0.344,1.207c-0.135,0.518-0.249,1.046-0.37,1.569c-0.093,0.401-0.195,0.799-0.278,1.203   c-0.112,0.544-0.203,1.096-0.3,1.646c-0.069,0.392-0.15,0.78-0.21,1.176c-0.089,0.578-0.154,1.163-0.226,1.746   c-0.046,0.375-0.105,0.746-0.143,1.123c-0.066,0.643-0.107,1.295-0.151,1.943c-0.023,0.323-0.057,0.642-0.073,0.967   c-0.05,0.977-0.077,1.96-0.077,2.948c0,0.885,0.027,1.767,0.067,2.646c0.011,0.243,0.027,0.483,0.041,0.725   c0.04,0.679,0.092,1.356,0.155,2.031c0.02,0.216,0.039,0.432,0.061,0.647C43.028,381.432,43.135,382.311,43.27,383.187z    M99.516,415.241c-18.953,0-34.924-13.011-39.452-30.571c0,0,0,0,0-0.001c-0.157-0.61-0.298-1.227-0.428-1.848   c-0.023-0.107-0.042-0.212-0.064-0.319c-0.103-0.516-0.196-1.036-0.279-1.559c-0.026-0.163-0.051-0.326-0.075-0.488   c-0.07-0.474-0.129-0.952-0.182-1.43c-0.02-0.19-0.044-0.379-0.063-0.57c-0.045-0.474-0.08-0.953-0.109-1.431   c-0.011-0.183-0.027-0.366-0.036-0.551c-0.031-0.653-0.05-1.311-0.05-1.971c0-22.462,18.275-40.737,40.737-40.737   c22.463,0,40.739,18.275,40.739,40.737c0,0.661-0.018,1.318-0.05,1.971c-0.009,0.184-0.025,0.368-0.036,0.551   c-0.029,0.479-0.064,0.957-0.109,1.431c-0.018,0.191-0.041,0.38-0.063,0.57c-0.053,0.48-0.112,0.957-0.182,1.431   c-0.024,0.162-0.048,0.324-0.074,0.486c-0.084,0.525-0.177,1.046-0.28,1.564c-0.02,0.105-0.041,0.209-0.063,0.314   C135.546,401.307,119.129,415.241,99.516,415.241z M156.099,380.547c0.023-0.213,0.041-0.429,0.061-0.643   c0.064-0.676,0.115-1.353,0.155-2.032c0.014-0.241,0.03-0.483,0.041-0.725c0.04-0.88,0.067-1.761,0.067-2.646   c0-0.988-0.026-1.971-0.077-2.948c-0.016-0.324-0.052-0.645-0.073-0.967c-0.044-0.65-0.084-1.3-0.151-1.943   c-0.039-0.382-0.098-0.757-0.144-1.135c-0.071-0.579-0.136-1.16-0.224-1.732c-0.063-0.403-0.144-0.799-0.215-1.199   c-0.096-0.542-0.184-1.087-0.295-1.623c-0.085-0.411-0.189-0.814-0.282-1.221c-0.12-0.518-0.232-1.039-0.365-1.551   c-0.108-0.413-0.233-0.819-0.349-1.228c-0.141-0.498-0.277-0.998-0.431-1.491c-0.129-0.412-0.276-0.815-0.415-1.222   c-0.164-0.481-0.321-0.964-0.497-1.439c-0.151-0.407-0.318-0.806-0.477-1.209c-0.184-0.465-0.363-0.932-0.559-1.39   c-0.172-0.404-0.361-0.799-0.542-1.198c-0.204-0.447-0.402-0.897-0.617-1.337c-0.193-0.397-0.401-0.785-0.604-1.176   c-0.223-0.432-0.442-0.867-0.676-1.292c-0.213-0.388-0.44-0.767-0.662-1.149c-0.241-0.416-0.48-0.835-0.731-1.245   c-0.233-0.379-0.48-0.75-0.721-1.123c-0.26-0.401-0.515-0.804-0.785-1.198c-0.251-0.369-0.515-0.727-0.775-1.089   c-0.277-0.386-0.551-0.774-0.838-1.152c-0.271-0.357-0.552-0.705-0.83-1.055c-0.293-0.37-0.584-0.741-0.886-1.102   c-0.288-0.345-0.585-0.679-0.882-1.018c-0.309-0.354-0.618-0.709-0.937-1.055c-0.304-0.331-0.618-0.651-0.929-0.974   c-0.326-0.337-0.65-0.677-0.984-1.007c-0.087-0.086-0.169-0.178-0.258-0.264h17.242h37.093h37.09h37.093h29.008v49.424H155.764   C155.899,382.311,156.005,381.43,156.099,380.547z M394.223,415.241c-17.497,0-32.452-11.093-38.208-26.614   c-0.019-0.056-0.043-0.11-0.064-0.165c-0.68-1.859-1.23-3.781-1.634-5.755c-0.002-0.009-0.003-0.017-0.005-0.026   c-0.124-0.604-0.231-1.213-0.327-1.826c-0.022-0.135-0.04-0.271-0.06-0.405c-0.072-0.493-0.135-0.987-0.19-1.485   c-0.019-0.181-0.04-0.363-0.057-0.545c-0.045-0.474-0.08-0.951-0.109-1.429c-0.011-0.181-0.025-0.361-0.033-0.542   c-0.03-0.646-0.05-1.295-0.05-1.947c0-22.462,18.275-40.737,40.737-40.737c22.463,0,40.739,18.275,40.739,40.737   c0,0.661-0.018,1.318-0.05,1.971c-0.009,0.185-0.025,0.369-0.036,0.553c-0.029,0.478-0.064,0.954-0.109,1.427   c-0.018,0.192-0.041,0.383-0.063,0.573c-0.053,0.479-0.112,0.955-0.182,1.428c-0.024,0.163-0.05,0.326-0.075,0.488   c-0.083,0.522-0.176,1.041-0.279,1.558c-0.022,0.108-0.042,0.215-0.064,0.322C430.252,401.309,413.835,415.241,394.223,415.241z    M450.472,383.187c0.135-0.875,0.241-1.756,0.334-2.638c0.023-0.215,0.041-0.431,0.061-0.647c0.064-0.675,0.115-1.352,0.155-2.031   c0.014-0.241,0.03-0.483,0.041-0.725c0.04-0.88,0.067-1.761,0.067-2.646c0-31.378-25.529-56.905-56.907-56.905   c-31.378,0-56.905,25.528-56.905,56.905c0,0.885,0.027,1.767,0.067,2.646c0.011,0.243,0.027,0.483,0.041,0.725   c0.04,0.679,0.092,1.357,0.155,2.032c0.021,0.215,0.039,0.43,0.061,0.643c0.094,0.883,0.2,1.763,0.334,2.64h-25.07v-57.508v-36.361   V166.799h16.653c-0.725,2.25-1.121,4.646-1.121,7.132v69.147c0,12.848,10.453,23.301,23.303,23.301h59.114   c4.466,0,8.084-3.618,8.084-8.084c0-4.466-3.618-8.084-8.084-8.084h-59.114c-3.933,0-7.135-3.2-7.135-7.132v-69.147   c0-3.932,3.201-7.132,7.135-7.132h54.657l49.701,83.413h-17.935c-4.466,0-8.084,3.618-8.084,8.084s3.618,8.084,8.084,8.084h32.164   h5.067c2.674,0,4.851,2.176,4.851,4.851v30.798c0,0.184-0.023,0.426-0.071,0.737c-0.068,0.428-0.099,0.861-0.097,1.295l0.125,20.18   c-0.068,0.022-0.132,0.051-0.198,0.073c-0.466,0.157-0.926,0.327-1.378,0.512c-0.063,0.026-0.127,0.049-0.189,0.074   c-0.489,0.206-0.968,0.431-1.439,0.668c-0.109,0.055-0.217,0.11-0.324,0.166c-0.468,0.245-0.929,0.5-1.378,0.775   c-0.052,0.031-0.101,0.066-0.153,0.098c-0.416,0.26-0.822,0.532-1.22,0.817c-0.086,0.061-0.174,0.122-0.259,0.184   c-0.419,0.307-0.827,0.628-1.223,0.964c-0.083,0.07-0.164,0.142-0.246,0.213c-0.375,0.324-0.742,0.66-1.095,1.007   c-0.035,0.033-0.071,0.066-0.106,0.1c-0.373,0.371-0.73,0.759-1.077,1.154c-0.079,0.089-0.156,0.179-0.233,0.269   c-0.338,0.398-0.667,0.805-0.979,1.226c-0.043,0.058-0.084,0.119-0.126,0.178c-0.285,0.39-0.556,0.791-0.816,1.2   c-0.053,0.084-0.109,0.166-0.161,0.25c-0.275,0.444-0.534,0.898-0.779,1.361c-0.053,0.099-0.102,0.199-0.153,0.299   c-0.236,0.461-0.46,0.93-0.666,1.409c-0.011,0.024-0.023,0.047-0.032,0.072c-0.21,0.495-0.399,1.001-0.575,1.513   c-0.039,0.112-0.078,0.224-0.114,0.337c-0.166,0.508-0.318,1.022-0.449,1.544c-0.02,0.081-0.037,0.163-0.056,0.244   c-0.116,0.484-0.217,0.973-0.303,1.468c-0.016,0.093-0.034,0.183-0.05,0.277c-0.086,0.538-0.152,1.081-0.201,1.63   c-0.011,0.119-0.018,0.238-0.027,0.358c-0.041,0.567-0.07,1.137-0.07,1.714v29.659c0,0.554,0.027,1.102,0.065,1.646   c0.009,0.127,0.018,0.253,0.029,0.379c0.046,0.534,0.106,1.063,0.188,1.586c0.01,0.063,0.023,0.123,0.033,0.185   c0.079,0.475,0.172,0.945,0.279,1.41c0.027,0.12,0.054,0.238,0.083,0.357c0.123,0.5,0.26,0.994,0.415,1.48   c0.01,0.029,0.015,0.059,0.025,0.088L450.472,383.187L450.472,383.187z M495.832,376.054c0,3.932-3.2,7.132-7.132,7.132h-1.248   h-0.011c-0.004,0-0.007,0-0.011,0c-3.932,0-7.132-3.2-7.132-7.132v-29.659c0-3.932,3.2-7.132,7.132-7.132h0.901h0.369   c3.932,0,7.132,3.2,7.132,7.132V376.054z"/>
</g>
<g>
</g>
<g>
</g>
<g>
</g>
<g>
</g>
<g>
</g>
<g>
</g>
<g>
</g>
<g>
</g>
<g>
</g>
<g>
</g>
<g>
</g>
<g>
</g>
<g>
</g>
<g>
</g>
<g>
</g>
</svg>
