<?xml version="1.0" encoding="iso-8859-1"?>
<!-- Generator: Adobe Illustrator 19.0.0, SVG Export Plug-In . SVG Version: 6.00 Build 0)  -->
<svg version="1.1" id="Capa_1" xmlns="http://www.w3.org/2000/svg" xmlns:xlink="http://www.w3.org/1999/xlink" x="0px" y="0px"
	 viewBox="0 0 512 512" style="enable-background:new 0 0 512 512;" xml:space="preserve">
<path style="fill:#ACC3D1;" d="M65.377,97.847h4.299v12.179h15.477V97.847h4.299c4.274,0,7.738-3.464,7.738-7.738
	s-3.465-7.739-7.738-7.739H65.377c-4.274,0-7.738,3.464-7.738,7.739C57.639,94.383,61.104,97.847,65.377,97.847z"/>
<polygon style="fill:#CCCBCA;" points="25.621,187.66 12.205,195.498 68.837,275.5 81.659,266.826 "/>
<path style="fill:#E1EFFB;" d="M77.415,101.723c-35.81,0-64.872,28.873-65.187,64.609v20.056h130.374v-20.056
	C142.287,130.596,113.225,101.723,77.415,101.723z"/>
<path style="fill:#BAD5E5;" d="M77.415,101.723c-10.294,0-20.024,2.396-28.68,6.645c21.456,10.532,36.282,32.5,36.506,57.963v20.056
	h57.361v-20.056C142.287,130.596,113.225,101.723,77.415,101.723z"/>
<path style="fill:#ACC3D1;" d="M154.83,198.988H2.949c-1.628,0-2.949-1.32-2.949-2.949v-14.375c0-3.904,3.165-7.068,7.068-7.068
	h140.693c3.904,0,7.068,3.165,7.068,7.068v17.324H154.83z"/>
<circle style="fill:#3D6687;" cx="449.92" cy="367.549" r="62.08"/>
<path style="fill:#0C5177;" d="M449.918,305.466c-10.35,0-20.1,2.547-28.68,7.026c19.846,10.36,33.401,31.119,33.401,55.055
	c0,23.936-13.556,44.696-33.401,55.055c8.581,4.479,18.331,7.026,28.68,7.026c34.287,0,62.081-27.795,62.081-62.082
	C512,333.26,484.205,305.466,449.918,305.466z"/>
<path style="fill:#CCCBCA;" d="M449.918,402.794c-19.435,0-35.247-15.812-35.247-35.247s15.812-35.247,35.247-35.247
	s35.247,15.812,35.247,35.247C485.165,386.982,469.354,402.794,449.918,402.794z"/>
<path style="fill:#EF2929;" d="M455.373,377.083L455.373,377.083c-7.004,3.66-15.65,0.949-19.31-6.055l-39.319-75.244l25.365-13.255
	l39.319,75.244C465.089,364.779,462.377,373.424,455.373,377.083z"/>
<circle style="fill:#3D6687;" cx="135.22" cy="367.549" r="62.08"/>
<path style="fill:#0C5177;" d="M135.225,305.466c-10.35,0-20.1,2.547-28.68,7.026c19.846,10.36,33.401,31.119,33.401,55.055
	c0,23.936-13.556,44.696-33.401,55.055c8.581,4.479,18.331,7.026,28.68,7.026c34.287,0,62.081-27.795,62.081-62.082
	C197.307,333.26,169.512,305.466,135.225,305.466z"/>
<path style="fill:#CCCBCA;" d="M135.225,402.794c-19.435,0-35.247-15.812-35.247-35.247s15.812-35.247,35.247-35.247
	s35.247,15.812,35.247,35.247C170.472,386.982,154.661,402.794,135.225,402.794z"/>
<path style="fill:#FF4C4C;" d="M499.487,307.896c-9.055-29-38.266-47.3-70.309-43.569l-59.393-104.293l-24.568,8.797
	c0,0,38.335,91.757,21.33,154.291l0,0c-2.038,10.592-11.307,18.246-22.093,18.246h-29.257c-30.974,0-56.083-25.109-56.083-56.083
	v-27.264c0-20.89-16.934-37.824-37.824-37.824h-67.43c-57.384,0-103.902,46.519-103.902,103.902v17.269v19.618
	c0,4.979,4.036,9.015,9.015,9.015h200.142H361.89c15.92,0,30.19-4.454,35.877-19.324l0,0c2.323-6.074,6.068-11.514,10.948-15.813
	C444.82,303.058,499.487,307.896,499.487,307.896z"/>
<g>
	<path style="fill:#EF2929;" d="M429.178,264.326l-59.393-104.293l-11.925,4.27l44.118,131.566
		c19.002-2.213,27.187,8.801,40.585,19.721c29.073-10.155,56.924-7.694,56.924-7.694
		C490.432,278.896,461.221,260.596,429.178,264.326z"/>
	<path style="fill:#EF2929;" d="M167.73,280.508h-37.295c-44.447,0-80.478,36.031-80.478,80.478l0,0
		c0,4.979,4.036,9.015,9.015,9.015h180.221v-18.03C239.193,312.503,207.198,280.508,167.73,280.508z"/>
</g>
<path style="fill:#DD2626;" d="M167.73,280.508h-37.295c-3.622,0-7.182,0.263-10.677,0.727
	c34.672,4.918,61.341,34.706,61.341,70.737v18.03h58.094v-18.03C239.193,312.503,207.198,280.508,167.73,280.508z"/>
<path style="fill:#3D6687;" d="M240.773,220.197H154.83v-20.235c0-7.827,6.345-14.172,14.172-14.172h75.94
	c7.827,0,14.172,6.345,14.172,14.172v1.895C259.113,211.985,250.902,220.197,240.773,220.197z"/>
<path style="fill:#0C5177;" d="M244.942,185.79h-43.189v34.407h39.02c10.129,0,18.341-8.211,18.341-18.34v-1.895
	C259.113,192.134,252.769,185.79,244.942,185.79z"/>
<path style="fill:#3D6687;" d="M356.459,152.537l-32.523,25.171c-3.375,2.612-3.994,7.466-1.382,10.842
	c2.612,3.375,7.467,3.994,10.842,1.382l32.523-25.171L356.459,152.537z"/>
<path style="fill:#0C5177;" d="M387.27,175.235h-42.392c-3.738,0-6.767-3.03-6.767-6.767V149.88c0-3.326,2.416-6.158,5.7-6.683
	l41.14-6.569c8.935-1.427,17.026,5.476,17.026,14.524v9.376C401.978,168.65,395.393,175.235,387.27,175.235z"/>
<g>
</g>
<g>
</g>
<g>
</g>
<g>
</g>
<g>
</g>
<g>
</g>
<g>
</g>
<g>
</g>
<g>
</g>
<g>
</g>
<g>
</g>
<g>
</g>
<g>
</g>
<g>
</g>
<g>
</g>
</svg>
