<?xml version="1.0" encoding="iso-8859-1"?>
<!-- Generator: Adobe Illustrator 19.0.0, SVG Export Plug-In . SVG Version: 6.00 Build 0)  -->
<svg version="1.1" id="Layer_1" xmlns="http://www.w3.org/2000/svg" xmlns:xlink="http://www.w3.org/1999/xlink" x="0px" y="0px"
	 viewBox="0 0 512 512" style="enable-background:new 0 0 512 512;" xml:space="preserve">
<g>
	<path style="fill:#FF5050;" d="M409.171,8.017H256c-9.445,0-17.102,7.656-17.102,17.102v34.205l171.891-32.848
		c4.443-0.785,7.683-4.645,7.683-9.158C418.472,12.18,414.307,8.017,409.171,8.017z"/>
	<path style="fill:#FF5050;" d="M316.884,143.339l-40.276-25.172c-7.5-4.688-12.057-12.909-12.057-21.754V76.426h-51.307v19.986
		c0,8.845-4.557,17.066-12.057,21.754l-40.276,25.172c-10.001,6.25-16.076,17.212-16.076,29.005v314.537
		c0,9.445,7.658,17.102,17.102,17.102h153.921c9.445,0,17.102-7.658,17.102-17.102V172.344
		C332.96,160.551,326.885,149.588,316.884,143.339z"/>
</g>
<g>
	<path style="fill:#C84146;" d="M269.238,110.858c-2.088-3.03-3.564-6.451-4.247-10.089c-0.037-0.208-0.097-0.412-0.129-0.621
		c-0.197-1.224-0.311-2.469-0.311-3.737V76.426h-51.307v19.986c0,8.845-4.557,17.066-12.056,21.754l-40.277,25.172
		c-10.001,6.25-16.076,17.212-16.076,29.005v314.537c0,9.446,7.656,17.102,17.102,17.102h49.752c-3.863,0-6.996-7.658-6.996-17.102
		V172.344c0-11.793,2.485-22.756,6.576-29.005c0,0,11.637-17.803,15.4-23.561c0.69-1.057,1.933-1.613,3.178-1.403
		c2.948,0.496,5.957,0.807,9.051,0.807C249.985,119.182,260.334,116.113,269.238,110.858z"/>
	<path style="fill:#C84146;" d="M393.68,90.965L247.449,42.221l-8.551,34.205l160.375,40.094c4.612,1.153,8.68-3.24,7.178-7.751
		l-2.517-7.552C402.319,96.377,398.521,92.579,393.68,90.965z"/>
</g>
<path style="fill:#707487;" d="M187.591,25.119c-52.106,0-94.128,42.634-94.063,94.74c0.046,37.22,3.912,73.846,8.004,112.6
	c4.472,42.388,9.098,86.213,9.098,134.705v42.756c0,4.722,3.829,8.551,8.551,8.551h17.102c4.722,0,8.551-3.829,8.551-8.551v-42.756
	c0-50.288-4.722-95.023-9.287-138.288c-4.01-37.985-7.798-73.863-7.817-109.429c-0.016-33.07,26.788-60.124,59.859-60.124h51.307
	V25.119H187.591z"/>
<path style="fill:#FFF082;" d="M281.654,401.37h-85.511c-9.446,0-17.102-7.656-17.102-17.102V281.653
	c0-9.446,7.656-17.102,17.102-17.102h85.511c9.446,0,17.102,7.656,17.102,17.102v102.614
	C298.756,393.713,291.098,401.37,281.654,401.37z"/>
<path style="fill:#FFDC64;" d="M273.102,290.739h-68.409v-26.188h-8.551c-9.445,0-17.102,7.656-17.102,17.102v102.614
	c0,9.445,7.658,17.102,17.102,17.102h8.551v-51.307h59.858c4.722,0,8.551-3.829,8.551-8.551c0-4.722-3.829-8.551-8.551-8.551
	h-59.858v-17.102h68.409c4.722,0,8.551-3.829,8.551-8.551v-8.017C281.654,294.568,277.825,290.739,273.102,290.739z"/>
<circle style="fill:#D5DCED;" cx="238.898" cy="59.324" r="34.205"/>
<path style="fill:#464655;" d="M110.631,367.165v42.756c0,4.722,3.829,8.551,8.551,8.551h17.102c4.722,0,8.551-3.829,8.551-8.551
	v-42.756c0-5.778-0.077-11.465-0.195-17.102h-34.01V367.165z"/>
<path style="fill:#AFB9D2;" d="M143.712,324.409h-34.315c0.574,11.156,0.912,22.568,1.043,34.205h34.297
	C144.614,346.941,144.263,335.547,143.712,324.409z"/>
<path d="M426.489,17.317C426.489,7.769,418.72,0,409.171,0H256c-11.048,0-20.446,7.172-23.8,17.102h-44.609
	c-27.165,0-52.732,10.621-71.993,29.906c-19.436,19.46-30.12,45.336-30.086,72.862c0.047,37.664,3.934,74.467,8.056,113.504
	c4.448,42.156,9.046,85.749,9.046,133.791v42.756c0,9.136,7.432,16.568,16.568,16.568h17.637v60.392
	c0,13.851,11.268,25.119,25.119,25.119h153.921c13.851,0,25.119-11.268,25.119-25.119V172.344c0-14.652-7.418-28.037-19.844-35.804
	l-40.276-25.172c-5.191-3.244-8.289-8.835-8.289-14.956v-1.313l135.516,31.886c0.609,0.143,1.225,0.213,1.836,0.213
	c2.224,0,4.382-0.928,5.92-2.61c1.959-2.146,2.605-5.184,1.686-7.941l-8.551-25.653c-0.798-2.394-2.677-4.272-5.071-5.071
	L305.645,53.17L412.18,34.369C420.472,32.906,426.489,25.735,426.489,17.317z M265.086,59.324c0,14.44-11.748,26.188-26.188,26.188
	S212.71,73.763,212.71,59.324s11.748-26.188,26.188-26.188S265.086,44.884,265.086,59.324z M117.893,332.426h18.186
	c0.247,5.984,0.436,12.039,0.561,18.171h-18.174C118.337,344.47,118.145,338.414,117.893,332.426z M137.532,164.595
	c-1.088-15.221-1.774-30.233-1.783-45.151c-0.007-13.875,5.387-26.947,15.189-36.808c9.806-9.863,22.823-15.295,36.652-15.295h9.858
	c1.244,6.446,3.956,12.376,7.778,17.423v11.65c0,6.12-3.099,11.712-8.289,14.956l-40.276,25.172
	C146.469,142.911,139.655,153.064,137.532,164.595z M205.817,33.136c-4.13,5.206-7.06,11.401-8.366,18.171h-9.859
	c-3.066,0-6.097,0.22-9.086,0.621V33.623c2.999-0.315,6.03-0.487,9.086-0.487H205.817z M101.545,119.85
	c-0.029-23.24,8.99-45.085,25.397-61.512c10.105-10.117,22.268-17.402,35.53-21.461v19.26c-8.472,3.394-16.257,8.509-22.904,15.196
	c-12.811,12.887-19.861,29.975-19.851,48.118c0.019,36.006,3.828,72.078,7.87,110.355c2.942,27.892,5.941,56.41,7.692,86.586
	h-18.203c-1.74-29.439-4.682-57.394-7.571-84.775C105.436,193.08,101.591,156.679,101.545,119.85z M136.284,410.455h-17.102
	c-0.295,0-0.534-0.239-0.534-0.534v-42.756c0-0.18-0.003-0.355-0.003-0.534h18.171c0,0.18,0.003,0.355,0.003,0.534v42.756
	C136.818,410.216,136.579,410.455,136.284,410.455z M312.635,150.137c7.707,4.818,12.308,13.119,12.308,22.207v314.537
	c0,5.01-4.076,9.086-9.086,9.086H161.937c-5.01,0-9.086-4.076-9.086-9.086V172.344c0-9.089,4.602-17.391,12.308-22.207
	l40.276-25.172c9.557-5.973,15.382-16.117,15.785-27.311c5.382,2.491,11.367,3.892,17.676,3.892s12.294-1.401,17.676-3.893
	c0.404,11.196,6.23,21.338,15.785,27.311L312.635,150.137z M397.773,108.088l-121.761-28.65c2.873-5.28,4.644-11.242,5.023-17.57
	l113.996,37.999L397.773,108.088z M409.395,18.581L277.334,41.886c-5.187-11.387-15.28-20.081-27.569-23.357
	c1.629-1.542,3.82-2.495,6.235-2.495h153.171c0.708,0,1.284,0.576,1.284,1.284C410.455,17.94,410.009,18.472,409.395,18.581z"/>
<path d="M238.983,51.307h-0.086c-4.427,0-7.974,3.589-7.974,8.017s3.631,8.017,8.059,8.017S247,63.751,247,59.324
	S243.411,51.307,238.983,51.307z"/>
<path d="M171.023,281.653v102.614c0,13.851,11.268,25.119,25.119,25.119h85.511c13.851,0,25.119-11.268,25.119-25.119V281.653
	c0-13.851-11.268-25.119-25.119-25.119h-85.511C182.291,256.534,171.023,267.803,171.023,281.653z M290.739,281.653v102.614
	c0,5.01-4.076,9.086-9.086,9.086h-85.511c-5.01,0-9.086-4.076-9.086-9.086V281.653c0-5.01,4.076-9.086,9.086-9.086h85.511
	C286.663,272.568,290.739,276.644,290.739,281.653z"/>
<path d="M213.244,306.772h51.307c4.427,0,8.017-3.589,8.017-8.017c0-4.427-3.589-8.017-8.017-8.017h-51.307
	c-4.427,0-8.017,3.589-8.017,8.017C205.228,303.183,208.817,306.772,213.244,306.772z"/>
<path d="M285.956,173.798l4.532,2.833c0.157,0.098,0.251,0.267,0.251,0.453v53.263c0,4.427,3.589,8.017,8.017,8.017
	c4.427,0,8.017-3.589,8.017-8.017v-53.263c0-5.751-2.912-11.002-7.787-14.05l-4.531-2.833c-3.754-2.346-8.701-1.205-11.047,2.548
	C281.06,166.505,282.202,171.451,285.956,173.798z"/>
<path d="M268.802,144.169l-6.073-3.796c-1.902-1.189-3.738-2.504-5.457-3.911c-3.427-2.803-8.476-2.298-11.281,1.128
	c-2.804,3.427-2.298,8.477,1.128,11.281c2.244,1.835,4.636,3.551,7.112,5.099l6.073,3.796c1.321,0.826,2.79,1.22,4.241,1.22
	c2.672,0,5.285-1.336,6.806-3.769C273.698,151.462,272.556,146.515,268.802,144.169z"/>
<path d="M298.756,461.762h-17.104c-4.427,0-8.017,3.589-8.017,8.017s3.589,8.017,8.017,8.017h17.104
	c4.427,0,8.017-3.589,8.017-8.017S303.183,461.762,298.756,461.762z"/>
<path d="M247.448,461.762H179.04c-4.427,0-8.017,3.589-8.017,8.017s3.589,8.017,8.017,8.017h68.408c4.427,0,8.017-3.589,8.017-8.017
	S251.875,461.762,247.448,461.762z"/>
<g>
</g>
<g>
</g>
<g>
</g>
<g>
</g>
<g>
</g>
<g>
</g>
<g>
</g>
<g>
</g>
<g>
</g>
<g>
</g>
<g>
</g>
<g>
</g>
<g>
</g>
<g>
</g>
<g>
</g>
</svg>
