<?xml version="1.0" encoding="iso-8859-1"?>
<!-- Generator: Adobe Illustrator 19.0.0, SVG Export Plug-In . SVG Version: 6.00 Build 0)  -->
<svg xmlns="http://www.w3.org/2000/svg" xmlns:xlink="http://www.w3.org/1999/xlink" version="1.1" id="Layer_1" x="0px" y="0px" viewBox="0 0 511.998 511.998" style="enable-background:new 0 0 511.998 511.998;" xml:space="preserve">
<g>
	<path style="fill:#CCD4DD;" d="M282.291,68.705L56.263,183.708h59.423L367.143,55.764c6.633-3.374,9.274-11.486,5.899-18.118   c-3.375-6.631-11.486-9.272-18.118-5.899l-49.004,24.935"/>
	<path style="fill:#CCD4DD;" d="M148.339,215.714v-19.071c0-7.143-5.792-12.935-12.935-12.935H45.013   c-7.143,0-12.935,5.792-12.935,12.935v19.071H148.339z"/>
</g>
<g>
	<path style="fill:#E6E9ED;" d="M351.151,31.748l-49.004,24.935l-23.63,12.023L123.084,147.79   c-4.985,11.474-8.981,23.48-11.848,35.918h0.678L363.37,55.764c6.633-3.374,9.274-11.486,5.899-18.118   C365.895,31.015,357.783,28.375,351.151,31.748z"/>
	<path style="fill:#E6E9ED;" d="M145.644,214.636v-19.071c0-7.143-5.792-12.935-12.935-12.935h-21.213   c-2.454,10.391-4.139,21.079-4.971,32.006H145.644z"/>
</g>
<path style="fill:#F7A539;" d="M385.175,217.101v-20.458c0-7.143-5.792-12.935-12.935-12.935h-22.781  c-7.143,0-12.935,5.792-12.935,12.935v20.458H385.175z"/>
<path style="fill:#FF5357;" d="M488.328,329.617c0-7.143-5.789-12.935-12.935-12.935h-5.065l-59.337-99.581h-106.17v232.556h43.537  c-1.911-5.23-2.956-10.878-2.956-16.771c0-26.965,21.859-48.821,48.821-48.821c26.965,0,48.823,21.856,48.823,48.821  c0,5.893-1.044,11.541-2.956,16.771h47.339c-8.404,0-15.217-6.812-15.217-15.217v-29.659c0-8.402,6.812-15.217,15.217-15.217h0.899  l-0.166-27.168c0.099-0.649,0.166-1.305,0.166-1.981v-30.798H488.328z"/>
<path style="fill:#97D3EE;" d="M438.164,316.683h32.164l-59.337-99.581h-59.249c-8.404,0-15.219,6.814-15.219,15.217v69.147  c0,8.404,6.814,15.217,15.219,15.217h59.114"/>
<path style="fill:#ED6529;" d="M374.629,183.747c-0.257-0.015-0.512-0.039-0.772-0.039h-22.781c-7.144,0-12.935,5.792-12.935,12.935  v20.458h24.324v-20.458C362.465,189.761,367.847,184.148,374.629,183.747z"/>
<path style="fill:#ED3A47;" d="M347.68,216.023h-21.84c-7.143,0-12.935,5.792-12.935,12.935v219.621h21.84V228.958  C334.746,221.815,340.536,216.023,347.68,216.023z"/>
<path style="fill:#49B5CE;" d="M366.446,300.388v-69.147c0-8.402,6.814-15.217,15.219-15.217h-21.838  c-8.404,0-15.219,6.814-15.219,15.217v69.147c0,8.404,6.814,15.217,15.219,15.217h21.838  C373.261,315.605,366.446,308.793,366.446,300.388z"/>
<path style="fill:#FF5357;" d="M199.51,449.657h60.899V228.649c0-7.143-5.792-12.935-12.935-12.935H236.24H21.019  c-7.143,0-12.935,5.792-12.935,12.935v208.074c0,7.143,5.792,12.935,12.935,12.935h32.114c0.082-0.254,0.168-0.51,0.257-0.762  c-1.739-5.015-2.695-10.4-2.695-16.009c0-26.965,21.859-48.821,48.821-48.821c26.965,0,48.823,21.857,48.823,48.821  c0,5.608-0.956,10.992-2.697,16.009c0.088,0.252,0.175,0.508,0.259,0.762h26.661"/>
<path style="fill:#FF6971;" d="M244.779,214.636h-11.234h-127.02c-0.402,5.286-0.607,10.627-0.607,16.016  c0,95.421,64.221,175.836,151.796,200.396V227.571C257.714,220.428,251.922,214.636,244.779,214.636z"/>
<path style="fill:#ED3A47;" d="M38.007,435.645V227.571c0-7.143,5.792-12.935,12.935-12.935H29.103  c-7.143,0-12.935,5.792-12.935,12.935v208.074c0,7.143,5.792,12.935,12.935,12.935h21.838  C43.798,448.579,38.007,442.788,38.007,435.645z"/>
<g>
	<rect x="58.551" y="248.443" style="fill:#E6E9ED;" width="50.465" height="36.648"/>
	<rect x="159.475" y="248.443" style="fill:#E6E9ED;" width="50.465" height="36.648"/>
</g>
<rect x="8.084" y="248.443" style="fill:#F7A539;" width="50.463" height="36.648"/>
<rect x="16.168" y="248.443" style="fill:#ED6529;" width="21.838" height="36.648"/>
<g>
	<rect x="109.018" y="248.443" style="fill:#F7A539;" width="50.465" height="36.648"/>
	<rect x="209.942" y="248.443" style="fill:#F7A539;" width="50.465" height="36.648"/>
</g>
<rect x="260.409" y="285.092" style="fill:#E6E9ED;" width="44.409" height="31.593"/>
<rect x="260.409" y="316.685" style="fill:#5B5E5E;" width="44.409" height="132.969"/>
<path style="fill:#F7A539;" d="M503.916,434.441c0,8.404-6.814,15.217-15.217,15.217h-1.27c-8.404,0-15.217-6.812-15.217-15.217  v-29.659c0-8.402,6.812-15.217,15.217-15.217h1.27c8.402,0,15.217,6.814,15.217,15.217V434.441z"/>
<g>
	<circle style="fill:#5B5E5E;" cx="394.229" cy="432.882" r="48.818"/>
	<circle style="fill:#5B5E5E;" cx="99.522" cy="432.882" r="48.818"/>
</g>
<g>
	<circle style="fill:#E6E9ED;" cx="394.218" cy="432.882" r="16.77"/>
	<circle style="fill:#E6E9ED;" cx="99.522" cy="432.882" r="16.77"/>
</g>
<g>
	<path style="fill:#464949;" d="M375.324,431.808c0-23.208,16.2-42.619,37.903-47.58c-3.514-0.803-7.164-1.241-10.92-1.241   c-26.962,0-48.821,21.856-48.821,48.821c0,26.967,21.859,48.825,48.821,48.825c3.755,0,7.406-0.438,10.92-1.241   C391.524,474.432,375.324,455.02,375.324,431.808z"/>
	<path style="fill:#464949;" d="M80.617,431.808c0-23.208,16.2-42.619,37.903-47.58c-3.514-0.803-7.164-1.241-10.92-1.241   c-26.962,0-48.821,21.856-48.821,48.821c0,26.967,21.859,48.825,48.821,48.825c3.755,0,7.406-0.438,10.92-1.241   C96.816,474.432,80.617,455.02,80.617,431.808z"/>
</g>
<path style="fill:#ED6529;" d="M487.524,433.363v-29.659c0-5.76,3.205-10.774,7.926-13.357c-2.167-1.185-4.649-1.86-7.291-1.86  h-1.27c-8.404,0-15.217,6.814-15.217,15.217v29.659c0,8.404,6.812,15.217,15.217,15.217h1.27c2.642,0,5.124-0.675,7.291-1.86  C490.729,444.136,487.524,439.125,487.524,433.363z"/>
<g>
	<path style="fill:#231F20;" d="M370.765,335.855h-29.167c-4.466,0-8.084,3.618-8.084,8.084s3.618,8.084,8.084,8.084h29.167   c4.466,0,8.084-3.618,8.084-8.084S375.229,335.855,370.765,335.855z"/>
	<path style="fill:#231F20;" d="M352.991,134.125v25.149c0,4.466,3.618,8.084,8.084,8.084s8.084-3.618,8.084-8.084v-25.149   c0-4.466-3.618-8.084-8.084-8.084S352.991,129.659,352.991,134.125z"/>
	<path style="fill:#231F20;" d="M391.592,172.395c2.177,0,4.347-0.874,5.941-2.599l17.065-18.476   c3.03-3.28,2.826-8.395-0.454-11.425s-8.395-2.827-11.425,0.454l-17.065,18.476c-3.03,3.28-2.826,8.395,0.454,11.425   C387.663,171.684,389.63,172.395,391.592,172.395z"/>
	<path style="fill:#231F20;" d="M308.007,139.896c-3.28,3.03-3.482,8.145-0.453,11.424l17.067,18.476   c1.594,1.726,3.763,2.599,5.94,2.599c1.961,0,3.929-0.709,5.483-2.146c3.28-3.03,3.482-8.145,0.453-11.424l-17.067-18.476   C316.401,137.07,311.288,136.866,308.007,139.896z"/>
	<path style="fill:#231F20;" d="M394.223,408.036c-13.705,0-24.855,11.149-24.855,24.851c0,13.705,11.15,24.855,24.855,24.855   c13.704,0,24.853-11.15,24.853-24.855C419.076,419.185,407.927,408.036,394.223,408.036z M394.223,441.573   c-4.789,0-8.687-3.897-8.687-8.687c0-4.787,3.897-8.682,8.687-8.682c4.788,0,8.685,3.894,8.685,8.682   C402.907,437.676,399.012,441.573,394.223,441.573z"/>
	<path style="fill:#231F20;" d="M99.516,457.741c13.705,0,24.855-11.15,24.855-24.855c0-13.702-11.15-24.851-24.855-24.851   c-13.704,0-24.853,11.149-24.853,24.851C74.664,446.592,85.811,457.741,99.516,457.741z M99.516,424.205   c4.789,0,8.687,3.894,8.687,8.682c0,4.789-3.897,8.687-8.687,8.687c-4.788,0-8.685-3.897-8.685-8.687   C90.832,428.099,94.728,424.205,99.516,424.205z"/>
	<path style="fill:#231F20;" d="M496.372,382.785l-0.122-19.86c0.11-0.877,0.163-1.705,0.163-2.509v-30.798   c0-11.59-9.429-21.019-21.019-21.019h-0.472l-56.985-95.635c-1.459-2.448-4.097-3.946-6.945-3.946h-17.732v-12.374   c0-11.59-9.429-21.019-21.019-21.019h-22.781c-11.59,0-21.019,9.429-21.019,21.019v12.374h-23.619   c-4.466,0-8.084,3.618-8.084,8.084v59.901h-28.244v-28.564v-19.789c0-11.59-9.429-21.019-21.019-21.019h-91.051v-10.987   c0-8.172-4.697-15.251-11.525-18.727L370.808,62.971c5.134-2.612,8.943-7.066,10.725-12.541c1.783-5.476,1.326-11.318-1.285-16.45   c-5.391-10.59-18.392-14.826-28.99-9.438l-49.004,24.935c-3.979,2.025-5.563,6.893-3.539,10.872   c2.025,3.98,6.893,5.564,10.872,3.539l49.002-24.934c2.649-1.35,5.901-0.289,7.249,2.358c0.653,1.283,0.767,2.743,0.322,4.111   c-0.446,1.369-1.398,2.482-2.682,3.135L113.747,175.624H89.979l195.977-99.713c3.979-2.025,5.563-6.892,3.539-10.872   c-2.025-3.979-6.893-5.564-10.872-3.539L54.325,175.624h-9.312c-11.59,0-21.019,9.429-21.019,21.019v10.987h-2.975   C9.429,207.63,0,217.059,0,228.649v19.789v36.648v151.636c0,11.59,9.429,21.019,21.019,21.019h27.316   c9.243,18.959,28.71,32.054,51.181,32.054c22.472,0,41.939-13.096,51.183-32.054h21.864c4.466,0,8.084-3.618,8.084-8.084   s-3.618-8.084-8.084-8.084h-16.801c0.023-0.149,0.038-0.301,0.059-0.449c0.101-0.696,0.191-1.396,0.267-2.096   c0.031-0.288,0.056-0.578,0.083-0.867c0.057-0.613,0.103-1.229,0.14-1.844c0.016-0.268,0.033-0.537,0.046-0.806   c0.04-0.873,0.067-1.746,0.067-2.624c0-31.378-25.529-56.905-56.907-56.905c-31.378,0-56.905,25.528-56.905,56.905   c0,0.876,0.027,1.749,0.067,2.621c0.012,0.271,0.03,0.54,0.046,0.81c0.037,0.614,0.084,1.227,0.14,1.839   c0.027,0.291,0.053,0.582,0.084,0.872c0.075,0.694,0.164,1.386,0.264,2.077c0.023,0.155,0.038,0.313,0.061,0.467H21.019   c-2.674,0-4.851-2.176-4.851-4.851V293.171h42.379h50.465h50.465h50.465h42.381v23.512v124.89h-52.815   c-4.466,0-8.084,3.618-8.084,8.084s3.618,8.084,8.084,8.084h60.899h44.413h38.221c9.243,18.959,28.71,32.054,51.181,32.054   c22.472,0,41.939-13.096,51.183-32.054h42.024c0.008-0.001,0.015-0.001,0.022,0h1.248c12.849,0,23.301-10.452,23.301-23.301   v-29.659C512,394.621,505.46,385.964,496.372,382.785z M99.516,392.15c22.463,0,40.739,18.275,40.739,40.737   c0,0.643-0.019,1.283-0.048,1.919c-0.01,0.213-0.027,0.427-0.04,0.641c-0.026,0.423-0.057,0.844-0.096,1.263   c-0.024,0.25-0.051,0.499-0.079,0.748c-0.043,0.383-0.093,0.764-0.146,1.145c-0.037,0.258-0.072,0.515-0.113,0.773   c-0.061,0.382-0.131,0.759-0.204,1.136c-0.046,0.243-0.087,0.486-0.138,0.728c-0.12,0.571-0.25,1.138-0.393,1.7   c-0.056,0.223-0.123,0.444-0.183,0.666c-0.108,0.397-0.217,0.792-0.337,1.184c-0.073,0.24-0.155,0.48-0.233,0.719   c-5.326,16.304-20.67,28.121-38.729,28.121c-18.089,0-33.455-11.857-38.755-28.204c-0.066-0.203-0.135-0.405-0.197-0.609   c-0.134-0.438-0.257-0.878-0.376-1.323c-0.045-0.166-0.096-0.331-0.138-0.497c-0.15-0.583-0.285-1.172-0.409-1.763   c-0.049-0.233-0.088-0.467-0.133-0.7c-0.073-0.385-0.146-0.771-0.208-1.16c-0.041-0.255-0.077-0.511-0.112-0.766   c-0.054-0.382-0.103-0.763-0.147-1.147c-0.028-0.249-0.055-0.499-0.079-0.749c-0.039-0.418-0.07-0.839-0.096-1.261   c-0.013-0.215-0.03-0.428-0.04-0.642c-0.03-0.636-0.049-1.275-0.049-1.919C58.779,410.425,77.053,392.15,99.516,392.15z    M344.608,196.643c0-2.674,2.176-4.851,4.851-4.851h22.781c2.674,0,4.851,2.176,4.851,4.851v12.374h-25.348h-7.135L344.608,196.643   L344.608,196.643z M296.737,308.598h-28.244v-15.428h28.244V308.598z M40.162,196.643c0-2.674,2.176-4.851,4.851-4.851h11.251   h59.423h19.718c2.674,0,4.851,2.176,4.851,4.851v10.987H40.162V196.643z M21.019,223.798h11.059h116.261h99.135   c2.674,0,4.851,2.176,4.851,4.851v11.705h-42.381h-50.465h-50.465H58.547H16.168v-11.705   C16.168,225.975,18.345,223.798,21.019,223.798z M16.168,256.522h34.294v20.48H16.168V256.522z M66.631,256.522h34.296v20.48   H66.631V256.522z M117.097,256.522h34.296v20.48h-34.296V256.522z M167.562,256.522h34.296v20.48h-34.296V256.522z    M218.027,256.522h34.296v20.48h-34.296V256.522z M268.493,324.767h28.244v116.806h-28.244V324.767z M394.223,473.627   c-17.496,0-32.449-11.09-38.206-26.61c-0.02-0.058-0.044-0.113-0.066-0.17c-0.68-1.858-1.229-3.78-1.634-5.753   c-0.002-0.011-0.004-0.023-0.006-0.033c-0.123-0.601-0.23-1.208-0.326-1.819c-0.022-0.136-0.04-0.272-0.06-0.407   c-0.072-0.492-0.135-0.986-0.189-1.483c-0.019-0.182-0.04-0.364-0.057-0.548c-0.045-0.473-0.08-0.949-0.109-1.426   c-0.011-0.181-0.026-0.362-0.035-0.544c-0.03-0.646-0.05-1.293-0.05-1.947c0-22.462,18.275-40.737,40.737-40.737   c22.463,0,40.739,18.275,40.739,40.737c0,0.661-0.018,1.318-0.05,1.971c-0.009,0.184-0.025,0.368-0.036,0.551   c-0.029,0.48-0.064,0.957-0.109,1.433c-0.018,0.19-0.041,0.378-0.061,0.568c-0.053,0.481-0.113,0.96-0.183,1.436   c-0.024,0.161-0.049,0.32-0.073,0.481c-0.084,0.527-0.177,1.05-0.281,1.569c-0.02,0.102-0.04,0.206-0.061,0.308   C430.256,459.692,413.837,473.627,394.223,473.627z M450.472,441.573c0.135-0.876,0.241-1.758,0.335-2.642   c0.023-0.212,0.04-0.425,0.06-0.637c0.064-0.678,0.115-1.357,0.155-2.038c0.014-0.24,0.03-0.481,0.041-0.722   c0.04-0.88,0.067-1.761,0.067-2.646c0-31.378-25.529-56.905-56.907-56.905c-31.378,0-56.905,25.528-56.905,56.905   c0,0.885,0.027,1.767,0.067,2.646c0.011,0.243,0.027,0.483,0.041,0.724c0.04,0.679,0.092,1.356,0.155,2.031   c0.021,0.216,0.039,0.431,0.061,0.646c0.094,0.883,0.2,1.762,0.334,2.639h-25.072v-124.89v-31.596v-59.901h16.656   c-0.725,2.25-1.121,4.646-1.121,7.132v69.147c0,12.849,10.453,23.301,23.303,23.301h59.114c4.466,0,8.084-3.618,8.084-8.084   c0-4.466-3.618-8.084-8.084-8.084h-59.114c-3.933,0-7.135-3.2-7.135-7.132v-69.147c0-3.932,3.201-7.132,7.135-7.132h33.432h21.223   l49.703,83.413h-17.935c-4.466,0-8.084,3.618-8.084,8.084s3.618,8.084,8.084,8.084h32.164h5.065c2.674,0,4.851,2.176,4.851,4.851   v30.798c0,0.188-0.024,0.435-0.073,0.762c-0.065,0.42-0.095,0.844-0.093,1.269l0.124,20.182c-0.059,0.019-0.115,0.045-0.174,0.065   c-0.484,0.163-0.963,0.338-1.433,0.532c-0.049,0.021-0.099,0.038-0.148,0.058c-0.498,0.209-0.985,0.438-1.465,0.68   c-0.098,0.05-0.195,0.099-0.292,0.15c-0.476,0.249-0.945,0.51-1.402,0.789c-0.041,0.025-0.08,0.052-0.12,0.077   c-0.43,0.267-0.85,0.55-1.261,0.844c-0.078,0.055-0.156,0.109-0.233,0.166c-0.425,0.313-0.839,0.638-1.242,0.978   c-0.075,0.064-0.149,0.129-0.223,0.194c-0.388,0.336-0.769,0.682-1.134,1.042c-0.024,0.024-0.049,0.045-0.073,0.069   c-0.379,0.377-0.742,0.771-1.094,1.173c-0.072,0.083-0.144,0.165-0.216,0.249c-0.344,0.403-0.677,0.816-0.993,1.243   c-0.038,0.051-0.072,0.102-0.109,0.153c-0.292,0.401-0.571,0.812-0.838,1.232c-0.049,0.077-0.099,0.152-0.148,0.23   c-0.277,0.448-0.539,0.907-0.786,1.374c-0.051,0.095-0.098,0.191-0.147,0.287c-0.239,0.468-0.467,0.941-0.675,1.426   c-0.009,0.019-0.018,0.039-0.027,0.059c-0.211,0.498-0.401,1.007-0.578,1.521c-0.038,0.109-0.075,0.218-0.111,0.328   c-0.167,0.509-0.319,1.025-0.451,1.549c-0.021,0.08-0.037,0.161-0.056,0.24c-0.116,0.485-0.218,0.977-0.303,1.472   c-0.016,0.092-0.035,0.181-0.049,0.273c-0.086,0.538-0.152,1.082-0.201,1.632c-0.011,0.119-0.018,0.238-0.027,0.357   c-0.041,0.567-0.07,1.137-0.07,1.715v29.659c0,0.554,0.026,1.102,0.065,1.646c0.009,0.127,0.018,0.253,0.029,0.379   c0.046,0.534,0.106,1.064,0.188,1.587c0.01,0.061,0.023,0.121,0.032,0.181c0.079,0.476,0.174,0.947,0.28,1.414   c0.027,0.119,0.054,0.238,0.082,0.356c0.123,0.5,0.26,0.995,0.415,1.482c0.009,0.029,0.015,0.058,0.025,0.087h-14.772V441.573z    M495.832,434.441c0,3.932-3.2,7.132-7.132,7.132h-1.248h-0.011c-0.004,0-0.007,0-0.011,0c-3.932,0-7.132-3.2-7.132-7.132v-29.659   c0-3.932,3.2-7.132,7.132-7.132h0.899h0.371c3.932,0,7.132,3.2,7.132,7.132V434.441z"/>
</g>
<g>
</g>
<g>
</g>
<g>
</g>
<g>
</g>
<g>
</g>
<g>
</g>
<g>
</g>
<g>
</g>
<g>
</g>
<g>
</g>
<g>
</g>
<g>
</g>
<g>
</g>
<g>
</g>
<g>
</g>
</svg>
