<svg id="Capa_1" enable-background="new 0 0 512 512" height="512" viewBox="0 0 512 512" width="512" xmlns="http://www.w3.org/2000/svg"><g><g><path d="m39.294 462.452c0 17.103 13.865 39.968 30.968 39.968h371.477c17.103 0 30.967-22.865 30.967-39.968v-241.88c0-17.103-13.865-30.968-30.968-30.968h-371.477c-17.103 0-30.968 13.865-30.968 30.968z" fill="#808b95"/><path d="m325.197 363.959c0 21.374 23.599 47.355 46.733 47.355s46.733-25.498 46.733-47.355c-4.323-21.865-23.599-38.355-46.733-38.355s-42.41 16.49-46.733 38.355z" fill="#f6e080"/><path d="m371.93 381.337c6.345 0 15.008-12.299 15.008-17.378-3.116-5.022-8.663-8.378-15.008-8.378s-11.892 3.355-15.008 8.378c0 5.367 8.663 17.378 15.008 17.378z" fill="#dc4955"/><path d="m115.577 447.253h128.685c25.625 0 30.968-22.865 30.968-39.968v-376.317c0-17.103-13.865-30.968-30.968-30.968h-128.685c-17.103 0-30.968 13.865-30.968 30.968v376.322c.003 17.101 5.911 39.963 30.968 39.963z" fill="#e7ecf1"/><path d="m133.722 165.849h92.396c5.7 0 10.321-13.62 10.322-19.32v-67.987c0-5.701-4.621-10.323-10.322-10.323h-92.395c-5.701 0-10.323 4.622-10.323 10.323v67.987c.001 5.7 4.622 19.32 10.322 19.32z" fill="#b3e59f"/><path d="m179.92 243.169c10.679 0 23.508-15.698 23.508-24.988-3.703-9.362-12.829-15.988-23.508-15.988s-19.805 6.626-23.508 15.988c-.001 9.235 12.828 24.988 23.508 24.988z" fill="#f6e080"/><path d="m226.117 156.849h-92.395c-5.701 0-10.323-4.622-10.323-10.323v18.581c0 5.701 4.622 10.323 10.323 10.323h92.395c5.701 0 10.323-4.622 10.323-10.323v-18.581c0 5.701-4.622 10.323-10.323 10.323z" fill="#95d6a4"/><path d="m179.92 234.169c-10.679 0-19.805-6.626-23.508-15.988-1.138 2.877-1.77 6.009-1.77 9.29 0 13.961 11.318 25.279 25.278 25.279 13.961 0 25.278-11.318 25.278-25.279 0-3.281-.632-6.413-1.77-9.29-3.703 9.362-12.829 15.988-23.508 15.988z" fill="#eccd61"/><path d="m244.262 438.253h-128.685c-17.103 0-30.968-13.865-30.968-30.968v18.581c0 17.103 13.865 30.968 30.968 30.968h128.685c17.103 0 30.968-13.865 30.968-30.968v-18.581c0 17.104-13.865 30.968-30.968 30.968z" fill="#c6d0da"/><path d="m371.93 372.337c-6.345 0-11.892-3.355-15.008-8.378-1.676 2.701-2.66 5.877-2.66 9.29 0 9.758 7.91 17.668 17.668 17.668s17.668-7.91 17.668-17.668c0-3.413-.984-6.589-2.66-9.29-3.116 5.022-8.663 8.378-15.008 8.378z" fill="#d82f3c"/><path d="m371.93 402.314c-23.134 0-42.41-16.49-46.733-38.355-.594 3.006-.912 6.111-.912 9.29 0 26.314 21.332 47.646 47.645 47.646 26.314 0 47.645-21.332 47.645-47.646 0-3.18-.318-6.285-.912-9.29-4.323 21.865-23.599 38.355-46.733 38.355z" fill="#eccd61"/><path d="m441.739 493.419h-371.478c-17.103 0-30.968-13.865-30.968-30.968v18.581c0 17.103 13.865 30.968 30.968 30.968h371.477c17.103 0 30.968-13.865 30.968-30.968v-18.581c0 17.104-13.864 30.968-30.967 30.968z" fill="#5e6b75"/></g><g><g fill="#808b95"><path d="m161.407 44.288h36.727c4.285 0 7.757-3.472 7.757-7.757s-3.472-7.757-7.757-7.757h-36.727c-4.285 0-7.757 3.472-7.757 7.757s3.472 7.757 7.757 7.757z"/><path d="m123.14 287.317h17.034c4.285 0 7.757-3.473 7.757-7.757 0-4.285-3.473-7.757-7.757-7.757h-17.034c-4.285 0-7.757 3.473-7.757 7.757 0 4.285 3.472 7.757 7.757 7.757z"/><path d="m188.288 271.803h-17.034c-4.285 0-7.757 3.473-7.757 7.757s3.473 7.757 7.757 7.757h17.034c4.285 0 7.757-3.473 7.757-7.757s-3.472-7.757-7.757-7.757z"/><path d="m236.401 271.803h-17.033c-4.285 0-7.757 3.473-7.757 7.757s3.473 7.757 7.757 7.757h17.033c4.285 0 7.757-3.473 7.757-7.757s-3.472-7.757-7.757-7.757z"/><path d="m123.14 327.465h17.034c4.285 0 7.757-3.473 7.757-7.757s-3.473-7.757-7.757-7.757h-17.034c-4.285 0-7.757 3.473-7.757 7.757s3.472 7.757 7.757 7.757z"/><path d="m188.288 311.951h-17.034c-4.285 0-7.757 3.473-7.757 7.757s3.473 7.757 7.757 7.757h17.034c4.285 0 7.757-3.473 7.757-7.757s-3.472-7.757-7.757-7.757z"/><path d="m236.401 311.951h-17.033c-4.285 0-7.757 3.473-7.757 7.757s3.473 7.757 7.757 7.757h17.033c4.285 0 7.757-3.473 7.757-7.757s-3.472-7.757-7.757-7.757z"/><path d="m123.14 367.614h17.034c4.285 0 7.757-3.473 7.757-7.757s-3.473-7.757-7.757-7.757h-17.034c-4.285 0-7.757 3.473-7.757 7.757 0 4.285 3.472 7.757 7.757 7.757z"/><path d="m188.288 352.1h-17.034c-4.285 0-7.757 3.473-7.757 7.757 0 4.285 3.473 7.757 7.757 7.757h17.034c4.285 0 7.757-3.473 7.757-7.757s-3.472-7.757-7.757-7.757z"/><path d="m236.401 352.1h-17.033c-4.285 0-7.757 3.473-7.757 7.757 0 4.285 3.473 7.757 7.757 7.757h17.033c4.285 0 7.757-3.473 7.757-7.757s-3.472-7.757-7.757-7.757z"/><path d="m123.14 407.763h17.034c4.285 0 7.757-3.472 7.757-7.757s-3.473-7.757-7.757-7.757h-17.034c-4.285 0-7.757 3.473-7.757 7.757s3.472 7.757 7.757 7.757z"/><path d="m188.288 392.249h-17.034c-4.285 0-7.757 3.473-7.757 7.757s3.473 7.757 7.757 7.757h17.034c4.285 0 7.757-3.472 7.757-7.757s-3.472-7.757-7.757-7.757z"/><path d="m236.401 392.249h-17.033c-4.285 0-7.757 3.473-7.757 7.757s3.473 7.757 7.757 7.757h17.033c4.285 0 7.757-3.472 7.757-7.757s-3.472-7.757-7.757-7.757z"/><path d="m123.14 235.173h8.518c4.285 0 7.757-3.473 7.757-7.757 0-4.285-3.473-7.757-7.757-7.757h-8.518c-4.285 0-7.757 3.473-7.757 7.757 0 4.285 3.472 7.757 7.757 7.757z"/><path d="m236.401 219.659h-8.517c-4.285 0-7.757 3.473-7.757 7.757 0 4.285 3.473 7.757 7.757 7.757h8.517c4.285 0 7.757-3.473 7.757-7.757 0-4.285-3.472-7.757-7.757-7.757z"/></g><path d="m402.861 252.348h-61.409c-4.285 0-7.757 3.473-7.757 7.757 0 4.285 3.473 7.757 7.757 7.757h61.409c4.285 0 7.757-3.473 7.757-7.757 0-4.285-3.472-7.757-7.757-7.757z" fill="#e7ecf1"/><path d="m389.973 225.813h-35.633c-4.285 0-7.757 3.473-7.757 7.757 0 4.285 3.473 7.757 7.757 7.757h35.633c4.285 0 7.757-3.472 7.757-7.757 0-4.284-3.472-7.757-7.757-7.757z" fill="#e7ecf1"/><path d="m389.973 294.397c4.285 0 7.757-3.473 7.757-7.757s-3.473-7.757-7.757-7.757h-35.633c-4.285 0-7.757 3.473-7.757 7.757s3.473 7.757 7.757 7.757z" fill="#e7ecf1"/><path d="m314.627 455.233c-4.285 0-7.757 3.473-7.757 7.757s3.473 7.757 7.757 7.757h17.034c4.285 0 7.757-3.473 7.757-7.757s-3.473-7.757-7.757-7.757z" fill="#e7ecf1"/><path d="m363.002 455.233c-4.285 0-7.757 3.473-7.757 7.757s3.473 7.757 7.757 7.757h17.034c4.285 0 7.757-3.473 7.757-7.757s-3.473-7.757-7.757-7.757z" fill="#e7ecf1"/><path d="m403.621 462.99c0 4.285 3.473 7.757 7.757 7.757h17.034c4.284 0 7.757-3.473 7.757-7.757s-3.473-7.757-7.757-7.757h-17.034c-4.284 0-7.757 3.472-7.757 7.757z" fill="#e7ecf1"/></g></g></svg>