<svg id="Capa_1" enable-background="new 0 0 512 512" height="512" viewBox="0 0 512 512" width="512" xmlns="http://www.w3.org/2000/svg"><g><g><path d="m81.896 24.333-10.367-7.68c12.445-11.06 28.666-17.042 45.418-16.633l234.465 5.719c11.206.273 21.784 4.216 30.288 10.923l-4.266 7.671z" fill="#71aa52"/><path d="m381.697 16.666h-310.156c-1.089.968-2.16 1.96-3.189 3.005l-13.456 13.662v15.583h340.539v-15.583c-3.393-6.591-8.114-12.231-13.738-16.667z" fill="#68994b"/><path d="m338.696 512h-227.684c-10.718 0-19.655-8.201-20.572-18.881l-33.948-395.132 16.404-9.581h303.917l16.404 9.581-33.948 395.132c-.919 10.68-9.855 18.881-20.573 18.881z" fill="#71aa52"/><path d="m393.216 97.987 2.358-27.452-341.452-.128 2.37 27.58z" fill="#68994b"/><path d="m314.772 290.963 7.019-9.615-27.02-45.803c-1.034-1.753-3.293-2.337-5.047-1.303l-26.162 15.415c-1.755 1.034-2.339 3.295-1.304 5.049l15.688 26.596 19.972 9.601z" fill="#ffcb9d"/><path d="m288.919 299.902 20.99 9.029 22.863-8.968-10.981-18.615-43.844-.046z" fill="#ffba7e"/><path d="m152.521 328.993 4.533 8.537 56.207-.019c2.036-.001 3.685-1.651 3.686-3.686l.005-30.366c0-2.037-1.651-3.688-3.688-3.687l-33.89.011-12.938 5.678z" fill="#ffcb9d"/><path d="m202.564 170.69-9.32-2.075-27.817 48.627c-1.011 1.767-.398 4.018 1.368 5.03l26.35 15.092c1.768 1.012 4.021.399 5.032-1.369l16.736-29.255.32-16.292z" fill="#ffcb9d"/><path d="m263.467 299.867v-.008c.005-3.387-4.177-4.987-6.435-2.463l-16.852 18.841c-1.249 1.396-1.252 3.507-.008 4.907l16.8 18.908c2.25 2.533 6.438.944 6.443-2.444l45.642.063c1.324.002 2.548-.707 3.205-1.856l20.509-35.852z" fill="#ffe9c8"/><path d="m179.373 299.782-18.584.006-20.199 18.941-2.121 18.807 18.584-.007z" fill="#ffba7e"/><path d="m193.244 168.615 21.67 38.124 9.32-16.292 4.261-17.403-25.916-20.696h-.029z" fill="#ffba7e"/><path d="m44.947 440.673s0 61.747 61.342 61.747c62.037 0 61.342-61.746 61.342-61.747-4.484-29.855-30.238-52.747-61.342-52.747s-56.858 22.892-61.342 52.747z" fill="#8c808a"/><path d="m483.691 29.441-3.937-9.657c-3.29-8.07-12.499-11.945-20.569-8.655l-54.458 22.203h-363.352c-8.025 0-14.651 5.991-15.65 13.744-.086.666-.13 1.346-.13 2.035l7.309 21.294 367.829-.004c8.6 0 17.118-1.669 25.082-4.916l50.764-20.693c8.07-3.289 7.112-15.351 7.112-15.351z" fill="#aee295"/><path d="m483.691 29.441c-1.688 2.501-4.108 4.547-7.112 5.772l-50.764 20.694c-7.964 3.246-16.482 4.916-25.082 4.916l-359.358.003c-8.024 0-14.635-5.994-15.634-13.747-.086.667-.146 1.343-.146 2.033v14.514c0 8.715 7.065 15.78 15.78 15.78l359.358-.004c8.6 0 17.118-1.669 25.082-4.916l50.764-20.693c8.07-3.29 11.945-12.5 8.654-20.569z" fill="#98db7c"/><path d="m106.289 493.419c-31.104 0-56.858-22.892-61.342-52.747-.455 3.031-.695 6.133-.695 9.29 0 34.262 27.775 62.037 62.037 62.037s62.037-27.775 62.037-62.037c0-3.158-.24-6.259-.695-9.29-4.484 29.855-30.238 52.747-61.342 52.747z" fill="#7b7179"/><path d="m83.532 440.673s0 24.289 22.757 24.289 22.757-24.289 22.757-24.289c-3.665-8.968-12.471-15.289-22.757-15.289s-19.092 6.321-22.757 15.289z" fill="#ffc265"/><path d="m106.289 455.962c-10.286 0-19.092-6.321-22.757-15.289-1.172 2.867-1.822 6.002-1.822 9.29 0 13.575 11.005 24.58 24.579 24.58 13.575 0 24.58-11.005 24.58-24.58 0-3.288-.651-6.424-1.822-9.29-3.666 8.968-12.471 15.289-22.758 15.289z" fill="#ffb541"/><g fill="#ffe9c8"><path d="m173.744 277.88.007.004c2.915 1.724 6.418-1.066 5.389-4.293l-7.674-24.085c-.569-1.785-2.385-2.859-4.223-2.499l-24.819 4.872c-3.325.652-4.083 5.067-1.166 6.791l-23.231 39.288c-.674 1.14-.685 2.554-.029 3.704l20.471 35.874z"/><path d="m236.811 212.574-.007.004c-2.945 1.674-2.264 6.099 1.048 6.81l24.714 5.307c1.831.393 3.666-.649 4.266-2.423l8.103-23.96c1.085-3.209-2.369-6.061-5.314-4.386l-22.554-39.681c-.654-1.151-1.876-1.863-3.2-1.865l-41.303-.057z"/></g></g></g></svg>