<svg id="Capa_1" enable-background="new 0 0 497 497" height="512" viewBox="0 0 497 497" width="512" xmlns="http://www.w3.org/2000/svg"><g><path d="m25.793 224.569c.937.524 1.294 1.694.808 2.651l-22.058 43.455c-6.42 12.643-6.012 27.677 1.078 39.956l68.338 118.356 32.159-100.097 22.626-44.433c.515-1.012 1.768-1.392 2.759-.838l20.507 11.478c3.375 1.889 7.291-1.407 6.006-5.055l-36.738-104.266c-1.8-5.109-7.196-8.007-12.45-6.685l-103.145 25.943c-3.682.926-4.337 5.878-1.022 7.73z" fill="#b3e59f"/><path d="m106.118 328.889 90.79 4.728c8.845.459 15.568 8.125 14.868 16.953l-6.872 86.646c-.674 8.494-7.988 14.907-16.497 14.466l-84.55-4.406c-12.431-.645-23.689-7.539-29.913-18.318-6.217-10.767-6.565-23.948-.926-35.029z" fill="#95d6a4"/><path d="m384.977 72.499c-.922.55-2.114.274-2.7-.626l-26.607-40.83c-7.74-11.881-20.965-19.044-35.144-19.044h-136.676l70.614 77.897 27.17 41.81c.619.952.322 2.228-.654 2.808l-20.194 12.019c-3.323 1.978-2.427 7.017 1.374 7.728l108.675 20.32c5.325.996 10.532-2.228 12.015-7.439l29.102-102.29c1.039-3.652-2.922-6.696-6.183-4.751z" fill="#b3e59f"/><path d="m254.464 89.896-49.49 76.256c-4.82 7.43-14.821 9.419-22.117 4.398l-71.607-49.274c-7.019-4.83-8.917-14.371-4.28-21.519l46.091-71.014c6.774-10.442 18.374-16.744 30.822-16.744 12.434 0 24.024 6.289 30.801 16.713z" fill="#95d6a4"/><path d="m330.807 456.773c.041-1.073.922-1.922 1.995-1.924l48.737-.076c14.181-.02 27.391-7.209 35.114-19.1l74.439-114.617-103.794 16.791-49.866.013c-1.135 0-2.043-.944-1.999-2.078l.917-23.481c.151-3.865-4.564-5.858-7.23-3.057l-76.231 80.068c-3.735 3.923-3.868 10.046-.305 14.127l69.945 80.117c2.497 2.861 7.207 1.196 7.352-2.599z" fill="#b3e59f"/><path d="m387.297 337.848-37.005-83.035c-3.607-8.088.172-17.558 8.357-20.943l80.328-33.213c7.874-3.256 16.91.349 20.38 8.131l34.46 77.329c5.069 11.368 4.037 24.529-2.743 34.967-6.772 10.427-18.359 16.722-30.793 16.728z" fill="#95d6a4"/></g></svg>