<svg id="Capa_1" enable-background="new 0 0 512 512" height="512" viewBox="0 0 512 512" width="512" xmlns="http://www.w3.org/2000/svg"><path d="m246.125 201.823-104.784-124.877-26.997 22.654 108.778 129.637z" fill="#6c7fd9"/><path d="m131.446 85.25-17.102 14.35 108.778 129.637 14.572-17.366z" fill="#4f66d1"/><path d="m283.794 285.72h48.765v34.942h-48.765z" fill="#fc2b3a" transform="matrix(.766 -.643 .643 .766 -122.788 269.026)"/><path d="m313.64 300.897 14.343-12.035-12.357-14.727-37.356 31.346 22.461 26.767 17.551-14.727-5.519-6.578c-2.534-3.017-2.14-7.515.877-10.046z" fill="#e61f2d"/><path d="m165.116 413.839c-1.518-4.836-.344-10.117 2.914-14l174.407-207.85c3.647-4.347 9.439-6.346 14.953-5.008 34.544 8.385 72.484-3.033 96.385-32.765 20.793-25.866 25.719-59.805 15.871-89.486-1.436-4.329-7.075-5.402-10.007-1.908l-50.845 60.594c-3.252 3.876-8.326 5.723-13.309 4.844l-30.026-5.294c-4.983-.879-9.119-4.349-10.849-9.104l-10.428-28.651c-1.731-4.755-.793-10.072 2.459-13.948l50.925-60.69c2.931-3.493.896-8.848-3.613-9.524-31.565-4.728-64.765 6.576-86.784 32.816-23.954 28.547-28.199 67.056-14.213 99.03 2.279 5.21 1.332 11.27-2.324 15.626l-174.41 207.856c-3.293 3.925-8.353 5.926-13.435 5.274-25.412-3.261-51.934 6.459-69.071 28.272-16.97 21.601-20.248 50.12-10.734 74.367 1.604 4.089 7.046 4.916 9.869 1.552l43.118-51.387c.871-1.038 2.229-1.532 3.563-1.297l26.75 4.717c1.334.235 2.441 1.164 2.905 2.437l9.29 25.524c.463 1.273.212 2.696-.658 3.734l-43.162 51.438c-2.824 3.365-1.06 8.571 3.244 9.453 26.277 5.385 54.597-3.435 73.049-25.425 17.196-20.493 21.628-47.436 14.166-71.197z" fill="#b4dbff"/><path d="m64.965 389.923c17.137-21.813 43.658-31.533 69.071-28.272 5.082.652 10.142-1.349 13.435-5.274l174.41-207.854c3.655-4.356 4.603-10.416 2.324-15.626-13.986-31.975-9.74-70.483 14.213-99.03 15.041-17.925 35.3-28.874 56.69-32.51-.366-.133-.746-.245-1.155-.306-31.565-4.728-64.765 6.576-86.784 32.816-23.954 28.547-28.199 67.056-14.213 99.03 2.279 5.21 1.331 11.27-2.324 15.626l-174.41 207.854c-3.294 3.925-8.353 5.926-13.435 5.274-25.412-3.261-51.934 6.459-69.071 28.272-16.97 21.601-20.248 50.12-10.734 74.367 1.604 4.089 7.046 4.916 9.869 1.552l16.717-19.922c-2.427-19.397 2.572-39.673 15.397-55.997z" fill="#8bcaff"/><path d="m315.706 236.9c-2.126-2.534-6.389-4.612-9.429-4.077l-60.233 71.783 8.8 10.29c3.171 3.779 8.804 4.272 12.583 1.101l60.437-50.712c3.779-3.171 4.272-8.804 1.101-12.583z" fill="#ff4755"/><path d="m315.706 236.9c-2.126-2.534-6.389-4.612-9.429-4.077l-60.233 71.783 8.8 10.29c3.171 3.779 8.804 4.272 12.583 1.101l60.437-50.712c3.779-3.171 4.272-8.804 1.101-12.583z" fill="#ff4755"/><path d="m276.429 268.396-30.384 36.211 8.8 10.29c3.171 3.779 8.804 4.272 12.583 1.101l28.076-23.558z" fill="#fc2b3a"/><path d="m339.556 298.352-41.594 34.901c-12.418 10.42-14.053 29.106-3.633 41.524l106.337 126.728c10.42 12.418 29.106 14.053 41.524 3.633l41.594-34.901c12.418-10.42 14.053-29.106 3.633-41.524l-106.337-126.728c-10.42-12.418-29.106-14.053-41.524-3.633z" fill="#ff8088"/><path d="m431.315 501.505-106.338-126.727c-10.42-12.418-8.785-31.104 3.633-41.524l41.594-34.901c1.152-.967 2.359-1.829 3.607-2.589-10.5-6.354-24.364-5.711-34.255 2.589l-41.594 34.901c-12.418 10.42-14.053 29.106-3.633 41.524l106.337 126.728c9.453 11.266 25.709 13.656 37.917 6.222-2.682-1.624-5.148-3.696-7.268-6.223z" fill="#ff4755"/><path d="m305.086 183.607c-14.366-12.054-35.9-10.261-47.854 3.985l-110.907 132.174c-11.954 14.246-9.98 35.764 4.386 47.818 14.366 12.054 35.9 10.261 47.854-3.984l110.907-132.174c11.954-14.246 9.98-35.764-4.386-47.819z" fill="#8bcaff"/><path d="m185.909 367.585c-14.366-12.054-16.339-33.573-4.386-47.818l110.907-132.174c2.418-2.881 5.232-5.244 8.294-7.095-14.087-8.477-32.696-5.772-43.492 7.095l-110.907 132.173c-11.954 14.246-9.98 35.764 4.386 47.818 11.46 9.616 27.478 10.411 39.559 3.11-1.51-.908-2.97-1.942-4.361-3.109z" fill="#60b8ff"/><path d="m171.871 342.659c-3.269-2.742-3.695-7.616-.952-10.885l102.109-121.688c2.742-3.27 7.616-3.696 10.885-.952 3.269 2.742 3.695 7.616.952 10.885l-102.109 121.687c-2.729 3.253-7.601 3.708-10.885.953z" fill="#b4dbff"/><path d="m94.157 20.57-28.124 23.599c-2.66 2.232-3.007 6.197-.775 8.857l24.357 29.028 37.756-31.681-24.357-29.028c-2.232-2.66-6.197-3.007-8.857-.775z" fill="#6c7fd9"/><path d="m85.377 36.144c-2.232-2.66-3.034-5.661-1.792-6.703l-17.552 14.728c-2.66 2.232-3.007 6.197-.775 8.857l24.357 29.028 20.119-16.882z" fill="#4f66d1"/><path d="m89.615 82.054 24.744 17.571 26.998-22.654-13.986-26.598z" fill="#4f66d1"/><path d="m109.838 65.085-20.223 16.969 24.744 17.571 17.169-14.406z" fill="#314dca"/><path d="m327.882 308.147-18.246 15.31c-5.448 4.571-1.379 18.471 9.041 30.89l106.337 126.728c10.42 12.418 23.403 18.839 28.85 14.267l18.246-15.31c5.448-4.571 1.379-18.471-9.041-30.89l-106.336-126.727c-10.42-12.418-23.403-18.839-28.851-14.268z" fill="#ff4755"/><path d="m455.883 481.075-106.338-126.727c-10.42-12.418-14.488-26.319-9.041-30.89l9.487-7.961c-8.752-7.69-17.794-10.97-22.11-7.35l-18.246 15.31c-5.448 4.571-1.379 18.471 9.041 30.89l106.337 126.728c10.42 12.418 23.403 18.839 28.85 14.267l8.759-7.349c-2.296-2.018-4.573-4.336-6.739-6.918z" fill="#fc2b3a"/></svg>