<?xml version="1.0" encoding="UTF-8" standalone="no"?>
<!-- Created with Inkscape (http://www.inkscape.org/) -->

<svg
   version="1.1"
   id="svg5268"
   xml:space="preserve"
   width="682.66669"
   height="682.66669"
   viewBox="0 0 682.66669 682.66669"
   xmlns="http://www.w3.org/2000/svg"
   xmlns:svg="http://www.w3.org/2000/svg"><defs
     id="defs5272"><clipPath
       clipPathUnits="userSpaceOnUse"
       id="clipPath5294"><path
         d="M 0,512 H 512 V 0 H 0 Z"
         id="path5292" /></clipPath></defs><g
     id="g5274"
     transform="matrix(1.3333333,0,0,-1.3333333,0,682.66667)"><g
       id="g5276"
       transform="translate(246.4809,308.5894)"><path
         d="M 0,0 -101.714,121.219 -127.92,99.229 -22.329,-26.61 Z"
         style="fill:#6c7fd9;fill-opacity:1;fill-rule:nonzero;stroke:none"
         id="path5278" /></g><g
       id="g5280"
       transform="translate(135.1611,421.7481)"><path
         d="m 0,0 -16.601,-13.93 105.592,-125.839 14.145,16.856 z"
         style="fill:#4f66d1;fill-opacity:1;fill-rule:nonzero;stroke:none"
         id="path5282" /></g><g
       id="g5284"
       transform="translate(277.6831,207.9693)"><path
         d="M 0,0 21.802,-25.983 58.063,4.444 36.262,30.427 Z"
         style="fill:#fc2b3a;fill-opacity:1;fill-rule:nonzero;stroke:none"
         id="path5286" /></g><g
       id="g5288"><g
         id="g5290"
         clip-path="url(#clipPath5294)"><g
           id="g5296"
           transform="translate(312.0171,212.4185)"><path
             d="M 0,0 13.923,11.683 1.928,25.978 -34.334,-4.449 -12.532,-30.433 4.505,-16.137 -0.853,-9.752 C -3.31,-6.823 -2.928,-2.458 0,0"
             style="fill:#e61f2d;fill-opacity:1;fill-rule:nonzero;stroke:none"
             id="path5298" /></g><g
           id="g5300"
           transform="translate(167.8452,102.7852)"><path
             d="m 0,0 c -1.474,4.694 -0.334,9.821 2.828,13.59 l 169.298,201.761 c 3.541,4.22 9.162,6.16 14.516,4.861 33.531,-8.139 70.36,2.944 93.56,31.806 20.185,25.108 24.966,58.053 15.406,86.863 -1.394,4.202 -6.868,5.244 -9.713,1.852 l -49.356,-58.819 c -3.157,-3.763 -8.081,-5.555 -12.919,-4.702 l -29.146,5.14 c -4.837,0.852 -8.852,4.221 -10.532,8.836 L 173.819,319 c -1.679,4.616 -0.769,9.776 2.388,13.539 l 49.434,58.913 c 2.844,3.39 0.87,8.589 -3.508,9.244 -30.64,4.59 -62.867,-6.383 -84.241,-31.855 -23.252,-27.71 -27.373,-65.091 -13.797,-96.129 2.212,-5.057 1.293,-10.94 -2.256,-15.168 L -47.461,55.779 c -3.197,-3.81 -8.109,-5.753 -13.042,-5.12 -24.668,3.166 -50.413,-6.269 -67.047,-27.443 -16.473,-20.968 -19.655,-48.652 -10.42,-72.189 1.557,-3.968 6.84,-4.772 9.58,-1.506 l 41.855,49.881 c 0.846,1.008 2.164,1.488 3.459,1.259 l 25.966,-4.578 c 1.295,-0.229 2.37,-1.13 2.819,-2.366 l 9.019,-24.777 c 0.449,-1.235 0.206,-2.617 -0.64,-3.625 l -41.897,-49.931 c -2.741,-3.266 -1.029,-8.32 3.149,-9.176 25.507,-5.227 52.997,3.334 70.909,24.68 C 2.941,-49.219 7.243,-23.065 0,0"
             style="fill:#b4dbff;fill-opacity:1;fill-rule:nonzero;stroke:none"
             id="path5302" /></g><g
           id="g5304"
           transform="translate(70.6284,126.001)"><path
             d="m 0,0 c 16.634,21.174 42.379,30.609 67.047,27.444 4.933,-0.633 9.845,1.309 13.041,5.119 L 249.39,234.328 c 3.547,4.229 4.467,10.111 2.255,15.168 -13.576,31.038 -9.456,68.419 13.796,96.129 14.601,17.4 34.267,28.029 55.031,31.559 -0.356,0.129 -0.725,0.237 -1.122,0.296 -30.64,4.59 -62.868,-6.383 -84.242,-31.855 -23.252,-27.71 -27.373,-65.091 -13.796,-96.129 2.211,-5.057 1.292,-10.939 -2.256,-15.168 L 49.755,32.563 C 46.558,28.753 41.647,26.811 36.714,27.444 12.046,30.609 -13.699,21.174 -30.333,0 c -16.473,-20.968 -19.655,-48.652 -10.42,-72.188 1.557,-3.969 6.839,-4.772 9.58,-1.506 l 16.227,19.338 C -17.302,-35.528 -12.449,-15.847 0,0"
             style="fill:#8bcaff;fill-opacity:1;fill-rule:nonzero;stroke:none"
             id="path5306" /></g><g
           id="g5308"
           transform="translate(314.0239,274.5401)"><path
             d="m 0,0 c -2.064,2.459 -6.202,4.477 -9.152,3.958 l -58.469,-69.681 8.542,-9.988 c 3.078,-3.668 8.547,-4.146 12.215,-1.069 l 58.666,49.227 c 3.668,3.078 4.146,8.546 1.068,12.214 z"
             style="fill:#ff4755;fill-opacity:1;fill-rule:nonzero;stroke:none"
             id="path5310" /></g><g
           id="g5312"
           transform="translate(314.0239,274.5401)"><path
             d="m 0,0 c -2.064,2.459 -6.202,4.477 -9.152,3.958 l -58.469,-69.681 8.542,-9.988 c 3.078,-3.668 8.547,-4.146 12.215,-1.069 l 58.666,49.227 c 3.668,3.078 4.146,8.546 1.068,12.214 z"
             style="fill:#ff4755;fill-opacity:1;fill-rule:nonzero;stroke:none"
             id="path5314" /></g><g
           id="g5316"
           transform="translate(275.8969,243.9673)"><path
             d="m 0,0 -29.494,-35.15 8.542,-9.989 c 3.078,-3.668 8.547,-4.146 12.215,-1.068 l 27.253,22.868 z"
             style="fill:#fc2b3a;fill-opacity:1;fill-rule:nonzero;stroke:none"
             id="path5318" /></g><g
           id="g5320"
           transform="translate(337.1743,214.8887)"><path
             d="M 0,0 -40.375,-33.879 C -52.43,-43.994 -54.017,-62.132 -43.901,-74.187 L 59.32,-197.202 c 10.116,-12.054 28.254,-13.641 40.308,-3.526 l 40.376,33.879 c 12.054,10.115 13.641,28.253 3.526,40.308 L 40.308,-3.526 C 30.193,8.528 12.055,10.115 0,0"
             style="fill:#ff8088;fill-opacity:1;fill-rule:nonzero;stroke:none"
             id="path5322" /></g><g
           id="g5324"
           transform="translate(426.2446,17.687)"><path
             d="m 0,0 -103.222,123.015 c -10.115,12.055 -8.528,30.193 3.527,40.308 l 40.375,33.879 c 1.119,0.938 2.29,1.775 3.502,2.513 -10.193,6.168 -23.651,5.543 -33.252,-2.513 l -40.375,-33.879 c -12.055,-10.115 -13.642,-28.253 -3.527,-40.308 L -29.75,0 C -20.573,-10.936 -4.794,-13.256 7.057,-6.04 4.452,-4.464 2.059,-2.453 0,0"
             style="fill:#ff4755;fill-opacity:1;fill-rule:nonzero;stroke:none"
             id="path5326" /></g><g
           id="g5328"
           transform="translate(303.7143,326.2715)"><path
             d="m 0,0 v 0 c -13.944,11.702 -34.848,9.961 -46.451,-3.868 l -107.658,-128.301 c -11.604,-13.829 -9.688,-34.717 4.257,-46.418 13.945,-11.701 34.848,-9.961 46.452,3.868 L 4.258,-46.417 C 15.861,-32.589 13.945,-11.701 0,0"
             style="fill:#8bcaff;fill-opacity:1;fill-rule:nonzero;stroke:none"
             id="path5330" /></g><g
           id="g5332"
           transform="translate(188.0288,147.6846)"><path
             d="m 0,0 v 0 c -13.945,11.701 -15.86,32.589 -4.257,46.417 l 107.658,128.302 c 2.347,2.797 5.078,5.091 8.051,6.887 -13.674,8.228 -31.738,5.602 -42.218,-6.887 L -38.424,46.417 C -50.027,32.589 -48.111,11.701 -34.167,0 -23.042,-9.335 -7.493,-10.106 4.234,-3.019 2.768,-2.137 1.351,-1.133 0,0"
             style="fill:#60b8ff;fill-opacity:1;fill-rule:nonzero;stroke:none"
             id="path5334" /></g><g
           id="g5336"
           transform="translate(98.9653,484.5327)"><path
             d="m 0,0 -27.301,-22.908 c -2.581,-2.166 -2.918,-6.015 -0.752,-8.597 L -4.409,-59.683 32.241,-28.93 8.597,-0.752 C 6.431,1.83 2.582,2.167 0,0"
             style="fill:#6c7fd9;fill-opacity:1;fill-rule:nonzero;stroke:none"
             id="path5338" /></g><g
           id="g5340"
           transform="translate(90.4424,469.4151)"><path
             d="M 0,0 C -2.167,2.582 -2.945,5.495 -1.739,6.507 L -18.778,-7.79 c -2.581,-2.167 -2.918,-6.016 -0.752,-8.597 l 23.644,-28.178 19.53,16.387 z"
             style="fill:#4f66d1;fill-opacity:1;fill-rule:nonzero;stroke:none"
             id="path5342" /></g><g
           id="g5344"
           transform="translate(94.5566,424.8501)"><path
             d="M 0,0 24.019,-17.056 50.225,4.934 36.649,30.753 Z"
             style="fill:#4f66d1;fill-opacity:1;fill-rule:nonzero;stroke:none"
             id="path5346" /></g><g
           id="g5348"
           transform="translate(114.1865,441.3213)"><path
             d="M 0,0 -19.63,-16.471 4.389,-33.527 21.055,-19.543 Z"
             style="fill:#314dca;fill-opacity:1;fill-rule:nonzero;stroke:none"
             id="path5350" /></g><g
           id="g5352"
           transform="translate(325.8432,205.3804)"><path
             d="m 0,0 -17.712,-14.862 c -5.288,-4.437 -1.339,-17.93 8.775,-29.985 L 94.286,-167.862 c 10.114,-12.055 22.717,-18.286 28.005,-13.849 l 17.712,14.861 c 5.288,4.438 1.339,17.931 -8.776,29.985 L 28.005,-13.85 C 17.89,-1.795 5.288,4.437 0,0"
             style="fill:#ff4755;fill-opacity:1;fill-rule:nonzero;stroke:none"
             id="path5354" /></g><g
           id="g5356"
           transform="translate(450.0932,37.5186)"><path
             d="m 0,0 -103.222,123.015 c -10.115,12.055 -14.064,25.547 -8.776,29.985 l 9.21,7.728 c -8.496,7.464 -17.274,10.648 -21.462,7.134 L -141.962,153 c -5.288,-4.438 -1.339,-17.93 8.776,-29.985 L -29.964,0 c 10.114,-12.055 22.717,-18.287 28.005,-13.85 l 8.502,7.135 C 4.313,-4.756 2.103,-2.506 0,0"
             style="fill:#fc2b3a;fill-opacity:1;fill-rule:nonzero;stroke:none"
             id="path5358" /></g><g
           id="g5360"
           transform="translate(99.3393,484.9566)"><path
             d="m 0,0 -27.283,-22.893 c -2.58,-2.165 -2.916,-6.012 -0.751,-8.592 L -4.406,-59.644 32.22,-28.911 8.592,-0.752 C 6.427,1.828 2.58,2.165 0,0 Z"
             style="fill:none;stroke:#000000;stroke-width:15;stroke-linecap:round;stroke-linejoin:round;stroke-miterlimit:10;stroke-dasharray:none;stroke-opacity:1"
             id="path5362" /></g><g
           id="g5364"
           transform="translate(94.9336,425.3125)"><path
             d="M 0,0 24.003,-17.045 50.193,4.93 36.626,30.733 Z"
             style="fill:none;stroke:#000000;stroke-width:15;stroke-linecap:round;stroke-linejoin:round;stroke-miterlimit:10;stroke-dasharray:none;stroke-opacity:1"
             id="path5366" /></g><g
           id="g5368"
           transform="translate(246.3003,308.7051)"><path
             d="M 0,0 -101.648,121.14 -127.838,99.164 -22.314,-26.594 Z"
             style="fill:none;stroke:#000000;stroke-width:15;stroke-linecap:round;stroke-linejoin:round;stroke-miterlimit:10;stroke-dasharray:none;stroke-opacity:1"
             id="path5370" /></g><g
           id="g5372"
           transform="translate(313.9575,274.5401)"><path
             d="m 0,0 c -2.064,2.459 -5.202,3.477 -8.152,2.958 l -58.469,-69.681 7.543,-8.988 c 3.077,-3.668 8.546,-4.146 12.214,-1.069 l 58.666,49.227 c 3.668,3.078 4.146,8.546 1.068,12.214 z"
             style="fill:none;stroke:#000000;stroke-width:15;stroke-linecap:round;stroke-linejoin:round;stroke-miterlimit:10;stroke-dasharray:none;stroke-opacity:1"
             id="path5374" /></g><g
           id="g5376"
           transform="translate(337.1079,214.8887)"><path
             d="M 0,0 -40.375,-33.879 C -52.43,-43.994 -54.016,-62.132 -43.901,-74.187 L 59.321,-197.202 c 10.115,-12.054 28.253,-13.641 40.308,-3.526 l 40.375,33.879 c 12.055,10.115 13.641,28.253 3.526,40.308 L 40.309,-3.526 C 30.193,8.528 12.055,10.115 0,0 Z"
             style="fill:none;stroke:#000000;stroke-width:15;stroke-linecap:round;stroke-linejoin:round;stroke-miterlimit:10;stroke-dasharray:none;stroke-opacity:1"
             id="path5378" /></g><g
           id="g5380"
           transform="translate(278.2954,207.1602)"><path
             d="M 0,0 20.494,-24.424 56.756,6.003 36.262,30.427 Z"
             style="fill:none;stroke:#000000;stroke-width:15;stroke-linecap:round;stroke-linejoin:round;stroke-miterlimit:10;stroke-dasharray:none;stroke-opacity:1"
             id="path5382" /></g><g
           id="g5384"
           transform="translate(303.437,325.7364)"><path
             d="m 0,0 v 0 c -13.829,11.604 -34.637,9.783 -46.24,-4.045 l -107.658,-128.303 c -11.603,-13.828 -9.783,-34.636 4.045,-46.239 v 0 c 13.829,-11.604 34.637,-9.783 46.24,4.045 L 4.045,-46.24 C 15.648,-32.412 13.828,-11.604 0,0 Z"
             style="fill:none;stroke:#000000;stroke-width:15;stroke-linecap:round;stroke-linejoin:round;stroke-miterlimit:10;stroke-dasharray:none;stroke-opacity:1"
             id="path5386" /></g><g
           id="g5388"
           transform="translate(278.2739,295.7481)"><path
             d="M 0,0 -99.117,-118.123"
             style="fill:none;stroke:#000000;stroke-width:15;stroke-linecap:round;stroke-linejoin:round;stroke-miterlimit:10;stroke-dasharray:none;stroke-opacity:1"
             id="path5390" /></g><g
           id="g5392"
           transform="translate(453.3208,362.1685)"><path
             d="M 0,0 C 15.622,23.972 18.717,53.427 10.066,79.498 8.673,83.7 3.198,84.742 0.353,81.35 L -49.002,22.531 c -3.157,-3.762 -8.082,-5.555 -12.919,-4.702 l -29.147,5.139 c -4.837,0.853 -8.852,4.221 -10.532,8.837 l -10.122,27.812 c -1.68,4.615 -0.77,9.777 2.387,13.539 l 49.434,58.912 c 2.844,3.391 0.87,8.589 -3.508,9.245 -30.64,4.589 -62.867,-6.383 -84.241,-31.855 -23.252,-27.711 -27.373,-65.091 -13.797,-96.129 2.212,-5.058 1.293,-10.94 -2.255,-15.168 l -169.301,-201.765 c -3.197,-3.81 -8.109,-5.753 -13.042,-5.12 -24.668,3.165 -50.413,-6.269 -67.047,-27.443 -16.473,-20.969 -19.655,-48.652 -10.42,-72.189 1.557,-3.969 6.84,-4.772 9.58,-1.506 l 41.856,49.881 c 0.845,1.007 2.163,1.487 3.458,1.259 l 25.967,-4.579 c 1.295,-0.228 2.369,-1.13 2.819,-2.366 l 9.018,-24.776 c 0.45,-1.236 0.206,-2.618 -0.639,-3.624 l -41.898,-49.932 c -2.741,-3.267 -1.029,-8.32 3.149,-9.176 25.507,-5.227 52.997,3.334 70.909,24.68 16.692,19.893 20.994,46.047 13.751,69.112 -1.474,4.694 -0.334,9.821 2.829,13.59 l 169.297,201.761 c 3.541,4.219 9.163,6.16 14.516,4.861 25.39,-6.163 52.667,-1.295 74.49,13.958"
             style="fill:none;stroke:#000000;stroke-width:15;stroke-linecap:round;stroke-linejoin:round;stroke-miterlimit:10;stroke-dasharray:none;stroke-opacity:1"
             id="path5394" /></g><g
           id="g5396"
           transform="translate(392.4028,145.5044)"><path
             d="m 0,0 -38.621,46.026 c -10.114,12.055 -22.717,18.287 -28.005,13.85 L -84.338,45.014 c -5.288,-4.437 -1.339,-17.93 8.776,-29.985 L 27.66,-107.986 c 10.115,-12.055 22.717,-18.286 28.005,-13.849 l 17.712,14.861 c 5.288,4.438 1.339,17.931 -8.776,29.985 l -42.055,50.12"
             style="fill:none;stroke:#000000;stroke-width:15;stroke-linecap:round;stroke-linejoin:round;stroke-miterlimit:10;stroke-dasharray:none;stroke-opacity:1"
             id="path5398" /></g></g></g></g></svg>
