<?xml version="1.0" encoding="iso-8859-1"?>
<!-- Generator: Adobe Illustrator 19.0.0, SVG Export Plug-In . SVG Version: 6.00 Build 0)  -->
<svg xmlns="http://www.w3.org/2000/svg" xmlns:xlink="http://www.w3.org/1999/xlink" version="1.1" id="Layer_1" x="0px" y="0px" viewBox="0 0 512.001 512.001" style="enable-background:new 0 0 512.001 512.001;" xml:space="preserve">
<path style="fill:#FF5357;" d="M288.71,215.085h-58.395c-3.3,0-5.975,2.674-5.975,5.973v29.454c0,3.3,2.675,5.973,5.975,5.973  h58.395c3.3,0,5.973-2.673,5.973-5.973v-29.454C294.683,217.76,292.01,215.085,288.71,215.085z"/>
<path style="fill:#F7A539;" d="M218.369,215.085h-58.397c-3.298,0-5.973,2.674-5.973,5.973v29.454c0,3.3,2.675,5.973,5.973,5.973  h58.397c3.298,0,5.971-2.673,5.971-5.973v-29.454C224.34,217.76,221.666,215.085,218.369,215.085z"/>
<path style="fill:#55CDEF;" d="M254.012,173.684h-58.397c-3.298,0-5.971,2.675-5.971,5.975v29.454c0,3.3,2.673,5.973,5.971,5.973  h58.397c3.298,0,5.973-2.673,5.973-5.973v-29.454C259.985,176.359,257.31,173.684,254.012,173.684z"/>
<path style="fill:#4ABF69;" d="M359.051,215.085h-58.396c-3.3,0-5.973,2.674-5.973,5.973v29.454c0,3.3,2.673,5.973,5.973,5.973  h58.396c3.3,0,5.973-2.673,5.973-5.973v-29.454C365.024,217.76,362.351,215.085,359.051,215.085z"/>
<path style="fill:#F7A539;" d="M324.353,173.684h-58.397c-3.298,0-5.971,2.675-5.971,5.975v29.454c0,3.3,2.673,5.973,5.971,5.973  h58.397c3.298,0,5.973-2.673,5.973-5.973v-29.454C330.326,176.359,327.651,173.684,324.353,173.684z"/>
<path style="fill:#FF5357;" d="M289.182,132.284h-58.396c-3.298,0-5.973,2.674-5.973,5.973v29.454c0,3.3,2.675,5.973,5.973,5.973  h58.396c3.3,0,5.973-2.673,5.973-5.973v-29.454C295.155,134.958,292.481,132.284,289.182,132.284z"/>
<path style="fill:#ED242E;" d="M259.561,247.66v-29.454c0-3.299,2.675-5.973,5.975-5.973h-32.534c-3.3,0-5.975,2.674-5.975,5.973  v29.454c0,3.3,2.675,5.973,5.975,5.973h32.534C262.236,253.633,259.561,250.96,259.561,247.66z"/>
<path style="fill:#F77D39;" d="M189.22,247.66v-29.454c0-3.299,2.675-5.973,5.973-5.973h-32.534c-3.298,0-5.973,2.674-5.973,5.973  v29.454c0,3.3,2.675,5.973,5.973,5.973h32.534C191.895,253.633,189.22,250.96,189.22,247.66z"/>
<path style="fill:#3EBEDB;" d="M224.865,206.262v-29.454c0-3.3,2.673-5.975,5.971-5.975h-32.534c-3.298,0-5.971,2.675-5.971,5.975  v29.454c0,3.3,2.673,5.973,5.971,5.973h32.534C227.539,212.234,224.865,209.56,224.865,206.262z"/>
<path style="fill:#35AF52;" d="M329.904,247.66v-29.454c0-3.299,2.673-5.973,5.973-5.973h-32.534c-3.3,0-5.973,2.674-5.973,5.973  v29.454c0,3.3,2.673,5.973,5.973,5.973h32.534C332.578,253.633,329.904,250.96,329.904,247.66z"/>
<path style="fill:#F77D39;" d="M295.207,206.262v-29.454c0-3.3,2.673-5.975,5.971-5.975h-32.534c-3.298,0-5.971,2.675-5.971,5.975  v29.454c0,3.3,2.673,5.973,5.971,5.973h32.534C297.88,212.234,295.207,209.56,295.207,206.262z"/>
<path style="fill:#ED242E;" d="M260.035,164.86v-29.454c0-3.299,2.675-5.973,5.973-5.973h-32.534c-3.298,0-5.973,2.674-5.973,5.973  v29.454c0,3.3,2.675,5.973,5.973,5.973h32.534C262.71,170.833,260.035,168.159,260.035,164.86z"/>
<path style="fill:#E6E9ED;" d="M81.645,162.735h46.55c0.897-0.642,1.487-1.683,1.487-2.87V92.957c0-1.954-1.586-3.536-3.538-3.536  H83.698c-1.953,0-3.536,1.582-3.536,3.536v66.908C80.162,161.052,80.749,162.093,81.645,162.735z"/>
<path style="fill:#C4C8CE;" d="M105.385,176.132v-15.536v-51.373V93.688c0-1.954,1.583-3.536,3.536-3.536H84.161  c-1.953,0-3.536,1.582-3.536,3.536v15.536v51.373v15.536c0,1.187,0.587,2.227,1.483,2.87h24.759  C105.973,178.36,105.385,177.319,105.385,176.132z"/>
<path style="fill:#5B5E5E;" d="M126.143,89.421H83.698c-1.953,0-3.536,1.582-3.536,3.536v27.535h49.519V92.957  C129.681,91.005,128.095,89.421,126.143,89.421z"/>
<path style="fill:#E6E9ED;" d="M153.999,256.485v-79.87c0-7.665-6.213-13.879-13.88-13.879H69.665  c-7.664,0-13.878,6.213-13.878,13.879v79.87H153.999z"/>
<path style="fill:#434444;" d="M108.921,90.152H84.161c-1.953,0-3.536,1.582-3.536,3.536v27.535h24.759V93.688  C105.385,91.735,106.969,90.152,108.921,90.152z"/>
<path style="fill:#C4C8CE;" d="M98.126,163.466H77.387c-7.664,0-13.878,6.213-13.878,13.879v79.87h20.739v-79.87  C84.249,169.68,90.463,163.466,98.126,163.466z"/>
<path style="fill:#434444;" d="M437.722,327.182l58.56-79.864c17.324-23.391,2.193-27.816-7.21-28.503h-24.198h-24.887h-9.847  h-32.775h-3.404l-27.241,37.883H25.981l35.54,74.151c0,0,13.579,28.272,78.76-7.844c0,0,52.8,41.646,105.999,0  c0,0,59.257,39.237,106.003-2.934C352.283,320.072,398.993,361.944,437.722,327.182z"/>
<path style="fill:#333535;" d="M107.248,340.194c-9.069-2.428-12.609-7.655-13.362-8.951c-0.083-0.142-0.16-0.288-0.232-0.437  L62.438,265.68c-0.925-1.928-0.793-4.195,0.345-6.004s3.127-2.907,5.266-2.907h-2.074h-20.25h-2.074  c-2.139,0-4.126,1.098-5.266,2.907c-1.139,1.809-1.27,4.076-0.345,6.004l31.216,65.127c0.072,0.148,0.148,0.294,0.232,0.437  c0.989,1.704,6.784,10.204,23.632,10.204c0.246,0,0.504-0.018,0.754-0.021c0.433,0.011,0.871,0.021,1.32,0.021  C98.942,341.447,102.967,341.023,107.248,340.194z"/>
<path style="fill:#5B5E5E;" d="M501.555,225.834c-2.286-4.984-8.904-6.519-14.054-6.93c-0.165-0.013-0.329-0.02-0.496-0.02H395.32  c-2.003,0-3.882,0.963-5.051,2.589l-25.38,35.294H212.446c14.329,35.026,40.503,63.948,73.549,81.779  c4.465,0.706,9.13,1.128,13.918,1.128c19.167,0,36.17-6.572,50.539-19.534l0.01,0.01c0.235,0.209,23.742,20.895,50.673,20.899  c12.636,0,24.154-4.487,34.236-13.336c0.338-0.299,0.645-0.633,0.911-0.997l58.151-79.306  C501.408,237.999,503.805,230.739,501.555,225.834z"/>
<g>
	<path style="fill:#231F20;" d="M510.453,222.522c-2.154-4.693-7.513-10.492-20.814-11.463c-0.189-0.013-0.376-0.021-0.566-0.021   h-24.198c-4.296,0-7.777,3.482-7.777,7.777s3.481,7.777,7.777,7.777h23.9c5.042,0.411,7.258,1.797,7.541,2.416   c0.411,0.893,0.08,5.091-6.304,13.711l-58.56,79.864c-0.541,0.738-0.925,1.542-1.173,2.372c-1.382,1.091-2.721,2.263-3.996,3.537   c-0.001,0.001-0.003,0.003-0.004,0.004c-5.615,5.613-13.073,8.704-20.997,8.704c-7.926,0-15.381-3.091-20.996-8.704   c-0.001-0.001-0.002-0.003-0.003-0.004c-17.645-17.645-46.355-17.645-64,0c-0.001,0.001-0.002,0.003-0.004,0.004   c-5.616,5.613-13.073,8.704-20.997,8.704c-7.925,0-15.381-3.091-20.995-8.704c-0.001-0.001-0.002-0.003-0.004-0.004   c-8.553-8.553-19.918-13.264-32.001-13.264c-12.077,0-23.436,4.707-31.987,13.252c-0.004,0.004-0.008,0.007-0.011,0.01   c-5.615,5.616-13.073,8.708-21.001,8.708c-7.925,0-15.382-3.091-20.996-8.704c-0.001-0.001-0.002-0.003-0.004-0.004   c-17.645-17.645-46.355-17.645-64,0c-5.615,5.616-13.073,8.708-21.001,8.708c-6.584,0-12.84-2.139-17.989-6.08   c0.044-1.215-0.194-2.46-0.756-3.632l-30.201-63.012h328.387c2.503,0,4.853-1.205,6.314-3.237l24.913-34.647h42.04   c4.296,0,7.777-3.482,7.777-7.777c0-4.295-3.481-7.777-7.777-7.777h-46.028c-2.503,0-4.853,1.205-6.314,3.237L372.8,234.918   v-13.862c0-7.582-6.168-13.75-13.75-13.75h-20.948v-27.65c0-7.583-6.168-13.752-13.75-13.752h-21.422v-27.65   c0-7.582-6.168-13.75-13.75-13.75h-58.395c-7.582,0-13.75,6.168-13.75,13.75v27.65h-21.422c-7.581,0-13.748,6.169-13.748,13.752   v27.65h-20.091v-30.694c0-11.941-9.715-21.656-21.657-21.656h-2.661V92.957c0-6.238-5.077-11.313-11.315-11.313H83.698   c-6.238,0-11.313,5.075-11.313,11.313v62.001h-2.72c-11.941,0-21.655,9.715-21.655,21.656v72.307H25.981   c-2.672,0-5.158,1.372-6.582,3.633c-1.424,2.262-1.587,5.096-0.432,7.506l27.221,56.794c-15.152-4.107-32.035-0.236-43.909,11.637   c-3.037,3.037-3.037,7.962,0,10.998c3.038,3.037,7.962,3.037,10.999,0c11.579-11.58,30.422-11.58,42.001,0   c0.003,0.003,0.007,0.006,0.01,0.009c8.552,8.548,19.912,13.255,31.99,13.254c12.082,0,23.447-4.711,32-13.265   c11.579-11.58,30.422-11.58,42.001,0c0.003,0.003,0.007,0.006,0.01,0.009c8.552,8.548,19.911,13.255,31.989,13.254   c12.082,0,23.447-4.711,32-13.265c0.001-0.001,0.002-0.002,0.003-0.004c5.614-5.613,13.07-8.703,20.996-8.703   c7.929,0,15.387,3.092,21.002,8.707c0.003,0.003,0.007,0.006,0.01,0.009c8.552,8.548,19.912,13.255,31.988,13.254   c12.077,0,23.437-4.708,31.99-13.254c0.003-0.003,0.007-0.006,0.01-0.009c11.579-11.58,30.422-11.58,42.001,0   c0.003,0.003,0.007,0.006,0.01,0.009c8.552,8.548,19.911,13.255,31.988,13.254c12.077,0,23.437-4.708,31.99-13.254   c0.003-0.003,0.007-0.006,0.01-0.009c11.579-11.58,30.422-11.58,42.001,0c1.519,1.518,3.51,2.278,5.5,2.278s3.981-0.759,5.5-2.278   c3.037-3.037,3.037-7.962,0-10.998c-9.384-9.384-21.899-13.776-34.213-13.179l46.463-63.366   C511.432,239.931,514.024,230.306,510.453,222.522z M232.117,222.862h21.895h11.944h20.95v25.845h-54.789L232.117,222.862   L232.117,222.862z M357.247,248.708H302.46v-25.845h21.893h32.893V248.708z M322.549,207.308h-21.893H288.71h-20.948v-25.847   h21.419h33.367L322.549,207.308L322.549,207.308z M232.591,140.061h54.787v25.845h-21.422h-11.944h-21.422V140.061z    M197.421,181.461h33.365h21.422v25.847h-21.893h-11.946h-20.948L197.421,181.461L197.421,181.461z M195.615,222.862h20.948v25.845   h-54.787v-25.845H195.615z M87.939,128.27h33.965v26.688H87.939V128.27z M121.904,97.198v15.517H87.939V97.198H121.904z    M63.564,176.614c0-3.364,2.737-6.101,6.1-6.101h11.98h5h37.883h3.666h11.925c3.365,0,6.102,2.738,6.102,6.101v44.443v27.65H63.564   V176.614z"/>
	<path style="fill:#231F20;" d="M129.681,215.938H80.162c-4.296,0-7.777,3.482-7.777,7.777c0,4.295,3.481,7.777,7.777,7.777h49.519   c4.296,0,7.777-3.482,7.777-7.777C137.458,219.42,133.976,215.938,129.681,215.938z"/>
	<path style="fill:#231F20;" d="M129.681,187.316H80.162c-4.296,0-7.777,3.482-7.777,7.777c0,4.295,3.481,7.777,7.777,7.777h49.519   c4.296,0,7.777-3.482,7.777-7.777C137.458,190.799,133.976,187.316,129.681,187.316z"/>
	<path style="fill:#231F20;" d="M104.921,284.433c-4.296,0-7.777,3.482-7.777,7.777s3.481,7.777,7.777,7.777h6.726   c4.296,0,7.777-3.482,7.777-7.777s-3.481-7.777-7.777-7.777H104.921z"/>
	<path style="fill:#231F20;" d="M160.53,284.433c-4.296,0-7.777,3.482-7.777,7.777s3.481,7.777,7.777,7.777h6.726   c4.296,0,7.777-3.482,7.777-7.777s-3.481-7.777-7.777-7.777H160.53z"/>
	<path style="fill:#231F20;" d="M216.142,284.433c-4.296,0-7.777,3.482-7.777,7.777s3.481,7.777,7.777,7.777h6.726   c4.296,0,7.777-3.482,7.777-7.777s-3.481-7.777-7.777-7.777H216.142z"/>
	<path style="fill:#231F20;" d="M271.753,284.433c-4.296,0-7.777,3.482-7.777,7.777s3.481,7.777,7.777,7.777h6.726   c4.296,0,7.777-3.482,7.777-7.777s-3.481-7.777-7.777-7.777H271.753z"/>
	<path style="fill:#231F20;" d="M327.364,284.433c-4.296,0-7.777,3.482-7.777,7.777s3.481,7.777,7.777,7.777h6.726   c4.296,0,7.777-3.482,7.777-7.777s-3.481-7.777-7.777-7.777H327.364z"/>
	<path style="fill:#231F20;" d="M426.283,406.096c-0.001,0.001-0.002,0.002-0.003,0.004c-5.615,5.613-13.073,8.704-20.998,8.704   c-7.926,0-15.381-3.091-20.996-8.704c-0.001-0.001-0.002-0.002-0.003-0.004c-17.645-17.645-46.355-17.645-64,0   c-0.001,0.001-0.002,0.002-0.003,0.004c-5.616,5.613-13.073,8.704-20.998,8.704c-7.925,0-15.381-3.091-20.996-8.704   c-0.001-0.001-0.002-0.002-0.003-0.004c-8.553-8.553-19.918-13.264-32.001-13.264c-12.079,0-23.438,4.707-31.989,13.253   c-0.003,0.003-0.007,0.006-0.01,0.009c-5.615,5.616-13.073,8.708-21.001,8.708c-7.925,0-15.382-3.091-20.997-8.704   c-0.001-0.001-0.002-0.002-0.003-0.004c-17.645-17.645-46.355-17.645-64,0c-5.615,5.616-13.073,8.708-21.001,8.708   c-7.925,0-15.382-3.091-20.997-8.704c-0.001-0.001-0.002-0.002-0.003-0.004c-17.645-17.645-46.355-17.645-64,0   c-3.037,3.037-3.037,7.962,0,10.998c3.038,3.037,7.962,3.037,10.999,0c11.579-11.58,30.422-11.58,42.001,0   c0.003,0.003,0.007,0.006,0.01,0.009c8.552,8.548,19.912,13.255,31.99,13.254c12.082,0,23.447-4.711,32-13.265   c11.579-11.58,30.422-11.58,42.001,0c0.003,0.003,0.007,0.006,0.01,0.009c8.552,8.548,19.911,13.255,31.989,13.254   c12.082,0,23.447-4.711,32-13.265c0.001-0.001,0.002-0.002,0.003-0.003c5.614-5.613,13.07-8.704,20.996-8.704   c7.929,0,15.387,3.092,21.002,8.707c0.003,0.003,0.007,0.006,0.01,0.009c8.552,8.548,19.912,13.255,31.988,13.254   c12.076,0,23.435-4.707,31.988-13.252c0.004-0.004,0.009-0.007,0.013-0.012c11.579-11.58,30.422-11.58,42.001,0   c0.003,0.003,0.007,0.006,0.01,0.009c8.552,8.548,19.911,13.255,31.988,13.254c12.076,0,23.435-4.707,31.988-13.252   c0.004-0.004,0.009-0.007,0.013-0.012c11.579-11.58,30.422-11.58,42.001,0c1.519,1.518,3.51,2.278,5.5,2.278s3.981-0.759,5.5-2.278   c3.037-3.037,3.037-7.962,0-10.998C472.638,388.453,443.927,388.453,426.283,406.096z"/>
	<path style="fill:#231F20;" d="M426.283,367.295c-0.001,0.001-0.002,0.002-0.003,0.003c-11.581,11.574-30.418,11.576-41.995,0   c-0.001-0.001-0.002-0.002-0.003-0.004c-17.645-17.645-46.355-17.645-64,0c-0.001,0.001-0.002,0.002-0.003,0.003   c-11.58,11.574-30.417,11.576-41.995,0c-0.001-0.001-0.002-0.002-0.003-0.004c-8.553-8.553-19.918-13.264-32.001-13.264   c-12.079,0-23.438,4.707-31.989,13.254c-0.003,0.003-0.007,0.006-0.01,0.009c-5.615,5.615-13.073,8.707-21.001,8.707   c-7.927,0-15.382-3.091-20.997-8.704c-0.001-0.001-0.002-0.002-0.003-0.004c-17.645-17.645-46.355-17.645-64,0   C102.664,372.907,95.206,376,87.279,376c-7.927,0-15.382-3.091-20.997-8.704c-0.001-0.001-0.002-0.002-0.003-0.004   c-17.645-17.645-46.355-17.645-64,0c-3.037,3.037-3.037,7.962,0,10.998c3.038,3.037,7.962,3.037,10.999,0   c11.579-11.58,30.422-11.58,42.001,0c0.003,0.003,0.007,0.006,0.01,0.009c8.552,8.548,19.912,13.254,31.99,13.254   c12.082,0,23.446-4.711,32-13.264c11.579-11.58,30.422-11.58,42.001,0c0.003,0.003,0.007,0.006,0.01,0.009   c8.552,8.548,19.911,13.254,31.989,13.254c12.082,0,23.446-4.711,32-13.264c0.001-0.001,0.002-0.002,0.003-0.004   c5.614-5.612,13.07-8.703,20.996-8.703c7.929,0,15.387,3.092,21.002,8.707c0.003,0.003,0.007,0.006,0.01,0.009   c8.552,8.548,19.912,13.254,31.988,13.254c12.077,0,23.437-4.707,31.99-13.254c0.003-0.003,0.007-0.006,0.01-0.009   c11.579-11.58,30.422-11.58,42.001,0c0.003,0.003,0.007,0.006,0.01,0.009c8.552,8.548,19.911,13.254,31.988,13.254   c12.077,0,23.437-4.707,31.99-13.254c0.003-0.003,0.007-0.006,0.01-0.009c11.579-11.58,30.422-11.58,42.001,0   c1.519,1.518,3.51,2.278,5.5,2.278s3.981-0.759,5.5-2.278c3.037-3.037,3.037-7.962,0-10.998   C472.638,349.65,443.927,349.65,426.283,367.295z"/>
</g>
<g>
</g>
<g>
</g>
<g>
</g>
<g>
</g>
<g>
</g>
<g>
</g>
<g>
</g>
<g>
</g>
<g>
</g>
<g>
</g>
<g>
</g>
<g>
</g>
<g>
</g>
<g>
</g>
<g>
</g>
</svg>
