<?xml version="1.0" encoding="iso-8859-1"?>
<!-- Generator: Adobe Illustrator 19.0.0, SVG Export Plug-In . SVG Version: 6.00 Build 0)  -->
<svg xmlns="http://www.w3.org/2000/svg" xmlns:xlink="http://www.w3.org/1999/xlink" version="1.1" id="Layer_1" x="0px" y="0px" viewBox="0 0 512 512" style="enable-background:new 0 0 512 512;" xml:space="preserve">
<path style="fill:#DCDEE2;" d="M128.092,82.894H84.991c-1.983,0-3.591,1.607-3.591,3.591v15.776v52.167v15.776  c0,1.205,0.596,2.262,1.506,2.914h47.27c0.911-0.652,1.51-1.709,1.51-2.914v-15.776v-52.167V86.484  C131.685,84.502,130.075,82.894,128.092,82.894z"/>
<path style="fill:#C4C8CE;" d="M106.542,170.204v-15.776v-52.168V86.484c0-1.984,1.608-3.591,3.591-3.591H84.991  c-1.983,0-3.591,1.607-3.591,3.591v15.776v52.167v15.776c0,1.205,0.596,2.262,1.506,2.914h25.143  C107.138,172.466,106.542,171.409,106.542,170.204z"/>
<path style="fill:#5B5E5E;" d="M128.092,82.894H84.991c-1.983,0-3.591,1.607-3.591,3.591v27.961h50.285V86.484  C131.685,84.502,130.075,82.894,128.092,82.894z"/>
<path style="fill:#434444;" d="M110.133,82.894H84.991c-1.983,0-3.591,1.607-3.591,3.591v27.961h25.143V86.484  C106.542,84.502,108.15,82.894,110.133,82.894z"/>
<path style="fill:#E6E9ED;" d="M156.379,252.542v-81.105c0-7.784-6.31-14.093-14.094-14.093H70.74  c-7.783,0-14.092,6.31-14.092,14.093v81.105L156.379,252.542L156.379,252.542z"/>
<path style="fill:#C4C8CE;" d="M91.8,157.342H70.74c-7.783,0-14.092,6.31-14.092,14.093v81.105h21.06v-81.105  C77.708,163.653,84.018,157.342,91.8,157.342z"/>
<g>
	<path style="fill:#F5F5F5;" d="M127.473,227.162H85.612c-4.362,0-7.898-3.536-7.898-7.898c0-4.362,3.536-7.898,7.898-7.898h41.861   c4.362,0,7.898,3.536,7.898,7.898C135.37,223.626,131.835,227.162,127.473,227.162z"/>
	<path style="fill:#F5F5F5;" d="M127.473,198.098H85.612c-4.362,0-7.898-3.536-7.898-7.898s3.536-7.898,7.898-7.898h41.861   c4.362,0,7.898,3.536,7.898,7.898S131.835,198.098,127.473,198.098z"/>
</g>
<path style="fill:#434444;" d="M511.17,221.347c-2.322-5.061-9.043-6.62-14.271-7.037c-0.167-0.014-0.335-0.02-0.503-0.02H403.29  c-2.033,0-3.942,0.978-5.129,2.629l-25.771,35.84H36.415c-2.171,0-4.19,1.115-5.346,2.952c-1.157,1.837-1.29,4.139-0.352,6.097  l31.699,66.135c0.072,0.151,0.151,0.299,0.235,0.443c1.006,1.73,6.889,10.362,23.998,10.362c14.683,0,33.458-6.277,55.8-18.656  l0.015,0.012c0.241,0.187,24.332,18.783,55.708,18.783c18.518,0,35.985-6.323,51.916-18.796l0.008,0.005  c0.256,0.168,25.887,16.852,56.313,16.852c19.464,0,36.731-6.674,51.321-19.836l0.012,0.011  c0.238,0.213,24.111,21.218,51.457,21.222c12.831,0,24.528-4.556,34.765-13.543c0.344-0.303,0.656-0.642,0.927-1.012l59.05-80.533  C511.019,233.699,513.453,226.328,511.17,221.347z"/>
<path style="fill:#333535;" d="M100.995,337.476c-9.209-2.465-12.803-7.773-13.569-9.089c-0.084-0.144-0.162-0.293-0.235-0.443  l-31.699-66.135c-0.938-1.958-0.806-4.259,0.352-6.097c1.156-1.837,3.176-2.952,5.346-2.952h-2.106H38.521h-2.106  c-2.171,0-4.19,1.115-5.346,2.952c-1.157,1.837-1.29,4.139-0.352,6.097l31.699,66.135c0.072,0.151,0.151,0.299,0.235,0.443  c1.006,1.73,6.889,10.362,23.998,10.362c0.25,0,0.512-0.018,0.766-0.021c0.44,0.012,0.885,0.021,1.34,0.021  C92.562,338.748,96.648,338.317,100.995,337.476z"/>
<path style="fill:#5B5E5E;" d="M511.17,221.347c-2.322-5.061-9.043-6.62-14.271-7.037c-0.167-0.014-0.335-0.02-0.503-0.02H403.29  c-2.033,0-3.942,0.978-5.129,2.629l-25.771,35.84H217.588c14.55,35.568,41.129,64.938,74.687,83.044  c4.534,0.717,9.271,1.146,14.132,1.146c19.464,0,36.731-6.674,51.321-19.836l0.012,0.011c0.238,0.213,24.111,21.218,51.457,21.222  c12.831,0,24.528-4.556,34.765-13.543c0.344-0.303,0.656-0.642,0.927-1.012l59.05-80.533  C511.019,233.699,513.453,226.328,511.17,221.347z"/>
<path style="fill:#FF5357;" d="M293.174,210.502h-59.299c-3.351,0-6.067,2.716-6.067,6.065v29.909c0,3.351,2.717,6.065,6.067,6.065  h59.299c3.351,0,6.065-2.715,6.065-6.065v-29.909C299.24,213.217,296.525,210.502,293.174,210.502z"/>
<path style="fill:#F7A539;" d="M221.745,210.502h-59.301c-3.349,0-6.065,2.716-6.065,6.065v29.909c0,3.351,2.717,6.065,6.065,6.065  h59.301c3.349,0,6.063-2.715,6.063-6.065v-29.909C227.808,213.217,225.094,210.502,221.745,210.502z"/>
<path style="fill:#55CDEF;" d="M257.94,168.46h-59.301c-3.349,0-6.063,2.717-6.063,6.067v29.909c0,3.351,2.715,6.065,6.063,6.065  h59.301c3.349,0,6.065-2.715,6.065-6.065v-29.909C264.005,171.176,261.288,168.46,257.94,168.46z"/>
<path style="fill:#4ABF69;" d="M364.604,210.502h-59.3c-3.351,0-6.065,2.716-6.065,6.065v29.909c0,3.351,2.715,6.065,6.065,6.065  h59.3c3.351,0,6.065-2.715,6.065-6.065v-29.909C370.669,213.217,367.954,210.502,364.604,210.502z"/>
<path style="fill:#F7A539;" d="M329.369,168.46h-59.301c-3.349,0-6.063,2.717-6.063,6.067v29.909c0,3.351,2.715,6.065,6.063,6.065  h59.301c3.349,0,6.065-2.715,6.065-6.065v-29.909C335.435,171.176,332.718,168.46,329.369,168.46z"/>
<path style="fill:#FF5357;" d="M293.653,126.42h-59.299c-3.349,0-6.065,2.716-6.065,6.065v29.909c0,3.351,2.717,6.065,6.065,6.065  h59.299c3.351,0,6.065-2.715,6.065-6.065v-29.909C299.719,129.135,297.004,126.42,293.653,126.42z"/>
<path style="fill:#ED242E;" d="M260.845,246.477v-29.909c0-3.35,2.717-6.065,6.067-6.065h-33.037c-3.351,0-6.067,2.716-6.067,6.065  v29.909c0,3.351,2.717,6.065,6.067,6.065h33.037C263.562,252.542,260.845,249.827,260.845,246.477z"/>
<path style="fill:#F77D39;" d="M189.416,246.477v-29.909c0-3.35,2.717-6.065,6.065-6.065h-33.037c-3.349,0-6.065,2.716-6.065,6.065  v29.909c0,3.351,2.717,6.065,6.065,6.065h33.037C192.133,252.542,189.416,249.827,189.416,246.477z"/>
<path style="fill:#3EBEDB;" d="M225.613,204.436v-29.909c0-3.351,2.715-6.067,6.063-6.067h-33.037c-3.349,0-6.063,2.717-6.063,6.067  v29.909c0,3.351,2.715,6.065,6.063,6.065h33.037C228.327,210.502,225.613,207.787,225.613,204.436z"/>
<path style="fill:#35AF52;" d="M332.277,246.477v-29.909c0-3.35,2.715-6.065,6.065-6.065h-33.037c-3.351,0-6.065,2.716-6.065,6.065  v29.909c0,3.351,2.715,6.065,6.065,6.065h33.037C334.991,252.542,332.277,249.827,332.277,246.477z"/>
<path style="fill:#F77D39;" d="M297.042,204.436v-29.909c0-3.351,2.715-6.067,6.063-6.067h-33.037c-3.349,0-6.063,2.717-6.063,6.067  v29.909c0,3.351,2.715,6.065,6.063,6.065h33.037C299.757,210.502,297.042,207.787,297.042,204.436z"/>
<path style="fill:#ED242E;" d="M261.326,162.394v-29.909c0-3.35,2.717-6.065,6.065-6.065h-33.037c-3.349,0-6.065,2.716-6.065,6.065  v29.909c0,3.351,2.717,6.065,6.065,6.065h33.037C264.043,168.46,261.326,165.745,261.326,162.394z"/>
<g>
	<path style="fill:#F5F5F5;" d="M113.372,296.717h-6.83c-4.362,0-7.898-3.536-7.898-7.898s3.536-7.898,7.898-7.898h6.83   c4.362,0,7.898,3.536,7.898,7.898S117.734,296.717,113.372,296.717z"/>
	<path style="fill:#F5F5F5;" d="M169.842,296.717h-6.83c-4.362,0-7.898-3.536-7.898-7.898s3.536-7.898,7.898-7.898h6.83   c4.362,0,7.898,3.536,7.898,7.898S174.203,296.717,169.842,296.717z"/>
	<path style="fill:#F5F5F5;" d="M226.313,296.717h-6.83c-4.362,0-7.898-3.536-7.898-7.898s3.536-7.898,7.898-7.898h6.83   c4.362,0,7.898,3.536,7.898,7.898S230.675,296.717,226.313,296.717z"/>
	<path style="fill:#F5F5F5;" d="M282.784,296.717h-6.83c-4.362,0-7.898-3.536-7.898-7.898s3.536-7.898,7.898-7.898h6.83   c4.362,0,7.897,3.536,7.897,7.898S287.146,296.717,282.784,296.717z"/>
	<path style="fill:#F5F5F5;" d="M339.256,296.717h-6.83c-4.362,0-7.898-3.536-7.898-7.898s3.536-7.898,7.898-7.898h6.83   c4.362,0,7.898,3.536,7.898,7.898S343.617,296.717,339.256,296.717z"/>
</g>
<g>
	<path style="fill:#55CDEF;" d="M88.628,350.301c-12.27,0-23.809-4.784-32.495-13.47c-3.084-3.084-3.083-8.085,0.001-11.168   c3.084-3.084,8.085-3.084,11.168,0.001c5.701,5.703,13.275,8.843,21.325,8.843s15.623-3.14,21.325-8.843   c3.085-3.084,8.085-3.084,11.169,0c3.083,3.084,3.084,8.085,0,11.169C112.438,345.518,100.898,350.301,88.628,350.301z"/>
	<path style="fill:#55CDEF;" d="M169.358,339.145c-2.021,0-4.042-0.771-5.585-2.313c-11.758-11.759-30.893-11.759-42.651,0   c-3.085,3.084-8.085,3.084-11.169,0c-3.084-3.084-3.084-8.085,0-11.169c17.918-17.918,47.072-17.918,64.99,0   c3.084,3.084,3.084,8.085,0,11.169C173.401,338.373,171.379,339.145,169.358,339.145z"/>
	<path style="fill:#55CDEF;" d="M196.269,350.301c-12.27,0-23.809-4.784-32.495-13.47c-3.084-3.084-3.083-8.085,0.001-11.168   c3.084-3.084,8.085-3.084,11.168,0.001c5.701,5.703,13.275,8.843,21.325,8.843s15.623-3.14,21.325-8.843   c3.085-3.084,8.085-3.084,11.169,0c3.083,3.084,3.084,8.085,0,11.169C220.078,345.518,208.538,350.301,196.269,350.301z"/>
	<path style="fill:#55CDEF;" d="M223.179,339.145c-2.021,0-4.042-0.771-5.584-2.312c-3.084-3.084-3.085-8.085-0.001-11.169   c8.684-8.686,20.225-13.469,32.495-13.469c12.269,0,23.809,4.783,32.495,13.468c3.084,3.084,3.084,8.085,0,11.169   c-3.085,3.084-8.085,3.084-11.169,0c-5.701-5.702-13.276-8.842-21.325-8.842c-8.051,0-15.624,3.14-21.325,8.841   C227.221,338.373,225.2,339.145,223.179,339.145z"/>
	<path style="fill:#55CDEF;" d="M303.91,350.301c-12.27,0-23.809-4.784-32.495-13.47c-3.084-3.084-3.083-8.085,0.001-11.168   c3.084-3.084,8.085-3.084,11.169,0.001c5.701,5.703,13.274,8.843,21.324,8.843c8.05,0,15.623-3.14,21.326-8.843   c3.085-3.083,8.085-3.083,11.169,0c3.084,3.084,3.083,8.085,0,11.169C327.717,345.518,316.177,350.301,303.91,350.301z"/>
	<path style="fill:#55CDEF;" d="M384.64,339.145c-2.021,0-4.042-0.771-5.585-2.313c-11.758-11.759-30.893-11.759-42.651,0   c-3.085,3.084-8.085,3.084-11.169,0c-3.084-3.084-3.084-8.085,0-11.169c17.918-17.918,47.072-17.918,64.99,0   c3.084,3.084,3.084,8.085,0,11.169C388.682,338.373,386.661,339.145,384.64,339.145z"/>
	<path style="fill:#55CDEF;" d="M411.55,350.301c-12.27,0-23.809-4.784-32.495-13.47c-3.084-3.084-3.083-8.085,0.001-11.168   c3.084-3.084,8.085-3.084,11.168,0.001c5.701,5.703,13.276,8.843,21.324,8.843c8.05,0,15.623-3.14,21.326-8.843   c3.085-3.083,8.085-3.083,11.169,0c3.084,3.084,3.083,8.085,0,11.169C435.358,345.518,423.818,350.301,411.55,350.301z"/>
	<path style="fill:#55CDEF;" d="M492.28,339.145c-2.021,0-4.042-0.771-5.585-2.313c-11.758-11.759-30.893-11.759-42.651,0   c-3.085,3.084-8.085,3.084-11.169,0c-3.084-3.084-3.084-8.085,0-11.169c17.918-17.918,47.072-17.918,64.99,0   c3.084,3.084,3.084,8.085,0,11.169C496.323,338.373,494.301,339.145,492.28,339.145z"/>
	<path style="fill:#55CDEF;" d="M61.718,339.145c-2.021,0-4.042-0.771-5.585-2.313c-11.758-11.759-30.893-11.759-42.651,0   c-3.085,3.084-8.085,3.084-11.169,0c-3.084-3.084-3.084-8.085,0-11.169c17.918-17.918,47.072-17.918,64.99,0   c3.084,3.084,3.084,8.085,0,11.169C65.76,338.373,63.739,339.145,61.718,339.145z"/>
	<path style="fill:#55CDEF;" d="M88.628,429.106c-12.27,0-23.809-4.784-32.495-13.47c-3.084-3.084-3.083-8.085,0.001-11.168   c3.084-3.084,8.085-3.084,11.168,0.001c5.701,5.702,13.275,8.843,21.325,8.843s15.623-3.141,21.325-8.843   c3.085-3.084,8.085-3.084,11.169,0c3.083,3.084,3.084,8.085,0,11.169C112.438,424.322,100.898,429.106,88.628,429.106z"/>
	<path style="fill:#55CDEF;" d="M169.358,417.951c-2.021,0-4.042-0.771-5.585-2.313c-11.758-11.759-30.893-11.759-42.651,0   c-3.085,3.084-8.085,3.084-11.169,0s-3.084-8.085,0-11.169c17.918-17.918,47.072-17.918,64.99,0c3.084,3.084,3.084,8.085,0,11.169   C173.401,417.179,171.379,417.951,169.358,417.951z"/>
	<path style="fill:#55CDEF;" d="M196.269,429.106c-12.27,0-23.809-4.784-32.495-13.47c-3.084-3.084-3.083-8.085,0.001-11.168   c3.084-3.084,8.085-3.084,11.168,0.001c5.701,5.702,13.275,8.843,21.325,8.843s15.623-3.141,21.325-8.843   c3.085-3.084,8.085-3.084,11.169,0c3.083,3.084,3.084,8.085,0,11.169C220.078,424.322,208.538,429.106,196.269,429.106z"/>
	<path style="fill:#55CDEF;" d="M223.179,417.951c-2.021,0-4.042-0.771-5.584-2.312c-3.084-3.084-3.085-8.085-0.001-11.168   c8.684-8.686,20.225-13.469,32.495-13.469c12.269,0,23.809,4.783,32.495,13.468c3.084,3.084,3.084,8.085,0,11.169   c-3.085,3.084-8.085,3.084-11.169,0c-5.701-5.702-13.276-8.842-21.325-8.842c-8.051,0-15.624,3.14-21.325,8.841   C227.221,417.179,225.2,417.951,223.179,417.951z"/>
	<path style="fill:#55CDEF;" d="M303.91,429.106c-12.27,0-23.809-4.784-32.495-13.47c-3.084-3.084-3.083-8.085,0.001-11.168   c3.084-3.084,8.085-3.084,11.169,0.001c5.701,5.702,13.274,8.843,21.324,8.843c8.05,0,15.623-3.141,21.326-8.843   c3.085-3.083,8.085-3.083,11.169,0c3.084,3.084,3.083,8.085,0,11.169C327.717,424.322,316.177,429.106,303.91,429.106z"/>
	<path style="fill:#55CDEF;" d="M384.64,417.951c-2.021,0-4.042-0.771-5.585-2.313c-11.758-11.759-30.893-11.759-42.651,0   c-3.085,3.084-8.085,3.084-11.169,0s-3.084-8.085,0-11.169c17.918-17.918,47.072-17.918,64.99,0c3.084,3.084,3.084,8.085,0,11.169   C388.682,417.179,386.661,417.951,384.64,417.951z"/>
	<path style="fill:#55CDEF;" d="M411.55,429.106c-12.27,0-23.809-4.784-32.495-13.47c-3.084-3.084-3.083-8.085,0.001-11.168   c3.084-3.084,8.085-3.084,11.168,0.001c5.701,5.702,13.276,8.843,21.324,8.843c8.05,0,15.623-3.141,21.326-8.843   c3.085-3.083,8.085-3.083,11.169,0c3.084,3.084,3.083,8.085,0,11.169C435.358,424.322,423.818,429.106,411.55,429.106z"/>
	<path style="fill:#55CDEF;" d="M492.28,417.951c-2.021,0-4.042-0.771-5.585-2.313c-11.758-11.759-30.893-11.759-42.651,0   c-3.085,3.084-8.085,3.084-11.169,0s-3.084-8.085,0-11.169c17.918-17.918,47.072-17.918,64.99,0c3.084,3.084,3.084,8.085,0,11.169   C496.323,417.179,494.301,417.951,492.28,417.951z"/>
	<path style="fill:#55CDEF;" d="M61.718,417.951c-2.021,0-4.042-0.771-5.585-2.313c-11.758-11.759-30.893-11.759-42.651,0   c-3.085,3.084-8.085,3.084-11.169,0s-3.084-8.085,0-11.169c17.918-17.918,47.072-17.918,64.99,0c3.084,3.084,3.084,8.085,0,11.169   C65.76,417.179,63.739,417.951,61.718,417.951z"/>
	<path style="fill:#55CDEF;" d="M88.628,389.704c-12.27,0.001-23.809-4.783-32.495-13.469c-3.084-3.084-3.083-8.085,0.001-11.168   c3.084-3.084,8.085-3.084,11.168,0.001c5.701,5.702,13.275,8.842,21.325,8.842c8.049,0,15.624-3.14,21.325-8.842   c3.085-3.084,8.085-3.084,11.169,0s3.084,8.085,0,11.168C112.438,384.92,100.897,389.704,88.628,389.704z"/>
	<path style="fill:#55CDEF;" d="M169.358,378.548c-2.021,0-4.042-0.771-5.585-2.313c-11.758-11.759-30.893-11.759-42.651,0   c-3.085,3.084-8.085,3.084-11.169,0s-3.084-8.085,0-11.168c17.918-17.918,47.072-17.918,64.99,0c3.084,3.084,3.084,8.085,0,11.168   C173.401,377.776,171.379,378.548,169.358,378.548z"/>
	<path style="fill:#55CDEF;" d="M196.269,389.704c-12.27,0.001-23.809-4.783-32.495-13.469c-3.084-3.084-3.083-8.085,0.001-11.168   s8.085-3.084,11.168,0.001c5.701,5.702,13.275,8.842,21.325,8.842s15.624-3.14,21.325-8.842c3.085-3.084,8.085-3.084,11.169,0   c3.084,3.084,3.084,8.085,0,11.168C220.078,384.92,208.537,389.704,196.269,389.704z"/>
	<path style="fill:#55CDEF;" d="M223.179,378.548c-2.021,0-4.042-0.771-5.584-2.312c-3.084-3.084-3.085-8.085-0.001-11.168   c8.684-8.686,20.225-13.469,32.495-13.469c12.269,0,23.809,4.784,32.495,13.469c3.084,3.084,3.084,8.085,0,11.168   c-3.085,3.084-8.085,3.084-11.169,0c-5.701-5.702-13.276-8.842-21.325-8.842c-8.051,0-15.624,3.14-21.325,8.842   C227.221,377.776,225.2,378.548,223.179,378.548z"/>
	<path style="fill:#55CDEF;" d="M303.91,389.704c-12.27,0.001-23.809-4.783-32.495-13.469c-3.084-3.084-3.083-8.085,0.001-11.168   c3.084-3.084,8.085-3.084,11.169,0.001c11.758,11.759,30.891,11.759,42.652-0.001c3.084-3.084,8.085-3.084,11.168,0.001   c3.084,3.084,3.083,8.085-0.001,11.168C327.717,384.92,316.177,389.704,303.91,389.704z"/>
	<path style="fill:#55CDEF;" d="M384.64,378.548c-2.021,0-4.042-0.771-5.585-2.313c-11.758-11.759-30.893-11.759-42.651,0   c-3.085,3.084-8.085,3.084-11.169,0s-3.084-8.085,0-11.168c17.918-17.918,47.072-17.918,64.99,0c3.084,3.084,3.084,8.085,0,11.168   C388.682,377.776,386.661,378.548,384.64,378.548z"/>
	<path style="fill:#55CDEF;" d="M411.55,389.704c-12.27,0.001-23.809-4.783-32.495-13.469c-3.084-3.084-3.083-8.085,0.001-11.168   c3.084-3.084,8.085-3.084,11.168,0.001c11.758,11.759,30.891,11.759,42.652-0.001c3.084-3.084,8.086-3.084,11.168,0.001   c3.084,3.084,3.083,8.085-0.001,11.168C435.358,384.92,423.818,389.704,411.55,389.704z"/>
	<path style="fill:#55CDEF;" d="M492.28,378.548c-2.021,0-4.042-0.771-5.585-2.313c-11.758-11.759-30.893-11.759-42.651,0   c-3.085,3.084-8.085,3.084-11.169,0s-3.084-8.085,0-11.168c17.918-17.918,47.072-17.918,64.99,0c3.084,3.084,3.084,8.085,0,11.168   C496.323,377.776,494.301,378.548,492.28,378.548z"/>
	<path style="fill:#55CDEF;" d="M61.718,378.548c-2.021,0-4.042-0.771-5.585-2.313c-11.758-11.759-30.893-11.759-42.651,0   c-3.085,3.084-8.085,3.084-11.169,0s-3.084-8.085,0-11.168c17.918-17.918,47.072-17.918,64.99,0c3.084,3.084,3.084,8.085,0,11.168   C65.76,377.776,63.739,378.548,61.718,378.548z"/>
</g>
<g>
</g>
<g>
</g>
<g>
</g>
<g>
</g>
<g>
</g>
<g>
</g>
<g>
</g>
<g>
</g>
<g>
</g>
<g>
</g>
<g>
</g>
<g>
</g>
<g>
</g>
<g>
</g>
<g>
</g>
</svg>
