<?xml version="1.0" encoding="UTF-8" standalone="no"?>
<!-- Generator: Adobe Illustrator 19.0.0, SVG Export Plug-In . SVG Version: 6.00 Build 0)  -->

<svg
   version="1.1"
   id="Capa_1"
   x="0px"
   y="0px"
   viewBox="0 0 512 512"
   style="enable-background:new 0 0 512 512;"
   xml:space="preserve"
   sodipodi:docname="telephone.svg"
   inkscape:version="1.1.2 (0a00cf5339, 2022-02-04)"
   xmlns:inkscape="http://www.inkscape.org/namespaces/inkscape"
   xmlns:sodipodi="http://sodipodi.sourceforge.net/DTD/sodipodi-0.dtd"
   xmlns="http://www.w3.org/2000/svg"
   xmlns:svg="http://www.w3.org/2000/svg"><defs
   id="defs57" /><sodipodi:namedview
   id="namedview55"
   pagecolor="#ffffff"
   bordercolor="#666666"
   borderopacity="1.0"
   inkscape:pageshadow="2"
   inkscape:pageopacity="0.0"
   inkscape:pagecheckerboard="0"
   showgrid="false"
   inkscape:zoom="1.2304688"
   inkscape:cx="255.59365"
   inkscape:cy="255.59365"
   inkscape:window-width="1920"
   inkscape:window-height="1012"
   inkscape:window-x="0"
   inkscape:window-y="0"
   inkscape:window-maximized="1"
   inkscape:current-layer="Capa_1" />
<path
   style="fill:#ff5d5d;stroke-width:1.01908"
   d="M 64.329867,27.140932 35.459139,63.907563 C -15.410907,128.69293 -9.8552766,221.25961 48.396797,279.50011 L 233.63034,464.69359 c 58.25207,58.23948 150.83979,63.79391 215.63917,12.93486 l 36.77459,-28.86244 c 19.92016,-15.63413 21.69152,-45.15993 3.78426,-63.0633 L 409.1163,305.00809 c -16.49159,-16.48802 -43.22914,-16.48802 -59.72175,0 l -26.25854,26.25286 c -12.39952,12.39684 -32.50109,12.39684 -44.90062,0 l -96.44028,-96.41943 c -12.39952,-12.39684 -12.39952,-32.49407 0,-44.89091 l 26.25854,-26.25286 c 16.49159,-16.48802 16.49159,-43.21979 0,-59.70884 L 127.40681,23.359518 C 109.49854,5.4551206 79.967371,7.226098 64.329867,27.140932 Z"
   id="path2" />
<g
   id="g8"
   transform="matrix(1.0191947,0,0,1.0189743,-9.4374067,0.80044594)">
	<path
   style="fill:#fe8f8d"
   d="m 410.67,298.542 c -16.181,-16.181 -42.415,-16.181 -58.597,0 l -25.764,25.764 c -0.301,0.301 -0.61,0.589 -0.92,0.875 l 134.813,134.813 25.947,-20.37 c 19.545,-15.343 21.283,-44.319 3.713,-61.889 z"
   id="path4" />
	<path
   style="fill:#fe8f8d"
   d="M 134.266,22.137 C 116.697,4.568 87.721,6.306 72.378,25.85 l -20.37,25.948 134.748,134.748 c 0.286,-0.31 0.574,-0.619 0.875,-0.92 l 25.764,-25.764 c 16.181,-16.181 16.181,-42.415 0,-58.597 z"
   id="path6" />
</g>




<path
   d="m 502.19731,220.70325 c -5.62901,0 -10.19296,-4.56195 -10.19296,-10.19076 0,-104.398 -84.95192,-189.331539 -189.37249,-189.331539 -5.62902,0 -10.19297,-4.561948 -10.19297,-10.190762 0,-5.628814 4.56395,-10.18974306 10.19399,-10.18974306 115.66127,0 209.7574,94.07680006 209.7574,209.71306406 0,5.62779 -4.56294,10.18974 -10.19297,10.18974 z"
   id="path18"
   style="fill:#aaeeff;stroke-width:1.01908" />
<path
   d="m 432.05429,220.70325 c -5.62901,0 -10.19296,-4.56195 -10.19296,-10.19076 0,-65.72894 -53.4853,-119.202669 -119.22845,-119.202669 -5.62902,0 -10.19297,-4.561948 -10.19297,-10.190763 0,-5.627795 4.56293,-10.190762 10.19297,-10.190762 76.98283,0 139.61438,62.616984 139.61438,139.584194 0,5.62881 -4.56395,10.19076 -10.19297,10.19076 z"
   id="path20"
   style="fill:#aaeeff;stroke-width:1.01908" />
<path
   d="m 358.10051,220.70325 c -5.62901,0 -10.19297,-4.56195 -10.19297,-10.19076 0,-24.95978 -20.31051,-45.26488 -45.27466,-45.26488 -5.62902,0 -10.19297,-4.56195 -10.19297,-10.19076 0,-5.62881 4.56293,-10.19076 10.19297,-10.19076 36.20587,0 65.66059,29.44836 65.66059,65.6464 0,5.62881 -4.56395,10.19076 -10.19296,10.19076 z"
   id="path22"
   style="fill:#aaeeff;stroke-width:1.01908" />
<g
   id="g24">
</g>
<g
   id="g26">
</g>
<g
   id="g28">
</g>
<g
   id="g30">
</g>
<g
   id="g32">
</g>
<g
   id="g34">
</g>
<g
   id="g36">
</g>
<g
   id="g38">
</g>
<g
   id="g40">
</g>
<g
   id="g42">
</g>
<g
   id="g44">
</g>
<g
   id="g46">
</g>
<g
   id="g48">
</g>
<g
   id="g50">
</g>
<g
   id="g52">
</g>
</svg>
