<?xml version="1.0" encoding="UTF-8" standalone="no"?>
<!-- Created with Inkscape (http://www.inkscape.org/) -->

<svg
   version="1.1"
   id="svg7140"
   xml:space="preserve"
   width="682.66669"
   height="682.66669"
   viewBox="0 0 682.66669 682.66669"
   xmlns="http://www.w3.org/2000/svg"
   xmlns:svg="http://www.w3.org/2000/svg"><defs
     id="defs7144"><clipPath
       clipPathUnits="userSpaceOnUse"
       id="clipPath7168"><path
         d="M 0,512 H 512 V 0 H 0 Z"
         id="path7166" /></clipPath></defs><g
     id="g7146"
     transform="matrix(1.3333333,0,0,-1.3333333,0,682.66667)"><path
       d="m 40.294,331.627 h 431.412 v 36.366 H 40.294 Z"
       style="fill:#7d8c97;fill-opacity:1;fill-rule:nonzero;stroke:#000000;stroke-width:15;stroke-linecap:round;stroke-linejoin:round;stroke-miterlimit:10;stroke-dasharray:none;stroke-opacity:1"
       id="path7148" /><path
       d="M 276.796,206.055 H 318.4 v 50.734 h -41.604 z"
       style="fill:#d7e3f2;fill-opacity:1;fill-rule:nonzero;stroke:none"
       id="path7150" /><path
       d="M 276.796,236.209 H 318.4 v 20.58 h -41.604 z"
       style="fill:#b7cee9;fill-opacity:1;fill-rule:nonzero;stroke:none"
       id="path7152" /><g
       id="g7154"
       transform="translate(318.3994,206.0547)"><path
         d="M 0,0 V 50.734"
         style="fill:none;stroke:#000000;stroke-width:15;stroke-linecap:round;stroke-linejoin:round;stroke-miterlimit:10;stroke-dasharray:none;stroke-opacity:1"
         id="path7156" /></g><g
       id="g7158"
       transform="translate(276.2363,255.8877)"><path
         d="M 0,0 V -49.833"
         style="fill:none;stroke:#000000;stroke-width:15;stroke-linecap:round;stroke-linejoin:round;stroke-miterlimit:10;stroke-dasharray:none;stroke-opacity:1"
         id="path7160" /></g><g
       id="g7162"><g
         id="g7164"
         clip-path="url(#clipPath7168)"><g
           id="g7170"
           transform="translate(334.2842,288.0107)"><path
             d="m 0,0 h -73.373 c -8.621,0 -15.61,-6.989 -15.61,-15.61 0,-8.622 6.989,-15.612 15.61,-15.612 H 0 c 8.621,0 15.61,6.99 15.61,15.612 C 15.61,-6.989 8.621,0 0,0"
             style="fill:#f29b4e;fill-opacity:1;fill-rule:nonzero;stroke:none"
             id="path7172" /></g><g
           id="g7174"
           transform="translate(334.2842,288.0107)"><path
             d="m 0,0 h -73.373 c -8.621,0 -15.61,-6.989 -15.61,-15.61 0,-8.622 6.989,-15.612 15.61,-15.612 H 0 c 8.621,0 15.61,6.99 15.61,15.612 C 15.61,-6.989 8.621,0 0,0 Z"
             style="fill:none;stroke:#000000;stroke-width:15;stroke-linecap:round;stroke-linejoin:round;stroke-miterlimit:10;stroke-dasharray:none;stroke-opacity:1"
             id="path7176" /></g><g
           id="g7178"
           transform="translate(297.5977,431.2217)"><path
             d="M 0,0 C 17.435,0 31.568,-14.134 31.568,-31.568 V -143.211 H -31.568 V -31.568 C -31.568,-14.134 -17.435,0 0,0"
             style="fill:#f29b4e;fill-opacity:1;fill-rule:nonzero;stroke:none"
             id="path7180" /></g><path
           d="m 266.029,288.011 h 63.137 v 24.677 h -63.137 z"
           style="fill:#ef7d31;fill-opacity:1;fill-rule:nonzero;stroke:none"
           id="path7182" /><g
           id="g7184"
           transform="translate(297.5977,431.2217)"><path
             d="M 0,0 C -4.478,0 -8.733,-0.937 -12.592,-2.618 -1.426,-7.482 6.384,-18.611 6.384,-31.568 V -143.211 H 31.568 V -31.568 C 31.568,-14.134 17.435,0 0,0"
             style="fill:#ef7d31;fill-opacity:1;fill-rule:nonzero;stroke:none"
             id="path7186" /></g><g
           id="g7188"
           transform="translate(297.5977,431.2217)"><path
             d="M 0,0 C 17.435,0 31.568,-14.134 31.568,-31.568 V -143.211 H -31.568 V -31.568 C -31.568,-14.134 -17.435,0 0,0 Z"
             style="fill:none;stroke:#000000;stroke-width:15;stroke-linecap:round;stroke-linejoin:round;stroke-miterlimit:10;stroke-dasharray:none;stroke-opacity:1"
             id="path7190" /></g><g
           id="g7192"
           transform="translate(471.7061,367.9932)"><path
             d="M 0,0 V -263.567 H 32.794 V -6.062 C 32.794,-2.714 30.08,0 26.733,0 Z"
             style="fill:#d76134;fill-opacity:1;fill-rule:nonzero;stroke:none"
             id="path7194" /></g><g
           id="g7196"
           transform="translate(7.5,361.9316)"><path
             d="M 0,0 V -257.506 H 32.794 V 6.062 H 6.061 C 2.713,6.062 0,3.348 0,0"
             style="fill:#d76134;fill-opacity:1;fill-rule:nonzero;stroke:none"
             id="path7198" /></g><g
           id="g7200"
           transform="translate(504.5,285.0957)"><path
             d="m 0,0 v 76.836 c 0,3.348 -2.714,6.061 -6.061,6.061 H -32.794 V -180.67 H 0 V -35"
             style="fill:none;stroke:#000000;stroke-width:15;stroke-linecap:round;stroke-linejoin:round;stroke-miterlimit:10;stroke-dasharray:none;stroke-opacity:1"
             id="path7202" /></g><g
           id="g7204"
           transform="translate(40.2939,285.0957)"><path
             d="m 0,0 v 82.897 h -26.733 c -3.348,0 -6.061,-2.713 -6.061,-6.061 V -180.67 H 0 V -35"
             style="fill:none;stroke:#000000;stroke-width:15;stroke-linecap:round;stroke-linejoin:round;stroke-miterlimit:10;stroke-dasharray:none;stroke-opacity:1"
             id="path7206" /></g><g
           id="g7208"
           transform="translate(110.2153,426.9814)"><path
             d="M 0,0 55.15,-259.463 94.588,-251.08 39.438,8.383 Z"
             style="fill:#5ecfb4;fill-opacity:1;fill-rule:nonzero;stroke:none"
             id="path7210" /></g><g
           id="g7212"
           transform="translate(110.2153,426.9814)"><path
             d="m 0,0 8.464,-39.818 39.437,8.382 -8.463,39.819 z"
             style="fill:#50b3a0;fill-opacity:1;fill-rule:nonzero;stroke:none"
             id="path7214" /></g><g
           id="g7216"
           transform="translate(204.8037,175.9014)"><path
             d="M 0,0 -55.151,259.463 -94.588,251.08 -39.438,-8.383"
             style="fill:none;stroke:#000000;stroke-width:15;stroke-linecap:round;stroke-linejoin:round;stroke-miterlimit:10;stroke-dasharray:none;stroke-opacity:1"
             id="path7218" /></g><g
           id="g7220"
           transform="translate(76.4976,451.6953)"><path
             d="m 0,0 -32.558,-6.92 c -1.252,-0.267 -2.484,0.533 -2.75,1.786 l -1.96,9.222 c -0.291,1.369 -1.636,2.242 -3.005,1.952 l -24.19,-5.143 c -1.369,-0.29 -2.242,-1.635 -1.951,-3.003 l 11.328,-53.293 c 0.291,-1.37 1.636,-2.243 3.004,-1.952 l 24.19,5.142 c 1.369,0.291 2.243,1.636 1.952,3.005 l -1.961,9.222 c -0.266,1.253 0.534,2.484 1.786,2.751 l 32.558,6.919 z"
             style="fill:#b7cee9;fill-opacity:1;fill-rule:nonzero;stroke:none"
             id="path7222" /></g><g
           id="g7224"
           transform="translate(76.4976,451.6953)"><path
             d="m 0,0 -32.558,-6.92 c -1.252,-0.267 -2.484,0.533 -2.75,1.786 l -1.96,9.222 c -0.291,1.369 -1.636,2.242 -3.005,1.952 l -24.19,-5.143 c -1.369,-0.29 -2.242,-1.635 -1.951,-3.003 l 11.328,-53.293 c 0.291,-1.37 1.636,-2.243 3.004,-1.952 l 24.19,5.142 c 1.369,0.291 2.243,1.636 1.952,3.005 l -1.961,9.222 c -0.266,1.253 0.534,2.484 1.786,2.751 l 32.558,6.919 z"
             style="fill:none;stroke:#000000;stroke-width:15;stroke-linecap:round;stroke-linejoin:round;stroke-miterlimit:10;stroke-dasharray:none;stroke-opacity:1"
             id="path7226" /></g><g
           id="g7228"
           transform="translate(161.8599,484.4395)"><path
             d="m 0,0 -91.655,-19.481 c -3.116,-0.663 -5.105,-3.726 -4.443,-6.843 l 9.982,-46.963 c 0.663,-3.116 3.726,-5.107 6.843,-4.443 l 110.229,23.429 c 4.739,1.008 9.577,-1.218 11.896,-5.472 l 8.86,-16.253 c 1.528,-2.802 5.038,-3.835 7.84,-2.308 l 7.786,3.384 c 7.942,4.329 11.079,13.3 6.748,21.242 L 59.8,-27.505 C 48.142,-6.122 23.822,5.063 0,0"
             style="fill:#d7e3f2;fill-opacity:1;fill-rule:nonzero;stroke:none"
             id="path7230" /></g><g
           id="g7232"
           transform="translate(100.4995,471.3975)"><path
             d="m 0,0 -30.294,-6.439 c -3.117,-0.663 -5.106,-3.726 -4.444,-6.843 l 9.983,-46.963 c 0.662,-3.116 3.726,-5.107 6.842,-4.443 l 110.229,23.429 c 4.739,1.008 9.578,-1.218 11.896,-5.472 l 8.86,-16.253 c 1.528,-2.802 5.038,-3.835 7.84,-2.308 l 7.786,3.384 c 7.943,4.329 11.079,13.3 6.749,21.242 L 121.16,-14.463 C 109.502,6.92 85.183,18.105 61.36,13.042 L 35.001,7.439"
             style="fill:none;stroke:#000000;stroke-width:15;stroke-linecap:round;stroke-linejoin:round;stroke-miterlimit:10;stroke-dasharray:none;stroke-opacity:1"
             id="path7234" /></g><g
           id="g7236"
           transform="translate(413.5312,416.8213)"><path
             d="m 0,0 h -23.37 c -2.391,0 -4.526,-1.495 -5.344,-3.742 l -15.425,-42.38 c -1.669,-4.587 -0.955,-9.703 1.908,-13.656 l 12.211,-16.87 c 1.735,-2.396 2.667,-5.278 2.667,-8.235 V -238.6 H 3.981 v 153.717 c 0,2.957 0.934,5.839 2.667,8.235 l 12.212,16.87 c 2.863,3.953 3.577,9.069 1.908,13.656 L 5.343,-3.742 C 4.525,-1.495 2.39,0 0,0"
             style="fill:#d7e3f2;fill-opacity:1;fill-rule:nonzero;stroke:none"
             id="path7238" /></g><g
           id="g7240"
           transform="translate(413.5312,416.8213)"><path
             d="m 0,0 h -23.37 c -2.391,0 -4.526,-1.495 -5.344,-3.742 l -15.425,-42.38 c -1.669,-4.587 -0.955,-9.703 1.908,-13.656 l 12.211,-16.87 c 1.735,-2.396 2.667,-5.278 2.667,-8.235 V -238.6 H 3.981 v 153.717 c 0,2.957 0.934,5.839 2.667,8.235 l 12.212,16.87 c 2.863,3.953 3.577,9.069 1.908,13.656 L 5.343,-3.742 C 4.525,-1.495 2.39,0 0,0 Z"
             style="fill:none;stroke:#000000;stroke-width:15;stroke-linecap:round;stroke-linejoin:round;stroke-miterlimit:10;stroke-dasharray:none;stroke-opacity:1"
             id="path7242" /></g><g
           id="g7244"
           transform="translate(504.5,206.0547)"><path
             d="m 0,0 h -497 v -172.631 c 0,-3.905 3.166,-7.07 7.071,-7.07 H -7.071 c 3.905,0 7.071,3.165 7.071,7.07 z"
             style="fill:#f29b4e;fill-opacity:1;fill-rule:nonzero;stroke:none"
             id="path7246" /></g><g
           id="g7248"
           transform="translate(497.4287,56.5078)"><path
             d="m 0,0 h -482.857 c -3.906,0 -7.072,3.166 -7.072,7.071 v -30.155 c 0,-3.905 3.166,-7.07 7.072,-7.07 H 0 c 3.905,0 7.071,3.165 7.071,7.07 V 7.071 C 7.071,3.166 3.905,0 0,0"
             style="fill:#ef7d31;fill-opacity:1;fill-rule:nonzero;stroke:none"
             id="path7250" /></g><g
           id="g7252"
           transform="translate(504.5,206.0547)"><path
             d="m 0,0 h -497 v -172.631 c 0,-3.905 3.166,-7.07 7.071,-7.07 H -7.071 c 3.905,0 7.071,3.165 7.071,7.07 z"
             style="fill:none;stroke:#000000;stroke-width:15;stroke-linecap:round;stroke-linejoin:round;stroke-miterlimit:10;stroke-dasharray:none;stroke-opacity:1"
             id="path7254" /></g><g
           id="g7256"
           transform="translate(200.8696,154.2217)"><path
             d="m 0,0 v -33 c 0,-2.762 2.239,-5 5,-5 h 100.261 c 2.761,0 5,2.238 5,5 V 0 c 0,2.762 -2.239,5 -5,5 H 5 C 2.239,5 0,2.762 0,0"
             style="fill:#d76134;fill-opacity:1;fill-rule:nonzero;stroke:none"
             id="path7258" /></g><g
           id="g7260"
           transform="translate(200.8696,154.2217)"><path
             d="m 0,0 v -33 c 0,-2.762 2.239,-5 5,-5 h 100.261 c 2.761,0 5,2.238 5,5 V 0 c 0,2.762 -2.239,5 -5,5 H 5 C 2.239,5 0,2.762 0,0 Z"
             style="fill:none;stroke:#000000;stroke-width:15;stroke-linecap:round;stroke-linejoin:round;stroke-miterlimit:10;stroke-dasharray:none;stroke-opacity:1"
             id="path7262" /></g></g></g></g></svg>
