<?xml version="1.0" encoding="iso-8859-1"?>
<!-- Generator: Adobe Illustrator 19.0.0, SVG Export Plug-In . SVG Version: 6.00 Build 0)  -->
<svg xmlns="http://www.w3.org/2000/svg" xmlns:xlink="http://www.w3.org/1999/xlink" version="1.1" id="Layer_1" x="0px" y="0px" viewBox="0 0 511.998 511.998" style="enable-background:new 0 0 511.998 511.998;" xml:space="preserve">
<path style="fill:#E6E9ED;" d="M488.328,271.454c0-7.145-5.789-12.935-12.935-12.935h-5.065l-59.337-99.582h-106.17v232.555h16.931  h26.607h8.044c-0.338-2.048-0.524-4.148-0.524-6.291c0-21.178,17.169-38.345,38.345-38.345c21.178,0,38.345,17.167,38.345,38.345  c0,2.143-0.183,4.243-0.522,6.291h8.044h13.163h34.175c-8.404,0-15.217-6.81-15.217-15.217v-29.657  c0-8.404,6.812-15.217,15.217-15.217h0.899l-0.15-24.507c0.088-0.612,0.15-1.235,0.15-1.873V271.454z"/>
<rect x="311.285" y="158.762" style="fill:#B0BECC;" width="22.636" height="232.556"/>
<path style="fill:#FF5357;" d="M291.886,120.154h-28.341H236.24H73.407L21.73,182.016h0.002c0,0-13.648,16.165-13.648,39.135  v157.406c0,7.145,5.792,12.935,12.935,12.935h18.077h6.189c-0.338-2.048-0.524-4.148-0.524-6.293  c0-21.177,17.169-38.343,38.345-38.343c21.178,0,38.345,17.167,38.345,38.343c0,2.145-0.185,4.245-0.522,6.293h27.294  c-0.338-2.048-0.522-4.148-0.522-6.293c0-21.177,17.167-38.343,38.343-38.343c21.178,0,38.345,17.167,38.345,38.343  c0,2.145-0.183,4.245-0.522,6.293h24.586h43.432h12.935v-12.935v-81.816V153.547V133.09  C304.821,125.945,299.032,120.154,291.886,120.154z"/>
<g>
	<path style="fill:#E23740;" d="M21.019,391.491h18.077h6.189c-0.338-2.048-0.524-4.148-0.524-6.293   c0-9.474,3.444-18.141,9.139-24.831H8.084v18.189C8.084,385.702,13.876,391.491,21.019,391.491z"/>
	<path style="fill:#E23740;" d="M112.313,360.367c5.695,6.69,9.139,15.358,9.139,24.831c0,2.145-0.185,4.245-0.522,6.293h27.294   c-0.338-2.048-0.522-4.148-0.522-6.293c0-9.474,3.442-18.141,9.137-24.831H112.313z"/>
	<path style="fill:#E23740;" d="M224.392,385.199c0,2.145-0.183,4.245-0.522,6.293h24.585h43.432h12.935v-12.935v-18.189h-89.567   C220.949,367.058,224.392,375.725,224.392,385.199z"/>
</g>
<path style="fill:#ED3A47;" d="M36.423,383.77V226.364c0-22.969,13.648-39.135,13.648-39.135h-0.002l55.286-67.252H80.952  L29.276,181.84h0.002c0,0-13.648,16.165-13.648,39.135v157.406c0,7.145,5.792,12.935,12.935,12.935h10.301  C37.335,389.19,36.423,386.589,36.423,383.77z"/>
<path style="fill:#C6243B;" d="M36.423,360.191H15.629v18.189c0,7.145,5.792,12.935,12.935,12.935h10.301  c-1.531-2.127-2.443-4.727-2.443-7.545V360.191z"/>
<path style="fill:#FF6971;" d="M291.886,119.978h-28.341H236.24h-95.851c-3.101,13.876-4.749,28.299-4.749,43.109  c0,99.315,73.571,181.431,169.181,194.859v-61.381V153.37v-20.458C304.821,125.77,299.032,119.978,291.886,119.978z"/>
<path style="fill:#E23740;" d="M166.893,88.451h-15.735h-50.894l-26.482,31.703h77.377h143.396h93.021  c8.754,0,15.85-7.097,15.85-15.852s-7.097-15.852-15.85-15.852h-93.021H194.56"/>
<path style="fill:#ED3E4F;" d="M387.574,88.275h-93.021H194.56h-27.667h-15.735h-0.784c-4.183,10.169-7.541,20.763-9.986,31.703  h10.768h143.396h93.021c8.754,0,15.85-7.097,15.85-15.852C403.425,95.372,396.329,88.275,387.574,88.275z"/>
<polygon style="fill:#C6243B;" points="131.418,88.275 107.809,88.275 81.326,119.978 105.356,119.978 "/>
<path style="fill:#F7A539;" d="M503.916,376.275c0,8.407-6.814,15.217-15.217,15.217h-1.27c-8.404,0-15.217-6.81-15.217-15.217  v-29.657c0-8.404,6.812-15.217,15.217-15.217h1.27c8.402,0,15.217,6.812,15.217,15.217V376.275z"/>
<path style="fill:#97D3EE;" d="M438.164,258.519h32.164l-59.337-99.582h-59.249c-8.404,0-15.219,6.814-15.219,15.218V243.3  c0,8.404,6.814,15.219,15.219,15.219h59.114"/>
<g>
	<circle style="fill:#5B5E5E;" cx="394.218" cy="385.206" r="38.345"/>
	<circle style="fill:#5B5E5E;" cx="83.106" cy="385.195" r="38.345"/>
	<circle style="fill:#5B5E5E;" cx="186.045" cy="385.195" r="38.344"/>
</g>
<g>
	<circle style="fill:#E6E9ED;" cx="394.218" cy="385.206" r="13.171"/>
	<path style="fill:#E6E9ED;" d="M96.278,385.199c0,7.274-5.897,13.173-13.171,13.173s-13.171-5.899-13.171-13.173   c0-7.271,5.897-13.169,13.171-13.169C90.381,372.031,96.278,377.927,96.278,385.199z"/>
	<path style="fill:#E6E9ED;" d="M199.217,385.199c0,7.274-5.897,13.173-13.171,13.173s-13.171-5.899-13.171-13.173   c0-7.271,5.897-13.169,13.171-13.169C193.32,372.031,199.217,377.927,199.217,385.199z"/>
</g>
<path style="fill:#E87528;" d="M488.065,376.099v-29.657c0-5.762,3.202-10.775,7.924-13.358c-2.164-1.186-4.649-1.859-7.291-1.859  h-1.27c-8.404,0-15.217,6.812-15.217,15.217v29.657c0,8.406,6.812,15.217,15.217,15.217h1.27c2.642,0,5.126-0.676,7.291-1.859  C491.268,386.874,488.065,381.861,488.065,376.099z"/>
<path style="fill:#49B5CE;" d="M364.547,243.124v-69.147c0-8.403,6.814-15.218,15.219-15.218H357.13  c-8.404,0-15.219,6.814-15.219,15.218v69.147c0,8.404,6.814,15.217,15.219,15.217h22.636  C371.362,258.341,364.547,251.529,364.547,243.124z"/>
<g>
	<path style="fill:#464949;" d="M382.884,385.025c0-17.425,11.625-32.125,27.538-36.792c-3.43-1.005-7.054-1.553-10.809-1.553   c-21.176,0-38.345,17.167-38.345,38.345c0,21.176,17.169,38.345,38.345,38.345c3.755,0,7.38-0.55,10.809-1.555   C394.509,417.147,382.884,402.446,382.884,385.025z"/>
	<path style="fill:#464949;" d="M72.846,385.023c0-17.423,11.625-32.122,27.538-36.79c-3.43-1.005-7.054-1.553-10.809-1.553   c-21.177,0-38.345,17.167-38.345,38.343c0,21.178,17.169,38.347,38.345,38.347c3.755,0,7.38-0.55,10.809-1.555   C84.471,417.147,72.846,402.446,72.846,385.023z"/>
	<path style="fill:#464949;" d="M175.787,385.023c0-17.423,11.623-32.12,27.536-36.79c-3.43-1.005-7.054-1.553-10.809-1.553   c-21.176,0-38.343,17.167-38.343,38.343c0,21.178,17.167,38.347,38.343,38.347c3.755,0,7.38-0.55,10.809-1.555   C187.41,417.147,175.787,402.446,175.787,385.023z"/>
</g>
<g>
	<path style="fill:#231F20;" d="M370.765,278.932h-29.167c-4.466,0-8.084,3.618-8.084,8.084s3.618,8.084,8.084,8.084h29.167   c4.466,0,8.084-3.618,8.084-8.084S375.229,278.932,370.765,278.932z"/>
	<path style="fill:#231F20;" d="M267.828,331.97c4.466,0,8.084-3.62,8.084-8.084V152.139c0-4.465-3.618-8.084-8.084-8.084   s-8.084,3.62-8.084,8.084v171.746C259.744,328.35,263.362,331.97,267.828,331.97z"/>
	<path style="fill:#231F20;" d="M230.833,331.97c4.466,0,8.084-3.62,8.084-8.084V152.139c0-4.465-3.618-8.084-8.084-8.084   s-8.084,3.62-8.084,8.084v171.746C222.749,328.35,226.369,331.97,230.833,331.97z"/>
	<path style="fill:#231F20;" d="M193.84,331.97c4.466,0,8.084-3.62,8.084-8.084V152.139c0-4.465-3.618-8.084-8.084-8.084   c-4.466,0-8.084,3.62-8.084,8.084v171.746C185.756,328.35,189.374,331.97,193.84,331.97z"/>
	<path style="fill:#231F20;" d="M119.85,331.97c4.466,0,8.084-3.62,8.084-8.084V152.139c0-4.465-3.618-8.084-8.084-8.084   s-8.084,3.62-8.084,8.084v171.746C111.766,328.35,115.385,331.97,119.85,331.97z"/>
	<path style="fill:#231F20;" d="M82.857,331.97c4.466,0,8.084-3.62,8.084-8.084V158.937c0-4.465-3.618-8.084-8.084-8.084   s-8.084,3.62-8.084,8.084v164.949C74.772,328.35,78.392,331.97,82.857,331.97z"/>
	<path style="fill:#231F20;" d="M45.863,331.97c4.466,0,8.084-3.62,8.084-8.084V199.567c0-4.465-3.618-8.084-8.084-8.084   s-8.084,3.62-8.084,8.084v124.319C37.779,328.35,41.398,331.97,45.863,331.97z"/>
	<path style="fill:#231F20;" d="M156.844,331.97c4.466,0,8.084-3.62,8.084-8.084V152.139c0-4.465-3.618-8.084-8.084-8.084   s-8.084,3.62-8.084,8.084v171.746C148.76,328.35,152.379,331.97,156.844,331.97z"/>
	<path style="fill:#231F20;" d="M394.223,363.947c-11.72,0-21.255,9.535-21.255,21.255s9.535,21.255,21.255,21.255   s21.255-9.535,21.255-21.255C415.478,373.481,405.943,363.947,394.223,363.947z M394.223,390.287c-2.805,0-5.087-2.282-5.087-5.087   c0-2.804,2.282-5.087,5.087-5.087c2.805,0,5.087,2.282,5.087,5.087C399.309,388.005,397.027,390.287,394.223,390.287z"/>
	<path style="fill:#231F20;" d="M83.108,363.947c-11.72,0-21.255,9.534-21.255,21.253c0,11.721,9.535,21.257,21.255,21.257   s21.255-9.536,21.255-21.257C104.362,373.48,94.828,363.947,83.108,363.947z M83.108,390.287c-2.805,0-5.087-2.283-5.087-5.089   c0-2.804,2.282-5.084,5.087-5.084s5.087,2.281,5.087,5.084C88.193,388.004,85.911,390.287,83.108,390.287z"/>
	<path style="fill:#231F20;" d="M186.047,363.947c-11.72,0-21.255,9.534-21.255,21.253c0,11.721,9.535,21.257,21.255,21.257   s21.255-9.536,21.255-21.257C207.301,373.48,197.767,363.947,186.047,363.947z M186.047,390.287c-2.805,0-5.087-2.283-5.087-5.089   c0-2.804,2.282-5.084,5.087-5.084s5.087,2.281,5.087,5.084C191.132,388.004,188.85,390.287,186.047,390.287z"/>
	<path style="fill:#231F20;" d="M496.372,324.621l-0.106-17.228c0.098-0.832,0.147-1.614,0.147-2.372v-33.567   c0-11.59-9.429-21.019-21.019-21.019h-0.471l-56.985-95.636c-1.459-2.448-4.097-3.946-6.945-3.946h-59.249h-38.838V133.09   c0-1.672-0.217-3.291-0.587-4.851h75.258c13.198,0,23.935-10.738,23.935-23.936c0-13.199-10.737-23.936-23.935-23.936H194.56   c-4.466,0-8.084,3.62-8.084,8.084s3.618,8.084,8.084,8.084h193.014c4.282,0,7.766,3.484,7.766,7.767s-3.484,7.767-7.766,7.767   h-95.688H91.067l12.977-15.536h62.849c4.466,0,8.084-3.62,8.084-8.084c0-4.465-3.618-8.084-8.084-8.084h-66.629   c-2.396,0-4.668,1.063-6.204,2.902l-25.294,30.28c-0.573,0.403-1.105,0.873-1.563,1.423l-51.646,61.829   C14.92,177.553,0,195.52,0,221.152v139.217v18.189c0,11.59,9.429,21.019,21.019,21.019h17.948   c6.069,18.585,23.556,32.054,44.14,32.054s38.072-13.47,44.14-32.054h14.66c6.067,18.585,23.555,32.054,44.138,32.054   c20.583,0,38.072-13.47,44.14-32.054h74.635h45.261c6.067,18.585,23.556,32.054,44.141,32.054s38.073-13.47,44.141-32.054h49.066   c0.008,0,0.015,0,0.022,0h1.248c12.849,0,23.301-10.452,23.301-23.301v-29.658C512,336.457,505.46,327.801,496.372,324.621z    M27.938,187.196l49.249-58.957h214.699c2.674,0,4.851,2.175,4.851,4.851v25.847v193.347h-77.982   c-0.064-0.063-0.129-0.122-0.193-0.184c-0.269-0.264-0.544-0.524-0.819-0.781c-0.261-0.244-0.521-0.487-0.787-0.725   c-0.282-0.252-0.57-0.498-0.858-0.744c-0.272-0.231-0.542-0.461-0.818-0.687c-0.294-0.239-0.595-0.472-0.896-0.705   c-0.281-0.218-0.562-0.435-0.848-0.647c-0.307-0.226-0.62-0.445-0.932-0.664c-0.29-0.204-0.58-0.407-0.875-0.605   c-0.318-0.212-0.642-0.416-0.967-0.621c-0.301-0.19-0.599-0.382-0.904-0.564c-0.33-0.197-0.665-0.386-0.999-0.576   c-0.308-0.175-0.614-0.351-0.927-0.52c-0.342-0.183-0.69-0.357-1.037-0.532c-0.315-0.158-0.627-0.321-0.946-0.473   c-0.354-0.168-0.712-0.326-1.071-0.485c-0.321-0.143-0.64-0.29-0.966-0.426c-0.365-0.153-0.736-0.293-1.106-0.437   c-0.327-0.127-0.651-0.258-0.981-0.377c-0.376-0.136-0.758-0.26-1.138-0.386c-0.332-0.111-0.662-0.226-0.996-0.33   c-0.39-0.12-0.786-0.226-1.18-0.336c-0.332-0.093-0.662-0.192-0.997-0.277c-0.405-0.103-0.817-0.191-1.227-0.284   c-0.332-0.074-0.661-0.157-0.995-0.224c-0.424-0.086-0.854-0.155-1.282-0.23c-0.326-0.056-0.648-0.121-0.977-0.17   c-0.452-0.069-0.91-0.119-1.366-0.174c-0.31-0.038-0.618-0.084-0.93-0.115c-0.506-0.051-1.016-0.082-1.527-0.116   c-0.267-0.018-0.531-0.046-0.801-0.059c-0.781-0.039-1.567-0.059-2.357-0.059s-1.577,0.021-2.357,0.059   c-0.268,0.014-0.534,0.042-0.801,0.059c-0.51,0.034-1.022,0.066-1.527,0.116c-0.313,0.031-0.62,0.079-0.93,0.115   c-0.456,0.055-0.914,0.106-1.366,0.174c-0.328,0.05-0.651,0.114-0.977,0.17c-0.428,0.074-0.858,0.143-1.282,0.23   c-0.335,0.068-0.665,0.15-0.997,0.225c-0.409,0.093-0.819,0.18-1.223,0.283c-0.336,0.086-0.667,0.185-1.001,0.278   c-0.393,0.11-0.788,0.216-1.177,0.335c-0.335,0.103-0.665,0.219-0.997,0.33c-0.38,0.126-0.762,0.25-1.137,0.386   c-0.331,0.12-0.655,0.251-0.983,0.378c-0.369,0.143-0.739,0.284-1.104,0.435c-0.327,0.137-0.647,0.283-0.97,0.428   c-0.357,0.16-0.715,0.316-1.067,0.483c-0.32,0.152-0.634,0.315-0.95,0.474c-0.346,0.175-0.693,0.347-1.035,0.53   c-0.314,0.168-0.621,0.345-0.929,0.521c-0.334,0.189-0.668,0.376-0.997,0.573c-0.306,0.184-0.607,0.376-0.909,0.567   c-0.322,0.204-0.646,0.406-0.963,0.618c-0.296,0.197-0.586,0.402-0.878,0.607c-0.312,0.219-0.624,0.437-0.93,0.662   c-0.287,0.211-0.569,0.43-0.85,0.649c-0.3,0.232-0.599,0.463-0.893,0.702c-0.278,0.225-0.55,0.458-0.822,0.69   c-0.287,0.245-0.573,0.489-0.854,0.741c-0.267,0.239-0.529,0.483-0.79,0.729c-0.275,0.258-0.549,0.515-0.817,0.779   c-0.064,0.063-0.13,0.122-0.194,0.185h-37.525c-0.064-0.063-0.129-0.122-0.193-0.184c-0.269-0.264-0.544-0.524-0.819-0.781   c-0.261-0.244-0.521-0.487-0.787-0.725c-0.282-0.252-0.57-0.498-0.858-0.744c-0.272-0.231-0.542-0.461-0.818-0.687   c-0.294-0.239-0.595-0.472-0.896-0.705c-0.281-0.218-0.562-0.435-0.848-0.647c-0.307-0.226-0.62-0.445-0.932-0.664   c-0.29-0.204-0.58-0.407-0.875-0.605c-0.318-0.212-0.642-0.416-0.967-0.621c-0.301-0.19-0.599-0.382-0.904-0.564   c-0.33-0.197-0.665-0.386-0.999-0.576c-0.308-0.175-0.614-0.351-0.927-0.52c-0.342-0.183-0.69-0.357-1.037-0.532   c-0.315-0.158-0.627-0.321-0.946-0.473c-0.354-0.168-0.712-0.326-1.071-0.485c-0.321-0.143-0.64-0.29-0.966-0.426   c-0.365-0.153-0.736-0.293-1.106-0.437c-0.327-0.127-0.651-0.258-0.981-0.377c-0.376-0.136-0.758-0.26-1.138-0.386   c-0.332-0.111-0.662-0.226-0.996-0.33c-0.39-0.12-0.786-0.226-1.18-0.336c-0.332-0.093-0.662-0.192-0.997-0.277   c-0.405-0.103-0.817-0.191-1.227-0.283c-0.332-0.074-0.661-0.157-0.995-0.224c-0.424-0.086-0.854-0.155-1.282-0.23   c-0.326-0.056-0.648-0.121-0.977-0.17c-0.452-0.069-0.91-0.119-1.366-0.174c-0.31-0.038-0.618-0.084-0.93-0.115   c-0.506-0.051-1.016-0.082-1.527-0.116c-0.267-0.018-0.531-0.046-0.801-0.059c-0.781-0.039-1.567-0.059-2.357-0.059   c-0.79,0-1.577,0.021-2.357,0.059c-0.268,0.014-0.534,0.042-0.801,0.059c-0.51,0.035-1.022,0.066-1.527,0.116   c-0.313,0.031-0.62,0.078-0.93,0.115c-0.456,0.055-0.914,0.106-1.366,0.174c-0.328,0.05-0.651,0.114-0.977,0.17   c-0.428,0.074-0.858,0.143-1.282,0.23c-0.335,0.068-0.665,0.15-0.997,0.225c-0.409,0.093-0.819,0.18-1.223,0.283   c-0.337,0.086-0.668,0.185-1.001,0.278c-0.392,0.11-0.787,0.215-1.176,0.334c-0.336,0.103-0.666,0.22-0.999,0.33   c-0.379,0.126-0.761,0.249-1.137,0.386c-0.33,0.12-0.654,0.251-0.981,0.377c-0.37,0.143-0.742,0.285-1.106,0.437   c-0.326,0.136-0.646,0.283-0.967,0.427c-0.358,0.16-0.717,0.316-1.069,0.484c-0.32,0.152-0.634,0.315-0.95,0.474   c-0.346,0.175-0.693,0.347-1.035,0.53c-0.314,0.168-0.622,0.346-0.932,0.522c-0.333,0.189-0.666,0.376-0.994,0.572   c-0.307,0.184-0.608,0.377-0.911,0.568c-0.321,0.204-0.645,0.405-0.96,0.617c-0.296,0.197-0.587,0.403-0.878,0.607   c-0.312,0.219-0.624,0.437-0.93,0.662c-0.287,0.211-0.567,0.429-0.849,0.647c-0.301,0.232-0.6,0.464-0.895,0.703   c-0.277,0.225-0.55,0.457-0.821,0.689c-0.288,0.245-0.575,0.489-0.856,0.742c-0.267,0.238-0.528,0.483-0.789,0.728   c-0.275,0.258-0.55,0.516-0.818,0.78c-0.064,0.063-0.13,0.122-0.193,0.184H16.168V221.152   C16.168,201.677,27.695,187.49,27.938,187.196z M296.737,383.407h-64.294c-0.004-0.103-0.015-0.206-0.019-0.308   c0-0.002,0-0.004,0-0.006c-0.013-0.285-0.032-0.566-0.051-0.849c-0.019-0.302-0.035-0.604-0.06-0.904   c-0.016-0.192-0.035-0.383-0.053-0.575c-0.026-0.271-0.057-0.539-0.087-0.807c-0.025-0.219-0.05-0.438-0.078-0.656   c-0.036-0.279-0.072-0.557-0.112-0.835c-0.033-0.232-0.07-0.464-0.108-0.694c-0.024-0.149-0.053-0.296-0.079-0.444   c-0.065-0.376-0.129-0.751-0.203-1.124c-0.069-0.35-0.147-0.698-0.224-1.046c-0.087-0.393-0.176-0.787-0.273-1.177   c-0.086-0.347-0.181-0.691-0.275-1.035c-0.106-0.384-0.211-0.766-0.327-1.147c-0.103-0.343-0.213-0.682-0.326-1.021   c-0.123-0.374-0.247-0.747-0.378-1.117c-0.119-0.334-0.244-0.665-0.371-0.996c-0.027-0.07-0.05-0.142-0.078-0.212h67.392v14.955   H296.737z M129.483,383.092c-0.013-0.288-0.033-0.573-0.052-0.86c-0.019-0.295-0.033-0.592-0.058-0.887   c-0.016-0.195-0.034-0.388-0.054-0.582c-0.026-0.276-0.058-0.551-0.089-0.826c-0.024-0.207-0.047-0.414-0.073-0.621   c-0.036-0.285-0.073-0.569-0.114-0.853c-0.034-0.237-0.072-0.473-0.11-0.709c-0.023-0.136-0.049-0.271-0.071-0.405   c-0.066-0.384-0.132-0.767-0.207-1.148c-0.069-0.35-0.147-0.698-0.224-1.046c-0.087-0.393-0.176-0.787-0.273-1.177   c-0.086-0.347-0.181-0.691-0.275-1.035c-0.106-0.384-0.211-0.766-0.327-1.147c-0.103-0.343-0.213-0.682-0.326-1.021   c-0.123-0.374-0.247-0.747-0.378-1.117c-0.12-0.337-0.246-0.67-0.374-1.005c-0.011-0.029-0.022-0.059-0.033-0.088   c-0.015-0.039-0.027-0.078-0.042-0.115h16.346c-0.027,0.069-0.05,0.139-0.075,0.208c-0.127,0.332-0.253,0.665-0.373,1.001   c-0.131,0.369-0.255,0.741-0.377,1.113c-0.111,0.341-0.222,0.68-0.326,1.024c-0.114,0.379-0.221,0.761-0.326,1.145   c-0.095,0.345-0.189,0.689-0.275,1.036c-0.097,0.39-0.185,0.784-0.273,1.177c-0.078,0.348-0.154,0.695-0.224,1.046   c-0.073,0.373-0.138,0.749-0.203,1.125c-0.026,0.147-0.054,0.293-0.078,0.441c-0.038,0.232-0.074,0.465-0.108,0.697   c-0.041,0.277-0.077,0.555-0.112,0.834c-0.028,0.218-0.053,0.437-0.078,0.655c-0.03,0.27-0.061,0.538-0.087,0.808   c-0.018,0.192-0.037,0.383-0.053,0.574c-0.025,0.301-0.041,0.604-0.06,0.904c-0.018,0.282-0.038,0.565-0.051,0.849   c0,0.002,0,0.004,0,0.006c-0.004,0.103-0.015,0.205-0.019,0.308h-10.149C129.499,383.301,129.489,383.198,129.483,383.092z    M16.168,378.557v-10.105h23.643c-0.014,0.036-0.026,0.072-0.039,0.108c-0.012,0.031-0.023,0.061-0.034,0.093   c-0.128,0.335-0.255,0.67-0.376,1.009c-0.132,0.368-0.255,0.739-0.377,1.111c-0.112,0.341-0.223,0.682-0.327,1.026   c-0.114,0.377-0.22,0.759-0.324,1.14c-0.095,0.347-0.19,0.693-0.277,1.043c-0.096,0.387-0.183,0.777-0.271,1.167   c-0.078,0.35-0.156,0.701-0.225,1.054c-0.074,0.379-0.14,0.762-0.206,1.145c-0.023,0.135-0.05,0.269-0.071,0.404   c-0.039,0.237-0.077,0.475-0.111,0.715c-0.041,0.28-0.078,0.563-0.113,0.845c-0.027,0.208-0.051,0.416-0.074,0.625   c-0.031,0.276-0.064,0.552-0.089,0.83c-0.018,0.192-0.037,0.384-0.053,0.577c-0.025,0.294-0.04,0.591-0.058,0.886   c-0.018,0.288-0.039,0.574-0.052,0.863c0,0.01-0.001,0.019-0.002,0.028c-0.004,0.096-0.014,0.19-0.018,0.286H21.019   C18.345,383.407,16.168,381.232,16.168,378.557z M83.108,415.463c-14.836,0-27.203-10.735-29.766-24.843   c-0.024-0.217-0.064-0.429-0.103-0.64c-0.088-0.554-0.149-1.108-0.207-1.662c-0.026-0.248-0.063-0.497-0.083-0.744   c-0.001-0.016-0.002-0.032-0.003-0.049c-0.061-0.78-0.098-1.558-0.098-2.326c0-0.834,0.042-1.665,0.111-2.491   c0.008-0.096,0.013-0.192,0.022-0.287c0.075-0.818,0.184-1.631,0.327-2.436c0.012-0.069,0.025-0.137,0.037-0.205   c0.153-0.836,0.336-1.668,0.559-2.487c0.001-0.003,0.002-0.005,0.002-0.009c0.46-1.696,1.069-3.347,1.815-4.937   c0.008-0.015,0.013-0.03,0.02-0.045c0.347-0.736,0.731-1.455,1.137-2.162c0.058-0.1,0.114-0.203,0.174-0.302   c0.384-0.65,0.795-1.285,1.228-1.907c0.099-0.142,0.199-0.282,0.301-0.423c0.426-0.59,0.872-1.165,1.341-1.726   c5.555-6.623,13.887-10.844,23.187-10.844c9.301,0,17.633,4.221,23.189,10.845c0.469,0.559,0.914,1.134,1.339,1.722   c0.102,0.141,0.203,0.282,0.303,0.426c0.432,0.621,0.843,1.255,1.226,1.904c0.059,0.1,0.116,0.203,0.175,0.304   c0.406,0.706,0.789,1.425,1.136,2.16c0.008,0.016,0.014,0.032,0.022,0.049c0.746,1.589,1.354,3.239,1.814,4.934   c0.001,0.003,0.002,0.008,0.003,0.011c0.222,0.818,0.405,1.648,0.558,2.485c0.013,0.069,0.025,0.139,0.038,0.208   c0.141,0.805,0.25,1.618,0.326,2.435c0.009,0.095,0.014,0.192,0.022,0.287c0.069,0.827,0.111,1.657,0.111,2.491   c0,0.764-0.037,1.54-0.098,2.32c-0.006,0.088-0.013,0.177-0.02,0.265c-0.068,0.781-0.164,1.567-0.291,2.353   C110.594,404.483,98.112,415.463,83.108,415.463z M186.047,415.463c-14.842,0-27.211-10.744-29.766-24.862   c-0.023-0.209-0.064-0.413-0.102-0.618c-0.088-0.556-0.15-1.112-0.208-1.67c-0.025-0.234-0.059-0.469-0.078-0.703   c-0.003-0.038-0.005-0.074-0.009-0.112c-0.059-0.771-0.096-1.539-0.096-2.3c0-0.833,0.042-1.663,0.111-2.489   c0.008-0.097,0.013-0.195,0.023-0.292c0.075-0.814,0.184-1.623,0.324-2.426c0.013-0.074,0.027-0.149,0.04-0.223   c0.152-0.83,0.334-1.654,0.554-2.465c0.003-0.014,0.008-0.028,0.012-0.042c0.456-1.674,1.056-3.305,1.791-4.875   c0.016-0.035,0.031-0.07,0.047-0.105c0.338-0.718,0.714-1.419,1.109-2.108c0.069-0.121,0.137-0.243,0.208-0.362   c0.373-0.632,0.774-1.248,1.193-1.853c0.112-0.161,0.225-0.319,0.34-0.478c0.415-0.573,0.849-1.134,1.305-1.679   c5.555-6.633,13.892-10.861,23.201-10.861c9.313,0,17.653,4.231,23.208,10.867c0.453,0.541,0.884,1.097,1.296,1.666   c0.117,0.163,0.234,0.326,0.348,0.489c0.417,0.602,0.815,1.215,1.187,1.842c0.073,0.123,0.143,0.248,0.215,0.372   c0.393,0.687,0.766,1.385,1.104,2.1c0.018,0.038,0.034,0.078,0.052,0.115c0.733,1.568,1.332,3.196,1.787,4.866   c0.004,0.015,0.009,0.03,0.013,0.045c0.22,0.812,0.402,1.635,0.554,2.464c0.013,0.074,0.027,0.149,0.04,0.223   c0.14,0.802,0.249,1.611,0.324,2.426c0.009,0.097,0.014,0.195,0.023,0.292c0.068,0.826,0.111,1.656,0.111,2.489   c0,0.761-0.037,1.53-0.096,2.3c-0.008,0.102-0.015,0.205-0.024,0.307c-0.068,0.776-0.162,1.553-0.289,2.328   C213.534,404.482,201.051,415.463,186.047,415.463z M394.223,415.463c-14.837,0-27.205-10.736-29.766-24.845   c-0.036-0.333-0.088-0.661-0.163-0.981c-0.101-0.689-0.175-1.378-0.23-2.064c-0.009-0.106-0.017-0.21-0.024-0.316   c-0.049-0.69-0.078-1.376-0.078-2.054c0-16.686,13.575-30.261,30.261-30.261s30.261,13.575,30.261,30.261   c0,0.761-0.037,1.531-0.096,2.302c-0.008,0.1-0.014,0.202-0.023,0.302c-0.068,0.779-0.163,1.561-0.291,2.339   C421.707,404.486,409.226,415.463,394.223,415.463z M440.619,383.407c-0.004-0.105-0.015-0.208-0.019-0.313   c-0.016-0.358-0.043-0.714-0.068-1.069c-0.029-0.421-0.056-0.844-0.096-1.262c-0.033-0.355-0.078-0.706-0.12-1.059   c-0.05-0.416-0.098-0.831-0.158-1.244c-0.051-0.347-0.111-0.691-0.169-1.036c-0.07-0.412-0.14-0.822-0.22-1.23   c-0.068-0.342-0.143-0.68-0.218-1.02c-0.089-0.403-0.179-0.806-0.279-1.205c-0.084-0.336-0.175-0.669-0.266-1.002   c-0.109-0.397-0.219-0.791-0.337-1.184c-0.099-0.329-0.206-0.655-0.313-0.981c-0.127-0.389-0.257-0.776-0.393-1.16   c-0.115-0.322-0.236-0.641-0.357-0.959c-0.146-0.38-0.293-0.759-0.448-1.135c-0.129-0.315-0.265-0.626-0.401-0.938   c-0.163-0.371-0.329-0.741-0.501-1.107c-0.144-0.307-0.293-0.611-0.444-0.914c-0.18-0.361-0.363-0.72-0.552-1.076   c-0.158-0.3-0.321-0.596-0.486-0.891c-0.196-0.351-0.397-0.7-0.602-1.046c-0.172-0.29-0.347-0.578-0.526-0.864   c-0.212-0.341-0.429-0.678-0.65-1.012c-0.185-0.281-0.374-0.562-0.566-0.839c-0.227-0.329-0.46-0.654-0.696-0.978   c-0.198-0.273-0.399-0.542-0.604-0.811c-0.243-0.318-0.49-0.631-0.741-0.942c-0.211-0.262-0.423-0.522-0.639-0.779   c-0.258-0.306-0.52-0.606-0.785-0.905c-0.223-0.252-0.448-0.503-0.677-0.751c-0.271-0.292-0.546-0.579-0.824-0.863   c-0.235-0.241-0.47-0.482-0.71-0.718c-0.285-0.28-0.574-0.553-0.867-0.826c-0.246-0.23-0.492-0.459-0.742-0.683   c-0.298-0.266-0.6-0.525-0.904-0.784c-0.257-0.218-0.512-0.437-0.773-0.649c-0.31-0.252-0.625-0.497-0.942-0.741   c-0.266-0.206-0.532-0.412-0.803-0.612c-0.322-0.237-0.65-0.467-0.978-0.696c-0.276-0.193-0.551-0.387-0.831-0.575   c-0.334-0.223-0.674-0.437-1.014-0.651c-0.285-0.18-0.568-0.361-0.857-0.535c-0.344-0.207-0.694-0.403-1.044-0.602   c-0.295-0.167-0.589-0.336-0.887-0.497c-0.355-0.19-0.715-0.37-1.074-0.551c-0.303-0.153-0.605-0.308-0.911-0.455   c-0.365-0.175-0.737-0.337-1.108-0.502c-0.309-0.138-0.617-0.279-0.93-0.41c-0.376-0.157-0.759-0.303-1.14-0.451   c-0.316-0.123-0.629-0.249-0.949-0.365c-0.387-0.14-0.779-0.266-1.169-0.397c-0.322-0.107-0.641-0.219-0.966-0.319   c-0.399-0.123-0.803-0.231-1.206-0.343c-0.324-0.091-0.646-0.186-0.973-0.271c-0.414-0.106-0.833-0.195-1.253-0.29   c-0.323-0.073-0.643-0.153-0.969-0.219c-0.432-0.087-0.871-0.158-1.307-0.234c-0.318-0.055-0.633-0.117-0.952-0.166   c-0.459-0.07-0.924-0.121-1.388-0.177c-0.303-0.037-0.604-0.082-0.909-0.113c-0.511-0.052-1.026-0.083-1.541-0.117   c-0.263-0.017-0.523-0.045-0.787-0.058c-0.781-0.039-1.567-0.059-2.357-0.059c-0.791,0-1.577,0.02-2.357,0.059   c-0.264,0.013-0.523,0.041-0.786,0.058c-0.516,0.035-1.033,0.066-1.544,0.117c-0.304,0.03-0.605,0.077-0.908,0.113   c-0.463,0.056-0.929,0.108-1.389,0.177c-0.319,0.049-0.633,0.111-0.949,0.166c-0.438,0.075-0.877,0.147-1.311,0.235   c-0.326,0.066-0.645,0.146-0.967,0.219c-0.419,0.095-0.84,0.184-1.254,0.29c-0.327,0.083-0.648,0.18-0.972,0.269   c-0.403,0.112-0.808,0.221-1.207,0.344c-0.323,0.1-0.642,0.212-0.963,0.318c-0.392,0.13-0.786,0.258-1.173,0.398   c-0.318,0.115-0.631,0.243-0.946,0.364c-0.382,0.148-0.765,0.293-1.143,0.452c-0.313,0.13-0.62,0.273-0.929,0.41   c-0.371,0.165-0.744,0.328-1.109,0.502c-0.306,0.146-0.606,0.301-0.908,0.454c-0.36,0.182-0.722,0.362-1.077,0.553   c-0.297,0.16-0.59,0.329-0.884,0.495c-0.35,0.198-0.702,0.396-1.047,0.603c-0.289,0.174-0.571,0.355-0.856,0.534   c-0.341,0.215-0.68,0.428-1.014,0.651c-0.28,0.188-0.555,0.382-0.831,0.575c-0.328,0.23-0.656,0.458-0.978,0.696   c-0.272,0.201-0.537,0.406-0.803,0.612c-0.317,0.244-0.632,0.488-0.942,0.741c-0.261,0.212-0.516,0.43-0.773,0.649   c-0.304,0.259-0.607,0.517-0.904,0.784c-0.251,0.224-0.496,0.454-0.742,0.683c-0.292,0.273-0.582,0.546-0.867,0.826   c-0.239,0.236-0.474,0.476-0.709,0.717c-0.278,0.286-0.554,0.572-0.825,0.866c-0.229,0.247-0.453,0.498-0.676,0.749   c-0.265,0.3-0.528,0.6-0.785,0.905c-0.216,0.257-0.428,0.516-0.638,0.777c-0.251,0.313-0.5,0.626-0.743,0.945   c-0.204,0.266-0.403,0.536-0.601,0.806c-0.237,0.324-0.47,0.65-0.698,0.981c-0.191,0.277-0.379,0.555-0.565,0.836   c-0.221,0.335-0.438,0.673-0.65,1.013c-0.178,0.286-0.354,0.573-0.526,0.864c-0.205,0.346-0.405,0.694-0.603,1.047   c-0.165,0.294-0.327,0.591-0.485,0.889c-0.19,0.357-0.373,0.717-0.553,1.079c-0.151,0.303-0.299,0.606-0.443,0.912   c-0.172,0.366-0.338,0.735-0.501,1.107c-0.137,0.311-0.272,0.623-0.401,0.938c-0.155,0.375-0.303,0.755-0.448,1.135   c-0.122,0.319-0.243,0.638-0.357,0.959c-0.137,0.384-0.266,0.772-0.393,1.16c-0.107,0.326-0.212,0.652-0.313,0.981   c-0.119,0.392-0.229,0.787-0.337,1.184c-0.092,0.333-0.182,0.666-0.266,1.002c-0.1,0.399-0.19,0.802-0.279,1.205   c-0.075,0.34-0.151,0.678-0.218,1.02c-0.081,0.407-0.151,0.819-0.22,1.23c-0.058,0.345-0.119,0.689-0.169,1.036   c-0.06,0.413-0.109,0.828-0.158,1.244c-0.042,0.352-0.085,0.704-0.12,1.059c-0.04,0.418-0.068,0.841-0.096,1.262   c-0.024,0.356-0.052,0.711-0.068,1.069c-0.004,0.105-0.016,0.208-0.019,0.313h-34.922v-23.04V167.021h16.656   c-0.725,2.25-1.121,4.646-1.121,7.133V243.3c0,12.849,10.453,23.303,23.303,23.303h59.114c4.466,0,8.084-3.618,8.084-8.084   c0-4.465-3.618-8.084-8.084-8.084h-59.114c-3.933,0-7.135-3.2-7.135-7.135v-69.146c0-3.933,3.201-7.133,7.135-7.133h54.655   l49.703,83.414h-17.937c-4.466,0-8.084,3.62-8.084,8.084c0,4.466,3.618,8.084,8.084,8.084h32.164h5.065   c2.674,0,4.851,2.175,4.851,4.851v33.567c0,0.17-0.023,0.413-0.067,0.719c-0.058,0.399-0.085,0.801-0.083,1.204l0.108,17.521   c-0.059,0.019-0.115,0.045-0.175,0.065c-0.485,0.163-0.965,0.34-1.435,0.534c-0.047,0.019-0.097,0.037-0.144,0.057   c-0.499,0.209-0.986,0.439-1.466,0.68c-0.098,0.05-0.195,0.099-0.292,0.15c-0.476,0.249-0.945,0.51-1.402,0.789   c-0.04,0.025-0.078,0.051-0.117,0.075c-0.431,0.268-0.852,0.552-1.263,0.846c-0.077,0.055-0.155,0.109-0.231,0.164   c-0.426,0.313-0.84,0.638-1.243,0.978c-0.075,0.064-0.149,0.129-0.223,0.193c-0.388,0.335-0.767,0.681-1.132,1.041   c-0.025,0.024-0.051,0.047-0.074,0.071c-0.378,0.377-0.741,0.77-1.093,1.172c-0.072,0.082-0.143,0.165-0.215,0.248   c-0.344,0.403-0.677,0.816-0.993,1.243c-0.038,0.051-0.072,0.102-0.109,0.153c-0.292,0.401-0.57,0.812-0.838,1.231   c-0.05,0.078-0.1,0.153-0.148,0.231c-0.278,0.448-0.539,0.908-0.787,1.375c-0.05,0.094-0.097,0.189-0.146,0.284   c-0.239,0.469-0.469,0.944-0.677,1.431c-0.008,0.018-0.017,0.037-0.025,0.055c-0.211,0.498-0.401,1.007-0.578,1.522   c-0.038,0.109-0.075,0.219-0.111,0.329c-0.167,0.51-0.319,1.025-0.452,1.55c-0.019,0.079-0.036,0.158-0.055,0.237   c-0.116,0.486-0.218,0.978-0.304,1.476c-0.016,0.092-0.035,0.181-0.049,0.273c-0.086,0.538-0.152,1.082-0.201,1.632   c-0.011,0.119-0.018,0.238-0.027,0.357c-0.042,0.567-0.07,1.137-0.07,1.715v29.657c0,0.554,0.027,1.102,0.065,1.646   c0.009,0.127,0.018,0.253,0.029,0.379c0.046,0.534,0.106,1.063,0.188,1.586c0.01,0.063,0.023,0.123,0.033,0.185   c0.079,0.475,0.174,0.945,0.28,1.411c0.027,0.119,0.053,0.238,0.082,0.357c0.123,0.5,0.26,0.994,0.415,1.48   c0.01,0.029,0.015,0.059,0.025,0.088h-24.629V383.407z M495.832,376.275c0,3.932-3.2,7.132-7.132,7.132h-1.248h-0.011   c-0.004,0-0.007,0-0.011,0c-3.932,0-7.132-3.2-7.132-7.132v-29.657c0-3.932,3.2-7.132,7.132-7.132h0.899h0.371   c3.932,0,7.132,3.2,7.132,7.132V376.275z"/>
</g>
<g>
</g>
<g>
</g>
<g>
</g>
<g>
</g>
<g>
</g>
<g>
</g>
<g>
</g>
<g>
</g>
<g>
</g>
<g>
</g>
<g>
</g>
<g>
</g>
<g>
</g>
<g>
</g>
<g>
</g>
</svg>
