<?xml version="1.0" encoding="iso-8859-1"?>
<!-- Generator: Adobe Illustrator 19.0.0, SVG Export Plug-In . SVG Version: 6.00 Build 0)  -->
<svg xmlns="http://www.w3.org/2000/svg" xmlns:xlink="http://www.w3.org/1999/xlink" version="1.1" id="Layer_1" x="0px" y="0px" viewBox="0 0 512.001 512.001" style="enable-background:new 0 0 512.001 512.001;" xml:space="preserve">
<path style="fill:#FF5357;" d="M488.328,241.23c0-7.143-5.789-12.935-12.935-12.935h-5.065l-70.116-99.581H292.964  c-7.143,0-12.935,5.792-12.935,12.935v124.046v25.863v69.712h40.619c2.579-39.453,35.374-70.657,75.476-70.657  c40.105,0,72.901,31.204,75.48,70.657h15.826c-8.404,0-15.217-6.812-15.217-15.217v-29.659c0-8.402,6.812-15.217,15.217-15.217  h0.899l-0.166-27.168c0.099-0.649,0.166-1.305,0.166-1.981V241.23H488.328z"/>
<path style="fill:#97D3EE;" d="M438.164,228.295h32.164l-70.116-99.581l0,0h-3.198h-7.969h-17.942h-14.362  c-8.404,0-15.219,6.814-15.219,15.217v69.147c0,8.404,6.814,15.217,15.219,15.217h32.167h-23.354h7.746h24.419h13.137"/>
<path style="fill:#49B5CE;" d="M370.843,212.091v-69.147c0-8.402,6.814-15.217,15.219-15.217h-7.17H364.53  c-8.404,0-15.219,6.814-15.219,15.217v69.147c0,8.404,6.814,15.217,15.219,15.217h8.813h7.746h4.974  C377.658,227.308,370.843,220.496,370.843,212.091z"/>
<path style="fill:#ED3A47;" d="M309.015,264.708V140.661c0-7.143,5.792-12.935,12.935-12.935h-21.199  c-7.143,0-12.935,5.792-12.935,12.935v124.046v25.863v69.712h21.199v-69.712V264.708z"/>
<path style="fill:#E6E9ED;" d="M21.019,361.27h3.183c2.577-39.453,35.374-70.657,75.474-70.657c40.107,0,72.903,31.204,75.48,70.657  h15.093h48.821h40.96v-90.199H21.019c-7.143,0-12.935,5.79-12.935,12.935v64.33C8.084,355.478,13.876,361.27,21.019,361.27z"/>
<path style="fill:#F0F1F2;" d="M281.349,348.95v-78.866H158.388C187.215,310.359,230.857,339.295,281.349,348.95z"/>
<path style="fill:#6E7070;" d="M161.421,322.585c7.84,11.067,12.796,24.324,13.735,38.685h15.093h48.821h40.96v-38.685H161.421z"/>
<path style="fill:#828282;" d="M281.349,348.95v-27.352h-68.688C233.257,334.767,256.473,344.193,281.349,348.95z"/>
<path style="fill:#B6C1CC;" d="M37.07,283.018c0-7.144,5.792-12.935,12.935-12.935H28.806c-7.143,0-12.935,5.79-12.935,12.935v64.33  c0,7.143,5.792,12.935,12.935,12.935h3.183c0.52-7.96,2.288-15.575,5.081-22.676C37.07,337.607,37.07,283.018,37.07,283.018z"/>
<path style="fill:#FF5357;" d="M41.884,127.062l-28.503,85.369c-4.621,13.841,0.152,22.955,2.158,25.949l0.798,1.081h0.002l0,0  l23.364,31.609h139.826l44.432-144.01H41.884V127.062z"/>
<path style="fill:#D32F3F;" d="M233.602,99.282H42.935c-7.143,0-12.935,5.79-12.935,12.935v1.909  c0,7.143,5.792,12.935,12.935,12.935h181.566L233.602,99.282z"/>
<path style="fill:#FC7783;" d="M121.727,155.675c0,43.15,13.898,83.05,37.448,115.487h24.844l45.269-146.726H124.205  C122.581,134.611,121.727,145.043,121.727,155.675z"/>
<path style="fill:#ED3A47;" d="M343.976,70.156h-89.966c-6.388,0-12.04,4.134-13.975,10.221l-6.383,20.074H128.515  c-2.629,9.009-4.627,18.285-5.952,27.778h102.256l-44.42,139.693c-0.341,1.076-0.541,2.16-0.629,3.239h30.377l30.426-95.688  l7.92-24.902l16.244-51.088h79.24c8.099,0,14.665-6.565,14.665-14.664C358.641,76.722,352.075,70.156,343.976,70.156z"/>
<g>
	<path style="fill:#5B5E5E;" d="M175.339,366.272c0,41.79-33.874,75.663-75.663,75.663c-41.784,0-75.656-33.874-75.656-75.663   c0-41.788,33.874-75.659,75.656-75.659C141.465,290.613,175.339,324.485,175.339,366.272z"/>
	<circle style="fill:#5B5E5E;" cx="396.126" cy="366.269" r="75.657"/>
</g>
<g>
	<path style="fill:#E6E9ED;" d="M133.825,366.27c0,18.859-15.289,34.15-34.148,34.15c-18.857,0-34.146-15.291-34.146-34.15   c0-18.859,15.289-34.139,34.146-34.139C118.537,332.131,133.825,347.411,133.825,366.27z"/>
	<path style="fill:#E6E9ED;" d="M430.272,366.27c0,18.859-15.289,34.15-34.148,34.15c-18.857,0-34.146-15.291-34.146-34.15   c0-18.859,15.289-34.139,34.146-34.139C414.983,332.131,430.272,347.411,430.272,366.27z"/>
</g>
<path style="fill:#F7A539;" d="M503.916,346.053c0,8.404-6.814,15.217-15.217,15.217h-1.27c-8.404,0-15.217-6.812-15.217-15.217  v-29.659c0-8.402,6.812-15.217,15.217-15.217h1.27c8.402,0,15.217,6.814,15.217,15.217V346.053z"/>
<path style="fill:#E23740;" d="M248.251,150.482l16.244-51.088h79.24c8.099,0,14.665-6.565,14.665-14.664  c0-8.099-6.567-14.664-14.665-14.664h-89.967c-6.388,0-12.04,4.134-13.975,10.221l-59.636,187.545  c-0.341,1.076-0.541,2.16-0.629,3.239h30.377l30.426-95.688"/>
<g>
	<path style="fill:#464949;" d="M53.363,365.285c0-38.126,28.203-69.648,64.878-74.882c-3.521-0.502-7.118-0.777-10.78-0.777   c-41.784,0-75.656,33.872-75.656,75.659c0,41.79,33.874,75.663,75.656,75.663c3.661,0,7.257-0.275,10.78-0.777   C81.566,434.938,53.363,403.413,53.363,365.285z"/>
	<path style="fill:#464949;" d="M349.809,365.285c0-38.126,28.204-69.648,64.881-74.882c-3.523-0.502-7.118-0.777-10.78-0.777   c-41.784,0-75.659,33.872-75.659,75.659c0,41.79,33.876,75.663,75.659,75.663c3.661,0,7.256-0.275,10.78-0.777   C378.013,434.938,349.809,403.413,349.809,365.285z"/>
</g>
<path style="fill:#ED6529;" d="M488.57,345.066v-29.659c0-5.922,3.391-11.043,8.332-13.558c-2.068-1.053-4.403-1.659-6.883-1.659  h-1.27c-8.404,0-15.217,6.814-15.217,15.217v29.659c0,8.404,6.812,15.217,15.217,15.217h1.27c2.48,0,4.815-0.607,6.883-1.659  C491.961,356.11,488.57,350.989,488.57,345.066z"/>
<g>
	<path style="fill:#B6C1CC;" d="M92.907,366.36c0-15.227,9.969-28.116,23.734-32.517c-3.283-1.051-6.781-1.622-10.414-1.622   c-18.857,0-34.146,15.28-34.146,34.139c0,18.859,15.289,34.15,34.146,34.15c3.633,0,7.13-0.572,10.414-1.623   C102.876,394.482,92.907,381.587,92.907,366.36z"/>
	<path style="fill:#B6C1CC;" d="M389.354,366.36c0-15.227,9.969-28.116,23.734-32.517c-3.283-1.051-6.781-1.622-10.414-1.622   c-18.857,0-34.146,15.28-34.146,34.139c0,18.859,15.289,34.15,34.146,34.15c3.632,0,7.13-0.572,10.414-1.623   C399.323,394.482,389.354,381.587,389.354,366.36z"/>
</g>
<g>
	<path style="fill:#231F20;" d="M376.563,249.624h-29.167c-4.466,0-8.084,3.618-8.084,8.084c0,4.466,3.618,8.084,8.084,8.084h29.167   c4.466,0,8.084-3.618,8.084-8.084C384.647,253.242,381.027,249.624,376.563,249.624z"/>
	<path style="fill:#231F20;" d="M148.5,250.541c0.798,0.247,1.604,0.365,2.397,0.365c3.449,0,6.644-2.225,7.719-5.691l27.387-88.324   c1.324-4.265-1.062-8.793-5.326-10.116c-4.271-1.324-8.795,1.064-10.116,5.326l-27.387,88.324   C141.851,244.69,144.236,249.218,148.5,250.541z"/>
	<path style="fill:#231F20;" d="M115.163,250.541c0.798,0.247,1.604,0.365,2.397,0.365c3.449,0,6.644-2.225,7.719-5.691   l27.387-88.324c1.324-4.265-1.062-8.793-5.326-10.116c-4.268-1.324-8.793,1.064-10.116,5.326l-27.387,88.324   C108.514,244.69,110.899,249.218,115.163,250.541z"/>
	<path style="fill:#231F20;" d="M81.826,250.541c0.798,0.247,1.604,0.365,2.397,0.365c3.449,0,6.644-2.225,7.719-5.691   l27.387-88.324c1.324-4.265-1.062-8.793-5.326-10.116c-4.271-1.324-8.793,1.064-10.116,5.326L76.5,240.425   C75.177,244.69,77.562,249.218,81.826,250.541z"/>
	<path style="fill:#231F20;" d="M48.489,250.541c0.798,0.247,1.604,0.365,2.397,0.365c3.449,0,6.644-2.225,7.719-5.691   l27.387-88.324c1.324-4.265-1.062-8.793-5.326-10.116c-4.268-1.324-8.793,1.064-10.116,5.326l-27.387,88.324   C41.84,244.69,44.225,249.218,48.489,250.541z"/>
	<path style="fill:#231F20;" d="M496.372,294.397l-0.122-19.86c0.11-0.877,0.163-1.705,0.163-2.509V241.23   c0-11.59-9.429-21.019-21.019-21.019h-0.87l-67.7-96.15c-1.514-2.151-3.98-3.431-6.611-3.431h-43.469h-63.779   c-11.59,0-21.019,9.429-21.019,21.019v121.338h-50.987l27.076-85.154c1.353-4.254-1-8.801-5.255-10.154   c-4.254-1.352-8.802,0.999-10.154,5.255l-28.633,90.053h-13.509l9.836-31.879l47.179-148.372c0.872-2.742,3.391-4.585,6.27-4.585   h89.966c3.628,0,6.581,2.951,6.581,6.579c0,3.628-2.952,6.579-6.581,6.579h-79.24c-3.521,0-6.637,2.279-7.704,5.635l-16.244,51.088   c-1.353,4.254,1,8.801,5.255,10.154c4.25,1.353,8.8-1,10.154-5.255l14.452-45.454h73.327c12.545,0,22.749-10.206,22.749-22.748   s-10.205-22.748-22.749-22.748h-89.967c-9.952,0-18.665,6.373-21.679,15.856l-4.249,13.362H42.935   c-11.59,0-21.019,9.429-21.019,21.019v1.909c0,7.476,3.936,14.036,9.834,17.764l-26.037,77.98   c-5.705,17.088,0.275,28.777,3.111,33.009c0.069,0.105,0.142,0.207,0.218,0.309l14.633,19.797h-2.656   C9.429,262.986,0,272.416,0,284.005v64.33c0,9.856,6.828,18.126,15.997,20.387c1.304,45.047,38.326,81.297,83.679,81.297   c45.145,0,82.04-35.911,83.669-80.665h96.685h32.43c1.63,44.754,38.523,80.665,83.665,80.665c45.143,0,82.038-35.911,83.667-80.665   h7.638c0.006-0.001,0.022,0,0.022,0h1.248c12.849,0,23.301-10.452,23.301-23.301v-29.659   C512,306.234,505.46,297.577,496.372,294.397z M38.084,112.217c0-2.674,2.176-4.851,4.851-4.851h179.512l-3.804,11.61H42.935   c-2.674,0-4.851-2.176-4.851-4.851V112.217z M22.168,233.75c-1.253-1.934-4.569-8.423-1.119-18.759l26.658-79.845h165.297   l-28.121,91.144l-11.669,36.697H43.78L22.168,233.75z M99.676,433.851c-37.26,0-67.572-30.316-67.572-67.579   c0-1.49,0.066-2.963,0.161-4.429c0.001-0.015,0.004-0.03,0.005-0.046c1.732-26.526,18.807-48.743,42.198-58.204   c0.029-0.012,0.058-0.023,0.087-0.034c0.935-0.376,1.879-0.732,2.833-1.067c0.078-0.027,0.156-0.053,0.234-0.079   c0.91-0.316,1.828-0.614,2.754-0.891c0.137-0.041,0.275-0.078,0.412-0.118c0.874-0.255,1.753-0.498,2.641-0.719   c0.211-0.053,0.427-0.097,0.639-0.148c0.822-0.196,1.647-0.384,2.48-0.55c0.303-0.06,0.611-0.108,0.916-0.164   c0.753-0.139,1.507-0.276,2.268-0.389c0.423-0.063,0.849-0.108,1.274-0.163c0.658-0.085,1.314-0.176,1.977-0.241   c0.596-0.059,1.199-0.094,1.799-0.137c0.506-0.037,1.008-0.085,1.516-0.111c1.12-0.056,2.246-0.086,3.379-0.086   c1.133,0,2.26,0.03,3.379,0.086c0.509,0.025,1.011,0.074,1.517,0.111c0.6,0.043,1.203,0.079,1.799,0.137   c0.663,0.066,1.318,0.156,1.976,0.241c0.426,0.055,0.854,0.1,1.276,0.163c0.76,0.113,1.513,0.25,2.266,0.388   c0.306,0.056,0.614,0.105,0.919,0.165c0.831,0.165,1.656,0.352,2.476,0.549c0.215,0.051,0.43,0.096,0.644,0.149   c0.886,0.221,1.763,0.462,2.635,0.718c0.138,0.04,0.278,0.078,0.416,0.119c0.925,0.277,1.841,0.574,2.749,0.89   c0.08,0.028,0.161,0.054,0.24,0.082c0.952,0.334,1.895,0.69,2.827,1.065c0.031,0.012,0.063,0.024,0.093,0.037   c14.539,5.88,26.632,16.689,34.123,30.394c0.083,0.152,0.166,0.304,0.247,0.457c0.401,0.748,0.788,1.505,1.161,2.269   c0.065,0.133,0.134,0.263,0.197,0.397c0.399,0.831,0.778,1.672,1.145,2.521c0.126,0.293,0.245,0.59,0.366,0.885   c0.233,0.563,0.459,1.131,0.677,1.701c0.138,0.363,0.277,0.727,0.409,1.092c0.217,0.599,0.423,1.203,0.623,1.81   c0.157,0.475,0.309,0.953,0.456,1.433c0.191,0.625,0.376,1.254,0.55,1.886c0.108,0.396,0.209,0.793,0.31,1.191   c0.141,0.557,0.275,1.118,0.403,1.68c0.082,0.36,0.167,0.72,0.244,1.082c0.182,0.873,0.35,1.75,0.498,2.635   c0.046,0.278,0.085,0.558,0.128,0.836c0.11,0.708,0.21,1.42,0.298,2.134c0.037,0.296,0.072,0.594,0.106,0.891   c0.105,0.964,0.197,1.932,0.261,2.907c0.001,0.015,0.004,0.03,0.005,0.046c0.095,1.466,0.161,2.939,0.161,4.429   C167.255,403.535,136.939,433.851,99.676,433.851z M271.945,353.186h-89.551c-0.294-1.868-0.667-3.709-1.083-5.534   c-0.041-0.181-0.083-0.361-0.125-0.542c-0.386-1.642-0.813-3.267-1.293-4.871c-0.01-0.032-0.018-0.066-0.028-0.098   c-0.288-0.953-0.6-1.895-0.921-2.834c-0.057-0.167-0.109-0.336-0.167-0.503c-0.041-0.117-0.082-0.236-0.123-0.354   c-0.246-0.695-0.502-1.385-0.765-2.072c-0.105-0.274-0.215-0.546-0.322-0.82c-0.093-0.233-0.183-0.467-0.278-0.7   c-0.37-0.909-0.757-1.808-1.157-2.701c-0.107-0.237-0.212-0.475-0.32-0.711c-0.119-0.259-0.229-0.521-0.349-0.778h96.485v22.518   H271.945z M271.945,314.501H165.429c-10.071-12.762-23.761-22.528-39.518-27.741c-0.1-0.033-0.199-0.069-0.3-0.101   c-0.975-0.318-1.961-0.614-2.951-0.898c-0.287-0.082-0.572-0.166-0.86-0.245c-0.88-0.241-1.766-0.467-2.656-0.679   c-0.417-0.1-0.836-0.196-1.257-0.291c-0.804-0.179-1.611-0.349-2.424-0.506c-0.531-0.102-1.066-0.194-1.6-0.287   c-0.732-0.125-1.465-0.249-2.204-0.356c-0.649-0.094-1.302-0.17-1.955-0.249c-0.65-0.078-1.299-0.162-1.953-0.224   c-0.812-0.079-1.63-0.132-2.448-0.186c-0.516-0.034-1.03-0.082-1.549-0.107c-1.353-0.066-2.712-0.103-4.079-0.103   c-1.359,0-2.71,0.038-4.054,0.102c-0.506,0.024-1.005,0.069-1.508,0.102c-0.825,0.055-1.649,0.11-2.467,0.189   c-0.632,0.06-1.258,0.139-1.885,0.213c-0.668,0.08-1.337,0.16-1.999,0.254c-0.709,0.101-1.413,0.218-2.117,0.336   c-0.554,0.095-1.108,0.192-1.659,0.298c-0.78,0.149-1.556,0.307-2.329,0.478c-0.435,0.097-0.869,0.198-1.302,0.302   c-0.863,0.205-1.724,0.417-2.576,0.649c-0.277,0.075-0.551,0.157-0.827,0.235c-17.466,4.934-32.626,15.395-43.468,29.378   c-0.027,0.033-0.054,0.068-0.08,0.101c-0.668,0.864-1.317,1.744-1.952,2.634c-0.095,0.133-0.19,0.265-0.283,0.399   c-0.595,0.845-1.174,1.701-1.739,2.57c-0.116,0.178-0.23,0.358-0.345,0.537c-0.546,0.854-1.08,1.716-1.595,2.591   c-0.107,0.182-0.21,0.366-0.316,0.549c-0.52,0.897-1.028,1.798-1.514,2.715c-0.055,0.103-0.107,0.21-0.162,0.315   c-2.17,4.133-4.007,8.466-5.469,12.968c-0.024,0.074-0.052,0.148-0.075,0.222c-0.319,0.991-0.61,1.992-0.892,2.998   c-0.065,0.23-0.134,0.458-0.196,0.688c-0.262,0.965-0.501,1.939-0.729,2.917c-0.063,0.268-0.126,0.535-0.185,0.804   c-0.219,0.981-0.417,1.969-0.601,2.963c-0.023,0.126-0.054,0.25-0.077,0.377c-0.69-0.838-1.104-1.91-1.104-3.077v-64.33   c0-2.674,2.176-4.851,4.851-4.851h18.684h139.826h30.377h62.04V314.501z M396.124,433.851c-37.261,0-67.574-30.316-67.574-67.579   c0-1.49,0.066-2.963,0.161-4.429c0.001-0.015,0.004-0.03,0.005-0.046c1.734-26.531,18.815-48.751,42.212-58.208   c0.017-0.006,0.036-0.014,0.053-0.02c0.944-0.382,1.899-0.741,2.864-1.079c0.068-0.024,0.137-0.046,0.206-0.07   c0.918-0.319,1.844-0.62,2.78-0.9c0.128-0.038,0.259-0.072,0.387-0.11c0.881-0.258,1.768-0.502,2.662-0.724   c0.206-0.051,0.414-0.095,0.62-0.143c0.828-0.197,1.659-0.386,2.497-0.553c0.299-0.059,0.6-0.107,0.9-0.162   c0.758-0.14,1.517-0.277,2.282-0.391c0.418-0.063,0.842-0.107,1.262-0.161c0.662-0.086,1.322-0.177,1.988-0.243   c0.593-0.058,1.193-0.094,1.791-0.137c0.508-0.037,1.012-0.086,1.523-0.111c1.12-0.056,2.246-0.086,3.379-0.086   c1.134,0,2.259,0.03,3.379,0.086c0.509,0.025,1.012,0.074,1.519,0.111c0.599,0.043,1.201,0.079,1.796,0.137   c0.665,0.066,1.323,0.156,1.981,0.241c0.423,0.055,0.849,0.099,1.27,0.162c0.763,0.113,1.519,0.251,2.273,0.39   c0.303,0.056,0.608,0.103,0.91,0.163c0.835,0.166,1.662,0.354,2.487,0.551c0.21,0.05,0.423,0.095,0.633,0.147   c0.89,0.221,1.772,0.465,2.648,0.72c0.135,0.039,0.27,0.074,0.403,0.114c0.929,0.278,1.85,0.578,2.763,0.895   c0.074,0.026,0.151,0.051,0.225,0.077c0.957,0.336,1.905,0.693,2.842,1.07c0.026,0.011,0.052,0.021,0.077,0.03   c23.388,9.457,40.463,31.665,42.205,58.184c0.098,1.487,0.166,2.984,0.166,4.497C463.701,403.535,433.386,433.851,396.124,433.851z    M480.244,272.028c0,0.188-0.024,0.435-0.073,0.762c-0.065,0.42-0.095,0.844-0.093,1.269l0.124,20.182   c-0.058,0.019-0.114,0.044-0.172,0.064c-0.486,0.164-0.966,0.34-1.437,0.534c-0.047,0.019-0.096,0.037-0.143,0.057   c-0.499,0.209-0.986,0.439-1.467,0.68c-0.097,0.05-0.194,0.099-0.291,0.149c-0.476,0.249-0.945,0.509-1.402,0.789   c-0.041,0.025-0.08,0.052-0.121,0.078c-0.43,0.267-0.85,0.551-1.261,0.845c-0.077,0.055-0.155,0.109-0.231,0.165   c-0.426,0.313-0.84,0.639-1.243,0.979c-0.074,0.063-0.147,0.128-0.221,0.192c-0.389,0.336-0.77,0.683-1.135,1.044   c-0.024,0.024-0.049,0.045-0.072,0.069c-0.379,0.377-0.742,0.771-1.095,1.174c-0.071,0.082-0.142,0.164-0.213,0.246   c-0.344,0.404-0.678,0.817-0.994,1.245c-0.037,0.05-0.071,0.101-0.108,0.151c-0.292,0.401-0.571,0.813-0.839,1.233   c-0.049,0.077-0.099,0.152-0.148,0.23c-0.278,0.448-0.539,0.908-0.787,1.375c-0.05,0.094-0.097,0.19-0.146,0.283   c-0.24,0.469-0.469,0.944-0.677,1.43c-0.008,0.018-0.017,0.037-0.025,0.055c-0.212,0.498-0.401,1.008-0.578,1.522   c-0.038,0.109-0.075,0.218-0.111,0.328c-0.167,0.51-0.32,1.026-0.452,1.55c-0.02,0.079-0.036,0.157-0.055,0.236   c-0.117,0.486-0.218,0.978-0.304,1.476c-0.016,0.091-0.035,0.181-0.049,0.273c-0.086,0.538-0.152,1.082-0.201,1.632   c-0.011,0.119-0.018,0.238-0.027,0.357c-0.042,0.567-0.07,1.137-0.07,1.715v1.09c-0.03-0.042-0.063-0.083-0.093-0.125   c-1.399-1.937-2.878-3.809-4.433-5.617c-0.014-0.016-0.029-0.033-0.043-0.05c-7.951-9.227-17.869-16.701-29.104-21.772   c-0.029-0.013-0.059-0.027-0.088-0.04c-2.176-0.979-4.4-1.87-6.669-2.665c-0.266-0.094-0.534-0.181-0.801-0.272   c-1.098-0.371-2.204-0.722-3.322-1.049c-0.469-0.137-0.938-0.272-1.409-0.401c-0.583-0.16-1.165-0.319-1.753-0.466   c-0.926-0.233-1.859-0.446-2.797-0.648c-0.48-0.102-0.961-0.197-1.443-0.292c-0.912-0.179-1.829-0.344-2.751-0.493   c-0.379-0.06-0.759-0.119-1.139-0.174c-0.999-0.147-2.004-0.273-3.013-0.384c-0.317-0.034-0.633-0.071-0.951-0.102   c-1.181-0.115-2.369-0.206-3.564-0.272c-0.263-0.014-0.527-0.025-0.791-0.037c-1.273-0.058-2.55-0.097-3.837-0.097   c-1.368,0-2.726,0.038-4.079,0.103c-0.52,0.025-1.034,0.072-1.551,0.107c-0.817,0.055-1.634,0.108-2.446,0.186   c-0.655,0.064-1.305,0.147-1.956,0.225c-0.651,0.079-1.303,0.155-1.95,0.248c-0.741,0.107-1.476,0.231-2.21,0.357   c-0.531,0.092-1.064,0.183-1.592,0.286c-0.816,0.156-1.625,0.327-2.433,0.507c-0.416,0.093-0.831,0.189-1.244,0.288   c-0.896,0.213-1.785,0.44-2.669,0.682c-0.281,0.078-0.562,0.16-0.842,0.239c-0.997,0.285-1.989,0.583-2.97,0.903   c-0.092,0.03-0.181,0.061-0.272,0.092c-19.849,6.56-36.424,20.35-46.607,38.244c-0.056,0.098-0.113,0.195-0.169,0.293   c-0.526,0.932-1.03,1.878-1.521,2.832c-0.093,0.18-0.185,0.359-0.277,0.539c-0.464,0.917-0.91,1.844-1.339,2.781   c-0.099,0.217-0.197,0.433-0.294,0.651c-0.417,0.93-0.821,1.867-1.205,2.815c-0.086,0.212-0.168,0.427-0.252,0.639   c-0.385,0.973-0.758,1.952-1.107,2.943c-0.054,0.154-0.103,0.309-0.157,0.465c-1.586,4.58-2.797,9.331-3.57,14.23H288.12v-30.6   v-51.515V141.649c0-2.674,2.176-4.851,4.851-4.851h41.597c-0.725,2.25-1.121,4.646-1.121,7.132v69.147   c0,12.848,10.453,23.301,23.303,23.301h54.114c4.466,0,8.084-3.618,8.084-8.084c0-4.466-3.618-8.084-8.084-8.084H356.75   c-3.933,0-7.135-3.2-7.135-7.132v-69.147c0-3.932,3.201-7.132,7.135-7.132h39.275l58.731,83.413h-16.592   c-4.466,0-8.084,3.618-8.084,8.084s3.618,8.084,8.084,8.084h32.164h5.065c2.674,0,4.851,2.176,4.851,4.851V272.028z    M495.832,346.053c0,3.932-3.2,7.132-7.132,7.132h-1.248h-0.015c0,0-0.002,0-0.006,0c-3.932,0-7.132-3.2-7.132-7.132v-29.659   c0-3.932,3.2-7.132,7.132-7.132h0.899h0.371c3.932,0,7.132,3.2,7.132,7.132V346.053z"/>
	<circle style="fill:#231F20;" cx="99.673" cy="366.269" r="9.603"/>
	<circle style="fill:#231F20;" cx="396.126" cy="366.269" r="9.603"/>
	<path style="fill:#231F20;" d="M99.678,324.047c-23.286,0-42.23,18.941-42.23,42.223c0,23.287,18.944,42.234,42.23,42.234   c23.287,0,42.232-18.946,42.232-42.234C141.909,342.988,122.964,324.047,99.678,324.047z M99.678,392.335   c-14.37,0-26.061-11.693-26.061-26.066c0-14.366,11.691-26.055,26.061-26.055c14.372,0,26.063,11.689,26.063,26.055   C125.741,380.643,114.05,392.335,99.678,392.335z"/>
	<path style="fill:#231F20;" d="M396.124,324.047c-23.286,0-42.23,18.941-42.23,42.223c0,23.287,18.944,42.234,42.23,42.234   c23.287,0,42.232-18.946,42.232-42.234C438.356,342.988,419.411,324.047,396.124,324.047z M396.124,392.335   c-14.37,0-26.061-11.693-26.061-26.066c0-14.366,11.691-26.055,26.061-26.055c14.372,0,26.064,11.689,26.064,26.055   C422.188,380.643,410.496,392.335,396.124,392.335z"/>
</g>
<g>
</g>
<g>
</g>
<g>
</g>
<g>
</g>
<g>
</g>
<g>
</g>
<g>
</g>
<g>
</g>
<g>
</g>
<g>
</g>
<g>
</g>
<g>
</g>
<g>
</g>
<g>
</g>
<g>
</g>
</svg>
