<?xml version="1.0" encoding="iso-8859-1"?>
<!-- Generator: Adobe Illustrator 19.0.0, SVG Export Plug-In . SVG Version: 6.00 Build 0)  -->
<svg xmlns="http://www.w3.org/2000/svg" xmlns:xlink="http://www.w3.org/1999/xlink" version="1.1" id="Layer_1" x="0px" y="0px" viewBox="0 0 512 512" style="enable-background:new 0 0 512 512;" xml:space="preserve">
<path style="fill:#FF5357;" d="M35.573,120.312L5.519,210.325c-4.872,14.594,0.16,24.202,2.276,27.36l0.841,1.14h0.002l0,0  l24.635,33.328h147.429l46.847-151.841H35.573z"/>
<path style="fill:#FF6971;" d="M116.239,152.642c0,44.654,14.384,85.945,38.754,119.512h25.71l46.847-151.841H118.803  C117.123,130.843,116.239,141.639,116.239,152.642z"/>
<path style="fill:#E23740;" d="M347.351,64.142h-93.103c-6.61,0-12.46,4.278-14.462,10.577l-6.606,20.773h-196  c-7.392,0-13.386,5.992-13.386,13.386v1.975c0,7.392,5.993,13.386,13.386,13.386h186.86l-45.968,144.562  c-0.352,1.113-0.56,2.235-0.651,3.352h31.436l31.486-99.022l8.196-25.77l16.81-52.869h82.003c8.382,0,15.176-6.794,15.176-15.175  C362.527,70.936,355.732,64.142,347.351,64.142z"/>
<path style="fill:#ED3A47;" d="M347.351,64.142h-93.103c-6.61,0-12.46,4.278-14.462,10.577l-6.606,20.773H124.38  c-2.721,9.323-4.789,18.923-6.16,28.747h105.82l-45.968,144.562c-0.352,1.113-0.56,2.235-0.651,3.352h31.436l31.486-99.022  l8.196-25.77l16.81-52.869h82.003c8.382,0,15.176-6.794,15.176-15.175C362.527,70.936,355.732,64.142,347.351,64.142z"/>
<g>
	<path style="fill:#E23740;" d="M147.792,251.285c-0.821,0-1.655-0.122-2.482-0.378c-4.413-1.369-6.88-6.055-5.512-10.469   l28.342-91.403c1.369-4.412,6.056-6.881,10.469-5.512c4.413,1.369,6.88,6.055,5.512,10.469l-28.342,91.403   C154.666,248.983,151.36,251.285,147.792,251.285z"/>
	<path style="fill:#E23740;" d="M113.293,251.285c-0.821,0-1.655-0.122-2.482-0.378c-4.413-1.369-6.88-6.055-5.512-10.469   l28.342-91.403c1.369-4.412,6.057-6.881,10.469-5.512c4.413,1.369,6.88,6.055,5.512,10.469l-28.342,91.403   C120.168,248.983,116.862,251.285,113.293,251.285z"/>
	<path style="fill:#E23740;" d="M78.794,251.285c-0.821,0-1.655-0.122-2.482-0.378c-4.413-1.369-6.88-6.055-5.512-10.469   l28.342-91.403c1.369-4.412,6.057-6.881,10.469-5.512c4.413,1.369,6.88,6.055,5.512,10.469l-28.342,91.403   C85.669,248.983,82.363,251.285,78.794,251.285z"/>
	<path style="fill:#E23740;" d="M44.295,251.285c-0.821,0-1.655-0.122-2.482-0.378c-4.413-1.369-6.88-6.055-5.512-10.469   l28.342-91.403c1.369-4.412,6.056-6.881,10.469-5.512c4.413,1.369,6.88,6.055,5.512,10.469l-28.342,91.403   C51.17,248.983,47.864,251.285,44.295,251.285z"/>
</g>
<path style="fill:#E6E9ED;" d="M13.386,364.381h3.294c2.667-40.828,36.607-73.12,78.105-73.12c41.505,0,75.445,32.292,78.111,73.12  h15.619h50.523h42.388v-93.344H13.386C5.993,271.038,0,277.03,0,284.423v66.572C0,358.388,5.993,364.381,13.386,364.381z"/>
<path style="fill:#F0F1F2;" d="M281.425,352.653v-81.615H154.179C184.01,312.717,229.173,342.662,281.425,352.653z"/>
<path style="fill:#6E7070;" d="M158.682,324.348c8.113,11.454,13.242,25.172,14.213,40.033h15.619h50.523h42.388v-40.033H158.682z"/>
<path style="fill:#828282;" d="M281.425,352.653v-28.305h-71.082C231.658,337.976,255.683,347.73,281.425,352.653z"/>
<g>
	<path style="fill:#5B5E5E;" d="M173.085,369.558c0,43.246-35.055,78.3-78.3,78.3c-43.24,0-78.294-35.055-78.294-78.3   c0-43.244,35.055-78.296,78.294-78.296C138.03,291.261,173.085,326.314,173.085,369.558z"/>
	<circle style="fill:#5B5E5E;" cx="401.569" cy="369.555" r="78.295"/>
</g>
<g>
	<path style="fill:#464949;" d="M38.799,369.558c0-39.455,29.186-72.076,67.14-77.493c-3.645-0.52-7.367-0.804-11.156-0.804   c-43.24,0-78.294,35.052-78.294,78.296c0,43.246,35.055,78.3,78.294,78.3c3.788,0,7.51-0.284,11.156-0.804   C67.986,441.638,38.799,409.015,38.799,369.558z"/>
	<path style="fill:#464949;" d="M345.58,369.558c0-39.455,29.187-72.076,67.142-77.493c-3.646-0.52-7.367-0.804-11.156-0.804   c-43.24,0-78.296,35.052-78.296,78.296c0,43.246,35.057,78.3,78.296,78.3c3.789,0,7.509-0.284,11.156-0.804   C374.767,441.638,345.58,409.015,345.58,369.558z"/>
</g>
<g>
	<path style="fill:#E6E9ED;" d="M130.124,369.556c0,19.516-15.821,35.34-35.338,35.34c-19.514,0-35.336-15.824-35.336-35.34   s15.822-35.329,35.336-35.329C114.303,334.227,130.124,350.04,130.124,369.556z"/>
	<path style="fill:#E6E9ED;" d="M436.904,369.556c0,19.516-15.822,35.34-35.338,35.34c-19.514,0-35.336-15.824-35.336-35.34   s15.822-35.329,35.336-35.329C421.083,334.227,436.904,350.04,436.904,369.556z"/>
</g>
<g>
	<path style="fill:#CCD4DD;" d="M81.002,369.556c0-15.758,10.317-29.096,24.562-33.65c-3.399-1.088-7.017-1.679-10.777-1.679   c-19.514,0-35.336,15.813-35.336,35.329s15.822,35.34,35.336,35.34c3.759,0,7.378-0.592,10.777-1.68   C91.319,398.658,81.002,385.314,81.002,369.556z"/>
	<path style="fill:#CCD4DD;" d="M387.783,369.556c0-15.758,10.317-29.096,24.56-33.65c-3.399-1.088-7.017-1.679-10.777-1.679   c-19.514,0-35.336,15.813-35.336,35.329s15.822,35.34,35.336,35.34c3.759,0,7.378-0.592,10.777-1.68   C398.1,398.658,387.783,385.314,387.783,369.556z"/>
</g>
<path style="fill:#FF5357;" d="M496.985,240.157c0-7.392-5.991-13.386-13.386-13.386h-5.242l-72.56-103.053H294.81  c-7.392,0-13.386,5.993-13.386,13.386v128.37v26.765v72.142h42.035c2.669-40.828,36.607-73.12,78.106-73.12  c41.503,0,75.442,32.292,78.111,73.12h16.377c-8.697,0-15.747-7.05-15.747-15.747v-30.693c0-8.695,7.05-15.747,15.747-15.747h0.93  l-0.172-28.115c0.103-0.672,0.172-1.351,0.172-2.05L496.985,240.157L496.985,240.157z"/>
<path style="fill:#97D3EE;" d="M445.072,226.771h33.286l-72.56-103.053l0,0h-3.31h-8.247h-18.567h-14.862  c-8.697,0-15.749,7.052-15.749,15.747v71.557c0,8.697,7.052,15.747,15.749,15.747h33.288h-24.168h8.016h25.27h13.595"/>
<path style="fill:#49B5CE;" d="M367.346,211.024v-71.557c0-8.695,7.052-15.747,15.749-15.747h-7.42h-14.862  c-8.697,0-15.749,7.052-15.749,15.747v71.557c0,8.697,7.052,15.747,15.749,15.747h9.12h8.016h5.148  C374.398,226.771,367.346,219.722,367.346,211.024z"/>
<path style="fill:#E23740;" d="M381.323,265.575h-30.183c-4.62,0-8.366-3.745-8.366-8.366c0-4.621,3.746-8.366,8.366-8.366h30.183  c4.62,0,8.366,3.745,8.366,8.366C389.689,261.831,385.942,265.575,381.323,265.575z"/>
<g>
	<circle style="fill:#6E7070;" cx="94.788" cy="369.555" r="9.938"/>
	<circle style="fill:#6E7070;" cx="401.569" cy="369.555" r="9.938"/>
</g>
<path style="fill:#F7A539;" d="M512,348.634c0,8.697-7.052,15.747-15.747,15.747h-1.314c-8.697,0-15.747-7.05-15.747-15.747v-30.693  c0-8.695,7.05-15.747,15.747-15.747h1.314c8.695,0,15.747,7.052,15.747,15.747V348.634z"/>
<path style="fill:#CCD4DD;" d="M21.938,284.423c0-7.393,5.993-13.386,13.386-13.386H13.386C5.993,271.038,0,277.03,0,284.423v66.572  c0,7.392,5.993,13.386,13.386,13.386h3.294c0.538-8.238,2.368-16.117,5.258-23.466V284.423z"/>
<path style="fill:#ED3A47;" d="M303.363,265.475v-128.37c0-7.392,5.993-13.386,13.386-13.386H294.81  c-7.392,0-13.386,5.993-13.386,13.386v128.37v26.765v72.142h21.938v-72.142V265.475z"/>
<path style="fill:#ED6529;" d="M494.754,348.634v-30.693c0-6.128,3.509-11.428,8.621-14.03c-2.141-1.09-4.557-1.717-7.123-1.717  h-1.314c-8.697,0-15.747,7.052-15.747,15.747v30.693c0,8.697,7.05,15.747,15.747,15.747h1.314c2.567,0,4.983-0.628,7.123-1.717  C498.263,360.063,494.754,354.764,494.754,348.634z"/>
<g>
</g>
<g>
</g>
<g>
</g>
<g>
</g>
<g>
</g>
<g>
</g>
<g>
</g>
<g>
</g>
<g>
</g>
<g>
</g>
<g>
</g>
<g>
</g>
<g>
</g>
<g>
</g>
<g>
</g>
</svg>
