<?xml version="1.0" encoding="iso-8859-1"?>
<!-- Generator: Adobe Illustrator 19.0.0, SVG Export Plug-In . SVG Version: 6.00 Build 0)  -->
<svg xmlns="http://www.w3.org/2000/svg" xmlns:xlink="http://www.w3.org/1999/xlink" version="1.1" id="Layer_1" x="0px" y="0px" viewBox="0 0 512 512" style="enable-background:new 0 0 512 512;" xml:space="preserve">
<rect x="355.516" y="113.613" style="fill:#E6E9ED;" width="36.325" height="63.653"/>
<rect x="355.516" y="113.613" style="fill:#CCD4DD;" width="18.164" height="63.653"/>
<path style="fill:#FF5357;" d="M441.278,93.73c-1.751-0.993-3.901-0.967-5.628,0.069c-5.879,3.524-12.588,5.386-19.401,5.386  l-69.356,0.026c-7.29,0-13.218,5.929-13.218,13.217v2.372c0,7.289,5.929,13.217,13.224,13.217l69.353-0.026  c6.814,0,13.522,1.862,19.398,5.385c0.884,0.53,1.878,0.795,2.874,0.795c0.95,0,1.899-0.241,2.754-0.726  c1.752-0.993,2.835-2.851,2.835-4.864V98.594C444.113,96.58,443.031,94.722,441.278,93.73z"/>
<path style="fill:#E23740;" d="M373.685,99.212h-29.029c-7.301,0-13.218,5.917-13.218,13.217v2.372  c0,7.3,5.917,13.217,13.218,13.217h29.029V99.212z"/>
<path style="fill:#E6E9ED;" d="M496.954,274.673c0-7.408-6.007-13.415-13.415-13.415h-5.255l-61.537-103.278H306.635v241.188h45.151  c-1.982-5.424-3.065-11.282-3.065-17.393c0-27.965,22.67-50.633,50.633-50.633c27.968,0,50.635,22.668,50.635,50.633  c0,6.112-1.083,11.969-3.065,17.393h49.096c-8.716,0-15.781-7.065-15.781-15.781v-30.76c0-8.714,7.065-15.781,15.781-15.781h0.935  l-0.174-28.177c0.105-0.673,0.174-1.354,0.174-2.055v-31.941H496.954z"/>
<path style="fill:#97D3EE;" d="M444.926,261.259h33.358l-61.537-103.278h-61.45c-8.716,0-15.784,7.067-15.784,15.783v71.712  c0,8.716,7.067,15.783,15.784,15.783h61.308"/>
<circle style="fill:#5B5E5E;" cx="399.36" cy="381.775" r="50.63"/>
<circle style="fill:#E6E9ED;" cx="399.36" cy="381.775" r="17.392"/>
<path style="fill:#BEC6CC;" d="M375.024,299.197h-30.249c-4.63,0-8.384-3.753-8.384-8.384c0-4.631,3.754-8.384,8.384-8.384h30.249  c4.63,0,8.384,3.753,8.384,8.384C383.409,295.444,379.654,299.197,375.024,299.197z"/>
<path id="SVGCleanerId_0" style="fill:#F7A539;" d="M512,383.387c0,8.716-7.065,15.781-15.783,15.781h-1.316  c-8.716,0-15.781-7.065-15.781-15.781v-30.76c0-8.714,7.065-15.781,15.781-15.781h1.316c8.717,0,15.783,7.067,15.783,15.781V383.387  z"/>
<g>
	<path id="SVGCleanerId_0_1_" style="fill:#F7A539;" d="M512,383.387c0,8.716-7.065,15.781-15.783,15.781h-1.316   c-8.716,0-15.781-7.065-15.781-15.781v-30.76c0-8.714,7.065-15.781,15.781-15.781h1.316c8.717,0,15.783,7.067,15.783,15.781   V383.387z"/>
</g>
<rect x="306.641" y="157.982" style="fill:#CCD4DD;" width="23.476" height="241.188"/>
<path style="fill:#49B5CE;" d="M362.989,245.476v-71.712c0-8.715,7.067-15.783,15.784-15.783h-23.476  c-8.716,0-15.784,7.067-15.784,15.783v71.712c0,8.716,7.067,15.783,15.784,15.783h23.476  C370.056,261.259,362.989,254.192,362.989,245.476z"/>
<path style="fill:#E87528;" d="M495.56,383.387v-30.76c0-5.975,3.324-11.173,8.221-13.853c-2.247-1.229-4.823-1.93-7.564-1.93  h-1.316c-8.716,0-15.781,7.067-15.781,15.781v30.76c0,8.716,7.065,15.781,15.781,15.781h1.316c2.74,0,5.317-0.7,7.564-1.93  C498.884,394.562,495.56,389.364,495.56,383.387z"/>
<path style="fill:#FF5357;" d="M294.339,79.587h-29.395h-28.32H13.415C6.005,79.587,0,85.593,0,93.002v286.999  c0,7.408,6.005,13.415,13.415,13.415h28.308h5.536h95.137h46.531h6.485h98.928h13.415v-13.415v-84.856V114.218V93.002  C307.753,85.593,301.747,79.587,294.339,79.587z"/>
<path style="fill:#ED3A47;" d="M21.981,380.001V93.002c0-7.408,6.006-13.415,13.415-13.415H13.415C6.005,79.587,0,85.593,0,93.002  v286.999c0,7.408,6.005,13.415,13.415,13.415h21.981C27.988,393.416,21.981,387.41,21.981,380.001z"/>
<path style="fill:#FF6971;" d="M294.339,79.587h-29.395h-28.32H118.145c-10.051,24.138-15.609,50.615-15.609,78.394  c0,112.722,91.379,204.101,204.1,204.101c0.375,0,0.745-0.012,1.118-0.015v-66.922V114.218V93.002  C307.753,85.593,301.747,79.587,294.339,79.587z"/>
<path style="fill:#E23740;" d="M0,385.754c0,7.408,6.005,13.415,13.415,13.415h33.843c-1.983-5.424-3.066-11.282-3.066-17.393  c0-27.965,22.67-50.633,50.633-50.633H0V385.754z"/>
<path style="fill:#C6243B;" d="M21.981,385.754v-54.612H0v54.612c0,7.408,6.005,13.415,13.415,13.415h21.981  C27.988,399.169,21.981,393.162,21.981,385.754z"/>
<path style="fill:#E23740;" d="M94.825,331.142c27.967,0,50.635,22.668,50.635,50.633c0,6.112-1.082,11.969-3.065,17.393h34.161  h26.831h90.953h13.415v-13.415v-54.612H94.825z"/>
<path style="fill:#ED3E4F;" d="M306.635,362.081c0.375,0,0.745-0.012,1.118-0.015v-30.925H198.574  C229.914,350.742,266.948,362.081,306.635,362.081z"/>
<circle style="fill:#5B5E5E;" cx="94.832" cy="381.775" r="50.63"/>
<g>
	<path style="fill:#464949;" d="M66.55,381.775c0-24.122,16.873-44.288,39.454-49.38c-3.599-0.812-7.337-1.253-11.18-1.253   c-27.963,0-50.633,22.668-50.633,50.633c0,27.968,22.67,50.638,50.633,50.638c3.843,0,7.582-0.443,11.18-1.253   C83.422,426.069,66.55,405.9,66.55,381.775z"/>
	<path style="fill:#464949;" d="M371.078,381.775c0-24.122,16.873-44.288,39.455-49.38c-3.599-0.812-7.337-1.253-11.18-1.253   c-27.964,0-50.633,22.668-50.633,50.633c0,27.968,22.669,50.638,50.633,50.638c3.844,0,7.582-0.443,11.18-1.253   C387.951,426.069,371.078,405.9,371.078,381.775z"/>
</g>
<circle style="fill:#E6E9ED;" cx="94.832" cy="381.775" r="17.392"/>
<g>
	<path style="fill:#C8CACC;" d="M97.99,381.775c0-5.755,2.807-10.839,7.113-14.004c-2.882-2.118-6.428-3.384-10.278-3.384   c-9.604,0-17.391,7.784-17.391,17.389c0,9.605,7.787,17.393,17.391,17.393c3.85,0,7.397-1.267,10.278-3.385   C100.797,392.618,97.99,387.53,97.99,381.775z"/>
	<path style="fill:#C8CACC;" d="M402.518,381.775c0-5.755,2.808-10.839,7.113-14.004c-2.881-2.118-6.428-3.384-10.277-3.384   c-9.605,0-17.392,7.784-17.392,17.389c0,9.605,7.787,17.393,17.392,17.393c3.849,0,7.396-1.267,10.277-3.385   C405.326,392.618,402.518,387.53,402.518,381.775z"/>
</g>
<g>
	<path style="fill:#E23740;" d="M43.965,298.826c-4.63,0-8.384-3.753-8.384-8.384V127.906c0-4.63,3.754-8.384,8.384-8.384   s8.384,3.754,8.384,8.384v162.535C52.349,295.073,48.595,298.826,43.965,298.826z"/>
	<path style="fill:#E23740;" d="M87.929,298.826c-4.63,0-8.384-3.753-8.384-8.384V127.906c0-4.63,3.754-8.384,8.384-8.384   s8.384,3.754,8.384,8.384v162.535C96.313,295.073,92.559,298.826,87.929,298.826z"/>
	<path style="fill:#E23740;" d="M131.894,298.826c-4.63,0-8.384-3.753-8.384-8.384V127.906c0-4.63,3.754-8.384,8.384-8.384   s8.384,3.754,8.384,8.384v162.535C140.278,295.073,136.524,298.826,131.894,298.826z"/>
</g>
<g>
	<path style="fill:#EA4253;" d="M131.894,119.522c-4.63,0-8.384,3.754-8.384,8.384v120.269c4.851,9.83,10.459,19.22,16.769,28.078   V127.906C140.278,123.276,136.524,119.522,131.894,119.522z"/>
	<path style="fill:#EA4253;" d="M175.859,298.826c-4.63,0-8.384-3.753-8.384-8.384V127.906c0-4.63,3.754-8.384,8.384-8.384   s8.384,3.754,8.384,8.384v162.535C184.243,295.073,180.489,298.826,175.859,298.826z"/>
	<path style="fill:#EA4253;" d="M219.824,298.826c-4.63,0-8.384-3.753-8.384-8.384V127.906c0-4.63,3.754-8.384,8.384-8.384   s8.384,3.754,8.384,8.384v162.535C228.208,295.073,224.454,298.826,219.824,298.826z"/>
	<path style="fill:#EA4253;" d="M263.787,298.826c-4.629,0-8.384-3.753-8.384-8.384V127.906c0-4.63,3.755-8.384,8.384-8.384   c4.632,0,8.384,3.754,8.384,8.384v162.535C272.172,295.073,268.418,298.826,263.787,298.826z"/>
</g>
<g>
</g>
<g>
</g>
<g>
</g>
<g>
</g>
<g>
</g>
<g>
</g>
<g>
</g>
<g>
</g>
<g>
</g>
<g>
</g>
<g>
</g>
<g>
</g>
<g>
</g>
<g>
</g>
<g>
</g>
</svg>
