<?xml version="1.0" encoding="iso-8859-1"?>
<!-- Generator: Adobe Illustrator 19.0.0, SVG Export Plug-In . SVG Version: 6.00 Build 0)  -->
<svg xmlns="http://www.w3.org/2000/svg" xmlns:xlink="http://www.w3.org/1999/xlink" version="1.1" id="Layer_1" x="0px" y="0px" viewBox="0 0 512 512" style="enable-background:new 0 0 512 512;" xml:space="preserve">
<path style="fill:#FF5357;" d="M236.239,89.593H21.019c-7.144,0-12.935,5.792-12.935,12.935v276.729  c0,7.143,5.79,12.935,12.935,12.935h32.632c-1.912-5.23-2.957-10.878-2.957-16.771c0-26.965,21.859-48.821,48.821-48.821  c26.966,0,48.823,21.857,48.823,48.821c0,5.893-1.043,11.541-2.956,16.771h44.865h101.639h12.935v-12.935v-81.819V122.986v-20.458  c0-7.143-5.792-12.935-12.935-12.935h-28.343"/>
<path style="fill:#FF6971;" d="M291.888,88.196h-28.343h-27.305H122.001C112.309,111.47,106.95,137,106.95,163.785  c0,108.688,88.108,196.797,196.796,196.797c0.361,0,0.718-0.013,1.078-0.015v-64.526V121.588v-20.457  C304.823,93.988,299.031,88.196,291.888,88.196z"/>
<path style="fill:#ED3A47;" d="M35.746,376.782V100.053c0-7.143,5.792-12.935,12.935-12.935H27.486  c-7.144,0-12.935,5.792-12.935,12.935v276.729c0,7.143,5.79,12.935,12.935,12.935h21.195  C41.538,389.716,35.746,383.925,35.746,376.782z"/>
<path style="fill:#E6E9ED;" d="M488.331,271.231c0-7.143-5.792-12.935-12.935-12.935h-5.067l-59.335-99.582H304.823v232.556h43.535  c-1.911-5.23-2.956-10.878-2.956-16.771c0-26.965,21.859-48.821,48.821-48.821c26.967,0,48.823,21.857,48.823,48.821  c0,5.893-1.044,11.541-2.956,16.771h47.339c-8.404,0-15.217-6.812-15.217-15.217v-29.659c0-8.402,6.812-15.217,15.217-15.217h0.901  l-0.168-27.168c0.101-0.648,0.168-1.305,0.168-1.981v-30.798H488.331z"/>
<rect x="311.728" y="159.377" style="fill:#A9B7C4;" width="22.636" height="232.556"/>
<rect x="351.955" y="129.821" style="fill:#E6E9ED;" width="35.025" height="28.89"/>
<rect x="353.033" y="121.004" style="fill:#CCD4DD;" width="17.514" height="61.375"/>
<g>
	<path style="fill:#E23740;" d="M8.084,378.337c0,7.143,5.79,12.935,12.935,12.935h32.632c-1.912-5.23-2.957-10.878-2.957-16.771   c0-26.965,21.859-48.821,48.821-48.821H8.084V378.337z"/>
	<path style="fill:#E23740;" d="M99.516,325.68c26.966,0,48.823,21.857,48.823,48.821c0,5.893-1.043,11.541-2.956,16.771h32.938   h25.871h87.697h12.935v-12.935V325.68H99.516z"/>
</g>
<path style="fill:#C6243B;" d="M35.746,382.33v-52.657H14.552v52.657c0,7.143,5.79,12.935,12.935,12.935h21.195  C41.538,395.264,35.746,389.473,35.746,382.33z"/>
<path style="fill:#ED3E4F;" d="M303.745,360.582c0.361,0,0.718-0.013,1.078-0.015V330.75H199.551  C229.77,349.647,265.477,360.582,303.745,360.582z"/>
<path style="fill:#E23740;" d="M369.474,102.049h-27.99c-7.04,0-12.745,5.705-12.745,12.744v2.287  c0,7.039,5.705,12.744,12.745,12.744h27.99V102.049z"/>
<path style="fill:#FF5357;" d="M410.516,102.023h-41.042V129.8h41.042c10.638,0,20.206,4.57,26.855,11.854  c0.002-0.061,0.011-0.121,0.011-0.182V91.349c0-0.382-0.025-0.756-0.057-1.129C430.678,97.474,421.129,102.023,410.516,102.023z"/>
<path style="fill:#97D3EE;" d="M438.164,258.296h32.164l-59.335-99.582h-59.251c-8.404,0-15.219,6.814-15.219,15.218v69.146  c0,8.404,6.814,15.218,15.219,15.218h59.114"/>
<path style="fill:#F7A539;" d="M503.916,376.054c0,8.404-6.812,15.217-15.217,15.217h-1.27c-8.404,0-15.217-6.812-15.217-15.217  v-29.659c0-8.402,6.812-15.217,15.217-15.217h1.27c8.404,0,15.217,6.814,15.217,15.217V376.054z"/>
<g>
	<circle style="fill:#5B5E5E;" cx="394.23" cy="374.504" r="48.818"/>
	<circle style="fill:#5B5E5E;" cx="99.522" cy="374.504" r="48.818"/>
</g>
<g>
	<circle style="fill:#E6E9ED;" cx="394.23" cy="374.504" r="16.77"/>
	<circle style="fill:#E6E9ED;" cx="99.522" cy="374.504" r="16.77"/>
</g>
<path style="fill:#49B5CE;" d="M365.627,244.916v-69.147c0-8.403,6.814-15.218,15.219-15.218H358.21  c-8.404,0-15.219,6.814-15.219,15.218v69.147c0,8.403,6.814,15.217,15.219,15.217h22.636  C372.443,260.132,365.627,253.319,365.627,244.916z"/>
<path style="fill:#E87528;" d="M488.065,376.813v-29.659c0-5.762,3.203-10.775,7.925-13.358c-2.165-1.184-4.65-1.859-7.292-1.859  h-1.27c-8.404,0-15.217,6.814-15.217,15.217v29.659c0,8.404,6.812,15.217,15.217,15.217h1.27c2.642,0,5.126-0.676,7.292-1.862  C491.269,387.589,488.065,382.575,488.065,376.813z"/>
<g>
	<path style="fill:#464949;" d="M80.876,375.26c0-23.259,16.269-42.703,38.042-47.613c-3.47-0.784-7.074-1.208-10.779-1.208   c-26.963,0-48.821,21.857-48.821,48.821c0,26.967,21.859,48.826,48.821,48.826c3.706,0,7.31-0.428,10.779-1.208   C97.144,417.967,80.876,398.518,80.876,375.26z"/>
	<path style="fill:#464949;" d="M374.506,375.26c0-23.259,16.27-42.703,38.043-47.613c-3.47-0.784-7.074-1.208-10.78-1.208   c-26.963,0-48.821,21.857-48.821,48.821c0,26.967,21.859,48.826,48.821,48.826c3.707,0,7.31-0.428,10.78-1.208   C390.775,417.967,374.506,398.518,374.506,375.26z"/>
</g>
<g>
	<path style="fill:#231F20;" d="M496.374,324.399l-0.124-19.851c0.112-0.876,0.165-1.707,0.165-2.519v-30.799   c0-11.59-9.429-21.019-21.019-21.019h-0.473l-56.983-95.635c-1.459-2.448-4.097-3.946-6.945-3.946h-15.924v-12.746h15.446   c7.924,0,15.536,3.361,20.884,9.22c1.561,1.71,3.741,2.634,5.972,2.634c0.936,0,1.881-0.163,2.792-0.498   c3.023-1.113,5.092-3.912,5.277-7.116c0.014-0.205,0.025-0.468,0.025-0.652V91.35c0-0.708-0.046-1.34-0.085-1.811   c-0.272-3.198-2.408-5.933-5.447-6.969c-3.034-1.035-6.401-0.177-8.569,2.189c-5.347,5.835-12.946,9.182-20.849,9.182h-41.042   c-0.168,0-0.333,0.015-0.499,0.025h-27.49c-11.485,0-20.829,9.343-20.829,20.828v2.287c0,11.485,9.344,20.828,20.829,20.828h2.392   v12.721h-30.969v-49.023c0-11.59-9.429-21.019-21.019-21.019h-28.344c-4.465,0-8.084,3.62-8.084,8.084   c0,4.465,3.62,8.084,8.084,8.084h28.343c2.674,0,4.851,2.176,4.851,4.851v57.106v158.881H99.516H16.168V101.608   c0-2.674,2.175-4.851,4.851-4.851h215.22c4.465,0,8.084-3.62,8.084-8.084c0-4.465-3.62-8.084-8.084-8.084H21.019   C9.428,80.59,0,90.019,0,101.608V325.68v52.657c0,11.59,9.428,21.019,21.019,21.019h27.316   c9.243,18.959,28.71,32.055,51.181,32.055c22.472,0,41.939-13.096,51.183-32.055h154.124h38.219   c9.243,18.959,28.71,32.055,51.181,32.055c22.472,0,41.939-13.096,51.183-32.055h42.024h0.022h1.248   c12.849,0,23.301-10.452,23.301-23.301v-29.659C512,336.235,505.462,327.579,496.374,324.399z M57.657,336   c-0.329,0.358-0.648,0.724-0.968,1.091c-0.285,0.326-0.572,0.648-0.849,0.98c-0.313,0.375-0.614,0.759-0.917,1.141   c-0.268,0.338-0.54,0.674-0.801,1.019c-0.294,0.389-0.577,0.788-0.861,1.185c-0.252,0.351-0.509,0.701-0.753,1.059   c-0.276,0.404-0.539,0.817-0.804,1.228c-0.235,0.363-0.474,0.723-0.702,1.093c-0.258,0.419-0.501,0.848-0.748,1.275   c-0.217,0.373-0.438,0.743-0.646,1.121c-0.239,0.437-0.463,0.882-0.692,1.325c-0.196,0.38-0.399,0.758-0.586,1.143   c-0.22,0.451-0.423,0.911-0.631,1.368c-0.177,0.39-0.361,0.775-0.529,1.169c-0.198,0.464-0.379,0.937-0.566,1.407   c-0.157,0.398-0.323,0.792-0.472,1.195c-0.178,0.481-0.337,0.971-0.503,1.457c-0.136,0.401-0.28,0.798-0.407,1.203   c-0.157,0.499-0.294,1.007-0.438,1.512c-0.114,0.402-0.238,0.801-0.344,1.207c-0.135,0.518-0.249,1.046-0.37,1.569   c-0.093,0.401-0.195,0.799-0.278,1.203c-0.112,0.544-0.203,1.096-0.3,1.646c-0.069,0.392-0.15,0.78-0.21,1.176   c-0.089,0.578-0.154,1.163-0.226,1.746c-0.046,0.375-0.105,0.746-0.143,1.123c-0.066,0.643-0.107,1.295-0.151,1.943   c-0.023,0.323-0.057,0.642-0.073,0.967c-0.05,0.977-0.077,1.96-0.077,2.948c0,0.884,0.027,1.765,0.067,2.644   c0.011,0.245,0.027,0.488,0.042,0.732c0.04,0.677,0.092,1.353,0.154,2.026c0.02,0.216,0.039,0.431,0.061,0.646   c0.093,0.883,0.199,1.763,0.334,2.64h-22.25c-2.675,0-4.851-2.176-4.851-4.851v-44.573h43.653   c-0.085,0.083-0.165,0.171-0.249,0.254c-0.345,0.341-0.68,0.691-1.018,1.04C58.254,335.371,57.951,335.681,57.657,336z    M140.205,376.473c-0.009,0.182-0.025,0.363-0.036,0.545c-0.029,0.482-0.064,0.964-0.11,1.441c-0.018,0.186-0.04,0.371-0.06,0.556   c-0.054,0.486-0.114,0.97-0.185,1.451c-0.023,0.155-0.046,0.309-0.071,0.465c-0.085,0.535-0.18,1.066-0.286,1.593   c-0.019,0.095-0.037,0.19-0.057,0.285c-3.847,18.493-20.268,32.433-39.885,32.433c-19.617,0-36.036-13.939-39.883-32.433   c-0.019-0.095-0.038-0.19-0.057-0.286c-0.106-0.528-0.2-1.061-0.286-1.595c-0.024-0.152-0.047-0.305-0.07-0.457   c-0.071-0.484-0.132-0.97-0.186-1.459c-0.02-0.183-0.042-0.366-0.06-0.551c-0.046-0.479-0.081-0.961-0.11-1.444   c-0.011-0.181-0.027-0.361-0.036-0.542c-0.031-0.654-0.05-1.312-0.05-1.973c0-2.106,0.161-4.175,0.47-6.196   c0.207-1.347,0.479-2.672,0.815-3.973c0.168-0.65,0.351-1.295,0.55-1.932c5.165-16.573,20.651-28.636,38.902-28.636   c22.463,0,40.739,18.275,40.739,40.737C140.255,375.163,140.237,375.819,140.205,376.473z M296.739,383.188H155.765   c0.134-0.875,0.24-1.757,0.334-2.64c0.023-0.215,0.041-0.43,0.061-0.645c0.064-0.674,0.115-1.348,0.154-2.026   c0.014-0.244,0.03-0.487,0.042-0.732c0.04-0.878,0.067-1.76,0.067-2.644c0-0.988-0.026-1.971-0.077-2.948   c-0.016-0.324-0.052-0.645-0.073-0.967c-0.044-0.65-0.084-1.3-0.151-1.943c-0.039-0.382-0.098-0.757-0.144-1.135   c-0.071-0.579-0.136-1.16-0.224-1.732c-0.063-0.403-0.144-0.799-0.215-1.199c-0.096-0.542-0.184-1.087-0.295-1.623   c-0.085-0.411-0.189-0.814-0.282-1.221c-0.12-0.518-0.232-1.039-0.365-1.551c-0.108-0.413-0.233-0.819-0.349-1.228   c-0.141-0.498-0.277-0.998-0.431-1.491c-0.129-0.412-0.276-0.815-0.415-1.222c-0.164-0.481-0.321-0.964-0.497-1.439   c-0.151-0.406-0.317-0.804-0.476-1.206c-0.185-0.467-0.364-0.936-0.562-1.396c-0.171-0.4-0.358-0.792-0.538-1.188   c-0.205-0.451-0.405-0.904-0.622-1.348c-0.192-0.392-0.397-0.777-0.597-1.164c-0.225-0.437-0.446-0.875-0.682-1.304   c-0.21-0.384-0.434-0.758-0.654-1.136c-0.245-0.421-0.485-0.845-0.739-1.26c-0.23-0.374-0.472-0.738-0.71-1.107   c-0.263-0.406-0.523-0.815-0.796-1.215c-0.248-0.362-0.507-0.716-0.763-1.071c-0.281-0.392-0.559-0.786-0.85-1.169   c-0.264-0.349-0.54-0.69-0.813-1.034c-0.3-0.377-0.596-0.757-0.905-1.126c-0.281-0.336-0.572-0.663-0.86-0.993   c-0.317-0.362-0.632-0.725-0.957-1.079c-0.296-0.322-0.603-0.635-0.907-0.951c-0.334-0.346-0.666-0.694-1.009-1.033   c-0.085-0.084-0.165-0.174-0.251-0.257h157.527L296.739,383.188L296.739,383.188z M377.558,110.108h32.958   c6.542,0,12.952-1.458,18.781-4.177v19.96c-5.828-2.718-12.236-4.177-18.781-4.177h-32.958V110.108z M369.474,137.909h9.427v12.721   h-18.857v-12.721C360.045,137.909,369.474,137.909,369.474,137.909z M341.484,121.74c-2.571,0-4.661-2.09-4.661-4.66v-2.287   c0-2.57,2.09-4.66,4.661-4.66h19.906v11.607h-9.429H341.484z M434.912,376.472c-0.009,0.184-0.025,0.368-0.036,0.551   c-0.029,0.479-0.064,0.957-0.109,1.431c-0.018,0.191-0.041,0.38-0.063,0.57c-0.053,0.48-0.112,0.957-0.182,1.431   c-0.024,0.162-0.049,0.324-0.074,0.486c-0.084,0.524-0.177,1.044-0.28,1.562c-0.02,0.106-0.041,0.211-0.063,0.317   c-3.851,18.487-20.27,32.421-39.882,32.421c-17.497,0-32.45-11.092-38.207-26.612c-0.019-0.057-0.043-0.112-0.065-0.168   c-0.68-1.859-1.229-3.781-1.634-5.755c-0.002-0.009-0.003-0.017-0.005-0.026c-0.124-0.604-0.231-1.213-0.327-1.826   c-0.022-0.135-0.04-0.271-0.059-0.405c-0.072-0.493-0.135-0.987-0.19-1.485c-0.019-0.181-0.04-0.363-0.057-0.545   c-0.045-0.474-0.08-0.951-0.109-1.429c-0.011-0.181-0.025-0.361-0.033-0.542c-0.03-0.646-0.05-1.295-0.05-1.947   c0-22.462,18.275-40.737,40.737-40.737c22.463,0,40.739,18.275,40.739,40.737C434.963,375.162,434.943,375.819,434.912,376.472z    M480.246,302.029c0,0.184-0.023,0.426-0.071,0.737c-0.068,0.427-0.099,0.861-0.097,1.295l0.125,20.18   c-0.066,0.022-0.129,0.051-0.195,0.072c-0.468,0.157-0.929,0.328-1.382,0.513c-0.061,0.025-0.125,0.047-0.186,0.073   c-0.489,0.206-0.968,0.431-1.44,0.668c-0.108,0.054-0.215,0.109-0.321,0.165c-0.468,0.245-0.929,0.501-1.379,0.776   c-0.053,0.032-0.103,0.067-0.155,0.1c-0.415,0.259-0.82,0.531-1.218,0.815c-0.086,0.061-0.174,0.122-0.26,0.184   c-0.418,0.307-0.827,0.628-1.223,0.963c-0.083,0.07-0.164,0.141-0.245,0.212c-0.376,0.326-0.743,0.661-1.097,1.009   c-0.033,0.033-0.069,0.065-0.102,0.098c-0.373,0.372-0.731,0.76-1.078,1.155c-0.078,0.088-0.155,0.178-0.232,0.267   c-0.34,0.399-0.667,0.805-0.98,1.227c-0.043,0.058-0.084,0.12-0.127,0.178c-0.285,0.39-0.555,0.791-0.815,1.199   c-0.054,0.084-0.109,0.166-0.161,0.251c-0.275,0.444-0.535,0.899-0.779,1.362c-0.052,0.099-0.102,0.198-0.153,0.299   c-0.236,0.461-0.46,0.929-0.666,1.408c-0.011,0.025-0.023,0.049-0.033,0.073c-0.21,0.495-0.399,1.001-0.574,1.513   c-0.039,0.112-0.078,0.224-0.114,0.337c-0.166,0.508-0.318,1.021-0.449,1.544c-0.021,0.081-0.037,0.163-0.056,0.245   c-0.116,0.484-0.217,0.973-0.303,1.468c-0.016,0.093-0.035,0.183-0.05,0.277c-0.086,0.538-0.152,1.081-0.2,1.63   c-0.011,0.119-0.018,0.238-0.027,0.358c-0.041,0.567-0.07,1.137-0.07,1.714v29.659c0,0.554,0.026,1.102,0.065,1.646   c0.009,0.127,0.018,0.253,0.029,0.379c0.046,0.534,0.106,1.063,0.188,1.586c0.01,0.063,0.023,0.123,0.033,0.185   c0.079,0.475,0.172,0.945,0.279,1.41c0.027,0.12,0.054,0.238,0.083,0.357c0.123,0.5,0.26,0.994,0.415,1.48   c0.01,0.029,0.015,0.059,0.025,0.088h-14.773c0.135-0.876,0.241-1.757,0.334-2.64c0.023-0.213,0.041-0.429,0.061-0.643   c0.064-0.676,0.115-1.353,0.155-2.032c0.014-0.241,0.03-0.483,0.041-0.725c0.04-0.88,0.067-1.761,0.067-2.646   c0-31.378-25.529-56.905-56.908-56.905c-31.378,0-56.905,25.528-56.905,56.905c0,0.885,0.027,1.767,0.067,2.646   c0.011,0.243,0.027,0.483,0.041,0.725c0.04,0.679,0.092,1.357,0.155,2.032c0.02,0.215,0.039,0.43,0.061,0.643   c0.094,0.883,0.201,1.763,0.334,2.64h-25.07v-57.508v-158.88h16.654c-0.725,2.25-1.121,4.646-1.121,7.134v69.146   c0,12.849,10.453,23.302,23.303,23.302h59.114c4.466,0,8.084-3.62,8.084-8.084c0-4.465-3.618-8.084-8.084-8.084h-59.114   c-3.933,0-7.135-3.2-7.135-7.134v-69.146c0-3.933,3.201-7.134,7.135-7.134h0.217h35.025h19.415l49.701,83.413h-17.936   c-4.466,0-8.084,3.62-8.084,8.084c0,4.465,3.618,8.084,8.084,8.084h32.164h5.067c2.674,0,4.851,2.175,4.851,4.851v30.799H480.246z    M495.832,376.054c0,3.932-3.2,7.132-7.132,7.132h-1.248h-0.011h-0.011c-3.932,0-7.132-3.2-7.132-7.132v-29.659   c0-3.932,3.2-7.132,7.132-7.132h0.901h0.369c3.932,0,7.132,3.2,7.132,7.132V376.054z"/>
	<path style="fill:#231F20;" d="M370.764,278.709h-29.167c-4.466,0-8.084,3.618-8.084,8.084c0,4.465,3.618,8.084,8.084,8.084h29.167   c4.466,0,8.084-3.62,8.084-8.084C378.848,282.328,375.23,278.709,370.764,278.709z"/>
	<path style="fill:#231F20;" d="M42.392,129.717v156.719c0,4.466,3.62,8.084,8.084,8.084s8.084-3.618,8.084-8.084V129.717   c0-4.465-3.62-8.084-8.084-8.084S42.392,125.252,42.392,129.717z"/>
	<path style="fill:#231F20;" d="M84.782,129.717v156.719c0,4.466,3.62,8.084,8.084,8.084c4.465,0,8.084-3.618,8.084-8.084V129.717   c0-4.465-3.62-8.084-8.084-8.084C88.402,121.633,84.782,125.252,84.782,129.717z"/>
	<path style="fill:#231F20;" d="M127.174,129.717v156.719c0,4.466,3.62,8.084,8.084,8.084c4.465,0,8.084-3.618,8.084-8.084V129.717   c0-4.465-3.62-8.084-8.084-8.084C130.793,121.633,127.174,125.252,127.174,129.717z"/>
	<path style="fill:#231F20;" d="M169.564,129.717v156.719c0,4.466,3.62,8.084,8.084,8.084s8.084-3.618,8.084-8.084V129.717   c0-4.465-3.62-8.084-8.084-8.084S169.564,125.252,169.564,129.717z"/>
	<path style="fill:#231F20;" d="M211.957,129.717v156.719c0,4.466,3.62,8.084,8.084,8.084c4.465,0,8.084-3.618,8.084-8.084V129.717   c0-4.465-3.62-8.084-8.084-8.084C215.575,121.633,211.957,125.252,211.957,129.717z"/>
	<path style="fill:#231F20;" d="M262.431,294.52c4.465,0,8.084-3.618,8.084-8.084V129.717c0-4.465-3.62-8.084-8.084-8.084   c-4.465,0-8.084,3.62-8.084,8.084v156.719C254.347,290.9,257.967,294.52,262.431,294.52z"/>
	<path style="fill:#231F20;" d="M394.224,349.65c-13.704,0-24.853,11.149-24.853,24.851c0,13.705,11.149,24.855,24.853,24.855   c13.705,0,24.855-11.15,24.855-24.855C419.078,360.799,407.929,349.65,394.224,349.65z M394.224,383.188   c-4.788,0-8.685-3.897-8.685-8.687c0-4.787,3.896-8.682,8.685-8.682c4.789,0,8.687,3.894,8.687,8.682   C402.909,379.29,399.013,383.188,394.224,383.188z"/>
	<path style="fill:#231F20;" d="M99.516,349.65c-13.704,0-24.853,11.149-24.853,24.851c0,13.705,11.149,24.855,24.853,24.855   s24.854-11.15,24.854-24.855C124.37,360.799,113.221,349.65,99.516,349.65z M99.516,383.188c-4.789,0-8.685-3.897-8.685-8.687   c0-4.787,3.896-8.682,8.685-8.682c4.789,0,8.686,3.894,8.686,8.682C108.201,379.29,104.305,383.188,99.516,383.188z"/>
</g>
<g>
</g>
<g>
</g>
<g>
</g>
<g>
</g>
<g>
</g>
<g>
</g>
<g>
</g>
<g>
</g>
<g>
</g>
<g>
</g>
<g>
</g>
<g>
</g>
<g>
</g>
<g>
</g>
<g>
</g>
</svg>
