<?xml version="1.0" encoding="iso-8859-1"?>
<!-- Generator: Adobe Illustrator 19.0.0, SVG Export Plug-In . SVG Version: 6.00 Build 0)  -->
<svg xmlns="http://www.w3.org/2000/svg" xmlns:xlink="http://www.w3.org/1999/xlink" version="1.1" id="Layer_1" x="0px" y="0px" viewBox="0 0 512 512" style="enable-background:new 0 0 512 512;" xml:space="preserve">
<path style="fill:#E6E9ED;" d="M496.952,272.026c0-7.411-6.004-13.415-13.415-13.415h-5.253l-61.54-103.279H306.633v241.187h17.559  h27.594h8.343c-0.351-2.124-0.543-4.302-0.543-6.524c0-21.965,17.806-39.768,39.768-39.768c21.965,0,39.768,17.804,39.768,39.768  c0,2.222-0.19,4.4-0.541,6.524h8.343h13.652h35.443c-8.716,0-15.781-7.063-15.781-15.781V349.98c0-8.716,7.065-15.781,15.781-15.781  h0.932l-0.155-25.417c0.092-0.635,0.155-1.282,0.155-1.943V272.026z"/>
<path style="fill:#97D3EE;" d="M444.926,258.611h33.358l-61.54-103.279h-61.448c-8.716,0-15.784,7.067-15.784,15.783v71.712  c0,8.716,7.067,15.784,15.784,15.784h61.308"/>
<circle style="fill:#5B5E5E;" cx="399.349" cy="390.001" r="39.768"/>
<circle style="fill:#E6E9ED;" cx="399.349" cy="390.001" r="13.66"/>
<path style="fill:#BEC6CC;" d="M375.024,296.551h-30.249c-4.63,0-8.384-3.753-8.384-8.384c0-4.631,3.754-8.384,8.384-8.384h30.249  c4.63,0,8.384,3.753,8.384,8.384C383.409,292.797,379.654,296.551,375.024,296.551z"/>
<path style="fill:#F7A539;" d="M512,380.738c0,8.719-7.067,15.781-15.781,15.781h-1.317c-8.716,0-15.781-7.063-15.781-15.781V349.98  c0-8.716,7.065-15.781,15.781-15.781h1.317c8.714,0,15.781,7.065,15.781,15.781V380.738z"/>
<path style="fill:#E87528;" d="M495.56,380.738V349.98c0-5.976,3.322-11.173,8.219-13.853c-2.246-1.23-4.822-1.93-7.561-1.93h-1.317  c-8.716,0-15.781,7.065-15.781,15.781v30.758c0,8.719,7.065,15.781,15.781,15.781h1.317c2.739,0,5.316-0.7,7.561-1.928  C498.883,391.913,495.56,386.715,495.56,380.738z"/>
<rect x="306.63" y="155.331" style="fill:#CCD4DD;" width="23.476" height="241.188"/>
<path style="fill:#49B5CE;" d="M362.987,242.828v-71.714c0-8.715,7.067-15.783,15.784-15.783h-23.476  c-8.716,0-15.784,7.067-15.784,15.783v71.714c0,8.716,7.067,15.781,15.784,15.781h23.476  C370.054,258.609,362.987,251.544,362.987,242.828z"/>
<path style="fill:#464949;" d="M382.005,389.995c0-18.071,12.055-33.316,28.56-38.156c-3.557-1.043-7.317-1.612-11.21-1.612  c-21.963,0-39.768,17.804-39.768,39.768c0,21.963,17.806,39.768,39.768,39.768c3.894,0,7.654-0.57,11.21-1.612  C394.06,423.31,382.005,408.065,382.005,389.995z"/>
<path style="fill:#C8CACC;" d="M402.463,389.995c0-4.38,2.07-8.268,5.275-10.768c-2.315-1.805-5.221-2.892-8.384-2.892  c-7.544,0-13.66,6.116-13.66,13.66c0,7.541,6.116,13.66,13.66,13.66c3.164,0,6.069-1.087,8.384-2.892  C404.533,398.263,402.463,394.374,402.463,389.995z"/>
<path style="fill:#FF5357;" d="M294.336,115.111h-29.393h-28.319H67.747l-53.595,64.159h0.002c0,0-14.155,16.765-14.155,40.588  v163.249c0,7.411,6.006,13.415,13.415,13.415h18.748h6.419c-0.351-2.124-0.543-4.302-0.543-6.526  c0-21.962,17.806-39.766,39.768-39.766c21.965,0,39.768,17.804,39.768,39.766c0,2.225-0.192,4.402-0.541,6.526h28.308  c-0.351-2.124-0.541-4.302-0.541-6.526c0-21.962,17.804-39.766,39.766-39.766c21.965,0,39.768,17.804,39.768,39.766  c0,2.225-0.19,4.402-0.541,6.526h25.498h45.044h13.415v-13.415v-84.853V149.743v-21.217  C307.751,121.117,301.747,115.111,294.336,115.111z"/>
<path style="fill:#ED3A47;" d="M21.564,388.694V225.447c0-23.823,14.155-40.588,14.155-40.588h-0.002l57.338-69.748H67.746  l-53.593,64.159h0.002c0,0-14.155,16.765-14.155,40.588v163.249c0,7.411,6.006,13.415,13.415,13.415h10.684  C22.51,394.316,21.564,391.62,21.564,388.694z"/>
<g>
	<path style="fill:#E23740;" d="M164.703,82.231h-16.319H95.601l-27.465,32.88h80.249h148.718h96.474   c9.078,0,16.439-7.36,16.439-16.44s-7.36-16.44-16.439-16.44h-96.474H193.397"/>
	<path style="fill:#E23740;" d="M393.576,82.231h-96.474H193.397h-28.694h-16.319h-0.813c-4.339,10.546-7.82,21.534-10.356,32.88   h11.169h148.718h96.474c9.078,0,16.439-7.36,16.439-16.44S402.656,82.231,393.576,82.231z"/>
</g>
<path style="fill:#FF6971;" d="M294.336,115.111h-29.393h-28.319h-99.41c-3.216,14.39-4.924,29.349-4.924,44.709  c0,103.001,76.301,188.164,175.461,202.091v-63.66V149.743v-21.217C307.751,121.117,301.747,115.111,294.336,115.111z"/>
<path style="fill:#ED3E4F;" d="M393.576,82.231h-96.474H193.397h-28.694h-16.319h-0.813c-4.339,10.546-7.82,21.534-10.356,32.88  h11.169h148.718h96.474c9.078,0,16.439-7.36,16.439-16.44S402.656,82.231,393.576,82.231z"/>
<path style="fill:#E23740;" d="M13.415,396.519h18.748h6.419c-0.351-2.124-0.543-4.302-0.543-6.526  c0-9.825,3.572-18.814,9.478-25.753H0v18.865C0,390.515,6.006,396.519,13.415,396.519z"/>
<path style="fill:#C6243B;" d="M21.564,364.24H0v18.865c0,7.411,6.006,13.415,13.415,13.415h10.684  c-1.589-2.204-2.534-4.901-2.534-7.825C21.564,388.694,21.564,364.24,21.564,364.24z"/>
<g>
	<path style="fill:#E23740;" d="M108.098,364.24c5.906,6.939,9.479,15.928,9.479,25.753c0,2.225-0.192,4.402-0.541,6.526h28.308   c-0.351-2.124-0.541-4.302-0.541-6.526c0-9.825,3.569-18.814,9.476-25.753H108.098z"/>
	<path style="fill:#E23740;" d="M224.336,389.993c0,2.225-0.19,4.402-0.541,6.526h25.497h45.044h13.415v-13.415V364.24H214.86   C220.766,371.179,224.336,380.168,224.336,389.993z"/>
</g>
<g>
	<circle style="fill:#5B5E5E;" cx="77.806" cy="389.99" r="39.768"/>
	<circle style="fill:#5B5E5E;" cx="184.566" cy="389.99" r="39.767"/>
</g>
<g>
	<path style="fill:#464949;" d="M60.458,389.993c0-18.069,12.055-33.314,28.56-38.154c-3.557-1.043-7.317-1.612-11.21-1.612   c-21.962,0-39.768,17.804-39.768,39.766c0,21.965,17.806,39.771,39.768,39.771c3.894,0,7.654-0.57,11.21-1.612   C72.514,423.31,60.458,408.065,60.458,389.993z"/>
	<path style="fill:#464949;" d="M167.221,389.993c0-18.069,12.054-33.312,28.558-38.154c-3.557-1.043-7.317-1.612-11.21-1.612   c-21.962,0-39.766,17.804-39.766,39.766c0,21.965,17.804,39.771,39.766,39.771c3.894,0,7.654-0.57,11.21-1.612   C179.275,423.31,167.221,408.065,167.221,389.993z"/>
</g>
<g>
	<path style="fill:#E6E9ED;" d="M91.467,389.993c0,7.544-6.116,13.662-13.66,13.662s-13.661-6.118-13.661-13.662   c0-7.541,6.117-13.657,13.661-13.657C85.352,376.337,91.467,382.452,91.467,389.993z"/>
	<path style="fill:#E6E9ED;" d="M198.227,389.993c0,7.544-6.116,13.662-13.66,13.662c-7.544,0-13.661-6.118-13.661-13.662   c0-7.541,6.117-13.657,13.661-13.657C192.112,376.337,198.227,382.452,198.227,389.993z"/>
</g>
<g>
	<path style="fill:#C8CACC;" d="M80.916,389.993c0-4.379,2.07-8.267,5.277-10.765c-2.315-1.805-5.221-2.892-8.384-2.892   c-7.544,0-13.661,6.116-13.661,13.657c0,7.544,6.117,13.662,13.661,13.662c3.164,0,6.069-1.087,8.384-2.893   C82.985,398.262,80.916,394.373,80.916,389.993z"/>
	<path style="fill:#C8CACC;" d="M187.676,389.993c0-4.379,2.07-8.267,5.277-10.765c-2.315-1.805-5.221-2.892-8.384-2.892   c-7.544,0-13.661,6.116-13.661,13.657c0,7.544,6.117,13.662,13.661,13.662c3.164,0,6.069-1.087,8.384-2.893   C189.745,398.262,187.676,394.373,187.676,389.993z"/>
</g>
<g>
	<path style="fill:#E23740;" d="M269.385,334.789c-4.63,0-8.384-3.754-8.384-8.384V148.283c0-4.63,3.754-8.384,8.384-8.384   c4.63,0,8.384,3.754,8.384,8.384v178.121C277.769,331.035,274.014,334.789,269.385,334.789z"/>
	<path style="fill:#E23740;" d="M231.017,334.789c-4.63,0-8.384-3.754-8.384-8.384V148.283c0-4.63,3.754-8.384,8.384-8.384   s8.384,3.754,8.384,8.384v178.121C239.401,331.035,235.647,334.789,231.017,334.789z"/>
	<path style="fill:#E23740;" d="M192.651,334.789c-4.63,0-8.384-3.754-8.384-8.384V148.283c0-4.63,3.754-8.384,8.384-8.384   s8.384,3.754,8.384,8.384v178.121C201.035,331.035,197.281,334.789,192.651,334.789z"/>
	<path style="fill:#E23740;" d="M115.914,334.789c-4.63,0-8.384-3.754-8.384-8.384V148.283c0-4.63,3.754-8.384,8.384-8.384   s8.384,3.754,8.384,8.384v178.121C124.299,331.035,120.545,334.789,115.914,334.789z"/>
	<path style="fill:#E23740;" d="M77.548,334.789c-4.63,0-8.384-3.754-8.384-8.384V155.333c0-4.63,3.754-8.384,8.384-8.384   s8.384,3.754,8.384,8.384v171.072C85.932,331.035,82.178,334.789,77.548,334.789z"/>
	<path style="fill:#E23740;" d="M39.18,334.789c-4.629,0-8.384-3.754-8.384-8.384V197.471c0-4.63,3.755-8.384,8.384-8.384   c4.631,0,8.384,3.754,8.384,8.384v128.933C47.565,331.035,43.811,334.789,39.18,334.789z"/>
	<path style="fill:#E23740;" d="M154.282,334.789c-4.63,0-8.384-3.754-8.384-8.384V148.283c0-4.63,3.754-8.384,8.384-8.384   s8.384,3.754,8.384,8.384v178.121C162.666,331.035,158.911,334.789,154.282,334.789z"/>
</g>
<polygon style="fill:#C6243B;" points="120.086,82.231 95.601,82.231 68.135,115.111 93.055,115.111 "/>
<g>
</g>
<g>
</g>
<g>
</g>
<g>
</g>
<g>
</g>
<g>
</g>
<g>
</g>
<g>
</g>
<g>
</g>
<g>
</g>
<g>
</g>
<g>
</g>
<g>
</g>
<g>
</g>
<g>
</g>
</svg>
