<?xml version="1.0" encoding="iso-8859-1"?>
<!-- Generator: Adobe Illustrator 19.0.0, SVG Export Plug-In . SVG Version: 6.00 Build 0)  -->
<svg version="1.1" id="Capa_1" xmlns="http://www.w3.org/2000/svg" xmlns:xlink="http://www.w3.org/1999/xlink" x="0px" y="0px"
	 viewBox="0 0 512 512" style="enable-background:new 0 0 512 512;" xml:space="preserve">
<circle style="fill:#3D6687;" cx="444.23" cy="362.96" r="60.26"/>
<path style="fill:#0C5177;" d="M444.229,302.704c-10.046,0-19.51,2.472-27.839,6.82c19.263,10.056,32.421,30.206,32.421,53.44
	s-13.158,43.384-32.421,53.44c8.329,4.348,17.793,6.82,27.839,6.82c33.281,0,60.26-26.979,60.26-60.26
	S477.509,302.704,444.229,302.704z"/>
<path style="fill:#CCCBCA;" d="M444.229,397.177c-18.865,0-34.213-15.348-34.213-34.213s15.348-34.213,34.213-34.213
	c18.865,0,34.213,15.348,34.213,34.213S463.094,397.177,444.229,397.177z"/>
<path style="fill:#EF2929;" d="M449.523,372.221L449.523,372.221c-6.799,3.553-15.191,0.921-18.744-5.878l-38.165-73.036
	l24.621-12.866l38.165,73.036C458.954,360.276,456.322,368.668,449.523,372.221z"/>
<circle style="fill:#3D6687;" cx="138.77" cy="362.96" r="60.26"/>
<path style="fill:#0C5177;" d="M138.769,302.704c-10.046,0-19.51,2.472-27.839,6.82c19.263,10.056,32.421,30.206,32.421,53.44
	s-13.158,43.384-32.421,53.44c8.329,4.348,17.793,6.82,27.839,6.82c33.281,0,60.26-26.979,60.26-60.26
	S172.05,302.704,138.769,302.704z"/>
<path style="fill:#CCCBCA;" d="M138.769,397.177c-18.865,0-34.213-15.348-34.213-34.213s15.348-34.213,34.213-34.213
	s34.213,15.348,34.213,34.213S157.634,397.177,138.769,397.177z"/>
<path style="fill:#FF4C4C;" d="M492.343,305.064c-8.789-28.15-37.143-45.913-68.246-42.291L366.446,161.54l-23.847,8.539
	c0,0,37.21,89.064,20.705,149.764l0,0c-1.979,10.281-10.975,17.711-21.444,17.711h-28.4c-30.065,0-54.438-24.373-54.438-54.438
	v-26.464c0-20.277-16.437-36.714-36.714-36.714h-65.452c-55.7,0-100.854,45.154-100.854,100.854v16.762v19.043
	c0,4.833,3.918,8.751,8.751,8.751h194.269h99.761c15.453,0,29.305-4.323,34.824-18.757l0,0c2.255-5.896,5.89-11.176,10.627-15.349
	C439.28,300.368,492.343,305.064,492.343,305.064z"/>
<g>
	<path style="fill:#EF2929;" d="M424.096,262.773L366.445,161.54l-11.575,4.145l42.823,127.706
		c18.445-2.148,26.39,8.543,39.394,19.142c28.22-9.857,55.254-7.469,55.254-7.469C483.554,276.914,455.199,259.151,424.096,262.773z
		"/>
	<path style="fill:#EF2929;" d="M170.32,278.479h-36.201c-43.143,0-78.117,34.974-78.117,78.117l0,0
		c0,4.833,3.918,8.751,8.751,8.751h174.933v-17.501C239.686,309.535,208.63,278.479,170.32,278.479z"/>
</g>
<path style="fill:#DD2626;" d="M170.32,278.479h-36.201c-3.516,0-6.971,0.255-10.364,0.705
	c33.655,4.774,59.541,33.688,59.541,68.661v17.501h56.39v-17.501C239.686,309.535,208.63,278.479,170.32,278.479z"/>
<path style="fill:#FFC06C;" d="M157.798,199.972H13.351c-3.225,0-5.84-2.615-5.84-5.84V94.616c0-3.225,2.615-5.84,5.84-5.84h138.607
	c3.225,0,5.84,2.615,5.84,5.84L157.798,199.972L157.798,199.972z"/>
<path style="fill:#EDA558;" d="M151.959,88.776h-49.838v84.448c0,7.355-5.962,13.317-13.317,13.317H7.511v7.592
	c0,3.225,2.615,5.84,5.84,5.84h144.447V186.54V94.616C157.798,91.391,155.184,88.776,151.959,88.776z"/>
<path style="fill:#3D6687;" d="M241.22,219.937h-83.421v-19.641c0-7.597,6.159-13.756,13.756-13.756h73.712
	c7.597,0,13.756,6.159,13.756,13.756v1.839C259.022,211.967,251.052,219.937,241.22,219.937z"/>
<path style="fill:#FF4C4C;" d="M92.161,123.539H73.149c-2.332,0-4.222-1.89-4.222-4.222V88.776h27.457v30.541
	C96.383,121.649,94.493,123.539,92.161,123.539z"/>
<g>
	<path style="fill:#0C5177;" d="M245.266,186.54h-41.922v33.397h37.875c9.832,0,17.802-7.97,17.802-17.802v-1.839
		C259.022,192.699,252.863,186.54,245.266,186.54z"/>
	<path style="fill:#0C5177;" d="M383.418,176.295H342.27c-3.628,0-6.569-2.941-6.569-6.569v-18.043c0-3.228,2.345-5.978,5.533-6.487
		l39.933-6.376c8.672-1.385,16.527,5.315,16.527,14.097v9.101C397.694,169.904,391.303,176.295,383.418,176.295z"/>
</g>
<path d="M489.352,312.419c1.447,0.056,2.267,0.121,2.328,0.126c2.49,0.219,4.939-0.818,6.511-2.769
	c1.572-1.952,2.068-4.559,1.321-6.951c-9.363-29.988-38.825-49.532-71.258-47.929l-3.207-5.631c-2.053-3.606-6.64-4.863-10.244-2.81
	c-3.605,2.053-4.863,6.639-2.81,10.244l5.576,9.792c1.491,2.618,4.398,4.091,7.396,3.744c23.306-2.713,45.234,8.349,55.872,27.082
	c-17.171,0.393-49.214,3.983-75.203,23.171c-0.03,0.022-0.063,0.039-0.093,0.061c-0.071,0.052-0.137,0.108-0.208,0.161
	c-0.887,0.661-1.767,1.34-2.639,2.037c-0.171,0.136-0.345,0.269-0.514,0.406c-0.98,0.795-1.953,1.608-2.911,2.452
	c-0.7,0.617-1.382,1.256-2.043,1.915c-4.629,4.614-8.28,10.229-10.636,16.388c-1.455,3.805-3.674,6.712-6.783,8.889
	c-0.092,0.065-0.175,0.14-0.264,0.208c-4.143,2.79-10.553,4.831-20.761,4.831H247.198v-9.99c0-42.391-34.487-76.878-76.878-76.878
	h-36.2c-28.623,0-53.992,14.131-69.548,35.767c6.799-44.824,45.592-79.286,92.284-79.286h0.942h64.51
	c16.102,0,29.203,13.1,29.203,29.203v26.464c0,34.159,27.79,61.95,61.949,61.95h28.399c13.946,0,25.994-9.868,28.763-23.51
	c12.578-46.713-4.996-108.798-14.918-137.749h14.779l24.053,42.236c2.053,3.605,6.64,4.863,10.244,2.81
	c3.605-2.053,4.863-6.639,2.81-10.244l-20.045-35.198c10.047-1.934,17.662-10.787,17.662-21.39v-9.101
	c0-6.389-2.788-12.43-7.648-16.576c-4.86-4.146-11.267-5.945-17.574-4.939l-39.932,6.376c-6.873,1.096-11.861,6.944-11.861,13.904
	v18.043c0,0.631,0.055,1.249,0.136,1.858l-10.896,8.4c-3.285,2.533-3.896,7.249-1.363,10.535c1.48,1.919,3.704,2.926,5.954,2.926
	c1.601,0,3.215-0.51,4.581-1.563l11.376-8.769c0.561,0.18,1.131,0.338,1.72,0.447c8.876,24.682,28.802,88.544,16.357,134.312
	c-0.049,0.182-0.092,0.366-0.128,0.551c-1.296,6.733-7.213,11.619-14.069,11.619h-28.4c-25.875,0-46.926-21.051-46.926-46.927
	v-26.464c0-12.583-5.291-23.947-13.755-32.008c8.159-4.207,13.755-12.714,13.755-22.509v-1.839c0-11.727-9.54-21.267-21.267-21.267
	h-73.712c-2.173,0-4.269,0.331-6.244,0.939V94.616c0-7.362-5.99-13.351-13.351-13.351l0,0l0,0H13.351C5.99,81.265,0,87.254,0,94.616
	v49.449c0,4.148,3.363,7.511,7.511,7.511s7.511-3.363,7.511-7.511V96.288h46.392v23.03c0,6.47,5.264,11.734,11.734,11.734h19.013
	c6.47,0,11.734-5.264,11.734-11.734v-23.03h46.392v96.173H15.023v-13.446c0-4.148-3.363-7.511-7.511-7.511S0,174.866,0,179.014
	v15.118c0,7.362,5.99,13.351,13.351,13.351h7.28l42.204,59.484c-9.12,15.867-14.344,34.246-14.344,53.825v35.805
	c0,8.406,6.412,15.343,14.602,16.177c0.546,0.056,1.1,0.084,1.66,0.084h6.981c4.775,32.982,32.939,57.877,67.035,57.877
	s62.26-24.895,67.035-57.877l0,0h152.979c6.789,0,12.829-0.772,18.11-2.308c3.785,33.81,32.532,60.185,67.336,60.185
	c37.369,0,67.771-30.402,67.771-67.771C512,343.298,503.449,325.034,489.352,312.419z M343.213,168.784v-16.296l39.139-6.249
	c2.682-0.431,4.569,0.777,5.457,1.533c0.887,0.757,2.375,2.431,2.375,5.147v9.101c0,3.73-3.034,6.765-6.765,6.765l0,0h-40.206
	V168.784z M165.31,200.296c0-3.443,2.801-6.245,6.244-6.245h73.712c3.443,0,6.244,2.802,6.244,6.245v1.839
	c0,5.675-4.616,10.291-10.291,10.291l0,0h-75.91v-12.13H165.31z M88.872,116.028H76.438v-19.74h12.434V116.028z M39.051,207.483
	h111.237v5.148c-31.754,1.908-59.864,17.554-78.455,41.057c0,0,0-0.001,0.001-0.001L39.051,207.483z M138.769,415.712
	c-25.779,0-47.208-18.281-51.818-42.855h11.303c4.482,18.319,21.087,31.83,40.514,31.83s36.031-13.512,40.514-31.83h11.304
	C185.977,397.432,164.548,415.712,138.769,415.712z M113.98,372.858h49.578c-3.96,9.872-13.652,16.808-24.789,16.808
	S117.939,382.73,113.98,372.858z M232.175,357.835L232.175,357.835L232.175,357.835L232.175,357.835L232.175,357.835H64.753
	c-0.683,0-1.239-0.556-1.239-1.239c0-38.932,31.674-70.606,70.606-70.606h36.2c34.107,0,61.855,27.748,61.855,61.855
	L232.175,357.835L232.175,357.835z M431.023,323.044l17.721,33.912c0.099,0.189,0.187,0.381,0.266,0.576
	c0.315,0.78,0.47,1.604,0.462,2.432c-0.006,0.621-0.104,1.245-0.295,1.855c-0.51,1.626-1.622,2.956-3.133,3.745
	c-1.51,0.788-3.238,0.942-4.862,0.433c-1.626-0.51-2.956-1.622-3.745-3.132l-17.678-33.829
	C423.423,326.742,427.202,324.758,431.023,323.044z M417.973,358.055l6.149,11.767c5.465,10.459,18.421,14.523,28.88,9.056
	c10.458-5.465,14.521-18.42,9.056-28.88l-5.636-10.785c8.608,4.437,14.508,13.418,14.508,23.751
	c0,14.723-11.978,26.701-26.701,26.701s-26.701-11.978-26.701-26.701C417.527,361.296,417.677,359.656,417.973,358.055z
	 M444.229,415.712c-29.086,0-52.749-23.663-52.749-52.749c0-0.077,0-0.156,0.001-0.234c2.8-2.492,5.134-5.441,6.992-8.846
	c0.23-0.417,0.454-0.838,0.669-1.267c0.149-0.301,0.297-0.602,0.439-0.91c0.369-0.793,0.722-1.6,1.042-2.434
	c0.214-0.559,0.446-1.11,0.69-1.654c0.08-0.179,0.168-0.353,0.252-0.53c0.171-0.364,0.346-0.726,0.53-1.083
	c0.106-0.204,0.217-0.405,0.327-0.607c0.177-0.325,0.359-0.647,0.547-0.965c0.121-0.204,0.245-0.407,0.37-0.609
	c0.194-0.312,0.394-0.619,0.599-0.923c0.13-0.193,0.259-0.387,0.392-0.577c0.224-0.318,0.456-0.629,0.691-0.938
	c0.125-0.164,0.246-0.331,0.374-0.492c0.318-0.401,0.646-0.792,0.982-1.177c0.053-0.061,0.103-0.125,0.157-0.186
	c0.366-0.412,0.746-0.809,1.132-1.2l1.265,2.421c-4.169,6.623-6.428,14.344-6.428,22.21c0,23.007,18.717,41.724,41.724,41.724
	c23.006,0,41.724-18.717,41.724-41.724c0-22.045-17.188-40.14-38.865-41.615l-1.835-3.512c6.382-1.864,12.612-3.116,18.331-3.945
	c20.05,7.909,33.395,27.397,33.395,49.072C496.977,392.05,473.315,415.712,444.229,415.712z"/>
<g>
</g>
<g>
</g>
<g>
</g>
<g>
</g>
<g>
</g>
<g>
</g>
<g>
</g>
<g>
</g>
<g>
</g>
<g>
</g>
<g>
</g>
<g>
</g>
<g>
</g>
<g>
</g>
<g>
</g>
</svg>
