<?xml version="1.0" encoding="iso-8859-1"?>
<!-- Generator: Adobe Illustrator 19.0.0, SVG Export Plug-In . SVG Version: 6.00 Build 0)  -->
<svg version="1.1" id="Capa_1" xmlns="http://www.w3.org/2000/svg" xmlns:xlink="http://www.w3.org/1999/xlink" x="0px" y="0px"
	 viewBox="0 0 512 512" style="enable-background:new 0 0 512 512;" xml:space="preserve">
<polygon style="fill:#CCCBCA;" points="20.826,189.4 7.409,197.238 64.041,277.24 76.863,268.567 "/>
<circle style="fill:#3D6687;" cx="449.92" cy="366.199" r="62.08"/>
<path style="fill:#0C5177;" d="M449.918,304.115c-10.35,0-20.1,2.547-28.68,7.026c19.846,10.36,33.401,31.119,33.401,55.055
	c0,23.937-13.556,44.696-33.401,55.055c8.581,4.479,18.331,7.026,28.68,7.026c34.287,0,62.081-27.795,62.081-62.082
	C512,331.91,484.205,304.115,449.918,304.115z"/>
<path style="fill:#CCCBCA;" d="M449.918,401.443c-19.435,0-35.247-15.812-35.247-35.247s15.812-35.247,35.247-35.247
	s35.247,15.812,35.247,35.247C485.165,385.632,469.354,401.443,449.918,401.443z"/>
<path style="fill:#EF2929;" d="M455.373,375.733L455.373,375.733c-7.004,3.66-15.65,0.949-19.31-6.055l-39.319-75.244l25.365-13.255
	l39.319,75.244C465.089,363.428,462.377,372.073,455.373,375.733z"/>
<circle style="fill:#3D6687;" cx="135.22" cy="366.199" r="62.08"/>
<path style="fill:#0C5177;" d="M135.225,304.115c-10.35,0-20.1,2.547-28.68,7.026c19.846,10.36,33.401,31.119,33.401,55.055
	c0,23.937-13.556,44.696-33.401,55.055c8.581,4.479,18.331,7.026,28.68,7.026c34.287,0,62.081-27.795,62.081-62.082
	C197.307,331.91,169.512,304.115,135.225,304.115z"/>
<path style="fill:#CCCBCA;" d="M135.225,401.443c-19.435,0-35.247-15.812-35.247-35.247s15.812-35.247,35.247-35.247
	s35.247,15.812,35.247,35.247C170.472,385.632,154.661,401.443,135.225,401.443z"/>
<path style="fill:#FF4C4C;" d="M499.487,306.546c-9.055-29-38.266-47.3-70.309-43.569l-59.393-104.293l-24.568,8.797
	c0,0,38.335,91.757,21.33,154.291l0,0c-2.038,10.592-11.307,18.246-22.093,18.246h-29.257c-30.974,0-56.083-25.109-56.083-56.083
	v-27.264c0-20.89-16.934-37.824-37.824-37.824h-67.43c-57.384,0-103.902,46.519-103.902,103.902v17.269v19.618
	c0,4.979,4.036,9.015,9.015,9.015h200.142H361.89c15.92,0,30.19-4.454,35.877-19.324l0,0c2.323-6.074,6.068-11.514,10.948-15.813
	C444.82,301.708,499.487,306.546,499.487,306.546z"/>
<g>
	<path style="fill:#EF2929;" d="M429.178,262.976l-59.393-104.293l-11.925,4.27l44.118,131.566
		c19.002-2.213,27.187,8.801,40.585,19.721c29.073-10.155,56.924-7.694,56.924-7.694
		C490.432,277.545,461.221,259.245,429.178,262.976z"/>
	<path style="fill:#EF2929;" d="M167.73,279.158h-37.295c-44.447,0-80.478,36.031-80.478,80.478l0,0
		c0,4.979,4.036,9.015,9.015,9.015h180.221v-18.03C239.193,311.153,207.198,279.158,167.73,279.158z"/>
</g>
<path style="fill:#DD2626;" d="M167.73,279.157h-37.295c-3.622,0-7.182,0.263-10.677,0.727
	c34.672,4.918,61.341,34.706,61.341,70.737v18.03h58.094v-18.03C239.193,311.153,207.198,279.157,167.73,279.157z"/>
<path style="fill:#FFC06C;" d="M154.83,198.277H6.016c-3.323,0-6.016-2.694-6.016-6.016V89.736c0-3.323,2.694-6.016,6.016-6.016
	h142.797c3.323,0,6.016,2.694,6.016,6.016L154.83,198.277L154.83,198.277z"/>
<path style="fill:#EDA558;" d="M148.814,83.72H97.469v87c0,7.577-6.142,13.719-13.719,13.719H0v7.821
	c0,3.323,2.694,6.016,6.016,6.016H154.83v-13.837V89.736C154.83,86.414,152.136,83.72,148.814,83.72z"/>
<path style="fill:#3D6687;" d="M240.773,218.846H154.83v-20.235c0-7.827,6.345-14.172,14.172-14.172h75.94
	c7.827,0,14.172,6.345,14.172,14.172v1.895C259.113,210.635,250.902,218.846,240.773,218.846z"/>
<path style="fill:#FF4C4C;" d="M87.209,119.534H67.621c-2.402,0-4.35-1.947-4.35-4.35V83.72h28.287v31.464
	C91.558,117.587,89.611,119.534,87.209,119.534z"/>
<path style="fill:#0C5177;" d="M244.942,184.44h-43.189v34.407h39.02c10.129,0,18.341-8.211,18.341-18.34v-1.895
	C259.113,190.784,252.769,184.44,244.942,184.44z"/>
<path style="fill:#3D6687;" d="M356.459,151.187l-32.523,25.171c-3.375,2.612-3.994,7.466-1.382,10.842
	c2.612,3.375,7.467,3.994,10.842,1.382l32.523-25.171L356.459,151.187z"/>
<path style="fill:#0C5177;" d="M387.27,173.885h-42.392c-3.738,0-6.767-3.03-6.767-6.767v-18.589c0-3.326,2.416-6.158,5.7-6.683
	l41.14-6.569c8.935-1.427,17.026,5.476,17.026,14.524v9.376C401.978,167.3,395.393,173.885,387.27,173.885z"/>
<g>
</g>
<g>
</g>
<g>
</g>
<g>
</g>
<g>
</g>
<g>
</g>
<g>
</g>
<g>
</g>
<g>
</g>
<g>
</g>
<g>
</g>
<g>
</g>
<g>
</g>
<g>
</g>
<g>
</g>
</svg>
