<?xml version="1.0" encoding="UTF-8" standalone="no"?>
<!-- Created with Inkscape (http://www.inkscape.org/) -->

<svg
   version="1.1"
   id="svg513"
   xml:space="preserve"
   width="682.66669"
   height="682.66669"
   viewBox="0 0 682.66669 682.66669"
   xmlns="http://www.w3.org/2000/svg"
   xmlns:svg="http://www.w3.org/2000/svg"><defs
     id="defs517"><clipPath
       clipPathUnits="userSpaceOnUse"
       id="clipPath527"><path
         d="M 0,512 H 512 V 0 H 0 Z"
         id="path525" /></clipPath></defs><g
     id="g519"
     transform="matrix(1.3333333,0,0,-1.3333333,0,682.66667)"><g
       id="g521"><g
         id="g523"
         clip-path="url(#clipPath527)"><g
           id="g529"
           transform="translate(437.0107,163.6826)"><path
             d="m 0,0 -92.108,221.06 c -4.45,10.679 -19.579,10.679 -24.029,0 L -208.244,0 c -30.959,-74.299 23.631,-156.184 104.122,-156.184 C -23.631,-156.184 30.958,-74.299 0,0"
             style="fill:#9be8fd;fill-opacity:1;fill-rule:nonzero;stroke:none"
             id="path531" /></g><g
           id="g533"
           transform="translate(289.4228,163.6826)"><path
             d="M 0,0 73.794,177.106 55.479,221.06 c -4.449,10.679 -19.578,10.679 -24.028,0 L -60.656,0 c -30.959,-74.299 23.631,-156.184 104.122,-156.184 10.606,0 20.758,1.435 30.328,4.074 C 10.735,-134.722 -26.879,-64.509 0,0"
             style="fill:#62ddfc;fill-opacity:1;fill-rule:nonzero;stroke:none"
             id="path535" /></g><g
           id="g537"
           transform="translate(194.9404,256.8696)"><path
             d="m 0,0 -54.638,131.131 c -2.639,6.335 -11.613,6.335 -14.253,0 L -123.528,0 c -18.365,-44.074 14.017,-92.647 61.763,-92.647 47.747,0 80.129,48.573 61.765,92.647"
             style="fill:#9be8fd;fill-opacity:1;fill-rule:nonzero;stroke:none"
             id="path539" /></g><g
           id="g541"
           transform="translate(113.0215,258.479)"><path
             d="m 0,0 40.624,97.5 -13.343,32.022 c -2.639,6.335 -11.613,6.335 -14.253,0 L -41.609,-1.609 c -18.365,-44.074 14.017,-92.647 61.764,-92.647 8.288,0 16.114,1.467 23.291,4.117 C 6.237,-79.672 -15.898,-38.154 0,0"
             style="fill:#62ddfc;fill-opacity:1;fill-rule:nonzero;stroke:none"
             id="path543" /></g><g
           id="g545"
           transform="translate(262.2002,426.2554)"><path
             d="m 0,0 -31.463,75.51 c -1.519,3.648 -6.687,3.648 -8.207,0 L -71.132,0 c -10.575,-25.379 8.071,-53.349 35.566,-53.349 27.494,0 46.14,27.97 35.566,53.349"
             style="fill:#9be8fd;fill-opacity:1;fill-rule:nonzero;stroke:none"
             id="path547" /></g><g
           id="g549"
           transform="translate(231.0683,426.2559)"><path
             d="M 0,0 15.565,37.358 -0.331,75.509 c -1.52,3.648 -6.688,3.648 -8.207,0 L -40,0 c -10.575,-25.379 8.071,-53.349 35.565,-53.349 7.456,0 14.252,2.069 20,5.574 C 0.116,-38.357 -7.707,-18.497 0,0"
             style="fill:#62ddfc;fill-opacity:1;fill-rule:nonzero;stroke:none"
             id="path551" /></g><g
           id="g553"
           transform="translate(437.0107,163.6826)"><path
             d="m 0,0 -92.108,221.06 c -4.45,10.679 -19.579,10.679 -24.029,0 L -208.244,0 c -30.959,-74.299 23.631,-156.184 104.122,-156.184 C -23.631,-156.184 30.958,-74.299 0,0 Z"
             style="fill:none;stroke:#000000;stroke-width:15;stroke-linecap:round;stroke-linejoin:round;stroke-miterlimit:10;stroke-dasharray:none;stroke-opacity:1"
             id="path555" /></g><g
           id="g557"
           transform="translate(376.9795,56.9839)"><path
             d="m 0,0 c 7.684,5.438 14.434,12.365 19.931,20.611 14.659,21.99 17.237,48.593 7.073,72.987"
             style="fill:none;stroke:#000000;stroke-width:15;stroke-linecap:round;stroke-linejoin:round;stroke-miterlimit:10;stroke-dasharray:none;stroke-opacity:1"
             id="path559" /></g><g
           id="g561"
           transform="translate(151.331,201.1406)"><path
             d="m 0,0 c 3.842,2.719 7.217,6.183 9.966,10.306 7.329,10.994 8.618,24.296 3.536,36.493"
             style="fill:none;stroke:#000000;stroke-width:15;stroke-linecap:round;stroke-linejoin:round;stroke-miterlimit:10;stroke-dasharray:none;stroke-opacity:1"
             id="path563" /></g><g
           id="g565"
           transform="translate(150.6767,166.5029)"><path
             d="m 0,0 c 37.701,10.083 60.278,51.934 44.264,90.367 l -54.638,131.131 c -2.64,6.335 -11.613,6.335 -14.253,0 L -79.266,90.367 C -95.279,51.934 -72.702,10.083 -35,0"
             style="fill:none;stroke:#000000;stroke-width:15;stroke-linecap:round;stroke-linejoin:round;stroke-miterlimit:10;stroke-dasharray:none;stroke-opacity:1"
             id="path567" /></g><g
           id="g569"
           transform="translate(259.7763,432.0737)"><path
             d="m 0,0 -29.039,69.691 c -1.52,3.648 -6.688,3.648 -8.207,0 L -68.709,-5.818 c -10.574,-25.379 8.072,-53.349 35.566,-53.349 16.721,0 30.154,10.352 35.747,24.167"
             style="fill:none;stroke:#000000;stroke-width:15;stroke-linecap:round;stroke-linejoin:round;stroke-miterlimit:10;stroke-dasharray:none;stroke-opacity:1"
             id="path571" /></g></g></g></g></svg>
