<svg id="Capa_1" enable-background="new 0 0 497 497" height="512" viewBox="0 0 497 497" width="512" xmlns="http://www.w3.org/2000/svg"><g><path d="m412.848 62.127h-19.841l73.859 194.648 30.134-8.275c0-74.226-32.555-140.839-84.152-186.373z" fill="#3b88f5"/><path d="m393.007 62.127h-114.507v246.373l188.366-51.725c.079-2.749.134-5.504.134-8.275 0-74.226-28.625-140.839-73.993-186.373z" fill="#28abfa"/><path d="m467 248.5-73.993 186.373h19.841c51.597-45.534 84.152-112.147 84.152-186.373z" fill="#3a6fd8"/><path d="m278.5 248.5v186.373h114.507c45.368-45.534 73.993-112.147 73.993-186.373z" fill="#3b88f5"/><path d="m401.741 425.618-153.241 71.382c63.017 0 120.543-23.469 164.348-62.127-3.633-3.209-7.337-6.294-11.107-9.255z" fill="#3857bc"/><path d="m401.741 425.618c-16.412-12.89-34.069-23.424-52.522-31.598l-100.719 102.98c59.703 0 113.803-27.244 153.241-71.382z" fill="#3a6fd8"/><path d="m248.5 0 153.241 71.382c3.77-2.961 7.474-6.046 11.108-9.256-43.806-38.657-101.332-62.126-164.349-62.126z" fill="#28abfa"/><path d="m248.5 0 100.719 102.98c18.453-8.174 36.11-18.708 52.522-31.598-39.438-44.138-93.538-71.382-153.241-71.382z" fill="#14cfff"/><path d="m349.219 102.98c14.8 40.904 23.531 91.169 23.531 145.52l-154.25 60v-205.52z" fill="#14cfff"/><path d="m349.219 102.98c-31.989 14.17-66.351 21.27-100.719 21.27l-30-62.125 30-62.125c41.446 0 78.146 40.596 100.719 102.98z" fill="#4fdbff"/><path d="m372.75 248.5c0 54.351-8.731 104.616-23.531 145.52h-130.719v-145.52z" fill="#28abfa"/><path d="m349.219 394.02c-22.573 62.384-59.273 102.98-100.719 102.98l-30-62.125 30-62.125c34.368 0 68.73 7.1 100.719 21.27z" fill="#3b88f5"/><path d="m84.152 62.127c-51.597 45.534-84.152 112.147-84.152 186.373l218.5 60v-246.373z" fill="#8ae7ff"/><path d="m218.5 248.5h-218.5c0 74.226 32.555 140.839 84.152 186.373h134.348z" fill="#4fdbff"/><path d="m147.781 394.02c-22.692 10.052-44.181 23.671-63.629 40.853 43.805 38.658 101.331 62.127 164.348 62.127z" fill="#14cfff"/><path d="m84.152 62.127c19.448 17.182 40.938 30.802 63.629 40.853l100.719-102.98c-63.017 0-120.543 23.469-164.348 62.127z" fill="#c4f3ff"/><path d="m147.781 102.98c-14.8 40.904-23.531 91.169-23.531 145.52l62.125 40 62.125-40v-124.25z" fill="#4fdbff"/><path d="m147.781 102.98c31.989 14.17 66.351 21.27 100.719 21.27v-124.25c-41.446 0-78.146 40.596-100.719 102.98z" fill="#8ae7ff"/><path d="m124.25 248.5c0 54.351 8.731 104.616 23.531 145.52l100.719-21.27v-124.25z" fill="#14cfff"/><path d="m147.781 394.02c22.573 62.384 59.273 102.98 100.719 102.98v-124.25c-34.368 0-68.73 7.1-100.719 21.27z" fill="#28abfa"/></g></svg>