<?xml version="1.0" encoding="iso-8859-1"?>
<!-- Generator: Adobe Illustrator 19.0.0, SVG Export Plug-In . SVG Version: 6.00 Build 0)  -->
<svg version="1.1" id="Capa_1" xmlns="http://www.w3.org/2000/svg" xmlns:xlink="http://www.w3.org/1999/xlink" x="0px" y="0px"
	 viewBox="0 0 512 512" style="enable-background:new 0 0 512 512;" xml:space="preserve">
<path style="fill:#006289;" d="M405.841,60.952V38.095c0-4.206-3.423-7.619-7.619-7.619H337.27c-4.207,0-7.619,3.413-7.619,7.619
	v22.857H405.841z"/>
<path style="fill:#005772;" d="M375.365,60.952v-2.54c0-4.206-3.423-7.619-7.619-7.619c-4.207,0-7.619,3.413-7.619,7.619v2.54
	H375.365z"/>
<path style="fill:#A0D860;" d="M426.105,77.863c-0.452-9.395-8.22-16.91-17.724-16.91H103.619c-9.803,0-17.778,7.975-17.778,17.778
	v101.587c0,6.512,1.27,12.841,3.788,18.783c2.429,5.75,5.903,10.91,10.331,15.34c4.429,4.429,9.59,7.914,15.341,10.342
	c5.952,2.509,12.272,3.789,18.794,3.789h152.381h20.326h71.103c6.512,0,12.83-1.28,18.783-3.789
	c5.749-2.438,10.909-5.912,15.34-10.342c4.429-4.429,7.904-9.59,10.342-15.34c2.51-5.943,3.789-12.272,3.789-18.783V78.73
	C426.159,78.437,426.137,78.148,426.105,77.863z"/>
<path style="fill:#89BF43;" d="M426.105,77.863c-0.452-9.395-8.22-16.91-17.724-16.91h-30.479c9.504,0,17.272,7.515,17.724,16.91
	c0.033,0.285,0.054,0.574,0.054,0.868v101.587c0,6.512-1.28,12.841-3.789,18.783c-2.437,5.75-5.911,10.91-10.342,15.34
	c-4.429,4.429-9.59,7.903-15.34,10.342c-5.953,2.509-12.272,3.789-18.783,3.789h30.479c6.512,0,12.83-1.28,18.783-3.789
	c5.749-2.438,10.909-5.912,15.34-10.342c4.429-4.429,7.904-9.59,10.342-15.34c2.51-5.943,3.789-12.272,3.789-18.783V78.73
	C426.159,78.437,426.137,78.148,426.105,77.863z"/>
<path style="fill:#0072A2;" d="M182.349,60.952V38.095c0-4.206-3.423-7.619-7.619-7.619h-60.952c-4.207,0-7.619,3.413-7.619,7.619
	v22.857H182.349z"/>
<path style="fill:#FF4C4D;" d="M432.528,425.651c-2.428-5.75-5.911-10.91-10.342-15.34c-4.429-4.429-9.59-7.904-15.329-10.331
	c-5.953-2.519-12.272-3.789-18.794-3.789H123.926c-6.512,0-12.842,1.27-18.783,3.789c-5.75,2.428-10.91,5.902-15.341,10.331
	c-4.428,4.429-7.914,9.59-10.342,15.34c-2.509,5.953-3.789,12.272-3.789,18.794v10.158c0,6.522,1.28,12.841,3.789,18.794
	c2.428,5.75,5.912,10.91,10.342,15.34c4.429,4.429,9.59,7.904,15.341,10.331c5.943,2.519,12.272,3.789,18.783,3.789h264.137
	c6.522,0,12.841-1.27,18.783-3.789c5.749-2.428,10.909-5.902,15.34-10.331c4.429-4.429,7.914-9.59,10.342-15.34
	c2.51-5.953,3.789-12.272,3.789-18.794v-10.158c0-0.01,0-0.02,0-0.02C436.317,437.912,435.037,431.594,432.528,425.651z"/>
<path style="fill:#F23939;" d="M432.528,425.651c-2.428-5.75-5.911-10.91-10.342-15.34c-4.429-4.429-9.59-7.904-15.329-10.331
	c-5.953-2.519-12.272-3.789-18.794-3.789h-30.479c6.522,0,12.841,1.27,18.794,3.789c5.739,2.428,10.899,5.902,15.33,10.331
	c4.429,4.429,7.914,9.59,10.342,15.34c2.51,5.943,3.789,12.262,3.789,18.773c0,0,0,0.01,0,0.02v10.158
	c0,6.522-1.28,12.841-3.789,18.794c-2.428,5.75-5.911,10.91-10.342,15.34c-4.429,4.429-9.59,7.904-15.34,10.331
	c-5.944,2.519-12.262,3.789-18.783,3.789h30.479c6.522,0,12.841-1.27,18.783-3.789c5.749-2.428,10.909-5.902,15.34-10.331
	c4.429-4.429,7.914-9.59,10.342-15.34c2.51-5.953,3.789-12.272,3.789-18.794v-10.158c0-0.01,0-0.02,0-0.02
	C436.317,437.912,435.037,431.594,432.528,425.651z"/>
<path style="fill:#89BF43;" d="M412.028,214.441c-4.429,4.429-9.59,7.903-15.34,10.342c-5.953,2.509-12.272,3.789-18.783,3.789
	h-71.103h-20.326H134.095c-6.522,0-12.842-1.28-18.794-3.789c-5.75-2.428-10.91-5.912-15.341-10.342
	c-1.423-1.424-2.738-2.932-3.961-4.502v195.15c2.845-2.022,5.897-3.738,9.143-5.109c5.943-2.519,12.272-3.789,18.783-3.789h264.137
	c6.522,0,12.841,1.27,18.794,3.789c3.244,1.372,6.295,3.09,9.143,5.116v-195.17C414.774,211.501,413.456,213.013,412.028,214.441z"
	/>
<path style="fill:#78A833;" d="M412.028,214.441c-4.429,4.429-9.59,7.903-15.34,10.342c-3.601,1.518-7.338,2.578-11.168,3.185
	V396.19h2.543c6.522,0,12.841,1.27,18.794,3.789c3.244,1.372,6.295,3.09,9.143,5.116v-195.17
	C414.774,211.501,413.456,213.013,412.028,214.441z"/>
<g>
	<path style="fill:#F3E8D6;" d="M164.571,512c-4.207,0-7.619-3.423-7.619-7.619V383.492c0-4.206,3.412-7.619,7.619-7.619
		c4.196,0,7.619,3.413,7.619,7.619v120.889C172.19,508.577,168.767,512,164.571,512z"/>
	<path style="fill:#F3E8D6;" d="M256,512c-4.207,0-7.619-3.423-7.619-7.619V383.492c0-4.206,3.412-7.619,7.619-7.619
		c4.196,0,7.619,3.413,7.619,7.619v120.889C263.619,508.577,260.196,512,256,512z"/>
	<path style="fill:#F3E8D6;" d="M347.429,512c-4.207,0-7.619-3.423-7.619-7.619V383.492c0-4.206,3.412-7.619,7.619-7.619
		c4.196,0,7.619,3.413,7.619,7.619v120.889C355.048,508.577,351.624,512,347.429,512z"/>
</g>
<path style="fill:#89BF43;" d="M296.635,167.619h-81.27c-4.207,0-7.619-3.423-7.619-7.619c0-4.206,3.412-7.619,7.619-7.619h81.27
	c4.196,0,7.619,3.413,7.619,7.619C304.254,164.196,300.831,167.619,296.635,167.619z"/>
<path style="fill:#0072A2;" d="M243.302,160h-15.238v81.27v0.004v40.612c0,0.258,0.012,0.516,0.038,0.774
	c0.002,0.01,0.002,0.02,0.003,0.03c0.023,0.22,0.059,0.44,0.101,0.659c0.008,0.038,0.013,0.076,0.02,0.113
	c0.041,0.196,0.093,0.392,0.15,0.586c0.014,0.048,0.024,0.098,0.041,0.146c0.012,0.04,0.02,0.079,0.033,0.118
	c0.049,0.144,0.108,0.281,0.165,0.422c0.022,0.056,0.042,0.112,0.065,0.168c0.079,0.186,0.169,0.365,0.261,0.542
	c0.02,0.037,0.037,0.074,0.057,0.11c0.111,0.205,0.234,0.403,0.363,0.595c0.003,0.004,0.005,0.009,0.008,0.013
	c0.396,0.588,0.871,1.114,1.416,1.569c0.026,0.022,0.054,0.047,0.08,0.069c0.133,0.108,0.272,0.209,0.412,0.309
	c0.076,0.055,0.152,0.11,0.233,0.163c0.093,0.061,0.19,0.117,0.285,0.174c0.138,0.083,0.277,0.163,0.422,0.236
	c0.019,0.009,0.035,0.021,0.054,0.03l20.317,10.169c0.051,0.024,0.105,0.043,0.154,0.066c0.143,0.067,0.288,0.127,0.436,0.185
	c0.152,0.061,0.307,0.116,0.461,0.167c0.145,0.047,0.289,0.092,0.437,0.13c0.199,0.052,0.4,0.091,0.603,0.127
	c0.11,0.019,0.218,0.044,0.329,0.058c0.324,0.043,0.651,0.069,0.983,0.069c0.002,0,0.003,0,0.005,0s0.003,0,0.005,0
	c0.33,0,0.656-0.026,0.98-0.068c0.124-0.016,0.243-0.044,0.365-0.065c0.185-0.034,0.368-0.068,0.55-0.116
	c0.182-0.046,0.358-0.103,0.533-0.162c0.097-0.033,0.192-0.066,0.285-0.103c0.231-0.087,0.456-0.185,0.677-0.295
	c0.004-0.002,0.008-0.003,0.012-0.005l20.317-10.159c0.005-0.002,0.01-0.006,0.015-0.008c0.183-0.092,0.36-0.192,0.532-0.298
	c0.059-0.036,0.118-0.07,0.176-0.107c0.118-0.077,0.233-0.158,0.346-0.242c0.104-0.074,0.206-0.149,0.305-0.228
	c0.065-0.053,0.127-0.109,0.19-0.163c0.133-0.114,0.264-0.23,0.388-0.352c0.033-0.031,0.062-0.065,0.094-0.099
	c0.142-0.144,0.278-0.293,0.407-0.448c0.025-0.029,0.048-0.061,0.071-0.09c0.126-0.156,0.247-0.315,0.361-0.48
	c0.041-0.06,0.076-0.122,0.115-0.182c0.087-0.136,0.175-0.272,0.253-0.414c0.07-0.126,0.132-0.256,0.194-0.386
	c0.039-0.08,0.08-0.158,0.116-0.24c0.091-0.207,0.173-0.42,0.246-0.636c0.003-0.008,0.007-0.017,0.01-0.025
	c0.001-0.002,0.001-0.004,0.002-0.006c0.067-0.202,0.124-0.409,0.175-0.619c0.012-0.046,0.025-0.091,0.036-0.137
	c0.035-0.156,0.06-0.315,0.084-0.474c0.017-0.103,0.036-0.205,0.048-0.308c0.013-0.108,0.018-0.218,0.024-0.328
	c0.012-0.154,0.021-0.309,0.023-0.464c0-0.023,0.004-0.047,0.004-0.071v-40.631v-0.004V160h-15.238H243.302z"/>
<path style="fill:#A0D860;" d="M309.201,5.211C305.848,1.859,301.379,0.01,296.635,0h-81.27c-0.263,0-0.523,0.013-0.78,0.04
	c-9.441,0.412-16.998,8.197-16.998,17.738v20.317h116.825V17.778C314.403,13.023,312.554,8.564,309.201,5.211z"/>
<path style="fill:#89BF43;" d="M309.201,5.211C305.848,1.859,301.379,0.01,296.635,0h-30.479c4.744,0.01,9.213,1.859,12.566,5.211
	c3.352,3.352,5.201,7.812,5.211,12.566v20.317h30.479V17.778C314.403,13.023,312.554,8.564,309.201,5.211z"/>
<path style="fill:#FFB123;" d="M286.476,248.889h-60.952c-2.011,0-3.972-0.813-5.395-2.235c-1.412-1.422-2.224-3.383-2.224-5.384
	v-40.635c0-2.011,0.813-3.972,2.224-5.394c1.422-1.412,3.383-2.225,5.395-2.225h60.952c2.001,0,3.972,0.813,5.384,2.225
	c1.422,1.422,2.235,3.383,2.235,5.394v40.635c0,2.001-0.813,3.962-2.235,5.384C290.448,248.076,288.477,248.889,286.476,248.889z"/>
<path style="fill:#FF4C4D;" d="M96,223.492H83.506c-0.068-0.002-0.135-0.01-0.204-0.01c-7.468,0-14.486,2.905-19.759,8.188
	c-5.272,5.272-8.178,12.292-8.178,19.749c0,0.002,0,0.004,0,0.005c0,0.002,0,0.003,0,0.005v111.746
	c0,7.467,2.904,14.476,8.178,19.759c5.272,5.272,12.292,8.178,19.759,8.178H96V223.492z"/>
<path style="fill:#F23939;" d="M416,391.101h12.494c0.068,0.002,0.135,0.01,0.204,0.01c7.468,0,14.486-2.905,19.759-8.188
	c5.272-5.272,8.178-12.292,8.178-19.749c0-0.001,0-0.003,0-0.005c0-0.001,0-0.003,0-0.005V251.418
	c0-7.467-2.904-14.476-8.178-19.759c-5.272-5.272-12.292-8.178-19.759-8.178H416V391.101z"/>
<path style="fill:#006289;" d="M151.873,60.952v-2.54c0-4.206-3.423-7.619-7.619-7.619c-4.207,0-7.619,3.413-7.619,7.619v2.54
	H151.873z"/>
<rect x="197.587" y="38.095" style="fill:#0072A2;" width="15.238" height="22.857"/>
<rect x="299.175" y="38.095" style="fill:#006289;" width="15.238" height="22.857"/>
<g>
</g>
<g>
</g>
<g>
</g>
<g>
</g>
<g>
</g>
<g>
</g>
<g>
</g>
<g>
</g>
<g>
</g>
<g>
</g>
<g>
</g>
<g>
</g>
<g>
</g>
<g>
</g>
<g>
</g>
</svg>
