<svg height="511pt" viewBox="1 -29 511.999 511" width="511pt" xmlns="http://www.w3.org/2000/svg"><g fill-rule="evenodd"><path d="m81.554688 445.859375h348.863281c7.171875 0 13.007812-5.867187 13.007812-13.007813v-24.878906c-.140625-3.796875-.507812-5.726562-4.023437-11.167968l-72.324219-112.496094c-31.199219-47.347656-61.414063-95.519532-92.074219-143.210938-5.1875-7.507812-12.101562-11.25-19.019531-11.277344-6.914063.027344-13.828125 3.769532-19.015625 11.277344l-164.371094 255.679688c-3.515625 5.441406-4.054687 4.734375-4.054687 11.167968v24.90625c.003906 7.140626 5.867187 13.007813 13.011719 13.007813zm0 0" fill="#fcc368"/><path d="m239.152344 141.097656c30.664062 47.691406 60.875 95.863282 92.078125 143.210938l72.324219 112.496094c3.511718 5.441406 3.882812 7.371093 4.050781 11.167968v24.878906c0 7.140626-5.867188 13.007813-13.035157 13.007813h35.851563c7.167969 0 13.007813-5.867187 13.007813-13.007813v-24.878906c-.144532-3.796875-.511719-5.726562-4.027344-11.167968l-72.324219-112.496094c-7.109375-10.792969-14.195313-21.648438-21.226563-32.527344-23.777343-36.753906-47.15625-73.875-70.847656-110.683594-5.1875-7.507812-12.101562-11.25-19.015625-11.277344-6.433593.027344-12.867187 3.285157-17.914062 9.773438.367187.484375.738281.992188 1.078125 1.503906zm0 0" fill="#ffa719"/><path d="m473.949219 415.707031v25.25c0 2.746094 2.238281 4.984375 4.988281 4.984375h20.488281c2.75 0 5.015625-2.238281 5.015625-4.984375v-50.496093c0-2.75-2.265625-4.988282-5.015625-4.988282h-20.488281c-2.75 0-4.988281 2.238282-4.988281 4.988282zm0 0" fill="#b5722f"/><path d="m7.558594 390.460938v50.496093c0 2.746094 2.238281 4.984375 4.988281 4.984375h20.488281c2.75 0 5.015625-2.238281 5.015625-4.984375v-50.496093c0-2.75-2.265625-4.988282-5.015625-4.988282h-20.488281c-2.75 0-4.988281 2.238282-4.988281 4.988282zm0 0" fill="#b5722f"/><path d="m255.984375 24.179688v75.914062c31.289063-31.167969 64.84375 4.109375 89.640625 0 8.476562-1.417969 15.644531-7.027344 15.644531-15.640625v-44.628906c0-13.347657-11.449219-16.324219-23.210937-14.398438-32.222656 5.273438-52.96875-19.578125-82.074219-1.246093zm0 0" fill="#64b0d9"/><path d="m361.269531 84.453125v-44.628906c0-13.347657-11.449219-16.324219-23.210937-14.398438-1.246094.199219-2.496094.371094-3.742188.484375 3.003906 2.351563 4.847656 6.0625 4.847656 11.417969v44.660156c0 8.046875-6.265624 13.515625-14.058593 15.300781 7.285156 2.324219 14.199219 3.855469 20.519531 2.804688 8.472656-1.417969 15.644531-7.027344 15.644531-15.640625zm0 0" fill="#4a83c9"/><path d="m249.777344 240.359375c-11.730469 57.582031-42.113282 120.460937-83.574219 158.429687-3.9375 5.46875-3.9375 9.238282-3.9375 12.496094v34.574219h93.71875 93.808594v-34.574219c0-3.257812 0-7.027344-3.941407-12.496094-41.460937-37.96875-71.839843-100.847656-83.574218-158.429687-1.558594-8.105469-11.25-8.105469-12.5 0zm0 0" fill="#f78411"/><path d="m345.851562 398.789062c-41.460937-37.96875-71.839843-100.847656-83.574218-158.429687-1.558594-8.101563-11.25-8.101563-12.5 0-2.066406 10.230469-4.757813 20.628906-7.960938 31.03125 13.886719 52.335937 42.167969 106.429687 79.351563 140.492187 3.9375 5.46875 3.9375 9.207032 3.9375 12.496094v21.480469h24.683593v-34.574219c0-3.257812 0-7.027344-3.9375-12.496094zm0 0" fill="#f74311"/></g><path d="m499.425781 377.914062h-20.488281c-6.917969 0-12.542969 5.628907-12.542969 12.546876v24.605468h-15.410156v-7.09375c0-.09375 0-.1875-.003906-.28125-.195313-5.160156-.964844-8.378906-5.222657-14.976562l-80.148437-124.398438c-2.261719-3.507812-6.9375-4.519531-10.445313-2.261718-3.507812 2.261718-4.519531 6.9375-2.261718 10.449218l80.152344 124.40625c2.652343 4.101563 2.726562 4.824219 2.816406 7.203125v24.738281c0 3.007813-2.445313 5.449219-5.449219 5.449219h-73.074219v-27.011719c0-3.769531 0-9.464843-5.363281-16.914062-.300781-.421875-.648437-.808594-1.03125-1.160156-14.191406-12.972656-27.4375-29.328125-39.371094-48.613282-2.195312-3.546874-6.851562-4.640624-10.402343-2.449218-3.546876 2.195312-4.644532 6.855468-2.449219 10.402344 12.492187 20.191406 26.417969 37.429687 41.402343 51.246093 2.101563 3.113281 2.101563 4.882813 2.101563 7.488281v27.011719h-172.414063v-27.011719c0-2.605468.003907-4.375 2.105469-7.492187 38.597657-35.664063 70.492188-95.136719 84.101563-156.492187 5.820312 26.265624 14.933594 52.160156 27.121094 77.054687 1.835937 3.75 6.359374 5.300781 10.113281 3.464844 3.746093-1.835938 5.300781-6.363281 3.464843-10.109375-12.464843-25.460938-21.5625-51.992188-27.027343-78.78125-1.390625-7.222656-7.035157-12.207032-13.777344-12.207032-.085937 0-.171875 0-.257813.003907-6.6875.125-12.136718 5.160156-13.320312 12.277343-12.375 60.5625-43.496094 119.644532-81.242188 154.210938-.382812.351562-.726562.738281-1.03125 1.15625-5.359374 7.449219-5.359374 13.144531-5.359374 16.914062v27.011719h-73.15625c-2.957032 0-5.453126-2.492187-5.453126-5.449219v-24.90625c0-1.945312.0625-2.695312.109376-2.980468.15625-.277344.5625-.863282.925781-1.390625.503906-.726563 1.097656-1.59375 1.816406-2.707031l164.300781-255.570313c3.546875-5.089844 8.074219-7.898437 12.699219-7.917969 4.6875.019532 9.21875 2.828125 12.765625 7.917969l65.957031 102.582031c2.261719 3.507813 6.9375 4.523438 10.445313 2.269532 3.511718-2.257813 4.527344-6.933594 2.269531-10.445313l-66.03125-102.695313c-.046875-.066406-.09375-.136718-.140625-.203124-4.664062-6.757813-10.863281-11.402344-17.679688-13.414063v-20.007813c16.085938-14.089843 32.699219-8.207031 50.246094-1.976562 9.5 3.371094 18.558594 6.589844 27.5 6.589844 1.867188 0 3.726563-.140625 5.585938-.449219 13.132812-2.195313 21.953125-11.476563 21.953125-23.09375v-44.632813c0-8.949218-3.90625-14.144531-7.183594-16.929687-5.71875-4.855469-14.527344-6.605469-24.804687-4.921875-11.992188 1.960938-22.1875-.816406-32.976563-3.753906-12.644531-3.441406-25.636719-6.96875-40.320313-2.011719v-4.148437c0-4.171876-3.382812-7.554688-7.554687-7.554688-4.175781 0-7.558594 3.382812-7.558594 7.554688v115.328124c-6.796875 2.007813-13.003906 6.65625-17.679687 13.421876-.046875.066406-.09375.136718-.136719.207031l-164.359375 255.664062c-.609375.945313-1.125 1.691407-1.554688 2.316407-2.960937 4.292968-3.707031 6.265624-3.707031 12.949218v7.121094h-15.378906v-24.601562c0-6.917969-5.640625-12.546876-12.574219-12.546876h-20.488281c-6.917969 0-12.546875 5.628907-12.546875 12.546876v50.496093c0 6.914063 5.628906 12.542969 12.546875 12.542969h20.488281c6.933594 0 12.570313-5.625 12.570313-12.542969v-10.777343h15.382812v2.671874c0 11.339844 9.222657 20.566407 20.5625 20.566407h348.867188c11.339843 0 20.566406-9.226563 20.566406-20.566407v-2.671874h15.40625v10.777343c0 6.914063 5.628906 12.542969 12.546875 12.542969h20.488281c6.933594 0 12.574219-5.625 12.574219-12.542969v-50.496093c0-6.917969-5.640625-12.546876-12.574219-12.546876zm-199.535156-349.113281c11.320313 3.082031 24.15625 6.574219 39.390625 4.082031 5.660156-.925781 10.359375-.355468 12.574219 1.527344.460937.390625 1.855469 1.578125 1.855469 5.410156v44.632813c0 4.890625-5.027344 7.464844-9.320313 8.183594-6.902344 1.148437-15.960937-2.070313-25.546875-5.476563-10.148438-3.601562-21.558594-7.652344-33.425781-7.652344-7.183594 0-14.535157 1.484376-21.878907 5.457032v-56.394532c12.445313-6.28125 23.125-3.371093 36.351563.230469zm-269.398437 409.585938h-15.378907v-45.355469h15.378907zm466.394531 0h-15.378907v-45.355469h15.378907zm0 0"/></svg>