<?xml version="1.0" encoding="iso-8859-1"?>
<!-- Generator: Adobe Illustrator 19.0.0, SVG Export Plug-In . SVG Version: 6.00 Build 0)  -->
<svg version="1.1" id="Capa_1" xmlns="http://www.w3.org/2000/svg" xmlns:xlink="http://www.w3.org/1999/xlink" x="0px" y="0px"
	 viewBox="0 0 512 512" style="enable-background:new 0 0 512 512;" xml:space="preserve">
<g>
	<polygon style="fill:#A0D860;" points="453.691,483.973 255.998,150.615 58.305,483.973 	"/>
	<polygon style="fill:#A0D860;" points="255.998,150.615 453.691,483.973 255.998,483.973 255.998,342.032 	"/>
</g>
<polygon style="fill:#FFB123;" points="255.998,342.032 255.998,483.973 179.969,483.973 "/>
<polygon style="fill:#FD6C39;" points="255.998,342.032 179.969,483.973 179.958,483.973 169.82,372.448 "/>
<polygon style="fill:#89BF43;" points="255.998,150.615 240.789,176.262 423.272,483.973 453.691,483.973 "/>
<path d="M504.396,20.27c-4.199,0-7.604,3.405-7.604,7.604v256.005h-2.535c-6.989,0-12.673-5.685-12.673-12.673V139.403
	c0-4.199-3.405-7.604-7.604-7.604c-4.199,0-7.604,3.405-7.604,7.604v103.027c-14.513-3.443-25.348-16.503-25.348-32.055v-40.536
	c0-0.006,0.001-0.013,0.001-0.019c0-0.006-0.001-0.013-0.001-0.019v-54.27c11.688-3.318,20.276-14.081,20.276-26.818
	c0-4.199-3.405-7.604-7.604-7.604c-4.199,0-7.604,3.405-7.604,7.604c0,4.134-1.997,7.799-5.068,10.113V58.294
	c0-4.199-3.405-7.604-7.604-7.604c-4.199,0-7.604,3.405-7.604,7.604v102.613c-8.85-3.14-15.207-11.591-15.207-21.504v-50.69
	c0-4.199-3.405-7.604-7.604-7.604s-7.604,3.405-7.604,7.604v50.69c0,18.36,13.082,33.722,30.415,37.254v33.717
	c0,23.968,17.602,43.895,40.555,47.552v13.28c0,15.374,12.507,27.881,27.881,27.881h2.535v177.428h-15.208v-22.812
	c0-4.199-3.405-7.604-7.604-7.604c-4.199,0-7.604,3.405-7.604,7.604v22.812h-8.342L264.84,150.756l16.456-27.746
	c2.139-3.609,0.953-8.283-2.656-10.422c-1.176-0.7-2.514-1.065-3.873-1.065c-2.677,0-5.181,1.43-6.55,3.721l-12.219,20.604
	l-12.217-20.6c-2.141-3.612-6.806-4.805-10.418-2.661c-3.612,2.142-4.804,6.807-2.661,10.418l16.456,27.748l-128.17,216.12
	c-1.034,1.754-1.328,3.792-0.831,5.759c0.507,1.977,1.744,3.63,3.498,4.664c1.166,0.7,2.504,1.065,3.863,1.065l0.01-0.051v0.051
	c2.666,0,5.181-1.43,6.539-3.731l116.33-196.148v158.311l-81.106,28.628c-0.049,0.017-0.093,0.041-0.142,0.058
	c-0.151,0.057-0.299,0.118-0.445,0.184c-0.09,0.041-0.179,0.083-0.268,0.127c-0.131,0.065-0.26,0.134-0.385,0.207
	c-0.098,0.056-0.196,0.114-0.291,0.174c-0.106,0.067-0.212,0.138-0.314,0.211c-0.105,0.074-0.209,0.15-0.31,0.229
	c-0.088,0.068-0.172,0.139-0.257,0.211c-0.105,0.09-0.208,0.181-0.307,0.277c-0.076,0.072-0.148,0.147-0.221,0.222
	c-0.096,0.1-0.191,0.202-0.281,0.307c-0.071,0.082-0.139,0.166-0.206,0.251c-0.081,0.103-0.161,0.207-0.237,0.313
	c-0.069,0.097-0.134,0.197-0.199,0.298c-0.064,0.1-0.127,0.201-0.187,0.304c-0.066,0.114-0.128,0.23-0.188,0.348
	c-0.049,0.096-0.097,0.192-0.142,0.29c-0.059,0.127-0.112,0.255-0.163,0.386c-0.038,0.096-0.075,0.192-0.108,0.29
	c-0.046,0.132-0.086,0.265-0.125,0.398c-0.03,0.105-0.059,0.21-0.084,0.316c-0.03,0.127-0.057,0.254-0.08,0.383
	c-0.023,0.122-0.043,0.243-0.06,0.366c-0.015,0.115-0.027,0.23-0.038,0.347c-0.013,0.142-0.021,0.283-0.026,0.427
	c-0.003,0.102-0.004,0.204-0.003,0.307c0.001,0.155,0.008,0.311,0.019,0.467c0.004,0.054,0.001,0.106,0.006,0.16l9.384,103.234
	H71.648l44.906-75.718c1.034-1.744,1.328-3.792,0.831-5.759c-0.507-1.967-1.744-3.629-3.498-4.664
	c-1.176-0.7-2.514-1.065-3.863-1.065c-2.677,0-5.191,1.43-6.55,3.731l-49.507,83.474h-8.345v-22.812
	c0-4.199-3.405-7.604-7.604-7.604s-7.604,3.405-7.604,7.604v22.812H15.208V278.808h2.536c15.374,0,27.881-12.507,27.881-27.881
	v-13.28c22.954-3.657,40.555-23.585,40.555-47.552v-23.874c11.687-3.319,20.274-14.081,20.274-26.817
	c0-4.199-3.405-7.604-7.604-7.604c-4.199,0-7.604,3.405-7.604,7.604c0,4.132-1.997,7.797-5.066,10.111V48.154
	c0-4.199-3.405-7.604-7.604-7.604s-7.604,3.405-7.604,7.604v40.532c-3.071-2.315-5.069-5.981-5.069-10.114
	c0-4.199-3.405-7.604-7.604-7.604s-7.604,3.405-7.604,7.604c0,12.737,8.589,23.499,20.277,26.819v54.269
	c0,0.006-0.001,0.013-0.001,0.019c0,0.006,0.001,0.013,0.001,0.019v30.397c0,15.552-10.834,28.612-25.348,32.055v-62.468
	c0-4.199-3.405-7.604-7.604-7.604s-7.604,3.405-7.604,7.604v91.244c0,6.989-5.685,12.673-12.673,12.673h-2.536V27.875
	c0-4.199-3.405-7.604-7.604-7.604S0,23.676,0,27.875v456.244c0,4.199,3.405,7.604,7.604,7.604h50.574
	c0.036,0.001,0.072,0.007,0.108,0.007c0.038,0,0.074-0.007,0.112-0.007h121.499c0.019,0,0.039,0.004,0.058,0.004
	c0.017,0,0.034-0.004,0.052-0.004h75.953c0.013,0,0.025,0.002,0.04,0.002c0.014,0,0.025-0.002,0.04-0.002h197.626
	c0.016,0,0.031,0.003,0.047,0.003c0.015,0,0.03-0.003,0.045-0.003h50.639c4.199,0,7.604-3.405,7.604-7.604V27.874
	C512,23.675,508.595,20.27,504.396,20.27z M248.396,372.471v104.043h-55.734L248.396,372.471z M185.237,458.169l-7.308-80.376
	l62.106-21.922L185.237,458.169z M263.604,342.167c0-0.019,0-0.039,0-0.057V178.484l176.748,298.031H263.604V342.167z"/>
<g>
</g>
<g>
</g>
<g>
</g>
<g>
</g>
<g>
</g>
<g>
</g>
<g>
</g>
<g>
</g>
<g>
</g>
<g>
</g>
<g>
</g>
<g>
</g>
<g>
</g>
<g>
</g>
<g>
</g>
</svg>
