<?xml version="1.0" encoding="iso-8859-1"?>
<!-- Generator: Adobe Illustrator 19.0.0, SVG Export Plug-In . SVG Version: 6.00 Build 0)  -->
<svg version="1.1" id="Capa_1" xmlns="http://www.w3.org/2000/svg" xmlns:xlink="http://www.w3.org/1999/xlink" x="0px" y="0px"
	 viewBox="0 0 512 512" style="enable-background:new 0 0 512 512;" xml:space="preserve">
<path style="fill:#A0D860;" d="M262.745,132.056c-1.266-2.436-3.81-4.104-6.746-4.104c-2.874,0-5.374,1.595-6.667,3.948h-0.001
	L45.623,476.521l420.754-0.004L262.745,132.056z"/>
<path style="fill:#89BF43;" d="M262.745,132.056c-1.266-2.436-3.81-4.104-6.746-4.104c-2.874,0-5.374,1.595-6.667,3.948h-0.001
	l-8.548,14.462l195.173,330.156l-390.335,0.004l0,0l420.754-0.005L262.745,132.056z"/>
<path style="fill:#FFB123;" d="M172.99,476.519h90.614l-0.859-344.462c-1.266-2.436-3.81-4.104-6.746-4.104
	c-2.874,0-5.374,1.595-6.667,3.948h-0.001l-0.935,1.583v188.086L172.99,476.519z"/>
<path style="fill:#FF901D;" d="M248.396,159.238l14.478,24.492l-0.129-51.674c-1.266-2.436-3.81-4.104-6.746-4.104
	c-2.874,0-5.374,1.595-6.667,3.948h-0.001l-0.935,1.584V159.238z"/>
<path style="fill:#F3E8D6;" d="M245.066,139.118l4.266-7.218h0.001c1.293-2.352,3.793-3.948,6.667-3.948
	c2.936,0,5.479,1.668,6.746,4.104l4.182,7.073l14.371-24.233c2.142-3.612,0.951-8.277-2.661-10.418
	c-3.612-2.142-8.276-0.951-10.418,2.661L256,127.741l-12.219-20.603c-2.141-3.612-6.806-4.805-10.418-2.661
	c-3.612,2.141-4.804,6.807-2.661,10.418L245.066,139.118z"/>
<path style="fill:#0072A2;" d="M504.396,491.727H7.604c-4.199,0-7.604-3.404-7.604-7.604c0-4.199,3.405-7.604,7.604-7.604h496.792
	c4.199,0,7.604,3.405,7.604,7.604C512,488.323,508.595,491.727,504.396,491.727z"/>
<g>
	<path style="fill:#F3E8D6;" d="M45.623,476.519v-22.812c0-4.199-3.405-7.604-7.604-7.604s-7.604,3.405-7.604,7.604v22.812H45.623z"
		/>
	<path style="fill:#F3E8D6;" d="M481.584,476.519v-22.812c0-4.199-3.405-7.604-7.604-7.604c-4.199,0-7.604,3.405-7.604,7.604v22.812
		H481.584z"/>
</g>
<path style="fill:#FD6C39;" d="M167.29,350.216c-0.049,0.018-0.093,0.041-0.142,0.059c-0.151,0.057-0.299,0.117-0.445,0.184
	c-0.09,0.041-0.179,0.082-0.268,0.126c-0.131,0.065-0.26,0.135-0.385,0.207c-0.098,0.056-0.196,0.114-0.291,0.174
	c-0.106,0.067-0.212,0.138-0.314,0.211c-0.105,0.074-0.209,0.15-0.31,0.229c-0.088,0.068-0.172,0.14-0.257,0.212
	c-0.105,0.09-0.208,0.181-0.307,0.277c-0.076,0.072-0.148,0.147-0.221,0.222c-0.096,0.1-0.191,0.202-0.281,0.307
	c-0.071,0.082-0.139,0.166-0.206,0.251c-0.081,0.103-0.161,0.207-0.237,0.314c-0.069,0.097-0.134,0.197-0.199,0.297
	c-0.064,0.101-0.127,0.201-0.187,0.304c-0.066,0.114-0.128,0.231-0.188,0.348c-0.049,0.096-0.097,0.192-0.142,0.29
	c-0.059,0.128-0.112,0.256-0.163,0.387c-0.038,0.096-0.075,0.193-0.108,0.29c-0.046,0.132-0.086,0.265-0.125,0.398
	c-0.03,0.105-0.059,0.21-0.084,0.316c-0.03,0.127-0.057,0.254-0.08,0.383c-0.023,0.122-0.043,0.243-0.06,0.366
	c-0.015,0.115-0.027,0.23-0.038,0.347c-0.013,0.142-0.021,0.283-0.026,0.427c-0.003,0.102-0.004,0.204-0.003,0.307
	c0.001,0.155,0.008,0.311,0.019,0.467c0.004,0.054,0.001,0.105,0.006,0.16l10.742,118.441l75.405-154.949L167.29,350.216z"/>
<path style="fill:#927266;" d="M504.396,491.726c-4.199,0-7.604-3.404-7.604-7.604V27.877c0-4.199,3.405-7.604,7.604-7.604
	S512,23.678,512,27.877v456.245C512,488.322,508.595,491.726,504.396,491.726z"/>
<path style="fill:#775146;" d="M496.792,283.882h-2.535c-6.989,0-12.673-5.685-12.673-12.673V139.406
	c0-4.199-3.405-7.604-7.604-7.604c-4.199,0-7.604,3.405-7.604,7.604v103.027c-14.513-3.442-25.348-16.503-25.348-32.055v-40.535
	c0-0.007,0.001-0.013,0.001-0.02c0-0.006-0.001-0.013-0.001-0.019v-54.269c11.688-3.318,20.276-14.081,20.276-26.818
	c0-4.199-3.405-7.604-7.604-7.604c-4.199,0-7.604,3.405-7.604,7.604c0,4.134-1.997,7.799-5.068,10.114V58.297
	c0-4.199-3.405-7.604-7.604-7.604c-4.199,0-7.604,3.405-7.604,7.604V160.91c-8.85-3.14-15.207-11.591-15.207-21.504v-50.69
	c0-4.199-3.405-7.604-7.604-7.604s-7.604,3.405-7.604,7.604v50.69c0,18.36,13.082,33.722,30.415,37.254v33.717
	c0,23.968,17.602,43.896,40.555,47.552v13.28c0,15.374,12.507,27.881,27.881,27.881h2.535V283.882z"/>
<path style="fill:#927266;" d="M7.604,491.726c-4.199,0-7.604-3.404-7.604-7.604V27.878c0-4.199,3.405-7.604,7.604-7.604
	s7.604,3.405,7.604,7.604v456.244C15.208,488.322,11.803,491.726,7.604,491.726z"/>
<path style="fill:#775146;" d="M98.85,131.803c-4.199,0-7.604,3.405-7.604,7.604c0,4.133-1.997,7.797-5.066,10.112V48.157
	c0-4.199-3.405-7.604-7.604-7.604s-7.604,3.405-7.604,7.604v40.533c-3.071-2.315-5.069-5.981-5.069-10.115
	c0-4.199-3.405-7.604-7.604-7.604s-7.604,3.405-7.604,7.604c0,12.737,8.589,23.5,20.277,26.819v54.269
	c0,0.006-0.001,0.013-0.001,0.018c0,0.007,0.001,0.013,0.001,0.02v30.396c0,15.553-10.834,28.613-25.348,32.055v-62.468
	c0-4.199-3.405-7.604-7.604-7.604s-7.604,3.405-7.604,7.604v91.244c0,6.989-5.685,12.673-12.673,12.673h-2.536v15.208h2.536
	c15.374,0,27.881-12.507,27.881-27.881v-13.28c22.954-3.656,40.555-23.585,40.555-47.552v-23.874
	c11.687-3.319,20.274-14.081,20.274-26.817C106.454,135.208,103.05,131.803,98.85,131.803z"/>
<g>
</g>
<g>
</g>
<g>
</g>
<g>
</g>
<g>
</g>
<g>
</g>
<g>
</g>
<g>
</g>
<g>
</g>
<g>
</g>
<g>
</g>
<g>
</g>
<g>
</g>
<g>
</g>
<g>
</g>
</svg>
