<?xml version="1.0" encoding="iso-8859-1"?>
<!-- Generator: Adobe Illustrator 19.0.0, SVG Export Plug-In . SVG Version: 6.00 Build 0)  -->
<svg version="1.1" id="Capa_1" xmlns="http://www.w3.org/2000/svg" xmlns:xlink="http://www.w3.org/1999/xlink" x="0px" y="0px"
	 viewBox="0 0 511.999 511.999" style="enable-background:new 0 0 511.999 511.999;" xml:space="preserve">
<path style="fill:#FF901D;" d="M458.772,261.068v40.554c0,111.991-90.781,202.772-202.772,202.772S53.227,413.614,53.227,301.623
	v-40.554c0,111.991,90.781,202.772,202.772,202.772S458.772,373.059,458.772,261.068z"/>
<path style="fill:#FFB123;" d="M255.999,58.296c111.991,0,202.772,90.781,202.772,202.772s-90.781,202.772-202.772,202.772
	S53.227,373.059,53.227,261.068S144.008,58.296,255.999,58.296z"/>
<path style="fill:#F3E8D6;" d="M428.356,261.068c0,95.191-77.165,172.356-172.356,172.356S83.643,356.26,83.643,261.068
	S160.808,88.712,255.999,88.712S428.356,165.877,428.356,261.068z"/>
<path style="fill:#E5D8C6;" d="M255.999,88.712c-5.127,0-10.197,0.237-15.209,0.676c88.065,7.701,157.147,81.615,157.147,171.68
	s-69.082,163.98-157.147,171.681c5.012,0.439,10.082,0.675,15.209,0.675c95.191,0,172.356-77.165,172.356-172.356
	S351.191,88.712,255.999,88.712z"/>
<path style="fill:#FF4C4D;" d="M342.026,175.042L284.672,289.74l-114.699,57.354l57.354-114.698L342.026,175.042z"/>
<path style="fill:#FFB123;" d="M266.757,250.311c5.931,5.941,5.931,15.573,0,21.514c-5.941,5.931-15.573,5.931-21.515,0
	c-5.931-5.941-5.931-15.573,0-21.514C251.184,244.38,260.815,244.38,266.757,250.311z"/>
<path d="M452.395,185.505c-8.963-23.278-21.9-44.61-38.456-63.407c-16.465-18.696-35.882-34.187-57.71-46.039
	c-22.385-12.156-46.526-20.044-71.771-23.461c-0.616-0.084-1.238-0.157-1.856-0.234c3.989-5.45,6.35-12.159,6.35-19.413
	C288.951,14.782,274.17,0,256.001,0S223.05,14.782,223.05,32.95c0,7.252,2.36,13.961,6.346,19.409
	c-18.257,2.297-36.057,6.967-53.167,13.987c-12.187,4.998-23.977,11.193-35.029,18.402c-10.95,7.138-21.291,15.35-30.73,24.404
	c-3.031,2.9-3.133,7.726-0.233,10.757c1.451,1.511,3.397,2.342,5.495,2.342c1.967,0,3.832-0.75,5.262-2.119
	c8.77-8.405,18.371-16.019,28.52-22.65c10.26-6.691,21.19-12.43,32.484-17.063c23.481-9.633,48.381-14.52,74.002-14.52
	c8.841,0,17.732,0.598,26.421,1.774c46.355,6.266,89.007,29.159,120.102,64.471c15.36,17.438,27.364,37.229,35.678,58.824
	c8.608,22.356,12.967,45.938,12.967,70.098c0,26.36-5.161,51.92-15.33,75.969c-4.897,11.558-10.95,22.71-17.996,33.143
	c-6.986,10.331-15.005,20.054-23.836,28.895c-8.842,8.831-18.564,16.85-28.895,23.836c-10.433,7.046-21.585,13.099-33.143,17.996
	c-24.049,10.169-49.608,15.33-75.969,15.33s-51.92-5.161-75.97-15.33c-11.557-4.897-22.709-10.95-33.142-17.996
	c-10.331-6.986-20.054-15.005-28.895-23.836c-8.831-8.841-16.85-18.564-23.836-28.895c-7.046-10.433-13.099-21.585-17.996-33.143
	c-10.169-24.049-15.33-49.608-15.33-75.969c0-21.97,3.618-43.525,10.756-64.066c6.895-19.841,16.931-38.395,29.848-55.114
	c1.237-1.612,1.784-3.609,1.521-5.617c-0.253-2.018-1.288-3.812-2.89-5.049c-1.348-1.044-2.95-1.592-4.643-1.592
	c-2.384,0-4.574,1.085-6.022,2.96c-13.91,18.006-24.737,38-32.18,59.433c-7.694,22.153-11.598,45.391-11.598,69.044v40.554
	c0,116.002,94.374,210.376,210.376,210.376s210.376-94.374,210.376-210.376v-40.554C466.366,235.022,461.67,209.595,452.395,185.505
	z M256.001,15.207c9.783,0,17.743,7.96,17.743,17.743c0,7.06-4.156,13.152-10.14,16.007V38.019c0-4.199-3.404-7.604-7.604-7.604
	c-4.2,0-7.604,3.405-7.604,7.604v10.937c-5.983-2.855-10.138-8.946-10.138-16.006C238.258,23.167,246.218,15.207,256.001,15.207z
	 M255.999,496.791c-88.2,0-162.909-58.815-187.001-139.28c3.771,7.293,7.965,14.383,12.556,21.186
	c7.523,11.132,16.171,21.605,25.692,31.126c9.52,9.52,19.993,18.168,31.125,25.691c11.255,7.594,23.278,14.123,35.739,19.395
	c12.694,5.373,25.985,9.5,39.49,12.258c13.859,2.839,28.125,4.279,42.4,4.279s28.539-1.44,42.399-4.279
	c13.505-2.758,26.797-6.884,39.49-12.258c12.46-5.272,24.485-11.801,35.728-19.395c11.142-7.524,21.616-16.171,31.136-25.691
	c9.52-9.52,18.168-19.993,25.691-31.126c4.591-6.804,8.786-13.894,12.557-21.188C418.909,437.975,344.199,496.791,255.999,496.791z"
	/>
<path d="M395.203,363.002c1.257,0.841,2.717,1.277,4.218,1.277c2.545,0,4.917-1.257,6.326-3.376
	c19.77-29.584,30.213-64.106,30.213-99.835c0-24.292-4.765-47.864-14.143-70.048c-4.512-10.666-10.098-20.946-16.597-30.568
	c-6.438-9.53-13.829-18.493-21.97-26.634c-8.141-8.141-17.104-15.543-26.634-21.97c-9.622-6.509-19.903-12.085-30.568-16.597
	c-22.183-9.388-45.756-14.143-70.048-14.143s-47.864,4.755-70.048,14.143c-10.667,4.512-20.946,10.088-30.568,16.597
	c-9.53,6.428-18.493,13.829-26.634,21.97c-8.141,8.141-15.532,17.104-21.971,26.634c-6.509,9.622-12.085,19.902-16.596,30.568
	c-9.389,22.183-14.143,45.756-14.143,70.048c0,20.521,3.427,40.656,10.189,59.828c6.529,18.533,16.019,35.799,28.226,51.311
	c12.075,15.37,26.472,28.601,42.785,39.328c16.587,10.909,34.715,18.929,53.877,23.846c14.6,3.751,29.696,5.647,44.884,5.647
	c0.007,0,0.013-0.001,0.02-0.001v0.001c12.531,0,25.053-1.298,37.209-3.853c11.852-2.494,23.481-6.215,34.583-11.051
	c10.899-4.745,21.382-10.615,31.155-17.449c9.682-6.762,18.746-14.518,26.928-23.055c1.399-1.46,2.149-3.386,2.109-5.424
	c-0.041-2.028-0.872-3.924-2.343-5.323c-1.418-1.369-3.285-2.119-5.261-2.119c-2.09,0-4.035,0.831-5.485,2.342
	c-7.503,7.817-15.796,14.924-24.667,21.119c-8.942,6.256-18.533,11.629-28.51,15.968c-18.452,8.037-37.978,12.55-58.135,13.457
	v-12.494c0-4.199-3.404-7.604-7.604-7.604c-4.2,0-7.604,3.405-7.604,7.604v12.481c-11.344-0.516-22.582-2.166-33.498-4.968
	c-17.53-4.512-34.127-11.852-49.304-21.839c-14.934-9.824-28.125-21.94-39.186-36.002c-11.163-14.204-19.862-30.01-25.843-46.982
	c-5.347-15.184-8.408-31.013-9.14-47.165h12.497c4.2,0,7.604-3.405,7.604-7.604s-3.404-7.604-7.604-7.604H91.425
	c0.881-19.566,5.163-38.546,12.769-56.523c4.126-9.763,9.236-19.172,15.188-27.983c5.891-8.719,12.663-16.921,20.125-24.394
	c7.462-7.452,15.664-14.224,24.383-20.115c8.81-5.951,18.22-11.061,27.984-15.188c17.976-7.606,36.956-11.888,56.523-12.769v12.495
	c0,4.199,3.404,7.604,7.604,7.604s7.604-3.405,7.604-7.604V96.494c19.565,0.881,38.546,5.163,56.523,12.769
	c9.763,4.126,19.172,9.236,27.983,15.188c8.72,5.891,16.921,12.663,24.383,20.115c7.462,7.472,14.235,15.674,20.126,24.394
	c5.951,8.81,11.061,18.219,15.187,27.983c7.606,17.977,11.889,36.957,12.77,56.523h-12.497c-4.2,0-7.604,3.405-7.604,7.604
	s3.404,7.604,7.604,7.604h12.48c-1.366,29.978-10.774,58.802-27.454,83.786C390.772,355.945,391.714,360.67,395.203,363.002z"/>
<path d="M162.378,347.431c0.007,0.162,0.021,0.324,0.04,0.487c0.009,0.079,0.016,0.159,0.027,0.237
	c0.021,0.162,0.054,0.323,0.087,0.486c0.017,0.081,0.032,0.163,0.053,0.243c0.035,0.15,0.079,0.298,0.126,0.447
	c0.028,0.095,0.058,0.19,0.091,0.283c0.046,0.129,0.095,0.257,0.148,0.384c0.047,0.113,0.095,0.225,0.147,0.336
	c0.024,0.055,0.045,0.109,0.071,0.163c0.019,0.04,0.047,0.074,0.067,0.114c0.143,0.274,0.297,0.541,0.472,0.798
	c0.01,0.013,0.017,0.028,0.026,0.042c0.179,0.258,0.381,0.501,0.593,0.737c0.06,0.066,0.12,0.129,0.181,0.192
	c0.175,0.181,0.362,0.356,0.558,0.521c0.05,0.042,0.097,0.087,0.148,0.128c0.239,0.192,0.493,0.37,0.759,0.534
	c0.065,0.04,0.133,0.074,0.199,0.112c0.132,0.076,0.261,0.156,0.398,0.225c0.074,0.038,0.15,0.062,0.225,0.096
	c0.108,0.051,0.22,0.097,0.331,0.142c0.206,0.083,0.414,0.156,0.622,0.22c0.097,0.029,0.193,0.06,0.291,0.085
	c0.246,0.066,0.494,0.116,0.742,0.154c0.069,0.011,0.138,0.026,0.207,0.037c0.325,0.043,0.653,0.069,0.977,0.069
	c0.025,0,0.052-0.005,0.078-0.005c0.292-0.002,0.586-0.023,0.88-0.061c0.108-0.014,0.214-0.038,0.321-0.056
	c0.208-0.035,0.416-0.076,0.622-0.13c0.127-0.032,0.251-0.072,0.376-0.112c0.177-0.056,0.353-0.118,0.527-0.188
	c0.14-0.055,0.276-0.113,0.412-0.176c0.062-0.029,0.126-0.05,0.188-0.08l114.706-57.352c0.133-0.066,0.257-0.144,0.384-0.217
	c0.071-0.041,0.145-0.078,0.215-0.122c0.266-0.163,0.518-0.341,0.755-0.531c0.051-0.041,0.097-0.085,0.147-0.127
	c0.198-0.167,0.385-0.343,0.563-0.527c0.06-0.061,0.118-0.122,0.174-0.185c0.215-0.238,0.419-0.485,0.601-0.746
	c0.002-0.003,0.003-0.006,0.006-0.009c0.186-0.269,0.347-0.55,0.496-0.837c0.018-0.035,0.042-0.065,0.06-0.1l57.351-114.706
	c0.017-0.033,0.028-0.068,0.045-0.101c0.075-0.156,0.144-0.314,0.208-0.474c0.032-0.081,0.065-0.164,0.095-0.246
	c0.053-0.145,0.099-0.291,0.142-0.439c0.028-0.097,0.059-0.194,0.082-0.292c0.034-0.138,0.064-0.277,0.09-0.417
	c0.02-0.104,0.041-0.209,0.057-0.313c0.02-0.141,0.034-0.283,0.048-0.425c0.01-0.1,0.02-0.2,0.025-0.3
	c0.008-0.153,0.008-0.305,0.006-0.459c0-0.088,0-0.177-0.004-0.267c-0.007-0.162-0.021-0.324-0.04-0.487
	c-0.009-0.079-0.016-0.159-0.027-0.237c-0.021-0.162-0.054-0.323-0.087-0.486c-0.017-0.081-0.032-0.163-0.053-0.243
	c-0.035-0.15-0.079-0.298-0.126-0.447c-0.028-0.095-0.058-0.19-0.091-0.283c-0.046-0.129-0.095-0.257-0.148-0.384
	c-0.047-0.113-0.095-0.225-0.148-0.336c-0.024-0.055-0.045-0.109-0.071-0.163c-0.028-0.057-0.064-0.108-0.093-0.164
	c-0.062-0.118-0.128-0.232-0.195-0.347c-0.063-0.103-0.126-0.205-0.191-0.303c-0.071-0.106-0.147-0.212-0.223-0.315
	c-0.073-0.099-0.148-0.197-0.226-0.292c-0.077-0.095-0.159-0.188-0.241-0.279c-0.086-0.094-0.172-0.188-0.263-0.277
	c-0.084-0.084-0.171-0.165-0.26-0.245c-0.097-0.088-0.195-0.175-0.296-0.258c-0.09-0.073-0.182-0.143-0.275-0.213
	c-0.108-0.081-0.219-0.159-0.331-0.234c-0.095-0.063-0.192-0.124-0.291-0.182c-0.118-0.07-0.236-0.138-0.358-0.202
	c-0.055-0.028-0.105-0.063-0.16-0.09c-0.053-0.026-0.105-0.045-0.158-0.069c-0.115-0.055-0.232-0.104-0.35-0.153
	c-0.121-0.05-0.242-0.098-0.366-0.142c-0.101-0.036-0.204-0.068-0.307-0.099c-0.14-0.043-0.279-0.084-0.42-0.118
	c-0.091-0.022-0.182-0.04-0.275-0.059c-0.151-0.031-0.304-0.061-0.456-0.082c-0.088-0.013-0.177-0.02-0.268-0.03
	c-0.152-0.016-0.306-0.03-0.459-0.038c-0.097-0.004-0.195-0.003-0.292-0.004c-0.145-0.001-0.289-0.001-0.433,0.006
	c-0.107,0.005-0.215,0.017-0.321,0.026c-0.137,0.013-0.272,0.025-0.407,0.046c-0.108,0.016-0.218,0.039-0.327,0.059
	c-0.135,0.026-0.27,0.054-0.402,0.087c-0.101,0.025-0.202,0.056-0.303,0.085c-0.144,0.043-0.286,0.087-0.428,0.138
	c-0.086,0.031-0.172,0.065-0.259,0.1c-0.154,0.062-0.307,0.129-0.457,0.201c-0.037,0.018-0.074,0.03-0.111,0.049l-114.706,57.352
	c-0.052,0.025-0.098,0.058-0.149,0.084c-0.127,0.067-0.251,0.138-0.374,0.212c-0.095,0.057-0.189,0.115-0.28,0.175
	c-0.115,0.076-0.226,0.155-0.337,0.237c-0.093,0.069-0.185,0.139-0.274,0.211c-0.1,0.082-0.197,0.168-0.293,0.255
	c-0.091,0.082-0.18,0.165-0.267,0.25c-0.086,0.086-0.169,0.176-0.251,0.267c-0.087,0.096-0.173,0.193-0.254,0.293
	c-0.072,0.088-0.142,0.18-0.211,0.273c-0.082,0.112-0.163,0.224-0.239,0.34c-0.06,0.09-0.117,0.182-0.173,0.276
	c-0.075,0.125-0.147,0.251-0.215,0.381c-0.026,0.05-0.057,0.095-0.082,0.145l-57.354,114.71c-0.017,0.033-0.028,0.068-0.045,0.101
	c-0.075,0.156-0.144,0.314-0.208,0.474c-0.032,0.082-0.065,0.164-0.095,0.246c-0.053,0.145-0.099,0.291-0.142,0.439
	c-0.028,0.097-0.059,0.194-0.082,0.292c-0.034,0.138-0.064,0.277-0.09,0.417c-0.02,0.104-0.041,0.209-0.057,0.313
	c-0.021,0.141-0.034,0.283-0.048,0.425c-0.01,0.1-0.02,0.2-0.025,0.3c-0.008,0.153-0.008,0.305-0.006,0.459
	C162.373,347.253,162.373,347.342,162.378,347.431z M232.991,238.06l92.032-46.015l-46.015,92.032l-92.032,46.015L232.991,238.06z"
	/>
<path d="M239.868,277.198c4.309,4.309,10.037,6.681,16.131,6.681s11.822-2.373,16.13-6.681c4.309-4.309,6.682-10.037,6.682-16.131
	c0-6.093-2.373-11.823-6.681-16.131c-4.309-4.309-10.037-6.681-16.131-6.681c-6.093,0-11.822,2.372-16.131,6.681
	C230.974,253.831,230.974,268.303,239.868,277.198z M250.622,255.691c1.436-1.436,3.345-2.226,5.376-2.226s3.941,0.791,5.378,2.227
	c1.436,1.437,2.226,3.346,2.226,5.377s-0.791,3.94-2.227,5.377c-1.436,1.436-3.346,2.227-5.377,2.227
	c-2.031,0-3.941-0.791-5.376-2.227C247.656,263.479,247.656,258.655,250.622,255.691z"/>
<g>
</g>
<g>
</g>
<g>
</g>
<g>
</g>
<g>
</g>
<g>
</g>
<g>
</g>
<g>
</g>
<g>
</g>
<g>
</g>
<g>
</g>
<g>
</g>
<g>
</g>
<g>
</g>
<g>
</g>
</svg>
