<svg height="511pt" viewBox="-15 0 511 511.99884" width="511pt" xmlns="http://www.w3.org/2000/svg"><g fill-rule="evenodd"><path d="m369.640625 8.335938c-165.09375 36.238281-318.902344 190.71875-336.105469 361.070312 8.671875 35.085938 37.664063 26.757812 40.472656-4.683594.617188-7.011718.195313-15.199218 4.292969-31.328125 13.359375-64.195312 49.285157-124.160156 97.648438-173.355469 57.648437-58.613281 132.953125-101.890624 208.734375-118.523437 15.777344-5.074219 12.183594-39.542969-15.042969-33.179687zm0 0" fill="#e6e6e6"/><path d="m73.109375 475.3125 7.523437-70.425781c4.433594-16.996094-2.445312-30.964844-19.285156-36.515625-2.890625-1.261719-6.03125-2.105469-9.316406-2.46875-6.625-.703125-12.996094.644531-18.496094 3.503906-9.347656 4.882812-16.195312 14.222656-17.402344 25.441406l-7.886718 73.535156c-.785156 7.515626 1.066406 14.726563 4.800781 20.699219 5.136719 8.21875 13.863281 14.078125 24.164063 15.171875 17.824218 1.90625 33.988281-11.105468 35.898437-28.941406zm0 0" fill="#ffdda6"/><path d="m196.632812 442.636719c1.375-12.761719-7.859374-24.175781-20.601562-25.550781-12.769531-1.34375-24.191406 7.855468-25.566406 20.613281-1.347656 12.734375 7.886718 24.175781 20.628906 25.523437 12.742188 1.375 24.191406-7.851562 25.539062-20.585937zm0 0" fill="#fcc368"/><path d="m80.632812 404.886719c3.308594-12.679688.335938-23.699219-8.394531-30.769531-2.972656-2.410157-6.625-4.34375-10.890625-5.75 14.175782 8.921874 1.515625 6.058593 3.761719 17.753906.027344.195312.058594.394531.085937.589844.785157 4.542968.476563 9.535156-.898437 14.808593l-7.523437 70.425781c-1.710938 16.042969-14.988282 28.1875-30.621094 29.082032 3.367187 1.683594 7.101562 2.804687 11.058594 3.226562 17.824218 1.90625 33.992187-11.105468 35.898437-28.945312zm0 0" fill="#fcc368"/><path d="m149.957031 372.996094c2.300781-21.425782-11.085937-40.945313-30.929687-47.117188-2.722656-.839844-5.585938-1.429687-8.53125-1.738281-11.988282-1.289063-23.410156 2.328125-32.195313 9.253906-9.066406 7.125-15.378906 17.78125-16.699219 30.148438-.167968 1.628906-.253906 3.226562-.253906 4.824219 0 14.921874 7.523438 28.441406 19.28125 36.519531 5.894532 4.039062 12.828125 6.730469 20.433594 7.542969 12.660156 1.34375 24.671875-2.777344 33.625-10.433594 8.308594-7.121094 14.007812-17.273438 15.269531-29zm0 0" fill="#50d960"/><path d="m149.957031 372.996094c2.300781-21.425782-11.085937-40.945313-30.929687-47.117188-2.636719-.8125-5.390625-1.402344-8.253906-1.710937 14.230468 8.664062 22.988281 24.988281 21.082031 42.660156-.871094 8.214844-3.957031 15.675781-8.5625 21.847656-1.964844 2.636719-4.210938 5.019531-6.679688 7.125-8.980469 7.683594-20.964843 11.804688-33.652343 10.429688-.085938 0-.167969 0-.28125-.027344 5.417968 3.308594 11.648437 5.496094 18.382812 6.226563 12.660156 1.347656 24.671875-2.777344 33.625-10.433594 8.308594-7.121094 14.007812-17.273438 15.269531-29zm0 0" fill="#0f941e"/><path d="m393.75 22.753906c-197.539062 44.144532-322.941406 198.566406-341.71875 343.148438 3.28125.363281 6.425781 1.207031 9.316406 2.46875 0-1.601563.085938-3.199219.253906-4.824219 1.320313-12.367187 7.632813-23.027344 16.699219-30.152344 13.359375-64.195312 49.285157-124.160156 97.648438-173.355469 57.648437-58.613281 132.953125-101.890624 208.734375-118.523437 7.242187-2.328125 10.414062-10.824219 9.066406-18.761719zm0 0" fill="#c2c7cc"/><path d="m319.542969 311.265625c-18.808594 12.621094-25.039063 38.707031-25.121094 63.695313-.027344 15.734374 4.996094 14.75 17.511719 11.328124l17.542968-4.820312c19.648438-12.929688 8.113282-60.050781-9.933593-70.203125zm0 0" fill="#f78411"/><path d="m474.949219 374.960938c-.054688-24.988282-6.3125-51.074219-25.089844-63.691407-8.785156.53125-16.757813 68.292969-9.9375 70.199219l17.542969 4.824219c12.515625 3.417969 17.542968 4.402343 17.484375-11.332031zm0 0" fill="#f78411"/><path d="m449.859375 311.265625-61.246094-21.035156-69.070312 21.035156c-.675781 4.824219-1.011719 9.816406-1.011719 14.894531 0 16.742188 2.917969 32.394532 8.054688 47.425782 4.492187 13.265624 10.722656 26.082031 18.160156 38.761718 7.382812 12.621094 10.863281 18.003906 4.800781 25.296875l-23.691406 28.550781c-3.898438 4.683594 2.472656 9.703126 5.363281 9.703126h12.796875l40.671875.085937 40.667969-.085937h12.828125c2.890625 0 9.234375-5.019532 5.359375-9.703126l-23.6875-28.550781c-6.0625-7.292969-2.609375-12.675781 4.800781-25.296875 7.4375-12.679687 13.640625-25.496094 18.160156-38.761718 5.136719-15.03125 8.054688-30.683594 8.054688-47.425782-.003906-5.078125-.339844-10.070312-1.011719-14.894531zm0 0" fill="#fcc368"/><path d="m384.683594 240.898438c-29.945313 0-55.234375 25.632812-63.402344 60.777343-.703125 3.140625-1.292969 6.308594-1.738281 9.59375 39.265625 13.039063 84.816406 14.050781 130.316406 0-.449219-3.28125-1.039063-6.453125-1.769531-9.59375-8.167969-35.144531-33.457032-60.777343-63.40625-60.777343zm0 0" fill="#ffdda6"/><path d="m448.089844 301.675781c-8.167969-35.144531-33.457032-60.777343-63.40625-60.777343-8.363282 0-16.363282 1.992187-23.714844 5.636718.617188-.027344 1.234375-.027344 1.851562-.027344 29.949219 0 55.265626 25.632813 63.402344 60.804688.730469 3.113281 1.320313 6.308594 1.769532 9.5625 7.269531-1.484375 14.566406-3.363281 21.863281-5.609375-.445313-3.28125-1.035157-6.449219-1.765625-9.589844zm0 0" fill="#fcc368"/><path d="m449.859375 311.265625c-7.300781 2.246094-14.597656 4.125-21.867187 5.609375 3.003906 32.480469-7.324219 66.21875-28.261719 93.28125-8.953125 11.554688-5.304688 26.898438.28125 34.554688l22.789062 31.1875h15.382813c2.890625 0 9.234375-4.992188 5.359375-9.703126l-23.6875-28.550781c-6.0625-7.292969-2.609375-12.675781 4.796875-25.296875 5.953125-10.15625 11.117187-20.390625 15.269531-30.878906 1.039063-2.609375 1.996094-5.21875 2.890625-7.882812 5.136719-15.03125 8.058594-30.683594 8.058594-47.425782-.003906-5.078125-.339844-10.070312-1.011719-14.894531zm0 0" fill="#ffa719"/></g><path d="m406.859375 286.429688c-4.175781 0-7.558594-3.382813-7.558594-7.554688v-.730469c0-4.171875 3.382813-7.558593 7.558594-7.558593 4.171875 0 7.554687 3.386718 7.554687 7.558593v.730469c0 4.171875-3.382812 7.554688-7.554687 7.554688zm0 0"/><path d="m456.84375 307.015625c-6.523438-39.003906-32.554688-69.066406-64.601562-73.191406v-187.691407c8.46875-5.878906 11.046874-17.722656 8.316406-27.550781-3.265625-11.785156-14.613282-21.792969-32.585938-17.613281-76.195312 16.726562-151.976562 58.761719-213.386718 118.355469-.875.84375-1.746094 1.6875-2.585938 2.527343-2.953125 2.953126-2.957031 7.734376-.007812 10.6875 2.949218 2.953126 7.734374 2.957032 10.6875.007813.785156-.785156 1.597656-1.570313 2.417968-2.363281 59.441406-57.6875 132.660156-98.335938 206.164063-114.464844.03125-.007812.066406-.015625.101562-.023438 10.382813-2.429687 13.625 3.296876 14.632813 6.925782 1.390625 5.023437-.183594 10.347656-3.375 11.613281-70.214844 15.511719-140.34375 53.28125-197.53125 106.382813-4.875 4.527343-9.609375 9.148437-14.226563 13.839843-.1875.167969-.363281.351563-.53125.539063-50.691406 51.683594-85.46875 112.835937-98.863281 174.289062-8.480469 7.441406-14.5625 17.640625-16.765625 29.378906-.621094-.097656-1.242187-.207031-1.871094-.277343-3.535156-.378907-7.015625-.277344-10.371093.238281 9.734374-69.820312 43.710937-140.757812 96.507812-200.976562 2.75-3.140626 2.4375-7.914063-.703125-10.667969-3.136719-2.75-7.910156-2.4375-10.664063.703125-28.195312 32.160156-51.210937 67.058594-68.414062 103.726562-17.445312 37.195313-28.4375 75.324219-32.742188 113.398438-9.65625 6.378906-16.503906 16.855468-17.828124 29.230468l-7.886719 73.539063c-1.136719 10.621094 1.957031 21.082031 8.71875 29.453125 6.757812 8.367188 16.328125 13.597656 26.957031 14.738281 1.445312.152344 2.882812.230469 4.316406.230469 9.113282 0 17.910156-3.097656 25.144532-8.929688 8.378906-6.75 13.617187-16.324218 14.753906-26.957031l6.34375-59.390625c4.222656 1.628906 8.679687 2.726563 13.304687 3.222656 1.851563.195313 3.691407.289063 5.511719.289063 10.402344 0 20.230469-3.128906 28.488281-8.554687l12.261719 13.78125c-1.882812 3.445312-3.140625 7.304687-3.585938 11.441406-.863281 8.167968 1.507813 16.183594 6.667969 22.574218 5.167969 6.398438 12.515625 10.394532 20.667969 11.257813 1.121094.121094 2.242188.179687 3.355469.179687 6.996093 0 13.734375-2.367187 19.253906-6.824218 6.398437-5.160156 10.394531-12.496094 11.253906-20.648438 1.816407-16.855468-10.429687-32.050781-27.304687-33.871094-.003906 0-.011719 0-.015625-.003906-7.28125-.765625-14.242188 1.082032-19.953125 4.78125l-11.292969-12.699218c6.4375-7.640626 10.75-17.199219 11.890625-27.847657 1.476562-13.800781-2.507812-27.34375-11.230469-38.144531-4.160156-5.152344-9.171875-9.375-14.765625-12.554688 37.253906-45.394531 48.875-108.234374 51.691406-156.253906 64.875-8.328125 148.601563-53.816406 193.964844-103.972656v170.960938c-31.785156 4.058593-57.996094 33.414062-64.578125 73.175781-16.488281 12.835937-25.585937 36.773437-25.691406 67.933593-.011719 6.742188.703125 14.1875 6.097656 18.308594 2.5625 1.960938 5.417969 2.671875 8.476563 2.671875 3.902344 0 8.132812-1.15625 12.5-2.351562l11.132812-3.058594c3.644532 8.371094 8.019532 16.886719 13.152344 25.644531l.671875 1.144532c7.328125 12.511718 6.949219 12.96875 4.835937 15.511718l-23.695312 28.558594c-3.195312 3.855469-3.847656 8.820312-1.75 13.28125 2.320312 4.933594 8 8.796875 12.933594 8.796875h12.78125l40.671875.085937h.027343l40.65625-.085937h12.828126c4.917968 0 10.589843-3.867187 12.914062-8.804687 2.101562-4.457032 1.453125-9.421876-1.738281-13.28125l-23.695313-28.558594c-2.121094-2.550782-2.503906-3.011719 4.914063-15.628906l.597656-1.019532c5.128906-8.761718 9.496094-17.28125 13.140625-25.648437l11.15625 3.066406c4.363281 1.195313 8.589844 2.347656 12.488281 2.347656 3.058594 0 5.917969-.710937 8.480469-2.675781 5.386719-4.125 6.089844-11.574219 6.066406-18.308594-.066406-31.125-9.152344-55.066406-25.660156-67.925781zm-391.25 167.492187c-.707031 6.613282-3.976562 12.578126-9.207031 16.796876-5.230469 4.214843-11.757813 6.144531-18.371094 5.4375-6.617187-.710938-12.585937-3.980469-16.808594-9.207032-4.222656-5.226562-6.15625-11.742187-5.449219-18.34375l7.886719-73.539062c.914063-8.53125 6.035157-15.609375 13.074219-19.394532.171875-.082031.339844-.167968.503906-.261718 4.175782-2.125 8.984375-3.113282 13.972656-2.582032.988282.109376 1.949219.289063 2.898438.511719 1.054688 9.808594 4.878906 19.125 11.222656 26.984375 2.21875 2.75 4.683594 5.234375 7.34375 7.441406zm109.640625-49.90625c8.578125.929688 14.808594 8.65625 13.882813 17.238282-.4375 4.144531-2.46875 7.867187-5.714844 10.488281-3.257813 2.628906-7.335938 3.828125-11.515625 3.378906-4.152344-.4375-7.886719-2.472656-10.515625-5.726562-2.625-3.253907-3.832032-7.332031-3.394532-11.472657.863282-8.019531 7.691407-13.992187 15.605469-13.992187.546875 0 1.097657.027344 1.652344.085937zm-40.753906-79.445312c6.183593 7.652344 9.011719 17.253906 7.960937 27.035156-.722656 6.765625-3.253906 12.90625-7.054687 18.007813l-23.960938-26.9375c-2.773437-3.117188-7.550781-3.394531-10.667969-.621094-3.121093 2.773437-3.398437 7.550781-.625 10.667969l23.949219 26.917968c-5.441406 3.125-11.710937 4.898438-18.304687 4.894532-1.289063 0-2.597656-.066406-3.910156-.207032-6.089844-.648437-11.789063-2.746093-16.71875-6.078124-.132813-.101563-.269532-.195313-.410157-.285157-2.84375-1.980469-5.425781-4.367187-7.660156-7.136719-6.179687-7.660156-9.007813-17.269531-7.960937-27.0625 2.019531-18.867187 18.042968-32.90625 36.625-32.90625 1.304687 0 2.625.070313 3.949218.210938 9.800782 1.046875 18.605469 5.839844 24.789063 13.5zm-23.183594-28.53125c-7.570313-.808594-14.9375.070312-21.738281 2.3125 13.382812-49.226562 40.726562-96.769531 77.382812-138.195312-4.230468 44.714843-16.914062 98.535156-50.484375 136.695312-1.695312-.355469-3.414062-.625-5.160156-.8125zm87.035156-167.789062c47.140625-43.171876 104.769531-76.816407 165.964844-94.355469-39.191406 42.21875-108.566406 81.648437-165.964844 94.355469zm111.609375 230.164062c-2.066406.566406-5.5625 1.523438-7.5625 1.769531-.195312-.976562-.40625-2.738281-.402344-5.785156.039063-11.382813 1.519532-29.1875 9.105469-43.078125.566407 14.847656 3.335938 29.488281 8.46875 44.453125zm108.195313 29.519531-.589844 1.003907c-7.152344 12.164062-12.796875 21.773437-3.507813 32.945312l21.464844 25.875-50.816406.082031-40.671875-.082031h-10.121094l21.460938-25.867188c9.265625-11.144531 3.667969-20.707031-3.417969-32.808593l-.671875-1.144531c-17.175781-29.292969-25.179687-55.464844-25.179687-82.363282 0-1.675781.054687-3.332031.132812-4.984375 12.976562 3.621094 26.660156 6.046875 40.824219 7.1875.207031.015625.410156.027344.613281.027344 3.898438 0 7.207031-3 7.527344-6.953125.332031-4.160156-2.765625-7.804688-6.925782-8.140625-14-1.125-27.472656-3.578125-40.160156-7.285156 6.808594-33.707031 29.875-57.554688 56.589844-57.554688 27.042969 0 49.855469 24.402344 56.59375 57.460938-12.28125 3.441406-24.765625 5.808593-37.238281 7.03125-.398438.042969-2.40625.230469-2.789063.25-4.167968.230469-7.363281 3.796875-7.132812 7.960937.222656 4.027344 3.554687 7.144532 7.539062 7.144532.140625 0 .28125-.003907.421875-.011719.570313-.03125 2.945313-.25 3.496094-.304688 12.5625-1.234375 25.167969-3.570312 37.59375-6.925781.082031 1.6875.140625 3.382812.140625 5.097656 0 26.84375-8.003906 53.019532-25.175781 82.359375zm48.867187-27.753906c-2-.246094-5.484375-1.199219-7.535156-1.761719l-9.632812-2.648437c5.136718-14.976563 7.914062-29.613281 8.480468-44.445313 7.589844 13.898438 9.050782 31.695313 9.078125 43.078125.007813 3.039063-.199219 4.800781-.390625 5.777344zm0 0"/></svg>