<?xml version="1.0" encoding="iso-8859-1"?>
<!-- Generator: Adobe Illustrator 19.0.0, SVG Export Plug-In . SVG Version: 6.00 Build 0)  -->
<svg version="1.1" id="Capa_1" xmlns="http://www.w3.org/2000/svg" xmlns:xlink="http://www.w3.org/1999/xlink" x="0px" y="0px"
	 viewBox="0 0 511.999 511.999" style="enable-background:new 0 0 511.999 511.999;" xml:space="preserve">
<polygon style="fill:#A0D860;" points="392.871,129.048 413.148,200.018 403.009,200.018 382.732,200.018 372.593,200.018 "/>
<g>
	<polygon style="fill:#89BF43;" points="403.009,200.018 423.276,250.711 392.871,250.711 362.455,250.711 382.732,200.018 	"/>
	<polygon style="fill:#89BF43;" points="129.267,200.018 149.544,250.711 119.129,250.711 88.713,250.711 108.99,200.018 	"/>
</g>
<g>
	<polygon style="fill:#A0D860;" points="119.129,129.048 139.406,200.018 129.267,200.018 108.99,200.018 98.851,200.018 	"/>
	<polygon style="fill:#A0D860;" points="256,7.598 301.623,108.994 281.346,108.994 230.653,108.994 210.376,108.994 	"/>
</g>
<g>
	<polygon style="fill:#89BF43;" points="256,7.598 240.79,41.4 271.204,108.994 281.346,108.994 301.623,108.994 	"/>
	<polygon style="fill:#89BF43;" points="281.346,108.994 321.9,200.241 271.207,200.241 240.792,200.241 190.099,200.241 
		230.653,108.994 	"/>
</g>
<polygon style="fill:#78A833;" points="281.346,108.994 250.927,108.994 291.482,200.241 321.9,200.241 "/>
<path id="SVGCleanerId_0" style="fill:#927266;" d="M271.207,251.391v0.01c-5.029-0.314-10.098-0.466-15.208-0.466
	s-10.179,0.152-15.208,0.466v-0.01v-51.149h30.416V251.391z"/>
<g>
	<path id="SVGCleanerId_0_1_" style="fill:#927266;" d="M271.207,251.391v0.01c-5.029-0.314-10.098-0.466-15.208-0.466
		s-10.179,0.152-15.208,0.466v-0.01v-51.149h30.416V251.391z"/>
</g>
<path style="fill:#A0D860;" d="M504.395,499.33v5.069H7.604v-5.069c0-86.604,44.326-162.866,111.525-207.324
	c35.282-23.339,76.871-37.908,121.663-40.605c5.029-0.314,10.098-0.466,15.208-0.466s10.179,0.152,15.208,0.466
	c44.792,2.697,86.381,17.266,121.663,40.605C460.068,336.464,504.395,412.726,504.395,499.33z"/>
<path style="fill:#89BF43;" d="M392.871,292.006c-35.282-23.339-76.871-37.908-121.663-40.605
	c-5.029-0.314-10.098-0.466-15.208-0.466s-10.179,0.152-15.208,0.466c-5.114,0.308-10.184,0.779-15.211,1.391
	c38.994,4.754,75.199,18.539,106.452,39.214c67.199,44.458,111.525,120.72,111.525,207.324v5.069h60.838v-5.069
	C504.395,412.726,460.068,336.464,392.871,292.006z"/>
<path d="M511.999,499.325c0-17.367-1.754-34.725-5.201-51.595c-3.366-16.435-8.385-32.596-14.914-48.047
	c-6.418-15.167-14.366-29.797-23.603-43.484c-9.165-13.555-19.679-26.3-31.267-37.888c-11.195-11.205-23.488-21.393-36.543-30.332
	v-29.668h22.783c0.009,0,0.018,0.002,0.026,0.002c0.251,0,0.505-0.015,0.757-0.041c0.058-0.006,0.113-0.017,0.17-0.024
	c0.182-0.022,0.364-0.048,0.546-0.084c0.122-0.023,0.24-0.057,0.359-0.086c0.114-0.028,0.228-0.054,0.341-0.088
	c0.15-0.045,0.296-0.099,0.442-0.152c0.068-0.024,0.137-0.044,0.205-0.071c0.016-0.006,0.029-0.014,0.045-0.02
	c0.164-0.067,0.323-0.144,0.482-0.221c0.072-0.035,0.147-0.067,0.217-0.105c0.128-0.068,0.25-0.145,0.373-0.219
	c0.096-0.058,0.195-0.113,0.287-0.173c0.076-0.052,0.148-0.108,0.222-0.162c0.13-0.094,0.261-0.187,0.383-0.287
	c0.024-0.02,0.046-0.043,0.07-0.062c0.352-0.297,0.676-0.62,0.965-0.971c0.018-0.022,0.034-0.048,0.053-0.07
	c0.133-0.164,0.261-0.332,0.378-0.506c0.106-0.156,0.202-0.32,0.296-0.485c0.025-0.044,0.055-0.084,0.079-0.129
	c0.213-0.388,0.387-0.799,0.53-1.224c0.014-0.041,0.031-0.08,0.044-0.121c0.046-0.143,0.08-0.29,0.117-0.437
	c0.024-0.097,0.054-0.194,0.075-0.292c0.021-0.102,0.034-0.207,0.052-0.31c0.025-0.148,0.052-0.296,0.068-0.447
	c0.008-0.074,0.01-0.15,0.016-0.225c0.014-0.182,0.026-0.364,0.027-0.547c0-0.015,0.002-0.03,0.002-0.046
	c0-0.059-0.007-0.116-0.009-0.173c-0.004-0.178-0.01-0.357-0.026-0.535c-0.009-0.101-0.025-0.2-0.04-0.3
	c-0.019-0.143-0.038-0.287-0.066-0.43c-0.025-0.137-0.061-0.27-0.093-0.402c-0.026-0.104-0.05-0.21-0.081-0.313
	c-0.049-0.165-0.106-0.326-0.167-0.487c-0.022-0.06-0.039-0.121-0.062-0.18l-0.05-0.125c-0.002-0.005-0.004-0.01-0.006-0.016
	l-16.078-40.199c0.043-0.006,0.085-0.02,0.128-0.027c0.268-0.042,0.531-0.097,0.789-0.167c0.036-0.01,0.073-0.013,0.109-0.023
	c0.02-0.006,0.04-0.014,0.059-0.02c0.169-0.05,0.333-0.108,0.496-0.169c0.077-0.028,0.155-0.054,0.231-0.084
	c0.144-0.059,0.282-0.125,0.42-0.193c0.092-0.045,0.187-0.085,0.276-0.133c0.107-0.058,0.21-0.122,0.313-0.184
	c0.114-0.067,0.228-0.133,0.338-0.205c0.074-0.05,0.144-0.105,0.216-0.157c0.129-0.093,0.259-0.185,0.381-0.285
	c0.056-0.046,0.107-0.096,0.162-0.144c0.13-0.113,0.259-0.225,0.38-0.345c0.06-0.06,0.114-0.124,0.17-0.185
	c0.107-0.115,0.216-0.227,0.315-0.348c0.077-0.092,0.147-0.192,0.219-0.288c0.071-0.095,0.147-0.189,0.214-0.286
	c0.089-0.13,0.168-0.267,0.249-0.403c0.043-0.071,0.088-0.139,0.128-0.212c0.083-0.15,0.155-0.305,0.228-0.461
	c0.03-0.065,0.066-0.129,0.094-0.195c0.063-0.146,0.116-0.297,0.17-0.446c0.029-0.083,0.064-0.165,0.091-0.249
	c0.041-0.126,0.071-0.255,0.105-0.384c0.03-0.116,0.064-0.23,0.089-0.347c0.021-0.101,0.035-0.206,0.053-0.308
	c0.025-0.149,0.052-0.298,0.069-0.449c0.009-0.084,0.012-0.17,0.018-0.254c0.013-0.17,0.024-0.342,0.026-0.514
	c0-0.021,0.003-0.043,0.003-0.064c0-0.07-0.008-0.138-0.01-0.208c-0.004-0.159-0.009-0.318-0.024-0.479
	c-0.011-0.126-0.03-0.248-0.048-0.372c-0.017-0.121-0.031-0.239-0.055-0.36c-0.03-0.161-0.07-0.318-0.109-0.475
	c-0.017-0.065-0.026-0.131-0.046-0.196l-20.274-70.97c-0.011-0.039-0.026-0.075-0.039-0.113c-0.043-0.14-0.09-0.278-0.141-0.414
	c-0.04-0.106-0.078-0.214-0.121-0.317c-0.047-0.112-0.099-0.222-0.152-0.332c-0.058-0.121-0.114-0.241-0.177-0.358
	c-0.048-0.089-0.101-0.174-0.152-0.261c-0.076-0.128-0.151-0.254-0.233-0.376c-0.054-0.079-0.112-0.154-0.167-0.231
	c-0.088-0.12-0.175-0.239-0.27-0.353c-0.068-0.083-0.142-0.16-0.213-0.24c-0.089-0.099-0.177-0.199-0.272-0.293
	c-0.09-0.09-0.188-0.175-0.283-0.262c-0.083-0.075-0.165-0.152-0.25-0.223c-0.109-0.091-0.226-0.174-0.341-0.26
	c-0.081-0.06-0.16-0.122-0.244-0.177c-0.117-0.079-0.237-0.15-0.359-0.223c-0.092-0.056-0.185-0.113-0.28-0.164
	c-0.109-0.059-0.222-0.112-0.336-0.166c-0.119-0.057-0.236-0.113-0.357-0.163c-0.094-0.04-0.192-0.074-0.289-0.109
	c-0.147-0.055-0.295-0.106-0.446-0.152c-0.034-0.01-0.066-0.024-0.1-0.034c-0.054-0.015-0.106-0.023-0.16-0.038
	c-0.158-0.042-0.317-0.08-0.478-0.111c-0.094-0.019-0.189-0.034-0.284-0.049c-0.147-0.022-0.295-0.043-0.445-0.057
	c-0.111-0.01-0.22-0.018-0.33-0.023c-0.132-0.007-0.264-0.011-0.396-0.01c-0.128,0-0.254,0.004-0.381,0.01
	c-0.115,0.006-0.229,0.014-0.344,0.024c-0.145,0.014-0.288,0.033-0.43,0.056c-0.099,0.015-0.199,0.031-0.298,0.051
	c-0.157,0.031-0.313,0.068-0.467,0.108c-0.055,0.014-0.109,0.022-0.164,0.039c-0.035,0.01-0.068,0.024-0.102,0.034
	c-0.149,0.046-0.295,0.096-0.44,0.15c-0.098,0.036-0.197,0.072-0.293,0.112c-0.12,0.05-0.236,0.105-0.354,0.161
	c-0.114,0.055-0.228,0.108-0.339,0.168c-0.094,0.051-0.186,0.107-0.278,0.163c-0.122,0.073-0.244,0.145-0.362,0.224
	c-0.082,0.056-0.161,0.118-0.242,0.176c-0.117,0.085-0.232,0.169-0.343,0.261c-0.085,0.071-0.166,0.147-0.249,0.221
	c-0.096,0.087-0.194,0.172-0.285,0.265c-0.093,0.093-0.18,0.193-0.27,0.291c-0.072,0.08-0.147,0.158-0.215,0.241
	c-0.093,0.114-0.18,0.232-0.268,0.352c-0.057,0.078-0.116,0.153-0.17,0.232c-0.082,0.122-0.156,0.248-0.231,0.375
	c-0.052,0.087-0.105,0.173-0.154,0.263c-0.063,0.117-0.12,0.236-0.176,0.357c-0.053,0.109-0.105,0.22-0.152,0.333
	c-0.044,0.103-0.082,0.21-0.121,0.317c-0.05,0.137-0.098,0.274-0.141,0.415c-0.012,0.038-0.027,0.074-0.039,0.113l-20.275,70.97
	c-0.019,0.065-0.028,0.131-0.046,0.196c-0.041,0.157-0.08,0.314-0.109,0.475c-0.023,0.121-0.039,0.239-0.055,0.36
	c-0.017,0.124-0.036,0.246-0.048,0.372c-0.015,0.16-0.02,0.318-0.024,0.479c-0.002,0.069-0.01,0.138-0.01,0.208
	c0,0.021,0.003,0.043,0.003,0.064c0.001,0.172,0.013,0.343,0.026,0.514c0.006,0.084,0.009,0.17,0.018,0.254
	c0.017,0.151,0.043,0.3,0.069,0.449c0.017,0.103,0.031,0.207,0.053,0.308c0.025,0.117,0.059,0.231,0.089,0.347
	c0.034,0.129,0.065,0.259,0.105,0.384c0.027,0.084,0.062,0.166,0.091,0.249c0.054,0.15,0.106,0.3,0.169,0.446
	c0.028,0.066,0.064,0.129,0.094,0.195c0.073,0.156,0.146,0.311,0.228,0.461c0.04,0.073,0.086,0.141,0.128,0.212
	c0.081,0.136,0.16,0.272,0.249,0.403c0.067,0.098,0.143,0.191,0.214,0.286c0.073,0.096,0.142,0.195,0.219,0.288
	c0.1,0.121,0.209,0.233,0.316,0.348c0.058,0.061,0.112,0.126,0.17,0.185c0.121,0.121,0.25,0.233,0.38,0.345
	c0.055,0.048,0.105,0.098,0.162,0.144c0.123,0.1,0.252,0.192,0.381,0.285c0.072,0.053,0.142,0.107,0.216,0.157
	c0.108,0.072,0.224,0.138,0.338,0.205c0.103,0.062,0.206,0.126,0.313,0.184c0.089,0.048,0.184,0.088,0.276,0.133
	c0.139,0.067,0.277,0.134,0.421,0.193c0.075,0.03,0.153,0.056,0.231,0.084c0.163,0.061,0.327,0.12,0.496,0.169
	c0.02,0.006,0.039,0.014,0.059,0.02c0.037,0.01,0.073,0.013,0.11,0.023c0.259,0.069,0.522,0.126,0.79,0.167
	c0.042,0.006,0.084,0.02,0.126,0.026l-16.078,40.2c-0.002,0.005-0.004,0.01-0.006,0.016l-0.05,0.125
	c-0.023,0.06-0.04,0.121-0.062,0.18c-0.06,0.16-0.118,0.321-0.167,0.487c-0.03,0.104-0.055,0.209-0.081,0.313
	c-0.033,0.134-0.068,0.267-0.093,0.402c-0.028,0.143-0.047,0.287-0.066,0.43c-0.013,0.1-0.029,0.2-0.04,0.3
	c-0.017,0.179-0.022,0.358-0.026,0.535c-0.001,0.059-0.009,0.115-0.009,0.173c0,0.015,0.002,0.03,0.002,0.046
	c0.001,0.184,0.013,0.365,0.027,0.547c0.006,0.075,0.008,0.15,0.016,0.225c0.016,0.15,0.043,0.298,0.068,0.447
	c0.017,0.103,0.03,0.209,0.052,0.31c0.021,0.099,0.051,0.195,0.075,0.292c0.037,0.147,0.071,0.294,0.117,0.437
	c0.013,0.042,0.03,0.08,0.044,0.121c0.143,0.425,0.318,0.836,0.53,1.224c0.024,0.045,0.054,0.085,0.079,0.129
	c0.094,0.165,0.19,0.329,0.296,0.485c0.118,0.174,0.245,0.342,0.378,0.506c0.018,0.023,0.034,0.048,0.053,0.07
	c0.289,0.351,0.612,0.674,0.965,0.971c0.023,0.02,0.046,0.043,0.07,0.062c0.123,0.1,0.253,0.193,0.382,0.287
	c0.074,0.054,0.146,0.111,0.222,0.162c0.092,0.062,0.191,0.116,0.287,0.173c0.123,0.075,0.245,0.151,0.373,0.219
	c0.071,0.038,0.145,0.069,0.217,0.105c0.158,0.078,0.317,0.154,0.482,0.221c0.015,0.006,0.029,0.014,0.045,0.02
	c0.068,0.027,0.137,0.046,0.205,0.071c0.146,0.054,0.292,0.107,0.442,0.152c0.114,0.033,0.227,0.06,0.341,0.088
	c0.12,0.029,0.237,0.063,0.359,0.086c0.182,0.036,0.364,0.061,0.546,0.084c0.058,0.007,0.113,0.018,0.17,0.024
	c0.253,0.025,0.506,0.041,0.757,0.041c0.009,0,0.018-0.002,0.026-0.002h22.783v20.026c-9.552-5.596-19.457-10.59-29.612-14.887
	c-15.451-6.539-31.622-11.558-48.057-14.924c-9.468-1.934-19.093-3.315-28.783-4.173v-36.51h43.065c0.009,0,0.018,0.002,0.027,0.002
	c0.404,0,0.809-0.043,1.215-0.108c0.108-0.017,0.219-0.029,0.325-0.051c0.053-0.011,0.105-0.028,0.158-0.041
	c0.206-0.048,0.41-0.098,0.608-0.161c0.043-0.014,0.084-0.032,0.127-0.047c0.208-0.07,0.413-0.147,0.611-0.234
	c0.013-0.006,0.026-0.009,0.041-0.015c0.056-0.024,0.105-0.056,0.161-0.081c0.158-0.075,0.315-0.151,0.467-0.236
	c0.093-0.053,0.181-0.109,0.272-0.165c0.116-0.072,0.232-0.143,0.344-0.22c0.111-0.077,0.215-0.158,0.32-0.24
	c0.085-0.066,0.171-0.131,0.253-0.201c0.113-0.095,0.219-0.195,0.325-0.295c0.071-0.067,0.142-0.134,0.21-0.203
	c0.101-0.104,0.198-0.213,0.293-0.322c0.067-0.078,0.135-0.154,0.199-0.235c0.083-0.104,0.161-0.211,0.238-0.319
	c0.069-0.095,0.137-0.191,0.201-0.289c0.063-0.097,0.122-0.197,0.179-0.296c0.069-0.117,0.136-0.233,0.198-0.354
	c0.046-0.089,0.088-0.18,0.131-0.272c0.063-0.133,0.124-0.267,0.177-0.404c0.035-0.088,0.067-0.178,0.098-0.269
	c0.05-0.14,0.098-0.28,0.14-0.424c0.029-0.101,0.054-0.204,0.079-0.305c0.032-0.132,0.066-0.264,0.09-0.398
	c0.024-0.13,0.043-0.261,0.06-0.391c0.015-0.109,0.032-0.219,0.043-0.329c0.015-0.167,0.021-0.337,0.025-0.505
	c0.002-0.065,0.01-0.129,0.01-0.194c0-0.016-0.002-0.031-0.002-0.047c-0.001-0.18-0.013-0.36-0.027-0.541
	c-0.006-0.075-0.007-0.152-0.015-0.227c-0.016-0.148-0.044-0.296-0.068-0.444c-0.018-0.106-0.031-0.215-0.054-0.319
	c-0.021-0.099-0.051-0.198-0.076-0.296c-0.039-0.152-0.076-0.304-0.124-0.453c-0.021-0.064-0.048-0.129-0.071-0.193
	c-0.063-0.177-0.127-0.354-0.203-0.525c-0.006-0.013-0.01-0.027-0.016-0.042l-35.802-80.558h8.555c0.009,0,0.018,0.002,0.027,0.002
	c0.391,0,0.785-0.041,1.178-0.103c0.124-0.019,0.248-0.033,0.369-0.059c0.07-0.015,0.139-0.038,0.209-0.054
	c0.19-0.045,0.378-0.092,0.562-0.151c0.058-0.018,0.114-0.043,0.17-0.063c0.195-0.067,0.386-0.14,0.574-0.222
	c0.018-0.008,0.037-0.013,0.054-0.021c0.058-0.026,0.111-0.059,0.168-0.085c0.15-0.072,0.299-0.146,0.444-0.228
	c0.095-0.054,0.186-0.112,0.278-0.168c0.114-0.071,0.227-0.142,0.337-0.218c0.108-0.076,0.214-0.156,0.318-0.237
	c0.086-0.067,0.171-0.133,0.254-0.204c0.111-0.094,0.217-0.193,0.321-0.292c0.071-0.068,0.143-0.136,0.211-0.207
	c0.101-0.104,0.197-0.212,0.291-0.32c0.068-0.078,0.135-0.156,0.2-0.237c0.083-0.104,0.162-0.211,0.239-0.319
	c0.069-0.096,0.136-0.192,0.2-0.291c0.064-0.098,0.123-0.198,0.181-0.299c0.067-0.116,0.134-0.232,0.195-0.353
	c0.047-0.091,0.09-0.184,0.133-0.276c0.061-0.132,0.121-0.265,0.173-0.4c0.036-0.09,0.068-0.182,0.1-0.275
	c0.049-0.138,0.095-0.276,0.136-0.418c0.029-0.102,0.055-0.207,0.08-0.31c0.031-0.13,0.063-0.261,0.087-0.393
	c0.024-0.129,0.042-0.259,0.06-0.388c0.014-0.109,0.03-0.219,0.041-0.331c0.015-0.162,0.02-0.325,0.024-0.489
	c0.002-0.066,0.01-0.13,0.01-0.195c0-0.021-0.003-0.042-0.003-0.063c-0.001-0.171-0.013-0.344-0.026-0.516
	c-0.006-0.083-0.009-0.168-0.018-0.251c-0.016-0.146-0.042-0.291-0.066-0.437c-0.019-0.109-0.033-0.22-0.057-0.328
	c-0.022-0.105-0.054-0.211-0.082-0.317c-0.038-0.145-0.074-0.29-0.121-0.433c-0.024-0.076-0.056-0.151-0.083-0.228
	c-0.06-0.166-0.122-0.331-0.193-0.491c-0.008-0.018-0.013-0.038-0.021-0.056L262.932,4.48c-0.018-0.039-0.041-0.075-0.058-0.114
	c-0.06-0.127-0.126-0.251-0.192-0.375c-0.054-0.1-0.106-0.2-0.164-0.297c-0.067-0.113-0.141-0.221-0.214-0.332
	c-0.067-0.099-0.132-0.2-0.203-0.296c-0.073-0.098-0.152-0.194-0.231-0.288c-0.08-0.097-0.158-0.196-0.242-0.288
	c-0.08-0.088-0.165-0.171-0.249-0.255c-0.091-0.09-0.18-0.182-0.275-0.269c-0.086-0.078-0.178-0.151-0.269-0.226
	c-0.102-0.083-0.203-0.168-0.308-0.246c-0.09-0.066-0.186-0.129-0.279-0.192c-0.115-0.077-0.229-0.154-0.348-0.225
	c-0.092-0.055-0.188-0.105-0.283-0.157c-0.129-0.069-0.258-0.138-0.389-0.199c-0.038-0.018-0.071-0.039-0.109-0.056
	c-0.063-0.028-0.127-0.048-0.191-0.075c-0.129-0.054-0.258-0.105-0.389-0.152c-0.115-0.042-0.229-0.077-0.345-0.113
	c-0.118-0.035-0.236-0.069-0.356-0.099c-0.127-0.031-0.254-0.06-0.381-0.085c-0.113-0.022-0.225-0.042-0.339-0.059
	c-0.132-0.019-0.264-0.036-0.395-0.049c-0.115-0.011-0.229-0.019-0.344-0.025c-0.129-0.006-0.258-0.01-0.385-0.009
	c-0.122,0-0.242,0.003-0.364,0.009c-0.123,0.006-0.243,0.014-0.365,0.026c-0.125,0.012-0.25,0.028-0.376,0.047
	c-0.12,0.018-0.238,0.039-0.357,0.062c-0.122,0.023-0.243,0.051-0.364,0.081c-0.126,0.031-0.249,0.066-0.373,0.104
	c-0.111,0.033-0.22,0.068-0.329,0.106c-0.136,0.049-0.269,0.101-0.401,0.157c-0.062,0.025-0.125,0.045-0.186,0.072
	c-0.036,0.016-0.07,0.038-0.106,0.055c-0.134,0.063-0.266,0.132-0.396,0.203c-0.092,0.051-0.187,0.099-0.277,0.153
	c-0.121,0.072-0.237,0.15-0.355,0.229c-0.091,0.062-0.185,0.123-0.273,0.188c-0.107,0.079-0.21,0.165-0.313,0.25
	c-0.088,0.073-0.178,0.145-0.264,0.222c-0.096,0.087-0.187,0.18-0.279,0.272c-0.083,0.083-0.167,0.165-0.246,0.252
	c-0.085,0.093-0.164,0.193-0.244,0.291c-0.077,0.094-0.156,0.188-0.228,0.286c-0.072,0.096-0.138,0.197-0.205,0.297
	c-0.073,0.108-0.146,0.217-0.213,0.33c-0.058,0.097-0.111,0.198-0.165,0.297c-0.067,0.124-0.132,0.247-0.192,0.375
	c-0.018,0.039-0.041,0.074-0.058,0.114l-45.624,101.389c-0.008,0.018-0.014,0.038-0.021,0.056c-0.071,0.16-0.132,0.325-0.192,0.491
	c-0.027,0.076-0.059,0.151-0.083,0.228c-0.046,0.143-0.083,0.288-0.121,0.433c-0.027,0.105-0.059,0.211-0.082,0.317
	c-0.023,0.108-0.039,0.219-0.057,0.328c-0.024,0.146-0.051,0.291-0.066,0.437c-0.009,0.083-0.012,0.168-0.018,0.251
	c-0.013,0.172-0.024,0.345-0.026,0.516c0,0.021-0.003,0.042-0.003,0.063c0,0.066,0.008,0.13,0.01,0.195
	c0.004,0.163,0.01,0.326,0.024,0.489c0.01,0.111,0.026,0.22,0.041,0.331c0.018,0.13,0.035,0.26,0.06,0.388
	c0.024,0.133,0.056,0.264,0.087,0.393c0.025,0.103,0.05,0.208,0.08,0.31c0.041,0.141,0.087,0.28,0.136,0.418
	c0.032,0.092,0.064,0.184,0.1,0.275c0.054,0.136,0.113,0.269,0.173,0.4c0.043,0.093,0.086,0.186,0.133,0.276
	c0.062,0.12,0.128,0.236,0.195,0.353c0.059,0.101,0.119,0.201,0.181,0.299c0.064,0.099,0.131,0.195,0.2,0.291
	c0.077,0.108,0.156,0.215,0.239,0.319c0.064,0.082,0.132,0.159,0.2,0.237c0.094,0.108,0.191,0.216,0.291,0.32
	c0.069,0.071,0.14,0.139,0.212,0.207c0.105,0.099,0.211,0.198,0.321,0.292c0.083,0.07,0.169,0.137,0.254,0.204
	c0.104,0.081,0.209,0.162,0.317,0.237c0.109,0.077,0.223,0.147,0.338,0.218c0.092,0.057,0.182,0.115,0.278,0.168
	c0.145,0.081,0.294,0.155,0.444,0.228c0.058,0.027,0.109,0.06,0.168,0.085c0.018,0.008,0.036,0.013,0.054,0.021
	c0.188,0.082,0.379,0.154,0.574,0.222c0.057,0.02,0.114,0.045,0.171,0.063c0.184,0.06,0.372,0.106,0.562,0.151
	c0.069,0.016,0.139,0.039,0.209,0.054c0.122,0.025,0.246,0.039,0.369,0.059c0.393,0.062,0.786,0.103,1.178,0.103
	c0.009,0,0.018-0.002,0.027-0.002h8.554l-35.802,80.558c-0.006,0.014-0.01,0.027-0.016,0.042c-0.075,0.171-0.14,0.348-0.203,0.525
	c-0.023,0.064-0.05,0.129-0.071,0.193c-0.048,0.148-0.085,0.301-0.124,0.453c-0.025,0.098-0.055,0.197-0.076,0.296
	c-0.021,0.105-0.035,0.213-0.054,0.319c-0.024,0.148-0.052,0.296-0.068,0.444c-0.008,0.075-0.009,0.152-0.015,0.227
	c-0.014,0.18-0.026,0.361-0.027,0.541c0,0.016-0.002,0.031-0.002,0.047c0,0.065,0.008,0.129,0.01,0.194
	c0.004,0.168,0.01,0.338,0.025,0.505c0.01,0.111,0.027,0.22,0.043,0.329c0.018,0.131,0.035,0.262,0.06,0.391
	c0.025,0.135,0.058,0.267,0.09,0.398c0.025,0.102,0.049,0.205,0.079,0.305c0.042,0.144,0.09,0.284,0.14,0.424
	c0.032,0.09,0.063,0.179,0.098,0.269c0.055,0.137,0.116,0.271,0.177,0.404c0.043,0.091,0.084,0.182,0.131,0.272
	c0.062,0.12,0.129,0.236,0.198,0.354c0.058,0.099,0.117,0.199,0.179,0.296c0.064,0.098,0.132,0.194,0.201,0.289
	c0.077,0.107,0.155,0.215,0.238,0.319c0.064,0.08,0.132,0.157,0.199,0.235c0.095,0.109,0.192,0.218,0.293,0.322
	c0.068,0.069,0.139,0.136,0.21,0.203c0.105,0.1,0.213,0.2,0.325,0.295c0.082,0.07,0.168,0.135,0.253,0.201
	c0.105,0.082,0.211,0.163,0.32,0.24c0.112,0.078,0.228,0.148,0.344,0.22c0.09,0.056,0.178,0.113,0.273,0.165
	c0.152,0.085,0.309,0.161,0.466,0.236c0.055,0.025,0.105,0.057,0.161,0.081c0.013,0.006,0.026,0.009,0.041,0.015
	c0.199,0.087,0.402,0.163,0.61,0.233c0.043,0.014,0.085,0.033,0.128,0.047c0.197,0.063,0.398,0.113,0.603,0.16
	c0.055,0.012,0.108,0.03,0.163,0.043c0.104,0.021,0.212,0.032,0.318,0.05c0.408,0.067,0.816,0.109,1.222,0.109
	c0.009,0,0.018-0.002,0.027-0.002h43.066v36.503c-11.513,1.018-22.933,2.792-34.137,5.336c-0.061,0.02-0.112,0.03-0.162,0.041
	c-15.471,3.528-30.69,8.537-45.238,14.883c-9.207,4.022-18.212,8.621-26.919,13.722v-20.017h22.783c0.009,0,0.018,0.002,0.026,0.002
	c0.251,0,0.504-0.015,0.757-0.041c0.058-0.006,0.113-0.017,0.17-0.024c0.182-0.022,0.364-0.048,0.546-0.084
	c0.122-0.023,0.24-0.057,0.36-0.086c0.114-0.028,0.228-0.054,0.341-0.088c0.15-0.045,0.296-0.099,0.442-0.152
	c0.068-0.024,0.137-0.044,0.205-0.071c0.016-0.006,0.029-0.014,0.045-0.02c0.164-0.067,0.323-0.144,0.482-0.221
	c0.072-0.035,0.147-0.067,0.217-0.105c0.128-0.068,0.25-0.145,0.373-0.219c0.096-0.058,0.195-0.113,0.287-0.173
	c0.076-0.052,0.147-0.108,0.222-0.162c0.13-0.094,0.261-0.187,0.382-0.287c0.024-0.02,0.047-0.043,0.07-0.062
	c0.352-0.297,0.676-0.62,0.965-0.971c0.018-0.022,0.034-0.048,0.053-0.07c0.133-0.164,0.261-0.332,0.378-0.506
	c0.106-0.156,0.202-0.32,0.296-0.485c0.025-0.044,0.055-0.084,0.079-0.129c0.212-0.388,0.387-0.799,0.53-1.224
	c0.014-0.041,0.031-0.08,0.045-0.121c0.046-0.143,0.08-0.29,0.117-0.437c0.024-0.097,0.054-0.194,0.075-0.292
	c0.021-0.102,0.034-0.207,0.052-0.31c0.025-0.148,0.052-0.296,0.068-0.447c0.008-0.074,0.01-0.15,0.016-0.225
	c0.014-0.182,0.026-0.364,0.027-0.547c0.001-0.015,0.002-0.03,0.002-0.046c0-0.059-0.007-0.116-0.009-0.173
	c-0.004-0.178-0.01-0.357-0.026-0.535c-0.009-0.101-0.025-0.2-0.04-0.3c-0.019-0.143-0.038-0.287-0.066-0.43
	c-0.025-0.137-0.061-0.27-0.093-0.403c-0.026-0.104-0.05-0.21-0.081-0.313c-0.049-0.165-0.107-0.326-0.167-0.487
	c-0.022-0.06-0.039-0.121-0.062-0.18l-0.05-0.125c-0.002-0.005-0.004-0.01-0.006-0.016l-16.078-40.199
	c0.043-0.006,0.085-0.02,0.128-0.027c0.268-0.042,0.531-0.097,0.789-0.167c0.036-0.01,0.073-0.013,0.109-0.023
	c0.02-0.006,0.04-0.014,0.059-0.02c0.169-0.05,0.333-0.108,0.496-0.169c0.077-0.028,0.155-0.054,0.231-0.084
	c0.144-0.059,0.282-0.125,0.421-0.193c0.092-0.045,0.187-0.085,0.276-0.133c0.107-0.058,0.209-0.122,0.312-0.184
	c0.114-0.067,0.228-0.133,0.338-0.205c0.074-0.05,0.144-0.105,0.216-0.157c0.129-0.093,0.259-0.185,0.381-0.285
	c0.056-0.046,0.107-0.096,0.162-0.144c0.129-0.113,0.259-0.225,0.379-0.345c0.06-0.06,0.114-0.124,0.171-0.185
	c0.107-0.115,0.216-0.227,0.316-0.348c0.077-0.092,0.147-0.192,0.219-0.288c0.071-0.095,0.147-0.189,0.214-0.286
	c0.089-0.13,0.168-0.267,0.249-0.402c0.043-0.071,0.088-0.139,0.128-0.212c0.083-0.15,0.155-0.305,0.228-0.461
	c0.03-0.065,0.065-0.129,0.094-0.195c0.063-0.146,0.116-0.297,0.169-0.446c0.029-0.083,0.064-0.165,0.091-0.249
	c0.04-0.126,0.071-0.255,0.105-0.384c0.03-0.116,0.064-0.23,0.089-0.347c0.021-0.101,0.035-0.206,0.053-0.308
	c0.025-0.149,0.052-0.298,0.069-0.449c0.009-0.084,0.012-0.17,0.018-0.254c0.013-0.17,0.024-0.342,0.026-0.514
	c0-0.021,0.003-0.043,0.003-0.064c0-0.07-0.008-0.138-0.01-0.208c-0.004-0.159-0.009-0.318-0.024-0.479
	c-0.011-0.126-0.03-0.248-0.048-0.372c-0.017-0.121-0.031-0.239-0.055-0.36c-0.03-0.161-0.07-0.318-0.109-0.475
	c-0.017-0.065-0.026-0.131-0.046-0.196l-20.275-70.97c-0.011-0.039-0.026-0.074-0.039-0.113c-0.043-0.141-0.091-0.279-0.142-0.416
	c-0.039-0.105-0.077-0.212-0.12-0.315c-0.048-0.114-0.101-0.224-0.154-0.335c-0.057-0.12-0.113-0.238-0.174-0.354
	c-0.05-0.091-0.104-0.179-0.157-0.269c-0.074-0.125-0.147-0.248-0.228-0.368c-0.056-0.082-0.117-0.161-0.176-0.241
	c-0.085-0.116-0.169-0.232-0.261-0.343c-0.072-0.087-0.15-0.169-0.226-0.254c-0.085-0.093-0.168-0.189-0.258-0.278
	c-0.096-0.097-0.2-0.188-0.302-0.28c-0.077-0.069-0.151-0.14-0.231-0.205c-0.117-0.097-0.239-0.187-0.363-0.276
	c-0.074-0.055-0.146-0.109-0.221-0.161c-0.124-0.083-0.251-0.159-0.38-0.235c-0.086-0.051-0.171-0.104-0.259-0.151
	c-0.116-0.063-0.235-0.119-0.354-0.175c-0.113-0.054-0.224-0.106-0.339-0.155c-0.099-0.042-0.202-0.078-0.303-0.116
	c-0.143-0.053-0.286-0.103-0.432-0.148c-0.035-0.011-0.069-0.025-0.104-0.035c-0.056-0.016-0.111-0.024-0.167-0.039
	c-0.155-0.041-0.311-0.078-0.468-0.108c-0.096-0.019-0.192-0.034-0.288-0.05c-0.147-0.023-0.294-0.043-0.443-0.057
	c-0.111-0.01-0.22-0.018-0.331-0.023c-0.132-0.007-0.264-0.011-0.396-0.01c-0.128,0-0.254,0.004-0.381,0.01
	c-0.115,0.006-0.229,0.014-0.344,0.024c-0.145,0.014-0.289,0.033-0.432,0.056c-0.098,0.015-0.196,0.031-0.293,0.051
	c-0.16,0.031-0.318,0.069-0.476,0.111c-0.053,0.014-0.105,0.021-0.158,0.036c-0.033,0.01-0.065,0.023-0.098,0.033
	c-0.154,0.046-0.305,0.099-0.455,0.155c-0.093,0.034-0.187,0.067-0.278,0.105c-0.126,0.053-0.249,0.112-0.372,0.17
	c-0.107,0.052-0.216,0.102-0.32,0.159c-0.101,0.055-0.2,0.116-0.298,0.174c-0.115,0.069-0.23,0.137-0.341,0.211
	c-0.09,0.061-0.176,0.128-0.265,0.193c-0.108,0.08-0.218,0.159-0.321,0.244c-0.092,0.076-0.18,0.159-0.27,0.239
	c-0.089,0.081-0.18,0.16-0.266,0.245c-0.099,0.098-0.192,0.204-0.285,0.308c-0.067,0.075-0.137,0.148-0.201,0.226
	c-0.096,0.117-0.187,0.24-0.276,0.363c-0.055,0.074-0.111,0.146-0.162,0.222c-0.083,0.124-0.159,0.251-0.235,0.38
	c-0.051,0.086-0.103,0.17-0.151,0.258c-0.064,0.117-0.12,0.237-0.177,0.359c-0.053,0.109-0.104,0.219-0.152,0.332
	c-0.044,0.103-0.082,0.21-0.121,0.317c-0.05,0.137-0.098,0.274-0.141,0.415c-0.012,0.038-0.027,0.074-0.039,0.113l-20.275,70.97
	c-0.019,0.065-0.028,0.131-0.046,0.196c-0.04,0.157-0.08,0.314-0.109,0.475c-0.023,0.121-0.039,0.239-0.055,0.36
	c-0.017,0.124-0.037,0.246-0.048,0.372c-0.015,0.16-0.02,0.318-0.024,0.479c-0.002,0.069-0.01,0.138-0.01,0.208
	c0,0.021,0.003,0.043,0.003,0.064c0.001,0.172,0.013,0.343,0.026,0.514c0.006,0.084,0.009,0.17,0.018,0.254
	c0.017,0.151,0.043,0.3,0.069,0.449c0.017,0.103,0.031,0.207,0.053,0.308c0.025,0.117,0.059,0.231,0.089,0.347
	c0.034,0.129,0.066,0.259,0.105,0.384c0.027,0.084,0.062,0.166,0.091,0.249c0.054,0.15,0.106,0.3,0.17,0.446
	c0.028,0.066,0.064,0.129,0.094,0.195c0.073,0.156,0.146,0.311,0.228,0.461c0.04,0.073,0.086,0.141,0.128,0.212
	c0.081,0.136,0.16,0.272,0.249,0.403c0.067,0.098,0.143,0.191,0.214,0.286c0.073,0.096,0.142,0.195,0.219,0.288
	c0.1,0.121,0.209,0.233,0.316,0.348c0.058,0.061,0.112,0.126,0.17,0.185c0.121,0.121,0.25,0.233,0.379,0.345
	c0.055,0.048,0.105,0.098,0.162,0.144c0.123,0.1,0.252,0.192,0.381,0.285c0.072,0.053,0.142,0.107,0.216,0.157
	c0.108,0.072,0.224,0.138,0.337,0.205c0.103,0.062,0.206,0.126,0.313,0.184c0.089,0.048,0.184,0.088,0.276,0.133
	c0.139,0.067,0.277,0.134,0.421,0.193c0.075,0.03,0.153,0.056,0.231,0.084c0.163,0.061,0.327,0.12,0.496,0.169
	c0.02,0.006,0.039,0.014,0.059,0.02c0.036,0.01,0.073,0.013,0.109,0.023c0.259,0.069,0.522,0.126,0.79,0.167
	c0.042,0.006,0.083,0.02,0.126,0.026l-16.078,40.2c-0.002,0.005-0.004,0.01-0.006,0.016l-0.05,0.125
	c-0.023,0.06-0.04,0.121-0.062,0.18c-0.06,0.16-0.118,0.321-0.167,0.487c-0.03,0.104-0.055,0.209-0.081,0.313
	c-0.033,0.134-0.068,0.267-0.093,0.403c-0.028,0.143-0.047,0.287-0.066,0.43c-0.013,0.1-0.029,0.2-0.04,0.3
	c-0.017,0.179-0.022,0.358-0.026,0.535c-0.001,0.059-0.009,0.115-0.009,0.173c0,0.015,0.002,0.03,0.003,0.046
	c0.001,0.184,0.013,0.365,0.027,0.547c0.006,0.075,0.008,0.15,0.016,0.225c0.016,0.15,0.043,0.298,0.068,0.447
	c0.017,0.103,0.03,0.209,0.052,0.31c0.021,0.099,0.051,0.195,0.075,0.292c0.038,0.147,0.071,0.294,0.117,0.437
	c0.013,0.042,0.03,0.08,0.044,0.121c0.143,0.425,0.318,0.836,0.53,1.224c0.024,0.045,0.054,0.085,0.079,0.129
	c0.094,0.165,0.19,0.328,0.296,0.485c0.118,0.174,0.245,0.342,0.378,0.506c0.018,0.023,0.034,0.048,0.053,0.07
	c0.289,0.351,0.612,0.674,0.965,0.971c0.023,0.02,0.046,0.043,0.07,0.062c0.123,0.1,0.252,0.193,0.382,0.287
	c0.074,0.054,0.146,0.111,0.222,0.162c0.092,0.062,0.191,0.116,0.287,0.173c0.123,0.075,0.245,0.151,0.373,0.219
	c0.071,0.038,0.145,0.069,0.217,0.105c0.158,0.078,0.317,0.154,0.482,0.221c0.015,0.006,0.029,0.014,0.046,0.02
	c0.068,0.027,0.137,0.046,0.205,0.071c0.146,0.054,0.292,0.107,0.442,0.152c0.114,0.033,0.227,0.06,0.341,0.088
	c0.12,0.029,0.237,0.063,0.359,0.086c0.182,0.036,0.364,0.061,0.546,0.084c0.058,0.007,0.113,0.018,0.17,0.024
	c0.252,0.025,0.506,0.041,0.757,0.041c0.009,0,0.018-0.002,0.026-0.002h22.783v29.664c-12.439,8.523-24.194,18.188-34.957,28.763
	c-11.071,10.879-21.2,22.822-30.112,35.495c-2.413,3.427-1.592,8.182,1.845,10.595c1.288,0.902,2.798,1.389,4.37,1.389
	c2.474,0,4.796-1.217,6.225-3.234v-0.01c8.395-11.933,17.935-23.177,28.358-33.417s21.838-19.588,33.924-27.77
	c12.197-8.253,25.205-15.421,38.669-21.291c13.687-5.972,28.013-10.676,42.572-13.981c17.469-3.964,35.495-5.982,53.582-5.982
	c16.343,0,32.677,1.653,48.533,4.897c15.461,3.163,30.669,7.878,45.198,14.022c14.255,6.032,28.023,13.505,40.889,22.204
	c12.754,8.618,24.738,18.503,35.647,29.412c10.899,10.899,20.794,22.893,29.402,35.637c8.699,12.876,16.171,26.634,22.203,40.899
	c6.144,14.528,10.869,29.726,14.032,45.188c3.077,15.048,4.694,30.506,4.855,46.002H15.227c0.2-19.23,2.66-38.326,7.341-56.789
	c4.745-18.716,11.761-36.854,20.875-53.927c1.977-3.69,0.578-8.314-3.123-10.291c-1.105-0.588-2.332-0.892-3.579-0.892
	c-2.808,0-5.384,1.541-6.712,4.025c-9.692,18.138-17.155,37.432-22.204,57.344C2.636,456.772,0,477.992,0,499.324v0.001v0.001v5.069
	c0,4.199,3.405,7.604,7.604,7.604h496.791c4.199,0,7.604-3.405,7.604-7.604v-5.069v0.001
	C511.999,499.326,511.999,499.326,511.999,499.325z M392.868,156.727l10.194,35.685h-20.389L392.868,156.727z M387.879,207.619
	h9.976l14.192,35.484h-38.361L387.879,207.619z M119.128,156.727l10.194,35.685h-20.389L119.128,156.727z M114.139,207.619h9.976
	l14.193,35.484H99.946L114.139,207.619z M230.8,101.385c-0.005,0-0.011,0-0.017,0h-8.647l33.863-75.256l33.864,75.256h-8.635
	c-0.012,0-0.023,0-0.035,0H230.8z M276.404,116.593l33.795,76.042h-108.4l33.795-76.042
	C235.594,116.593,276.404,116.593,276.404,116.593z M248.396,243.442v-35.599h15.208v35.606c-2.534-0.075-5.068-0.124-7.604-0.124
	C253.463,243.325,250.928,243.368,248.396,243.442z"/>
<path d="M73.503,461.308c1.947,0,3.892-0.742,5.376-2.227l10.139-10.139c2.97-2.97,2.97-7.784,0-10.754s-7.784-2.97-10.753,0
	l-4.762,4.762l-4.762-4.762c-2.97-2.97-7.784-2.97-10.753,0c-2.97,2.97-2.97,7.784,0,10.754l10.139,10.139
	C69.611,460.566,71.556,461.308,73.503,461.308z"/>
<path d="M149.234,448.942l10.139,10.139c1.484,1.484,3.431,2.227,5.376,2.227c1.946,0,3.892-0.742,5.376-2.227l10.139-10.139
	c2.97-2.97,2.97-7.784,0-10.754c-2.97-2.97-7.784-2.97-10.754,0l-4.762,4.762l-4.762-4.762c-2.97-2.97-7.784-2.97-10.754,0
	C146.265,441.159,146.265,445.974,149.234,448.942z"/>
<path d="M240.481,448.942l10.139,10.139c1.484,1.484,3.431,2.227,5.376,2.227c1.946,0,3.892-0.742,5.376-2.227l10.139-10.139
	c2.97-2.97,2.97-7.784,0-10.754s-7.784-2.97-10.753,0l-4.762,4.762l-4.762-4.762c-2.97-2.97-7.784-2.97-10.754,0
	C237.512,441.159,237.512,445.974,240.481,448.942z"/>
<path d="M331.729,448.942l10.139,10.139c1.484,1.484,3.431,2.227,5.376,2.227c1.946,0,3.892-0.742,5.376-2.227l10.139-10.139
	c2.97-2.97,2.97-7.784,0-10.754s-7.784-2.97-10.753,0l-4.762,4.762l-4.762-4.762c-2.97-2.97-7.784-2.97-10.753,0
	C328.759,441.159,328.759,445.974,331.729,448.942z"/>
<path d="M438.492,461.308c1.946,0,3.892-0.742,5.376-2.227l10.139-10.139c2.97-2.97,2.97-7.784,0-10.754s-7.784-2.97-10.753,0
	l-4.762,4.762l-4.762-4.762c-2.97-2.97-7.784-2.97-10.753,0c-2.97,2.97-2.97,7.784,0,10.754l10.139,10.139
	C434.6,460.566,436.546,461.308,438.492,461.308z"/>
<path d="M159.373,317.138c1.484,1.484,3.431,2.227,5.376,2.227c1.946,0,3.892-0.742,5.376-2.227L180.264,307
	c2.97-2.97,2.97-7.784,0-10.753c-2.97-2.97-7.784-2.97-10.754,0l-4.762,4.762l-4.762-4.762c-2.97-2.97-7.784-2.97-10.754,0
	c-2.97,2.97-2.97,7.784,0,10.753L159.373,317.138z"/>
<path d="M250.62,317.138c1.484,1.484,3.431,2.227,5.376,2.227c1.946,0,3.892-0.742,5.376-2.227L271.512,307
	c2.97-2.97,2.97-7.784,0-10.753c-2.97-2.97-7.784-2.97-10.753,0l-4.762,4.762l-4.762-4.762c-2.97-2.97-7.784-2.97-10.754,0
	c-2.97,2.97-2.97,7.784,0,10.753L250.62,317.138z"/>
<path d="M341.867,317.138c1.484,1.484,3.431,2.227,5.376,2.227c1.946,0,3.892-0.742,5.376-2.227L362.759,307
	c2.97-2.97,2.97-7.784,0-10.753c-2.97-2.97-7.784-2.97-10.753,0l-4.762,4.762l-4.762-4.762c-2.97-2.97-7.784-2.97-10.753,0
	c-2.97,2.97-2.97,7.784,0,10.753L341.867,317.138z"/>
<path d="M119.129,390.338c1.946,0,3.892-0.742,5.376-2.227l10.139-10.139c2.97-2.97,2.97-7.784,0-10.754
	c-2.97-2.97-7.784-2.97-10.753,0l-4.762,4.762l-4.762-4.762c-2.97-2.97-7.784-2.97-10.753,0c-2.97,2.97-2.97,7.784,0,10.754
	l10.139,10.139C115.236,389.596,117.182,390.338,119.129,390.338z"/>
<path d="M210.376,390.338c1.946,0,3.892-0.742,5.376-2.227l10.139-10.139c2.97-2.97,2.97-7.784,0-10.754
	c-2.97-2.97-7.784-2.97-10.753,0l-4.762,4.762l-4.762-4.762c-2.97-2.97-7.784-2.97-10.753,0c-2.97,2.97-2.97,7.784,0,10.754
	l10.139,10.139C206.484,389.596,208.429,390.338,210.376,390.338z"/>
<path d="M301.623,390.338c1.946,0,3.892-0.742,5.376-2.227l10.139-10.139c2.97-2.97,2.97-7.784,0-10.754s-7.784-2.97-10.753,0
	l-4.762,4.762l-4.762-4.762c-2.97-2.97-7.784-2.97-10.753,0c-2.97,2.97-2.97,7.784,0,10.754l10.139,10.139
	C297.731,389.596,299.677,390.338,301.623,390.338z"/>
<path d="M392.871,390.338c1.946,0,3.892-0.742,5.376-2.227l10.139-10.139c2.97-2.97,2.97-7.784,0-10.754s-7.784-2.97-10.753,0
	l-4.762,4.762l-4.762-4.762c-2.97-2.97-7.784-2.97-10.753,0c-2.97,2.97-2.97,7.784,0,10.754l10.139,10.139
	C388.978,389.596,390.924,390.338,392.871,390.338z"/>
<g>
</g>
<g>
</g>
<g>
</g>
<g>
</g>
<g>
</g>
<g>
</g>
<g>
</g>
<g>
</g>
<g>
</g>
<g>
</g>
<g>
</g>
<g>
</g>
<g>
</g>
<g>
</g>
<g>
</g>
</svg>
