<?xml version="1.0" encoding="iso-8859-1"?>
<!-- Generator: Adobe Illustrator 19.0.0, SVG Export Plug-In . SVG Version: 6.00 Build 0)  -->
<svg version="1.1" id="Capa_1" xmlns="http://www.w3.org/2000/svg" xmlns:xlink="http://www.w3.org/1999/xlink" x="0px" y="0px"
	 viewBox="0 0 512.002 512.002" style="enable-background:new 0 0 512.002 512.002;" xml:space="preserve">
<path style="fill:#A0D860;" d="M366.748,204.876c0.1,0.121,0.209,0.233,0.316,0.348c0.058,0.062,0.112,0.126,0.17,0.186
	c0.121,0.12,0.25,0.233,0.38,0.345c0.055,0.048,0.105,0.099,0.162,0.145c0.123,0.1,0.252,0.192,0.381,0.285
	c0.072,0.053,0.142,0.107,0.216,0.157c0.108,0.072,0.224,0.138,0.338,0.205c0.103,0.062,0.206,0.126,0.313,0.184
	c0.089,0.048,0.184,0.088,0.276,0.133c0.139,0.067,0.277,0.134,0.421,0.192c0.075,0.03,0.153,0.057,0.231,0.085
	c0.163,0.061,0.327,0.119,0.496,0.169c0.02,0.006,0.039,0.014,0.059,0.02c0.036,0.01,0.073,0.013,0.109,0.022
	c0.258,0.069,0.521,0.125,0.789,0.167c0.085,0.014,0.17,0.028,0.257,0.04c0.277,0.033,0.558,0.055,0.844,0.059
	c0.031,0,0.063,0.006,0.094,0.006c0.008,0,0.016-0.002,0.024-0.002h40.492c0.008,0,0.016,0.002,0.024,0.002
	c0.031,0,0.063-0.006,0.094-0.006c0.286-0.004,0.567-0.024,0.844-0.059c0.085-0.011,0.17-0.025,0.254-0.04
	c0.269-0.042,0.531-0.098,0.79-0.167c0.036-0.01,0.073-0.013,0.109-0.022c0.02-0.006,0.04-0.014,0.059-0.02
	c0.168-0.051,0.333-0.108,0.496-0.169c0.077-0.028,0.155-0.055,0.231-0.085c0.144-0.059,0.282-0.125,0.421-0.192
	c0.092-0.045,0.187-0.085,0.276-0.133c0.107-0.058,0.21-0.122,0.313-0.184c0.114-0.067,0.228-0.133,0.338-0.205
	c0.074-0.05,0.144-0.105,0.216-0.157c0.129-0.093,0.259-0.186,0.381-0.285c0.056-0.046,0.107-0.097,0.162-0.145
	c0.129-0.112,0.259-0.225,0.38-0.345c0.06-0.06,0.114-0.124,0.17-0.186c0.107-0.114,0.216-0.227,0.316-0.348
	c0.077-0.092,0.147-0.191,0.219-0.287c0.071-0.096,0.147-0.189,0.214-0.286c0.089-0.131,0.168-0.268,0.249-0.403
	c0.043-0.07,0.088-0.139,0.128-0.212c0.083-0.15,0.155-0.305,0.228-0.46c0.03-0.065,0.065-0.129,0.094-0.195
	c0.063-0.146,0.116-0.296,0.169-0.446c0.029-0.083,0.064-0.164,0.091-0.248c0.041-0.126,0.071-0.255,0.105-0.384
	c0.03-0.116,0.064-0.23,0.089-0.347c0.021-0.102,0.035-0.206,0.053-0.309c0.025-0.148,0.052-0.298,0.069-0.448
	c0.009-0.084,0.012-0.17,0.018-0.255c0.013-0.17,0.024-0.342,0.026-0.514c0-0.021,0.003-0.043,0.003-0.064
	c0-0.069-0.008-0.138-0.01-0.207c-0.004-0.159-0.009-0.318-0.024-0.479c-0.011-0.126-0.03-0.248-0.048-0.372
	c-0.017-0.12-0.031-0.239-0.055-0.36c-0.03-0.161-0.07-0.318-0.109-0.475c-0.017-0.065-0.026-0.131-0.046-0.196l-20.275-70.97
	c-0.011-0.039-0.026-0.075-0.039-0.113c-0.043-0.141-0.091-0.277-0.141-0.415c-0.04-0.105-0.078-0.213-0.121-0.317
	c-0.047-0.112-0.099-0.221-0.152-0.331c-0.058-0.122-0.114-0.242-0.177-0.359c-0.048-0.087-0.1-0.171-0.151-0.258
	c-0.076-0.129-0.152-0.258-0.235-0.38c-0.052-0.076-0.107-0.148-0.162-0.222c-0.089-0.124-0.179-0.246-0.276-0.363
	c-0.065-0.077-0.134-0.15-0.201-0.226c-0.093-0.104-0.187-0.21-0.285-0.308c-0.085-0.085-0.175-0.164-0.266-0.245
	c-0.089-0.081-0.176-0.163-0.27-0.239c-0.103-0.086-0.213-0.164-0.321-0.244c-0.087-0.065-0.173-0.132-0.265-0.193
	c-0.111-0.074-0.226-0.142-0.341-0.211c-0.099-0.06-0.197-0.12-0.298-0.175c-0.104-0.056-0.213-0.105-0.32-0.158
	c-0.123-0.059-0.245-0.118-0.372-0.17c-0.091-0.038-0.185-0.071-0.278-0.105c-0.15-0.057-0.301-0.109-0.455-0.155
	c-0.033-0.011-0.065-0.023-0.098-0.033c-0.053-0.015-0.104-0.022-0.158-0.036c-0.157-0.042-0.315-0.079-0.475-0.111
	c-0.097-0.019-0.195-0.035-0.293-0.051c-0.144-0.022-0.287-0.042-0.432-0.056c-0.115-0.011-0.229-0.019-0.344-0.024
	c-0.127-0.007-0.253-0.01-0.381-0.01c-0.133-0.001-0.265,0.003-0.396,0.01c-0.109,0.006-0.22,0.014-0.331,0.023
	c-0.149,0.015-0.296,0.033-0.443,0.058c-0.096,0.015-0.192,0.03-0.288,0.05c-0.158,0.03-0.314,0.068-0.468,0.108
	c-0.056,0.014-0.112,0.022-0.167,0.039c-0.035,0.01-0.069,0.024-0.104,0.035c-0.146,0.044-0.289,0.094-0.432,0.148
	c-0.102,0.036-0.204,0.073-0.303,0.115c-0.115,0.049-0.227,0.102-0.34,0.155c-0.12,0.057-0.238,0.113-0.354,0.175
	c-0.087,0.048-0.172,0.1-0.259,0.151c-0.129,0.076-0.257,0.152-0.38,0.235c-0.075,0.052-0.148,0.107-0.221,0.161
	c-0.124,0.089-0.246,0.179-0.363,0.276c-0.08,0.065-0.154,0.136-0.231,0.205c-0.102,0.092-0.206,0.182-0.302,0.279
	c-0.089,0.089-0.172,0.186-0.258,0.278c-0.076,0.084-0.154,0.167-0.226,0.254c-0.091,0.109-0.175,0.227-0.261,0.343
	c-0.06,0.08-0.121,0.159-0.176,0.241c-0.081,0.119-0.154,0.243-0.228,0.367c-0.054,0.089-0.107,0.177-0.157,0.269
	c-0.063,0.116-0.119,0.234-0.174,0.354c-0.053,0.112-0.105,0.222-0.154,0.336c-0.043,0.103-0.081,0.209-0.12,0.315
	c-0.051,0.138-0.099,0.275-0.142,0.416c-0.012,0.039-0.027,0.074-0.039,0.113l-20.275,70.97c-0.019,0.065-0.028,0.131-0.046,0.196
	c-0.041,0.156-0.08,0.314-0.109,0.475c-0.023,0.12-0.039,0.239-0.055,0.36c-0.017,0.124-0.036,0.246-0.048,0.372
	c-0.015,0.159-0.02,0.318-0.024,0.479c-0.002,0.069-0.01,0.138-0.01,0.207c0,0.021,0.003,0.043,0.003,0.064
	c0.001,0.172,0.013,0.344,0.026,0.514c0.006,0.085,0.009,0.171,0.018,0.255c0.017,0.15,0.043,0.3,0.069,0.448
	c0.017,0.103,0.031,0.207,0.053,0.309c0.025,0.117,0.059,0.231,0.089,0.347c0.034,0.129,0.065,0.259,0.105,0.384
	c0.027,0.084,0.062,0.165,0.091,0.248c0.054,0.15,0.106,0.301,0.169,0.446c0.028,0.066,0.064,0.13,0.094,0.195
	c0.073,0.155,0.146,0.311,0.228,0.46c0.04,0.073,0.086,0.142,0.128,0.212c0.081,0.136,0.16,0.272,0.249,0.403
	c0.067,0.098,0.143,0.191,0.214,0.286C366.601,204.686,366.671,204.784,366.748,204.876z"/>
<path style="fill:#89BF43;" d="M354.862,250.534c0.004-0.178,0.01-0.357,0.026-0.535c0.009-0.101,0.025-0.2,0.04-0.301
	c0.019-0.143,0.038-0.286,0.066-0.43c0.025-0.137,0.061-0.27,0.093-0.404c0.026-0.103,0.05-0.209,0.081-0.313
	c0.049-0.165,0.106-0.326,0.167-0.487c0.022-0.061,0.039-0.121,0.062-0.181l0.05-0.125c0.002-0.005,0.004-0.01,0.006-0.016
	l16.081-40.206c0.042,0.007,0.083,0.014,0.126,0.02c0.277,0.033,0.558,0.055,0.844,0.059c0.031,0,0.063,0.006,0.094,0.006
	c0.008,0,0.016-0.002,0.024-0.002h40.492c0.008,0,0.016,0.002,0.024,0.002c0.031,0,0.063-0.006,0.094-0.006
	c0.286-0.004,0.567-0.024,0.844-0.059c0.043-0.006,0.084-0.013,0.126-0.02l16.081,40.206c0.002,0.006,0.004,0.011,0.006,0.016
	l0.05,0.125c0.023,0.06,0.04,0.121,0.062,0.181c0.06,0.16,0.118,0.321,0.166,0.487c0.03,0.104,0.055,0.209,0.081,0.313
	c0.033,0.134,0.068,0.267,0.093,0.404c0.028,0.144,0.047,0.287,0.066,0.43c0.013,0.101,0.029,0.2,0.04,0.301
	c0.017,0.179,0.022,0.358,0.026,0.535c0.001,0.059,0.009,0.115,0.009,0.173c0,0.016-0.002,0.03-0.003,0.046
	c-0.001,0.184-0.013,0.365-0.027,0.547c-0.006,0.074-0.008,0.15-0.016,0.225c-0.016,0.15-0.043,0.298-0.068,0.446
	c-0.017,0.104-0.03,0.209-0.052,0.311c-0.021,0.099-0.051,0.195-0.075,0.292c-0.038,0.147-0.071,0.294-0.117,0.437
	c-0.013,0.041-0.03,0.08-0.044,0.121c-0.143,0.425-0.318,0.835-0.53,1.224c-0.024,0.045-0.054,0.085-0.079,0.129
	c-0.094,0.165-0.19,0.328-0.296,0.486c-0.118,0.174-0.245,0.342-0.378,0.506c-0.018,0.022-0.034,0.048-0.053,0.07
	c-0.289,0.351-0.612,0.673-0.965,0.97c-0.023,0.02-0.046,0.043-0.07,0.062c-0.123,0.101-0.252,0.194-0.383,0.287
	c-0.074,0.054-0.145,0.111-0.222,0.162c-0.092,0.062-0.191,0.116-0.287,0.173c-0.123,0.075-0.245,0.151-0.373,0.22
	c-0.071,0.038-0.145,0.069-0.217,0.105c-0.158,0.077-0.317,0.154-0.482,0.221c-0.015,0.007-0.029,0.015-0.045,0.02
	c-0.068,0.027-0.137,0.047-0.205,0.071c-0.146,0.054-0.292,0.107-0.442,0.152c-0.114,0.033-0.227,0.06-0.341,0.087
	c-0.12,0.029-0.237,0.064-0.359,0.087c-0.182,0.035-0.364,0.06-0.546,0.083c-0.058,0.007-0.113,0.019-0.17,0.024
	c-0.253,0.024-0.506,0.04-0.757,0.04c-0.009,0-0.018-0.002-0.026-0.002h-60.775c-0.009,0-0.018,0.002-0.026,0.002
	c-0.251,0-0.505-0.015-0.757-0.04c-0.058-0.006-0.113-0.018-0.17-0.024c-0.182-0.023-0.364-0.048-0.546-0.083
	c-0.122-0.023-0.24-0.058-0.359-0.087c-0.114-0.027-0.228-0.054-0.341-0.087c-0.15-0.045-0.296-0.099-0.442-0.152
	c-0.068-0.024-0.137-0.044-0.205-0.071c-0.016-0.006-0.029-0.014-0.045-0.02c-0.164-0.067-0.323-0.144-0.482-0.221
	c-0.072-0.035-0.147-0.067-0.217-0.105c-0.128-0.068-0.25-0.145-0.373-0.22c-0.096-0.058-0.195-0.112-0.287-0.173
	c-0.076-0.052-0.148-0.108-0.222-0.162c-0.13-0.094-0.261-0.187-0.382-0.287c-0.024-0.02-0.046-0.042-0.07-0.062
	c-0.352-0.297-0.676-0.619-0.965-0.97c-0.018-0.023-0.034-0.048-0.053-0.07c-0.133-0.164-0.261-0.332-0.378-0.506
	c-0.106-0.156-0.202-0.319-0.296-0.486c-0.025-0.044-0.055-0.084-0.079-0.129c-0.212-0.388-0.387-0.799-0.53-1.224
	c-0.014-0.041-0.031-0.08-0.044-0.121c-0.046-0.143-0.08-0.29-0.117-0.437c-0.024-0.097-0.054-0.193-0.075-0.292
	c-0.021-0.102-0.034-0.207-0.052-0.311c-0.025-0.148-0.052-0.296-0.068-0.446c-0.008-0.074-0.01-0.15-0.016-0.225
	c-0.014-0.182-0.026-0.364-0.027-0.547c0-0.015-0.002-0.029-0.002-0.046C354.853,250.65,354.86,250.593,354.862,250.534z"/>
<path style="fill:#927266;" d="M385.265,258.312h15.208v29.618c-4.966-3.409-10.037-6.634-15.208-9.669V258.312z"/>
<path style="fill:#A0D860;" d="M307.368,113.964c0.068-0.078,0.135-0.156,0.2-0.237c0.083-0.104,0.162-0.211,0.239-0.318
	c0.069-0.096,0.136-0.192,0.2-0.291c0.064-0.098,0.123-0.198,0.181-0.299c0.067-0.116,0.134-0.232,0.195-0.353
	c0.047-0.091,0.09-0.184,0.133-0.276c0.061-0.132,0.121-0.265,0.173-0.4c0.037-0.091,0.068-0.182,0.1-0.275
	c0.049-0.138,0.095-0.276,0.136-0.418c0.029-0.102,0.055-0.206,0.08-0.31c0.031-0.13,0.063-0.261,0.087-0.393
	c0.024-0.129,0.042-0.259,0.06-0.389c0.014-0.109,0.03-0.219,0.041-0.329c0.015-0.162,0.02-0.325,0.024-0.489
	c0.002-0.065,0.01-0.13,0.01-0.195c0-0.021-0.003-0.042-0.003-0.063c-0.001-0.172-0.013-0.345-0.026-0.517
	c-0.006-0.083-0.009-0.168-0.018-0.251c-0.016-0.146-0.042-0.291-0.066-0.437c-0.019-0.109-0.033-0.221-0.057-0.328
	c-0.022-0.105-0.054-0.211-0.081-0.317c-0.038-0.145-0.074-0.291-0.121-0.433c-0.024-0.076-0.056-0.151-0.083-0.228
	c-0.06-0.166-0.122-0.331-0.193-0.491c-0.008-0.019-0.013-0.038-0.021-0.057L262.935,4.479c-0.018-0.039-0.041-0.074-0.058-0.113
	c-0.06-0.128-0.126-0.251-0.192-0.375c-0.054-0.1-0.106-0.2-0.164-0.297c-0.067-0.113-0.141-0.222-0.215-0.331
	c-0.067-0.1-0.132-0.2-0.203-0.296c-0.073-0.099-0.152-0.193-0.231-0.288c-0.08-0.098-0.158-0.196-0.242-0.288
	c-0.08-0.088-0.165-0.171-0.249-0.257c-0.091-0.09-0.18-0.182-0.276-0.269c-0.086-0.078-0.178-0.151-0.269-0.226
	c-0.102-0.084-0.203-0.168-0.308-0.246c-0.09-0.068-0.186-0.129-0.279-0.193c-0.115-0.077-0.229-0.153-0.348-0.225
	c-0.092-0.055-0.188-0.105-0.283-0.156c-0.128-0.069-0.258-0.138-0.389-0.199c-0.038-0.017-0.071-0.04-0.108-0.057
	c-0.063-0.027-0.127-0.048-0.191-0.074c-0.129-0.054-0.258-0.105-0.389-0.152c-0.115-0.041-0.229-0.077-0.345-0.112
	c-0.118-0.035-0.236-0.069-0.356-0.099c-0.127-0.031-0.254-0.061-0.381-0.085c-0.113-0.021-0.225-0.042-0.339-0.059
	c-0.132-0.019-0.264-0.036-0.395-0.049c-0.115-0.012-0.229-0.02-0.344-0.025C256.252,0.004,256.124,0,255.996,0
	c-0.122,0-0.242,0.004-0.364,0.01c-0.123,0.006-0.243,0.014-0.365,0.025c-0.126,0.013-0.25,0.028-0.376,0.047
	c-0.12,0.018-0.238,0.039-0.357,0.062c-0.122,0.023-0.243,0.051-0.364,0.081c-0.126,0.03-0.249,0.066-0.373,0.103
	c-0.111,0.033-0.22,0.068-0.329,0.107c-0.136,0.049-0.269,0.101-0.401,0.156c-0.062,0.025-0.125,0.046-0.186,0.072
	c-0.036,0.017-0.07,0.038-0.106,0.055c-0.134,0.064-0.266,0.133-0.396,0.203c-0.092,0.051-0.187,0.099-0.277,0.153
	c-0.121,0.071-0.237,0.151-0.355,0.229c-0.091,0.063-0.185,0.123-0.273,0.189c-0.107,0.079-0.21,0.165-0.313,0.25
	c-0.088,0.073-0.178,0.145-0.264,0.222c-0.096,0.087-0.187,0.18-0.279,0.273c-0.083,0.083-0.167,0.165-0.246,0.252
	c-0.085,0.093-0.164,0.192-0.244,0.291c-0.077,0.094-0.156,0.188-0.228,0.285c-0.072,0.097-0.138,0.198-0.205,0.298
	c-0.073,0.108-0.146,0.218-0.213,0.33c-0.058,0.097-0.111,0.197-0.165,0.297c-0.067,0.124-0.132,0.247-0.192,0.375
	c-0.018,0.039-0.041,0.074-0.058,0.113l-45.624,101.389c-0.008,0.019-0.014,0.038-0.021,0.057c-0.071,0.16-0.132,0.324-0.192,0.491
	c-0.027,0.076-0.059,0.151-0.083,0.228c-0.046,0.142-0.083,0.287-0.121,0.433c-0.027,0.105-0.059,0.211-0.082,0.317
	c-0.023,0.108-0.039,0.219-0.057,0.328c-0.024,0.146-0.051,0.291-0.066,0.437c-0.009,0.083-0.012,0.168-0.018,0.251
	c-0.013,0.172-0.024,0.345-0.026,0.517c0,0.021-0.003,0.042-0.003,0.063c0,0.065,0.008,0.13,0.01,0.195
	c0.004,0.163,0.01,0.326,0.024,0.489c0.01,0.111,0.026,0.22,0.041,0.329c0.018,0.131,0.035,0.261,0.06,0.389
	c0.024,0.133,0.056,0.264,0.087,0.393c0.025,0.104,0.05,0.208,0.08,0.31c0.041,0.142,0.087,0.28,0.136,0.418
	c0.032,0.092,0.064,0.184,0.1,0.275c0.054,0.136,0.113,0.269,0.173,0.4c0.043,0.093,0.086,0.186,0.133,0.276
	c0.061,0.12,0.128,0.236,0.195,0.353c0.059,0.101,0.119,0.201,0.181,0.299c0.064,0.099,0.131,0.195,0.2,0.291
	c0.077,0.107,0.156,0.215,0.239,0.318c0.064,0.081,0.132,0.159,0.2,0.237c0.094,0.108,0.191,0.217,0.291,0.32
	c0.069,0.07,0.14,0.139,0.212,0.207c0.104,0.099,0.211,0.198,0.321,0.292c0.083,0.07,0.169,0.137,0.254,0.203
	c0.104,0.081,0.209,0.162,0.317,0.237c0.11,0.077,0.223,0.148,0.338,0.219c0.092,0.057,0.182,0.115,0.278,0.168
	c0.145,0.081,0.294,0.155,0.444,0.228c0.058,0.026,0.11,0.06,0.168,0.085c0.018,0.008,0.036,0.014,0.054,0.021
	c0.188,0.082,0.379,0.154,0.574,0.222c0.057,0.02,0.114,0.044,0.171,0.063c0.184,0.06,0.372,0.105,0.562,0.151
	c0.069,0.016,0.139,0.039,0.209,0.054c0.122,0.024,0.246,0.039,0.369,0.059c0.393,0.063,0.786,0.103,1.178,0.103
	c0.009,0,0.018-0.002,0.027-0.002h91.201c0.009,0,0.018,0.002,0.027,0.002c0.391,0,0.785-0.041,1.178-0.103
	c0.124-0.02,0.248-0.033,0.369-0.059c0.07-0.015,0.139-0.038,0.208-0.054c0.19-0.046,0.378-0.092,0.562-0.151
	c0.058-0.019,0.114-0.043,0.171-0.063c0.195-0.067,0.386-0.14,0.574-0.222c0.018-0.008,0.037-0.014,0.054-0.021
	c0.058-0.025,0.111-0.059,0.168-0.085c0.15-0.072,0.299-0.147,0.444-0.228c0.095-0.054,0.186-0.112,0.278-0.168
	c0.114-0.071,0.227-0.142,0.337-0.219c0.108-0.075,0.214-0.156,0.318-0.237c0.086-0.066,0.171-0.133,0.254-0.203
	c0.111-0.094,0.217-0.193,0.321-0.292c0.071-0.068,0.143-0.137,0.211-0.207C307.177,114.181,307.274,114.073,307.368,113.964z"/>
<g>
	<path style="fill:#89BF43;" d="M210.373,116.597c0.009,0,0.018-0.002,0.027-0.002h-0.069
		C210.345,116.595,210.359,116.597,210.373,116.597z"/>
	<path style="fill:#89BF43;" d="M309.225,108.929c-0.001-0.172-0.013-0.345-0.026-0.517c-0.006-0.083-0.009-0.168-0.018-0.251
		c-0.016-0.146-0.042-0.291-0.066-0.437c-0.019-0.109-0.033-0.221-0.057-0.328c-0.022-0.105-0.054-0.211-0.081-0.317
		c-0.038-0.145-0.074-0.291-0.121-0.433c-0.024-0.076-0.056-0.151-0.083-0.228c-0.06-0.166-0.122-0.331-0.193-0.491
		c-0.008-0.019-0.013-0.038-0.021-0.057L262.936,4.48c-0.018-0.039-0.041-0.074-0.058-0.113c-0.06-0.128-0.126-0.251-0.192-0.375
		c-0.054-0.1-0.106-0.2-0.164-0.297c-0.067-0.113-0.141-0.222-0.215-0.331c-0.067-0.1-0.132-0.2-0.203-0.296
		c-0.073-0.099-0.152-0.193-0.231-0.288c-0.08-0.098-0.158-0.196-0.242-0.288c-0.08-0.088-0.165-0.171-0.249-0.257
		c-0.091-0.09-0.18-0.182-0.276-0.269c-0.086-0.078-0.178-0.151-0.269-0.226c-0.102-0.084-0.203-0.168-0.308-0.246
		c-0.09-0.068-0.186-0.129-0.279-0.193c-0.115-0.077-0.229-0.153-0.348-0.225c-0.092-0.055-0.188-0.105-0.283-0.156
		c-0.128-0.069-0.258-0.138-0.389-0.199c-0.038-0.017-0.071-0.04-0.108-0.057c-0.063-0.027-0.127-0.048-0.191-0.074
		c-0.129-0.054-0.258-0.105-0.389-0.152c-0.115-0.041-0.229-0.077-0.345-0.112c-0.118-0.035-0.236-0.069-0.356-0.099
		c-0.127-0.031-0.254-0.061-0.381-0.085c-0.113-0.021-0.225-0.042-0.339-0.059c-0.132-0.019-0.264-0.036-0.395-0.049
		c-0.115-0.012-0.229-0.02-0.344-0.025c-0.129-0.006-0.258-0.01-0.385-0.01c-0.122,0-0.242,0.004-0.364,0.01
		c-0.123,0.006-0.243,0.014-0.365,0.025c-0.126,0.013-0.25,0.028-0.376,0.047c-0.12,0.018-0.238,0.039-0.357,0.062
		c-0.122,0.023-0.243,0.051-0.364,0.081c-0.126,0.03-0.249,0.066-0.373,0.103c-0.111,0.033-0.22,0.068-0.329,0.107
		c-0.136,0.049-0.269,0.101-0.401,0.156c-0.062,0.025-0.125,0.046-0.186,0.072c-0.036,0.017-0.07,0.038-0.106,0.055
		c-0.134,0.064-0.266,0.133-0.396,0.203c-0.092,0.051-0.187,0.099-0.277,0.153c-0.121,0.071-0.237,0.151-0.355,0.229
		c-0.091,0.063-0.185,0.123-0.273,0.189c-0.107,0.079-0.21,0.165-0.313,0.25c-0.088,0.073-0.178,0.145-0.264,0.222
		c-0.096,0.087-0.187,0.18-0.279,0.273c-0.083,0.083-0.167,0.165-0.246,0.252c-0.085,0.093-0.164,0.192-0.244,0.291
		c-0.077,0.094-0.156,0.188-0.228,0.285c-0.072,0.097-0.138,0.198-0.205,0.298c-0.073,0.108-0.146,0.218-0.213,0.33
		c-0.058,0.097-0.111,0.197-0.165,0.297c-0.067,0.124-0.132,0.247-0.192,0.375c-0.018,0.039-0.041,0.074-0.058,0.113l-8.275,18.39
		l37.348,82.998c0.008,0.019,0.014,0.038,0.021,0.057c0.071,0.16,0.132,0.324,0.193,0.491c0.027,0.076,0.059,0.151,0.083,0.228
		c0.046,0.142,0.083,0.287,0.121,0.433c0.027,0.105,0.059,0.211,0.082,0.317c0.023,0.108,0.039,0.219,0.057,0.328
		c0.024,0.146,0.051,0.291,0.066,0.437c0.009,0.083,0.012,0.168,0.018,0.251c0.013,0.172,0.024,0.345,0.026,0.517
		c0,0.021,0.003,0.042,0.003,0.063c0,0.065-0.008,0.13-0.01,0.195c-0.004,0.163-0.01,0.326-0.024,0.489
		c-0.01,0.111-0.026,0.22-0.041,0.329c-0.018,0.131-0.035,0.261-0.06,0.389c-0.025,0.133-0.056,0.264-0.087,0.393
		c-0.025,0.104-0.05,0.208-0.08,0.31c-0.041,0.142-0.087,0.28-0.136,0.418c-0.032,0.092-0.064,0.184-0.1,0.275
		c-0.054,0.136-0.113,0.269-0.173,0.4c-0.043,0.093-0.086,0.186-0.133,0.276c-0.062,0.12-0.128,0.236-0.195,0.353
		c-0.059,0.101-0.119,0.201-0.181,0.299c-0.064,0.099-0.131,0.195-0.2,0.291c-0.077,0.107-0.156,0.215-0.239,0.318
		c-0.065,0.081-0.132,0.159-0.2,0.237c-0.094,0.108-0.191,0.217-0.291,0.32c-0.069,0.07-0.14,0.139-0.211,0.207
		c-0.104,0.099-0.211,0.198-0.321,0.292c-0.083,0.07-0.169,0.137-0.254,0.203c-0.104,0.081-0.209,0.162-0.318,0.237
		c-0.109,0.077-0.223,0.148-0.337,0.219c-0.092,0.057-0.182,0.115-0.278,0.168c-0.145,0.081-0.294,0.155-0.444,0.228
		c-0.058,0.026-0.109,0.06-0.167,0.085c-0.018,0.008-0.037,0.014-0.054,0.021c-0.188,0.082-0.379,0.154-0.574,0.222
		c-0.057,0.02-0.114,0.044-0.171,0.063c-0.184,0.06-0.372,0.105-0.562,0.151c-0.069,0.016-0.139,0.039-0.209,0.054
		c-0.122,0.024-0.246,0.039-0.369,0.059c-0.379,0.061-0.758,0.098-1.137,0.101h30.35c0.009,0,0.018,0.002,0.027,0.002
		c0.391,0,0.785-0.041,1.178-0.103c0.124-0.02,0.248-0.033,0.369-0.059c0.07-0.015,0.139-0.038,0.208-0.054
		c0.19-0.046,0.378-0.092,0.562-0.151c0.058-0.019,0.114-0.043,0.171-0.063c0.195-0.067,0.386-0.14,0.574-0.222
		c0.018-0.008,0.036-0.014,0.054-0.021c0.058-0.025,0.111-0.059,0.168-0.085c0.15-0.072,0.299-0.147,0.444-0.228
		c0.095-0.054,0.186-0.112,0.278-0.168c0.114-0.071,0.227-0.142,0.337-0.219c0.108-0.075,0.214-0.156,0.318-0.237
		c0.086-0.066,0.171-0.133,0.254-0.203c0.111-0.094,0.217-0.193,0.321-0.292c0.071-0.068,0.143-0.137,0.211-0.207
		c0.101-0.104,0.197-0.212,0.291-0.32c0.068-0.078,0.135-0.156,0.2-0.237c0.083-0.104,0.162-0.211,0.239-0.318
		c0.069-0.096,0.136-0.192,0.2-0.291c0.064-0.098,0.123-0.198,0.181-0.299c0.067-0.116,0.134-0.232,0.195-0.353
		c0.047-0.091,0.09-0.184,0.133-0.276c0.061-0.132,0.121-0.265,0.173-0.4c0.037-0.091,0.068-0.182,0.1-0.275
		c0.049-0.138,0.095-0.276,0.136-0.418c0.029-0.102,0.055-0.206,0.08-0.31c0.031-0.13,0.063-0.261,0.087-0.393
		c0.024-0.129,0.042-0.259,0.06-0.389c0.014-0.109,0.03-0.219,0.041-0.329c0.015-0.162,0.02-0.325,0.024-0.489
		c0.002-0.065,0.01-0.13,0.01-0.195C309.229,108.97,309.225,108.949,309.225,108.929z"/>
	<path style="fill:#89BF43;" d="M329.503,200.193c-0.001-0.18-0.013-0.36-0.027-0.54c-0.006-0.075-0.007-0.152-0.015-0.228
		c-0.016-0.147-0.044-0.296-0.068-0.444c-0.018-0.106-0.031-0.215-0.054-0.319c-0.021-0.1-0.051-0.198-0.076-0.297
		c-0.039-0.151-0.076-0.304-0.124-0.452c-0.021-0.064-0.048-0.129-0.071-0.193c-0.063-0.178-0.128-0.355-0.203-0.526
		c-0.006-0.013-0.01-0.026-0.016-0.041l-35.802-80.558h-74.093l-35.802,80.558c-0.006,0.014-0.01,0.027-0.016,0.041
		c-0.075,0.171-0.14,0.348-0.203,0.526c-0.023,0.064-0.05,0.129-0.071,0.193c-0.048,0.148-0.085,0.301-0.124,0.452
		c-0.025,0.099-0.055,0.197-0.076,0.297c-0.021,0.105-0.035,0.213-0.054,0.319c-0.024,0.148-0.052,0.296-0.068,0.444
		c-0.008,0.075-0.009,0.152-0.015,0.228c-0.014,0.18-0.026,0.36-0.027,0.54c0,0.016-0.002,0.031-0.002,0.048
		c0,0.065,0.008,0.129,0.01,0.194c0.004,0.168,0.01,0.337,0.025,0.505c0.01,0.111,0.027,0.22,0.043,0.329
		c0.018,0.131,0.035,0.262,0.06,0.391c0.025,0.135,0.058,0.267,0.09,0.398c0.025,0.102,0.049,0.204,0.079,0.305
		c0.042,0.144,0.09,0.284,0.14,0.424c0.032,0.09,0.063,0.179,0.098,0.269c0.055,0.137,0.116,0.271,0.177,0.404
		c0.043,0.091,0.084,0.182,0.131,0.272c0.062,0.12,0.129,0.236,0.198,0.354c0.058,0.099,0.117,0.198,0.179,0.296
		c0.064,0.098,0.132,0.194,0.201,0.289c0.077,0.108,0.155,0.215,0.238,0.318c0.064,0.08,0.132,0.157,0.199,0.234
		c0.095,0.109,0.192,0.218,0.293,0.322c0.068,0.069,0.139,0.136,0.21,0.203c0.105,0.1,0.213,0.2,0.325,0.295
		c0.082,0.069,0.168,0.135,0.253,0.201c0.105,0.082,0.211,0.163,0.32,0.239c0.112,0.078,0.228,0.148,0.344,0.221
		c0.09,0.056,0.178,0.113,0.273,0.165c0.152,0.085,0.309,0.161,0.466,0.236c0.055,0.025,0.105,0.057,0.161,0.081
		c0.013,0.006,0.026,0.009,0.041,0.015c0.199,0.087,0.402,0.163,0.61,0.233c0.043,0.015,0.085,0.033,0.128,0.048
		c0.197,0.062,0.398,0.113,0.603,0.159c0.055,0.013,0.108,0.03,0.163,0.043c0.104,0.021,0.212,0.032,0.318,0.05
		c0.408,0.067,0.816,0.109,1.222,0.109c0.009,0,0.018-0.002,0.027-0.002h131.753c0.009,0,0.018,0.002,0.027,0.002
		c0.404,0,0.809-0.043,1.215-0.108c0.108-0.017,0.219-0.028,0.325-0.051c0.053-0.011,0.105-0.028,0.158-0.041
		c0.206-0.048,0.41-0.099,0.608-0.161c0.043-0.014,0.084-0.032,0.127-0.047c0.208-0.07,0.413-0.146,0.611-0.234
		c0.013-0.006,0.026-0.009,0.04-0.015c0.056-0.024,0.105-0.056,0.161-0.081c0.158-0.075,0.315-0.151,0.467-0.236
		c0.093-0.053,0.181-0.109,0.272-0.165c0.116-0.072,0.232-0.143,0.344-0.221c0.111-0.076,0.215-0.157,0.32-0.239
		c0.085-0.066,0.171-0.132,0.253-0.201c0.113-0.095,0.219-0.195,0.325-0.295c0.071-0.067,0.142-0.134,0.21-0.203
		c0.101-0.105,0.198-0.213,0.293-0.322c0.067-0.077,0.135-0.154,0.199-0.234c0.083-0.104,0.161-0.211,0.238-0.318
		c0.069-0.095,0.137-0.191,0.201-0.289c0.063-0.098,0.122-0.197,0.179-0.296c0.069-0.117,0.136-0.233,0.198-0.354
		c0.046-0.089,0.088-0.18,0.131-0.272c0.063-0.134,0.124-0.268,0.177-0.404c0.035-0.089,0.066-0.178,0.098-0.269
		c0.05-0.14,0.098-0.28,0.14-0.424c0.029-0.101,0.054-0.203,0.079-0.305c0.032-0.133,0.065-0.265,0.09-0.398
		c0.024-0.13,0.043-0.261,0.06-0.391c0.015-0.109,0.032-0.219,0.043-0.329c0.015-0.168,0.021-0.337,0.025-0.505
		c0.002-0.065,0.01-0.129,0.01-0.194C329.505,200.225,329.503,200.209,329.503,200.193z"/>
</g>
<g>
	<path style="fill:#78A833;" d="M329.503,200.193c-0.001-0.18-0.013-0.36-0.027-0.54c-0.006-0.075-0.007-0.152-0.015-0.228
		c-0.016-0.147-0.044-0.296-0.068-0.444c-0.018-0.106-0.031-0.215-0.054-0.319c-0.021-0.1-0.051-0.198-0.076-0.297
		c-0.039-0.151-0.076-0.304-0.124-0.452c-0.021-0.064-0.048-0.129-0.071-0.193c-0.063-0.178-0.128-0.355-0.203-0.526
		c-0.006-0.013-0.01-0.026-0.016-0.041l-35.802-80.558h-30.419l35.802,80.558c0.006,0.014,0.01,0.027,0.016,0.041
		c0.075,0.171,0.14,0.348,0.203,0.526c0.023,0.064,0.05,0.129,0.071,0.193c0.048,0.148,0.085,0.301,0.124,0.452
		c0.025,0.099,0.055,0.197,0.076,0.297c0.021,0.105,0.035,0.213,0.054,0.319c0.024,0.148,0.052,0.296,0.068,0.444
		c0.008,0.075,0.009,0.152,0.015,0.228c0.014,0.18,0.026,0.36,0.027,0.54c0,0.016,0.002,0.031,0.002,0.048
		c0,0.065-0.008,0.129-0.01,0.194c-0.004,0.168-0.01,0.337-0.025,0.505c-0.01,0.111-0.027,0.22-0.043,0.329
		c-0.018,0.131-0.035,0.262-0.06,0.391c-0.025,0.135-0.058,0.267-0.09,0.398c-0.025,0.102-0.049,0.204-0.079,0.305
		c-0.042,0.144-0.09,0.284-0.14,0.424c-0.032,0.09-0.063,0.179-0.098,0.269c-0.055,0.137-0.116,0.271-0.177,0.404
		c-0.043,0.091-0.084,0.182-0.131,0.272c-0.062,0.12-0.129,0.236-0.198,0.354c-0.058,0.099-0.117,0.198-0.179,0.296
		c-0.064,0.098-0.132,0.194-0.201,0.289c-0.077,0.108-0.155,0.215-0.238,0.318c-0.064,0.08-0.132,0.157-0.199,0.234
		c-0.095,0.109-0.192,0.218-0.293,0.322c-0.068,0.069-0.139,0.136-0.21,0.203c-0.105,0.1-0.213,0.2-0.325,0.295
		c-0.082,0.069-0.168,0.135-0.253,0.201c-0.105,0.082-0.21,0.163-0.32,0.239c-0.112,0.078-0.228,0.148-0.344,0.221
		c-0.09,0.056-0.178,0.113-0.273,0.165c-0.152,0.085-0.309,0.161-0.466,0.236c-0.055,0.025-0.105,0.057-0.161,0.081
		c-0.013,0.006-0.026,0.009-0.041,0.015c-0.199,0.088-0.404,0.164-0.611,0.234c-0.043,0.014-0.084,0.032-0.127,0.047
		c-0.199,0.062-0.403,0.114-0.608,0.161c-0.053,0.012-0.105,0.029-0.158,0.041c-0.106,0.021-0.217,0.033-0.325,0.051
		c-0.391,0.065-0.784,0.103-1.174,0.106h30.351c0.009,0,0.018,0.002,0.027,0.002c0.404,0,0.809-0.043,1.215-0.108
		c0.108-0.017,0.219-0.028,0.325-0.051c0.053-0.011,0.105-0.028,0.158-0.041c0.206-0.048,0.41-0.099,0.608-0.161
		c0.043-0.014,0.084-0.032,0.127-0.047c0.208-0.07,0.413-0.146,0.611-0.234c0.013-0.006,0.026-0.009,0.04-0.015
		c0.056-0.024,0.105-0.056,0.161-0.081c0.158-0.075,0.315-0.151,0.467-0.236c0.093-0.053,0.181-0.109,0.272-0.165
		c0.116-0.072,0.232-0.143,0.344-0.221c0.111-0.076,0.215-0.157,0.32-0.239c0.085-0.066,0.171-0.132,0.253-0.201
		c0.113-0.095,0.219-0.195,0.325-0.295c0.071-0.067,0.142-0.134,0.21-0.203c0.101-0.105,0.198-0.213,0.293-0.322
		c0.067-0.077,0.135-0.154,0.199-0.234c0.083-0.104,0.161-0.211,0.238-0.318c0.069-0.095,0.137-0.191,0.201-0.289
		c0.063-0.098,0.122-0.197,0.179-0.296c0.069-0.117,0.136-0.233,0.198-0.354c0.046-0.089,0.088-0.18,0.131-0.272
		c0.063-0.134,0.124-0.268,0.177-0.404c0.035-0.089,0.066-0.178,0.098-0.269c0.05-0.14,0.098-0.28,0.14-0.424
		c0.029-0.101,0.054-0.203,0.079-0.305c0.032-0.133,0.065-0.265,0.09-0.398c0.024-0.13,0.043-0.261,0.06-0.391
		c0.015-0.109,0.032-0.219,0.043-0.329c0.015-0.168,0.021-0.337,0.025-0.505c0.002-0.065,0.01-0.129,0.01-0.194
		C329.505,200.225,329.503,200.209,329.503,200.193z"/>
	<path style="fill:#78A833;" d="M190.096,207.847c0.009,0,0.018-0.002,0.027-0.002h-0.068
		C190.069,207.845,190.083,207.847,190.096,207.847z"/>
</g>
<path style="fill:#A0D860;" d="M145.469,204.589c0.071-0.096,0.147-0.189,0.214-0.286c0.089-0.131,0.168-0.268,0.249-0.403
	c0.043-0.07,0.088-0.139,0.128-0.212c0.082-0.15,0.155-0.305,0.228-0.46c0.03-0.065,0.065-0.129,0.094-0.195
	c0.063-0.146,0.116-0.296,0.169-0.446c0.029-0.083,0.064-0.164,0.091-0.248c0.04-0.126,0.071-0.255,0.105-0.384
	c0.03-0.116,0.064-0.23,0.089-0.347c0.021-0.102,0.035-0.206,0.053-0.309c0.025-0.148,0.052-0.298,0.069-0.448
	c0.009-0.084,0.012-0.17,0.018-0.255c0.013-0.17,0.024-0.342,0.026-0.514c0-0.021,0.003-0.043,0.003-0.064
	c0-0.069-0.008-0.138-0.01-0.207c-0.004-0.159-0.009-0.318-0.024-0.479c-0.011-0.126-0.03-0.248-0.048-0.372
	c-0.017-0.12-0.031-0.239-0.055-0.36c-0.03-0.161-0.07-0.318-0.11-0.475c-0.017-0.065-0.026-0.131-0.046-0.196l-20.275-70.97
	c-0.011-0.039-0.026-0.074-0.039-0.113c-0.043-0.141-0.091-0.278-0.142-0.416c-0.039-0.105-0.077-0.212-0.12-0.315
	c-0.048-0.114-0.101-0.224-0.154-0.336c-0.057-0.119-0.113-0.237-0.174-0.354c-0.05-0.091-0.103-0.179-0.157-0.269
	c-0.074-0.124-0.147-0.248-0.228-0.367c-0.056-0.082-0.117-0.161-0.176-0.241c-0.085-0.116-0.169-0.232-0.261-0.343
	c-0.072-0.087-0.15-0.17-0.226-0.254c-0.085-0.093-0.168-0.19-0.258-0.278c-0.096-0.097-0.2-0.188-0.302-0.279
	c-0.077-0.069-0.151-0.14-0.231-0.205c-0.117-0.097-0.239-0.188-0.363-0.276c-0.074-0.055-0.146-0.109-0.221-0.161
	c-0.124-0.083-0.251-0.159-0.38-0.235c-0.086-0.052-0.171-0.104-0.259-0.151c-0.116-0.063-0.235-0.119-0.354-0.175
	c-0.113-0.054-0.224-0.106-0.339-0.155c-0.099-0.042-0.202-0.078-0.303-0.115c-0.143-0.054-0.286-0.104-0.432-0.148
	c-0.035-0.011-0.069-0.025-0.104-0.035c-0.056-0.016-0.111-0.024-0.167-0.039c-0.155-0.041-0.311-0.078-0.468-0.108
	c-0.096-0.019-0.192-0.034-0.288-0.05c-0.147-0.023-0.294-0.043-0.443-0.058c-0.111-0.01-0.22-0.018-0.331-0.023
	c-0.132-0.007-0.264-0.011-0.396-0.01c-0.128,0-0.254,0.003-0.381,0.01c-0.115,0.006-0.229,0.014-0.344,0.024
	c-0.145,0.014-0.289,0.032-0.432,0.056c-0.098,0.015-0.196,0.031-0.293,0.051c-0.16,0.031-0.318,0.069-0.476,0.111
	c-0.053,0.014-0.105,0.021-0.158,0.037c-0.033,0.01-0.065,0.022-0.098,0.033c-0.154,0.046-0.305,0.099-0.455,0.155
	c-0.093,0.033-0.187,0.067-0.278,0.105c-0.126,0.053-0.249,0.112-0.372,0.17c-0.107,0.053-0.216,0.103-0.32,0.158
	c-0.101,0.056-0.2,0.116-0.298,0.175c-0.115,0.069-0.23,0.137-0.341,0.211c-0.09,0.062-0.176,0.128-0.265,0.193
	c-0.108,0.08-0.218,0.158-0.321,0.244c-0.092,0.076-0.18,0.158-0.27,0.239c-0.089,0.081-0.18,0.16-0.266,0.245
	c-0.099,0.098-0.192,0.204-0.285,0.308c-0.067,0.075-0.137,0.148-0.201,0.226c-0.096,0.117-0.187,0.239-0.276,0.363
	c-0.055,0.073-0.111,0.146-0.162,0.222c-0.083,0.123-0.159,0.251-0.235,0.38c-0.051,0.086-0.103,0.17-0.151,0.258
	c-0.064,0.117-0.12,0.237-0.177,0.359c-0.053,0.109-0.105,0.219-0.152,0.331c-0.044,0.104-0.082,0.211-0.121,0.317
	c-0.05,0.138-0.098,0.275-0.141,0.415c-0.012,0.038-0.027,0.074-0.039,0.113l-20.275,70.97c-0.018,0.065-0.028,0.131-0.046,0.196
	c-0.04,0.156-0.08,0.314-0.11,0.475c-0.023,0.12-0.039,0.239-0.055,0.36c-0.017,0.124-0.036,0.246-0.048,0.372
	c-0.015,0.159-0.02,0.318-0.024,0.479c-0.002,0.069-0.01,0.138-0.01,0.207c0,0.021,0.003,0.043,0.003,0.064
	c0.001,0.172,0.013,0.344,0.026,0.514c0.006,0.085,0.009,0.171,0.018,0.255c0.017,0.15,0.044,0.3,0.069,0.448
	c0.017,0.103,0.031,0.207,0.053,0.309c0.025,0.117,0.059,0.231,0.089,0.347c0.034,0.129,0.066,0.259,0.105,0.384
	c0.027,0.084,0.062,0.165,0.091,0.248c0.054,0.15,0.106,0.301,0.17,0.446c0.028,0.066,0.064,0.13,0.094,0.195
	c0.073,0.155,0.146,0.311,0.228,0.46c0.04,0.073,0.086,0.142,0.129,0.212c0.081,0.136,0.16,0.272,0.249,0.402
	c0.067,0.098,0.143,0.191,0.214,0.286c0.073,0.096,0.142,0.195,0.219,0.287c0.1,0.121,0.209,0.233,0.316,0.348
	c0.058,0.062,0.112,0.126,0.17,0.186c0.121,0.12,0.25,0.233,0.38,0.345c0.055,0.048,0.105,0.099,0.162,0.145
	c0.123,0.1,0.252,0.192,0.381,0.285c0.072,0.053,0.142,0.107,0.216,0.157c0.108,0.072,0.224,0.138,0.337,0.205
	c0.103,0.062,0.206,0.126,0.313,0.184c0.089,0.048,0.184,0.088,0.276,0.133c0.139,0.067,0.277,0.134,0.421,0.192
	c0.075,0.03,0.153,0.057,0.231,0.085c0.163,0.061,0.327,0.119,0.496,0.169c0.019,0.006,0.039,0.014,0.059,0.02
	c0.036,0.01,0.073,0.013,0.109,0.022c0.259,0.069,0.522,0.126,0.79,0.167c0.085,0.014,0.169,0.028,0.254,0.04
	c0.278,0.033,0.559,0.055,0.845,0.059c0.031,0,0.063,0.006,0.094,0.006c0.008,0,0.016-0.002,0.024-0.002h40.492
	c0.008,0,0.016,0.002,0.024,0.002c0.031,0,0.063-0.006,0.094-0.006c0.286-0.004,0.567-0.024,0.844-0.059
	c0.085-0.011,0.17-0.025,0.257-0.04c0.268-0.043,0.531-0.098,0.789-0.167c0.036-0.01,0.073-0.013,0.109-0.022
	c0.02-0.006,0.04-0.014,0.059-0.02c0.169-0.051,0.333-0.108,0.496-0.169c0.077-0.028,0.155-0.055,0.23-0.085
	c0.144-0.059,0.282-0.125,0.421-0.192c0.092-0.045,0.187-0.085,0.276-0.133c0.107-0.058,0.209-0.122,0.312-0.184
	c0.114-0.067,0.228-0.133,0.338-0.205c0.074-0.05,0.144-0.105,0.216-0.157c0.129-0.093,0.259-0.186,0.381-0.285
	c0.056-0.046,0.107-0.097,0.162-0.145c0.129-0.112,0.259-0.225,0.379-0.345c0.06-0.06,0.114-0.124,0.171-0.186
	c0.107-0.114,0.216-0.227,0.316-0.348C145.327,204.784,145.397,204.686,145.469,204.589z"/>
<path style="fill:#89BF43;" d="M157.136,250.534c-0.004-0.178-0.01-0.357-0.026-0.535c-0.009-0.101-0.025-0.2-0.04-0.301
	c-0.019-0.143-0.038-0.286-0.066-0.43c-0.025-0.137-0.061-0.27-0.093-0.404c-0.026-0.103-0.05-0.209-0.081-0.313
	c-0.049-0.165-0.106-0.326-0.167-0.487c-0.022-0.061-0.039-0.121-0.062-0.181l-0.05-0.125c-0.002-0.005-0.004-0.01-0.006-0.016
	l-16.081-40.206c-0.042,0.007-0.084,0.014-0.126,0.02c-0.278,0.033-0.558,0.055-0.844,0.059c-0.031,0-0.063,0.006-0.094,0.006
	c-0.008,0-0.016-0.002-0.024-0.002H98.884c-0.008,0-0.016,0.002-0.024,0.002c-0.031,0-0.063-0.006-0.094-0.006
	c-0.286-0.004-0.567-0.024-0.845-0.059c-0.042-0.006-0.084-0.013-0.126-0.02l-16.081,40.206c-0.002,0.006-0.004,0.011-0.006,0.016
	l-0.05,0.125c-0.023,0.06-0.04,0.121-0.062,0.181c-0.06,0.16-0.118,0.321-0.166,0.487c-0.03,0.104-0.055,0.209-0.081,0.313
	c-0.033,0.134-0.068,0.267-0.093,0.404c-0.028,0.144-0.047,0.287-0.066,0.43c-0.013,0.101-0.029,0.2-0.04,0.301
	c-0.017,0.179-0.022,0.358-0.026,0.535c-0.001,0.059-0.009,0.115-0.009,0.173c0,0.016,0.002,0.03,0.003,0.046
	c0.001,0.184,0.013,0.365,0.027,0.547c0.006,0.074,0.008,0.15,0.016,0.225c0.016,0.15,0.043,0.298,0.068,0.446
	c0.017,0.104,0.03,0.209,0.052,0.311c0.021,0.099,0.051,0.195,0.075,0.292c0.038,0.147,0.071,0.294,0.117,0.437
	c0.013,0.041,0.03,0.08,0.044,0.121c0.143,0.425,0.318,0.835,0.53,1.224c0.024,0.045,0.054,0.085,0.079,0.129
	c0.094,0.165,0.19,0.328,0.296,0.486c0.118,0.174,0.245,0.342,0.378,0.506c0.018,0.022,0.034,0.048,0.053,0.07
	c0.289,0.351,0.613,0.673,0.965,0.97c0.023,0.02,0.046,0.043,0.07,0.062c0.123,0.101,0.253,0.194,0.382,0.287
	c0.074,0.054,0.146,0.111,0.222,0.162c0.092,0.062,0.191,0.116,0.287,0.173c0.123,0.075,0.245,0.151,0.373,0.22
	c0.071,0.038,0.145,0.069,0.217,0.105c0.158,0.077,0.317,0.154,0.482,0.221c0.015,0.007,0.029,0.015,0.046,0.02
	c0.068,0.027,0.137,0.047,0.205,0.071c0.146,0.054,0.292,0.107,0.442,0.152c0.114,0.033,0.227,0.06,0.341,0.087
	c0.12,0.029,0.237,0.064,0.359,0.087c0.182,0.035,0.364,0.06,0.546,0.083c0.058,0.007,0.113,0.019,0.17,0.024
	c0.252,0.024,0.506,0.04,0.757,0.04c0.009,0,0.018-0.002,0.026-0.002h60.775c0.009,0,0.018,0.002,0.026,0.002
	c0.251,0,0.504-0.015,0.757-0.04c0.058-0.006,0.113-0.018,0.17-0.024c0.182-0.023,0.364-0.048,0.546-0.083
	c0.122-0.023,0.24-0.058,0.36-0.087c0.114-0.027,0.228-0.054,0.341-0.087c0.15-0.045,0.296-0.099,0.442-0.152
	c0.068-0.024,0.137-0.044,0.205-0.071c0.016-0.006,0.029-0.014,0.045-0.02c0.164-0.067,0.323-0.144,0.482-0.221
	c0.072-0.035,0.147-0.067,0.217-0.105c0.128-0.068,0.25-0.145,0.373-0.22c0.096-0.058,0.195-0.112,0.287-0.173
	c0.076-0.052,0.147-0.108,0.222-0.162c0.13-0.094,0.261-0.187,0.382-0.287c0.024-0.02,0.047-0.042,0.07-0.062
	c0.352-0.297,0.676-0.619,0.965-0.97c0.018-0.023,0.034-0.048,0.053-0.07c0.133-0.164,0.261-0.332,0.378-0.506
	c0.106-0.156,0.202-0.319,0.296-0.486c0.025-0.044,0.055-0.084,0.079-0.129c0.212-0.388,0.387-0.799,0.53-1.224
	c0.014-0.041,0.031-0.08,0.045-0.121c0.046-0.143,0.08-0.29,0.117-0.437c0.024-0.097,0.054-0.193,0.075-0.292
	c0.021-0.102,0.034-0.207,0.052-0.311c0.025-0.148,0.052-0.296,0.068-0.446c0.008-0.074,0.01-0.15,0.016-0.225
	c0.014-0.182,0.026-0.364,0.027-0.547c0.001-0.015,0.002-0.029,0.002-0.046C157.145,250.65,157.138,250.593,157.136,250.534z"/>
<path style="fill:#A0D860;" d="M437.019,318.31c-48.352-48.351-112.639-74.98-181.018-74.98s-132.667,26.629-181.018,74.98
	C26.631,366.662,0.002,430.949,0.002,499.329v5.069c0,4.199,3.405,7.604,7.604,7.604h496.79c4.199,0,7.604-3.405,7.604-7.604v-5.069
	C512,430.949,485.371,366.662,437.019,318.31z"/>
<g>
	<path style="fill:#927266;" d="M278.813,244.345v-36.5h-45.624v36.5c7.542-0.662,15.149-1.015,22.812-1.015
		C263.664,243.33,271.27,243.683,278.813,244.345z"/>
	<path style="fill:#927266;" d="M126.733,258.312h-15.208v29.618c4.966-3.409,10.037-6.634,15.208-9.669V258.312z"/>
</g>
<g>
	<path style="fill:#89BF43;" d="M437.019,318.31c-48.352-48.351-112.639-74.98-181.018-74.98c-5.095,0-10.164,0.166-15.21,0.459
		c62.659,3.648,121.061,29.772,165.809,74.521c48.352,48.352,74.981,112.64,74.981,181.019v5.069c0,4.199-3.405,7.604-7.604,7.604
		h30.419c4.199,0,7.604-3.405,7.604-7.604v-5.069C512,430.949,485.371,366.662,437.019,318.31z"/>
	<path style="fill:#89BF43;" d="M78.267,438.189l-4.762,4.762l-4.762-4.762c-2.97-2.97-7.784-2.97-10.753,0
		c-2.97,2.97-2.97,7.784,0,10.753l10.139,10.139c1.484,1.485,3.431,2.227,5.376,2.227c1.947,0,3.892-0.742,5.376-2.227
		l10.139-10.139c2.97-2.97,2.97-7.784,0-10.753C86.051,435.221,81.235,435.221,78.267,438.189z"/>
	<path style="fill:#89BF43;" d="M169.514,438.189l-4.762,4.762l-4.762-4.762c-2.97-2.97-7.784-2.97-10.754,0s-2.97,7.784,0,10.753
		l10.139,10.139c1.484,1.485,3.431,2.227,5.376,2.227c1.947,0,3.892-0.742,5.376-2.227l10.139-10.139c2.97-2.97,2.97-7.784,0-10.753
		C177.298,435.221,172.482,435.221,169.514,438.189z"/>
	<path style="fill:#89BF43;" d="M260.761,438.189l-4.762,4.762l-4.762-4.762c-2.97-2.97-7.784-2.97-10.754,0s-2.97,7.784,0,10.753
		l10.139,10.139c1.484,1.485,3.431,2.227,5.376,2.227c1.947,0,3.892-0.742,5.376-2.227l10.139-10.139c2.97-2.97,2.97-7.784,0-10.753
		C268.545,435.221,263.731,435.221,260.761,438.189z"/>
	<path style="fill:#89BF43;" d="M352.008,438.189l-4.762,4.762l-4.762-4.762c-2.97-2.97-7.784-2.97-10.754,0s-2.97,7.784,0,10.753
		l10.139,10.139c1.484,1.485,3.431,2.227,5.376,2.227c1.946,0,3.892-0.742,5.376-2.227l10.139-10.139c2.97-2.97,2.97-7.784,0-10.753
		C359.793,435.221,354.978,435.221,352.008,438.189z"/>
	<path style="fill:#89BF43;" d="M454.008,438.189c-2.97-2.97-7.784-2.97-10.754,0l-4.762,4.762l-4.762-4.762
		c-2.97-2.97-7.784-2.97-10.754,0s-2.97,7.784,0,10.753l10.139,10.139c1.484,1.485,3.431,2.227,5.376,2.227s3.892-0.742,5.376-2.227
		l10.139-10.139C456.979,445.974,456.979,441.159,454.008,438.189z"/>
	<path style="fill:#89BF43;" d="M169.514,296.247l-4.762,4.762l-4.762-4.762c-2.97-2.97-7.784-2.97-10.754,0s-2.97,7.784,0,10.754
		l10.139,10.139c1.484,1.485,3.431,2.227,5.376,2.227c1.947,0,3.892-0.742,5.376-2.227l10.139-10.139c2.97-2.97,2.97-7.784,0-10.754
		C177.298,293.279,172.482,293.279,169.514,296.247z"/>
	<path style="fill:#89BF43;" d="M260.761,296.247l-4.762,4.762l-4.762-4.762c-2.97-2.97-7.784-2.97-10.754,0s-2.97,7.784,0,10.754
		l10.139,10.139c1.484,1.485,3.431,2.227,5.376,2.227c1.947,0,3.892-0.742,5.376-2.227l10.139-10.139c2.97-2.97,2.97-7.784,0-10.754
		C268.545,293.279,263.731,293.279,260.761,296.247z"/>
	<path style="fill:#89BF43;" d="M352.008,296.247l-4.762,4.762l-4.762-4.762c-2.97-2.97-7.784-2.97-10.754,0s-2.97,7.784,0,10.754
		l10.139,10.139c1.484,1.485,3.431,2.227,5.376,2.227c1.946,0,3.892-0.742,5.376-2.227l10.139-10.139c2.97-2.97,2.97-7.784,0-10.754
		C359.793,293.279,354.978,293.279,352.008,296.247z"/>
	<path style="fill:#89BF43;" d="M123.892,367.219l-4.762,4.762l-4.762-4.762c-2.97-2.97-7.784-2.97-10.753,0
		c-2.97,2.97-2.97,7.784,0,10.753l10.139,10.139c1.484,1.485,3.431,2.227,5.376,2.227c1.946,0,3.892-0.742,5.376-2.227
		l10.139-10.139c2.97-2.97,2.97-7.784,0-10.753C131.677,364.251,126.862,364.251,123.892,367.219z"/>
	<path style="fill:#89BF43;" d="M215.14,367.219l-4.762,4.762l-4.762-4.762c-2.97-2.97-7.784-2.97-10.753,0
		c-2.97,2.97-2.97,7.784,0,10.753l10.139,10.139c1.484,1.485,3.431,2.227,5.376,2.227c1.946,0,3.892-0.742,5.376-2.227
		l10.139-10.139c2.97-2.97,2.97-7.784,0-10.753C222.924,364.251,218.108,364.251,215.14,367.219z"/>
	<path style="fill:#89BF43;" d="M306.387,367.219l-4.762,4.762l-4.762-4.762c-2.97-2.97-7.784-2.97-10.753,0
		c-2.97,2.97-2.97,7.784,0,10.753l10.139,10.139c1.484,1.485,3.431,2.227,5.376,2.227c1.946,0,3.892-0.742,5.376-2.227
		l10.139-10.139c2.97-2.97,2.97-7.784,0-10.753C314.17,364.251,309.355,364.251,306.387,367.219z"/>
	<path style="fill:#89BF43;" d="M397.634,367.219l-4.762,4.762l-4.762-4.762c-2.97-2.97-7.784-2.97-10.753,0
		c-2.97,2.97-2.97,7.784,0,10.753l10.139,10.139c1.484,1.485,3.431,2.227,5.376,2.227c1.946,0,3.892-0.742,5.376-2.227
		l10.139-10.139c2.97-2.97,2.97-7.784,0-10.753C405.417,364.251,400.602,364.251,397.634,367.219z"/>
</g>
<g>
</g>
<g>
</g>
<g>
</g>
<g>
</g>
<g>
</g>
<g>
</g>
<g>
</g>
<g>
</g>
<g>
</g>
<g>
</g>
<g>
</g>
<g>
</g>
<g>
</g>
<g>
</g>
<g>
</g>
</svg>
