<?xml version="1.0" encoding="iso-8859-1"?>
<!-- Generator: Adobe Illustrator 19.0.0, SVG Export Plug-In . SVG Version: 6.00 Build 0)  -->
<svg version="1.1" id="Capa_1" xmlns="http://www.w3.org/2000/svg" xmlns:xlink="http://www.w3.org/1999/xlink" x="0px" y="0px"
	 viewBox="0 0 512 512" style="enable-background:new 0 0 512 512;" xml:space="preserve">
<path style="fill:#21D8DE;" d="M430.35,293.583l74.133,150.311H241.48c140.29,0,130.6-150.311,130.6-150.311H430.35z"/>
<polygon style="fill:#11B9C1;" points="430.35,293.583 400.285,293.583 474.419,443.894 504.484,443.894 "/>
<path style="fill:#A0D860;" d="M372.08,293.583H82.672L7.517,443.894h233.964C381.77,443.894,372.08,293.583,372.08,293.583z"/>
<path style="fill:#927266;" d="M337.228,293.583c-23.99,41.285-53.631,75.155-73.151,75.155c-19.5,0-49.141-33.87-73.131-75.155
	c-22.226-38.239-39.603-82.821-39.603-112.743c0-62.269,50.464-112.733,112.733-112.733c62.27,0,112.744,50.464,112.744,112.733
	C376.82,210.763,359.445,255.344,337.228,293.583z"/>
<g>
	<polygon style="fill:#A0D860;" points="261.521,133.252 261.521,233.459 211.418,233.459 	"/>
	<polygon style="fill:#A0D860;" points="261.521,133.252 311.625,233.459 261.521,233.459 	"/>
</g>
<path style="fill:#775146;" d="M264.077,68.108c-5.098,0-10.114,0.345-15.032,1c55.16,7.349,97.711,54.563,97.711,111.733
	c0,29.922-17.376,74.504-39.593,112.743c-18.42,31.702-40.169,59.011-58.113,69.991c5.422,3.32,10.501,5.165,15.027,5.165
	c19.52,0,49.162-33.87,73.151-75.155c22.217-38.239,39.593-82.821,39.593-112.743C376.82,118.572,326.345,68.108,264.077,68.108z"/>
<path d="M511.225,440.573l-74.132-150.317c-1.266-2.566-3.879-4.192-6.741-4.192h-80.307c4.819-8.925,9.292-17.988,13.348-27.088
	c6.513-14.69,11.594-28.549,15.101-41.194c3.838-13.849,5.802-26.275,5.842-36.936c0-13.548-2.245-26.866-6.664-39.562
	c-4.269-12.275-10.482-23.719-18.468-34.02c-5.481-7.085-11.774-13.568-18.689-19.27c-6.964-5.732-14.57-10.682-22.607-14.71
	c-8.187-4.108-16.845-7.265-25.733-9.389c-9.149-2.195-18.598-3.307-28.088-3.307h-0.01h-0.01c-14.149,0-28.008,2.445-41.195,7.245
	c-12.746,4.651-24.541,11.384-35.052,20.021c-1.553,1.273-2.515,3.076-2.706,5.07c-0.2,1.994,0.391,3.948,1.663,5.501
	c1.433,1.754,3.557,2.746,5.812,2.746c1.734,0,3.427-0.601,4.77-1.704c9.219-7.566,19.54-13.458,30.663-17.516
	c11.524-4.199,23.659-6.333,36.055-6.333c8.317,0,16.594,0.972,24.59,2.886c7.776,1.864,15.352,4.63,22.508,8.217
	c7.035,3.527,13.688,7.856,19.771,12.877c6.053,4.98,11.564,10.662,16.374,16.865c6.994,9.029,12.426,19.049,16.163,29.762
	c3.858,11.093,5.812,22.737,5.822,34.622c0.03,13.588-4.179,32.407-11.865,53c-6.694,18.041-15.897,37.251-26.285,55.22
	c-0.378,0.501-0.699,1.046-0.943,1.633c-6.338,10.842-13.097,21.204-19.989,30.538c-9.239,12.536-18.448,22.827-26.645,29.762
	c-4.048,3.437-7.987,6.163-11.404,7.866c-3.016,1.523-5.872,2.355-8.037,2.355h-0.06c-2.906,0.06-7.195-1.543-11.624-4.359
	c-8.618-5.391-19.26-15.903-29.942-29.611c-8.386-10.716-16.765-23.243-24.559-36.573c-0.246-0.584-0.568-1.127-0.946-1.626
	c-6.766-11.699-13.069-23.981-18.506-36.195c-12.546-28.049-19.711-54.293-19.641-72.009c0-21.995,6.714-43.059,19.41-60.916
	c2.395-3.387,1.603-8.087-1.774-10.482c-1.283-0.912-2.786-1.393-4.349-1.393c-2.425,0-4.72,1.182-6.133,3.156
	c-7.075,9.951-12.566,20.873-16.334,32.457c-3.888,11.975-5.852,24.481-5.852,37.177c0.03,15.793,4.329,35.383,12.796,58.23
	c5.647,15.148,13.073,31.387,21.491,46.989H82.673c-2.847,0-5.449,1.608-6.722,4.155L0.794,440.536
	c-1.165,2.33-1.041,5.097,0.329,7.312s3.789,3.564,6.393,3.564h496.968c2.597,0,5.01-1.341,6.382-3.547
	C512.238,445.661,512.374,442.903,511.225,440.573z M87.318,301.097h99.339c6.17,10.345,12.675,20.216,19.199,29.058
	c10.061,13.638,19.821,24.501,29.01,32.307c5.07,4.309,9.78,7.526,14.38,9.84c5.291,2.645,10.151,3.938,14.831,3.948
	c6.173-0.03,12.416-2.154,19.641-6.674c10.472-6.624,21.525-17.446,33.78-33.068c8.2-10.486,16.273-22.401,24.02-35.411h23.177
	c-0.185,18.271-3.752,68.161-35.275,101.781c-20.846,22.232-50.433,33.505-87.939,33.505H19.676L87.318,301.097z M309.724,436.382
	c11.515-5.976,21.751-13.723,30.659-23.224c35.41-37.765,39.263-91.792,39.374-112.061h45.92l66.72,135.286L309.724,436.382
	L309.724,436.382z"/>
<path d="M206.714,389.082c2.935-2.936,2.934-7.694-0.002-10.629l-10.015-10.011c-0.001-0.001-0.003-0.003-0.004-0.005
	c-0.022-0.022-0.047-0.041-0.07-0.064c-0.153-0.15-0.312-0.296-0.479-0.433c-0.091-0.076-0.188-0.141-0.283-0.211
	c-0.102-0.076-0.202-0.155-0.309-0.226c-0.013-0.009-0.026-0.02-0.039-0.029c-0.096-0.064-0.198-0.116-0.297-0.175
	c-0.098-0.058-0.193-0.12-0.295-0.174c-0.116-0.062-0.236-0.115-0.356-0.171c-0.103-0.048-0.204-0.1-0.31-0.143
	c-0.119-0.049-0.241-0.089-0.362-0.132c-0.11-0.039-0.218-0.082-0.332-0.116c-0.124-0.037-0.25-0.065-0.375-0.096
	c-0.112-0.028-0.223-0.059-0.338-0.082c-0.149-0.03-0.3-0.048-0.45-0.069c-0.092-0.012-0.183-0.03-0.277-0.04
	c-0.496-0.049-0.996-0.049-1.492,0c-0.089,0.009-0.175,0.026-0.263,0.038c-0.155,0.021-0.312,0.04-0.465,0.071
	c-0.109,0.022-0.215,0.052-0.323,0.079c-0.13,0.032-0.262,0.061-0.39,0.1c-0.109,0.033-0.213,0.074-0.321,0.112
	c-0.124,0.044-0.25,0.085-0.373,0.136c-0.101,0.042-0.197,0.091-0.296,0.137c-0.124,0.058-0.247,0.113-0.369,0.177
	c-0.096,0.052-0.186,0.11-0.281,0.166c-0.09,0.053-0.182,0.102-0.271,0.159c-0.013,0.008-0.026,0.015-0.038,0.023
	c-0.014,0.009-0.026,0.02-0.04,0.029c-0.103,0.069-0.2,0.147-0.301,0.221c-0.096,0.072-0.195,0.139-0.29,0.216
	c-0.167,0.138-0.329,0.286-0.483,0.437c-0.021,0.021-0.044,0.038-0.065,0.059l-10.02,10.021c-2.935,2.935-2.934,7.694,0.001,10.629
	c1.468,1.467,3.391,2.201,5.314,2.201c0.753,0,1.505-0.116,2.232-0.342l-7.547,7.547c-2.935,2.935-2.934,7.694,0.001,10.629
	c1.468,1.467,3.391,2.201,5.314,2.201c0.849,0,1.695-0.151,2.504-0.437v12.968c0,4.151,3.365,7.516,7.516,7.516
	s7.516-3.365,7.516-7.516v-12.973c0.81,0.286,1.655,0.437,2.504,0.437c1.924,0,3.848-0.734,5.315-2.203
	c2.935-2.936,2.934-7.694-0.002-10.628l-7.552-7.549c0.729,0.226,1.483,0.344,2.238,0.344
	C203.322,391.283,205.246,390.55,206.714,389.082z"/>
<path d="M86.464,389.082c2.935-2.936,2.934-7.694-0.002-10.629l-10.015-10.011c-0.001-0.001-0.003-0.003-0.004-0.005
	c-0.022-0.022-0.047-0.041-0.07-0.064c-0.153-0.15-0.313-0.296-0.479-0.433c-0.091-0.076-0.188-0.141-0.283-0.211
	c-0.102-0.076-0.202-0.155-0.309-0.226c-0.013-0.009-0.026-0.02-0.039-0.029c-0.096-0.064-0.198-0.116-0.297-0.175
	c-0.098-0.058-0.193-0.12-0.295-0.174c-0.116-0.062-0.236-0.115-0.355-0.171c-0.103-0.048-0.204-0.1-0.31-0.143
	c-0.119-0.049-0.24-0.089-0.362-0.132c-0.11-0.039-0.218-0.082-0.332-0.116c-0.124-0.037-0.251-0.065-0.376-0.096
	c-0.112-0.028-0.223-0.059-0.338-0.082c-0.149-0.03-0.3-0.048-0.45-0.069c-0.092-0.012-0.183-0.03-0.277-0.04
	c-0.496-0.049-0.996-0.049-1.492,0c-0.089,0.009-0.175,0.026-0.263,0.038c-0.155,0.021-0.312,0.04-0.465,0.071
	c-0.109,0.022-0.215,0.052-0.323,0.079c-0.13,0.032-0.262,0.061-0.39,0.1c-0.109,0.033-0.213,0.074-0.321,0.112
	c-0.124,0.044-0.25,0.085-0.373,0.136c-0.101,0.042-0.197,0.091-0.296,0.137c-0.124,0.058-0.248,0.113-0.369,0.177
	c-0.096,0.052-0.187,0.11-0.281,0.166c-0.09,0.053-0.182,0.102-0.271,0.159c-0.013,0.008-0.026,0.015-0.039,0.023
	c-0.014,0.009-0.026,0.02-0.04,0.029c-0.103,0.069-0.2,0.147-0.301,0.221c-0.096,0.072-0.195,0.139-0.289,0.216
	c-0.168,0.138-0.329,0.286-0.483,0.437c-0.021,0.021-0.044,0.038-0.065,0.059l-10.02,10.021c-2.935,2.935-2.934,7.694,0.001,10.629
	c1.468,1.467,3.391,2.201,5.314,2.201c0.754,0,1.505-0.116,2.232-0.342l-7.547,7.547c-2.935,2.935-2.934,7.694,0.001,10.629
	c1.468,1.467,3.391,2.201,5.314,2.201c0.849,0,1.695-0.151,2.504-0.437v12.968c0,4.151,3.365,7.516,7.516,7.516
	s7.516-3.365,7.516-7.516v-12.973c0.81,0.286,1.655,0.437,2.504,0.437c1.924,0,3.848-0.734,5.315-2.203
	c2.935-2.936,2.934-7.694-0.002-10.628l-7.552-7.549c0.729,0.226,1.482,0.344,2.238,0.344
	C83.072,391.283,84.996,390.55,86.464,389.082z"/>
<path d="M145.982,359.021c1.467,1.467,3.39,2.201,5.314,2.201c1.924,0,3.847-0.734,5.315-2.202
	c2.935-2.935,2.934-7.694-0.001-10.628l-20.039-20.035c-0.175-0.175-0.36-0.342-0.552-0.499c-0.007-0.006-0.013-0.013-0.02-0.018
	c-0.012-0.01-0.024-0.017-0.036-0.026c-0.07-0.057-0.145-0.105-0.216-0.159c-0.105-0.079-0.208-0.16-0.317-0.233
	c-0.11-0.073-0.225-0.138-0.338-0.205c-0.097-0.058-0.192-0.119-0.292-0.172c-0.116-0.063-0.236-0.115-0.356-0.171
	c-0.103-0.048-0.204-0.1-0.31-0.144c-0.117-0.048-0.236-0.088-0.356-0.13c-0.112-0.04-0.223-0.083-0.339-0.118
	c-0.12-0.036-0.242-0.063-0.363-0.093c-0.117-0.029-0.232-0.062-0.351-0.086c-0.139-0.027-0.28-0.044-0.42-0.063
	c-0.103-0.015-0.204-0.034-0.309-0.045c-0.248-0.024-0.495-0.037-0.744-0.037c-0.248,0-0.495,0.013-0.743,0.037
	c-0.106,0.011-0.21,0.031-0.315,0.046c-0.138,0.02-0.276,0.036-0.413,0.063c-0.122,0.025-0.24,0.058-0.359,0.088
	c-0.118,0.029-0.236,0.055-0.355,0.091c-0.118,0.036-0.231,0.08-0.348,0.121c-0.115,0.042-0.231,0.08-0.346,0.126
	c-0.108,0.045-0.212,0.098-0.319,0.148c-0.116,0.055-0.233,0.106-0.348,0.167c-0.103,0.055-0.2,0.117-0.301,0.177
	c-0.11,0.066-0.221,0.128-0.33,0.2c-0.112,0.074-0.217,0.158-0.325,0.238c-0.088,0.066-0.179,0.127-0.266,0.198
	c-0.192,0.157-0.377,0.324-0.552,0.499l-20.039,20.041c-2.935,2.935-2.935,7.694,0,10.628c1.467,1.468,3.391,2.202,5.314,2.202
	c1.923,0,3.847-0.733,5.314-2.202l7.212-7.212v8.799l-17.84,17.841c-2.935,2.935-2.935,7.694,0,10.628
	c1.467,1.468,3.391,2.202,5.314,2.202c1.923,0,3.847-0.733,5.314-2.202l7.212-7.212v21.944c0,4.151,3.365,7.516,7.516,7.516
	s7.516-3.365,7.516-7.516v-21.947l7.212,7.211c1.467,1.467,3.39,2.201,5.314,2.201c1.924,0,3.847-0.735,5.315-2.202
	c2.935-2.935,2.934-7.694-0.001-10.628l-17.84-17.836v-8.802L145.982,359.021z"/>
<path d="M321.646,215.927c-3.643,0-6.68,2.593-7.368,6.034l-46.034-92.069c-0.014-0.029-0.032-0.055-0.046-0.083
	c-0.034-0.067-0.067-0.134-0.104-0.2c-0.045-0.082-0.097-0.161-0.145-0.243c-0.045-0.075-0.09-0.151-0.137-0.224
	c-0.03-0.045-0.058-0.091-0.089-0.136c-0.057-0.083-0.12-0.163-0.18-0.245c-0.059-0.079-0.116-0.158-0.178-0.234
	c-0.024-0.029-0.047-0.059-0.071-0.088c-0.067-0.08-0.139-0.158-0.21-0.236c-0.07-0.077-0.139-0.155-0.212-0.228
	c-0.022-0.022-0.044-0.045-0.067-0.067c-0.075-0.074-0.153-0.144-0.231-0.214c-0.078-0.07-0.154-0.142-0.234-0.209
	c-0.029-0.024-0.058-0.047-0.087-0.071c-0.077-0.062-0.157-0.121-0.237-0.18c-0.08-0.06-0.16-0.122-0.243-0.178
	c-0.043-0.03-0.088-0.058-0.132-0.087c-0.076-0.049-0.155-0.096-0.233-0.143c-0.079-0.047-0.155-0.097-0.235-0.141
	c-0.064-0.036-0.129-0.068-0.194-0.101c-0.03-0.016-0.058-0.034-0.088-0.049c-0.048-0.024-0.098-0.041-0.145-0.064
	c-0.07-0.033-0.139-0.069-0.21-0.1c-0.079-0.035-0.159-0.065-0.24-0.097c-0.085-0.034-0.17-0.064-0.256-0.095
	c-0.06-0.021-0.12-0.045-0.181-0.065c-0.083-0.027-0.168-0.051-0.254-0.075c-0.094-0.027-0.187-0.052-0.283-0.075
	c-0.06-0.015-0.119-0.03-0.179-0.043c-0.08-0.018-0.161-0.032-0.242-0.047c-0.098-0.018-0.195-0.035-0.293-0.049
	c-0.07-0.01-0.141-0.02-0.211-0.027c-0.073-0.009-0.146-0.015-0.219-0.021c-0.094-0.008-0.187-0.016-0.282-0.02
	c-0.088-0.004-0.176-0.006-0.266-0.007c-0.033,0-0.065-0.005-0.099-0.005c-0.036,0-0.071,0.005-0.107,0.005
	c-0.08,0.002-0.16,0.003-0.24,0.006c-0.101,0.004-0.202,0.012-0.304,0.021c-0.076,0.006-0.151,0.014-0.227,0.022
	c-0.061,0.007-0.121,0.015-0.182,0.024c-0.104,0.015-0.208,0.032-0.314,0.052c-0.085,0.016-0.169,0.031-0.253,0.05
	c-0.05,0.011-0.099,0.024-0.149,0.036c-0.1,0.024-0.2,0.05-0.3,0.079c-0.089,0.025-0.178,0.051-0.267,0.08
	c-0.05,0.016-0.098,0.036-0.147,0.054c-0.092,0.032-0.184,0.064-0.276,0.101c-0.085,0.034-0.17,0.067-0.254,0.104
	c-0.059,0.025-0.115,0.056-0.173,0.083c-0.001,0-0.001,0.001-0.002,0.001c-0.056,0.026-0.112,0.046-0.167,0.074
	c-0.03,0.015-0.058,0.034-0.088,0.049c-0.069,0.036-0.139,0.071-0.207,0.109c-0.067,0.037-0.132,0.08-0.198,0.12
	c-0.087,0.052-0.173,0.103-0.258,0.157c-0.048,0.032-0.097,0.063-0.144,0.096c-0.071,0.049-0.138,0.102-0.207,0.153
	c-0.088,0.065-0.177,0.129-0.262,0.197c-0.033,0.027-0.065,0.053-0.098,0.08c-0.07,0.058-0.136,0.121-0.203,0.181
	c-0.085,0.077-0.17,0.152-0.252,0.232c-0.025,0.025-0.05,0.051-0.075,0.076c-0.065,0.066-0.126,0.135-0.189,0.204
	c-0.076,0.083-0.153,0.165-0.225,0.252c-0.026,0.031-0.051,0.064-0.077,0.096c-0.056,0.07-0.109,0.143-0.163,0.215
	c-0.063,0.085-0.129,0.168-0.189,0.256c-0.032,0.046-0.061,0.094-0.091,0.141c-0.046,0.07-0.088,0.142-0.132,0.214
	c-0.05,0.083-0.102,0.163-0.148,0.248c-0.036,0.066-0.069,0.134-0.104,0.2c-0.014,0.028-0.032,0.053-0.046,0.082l-46.034,92.07
	c-0.687-3.442-3.724-6.036-7.368-6.036c-4.151,0-7.516,3.365-7.516,7.516v10.021c0,4.151,3.365,7.516,7.516,7.516h9.989
	c0.009,0,0.018,0.002,0.026,0.002c0.007,0,0.014-0.002,0.021-0.002h100.176c0.007,0,0.014,0.002,0.022,0.002
	c0.008,0,0.017-0.002,0.026-0.002h9.989c4.151,0,7.516-3.365,7.516-7.516c0-0.007-0.001-0.013-0.001-0.02v-10.001
	C329.161,219.292,325.796,215.927,321.646,215.927z M269.038,165.089l30.428,60.858h-30.428V165.089z M254.007,225.947h-30.428
	l30.428-60.858V225.947z"/>
<path d="M426.559,398.5l-4.707,4.707l-4.707-4.707c-2.935-2.935-7.694-2.935-10.628,0l-4.707,4.707l-4.707-4.707
	c-2.935-2.935-7.694-2.935-10.628,0l-10.021,10.021c-2.935,2.935-2.935,7.694,0,10.628c1.467,1.467,3.391,2.202,5.314,2.202
	c1.923,0,3.847-0.734,5.314-2.202l4.707-4.707l4.707,4.707c1.467,1.467,3.391,2.202,5.314,2.202c1.923,0,3.847-0.734,5.314-2.202
	l4.707-4.707l4.707,4.707c1.467,1.467,3.391,2.202,5.314,2.202c1.923,0,3.847-0.734,5.314-2.202l4.707-4.707l4.707,4.707
	c1.467,1.467,3.391,2.202,5.314,2.202s3.847-0.734,5.314-2.202c2.935-2.935,2.935-7.694,0-10.628L437.187,398.5
	C434.252,395.565,429.494,395.565,426.559,398.5z"/>
<path d="M406.517,318.334l-10.021,10.021c-2.935,2.935-2.935,7.694,0,10.628c1.467,1.467,3.391,2.202,5.314,2.202
	c1.923,0,3.847-0.734,5.314-2.202l4.707-4.707l4.707,4.707c1.467,1.467,3.391,2.202,5.314,2.202c1.923,0,3.847-0.734,5.314-2.202
	c2.935-2.935,2.935-7.694,0-10.628l-10.021-10.021C414.211,315.399,409.452,315.399,406.517,318.334z"/>
<path d="M416.538,358.414l-4.707,4.707l-4.707-4.707c-2.935-2.935-7.694-2.935-10.628,0l-10.021,10.021
	c-2.935,2.935-2.935,7.694,0,10.628c1.467,1.467,3.391,2.202,5.314,2.202c1.923,0,3.847-0.733,5.314-2.202l4.707-4.707l4.707,4.707
	c1.467,1.467,3.391,2.202,5.314,2.202c1.923,0,3.847-0.733,5.314-2.202l4.707-4.707l4.707,4.707
	c1.467,1.467,3.391,2.202,5.314,2.202s3.847-0.733,5.314-2.202c2.935-2.935,2.935-7.694,0-10.628l-10.021-10.021
	C424.232,355.479,419.473,355.479,416.538,358.414z"/>
<g>
</g>
<g>
</g>
<g>
</g>
<g>
</g>
<g>
</g>
<g>
</g>
<g>
</g>
<g>
</g>
<g>
</g>
<g>
</g>
<g>
</g>
<g>
</g>
<g>
</g>
<g>
</g>
<g>
</g>
</svg>
