<?xml version="1.0" encoding="iso-8859-1"?>
<!-- Generator: Adobe Illustrator 19.0.0, SVG Export Plug-In . SVG Version: 6.00 Build 0)  -->
<svg version="1.1" id="Capa_1" xmlns="http://www.w3.org/2000/svg" xmlns:xlink="http://www.w3.org/1999/xlink" x="0px" y="0px"
	 viewBox="0 0 512 512" style="enable-background:new 0 0 512 512;" xml:space="preserve">
<path style="fill:#89BF43;" d="M511.225,440.573l-74.132-150.317c-1.266-2.566-3.879-4.192-6.741-4.192h-78.984h-14.214H82.673
	c-2.847,0-5.449,1.608-6.722,4.155L0.794,440.536c-1.165,2.33-1.041,5.097,0.329,7.312s3.789,3.564,6.393,3.564h496.968
	c2.597,0,5.01-1.341,6.382-3.546C512.238,445.659,512.374,442.902,511.225,440.573z"/>
<path style="fill:#A0D860;" d="M78.911,390.939c0.729,0.227,1.482,0.344,2.238,0.344c1.924,0,3.848-0.734,5.315-2.203
	c2.935-2.936,2.934-7.694-0.002-10.629l-10.015-10.011c-0.001-0.001-0.003-0.003-0.004-0.005c-0.367-0.367-0.763-0.687-1.179-0.963
	c-2.488-1.642-5.737-1.648-8.232-0.022c-0.013,0.008-0.026,0.015-0.039,0.023c-0.06,0.039-0.115,0.086-0.173,0.127
	c-0.352,0.247-0.69,0.521-1.005,0.836l-10.02,10.021c-2.935,2.935-2.934,7.694,0.001,10.629c1.468,1.467,3.391,2.201,5.314,2.201
	c0.754,0,1.505-0.116,2.232-0.342l-7.547,7.547c-2.935,2.935-2.934,7.694,0.001,10.629c1.468,1.467,3.391,2.201,5.314,2.201
	s3.847-0.734,5.315-2.202l4.707-4.707l4.705,4.703c1.467,1.467,3.39,2.201,5.313,2.201c1.924,0,3.848-0.733,5.315-2.203
	c2.935-2.936,2.934-7.694-0.002-10.628L78.911,390.939z"/>
<path style="fill:#927266;" d="M75.835,409.118l-4.705-4.703l-4.707,4.707c-0.82,0.82-1.785,1.402-2.811,1.765v12.968
	c0,4.151,3.365,7.516,7.516,7.516s7.516-3.365,7.516-7.516v-12.973C77.62,410.519,76.656,409.937,75.835,409.118z"/>
<path style="fill:#A0D860;" d="M199.16,390.939c0.729,0.227,1.483,0.344,2.238,0.344c1.924,0,3.848-0.734,5.315-2.203
	c2.935-2.936,2.934-7.694-0.002-10.629l-10.015-10.011c-0.001-0.001-0.003-0.003-0.004-0.005c-0.367-0.367-0.763-0.687-1.179-0.963
	c-2.488-1.642-5.737-1.648-8.232-0.022c-0.013,0.008-0.026,0.015-0.038,0.023c-0.06,0.039-0.115,0.086-0.173,0.127
	c-0.352,0.247-0.69,0.521-1.005,0.836l-10.02,10.021c-2.935,2.935-2.934,7.694,0.001,10.629c1.468,1.467,3.391,2.201,5.314,2.201
	c0.753,0,1.505-0.116,2.232-0.342l-7.547,7.547c-2.935,2.935-2.934,7.694,0.001,10.629c1.468,1.467,3.391,2.201,5.314,2.201
	s3.847-0.734,5.315-2.202l4.707-4.707l4.705,4.703c1.467,1.467,3.39,2.201,5.313,2.201c1.924,0,3.848-0.733,5.315-2.203
	c2.935-2.936,2.934-7.694-0.002-10.628L199.16,390.939z"/>
<g>
	<path style="fill:#927266;" d="M196.085,409.118l-4.705-4.703l-4.707,4.707c-0.82,0.82-1.785,1.402-2.811,1.765v12.968
		c0,4.151,3.365,7.516,7.516,7.516c4.151,0,7.516-3.365,7.516-7.516v-12.973C197.87,410.519,196.905,409.937,196.085,409.118z"/>
	<path style="fill:#927266;" d="M131.254,411.329c-4.151,0-7.516-3.365-7.516-7.516v-70.146c0-4.151,3.365-7.516,7.516-7.516
		c4.151,0,7.516,3.365,7.516,7.516v70.146C138.769,407.964,135.405,411.329,131.254,411.329z"/>
</g>
<g>
	<path style="fill:#A0D860;" d="M111.212,361.226c1.923,0,3.847-0.734,5.314-2.202l14.727-14.728l14.727,14.724
		c1.467,1.467,3.39,2.201,5.314,2.201c1.924,0,3.847-0.733,5.315-2.202c2.935-2.935,2.934-7.694-0.001-10.628l-20.041-20.037
		c-0.07-0.07-0.146-0.131-0.218-0.197c-0.116-0.108-0.23-0.219-0.352-0.318c-0.012-0.01-0.024-0.017-0.036-0.026
		c-1.371-1.105-3.039-1.658-4.708-1.658c-1.862,0-3.72,0.693-5.168,2.069c-0.048,0.045-0.099,0.084-0.145,0.131h-0.001l0,0l0,0
		l-20.04,20.042c-2.935,2.935-2.935,7.694,0,10.628C107.366,360.492,109.289,361.226,111.212,361.226z"/>
	<path style="fill:#A0D860;" d="M136.568,358.41c-0.07-0.07-0.146-0.13-0.218-0.198c-0.116-0.107-0.23-0.218-0.352-0.318
		c-0.012-0.009-0.024-0.017-0.036-0.026c-1.371-1.105-3.039-1.659-4.708-1.658c-1.862,0-3.72,0.694-5.168,2.069
		c-0.048,0.046-0.099,0.085-0.145,0.132h-0.001l0,0l0,0l-20.04,20.042c-2.935,2.935-2.935,7.694,0,10.628
		c1.467,1.468,3.391,2.202,5.314,2.202s3.847-0.734,5.314-2.202l14.727-14.728l14.727,14.724c1.467,1.467,3.39,2.201,5.314,2.201
		c1.924,0,3.847-0.734,5.315-2.202c2.935-2.935,2.934-7.694-0.001-10.629L136.568,358.41z"/>
</g>
<path style="fill:#11B9C1;" d="M437.092,290.256c-1.266-2.566-3.879-4.192-6.741-4.192h-65.65
	c0.049,23.051-2.491,96.87-35.283,131.844c-20.826,22.212-50.378,33.483-87.836,33.504h262.901c2.597,0,5.01-1.341,6.382-3.546
	c1.372-2.206,1.507-4.963,0.358-7.293L437.092,290.256z"/>
<path style="fill:#1499A3;" d="M511.225,440.573l-74.132-150.317c-1.266-2.566-3.879-4.192-6.741-4.192H402.29
	c2.861,0,5.474,1.624,6.741,4.192l74.132,150.317c1.148,2.33,1.013,5.088-0.358,7.293c-1.372,2.206-3.785,3.546-6.382,3.546h28.061
	c2.597,0,5.01-1.341,6.382-3.546C512.238,445.659,512.374,442.902,511.225,440.573z"/>
<g>
	<path style="fill:#21D8DE;" d="M447.208,408.52L437.188,398.5c-2.935-2.935-7.694-2.935-10.628,0l-4.707,4.707l-4.707-4.707
		c-2.935-2.935-7.694-2.935-10.628,0l-4.707,4.707l-4.707-4.707c-2.935-2.935-7.694-2.935-10.628,0l-10.021,10.021
		c-2.935,2.935-2.935,7.694,0,10.628c1.467,1.467,3.391,2.202,5.314,2.202c1.923,0,3.847-0.733,5.314-2.202l4.707-4.707l4.707,4.707
		c1.467,1.467,3.391,2.202,5.314,2.202c1.923,0,3.847-0.733,5.314-2.202l4.707-4.707l4.707,4.707
		c1.467,1.467,3.391,2.202,5.314,2.202s3.847-0.733,5.314-2.202l4.707-4.707l4.707,4.707c1.467,1.467,3.391,2.202,5.314,2.202
		s3.847-0.733,5.314-2.202C450.143,416.214,450.143,411.456,447.208,408.52z"/>
	<path style="fill:#21D8DE;" d="M391.79,381.264c1.923,0,3.847-0.734,5.314-2.202l4.707-4.707l4.707,4.707
		c1.467,1.467,3.391,2.202,5.314,2.202c1.923,0,3.847-0.734,5.314-2.202l4.707-4.707l4.707,4.707
		c1.467,1.467,3.391,2.202,5.314,2.202s3.847-0.734,5.314-2.202c2.935-2.935,2.935-7.694,0-10.628l-10.021-10.021
		c-2.935-2.935-7.694-2.935-10.628,0l-4.707,4.707l-4.707-4.707c-2.935-2.935-7.694-2.935-10.628,0l-10.021,10.021
		c-2.935,2.935-2.935,7.694,0,10.628C387.944,380.53,389.867,381.264,391.79,381.264z"/>
	<path style="fill:#21D8DE;" d="M401.81,341.184c1.923,0,3.847-0.733,5.314-2.202l4.707-4.707l4.707,4.707
		c1.467,1.467,3.391,2.202,5.314,2.202c1.923,0,3.847-0.733,5.314-2.202c2.935-2.935,2.935-7.694,0-10.628l-10.021-10.021
		c-2.935-2.935-7.694-2.935-10.628,0l-10.021,10.021c-2.935,2.935-2.935,7.694,0,10.628
		C397.964,340.451,399.887,341.184,401.81,341.184z"/>
</g>
<path style="fill:#927266;" d="M264.079,376.253c-30.063,0-66.463-56.839-76.903-74.26c-20.957-34.969-43.352-85.159-43.352-121.151
	c0-66.308,53.946-120.255,120.255-120.255c66.307,0,120.253,53.947,120.253,120.255c0,23.602-11.386,67.822-43.34,121.151
	C330.553,319.413,294.157,376.253,264.079,376.253z"/>
<path style="fill:#775146;" d="M264.079,60.588c-5.091,0-10.107,0.321-15.033,0.938c59.239,7.42,105.221,58.098,105.221,119.317
	c0,23.602-11.386,67.822-43.34,121.151c-8.741,14.588-35.684,56.809-61.877,70.158c5.085,2.592,10.141,4.102,15.03,4.102
	c30.078,0,66.474-56.84,76.913-74.26c31.954-53.327,43.34-97.548,43.34-121.151C384.331,114.534,330.387,60.588,264.079,60.588z"/>
<path style="fill:#A0D860;" d="M317.528,238.105c0.104-0.133,0.208-0.267,0.303-0.406c0.052-0.076,0.099-0.156,0.148-0.235
	c0.077-0.122,0.154-0.243,0.223-0.369c0.058-0.105,0.108-0.214,0.162-0.322c0.052-0.105,0.106-0.21,0.152-0.318
	c0.053-0.121,0.098-0.248,0.145-0.373c0.038-0.102,0.078-0.202,0.111-0.306c0.039-0.121,0.07-0.245,0.103-0.368
	c0.031-0.116,0.064-0.23,0.089-0.349c0.023-0.107,0.04-0.214,0.058-0.322c0.024-0.142,0.048-0.284,0.065-0.427
	c0.01-0.087,0.015-0.176,0.022-0.266c0.014-0.166,0.023-0.334,0.025-0.502c0-0.028,0.004-0.055,0.004-0.084
	c0-0.052-0.007-0.101-0.008-0.152c-0.003-0.171-0.011-0.343-0.026-0.514c-0.008-0.089-0.019-0.176-0.03-0.265
	c-0.019-0.152-0.041-0.305-0.069-0.457c-0.02-0.107-0.044-0.212-0.068-0.318c-0.03-0.128-0.061-0.255-0.098-0.382
	c-0.036-0.126-0.077-0.251-0.12-0.374c-0.037-0.105-0.073-0.209-0.114-0.314c-0.055-0.138-0.116-0.274-0.178-0.407
	c-0.028-0.06-0.049-0.121-0.079-0.18l-50.104-100.21c-0.024-0.049-0.054-0.093-0.079-0.14c-0.068-0.13-0.141-0.258-0.217-0.385
	c-0.054-0.09-0.109-0.179-0.167-0.267c-0.076-0.115-0.156-0.227-0.24-0.339c-0.067-0.09-0.135-0.18-0.206-0.267
	c-0.082-0.1-0.167-0.196-0.254-0.293c-0.081-0.088-0.162-0.176-0.246-0.261c-0.085-0.086-0.174-0.168-0.265-0.25
	c-0.095-0.086-0.19-0.17-0.29-0.252c-0.088-0.072-0.178-0.141-0.271-0.208c-0.109-0.082-0.219-0.16-0.333-0.235
	c-0.09-0.06-0.182-0.117-0.277-0.173c-0.122-0.073-0.246-0.143-0.371-0.209c-0.05-0.026-0.096-0.058-0.147-0.083
	c-0.048-0.024-0.098-0.041-0.145-0.064c-0.122-0.058-0.247-0.111-0.372-0.162c-0.111-0.046-0.222-0.09-0.335-0.129
	c-0.111-0.04-0.224-0.075-0.337-0.109c-0.126-0.038-0.253-0.075-0.38-0.106c-0.105-0.025-0.211-0.047-0.319-0.068
	c-0.132-0.026-0.264-0.052-0.397-0.071c-0.111-0.016-0.224-0.026-0.336-0.038c-0.126-0.012-0.252-0.024-0.377-0.031
	c-0.127-0.006-0.255-0.005-0.382-0.005c-0.11,0-0.22-0.001-0.33,0.005c-0.142,0.006-0.286,0.021-0.428,0.035
	c-0.095,0.01-0.189,0.019-0.284,0.032c-0.148,0.021-0.297,0.05-0.445,0.08c-0.09,0.019-0.181,0.036-0.271,0.058
	c-0.142,0.035-0.284,0.076-0.424,0.119c-0.097,0.03-0.194,0.06-0.291,0.094c-0.127,0.045-0.254,0.094-0.379,0.146
	c-0.109,0.045-0.217,0.092-0.325,0.142c-0.056,0.026-0.112,0.046-0.168,0.074c-0.059,0.03-0.112,0.065-0.169,0.096
	c-0.109,0.058-0.217,0.119-0.325,0.182c-0.108,0.065-0.214,0.131-0.319,0.2c-0.099,0.066-0.194,0.134-0.291,0.205
	c-0.105,0.078-0.208,0.156-0.31,0.238c-0.086,0.071-0.17,0.145-0.254,0.22c-0.101,0.091-0.2,0.183-0.296,0.28
	c-0.075,0.076-0.148,0.154-0.22,0.233c-0.095,0.103-0.187,0.209-0.277,0.318c-0.065,0.08-0.127,0.162-0.189,0.246
	c-0.087,0.117-0.172,0.235-0.253,0.357c-0.055,0.083-0.108,0.169-0.16,0.255c-0.077,0.129-0.151,0.259-0.22,0.391
	c-0.025,0.047-0.054,0.09-0.078,0.139L204.699,230.1c-0.03,0.059-0.051,0.121-0.079,0.18c-0.063,0.134-0.123,0.27-0.178,0.407
	c-0.041,0.104-0.078,0.208-0.114,0.314c-0.043,0.123-0.084,0.247-0.12,0.374c-0.037,0.126-0.068,0.254-0.098,0.382
	c-0.024,0.105-0.048,0.21-0.068,0.318c-0.028,0.152-0.05,0.304-0.069,0.457c-0.011,0.087-0.022,0.175-0.03,0.265
	c-0.015,0.171-0.022,0.343-0.026,0.514c-0.001,0.051-0.008,0.101-0.008,0.152c0,0.028,0.004,0.055,0.004,0.084
	c0.002,0.168,0.012,0.336,0.025,0.502c0.007,0.089,0.012,0.177,0.021,0.266c0.017,0.143,0.041,0.285,0.065,0.427
	c0.019,0.107,0.035,0.215,0.058,0.322c0.025,0.117,0.058,0.232,0.089,0.349c0.033,0.123,0.064,0.247,0.103,0.368
	c0.033,0.103,0.074,0.203,0.111,0.306c0.047,0.124,0.091,0.252,0.145,0.373c0.046,0.108,0.101,0.212,0.152,0.318
	c0.053,0.107,0.104,0.217,0.162,0.322c0.069,0.126,0.146,0.247,0.223,0.369c0.049,0.079,0.096,0.159,0.148,0.235
	c0.094,0.139,0.198,0.273,0.303,0.406c0.043,0.054,0.082,0.11,0.126,0.163c0.112,0.135,0.233,0.265,0.356,0.392
	c0.045,0.047,0.087,0.096,0.133,0.142c0.116,0.114,0.239,0.222,0.364,0.33c0.063,0.055,0.124,0.112,0.189,0.165
	c0.107,0.087,0.22,0.167,0.334,0.25c0.092,0.067,0.184,0.134,0.28,0.197c0.094,0.062,0.193,0.119,0.292,0.176
	c0.123,0.073,0.245,0.145,0.373,0.211c0.032,0.017,0.061,0.037,0.093,0.053c0.048,0.024,0.098,0.039,0.146,0.063
	c0.175,0.083,0.355,0.16,0.537,0.23c0.086,0.033,0.172,0.065,0.26,0.095c0.17,0.058,0.343,0.107,0.518,0.153
	c0.096,0.025,0.191,0.053,0.289,0.074c0.163,0.036,0.331,0.061,0.498,0.086c0.104,0.016,0.208,0.037,0.314,0.047
	c0.168,0.018,0.341,0.023,0.513,0.029c0.093,0.004,0.188,0.017,0.282,0.017c0.007,0,0.014-0.002,0.021-0.002h100.176
	c0.007,0,0.014,0.002,0.022,0.002c0.093,0,0.187-0.013,0.281-0.017c0.172-0.006,0.345-0.011,0.513-0.029
	c0.104-0.011,0.207-0.032,0.312-0.047c0.168-0.025,0.336-0.051,0.5-0.087c0.096-0.021,0.191-0.048,0.288-0.073
	c0.175-0.046,0.35-0.096,0.519-0.153c0.086-0.03,0.172-0.062,0.259-0.095c0.182-0.07,0.362-0.146,0.537-0.23
	c0.048-0.023,0.098-0.039,0.146-0.063c0.032-0.016,0.062-0.036,0.093-0.053c0.127-0.066,0.251-0.137,0.373-0.211
	c0.098-0.058,0.197-0.115,0.292-0.176c0.095-0.063,0.186-0.13,0.28-0.197c0.113-0.082,0.227-0.163,0.334-0.25
	c0.065-0.053,0.126-0.11,0.189-0.165c0.124-0.107,0.248-0.215,0.364-0.33c0.046-0.046,0.088-0.095,0.133-0.142
	c0.122-0.128,0.243-0.257,0.356-0.392C317.446,238.216,317.485,238.16,317.528,238.105z"/>
<path style="fill:#89BF43;" d="M254.007,240.978h15.031V131.478l-0.794-1.586c-0.024-0.049-0.054-0.093-0.079-0.14
	c-0.068-0.13-0.141-0.258-0.217-0.385c-0.054-0.09-0.109-0.179-0.167-0.267c-0.076-0.115-0.156-0.227-0.24-0.339
	c-0.067-0.09-0.135-0.18-0.206-0.267c-0.082-0.1-0.167-0.196-0.254-0.293c-0.081-0.088-0.162-0.176-0.246-0.261
	c-0.085-0.086-0.174-0.168-0.265-0.25c-0.095-0.086-0.19-0.17-0.29-0.252c-0.088-0.072-0.178-0.141-0.271-0.208
	c-0.109-0.082-0.219-0.16-0.333-0.235c-0.09-0.06-0.182-0.117-0.277-0.173c-0.122-0.073-0.246-0.143-0.371-0.209
	c-0.05-0.026-0.096-0.058-0.147-0.083c-0.048-0.024-0.098-0.041-0.145-0.064c-0.122-0.058-0.247-0.111-0.372-0.162
	c-0.111-0.046-0.222-0.09-0.335-0.129c-0.111-0.04-0.224-0.075-0.337-0.109c-0.126-0.038-0.253-0.075-0.38-0.106
	c-0.105-0.025-0.211-0.047-0.319-0.068c-0.132-0.026-0.264-0.052-0.397-0.071c-0.111-0.016-0.224-0.026-0.336-0.038
	c-0.126-0.012-0.252-0.024-0.377-0.031c-0.127-0.006-0.255-0.005-0.382-0.005c-0.11,0-0.22-0.001-0.33,0.005
	c-0.142,0.006-0.286,0.021-0.428,0.035c-0.095,0.01-0.189,0.019-0.284,0.032c-0.148,0.021-0.297,0.05-0.445,0.08
	c-0.09,0.019-0.181,0.036-0.271,0.058c-0.142,0.035-0.284,0.076-0.424,0.119c-0.097,0.03-0.194,0.06-0.291,0.094
	c-0.127,0.045-0.254,0.094-0.379,0.146c-0.109,0.045-0.217,0.092-0.325,0.142c-0.056,0.026-0.112,0.046-0.168,0.074
	c-0.059,0.03-0.112,0.065-0.169,0.096c-0.109,0.058-0.217,0.119-0.325,0.182c-0.108,0.065-0.214,0.131-0.319,0.2
	c-0.099,0.066-0.194,0.134-0.291,0.205c-0.105,0.078-0.208,0.156-0.31,0.238c-0.086,0.071-0.17,0.145-0.254,0.22
	c-0.101,0.091-0.2,0.183-0.296,0.28c-0.075,0.076-0.148,0.154-0.22,0.233c-0.095,0.103-0.187,0.209-0.277,0.318
	c-0.065,0.08-0.127,0.162-0.189,0.245c-0.087,0.117-0.172,0.235-0.253,0.357c-0.055,0.083-0.108,0.169-0.16,0.255
	c-0.077,0.129-0.151,0.259-0.22,0.391c-0.025,0.047-0.054,0.09-0.078,0.139l-0.794,1.586L254.007,240.978L254.007,240.978z"/>
<g>
	<path style="fill:#E5D8C6;" d="M326.656,240.978c-4.151,0-7.516-3.365-7.516-7.516v-10.021c0-4.151,3.365-7.516,7.516-7.516
		s7.516,3.365,7.516,7.516v10.021C334.171,237.613,330.807,240.978,326.656,240.978z"/>
	<path style="fill:#E5D8C6;" d="M196.389,240.978c-4.151,0-7.516-3.365-7.516-7.516v-10.021c0-4.151,3.365-7.516,7.516-7.516
		c4.151,0,7.516,3.365,7.516,7.516v10.021C203.904,237.613,200.54,240.978,196.389,240.978z"/>
</g>
<g>
</g>
<g>
</g>
<g>
</g>
<g>
</g>
<g>
</g>
<g>
</g>
<g>
</g>
<g>
</g>
<g>
</g>
<g>
</g>
<g>
</g>
<g>
</g>
<g>
</g>
<g>
</g>
<g>
</g>
</svg>
