<?xml version="1.0" encoding="iso-8859-1"?>
<!-- Generator: Adobe Illustrator 19.0.0, SVG Export Plug-In . SVG Version: 6.00 Build 0)  -->
<svg version="1.1" id="Capa_1" xmlns="http://www.w3.org/2000/svg" xmlns:xlink="http://www.w3.org/1999/xlink" x="0px" y="0px"
	 viewBox="0 0 512 512" style="enable-background:new 0 0 512 512;" xml:space="preserve">
<polygon style="fill:#927266;" points="353.962,240.786 504.389,473.943 68.497,473.943 109.035,414.975 179.996,311.747 
	203.17,311.747 249.193,240.695 249.334,240.786 291.506,261.06 "/>
<polygon style="fill:#775146;" points="353.962,240.786 301.644,159.709 286.408,183.233 323.548,240.786 473.974,473.943 
	504.389,473.943 "/>
<path style="fill:#FFB123;" d="M83.63,88.738c14.001,0,25.343,11.343,25.343,25.343c0,13.988-11.343,25.331-25.343,25.331
	c-14,0-25.343-11.343-25.343-25.331C58.288,100.082,69.632,88.738,83.63,88.738z"/>
<polygon style="fill:#F23939;" points="463.86,68.452 453.703,83.669 463.86,98.864 352.35,98.864 372.615,78.601 372.615,68.452 
	"/>
<polygon style="fill:#FF4C4D;" points="372.615,68.452 372.615,78.601 301.633,78.601 301.633,48.189 372.615,48.189 "/>
<polygon style="fill:#F3E8D6;" points="353.962,240.786 291.506,261.06 249.334,240.786 249.193,240.695 301.644,159.709 "/>
<polygon style="fill:#E5D8C6;" points="323.548,240.786 328.815,248.948 353.962,240.786 301.644,159.709 286.408,183.233 "/>
<path d="M510.778,469.824l-59.861-92.776c-1.409-2.18-3.791-3.488-6.397-3.488c-1.46,0-2.879,0.426-4.116,1.216
	c-1.703,1.105-2.879,2.798-3.305,4.785c-0.426,1.987-0.061,4.014,1.044,5.728l59.861,92.776c1.409,2.18,3.801,3.487,6.397,3.487
	c1.46,0,2.879-0.426,4.116-1.216c1.703-1.105,2.879-2.798,3.305-4.785C512.259,473.566,511.883,471.527,510.778,469.824z"/>
<path d="M309.239,157.464V86.203h45.017l-7.202,7.202c-1.433,1.383-2.328,3.319-2.328,5.469c0,2.648,1.355,4.977,3.409,6.34
	c0.051,0.033,0.104,0.062,0.156,0.094c0.156,0.098,0.314,0.195,0.477,0.282c0.077,0.042,0.156,0.075,0.234,0.113
	c0.143,0.069,0.285,0.14,0.432,0.2c0.094,0.04,0.191,0.07,0.285,0.104c0.136,0.05,0.271,0.101,0.41,0.143
	c0.115,0.035,0.23,0.061,0.346,0.089c0.123,0.031,0.243,0.066,0.368,0.09c0.168,0.033,0.338,0.056,0.508,0.077
	c0.073,0.01,0.145,0.024,0.219,0.031c0.255,0.025,0.511,0.041,0.767,0.041c0.014,0,0.027-0.002,0.042-0.002h111.469
	c0.005,0,0.011,0.001,0.016,0.001c0.021,0,0.042-0.004,0.063-0.005c0.304-0.002,0.602-0.026,0.897-0.065
	c0.094-0.012,0.188-0.026,0.282-0.043c0.275-0.046,0.545-0.105,0.809-0.178c0.05-0.014,0.099-0.023,0.148-0.039
	c0.32-0.097,0.63-0.219,0.931-0.356c0.062-0.027,0.122-0.059,0.183-0.088c0.309-0.15,0.61-0.316,0.894-0.505
	c0.002-0.001,0.005-0.003,0.007-0.004c0.001-0.001,0.002-0.001,0.003-0.002c0.214-0.143,0.421-0.296,0.618-0.459
	c0.055-0.045,0.102-0.094,0.155-0.141c0.132-0.116,0.265-0.231,0.388-0.355c0.113-0.113,0.214-0.232,0.318-0.351
	c0.058-0.066,0.12-0.128,0.174-0.195c0.097-0.119,0.186-0.244,0.275-0.368c0.056-0.076,0.115-0.151,0.167-0.229
	c0.073-0.109,0.138-0.225,0.205-0.338c0.061-0.101,0.124-0.2,0.18-0.304c0.049-0.092,0.09-0.188,0.136-0.282
	c0.063-0.13,0.128-0.26,0.183-0.394c0.03-0.073,0.054-0.148,0.081-0.222c0.06-0.157,0.12-0.315,0.169-0.477
	c0.019-0.063,0.031-0.127,0.049-0.19c0.048-0.173,0.095-0.347,0.131-0.525c0.02-0.102,0.031-0.207,0.048-0.311
	c0.021-0.138,0.048-0.275,0.063-0.416c0.025-0.252,0.038-0.506,0.039-0.759v-0.008c0-0.032-0.004-0.064-0.005-0.096
	c-0.003-0.218-0.011-0.436-0.032-0.654c-0.008-0.08-0.023-0.156-0.033-0.234c-0.022-0.168-0.044-0.337-0.077-0.505
	c-0.02-0.105-0.051-0.208-0.076-0.313c-0.033-0.135-0.064-0.272-0.104-0.404c-0.04-0.129-0.087-0.253-0.133-0.379
	c-0.039-0.105-0.073-0.213-0.117-0.317c-0.064-0.155-0.139-0.306-0.213-0.455c-0.035-0.072-0.067-0.147-0.105-0.218
	c-0.104-0.196-0.219-0.385-0.34-0.571c-0.016-0.024-0.028-0.051-0.045-0.074l-0.009-0.013c-0.006-0.01-0.013-0.02-0.019-0.029
	l-7.304-10.941l7.303-10.941c0.007-0.011,0.015-0.022,0.022-0.034l0.007-0.011c0.014-0.021,0.024-0.043,0.039-0.065
	c0.124-0.188,0.24-0.38,0.347-0.58c0.038-0.07,0.068-0.143,0.103-0.213c0.075-0.151,0.15-0.303,0.215-0.46
	c0.043-0.103,0.076-0.208,0.115-0.313c0.047-0.127,0.095-0.253,0.135-0.384c0.041-0.133,0.07-0.266,0.102-0.399
	c0.026-0.105,0.056-0.211,0.078-0.319c0.032-0.165,0.055-0.331,0.076-0.498c0.011-0.08,0.026-0.159,0.034-0.24
	c0.021-0.216,0.03-0.432,0.032-0.649c0-0.033,0.005-0.066,0.005-0.1v-0.008c0-0.254-0.012-0.508-0.039-0.759
	c-0.014-0.143-0.042-0.28-0.064-0.421c-0.016-0.102-0.026-0.205-0.047-0.307c-0.035-0.176-0.083-0.35-0.131-0.522
	c-0.017-0.064-0.03-0.129-0.049-0.192c-0.049-0.161-0.108-0.317-0.167-0.472c-0.028-0.076-0.053-0.152-0.083-0.228
	c-0.055-0.132-0.119-0.258-0.18-0.386c-0.047-0.097-0.089-0.195-0.14-0.29c-0.054-0.1-0.115-0.195-0.172-0.292
	c-0.07-0.117-0.137-0.235-0.213-0.35c-0.049-0.072-0.103-0.141-0.154-0.211c-0.093-0.131-0.186-0.262-0.289-0.386
	c-0.046-0.057-0.097-0.108-0.145-0.162c-0.114-0.131-0.226-0.262-0.349-0.384c-0.083-0.083-0.173-0.158-0.26-0.238
	c-0.094-0.086-0.184-0.175-0.283-0.256c-0.196-0.161-0.399-0.313-0.61-0.453c-0.003-0.002-0.005-0.004-0.007-0.006
	c-0.029-0.019-0.061-0.035-0.091-0.055c-0.179-0.117-0.363-0.229-0.552-0.329c-0.07-0.038-0.142-0.067-0.212-0.103
	c-0.152-0.075-0.304-0.15-0.463-0.216c-0.1-0.042-0.202-0.074-0.303-0.11c-0.131-0.048-0.26-0.097-0.394-0.139
	c-0.128-0.039-0.256-0.067-0.385-0.099c-0.112-0.026-0.221-0.059-0.335-0.081c-0.16-0.031-0.32-0.052-0.483-0.073
	c-0.085-0.011-0.169-0.027-0.254-0.035c-0.211-0.021-0.421-0.028-0.632-0.031c-0.04-0.001-0.077-0.006-0.117-0.006h-0.021
	c-0.009,0-0.017,0-0.026,0h-83.595V48.188c0-4.2-3.404-7.603-7.603-7.603h-63.372v-2.534c0-4.2-3.404-7.603-7.603-7.603
	s-7.603,3.403-7.603,7.603v119.427l-94.994,146.67h-19.037c-0.088,0-0.173,0.01-0.261,0.013c-0.15,0.006-0.3,0.009-0.449,0.022
	c-0.142,0.014-0.281,0.037-0.42,0.058c-0.101,0.016-0.203,0.027-0.304,0.047c-0.156,0.029-0.309,0.069-0.462,0.108
	c-0.084,0.021-0.168,0.04-0.251,0.065c-0.152,0.045-0.3,0.098-0.448,0.151c-0.084,0.03-0.169,0.06-0.252,0.092
	c-0.135,0.056-0.267,0.117-0.398,0.18c-0.094,0.044-0.191,0.087-0.283,0.136c-0.113,0.06-0.222,0.125-0.331,0.19
	c-0.105,0.064-0.213,0.125-0.316,0.192c-0.093,0.063-0.182,0.129-0.274,0.195c-0.11,0.08-0.222,0.158-0.328,0.244
	c-0.084,0.068-0.162,0.141-0.242,0.212c-0.103,0.091-0.209,0.182-0.309,0.28c-0.086,0.085-0.166,0.175-0.248,0.265
	c-0.084,0.091-0.17,0.18-0.25,0.276c-0.105,0.126-0.202,0.258-0.299,0.39c-0.045,0.062-0.094,0.118-0.138,0.18l-0.035,0.051
	c-0.002,0.004-0.004,0.007-0.006,0.01l-57.051,82.989V369.14c0.819,0.289,1.676,0.442,2.534,0.442c1.946,0,3.892-0.742,5.376-2.226
	c2.969-2.97,2.969-7.783,0-10.753l-7.91-7.911v-9.964c0.819,0.289,1.676,0.442,2.534,0.442c1.946,0,3.892-0.742,5.376-2.226
	c2.969-2.97,2.969-7.783,0-10.753l-10.137-10.137c-0.011-0.011-0.024-0.021-0.035-0.032c-0.167-0.164-0.34-0.321-0.521-0.471
	c-0.087-0.071-0.18-0.134-0.271-0.201c-0.108-0.082-0.215-0.165-0.327-0.241c-0.105-0.07-0.215-0.132-0.322-0.196
	c-0.105-0.063-0.209-0.129-0.317-0.188c-0.107-0.058-0.218-0.106-0.327-0.157c-0.116-0.055-0.23-0.111-0.349-0.161
	c-0.104-0.044-0.211-0.077-0.316-0.116c-0.129-0.047-0.255-0.096-0.386-0.136c-0.103-0.03-0.208-0.054-0.311-0.079
	c-0.137-0.035-0.272-0.073-0.412-0.101c-0.113-0.022-0.227-0.034-0.341-0.052c-0.132-0.02-0.262-0.045-0.395-0.058
	c-0.188-0.017-0.376-0.023-0.565-0.028c-0.061-0.001-0.12-0.009-0.18-0.009c-0.061,0-0.12,0.008-0.18,0.009
	c-0.189,0.005-0.377,0.011-0.565,0.028c-0.134,0.013-0.264,0.037-0.395,0.058c-0.114,0.017-0.228,0.029-0.341,0.052
	c-0.14,0.027-0.275,0.065-0.412,0.101c-0.103,0.025-0.208,0.049-0.31,0.079c-0.131,0.04-0.258,0.089-0.386,0.136
	c-0.105,0.039-0.212,0.072-0.316,0.116c-0.119,0.05-0.232,0.106-0.349,0.161c-0.109,0.052-0.22,0.1-0.327,0.157
	c-0.108,0.059-0.212,0.125-0.317,0.188c-0.107,0.065-0.216,0.125-0.321,0.195c-0.114,0.076-0.221,0.16-0.329,0.242
	c-0.089,0.067-0.181,0.129-0.269,0.2c-0.181,0.149-0.355,0.307-0.521,0.471c-0.011,0.012-0.024,0.021-0.035,0.032L93.532,326.19
	c-2.969,2.97-2.969,7.783,0,10.753c1.484,1.484,3.43,2.226,5.376,2.226c0.859,0,1.715-0.153,2.534-0.442v9.964l-7.91,7.911
	c-2.969,2.97-2.969,7.783,0,10.753c1.484,1.484,3.43,2.226,5.376,2.226c0.859,0,1.715-0.153,2.534-0.442v43.472L76.1,449.468
	v-29.182c0.819,0.289,1.676,0.443,2.534,0.443c1.945,0,3.892-0.742,5.376-2.226c2.969-2.97,2.969-7.783,0-10.754l-7.641-7.641
	c0.737,0.23,1.5,0.349,2.266,0.349c1.945,0,3.892-0.742,5.376-2.226c2.969-2.97,2.969-7.783,0-10.753L73.873,377.34
	c-0.011-0.011-0.024-0.021-0.035-0.032c-0.167-0.164-0.341-0.321-0.521-0.471c-0.087-0.071-0.18-0.134-0.271-0.201
	c-0.108-0.082-0.215-0.165-0.327-0.241c-0.105-0.07-0.215-0.132-0.322-0.196c-0.105-0.062-0.209-0.129-0.317-0.188
	c-0.107-0.058-0.218-0.105-0.327-0.157c-0.116-0.055-0.23-0.112-0.349-0.161c-0.104-0.044-0.211-0.077-0.316-0.116
	c-0.129-0.047-0.255-0.096-0.386-0.136c-0.103-0.03-0.208-0.054-0.311-0.079c-0.137-0.035-0.272-0.073-0.412-0.101
	c-0.113-0.021-0.227-0.034-0.341-0.052c-0.132-0.02-0.262-0.045-0.395-0.058c-0.188-0.018-0.376-0.023-0.565-0.028
	c-0.061-0.001-0.12-0.009-0.18-0.009c-0.061,0-0.12,0.008-0.18,0.009c-0.189,0.005-0.377,0.011-0.565,0.028
	c-0.134,0.013-0.264,0.038-0.395,0.058c-0.114,0.017-0.228,0.029-0.341,0.052c-0.14,0.027-0.275,0.066-0.412,0.101
	c-0.103,0.025-0.208,0.049-0.31,0.079c-0.131,0.04-0.258,0.089-0.386,0.136c-0.105,0.039-0.212,0.072-0.316,0.116
	c-0.119,0.05-0.232,0.106-0.349,0.161c-0.109,0.052-0.22,0.1-0.327,0.157c-0.108,0.059-0.213,0.125-0.318,0.189
	c-0.107,0.065-0.216,0.125-0.321,0.195c-0.114,0.076-0.221,0.16-0.329,0.242c-0.089,0.067-0.181,0.129-0.269,0.2
	c-0.181,0.149-0.355,0.307-0.521,0.471c-0.011,0.012-0.024,0.021-0.035,0.032l-10.137,10.137c-2.969,2.97-2.969,7.783,0,10.753
	c1.484,1.484,3.43,2.226,5.376,2.226c0.764,0,1.529-0.119,2.266-0.349l-7.641,7.641c-2.969,2.97-2.969,7.783,0,10.754
	c1.484,1.484,3.43,2.226,5.376,2.226c0.859,0,1.715-0.153,2.534-0.443v53.587c0,0.007,0,0.013,0,0.013v0.064
	c0,0.073,0.009,0.145,0.011,0.218c0.005,0.166,0.009,0.332,0.025,0.499c0.012,0.128,0.033,0.252,0.052,0.378
	c0.017,0.117,0.031,0.233,0.053,0.348c0.027,0.144,0.064,0.284,0.1,0.425c0.024,0.097,0.046,0.194,0.074,0.29
	c0.043,0.141,0.091,0.277,0.141,0.415c0.034,0.095,0.067,0.192,0.105,0.285c0.051,0.126,0.108,0.247,0.166,0.369
	c0.049,0.104,0.096,0.209,0.15,0.312c0.056,0.104,0.117,0.206,0.176,0.308c0.066,0.114,0.132,0.227,0.205,0.337
	c0.058,0.088,0.121,0.171,0.182,0.256c0.083,0.116,0.166,0.231,0.256,0.344c0.065,0.08,0.134,0.154,0.202,0.231
	c0.094,0.106,0.187,0.215,0.288,0.317c0.085,0.087,0.176,0.167,0.266,0.249c0.09,0.083,0.177,0.168,0.273,0.247
	c0.132,0.109,0.27,0.211,0.409,0.312c0.056,0.042,0.106,0.086,0.164,0.126c0.005,0.004,0.011,0.006,0.016,0.01
	c0.288,0.197,0.592,0.369,0.907,0.525c0.066,0.033,0.132,0.066,0.199,0.096c0.306,0.142,0.619,0.27,0.947,0.369
	c0.031,0.01,0.063,0.016,0.094,0.024c0.286,0.084,0.58,0.148,0.879,0.198c0.093,0.016,0.187,0.03,0.28,0.043
	c0.302,0.04,0.609,0.066,0.921,0.068c0.019,0,0.039,0.004,0.058,0.004c0.023,0,0.048-0.004,0.071-0.004
	c0.265-0.003,0.525-0.019,0.782-0.047c0.076-0.009,0.15-0.023,0.226-0.034c0.209-0.029,0.417-0.065,0.62-0.112
	c0.082-0.019,0.163-0.042,0.245-0.064c0.196-0.052,0.387-0.108,0.577-0.175c0.084-0.029,0.167-0.06,0.25-0.092
	c0.189-0.073,0.372-0.155,0.552-0.243c0.076-0.036,0.152-0.069,0.227-0.108c0.241-0.128,0.475-0.265,0.7-0.416
	c0.054-0.035,0.104-0.079,0.157-0.117c0.175-0.125,0.347-0.255,0.511-0.394c0.082-0.07,0.161-0.146,0.241-0.22
	c0.134-0.124,0.265-0.252,0.389-0.386c0.07-0.075,0.14-0.149,0.208-0.228c0.158-0.184,0.307-0.373,0.447-0.571
	c0.021-0.029,0.047-0.056,0.067-0.086l0.035-0.051c0.002-0.004,0.004-0.007,0.006-0.01l40.526-58.949
	c0.008-0.012,0.016-0.023,0.024-0.037l68.647-99.856h19.15c0.004,0,0.009,0.001,0.014,0.001c0.02,0,0.04-0.003,0.06-0.004
	c0.274-0.001,0.544-0.019,0.811-0.05c0.077-0.009,0.152-0.023,0.228-0.034c0.216-0.031,0.43-0.069,0.641-0.119
	c0.08-0.019,0.158-0.04,0.238-0.062c0.21-0.056,0.415-0.121,0.616-0.194c0.073-0.025,0.146-0.052,0.219-0.079
	c0.231-0.092,0.455-0.194,0.674-0.308c0.039-0.019,0.077-0.034,0.115-0.055c0.248-0.134,0.487-0.281,0.717-0.441
	c0.078-0.054,0.152-0.114,0.228-0.171c0.154-0.115,0.304-0.233,0.448-0.36c0.082-0.071,0.162-0.145,0.241-0.22
	c0.153-0.145,0.298-0.297,0.438-0.454c0.052-0.058,0.106-0.111,0.156-0.17c0.191-0.227,0.366-0.465,0.529-0.713
	c0.008-0.014,0.019-0.025,0.028-0.039l42.367-65.414l36.297,17.447c0.296,0.143,0.598,0.26,0.902,0.36
	c0.068,0.023,0.138,0.038,0.207,0.06c0.28,0.084,0.562,0.151,0.844,0.202c0.091,0.017,0.182,0.033,0.275,0.047
	c0.354,0.051,0.708,0.084,1.06,0.084h0.001c0.001,0,0.002,0,0.002,0c0.011,0,0.022-0.002,0.032-0.002
	c0.364-0.002,0.726-0.031,1.083-0.085c0.113-0.017,0.225-0.05,0.338-0.071c0.26-0.052,0.518-0.106,0.77-0.185
	c0.043-0.014,0.084-0.017,0.127-0.03l56.881-18.468l70.91,109.906c1.409,2.178,3.801,3.477,6.397,3.477
	c1.46,0,2.889-0.416,4.116-1.206c1.703-1.105,2.879-2.808,3.315-4.794c0.426-1.977,0.051-4.014-1.044-5.717L309.239,157.464z
	 M449.642,76.063l-2.259,3.385c-0.001,0.001-0.001,0.001-0.001,0.002c-0.283,0.425-0.522,0.872-0.712,1.339
	c-0.082,0.198-0.15,0.4-0.214,0.604c-0.009,0.027-0.021,0.056-0.029,0.084c-0.061,0.202-0.108,0.407-0.152,0.612
	c-0.007,0.033-0.018,0.066-0.024,0.1c-0.035,0.18-0.059,0.36-0.081,0.54c-0.008,0.065-0.021,0.129-0.027,0.193
	c-0.014,0.146-0.017,0.29-0.023,0.435c-0.004,0.104-0.013,0.207-0.013,0.311c0,0.104,0.009,0.207,0.013,0.311
	c0.006,0.145,0.009,0.291,0.023,0.436c0.006,0.064,0.018,0.126,0.026,0.19c0.022,0.181,0.046,0.363,0.082,0.544
	c0.007,0.032,0.017,0.066,0.024,0.099c0.044,0.205,0.092,0.411,0.153,0.612c0.007,0.024,0.017,0.048,0.024,0.071
	c0.065,0.208,0.135,0.414,0.218,0.616c0.191,0.467,0.43,0.915,0.713,1.34c0.001,0,0.001,0.001,0.001,0.001l2.257,3.38h-78.946
	l7.293-7.293c0.01-0.01,0.018-0.021,0.028-0.031c0.166-0.167,0.325-0.343,0.475-0.526c0.072-0.088,0.135-0.18,0.203-0.272
	c0.081-0.107,0.165-0.214,0.24-0.326c0.072-0.107,0.135-0.22,0.202-0.33c0.061-0.102,0.125-0.202,0.18-0.307
	c0.061-0.114,0.114-0.231,0.168-0.349c0.051-0.107,0.104-0.214,0.15-0.324c0.048-0.115,0.086-0.232,0.128-0.348
	c0.043-0.118,0.087-0.234,0.125-0.356c0.035-0.116,0.061-0.233,0.09-0.352c0.03-0.124,0.066-0.244,0.09-0.369
	c0.027-0.138,0.044-0.276,0.064-0.414c0.015-0.107,0.035-0.213,0.046-0.321c0.024-0.25,0.039-0.502,0.039-0.753v-2.534h69.426
	V76.063z M365.008,55.791v15.206h-55.769V55.791C309.238,55.791,365.008,55.791,365.008,55.791z M292.06,252.892l-31.806-15.288
	l41.379-63.888l40.578,62.895L292.06,252.892z"/>
<path d="M83.63,147.024c18.166,0,32.946-14.778,32.946-32.944c0-18.167-14.78-32.946-32.946-32.946S50.684,95.913,50.684,114.08
	C50.685,132.245,65.464,147.024,83.63,147.024z M83.63,96.34c9.781,0,17.74,7.959,17.74,17.74c0,9.78-7.959,17.738-17.74,17.738
	s-17.74-7.958-17.74-17.738C65.89,104.298,73.849,96.34,83.63,96.34z"/>
<path d="M83.631,65.929c4.199,0,7.603-3.403,7.603-7.603V38.052c0-4.2-3.404-7.603-7.603-7.603c-4.199,0-7.603,3.403-7.603,7.603
	v20.275C76.029,62.526,79.433,65.929,83.631,65.929z"/>
<path d="M76.029,169.836v20.275c0,4.2,3.404,7.603,7.603,7.603c4.199,0,7.603-3.403,7.603-7.603v-20.275
	c0-4.2-3.404-7.603-7.603-7.603C79.433,162.233,76.029,165.637,76.029,169.836z"/>
<path d="M38.831,80.033c1.485,1.485,3.43,2.227,5.377,2.227c1.945,0,3.892-0.742,5.376-2.226c2.969-2.969,2.969-7.783,0.001-10.752
	L35.248,54.945c-2.969-2.969-7.783-2.97-10.753-0.001c-2.969,2.969-2.969,7.783,0,10.752L38.831,80.033z"/>
<path d="M117.681,148.129c-2.969,2.969-2.969,7.783-0.001,10.753l14.336,14.336c1.485,1.485,3.43,2.227,5.377,2.227
	c1.945,0,3.892-0.742,5.376-2.226c2.969-2.969,2.969-7.783,0.001-10.752l-14.336-14.337
	C125.464,145.162,120.651,145.161,117.681,148.129z"/>
<path d="M35.48,114.081c0-4.2-3.404-7.603-7.603-7.603H7.603c-4.199,0-7.603,3.403-7.603,7.603s3.404,7.603,7.603,7.603h20.275
	C32.076,121.684,35.48,118.281,35.48,114.081z"/>
<path d="M131.785,114.081c0,4.2,3.404,7.603,7.603,7.603h20.275c4.199,0,7.603-3.403,7.603-7.603s-3.404-7.603-7.603-7.603h-20.275
	C135.189,106.478,131.785,109.882,131.785,114.081z"/>
<path d="M49.584,148.129c-2.97-2.968-7.782-2.969-10.753,0.001l-14.336,14.337c-2.969,2.969-2.968,7.783,0,10.752
	c1.485,1.484,3.43,2.226,5.376,2.226c1.946,0,3.892-0.742,5.377-2.227l14.336-14.336C52.554,155.913,52.553,151.098,49.584,148.129z
	"/>
<path d="M123.057,82.258c1.945,0,3.891-0.742,5.376-2.226l14.337-14.335c2.969-2.969,2.97-7.783,0.001-10.752
	c-2.969-2.97-7.783-2.969-10.753-0.001l-14.337,14.334c-2.969,2.969-2.97,7.783-0.001,10.753
	C119.165,81.515,121.111,82.258,123.057,82.258z"/>
<g>
</g>
<g>
</g>
<g>
</g>
<g>
</g>
<g>
</g>
<g>
</g>
<g>
</g>
<g>
</g>
<g>
</g>
<g>
</g>
<g>
</g>
<g>
</g>
<g>
</g>
<g>
</g>
<g>
</g>
</svg>
