<?xml version="1.0" encoding="iso-8859-1"?>
<!-- Generator: Adobe Illustrator 19.0.0, SVG Export Plug-In . SVG Version: 6.00 Build 0)  -->
<svg version="1.1" id="Capa_1" xmlns="http://www.w3.org/2000/svg" xmlns:xlink="http://www.w3.org/1999/xlink" x="0px" y="0px"
	 viewBox="0 0 512 512" style="enable-background:new 0 0 512 512;" xml:space="preserve">
<g>
	<path style="fill:#927266;" d="M510.07,499.305c0.065-0.074,0.136-0.143,0.198-0.219c0.096-0.117,0.181-0.239,0.27-0.36
		c0.058-0.079,0.119-0.154,0.173-0.235c0.067-0.1,0.125-0.205,0.187-0.307c0.067-0.111,0.138-0.219,0.199-0.334
		c0.039-0.07,0.068-0.144,0.104-0.216c0.075-0.151,0.152-0.301,0.217-0.458c0.014-0.033,0.023-0.068,0.036-0.102
		c0.216-0.539,0.368-1.11,0.455-1.702c0.016-0.108,0.039-0.216,0.05-0.325c0.006-0.061,0.006-0.123,0.011-0.184
		c0.016-0.195,0.028-0.39,0.029-0.586c0-0.007,0.001-0.015,0.001-0.022c0-0.054-0.007-0.104-0.008-0.158
		c-0.004-0.193-0.011-0.386-0.029-0.579c-0.008-0.082-0.021-0.162-0.032-0.244c-0.021-0.165-0.043-0.331-0.075-0.496
		c-0.02-0.099-0.047-0.197-0.07-0.295c-0.033-0.142-0.067-0.284-0.108-0.425c-0.034-0.114-0.077-0.224-0.117-0.337
		c-0.043-0.121-0.083-0.242-0.132-0.362c-0.054-0.128-0.115-0.251-0.174-0.377c-0.048-0.099-0.091-0.2-0.144-0.298
		c-0.074-0.14-0.158-0.275-0.241-0.409c-0.044-0.071-0.08-0.145-0.127-0.215L323.178,206.194c-0.28-0.426-0.605-0.828-0.974-1.197
		c-0.548-0.551-1.17-1.001-1.838-1.351c-0.07-0.038-0.144-0.067-0.215-0.101c-0.148-0.072-0.298-0.145-0.45-0.208
		c-0.124-0.051-0.248-0.09-0.374-0.134c-0.105-0.036-0.208-0.077-0.314-0.108c-0.144-0.043-0.287-0.076-0.432-0.109
		c-0.094-0.022-0.188-0.048-0.281-0.067c-0.141-0.027-0.281-0.047-0.423-0.065c-0.104-0.015-0.207-0.032-0.312-0.043
		c-0.125-0.012-0.248-0.016-0.373-0.021c-0.124-0.006-0.247-0.014-0.372-0.014c-0.103,0-0.206,0.007-0.309,0.011
		c-0.146,0.006-0.291,0.011-0.437,0.025c-0.082,0.008-0.164,0.022-0.246,0.033c-0.162,0.021-0.323,0.043-0.486,0.075
		c-0.074,0.014-0.147,0.035-0.221,0.052c-0.163,0.038-0.326,0.076-0.49,0.125c-0.088,0.026-0.174,0.061-0.262,0.09
		c-0.143,0.049-0.284,0.095-0.424,0.152c-0.144,0.059-0.283,0.128-0.423,0.196c-0.079,0.039-0.16,0.071-0.238,0.113
		c-0.667,0.351-1.29,0.802-1.838,1.351c-0.37,0.37-0.695,0.774-0.976,1.201L122.969,489.995c-0.006,0.008-0.011,0.016-0.016,0.024
		l-0.029,0.045c-0.03,0.046-0.054,0.094-0.083,0.141c-0.102,0.161-0.201,0.323-0.291,0.493c-0.042,0.078-0.075,0.157-0.114,0.235
		c-0.07,0.145-0.141,0.289-0.202,0.439c-0.043,0.103-0.076,0.207-0.114,0.311c-0.047,0.129-0.094,0.255-0.134,0.385
		c-0.038,0.128-0.067,0.256-0.099,0.384c-0.026,0.111-0.057,0.22-0.078,0.333c-0.03,0.153-0.051,0.307-0.07,0.461
		c-0.013,0.092-0.028,0.184-0.038,0.277c-0.018,0.184-0.023,0.366-0.027,0.549c-0.002,0.062-0.01,0.121-0.01,0.182
		c0,0.009,0.002,0.017,0.002,0.025c0,0.189,0.014,0.376,0.027,0.564c0.006,0.067,0.005,0.137,0.012,0.204
		c0.012,0.112,0.034,0.222,0.052,0.334c0.084,0.571,0.23,1.119,0.434,1.64c0.021,0.053,0.038,0.107,0.06,0.16
		c0.056,0.135,0.122,0.264,0.186,0.394c0.046,0.093,0.087,0.19,0.136,0.282c0.048,0.088,0.103,0.171,0.154,0.258
		c0.075,0.129,0.148,0.259,0.232,0.383c0.027,0.042,0.061,0.079,0.089,0.121c0.337,0.481,0.734,0.925,1.187,1.324
		c0.068,0.061,0.133,0.126,0.203,0.184c0.057,0.047,0.12,0.088,0.178,0.134c0.144,0.112,0.287,0.222,0.439,0.322
		c0.008,0.005,0.015,0.011,0.022,0.016c0.019,0.012,0.04,0.02,0.059,0.033c0.266,0.171,0.543,0.324,0.829,0.463
		c0.063,0.03,0.125,0.063,0.189,0.091c0.297,0.134,0.602,0.251,0.918,0.347c0.058,0.017,0.116,0.028,0.173,0.045
		c0.255,0.07,0.515,0.127,0.781,0.17c0.095,0.016,0.19,0.031,0.285,0.044c0.291,0.037,0.587,0.061,0.888,0.064
		c0.021,0,0.043,0.004,0.064,0.004c0.006,0,0.011-0.001,0.017-0.001h375.115c0.332,0,0.656-0.028,0.978-0.07
		c0.08-0.01,0.161-0.023,0.241-0.038c0.288-0.047,0.571-0.106,0.846-0.185c0.04-0.011,0.079-0.019,0.118-0.03
		c0.326-0.098,0.643-0.22,0.949-0.359c0.051-0.023,0.1-0.048,0.149-0.072c0.308-0.148,0.606-0.311,0.889-0.497
		c0.007-0.005,0.015-0.008,0.021-0.012c0.003-0.002,0.006-0.004,0.008-0.006c0.206-0.137,0.404-0.282,0.594-0.437
		c0.009-0.007,0.019-0.013,0.026-0.02c0.194-0.159,0.38-0.326,0.558-0.504C509.877,499.527,509.971,499.414,510.07,499.305z"/>
	<path style="fill:#927266;" d="M511.991,494.097c-0.004-0.193-0.011-0.386-0.029-0.579c-0.008-0.082-0.021-0.162-0.032-0.244
		c-0.021-0.165-0.043-0.331-0.075-0.496c-0.02-0.099-0.047-0.197-0.07-0.295c-0.033-0.142-0.067-0.284-0.108-0.425
		c-0.034-0.114-0.077-0.224-0.117-0.337c-0.043-0.121-0.083-0.242-0.132-0.362c-0.054-0.128-0.115-0.251-0.174-0.377
		c-0.048-0.099-0.091-0.2-0.144-0.298c-0.074-0.14-0.158-0.275-0.241-0.409c-0.044-0.071-0.08-0.145-0.127-0.215L323.178,206.194
		c-0.28-0.426-0.605-0.828-0.974-1.197c-0.548-0.551-1.17-1.001-1.838-1.351c-0.07-0.038-0.144-0.067-0.215-0.101
		c-0.148-0.072-0.298-0.145-0.45-0.208c-0.124-0.051-0.248-0.09-0.374-0.134c-0.105-0.036-0.208-0.077-0.314-0.108
		c-0.144-0.043-0.287-0.076-0.432-0.109c-0.094-0.022-0.188-0.048-0.281-0.067c-0.141-0.027-0.281-0.047-0.423-0.065
		c-0.104-0.015-0.207-0.032-0.312-0.043c-0.125-0.012-0.248-0.016-0.373-0.021c-0.124-0.006-0.247-0.014-0.372-0.014
		c-0.103,0-0.206,0.007-0.309,0.011c-0.146,0.006-0.291,0.011-0.437,0.025c-0.082,0.008-0.164,0.022-0.246,0.033
		c-0.162,0.021-0.323,0.043-0.486,0.075c-0.074,0.014-0.147,0.035-0.221,0.052c-0.163,0.038-0.326,0.076-0.49,0.125
		c-0.088,0.026-0.174,0.061-0.262,0.09c-0.143,0.049-0.284,0.095-0.424,0.152c-0.144,0.059-0.283,0.128-0.423,0.196
		c-0.079,0.039-0.16,0.071-0.238,0.113c-0.667,0.351-1.29,0.802-1.838,1.351c-0.37,0.37-0.695,0.774-0.976,1.201l-8.854,13.402
		l178.703,270.463c0.047,0.07,0.083,0.144,0.127,0.215c0.083,0.135,0.167,0.269,0.241,0.409c0.053,0.098,0.096,0.199,0.144,0.298
		c0.06,0.125,0.121,0.248,0.174,0.377c0.049,0.12,0.089,0.241,0.132,0.362c0.04,0.112,0.082,0.222,0.117,0.337
		c0.042,0.141,0.075,0.283,0.108,0.425c0.023,0.098,0.051,0.195,0.07,0.295c0.032,0.165,0.054,0.331,0.075,0.496
		c0.011,0.082,0.024,0.162,0.032,0.244c0.018,0.193,0.025,0.386,0.029,0.579c0.001,0.053,0.008,0.104,0.008,0.158
		c0,0.007-0.001,0.015-0.001,0.022c-0.001,0.196-0.014,0.391-0.029,0.586c-0.005,0.061-0.005,0.123-0.011,0.184
		c-0.011,0.109-0.033,0.217-0.05,0.325c-0.087,0.592-0.239,1.163-0.455,1.702c-0.013,0.033-0.023,0.068-0.036,0.102
		c-0.066,0.156-0.142,0.307-0.217,0.458c-0.035,0.072-0.065,0.146-0.104,0.216c-0.062,0.115-0.132,0.223-0.199,0.334
		c-0.062,0.102-0.119,0.207-0.187,0.307c-0.055,0.081-0.116,0.156-0.173,0.235c-0.088,0.121-0.173,0.243-0.27,0.36
		c-0.063,0.076-0.133,0.146-0.198,0.219c-0.098,0.109-0.193,0.222-0.296,0.326c-0.177,0.176-0.363,0.345-0.558,0.504
		c-0.008,0.007-0.018,0.013-0.026,0.02c-0.191,0.155-0.388,0.3-0.594,0.437c-0.002,0.002-0.005,0.004-0.008,0.006
		c-0.007,0.004-0.015,0.007-0.021,0.012c-0.283,0.186-0.581,0.349-0.889,0.497c-0.05,0.024-0.099,0.049-0.149,0.072
		c-0.306,0.139-0.622,0.261-0.949,0.359c-0.039,0.011-0.078,0.019-0.118,0.03c-0.276,0.078-0.558,0.138-0.846,0.185
		c-0.08,0.013-0.161,0.026-0.241,0.038c-0.321,0.041-0.647,0.07-0.978,0.07h30.422c0.332,0,0.656-0.028,0.978-0.07
		c0.08-0.01,0.161-0.023,0.241-0.038c0.288-0.047,0.571-0.106,0.846-0.185c0.04-0.011,0.079-0.019,0.118-0.03
		c0.326-0.098,0.643-0.22,0.949-0.359c0.051-0.023,0.1-0.048,0.149-0.072c0.308-0.148,0.606-0.311,0.889-0.497
		c0.007-0.005,0.015-0.008,0.021-0.012c0.003-0.002,0.006-0.004,0.008-0.006c0.206-0.137,0.404-0.282,0.594-0.437
		c0.009-0.007,0.019-0.013,0.026-0.02c0.194-0.159,0.38-0.326,0.558-0.504c0.104-0.104,0.198-0.217,0.296-0.326
		c0.065-0.074,0.136-0.143,0.198-0.219c0.096-0.117,0.181-0.239,0.27-0.36c0.058-0.079,0.119-0.154,0.173-0.235
		c0.067-0.1,0.125-0.205,0.187-0.307c0.067-0.111,0.138-0.219,0.199-0.334c0.039-0.07,0.068-0.144,0.104-0.216
		c0.075-0.151,0.152-0.301,0.217-0.458c0.014-0.033,0.023-0.068,0.036-0.102c0.216-0.539,0.368-1.11,0.455-1.702
		c0.016-0.108,0.039-0.216,0.05-0.325c0.006-0.061,0.006-0.123,0.011-0.184c0.016-0.195,0.028-0.39,0.029-0.586
		c0-0.007,0.001-0.015,0.001-0.022C511.999,494.201,511.992,494.15,511.991,494.097z"/>
</g>
<path style="fill:#775146;" d="M129.197,501.856c-0.301-0.003-0.597-0.026-0.888-0.064c-0.096-0.012-0.191-0.027-0.285-0.044
	c-0.266-0.044-0.525-0.1-0.781-0.17c-0.058-0.016-0.116-0.027-0.173-0.045c-0.316-0.095-0.62-0.213-0.918-0.347
	c-0.064-0.028-0.126-0.061-0.189-0.091c-0.286-0.138-0.565-0.291-0.829-0.463c-0.019-0.013-0.04-0.021-0.059-0.033
	c-0.008-0.005-0.015-0.011-0.022-0.016c-0.151-0.101-0.295-0.211-0.439-0.322c-0.059-0.046-0.122-0.087-0.178-0.134
	c-0.07-0.059-0.135-0.123-0.203-0.184c-0.453-0.4-0.851-0.845-1.187-1.324c-0.028-0.041-0.062-0.079-0.089-0.121
	c-0.084-0.125-0.157-0.254-0.232-0.383c-0.052-0.086-0.106-0.169-0.154-0.258c-0.049-0.092-0.09-0.189-0.136-0.282
	c-0.064-0.131-0.13-0.26-0.186-0.394c-0.021-0.053-0.039-0.106-0.06-0.16c-0.204-0.521-0.35-1.071-0.434-1.64
	c-0.017-0.111-0.04-0.221-0.052-0.334c-0.007-0.067-0.006-0.136-0.012-0.204c-0.014-0.188-0.027-0.375-0.027-0.564
	c0-0.008-0.002-0.017-0.002-0.025c0-0.062,0.008-0.122,0.01-0.182c0.004-0.184,0.01-0.366,0.027-0.549
	c0.009-0.093,0.024-0.185,0.038-0.277c0.02-0.154,0.04-0.308,0.07-0.461c0.022-0.113,0.052-0.222,0.078-0.333
	c0.031-0.129,0.062-0.258,0.099-0.384c0.04-0.131,0.087-0.258,0.134-0.385c0.038-0.103,0.071-0.208,0.114-0.311
	c0.062-0.15,0.132-0.294,0.202-0.439c0.039-0.078,0.072-0.158,0.114-0.235c0.09-0.169,0.189-0.333,0.291-0.493
	c0.029-0.047,0.053-0.094,0.083-0.141l0.029-0.045c0.005-0.008,0.01-0.016,0.016-0.024l87.011-131.697l-54.075-81.108
	c-0.15-0.23-0.314-0.452-0.49-0.667c-0.056-0.067-0.117-0.128-0.174-0.194c-0.106-0.121-0.21-0.241-0.323-0.356
	c-0.124-0.125-0.255-0.238-0.386-0.352c-0.056-0.049-0.106-0.1-0.163-0.147c-0.595-0.49-1.254-0.881-1.953-1.165
	c-0.149-0.062-0.302-0.109-0.453-0.161c-0.078-0.026-0.155-0.058-0.233-0.082c-0.179-0.054-0.36-0.095-0.54-0.135
	c-0.058-0.013-0.114-0.03-0.171-0.042c-0.169-0.033-0.34-0.055-0.511-0.077c-0.073-0.009-0.147-0.023-0.221-0.031
	c-0.145-0.014-0.29-0.017-0.435-0.023c-0.103-0.004-0.206-0.013-0.309-0.013c-0.114,0-0.227,0.009-0.34,0.014
	c-0.135,0.006-0.27,0.009-0.404,0.022c-0.085,0.008-0.169,0.024-0.253,0.035c-0.159,0.021-0.319,0.041-0.479,0.072
	c-0.071,0.014-0.14,0.034-0.21,0.051c-0.168,0.039-0.337,0.076-0.502,0.126c-0.1,0.029-0.197,0.069-0.295,0.103
	c-0.132,0.046-0.264,0.086-0.393,0.139c-0.7,0.285-1.361,0.676-1.957,1.168c-0.054,0.044-0.102,0.093-0.153,0.138
	c-0.134,0.117-0.268,0.232-0.394,0.359c-0.119,0.119-0.228,0.244-0.337,0.37c-0.054,0.061-0.108,0.117-0.16,0.178
	c-0.178,0.217-0.344,0.442-0.495,0.674L1.307,489.991c-0.006,0.01-0.013,0.02-0.019,0.029l-0.011,0.017
	c-0.019,0.028-0.033,0.059-0.053,0.088c-0.117,0.18-0.229,0.364-0.331,0.555c-0.039,0.072-0.069,0.146-0.105,0.219
	c-0.074,0.15-0.148,0.3-0.213,0.455c-0.043,0.102-0.076,0.207-0.114,0.311c-0.047,0.128-0.095,0.254-0.135,0.386
	c-0.04,0.131-0.069,0.263-0.101,0.394c-0.026,0.108-0.057,0.214-0.078,0.324c-0.032,0.162-0.054,0.325-0.074,0.489
	c-0.011,0.083-0.026,0.166-0.035,0.25c-0.019,0.209-0.027,0.418-0.031,0.627c0,0.041-0.006,0.079-0.006,0.12
	c0,0.003,0.001,0.007,0.001,0.011c0,0.253,0.012,0.507,0.039,0.759c0.013,0.131,0.039,0.258,0.058,0.386
	c0.018,0.114,0.029,0.228,0.053,0.341c0.034,0.173,0.082,0.344,0.129,0.513c0.018,0.067,0.031,0.135,0.052,0.202
	c0.048,0.156,0.105,0.308,0.163,0.46c0.029,0.08,0.055,0.161,0.087,0.239c0.054,0.127,0.115,0.249,0.174,0.373
	c0.049,0.101,0.093,0.204,0.147,0.303c0.051,0.095,0.108,0.185,0.163,0.277c0.072,0.123,0.143,0.245,0.222,0.364
	c0.044,0.066,0.094,0.127,0.14,0.191c0.098,0.137,0.196,0.275,0.303,0.406c0.041,0.049,0.085,0.093,0.127,0.141
	c0.119,0.138,0.237,0.275,0.368,0.406c0.078,0.079,0.164,0.149,0.245,0.225c0.099,0.09,0.194,0.185,0.297,0.27
	c0.196,0.162,0.401,0.313,0.613,0.454c0.002,0.001,0.005,0.004,0.007,0.005c0.008,0.005,0.016,0.008,0.023,0.013
	c0.279,0.185,0.573,0.346,0.875,0.494c0.063,0.03,0.125,0.062,0.188,0.09c0.3,0.136,0.608,0.257,0.928,0.353
	c0.052,0.016,0.103,0.025,0.154,0.04c0.263,0.073,0.53,0.131,0.802,0.176c0.095,0.016,0.19,0.031,0.283,0.044
	c0.295,0.038,0.592,0.062,0.896,0.065c0.021,0,0.042,0.004,0.063,0.004c0.006,0,0.011-0.001,0.017-0.001h121.629
	C129.23,501.858,129.214,501.856,129.197,501.856z"/>
<path style="fill:#F3E8D6;" d="M323.178,206.194c-0.28-0.426-0.605-0.828-0.974-1.197c-0.548-0.551-1.17-1.001-1.838-1.351
	c-0.07-0.038-0.144-0.067-0.215-0.101c-0.148-0.072-0.298-0.145-0.45-0.208c-0.124-0.051-0.248-0.09-0.374-0.134
	c-0.105-0.036-0.208-0.077-0.314-0.108c-0.144-0.043-0.287-0.076-0.432-0.109c-0.094-0.022-0.188-0.048-0.281-0.067
	c-0.141-0.027-0.281-0.047-0.423-0.065c-0.104-0.015-0.207-0.032-0.312-0.043c-0.125-0.012-0.248-0.016-0.373-0.021
	c-0.124-0.006-0.247-0.014-0.372-0.014c-0.103,0-0.206,0.007-0.309,0.011c-0.146,0.006-0.291,0.011-0.437,0.025
	c-0.082,0.008-0.164,0.022-0.246,0.033c-0.162,0.021-0.323,0.043-0.486,0.075c-0.074,0.014-0.147,0.035-0.221,0.052
	c-0.163,0.038-0.326,0.076-0.49,0.125c-0.088,0.026-0.174,0.061-0.262,0.09c-0.143,0.049-0.284,0.095-0.424,0.152
	c-0.144,0.059-0.283,0.128-0.423,0.196c-0.079,0.039-0.16,0.071-0.238,0.113c-0.667,0.351-1.29,0.802-1.838,1.351
	c-0.37,0.37-0.695,0.774-0.976,1.201L271.29,265.5l25.4,21.639c0.014,0.012,0.028,0.022,0.044,0.033
	c0.09,0.076,0.186,0.145,0.278,0.216c0.097,0.074,0.192,0.149,0.292,0.218c0.089,0.062,0.182,0.118,0.275,0.175
	c0.109,0.069,0.22,0.139,0.333,0.203c0.09,0.05,0.182,0.095,0.274,0.142c0.121,0.062,0.241,0.122,0.365,0.175
	c0.092,0.041,0.186,0.078,0.279,0.116c0.128,0.051,0.255,0.098,0.385,0.141c0.095,0.031,0.191,0.062,0.287,0.089
	c0.136,0.04,0.272,0.074,0.409,0.104c0.094,0.022,0.188,0.044,0.282,0.062c0.154,0.029,0.309,0.051,0.464,0.071
	c0.081,0.01,0.16,0.023,0.241,0.031c0.239,0.022,0.48,0.037,0.719,0.037c0.001,0,0.001,0,0.002,0c0.001,0,0.001,0,0.002,0h19.324
	l27.863,27.863c1.394,1.598,3.44,2.613,5.727,2.613c0.002,0,0.005,0,0.008,0l43.422-0.046L323.178,206.194z"/>
<g>
	<path style="fill:#E5D8C6;" d="M367.569,319.415l30.398-0.031l-74.79-113.191c-0.28-0.426-0.605-0.828-0.974-1.197
		c-0.548-0.551-1.17-1.001-1.838-1.351c-0.07-0.038-0.144-0.067-0.215-0.101c-0.148-0.072-0.298-0.145-0.45-0.208
		c-0.124-0.051-0.248-0.09-0.374-0.134c-0.105-0.036-0.208-0.077-0.314-0.108c-0.144-0.043-0.287-0.076-0.432-0.109
		c-0.094-0.022-0.188-0.048-0.281-0.067c-0.141-0.027-0.281-0.047-0.423-0.065c-0.104-0.015-0.207-0.032-0.312-0.043
		c-0.125-0.012-0.248-0.016-0.373-0.021c-0.124-0.006-0.247-0.014-0.372-0.014c-0.103,0-0.206,0.007-0.309,0.011
		c-0.146,0.006-0.291,0.011-0.437,0.025c-0.082,0.008-0.164,0.022-0.246,0.033c-0.162,0.021-0.323,0.043-0.486,0.075
		c-0.074,0.014-0.147,0.035-0.221,0.052c-0.163,0.038-0.326,0.076-0.49,0.125c-0.088,0.026-0.174,0.061-0.262,0.09
		c-0.143,0.049-0.284,0.095-0.424,0.152c-0.144,0.059-0.283,0.128-0.423,0.196c-0.079,0.039-0.16,0.071-0.238,0.113
		c-0.667,0.351-1.29,0.802-1.838,1.351c-0.37,0.37-0.696,0.774-0.976,1.201l-8.854,13.402L367.569,319.415z"/>
	<path style="fill:#E5D8C6;" d="M155.905,277.19c-0.15-0.23-0.314-0.452-0.49-0.667c-0.056-0.067-0.117-0.128-0.174-0.194
		c-0.106-0.121-0.21-0.241-0.323-0.356c-0.124-0.125-0.255-0.238-0.386-0.352c-0.056-0.049-0.106-0.1-0.163-0.147
		c-0.595-0.49-1.254-0.881-1.953-1.165c-0.149-0.062-0.302-0.109-0.453-0.161c-0.078-0.026-0.155-0.058-0.233-0.082
		c-0.179-0.054-0.36-0.095-0.54-0.135c-0.058-0.013-0.114-0.03-0.171-0.042c-0.169-0.033-0.34-0.055-0.511-0.077
		c-0.073-0.009-0.147-0.023-0.221-0.031c-0.145-0.014-0.29-0.017-0.435-0.023c-0.103-0.004-0.206-0.013-0.309-0.013
		c-0.114,0-0.227,0.009-0.34,0.014c-0.135,0.006-0.27,0.009-0.404,0.022c-0.085,0.008-0.169,0.024-0.253,0.035
		c-0.159,0.021-0.319,0.041-0.479,0.072c-0.071,0.014-0.14,0.034-0.21,0.051c-0.168,0.039-0.337,0.076-0.502,0.126
		c-0.1,0.029-0.197,0.069-0.295,0.103c-0.132,0.046-0.264,0.086-0.393,0.139c-0.7,0.285-1.361,0.676-1.957,1.168
		c-0.054,0.044-0.102,0.093-0.153,0.138c-0.134,0.117-0.268,0.232-0.394,0.359c-0.119,0.119-0.228,0.244-0.337,0.37
		c-0.054,0.061-0.108,0.117-0.16,0.178c-0.178,0.217-0.344,0.442-0.495,0.674l-35.198,52.797l31.609,18.626
		c0.049,0.028,0.1,0.047,0.148,0.074c0.117,0.066,0.238,0.121,0.36,0.18c0.231,0.114,0.462,0.218,0.699,0.306
		c0.127,0.048,0.254,0.09,0.384,0.132c0.252,0.079,0.507,0.143,0.763,0.195c0.121,0.024,0.238,0.053,0.361,0.072
		c0.364,0.056,0.73,0.089,1.094,0.091c0.016,0,0.03,0.004,0.047,0.004c0.314,0,0.634-0.021,0.952-0.062
		c0.105-0.014,0.209-0.042,0.313-0.059c0.198-0.033,0.396-0.061,0.594-0.111l50.34-12.658L155.905,277.19z"/>
</g>
<path style="fill:#FFB123;" d="M149.551,136.868c-20.965,0-38.02-17.055-38.02-38.02c0-20.964,17.055-38.019,38.02-38.019
	c20.964,0,38.019,17.055,38.019,38.019C187.569,119.812,170.514,136.868,149.551,136.868z"/>
<g>
	<path style="fill:#FF901D;" d="M149.551,45.62c-4.199,0-7.604-3.405-7.604-7.604V17.739c0-4.199,3.405-7.604,7.604-7.604
		c4.2,0,7.604,3.405,7.604,7.604v20.277C157.155,42.216,153.75,45.62,149.551,45.62z"/>
	<path style="fill:#FF901D;" d="M149.551,187.562c-4.199,0-7.604-3.405-7.604-7.604v-20.277c0-4.199,3.405-7.604,7.604-7.604
		c4.2,0,7.604,3.405,7.604,7.604v20.277C157.155,184.157,153.75,187.562,149.551,187.562z"/>
	<path style="fill:#FF901D;" d="M106.536,63.438c-1.946,0-3.892-0.742-5.377-2.227L86.822,46.872c-2.971-2.97-2.971-7.784,0-10.754
		c2.97-2.97,7.784-2.97,10.753,0l14.338,14.338c2.97,2.97,2.97,7.784,0,10.753C110.428,62.695,108.481,63.438,106.536,63.438z"/>
	<path style="fill:#FF901D;" d="M206.903,163.805c-1.946,0-3.892-0.742-5.377-2.227l-14.338-14.338
		c-2.971-2.97-2.971-7.784,0-10.754c2.97-2.97,7.784-2.97,10.753,0l14.338,14.338c2.97,2.97,2.97,7.784,0,10.754
		C210.795,163.063,208.848,163.805,206.903,163.805z"/>
	<path style="fill:#FF901D;" d="M88.719,106.453L88.719,106.453H68.442c-4.199,0-7.604-3.405-7.604-7.604
		c0-4.199,3.405-7.604,7.604-7.604c0.001,0,0,0,0,0h20.277c4.2,0,7.604,3.405,7.604,7.604
		C96.323,103.048,92.917,106.453,88.719,106.453z"/>
	<path style="fill:#FF901D;" d="M230.66,106.453h-20.277c-4.199,0-7.604-3.405-7.604-7.604c0-4.199,3.405-7.604,7.604-7.604h20.277
		c4.2,0,7.604,3.405,7.604,7.604C238.264,103.048,234.859,106.453,230.66,106.453z"/>
	<path style="fill:#FF901D;" d="M92.198,163.805c-1.946,0-3.892-0.742-5.378-2.227c-2.97-2.97-2.969-7.784,0.001-10.754
		l14.339-14.338c2.97-2.969,7.784-2.969,10.753,0.001c2.97,2.97,2.97,7.784,0,10.754l-14.339,14.338
		C96.09,163.063,94.143,163.805,92.198,163.805z"/>
	<path style="fill:#FF901D;" d="M192.566,63.439c-1.946,0-3.892-0.742-5.377-2.227c-2.971-2.97-2.971-7.783,0-10.753l14.338-14.338
		c2.97-2.97,7.784-2.971,10.753,0c2.97,2.97,2.97,7.783,0,10.754l-14.338,14.338C196.457,62.696,194.511,63.439,192.566,63.439z"/>
</g>
<g>
	<path style="fill:#0072A2;" d="M378.99,61.816c-0.772,0.437-16.366,9.4-27.812,24.753c-4.472-3.07-10.754-5.465-19.133-5.465
		c-4.2,0-7.604,3.405-7.604,7.604c0,4.199,3.404,7.604,7.604,7.604c10.146,0,13.091,5.172,13.393,5.762
		c-0.066-0.131-0.093-0.204-0.093-0.204l0.005-0.002c0.656,1.521,1.808,2.839,3.381,3.682c1.144,0.612,2.372,0.902,3.584,0.902
		c2.714,0,5.339-1.456,6.71-4.015c8.932-16.673,27.288-27.292,27.461-27.39c3.654-2.07,4.938-6.711,2.867-10.365
		C387.282,61.028,382.641,59.745,378.99,61.816z"/>
	<path style="fill:#0072A2;" d="M470.169,145.325c-2.33-3.494-7.05-4.438-10.544-2.109c-10.208,6.805-20.174,17.555-26.276,24.741
		c-4.815-5.44-11.486-12.131-17.093-14.639c-3.831-1.714-8.33,0.001-10.046,3.834c-1.715,3.833,0.001,8.331,3.834,10.046
		c3.708,1.66,11.899,10.326,17.36,17.403c0.039,0.051,0.084,0.093,0.124,0.143c0.113,0.139,0.231,0.275,0.355,0.408
		c0.083,0.089,0.168,0.176,0.256,0.261c0.101,0.098,0.207,0.193,0.315,0.287c0.111,0.096,0.222,0.191,0.337,0.28
		c0.025,0.019,0.049,0.043,0.074,0.062c0.032,0.024,0.069,0.041,0.102,0.064c0.275,0.199,0.559,0.378,0.854,0.537
		c0.058,0.031,0.115,0.066,0.174,0.096c0.329,0.167,0.666,0.31,1.014,0.426c0.068,0.023,0.139,0.039,0.208,0.06
		c0.281,0.086,0.567,0.154,0.855,0.206c0.097,0.018,0.194,0.035,0.291,0.05c0.356,0.05,0.713,0.085,1.073,0.085
		c0.03,0,0.062-0.007,0.091-0.007c0.32-0.004,0.64-0.032,0.957-0.077c0.123-0.017,0.243-0.04,0.365-0.062
		c0.264-0.051,0.523-0.115,0.78-0.192c0.094-0.028,0.189-0.05,0.282-0.082c0.339-0.117,0.668-0.261,0.99-0.425
		c0.081-0.043,0.159-0.09,0.239-0.135c0.275-0.154,0.54-0.325,0.797-0.514c0.044-0.032,0.092-0.054,0.136-0.087
		c0.03-0.023,0.058-0.051,0.088-0.075c0.089-0.071,0.174-0.147,0.26-0.222c0.136-0.118,0.267-0.237,0.391-0.362
		c0.067-0.068,0.134-0.138,0.199-0.209c0.145-0.156,0.281-0.317,0.41-0.483c0.029-0.038,0.063-0.069,0.091-0.106
		c0.146-0.193,14.634-19.375,28.552-28.655C471.554,153.541,472.499,148.819,470.169,145.325z"/>
</g>
<g>
</g>
<g>
</g>
<g>
</g>
<g>
</g>
<g>
</g>
<g>
</g>
<g>
</g>
<g>
</g>
<g>
</g>
<g>
</g>
<g>
</g>
<g>
</g>
<g>
</g>
<g>
</g>
<g>
</g>
</svg>
