<?xml version="1.0" encoding="iso-8859-1"?>
<!-- Generator: Adobe Illustrator 19.0.0, SVG Export Plug-In . SVG Version: 6.00 Build 0)  -->
<svg version="1.1" id="Capa_1" xmlns="http://www.w3.org/2000/svg" xmlns:xlink="http://www.w3.org/1999/xlink" x="0px" y="0px"
	 viewBox="0 0 511.999 511.999" style="enable-background:new 0 0 511.999 511.999;" xml:space="preserve">
<g>
	<path style="fill:#775146;" d="M68.498,481.553c-4.199,0-7.603-3.403-7.603-7.603v-91.234c0-4.2,3.404-7.603,7.603-7.603
		s7.603,3.403,7.603,7.603v91.234C76.101,478.149,72.697,481.553,68.498,481.553z"/>
	<path style="fill:#775146;" d="M109.041,422.578c-4.199,0-7.603-3.403-7.603-7.603V321.43c0-4.2,3.404-7.603,7.603-7.603
		c4.199,0,7.603,3.403,7.603,7.603v93.544C116.644,419.175,113.24,422.578,109.041,422.578z"/>
</g>
<path style="fill:#927266;" d="M510.349,478.674c0.122-0.152,0.241-0.307,0.349-0.467c0.047-0.067,0.085-0.141,0.129-0.212
	c0.084-0.135,0.171-0.268,0.247-0.405c0.089-0.164,0.167-0.335,0.244-0.505c0.022-0.05,0.05-0.097,0.071-0.147
	c0.083-0.192,0.153-0.392,0.22-0.592c0.01-0.031,0.024-0.061,0.034-0.093c0.053-0.164,0.093-0.335,0.134-0.503
	c0.017-0.073,0.041-0.145,0.056-0.218c0.027-0.129,0.044-0.26,0.065-0.392c0.019-0.119,0.042-0.237,0.055-0.357
	c0.011-0.101,0.014-0.202,0.02-0.303c0.011-0.156,0.022-0.313,0.023-0.469c0-0.02,0.003-0.042,0.003-0.062
	c0-0.071-0.008-0.139-0.01-0.208c-0.004-0.162-0.01-0.326-0.024-0.489c-0.009-0.099-0.023-0.196-0.036-0.295
	c-0.019-0.148-0.04-0.295-0.068-0.441c-0.021-0.113-0.048-0.22-0.074-0.33c-0.03-0.129-0.062-0.257-0.099-0.386
	c-0.036-0.123-0.079-0.243-0.122-0.364c-0.04-0.111-0.077-0.222-0.122-0.333c-0.055-0.133-0.116-0.264-0.177-0.394
	c-0.045-0.093-0.087-0.189-0.135-0.279c-0.074-0.143-0.155-0.277-0.237-0.414c-0.038-0.062-0.069-0.127-0.108-0.189L308.267,155.945
	c-0.584-1.032-1.413-1.942-2.477-2.632c-0.374-0.241-0.762-0.44-1.159-0.608c-0.001,0-0.001-0.002-0.002-0.002
	c-0.218-0.091-0.438-0.172-0.66-0.243c-0.013-0.004-0.025-0.01-0.039-0.014c-0.207-0.065-0.414-0.119-0.623-0.166
	c-0.038-0.008-0.074-0.018-0.112-0.025c-0.182-0.038-0.364-0.065-0.547-0.089c-0.073-0.01-0.147-0.021-0.22-0.029
	c-0.145-0.014-0.29-0.023-0.436-0.029c-0.117-0.006-0.233-0.01-0.351-0.01c-0.101,0-0.202,0.004-0.302,0.008
	c-0.161,0.006-0.322,0.016-0.484,0.033c-0.058,0.006-0.115,0.014-0.171,0.021c-0.198,0.023-0.395,0.056-0.592,0.097
	c-0.023,0.004-0.047,0.01-0.069,0.016c-0.222,0.048-0.442,0.105-0.66,0.174c-0.002,0-0.004,0-0.006,0.002
	c-0.635,0.2-1.256,0.479-1.842,0.858c-1.068,0.689-1.902,1.604-2.488,2.638L199.04,304.148h-19.037c-0.088,0-0.173,0.01-0.261,0.012
	c-0.15,0.006-0.3,0.01-0.449,0.023c-0.142,0.014-0.281,0.035-0.42,0.058c-0.101,0.016-0.203,0.027-0.304,0.046
	c-0.156,0.029-0.309,0.069-0.462,0.108c-0.084,0.021-0.168,0.04-0.251,0.065c-0.152,0.044-0.3,0.097-0.448,0.15
	c-0.084,0.031-0.169,0.06-0.252,0.093c-0.135,0.056-0.267,0.117-0.398,0.18c-0.094,0.044-0.191,0.087-0.283,0.135
	c-0.113,0.06-0.222,0.125-0.331,0.191c-0.105,0.064-0.213,0.125-0.316,0.192c-0.093,0.062-0.182,0.129-0.274,0.194
	c-0.11,0.081-0.222,0.158-0.328,0.245c-0.084,0.067-0.162,0.141-0.242,0.212c-0.103,0.091-0.209,0.182-0.309,0.279
	c-0.086,0.085-0.166,0.176-0.248,0.266c-0.084,0.091-0.17,0.18-0.25,0.275c-0.105,0.127-0.202,0.26-0.299,0.39
	c-0.045,0.062-0.094,0.119-0.138,0.18l-0.035,0.052c-0.002,0.004-0.004,0.006-0.006,0.01L62.233,469.641
	c-0.005,0.008-0.009,0.016-0.014,0.023c-0.129,0.188-0.248,0.384-0.36,0.584c-0.011,0.019-0.024,0.04-0.035,0.06
	c-0.239,0.438-0.437,0.901-0.587,1.384c-0.15,0.485-0.25,0.98-0.301,1.477c-0.001,0.018-0.001,0.035-0.003,0.054
	c-0.022,0.233-0.034,0.467-0.035,0.701c0,0.008-0.001,0.016-0.001,0.025c0,0.073,0.009,0.145,0.011,0.218
	c0.005,0.166,0.009,0.332,0.025,0.499c0.012,0.127,0.033,0.251,0.052,0.378c0.017,0.117,0.031,0.232,0.053,0.347
	c0.027,0.145,0.064,0.285,0.1,0.426c0.024,0.097,0.046,0.194,0.074,0.289c0.043,0.141,0.091,0.277,0.141,0.416
	c0.034,0.095,0.067,0.192,0.105,0.285c0.051,0.125,0.108,0.247,0.166,0.368c0.049,0.105,0.096,0.21,0.15,0.313
	c0.056,0.104,0.117,0.206,0.176,0.307c0.066,0.115,0.132,0.228,0.205,0.337c0.058,0.089,0.121,0.172,0.182,0.258
	c0.083,0.115,0.166,0.231,0.256,0.343c0.065,0.081,0.134,0.154,0.202,0.232c0.094,0.106,0.187,0.216,0.288,0.317
	c0.085,0.087,0.176,0.168,0.266,0.249c0.09,0.083,0.177,0.168,0.273,0.247c0.132,0.111,0.27,0.212,0.409,0.313
	c0.056,0.042,0.106,0.085,0.164,0.125c0.005,0.004,0.011,0.006,0.016,0.01c0.288,0.198,0.592,0.37,0.907,0.527
	c0.066,0.033,0.132,0.066,0.199,0.095c0.306,0.143,0.619,0.27,0.947,0.37c0.031,0.01,0.063,0.016,0.094,0.023
	c0.286,0.085,0.58,0.148,0.879,0.198c0.093,0.016,0.187,0.031,0.28,0.044c0.302,0.04,0.609,0.065,0.921,0.067
	c0.019,0,0.039,0.004,0.058,0.004c0.005,0,0.011,0,0.017,0h435.88c0.005,0,0.011,0,0.016,0c0.022,0,0.046-0.004,0.068-0.004
	c0.295-0.004,0.584-0.025,0.869-0.062c0.095-0.012,0.19-0.027,0.285-0.044c0.252-0.042,0.5-0.093,0.742-0.158
	c0.067-0.018,0.133-0.031,0.2-0.052c0.312-0.093,0.615-0.206,0.909-0.337c0.055-0.023,0.107-0.054,0.161-0.079
	c0.275-0.129,0.539-0.274,0.795-0.434c0.027-0.018,0.058-0.029,0.085-0.048c0.016-0.01,0.03-0.021,0.047-0.033
	c0.138-0.089,0.271-0.188,0.401-0.287c0.074-0.058,0.151-0.108,0.222-0.166c0.101-0.083,0.196-0.172,0.293-0.26
	c0.092-0.083,0.188-0.162,0.275-0.249c0.06-0.06,0.114-0.125,0.171-0.187c0.113-0.119,0.227-0.237,0.33-0.364
	C510.291,478.753,510.317,478.712,510.349,478.674z"/>
<path style="fill:#775146;" d="M511.99,473.742c-0.004-0.162-0.01-0.326-0.024-0.489c-0.009-0.099-0.023-0.196-0.036-0.295
	c-0.019-0.148-0.04-0.295-0.068-0.441c-0.021-0.113-0.048-0.22-0.074-0.33c-0.03-0.129-0.062-0.257-0.099-0.386
	c-0.036-0.123-0.079-0.243-0.122-0.364c-0.04-0.111-0.077-0.222-0.122-0.333c-0.055-0.133-0.116-0.264-0.177-0.394
	c-0.045-0.093-0.087-0.189-0.135-0.279c-0.074-0.143-0.155-0.277-0.237-0.414c-0.037-0.062-0.069-0.127-0.108-0.189l-202.52-313.884
	c-0.584-1.032-1.413-1.942-2.477-2.632c-0.374-0.241-0.762-0.44-1.159-0.608c-0.001,0-0.001-0.002-0.002-0.002
	c-0.218-0.091-0.438-0.172-0.66-0.243c-0.013-0.004-0.025-0.01-0.039-0.014c-0.207-0.065-0.414-0.119-0.623-0.166
	c-0.038-0.008-0.074-0.018-0.112-0.025c-0.182-0.038-0.364-0.065-0.547-0.089c-0.073-0.01-0.147-0.021-0.22-0.029
	c-0.145-0.014-0.29-0.023-0.436-0.029c-0.117-0.006-0.233-0.01-0.351-0.01c-0.101,0-0.202,0.004-0.302,0.008
	c-0.161,0.006-0.322,0.016-0.484,0.033c-0.058,0.006-0.115,0.014-0.171,0.021c-0.198,0.023-0.395,0.056-0.592,0.097
	c-0.023,0.004-0.047,0.01-0.069,0.016c-0.222,0.048-0.442,0.105-0.66,0.174c-0.002,0-0.004,0-0.006,0.002
	c-0.635,0.2-1.256,0.479-1.842,0.858c-1.068,0.689-1.902,1.604-2.488,2.638l-8.605,13.287l193.947,300.597
	c0.041,0.062,0.071,0.127,0.108,0.189c0.082,0.137,0.164,0.272,0.237,0.414c0.048,0.091,0.09,0.187,0.135,0.279
	c0.062,0.131,0.123,0.262,0.177,0.394c0.045,0.111,0.082,0.222,0.122,0.332c0.043,0.121,0.085,0.241,0.122,0.364
	c0.039,0.129,0.069,0.257,0.099,0.386c0.026,0.111,0.053,0.218,0.074,0.33c0.028,0.147,0.049,0.293,0.068,0.441
	c0.013,0.099,0.027,0.196,0.036,0.295c0.015,0.162,0.02,0.326,0.024,0.489c0.002,0.069,0.01,0.137,0.01,0.208
	c0,0.02-0.003,0.042-0.003,0.062c-0.001,0.156-0.013,0.313-0.023,0.469c-0.007,0.101-0.01,0.202-0.021,0.303
	c-0.013,0.119-0.035,0.237-0.055,0.357c-0.02,0.133-0.038,0.264-0.065,0.392c-0.016,0.073-0.039,0.145-0.056,0.218
	c-0.041,0.168-0.082,0.339-0.134,0.503c-0.01,0.031-0.023,0.062-0.034,0.093c-0.066,0.2-0.137,0.4-0.22,0.592
	c-0.021,0.05-0.049,0.097-0.071,0.147c-0.077,0.17-0.155,0.341-0.244,0.505c-0.076,0.139-0.163,0.272-0.247,0.405
	c-0.044,0.071-0.082,0.145-0.129,0.212c-0.108,0.16-0.228,0.315-0.349,0.467c-0.03,0.038-0.058,0.079-0.089,0.117
	c-0.103,0.127-0.218,0.245-0.33,0.364c-0.058,0.062-0.111,0.127-0.171,0.187c-0.087,0.087-0.182,0.166-0.275,0.249
	c-0.097,0.087-0.192,0.176-0.293,0.26c-0.071,0.058-0.148,0.108-0.222,0.166c-0.132,0.099-0.264,0.198-0.401,0.287
	c-0.016,0.012-0.03,0.023-0.047,0.033c-0.027,0.018-0.058,0.029-0.086,0.048c-0.255,0.16-0.52,0.305-0.795,0.434
	c-0.054,0.025-0.106,0.056-0.161,0.079c-0.294,0.131-0.597,0.243-0.909,0.337c-0.066,0.02-0.133,0.033-0.2,0.052
	c-0.242,0.065-0.49,0.117-0.742,0.158c-0.095,0.016-0.19,0.031-0.285,0.044c-0.286,0.035-0.575,0.058-0.869,0.062
	c-0.018,0-0.036,0.002-0.055,0.004h30.385c0.005,0,0.011,0,0.016,0c0.022,0,0.046-0.004,0.068-0.004
	c0.295-0.004,0.584-0.025,0.869-0.062c0.095-0.012,0.19-0.027,0.285-0.044c0.252-0.042,0.5-0.093,0.742-0.158
	c0.067-0.018,0.133-0.031,0.2-0.052c0.312-0.093,0.615-0.206,0.909-0.337c0.055-0.023,0.107-0.054,0.161-0.079
	c0.275-0.129,0.539-0.274,0.795-0.434c0.027-0.018,0.058-0.029,0.085-0.048c0.016-0.01,0.03-0.021,0.047-0.033
	c0.138-0.089,0.271-0.188,0.401-0.287c0.074-0.058,0.151-0.108,0.222-0.166c0.101-0.083,0.196-0.172,0.293-0.26
	c0.092-0.083,0.188-0.162,0.275-0.249c0.06-0.06,0.114-0.125,0.171-0.187c0.112-0.119,0.227-0.237,0.33-0.364
	c0.031-0.038,0.059-0.079,0.089-0.117c0.122-0.152,0.241-0.307,0.349-0.467c0.047-0.067,0.085-0.141,0.129-0.212
	c0.084-0.135,0.171-0.268,0.247-0.405c0.089-0.164,0.167-0.335,0.244-0.505c0.022-0.05,0.05-0.097,0.071-0.147
	c0.083-0.192,0.153-0.392,0.22-0.592c0.01-0.031,0.024-0.061,0.034-0.093c0.053-0.164,0.093-0.335,0.134-0.503
	c0.017-0.073,0.041-0.145,0.056-0.218c0.027-0.129,0.044-0.26,0.065-0.392c0.019-0.119,0.042-0.237,0.055-0.357
	c0.011-0.101,0.014-0.202,0.02-0.303c0.011-0.156,0.022-0.313,0.023-0.469c0-0.02,0.003-0.042,0.003-0.062
	C512,473.879,511.992,473.811,511.99,473.742z"/>
<path style="fill:#F3E8D6;" d="M308.267,155.945c-0.584-1.032-1.413-1.942-2.477-2.632c-0.374-0.241-0.762-0.44-1.159-0.608
	c-0.001,0-0.001-0.002-0.002-0.002c-0.218-0.091-0.438-0.172-0.66-0.243c-0.013-0.004-0.025-0.01-0.039-0.014
	c-0.207-0.065-0.414-0.119-0.623-0.166c-0.038-0.008-0.074-0.018-0.112-0.025c-0.182-0.038-0.364-0.065-0.547-0.089
	c-0.073-0.01-0.147-0.021-0.22-0.029c-0.145-0.014-0.29-0.023-0.436-0.029c-0.117-0.006-0.233-0.01-0.351-0.01
	c-0.101,0-0.202,0.004-0.302,0.008c-0.161,0.006-0.322,0.016-0.484,0.033c-0.058,0.006-0.115,0.014-0.171,0.021
	c-0.198,0.023-0.395,0.056-0.592,0.097c-0.023,0.004-0.047,0.01-0.069,0.016c-0.222,0.048-0.442,0.105-0.66,0.174
	c-0.002,0-0.004,0-0.006,0.002c-0.635,0.2-1.256,0.479-1.842,0.858c-1.068,0.689-1.902,1.604-2.488,2.638l-56.921,87.886
	l50.113,24.088c0.296,0.143,0.598,0.26,0.902,0.36c0.068,0.022,0.138,0.037,0.207,0.06c0.28,0.083,0.562,0.15,0.844,0.202
	c0.091,0.016,0.182,0.033,0.275,0.046c0.354,0.052,0.708,0.085,1.06,0.085h0.001c0.001,0,0.002,0,0.002,0
	c0.011,0,0.022-0.002,0.032-0.002c0.364-0.002,0.726-0.031,1.083-0.085c0.113-0.018,0.225-0.05,0.338-0.071
	c0.26-0.052,0.518-0.106,0.77-0.185c0.043-0.014,0.084-0.018,0.127-0.031l71.845-23.326L308.267,155.945z"/>
<path style="fill:#E5D8C6;" d="M340.56,253.134l25.148-8.166l-57.44-89.024c-0.584-1.032-1.413-1.942-2.477-2.632
	c-0.374-0.241-0.762-0.44-1.159-0.608c-0.001,0-0.001-0.002-0.002-0.002c-0.218-0.091-0.438-0.172-0.66-0.243
	c-0.013-0.004-0.025-0.01-0.039-0.014c-0.207-0.065-0.414-0.119-0.623-0.166c-0.038-0.008-0.074-0.018-0.112-0.025
	c-0.182-0.038-0.364-0.065-0.547-0.089c-0.073-0.01-0.147-0.021-0.22-0.029c-0.145-0.014-0.29-0.023-0.436-0.029
	c-0.117-0.006-0.233-0.01-0.351-0.01c-0.101,0-0.202,0.004-0.302,0.008c-0.161,0.006-0.322,0.016-0.484,0.033
	c-0.058,0.006-0.115,0.014-0.171,0.021c-0.198,0.023-0.395,0.056-0.592,0.097c-0.023,0.004-0.047,0.01-0.069,0.016
	c-0.222,0.048-0.442,0.105-0.66,0.174c-0.002,0-0.004,0-0.006,0.002c-0.635,0.2-1.256,0.479-1.842,0.858
	c-1.068,0.689-1.902,1.604-2.488,2.638l-8.605,13.287L340.56,253.134z"/>
<path style="fill:#FFB123;" d="M83.631,147.023c-18.166,0-32.946-14.778-32.946-32.944c0-18.168,14.78-32.946,32.946-32.946
	s32.946,14.778,32.946,32.946C116.577,132.245,101.798,147.023,83.631,147.023z"/>
<g>
	<path style="fill:#F98115;" d="M83.632,65.928c-4.199,0-7.603-3.403-7.603-7.603V38.05c0-4.2,3.404-7.603,7.603-7.603
		c4.199,0,7.603,3.403,7.603,7.603v20.275C91.235,62.525,87.831,65.928,83.632,65.928z"/>
	<path style="fill:#F98115;" d="M83.632,197.713c-4.199,0-7.603-3.403-7.603-7.603v-20.275c0-4.2,3.404-7.603,7.603-7.603
		c4.199,0,7.603,3.403,7.603,7.603v20.275C91.235,194.31,87.831,197.713,83.632,197.713z"/>
	<path style="fill:#F98115;" d="M44.207,82.259c-1.945,0-3.892-0.742-5.377-2.227L24.495,65.695c-2.969-2.97-2.968-7.783,0-10.753
		c2.969-2.968,7.783-2.968,10.753,0.002l14.336,14.336c2.969,2.968,2.968,7.783-0.001,10.751
		C48.099,81.516,46.152,82.259,44.207,82.259z"/>
	<path style="fill:#F98115;" d="M137.393,175.445c-1.945,0-3.892-0.742-5.377-2.227L117.68,158.88
		c-2.969-2.97-2.968-7.783,0.001-10.753c2.969-2.968,7.783-2.968,10.753,0.002l14.336,14.337c2.969,2.968,2.968,7.783-0.001,10.751
		C141.285,174.703,139.339,175.445,137.393,175.445z"/>
	<path style="fill:#F98115;" d="M27.878,121.683H7.603C3.404,121.683,0,118.28,0,114.08c0-4.2,3.404-7.603,7.603-7.603h20.275
		c4.199,0,7.603,3.403,7.603,7.603C35.481,118.28,32.077,121.683,27.878,121.683z"/>
	<path style="fill:#F98115;" d="M159.663,121.683h-20.275c-4.199,0-7.603-3.403-7.603-7.603c0-4.2,3.404-7.603,7.603-7.603h20.275
		c4.199,0,7.603,3.403,7.603,7.603C167.266,118.28,163.862,121.683,159.663,121.683z"/>
	<path style="fill:#F98115;" d="M29.873,175.445c-1.945,0-3.891-0.742-5.376-2.227c-2.969-2.968-2.969-7.783,0-10.751l14.336-14.337
		c2.97-2.97,7.782-2.97,10.753-0.002c2.969,2.97,2.969,7.783,0,10.753L35.25,173.218C33.764,174.703,31.818,175.445,29.873,175.445z
		"/>
	<path style="fill:#F98115;" d="M123.058,82.257c-1.945,0-3.892-0.742-5.377-2.227c-2.969-2.97-2.968-7.783,0.001-10.753
		l14.336-14.335c2.969-2.968,7.783-2.968,10.753,0.002c2.969,2.968,2.968,7.783-0.001,10.751L128.433,80.03
		C126.949,81.514,125.003,82.257,123.058,82.257z"/>
</g>
<g>
	<path style="fill:#A0D860;" d="M76.37,400.108c0.737,0.23,1.5,0.349,2.266,0.349c1.945,0,3.892-0.742,5.376-2.227
		c2.969-2.97,2.969-7.783,0-10.753L73.874,377.34c-2.969-2.968-7.783-2.968-10.752,0l-10.137,10.137
		c-2.969,2.97-2.969,7.783,0,10.753c1.484,1.485,3.43,2.227,5.376,2.227c0.764,0,1.529-0.119,2.266-0.349l-7.642,7.641
		c-2.969,2.97-2.969,7.783,0,10.753c1.484,1.485,3.43,2.227,5.376,2.227s3.892-0.742,5.376-2.227l4.762-4.759l4.762,4.759
		c1.484,1.485,3.43,2.227,5.376,2.227s3.892-0.742,5.376-2.227c2.969-2.97,2.969-7.783,0-10.753L76.37,400.108z"/>
	<path style="fill:#A0D860;" d="M98.904,339.171c1.946,0,3.892-0.742,5.376-2.227l4.761-4.759l4.762,4.759
		c1.484,1.485,3.43,2.227,5.376,2.227c1.946,0,3.892-0.742,5.376-2.227c2.969-2.97,2.969-7.783,0-10.754l-10.137-10.137
		c-2.969-2.968-7.783-2.968-10.752,0L93.528,326.19c-2.969,2.97-2.969,7.783,0,10.754C95.013,338.429,96.958,339.171,98.904,339.171
		z"/>
	<path style="fill:#A0D860;" d="M114.418,346.465c-2.969-2.968-7.783-2.968-10.752,0l-10.137,10.137
		c-2.969,2.97-2.969,7.783,0,10.754c1.484,1.485,3.43,2.227,5.376,2.227c1.946,0,3.892-0.742,5.376-2.227l4.762-4.759l4.762,4.759
		c1.484,1.485,3.43,2.227,5.376,2.227c1.946,0,3.892-0.742,5.376-2.227c2.969-2.97,2.969-7.783,0-10.754L114.418,346.465z"/>
</g>
<path style="fill:#0072A2;" d="M295.029,155.943c0.586-1.034,1.419-1.948,2.488-2.638c0.587-0.378,1.207-0.657,1.842-0.858
	c0.002-0.002,0.004-0.002,0.006-0.002c0.218-0.069,0.439-0.127,0.66-0.174c0.022-0.006,0.046-0.012,0.069-0.016
	c0.197-0.042,0.394-0.073,0.592-0.097c0.057-0.008,0.114-0.016,0.171-0.021c0.161-0.018,0.322-0.027,0.484-0.033
	c0.101-0.004,0.202-0.008,0.302-0.008c0.118,0,0.234,0.004,0.351,0.01c0.145,0.006,0.291,0.016,0.436,0.029
	c0.073,0.008,0.147,0.02,0.22,0.029c0.182,0.023,0.365,0.052,0.547,0.089c0.038,0.008,0.074,0.018,0.112,0.025
	c0.209,0.048,0.417,0.101,0.623,0.166c0.013,0.004,0.025,0.01,0.039,0.014c0.222,0.071,0.442,0.152,0.66,0.243
	c0.001,0,0.001,0.002,0.002,0.002c0.396,0.168,0.785,0.366,1.159,0.608c1.063,0.689,1.893,1.6,2.477,2.632l0.974,1.508V38.048
	c0-4.2-3.404-7.603-7.603-7.603c-4.199,0-7.603,3.403-7.603,7.603v119.429L295.029,155.943z"/>
<path style="fill:#FF4C4D;" d="M372.613,40.583H309.24v45.618h63.372c4.199,0,7.603-3.403,7.603-7.603V48.186
	C380.216,43.987,376.812,40.583,372.613,40.583z"/>
<path style="fill:#F23939;" d="M471.424,98.12c-0.008-0.079-0.023-0.156-0.033-0.233c-0.022-0.168-0.044-0.337-0.077-0.505
	c-0.02-0.105-0.051-0.208-0.076-0.313c-0.033-0.135-0.064-0.272-0.104-0.405c-0.04-0.129-0.087-0.253-0.133-0.378
	c-0.039-0.106-0.073-0.214-0.117-0.318c-0.064-0.154-0.139-0.305-0.213-0.455c-0.035-0.071-0.067-0.147-0.105-0.218
	c-0.104-0.196-0.219-0.384-0.34-0.571c-0.016-0.023-0.028-0.05-0.045-0.073l-0.009-0.014c-0.006-0.01-0.013-0.02-0.019-0.029
	l-7.304-10.941l7.303-10.941c0.007-0.01,0.015-0.021,0.022-0.033l0.007-0.012c0.014-0.02,0.024-0.042,0.039-0.064
	c0.124-0.189,0.24-0.38,0.347-0.58c0.038-0.071,0.068-0.143,0.103-0.214c0.075-0.15,0.15-0.303,0.215-0.459
	c0.043-0.103,0.076-0.208,0.115-0.313c0.047-0.127,0.095-0.253,0.135-0.384c0.041-0.133,0.07-0.266,0.102-0.4
	c0.026-0.105,0.056-0.21,0.078-0.318c0.032-0.166,0.055-0.333,0.076-0.499c0.011-0.079,0.026-0.158,0.034-0.239
	c0.021-0.216,0.03-0.432,0.032-0.65c0-0.033,0.005-0.065,0.005-0.099V68.45c0-0.255-0.012-0.509-0.039-0.76
	c-0.014-0.143-0.042-0.279-0.064-0.42c-0.016-0.103-0.026-0.206-0.047-0.307c-0.035-0.176-0.083-0.351-0.131-0.523
	c-0.017-0.064-0.03-0.129-0.049-0.192c-0.049-0.16-0.108-0.317-0.167-0.471c-0.028-0.077-0.053-0.152-0.083-0.228
	c-0.055-0.133-0.119-0.26-0.18-0.386c-0.047-0.097-0.089-0.196-0.14-0.291c-0.054-0.099-0.115-0.194-0.172-0.291
	c-0.07-0.117-0.137-0.235-0.213-0.351c-0.049-0.071-0.103-0.141-0.154-0.21c-0.093-0.131-0.187-0.262-0.289-0.386
	c-0.046-0.058-0.097-0.108-0.145-0.162c-0.114-0.131-0.226-0.262-0.349-0.384c-0.083-0.083-0.173-0.158-0.26-0.239
	c-0.094-0.085-0.184-0.174-0.283-0.255c-0.196-0.162-0.399-0.312-0.61-0.453c-0.003-0.002-0.005-0.004-0.007-0.006
	c-0.029-0.02-0.061-0.035-0.091-0.056c-0.179-0.117-0.363-0.228-0.553-0.328c-0.07-0.038-0.142-0.067-0.212-0.102
	c-0.152-0.075-0.304-0.151-0.463-0.216c-0.1-0.042-0.202-0.075-0.303-0.11c-0.131-0.048-0.261-0.097-0.394-0.139
	c-0.128-0.04-0.256-0.067-0.385-0.099c-0.112-0.027-0.221-0.06-0.335-0.081c-0.16-0.031-0.32-0.052-0.483-0.073
	c-0.085-0.012-0.169-0.027-0.254-0.035c-0.211-0.021-0.421-0.029-0.632-0.031c-0.04-0.002-0.077-0.006-0.117-0.006h-0.021
	c-0.009,0-0.017,0-0.026,0h-83.595v17.742c0,4.2-3.404,7.603-7.603,7.603h-8.217l-7.202,7.202c-1.433,1.382-2.328,3.318-2.328,5.469
	c0,2.647,1.355,4.977,3.409,6.34c0.051,0.033,0.104,0.062,0.156,0.093c0.156,0.099,0.314,0.196,0.477,0.283
	c0.077,0.042,0.156,0.075,0.234,0.113c0.143,0.069,0.285,0.139,0.432,0.2c0.094,0.04,0.191,0.069,0.285,0.105
	c0.136,0.05,0.271,0.101,0.41,0.143c0.115,0.035,0.23,0.06,0.346,0.089c0.123,0.031,0.243,0.065,0.368,0.089
	c0.168,0.033,0.338,0.056,0.508,0.077c0.073,0.01,0.145,0.025,0.219,0.031c0.255,0.025,0.511,0.042,0.767,0.042
	c0.014,0,0.027-0.002,0.042-0.002h101.332c0.005,0,0.011,0,0.016,0c0.021,0,0.042-0.004,0.063-0.004
	c0.304-0.002,0.602-0.027,0.897-0.065c0.094-0.012,0.188-0.025,0.282-0.042c0.275-0.046,0.545-0.105,0.809-0.178
	c0.05-0.014,0.099-0.023,0.148-0.04c0.32-0.097,0.63-0.218,0.931-0.355c0.062-0.027,0.122-0.06,0.183-0.089
	c0.309-0.15,0.61-0.315,0.894-0.505c0.002,0,0.005-0.002,0.007-0.004c0.001,0,0.002,0,0.003-0.002
	c0.214-0.143,0.421-0.295,0.618-0.459c0.055-0.044,0.102-0.093,0.155-0.141c0.132-0.115,0.265-0.23,0.388-0.355
	c0.112-0.113,0.214-0.232,0.318-0.351c0.058-0.065,0.12-0.127,0.174-0.194c0.097-0.119,0.186-0.245,0.275-0.368
	c0.056-0.077,0.115-0.15,0.167-0.23c0.073-0.108,0.138-0.224,0.205-0.337c0.061-0.101,0.124-0.2,0.18-0.305
	c0.049-0.091,0.09-0.187,0.136-0.281c0.063-0.131,0.128-0.26,0.183-0.394c0.03-0.073,0.054-0.148,0.081-0.222
	c0.06-0.158,0.12-0.314,0.169-0.477c0.019-0.064,0.031-0.127,0.049-0.191c0.048-0.172,0.095-0.347,0.131-0.525
	c0.02-0.103,0.031-0.206,0.048-0.311c0.021-0.137,0.048-0.275,0.063-0.416c0.025-0.251,0.038-0.505,0.039-0.758
	c0-0.004,0-0.006,0-0.006c0-0.035-0.004-0.065-0.005-0.099C471.455,98.556,471.447,98.338,471.424,98.12z"/>
<g>
</g>
<g>
</g>
<g>
</g>
<g>
</g>
<g>
</g>
<g>
</g>
<g>
</g>
<g>
</g>
<g>
</g>
<g>
</g>
<g>
</g>
<g>
</g>
<g>
</g>
<g>
</g>
<g>
</g>
</svg>
