<?xml version="1.0" encoding="iso-8859-1"?>
<!-- Generator: Adobe Illustrator 19.0.0, SVG Export Plug-In . SVG Version: 6.00 Build 0)  -->
<svg version="1.1" id="Capa_1" xmlns="http://www.w3.org/2000/svg" xmlns:xlink="http://www.w3.org/1999/xlink" x="0px" y="0px"
	 viewBox="0 0 512 512" style="enable-background:new 0 0 512 512;" xml:space="preserve">
<path style="fill:#FFB123;" d="M380.196,420.757H35.487c-4.199,0-7.604-3.404-7.604-7.604v-30.416c0-4.2,3.405-7.604,7.604-7.604
	h344.709c4.199,0,7.604,3.404,7.604,7.604v30.416C387.8,417.353,384.395,420.757,380.196,420.757z"/>
<path style="fill:#FF901D;" d="M380.196,375.133h-31.432c4.199,0,7.604,3.404,7.604,7.604v30.416c0,4.2-3.405,7.604-7.604,7.604
	h31.432c4.199,0,7.604-3.404,7.604-7.604v-30.416C387.8,378.536,384.395,375.133,380.196,375.133z"/>
<g>
	<path style="fill:#B2B2B2;" d="M68.44,420.757v53.224c0,4.2,3.405,7.604,7.604,7.604c4.199,0,7.604-3.404,7.604-7.604v-53.224
		H68.44z"/>
	<path style="fill:#B2B2B2;" d="M332.042,420.757v53.224c0,4.2,3.405,7.604,7.604,7.604c4.199,0,7.604-3.404,7.604-7.604v-53.224
		H332.042z"/>
</g>
<g>
	<path style="fill:#CCC8CA;" d="M38.022,420.757v83.64c0,4.2,3.405,7.604,7.604,7.604s7.604-3.404,7.604-7.604v-83.64H38.022z"/>
	<path style="fill:#CCC8CA;" d="M362.453,420.757v83.64c0,4.2,3.405,7.604,7.604,7.604s7.604-3.404,7.604-7.604v-83.64H362.453z"/>
</g>
<path style="fill:#FFB123;" d="M86.177,116.592c-18.168,0-32.95-14.781-32.95-32.949s14.782-32.949,32.95-32.949
	s32.95,14.781,32.95,32.949S104.346,116.592,86.177,116.592z"/>
<g>
	<path style="fill:#FF901D;" d="M86.178,35.486c-4.199,0-7.604-3.404-7.604-7.604V7.605c0-4.2,3.405-7.604,7.604-7.604
		c4.199,0,7.604,3.404,7.604,7.604v20.277C93.782,32.083,90.378,35.486,86.178,35.486z"/>
	<path style="fill:#FF901D;" d="M86.178,167.288c-4.199,0-7.604-3.404-7.604-7.604v-20.277c0-4.2,3.405-7.604,7.604-7.604
		c4.199,0,7.604,3.404,7.604,7.604v20.277C93.782,163.885,90.378,167.288,86.178,167.288z"/>
	<path style="fill:#FF901D;" d="M46.748,51.818c-1.947,0-3.891-0.743-5.377-2.226L27.034,35.254c-2.97-2.97-2.97-7.784-0.001-10.753
		c2.971-2.971,7.783-2.97,10.754-0.001l14.339,14.338c2.97,2.97,2.97,7.784,0,10.754C50.64,51.076,48.695,51.818,46.748,51.818z"/>
	<path style="fill:#FF901D;" d="M139.946,145.017c-1.946,0-3.891-0.742-5.376-2.226l-14.339-14.338
		c-2.97-2.97-2.97-7.784-0.001-10.753c2.971-2.971,7.783-2.97,10.754-0.001l14.339,14.338c2.97,2.97,2.97,7.784,0.001,10.753
		C143.839,144.275,141.893,145.017,139.946,145.017z"/>
	<path style="fill:#FF901D;" d="M30.416,91.25H10.139c-4.199,0-7.604-3.404-7.604-7.604s3.405-7.604,7.604-7.604h20.277
		c4.199,0,7.604,3.404,7.604,7.604S34.615,91.25,30.416,91.25z"/>
	<path style="fill:#FF901D;" d="M162.218,91.25L162.218,91.25l-20.278-0.001c-4.199,0-7.603-3.405-7.603-7.604
		c0-4.2,3.405-7.604,7.604-7.604c0,0,0,0,0.001,0l20.277,0.001c4.199,0,7.603,3.405,7.603,7.604
		C169.822,87.846,166.417,91.25,162.218,91.25z"/>
	<path style="fill:#FF901D;" d="M32.412,145.017c-1.946,0-3.891-0.742-5.377-2.226c-2.97-2.97-2.97-7.784,0-10.754l14.337-14.338
		c2.971-2.971,7.783-2.97,10.754-0.001c2.97,2.97,2.97,7.784,0,10.753L37.79,142.788C36.304,144.275,34.358,145.017,32.412,145.017z
		"/>
	<path style="fill:#FF901D;" d="M125.608,51.817c-1.946,0-3.892-0.742-5.378-2.227c-2.97-2.97-2.969-7.784,0.001-10.753
		L134.571,24.5c2.97-2.969,7.784-2.97,10.753,0.001c2.97,2.97,2.969,7.784-0.001,10.753l-14.339,14.337
		C129.499,51.075,127.554,51.817,125.608,51.817z"/>
</g>
<path style="fill:#927266;" d="M501.861,0h-30.418c-4.199,0-7.604,3.404-7.604,7.604v496.792c0,4.2,3.405,7.604,7.604,7.604h30.418
	c4.199,0,7.604-3.404,7.604-7.604V7.604C509.465,3.404,506.061,0,501.861,0z"/>
<path style="fill:#775146;" d="M463.84,233.63c-0.793-0.28-1.642-0.44-2.531-0.44c-6.989,0-12.673-5.685-12.673-12.673V88.713
	c0-4.2-3.405-7.604-7.604-7.604c-4.199,0-7.604,3.404-7.604,7.604v104.165c-0.599,0.032-1.198,0.065-1.788,0.098
	c-8.678,0.488-14.154,0.636-17.271-2.313c-4.172-3.945-6.287-14.367-6.287-30.98V64.84c11.687-3.319,20.275-14.082,20.275-26.818
	c0-4.199-3.405-7.604-7.604-7.604c-4.199,0-7.604,3.405-7.604,7.604c0,4.132-1.997,7.798-5.067,10.113V7.604
	c0-4.2-3.405-7.604-7.604-7.604c-4.199,0-7.604,3.404-7.604,7.604v102.613c-8.851-3.14-15.208-11.591-15.208-21.504v-50.69
	c0-4.199-3.405-7.604-7.604-7.604s-7.604,3.405-7.604,7.604v50.69c0,18.36,13.083,33.723,30.416,37.254v33.717
	c0,21.844,3.407,34.807,11.047,42.03c5.906,5.584,13.109,6.748,20.522,6.748c2.673,0,5.373-0.151,8.048-0.302
	c0.31-0.018,0.626-0.033,0.938-0.052v12.407c0,15.373,12.507,27.881,27.881,27.881c0.888,0,1.738-0.16,2.531-0.441V233.63z"/>
<g>
	<path style="fill:#FFB123;" d="M359.919,359.927H55.764c-4.199,0-7.604-3.404-7.604-7.604v-50.692c0-4.199,3.405-7.604,7.604-7.604
		h304.154c4.199,0,7.604,3.405,7.604,7.604v50.692C367.523,356.522,364.118,359.927,359.919,359.927z"/>
	<path style="fill:#FFB123;" d="M365.294,215.141c-1.419-1.41-3.376-2.22-5.373-2.22H55.762c-1.997,0-3.964,0.811-5.373,2.22
		c-1.419,1.418-2.23,3.376-2.23,5.373v50.693c0,2.006,0.811,3.964,2.23,5.384c1.409,1.409,3.376,2.22,5.373,2.22h101.386h0.003
		h202.769c1.997,0,3.964-0.811,5.373-2.22c1.419-1.418,2.23-3.376,2.23-5.384v-50.693
		C367.525,218.518,366.714,216.561,365.294,215.141z"/>
</g>
<g>
	<path style="fill:#FF901D;" d="M365.294,215.141c-1.419-1.41-3.376-2.22-5.373-2.22h-30.419c1.997,0,3.954,0.811,5.373,2.22
		c1.419,1.418,2.23,3.376,2.23,5.373v50.693c0,2.006-0.811,3.964-2.23,5.384c-1.409,1.41-3.376,2.22-5.373,2.22h30.419
		c1.997,0,3.964-0.811,5.373-2.22c1.419-1.418,2.23-3.376,2.23-5.384v-50.693C367.525,218.518,366.714,216.561,365.294,215.141z"/>
	<path style="fill:#FF901D;" d="M365.294,296.252c-1.419-1.41-3.376-2.22-5.373-2.22h-30.419c1.997,0,3.954,0.811,5.373,2.22
		c1.419,1.419,2.23,3.376,2.23,5.373v50.693c0,2.006-0.811,3.964-2.23,5.383c-1.409,1.41-3.376,2.221-5.373,2.221h30.419
		c1.997,0,3.964-0.811,5.373-2.221c1.419-1.418,2.23-3.376,2.23-5.383v-50.693C367.525,299.629,366.714,297.672,365.294,296.252z"/>
</g>
<g>
	<rect x="68.436" y="359.931" style="fill:#B2B2B2;" width="15.208" height="15.206"/>
	<rect x="332.04" y="359.931" style="fill:#B2B2B2;" width="15.208" height="15.206"/>
	<rect x="68.436" y="278.812" style="fill:#B2B2B2;" width="15.208" height="15.206"/>
	<rect x="332.04" y="278.812" style="fill:#B2B2B2;" width="15.208" height="15.206"/>
</g>
<g>
</g>
<g>
</g>
<g>
</g>
<g>
</g>
<g>
</g>
<g>
</g>
<g>
</g>
<g>
</g>
<g>
</g>
<g>
</g>
<g>
</g>
<g>
</g>
<g>
</g>
<g>
</g>
<g>
</g>
</svg>
