<?xml version="1.0" encoding="iso-8859-1"?>
<!-- Generator: Adobe Illustrator 19.0.0, SVG Export Plug-In . SVG Version: 6.00 Build 0)  -->
<svg version="1.1" id="Capa_1" xmlns="http://www.w3.org/2000/svg" xmlns:xlink="http://www.w3.org/1999/xlink" x="0px" y="0px"
	 viewBox="0 0 512.001 512.001" style="enable-background:new 0 0 512.001 512.001;" xml:space="preserve">
<polygon style="fill:#A0D860;" points="443.563,88.613 463.84,139.306 453.701,139.306 433.424,139.306 423.286,139.306 "/>
<polygon style="fill:#89BF43;" points="453.701,139.306 473.978,189.989 443.563,189.989 413.147,189.989 433.424,139.306 "/>
<polygon style="fill:#A0D860;" points="129.268,179.962 149.545,230.654 139.407,230.654 119.13,230.654 108.991,230.654 "/>
<polygon style="fill:#89BF43;" points="139.407,230.654 159.684,271.208 129.268,271.208 98.853,271.208 119.13,230.654 "/>
<path style="fill:#A0D860;" d="M220.515,281.347c6.844,0,13.606,0.324,20.277,0.953c0,0-131.801,39.601-131.801,211.956H7.606
	c0-84.93,49.73-158.242,121.662-192.419c22.122-10.514,46.364-17.327,71.892-19.618
	C207.538,281.641,213.996,281.347,220.515,281.347z"/>
<path style="fill:#0072A2;" d="M240.792,282.3c13.951,1.318,27.516,3.984,40.554,7.868C249.978,309.38,190.1,364.99,190.1,494.256
	h-81.108C108.991,321.901,240.792,282.3,240.792,282.3z"/>
<path style="fill:#A0D860;" d="M433.424,494.256H190.1c0-129.266,59.878-184.876,91.247-204.089
	c14.194,4.218,27.769,9.885,40.554,16.82c25.549,13.859,47.945,32.798,65.829,55.468C416.351,398.7,433.424,444.486,433.424,494.256
	z"/>
<g>
	<path style="fill:#89BF43;" d="M387.73,362.455c-17.884-22.67-40.28-41.609-65.829-55.468c-12.785-6.935-26.36-12.602-40.554-16.82
		c-3.204,1.963-6.708,4.311-10.411,7.072c7.045,2.894,13.905,6.145,20.547,9.748c25.549,13.859,47.945,32.798,65.829,55.468
		c28.621,36.245,45.694,82.031,45.694,131.801h30.419C433.424,444.486,416.351,398.7,387.73,362.455z"/>
	<path style="fill:#89BF43;" d="M214.443,281.442c-0.842,0.023-1.682,0.053-2.521,0.086c-0.725,0.028-1.449,0.061-2.172,0.096
		c-0.652,0.033-1.301,0.072-1.951,0.111c-0.814,0.049-1.628,0.094-2.44,0.151c1.677,0.119,3.349,0.257,5.016,0.414
		c7.398,0.7,14.684,1.788,21.843,3.226c5.385-2.266,8.575-3.226,8.575-3.226c-6.671-0.629-13.434-0.953-20.277-0.953
		c-1.455,0-2.905,0.02-4.353,0.05C215.589,281.409,215.016,281.426,214.443,281.442z"/>
</g>
<path style="fill:#005772;" d="M250.928,290.167c6.82,2.027,13.492,4.396,20.007,7.072c3.704-2.761,7.207-5.109,10.411-7.072
	c-13.038-3.883-26.604-6.549-40.554-7.868c0,0-3.191,0.959-8.575,3.226C238.56,286.799,244.803,288.343,250.928,290.167z"/>
<path style="fill:#89BF43;" d="M342.178,200.239c0,0-49.344,25.346-60.831,89.929c-13.038-3.883-26.604-6.549-40.554-7.868
	c-6.671-0.629-13.434-0.953-20.277-0.953c-6.519,0-12.977,0.294-19.354,0.872v-0.011
	C229.092,233.25,281.782,200.239,342.178,200.239z"/>
<path style="fill:#006289;" d="M372.593,203.087c0,0-45.623,30.609-50.693,103.9c-12.785-6.935-26.36-12.602-40.554-16.82
	c11.487-64.582,60.831-89.929,60.831-89.929C352.57,200.239,362.738,201.212,372.593,203.087z"/>
<path style="fill:#89BF43;" d="M504.394,362.455H387.73c-17.884-22.67-40.28-41.609-65.829-55.468
	c5.069-73.291,50.693-103.9,50.693-103.9c26.502,5.029,50.723,16.496,70.97,32.727C480.65,265.541,504.394,311.225,504.394,362.455z
	"/>
<g>
	<path style="fill:#78A833;" d="M443.563,235.815c-20.247-16.232-44.468-27.698-70.97-32.727c0,0-2.96,1.989-7.453,6.155
		c17.571,6.121,33.772,15.162,48.004,26.572c37.087,29.726,60.831,75.41,60.831,126.64h30.419
		C504.394,311.225,480.65,265.541,443.563,235.815z"/>
	<path style="fill:#78A833;" d="M337.436,200.32c-0.688,0.021-1.377,0.046-2.063,0.075c-0.74,0.029-1.478,0.072-2.216,0.113
		c-2.035,0.116-4.063,0.259-6.078,0.445c3.832,0.358,7.626,0.851,11.377,1.472c2.343-1.476,3.722-2.186,3.722-2.186
		C340.591,200.239,339.011,200.274,337.436,200.32z"/>
</g>
<path style="fill:#005772;" d="M342.174,203.087c7.874,1.494,15.539,3.57,22.966,6.155c4.492-4.166,7.453-6.155,7.453-6.155
	c-9.855-1.876-20.024-2.848-30.416-2.848c0,0-1.38,0.71-3.722,2.186C339.7,202.631,340.94,202.852,342.174,203.087z"/>
<path style="fill:#FFB123;" d="M240.812,58.299c11.193,0,20.277,9.074,20.277,20.277c0,11.193-9.084,20.277-20.277,20.277
	c-11.203,0-20.277-9.084-20.277-20.277C220.535,67.373,229.609,58.299,240.812,58.299z"/>
<path d="M451.169,232.333v-34.737h22.783c0.009,0,0.018,0.002,0.026,0.002c0.251,0,0.504-0.015,0.757-0.041
	c0.058-0.006,0.114-0.017,0.171-0.023c0.181-0.022,0.363-0.048,0.545-0.083c0.124-0.024,0.242-0.058,0.364-0.088
	c0.113-0.027,0.225-0.053,0.337-0.086c0.151-0.046,0.297-0.1,0.445-0.154c0.067-0.023,0.135-0.043,0.202-0.069
	c0.015-0.006,0.029-0.014,0.045-0.021c0.164-0.066,0.323-0.144,0.483-0.222c0.072-0.034,0.147-0.066,0.217-0.103
	c0.128-0.068,0.25-0.145,0.373-0.22c0.096-0.058,0.195-0.112,0.287-0.174c0.076-0.051,0.147-0.107,0.221-0.161
	c0.13-0.094,0.261-0.187,0.383-0.287c0.023-0.019,0.046-0.042,0.069-0.062c0.353-0.297,0.677-0.62,0.966-0.971
	c0.016-0.02,0.029-0.042,0.046-0.062c0.135-0.166,0.266-0.338,0.385-0.515c0.106-0.157,0.203-0.321,0.298-0.488
	c0.024-0.043,0.053-0.082,0.077-0.126c0.213-0.389,0.388-0.8,0.531-1.227c0.013-0.04,0.03-0.078,0.043-0.118
	c0.046-0.144,0.08-0.291,0.118-0.439c0.024-0.096,0.054-0.192,0.075-0.29c0.021-0.102,0.034-0.208,0.052-0.311
	c0.025-0.149,0.052-0.297,0.068-0.447c0.008-0.073,0.01-0.15,0.016-0.224c0.014-0.182,0.026-0.364,0.027-0.547
	c0.001-0.015,0.002-0.03,0.002-0.046c0-0.059-0.007-0.116-0.009-0.174c-0.004-0.178-0.01-0.357-0.026-0.535
	c-0.009-0.101-0.025-0.2-0.04-0.301c-0.019-0.143-0.038-0.285-0.065-0.429c-0.026-0.137-0.061-0.271-0.094-0.405
	c-0.026-0.104-0.05-0.208-0.08-0.311c-0.049-0.167-0.107-0.328-0.167-0.491c-0.022-0.059-0.038-0.119-0.061-0.177l-0.049-0.122
	c-0.003-0.007-0.005-0.014-0.008-0.02l-16.08-40.202c0.139-0.02,0.277-0.036,0.416-0.064c0.123-0.024,0.242-0.058,0.364-0.088
	c0.113-0.027,0.225-0.053,0.337-0.086c0.151-0.046,0.297-0.1,0.445-0.154c0.067-0.023,0.135-0.043,0.202-0.069
	c0.015-0.006,0.029-0.014,0.045-0.02c0.164-0.066,0.323-0.144,0.483-0.222c0.072-0.034,0.147-0.067,0.217-0.104
	c0.128-0.068,0.25-0.145,0.373-0.22c0.096-0.058,0.195-0.112,0.287-0.174c0.076-0.051,0.147-0.108,0.221-0.161
	c0.13-0.094,0.261-0.187,0.383-0.287c0.023-0.019,0.046-0.042,0.069-0.062c0.353-0.297,0.677-0.62,0.966-0.971
	c0.016-0.02,0.029-0.042,0.046-0.062c0.135-0.166,0.266-0.338,0.385-0.515c0.106-0.157,0.203-0.321,0.298-0.489
	c0.024-0.043,0.053-0.082,0.077-0.126c0.213-0.389,0.388-0.8,0.531-1.227c0.013-0.04,0.03-0.078,0.044-0.118
	c0.046-0.144,0.08-0.291,0.118-0.439c0.024-0.096,0.054-0.192,0.075-0.29c0.021-0.102,0.034-0.208,0.052-0.311
	c0.025-0.148,0.052-0.297,0.068-0.447c0.008-0.073,0.01-0.149,0.016-0.224c0.014-0.182,0.026-0.364,0.027-0.547
	c0-0.015,0.002-0.03,0.002-0.046c0-0.059-0.007-0.116-0.009-0.174c-0.004-0.178-0.01-0.357-0.026-0.535
	c-0.009-0.101-0.025-0.2-0.04-0.301c-0.019-0.143-0.038-0.285-0.065-0.429c-0.026-0.137-0.061-0.271-0.094-0.405
	c-0.026-0.103-0.05-0.208-0.08-0.311c-0.049-0.167-0.108-0.328-0.168-0.491c-0.022-0.059-0.037-0.119-0.061-0.177l-0.049-0.122
	c-0.002-0.007-0.005-0.014-0.008-0.02L450.63,85.787c-0.011-0.027-0.025-0.054-0.038-0.081c-0.054-0.132-0.117-0.26-0.177-0.387
	c-0.049-0.101-0.094-0.203-0.146-0.301c-0.061-0.113-0.131-0.223-0.197-0.334c-0.063-0.104-0.123-0.21-0.19-0.31
	c-0.066-0.099-0.141-0.194-0.212-0.29c-0.076-0.102-0.149-0.207-0.229-0.304c-0.08-0.097-0.167-0.189-0.251-0.281
	c-0.08-0.087-0.157-0.178-0.24-0.263c-0.101-0.101-0.21-0.194-0.316-0.289c-0.076-0.067-0.148-0.139-0.226-0.203
	c-0.114-0.094-0.234-0.179-0.354-0.267c-0.08-0.059-0.158-0.121-0.24-0.175c-0.113-0.076-0.233-0.145-0.352-0.215
	c-0.097-0.059-0.192-0.119-0.292-0.172c-0.107-0.058-0.221-0.107-0.333-0.161c-0.118-0.057-0.235-0.114-0.356-0.163
	c-0.03-0.013-0.058-0.028-0.088-0.041c-0.082-0.032-0.166-0.056-0.248-0.085c-0.124-0.045-0.246-0.089-0.372-0.127
	c-0.123-0.038-0.245-0.068-0.368-0.099c-0.117-0.028-0.233-0.059-0.351-0.081c-0.13-0.026-0.26-0.047-0.39-0.065
	c-0.115-0.017-0.229-0.033-0.344-0.045c-0.131-0.013-0.261-0.021-0.391-0.026c-0.119-0.006-0.236-0.011-0.356-0.011
	c-0.126,0-0.251,0.005-0.377,0.011c-0.123,0.006-0.245,0.014-0.368,0.025c-0.123,0.012-0.244,0.028-0.366,0.048
	c-0.125,0.018-0.247,0.038-0.371,0.062c-0.123,0.024-0.244,0.055-0.365,0.085c-0.12,0.029-0.238,0.06-0.358,0.096
	c-0.127,0.039-0.25,0.083-0.374,0.128c-0.082,0.029-0.166,0.053-0.248,0.085c-0.03,0.012-0.059,0.028-0.089,0.042
	c-0.118,0.049-0.231,0.104-0.346,0.158c-0.116,0.056-0.232,0.106-0.343,0.167c-0.093,0.051-0.182,0.106-0.275,0.161
	c-0.125,0.073-0.25,0.146-0.37,0.226c-0.073,0.05-0.142,0.105-0.214,0.156c-0.129,0.093-0.259,0.186-0.38,0.285
	c-0.067,0.056-0.13,0.118-0.196,0.175c-0.118,0.105-0.236,0.208-0.347,0.317c-0.073,0.073-0.139,0.152-0.209,0.229
	c-0.095,0.104-0.194,0.206-0.283,0.315c-0.073,0.089-0.139,0.186-0.209,0.278c-0.078,0.105-0.158,0.208-0.231,0.316
	c-0.064,0.095-0.121,0.197-0.18,0.295c-0.07,0.116-0.141,0.229-0.205,0.348c-0.052,0.096-0.096,0.197-0.144,0.296
	c-0.062,0.129-0.125,0.258-0.179,0.39c-0.012,0.027-0.026,0.054-0.037,0.081l-20.217,50.549c-0.003,0.006-0.005,0.013-0.008,0.02
	l-0.049,0.122c-0.023,0.059-0.039,0.119-0.061,0.177c-0.06,0.162-0.119,0.323-0.168,0.491c-0.03,0.103-0.054,0.207-0.08,0.311
	c-0.033,0.135-0.068,0.269-0.094,0.405c-0.027,0.144-0.046,0.286-0.066,0.429c-0.013,0.101-0.029,0.2-0.04,0.301
	c-0.017,0.179-0.022,0.358-0.026,0.535c-0.001,0.059-0.009,0.116-0.009,0.174c0,0.015,0.002,0.03,0.002,0.046
	c0.001,0.184,0.013,0.365,0.027,0.547c0.006,0.074,0.008,0.15,0.016,0.224c0.016,0.151,0.043,0.299,0.068,0.447
	c0.017,0.103,0.03,0.209,0.052,0.311c0.02,0.098,0.05,0.194,0.075,0.29c0.038,0.147,0.072,0.295,0.118,0.439
	c0.013,0.04,0.029,0.078,0.043,0.118c0.144,0.427,0.319,0.837,0.531,1.227c0.023,0.044,0.053,0.083,0.077,0.126
	c0.095,0.166,0.191,0.331,0.298,0.489c0.12,0.177,0.25,0.349,0.385,0.515c0.016,0.02,0.029,0.042,0.046,0.062
	c0.289,0.351,0.613,0.674,0.966,0.971c0.023,0.02,0.045,0.043,0.069,0.062c0.123,0.101,0.253,0.193,0.383,0.287
	c0.074,0.054,0.145,0.11,0.221,0.161c0.092,0.062,0.191,0.117,0.287,0.174c0.123,0.075,0.245,0.151,0.373,0.22
	c0.07,0.038,0.145,0.069,0.217,0.104c0.158,0.078,0.317,0.155,0.483,0.222c0.015,0.007,0.029,0.015,0.045,0.02
	c0.067,0.026,0.135,0.046,0.202,0.069c0.148,0.055,0.294,0.108,0.445,0.154c0.112,0.033,0.224,0.059,0.337,0.086
	c0.122,0.03,0.24,0.064,0.364,0.088c0.139,0.027,0.277,0.045,0.415,0.064l-16.08,40.202c-0.003,0.006-0.005,0.013-0.008,0.02
	l-0.049,0.122c-0.023,0.059-0.039,0.119-0.061,0.177c-0.06,0.162-0.119,0.323-0.167,0.491c-0.03,0.103-0.054,0.207-0.08,0.311
	c-0.033,0.135-0.068,0.269-0.094,0.405c-0.027,0.144-0.046,0.286-0.065,0.429c-0.013,0.101-0.029,0.2-0.04,0.301
	c-0.017,0.179-0.022,0.358-0.026,0.535c-0.001,0.059-0.009,0.116-0.009,0.174c0,0.015,0.002,0.03,0.002,0.046
	c0.001,0.184,0.013,0.365,0.027,0.547c0.006,0.074,0.008,0.15,0.016,0.224c0.016,0.15,0.043,0.299,0.068,0.447
	c0.017,0.102,0.03,0.209,0.052,0.311c0.021,0.098,0.05,0.194,0.075,0.29c0.037,0.148,0.072,0.295,0.118,0.439
	c0.013,0.04,0.029,0.078,0.043,0.118c0.144,0.427,0.318,0.837,0.531,1.227c0.023,0.044,0.053,0.083,0.077,0.126
	c0.095,0.166,0.192,0.331,0.298,0.488c0.12,0.177,0.25,0.349,0.385,0.515c0.016,0.02,0.029,0.042,0.046,0.062
	c0.289,0.351,0.613,0.674,0.966,0.971c0.023,0.02,0.045,0.043,0.069,0.062c0.123,0.101,0.253,0.193,0.383,0.287
	c0.074,0.054,0.145,0.111,0.221,0.161c0.092,0.062,0.191,0.117,0.287,0.174c0.123,0.075,0.245,0.151,0.373,0.22
	c0.07,0.038,0.145,0.069,0.217,0.103c0.158,0.078,0.317,0.155,0.483,0.222c0.015,0.007,0.029,0.015,0.045,0.021
	c0.067,0.026,0.135,0.046,0.202,0.069c0.148,0.055,0.294,0.108,0.445,0.154c0.111,0.033,0.224,0.059,0.337,0.086
	c0.122,0.03,0.24,0.064,0.364,0.088c0.181,0.035,0.363,0.061,0.545,0.083c0.058,0.007,0.114,0.018,0.171,0.023
	c0.253,0.025,0.506,0.041,0.757,0.041c0.009,0,0.018-0.002,0.026-0.002h22.783v23.354c-18.334-12.191-39.159-20.914-61.536-25.233
	c-0.267-0.065-0.535-0.118-0.807-0.154c-10.128-1.904-20.568-2.915-31.239-2.927c-0.026-0.001-0.053-0.001-0.079-0.002
	c-0.041,0-0.08-0.001-0.121-0.001c-59.543,0-114.949,31.476-145.591,82.392c-2.485,0.268-4.961,0.574-7.421,0.926
	c-15.929,2.271-31.602,6.296-46.618,11.974c-1.901,0.719-3.793,1.466-5.676,2.239v-11.351h22.785c0.009,0,0.018,0.002,0.028,0.002
	c0.114,0,0.228-0.014,0.342-0.02c0.154-0.007,0.309-0.01,0.46-0.025c0.106-0.012,0.213-0.032,0.318-0.05
	c0.17-0.025,0.341-0.052,0.508-0.087c0.092-0.021,0.185-0.048,0.277-0.071c0.185-0.049,0.366-0.101,0.545-0.162
	c0.081-0.027,0.16-0.058,0.24-0.087c0.196-0.075,0.387-0.157,0.576-0.246c0.043-0.021,0.086-0.034,0.128-0.056
	c0.028-0.014,0.054-0.031,0.082-0.047c0.143-0.073,0.281-0.153,0.419-0.236c0.085-0.052,0.171-0.101,0.254-0.154
	c0.113-0.074,0.22-0.153,0.328-0.233c0.098-0.072,0.199-0.143,0.293-0.219c0.084-0.067,0.162-0.14,0.243-0.211
	c0.107-0.095,0.216-0.189,0.318-0.289c0.065-0.065,0.126-0.134,0.19-0.201c0.104-0.111,0.21-0.221,0.307-0.338
	c0.064-0.076,0.123-0.157,0.184-0.236c0.086-0.112,0.173-0.222,0.252-0.338c0.071-0.103,0.135-0.212,0.201-0.319
	c0.06-0.097,0.123-0.192,0.177-0.292c0.073-0.132,0.138-0.269,0.204-0.405c0.039-0.081,0.08-0.159,0.117-0.241
	c0.064-0.147,0.119-0.298,0.173-0.449c0.028-0.079,0.061-0.156,0.086-0.236c0.046-0.144,0.084-0.289,0.123-0.436
	c0.025-0.096,0.053-0.192,0.074-0.288c0.027-0.126,0.047-0.253,0.068-0.38c0.021-0.126,0.043-0.25,0.058-0.377
	c0.012-0.104,0.018-0.21,0.026-0.314c0.011-0.153,0.021-0.307,0.023-0.461c0.001-0.033,0.005-0.066,0.005-0.1
	c0-0.062-0.008-0.121-0.009-0.182c-0.004-0.158-0.01-0.318-0.024-0.478c-0.009-0.103-0.021-0.205-0.034-0.307
	c-0.018-0.141-0.039-0.282-0.065-0.423c-0.022-0.121-0.049-0.239-0.077-0.358c-0.027-0.117-0.057-0.233-0.09-0.35
	c-0.04-0.141-0.085-0.277-0.133-0.413c-0.033-0.095-0.067-0.191-0.104-0.284c-0.06-0.15-0.126-0.298-0.195-0.445
	c-0.025-0.054-0.045-0.108-0.071-0.162l-14.92-29.824c0.05-0.014,0.1-0.026,0.151-0.042c0.151-0.046,0.297-0.1,0.445-0.154
	c0.067-0.023,0.135-0.043,0.202-0.069c0.015-0.006,0.029-0.014,0.045-0.021c0.164-0.066,0.323-0.144,0.483-0.222
	c0.072-0.034,0.147-0.066,0.217-0.104c0.128-0.068,0.25-0.145,0.373-0.22c0.096-0.058,0.195-0.112,0.287-0.174
	c0.076-0.051,0.147-0.107,0.221-0.161c0.13-0.094,0.261-0.187,0.383-0.287c0.024-0.019,0.046-0.042,0.069-0.062
	c0.353-0.297,0.677-0.62,0.966-0.971c0.016-0.02,0.029-0.042,0.046-0.062c0.135-0.166,0.266-0.338,0.385-0.515
	c0.106-0.157,0.203-0.321,0.298-0.488c0.024-0.043,0.053-0.082,0.077-0.126c0.213-0.389,0.388-0.8,0.531-1.227
	c0.013-0.04,0.03-0.078,0.044-0.118c0.046-0.144,0.08-0.291,0.118-0.439c0.024-0.096,0.054-0.192,0.075-0.29
	c0.021-0.102,0.034-0.208,0.052-0.311c0.025-0.148,0.052-0.297,0.068-0.447c0.008-0.073,0.01-0.149,0.016-0.224
	c0.014-0.182,0.026-0.364,0.027-0.547c0-0.015,0.002-0.03,0.002-0.046c0-0.059-0.007-0.116-0.009-0.174
	c-0.004-0.178-0.01-0.357-0.026-0.535c-0.009-0.101-0.025-0.2-0.039-0.301c-0.019-0.143-0.038-0.285-0.065-0.429
	c-0.026-0.137-0.061-0.271-0.094-0.406c-0.026-0.103-0.05-0.208-0.08-0.311c-0.049-0.167-0.107-0.328-0.168-0.491
	c-0.022-0.059-0.038-0.119-0.061-0.177l-0.049-0.122c-0.002-0.007-0.005-0.014-0.008-0.019l-20.217-50.549
	c-0.011-0.028-0.026-0.054-0.038-0.082c-0.054-0.13-0.116-0.257-0.176-0.383c-0.049-0.102-0.095-0.206-0.148-0.305
	c-0.06-0.109-0.127-0.217-0.192-0.324c-0.065-0.106-0.126-0.217-0.196-0.319c-0.063-0.094-0.134-0.184-0.201-0.275
	c-0.079-0.107-0.156-0.218-0.24-0.319c-0.073-0.089-0.154-0.173-0.232-0.259c-0.086-0.096-0.17-0.195-0.262-0.286
	c-0.09-0.09-0.189-0.173-0.284-0.26c-0.086-0.078-0.17-0.159-0.261-0.233c-0.102-0.084-0.211-0.16-0.318-0.239
	c-0.091-0.067-0.181-0.139-0.276-0.202c-0.102-0.068-0.212-0.13-0.318-0.194c-0.108-0.065-0.215-0.133-0.327-0.192
	c-0.098-0.054-0.201-0.099-0.302-0.148c-0.128-0.062-0.254-0.124-0.386-0.177c-0.027-0.012-0.053-0.026-0.081-0.038
	c-0.076-0.029-0.152-0.051-0.229-0.078c-0.132-0.049-0.264-0.096-0.398-0.137c-0.115-0.034-0.23-0.064-0.345-0.092
	c-0.124-0.031-0.247-0.063-0.373-0.087c-0.125-0.024-0.248-0.044-0.372-0.062c-0.12-0.018-0.24-0.034-0.361-0.047
	c-0.126-0.013-0.251-0.02-0.377-0.025c-0.123-0.006-0.244-0.011-0.368-0.011c-0.123,0-0.245,0.005-0.367,0.011
	c-0.126,0.006-0.251,0.013-0.377,0.025c-0.121,0.012-0.239,0.028-0.359,0.047c-0.126,0.018-0.251,0.038-0.376,0.062
	c-0.123,0.024-0.243,0.055-0.364,0.085c-0.119,0.029-0.237,0.06-0.356,0.095c-0.128,0.04-0.254,0.085-0.38,0.131
	c-0.081,0.028-0.163,0.052-0.243,0.083c-0.03,0.012-0.058,0.027-0.087,0.04c-0.122,0.051-0.238,0.108-0.357,0.164
	c-0.112,0.054-0.224,0.104-0.332,0.161c-0.098,0.053-0.193,0.113-0.289,0.17c-0.12,0.071-0.241,0.14-0.357,0.217
	c-0.078,0.054-0.152,0.113-0.229,0.168c-0.123,0.089-0.247,0.177-0.364,0.274c-0.073,0.062-0.142,0.128-0.213,0.191
	c-0.112,0.1-0.225,0.197-0.331,0.302c-0.078,0.079-0.149,0.164-0.224,0.245c-0.09,0.099-0.184,0.195-0.268,0.298
	c-0.077,0.094-0.146,0.194-0.219,0.292c-0.075,0.1-0.152,0.198-0.222,0.302c-0.065,0.098-0.124,0.202-0.186,0.304
	c-0.068,0.113-0.138,0.224-0.201,0.34c-0.052,0.097-0.096,0.199-0.145,0.298c-0.062,0.129-0.125,0.258-0.178,0.389
	c-0.011,0.027-0.026,0.054-0.038,0.081l-20.217,50.549c-0.003,0.006-0.005,0.013-0.008,0.019l-0.049,0.122
	c-0.023,0.059-0.039,0.119-0.061,0.177c-0.06,0.162-0.119,0.323-0.168,0.491c-0.03,0.103-0.054,0.207-0.08,0.311
	c-0.033,0.135-0.068,0.269-0.094,0.406c-0.027,0.144-0.046,0.286-0.066,0.429c-0.013,0.101-0.029,0.2-0.04,0.301
	c-0.017,0.179-0.022,0.357-0.026,0.535c-0.002,0.059-0.009,0.116-0.009,0.174c0,0.015,0.002,0.03,0.002,0.046
	c0.001,0.184,0.013,0.365,0.027,0.547c0.006,0.074,0.008,0.15,0.016,0.224c0.016,0.15,0.043,0.299,0.068,0.447
	c0.017,0.103,0.03,0.209,0.052,0.311c0.021,0.098,0.05,0.194,0.075,0.29c0.038,0.148,0.072,0.295,0.118,0.439
	c0.013,0.04,0.029,0.078,0.044,0.118c0.144,0.427,0.318,0.837,0.531,1.227c0.023,0.044,0.053,0.083,0.077,0.126
	c0.095,0.166,0.191,0.331,0.298,0.488c0.12,0.177,0.25,0.349,0.385,0.515c0.016,0.02,0.029,0.042,0.046,0.062
	c0.289,0.351,0.613,0.674,0.966,0.971c0.023,0.02,0.045,0.043,0.069,0.062c0.123,0.101,0.253,0.193,0.383,0.287
	c0.074,0.054,0.145,0.111,0.221,0.161c0.092,0.063,0.191,0.117,0.287,0.174c0.123,0.075,0.245,0.151,0.373,0.22
	c0.07,0.038,0.145,0.069,0.217,0.104c0.158,0.078,0.317,0.155,0.483,0.222c0.015,0.007,0.029,0.015,0.045,0.021
	c0.067,0.026,0.135,0.046,0.202,0.069c0.148,0.055,0.294,0.108,0.445,0.154c0.05,0.015,0.1,0.027,0.15,0.042l-14.916,29.823
	c-0.026,0.054-0.046,0.108-0.071,0.162c-0.069,0.147-0.135,0.294-0.195,0.445c-0.038,0.094-0.07,0.189-0.104,0.284
	c-0.048,0.136-0.093,0.272-0.133,0.413c-0.033,0.116-0.063,0.232-0.09,0.35c-0.028,0.119-0.055,0.237-0.077,0.358
	c-0.026,0.141-0.047,0.282-0.065,0.423c-0.013,0.102-0.025,0.204-0.034,0.307c-0.014,0.159-0.02,0.318-0.024,0.478
	c-0.001,0.061-0.009,0.121-0.009,0.182c0,0.033,0.004,0.066,0.005,0.1c0.002,0.154,0.012,0.308,0.023,0.461
	c0.008,0.104,0.014,0.211,0.026,0.314c0.015,0.127,0.037,0.251,0.058,0.377c0.021,0.127,0.041,0.254,0.068,0.38
	c0.021,0.097,0.049,0.192,0.074,0.288c0.039,0.147,0.076,0.292,0.123,0.436c0.026,0.079,0.058,0.156,0.086,0.236
	c0.055,0.151,0.109,0.303,0.173,0.449c0.037,0.082,0.078,0.16,0.117,0.241c0.066,0.137,0.13,0.274,0.204,0.405
	c0.055,0.1,0.118,0.195,0.177,0.292c0.066,0.106,0.13,0.216,0.201,0.319c0.079,0.116,0.166,0.226,0.252,0.338
	c0.061,0.079,0.12,0.16,0.184,0.236c0.097,0.117,0.203,0.227,0.307,0.338c0.064,0.067,0.124,0.137,0.19,0.201
	c0.101,0.1,0.211,0.194,0.317,0.289c0.081,0.071,0.159,0.144,0.243,0.211c0.094,0.076,0.194,0.147,0.293,0.219
	c0.108,0.079,0.216,0.158,0.328,0.233c0.083,0.054,0.169,0.103,0.254,0.154c0.138,0.082,0.276,0.162,0.419,0.236
	c0.028,0.015,0.054,0.032,0.082,0.047c0.043,0.021,0.086,0.034,0.13,0.056c0.186,0.089,0.375,0.17,0.569,0.244
	c0.084,0.031,0.167,0.064,0.251,0.091c0.173,0.06,0.35,0.111,0.529,0.157c0.097,0.025,0.194,0.054,0.292,0.075
	c0.162,0.034,0.326,0.061,0.492,0.085c0.111,0.017,0.221,0.039,0.332,0.051c0.148,0.016,0.299,0.018,0.45,0.025
	c0.117,0.005,0.233,0.02,0.35,0.02c0.01,0,0.019-0.002,0.028-0.002h22.785V297.1c-7.26,3.648-14.328,7.691-21.141,12.118
	c-13.048,8.475-25.245,18.381-36.245,29.422c-11.01,11.041-20.855,23.278-29.28,36.367c-1.105,1.703-1.47,3.74-1.044,5.727
	c0.436,1.977,1.612,3.681,3.315,4.776c1.237,0.8,2.656,1.216,4.106,1.216c2.606,0,4.998-1.308,6.408-3.487
	c7.847-12.188,17.023-23.582,27.273-33.863c10.24-10.29,21.595-19.507,33.751-27.404c12.288-7.989,25.448-14.66,39.125-19.821
	c13.971-5.282,28.56-9.033,43.373-11.141c5.432-0.776,10.937-1.324,16.465-1.662c-11.355,6.66-24.72,16.004-38.126,28.797
	c-19.856,18.949-35.674,41.561-47.011,67.206c-13.205,29.871-20.313,63.918-21.157,101.301H15.366
	c0.453-12.398,1.995-24.728,4.639-36.733c3.092-14.072,7.705-27.861,13.707-40.97c1.744-3.812,0.061-8.334-3.751-10.077
	c-1.004-0.456-2.068-0.689-3.153-0.689c-2.971,0-5.688,1.744-6.925,4.441c-6.448,14.082-11.396,28.895-14.731,44.032
	c-3.413,15.516-5.146,31.517-5.15,47.548c0,0.019-0.002,0.035-0.002,0.054c0,4.2,3.405,7.604,7.604,7.604h425.818
	c3.35,0,6.188-2.169,7.201-5.176c0.259-0.763,0.405-1.579,0.405-2.428c0-14.964-1.511-29.909-4.481-44.437
	c-2.9-14.164-7.219-28.084-12.856-41.396c-5.526-13.069-12.359-25.671-20.328-37.452c-0.207-0.306-0.423-0.606-0.631-0.91h101.664
	c4.199,0,7.604-3.404,7.604-7.604C512,310.267,488.33,263.509,451.169,232.333z M443.565,109.088l9.044,22.611h-18.087
	L443.565,109.088z M438.577,146.907h9.976l14.193,35.483h-38.361L438.577,146.907z M129.27,200.443l9.044,22.611h-18.087
	L129.27,200.443z M123.833,238.262h10.875l12.671,25.343h-36.217L123.833,238.262z M306.348,291.079
	c-5.304-2.246-10.707-4.273-16.181-6.094c11.293-49.183,46.281-72.514,53.978-77.118c3.689,0.047,7.347,0.22,10.971,0.521
	c-13.723,14.244-33.9,42.125-39.676,86.789C312.436,293.742,309.406,292.371,306.348,291.079z M316.239,210.052
	c-14.733,13.689-32.672,36.469-40.688,70.618c-3.514-0.903-7.049-1.72-10.599-2.446c-7.609-1.555-15.334-2.7-23.115-3.447
	c-0.252-0.035-0.508-0.059-0.765-0.068c-6.823-0.632-13.687-0.965-20.557-0.965c-1.668,0-3.338,0.025-5.006,0.062
	C239.293,239.909,275.741,216.982,316.239,210.052z M136.342,391.954c10.438-23.765,24.996-44.725,43.269-62.297
	c27.67-26.61,55.734-37.423,62.045-39.627c6.814,0.696,13.579,1.723,20.245,3.087c0.495,0.101,0.985,0.217,1.48,0.321
	c-31.195,24.422-78.756,80.107-80.807,193.214h-65.881C117.523,451.609,124.119,419.782,136.342,391.954z M409.69,414.343
	c5.231,12.389,9.256,25.346,11.953,38.526c2.264,11.064,3.603,22.395,4.021,33.783H197.786
	c2.256-119.91,57.574-170.552,84.665-188.187c6.094,1.926,12.101,4.129,17.977,6.615c12.166,5.139,23.897,11.516,34.866,18.929
	c10.869,7.339,21.098,15.776,30.395,25.073c9.287,9.297,17.722,19.527,25.073,30.395C398.173,390.446,404.54,402.177,409.69,414.343
	z M376.436,338.335c-9.976-9.987-20.956-19.04-32.636-26.929c-4.521-3.059-9.164-5.944-13.907-8.658
	c3.219-33.166,15.246-56.356,25.016-70.169c7.98-11.282,15.744-18.27,19.531-21.342c67.421,14.367,118.719,72.81,122.165,143.613
	H391.361C386.662,349.1,381.682,343.575,376.436,338.335z"/>
<path d="M240.812,106.455c15.373,0,27.88-12.507,27.88-27.88c0-15.372-12.507-27.879-27.88-27.879s-27.88,12.507-27.88,27.879
	C212.933,93.948,225.439,106.455,240.812,106.455z M240.812,65.904c6.987,0,12.672,5.684,12.672,12.671
	c0,6.987-5.685,12.672-12.672,12.672s-12.672-5.685-12.672-12.672C228.14,71.588,233.825,65.904,240.812,65.904z"/>
<path d="M240.811,35.485c4.199,0,7.604-3.404,7.604-7.604V17.743c0-4.2-3.405-7.604-7.604-7.604c-4.199,0-7.604,3.404-7.604,7.604
	v10.139C233.208,32.082,236.611,35.485,240.811,35.485z"/>
<path d="M233.208,129.268v10.139c0,4.2,3.405,7.604,7.604,7.604c4.199,0,7.604-3.404,7.604-7.604v-10.139
	c0-4.2-3.405-7.604-7.604-7.604C236.611,121.664,233.208,125.067,233.208,129.268z"/>
<path d="M199.588,48.107c1.484,1.484,3.431,2.226,5.376,2.226c1.946,0,3.892-0.742,5.376-2.226c2.97-2.971,2.97-7.784,0-10.754
	l-7.169-7.169c-2.97-2.969-7.784-2.969-10.753,0c-2.97,2.971-2.97,7.784,0,10.755L199.588,48.107z"/>
<path d="M271.28,109.043c-2.97,2.97-2.971,7.784-0.001,10.753l7.168,7.169c1.484,1.485,3.431,2.227,5.377,2.227
	c1.947,0,3.891-0.743,5.376-2.226c2.97-2.97,2.971-7.784,0.001-10.753l-7.168-7.169C279.064,106.074,274.249,106.075,271.28,109.043
	z"/>
<path d="M179.978,86.18h10.139c4.199,0,7.604-3.404,7.604-7.604s-3.405-7.604-7.604-7.604h-10.139c-4.199,0-7.604,3.404-7.604,7.604
	S175.778,86.18,179.978,86.18z"/>
<path d="M283.9,78.574c0,4.2,3.404,7.605,7.603,7.605l10.139,0.001h0.001c4.199,0,7.604-3.404,7.604-7.603
	c0-4.2-3.404-7.605-7.603-7.605l-10.139-0.001c-0.001,0-0.001,0-0.001,0C287.305,70.971,283.9,74.375,283.9,78.574z"/>
<path d="M199.588,109.046l-7.169,7.169c-2.97,2.971-2.97,7.784,0,10.754c1.484,1.484,3.431,2.226,5.376,2.226
	c1.946,0,3.892-0.742,5.376-2.226l7.169-7.169c2.97-2.971,2.97-7.784,0-10.754C207.373,106.077,202.558,106.077,199.588,109.046z"/>
<path d="M276.655,50.333c1.946,0,3.891-0.742,5.376-2.226l7.17-7.168c2.97-2.969,2.971-7.783,0.001-10.753
	c-2.97-2.97-7.784-2.971-10.754-0.001l-7.17,7.168c-2.97,2.969-2.971,7.783-0.001,10.753
	C272.763,49.591,274.709,50.333,276.655,50.333z"/>
<g>
</g>
<g>
</g>
<g>
</g>
<g>
</g>
<g>
</g>
<g>
</g>
<g>
</g>
<g>
</g>
<g>
</g>
<g>
</g>
<g>
</g>
<g>
</g>
<g>
</g>
<g>
</g>
<g>
</g>
</svg>
