<?xml version="1.0" encoding="iso-8859-1"?>
<!-- Generator: Adobe Illustrator 19.0.0, SVG Export Plug-In . SVG Version: 6.00 Build 0)  -->
<svg version="1.1" id="Capa_1" xmlns="http://www.w3.org/2000/svg" xmlns:xlink="http://www.w3.org/1999/xlink" x="0px" y="0px"
	 viewBox="0 0 512 512" style="enable-background:new 0 0 512 512;" xml:space="preserve">
<path style="fill:#A0D860;" d="M376.44,338.33c-41.65-41.649-97.026-64.587-155.927-64.587S106.237,296.681,64.586,338.33
	C22.937,379.98,0,435.355,0,494.257c0,4.2,3.405,7.604,7.604,7.604h425.818c4.199,0,7.604-3.404,7.604-7.604
	C441.026,435.355,418.089,379.98,376.44,338.33z"/>
<g>
	<path style="fill:#89BF43;" d="M376.44,338.33c-41.65-41.649-97.026-64.587-155.927-64.587c-5.099,0-10.17,0.184-15.209,0.525
		c53.175,3.599,102.673,26.019,140.717,64.061c41.649,41.65,64.587,97.025,64.587,155.927c0,4.2-3.405,7.604-7.604,7.604h30.419
		c4.199,0,7.604-3.404,7.604-7.604C441.026,435.355,418.089,379.98,376.44,338.33z"/>
	<path style="fill:#89BF43;" d="M342.18,192.635c-61.684,0-115.787,33.062-145.533,82.393c7.874-0.842,15.836-1.285,23.866-1.285
		c58.901,0,114.276,22.937,155.927,64.587c9.851,9.852,18.641,20.478,26.342,31.73h101.615c4.199,0,7.604-3.404,7.604-7.604
		C512,268.817,435.819,192.635,342.18,192.635z"/>
</g>
<path style="fill:#78A833;" d="M342.18,192.635c-5.112,0-10.166,0.248-15.164,0.693c86.518,7.74,154.566,80.63,154.566,169.127
	c0,4.2-3.405,7.604-7.604,7.604h30.419c4.199,0,7.604-3.404,7.604-7.604C512,268.817,435.819,192.635,342.18,192.635z"/>
<path style="fill:#006289;" d="M331.224,303.461c8.811-50.802,43.682-91.204,56.504-104.612
	c-14.501-4.042-29.776-6.213-45.548-6.213c-1.587,0-3.165,0.035-4.742,0.079c-17.755,17.018-46.539,49.178-59.174,88.64
	C296.828,286.357,314.607,293.781,331.224,303.461z"/>
<path style="fill:#005772;" d="M335.751,194.345c15.613,2.218,30.549,6.564,44.505,12.738c2.909-3.366,5.463-6.134,7.473-8.236
	c-1.732-0.484-3.474-0.935-5.227-1.364c-0.15-0.036-0.301-0.074-0.452-0.111c-3.55-0.858-7.143-1.605-10.774-2.236
	c-0.181-0.03-0.364-0.06-0.546-0.09c-1.57-0.269-3.15-0.511-4.735-0.735c-0.327-0.047-0.655-0.094-0.983-0.139
	c-3.515-0.475-7.064-0.842-10.642-1.098c-0.435-0.03-0.872-0.056-1.308-0.083c-1.358-0.086-2.719-0.156-4.085-0.211
	c-0.495-0.02-0.99-0.042-1.484-0.057c-1.765-0.055-3.533-0.091-5.312-0.091c-1.587,0-3.165,0.035-4.742,0.079
	C336.885,193.243,336.324,193.787,335.751,194.345z"/>
<path style="fill:#A0D860;" d="M153.113,237.372c0.128-0.068,0.25-0.145,0.373-0.22c0.096-0.058,0.195-0.112,0.287-0.174
	c0.076-0.051,0.147-0.107,0.221-0.161c0.13-0.094,0.261-0.187,0.383-0.287c0.024-0.019,0.046-0.042,0.069-0.062
	c0.353-0.297,0.677-0.62,0.966-0.971c0.016-0.02,0.029-0.042,0.046-0.062c0.135-0.166,0.266-0.338,0.385-0.515
	c0.106-0.157,0.203-0.321,0.298-0.488c0.024-0.043,0.053-0.082,0.077-0.126c0.213-0.389,0.388-0.8,0.531-1.227
	c0.013-0.04,0.03-0.078,0.044-0.118c0.046-0.144,0.08-0.291,0.118-0.439c0.024-0.096,0.054-0.192,0.075-0.29
	c0.021-0.102,0.034-0.208,0.052-0.311c0.025-0.148,0.052-0.297,0.068-0.447c0.008-0.073,0.01-0.149,0.016-0.224
	c0.014-0.182,0.026-0.364,0.027-0.547c0-0.015,0.002-0.03,0.002-0.046c0-0.059-0.007-0.116-0.009-0.174
	c-0.004-0.178-0.01-0.357-0.026-0.535c-0.009-0.101-0.025-0.2-0.039-0.301c-0.019-0.143-0.038-0.285-0.065-0.429
	c-0.026-0.137-0.061-0.271-0.094-0.406c-0.026-0.103-0.05-0.208-0.08-0.311c-0.049-0.167-0.107-0.328-0.168-0.491
	c-0.022-0.059-0.038-0.119-0.061-0.177l-0.049-0.122c-0.002-0.007-0.005-0.014-0.008-0.019l-20.217-50.549
	c-0.011-0.028-0.026-0.054-0.038-0.082c-0.054-0.13-0.116-0.257-0.176-0.383c-0.049-0.102-0.095-0.206-0.148-0.305
	c-0.06-0.109-0.127-0.217-0.192-0.324c-0.065-0.106-0.126-0.217-0.196-0.319c-0.063-0.094-0.134-0.184-0.201-0.275
	c-0.079-0.107-0.156-0.218-0.24-0.319c-0.073-0.089-0.154-0.173-0.232-0.259c-0.086-0.096-0.17-0.195-0.262-0.286
	c-0.09-0.09-0.189-0.173-0.284-0.26c-0.086-0.078-0.17-0.159-0.261-0.233c-0.102-0.084-0.211-0.16-0.318-0.239
	c-0.091-0.067-0.181-0.139-0.276-0.202c-0.102-0.068-0.212-0.13-0.318-0.194c-0.108-0.065-0.215-0.133-0.327-0.192
	c-0.098-0.054-0.201-0.099-0.302-0.148c-0.128-0.062-0.254-0.124-0.386-0.177c-0.027-0.012-0.053-0.026-0.081-0.038
	c-0.076-0.029-0.152-0.051-0.229-0.078c-0.132-0.049-0.264-0.096-0.398-0.137c-0.115-0.034-0.23-0.064-0.345-0.092
	c-0.124-0.031-0.247-0.063-0.373-0.087c-0.125-0.024-0.248-0.044-0.372-0.062c-0.12-0.018-0.24-0.034-0.361-0.047
	c-0.126-0.013-0.251-0.02-0.377-0.025c-0.123-0.006-0.244-0.011-0.368-0.011c-0.123,0-0.245,0.005-0.367,0.011
	c-0.126,0.006-0.251,0.013-0.377,0.025c-0.121,0.012-0.239,0.028-0.359,0.047c-0.126,0.018-0.251,0.038-0.376,0.062
	c-0.123,0.024-0.243,0.055-0.364,0.085c-0.119,0.029-0.237,0.06-0.356,0.095c-0.128,0.04-0.254,0.085-0.38,0.131
	c-0.081,0.028-0.163,0.052-0.243,0.083c-0.03,0.012-0.058,0.027-0.087,0.04c-0.122,0.051-0.238,0.108-0.357,0.164
	c-0.112,0.054-0.224,0.104-0.332,0.161c-0.098,0.053-0.193,0.113-0.289,0.17c-0.12,0.071-0.241,0.14-0.357,0.217
	c-0.078,0.054-0.152,0.113-0.229,0.168c-0.123,0.089-0.247,0.177-0.364,0.274c-0.073,0.062-0.142,0.128-0.213,0.191
	c-0.112,0.1-0.225,0.197-0.331,0.302c-0.078,0.079-0.149,0.164-0.224,0.245c-0.09,0.099-0.184,0.195-0.268,0.298
	c-0.077,0.094-0.146,0.194-0.219,0.292c-0.075,0.1-0.152,0.198-0.222,0.302c-0.065,0.098-0.124,0.202-0.186,0.304
	c-0.068,0.113-0.138,0.224-0.201,0.34c-0.052,0.097-0.096,0.199-0.145,0.298c-0.062,0.129-0.125,0.258-0.178,0.389
	c-0.011,0.027-0.026,0.054-0.038,0.081l-20.217,50.549c-0.003,0.006-0.005,0.013-0.008,0.019l-0.049,0.122
	c-0.023,0.059-0.039,0.119-0.061,0.177c-0.06,0.162-0.119,0.323-0.168,0.491c-0.03,0.103-0.054,0.207-0.08,0.311
	c-0.033,0.135-0.068,0.269-0.094,0.406c-0.027,0.144-0.046,0.286-0.066,0.429c-0.013,0.101-0.029,0.2-0.04,0.301
	c-0.017,0.179-0.022,0.357-0.026,0.535c-0.002,0.059-0.009,0.116-0.009,0.174c0,0.015,0.002,0.03,0.002,0.046
	c0.001,0.184,0.013,0.365,0.027,0.547c0.006,0.074,0.008,0.15,0.016,0.224c0.016,0.15,0.043,0.299,0.068,0.447
	c0.017,0.103,0.03,0.209,0.052,0.311c0.021,0.098,0.05,0.194,0.075,0.29c0.038,0.148,0.072,0.295,0.118,0.439
	c0.013,0.04,0.029,0.078,0.044,0.118c0.144,0.427,0.318,0.837,0.531,1.227c0.023,0.044,0.053,0.083,0.077,0.126
	c0.095,0.166,0.191,0.331,0.298,0.488c0.12,0.177,0.25,0.349,0.385,0.515c0.016,0.02,0.029,0.042,0.046,0.062
	c0.289,0.351,0.613,0.674,0.966,0.971c0.023,0.02,0.045,0.043,0.069,0.062c0.123,0.101,0.253,0.193,0.383,0.287
	c0.074,0.054,0.145,0.111,0.221,0.161c0.092,0.063,0.191,0.117,0.287,0.174c0.123,0.075,0.245,0.151,0.373,0.22
	c0.07,0.038,0.145,0.069,0.217,0.104c0.158,0.078,0.317,0.155,0.483,0.222c0.015,0.007,0.029,0.015,0.045,0.021
	c0.067,0.026,0.135,0.046,0.202,0.069c0.148,0.055,0.294,0.108,0.445,0.154c0.112,0.033,0.224,0.059,0.337,0.086
	c0.122,0.03,0.24,0.064,0.364,0.088c0.181,0.035,0.363,0.061,0.545,0.083c0.058,0.007,0.114,0.018,0.171,0.023
	c0.252,0.025,0.506,0.041,0.757,0.041c0.009,0,0.018-0.002,0.026-0.002h40.5c0.009,0,0.018,0.002,0.026,0.002
	c0.251,0,0.505-0.015,0.757-0.041c0.058-0.006,0.114-0.017,0.171-0.023c0.181-0.023,0.363-0.048,0.545-0.083
	c0.124-0.024,0.242-0.058,0.364-0.088c0.113-0.027,0.225-0.053,0.337-0.086c0.151-0.046,0.297-0.1,0.445-0.154
	c0.067-0.023,0.135-0.043,0.202-0.069c0.015-0.006,0.029-0.014,0.045-0.021c0.164-0.066,0.323-0.144,0.483-0.222
	C152.968,237.441,153.043,237.41,153.113,237.372z"/>
<path style="fill:#89BF43;" d="M167.277,271.027c-0.004-0.158-0.01-0.318-0.024-0.478c-0.009-0.103-0.021-0.205-0.034-0.307
	c-0.018-0.141-0.039-0.282-0.065-0.423c-0.022-0.121-0.049-0.239-0.077-0.358c-0.027-0.117-0.057-0.233-0.09-0.35
	c-0.04-0.141-0.085-0.277-0.133-0.413c-0.033-0.095-0.067-0.191-0.104-0.284c-0.06-0.15-0.126-0.298-0.195-0.445
	c-0.025-0.054-0.045-0.108-0.071-0.162l-14.914-29.828c-0.062,0.016-0.123,0.032-0.185,0.048c-0.122,0.03-0.24,0.064-0.364,0.088
	c-0.181,0.035-0.363,0.061-0.545,0.083c-0.058,0.007-0.114,0.018-0.171,0.023c-0.252,0.025-0.506,0.041-0.757,0.041
	c-0.009,0-0.018-0.002-0.026-0.002h-40.5c-0.009,0-0.018,0.002-0.026,0.002c-0.251,0-0.505-0.015-0.757-0.041
	c-0.058-0.006-0.114-0.017-0.171-0.023c-0.181-0.023-0.363-0.048-0.545-0.083c-0.124-0.024-0.242-0.058-0.364-0.088
	c-0.062-0.015-0.124-0.031-0.186-0.048l-14.912,29.829c-0.026,0.054-0.046,0.108-0.071,0.162c-0.069,0.147-0.135,0.294-0.195,0.445
	c-0.038,0.094-0.07,0.189-0.104,0.284c-0.048,0.136-0.093,0.272-0.133,0.413c-0.033,0.116-0.063,0.232-0.09,0.35
	c-0.028,0.119-0.055,0.237-0.077,0.358c-0.026,0.141-0.047,0.282-0.065,0.423c-0.013,0.102-0.025,0.204-0.034,0.307
	c-0.014,0.159-0.02,0.318-0.024,0.478c-0.001,0.061-0.009,0.121-0.009,0.182c0,0.033,0.004,0.066,0.005,0.1
	c0.002,0.154,0.012,0.308,0.023,0.461c0.008,0.104,0.014,0.211,0.026,0.314c0.015,0.127,0.036,0.251,0.058,0.377
	c0.021,0.127,0.041,0.254,0.068,0.38c0.021,0.097,0.049,0.192,0.074,0.288c0.039,0.147,0.076,0.292,0.123,0.436
	c0.026,0.079,0.058,0.156,0.086,0.236c0.055,0.151,0.109,0.303,0.173,0.449c0.037,0.082,0.078,0.16,0.117,0.241
	c0.066,0.137,0.13,0.274,0.204,0.405c0.055,0.1,0.118,0.195,0.177,0.292c0.066,0.106,0.13,0.216,0.201,0.319
	c0.079,0.116,0.166,0.226,0.252,0.338c0.061,0.079,0.12,0.16,0.184,0.236c0.097,0.117,0.203,0.227,0.307,0.338
	c0.064,0.067,0.124,0.137,0.19,0.201c0.101,0.1,0.211,0.194,0.317,0.289c0.081,0.071,0.159,0.144,0.243,0.211
	c0.094,0.076,0.194,0.147,0.293,0.219c0.108,0.079,0.216,0.158,0.328,0.233c0.083,0.054,0.169,0.103,0.254,0.154
	c0.138,0.082,0.276,0.162,0.419,0.236c0.028,0.015,0.054,0.032,0.082,0.047c0.043,0.021,0.086,0.034,0.13,0.056
	c0.186,0.089,0.375,0.17,0.569,0.244c0.084,0.031,0.167,0.064,0.251,0.091c0.173,0.06,0.35,0.111,0.529,0.157
	c0.097,0.025,0.194,0.054,0.292,0.075c0.162,0.034,0.326,0.061,0.492,0.085c0.111,0.017,0.221,0.039,0.332,0.051
	c0.148,0.016,0.299,0.018,0.45,0.025c0.117,0.005,0.233,0.02,0.35,0.02c0.01,0,0.019-0.002,0.028-0.002h60.777
	c0.009,0,0.018,0.002,0.028,0.002c0.114,0,0.228-0.014,0.342-0.02c0.154-0.007,0.309-0.01,0.46-0.025
	c0.106-0.012,0.213-0.032,0.318-0.05c0.17-0.025,0.341-0.052,0.508-0.087c0.092-0.021,0.185-0.048,0.277-0.071
	c0.185-0.049,0.366-0.101,0.545-0.162c0.081-0.027,0.16-0.058,0.24-0.087c0.196-0.075,0.387-0.157,0.576-0.246
	c0.043-0.021,0.086-0.034,0.128-0.056c0.028-0.014,0.054-0.031,0.082-0.047c0.143-0.073,0.281-0.153,0.419-0.236
	c0.085-0.052,0.171-0.101,0.254-0.154c0.113-0.074,0.22-0.153,0.328-0.233c0.098-0.072,0.199-0.143,0.293-0.219
	c0.084-0.067,0.162-0.14,0.243-0.211c0.107-0.095,0.216-0.189,0.318-0.289c0.065-0.065,0.126-0.134,0.19-0.201
	c0.104-0.111,0.21-0.221,0.307-0.338c0.064-0.076,0.123-0.157,0.184-0.236c0.086-0.112,0.173-0.222,0.252-0.338
	c0.071-0.103,0.135-0.212,0.201-0.319c0.06-0.097,0.123-0.192,0.177-0.292c0.073-0.132,0.138-0.269,0.204-0.405
	c0.039-0.081,0.08-0.159,0.117-0.241c0.064-0.147,0.119-0.298,0.173-0.449c0.028-0.079,0.061-0.156,0.086-0.236
	c0.046-0.144,0.084-0.289,0.123-0.436c0.025-0.096,0.053-0.192,0.074-0.288c0.027-0.126,0.047-0.253,0.068-0.38
	c0.021-0.126,0.043-0.25,0.058-0.377c0.012-0.104,0.018-0.21,0.026-0.314c0.011-0.153,0.021-0.307,0.023-0.461
	c0.001-0.033,0.005-0.066,0.005-0.1C167.286,271.148,167.278,271.089,167.277,271.027z"/>
<path style="fill:#927266;" d="M121.666,278.814v23.023c0,4.199,3.405,7.604,7.604,7.604c4.199,0,7.604-3.405,7.604-7.604v-23.023
	H121.666z"/>
<path style="fill:#A0D860;" d="M467.408,146.016c0.128-0.068,0.25-0.145,0.373-0.22c0.096-0.058,0.195-0.112,0.287-0.174
	c0.076-0.051,0.147-0.108,0.221-0.161c0.13-0.094,0.261-0.187,0.383-0.287c0.023-0.019,0.046-0.042,0.069-0.062
	c0.353-0.297,0.677-0.62,0.966-0.971c0.016-0.02,0.029-0.042,0.046-0.062c0.135-0.166,0.266-0.338,0.385-0.515
	c0.106-0.157,0.203-0.321,0.298-0.489c0.024-0.043,0.053-0.082,0.077-0.126c0.213-0.389,0.388-0.8,0.531-1.227
	c0.013-0.04,0.03-0.078,0.044-0.118c0.046-0.144,0.08-0.291,0.118-0.439c0.024-0.096,0.054-0.192,0.075-0.29
	c0.021-0.102,0.034-0.208,0.052-0.311c0.025-0.148,0.052-0.297,0.068-0.447c0.008-0.073,0.01-0.149,0.016-0.224
	c0.014-0.182,0.026-0.364,0.027-0.547c0-0.015,0.002-0.03,0.002-0.046c0-0.059-0.007-0.116-0.009-0.174
	c-0.004-0.178-0.01-0.357-0.026-0.535c-0.009-0.101-0.025-0.2-0.04-0.301c-0.019-0.143-0.038-0.285-0.065-0.429
	c-0.026-0.137-0.061-0.271-0.094-0.405c-0.026-0.103-0.05-0.208-0.08-0.311c-0.049-0.167-0.108-0.329-0.168-0.491
	c-0.022-0.059-0.037-0.119-0.061-0.177l-0.049-0.122c-0.002-0.007-0.005-0.014-0.008-0.02l-20.217-50.549
	c-0.011-0.027-0.025-0.054-0.038-0.081c-0.054-0.132-0.117-0.26-0.177-0.387c-0.049-0.101-0.094-0.203-0.146-0.301
	c-0.061-0.113-0.131-0.223-0.197-0.334c-0.063-0.104-0.123-0.21-0.19-0.31c-0.066-0.099-0.141-0.194-0.212-0.29
	c-0.076-0.102-0.149-0.207-0.229-0.304c-0.08-0.097-0.167-0.189-0.251-0.281c-0.08-0.087-0.157-0.178-0.24-0.263
	c-0.101-0.101-0.21-0.194-0.316-0.289c-0.076-0.067-0.148-0.139-0.226-0.203c-0.114-0.094-0.234-0.179-0.354-0.267
	c-0.08-0.059-0.158-0.121-0.24-0.175c-0.113-0.076-0.233-0.145-0.352-0.215c-0.097-0.059-0.192-0.119-0.292-0.172
	c-0.107-0.058-0.221-0.107-0.333-0.161c-0.118-0.057-0.235-0.114-0.356-0.163c-0.03-0.013-0.058-0.028-0.088-0.041
	c-0.082-0.032-0.166-0.056-0.248-0.085c-0.124-0.045-0.246-0.089-0.372-0.127c-0.123-0.038-0.245-0.068-0.368-0.099
	c-0.117-0.028-0.233-0.059-0.351-0.081c-0.13-0.026-0.26-0.047-0.39-0.065c-0.115-0.017-0.229-0.033-0.344-0.045
	c-0.131-0.013-0.261-0.021-0.391-0.026c-0.119-0.006-0.236-0.011-0.356-0.011c-0.126,0-0.251,0.005-0.377,0.011
	c-0.123,0.006-0.245,0.014-0.368,0.025c-0.123,0.012-0.244,0.028-0.366,0.048c-0.125,0.018-0.247,0.038-0.371,0.062
	c-0.123,0.024-0.244,0.055-0.365,0.085c-0.12,0.029-0.238,0.06-0.358,0.096c-0.127,0.039-0.25,0.083-0.374,0.128
	c-0.082,0.029-0.166,0.053-0.248,0.085c-0.03,0.012-0.059,0.028-0.089,0.042c-0.118,0.049-0.231,0.104-0.346,0.158
	c-0.116,0.056-0.232,0.106-0.343,0.167c-0.093,0.051-0.182,0.106-0.275,0.161c-0.125,0.073-0.25,0.146-0.37,0.226
	c-0.073,0.05-0.142,0.105-0.214,0.156c-0.129,0.093-0.259,0.186-0.38,0.285c-0.067,0.056-0.13,0.118-0.196,0.175
	c-0.118,0.105-0.236,0.208-0.347,0.317c-0.073,0.073-0.139,0.152-0.209,0.229c-0.095,0.104-0.194,0.206-0.283,0.315
	c-0.073,0.089-0.139,0.186-0.209,0.278c-0.078,0.105-0.158,0.208-0.231,0.316c-0.064,0.095-0.121,0.197-0.18,0.295
	c-0.07,0.116-0.141,0.229-0.205,0.348c-0.052,0.096-0.096,0.197-0.144,0.296c-0.062,0.129-0.125,0.258-0.179,0.39
	c-0.012,0.027-0.026,0.054-0.037,0.081l-20.217,50.549c-0.003,0.006-0.005,0.013-0.008,0.02l-0.049,0.122
	c-0.023,0.059-0.039,0.119-0.061,0.177c-0.06,0.162-0.119,0.323-0.168,0.491c-0.03,0.103-0.054,0.207-0.08,0.311
	c-0.033,0.135-0.068,0.269-0.094,0.405c-0.027,0.144-0.046,0.286-0.066,0.429c-0.013,0.101-0.029,0.2-0.04,0.301
	c-0.017,0.179-0.022,0.358-0.026,0.535c-0.001,0.059-0.009,0.116-0.009,0.174c0,0.015,0.002,0.03,0.002,0.046
	c0.001,0.184,0.013,0.365,0.027,0.547c0.006,0.074,0.008,0.15,0.016,0.224c0.016,0.151,0.043,0.299,0.068,0.447
	c0.017,0.103,0.03,0.209,0.052,0.311c0.02,0.098,0.05,0.194,0.075,0.29c0.038,0.147,0.072,0.295,0.118,0.439
	c0.013,0.04,0.029,0.078,0.043,0.118c0.144,0.427,0.319,0.837,0.531,1.227c0.023,0.044,0.053,0.083,0.077,0.126
	c0.095,0.166,0.191,0.331,0.298,0.489c0.12,0.177,0.25,0.349,0.385,0.515c0.016,0.02,0.029,0.042,0.046,0.062
	c0.289,0.351,0.613,0.674,0.966,0.971c0.023,0.02,0.045,0.043,0.069,0.062c0.123,0.101,0.253,0.193,0.383,0.287
	c0.074,0.054,0.145,0.111,0.221,0.161c0.092,0.062,0.191,0.117,0.287,0.174c0.123,0.075,0.245,0.151,0.373,0.22
	c0.07,0.038,0.145,0.069,0.217,0.104c0.158,0.078,0.317,0.155,0.483,0.222c0.015,0.007,0.029,0.015,0.045,0.02
	c0.067,0.026,0.135,0.046,0.202,0.069c0.148,0.055,0.294,0.108,0.445,0.154c0.112,0.033,0.224,0.059,0.337,0.086
	c0.122,0.03,0.24,0.064,0.364,0.088c0.181,0.035,0.363,0.061,0.545,0.083c0.058,0.007,0.114,0.018,0.171,0.023
	c0.253,0.025,0.506,0.041,0.757,0.041c0.009,0,0.018-0.002,0.026-0.002h40.5c0.009,0,0.018,0.002,0.026,0.002
	c0.251,0,0.505-0.015,0.757-0.041c0.058-0.006,0.114-0.017,0.171-0.023c0.181-0.022,0.363-0.048,0.545-0.083
	c0.123-0.024,0.242-0.058,0.364-0.088c0.113-0.027,0.225-0.053,0.337-0.086c0.151-0.046,0.297-0.1,0.445-0.154
	c0.067-0.023,0.135-0.043,0.202-0.069c0.015-0.006,0.029-0.014,0.045-0.02c0.164-0.066,0.323-0.144,0.483-0.222
	C467.263,146.086,467.338,146.055,467.408,146.016z"/>
<path style="fill:#89BF43;" d="M481.571,189.82c-0.004-0.178-0.01-0.357-0.026-0.535c-0.009-0.101-0.025-0.2-0.04-0.301
	c-0.019-0.143-0.037-0.285-0.065-0.429c-0.026-0.137-0.061-0.271-0.094-0.405c-0.026-0.104-0.05-0.208-0.08-0.311
	c-0.049-0.167-0.107-0.328-0.167-0.491c-0.022-0.059-0.037-0.119-0.061-0.177l-0.049-0.122c-0.003-0.007-0.005-0.014-0.008-0.02
	l-16.08-40.203c-0.044,0.006-0.086,0.014-0.129,0.02c-0.058,0.007-0.114,0.018-0.171,0.023c-0.252,0.025-0.506,0.041-0.757,0.041
	c-0.009,0-0.017-0.002-0.026-0.002h-40.5c-0.009,0-0.018,0.002-0.026,0.002c-0.251,0-0.504-0.015-0.757-0.041
	c-0.058-0.006-0.114-0.017-0.171-0.023c-0.044-0.006-0.086-0.014-0.13-0.02l-16.08,40.203c-0.003,0.006-0.005,0.013-0.008,0.02
	l-0.049,0.122c-0.023,0.059-0.039,0.119-0.061,0.177c-0.06,0.162-0.119,0.323-0.167,0.491c-0.03,0.103-0.054,0.207-0.08,0.311
	c-0.033,0.135-0.068,0.269-0.094,0.405c-0.027,0.144-0.046,0.286-0.065,0.429c-0.013,0.101-0.029,0.2-0.04,0.301
	c-0.017,0.179-0.022,0.358-0.026,0.535c-0.001,0.059-0.009,0.116-0.009,0.174c0,0.015,0.002,0.03,0.002,0.046
	c0.001,0.184,0.013,0.365,0.027,0.547c0.006,0.074,0.008,0.15,0.016,0.224c0.016,0.15,0.043,0.299,0.068,0.447
	c0.017,0.102,0.03,0.209,0.052,0.311c0.021,0.098,0.05,0.194,0.075,0.29c0.038,0.148,0.072,0.295,0.118,0.439
	c0.013,0.04,0.029,0.078,0.043,0.118c0.144,0.427,0.318,0.837,0.531,1.227c0.023,0.044,0.053,0.083,0.077,0.126
	c0.095,0.166,0.192,0.331,0.298,0.488c0.12,0.177,0.25,0.349,0.385,0.515c0.016,0.02,0.029,0.042,0.046,0.062
	c0.289,0.351,0.613,0.674,0.966,0.971c0.023,0.02,0.045,0.043,0.069,0.062c0.123,0.101,0.253,0.193,0.383,0.287
	c0.074,0.054,0.145,0.111,0.221,0.161c0.092,0.062,0.191,0.117,0.287,0.174c0.123,0.075,0.245,0.151,0.373,0.22
	c0.07,0.038,0.145,0.069,0.217,0.103c0.158,0.078,0.317,0.155,0.483,0.222c0.015,0.007,0.029,0.015,0.045,0.021
	c0.067,0.026,0.135,0.046,0.202,0.069c0.148,0.055,0.294,0.108,0.445,0.154c0.112,0.033,0.224,0.059,0.337,0.086
	c0.122,0.03,0.24,0.064,0.364,0.088c0.181,0.035,0.363,0.061,0.545,0.083c0.058,0.007,0.114,0.018,0.171,0.023
	c0.253,0.025,0.506,0.041,0.757,0.041c0.009,0,0.018-0.002,0.026-0.002h60.774c0.009,0,0.018,0.002,0.026,0.002
	c0.251,0,0.504-0.015,0.757-0.041c0.058-0.006,0.114-0.017,0.171-0.023c0.181-0.022,0.363-0.048,0.545-0.083
	c0.124-0.024,0.242-0.058,0.364-0.088c0.113-0.027,0.225-0.053,0.337-0.086c0.151-0.046,0.297-0.1,0.445-0.154
	c0.067-0.023,0.135-0.043,0.202-0.069c0.015-0.006,0.029-0.014,0.045-0.021c0.164-0.066,0.323-0.144,0.483-0.222
	c0.072-0.034,0.147-0.066,0.217-0.103c0.128-0.068,0.25-0.145,0.373-0.22c0.096-0.058,0.195-0.112,0.287-0.174
	c0.076-0.051,0.147-0.107,0.221-0.161c0.13-0.094,0.261-0.187,0.383-0.287c0.023-0.019,0.046-0.042,0.069-0.062
	c0.353-0.297,0.677-0.62,0.966-0.971c0.016-0.02,0.029-0.042,0.046-0.062c0.135-0.166,0.266-0.338,0.385-0.515
	c0.106-0.157,0.203-0.321,0.298-0.488c0.024-0.043,0.053-0.082,0.077-0.126c0.213-0.389,0.388-0.8,0.531-1.227
	c0.013-0.04,0.03-0.078,0.043-0.118c0.046-0.144,0.08-0.291,0.118-0.439c0.024-0.096,0.054-0.192,0.075-0.29
	c0.021-0.102,0.034-0.208,0.052-0.311c0.025-0.149,0.052-0.297,0.068-0.447c0.008-0.073,0.01-0.15,0.016-0.224
	c0.014-0.182,0.026-0.364,0.027-0.547c0.001-0.015,0.002-0.03,0.002-0.046C481.58,189.935,481.573,189.878,481.571,189.82z"/>
<path style="fill:#927266;" d="M435.961,197.598v38.22c0,4.2,3.405,7.604,7.604,7.604s7.604-3.404,7.604-7.604v-38.22H435.961z"/>
<path style="fill:#FFB123;" d="M240.812,106.456c-15.373,0-27.88-12.507-27.88-27.88c0-15.372,12.507-27.879,27.88-27.879
	s27.88,12.507,27.88,27.879C268.692,93.949,256.186,106.456,240.812,106.456z"/>
<g>
	<path style="fill:#FF901D;" d="M240.811,35.486c-4.199,0-7.604-3.404-7.604-7.604V17.743c0-4.2,3.405-7.604,7.604-7.604
		c4.199,0,7.604,3.404,7.604,7.604v10.139C248.415,32.082,245.011,35.486,240.811,35.486z"/>
	<path style="fill:#FF901D;" d="M240.811,147.011c-4.199,0-7.604-3.404-7.604-7.604v-10.139c0-4.2,3.405-7.604,7.604-7.604
		c4.199,0,7.604,3.404,7.604,7.604v10.139C248.415,143.607,245.011,147.011,240.811,147.011z"/>
	<path style="fill:#FF901D;" d="M204.965,50.334c-1.946,0-3.892-0.742-5.376-2.226l-7.169-7.169c-2.97-2.971-2.97-7.784,0-10.755
		c2.97-2.969,7.784-2.969,10.753,0l7.169,7.169c2.97,2.971,2.97,7.784,0,10.754C208.857,49.592,206.91,50.334,204.965,50.334z"/>
	<path style="fill:#FF901D;" d="M283.824,129.194c-1.946,0-3.892-0.743-5.377-2.227l-7.168-7.169
		c-2.97-2.97-2.969-7.784,0.001-10.753c2.97-2.969,7.784-2.97,10.753,0.001l7.168,7.169c2.97,2.97,2.969,7.784-0.001,10.753
		C287.716,128.451,285.771,129.194,283.824,129.194z"/>
	<path style="fill:#FF901D;" d="M190.117,86.181h-10.139c-4.199,0-7.604-3.404-7.604-7.604s3.405-7.604,7.604-7.604h10.139
		c4.199,0,7.604,3.404,7.604,7.604S194.316,86.181,190.117,86.181z"/>
	<path style="fill:#FF901D;" d="M301.643,86.181C301.642,86.181,301.642,86.181,301.643,86.181l-10.14-0.001
		c-4.199,0-7.603-3.405-7.603-7.605c0-4.199,3.405-7.603,7.604-7.603c0,0,0,0,0.001,0l10.139,0.001c4.199,0,7.603,3.405,7.603,7.605
		C309.246,82.777,305.841,86.181,301.643,86.181z"/>
	<path style="fill:#FF901D;" d="M197.796,129.196c-1.946,0-3.892-0.742-5.376-2.226c-2.97-2.971-2.97-7.784,0-10.754l7.169-7.169
		c2.97-2.969,7.784-2.969,10.753,0c2.97,2.971,2.97,7.784,0,10.754l-7.169,7.169C201.688,128.453,199.741,129.196,197.796,129.196z"
		/>
	<path style="fill:#FF901D;" d="M276.655,50.334c-1.947,0-3.892-0.742-5.377-2.227c-2.969-2.971-2.969-7.785,0.001-10.753
		l7.17-7.168c2.97-2.97,7.784-2.969,10.754,0.001c2.969,2.971,2.969,7.785-0.001,10.753l-7.17,7.168
		C280.546,49.592,278.601,50.334,276.655,50.334z"/>
</g>
<path style="fill:#0072A2;" d="M197.725,501.86c0.401-53.525,13.483-104.357,37.912-147.149
	c18.654-32.675,43.872-57.176,59.406-68.115c-20.534-7.354-42.23-11.634-64.523-12.622c-15.068,9.155-36.057,23.843-56.008,44.372
	c-21.228,21.843-38.146,46.725-50.284,73.953c-14.835,33.28-22.49,70.132-22.807,109.56H197.725z"/>
<path style="fill:#005772;" d="M288.811,284.482c-0.994-0.321-1.989-0.638-2.988-0.946c-0.588-0.181-1.175-0.363-1.764-0.539
	c-1.133-0.34-2.272-0.666-3.413-0.988c-0.529-0.149-1.056-0.3-1.586-0.445c-1.337-0.366-2.68-0.719-4.025-1.059
	c-0.68-0.172-1.364-0.336-2.047-0.502c-0.864-0.21-1.729-0.415-2.595-0.614c-0.749-0.172-1.5-0.343-2.252-0.507
	c-0.824-0.181-1.651-0.353-2.477-0.523c-1.14-0.236-2.282-0.464-3.428-0.682c-0.987-0.189-1.976-0.376-2.968-0.552
	c-0.896-0.157-1.796-0.303-2.694-0.449c-0.648-0.105-1.295-0.212-1.944-0.312c-0.943-0.146-1.888-0.285-2.834-0.419
	c-0.569-0.08-1.139-0.154-1.709-0.231c-3.414-0.454-6.846-0.83-10.294-1.127c-0.445-0.038-0.89-0.079-1.337-0.115
	c-1.075-0.085-2.15-0.162-3.228-0.232c-0.456-0.03-0.912-0.057-1.369-0.084c-1.114-0.065-2.227-0.13-3.345-0.179
	c-1.397,0.85-2.861,1.762-4.354,2.707c20.33,3.324,39.941,9.455,58.374,18.2c3.807-3.285,7.357-6.068,10.504-8.284
	c-0.269-0.096-0.539-0.187-0.808-0.281c-1.242-0.439-2.487-0.867-3.737-1.285C289.936,284.845,289.373,284.665,288.811,284.482z"/>
<g>
</g>
<g>
</g>
<g>
</g>
<g>
</g>
<g>
</g>
<g>
</g>
<g>
</g>
<g>
</g>
<g>
</g>
<g>
</g>
<g>
</g>
<g>
</g>
<g>
</g>
<g>
</g>
<g>
</g>
</svg>
