<?xml version="1.0" encoding="iso-8859-1"?>
<!-- Generator: Adobe Illustrator 19.0.0, SVG Export Plug-In . SVG Version: 6.00 Build 0)  -->
<svg version="1.1" id="Capa_1" xmlns="http://www.w3.org/2000/svg" xmlns:xlink="http://www.w3.org/1999/xlink" x="0px" y="0px"
	 viewBox="0 0 512 512" style="enable-background:new 0 0 512 512;" xml:space="preserve">
<circle style="fill:#E5D8C6;" cx="149.545" cy="357.387" r="30.416"/>
<path style="fill:#0072A2;" d="M149.545,296.555c33.599,0,60.832,27.242,60.832,60.832c0,33.599-27.232,60.832-60.832,60.832
	s-60.832-27.232-60.832-60.832C88.713,323.797,115.945,296.555,149.545,296.555z M179.96,357.387
	c0-16.8-13.616-30.416-30.416-30.416s-30.416,13.616-30.416,30.416c0,16.8,13.616,30.416,30.416,30.416
	S179.96,374.186,179.96,357.387z"/>
<path style="fill:#CEBEAB;" d="M58.297,357.387c0-50.389,40.848-91.248,91.248-91.248s91.248,40.859,91.248,91.248h-30.416
	c0-33.589-27.232-60.832-60.832-60.832s-60.832,27.242-60.832,60.832H58.297z"/>
<path style="fill:#E5D8C6;" d="M443.564,256v101.386H240.792c0-50.389-40.848-91.248-91.248-91.248s-91.248,40.859-91.248,91.248
	v20.277H7.604v-20.277V144.476c0-28.023,22.669-50.693,50.693-50.693h243.327C380.076,93.783,443.564,177.548,443.564,256z"/>
<path style="fill:#CEBEAB;" d="M301.624,93.783h-30.419c78.453,0,141.941,83.765,141.941,162.218v101.386h30.419V256
	C443.564,177.548,380.076,93.783,301.624,93.783z"/>
<path style="fill:#F3E8D6;" d="M362.455,164.753v121.663c0,5.576-4.562,10.139-10.139,10.139h-81.109
	c-5.576,0-10.139-4.562-10.139-10.139V164.753c0-5.576,4.562-10.139,10.139-10.139h81.109
	C357.893,154.614,362.455,159.177,362.455,164.753z"/>
<path style="fill:#21D8DE;" d="M200.238,154.614h-50.693H98.851c-5.576,0-10.139,4.562-10.139,10.139v40.554
	c0,5.576,4.562,10.139,10.139,10.139h50.693h50.693c5.576,0,10.139-4.562,10.139-10.139v-40.554
	C210.376,159.177,205.814,154.614,200.238,154.614z"/>
<path d="M504.396,349.785h-53.229V256c0-40.378-15.788-82.441-43.317-115.405c-29.307-35.093-67.032-54.419-106.227-54.419H58.297
	C26.152,86.176,0,112.327,0,144.473c0,0,0,0,0,0.001v0.001V256c0,4.197,3.406,7.604,7.604,7.604c4.197,0,7.604-3.407,7.604-7.604
	V144.475v-0.001c0-0.001,0-0.001,0-0.001c0-23.76,19.329-43.089,43.089-43.089h243.326c34.608,0,68.188,17.388,94.555,48.959
	c25.283,30.273,39.782,68.783,39.782,105.657v93.785H248.105c-3.895-50.968-46.613-91.248-98.562-91.248
	c-54.507,0-98.851,44.344-98.851,98.851c0,0.02,0.003,0.04,0.003,0.059v12.614H15.208v-12.673c0,0,0,0,0-0.001v-0.001v-70.97
	c0-4.187-3.407-7.604-7.604-7.604c-4.198,0-7.604,3.417-7.604,7.604v70.97v0.001c0,0.001,0,0.001,0,0.001v20.277
	c0,4.199,3.404,7.604,7.604,7.604h50.695c4.2,0,7.604-3.405,7.604-7.604v-12.673h15.638c3.796,34.169,32.839,60.832,68.003,60.832
	s64.207-26.663,68.003-60.832h279.246v12.673c0,4.199,3.404,7.604,7.604,7.604s7.604-3.405,7.604-7.604v-20.277
	C512,353.189,508.596,349.785,504.396,349.785z M149.544,273.745c43.557,0,79.426,33.471,83.283,76.04h-15.279
	c-3.796-34.169-32.839-60.832-68.003-60.832s-64.207,26.663-68.003,60.832H66.263C70.118,307.217,105.987,273.745,149.544,273.745z
	 M149.544,410.616c-29.349,0-53.228-23.877-53.228-53.228s23.878-53.228,53.228-53.228s53.228,23.877,53.228,53.228
	C202.771,386.739,178.893,410.616,149.544,410.616z"/>
<path d="M149.544,319.369c-20.965,0-38.02,17.055-38.02,38.02s17.055,38.02,38.02,38.02s38.02-17.055,38.02-38.02
	C187.563,336.425,170.508,319.369,149.544,319.369z M149.544,380.201c-12.578,0-22.812-10.233-22.812-22.812
	c0-12.579,10.234-22.812,22.812-22.812s22.812,10.233,22.812,22.812S162.122,380.201,149.544,380.201z"/>
<path d="M200.236,223.051c9.784,0,17.743-7.96,17.743-17.743v-40.554c0-9.783-7.959-17.743-17.743-17.743H98.849
	c-9.783,0-17.743,7.96-17.743,17.743v40.554c0,9.783,7.96,17.743,17.743,17.743H200.236z M202.77,164.754v40.554
	c0,1.374-1.161,2.535-2.535,2.535h-43.089v-45.624h43.089C201.61,162.219,202.77,163.379,202.77,164.754z M96.315,205.308v-40.554
	c0-1.374,1.161-2.535,2.535-2.535h43.089v45.624H98.849C97.476,207.843,96.315,206.681,96.315,205.308z"/>
<path d="M352.317,304.161c9.783,0,17.743-7.959,17.743-17.743V164.755c0-9.783-7.96-17.743-17.743-17.743h-81.109
	c-9.783,0-17.743,7.96-17.743,17.743v121.663c0,9.784,7.96,17.743,17.743,17.743H352.317z M268.673,286.418V164.755
	c0-1.374,1.161-2.535,2.535-2.535h81.109c1.374,0,2.535,1.161,2.535,2.535v121.663c0,1.374-1.161,2.535-2.535,2.535h-81.109
	C269.834,288.953,268.673,287.792,268.673,286.418z"/>
<path d="M281.347,243.33c4.2,0,7.604-3.405,7.604-7.604v-17.236c0-4.199-3.404-7.604-7.604-7.604c-4.2,0-7.604,3.405-7.604,7.604
	v17.236C273.743,239.926,277.146,243.33,281.347,243.33z"/>
<g>
</g>
<g>
</g>
<g>
</g>
<g>
</g>
<g>
</g>
<g>
</g>
<g>
</g>
<g>
</g>
<g>
</g>
<g>
</g>
<g>
</g>
<g>
</g>
<g>
</g>
<g>
</g>
<g>
</g>
</svg>
