<?xml version="1.0" encoding="iso-8859-1"?>
<!-- Generator: Adobe Illustrator 19.0.0, SVG Export Plug-In . SVG Version: 6.00 Build 0)  -->
<svg version="1.1" id="Capa_1" xmlns="http://www.w3.org/2000/svg" xmlns:xlink="http://www.w3.org/1999/xlink" x="0px" y="0px"
	 viewBox="0 0 512 512" style="enable-background:new 0 0 512 512;" xml:space="preserve">
<path style="fill:#F3E8D6;" d="M407.85,140.595c-29.307-35.093-67.032-54.419-106.227-54.419H58.297
	C26.152,86.176,0,112.327,0,144.473v212.916v20.277c0,4.199,3.404,7.604,7.604,7.604h50.695c4.2,0,7.604-3.405,7.604-7.604v-12.673
	h377.655c0.001,0,0.002,0,0.002,0c0.002,0,0.002,0,0.003,0c4.2,0,7.604-3.405,7.604-7.604V255.999
	C451.167,215.622,435.379,173.559,407.85,140.595z"/>
<path style="fill:#E5D8C6;" d="M407.85,140.595c-29.307-35.093-67.032-54.419-106.227-54.419h-30.419
	c39.195,0,76.921,19.326,106.227,54.419c27.528,32.964,43.317,75.027,43.317,115.405v101.389c0,4.199-3.404,7.604-7.604,7.604
	h30.414c0.001,0,0.002,0,0.002,0c0.002,0,0.002,0,0.003,0c4.2,0,7.604-3.405,7.604-7.604V255.999
	C451.167,215.622,435.379,173.559,407.85,140.595z"/>
<path style="fill:#0072A2;" d="M504.396,349.785h-53.229v7.604c0,4.199-3.404,7.604-7.604,7.604h53.229v12.673
	c0,4.199,3.404,7.604,7.604,7.604s7.604-3.405,7.604-7.604v-20.277C512,353.189,508.596,349.785,504.396,349.785z"/>
<path style="fill:#21D8DE;" d="M200.236,223.051H98.849c-9.783,0-17.743-7.96-17.743-17.743v-40.554
	c0-9.783,7.96-17.743,17.743-17.743h101.386c9.784,0,17.743,7.96,17.743,17.743v40.554
	C217.978,215.091,210.019,223.051,200.236,223.051z"/>
<path style="fill:#E5D8C6;" d="M352.317,304.161h-81.109c-9.783,0-17.743-7.959-17.743-17.743V164.755
	c0-9.783,7.96-17.743,17.743-17.743h81.109c9.783,0,17.743,7.96,17.743,17.743v121.663
	C370.059,296.202,362.1,304.161,352.317,304.161z"/>
<path style="fill:#D8C9B6;" d="M248.39,356.995c-0.214-54.326-44.471-98.458-98.846-98.458c-54.507,0-98.851,44.344-98.851,98.852
	c0,4.199,3.404,7.604,7.604,7.604h0.001c0.001,0,0.002,0,0.002,0h182.507c4.2,0,7.604-3.405,7.604-7.604
	C248.41,357.257,248.397,357.127,248.39,356.995z"/>
<g>
	<rect x="141.941" y="147.01" style="fill:#F3E8D6;" width="15.208" height="76.04"/>
	<path style="fill:#F3E8D6;" d="M281.347,243.33c-4.2,0-7.604-3.405-7.604-7.604v-17.236c0-4.199,3.404-7.604,7.604-7.604
		c4.2,0,7.604,3.405,7.604,7.604v17.236C288.951,239.926,285.547,243.33,281.347,243.33z"/>
</g>
<path style="fill:#0072A2;" d="M149.544,425.824c-37.736,0-68.436-30.7-68.436-68.436s30.7-68.436,68.436-68.436
	s68.436,30.7,68.436,68.436C217.979,395.125,187.279,425.824,149.544,425.824z"/>
<path style="fill:#F3E8D6;" d="M149.544,395.409c-20.965,0-38.02-17.055-38.02-38.02s17.055-38.02,38.02-38.02
	s38.02,17.055,38.02,38.02C187.563,378.353,170.508,395.409,149.544,395.409z"/>
<g>
</g>
<g>
</g>
<g>
</g>
<g>
</g>
<g>
</g>
<g>
</g>
<g>
</g>
<g>
</g>
<g>
</g>
<g>
</g>
<g>
</g>
<g>
</g>
<g>
</g>
<g>
</g>
<g>
</g>
</svg>
