<?xml version="1.0" encoding="iso-8859-1"?>
<!-- Generator: Adobe Illustrator 19.0.0, SVG Export Plug-In . SVG Version: 6.00 Build 0)  -->
<svg version="1.1" id="Capa_1" xmlns="http://www.w3.org/2000/svg" xmlns:xlink="http://www.w3.org/1999/xlink" x="0px" y="0px"
	 viewBox="0 0 512 512" style="enable-background:new 0 0 512 512;" xml:space="preserve">
<path style="fill:#898890;" d="M474.452,76.378V512H276.451V76.378c0-9.202,7.455-16.657,16.657-16.657h164.697
	C466.997,59.721,474.452,67.176,474.452,76.378z"/>
<path style="fill:#ACABB1;" d="M474.452,76.378V512H303.334V76.378c0-9.202,7.455-16.657,16.657-16.657h137.815
	C466.997,59.721,474.452,67.176,474.452,76.378z"/>
<g>
	<path style="fill:#787680;" d="M439.608,191.714v22.954c0,4.694-3.805,8.509-8.509,8.509H320.436c-4.704,0-8.509-3.815-8.509-8.509
		v-22.954c0-4.704,3.805-8.509,8.509-8.509h110.663C435.803,183.205,439.608,187.01,439.608,191.714z"/>
	<path style="fill:#787680;" d="M439.608,110.725v22.954c0,4.694-3.805,8.499-8.509,8.499H320.436c-4.704,0-8.509-3.805-8.509-8.499
		v-22.954c0-4.704,3.805-8.509,8.509-8.509h110.663C435.803,102.216,439.608,106.021,439.608,110.725z"/>
</g>
<g>
	<path style="fill:#898890;" d="M439.608,191.714v22.954c0,4.694-3.805,8.509-8.509,8.509h-81.547c-4.694,0-8.509-3.815-8.509-8.509
		v-22.954c0-4.704,3.815-8.509,8.509-8.509h81.547C435.803,183.205,439.608,187.01,439.608,191.714z"/>
	<path style="fill:#898890;" d="M439.608,110.725v22.954c0,4.694-3.805,8.499-8.509,8.499h-81.547c-4.694,0-8.509-3.805-8.509-8.499
		v-22.954c0-4.704,3.815-8.509,8.509-8.509h81.547C435.803,102.216,439.608,106.021,439.608,110.725z"/>
</g>
<path style="fill:#78B9EB;" d="M233.026,16.657V512H77.003V16.657C77.003,7.455,84.458,0,93.66,0h122.719
	C225.571,0,233.026,7.455,233.026,16.657z"/>
<path style="fill:#96C8EF;" d="M233.026,16.657V512h-129.14V16.657C103.886,7.455,111.341,0,120.543,0h95.836
	C225.571,0,233.026,7.455,233.026,16.657z"/>
<g>
	<path style="fill:#B3D8F4;" d="M205.905,81.423v121.509c0,2.895-1.975,5.325-4.653,6.018c-0.496,0.134-1.024,0.207-1.572,0.207
		h-15.468c-3.433,0-6.224-2.781-6.224-6.224V81.423c0-3.433,2.792-6.214,6.224-6.214h15.468c0.548,0,1.075,0.072,1.572,0.207
		C203.93,76.109,205.905,78.528,205.905,81.423z"/>
	<path style="fill:#B3D8F4;" d="M141.056,38.742v121.509c0,2.885-1.975,5.314-4.642,6.007c-0.496,0.134-1.024,0.207-1.572,0.207
		h-15.478c-3.433,0-6.224-2.781-6.224-6.214V38.742c0-3.443,2.792-6.224,6.224-6.224h15.478c0.548,0,1.075,0.072,1.572,0.207
		C139.081,33.417,141.056,35.847,141.056,38.742z"/>
</g>
<g>
	<path style="fill:#D1E7F8;" d="M205.905,81.423v121.509c0,2.895-1.975,5.325-4.653,6.018c-2.678-0.693-4.653-3.123-4.653-6.018
		V81.423c0-2.885,1.975-5.314,4.653-6.007C203.93,76.109,205.905,78.528,205.905,81.423z"/>
	<path style="fill:#D1E7F8;" d="M141.056,38.742v121.509c0,2.885-1.975,5.314-4.642,6.007c-2.678-0.682-4.663-3.112-4.663-6.007
		V38.742c0-2.905,1.985-5.335,4.663-6.018C139.081,33.417,141.056,35.847,141.056,38.742z"/>
</g>
<path style="fill:#C6C5CA;" d="M334.011,154.027V512H177.989V154.027c0-9.812,7.951-17.763,17.753-17.763h120.517
	C326.06,136.264,334.011,144.215,334.011,154.027z"/>
<path style="fill:#E0E0E2;" d="M334.011,154.027V512h-129.14V154.027c0-9.812,7.951-17.763,17.753-17.763h93.634
	C326.06,136.264,334.011,144.215,334.011,154.027z"/>
<path style="fill:#3D9AE2;" d="M511.085,267.089V512H384.902V267.089c0-6.328,5.128-11.456,11.456-11.456h103.271
	C505.957,255.633,511.085,260.761,511.085,267.089z"/>
<path style="fill:#C6C5CA;" d="M127.098,221.078v279.465c0,6.328-5.128,11.456-11.456,11.456H12.371
	c-6.328,0-11.456-5.128-11.456-11.456V221.089c0-6.586,5.346-11.932,11.932-11.932h102.33
	C121.763,209.157,127.098,214.492,127.098,221.078z"/>
<path style="fill:#E0E0E2;" d="M127.098,221.078v279.465c0,6.328-5.128,11.456-11.456,11.456H38.737
	c-6.328,0-11.456-5.128-11.456-11.456V221.089c0-6.586,5.346-11.932,11.932-11.932h75.964
	C121.763,209.157,127.098,214.492,127.098,221.078z"/>
<g>
	<path style="fill:#78B9EB;" d="M245.268,468.998v35.392c0,2.171-1.768,3.939-3.939,3.939h-22.747c-2.171,0-3.939-1.768-3.939-3.939
		v-35.392c0-2.171,1.768-3.939,3.939-3.939h22.747C243.5,465.059,245.268,466.827,245.268,468.998z"/>
	<path style="fill:#78B9EB;" d="M299.767,397.004v35.382c0,2.182-1.758,3.939-3.939,3.939h-22.747c-2.171,0-3.929-1.758-3.929-3.939
		v-35.382c0-2.182,1.758-3.939,3.929-3.939h22.747C298.009,393.065,299.767,394.823,299.767,397.004z"/>
	<path style="fill:#78B9EB;" d="M245.268,328.071v35.392c0,2.171-1.768,3.929-3.939,3.929h-22.747c-2.171,0-3.939-1.758-3.939-3.929
		v-35.392c0-2.171,1.768-3.939,3.939-3.939h22.747C243.5,324.132,245.268,325.9,245.268,328.071z"/>
	<path style="fill:#78B9EB;" d="M299.767,256.078v35.382c0,2.171-1.758,3.939-3.939,3.939h-22.747c-2.171,0-3.929-1.768-3.929-3.939
		v-35.382c0-2.182,1.758-3.939,3.929-3.939h22.747C298.009,252.138,299.767,253.896,299.767,256.078z"/>
	<path style="fill:#78B9EB;" d="M245.268,187.144v35.382c0,2.182-1.768,3.939-3.939,3.939h-22.747c-2.171,0-3.939-1.758-3.939-3.939
		v-35.382c0-2.171,1.768-3.939,3.939-3.939h22.747C243.5,183.205,245.268,184.973,245.268,187.144z"/>
</g>
<g>
	<path style="fill:#96C8EF;" d="M245.268,468.998v35.392c0,2.171-1.768,3.939-3.939,3.939h-2.068c-2.171,0-3.939-1.768-3.939-3.939
		v-35.392c0-2.171,1.768-3.939,3.939-3.939h2.068C243.5,465.059,245.268,466.827,245.268,468.998z"/>
	<path style="fill:#96C8EF;" d="M299.767,397.004v35.382c0,2.182-1.758,3.939-3.939,3.939h-2.068c-2.171,0-3.929-1.758-3.929-3.939
		v-35.382c0-2.182,1.758-3.939,3.929-3.939h2.068C298.009,393.065,299.767,394.823,299.767,397.004z"/>
	<path style="fill:#96C8EF;" d="M245.268,328.071v35.392c0,2.171-1.768,3.929-3.939,3.929h-2.068c-2.171,0-3.939-1.758-3.939-3.929
		v-35.392c0-2.171,1.768-3.939,3.939-3.939h2.068C243.5,324.132,245.268,325.9,245.268,328.071z"/>
	<path style="fill:#96C8EF;" d="M299.767,256.078v35.382c0,2.171-1.758,3.939-3.939,3.939h-2.068c-2.171,0-3.929-1.768-3.929-3.939
		v-35.382c0-2.182,1.758-3.939,3.929-3.939h2.068C298.009,252.138,299.767,253.896,299.767,256.078z"/>
	<path style="fill:#96C8EF;" d="M245.268,187.144v35.382c0,2.182-1.768,3.939-3.939,3.939h-2.068c-2.171,0-3.939-1.758-3.939-3.939
		v-35.382c0-2.171,1.768-3.939,3.939-3.939h2.068C243.5,183.205,245.268,184.973,245.268,187.144z"/>
</g>
<g>
	<rect x="0.915" y="456.167" style="fill:#ACABB1;" width="126.183" height="15.509"/>
	<rect x="0.915" y="404.987" style="fill:#ACABB1;" width="126.183" height="15.509"/>
	<rect x="0.915" y="353.806" style="fill:#ACABB1;" width="126.183" height="15.509"/>
	<rect x="0.915" y="302.626" style="fill:#ACABB1;" width="126.183" height="15.509"/>
	<rect x="0.915" y="251.445" style="fill:#ACABB1;" width="126.183" height="15.509"/>
</g>
<path style="fill:#78B9EB;" d="M511.085,267.089V512H406.263V267.089c0-6.328,5.128-11.456,11.456-11.456h81.909
	C505.957,255.633,511.085,260.761,511.085,267.089z"/>
<g>
	<rect x="0.915" y="456.167" style="fill:#898890;" width="26.366" height="15.509"/>
	<rect x="0.915" y="404.987" style="fill:#898890;" width="26.366" height="15.509"/>
	<rect x="0.915" y="353.806" style="fill:#898890;" width="26.366" height="15.509"/>
	<rect x="0.915" y="302.626" style="fill:#898890;" width="26.366" height="15.509"/>
	<rect x="0.915" y="251.445" style="fill:#898890;" width="26.366" height="15.509"/>
</g>
<g>
	<path style="fill:#B3D8F4;" d="M487.604,457.211v22.809c0,1.406-1.137,2.543-2.533,2.543H412.25c-1.396,0-2.533-1.137-2.533-2.543
		v-22.809c0-1.396,1.137-2.533,2.533-2.533h72.821C486.467,454.678,487.604,455.815,487.604,457.211z"/>
	<path style="fill:#B3D8F4;" d="M487.604,400.789v22.809c0,1.396-1.137,2.533-2.533,2.533H412.25c-1.396,0-2.533-1.137-2.533-2.533
		v-22.809c0-1.406,1.137-2.544,2.533-2.544h72.821C486.467,398.245,487.604,399.383,487.604,400.789z"/>
	<path style="fill:#B3D8F4;" d="M487.604,344.356v22.809c0,1.406-1.137,2.543-2.533,2.543H412.25c-1.396,0-2.533-1.137-2.533-2.543
		v-22.809c0-1.396,1.137-2.533,2.533-2.533h72.821C486.467,341.823,487.604,342.96,487.604,344.356z"/>
	<path style="fill:#B3D8F4;" d="M487.604,287.933v22.809c0,1.396-1.137,2.533-2.533,2.533H412.25c-1.396,0-2.533-1.137-2.533-2.533
		v-22.809c0-1.406,1.137-2.544,2.533-2.544h72.821C486.467,285.39,487.604,286.527,487.604,287.933z"/>
</g>
<g>
	<path style="fill:#D1E7F8;" d="M487.604,457.211v22.809c0,1.406-1.137,2.543-2.533,2.543h-51.449c-1.406,0-2.543-1.137-2.543-2.543
		v-22.809c0-1.396,1.137-2.533,2.543-2.533h51.449C486.467,454.678,487.604,455.815,487.604,457.211z"/>
	<path style="fill:#D1E7F8;" d="M487.604,400.789v22.809c0,1.396-1.137,2.533-2.533,2.533h-51.449c-1.406,0-2.543-1.137-2.543-2.533
		v-22.809c0-1.406,1.137-2.544,2.543-2.544h51.449C486.467,398.245,487.604,399.383,487.604,400.789z"/>
	<path style="fill:#D1E7F8;" d="M487.604,344.356v22.809c0,1.406-1.137,2.543-2.533,2.543h-51.449c-1.406,0-2.543-1.137-2.543-2.543
		v-22.809c0-1.396,1.137-2.533,2.543-2.533h51.449C486.467,341.823,487.604,342.96,487.604,344.356z"/>
	<path style="fill:#D1E7F8;" d="M487.604,287.933v22.809c0,1.396-1.137,2.533-2.533,2.533h-51.449c-1.406,0-2.543-1.137-2.543-2.533
		v-22.809c0-1.406,1.137-2.544,2.543-2.544h51.449C486.467,285.39,487.604,286.527,487.604,287.933z"/>
</g>
<g>
</g>
<g>
</g>
<g>
</g>
<g>
</g>
<g>
</g>
<g>
</g>
<g>
</g>
<g>
</g>
<g>
</g>
<g>
</g>
<g>
</g>
<g>
</g>
<g>
</g>
<g>
</g>
<g>
</g>
</svg>
