<?xml version="1.0" encoding="iso-8859-1"?>
<!-- Generator: Adobe Illustrator 19.0.0, SVG Export Plug-In . SVG Version: 6.00 Build 0)  -->
<svg version="1.1" id="Capa_1" xmlns="http://www.w3.org/2000/svg" xmlns:xlink="http://www.w3.org/1999/xlink" x="0px" y="0px"
	 viewBox="0 0 512 512" style="enable-background:new 0 0 512 512;" xml:space="preserve">
<path style="fill:#B39A7C;" d="M377.566,41.749v347.143c0,14.622-11.852,26.475-26.475,26.475h-42.432V41.749
	c0-18.817,15.395-34.223,34.223-34.223h0.462c13.257,0,24.819,7.647,30.499,18.737C376.22,30.921,377.566,36.18,377.566,41.749z"/>
<path style="fill:#C0AB91;" d="M377.566,41.749v347.143c0,14.622-11.852,26.475-26.475,26.475h-11.662V60.487
	c0-18.827,15.405-34.223,34.233-34.223h0.181C376.22,30.921,377.566,36.18,377.566,41.749z"/>
<path style="fill:#D9CCBC;" d="M342.62,7.527l-1.816,0.06c-17.874,1.074-32.155,16.037-32.155,34.162l0.04,145.802v280.153
	c0,19.65-15.917,35.567-35.567,35.567l-201.813,0.01H43.208l0.01-457.147c0-21.326,17.282-38.608,38.608-38.608H342.62z"/>
<path style="fill:#EBE5DD;" d="M342.62,7.527l-1.816,0.06c-17.874,1.074-32.155,16.037-32.155,34.162l0.04,145.802v280.153
	c0,19.65-15.917,35.567-35.567,35.567l-201.813,0.01l0.01-457.147c0-21.326,17.282-38.608,38.608-38.608H342.62z"/>
<path style="fill:#B39A7C;" d="M44.482,503.272v-0.03c-0.341,0.01-0.682,0.03-1.024,0.03h-0.472
	c-18.817,0-34.212-15.405-34.212-34.233v-36.611c0-11.3,9.163-20.463,20.463-20.463h189.739c5.65,0,10.769,2.288,14.472,5.991
	c3.703,3.703,5.991,8.822,5.991,14.472v36.611c0,4.536,0.893,8.862,2.509,12.826c4.596,11.28,15.054,19.61,27.539,21.136
	l2.188,0.271H44.482z"/>
<path style="fill:#C0AB91;" d="M66.561,481.865v-0.03c-0.341,0.01-0.682,0.02-1.024,0.02h-0.472
	c-18.817,0-34.212-15.405-34.212-34.223v-35.668h188.123c5.65,0,10.769,2.288,14.472,5.991c3.703,3.703,5.991,8.822,5.991,14.472
	v36.611c0,4.536,0.893,8.862,2.509,12.826H66.561z"/>
<path style="fill:#57565C;" d="M437.829,478.43c-14.271,0-25.843-11.571-25.843-25.843V238.32h51.685v214.267
	c0,11.461-7.467,21.186-17.804,24.558C443.339,477.978,440.64,478.43,437.829,478.43z"/>
<path style="fill:#1D1D1F;" d="M463.592,263.912h-51.524c-6.834,0-12.374-5.54-12.374-12.374V46.463
	c0-2.579,0.251-5.098,0.743-7.527c3.493-17.463,18.908-30.61,37.394-30.61c2.77,0,5.46,0.291,8.059,0.853
	c7.296,1.566,13.819,5.229,18.908,10.317c5.219,5.209,8.922,11.923,10.427,19.44c0.492,2.429,0.743,4.948,0.743,7.527v205.074
	C475.966,258.372,470.426,263.912,463.592,263.912z"/>
<path style="fill:#898890;" d="M445.868,477.145c-10.337-3.372-17.804-13.097-17.804-24.558V238.32h35.607v214.267
	C463.672,464.048,456.205,473.773,445.868,477.145z"/>
<path style="fill:#2D2D30;" d="M463.592,263.912h-35.447c-6.834,0-12.374-5.54-12.374-12.374V46.463
	c0-2.579,0.251-5.098,0.743-7.527c2.971-14.863,14.582-26.605,29.375-29.757c7.296,1.566,13.819,5.229,18.908,10.317
	c5.219,5.209,8.922,11.923,10.427,19.44c0.492,2.429,0.743,4.948,0.743,7.527v205.074
	C475.966,258.372,470.426,263.912,463.592,263.912z"/>
<path d="M483.083,38.703v-0.004c-3.462-21.768-22.37-38.448-45.091-38.448c-25.18,0-45.663,20.483-45.663,45.663v205.074
	c0,8.28,5.088,15.395,12.294,18.386v182.664c0,15.807,11.06,29.094,25.843,32.516v19.918c0,4.158,3.369,7.527,7.527,7.527
	s7.527-3.369,7.527-7.527v-19.918c14.783-3.422,25.843-16.71,25.843-32.516V269.374c7.206-2.991,12.294-10.106,12.294-18.386V54.197
	c6.966,2.148,12.043,8.644,12.043,16.305v151.712c0,4.158,3.369,7.527,7.527,7.527c4.158,0,7.527-3.369,7.527-7.527V70.502
	C510.752,54.303,498.693,40.875,483.083,38.703z M437.991,15.305c14.281,0,26.314,9.825,29.676,23.083h-59.352
	C411.677,25.13,423.71,15.305,437.991,15.305z M456.307,452.038c0,24.222-36.631,24.23-36.631,0v-8.618h36.631V452.038z
	 M456.307,428.367h-36.631V270.89h36.631V428.367z M468.601,250.989c0,2.67-2.178,4.847-4.847,4.847h-7.447
	c-6.294,0-37.388,0-44.078,0c-2.67,0-4.847-2.178-4.847-4.847v-8.199h61.219V250.989z M468.601,227.735h-61.219V53.441h61.219
	V227.735z"/>
<path d="M423.44,212.678c4.158,0,7.527-3.369,7.527-7.527V76.019c0-4.158-3.369-7.527-7.527-7.527c-4.158,0-7.527,3.369-7.527,7.527
	v129.132C415.913,209.309,419.283,212.678,423.44,212.678z"/>
<path d="M343.342,0h-0.462c-0.522,0-1.034,0.01-1.546,0.03C341.154,0.01,340.984,0,340.803,0H81.826
	C56.385,0,35.691,20.694,35.691,46.135v358.303h-6.453c-15.435,0-27.99,12.555-27.99,27.99v36.611
	c0,23.022,18.727,41.749,41.749,41.749h0.03c0.06,0.01,0.13,0.01,0.191,0.01h229.903c23.765,0,43.094-19.329,43.094-43.094v-44.81
	h34.875c18.747,0,34.002-15.255,34.002-34.002V41.749C385.093,18.727,366.365,0,343.342,0z M35.691,494.711
	c-11.18-3.171-19.389-13.478-19.389-25.672v-36.611c0-7.136,5.801-12.936,12.936-12.936c9.256,0,180.974,0,189.739,0
	c3.462,0,6.704,1.345,9.153,3.784c2.439,2.449,3.784,5.7,3.784,9.153v36.611c0,10.086,3.613,19.42,9.675,26.696
	C25.079,495.735,41.075,496.273,35.691,494.711z M301.122,41.749c0.006,227.519,0.01,373.036,0.01,373.618
	c0,0.191,0.01,0.391,0.03,0.582v51.755c0,35.92-54.194,38.136-54.194,1.335v-36.611c0-7.477-2.91-14.512-8.189-19.791
	c-5.289-5.289-12.324-8.199-19.801-8.199H50.745V46.135c0-17.141,13.94-31.081,31.081-31.081h228.97
	C304.671,22.65,301.122,31.669,301.122,41.749z M370.039,388.892c0,10.447-8.5,18.948-18.948,18.948h-34.875
	c0-0.175-0.03-329.472-0.03-329.64c0.761-35.112-4.886-52.038,16.138-60.968c17.418-7.577,37.715,4.916,37.715,24.518V388.892z"/>
<path d="M166.67,93.766h106.381c4.155,0,7.527-3.372,7.527-7.527c0-4.155-3.372-7.527-7.527-7.527H166.67
	c-4.165,0-7.527,3.372-7.527,7.527C159.143,90.394,162.505,93.766,166.67,93.766z"/>
<path d="M72.332,86.239c0,4.155,3.372,7.527,7.527,7.527h56.703c4.155,0,7.527-3.372,7.527-7.527c0-4.155-3.372-7.527-7.527-7.527
	H79.859C75.704,78.712,72.332,82.084,72.332,86.239z"/>
<path d="M219.358,114.841H79.859c-4.155,0-7.527,3.362-7.527,7.527c0,4.155,3.372,7.527,7.527,7.527h139.499
	c4.155,0,7.527-3.372,7.527-7.527C226.885,118.203,223.514,114.841,219.358,114.841z"/>
<path d="M273.051,114.841h-23.584c-4.155,0-7.527,3.362-7.527,7.527c0,4.155,3.372,7.527,7.527,7.527h23.584
	c4.155,0,7.527-3.372,7.527-7.527C280.577,118.203,277.206,114.841,273.051,114.841z"/>
<path d="M273.049,150.964H79.861c-4.158,0-7.527,3.369-7.527,7.527c0,4.158,3.369,7.527,7.527,7.527h193.188
	c4.158,0,7.527-3.369,7.527-7.527C280.575,154.334,277.206,150.964,273.049,150.964z"/>
<path d="M273.049,187.092H79.861c-4.158,0-7.527,3.369-7.527,7.527c0,4.158,3.369,7.527,7.527,7.527h193.188
	c4.158,0,7.527-3.369,7.527-7.527C280.575,190.461,277.206,187.092,273.049,187.092z"/>
<path d="M273.051,223.219h-128.46c-4.165,0-7.527,3.372-7.527,7.527s3.362,7.527,7.527,7.527h128.46
	c4.155,0,7.527-3.372,7.527-7.527S277.206,223.219,273.051,223.219z"/>
<path d="M79.859,238.273h34.624c4.155,0,7.527-3.372,7.527-7.527s-3.372-7.527-7.527-7.527H79.859c-4.155,0-7.527,3.372-7.527,7.527
	S75.704,238.273,79.859,238.273z"/>
<path d="M273.049,259.348H79.861c-4.158,0-7.527,3.369-7.527,7.527s3.369,7.527,7.527,7.527h193.188
	c4.158,0,7.527-3.369,7.527-7.527S277.206,259.348,273.049,259.348z"/>
<path d="M273.049,295.475H79.861c-4.158,0-7.527,3.369-7.527,7.527s3.369,7.527,7.527,7.527h193.188
	c4.158,0,7.527-3.369,7.527-7.527S277.206,295.475,273.049,295.475z"/>
<path d="M252.278,366.059c-5.742,5.443-15.378,3.766-19.334-3.399l-7.58-13.737c-7.154-12.966-23.111-18.499-36.322-12.606
	c-8.734,3.898-11.066,9.346-24.579,23.427c-2.796,3.075-2.57,7.836,0.507,10.633c3.074,2.793,7.835,2.57,10.633-0.507
	c14.401-15.371,15.117-17.816,19.574-19.805c6.131-2.734,13.603-0.043,17.008,6.13l7.58,13.737
	c8.702,15.772,29.958,19.293,42.871,7.05c3.017-2.86,3.144-7.624,0.283-10.641C260.059,363.324,255.294,363.198,252.278,366.059z"/>
<path d="M266.879,344.648h-4.935c-4.158,0-7.527,3.369-7.527,7.527c0,4.158,3.369,7.527,7.527,7.527h4.935
	c4.158,0,7.527-3.369,7.527-7.527C274.406,348.017,271.037,344.648,266.879,344.648z"/>
<g>
</g>
<g>
</g>
<g>
</g>
<g>
</g>
<g>
</g>
<g>
</g>
<g>
</g>
<g>
</g>
<g>
</g>
<g>
</g>
<g>
</g>
<g>
</g>
<g>
</g>
<g>
</g>
<g>
</g>
</svg>
