<?xml version="1.0" encoding="UTF-8" standalone="no"?>
<!-- Created with Inkscape (http://www.inkscape.org/) -->

<svg
   version="1.1"
   id="svg1635"
   xml:space="preserve"
   width="682.66669"
   height="682.66669"
   viewBox="0 0 682.66669 682.66669"
   xmlns="http://www.w3.org/2000/svg"
   xmlns:svg="http://www.w3.org/2000/svg"><defs
     id="defs1639"><clipPath
       clipPathUnits="userSpaceOnUse"
       id="clipPath1649"><path
         d="M 0,512 H 512 V 0 H 0 Z"
         id="path1647" /></clipPath></defs><g
     id="g1641"
     transform="matrix(1.3333333,0,0,-1.3333333,0,682.66667)"><g
       id="g1643"><g
         id="g1645"
         clip-path="url(#clipPath1649)"><g
           id="g1651"
           transform="translate(100.5176,341.1172)"><path
             d="M 0,0 113.355,-13.69 253.003,0 c 10.818,0 19.612,8.825 19.612,19.613 0,10.82 -8.794,19.644 -19.612,19.644 h -12.33 l -151.01,31.823 151.01,31.792 h 12.33 c 10.818,0 19.612,8.825 19.612,19.644 0,10.819 -8.794,19.613 -19.612,19.613 H 0 c -39.166,0 -71.078,-31.913 -71.078,-71.049 0,-18.889 7.495,-36.87 20.852,-50.227 C -36.869,7.495 -18.888,0 0,0"
             style="fill:#ffe07d;fill-opacity:1;fill-rule:evenodd;stroke:none"
             id="path1653" /></g><g
           id="g1655"
           transform="translate(100.5176,380.374)"><path
             d="m 0,0 h 240.673 c -10.094,21.336 -10.033,42.551 0,63.615 H 0 c -17.498,0 -31.822,-14.324 -31.822,-31.792 0,-8.492 3.355,-16.47 9.338,-22.485 C -16.47,3.355 -8.492,0 0,0"
             style="fill:#f9f7f8;fill-opacity:1;fill-rule:evenodd;stroke:none"
             id="path1657" /></g><g
           id="g1659"
           transform="translate(341.1904,443.9893)"><path
             d="m 0,0 h -240.673 c -17.497,0 -31.822,-14.325 -31.822,-31.792 0,-4.866 1.119,-9.55 3.173,-13.812 5.168,10.638 16.077,18.042 28.649,18.042 l 233.239,-0.03 C -6.86,-18.344 -4.352,-9.157 0,0"
             style="fill:#dddaec;fill-opacity:1;fill-rule:evenodd;stroke:none"
             id="path1661" /></g><g
           id="g1663"
           transform="translate(353.5205,483.2461)"><path
             d="m 0,0 h -93.44 c 5.62,-12.028 9.73,-25.234 12.087,-39.257 H -12.33 0 c 10.818,0 19.612,8.825 19.612,19.644 C 19.612,-8.794 10.818,0 0,0"
             style="fill:#ffd064;fill-opacity:1;fill-rule:evenodd;stroke:none"
             id="path1665" /></g><g
           id="g1667"
           transform="translate(227.5933,165.7754)"><path
             d="m 0,0 171.741,19.16 c 19.975,0 36.324,16.35 36.324,36.326 v 41.765 41.765 c 0,19.976 -16.349,36.326 -36.324,36.326 h -45.814 -253.003 -51.918 c -10.547,0 -19.159,-8.613 -19.159,-19.16 0,-10.547 8.612,-19.161 19.159,-19.161 h 18.041 l 330.7,-39.77 -330.7,-39.771 h -18.041 c -10.547,0 -19.159,-8.613 -19.159,-19.16 0,-10.547 8.612,-19.16 19.159,-19.16 z"
             style="fill:#a7e9a6;fill-opacity:1;fill-rule:evenodd;stroke:none"
             id="path1669" /></g><g
           id="g1671"
           transform="translate(66.6406,223.2559)"><path
             d="m 0,0 h 321.028 c 5.319,0 9.671,4.352 9.671,9.67 v 60.201 c 0,5.318 -4.352,9.67 -9.671,9.67 H 0 C 6.316,66.305 9.489,53.068 9.459,39.771 9.459,26.564 6.316,13.297 0,0"
             style="fill:#f9f7f8;fill-opacity:1;fill-rule:evenodd;stroke:none"
             id="path1673" /></g><g
           id="g1675"
           transform="translate(387.6689,302.7969)"><path
             d="m 0,0 h -321.028 c 3.112,-6.497 5.44,-12.995 7.011,-19.492 h 291.594 c 5.288,0 9.64,-4.352 9.64,-9.671 V -79.541 H 0 c 5.318,0 9.671,4.352 9.671,9.67 V -9.67 C 9.671,-4.352 5.318,0 0,0"
             style="fill:#dddaec;fill-opacity:1;fill-rule:evenodd;stroke:none"
             id="path1677" /></g><g
           id="g1679"
           transform="translate(341.1904,380.374)"><path
             d="m 0,0 h -71.107 c -3.355,-14.204 -8.614,-27.41 -15.383,-39.257 h 98.82 c 10.818,0 19.612,8.825 19.612,19.613 C 31.942,-8.824 23.148,0 12.33,0 Z"
             style="fill:#ffd064;fill-opacity:1;fill-rule:evenodd;stroke:none"
             id="path1681" /></g><g
           id="g1683"
           transform="translate(399.334,341.1172)"><path
             d="m 0,0 h -45.813 -29.253 c 6.285,-11.635 11.121,-24.54 14.203,-38.32 h 49.198 c 5.318,0 9.671,-4.352 9.671,-9.671 v -60.2 c 0,-5.319 -4.353,-9.67 -9.671,-9.67 h -12.783 -38.894 c -4.079,-13.963 -10.002,-26.897 -17.467,-38.321 H 0 c 19.976,0 36.324,16.35 36.324,36.326 v 41.765 41.765 C 36.324,-16.35 19.976,0 0,0"
             style="fill:#7fdbae;fill-opacity:1;fill-rule:evenodd;stroke:none"
             id="path1685" /></g><g
           id="g1687"
           transform="translate(48.5991,184.9355)"><path
             d="M 0,0 H -4.805 C -24.78,0 -41.099,-16.35 -41.099,-36.326 v -41.765 -41.765 c 0,-19.977 16.349,-36.326 36.294,-36.326 h 441.547 c 7.977,0 14.868,4.956 17.739,11.937 0.906,2.237 1.42,4.684 1.42,7.223 0,2.569 -0.514,5.017 -1.42,7.253 -2.871,6.981 -9.762,11.907 -17.739,11.907 H 418.7 L -2.78,-81.597 418.7,-38.32 h 18.042 c 7.977,0 14.868,4.926 17.739,11.907 0.906,2.236 1.42,4.684 1.42,7.253 0,2.538 -0.514,4.986 -1.42,7.222 C 451.61,-4.957 444.719,0 436.742,0 Z"
             style="fill:#ffe07d;fill-opacity:1;fill-rule:evenodd;stroke:none"
             id="path1689" /></g><g
           id="g1691"
           transform="translate(467.2988,67.0737)"><path
             d="m 0,0 h -78.935 c -5.137,-14.234 -12.269,-27.168 -20.942,-38.32 H 18.042 c 7.978,0 14.868,4.956 17.739,11.937 0.907,2.237 1.42,4.684 1.42,7.223 0,2.569 -0.513,5.017 -1.42,7.253 C 32.91,-4.926 26.02,0 18.042,0 Z"
             style="fill:#ffd064;fill-opacity:1;fill-rule:evenodd;stroke:none"
             id="path1693" /></g><g
           id="g1695"
           transform="translate(485.3408,184.9355)"><path
             d="m 0,0 h -86.007 -15.23 c 5.318,-11.816 9.247,-24.69 11.423,-38.32 H -18.042 0 c 7.978,0 14.868,4.926 17.739,11.907 0.907,2.236 1.42,4.684 1.42,7.253 0,2.538 -0.513,4.986 -1.42,7.222 C 14.868,-4.957 7.978,0 0,0"
             style="fill:#ffd064;fill-opacity:1;fill-rule:evenodd;stroke:none"
             id="path1697" /></g><g
           id="g1699"
           transform="translate(457.8398,106.8447)"><path
             d="M 0,0 C -0.03,13.297 3.144,26.564 9.459,39.771 H -402.35 c -5.319,0 -9.671,-4.352 -9.671,-9.671 v -60.2 c 0,-5.319 4.352,-9.671 9.671,-9.671 H 9.459 C 3.144,-26.474 0,-13.207 0,0"
             style="fill:#f9f7f8;fill-opacity:1;fill-rule:evenodd;stroke:none"
             id="path1701" /></g><g
           id="g1703"
           transform="translate(137.2954,146.6152)"><path
             d="m 0,0 h -81.806 c -5.319,0 -9.67,-4.352 -9.67,-9.67 v -30.101 c 0,5.319 4.351,9.671 9.67,9.671 H 0 10.366 52.522 62.858 321.088 c 1.149,10.034 4.141,20.067 8.915,30.1 H 62.888 Z"
             style="fill:#dddaec;fill-opacity:1;fill-rule:evenodd;stroke:none"
             id="path1705" /></g><g
           id="g1707"
           transform="translate(137.2954,114.2188)"><path
             d="m 0,0 c -0.363,-4.594 1.42,-6.075 5.289,-2.539 l 26.14,24.933 26.14,-24.933 c 3.869,-3.536 5.681,-2.055 5.289,2.539 0.03,49.592 0.03,99.215 0.06,148.808 H -0.03 C -0.03,99.215 0,49.592 0,0"
             style="fill:#eb5468;fill-opacity:1;fill-rule:evenodd;stroke:none"
             id="path1709" /></g><g
           id="g1711"
           transform="translate(200.2139,263.0264)"><path
             d="m 0,0 h -21.487 c -0.03,-45.301 -0.03,-90.603 -0.03,-135.903 l 11.121,-10.608 5.047,-4.835 c 3.868,-3.536 5.681,-2.055 5.288,2.538 v 2.297 C -0.03,-97.674 -0.03,-48.837 0,0"
             style="fill:#e5384f;fill-opacity:1;fill-rule:evenodd;stroke:none"
             id="path1713" /></g><g
           id="g1715"
           transform="translate(66.6406,302.7969)"><path
             d="M 0,0 C 12.572,-26.353 12.663,-52.856 0,-79.541"
             style="fill:none;stroke:#000000;stroke-width:15;stroke-linecap:round;stroke-linejoin:round;stroke-miterlimit:10;stroke-dasharray:none;stroke-opacity:1"
             id="path1717" /></g><g
           id="g1719"
           transform="translate(341.1904,443.9893)"><path
             d="M 0,0 C -10.033,-21.064 -10.094,-42.279 0,-63.615"
             style="fill:none;stroke:#000000;stroke-width:15;stroke-linecap:round;stroke-linejoin:round;stroke-miterlimit:10;stroke-dasharray:none;stroke-opacity:1"
             id="path1721" /></g><g
           id="g1723"
           transform="translate(215.2632,443.9893)"><path
             d="m 0,0 h 138.257 c 10.819,0 19.613,8.825 19.613,19.644 0,10.819 -8.794,19.613 -19.613,19.613 h -253.003 c -39.165,0 -71.077,-31.913 -71.077,-71.049 0,-18.889 7.494,-36.87 20.851,-50.228 13.358,-13.357 31.339,-20.852 50.226,-20.852 m 253.003,0 c 10.819,0 19.613,8.825 19.613,19.613 0,10.82 -8.794,19.644 -19.613,19.644 h -253.003 c -8.491,0 -16.47,3.355 -22.483,9.338 -5.984,6.014 -9.338,13.992 -9.338,22.485 0,17.467 14.324,31.792 31.821,31.792 h 77.817"
             style="fill:none;stroke:#000000;stroke-width:15;stroke-linecap:round;stroke-linejoin:round;stroke-miterlimit:10;stroke-dasharray:none;stroke-opacity:1"
             id="path1725" /></g><g
           id="g1727"
           transform="translate(76.0996,263.0264)"><path
             d="M 0,0 H 184.101"
             style="fill:none;stroke:#000000;stroke-width:15;stroke-linecap:round;stroke-linejoin:round;stroke-miterlimit:10;stroke-dasharray:none;stroke-opacity:1"
             id="path1729" /></g><g
           id="g1731"
           transform="translate(200.2139,263.0264)"><path
             d="m 0,0 -0.061,-148.808 c 0.393,-4.593 -1.42,-6.074 -5.288,-2.538 l -26.141,24.932 -26.14,-24.932 c -3.868,-3.536 -5.651,-2.055 -5.288,2.538 L -62.949,0"
             style="fill:none;stroke:#000000;stroke-width:15;stroke-linecap:round;stroke-linejoin:round;stroke-miterlimit:10;stroke-dasharray:none;stroke-opacity:1"
             id="path1733" /></g><g
           id="g1735"
           transform="translate(349.9844,146.6152)"><path
             d="m 0,0 h 135.356 c 10.547,0 19.16,8.613 19.16,19.16 0,10.548 -8.613,19.16 -19.16,19.16 h -285.157 m 0,-38.32 h 112.872 m -175.79,38.32 h -93.471 c -19.976,0 -36.294,-16.349 -36.294,-36.325 v -41.766 -41.765 c 0,-19.976 16.349,-36.325 36.294,-36.325 h 441.546 c 10.547,0 19.16,8.612 19.16,19.159 0,10.548 -8.613,19.16 -19.16,19.16 h -429.851 c -5.318,0 -9.67,4.353 -9.67,9.671 V -9.67 c 0,5.318 4.352,9.67 9.67,9.67 h 81.806"
             style="fill:none;stroke:#000000;stroke-width:15;stroke-linecap:round;stroke-linejoin:round;stroke-miterlimit:10;stroke-dasharray:none;stroke-opacity:1"
             id="path1737" /></g><g
           id="g1739"
           transform="translate(399.334,184.9355)"><path
             d="m 0,0 c 19.976,0 36.324,16.35 36.324,36.326 v 41.765 41.765 c 0,19.976 -16.348,36.326 -36.324,36.326 h -350.735 c -10.546,0 -19.159,-8.613 -19.159,-19.161 0,-10.546 8.613,-19.16 19.159,-19.16 h 339.07 c 5.318,0 9.671,-4.351 9.671,-9.67 v -60.2 c 0,-5.319 -4.353,-9.671 -9.671,-9.671 H -199.15 m -62.919,0 h -88.666 c -10.546,0 -19.159,-8.613 -19.159,-19.16 0,-10.547 8.613,-19.16 19.159,-19.16"
             style="fill:none;stroke:#000000;stroke-width:15;stroke-linecap:round;stroke-linejoin:round;stroke-miterlimit:10;stroke-dasharray:none;stroke-opacity:1"
             id="path1741" /></g><g
           id="g1743"
           transform="translate(467.2988,146.6152)"><path
             d="M 0,0 C -12.571,-26.353 -12.662,-52.856 0,-79.542"
             style="fill:none;stroke:#000000;stroke-width:15;stroke-linecap:round;stroke-linejoin:round;stroke-miterlimit:10;stroke-dasharray:none;stroke-opacity:1"
             id="path1745" /></g></g></g></g></svg>
