<?xml version="1.0" encoding="UTF-8" standalone="no"?>
<!-- Created with Inkscape (http://www.inkscape.org/) -->

<svg
   version="1.1"
   id="svg3858"
   width="682.66669"
   height="682.66669"
   viewBox="0 0 682.66669 682.66669"
   xmlns="http://www.w3.org/2000/svg"
   xmlns:svg="http://www.w3.org/2000/svg">
  <defs
     id="defs3862">
    <clipPath
       clipPathUnits="userSpaceOnUse"
       id="clipPath3884">
      <path
         d="M 0,512 H 512 V 0 H 0 Z"
         id="path3882" />
    </clipPath>
  </defs>
  <g
     id="g3864"
     transform="matrix(1.3333333,0,0,-1.3333333,0,682.66667)">
    <path
       d="m 465.03,86.095 h -70.158 v 36.667 h 70.158 z"
       style="fill:#efecef;fill-opacity:1;fill-rule:nonzero;stroke:none"
       id="path3866" />
    <path
       d="m 429.951,86.095 h -35.079 v 36.667 h 35.079 z"
       style="fill:#e2dfe2;fill-opacity:1;fill-rule:nonzero;stroke:none"
       id="path3868" />
    <g
       id="g3870"
       transform="translate(449.9883,434.5957)">
      <path
         d="m 0,0 h -40.074 l -15.042,-38.898 1.206,-2.602 h 64.333 l 4.619,2.602 z"
         style="fill:#efecef;fill-opacity:1;fill-rule:nonzero;stroke:none"
         id="path3872" />
    </g>
    <g
       id="g3874"
       transform="translate(437.4716,434.5957)">
      <path
         d="M 0,0 H -27.558 L -42.6,-38.898 -41.394,-41.5 h 34.477 l -0.604,2.602 z"
         style="fill:#e2dfe2;fill-opacity:1;fill-rule:nonzero;stroke:none"
         id="path3876" />
    </g>
    <g
       id="g3878">
      <g
         id="g3880"
         clip-path="url(#clipPath3884)">
        <g
           id="g3886"
           transform="translate(334.5556,504.501)">
          <path
             d="M 0,0 H -243.692 V -455.822 H -0.645 l 9.374,6.592 V -8.73 C 8.729,-3.909 4.821,0 0,0"
             style="fill:#dd8858;fill-opacity:1;fill-rule:nonzero;stroke:none"
             id="path3888" />
        </g>
        <path
           d="m 90.863,48.679 h 40.943 V 504.501 H 90.863 Z"
           style="fill:#cb6c35;fill-opacity:1;fill-rule:nonzero;stroke:none"
           id="path3890" />
        <path
           d="m 431.578,120.909 h -36.706 v 274.789 h 36.706 z"
           style="fill:#ffc250;fill-opacity:1;fill-rule:nonzero;stroke:none"
           id="path3892" />
        <g
           id="g3894"
           transform="translate(394.872,87.7788)">
          <path
             d="m 0,0 v -22.899 c 0,-12.378 10.033,-22.412 22.411,-22.412 h 25.335 c 12.378,0 22.412,10.034 22.412,22.412 V 0 Z"
             style="fill:#ff7f87;fill-opacity:1;fill-rule:nonzero;stroke:none"
             id="path3896" />
        </g>
        <g
           id="g3898"
           transform="translate(429.9511,64.8799)">
          <path
             d="M 0,0 V 22.899 H -35.079 V 0 c 0,-12.378 10.033,-22.412 22.411,-22.412 h 25.336 c 1.674,0 3.303,0.189 4.872,0.537 C 7.506,-19.649 0,-10.704 0,0"
             style="fill:#ff656f;fill-opacity:1;fill-rule:nonzero;stroke:none"
             id="path3900" />
        </g>
        <g
           id="g3902"
           transform="translate(421.0703,463.4448)">
          <path
             d="M 0,0 -11.923,-30.83 H 29.684 L 17.762,0 C 14.623,8.117 3.139,8.117 0,0"
             style="fill:#7b6c79;fill-opacity:1;fill-rule:nonzero;stroke:none"
             id="path3904" />
        </g>
        <g
           id="g3906"
           transform="translate(438.832,463.4448)">
          <path
             d="m 0,0 c -3.139,8.117 -14.623,8.117 -17.762,0 l -11.923,-30.83 h 27.938 l 4.65,23.323 z"
             style="fill:#695d67;fill-opacity:1;fill-rule:nonzero;stroke:none"
             id="path3908" />
        </g>
        <g
           id="g3910"
           transform="translate(352.1006,306.3184)">
          <path
             d="m 0,0 h -139.591 c -21.559,0 -39.613,-17.644 -39.2,-39.199 0.399,-20.888 17.458,-37.697 38.44,-37.697 H 0 c 5.872,0 10.633,4.76 10.633,10.633 v 55.63 C 10.633,-4.761 5.872,0 0,0"
             style="fill:#cb6c35;fill-opacity:1;fill-rule:nonzero;stroke:none"
             id="path3912" />
        </g>
        <g
           id="g3914"
           transform="translate(352.1006,261.4429)">
          <path
             d="m 0,0 h -140.351 c -15.463,0 -28.786,9.134 -34.889,22.297 -2.373,-5.054 -3.665,-10.687 -3.551,-16.621 0.4,-20.888 17.458,-37.697 38.44,-37.697 H 0 c 5.872,0 10.633,4.761 10.633,10.633 V 10.633 C 10.633,4.761 5.872,0 0,0"
             style="fill:#ae5e2e;fill-opacity:1;fill-rule:nonzero;stroke:none"
             id="path3916" />
        </g>
        <g
           id="g3918"
           transform="translate(71.0371,504.501)">
          <path
             d="m 0,0 c -13.191,0 -23.886,-10.694 -23.886,-23.886 v -449.23 h 4.26 c 0,0 0.667,16.877 17.667,18.711 h 18 l 6.785,5.175 0,449.23 z"
             style="fill:#ae5e2e;fill-opacity:1;fill-rule:nonzero;stroke:none"
             id="path3920" />
        </g>
        <g
           id="g3922"
           transform="translate(130.5273,504.501)">
          <path
             d="m 0,0 v -107.137 c 0,-3.176 3.839,-4.765 6.084,-2.52 l 9.729,9.728 c 1.391,1.391 3.648,1.391 5.04,0 l 9.727,-9.728 c 2.245,-2.245 6.084,-0.656 6.084,2.52 V 0 Z"
             style="fill:#ff7f87;fill-opacity:1;fill-rule:nonzero;stroke:none"
             id="path3924" />
        </g>
        <g
           id="g3926"
           transform="translate(148.8594,504.501)">
          <path
             d="m 0,0 h -18.332 v -107.137 c 0,-3.175 3.839,-4.765 6.084,-2.52 l 9.728,9.728 c 0.696,0.696 1.608,1.044 2.52,1.044 z"
             style="fill:#ff656f;fill-opacity:1;fill-rule:nonzero;stroke:none"
             id="path3928" />
        </g>
        <g
           id="g3930"
           transform="translate(71.0371,55.2705)">
          <path
             d="m 0,0 c -13.191,0 -23.886,-10.694 -23.886,-23.886 0,-13.192 10.695,-23.885 23.886,-23.885 h 263.519 c 4.821,0 8.729,3.908 8.729,8.729 V 0 Z"
             style="fill:#efecef;fill-opacity:1;fill-rule:nonzero;stroke:none"
             id="path3932" />
        </g>
        <path
           d="M 465.03,120.909 H 429.951 V 395.698 H 465.03 Z"
           style="fill:#ffe07d;fill-opacity:1;fill-rule:nonzero;stroke:none"
           id="path3934" />
        <g
           id="g3936"
           transform="translate(334.5556,31.3848)">
          <path
             d="m 0,0 h -263.519 c -8.839,0 -16.551,4.806 -20.682,11.943 -2.033,-3.514 -3.203,-7.591 -3.203,-11.943 0,-13.192 10.694,-23.886 23.885,-23.886 H 0 c 4.821,0 8.729,3.908 8.729,8.73 V 8.73 C 8.729,3.908 4.821,0 0,0"
             style="fill:#e2dfe2;fill-opacity:1;fill-rule:nonzero;stroke:none"
             id="path3938" />
        </g>
        <g
           id="g3940"
           transform="translate(70.9463,55.2705)">
          <path
             d="m 0,0 c -13.191,0 -23.886,-10.694 -23.886,-23.886 0,-13.192 10.695,-23.885 23.886,-23.885 h 263.519 c 4.821,0 8.729,3.908 8.729,8.729 V 0 Z"
             style="fill:none;stroke:#000000;stroke-width:15;stroke-linecap:round;stroke-linejoin:round;stroke-miterlimit:10;stroke-dasharray:none;stroke-opacity:1"
             id="path3942" />
        </g>
        <g
           id="g3944"
           transform="translate(352.0097,306.3184)">
          <path
             d="m 0,0 h -139.591 c -21.559,0 -39.613,-17.644 -39.2,-39.199 0.399,-20.888 17.458,-37.697 38.44,-37.697 H 0 c 5.872,0 10.633,4.76 10.633,10.633 v 55.63 C 10.633,-4.761 5.872,0 0,0 Z"
             style="fill:none;stroke:#000000;stroke-width:15;stroke-linecap:round;stroke-linejoin:round;stroke-miterlimit:10;stroke-dasharray:none;stroke-opacity:1"
             id="path3946" />
        </g>
        <g
           id="g3948"
           transform="translate(93.7724,504.501)">
          <path
             d="m 0,0 h -22.826 c -13.192,0 -23.886,-10.694 -23.886,-23.886 v -449.23 c 0,13.191 10.694,23.886 23.886,23.886 H 0 Z"
             style="fill:none;stroke:#000000;stroke-width:15;stroke-linecap:round;stroke-linejoin:round;stroke-miterlimit:10;stroke-dasharray:none;stroke-opacity:1"
             id="path3950" />
        </g>
        <g
           id="g3952"
           transform="translate(130.4365,504.501)">
          <path
             d="m 0,0 v -107.137 c 0,-3.176 3.839,-4.765 6.084,-2.52 l 9.729,9.728 c 1.391,1.391 3.648,1.391 5.04,0 l 9.727,-9.728 c 2.245,-2.245 6.084,-0.656 6.084,2.52 V 0 Z"
             style="fill:none;stroke:#000000;stroke-width:15;stroke-linecap:round;stroke-linejoin:round;stroke-miterlimit:10;stroke-dasharray:none;stroke-opacity:1"
             id="path3954" />
        </g>
        <path
           d="M 429.86,120.909 H 394.781 V 395.698 H 429.86 Z"
           style="fill:none;stroke:#000000;stroke-width:15;stroke-linecap:round;stroke-linejoin:round;stroke-miterlimit:10;stroke-dasharray:none;stroke-opacity:1"
           id="path3956" />
        <path
           d="m 464.939,87.779 h -70.158 v 33.13 h 70.158 z"
           style="fill:none;stroke:#000000;stroke-width:15;stroke-linecap:round;stroke-linejoin:round;stroke-miterlimit:10;stroke-dasharray:none;stroke-opacity:1"
           id="path3958" />
        <g
           id="g3960"
           transform="translate(394.7812,87.7788)">
          <path
             d="m 0,0 v -22.899 c 0,-12.378 10.033,-22.412 22.411,-22.412 h 25.335 c 12.378,0 22.412,10.034 22.412,22.412 V 0 Z"
             style="fill:none;stroke:#000000;stroke-width:15;stroke-linecap:round;stroke-linejoin:round;stroke-miterlimit:10;stroke-dasharray:none;stroke-opacity:1"
             id="path3962" />
        </g>
        <g
           id="g3964"
           transform="translate(438.7412,463.4448)">
          <path
             d="M 0,0 C -3.139,8.117 -14.623,8.117 -17.762,0 L -43.96,-67.747 h 70.158 z"
             style="fill:none;stroke:#000000;stroke-width:15;stroke-linecap:round;stroke-linejoin:round;stroke-miterlimit:10;stroke-dasharray:none;stroke-opacity:1"
             id="path3966" />
        </g>
        <g
           id="g3968"
           transform="translate(420.9795,463.4448)">
          <path
             d="M 0,0 -11.923,-30.83 H 29.684 L 17.762,0 C 14.623,8.117 3.139,8.117 0,0 Z"
             style="fill:none;stroke:#000000;stroke-width:15;stroke-linecap:round;stroke-linejoin:round;stroke-miterlimit:10;stroke-dasharray:none;stroke-opacity:1"
             id="path3970" />
        </g>
        <g
           id="g3972"
           transform="translate(211.9121,267.9429)">
          <path
             d="M 0,0 H 11.203"
             style="fill:none;stroke:#000000;stroke-width:15;stroke-linecap:round;stroke-linejoin:round;stroke-miterlimit:10;stroke-dasharray:none;stroke-opacity:1"
             id="path3974" />
        </g>
        <g
           id="g3976"
           transform="translate(226.7764,504.501)">
          <path
             d="m 0,0 h -155.83 c -13.191,0 -23.886,-10.694 -23.886,-23.886 v -449.23 c 0,13.192 10.695,23.886 23.886,23.886 h 272.248 v 174.151 H -15.117 c -20.983,0 -38.041,16.809 -38.441,37.697 -0.413,21.556 17.641,39.199 39.201,39.199 H 116.418 V -8.73 c 0,4.821 -3.908,8.73 -8.73,8.73 L 35,0"
             style="fill:none;stroke:#000000;stroke-width:15;stroke-linecap:round;stroke-linejoin:round;stroke-miterlimit:10;stroke-dasharray:none;stroke-opacity:1"
             id="path3978" />
        </g>
        <g
           id="g3980"
           transform="translate(464.9394,263.8032)">
          <path
             d="M 0,0 V 131.895 H -35.079 V -142.894 H 0 V -35"
             style="fill:none;stroke:#000000;stroke-width:15;stroke-linecap:round;stroke-linejoin:round;stroke-miterlimit:10;stroke-dasharray:none;stroke-opacity:1"
             id="path3982" />
        </g>
      </g>
    </g>
  </g>
</svg>
