<svg id="Capa_1" enable-background="new 0 0 512 512" height="512" viewBox="0 0 512 512" width="512" xmlns="http://www.w3.org/2000/svg"><g><path d="m316 36.5v393l75-45v-348z" fill="#ff8a5e"/><path d="m61 82.5v347h105l-60-392c-24.85 0-45 20.15-45 45z" fill="#ffbb69"/><path d="m106 37.5h255v392h-255z" fill="#ffa366"/><path d="m391 384.5h-30l-95.638 60 95.638 60h30v-30l-42.43-30 42.43-30z" fill="#ff479a"/><path d="m106 384.5c-24.85 0-45 20.15-45 45v30c0 24.85 20.15 45 45 45h255v-120z" fill="#ff6aad"/><path d="m106 429.5h255v45h-255z" fill="#fff4c9"/><path d="m106 414.5h255v30h-255z" fill="#fff"/><path d="m391 474.5h-30c-8.29-8.28-12.43-19.14-12.43-30l12.43-15 17.57 15c0 10.86 4.14 21.72 12.43 30z" fill="#ffeb6b"/><path d="m361 414.5h30c-8.29 8.28-12.43 19.14-12.43 30h-30c0-10.86 4.14-21.72 12.43-30z" fill="#fff4c9"/><path d="m106 414.5c-8.284 0-15 6.716-15 15v30c0 8.284 6.716 15 15 15s15-6.716 15-15v-30c0-8.284-6.716-15-15-15z" fill="#01559a"/><path d="m421 7.5h-30v347h30c16.569 0 30-13.431 30-30v-287c0-16.569-13.431-30-30-30z" fill="#01559a"/><path d="m421 324.5v-60l-97.5-113.5 97.5-113.5c0-16.569-13.431-30-30-30h-165c-16.569 0-30 13.431-30 30v287c0 16.569 13.431 30 30 30h165c16.569 0 30-13.431 30-30z" fill="#106eb2"/><path d="m338.5 294.5h-30v30h30c8.284 0 15-6.716 15-15s-6.716-15-15-15z" fill="#2088cb"/><circle cx="308.5" cy="309.5" fill="#2fa1e3" r="15"/><path d="m391 264.5-67.5-113.5 67.5-113.5h30v227z" fill="#fff4c9"/><path d="m226 37.5h165v227h-165z" fill="#fff"/><path d="m421 0h-195c-18.11 0-33.261 12.904-36.745 30h-83.255c-28.948 0-52.5 23.552-52.5 52.5v377c0 28.948 23.552 52.5 52.5 52.5h285c4.143 0 7.5-3.357 7.5-7.5v-30c0-1.989-.79-3.896-2.196-5.304-6.597-6.597-10.23-15.367-10.23-24.696s3.634-18.1 10.23-24.696c1.406-1.407 2.196-3.314 2.196-5.304v-52.5h22.5c20.678 0 37.5-16.822 37.5-37.5v-287c0-20.678-16.822-37.5-37.5-37.5zm-352.5 82.5c0-18.11 12.904-33.261 30-36.745v331.78c-11.677 1.677-22.117 7.219-30 15.274zm303.169 354.5h-243.169v-7.5c0-2.629-.458-5.153-1.29-7.5h249.23c-2.401 4.763-3.991 9.83-4.771 15zm-258.169-7.5v30c0 4.136-3.364 7.5-7.5 7.5s-7.5-3.364-7.5-7.5v-30c0-4.136 3.364-7.5 7.5-7.5s7.5 3.364 7.5 7.5zm15 30v-7.5h243.169c.779 5.17 2.37 10.237 4.771 15h-249.23c.832-2.347 1.29-4.871 1.29-7.5zm255-82.5h-247.5c-4.143 0-7.5 3.357-7.5 7.5s3.357 7.5 7.5 7.5h247.5v15h-277.5c-12.406 0-22.5 10.094-22.5 22.5v30c0 12.406 10.094 22.5 22.5 22.5h277.5v15h-277.5c-20.678 0-37.5-16.822-37.5-37.5v-30c0-20.678 16.822-37.5 37.5-37.5 4.143 0 7.5-3.357 7.5-7.5v-339.5h75v279.5c0 20.678 16.822 37.5 37.5 37.5h157.5zm60-52.5c0 12.406-10.094 22.5-22.5 22.5h-195c-12.406 0-22.5-10.094-22.5-22.5v-287c0-12.406 10.094-22.5 22.5-22.5h195c12.406 0 22.5 10.094 22.5 22.5z"/><path d="m338.5 287h-30c-12.406 0-22.5 10.094-22.5 22.5s10.094 22.5 22.5 22.5h30c12.406 0 22.5-10.094 22.5-22.5s-10.094-22.5-22.5-22.5zm0 30h-30c-4.136 0-7.5-3.364-7.5-7.5s3.364-7.5 7.5-7.5h30c4.136 0 7.5 3.364 7.5 7.5s-3.364 7.5-7.5 7.5z"/><path d="m421 30h-195c-4.143 0-7.5 3.357-7.5 7.5v227c0 4.143 3.357 7.5 7.5 7.5h195c4.143 0 7.5-3.357 7.5-7.5v-227c0-4.143-3.357-7.5-7.5-7.5zm-7.5 227h-180v-212h180z"/></g></svg>