<svg id="Capa_1" enable-background="new 0 0 497 497" height="512" viewBox="0 0 497 497" width="512" xmlns="http://www.w3.org/2000/svg"><g><path d="m308.5 29v393l75-45v-348z" fill="#ff8a5e"/><path d="m53.5 75v347h105l-60-392c-24.85 0-45 20.15-45 45z" fill="#ffbb69"/><path d="m98.5 30h255v392h-255z" fill="#ffa366"/><path d="m383.5 377h-30l-95.638 60 95.638 60h22.5c4.142 0 7.5-3.358 7.5-7.5v-22.5l-42.43-30 42.43-30z" fill="#ff479a"/><path d="m98.5 377c-24.85 0-45 20.15-45 45v30c0 24.85 20.15 45 45 45h255v-120z" fill="#ff6aad"/><path d="m98.5 422h255v45h-255z" fill="#fff4c9"/><path d="m98.5 407h255v30h-255z" fill="#fff"/><path d="m383.5 467h-30c-8.29-8.28-12.43-19.14-12.43-30l12.43-15 17.57 15c0 10.86 4.14 21.72 12.43 30z" fill="#ffeb6b"/><path d="m353.5 407h30c-8.29 8.28-12.43 19.14-12.43 30h-30c0-10.86 4.14-21.72 12.43-30z" fill="#fff4c9"/><path d="m98.5 407c-8.284 0-15 6.716-15 15v30c0 8.284 6.716 15 15 15s15-6.716 15-15v-30c0-8.284-6.716-15-15-15z" fill="#01559a"/><path d="m413.5 0h-30v347h30c16.569 0 30-13.431 30-30v-287c0-16.569-13.431-30-30-30z" fill="#01559a"/><path d="m413.5 317v-60l-97.5-113.5 97.5-113.5c0-16.569-13.431-30-30-30h-165c-16.569 0-30 13.431-30 30v287c0 16.569 13.431 30 30 30h165c16.569 0 30-13.431 30-30z" fill="#106eb2"/><path d="m331 287h-30v30h30c8.284 0 15-6.716 15-15s-6.716-15-15-15z" fill="#2088cb"/><circle cx="301" cy="302" fill="#2fa1e3" r="15"/><path d="m383.5 257-67.5-113.5 67.5-113.5h30v227z" fill="#fff4c9"/><path d="m218.5 30h165v227h-165z" fill="#fff"/></g></svg>