<?xml version="1.0" encoding="UTF-8" standalone="no"?>
<svg
   id="Capa_1"
   enable-background="new 0 0 512 512"
   height="512"
   viewBox="0 0 512 512"
   width="512"
   version="1.1"
   sodipodi:docname="email-color.svg"
   inkscape:version="1.1.2 (0a00cf5339, 2022-02-04)"
   xmlns:inkscape="http://www.inkscape.org/namespaces/inkscape"
   xmlns:sodipodi="http://sodipodi.sourceforge.net/DTD/sodipodi-0.dtd"
   xmlns="http://www.w3.org/2000/svg"
   xmlns:svg="http://www.w3.org/2000/svg">
  <defs
     id="defs73" />
  <sodipodi:namedview
     id="namedview71"
     pagecolor="#ffffff"
     bordercolor="#666666"
     borderopacity="1.0"
     inkscape:pageshadow="2"
     inkscape:pageopacity="0.0"
     inkscape:pagecheckerboard="0"
     showgrid="false"
     inkscape:zoom="1.2304688"
     inkscape:cx="75.174603"
     inkscape:cy="136.93968"
     inkscape:window-width="1920"
     inkscape:window-height="1012"
     inkscape:window-x="0"
     inkscape:window-y="0"
     inkscape:window-maximized="1"
     inkscape:current-layer="Capa_1" />
  <g
     id="g68"
     transform="matrix(1.0314814,0,0,1.0314814,-8.0592207,-8.0592206)">
    <g
       id="g22">
      <path
         d="m 216.222,385.179 h 79.556 v 80.563 h -79.556 z"
         fill="#918291"
         id="path2" />
      <path
         d="m 216.222,385.179 h 31.222 v 80.563 h -31.222 z"
         fill="#7a6d79"
         id="path4" />
      <path
         d="m 55.07,338.261 v 30.166 c 0,9.252 7.5,16.751 16.751,16.751 h 368.358 c 9.251,0 16.751,-7.5 16.751,-16.751 v -30.166 z"
         fill="#a79ba7"
         id="path6" />
      <path
         d="m 445.763,128.151 h -19.316 v 137.258 c 0,2.761 -2.239,5 -5,5 H 224.818 V 169.334 c 0,-3.084 -2.5,-5.584 -5.584,-5.584 H 188.018 V 128.151 H 66.238 c -6.168,0 -11.168,5 -11.168,11.168 V 338.261 H 456.93 V 139.319 c 10e-4,-6.168 -4.999,-11.168 -11.167,-11.168 z"
         fill="#d8ecfe"
         id="path8" />
      <path
         d="M 97,368.427 V 338.261 H 55.07 v 30.166 c 0,9.252 7.5,16.751 16.751,16.751 h 41.93 C 104.5,385.179 97,377.679 97,368.427 Z"
         fill="#918291"
         id="path10" />
      <g
         id="g14">
        <path
           d="M 367.711,504.5 H 144.29 c -3.084,0 -5.584,-2.5 -5.584,-5.584 v -16.423 c 0,-9.252 7.5,-16.751 16.751,-16.751 h 201.086 c 9.252,0 16.751,7.5 16.751,16.751 v 16.423 c 0.001,3.084 -2.499,5.584 -5.583,5.584 z"
           fill="#a79ba7"
           id="path12" />
      </g>
      <g
         id="g18">
        <path
           d="m 191,498.916 v -16.423 c 0,-9.252 7.5,-16.751 16.751,-16.751 h -52.294 c -9.251,0 -16.751,7.5 -16.751,16.751 v 16.423 c 0,3.084 2.5,5.584 5.584,5.584 h 52.294 C 193.5,504.5 191,502 191,498.916 Z"
           fill="#918291"
           id="path16" />
      </g>
      <path
         d="m 97,139.319 c 0,-6.168 5,-11.168 11.168,-11.168 h -41.93 c -6.168,0 -11.168,5 -11.168,11.168 v 24.432 H 97 Z"
         fill="#c4e2ff"
         id="path20" />
    </g>
    <g
       id="g36" />
    <g
       id="g46">
      <g
         id="g44">
        <g
           id="g40">
          <path
             d="M 224.818,338.261 H 55.07 V 163.75 h 164.164 c 3.084,0 5.584,2.5 5.584,5.584 z"
             fill="#ffffff"
             id="path38" />
        </g>
        <path
           d="M 62.57,171.25 H 86.253 V 330.76 H 62.57 Z"
           fill="#f3f0f3"
           id="path42" />
      </g>
    </g>
    <g
       id="g66">
      <path
         d="m 262.484,296.98 c -4.143,0 -7.5,3.358 -7.5,7.5 0,4.142 3.357,7.5 7.5,7.5 h 89.498 c 4.143,0 7.5,-3.358 7.5,-7.5 0,-4.142 -3.357,-7.5 -7.5,-7.5 z"
         id="path48"
         style="fill:#00aa44" />
      <path
         d="m 89.944,226.606 c -4.143,0 -7.5,3.358 -7.5,7.5 0,4.142 3.357,7.5 7.5,7.5 h 100 c 4.143,0 7.5,-3.358 7.5,-7.5 0,-4.142 -3.357,-7.5 -7.5,-7.5 z"
         id="path54"
         style="fill:#999999" />
      <path
         d="m 89.944,272.876 h 100 c 4.143,0 7.5,-3.358 7.5,-7.5 0,-4.142 -3.357,-7.5 -7.5,-7.5 h -100 c -4.143,0 -7.5,3.358 -7.5,7.5 0,4.142 3.357,7.5 7.5,7.5 z"
         id="path56"
         style="fill:#999999" />
      <path
         d="m 89.944,304.145 h 100 c 4.143,0 7.5,-3.358 7.5,-7.5 0,-4.142 -3.357,-7.5 -7.5,-7.5 h -100 c -4.143,0 -7.5,3.358 -7.5,7.5 0,4.142 3.357,7.5 7.5,7.5 z"
         id="path58"
         style="fill:#999999" />
      <circle
         cx="113.944"
         cy="189.119"
         r="7.5"
         id="circle60"
         style="fill:#ffcc00" />
      <circle
         cx="189.944"
         cy="189.119"
         r="7.5"
         id="circle62"
         style="fill:#0066ff" />
      <circle
         cx="89.944"
         cy="189.119"
         r="7.5"
         id="circle64"
         style="fill:#00aa00" />
    </g>
  </g>
  <path
     d="m 454.79493,195.97515 c 4.143,0 7.5,-3.358 7.5,-7.5 v -52.682 c 0,-10.293 -8.374,-18.667 -18.667,-18.667 h -11.815 -253.427 -114.283002 c -10.294,0 -18.668,8.374 -18.668,18.667 v 205.109 0 H 462.29393 v 0 -117.427 c 0,-4.142 -3.357,-7.5 -7.5,-7.5 -4.143,0 -7.5,3.358 -7.5,7.5 v 103.761 H 60.434928 l 371.378002,-195.11 h 11.815 c 2.021,0 3.667,1.645 3.667,3.667 v 52.682 c 0,4.142 3.358,7.5 7.5,7.5 z m -394.360002,-60.182 c 0,-2.022 1.646,-3.667 3.668,-3.667 H 431.81293 l -371.378002,195.11 z"
     id="path52"
     sodipodi:nodetypes="ssssccssccccssscccssssssccsccc" />
  <path
     d="M 429.80979,93.100224 391.36545,63.409032 v 65.551678 l -79.1827,67.168 c -1.92475,1.63284 -4.74791,1.63284 -6.67266,0 l -79.1827,-67.168 V 63.409032 l -38.44434,29.691192 c -1.2646,0.976812 -2.0052,2.483807 -2.0052,4.081571 v 63.664065 h 32.19872 c 3.18109,0 5.75979,2.5787 5.75979,5.75979 V 270.8616 h 202.81916 c 2.84792,0 5.15741,-2.30948 5.15741,-5.1574 V 97.181795 c 0.002,-1.597764 -0.73854,-3.104759 -2.00314,-4.081571 z"
     fill="#fee97d"
     id="path24"
     style="stroke-width:1.03148" />
  <path
     d="m 305.51112,196.12871 c 1.92475,1.63284 4.74791,1.63284 6.67266,0 l 79.1827,-67.168 V 4.8342977 c 0,-2.847921 -2.30949,-5.15740705 -5.15741,-5.15740705 H 231.48686 c -2.84792,0 -5.15741,2.30948605 -5.15741,5.15740705 V 128.96071 Z"
     fill="#fff3de"
     id="path26"
     style="stroke-width:1.03148" />
  <path
     d="M 268.37883,164.6314 V 4.8342977 c 0,-2.847921 2.30948,-5.15740705 5.1574,-5.15740705 h -42.0504 c -2.84792,0 -5.15741,2.30948605 -5.15741,5.15740705 V 128.96071 Z"
     fill="#ffe5c2"
     id="path28"
     style="stroke-width:1.03148" />
  <path
     d="m 343.29738,142.18739 c 4.27343,0 7.73611,-3.46371 7.73611,-7.73611 0,-4.27239 -3.46268,-7.73611 -7.73611,-7.73611 h -34.45045 c -22.72869,0 -41.22005,-18.49137 -41.22005,-41.220059 0,-22.728692 18.49136,-41.220059 41.22005,-41.220059 h 4.35182 c 20.32947,0 36.86928,16.539804 36.86928,36.869271 0,5.932049 -4.82631,10.758351 -10.75939,10.758351 h -4.03103 c -3.7092,0 -6.72629,-3.017083 -6.72629,-6.726291 V 80.057142 69.176044 c 0,-4.272396 -3.46268,-7.73611 -7.73611,-7.73611 -1.5565,0 -3.00264,0.464166 -4.21566,1.254281 -2.07225,-0.798366 -4.31366,-1.254281 -6.6644,-1.254281 h -4.35182 c -12.6635,0 -22.96697,10.303467 -22.96697,22.966964 0,12.663497 10.30244,22.966962 22.96697,22.966962 h 7.97747 c 3.69168,0 7.07081,-1.34814 9.68665,-3.56995 3.47093,2.24863 7.59583,3.56995 12.03016,3.56995 h 4.03103 c 14.46344,0 26.23161,-11.767137 26.23161,-26.230569 0,-28.860849 -23.48065,-52.341492 -52.3415,-52.341492 h -4.35182 c -31.26007,0 -56.69228,25.432206 -56.69228,56.692281 0,31.26007 25.43221,56.69228 56.69228,56.69228 h 34.45045 z M 313.07807,85.175352 v 3.631846 c 0,1.709165 -1.38528,3.094444 -3.09444,3.094444 h -4.13934 c -3.80823,0 -7.20799,-2.730331 -7.69279,-6.507616 -0.58691,-4.570494 2.9748,-8.481871 7.4308,-8.481871 h 4.40133 c 1.70916,0 3.09444,1.385279 3.09444,3.094444 z"
     id="path50"
     style="fill:#00aa44;stroke-width:1.03148" />
  <path
     d="M 431.34256,95.04663 312.18068,196.12871 c -1.92475,1.63283 -4.74791,1.63283 -6.67266,0 L 186.34717,95.04663 c -0.3012,0.66221 -0.46933,1.38734 -0.46933,2.13517 v 63.66406 h 32.19872 c 3.18109,0 5.7598,2.5787 5.7598,5.75979 V 270.8616 h 202.81915 c 2.84792,0 5.15741,-2.30949 5.15741,-5.15741 V 97.18077 c 0,-0.7468 -0.16813,-1.47193 -0.47036,-2.13414 z"
     fill="#fed402"
     id="path30"
     style="stroke-width:1.03148" />
  <path
     d="m 218.07553,160.84483 c 0.11759,0 0.23209,0.0103 0.34761,0.0175 V 122.25608 L 186.34717,95.046629 c -0.3012,0.66221 -0.46933,1.38734 -0.46933,2.13517 v 63.664061 h 32.19769 z"
     fill="#fac600"
     id="path34"
     style="stroke-width:1.03148" />
  <path
     d="m 323.08138,186.88251 -10.89863,9.24517 c -1.92475,1.63283 -4.74791,1.63283 -6.67266,0 l -10.89863,-9.24517 -70.7751,54.66233 v 29.31676 h 202.81916 c 1.32339,0 2.51888,-0.51368 3.43174,-1.33267 z"
     fill="#fee97d"
     id="path32"
     style="stroke-width:1.03148" />
</svg>
