<?xml version="1.0" encoding="UTF-8" standalone="no"?>
<svg
   id="Capa_1"
   enable-background="new 0 0 512 512"
   height="512"
   viewBox="0 0 512 512"
   width="512"
   version="1.1"
   sodipodi:docname="office-desk-color.svg"
   inkscape:version="1.1.2 (0a00cf5339, 2022-02-04)"
   xmlns:inkscape="http://www.inkscape.org/namespaces/inkscape"
   xmlns:sodipodi="http://sodipodi.sourceforge.net/DTD/sodipodi-0.dtd"
   xmlns="http://www.w3.org/2000/svg"
   xmlns:svg="http://www.w3.org/2000/svg">
  <defs
     id="defs121" />
  <sodipodi:namedview
     id="namedview119"
     pagecolor="#ffffff"
     bordercolor="#666666"
     borderopacity="1.0"
     inkscape:pageshadow="2"
     inkscape:pageopacity="0.0"
     inkscape:pagecheckerboard="0"
     showgrid="false"
     inkscape:zoom="1.2304688"
     inkscape:cx="255.59365"
     inkscape:cy="262.90794"
     inkscape:window-width="1920"
     inkscape:window-height="1012"
     inkscape:window-x="0"
     inkscape:window-y="0"
     inkscape:window-maximized="1"
     inkscape:current-layer="Capa_1" />
  <g
     id="g116"
     transform="matrix(1.0311786,0,0,1.0311786,-7.9817122,-7.9817122)">
    <g
       id="g16">
      <path
         d="m 215,156.833 h 30 v 36.444 h -30 z"
         fill="#918291"
         id="path2" />
      <path
         d="m 285,221.278 v -13 c 0,-8.284 -6.716,-15 -15,-15 h -80 c -8.284,0 -15,6.716 -15,15 v 13 z"
         fill="#a79ba7"
         id="path4" />
      <path
         d="m 215,221.278 v -13 c 0,-8.284 6.716,-15 15,-15 h -40 c -8.284,0 -15,6.716 -15,15 v 13 z"
         fill="#918291"
         id="path6" />
      <g
         id="g10">
        <path
           d="M 320,156.833 H 140 c -2.761,0 -5,-2.239 -5,-5 V 45.722 c 0,-2.761 2.239,-5 5,-5 h 180 c 2.761,0 5,2.239 5,5 v 106.111 c 0,2.762 -2.239,5 -5,5 z"
           fill="#eaf6ff"
           id="path8" />
      </g>
      <g
         id="g14">
        <path
           d="M 175,151.833 V 45.722 c 0,-2.761 2.239,-5 5,-5 h -40 c -2.761,0 -5,2.239 -5,5 v 106.111 c 0,2.761 2.239,5 5,5 h 40 c -2.761,0 -5,-2.238 -5,-5 z"
           fill="#d8ecfe"
           id="path12" />
      </g>
    </g>
    <g
       id="g22">
      <path
         d="m 58.761,221.278 h 36.477 c 8.895,-5.911 14.761,-16.019 14.761,-27.5 v -35 c 0,-2.761 -2.239,-5 -5,-5 H 44 v 40 c 0,11.481 5.866,21.588 14.761,27.5 z"
         fill="#eaf6ff"
         id="path18" />
      <path
         d="M 58.761,221.278 H 83.798 C 74.888,215.37 69,205.27 69,193.778 v -40 H 44 v 40 c 0,11.481 5.866,21.588 14.761,27.5 z"
         fill="#d8ecfe"
         id="path20" />
    </g>
    <g
       id="g52">
      <g
         id="g40">
        <g
           id="g26">
          <path
             d="M 482.922,221.278 H 349 v -45 c 0,-2.761 2.239,-5 5,-5 h 128.922 z"
             fill="#fed402"
             id="path24" />
        </g>
        <g
           id="g30">
          <path
             d="M 404.078,171.278 H 354 c -2.761,0 -5,2.239 -5,5 v 45 h 50.078 v -45 c 0,-2.762 2.238,-5 5,-5 z"
             fill="#fac600"
             id="path28" />
        </g>
        <g
           id="g34">
          <path
             d="M 482.922,196.278 H 349 v -20 c 0,-2.761 2.239,-5 5,-5 h 128.922 z"
             fill="#fe6c55"
             id="path32" />
        </g>
        <g
           id="g38">
          <path
             d="M 404.078,171.278 H 354 c -2.761,0 -5,2.239 -5,5 v 20 h 50.078 v -20 c 0,-2.762 2.238,-5 5,-5 z"
             fill="#fd544d"
             id="path36" />
        </g>
      </g>
      <g
         id="g46">
        <g
           id="g44">
          <path
             d="M 499.5,171.278 H 370.578 v -20 c 0,-2.761 2.239,-5 5,-5 H 499.5 c 2.761,0 5,2.239 5,5 v 15 c 0,2.761 -2.239,5 -5,5 z"
             fill="#00c27a"
             id="path42" />
        </g>
      </g>
      <g
         id="g50">
        <path
           d="m 417.078,146.278 h -41.5 c -2.761,0 -5,2.239 -5,5 v 20 h 41.5 v -20 c 0,-2.762 2.238,-5 5,-5 z"
           fill="#09a755"
           id="path48" />
      </g>
    </g>
    <path
       d="m 53.5,247.615 h 232 v 97.663 h -232 z"
       fill="#ea9b58"
       id="path54" />
    <path
       d="M 53.5,247.615 H 87 v 97.663 H 53.5 Z"
       fill="#d88a55"
       id="path56" />
    <g
       id="g82">
      <g
         id="g60">
        <path
           d="m 285.5,247.615 h 173 v 55.121 h -173 z"
           fill="#ea9b58"
           id="path58" />
      </g>
      <g
         id="g64">
        <path
           d="M 285.5,247.615 H 316 v 55.121 h -30.5 z"
           fill="#d88a55"
           id="path62" />
      </g>
      <g
         id="g68">
        <path
           d="m 285.5,302.736 h 173 v 55.121 h -173 z"
           fill="#f6a96c"
           id="path66" />
      </g>
      <g
         id="g72">
        <path
           d="M 285.5,302.736 H 316 v 55.121 h -30.5 z"
           fill="#ea9b58"
           id="path70" />
      </g>
      <g
         id="g76">
        <path
           d="m 458.5,431.776 h -168 c -2.761,0 -5,-2.239 -5,-5 v -68.919 h 173 z"
           fill="#ea9b58"
           id="path74" />
      </g>
      <g
         id="g80">
        <path
           d="m 316,426.776 v -68.919 h -30.5 v 68.919 c 0,2.761 2.239,5 5,5 H 321 c -2.761,0 -5,-2.238 -5,-5 z"
           fill="#d88a55"
           id="path78" />
      </g>
    </g>
    <path
       d="m 23.5,247.615 v 218.663 c 0,2.761 2.239,5 5,5 h 20 c 2.761,0 5,-2.239 5,-5 V 247.615 Z"
       fill="#a79ba7"
       id="path84" />
    <path
       d="m 458.5,247.615 v 218.663 c 0,2.761 2.239,5 5,5 h 20 c 2.761,0 5,-2.239 5,-5 V 247.615 Z"
       fill="#a79ba7"
       id="path86" />
    <g
       id="g90">
      <path
         d="m 499.5,221.278 h -487 c -2.761,0 -5,2.239 -5,5 v 16.337 c 0,2.761 2.239,5 5,5 h 487 c 2.761,0 5,-2.239 5,-5 v -16.337 c 0,-2.762 -2.239,-5 -5,-5 z"
         fill="#f6a96c"
         id="path88" />
    </g>
    <g
       id="g94">
      <path
         d="m 58,242.615 v -16.337 c 0,-2.761 2.239,-5 5,-5 H 12.5 c -2.761,0 -5,2.239 -5,5 v 16.337 c 0,2.761 2.239,5 5,5 H 63 c -2.761,0 -5,-2.239 -5,-5 z"
         fill="#ea9b58"
         id="path92" />
    </g>
    <g
       id="g114">
      <path
         d="m 359,282.535 h 26 c 4.142,0 7.5,-3.358 7.5,-7.5 0,-4.142 -3.358,-7.5 -7.5,-7.5 h -26 c -4.142,0 -7.5,3.358 -7.5,7.5 0,4.142 3.358,7.5 7.5,7.5 z"
         id="path96"
         style="fill:#c87137" />
      <path
         d="m 359,337.656 h 26 c 4.142,0 7.5,-3.358 7.5,-7.5 0,-4.142 -3.358,-7.5 -7.5,-7.5 h -26 c -4.142,0 -7.5,3.358 -7.5,7.5 0,4.142 3.358,7.5 7.5,7.5 z"
         id="path98"
         style="fill:#c87137" />
      <path
         d="m 359,392.778 h 26 c 4.142,0 7.5,-3.358 7.5,-7.5 0,-4.142 -3.358,-7.5 -7.5,-7.5 h -26 c -4.142,0 -7.5,3.358 -7.5,7.5 0,4.142 3.358,7.5 7.5,7.5 z"
         id="path100"
         style="fill:#c87137" />
      <path
         d="m 292,64.5 h -75 c -4.142,0 -7.5,3.358 -7.5,7.5 0,4.142 3.358,7.5 7.5,7.5 h 75 c 4.142,0 7.5,-3.358 7.5,-7.5 0,-4.142 -3.358,-7.5 -7.5,-7.5 z"
         id="path104"
         style="fill:#0055d4" />
      <path
         d="m 168,79.5 h 26 c 4.142,0 7.5,-3.358 7.5,-7.5 0,-4.142 -3.358,-7.5 -7.5,-7.5 h -26 c -4.142,0 -7.5,3.358 -7.5,7.5 0,4.142 3.358,7.5 7.5,7.5 z"
         id="path106"
         style="fill:#0055d4" />
      <path
         d="m 292,90.5 h -24 c -4.142,0 -7.5,3.358 -7.5,7.5 0,4.142 3.358,7.5 7.5,7.5 h 24 c 4.142,0 7.5,-3.358 7.5,-7.5 0,-4.142 -3.358,-7.5 -7.5,-7.5 z"
         id="path108"
         style="fill:#0055d4" />
      <path
         d="m 249.5,98 c 0,-4.142 -3.358,-7.5 -7.5,-7.5 h -74 c -4.142,0 -7.5,3.358 -7.5,7.5 0,4.142 3.358,7.5 7.5,7.5 h 74 c 4.142,0 7.5,-3.358 7.5,-7.5 z"
         id="path110"
         style="fill:#0055d4" />
      <path
         d="m 168,116.5 c -4.142,0 -7.5,3.358 -7.5,7.5 0,4.142 3.358,7.5 7.5,7.5 h 44 c 4.142,0 7.5,-3.358 7.5,-7.5 0,-4.142 -3.358,-7.5 -7.5,-7.5 z"
         id="path112"
         style="fill:#0055d4" />
    </g>
  </g>
</svg>
