<svg id="Capa_1" enable-background="new 0 0 512 512" height="512" viewBox="0 0 512 512" width="512" xmlns="http://www.w3.org/2000/svg"><g><g><path d="m215 156.833h30v36.444h-30z" fill="#918291"/><path d="m285 221.278v-13c0-8.284-6.716-15-15-15h-80c-8.284 0-15 6.716-15 15v13z" fill="#a79ba7"/><path d="m215 221.278v-13c0-8.284 6.716-15 15-15h-40c-8.284 0-15 6.716-15 15v13z" fill="#918291"/><g><path d="m320 156.833h-180c-2.761 0-5-2.239-5-5v-106.111c0-2.761 2.239-5 5-5h180c2.761 0 5 2.239 5 5v106.111c0 2.762-2.239 5-5 5z" fill="#eaf6ff"/></g><g><path d="m175 151.833v-106.111c0-2.761 2.239-5 5-5h-40c-2.761 0-5 2.239-5 5v106.111c0 2.761 2.239 5 5 5h40c-2.761 0-5-2.238-5-5z" fill="#d8ecfe"/></g></g><g><path d="m58.761 221.278h36.477c8.895-5.911 14.761-16.019 14.761-27.5v-35c0-2.761-2.239-5-5-5h-60.999v40c0 11.481 5.866 21.588 14.761 27.5z" fill="#eaf6ff"/><path d="m58.761 221.278h25.037c-8.91-5.908-14.798-16.008-14.798-27.5v-40h-25v40c0 11.481 5.866 21.588 14.761 27.5z" fill="#d8ecfe"/></g><g><g><g><path d="m482.922 221.278h-133.922v-45c0-2.761 2.239-5 5-5h128.922z" fill="#fed402"/></g><g><path d="m404.078 171.278h-50.078c-2.761 0-5 2.239-5 5v45h50.078v-45c0-2.762 2.238-5 5-5z" fill="#fac600"/></g><g><path d="m482.922 196.278h-133.922v-20c0-2.761 2.239-5 5-5h128.922z" fill="#fe6c55"/></g><g><path d="m404.078 171.278h-50.078c-2.761 0-5 2.239-5 5v20h50.078v-20c0-2.762 2.238-5 5-5z" fill="#fd544d"/></g></g><g><g><path d="m499.5 171.278h-128.922v-20c0-2.761 2.239-5 5-5h123.922c2.761 0 5 2.239 5 5v15c0 2.761-2.239 5-5 5z" fill="#00c27a"/></g></g><g><path d="m417.078 146.278h-41.5c-2.761 0-5 2.239-5 5v20h41.5v-20c0-2.762 2.238-5 5-5z" fill="#09a755"/></g></g><path d="m53.5 247.615h232v97.663h-232z" fill="#ea9b58"/><path d="m53.5 247.615h33.5v97.663h-33.5z" fill="#d88a55"/><g><g><path d="m285.5 247.615h173v55.121h-173z" fill="#ea9b58"/></g><g><path d="m285.5 247.615h30.5v55.121h-30.5z" fill="#d88a55"/></g><g><path d="m285.5 302.736h173v55.121h-173z" fill="#f6a96c"/></g><g><path d="m285.5 302.736h30.5v55.121h-30.5z" fill="#ea9b58"/></g><g><path d="m458.5 431.776h-168c-2.761 0-5-2.239-5-5v-68.919h173z" fill="#ea9b58"/></g><g><path d="m316 426.776v-68.919h-30.5v68.919c0 2.761 2.239 5 5 5h30.5c-2.761 0-5-2.238-5-5z" fill="#d88a55"/></g></g><path d="m23.5 247.615v218.663c0 2.761 2.239 5 5 5h20c2.761 0 5-2.239 5-5v-218.663z" fill="#a79ba7"/><path d="m458.5 247.615v218.663c0 2.761 2.239 5 5 5h20c2.761 0 5-2.239 5-5v-218.663z" fill="#a79ba7"/><g><path d="m499.5 221.278h-487c-2.761 0-5 2.239-5 5v16.337c0 2.761 2.239 5 5 5h487c2.761 0 5-2.239 5-5v-16.337c0-2.762-2.239-5-5-5z" fill="#f6a96c"/></g><g><path d="m58 242.615v-16.337c0-2.761 2.239-5 5-5h-50.5c-2.761 0-5 2.239-5 5v16.337c0 2.761 2.239 5 5 5h50.5c-2.761 0-5-2.239-5-5z" fill="#ea9b58"/></g><g><path d="m359 282.535h26c4.142 0 7.5-3.358 7.5-7.5s-3.358-7.5-7.5-7.5h-26c-4.142 0-7.5 3.358-7.5 7.5s3.358 7.5 7.5 7.5z"/><path d="m359 337.656h26c4.142 0 7.5-3.358 7.5-7.5s-3.358-7.5-7.5-7.5h-26c-4.142 0-7.5 3.358-7.5 7.5s3.358 7.5 7.5 7.5z"/><path d="m359 392.778h26c4.142 0 7.5-3.358 7.5-7.5s-3.358-7.5-7.5-7.5h-26c-4.142 0-7.5 3.358-7.5 7.5s3.358 7.5 7.5 7.5z"/><path d="m499.5 178.778c6.893 0 12.5-5.607 12.5-12.5v-15c0-6.893-5.607-12.5-12.5-12.5h-123.922c-6.893 0-12.5 5.607-12.5 12.5v12.5h-9.078c-6.893 0-12.5 5.607-12.5 12.5v37.5h-49v-5.5c0-12.407-10.093-22.5-22.5-22.5h-17.5v-21.444h67.5c6.893 0 12.5-5.607 12.5-12.5v-34.834c0-4.142-3.358-7.5-7.5-7.5s-7.5 3.358-7.5 7.5v32.333h-175v-101.111h175v33.778c0 4.142 3.358 7.5 7.5 7.5s7.5-3.358 7.5-7.5v-36.278c0-6.893-5.607-12.5-12.5-12.5h-180c-6.893 0-12.5 5.607-12.5 12.5v106.111c0 6.893 5.607 12.5 12.5 12.5h67.5v21.444h-17.5c-12.407 0-22.5 10.093-22.5 22.5v5.5h-55.299c3.37-5.903 5.299-12.729 5.299-20v-35c0-6.893-5.607-12.5-12.5-12.5h-61-12c-12.407 0-22.5 10.093-22.5 22.5v10c0 12.407 10.093 22.5 22.5 22.5h5.208c.841 4.471 2.437 8.674 4.62 12.5h-29.328c-6.893 0-12.5 5.607-12.5 12.5v16.337c0 6.893 5.607 12.5 12.5 12.5h3.5v211.163c0 6.893 5.607 12.5 12.5 12.5h20c6.893 0 12.5-5.607 12.5-12.5v-113.5h46c4.142 0 7.5-3.358 7.5-7.5s-3.358-7.5-7.5-7.5h-46v-82.663h217v47.621 35.042h-136c-4.142 0-7.5 3.358-7.5 7.5s3.358 7.5 7.5 7.5h136v73.999c0 6.893 5.607 12.5 12.5 12.5h160.5v27.001c0 6.893 5.607 12.5 12.5 12.5h20c6.893 0 12.5-5.607 12.5-12.5v-150.277c0-4.142-3.358-7.5-7.5-7.5s-7.5 3.358-7.5 7.5v147.778h-15v-208.663h15v25.885c0 4.142 3.358 7.5 7.5 7.5s7.5-3.358 7.5-7.5v-25.885h3.5c6.893 0 12.5-5.607 12.5-12.5v-16.337c0-6.893-5.607-12.5-12.5-12.5h-9.078v-35zm-463 7.5h-4.5c-4.136 0-7.5-3.364-7.5-7.5v-10c0-4.136 3.364-7.5 7.5-7.5h4.5zm320-7.5h14.078 104.845v10h-118.923zm0 25h118.922v10h-118.922zm-134-39.445h15v21.444h-15zm-40 43.945c0-4.136 3.364-7.5 7.5-7.5h80c4.136 0 7.5 3.364 7.5 7.5v5.5h-95zm-131-47h51v32.5c0 8.101-3.802 15.326-9.709 20h-31.582c-5.908-4.674-9.709-11.899-9.709-20zm-5.5 302.5h-15v-208.663h15zm405-39.502h-158v-58.918h158zm0-73.918h-158v-40.122h158zm0-55.122h-158v-40.121h158zm46-66.458v11.337h-482v-11.337zm-14.078-65h-104.844v-10h118.922v10z"/><path d="m292 64.5h-75c-4.142 0-7.5 3.358-7.5 7.5s3.358 7.5 7.5 7.5h75c4.142 0 7.5-3.358 7.5-7.5s-3.358-7.5-7.5-7.5z"/><path d="m168 79.5h26c4.142 0 7.5-3.358 7.5-7.5s-3.358-7.5-7.5-7.5h-26c-4.142 0-7.5 3.358-7.5 7.5s3.358 7.5 7.5 7.5z"/><path d="m292 90.5h-24c-4.142 0-7.5 3.358-7.5 7.5s3.358 7.5 7.5 7.5h24c4.142 0 7.5-3.358 7.5-7.5s-3.358-7.5-7.5-7.5z"/><path d="m249.5 98c0-4.142-3.358-7.5-7.5-7.5h-74c-4.142 0-7.5 3.358-7.5 7.5s3.358 7.5 7.5 7.5h74c4.142 0 7.5-3.358 7.5-7.5z"/><path d="m168 116.5c-4.142 0-7.5 3.358-7.5 7.5s3.358 7.5 7.5 7.5h44c4.142 0 7.5-3.358 7.5-7.5s-3.358-7.5-7.5-7.5z"/></g></g></svg>