<?xml version="1.0" encoding="UTF-8" standalone="no"?>
<!-- Generator: Adobe Illustrator 19.0.0, SVG Export Plug-In . SVG Version: 6.00 Build 0)  -->

<svg
   version="1.1"
   id="Capa_1"
   x="0px"
   y="0px"
   viewBox="0 0 512 512"
   style="enable-background:new 0 0 512 512;"
   xml:space="preserve"
   sodipodi:docname="open-book-color.svg"
   inkscape:version="1.1.2 (0a00cf5339, 2022-02-04)"
   xmlns:inkscape="http://www.inkscape.org/namespaces/inkscape"
   xmlns:sodipodi="http://sodipodi.sourceforge.net/DTD/sodipodi-0.dtd"
   xmlns="http://www.w3.org/2000/svg"
   xmlns:svg="http://www.w3.org/2000/svg"><defs
   id="defs89" /><sodipodi:namedview
   id="namedview87"
   pagecolor="#ffffff"
   bordercolor="#666666"
   borderopacity="1.0"
   inkscape:pageshadow="2"
   inkscape:pageopacity="0.0"
   inkscape:pagecheckerboard="0"
   showgrid="false"
   inkscape:zoom="1.2304688"
   inkscape:cx="255.59365"
   inkscape:cy="255.59365"
   inkscape:window-width="1920"
   inkscape:window-height="1012"
   inkscape:window-x="0"
   inkscape:window-y="0"
   inkscape:window-maximized="1"
   inkscape:current-layer="Capa_1" />
<path
   style="fill:#efb078;stroke-width:1.0282"
   d="m 511.39807,142.32135 v 290.53563 c 0,12.72599 -10.31693,23.04292 -23.04293,23.04292 H 255.998 23.64086 c -12.725997,0 -23.04292746,-10.31693 -23.04292746,-23.04292 V 142.32135 c 0,-13.35319 10.82383146,-24.176 24.17600046,-24.176 H 487.22104 c 13.3532,-10e-4 24.17703,10.82281 24.17703,24.176 z"
   id="path2" />
<path
   style="fill:#e2d0c5;stroke-width:1.0282"
   d="m 483.89071,127.7518 v 276.73824 c 0,12.84836 -10.41461,23.26296 -23.26296,23.26296 H 255.998 51.369281 c -12.848352,0 -23.263989,-10.4146 -23.263989,-23.26296 V 127.7518"
   id="path4" />
<g
   id="g10"
   transform="matrix(1.0281972,0,0,1.0281972,-7.2184224,-7.4612707)">
	<path
   style="fill:#fff2e9"
   d="M 256.001,126.553 V 423.28 h -3.356 c -7.046,-17.763 -24.373,-30.314 -44.63,-30.314 H 56.98 c -12.491,0 -22.629,-10.128 -22.629,-22.619 v -269.15 c 0,-12.501 10.139,-22.629 22.629,-22.629 h 151.035 c 26.502,-0.001 47.986,21.483 47.986,47.985 z"
   id="path6" />
	<path
   style="fill:#fff2e9"
   d="m 477.641,101.197 v 269.15 c 0,12.491 -10.128,22.619 -22.629,22.619 H 303.987 c -2.879,0 -5.708,0.253 -8.445,0.75 -16.536,2.93 -30.142,14.326 -36.185,29.564 h -3.356 V 126.553 c 0,-23.623 17.063,-43.251 39.541,-47.246 2.748,-0.487 5.566,-0.74 8.445,-0.74 h 151.025 c 12.501,0 22.629,10.129 22.629,22.63 z"
   id="path8" />
</g>
<path
   style="fill:#e2d0c5;stroke-width:1.0282"
   d="M 296.65703,74.081963 V 397.35641 c -17.00227,3.01262 -30.99192,14.72995 -37.20532,30.39762 h -3.45063 V 122.66017 c 0,-24.289105 17.54413,-44.470559 40.65595,-48.578207 z"
   id="path12" />
<circle
   style="fill:#ef6e4b;stroke-width:1.0282"
   cx="380.39548"
   cy="325.39291"
   r="70.712204"
   id="circle14" />
<path
   style="fill:#ba7052;stroke-width:1.0282"
   d="m 441.73462,360.60967 40.80195,40.80195 c 7.21383,7.21383 7.21383,18.90958 0,26.11312 -3.60691,3.60692 -8.32942,5.41038 -13.06221,5.41038 -4.7328,0 -9.45531,-1.80346 -13.06222,-5.41038 L 415.6215,386.73411"
   id="path16" />
<circle
   style="fill:#46bee8;stroke-width:1.0282"
   cx="380.39548"
   cy="325.39291"
   r="45.242733"
   id="circle18" />



<path
   d="M 76.292781,131.48827 H 202.78777 c 4.31843,0 7.81841,-3.50101 7.81841,-7.81841 0,-4.3174 -3.49998,-7.81841 -7.81841,-7.81841 H 76.292781 c -4.318428,0 -7.818411,3.50101 -7.818411,7.81841 0,4.3174 3.501011,7.81841 7.818411,7.81841 z"
   id="path26"
   style="fill:#4d4d4d;stroke-width:1.0282" />
<path
   d="m 202.78777,154.11683 h -16.63109 c -4.31843,0 -7.81841,3.50101 -7.81841,7.81841 0,4.3174 3.49998,7.81841 7.81841,7.81841 h 16.63109 c 4.31843,0 7.81841,-3.50101 7.81841,-7.81841 0,-4.3174 -3.49896,-7.81841 -7.81841,-7.81841 z"
   id="path28"
   style="fill:#4d4d4d;stroke-width:1.0282" />
<path
   d="m 76.292781,169.75365 h 83.801159 c 4.31842,0 7.81841,-3.50101 7.81841,-7.81841 0,-4.3174 -3.49999,-7.81841 -7.81841,-7.81841 H 76.292781 c -4.318428,0 -7.818411,3.50101 -7.818411,7.81841 0,4.31843 3.501011,7.81841 7.818411,7.81841 z"
   id="path30"
   style="fill:#4d4d4d;stroke-width:1.0282" />
<path
   d="m 202.78777,230.64966 h -54.15926 c -4.31843,0 -7.81841,3.50101 -7.81841,7.81841 0,4.3174 3.49998,7.81841 7.81841,7.81841 h 54.15926 c 4.31843,0 7.81841,-3.50101 7.81841,-7.81841 0,-4.3174 -3.49896,-7.81841 -7.81841,-7.81841 z"
   id="path32"
   style="fill:#4d4d4d;stroke-width:1.0282" />
<path
   d="m 76.292781,246.28648 h 46.272989 c 4.31843,0 7.81841,-3.50101 7.81841,-7.81841 0,-4.3174 -3.49998,-7.81841 -7.81841,-7.81841 H 76.292781 c -4.318428,0 -7.818411,3.50101 -7.818411,7.81841 0,4.3174 3.501011,7.81841 7.818411,7.81841 z"
   id="path34"
   style="fill:#4d4d4d;stroke-width:1.0282" />
<path
   d="M 76.292781,322.81931 H 202.78777 c 4.31843,0 7.81841,-3.50101 7.81841,-7.81841 0,-4.3174 -3.49998,-7.81841 -7.81841,-7.81841 H 76.292781 c -4.318428,0 -7.818411,3.50101 -7.818411,7.81841 0,4.3174 3.501011,7.81841 7.818411,7.81841 z"
   id="path36"
   style="fill:#4d4d4d;stroke-width:1.0282" />
<path
   d="M 76.292781,208.02007 H 202.78777 c 4.31843,0 7.81841,-3.50101 7.81841,-7.81841 0,-4.3174 -3.49998,-7.81841 -7.81841,-7.81841 H 76.292781 c -4.318428,0 -7.818411,3.50101 -7.818411,7.81841 0,4.31843 3.501011,7.81841 7.818411,7.81841 z"
   id="path38"
   style="fill:#4d4d4d;stroke-width:1.0282" />
<path
   d="M 76.292781,284.5529 H 202.78777 c 4.31843,0 7.81841,-3.50101 7.81841,-7.81841 0,-4.3174 -3.49998,-7.81841 -7.81841,-7.81841 H 76.292781 c -4.318428,0 -7.818411,3.50101 -7.818411,7.81841 0,4.3174 3.501011,7.81841 7.818411,7.81841 z"
   id="path40"
   style="fill:#4d4d4d;stroke-width:1.0282" />
<path
   d="m 146.06624,348.76278 h -13.05193 c -4.31843,0 -7.81841,3.50102 -7.81841,7.81842 0,4.3174 3.49998,7.81841 7.81841,7.81841 h 13.05193 c 4.31843,0 7.81841,-3.50101 7.81841,-7.81841 0,-4.31843 -3.49895,-7.81842 -7.81841,-7.81842 z"
   id="path42"
   style="fill:#4d4d4d;stroke-width:1.0282" />
<path
   d="m 315.22936,131.48827 h 126.49498 c 4.31843,0 7.81841,-3.50101 7.81841,-7.81841 0,-4.3174 -3.49998,-7.81841 -7.81841,-7.81841 H 315.22936 c -4.31843,0 -7.81842,3.50101 -7.81842,7.81841 0,4.3174 3.49999,7.81841 7.81842,7.81841 z"
   id="path44"
   style="fill:#4d4d4d;stroke-width:1.0282" />
<path
   d="m 315.22936,169.75365 h 126.49498 c 4.31843,0 7.81841,-3.50101 7.81841,-7.81841 0,-4.3174 -3.49998,-7.81841 -7.81841,-7.81841 H 315.22936 c -4.31843,0 -7.81842,3.50101 -7.81842,7.81841 0,4.31843 3.49999,7.81841 7.81842,7.81841 z"
   id="path46"
   style="fill:#4d4d4d;stroke-width:1.0282" />
<path
   d="m 441.72434,192.38325 h -53.33156 c -4.31843,0 -7.81841,3.50101 -7.81841,7.81841 0,4.3174 3.49998,7.81841 7.81841,7.81841 h 53.33156 c 4.31843,0 7.81841,-3.50101 7.81841,-7.81841 0,-4.3174 -3.49998,-7.81841 -7.81841,-7.81841 z"
   id="path48"
   style="fill:#4d4d4d;stroke-width:1.0282" />
<path
   d="m 315.22936,208.02007 h 47.10068 c 4.31843,0 7.81841,-3.50101 7.81841,-7.81841 0,-4.3174 -3.49998,-7.81841 -7.81841,-7.81841 h -47.10068 c -4.31843,0 -7.81842,3.50101 -7.81842,7.81841 0,4.31843 3.49999,7.81841 7.81842,7.81841 z"
   id="path50"
   style="fill:#4d4d4d;stroke-width:1.0282" />


<g
   id="g56">
</g>
<g
   id="g58">
</g>
<g
   id="g60">
</g>
<g
   id="g62">
</g>
<g
   id="g64">
</g>
<g
   id="g66">
</g>
<g
   id="g68">
</g>
<g
   id="g70">
</g>
<g
   id="g72">
</g>
<g
   id="g74">
</g>
<g
   id="g76">
</g>
<g
   id="g78">
</g>
<g
   id="g80">
</g>
<g
   id="g82">
</g>
<g
   id="g84">
</g>
</svg>
