<svg id="Capa_1" enable-background="new 0 0 497 497" height="512" viewBox="0 0 497 497" width="512" xmlns="http://www.w3.org/2000/svg"><g><path d="m410.879 497h-324.758c-9.192 0-16.644-7.452-16.644-16.644v-463.712c0-9.192 7.452-16.644 16.644-16.644h324.757c9.192 0 16.644 7.452 16.644 16.644v463.712c.001 9.192-7.451 16.644-16.643 16.644z" fill="#f6a96c"/><path d="m382.297 457.604h-267.594c-4.461 0-8.077-3.616-8.077-8.077v-402.054c0-4.461 3.616-8.077 8.077-8.077h267.594c4.461 0 8.077 3.616 8.077 8.077v402.055c0 4.46-3.616 8.076-8.077 8.076z" fill="#f9f3f1"/><path d="m410.879 0h-6.356v456.356c0 9.192-7.452 16.644-16.644 16.644h-318.402v7.356c0 9.192 7.452 16.644 16.644 16.644h324.757c9.192 0 16.644-7.452 16.644-16.644v-463.712c.001-9.192-7.451-16.644-16.643-16.644z" fill="#ea9b58"/><path d="m382.297 39.396h-14.923v386.132c0 4.461-3.616 8.077-8.077 8.077h-252.671v15.923c0 4.461 3.616 8.077 8.077 8.077h267.594c4.461 0 8.077-3.616 8.077-8.077v-402.055c0-4.461-3.616-8.077-8.077-8.077z" fill="#f3eae6"/><path d="m313.343 69.087h-134.079c-5.3 0-9.597-4.297-9.597-9.597v-20.393c0-5.3 4.297-9.597 9.597-9.597h134.079c5.3 0 9.597 4.297 9.597 9.597v20.393c0 5.3-4.297 9.597-9.597 9.597z" fill="#b5adb6"/><g fill="#57be92"><path d="m177.886 115.503h-22.271c-8.495 0-15.406 6.911-15.406 15.406v22.271c0 8.495 6.911 15.406 15.406 15.406h22.271c8.495 0 15.406-6.911 15.406-15.406v-22.271c0-8.495-6.911-15.406-15.406-15.406z"/><path d="m177.886 192.415h-22.271c-8.495 0-15.406 6.911-15.406 15.406v22.271c0 8.495 6.911 15.406 15.406 15.406h22.271c8.495 0 15.406-6.911 15.406-15.406v-22.271c0-8.495-6.911-15.406-15.406-15.406z"/><path d="m177.886 269.326h-22.271c-8.495 0-15.406 6.911-15.406 15.406v22.271c0 8.495 6.911 15.406 15.406 15.406h22.271c8.495 0 15.406-6.911 15.406-15.406v-22.271c0-8.494-6.911-15.406-15.406-15.406z"/><path d="m177.886 346.238h-22.271c-8.495 0-15.406 6.911-15.406 15.406v22.271c0 8.495 6.911 15.406 15.406 15.406h22.271c8.495 0 15.406-6.911 15.406-15.406v-22.271c0-8.495-6.911-15.406-15.406-15.406z"/></g><g fill="#b5adb6"><path d="m343.775 130.503h-124.454c-4.142 0-7.5-3.358-7.5-7.5s3.358-7.5 7.5-7.5h124.454c4.142 0 7.5 3.358 7.5 7.5s-3.358 7.5-7.5 7.5z"/><path d="m248.5 160.727h-29.179c-4.142 0-7.5-3.358-7.5-7.5s3.358-7.5 7.5-7.5h29.179c4.142 0 7.5 3.358 7.5 7.5s-3.358 7.5-7.5 7.5z"/><path d="m343.775 207.415h-124.454c-4.142 0-7.5-3.358-7.5-7.5s3.358-7.5 7.5-7.5h124.454c4.142 0 7.5 3.358 7.5 7.5s-3.358 7.5-7.5 7.5z"/><path d="m248.5 237.639h-29.179c-4.142 0-7.5-3.358-7.5-7.5s3.358-7.5 7.5-7.5h29.179c4.142 0 7.5 3.358 7.5 7.5s-3.358 7.5-7.5 7.5z"/><path d="m343.775 284.326h-124.454c-4.142 0-7.5-3.358-7.5-7.5s3.358-7.5 7.5-7.5h124.454c4.142 0 7.5 3.358 7.5 7.5s-3.358 7.5-7.5 7.5z"/><path d="m248.5 314.551h-29.179c-4.142 0-7.5-3.358-7.5-7.5s3.358-7.5 7.5-7.5h29.179c4.142 0 7.5 3.358 7.5 7.5s-3.358 7.5-7.5 7.5z"/><path d="m343.775 361.238h-124.454c-4.142 0-7.5-3.358-7.5-7.5s3.358-7.5 7.5-7.5h124.454c4.142 0 7.5 3.358 7.5 7.5s-3.358 7.5-7.5 7.5z"/><path d="m248.5 391.462h-29.179c-4.142 0-7.5-3.358-7.5-7.5s3.358-7.5 7.5-7.5h29.179c4.142 0 7.5 3.358 7.5 7.5s-3.358 7.5-7.5 7.5z"/></g></g></svg>