<svg id="Capa_1" enable-background="new 0 0 512 512" height="512" viewBox="0 0 512 512" width="512" xmlns="http://www.w3.org/2000/svg"><g><g><g><g><path d="m418.379 504.5h-324.758c-9.192 0-16.644-7.452-16.644-16.644v-463.712c0-9.192 7.452-16.644 16.644-16.644h324.757c9.192 0 16.644 7.452 16.644 16.644v463.712c.001 9.192-7.451 16.644-16.643 16.644z" fill="#f6a96c"/></g></g><g><g><path d="m389.797 465.104h-267.594c-4.461 0-8.077-3.616-8.077-8.077v-402.054c0-4.461 3.616-8.077 8.077-8.077h267.594c4.461 0 8.077 3.616 8.077 8.077v402.055c0 4.46-3.616 8.076-8.077 8.076z" fill="#f9f3f1"/></g></g><g><g><path d="m418.379 7.5h-6.356v456.356c0 9.192-7.452 16.644-16.644 16.644h-318.401v7.356c0 9.192 7.452 16.644 16.644 16.644h324.757c9.192 0 16.644-7.452 16.644-16.644v-463.712c0-9.192-7.452-16.644-16.644-16.644z" fill="#ea9b58"/></g></g><g><g><path d="m389.797 46.896h-14.923v386.132c0 4.461-3.616 8.077-8.077 8.077h-252.671v15.923c0 4.461 3.616 8.077 8.077 8.077h267.594c4.461 0 8.077-3.616 8.077-8.077v-402.055c0-4.461-3.616-8.077-8.077-8.077z" fill="#f3eae6"/></g></g><g><g><path d="m317.629 74.732h-127.651c-3.11 0-5.63-2.521-5.63-5.63v-24.618c0-3.11 2.521-5.63 5.63-5.63h127.651c3.11 0 5.63 2.521 5.63 5.63v24.617c0 3.11-2.521 5.631-5.63 5.631z" fill="#a79ba7"/></g></g><g><g><path d="m185.386 168.585h-22.271c-4.366 0-7.906-3.54-7.906-7.906v-22.271c0-4.366 3.54-7.906 7.906-7.906h22.271c4.366 0 7.906 3.54 7.906 7.906v22.271c0 4.367-3.54 7.906-7.906 7.906z" fill="#57be92"/></g></g><g><g><path d="m185.386 245.497h-22.271c-4.366 0-7.906-3.54-7.906-7.906v-22.271c0-4.366 3.54-7.906 7.906-7.906h22.271c4.366 0 7.906 3.54 7.906 7.906v22.271c0 4.367-3.54 7.906-7.906 7.906z" fill="#57be92"/></g></g><g><g><path d="m185.386 322.409h-22.271c-4.366 0-7.906-3.54-7.906-7.906v-22.271c0-4.366 3.54-7.906 7.906-7.906h22.271c4.366 0 7.906 3.54 7.906 7.906v22.271c0 4.366-3.54 7.906-7.906 7.906z" fill="#57be92"/></g></g><g><g><path d="m185.386 399.321h-22.271c-4.366 0-7.906-3.54-7.906-7.906v-22.271c0-4.366 3.54-7.906 7.906-7.906h22.271c4.366 0 7.906 3.54 7.906 7.906v22.271c0 4.366-3.54 7.906-7.906 7.906z" fill="#57be92"/></g></g></g><g><path d="m418.379 0h-252.995c-4.142 0-7.5 3.358-7.5 7.5s3.358 7.5 7.5 7.5h252.995c5.042 0 9.144 4.102 9.144 9.144v463.712c0 5.042-4.102 9.144-9.144 9.144h-324.757c-5.042 0-9.144-4.102-9.144-9.144v-463.712c0-5.042 4.102-9.144 9.144-9.144h36.763c4.142 0 7.5-3.358 7.5-7.5s-3.358-7.5-7.5-7.5h-36.763c-13.313 0-24.144 10.831-24.144 24.144v463.712c0 13.313 10.831 24.144 24.144 24.144h324.757c13.313 0 24.144-10.831 24.144-24.144v-463.712c-.001-13.313-10.831-24.144-24.144-24.144z"/><path d="m337.646 472.604h52.151c8.589 0 15.577-6.988 15.577-15.577v-402.055c0-8.589-6.988-15.577-15.577-15.577h-60.065c-1.992-4.72-6.667-8.042-12.103-8.042h-127.651c-5.437 0-10.111 3.322-12.103 8.042h-55.671c-8.589 0-15.577 6.988-15.577 15.577v402.055c0 8.589 6.988 15.577 15.577 15.577h180.443c4.142 0 7.5-3.358 7.5-7.5s-3.358-7.5-7.5-7.5h-180.444c-.318 0-.577-.259-.577-.577v-402.055c0-.318.259-.577.577-.577h54.644v14.706c0 7.24 5.89 13.13 13.13 13.13h127.651c7.24 0 13.13-5.89 13.13-13.13v-14.705h59.038c.318 0 .577.259.577.577v402.055c0 .318-.259.577-.577.577h-52.151c-4.142 0-7.5 3.358-7.5 7.5s3.359 7.499 7.501 7.499zm-21.887-405.372h-123.912v-20.878h123.912z"/><path d="m200.792 138.409c0-8.495-6.911-15.406-15.406-15.406h-22.271c-8.495 0-15.406 6.911-15.406 15.406v22.271c0 8.495 6.911 15.406 15.406 15.406h22.271c8.495 0 15.406-6.911 15.406-15.406zm-15 22.27c0 .224-.182.406-.406.406h-22.271c-.224 0-.406-.182-.406-.406v-22.271c0-.224.182-.406.406-.406h22.271c.224 0 .406.182.406.406z"/><path d="m200.792 215.321c0-8.495-6.911-15.406-15.406-15.406h-22.271c-8.495 0-15.406 6.911-15.406 15.406v22.271c0 8.495 6.911 15.406 15.406 15.406h22.271c8.495 0 15.406-6.911 15.406-15.406zm-15 22.27c0 .224-.182.406-.406.406h-22.271c-.224 0-.406-.182-.406-.406v-22.271c0-.224.182-.406.406-.406h22.271c.224 0 .406.182.406.406z"/><path d="m200.792 292.232c0-8.495-6.911-15.406-15.406-15.406h-22.271c-8.495 0-15.406 6.911-15.406 15.406v22.271c0 8.495 6.911 15.406 15.406 15.406h22.271c8.495 0 15.406-6.911 15.406-15.406zm-15 22.271c0 .224-.182.406-.406.406h-22.271c-.224 0-.406-.182-.406-.406v-22.271c0-.224.182-.406.406-.406h22.271c.224 0 .406.182.406.406z"/><path d="m185.386 353.738h-22.271c-8.495 0-15.406 6.911-15.406 15.406v22.271c0 8.495 6.911 15.406 15.406 15.406h22.271c8.495 0 15.406-6.911 15.406-15.406v-22.271c0-8.495-6.911-15.406-15.406-15.406zm.406 37.677c0 .224-.182.406-.406.406h-22.271c-.224 0-.406-.182-.406-.406v-22.271c0-.224.182-.406.406-.406h22.271c.224 0 .406.182.406.406z"/><path d="m226.821 138.003h124.454c4.142 0 7.5-3.358 7.5-7.5s-3.358-7.5-7.5-7.5h-124.454c-4.142 0-7.5 3.358-7.5 7.5s3.358 7.5 7.5 7.5z"/><path d="m226.821 168.227h29.179c4.142 0 7.5-3.358 7.5-7.5s-3.358-7.5-7.5-7.5h-29.179c-4.142 0-7.5 3.358-7.5 7.5s3.358 7.5 7.5 7.5z"/><path d="m226.821 214.915h124.454c4.142 0 7.5-3.358 7.5-7.5s-3.358-7.5-7.5-7.5h-124.454c-4.142 0-7.5 3.358-7.5 7.5s3.358 7.5 7.5 7.5z"/><path d="m226.821 245.139h29.179c4.142 0 7.5-3.358 7.5-7.5s-3.358-7.5-7.5-7.5h-29.179c-4.142 0-7.5 3.358-7.5 7.5s3.358 7.5 7.5 7.5z"/><path d="m226.821 291.826h124.454c4.142 0 7.5-3.358 7.5-7.5s-3.358-7.5-7.5-7.5h-124.454c-4.142 0-7.5 3.358-7.5 7.5s3.358 7.5 7.5 7.5z"/><path d="m226.821 322.051h29.179c4.142 0 7.5-3.358 7.5-7.5s-3.358-7.5-7.5-7.5h-29.179c-4.142 0-7.5 3.358-7.5 7.5s3.358 7.5 7.5 7.5z"/><path d="m358.775 361.238c0-4.142-3.358-7.5-7.5-7.5h-124.454c-4.142 0-7.5 3.358-7.5 7.5s3.358 7.5 7.5 7.5h124.454c4.142 0 7.5-3.358 7.5-7.5z"/><path d="m226.821 383.962c-4.142 0-7.5 3.358-7.5 7.5s3.358 7.5 7.5 7.5h29.179c4.142 0 7.5-3.358 7.5-7.5s-3.358-7.5-7.5-7.5z"/></g></g></svg>